<svg xmlns="http://www.w3.org/2000/svg" viewBox="0 0 800 500"><defs/><path fill="#20171e" d="M0 0h100v100H0z"/><path fill="#33222e" d="M100 0h100v100H100z"/><path fill="#3b2732" d="M200 0h100v100H200z"/><path fill="#362733" d="M300 0h100v100H300z"/><path fill="#372734" d="M400 0h100v100H400z"/><path fill="#34242f" d="M500 0h100v100H500z"/><path fill="#271c23" d="M600 0h100v100H600z"/><path fill="#352731" d="M700 0h100v100H700z"/><path fill="#0d090d" d="M0 100h100v100H0z"/><path fill="#2b1b21" d="M100 100h100v100H100z"/><path fill="#2a1c25" d="M200 100h100v100H200z"/><path fill="#070711" d="M300 100h100v100H300z"/><path fill="#080712" d="M400 100h100v100H400z"/><path fill="#271219" d="M500 100h100v100H500z"/><path fill="#1d0f11" d="M600 100h100v100H600z"/><path fill="#23151e" d="M700 100h100v100H700z"/><path fill="#241822" d="M0 200h100v100H0z"/><path fill="#26181f" d="M100 200h100v100H100z"/><path fill="#291319" d="M200 200h100v100H200z"/><path fill="#401114" d="M300 200h100v100H300z"/><path fill="#3c1619" d="M400 200h100v100H400z"/><path fill="#291214" d="M500 200h100v100H500z"/><path fill="#2b181e" d="M600 200h100v100H600z"/><path fill="#251924" d="M700 200h100v100H700z"/><path fill="#2a1a23" d="M0 300h100v100H0z"/><path fill="#200f15" d="M100 300h100v100H100z"/><path fill="#380307" d="M200 300h100v100H200z"/><path fill="#38090d" d="M300 300h100v100H300z"/><path fill="#32181e" d="M400 300h100v100H400z"/><path fill="#3b0a0a" d="M500 300h100v100H500z"/><path fill="#370b0a" d="M600 300h100v100H600z"/><path fill="#1d1219" d="M700 300h100v100H700z"/><path fill="#1f131a" d="M0 400h100v100H0z"/><path fill="#10070a" d="M100 400h100v100H100z"/><path fill="#230509" d="M200 400h100v100H200z"/><path fill="#180609" d="M300 400h100v100H300z"/><path fill="#170507" d="M400 400h100v100H400z"/><path fill="#32090f" d="M500 400h100v100H500z"/><path fill="#421114" d="M600 400h100v100H600z"/><path fill="#1c090b" d="M700 400h100v100H700z"/></svg>