<svg xmlns="http://www.w3.org/2000/svg" viewBox="0 0 800 500"><defs/><path fill="#3f3a3e" d="M0 0h100v100H0z"/><path fill="#4c4347" d="M100 0h100v100H100z"/><path fill="#494044" d="M200 0h100v100H200z"/><path fill="#6d636b" d="M300 0h100v100H300z"/><path fill="#584d52" d="M400 0h100v100H400z"/><path fill="#4a3e40" d="M500 0h100v100H500z"/><path fill="#51474a" d="M600 0h100v100H600z"/><path fill="#433b3d" d="M700 0h100v100H700z"/><path fill="#655a5d" d="M0 100h100v100H0z"/><path fill="#4d3c39" d="M100 100h100v100H100z"/><path fill="#3e3637" d="M200 100h100v100H200z"/><path fill="#6a605f" d="M300 100h100v100H300z"/><path fill="#534644" d="M400 100h100v100H400z"/><path fill="#463a3c" d="M500 100h100v100H500z"/><path fill="#5b5052" d="M600 100h100v100H600z"/><path fill="#443a3b" d="M700 100h100v100H700z"/><path fill="#7d7880" d="M0 200h100v100H0z"/><path fill="#504242" d="M100 200h100v100H100z"/><path fill="#4b3e3d" d="M200 200h100v100H200z"/><path fill="#48393c" d="M300 200h100v100H300z"/><path fill="#5d565d" d="M400 200h100v100H400z"/><path fill="#5e5558" d="M500 200h100v100H500z"/><path fill="#53484a" d="M600 200h100v100H600z"/><path fill="#4d4345" d="M700 200h100v100H700z"/><path fill="#54535c" d="M0 300h100v100H0z"/><path fill="#4f4445" d="M100 300h100v100H100z"/><path fill="#44342f" d="M200 300h100v100H200z"/><path fill="#211511" d="M300 300h100v100H300z"/><path fill="#332b2c" d="M400 300h100v100H400z"/><path fill="#504545" d="M500 300h100v100H500z"/><path fill="#554f54" d="M600 300h100v100H600z"/><path fill="#4f494d" d="M700 300h100v100H700z"/><path fill="#38353b" d="M0 400h100v100H0z"/><path fill="#302726" d="M100 400h100v100H100z"/><path fill="#1a0f0b" d="M200 400h100v100H200z"/><path fill="#251913" d="M300 400h100v100H300z"/><path fill="#2b1f1b" d="M400 400h100v100H400z"/><path fill="#231a17" d="M500 400h100v100H500z"/><path fill="#1f1616" d="M600 400h100v100H600z"/><path fill="#221918" d="M700 400h100v100H700z"/></svg>