<svg xmlns="http://www.w3.org/2000/svg" viewBox="0 0 800 400"><defs/><path fill="#2a7086" d="M0 0h100v100H0z"/><path fill="#355761" d="M100 0h100v100H100z"/><path fill="#689081" d="M200 0h100v100H200z"/><path fill="#48b19f" d="M300 0h100v100H300z"/><path fill="#8e9c6c" d="M400 0h100v100H400z"/><path fill="#8c7453" d="M500 0h100v100H500z"/><path fill="#746857" d="M600 0h100v100H600z"/><path fill="#4e7479" d="M700 0h100v100H700z"/><path fill="#286276" d="M0 100h100v100H0z"/><path fill="#226f8a" d="M100 100h100v100H100z"/><path fill="#9b9e61" d="M200 100h100v100H200z"/><path fill="#76c195" d="M300 100h100v100H300z"/><path fill="#5fc5a8" d="M400 100h100v100H400z"/><path fill="#ba9c5b" d="M500 100h100v100H500z"/><path fill="#aa804d" d="M600 100h100v100H600z"/><path fill="#6a6556" d="M700 100h100v100H700z"/><path fill="#175b7a" d="M0 200h100v100H0z"/><path fill="#537167" d="M100 200h100v100H100z"/><path fill="#caa055" d="M200 200h100v100H200z"/><path fill="#b7793c" d="M300 200h100v100H300z"/><path fill="#af6f40" d="M400 200h100v100H400z"/><path fill="#b47f49" d="M500 200h100v100H500z"/><path fill="#a87e45" d="M600 200h100v100H600z"/><path fill="#736f49" d="M700 200h100v100H700z"/><path fill="#405759" d="M0 300h100v100H0z"/><path fill="#8c7549" d="M100 300h100v100H100z"/><path fill="#918757" d="M200 300h100v100H200z"/><path fill="#9c7341" d="M300 300h100v100H300z"/><path fill="#bd7e3c" d="M400 300h100v100H400z"/><path fill="#ac8142" d="M500 300h100v100H500z"/><path fill="#92723c" d="M600 300h100v100H600z"/><path fill="#565c45" d="M700 300h100v100H700z"/></svg>