<svg xmlns="http://www.w3.org/2000/svg" viewBox="0 0 800 500"><defs/><path fill="#e9e7d9" d="M0 0h100v100H0z"/><path fill="#bba08a" d="M100 0h100v100H100z"/><path fill="#c7d0c4" d="M200 0h100v100H200z"/><path fill="#e7f5f5" d="M300 0h100v100H300z"/><path fill="#e1f8fb" d="M400 0h100v100H400z"/><path fill="#dbedeb" d="M500 0h100v100H500z"/><path fill="#c8d1c2" d="M600 0h100v100H600z"/><path fill="#9bab8e" d="M700 0h100v100H700z"/><path fill="#c4b79c" d="M0 100h100v100H0z"/><path fill="#a78364" d="M100 100h100v100H100z"/><path fill="#939a71" d="M200 100h100v100H200z"/><path fill="#94a58d" d="M300 100h100v100H300z"/><path fill="#d1e9d9" d="M400 100h100v100H400z"/><path fill="#a7b793" d="M500 100h100v100H500z"/><path fill="#8e9476" d="M600 100h100v100H600z"/><path fill="#728e5b" d="M700 100h100v100H700z"/><path fill="#bca38c" d="M0 200h100v100H0z"/><path fill="#ba9b7c" d="M100 200h100v100H100z"/><path fill="#b5a991" d="M200 200h100v100H200z"/><path fill="#9d947d" d="M300 200h100v100H300z"/><path fill="#9a9d79" d="M400 200h100v100H400z"/><path fill="#bdbea7" d="M500 200h100v100H500z"/><path fill="#afa895" d="M600 200h100v100H600z"/><path fill="#799264" d="M700 200h100v100H700z"/><path fill="#b4957b" d="M0 300h100v100H0z"/><path fill="#a07c5d" d="M100 300h100v100H100z"/><path fill="#a6b4a9" d="M200 300h100v100H200z"/><path fill="#9baba5" d="M300 300h100v100H300z"/><path fill="#a99a89" d="M400 300h100v100H400z"/><path fill="#beb3a7" d="M500 300h100v100H500z"/><path fill="#88796f" d="M600 300h100v100H600z"/><path fill="#615f49" d="M700 300h100v100H700z"/><path fill="#c0afa3" d="M0 400h100v100H0z"/><path fill="#b3b09e" d="M100 400h100v100H100z"/><path fill="#c5bfad" d="M200 400h100v100H200z"/><path fill="#dac8bb" d="M300 400h100v100H300z"/><path fill="#bcb4aa" d="M400 400h100v100H400z"/><path fill="#bfb9b0" d="M500 400h100v100H500z"/><path fill="#ada7a0" d="M600 400h100v100H600z"/><path fill="#a6988e" d="M700 400h100v100H700z"/></svg>