<svg xmlns="http://www.w3.org/2000/svg" viewBox="0 0 800 600"><defs/><path fill="#a39d92" d="M0 0h100v100H0z"/><path fill="#abaaa8" d="M100 0h100v100H100z"/><path fill="#b0aead" d="M200 0h100v100H200z"/><path fill="#b3b2b0" d="M300 0h100v100H300z"/><path fill="#b4b3b1" d="M400 0h100v100H400z"/><path fill="#b7b6b5" d="M500 0h100v100H500z"/><path fill="#bbb9b6" d="M600 0h100v100H600z"/><path fill="#b4b3b0" d="M700 0h100v100H700z"/><path fill="#a3a185" d="M0 100h100v100H0z"/><path fill="#9b8f76" d="M100 100h100v100H100z"/><path fill="#a29b88" d="M200 100h100v100H200z"/><path fill="#a2a390" d="M300 100h100v100H300z"/><path fill="#a3a393" d="M400 100h100v100H400z"/><path fill="#9ea195" d="M500 100h100v100H500z"/><path fill="#a5a694" d="M600 100h100v100H600z"/><path fill="#aba888" d="M700 100h100v100H700z"/><path fill="#a6a17d" d="M0 200h100v100H0z"/><path fill="#9a8868" d="M100 200h100v100H100z"/><path fill="#a4a07f" d="M200 200h100v100H200z"/><path fill="#a1a289" d="M300 200h100v100H300z"/><path fill="#a6a68a" d="M400 200h100v100H400z"/><path fill="#9ea290" d="M500 200h100v100H500z"/><path fill="#839a9d" d="M600 200h100v100H600z"/><path fill="#919c91" d="M700 200h100v100H700z"/><path fill="#9e9676" d="M0 300h100v100H0z"/><path fill="#927d6d" d="M100 300h100v100H100z"/><path fill="#9e8d76" d="M200 300h100v100H200z"/><path fill="#a3937d" d="M300 300h100v100H300z"/><path fill="#a69478" d="M400 300h100v100H400z"/><path fill="#958f7a" d="M500 300h100v100H500z"/><path fill="#3b7da4" d="M600 300h100v100H600z"/><path fill="#869381" d="M700 300h100v100H700z"/><path fill="#918573" d="M0 400h100v100H0z"/><path fill="#8a6e67" d="M100 400h100v100H100z"/><path fill="#90706d" d="M200 400h100v100H200z"/><path fill="#9a7b79" d="M300 400h100v100H300z"/><path fill="#a37e6f" d="M400 400h100v100H400z"/><path fill="#927d74" d="M500 400h100v100H500z"/><path fill="#75828f" d="M600 400h100v100H600z"/><path fill="#99897a" d="M700 400h100v100H700z"/><path fill="#908a88" d="M0 500h100v100H0z"/><path fill="#978d8a" d="M100 500h100v100H100z"/><path fill="#9e9692" d="M200 500h100v100H200z"/><path fill="#9f9b99" d="M300 500h100v100H300z"/><path fill="#a29d9e" d="M400 500h100v100H400z"/><path fill="#a59f9f" d="M500 500h100v100H500z"/><path fill="#a9a09e" d="M600 500h100v100H600z"/><path fill="#a29d9f" d="M700 500h100v100H700z"/></svg>