<svg xmlns="http://www.w3.org/2000/svg" viewBox="0 0 800 600"><defs/><path fill="#ef7890" d="M0 0h100v100H0z"/><path fill="#d6657c" d="M100 0h100v100H100z"/><path fill="#a35f6f" d="M200 0h100v100H200z"/><path fill="#5e575f" d="M300 0h100v100H300z"/><path fill="#975866" d="M400 0h100v100H400z"/><path fill="#b95d6e" d="M500 0h100v100H500z"/><path fill="#a35a67" d="M600 0h100v100H600z"/><path fill="#9d616d" d="M700 0h100v100H700z"/><path fill="#ec385c" d="M0 100h100v100H0z"/><path fill="#e63f61" d="M100 100h100v100H100z"/><path fill="#6d384a" d="M200 100h100v100H200z"/><path fill="#3e4044" d="M300 100h100v100H300z"/><path fill="#7d4656" d="M400 100h100v100H400z"/><path fill="#bc3752" d="M500 100h100v100H500z"/><path fill="#a43a4f" d="M600 100h100v100H600z"/><path fill="#8d2a3d" d="M700 100h100v100H700z"/><path fill="#bd5e73" d="M0 200h100v100H0z"/><path fill="#cf5e76" d="M100 200h100v100H100z"/><path fill="#a44051" d="M200 200h100v100H200z"/><path fill="#846763" d="M300 200h100v100H300z"/><path fill="#9d4e5a" d="M400 200h100v100H400z"/><path fill="#aa4e61" d="M500 200h100v100H500z"/><path fill="#a84859" d="M600 200h100v100H600z"/><path fill="#9f3141" d="M700 200h100v100H700z"/><path fill="#c84061" d="M0 300h100v100H0z"/><path fill="#c6385a" d="M100 300h100v100H100z"/><path fill="#b53754" d="M200 300h100v100H200z"/><path fill="#65464b" d="M300 300h100v100H300z"/><path fill="#994257" d="M400 300h100v100H400z"/><path fill="#c23553" d="M500 300h100v100H500z"/><path fill="#ac2b45" d="M600 300h100v100H600z"/><path fill="#a32b46" d="M700 300h100v100H700z"/><path fill="#da6a5d" d="M0 400h100v100H0z"/><path fill="#cca695" d="M100 400h100v100H100z"/><path fill="#a48d76" d="M200 400h100v100H200z"/><path fill="#946744" d="M300 400h100v100H300z"/><path fill="#ae7d62" d="M400 400h100v100H400z"/><path fill="#b8947e" d="M500 400h100v100H500z"/><path fill="#b7503e" d="M600 400h100v100H600z"/><path fill="#ae4c39" d="M700 400h100v100H700z"/><path fill="#d4cc16" d="M0 500h100v100H0z"/><path fill="#cdcd1c" d="M100 500h100v100H100z"/><path fill="#cfca19" d="M200 500h100v100H200z"/><path fill="#d2ca1a" d="M300 500h100v100H300z"/><path fill="#d1c516" d="M400 500h100v100H400z"/><path fill="#d0cb1a" d="M500 500h100v100H500z"/><path fill="#d4c912" d="M600 500h100v100H600z"/><path fill="#e4d60b" d="M700 500h100v100H700z"/></svg>