<svg xmlns="http://www.w3.org/2000/svg" viewBox="0 0 800 400"><defs/><path fill="#838974" d="M0 0h100v100H0z"/><path fill="#7c8276" d="M100 0h100v100H100z"/><path fill="#96b8b4" d="M200 0h100v100H200z"/><path fill="#a0b4b2" d="M300 0h100v100H300z"/><path fill="#a2b7af" d="M400 0h100v100H400z"/><path fill="#81a095" d="M500 0h100v100H500z"/><path fill="#759489" d="M600 0h100v100H600z"/><path fill="#a4a17e" d="M700 0h100v100H700z"/><path fill="#8b8462" d="M0 100h100v100H0z"/><path fill="#817f6b" d="M100 100h100v100H100z"/><path fill="#88b1b1" d="M200 100h100v100H200z"/><path fill="#92aca7" d="M300 100h100v100H300z"/><path fill="#97a4a4" d="M400 100h100v100H400z"/><path fill="#8aa39b" d="M500 100h100v100H500z"/><path fill="#7d9a8d" d="M600 100h100v100H600z"/><path fill="#a6a67f" d="M700 100h100v100H700z"/><path fill="#8a856d" d="M0 200h100v100H0z"/><path fill="#717a69" d="M100 200h100v100H100z"/><path fill="#84a198" d="M200 200h100v100H200z"/><path fill="#8fa296" d="M300 200h100v100H300z"/><path fill="#9caba6" d="M400 200h100v100H400z"/><path fill="#98a89e" d="M500 200h100v100H500z"/><path fill="#929987" d="M600 200h100v100H600z"/><path fill="#aba782" d="M700 200h100v100H700z"/><path fill="#848870" d="M0 300h100v100H0z"/><path fill="#839380" d="M100 300h100v100H100z"/><path fill="#839f92" d="M200 300h100v100H200z"/><path fill="#91a393" d="M300 300h100v100H300z"/><path fill="#9cb8a2" d="M400 300h100v100H400z"/><path fill="#9fbaa7" d="M500 300h100v100H500z"/><path fill="#9aa393" d="M600 300h100v100H600z"/><path fill="#888c7b" d="M700 300h100v100H700z"/></svg>