<svg xmlns="http://www.w3.org/2000/svg" viewBox="0 0 800 500"><defs/><path fill="#bfc5d2" d="M0 0h100v100H0z"/><path fill="#bdc5d2" d="M100 0h100v100H100z"/><path fill="#c8cbd2" d="M200 0h100v100H200z"/><path fill="#cccdd8" d="M300 0h100v100H300z"/><path fill="#cacbd6" d="M400 0h100v100H400z"/><path fill="#cccdd7" d="M500 0h100v100H500z"/><path fill="#c7cad5" d="M600 0h100v100H600z"/><path fill="#c4cbd7" d="M700 0h100v100H700z"/><path fill="#828eb9" d="M0 100h100v100H0z"/><path fill="#6d7ea9" d="M100 100h100v100H100z"/><path fill="#d6d1bd" d="M200 100h100v100H200z"/><path fill="#f2f0bb" d="M300 100h100v100H300z"/><path fill="#f3edb2" d="M400 100h100v100H400z"/><path fill="#fcf6b6" d="M500 100h100v100H500z"/><path fill="#e2d7b9" d="M600 100h100v100H600z"/><path fill="#959dbd" d="M700 100h100v100H700z"/><path fill="#8592ba" d="M0 200h100v100H0z"/><path fill="#7f8dae" d="M100 200h100v100H100z"/><path fill="#a6a8b3" d="M200 200h100v100H200z"/><path fill="#94a7b7" d="M300 200h100v100H300z"/><path fill="#d3d7b1" d="M400 200h100v100H400z"/><path fill="#cfd5af" d="M500 200h100v100H500z"/><path fill="#c7cbc2" d="M600 200h100v100H600z"/><path fill="#969dbd" d="M700 200h100v100H700z"/><path fill="#798bb4" d="M0 300h100v100H0z"/><path fill="#a1a9ac" d="M100 300h100v100H100z"/><path fill="#b09ba8" d="M200 300h100v100H200z"/><path fill="#796fa1" d="M300 300h100v100H300z"/><path fill="#b29aab" d="M400 300h100v100H400z"/><path fill="#cfafae" d="M500 300h100v100H500z"/><path fill="#7376b2" d="M600 300h100v100H600z"/><path fill="#acb1b9" d="M700 300h100v100H700z"/><path fill="#a3b1c3" d="M0 400h100v100H0z"/><path fill="#c3c3c2" d="M100 400h100v100H100z"/><path fill="#dac3c4" d="M200 400h100v100H200z"/><path fill="#c2b8c4" d="M300 400h100v100H300z"/><path fill="#d6bdbf" d="M400 400h100v100H400z"/><path fill="#e3c1be" d="M500 400h100v100H500z"/><path fill="#c7b6c0" d="M600 400h100v100H600z"/><path fill="#c0c4c2" d="M700 400h100v100H700z"/></svg>