<svg xmlns="http://www.w3.org/2000/svg" viewBox="0 0 800 600"><defs/><path fill="#c3ec02" d="M0 0h100v100H0z"/><path fill="#b2842f" d="M100 0h100v100H100z"/><path fill="#d1ef46" d="M200 0h100v100H200z"/><path fill="#c4ec10" d="M300 0h100v100H300z"/><path fill="#c8f008" d="M400 0h100v100H400z"/><path fill="#c7ef08" d="M500 0h100v100H500z"/><path fill="#d7b700" d="M600 0h100v100H600z"/><path fill="#abe933" d="M700 0h100v100H700z"/><path fill="#c1d805" d="M0 100h100v100H0z"/><path fill="#94613c" d="M100 100h100v100H100z"/><path fill="#9cb07c" d="M200 100h100v100H200z"/><path fill="#a7d248" d="M300 100h100v100H300z"/><path fill="#bcb73a" d="M400 100h100v100H400z"/><path fill="#c1b73a" d="M500 100h100v100H500z"/><path fill="#fc4600" d="M600 100h100v100H600z"/><path fill="#8ebf83" d="M700 100h100v100H700z"/><path fill="#b9bd06" d="M0 200h100v100H0z"/><path fill="#973170" d="M100 200h100v100H100z"/><path fill="#a868b1" d="M200 200h100v100H200z"/><path fill="#c05d41" d="M300 200h100v100H300z"/><path fill="#b14368" d="M400 200h100v100H400z"/><path fill="#b76166" d="M500 200h100v100H500z"/><path fill="#b74625" d="M600 200h100v100H600z"/><path fill="#8a8d5e" d="M700 200h100v100H700z"/><path fill="#c09c0e" d="M0 300h100v100H0z"/><path fill="#3985b0" d="M100 300h100v100H100z"/><path fill="#bfbc4a" d="M200 300h100v100H200z"/><path fill="#ac6073" d="M300 300h100v100H300z"/><path fill="#754db2" d="M400 300h100v100H400z"/><path fill="#7c55a8" d="M500 300h100v100H500z"/><path fill="#1e92eb" d="M600 300h100v100H600z"/><path fill="#07aab5" d="M700 300h100v100H700z"/><path fill="#edd20d" d="M0 400h100v100H0z"/><path fill="#18b0da" d="M100 400h100v100H100z"/><path fill="#c5d534" d="M200 400h100v100H200z"/><path fill="#45c3ad" d="M300 400h100v100H300z"/><path fill="#00b4ff" d="M400 400h100v100H400z"/><path fill="#08addd" d="M500 400h100v100H500z"/><path fill="#269ac2" d="M600 400h100v100H600z"/><path fill="#0ea2dd" d="M700 400h100v100H700z"/><path fill="#f4d90a" d="M0 500h100v100H0z"/><path fill="#94c562" d="M100 500h100v100H100z"/><path fill="#efd60e" d="M200 500h100v100H200z"/><path fill="#45b3ac" d="M300 500h100v100H300z"/><path fill="#00a9fd" d="M400 500h100v100H400z"/><path fill="#4e879f" d="M500 500h100v100H500z"/><path fill="#bb5d33" d="M600 500h100v100H600z"/><path fill="#3d8db1" d="M700 500h100v100H700z"/></svg>