<svg xmlns="http://www.w3.org/2000/svg" viewBox="0 0 800 400"><defs/><path fill="#8f686f" d="M0 0h100v100H0z"/><path fill="#946767" d="M100 0h100v100H100z"/><path fill="#7a5f5c" d="M200 0h100v100H200z"/><path fill="#52656e" d="M300 0h100v100H300z"/><path fill="#4f6071" d="M400 0h100v100H400z"/><path fill="#51636d" d="M500 0h100v100H500z"/><path fill="#785f5f" d="M600 0h100v100H600z"/><path fill="#93686c" d="M700 0h100v100H700z"/><path fill="#916a71" d="M0 100h100v100H0z"/><path fill="#9f696a" d="M100 100h100v100H100z"/><path fill="#535d65" d="M200 100h100v100H200z"/><path fill="#146778" d="M300 100h100v100H300z"/><path fill="#3f5257" d="M400 100h100v100H400z"/><path fill="#157181" d="M500 100h100v100H500z"/><path fill="#505e6b" d="M600 100h100v100H600z"/><path fill="#9a6669" d="M700 100h100v100H700z"/><path fill="#986e73" d="M0 200h100v100H0z"/><path fill="#9f715f" d="M100 200h100v100H100z"/><path fill="#7f6053" d="M200 200h100v100H200z"/><path fill="#4f413f" d="M300 200h100v100H300z"/><path fill="#524238" d="M400 200h100v100H400z"/><path fill="#4b4344" d="M500 200h100v100H500z"/><path fill="#876656" d="M600 200h100v100H600z"/><path fill="#936b69" d="M700 200h100v100H700z"/><path fill="#9e7474" d="M0 300h100v100H0z"/><path fill="#a47a55" d="M100 300h100v100H100z"/><path fill="#9d7d52" d="M200 300h100v100H200z"/><path fill="#4d443a" d="M300 300h100v100H300z"/><path fill="#3a3835" d="M400 300h100v100H400z"/><path fill="#675644" d="M500 300h100v100H500z"/><path fill="#a26c2f" d="M600 300h100v100H600z"/><path fill="#a37b5a" d="M700 300h100v100H700z"/></svg>