<svg xmlns="http://www.w3.org/2000/svg" viewBox="0 0 800 500"><defs/><path fill="#ece7d5" d="M0 0h100v100H0z"/><path fill="#efead7" d="M100 0h100v100H100z"/><path fill="#ede8d3" d="M200 0h100v100H200z"/><path fill="#efe9d4" d="M300 0h100v100H300z"/><path fill="#dbdacb" d="M400 0h100v100H400z"/><path fill="#cecec2" d="M500 0h100v100H500zm100 0h100v100H600z"/><path fill="#d8d6c8" d="M700 0h100v100H700z"/><path fill="#d2d1c5" d="M0 100h100v100H0z"/><path fill="#ebe8d8" d="M100 100h100v100H100z"/><path fill="#f7f7ec" d="M200 100h100v100H200z"/><path fill="#faf8ec" d="M300 100h100v100H300z"/><path fill="#fbf5e9" d="M400 100h100v100H400z"/><path fill="#eeebe6" d="M500 100h100v100H500z"/><path fill="#e8e9e4" d="M600 100h100v100H600z"/><path fill="#f1f3ec" d="M700 100h100v100H700z"/><path fill="#d4d6cb" d="M0 200h100v100H0z"/><path fill="#e6e1d1" d="M100 200h100v100H100z"/><path fill="#d6abaf" d="M200 200h100v100H200z"/><path fill="#9f7eb9" d="M300 200h100v100H300z"/><path fill="#6e7c8e" d="M400 200h100v100H400z"/><path fill="#a28474" d="M500 200h100v100H500z"/><path fill="#c79a86" d="M600 200h100v100H600z"/><path fill="#cca293" d="M700 200h100v100H700z"/><path fill="#ddddd1" d="M0 300h100v100H0z"/><path fill="#e9e1cb" d="M100 300h100v100H100z"/><path fill="#c1778e" d="M200 300h100v100H200z"/><path fill="#6b4897" d="M300 300h100v100H300z"/><path fill="#1b537b" d="M400 300h100v100H400z"/><path fill="#606341" d="M500 300h100v100H500z"/><path fill="#d57c5a" d="M600 300h100v100H600z"/><path fill="#d77663" d="M700 300h100v100H700z"/><path fill="#f1ecd9" d="M0 400h100v100H0z"/><path fill="#ede7cf" d="M100 400h100v100H100z"/><path fill="#b67ca5" d="M200 400h100v100H200z"/><path fill="#81487c" d="M300 400h100v100H300z"/><path fill="#6b6787" d="M400 400h100v100H400z"/><path fill="#5d6262" d="M500 400h100v100H500z"/><path fill="#a8878c" d="M600 400h100v100H600z"/><path fill="#bc90a4" d="M700 400h100v100H700z"/></svg>