<svg xmlns="http://www.w3.org/2000/svg" viewBox="0 0 800 600"><defs/><path fill="#f1f3f5" d="M0 0h100v100H0z"/><path fill="#f0f2f3" d="M100 0h100v100H100z"/><path fill="#f0f1f1" d="M200 0h100v100H200z"/><path fill="#f4ecec" d="M300 0h100v100H300z"/><path fill="#f3e8e8" d="M400 0h100v100H400z"/><path fill="#efe6e6" d="M500 0h100v100H500z"/><path fill="#f8edee" d="M600 0h100v100H600z"/><path fill="#f4eded" d="M700 0h100v100H700z"/><path fill="#acd7e8" d="M0 100h100v100H0z"/><path fill="#a6cad8" d="M100 100h100v100H100z"/><path fill="#c8c2c1" d="M200 100h100v100H200z"/><path fill="#e0c1c3" d="M300 100h100v100H300z"/><path fill="#f1cbcd" d="M400 100h100v100H400z"/><path fill="#d9b4b6" d="M500 100h100v100H500z"/><path fill="#deb3b5" d="M600 100h100v100H600z"/><path fill="#e7ccce" d="M700 100h100v100H700z"/><path fill="#cddbe0" d="M0 200h100v100H0z"/><path fill="#95a6ad" d="M100 200h100v100H100z"/><path fill="#778288" d="M200 200h100v100H200z"/><path fill="#907577" d="M300 200h100v100H300z"/><path fill="#f4d2d5" d="M400 200h100v100H400z"/><path fill="#cea7aa" d="M500 200h100v100H500z"/><path fill="#ab8e90" d="M600 200h100v100H600z"/><path fill="#ebcfd1" d="M700 200h100v100H700z"/><path fill="#bdbdbd" d="M0 300h100v100H0z"/><path fill="#628593" d="M100 300h100v100H100z"/><path fill="#576e79" d="M200 300h100v100H200z"/><path fill="#9a8788" d="M300 300h100v100H300z"/><path fill="#d0bbbd" d="M400 300h100v100H400z"/><path fill="#c9adaf" d="M500 300h100v100H500z"/><path fill="#9d898a" d="M600 300h100v100H600z"/><path fill="#c7989b" d="M700 300h100v100H700z"/><path fill="#b0b1b2" d="M0 400h100v100H0z"/><path fill="#94a0a4" d="M100 400h100v100H100z"/><path fill="#929092" d="M200 400h100v100H200z"/><path fill="#dbb5b8" d="M300 400h100v100H300z"/><path fill="#e4bec0" d="M400 400h100v100H400z"/><path fill="#edcfd2" d="M500 400h100v100H500z"/><path fill="#bc858a" d="M600 400h100v100H600z"/><path fill="#988789" d="M700 400h100v100H700z"/><path fill="#e6e6e6" d="M0 500h100v100H0z"/><path fill="#e8e7e6" d="M100 500h100v100H100z"/><path fill="#e9e7e6" d="M200 500h100v100H200z"/><path fill="#eddadb" d="M300 500h100v100H300z"/><path fill="#f2e0e1" d="M400 500h100v100H400z"/><path fill="#f4eff0" d="M500 500h100v100H500z"/><path fill="#f6f1f1" d="M600 500h100v100H600z"/><path fill="#e1dfdf" d="M700 500h100v100H700z"/></svg>