<svg xmlns="http://www.w3.org/2000/svg" viewBox="0 0 800 400"><defs/><path fill="#e3dbd1" d="M0 0h100v100H0z"/><path fill="#e2dcd5" d="M100 0h100v100H100z"/><path fill="#e8ddce" d="M200 0h100v100H200z"/><path fill="#e3d5c1" d="M300 0h100v100H300z"/><path fill="#dad5d0" d="M400 0h100v100H400z"/><path fill="#ebba92" d="M500 0h100v100H500z"/><path fill="#e7cbb2" d="M600 0h100v100H600z"/><path fill="#f2efea" d="M700 0h100v100H700z"/><path fill="#e7e0da" d="M0 100h100v100H0z"/><path fill="#eae6e5" d="M100 100h100v100H100z"/><path fill="#ede0ca" d="M200 100h100v100H200z"/><path fill="#f3dfc0" d="M300 100h100v100H300z"/><path fill="#c2c7b8" d="M400 100h100v100H400z"/><path fill="#d4af9c" d="M500 100h100v100H500z"/><path fill="#e8cbc6" d="M600 100h100v100H600z"/><path fill="#ebe2e3" d="M700 100h100v100H700z"/><path fill="#e8e1dd" d="M0 200h100v100H0z"/><path fill="#e8e4e1" d="M100 200h100v100H100z"/><path fill="#fbfdf8" d="M200 200h100v100H200z"/><path fill="#dfd6d7" d="M300 200h100v100H300z"/><path fill="#c3bab3" d="M400 200h100v100H400z"/><path fill="#dcc4ca" d="M500 200h100v100H500z"/><path fill="#efd7dd" d="M600 200h100v100H600z"/><path fill="#e5dedf" d="M700 200h100v100H700z"/><path fill="#e4deda" d="M0 300h100v100H0z"/><path fill="#eeece8" d="M100 300h100v100H100z"/><path fill="#f6f5f1" d="M200 300h100v100H200z"/><path fill="#d7bbc0" d="M300 300h100v100H300z"/><path fill="#e8d4e0" d="M400 300h100v100H400z"/><path fill="#fafff6" d="M500 300h100v100H500z"/><path fill="#f2f3ed" d="M600 300h100v100H600z"/><path fill="#eceae5" d="M700 300h100v100H700z"/></svg>