<svg xmlns="http://www.w3.org/2000/svg" viewBox="0 0 800 400"><defs/><path fill="#52bfd0" d="M0 0h100v100H0z"/><path fill="#23b1cb" d="M100 0h100v100H100z"/><path fill="#b4a779" d="M200 0h100v100H200z"/><path fill="#f98f35" d="M300 0h100v100H300z"/><path fill="#e68e3d" d="M400 0h100v100H400z"/><path fill="#e88d3c" d="M500 0h100v100H500z"/><path fill="#de6e2e" d="M600 0h100v100H600z"/><path fill="#ec7d4b" d="M700 0h100v100H700z"/><path fill="#5aa4a9" d="M0 100h100v100H0z"/><path fill="#579fa6" d="M100 100h100v100H100z"/><path fill="#7aa5a6" d="M200 100h100v100H200z"/><path fill="#a79f99" d="M300 100h100v100H300z"/><path fill="#c1c9c8" d="M400 100h100v100H400z"/><path fill="#cdd1d2" d="M500 100h100v100H500z"/><path fill="#c7c5bf" d="M600 100h100v100H600z"/><path fill="#cbbdb5" d="M700 100h100v100H700z"/><path fill="#a3cccd" d="M0 200h100v100H0z"/><path fill="#a2cac9" d="M100 200h100v100H100z"/><path fill="#aecbcf" d="M200 200h100v100H200z"/><path fill="#d5d6db" d="M300 200h100v100H300z"/><path fill="#dbe5e9" d="M400 200h100v100H400z"/><path fill="#e0e5e9" d="M500 200h100v100H500z"/><path fill="#dce5e6" d="M600 200h100v100H600z"/><path fill="#d8e3e5" d="M700 200h100v100H700z"/><path fill="#f9f4f3" d="M0 300h100v100H0z"/><path fill="#f7f1ec" d="M100 300h100v100H100z"/><path fill="#d5dadb" d="M200 300h100v100H200z"/><path fill="#c7c8c7" d="M300 300h100v100H300z"/><path fill="#b4bec3" d="M400 300h100v100H400z"/><path fill="#a4a4a5" d="M500 300h100v100H500z"/><path fill="#9aafb2" d="M600 300h100v100H600z"/><path fill="#799a9f" d="M700 300h100v100H700z"/></svg>