<svg xmlns="http://www.w3.org/2000/svg" viewBox="0 0 800 500"><defs/><path fill="#9f9d9d" d="M0 0h100v100H0z"/><path fill="#a9a8a8" d="M100 0h100v100H100z"/><path fill="#8c8c8c" d="M200 0h100v100H200z"/><path fill="#8b8a8b" d="M300 0h100v100H300z"/><path fill="#8e8c8c" d="M400 0h100v100H400z"/><path fill="#8d8b8b" d="M500 0h100v100H500z"/><path fill="#9d9b9b" d="M600 0h100v100H600z"/><path fill="#949393" d="M700 0h100v100H700z"/><path fill="#302d2d" d="M0 100h100v100H0z"/><path fill="#363636" d="M100 100h100v100H100z"/><path fill="#393c3b" d="M200 100h100v100H200z"/><path fill="#3e4645" d="M300 100h100v100H300z"/><path fill="#364946" d="M400 100h100v100H400z"/><path fill="#31423f" d="M500 100h100v100H500z"/><path fill="#3e4544" d="M600 100h100v100H600z"/><path fill="#212524" d="M700 100h100v100H700z"/><path fill="#5c6865" d="M0 200h100v100H0z"/><path fill="#6d6766" d="M100 200h100v100H100z"/><path fill="#4e6661" d="M200 200h100v100H200z"/><path fill="#2c645b" d="M300 200h100v100H300z"/><path fill="#415a55" d="M400 200h100v100H400z"/><path fill="#365e57" d="M500 200h100v100H500z"/><path fill="#63726f" d="M600 200h100v100H600z"/><path fill="#4c5d59" d="M700 200h100v100H700z"/><path fill="#616967" d="M0 300h100v100H0z"/><path fill="#696e6c" d="M100 300h100v100H100z"/><path fill="#506d68" d="M200 300h100v100H200z"/><path fill="#49635f" d="M300 300h100v100H300z"/><path fill="#2f4744" d="M400 300h100v100H400z"/><path fill="#585d5b" d="M500 300h100v100H500z"/><path fill="#60706c" d="M600 300h100v100H600z"/><path fill="#224741" d="M700 300h100v100H700z"/><path fill="#999c9a" d="M0 400h100v100H0z"/><path fill="#919f9d" d="M100 400h100v100H100z"/><path fill="#809c98" d="M200 400h100v100H200z"/><path fill="#828e8c" d="M300 400h100v100H300z"/><path fill="#7c8987" d="M400 400h100v100H400z"/><path fill="#7f918e" d="M500 400h100v100H500z"/><path fill="#88a5a0" d="M600 400h100v100H600z"/><path fill="#6d8e89" d="M700 400h100v100H700z"/></svg>