<svg xmlns="http://www.w3.org/2000/svg" viewBox="0 0 800 600"><defs/><path fill="#171717" d="M0 0h100v100H0z"/><path fill="#1f1f1f" d="M100 0h100v100H100z"/><path fill="#121315" d="M200 0h100v100H200z"/><path fill="#0d0e11" d="M300 0h100v100H300z"/><path fill="#141414" d="M400 0h100v100H400z"/><path fill="#1d1e1f" d="M500 0h100v100H500z"/><path fill="#0b0c0d" d="M600 0h100v100H600z"/><path fill="#060708" d="M700 0h100v100H700z"/><path fill="#a3a3a3" d="M0 100h100v100H0z"/><path fill="#cfd0d0" d="M100 100h100v100H100z"/><path fill="#939a9e" d="M200 100h100v100H200z"/><path fill="#a4a9a8" d="M300 100h100v100H300z"/><path fill="#a4a8a6" d="M400 100h100v100H400z"/><path fill="#899196" d="M500 100h100v100H500z"/><path fill="#8d9396" d="M600 100h100v100H600z"/><path fill="#303234" d="M700 100h100v100H700z"/><path fill="#a7a7a6" d="M0 200h100v100H0z"/><path fill="#d4d5d4" d="M100 200h100v100H100z"/><path fill="#bdc2be" d="M200 200h100v100H200z"/><path fill="#a1a2a2" d="M300 200h100v100H300z"/><path fill="#686d72" d="M400 200h100v100H400z"/><path fill="#464c50" d="M500 200h100v100H500z"/><path fill="#888e93" d="M600 200h100v100H600z"/><path fill="#93999a" d="M700 200h100v100H700z"/><path fill="#a2a2a0" d="M0 300h100v100H0z"/><path fill="#cbcecd" d="M100 300h100v100H100z"/><path fill="#959fa4" d="M200 300h100v100H200z"/><path fill="#8f959a" d="M300 300h100v100H300z"/><path fill="#80858a" d="M400 300h100v100H400z"/><path fill="#979b9e" d="M500 300h100v100H500z"/><path fill="#868d90" d="M600 300h100v100H600z"/><path fill="#74787c" d="M700 300h100v100H700z"/><path fill="#abaaa9" d="M0 400h100v100H0z"/><path fill="#cdd2d3" d="M100 400h100v100H100z"/><path fill="#aeb7ba" d="M200 400h100v100H200z"/><path fill="#c2c8c9" d="M300 400h100v100H300z"/><path fill="#b0b5b7" d="M400 400h100v100H400z"/><path fill="#787b7d" d="M500 400h100v100H500z"/><path fill="#5a5c61" d="M600 400h100v100H600z"/><path fill="#3c3840" d="M700 400h100v100H700z"/><path fill="#454646" d="M0 500h100v100H0z"/><path fill="#5b5c5c" d="M100 500h100v100H100z"/><path fill="#525454" d="M200 500h100v100H200z"/><path fill="#4c4f51" d="M300 500h100v100H300z"/><path fill="#2b2d2e" d="M400 500h100v100H400z"/><path fill="#0e0f10" d="M500 500h100v100H500z"/><path fill="#181a1b" d="M600 500h100v100H600z"/><path fill="#1e2020" d="M700 500h100v100H700z"/></svg>