<svg xmlns="http://www.w3.org/2000/svg" viewBox="0 0 800 400"><defs/><path fill="#bab6b2" d="M0 0h100v100H0z"/><path fill="#c5c4c1" d="M100 0h100v100H100z"/><path fill="#cfcecc" d="M200 0h100v100H200z"/><path fill="#eae9e8" d="M300 0h100v100H300z"/><path fill="#e5e4e2" d="M400 0h100v100H400z"/><path fill="#e8e8e6" d="M500 0h100v100H500z"/><path fill="#e2e2e1" d="M600 0h100v100H600z"/><path fill="#e6e6e6" d="M700 0h100v100H700z"/><path fill="#c5c0bd" d="M0 100h100v100H0z"/><path fill="#b1b0ae" d="M100 100h100v100H100z"/><path fill="#cecdcb" d="M200 100h100v100H200z"/><path fill="#eeedeb" d="M300 100h100v100H300z"/><path fill="#ecebe9" d="M400 100h100v100H400z"/><path fill="#f4f3f1" d="M500 100h100v100H500z"/><path fill="#dcdcdc" d="M600 100h100v100H600z"/><path fill="#d4d4d4" d="M700 100h100v100H700z"/><path fill="#c5c2be" d="M0 200h100v100H0z"/><path fill="#93918f" d="M100 200h100v100H100z"/><path fill="#d2d1cf" d="M200 200h100v100H200z"/><path fill="#dfdedc" d="M300 200h100v100H300z"/><path fill="#ecebea" d="M400 200h100v100H400z"/><path fill="#f7f6f6" d="M500 200h100v100H500z"/><path fill="#d6d6d6" d="M600 200h100v100H600z"/><path fill="#c8c7c7" d="M700 200h100v100H700z"/><path fill="#adaaa6" d="M0 300h100v100H0z"/><path fill="#a6a4a1" d="M100 300h100v100H100z"/><path fill="#a3a2a0" d="M200 300h100v100H200z"/><path fill="#cdccca" d="M300 300h100v100H300z"/><path fill="#f4f3f1" d="M400 300h100v100H400z"/><path fill="#f1f0ee" d="M500 300h100v100H500z"/><path fill="#ebebea" d="M600 300h100v100H600z"/><path fill="#f2f2f0" d="M700 300h100v100H700z"/></svg>