<svg xmlns="http://www.w3.org/2000/svg" viewBox="0 0 800 900"><defs/><path fill="#fed7d9" d="M0 0h100v100H0z"/><path fill="#ffedf1" d="M100 0h100v100H100z"/><path fill="#fffdff" d="M200 0h100v100H200z"/><path fill="#f3f1f0" d="M300 0h100v100H300z"/><path fill="#f1eeee" d="M400 0h100v100H400z"/><path fill="#f1efef" d="M500 0h100v100H500z"/><path fill="#eae1e7" d="M600 0h100v100H600z"/><path fill="#f6dff5" d="M700 0h100v100H700z"/><path fill="#f6d5d1" d="M0 100h100v100H0z"/><path fill="#ede0e1" d="M100 100h100v100H100z"/><path fill="#fbfbfb" d="M200 100h100v100H200z"/><path fill="#e5e1e1" d="M300 100h100v100H300z"/><path fill="#d6d1d0" d="M400 100h100v100H400z"/><path fill="#dcd7d7" d="M500 100h100v100H500z"/><path fill="#ddd7db" d="M600 100h100v100H600z"/><path fill="#f0ddee" d="M700 100h100v100H700z"/><path fill="#e0c3b9" d="M0 200h100v100H0z"/><path fill="#c5b7b3" d="M100 200h100v100H100z"/><path fill="#e7e4e4" d="M200 200h100v100H200z"/><path fill="#d3cdcc" d="M300 200h100v100H300z"/><path fill="#e2dedf" d="M400 200h100v100H400z"/><path fill="#ede8e8" d="M500 200h100v100H500z"/><path fill="#ece2e6" d="M600 200h100v100H600z"/><path fill="#fbe7f8" d="M700 200h100v100H700z"/><path fill="#e6c4b8" d="M0 300h100v100H0z"/><path fill="#c2a9a0" d="M100 300h100v100H100z"/><path fill="#fcf5f5" d="M200 300h100v100H200z"/><path fill="#e7e4e5" d="M300 300h100v100H300z"/><path fill="#f1e8e8" d="M400 300h100v100H400z"/><path fill="#dbd2d4" d="M500 300h100v100H500z"/><path fill="#beaeb5" d="M600 300h100v100H600z"/><path fill="#fce1f8" d="M700 300h100v100H700z"/><path fill="#d7b1a3" d="M0 400h100v100H0z"/><path fill="#a38377" d="M100 400h100v100H100z"/><path fill="#c8b4b2" d="M200 400h100v100H200z"/><path fill="#dbd1d8" d="M300 400h100v100H300z"/><path fill="#f4e7f0" d="M400 400h100v100H400z"/><path fill="#d9ccd5" d="M500 400h100v100H500z"/><path fill="#c2adbb" d="M600 400h100v100H600z"/><path fill="#eccde6" d="M700 400h100v100H700z"/><path fill="#ceaba5" d="M0 500h100v100H0z"/><path fill="#a28278" d="M100 500h100v100H100z"/><path fill="#c3a6a6" d="M200 500h100v100H200z"/><path fill="#e1c9d3" d="M300 500h100v100H300z"/><path fill="#fae2f2" d="M400 500h100v100H400z"/><path fill="#d9c1d0" d="M500 500h100v100H500z"/><path fill="#bca2b1" d="M600 500h100v100H600z"/><path fill="#caadc1" d="M700 500h100v100H700z"/><path fill="#d7b4b7" d="M0 600h100v100H0z"/><path fill="#bc9997" d="M100 600h100v100H100z"/><path fill="#ba9ea3" d="M200 600h100v100H200z"/><path fill="#c0a8b3" d="M300 600h100v100H300z"/><path fill="#af99a0" d="M400 600h100v100H400z"/><path fill="#bea6b3" d="M500 600h100v100H500z"/><path fill="#b29ba9" d="M600 600h100v100H600z"/><path fill="#c9aec4" d="M700 600h100v100H700z"/><path fill="#cfacb2" d="M0 700h100v100H0z"/><path fill="#bf9ea4" d="M100 700h100v100H100z"/><path fill="#c9abb9" d="M200 700h100v100H200z"/><path fill="#c2a8b9" d="M300 700h100v100H300z"/><path fill="#ad97a5" d="M400 700h100v100H400z"/><path fill="#bda5b8" d="M500 700h100v100H500z"/><path fill="#caafc7" d="M600 700h100v100H600z"/><path fill="#c7adc7" d="M700 700h100v100H700z"/><path fill="#bf9fae" d="M0 800h100v100H0z"/><path fill="#b499a7" d="M100 800h100v100H100z"/><path fill="#baa1b5" d="M200 800h100v100H200z"/><path fill="#b9a1b9" d="M300 800h100v100H300z"/><path fill="#baa3ba" d="M400 800h100v100H400z"/><path fill="#aa96ac" d="M500 800h100v100H500z"/><path fill="#b19bb2" d="M600 800h100v100H600z"/><path fill="#b199b2" d="M700 800h100v100H700z"/></svg>