<svg xmlns="http://www.w3.org/2000/svg" viewBox="0 0 800 600"><defs/><path fill="#7e815e" d="M0 0h100v100H0z"/><path fill="#654336" d="M100 0h100v100H100z"/><path fill="#85503d" d="M200 0h100v100H200z"/><path fill="#945842" d="M300 0h100v100H300z"/><path fill="#926046" d="M400 0h100v100H400z"/><path fill="#894935" d="M500 0h100v100H500z"/><path fill="#8b4834" d="M600 0h100v100H600z"/><path fill="#7c6f53" d="M700 0h100v100H700z"/><path fill="#759785" d="M0 100h100v100H0z"/><path fill="#ae846b" d="M100 100h100v100H100z"/><path fill="#ab6050" d="M200 100h100v100H200z"/><path fill="#8d6254" d="M300 100h100v100H300z"/><path fill="#736c68" d="M400 100h100v100H400z"/><path fill="#b38170" d="M500 100h100v100H500z"/><path fill="#7f5350" d="M600 100h100v100H600z"/><path fill="#759169" d="M700 100h100v100H700z"/><path fill="#939e83" d="M0 200h100v100H0z"/><path fill="#af8472" d="M100 200h100v100H100z"/><path fill="#8f634c" d="M200 200h100v100H200z"/><path fill="#7f5d4e" d="M300 200h100v100H300z"/><path fill="#885b56" d="M400 200h100v100H400z"/><path fill="#b17158" d="M500 200h100v100H500z"/><path fill="#7f5352" d="M600 200h100v100H600z"/><path fill="#788661" d="M700 200h100v100H700z"/><path fill="#9e816e" d="M0 300h100v100H0z"/><path fill="#876f60" d="M100 300h100v100H100z"/><path fill="#888154" d="M200 300h100v100H200z"/><path fill="#746554" d="M300 300h100v100H300z"/><path fill="#ae805e" d="M400 300h100v100H400z"/><path fill="#c79569" d="M500 300h100v100H500z"/><path fill="#a87c66" d="M600 300h100v100H600z"/><path fill="#837479" d="M700 300h100v100H700z"/><path fill="#847c7e" d="M0 400h100v100H0z"/><path fill="#dcb567" d="M100 400h100v100H100z"/><path fill="#e6c280" d="M200 400h100v100H200z"/><path fill="#52675f" d="M300 400h100v100H300z"/><path fill="#697865" d="M400 400h100v100H400z"/><path fill="#f0c771" d="M500 400h100v100H500z"/><path fill="#d3b774" d="M600 400h100v100H600z"/><path fill="#9b6263" d="M700 400h100v100H700z"/><path fill="#ab8c75" d="M0 500h100v100H0z"/><path fill="#fbcb67" d="M100 500h100v100H100z"/><path fill="#bfa578" d="M200 500h100v100H200z"/><path fill="#6f5a53" d="M300 500h100v100H300z"/><path fill="#425057" d="M400 500h100v100H400z"/><path fill="#c18f61" d="M500 500h100v100H500z"/><path fill="#ffd564" d="M600 500h100v100H600z"/><path fill="#c99c51" d="M700 500h100v100H700z"/></svg>