<svg xmlns="http://www.w3.org/2000/svg" viewBox="0 0 800 400"><defs/><path fill="#c6a578" d="M0 0h100v100H0z"/><path fill="#8a877f" d="M100 0h100v100H100z"/><path fill="#a78d5d" d="M200 0h100v100H200z"/><path fill="#726869" d="M300 0h100v100H300z"/><path fill="#03257c" d="M400 0h100v100H400z"/><path fill="#7b7878" d="M500 0h100v100H500z"/><path fill="#c4b385" d="M600 0h100v100H600z"/><path fill="#ada182" d="M700 0h100v100H700z"/><path fill="#b59974" d="M0 100h100v100H0z"/><path fill="#838177" d="M100 100h100v100H100z"/><path fill="#c29449" d="M200 100h100v100H200z"/><path fill="#686a74" d="M300 100h100v100H300z"/><path fill="#0033af" d="M400 100h100v100H400z"/><path fill="#776569" d="M500 100h100v100H500z"/><path fill="#ab835a" d="M600 100h100v100H600z"/><path fill="#9e8a69" d="M700 100h100v100H700z"/><path fill="#81776b" d="M0 200h100v100H0z"/><path fill="#6d5b45" d="M100 200h100v100H100z"/><path fill="#977a42" d="M200 200h100v100H200z"/><path fill="#66534c" d="M300 200h100v100H300z"/><path fill="#4e4360" d="M400 200h100v100H400z"/><path fill="#907568" d="M500 200h100v100H500z"/><path fill="#a45d45" d="M600 200h100v100H600z"/><path fill="#8e492e" d="M700 200h100v100H700z"/><path fill="#756d61" d="M0 300h100v100H0z"/><path fill="#5e4529" d="M100 300h100v100H100z"/><path fill="#74736c" d="M200 300h100v100H200z"/><path fill="#574b46" d="M300 300h100v100H300z"/><path fill="#695141" d="M400 300h100v100H400z"/><path fill="#7d746c" d="M500 300h100v100H500z"/><path fill="#623124" d="M600 300h100v100H600z"/><path fill="#76412f" d="M700 300h100v100H700z"/></svg>