<svg xmlns="http://www.w3.org/2000/svg" viewBox="0 0 800 400"><defs/><path fill="#c9c9ac" d="M0 0h100v100H0z"/><path fill="#9b9b97" d="M100 0h100v100H100z"/><path fill="#50532f" d="M200 0h100v100H200z"/><path fill="#52524a" d="M300 0h100v100H300z"/><path fill="#3d3d5d" d="M400 0h100v100H400z"/><path fill="#312f68" d="M500 0h100v100H500z"/><path fill="#3b3c60" d="M600 0h100v100H600z"/><path fill="#46464d" d="M700 0h100v100H700z"/><path fill="#c9c9a3" d="M0 100h100v100H0z"/><path fill="#958f8b" d="M100 100h100v100H100z"/><path fill="#534824" d="M200 100h100v100H200z"/><path fill="#747859" d="M300 100h100v100H300z"/><path fill="#61554f" d="M400 100h100v100H400z"/><path fill="#4a3651" d="M500 100h100v100H500z"/><path fill="#32476d" d="M600 100h100v100H600z"/><path fill="#555a64" d="M700 100h100v100H700z"/><path fill="#c3d1ce" d="M0 200h100v100H0z"/><path fill="#b37f81" d="M100 200h100v100H100z"/><path fill="#a02721" d="M200 200h100v100H200z"/><path fill="#94302d" d="M300 200h100v100H300z"/><path fill="#943d37" d="M400 200h100v100H400z"/><path fill="#89373f" d="M500 200h100v100H500z"/><path fill="#7c3443" d="M600 200h100v100H600z"/><path fill="#7a6478" d="M700 200h100v100H700z"/><path fill="#c4a2a4" d="M0 300h100v100H0z"/><path fill="#d45057" d="M100 300h100v100H100z"/><path fill="#d12a2d" d="M200 300h100v100H200z"/><path fill="#c82120" d="M300 300h100v100H300z"/><path fill="#af3e3f" d="M400 300h100v100H400z"/><path fill="#b52e2d" d="M500 300h100v100H500z"/><path fill="#da1a17" d="M600 300h100v100H600z"/><path fill="#d95d61" d="M700 300h100v100H700z"/></svg>