<svg xmlns="http://www.w3.org/2000/svg" viewBox="0 0 800 500"><defs/><path fill="#a6d6e6" d="M0 0h100v100H0z"/><path fill="#94c9db" d="M100 0h100v100H100z"/><path fill="#b8b5b9" d="M200 0h100v100H200z"/><path fill="#95afb3" d="M300 0h100v100H300z"/><path fill="#a4afa5" d="M400 0h100v100H400z"/><path fill="#a3a8a3" d="M500 0h100v100H500z"/><path fill="#6995a0" d="M600 0h100v100H600z"/><path fill="#78a0ae" d="M700 0h100v100H700z"/><path fill="#a2c8dd" d="M0 100h100v100H0z"/><path fill="#b3c0c2" d="M100 100h100v100H100z"/><path fill="#b5b8ba" d="M200 100h100v100H200z"/><path fill="#76a391" d="M300 100h100v100H300z"/><path fill="#90ad98" d="M400 100h100v100H400z"/><path fill="#4e9299" d="M500 100h100v100H500z"/><path fill="#3e8084" d="M600 100h100v100H600z"/><path fill="#889d9c" d="M700 100h100v100H700z"/><path fill="#a1afc5" d="M0 200h100v100H0z"/><path fill="#c6bab3" d="M100 200h100v100H100z"/><path fill="#9eb3bb" d="M200 200h100v100H200z"/><path fill="#9c9f92" d="M300 200h100v100H300z"/><path fill="#a8a692" d="M400 200h100v100H400z"/><path fill="#538f9a" d="M500 200h100v100H500z"/><path fill="#3e8a9e" d="M600 200h100v100H600z"/><path fill="#788478" d="M700 200h100v100H700z"/><path fill="#a2b8c4" d="M0 300h100v100H0z"/><path fill="#a9917f" d="M100 300h100v100H100z"/><path fill="#9d9a8f" d="M200 300h100v100H200z"/><path fill="#899794" d="M300 300h100v100H300z"/><path fill="#8198a5" d="M400 300h100v100H400z"/><path fill="#807d99" d="M500 300h100v100H500z"/><path fill="#536774" d="M600 300h100v100H600z"/><path fill="#687f61" d="M700 300h100v100H700z"/><path fill="#9b9791" d="M0 400h100v100H0z"/><path fill="#a39174" d="M100 400h100v100H100z"/><path fill="#b1a897" d="M200 400h100v100H200z"/><path fill="#7197a0" d="M300 400h100v100H300z"/><path fill="#6a9ea6" d="M400 400h100v100H400z"/><path fill="#889b99" d="M500 400h100v100H500z"/><path fill="#897866" d="M600 400h100v100H600z"/><path fill="#757575" d="M700 400h100v100H700z"/></svg>