<svg xmlns="http://www.w3.org/2000/svg" viewBox="0 0 800 600"><defs/><path fill="#e5e9ea" d="M0 0h100v100H0z"/><path fill="#e2e6e8" d="M100 0h100v100H100z"/><path fill="#e3e8ea" d="M200 0h100v100H200z"/><path fill="#e4e7e9" d="M300 0h100v100H300z"/><path fill="#e3e6e7" d="M400 0h100v100H400z"/><path fill="#e4e7e9" d="M500 0h100v100H500z"/><path fill="#e2e6e7" d="M600 0h100v100H600z"/><path fill="#e5e9ea" d="M700 0h100v100H700z"/><path fill="#c5c6c6" d="M0 100h100v100H0z"/><path fill="#bac0bf" d="M100 100h100v100H100z"/><path fill="#c3c4c2" d="M200 100h100v100H200z"/><path fill="#c4c5c6" d="M300 100h100v100H300z"/><path fill="#cad3d7" d="M400 100h100v100H400z"/><path fill="#c7cdcf" d="M500 100h100v100H500z"/><path fill="#c7d0d3" d="M600 100h100v100H600z"/><path fill="#d3dbdf" d="M700 100h100v100H700z"/><path fill="#c8c5c6" d="M0 200h100v100H0z"/><path fill="#b1b7b3" d="M100 200h100v100H100z"/><path fill="#b5bbbd" d="M200 200h100v100H200z"/><path fill="#b1b5bb" d="M300 200h100v100H300z"/><path fill="#b8c0c9" d="M400 200h100v100H400z"/><path fill="#c2c9ce" d="M500 200h100v100H500z"/><path fill="#b7c0bc" d="M600 200h100v100H600z"/><path fill="#c8d3d6" d="M700 200h100v100H700z"/><path fill="#c6c4c4" d="M0 300h100v100H0z"/><path fill="#a2a5a3" d="M100 300h100v100H100z"/><path fill="#aeafb1" d="M200 300h100v100H200z"/><path fill="#bdb3af" d="M300 300h100v100H300z"/><path fill="#b7b5b4" d="M400 300h100v100H400z"/><path fill="#bdc0be" d="M500 300h100v100H500z"/><path fill="#b4ada8" d="M600 300h100v100H600z"/><path fill="#c4cbcc" d="M700 300h100v100H700z"/><path fill="#bec2c1" d="M0 400h100v100H0z"/><path fill="#9ca7a4" d="M100 400h100v100H100z"/><path fill="#a1a6a4" d="M200 400h100v100H200z"/><path fill="#b1b3ae" d="M300 400h100v100H300z"/><path fill="#afb3b0" d="M400 400h100v100H400z"/><path fill="#b4b5b2" d="M500 400h100v100H500z"/><path fill="#b2aaa9" d="M600 400h100v100H600z"/><path fill="#c7c6c5" d="M700 400h100v100H700z"/><path fill="#cdd7d8" d="M0 500h100v100H0z"/><path fill="#c3d1d2" d="M100 500h100v100H100z"/><path fill="#c5d1d4" d="M200 500h100v100H200z"/><path fill="#c4d1d3" d="M300 500h100v100H300z"/><path fill="#c5d1d2" d="M400 500h100v100H400z"/><path fill="#c8d0d3" d="M500 500h100v100H500z"/><path fill="#c3c9c9" d="M600 500h100v100H600z"/><path fill="#d1d6d8" d="M700 500h100v100H700z"/></svg>