<svg xmlns="http://www.w3.org/2000/svg" viewBox="0 0 800 400"><defs/><path fill="#767960" d="M0 0h100v100H0z"/><path fill="#6e664a" d="M100 0h100v100H100z"/><path fill="#737a62" d="M200 0h100v100H200z"/><path fill="#8f998a" d="M300 0h100v100H300z"/><path fill="#606143" d="M400 0h100v100H400z"/><path fill="#676c54" d="M500 0h100v100H500z"/><path fill="#696a4f" d="M600 0h100v100H600z"/><path fill="#5c6141" d="M700 0h100v100H700z"/><path fill="#908d6e" d="M0 100h100v100H0z"/><path fill="#746c4f" d="M100 100h100v100H100z"/><path fill="#a8ad95" d="M200 100h100v100H200z"/><path fill="#d7ded2" d="M300 100h100v100H300z"/><path fill="#827c60" d="M400 100h100v100H400z"/><path fill="#98975e" d="M500 100h100v100H500z"/><path fill="#928e6f" d="M600 100h100v100H600z"/><path fill="#6c7559" d="M700 100h100v100H700z"/><path fill="#948f6f" d="M0 200h100v100H0z"/><path fill="#6a6750" d="M100 200h100v100H100z"/><path fill="#999063" d="M200 200h100v100H200z"/><path fill="#ac917b" d="M300 200h100v100H300z"/><path fill="#7b797e" d="M400 200h100v100H400z"/><path fill="#aa9f81" d="M500 200h100v100H500z"/><path fill="#877c5b" d="M600 200h100v100H600z"/><path fill="#686854" d="M700 200h100v100H700z"/><path fill="#69735a" d="M0 300h100v100H0z"/><path fill="#817758" d="M100 300h100v100H100z"/><path fill="#a18671" d="M200 300h100v100H200z"/><path fill="#5f605c" d="M300 300h100v100H300z"/><path fill="#636364" d="M400 300h100v100H400z"/><path fill="#63676c" d="M500 300h100v100H500z"/><path fill="#9e9f7c" d="M600 300h100v100H600z"/><path fill="#6c6d63" d="M700 300h100v100H700z"/></svg>