<svg xmlns="http://www.w3.org/2000/svg" viewBox="0 0 800 500"><defs/><path fill="#c3c3c0" d="M0 0h100v100H0z"/><path fill="#bbbfbb" d="M100 0h100v100H100z"/><path fill="#c2c3be" d="M200 0h100v100H200z"/><path fill="#d1cfc4" d="M300 0h100v100H300z"/><path fill="#c2c0c0" d="M400 0h100v100H400z"/><path fill="#d2d1c5" d="M500 0h100v100H500z"/><path fill="#cfcac1" d="M600 0h100v100H600z"/><path fill="#c5c6c3" d="M700 0h100v100H700z"/><path fill="#96967b" d="M0 100h100v100H0z"/><path fill="#8d8872" d="M100 100h100v100H100z"/><path fill="#a39476" d="M200 100h100v100H200z"/><path fill="#ccb670" d="M300 100h100v100H300z"/><path fill="#b0a264" d="M400 100h100v100H400z"/><path fill="#c6bf6f" d="M500 100h100v100H500z"/><path fill="#bba356" d="M600 100h100v100H600z"/><path fill="#8d8e76" d="M700 100h100v100H700z"/><path fill="#a09884" d="M0 200h100v100H0z"/><path fill="#978171" d="M100 200h100v100H100z"/><path fill="#a09883" d="M200 200h100v100H200z"/><path fill="#b3a774" d="M300 200h100v100H300z"/><path fill="#b2807b" d="M400 200h100v100H400z"/><path fill="#834b65" d="M500 200h100v100H500z"/><path fill="#95876b" d="M600 200h100v100H600z"/><path fill="#a99f72" d="M700 200h100v100H700z"/><path fill="#9f9689" d="M0 300h100v100H0z"/><path fill="#9b7479" d="M100 300h100v100H100z"/><path fill="#ac9181" d="M200 300h100v100H200z"/><path fill="#a18773" d="M300 300h100v100H300z"/><path fill="#a77780" d="M400 300h100v100H400z"/><path fill="#8b507d" d="M500 300h100v100H500z"/><path fill="#9d787d" d="M600 300h100v100H600z"/><path fill="#b78e5f" d="M700 300h100v100H700z"/><path fill="#b1b3af" d="M0 400h100v100H0z"/><path fill="#c4b2ac" d="M100 400h100v100H100z"/><path fill="#c2b1a7" d="M200 400h100v100H200z"/><path fill="#c0b3a4" d="M300 400h100v100H300z"/><path fill="#cfc4ad" d="M400 400h100v100H400z"/><path fill="#ccbfa8" d="M500 400h100v100H500z"/><path fill="#cebfa8" d="M600 400h100v100H600z"/><path fill="#b8a996" d="M700 400h100v100H700z"/></svg>