<svg xmlns="http://www.w3.org/2000/svg" viewBox="0 0 800 500"><defs/><path fill="#dde0e2" d="M0 0h100v100H0z"/><path fill="#d3e1e8" d="M100 0h100v100H100z"/><path fill="#c7e1f0" d="M200 0h100v100H200z"/><path fill="#c9e1ef" d="M300 0h100v100H300z"/><path fill="#c9dee8" d="M400 0h100v100H400z"/><path fill="#9ea4a0" d="M500 0h100v100H500z"/><path fill="#b2bcbb" d="M600 0h100v100H600z"/><path fill="#cce4f0" d="M700 0h100v100H700z"/><path fill="#ebeced" d="M0 100h100v100H0z"/><path fill="#ccd6de" d="M100 100h100v100H100z"/><path fill="#bfc8d0" d="M200 100h100v100H200z"/><path fill="#ceebfe" d="M300 100h100v100H300z"/><path fill="#c9dce1" d="M400 100h100v100H400z"/><path fill="#aba296" d="M500 100h100v100H500z"/><path fill="#aba8a1" d="M600 100h100v100H600z"/><path fill="#cde6f3" d="M700 100h100v100H700z"/><path fill="#e9eced" d="M0 200h100v100H0z"/><path fill="#ced7de" d="M100 200h100v100H100z"/><path fill="#c8ccd1" d="M200 200h100v100H200z"/><path fill="#cee7f7" d="M300 200h100v100H300z"/><path fill="#cde1e9" d="M400 200h100v100H400z"/><path fill="#d2d8d3" d="M500 200h100v100H500z"/><path fill="#d0dcde" d="M600 200h100v100H600z"/><path fill="#cde5f3" d="M700 200h100v100H700z"/><path fill="#dee2e4" d="M0 300h100v100H0z"/><path fill="#c9dbe5" d="M100 300h100v100H100z"/><path fill="#cee1ec" d="M200 300h100v100H200z"/><path fill="#cddee9" d="M300 300h100v100H300z"/><path fill="#cadeeb" d="M400 300h100v100H400z"/><path fill="#c9deed" d="M500 300h100v100H500z"/><path fill="#b8c2cc" d="M600 300h100v100H600z"/><path fill="#c8d5de" d="M700 300h100v100H700z"/><path fill="#e0e2e3" d="M0 400h100v100H0z"/><path fill="#ccdce6" d="M100 400h100v100H100z"/><path fill="#cbdfed" d="M200 400h100v100H200z"/><path fill="#cbdfec" d="M300 400h100v100H300z"/><path fill="#ccdfec" d="M400 400h100v100H400z"/><path fill="#cddfea" d="M500 400h100v100H500z"/><path fill="#c2c1c8" d="M600 400h100v100H600z"/><path fill="#c8d3dc" d="M700 400h100v100H700z"/></svg>