<svg xmlns="http://www.w3.org/2000/svg" viewBox="0 0 800 400"><defs/><path fill="#bda8a0" d="M0 0h100v100H0z"/><path fill="#dcdbd4" d="M100 0h100v100H100z"/><path fill="#c6c5b0" d="M200 0h100v100H200z"/><path fill="#a9b1ad" d="M300 0h100v100H300z"/><path fill="#90a199" d="M400 0h100v100H400z"/><path fill="#a3aa8d" d="M500 0h100v100H500z"/><path fill="#687c62" d="M600 0h100v100H600z"/><path fill="#c8ccc9" d="M700 0h100v100H700z"/><path fill="#d2c9c9" d="M0 100h100v100H0z"/><path fill="#d7d1bd" d="M100 100h100v100H100z"/><path fill="#decb97" d="M200 100h100v100H200z"/><path fill="#99a4a2" d="M300 100h100v100H300z"/><path fill="#778d84" d="M400 100h100v100H400z"/><path fill="#6f7e66" d="M500 100h100v100H500z"/><path fill="#496450" d="M600 100h100v100H600z"/><path fill="#c5c7c0" d="M700 100h100v100H700z"/><path fill="#e7eaee" d="M0 200h100v100H0z"/><path fill="#bcb9a2" d="M100 200h100v100H100z"/><path fill="#e5d3a5" d="M200 200h100v100H200z"/><path fill="#d2d9dd" d="M300 200h100v100H300z"/><path fill="#acb3a7" d="M400 200h100v100H400z"/><path fill="#70715a" d="M500 200h100v100H500z"/><path fill="#8e8c76" d="M600 200h100v100H600z"/><path fill="#e2e1db" d="M700 200h100v100H700z"/><path fill="#d8d5d2" d="M0 300h100v100H0z"/><path fill="#ebe5da" d="M100 300h100v100H100z"/><path fill="#f4eee2" d="M200 300h100v100H200z"/><path fill="#e7e2de" d="M300 300h100v100H300z"/><path fill="#c5beb0" d="M400 300h100v100H400z"/><path fill="#c0a27c" d="M500 300h100v100H500z"/><path fill="#c5b197" d="M600 300h100v100H600z"/><path fill="#d4d5d2" d="M700 300h100v100H700z"/></svg>