<svg xmlns="http://www.w3.org/2000/svg" viewBox="0 0 800 800"><defs/><path fill="#dad7cf" d="M0 0h100v100H0z"/><path fill="#d7d4cd" d="M100 0h100v100H100z"/><path fill="#d3cfc9" d="M200 0h100v100H200z"/><path fill="#d3cfca" d="M300 0h100v100H300z"/><path fill="#d3d0cb" d="M400 0h100v100H400z"/><path fill="#d5d3cd" d="M500 0h100v100H500z"/><path fill="#dcd9d3" d="M600 0h100v100H600z"/><path fill="#dedcd6" d="M700 0h100v100H700z"/><path fill="#d4d1ca" d="M0 100h100v100H0z"/><path fill="#c0bcb6" d="M100 100h100v100H100z"/><path fill="#b9b6b0" d="M200 100h100v100H200z"/><path fill="#bbb8b3" d="M300 100h100v100H300z"/><path fill="#c2bfbb" d="M400 100h100v100H400z"/><path fill="#bdbbb7" d="M500 100h100v100H500z"/><path fill="#bcbbb6" d="M600 100h100v100H600z"/><path fill="#cbcac6" d="M700 100h100v100H700z"/><path fill="#bdbab5" d="M0 200h100v100H0z"/><path fill="#b0ada8" d="M100 200h100v100H100z"/><path fill="#a6a29e" d="M200 200h100v100H200z"/><path fill="#cfccc8" d="M300 200h100v100H300z"/><path fill="#d1ceca" d="M400 200h100v100H400z"/><path fill="#cfcdc9" d="M500 200h100v100H500z"/><path fill="#cfcfca" d="M600 200h100v100H600z"/><path fill="#b5b4b2" d="M700 200h100v100H700z"/><path fill="#bcb9b5" d="M0 300h100v100H0z"/><path fill="#b6b3af" d="M100 300h100v100H100z"/><path fill="#bcbbb6" d="M200 300h100v100H200z"/><path fill="#c3c2be" d="M300 300h100v100H300z"/><path fill="#c2c0bc" d="M400 300h100v100H400z"/><path fill="#cac9c5" d="M500 300h100v100H500z"/><path fill="#d7d6d2" d="M600 300h100v100H600z"/><path fill="#b1b2b0" d="M700 300h100v100H700z"/><path fill="#c2c1bd" d="M0 400h100v100H0z"/><path fill="#afadaa" d="M100 400h100v100H100z"/><path fill="#b1b0ad" d="M200 400h100v100H200z"/><path fill="#a5a3a0" d="M300 400h100v100H300z"/><path fill="#bbbab7" d="M400 400h100v100H400z"/><path fill="#bbb9b6" d="M500 400h100v100H500z"/><path fill="#bfbebc" d="M600 400h100v100H600z"/><path fill="#dbdcd8" d="M700 400h100v100H700z"/><path fill="#b6b5b4" d="M0 500h100v100H0z"/><path fill="#adadab" d="M100 500h100v100H100z"/><path fill="#a8a6a5" d="M200 500h100v100H200z"/><path fill="#bebdbc" d="M300 500h100v100H300z"/><path fill="#c3c3c1" d="M400 500h100v100H400zm100 0h100v100H500z"/><path fill="#c8c8c7" d="M600 500h100v100H600z"/><path fill="#c8c9c8" d="M700 500h100v100H700z"/><path fill="#b6b7b8" d="M0 600h100v100H0z"/><path fill="#b5b5b5" d="M100 600h100v100H100z"/><path fill="#c2c3c3" d="M200 600h100v100H200z"/><path fill="#b1b2b3" d="M300 600h100v100H300z"/><path fill="#bec0bd" d="M400 600h100v100H400z"/><path fill="#b7b9b8" d="M500 600h100v100H500z"/><path fill="#c4c5c4" d="M600 600h100v100H600z"/><path fill="#d3d5d5" d="M700 600h100v100H700z"/><path fill="#b4b6b7" d="M0 700h100v100H0z"/><path fill="#b9bbbc" d="M100 700h100v100H100z"/><path fill="#c7c9ca" d="M200 700h100v100H200z"/><path fill="#a8a8aa" d="M300 700h100v100H300z"/><path fill="#bbbdbc" d="M400 700h100v100H400z"/><path fill="#bebfc1" d="M500 700h100v100H500z"/><path fill="#c3c5c5" d="M600 700h100v100H600z"/><path fill="#e3e5e4" d="M700 700h100v100H700z"/></svg>