<svg xmlns="http://www.w3.org/2000/svg" viewBox="0 0 800 400"><defs/><path fill="#f6fcf9" d="M0 0h100v100H0z"/><path fill="#e3f4e9" d="M100 0h100v100H100z"/><path fill="#f5faf8" d="M200 0h100v100H200z"/><path fill="#fcfefd" d="M300 0h100v100H300z"/><path fill="#fafcfb" d="M400 0h100v100H400z"/><path fill="#fafdfb" d="M500 0h100v100H500z"/><path fill="#f9fdfb" d="M600 0h100v100H600z"/><path fill="#f5fbf8" d="M700 0h100v100H700z"/><path fill="#f4fbf7" d="M0 100h100v100H0z"/><path fill="#e3f3e9" d="M100 100h100v100H100z"/><path fill="#fefefe" d="M200 100h100v100H200z"/><path fill="#fff" d="M300 100h100v100H300zm100 0h100v100H400zm100 0h100v100H500z"/><path fill="#fffefe" d="M600 100h100v100H600z"/><path fill="#fafcfb" d="M700 100h100v100H700z"/><path fill="#ecf7f2" d="M0 200h100v100H0z"/><path fill="#dff1e7" d="M100 200h100v100H100z"/><path fill="#fcfefe" d="M200 200h100v100H200z"/><path fill="#fcfefd" d="M300 200h100v100H300z"/><path fill="#fcfefc" d="M400 200h100v100H400zm100 0h100v100H500z"/><path fill="#fbfdfc" d="M600 200h100v100H600z"/><path fill="#f8fcfa" d="M700 200h100v100H700z"/><path fill="#e5f4ec" d="M0 300h100v100H0z"/><path fill="#e7f5ed" d="M100 300h100v100H100z"/><path fill="#fdfefd" d="M200 300h100v100H200z"/><path fill="#fcfefc" d="M300 300h100v100H300z"/><path fill="#fcfdfc" d="M400 300h100v100H400z"/><path fill="#fbfdfc" d="M500 300h100v100H500z"/><path fill="#fdfdfd" d="M600 300h100v100H600z"/><path fill="#f5faf7" d="M700 300h100v100H700z"/></svg>