<svg xmlns="http://www.w3.org/2000/svg" viewBox="0 0 800 500"><defs/><path fill="#e0d1d3" d="M0 0h100v100H0z"/><path fill="#c5c1c0" d="M100 0h100v100H100z"/><path fill="#dbd2c7" d="M200 0h100v100H200z"/><path fill="#e5ded3" d="M300 0h100v100H300z"/><path fill="#e6e3de" d="M400 0h100v100H400z"/><path fill="#dad7d3" d="M500 0h100v100H500z"/><path fill="#d7d5c5" d="M600 0h100v100H600z"/><path fill="#dad7be" d="M700 0h100v100H700z"/><path fill="#c6b6b8" d="M0 100h100v100H0z"/><path fill="#a5968c" d="M100 100h100v100H100z"/><path fill="#c9b39a" d="M200 100h100v100H200z"/><path fill="#c2ad9c" d="M300 100h100v100H300z"/><path fill="#aab5b4" d="M400 100h100v100H400z"/><path fill="#90b5cc" d="M500 100h100v100H500z"/><path fill="#a8b2a6" d="M600 100h100v100H600z"/><path fill="#c4b9a1" d="M700 100h100v100H700z"/><path fill="#c8a099" d="M0 200h100v100H0z"/><path fill="#938375" d="M100 200h100v100H100z"/><path fill="#cfa695" d="M200 200h100v100H200z"/><path fill="#cdb39f" d="M300 200h100v100H300z"/><path fill="#acada2" d="M400 200h100v100H400z"/><path fill="#adc0bd" d="M500 200h100v100H500z"/><path fill="#b2b5ab" d="M600 200h100v100H600z"/><path fill="#c5bfb9" d="M700 200h100v100H700z"/><path fill="#b59b96" d="M0 300h100v100H0z"/><path fill="#90928c" d="M100 300h100v100H100z"/><path fill="#b99e9c" d="M200 300h100v100H200z"/><path fill="#aa9991" d="M300 300h100v100H300z"/><path fill="#b4a49c" d="M400 300h100v100H400z"/><path fill="#a2abb8" d="M500 300h100v100H500z"/><path fill="#8b95a3" d="M600 300h100v100H600z"/><path fill="#c3bab6" d="M700 300h100v100H700z"/><path fill="#ada2a0" d="M0 400h100v100H0z"/><path fill="#a7a8aa" d="M100 400h100v100H100z"/><path fill="#c0b8b6" d="M200 400h100v100H200z"/><path fill="#baada9" d="M300 400h100v100H300z"/><path fill="#bebabd" d="M400 400h100v100H400z"/><path fill="#98b3d2" d="M500 400h100v100H500z"/><path fill="#96aac1" d="M600 400h100v100H600z"/><path fill="#cecdcd" d="M700 400h100v100H700z"/></svg>