<svg xmlns="http://www.w3.org/2000/svg" viewBox="0 0 800 400"><defs/><path fill="#6c646b" d="M0 0h100v100H0z"/><path fill="#4e4042" d="M100 0h100v100H100z"/><path fill="#574f56" d="M200 0h100v100H200z"/><path fill="#5e5b69" d="M300 0h100v100H300z"/><path fill="#635e67" d="M400 0h100v100H400z"/><path fill="#625d66" d="M500 0h100v100H500z"/><path fill="#59525a" d="M600 0h100v100H600z"/><path fill="#807166" d="M700 0h100v100H700z"/><path fill="#4d424a" d="M0 100h100v100H0z"/><path fill="#28181c" d="M100 100h100v100H100z"/><path fill="#3e3933" d="M200 100h100v100H200z"/><path fill="#5b4b50" d="M300 100h100v100H300z"/><path fill="#594951" d="M400 100h100v100H400z"/><path fill="#564b5b" d="M500 100h100v100H500z"/><path fill="#493d44" d="M600 100h100v100H600z"/><path fill="#6c5b4e" d="M700 100h100v100H700z"/><path fill="#4e4247" d="M0 200h100v100H0z"/><path fill="#3c2a2e" d="M100 200h100v100H100z"/><path fill="#6d5654" d="M200 200h100v100H200z"/><path fill="#765544" d="M300 200h100v100H300z"/><path fill="#7b4a3d" d="M400 200h100v100H400z"/><path fill="#705044" d="M500 200h100v100H500z"/><path fill="#6d483d" d="M600 200h100v100H600z"/><path fill="#4d342f" d="M700 200h100v100H700z"/><path fill="#5b4d50" d="M0 300h100v100H0z"/><path fill="#836d6f" d="M100 300h100v100H100z"/><path fill="#a08283" d="M200 300h100v100H200z"/><path fill="#6e493d" d="M300 300h100v100H300z"/><path fill="#774a3c" d="M400 300h100v100H400z"/><path fill="#754e3c" d="M500 300h100v100H500z"/><path fill="#957a73" d="M600 300h100v100H600z"/><path fill="#5c4443" d="M700 300h100v100H700z"/></svg>