<svg xmlns="http://www.w3.org/2000/svg" viewBox="0 0 800 500"><defs/><path fill="#182029" d="M0 0h100v100H0z"/><path fill="#2c2925" d="M100 0h100v100H100z"/><path fill="#3b3b3a" d="M200 0h100v100H200z"/><path fill="#484647" d="M300 0h100v100H300z"/><path fill="#4a4546" d="M400 0h100v100H400z"/><path fill="#4d4647" d="M500 0h100v100H500z"/><path fill="#3f3b3c" d="M600 0h100v100H600z"/><path fill="#181d22" d="M700 0h100v100H700z"/><path fill="#1c242a" d="M0 100h100v100H0z"/><path fill="#231d19" d="M100 100h100v100H100z"/><path fill="#4a4a47" d="M200 100h100v100H200z"/><path fill="#847c7d" d="M300 100h100v100H300z"/><path fill="#796666" d="M400 100h100v100H400z"/><path fill="#7e6c6a" d="M500 100h100v100H500z"/><path fill="#7a696b" d="M600 100h100v100H600z"/><path fill="#182430" d="M700 100h100v100H700z"/><path fill="#24291f" d="M0 200h100v100H0z"/><path fill="#221d19" d="M100 200h100v100H100z"/><path fill="#4a4948" d="M200 200h100v100H200z"/><path fill="#6e6f6d" d="M300 200h100v100H300z"/><path fill="#4b433b" d="M400 200h100v100H400z"/><path fill="#4c4c47" d="M500 200h100v100H500z"/><path fill="#626564" d="M600 200h100v100H600z"/><path fill="#1e2a1f" d="M700 200h100v100H700z"/><path fill="#282722" d="M0 300h100v100H0z"/><path fill="#262320" d="M100 300h100v100H100z"/><path fill="#2d2c2a" d="M200 300h100v100H200z"/><path fill="#52504e" d="M300 300h100v100H300z"/><path fill="#4d454f" d="M400 300h100v100H400z"/><path fill="#544f59" d="M500 300h100v100H500z"/><path fill="#535252" d="M600 300h100v100H600z"/><path fill="#2c2e27" d="M700 300h100v100H700z"/><path fill="#2a2825" d="M0 400h100v100H0z"/><path fill="#272624" d="M100 400h100v100H100z"/><path fill="#22201e" d="M200 400h100v100H200z"/><path fill="#454442" d="M300 400h100v100H300z"/><path fill="#696768" d="M400 400h100v100H400z"/><path fill="#615e5c" d="M500 400h100v100H500z"/><path fill="#5b5a58" d="M600 400h100v100H600z"/><path fill="#272624" d="M700 400h100v100H700z"/></svg>