<svg xmlns="http://www.w3.org/2000/svg" viewBox="0 0 800 400"><defs/><path fill="#d0d7fa" d="M0 0h100v100H0z"/><path fill="#bfc8f2" d="M100 0h100v100H100z"/><path fill="#dee3fb" d="M200 0h100v100H200z"/><path fill="#dce1fd" d="M300 0h100v100H300z"/><path fill="#dde3fe" d="M400 0h100v100H400z"/><path fill="#dbe1fc" d="M500 0h100v100H500z"/><path fill="#e1e6fc" d="M600 0h100v100H600z"/><path fill="#c3cffd" d="M700 0h100v100H700z"/><path fill="#dee2f9" d="M0 100h100v100H0z"/><path fill="#d3d7f1" d="M100 100h100v100H100z"/><path fill="#f1f3fc" d="M200 100h100v100H200z"/><path fill="#e0e6fc" d="M300 100h100v100H300z"/><path fill="#e6ebfd" d="M400 100h100v100H400z"/><path fill="#eceffa" d="M500 100h100v100H500z"/><path fill="#f6f6fa" d="M600 100h100v100H600z"/><path fill="#dae2fe" d="M700 100h100v100H700z"/><path fill="#cdd4f6" d="M0 200h100v100H0z"/><path fill="#dbdff4" d="M100 200h100v100H100z"/><path fill="#f0f2fc" d="M200 200h100v100H200z"/><path fill="#f4f5fd" d="M300 200h100v100H300z"/><path fill="#f2f4fc" d="M400 200h100v100H400z"/><path fill="#e7ebfa" d="M500 200h100v100H500z"/><path fill="#f3f4fc" d="M600 200h100v100H600z"/><path fill="#d6defd" d="M700 200h100v100H700z"/><path fill="#c4ccf1" d="M0 300h100v100H0z"/><path fill="#fafafc" d="M100 300h100v100H100z"/><path fill="#f2f3fb" d="M200 300h100v100H200z"/><path fill="#f9fafd" d="M300 300h100v100H300z"/><path fill="#f4f5fb" d="M400 300h100v100H400z"/><path fill="#fafafe" d="M500 300h100v100H500z"/><path fill="#fff" d="M600 300h100v100H600z"/><path fill="#d4dcfc" d="M700 300h100v100H700z"/></svg>