<svg xmlns="http://www.w3.org/2000/svg" viewBox="0 0 800 500"><defs/><path fill="#f6f6f6" d="M0 0h100v100H0z"/><path fill="#e4cca2" d="M100 0h100v100H100z"/><path fill="#e7ead7" d="M200 0h100v100H200z"/><path fill="#e8f6f2" d="M300 0h100v100H300z"/><path fill="#e2eeea" d="M400 0h100v100H400z"/><path fill="#deedea" d="M500 0h100v100H500z"/><path fill="#e3dfdc" d="M600 0h100v100H600z"/><path fill="#f7f3f3" d="M700 0h100v100H700z"/><path fill="#f8f3ed" d="M0 100h100v100H0z"/><path fill="#c7a159" d="M100 100h100v100H100z"/><path fill="#719681" d="M200 100h100v100H200z"/><path fill="#63998e" d="M300 100h100v100H300z"/><path fill="#93bbac" d="M400 100h100v100H400z"/><path fill="#a6c8ae" d="M500 100h100v100H500z"/><path fill="#bcb7a7" d="M600 100h100v100H600z"/><path fill="#f8eaea" d="M700 100h100v100H700z"/><path fill="#f0e7d5" d="M0 200h100v100H0z"/><path fill="#c69c57" d="M100 200h100v100H100z"/><path fill="#708681" d="M200 200h100v100H200z"/><path fill="#9c927d" d="M300 200h100v100H300z"/><path fill="#c58d6f" d="M400 200h100v100H400z"/><path fill="#a6998b" d="M500 200h100v100H500z"/><path fill="#a7ada5" d="M600 200h100v100H600z"/><path fill="#f7edec" d="M700 200h100v100H700z"/><path fill="#dfc9a2" d="M0 300h100v100H0z"/><path fill="#d4b176" d="M100 300h100v100H100z"/><path fill="#e5cbca" d="M200 300h100v100H200z"/><path fill="#f3dbd6" d="M300 300h100v100H300z"/><path fill="#fff2eb" d="M400 300h100v100H400z"/><path fill="#fff2ea" d="M500 300h100v100H500z"/><path fill="#f7ede9" d="M600 300h100v100H600z"/><path fill="#f3f2f2" d="M700 300h100v100H700z"/><path fill="#ebe3d6" d="M0 400h100v100H0z"/><path fill="#f0ebe1" d="M100 400h100v100H100z"/><path fill="#f8fcff" d="M200 400h100v100H200z"/><path fill="#f6fafa" d="M300 400h100v100H300z"/><path fill="#f7fcfe" d="M400 400h100v100H400z"/><path fill="#f7fbfc" d="M500 400h100v100H500z"/><path fill="#fafcfc" d="M600 400h100v100H600z"/><path fill="#efefee" d="M700 400h100v100H700z"/></svg>