<svg xmlns="http://www.w3.org/2000/svg" viewBox="0 0 800 400"><defs/><path fill="#ddb5a8" d="M0 0h100v100H0z"/><path fill="#988779" d="M100 0h100v100H100z"/><path fill="#d2dadb" d="M200 0h100v100H200z"/><path fill="#c0d5d5" d="M300 0h100v100H300z"/><path fill="#c3d0d0" d="M400 0h100v100H400z"/><path fill="#e8f2f7" d="M500 0h100v100H500z"/><path fill="#d1cac6" d="M600 0h100v100H600z"/><path fill="#d4a497" d="M700 0h100v100H700z"/><path fill="#ad8b72" d="M0 100h100v100H0z"/><path fill="#504f33" d="M100 100h100v100H100z"/><path fill="#7fa89d" d="M200 100h100v100H200z"/><path fill="#809791" d="M300 100h100v100H300z"/><path fill="#a2a7a4" d="M400 100h100v100H400z"/><path fill="#d5dee5" d="M500 100h100v100H500z"/><path fill="#8596a0" d="M600 100h100v100H600z"/><path fill="#bf8173" d="M700 100h100v100H700z"/><path fill="#b18575" d="M0 200h100v100H0z"/><path fill="#6d5322" d="M100 200h100v100H100z"/><path fill="#957d4c" d="M200 200h100v100H200z"/><path fill="#6f523b" d="M300 200h100v100H300z"/><path fill="#88755b" d="M400 200h100v100H400z"/><path fill="#9e9481" d="M500 200h100v100H500z"/><path fill="#535556" d="M600 200h100v100H600z"/><path fill="#bf8578" d="M700 200h100v100H700z"/><path fill="#ac7c67" d="M0 300h100v100H0z"/><path fill="#7d491e" d="M100 300h100v100H100z"/><path fill="#7f5a3f" d="M200 300h100v100H200z"/><path fill="#796f68" d="M300 300h100v100H300z"/><path fill="#756e5c" d="M400 300h100v100H400z"/><path fill="#8a7048" d="M500 300h100v100H500z"/><path fill="#6a574a" d="M600 300h100v100H600z"/><path fill="#a47665" d="M700 300h100v100H700z"/></svg>