<svg xmlns="http://www.w3.org/2000/svg" viewBox="0 0 800 600"><defs/><path fill="#40234b" d="M0 0h100v100H0z"/><path fill="#836753" d="M100 0h100v100H100z"/><path fill="#210e40" d="M200 0h100v100H200z"/><path fill="#9b8e98" d="M300 0h100v100H300z"/><path fill="#ffffeb" d="M400 0h100v100H400z"/><path fill="#e0d6c7" d="M500 0h100v100H500z"/><path fill="#311e56" d="M600 0h100v100H600z"/><path fill="#3a1c48" d="M700 0h100v100H700z"/><path fill="#3d294b" d="M0 100h100v100H0z"/><path fill="#805c5d" d="M100 100h100v100H100z"/><path fill="#381a4f" d="M200 100h100v100H200z"/><path fill="#342a5e" d="M300 100h100v100H300z"/><path fill="#82788c" d="M400 100h100v100H400z"/><path fill="#503e67" d="M500 100h100v100H500z"/><path fill="#210d4e" d="M600 100h100v100H600z"/><path fill="#512e52" d="M700 100h100v100H700z"/><path fill="#4e3b48" d="M0 200h100v100H0z"/><path fill="#9f8872" d="M100 200h100v100H100z"/><path fill="#40225d" d="M200 200h100v100H200z"/><path fill="#2a1242" d="M300 200h100v100H300z"/><path fill="#492749" d="M400 200h100v100H400z"/><path fill="#1c064f" d="M500 200h100v100H500z"/><path fill="#1e0e46" d="M600 200h100v100H600z"/><path fill="#5b4166" d="M700 200h100v100H700z"/><path fill="#725750" d="M0 300h100v100H0z"/><path fill="#756364" d="M100 300h100v100H100z"/><path fill="#4b3057" d="M200 300h100v100H200z"/><path fill="#cbac65" d="M300 300h100v100H300z"/><path fill="#f6cc62" d="M400 300h100v100H400z"/><path fill="#e2b169" d="M500 300h100v100H500z"/><path fill="#7b6786" d="M600 300h100v100H600z"/><path fill="#3b2463" d="M700 300h100v100H700z"/><path fill="#7a5262" d="M0 400h100v100H0z"/><path fill="#3a2768" d="M100 400h100v100H100z"/><path fill="#4f3b73" d="M200 400h100v100H200z"/><path fill="#816962" d="M300 400h100v100H300z"/><path fill="#806359" d="M400 400h100v100H400z"/><path fill="#8d6a57" d="M500 400h100v100H500z"/><path fill="#442d63" d="M600 400h100v100H600z"/><path fill="#3b1f5b" d="M700 400h100v100H700z"/><path fill="#543569" d="M0 500h100v100H0z"/><path fill="#40235e" d="M100 500h100v100H100z"/><path fill="#3b1953" d="M200 500h100v100H200z"/><path fill="#210857" d="M300 500h100v100H300z"/><path fill="#1f085c" d="M400 500h100v100H400z"/><path fill="#1a035a" d="M500 500h100v100H500z"/><path fill="#301c5f" d="M600 500h100v100H600z"/><path fill="#817081" d="M700 500h100v100H700z"/></svg>