<svg xmlns="http://www.w3.org/2000/svg" viewBox="0 0 800 500"><defs/><path fill="#ededed" d="M0 0h100v100H0z"/><path fill="#cac9c6" d="M100 0h100v100H100z"/><path fill="#c9c4c3" d="M200 0h100v100H200z"/><path fill="#d4cbc8" d="M300 0h100v100H300z"/><path fill="#d3c8c4" d="M400 0h100v100H400z"/><path fill="#c8c7c3" d="M500 0h100v100H500z"/><path fill="#d4d5d4" d="M600 0h100v100H600z"/><path fill="#fbfbfc" d="M700 0h100v100H700z"/><path fill="#c2c2c1" d="M0 100h100v100H0z"/><path fill="#4f4d4d" d="M100 100h100v100H100z"/><path fill="#615751" d="M200 100h100v100H200z"/><path fill="#808dab" d="M300 100h100v100H300z"/><path fill="#5c6d8a" d="M400 100h100v100H400z"/><path fill="#2d3a2c" d="M500 100h100v100H500z"/><path fill="#828078" d="M600 100h100v100H600z"/><path fill="#f6f7f8" d="M700 100h100v100H700z"/><path fill="#c8c4c9" d="M0 200h100v100H0z"/><path fill="#6e594f" d="M100 200h100v100H100z"/><path fill="#7d766c" d="M200 200h100v100H200z"/><path fill="#6b97b0" d="M300 200h100v100H300z"/><path fill="#37657a" d="M400 200h100v100H400z"/><path fill="#3d483c" d="M500 200h100v100H500z"/><path fill="#9b7361" d="M600 200h100v100H600z"/><path fill="#f7f4f2" d="M700 200h100v100H700z"/><path fill="#b8b9b5" d="M0 300h100v100H0z"/><path fill="#5a7c29" d="M100 300h100v100H100z"/><path fill="#6a7b2e" d="M200 300h100v100H200z"/><path fill="#687e2c" d="M300 300h100v100H300z"/><path fill="#618627" d="M400 300h100v100H400z"/><path fill="#727b2c" d="M500 300h100v100H500z"/><path fill="#818658" d="M600 300h100v100H600z"/><path fill="#f0f1f3" d="M700 300h100v100H700z"/><path fill="#dce4d3" d="M0 400h100v100H0z"/><path fill="#b3c897" d="M100 400h100v100H100z"/><path fill="#b1c59d" d="M200 400h100v100H200z"/><path fill="#a8b999" d="M300 400h100v100H300z"/><path fill="#aec29c" d="M400 400h100v100H400z"/><path fill="#b4c19c" d="M500 400h100v100H500z"/><path fill="#bfccab" d="M600 400h100v100H600z"/><path fill="#f9faf8" d="M700 400h100v100H700z"/></svg>