<svg xmlns="http://www.w3.org/2000/svg" viewBox="0 0 800 600"><defs/><path fill="#eae3db" d="M0 0h100v100H0z"/><path fill="#d6cabb" d="M100 0h100v100H100z"/><path fill="#aac3bf" d="M200 0h100v100H200z"/><path fill="#bcbdb3" d="M300 0h100v100H300zm100 0h100v100H400z"/><path fill="#b9b8ae" d="M500 0h100v100H500z"/><path fill="#b2c2bc" d="M600 0h100v100H600z"/><path fill="#d6cec2" d="M700 0h100v100H700z"/><path fill="#d7bbad" d="M0 100h100v100H0z"/><path fill="#9d8771" d="M100 100h100v100H100z"/><path fill="#52a2aa" d="M200 100h100v100H200z"/><path fill="#ada196" d="M300 100h100v100H300z"/><path fill="#adaea8" d="M400 100h100v100H400z"/><path fill="#9e9b96" d="M500 100h100v100H500z"/><path fill="#76a7a1" d="M600 100h100v100H600z"/><path fill="#b0b58b" d="M700 100h100v100H700z"/><path fill="#c49682" d="M0 200h100v100H0z"/><path fill="#b17c62" d="M100 200h100v100H100z"/><path fill="#93977f" d="M200 200h100v100H200z"/><path fill="#9a867a" d="M300 200h100v100H300z"/><path fill="#b1938a" d="M400 200h100v100H400z"/><path fill="#a98170" d="M500 200h100v100H500z"/><path fill="#8a8564" d="M600 200h100v100H600z"/><path fill="#ba9b72" d="M700 200h100v100H700z"/><path fill="#b16644" d="M0 300h100v100H0z"/><path fill="#bb7444" d="M100 300h100v100H100z"/><path fill="#c89d67" d="M200 300h100v100H200z"/><path fill="#bb804d" d="M300 300h100v100H300z"/><path fill="#bf815b" d="M400 300h100v100H400z"/><path fill="#bf9679" d="M500 300h100v100H500z"/><path fill="#ada173" d="M600 300h100v100H600z"/><path fill="#909755" d="M700 300h100v100H700z"/><path fill="#ba6f39" d="M0 400h100v100H0z"/><path fill="#b5947a" d="M100 400h100v100H100z"/><path fill="#bdadca" d="M200 400h100v100H200z"/><path fill="#cbb3c6" d="M300 400h100v100H300z"/><path fill="#bfac99" d="M400 400h100v100H400z"/><path fill="#e5be62" d="M500 400h100v100H500z"/><path fill="#d4b352" d="M600 400h100v100H600z"/><path fill="#acaf88" d="M700 400h100v100H700z"/><path fill="#eadec2" d="M0 500h100v100H0z"/><path fill="#dfd4cc" d="M100 500h100v100H100z"/><path fill="#e1cdcc" d="M200 500h100v100H200z"/><path fill="#e4d8dc" d="M300 500h100v100H300z"/><path fill="#ded5cd" d="M400 500h100v100H400z"/><path fill="#eadcb8" d="M500 500h100v100H500z"/><path fill="#ead9b6" d="M600 500h100v100H600z"/><path fill="#e3d2cc" d="M700 500h100v100H700z"/></svg>