<svg xmlns="http://www.w3.org/2000/svg" viewBox="0 0 800 400"><defs/><path fill="#8f8288" d="M0 0h100v100H0z"/><path fill="#52474f" d="M100 0h100v100H100z"/><path fill="#695a60" d="M200 0h100v100H200z"/><path fill="#bfa9b0" d="M300 0h100v100H300z"/><path fill="#d8c3c9" d="M400 0h100v100H400z"/><path fill="#cfbec5" d="M500 0h100v100H500z"/><path fill="#9f8a8c" d="M600 0h100v100H600z"/><path fill="#e0cfc1" d="M700 0h100v100H700z"/><path fill="#796b72" d="M0 100h100v100H0z"/><path fill="#3a2e36" d="M100 100h100v100H100z"/><path fill="#40333a" d="M200 100h100v100H200z"/><path fill="#ba9ea7" d="M300 100h100v100H300z"/><path fill="#fce0e8" d="M400 100h100v100H400z"/><path fill="#f0d4df" d="M500 100h100v100H500z"/><path fill="#856a6b" d="M600 100h100v100H600z"/><path fill="#d6c1b1" d="M700 100h100v100H700z"/><path fill="#625b63" d="M0 200h100v100H0z"/><path fill="#3a2d34" d="M100 200h100v100H100z"/><path fill="#6a5553" d="M200 200h100v100H200z"/><path fill="#907974" d="M300 200h100v100H300z"/><path fill="#b59e99" d="M400 200h100v100H400z"/><path fill="#c6afa8" d="M500 200h100v100H500z"/><path fill="#967e75" d="M600 200h100v100H600z"/><path fill="#ab9994" d="M700 200h100v100H700z"/><path fill="#90807e" d="M0 300h100v100H0z"/><path fill="#856960" d="M100 300h100v100H100z"/><path fill="#ab8577" d="M200 300h100v100H200z"/><path fill="#af998d" d="M300 300h100v100H300z"/><path fill="#b8a292" d="M400 300h100v100H400z"/><path fill="#aa8f81" d="M500 300h100v100H500z"/><path fill="#af9181" d="M600 300h100v100H600z"/><path fill="#938685" d="M700 300h100v100H700z"/></svg>