<svg xmlns="http://www.w3.org/2000/svg" viewBox="0 0 800 800"><defs/><path fill="#fefefe" d="M0 0h100v100H0z"/><path fill="#fff" d="M100 0h100v100H100z"/><path fill="#fdfcfb" d="M200 0h100v100H200z"/><path fill="#f3e8df" d="M300 0h100v100H300z"/><path fill="#fcfbf9" d="M400 0h100v100H400z"/><path fill="#fff" d="M500 0h100v100H500z"/><path fill="#fefdfd" d="M600 0h100v100H600z"/><path fill="#fefefe" d="M700 0h100v100H700z"/><path fill="#fff" d="M0 100h100v100H0z"/><path fill="#f5efea" d="M100 100h100v100H100z"/><path fill="#e7cdb4" d="M200 100h100v100H200z"/><path fill="#e4a470" d="M300 100h100v100H300z"/><path fill="#e1b48f" d="M400 100h100v100H400z"/><path fill="#f0e4d9" d="M500 100h100v100H500z"/><path fill="#feffff" d="M600 100h100v100H600z"/><path fill="#fffffe" d="M700 100h100v100H700z"/><path fill="#f8f2ee" d="M0 200h100v100H0z"/><path fill="#e1bc9a" d="M100 200h100v100H100z"/><path fill="#e3ad7f" d="M200 200h100v100H200z"/><path fill="#cd834b" d="M300 200h100v100H300z"/><path fill="#dda46c" d="M400 200h100v100H400z"/><path fill="#eccaa2" d="M500 200h100v100H500z"/><path fill="#e9d4c0" d="M600 200h100v100H600z"/><path fill="#faf8f6" d="M700 200h100v100H700z"/><path fill="#fbf2eb" d="M0 300h100v100H0z"/><path fill="#d0b796" d="M100 300h100v100H100z"/><path fill="#928668" d="M200 300h100v100H200z"/><path fill="#c08657" d="M300 300h100v100H300z"/><path fill="#bb9667" d="M400 300h100v100H400z"/><path fill="#ccb79c" d="M500 300h100v100H500z"/><path fill="#b7a287" d="M600 300h100v100H600z"/><path fill="#e0d8d0" d="M700 300h100v100H700z"/><path fill="#fbf6f1" d="M0 400h100v100H0z"/><path fill="#d5a57a" d="M100 400h100v100H100z"/><path fill="#9f6339" d="M200 400h100v100H200z"/><path fill="#c1794e" d="M300 400h100v100H300z"/><path fill="#d28653" d="M400 400h100v100H400z"/><path fill="#b0927c" d="M500 400h100v100H500z"/><path fill="#8d7a6b" d="M600 400h100v100H600z"/><path fill="#e5d7cc" d="M700 400h100v100H700z"/><path fill="#fcfbfb" d="M0 500h100v100H0z"/><path fill="#e4c7af" d="M100 500h100v100H100z"/><path fill="#e2a577" d="M200 500h100v100H200z"/><path fill="#ce895b" d="M300 500h100v100H300z"/><path fill="#c8895a" d="M400 500h100v100H400z"/><path fill="#7f6850" d="M500 500h100v100H500z"/><path fill="#9d6a47" d="M600 500h100v100H600z"/><path fill="#f3e3d6" d="M700 500h100v100H700z"/><path fill="#fefefe" d="M0 600h100v100H0z"/><path fill="#fff" d="M100 600h100v100H100z"/><path fill="#f5f2ed" d="M200 600h100v100H200z"/><path fill="#efd1b4" d="M300 600h100v100H300z"/><path fill="#daa376" d="M400 600h100v100H400z"/><path fill="#b8845b" d="M500 600h100v100H500z"/><path fill="#e7cbb4" d="M600 600h100v100H600z"/><path fill="#faf9f9" d="M700 600h100v100H700z"/><path fill="#fcfcfc" d="M0 700h100v100H0z"/><path fill="#fdfdfd" d="M100 700h100v100H100z"/><path fill="#fff" d="M200 700h100v100H200z"/><path fill="#fbfcfd" d="M300 700h100v100H300z"/><path fill="#f2e6db" d="M400 700h100v100H400z"/><path fill="#faf3ee" d="M500 700h100v100H500z"/><path fill="#fff" d="M600 700h100v100H600z"/><path fill="#fefefe" d="M700 700h100v100H700z"/></svg>