<svg xmlns="http://www.w3.org/2000/svg" viewBox="0 0 800 500"><defs/><path fill="#9a9ba1" d="M0 0h100v100H0z"/><path fill="#97938c" d="M100 0h100v100H100z"/><path fill="#979898" d="M200 0h100v100H200z"/><path fill="#959398" d="M300 0h100v100H300z"/><path fill="#979397" d="M400 0h100v100H400z"/><path fill="#8f8f92" d="M500 0h100v100H500z"/><path fill="#8e8e91" d="M600 0h100v100H600z"/><path fill="#8e8e8e" d="M700 0h100v100H700z"/><path fill="#989a98" d="M0 100h100v100H0z"/><path fill="#98958d" d="M100 100h100v100H100z"/><path fill="#9a9a99" d="M200 100h100v100H200z"/><path fill="#908d86" d="M300 100h100v100H300z"/><path fill="#8f8c90" d="M400 100h100v100H400z"/><path fill="#8c8a8f" d="M500 100h100v100H500z"/><path fill="#838982" d="M600 100h100v100H600z"/><path fill="#7e887a" d="M700 100h100v100H700z"/><path fill="#97989b" d="M0 200h100v100H0z"/><path fill="#9b9794" d="M100 200h100v100H100z"/><path fill="#9c999c" d="M200 200h100v100H200z"/><path fill="#8e8e8d" d="M300 200h100v100H300z"/><path fill="#8d8580" d="M400 200h100v100H400z"/><path fill="#8d8b88" d="M500 200h100v100H500z"/><path fill="#83847d" d="M600 200h100v100H600z"/><path fill="#7d7a69" d="M700 200h100v100H700z"/><path fill="#9a9a9d" d="M0 300h100v100H0z"/><path fill="#999693" d="M100 300h100v100H100z"/><path fill="#999292" d="M200 300h100v100H200z"/><path fill="#969092" d="M300 300h100v100H300z"/><path fill="#918988" d="M400 300h100v100H400z"/><path fill="#8c8687" d="M500 300h100v100H500z"/><path fill="#87807e" d="M600 300h100v100H600z"/><path fill="#827972" d="M700 300h100v100H700z"/><path fill="#a7a9ab" d="M0 400h100v100H0z"/><path fill="#a2a19e" d="M100 400h100v100H100z"/><path fill="#9e9691" d="M200 400h100v100H200z"/><path fill="#9a9296" d="M300 400h100v100H300z"/><path fill="#908a92" d="M400 400h100v100H400z"/><path fill="#7f7d89" d="M500 400h100v100H500z"/><path fill="#8b8481" d="M600 400h100v100H600z"/><path fill="#8f8a7b" d="M700 400h100v100H700z"/></svg>