<svg xmlns="http://www.w3.org/2000/svg" viewBox="0 0 800 600"><defs/><path fill="#9eb8d3" d="M0 0h100v100H0z"/><path fill="#9bb6d4" d="M100 0h100v100H100z"/><path fill="#859fbd" d="M200 0h100v100H200z"/><path fill="#8ca5c2" d="M300 0h100v100H300z"/><path fill="#8aa2c0" d="M400 0h100v100H400z"/><path fill="#8198b6" d="M500 0h100v100H500z"/><path fill="#748aaa" d="M600 0h100v100H600z"/><path fill="#657c9a" d="M700 0h100v100H700z"/><path fill="#9bb5d1" d="M0 100h100v100H0z"/><path fill="#87a2be" d="M100 100h100v100H100z"/><path fill="#819ab7" d="M200 100h100v100H200z"/><path fill="#8fa8c6" d="M300 100h100v100H300z"/><path fill="#88a0bf" d="M400 100h100v100H400z"/><path fill="#7c93b1" d="M500 100h100v100H500z"/><path fill="#617795" d="M600 100h100v100H600z"/><path fill="#59708d" d="M700 100h100v100H700z"/><path fill="#9db8d4" d="M0 200h100v100H0z"/><path fill="#98b2ce" d="M100 200h100v100H100z"/><path fill="#90aac7" d="M200 200h100v100H200z"/><path fill="#879ebb" d="M300 200h100v100H300z"/><path fill="#7a90ad" d="M400 200h100v100H400z"/><path fill="#677896" d="M500 200h100v100H500z"/><path fill="#586a88" d="M600 200h100v100H600z"/><path fill="#5c7290" d="M700 200h100v100H700z"/><path fill="#9ab6d1" d="M0 300h100v100H0z"/><path fill="#95afcb" d="M100 300h100v100H100z"/><path fill="#8ca6c4" d="M200 300h100v100H200z"/><path fill="#88a2bf" d="M300 300h100v100H300z"/><path fill="#788eab" d="M400 300h100v100H400z"/><path fill="#607391" d="M500 300h100v100H500z"/><path fill="#495a77" d="M600 300h100v100H600z"/><path fill="#536684" d="M700 300h100v100H700z"/><path fill="#94aecb" d="M0 400h100v100H0z"/><path fill="#8aa3c0" d="M100 400h100v100H100z"/><path fill="#8ea9c6" d="M200 400h100v100H200z"/><path fill="#8da5c3" d="M300 400h100v100H300z"/><path fill="#6f85a2" d="M400 400h100v100H400z"/><path fill="#506381" d="M500 400h100v100H500z"/><path fill="#384864" d="M600 400h100v100H600z"/><path fill="#3f526e" d="M700 400h100v100H700z"/><path fill="#93adcb" d="M0 500h100v100H0z"/><path fill="#87a0be" d="M100 500h100v100H100z"/><path fill="#7b93b1" d="M200 500h100v100H200z"/><path fill="#647b98" d="M300 500h100v100H300z"/><path fill="#526684" d="M400 500h100v100H400z"/><path fill="#4a5d7b" d="M500 500h100v100H500z"/><path fill="#4d627f" d="M600 500h100v100H600z"/><path fill="#475b78" d="M700 500h100v100H700z"/></svg>