<svg xmlns="http://www.w3.org/2000/svg" viewBox="0 0 800 400"><defs/><path fill="#3c2c26" d="M0 0h100v100H0z"/><path fill="#b28d7f" d="M100 0h100v100H100z"/><path fill="#665642" d="M200 0h100v100H200z"/><path fill="#826754" d="M300 0h100v100H300z"/><path fill="#9f8a7a" d="M400 0h100v100H400z"/><path fill="#8f735e" d="M500 0h100v100H500z"/><path fill="#876952" d="M600 0h100v100H600z"/><path fill="#6a4c43" d="M700 0h100v100H700z"/><path fill="#553c36" d="M0 100h100v100H0z"/><path fill="#947767" d="M100 100h100v100H100z"/><path fill="#40372d" d="M200 100h100v100H200z"/><path fill="#46342a" d="M300 100h100v100H300z"/><path fill="#574539" d="M400 100h100v100H400z"/><path fill="#634f42" d="M500 100h100v100H500z"/><path fill="#5c4739" d="M600 100h100v100H600z"/><path fill="#927a76" d="M700 100h100v100H700z"/><path fill="#77594f" d="M0 200h100v100H0z"/><path fill="#7f6e5d" d="M100 200h100v100H100z"/><path fill="#2d2b26" d="M200 200h100v100H200z"/><path fill="#2e2926" d="M300 200h100v100H300z"/><path fill="#3c3633" d="M400 200h100v100H400z"/><path fill="#48423e" d="M500 200h100v100H500z"/><path fill="#5a534e" d="M600 200h100v100H600z"/><path fill="#3d3334" d="M700 200h100v100H700z"/><path fill="#835d59" d="M0 300h100v100H0z"/><path fill="#675944" d="M100 300h100v100H100z"/><path fill="#5f4929" d="M200 300h100v100H200z"/><path fill="#2a2928" d="M300 300h100v100H300z"/><path fill="#404041" d="M400 300h100v100H400z"/><path fill="#3d3b3b" d="M500 300h100v100H500z"/><path fill="#70726d" d="M600 300h100v100H600z"/><path fill="#5a5e5a" d="M700 300h100v100H700z"/></svg>