<svg xmlns="http://www.w3.org/2000/svg" viewBox="0 0 800 500"><defs/><path fill="#e4dbca" d="M0 0h100v100H0z"/><path fill="#e0d7c4" d="M100 0h100v100H100z"/><path fill="#d8d0be" d="M200 0h100v100H200z"/><path fill="#d2cdbf" d="M300 0h100v100H300z"/><path fill="#d2cabb" d="M400 0h100v100H400z"/><path fill="#d4cec1" d="M500 0h100v100H500z"/><path fill="#d4ccbd" d="M600 0h100v100H600z"/><path fill="#dbceb8" d="M700 0h100v100H700z"/><path fill="#d1bc97" d="M0 100h100v100H0z"/><path fill="#bba47b" d="M100 100h100v100H100z"/><path fill="#b8aa8e" d="M200 100h100v100H200z"/><path fill="#d2cdc0" d="M300 100h100v100H300z"/><path fill="#b9a98b" d="M400 100h100v100H400z"/><path fill="#cdc8b8" d="M500 100h100v100H500z"/><path fill="#c0b198" d="M600 100h100v100H600z"/><path fill="#af8f5d" d="M700 100h100v100H700z"/><path fill="#d2bf9d" d="M0 200h100v100H0z"/><path fill="#af9b77" d="M100 200h100v100H100z"/><path fill="#baaf99" d="M200 200h100v100H200z"/><path fill="#ecece8" d="M300 200h100v100H300z"/><path fill="#beaf96" d="M400 200h100v100H400z"/><path fill="#d7d3ca" d="M500 200h100v100H500z"/><path fill="#c4b69c" d="M600 200h100v100H600z"/><path fill="#bd9f6f" d="M700 200h100v100H700z"/><path fill="#bfa780" d="M0 300h100v100H0z"/><path fill="#b49f7c" d="M100 300h100v100H100z"/><path fill="#ddd8cc" d="M200 300h100v100H200z"/><path fill="#e8e5db" d="M300 300h100v100H300z"/><path fill="#c1b196" d="M400 300h100v100H400z"/><path fill="#c7bfaf" d="M500 300h100v100H500z"/><path fill="#cab899" d="M600 300h100v100H600z"/><path fill="#c5af89" d="M700 300h100v100H700z"/><path fill="#c7b493" d="M0 400h100v100H0z"/><path fill="#d7ccb8" d="M100 400h100v100H100z"/><path fill="#e2dfd6" d="M200 400h100v100H200z"/><path fill="#dbd3c2" d="M300 400h100v100H300z"/><path fill="#cbbba1" d="M400 400h100v100H400z"/><path fill="#c9bba4" d="M500 400h100v100H500z"/><path fill="#d7c9ae" d="M600 400h100v100H600z"/><path fill="#d4c5a8" d="M700 400h100v100H700z"/></svg>