<svg xmlns="http://www.w3.org/2000/svg" viewBox="0 0 800 600"><defs/><path fill="#dbdbdb" d="M0 0h100v100H0z"/><path fill="#cfcfcf" d="M100 0h100v100H100z"/><path fill="#d2d2d2" d="M200 0h100v100H200z"/><path fill="#d3d2d2" d="M300 0h100v100H300z"/><path fill="#d3d3d3" d="M400 0h100v100H400z"/><path fill="#d2d2d2" d="M500 0h100v100H500zm100 0h100v100H600z"/><path fill="#d4d3d3" d="M700 0h100v100H700z"/><path fill="#555" d="M0 100h100v100H0z"/><path fill="#1d1d1d" d="M100 100h100v100H100z"/><path fill="#292929" d="M200 100h100v100H200z"/><path fill="#242729" d="M300 100h100v100H300z"/><path fill="#262829" d="M400 100h100v100H400z"/><path fill="#272828" d="M500 100h100v100H500z"/><path fill="#252627" d="M600 100h100v100H600z"/><path fill="#272a2d" d="M700 100h100v100H700z"/><path fill="#555" d="M0 200h100v100H0z"/><path fill="#191b1b" d="M100 200h100v100H100z"/><path fill="#322c28" d="M200 200h100v100H200z"/><path fill="#5e3e2b" d="M300 200h100v100H300z"/><path fill="#463428" d="M400 200h100v100H400z"/><path fill="#332b27" d="M500 200h100v100H500z"/><path fill="#3b2e27" d="M600 200h100v100H600z"/><path fill="#533b2e" d="M700 200h100v100H700z"/><path fill="#5a5959" d="M0 300h100v100H0z"/><path fill="#161b1f" d="M100 300h100v100H100z"/><path fill="#624331" d="M200 300h100v100H200z"/><path fill="#a36036" d="M300 300h100v100H300z"/><path fill="#523c2e" d="M400 300h100v100H400z"/><path fill="#41342c" d="M500 300h100v100H500z"/><path fill="#593e2d" d="M600 300h100v100H600z"/><path fill="#6a4834" d="M700 300h100v100H700z"/><path fill="#4c4b4b" d="M0 400h100v100H0z"/><path fill="#0d0e0f" d="M100 400h100v100H100z"/><path fill="#2d241f" d="M200 400h100v100H200z"/><path fill="#30251e" d="M300 400h100v100H300z"/><path fill="#1e1d1c" d="M400 400h100v100H400z"/><path fill="#1f1d1c" d="M500 400h100v100H500z"/><path fill="#1c1b1a" d="M600 400h100v100H600z"/><path fill="#202020" d="M700 400h100v100H700z"/><path fill="#afafaf" d="M0 500h100v100H0z"/><path fill="#959595" d="M100 500h100v100H100z"/><path fill="#969899" d="M200 500h100v100H200z"/><path fill="#949798" d="M300 500h100v100H300z"/><path fill="#979898" d="M400 500h100v100H400z"/><path fill="#979797" d="M500 500h100v100H500z"/><path fill="#959696" d="M600 500h100v100H600z"/><path fill="#999" d="M700 500h100v100H700z"/></svg>