<svg xmlns="http://www.w3.org/2000/svg" viewBox="0 0 800 400"><defs/><path fill="#c4c4c4" d="M0 0h100v100H0z"/><path fill="#bfbfbf" d="M100 0h100v100H100z"/><path fill="#b7b7b7" d="M200 0h100v100H200z"/><path fill="silver" d="M300 0h100v100H300z"/><path fill="#cacaca" d="M400 0h100v100H400z"/><path fill="#c7c7c7" d="M500 0h100v100H500z"/><path fill="#c4c4c4" d="M600 0h100v100H600z"/><path fill="#b5b5b5" d="M700 0h100v100H700z"/><path fill="#cdcdcd" d="M0 100h100v100H0zm100 0h100v100H100z"/><path fill="#bfbfbf" d="M200 100h100v100H200z"/><path fill="#c9c9c9" d="M300 100h100v100H300z"/><path fill="#e1e1e1" d="M400 100h100v100H400z"/><path fill="#ccc" d="M500 100h100v100H500z"/><path fill="#c7c7c7" d="M600 100h100v100H600z"/><path fill="#bfbfbf" d="M700 100h100v100H700z"/><path fill="#cbcbcb" d="M0 200h100v100H0z"/><path fill="#d2d2d2" d="M100 200h100v100H100z"/><path fill="#bababa" d="M200 200h100v100H200z"/><path fill="#d7d7d7" d="M300 200h100v100H300z"/><path fill="#dbdbdb" d="M400 200h100v100H400z"/><path fill="#d0d0d0" d="M500 200h100v100H500z"/><path fill="#ccc" d="M600 200h100v100H600z"/><path fill="#b9b9b9" d="M700 200h100v100H700z"/><path fill="#bdbdbd" d="M0 300h100v100H0z"/><path fill="#cdcdcd" d="M100 300h100v100H100z"/><path fill="#dbdbdb" d="M200 300h100v100H200zm100 0h100v100H300z"/><path fill="#d0d0d0" d="M400 300h100v100H400z"/><path fill="#e2e2e2" d="M500 300h100v100H500z"/><path fill="#d7d7d7" d="M600 300h100v100H600z"/><path fill="#b4b4b4" d="M700 300h100v100H700z"/></svg>