<svg xmlns="http://www.w3.org/2000/svg" viewBox="0 0 800 400"><defs/><path fill="#44565f" d="M0 0h100v100H0z"/><path fill="#696d6a" d="M100 0h100v100H100z"/><path fill="#857965" d="M200 0h100v100H200z"/><path fill="#856842" d="M300 0h100v100H300z"/><path fill="#8b795f" d="M400 0h100v100H400z"/><path fill="#9c9078" d="M500 0h100v100H500z"/><path fill="#636b6c" d="M600 0h100v100H600z"/><path fill="#3d4c57" d="M700 0h100v100H700z"/><path fill="#51626a" d="M0 100h100v100H0z"/><path fill="#576973" d="M100 100h100v100H100z"/><path fill="#6c8599" d="M200 100h100v100H200z"/><path fill="#544b41" d="M300 100h100v100H300z"/><path fill="#72736d" d="M400 100h100v100H400z"/><path fill="#8b7f6d" d="M500 100h100v100H500z"/><path fill="#464e50" d="M600 100h100v100H600z"/><path fill="#404e58" d="M700 100h100v100H700z"/><path fill="#53595c" d="M0 200h100v100H0z"/><path fill="#747c86" d="M100 200h100v100H100z"/><path fill="#7d899b" d="M200 200h100v100H200z"/><path fill="#595655" d="M300 200h100v100H300z"/><path fill="#847a63" d="M400 200h100v100H400z"/><path fill="#6e6964" d="M500 200h100v100H500z"/><path fill="#21394c" d="M600 200h100v100H600z"/><path fill="#2b2d27" d="M700 200h100v100H700z"/><path fill="#9f7154" d="M0 300h100v100H0z"/><path fill="#c48357" d="M100 300h100v100H100z"/><path fill="#b3754f" d="M200 300h100v100H200z"/><path fill="#98674f" d="M300 300h100v100H300z"/><path fill="#272825" d="M400 300h100v100H400z"/><path fill="#333639" d="M500 300h100v100H500z"/><path fill="#202c34" d="M600 300h100v100H600z"/><path fill="#1e1b0c" d="M700 300h100v100H700z"/></svg>