<svg xmlns="http://www.w3.org/2000/svg" viewBox="0 0 800 600"><defs/><path fill="#864f23" d="M0 0h100v100H0z"/><path fill="#895828" d="M100 0h100v100H100z"/><path fill="#9b6d30" d="M200 0h100v100H200z"/><path fill="#c78136" d="M300 0h100v100H300z"/><path fill="#a47532" d="M400 0h100v100H400z"/><path fill="#af7934" d="M500 0h100v100H500z"/><path fill="#b17134" d="M600 0h100v100H600z"/><path fill="#bb7434" d="M700 0h100v100H700z"/><path fill="#844d24" d="M0 100h100v100H0z"/><path fill="#955c2c" d="M100 100h100v100H100z"/><path fill="#916a56" d="M200 100h100v100H200z"/><path fill="#a77046" d="M300 100h100v100H300z"/><path fill="#cc8d45" d="M400 100h100v100H400z"/><path fill="#bc8040" d="M500 100h100v100H500z"/><path fill="#93622f" d="M600 100h100v100H600z"/><path fill="#ab6a30" d="M700 100h100v100H700z"/><path fill="#955d28" d="M0 200h100v100H0z"/><path fill="#a2632f" d="M100 200h100v100H100z"/><path fill="#7b5064" d="M200 200h100v100H200z"/><path fill="#8b584c" d="M300 200h100v100H300z"/><path fill="#ab6f39" d="M400 200h100v100H400z"/><path fill="#9b6c43" d="M500 200h100v100H500z"/><path fill="#b67032" d="M600 200h100v100H600z"/><path fill="#bc7233" d="M700 200h100v100H700z"/><path fill="#8c5727" d="M0 300h100v100H0z"/><path fill="#9d5f29" d="M100 300h100v100H100z"/><path fill="#966034" d="M200 300h100v100H200z"/><path fill="#ac6d38" d="M300 300h100v100H300z"/><path fill="#874c1c" d="M400 300h100v100H400z"/><path fill="#a06633" d="M500 300h100v100H500z"/><path fill="#a26b3a" d="M600 300h100v100H600z"/><path fill="#bb6f2e" d="M700 300h100v100H700z"/><path fill="#a16531" d="M0 400h100v100H0z"/><path fill="#7d5527" d="M100 400h100v100H100z"/><path fill="#5b2f0b" d="M200 400h100v100H200z"/><path fill="#8a5c35" d="M300 400h100v100H300z"/><path fill="#847467" d="M400 400h100v100H400z"/><path fill="#8e7056" d="M500 400h100v100H500z"/><path fill="#a4764d" d="M600 400h100v100H600z"/><path fill="#67462a" d="M700 400h100v100H700z"/><path fill="#b56b37" d="M0 500h100v100H0z"/><path fill="#9f6b37" d="M100 500h100v100H100z"/><path fill="#a26a16" d="M200 500h100v100H200z"/><path fill="#a46d2c" d="M300 500h100v100H300z"/><path fill="#a8896b" d="M400 500h100v100H400z"/><path fill="#ae855d" d="M500 500h100v100H500z"/><path fill="#ad8154" d="M600 500h100v100H600z"/><path fill="#976940" d="M700 500h100v100H700z"/></svg>