<svg xmlns="http://www.w3.org/2000/svg" viewBox="0 0 800 400"><defs/><path fill="#fbf8f9" d="M0 0h100v100H0z"/><path fill="#e6d7dc" d="M100 0h100v100H100z"/><path fill="#fcfcfb" d="M200 0h100v100H200z"/><path fill="#fbebe8" d="M300 0h100v100H300z"/><path fill="#f7f1f5" d="M400 0h100v100H400z"/><path fill="#f0eaec" d="M500 0h100v100H500z"/><path fill="#f6f8f3" d="M600 0h100v100H600z"/><path fill="#8a7d7c" d="M700 0h100v100H700z"/><path fill="#d1d0d8" d="M0 100h100v100H0z"/><path fill="#c0c3cd" d="M100 100h100v100H100z"/><path fill="#fff" d="M200 100h100v100H200z"/><path fill="#fefdfe" d="M300 100h100v100H300z"/><path fill="#fff" d="M400 100h100v100H400z"/><path fill="#fbf2f7" d="M500 100h100v100H500z"/><path fill="#fff" d="M600 100h100v100H600z"/><path fill="#867675" d="M700 100h100v100H700z"/><path fill="#e9e6e9" d="M0 200h100v100H0z"/><path fill="#bbcac9" d="M100 200h100v100H100z"/><path fill="#97c5ba" d="M200 200h100v100H200z"/><path fill="#a2bdb8" d="M300 200h100v100H300z"/><path fill="#afc2bd" d="M400 200h100v100H400z"/><path fill="#9bbeb4" d="M500 200h100v100H500z"/><path fill="#a1c5bd" d="M600 200h100v100H600z"/><path fill="#666865" d="M700 200h100v100H700z"/><path fill="#ebe6e5" d="M0 300h100v100H0z"/><path fill="#7aa59a" d="M100 300h100v100H100z"/><path fill="#017857" d="M200 300h100v100H200z"/><path fill="#545c58" d="M300 300h100v100H300z"/><path fill="#844653" d="M400 300h100v100H400z"/><path fill="#0b7a5c" d="M500 300h100v100H500z"/><path fill="#13795c" d="M600 300h100v100H600z"/><path fill="#317562" d="M700 300h100v100H700z"/></svg>