<svg xmlns="http://www.w3.org/2000/svg" viewBox="0 0 800 500"><defs/><path fill="#e2e2e2" d="M0 0h100v100H0z"/><path fill="#bebebe" d="M100 0h100v100H100z"/><path fill="#ededed" d="M200 0h100v100H200z"/><path fill="#dfdfdf" d="M300 0h100v100H300z"/><path fill="#dcdcdc" d="M400 0h100v100H400z"/><path fill="#ededed" d="M500 0h100v100H500z"/><path fill="#ebebeb" d="M600 0h100v100H600z"/><path fill="#eee" d="M700 0h100v100H700z"/><path fill="#e4e4e4" d="M0 100h100v100H0z"/><path fill="#c3c3c3" d="M100 100h100v100H100z"/><path fill="#fcfcfc" d="M200 100h100v100H200z"/><path fill="#c3c3c3" d="M300 100h100v100H300z"/><path fill="#a3a3a3" d="M400 100h100v100H400z"/><path fill="#f4f4f4" d="M500 100h100v100H500z"/><path fill="#f7f7f7" d="M600 100h100v100H600z"/><path fill="#f5f5f5" d="M700 100h100v100H700z"/><path fill="#cacaca" d="M0 200h100v100H0z"/><path fill="#c9c9c9" d="M100 200h100v100H100z"/><path fill="#f2f2f2" d="M200 200h100v100H200z"/><path fill="#c5c4c4" d="M300 200h100v100H300z"/><path fill="#c4c4c4" d="M400 200h100v100H400z"/><path fill="#bebcbc" d="M500 200h100v100H500z"/><path fill="#c5bbbb" d="M600 200h100v100H600z"/><path fill="#ebebeb" d="M700 200h100v100H700z"/><path fill="#939393" d="M0 300h100v100H0z"/><path fill="#bfbfbf" d="M100 300h100v100H100z"/><path fill="#fdfdfd" d="M200 300h100v100H200z"/><path fill="#e6e6e6" d="M300 300h100v100H300z"/><path fill="#f8f8f8" d="M400 300h100v100H400z"/><path fill="#c6c5c5" d="M500 300h100v100H500z"/><path fill="#bfbdbd" d="M600 300h100v100H600z"/><path fill="#eaeaea" d="M700 300h100v100H700z"/><path fill="#c5c5c5" d="M0 400h100v100H0z"/><path fill="#e8e8e8" d="M100 400h100v100H100z"/><path fill="#fff" d="M200 400h100v100H200z"/><path fill="#fbfbfb" d="M300 400h100v100H300z"/><path fill="#fafafa" d="M400 400h100v100H400zm100 0h100v100H500z"/><path fill="#eff0f0" d="M600 400h100v100H600z"/><path fill="#e5e5e5" d="M700 400h100v100H700z"/></svg>