<svg xmlns="http://www.w3.org/2000/svg" viewBox="0 0 800 500"><defs/><path fill="#dde9d1" d="M0 0h100v100H0z"/><path fill="#daaa7d" d="M100 0h100v100H100z"/><path fill="#eabaab" d="M200 0h100v100H200z"/><path fill="#ddd0c6" d="M300 0h100v100H300z"/><path fill="#f7cec1" d="M400 0h100v100H400z"/><path fill="#c1c49a" d="M500 0h100v100H500z"/><path fill="#c0bc9a" d="M600 0h100v100H600z"/><path fill="#f6ccbe" d="M700 0h100v100H700z"/><path fill="#cedaa9" d="M0 100h100v100H0z"/><path fill="#c98a01" d="M100 100h100v100H100z"/><path fill="#a89c4b" d="M200 100h100v100H200z"/><path fill="#95c5d5" d="M300 100h100v100H300z"/><path fill="#d89562" d="M400 100h100v100H400z"/><path fill="#6eb076" d="M500 100h100v100H500z"/><path fill="#72aa90" d="M600 100h100v100H600z"/><path fill="#f2a684" d="M700 100h100v100H700z"/><path fill="#c5cda0" d="M0 200h100v100H0z"/><path fill="#d3a81c" d="M100 200h100v100H100z"/><path fill="#b5b62e" d="M200 200h100v100H200z"/><path fill="#a7bf99" d="M300 200h100v100H300z"/><path fill="#dac2a9" d="M400 200h100v100H400z"/><path fill="#98c6b3" d="M500 200h100v100H500z"/><path fill="#aac9e0" d="M600 200h100v100H600z"/><path fill="#e9b29b" d="M700 200h100v100H700z"/><path fill="#d0b479" d="M0 300h100v100H0z"/><path fill="#c79417" d="M100 300h100v100H100z"/><path fill="#cc8216" d="M200 300h100v100H200z"/><path fill="#68800a" d="M300 300h100v100H300z"/><path fill="#7fb36c" d="M400 300h100v100H400z"/><path fill="#d9dae3" d="M500 300h100v100H500z"/><path fill="#b8d0da" d="M600 300h100v100H600z"/><path fill="#e0d3c6" d="M700 300h100v100H700z"/><path fill="#ecd5bb" d="M0 400h100v100H0z"/><path fill="#d2c88a" d="M100 400h100v100H100z"/><path fill="#8cab5d" d="M200 400h100v100H200z"/><path fill="#5b9f4c" d="M300 400h100v100H300z"/><path fill="#98c38b" d="M400 400h100v100H400z"/><path fill="#e9f1f9" d="M500 400h100v100H500z"/><path fill="#c8e0e1" d="M600 400h100v100H600z"/><path fill="#e2e4d6" d="M700 400h100v100H700z"/></svg>