<svg xmlns="http://www.w3.org/2000/svg" viewBox="0 0 800 400"><defs/><path fill="#ae8569" d="M0 0h100v100H0z"/><path fill="#9f6f66" d="M100 0h100v100H100z"/><path fill="#b79586" d="M200 0h100v100H200z"/><path fill="#ae9e93" d="M300 0h100v100H300z"/><path fill="#aca196" d="M400 0h100v100H400z"/><path fill="#a59484" d="M500 0h100v100H500z"/><path fill="#997b64" d="M600 0h100v100H600z"/><path fill="#b19277" d="M700 0h100v100H700z"/><path fill="#a97962" d="M0 100h100v100H0z"/><path fill="#a37365" d="M100 100h100v100H100z"/><path fill="#b99290" d="M200 100h100v100H200z"/><path fill="#a39693" d="M300 100h100v100H300z"/><path fill="#a59995" d="M400 100h100v100H400z"/><path fill="#928273" d="M500 100h100v100H500z"/><path fill="#7f6253" d="M600 100h100v100H600z"/><path fill="#8e8d80" d="M700 100h100v100H700z"/><path fill="#ab8072" d="M0 200h100v100H0z"/><path fill="#a47566" d="M100 200h100v100H100z"/><path fill="#a77b64" d="M200 200h100v100H200z"/><path fill="#a77f6f" d="M300 200h100v100H300z"/><path fill="#b37f69" d="M400 200h100v100H400z"/><path fill="#979b9b" d="M500 200h100v100H500z"/><path fill="#93b1bb" d="M600 200h100v100H600z"/><path fill="#a69b8b" d="M700 200h100v100H700z"/><path fill="#a1736c" d="M0 300h100v100H0z"/><path fill="#a06864" d="M100 300h100v100H100z"/><path fill="#99605b" d="M200 300h100v100H200z"/><path fill="#96635f" d="M300 300h100v100H300z"/><path fill="#a65c65" d="M400 300h100v100H400z"/><path fill="#948f9c" d="M500 300h100v100H500z"/><path fill="#8cb3c7" d="M600 300h100v100H600z"/><path fill="#97a1a8" d="M700 300h100v100H700z"/></svg>