<svg xmlns="http://www.w3.org/2000/svg" viewBox="0 0 800 600"><defs/><path fill="#fff" d="M0 0h100v100H0zm100 0h100v100H100zm100 0h100v100H200zm100 0h100v100H300zm100 0h100v100H400zm100 0h100v100H500zm100 0h100v100H600z"/><path fill="#fefefe" d="M700 0h100v100H700z"/><path fill="#a3a7b0" d="M0 100h100v100H0z"/><path fill="#9da3b0" d="M100 100h100v100H100z"/><path fill="#7f8184" d="M200 100h100v100H200z"/><path fill="#5f6062" d="M300 100h100v100H300z"/><path fill="#a7acb7" d="M400 100h100v100H400z"/><path fill="#92959d" d="M500 100h100v100H500z"/><path fill="#9b9da3" d="M600 100h100v100H600z"/><path fill="#c7cad3" d="M700 100h100v100H700z"/><path fill="#7b8292" d="M0 200h100v100H0z"/><path fill="#60697b" d="M100 200h100v100H100z"/><path fill="#5d626d" d="M200 200h100v100H200z"/><path fill="#4c5363" d="M300 200h100v100H300z"/><path fill="#767d8f" d="M400 200h100v100H400z"/><path fill="#757c8d" d="M500 200h100v100H500z"/><path fill="#747882" d="M600 200h100v100H600z"/><path fill="#575a62" d="M700 200h100v100H700z"/><path fill="#8d95a5" d="M0 300h100v100H0z"/><path fill="#5b6372" d="M100 300h100v100H100z"/><path fill="#878b98" d="M200 300h100v100H200z"/><path fill="#898d98" d="M300 300h100v100H300z"/><path fill="#8a8d98" d="M400 300h100v100H400z"/><path fill="#9297a3" d="M500 300h100v100H500z"/><path fill="#818897" d="M600 300h100v100H600z"/><path fill="#4d5056" d="M700 300h100v100H700z"/><path fill="#6c7586" d="M0 400h100v100H0z"/><path fill="#7b8293" d="M100 400h100v100H100z"/><path fill="#858a97" d="M200 400h100v100H200z"/><path fill="#757983" d="M300 400h100v100H300z"/><path fill="#7c818c" d="M400 400h100v100H400z"/><path fill="#7e8390" d="M500 400h100v100H500z"/><path fill="#878c9b" d="M600 400h100v100H600z"/><path fill="#797f8d" d="M700 400h100v100H700z"/><path fill="#c3c5cb" d="M0 500h100v100H0z"/><path fill="#d5d7de" d="M100 500h100v100H100z"/><path fill="#cfd0d6" d="M200 500h100v100H200z"/><path fill="#c9cbcf" d="M300 500h100v100H300z"/><path fill="#c9cbd0" d="M400 500h100v100H400z"/><path fill="#cbcdd2" d="M500 500h100v100H500z"/><path fill="#d1d2d8" d="M600 500h100v100H600z"/><path fill="#cdcfd5" d="M700 500h100v100H700z"/></svg>