<svg xmlns="http://www.w3.org/2000/svg" viewBox="0 0 800 500"><defs/><path fill="#d4867e" d="M0 0h100v100H0z"/><path fill="#b9776d" d="M100 0h100v100H100z"/><path fill="#c0897a" d="M200 0h100v100H200z"/><path fill="#d8c3ba" d="M300 0h100v100H300z"/><path fill="#cda49c" d="M400 0h100v100H400z"/><path fill="#c89e97" d="M500 0h100v100H500z"/><path fill="#d1897f" d="M600 0h100v100H600z"/><path fill="#a67169" d="M700 0h100v100H700z"/><path fill="#cf827a" d="M0 100h100v100H0z"/><path fill="#a67a66" d="M100 100h100v100H100z"/><path fill="#8c7f6c" d="M200 100h100v100H200z"/><path fill="#a38682" d="M300 100h100v100H300z"/><path fill="#9f8980" d="M400 100h100v100H400z"/><path fill="#bc8471" d="M500 100h100v100H500z"/><path fill="#bc8b7a" d="M600 100h100v100H600z"/><path fill="#9f7067" d="M700 100h100v100H700z"/><path fill="#b78474" d="M0 200h100v100H0z"/><path fill="#a58871" d="M100 200h100v100H100z"/><path fill="#c9867c" d="M200 200h100v100H200z"/><path fill="#70555f" d="M300 200h100v100H300z"/><path fill="#6e6355" d="M400 200h100v100H400z"/><path fill="#847c63" d="M500 200h100v100H500z"/><path fill="#c69c96" d="M600 200h100v100H600z"/><path fill="#af837e" d="M700 200h100v100H700z"/><path fill="#ba9d96" d="M0 300h100v100H0z"/><path fill="#bfa9a1" d="M100 300h100v100H100z"/><path fill="#a1a6a2" d="M200 300h100v100H200z"/><path fill="#7692ab" d="M300 300h100v100H300z"/><path fill="#a0a6a0" d="M400 300h100v100H400z"/><path fill="#a1928b" d="M500 300h100v100H500z"/><path fill="#b6988a" d="M600 300h100v100H600z"/><path fill="#c3b2b2" d="M700 300h100v100H700z"/><path fill="#c0a6a3" d="M0 400h100v100H0z"/><path fill="#bba9a5" d="M100 400h100v100H100z"/><path fill="#5b909c" d="M200 400h100v100H200z"/><path fill="#57949f" d="M300 400h100v100H300z"/><path fill="#7c9fab" d="M400 400h100v100H400z"/><path fill="#b29ca4" d="M500 400h100v100H500z"/><path fill="#c9ada7" d="M600 400h100v100H600z"/><path fill="#89989f" d="M700 400h100v100H700z"/></svg>