<svg xmlns="http://www.w3.org/2000/svg" viewBox="0 0 800 400"><defs/><path fill="#ba9c51" d="M0 0h100v100H0z"/><path fill="#737e76" d="M100 0h100v100H100z"/><path fill="#8898b8" d="M200 0h100v100H200z"/><path fill="#7888a7" d="M300 0h100v100H300z"/><path fill="#6981a4" d="M400 0h100v100H400z"/><path fill="#59638e" d="M500 0h100v100H500z"/><path fill="#a49bbd" d="M600 0h100v100H600z"/><path fill="#b1aea9" d="M700 0h100v100H700z"/><path fill="#b39652" d="M0 100h100v100H0z"/><path fill="#70737a" d="M100 100h100v100H100z"/><path fill="#8990ac" d="M200 100h100v100H200z"/><path fill="#596e97" d="M300 100h100v100H300z"/><path fill="#40479a" d="M400 100h100v100H400z"/><path fill="#585f8f" d="M500 100h100v100H500z"/><path fill="#988ead" d="M600 100h100v100H600z"/><path fill="#8c8ca5" d="M700 100h100v100H700z"/><path fill="#a59159" d="M0 200h100v100H0z"/><path fill="#646d7f" d="M100 200h100v100H100z"/><path fill="#956ca5" d="M200 200h100v100H200z"/><path fill="#6b6f89" d="M300 200h100v100H300z"/><path fill="#4a679a" d="M400 200h100v100H400z"/><path fill="#606f80" d="M500 200h100v100H500z"/><path fill="#7f7c9e" d="M600 200h100v100H600z"/><path fill="#9495aa" d="M700 200h100v100H700z"/><path fill="#748380" d="M0 300h100v100H0z"/><path fill="#696893" d="M100 300h100v100H100z"/><path fill="#8d659b" d="M200 300h100v100H200z"/><path fill="#8d6d6a" d="M300 300h100v100H300z"/><path fill="#a58c73" d="M400 300h100v100H400z"/><path fill="#8d7180" d="M500 300h100v100H500z"/><path fill="#9b7b91" d="M600 300h100v100H600z"/><path fill="#9c8186" d="M700 300h100v100H700z"/></svg>