<svg xmlns="http://www.w3.org/2000/svg" viewBox="0 0 800 400"><defs/><path fill="#38dbcb" d="M0 0h100v100H0z"/><path fill="#28cdb0" d="M100 0h100v100H100z"/><path fill="#22c9a9" d="M200 0h100v100H200z"/><path fill="#25ccad" d="M300 0h100v100H300z"/><path fill="#24caab" d="M400 0h100v100H400z"/><path fill="#25caac" d="M500 0h100v100H500z"/><path fill="#27cdb1" d="M600 0h100v100H600z"/><path fill="#2cd8c6" d="M700 0h100v100H700z"/><path fill="#2fd8c9" d="M0 100h100v100H0z"/><path fill="#36d0b7" d="M100 100h100v100H100z"/><path fill="#29c8a8" d="M200 100h100v100H200z"/><path fill="#25caac" d="M300 100h100v100H300z"/><path fill="#2dccb0" d="M400 100h100v100H400z"/><path fill="#2ac9ac" d="M500 100h100v100H500z"/><path fill="#26ccb0" d="M600 100h100v100H600z"/><path fill="#2cd9c7" d="M700 100h100v100H700z"/><path fill="#2bd7c6" d="M0 200h100v100H0z"/><path fill="#2aceb4" d="M100 200h100v100H100z"/><path fill="#32ceb2" d="M200 200h100v100H200z"/><path fill="#2dcaad" d="M300 200h100v100H300z"/><path fill="#33cdb2" d="M400 200h100v100H400z"/><path fill="#29ccad" d="M500 200h100v100H500z"/><path fill="#2cceb3" d="M600 200h100v100H600z"/><path fill="#2cd7c4" d="M700 200h100v100H700z"/><path fill="#2ad3be" d="M0 300h100v100H0z"/><path fill="#28d1b9" d="M100 300h100v100H100z"/><path fill="#26cdb1" d="M200 300h100v100H200z"/><path fill="#2bcbae" d="M300 300h100v100H300z"/><path fill="#29ceb2" d="M400 300h100v100H400z"/><path fill="#2dcfb3" d="M500 300h100v100H500z"/><path fill="#2bd0b7" d="M600 300h100v100H600z"/><path fill="#2ad2be" d="M700 300h100v100H700z"/></svg>