<svg xmlns="http://www.w3.org/2000/svg" viewBox="0 0 800 600"><defs/><path fill="#cac5ba" d="M0 0h100v100H0z"/><path fill="#e3ded9" d="M100 0h100v100H100z"/><path fill="#edefee" d="M200 0h100v100H200z"/><path fill="#e8e9e9" d="M300 0h100v100H300z"/><path fill="#d3d7d5" d="M400 0h100v100H400z"/><path fill="#d4dad6" d="M500 0h100v100H500z"/><path fill="#ededed" d="M600 0h100v100H600z"/><path fill="#ebebea" d="M700 0h100v100H700z"/><path fill="#7e765f" d="M0 100h100v100H0z"/><path fill="#837861" d="M100 100h100v100H100z"/><path fill="#a69991" d="M200 100h100v100H200z"/><path fill="#a4958b" d="M300 100h100v100H300z"/><path fill="#b4c2b9" d="M400 100h100v100H400z"/><path fill="#abb0b6" d="M500 100h100v100H500z"/><path fill="#869390" d="M600 100h100v100H600z"/><path fill="#929c94" d="M700 100h100v100H700z"/><path fill="#808d7c" d="M0 200h100v100H0z"/><path fill="#7b8772" d="M100 200h100v100H100z"/><path fill="#a0928a" d="M200 200h100v100H200z"/><path fill="#87aaac" d="M300 200h100v100H300z"/><path fill="#7b8c7b" d="M400 200h100v100H400z"/><path fill="#7f7e6f" d="M500 200h100v100H500z"/><path fill="#797864" d="M600 200h100v100H600z"/><path fill="#717673" d="M700 200h100v100H700z"/><path fill="#778a84" d="M0 300h100v100H0z"/><path fill="#6d827a" d="M100 300h100v100H100z"/><path fill="#b3ada7" d="M200 300h100v100H200z"/><path fill="#c0c6c5" d="M300 300h100v100H300z"/><path fill="#798376" d="M400 300h100v100H400z"/><path fill="#6d6e5b" d="M500 300h100v100H500z"/><path fill="#746b53" d="M600 300h100v100H600z"/><path fill="#9c714f" d="M700 300h100v100H700z"/><path fill="#a4a0a1" d="M0 400h100v100H0z"/><path fill="#a4a1a1" d="M100 400h100v100H100z"/><path fill="#a09c9d" d="M200 400h100v100H200z"/><path fill="#a59e9e" d="M300 400h100v100H300z"/><path fill="#9f9b9b" d="M400 400h100v100H400z"/><path fill="#988d88" d="M500 400h100v100H500z"/><path fill="#948884" d="M600 400h100v100H600z"/><path fill="#a08b80" d="M700 400h100v100H700z"/><path fill="#f1f1f1" d="M0 500h100v100H0z"/><path fill="#f5f4f4" d="M100 500h100v100H100z"/><path fill="#efeeee" d="M200 500h100v100H200z"/><path fill="#e7e7e7" d="M300 500h100v100H300z"/><path fill="#e9e9e9" d="M400 500h100v100H400z"/><path fill="#eaebed" d="M500 500h100v100H500z"/><path fill="#f1f2f4" d="M600 500h100v100H600z"/><path fill="#e6e9ed" d="M700 500h100v100H700z"/></svg>