<svg xmlns="http://www.w3.org/2000/svg" viewBox="0 0 800 500"><defs/><path fill="#f9eadb" d="M0 0h100v100H0z"/><path fill="#f2ddcd" d="M100 0h100v100H100z"/><path fill="#f9ebde" d="M200 0h100v100H200z"/><path fill="#fcf8f1" d="M300 0h100v100H300z"/><path fill="#fbf9f6" d="M400 0h100v100H400z"/><path fill="#fbf8f4" d="M500 0h100v100H500z"/><path fill="#fcf6ec" d="M600 0h100v100H600z"/><path fill="#fbf1e3" d="M700 0h100v100H700z"/><path fill="#e6a66c" d="M0 100h100v100H0z"/><path fill="#d1833f" d="M100 100h100v100H100z"/><path fill="#eec190" d="M200 100h100v100H200z"/><path fill="#fbeacf" d="M300 100h100v100H300z"/><path fill="#f9f0e5" d="M400 100h100v100H400z"/><path fill="#faf4f0" d="M500 100h100v100H500z"/><path fill="#f3dbba" d="M600 100h100v100H600z"/><path fill="#efcd99" d="M700 100h100v100H700z"/><path fill="#e4a570" d="M0 200h100v100H0z"/><path fill="#db9e5b" d="M100 200h100v100H100z"/><path fill="#f6dcb0" d="M200 200h100v100H200z"/><path fill="#faebd7" d="M300 200h100v100H300z"/><path fill="#fbecd7" d="M400 200h100v100H400z"/><path fill="#f6e7d4" d="M500 200h100v100H500z"/><path fill="#efd7b6" d="M600 200h100v100H600z"/><path fill="#f0ce9a" d="M700 200h100v100H700z"/><path fill="#dc9960" d="M0 300h100v100H0z"/><path fill="#e1ae6e" d="M100 300h100v100H100z"/><path fill="#e6c598" d="M200 300h100v100H200z"/><path fill="#e0b887" d="M300 300h100v100H300z"/><path fill="#fbe5c6" d="M400 300h100v100H400z"/><path fill="#f7deb9" d="M500 300h100v100H500z"/><path fill="#d7b283" d="M600 300h100v100H600z"/><path fill="#e4c290" d="M700 300h100v100H700z"/><path fill="#e3b68f" d="M0 400h100v100H0z"/><path fill="#ebc89d" d="M100 400h100v100H100z"/><path fill="#e9cba7" d="M200 400h100v100H200z"/><path fill="#e9c8a2" d="M300 400h100v100H300z"/><path fill="#f5e0c3" d="M400 400h100v100H400z"/><path fill="#efddc5" d="M500 400h100v100H500z"/><path fill="#e0c7a8" d="M600 400h100v100H600z"/><path fill="#ebd4b5" d="M700 400h100v100H700z"/></svg>