<svg xmlns="http://www.w3.org/2000/svg" viewBox="0 0 800 500"><defs/><path fill="#908378" d="M0 0h100v100H0z"/><path fill="#81736c" d="M100 0h100v100H100z"/><path fill="#7a6967" d="M200 0h100v100H200z"/><path fill="#6d6660" d="M300 0h100v100H300z"/><path fill="#615451" d="M400 0h100v100H400z"/><path fill="#685b56" d="M500 0h100v100H500z"/><path fill="#5c6252" d="M600 0h100v100H600z"/><path fill="#445e73" d="M700 0h100v100H700z"/><path fill="#afa08e" d="M0 100h100v100H0z"/><path fill="#9b8b7d" d="M100 100h100v100H100z"/><path fill="#97887d" d="M200 100h100v100H200z"/><path fill="#7d7368" d="M300 100h100v100H300z"/><path fill="#695850" d="M400 100h100v100H400z"/><path fill="#6f6056" d="M500 100h100v100H500z"/><path fill="#4c5847" d="M600 100h100v100H600z"/><path fill="#37515d" d="M700 100h100v100H700z"/><path fill="#ab9c94" d="M0 200h100v100H0z"/><path fill="#b39081" d="M100 200h100v100H100z"/><path fill="#c7b6a1" d="M200 200h100v100H200z"/><path fill="#baa191" d="M300 200h100v100H300z"/><path fill="#a89186" d="M400 200h100v100H400z"/><path fill="#a68d82" d="M500 200h100v100H500z"/><path fill="#606d5c" d="M600 200h100v100H600z"/><path fill="#415352" d="M700 200h100v100H700z"/><path fill="#b7a69a" d="M0 300h100v100H0z"/><path fill="#9ba59f" d="M100 300h100v100H100z"/><path fill="#c1b7a4" d="M200 300h100v100H200z"/><path fill="#e6c2a8" d="M300 300h100v100H300z"/><path fill="#e1bea8" d="M400 300h100v100H400z"/><path fill="#dcb6a5" d="M500 300h100v100H500z"/><path fill="#c6ba94" d="M600 300h100v100H600z"/><path fill="#8c8764" d="M700 300h100v100H700z"/><path fill="#ccbaa1" d="M0 400h100v100H0z"/><path fill="#d3c3ac" d="M100 400h100v100H100z"/><path fill="#dbc8ad" d="M200 400h100v100H200z"/><path fill="#e1cdb0" d="M300 400h100v100H300z"/><path fill="#e3ceb5" d="M400 400h100v100H400z"/><path fill="#e4ceb4" d="M500 400h100v100H500z"/><path fill="#edd7b5" d="M600 400h100v100H600z"/><path fill="#ccb89d" d="M700 400h100v100H700z"/></svg>