<svg xmlns="http://www.w3.org/2000/svg" viewBox="0 0 800 600"><defs/><path fill="#fdfbf6" d="M0 0h100v100H0z"/><path fill="#e9e9e9" d="M100 0h100v100H100z"/><path fill="#deeaf2" d="M200 0h100v100H200z"/><path fill="#dce9f1" d="M300 0h100v100H300z"/><path fill="#d7e5ee" d="M400 0h100v100H400z"/><path fill="#dbeaf4" d="M500 0h100v100H500z"/><path fill="#dce5ec" d="M600 0h100v100H600z"/><path fill="#fdfdfc" d="M700 0h100v100H700z"/><path fill="#f6e9d4" d="M0 100h100v100H0z"/><path fill="#72736f" d="M100 100h100v100H100z"/><path fill="#334e5f" d="M200 100h100v100H200z"/><path fill="#2e4a5d" d="M300 100h100v100H300z"/><path fill="#34556c" d="M400 100h100v100H400z"/><path fill="#2b5269" d="M500 100h100v100H500z"/><path fill="#314c51" d="M600 100h100v100H600z"/><path fill="#e2dcd2" d="M700 100h100v100H700z"/><path fill="#f7e8d7" d="M0 200h100v100H0z"/><path fill="#576255" d="M100 200h100v100H100z"/><path fill="#00150e" d="M200 200h100v100H200z"/><path fill="#334f4e" d="M300 200h100v100H300z"/><path fill="#4c6772" d="M400 200h100v100H400z"/><path fill="#13231e" d="M500 200h100v100H500z"/><path fill="#2a4233" d="M600 200h100v100H600z"/><path fill="#c3c1b4" d="M700 200h100v100H700z"/><path fill="#e4d7cf" d="M0 300h100v100H0z"/><path fill="#77756b" d="M100 300h100v100H100z"/><path fill="#6f8077" d="M200 300h100v100H200z"/><path fill="#8d938e" d="M300 300h100v100H300z"/><path fill="#9ea392" d="M400 300h100v100H400z"/><path fill="#5b7676" d="M500 300h100v100H500z"/><path fill="#8b9588" d="M600 300h100v100H600z"/><path fill="#e1dacb" d="M700 300h100v100H700z"/><path fill="#cec2ba" d="M0 400h100v100H0z"/><path fill="#d1c4bb" d="M100 400h100v100H100z"/><path fill="#fffff6" d="M200 400h100v100H200z"/><path fill="#d8d3c1" d="M300 400h100v100H300z"/><path fill="#ccc8ac" d="M400 400h100v100H400z"/><path fill="#e3e3d4" d="M500 400h100v100H500z"/><path fill="#ecdac9" d="M600 400h100v100H600z"/><path fill="#ecdecb" d="M700 400h100v100H700z"/><path fill="#fdfcfa" d="M0 500h100v100H0z"/><path fill="#fffefd" d="M100 500h100v100H100z"/><path fill="#f7f5f3" d="M200 500h100v100H200z"/><path fill="#f1f3ed" d="M300 500h100v100H300z"/><path fill="#f6f8f3" d="M400 500h100v100H400z"/><path fill="#f1f0e9" d="M500 500h100v100H500z"/><path fill="#ece5e0" d="M600 500h100v100H600z"/><path fill="#f7f5f0" d="M700 500h100v100H700z"/></svg>