<svg xmlns="http://www.w3.org/2000/svg" viewBox="0 0 800 500"><defs/><path fill="#ece6d7" d="M0 0h100v100H0z"/><path fill="#c3b4a6" d="M100 0h100v100H100z"/><path fill="#b1b1bd" d="M200 0h100v100H200z"/><path fill="#b0bcd2" d="M300 0h100v100H300z"/><path fill="#aeb6c9" d="M400 0h100v100H400z"/><path fill="#bfc5d5" d="M500 0h100v100H500z"/><path fill="#bbc4d1" d="M600 0h100v100H600z"/><path fill="#d5c3c5" d="M700 0h100v100H700z"/><path fill="#eae4d8" d="M0 100h100v100H0z"/><path fill="#7f6050" d="M100 100h100v100H100z"/><path fill="#2c4690" d="M200 100h100v100H200z"/><path fill="#1d57c9" d="M300 100h100v100H300z"/><path fill="#2155be" d="M400 100h100v100H400z"/><path fill="#2355b9" d="M500 100h100v100H500z"/><path fill="#29507f" d="M600 100h100v100H600z"/><path fill="#97475e" d="M700 100h100v100H700z"/><path fill="#b9b1a9" d="M0 200h100v100H0z"/><path fill="#715958" d="M100 200h100v100H100z"/><path fill="#2555b2" d="M200 200h100v100H200z"/><path fill="#1c4ca8" d="M300 200h100v100H300z"/><path fill="#0c46ba" d="M400 200h100v100H400z"/><path fill="#0945ba" d="M500 200h100v100H500z"/><path fill="#0042b4" d="M600 200h100v100H600z"/><path fill="#874564" d="M700 200h100v100H700z"/><path fill="#beb8b1" d="M0 300h100v100H0z"/><path fill="#674747" d="M100 300h100v100H100z"/><path fill="#905977" d="M200 300h100v100H200z"/><path fill="#a15c5b" d="M300 300h100v100H300z"/><path fill="#805a86" d="M400 300h100v100H400z"/><path fill="#744c7c" d="M500 300h100v100H500z"/><path fill="#704e6f" d="M600 300h100v100H600z"/><path fill="#a9494a" d="M700 300h100v100H700z"/><path fill="#aca098" d="M0 400h100v100H0z"/><path fill="#a2493b" d="M100 400h100v100H100z"/><path fill="#fe6354" d="M200 400h100v100H200z"/><path fill="#d8908d" d="M300 400h100v100H300z"/><path fill="#d79e97" d="M400 400h100v100H400z"/><path fill="#c86e67" d="M500 400h100v100H500z"/><path fill="#a35e65" d="M600 400h100v100H600z"/><path fill="#b34541" d="M700 400h100v100H700z"/></svg>