<svg xmlns="http://www.w3.org/2000/svg" viewBox="0 0 800 800"><defs/><path fill="#061cc7" d="M0 0h100v100H0z"/><path fill="#0319cb" d="M100 0h100v100H100z"/><path fill="#213cd9" d="M200 0h100v100H200z"/><path fill="#362bb4" d="M300 0h100v100H300z"/><path fill="#3e34b3" d="M400 0h100v100H400z"/><path fill="#2d46d5" d="M500 0h100v100H500z"/><path fill="#0a1ec2" d="M600 0h100v100H600z"/><path fill="#0319ba" d="M700 0h100v100H700z"/><path fill="#0016c2" d="M0 100h100v100H0z"/><path fill="#172bcd" d="M100 100h100v100H100z"/><path fill="#819fda" d="M200 100h100v100H200z"/><path fill="#9b97ab" d="M300 100h100v100H300z"/><path fill="#e8c9c1" d="M400 100h100v100H400z"/><path fill="#9b8fa6" d="M500 100h100v100H500z"/><path fill="#192cbb" d="M600 100h100v100H600z"/><path fill="#0015bf" d="M700 100h100v100H700z"/><path fill="#000fb7" d="M0 200h100v100H0z"/><path fill="#96abe9" d="M100 200h100v100H100z"/><path fill="#dcecea" d="M200 200h100v100H200z"/><path fill="#b6b7c2" d="M300 200h100v100H300z"/><path fill="#cab9c3" d="M400 200h100v100H400z"/><path fill="#9f8b91" d="M500 200h100v100H500z"/><path fill="#90a1cb" d="M600 200h100v100H600z"/><path fill="#0d25ca" d="M700 200h100v100H700z"/><path fill="#1a31bc" d="M0 300h100v100H0z"/><path fill="#e0f3fc" d="M100 300h100v100H100z"/><path fill="#ecf9f8" d="M200 300h100v100H200z"/><path fill="#e6d8dd" d="M300 300h100v100H300z"/><path fill="#c8a9b2" d="M400 300h100v100H400z"/><path fill="#8e6a84" d="M500 300h100v100H500z"/><path fill="#d2dce3" d="M600 300h100v100H600z"/><path fill="#445ad6" d="M700 300h100v100H700z"/><path fill="#485cc8" d="M0 400h100v100H0z"/><path fill="#e5fcfe" d="M100 400h100v100H100z"/><path fill="#e4f1f6" d="M200 400h100v100H200z"/><path fill="#dfdfe0" d="M300 400h100v100H300z"/><path fill="#c49fb0" d="M400 400h100v100H400z"/><path fill="#92788d" d="M500 400h100v100H500z"/><path fill="#cbe0ea" d="M600 400h100v100H600z"/><path fill="#6d7fd5" d="M700 400h100v100H700z"/><path fill="#2439c0" d="M0 500h100v100H0z"/><path fill="#bac7e4" d="M100 500h100v100H100z"/><path fill="#e9abba" d="M200 500h100v100H200z"/><path fill="#d6a9ac" d="M300 500h100v100H300z"/><path fill="#ae9a9f" d="M400 500h100v100H400z"/><path fill="#9f2e4b" d="M500 500h100v100H500z"/><path fill="#b78eab" d="M600 500h100v100H600z"/><path fill="#4d67cf" d="M700 500h100v100H700z"/><path fill="#0b23c2" d="M0 600h100v100H0z"/><path fill="#575abd" d="M100 600h100v100H100z"/><path fill="#756b8b" d="M200 600h100v100H200z"/><path fill="#da4141" d="M300 600h100v100H300z"/><path fill="#dc2e2a" d="M400 600h100v100H400z"/><path fill="#c91326" d="M500 600h100v100H500z"/><path fill="#784093" d="M600 600h100v100H600z"/><path fill="#0f30d5" d="M700 600h100v100H700z"/><path fill="#0015b0" d="M0 700h100v100H0z"/><path fill="#162cb8" d="M100 700h100v100H100z"/><path fill="#3a48b5" d="M200 700h100v100H200z"/><path fill="#72458e" d="M300 700h100v100H300z"/><path fill="#7d428d" d="M400 700h100v100H400z"/><path fill="#4d4dbc" d="M500 700h100v100H500z"/><path fill="#1634cf" d="M600 700h100v100H600z"/><path fill="#0217c5" d="M700 700h100v100H700z"/></svg>