<svg xmlns="http://www.w3.org/2000/svg" viewBox="0 0 800 500"><defs/><path fill="#dee4f2" d="M0 0h100v100H0z"/><path fill="#dddcd5" d="M100 0h100v100H100z"/><path fill="#dfe9f2" d="M200 0h100v100H200z"/><path fill="#e3ebf4" d="M300 0h100v100H300z"/><path fill="#e7f1fc" d="M400 0h100v100H400z"/><path fill="#e6eff6" d="M500 0h100v100H500z"/><path fill="#e8ebf0" d="M600 0h100v100H600z"/><path fill="#e8edf4" d="M700 0h100v100H700z"/><path fill="#f3f3e8" d="M0 100h100v100H0z"/><path fill="#eddda7" d="M100 100h100v100H100z"/><path fill="#ccb4af" d="M200 100h100v100H200z"/><path fill="#b89688" d="M300 100h100v100H300z"/><path fill="#c6a3a5" d="M400 100h100v100H400z"/><path fill="#b9a293" d="M500 100h100v100H500z"/><path fill="#ece8e1" d="M600 100h100v100H600z"/><path fill="#f8fbfa" d="M700 100h100v100H700z"/><path fill="#f1ead1" d="M0 200h100v100H0z"/><path fill="#e7d7af" d="M100 200h100v100H100z"/><path fill="#9d5368" d="M200 200h100v100H200z"/><path fill="#8c2236" d="M300 200h100v100H300z"/><path fill="#842733" d="M400 200h100v100H400z"/><path fill="#9b3e52" d="M500 200h100v100H500z"/><path fill="#ead0e8" d="M600 200h100v100H600z"/><path fill="#f6f2fc" d="M700 200h100v100H700z"/><path fill="#eddec0" d="M0 300h100v100H0z"/><path fill="#e7d595" d="M100 300h100v100H100z"/><path fill="#e7bc5d" d="M200 300h100v100H200z"/><path fill="#e0bc4e" d="M300 300h100v100H300z"/><path fill="#e3b150" d="M400 300h100v100H400z"/><path fill="#d9b557" d="M500 300h100v100H500z"/><path fill="#edbc7f" d="M600 300h100v100H600z"/><path fill="#f3cdd3" d="M700 300h100v100H700z"/><path fill="#ecebe3" d="M0 400h100v100H0z"/><path fill="#eee9c6" d="M100 400h100v100H100z"/><path fill="#f5f2a4" d="M200 400h100v100H200z"/><path fill="#e5e6a8" d="M300 400h100v100H300z"/><path fill="#f5e5aa" d="M400 400h100v100H400z"/><path fill="#f7f2a7" d="M500 400h100v100H500z"/><path fill="#f6ebaa" d="M600 400h100v100H600z"/><path fill="#f3f8cf" d="M700 400h100v100H700z"/></svg>