<svg xmlns="http://www.w3.org/2000/svg" viewBox="0 0 800 600"><defs/><path fill="#fffefe" d="M0 0h100v100H0z"/><path fill="#fbf9f5" d="M100 0h100v100H100z"/><path fill="#fdfcfc" d="M200 0h100v100H200z"/><path fill="#fff" d="M300 0h100v100H300z"/><path fill="#fffddb" d="M400 0h100v100H400z"/><path fill="#fffff3" d="M500 0h100v100H500z"/><path fill="#fdfdff" d="M600 0h100v100H600z"/><path fill="#fefdfd" d="M700 0h100v100H700z"/><path fill="#f9e9dd" d="M0 100h100v100H0z"/><path fill="#e8d8c4" d="M100 100h100v100H100z"/><path fill="#f7fefa" d="M200 100h100v100H200z"/><path fill="#f6dde1" d="M300 100h100v100H300z"/><path fill="#c793af" d="M400 100h100v100H400z"/><path fill="#e8b8c5" d="M500 100h100v100H500z"/><path fill="#fcfffa" d="M600 100h100v100H600z"/><path fill="#fbfbfa" d="M700 100h100v100H700z"/><path fill="#f5dfce" d="M0 200h100v100H0z"/><path fill="#ebdcc5" d="M100 200h100v100H100z"/><path fill="#f7f7f9" d="M200 200h100v100H200z"/><path fill="#f8e9eb" d="M300 200h100v100H300z"/><path fill="#e3b9c2" d="M400 200h100v100H400z"/><path fill="#f2d3d8" d="M500 200h100v100H500z"/><path fill="#f8f2f4" d="M600 200h100v100H600z"/><path fill="#f8f1ea" d="M700 200h100v100H700z"/><path fill="#f7e3d7" d="M0 300h100v100H0z"/><path fill="#e7e1cf" d="M100 300h100v100H100z"/><path fill="#e1efe2" d="M200 300h100v100H200z"/><path fill="#d9d5bb" d="M300 300h100v100H300z"/><path fill="#e7e1d4" d="M400 300h100v100H400z"/><path fill="#dfd4b8" d="M500 300h100v100H500z"/><path fill="#ceead2" d="M600 300h100v100H600z"/><path fill="#f5fdf4" d="M700 300h100v100H700z"/><path fill="#ecdbcb" d="M0 400h100v100H0z"/><path fill="#adcdb3" d="M100 400h100v100H100z"/><path fill="#b9ab88" d="M200 400h100v100H200z"/><path fill="#a8d7a6" d="M300 400h100v100H300z"/><path fill="#9bf5be" d="M400 400h100v100H400z"/><path fill="#a6f1bb" d="M500 400h100v100H500z"/><path fill="#a8bf8f" d="M600 400h100v100H600z"/><path fill="#cca89d" d="M700 400h100v100H700z"/><path fill="#dff2e1" d="M0 500h100v100H0z"/><path fill="#cde7d0" d="M100 500h100v100H100z"/><path fill="#e3d6c3" d="M200 500h100v100H200z"/><path fill="#cef6dc" d="M300 500h100v100H300z"/><path fill="#c6f2d5" d="M400 500h100v100H400z"/><path fill="#d1fce1" d="M500 500h100v100H500z"/><path fill="#d5dac7" d="M600 500h100v100H600z"/><path fill="#d9ccbf" d="M700 500h100v100H700z"/></svg>