<svg xmlns="http://www.w3.org/2000/svg" viewBox="0 0 800 400"><defs/><path fill="#7abba5" d="M0 0h100v100H0z"/><path fill="#33a385" d="M100 0h100v100H100z"/><path fill="#54b2ae" d="M200 0h100v100H200z"/><path fill="#8c8a88" d="M300 0h100v100H300z"/><path fill="#c0685f" d="M400 0h100v100H400z"/><path fill="#817b8c" d="M500 0h100v100H500z"/><path fill="#92828d" d="M600 0h100v100H600z"/><path fill="#c5b3bd" d="M700 0h100v100H700z"/><path fill="#bec5c1" d="M0 100h100v100H0z"/><path fill="#53a19c" d="M100 100h100v100H100z"/><path fill="#b0a18f" d="M200 100h100v100H200z"/><path fill="#af7c71" d="M300 100h100v100H300z"/><path fill="#a35c62" d="M400 100h100v100H400z"/><path fill="#ae5653" d="M500 100h100v100H500z"/><path fill="#8a6471" d="M600 100h100v100H600z"/><path fill="#c0a8a9" d="M700 100h100v100H700z"/><path fill="#b3cbce" d="M0 200h100v100H0z"/><path fill="#9ec2c9" d="M100 200h100v100H100z"/><path fill="#bebfc1" d="M200 200h100v100H200z"/><path fill="#bbb7ba" d="M300 200h100v100H300z"/><path fill="#aeb0bc" d="M400 200h100v100H400z"/><path fill="#c5b6ba" d="M500 200h100v100H500z"/><path fill="#bfafb5" d="M600 200h100v100H600z"/><path fill="#c2b7bc" d="M700 200h100v100H700z"/><path fill="#acc4c3" d="M0 300h100v100H0z"/><path fill="#dbe1e8" d="M100 300h100v100H100z"/><path fill="#dde3e9" d="M200 300h100v100H200z"/><path fill="#e8edef" d="M300 300h100v100H300z"/><path fill="#dfe4e8" d="M400 300h100v100H400z"/><path fill="#e1e8ed" d="M500 300h100v100H500z"/><path fill="#dee0e2" d="M600 300h100v100H600z"/><path fill="#db799b" d="M700 300h100v100H700z"/></svg>