<svg xmlns="http://www.w3.org/2000/svg" viewBox="0 0 800 800"><defs/><path fill="#fff" d="M0 0h100v100H0zm100 0h100v100H100zm100 0h100v100H200zm100 0h100v100H300zm100 0h100v100H400z"/><path fill="#fffefe" d="M500 0h100v100H500z"/><path fill="#fff" d="M600 0h100v100H600zm100 0h100v100H700z"/><path fill="#fafafa" d="M0 100h100v100H0z"/><path fill="#f4f2f1" d="M100 100h100v100H100z"/><path fill="#fbfbfa" d="M200 100h100v100H200z"/><path fill="#fbfdfd" d="M300 100h100v100H300z"/><path fill="#fafbfb" d="M400 100h100v100H400z"/><path fill="#fefdfd" d="M500 100h100v100H500z"/><path fill="#fdffff" d="M600 100h100v100H600z"/><path fill="#fbfcfc" d="M700 100h100v100H700z"/><path fill="#dfe0e0" d="M0 200h100v100H0z"/><path fill="#887f77" d="M100 200h100v100H100z"/><path fill="#b7b1b1" d="M200 200h100v100H200z"/><path fill="#dcd4cb" d="M300 200h100v100H300z"/><path fill="#e0d7ce" d="M400 200h100v100H400z"/><path fill="#b6a5a0" d="M500 200h100v100H500z"/><path fill="#b5a49b" d="M600 200h100v100H600z"/><path fill="#cbc5c2" d="M700 200h100v100H700z"/><path fill="#d9d8d6" d="M0 300h100v100H0z"/><path fill="#7f746b" d="M100 300h100v100H100z"/><path fill="#aebbbb" d="M200 300h100v100H200z"/><path fill="#84abab" d="M300 300h100v100H300z"/><path fill="#91b9b5" d="M400 300h100v100H400z"/><path fill="#786a53" d="M500 300h100v100H500z"/><path fill="#776866" d="M600 300h100v100H600z"/><path fill="#a19da1" d="M700 300h100v100H700z"/><path fill="#c0bab5" d="M0 400h100v100H0z"/><path fill="#6b5643" d="M100 400h100v100H100z"/><path fill="#85817d" d="M200 400h100v100H200z"/><path fill="#365757" d="M300 400h100v100H300z"/><path fill="#5f6766" d="M400 400h100v100H400z"/><path fill="#926457" d="M500 400h100v100H500z"/><path fill="#4a4a4c" d="M600 400h100v100H600z"/><path fill="#aeb1b6" d="M700 400h100v100H700z"/><path fill="#a1968a" d="M0 500h100v100H0z"/><path fill="#573214" d="M100 500h100v100H100z"/><path fill="#ad3b24" d="M200 500h100v100H200z"/><path fill="#b53822" d="M300 500h100v100H300z"/><path fill="#af2e18" d="M400 500h100v100H400z"/><path fill="#aa4526" d="M500 500h100v100H500z"/><path fill="#6b4721" d="M600 500h100v100H600z"/><path fill="#ac9074" d="M700 500h100v100H700z"/><path fill="#e4e0dd" d="M0 600h100v100H0z"/><path fill="#ddd5cd" d="M100 600h100v100H100z"/><path fill="#e2e2da" d="M200 600h100v100H200z"/><path fill="#e2e0d7" d="M300 600h100v100H300z"/><path fill="#dcdcd1" d="M400 600h100v100H400z"/><path fill="#e0ded3" d="M500 600h100v100H500z"/><path fill="#ece2da" d="M600 600h100v100H600z"/><path fill="#e4dbd2" d="M700 600h100v100H700z"/><path fill="#fff" d="M0 700h100v100H0zm100 0h100v100H100zm100 0h100v100H200zm100 0h100v100H300zm100 0h100v100H400zm100 0h100v100H500zm100 0h100v100H600zm100 0h100v100H700z"/></svg>