<svg xmlns="http://www.w3.org/2000/svg" viewBox="0 0 800 600"><defs/><path fill="#9eb0bf" d="M0 0h100v100H0z"/><path fill="#a0aab8" d="M100 0h100v100H100z"/><path fill="#bcc5d2" d="M200 0h100v100H200z"/><path fill="#cdd5e3" d="M300 0h100v100H300z"/><path fill="#c5cfdd" d="M400 0h100v100H400z"/><path fill="#b6c1d1" d="M500 0h100v100H500z"/><path fill="#c4cfdd" d="M600 0h100v100H600z"/><path fill="#cdd6e4" d="M700 0h100v100H700z"/><path fill="#c8d2e0" d="M0 100h100v100H0z"/><path fill="#929ead" d="M100 100h100v100H100z"/><path fill="#bbc4d1" d="M200 100h100v100H200z"/><path fill="#c6cedb" d="M300 100h100v100H300z"/><path fill="#bbc3d1" d="M400 100h100v100H400z"/><path fill="#a1adbd" d="M500 100h100v100H500z"/><path fill="#d8deeb" d="M600 100h100v100H600z"/><path fill="#ecf1fc" d="M700 100h100v100H700z"/><path fill="#dce3ee" d="M0 200h100v100H0z"/><path fill="#a6b1bf" d="M100 200h100v100H100z"/><path fill="#d5dbe7" d="M200 200h100v100H200z"/><path fill="#c5cdda" d="M300 200h100v100H300z"/><path fill="#c4ccda" d="M400 200h100v100H400z"/><path fill="#b1bbcb" d="M500 200h100v100H500z"/><path fill="#ced6e3" d="M600 200h100v100H600z"/><path fill="#e5ecf7" d="M700 200h100v100H700z"/><path fill="#d7deea" d="M0 300h100v100H0z"/><path fill="#bdc6d4" d="M100 300h100v100H100z"/><path fill="#e2e6f3" d="M200 300h100v100H200z"/><path fill="#d9dfec" d="M300 300h100v100H300z"/><path fill="#b4bdcb" d="M400 300h100v100H400z"/><path fill="#c2c9d8" d="M500 300h100v100H500z"/><path fill="#cfd7e4" d="M600 300h100v100H600z"/><path fill="#e2eaf5" d="M700 300h100v100H700z"/><path fill="#cad3df" d="M0 400h100v100H0z"/><path fill="#bdc7d4" d="M100 400h100v100H100z"/><path fill="#e5e9f5" d="M200 400h100v100H200z"/><path fill="#cad1df" d="M300 400h100v100H300z"/><path fill="#adb8c6" d="M400 400h100v100H400z"/><path fill="#bec8d6" d="M500 400h100v100H500z"/><path fill="#d5deea" d="M600 400h100v100H600z"/><path fill="#dce5f0" d="M700 400h100v100H700z"/><path fill="#bcc6d4" d="M0 500h100v100H0z"/><path fill="#ccd4e0" d="M100 500h100v100H100z"/><path fill="#dbe1ed" d="M200 500h100v100H200z"/><path fill="#c9d1de" d="M300 500h100v100H300z"/><path fill="#c1cbd8" d="M400 500h100v100H400z"/><path fill="#bac5d3" d="M500 500h100v100H500z"/><path fill="#bec9d7" d="M600 500h100v100H600z"/><path fill="#ccd5e3" d="M700 500h100v100H700z"/></svg>