<svg xmlns="http://www.w3.org/2000/svg" viewBox="0 0 800 400"><defs/><path fill="#705f6e" d="M0 0h100v100H0z"/><path fill="#786577" d="M100 0h100v100H100z"/><path fill="#7f7e84" d="M200 0h100v100H200z"/><path fill="#91938c" d="M300 0h100v100H300z"/><path fill="#6c616d" d="M400 0h100v100H400z"/><path fill="#6c626f" d="M500 0h100v100H500z"/><path fill="#878782" d="M600 0h100v100H600z"/><path fill="#807e8b" d="M700 0h100v100H700z"/><path fill="#755f6f" d="M0 100h100v100H0z"/><path fill="#614e6b" d="M100 100h100v100H100z"/><path fill="#2e1d58" d="M200 100h100v100H200z"/><path fill="#695b72" d="M300 100h100v100H300z"/><path fill="#847c7d" d="M400 100h100v100H400z"/><path fill="#8f8074" d="M500 100h100v100H500z"/><path fill="#78696a" d="M600 100h100v100H600z"/><path fill="#7d7184" d="M700 100h100v100H700z"/><path fill="#7f737f" d="M0 200h100v100H0z"/><path fill="#6a516b" d="M100 200h100v100H100z"/><path fill="#4b2c56" d="M200 200h100v100H200z"/><path fill="#58435f" d="M300 200h100v100H300z"/><path fill="#8b8078" d="M400 200h100v100H400z"/><path fill="#878277" d="M500 200h100v100H500z"/><path fill="#695b6f" d="M600 200h100v100H600z"/><path fill="#716f8a" d="M700 200h100v100H700z"/><path fill="#796777" d="M0 300h100v100H0z"/><path fill="#695365" d="M100 300h100v100H100z"/><path fill="#735a67" d="M200 300h100v100H200z"/><path fill="#8b7a78" d="M300 300h100v100H300z"/><path fill="#a29882" d="M400 300h100v100H400z"/><path fill="#7a8588" d="M500 300h100v100H500z"/><path fill="#596d88" d="M600 300h100v100H600z"/><path fill="#6a7d92" d="M700 300h100v100H700z"/></svg>