<svg xmlns="http://www.w3.org/2000/svg" viewBox="0 0 800 600"><defs/><path fill="#f2efe4" d="M0 0h100v100H0z"/><path fill="#e6e0d7" d="M100 0h100v100H100z"/><path fill="#e0dbd1" d="M200 0h100v100H200z"/><path fill="#ece8df" d="M300 0h100v100H300z"/><path fill="#e9e5db" d="M400 0h100v100H400z"/><path fill="#e9e4d8" d="M500 0h100v100H500z"/><path fill="#efe9df" d="M600 0h100v100H600z"/><path fill="#eee9de" d="M700 0h100v100H700z"/><path fill="#dcd4c8" d="M0 100h100v100H0z"/><path fill="#97837d" d="M100 100h100v100H100z"/><path fill="#9e9e9a" d="M200 100h100v100H200z"/><path fill="#ded6c5" d="M300 100h100v100H300z"/><path fill="#d1ad97" d="M400 100h100v100H400z"/><path fill="#cbbbaa" d="M500 100h100v100H500z"/><path fill="#d0c7be" d="M600 100h100v100H600z"/><path fill="#a7998f" d="M700 100h100v100H700z"/><path fill="#d1c7b8" d="M0 200h100v100H0z"/><path fill="#877068" d="M100 200h100v100H100z"/><path fill="#bba98c" d="M200 200h100v100H200z"/><path fill="#c3b08e" d="M300 200h100v100H300z"/><path fill="#bb9c80" d="M400 200h100v100H400z"/><path fill="#b89776" d="M500 200h100v100H500z"/><path fill="#c6b298" d="M600 200h100v100H600z"/><path fill="#aca092" d="M700 200h100v100H700z"/><path fill="#cbbdad" d="M0 300h100v100H0z"/><path fill="#9c8171" d="M100 300h100v100H100z"/><path fill="#8a7061" d="M200 300h100v100H200z"/><path fill="#8c7568" d="M300 300h100v100H300z"/><path fill="#9b8e83" d="M400 300h100v100H400z"/><path fill="#a78d71" d="M500 300h100v100H500z"/><path fill="#c5ab87" d="M600 300h100v100H600z"/><path fill="#cbbea8" d="M700 300h100v100H700z"/><path fill="#a69b93" d="M0 400h100v100H0z"/><path fill="#a0866e" d="M100 400h100v100H100z"/><path fill="#98816b" d="M200 400h100v100H200z"/><path fill="#9f8882" d="M300 400h100v100H300z"/><path fill="#8d8080" d="M400 400h100v100H400z"/><path fill="#9c8376" d="M500 400h100v100H500z"/><path fill="#c5b29a" d="M600 400h100v100H600z"/><path fill="#c5b6a3" d="M700 400h100v100H700z"/><path fill="#eae6dc" d="M0 500h100v100H0z"/><path fill="#e4ddd3" d="M100 500h100v100H100z"/><path fill="#ebe4da" d="M200 500h100v100H200z"/><path fill="#e7e2d8" d="M300 500h100v100H300z"/><path fill="#e9e2d9" d="M400 500h100v100H400z"/><path fill="#eee8dd" d="M500 500h100v100H500z"/><path fill="#f3ede2" d="M600 500h100v100H600z"/><path fill="#f3eee3" d="M700 500h100v100H700z"/></svg>