<svg xmlns="http://www.w3.org/2000/svg" viewBox="0 0 800 500"><defs/><path fill="#9594a4" d="M0 0h100v100H0z"/><path fill="#8d90a5" d="M100 0h100v100H100z"/><path fill="#bbbbcf" d="M200 0h100v100H200z"/><path fill="#c2c2d3" d="M300 0h100v100H300z"/><path fill="#d9d4e4" d="M400 0h100v100H400z"/><path fill="#b6afb6" d="M500 0h100v100H500z"/><path fill="#a19ca5" d="M600 0h100v100H600z"/><path fill="#adb0c2" d="M700 0h100v100H700z"/><path fill="#3d3d5d" d="M0 100h100v100H0z"/><path fill="#373559" d="M100 100h100v100H100z"/><path fill="#97899f" d="M200 100h100v100H200z"/><path fill="#727079" d="M300 100h100v100H300z"/><path fill="#b0aabc" d="M400 100h100v100H400z"/><path fill="#6a5c59" d="M500 100h100v100H500z"/><path fill="#3d3337" d="M600 100h100v100H600z"/><path fill="#686b8a" d="M700 100h100v100H700z"/><path fill="#565876" d="M0 200h100v100H0z"/><path fill="#564d61" d="M100 200h100v100H100z"/><path fill="#b0948d" d="M200 200h100v100H200z"/><path fill="#af9c97" d="M300 200h100v100H300z"/><path fill="#c8afa6" d="M400 200h100v100H400z"/><path fill="#b29783" d="M500 200h100v100H500z"/><path fill="#775b53" d="M600 200h100v100H600z"/><path fill="#948d88" d="M700 200h100v100H700z"/><path fill="#63607b" d="M0 300h100v100H0z"/><path fill="#4a3842" d="M100 300h100v100H100z"/><path fill="#422621" d="M200 300h100v100H200z"/><path fill="#8b5a48" d="M300 300h100v100H300z"/><path fill="#db8c67" d="M400 300h100v100H400z"/><path fill="#ddaa89" d="M500 300h100v100H500z"/><path fill="#825f51" d="M600 300h100v100H600z"/><path fill="#a08c7f" d="M700 300h100v100H700z"/><path fill="#978f98" d="M0 400h100v100H0z"/><path fill="#8a736f" d="M100 400h100v100H100z"/><path fill="#957b73" d="M200 400h100v100H200z"/><path fill="#b18573" d="M300 400h100v100H300z"/><path fill="#ca9276" d="M400 400h100v100H400z"/><path fill="#b88c77" d="M500 400h100v100H500z"/><path fill="#937971" d="M600 400h100v100H600z"/><path fill="#beaba4" d="M700 400h100v100H700z"/></svg>