<svg xmlns="http://www.w3.org/2000/svg" viewBox="0 0 800 600"><defs/><path fill="#fdfdfd" d="M0 0h100v100H0z"/><path fill="#f9fdfd" d="M100 0h100v100H100z"/><path fill="#feffff" d="M200 0h100v100H200z"/><path fill="#fff" d="M300 0h100v100H300zm100 0h100v100H400zm100 0h100v100H500zm100 0h100v100H600zm100 0h100v100H700z"/><path fill="#eff4f5" d="M0 100h100v100H0z"/><path fill="#ce9ea2" d="M100 100h100v100H100z"/><path fill="#b97088" d="M200 100h100v100H200z"/><path fill="#bc7998" d="M300 100h100v100H300z"/><path fill="#bf7890" d="M400 100h100v100H400z"/><path fill="#b4748a" d="M500 100h100v100H500z"/><path fill="#9c7c8e" d="M600 100h100v100H600z"/><path fill="#dfe2e5" d="M700 100h100v100H700z"/><path fill="#effafb" d="M0 200h100v100H0z"/><path fill="#c54653" d="M100 200h100v100H100z"/><path fill="#30315b" d="M200 200h100v100H200z"/><path fill="#2f3978" d="M300 200h100v100H300z"/><path fill="#4f0748" d="M400 200h100v100H400z"/><path fill="#6b3f5f" d="M500 200h100v100H500z"/><path fill="#3c224e" d="M600 200h100v100H600z"/><path fill="#cacad1" d="M700 200h100v100H700z"/><path fill="#f2e6e8" d="M0 300h100v100H0z"/><path fill="#b32c3a" d="M100 300h100v100H100z"/><path fill="#871e2a" d="M200 300h100v100H200z"/><path fill="#812e4b" d="M300 300h100v100H300z"/><path fill="#5c1c4e" d="M400 300h100v100H400z"/><path fill="#97858b" d="M500 300h100v100H500z"/><path fill="#4f414a" d="M600 300h100v100H600z"/><path fill="#cdcacc" d="M700 300h100v100H700z"/><path fill="#ecd5d9" d="M0 400h100v100H0z"/><path fill="#91333a" d="M100 400h100v100H100z"/><path fill="#50403f" d="M200 400h100v100H200z"/><path fill="#5b4e5a" d="M300 400h100v100H300z"/><path fill="#5e5d7a" d="M400 400h100v100H400z"/><path fill="#4b4a4b" d="M500 400h100v100H500z"/><path fill="#4a4243" d="M600 400h100v100H600z"/><path fill="#d8d2d4" d="M700 400h100v100H700z"/><path fill="#f4f5f7" d="M0 500h100v100H0z"/><path fill="#dde6e9" d="M100 500h100v100H100z"/><path fill="#e4e7eb" d="M200 500h100v100H200z"/><path fill="#e4e6e8" d="M300 500h100v100H300z"/><path fill="#e6e4e3" d="M400 500h100v100H400z"/><path fill="#e3e2e5" d="M500 500h100v100H500z"/><path fill="#e2e1e5" d="M600 500h100v100H600z"/><path fill="#f6f6f7" d="M700 500h100v100H700z"/></svg>