<svg xmlns="http://www.w3.org/2000/svg" viewBox="0 0 800 400"><defs/><path fill="#d0d7fb" d="M0 0h100v100H0z"/><path fill="#b7c1f1" d="M100 0h100v100H100z"/><path fill="#d9dffb" d="M200 0h100v100H200z"/><path fill="#e0e5fd" d="M300 0h100v100H300z"/><path fill="#dee4fe" d="M400 0h100v100H400z"/><path fill="#dae0fc" d="M500 0h100v100H500z"/><path fill="#d4dbfb" d="M600 0h100v100H600z"/><path fill="#dfe4fd" d="M700 0h100v100H700z"/><path fill="#dfe3fa" d="M0 100h100v100H0z"/><path fill="#d2d6ee" d="M100 100h100v100H100z"/><path fill="#eef1fa" d="M200 100h100v100H200z"/><path fill="#dce2fb" d="M300 100h100v100H300zm100 0h100v100H400z"/><path fill="#f1f3fb" d="M500 100h100v100H500z"/><path fill="#eceef9" d="M600 100h100v100H600z"/><path fill="#fdfdfe" d="M700 100h100v100H700z"/><path fill="#ced4f6" d="M0 200h100v100H0z"/><path fill="#d5d9f1" d="M100 200h100v100H100z"/><path fill="#ebeefb" d="M200 200h100v100H200z"/><path fill="#f8f9fd" d="M300 200h100v100H300z"/><path fill="#f6f8fc" d="M400 200h100v100H400z"/><path fill="#eaecfa" d="M500 200h100v100H500z"/><path fill="#e2e5f8" d="M600 200h100v100H600z"/><path fill="#fafafd" d="M700 200h100v100H700z"/><path fill="#c2caf0" d="M0 300h100v100H0z"/><path fill="#f4f5fa" d="M100 300h100v100H100z"/><path fill="#f1f3fa" d="M200 300h100v100H200z"/><path fill="#f6f7fc" d="M300 300h100v100H300z"/><path fill="#f0f1fa" d="M400 300h100v100H400z"/><path fill="#f9f9fc" d="M500 300h100v100H500z"/><path fill="#fff" d="M600 300h100v100H600z"/><path fill="#f8f9fc" d="M700 300h100v100H700z"/></svg>