<svg xmlns="http://www.w3.org/2000/svg" viewBox="0 0 800 600"><defs/><path fill="#c0b8a7" d="M0 0h100v100H0z"/><path fill="#c4b3a4" d="M100 0h100v100H100z"/><path fill="#d3cabc" d="M200 0h100v100H200z"/><path fill="#c6cbc3" d="M300 0h100v100H300z"/><path fill="#c6cac1" d="M400 0h100v100H400z"/><path fill="#cfcdbf" d="M500 0h100v100H500z"/><path fill="#dad4c4" d="M600 0h100v100H600z"/><path fill="#b7c0b6" d="M700 0h100v100H700z"/><path fill="#bfb5a5" d="M0 100h100v100H0z"/><path fill="#c5b4a2" d="M100 100h100v100H100z"/><path fill="#d0c8bb" d="M200 100h100v100H200z"/><path fill="#b8b9ac" d="M300 100h100v100H300z"/><path fill="#c9c9bd" d="M400 100h100v100H400z"/><path fill="#d8d1c5" d="M500 100h100v100H500z"/><path fill="#c4cbc1" d="M600 100h100v100H600z"/><path fill="#c2d5ce" d="M700 100h100v100H700z"/><path fill="#bdb09f" d="M0 200h100v100H0z"/><path fill="#c8b4a4" d="M100 200h100v100H100z"/><path fill="#c7c1ab" d="M200 200h100v100H200z"/><path fill="#c6b09e" d="M300 200h100v100H300z"/><path fill="#e5d1c4" d="M400 200h100v100H400z"/><path fill="#e7d5ca" d="M500 200h100v100H500z"/><path fill="#c7c4b8" d="M600 200h100v100H600z"/><path fill="#b0c0b4" d="M700 200h100v100H700z"/><path fill="#ad9a8d" d="M0 300h100v100H0z"/><path fill="#cab7a6" d="M100 300h100v100H100z"/><path fill="#c4bba8" d="M200 300h100v100H200z"/><path fill="#b6a595" d="M300 300h100v100H300z"/><path fill="#dfd1c1" d="M400 300h100v100H400z"/><path fill="#e4d7c5" d="M500 300h100v100H500z"/><path fill="#d1bfab" d="M600 300h100v100H600z"/><path fill="#9c9581" d="M700 300h100v100H700z"/><path fill="#ab9787" d="M0 400h100v100H0z"/><path fill="#bcaa98" d="M100 400h100v100H100z"/><path fill="#bfb2ad" d="M200 400h100v100H200z"/><path fill="#b0a5a9" d="M300 400h100v100H300z"/><path fill="#c1b4bb" d="M400 400h100v100H400z"/><path fill="#c5bac0" d="M500 400h100v100H500z"/><path fill="#d7c6bc" d="M600 400h100v100H600z"/><path fill="#cfa98c" d="M700 400h100v100H700z"/><path fill="#ac9c8a" d="M0 500h100v100H0z"/><path fill="#b8ac9b" d="M100 500h100v100H100z"/><path fill="#b2a7a7" d="M200 500h100v100H200z"/><path fill="#bcb0b5" d="M300 500h100v100H300z"/><path fill="#d4cbd0" d="M400 500h100v100H400z"/><path fill="#d5c7ca" d="M500 500h100v100H500z"/><path fill="#cfbeb3" d="M600 500h100v100H600z"/><path fill="#e7d7c4" d="M700 500h100v100H700z"/></svg>