<svg xmlns="http://www.w3.org/2000/svg" viewBox="0 0 800 800"><defs/><path fill="#fff" d="M0 0h100v100H0z"/><path fill="#efc9c9" d="M100 0h100v100H100z"/><path fill="#ce8e8e" d="M200 0h100v100H200z"/><path fill="#d4a7a8" d="M300 0h100v100H300z"/><path fill="#d4a0a0" d="M400 0h100v100H400z"/><path fill="#cd9b9b" d="M500 0h100v100H500z"/><path fill="#e6bdbc" d="M600 0h100v100H600z"/><path fill="#fff" d="M700 0h100v100H700z"/><path fill="#e8e8e8" d="M0 100h100v100H0z"/><path fill="#c7c7c7" d="M100 100h100v100H100z"/><path fill="#a09f9f" d="M200 100h100v100H200z"/><path fill="#a8a7a7" d="M300 100h100v100H300z"/><path fill="#bbbaba" d="M400 100h100v100H400z"/><path fill="#b8b8b8" d="M500 100h100v100H500z"/><path fill="#d0d0d0" d="M600 100h100v100H600z"/><path fill="#dfdfdf" d="M700 100h100v100H700z"/><path fill="#dcdcdc" d="M0 200h100v100H0z"/><path fill="#e4e4e4" d="M100 200h100v100H100z"/><path fill="#e8eae9" d="M200 200h100v100H200z"/><path fill="#d5d6d6" d="M300 200h100v100H300z"/><path fill="#f0f0f0" d="M400 200h100v100H400z"/><path fill="#fff" d="M500 200h100v100H500zm100 0h100v100H600z"/><path fill="#e3e3e3" d="M700 200h100v100H700z"/><path fill="#e1e1e1" d="M0 300h100v100H0z"/><path fill="#f2f2f2" d="M100 300h100v100H100z"/><path fill="#e9e9e9" d="M200 300h100v100H200z"/><path fill="#aaa" d="M300 300h100v100H300z"/><path fill="#c4c4c4" d="M400 300h100v100H400z"/><path fill="#d6d6d6" d="M500 300h100v100H500z"/><path fill="#fcfcfc" d="M600 300h100v100H600z"/><path fill="#e3e3e3" d="M700 300h100v100H700z"/><path fill="#dfdfdf" d="M0 400h100v100H0z"/><path fill="#f6f6f6" d="M100 400h100v100H100z"/><path fill="#c7c7c7" d="M200 400h100v100H200z"/><path fill="#a2a2a2" d="M300 400h100v100H300z"/><path fill="#e3e3e3" d="M400 400h100v100H400z"/><path fill="#dcdcdc" d="M500 400h100v100H500z"/><path fill="#cfcfcf" d="M600 400h100v100H600z"/><path fill="#dcdcdc" d="M700 400h100v100H700z"/><path fill="#e6e6e6" d="M0 500h100v100H0z"/><path fill="#f5f5f5" d="M100 500h100v100H100z"/><path fill="#aaa" d="M200 500h100v100H200z"/><path fill="#b2b2b2" d="M300 500h100v100H300z"/><path fill="#e5e5e5" d="M400 500h100v100H400z"/><path fill="#dcdcdc" d="M500 500h100v100H500z"/><path fill="#979797" d="M600 500h100v100H600z"/><path fill="#e1e1e1" d="M700 500h100v100H700z"/><path fill="#e0e0e0" d="M0 600h100v100H0z"/><path fill="#dbdbdb" d="M100 600h100v100H100z"/><path fill="#bcbcbc" d="M200 600h100v100H200z"/><path fill="#d3d3d3" d="M300 600h100v100H300z"/><path fill="#e2e2e2" d="M400 600h100v100H400z"/><path fill="#cfcfcf" d="M500 600h100v100H500z"/><path fill="#b3b3b3" d="M600 600h100v100H600z"/><path fill="#dbdbdb" d="M700 600h100v100H700z"/><path fill="#dedede" d="M0 700h100v100H0z"/><path fill="#dbdbdb" d="M100 700h100v100H100z"/><path fill="#e6e6e6" d="M200 700h100v100H200z"/><path fill="#e4e4e4" d="M300 700h100v100H300z"/><path fill="#e9e9e9" d="M400 700h100v100H400z"/><path fill="#e0e0e0" d="M500 700h100v100H500z"/><path fill="#c4c4c4" d="M600 700h100v100H600z"/><path fill="#d5d5d5" d="M700 700h100v100H700z"/></svg>