<svg xmlns="http://www.w3.org/2000/svg" viewBox="0 0 800 1100"><defs/><path fill="#8c89c2" d="M0 0h100v100H0z"/><path fill="#8b89c5" d="M100 0h100v100H100z"/><path fill="#8988c8" d="M200 0h100v100H200z"/><path fill="#8687cb" d="M300 0h100v100H300z"/><path fill="#8182cc" d="M400 0h100v100H400z"/><path fill="#7b7ccc" d="M500 0h100v100H500z"/><path fill="#7779cd" d="M600 0h100v100H600z"/><path fill="#7375d3" d="M700 0h100v100H700z"/><path fill="#8282c8" d="M0 100h100v100H0z"/><path fill="#7f80cc" d="M100 100h100v100H100z"/><path fill="#7b7ed0" d="M200 100h100v100H200z"/><path fill="#777bd3" d="M300 100h100v100H300z"/><path fill="#7277d7" d="M400 100h100v100H400z"/><path fill="#6b73df" d="M500 100h100v100H500z"/><path fill="#676ee1" d="M600 100h100v100H600z"/><path fill="#656dec" d="M700 100h100v100H700z"/><path fill="#8081c2" d="M0 200h100v100H0z"/><path fill="#7c7ec8" d="M100 200h100v100H100z"/><path fill="#757acc" d="M200 200h100v100H200z"/><path fill="#737bdb" d="M300 200h100v100H300z"/><path fill="#5d67c5" d="M400 200h100v100H400z"/><path fill="#4d55a6" d="M500 200h100v100H500z"/><path fill="#5e6aeb" d="M600 200h100v100H600z"/><path fill="#5057b6" d="M700 200h100v100H700z"/><path fill="#6d6fac" d="M0 300h100v100H0z"/><path fill="#6a6eb0" d="M100 300h100v100H100z"/><path fill="#6e75c2" d="M200 300h100v100H200z"/><path fill="#6974dd" d="M300 300h100v100H300z"/><path fill="#3f4679" d="M400 300h100v100H400z"/><path fill="#212931" d="M500 300h100v100H500z"/><path fill="#2a2f4c" d="M600 300h100v100H600z"/><path fill="#3b3e6b" d="M700 300h100v100H700z"/><path fill="#555584" d="M0 400h100v100H0z"/><path fill="#505289" d="M100 400h100v100H100z"/><path fill="#5757b8" d="M200 400h100v100H200z"/><path fill="#3e4583" d="M300 400h100v100H300z"/><path fill="#2e2f3c" d="M400 400h100v100H400z"/><path fill="#493c3e" d="M500 400h100v100H500z"/><path fill="#191c18" d="M600 400h100v100H600z"/><path fill="#2e2d4d" d="M700 400h100v100H700z"/><path fill="#636c8d" d="M0 500h100v100H0z"/><path fill="#525f87" d="M100 500h100v100H100z"/><path fill="#3f71e8" d="M200 500h100v100H200z"/><path fill="#2c3e6b" d="M300 500h100v100H300z"/><path fill="#1d2f5b" d="M400 500h100v100H400z"/><path fill="#2e354d" d="M500 500h100v100H500z"/><path fill="#1c1d1a" d="M600 500h100v100H600z"/><path fill="#444681" d="M700 500h100v100H700z"/><path fill="#637790" d="M0 600h100v100H0z"/><path fill="#525e6d" d="M100 600h100v100H100z"/><path fill="#315e85" d="M200 600h100v100H200z"/><path fill="#2b3145" d="M300 600h100v100H300z"/><path fill="#1c243c" d="M400 600h100v100H400z"/><path fill="#0f1d33" d="M500 600h100v100H500z"/><path fill="#3b427d" d="M600 600h100v100H600z"/><path fill="#686fce" d="M700 600h100v100H700z"/><path fill="#6a5b5d" d="M0 700h100v100H0z"/><path fill="#85635a" d="M100 700h100v100H100z"/><path fill="#3a2e32" d="M200 700h100v100H200z"/><path fill="#4c4148" d="M300 700h100v100H300z"/><path fill="#42312e" d="M400 700h100v100H400z"/><path fill="#603f30" d="M500 700h100v100H500z"/><path fill="#6666c3" d="M600 700h100v100H600z"/><path fill="#586eff" d="M700 700h100v100H700z"/><path fill="#a57a69" d="M0 800h100v100H0z"/><path fill="#906c61" d="M100 800h100v100H100z"/><path fill="#605a5d" d="M200 800h100v100H200z"/><path fill="#6b5e61" d="M300 800h100v100H300z"/><path fill="#ab7866" d="M400 800h100v100H400z"/><path fill="#a27059" d="M500 800h100v100H500z"/><path fill="#75615a" d="M600 800h100v100H600z"/><path fill="#6266b6" d="M700 800h100v100H700z"/><path fill="#857169" d="M0 900h100v100H0z"/><path fill="#906f61" d="M100 900h100v100H100z"/><path fill="#584b48" d="M200 900h100v100H200z"/><path fill="#6d5851" d="M300 900h100v100H300z"/><path fill="#917464" d="M400 900h100v100H400z"/><path fill="#817264" d="M500 900h100v100H500z"/><path fill="#7c6653" d="M600 900h100v100H600z"/><path fill="#796452" d="M700 900h100v100H700z"/><path fill="#6c6260" d="M0 1000h100v100H0z"/><path fill="#6a514c" d="M100 1000h100v100H100z"/><path fill="#5c4c46" d="M200 1000h100v100H200z"/><path fill="#7b5f50" d="M300 1000h100v100H300z"/><path fill="#916d5b" d="M400 1000h100v100H400z"/><path fill="#9e755f" d="M500 1000h100v100H500z"/><path fill="#7d6d5b" d="M600 1000h100v100H600z"/><path fill="#847365" d="M700 1000h100v100H700z"/></svg>