<svg xmlns="http://www.w3.org/2000/svg" viewBox="0 0 800 400"><defs/><path fill="#d3a7c5" d="M0 0h100v100H0z"/><path fill="#eba6c0" d="M100 0h100v100H100z"/><path fill="#dea8c3" d="M200 0h100v100H200z"/><path fill="#dfaec8" d="M300 0h100v100H300z"/><path fill="#e9b0c7" d="M400 0h100v100H400z"/><path fill="#d8a5c2" d="M500 0h100v100H500z"/><path fill="#d69ebd" d="M600 0h100v100H600z"/><path fill="#d5a6c4" d="M700 0h100v100H700z"/><path fill="#d8a6c4" d="M0 100h100v100H0z"/><path fill="#eaa4bf" d="M100 100h100v100H100z"/><path fill="#ca9bbe" d="M200 100h100v100H200z"/><path fill="#cea2c1" d="M300 100h100v100H300z"/><path fill="#c297bc" d="M400 100h100v100H400z"/><path fill="#d6a1c0" d="M500 100h100v100H500z"/><path fill="#d09ebe" d="M600 100h100v100H600z"/><path fill="#c59dc0" d="M700 100h100v100H700z"/><path fill="#dea5c2" d="M0 200h100v100H0z"/><path fill="#e4a4c1" d="M100 200h100v100H100z"/><path fill="#dca4c1" d="M200 200h100v100H200z"/><path fill="#c595bd" d="M300 200h100v100H300z"/><path fill="#c596bd" d="M400 200h100v100H400z"/><path fill="#e6a7c1" d="M500 200h100v100H500z"/><path fill="#daa2c0" d="M600 200h100v100H600z"/><path fill="#b993bb" d="M700 200h100v100H700z"/><path fill="#e9a8c2" d="M0 300h100v100H0z"/><path fill="#e1a5c1" d="M100 300h100v100H100z"/><path fill="#c194bd" d="M200 300h100v100H200z"/><path fill="#df9dbf" d="M300 300h100v100H300z"/><path fill="#efa8c2" d="M400 300h100v100H400z"/><path fill="#f0a8c1" d="M500 300h100v100H500z"/><path fill="#eda9c3" d="M600 300h100v100H600z"/><path fill="#cd9bbe" d="M700 300h100v100H700z"/></svg>