<svg xmlns="http://www.w3.org/2000/svg" viewBox="0 0 800 600"><defs/><path fill="#989d9e" d="M0 0h100v100H0z"/><path fill="#a0a4a8" d="M100 0h100v100H100z"/><path fill="#9ea3a6" d="M200 0h100v100H200z"/><path fill="#a4a8aa" d="M300 0h100v100H300z"/><path fill="#a5a7aa" d="M400 0h100v100H400z"/><path fill="#a3a7a9" d="M500 0h100v100H500z"/><path fill="#a2a8aa" d="M600 0h100v100H600z"/><path fill="#a2a7a8" d="M700 0h100v100H700z"/><path fill="#93989b" d="M0 100h100v100H0z"/><path fill="#919599" d="M100 100h100v100H100z"/><path fill="#9a9c9f" d="M200 100h100v100H200z"/><path fill="#a0a1a4" d="M300 100h100v100H300z"/><path fill="#a3a4a7" d="M400 100h100v100H400z"/><path fill="#a9abaf" d="M500 100h100v100H500z"/><path fill="#a4a8ac" d="M600 100h100v100H600z"/><path fill="#9b9fa0" d="M700 100h100v100H700z"/><path fill="#93979b" d="M0 200h100v100H0z"/><path fill="#8d8f92" d="M100 200h100v100H100z"/><path fill="#949597" d="M200 200h100v100H200z"/><path fill="#999a9b" d="M300 200h100v100H300z"/><path fill="#9e9fa0" d="M400 200h100v100H400z"/><path fill="#a4a5a9" d="M500 200h100v100H500z"/><path fill="#a1a5a9" d="M600 200h100v100H600z"/><path fill="#969b9b" d="M700 200h100v100H700z"/><path fill="#959a9e" d="M0 300h100v100H0z"/><path fill="#909297" d="M100 300h100v100H100z"/><path fill="#939497" d="M200 300h100v100H200z"/><path fill="#9c9d9e" d="M300 300h100v100H300z"/><path fill="#999a9c" d="M400 300h100v100H400z"/><path fill="#a1a3a8" d="M500 300h100v100H500z"/><path fill="#9a9ea2" d="M600 300h100v100H600z"/><path fill="#95999a" d="M700 300h100v100H700z"/><path fill="#949a9e" d="M0 400h100v100H0z"/><path fill="#93969a" d="M100 400h100v100H100z"/><path fill="#96999c" d="M200 400h100v100H200z"/><path fill="#97989b" d="M300 400h100v100H300z"/><path fill="#9c9ea1" d="M400 400h100v100H400z"/><path fill="#9fa2a7" d="M500 400h100v100H500z"/><path fill="#9a9da2" d="M600 400h100v100H600z"/><path fill="#9a9ea1" d="M700 400h100v100H700z"/><path fill="#939ba0" d="M0 500h100v100H0z"/><path fill="#8e9396" d="M100 500h100v100H100z"/><path fill="#979a9e" d="M200 500h100v100H200z"/><path fill="#96989c" d="M300 500h100v100H300z"/><path fill="#9a9ca0" d="M400 500h100v100H400z"/><path fill="#9c9ea3" d="M500 500h100v100H500z"/><path fill="#969a9f" d="M600 500h100v100H600z"/><path fill="#9a9da0" d="M700 500h100v100H700z"/></svg>