<svg xmlns="http://www.w3.org/2000/svg" viewBox="0 0 800 400"><defs/><path fill="#c0a792" d="M0 0h100v100H0z"/><path fill="#ba8253" d="M100 0h100v100H100z"/><path fill="#c2b7b0" d="M200 0h100v100H200z"/><path fill="#d1ad7a" d="M300 0h100v100H300z"/><path fill="#cfc4ba" d="M400 0h100v100H400z"/><path fill="#b6b3b2" d="M500 0h100v100H500z"/><path fill="#a8a09b" d="M600 0h100v100H600z"/><path fill="#c2c0be" d="M700 0h100v100H700z"/><path fill="#b9855e" d="M0 100h100v100H0z"/><path fill="#9b8276" d="M100 100h100v100H100z"/><path fill="#cfcfc9" d="M200 100h100v100H200z"/><path fill="#cbbd9f" d="M300 100h100v100H300z"/><path fill="#c1ad92" d="M400 100h100v100H400z"/><path fill="#9e9c9d" d="M500 100h100v100H500z"/><path fill="#868086" d="M600 100h100v100H600z"/><path fill="#a29e9f" d="M700 100h100v100H700z"/><path fill="#bbab83" d="M0 200h100v100H0z"/><path fill="#ac724c" d="M100 200h100v100H100z"/><path fill="#83735f" d="M200 200h100v100H200z"/><path fill="#b2937c" d="M300 200h100v100H300z"/><path fill="#c4926f" d="M400 200h100v100H400z"/><path fill="#a08f82" d="M500 200h100v100H500z"/><path fill="#8d7a71" d="M600 200h100v100H600z"/><path fill="#b1a39d" d="M700 200h100v100H700z"/><path fill="#8e797f" d="M0 300h100v100H0z"/><path fill="#8a5730" d="M100 300h100v100H100z"/><path fill="#a25b46" d="M200 300h100v100H200z"/><path fill="#af5e2f" d="M300 300h100v100H300z"/><path fill="#b1715c" d="M400 300h100v100H400z"/><path fill="#a58a8a" d="M500 300h100v100H500z"/><path fill="#a2694f" d="M600 300h100v100H600z"/><path fill="#ad7958" d="M700 300h100v100H700z"/></svg>