<svg xmlns="http://www.w3.org/2000/svg" viewBox="0 0 800 400"><defs/><path fill="#f2e0bf" d="M0 0h100v100H0z"/><path fill="#d8c1a5" d="M100 0h100v100H100z"/><path fill="#bfa786" d="M200 0h100v100H200z"/><path fill="#f1dabc" d="M300 0h100v100H300z"/><path fill="#d2c4a9" d="M400 0h100v100H400z"/><path fill="#cfc2a9" d="M500 0h100v100H500z"/><path fill="#f1e5cc" d="M600 0h100v100H600z"/><path fill="#f1f0df" d="M700 0h100v100H700z"/><path fill="#f2e2c4" d="M0 100h100v100H0z"/><path fill="#d2b998" d="M100 100h100v100H100z"/><path fill="#a48b71" d="M200 100h100v100H200z"/><path fill="#c1b19d" d="M300 100h100v100H300z"/><path fill="#b5a691" d="M400 100h100v100H400z"/><path fill="#b5a792" d="M500 100h100v100H500z"/><path fill="#e9e3ca" d="M600 100h100v100H600z"/><path fill="#e4e8de" d="M700 100h100v100H700z"/><path fill="#f3e4ca" d="M0 200h100v100H0z"/><path fill="#bda07e" d="M100 200h100v100H100z"/><path fill="#8e8068" d="M200 200h100v100H200z"/><path fill="#838078" d="M300 200h100v100H300z"/><path fill="#a79b8b" d="M400 200h100v100H400z"/><path fill="#a49175" d="M500 200h100v100H500z"/><path fill="#ded0b6" d="M600 200h100v100H600z"/><path fill="#ecead8" d="M700 200h100v100H700z"/><path fill="#eddcc4" d="M0 300h100v100H0z"/><path fill="#ceb89d" d="M100 300h100v100H100z"/><path fill="#b9ac99" d="M200 300h100v100H200z"/><path fill="#d3c7b5" d="M300 300h100v100H300z"/><path fill="#e6d9c5" d="M400 300h100v100H400z"/><path fill="#d9d2bf" d="M500 300h100v100H500z"/><path fill="#e2d4c0" d="M600 300h100v100H600z"/><path fill="#dac7aa" d="M700 300h100v100H700z"/></svg>