<svg xmlns="http://www.w3.org/2000/svg" viewBox="0 0 800 400"><defs/><path fill="#30e037" d="M0 0h100v100H0z"/><path fill="#59552e" d="M100 0h100v100H100z"/><path fill="#1c28d3" d="M200 0h100v100H200z"/><path fill="#1471ea" d="M300 0h100v100H300z"/><path fill="#12a1e6" d="M400 0h100v100H400z"/><path fill="#2f52a3" d="M500 0h100v100H500z"/><path fill="#1e34b9" d="M600 0h100v100H600z"/><path fill="#0db54c" d="M700 0h100v100H700z"/><path fill="#2ccb22" d="M0 100h100v100H0z"/><path fill="#51383b" d="M100 100h100v100H100z"/><path fill="#2e2791" d="M200 100h100v100H200z"/><path fill="#23509f" d="M300 100h100v100H300z"/><path fill="#297586" d="M400 100h100v100H400z"/><path fill="#2f5397" d="M500 100h100v100H500z"/><path fill="#2437ba" d="M600 100h100v100H600z"/><path fill="#147245" d="M700 100h100v100H700z"/><path fill="#45a426" d="M0 200h100v100H0z"/><path fill="#532b36" d="M100 200h100v100H100z"/><path fill="#312c39" d="M200 200h100v100H200z"/><path fill="#3c182c" d="M300 200h100v100H300z"/><path fill="#2c0849" d="M400 200h100v100H400z"/><path fill="#33304b" d="M500 200h100v100H500z"/><path fill="#393481" d="M600 200h100v100H600z"/><path fill="#2c5a54" d="M700 200h100v100H700z"/><path fill="#4e6625" d="M0 300h100v100H0z"/><path fill="#4e1e0c" d="M100 300h100v100H100z"/><path fill="#312e1f" d="M200 300h100v100H200z"/><path fill="#49372a" d="M300 300h100v100H300z"/><path fill="#3c3721" d="M400 300h100v100H400z"/><path fill="#2e2115" d="M500 300h100v100H500z"/><path fill="#311d27" d="M600 300h100v100H600z"/><path fill="#2e402b" d="M700 300h100v100H700z"/></svg>