<svg xmlns="http://www.w3.org/2000/svg" viewBox="0 0 800 500"><defs/><path fill="#e0d3d4" d="M0 0h100v100H0z"/><path fill="#c6c1c0" d="M100 0h100v100H100z"/><path fill="#dbd2c7" d="M200 0h100v100H200z"/><path fill="#e7dfd5" d="M300 0h100v100H300z"/><path fill="#e6e4de" d="M400 0h100v100H400z"/><path fill="#dbd8d5" d="M500 0h100v100H500z"/><path fill="#d8d4c7" d="M600 0h100v100H600z"/><path fill="#dad8bd" d="M700 0h100v100H700z"/><path fill="#c7b8b9" d="M0 100h100v100H0z"/><path fill="#a5958c" d="M100 100h100v100H100z"/><path fill="#c8b29a" d="M200 100h100v100H200z"/><path fill="#c3ae9c" d="M300 100h100v100H300z"/><path fill="#abb6b4" d="M400 100h100v100H400z"/><path fill="#90b5cc" d="M500 100h100v100H500z"/><path fill="#a7b2a6" d="M600 100h100v100H600z"/><path fill="#c5baa1" d="M700 100h100v100H700z"/><path fill="#c9a19a" d="M0 200h100v100H0z"/><path fill="#928275" d="M100 200h100v100H100z"/><path fill="#d0a694" d="M200 200h100v100H200z"/><path fill="#ceb5a1" d="M300 200h100v100H300z"/><path fill="#acada2" d="M400 200h100v100H400z"/><path fill="#adbfbe" d="M500 200h100v100H500z"/><path fill="#b3b5ab" d="M600 200h100v100H600z"/><path fill="#c5bfb9" d="M700 200h100v100H700z"/><path fill="#b69c97" d="M0 300h100v100H0z"/><path fill="#8f918c" d="M100 300h100v100H100z"/><path fill="#b99f9c" d="M200 300h100v100H200z"/><path fill="#ab9a93" d="M300 300h100v100H300z"/><path fill="#b4a49b" d="M400 300h100v100H400z"/><path fill="#a4abb8" d="M500 300h100v100H500z"/><path fill="#8b95a3" d="M600 300h100v100H600z"/><path fill="#c3b9b5" d="M700 300h100v100H700z"/><path fill="#ada3a2" d="M0 400h100v100H0z"/><path fill="#a7a7aa" d="M100 400h100v100H100z"/><path fill="#c1b8b6" d="M200 400h100v100H200z"/><path fill="#bbaea8" d="M300 400h100v100H300z"/><path fill="#bebabd" d="M400 400h100v100H400z"/><path fill="#98b3d3" d="M500 400h100v100H500z"/><path fill="#95aac2" d="M600 400h100v100H600z"/><path fill="#cecccd" d="M700 400h100v100H700z"/></svg>