<svg xmlns="http://www.w3.org/2000/svg" viewBox="0 0 800 500"><defs/><path fill="#73625f" d="M0 0h100v100H0z"/><path fill="#96847b" d="M100 0h100v100H100z"/><path fill="#827c6e" d="M200 0h100v100H200z"/><path fill="#7a786e" d="M300 0h100v100H300z"/><path fill="#817d73" d="M400 0h100v100H400z"/><path fill="#79766e" d="M500 0h100v100H500z"/><path fill="#7d796e" d="M600 0h100v100H600z"/><path fill="#7d7574" d="M700 0h100v100H700z"/><path fill="#938380" d="M0 100h100v100H0z"/><path fill="#b9aca7" d="M100 100h100v100H100z"/><path fill="#b8b6ad" d="M200 100h100v100H200z"/><path fill="#c5c0be" d="M300 100h100v100H300z"/><path fill="#cec9c6" d="M400 100h100v100H400z"/><path fill="#cac5c6" d="M500 100h100v100H500z"/><path fill="#c7c6c2" d="M600 100h100v100H600z"/><path fill="#bfbec0" d="M700 100h100v100H700z"/><path fill="#928279" d="M0 200h100v100H0z"/><path fill="#ada29b" d="M100 200h100v100H100z"/><path fill="#aaaaab" d="M200 200h100v100H200z"/><path fill="#b8b5ba" d="M300 200h100v100H300z"/><path fill="#bab9bf" d="M400 200h100v100H400z"/><path fill="#b5b3be" d="M500 200h100v100H500z"/><path fill="#a5a6ae" d="M600 200h100v100H600z"/><path fill="#aeaaae" d="M700 200h100v100H700z"/><path fill="#988a81" d="M0 300h100v100H0z"/><path fill="#b4a9a1" d="M100 300h100v100H100z"/><path fill="#b8b3ab" d="M200 300h100v100H200z"/><path fill="#b3b3aa" d="M300 300h100v100H300z"/><path fill="#b5b6b2" d="M400 300h100v100H400z"/><path fill="#aaa8b1" d="M500 300h100v100H500z"/><path fill="#b2a9aa" d="M600 300h100v100H600z"/><path fill="#b9b5b5" d="M700 300h100v100H700z"/><path fill="#898582" d="M0 400h100v100H0z"/><path fill="#aba9a9" d="M100 400h100v100H100z"/><path fill="#a7a4a3" d="M200 400h100v100H200z"/><path fill="#9d9d98" d="M300 400h100v100H300z"/><path fill="#a2a9b3" d="M400 400h100v100H400z"/><path fill="#8e95a2" d="M500 400h100v100H500z"/><path fill="#989aa4" d="M600 400h100v100H600z"/><path fill="#979398" d="M700 400h100v100H700z"/></svg>