<svg xmlns="http://www.w3.org/2000/svg" viewBox="0 0 800 500"><defs/><path fill="#a599a9" d="M0 0h100v100H0z"/><path fill="#9f828e" d="M100 0h100v100H100z"/><path fill="#b4949e" d="M200 0h100v100H200z"/><path fill="#b6a5ab" d="M300 0h100v100H300z"/><path fill="#c3b7b9" d="M400 0h100v100H400z"/><path fill="#b5909a" d="M500 0h100v100H500z"/><path fill="#b0b0b2" d="M600 0h100v100H600z"/><path fill="#c9bec3" d="M700 0h100v100H700z"/><path fill="#857483" d="M0 100h100v100H0z"/><path fill="#816372" d="M100 100h100v100H100z"/><path fill="#897582" d="M200 100h100v100H200z"/><path fill="#8a818f" d="M300 100h100v100H300z"/><path fill="#6e6a75" d="M400 100h100v100H400z"/><path fill="#8e7677" d="M500 100h100v100H500z"/><path fill="#989497" d="M600 100h100v100H600z"/><path fill="#976b7c" d="M700 100h100v100H700z"/><path fill="#8f727b" d="M0 200h100v100H0z"/><path fill="#806d7e" d="M100 200h100v100H100z"/><path fill="#928d9d" d="M200 200h100v100H200z"/><path fill="#8c888c" d="M300 200h100v100H300z"/><path fill="#6e637a" d="M400 200h100v100H400z"/><path fill="#77758e" d="M500 200h100v100H500z"/><path fill="#9394ac" d="M600 200h100v100H600z"/><path fill="#7e6e7d" d="M700 200h100v100H700z"/><path fill="#986578" d="M0 300h100v100H0z"/><path fill="#84727b" d="M100 300h100v100H100z"/><path fill="#a79991" d="M200 300h100v100H200z"/><path fill="#817175" d="M300 300h100v100H300z"/><path fill="#727079" d="M400 300h100v100H400z"/><path fill="#887c8f" d="M500 300h100v100H500z"/><path fill="#988193" d="M600 300h100v100H600z"/><path fill="#746f79" d="M700 300h100v100H700z"/><path fill="#99808c" d="M0 400h100v100H0z"/><path fill="#837a88" d="M100 400h100v100H100z"/><path fill="#988999" d="M200 400h100v100H200z"/><path fill="#9e91a1" d="M300 400h100v100H300z"/><path fill="#8a8d94" d="M400 400h100v100H400z"/><path fill="#79747f" d="M500 400h100v100H500z"/><path fill="#87717c" d="M600 400h100v100H600z"/><path fill="#7f7781" d="M700 400h100v100H700z"/></svg>