<svg xmlns="http://www.w3.org/2000/svg" viewBox="0 0 800 600"><defs/><path fill="#e0deef" d="M0 0h100v100H0z"/><path fill="#e1daea" d="M100 0h100v100H100z"/><path fill="#ebe6f4" d="M200 0h100v100H200z"/><path fill="#f6f4f8" d="M300 0h100v100H300z"/><path fill="#f7f3f6" d="M400 0h100v100H400z"/><path fill="#edebf7" d="M500 0h100v100H500z"/><path fill="#ececf7" d="M600 0h100v100H600z"/><path fill="#e3e0ef" d="M700 0h100v100H700z"/><path fill="#7a72c7" d="M0 100h100v100H0z"/><path fill="#8e68b2" d="M100 100h100v100H100z"/><path fill="#9cace9" d="M200 100h100v100H200z"/><path fill="#b6ddf2" d="M300 100h100v100H300z"/><path fill="#b3daf2" d="M400 100h100v100H400z"/><path fill="#8fabf1" d="M500 100h100v100H500z"/><path fill="#a4b3f0" d="M600 100h100v100H600z"/><path fill="#8888cf" d="M700 100h100v100H700z"/><path fill="#8478c5" d="M0 200h100v100H0z"/><path fill="#9a78c0" d="M100 200h100v100H100z"/><path fill="#9cb9f6" d="M200 200h100v100H200z"/><path fill="#aeddf1" d="M300 200h100v100H300z"/><path fill="#9bcae7" d="M400 200h100v100H400z"/><path fill="#7da3ea" d="M500 200h100v100H500z"/><path fill="#9fa1e2" d="M600 200h100v100H600z"/><path fill="#a3b0db" d="M700 200h100v100H700z"/><path fill="#957fc8" d="M0 300h100v100H0z"/><path fill="#7f5e93" d="M100 300h100v100H100z"/><path fill="#9896ba" d="M200 300h100v100H200z"/><path fill="#bebeda" d="M300 300h100v100H300z"/><path fill="#c5b2ae" d="M400 300h100v100H400z"/><path fill="#7980b2" d="M500 300h100v100H500z"/><path fill="#7371c3" d="M600 300h100v100H600z"/><path fill="#8497d4" d="M700 300h100v100H700z"/><path fill="#8d74a8" d="M0 400h100v100H0z"/><path fill="#8e6094" d="M100 400h100v100H100z"/><path fill="#c3a7b8" d="M200 400h100v100H200z"/><path fill="#aaadd1" d="M300 400h100v100H300z"/><path fill="#aab3d6" d="M400 400h100v100H400z"/><path fill="#7469bc" d="M500 400h100v100H500z"/><path fill="#423eb8" d="M600 400h100v100H600z"/><path fill="#676aa2" d="M700 400h100v100H700z"/><path fill="#d4d1d6" d="M0 500h100v100H0z"/><path fill="#e6d5e9" d="M100 500h100v100H100z"/><path fill="#f2e2eb" d="M200 500h100v100H200z"/><path fill="#ede2e8" d="M300 500h100v100H300z"/><path fill="#e5dee8" d="M400 500h100v100H400z"/><path fill="#ded4e3" d="M500 500h100v100H500z"/><path fill="#ddd0e6" d="M600 500h100v100H600z"/><path fill="#d9cfd4" d="M700 500h100v100H700z"/></svg>