<svg xmlns="http://www.w3.org/2000/svg" viewBox="0 0 800 1000"><defs/><path fill="#e1ceb2" d="M0 0h100v100H0z"/><path fill="#dccaaa" d="M100 0h100v100H100z"/><path fill="#decdb0" d="M200 0h100v100H200z"/><path fill="#dfcdb0" d="M300 0h100v100H300z"/><path fill="#deccaf" d="M400 0h100v100H400z"/><path fill="#dfccb0" d="M500 0h100v100H500z"/><path fill="#deccaf" d="M600 0h100v100H600z"/><path fill="#e1cdae" d="M700 0h100v100H700z"/><path fill="#ddc9a8" d="M0 100h100v100H0z"/><path fill="#d5cebd" d="M100 100h100v100H100z"/><path fill="#d7d3c9" d="M200 100h100v100H200z"/><path fill="#dbd5ca" d="M300 100h100v100H300z"/><path fill="#dcd7ce" d="M400 100h100v100H400z"/><path fill="#dbd5cb" d="M500 100h100v100H500z"/><path fill="#dbd7cd" d="M600 100h100v100H600z"/><path fill="#dacaac" d="M700 100h100v100H700z"/><path fill="#dcc8aa" d="M0 200h100v100H0z"/><path fill="#dcd0c3" d="M100 200h100v100H100z"/><path fill="#e2d9d1" d="M200 200h100v100H200z"/><path fill="#ded6cb" d="M300 200h100v100H300z"/><path fill="#dfd6ca" d="M400 200h100v100H400z"/><path fill="#e4d9ce" d="M500 200h100v100H500z"/><path fill="#e5e0d9" d="M600 200h100v100H600z"/><path fill="#d9c9ae" d="M700 200h100v100H700z"/><path fill="#dbc9ac" d="M0 300h100v100H0z"/><path fill="#babeb1" d="M100 300h100v100H100z"/><path fill="#d1ccc5" d="M200 300h100v100H200z"/><path fill="#e2dad4" d="M300 300h100v100H300z"/><path fill="#e1d8d0" d="M400 300h100v100H400z"/><path fill="#ded8d4" d="M500 300h100v100H500z"/><path fill="#d3ccc4" d="M600 300h100v100H600z"/><path fill="#d7c4a7" d="M700 300h100v100H700z"/><path fill="#dcc8ac" d="M0 400h100v100H0z"/><path fill="#aec5bf" d="M100 400h100v100H100z"/><path fill="#cacdcb" d="M200 400h100v100H200z"/><path fill="#ded8d5" d="M300 400h100v100H300z"/><path fill="#d1cac6" d="M400 400h100v100H400z"/><path fill="#dad2ce" d="M500 400h100v100H500z"/><path fill="#d6cec6" d="M600 400h100v100H600z"/><path fill="#d5c3a6" d="M700 400h100v100H700z"/><path fill="#dcc8aa" d="M0 500h100v100H0z"/><path fill="#b5bfb6" d="M100 500h100v100H100z"/><path fill="#cbc8c4" d="M200 500h100v100H200z"/><path fill="#cfc7c2" d="M300 500h100v100H300z"/><path fill="#cec8c4" d="M400 500h100v100H400z"/><path fill="#ccc5bf" d="M500 500h100v100H500z"/><path fill="#bcb2a9" d="M600 500h100v100H600z"/><path fill="#dccaad" d="M700 500h100v100H700zM0 600h100v100H0z"/><path fill="#afa497" d="M100 600h100v100H100z"/><path fill="#b3a9a1" d="M200 600h100v100H200z"/><path fill="#cac3b4" d="M300 600h100v100H300z"/><path fill="#b4aa9f" d="M400 600h100v100H400z"/><path fill="#b6aaa3" d="M500 600h100v100H500z"/><path fill="#ac9e90" d="M600 600h100v100H600z"/><path fill="#d9c7ab" d="M700 600h100v100H700z"/><path fill="#dbc9ac" d="M0 700h100v100H0z"/><path fill="#b2a89d" d="M100 700h100v100H100z"/><path fill="#978e84" d="M200 700h100v100H200z"/><path fill="#99a083" d="M300 700h100v100H300z"/><path fill="#b7a57d" d="M400 700h100v100H400z"/><path fill="#c3ac90" d="M500 700h100v100H500z"/><path fill="#cab493" d="M600 700h100v100H600z"/><path fill="#d7c4a6" d="M700 700h100v100H700z"/><path fill="#dcc9aa" d="M0 800h100v100H0z"/><path fill="#c4b59f" d="M100 800h100v100H100z"/><path fill="#beb19c" d="M200 800h100v100H200z"/><path fill="#cdba9b" d="M300 800h100v100H300z"/><path fill="#d2be9d" d="M400 800h100v100H400z"/><path fill="#d2be99" d="M500 800h100v100H500z"/><path fill="#d4bf9c" d="M600 800h100v100H600z"/><path fill="#dcc6a7" d="M700 800h100v100H700z"/><path fill="#d9c5a8" d="M0 900h100v100H0z"/><path fill="#dfc6a3" d="M100 900h100v100H100z"/><path fill="#e1c9a8" d="M200 900h100v100H200z"/><path fill="#dfc8a9" d="M300 900h100v100H300z"/><path fill="#dec7a8" d="M400 900h100v100H400z"/><path fill="#dec7a9" d="M500 900h100v100H500z"/><path fill="#dec7a7" d="M600 900h100v100H600z"/><path fill="#dac2a1" d="M700 900h100v100H700z"/></svg>