<svg xmlns="http://www.w3.org/2000/svg" viewBox="0 0 800 500"><defs/><path fill="#623e1a" d="M0 0h100v100H0z"/><path fill="#6e5238" d="M100 0h100v100H100z"/><path fill="#695745" d="M200 0h100v100H200z"/><path fill="#735d47" d="M300 0h100v100H300z"/><path fill="#7d6851" d="M400 0h100v100H400z"/><path fill="#83715a" d="M500 0h100v100H500z"/><path fill="#958164" d="M600 0h100v100H600z"/><path fill="#a37c44" d="M700 0h100v100H700z"/><path fill="#5b3410" d="M0 100h100v100H0z"/><path fill="#827568" d="M100 100h100v100H100z"/><path fill="#b6bfc6" d="M200 100h100v100H200z"/><path fill="#b0b7bc" d="M300 100h100v100H300z"/><path fill="#b8bfc5" d="M400 100h100v100H400z"/><path fill="#bbc2ca" d="M500 100h100v100H500z"/><path fill="#bdc0c2" d="M600 100h100v100H600z"/><path fill="#a37e4c" d="M700 100h100v100H700z"/><path fill="#563310" d="M0 200h100v100H0z"/><path fill="#7c7063" d="M100 200h100v100H100z"/><path fill="#a6acb2" d="M200 200h100v100H200z"/><path fill="#9b9da1" d="M300 200h100v100H300z"/><path fill="#adb0b3" d="M400 200h100v100H400z"/><path fill="#b6babe" d="M500 200h100v100H500z"/><path fill="#b5b6b6" d="M600 200h100v100H600z"/><path fill="#a58555" d="M700 200h100v100H700z"/><path fill="#683b24" d="M0 300h100v100H0z"/><path fill="#897871" d="M100 300h100v100H100z"/><path fill="#a9b1b5" d="M200 300h100v100H200z"/><path fill="#8f9296" d="M300 300h100v100H300z"/><path fill="#95989c" d="M400 300h100v100H400zm100 0h100v100H500z"/><path fill="#a4a5a5" d="M600 300h100v100H600z"/><path fill="#aa8c5e" d="M700 300h100v100H700z"/><path fill="#652614" d="M0 400h100v100H0z"/><path fill="#836b64" d="M100 400h100v100H100z"/><path fill="#adb5b7" d="M200 400h100v100H200z"/><path fill="#989a9d" d="M300 400h100v100H300z"/><path fill="#9fa0a2" d="M400 400h100v100H400z"/><path fill="#96979a" d="M500 400h100v100H500z"/><path fill="#939190" d="M600 400h100v100H600z"/><path fill="#9a7748" d="M700 400h100v100H700z"/></svg>