<svg xmlns="http://www.w3.org/2000/svg" viewBox="0 0 800 600"><defs/><path fill="#fff6eb" d="M0 0h100v100H0z"/><path fill="#bfe2e4" d="M100 0h100v100H100z"/><path fill="#d7e6eb" d="M200 0h100v100H200z"/><path fill="#fff9f3" d="M300 0h100v100H300z"/><path fill="#f6f3ee" d="M400 0h100v100H400z"/><path fill="#fff8f2" d="M500 0h100v100H500z"/><path fill="#b2f4f5" d="M600 0h100v100H600z"/><path fill="#aaeff7" d="M700 0h100v100H700z"/><path fill="#f2e7d0" d="M0 100h100v100H0z"/><path fill="#3fb1b9" d="M100 100h100v100H100z"/><path fill="#b1b3ae" d="M200 100h100v100H200z"/><path fill="#f1dcc7" d="M300 100h100v100H300z"/><path fill="#faf0e0" d="M400 100h100v100H400z"/><path fill="#b6a58c" d="M500 100h100v100H500z"/><path fill="#28bab5" d="M600 100h100v100H600z"/><path fill="#3bc7e0" d="M700 100h100v100H700z"/><path fill="#d8e4d5" d="M0 200h100v100H0z"/><path fill="#44babd" d="M100 200h100v100H100z"/><path fill="#7c6c69" d="M200 200h100v100H200z"/><path fill="#938d83" d="M300 200h100v100H300z"/><path fill="#ab9ab2" d="M400 200h100v100H400z"/><path fill="#837063" d="M500 200h100v100H500z"/><path fill="#626775" d="M600 200h100v100H600z"/><path fill="#637889" d="M700 200h100v100H700z"/><path fill="#e9e3d4" d="M0 300h100v100H0z"/><path fill="#37bac5" d="M100 300h100v100H100z"/><path fill="#56584a" d="M200 300h100v100H200z"/><path fill="#8c6a44" d="M300 300h100v100H300z"/><path fill="#7d644b" d="M400 300h100v100H400z"/><path fill="#957a66" d="M500 300h100v100H500z"/><path fill="#6a6e61" d="M600 300h100v100H600z"/><path fill="#907c66" d="M700 300h100v100H700z"/><path fill="#f0d6bb" d="M0 400h100v100H0z"/><path fill="#4c766a" d="M100 400h100v100H100z"/><path fill="#6c9488" d="M200 400h100v100H200z"/><path fill="#a99672" d="M300 400h100v100H300z"/><path fill="#d5e2ca" d="M400 400h100v100H400z"/><path fill="#a7a89e" d="M500 400h100v100H500z"/><path fill="#4f5e5a" d="M600 400h100v100H600z"/><path fill="#8c998d" d="M700 400h100v100H700z"/><path fill="#e5dac6" d="M0 500h100v100H0z"/><path fill="#d8b495" d="M100 500h100v100H100z"/><path fill="#e5d7d5" d="M200 500h100v100H200z"/><path fill="#d2e1df" d="M300 500h100v100H300z"/><path fill="#ebfcf6" d="M400 500h100v100H400z"/><path fill="#dfefed" d="M500 500h100v100H500z"/><path fill="#cdd6df" d="M600 500h100v100H600z"/><path fill="#e4efea" d="M700 500h100v100H700z"/></svg>