<svg xmlns="http://www.w3.org/2000/svg" viewBox="0 0 800 500"><defs/><path fill="#b4afa7" d="M0 0h100v100H0z"/><path fill="#9b9a94" d="M100 0h100v100H100z"/><path fill="#7799a6" d="M200 0h100v100H200z"/><path fill="#73a0c9" d="M300 0h100v100H300z"/><path fill="#709dc9" d="M400 0h100v100H400z"/><path fill="#548666" d="M500 0h100v100H500z"/><path fill="#537e4a" d="M600 0h100v100H600z"/><path fill="#b1afa7" d="M700 0h100v100H700z"/><path fill="#adaaa5" d="M0 100h100v100H0z"/><path fill="#9c9b95" d="M100 100h100v100H100z"/><path fill="#698d5c" d="M200 100h100v100H200z"/><path fill="#7e958d" d="M300 100h100v100H300z"/><path fill="#9aa5bc" d="M400 100h100v100H400z"/><path fill="#538b68" d="M500 100h100v100H500z"/><path fill="#577d4c" d="M600 100h100v100H600z"/><path fill="#b8b2ab" d="M700 100h100v100H700z"/><path fill="#b0adaa" d="M0 200h100v100H0z"/><path fill="#a6a5a0" d="M100 200h100v100H100z"/><path fill="#6c8d57" d="M200 200h100v100H200z"/><path fill="#99a78d" d="M300 200h100v100H300z"/><path fill="#b8b9b4" d="M400 200h100v100H400z"/><path fill="#76a055" d="M500 200h100v100H500z"/><path fill="#767250" d="M600 200h100v100H600z"/><path fill="#b7b0ad" d="M700 200h100v100H700z"/><path fill="#b5b4b3" d="M0 300h100v100H0z"/><path fill="#babcb7" d="M100 300h100v100H100z"/><path fill="#acb4a0" d="M200 300h100v100H200z"/><path fill="#bcbab0" d="M300 300h100v100H300z"/><path fill="#bebbaf" d="M400 300h100v100H400z"/><path fill="#aeb696" d="M500 300h100v100H500z"/><path fill="#a1968e" d="M600 300h100v100H600z"/><path fill="#b6b3b0" d="M700 300h100v100H700z"/><path fill="#b3b3b3" d="M0 400h100v100H0z"/><path fill="#cccfcf" d="M100 400h100v100H100z"/><path fill="#d1cecd" d="M200 400h100v100H200z"/><path fill="#cdc6bc" d="M300 400h100v100H300z"/><path fill="#ccc6ba" d="M400 400h100v100H400z"/><path fill="#c1bcbb" d="M500 400h100v100H500z"/><path fill="#939798" d="M600 400h100v100H600z"/><path fill="#b8bab7" d="M700 400h100v100H700z"/></svg>