<svg xmlns="http://www.w3.org/2000/svg" viewBox="0 0 800 500"><defs/><path fill="#e0d1bc" d="M0 0h100v100H0z"/><path fill="#c8ae98" d="M100 0h100v100H100z"/><path fill="#c8b1a1" d="M200 0h100v100H200z"/><path fill="#c7b4a5" d="M300 0h100v100H300z"/><path fill="#cfc8ba" d="M400 0h100v100H400z"/><path fill="#ccc0b0" d="M500 0h100v100H500z"/><path fill="#c0aca0" d="M600 0h100v100H600z"/><path fill="#ccbead" d="M700 0h100v100H700z"/><path fill="#dbc4ad" d="M0 100h100v100H0z"/><path fill="#c1a087" d="M100 100h100v100H100z"/><path fill="#ad8074" d="M200 100h100v100H200z"/><path fill="#af8d82" d="M300 100h100v100H300z"/><path fill="#c1bbad" d="M400 100h100v100H400z"/><path fill="#b8ab9c" d="M500 100h100v100H500z"/><path fill="#b19e92" d="M600 100h100v100H600z"/><path fill="#ccbdad" d="M700 100h100v100H700z"/><path fill="#bea28b" d="M0 200h100v100H0z"/><path fill="#c3ab96" d="M100 200h100v100H100z"/><path fill="#b8a599" d="M200 200h100v100H200z"/><path fill="#a89e92" d="M300 200h100v100H300z"/><path fill="#aaa295" d="M400 200h100v100H400z"/><path fill="#b1a290" d="M500 200h100v100H500z"/><path fill="#a89b8b" d="M600 200h100v100H600z"/><path fill="#b0a495" d="M700 200h100v100H700z"/><path fill="#ae896e" d="M0 300h100v100H0z"/><path fill="#b0937d" d="M100 300h100v100H100z"/><path fill="#c4b5a6" d="M200 300h100v100H200z"/><path fill="#a88f7b" d="M300 300h100v100H300z"/><path fill="#91715b" d="M400 300h100v100H400z"/><path fill="#a59481" d="M500 300h100v100H500z"/><path fill="#9c8e7f" d="M600 300h100v100H600z"/><path fill="#908a73" d="M700 300h100v100H700z"/><path fill="#bfa78b" d="M0 400h100v100H0z"/><path fill="#b8a28e" d="M100 400h100v100H100z"/><path fill="#b9aa96" d="M200 400h100v100H200z"/><path fill="#b79a8d" d="M300 400h100v100H300z"/><path fill="#a9897d" d="M400 400h100v100H400z"/><path fill="#a49787" d="M500 400h100v100H500z"/><path fill="#9b8a7b" d="M600 400h100v100H600z"/><path fill="#9a9479" d="M700 400h100v100H700z"/></svg>