<svg xmlns="http://www.w3.org/2000/svg" viewBox="0 0 800 400"><defs/><path fill="#797060" d="M0 0h100v100H0z"/><path fill="#616359" d="M100 0h100v100H100z"/><path fill="#6f8177" d="M200 0h100v100H200z"/><path fill="#91b4ad" d="M300 0h100v100H300z"/><path fill="#96b3af" d="M400 0h100v100H400z"/><path fill="#96b2ab" d="M500 0h100v100H500z"/><path fill="#9fa794" d="M600 0h100v100H600z"/><path fill="#57564d" d="M700 0h100v100H700z"/><path fill="#534e42" d="M0 100h100v100H0z"/><path fill="#363b33" d="M100 100h100v100H100z"/><path fill="#566a61" d="M200 100h100v100H200z"/><path fill="#3c7d81" d="M300 100h100v100H300z"/><path fill="#2e8088" d="M400 100h100v100H400z"/><path fill="#437b7f" d="M500 100h100v100H500z"/><path fill="#5c7063" d="M600 100h100v100H600z"/><path fill="#4f4b3d" d="M700 100h100v100H700z"/><path fill="#414039" d="M0 200h100v100H0z"/><path fill="#2c332d" d="M100 200h100v100H100z"/><path fill="#605e4e" d="M200 200h100v100H200z"/><path fill="#596054" d="M300 200h100v100H300z"/><path fill="#7a9287" d="M400 200h100v100H400z"/><path fill="#697364" d="M500 200h100v100H500z"/><path fill="#47463c" d="M600 200h100v100H600z"/><path fill="#3a372f" d="M700 200h100v100H700z"/><path fill="#41413a" d="M0 300h100v100H0z"/><path fill="#2e2f26" d="M100 300h100v100H100z"/><path fill="#625239" d="M200 300h100v100H200z"/><path fill="#534633" d="M300 300h100v100H300z"/><path fill="#65563e" d="M400 300h100v100H400z"/><path fill="#594f3e" d="M500 300h100v100H500z"/><path fill="#312f28" d="M600 300h100v100H600z"/><path fill="#322c23" d="M700 300h100v100H700z"/></svg>