<svg xmlns="http://www.w3.org/2000/svg" viewBox="0 0 800 500"><defs/><path fill="#e1dfe6" d="M0 0h100v100H0z"/><path fill="#887db9" d="M100 0h100v100H100z"/><path fill="#a798c9" d="M200 0h100v100H200z"/><path fill="#c3d7ee" d="M300 0h100v100H300z"/><path fill="#cce4ea" d="M400 0h100v100H400z"/><path fill="#aec2e9" d="M500 0h100v100H500z"/><path fill="#b0bbe5" d="M600 0h100v100H600z"/><path fill="#acaad3" d="M700 0h100v100H700z"/><path fill="#e9e9d2" d="M0 100h100v100H0z"/><path fill="#9b7a8b" d="M100 100h100v100H100z"/><path fill="#9e94d8" d="M200 100h100v100H200z"/><path fill="#c8e9f7" d="M300 100h100v100H300z"/><path fill="#acddec" d="M400 100h100v100H400z"/><path fill="#7ca8e9" d="M500 100h100v100H500z"/><path fill="#9aa3dc" d="M600 100h100v100H600z"/><path fill="#abb3d6" d="M700 100h100v100H700z"/><path fill="#ffc2b4" d="M0 200h100v100H0z"/><path fill="#b57471" d="M100 200h100v100H100z"/><path fill="#7b74a2" d="M200 200h100v100H200z"/><path fill="#b7bbd5" d="M300 200h100v100H300z"/><path fill="#c2babb" d="M400 200h100v100H400z"/><path fill="#7883ac" d="M500 200h100v100H500z"/><path fill="#6979c7" d="M600 200h100v100H600z"/><path fill="#9ab4d9" d="M700 200h100v100H700z"/><path fill="#f38b96" d="M0 300h100v100H0z"/><path fill="#b76d95" d="M100 300h100v100H100z"/><path fill="#a798ad" d="M200 300h100v100H200z"/><path fill="#86a1b4" d="M300 300h100v100H300z"/><path fill="#90b9c5" d="M400 300h100v100H400z"/><path fill="#8e8fcb" d="M500 300h100v100H500z"/><path fill="#874181" d="M600 300h100v100H600z"/><path fill="#b596a6" d="M700 300h100v100H700z"/><path fill="#fcfbfb" d="M0 400h100v100H0z"/><path fill="#faf6f5" d="M100 400h100v100H100z"/><path fill="#fdfffe" d="M200 400h100v100H200z"/><path fill="#dbeee9" d="M300 400h100v100H300z"/><path fill="#def3f0" d="M400 400h100v100H400z"/><path fill="#fbfffc" d="M500 400h100v100H500z"/><path fill="#ff9088" d="M600 400h100v100H600z"/><path fill="#ffc9c5" d="M700 400h100v100H700z"/></svg>