<svg xmlns="http://www.w3.org/2000/svg" viewBox="0 0 800 600"><defs/><path fill="#fff" d="M0 0h100v100H0z"/><path fill="#f1f0f2" d="M100 0h100v100H100z"/><path fill="#f4f4f4" d="M200 0h100v100H200z"/><path fill="#f8f9f9" d="M300 0h100v100H300z"/><path fill="#efefef" d="M400 0h100v100H400z"/><path fill="#ededee" d="M500 0h100v100H500z"/><path fill="#f6f6f7" d="M600 0h100v100H600z"/><path fill="#f2f2f4" d="M700 0h100v100H700z"/><path fill="#fdfdfd" d="M0 100h100v100H0z"/><path fill="#bcbcbe" d="M100 100h100v100H100z"/><path fill="#a0a1a5" d="M200 100h100v100H200z"/><path fill="#dededf" d="M300 100h100v100H300z"/><path fill="#b5b5b7" d="M400 100h100v100H400z"/><path fill="#9b9ba0" d="M500 100h100v100H500z"/><path fill="#d2d3d5" d="M600 100h100v100H600z"/><path fill="#e1e0e0" d="M700 100h100v100H700z"/><path fill="#f7f7f8" d="M0 200h100v100H0z"/><path fill="#bbbbbd" d="M100 200h100v100H100z"/><path fill="#c6c6c9" d="M200 200h100v100H200z"/><path fill="#c7c7ca" d="M300 200h100v100H300z"/><path fill="#b3b3b7" d="M400 200h100v100H400z"/><path fill="#999a9f" d="M500 200h100v100H500z"/><path fill="#b1b1b3" d="M600 200h100v100H600z"/><path fill="#edebeb" d="M700 200h100v100H700z"/><path fill="#e9e9ea" d="M0 300h100v100H0z"/><path fill="#c1c1c2" d="M100 300h100v100H100z"/><path fill="#bcbcbf" d="M200 300h100v100H200z"/><path fill="#b8b9bb" d="M300 300h100v100H300z"/><path fill="#c1c1c5" d="M400 300h100v100H400z"/><path fill="#a1a1a6" d="M500 300h100v100H500z"/><path fill="#8d8c8d" d="M600 300h100v100H600z"/><path fill="#93918f" d="M700 300h100v100H700z"/><path fill="#dedfe0" d="M0 400h100v100H0z"/><path fill="#cbcccf" d="M100 400h100v100H100z"/><path fill="#c7c7ca" d="M200 400h100v100H200z"/><path fill="#c9c9cb" d="M300 400h100v100H300z"/><path fill="#c6c6c8" d="M400 400h100v100H400z"/><path fill="#bdbec1" d="M500 400h100v100H500z"/><path fill="#9fa1a0" d="M600 400h100v100H600z"/><path fill="#757470" d="M700 400h100v100H700z"/><path fill="#f5f6f5" d="M0 500h100v100H0z"/><path fill="#e8e8e9" d="M100 500h100v100H100z"/><path fill="#eaeaec" d="M200 500h100v100H200z"/><path fill="#f9f9f9" d="M300 500h100v100H300z"/><path fill="#ececec" d="M400 500h100v100H400z"/><path fill="#efefef" d="M500 500h100v100H500z"/><path fill="#d9d9d9" d="M600 500h100v100H600z"/><path fill="#c9c9c8" d="M700 500h100v100H700z"/></svg>