<svg xmlns="http://www.w3.org/2000/svg" viewBox="0 0 800 1500"><defs/><path d="M0 0h100v100H0z"/><path fill="#010101" d="M100 0h100v100H100z"/><path d="M200 0h100v100H200zm100 0h100v100H300zm100 0h100v100H400zm100 0h100v100H500zm100 0h100v100H600zm100 0h100v100H700zM0 100h100v100H0zm100 0h100v100H100zm100 0h100v100H200zm100 0h100v100H300zm100 0h100v100H400zm100 0h100v100H500zm100 0h100v100H600zm100 0h100v100H700z"/><path fill="#080808" d="M0 200h100v100H0z"/><path fill="#181818" d="M100 200h100v100H100z"/><path fill="#0f0f0f" d="M200 200h100v100H200z"/><path fill="#0d0d0d" d="M300 200h100v100H300z"/><path fill="#111" d="M400 200h100v100H400z"/><path fill="#121212" d="M500 200h100v100H500z"/><path fill="#030303" d="M600 200h100v100H600z"/><path d="M700 200h100v100H700z"/><path fill="#1f1f1f" d="M0 300h100v100H0z"/><path fill="#434343" d="M100 300h100v100H100z"/><path fill="#3e3e3e" d="M200 300h100v100H200z"/><path fill="#3f3f3f" d="M300 300h100v100H300z"/><path fill="#3e3e3e" d="M400 300h100v100H400z"/><path fill="#434343" d="M500 300h100v100H500z"/><path fill="#2d2d2d" d="M600 300h100v100H600z"/><path fill="#040505" d="M700 300h100v100H700z"/><path fill="#242424" d="M0 400h100v100H0z"/><path fill="#222" d="M100 400h100v100H100z"/><path fill="#2c2d2d" d="M200 400h100v100H200z"/><path fill="#1a1a1a" d="M300 400h100v100H300z"/><path fill="#333" d="M400 400h100v100H400z"/><path fill="#353535" d="M500 400h100v100H500z"/><path fill="#2b2b2b" d="M600 400h100v100H600z"/><path fill="#0a0a0a" d="M700 400h100v100H700z"/><path fill="#010101" d="M0 500h100v100H0z"/><path d="M100 500h100v100H100z"/><path fill="#1e1d19" d="M200 500h100v100H200z"/><path fill="#61605e" d="M300 500h100v100H300z"/><path fill="#282929" d="M400 500h100v100H400z"/><path d="M500 500h100v100H500z"/><path fill="#010000" d="M600 500h100v100H600z"/><path fill="#03111b" d="M700 500h100v100H700z"/><path fill="#000002" d="M0 600h100v100H0z"/><path d="M100 600h100v100H100z"/><path fill="#040207" d="M200 600h100v100H200z"/><path fill="#918f95" d="M300 600h100v100H300z"/><path fill="#494041" d="M400 600h100v100H400z"/><path fill="#252323" d="M500 600h100v100H500z"/><path fill="#231b18" d="M600 600h100v100H600z"/><path fill="#021f33" d="M700 600h100v100H700z"/><path fill="#131302" d="M0 700h100v100H0z"/><path fill="#80800c" d="M100 700h100v100H100z"/><path fill="#989610" d="M200 700h100v100H200z"/><path fill="#494617" d="M300 700h100v100H300z"/><path fill="#747278" d="M400 700h100v100H400z"/><path fill="#ccc4bf" d="M500 700h100v100H500z"/><path fill="#1d1312" d="M600 700h100v100H600z"/><path fill="#001625" d="M700 700h100v100H700z"/><path fill="#363300" d="M0 800h100v100H0z"/><path fill="#d8e43c" d="M100 800h100v100H100z"/><path fill="#c4de4f" d="M200 800h100v100H200z"/><path fill="#9f9a24" d="M300 800h100v100H300z"/><path fill="#6e6e77" d="M400 800h100v100H400z"/><path fill="#9f998f" d="M500 800h100v100H500z"/><path fill="#24221d" d="M600 800h100v100H600z"/><path fill="#0c202f" d="M700 800h100v100H700z"/><path fill="#2c2b06" d="M0 900h100v100H0z"/><path fill="#aeb622" d="M100 900h100v100H100z"/><path fill="#a2b12a" d="M200 900h100v100H200z"/><path fill="#8f8b32" d="M300 900h100v100H300z"/><path fill="#514f53" d="M400 900h100v100H400z"/><path fill="#57544a" d="M500 900h100v100H500z"/><path fill="#2e2b28" d="M600 900h100v100H600z"/><path fill="#0b1923" d="M700 900h100v100H700z"/><path fill="#172025" d="M0 1000h100v100H0z"/><path fill="#3c4338" d="M100 1000h100v100H100z"/><path fill="#3d3d29" d="M200 1000h100v100H200z"/><path fill="#202d32" d="M300 1000h100v100H300z"/><path fill="#060607" d="M400 1000h100v100H400z"/><path fill="#010101" d="M500 1000h100v100H500z"/><path d="M600 1000h100v100H600zm100 0h100v100H700z"/><path fill="#000101" d="M0 1100h100v100H0z"/><path fill="#323337" d="M100 1100h100v100H100z"/><path fill="#35363d" d="M200 1100h100v100H200z"/><path fill="#2b2c2e" d="M300 1100h100v100H300z"/><path fill="#464747" d="M400 1100h100v100H400z"/><path fill="#3d3d3e" d="M500 1100h100v100H500z"/><path fill="#292929" d="M600 1100h100v100H600z"/><path fill="#000001" d="M700 1100h100v100H700z"/><path fill="#050505" d="M0 1200h100v100H0z"/><path fill="#2f2f2f" d="M100 1200h100v100H100z"/><path fill="#2c2a27" d="M200 1200h100v100H200z"/><path fill="#211e1a" d="M300 1200h100v100H300z"/><path fill="#3c3a37" d="M400 1200h100v100H400z"/><path fill="#312e2b" d="M500 1200h100v100H500z"/><path fill="#161515" d="M600 1200h100v100H600z"/><path d="M700 1200h100v100H700zM0 1300h100v100H0z"/><path fill="#000102" d="M100 1300h100v100H100z"/><path fill="#010a16" d="M200 1300h100v100H200z"/><path fill="#021125" d="M300 1300h100v100H300z"/><path fill="#000815" d="M400 1300h100v100H400z"/><path fill="#000c1a" d="M500 1300h100v100H500z"/><path fill="#000306" d="M600 1300h100v100H600z"/><path d="M700 1300h100v100H700zM0 1400h100v100H0z"/><path fill="#020203" d="M100 1400h100v100H100z"/><path fill="#050f1c" d="M200 1400h100v100H200z"/><path fill="#071b34" d="M300 1400h100v100H300z"/><path fill="#051120" d="M400 1400h100v100H400z"/><path fill="#061221" d="M500 1400h100v100H500z"/><path fill="#010306" d="M600 1400h100v100H600z"/><path d="M700 1400h100v100H700z"/></svg>