<svg xmlns="http://www.w3.org/2000/svg" viewBox="0 0 800 500"><defs/><path fill="#eadae7" d="M0 0h100v100H0z"/><path fill="#d0bdc5" d="M100 0h100v100H100z"/><path fill="#bbdad9" d="M200 0h100v100H200z"/><path fill="#bce1e2" d="M300 0h100v100H300z"/><path fill="#bddddc" d="M400 0h100v100H400z"/><path fill="#bae5dc" d="M500 0h100v100H500z"/><path fill="#bededc" d="M600 0h100v100H600z"/><path fill="#e4d4e2" d="M700 0h100v100H700z"/><path fill="#c896b9" d="M0 100h100v100H0z"/><path fill="#705064" d="M100 100h100v100H100z"/><path fill="#6b9487" d="M200 100h100v100H200z"/><path fill="#589989" d="M300 100h100v100H300z"/><path fill="#3ba296" d="M400 100h100v100H400z"/><path fill="#3c682d" d="M500 100h100v100H500z"/><path fill="#3f846a" d="M600 100h100v100H600z"/><path fill="#b286b5" d="M700 100h100v100H700z"/><path fill="#c696b4" d="M0 200h100v100H0z"/><path fill="#605c69" d="M100 200h100v100H100z"/><path fill="#4d9768" d="M200 200h100v100H200z"/><path fill="#4b9d5b" d="M300 200h100v100H300z"/><path fill="#69b8a7" d="M400 200h100v100H400z"/><path fill="#3d7d3a" d="M500 200h100v100H500z"/><path fill="#33896b" d="M600 200h100v100H600z"/><path fill="#796780" d="M700 200h100v100H700z"/><path fill="#bd97a9" d="M0 300h100v100H0z"/><path fill="#65535a" d="M100 300h100v100H100z"/><path fill="#4882a3" d="M200 300h100v100H200z"/><path fill="#4c80ad" d="M300 300h100v100H300z"/><path fill="#5782b3" d="M400 300h100v100H400z"/><path fill="#6f9083" d="M500 300h100v100H500z"/><path fill="#657d67" d="M600 300h100v100H600z"/><path fill="#726063" d="M700 300h100v100H700z"/><path fill="#ac99aa" d="M0 400h100v100H0z"/><path fill="#555382" d="M100 400h100v100H100z"/><path fill="#5360af" d="M200 400h100v100H200z"/><path fill="#4e5cb1" d="M300 400h100v100H300z"/><path fill="#475ab4" d="M400 400h100v100H400z"/><path fill="#696a9b" d="M500 400h100v100H500z"/><path fill="#6e6c89" d="M600 400h100v100H600z"/><path fill="#82789e" d="M700 400h100v100H700z"/></svg>