<svg xmlns="http://www.w3.org/2000/svg" viewBox="0 0 800 800"><defs/><path fill="#fafbfa" d="M0 0h100v100H0zm100 0h100v100H100z"/><path fill="#fbfafa" d="M200 0h100v100H200zm100 0h100v100H300zm100 0h100v100H400z"/><path fill="#fcfafa" d="M500 0h100v100H500zm100 0h100v100H600z"/><path fill="#fafbfa" d="M700 0h100v100H700z"/><path fill="#f9f0f6" d="M0 100h100v100H0z"/><path fill="#f4f2f7" d="M100 100h100v100H100z"/><path fill="#f0f7f8" d="M200 100h100v100H200z"/><path fill="#eff4f7" d="M300 100h100v100H300z"/><path fill="#f0f7f9" d="M400 100h100v100H400z"/><path fill="#e8f6f5" d="M500 100h100v100H500z"/><path fill="#e5f1f2" d="M600 100h100v100H600z"/><path fill="#f4f1f5" d="M700 100h100v100H700z"/><path fill="#e4e5ec" d="M0 200h100v100H0z"/><path fill="#dce3ed" d="M100 200h100v100H100z"/><path fill="#d9e7ee" d="M200 200h100v100H200z"/><path fill="#dee8ee" d="M300 200h100v100H300z"/><path fill="#e3ebf2" d="M400 200h100v100H400z"/><path fill="#dcf0f1" d="M500 200h100v100H500z"/><path fill="#cceaec" d="M600 200h100v100H600z"/><path fill="#e0d3eb" d="M700 200h100v100H700z"/><path fill="#e0dde7" d="M0 300h100v100H0z"/><path fill="#cedbe6" d="M100 300h100v100H100z"/><path fill="#dbe2e7" d="M200 300h100v100H200z"/><path fill="#cfdbe5" d="M300 300h100v100H300z"/><path fill="#e2e3ef" d="M400 300h100v100H400z"/><path fill="#dfe5ed" d="M500 300h100v100H500z"/><path fill="#cfd5e6" d="M600 300h100v100H600z"/><path fill="#dbcbe9" d="M700 300h100v100H700z"/><path fill="#f5e0ed" d="M0 400h100v100H0z"/><path fill="#e4d6ea" d="M100 400h100v100H100z"/><path fill="#d1d4e3" d="M200 400h100v100H200z"/><path fill="#c5cfe2" d="M300 400h100v100H300z"/><path fill="#e4e0f0" d="M400 400h100v100H400z"/><path fill="#d2dbeb" d="M500 400h100v100H500z"/><path fill="#bccde3" d="M600 400h100v100H600z"/><path fill="#d1d9eb" d="M700 400h100v100H700z"/><path fill="#eae4ed" d="M0 500h100v100H0z"/><path fill="#e7e4f1" d="M100 500h100v100H100z"/><path fill="#c0cedf" d="M200 500h100v100H200z"/><path fill="#bdd1e0" d="M300 500h100v100H300z"/><path fill="#dce3f0" d="M400 500h100v100H400z"/><path fill="#d1e8f0" d="M500 500h100v100H500z"/><path fill="#d1d7ea" d="M600 500h100v100H600z"/><path fill="#b1cbe3" d="M700 500h100v100H700z"/><path fill="#dedff0" d="M0 600h100v100H0z"/><path fill="#eae9f0" d="M100 600h100v100H100z"/><path fill="#f2e2e9" d="M200 600h100v100H200z"/><path fill="#ded0e3" d="M300 600h100v100H300z"/><path fill="#ebe7f0" d="M400 600h100v100H400z"/><path fill="#cadceb" d="M500 600h100v100H500z"/><path fill="#e3dcec" d="M600 600h100v100H600z"/><path fill="#d4badd" d="M700 600h100v100H700z"/><path fill="#f7f7fa" d="M0 700h100v100H0z"/><path fill="#faf8f9" d="M100 700h100v100H100z"/><path fill="#fafafa" d="M200 700h100v100H200z"/><path fill="#fdfdfb" d="M300 700h100v100H300z"/><path fill="#fbfafa" d="M400 700h100v100H400z"/><path fill="#fefbfb" d="M500 700h100v100H500z"/><path fill="#fbfafa" d="M600 700h100v100H600z"/><path fill="#f9f9fa" d="M700 700h100v100H700z"/></svg>