<svg xmlns="http://www.w3.org/2000/svg" viewBox="0 0 800 400"><defs/><path fill="#7f3d2d" d="M0 0h100v100H0z"/><path fill="#6f291d" d="M100 0h100v100H100z"/><path fill="#9f3f30" d="M200 0h100v100H200z"/><path fill="#ae401d" d="M300 0h100v100H300z"/><path fill="#a3421f" d="M400 0h100v100H400z"/><path fill="#9e492f" d="M500 0h100v100H500z"/><path fill="#84492f" d="M600 0h100v100H600z"/><path fill="#714c2d" d="M700 0h100v100H700z"/><path fill="#66291c" d="M0 100h100v100H0z"/><path fill="#783321" d="M100 100h100v100H100z"/><path fill="#b65133" d="M200 100h100v100H200z"/><path fill="#9e4721" d="M300 100h100v100H300z"/><path fill="#944020" d="M400 100h100v100H400z"/><path fill="#9c3f27" d="M500 100h100v100H500z"/><path fill="#8b3923" d="M600 100h100v100H600z"/><path fill="#753921" d="M700 100h100v100H700z"/><path fill="#561f13" d="M0 200h100v100H0z"/><path fill="#782816" d="M100 200h100v100H100z"/><path fill="#ac4325" d="M200 200h100v100H200z"/><path fill="#7d2f17" d="M300 200h100v100H300z"/><path fill="#702d17" d="M400 200h100v100H400z"/><path fill="#963621" d="M500 200h100v100H500z"/><path fill="#87321b" d="M600 200h100v100H600z"/><path fill="#5c3f23" d="M700 200h100v100H700z"/><path fill="#582016" d="M0 300h100v100H0z"/><path fill="#5c2012" d="M100 300h100v100H100z"/><path fill="#652613" d="M200 300h100v100H200z"/><path fill="#591e0d" d="M300 300h100v100H300z"/><path fill="#5f2110" d="M400 300h100v100H400z"/><path fill="#752816" d="M500 300h100v100H500z"/><path fill="#612613" d="M600 300h100v100H600z"/><path fill="#543720" d="M700 300h100v100H700z"/></svg>