<svg xmlns="http://www.w3.org/2000/svg" viewBox="0 0 800 600"><defs/><path fill="#c6bdb1" d="M0 0h100v100H0z"/><path fill="#bfb7b2" d="M100 0h100v100H100z"/><path fill="#c0b7ae" d="M200 0h100v100H200z"/><path fill="#c1b8af" d="M300 0h100v100H300z"/><path fill="#c0b5ac" d="M400 0h100v100H400z"/><path fill="#c4b7af" d="M500 0h100v100H500z"/><path fill="#cabab0" d="M600 0h100v100H600z"/><path fill="#c0ad9b" d="M700 0h100v100H700z"/><path fill="#bbaf51" d="M0 100h100v100H0z"/><path fill="#b2a99c" d="M100 100h100v100H100z"/><path fill="#b7ada2" d="M200 100h100v100H200z"/><path fill="#bbb0a5" d="M300 100h100v100H300z"/><path fill="#b4a89a" d="M400 100h100v100H400z"/><path fill="#bcada6" d="M500 100h100v100H500z"/><path fill="#c3b2a2" d="M600 100h100v100H600z"/><path fill="#b89d3a" d="M700 100h100v100H700z"/><path fill="#bbaf59" d="M0 200h100v100H0z"/><path fill="#bfb4aa" d="M100 200h100v100H100z"/><path fill="#cabbb5" d="M200 200h100v100H200z"/><path fill="#b5a695" d="M300 200h100v100H300z"/><path fill="#b6a799" d="M400 200h100v100H400z"/><path fill="#b49b7f" d="M500 200h100v100H500z"/><path fill="#d4baa7" d="M600 200h100v100H600z"/><path fill="#c0a138" d="M700 200h100v100H700z"/><path fill="#c8b570" d="M0 300h100v100H0z"/><path fill="#a0a69e" d="M100 300h100v100H100z"/><path fill="#789b96" d="M200 300h100v100H200z"/><path fill="#b6988b" d="M300 300h100v100H300z"/><path fill="#b48e80" d="M400 300h100v100H400z"/><path fill="#ae8168" d="M500 300h100v100H500z"/><path fill="#819888" d="M600 300h100v100H600z"/><path fill="#ac9f38" d="M700 300h100v100H700z"/><path fill="#acac82" d="M0 400h100v100H0z"/><path fill="#418c83" d="M100 400h100v100H100z"/><path fill="#057c77" d="M200 400h100v100H200z"/><path fill="#4a8175" d="M300 400h100v100H300z"/><path fill="#567a70" d="M400 400h100v100H400z"/><path fill="#557d6d" d="M500 400h100v100H500z"/><path fill="#18847c" d="M600 400h100v100H600z"/><path fill="#4a8b5e" d="M700 400h100v100H700z"/><path fill="#97ada8" d="M0 500h100v100H0z"/><path fill="#9db3ad" d="M100 500h100v100H100z"/><path fill="#a8b9b3" d="M200 500h100v100H200z"/><path fill="#9bb8b3" d="M300 500h100v100H300z"/><path fill="#9ab4b0" d="M400 500h100v100H400z"/><path fill="#a0b6b2" d="M500 500h100v100H500z"/><path fill="#acb2ab" d="M600 500h100v100H600z"/><path fill="#a7a9a4" d="M700 500h100v100H700z"/></svg>