<svg xmlns="http://www.w3.org/2000/svg" viewBox="0 0 800 600"><defs/><path fill="#f7f6f7" d="M0 0h100v100H0z"/><path fill="#f5f6f5" d="M100 0h100v100H100z"/><path fill="#f7f7f7" d="M200 0h100v100H200zm100 0h100v100H300z"/><path fill="#fafafa" d="M400 0h100v100H400z"/><path fill="#f9f9f9" d="M500 0h100v100H500z"/><path fill="#f6f6f6" d="M600 0h100v100H600z"/><path fill="#fbfbfb" d="M700 0h100v100H700z"/><path fill="#e7e6e7" d="M0 100h100v100H0z"/><path fill="#dfdfe0" d="M100 100h100v100H100z"/><path fill="#e5e5e6" d="M200 100h100v100H200z"/><path fill="#e3e2e3" d="M300 100h100v100H300z"/><path fill="#d6d6d7" d="M400 100h100v100H400z"/><path fill="#d5d4d5" d="M500 100h100v100H500z"/><path fill="#dcdcdd" d="M600 100h100v100H600z"/><path fill="#dbdbdc" d="M700 100h100v100H700z"/><path fill="#ececec" d="M0 200h100v100H0z"/><path fill="#dededf" d="M100 200h100v100H100z"/><path fill="#b8b7b8" d="M200 200h100v100H200z"/><path fill="#c9c9ca" d="M300 200h100v100H300z"/><path fill="#dad9da" d="M400 200h100v100H400z"/><path fill="#c5c4c5" d="M500 200h100v100H500z"/><path fill="#c0bfc1" d="M600 200h100v100H600z"/><path fill="#d3d2d4" d="M700 200h100v100H700z"/><path fill="#ebeaeb" d="M0 300h100v100H0z"/><path fill="#e1e0e1" d="M100 300h100v100H100z"/><path fill="#d4d4d4" d="M200 300h100v100H200z"/><path fill="#d6d5d6" d="M300 300h100v100H300z"/><path fill="#e9e8e9" d="M400 300h100v100H400z"/><path fill="#e1e1e2" d="M500 300h100v100H500z"/><path fill="#d2d2d3" d="M600 300h100v100H600z"/><path fill="#dcdbdc" d="M700 300h100v100H700z"/><path fill="#eeedee" d="M0 400h100v100H0z"/><path fill="#e3e2e3" d="M100 400h100v100H100z"/><path fill="#f0eff0" d="M200 400h100v100H200z"/><path fill="#edeced" d="M300 400h100v100H300z"/><path fill="#f5f5f5" d="M400 400h100v100H400z"/><path fill="#eaeaeb" d="M500 400h100v100H500z"/><path fill="#ececec" d="M600 400h100v100H600z"/><path fill="#eeedee" d="M700 400h100v100H700z"/><path fill="#fafafa" d="M0 500h100v100H0zm100 0h100v100H100zm100 0h100v100H200z"/><path fill="#fbfbfb" d="M300 500h100v100H300z"/><path fill="#fdfdfd" d="M400 500h100v100H400z"/><path fill="#f7f7f7" d="M500 500h100v100H500z"/><path fill="#f9f9f9" d="M600 500h100v100H600z"/><path fill="#fbfafb" d="M700 500h100v100H700z"/></svg>