<svg xmlns="http://www.w3.org/2000/svg" viewBox="0 0 800 600"><defs/><path fill="#898479" d="M0 0h100v100H0z"/><path fill="#9a9894" d="M100 0h100v100H100z"/><path fill="#8c8a81" d="M200 0h100v100H200z"/><path fill="#878678" d="M300 0h100v100H300z"/><path fill="#878377" d="M400 0h100v100H400z"/><path fill="#928a7d" d="M500 0h100v100H500z"/><path fill="#898375" d="M600 0h100v100H600z"/><path fill="#878170" d="M700 0h100v100H700z"/><path fill="#b9b7b5" d="M0 100h100v100H0z"/><path fill="#eceff8" d="M100 100h100v100H100z"/><path fill="#ced9db" d="M200 100h100v100H200z"/><path fill="#d2e1df" d="M300 100h100v100H300z"/><path fill="#cbdad4" d="M400 100h100v100H400z"/><path fill="#e3eae6" d="M500 100h100v100H500z"/><path fill="#e9eeeb" d="M600 100h100v100H600z"/><path fill="#edeeed" d="M700 100h100v100H700z"/><path fill="#b7b5b4" d="M0 200h100v100H0z"/><path fill="#e3e4eb" d="M100 200h100v100H100z"/><path fill="#c3d0c7" d="M200 200h100v100H200z"/><path fill="#b4c1b9" d="M300 200h100v100H300z"/><path fill="#e1e4e1" d="M400 200h100v100H400z"/><path fill="#dae5d9" d="M500 200h100v100H500z"/><path fill="#dee6df" d="M600 200h100v100H600z"/><path fill="#e8e6e7" d="M700 200h100v100H700z"/><path fill="#b7b6b6" d="M0 300h100v100H0z"/><path fill="#e1e1e9" d="M100 300h100v100H100z"/><path fill="#d8d7db" d="M200 300h100v100H200z"/><path fill="#b9bec1" d="M300 300h100v100H300z"/><path fill="#eae8ea" d="M400 300h100v100H400z"/><path fill="#e3e8e3" d="M500 300h100v100H500z"/><path fill="#e8eae7" d="M600 300h100v100H600z"/><path fill="#ebe7e3" d="M700 300h100v100H700z"/><path fill="#bebec1" d="M0 400h100v100H0z"/><path fill="#d5dbe1" d="M100 400h100v100H100z"/><path fill="#ebede6" d="M200 400h100v100H200z"/><path fill="#fffdf9" d="M300 400h100v100H300z"/><path fill="#ebeaea" d="M400 400h100v100H400z"/><path fill="#e5e4e6" d="M500 400h100v100H500z"/><path fill="#e5e4e7" d="M600 400h100v100H600z"/><path fill="#e1dfdc" d="M700 400h100v100H700z"/><path fill="#a5a3a0" d="M0 500h100v100H0z"/><path fill="#c4c9cc" d="M100 500h100v100H100z"/><path fill="#cbcfca" d="M200 500h100v100H200z"/><path fill="#e0ddd9" d="M300 500h100v100H300z"/><path fill="#d5d4d2" d="M400 500h100v100H400z"/><path fill="#d2d1cf" d="M500 500h100v100H500z"/><path fill="#d7d7d3" d="M600 500h100v100H600z"/><path fill="#c1c0b8" d="M700 500h100v100H700z"/></svg>