<svg xmlns="http://www.w3.org/2000/svg" viewBox="0 0 800 400"><defs/><path fill="#816667" d="M0 0h100v100H0z"/><path fill="#6c4545" d="M100 0h100v100H100z"/><path fill="#5a3f44" d="M200 0h100v100H200z"/><path fill="#5f454e" d="M300 0h100v100H300z"/><path fill="#70525a" d="M400 0h100v100H400z"/><path fill="#71575d" d="M500 0h100v100H500z"/><path fill="#6b535b" d="M600 0h100v100H600z"/><path fill="#6d6067" d="M700 0h100v100H700z"/><path fill="#735559" d="M0 100h100v100H0z"/><path fill="#432228" d="M100 100h100v100H100z"/><path fill="#321d29" d="M200 100h100v100H200z"/><path fill="#3f2432" d="M300 100h100v100H300z"/><path fill="#5c3a44" d="M400 100h100v100H400z"/><path fill="#996c74" d="M500 100h100v100H500z"/><path fill="#875b63" d="M600 100h100v100H600z"/><path fill="#715661" d="M700 100h100v100H700z"/><path fill="#584553" d="M0 200h100v100H0z"/><path fill="#532d2c" d="M100 200h100v100H100z"/><path fill="#593731" d="M200 200h100v100H200z"/><path fill="#46303f" d="M300 200h100v100H300z"/><path fill="#583b46" d="M400 200h100v100H400z"/><path fill="#654554" d="M500 200h100v100H500z"/><path fill="#553848" d="M600 200h100v100H600z"/><path fill="#6f5660" d="M700 200h100v100H700z"/><path fill="#6d535f" d="M0 300h100v100H0z"/><path fill="#543138" d="M100 300h100v100H100z"/><path fill="#824c4f" d="M200 300h100v100H200z"/><path fill="#835162" d="M300 300h100v100H300z"/><path fill="#934d5b" d="M400 300h100v100H400z"/><path fill="#9c545c" d="M500 300h100v100H500z"/><path fill="#844b4a" d="M600 300h100v100H600z"/><path fill="#745558" d="M700 300h100v100H700z"/></svg>