<svg xmlns="http://www.w3.org/2000/svg" viewBox="0 0 800 800"><defs/><path fill="#fff" d="M0 0h100v100H0zm100 0h100v100H100z"/><path fill="#fefdfd" d="M200 0h100v100H200z"/><path fill="#fbf9f7" d="M300 0h100v100H300z"/><path fill="#fbf8f5" d="M400 0h100v100H400z"/><path fill="#fdfcfc" d="M500 0h100v100H500z"/><path fill="#fff" d="M600 0h100v100H600zm100 0h100v100H700zM0 100h100v100H0z"/><path fill="#fcfaf9" d="M100 100h100v100H100z"/><path fill="#f7f2ed" d="M200 100h100v100H200z"/><path fill="#fcf9f6" d="M300 100h100v100H300z"/><path fill="#fcf9f7" d="M400 100h100v100H400z"/><path fill="#f5ede8" d="M500 100h100v100H500z"/><path fill="#faf6f3" d="M600 100h100v100H600z"/><path fill="#fff" d="M700 100h100v100H700z"/><path fill="#fffefe" d="M0 200h100v100H0z"/><path fill="#f3ece6" d="M100 200h100v100H100z"/><path fill="#fffdfd" d="M200 200h100v100H200z"/><path fill="#f6f7f7" d="M300 200h100v100H300z"/><path fill="#f8f8f9" d="M400 200h100v100H400z"/><path fill="#fefdfc" d="M500 200h100v100H500z"/><path fill="#eee4db" d="M600 200h100v100H600z"/><path fill="#fdfbfa" d="M700 200h100v100H700z"/><path fill="#faf7f5" d="M0 300h100v100H0z"/><path fill="#f0e7e0" d="M100 300h100v100H100z"/><path fill="#fff" d="M200 300h100v100H200z"/><path fill="#dddcdb" d="M300 300h100v100H300z"/><path fill="#dfdedd" d="M400 300h100v100H400z"/><path fill="#fff" d="M500 300h100v100H500z"/><path fill="#ede1d8" d="M600 300h100v100H600z"/><path fill="#f6f0eb" d="M700 300h100v100H700z"/><path fill="#faf7f5" d="M0 400h100v100H0z"/><path fill="#ece0d6" d="M100 400h100v100H100z"/><path fill="#fdf7f7" d="M200 400h100v100H200z"/><path fill="#fff" d="M300 400h100v100H300z"/><path fill="#fbfefe" d="M400 400h100v100H400z"/><path fill="#fcf3f2" d="M500 400h100v100H500z"/><path fill="#eadbcf" d="M600 400h100v100H600z"/><path fill="#f6f0eb" d="M700 400h100v100H700z"/><path fill="#feffff" d="M0 500h100v100H0z"/><path fill="#eed5cc" d="M100 500h100v100H100z"/><path fill="#f3ba9e" d="M200 500h100v100H200z"/><path fill="#fed0c2" d="M300 500h100v100H300z"/><path fill="#fec9c0" d="M400 500h100v100H400z"/><path fill="#f6b5a5" d="M500 500h100v100H500z"/><path fill="#eccec1" d="M600 500h100v100H600z"/><path fill="#fbfcfa" d="M700 500h100v100H700z"/><path fill="#fff" d="M0 600h100v100H0z"/><path fill="#f9d8d6" d="M100 600h100v100H100z"/><path fill="#f6c488" d="M200 600h100v100H200z"/><path fill="#fec29d" d="M300 600h100v100H300z"/><path fill="#ff8572" d="M400 600h100v100H400z"/><path fill="#f6a18d" d="M500 600h100v100H500z"/><path fill="#f4d2ca" d="M600 600h100v100H600z"/><path fill="#fff" d="M700 600h100v100H700zM0 700h100v100H0z"/><path fill="#fffcfc" d="M100 700h100v100H100z"/><path fill="#fff8f9" d="M200 700h100v100H200z"/><path fill="#ffdfda" d="M300 700h100v100H300z"/><path fill="#ffd5cc" d="M400 700h100v100H400z"/><path fill="#fbdfda" d="M500 700h100v100H500z"/><path fill="#f9eeed" d="M600 700h100v100H600z"/><path fill="#fff" d="M700 700h100v100H700z"/></svg>