<svg xmlns="http://www.w3.org/2000/svg" viewBox="0 0 800 500"><defs/><path fill="#cfbb9a" d="M0 0h100v100H0z"/><path fill="#b8a384" d="M100 0h100v100H100z"/><path fill="#b59b86" d="M200 0h100v100H200z"/><path fill="#c2b081" d="M300 0h100v100H300z"/><path fill="#c6b38d" d="M400 0h100v100H400z"/><path fill="#c6b28c" d="M500 0h100v100H500z"/><path fill="#c5a280" d="M600 0h100v100H600z"/><path fill="#b6957a" d="M700 0h100v100H700z"/><path fill="#d0ba98" d="M0 100h100v100H0z"/><path fill="#a88f6d" d="M100 100h100v100H100z"/><path fill="#bba896" d="M200 100h100v100H200z"/><path fill="#b6bd55" d="M300 100h100v100H300z"/><path fill="#c2c768" d="M400 100h100v100H400z"/><path fill="#cbc367" d="M500 100h100v100H500z"/><path fill="#ad9554" d="M600 100h100v100H600z"/><path fill="#b08369" d="M700 100h100v100H700z"/><path fill="#d1bf9e" d="M0 200h100v100H0z"/><path fill="#a48c63" d="M100 200h100v100H100z"/><path fill="#b69681" d="M200 200h100v100H200z"/><path fill="#c5a47b" d="M300 200h100v100H300z"/><path fill="#cdaf83" d="M400 200h100v100H400z"/><path fill="#c19c6e" d="M500 200h100v100H500z"/><path fill="#a2885d" d="M600 200h100v100H600z"/><path fill="#9c6e4a" d="M700 200h100v100H700z"/><path fill="#cebfa2" d="M0 300h100v100H0z"/><path fill="#927f57" d="M100 300h100v100H100z"/><path fill="#b0712e" d="M200 300h100v100H200z"/><path fill="#bc7e4c" d="M300 300h100v100H300z"/><path fill="#b48679" d="M400 300h100v100H400z"/><path fill="#b17954" d="M500 300h100v100H500z"/><path fill="#a2744b" d="M600 300h100v100H600z"/><path fill="#a95d40" d="M700 300h100v100H700z"/><path fill="#c7b299" d="M0 400h100v100H0z"/><path fill="#b38b69" d="M100 400h100v100H100z"/><path fill="#d5a064" d="M200 400h100v100H200z"/><path fill="#b17754" d="M300 400h100v100H300z"/><path fill="#a1795c" d="M400 400h100v100H400z"/><path fill="#a9846d" d="M500 400h100v100H500z"/><path fill="#a47244" d="M600 400h100v100H600z"/><path fill="#844e31" d="M700 400h100v100H700z"/></svg>