<svg xmlns="http://www.w3.org/2000/svg" viewBox="0 0 800 1100"><defs/><path fill="#7a736e" d="M0 0h100v100H0z"/><path fill="#7d7976" d="M100 0h100v100H100z"/><path fill="#85807d" d="M200 0h100v100H200z"/><path fill="#857f7c" d="M300 0h100v100H300z"/><path fill="#807b79" d="M400 0h100v100H400z"/><path fill="#73706e" d="M500 0h100v100H500z"/><path fill="#6f6c6b" d="M600 0h100v100H600z"/><path fill="#847d7c" d="M700 0h100v100H700z"/><path fill="#77716e" d="M0 100h100v100H0z"/><path fill="#797775" d="M100 100h100v100H100z"/><path fill="#837f7e" d="M200 100h100v100H200z"/><path fill="#7d7c7b" d="M300 100h100v100H300z"/><path fill="#7c7a79" d="M400 100h100v100H400z"/><path fill="#7a7877" d="M500 100h100v100H500z"/><path fill="#7a7879" d="M600 100h100v100H600z"/><path fill="#8f8989" d="M700 100h100v100H700z"/><path fill="#736965" d="M0 200h100v100H0z"/><path fill="#7b7977" d="M100 200h100v100H100z"/><path fill="#7e7c7b" d="M200 200h100v100H200z"/><path fill="#737575" d="M300 200h100v100H300z"/><path fill="#777979" d="M400 200h100v100H400z"/><path fill="#7f8080" d="M500 200h100v100H500z"/><path fill="#818182" d="M600 200h100v100H600z"/><path fill="#979191" d="M700 200h100v100H700z"/><path fill="#5d5854" d="M0 300h100v100H0z"/><path fill="#827e7e" d="M100 300h100v100H100z"/><path fill="#777" d="M200 300h100v100H200z"/><path fill="#7f7e7d" d="M300 300h100v100H300z"/><path fill="#808181" d="M400 300h100v100H400z"/><path fill="#848586" d="M500 300h100v100H500z"/><path fill="#858687" d="M600 300h100v100H600z"/><path fill="#9b9596" d="M700 300h100v100H700z"/><path fill="#576267" d="M0 400h100v100H0z"/><path fill="#7c7977" d="M100 400h100v100H100z"/><path fill="#7e7d7c" d="M200 400h100v100H200z"/><path fill="#8d8a88" d="M300 400h100v100H300z"/><path fill="#8d8c8b" d="M400 400h100v100H400z"/><path fill="#8b8c8b" d="M500 400h100v100H500z"/><path fill="#929393" d="M600 400h100v100H600z"/><path fill="#aca9a8" d="M700 400h100v100H700z"/><path fill="#78797a" d="M0 500h100v100H0z"/><path fill="#7e7a79" d="M100 500h100v100H100z"/><path fill="#7f7e7e" d="M200 500h100v100H200z"/><path fill="#888887" d="M300 500h100v100H300z"/><path fill="#8e8f8e" d="M400 500h100v100H400z"/><path fill="#959695" d="M500 500h100v100H500z"/><path fill="#9b9c9c" d="M600 500h100v100H600z"/><path fill="#bbb7b4" d="M700 500h100v100H700z"/><path fill="#898482" d="M0 600h100v100H0z"/><path fill="#868584" d="M100 600h100v100H100z"/><path fill="#848484" d="M200 600h100v100H200z"/><path fill="#8f8e8e" d="M300 600h100v100H300z"/><path fill="#9b9997" d="M400 600h100v100H400z"/><path fill="#a3a2a0" d="M500 600h100v100H500z"/><path fill="#a3a3a3" d="M600 600h100v100H600z"/><path fill="#bfbbb8" d="M700 600h100v100H700z"/><path fill="#95908e" d="M0 700h100v100H0z"/><path fill="#8a8989" d="M100 700h100v100H100z"/><path fill="#949291" d="M200 700h100v100H200z"/><path fill="#9a9997" d="M300 700h100v100H300z"/><path fill="#9e9d9d" d="M400 700h100v100H400z"/><path fill="#a9a8a8" d="M500 700h100v100H500z"/><path fill="#afadac" d="M600 700h100v100H600z"/><path fill="#c7c2bf" d="M700 700h100v100H700z"/><path fill="#a49d9b" d="M0 800h100v100H0z"/><path fill="#8e8c8b" d="M100 800h100v100H100z"/><path fill="#999695" d="M200 800h100v100H200z"/><path fill="#a5a4a2" d="M300 800h100v100H300z"/><path fill="#a9a8a6" d="M400 800h100v100H400z"/><path fill="#b5b4b3" d="M500 800h100v100H500z"/><path fill="#bebcbb" d="M600 800h100v100H600z"/><path fill="#c7c4c0" d="M700 800h100v100H700z"/><path fill="#a59e9a" d="M0 900h100v100H0z"/><path fill="#969593" d="M100 900h100v100H100z"/><path fill="#9e9a98" d="M200 900h100v100H200z"/><path fill="#9c9e9d" d="M300 900h100v100H300z"/><path fill="#acacab" d="M400 900h100v100H400z"/><path fill="#bab8b8" d="M500 900h100v100H500z"/><path fill="#b7b7b8" d="M600 900h100v100H600z"/><path fill="#cdc9c7" d="M700 900h100v100H700z"/><path fill="#afa8a1" d="M0 1000h100v100H0z"/><path fill="#a5a29e" d="M100 1000h100v100H100z"/><path fill="#aba6a4" d="M200 1000h100v100H200z"/><path fill="#aaa6a5" d="M300 1000h100v100H300z"/><path fill="#aeacab" d="M400 1000h100v100H400z"/><path fill="#bab7b5" d="M500 1000h100v100H500z"/><path fill="#b4b4b3" d="M600 1000h100v100H600z"/><path fill="#cec9c4" d="M700 1000h100v100H700z"/></svg>