<svg xmlns="http://www.w3.org/2000/svg" viewBox="0 0 800 400"><defs/><path fill="#8c8b12" d="M0 0h100v100H0z"/><path fill="#46531f" d="M100 0h100v100H100z"/><path fill="#3d2b2d" d="M200 0h100v100H200z"/><path fill="#233466" d="M300 0h100v100H300z"/><path fill="#25458a" d="M400 0h100v100H400z"/><path fill="#2a52a2" d="M500 0h100v100H500z"/><path fill="#475c97" d="M600 0h100v100H600z"/><path fill="#85645a" d="M700 0h100v100H700z"/><path fill="#8e9319" d="M0 100h100v100H0z"/><path fill="#3f4821" d="M100 100h100v100H100z"/><path fill="#342331" d="M200 100h100v100H200z"/><path fill="#454054" d="M300 100h100v100H300z"/><path fill="#3c4c7f" d="M400 100h100v100H400z"/><path fill="#1e47a0" d="M500 100h100v100H500z"/><path fill="#294290" d="M600 100h100v100H600z"/><path fill="#715955" d="M700 100h100v100H700z"/><path fill="#5f7318" d="M0 200h100v100H0z"/><path fill="#4e4817" d="M100 200h100v100H100z"/><path fill="#755617" d="M200 200h100v100H200z"/><path fill="#303235" d="M300 200h100v100H300z"/><path fill="#1d2f54" d="M400 200h100v100H400z"/><path fill="#2d446b" d="M500 200h100v100H500z"/><path fill="#727864" d="M600 200h100v100H600z"/><path fill="#ad8f35" d="M700 200h100v100H700z"/><path fill="#435e18" d="M0 300h100v100H0z"/><path fill="#968128" d="M100 300h100v100H100z"/><path fill="#b1902a" d="M200 300h100v100H200z"/><path fill="#445433" d="M300 300h100v100H300z"/><path fill="#0b5373" d="M400 300h100v100H400z"/><path fill="#2c5a5d" d="M500 300h100v100H500z"/><path fill="#e4bf22" d="M600 300h100v100H600z"/><path fill="#ffe428" d="M700 300h100v100H700z"/></svg>