<svg xmlns="http://www.w3.org/2000/svg" viewBox="0 0 800 600"><defs/><path fill="#e5e5e9" d="M0 0h100v100H0z"/><path fill="#d9dbe1" d="M100 0h100v100H100z"/><path fill="#ccccd0" d="M200 0h100v100H200z"/><path fill="#c5aaad" d="M300 0h100v100H300z"/><path fill="#bf9e9e" d="M400 0h100v100H400z"/><path fill="#ae8989" d="M500 0h100v100H500z"/><path fill="#ad9f9d" d="M600 0h100v100H600z"/><path fill="#a9a7a2" d="M700 0h100v100H700z"/><path fill="#e2e1e9" d="M0 100h100v100H0z"/><path fill="#ced4ce" d="M100 100h100v100H100z"/><path fill="#ca9ca0" d="M200 100h100v100H200z"/><path fill="#c21f25" d="M300 100h100v100H300z"/><path fill="#b82221" d="M400 100h100v100H400z"/><path fill="#9b1008" d="M500 100h100v100H500z"/><path fill="#a77a76" d="M600 100h100v100H600z"/><path fill="#b1b5b2" d="M700 100h100v100H700z"/><path fill="#d8d5d1" d="M0 200h100v100H0z"/><path fill="#c1beaa" d="M100 200h100v100H100z"/><path fill="#b96973" d="M200 200h100v100H200z"/><path fill="#9d281e" d="M300 200h100v100H300z"/><path fill="#9c2a32" d="M400 200h100v100H400z"/><path fill="#384a6a" d="M500 200h100v100H500z"/><path fill="#848d99" d="M600 200h100v100H600z"/><path fill="#b6b4af" d="M700 200h100v100H700z"/><path fill="#e6e6e7" d="M0 300h100v100H0z"/><path fill="#d4d4de" d="M100 300h100v100H100z"/><path fill="#c0886f" d="M200 300h100v100H200z"/><path fill="#a35c33" d="M300 300h100v100H300z"/><path fill="#ad6a3f" d="M400 300h100v100H400z"/><path fill="#64477c" d="M500 300h100v100H500z"/><path fill="#948190" d="M600 300h100v100H600z"/><path fill="#b3b3af" d="M700 300h100v100H700z"/><path fill="#ced1e7" d="M0 400h100v100H0z"/><path fill="#d2cca6" d="M100 400h100v100H100z"/><path fill="#a39160" d="M200 400h100v100H200z"/><path fill="#795f8d" d="M300 400h100v100H300z"/><path fill="#b79739" d="M400 400h100v100H400z"/><path fill="#9f5515" d="M500 400h100v100H500z"/><path fill="#a27229" d="M600 400h100v100H600z"/><path fill="#aba99c" d="M700 400h100v100H700z"/><path fill="#c7c1b2" d="M0 500h100v100H0z"/><path fill="#ddc76d" d="M100 500h100v100H100z"/><path fill="#a49f6b" d="M200 500h100v100H200z"/><path fill="#73808d" d="M300 500h100v100H300z"/><path fill="#b4a24a" d="M400 500h100v100H400z"/><path fill="#bb9e29" d="M500 500h100v100H500z"/><path fill="#a28420" d="M600 500h100v100H600z"/><path fill="#988a6f" d="M700 500h100v100H700z"/></svg>