<svg xmlns="http://www.w3.org/2000/svg" viewBox="0 0 800 600"><defs/><path fill="#cda194" d="M0 0h100v100H0z"/><path fill="#d1a38d" d="M100 0h100v100H100z"/><path fill="#dbb2a3" d="M200 0h100v100H200z"/><path fill="#e8c5bb" d="M300 0h100v100H300z"/><path fill="#efcdc4" d="M400 0h100v100H400z"/><path fill="#f2d3cb" d="M500 0h100v100H500z"/><path fill="#f3d0c6" d="M600 0h100v100H600z"/><path fill="#f0cfc4" d="M700 0h100v100H700z"/><path fill="#d3a794" d="M0 100h100v100H0z"/><path fill="#d3a587" d="M100 100h100v100H100z"/><path fill="#dbb1a7" d="M200 100h100v100H200z"/><path fill="#e6c1b9" d="M300 100h100v100H300z"/><path fill="#e4c0b5" d="M400 100h100v100H400z"/><path fill="#e8c6c0" d="M500 100h100v100H500z"/><path fill="#eac8c1" d="M600 100h100v100H600z"/><path fill="#f2d0c7" d="M700 100h100v100H700z"/><path fill="#c29b8b" d="M0 200h100v100H0z"/><path fill="#d6a58d" d="M100 200h100v100H100z"/><path fill="#d9aea5" d="M200 200h100v100H200z"/><path fill="#dbb8ad" d="M300 200h100v100H300z"/><path fill="#e3c5bb" d="M400 200h100v100H400z"/><path fill="#d7b4a8" d="M500 200h100v100H500z"/><path fill="#d4ada4" d="M600 200h100v100H600z"/><path fill="#e9c5bd" d="M700 200h100v100H700z"/><path fill="#c99b86" d="M0 300h100v100H0z"/><path fill="#c59a85" d="M100 300h100v100H100z"/><path fill="#cea79a" d="M200 300h100v100H200z"/><path fill="#d1a79e" d="M300 300h100v100H300z"/><path fill="#dfb9a6" d="M400 300h100v100H400z"/><path fill="#d3ac9c" d="M500 300h100v100H500z"/><path fill="#ca9e8d" d="M600 300h100v100H600z"/><path fill="#e7c5ac" d="M700 300h100v100H700z"/><path fill="#bb8a6d" d="M0 400h100v100H0z"/><path fill="#a47865" d="M100 400h100v100H100z"/><path fill="#b0866f" d="M200 400h100v100H200z"/><path fill="#bf968f" d="M300 400h100v100H300z"/><path fill="#d6a787" d="M400 400h100v100H400z"/><path fill="#deb39d" d="M500 400h100v100H500z"/><path fill="#e2b79b" d="M600 400h100v100H600z"/><path fill="#d3a882" d="M700 400h100v100H700z"/><path fill="#b37c60" d="M0 500h100v100H0z"/><path fill="#b57d5e" d="M100 500h100v100H100z"/><path fill="#b6917c" d="M200 500h100v100H200z"/><path fill="#b18f80" d="M300 500h100v100H300z"/><path fill="#c99d80" d="M400 500h100v100H400z"/><path fill="#dab09a" d="M500 500h100v100H500z"/><path fill="#ddb59f" d="M600 500h100v100H600z"/><path fill="#d2a894" d="M700 500h100v100H700z"/></svg>