<svg xmlns="http://www.w3.org/2000/svg" viewBox="0 0 800 800"><defs/><path fill="#ececed" d="M0 0h100v100H0z"/><path fill="#e3e4e5" d="M100 0h100v100H100z"/><path fill="#dedfe0" d="M200 0h100v100H200z"/><path fill="#cdcfd1" d="M300 0h100v100H300z"/><path fill="#d2d2d3" d="M400 0h100v100H400z"/><path fill="#d4d4d5" d="M500 0h100v100H500z"/><path fill="#dadada" d="M600 0h100v100H600z"/><path fill="#e8e8e8" d="M700 0h100v100H700z"/><path fill="#e3e3e2" d="M0 100h100v100H0z"/><path fill="#d4d0cc" d="M100 100h100v100H100z"/><path fill="#dfdad5" d="M200 100h100v100H200z"/><path fill="#e0d9d2" d="M300 100h100v100H300z"/><path fill="#d4d3d2" d="M400 100h100v100H400z"/><path fill="#d1d0d0" d="M500 100h100v100H500z"/><path fill="#d3d2d1" d="M600 100h100v100H600z"/><path fill="#e1e1e2" d="M700 100h100v100H700z"/><path fill="#dfdbd7" d="M0 200h100v100H0z"/><path fill="#c9b298" d="M100 200h100v100H100z"/><path fill="#d9beab" d="M200 200h100v100H200z"/><path fill="#d7ad95" d="M300 200h100v100H300z"/><path fill="#a19b97" d="M400 200h100v100H400z"/><path fill="#88938b" d="M500 200h100v100H500z"/><path fill="#dde0dd" d="M600 200h100v100H600z"/><path fill="#bcb8b4" d="M700 200h100v100H700z"/><path fill="#d6cdc4" d="M0 300h100v100H0z"/><path fill="#d6c2a9" d="M100 300h100v100H100z"/><path fill="#cac3cf" d="M200 300h100v100H200z"/><path fill="#b0a3b7" d="M300 300h100v100H300z"/><path fill="#9fa1a7" d="M400 300h100v100H400z"/><path fill="#79837b" d="M500 300h100v100H500z"/><path fill="#eceeed" d="M600 300h100v100H600z"/><path fill="#c9c6c3" d="M700 300h100v100H700z"/><path fill="#ccbfb1" d="M0 400h100v100H0z"/><path fill="#cdb495" d="M100 400h100v100H100z"/><path fill="#bbab9c" d="M200 400h100v100H200z"/><path fill="#b6aa9b" d="M300 400h100v100H300z"/><path fill="#b2a99c" d="M400 400h100v100H400z"/><path fill="#a19a8a" d="M500 400h100v100H500z"/><path fill="#c7b7a2" d="M600 400h100v100H600z"/><path fill="#c8c4bf" d="M700 400h100v100H700z"/><path fill="#beac9a" d="M0 500h100v100H0z"/><path fill="#c8a882" d="M100 500h100v100H100z"/><path fill="#b6926f" d="M200 500h100v100H200z"/><path fill="#9b8167" d="M300 500h100v100H300z"/><path fill="#b9a489" d="M400 500h100v100H400z"/><path fill="#b4a18b" d="M500 500h100v100H500z"/><path fill="#c0a07b" d="M600 500h100v100H600z"/><path fill="#92775b" d="M700 500h100v100H700z"/><path fill="#e5e2de" d="M0 600h100v100H0z"/><path fill="#eae7e2" d="M100 600h100v100H100z"/><path fill="#e7e3e0" d="M200 600h100v100H200z"/><path fill="#dfdddb" d="M300 600h100v100H300z"/><path fill="#e7e4e0" d="M400 600h100v100H400z"/><path fill="#e4e2e0" d="M500 600h100v100H500z"/><path fill="#e6e4e0" d="M600 600h100v100H600z"/><path fill="#e4dfda" d="M700 600h100v100H700z"/><path fill="#fff" d="M0 700h100v100H0z"/><path fill="#fefefe" d="M100 700h100v100H100z"/><path fill="#fff" d="M200 700h100v100H200z"/><path fill="#e4e6e6" d="M300 700h100v100H300z"/><path fill="#cfd0d1" d="M400 700h100v100H400z"/><path fill="#f2f3f3" d="M500 700h100v100H500z"/><path fill="#fff" d="M600 700h100v100H600z"/><path fill="#fefefe" d="M700 700h100v100H700z"/></svg>