<svg xmlns="http://www.w3.org/2000/svg" viewBox="0 0 800 600"><defs/><path fill="#d9d9d9" d="M0 0h100v100H0z"/><path fill="#cdcdcd" d="M100 0h100v100H100z"/><path fill="#d1d1d1" d="M200 0h100v100H200zm100 0h100v100H300zm100 0h100v100H400z"/><path fill="#d1d0d0" d="M500 0h100v100H500z"/><path fill="#d0d0d0" d="M600 0h100v100H600z"/><path fill="#d3d2d2" d="M700 0h100v100H700z"/><path fill="#535353" d="M0 100h100v100H0z"/><path fill="#1d1d1d" d="M100 100h100v100H100z"/><path fill="#272828" d="M200 100h100v100H200z"/><path fill="#242729" d="M300 100h100v100H300z"/><path fill="#262729" d="M400 100h100v100H400z"/><path fill="#272828" d="M500 100h100v100H500z"/><path fill="#232627" d="M600 100h100v100H600z"/><path fill="#282c2d" d="M700 100h100v100H700z"/><path fill="#535352" d="M0 200h100v100H0z"/><path fill="#1a1b1c" d="M100 200h100v100H100z"/><path fill="#332c28" d="M200 200h100v100H200z"/><path fill="#5f3f2a" d="M300 200h100v100H300z"/><path fill="#463429" d="M400 200h100v100H400z"/><path fill="#322b27" d="M500 200h100v100H500z"/><path fill="#3b2e27" d="M600 200h100v100H600z"/><path fill="#553d2f" d="M700 200h100v100H700z"/><path fill="#575656" d="M0 300h100v100H0z"/><path fill="#161b1f" d="M100 300h100v100H100z"/><path fill="#634431" d="M200 300h100v100H200z"/><path fill="#a36035" d="M300 300h100v100H300z"/><path fill="#523b2e" d="M400 300h100v100H400z"/><path fill="#41342d" d="M500 300h100v100H500z"/><path fill="#593e2d" d="M600 300h100v100H600z"/><path fill="#694935" d="M700 300h100v100H700z"/><path fill="#494949" d="M0 400h100v100H0z"/><path fill="#0d0e0f" d="M100 400h100v100H100z"/><path fill="#2d241f" d="M200 400h100v100H200z"/><path fill="#30251e" d="M300 400h100v100H300z"/><path fill="#1e1d1c" d="M400 400h100v100H400z"/><path fill="#1f1e1c" d="M500 400h100v100H500z"/><path fill="#1c1a1a" d="M600 400h100v100H600z"/><path fill="#222" d="M700 400h100v100H700z"/><path fill="#aeaeae" d="M0 500h100v100H0z"/><path fill="#969695" d="M100 500h100v100H100z"/><path fill="#97999a" d="M200 500h100v100H200z"/><path fill="#949799" d="M300 500h100v100H300z"/><path fill="#979898" d="M400 500h100v100H400zm100 0h100v100H500z"/><path fill="#969696" d="M600 500h100v100H600z"/><path fill="#9a9a9a" d="M700 500h100v100H700z"/></svg>