<svg xmlns="http://www.w3.org/2000/svg" viewBox="0 0 800 500"><defs/><path fill="#a08e81" d="M0 0h100v100H0z"/><path fill="#9c8e85" d="M100 0h100v100H100z"/><path fill="#948b86" d="M200 0h100v100H200z"/><path fill="#918a84" d="M300 0h100v100H300z"/><path fill="#948d8b" d="M400 0h100v100H400z"/><path fill="#9d7e78" d="M500 0h100v100H500z"/><path fill="#9c7a6d" d="M600 0h100v100H600z"/><path fill="#a8988c" d="M700 0h100v100H700z"/><path fill="#917a69" d="M0 100h100v100H0z"/><path fill="#8e7b71" d="M100 100h100v100H100z"/><path fill="#727462" d="M200 100h100v100H200z"/><path fill="#73705f" d="M300 100h100v100H300z"/><path fill="#8b7c73" d="M400 100h100v100H400z"/><path fill="#7a5342" d="M500 100h100v100H500z"/><path fill="#74503e" d="M600 100h100v100H600z"/><path fill="#918887" d="M700 100h100v100H700z"/><path fill="#b89d89" d="M0 200h100v100H0z"/><path fill="#83756d" d="M100 200h100v100H100z"/><path fill="#53503c" d="M200 200h100v100H200z"/><path fill="#695e40" d="M300 200h100v100H300z"/><path fill="#7e6d64" d="M400 200h100v100H400z"/><path fill="#7b756f" d="M500 200h100v100H500z"/><path fill="#766250" d="M600 200h100v100H600z"/><path fill="#948883" d="M700 200h100v100H700z"/><path fill="#c5afa0" d="M0 300h100v100H0z"/><path fill="#867263" d="M100 300h100v100H100z"/><path fill="#654129" d="M200 300h100v100H200z"/><path fill="#8f5b31" d="M300 300h100v100H300z"/><path fill="#837563" d="M400 300h100v100H400z"/><path fill="#8799a2" d="M500 300h100v100H500z"/><path fill="#73726b" d="M600 300h100v100H600z"/><path fill="#89847b" d="M700 300h100v100H700z"/><path fill="#b79d8b" d="M0 400h100v100H0z"/><path fill="#b1825f" d="M100 400h100v100H100z"/><path fill="#ac754b" d="M200 400h100v100H200z"/><path fill="#a7724b" d="M300 400h100v100H300z"/><path fill="#966844" d="M400 400h100v100H400z"/><path fill="#835d44" d="M500 400h100v100H500z"/><path fill="#82614b" d="M600 400h100v100H600z"/><path fill="#8d7966" d="M700 400h100v100H700z"/></svg>