<svg xmlns="http://www.w3.org/2000/svg" viewBox="0 0 800 600"><defs/><path fill="#e1e3df" d="M0 0h100v100H0z"/><path fill="#dadcdc" d="M100 0h100v100H100z"/><path fill="#dcdfdd" d="M200 0h100v100H200z"/><path fill="#e0e4df" d="M300 0h100v100H300z"/><path fill="#e1e5e2" d="M400 0h100v100H400z"/><path fill="#dde2e1" d="M500 0h100v100H500z"/><path fill="#d8dddf" d="M600 0h100v100H600z"/><path fill="#dce0e1" d="M700 0h100v100H700z"/><path fill="#949954" d="M0 100h100v100H0z"/><path fill="#5d4a27" d="M100 100h100v100H100z"/><path fill="#625e52" d="M200 100h100v100H200z"/><path fill="#59554b" d="M300 100h100v100H300z"/><path fill="#53483a" d="M400 100h100v100H400z"/><path fill="#656343" d="M500 100h100v100H500z"/><path fill="#756a34" d="M600 100h100v100H600z"/><path fill="#a0ab4d" d="M700 100h100v100H700z"/><path fill="#96954a" d="M0 200h100v100H0z"/><path fill="#67501d" d="M100 200h100v100H100z"/><path fill="#5f5f52" d="M200 200h100v100H200z"/><path fill="#4b4d4d" d="M300 200h100v100H300z"/><path fill="#554b48" d="M400 200h100v100H400z"/><path fill="#817346" d="M500 200h100v100H500z"/><path fill="#777d32" d="M600 200h100v100H600z"/><path fill="#9ba442" d="M700 200h100v100H700z"/><path fill="#8e8548" d="M0 300h100v100H0z"/><path fill="#524014" d="M100 300h100v100H100z"/><path fill="#836c29" d="M200 300h100v100H200z"/><path fill="#9d6e2e" d="M300 300h100v100H300z"/><path fill="#766d2f" d="M400 300h100v100H400z"/><path fill="#907f71" d="M500 300h100v100H500z"/><path fill="#895c66" d="M600 300h100v100H600z"/><path fill="#555634" d="M700 300h100v100H700z"/><path fill="#7c7551" d="M0 400h100v100H0z"/><path fill="#424118" d="M100 400h100v100H100z"/><path fill="#644e1d" d="M200 400h100v100H200z"/><path fill="#736840" d="M300 400h100v100H300z"/><path fill="#5c4f14" d="M400 400h100v100H400z"/><path fill="#525361" d="M500 400h100v100H500z"/><path fill="#542078" d="M600 400h100v100H600z"/><path fill="#494849" d="M700 400h100v100H700z"/><path fill="#c3c9c8" d="M0 500h100v100H0z"/><path fill="#b6c4bc" d="M100 500h100v100H100z"/><path fill="#b1c2bd" d="M200 500h100v100H200z"/><path fill="#aebdba" d="M300 500h100v100H300z"/><path fill="#b4c4bc" d="M400 500h100v100H400z"/><path fill="#b5beb9" d="M500 500h100v100H500z"/><path fill="#b3b3bd" d="M600 500h100v100H600z"/><path fill="#bec2c4" d="M700 500h100v100H700z"/></svg>