<svg xmlns="http://www.w3.org/2000/svg" viewBox="0 0 800 400"><defs/><path fill="#e9e8ee" d="M0 0h100v100H0z"/><path fill="#e4e3e9" d="M100 0h100v100H100zm100 0h100v100H200z"/><path fill="#ecebf1" d="M300 0h100v100H300z"/><path fill="#ecebf0" d="M400 0h100v100H400z"/><path fill="#e4e3e9" d="M500 0h100v100H500z"/><path fill="#dad9e0" d="M600 0h100v100H600z"/><path fill="#ecebf1" d="M700 0h100v100H700z"/><path fill="#e9e8ef" d="M0 100h100v100H0z"/><path fill="#e1e0e7" d="M100 100h100v100H100z"/><path fill="#e1e0e6" d="M200 100h100v100H200z"/><path fill="#dddce2" d="M300 100h100v100H300z"/><path fill="#e7e6ec" d="M400 100h100v100H400z"/><path fill="#e6e6ec" d="M500 100h100v100H500z"/><path fill="#d4d3d9" d="M600 100h100v100H600z"/><path fill="#d7d6dd" d="M700 100h100v100H700z"/><path fill="#e6e5ec" d="M0 200h100v100H0z"/><path fill="#dcdbe2" d="M100 200h100v100H100z"/><path fill="#dbdae1" d="M200 200h100v100H200z"/><path fill="#e5e4ea" d="M300 200h100v100H300z"/><path fill="#ecebf0" d="M400 200h100v100H400z"/><path fill="#edecf1" d="M500 200h100v100H500z"/><path fill="#dad9e0" d="M600 200h100v100H600z"/><path fill="#c6c5cc" d="M700 200h100v100H700z"/><path fill="#e6e5ea" d="M0 300h100v100H0z"/><path fill="#e8e7ed" d="M100 300h100v100H100z"/><path fill="#eae9ef" d="M200 300h100v100H200z"/><path fill="#ecebf1" d="M300 300h100v100H300z"/><path fill="#ebeaef" d="M400 300h100v100H400z"/><path fill="#ecebf1" d="M500 300h100v100H500z"/><path fill="#e9e8ed" d="M600 300h100v100H600z"/><path fill="#cacad0" d="M700 300h100v100H700z"/></svg>