<svg xmlns="http://www.w3.org/2000/svg" viewBox="0 0 800 400"><defs/><path fill="#c59d8a" d="M0 0h100v100H0z"/><path fill="#a08674" d="M100 0h100v100H100z"/><path fill="#cba895" d="M200 0h100v100H200z"/><path fill="#8c888d" d="M300 0h100v100H300z"/><path fill="#8e888d" d="M400 0h100v100H400z"/><path fill="#9f9294" d="M500 0h100v100H500z"/><path fill="#978b8b" d="M600 0h100v100H600z"/><path fill="#a89781" d="M700 0h100v100H700z"/><path fill="#ab7962" d="M0 100h100v100H0z"/><path fill="#ae9370" d="M100 100h100v100H100z"/><path fill="#aea295" d="M200 100h100v100H200z"/><path fill="#969591" d="M300 100h100v100H300z"/><path fill="#bdaeb1" d="M400 100h100v100H400z"/><path fill="#918498" d="M500 100h100v100H500z"/><path fill="#6b6463" d="M600 100h100v100H600z"/><path fill="#504e34" d="M700 100h100v100H700z"/><path fill="#b48e7b" d="M0 200h100v100H0z"/><path fill="#948277" d="M100 200h100v100H100z"/><path fill="#6b5140" d="M200 200h100v100H200z"/><path fill="#988774" d="M300 200h100v100H300z"/><path fill="#a3988a" d="M400 200h100v100H400z"/><path fill="#8b8278" d="M500 200h100v100H500z"/><path fill="#81725a" d="M600 200h100v100H600z"/><path fill="#655f4a" d="M700 200h100v100H700z"/><path fill="#a38b79" d="M0 300h100v100H0z"/><path fill="#9c8e80" d="M100 300h100v100H100z"/><path fill="#696561" d="M200 300h100v100H200z"/><path fill="#8d8274" d="M300 300h100v100H300z"/><path fill="#9d8b76" d="M400 300h100v100H400z"/><path fill="#9f9586" d="M500 300h100v100H500z"/><path fill="#8d7b68" d="M600 300h100v100H600z"/><path fill="#877f68" d="M700 300h100v100H700z"/></svg>