<svg xmlns="http://www.w3.org/2000/svg" viewBox="0 0 800 500"><defs/><path fill="#fbfbfb" d="M0 0h100v100H0z"/><path fill="#f7f7f6" d="M100 0h100v100H100z"/><path fill="#f7f9f3" d="M200 0h100v100H200z"/><path fill="#f8f9f5" d="M300 0h100v100H300z"/><path fill="#ebecee" d="M400 0h100v100H400z"/><path fill="#f2f3f4" d="M500 0h100v100H500z"/><path fill="#fffefe" d="M600 0h100v100H600z"/><path fill="#fff" d="M700 0h100v100H700z"/><path fill="#f5f5f6" d="M0 100h100v100H0z"/><path fill="#eaeae9" d="M100 100h100v100H100z"/><path fill="#e7dfd0" d="M200 100h100v100H200z"/><path fill="#fdfdf8" d="M300 100h100v100H300z"/><path fill="#958e8f" d="M400 100h100v100H400z"/><path fill="#cfd0d1" d="M500 100h100v100H500z"/><path fill="#fff" d="M600 100h100v100H600z"/><path fill="#fdfdfd" d="M700 100h100v100H700z"/><path fill="#efeced" d="M0 200h100v100H0z"/><path fill="#dcdcdc" d="M100 200h100v100H100z"/><path fill="#d1b5a5" d="M200 200h100v100H200z"/><path fill="#d3d7c9" d="M300 200h100v100H300z"/><path fill="#ab9c89" d="M400 200h100v100H400z"/><path fill="#bab1af" d="M500 200h100v100H500z"/><path fill="#fcfcfe" d="M600 200h100v100H600z"/><path fill="#fff" d="M700 200h100v100H700z"/><path fill="#eef0f1" d="M0 300h100v100H0z"/><path fill="#dacac6" d="M100 300h100v100H100z"/><path fill="#c0a08b" d="M200 300h100v100H200z"/><path fill="#b3947e" d="M300 300h100v100H300z"/><path fill="#caafa0" d="M400 300h100v100H400z"/><path fill="#a2ab89" d="M500 300h100v100H500z"/><path fill="#e2e8dd" d="M600 300h100v100H600z"/><path fill="#fff" d="M700 300h100v100H700z"/><path fill="#f7f8f8" d="M0 400h100v100H0z"/><path fill="#f2ebea" d="M100 400h100v100H100z"/><path fill="#eaddda" d="M200 400h100v100H200z"/><path fill="#eddfdd" d="M300 400h100v100H300z"/><path fill="#fffbfd" d="M400 400h100v100H400z"/><path fill="#ebf7e9" d="M500 400h100v100H500z"/><path fill="#f1f6f0" d="M600 400h100v100H600z"/><path fill="#fff" d="M700 400h100v100H700z"/></svg>