<svg xmlns="http://www.w3.org/2000/svg" viewBox="0 0 800 500"><defs/><path fill="#f0e6e9" d="M0 0h100v100H0z"/><path fill="#e4dae1" d="M100 0h100v100H100z"/><path fill="#ead5d6" d="M200 0h100v100H200z"/><path fill="#f5dbda" d="M300 0h100v100H300z"/><path fill="#f2e3e6" d="M400 0h100v100H400z"/><path fill="#e2d3d8" d="M500 0h100v100H500z"/><path fill="#e4ced3" d="M600 0h100v100H600z"/><path fill="#ebe2e6" d="M700 0h100v100H700z"/><path fill="#c5a6b3" d="M0 100h100v100H0z"/><path fill="#947891" d="M100 100h100v100H100z"/><path fill="#ac6c7a" d="M200 100h100v100H200z"/><path fill="#be858f" d="M300 100h100v100H300z"/><path fill="#bc8b96" d="M400 100h100v100H400z"/><path fill="#b4717b" d="M500 100h100v100H500z"/><path fill="#ab5962" d="M600 100h100v100H600z"/><path fill="#c5888e" d="M700 100h100v100H700z"/><path fill="#c5b2be" d="M0 200h100v100H0z"/><path fill="#9a839a" d="M100 200h100v100H100z"/><path fill="#bf9cae" d="M200 200h100v100H200z"/><path fill="#bd8f9c" d="M300 200h100v100H300z"/><path fill="#b3a0b3" d="M400 200h100v100H400z"/><path fill="#9e99b3" d="M500 200h100v100H500z"/><path fill="#a68ea5" d="M600 200h100v100H600z"/><path fill="#b996a5" d="M700 200h100v100H700z"/><path fill="#9ba1ba" d="M0 300h100v100H0z"/><path fill="#7d7696" d="M100 300h100v100H100z"/><path fill="#796178" d="M200 300h100v100H200z"/><path fill="#6e5a75" d="M300 300h100v100H300z"/><path fill="#404b73" d="M400 300h100v100H400z"/><path fill="#5e78af" d="M500 300h100v100H500z"/><path fill="#687eb5" d="M600 300h100v100H600z"/><path fill="#8d87a2" d="M700 300h100v100H700z"/><path fill="#cfd7e4" d="M0 400h100v100H0z"/><path fill="#bac1d4" d="M100 400h100v100H100z"/><path fill="#d2b7bd" d="M200 400h100v100H200z"/><path fill="#c8b7c0" d="M300 400h100v100H300z"/><path fill="#a4a0b0" d="M400 400h100v100H400z"/><path fill="#d0a2a6" d="M500 400h100v100H500z"/><path fill="#deabac" d="M600 400h100v100H600z"/><path fill="#d1c0c6" d="M700 400h100v100H700z"/></svg>