<svg xmlns="http://www.w3.org/2000/svg" viewBox="0 0 800 500"><defs/><path fill="#c8cfe2" d="M0 0h100v100H0z"/><path fill="#b4a692" d="M100 0h100v100H100z"/><path fill="#b8bbc4" d="M200 0h100v100H200z"/><path fill="#b1b7c5" d="M300 0h100v100H300z"/><path fill="#b0b4bd" d="M400 0h100v100H400z"/><path fill="#c7d1e5" d="M500 0h100v100H500z"/><path fill="#cbd3eb" d="M600 0h100v100H600z"/><path fill="#c3c9e2" d="M700 0h100v100H700z"/><path fill="#adafac" d="M0 100h100v100H0z"/><path fill="#ac9e88" d="M100 100h100v100H100z"/><path fill="#afb3b2" d="M200 100h100v100H200z"/><path fill="#9c9380" d="M300 100h100v100H300z"/><path fill="#9e8e77" d="M400 100h100v100H400z"/><path fill="#a8a0af" d="M500 100h100v100H500z"/><path fill="#acaad5" d="M600 100h100v100H600z"/><path fill="#837a92" d="M700 100h100v100H700z"/><path fill="#c5c7ca" d="M0 200h100v100H0z"/><path fill="#a39b7f" d="M100 200h100v100H100z"/><path fill="#9e9d7a" d="M200 200h100v100H200z"/><path fill="#8f8270" d="M300 200h100v100H300z"/><path fill="#a39678" d="M400 200h100v100H400z"/><path fill="#c0b6b3" d="M500 200h100v100H500z"/><path fill="#b8bcd4" d="M600 200h100v100H600z"/><path fill="#b3b9c8" d="M700 200h100v100H700z"/><path fill="#b6adaa" d="M0 300h100v100H0z"/><path fill="#c0b088" d="M100 300h100v100H100z"/><path fill="#aaabab" d="M200 300h100v100H200z"/><path fill="#838596" d="M300 300h100v100H300z"/><path fill="#9496a2" d="M400 300h100v100H400z"/><path fill="#8d94a4" d="M500 300h100v100H500z"/><path fill="#c7c5ac" d="M600 300h100v100H600z"/><path fill="#d3d4d1" d="M700 300h100v100H700z"/><path fill="#d0c8b1" d="M0 400h100v100H0z"/><path fill="#d0cab2" d="M100 400h100v100H100z"/><path fill="#919cc1" d="M200 400h100v100H200z"/><path fill="#8892b6" d="M300 400h100v100H300z"/><path fill="#8993ba" d="M400 400h100v100H400z"/><path fill="#7a859d" d="M500 400h100v100H500z"/><path fill="#b7b6ac" d="M600 400h100v100H600z"/><path fill="#e7e3c7" d="M700 400h100v100H700z"/></svg>