<svg xmlns="http://www.w3.org/2000/svg" viewBox="0 0 800 500"><defs/><path fill="#c6a2a9" d="M0 0h100v100H0z"/><path fill="#b48d96" d="M100 0h100v100H100z"/><path fill="#ac898f" d="M200 0h100v100H200z"/><path fill="#b4919a" d="M300 0h100v100H300z"/><path fill="#b5949e" d="M400 0h100v100H400z"/><path fill="#b88e96" d="M500 0h100v100H500z"/><path fill="#b58890" d="M600 0h100v100H600z"/><path fill="#ba9897" d="M700 0h100v100H700z"/><path fill="#b19194" d="M0 100h100v100H0z"/><path fill="#a47983" d="M100 100h100v100H100z"/><path fill="#9c8286" d="M200 100h100v100H200z"/><path fill="#86929a" d="M300 100h100v100H300z"/><path fill="#938d95" d="M400 100h100v100H400z"/><path fill="#a99089" d="M500 100h100v100H500z"/><path fill="#a68184" d="M600 100h100v100H600z"/><path fill="#b39295" d="M700 100h100v100H700z"/><path fill="#b69098" d="M0 200h100v100H0z"/><path fill="#a68088" d="M100 200h100v100H100z"/><path fill="#9d7f82" d="M200 200h100v100H200z"/><path fill="#9f8d8f" d="M300 200h100v100H300z"/><path fill="#957774" d="M400 200h100v100H400z"/><path fill="#a18a87" d="M500 200h100v100H500z"/><path fill="#a87e83" d="M600 200h100v100H600z"/><path fill="#ab7d89" d="M700 200h100v100H700z"/><path fill="#ad8990" d="M0 300h100v100H0z"/><path fill="#846567" d="M100 300h100v100H100z"/><path fill="#958d81" d="M200 300h100v100H200z"/><path fill="#a19888" d="M300 300h100v100H300z"/><path fill="#8a8574" d="M400 300h100v100H400z"/><path fill="#8c887e" d="M500 300h100v100H500z"/><path fill="#9d8e86" d="M600 300h100v100H600z"/><path fill="#a47d84" d="M700 300h100v100H700z"/><path fill="#9f8484" d="M0 400h100v100H0z"/><path fill="#7e6b65" d="M100 400h100v100H100z"/><path fill="#898570" d="M200 400h100v100H200z"/><path fill="#6e8e77" d="M300 400h100v100H300z"/><path fill="#738d76" d="M400 400h100v100H400z"/><path fill="#978b74" d="M500 400h100v100H500z"/><path fill="#9d9987" d="M600 400h100v100H600z"/><path fill="#a79892" d="M700 400h100v100H700z"/></svg>