<svg xmlns="http://www.w3.org/2000/svg" viewBox="0 0 800 600"><defs/><path fill="#eee1d2" d="M0 0h100v100H0z"/><path fill="#e8dbcc" d="M100 0h100v100H100z"/><path fill="#f1e4d3" d="M200 0h100v100H200z"/><path fill="#f1e4d4" d="M300 0h100v100H300z"/><path fill="#f2e5d5" d="M400 0h100v100H400z"/><path fill="#f3e5d6" d="M500 0h100v100H500z"/><path fill="#f1e4d3" d="M600 0h100v100H600z"/><path fill="#f0e3d3" d="M700 0h100v100H700z"/><path fill="#eaddce" d="M0 100h100v100H0z"/><path fill="#c2b7ac" d="M100 100h100v100H100z"/><path fill="#cec3b7" d="M200 100h100v100H200z"/><path fill="#e4d7c9" d="M300 100h100v100H300z"/><path fill="#d2c6ba" d="M400 100h100v100H400z"/><path fill="#bab0a5" d="M500 100h100v100H500z"/><path fill="#ccc1b4" d="M600 100h100v100H600z"/><path fill="#e8dacc" d="M700 100h100v100H700z"/><path fill="#e2d5c6" d="M0 200h100v100H0z"/><path fill="#b8aea4" d="M100 200h100v100H100z"/><path fill="#bfb4aa" d="M200 200h100v100H200z"/><path fill="#d1c5b8" d="M300 200h100v100H300z"/><path fill="#b0a69d" d="M400 200h100v100H400z"/><path fill="#a09791" d="M500 200h100v100H500z"/><path fill="#aba298" d="M600 200h100v100H600z"/><path fill="#baaea5" d="M700 200h100v100H700z"/><path fill="#d8cdbe" d="M0 300h100v100H0z"/><path fill="#bfb4a9" d="M100 300h100v100H100z"/><path fill="#c1b6ac" d="M200 300h100v100H200z"/><path fill="#bab1a6" d="M300 300h100v100H300z"/><path fill="#aca299" d="M400 300h100v100H400z"/><path fill="#c5b8bd" d="M500 300h100v100H500z"/><path fill="#c7bcbc" d="M600 300h100v100H600z"/><path fill="#c3b7ab" d="M700 300h100v100H700z"/><path fill="#c7bdb0" d="M0 400h100v100H0z"/><path fill="#cfc4b7" d="M100 400h100v100H100z"/><path fill="#f3e5d5" d="M200 400h100v100H200z"/><path fill="#cdc5bb" d="M300 400h100v100H300z"/><path fill="#ada8a9" d="M400 400h100v100H400z"/><path fill="#b3aaba" d="M500 400h100v100H500z"/><path fill="#c9bec6" d="M600 400h100v100H600z"/><path fill="#d0c5b7" d="M700 400h100v100H700z"/><path fill="#cfc3b7" d="M0 500h100v100H0z"/><path fill="#e5d8c9" d="M100 500h100v100H100z"/><path fill="#f0e2d2" d="M200 500h100v100H200z"/><path fill="#e9decf" d="M300 500h100v100H300z"/><path fill="#e4dbd0" d="M400 500h100v100H400z"/><path fill="#d8d0cb" d="M500 500h100v100H500z"/><path fill="#d9cfc7" d="M600 500h100v100H600z"/><path fill="#e6dacc" d="M700 500h100v100H700z"/></svg>