<svg xmlns="http://www.w3.org/2000/svg" viewBox="0 0 800 500"><defs/><path fill="#969189" d="M0 0h100v100H0z"/><path fill="#ada49f" d="M100 0h100v100H100z"/><path fill="#ada6a3" d="M200 0h100v100H200z"/><path fill="#aea4a2" d="M300 0h100v100H300z"/><path fill="#aaa2a2" d="M400 0h100v100H400z"/><path fill="#a59d9d" d="M500 0h100v100H500z"/><path fill="#aaa2a0" d="M600 0h100v100H600z"/><path fill="#868683" d="M700 0h100v100H700z"/><path fill="#a8a099" d="M0 100h100v100H0z"/><path fill="#b4aba7" d="M100 100h100v100H100z"/><path fill="#aba8a7" d="M200 100h100v100H200z"/><path fill="#989ea2" d="M300 100h100v100H300z"/><path fill="#92989d" d="M400 100h100v100H400z"/><path fill="#8d959a" d="M500 100h100v100H500z"/><path fill="#a6a5a7" d="M600 100h100v100H600z"/><path fill="#8e8c8a" d="M700 100h100v100H700z"/><path fill="#b2a9a2" d="M0 200h100v100H0z"/><path fill="#bbb2ae" d="M100 200h100v100H100z"/><path fill="#b7b1af" d="M200 200h100v100H200z"/><path fill="#a49d9b" d="M300 200h100v100H300z"/><path fill="#8f8986" d="M400 200h100v100H400z"/><path fill="#99989b" d="M500 200h100v100H500z"/><path fill="#b5adad" d="M600 200h100v100H600z"/><path fill="#9b9a99" d="M700 200h100v100H700z"/><path fill="#b2a9a2" d="M0 300h100v100H0z"/><path fill="#beb6b3" d="M100 300h100v100H100z"/><path fill="#bfb6b4" d="M200 300h100v100H200z"/><path fill="#bfb6b2" d="M300 300h100v100H300z"/><path fill="#bbb5b4" d="M400 300h100v100H400z"/><path fill="#bcb5b5" d="M500 300h100v100H500z"/><path fill="#bdb3b0" d="M600 300h100v100H600z"/><path fill="#aea9a7" d="M700 300h100v100H700z"/><path fill="#b3aba3" d="M0 400h100v100H0z"/><path fill="#c2bab6" d="M100 400h100v100H100z"/><path fill="#c8c1bd" d="M200 400h100v100H200z"/><path fill="#cbc3c2" d="M300 400h100v100H300z"/><path fill="#cec3c3" d="M400 400h100v100H400z"/><path fill="#c8c0bf" d="M500 400h100v100H500z"/><path fill="#c1b9b7" d="M600 400h100v100H600z"/><path fill="#b7aeac" d="M700 400h100v100H700z"/></svg>