<svg xmlns="http://www.w3.org/2000/svg" viewBox="0 0 800 600"><defs/><path fill="#d5b6bb" d="M0 0h100v100H0z"/><path fill="#c0b6bc" d="M100 0h100v100H100z"/><path fill="#aaa9ae" d="M200 0h100v100H200z"/><path fill="#b2b0b7" d="M300 0h100v100H300z"/><path fill="#c0bac1" d="M400 0h100v100H400z"/><path fill="#b1afb7" d="M500 0h100v100H500z"/><path fill="#b0b0b9" d="M600 0h100v100H600z"/><path fill="#cfd6df" d="M700 0h100v100H700z"/><path fill="#d73e40" d="M0 100h100v100H0z"/><path fill="#906768" d="M100 100h100v100H100z"/><path fill="#323234" d="M200 100h100v100H200z"/><path fill="#1c1a1b" d="M300 100h100v100H300z"/><path fill="#c6b7b8" d="M400 100h100v100H400z"/><path fill="#454849" d="M500 100h100v100H500z"/><path fill="#1e2224" d="M600 100h100v100H600z"/><path fill="#96767c" d="M700 100h100v100H700z"/><path fill="#cd4e51" d="M0 200h100v100H0z"/><path fill="#755c5e" d="M100 200h100v100H100z"/><path fill="#504a4b" d="M200 200h100v100H200z"/><path fill="#4f282a" d="M300 200h100v100H300z"/><path fill="#bd7778" d="M400 200h100v100H400z"/><path fill="#644344" d="M500 200h100v100H500z"/><path fill="#726062" d="M600 200h100v100H600z"/><path fill="#9c6f74" d="M700 200h100v100H700z"/><path fill="#b85f63" d="M0 300h100v100H0z"/><path fill="#6c6062" d="M100 300h100v100H100z"/><path fill="#8a3439" d="M200 300h100v100H200z"/><path fill="#903537" d="M300 300h100v100H300z"/><path fill="#892224" d="M400 300h100v100H400z"/><path fill="#a43031" d="M500 300h100v100H500z"/><path fill="#9c6e71" d="M600 300h100v100H600z"/><path fill="#bbb9c2" d="M700 300h100v100H700z"/><path fill="#a27174" d="M0 400h100v100H0z"/><path fill="#a9aaaf" d="M100 400h100v100H100z"/><path fill="#8e7278" d="M200 400h100v100H200z"/><path fill="#3d1c1d" d="M300 400h100v100H300z"/><path fill="#3c2528" d="M400 400h100v100H400z"/><path fill="#5a3a3d" d="M500 400h100v100H500z"/><path fill="#cfd1d9" d="M600 400h100v100H600z"/><path fill="#c4c4cc" d="M700 400h100v100H700z"/><path fill="#c2c4cc" d="M0 500h100v100H0z"/><path fill="#bfc6cf" d="M100 500h100v100H100z"/><path fill="#898990" d="M200 500h100v100H200z"/><path fill="#838087" d="M300 500h100v100H300z"/><path fill="#8c8088" d="M400 500h100v100H400z"/><path fill="#867e85" d="M500 500h100v100H500z"/><path fill="#b1b4bc" d="M600 500h100v100H600z"/><path fill="#c0c5ce" d="M700 500h100v100H700z"/></svg>