<svg xmlns="http://www.w3.org/2000/svg" viewBox="0 0 800 500"><defs/><path fill="#f7f7f7" d="M0 0h100v100H0z"/><path fill="#f0f0f0" d="M100 0h100v100H100z"/><path fill="#f4f4f4" d="M200 0h100v100H200z"/><path fill="#f7f7f7" d="M300 0h100v100H300z"/><path fill="#f5f5f5" d="M400 0h100v100H400z"/><path fill="#f3f3f3" d="M500 0h100v100H500zm100 0h100v100H600z"/><path fill="#efefef" d="M700 0h100v100H700z"/><path fill="#e4e4e4" d="M0 100h100v100H0z"/><path fill="#d5d5d5" d="M100 100h100v100H100z"/><path fill="#dfdfdf" d="M200 100h100v100H200z"/><path fill="#e3e3e3" d="M300 100h100v100H300z"/><path fill="#dedede" d="M400 100h100v100H400z"/><path fill="#e3e3e3" d="M500 100h100v100H500z"/><path fill="#d0d0d0" d="M600 100h100v100H600z"/><path fill="#bdbdbd" d="M700 100h100v100H700z"/><path fill="#cecece" d="M0 200h100v100H0z"/><path fill="#d0d0d0" d="M100 200h100v100H100z"/><path fill="#e3e3e3" d="M200 200h100v100H200z"/><path fill="#cacaca" d="M300 200h100v100H300z"/><path fill="#d8d8d8" d="M400 200h100v100H400z"/><path fill="#e7e7e7" d="M500 200h100v100H500z"/><path fill="#e0e0e0" d="M600 200h100v100H600z"/><path fill="#cdcdcd" d="M700 200h100v100H700z"/><path fill="#d4d4d4" d="M0 300h100v100H0z"/><path fill="#b9b9b9" d="M100 300h100v100H100z"/><path fill="#cbcbcb" d="M200 300h100v100H200z"/><path fill="#d1d1d1" d="M300 300h100v100H300z"/><path fill="#d6d6d6" d="M400 300h100v100H400z"/><path fill="#d8d8d8" d="M500 300h100v100H500z"/><path fill="#d7d7d7" d="M600 300h100v100H600z"/><path fill="#d6d6d6" d="M700 300h100v100H700z"/><path fill="#e8e8e8" d="M0 400h100v100H0z"/><path fill="#dbdbdb" d="M100 400h100v100H100z"/><path fill="#dfdfdf" d="M200 400h100v100H200z"/><path fill="#e4e4e4" d="M300 400h100v100H300z"/><path fill="#e1e1e1" d="M400 400h100v100H400z"/><path fill="#dfdfdf" d="M500 400h100v100H500z"/><path fill="#e4e4e4" d="M600 400h100v100H600z"/><path fill="#dfdfdf" d="M700 400h100v100H700z"/></svg>