<svg xmlns="http://www.w3.org/2000/svg" viewBox="0 0 800 500"><defs/><path fill="#c2b6ae" d="M0 0h100v100H0z"/><path fill="#726663" d="M100 0h100v100H100z"/><path fill="#916c57" d="M200 0h100v100H200z"/><path fill="#8b7265" d="M300 0h100v100H300z"/><path fill="#7d665c" d="M400 0h100v100H400z"/><path fill="#694e3f" d="M500 0h100v100H500z"/><path fill="#887d6e" d="M600 0h100v100H600z"/><path fill="#c3b7aa" d="M700 0h100v100H700z"/><path fill="#aea69d" d="M0 100h100v100H0z"/><path fill="#6e5d57" d="M100 100h100v100H100z"/><path fill="#8d5d41" d="M200 100h100v100H200z"/><path fill="#856246" d="M300 100h100v100H300z"/><path fill="#4f4041" d="M400 100h100v100H400z"/><path fill="#393422" d="M500 100h100v100H500z"/><path fill="#686b56" d="M600 100h100v100H600z"/><path fill="#c4b3a5" d="M700 100h100v100H700z"/><path fill="#a88f84" d="M0 200h100v100H0z"/><path fill="#705045" d="M100 200h100v100H100z"/><path fill="#8c695b" d="M200 200h100v100H200z"/><path fill="#967664" d="M300 200h100v100H300z"/><path fill="#896e63" d="M400 200h100v100H400z"/><path fill="#5d4f41" d="M500 200h100v100H500z"/><path fill="#5a594d" d="M600 200h100v100H600z"/><path fill="#a09488" d="M700 200h100v100H700z"/><path fill="#6a6d4e" d="M0 300h100v100H0z"/><path fill="#998572" d="M100 300h100v100H100z"/><path fill="#9e8479" d="M200 300h100v100H200z"/><path fill="#7f7373" d="M300 300h100v100H300z"/><path fill="#664c48" d="M400 300h100v100H400z"/><path fill="#865153" d="M500 300h100v100H500z"/><path fill="#908282" d="M600 300h100v100H600z"/><path fill="#7e7a70" d="M700 300h100v100H700z"/><path fill="#958f81" d="M0 400h100v100H0z"/><path fill="#beaca1" d="M100 400h100v100H100z"/><path fill="#bea899" d="M200 400h100v100H200z"/><path fill="#b4a49e" d="M300 400h100v100H300z"/><path fill="#a38984" d="M400 400h100v100H400z"/><path fill="#a18279" d="M500 400h100v100H500z"/><path fill="#a8978d" d="M600 400h100v100H600z"/><path fill="#927e72" d="M700 400h100v100H700z"/></svg>