<svg xmlns="http://www.w3.org/2000/svg" viewBox="0 0 800 600"><defs/><path fill="#dbdbe3" d="M0 0h100v100H0z"/><path fill="#e3e2ec" d="M100 0h100v100H100z"/><path fill="#e1e0eb" d="M200 0h100v100H200z"/><path fill="#e1dfe8" d="M300 0h100v100H300z"/><path fill="#dcdbe5" d="M400 0h100v100H400z"/><path fill="#d2d4e1" d="M500 0h100v100H500z"/><path fill="#d0d0dc" d="M600 0h100v100H600z"/><path fill="#ceccd8" d="M700 0h100v100H700z"/><path fill="#dfdce7" d="M0 100h100v100H0z"/><path fill="#a0b1ae" d="M100 100h100v100H100z"/><path fill="#85989e" d="M200 100h100v100H200z"/><path fill="#787c9e" d="M300 100h100v100H300z"/><path fill="#8488ad" d="M400 100h100v100H400z"/><path fill="#b3b0b8" d="M500 100h100v100H500z"/><path fill="#b9b4c0" d="M600 100h100v100H600z"/><path fill="#d3d3e0" d="M700 100h100v100H700z"/><path fill="#e0dce8" d="M0 200h100v100H0z"/><path fill="#709088" d="M100 200h100v100H100z"/><path fill="#7f8991" d="M200 200h100v100H200z"/><path fill="#959ec1" d="M300 200h100v100H300z"/><path fill="#7c8db0" d="M400 200h100v100H400z"/><path fill="#a39496" d="M500 200h100v100H500z"/><path fill="#a3888f" d="M600 200h100v100H600z"/><path fill="#cfc2ce" d="M700 200h100v100H700z"/><path fill="#ced0d9" d="M0 300h100v100H0z"/><path fill="#4b7266" d="M100 300h100v100H100z"/><path fill="#86868a" d="M200 300h100v100H200z"/><path fill="#b3a4a6" d="M300 300h100v100H300z"/><path fill="#9da0b7" d="M400 300h100v100H400z"/><path fill="#c1b7c1" d="M500 300h100v100H500z"/><path fill="#c5bac4" d="M600 300h100v100H600z"/><path fill="#ccc8d6" d="M700 300h100v100H700z"/><path fill="#bec4cc" d="M0 400h100v100H0z"/><path fill="#67847d" d="M100 400h100v100H100z"/><path fill="#9e8b89" d="M200 400h100v100H200z"/><path fill="#a99599" d="M300 400h100v100H300z"/><path fill="#c2c3ce" d="M400 400h100v100H400z"/><path fill="#bdb2ba" d="M500 400h100v100H500z"/><path fill="#bcafba" d="M600 400h100v100H600z"/><path fill="#c8c9d6" d="M700 400h100v100H700z"/><path fill="#d6d6e1" d="M0 500h100v100H0z"/><path fill="#d6d5e2" d="M100 500h100v100H100z"/><path fill="#d4d4e1" d="M200 500h100v100H200z"/><path fill="#d2d2de" d="M300 500h100v100H300z"/><path fill="#d3d3df" d="M400 500h100v100H400z"/><path fill="#c7c6d1" d="M500 500h100v100H500z"/><path fill="#c9cad8" d="M600 500h100v100H600z"/><path fill="#cfcdd9" d="M700 500h100v100H700z"/></svg>