<svg xmlns="http://www.w3.org/2000/svg" viewBox="0 0 800 400"><defs/><path fill="#b7bbb2" d="M0 0h100v100H0z"/><path fill="#a6a4a1" d="M100 0h100v100H100z"/><path fill="#b8bfb9" d="M200 0h100v100H200z"/><path fill="#c7c7c3" d="M300 0h100v100H300z"/><path fill="#b1c0c1" d="M400 0h100v100H400z"/><path fill="#b0c3c7" d="M500 0h100v100H500z"/><path fill="#c7c9c6" d="M600 0h100v100H600z"/><path fill="#bfb3b3" d="M700 0h100v100H700z"/><path fill="#abaeb1" d="M0 100h100v100H0z"/><path fill="#a09bad" d="M100 100h100v100H100z"/><path fill="#babece" d="M200 100h100v100H200z"/><path fill="#b0b3b1" d="M300 100h100v100H300z"/><path fill="#afb8bd" d="M400 100h100v100H400z"/><path fill="#b5c8d1" d="M500 100h100v100H500z"/><path fill="#bec5c6" d="M600 100h100v100H600z"/><path fill="#c3b8b8" d="M700 100h100v100H700z"/><path fill="#a5a8ae" d="M0 200h100v100H0z"/><path fill="#aba3b0" d="M100 200h100v100H100z"/><path fill="#c2c2c3" d="M200 200h100v100H200z"/><path fill="#a6a5a4" d="M300 200h100v100H300z"/><path fill="#bdbebe" d="M400 200h100v100H400z"/><path fill="#c4c1bc" d="M500 200h100v100H500z"/><path fill="#bab2ac" d="M600 200h100v100H600z"/><path fill="#c5bab0" d="M700 200h100v100H700z"/><path fill="#949d9e" d="M0 300h100v100H0z"/><path fill="#b3b8ab" d="M100 300h100v100H100z"/><path fill="#bcc6c7" d="M200 300h100v100H200z"/><path fill="#a1bad3" d="M300 300h100v100H300z"/><path fill="#9eb3c4" d="M400 300h100v100H400z"/><path fill="#c8c1b4" d="M500 300h100v100H500z"/><path fill="#c5c0b5" d="M600 300h100v100H600z"/><path fill="#c8c0ab" d="M700 300h100v100H700z"/></svg>