<svg xmlns="http://www.w3.org/2000/svg" viewBox="0 0 800 400"><defs/><path fill="#b3a2a2" d="M0 0h100v100H0z"/><path fill="#b09ea1" d="M100 0h100v100H100z"/><path fill="#a99393" d="M200 0h100v100H200z"/><path fill="#a78f90" d="M300 0h100v100H300z"/><path fill="#ab999c" d="M400 0h100v100H400z"/><path fill="#b1a1a7" d="M500 0h100v100H500z"/><path fill="#bfb0b1" d="M600 0h100v100H600z"/><path fill="#b6a7a5" d="M700 0h100v100H700z"/><path fill="#ae968d" d="M0 100h100v100H0z"/><path fill="#b6af9e" d="M100 100h100v100H100z"/><path fill="#a8896a" d="M200 100h100v100H200z"/><path fill="#9b6e4f" d="M300 100h100v100H300z"/><path fill="#b3ab98" d="M400 100h100v100H400z"/><path fill="#c0bfbb" d="M500 100h100v100H500z"/><path fill="#c2af99" d="M600 100h100v100H600z"/><path fill="#b5a498" d="M700 100h100v100H700z"/><path fill="#ae9e91" d="M0 200h100v100H0z"/><path fill="#a7a18f" d="M100 200h100v100H100z"/><path fill="#ad8c63" d="M200 200h100v100H200z"/><path fill="#a47453" d="M300 200h100v100H300z"/><path fill="#c6b299" d="M400 200h100v100H400z"/><path fill="#b5a090" d="M500 200h100v100H500z"/><path fill="#c6b2a0" d="M600 200h100v100H600z"/><path fill="#c1afa6" d="M700 200h100v100H700z"/><path fill="#998074" d="M0 300h100v100H0z"/><path fill="#9c7c61" d="M100 300h100v100H100z"/><path fill="#b28766" d="M200 300h100v100H200z"/><path fill="#b98569" d="M300 300h100v100H300z"/><path fill="#b28062" d="M400 300h100v100H400z"/><path fill="#a57e65" d="M500 300h100v100H500z"/><path fill="#c4b3ab" d="M600 300h100v100H600z"/><path fill="#a79091" d="M700 300h100v100H700z"/></svg>