<svg xmlns="http://www.w3.org/2000/svg" viewBox="0 0 800 600"><defs/><path fill="#9bbac2" d="M0 0h100v100H0z"/><path fill="#cba7a2" d="M100 0h100v100H100z"/><path fill="#d7c3c0" d="M200 0h100v100H200z"/><path fill="#f6d7bc" d="M300 0h100v100H300z"/><path fill="#e5ad82" d="M400 0h100v100H400z"/><path fill="#d08f64" d="M500 0h100v100H500z"/><path fill="#b97845" d="M600 0h100v100H600z"/><path fill="#7b5f51" d="M700 0h100v100H700z"/><path fill="#93b5b7" d="M0 100h100v100H0z"/><path fill="#b79e97" d="M100 100h100v100H100z"/><path fill="#c5b2a7" d="M200 100h100v100H200z"/><path fill="#eabc97" d="M300 100h100v100H300z"/><path fill="#e19966" d="M400 100h100v100H400z"/><path fill="#cd7c4b" d="M500 100h100v100H500z"/><path fill="#be5626" d="M600 100h100v100H600z"/><path fill="#a87346" d="M700 100h100v100H700z"/><path fill="#a28b79" d="M0 200h100v100H0z"/><path fill="#d08d56" d="M100 200h100v100H100z"/><path fill="#b68265" d="M200 200h100v100H200z"/><path fill="#c0825e" d="M300 200h100v100H300z"/><path fill="#362043" d="M400 200h100v100H400z"/><path fill="#743f36" d="M500 200h100v100H500z"/><path fill="#9a3c12" d="M600 200h100v100H600z"/><path fill="#a55f32" d="M700 200h100v100H700z"/><path fill="#5a3e33" d="M0 300h100v100H0z"/><path fill="#814f32" d="M100 300h100v100H100z"/><path fill="#5f433c" d="M200 300h100v100H200z"/><path fill="#7a4c36" d="M300 300h100v100H300z"/><path fill="#4e353b" d="M400 300h100v100H400z"/><path fill="#573427" d="M500 300h100v100H500z"/><path fill="#6c3f1d" d="M600 300h100v100H600z"/><path fill="#3e1d12" d="M700 300h100v100H700z"/><path fill="#5a3019" d="M0 400h100v100H0z"/><path fill="#48371d" d="M100 400h100v100H100z"/><path fill="#37301d" d="M200 400h100v100H200z"/><path fill="#382614" d="M300 400h100v100H300z"/><path fill="#53331b" d="M400 400h100v100H400z"/><path fill="#432c15" d="M500 400h100v100H500z"/><path fill="#482b13" d="M600 400h100v100H600z"/><path fill="#492615" d="M700 400h100v100H700z"/><path fill="#512d11" d="M0 500h100v100H0z"/><path fill="#3b4113" d="M100 500h100v100H100z"/><path fill="#343f0d" d="M200 500h100v100H200z"/><path fill="#394511" d="M300 500h100v100H300z"/><path fill="#30330d" d="M400 500h100v100H400z"/><path fill="#2b340b" d="M500 500h100v100H500z"/><path fill="#31390f" d="M600 500h100v100H600z"/><path fill="#3e3817" d="M700 500h100v100H700z"/></svg>