<svg xmlns="http://www.w3.org/2000/svg" viewBox="0 0 800 800"><defs/><path fill="#fff" d="M0 0h100v100H0zm100 0h100v100H100zm100 0h100v100H200zm100 0h100v100H300zm100 0h100v100H400zm100 0h100v100H500zm100 0h100v100H600zm100 0h100v100H700z"/><path fill="#f0ebeb" d="M0 100h100v100H0z"/><path fill="#ece6e5" d="M100 100h100v100H100z"/><path fill="#e9e2e1" d="M200 100h100v100H200z"/><path fill="#ebe2e2" d="M300 100h100v100H300z"/><path fill="#ede6e6" d="M400 100h100v100H400z"/><path fill="#ebebea" d="M500 100h100v100H500z"/><path fill="#edecea" d="M600 100h100v100H600z"/><path fill="#f1efee" d="M700 100h100v100H700z"/><path fill="#784f4a" d="M0 200h100v100H0z"/><path fill="#6b2f26" d="M100 200h100v100H100z"/><path fill="#5b4842" d="M200 200h100v100H200z"/><path fill="#806056" d="M300 200h100v100H300z"/><path fill="#745351" d="M400 200h100v100H400z"/><path fill="#5b5964" d="M500 200h100v100H500z"/><path fill="#554849" d="M600 200h100v100H600z"/><path fill="#706868" d="M700 200h100v100H700z"/><path fill="#855b55" d="M0 300h100v100H0z"/><path fill="#73382b" d="M100 300h100v100H100z"/><path fill="#746d5f" d="M200 300h100v100H200z"/><path fill="#8c9078" d="M300 300h100v100H300z"/><path fill="#775b4f" d="M400 300h100v100H400z"/><path fill="#8c765c" d="M500 300h100v100H500z"/><path fill="#5d4b48" d="M600 300h100v100H600z"/><path fill="#544441" d="M700 300h100v100H700z"/><path fill="#7e5954" d="M0 400h100v100H0z"/><path fill="#5a4039" d="M100 400h100v100H100z"/><path fill="#72423a" d="M200 400h100v100H200z"/><path fill="#85543e" d="M300 400h100v100H300z"/><path fill="#836757" d="M400 400h100v100H400z"/><path fill="#846f4f" d="M500 400h100v100H500z"/><path fill="#604a3e" d="M600 400h100v100H600z"/><path fill="#684b43" d="M700 400h100v100H700z"/><path fill="#7d5454" d="M0 500h100v100H0z"/><path fill="#836855" d="M100 500h100v100H100z"/><path fill="#ab5e48" d="M200 500h100v100H200z"/><path fill="#853d2e" d="M300 500h100v100H300z"/><path fill="#6a3d30" d="M400 500h100v100H400z"/><path fill="#6e3122" d="M500 500h100v100H500z"/><path fill="#6e3c30" d="M600 500h100v100H600z"/><path fill="#7a5e53" d="M700 500h100v100H700z"/><path fill="#f2eeee" d="M0 600h100v100H0z"/><path fill="#fbf3ed" d="M100 600h100v100H100z"/><path fill="#faefe9" d="M200 600h100v100H200z"/><path fill="#f2eeeb" d="M300 600h100v100H300z"/><path fill="#f4e8e3" d="M400 600h100v100H400z"/><path fill="#fcede7" d="M500 600h100v100H500z"/><path fill="#f5ebe9" d="M600 600h100v100H600z"/><path fill="#f2efed" d="M700 600h100v100H700z"/><path fill="#fff" d="M0 700h100v100H0z"/><path fill="#fefeff" d="M100 700h100v100H100z"/><path fill="#fff" d="M200 700h100v100H200zm100 0h100v100H300z"/><path fill="#feffff" d="M400 700h100v100H400zm100 0h100v100H500zm100 0h100v100H600z"/><path fill="#fff" d="M700 700h100v100H700z"/></svg>