<svg xmlns="http://www.w3.org/2000/svg" viewBox="0 0 800 500"><defs/><path fill="#a08786" d="M0 0h100v100H0z"/><path fill="#906865" d="M100 0h100v100H100z"/><path fill="#9e8381" d="M200 0h100v100H200z"/><path fill="#a69596" d="M300 0h100v100H300z"/><path fill="#917e7a" d="M400 0h100v100H400z"/><path fill="#947f75" d="M500 0h100v100H500z"/><path fill="#766560" d="M600 0h100v100H600z"/><path fill="#74615e" d="M700 0h100v100H700z"/><path fill="#897071" d="M0 100h100v100H0z"/><path fill="#643335" d="M100 100h100v100H100z"/><path fill="#3a4130" d="M200 100h100v100H200z"/><path fill="#68635b" d="M300 100h100v100H300z"/><path fill="#5d4740" d="M400 100h100v100H400z"/><path fill="#4d3629" d="M500 100h100v100H500z"/><path fill="#42302b" d="M600 100h100v100H600z"/><path fill="#433230" d="M700 100h100v100H700z"/><path fill="#8c6a68" d="M0 200h100v100H0z"/><path fill="#592929" d="M100 200h100v100H100z"/><path fill="#635c42" d="M200 200h100v100H200z"/><path fill="#8e7e6f" d="M300 200h100v100H300z"/><path fill="#987266" d="M400 200h100v100H400z"/><path fill="#7e5d50" d="M500 200h100v100H500z"/><path fill="#8b7975" d="M600 200h100v100H600z"/><path fill="#8d786d" d="M700 200h100v100H700z"/><path fill="#885f5c" d="M0 300h100v100H0z"/><path fill="#4d1816" d="M100 300h100v100H100z"/><path fill="#a46c4e" d="M200 300h100v100H200z"/><path fill="#b7554c" d="M300 300h100v100H300z"/><path fill="#924e3d" d="M400 300h100v100H400z"/><path fill="#7b4a35" d="M500 300h100v100H500z"/><path fill="#7b503d" d="M600 300h100v100H600z"/><path fill="#9e6347" d="M700 300h100v100H700z"/><path fill="#9a6c62" d="M0 400h100v100H0z"/><path fill="#874e3d" d="M100 400h100v100H100z"/><path fill="#bb8567" d="M200 400h100v100H200z"/><path fill="#b57463" d="M300 400h100v100H300z"/><path fill="#b78f6d" d="M400 400h100v100H400z"/><path fill="#c29e77" d="M500 400h100v100H500z"/><path fill="#c08d76" d="M600 400h100v100H600z"/><path fill="#c38d7a" d="M700 400h100v100H700z"/></svg>