<svg xmlns="http://www.w3.org/2000/svg" viewBox="0 0 800 400"><defs/><path fill="#ebebeb" d="M0 0h100v100H0z"/><path fill="#cacaca" d="M100 0h100v100H100z"/><path fill="#f7f5f5" d="M200 0h100v100H200z"/><path fill="#fbfafa" d="M300 0h100v100H300z"/><path fill="#faf8f7" d="M400 0h100v100H400z"/><path fill="#f9f8f7" d="M500 0h100v100H500z"/><path fill="#f4f3f3" d="M600 0h100v100H600z"/><path fill="#eee" d="M700 0h100v100H700z"/><path fill="#dddddf" d="M0 100h100v100H0z"/><path fill="#c4c2bb" d="M100 100h100v100H100z"/><path fill="#d0d8d2" d="M200 100h100v100H200z"/><path fill="#c6d7e4" d="M300 100h100v100H300z"/><path fill="#bed3e0" d="M400 100h100v100H400z"/><path fill="#c2d6e3" d="M500 100h100v100H500z"/><path fill="#ecf2f7" d="M600 100h100v100H600z"/><path fill="#f7f6f6" d="M700 100h100v100H700z"/><path fill="#c9cacb" d="M0 200h100v100H0z"/><path fill="#b4b0ae" d="M100 200h100v100H100z"/><path fill="#bbb6b4" d="M200 200h100v100H200z"/><path fill="#c2b4af" d="M300 200h100v100H300z"/><path fill="#bab5b5" d="M400 200h100v100H400z"/><path fill="#c2b7b6" d="M500 200h100v100H500z"/><path fill="#d4ccc2" d="M600 200h100v100H600z"/><path fill="#efeae2" d="M700 200h100v100H700z"/><path fill="#c3bebb" d="M0 300h100v100H0z"/><path fill="#ccafa3" d="M100 300h100v100H100z"/><path fill="#ddb29f" d="M200 300h100v100H200z"/><path fill="#e0c2b3" d="M300 300h100v100H300z"/><path fill="#e0b5a1" d="M400 300h100v100H400z"/><path fill="#deb29f" d="M500 300h100v100H500z"/><path fill="#d8b199" d="M600 300h100v100H600z"/><path fill="#dac6b5" d="M700 300h100v100H700z"/></svg>