<svg xmlns="http://www.w3.org/2000/svg" viewBox="0 0 800 400"><defs/><path fill="#cdbaab" d="M0 0h100v100H0z"/><path fill="#c2b29e" d="M100 0h100v100H100z"/><path fill="#a49b87" d="M200 0h100v100H200z"/><path fill="#a6a590" d="M300 0h100v100H300z"/><path fill="#a29b86" d="M400 0h100v100H400z"/><path fill="#a5978a" d="M500 0h100v100H500z"/><path fill="#aa9b90" d="M600 0h100v100H600z"/><path fill="#d6c3af" d="M700 0h100v100H700z"/><path fill="#a19488" d="M0 100h100v100H0z"/><path fill="#b19d89" d="M100 100h100v100H100z"/><path fill="#988a6f" d="M200 100h100v100H200z"/><path fill="#8e836f" d="M300 100h100v100H300z"/><path fill="#827a62" d="M400 100h100v100H400z"/><path fill="#8d7f6b" d="M500 100h100v100H500z"/><path fill="#8f7f6e" d="M600 100h100v100H600z"/><path fill="#a79d90" d="M700 100h100v100H700z"/><path fill="#bea898" d="M0 200h100v100H0z"/><path fill="#8d836c" d="M100 200h100v100H100z"/><path fill="#888367" d="M200 200h100v100H200z"/><path fill="#a48a82" d="M300 200h100v100H300z"/><path fill="#897673" d="M400 200h100v100H400z"/><path fill="#857c6c" d="M500 200h100v100H500z"/><path fill="#94816d" d="M600 200h100v100H600z"/><path fill="#c0b09d" d="M700 200h100v100H700z"/><path fill="#c1ab99" d="M0 300h100v100H0z"/><path fill="#a39d84" d="M100 300h100v100H100z"/><path fill="#b8b59b" d="M200 300h100v100H200z"/><path fill="#ceb7a5" d="M300 300h100v100H300z"/><path fill="#b2a190" d="M400 300h100v100H400z"/><path fill="#ada28e" d="M500 300h100v100H500z"/><path fill="#b5a089" d="M600 300h100v100H600z"/><path fill="#cbb79f" d="M700 300h100v100H700z"/></svg>