<svg xmlns="http://www.w3.org/2000/svg" viewBox="0 0 800 600"><defs/><path fill="#d8cdd4" d="M0 0h100v100H0z"/><path fill="#b49faf" d="M100 0h100v100H100z"/><path fill="#b9a1bf" d="M200 0h100v100H200z"/><path fill="#c9b0c6" d="M300 0h100v100H300z"/><path fill="#dbcfd6" d="M400 0h100v100H400z"/><path fill="#e3dce2" d="M500 0h100v100H500z"/><path fill="#dbcdda" d="M600 0h100v100H600z"/><path fill="#e3dae2" d="M700 0h100v100H700z"/><path fill="#aa8b95" d="M0 100h100v100H0z"/><path fill="#848685" d="M100 100h100v100H100z"/><path fill="#b2acc0" d="M200 100h100v100H200z"/><path fill="#dcc2d7" d="M300 100h100v100H300z"/><path fill="#ddcecd" d="M400 100h100v100H400z"/><path fill="#cecfc1" d="M500 100h100v100H500z"/><path fill="#ae98bd" d="M600 100h100v100H600z"/><path fill="#ac85a0" d="M700 100h100v100H700z"/><path fill="#95889c" d="M0 200h100v100H0z"/><path fill="#7f8a81" d="M100 200h100v100H100z"/><path fill="#b5c8b8" d="M200 200h100v100H200z"/><path fill="#f2e3ef" d="M300 200h100v100H300z"/><path fill="#f4e8e9" d="M400 200h100v100H400z"/><path fill="#e6eae7" d="M500 200h100v100H500z"/><path fill="#c1bed1" d="M600 200h100v100H600z"/><path fill="#ae89a2" d="M700 200h100v100H700z"/><path fill="#9e8aa1" d="M0 300h100v100H0z"/><path fill="#86848a" d="M100 300h100v100H100z"/><path fill="#c9bdbd" d="M200 300h100v100H200z"/><path fill="#ecd9e0" d="M300 300h100v100H300z"/><path fill="#f0e2de" d="M400 300h100v100H400z"/><path fill="#e0dfe0" d="M500 300h100v100H500z"/><path fill="#c3bbc6" d="M600 300h100v100H600z"/><path fill="#a795aa" d="M700 300h100v100H700z"/><path fill="#99829e" d="M0 400h100v100H0z"/><path fill="#9a8397" d="M100 400h100v100H100z"/><path fill="#a9a1ae" d="M200 400h100v100H200z"/><path fill="#b2b2bd" d="M300 400h100v100H300z"/><path fill="#c4b5b0" d="M400 400h100v100H400z"/><path fill="#9d989c" d="M500 400h100v100H500z"/><path fill="#9798a7" d="M600 400h100v100H600z"/><path fill="#9695a0" d="M700 400h100v100H700z"/><path fill="#d5cdd8" d="M0 500h100v100H0z"/><path fill="#d7ced8" d="M100 500h100v100H100z"/><path fill="#cfc9d3" d="M200 500h100v100H200z"/><path fill="#bfc2cb" d="M300 500h100v100H300z"/><path fill="#cacbd1" d="M400 500h100v100H400z"/><path fill="#dacdd8" d="M500 500h100v100H500z"/><path fill="#c4b9c8" d="M600 500h100v100H600z"/><path fill="#bfb9c5" d="M700 500h100v100H700z"/></svg>