<svg xmlns="http://www.w3.org/2000/svg" viewBox="0 0 800 700"><defs/><path fill="#6a5528" d="M0 0h100v100H0z"/><path fill="#a58732" d="M100 0h100v100H100z"/><path fill="#846821" d="M200 0h100v100H200z"/><path fill="#454618" d="M300 0h100v100H300z"/><path fill="#413f20" d="M400 0h100v100H400z"/><path fill="#4a551b" d="M500 0h100v100H500z"/><path fill="#657826" d="M600 0h100v100H600z"/><path fill="#57641b" d="M700 0h100v100H700z"/><path fill="#272915" d="M0 100h100v100H0z"/><path fill="#3c3a22" d="M100 100h100v100H100z"/><path fill="#afa07d" d="M200 100h100v100H200z"/><path fill="#e1d1b8" d="M300 100h100v100H300z"/><path fill="#c3b4a6" d="M400 100h100v100H400z"/><path fill="#979959" d="M500 100h100v100H500z"/><path fill="#465215" d="M600 100h100v100H600z"/><path fill="#2f360d" d="M700 100h100v100H700z"/><path fill="#1d1a16" d="M0 200h100v100H0z"/><path fill="#b5a69c" d="M100 200h100v100H100z"/><path fill="#fff0e7" d="M200 200h100v100H200z"/><path fill="#f9ebe7" d="M300 200h100v100H300z"/><path fill="#fef0ed" d="M400 200h100v100H400z"/><path fill="#f8e6df" d="M500 200h100v100H500z"/><path fill="#bfb193" d="M600 200h100v100H600z"/><path fill="#46473d" d="M700 200h100v100H700z"/><path fill="#796c60" d="M0 300h100v100H0z"/><path fill="#faddd3" d="M100 300h100v100H100z"/><path fill="#ddc0b4" d="M200 300h100v100H200z"/><path fill="#e8ded7" d="M300 300h100v100H300z"/><path fill="#e2d7d1" d="M400 300h100v100H400z"/><path fill="#e5dcd9" d="M500 300h100v100H500z"/><path fill="#e0cdc4" d="M600 300h100v100H600z"/><path fill="#aea29e" d="M700 300h100v100H700z"/><path fill="#a9a094" d="M0 400h100v100H0z"/><path fill="#bea08e" d="M100 400h100v100H100z"/><path fill="#a48a83" d="M200 400h100v100H200z"/><path fill="#dbcac3" d="M300 400h100v100H300z"/><path fill="#dfd4cf" d="M400 400h100v100H400z"/><path fill="#dad0cb" d="M500 400h100v100H500z"/><path fill="#cabdb3" d="M600 400h100v100H600z"/><path fill="#7f7574" d="M700 400h100v100H700z"/><path fill="#d6c8c0" d="M0 500h100v100H0z"/><path fill="#a29b82" d="M100 500h100v100H100z"/><path fill="#a1977b" d="M200 500h100v100H200z"/><path fill="#b7ae95" d="M300 500h100v100H300z"/><path fill="#c4bba8" d="M400 500h100v100H400z"/><path fill="#c7beb0" d="M500 500h100v100H500z"/><path fill="#bdafa9" d="M600 500h100v100H600z"/><path fill="#554f53" d="M700 500h100v100H700z"/><path fill="#8e8283" d="M0 600h100v100H0z"/><path fill="#d6cac7" d="M100 600h100v100H100z"/><path fill="#d6cec5" d="M200 600h100v100H200z"/><path fill="#a3a282" d="M300 600h100v100H300z"/><path fill="#949071" d="M400 600h100v100H400z"/><path fill="#a6a190" d="M500 600h100v100H500z"/><path fill="#ae9e98" d="M600 600h100v100H600z"/><path fill="#3f3e47" d="M700 600h100v100H700z"/></svg>