<svg xmlns="http://www.w3.org/2000/svg" viewBox="0 0 800 600"><defs/><path fill="#efefef" d="M0 0h100v100H0z"/><path fill="#efeae9" d="M100 0h100v100H100z"/><path fill="#f3f0ed" d="M200 0h100v100H200z"/><path fill="#f7f7f3" d="M300 0h100v100H300z"/><path fill="#f6f5f2" d="M400 0h100v100H400z"/><path fill="#f6f6f3" d="M500 0h100v100H500z"/><path fill="#f4f4f2" d="M600 0h100v100H600z"/><path fill="#f4f3f1" d="M700 0h100v100H700z"/><path fill="#796e74" d="M0 100h100v100H0z"/><path fill="#8d4f44" d="M100 100h100v100H100z"/><path fill="#c5b09c" d="M200 100h100v100H200z"/><path fill="#c5af97" d="M300 100h100v100H300z"/><path fill="#cbb49d" d="M400 100h100v100H400z"/><path fill="#d7bea4" d="M500 100h100v100H500z"/><path fill="#dabfa5" d="M600 100h100v100H600z"/><path fill="#7e6a5f" d="M700 100h100v100H700z"/><path fill="#6b555a" d="M0 200h100v100H0z"/><path fill="#965446" d="M100 200h100v100H100z"/><path fill="#977764" d="M200 200h100v100H200z"/><path fill="#c5a090" d="M300 200h100v100H300z"/><path fill="#e0c5ad" d="M400 200h100v100H400z"/><path fill="#dfceb3" d="M500 200h100v100H500z"/><path fill="#ddbda5" d="M600 200h100v100H600z"/><path fill="#644037" d="M700 200h100v100H700z"/><path fill="#84686a" d="M0 300h100v100H0z"/><path fill="#894843" d="M100 300h100v100H100z"/><path fill="#90685e" d="M200 300h100v100H200z"/><path fill="#d2ad99" d="M300 300h100v100H300z"/><path fill="#e1c4ac" d="M400 300h100v100H400z"/><path fill="#e2cab2" d="M500 300h100v100H500z"/><path fill="#d8aa93" d="M600 300h100v100H600z"/><path fill="#695047" d="M700 300h100v100H700z"/><path fill="#9d7878" d="M0 400h100v100H0z"/><path fill="#84493a" d="M100 400h100v100H100z"/><path fill="#956f61" d="M200 400h100v100H200z"/><path fill="#a06758" d="M300 400h100v100H300z"/><path fill="#c4836b" d="M400 400h100v100H400z"/><path fill="#cc957d" d="M500 400h100v100H500z"/><path fill="#d3957a" d="M600 400h100v100H600z"/><path fill="#9f6e5b" d="M700 400h100v100H700z"/><path fill="#ede4df" d="M0 500h100v100H0z"/><path fill="#e8dcd5" d="M100 500h100v100H100z"/><path fill="#e5dfda" d="M200 500h100v100H200z"/><path fill="#ecdcd7" d="M300 500h100v100H300z"/><path fill="#eadbd3" d="M400 500h100v100H400z"/><path fill="#ece0d9" d="M500 500h100v100H500z"/><path fill="#ebded7" d="M600 500h100v100H600z"/><path fill="#ece0d9" d="M700 500h100v100H700z"/></svg>