<svg xmlns="http://www.w3.org/2000/svg" viewBox="0 0 800 600"><defs/><path fill="#fff" d="M0 0h100v100H0zm100 0h100v100H100zm100 0h100v100H200z"/><path fill="#f2f2f2" d="M300 0h100v100H300z"/><path fill="#f9f9f9" d="M400 0h100v100H400z"/><path fill="#fff" d="M500 0h100v100H500z"/><path fill="#fefefe" d="M600 0h100v100H600zm100 0h100v100H700z"/><path fill="#f3f3f3" d="M0 100h100v100H0z"/><path fill="#c1c1c1" d="M100 100h100v100H100z"/><path fill="#cacaca" d="M200 100h100v100H200z"/><path fill="#bfbebe" d="M300 100h100v100H300z"/><path fill="silver" d="M400 100h100v100H400z"/><path fill="#cccbcc" d="M500 100h100v100H500z"/><path fill="#dadada" d="M600 100h100v100H600z"/><path fill="#f2f2f2" d="M700 100h100v100H700z"/><path fill="#e2e2e2" d="M0 200h100v100H0z"/><path fill="#9c9a9b" d="M100 200h100v100H100z"/><path fill="#abaaab" d="M200 200h100v100H200z"/><path fill="#a7a5a6" d="M300 200h100v100H300z"/><path fill="#a5a3a4" d="M400 200h100v100H400z"/><path fill="#b2b1b1" d="M500 200h100v100H500z"/><path fill="#c8c7c8" d="M600 200h100v100H600z"/><path fill="#ececec" d="M700 200h100v100H700z"/><path fill="#dfdfdf" d="M0 300h100v100H0z"/><path fill="#b4b4b4" d="M100 300h100v100H100z"/><path fill="#b6b5b5" d="M200 300h100v100H200z"/><path fill="#a8a6a8" d="M300 300h100v100H300z"/><path fill="#a1a0a1" d="M400 300h100v100H400z"/><path fill="#b6b6b6" d="M500 300h100v100H500z"/><path fill="#c3c2c2" d="M600 300h100v100H600z"/><path fill="#e8e8e8" d="M700 300h100v100H700z"/><path fill="#e5e5e5" d="M0 400h100v100H0z"/><path fill="#cdcdcd" d="M100 400h100v100H100z"/><path fill="#c8c9c8" d="M200 400h100v100H200z"/><path fill="#b4b4b4" d="M300 400h100v100H300z"/><path fill="#c7c7c8" d="M400 400h100v100H400z"/><path fill="#cbcbcb" d="M500 400h100v100H500z"/><path fill="#c7c6c6" d="M600 400h100v100H600z"/><path fill="#e5e5e5" d="M700 400h100v100H700z"/><path fill="#f7f7f7" d="M0 500h100v100H0z"/><path fill="#eaeaea" d="M100 500h100v100H100z"/><path fill="#ececec" d="M200 500h100v100H200z"/><path fill="#ebebeb" d="M300 500h100v100H300z"/><path fill="#ededed" d="M400 500h100v100H400z"/><path fill="#f0f0f0" d="M500 500h100v100H500z"/><path fill="#efefef" d="M600 500h100v100H600z"/><path fill="#f4f4f4" d="M700 500h100v100H700z"/></svg>