<svg xmlns="http://www.w3.org/2000/svg" viewBox="0 0 800 400"><defs/><path fill="#7c7775" d="M0 0h100v100H0z"/><path fill="#4f625b" d="M100 0h100v100H100z"/><path fill="#426a59" d="M200 0h100v100H200z"/><path fill="#4b6e5a" d="M300 0h100v100H300z"/><path fill="#767a57" d="M400 0h100v100H400z"/><path fill="#4b7a68" d="M500 0h100v100H500z"/><path fill="#43694f" d="M600 0h100v100H600z"/><path fill="#685848" d="M700 0h100v100H700z"/><path fill="#676765" d="M0 100h100v100H0z"/><path fill="#405a52" d="M100 100h100v100H100z"/><path fill="#324632" d="M200 100h100v100H200z"/><path fill="#325039" d="M300 100h100v100H300z"/><path fill="#3b462d" d="M400 100h100v100H400z"/><path fill="#3b503a" d="M500 100h100v100H500z"/><path fill="#374b30" d="M600 100h100v100H600z"/><path fill="#494334" d="M700 100h100v100H700z"/><path fill="#5c6c6d" d="M0 200h100v100H0z"/><path fill="#464e44" d="M100 200h100v100H100z"/><path fill="#4d4a32" d="M200 200h100v100H200z"/><path fill="#50472c" d="M300 200h100v100H300z"/><path fill="#454a4d" d="M400 200h100v100H400z"/><path fill="#5f585b" d="M500 200h100v100H500z"/><path fill="#544b3d" d="M600 200h100v100H600z"/><path fill="#3d3625" d="M700 200h100v100H700z"/><path fill="#5f6d6b" d="M0 300h100v100H0z"/><path fill="#534334" d="M100 300h100v100H100z"/><path fill="#5d4754" d="M200 300h100v100H200z"/><path fill="#64503d" d="M300 300h100v100H300z"/><path fill="#4b5251" d="M400 300h100v100H400z"/><path fill="#465d66" d="M500 300h100v100H500z"/><path fill="#4f4725" d="M600 300h100v100H600z"/><path fill="#423e3d" d="M700 300h100v100H700z"/></svg>