<svg xmlns="http://www.w3.org/2000/svg" viewBox="0 0 800 500"><defs/><path fill="#d7d7d6" d="M0 0h100v100H0z"/><path fill="#d2d1bd" d="M100 0h100v100H100z"/><path fill="#d7c8d5" d="M200 0h100v100H200z"/><path fill="#d3cbde" d="M300 0h100v100H300z"/><path fill="#e3dfe5" d="M400 0h100v100H400z"/><path fill="#f5f1dd" d="M500 0h100v100H500z"/><path fill="#dad7c7" d="M600 0h100v100H600z"/><path fill="#e0c8c9" d="M700 0h100v100H700z"/><path fill="#707167" d="M0 100h100v100H0z"/><path fill="#7c6f19" d="M100 100h100v100H100z"/><path fill="#b85089" d="M200 100h100v100H200z"/><path fill="#6e6d88" d="M300 100h100v100H300z"/><path fill="#7d5e8a" d="M400 100h100v100H400z"/><path fill="#c4a545" d="M500 100h100v100H500z"/><path fill="#a2903c" d="M600 100h100v100H600z"/><path fill="#c64a4c" d="M700 100h100v100H700z"/><path fill="#7d7f5f" d="M0 200h100v100H0z"/><path fill="#907b36" d="M100 200h100v100H100z"/><path fill="#eca1af" d="M200 200h100v100H200z"/><path fill="#c4b580" d="M300 200h100v100H300z"/><path fill="#b69780" d="M400 200h100v100H400z"/><path fill="#be984d" d="M500 200h100v100H500z"/><path fill="#b7a160" d="M600 200h100v100H600z"/><path fill="#d9826c" d="M700 200h100v100H700z"/><path fill="#848143" d="M0 300h100v100H0z"/><path fill="#837d3e" d="M100 300h100v100H100z"/><path fill="#c0b8b1" d="M200 300h100v100H200z"/><path fill="#c6b5a5" d="M300 300h100v100H300z"/><path fill="#c7baad" d="M400 300h100v100H400z"/><path fill="#cbb89e" d="M500 300h100v100H500z"/><path fill="#dbab74" d="M600 300h100v100H600z"/><path fill="#baad93" d="M700 300h100v100H700z"/><path fill="#cdcdb0" d="M0 400h100v100H0z"/><path fill="#d3cfba" d="M100 400h100v100H100z"/><path fill="#d5cbc4" d="M200 400h100v100H200z"/><path fill="#d3cabe" d="M300 400h100v100H300z"/><path fill="#d1cbc4" d="M400 400h100v100H400z"/><path fill="#ded9d4" d="M500 400h100v100H500z"/><path fill="#dfc5ab" d="M600 400h100v100H600z"/><path fill="#cfc7bd" d="M700 400h100v100H700z"/></svg>