<svg xmlns="http://www.w3.org/2000/svg" viewBox="0 0 800 400"><defs/><path fill="#d7c2b1" d="M0 0h100v100H0z"/><path fill="#bfa387" d="M100 0h100v100H100z"/><path fill="#c1ae96" d="M200 0h100v100H200z"/><path fill="#c6ac93" d="M300 0h100v100H300z"/><path fill="#bfa084" d="M400 0h100v100H400z"/><path fill="#c4a78d" d="M500 0h100v100H500z"/><path fill="#b69e86" d="M600 0h100v100H600z"/><path fill="#d3bba8" d="M700 0h100v100H700z"/><path fill="#d6c2b0" d="M0 100h100v100H0z"/><path fill="#c8b298" d="M100 100h100v100H100z"/><path fill="#ae9e88" d="M200 100h100v100H200z"/><path fill="#868e7f" d="M300 100h100v100H300z"/><path fill="#8c8777" d="M400 100h100v100H400z"/><path fill="#a2a092" d="M500 100h100v100H500z"/><path fill="#838170" d="M600 100h100v100H600z"/><path fill="#ccb6a3" d="M700 100h100v100H700z"/><path fill="#cdb29e" d="M0 200h100v100H0z"/><path fill="#d8baa3" d="M100 200h100v100H100z"/><path fill="#8c7c76" d="M200 200h100v100H200z"/><path fill="#846a5b" d="M300 200h100v100H300z"/><path fill="#95745f" d="M400 200h100v100H400z"/><path fill="#7e7867" d="M500 200h100v100H500z"/><path fill="#766f5c" d="M600 200h100v100H600z"/><path fill="#ccb39e" d="M700 200h100v100H700z"/><path fill="#d4b9a7" d="M0 300h100v100H0z"/><path fill="#bf9681" d="M100 300h100v100H100z"/><path fill="#977f77" d="M200 300h100v100H200z"/><path fill="#b28674" d="M300 300h100v100H300z"/><path fill="#bd9580" d="M400 300h100v100H400z"/><path fill="#aa8d7a" d="M500 300h100v100H500z"/><path fill="#b78d7a" d="M600 300h100v100H600z"/><path fill="#d1b19b" d="M700 300h100v100H700z"/></svg>