<svg xmlns="http://www.w3.org/2000/svg" viewBox="0 0 800 500"><defs/><path fill="#fdfefd" d="M0 0h100v100H0z"/><path fill="#efe9e6" d="M100 0h100v100H100z"/><path fill="#f3f0ef" d="M200 0h100v100H200z"/><path fill="#f8f8f8" d="M300 0h100v100H300z"/><path fill="#f9fafa" d="M400 0h100v100H400z"/><path fill="#fafbfb" d="M500 0h100v100H500z"/><path fill="#fafafb" d="M600 0h100v100H600z"/><path fill="#fcfcfc" d="M700 0h100v100H700z"/><path fill="#f7f6f3" d="M0 100h100v100H0z"/><path fill="#bd9e92" d="M100 100h100v100H100z"/><path fill="#c0a498" d="M200 100h100v100H200z"/><path fill="#e0d7d3" d="M300 100h100v100H300z"/><path fill="#d6dadb" d="M400 100h100v100H400z"/><path fill="#e5e8ec" d="M500 100h100v100H500z"/><path fill="#e9e6d2" d="M600 100h100v100H600z"/><path fill="#eeeade" d="M700 100h100v100H700z"/><path fill="#ece7e3" d="M0 200h100v100H0z"/><path fill="#b59c92" d="M100 200h100v100H100z"/><path fill="#c7a9a0" d="M200 200h100v100H200z"/><path fill="#b9afad" d="M300 200h100v100H300z"/><path fill="#b5b7b2" d="M400 200h100v100H400z"/><path fill="#c1bdb1" d="M500 200h100v100H500z"/><path fill="#e8ca8b" d="M600 200h100v100H600z"/><path fill="#f6ecd8" d="M700 200h100v100H700z"/><path fill="#daccc7" d="M0 300h100v100H0z"/><path fill="#bd8f6c" d="M100 300h100v100H100z"/><path fill="#e7c187" d="M200 300h100v100H200z"/><path fill="#dea467" d="M300 300h100v100H300z"/><path fill="#d29a5f" d="M400 300h100v100H400z"/><path fill="#f0a557" d="M500 300h100v100H500z"/><path fill="#cdaf7e" d="M600 300h100v100H600z"/><path fill="#d4e9ee" d="M700 300h100v100H700z"/><path fill="#f7efe9" d="M0 400h100v100H0z"/><path fill="#fae5d0" d="M100 400h100v100H100z"/><path fill="#fde7cd" d="M200 400h100v100H200z"/><path fill="#fee6c9" d="M300 400h100v100H300z"/><path fill="#fee3c6" d="M400 400h100v100H400z"/><path fill="#ffe8ce" d="M500 400h100v100H500z"/><path fill="#e3e3df" d="M600 400h100v100H600z"/><path fill="#dae6eb" d="M700 400h100v100H700z"/></svg>