<svg xmlns="http://www.w3.org/2000/svg" viewBox="0 0 800 400"><defs/><path fill="#b9beb5" d="M0 0h100v100H0z"/><path fill="#a8a4a1" d="M100 0h100v100H100z"/><path fill="#b8bfba" d="M200 0h100v100H200z"/><path fill="#c8c8c3" d="M300 0h100v100H300z"/><path fill="#b7c2c2" d="M400 0h100v100H400z"/><path fill="#afc2c6" d="M500 0h100v100H500z"/><path fill="#c6cac7" d="M600 0h100v100H600z"/><path fill="#c4b9b9" d="M700 0h100v100H700z"/><path fill="#afb4b4" d="M0 100h100v100H0z"/><path fill="#9e9aa7" d="M100 100h100v100H100z"/><path fill="#babdcc" d="M200 100h100v100H200z"/><path fill="#b2b8b9" d="M300 100h100v100H300z"/><path fill="#adb7b9" d="M400 100h100v100H400z"/><path fill="#b1c6d2" d="M500 100h100v100H500z"/><path fill="#c0c7c8" d="M600 100h100v100H600z"/><path fill="#c6bbbb" d="M700 100h100v100H700z"/><path fill="#aaabb1" d="M0 200h100v100H0z"/><path fill="#a8a0af" d="M100 200h100v100H100z"/><path fill="#c3c0c7" d="M200 200h100v100H200z"/><path fill="#a6a5a1" d="M300 200h100v100H300z"/><path fill="#bdbcba" d="M400 200h100v100H400z"/><path fill="#c5c6c3" d="M500 200h100v100H500z"/><path fill="#b8b4b1" d="M600 200h100v100H600z"/><path fill="#c4b6ad" d="M700 200h100v100H700z"/><path fill="#97a1a3" d="M0 300h100v100H0z"/><path fill="#afb3a9" d="M100 300h100v100H100z"/><path fill="#c2c8c5" d="M200 300h100v100H200z"/><path fill="#a7bacd" d="M300 300h100v100H300z"/><path fill="#9fb3c5" d="M400 300h100v100H400z"/><path fill="#c6c0b5" d="M500 300h100v100H500z"/><path fill="#c5bfb5" d="M600 300h100v100H600z"/><path fill="#c6bea9" d="M700 300h100v100H700z"/></svg>