<svg xmlns="http://www.w3.org/2000/svg" viewBox="0 0 800 500"><defs/><path fill="#0a0022" d="M0 0h100v100H0z"/><path fill="#0a001e" d="M100 0h100v100H100z"/><path fill="#0b001d" d="M200 0h100v100H200z"/><path fill="#100020" d="M300 0h100v100H300z"/><path fill="#0f0122" d="M400 0h100v100H400z"/><path fill="#0b011f" d="M500 0h100v100H500z"/><path fill="#060014" d="M600 0h100v100H600z"/><path fill="#070019" d="M700 0h100v100H700z"/><path fill="#140b3c" d="M0 100h100v100H0z"/><path fill="#150a63" d="M100 100h100v100H100z"/><path fill="#1f063e" d="M200 100h100v100H200z"/><path fill="#2d0944" d="M300 100h100v100H300z"/><path fill="#35023c" d="M400 100h100v100H400z"/><path fill="#1a0430" d="M500 100h100v100H500z"/><path fill="#1f3055" d="M600 100h100v100H600z"/><path fill="#395d83" d="M700 100h100v100H700z"/><path fill="#160a3c" d="M0 200h100v100H0z"/><path fill="#27148b" d="M100 200h100v100H100z"/><path fill="#3d4679" d="M200 200h100v100H200z"/><path fill="#2f528f" d="M300 200h100v100H300z"/><path fill="#403c78" d="M400 200h100v100H400z"/><path fill="#282d57" d="M500 200h100v100H500z"/><path fill="#723988" d="M600 200h100v100H600z"/><path fill="#673579" d="M700 200h100v100H700z"/><path fill="#0b0340" d="M0 300h100v100H0z"/><path fill="#160b75" d="M100 300h100v100H100z"/><path fill="#27114d" d="M200 300h100v100H200z"/><path fill="#352e7c" d="M300 300h100v100H300z"/><path fill="#2e2457" d="M400 300h100v100H400z"/><path fill="#1f1c48" d="M500 300h100v100H500z"/><path fill="#410659" d="M600 300h100v100H600z"/><path fill="#311146" d="M700 300h100v100H700z"/><path fill="#0c0225" d="M0 400h100v100H0z"/><path fill="#0d0129" d="M100 400h100v100H100z"/><path fill="#11062c" d="M200 400h100v100H200z"/><path fill="#0e0932" d="M300 400h100v100H300z"/><path fill="#0e0229" d="M400 400h100v100H400z"/><path fill="#180d2f" d="M500 400h100v100H500z"/><path fill="#050326" d="M600 400h100v100H600z"/><path fill="#050625" d="M700 400h100v100H700z"/></svg>