<svg xmlns="http://www.w3.org/2000/svg" viewBox="0 0 800 400"><defs/><path fill="#cca9aa" d="M0 0h100v100H0z"/><path fill="#4b3b2f" d="M100 0h100v100H100z"/><path fill="#cda9a7" d="M200 0h100v100H200z"/><path fill="#e3dadc" d="M300 0h100v100H300z"/><path fill="#d6d6d6" d="M400 0h100v100H400z"/><path fill="#e3bbba" d="M500 0h100v100H500z"/><path fill="#cfabab" d="M600 0h100v100H600z"/><path fill="#d3b4b6" d="M700 0h100v100H700z"/><path fill="#a88c88" d="M0 100h100v100H0z"/><path fill="#724f41" d="M100 100h100v100H100z"/><path fill="#db9799" d="M200 100h100v100H200z"/><path fill="#e0dfe0" d="M300 100h100v100H300z"/><path fill="#d3e1e1" d="M400 100h100v100H400z"/><path fill="#ac8283" d="M500 100h100v100H500z"/><path fill="#cc9493" d="M600 100h100v100H600z"/><path fill="#d6bac6" d="M700 100h100v100H700z"/><path fill="#a58780" d="M0 200h100v100H0z"/><path fill="#6d5448" d="M100 200h100v100H100z"/><path fill="#dfb2b0" d="M200 200h100v100H200z"/><path fill="#d6d2cf" d="M300 200h100v100H300z"/><path fill="#c3cbc7" d="M400 200h100v100H400z"/><path fill="#916f69" d="M500 200h100v100H500z"/><path fill="#be8e85" d="M600 200h100v100H600z"/><path fill="#e1c1bd" d="M700 200h100v100H700z"/><path fill="#755e52" d="M0 300h100v100H0z"/><path fill="#4b4337" d="M100 300h100v100H100z"/><path fill="#86847e" d="M200 300h100v100H200z"/><path fill="#6a635b" d="M300 300h100v100H300z"/><path fill="#2f2927" d="M400 300h100v100H400z"/><path fill="#383634" d="M500 300h100v100H500z"/><path fill="#373431" d="M600 300h100v100H600z"/><path fill="#574a48" d="M700 300h100v100H700z"/></svg>