<svg xmlns="http://www.w3.org/2000/svg" viewBox="0 0 800 600"><defs/><path fill="#f2f3f2" d="M0 0h100v100H0z"/><path fill="#f0efe9" d="M100 0h100v100H100z"/><path fill="#fefcf6" d="M200 0h100v100H200z"/><path fill="#fcf8f4" d="M300 0h100v100H300zm100 0h100v100H400z"/><path fill="#fcfaf5" d="M500 0h100v100H500z"/><path fill="#fdfdfa" d="M600 0h100v100H600z"/><path fill="#fafaf9" d="M700 0h100v100H700z"/><path fill="#f4f3ee" d="M0 100h100v100H0z"/><path fill="#f3f1eb" d="M100 100h100v100H100z"/><path fill="#fdfbf4" d="M200 100h100v100H200z"/><path fill="#e9e7e7" d="M300 100h100v100H300z"/><path fill="#fcf8f4" d="M400 100h100v100H400z"/><path fill="#fcf8f6" d="M500 100h100v100H500z"/><path fill="#fefefd" d="M600 100h100v100H600z"/><path fill="#fcfdfb" d="M700 100h100v100H700z"/><path fill="#f8f6f0" d="M0 200h100v100H0z"/><path fill="#f9f8f2" d="M100 200h100v100H100z"/><path fill="#fbfaf4" d="M200 200h100v100H200z"/><path fill="#e0dfe1" d="M300 200h100v100H300z"/><path fill="#eeecec" d="M400 200h100v100H400z"/><path fill="#f4f1f0" d="M500 200h100v100H500z"/><path fill="#f5f4f3" d="M600 200h100v100H600z"/><path fill="#fbfbf9" d="M700 200h100v100H700z"/><path fill="#f5f4ed" d="M0 300h100v100H0z"/><path fill="#f5f3eb" d="M100 300h100v100H100z"/><path fill="#eeede9" d="M200 300h100v100H200z"/><path fill="#e6e6e4" d="M300 300h100v100H300z"/><path fill="#e9e8e8" d="M400 300h100v100H400z"/><path fill="#f0efee" d="M500 300h100v100H500z"/><path fill="#e9e9e9" d="M600 300h100v100H600z"/><path fill="#f0f1ef" d="M700 300h100v100H700z"/><path fill="#f0eee6" d="M0 400h100v100H0z"/><path fill="#efeeea" d="M100 400h100v100H100z"/><path fill="#e8e9e9" d="M200 400h100v100H200z"/><path fill="#eae9e7" d="M300 400h100v100H300z"/><path fill="#f2f0ed" d="M400 400h100v100H400z"/><path fill="#fefdf7" d="M500 400h100v100H500z"/><path fill="#eaeae9" d="M600 400h100v100H600z"/><path fill="#f2f0ed" d="M700 400h100v100H700z"/><path fill="#f8f6f0" d="M0 500h100v100H0z"/><path fill="#fefef8" d="M100 500h100v100H100z"/><path fill="#fbfbf6" d="M200 500h100v100H200z"/><path fill="#f2efed" d="M300 500h100v100H300z"/><path fill="#f1ecea" d="M400 500h100v100H400z"/><path fill="#fdf9f4" d="M500 500h100v100H500z"/><path fill="#fefaf5" d="M600 500h100v100H600z"/><path fill="#f7f3ef" d="M700 500h100v100H700z"/></svg>