<svg xmlns="http://www.w3.org/2000/svg" viewBox="0 0 800 600"><defs/><path fill="#efe4ce" d="M0 0h100v100H0z"/><path fill="#d9d1ca" d="M100 0h100v100H100z"/><path fill="#cfcdd4" d="M200 0h100v100H200z"/><path fill="#d2cfd6" d="M300 0h100v100H300z"/><path fill="#cecdd7" d="M400 0h100v100H400z"/><path fill="#d5d3d7" d="M500 0h100v100H500z"/><path fill="#dbd9db" d="M600 0h100v100H600z"/><path fill="#ece6dc" d="M700 0h100v100H700z"/><path fill="#cda340" d="M0 100h100v100H0z"/><path fill="#604940" d="M100 100h100v100H100z"/><path fill="#323359" d="M200 100h100v100H200z"/><path fill="#39364d" d="M300 100h100v100H300z"/><path fill="#555372" d="M400 100h100v100H400z"/><path fill="#2f2f50" d="M500 100h100v100H500z"/><path fill="#4d475d" d="M600 100h100v100H600z"/><path fill="#c1a468" d="M700 100h100v100H700z"/><path fill="#c89f42" d="M0 200h100v100H0z"/><path fill="#4a3b46" d="M100 200h100v100H100z"/><path fill="#363860" d="M200 200h100v100H200z"/><path fill="#474252" d="M300 200h100v100H300z"/><path fill="#4f435a" d="M400 200h100v100H400z"/><path fill="#5d6268" d="M500 200h100v100H500z"/><path fill="#776c53" d="M600 200h100v100H600z"/><path fill="#ca9f41" d="M700 200h100v100H700z"/><path fill="#c19b4b" d="M0 300h100v100H0z"/><path fill="#6d5955" d="M100 300h100v100H100z"/><path fill="#7c6c72" d="M200 300h100v100H200z"/><path fill="#917f79" d="M300 300h100v100H300z"/><path fill="#7c5e4b" d="M400 300h100v100H400z"/><path fill="#b98f51" d="M500 300h100v100H500z"/><path fill="#a7863f" d="M600 300h100v100H600z"/><path fill="#a18e4c" d="M700 300h100v100H700z"/><path fill="#b3915b" d="M0 400h100v100H0z"/><path fill="#bc9266" d="M100 400h100v100H100z"/><path fill="#c18f54" d="M200 400h100v100H200z"/><path fill="#c99a67" d="M300 400h100v100H300z"/><path fill="#d2a168" d="M400 400h100v100H400z"/><path fill="#b17f42" d="M500 400h100v100H500z"/><path fill="#776b3c" d="M600 400h100v100H600z"/><path fill="#959179" d="M700 400h100v100H700z"/><path fill="#e6dcd1" d="M0 500h100v100H0z"/><path fill="#e6d8ca" d="M100 500h100v100H100z"/><path fill="#ebdbcb" d="M200 500h100v100H200zm100 0h100v100H300z"/><path fill="#eadccd" d="M400 500h100v100H400z"/><path fill="#e9d9c9" d="M500 500h100v100H500z"/><path fill="#dccebf" d="M600 500h100v100H600z"/><path fill="#e3dad4" d="M700 500h100v100H700z"/></svg>