<svg xmlns="http://www.w3.org/2000/svg" viewBox="0 0 800 1400"><defs/><path d="M0 0h100v100H0zm100 0h100v100H100zm100 0h100v100H200zm100 0h100v100H300zm100 0h100v100H400zm100 0h100v100H500zm100 0h100v100H600zm100 0h100v100H700zM0 100h100v100H0zm100 0h100v100H100zm100 0h100v100H200zm100 0h100v100H300zm100 0h100v100H400zm100 0h100v100H500zm100 0h100v100H600zm100 0h100v100H700z"/><path fill="#010101" d="M0 200h100v100H0z"/><path fill="#000101" d="M100 200h100v100H100z"/><path fill="#010101" d="M200 200h100v100H200z"/><path fill="#010200" d="M300 200h100v100H300z"/><path fill="#000101" d="M400 200h100v100H400zm100 0h100v100H500z"/><path d="M600 200h100v100H600z"/><path fill="#000001" d="M700 200h100v100H700z"/><path fill="#101926" d="M0 300h100v100H0z"/><path fill="#101729" d="M100 300h100v100H100z"/><path fill="#192229" d="M200 300h100v100H200z"/><path fill="#21313e" d="M300 300h100v100H300z"/><path fill="#20314e" d="M400 300h100v100H400z"/><path fill="#20314b" d="M500 300h100v100H500z"/><path fill="#1f314d" d="M600 300h100v100H600z"/><path fill="#1e2f4c" d="M700 300h100v100H700z"/><path fill="#2e3948" d="M0 400h100v100H0z"/><path fill="#242f42" d="M100 400h100v100H100z"/><path fill="#222c3e" d="M200 400h100v100H200z"/><path fill="#25304c" d="M300 400h100v100H300z"/><path fill="#1a264a" d="M400 400h100v100H400z"/><path fill="#151f3d" d="M500 400h100v100H500z"/><path fill="#182341" d="M600 400h100v100H600z"/><path fill="#1c294b" d="M700 400h100v100H700z"/><path fill="#6a787e" d="M0 500h100v100H0z"/><path fill="#4e5f6a" d="M100 500h100v100H100z"/><path fill="#303d4c" d="M200 500h100v100H200z"/><path fill="#2b3648" d="M300 500h100v100H300z"/><path fill="#2e3c51" d="M400 500h100v100H400z"/><path fill="#212f48" d="M500 500h100v100H500z"/><path fill="#1c2843" d="M600 500h100v100H600z"/><path fill="#192543" d="M700 500h100v100H700z"/><path fill="#b0b1ac" d="M0 600h100v100H0z"/><path fill="#919797" d="M100 600h100v100H100z"/><path fill="#5a656b" d="M200 600h100v100H200z"/><path fill="#6a7278" d="M300 600h100v100H300z"/><path fill="#88908f" d="M400 600h100v100H400z"/><path fill="#8f9798" d="M500 600h100v100H500z"/><path fill="#879092" d="M600 600h100v100H600z"/><path fill="#7b8588" d="M700 600h100v100H700z"/><path fill="#969d9a" d="M0 700h100v100H0z"/><path fill="#646f73" d="M100 700h100v100H100z"/><path fill="#616a6d" d="M200 700h100v100H200z"/><path fill="#979c9c" d="M300 700h100v100H300z"/><path fill="#b1b0aa" d="M400 700h100v100H400z"/><path fill="#bab7af" d="M500 700h100v100H500z"/><path fill="#b6b4ae" d="M600 700h100v100H600z"/><path fill="#b1b1ad" d="M700 700h100v100H700z"/><path fill="#6f7d81" d="M0 800h100v100H0z"/><path fill="#6d7376" d="M100 800h100v100H100z"/><path fill="#9c9d9a" d="M200 800h100v100H200z"/><path fill="#b1b2b0" d="M300 800h100v100H300z"/><path fill="#b9b8b1" d="M400 800h100v100H400z"/><path fill="#b1b1a9" d="M500 800h100v100H500z"/><path fill="#b6b7b1" d="M600 800h100v100H600z"/><path fill="#b0b1ab" d="M700 800h100v100H700z"/><path fill="#808480" d="M0 900h100v100H0z"/><path fill="#989b95" d="M100 900h100v100H100z"/><path fill="#adaba5" d="M200 900h100v100H200z"/><path fill="#b6b1ab" d="M300 900h100v100H300z"/><path fill="#c3beb7" d="M400 900h100v100H400z"/><path fill="#c7c4ba" d="M500 900h100v100H500z"/><path fill="#b6b5ae" d="M600 900h100v100H600z"/><path fill="#a9a8a2" d="M700 900h100v100H700z"/><path fill="#8d9290" d="M0 1000h100v100H0z"/><path fill="#a9a9a2" d="M100 1000h100v100H100z"/><path fill="#c6c2b8" d="M200 1000h100v100H200z"/><path fill="#d5d1c7" d="M300 1000h100v100H300z"/><path fill="#d7d3c8" d="M400 1000h100v100H400z"/><path fill="#cdc9c0" d="M500 1000h100v100H500z"/><path fill="#b9b8b0" d="M600 1000h100v100H600z"/><path fill="#b7b5ac" d="M700 1000h100v100H700z"/><path fill="#181716" d="M0 1100h100v100H0z"/><path fill="#1f1d1b" d="M100 1100h100v100H100z"/><path fill="#1c1b1a" d="M200 1100h100v100H200z"/><path fill="#1b1b19" d="M300 1100h100v100H300z"/><path fill="#1c1b1a" d="M400 1100h100v100H400z"/><path fill="#1a1917" d="M500 1100h100v100H500z"/><path fill="#1a1918" d="M600 1100h100v100H600z"/><path fill="#1d1c1a" d="M700 1100h100v100H700z"/><path d="M0 1200h100v100H0zm100 0h100v100H100zm100 0h100v100H200zm100 0h100v100H300zm100 0h100v100H400zm100 0h100v100H500zm100 0h100v100H600zm100 0h100v100H700zM0 1300h100v100H0zm100 0h100v100H100zm100 0h100v100H200zm100 0h100v100H300zm100 0h100v100H400zm100 0h100v100H500zm100 0h100v100H600zm100 0h100v100H700z"/></svg>