<svg xmlns="http://www.w3.org/2000/svg" viewBox="0 0 800 500"><defs/><path fill="#e5dcca" d="M0 0h100v100H0z"/><path fill="#e1d8c5" d="M100 0h100v100H100z"/><path fill="#d9d1c1" d="M200 0h100v100H200z"/><path fill="#d2cdbf" d="M300 0h100v100H300z"/><path fill="#d2cbbb" d="M400 0h100v100H400z"/><path fill="#d4cfc2" d="M500 0h100v100H500z"/><path fill="#d5cdbe" d="M600 0h100v100H600z"/><path fill="#dbceb9" d="M700 0h100v100H700z"/><path fill="#d2bc97" d="M0 100h100v100H0z"/><path fill="#bba47c" d="M100 100h100v100H100z"/><path fill="#b8a98d" d="M200 100h100v100H200z"/><path fill="#d1cdbf" d="M300 100h100v100H300z"/><path fill="#b9aa8b" d="M400 100h100v100H400z"/><path fill="#cdc7b7" d="M500 100h100v100H500z"/><path fill="#c0b299" d="M600 100h100v100H600z"/><path fill="#af8f5c" d="M700 100h100v100H700z"/><path fill="#d2bf9d" d="M0 200h100v100H0z"/><path fill="#b09c78" d="M100 200h100v100H100z"/><path fill="#baaf97" d="M200 200h100v100H200z"/><path fill="#ecece8" d="M300 200h100v100H300z"/><path fill="#beaf96" d="M400 200h100v100H400z"/><path fill="#d6d3ca" d="M500 200h100v100H500z"/><path fill="#c4b79e" d="M600 200h100v100H600z"/><path fill="#bc9e6e" d="M700 200h100v100H700z"/><path fill="#c0a882" d="M0 300h100v100H0z"/><path fill="#b39e7b" d="M100 300h100v100H100z"/><path fill="#dcd7cb" d="M200 300h100v100H200z"/><path fill="#e9e6dc" d="M300 300h100v100H300z"/><path fill="#c0b196" d="M400 300h100v100H400z"/><path fill="#c7bfb0" d="M500 300h100v100H500z"/><path fill="#cab999" d="M600 300h100v100H600z"/><path fill="#c5ae88" d="M700 300h100v100H700z"/><path fill="#c7b392" d="M0 400h100v100H0z"/><path fill="#d5cab6" d="M100 400h100v100H100z"/><path fill="#e1ded6" d="M200 400h100v100H200z"/><path fill="#dcd3c1" d="M300 400h100v100H300z"/><path fill="#cbbba0" d="M400 400h100v100H400z"/><path fill="#c8baa2" d="M500 400h100v100H500z"/><path fill="#d7c8ad" d="M600 400h100v100H600z"/><path fill="#d3c3a7" d="M700 400h100v100H700z"/></svg>