<svg xmlns="http://www.w3.org/2000/svg" viewBox="0 0 800 600"><defs/><path fill="#b1c5bb" d="M0 0h100v100H0z"/><path fill="#5a5c52" d="M100 0h100v100H100z"/><path fill="#556a4f" d="M200 0h100v100H200z"/><path fill="#8c9e96" d="M300 0h100v100H300z"/><path fill="#b5cfcd" d="M400 0h100v100H400z"/><path fill="#a2c0bb" d="M500 0h100v100H500z"/><path fill="#839389" d="M600 0h100v100H600z"/><path fill="#94a396" d="M700 0h100v100H700z"/><path fill="#9bb3a6" d="M0 100h100v100H0z"/><path fill="#24241a" d="M100 100h100v100H100z"/><path fill="#3f5532" d="M200 100h100v100H200z"/><path fill="#6a786e" d="M300 100h100v100H300z"/><path fill="#767d84" d="M400 100h100v100H400z"/><path fill="#56625e" d="M500 100h100v100H500z"/><path fill="#6f8776" d="M600 100h100v100H600z"/><path fill="#8ca898" d="M700 100h100v100H700z"/><path fill="#93a399" d="M0 200h100v100H0z"/><path fill="#2e3426" d="M100 200h100v100H100z"/><path fill="#3c6546" d="M200 200h100v100H200z"/><path fill="#6e786f" d="M300 200h100v100H300z"/><path fill="#653a41" d="M400 200h100v100H400z"/><path fill="#6a4546" d="M500 200h100v100H500z"/><path fill="#747f7d" d="M600 200h100v100H600z"/><path fill="#859190" d="M700 200h100v100H700z"/><path fill="#878f84" d="M0 300h100v100H0z"/><path fill="#38241c" d="M100 300h100v100H100z"/><path fill="#3f342c" d="M200 300h100v100H200z"/><path fill="#514841" d="M300 300h100v100H300z"/><path fill="#403836" d="M400 300h100v100H400z"/><path fill="#443731" d="M500 300h100v100H500z"/><path fill="#432328" d="M600 300h100v100H600z"/><path fill="#7b6c77" d="M700 300h100v100H700z"/><path fill="#706a63" d="M0 400h100v100H0z"/><path fill="#25130b" d="M100 400h100v100H100z"/><path fill="#122e20" d="M200 400h100v100H200z"/><path fill="#251a12" d="M300 400h100v100H300z"/><path fill="#180d0e" d="M400 400h100v100H400z"/><path fill="#2b1813" d="M500 400h100v100H500z"/><path fill="#2b1912" d="M600 400h100v100H600z"/><path fill="#616966" d="M700 400h100v100H700z"/><path fill="#847b77" d="M0 500h100v100H0z"/><path fill="#5c4d48" d="M100 500h100v100H100z"/><path fill="#545d55" d="M200 500h100v100H200z"/><path fill="#5f5a53" d="M300 500h100v100H300z"/><path fill="#5e5553" d="M400 500h100v100H400z"/><path fill="#575350" d="M500 500h100v100H500z"/><path fill="#4d4a46" d="M600 500h100v100H600z"/><path fill="#6b625f" d="M700 500h100v100H700z"/></svg>