<svg xmlns="http://www.w3.org/2000/svg" viewBox="0 0 800 500"><defs/><path fill="#fbf3f1" d="M0 0h100v100H0z"/><path fill="#faeee9" d="M100 0h100v100H100z"/><path fill="#fbf2eb" d="M200 0h100v100H200z"/><path fill="#fffefb" d="M300 0h100v100H300z"/><path fill="#f6fdfb" d="M400 0h100v100H400z"/><path fill="#fbfbf6" d="M500 0h100v100H500z"/><path fill="#fefbf6" d="M600 0h100v100H600z"/><path fill="#fffffe" d="M700 0h100v100H700z"/><path fill="#e4bbb1" d="M0 100h100v100H0z"/><path fill="#e8b79f" d="M100 100h100v100H100z"/><path fill="#d8baa6" d="M200 100h100v100H200z"/><path fill="#d9f4f1" d="M300 100h100v100H300z"/><path fill="#cceeec" d="M400 100h100v100H400z"/><path fill="#d7d4c3" d="M500 100h100v100H500z"/><path fill="#86867d" d="M600 100h100v100H600z"/><path fill="#94897f" d="M700 100h100v100H700z"/><path fill="#e9c4b8" d="M0 200h100v100H0z"/><path fill="#e1a88f" d="M100 200h100v100H100z"/><path fill="#cda48f" d="M200 200h100v100H200z"/><path fill="#d5d5b4" d="M300 200h100v100H300z"/><path fill="#d7caa6" d="M400 200h100v100H400z"/><path fill="#d7a594" d="M500 200h100v100H500z"/><path fill="#887671" d="M600 200h100v100H600z"/><path fill="#5c4b44" d="M700 200h100v100H700z"/><path fill="#e6baa8" d="M0 300h100v100H0z"/><path fill="#da9275" d="M100 300h100v100H100z"/><path fill="#dc9b7a" d="M200 300h100v100H200z"/><path fill="#d38756" d="M300 300h100v100H300z"/><path fill="#d68958" d="M400 300h100v100H400z"/><path fill="#d5ae8b" d="M500 300h100v100H500z"/><path fill="#d2b9a4" d="M600 300h100v100H600z"/><path fill="#c7a28e" d="M700 300h100v100H700z"/><path fill="#eac5b3" d="M0 400h100v100H0z"/><path fill="#e8bba3" d="M100 400h100v100H100z"/><path fill="#e9cab8" d="M200 400h100v100H200z"/><path fill="#e1bab0" d="M300 400h100v100H300z"/><path fill="#e0b5ab" d="M400 400h100v100H400z"/><path fill="#e8ceb8" d="M500 400h100v100H500z"/><path fill="#d4baa3" d="M600 400h100v100H600z"/><path fill="#f7d6bd" d="M700 400h100v100H700z"/></svg>