<svg xmlns="http://www.w3.org/2000/svg" viewBox="0 0 800 300"><defs/><path fill="#4d271c" d="M0 0h100v100H0z"/><path fill="#6f572f" d="M100 0h100v100H100z"/><path fill="#a89965" d="M200 0h100v100H200z"/><path fill="#daad6b" d="M300 0h100v100H300z"/><path fill="#e4c26e" d="M400 0h100v100H400z"/><path fill="#baa47a" d="M500 0h100v100H500z"/><path fill="#906f4a" d="M600 0h100v100H600z"/><path fill="#5c321e" d="M700 0h100v100H700z"/><path fill="#503528" d="M0 100h100v100H0z"/><path fill="#7d795c" d="M100 100h100v100H100z"/><path fill="#8b8a5c" d="M200 100h100v100H200z"/><path fill="#b19968" d="M300 100h100v100H300z"/><path fill="#c3b17d" d="M400 100h100v100H400z"/><path fill="#d9c08b" d="M500 100h100v100H500z"/><path fill="#ceab70" d="M600 100h100v100H600z"/><path fill="#704e38" d="M700 100h100v100H700z"/><path fill="#443127" d="M0 200h100v100H0z"/><path fill="#444b45" d="M100 200h100v100H100z"/><path fill="#454234" d="M200 200h100v100H200z"/><path fill="#747a72" d="M300 200h100v100H300z"/><path fill="#94a8a4" d="M400 200h100v100H400z"/><path fill="#b58662" d="M500 200h100v100H500z"/><path fill="#ac5e3e" d="M600 200h100v100H600z"/><path fill="#7f5745" d="M700 200h100v100H700z"/></svg>