<svg xmlns="http://www.w3.org/2000/svg" viewBox="0 0 800 500"><defs/><path fill="#fbeacf" d="M0 0h100v100H0z"/><path fill="#f3dab6" d="M100 0h100v100H100z"/><path fill="#ede7df" d="M200 0h100v100H200z"/><path fill="#f8f3e8" d="M300 0h100v100H300z"/><path fill="#ebd2b3" d="M400 0h100v100H400z"/><path fill="#e6c8a4" d="M500 0h100v100H500z"/><path fill="#fae0bd" d="M600 0h100v100H600z"/><path fill="#f1e5c9" d="M700 0h100v100H700z"/><path fill="#fadcad" d="M0 100h100v100H0z"/><path fill="#ecbe7f" d="M100 100h100v100H100z"/><path fill="#efd2a9" d="M200 100h100v100H200z"/><path fill="#dbc0a4" d="M300 100h100v100H300z"/><path fill="#b3af86" d="M400 100h100v100H400z"/><path fill="#ba9255" d="M500 100h100v100H500z"/><path fill="#ccad5e" d="M600 100h100v100H600z"/><path fill="#a1b95b" d="M700 100h100v100H700z"/><path fill="#f9ddb4" d="M0 200h100v100H0z"/><path fill="#e1bc79" d="M100 200h100v100H100z"/><path fill="#e2b979" d="M200 200h100v100H200z"/><path fill="#ba9263" d="M300 200h100v100H300z"/><path fill="#be8646" d="M400 200h100v100H400z"/><path fill="#baa37f" d="M500 200h100v100H500z"/><path fill="#afb699" d="M600 200h100v100H600z"/><path fill="#b5b279" d="M700 200h100v100H700z"/><path fill="#f5c692" d="M0 300h100v100H0z"/><path fill="#c19f51" d="M100 300h100v100H100z"/><path fill="#bc955a" d="M200 300h100v100H200z"/><path fill="#d4a26a" d="M300 300h100v100H300z"/><path fill="#d3975a" d="M400 300h100v100H400z"/><path fill="#d6ba94" d="M500 300h100v100H500z"/><path fill="#c4975f" d="M600 300h100v100H600z"/><path fill="#d0a779" d="M700 300h100v100H700z"/><path fill="#f4c99b" d="M0 400h100v100H0z"/><path fill="#ecb478" d="M100 400h100v100H100z"/><path fill="#e3b68a" d="M200 400h100v100H200z"/><path fill="#e9c9a2" d="M300 400h100v100H300z"/><path fill="#e4d6c5" d="M400 400h100v100H400z"/><path fill="#e6c59d" d="M500 400h100v100H500z"/><path fill="#ce9352" d="M600 400h100v100H600z"/><path fill="#ebc396" d="M700 400h100v100H700z"/></svg>