<svg xmlns="http://www.w3.org/2000/svg" viewBox="0 0 800 400"><defs/><path fill="#afbed5" d="M0 0h100v100H0z"/><path fill="#a5b4cd" d="M100 0h100v100H100z"/><path fill="#b2c2da" d="M200 0h100v100H200z"/><path fill="#b9c7dc" d="M300 0h100v100H300z"/><path fill="#bdcadb" d="M400 0h100v100H400z"/><path fill="#c0ccdd" d="M500 0h100v100H500z"/><path fill="#c2cdde" d="M600 0h100v100H600z"/><path fill="#cad3e0" d="M700 0h100v100H700z"/><path fill="#9ca9ba" d="M0 100h100v100H0z"/><path fill="#7f899c" d="M100 100h100v100H100z"/><path fill="#8c97a5" d="M200 100h100v100H200z"/><path fill="#8a95a4" d="M300 100h100v100H300z"/><path fill="#9aa7bc" d="M400 100h100v100H400z"/><path fill="#94a1b4" d="M500 100h100v100H500z"/><path fill="#97a4b4" d="M600 100h100v100H600z"/><path fill="#98a5b8" d="M700 100h100v100H700z"/><path fill="#75777a" d="M0 200h100v100H0z"/><path fill="#7f8182" d="M100 200h100v100H100z"/><path fill="#797978" d="M200 200h100v100H200z"/><path fill="#707172" d="M300 200h100v100H300z"/><path fill="#7f8184" d="M400 200h100v100H400z"/><path fill="#828483" d="M500 200h100v100H500z"/><path fill="#868788" d="M600 200h100v100H600z"/><path fill="#828486" d="M700 200h100v100H700z"/><path fill="#807e81" d="M0 300h100v100H0z"/><path fill="#818083" d="M100 300h100v100H100z"/><path fill="#848286" d="M200 300h100v100H200z"/><path fill="#848385" d="M300 300h100v100H300z"/><path fill="#848386" d="M400 300h100v100H400z"/><path fill="#848588" d="M500 300h100v100H500z"/><path fill="#818185" d="M600 300h100v100H600z"/><path fill="#868486" d="M700 300h100v100H700z"/></svg>