<svg xmlns="http://www.w3.org/2000/svg" viewBox="0 0 800 500"><defs/><path fill="#c5c5c5" d="M0 0h100v100H0z"/><path fill="#decdca" d="M100 0h100v100H100z"/><path fill="#d3ccc8" d="M200 0h100v100H200z"/><path fill="#c6becc" d="M300 0h100v100H300z"/><path fill="#cac1d7" d="M400 0h100v100H400z"/><path fill="#cbc4d1" d="M500 0h100v100H500z"/><path fill="#ccc" d="M600 0h100v100H600z"/><path fill="#dbdcdb" d="M700 0h100v100H700z"/><path fill="#433b3b" d="M0 100h100v100H0z"/><path fill="#914637" d="M100 100h100v100H100z"/><path fill="#2d1559" d="M200 100h100v100H200z"/><path fill="#3319aa" d="M300 100h100v100H300z"/><path fill="#3e2794" d="M400 100h100v100H400z"/><path fill="#3219a2" d="M500 100h100v100H500z"/><path fill="#0a041d" d="M600 100h100v100H600z"/><path fill="#5c5f5a" d="M700 100h100v100H700z"/><path fill="#644d4c" d="M0 200h100v100H0z"/><path fill="#94483f" d="M100 200h100v100H100z"/><path fill="#302932" d="M200 200h100v100H200z"/><path fill="#483d49" d="M300 200h100v100H300z"/><path fill="#50413b" d="M400 200h100v100H400z"/><path fill="#413642" d="M500 200h100v100H500z"/><path fill="#2c1a15" d="M600 200h100v100H600z"/><path fill="#6a6561" d="M700 200h100v100H700z"/><path fill="#8a5b58" d="M0 300h100v100H0z"/><path fill="#99463b" d="M100 300h100v100H100z"/><path fill="#583924" d="M200 300h100v100H200z"/><path fill="#472819" d="M300 300h100v100H300z"/><path fill="#391d13" d="M400 300h100v100H400z"/><path fill="#563422" d="M500 300h100v100H500z"/><path fill="#492718" d="M600 300h100v100H600z"/><path fill="#85746c" d="M700 300h100v100H700z"/><path fill="#c3a9a5" d="M0 400h100v100H0z"/><path fill="#ac8c85" d="M100 400h100v100H100z"/><path fill="#9f8e87" d="M200 400h100v100H200z"/><path fill="#998983" d="M300 400h100v100H300z"/><path fill="#8e827c" d="M400 400h100v100H400z"/><path fill="#988882" d="M500 400h100v100H500z"/><path fill="#927f77" d="M600 400h100v100H600z"/><path fill="#bdb3ad" d="M700 400h100v100H700z"/></svg>