<svg xmlns="http://www.w3.org/2000/svg" viewBox="0 0 800 500"><defs/><path fill="#eff1f4" d="M0 0h100v100H0z"/><path fill="#e7ebee" d="M100 0h100v100H100z"/><path fill="#e5ebef" d="M200 0h100v100H200z"/><path fill="#dee2e5" d="M300 0h100v100H300z"/><path fill="#dce1e6" d="M400 0h100v100H400z"/><path fill="#e7ebed" d="M500 0h100v100H500z"/><path fill="#dcdfe3" d="M600 0h100v100H600z"/><path fill="#e7e9ec" d="M700 0h100v100H700z"/><path fill="#afb7c0" d="M0 100h100v100H0z"/><path fill="#8899a7" d="M100 100h100v100H100z"/><path fill="#8a9eb0" d="M200 100h100v100H200z"/><path fill="#64788b" d="M300 100h100v100H300z"/><path fill="#798e9e" d="M400 100h100v100H400z"/><path fill="#97a7b4" d="M500 100h100v100H500z"/><path fill="#8a9ba8" d="M600 100h100v100H600z"/><path fill="#b4bdc3" d="M700 100h100v100H700z"/><path fill="#b8c1ca" d="M0 200h100v100H0z"/><path fill="#909fab" d="M100 200h100v100H100z"/><path fill="#848d97" d="M200 200h100v100H200z"/><path fill="#707a86" d="M300 200h100v100H300z"/><path fill="#929ea4" d="M400 200h100v100H400z"/><path fill="#949ea3" d="M500 200h100v100H500z"/><path fill="#9ca6ac" d="M600 200h100v100H600z"/><path fill="#c2c9ce" d="M700 200h100v100H700z"/><path fill="#a2acb5" d="M0 300h100v100H0z"/><path fill="#617385" d="M100 300h100v100H100z"/><path fill="#8f99a2" d="M200 300h100v100H200z"/><path fill="#8f959c" d="M300 300h100v100H300z"/><path fill="#8b939b" d="M400 300h100v100H400z"/><path fill="#959fa6" d="M500 300h100v100H500z"/><path fill="#a2aab0" d="M600 300h100v100H600z"/><path fill="#bac3c9" d="M700 300h100v100H700z"/><path fill="#d2d4d8" d="M0 400h100v100H0z"/><path fill="#b2b8bf" d="M100 400h100v100H100z"/><path fill="#ced5db" d="M200 400h100v100H200z"/><path fill="#ced3d8" d="M300 400h100v100H300z"/><path fill="#cacfd5" d="M400 400h100v100H400z"/><path fill="#d6dadd" d="M500 400h100v100H500z"/><path fill="#cdd2d6" d="M600 400h100v100H600z"/><path fill="#cdd2d5" d="M700 400h100v100H700z"/></svg>