<svg xmlns="http://www.w3.org/2000/svg" viewBox="0 0 800 400"><defs/><path fill="#c49099" d="M0 0h100v100H0z"/><path fill="#d3af9c" d="M100 0h100v100H100z"/><path fill="#c48d96" d="M200 0h100v100H200z"/><path fill="#cf97a4" d="M300 0h100v100H300z"/><path fill="#a1767c" d="M400 0h100v100H400z"/><path fill="#997278" d="M500 0h100v100H500z"/><path fill="#c48f9b" d="M600 0h100v100H600z"/><path fill="#a45059" d="M700 0h100v100H700z"/><path fill="#c59093" d="M0 100h100v100H0z"/><path fill="#d3a696" d="M100 100h100v100H100z"/><path fill="#a66773" d="M200 100h100v100H200z"/><path fill="#7a4d55" d="M300 100h100v100H300z"/><path fill="#96666d" d="M400 100h100v100H400z"/><path fill="#a57074" d="M500 100h100v100H500z"/><path fill="#bf7c8c" d="M600 100h100v100H600z"/><path fill="#9b4449" d="M700 100h100v100H700z"/><path fill="#cb9c97" d="M0 200h100v100H0z"/><path fill="#d8b09c" d="M100 200h100v100H100z"/><path fill="#ad7e76" d="M200 200h100v100H200z"/><path fill="#6f5d53" d="M300 200h100v100H300z"/><path fill="#8c6365" d="M400 200h100v100H400z"/><path fill="#b5807f" d="M500 200h100v100H500z"/><path fill="#ad7a7b" d="M600 200h100v100H600z"/><path fill="#854350" d="M700 200h100v100H700z"/><path fill="#d8b3a3" d="M0 300h100v100H0z"/><path fill="#cfa47f" d="M100 300h100v100H100z"/><path fill="#965732" d="M200 300h100v100H200z"/><path fill="#a07257" d="M300 300h100v100H300z"/><path fill="#c29589" d="M400 300h100v100H400z"/><path fill="#9c7a67" d="M500 300h100v100H500z"/><path fill="#9e8772" d="M600 300h100v100H600z"/><path fill="#918173" d="M700 300h100v100H700z"/></svg>