<svg xmlns="http://www.w3.org/2000/svg" viewBox="0 0 800 500"><defs/><path fill="#f2f2f2" d="M0 0h100v100H0z"/><path fill="#f1f1f1" d="M100 0h100v100H100z"/><path fill="#fafafa" d="M200 0h100v100H200z"/><path fill="#e7e7e7" d="M300 0h100v100H300z"/><path fill="#9c9c9b" d="M400 0h100v100H400z"/><path fill="#dfdfde" d="M500 0h100v100H500z"/><path fill="#f5f5f5" d="M600 0h100v100H600z"/><path fill="#fcfcfc" d="M700 0h100v100H700z"/><path fill="#f7f6f6" d="M0 100h100v100H0z"/><path fill="#d7d7d6" d="M100 100h100v100H100z"/><path fill="#cdcccd" d="M200 100h100v100H200z"/><path fill="#cfcfce" d="M300 100h100v100H300z"/><path fill="#cecccb" d="M400 100h100v100H400z"/><path fill="#d3d3d2" d="M500 100h100v100H500z"/><path fill="#e6e6e6" d="M600 100h100v100H600z"/><path fill="#ededed" d="M700 100h100v100H700z"/><path fill="#f5f5f5" d="M0 200h100v100H0z"/><path fill="#dcdcdb" d="M100 200h100v100H100z"/><path fill="#dad8d8" d="M200 200h100v100H200z"/><path fill="#c4c3c2" d="M300 200h100v100H300z"/><path fill="#bfbebd" d="M400 200h100v100H400z"/><path fill="#c8c7c6" d="M500 200h100v100H500z"/><path fill="#c7c6c5" d="M600 200h100v100H600z"/><path fill="#d8d8d6" d="M700 200h100v100H700z"/><path fill="#dfdede" d="M0 300h100v100H0z"/><path fill="#c0c0bf" d="M100 300h100v100H100z"/><path fill="#c5c4c4" d="M200 300h100v100H200z"/><path fill="#c1bfbf" d="M300 300h100v100H300z"/><path fill="#acaaaa" d="M400 300h100v100H400z"/><path fill="#bfbfbf" d="M500 300h100v100H500z"/><path fill="#b4b2b2" d="M600 300h100v100H600z"/><path fill="#bebdbb" d="M700 300h100v100H700z"/><path fill="#e6e6e6" d="M0 400h100v100H0z"/><path fill="#dcdbdb" d="M100 400h100v100H100z"/><path fill="#ddd" d="M200 400h100v100H200z"/><path fill="#eff0f0" d="M300 400h100v100H300z"/><path fill="#c3c2c2" d="M400 400h100v100H400z"/><path fill="#c8c6c5" d="M500 400h100v100H500z"/><path fill="#d7d6d7" d="M600 400h100v100H600z"/><path fill="#cfcece" d="M700 400h100v100H700z"/></svg>