<svg xmlns="http://www.w3.org/2000/svg" viewBox="0 0 800 1000"><defs/><path fill="#8eb2af" d="M0 0h100v100H0z"/><path fill="#82a8a6" d="M100 0h100v100H100z"/><path fill="#80a6a7" d="M200 0h100v100H200z"/><path fill="#7ea6a9" d="M300 0h100v100H300z"/><path fill="#a2bba3" d="M400 0h100v100H400z"/><path fill="#fbf9be" d="M500 0h100v100H500z"/><path fill="#fffffe" d="M600 0h100v100H600z"/><path fill="#fefefd" d="M700 0h100v100H700z"/><path fill="#8aada9" d="M0 100h100v100H0z"/><path fill="#94b6b3" d="M100 100h100v100H100z"/><path fill="#8eafab" d="M200 100h100v100H200z"/><path fill="#8dadab" d="M300 100h100v100H300z"/><path fill="#bacbb6" d="M400 100h100v100H400z"/><path fill="#faf6b1" d="M500 100h100v100H500z"/><path fill="#fffdc7" d="M600 100h100v100H600z"/><path fill="#e6eac8" d="M700 100h100v100H700z"/><path fill="#8daeab" d="M0 200h100v100H0z"/><path fill="#7ca39d" d="M100 200h100v100H100z"/><path fill="#9fbdb5" d="M200 200h100v100H200z"/><path fill="#abc2b5" d="M300 200h100v100H300z"/><path fill="#99b3a6" d="M400 200h100v100H400z"/><path fill="#b4c5b5" d="M500 200h100v100H500z"/><path fill="#bdcbac" d="M600 200h100v100H600z"/><path fill="#99b7b0" d="M700 200h100v100H700z"/><path fill="#aac7c5" d="M0 300h100v100H0z"/><path fill="#a0bab0" d="M100 300h100v100H100z"/><path fill="#9ab4a7" d="M200 300h100v100H200z"/><path fill="#a2bcad" d="M300 300h100v100H300z"/><path fill="#b8cbb7" d="M400 300h100v100H400z"/><path fill="#9eb9aa" d="M500 300h100v100H500z"/><path fill="#99b7b1" d="M600 300h100v100H600z"/><path fill="#a0bdbb" d="M700 300h100v100H700z"/><path fill="#b1cac8" d="M0 400h100v100H0z"/><path fill="#b1c9be" d="M100 400h100v100H100z"/><path fill="#b5cbc2" d="M200 400h100v100H200z"/><path fill="#9bb29c" d="M300 400h100v100H300z"/><path fill="#a7bca4" d="M400 400h100v100H400z"/><path fill="#abc2b6" d="M500 400h100v100H500z"/><path fill="#b8ccc2" d="M600 400h100v100H600z"/><path fill="#b7cfcd" d="M700 400h100v100H700z"/><path fill="#a1b8b3" d="M0 500h100v100H0z"/><path fill="#889284" d="M100 500h100v100H100z"/><path fill="#b8cabd" d="M200 500h100v100H200z"/><path fill="#bbcdb2" d="M300 500h100v100H300z"/><path fill="#9bb39d" d="M400 500h100v100H400z"/><path fill="#94b09f" d="M500 500h100v100H500z"/><path fill="#92aea1" d="M600 500h100v100H600z"/><path fill="#93b4b0" d="M700 500h100v100H700z"/><path fill="#707f7c" d="M0 600h100v100H0z"/><path fill="#3c1d0d" d="M100 600h100v100H100z"/><path fill="#b0b4a4" d="M200 600h100v100H200z"/><path fill="#b9b99e" d="M300 600h100v100H300z"/><path fill="#b8ba98" d="M400 600h100v100H400z"/><path fill="#a0b49b" d="M500 600h100v100H500z"/><path fill="#88a89b" d="M600 600h100v100H600z"/><path fill="#83a89d" d="M700 600h100v100H700z"/><path fill="#adbbb9" d="M0 700h100v100H0z"/><path fill="#8b7269" d="M100 700h100v100H100z"/><path fill="#b2a798" d="M200 700h100v100H200z"/><path fill="#8a836f" d="M300 700h100v100H300z"/><path fill="#90694c" d="M400 700h100v100H400z"/><path fill="#a1a687" d="M500 700h100v100H500z"/><path fill="#becc8e" d="M600 700h100v100H600z"/><path fill="#9cbf94" d="M700 700h100v100H700z"/><path fill="#95b9b2" d="M0 800h100v100H0z"/><path fill="#a5b4b1" d="M100 800h100v100H100z"/><path fill="#969592" d="M200 800h100v100H200z"/><path fill="#535e56" d="M300 800h100v100H300z"/><path fill="#a4978f" d="M400 800h100v100H400z"/><path fill="#a0aa99" d="M500 800h100v100H500z"/><path fill="#789f81" d="M600 800h100v100H600z"/><path fill="#46978c" d="M700 800h100v100H700z"/><path fill="#4f918a" d="M0 900h100v100H0z"/><path fill="#a4c1bc" d="M100 900h100v100H100z"/><path fill="#a3aeae" d="M200 900h100v100H200z"/><path fill="#95a19f" d="M300 900h100v100H300z"/><path fill="#aabbb0" d="M400 900h100v100H400z"/><path fill="#73ada3" d="M500 900h100v100H500z"/><path fill="#3c877e" d="M600 900h100v100H600z"/><path fill="#549d95" d="M700 900h100v100H700z"/></svg>