<svg xmlns="http://www.w3.org/2000/svg" viewBox="0 0 800 400"><defs/><path fill="#bab6a7" d="M0 0h100v100H0z"/><path fill="#94856b" d="M100 0h100v100H100z"/><path fill="#aba691" d="M200 0h100v100H200z"/><path fill="#938e7d" d="M300 0h100v100H300z"/><path fill="#817f71" d="M400 0h100v100H400z"/><path fill="#757b77" d="M500 0h100v100H500z"/><path fill="#6d7777" d="M600 0h100v100H600z"/><path fill="#75766e" d="M700 0h100v100H700z"/><path fill="#b0ab9d" d="M0 100h100v100H0z"/><path fill="#96886e" d="M100 100h100v100H100z"/><path fill="#a6a89f" d="M200 100h100v100H200z"/><path fill="#4f4d45" d="M300 100h100v100H300z"/><path fill="#697058" d="M400 100h100v100H400z"/><path fill="#616968" d="M500 100h100v100H500z"/><path fill="#555f63" d="M600 100h100v100H600z"/><path fill="#5f6362" d="M700 100h100v100H700z"/><path fill="#a0957e" d="M0 200h100v100H0z"/><path fill="#897c62" d="M100 200h100v100H100z"/><path fill="#a9a9a0" d="M200 200h100v100H200z"/><path fill="#908369" d="M300 200h100v100H300z"/><path fill="#91815c" d="M400 200h100v100H400z"/><path fill="#887956" d="M500 200h100v100H500z"/><path fill="#6b6355" d="M600 200h100v100H600z"/><path fill="#746c5f" d="M700 200h100v100H700z"/><path fill="#988b71" d="M0 300h100v100H0z"/><path fill="#9b8f78" d="M100 300h100v100H100z"/><path fill="#b3ac97" d="M200 300h100v100H200z"/><path fill="#b4a994" d="M300 300h100v100H300z"/><path fill="#998179" d="M400 300h100v100H400z"/><path fill="#9e9582" d="M500 300h100v100H500z"/><path fill="#8d8677" d="M600 300h100v100H600z"/><path fill="#847c70" d="M700 300h100v100H700z"/></svg>