<svg xmlns="http://www.w3.org/2000/svg" viewBox="0 0 800 500"><defs/><path fill="#fef5d9" d="M0 0h100v100H0z"/><path fill="#f9efd3" d="M100 0h100v100H100z"/><path fill="#fdf3d2" d="M200 0h100v100H200z"/><path fill="#fff2d3" d="M300 0h100v100H300z"/><path fill="#f0e3d0" d="M400 0h100v100H400z"/><path fill="#e0ddd2" d="M500 0h100v100H500z"/><path fill="#e3ded3" d="M600 0h100v100H600z"/><path fill="#f4efe6" d="M700 0h100v100H700z"/><path fill="#fbeab5" d="M0 100h100v100H0z"/><path fill="#f1dfaa" d="M100 100h100v100H100z"/><path fill="#f9e19b" d="M200 100h100v100H200z"/><path fill="#eddda3" d="M300 100h100v100H300z"/><path fill="#e7d8ad" d="M400 100h100v100H400z"/><path fill="#f8e9bf" d="M500 100h100v100H500z"/><path fill="#f1e0a8" d="M600 100h100v100H600z"/><path fill="#f8e6b7" d="M700 100h100v100H700z"/><path fill="#faebba" d="M0 200h100v100H0z"/><path fill="#ebd7aa" d="M100 200h100v100H100z"/><path fill="#c0dcb9" d="M200 200h100v100H200z"/><path fill="#a6e2dd" d="M300 200h100v100H300z"/><path fill="#c7d2d2" d="M400 200h100v100H400z"/><path fill="#eae8c3" d="M500 200h100v100H500z"/><path fill="#eddbad" d="M600 200h100v100H600z"/><path fill="#f6e6b1" d="M700 200h100v100H700z"/><path fill="#f6e8b8" d="M0 300h100v100H0z"/><path fill="#efdba3" d="M100 300h100v100H100z"/><path fill="#b3c0a5" d="M200 300h100v100H200z"/><path fill="#c0d1bd" d="M300 300h100v100H300z"/><path fill="#dbdbca" d="M400 300h100v100H400z"/><path fill="#d9d6bc" d="M500 300h100v100H500z"/><path fill="#e2d2a1" d="M600 300h100v100H600z"/><path fill="#f6e6b1" d="M700 300h100v100H700z"/><path fill="#f7eccb" d="M0 400h100v100H0z"/><path fill="#ebe0ba" d="M100 400h100v100H100z"/><path fill="#edddb0" d="M200 400h100v100H200z"/><path fill="#f0ddac" d="M300 400h100v100H300z"/><path fill="#f5e4b6" d="M400 400h100v100H400z"/><path fill="#f1e4c1" d="M500 400h100v100H500z"/><path fill="#f4e5b7" d="M600 400h100v100H600z"/><path fill="#faedc2" d="M700 400h100v100H700z"/></svg>