<svg xmlns="http://www.w3.org/2000/svg" viewBox="0 0 800 600"><defs/><path fill="#c6cdd5" d="M0 0h100v100H0z"/><path fill="#c3c9d1" d="M100 0h100v100H100z"/><path fill="#c2c8d0" d="M200 0h100v100H200z"/><path fill="#c4cad2" d="M300 0h100v100H300z"/><path fill="#c3cad2" d="M400 0h100v100H400z"/><path fill="#c4cbd3" d="M500 0h100v100H500z"/><path fill="#c4cad2" d="M600 0h100v100H600z"/><path fill="#c6ccd4" d="M700 0h100v100H700z"/><path fill="#bbc1c8" d="M0 100h100v100H0z"/><path fill="#b5bbc2" d="M100 100h100v100H100z"/><path fill="#b9c0c7" d="M200 100h100v100H200z"/><path fill="#bec5cd" d="M300 100h100v100H300z"/><path fill="#b8bfc5" d="M400 100h100v100H400z"/><path fill="#bbc2c9" d="M500 100h100v100H500z"/><path fill="#b8bec5" d="M600 100h100v100H600z"/><path fill="#c1c7cf" d="M700 100h100v100H700z"/><path fill="#b7bdc4" d="M0 200h100v100H0z"/><path fill="#b2b8bf" d="M100 200h100v100H100z"/><path fill="#bfc6cd" d="M200 200h100v100H200z"/><path fill="#c5ccd4" d="M300 200h100v100H300z"/><path fill="#bec4cc" d="M400 200h100v100H400z"/><path fill="#c0c6cd" d="M500 200h100v100H500z"/><path fill="#bbc1c8" d="M600 200h100v100H600z"/><path fill="#b6bcc2" d="M700 200h100v100H700z"/><path fill="#bfc5cd" d="M0 300h100v100H0z"/><path fill="#b0b6bc" d="M100 300h100v100H100z"/><path fill="#b3b9c0" d="M200 300h100v100H200z"/><path fill="#bbc1c8" d="M300 300h100v100H300z"/><path fill="#bdc3ca" d="M400 300h100v100H400z"/><path fill="#b8bec5" d="M500 300h100v100H500z"/><path fill="#b1b7be" d="M600 300h100v100H600z"/><path fill="#b4bac1" d="M700 300h100v100H700z"/><path fill="#bac0c8" d="M0 400h100v100H0z"/><path fill="#b8bec5" d="M100 400h100v100H100z"/><path fill="#bbc1c8" d="M200 400h100v100H200z"/><path fill="#bdc3cb" d="M300 400h100v100H300z"/><path fill="#b9bfc6" d="M400 400h100v100H400z"/><path fill="#a4aab0" d="M500 400h100v100H500z"/><path fill="#b0b5bc" d="M600 400h100v100H600z"/><path fill="#bbc0c8" d="M700 400h100v100H700z"/><path fill="#c4cbd2" d="M0 500h100v100H0z"/><path fill="#c4cbd3" d="M100 500h100v100H100z"/><path fill="#c4cad2" d="M200 500h100v100H200z"/><path fill="#c5cbd3" d="M300 500h100v100H300z"/><path fill="#c1c8cf" d="M400 500h100v100H400z"/><path fill="#b9c0c7" d="M500 500h100v100H500z"/><path fill="#c1c7cf" d="M600 500h100v100H600z"/><path fill="#c3c9d2" d="M700 500h100v100H700z"/></svg>