<svg xmlns="http://www.w3.org/2000/svg" viewBox="0 0 800 600"><defs/><path fill="#f4b1a1" d="M0 0h100v100H0z"/><path fill="#f5ac9d" d="M100 0h100v100H100z"/><path fill="#f5d2bf" d="M200 0h100v100H200z"/><path fill="#f4e1d5" d="M300 0h100v100H300z"/><path fill="#f8e1d3" d="M400 0h100v100H400z"/><path fill="#ffd5bd" d="M500 0h100v100H500z"/><path fill="#e0e0d3" d="M600 0h100v100H600z"/><path fill="#cce6df" d="M700 0h100v100H700z"/><path fill="#f8b5a5" d="M0 100h100v100H0z"/><path fill="#f5b4a7" d="M100 100h100v100H100z"/><path fill="#c6ab9f" d="M200 100h100v100H200z"/><path fill="#dfcfc7" d="M300 100h100v100H300z"/><path fill="#fae5d7" d="M400 100h100v100H400z"/><path fill="#ffd5bd" d="M500 100h100v100H500z"/><path fill="#e1dacb" d="M600 100h100v100H600z"/><path fill="#e8dcce" d="M700 100h100v100H700z"/><path fill="#fcb4a6" d="M0 200h100v100H0z"/><path fill="#eac0b3" d="M100 200h100v100H100z"/><path fill="#b69289" d="M200 200h100v100H200z"/><path fill="#cfb0a9" d="M300 200h100v100H300z"/><path fill="#fae2d5" d="M400 200h100v100H400z"/><path fill="#f2bba0" d="M500 200h100v100H500z"/><path fill="#ecd9c9" d="M600 200h100v100H600z"/><path fill="#f1efe8" d="M700 200h100v100H700z"/><path fill="#fcb0a0" d="M0 300h100v100H0z"/><path fill="#adada4" d="M100 300h100v100H100z"/><path fill="#c0b1ad" d="M200 300h100v100H200z"/><path fill="#e8cac0" d="M300 300h100v100H300z"/><path fill="#c4a8b0" d="M400 300h100v100H400z"/><path fill="#c2989a" d="M500 300h100v100H500z"/><path fill="#cdc1ae" d="M600 300h100v100H600z"/><path fill="#ddac84" d="M700 300h100v100H700z"/><path fill="#f0ab9d" d="M0 400h100v100H0z"/><path fill="#c6a18e" d="M100 400h100v100H100z"/><path fill="#f6eee2" d="M200 400h100v100H200z"/><path fill="#e7e4e3" d="M300 400h100v100H300z"/><path fill="#b99e91" d="M400 400h100v100H400z"/><path fill="#cfa494" d="M500 400h100v100H500z"/><path fill="#e6b99c" d="M600 400h100v100H600z"/><path fill="#f09a6d" d="M700 400h100v100H700z"/><path fill="#e7a596" d="M0 500h100v100H0z"/><path fill="#c0937f" d="M100 500h100v100H100z"/><path fill="#d4b9aa" d="M200 500h100v100H200z"/><path fill="#d4bcb3" d="M300 500h100v100H300z"/><path fill="#c48874" d="M400 500h100v100H400z"/><path fill="#c59883" d="M500 500h100v100H500z"/><path fill="#cb9d86" d="M600 500h100v100H600z"/><path fill="#dbbeaf" d="M700 500h100v100H700z"/></svg>