<svg xmlns="http://www.w3.org/2000/svg" viewBox="0 0 800 500"><defs/><path fill="#ccc9cf" d="M0 0h100v100H0z"/><path fill="#bfc2c4" d="M100 0h100v100H100z"/><path fill="#c5bbc9" d="M200 0h100v100H200z"/><path fill="#c7b6c8" d="M300 0h100v100H300z"/><path fill="#c4b5c8" d="M400 0h100v100H400z"/><path fill="#c5b7c8" d="M500 0h100v100H500z"/><path fill="#c5b9c8" d="M600 0h100v100H600z"/><path fill="#c6bcc6" d="M700 0h100v100H700z"/><path fill="#9492a1" d="M0 100h100v100H0z"/><path fill="#607076" d="M100 100h100v100H100z"/><path fill="#8594a8" d="M200 100h100v100H200z"/><path fill="#9695a8" d="M300 100h100v100H300z"/><path fill="#90a0bd" d="M400 100h100v100H400z"/><path fill="#8891a7" d="M500 100h100v100H500z"/><path fill="#7d8294" d="M600 100h100v100H600z"/><path fill="#969dac" d="M700 100h100v100H700z"/><path fill="#9bc0c9" d="M0 200h100v100H0z"/><path fill="#5e7b86" d="M100 200h100v100H100z"/><path fill="#80b8c3" d="M200 200h100v100H200z"/><path fill="#9dc2c2" d="M300 200h100v100H300z"/><path fill="#86d1da" d="M400 200h100v100H400z"/><path fill="#6ea6b4" d="M500 200h100v100H500z"/><path fill="#709092" d="M600 200h100v100H600z"/><path fill="#65a4ad" d="M700 200h100v100H700z"/><path fill="#619d9d" d="M0 300h100v100H0z"/><path fill="#3d726d" d="M100 300h100v100H100z"/><path fill="#949d94" d="M200 300h100v100H200z"/><path fill="#adbaaa" d="M300 300h100v100H300z"/><path fill="#aab9ac" d="M400 300h100v100H400z"/><path fill="#6a7f8b" d="M500 300h100v100H500z"/><path fill="#496968" d="M600 300h100v100H600z"/><path fill="#5b726e" d="M700 300h100v100H700z"/><path fill="#a9bfbd" d="M0 400h100v100H0z"/><path fill="#9ec4bb" d="M100 400h100v100H100z"/><path fill="#c6c8c4" d="M200 400h100v100H200z"/><path fill="#c1cfc5" d="M300 400h100v100H300z"/><path fill="#b1b3ba" d="M400 400h100v100H400z"/><path fill="#aea9b7" d="M500 400h100v100H500z"/><path fill="#89a7a2" d="M600 400h100v100H600z"/><path fill="#9e989b" d="M700 400h100v100H700z"/></svg>