<svg xmlns="http://www.w3.org/2000/svg" viewBox="0 0 800 300"><defs/><path fill="#fffefe" d="M0 0h100v100H0z"/><path fill="#fff" d="M100 0h100v100H100z"/><path fill="#f3f3e8" d="M200 0h100v100H200z"/><path fill="#e5cdb1" d="M300 0h100v100H300z"/><path fill="#f2dda6" d="M400 0h100v100H400z"/><path fill="#fbf5d2" d="M500 0h100v100H500z"/><path fill="#fff" d="M600 0h100v100H600zm100 0h100v100H700z"/><path fill="#fefeff" d="M0 100h100v100H0z"/><path fill="#fff" d="M100 100h100v100H100z"/><path fill="#dfcfbc" d="M200 100h100v100H200z"/><path fill="#bb7660" d="M300 100h100v100H300z"/><path fill="#dbb272" d="M400 100h100v100H400z"/><path fill="#dfcba0" d="M500 100h100v100H500z"/><path fill="#fefcf1" d="M600 100h100v100H600z"/><path fill="#fff" d="M700 100h100v100H700zM0 200h100v100H0zm100 0h100v100H100z"/><path fill="#f7eedf" d="M200 200h100v100H200z"/><path fill="#e0ccba" d="M300 200h100v100H300z"/><path fill="#e6d0b5" d="M400 200h100v100H400z"/><path fill="#ddd4c5" d="M500 200h100v100H500z"/><path fill="#faf5ed" d="M600 200h100v100H600z"/><path fill="#fff" d="M700 200h100v100H700z"/></svg>