<svg xmlns="http://www.w3.org/2000/svg" viewBox="0 0 800 400"><defs/><path fill="#d5d5d5" d="M0 0h100v100H0z"/><path fill="#ccc" d="M100 0h100v100H100z"/><path fill="#e3e3e3" d="M200 0h100v100H200z"/><path fill="#d0d0d0" d="M300 0h100v100H300z"/><path fill="#bbb" d="M400 0h100v100H400z"/><path fill="#dfdfdf" d="M500 0h100v100H500z"/><path fill="#dbdbdb" d="M600 0h100v100H600z"/><path fill="#d7d7d7" d="M700 0h100v100H700z"/><path fill="#d4d4d4" d="M0 100h100v100H0z"/><path fill="#cbcbcb" d="M100 100h100v100H100z"/><path fill="#e8e8e8" d="M200 100h100v100H200z"/><path fill="#b6b6b6" d="M300 100h100v100H300z"/><path fill="#757575" d="M400 100h100v100H400z"/><path fill="#e0e0e0" d="M500 100h100v100H500z"/><path fill="#dcdcdc" d="M600 100h100v100H600z"/><path fill="#d8d8d8" d="M700 100h100v100H700z"/><path fill="#d1d1d1" d="M0 200h100v100H0z"/><path fill="#cfcfcf" d="M100 200h100v100H100z"/><path fill="#e9e9e9" d="M200 200h100v100H200z"/><path fill="#d7d7d7" d="M300 200h100v100H300z"/><path fill="#bebebe" d="M400 200h100v100H400z"/><path fill="#dedede" d="M500 200h100v100H500z"/><path fill="#e3e3e3" d="M600 200h100v100H600z"/><path fill="#ddd" d="M700 200h100v100H700z"/><path fill="#cacaca" d="M0 300h100v100H0z"/><path fill="#d8d8d8" d="M100 300h100v100H100z"/><path fill="#e7e7e7" d="M200 300h100v100H200z"/><path fill="#f0f0f0" d="M300 300h100v100H300z"/><path fill="#e5e5e5" d="M400 300h100v100H400z"/><path fill="#e8e8e8" d="M500 300h100v100H500z"/><path fill="#f3f3f3" d="M600 300h100v100H600z"/><path fill="#ededed" d="M700 300h100v100H700z"/></svg>