<svg xmlns="http://www.w3.org/2000/svg" viewBox="0 0 800 500"><defs/><path fill="#c1c5c1" d="M0 0h100v100H0z"/><path fill="#a3aaa2" d="M100 0h100v100H100z"/><path fill="#bdc6bf" d="M200 0h100v100H200z"/><path fill="#c2ccc6" d="M300 0h100v100H300z"/><path fill="#a7aea5" d="M400 0h100v100H400z"/><path fill="#bbc3bc" d="M500 0h100v100H500z"/><path fill="#bfcac3" d="M600 0h100v100H600z"/><path fill="#bdc3be" d="M700 0h100v100H700z"/><path fill="#b8beb8" d="M0 100h100v100H0z"/><path fill="#939990" d="M100 100h100v100H100z"/><path fill="#8f978c" d="M200 100h100v100H200z"/><path fill="#9fa899" d="M300 100h100v100H300z"/><path fill="#9ca599" d="M400 100h100v100H400z"/><path fill="#9faa9d" d="M500 100h100v100H500z"/><path fill="#a2a998" d="M600 100h100v100H600z"/><path fill="#aab3aa" d="M700 100h100v100H700z"/><path fill="#bdc2bc" d="M0 200h100v100H0z"/><path fill="#a3a79b" d="M100 200h100v100H100z"/><path fill="#90968c" d="M200 200h100v100H200z"/><path fill="#878a81" d="M300 200h100v100H300z"/><path fill="#969b92" d="M400 200h100v100H400z"/><path fill="#94998e" d="M500 200h100v100H500z"/><path fill="#8f9085" d="M600 200h100v100H600z"/><path fill="#a7aca5" d="M700 200h100v100H700z"/><path fill="#a7aba4" d="M0 300h100v100H0z"/><path fill="#979d94" d="M100 300h100v100H100z"/><path fill="#848d88" d="M200 300h100v100H200z"/><path fill="#a1a99f" d="M300 300h100v100H300z"/><path fill="#a5aa9e" d="M400 300h100v100H400z"/><path fill="#92978d" d="M500 300h100v100H500z"/><path fill="#98a098" d="M600 300h100v100H600z"/><path fill="#99a198" d="M700 300h100v100H700z"/><path fill="#d8d8d6" d="M0 400h100v100H0z"/><path fill="#dcdfdc" d="M100 400h100v100H100z"/><path fill="#dde0dc" d="M200 400h100v100H200z"/><path fill="#dde1de" d="M300 400h100v100H300zm100 0h100v100H400z"/><path fill="#d4d6d4" d="M500 400h100v100H500z"/><path fill="#d6dad7" d="M600 400h100v100H600z"/><path fill="#d4d7d4" d="M700 400h100v100H700z"/></svg>