<svg xmlns="http://www.w3.org/2000/svg" viewBox="0 0 800 500"><defs/><path fill="#f4f6f7" d="M0 0h100v100H0z"/><path fill="#eff1f4" d="M100 0h100v100H100z"/><path fill="#ecf0f4" d="M200 0h100v100H200z"/><path fill="#e8eaed" d="M300 0h100v100H300z"/><path fill="#e5e9ec" d="M400 0h100v100H400z"/><path fill="#ebedef" d="M500 0h100v100H500z"/><path fill="#e6e8ea" d="M600 0h100v100H600z"/><path fill="#e8ebec" d="M700 0h100v100H700z"/><path fill="#b3bbc4" d="M0 100h100v100H0z"/><path fill="#8797a4" d="M100 100h100v100H100z"/><path fill="#93a8b8" d="M200 100h100v100H200z"/><path fill="#697d8f" d="M300 100h100v100H300z"/><path fill="#7b91a1" d="M400 100h100v100H400z"/><path fill="#95a5b1" d="M500 100h100v100H500z"/><path fill="#8d9ea9" d="M600 100h100v100H600z"/><path fill="#a5afb6" d="M700 100h100v100H700z"/><path fill="#bbc4cc" d="M0 200h100v100H0z"/><path fill="#929faa" d="M100 200h100v100H100z"/><path fill="#88929c" d="M200 200h100v100H200z"/><path fill="#6a7582" d="M300 200h100v100H300z"/><path fill="#939fa6" d="M400 200h100v100H400z"/><path fill="#9aa3a8" d="M500 200h100v100H500z"/><path fill="#9da8ad" d="M600 200h100v100H600z"/><path fill="#b9c0c5" d="M700 200h100v100H700z"/><path fill="#adb7c0" d="M0 300h100v100H0z"/><path fill="#637485" d="M100 300h100v100H100z"/><path fill="#8b949c" d="M200 300h100v100H200z"/><path fill="#8c9298" d="M300 300h100v100H300z"/><path fill="#8a9096" d="M400 300h100v100H400z"/><path fill="#939ca1" d="M500 300h100v100H500z"/><path fill="#a0a7ac" d="M600 300h100v100H600z"/><path fill="#b3bbc2" d="M700 300h100v100H700z"/><path fill="#cdd0d4" d="M0 400h100v100H0z"/><path fill="#9da4ad" d="M100 400h100v100H100z"/><path fill="#c1c8cf" d="M200 400h100v100H200z"/><path fill="#c3c9ce" d="M300 400h100v100H300z"/><path fill="#bdc3c8" d="M400 400h100v100H400z"/><path fill="#c8ced2" d="M500 400h100v100H500z"/><path fill="#c6cbcf" d="M600 400h100v100H600z"/><path fill="#c0c6cb" d="M700 400h100v100H700z"/></svg>