<svg xmlns="http://www.w3.org/2000/svg" viewBox="0 0 800 600"><defs/><path fill="#fff" d="M0 0h100v100H0zm100 0h100v100H100zm100 0h100v100H200z"/><path fill="#fafaff" d="M300 0h100v100H300z"/><path fill="#f7f8fe" d="M400 0h100v100H400z"/><path fill="#fff" d="M500 0h100v100H500zm100 0h100v100H600zm100 0h100v100H700z"/><path fill="#dae1c9" d="M0 100h100v100H0z"/><path fill="#aea486" d="M100 100h100v100H100z"/><path fill="#c5c99e" d="M200 100h100v100H200z"/><path fill="#b5b79f" d="M300 100h100v100H300z"/><path fill="#c7c2a5" d="M400 100h100v100H400z"/><path fill="#d1d4b9" d="M500 100h100v100H500z"/><path fill="#b5b9b7" d="M600 100h100v100H600z"/><path fill="#e9e7c3" d="M700 100h100v100H700z"/><path fill="#aeb88f" d="M0 200h100v100H0z"/><path fill="#573616" d="M100 200h100v100H100z"/><path fill="#816c3d" d="M200 200h100v100H200z"/><path fill="#688553" d="M300 200h100v100H300z"/><path fill="#7c9360" d="M400 200h100v100H400z"/><path fill="#807f74" d="M500 200h100v100H500z"/><path fill="#3059c6" d="M600 200h100v100H600z"/><path fill="#a3b2b9" d="M700 200h100v100H700z"/><path fill="#b3ac8c" d="M0 300h100v100H0z"/><path fill="#734326" d="M100 300h100v100H100z"/><path fill="#9b836e" d="M200 300h100v100H200z"/><path fill="#735c43" d="M300 300h100v100H300z"/><path fill="#948b54" d="M400 300h100v100H400z"/><path fill="#7f6150" d="M500 300h100v100H500z"/><path fill="#5b4562" d="M600 300h100v100H600z"/><path fill="#979ca4" d="M700 300h100v100H700z"/><path fill="#a3a297" d="M0 400h100v100H0z"/><path fill="#54270a" d="M100 400h100v100H100z"/><path fill="#8e7d67" d="M200 400h100v100H200z"/><path fill="#826d4c" d="M300 400h100v100H300z"/><path fill="#535043" d="M400 400h100v100H400z"/><path fill="#846b5d" d="M500 400h100v100H500z"/><path fill="#874d38" d="M600 400h100v100H600z"/><path fill="#a79471" d="M700 400h100v100H700z"/><path fill="#d8dfde" d="M0 500h100v100H0z"/><path fill="#b8b2ab" d="M100 500h100v100H100z"/><path fill="#c2c2b8" d="M200 500h100v100H200z"/><path fill="#bfc0b6" d="M300 500h100v100H300z"/><path fill="#b3b6b4" d="M400 500h100v100H400z"/><path fill="#c7c3c0" d="M500 500h100v100H500z"/><path fill="#c7cbca" d="M600 500h100v100H600z"/><path fill="#d7d8d2" d="M700 500h100v100H700z"/></svg>