<svg xmlns="http://www.w3.org/2000/svg" viewBox="0 0 800 500"><defs/><path fill="#686060" d="M0 0h100v100H0z"/><path fill="#bab1af" d="M100 0h100v100H100z"/><path fill="#cec6c3" d="M200 0h100v100H200z"/><path fill="#ccb9ae" d="M300 0h100v100H300z"/><path fill="#d2bba8" d="M400 0h100v100H400z"/><path fill="#d2c8b6" d="M500 0h100v100H500z"/><path fill="#baab9b" d="M600 0h100v100H600z"/><path fill="#baa4a8" d="M700 0h100v100H700z"/><path fill="#464142" d="M0 100h100v100H0z"/><path fill="#b4ada9" d="M100 100h100v100H100z"/><path fill="#c5c5cc" d="M200 100h100v100H200z"/><path fill="#c8c8c1" d="M300 100h100v100H300z"/><path fill="#c5c4b4" d="M400 100h100v100H400z"/><path fill="#cfd5b2" d="M500 100h100v100H500z"/><path fill="#bebda9" d="M600 100h100v100H600z"/><path fill="#ad999d" d="M700 100h100v100H700z"/><path fill="#6a625e" d="M0 200h100v100H0z"/><path fill="#bcb5b1" d="M100 200h100v100H100z"/><path fill="#bebdc1" d="M200 200h100v100H200z"/><path fill="#c8cbb9" d="M300 200h100v100H300z"/><path fill="#c6d4c7" d="M400 200h100v100H400z"/><path fill="#b7c2af" d="M500 200h100v100H500z"/><path fill="#b6baac" d="M600 200h100v100H600z"/><path fill="#bcabb2" d="M700 200h100v100H700z"/><path fill="#7e7673" d="M0 300h100v100H0z"/><path fill="#c6b9b1" d="M100 300h100v100H100z"/><path fill="#c2b6aa" d="M200 300h100v100H200z"/><path fill="#b2aba5" d="M300 300h100v100H300z"/><path fill="#b0a89a" d="M400 300h100v100H400z"/><path fill="#b3a9a2" d="M500 300h100v100H500z"/><path fill="#afa198" d="M600 300h100v100H600z"/><path fill="#aea0a3" d="M700 300h100v100H700z"/><path fill="#a3938b" d="M0 400h100v100H0z"/><path fill="#c6b5a9" d="M100 400h100v100H100z"/><path fill="#b1b0ae" d="M200 400h100v100H200z"/><path fill="#a9a6a3" d="M300 400h100v100H300z"/><path fill="#b5a498" d="M400 400h100v100H400z"/><path fill="#bdb6ad" d="M500 400h100v100H500z"/><path fill="#c3af9d" d="M600 400h100v100H600z"/><path fill="#a99e98" d="M700 400h100v100H700z"/></svg>