<svg xmlns="http://www.w3.org/2000/svg" viewBox="0 0 800 600"><defs/><path fill="#fcf9f3" d="M0 0h100v100H0z"/><path fill="#f6f9ef" d="M100 0h100v100H100z"/><path fill="#f4f8f9" d="M200 0h100v100H200z"/><path fill="#f4f8fb" d="M300 0h100v100H300z"/><path fill="#f4f8fa" d="M400 0h100v100H400z"/><path fill="#f6f9f9" d="M500 0h100v100H500z"/><path fill="#f2f2f1" d="M600 0h100v100H600z"/><path fill="#fbf4f1" d="M700 0h100v100H700z"/><path fill="#efcc9c" d="M0 100h100v100H0z"/><path fill="#c5b48d" d="M100 100h100v100H100z"/><path fill="#96c4d5" d="M200 100h100v100H200z"/><path fill="#a7d5dc" d="M300 100h100v100H300z"/><path fill="#a8d5d6" d="M400 100h100v100H400z"/><path fill="#9fcfdd" d="M500 100h100v100H500z"/><path fill="#99887e" d="M600 100h100v100H600z"/><path fill="#e0a08a" d="M700 100h100v100H700z"/><path fill="#e8cca3" d="M0 200h100v100H0z"/><path fill="#b7bbab" d="M100 200h100v100H100z"/><path fill="#93c6da" d="M200 200h100v100H200z"/><path fill="#a6c6c0" d="M300 200h100v100H300z"/><path fill="#a6c8c1" d="M400 200h100v100H400z"/><path fill="#9dc3cc" d="M500 200h100v100H500z"/><path fill="#8b807a" d="M600 200h100v100H600z"/><path fill="#d3b0a7" d="M700 200h100v100H700z"/><path fill="#dcc599" d="M0 300h100v100H0z"/><path fill="#acbba2" d="M100 300h100v100H100z"/><path fill="#aec3c7" d="M200 300h100v100H200z"/><path fill="#b4b7b1" d="M300 300h100v100H300z"/><path fill="#bfb8a9" d="M400 300h100v100H400z"/><path fill="#c4b09a" d="M500 300h100v100H500z"/><path fill="#96856f" d="M600 300h100v100H600z"/><path fill="#d2a084" d="M700 300h100v100H700z"/><path fill="#dcb69d" d="M0 400h100v100H0z"/><path fill="#c7b192" d="M100 400h100v100H100z"/><path fill="#bcb29e" d="M200 400h100v100H200z"/><path fill="#bfac8c" d="M300 400h100v100H300z"/><path fill="#b8c6b5" d="M400 400h100v100H400z"/><path fill="#cdb09a" d="M500 400h100v100H500z"/><path fill="#b8a273" d="M600 400h100v100H600z"/><path fill="#b8ab86" d="M700 400h100v100H700z"/><path fill="#f2eff1" d="M0 500h100v100H0z"/><path fill="#edeaea" d="M100 500h100v100H100z"/><path fill="#f2ebe3" d="M200 500h100v100H200z"/><path fill="#f9f3dc" d="M300 500h100v100H300z"/><path fill="#f7f8da" d="M400 500h100v100H400z"/><path fill="#f6f0df" d="M500 500h100v100H500z"/><path fill="#fbede2" d="M600 500h100v100H600z"/><path fill="#eceade" d="M700 500h100v100H700z"/></svg>