<svg xmlns="http://www.w3.org/2000/svg" viewBox="0 0 800 1100"><defs/><path fill="#241f1c" d="M0 0h100v100H0z"/><path fill="#2e2725" d="M100 0h100v100H100z"/><path fill="#322b28" d="M200 0h100v100H200z"/><path fill="#3e3634" d="M300 0h100v100H300z"/><path fill="#3d3533" d="M400 0h100v100H400z"/><path fill="#39312f" d="M500 0h100v100H500z"/><path fill="#332b29" d="M600 0h100v100H600z"/><path fill="#2b2321" d="M700 0h100v100H700z"/><path fill="#36312e" d="M0 100h100v100H0z"/><path fill="#47403d" d="M100 100h100v100H100z"/><path fill="#4a4340" d="M200 100h100v100H200z"/><path fill="#574f4c" d="M300 100h100v100H300z"/><path fill="#534d4a" d="M400 100h100v100H400z"/><path fill="#4b4542" d="M500 100h100v100H500z"/><path fill="#433b39" d="M600 100h100v100H600z"/><path fill="#37302d" d="M700 100h100v100H700z"/><path fill="#4a4441" d="M0 200h100v100H0z"/><path fill="#615c58" d="M100 200h100v100H100z"/><path fill="#6a6460" d="M200 200h100v100H200z"/><path fill="#77706d" d="M300 200h100v100H300z"/><path fill="#706b68" d="M400 200h100v100H400z"/><path fill="#65605d" d="M500 200h100v100H500z"/><path fill="#56504d" d="M600 200h100v100H600z"/><path fill="#473f3d" d="M700 200h100v100H700z"/><path fill="#57524e" d="M0 300h100v100H0z"/><path fill="#757169" d="M100 300h100v100H100z"/><path fill="#837f77" d="M200 300h100v100H200z"/><path fill="#94918a" d="M300 300h100v100H300z"/><path fill="#898681" d="M400 300h100v100H400z"/><path fill="#847f7b" d="M500 300h100v100H500z"/><path fill="#6f6a67" d="M600 300h100v100H600z"/><path fill="#544f4d" d="M700 300h100v100H700z"/><path fill="#635f5a" d="M0 400h100v100H0z"/><path fill="#87847e" d="M100 400h100v100H100z"/><path fill="#7c7c75" d="M200 400h100v100H200z"/><path fill="#909089" d="M300 400h100v100H300z"/><path fill="#93938d" d="M400 400h100v100H400z"/><path fill="#a2a09b" d="M500 400h100v100H500z"/><path fill="#87837f" d="M600 400h100v100H600z"/><path fill="#686260" d="M700 400h100v100H700z"/><path fill="#65625e" d="M0 500h100v100H0z"/><path fill="#a3a19c" d="M100 500h100v100H100z"/><path fill="#8d8c88" d="M200 500h100v100H200z"/><path fill="#a0a19b" d="M300 500h100v100H300z"/><path fill="#c5c6c0" d="M400 500h100v100H400z"/><path fill="#c3c2bd" d="M500 500h100v100H500z"/><path fill="#a29d99" d="M600 500h100v100H600z"/><path fill="#7c7673" d="M700 500h100v100H700z"/><path fill="#625e5a" d="M0 600h100v100H0z"/><path fill="#807e79" d="M100 600h100v100H100z"/><path fill="#81807c" d="M200 600h100v100H200z"/><path fill="#a4a5a0" d="M300 600h100v100H300z"/><path fill="#cacac5" d="M400 600h100v100H400z"/><path fill="#dad9d4" d="M500 600h100v100H500z"/><path fill="#c2beba" d="M600 600h100v100H600z"/><path fill="#98918d" d="M700 600h100v100H700z"/><path fill="#54504c" d="M0 700h100v100H0z"/><path fill="#7f7c78" d="M100 700h100v100H100z"/><path fill="#7e7e7a" d="M200 700h100v100H200z"/><path fill="#a1a19c" d="M300 700h100v100H300z"/><path fill="#999893" d="M400 700h100v100H400z"/><path fill="#cac8c3" d="M500 700h100v100H500z"/><path fill="#ded7d3" d="M600 700h100v100H600z"/><path fill="#b1a9a6" d="M700 700h100v100H700z"/><path fill="#373230" d="M0 800h100v100H0z"/><path fill="#a39d98" d="M100 800h100v100H100z"/><path fill="#a29e99" d="M200 800h100v100H200z"/><path fill="#b6b2ac" d="M300 800h100v100H300z"/><path fill="#b0ada6" d="M400 800h100v100H400z"/><path fill="#9a9692" d="M500 800h100v100H500z"/><path fill="#d5ceca" d="M600 800h100v100H600z"/><path fill="#c7bfbc" d="M700 800h100v100H700z"/><path fill="#1b1714" d="M0 900h100v100H0z"/><path fill="#908885" d="M100 900h100v100H100z"/><path fill="#cfc8c2" d="M200 900h100v100H200z"/><path fill="#b1aca5" d="M300 900h100v100H300z"/><path fill="#c1bcb5" d="M400 900h100v100H400z"/><path fill="#e4ded8" d="M500 900h100v100H500z"/><path fill="#ebe4df" d="M600 900h100v100H600z"/><path fill="#cec6c4" d="M700 900h100v100H700z"/><path fill="#110b09" d="M0 1000h100v100H0z"/><path fill="#645c5a" d="M100 1000h100v100H100z"/><path fill="#cbc3bf" d="M200 1000h100v100H200z"/><path fill="#f9f0ec" d="M300 1000h100v100H300z"/><path fill="#fefbf6" d="M400 1000h100v100H400z"/><path fill="#fffcf8" d="M500 1000h100v100H500z"/><path fill="#f3ebe8" d="M600 1000h100v100H600z"/><path fill="#d1c8c7" d="M700 1000h100v100H700z"/></svg>