<svg xmlns="http://www.w3.org/2000/svg" viewBox="0 0 800 500"><defs/><path fill="#686e72" d="M0 0h100v100H0z"/><path fill="#73797e" d="M100 0h100v100H100z"/><path fill="#656b70" d="M200 0h100v100H200z"/><path fill="#5e686e" d="M300 0h100v100H300z"/><path fill="#5d6265" d="M400 0h100v100H400z"/><path fill="#676d72" d="M500 0h100v100H500z"/><path fill="#5e6469" d="M600 0h100v100H600z"/><path fill="#595b5b" d="M700 0h100v100H700z"/><path fill="#8b98a1" d="M0 100h100v100H0z"/><path fill="#a0b4c6" d="M100 100h100v100H100z"/><path fill="#728496" d="M200 100h100v100H200z"/><path fill="#798fa0" d="M300 100h100v100H300z"/><path fill="#9bacbb" d="M400 100h100v100H400z"/><path fill="#99a9b8" d="M500 100h100v100H500z"/><path fill="#6b737b" d="M600 100h100v100H600z"/><path fill="#5a5d5e" d="M700 100h100v100H700z"/><path fill="#949ca3" d="M0 200h100v100H0z"/><path fill="#93a0ab" d="M100 200h100v100H100z"/><path fill="#6b7785" d="M200 200h100v100H200z"/><path fill="#8e9eac" d="M300 200h100v100H300z"/><path fill="#96a2ad" d="M400 200h100v100H400z"/><path fill="#8c949c" d="M500 200h100v100H500z"/><path fill="#595857" d="M600 200h100v100H600z"/><path fill="#535353" d="M700 200h100v100H700z"/><path fill="#7e868f" d="M0 300h100v100H0z"/><path fill="#959da7" d="M100 300h100v100H100z"/><path fill="#9ea2a8" d="M200 300h100v100H200z"/><path fill="#a0a6ad" d="M300 300h100v100H300z"/><path fill="#99a6b2" d="M400 300h100v100H400z"/><path fill="#9aa2a9" d="M500 300h100v100H500z"/><path fill="#5e5e5d" d="M600 300h100v100H600z"/><path fill="#4f4f4f" d="M700 300h100v100H700z"/><path fill="#878e95" d="M0 400h100v100H0z"/><path fill="#aab3bb" d="M100 400h100v100H100z"/><path fill="#818990" d="M200 400h100v100H200z"/><path fill="#758187" d="M300 400h100v100H300z"/><path fill="#88959e" d="M400 400h100v100H400z"/><path fill="#767c84" d="M500 400h100v100H500z"/><path fill="#525151" d="M600 400h100v100H600z"/><path fill="#525252" d="M700 400h100v100H700z"/></svg>