<svg xmlns="http://www.w3.org/2000/svg" viewBox="0 0 800 400"><defs/><path fill="#dac8c4" d="M0 0h100v100H0z"/><path fill="#cfbebe" d="M100 0h100v100H100z"/><path fill="#e5d8d2" d="M200 0h100v100H200z"/><path fill="#e2d4cf" d="M300 0h100v100H300z"/><path fill="#e0d1cd" d="M400 0h100v100H400z"/><path fill="#d2c2c0" d="M500 0h100v100H500z"/><path fill="#ccbbba" d="M600 0h100v100H600z"/><path fill="#d5c3c0" d="M700 0h100v100H700z"/><path fill="#d9c9c6" d="M0 100h100v100H0z"/><path fill="#d3c3c2" d="M100 100h100v100H100z"/><path fill="#d6c6c5" d="M200 100h100v100H200z"/><path fill="#d4c5c3" d="M300 100h100v100H300z"/><path fill="#d3c4c4" d="M400 100h100v100H400z"/><path fill="#beabaf" d="M500 100h100v100H500z"/><path fill="#c1aeb1" d="M600 100h100v100H600z"/><path fill="#c1afb1" d="M700 100h100v100H700z"/><path fill="#d4c2c1" d="M0 200h100v100H0z"/><path fill="#ccbaba" d="M100 200h100v100H100z"/><path fill="#c0adb1" d="M200 200h100v100H200z"/><path fill="#c2adb2" d="M300 200h100v100H300z"/><path fill="#c8b8ba" d="M400 200h100v100H400z"/><path fill="#c3b3b6" d="M500 200h100v100H500z"/><path fill="#b5a3a8" d="M600 200h100v100H600z"/><path fill="#b4a1a7" d="M700 200h100v100H700z"/><path fill="#c3b0b2" d="M0 300h100v100H0z"/><path fill="#bda9ac" d="M100 300h100v100H100z"/><path fill="#bfa3a9" d="M200 300h100v100H200z"/><path fill="#a98795" d="M300 300h100v100H300z"/><path fill="#bfacb1" d="M400 300h100v100H400z"/><path fill="#bdabaf" d="M500 300h100v100H500z"/><path fill="#af9da2" d="M600 300h100v100H600z"/><path fill="#b19ca2" d="M700 300h100v100H700z"/></svg>