<svg xmlns="http://www.w3.org/2000/svg" viewBox="0 0 800 500"><defs/><path fill="#e7d3bb" d="M0 0h100v100H0z"/><path fill="#d9b499" d="M100 0h100v100H100z"/><path fill="#e2cdb8" d="M200 0h100v100H200z"/><path fill="#dccab9" d="M300 0h100v100H300z"/><path fill="#ebe1cb" d="M400 0h100v100H400z"/><path fill="#eae1cd" d="M500 0h100v100H500z"/><path fill="#f9f3de" d="M600 0h100v100H600z"/><path fill="#f6f3e5" d="M700 0h100v100H700z"/><path fill="#d8b080" d="M0 100h100v100H0z"/><path fill="#bb682e" d="M100 100h100v100H100z"/><path fill="#99593e" d="M200 100h100v100H200z"/><path fill="#925440" d="M300 100h100v100H300z"/><path fill="#d2ad80" d="M400 100h100v100H400z"/><path fill="#d6c79a" d="M500 100h100v100H500z"/><path fill="#f0ebba" d="M600 100h100v100H600z"/><path fill="#e8d7ae" d="M700 100h100v100H700z"/><path fill="#d3a77e" d="M0 200h100v100H0z"/><path fill="#c08452" d="M100 200h100v100H100z"/><path fill="#b88e76" d="M200 200h100v100H200z"/><path fill="#c8a186" d="M300 200h100v100H300z"/><path fill="#c7a07a" d="M400 200h100v100H400z"/><path fill="#a88266" d="M500 200h100v100H500z"/><path fill="#ae775a" d="M600 200h100v100H600z"/><path fill="#d1b388" d="M700 200h100v100H700z"/><path fill="#cd9b70" d="M0 300h100v100H0z"/><path fill="#a66736" d="M100 300h100v100H100z"/><path fill="#d0855c" d="M200 300h100v100H200z"/><path fill="#c6875d" d="M300 300h100v100H300z"/><path fill="#964e3f" d="M400 300h100v100H400z"/><path fill="#884537" d="M500 300h100v100H500z"/><path fill="#7b4b17" d="M600 300h100v100H600z"/><path fill="#b57c5c" d="M700 300h100v100H700z"/><path fill="#ca9876" d="M0 400h100v100H0z"/><path fill="#b36845" d="M100 400h100v100H100z"/><path fill="#c26f4e" d="M200 400h100v100H200z"/><path fill="#b76948" d="M300 400h100v100H300z"/><path fill="#95604e" d="M400 400h100v100H400z"/><path fill="#77675c" d="M500 400h100v100H500z"/><path fill="#6b674f" d="M600 400h100v100H600z"/><path fill="#b78168" d="M700 400h100v100H700z"/></svg>