<svg xmlns="http://www.w3.org/2000/svg" viewBox="0 0 800 500"><defs/><path fill="#b5d7e9" d="M0 0h100v100H0z"/><path fill="#c9d3af" d="M100 0h100v100H100z"/><path fill="#bdc9c2" d="M200 0h100v100H200z"/><path fill="#bbc9cc" d="M300 0h100v100H300z"/><path fill="#b2d3e6" d="M400 0h100v100H400z"/><path fill="#bcd6e4" d="M500 0h100v100H500z"/><path fill="#9ec3d5" d="M600 0h100v100H600z"/><path fill="#a3c3d2" d="M700 0h100v100H700z"/><path fill="#a3c8d9" d="M0 100h100v100H0z"/><path fill="#b5b080" d="M100 100h100v100H100z"/><path fill="#a3bec6" d="M200 100h100v100H200z"/><path fill="#adc4cc" d="M300 100h100v100H300z"/><path fill="#a5c0d2" d="M400 100h100v100H400z"/><path fill="#adb0b0" d="M500 100h100v100H500z"/><path fill="#8bb9d1" d="M600 100h100v100H600z"/><path fill="#8eb2c2" d="M700 100h100v100H700z"/><path fill="#b1cac9" d="M0 200h100v100H0z"/><path fill="#b7bc91" d="M100 200h100v100H100z"/><path fill="#8abfe3" d="M200 200h100v100H200z"/><path fill="#96b6c8" d="M300 200h100v100H300z"/><path fill="#98bbd1" d="M400 200h100v100H400z"/><path fill="#8ab1ca" d="M500 200h100v100H500z"/><path fill="#9eadc2" d="M600 200h100v100H600z"/><path fill="#93afc0" d="M700 200h100v100H700z"/><path fill="#bdcdb4" d="M0 300h100v100H0z"/><path fill="#c7b77e" d="M100 300h100v100H100z"/><path fill="#c2aea4" d="M200 300h100v100H200z"/><path fill="#cdac95" d="M300 300h100v100H300z"/><path fill="#d6c4b3" d="M400 300h100v100H400z"/><path fill="#ccc2bc" d="M500 300h100v100H500z"/><path fill="#e49ab3" d="M600 300h100v100H600z"/><path fill="#98a0ae" d="M700 300h100v100H700z"/><path fill="#d2ceb5" d="M0 400h100v100H0z"/><path fill="#e4c09c" d="M100 400h100v100H100z"/><path fill="#e5bea9" d="M200 400h100v100H200z"/><path fill="#e3c0a9" d="M300 400h100v100H300z"/><path fill="#c6d1ae" d="M400 400h100v100H400z"/><path fill="#cdbeae" d="M500 400h100v100H500z"/><path fill="#ecb2a9" d="M600 400h100v100H600z"/><path fill="#d4bdad" d="M700 400h100v100H700z"/></svg>