<svg xmlns="http://www.w3.org/2000/svg" viewBox="0 0 800 600"><defs/><path fill="#e7e3db" d="M0 0h100v100H0z"/><path fill="#e6dfd2" d="M100 0h100v100H100z"/><path fill="#e3daca" d="M200 0h100v100H200z"/><path fill="#dfd9d2" d="M300 0h100v100H300z"/><path fill="#dbd5cf" d="M400 0h100v100H400z"/><path fill="#d7d3c5" d="M500 0h100v100H500z"/><path fill="#d6d0c5" d="M600 0h100v100H600z"/><path fill="#d4cdc5" d="M700 0h100v100H700z"/><path fill="#e1d9c7" d="M0 100h100v100H0z"/><path fill="#dcc9a7" d="M100 100h100v100H100z"/><path fill="#ded1ba" d="M200 100h100v100H200z"/><path fill="#d3c8c7" d="M300 100h100v100H300z"/><path fill="#c0c2b1" d="M400 100h100v100H400z"/><path fill="#a5a87a" d="M500 100h100v100H500z"/><path fill="#d2c7bb" d="M600 100h100v100H600z"/><path fill="#d2cdc9" d="M700 100h100v100H700z"/><path fill="#e4ded1" d="M0 200h100v100H0z"/><path fill="#dcc9ae" d="M100 200h100v100H100z"/><path fill="#dcd5c8" d="M200 200h100v100H200z"/><path fill="#e2d3cf" d="M300 200h100v100H300z"/><path fill="#cecbc0" d="M400 200h100v100H400z"/><path fill="#babeac" d="M500 200h100v100H500z"/><path fill="#c9c1bc" d="M600 200h100v100H600z"/><path fill="#c5c2b8" d="M700 200h100v100H700z"/><path fill="#e4ddd2" d="M0 300h100v100H0z"/><path fill="#cfba94" d="M100 300h100v100H100z"/><path fill="#cbc0a9" d="M200 300h100v100H200z"/><path fill="#c9b8ad" d="M300 300h100v100H300z"/><path fill="#c3b4a6" d="M400 300h100v100H400z"/><path fill="#b0a89a" d="M500 300h100v100H500z"/><path fill="#aa998d" d="M600 300h100v100H600z"/><path fill="#bbb5ac" d="M700 300h100v100H700z"/><path fill="#d7c8ba" d="M0 400h100v100H0z"/><path fill="#c59f77" d="M100 400h100v100H100z"/><path fill="#c6ab96" d="M200 400h100v100H200z"/><path fill="#a8928f" d="M300 400h100v100H300z"/><path fill="#b9988c" d="M400 400h100v100H400z"/><path fill="#b8a7a3" d="M500 400h100v100H500z"/><path fill="#b2998e" d="M600 400h100v100H600z"/><path fill="#bdafa7" d="M700 400h100v100H700z"/><path fill="#dcd1c7" d="M0 500h100v100H0z"/><path fill="#d3c2bb" d="M100 500h100v100H100z"/><path fill="#d6ccc6" d="M200 500h100v100H200z"/><path fill="#dfd1c8" d="M300 500h100v100H300z"/><path fill="#d8ccc3" d="M400 500h100v100H400z"/><path fill="#d7cac1" d="M500 500h100v100H500z"/><path fill="#d0c4ba" d="M600 500h100v100H600z"/><path fill="#c4bfb8" d="M700 500h100v100H700z"/></svg>