<svg xmlns="http://www.w3.org/2000/svg" viewBox="0 0 800 400"><defs/><path fill="#d7d1c8" d="M0 0h100v100H0z"/><path fill="#dad4cb" d="M100 0h100v100H100z"/><path fill="#cdcdd2" d="M200 0h100v100H200z"/><path fill="#b8b8b1" d="M300 0h100v100H300z"/><path fill="#ecebe6" d="M400 0h100v100H400z"/><path fill="#edece7" d="M500 0h100v100H500z"/><path fill="#ebeae5" d="M600 0h100v100H600z"/><path fill="#ebe8e4" d="M700 0h100v100H700z"/><path fill="#d1ccc2" d="M0 100h100v100H0z"/><path fill="#dcd7cf" d="M100 100h100v100H100z"/><path fill="#c9c8c9" d="M200 100h100v100H200z"/><path fill="#8a8a85" d="M300 100h100v100H300z"/><path fill="#e9e7e4" d="M400 100h100v100H400z"/><path fill="#f5f4ef" d="M500 100h100v100H500z"/><path fill="#efede9" d="M600 100h100v100H600z"/><path fill="#e9e6e2" d="M700 100h100v100H700z"/><path fill="#d3cdc3" d="M0 200h100v100H0z"/><path fill="#c2bdb7" d="M100 200h100v100H100z"/><path fill="#bab5ba" d="M200 200h100v100H200z"/><path fill="#8f8f90" d="M300 200h100v100H300z"/><path fill="#c0bbb5" d="M400 200h100v100H400z"/><path fill="#d7d2cc" d="M500 200h100v100H500z"/><path fill="#bfafa8" d="M600 200h100v100H600z"/><path fill="#d1c6c1" d="M700 200h100v100H700z"/><path fill="#c8c2b7" d="M0 300h100v100H0z"/><path fill="#aba6a0" d="M100 300h100v100H100z"/><path fill="#989390" d="M200 300h100v100H200z"/><path fill="#808c97" d="M300 300h100v100H300z"/><path fill="#a2a8ae" d="M400 300h100v100H400z"/><path fill="#d9d2d2" d="M500 300h100v100H500z"/><path fill="#d1c2c1" d="M600 300h100v100H600z"/><path fill="#e5e3e1" d="M700 300h100v100H700z"/></svg>