<svg xmlns="http://www.w3.org/2000/svg" viewBox="0 0 800 600"><defs/><path fill="#dedee2" d="M0 0h100v100H0z"/><path fill="#d4d4d8" d="M100 0h100v100H100zm100 0h100v100H200z"/><path fill="#cecfcf" d="M300 0h100v100H300z"/><path fill="#c9c4cd" d="M400 0h100v100H400z"/><path fill="#c7c4c8" d="M500 0h100v100H500z"/><path fill="#cccfce" d="M600 0h100v100H600z"/><path fill="#d6d8da" d="M700 0h100v100H700z"/><path fill="#61616f" d="M0 100h100v100H0z"/><path fill="#2d3141" d="M100 100h100v100H100z"/><path fill="#4c565b" d="M200 100h100v100H200z"/><path fill="#446047" d="M300 100h100v100H300z"/><path fill="#416541" d="M400 100h100v100H400z"/><path fill="#33403c" d="M500 100h100v100H500z"/><path fill="#2f4337" d="M600 100h100v100H600z"/><path fill="#444d55" d="M700 100h100v100H700z"/><path fill="#5f5d6d" d="M0 200h100v100H0z"/><path fill="#2b3a3d" d="M100 200h100v100H100z"/><path fill="#517b53" d="M200 200h100v100H200z"/><path fill="#3b583b" d="M300 200h100v100H300z"/><path fill="#519342" d="M400 200h100v100H400z"/><path fill="#3e593f" d="M500 200h100v100H500z"/><path fill="#2c3634" d="M600 200h100v100H600z"/><path fill="#414852" d="M700 200h100v100H700z"/><path fill="#656172" d="M0 300h100v100H0z"/><path fill="#313c40" d="M100 300h100v100H100z"/><path fill="#436546" d="M200 300h100v100H200z"/><path fill="#425549" d="M300 300h100v100H300z"/><path fill="#405544" d="M400 300h100v100H400z"/><path fill="#354d38" d="M500 300h100v100H500z"/><path fill="#435850" d="M600 300h100v100H600z"/><path fill="#3f414d" d="M700 300h100v100H700z"/><path fill="#565261" d="M0 400h100v100H0z"/><path fill="#2a243e" d="M100 400h100v100H100z"/><path fill="#362e50" d="M200 400h100v100H200z"/><path fill="#332a60" d="M300 400h100v100H300z"/><path fill="#31255b" d="M400 400h100v100H400z"/><path fill="#373257" d="M500 400h100v100H500z"/><path fill="#313d49" d="M600 400h100v100H600z"/><path fill="#2e2a40" d="M700 400h100v100H700z"/><path fill="#aeacb2" d="M0 500h100v100H0z"/><path fill="#a3a1ab" d="M100 500h100v100H100z"/><path fill="#ada7be" d="M200 500h100v100H200z"/><path fill="#a4a0b8" d="M300 500h100v100H300z"/><path fill="#9896a4" d="M400 500h100v100H400z"/><path fill="#aaa1c1" d="M500 500h100v100H500z"/><path fill="#a0a3ac" d="M600 500h100v100H600z"/><path fill="#a4a0af" d="M700 500h100v100H700z"/></svg>