<svg xmlns="http://www.w3.org/2000/svg" viewBox="0 0 800 600"><defs/><path fill="#d2d2d2" d="M0 0h100v100H0z"/><path fill="#bcbdbd" d="M100 0h100v100H100z"/><path fill="#bdbfc0" d="M200 0h100v100H200z"/><path fill="#c7c6c7" d="M300 0h100v100H300z"/><path fill="#c6c6c7" d="M400 0h100v100H400z"/><path fill="#c3c2c3" d="M500 0h100v100H500z"/><path fill="#b8bfb8" d="M600 0h100v100H600z"/><path fill="#d4d5d4" d="M700 0h100v100H700z"/><path fill="#828383" d="M0 100h100v100H0z"/><path fill="#757371" d="M100 100h100v100H100z"/><path fill="#756d68" d="M200 100h100v100H200z"/><path fill="#6e6e6e" d="M300 100h100v100H300z"/><path fill="#717171" d="M400 100h100v100H400z"/><path fill="#737173" d="M500 100h100v100H500z"/><path fill="#637265" d="M600 100h100v100H600z"/><path fill="#747875" d="M700 100h100v100H700z"/><path fill="#838587" d="M0 200h100v100H0z"/><path fill="#7d7069" d="M100 200h100v100H100z"/><path fill="#a46f51" d="M200 200h100v100H200z"/><path fill="#977457" d="M300 200h100v100H300z"/><path fill="#717064" d="M400 200h100v100H400z"/><path fill="#686a6a" d="M500 200h100v100H500z"/><path fill="#6a5757" d="M600 200h100v100H600z"/><path fill="#777171" d="M700 200h100v100H700z"/><path fill="#878b8e" d="M0 300h100v100H0z"/><path fill="#8a7264" d="M100 300h100v100H100z"/><path fill="#b6784d" d="M200 300h100v100H200z"/><path fill="#ac7445" d="M300 300h100v100H300z"/><path fill="#8d856f" d="M400 300h100v100H400z"/><path fill="#848273" d="M500 300h100v100H500z"/><path fill="#be673d" d="M600 300h100v100H600z"/><path fill="#867873" d="M700 300h100v100H700z"/><path fill="#8f928f" d="M0 400h100v100H0z"/><path fill="#9d8d7a" d="M100 400h100v100H100z"/><path fill="#b29a83" d="M200 400h100v100H200z"/><path fill="#b6a78f" d="M300 400h100v100H300z"/><path fill="#c1c0b0" d="M400 400h100v100H400z"/><path fill="#bcbcab" d="M500 400h100v100H500z"/><path fill="#b0a997" d="M600 400h100v100H600z"/><path fill="#989894" d="M700 400h100v100H700z"/><path fill="#dbdbd7" d="M0 500h100v100H0z"/><path fill="#dedfda" d="M100 500h100v100H100z"/><path fill="#e0e2e0" d="M200 500h100v100H200z"/><path fill="#e0e3e0" d="M300 500h100v100H300z"/><path fill="#dfe0db" d="M400 500h100v100H400z"/><path fill="#e2e2dd" d="M500 500h100v100H500z"/><path fill="#cfcdc7" d="M600 500h100v100H600z"/><path fill="#d0cfcb" d="M700 500h100v100H700z"/></svg>