<svg xmlns="http://www.w3.org/2000/svg" viewBox="0 0 800 500"><defs/><path fill="#919aa1" d="M0 0h100v100H0z"/><path fill="#939ba1" d="M100 0h100v100H100z"/><path fill="#9a9fa4" d="M200 0h100v100H200z"/><path fill="#a0a4a9" d="M300 0h100v100H300z"/><path fill="#a9abb0" d="M400 0h100v100H400z"/><path fill="#afafb5" d="M500 0h100v100H500z"/><path fill="#b6c1c7" d="M600 0h100v100H600z"/><path fill="#b59296" d="M700 0h100v100H700z"/><path fill="#8f989f" d="M0 100h100v100H0z"/><path fill="#7f868c" d="M100 100h100v100H100z"/><path fill="#8b9199" d="M200 100h100v100H200z"/><path fill="#8d9292" d="M300 100h100v100H300z"/><path fill="#908f84" d="M400 100h100v100H400z"/><path fill="#9e9da1" d="M500 100h100v100H500z"/><path fill="#a6afb4" d="M600 100h100v100H600z"/><path fill="#b3989b" d="M700 100h100v100H700z"/><path fill="#8c959b" d="M0 200h100v100H0z"/><path fill="#787f84" d="M100 200h100v100H100z"/><path fill="#8c9198" d="M200 200h100v100H200z"/><path fill="#898c92" d="M300 200h100v100H300z"/><path fill="#7f7776" d="M400 200h100v100H400z"/><path fill="#949194" d="M500 200h100v100H500z"/><path fill="#a0a5a9" d="M600 200h100v100H600z"/><path fill="#b09fa3" d="M700 200h100v100H700z"/><path fill="#828c91" d="M0 300h100v100H0z"/><path fill="#767d7f" d="M100 300h100v100H100z"/><path fill="#8b8e93" d="M200 300h100v100H200z"/><path fill="#7c7d84" d="M300 300h100v100H300z"/><path fill="#857f7d" d="M400 300h100v100H400z"/><path fill="#919296" d="M500 300h100v100H500z"/><path fill="#9ca1a6" d="M600 300h100v100H600z"/><path fill="#a59ca1" d="M700 300h100v100H700z"/><path fill="#818990" d="M0 400h100v100H0z"/><path fill="#80878d" d="M100 400h100v100H100z"/><path fill="#848b91" d="M200 400h100v100H200z"/><path fill="#7c8287" d="M300 400h100v100H300z"/><path fill="#7f827f" d="M400 400h100v100H400z"/><path fill="#898d91" d="M500 400h100v100H500z"/><path fill="#94999f" d="M600 400h100v100H600z"/><path fill="#9c9a9f" d="M700 400h100v100H700z"/></svg>