<svg xmlns="http://www.w3.org/2000/svg" viewBox="0 0 800 600"><defs/><path fill="#f3f6f6" d="M0 0h100v100H0z"/><path fill="#eeeeef" d="M100 0h100v100H100z"/><path fill="#f6f6f8" d="M200 0h100v100H200z"/><path fill="#fdfafc" d="M300 0h100v100H300z"/><path fill="#fffdfe" d="M400 0h100v100H400z"/><path fill="#fdfdff" d="M500 0h100v100H500z"/><path fill="#fbfcfe" d="M600 0h100v100H600z"/><path fill="#fbfbfc" d="M700 0h100v100H700z"/><path fill="#a7b3a9" d="M0 100h100v100H0z"/><path fill="#79594d" d="M100 100h100v100H100z"/><path fill="#cebac1" d="M200 100h100v100H200z"/><path fill="#97a8b3" d="M300 100h100v100H300z"/><path fill="#9dacb6" d="M400 100h100v100H400z"/><path fill="#c5c3c9" d="M500 100h100v100H500z"/><path fill="#c1b9b7" d="M600 100h100v100H600z"/><path fill="#bfc8d4" d="M700 100h100v100H700z"/><path fill="#aaada7" d="M0 200h100v100H0z"/><path fill="#774e46" d="M100 200h100v100H100z"/><path fill="#bab2b9" d="M200 200h100v100H200z"/><path fill="#8aa2a9" d="M300 200h100v100H300z"/><path fill="#799399" d="M400 200h100v100H400z"/><path fill="#a9aaab" d="M500 200h100v100H500z"/><path fill="#ad9b8e" d="M600 200h100v100H600z"/><path fill="#a9c1cb" d="M700 200h100v100H700z"/><path fill="#bfbaae" d="M0 300h100v100H0z"/><path fill="#8a5e56" d="M100 300h100v100H100z"/><path fill="#969496" d="M200 300h100v100H200z"/><path fill="#c6babd" d="M300 300h100v100H300z"/><path fill="#d6c9cb" d="M400 300h100v100H400z"/><path fill="#d5cace" d="M500 300h100v100H500z"/><path fill="#c9c7ce" d="M600 300h100v100H600z"/><path fill="#b2c5d0" d="M700 300h100v100H700z"/><path fill="#cfc7bc" d="M0 400h100v100H0z"/><path fill="#ae908c" d="M100 400h100v100H100z"/><path fill="#d4d3d5" d="M200 400h100v100H200z"/><path fill="#c9c1c0" d="M300 400h100v100H300z"/><path fill="#dbd2cf" d="M400 400h100v100H400z"/><path fill="#b8afb0" d="M500 400h100v100H500z"/><path fill="#aeacad" d="M600 400h100v100H600z"/><path fill="#cccccf" d="M700 400h100v100H700z"/><path fill="#f5f6f6" d="M0 500h100v100H0z"/><path fill="#eff0f1" d="M100 500h100v100H100z"/><path fill="#f1f2f4" d="M200 500h100v100H200z"/><path fill="#eff0f1" d="M300 500h100v100H300z"/><path fill="#eff2f4" d="M400 500h100v100H400z"/><path fill="#e6ebec" d="M500 500h100v100H500z"/><path fill="#e3e7e9" d="M600 500h100v100H600z"/><path fill="#eeeff0" d="M700 500h100v100H700z"/></svg>