<svg xmlns="http://www.w3.org/2000/svg" viewBox="0 0 800 400"><defs/><path fill="#d6cab9" d="M0 0h100v100H0z"/><path fill="#debc7d" d="M100 0h100v100H100z"/><path fill="#ded1ba" d="M200 0h100v100H200z"/><path fill="#d0c5bc" d="M300 0h100v100H300z"/><path fill="#b2a18f" d="M400 0h100v100H400z"/><path fill="#bcc2c4" d="M500 0h100v100H500z"/><path fill="#b1cbc5" d="M600 0h100v100H600z"/><path fill="#abc1b2" d="M700 0h100v100H700z"/><path fill="#d4c2a5" d="M0 100h100v100H0z"/><path fill="#e2c381" d="M100 100h100v100H100z"/><path fill="#c5bdab" d="M200 100h100v100H200z"/><path fill="#adb0bd" d="M300 100h100v100H300z"/><path fill="#b98d91" d="M400 100h100v100H400z"/><path fill="#c8a17c" d="M500 100h100v100H500z"/><path fill="#9ebdad" d="M600 100h100v100H600z"/><path fill="#76875d" d="M700 100h100v100H700z"/><path fill="#e7c898" d="M0 200h100v100H0z"/><path fill="#c8bf85" d="M100 200h100v100H100z"/><path fill="#8fa99e" d="M200 200h100v100H200z"/><path fill="#acaca8" d="M300 200h100v100H300z"/><path fill="#c4afb3" d="M400 200h100v100H400z"/><path fill="#d3c1bd" d="M500 200h100v100H500z"/><path fill="#b8c2c6" d="M600 200h100v100H600z"/><path fill="#8b9c91" d="M700 200h100v100H700z"/><path fill="#e1cc9f" d="M0 300h100v100H0z"/><path fill="#c9b48f" d="M100 300h100v100H100z"/><path fill="#ad947d" d="M200 300h100v100H200z"/><path fill="#bda3a3" d="M300 300h100v100H300z"/><path fill="#b6a5a5" d="M400 300h100v100H400z"/><path fill="#cdbbc0" d="M500 300h100v100H500z"/><path fill="#c4b1a9" d="M600 300h100v100H600z"/><path fill="#a2aa95" d="M700 300h100v100H700z"/></svg>