<svg xmlns="http://www.w3.org/2000/svg" viewBox="0 0 800 500"><defs/><path fill="#dee1da" d="M0 0h100v100H0z"/><path fill="#e8e3d3" d="M100 0h100v100H100z"/><path fill="#f5f4ed" d="M200 0h100v100H200z"/><path fill="#f6f2e7" d="M300 0h100v100H300z"/><path fill="#f4edde" d="M400 0h100v100H400z"/><path fill="#ebece7" d="M500 0h100v100H500z"/><path fill="#d5dfe5" d="M600 0h100v100H600z"/><path fill="#d0d9df" d="M700 0h100v100H700z"/><path fill="#e1e2db" d="M0 100h100v100H0z"/><path fill="#ebe2cf" d="M100 100h100v100H100z"/><path fill="#f4efdf" d="M200 100h100v100H200z"/><path fill="#faf7ec" d="M300 100h100v100H300z"/><path fill="#f9f3e2" d="M400 100h100v100H400z"/><path fill="#edece2" d="M500 100h100v100H500z"/><path fill="#cddbe2" d="M600 100h100v100H600z"/><path fill="#c8d7e1" d="M700 100h100v100H700z"/><path fill="#d7dcdb" d="M0 200h100v100H0z"/><path fill="#e7e4d6" d="M100 200h100v100H100z"/><path fill="#f3e9d2" d="M200 200h100v100H200z"/><path fill="#f6efd8" d="M300 200h100v100H300z"/><path fill="#f9f4e3" d="M400 200h100v100H400z"/><path fill="#f1eee3" d="M500 200h100v100H500z"/><path fill="#e3eaef" d="M600 200h100v100H600z"/><path fill="#c9d9e2" d="M700 200h100v100H700z"/><path fill="#bdcdd8" d="M0 300h100v100H0z"/><path fill="#b6c3c3" d="M100 300h100v100H100z"/><path fill="#e6e0cb" d="M200 300h100v100H200z"/><path fill="#f2e9ce" d="M300 300h100v100H300z"/><path fill="#fcf8ee" d="M400 300h100v100H400z"/><path fill="#f8f3df" d="M500 300h100v100H500z"/><path fill="#eee9d1" d="M600 300h100v100H600z"/><path fill="#ecf0ef" d="M700 300h100v100H700z"/><path fill="#c7d4dc" d="M0 400h100v100H0z"/><path fill="#c2cfd5" d="M100 400h100v100H100z"/><path fill="#dee1dd" d="M200 400h100v100H200z"/><path fill="#efece0" d="M300 400h100v100H300z"/><path fill="#f8f6ec" d="M400 400h100v100H400z"/><path fill="#fdfbf2" d="M500 400h100v100H500z"/><path fill="#f6efd3" d="M600 400h100v100H600z"/><path fill="#f3f3ea" d="M700 400h100v100H700z"/></svg>