<svg xmlns="http://www.w3.org/2000/svg" viewBox="0 0 800 400"><defs/><path fill="#94803b" d="M0 0h100v100H0z"/><path fill="#796921" d="M100 0h100v100H100z"/><path fill="#877f4b" d="M200 0h100v100H200z"/><path fill="#8e9485" d="M300 0h100v100H300z"/><path fill="#8a8552" d="M400 0h100v100H400z"/><path fill="#878835" d="M500 0h100v100H500z"/><path fill="#858431" d="M600 0h100v100H600z"/><path fill="#a59533" d="M700 0h100v100H700z"/><path fill="#83792c" d="M0 100h100v100H0z"/><path fill="#6e5e24" d="M100 100h100v100H100z"/><path fill="#848068" d="M200 100h100v100H200z"/><path fill="#8aa2aa" d="M300 100h100v100H300z"/><path fill="#858370" d="M400 100h100v100H400z"/><path fill="#997257" d="M500 100h100v100H500z"/><path fill="#957354" d="M600 100h100v100H600z"/><path fill="#979a3d" d="M700 100h100v100H700z"/><path fill="#6b6925" d="M0 200h100v100H0z"/><path fill="#6b6420" d="M100 200h100v100H100z"/><path fill="#aba45b" d="M200 200h100v100H200z"/><path fill="#a0aa7b" d="M300 200h100v100H300z"/><path fill="#918b58" d="M400 200h100v100H400z"/><path fill="#76862f" d="M500 200h100v100H500z"/><path fill="#7e6837" d="M600 200h100v100H600z"/><path fill="#7e7e67" d="M700 200h100v100H700z"/><path fill="#767131" d="M0 300h100v100H0z"/><path fill="#637c31" d="M100 300h100v100H100z"/><path fill="#7ca04e" d="M200 300h100v100H200z"/><path fill="#7a9c2b" d="M300 300h100v100H300z"/><path fill="#768220" d="M400 300h100v100H400z"/><path fill="#71762b" d="M500 300h100v100H500z"/><path fill="#7b9933" d="M600 300h100v100H600z"/><path fill="#778b46" d="M700 300h100v100H700z"/></svg>