<svg xmlns="http://www.w3.org/2000/svg" viewBox="0 0 800 500"><defs/><path fill="#e6d7c2" d="M0 0h100v100H0z"/><path fill="#c1b9ae" d="M100 0h100v100H100z"/><path fill="#85837a" d="M200 0h100v100H200z"/><path fill="#959694" d="M300 0h100v100H300z"/><path fill="#909491" d="M400 0h100v100H400z"/><path fill="#858382" d="M500 0h100v100H500z"/><path fill="#8d8d7b" d="M600 0h100v100H600z"/><path fill="#bdbfb9" d="M700 0h100v100H700z"/><path fill="#bbb097" d="M0 100h100v100H0z"/><path fill="#a0917a" d="M100 100h100v100H100z"/><path fill="#868467" d="M200 100h100v100H200z"/><path fill="#5c4639" d="M300 100h100v100H300z"/><path fill="#593d2a" d="M400 100h100v100H400z"/><path fill="#4b3922" d="M500 100h100v100H500z"/><path fill="#707046" d="M600 100h100v100H600z"/><path fill="#aeb098" d="M700 100h100v100H700z"/><path fill="#75735a" d="M0 200h100v100H0z"/><path fill="#776552" d="M100 200h100v100H100z"/><path fill="#a79b82" d="M200 200h100v100H200z"/><path fill="#826e56" d="M300 200h100v100H300z"/><path fill="#716d57" d="M400 200h100v100H400z"/><path fill="#716e59" d="M500 200h100v100H500z"/><path fill="#86794f" d="M600 200h100v100H600z"/><path fill="#908e6b" d="M700 200h100v100H700z"/><path fill="#87725a" d="M0 300h100v100H0z"/><path fill="#967558" d="M100 300h100v100H100z"/><path fill="#debf93" d="M200 300h100v100H200z"/><path fill="#bc9a73" d="M300 300h100v100H300z"/><path fill="#656b60" d="M400 300h100v100H400z"/><path fill="#7d7159" d="M500 300h100v100H500z"/><path fill="#976247" d="M600 300h100v100H600z"/><path fill="#a48360" d="M700 300h100v100H700z"/><path fill="#9fa68a" d="M0 400h100v100H0z"/><path fill="#836c4e" d="M100 400h100v100H100z"/><path fill="#94764d" d="M200 400h100v100H200z"/><path fill="#987958" d="M300 400h100v100H300z"/><path fill="#8e654b" d="M400 400h100v100H400z"/><path fill="#815839" d="M500 400h100v100H500z"/><path fill="#875f44" d="M600 400h100v100H600z"/><path fill="#8b6549" d="M700 400h100v100H700z"/></svg>