<svg xmlns="http://www.w3.org/2000/svg" viewBox="0 0 800 600"><defs/><path fill="#c0ae95" d="M0 0h100v100H0z"/><path fill="#b0a481" d="M100 0h100v100H100z"/><path fill="#bcc2a3" d="M200 0h100v100H200z"/><path fill="#cac7b2" d="M300 0h100v100H300z"/><path fill="#b3c0a4" d="M400 0h100v100H400z"/><path fill="#afb796" d="M500 0h100v100H500z"/><path fill="#c7bf9f" d="M600 0h100v100H600z"/><path fill="#433f3e" d="M700 0h100v100H700z"/><path fill="#bcaa8e" d="M0 100h100v100H0z"/><path fill="#aea482" d="M100 100h100v100H100z"/><path fill="#b7c19f" d="M200 100h100v100H200z"/><path fill="#cbc8ac" d="M300 100h100v100H300z"/><path fill="#b3b198" d="M400 100h100v100H400z"/><path fill="#7f7a66" d="M500 100h100v100H500z"/><path fill="#bbab8e" d="M600 100h100v100H600z"/><path fill="#534d4b" d="M700 100h100v100H700z"/><path fill="#b69c80" d="M0 200h100v100H0z"/><path fill="#ada888" d="M100 200h100v100H100z"/><path fill="#c0c294" d="M200 200h100v100H200z"/><path fill="#ccc8ad" d="M300 200h100v100H300z"/><path fill="#bfb79e" d="M400 200h100v100H400z"/><path fill="#8b8774" d="M500 200h100v100H500z"/><path fill="#bbbba0" d="M600 200h100v100H600z"/><path fill="#575654" d="M700 200h100v100H700z"/><path fill="#c2a78a" d="M0 300h100v100H0z"/><path fill="#c4b69d" d="M100 300h100v100H100z"/><path fill="#c9c96c" d="M200 300h100v100H200z"/><path fill="#cfcc98" d="M300 300h100v100H300z"/><path fill="#d2c8c4" d="M400 300h100v100H400z"/><path fill="#b8a898" d="M500 300h100v100H500z"/><path fill="#baab93" d="M600 300h100v100H600z"/><path fill="#554e4f" d="M700 300h100v100H700z"/><path fill="#b5977b" d="M0 400h100v100H0z"/><path fill="#cbc0b9" d="M100 400h100v100H100z"/><path fill="#b6ae9d" d="M200 400h100v100H200z"/><path fill="#c2ca98" d="M300 400h100v100H300z"/><path fill="#afb5a8" d="M400 400h100v100H400z"/><path fill="#8c9797" d="M500 400h100v100H500z"/><path fill="#ae9b8a" d="M600 400h100v100H600z"/><path fill="#65554b" d="M700 400h100v100H700z"/><path fill="#8b7055" d="M0 500h100v100H0z"/><path fill="#9d856d" d="M100 500h100v100H100z"/><path fill="#958576" d="M200 500h100v100H200z"/><path fill="#978f78" d="M300 500h100v100H300z"/><path fill="#867d60" d="M400 500h100v100H400z"/><path fill="#6c6552" d="M500 500h100v100H500z"/><path fill="#836b53" d="M600 500h100v100H600z"/><path fill="#6c523b" d="M700 500h100v100H700z"/></svg>