<svg xmlns="http://www.w3.org/2000/svg" viewBox="0 0 800 700"><defs/><path fill="#fdfcfb" d="M0 0h100v100H0z"/><path fill="#faf4f1" d="M100 0h100v100H100z"/><path fill="#fbf9f7" d="M200 0h100v100H200z"/><path fill="#fffffd" d="M300 0h100v100H300z"/><path fill="#fdfcfc" d="M400 0h100v100H400z"/><path fill="#fffcfd" d="M500 0h100v100H500z"/><path fill="#fdfcfc" d="M600 0h100v100H600z"/><path fill="#f9fbfc" d="M700 0h100v100H700z"/><path fill="#f4edea" d="M0 100h100v100H0z"/><path fill="#f4d8d0" d="M100 100h100v100H100z"/><path fill="#cccbcf" d="M200 100h100v100H200z"/><path fill="#ebeff6" d="M300 100h100v100H300z"/><path fill="#e5efed" d="M400 100h100v100H400z"/><path fill="#d5e0d9" d="M500 100h100v100H500z"/><path fill="#e1e6dd" d="M600 100h100v100H600z"/><path fill="#dfedef" d="M700 100h100v100H700z"/><path fill="#ebdfda" d="M0 200h100v100H0z"/><path fill="#cac8be" d="M100 200h100v100H100z"/><path fill="#bdb664" d="M200 200h100v100H200z"/><path fill="#ffdb60" d="M300 200h100v100H300z"/><path fill="#beca9e" d="M400 200h100v100H400z"/><path fill="#6b9056" d="M500 200h100v100H500z"/><path fill="#c0cab7" d="M600 200h100v100H600z"/><path fill="#e3f3f7" d="M700 200h100v100H700z"/><path fill="#ded2cf" d="M0 300h100v100H0z"/><path fill="#9cb18e" d="M100 300h100v100H100z"/><path fill="#c4be76" d="M200 300h100v100H200z"/><path fill="#fbd76f" d="M300 300h100v100H300z"/><path fill="#dccdb2" d="M400 300h100v100H400z"/><path fill="#c1b6ab" d="M500 300h100v100H500z"/><path fill="#dbbfae" d="M600 300h100v100H600z"/><path fill="#dae7e6" d="M700 300h100v100H700z"/><path fill="#ecdad3" d="M0 400h100v100H0z"/><path fill="#e7d1b1" d="M100 400h100v100H100z"/><path fill="#dccbc0" d="M200 400h100v100H200z"/><path fill="#c5bfbe" d="M300 400h100v100H300z"/><path fill="#adb5b8" d="M400 400h100v100H400z"/><path fill="#d9bdcd" d="M500 400h100v100H500z"/><path fill="#e0b8bb" d="M600 400h100v100H600z"/><path fill="#e4ded9" d="M700 400h100v100H700z"/><path fill="#fefaf6" d="M0 500h100v100H0z"/><path fill="#fcf6f4" d="M100 500h100v100H100z"/><path fill="#f8f4ef" d="M200 500h100v100H200zm100 0h100v100H300z"/><path fill="#ecefed" d="M400 500h100v100H400z"/><path fill="#f6f2f5" d="M500 500h100v100H500z"/><path fill="#fcf5fa" d="M600 500h100v100H600z"/><path fill="#fdf9f7" d="M700 500h100v100H700z"/><path fill="#fff" d="M0 600h100v100H0zm100 0h100v100H100zm100 0h100v100H200zm100 0h100v100H300zm100 0h100v100H400zm100 0h100v100H500zm100 0h100v100H600zm100 0h100v100H700z"/></svg>