<svg xmlns="http://www.w3.org/2000/svg" viewBox="0 0 800 600"><defs/><path fill="#dbd7dd" d="M0 0h100v100H0z"/><path fill="#dad8df" d="M100 0h100v100H100z"/><path fill="#dcd6df" d="M200 0h100v100H200z"/><path fill="#ded5dd" d="M300 0h100v100H300z"/><path fill="#e2dae1" d="M400 0h100v100H400z"/><path fill="#d8d5de" d="M500 0h100v100H500z"/><path fill="#c9c6d0" d="M600 0h100v100H600z"/><path fill="#ccc9d1" d="M700 0h100v100H700z"/><path fill="#d8d6dd" d="M0 100h100v100H0z"/><path fill="#d0ccd3" d="M100 100h100v100H100z"/><path fill="#aebac2" d="M200 100h100v100H200z"/><path fill="#87a9bf" d="M300 100h100v100H300z"/><path fill="#97b0c6" d="M400 100h100v100H400z"/><path fill="#c9c7d0" d="M500 100h100v100H500z"/><path fill="#c4c1ca" d="M600 100h100v100H600z"/><path fill="#cac7d0" d="M700 100h100v100H700z"/><path fill="#dddbe3" d="M0 200h100v100H0z"/><path fill="#c5c1c9" d="M100 200h100v100H100z"/><path fill="#a7b7b5" d="M200 200h100v100H200z"/><path fill="#6c97ad" d="M300 200h100v100H300z"/><path fill="#82a4ba" d="M400 200h100v100H400z"/><path fill="#c7c3c9" d="M500 200h100v100H500z"/><path fill="#d0ced6" d="M600 200h100v100H600z"/><path fill="#cecbd2" d="M700 200h100v100H700z"/><path fill="#cfccd4" d="M0 300h100v100H0z"/><path fill="#b6b7c0" d="M100 300h100v100H100z"/><path fill="#b6a6af" d="M200 300h100v100H200z"/><path fill="#af959a" d="M300 300h100v100H300z"/><path fill="#aea7a9" d="M400 300h100v100H400z"/><path fill="#bcb7ba" d="M500 300h100v100H500z"/><path fill="#d3d1d9" d="M600 300h100v100H600z"/><path fill="#c8c4cc" d="M700 300h100v100H700z"/><path fill="#c8c3cc" d="M0 400h100v100H0z"/><path fill="#cac8d1" d="M100 400h100v100H100z"/><path fill="#c6c1ca" d="M200 400h100v100H200z"/><path fill="#b3aeb6" d="M300 400h100v100H300z"/><path fill="#b0adb7" d="M400 400h100v100H400z"/><path fill="#bebbc4" d="M500 400h100v100H500z"/><path fill="#d1cdd4" d="M600 400h100v100H600z"/><path fill="#d8d2d9" d="M700 400h100v100H700z"/><path fill="#d6d1d8" d="M0 500h100v100H0z"/><path fill="#d4d0d8" d="M100 500h100v100H100z"/><path fill="#d4d1d9" d="M200 500h100v100H200z"/><path fill="#cfcbd3" d="M300 500h100v100H300z"/><path fill="#cfcbd2" d="M400 500h100v100H400z"/><path fill="#d1cad2" d="M500 500h100v100H500z"/><path fill="#d4ccd3" d="M600 500h100v100H600z"/><path fill="#d5cdd3" d="M700 500h100v100H700z"/></svg>