<svg xmlns="http://www.w3.org/2000/svg" viewBox="0 0 800 400"><defs/><path fill="#e1cf9d" d="M0 0h100v100H0z"/><path fill="#ae9d69" d="M100 0h100v100H100z"/><path fill="#35463e" d="M200 0h100v100H200z"/><path fill="#557266" d="M300 0h100v100H300z"/><path fill="#9dcdb3" d="M400 0h100v100H400z"/><path fill="#98c2ac" d="M500 0h100v100H500z"/><path fill="#6e6754" d="M600 0h100v100H600z"/><path fill="#4c3e34" d="M700 0h100v100H700z"/><path fill="#c0ad7d" d="M0 100h100v100H0z"/><path fill="#918854" d="M100 100h100v100H100z"/><path fill="#19362b" d="M200 100h100v100H200z"/><path fill="#304d41" d="M300 100h100v100H300z"/><path fill="#80b598" d="M400 100h100v100H400z"/><path fill="#6a917c" d="M500 100h100v100H500z"/><path fill="#402e1e" d="M600 100h100v100H600z"/><path fill="#241f14" d="M700 100h100v100H700z"/><path fill="#bba67d" d="M0 200h100v100H0z"/><path fill="#6a6845" d="M100 200h100v100H100z"/><path fill="#6d755b" d="M200 200h100v100H200z"/><path fill="#59462e" d="M300 200h100v100H300z"/><path fill="#4e4536" d="M400 200h100v100H400z"/><path fill="#535544" d="M500 200h100v100H500z"/><path fill="#453c2d" d="M600 200h100v100H600z"/><path fill="#291e18" d="M700 200h100v100H700z"/><path fill="#8f7d64" d="M0 300h100v100H0z"/><path fill="#665843" d="M100 300h100v100H100z"/><path fill="#7e6a5a" d="M200 300h100v100H200z"/><path fill="#4e362b" d="M300 300h100v100H300z"/><path fill="#3c1f19" d="M400 300h100v100H400z"/><path fill="#3d241f" d="M500 300h100v100H500z"/><path fill="#3a2b25" d="M600 300h100v100H600z"/><path fill="#1b1510" d="M700 300h100v100H700z"/></svg>