<svg xmlns="http://www.w3.org/2000/svg" viewBox="0 0 800 600"><defs/><path fill="#fcfcfb" d="M0 0h100v100H0z"/><path fill="#f3f4f5" d="M100 0h100v100H100z"/><path fill="#f0fbfc" d="M200 0h100v100H200z"/><path fill="#effbfc" d="M300 0h100v100H300z"/><path fill="#eaf3f7" d="M400 0h100v100H400z"/><path fill="#ebf7fd" d="M500 0h100v100H500z"/><path fill="#e9f4f7" d="M600 0h100v100H600z"/><path fill="#edf7f9" d="M700 0h100v100H700z"/><path fill="#f5f4f5" d="M0 100h100v100H0z"/><path fill="#cfdae4" d="M100 100h100v100H100z"/><path fill="#9ab8bf" d="M200 100h100v100H200z"/><path fill="#91afb3" d="M300 100h100v100H300z"/><path fill="#9bb8bf" d="M400 100h100v100H400z"/><path fill="#9eb5b2" d="M500 100h100v100H500z"/><path fill="#a4b6b8" d="M600 100h100v100H600z"/><path fill="#a6c2ca" d="M700 100h100v100H700z"/><path fill="#edf1f5" d="M0 200h100v100H0z"/><path fill="#cec3c6" d="M100 200h100v100H100z"/><path fill="#7c544f" d="M200 200h100v100H200z"/><path fill="#5f6261" d="M300 200h100v100H300z"/><path fill="#a29698" d="M400 200h100v100H400z"/><path fill="#858893" d="M500 200h100v100H500z"/><path fill="#a5c1ce" d="M600 200h100v100H600z"/><path fill="#aad0dd" d="M700 200h100v100H700z"/><path fill="#e4ebf7" d="M0 300h100v100H0z"/><path fill="#d0bcb4" d="M100 300h100v100H100z"/><path fill="#bc8757" d="M200 300h100v100H200z"/><path fill="#976755" d="M300 300h100v100H300z"/><path fill="#a26b69" d="M400 300h100v100H400z"/><path fill="#724d4a" d="M500 300h100v100H500z"/><path fill="#92575a" d="M600 300h100v100H600z"/><path fill="#b1b0bb" d="M700 300h100v100H700z"/><path fill="#dadbdc" d="M0 400h100v100H0z"/><path fill="#e3ca92" d="M100 400h100v100H100z"/><path fill="#ffe06e" d="M200 400h100v100H200z"/><path fill="#a5834e" d="M300 400h100v100H300z"/><path fill="#352923" d="M400 400h100v100H400z"/><path fill="#af8f4f" d="M500 400h100v100H500z"/><path fill="#cf8343" d="M600 400h100v100H600z"/><path fill="#af8872" d="M700 400h100v100H700z"/><path fill="#f4eee0" d="M0 500h100v100H0z"/><path fill="#f9ebcc" d="M100 500h100v100H100z"/><path fill="#ffefce" d="M200 500h100v100H200z"/><path fill="#e5dcc6" d="M300 500h100v100H300z"/><path fill="#bdbeb8" d="M400 500h100v100H400z"/><path fill="#f4e9cc" d="M500 500h100v100H500z"/><path fill="#fbefca" d="M600 500h100v100H600z"/><path fill="#e3e3d1" d="M700 500h100v100H700z"/></svg>