<svg xmlns="http://www.w3.org/2000/svg" viewBox="0 0 800 500"><defs/><path fill="#777366" d="M0 0h100v100H0z"/><path fill="#7f7f78" d="M100 0h100v100H100z"/><path fill="#78676c" d="M200 0h100v100H200z"/><path fill="#786670" d="M300 0h100v100H300z"/><path fill="#9d888d" d="M400 0h100v100H400z"/><path fill="#87757c" d="M500 0h100v100H500z"/><path fill="#80766c" d="M600 0h100v100H600z"/><path fill="#8d8277" d="M700 0h100v100H700z"/><path fill="#4c4133" d="M0 100h100v100H0z"/><path fill="#494636" d="M100 100h100v100H100z"/><path fill="#645947" d="M200 100h100v100H200z"/><path fill="#625552" d="M300 100h100v100H300z"/><path fill="#76686c" d="M400 100h100v100H400z"/><path fill="#615e57" d="M500 100h100v100H500z"/><path fill="#534e35" d="M600 100h100v100H600z"/><path fill="#534038" d="M700 100h100v100H700z"/><path fill="#5e5241" d="M0 200h100v100H0z"/><path fill="#564935" d="M100 200h100v100H100z"/><path fill="#5b5639" d="M200 200h100v100H200z"/><path fill="#736051" d="M300 200h100v100H300z"/><path fill="#726244" d="M400 200h100v100H400z"/><path fill="#72594f" d="M500 200h100v100H500z"/><path fill="#65474b" d="M600 200h100v100H600z"/><path fill="#544148" d="M700 200h100v100H700z"/><path fill="#4f402a" d="M0 300h100v100H0z"/><path fill="#2b1d09" d="M100 300h100v100H100z"/><path fill="#623e21" d="M200 300h100v100H200z"/><path fill="#624932" d="M300 300h100v100H300z"/><path fill="#632e26" d="M400 300h100v100H400z"/><path fill="#5b1b2a" d="M500 300h100v100H500z"/><path fill="#411a1d" d="M600 300h100v100H600z"/><path fill="#3b3f25" d="M700 300h100v100H700z"/><path fill="#978e7e" d="M0 400h100v100H0z"/><path fill="#8c8677" d="M100 400h100v100H100z"/><path fill="#a19287" d="M200 400h100v100H200z"/><path fill="#a08e73" d="M300 400h100v100H300z"/><path fill="#867d73" d="M400 400h100v100H400z"/><path fill="#614e50" d="M500 400h100v100H500z"/><path fill="#877872" d="M600 400h100v100H600z"/><path fill="#727f5e" d="M700 400h100v100H700z"/></svg>