<svg xmlns="http://www.w3.org/2000/svg" viewBox="0 0 800 400"><defs/><path fill="#b8b9b7" d="M0 0h100v100H0z"/><path fill="#abb1ab" d="M100 0h100v100H100z"/><path fill="#b3afb6" d="M200 0h100v100H200z"/><path fill="#afaab2" d="M300 0h100v100H300z"/><path fill="#b0adb1" d="M400 0h100v100H400z"/><path fill="#a7a6aa" d="M500 0h100v100H500z"/><path fill="#98959d" d="M600 0h100v100H600z"/><path fill="#a3a2a3" d="M700 0h100v100H700z"/><path fill="#b5bab6" d="M0 100h100v100H0z"/><path fill="#b0b7b2" d="M100 100h100v100H100z"/><path fill="#bab7b5" d="M200 100h100v100H200z"/><path fill="#a9aea1" d="M300 100h100v100H300z"/><path fill="#93998b" d="M400 100h100v100H400z"/><path fill="#9da396" d="M500 100h100v100H500z"/><path fill="#9fa1a3" d="M600 100h100v100H600z"/><path fill="#a8a7a8" d="M700 100h100v100H700z"/><path fill="#b6bdb8" d="M0 200h100v100H0z"/><path fill="#abb1af" d="M100 200h100v100H100z"/><path fill="#b1ac9a" d="M200 200h100v100H200z"/><path fill="#a3b18f" d="M300 200h100v100H300z"/><path fill="#93a89b" d="M400 200h100v100H400z"/><path fill="#9ba28d" d="M500 200h100v100H500z"/><path fill="#a49890" d="M600 200h100v100H600z"/><path fill="#9a9998" d="M700 200h100v100H700z"/><path fill="#b8bfb9" d="M0 300h100v100H0z"/><path fill="#aaaaac" d="M100 300h100v100H100z"/><path fill="#a4999a" d="M200 300h100v100H200z"/><path fill="#aea4a7" d="M300 300h100v100H300z"/><path fill="#a69ca3" d="M400 300h100v100H400z"/><path fill="#a29b94" d="M500 300h100v100H500z"/><path fill="#a19591" d="M600 300h100v100H600z"/><path fill="#676c70" d="M700 300h100v100H700z"/></svg>