<svg xmlns="http://www.w3.org/2000/svg" viewBox="0 0 800 400"><defs/><path fill="#52772c" d="M0 0h100v100H0z"/><path fill="#7e7e2a" d="M100 0h100v100H100z"/><path fill="#11412b" d="M200 0h100v100H200z"/><path fill="#2e663b" d="M300 0h100v100H300z"/><path fill="#2b7061" d="M400 0h100v100H400z"/><path fill="#236b69" d="M500 0h100v100H500z"/><path fill="#27695c" d="M600 0h100v100H600z"/><path fill="#3f7136" d="M700 0h100v100H700z"/><path fill="#5d9363" d="M0 100h100v100H0z"/><path fill="#7e852f" d="M100 100h100v100H100z"/><path fill="#1b6655" d="M200 100h100v100H200z"/><path fill="#237259" d="M300 100h100v100H300z"/><path fill="#207057" d="M400 100h100v100H400z"/><path fill="#2b7562" d="M500 100h100v100H500z"/><path fill="#24695d" d="M600 100h100v100H600z"/><path fill="#6c9e42" d="M700 100h100v100H700z"/><path fill="#6e8c48" d="M0 200h100v100H0z"/><path fill="#8a853c" d="M100 200h100v100H100z"/><path fill="#4d635d" d="M200 200h100v100H200z"/><path fill="#3d5a56" d="M300 200h100v100H300z"/><path fill="#3d665a" d="M400 200h100v100H400z"/><path fill="#486846" d="M500 200h100v100H500z"/><path fill="#435a40" d="M600 200h100v100H600z"/><path fill="#82a33e" d="M700 200h100v100H700z"/><path fill="#78762f" d="M0 300h100v100H0z"/><path fill="#a57547" d="M100 300h100v100H100z"/><path fill="#8a5d6c" d="M200 300h100v100H200z"/><path fill="#351469" d="M300 300h100v100H300z"/><path fill="#4d2b67" d="M400 300h100v100H400z"/><path fill="#776351" d="M500 300h100v100H500z"/><path fill="#876751" d="M600 300h100v100H600z"/><path fill="#83794e" d="M700 300h100v100H700z"/></svg>