<svg xmlns="http://www.w3.org/2000/svg" viewBox="0 0 800 600"><defs/><path fill="#ab9187" d="M0 0h100v100H0z"/><path fill="#b8a69f" d="M100 0h100v100H100z"/><path fill="#beb4a6" d="M200 0h100v100H200z"/><path fill="#cec5b8" d="M300 0h100v100H300z"/><path fill="#cfc9c2" d="M400 0h100v100H400z"/><path fill="#c1b5ac" d="M500 0h100v100H500z"/><path fill="#a9a18d" d="M600 0h100v100H600z"/><path fill="#8b8a75" d="M700 0h100v100H700z"/><path fill="#b7a19a" d="M0 100h100v100H0z"/><path fill="#c7b2a4" d="M100 100h100v100H100z"/><path fill="#d2c3ab" d="M200 100h100v100H200z"/><path fill="#d4cdbf" d="M300 100h100v100H300z"/><path fill="#d4cdc4" d="M400 100h100v100H400z"/><path fill="#c9c0b8" d="M500 100h100v100H500z"/><path fill="#bdb8a1" d="M600 100h100v100H600z"/><path fill="#a19f89" d="M700 100h100v100H700z"/><path fill="#c8ada6" d="M0 200h100v100H0z"/><path fill="#d9bea6" d="M100 200h100v100H100z"/><path fill="#e0cab8" d="M200 200h100v100H200z"/><path fill="#d9d4cb" d="M300 200h100v100H300z"/><path fill="#ddd4b7" d="M400 200h100v100H400z"/><path fill="#e7cfc4" d="M500 200h100v100H500z"/><path fill="#ccc2ab" d="M600 200h100v100H600z"/><path fill="#aeac97" d="M700 200h100v100H700z"/><path fill="#ceb2aa" d="M0 300h100v100H0z"/><path fill="#dabea4" d="M100 300h100v100H100z"/><path fill="#e3cec3" d="M200 300h100v100H200z"/><path fill="#e2e0de" d="M300 300h100v100H300z"/><path fill="#dcd3b6" d="M400 300h100v100H400z"/><path fill="#d9cec3" d="M500 300h100v100H500z"/><path fill="#c4b8a8" d="M600 300h100v100H600z"/><path fill="#aeada0" d="M700 300h100v100H700z"/><path fill="#ccb1a8" d="M0 400h100v100H0z"/><path fill="#d8bea3" d="M100 400h100v100H100z"/><path fill="#e4d6ce" d="M200 400h100v100H200z"/><path fill="#ede5e2" d="M300 400h100v100H300z"/><path fill="#e8e4e1" d="M400 400h100v100H400z"/><path fill="#dcd8d0" d="M500 400h100v100H500z"/><path fill="#c7c2b6" d="M600 400h100v100H600z"/><path fill="#b5b5b1" d="M700 400h100v100H700z"/><path fill="#bfaba2" d="M0 500h100v100H0z"/><path fill="#cebdaf" d="M100 500h100v100H100z"/><path fill="#dbcdc6" d="M200 500h100v100H200z"/><path fill="#dfd6d4" d="M300 500h100v100H300z"/><path fill="#d5d0cd" d="M400 500h100v100H400z"/><path fill="#cfd1cf" d="M500 500h100v100H500z"/><path fill="#b9c2c0" d="M600 500h100v100H600z"/><path fill="#a5a7a3" d="M700 500h100v100H700z"/></svg>