<svg xmlns="http://www.w3.org/2000/svg" viewBox="0 0 800 600"><defs/><path fill="#fdfefe" d="M0 0h100v100H0z"/><path fill="#f9fafa" d="M100 0h100v100H100z"/><path fill="#fefeff" d="M200 0h100v100H200z"/><path fill="#fafdfd" d="M300 0h100v100H300z"/><path fill="#fbfefe" d="M400 0h100v100H400z"/><path fill="#fbfcfc" d="M500 0h100v100H500z"/><path fill="#fafbfa" d="M600 0h100v100H600z"/><path fill="#f9fafa" d="M700 0h100v100H700z"/><path fill="#f4f4f5" d="M0 100h100v100H0z"/><path fill="#b9babd" d="M100 100h100v100H100z"/><path fill="#c2b7ac" d="M200 100h100v100H200z"/><path fill="#c8b5a8" d="M300 100h100v100H300z"/><path fill="#e9dbcf" d="M400 100h100v100H400z"/><path fill="#f8ecd9" d="M500 100h100v100H500z"/><path fill="#fbefd8" d="M600 100h100v100H600z"/><path fill="#fffbf1" d="M700 100h100v100H700z"/><path fill="#eceff0" d="M0 200h100v100H0z"/><path fill="#998e8e" d="M100 200h100v100H100z"/><path fill="#8e6762" d="M200 200h100v100H200z"/><path fill="#906667" d="M300 200h100v100H300z"/><path fill="#b29987" d="M400 200h100v100H400z"/><path fill="#e6dad1" d="M500 200h100v100H500z"/><path fill="#c5c0be" d="M600 200h100v100H600z"/><path fill="#a4a299" d="M700 200h100v100H700z"/><path fill="#cfd0d2" d="M0 300h100v100H0z"/><path fill="#9e9595" d="M100 300h100v100H100z"/><path fill="#939192" d="M200 300h100v100H200z"/><path fill="#5c666d" d="M300 300h100v100H300z"/><path fill="#8c6f65" d="M400 300h100v100H400z"/><path fill="#b2a69a" d="M500 300h100v100H500z"/><path fill="#979693" d="M600 300h100v100H600z"/><path fill="#54524c" d="M700 300h100v100H700z"/><path fill="#c8c9ca" d="M0 400h100v100H0z"/><path fill="#c8c9ce" d="M100 400h100v100H100z"/><path fill="#8d9187" d="M200 400h100v100H200z"/><path fill="#5d615f" d="M300 400h100v100H300z"/><path fill="#7d5f4b" d="M400 400h100v100H400z"/><path fill="#988b70" d="M500 400h100v100H500z"/><path fill="#c2baad" d="M600 400h100v100H600z"/><path fill="#a5a197" d="M700 400h100v100H700z"/><path fill="#fefefe" d="M0 500h100v100H0z"/><path fill="#f5f6f5" d="M100 500h100v100H100z"/><path fill="#bdc1af" d="M200 500h100v100H200z"/><path fill="#bbb7a9" d="M300 500h100v100H300z"/><path fill="#a7a493" d="M400 500h100v100H400z"/><path fill="#aeb092" d="M500 500h100v100H500z"/><path fill="#e5e7d7" d="M600 500h100v100H600z"/><path fill="#eaebed" d="M700 500h100v100H700z"/></svg>