<svg xmlns="http://www.w3.org/2000/svg" viewBox="0 0 800 400"><defs/><path fill="#d8cfab" d="M0 0h100v100H0z"/><path fill="#a8997b" d="M100 0h100v100H100z"/><path fill="#beb298" d="M200 0h100v100H200z"/><path fill="#b7a993" d="M300 0h100v100H300z"/><path fill="#958a75" d="M400 0h100v100H400z"/><path fill="#8f816a" d="M500 0h100v100H500z"/><path fill="#7d6d56" d="M600 0h100v100H600z"/><path fill="#645440" d="M700 0h100v100H700z"/><path fill="#c2b898" d="M0 100h100v100H0z"/><path fill="#827b61" d="M100 100h100v100H100z"/><path fill="#b6a383" d="M200 100h100v100H200z"/><path fill="#a49377" d="M300 100h100v100H300z"/><path fill="#897b6a" d="M400 100h100v100H400z"/><path fill="#846d5d" d="M500 100h100v100H500z"/><path fill="#6f5a4a" d="M600 100h100v100H600z"/><path fill="#504032" d="M700 100h100v100H700z"/><path fill="#ac9e7d" d="M0 200h100v100H0z"/><path fill="#73624a" d="M100 200h100v100H100z"/><path fill="#8e785f" d="M200 200h100v100H200z"/><path fill="#8b7d64" d="M300 200h100v100H300z"/><path fill="#7c6d5d" d="M400 200h100v100H400z"/><path fill="#655243" d="M500 200h100v100H500z"/><path fill="#413027" d="M600 200h100v100H600z"/><path fill="#49392e" d="M700 200h100v100H700z"/><path fill="#a79674" d="M0 300h100v100H0z"/><path fill="#8c7b60" d="M100 300h100v100H100z"/><path fill="#9b8c75" d="M200 300h100v100H200z"/><path fill="#9c8f75" d="M300 300h100v100H300z"/><path fill="#877860" d="M400 300h100v100H400z"/><path fill="#655440" d="M500 300h100v100H500z"/><path fill="#4a3b2e" d="M600 300h100v100H600z"/><path fill="#3e3126" d="M700 300h100v100H700z"/></svg>