<svg xmlns="http://www.w3.org/2000/svg" viewBox="0 0 800 1400"><defs/><path fill="#fefefe" d="M0 0h100v100H0zm100 0h100v100H100zm100 0h100v100H200zm100 0h100v100H300zm100 0h100v100H400zm100 0h100v100H500zm100 0h100v100H600zm100 0h100v100H700zM0 100h100v100H0z"/><path fill="#fdfdfd" d="M100 100h100v100H100z"/><path fill="#fefefe" d="M200 100h100v100H200zm100 0h100v100H300zm100 0h100v100H400z"/><path fill="#fefdfd" d="M500 100h100v100H500z"/><path fill="#fefefe" d="M600 100h100v100H600zm100 0h100v100H700zM0 200h100v100H0z"/><path fill="#fffffe" d="M100 200h100v100H100z"/><path fill="#fefefd" d="M200 200h100v100H200z"/><path fill="#fff" d="M300 200h100v100H300z"/><path fill="#fefefe" d="M400 200h100v100H400z"/><path fill="#fff" d="M500 200h100v100H500z"/><path fill="#fefefd" d="M600 200h100v100H600z"/><path fill="#fefefe" d="M700 200h100v100H700z"/><path fill="#e7dfdf" d="M0 300h100v100H0z"/><path fill="#dfd6d7" d="M100 300h100v100H100z"/><path fill="#e9e7e8" d="M200 300h100v100H200z"/><path fill="#dccfd1" d="M300 300h100v100H300z"/><path fill="#e8e7e8" d="M400 300h100v100H400z"/><path fill="#dacccc" d="M500 300h100v100H500z"/><path fill="#e9f1f4" d="M600 300h100v100H600z"/><path fill="#dce7eb" d="M700 300h100v100H700z"/><path fill="#e8e0e1" d="M0 400h100v100H0z"/><path fill="#ded5d8" d="M100 400h100v100H100z"/><path fill="#e7e7ea" d="M200 400h100v100H200z"/><path fill="#dacfd2" d="M300 400h100v100H300z"/><path fill="#e5e6e8" d="M400 400h100v100H400z"/><path fill="#ded2d3" d="M500 400h100v100H500z"/><path fill="#e9f1f5" d="M600 400h100v100H600z"/><path fill="#dfebf1" d="M700 400h100v100H700z"/><path fill="#f3f2f0" d="M0 500h100v100H0z"/><path fill="#e5e5df" d="M100 500h100v100H100z"/><path fill="#f2f4f1" d="M200 500h100v100H200z"/><path fill="#e3e4dd" d="M300 500h100v100H300z"/><path fill="#f1edef" d="M400 500h100v100H400z"/><path fill="#e0d2d3" d="M500 500h100v100H500z"/><path fill="#f1f7fa" d="M600 500h100v100H600z"/><path fill="#e1ecf1" d="M700 500h100v100H700z"/><path fill="#f3f3f3" d="M0 600h100v100H0z"/><path fill="#e2e5e5" d="M100 600h100v100H100z"/><path fill="#f0f4f4" d="M200 600h100v100H200z"/><path fill="#e0e3e3" d="M300 600h100v100H300z"/><path fill="#e8e9eb" d="M400 600h100v100H400z"/><path fill="#e0d5d7" d="M500 600h100v100H500z"/><path fill="#e8f1f5" d="M600 600h100v100H600z"/><path fill="#e2edf1" d="M700 600h100v100H700z"/><path fill="#deddde" d="M0 700h100v100H0z"/><path fill="#c8c7c8" d="M100 700h100v100H100z"/><path fill="#e5e7e8" d="M200 700h100v100H200z"/><path fill="#c0c0c2" d="M300 700h100v100H300z"/><path fill="#f3f3f1" d="M400 700h100v100H400z"/><path fill="#e7e6df" d="M500 700h100v100H500z"/><path fill="#f9fcff" d="M600 700h100v100H600z"/><path fill="#edf3fa" d="M700 700h100v100H700z"/><path fill="#f0f0f0" d="M0 800h100v100H0z"/><path fill="#e4e6e7" d="M100 800h100v100H100z"/><path fill="#eaedef" d="M200 800h100v100H200z"/><path fill="#e1e1e3" d="M300 800h100v100H300z"/><path fill="#e9eded" d="M400 800h100v100H400z"/><path fill="#e0e1e2" d="M500 800h100v100H500z"/><path fill="#f0f3e3" d="M600 800h100v100H600z"/><path fill="#dce1b9" d="M700 800h100v100H700z"/><path fill="#faf7f6" d="M0 900h100v100H0z"/><path fill="#f2edee" d="M100 900h100v100H100z"/><path fill="#eceeed" d="M200 900h100v100H200z"/><path fill="#dfdedb" d="M300 900h100v100H300z"/><path fill="#eff2f4" d="M400 900h100v100H400z"/><path fill="#d2d0d2" d="M500 900h100v100H500z"/><path fill="#f5d168" d="M600 900h100v100H600z"/><path fill="#e6c847" d="M700 900h100v100H700z"/><path fill="#f4f1f1" d="M0 1000h100v100H0z"/><path fill="#e9e6e7" d="M100 1000h100v100H100z"/><path fill="#eaeef0" d="M200 1000h100v100H200z"/><path fill="#d8d9da" d="M300 1000h100v100H300z"/><path fill="#ebf0f2" d="M400 1000h100v100H400z"/><path fill="#ebebec" d="M500 1000h100v100H500z"/><path fill="#e7c895" d="M600 1000h100v100H600z"/><path fill="#cda873" d="M700 1000h100v100H700z"/><path fill="#fff" d="M0 1100h100v100H0zm100 0h100v100H100zm100 0h100v100H200z"/><path fill="#feffff" d="M300 1100h100v100H300z"/><path fill="#fffefe" d="M400 1100h100v100H400z"/><path fill="#fff" d="M500 1100h100v100H500z"/><path fill="#fffefd" d="M600 1100h100v100H600z"/><path fill="#fef9f3" d="M700 1100h100v100H700z"/><path fill="#fefefe" d="M0 1200h100v100H0z"/><path fill="#fdfdfd" d="M100 1200h100v100H100z"/><path fill="#fdfefe" d="M200 1200h100v100H200z"/><path fill="#fdfdfd" d="M300 1200h100v100H300zm100 0h100v100H400zm100 0h100v100H500zm100 0h100v100H600z"/><path fill="#feffff" d="M700 1200h100v100H700z"/><path fill="#fefefe" d="M0 1300h100v100H0zm100 0h100v100H100zm100 0h100v100H200zm100 0h100v100H300zm100 0h100v100H400zm100 0h100v100H500zm100 0h100v100H600zm100 0h100v100H700z"/></svg>