<svg xmlns="http://www.w3.org/2000/svg" viewBox="0 0 800 500"><defs/><path fill="#c9cbb9" d="M0 0h100v100H0z"/><path fill="#a1b5bd" d="M100 0h100v100H100z"/><path fill="#cdd2c8" d="M200 0h100v100H200z"/><path fill="#bfc1ca" d="M300 0h100v100H300z"/><path fill="#adadc5" d="M400 0h100v100H400z"/><path fill="#b1afa7" d="M500 0h100v100H500z"/><path fill="#b0ab9a" d="M600 0h100v100H600z"/><path fill="#c1c7c4" d="M700 0h100v100H700z"/><path fill="#ccc29b" d="M0 100h100v100H0z"/><path fill="#c1b39f" d="M100 100h100v100H100z"/><path fill="#cacebd" d="M200 100h100v100H200z"/><path fill="#b7b0b5" d="M300 100h100v100H300z"/><path fill="#ada7ba" d="M400 100h100v100H400z"/><path fill="#c0bdbb" d="M500 100h100v100H500z"/><path fill="#b1aaa6" d="M600 100h100v100H600z"/><path fill="#abb5b7" d="M700 100h100v100H700z"/><path fill="#b2c49d" d="M0 200h100v100H0z"/><path fill="#aac0a7" d="M100 200h100v100H100z"/><path fill="#c9b9bb" d="M200 200h100v100H200z"/><path fill="#c0c3c5" d="M300 200h100v100H300z"/><path fill="#b7bbbd" d="M400 200h100v100H400z"/><path fill="#a4a3b2" d="M500 200h100v100H500z"/><path fill="#9da2ae" d="M600 200h100v100H600z"/><path fill="#9ba1a2" d="M700 200h100v100H700z"/><path fill="#b8b9ae" d="M0 300h100v100H0z"/><path fill="#a2948f" d="M100 300h100v100H100z"/><path fill="#ad9a90" d="M200 300h100v100H200z"/><path fill="#bfb5b3" d="M300 300h100v100H300z"/><path fill="#94999c" d="M400 300h100v100H400z"/><path fill="#987476" d="M500 300h100v100H500z"/><path fill="#958382" d="M600 300h100v100H600z"/><path fill="#929392" d="M700 300h100v100H700z"/><path fill="#cdb7a4" d="M0 400h100v100H0z"/><path fill="#b48e7a" d="M100 400h100v100H100z"/><path fill="#9e9a8d" d="M200 400h100v100H200z"/><path fill="#808289" d="M300 400h100v100H300z"/><path fill="#828f93" d="M400 400h100v100H400z"/><path fill="#706967" d="M500 400h100v100H500z"/><path fill="#6a7173" d="M600 400h100v100H600z"/><path fill="#5c6d77" d="M700 400h100v100H700z"/></svg>