<svg xmlns="http://www.w3.org/2000/svg" viewBox="0 0 800 500"><defs/><path fill="#b67339" d="M0 0h100v100H0z"/><path fill="#c97933" d="M100 0h100v100H100z"/><path fill="#aa713e" d="M200 0h100v100H200z"/><path fill="#ca7b27" d="M300 0h100v100H300z"/><path fill="#cc7e2e" d="M400 0h100v100H400z"/><path fill="#da872d" d="M500 0h100v100H500z"/><path fill="#aa7240" d="M600 0h100v100H600z"/><path fill="#ec8e30" d="M700 0h100v100H700z"/><path fill="#b7832c" d="M0 100h100v100H0z"/><path fill="#a3763b" d="M100 100h100v100H100z"/><path fill="#404773" d="M200 100h100v100H200z"/><path fill="#7e5e3b" d="M300 100h100v100H300z"/><path fill="#89583d" d="M400 100h100v100H400z"/><path fill="#5b6833" d="M500 100h100v100H500z"/><path fill="#2f427a" d="M600 100h100v100H600z"/><path fill="#b08159" d="M700 100h100v100H700z"/><path fill="#ae7931" d="M0 200h100v100H0z"/><path fill="#a58c74" d="M100 200h100v100H100z"/><path fill="#ab775c" d="M200 200h100v100H200z"/><path fill="#a67a48" d="M300 200h100v100H300z"/><path fill="#66443c" d="M400 200h100v100H400z"/><path fill="#445d31" d="M500 200h100v100H500z"/><path fill="#907a54" d="M600 200h100v100H600z"/><path fill="#8c6c4c" d="M700 200h100v100H700z"/><path fill="#54703f" d="M0 300h100v100H0z"/><path fill="#808960" d="M100 300h100v100H100z"/><path fill="#b37460" d="M200 300h100v100H200z"/><path fill="#997a67" d="M300 300h100v100H300z"/><path fill="#805d46" d="M400 300h100v100H400z"/><path fill="#5b3743" d="M500 300h100v100H500z"/><path fill="#ce6a36" d="M600 300h100v100H600z"/><path fill="#996953" d="M700 300h100v100H700z"/><path fill="#293842" d="M0 400h100v100H0z"/><path fill="#644b2d" d="M100 400h100v100H100z"/><path fill="#634153" d="M200 400h100v100H200z"/><path fill="#3b3f5f" d="M300 400h100v100H300z"/><path fill="#925a30" d="M400 400h100v100H400z"/><path fill="#65442f" d="M500 400h100v100H500z"/><path fill="#785645" d="M600 400h100v100H600z"/><path fill="#683d3a" d="M700 400h100v100H700z"/></svg>