<svg xmlns="http://www.w3.org/2000/svg" viewBox="0 0 800 800"><defs/><path fill="#e6e2e3" d="M0 0h100v100H0z"/><path fill="#b4adad" d="M100 0h100v100H100z"/><path fill="#e5e1e1" d="M200 0h100v100H200z"/><path fill="#edecec" d="M300 0h100v100H300z"/><path fill="#e8e7e7" d="M400 0h100v100H400z"/><path fill="#eeeded" d="M500 0h100v100H500z"/><path fill="#e5e4e5" d="M600 0h100v100H600z"/><path fill="#edebec" d="M700 0h100v100H700z"/><path fill="#dfd8d8" d="M0 100h100v100H0z"/><path fill="#b2a2a2" d="M100 100h100v100H100z"/><path fill="#f0e9e8" d="M200 100h100v100H200z"/><path fill="#f8f7f8" d="M300 100h100v100H300z"/><path fill="#eae9e8" d="M400 100h100v100H400z"/><path fill="#e8e7e6" d="M500 100h100v100H500z"/><path fill="#f7f7f6" d="M600 100h100v100H600z"/><path fill="#f5f5f5" d="M700 100h100v100H700z"/><path fill="#b4b5b5" d="M0 200h100v100H0z"/><path fill="#7e8181" d="M100 200h100v100H100z"/><path fill="#fff" d="M200 200h100v100H200zm100 0h100v100H300z"/><path fill="#d6d7d6" d="M400 200h100v100H400z"/><path fill="#c4c4c5" d="M500 200h100v100H500z"/><path fill="#fdfdfe" d="M600 200h100v100H600z"/><path fill="#fcfcfc" d="M700 200h100v100H700z"/><path fill="#b2b1b1" d="M0 300h100v100H0z"/><path fill="#807f7f" d="M100 300h100v100H100z"/><path fill="#fff" d="M200 300h100v100H200z"/><path fill="#fafafa" d="M300 300h100v100H300z"/><path fill="#cacaca" d="M400 300h100v100H400z"/><path fill="#c9c9c9" d="M500 300h100v100H500z"/><path fill="#fffefe" d="M600 300h100v100H600z"/><path fill="#f5f5f5" d="M700 300h100v100H700z"/><path fill="#b0b0b0" d="M0 400h100v100H0z"/><path fill="#787877" d="M100 400h100v100H100z"/><path fill="#cccccd" d="M200 400h100v100H200z"/><path fill="#a5a5a6" d="M300 400h100v100H300z"/><path fill="#c3c3c3" d="M400 400h100v100H400z"/><path fill="#d4d4d4" d="M500 400h100v100H500z"/><path fill="#fdfdfd" d="M600 400h100v100H600z"/><path fill="#fafafa" d="M700 400h100v100H700z"/><path fill="#d3d2d2" d="M0 500h100v100H0z"/><path fill="#aeaeae" d="M100 500h100v100H100z"/><path fill="#ebebeb" d="M200 500h100v100H200z"/><path fill="#dedede" d="M300 500h100v100H300z"/><path fill="#f6f6f6" d="M400 500h100v100H400z"/><path fill="#dcdcdc" d="M500 500h100v100H500z"/><path fill="#dbdbdc" d="M600 500h100v100H600z"/><path fill="#e2e2e3" d="M700 500h100v100H700z"/><path fill="#f5f5f5" d="M0 600h100v100H0z"/><path fill="#f8f8f8" d="M100 600h100v100H100z"/><path fill="#fdfdfd" d="M200 600h100v100H200z"/><path fill="#f5f5f5" d="M300 600h100v100H300z"/><path fill="#fbfbfb" d="M400 600h100v100H400z"/><path fill="#efefef" d="M500 600h100v100H500z"/><path fill="#e7e7e7" d="M600 600h100v100H600z"/><path fill="#f0f0f0" d="M700 600h100v100H700z"/><path fill="#fcfcfc" d="M0 700h100v100H0z"/><path fill="#fafafa" d="M100 700h100v100H100z"/><path fill="#fbfbfb" d="M200 700h100v100H200zm100 0h100v100H300z"/><path fill="#fcfcfc" d="M400 700h100v100H400z"/><path fill="#fffffe" d="M500 700h100v100H500z"/><path fill="#f8f8f8" d="M600 700h100v100H600zm100 0h100v100H700z"/></svg>