<svg xmlns="http://www.w3.org/2000/svg" viewBox="0 0 800 500"><defs/><path fill="#f1f2f3" d="M0 0h100v100H0z"/><path fill="#d6dcdf" d="M100 0h100v100H100z"/><path fill="#d9dee0" d="M200 0h100v100H200z"/><path fill="#dadfe2" d="M300 0h100v100H300z"/><path fill="#dadee0" d="M400 0h100v100H400z"/><path fill="#dbe0e3" d="M500 0h100v100H500z"/><path fill="#d7dde1" d="M600 0h100v100H600z"/><path fill="#eaeef0" d="M700 0h100v100H700z"/><path fill="#eff0f1" d="M0 100h100v100H0z"/><path fill="#bbcbc7" d="M100 100h100v100H100z"/><path fill="#c0cbca" d="M200 100h100v100H200z"/><path fill="#cfd0d7" d="M300 100h100v100H300z"/><path fill="#cdd0d6" d="M400 100h100v100H400z"/><path fill="#cacdd3" d="M500 100h100v100H500z"/><path fill="#bfc5cb" d="M600 100h100v100H600z"/><path fill="#e2e8ea" d="M700 100h100v100H700z"/><path fill="#eef0f1" d="M0 200h100v100H0z"/><path fill="#b7cac5" d="M100 200h100v100H100z"/><path fill="#afb8b9" d="M200 200h100v100H200z"/><path fill="#b4b6bb" d="M300 200h100v100H300z"/><path fill="#b4b7ba" d="M400 200h100v100H400z"/><path fill="#9e9fa3" d="M500 200h100v100H500z"/><path fill="#9ea3a7" d="M600 200h100v100H600z"/><path fill="#e3e6e9" d="M700 200h100v100H700z"/><path fill="#e8eeee" d="M0 300h100v100H0z"/><path fill="#abc1bd" d="M100 300h100v100H100z"/><path fill="#989fa1" d="M200 300h100v100H200z"/><path fill="#adb0b5" d="M300 300h100v100H300zm100 0h100v100H400z"/><path fill="#afb1b5" d="M500 300h100v100H500z"/><path fill="#9ca0a4" d="M600 300h100v100H600z"/><path fill="#cfd3d4" d="M700 300h100v100H700z"/><path fill="#ebeff0" d="M0 400h100v100H0z"/><path fill="#c0cccf" d="M100 400h100v100H100z"/><path fill="#c5cbd0" d="M200 400h100v100H200z"/><path fill="#cbd0d5" d="M300 400h100v100H300z"/><path fill="#c7cdd1" d="M400 400h100v100H400z"/><path fill="#c8ced2" d="M500 400h100v100H500z"/><path fill="#b9bfc3" d="M600 400h100v100H600z"/><path fill="#d5d9db" d="M700 400h100v100H700z"/></svg>