<svg xmlns="http://www.w3.org/2000/svg" viewBox="0 0 800 500"><defs/><path fill="#c1cddf" d="M0 0h100v100H0z"/><path fill="#b6bed0" d="M100 0h100v100H100z"/><path fill="#bac7d8" d="M200 0h100v100H200z"/><path fill="#bfcadb" d="M300 0h100v100H300z"/><path fill="#c1c7d7" d="M400 0h100v100H400z"/><path fill="#b8bfd1" d="M500 0h100v100H500z"/><path fill="#bdc4d8" d="M600 0h100v100H600z"/><path fill="#9d97a1" d="M700 0h100v100H700z"/><path fill="#bec9da" d="M0 100h100v100H0z"/><path fill="#a1a6b5" d="M100 100h100v100H100z"/><path fill="#94b2bf" d="M200 100h100v100H200z"/><path fill="#abbfca" d="M300 100h100v100H300z"/><path fill="#c7c4cd" d="M400 100h100v100H400z"/><path fill="#b3b7c3" d="M500 100h100v100H500z"/><path fill="#b3b9c9" d="M600 100h100v100H600z"/><path fill="#97929b" d="M700 100h100v100H700z"/><path fill="#b5bfcf" d="M0 200h100v100H0z"/><path fill="#a3a6b5" d="M100 200h100v100H100z"/><path fill="#babdcc" d="M200 200h100v100H200z"/><path fill="#b9becd" d="M300 200h100v100H300z"/><path fill="#b6bdcd" d="M400 200h100v100H400z"/><path fill="#aaacbc" d="M500 200h100v100H500z"/><path fill="#afb5c1" d="M600 200h100v100H600z"/><path fill="#878783" d="M700 200h100v100H700z"/><path fill="#a8aebd" d="M0 300h100v100H0z"/><path fill="#989ead" d="M100 300h100v100H100z"/><path fill="#abb8c8" d="M200 300h100v100H200z"/><path fill="#b1b1bd" d="M300 300h100v100H300z"/><path fill="#afafb6" d="M400 300h100v100H400z"/><path fill="#a8a7a9" d="M500 300h100v100H500z"/><path fill="#a3a7b2" d="M600 300h100v100H600z"/><path fill="#8c8884" d="M700 300h100v100H700z"/><path fill="#a9b2c1" d="M0 400h100v100H0z"/><path fill="#a4aec3" d="M100 400h100v100H100z"/><path fill="#a2aec3" d="M200 400h100v100H200z"/><path fill="#a8a8b2" d="M300 400h100v100H300z"/><path fill="#a7a3ad" d="M400 400h100v100H400z"/><path fill="#9d9999" d="M500 400h100v100H500z"/><path fill="#96959e" d="M600 400h100v100H600z"/><path fill="#888187" d="M700 400h100v100H700z"/></svg>