<svg xmlns="http://www.w3.org/2000/svg" viewBox="0 0 800 600"><defs/><path fill="#bf9b89" d="M0 0h100v100H0z"/><path fill="#97685f" d="M100 0h100v100H100z"/><path fill="#c5c2b4" d="M200 0h100v100H200z"/><path fill="#d5c3b5" d="M300 0h100v100H300z"/><path fill="#d0c3b6" d="M400 0h100v100H400z"/><path fill="#ccbeb4" d="M500 0h100v100H500z"/><path fill="#bdaea9" d="M600 0h100v100H600z"/><path fill="#c7beae" d="M700 0h100v100H700z"/><path fill="#b08c7b" d="M0 100h100v100H0z"/><path fill="#916956" d="M100 100h100v100H100z"/><path fill="#c1bfa8" d="M200 100h100v100H200z"/><path fill="#d0c1ad" d="M300 100h100v100H300z"/><path fill="#c0b8ab" d="M400 100h100v100H400z"/><path fill="#b9a9a4" d="M500 100h100v100H500z"/><path fill="#b29b9f" d="M600 100h100v100H600z"/><path fill="#ba877a" d="M700 100h100v100H700z"/><path fill="#a48273" d="M0 200h100v100H0z"/><path fill="#8f6d51" d="M100 200h100v100H100z"/><path fill="#ac8f76" d="M200 200h100v100H200z"/><path fill="#bb9c8b" d="M300 200h100v100H300z"/><path fill="#bdab9b" d="M400 200h100v100H400z"/><path fill="#a8a997" d="M500 200h100v100H500z"/><path fill="#b7a1a0" d="M600 200h100v100H600z"/><path fill="#b99282" d="M700 200h100v100H700z"/><path fill="#9d7463" d="M0 300h100v100H0z"/><path fill="#ae9489" d="M100 300h100v100H100z"/><path fill="#a68773" d="M200 300h100v100H200z"/><path fill="#857a61" d="M300 300h100v100H300z"/><path fill="#9e8a75" d="M400 300h100v100H400z"/><path fill="#ae9383" d="M500 300h100v100H500z"/><path fill="#b6b0a6" d="M600 300h100v100H600z"/><path fill="#bfb4a5" d="M700 300h100v100H700z"/><path fill="#b59a8b" d="M0 400h100v100H0z"/><path fill="#c9c2b9" d="M100 400h100v100H100z"/><path fill="#a9a7a4" d="M200 400h100v100H200z"/><path fill="#9da195" d="M300 400h100v100H300z"/><path fill="#aaa39b" d="M400 400h100v100H400z"/><path fill="#a78a67" d="M500 400h100v100H500z"/><path fill="#bfb5a6" d="M600 400h100v100H600z"/><path fill="#c3b3a6" d="M700 400h100v100H700z"/><path fill="#c7bbae" d="M0 500h100v100H0z"/><path fill="#c4c6c2" d="M100 500h100v100H100z"/><path fill="#ab9287" d="M200 500h100v100H200z"/><path fill="#a08074" d="M300 500h100v100H300z"/><path fill="#a48a7f" d="M400 500h100v100H400z"/><path fill="#956959" d="M500 500h100v100H500z"/><path fill="#c2b7b2" d="M600 500h100v100H600z"/><path fill="#beb4aa" d="M700 500h100v100H700z"/></svg>