<svg xmlns="http://www.w3.org/2000/svg" viewBox="0 0 800 400"><defs/><path fill="#baa79a" d="M0 0h100v100H0z"/><path fill="#bb9e91" d="M100 0h100v100H100z"/><path fill="#a29992" d="M200 0h100v100H200z"/><path fill="#8f959a" d="M300 0h100v100H300z"/><path fill="#c5b7b3" d="M400 0h100v100H400z"/><path fill="#7e878c" d="M500 0h100v100H500z"/><path fill="#aea6a8" d="M600 0h100v100H600z"/><path fill="#b7aba7" d="M700 0h100v100H700z"/><path fill="#c1ae97" d="M0 100h100v100H0z"/><path fill="#aa8b82" d="M100 100h100v100H100z"/><path fill="#837874" d="M200 100h100v100H200z"/><path fill="#6c6e77" d="M300 100h100v100H300z"/><path fill="#b3a2ae" d="M400 100h100v100H400z"/><path fill="#626473" d="M500 100h100v100H500z"/><path fill="#9d8d82" d="M600 100h100v100H600z"/><path fill="#b6a29a" d="M700 100h100v100H700z"/><path fill="#b09991" d="M0 200h100v100H0z"/><path fill="#8b7972" d="M100 200h100v100H100z"/><path fill="#898a8b" d="M200 200h100v100H200z"/><path fill="#a47e83" d="M300 200h100v100H300z"/><path fill="#ae909b" d="M400 200h100v100H400z"/><path fill="#a27a84" d="M500 200h100v100H500z"/><path fill="#a78669" d="M600 200h100v100H600z"/><path fill="#a89788" d="M700 200h100v100H700z"/><path fill="#b49a8f" d="M0 300h100v100H0z"/><path fill="#a3877a" d="M100 300h100v100H100z"/><path fill="#9c8a80" d="M200 300h100v100H200z"/><path fill="#dab4a6" d="M300 300h100v100H300z"/><path fill="#e1baa9" d="M400 300h100v100H400z"/><path fill="#c9957e" d="M500 300h100v100H500z"/><path fill="#a87864" d="M600 300h100v100H600z"/><path fill="#b79d91" d="M700 300h100v100H700z"/></svg>