<svg xmlns="http://www.w3.org/2000/svg" viewBox="0 0 800 400"><defs/><path fill="#f5f5f5" d="M0 0h100v100H0z"/><path fill="#e3e3e3" d="M100 0h100v100H100z"/><path fill="#ebebeb" d="M200 0h100v100H200z"/><path fill="#e9e9e9" d="M300 0h100v100H300z"/><path fill="#e4e4e4" d="M400 0h100v100H400z"/><path fill="#e8e8e8" d="M500 0h100v100H500z"/><path fill="#dfdfdf" d="M600 0h100v100H600z"/><path fill="#d1d1d1" d="M700 0h100v100H700z"/><path fill="#f2f2f2" d="M0 100h100v100H0z"/><path fill="#e4e4e4" d="M100 100h100v100H100z"/><path fill="#ececec" d="M200 100h100v100H200z"/><path fill="#dcdcdc" d="M300 100h100v100H300z"/><path fill="#e8e8e8" d="M400 100h100v100H400z"/><path fill="#f6f6f6" d="M500 100h100v100H500z"/><path fill="#c2c2c2" d="M600 100h100v100H600z"/><path fill="#d1d1d1" d="M700 100h100v100H700z"/><path fill="#e9e9e9" d="M0 200h100v100H0z"/><path fill="#e7e7e7" d="M100 200h100v100H100z"/><path fill="#cfcfcf" d="M200 200h100v100H200z"/><path fill="#bfbfbf" d="M300 200h100v100H300z"/><path fill="#cecece" d="M400 200h100v100H400z"/><path fill="#ececec" d="M500 200h100v100H500z"/><path fill="#c6c6c6" d="M600 200h100v100H600z"/><path fill="#c8c8c8" d="M700 200h100v100H700z"/><path fill="#d7d7d7" d="M0 300h100v100H0z"/><path fill="#d0d0d0" d="M100 300h100v100H100z"/><path fill="#c7c7c7" d="M200 300h100v100H200z"/><path fill="#ddd" d="M300 300h100v100H300z"/><path fill="#dfdfdf" d="M400 300h100v100H400z"/><path fill="#d9d9d9" d="M500 300h100v100H500z"/><path fill="#d6d6d6" d="M600 300h100v100H600z"/><path fill="#cecece" d="M700 300h100v100H700z"/></svg>