<svg xmlns="http://www.w3.org/2000/svg" viewBox="0 0 800 500"><defs/><path fill="#25295d" d="M0 0h100v100H0z"/><path fill="#473c64" d="M100 0h100v100H100z"/><path fill="#564e7c" d="M200 0h100v100H200z"/><path fill="#595490" d="M300 0h100v100H300z"/><path fill="#c4aac7" d="M400 0h100v100H400z"/><path fill="#f9d5e3" d="M500 0h100v100H500z"/><path fill="#7671a3" d="M600 0h100v100H600z"/><path fill="#4e4d87" d="M700 0h100v100H700z"/><path fill="#37355e" d="M0 100h100v100H0z"/><path fill="#413b65" d="M100 100h100v100H100z"/><path fill="#464173" d="M200 100h100v100H200z"/><path fill="#564c85" d="M300 100h100v100H300z"/><path fill="#c7adca" d="M400 100h100v100H400z"/><path fill="#eecfdc" d="M500 100h100v100H500z"/><path fill="#7e79a2" d="M600 100h100v100H600z"/><path fill="#484a7f" d="M700 100h100v100H700z"/><path fill="#252752" d="M0 200h100v100H0z"/><path fill="#6c4f75" d="M100 200h100v100H100z"/><path fill="#9888b0" d="M200 200h100v100H200z"/><path fill="#7972a5" d="M300 200h100v100H300z"/><path fill="#c8aece" d="M400 200h100v100H400z"/><path fill="#9e7a95" d="M500 200h100v100H500z"/><path fill="#806c85" d="M600 200h100v100H600z"/><path fill="#827595" d="M700 200h100v100H700z"/><path fill="#1e2049" d="M0 300h100v100H0z"/><path fill="#664263" d="M100 300h100v100H100z"/><path fill="#94678e" d="M200 300h100v100H200z"/><path fill="#5b4a74" d="M300 300h100v100H300z"/><path fill="#825e84" d="M400 300h100v100H400z"/><path fill="#6c4063" d="M500 300h100v100H500z"/><path fill="#674e66" d="M600 300h100v100H600z"/><path fill="#94799e" d="M700 300h100v100H700z"/><path fill="#1d1b3b" d="M0 400h100v100H0z"/><path fill="#211f43" d="M100 400h100v100H100z"/><path fill="#352750" d="M200 400h100v100H200z"/><path fill="#402e54" d="M300 400h100v100H300z"/><path fill="#3f365e" d="M400 400h100v100H400z"/><path fill="#2c1f49" d="M500 400h100v100H500z"/><path fill="#20213c" d="M600 400h100v100H600z"/><path fill="#1c213f" d="M700 400h100v100H700z"/></svg>