<svg xmlns="http://www.w3.org/2000/svg" viewBox="0 0 800 600"><defs/><path fill="#e6e5e7" d="M0 0h100v100H0z"/><path fill="#edecee" d="M100 0h100v100H100z"/><path fill="#efeef0" d="M200 0h100v100H200z"/><path fill="#f0f0f2" d="M300 0h100v100H300z"/><path fill="#efeff0" d="M400 0h100v100H400z"/><path fill="#eeeeef" d="M500 0h100v100H500zm100 0h100v100H600z"/><path fill="#efeff0" d="M700 0h100v100H700z"/><path fill="#e0e0e2" d="M0 100h100v100H0z"/><path fill="#dcdbde" d="M100 100h100v100H100z"/><path fill="#e8e8ea" d="M200 100h100v100H200z"/><path fill="#e5e5e7" d="M300 100h100v100H300z"/><path fill="#dbdbdc" d="M400 100h100v100H400z"/><path fill="#dcdcdd" d="M500 100h100v100H500z"/><path fill="#dedee0" d="M600 100h100v100H600z"/><path fill="#e5e5e7" d="M700 100h100v100H700z"/><path fill="#e0dfe1" d="M0 200h100v100H0z"/><path fill="#dad9dc" d="M100 200h100v100H100z"/><path fill="#e0dfe1" d="M200 200h100v100H200z"/><path fill="#dededf" d="M300 200h100v100H300z"/><path fill="#d0d1d2" d="M400 200h100v100H400z"/><path fill="#dadadb" d="M500 200h100v100H500z"/><path fill="#d1d1d1" d="M600 200h100v100H600z"/><path fill="#dbdbdc" d="M700 200h100v100H700z"/><path fill="#dbd9dc" d="M0 300h100v100H0z"/><path fill="#d8d6d9" d="M100 300h100v100H100z"/><path fill="#d3d3d4" d="M200 300h100v100H200z"/><path fill="#cbcbcc" d="M300 300h100v100H300z"/><path fill="#d6d6d7" d="M400 300h100v100H400z"/><path fill="#d5d5d6" d="M500 300h100v100H500z"/><path fill="#cfcfcf" d="M600 300h100v100H600z"/><path fill="#d9d9db" d="M700 300h100v100H700z"/><path fill="#d7d6d8" d="M0 400h100v100H0zm100 0h100v100H100z"/><path fill="#e0e0e2" d="M200 400h100v100H200z"/><path fill="#dfdee0" d="M300 400h100v100H300zm100 0h100v100H400z"/><path fill="#d8d9da" d="M500 400h100v100H500z"/><path fill="#d3d3d4" d="M600 400h100v100H600z"/><path fill="#dadadc" d="M700 400h100v100H700z"/><path fill="#e8e6e8" d="M0 500h100v100H0z"/><path fill="#e7e7e8" d="M100 500h100v100H100z"/><path fill="#e9e9ea" d="M200 500h100v100H200z"/><path fill="#ebeaec" d="M300 500h100v100H300z"/><path fill="#e8e7ea" d="M400 500h100v100H400z"/><path fill="#e5e5e6" d="M500 500h100v100H500z"/><path fill="#e7e8e9" d="M600 500h100v100H600z"/><path fill="#dcdbdd" d="M700 500h100v100H700z"/></svg>