<svg xmlns="http://www.w3.org/2000/svg" viewBox="0 0 800 400"><defs/><path fill="#d2b7c1" d="M0 0h100v100H0z"/><path fill="#c4aaad" d="M100 0h100v100H100z"/><path fill="#d5c7bc" d="M200 0h100v100H200z"/><path fill="#d7d0c4" d="M300 0h100v100H300z"/><path fill="#cabab1" d="M400 0h100v100H400z"/><path fill="#b6918b" d="M500 0h100v100H500z"/><path fill="#b89e9e" d="M600 0h100v100H600z"/><path fill="#ccb7b3" d="M700 0h100v100H700z"/><path fill="#cbaebc" d="M0 100h100v100H0z"/><path fill="#c0a998" d="M100 100h100v100H100z"/><path fill="#c8a996" d="M200 100h100v100H200z"/><path fill="#c3bcb2" d="M300 100h100v100H300z"/><path fill="#b79996" d="M400 100h100v100H400z"/><path fill="#a1737c" d="M500 100h100v100H500z"/><path fill="#a8aaaf" d="M600 100h100v100H600z"/><path fill="#aa9b96" d="M700 100h100v100H700z"/><path fill="#c5a8b3" d="M0 200h100v100H0z"/><path fill="#b4898d" d="M100 200h100v100H100z"/><path fill="#b17a83" d="M200 200h100v100H200z"/><path fill="#ba9195" d="M300 200h100v100H300z"/><path fill="#ad7a84" d="M400 200h100v100H400z"/><path fill="#a5696d" d="M500 200h100v100H500z"/><path fill="#916a75" d="M600 200h100v100H600z"/><path fill="#9c7d83" d="M700 200h100v100H700z"/><path fill="#bc929f" d="M0 300h100v100H0z"/><path fill="#b36981" d="M100 300h100v100H100z"/><path fill="#b86f85" d="M200 300h100v100H200z"/><path fill="#b46a81" d="M300 300h100v100H300z"/><path fill="#b66c81" d="M400 300h100v100H400z"/><path fill="#cd8f87" d="M500 300h100v100H500z"/><path fill="#b17371" d="M600 300h100v100H600z"/><path fill="#99646d" d="M700 300h100v100H700z"/></svg>