<svg xmlns="http://www.w3.org/2000/svg" viewBox="0 0 800 600"><defs/><path fill="#f2f9f8" d="M0 0h100v100H0z"/><path fill="#fbf8f0" d="M100 0h100v100H100z"/><path fill="#fcf9eb" d="M200 0h100v100H200z"/><path fill="#f5f8f7" d="M300 0h100v100H300z"/><path fill="#fff" d="M400 0h100v100H400z"/><path fill="#fdfdfd" d="M500 0h100v100H500z"/><path fill="#fcfcfc" d="M600 0h100v100H600z"/><path fill="#fff" d="M700 0h100v100H700z"/><path fill="#c0d2d1" d="M0 100h100v100H0z"/><path fill="#efd18d" d="M100 100h100v100H100z"/><path fill="#f7dd89" d="M200 100h100v100H200z"/><path fill="#eef2f0" d="M300 100h100v100H300z"/><path fill="#ebe7e0" d="M400 100h100v100H400z"/><path fill="#f1eeea" d="M500 100h100v100H500z"/><path fill="#eae7e5" d="M600 100h100v100H600z"/><path fill="#fbfcfc" d="M700 100h100v100H700z"/><path fill="#ccd7ca" d="M0 200h100v100H0z"/><path fill="#dfc893" d="M100 200h100v100H100z"/><path fill="#f4e5ab" d="M200 200h100v100H200z"/><path fill="#f9f4f6" d="M300 200h100v100H300z"/><path fill="#cbd8cd" d="M400 200h100v100H400z"/><path fill="#b3ccc3" d="M500 200h100v100H500z"/><path fill="#f9eed8" d="M600 200h100v100H600z"/><path fill="#f4f9f9" d="M700 200h100v100H700z"/><path fill="#dedebf" d="M0 300h100v100H0z"/><path fill="#efd6bd" d="M100 300h100v100H100z"/><path fill="#f1efeb" d="M200 300h100v100H200z"/><path fill="#e4ded8" d="M300 300h100v100H300z"/><path fill="#dedbcd" d="M400 300h100v100H400z"/><path fill="#d4d6c0" d="M500 300h100v100H500z"/><path fill="#c7c1c4" d="M600 300h100v100H600z"/><path fill="#e9ecf1" d="M700 300h100v100H700z"/><path fill="#e9dfc4" d="M0 400h100v100H0z"/><path fill="#f5e3d2" d="M100 400h100v100H100z"/><path fill="#f9f7f6" d="M200 400h100v100H200z"/><path fill="#faeee1" d="M300 400h100v100H300z"/><path fill="#f7ebe3" d="M400 400h100v100H400z"/><path fill="#efe6da" d="M500 400h100v100H500z"/><path fill="#d3d1d5" d="M600 400h100v100H600z"/><path fill="#f0f0f2" d="M700 400h100v100H700z"/><path fill="#f9f8f7" d="M0 500h100v100H0z"/><path fill="#fdfcfd" d="M100 500h100v100H100z"/><path fill="#fefdfd" d="M200 500h100v100H200z"/><path fill="#fefcfa" d="M300 500h100v100H300z"/><path fill="#fdfcfb" d="M400 500h100v100H400z"/><path fill="#fcfcfd" d="M500 500h100v100H500z"/><path fill="#fff" d="M600 500h100v100H600z"/><path fill="#fefefe" d="M700 500h100v100H700z"/></svg>