<svg xmlns="http://www.w3.org/2000/svg" viewBox="0 0 800 400"><defs/><path fill="#b9beb4" d="M0 0h100v100H0z"/><path fill="#a7a4a2" d="M100 0h100v100H100z"/><path fill="#b8bfba" d="M200 0h100v100H200z"/><path fill="#c7c8c3" d="M300 0h100v100H300z"/><path fill="#b7c2c2" d="M400 0h100v100H400z"/><path fill="#afc2c6" d="M500 0h100v100H500z"/><path fill="#c6cac7" d="M600 0h100v100H600z"/><path fill="#c4b9b8" d="M700 0h100v100H700z"/><path fill="#b0b4b4" d="M0 100h100v100H0z"/><path fill="#9e9aa7" d="M100 100h100v100H100z"/><path fill="#babdcc" d="M200 100h100v100H200z"/><path fill="#b2b8b9" d="M300 100h100v100H300z"/><path fill="#acb7b9" d="M400 100h100v100H400z"/><path fill="#b1c6d1" d="M500 100h100v100H500z"/><path fill="#bfc7c8" d="M600 100h100v100H600z"/><path fill="#c6bbbc" d="M700 100h100v100H700z"/><path fill="#aaaab1" d="M0 200h100v100H0z"/><path fill="#a8a0af" d="M100 200h100v100H100z"/><path fill="#c3c0c7" d="M200 200h100v100H200z"/><path fill="#a6a5a1" d="M300 200h100v100H300z"/><path fill="#bdbcbb" d="M400 200h100v100H400z"/><path fill="#c6c6c2" d="M500 200h100v100H500z"/><path fill="#b7b4b0" d="M600 200h100v100H600z"/><path fill="#c5b6ae" d="M700 200h100v100H700z"/><path fill="#97a1a2" d="M0 300h100v100H0z"/><path fill="#b0b4aa" d="M100 300h100v100H100z"/><path fill="#c1c8c6" d="M200 300h100v100H200z"/><path fill="#a7bace" d="M300 300h100v100H300z"/><path fill="#9fb4c5" d="M400 300h100v100H400z"/><path fill="#c7c0b5" d="M500 300h100v100H500z"/><path fill="#c5bfb6" d="M600 300h100v100H600z"/><path fill="#c7bea9" d="M700 300h100v100H700z"/></svg>