<svg xmlns="http://www.w3.org/2000/svg" viewBox="0 0 800 600"><defs/><path fill="#ededed" d="M0 0h100v100H0z"/><path fill="#dcdcdc" d="M100 0h100v100H100z"/><path fill="#ebebeb" d="M200 0h100v100H200z"/><path fill="#e4e4e4" d="M300 0h100v100H300z"/><path fill="#dcdddd" d="M400 0h100v100H400z"/><path fill="#eaeaea" d="M500 0h100v100H500z"/><path fill="#f0f0f0" d="M600 0h100v100H600z"/><path fill="#ededed" d="M700 0h100v100H700z"/><path fill="#d4d4d4" d="M0 100h100v100H0z"/><path fill="#969696" d="M100 100h100v100H100z"/><path fill="#bcbbbb" d="M200 100h100v100H200z"/><path fill="#acafae" d="M300 100h100v100H300z"/><path fill="#c7cfcd" d="M400 100h100v100H400z"/><path fill="#d0cfd0" d="M500 100h100v100H500z"/><path fill="#cecdcd" d="M600 100h100v100H600z"/><path fill="#ecebeb" d="M700 100h100v100H700z"/><path fill="#c4c4c4" d="M0 200h100v100H0z"/><path fill="#a2a2a2" d="M100 200h100v100H100z"/><path fill="#e0e0e0" d="M200 200h100v100H200z"/><path fill="#c5c6c5" d="M300 200h100v100H300z"/><path fill="#e3e5e4" d="M400 200h100v100H400z"/><path fill="#dbdada" d="M500 200h100v100H500z"/><path fill="#abb1b2" d="M600 200h100v100H600z"/><path fill="#dfe5e6" d="M700 200h100v100H700z"/><path fill="#acacac" d="M0 300h100v100H0z"/><path fill="#a6a6a6" d="M100 300h100v100H100z"/><path fill="#d8d8d8" d="M200 300h100v100H200z"/><path fill="#d0d0d0" d="M300 300h100v100H300z"/><path fill="#e9e9ea" d="M400 300h100v100H400z"/><path fill="#d7d4d4" d="M500 300h100v100H500z"/><path fill="#b0c1c4" d="M600 300h100v100H600z"/><path fill="#c6d6d9" d="M700 300h100v100H700z"/><path fill="#959595" d="M0 400h100v100H0z"/><path fill="#c4c4c4" d="M100 400h100v100H100z"/><path fill="#b2b2b2" d="M200 400h100v100H200z"/><path fill="#bbb" d="M300 400h100v100H300z"/><path fill="#bababa" d="M400 400h100v100H400z"/><path fill="#b0b0b1" d="M500 400h100v100H500z"/><path fill="#c1c0c0" d="M600 400h100v100H600z"/><path fill="#acabab" d="M700 400h100v100H700z"/><path fill="#dfdfdf" d="M0 500h100v100H0z"/><path fill="#ececec" d="M100 500h100v100H100z"/><path fill="#e0e0e0" d="M200 500h100v100H200z"/><path fill="#e4e4e4" d="M300 500h100v100H300z"/><path fill="#e9e9e9" d="M400 500h100v100H400z"/><path fill="#e7e7e7" d="M500 500h100v100H500z"/><path fill="#d9d9d9" d="M600 500h100v100H600z"/><path fill="#d0d0d0" d="M700 500h100v100H700z"/></svg>