<svg xmlns="http://www.w3.org/2000/svg" viewBox="0 0 800 400"><defs/><path fill="#d9cdc0" d="M0 0h100v100H0z"/><path fill="#767874" d="M100 0h100v100H100z"/><path fill="#8bb5a7" d="M200 0h100v100H200z"/><path fill="#91c6b4" d="M300 0h100v100H300z"/><path fill="#87c8b3" d="M400 0h100v100H400z"/><path fill="#8bc8b7" d="M500 0h100v100H500z"/><path fill="#7aaf9d" d="M600 0h100v100H600z"/><path fill="#bbc8b2" d="M700 0h100v100H700z"/><path fill="#c6bbb2" d="M0 100h100v100H0z"/><path fill="#788079" d="M100 100h100v100H100z"/><path fill="#a2cabb" d="M200 100h100v100H200z"/><path fill="#aab4ab" d="M300 100h100v100H300z"/><path fill="#aba9a1" d="M400 100h100v100H400z"/><path fill="#91b8a5" d="M500 100h100v100H500z"/><path fill="#819168" d="M600 100h100v100H600z"/><path fill="#9d9373" d="M700 100h100v100H700z"/><path fill="#ab9e9d" d="M0 200h100v100H0z"/><path fill="#9d6b7a" d="M100 200h100v100H100z"/><path fill="#ac8b98" d="M200 200h100v100H200z"/><path fill="#b28392" d="M300 200h100v100H300z"/><path fill="#809d9f" d="M400 200h100v100H400z"/><path fill="#87a787" d="M500 200h100v100H500z"/><path fill="#7f7c63" d="M600 200h100v100H600z"/><path fill="#b9abaa" d="M700 200h100v100H700z"/><path fill="#776364" d="M0 300h100v100H0z"/><path fill="#9b5375" d="M100 300h100v100H100z"/><path fill="#a36d7f" d="M200 300h100v100H200z"/><path fill="#9d8d87" d="M300 300h100v100H300z"/><path fill="#449ea5" d="M400 300h100v100H400z"/><path fill="#8c958f" d="M500 300h100v100H500z"/><path fill="#7b8c92" d="M600 300h100v100H600z"/><path fill="#91999d" d="M700 300h100v100H700z"/></svg>