<svg xmlns="http://www.w3.org/2000/svg" viewBox="0 0 800 600"><defs/><path fill="#555557" d="M0 0h100v100H0z"/><path fill="#897645" d="M100 0h100v100H100z"/><path fill="#a79c81" d="M200 0h100v100H200z"/><path fill="#a39497" d="M300 0h100v100H300z"/><path fill="#896a65" d="M400 0h100v100H400z"/><path fill="#7f7c7a" d="M500 0h100v100H500z"/><path fill="#756f6d" d="M600 0h100v100H600z"/><path fill="#c2bbbb" d="M700 0h100v100H700z"/><path fill="#5c5a56" d="M0 100h100v100H0z"/><path fill="#8d7641" d="M100 100h100v100H100z"/><path fill="#aba293" d="M200 100h100v100H200z"/><path fill="#a09190" d="M300 100h100v100H300z"/><path fill="#a38e8c" d="M400 100h100v100H400z"/><path fill="#b3a8a0" d="M500 100h100v100H500z"/><path fill="#a89b92" d="M600 100h100v100H600z"/><path fill="#c0b8b9" d="M700 100h100v100H700z"/><path fill="#635e53" d="M0 200h100v100H0z"/><path fill="#978149" d="M100 200h100v100H100z"/><path fill="#b2aca9" d="M200 200h100v100H200z"/><path fill="#6e6861" d="M300 200h100v100H300z"/><path fill="#7f7667" d="M400 200h100v100H400z"/><path fill="#8a7d6f" d="M500 200h100v100H500z"/><path fill="#7f6d66" d="M600 200h100v100H600z"/><path fill="#aaa1a1" d="M700 200h100v100H700z"/><path fill="#6f664f" d="M0 300h100v100H0z"/><path fill="#9d8752" d="M100 300h100v100H100z"/><path fill="#aa9f92" d="M200 300h100v100H200z"/><path fill="#77706d" d="M300 300h100v100H300z"/><path fill="#4c4236" d="M400 300h100v100H400z"/><path fill="#6d6965" d="M500 300h100v100H500z"/><path fill="#525151" d="M600 300h100v100H600z"/><path fill="#887f7e" d="M700 300h100v100H700z"/><path fill="#796c4b" d="M0 400h100v100H0z"/><path fill="#957f48" d="M100 400h100v100H100z"/><path fill="#ceb069" d="M200 400h100v100H200z"/><path fill="#9b845f" d="M300 400h100v100H300z"/><path fill="#4b4438" d="M400 400h100v100H400z"/><path fill="#b5a782" d="M500 400h100v100H500z"/><path fill="#796e50" d="M600 400h100v100H600z"/><path fill="#857d73" d="M700 400h100v100H700z"/><path fill="#958152" d="M0 500h100v100H0z"/><path fill="#b89d5c" d="M100 500h100v100H100z"/><path fill="#e9c878" d="M200 500h100v100H200z"/><path fill="#c6ac69" d="M300 500h100v100H300z"/><path fill="#c5aa67" d="M400 500h100v100H400z"/><path fill="#e8c674" d="M500 500h100v100H500z"/><path fill="#d3b366" d="M600 500h100v100H600z"/><path fill="#c9b17b" d="M700 500h100v100H700z"/></svg>