<svg xmlns="http://www.w3.org/2000/svg" viewBox="0 0 800 500"><defs/><path fill="#abb1af" d="M0 0h100v100H0z"/><path fill="#beacad" d="M100 0h100v100H100z"/><path fill="#c5bebf" d="M200 0h100v100H200z"/><path fill="#cfcccc" d="M300 0h100v100H300z"/><path fill="#d4c8c9" d="M400 0h100v100H400z"/><path fill="#d8cacd" d="M500 0h100v100H500z"/><path fill="#b4babe" d="M600 0h100v100H600z"/><path fill="#b2b8b7" d="M700 0h100v100H700z"/><path fill="#9a9a9b" d="M0 100h100v100H0z"/><path fill="#c09fa1" d="M100 100h100v100H100z"/><path fill="#c6b4b6" d="M200 100h100v100H200z"/><path fill="#c7b9bb" d="M300 100h100v100H300z"/><path fill="#dabfc0" d="M400 100h100v100H400z"/><path fill="#ddb9bb" d="M500 100h100v100H500z"/><path fill="#b6a1a7" d="M600 100h100v100H600z"/><path fill="#a6afb1" d="M700 100h100v100H700z"/><path fill="#a29c9c" d="M0 200h100v100H0z"/><path fill="#bf9da0" d="M100 200h100v100H100z"/><path fill="#c9b8b9" d="M200 200h100v100H200z"/><path fill="#d6b8b9" d="M300 200h100v100H300z"/><path fill="#d0bdbe" d="M400 200h100v100H400z"/><path fill="#cbc9cc" d="M500 200h100v100H500z"/><path fill="#c6b7bc" d="M600 200h100v100H600z"/><path fill="#a8aeb0" d="M700 200h100v100H700z"/><path fill="#a49494" d="M0 300h100v100H0z"/><path fill="#a99597" d="M100 300h100v100H100z"/><path fill="#aebdc0" d="M200 300h100v100H200z"/><path fill="#bcbfc0" d="M300 300h100v100H300z"/><path fill="#c2c3c6" d="M400 300h100v100H400z"/><path fill="#c6c8cd" d="M500 300h100v100H500z"/><path fill="#bebec3" d="M600 300h100v100H600z"/><path fill="#b0b7b8" d="M700 300h100v100H700z"/><path fill="#a1a5a3" d="M0 400h100v100H0z"/><path fill="#bac1c1" d="M100 400h100v100H100z"/><path fill="#b2bec0" d="M200 400h100v100H200z"/><path fill="#bdb9ba" d="M300 400h100v100H300z"/><path fill="#c0b8bb" d="M400 400h100v100H400z"/><path fill="#c6c6c8" d="M500 400h100v100H500z"/><path fill="#c9c9cc" d="M600 400h100v100H600z"/><path fill="#bac1c1" d="M700 400h100v100H700z"/></svg>