<svg xmlns="http://www.w3.org/2000/svg" viewBox="0 0 800 400"><defs/><path fill="#68464a" d="M0 0h100v100H0z"/><path fill="#9a7471" d="M100 0h100v100H100z"/><path fill="#ae8894" d="M200 0h100v100H200z"/><path fill="#b28a82" d="M300 0h100v100H300z"/><path fill="#ad897f" d="M400 0h100v100H400z"/><path fill="#a9868a" d="M500 0h100v100H500z"/><path fill="#b49190" d="M600 0h100v100H600z"/><path fill="#8d6769" d="M700 0h100v100H700z"/><path fill="#6a3a48" d="M0 100h100v100H0z"/><path fill="#82494d" d="M100 100h100v100H100z"/><path fill="#805f60" d="M200 100h100v100H200z"/><path fill="#825a58" d="M300 100h100v100H300z"/><path fill="#8f5e5a" d="M400 100h100v100H400z"/><path fill="#764653" d="M500 100h100v100H500z"/><path fill="#7d5955" d="M600 100h100v100H600z"/><path fill="#815957" d="M700 100h100v100H700z"/><path fill="#693346" d="M0 200h100v100H0z"/><path fill="#8e544f" d="M100 200h100v100H100z"/><path fill="#91786c" d="M200 200h100v100H200z"/><path fill="#834748" d="M300 200h100v100H300z"/><path fill="#9a4f51" d="M400 200h100v100H400z"/><path fill="#a76a66" d="M500 200h100v100H500z"/><path fill="#8c3d40" d="M600 200h100v100H600z"/><path fill="#62324a" d="M700 200h100v100H700z"/><path fill="#7a474b" d="M0 300h100v100H0z"/><path fill="#884443" d="M100 300h100v100H100z"/><path fill="#a96761" d="M200 300h100v100H200z"/><path fill="#c69b8d" d="M300 300h100v100H300z"/><path fill="#b6756f" d="M400 300h100v100H400z"/><path fill="#a56664" d="M500 300h100v100H500z"/><path fill="#8e3743" d="M600 300h100v100H600z"/><path fill="#743641" d="M700 300h100v100H700z"/></svg>