<svg xmlns="http://www.w3.org/2000/svg" viewBox="0 0 800 600"><defs/><path fill="#ac9f91" d="M0 0h100v100H0z"/><path fill="#a1998f" d="M100 0h100v100H100z"/><path fill="#c3bfbc" d="M200 0h100v100H200z"/><path fill="#c6c6c5" d="M300 0h100v100H300z"/><path fill="#c5c5c4" d="M400 0h100v100H400z"/><path fill="#a9a9a6" d="M500 0h100v100H500z"/><path fill="#929089" d="M600 0h100v100H600z"/><path fill="#8e887f" d="M700 0h100v100H700z"/><path fill="#aea092" d="M0 100h100v100H0z"/><path fill="#7f7c71" d="M100 100h100v100H100z"/><path fill="#d6d4cf" d="M200 100h100v100H200z"/><path fill="#d5d7d4" d="M300 100h100v100H300z"/><path fill="#d6dad7" d="M400 100h100v100H400z"/><path fill="#9e9e98" d="M500 100h100v100H500z"/><path fill="#9e9087" d="M600 100h100v100H600z"/><path fill="#979189" d="M700 100h100v100H700z"/><path fill="#9e9588" d="M0 200h100v100H0z"/><path fill="#9a978e" d="M100 200h100v100H100z"/><path fill="#e8e9e3" d="M200 200h100v100H200z"/><path fill="#e5ebe7" d="M300 200h100v100H300z"/><path fill="#e4e9e6" d="M400 200h100v100H400z"/><path fill="#d6d7d0" d="M500 200h100v100H500z"/><path fill="#cbc6bc" d="M600 200h100v100H600z"/><path fill="#a9a095" d="M700 200h100v100H700z"/><path fill="#878176" d="M0 300h100v100H0z"/><path fill="#9f9d92" d="M100 300h100v100H100z"/><path fill="#d0d2c7" d="M200 300h100v100H200z"/><path fill="#a8adaa" d="M300 300h100v100H300z"/><path fill="#b1b5b1" d="M400 300h100v100H400z"/><path fill="#d0d0ca" d="M500 300h100v100H500z"/><path fill="#aca59d" d="M600 300h100v100H600z"/><path fill="#a69b8e" d="M700 300h100v100H700z"/><path fill="#8a8579" d="M0 400h100v100H0z"/><path fill="#999890" d="M100 400h100v100H100z"/><path fill="#a3a5a2" d="M200 400h100v100H200z"/><path fill="#818381" d="M300 400h100v100H300z"/><path fill="#acaea9" d="M400 400h100v100H400z"/><path fill="#d4d2ce" d="M500 400h100v100H500z"/><path fill="#a39c98" d="M600 400h100v100H600z"/><path fill="#9f9487" d="M700 400h100v100H700z"/><path fill="#777268" d="M0 500h100v100H0z"/><path fill="#85857d" d="M100 500h100v100H100z"/><path fill="#8e908c" d="M200 500h100v100H200z"/><path fill="#a6a8a5" d="M300 500h100v100H300z"/><path fill="#a6a7a4" d="M400 500h100v100H400z"/><path fill="#9c9a98" d="M500 500h100v100H500z"/><path fill="#8f8986" d="M600 500h100v100H600z"/><path fill="#7f766c" d="M700 500h100v100H700z"/></svg>