<svg xmlns="http://www.w3.org/2000/svg" viewBox="0 0 800 400"><defs/><path fill="#a79d96" d="M0 0h100v100H0z"/><path fill="#726767" d="M100 0h100v100H100z"/><path fill="#aaa38d" d="M200 0h100v100H200z"/><path fill="#bbb3a2" d="M300 0h100v100H300z"/><path fill="#9c8273" d="M400 0h100v100H400z"/><path fill="#ab978c" d="M500 0h100v100H500z"/><path fill="#b8aca8" d="M600 0h100v100H600z"/><path fill="#b6adab" d="M700 0h100v100H700z"/><path fill="#a09692" d="M0 100h100v100H0z"/><path fill="#796c6b" d="M100 100h100v100H100z"/><path fill="#9c9582" d="M200 100h100v100H200z"/><path fill="#b3a99a" d="M300 100h100v100H300z"/><path fill="#887668" d="M400 100h100v100H400z"/><path fill="#918277" d="M500 100h100v100H500z"/><path fill="#bbaba5" d="M600 100h100v100H600z"/><path fill="#93a9a8" d="M700 100h100v100H700z"/><path fill="#8d837d" d="M0 200h100v100H0z"/><path fill="#746d6d" d="M100 200h100v100H100z"/><path fill="#b5a7a8" d="M200 200h100v100H200z"/><path fill="#a59c97" d="M300 200h100v100H300z"/><path fill="#a08d96" d="M400 200h100v100H400z"/><path fill="#a18e94" d="M500 200h100v100H500z"/><path fill="#c0acb2" d="M600 200h100v100H600z"/><path fill="#b5aea8" d="M700 200h100v100H700z"/><path fill="#877d7e" d="M0 300h100v100H0z"/><path fill="#b29cb0" d="M100 300h100v100H100z"/><path fill="#e1c6e2" d="M200 300h100v100H200z"/><path fill="#b9a9b7" d="M300 300h100v100H300z"/><path fill="#c1aec7" d="M400 300h100v100H400z"/><path fill="#d4bbd1" d="M500 300h100v100H500z"/><path fill="#d8bcd9" d="M600 300h100v100H600z"/><path fill="#c4aec0" d="M700 300h100v100H700z"/></svg>