<svg xmlns="http://www.w3.org/2000/svg" viewBox="0 0 800 400"><defs/><path fill="#beb4a2" d="M0 0h100v100H0z"/><path fill="#a99f90" d="M100 0h100v100H100z"/><path fill="#d1c4b7" d="M200 0h100v100H200z"/><path fill="#d1c5af" d="M300 0h100v100H300z"/><path fill="#d4c8b6" d="M400 0h100v100H400z"/><path fill="#c5b59c" d="M500 0h100v100H500z"/><path fill="#cab393" d="M600 0h100v100H600z"/><path fill="#c7b59f" d="M700 0h100v100H700z"/><path fill="#afa288" d="M0 100h100v100H0z"/><path fill="#9e9781" d="M100 100h100v100H100z"/><path fill="#989882" d="M200 100h100v100H200z"/><path fill="#94948a" d="M300 100h100v100H300z"/><path fill="#a0a294" d="M400 100h100v100H400z"/><path fill="#94957d" d="M500 100h100v100H500z"/><path fill="#b9a787" d="M600 100h100v100H600z"/><path fill="#c5af9c" d="M700 100h100v100H700z"/><path fill="#aca193" d="M0 200h100v100H0z"/><path fill="#8f948a" d="M100 200h100v100H100z"/><path fill="#9b9c81" d="M200 200h100v100H200z"/><path fill="#b0a08b" d="M300 200h100v100H300z"/><path fill="#ada293" d="M400 200h100v100H400z"/><path fill="#bbaa83" d="M500 200h100v100H500z"/><path fill="#c4a980" d="M600 200h100v100H600z"/><path fill="#b59586" d="M700 200h100v100H700z"/><path fill="#999287" d="M0 300h100v100H0z"/><path fill="#9f9a93" d="M100 300h100v100H100z"/><path fill="#b69e91" d="M200 300h100v100H200z"/><path fill="#a09591" d="M300 300h100v100H300z"/><path fill="#aa9d95" d="M400 300h100v100H400z"/><path fill="#ccb796" d="M500 300h100v100H500z"/><path fill="#b09f7c" d="M600 300h100v100H600z"/><path fill="#a99b8c" d="M700 300h100v100H700z"/></svg>