<svg xmlns="http://www.w3.org/2000/svg" viewBox="0 0 800 600"><defs/><path fill="#f9f9f8" d="M0 0h100v100H0z"/><path fill="#f0edea" d="M100 0h100v100H100z"/><path fill="#f5f2ef" d="M200 0h100v100H200z"/><path fill="#f8f6f4" d="M300 0h100v100H300z"/><path fill="#f6f5f3" d="M400 0h100v100H400z"/><path fill="#f9f7f6" d="M500 0h100v100H500zm100 0h100v100H600z"/><path fill="#f8f4f2" d="M700 0h100v100H700z"/><path fill="#e3dfdc" d="M0 100h100v100H0z"/><path fill="#a9876b" d="M100 100h100v100H100z"/><path fill="#c4b987" d="M200 100h100v100H200z"/><path fill="#e4e2b6" d="M300 100h100v100H300z"/><path fill="#c4c5c1" d="M400 100h100v100H400z"/><path fill="#d6d8d5" d="M500 100h100v100H500z"/><path fill="#d3d3cc" d="M600 100h100v100H600z"/><path fill="#c4a583" d="M700 100h100v100H700z"/><path fill="#ddd1c8" d="M0 200h100v100H0z"/><path fill="#a38061" d="M100 200h100v100H100z"/><path fill="#b6a988" d="M200 200h100v100H200z"/><path fill="#bbb393" d="M300 200h100v100H300z"/><path fill="#c5d0ce" d="M400 200h100v100H400z"/><path fill="#d0dbd1" d="M500 200h100v100H500z"/><path fill="#cbcbb6" d="M600 200h100v100H600z"/><path fill="#bca183" d="M700 200h100v100H700z"/><path fill="#d8cabb" d="M0 300h100v100H0z"/><path fill="#9f7d5f" d="M100 300h100v100H100z"/><path fill="#c8af99" d="M200 300h100v100H200z"/><path fill="#baa48e" d="M300 300h100v100H300z"/><path fill="#9a968e" d="M400 300h100v100H400z"/><path fill="#afab9c" d="M500 300h100v100H500z"/><path fill="#c9bc98" d="M600 300h100v100H600z"/><path fill="#bc9b79" d="M700 300h100v100H700z"/><path fill="#ceb9a6" d="M0 400h100v100H0z"/><path fill="#b4987c" d="M100 400h100v100H100z"/><path fill="#d6c2ab" d="M200 400h100v100H200z"/><path fill="#c5b19d" d="M300 400h100v100H300z"/><path fill="#a4a19e" d="M400 400h100v100H400z"/><path fill="#a99c75" d="M500 400h100v100H500z"/><path fill="#e8d578" d="M600 400h100v100H600z"/><path fill="#beac89" d="M700 400h100v100H700z"/><path fill="#f2efeb" d="M0 500h100v100H0z"/><path fill="#f3efea" d="M100 500h100v100H100z"/><path fill="#f6f3ef" d="M200 500h100v100H200z"/><path fill="#f9f4ef" d="M300 500h100v100H300z"/><path fill="#fffcf8" d="M400 500h100v100H400z"/><path fill="#f9f6ef" d="M500 500h100v100H500z"/><path fill="#f3ede0" d="M600 500h100v100H600z"/><path fill="#f3efe8" d="M700 500h100v100H700z"/></svg>