<svg xmlns="http://www.w3.org/2000/svg" viewBox="0 0 800 600"><defs/><path fill="#e8e3e4" d="M0 0h100v100H0z"/><path fill="#e9e7e6" d="M100 0h100v100H100z"/><path fill="#c6d9e3" d="M200 0h100v100H200z"/><path fill="#98c3dd" d="M300 0h100v100H300z"/><path fill="#b6d1e1" d="M400 0h100v100H400z"/><path fill="#a3cce5" d="M500 0h100v100H500z"/><path fill="#c6dbe7" d="M600 0h100v100H600z"/><path fill="#f4f6f6" d="M700 0h100v100H700z"/><path fill="#cfcdce" d="M0 100h100v100H0z"/><path fill="#dbdadb" d="M100 100h100v100H100z"/><path fill="#dadadb" d="M200 100h100v100H200z"/><path fill="#e2e4e5" d="M300 100h100v100H300z"/><path fill="#ececec" d="M400 100h100v100H400z"/><path fill="#e2e5e8" d="M500 100h100v100H500z"/><path fill="#f1eeec" d="M600 100h100v100H600z"/><path fill="#e8e7e4" d="M700 100h100v100H700z"/><path fill="#d1d3cc" d="M0 200h100v100H0z"/><path fill="#d3d2c9" d="M100 200h100v100H100z"/><path fill="#e4e2df" d="M200 200h100v100H200z"/><path fill="#e2e2e0" d="M300 200h100v100H300z"/><path fill="#e0e1e1" d="M400 200h100v100H400z"/><path fill="#c2c1c3" d="M500 200h100v100H500z"/><path fill="#e1e2e3" d="M600 200h100v100H600z"/><path fill="#e3e3e4" d="M700 200h100v100H700z"/><path fill="#e2e2e3" d="M0 300h100v100H0z"/><path fill="#d3d5d2" d="M100 300h100v100H100z"/><path fill="#d5d3c8" d="M200 300h100v100H200z"/><path fill="#e1e1dd" d="M300 300h100v100H300z"/><path fill="#e1e1e1" d="M400 300h100v100H400z"/><path fill="#dfdfde" d="M500 300h100v100H500z"/><path fill="#e3e3e3" d="M600 300h100v100H600zm100 0h100v100H700z"/><path fill="#ebecee" d="M0 400h100v100H0z"/><path fill="#d3caba" d="M100 400h100v100H100z"/><path fill="#d1ccbd" d="M200 400h100v100H200z"/><path fill="#dedfde" d="M300 400h100v100H300z"/><path fill="#e7e7e7" d="M400 400h100v100H400z"/><path fill="#f3f3f3" d="M500 400h100v100H500z"/><path fill="#f4f4f4" d="M600 400h100v100H600z"/><path fill="#ebebeb" d="M700 400h100v100H700z"/><path fill="#faf9f7" d="M0 500h100v100H0z"/><path fill="#e0d0b3" d="M100 500h100v100H100z"/><path fill="#e7e4db" d="M200 500h100v100H200z"/><path fill="#dadad9" d="M300 500h100v100H300z"/><path fill="#dededf" d="M400 500h100v100H400z"/><path fill="#f5f5f4" d="M500 500h100v100H500z"/><path fill="#fafafa" d="M600 500h100v100H600zm100 0h100v100H700z"/></svg>