<svg xmlns="http://www.w3.org/2000/svg" viewBox="0 0 800 400"><defs/><path fill="#c4b090" d="M0 0h100v100H0z"/><path fill="#6e443c" d="M100 0h100v100H100z"/><path fill="#996752" d="M200 0h100v100H200z"/><path fill="#c6916c" d="M300 0h100v100H300z"/><path fill="#af7a63" d="M400 0h100v100H400z"/><path fill="#be8c6b" d="M500 0h100v100H500z"/><path fill="#c38767" d="M600 0h100v100H600z"/><path fill="#6b4841" d="M700 0h100v100H700z"/><path fill="#c1ae85" d="M0 100h100v100H0z"/><path fill="#673b30" d="M100 100h100v100H100z"/><path fill="#a46750" d="M200 100h100v100H200z"/><path fill="#ce7f57" d="M300 100h100v100H300z"/><path fill="#c9885c" d="M400 100h100v100H400z"/><path fill="#d2845b" d="M500 100h100v100H500z"/><path fill="#c68459" d="M600 100h100v100H600z"/><path fill="#623230" d="M700 100h100v100H700z"/><path fill="#a99976" d="M0 200h100v100H0z"/><path fill="#622c29" d="M100 200h100v100H100z"/><path fill="#89453f" d="M200 200h100v100H200z"/><path fill="#b96348" d="M300 200h100v100H300z"/><path fill="#aa7857" d="M400 200h100v100H400z"/><path fill="#c06748" d="M500 200h100v100H500z"/><path fill="#bd6b50" d="M600 200h100v100H600z"/><path fill="#69323a" d="M700 200h100v100H700z"/><path fill="#8e6861" d="M0 300h100v100H0z"/><path fill="#7b0a34" d="M100 300h100v100H100z"/><path fill="#ba2549" d="M200 300h100v100H200z"/><path fill="#be6049" d="M300 300h100v100H300z"/><path fill="#aa4845" d="M400 300h100v100H400z"/><path fill="#c5573f" d="M500 300h100v100H500z"/><path fill="#c44644" d="M600 300h100v100H600z"/><path fill="#81174a" d="M700 300h100v100H700z"/></svg>