<svg xmlns="http://www.w3.org/2000/svg" viewBox="0 0 800 500"><defs/><path fill="#e7e7e3" d="M0 0h100v100H0z"/><path fill="#cec1ad" d="M100 0h100v100H100z"/><path fill="#dbd7d3" d="M200 0h100v100H200z"/><path fill="#e5e4e8" d="M300 0h100v100H300z"/><path fill="#e5e5e2" d="M400 0h100v100H400z"/><path fill="#eae9dc" d="M500 0h100v100H500z"/><path fill="#e7e7df" d="M600 0h100v100H600z"/><path fill="#e1e1df" d="M700 0h100v100H700z"/><path fill="#d8d6cd" d="M0 100h100v100H0z"/><path fill="#b29c79" d="M100 100h100v100H100z"/><path fill="#bcbfbc" d="M200 100h100v100H200z"/><path fill="#cad0d4" d="M300 100h100v100H300z"/><path fill="#e1e0da" d="M400 100h100v100H400z"/><path fill="#c9c9ae" d="M500 100h100v100H500z"/><path fill="#d3d3c4" d="M600 100h100v100H600z"/><path fill="#dad9d8" d="M700 100h100v100H700z"/><path fill="#e3ddcf" d="M0 200h100v100H0z"/><path fill="#a9977d" d="M100 200h100v100H100z"/><path fill="#cbcecd" d="M200 200h100v100H200z"/><path fill="#e3e2dc" d="M300 200h100v100H300z"/><path fill="#e8e4e3" d="M400 200h100v100H400z"/><path fill="#c9c6c6" d="M500 200h100v100H500z"/><path fill="#bdb7b6" d="M600 200h100v100H600z"/><path fill="#e1dedd" d="M700 200h100v100H700z"/><path fill="#ddd1bb" d="M0 300h100v100H0z"/><path fill="#a09371" d="M100 300h100v100H100z"/><path fill="#bbb6b1" d="M200 300h100v100H200z"/><path fill="#bcb3b1" d="M300 300h100v100H300z"/><path fill="#b1aaa2" d="M400 300h100v100H400z"/><path fill="#cbc9c8" d="M500 300h100v100H500z"/><path fill="#c2aea9" d="M600 300h100v100H600z"/><path fill="#dbd5d1" d="M700 300h100v100H700z"/><path fill="#e4ded4" d="M0 400h100v100H0z"/><path fill="#dadad3" d="M100 400h100v100H100z"/><path fill="#e8eae9" d="M200 400h100v100H200z"/><path fill="#d8d4d1" d="M300 400h100v100H300z"/><path fill="#d4d2cd" d="M400 400h100v100H400z"/><path fill="#e1ddda" d="M500 400h100v100H500z"/><path fill="#e2dcdb" d="M600 400h100v100H600z"/><path fill="#e5e5e5" d="M700 400h100v100H700z"/></svg>