<svg xmlns="http://www.w3.org/2000/svg" viewBox="0 0 800 400"><defs/><path fill="#625b61" d="M0 0h100v100H0z"/><path fill="#47383b" d="M100 0h100v100H100z"/><path fill="#554d55" d="M200 0h100v100H200z"/><path fill="#5c5968" d="M300 0h100v100H300z"/><path fill="#5d5a65" d="M400 0h100v100H400z"/><path fill="#605a66" d="M500 0h100v100H500z"/><path fill="#524a51" d="M600 0h100v100H600z"/><path fill="#998a7d" d="M700 0h100v100H700z"/><path fill="#4b3f46" d="M0 100h100v100H0z"/><path fill="#26181b" d="M100 100h100v100H100z"/><path fill="#423c34" d="M200 100h100v100H200z"/><path fill="#614c4d" d="M300 100h100v100H300z"/><path fill="#5e4b50" d="M400 100h100v100H400z"/><path fill="#554755" d="M500 100h100v100H500z"/><path fill="#49383b" d="M600 100h100v100H600z"/><path fill="#837468" d="M700 100h100v100H700z"/><path fill="#4b3e42" d="M0 200h100v100H0z"/><path fill="#4c393c" d="M100 200h100v100H100z"/><path fill="#7c6260" d="M200 200h100v100H200z"/><path fill="#785341" d="M300 200h100v100H300z"/><path fill="#7c4839" d="M400 200h100v100H400z"/><path fill="#745244" d="M500 200h100v100H500z"/><path fill="#6c4438" d="M600 200h100v100H600z"/><path fill="#614e4c" d="M700 200h100v100H700z"/><path fill="#615154" d="M0 300h100v100H0z"/><path fill="#947e81" d="M100 300h100v100H100z"/><path fill="#947979" d="M200 300h100v100H200z"/><path fill="#6c483f" d="M300 300h100v100H300z"/><path fill="#744c42" d="M400 300h100v100H400z"/><path fill="#765447" d="M500 300h100v100H500z"/><path fill="#937b79" d="M600 300h100v100H600z"/><path fill="#786666" d="M700 300h100v100H700z"/></svg>