<svg xmlns="http://www.w3.org/2000/svg" viewBox="0 0 800 400"><defs/><path fill="#a7a092" d="M0 0h100v100H0z"/><path fill="#c5be9a" d="M100 0h100v100H100z"/><path fill="#a49c93" d="M200 0h100v100H200z"/><path fill="#a59c95" d="M300 0h100v100H300z"/><path fill="#a1958d" d="M400 0h100v100H400z"/><path fill="#91857b" d="M500 0h100v100H500z"/><path fill="#998b7c" d="M600 0h100v100H600z"/><path fill="#a59e84" d="M700 0h100v100H700z"/><path fill="#a09ca2" d="M0 100h100v100H0z"/><path fill="#a6ad78" d="M100 100h100v100H100z"/><path fill="#8a8970" d="M200 100h100v100H200z"/><path fill="#b0999a" d="M300 100h100v100H300z"/><path fill="#b2968d" d="M400 100h100v100H400z"/><path fill="#737d65" d="M500 100h100v100H500z"/><path fill="#6f8251" d="M600 100h100v100H600z"/><path fill="#928367" d="M700 100h100v100H700z"/><path fill="#af9f81" d="M0 200h100v100H0z"/><path fill="#aea66e" d="M100 200h100v100H100z"/><path fill="#b48975" d="M200 200h100v100H200z"/><path fill="#bf7d6f" d="M300 200h100v100H300z"/><path fill="#c2807c" d="M400 200h100v100H400z"/><path fill="#8fa4a2" d="M500 200h100v100H500z"/><path fill="#618d5d" d="M600 200h100v100H600z"/><path fill="#9f8851" d="M700 200h100v100H700z"/><path fill="#aca07a" d="M0 300h100v100H0z"/><path fill="#aea182" d="M100 300h100v100H100z"/><path fill="#bb828a" d="M200 300h100v100H200z"/><path fill="#b68680" d="M300 300h100v100H300z"/><path fill="#a98887" d="M400 300h100v100H400z"/><path fill="#957b74" d="M500 300h100v100H500z"/><path fill="#737760" d="M600 300h100v100H600z"/><path fill="#ac8071" d="M700 300h100v100H700z"/></svg>