<svg xmlns="http://www.w3.org/2000/svg" viewBox="0 0 800 600"><defs/><path fill="#dcdaee" d="M0 0h100v100H0z"/><path fill="#e1d8e9" d="M100 0h100v100H100z"/><path fill="#e9e7f6" d="M200 0h100v100H200z"/><path fill="#f6f4f8" d="M300 0h100v100H300z"/><path fill="#f3f1f6" d="M400 0h100v100H400z"/><path fill="#eaeaf7" d="M500 0h100v100H500z"/><path fill="#e9e9f6" d="M600 0h100v100H600z"/><path fill="#e1dfef" d="M700 0h100v100H700z"/><path fill="#7a6fc6" d="M0 100h100v100H0z"/><path fill="#936eb5" d="M100 100h100v100H100z"/><path fill="#9eb4ef" d="M200 100h100v100H200z"/><path fill="#b8e0f2" d="M300 100h100v100H300z"/><path fill="#aed4f3" d="M400 100h100v100H400z"/><path fill="#91abf1" d="M500 100h100v100H500z"/><path fill="#a6b2f0" d="M600 100h100v100H600z"/><path fill="#8c89cf" d="M700 100h100v100H700z"/><path fill="#8374c2" d="M0 200h100v100H0z"/><path fill="#9b7dc7" d="M100 200h100v100H100z"/><path fill="#9fbdf6" d="M200 200h100v100H200z"/><path fill="#b0dff2" d="M300 200h100v100H300z"/><path fill="#95c2e6" d="M400 200h100v100H400z"/><path fill="#7ea1ec" d="M500 200h100v100H500z"/><path fill="#a6a6e1" d="M600 200h100v100H600z"/><path fill="#a3b2dc" d="M700 200h100v100H700z"/><path fill="#967ac4" d="M0 300h100v100H0z"/><path fill="#7d6191" d="M100 300h100v100H100z"/><path fill="#9e9cc1" d="M200 300h100v100H200z"/><path fill="#bfbfda" d="M300 300h100v100H300z"/><path fill="#beadaa" d="M400 300h100v100H400z"/><path fill="#737cb7" d="M500 300h100v100H500z"/><path fill="#7473c5" d="M600 300h100v100H600z"/><path fill="#8b9fd7" d="M700 300h100v100H700z"/><path fill="#8c6ea6" d="M0 400h100v100H0z"/><path fill="#906494" d="M100 400h100v100H100z"/><path fill="#c4a9bc" d="M200 400h100v100H200z"/><path fill="#a7acd1" d="M300 400h100v100H300z"/><path fill="#abafd4" d="M400 400h100v100H400z"/><path fill="#695ebb" d="M500 400h100v100H500z"/><path fill="#433db6" d="M600 400h100v100H600z"/><path fill="#7376a5" d="M700 400h100v100H700z"/><path fill="#d8d4db" d="M0 500h100v100H0z"/><path fill="#e8d8eb" d="M100 500h100v100H100z"/><path fill="#f2e4ea" d="M200 500h100v100H200z"/><path fill="#ece3e9" d="M300 500h100v100H300z"/><path fill="#e5dfe9" d="M400 500h100v100H400z"/><path fill="#e0d6e5" d="M500 500h100v100H500z"/><path fill="#e2d5e7" d="M600 500h100v100H600z"/><path fill="#dcd5d7" d="M700 500h100v100H700z"/></svg>