<svg xmlns="http://www.w3.org/2000/svg" viewBox="0 0 800 500"><defs/><path fill="#f7f7f7" d="M0 0h100v100H0z"/><path fill="#efefef" d="M100 0h100v100H100z"/><path fill="#f5f5f5" d="M200 0h100v100H200z"/><path fill="#f8f8f8" d="M300 0h100v100H300z"/><path fill="#eee" d="M400 0h100v100H400z"/><path fill="#f1f1f1" d="M500 0h100v100H500z"/><path fill="#f9f9f9" d="M600 0h100v100H600z"/><path fill="#f6f6f6" d="M700 0h100v100H700z"/><path fill="#f2f2f2" d="M0 100h100v100H0z"/><path fill="#d3d3d3" d="M100 100h100v100H100z"/><path fill="#f5f5f5" d="M200 100h100v100H200z"/><path fill="#fefefe" d="M300 100h100v100H300z"/><path fill="#bdbdbd" d="M400 100h100v100H400z"/><path fill="#c9c9c9" d="M500 100h100v100H500z"/><path fill="#fff" d="M600 100h100v100H600z"/><path fill="#f0f0f0" d="M700 100h100v100H700z"/><path fill="#ececec" d="M0 200h100v100H0z"/><path fill="#d7d7d7" d="M100 200h100v100H100z"/><path fill="#fafafa" d="M200 200h100v100H200z"/><path fill="#fbfbfb" d="M300 200h100v100H300z"/><path fill="#c3c3c3" d="M400 200h100v100H400z"/><path fill="#cacaca" d="M500 200h100v100H500z"/><path fill="#fdfdfd" d="M600 200h100v100H600z"/><path fill="#f0f0f0" d="M700 200h100v100H700z"/><path fill="#dcdcdc" d="M0 300h100v100H0z"/><path fill="#d1d1d1" d="M100 300h100v100H100z"/><path fill="#fdfdfd" d="M200 300h100v100H200z"/><path fill="#fafafa" d="M300 300h100v100H300z"/><path fill="#f6f6f6" d="M400 300h100v100H400zm100 0h100v100H500z"/><path fill="#fafafa" d="M600 300h100v100H600z"/><path fill="#efefef" d="M700 300h100v100H700z"/><path fill="#e5e5e5" d="M0 400h100v100H0z"/><path fill="#ececec" d="M100 400h100v100H100z"/><path fill="#fafafa" d="M200 400h100v100H200z"/><path fill="#f9f9f9" d="M300 400h100v100H300z"/><path fill="#fafafa" d="M400 400h100v100H400zm100 0h100v100H500z"/><path fill="#fbfbfb" d="M600 400h100v100H600z"/><path fill="#efefef" d="M700 400h100v100H700z"/></svg>