<svg xmlns="http://www.w3.org/2000/svg" viewBox="0 0 800 400"><defs/><path fill="#b9b7bf" d="M0 0h100v100H0z"/><path fill="#a7a7af" d="M100 0h100v100H100z"/><path fill="#bbbbc4" d="M200 0h100v100H200z"/><path fill="#bfbdc7" d="M300 0h100v100H300z"/><path fill="#bfbfc7" d="M400 0h100v100H400z"/><path fill="#c3c4cd" d="M500 0h100v100H500z"/><path fill="#c4c5ce" d="M600 0h100v100H600z"/><path fill="#c6c7d1" d="M700 0h100v100H700z"/><path fill="#b3b3bb" d="M0 100h100v100H0z"/><path fill="#b3b3bd" d="M100 100h100v100H100z"/><path fill="#c0c1cb" d="M200 100h100v100H200z"/><path fill="#b4b3ba" d="M300 100h100v100H300z"/><path fill="#babac2" d="M400 100h100v100H400z"/><path fill="#bbbcc5" d="M500 100h100v100H500z"/><path fill="#b2b4bd" d="M600 100h100v100H600z"/><path fill="#b8bbc5" d="M700 100h100v100H700z"/><path fill="#afb2bd" d="M0 200h100v100H0z"/><path fill="#acaeb9" d="M100 200h100v100H100z"/><path fill="#abadb5" d="M200 200h100v100H200z"/><path fill="#afafb8" d="M300 200h100v100H300z"/><path fill="#bbbcc6" d="M400 200h100v100H400z"/><path fill="#bdbec8" d="M500 200h100v100H500z"/><path fill="#adb0ba" d="M600 200h100v100H600z"/><path fill="#b1b4bf" d="M700 200h100v100H700z"/><path fill="#9fa0a7" d="M0 300h100v100H0z"/><path fill="#9da0a9" d="M100 300h100v100H100z"/><path fill="#b9bcc7" d="M200 300h100v100H200z"/><path fill="#babec9" d="M300 300h100v100H300z"/><path fill="#b4b8c2" d="M400 300h100v100H400z"/><path fill="#c8ccd7" d="M500 300h100v100H500z"/><path fill="#c0c4cf" d="M600 300h100v100H600z"/><path fill="#c4c7d3" d="M700 300h100v100H700z"/></svg>