<svg xmlns="http://www.w3.org/2000/svg" viewBox="0 0 800 500"><defs/><path fill="#ded7cd" d="M0 0h100v100H0z"/><path fill="#dcd6cc" d="M100 0h100v100H100z"/><path fill="#e2dfd7" d="M200 0h100v100H200z"/><path fill="#ebe7dc" d="M300 0h100v100H300z"/><path fill="#eae3d9" d="M400 0h100v100H400z"/><path fill="#e7dfd7" d="M500 0h100v100H500z"/><path fill="#ebe6df" d="M600 0h100v100H600z"/><path fill="#eeecdd" d="M700 0h100v100H700z"/><path fill="#bdb091" d="M0 100h100v100H0z"/><path fill="#987b54" d="M100 100h100v100H100z"/><path fill="#bfa096" d="M200 100h100v100H200z"/><path fill="#d0b4a1" d="M300 100h100v100H300z"/><path fill="#bbaa8f" d="M400 100h100v100H400z"/><path fill="#ae9372" d="M500 100h100v100H500z"/><path fill="#adaf91" d="M600 100h100v100H600z"/><path fill="#adb459" d="M700 100h100v100H700z"/><path fill="#ac9b78" d="M0 200h100v100H0z"/><path fill="#896946" d="M100 200h100v100H100z"/><path fill="#b8a395" d="M200 200h100v100H200z"/><path fill="#b49f88" d="M300 200h100v100H300z"/><path fill="#b2a37b" d="M400 200h100v100H400z"/><path fill="#9c8765" d="M500 200h100v100H500z"/><path fill="#aaa994" d="M600 200h100v100H600z"/><path fill="#99994a" d="M700 200h100v100H700z"/><path fill="#9a8663" d="M0 300h100v100H0z"/><path fill="#807561" d="M100 300h100v100H100z"/><path fill="#999e9e" d="M200 300h100v100H200z"/><path fill="#9e8f74" d="M300 300h100v100H300z"/><path fill="#9d998f" d="M400 300h100v100H400z"/><path fill="#949275" d="M500 300h100v100H500z"/><path fill="#aba786" d="M600 300h100v100H600z"/><path fill="#c0bc80" d="M700 300h100v100H700z"/><path fill="#ccc6ba" d="M0 400h100v100H0z"/><path fill="#c8c4bd" d="M100 400h100v100H100z"/><path fill="#bdc1c2" d="M200 400h100v100H200z"/><path fill="#c1c4c3" d="M300 400h100v100H300z"/><path fill="#c3c8cc" d="M400 400h100v100H400z"/><path fill="#cccbc2" d="M500 400h100v100H500z"/><path fill="#cec9bb" d="M600 400h100v100H600z"/><path fill="#e0d9d1" d="M700 400h100v100H700z"/></svg>