<svg xmlns="http://www.w3.org/2000/svg" viewBox="0 0 800 600"><defs/><path fill="#b8a087" d="M0 0h100v100H0z"/><path fill="#af9b83" d="M100 0h100v100H100z"/><path fill="#baa389" d="M200 0h100v100H200z"/><path fill="#c7b093" d="M300 0h100v100H300z"/><path fill="#ceb79a" d="M400 0h100v100H400z"/><path fill="#dbc6a6" d="M500 0h100v100H500z"/><path fill="#e8d1af" d="M600 0h100v100H600z"/><path fill="#ecd4b0" d="M700 0h100v100H700z"/><path fill="#a79786" d="M0 100h100v100H0z"/><path fill="#8e877f" d="M100 100h100v100H100z"/><path fill="#a5937f" d="M200 100h100v100H200z"/><path fill="#a5937d" d="M300 100h100v100H300z"/><path fill="#a79682" d="M400 100h100v100H400z"/><path fill="#beac96" d="M500 100h100v100H500z"/><path fill="#baab96" d="M600 100h100v100H600z"/><path fill="#d7c5ac" d="M700 100h100v100H700z"/><path fill="#958a83" d="M0 200h100v100H0z"/><path fill="#89837e" d="M100 200h100v100H100z"/><path fill="#8d7e70" d="M200 200h100v100H200z"/><path fill="#908275" d="M300 200h100v100H300z"/><path fill="#91877b" d="M400 200h100v100H400z"/><path fill="#a1968a" d="M500 200h100v100H500z"/><path fill="#a5998c" d="M600 200h100v100H600z"/><path fill="#a99c8d" d="M700 200h100v100H700z"/><path fill="#7e7878" d="M0 300h100v100H0z"/><path fill="#787371" d="M100 300h100v100H100z"/><path fill="#7c7169" d="M200 300h100v100H200z"/><path fill="#888077" d="M300 300h100v100H300z"/><path fill="#88817a" d="M400 300h100v100H400z"/><path fill="#8d8882" d="M500 300h100v100H500z"/><path fill="#a59e97" d="M600 300h100v100H600z"/><path fill="#645d59" d="M700 300h100v100H700z"/><path fill="#6e6c6e" d="M0 400h100v100H0z"/><path fill="#7b716d" d="M100 400h100v100H100z"/><path fill="#807671" d="M200 400h100v100H200z"/><path fill="#6a6461" d="M300 400h100v100H300z"/><path fill="#6c6765" d="M400 400h100v100H400z"/><path fill="#8a8583" d="M500 400h100v100H500z"/><path fill="#928c89" d="M600 400h100v100H600z"/><path fill="#5e5b5c" d="M700 400h100v100H700z"/><path fill="#84736f" d="M0 500h100v100H0z"/><path fill="#7e716b" d="M100 500h100v100H100z"/><path fill="#7a726e" d="M200 500h100v100H200z"/><path fill="#7d7877" d="M300 500h100v100H300z"/><path fill="#767175" d="M400 500h100v100H400z"/><path fill="#838183" d="M500 500h100v100H500z"/><path fill="#868385" d="M600 500h100v100H600z"/><path fill="#8e8b8e" d="M700 500h100v100H700z"/></svg>