<svg xmlns="http://www.w3.org/2000/svg" viewBox="0 0 800 600"><defs/><path fill="#ddd5c5" d="M0 0h100v100H0z"/><path fill="#dbd2c6" d="M100 0h100v100H100z"/><path fill="#dcd2c5" d="M200 0h100v100H200z"/><path fill="#dbcec0" d="M300 0h100v100H300z"/><path fill="#d9cbba" d="M400 0h100v100H400z"/><path fill="#cfc4b4" d="M500 0h100v100H500z"/><path fill="#c2baac" d="M600 0h100v100H600z"/><path fill="#cbc8bc" d="M700 0h100v100H700z"/><path fill="#d9d3cc" d="M0 100h100v100H0z"/><path fill="#cec3bb" d="M100 100h100v100H100z"/><path fill="#d9d1c8" d="M200 100h100v100H200z"/><path fill="#ccbdb1" d="M300 100h100v100H300z"/><path fill="#d2c3b5" d="M400 100h100v100H400z"/><path fill="#c0b3a6" d="M500 100h100v100H500z"/><path fill="#928279" d="M600 100h100v100H600z"/><path fill="#c3bdb3" d="M700 100h100v100H700z"/><path fill="#cec7c1" d="M0 200h100v100H0z"/><path fill="#cfc7bc" d="M100 200h100v100H100z"/><path fill="#c5bbae" d="M200 200h100v100H200z"/><path fill="#c8b6aa" d="M300 200h100v100H300z"/><path fill="#cebeb3" d="M400 200h100v100H400z"/><path fill="#b6a69b" d="M500 200h100v100H500z"/><path fill="#88786e" d="M600 200h100v100H600z"/><path fill="#bdb8ae" d="M700 200h100v100H700z"/><path fill="#c5beb8" d="M0 300h100v100H0z"/><path fill="#c6b9ac" d="M100 300h100v100H100z"/><path fill="#c6b5a5" d="M200 300h100v100H200z"/><path fill="#bda995" d="M300 300h100v100H300z"/><path fill="#baa89f" d="M400 300h100v100H400z"/><path fill="#ac948b" d="M500 300h100v100H500z"/><path fill="#807767" d="M600 300h100v100H600z"/><path fill="#ada99b" d="M700 300h100v100H700z"/><path fill="#bbb2aa" d="M0 400h100v100H0z"/><path fill="#b1a598" d="M100 400h100v100H100z"/><path fill="#a49691" d="M200 400h100v100H200z"/><path fill="#a59184" d="M300 400h100v100H300z"/><path fill="#ab9b8f" d="M400 400h100v100H400z"/><path fill="#a28c83" d="M500 400h100v100H500z"/><path fill="#807b68" d="M600 400h100v100H600z"/><path fill="#9a9483" d="M700 400h100v100H700z"/><path fill="#c1bdb2" d="M0 500h100v100H0z"/><path fill="#bab3a5" d="M100 500h100v100H100z"/><path fill="#b5aca0" d="M200 500h100v100H200z"/><path fill="#b8aa9d" d="M300 500h100v100H300z"/><path fill="#b0a495" d="M400 500h100v100H400z"/><path fill="#aca394" d="M500 500h100v100H500z"/><path fill="#aea395" d="M600 500h100v100H600z"/><path fill="#a8a090" d="M700 500h100v100H700z"/></svg>