<svg xmlns="http://www.w3.org/2000/svg" viewBox="0 0 800 400"><defs/><path fill="#a0cde5" d="M0 0h100v100H0z"/><path fill="#97bdef" d="M100 0h100v100H100z"/><path fill="#dbe1df" d="M200 0h100v100H200z"/><path fill="#bdebe4" d="M300 0h100v100H300z"/><path fill="#a599a9" d="M400 0h100v100H400z"/><path fill="#d7c3e4" d="M500 0h100v100H500z"/><path fill="#f5e7fa" d="M600 0h100v100H600z"/><path fill="#fcfcfd" d="M700 0h100v100H700z"/><path fill="#9dc5e3" d="M0 100h100v100H0z"/><path fill="#b3c9ed" d="M100 100h100v100H100z"/><path fill="#e0ddc6" d="M200 100h100v100H200z"/><path fill="#bad7bc" d="M300 100h100v100H300z"/><path fill="#998f98" d="M400 100h100v100H400z"/><path fill="#a5afd9" d="M500 100h100v100H500z"/><path fill="#c5d5ef" d="M600 100h100v100H600z"/><path fill="#e5f5fb" d="M700 100h100v100H700z"/><path fill="#9fc8fb" d="M0 200h100v100H0z"/><path fill="#7da7ca" d="M100 200h100v100H100z"/><path fill="#907f63" d="M200 200h100v100H200z"/><path fill="#8b979d" d="M300 200h100v100H300z"/><path fill="#5383b9" d="M400 200h100v100H400z"/><path fill="#73b3ec" d="M500 200h100v100H500z"/><path fill="#a3cccc" d="M600 200h100v100H600z"/><path fill="#c9e6ef" d="M700 200h100v100H700z"/><path fill="#63a9ee" d="M0 300h100v100H0z"/><path fill="#3da0f7" d="M100 300h100v100H100z"/><path fill="#2f88dc" d="M200 300h100v100H200z"/><path fill="#309bf6" d="M300 300h100v100H300z"/><path fill="#33a4ff" d="M400 300h100v100H400z"/><path fill="#359df6" d="M500 300h100v100H500z"/><path fill="#38a8f8" d="M600 300h100v100H600z"/><path fill="#7bc4f8" d="M700 300h100v100H700z"/></svg>