<svg xmlns="http://www.w3.org/2000/svg" viewBox="0 0 800 600"><defs/><path fill="#2c2624" d="M0 0h100v100H0z"/><path fill="#807a76" d="M100 0h100v100H100z"/><path fill="#7c7672" d="M200 0h100v100H200z"/><path fill="#79726e" d="M300 0h100v100H300z"/><path fill="#76726d" d="M400 0h100v100H400z"/><path fill="#736f6a" d="M500 0h100v100H500z"/><path fill="#6c6760" d="M600 0h100v100H600z"/><path fill="#666159" d="M700 0h100v100H700z"/><path fill="#282525" d="M0 100h100v100H0z"/><path fill="#6b6872" d="M100 100h100v100H100z"/><path fill="#93929c" d="M200 100h100v100H200z"/><path fill="#84838d" d="M300 100h100v100H300z"/><path fill="#796763" d="M400 100h100v100H400z"/><path fill="#745d55" d="M500 100h100v100H500z"/><path fill="#746b6e" d="M600 100h100v100H600z"/><path fill="#72727f" d="M700 100h100v100H700z"/><path fill="#767471" d="M0 200h100v100H0z"/><path fill="#6c696e" d="M100 200h100v100H100z"/><path fill="#a3a3ab" d="M200 200h100v100H200z"/><path fill="#939096" d="M300 200h100v100H300z"/><path fill="#7f5431" d="M400 200h100v100H400z"/><path fill="#743805" d="M500 200h100v100H500z"/><path fill="#7d6858" d="M600 200h100v100H600z"/><path fill="#7b7d88" d="M700 200h100v100H700z"/><path fill="#b6b6b3" d="M0 300h100v100H0z"/><path fill="#b1b1b7" d="M100 300h100v100H100z"/><path fill="#acafb7" d="M200 300h100v100H200z"/><path fill="#8a99a8" d="M300 300h100v100H300z"/><path fill="#79736f" d="M400 300h100v100H400z"/><path fill="#736962" d="M500 300h100v100H500z"/><path fill="#727a84" d="M600 300h100v100H600z"/><path fill="#808692" d="M700 300h100v100H700z"/><path fill="#d1d1cd" d="M0 400h100v100H0z"/><path fill="#cccdd3" d="M100 400h100v100H100z"/><path fill="#b9c1c9" d="M200 400h100v100H200z"/><path fill="#a2b1c0" d="M300 400h100v100H300z"/><path fill="#98aabc" d="M400 400h100v100H400z"/><path fill="#93a5b9" d="M500 400h100v100H500z"/><path fill="#8898aa" d="M600 400h100v100H600z"/><path fill="#86919d" d="M700 400h100v100H700z"/><path fill="#f5f7f2" d="M0 500h100v100H0z"/><path fill="#f0f3f0" d="M100 500h100v100H100z"/><path fill="#e9eae4" d="M200 500h100v100H200z"/><path fill="#dddcd9" d="M300 500h100v100H300z"/><path fill="#cfcecb" d="M400 500h100v100H400z"/><path fill="#c2c0bd" d="M500 500h100v100H500z"/><path fill="#b5b6b5" d="M600 500h100v100H600z"/><path fill="#a2a6a3" d="M700 500h100v100H700z"/></svg>