<svg xmlns="http://www.w3.org/2000/svg" viewBox="0 0 800 500"><defs/><path fill="#bdb2a7" d="M0 0h100v100H0z"/><path fill="#a3998b" d="M100 0h100v100H100z"/><path fill="#979187" d="M200 0h100v100H200z"/><path fill="#a39689" d="M300 0h100v100H300z"/><path fill="#a69a8f" d="M400 0h100v100H400z"/><path fill="#b8ae9f" d="M500 0h100v100H500z"/><path fill="#dccfba" d="M600 0h100v100H600z"/><path fill="#f4eadc" d="M700 0h100v100H700z"/><path fill="#887560" d="M0 100h100v100H0z"/><path fill="#5c442c" d="M100 100h100v100H100z"/><path fill="#3f3424" d="M200 100h100v100H200z"/><path fill="#573e28" d="M300 100h100v100H300z"/><path fill="#5e4831" d="M400 100h100v100H400z"/><path fill="#79644f" d="M500 100h100v100H500z"/><path fill="#ae977d" d="M600 100h100v100H600z"/><path fill="#e8d3c2" d="M700 100h100v100H700z"/><path fill="#947f71" d="M0 200h100v100H0z"/><path fill="#6f5241" d="M100 200h100v100H100z"/><path fill="#433a35" d="M200 200h100v100H200z"/><path fill="#523f36" d="M300 200h100v100H300z"/><path fill="#7d6454" d="M400 200h100v100H400z"/><path fill="#7e6a58" d="M500 200h100v100H500z"/><path fill="#9d8672" d="M600 200h100v100H600z"/><path fill="#d2c0b1" d="M700 200h100v100H700z"/><path fill="#938476" d="M0 300h100v100H0z"/><path fill="#66503b" d="M100 300h100v100H100z"/><path fill="#483f30" d="M200 300h100v100H200z"/><path fill="#514a3b" d="M300 300h100v100H300z"/><path fill="#615846" d="M400 300h100v100H400z"/><path fill="#6c614d" d="M500 300h100v100H500z"/><path fill="#836f51" d="M600 300h100v100H600z"/><path fill="#b5a391" d="M700 300h100v100H700z"/><path fill="#bdb5ac" d="M0 400h100v100H0z"/><path fill="#a4968c" d="M100 400h100v100H100z"/><path fill="#a79c8c" d="M200 400h100v100H200z"/><path fill="#b0a594" d="M300 400h100v100H300z"/><path fill="#b3aa98" d="M400 400h100v100H400z"/><path fill="#afa89b" d="M500 400h100v100H500z"/><path fill="#b0a798" d="M600 400h100v100H600z"/><path fill="#cdc2b8" d="M700 400h100v100H700z"/></svg>