<svg xmlns="http://www.w3.org/2000/svg" viewBox="0 0 800 400"><defs/><path fill="#a7a7b2" d="M0 0h100v100H0z"/><path fill="#684144" d="M100 0h100v100H100z"/><path fill="#8d8792" d="M200 0h100v100H200z"/><path fill="#8f919c" d="M300 0h100v100H300z"/><path fill="#a09fad" d="M400 0h100v100H400z"/><path fill="#93a1ae" d="M500 0h100v100H500z"/><path fill="#788d86" d="M600 0h100v100H600z"/><path fill="#898d8b" d="M700 0h100v100H700z"/><path fill="#837779" d="M0 100h100v100H0z"/><path fill="#55252a" d="M100 100h100v100H100z"/><path fill="#676878" d="M200 100h100v100H200z"/><path fill="#43353e" d="M300 100h100v100H300z"/><path fill="#3a4746" d="M400 100h100v100H400z"/><path fill="#4d6e66" d="M500 100h100v100H500z"/><path fill="#6d707a" d="M600 100h100v100H600z"/><path fill="#6d6d69" d="M700 100h100v100H700z"/><path fill="#806a73" d="M0 200h100v100H0z"/><path fill="#5d2e2f" d="M100 200h100v100H100z"/><path fill="#949087" d="M200 200h100v100H200z"/><path fill="#80766e" d="M300 200h100v100H300z"/><path fill="#7b8271" d="M400 200h100v100H400z"/><path fill="#4c3832" d="M500 200h100v100H500z"/><path fill="#443638" d="M600 200h100v100H600z"/><path fill="#5b5053" d="M700 200h100v100H700z"/><path fill="#78575e" d="M0 300h100v100H0z"/><path fill="#977056" d="M100 300h100v100H100z"/><path fill="#d9cfaf" d="M200 300h100v100H200z"/><path fill="#c0b6ad" d="M300 300h100v100H300z"/><path fill="#f5e7c2" d="M400 300h100v100H400z"/><path fill="#aa8373" d="M500 300h100v100H500z"/><path fill="#83705c" d="M600 300h100v100H600z"/><path fill="#6f4f51" d="M700 300h100v100H700z"/></svg>