<svg xmlns="http://www.w3.org/2000/svg" viewBox="0 0 800 600"><defs/><path fill="#d7d6d8" d="M0 0h100v100H0z"/><path fill="#c5acc1" d="M100 0h100v100H100z"/><path fill="#d6d2d8" d="M200 0h100v100H200z"/><path fill="#d7d7d7" d="M300 0h100v100H300z"/><path fill="#d6d3d4" d="M400 0h100v100H400z"/><path fill="#dddee1" d="M500 0h100v100H500z"/><path fill="#d9dadd" d="M600 0h100v100H600z"/><path fill="#d4d7db" d="M700 0h100v100H700z"/><path fill="#cac2c9" d="M0 100h100v100H0z"/><path fill="#934879" d="M100 100h100v100H100z"/><path fill="#c8c4ca" d="M200 100h100v100H200z"/><path fill="#cfcac8" d="M300 100h100v100H300z"/><path fill="#c8bbba" d="M400 100h100v100H400z"/><path fill="#d5d3d5" d="M500 100h100v100H500z"/><path fill="#d4d3d5" d="M600 100h100v100H600z"/><path fill="#d2d2d5" d="M700 100h100v100H700z"/><path fill="#c2acbd" d="M0 200h100v100H0z"/><path fill="#924f7b" d="M100 200h100v100H100z"/><path fill="#ced1ce" d="M200 200h100v100H200z"/><path fill="#d2ccd1" d="M300 200h100v100H300z"/><path fill="#d4d0d0" d="M400 200h100v100H400z"/><path fill="#d9d5d7" d="M500 200h100v100H500z"/><path fill="#ccccc8" d="M600 200h100v100H600z"/><path fill="#cacbcb" d="M700 200h100v100H700z"/><path fill="#af81a3" d="M0 300h100v100H0z"/><path fill="#905b83" d="M100 300h100v100H100z"/><path fill="#b6c3c2" d="M200 300h100v100H200z"/><path fill="#b8b9b9" d="M300 300h100v100H300z"/><path fill="#c6bdbf" d="M400 300h100v100H400z"/><path fill="#cab9bd" d="M500 300h100v100H500z"/><path fill="#c5bfc1" d="M600 300h100v100H600z"/><path fill="#c6c5c7" d="M700 300h100v100H700z"/><path fill="#ac829f" d="M0 400h100v100H0z"/><path fill="#a1889e" d="M100 400h100v100H100z"/><path fill="#77a5b3" d="M200 400h100v100H200z"/><path fill="#7fa0a3" d="M300 400h100v100H300z"/><path fill="#9f999e" d="M400 400h100v100H400z"/><path fill="#b39195" d="M500 400h100v100H500z"/><path fill="#b9a6a6" d="M600 400h100v100H600z"/><path fill="#bfbec0" d="M700 400h100v100H700z"/><path fill="#d6d8d9" d="M0 500h100v100H0z"/><path fill="#d5d6d8" d="M100 500h100v100H100z"/><path fill="#c8cace" d="M200 500h100v100H200z"/><path fill="#c8cbcf" d="M300 500h100v100H300z"/><path fill="#cfd0d3" d="M400 500h100v100H400z"/><path fill="#d1d0d1" d="M500 500h100v100H500z"/><path fill="#d4d3d3" d="M600 500h100v100H600z"/><path fill="#d4d6d8" d="M700 500h100v100H700z"/></svg>