<svg xmlns="http://www.w3.org/2000/svg" viewBox="0 0 800 600"><defs/><path fill="#f0efea" d="M0 0h100v100H0z"/><path fill="#efeee8" d="M100 0h100v100H100z"/><path fill="#f3efec" d="M200 0h100v100H200z"/><path fill="#f3f0ef" d="M300 0h100v100H300z"/><path fill="#efece6" d="M400 0h100v100H400z"/><path fill="#edeae0" d="M500 0h100v100H500z"/><path fill="#f1eeeb" d="M600 0h100v100H600z"/><path fill="#f3f3ef" d="M700 0h100v100H700z"/><path fill="#e9e8df" d="M0 100h100v100H0z"/><path fill="#e7dfd5" d="M100 100h100v100H100z"/><path fill="#eee6c8" d="M200 100h100v100H200z"/><path fill="#f3f1e4" d="M300 100h100v100H300z"/><path fill="#ede7c8" d="M400 100h100v100H400z"/><path fill="#e5dbd2" d="M500 100h100v100H500z"/><path fill="#efebd4" d="M600 100h100v100H600z"/><path fill="#e9ece7" d="M700 100h100v100H700z"/><path fill="#ebe7e0" d="M0 200h100v100H0z"/><path fill="#dfd3c9" d="M100 200h100v100H100z"/><path fill="#d8d2c1" d="M200 200h100v100H200z"/><path fill="#ede6da" d="M300 200h100v100H300z"/><path fill="#eee9cd" d="M400 200h100v100H400z"/><path fill="#e6e3e4" d="M500 200h100v100H500z"/><path fill="#d8d1c2" d="M600 200h100v100H600z"/><path fill="#dcddd9" d="M700 200h100v100H700z"/><path fill="#e6e3d8" d="M0 300h100v100H0z"/><path fill="#dfd9d2" d="M100 300h100v100H100z"/><path fill="#cfc8c4" d="M200 300h100v100H200z"/><path fill="#e5d6d4" d="M300 300h100v100H300z"/><path fill="#e8e0d8" d="M400 300h100v100H400z"/><path fill="#e7e2e4" d="M500 300h100v100H500z"/><path fill="#dbd8c7" d="M600 300h100v100H600z"/><path fill="#dfdfcd" d="M700 300h100v100H700z"/><path fill="#e8e4de" d="M0 400h100v100H0z"/><path fill="#e4e1d5" d="M100 400h100v100H100z"/><path fill="#dacec2" d="M200 400h100v100H200z"/><path fill="#dfd0cd" d="M300 400h100v100H300z"/><path fill="#eae5ea" d="M400 400h100v100H400z"/><path fill="#e7e3e8" d="M500 400h100v100H500z"/><path fill="#dbdbaf" d="M600 400h100v100H600z"/><path fill="#cfcfbb" d="M700 400h100v100H700z"/><path fill="#edefeb" d="M0 500h100v100H0z"/><path fill="#eeede8" d="M100 500h100v100H100z"/><path fill="#f0ecea" d="M200 500h100v100H200z"/><path fill="#efe8ea" d="M300 500h100v100H300z"/><path fill="#ede7ea" d="M400 500h100v100H400z"/><path fill="#e9e5e8" d="M500 500h100v100H500z"/><path fill="#e2e0e2" d="M600 500h100v100H600z"/><path fill="#dcdbdc" d="M700 500h100v100H700z"/></svg>