<svg xmlns="http://www.w3.org/2000/svg" viewBox="0 0 800 600"><defs/><path fill="#f8f8f9" d="M0 0h100v100H0z"/><path fill="#f3f3f5" d="M100 0h100v100H100z"/><path fill="#f5f4f7" d="M200 0h100v100H200z"/><path fill="#f9f8fb" d="M300 0h100v100H300z"/><path fill="#fdfdfd" d="M400 0h100v100H400z"/><path fill="#f5f5f6" d="M500 0h100v100H500z"/><path fill="#f7f7f7" d="M600 0h100v100H600z"/><path fill="#fbfbfb" d="M700 0h100v100H700z"/><path fill="#eeeeef" d="M0 100h100v100H0z"/><path fill="#cccbcf" d="M100 100h100v100H100z"/><path fill="#f2f1f3" d="M200 100h100v100H200z"/><path fill="#f1f1f4" d="M300 100h100v100H300z"/><path fill="#b2b0b6" d="M400 100h100v100H400z"/><path fill="#cfcdd3" d="M500 100h100v100H500z"/><path fill="#e7e6e8" d="M600 100h100v100H600z"/><path fill="#dededf" d="M700 100h100v100H700z"/><path fill="#e8e8ec" d="M0 200h100v100H0z"/><path fill="#d6d4d8" d="M100 200h100v100H100z"/><path fill="#f0eff2" d="M200 200h100v100H200z"/><path fill="#cecdd3" d="M300 200h100v100H300z"/><path fill="#939097" d="M400 200h100v100H400z"/><path fill="#cac8ce" d="M500 200h100v100H500z"/><path fill="#e1e1e5" d="M600 200h100v100H600z"/><path fill="#c9c7cb" d="M700 200h100v100H700z"/><path fill="#e5e4e8" d="M0 300h100v100H0z"/><path fill="#c6c5c9" d="M100 300h100v100H100z"/><path fill="#dbdadf" d="M200 300h100v100H200z"/><path fill="#c2bfc4" d="M300 300h100v100H300z"/><path fill="#e3e2e8" d="M400 300h100v100H400z"/><path fill="#d2d2d8" d="M500 300h100v100H500z"/><path fill="#e2e1e6" d="M600 300h100v100H600z"/><path fill="#eae9ed" d="M700 300h100v100H700z"/><path fill="#d9d7dd" d="M0 400h100v100H0z"/><path fill="#d0cdd4" d="M100 400h100v100H100z"/><path fill="#dadae1" d="M200 400h100v100H200z"/><path fill="#b6b5bc" d="M300 400h100v100H300z"/><path fill="#e9e8ef" d="M400 400h100v100H400z"/><path fill="#f5f4f9" d="M500 400h100v100H500z"/><path fill="#dddce2" d="M600 400h100v100H600z"/><path fill="#cdccd0" d="M700 400h100v100H700z"/><path fill="#f1f0f4" d="M0 500h100v100H0z"/><path fill="#f5f4fb" d="M100 500h100v100H100z"/><path fill="#e1e0e7" d="M200 500h100v100H200z"/><path fill="#c8c7ce" d="M300 500h100v100H300z"/><path fill="#f0eff5" d="M400 500h100v100H400z"/><path fill="#f5f4f9" d="M500 500h100v100H500z"/><path fill="#f5f3f7" d="M600 500h100v100H600z"/><path fill="#f7f6f9" d="M700 500h100v100H700z"/></svg>