<svg xmlns="http://www.w3.org/2000/svg" viewBox="0 0 800 500"><defs/><path fill="#aaaea9" d="M0 0h100v100H0z"/><path fill="#939c98" d="M100 0h100v100H100z"/><path fill="#a5aba8" d="M200 0h100v100H200z"/><path fill="#abb0ab" d="M300 0h100v100H300z"/><path fill="#a3a8a4" d="M400 0h100v100H400z"/><path fill="#9da19e" d="M500 0h100v100H500z"/><path fill="#8e9090" d="M600 0h100v100H600z"/><path fill="#807e7e" d="M700 0h100v100H700z"/><path fill="#aaafaa" d="M0 100h100v100H0z"/><path fill="#93908d" d="M100 100h100v100H100z"/><path fill="#a4a7a1" d="M200 100h100v100H200z"/><path fill="#aeb1ae" d="M300 100h100v100H300z"/><path fill="#a5a5a2" d="M400 100h100v100H400z"/><path fill="#8e8987" d="M500 100h100v100H500z"/><path fill="#817f80" d="M600 100h100v100H600z"/><path fill="#767373" d="M700 100h100v100H700z"/><path fill="#abb1aa" d="M0 200h100v100H0z"/><path fill="#a19b99" d="M100 200h100v100H100z"/><path fill="#a6a69f" d="M200 200h100v100H200z"/><path fill="#aaa8a6" d="M300 200h100v100H300z"/><path fill="#9d9498" d="M400 200h100v100H400z"/><path fill="#7f7977" d="M500 200h100v100H500z"/><path fill="#716a6b" d="M600 200h100v100H600z"/><path fill="#605757" d="M700 200h100v100H700z"/><path fill="#a1a39c" d="M0 300h100v100H0z"/><path fill="#969490" d="M100 300h100v100H100z"/><path fill="#adaea6" d="M200 300h100v100H200z"/><path fill="#aca5a3" d="M300 300h100v100H300z"/><path fill="#989091" d="M400 300h100v100H400z"/><path fill="#787776" d="M500 300h100v100H500z"/><path fill="#6f6a6d" d="M600 300h100v100H600z"/><path fill="#625a5c" d="M700 300h100v100H700z"/><path fill="#9a9d94" d="M0 400h100v100H0z"/><path fill="#9b9f98" d="M100 400h100v100H100z"/><path fill="#aab0aa" d="M200 400h100v100H200z"/><path fill="#a5aaa4" d="M300 400h100v100H300z"/><path fill="#959694" d="M400 400h100v100H400z"/><path fill="#767377" d="M500 400h100v100H500z"/><path fill="#6d6b70" d="M600 400h100v100H600z"/><path fill="#717074" d="M700 400h100v100H700z"/></svg>