<svg xmlns="http://www.w3.org/2000/svg" viewBox="0 0 800 600"><defs/><path fill="#cdc8b3" d="M0 0h100v100H0z"/><path fill="#dad6c5" d="M100 0h100v100H100z"/><path fill="#e3ded4" d="M200 0h100v100H200z"/><path fill="#e5e0d7" d="M300 0h100v100H300z"/><path fill="#e4ded6" d="M400 0h100v100H400z"/><path fill="#e4dfd8" d="M500 0h100v100H500z"/><path fill="#e4dfd6" d="M600 0h100v100H600z"/><path fill="#e3dbca" d="M700 0h100v100H700z"/><path fill="#beb7a8" d="M0 100h100v100H0z"/><path fill="#b4ad9f" d="M100 100h100v100H100z"/><path fill="#d2cac1" d="M200 100h100v100H200z"/><path fill="#d0c7bf" d="M300 100h100v100H300z"/><path fill="#cfc6bb" d="M400 100h100v100H400z"/><path fill="#d0c6b9" d="M500 100h100v100H500z"/><path fill="#d4cbc2" d="M600 100h100v100H600z"/><path fill="#cac5b8" d="M700 100h100v100H700z"/><path fill="#c4beb1" d="M0 200h100v100H0z"/><path fill="#b6b0a7" d="M100 200h100v100H100z"/><path fill="#d7cfc6" d="M200 200h100v100H200z"/><path fill="#ddd5d2" d="M300 200h100v100H300z"/><path fill="#dfd1a1" d="M400 200h100v100H400z"/><path fill="#cfc3a1" d="M500 200h100v100H500z"/><path fill="#d3cdca" d="M600 200h100v100H600z"/><path fill="#dad1c3" d="M700 200h100v100H700z"/><path fill="#b3aca0" d="M0 300h100v100H0z"/><path fill="#a59d90" d="M100 300h100v100H100z"/><path fill="#ccc0b7" d="M200 300h100v100H200z"/><path fill="#d1c7ba" d="M300 300h100v100H300z"/><path fill="#d6c9a0" d="M400 300h100v100H400z"/><path fill="#c5bdad" d="M500 300h100v100H500z"/><path fill="#bdb6b3" d="M600 300h100v100H600z"/><path fill="#c9baab" d="M700 300h100v100H700z"/><path fill="#a09b90" d="M0 400h100v100H0z"/><path fill="#b3a599" d="M100 400h100v100H100z"/><path fill="#c6b4a8" d="M200 400h100v100H200z"/><path fill="#c6c1bc" d="M300 400h100v100H300z"/><path fill="#cec7c4" d="M400 400h100v100H400z"/><path fill="#d9d5d0" d="M500 400h100v100H500z"/><path fill="#d3cdc9" d="M600 400h100v100H600z"/><path fill="#c6c2ba" d="M700 400h100v100H700z"/><path fill="#b0a897" d="M0 500h100v100H0z"/><path fill="#bdb7ac" d="M100 500h100v100H100z"/><path fill="#c0bbb4" d="M200 500h100v100H200z"/><path fill="#afa8a4" d="M300 500h100v100H300z"/><path fill="#a9a5a1" d="M400 500h100v100H400z"/><path fill="#aaa7a4" d="M500 500h100v100H500z"/><path fill="#a9a9a4" d="M600 500h100v100H600z"/><path fill="#aaa79b" d="M700 500h100v100H700z"/></svg>