<svg xmlns="http://www.w3.org/2000/svg" viewBox="0 0 800 700"><defs/><path fill="#fff" d="M0 0h100v100H0zm100 0h100v100H100zm100 0h100v100H200zm100 0h100v100H300zm100 0h100v100H400zm100 0h100v100H500zm100 0h100v100H600zm100 0h100v100H700z"/><path fill="#d4d7db" d="M0 100h100v100H0z"/><path fill="#c4c8cc" d="M100 100h100v100H100z"/><path fill="#cccfd4" d="M200 100h100v100H200z"/><path fill="#ced2d7" d="M300 100h100v100H300z"/><path fill="#c8cdd0" d="M400 100h100v100H400zm100 0h100v100H500z"/><path fill="#c8cbca" d="M600 100h100v100H600z"/><path fill="#cfcccc" d="M700 100h100v100H700z"/><path fill="#666b75" d="M0 200h100v100H0z"/><path fill="#2f384b" d="M100 200h100v100H100z"/><path fill="#2c3b4a" d="M200 200h100v100H200z"/><path fill="#343c4b" d="M300 200h100v100H300z"/><path fill="#495351" d="M400 200h100v100H400z"/><path fill="#4a4a4a" d="M500 200h100v100H500z"/><path fill="#8b7472" d="M600 200h100v100H600z"/><path fill="#8e8b7e" d="M700 200h100v100H700z"/><path fill="#727782" d="M0 300h100v100H0z"/><path fill="#484a5a" d="M100 300h100v100H100z"/><path fill="#435561" d="M200 300h100v100H200z"/><path fill="#61675e" d="M300 300h100v100H300z"/><path fill="#8b7963" d="M400 300h100v100H400z"/><path fill="#878374" d="M500 300h100v100H500z"/><path fill="#bfb1a5" d="M600 300h100v100H600z"/><path fill="#928979" d="M700 300h100v100H700z"/><path fill="#616a75" d="M0 400h100v100H0z"/><path fill="#444b62" d="M100 400h100v100H100z"/><path fill="#5a6273" d="M200 400h100v100H200z"/><path fill="#4c5148" d="M300 400h100v100H300z"/><path fill="#5c5646" d="M400 400h100v100H400z"/><path fill="#505e52" d="M500 400h100v100H500z"/><path fill="#474237" d="M600 400h100v100H600z"/><path fill="#5f5144" d="M700 400h100v100H700z"/><path fill="#b3b8bc" d="M0 500h100v100H0z"/><path fill="#a1a9b5" d="M100 500h100v100H100z"/><path fill="#a4a7b3" d="M200 500h100v100H200z"/><path fill="#90959a" d="M300 500h100v100H300z"/><path fill="#949592" d="M400 500h100v100H400z"/><path fill="#95908a" d="M500 500h100v100H500z"/><path fill="#8c8b89" d="M600 500h100v100H600z"/><path fill="#91978e" d="M700 500h100v100H700z"/><path fill="#fff" d="M0 600h100v100H0zm100 0h100v100H100zm100 0h100v100H200zm100 0h100v100H300zm100 0h100v100H400zm100 0h100v100H500zm100 0h100v100H600zm100 0h100v100H700z"/></svg>