<svg xmlns="http://www.w3.org/2000/svg" viewBox="0 0 800 600"><defs/><path fill="#97978b" d="M0 0h100v100H0z"/><path fill="#6d746b" d="M100 0h100v100H100z"/><path fill="#7b837f" d="M200 0h100v100H200z"/><path fill="#717873" d="M300 0h100v100H300z"/><path fill="#727672" d="M400 0h100v100H400z"/><path fill="#7d807a" d="M500 0h100v100H500z"/><path fill="#b0b1ac" d="M600 0h100v100H600z"/><path fill="#aeaeac" d="M700 0h100v100H700z"/><path fill="#f4f4e3" d="M0 100h100v100H0z"/><path fill="#85928b" d="M100 100h100v100H100z"/><path fill="#627676" d="M200 100h100v100H200z"/><path fill="#7f9594" d="M300 100h100v100H300z"/><path fill="#8ea3a1" d="M400 100h100v100H400z"/><path fill="#acb4a6" d="M500 100h100v100H500z"/><path fill="#f2f2ea" d="M600 100h100v100H600z"/><path fill="#f2f4f0" d="M700 100h100v100H700z"/><path fill="#efefde" d="M0 200h100v100H0z"/><path fill="#616159" d="M100 200h100v100H100z"/><path fill="#222b2d" d="M200 200h100v100H200z"/><path fill="#848883" d="M300 200h100v100H300z"/><path fill="#a0aaa8" d="M400 200h100v100H400z"/><path fill="#cbcac0" d="M500 200h100v100H500z"/><path fill="#a8ada6" d="M600 200h100v100H600z"/><path fill="#5a6363" d="M700 200h100v100H700z"/><path fill="#f1f2e0" d="M0 300h100v100H0z"/><path fill="#6a6c63" d="M100 300h100v100H100z"/><path fill="#313637" d="M200 300h100v100H200z"/><path fill="#8a867d" d="M300 300h100v100H300z"/><path fill="#858b8a" d="M400 300h100v100H400z"/><path fill="#9f9d97" d="M500 300h100v100H500z"/><path fill="#9c9e98" d="M600 300h100v100H600z"/><path fill="#808584" d="M700 300h100v100H700z"/><path fill="#ebebdc" d="M0 400h100v100H0z"/><path fill="#797a6e" d="M100 400h100v100H100z"/><path fill="#515d5d" d="M200 400h100v100H200z"/><path fill="#737d77" d="M300 400h100v100H300z"/><path fill="#817977" d="M400 400h100v100H400z"/><path fill="#8a887e" d="M500 400h100v100H500z"/><path fill="#e5e7e2" d="M600 400h100v100H600z"/><path fill="#fff" d="M700 400h100v100H700z"/><path fill="#e5e5d7" d="M0 500h100v100H0z"/><path fill="#a1aa9e" d="M100 500h100v100H100z"/><path fill="#8c938e" d="M200 500h100v100H200z"/><path fill="#959f99" d="M300 500h100v100H300z"/><path fill="#a1a9a9" d="M400 500h100v100H400z"/><path fill="#c2c2be" d="M500 500h100v100H500z"/><path fill="#c1c5c1" d="M600 500h100v100H600z"/><path fill="#a3a9a7" d="M700 500h100v100H700z"/></svg>