<svg xmlns="http://www.w3.org/2000/svg" viewBox="0 0 800 500"><defs/><path fill="#dff6ff" d="M0 0h100v100H0z"/><path fill="#a4b2bc" d="M100 0h100v100H100z"/><path fill="#35675d" d="M200 0h100v100H200z"/><path fill="#32a28c" d="M300 0h100v100H300z"/><path fill="#349f8a" d="M400 0h100v100H400z"/><path fill="#11aea1" d="M500 0h100v100H500z"/><path fill="#4fb3a4" d="M600 0h100v100H600z"/><path fill="#d3d5d8" d="M700 0h100v100H700z"/><path fill="#dcefff" d="M0 100h100v100H0z"/><path fill="#827a7f" d="M100 100h100v100H100z"/><path fill="#684d41" d="M200 100h100v100H200z"/><path fill="#5b8888" d="M300 100h100v100H300z"/><path fill="#2ca39f" d="M400 100h100v100H400z"/><path fill="#14a997" d="M500 100h100v100H500z"/><path fill="#3ea899" d="M600 100h100v100H600z"/><path fill="#b2a59f" d="M700 100h100v100H700z"/><path fill="#c9d5e5" d="M0 200h100v100H0z"/><path fill="#604f4b" d="M100 200h100v100H100z"/><path fill="#7f534a" d="M200 200h100v100H200z"/><path fill="#4a7661" d="M300 200h100v100H300z"/><path fill="#169682" d="M400 200h100v100H400z"/><path fill="#317e76" d="M500 200h100v100H500z"/><path fill="#688b7c" d="M600 200h100v100H600z"/><path fill="#9f988b" d="M700 200h100v100H700z"/><path fill="#9895a4" d="M0 300h100v100H0z"/><path fill="#75552a" d="M100 300h100v100H100z"/><path fill="#a7834b" d="M200 300h100v100H200z"/><path fill="#806d51" d="M300 300h100v100H300z"/><path fill="#aa7d3a" d="M400 300h100v100H400z"/><path fill="#6f6b78" d="M500 300h100v100H500z"/><path fill="#656c81" d="M600 300h100v100H600z"/><path fill="#afaaab" d="M700 300h100v100H700z"/><path fill="#715852" d="M0 400h100v100H0z"/><path fill="#ab7027" d="M100 400h100v100H100z"/><path fill="#c48e41" d="M200 400h100v100H200z"/><path fill="#9b6c47" d="M300 400h100v100H300z"/><path fill="#b17345" d="M400 400h100v100H400z"/><path fill="#76492d" d="M500 400h100v100H500z"/><path fill="#4d341d" d="M600 400h100v100H600z"/><path fill="#b69681" d="M700 400h100v100H700z"/></svg>