<svg xmlns="http://www.w3.org/2000/svg" viewBox="0 0 800 500"><defs/><path fill="#dff8ff" d="M0 0h100v100H0z"/><path fill="#9ba5ad" d="M100 0h100v100H100z"/><path fill="#33695c" d="M200 0h100v100H200z"/><path fill="#3ca18b" d="M300 0h100v100H300z"/><path fill="#32a08d" d="M400 0h100v100H400z"/><path fill="#10ad9f" d="M500 0h100v100H500z"/><path fill="#61b7aa" d="M600 0h100v100H600z"/><path fill="#d1d1d2" d="M700 0h100v100H700z"/><path fill="#d6eafd" d="M0 100h100v100H0z"/><path fill="#796f72" d="M100 100h100v100H100z"/><path fill="#6e4c41" d="M200 100h100v100H200z"/><path fill="#4c898d" d="M300 100h100v100H300z"/><path fill="#22a29d" d="M400 100h100v100H400z"/><path fill="#14a694" d="M500 100h100v100H500z"/><path fill="#4da393" d="M600 100h100v100H600z"/><path fill="#b5a59e" d="M700 100h100v100H700z"/><path fill="#bec7d6" d="M0 200h100v100H0z"/><path fill="#5d4a44" d="M100 200h100v100H100z"/><path fill="#845647" d="M200 200h100v100H200z"/><path fill="#48755b" d="M300 200h100v100H300z"/><path fill="#299279" d="M400 200h100v100H400z"/><path fill="#40756e" d="M500 200h100v100H500z"/><path fill="#748d82" d="M600 200h100v100H600z"/><path fill="#a59b92" d="M700 200h100v100H700z"/><path fill="#897f8b" d="M0 300h100v100H0z"/><path fill="#856026" d="M100 300h100v100H100z"/><path fill="#ab894c" d="M200 300h100v100H200z"/><path fill="#876d4a" d="M300 300h100v100H300z"/><path fill="#b37c39" d="M400 300h100v100H400z"/><path fill="#5f5c6f" d="M500 300h100v100H500z"/><path fill="#626372" d="M600 300h100v100H600z"/><path fill="#b7b0af" d="M700 300h100v100H700z"/><path fill="#694c42" d="M0 400h100v100H0z"/><path fill="#b67524" d="M100 400h100v100H100z"/><path fill="#c18539" d="M200 400h100v100H200z"/><path fill="#a76945" d="M300 400h100v100H300z"/><path fill="#b56a3e" d="M400 400h100v100H400z"/><path fill="#754322" d="M500 400h100v100H500z"/><path fill="#633a17" d="M600 400h100v100H600z"/><path fill="#b99b89" d="M700 400h100v100H700z"/></svg>