<svg xmlns="http://www.w3.org/2000/svg" viewBox="0 0 800 400"><defs/><path fill="#7f3d2e" d="M0 0h100v100H0z"/><path fill="#6f291f" d="M100 0h100v100H100z"/><path fill="#9f3f30" d="M200 0h100v100H200z"/><path fill="#ae401d" d="M300 0h100v100H300z"/><path fill="#a4421f" d="M400 0h100v100H400z"/><path fill="#9d4930" d="M500 0h100v100H500z"/><path fill="#854b2f" d="M600 0h100v100H600z"/><path fill="#704b2d" d="M700 0h100v100H700z"/><path fill="#66291c" d="M0 100h100v100H0z"/><path fill="#783221" d="M100 100h100v100H100z"/><path fill="#b65132" d="M200 100h100v100H200z"/><path fill="#9d4720" d="M300 100h100v100H300z"/><path fill="#95401f" d="M400 100h100v100H400z"/><path fill="#9c3e27" d="M500 100h100v100H500z"/><path fill="#8b3922" d="M600 100h100v100H600z"/><path fill="#753922" d="M700 100h100v100H700z"/><path fill="#571f14" d="M0 200h100v100H0z"/><path fill="#782817" d="M100 200h100v100H100z"/><path fill="#ac4325" d="M200 200h100v100H200z"/><path fill="#7c2f16" d="M300 200h100v100H300z"/><path fill="#702e17" d="M400 200h100v100H400z"/><path fill="#963521" d="M500 200h100v100H500z"/><path fill="#86321b" d="M600 200h100v100H600z"/><path fill="#5b3f22" d="M700 200h100v100H700z"/><path fill="#582016" d="M0 300h100v100H0z"/><path fill="#5c2112" d="M100 300h100v100H100z"/><path fill="#652613" d="M200 300h100v100H200z"/><path fill="#581e0d" d="M300 300h100v100H300z"/><path fill="#5f2010" d="M400 300h100v100H400z"/><path fill="#752816" d="M500 300h100v100H500z"/><path fill="#602614" d="M600 300h100v100H600z"/><path fill="#543720" d="M700 300h100v100H700z"/></svg>