<svg xmlns="http://www.w3.org/2000/svg" viewBox="0 0 800 400"><defs/><path fill="#858b84" d="M0 0h100v100H0z"/><path fill="#707270" d="M100 0h100v100H100z"/><path fill="#474647" d="M200 0h100v100H200z"/><path fill="#373737" d="M300 0h100v100H300z"/><path fill="#262626" d="M400 0h100v100H400z"/><path fill="#414141" d="M500 0h100v100H500z"/><path fill="#363636" d="M600 0h100v100H600z"/><path fill="#656964" d="M700 0h100v100H700z"/><path fill="#888d87" d="M0 100h100v100H0z"/><path fill="#707271" d="M100 100h100v100H100z"/><path fill="#585859" d="M200 100h100v100H200z"/><path fill="#484848" d="M300 100h100v100H300z"/><path fill="#282828" d="M400 100h100v100H400z"/><path fill="#525353" d="M500 100h100v100H500z"/><path fill="#474847" d="M600 100h100v100H600z"/><path fill="#888b88" d="M700 100h100v100H700z"/><path fill="#8f968f" d="M0 200h100v100H0z"/><path fill="#6f706c" d="M100 200h100v100H100z"/><path fill="#3e3d3c" d="M200 200h100v100H200z"/><path fill="#40403f" d="M300 200h100v100H300z"/><path fill="#4e4e4e" d="M400 200h100v100H400z"/><path fill="#3f3e3d" d="M500 200h100v100H500z"/><path fill="#3a3835" d="M600 200h100v100H600z"/><path fill="#777975" d="M700 200h100v100H700z"/><path fill="#767771" d="M0 300h100v100H0z"/><path fill="#514c48" d="M100 300h100v100H100z"/><path fill="#4a4540" d="M200 300h100v100H200z"/><path fill="#45403b" d="M300 300h100v100H300z"/><path fill="#4a4743" d="M400 300h100v100H400z"/><path fill="#494541" d="M500 300h100v100H500z"/><path fill="#453f3a" d="M600 300h100v100H600z"/><path fill="#54524c" d="M700 300h100v100H700z"/></svg>