<svg xmlns="http://www.w3.org/2000/svg" viewBox="0 0 800 600"><defs/><path fill="#e8e9ea" d="M0 0h100v100H0z"/><path fill="#e4e5e9" d="M100 0h100v100H100z"/><path fill="#e3e5e9" d="M200 0h100v100H200z"/><path fill="#e6e7ea" d="M300 0h100v100H300z"/><path fill="#e8e8ea" d="M400 0h100v100H400z"/><path fill="#e9e9ea" d="M500 0h100v100H500z"/><path fill="#ecebeb" d="M600 0h100v100H600z"/><path fill="#e9e9ea" d="M700 0h100v100H700z"/><path fill="#ced2e3" d="M0 100h100v100H0z"/><path fill="#8f9dd2" d="M100 100h100v100H100z"/><path fill="#b5bddb" d="M200 100h100v100H200z"/><path fill="#c7cde1" d="M300 100h100v100H300z"/><path fill="#d3d7e5" d="M400 100h100v100H400z"/><path fill="#d9dbe6" d="M500 100h100v100H500z"/><path fill="#a9b2d8" d="M600 100h100v100H600z"/><path fill="#b3bdda" d="M700 100h100v100H700z"/><path fill="#ccd0e3" d="M0 200h100v100H0z"/><path fill="#929fd2" d="M100 200h100v100H100z"/><path fill="#bfc6de" d="M200 200h100v100H200z"/><path fill="#b6bedb" d="M300 200h100v100H300z"/><path fill="#b5bedc" d="M400 200h100v100H400z"/><path fill="#c6cde1" d="M500 200h100v100H500z"/><path fill="#7f8ecd" d="M600 200h100v100H600z"/><path fill="#9da9d4" d="M700 200h100v100H700z"/><path fill="#b6bddd" d="M0 300h100v100H0z"/><path fill="#8d9ad0" d="M100 300h100v100H100z"/><path fill="#9aa5d4" d="M200 300h100v100H200z"/><path fill="#99a5d3" d="M300 300h100v100H300z"/><path fill="#adb6da" d="M400 300h100v100H400z"/><path fill="#b0b9db" d="M500 300h100v100H500z"/><path fill="#a0abd5" d="M600 300h100v100H600z"/><path fill="#afb7d9" d="M700 300h100v100H700z"/><path fill="#aab3d8" d="M0 400h100v100H0z"/><path fill="#909dd1" d="M100 400h100v100H100z"/><path fill="#b8bfde" d="M200 400h100v100H200z"/><path fill="#93a0d2" d="M300 400h100v100H300z"/><path fill="#bdc4df" d="M400 400h100v100H400z"/><path fill="#e4e5e9" d="M500 400h100v100H500z"/><path fill="#a9b3d7" d="M600 400h100v100H600z"/><path fill="#9ca8d5" d="M700 400h100v100H700z"/><path fill="#d7dae6" d="M0 500h100v100H0z"/><path fill="#d7dae5" d="M100 500h100v100H100z"/><path fill="#e3e4e8" d="M200 500h100v100H200z"/><path fill="#ced3e3" d="M300 500h100v100H300z"/><path fill="#dde0e7" d="M400 500h100v100H400z"/><path fill="#ececeb" d="M500 500h100v100H500z"/><path fill="#d7dae5" d="M600 500h100v100H600z"/><path fill="#ced2e3" d="M700 500h100v100H700z"/></svg>