<svg xmlns="http://www.w3.org/2000/svg" viewBox="0 0 800 600"><defs/><path fill="#fff" d="M0 0h100v100H0zm100 0h100v100H100z"/><path fill="#feffff" d="M200 0h100v100H200z"/><path fill="#f1f1f1" d="M300 0h100v100H300z"/><path fill="#f9f9f9" d="M400 0h100v100H400z"/><path fill="#fff" d="M500 0h100v100H500z"/><path fill="#fefefe" d="M600 0h100v100H600zm100 0h100v100H700z"/><path fill="#f3f3f3" d="M0 100h100v100H0z"/><path fill="silver" d="M100 100h100v100H100z"/><path fill="#c9c8c9" d="M200 100h100v100H200z"/><path fill="#bdbdbd" d="M300 100h100v100H300z"/><path fill="#bebebe" d="M400 100h100v100H400z"/><path fill="#c9c9c9" d="M500 100h100v100H500z"/><path fill="#d8d8d8" d="M600 100h100v100H600z"/><path fill="#f1f1f1" d="M700 100h100v100H700z"/><path fill="#e0e0e0" d="M0 200h100v100H0z"/><path fill="#9a9a9a" d="M100 200h100v100H100z"/><path fill="#a9a9a9" d="M200 200h100v100H200z"/><path fill="#a5a5a5" d="M300 200h100v100H300z"/><path fill="#a3a2a3" d="M400 200h100v100H400z"/><path fill="#b0afaf" d="M500 200h100v100H500z"/><path fill="#c7c7c7" d="M600 200h100v100H600z"/><path fill="#ebebeb" d="M700 200h100v100H700z"/><path fill="#dedede" d="M0 300h100v100H0z"/><path fill="#b3b3b3" d="M100 300h100v100H100z"/><path fill="#b4b4b4" d="M200 300h100v100H200z"/><path fill="#a6a6a6" d="M300 300h100v100H300z"/><path fill="#a09fa0" d="M400 300h100v100H400z"/><path fill="#b4b4b4" d="M500 300h100v100H500z"/><path fill="#c1c1c1" d="M600 300h100v100H600z"/><path fill="#e8e8e8" d="M700 300h100v100H700z"/><path fill="#e3e3e3" d="M0 400h100v100H0z"/><path fill="#ccc" d="M100 400h100v100H100z"/><path fill="#c7c7c7" d="M200 400h100v100H200z"/><path fill="#b2b2b2" d="M300 400h100v100H300z"/><path fill="#c5c5c5" d="M400 400h100v100H400z"/><path fill="#c9c9c9" d="M500 400h100v100H500z"/><path fill="#c5c5c5" d="M600 400h100v100H600z"/><path fill="#e4e4e4" d="M700 400h100v100H700z"/><path fill="#f6f6f6" d="M0 500h100v100H0z"/><path fill="#eaeaea" d="M100 500h100v100H100z"/><path fill="#ececec" d="M200 500h100v100H200z"/><path fill="#eaeaea" d="M300 500h100v100H300z"/><path fill="#ececec" d="M400 500h100v100H400z"/><path fill="#efefef" d="M500 500h100v100H500z"/><path fill="#eee" d="M600 500h100v100H600z"/><path fill="#f3f3f3" d="M700 500h100v100H700z"/></svg>