<svg xmlns="http://www.w3.org/2000/svg" viewBox="0 0 800 500"><defs/><path fill="#f6f4ef" d="M0 0h100v100H0z"/><path fill="#f4f3ec" d="M100 0h100v100H100z"/><path fill="#e3e1de" d="M200 0h100v100H200z"/><path fill="#dedbdb" d="M300 0h100v100H300z"/><path fill="#eae8e5" d="M400 0h100v100H400z"/><path fill="#e0dcdb" d="M500 0h100v100H500z"/><path fill="#e1ddda" d="M600 0h100v100H600z"/><path fill="#e5e7e5" d="M700 0h100v100H700z"/><path fill="#d7cdbd" d="M0 100h100v100H0z"/><path fill="#bab99c" d="M100 100h100v100H100z"/><path fill="#8c7c6f" d="M200 100h100v100H200z"/><path fill="#5b5359" d="M300 100h100v100H300z"/><path fill="#968874" d="M400 100h100v100H400z"/><path fill="#4d4241" d="M500 100h100v100H500z"/><path fill="#5a4f4b" d="M600 100h100v100H600z"/><path fill="#90958b" d="M700 100h100v100H700z"/><path fill="#d4cabc" d="M0 200h100v100H0z"/><path fill="#ad9f8c" d="M100 200h100v100H100z"/><path fill="#948675" d="M200 200h100v100H200z"/><path fill="#776a64" d="M300 200h100v100H300z"/><path fill="#9f9584" d="M400 200h100v100H400z"/><path fill="#a9a498" d="M500 200h100v100H500z"/><path fill="#676864" d="M600 200h100v100H600z"/><path fill="#6f8e7d" d="M700 200h100v100H700z"/><path fill="#c3b2a2" d="M0 300h100v100H0z"/><path fill="#72635d" d="M100 300h100v100H100z"/><path fill="#636266" d="M200 300h100v100H200z"/><path fill="#5c4c50" d="M300 300h100v100H300z"/><path fill="#685756" d="M400 300h100v100H400z"/><path fill="#81685d" d="M500 300h100v100H500z"/><path fill="#5a4a48" d="M600 300h100v100H600z"/><path fill="#4e6753" d="M700 300h100v100H700z"/><path fill="#c9c2bd" d="M0 400h100v100H0z"/><path fill="#a49290" d="M100 400h100v100H100z"/><path fill="#9d8c8e" d="M200 400h100v100H200z"/><path fill="#a08d8e" d="M300 400h100v100H300z"/><path fill="#a49193" d="M400 400h100v100H400z"/><path fill="#9b8a8d" d="M500 400h100v100H500z"/><path fill="#998385" d="M600 400h100v100H600z"/><path fill="#988282" d="M700 400h100v100H700z"/></svg>