<svg xmlns="http://www.w3.org/2000/svg" viewBox="0 0 800 500"><defs/><path fill="#68578d" d="M0 0h100v100H0z"/><path fill="#714582" d="M100 0h100v100H100z"/><path fill="#714b85" d="M200 0h100v100H200z"/><path fill="#5d3a7c" d="M300 0h100v100H300z"/><path fill="#9d96bb" d="M400 0h100v100H400z"/><path fill="#fff" d="M500 0h100v100H500z"/><path fill="#fcfcfd" d="M600 0h100v100H600z"/><path fill="#fff" d="M700 0h100v100H700z"/><path fill="#513779" d="M0 100h100v100H0z"/><path fill="#723078" d="M100 100h100v100H100z"/><path fill="#7a3d7f" d="M200 100h100v100H200z"/><path fill="#632b70" d="M300 100h100v100H300z"/><path fill="#8981ac" d="M400 100h100v100H400z"/><path fill="#eef1fa" d="M500 100h100v100H500z"/><path fill="#d3d3e8" d="M600 100h100v100H600z"/><path fill="#eaebf5" d="M700 100h100v100H700z"/><path fill="#2d3a66" d="M0 200h100v100H0z"/><path fill="#13333c" d="M100 200h100v100H100z"/><path fill="#213b4b" d="M200 200h100v100H200z"/><path fill="#010d48" d="M300 200h100v100H300z"/><path fill="#7676a6" d="M400 200h100v100H400z"/><path fill="#b5b5d8" d="M500 200h100v100H500z"/><path fill="#8383b8" d="M600 200h100v100H600z"/><path fill="#babada" d="M700 200h100v100H700z"/><path fill="#262b69" d="M0 300h100v100H0z"/><path fill="#2d3a6e" d="M100 300h100v100H100z"/><path fill="#353f7d" d="M200 300h100v100H200z"/><path fill="#0e165e" d="M300 300h100v100H300z"/><path fill="#7373a1" d="M400 300h100v100H400z"/><path fill="#e5e5f9" d="M500 300h100v100H500z"/><path fill="#a6a6da" d="M600 300h100v100H600z"/><path fill="#d7d7f1" d="M700 300h100v100H700z"/><path fill="#3e3c82" d="M0 400h100v100H0z"/><path fill="#2a2881" d="M100 400h100v100H100z"/><path fill="#36338e" d="M200 400h100v100H200z"/><path fill="#151271" d="M300 400h100v100H300z"/><path fill="#8988b1" d="M400 400h100v100H400z"/><path fill="#fff" d="M500 400h100v100H500z"/><path fill="#fcfcfd" d="M600 400h100v100H600z"/><path fill="#fff" d="M700 400h100v100H700z"/></svg>