<svg xmlns="http://www.w3.org/2000/svg" viewBox="0 0 800 600"><defs/><path fill="#d2d585" d="M0 0h100v100H0z"/><path fill="#6c7562" d="M100 0h100v100H100z"/><path fill="#a49e69" d="M200 0h100v100H200z"/><path fill="#a3bdac" d="M300 0h100v100H300z"/><path fill="#a2bcc4" d="M400 0h100v100H400z"/><path fill="#abc0b9" d="M500 0h100v100H500z"/><path fill="#a3a06d" d="M600 0h100v100H600z"/><path fill="#dadb8f" d="M700 0h100v100H700z"/><path fill="#c4c57a" d="M0 100h100v100H0z"/><path fill="#656b56" d="M100 100h100v100H100z"/><path fill="#a8a161" d="M200 100h100v100H200z"/><path fill="#549a5e" d="M300 100h100v100H300z"/><path fill="#b4cecf" d="M400 100h100v100H400z"/><path fill="#d4dcd9" d="M500 100h100v100H500z"/><path fill="#8f8758" d="M600 100h100v100H600z"/><path fill="#e2dd80" d="M700 100h100v100H700z"/><path fill="#adb071" d="M0 200h100v100H0z"/><path fill="#7e8664" d="M100 200h100v100H100z"/><path fill="#f8f392" d="M200 200h100v100H200z"/><path fill="#e5e07b" d="M300 200h100v100H300z"/><path fill="#eee986" d="M400 200h100v100H400z"/><path fill="#dcd382" d="M500 200h100v100H500z"/><path fill="#e5e083" d="M600 200h100v100H600z"/><path fill="#f2f28f" d="M700 200h100v100H700z"/><path fill="#919663" d="M0 300h100v100H0z"/><path fill="#7c7e64" d="M100 300h100v100H100z"/><path fill="#bca581" d="M200 300h100v100H200z"/><path fill="#b6aa6f" d="M300 300h100v100H300z"/><path fill="#cfcd8e" d="M400 300h100v100H400z"/><path fill="#b2aa81" d="M500 300h100v100H500z"/><path fill="#a5945e" d="M600 300h100v100H600z"/><path fill="#e4da84" d="M700 300h100v100H700z"/><path fill="#72805f" d="M0 400h100v100H0z"/><path fill="#5a4f43" d="M100 400h100v100H100z"/><path fill="#876b55" d="M200 400h100v100H200z"/><path fill="#715644" d="M300 400h100v100H300z"/><path fill="#6d553e" d="M400 400h100v100H400z"/><path fill="#754e37" d="M500 400h100v100H500z"/><path fill="#5e4f1a" d="M600 400h100v100H600z"/><path fill="#84b44c" d="M700 400h100v100H700z"/><path fill="#6a6242" d="M0 500h100v100H0z"/><path fill="#5d4127" d="M100 500h100v100H100z"/><path fill="#754b22" d="M200 500h100v100H200z"/><path fill="#774c23" d="M300 500h100v100H300z"/><path fill="#6d3f15" d="M400 500h100v100H400z"/><path fill="#6f3f14" d="M500 500h100v100H500z"/><path fill="#795427" d="M600 500h100v100H600z"/><path fill="#947e48" d="M700 500h100v100H700z"/></svg>