<svg xmlns="http://www.w3.org/2000/svg" viewBox="0 0 800 600"><defs/><path fill="#7c796f" d="M0 0h100v100H0z"/><path fill="#b7a99d" d="M100 0h100v100H100z"/><path fill="#b9aca1" d="M200 0h100v100H200z"/><path fill="#c3b6ab" d="M300 0h100v100H300z"/><path fill="#cabbb0" d="M400 0h100v100H400z"/><path fill="#d1c1b6" d="M500 0h100v100H500z"/><path fill="#d5c4bb" d="M600 0h100v100H600z"/><path fill="#dfcec4" d="M700 0h100v100H700z"/><path fill="#807d73" d="M0 100h100v100H0z"/><path fill="#b6a79c" d="M100 100h100v100H100z"/><path fill="#b0a298" d="M200 100h100v100H200z"/><path fill="#b9aa9f" d="M300 100h100v100H300z"/><path fill="#c1b1a6" d="M400 100h100v100H400z"/><path fill="#c9b9ae" d="M500 100h100v100H500z"/><path fill="#cfbfb3" d="M600 100h100v100H600z"/><path fill="#d9c8bc" d="M700 100h100v100H700z"/><path fill="#868177" d="M0 200h100v100H0z"/><path fill="#b5a69b" d="M100 200h100v100H100z"/><path fill="#b2a499" d="M200 200h100v100H200z"/><path fill="#bbac9f" d="M300 200h100v100H300z"/><path fill="#b2a296" d="M400 200h100v100H400z"/><path fill="#b8a99c" d="M500 200h100v100H500z"/><path fill="#c8b8ab" d="M600 200h100v100H600z"/><path fill="#d2c2b5" d="M700 200h100v100H700z"/><path fill="#847f74" d="M0 300h100v100H0z"/><path fill="#b2a397" d="M100 300h100v100H100z"/><path fill="#b3a69a" d="M200 300h100v100H200z"/><path fill="#b8aa9d" d="M300 300h100v100H300z"/><path fill="#b2a396" d="M400 300h100v100H400z"/><path fill="#bbab9e" d="M500 300h100v100H500z"/><path fill="#c0b0a2" d="M600 300h100v100H600z"/><path fill="#c0afa1" d="M700 300h100v100H700z"/><path fill="#817a6e" d="M0 400h100v100H0z"/><path fill="#a6978a" d="M100 400h100v100H100z"/><path fill="#b2a598" d="M200 400h100v100H200z"/><path fill="#b5a699" d="M300 400h100v100H300z"/><path fill="#bfafa2" d="M400 400h100v100H400z"/><path fill="#c7b7aa" d="M500 400h100v100H500z"/><path fill="#b5a697" d="M600 400h100v100H600z"/><path fill="#beae9e" d="M700 400h100v100H700z"/><path fill="#787062" d="M0 500h100v100H0z"/><path fill="#998c7c" d="M100 500h100v100H100z"/><path fill="#a09283" d="M200 500h100v100H200z"/><path fill="#a99c8d" d="M300 500h100v100H300z"/><path fill="#b6a797" d="M400 500h100v100H400z"/><path fill="#bcac9d" d="M500 500h100v100H500z"/><path fill="#b1a190" d="M600 500h100v100H600z"/><path fill="#ac9e8d" d="M700 500h100v100H700z"/></svg>