<svg xmlns="http://www.w3.org/2000/svg" viewBox="0 0 800 500"><defs/><path fill="#ae967f" d="M0 0h100v100H0z"/><path fill="#967a69" d="M100 0h100v100H100z"/><path fill="#b1957d" d="M200 0h100v100H200z"/><path fill="#a87d6c" d="M300 0h100v100H300z"/><path fill="#a68576" d="M400 0h100v100H400z"/><path fill="#9e978b" d="M500 0h100v100H500z"/><path fill="#9e8e80" d="M600 0h100v100H600z"/><path fill="#c3a086" d="M700 0h100v100H700z"/><path fill="#96826c" d="M0 100h100v100H0z"/><path fill="#815c4c" d="M100 100h100v100H100z"/><path fill="#bea37f" d="M200 100h100v100H200z"/><path fill="#9b826d" d="M300 100h100v100H300z"/><path fill="#9f9387" d="M400 100h100v100H400z"/><path fill="#a1a9a4" d="M500 100h100v100H500z"/><path fill="#8f887c" d="M600 100h100v100H600z"/><path fill="#b7987f" d="M700 100h100v100H700z"/><path fill="#98846f" d="M0 200h100v100H0z"/><path fill="#846b5b" d="M100 200h100v100H100z"/><path fill="#8d7767" d="M200 200h100v100H200z"/><path fill="#90856e" d="M300 200h100v100H300z"/><path fill="#a49983" d="M400 200h100v100H400z"/><path fill="#918b7e" d="M500 200h100v100H500z"/><path fill="#7f766d" d="M600 200h100v100H600z"/><path fill="#a18e7f" d="M700 200h100v100H700z"/><path fill="#977d65" d="M0 300h100v100H0z"/><path fill="#876e59" d="M100 300h100v100H100z"/><path fill="#9d8463" d="M200 300h100v100H200z"/><path fill="#9b7559" d="M300 300h100v100H300z"/><path fill="#a17d61" d="M400 300h100v100H400z"/><path fill="#a68f6d" d="M500 300h100v100H500z"/><path fill="#8a6e5c" d="M600 300h100v100H600z"/><path fill="#8a7067" d="M700 300h100v100H700z"/><path fill="#ac9377" d="M0 400h100v100H0z"/><path fill="#c3a680" d="M100 400h100v100H100z"/><path fill="#dfbd8a" d="M200 400h100v100H200z"/><path fill="#c5a27b" d="M300 400h100v100H300z"/><path fill="#ba9776" d="M400 400h100v100H400z"/><path fill="#d1b18b" d="M500 400h100v100H500z"/><path fill="#c2a27c" d="M600 400h100v100H600z"/><path fill="#9f897d" d="M700 400h100v100H700z"/></svg>