<svg xmlns="http://www.w3.org/2000/svg" viewBox="0 0 800 600"><defs/><path fill="#585452" d="M0 0h100v100H0z"/><path fill="#655e63" d="M100 0h100v100H100z"/><path fill="#646262" d="M200 0h100v100H200z"/><path fill="#737a83" d="M300 0h100v100H300z"/><path fill="#8392a0" d="M400 0h100v100H400z"/><path fill="#777879" d="M500 0h100v100H500z"/><path fill="#817b72" d="M600 0h100v100H600z"/><path fill="#3d3a35" d="M700 0h100v100H700z"/><path fill="#e8e3d6" d="M0 100h100v100H0z"/><path fill="#fbf4e7" d="M100 100h100v100H100z"/><path fill="#f2ebe3" d="M200 100h100v100H200z"/><path fill="#efe9e2" d="M300 100h100v100H300z"/><path fill="#f4ede5" d="M400 100h100v100H400z"/><path fill="#f3eadf" d="M500 100h100v100H500z"/><path fill="#fffaef" d="M600 100h100v100H600z"/><path fill="#7a766f" d="M700 100h100v100H700z"/><path fill="#dad8cd" d="M0 200h100v100H0z"/><path fill="#eae7e3" d="M100 200h100v100H100z"/><path fill="#d8d3c4" d="M200 200h100v100H200z"/><path fill="#cbbb7f" d="M300 200h100v100H300z"/><path fill="#cbbf94" d="M400 200h100v100H400z"/><path fill="#c5c3c3" d="M500 200h100v100H500z"/><path fill="#e4e4e0" d="M600 200h100v100H600z"/><path fill="#99968b" d="M700 200h100v100H700z"/><path fill="#dbd8cc" d="M0 300h100v100H0z"/><path fill="#e4e3e1" d="M100 300h100v100H100z"/><path fill="#d7d3c3" d="M200 300h100v100H200z"/><path fill="#c1b27a" d="M300 300h100v100H300z"/><path fill="#c4b991" d="M400 300h100v100H400z"/><path fill="#cdced0" d="M500 300h100v100H500z"/><path fill="#e2e6e8" d="M600 300h100v100H600z"/><path fill="#c4c2b4" d="M700 300h100v100H700z"/><path fill="#deddd2" d="M0 400h100v100H0z"/><path fill="#dddedb" d="M100 400h100v100H100z"/><path fill="#d5d6d6" d="M200 400h100v100H200z"/><path fill="#dbdfe4" d="M300 400h100v100H300z"/><path fill="#dfe4e8" d="M400 400h100v100H400z"/><path fill="#d8dbda" d="M500 400h100v100H500z"/><path fill="#e2e8ed" d="M600 400h100v100H600z"/><path fill="#dadcdf" d="M700 400h100v100H700z"/><path fill="#d8d6cb" d="M0 500h100v100H0z"/><path fill="#d1d0c9" d="M100 500h100v100H100z"/><path fill="#d4d4ce" d="M200 500h100v100H200z"/><path fill="#d6d8d1" d="M300 500h100v100H300z"/><path fill="#c5c9c7" d="M400 500h100v100H400z"/><path fill="#b1b5b9" d="M500 500h100v100H500z"/><path fill="#a9adaf" d="M600 500h100v100H600z"/><path fill="#9a9c9b" d="M700 500h100v100H700z"/></svg>