<svg xmlns="http://www.w3.org/2000/svg" viewBox="0 0 800 400"><defs/><path fill="#c6c6c6" d="M0 0h100v100H0z"/><path fill="#8b8c89" d="M100 0h100v100H100z"/><path fill="#b7b8ba" d="M200 0h100v100H200z"/><path fill="#a19da2" d="M300 0h100v100H300z"/><path fill="#c6b7bd" d="M400 0h100v100H400z"/><path fill="#c5cbc8" d="M500 0h100v100H500z"/><path fill="#d5d9d5" d="M600 0h100v100H600z"/><path fill="#f1f0f1" d="M700 0h100v100H700z"/><path fill="#aeadad" d="M0 100h100v100H0z"/><path fill="#888784" d="M100 100h100v100H100z"/><path fill="#595753" d="M200 100h100v100H200z"/><path fill="#858384" d="M300 100h100v100H300z"/><path fill="#938d90" d="M400 100h100v100H400z"/><path fill="#a3a79b" d="M500 100h100v100H500z"/><path fill="#a5ada2" d="M600 100h100v100H600z"/><path fill="#e8e9eb" d="M700 100h100v100H700z"/><path fill="#a1a1a0" d="M0 200h100v100H0z"/><path fill="#767471" d="M100 200h100v100H100z"/><path fill="#6a6765" d="M200 200h100v100H200z"/><path fill="#999" d="M300 200h100v100H300z"/><path fill="#4d4d44" d="M400 200h100v100H400z"/><path fill="#6f685e" d="M500 200h100v100H500z"/><path fill="#6c6d67" d="M600 200h100v100H600z"/><path fill="#d2d6d1" d="M700 200h100v100H700z"/><path fill="#8d8d8c" d="M0 300h100v100H0z"/><path fill="#a6a29f" d="M100 300h100v100H100z"/><path fill="#bcb8b7" d="M200 300h100v100H200z"/><path fill="#a5a6a6" d="M300 300h100v100H300z"/><path fill="#535951" d="M400 300h100v100H400z"/><path fill="#222621" d="M500 300h100v100H500z"/><path fill="#1e1c1a" d="M600 300h100v100H600z"/><path fill="#818180" d="M700 300h100v100H700z"/></svg>