<svg xmlns="http://www.w3.org/2000/svg" viewBox="0 0 800 600"><defs/><path fill="#f8f7f7" d="M0 0h100v100H0z"/><path fill="#ece8ea" d="M100 0h100v100H100z"/><path fill="#f4f2f3" d="M200 0h100v100H200z"/><path fill="#f7f6f7" d="M300 0h100v100H300zm100 0h100v100H400z"/><path fill="#f8f8f8" d="M500 0h100v100H500z"/><path fill="#f9f8f9" d="M600 0h100v100H600z"/><path fill="#f8f8f8" d="M700 0h100v100H700z"/><path fill="#ebe6e8" d="M0 100h100v100H0z"/><path fill="#ae979d" d="M100 100h100v100H100z"/><path fill="#dcd8d9" d="M200 100h100v100H200z"/><path fill="#e5e4e4" d="M300 100h100v100H300z"/><path fill="#e3dfe0" d="M400 100h100v100H400z"/><path fill="#dbd8d9" d="M500 100h100v100H500z"/><path fill="#dddcdb" d="M600 100h100v100H600z"/><path fill="#cec7c7" d="M700 100h100v100H700z"/><path fill="#e0d7d9" d="M0 200h100v100H0z"/><path fill="#b5a1a7" d="M100 200h100v100H100z"/><path fill="#f2eeef" d="M200 200h100v100H200z"/><path fill="#ebe3e5" d="M300 200h100v100H300z"/><path fill="#f7f8f9" d="M400 200h100v100H400z"/><path fill="#d3cecf" d="M500 200h100v100H500z"/><path fill="#a79493" d="M600 200h100v100H600z"/><path fill="#aa9c9b" d="M700 200h100v100H700z"/><path fill="#cfc3c7" d="M0 300h100v100H0z"/><path fill="#af999d" d="M100 300h100v100H100z"/><path fill="#c1aaad" d="M200 300h100v100H200z"/><path fill="#b9a0a5" d="M300 300h100v100H300z"/><path fill="#ebd6d3" d="M400 300h100v100H400z"/><path fill="#c9b5b6" d="M500 300h100v100H500z"/><path fill="#ac8b94" d="M600 300h100v100H600z"/><path fill="#af9e9b" d="M700 300h100v100H700z"/><path fill="#bdacb0" d="M0 400h100v100H0z"/><path fill="#c89791" d="M100 400h100v100H100z"/><path fill="#ca9f98" d="M200 400h100v100H200z"/><path fill="#bf9893" d="M300 400h100v100H300z"/><path fill="#dda299" d="M400 400h100v100H400z"/><path fill="#d69d95" d="M500 400h100v100H500z"/><path fill="#c49489" d="M600 400h100v100H600z"/><path fill="#d2a89c" d="M700 400h100v100H700z"/><path fill="#eee4e2" d="M0 500h100v100H0z"/><path fill="#f8e5e1" d="M100 500h100v100H100z"/><path fill="#f6e4de" d="M200 500h100v100H200z"/><path fill="#f5e1dc" d="M300 500h100v100H300z"/><path fill="#f9e5e0" d="M400 500h100v100H400z"/><path fill="#fce8e2" d="M500 500h100v100H500z"/><path fill="#fce6e1" d="M600 500h100v100H600z"/><path fill="#f0e0dc" d="M700 500h100v100H700z"/></svg>