<svg xmlns="http://www.w3.org/2000/svg" viewBox="0 0 800 500"><defs/><path fill="#d9c297" d="M0 0h100v100H0z"/><path fill="#bb9c62" d="M100 0h100v100H100z"/><path fill="#c9b494" d="M200 0h100v100H200z"/><path fill="#dec8a5" d="M300 0h100v100H300z"/><path fill="#d1b991" d="M400 0h100v100H400z"/><path fill="#d4bd94" d="M500 0h100v100H500z"/><path fill="#d3bb8e" d="M600 0h100v100H600z"/><path fill="#d6c295" d="M700 0h100v100H700z"/><path fill="#c4a57e" d="M0 100h100v100H0z"/><path fill="#b1915b" d="M100 100h100v100H100z"/><path fill="#af9676" d="M200 100h100v100H200z"/><path fill="#b49769" d="M300 100h100v100H300z"/><path fill="#98815b" d="M400 100h100v100H400z"/><path fill="#b89b71" d="M500 100h100v100H500z"/><path fill="#b7976a" d="M600 100h100v100H600z"/><path fill="#b89f7b" d="M700 100h100v100H700z"/><path fill="#c8ac80" d="M0 200h100v100H0z"/><path fill="#be9869" d="M100 200h100v100H100z"/><path fill="#c2ac85" d="M200 200h100v100H200z"/><path fill="#9c864f" d="M300 200h100v100H300z"/><path fill="#b99e67" d="M400 200h100v100H400z"/><path fill="#cba676" d="M500 200h100v100H500z"/><path fill="#bb976b" d="M600 200h100v100H600z"/><path fill="#ae926c" d="M700 200h100v100H700z"/><path fill="#b18b58" d="M0 300h100v100H0z"/><path fill="#b1814c" d="M100 300h100v100H100z"/><path fill="#ab8d6a" d="M200 300h100v100H200z"/><path fill="#be9c63" d="M300 300h100v100H300z"/><path fill="#b59063" d="M400 300h100v100H400z"/><path fill="#bc9b75" d="M500 300h100v100H500z"/><path fill="#b08c61" d="M600 300h100v100H600z"/><path fill="#a6865e" d="M700 300h100v100H700z"/><path fill="#b39153" d="M0 400h100v100H0z"/><path fill="#b99358" d="M100 400h100v100H100z"/><path fill="#bf9c6f" d="M200 400h100v100H200z"/><path fill="#b89860" d="M300 400h100v100H300z"/><path fill="#a9895f" d="M400 400h100v100H400z"/><path fill="#bea075" d="M500 400h100v100H500z"/><path fill="#aa895e" d="M600 400h100v100H600z"/><path fill="#b08e56" d="M700 400h100v100H700z"/></svg>