<svg xmlns="http://www.w3.org/2000/svg" viewBox="0 0 800 500"><defs/><path fill="#eaf0ee" d="M0 0h100v100H0z"/><path fill="#e6f2f4" d="M100 0h100v100H100z"/><path fill="#ecf1ed" d="M200 0h100v100H200z"/><path fill="#f9f7f4" d="M300 0h100v100H300z"/><path fill="#f3f3ee" d="M400 0h100v100H400z"/><path fill="#efefe9" d="M500 0h100v100H500z"/><path fill="#f6f5f0" d="M600 0h100v100H600z"/><path fill="#e7f2f5" d="M700 0h100v100H700z"/><path fill="#a3beb2" d="M0 100h100v100H0z"/><path fill="#89c7cf" d="M100 100h100v100H100z"/><path fill="#b2beae" d="M200 100h100v100H200z"/><path fill="#e2dac0" d="M300 100h100v100H300z"/><path fill="#b7b3a2" d="M400 100h100v100H400z"/><path fill="#b1ab9b" d="M500 100h100v100H500z"/><path fill="#b7ae9f" d="M600 100h100v100H600z"/><path fill="#94b6c7" d="M700 100h100v100H700z"/><path fill="#b4d1dc" d="M0 200h100v100H0z"/><path fill="#8bc5d1" d="M100 200h100v100H100z"/><path fill="#ced3c5" d="M200 200h100v100H200z"/><path fill="#e4dcc8" d="M300 200h100v100H300z"/><path fill="#d5ccbb" d="M400 200h100v100H400z"/><path fill="#cac0b0" d="M500 200h100v100H500z"/><path fill="#c6d0c5" d="M600 200h100v100H600z"/><path fill="#94bbc7" d="M700 200h100v100H700z"/><path fill="#95baa2" d="M0 300h100v100H0z"/><path fill="#96afb6" d="M100 300h100v100H100z"/><path fill="#a2d3d7" d="M200 300h100v100H200z"/><path fill="#b5d0d2" d="M300 300h100v100H300z"/><path fill="#aacfcf" d="M400 300h100v100H400z"/><path fill="#b5d2d0" d="M500 300h100v100H500z"/><path fill="#8fd0d2" d="M600 300h100v100H600z"/><path fill="#5ab3b1" d="M700 300h100v100H700z"/><path fill="#bfcab7" d="M0 400h100v100H0z"/><path fill="#cbd1d7" d="M100 400h100v100H100z"/><path fill="#d6ecf5" d="M200 400h100v100H200z"/><path fill="#cce2e9" d="M300 400h100v100H300z"/><path fill="#cfebf2" d="M400 400h100v100H400z"/><path fill="#cfeaf0" d="M500 400h100v100H500z"/><path fill="#cae5ed" d="M600 400h100v100H600z"/><path fill="#bcdfe4" d="M700 400h100v100H700z"/></svg>