<svg xmlns="http://www.w3.org/2000/svg" viewBox="0 0 800 600"><defs/><path fill="#c1ffbc" d="M0 0h100v100H0z"/><path fill="#d2e9ce" d="M100 0h100v100H100z"/><path fill="#d0f2cd" d="M200 0h100v100H200z"/><path fill="#b4e0c6" d="M300 0h100v100H300z"/><path fill="#c8e2ee" d="M400 0h100v100H400z"/><path fill="#b7dbd7" d="M500 0h100v100H500z"/><path fill="#c0f8bb" d="M600 0h100v100H600z"/><path fill="#c3febc" d="M700 0h100v100H700z"/><path fill="#c1e0b7" d="M0 100h100v100H0z"/><path fill="#cfd1cb" d="M100 100h100v100H100z"/><path fill="#a9cc9a" d="M200 100h100v100H200z"/><path fill="#82a79a" d="M300 100h100v100H300z"/><path fill="#728997" d="M400 100h100v100H400z"/><path fill="#7b9593" d="M500 100h100v100H500z"/><path fill="#bef1b8" d="M600 100h100v100H600z"/><path fill="#c5ffbe" d="M700 100h100v100H700z"/><path fill="#ccceb9" d="M0 200h100v100H0z"/><path fill="#c4c9c3" d="M100 200h100v100H100z"/><path fill="#95b586" d="M200 200h100v100H200z"/><path fill="#8aaa9c" d="M300 200h100v100H300z"/><path fill="#759d9a" d="M400 200h100v100H400z"/><path fill="#60827e" d="M500 200h100v100H500z"/><path fill="#99be9b" d="M600 200h100v100H600z"/><path fill="#c6fdc0" d="M700 200h100v100H700z"/><path fill="#c8d2c2" d="M0 300h100v100H0z"/><path fill="#8daa9c" d="M100 300h100v100H100z"/><path fill="#4d7a64" d="M200 300h100v100H200z"/><path fill="#698d84" d="M300 300h100v100H300z"/><path fill="#71a28d" d="M400 300h100v100H400z"/><path fill="#658e7a" d="M500 300h100v100H500z"/><path fill="#3f7964" d="M600 300h100v100H600z"/><path fill="#9ebea5" d="M700 300h100v100H700z"/><path fill="#d9d1c7" d="M0 400h100v100H0z"/><path fill="#84ac9b" d="M100 400h100v100H100z"/><path fill="#49826e" d="M200 400h100v100H200z"/><path fill="#598b7d" d="M300 400h100v100H300z"/><path fill="#699181" d="M400 400h100v100H400z"/><path fill="#729a8b" d="M500 400h100v100H500z"/><path fill="#598d7c" d="M600 400h100v100H600z"/><path fill="#84a286" d="M700 400h100v100H700z"/><path fill="#dae7d7" d="M0 500h100v100H0z"/><path fill="#7eb4a0" d="M100 500h100v100H100z"/><path fill="#5ea88b" d="M200 500h100v100H200z"/><path fill="#66a895" d="M300 500h100v100H300z"/><path fill="#67a08f" d="M400 500h100v100H400z"/><path fill="#5e9d8a" d="M500 500h100v100H500z"/><path fill="#62a28b" d="M600 500h100v100H600z"/><path fill="#5e9b7b" d="M700 500h100v100H700z"/></svg>