<svg xmlns="http://www.w3.org/2000/svg" viewBox="0 0 800 500"><defs/><path fill="#732d4d" d="M0 0h100v100H0z"/><path fill="#4d2435" d="M100 0h100v100H100z"/><path fill="#151e2f" d="M200 0h100v100H200z"/><path fill="#111723" d="M300 0h100v100H300z"/><path fill="#081a23" d="M400 0h100v100H400z"/><path fill="#311f32" d="M500 0h100v100H500z"/><path fill="#332135" d="M600 0h100v100H600z"/><path fill="#131e2f" d="M700 0h100v100H700z"/><path fill="#813054" d="M0 100h100v100H0z"/><path fill="#4f232f" d="M100 100h100v100H100z"/><path fill="#46283d" d="M200 100h100v100H200z"/><path fill="#332039" d="M300 100h100v100H300z"/><path fill="#1f2131" d="M400 100h100v100H400z"/><path fill="#342e46" d="M500 100h100v100H500z"/><path fill="#362a40" d="M600 100h100v100H600z"/><path fill="#191e33" d="M700 100h100v100H700z"/><path fill="#892349" d="M0 200h100v100H0z"/><path fill="#632935" d="M100 200h100v100H100z"/><path fill="#4f2731" d="M200 200h100v100H200z"/><path fill="#124" d="M300 200h100v100H300z"/><path fill="#0a2240" d="M400 200h100v100H400z"/><path fill="#042442" d="M500 200h100v100H500z"/><path fill="#0e2240" d="M600 200h100v100H600z"/><path fill="#181f34" d="M700 200h100v100H700z"/><path fill="#7e1135" d="M0 300h100v100H0z"/><path fill="#371926" d="M100 300h100v100H100z"/><path fill="#0e1d3b" d="M200 300h100v100H200z"/><path fill="#202150" d="M300 300h100v100H300z"/><path fill="#2a2b49" d="M400 300h100v100H400z"/><path fill="#3d2c54" d="M500 300h100v100H500z"/><path fill="#361e37" d="M600 300h100v100H600z"/><path fill="#102133" d="M700 300h100v100H700z"/><path fill="#411227" d="M0 400h100v100H0z"/><path fill="#17131e" d="M100 400h100v100H100z"/><path fill="#0d1524" d="M200 400h100v100H200z"/><path fill="#201b32" d="M300 400h100v100H300z"/><path fill="#1c2e3c" d="M400 400h100v100H400z"/><path fill="#422d43" d="M500 400h100v100H500z"/><path fill="#321c2d" d="M600 400h100v100H600z"/><path fill="#16202d" d="M700 400h100v100H700z"/></svg>