<svg xmlns="http://www.w3.org/2000/svg" viewBox="0 0 800 500"><defs/><path fill="#d4e0f5" d="M0 0h100v100H0z"/><path fill="#9fb6e1" d="M100 0h100v100H100z"/><path fill="#94addf" d="M200 0h100v100H200z"/><path fill="#c0cbdd" d="M300 0h100v100H300z"/><path fill="#b3c2dd" d="M400 0h100v100H400z"/><path fill="#849fd8" d="M500 0h100v100H500z"/><path fill="#8ea7d9" d="M600 0h100v100H600z"/><path fill="#becfef" d="M700 0h100v100H700z"/><path fill="#bacbeb" d="M0 100h100v100H0z"/><path fill="#7490cc" d="M100 100h100v100H100z"/><path fill="#718dc8" d="M200 100h100v100H200z"/><path fill="#ebe9df" d="M300 100h100v100H300z"/><path fill="#cecfcd" d="M400 100h100v100H400z"/><path fill="#4068ba" d="M500 100h100v100H500z"/><path fill="#587ac1" d="M600 100h100v100H600z"/><path fill="#afc2e7" d="M700 100h100v100H700z"/><path fill="#a0b7e2" d="M0 200h100v100H0z"/><path fill="#6c89c6" d="M100 200h100v100H100z"/><path fill="#6886c5" d="M200 200h100v100H200z"/><path fill="#f4eacd" d="M300 200h100v100H300z"/><path fill="#dfdcd0" d="M400 200h100v100H400z"/><path fill="#7795d3" d="M500 200h100v100H500z"/><path fill="#6081c7" d="M600 200h100v100H600z"/><path fill="#99b1e1" d="M700 200h100v100H700z"/><path fill="#8da7d9" d="M0 300h100v100H0z"/><path fill="#5376bf" d="M100 300h100v100H100z"/><path fill="#89a0ce" d="M200 300h100v100H200z"/><path fill="#dfdbcb" d="M300 300h100v100H300z"/><path fill="#d7d5cb" d="M400 300h100v100H400z"/><path fill="#91a7d2" d="M500 300h100v100H500z"/><path fill="#4c70bc" d="M600 300h100v100H600z"/><path fill="#7f9bd4" d="M700 300h100v100H700z"/><path fill="#a0b7e2" d="M0 400h100v100H0z"/><path fill="#92abdb" d="M100 400h100v100H100z"/><path fill="#bdcce5" d="M200 400h100v100H200z"/><path fill="#a5bae3" d="M300 400h100v100H300z"/><path fill="#c0cbdf" d="M400 400h100v100H400z"/><path fill="#c1cad7" d="M500 400h100v100H500z"/><path fill="#8ca5d6" d="M600 400h100v100H600z"/><path fill="#a4bbe6" d="M700 400h100v100H700z"/></svg>