<svg xmlns="http://www.w3.org/2000/svg" viewBox="0 0 800 800"><defs/><path fill="#dad7d0" d="M0 0h100v100H0z"/><path fill="#d8d4cf" d="M100 0h100v100H100z"/><path fill="#d4cfcb" d="M200 0h100v100H200z"/><path fill="#d5d1cc" d="M300 0h100v100H300z"/><path fill="#d5d1cd" d="M400 0h100v100H400z"/><path fill="#d6d3ce" d="M500 0h100v100H500z"/><path fill="#dedad5" d="M600 0h100v100H600z"/><path fill="#e0dcd8" d="M700 0h100v100H700z"/><path fill="#d5d1cc" d="M0 100h100v100H0z"/><path fill="#c5c1bd" d="M100 100h100v100H100z"/><path fill="#beb9b5" d="M200 100h100v100H200zm100 0h100v100H300z"/><path fill="#c3bfba" d="M400 100h100v100H400z"/><path fill="#c1bfba" d="M500 100h100v100H500z"/><path fill="#bebdb8" d="M600 100h100v100H600z"/><path fill="#cdcbc7" d="M700 100h100v100H700z"/><path fill="#c0bbb7" d="M0 200h100v100H0z"/><path fill="#b7b2ae" d="M100 200h100v100H100z"/><path fill="#a39e9a" d="M200 200h100v100H200z"/><path fill="#c9c7c2" d="M300 200h100v100H300z"/><path fill="#d1ceca" d="M400 200h100v100H400z"/><path fill="#ceccc7" d="M500 200h100v100H500z"/><path fill="#cecdc8" d="M600 200h100v100H600z"/><path fill="#b9b8b5" d="M700 200h100v100H700z"/><path fill="#b9b7b2" d="M0 300h100v100H0z"/><path fill="#b8b5b0" d="M100 300h100v100H100z"/><path fill="#b9b6b2" d="M200 300h100v100H200z"/><path fill="#c9c7c3" d="M300 300h100v100H300z"/><path fill="#c7c5c1" d="M400 300h100v100H400z"/><path fill="#cac8c4" d="M500 300h100v100H500z"/><path fill="#dbdad5" d="M600 300h100v100H600z"/><path fill="#b5b5b3" d="M700 300h100v100H700z"/><path fill="#c5c4bf" d="M0 400h100v100H0z"/><path fill="#b0afaa" d="M100 400h100v100H100z"/><path fill="#b3b2ae" d="M200 400h100v100H200z"/><path fill="#a2a09d" d="M300 400h100v100H300z"/><path fill="#bab8b4" d="M400 400h100v100H400z"/><path fill="#bcbbb7" d="M500 400h100v100H500z"/><path fill="#bebeba" d="M600 400h100v100H600z"/><path fill="#d7d7d3" d="M700 400h100v100H700z"/><path fill="#b9b8b6" d="M0 500h100v100H0z"/><path fill="#b3b1af" d="M100 500h100v100H100z"/><path fill="#a9a8a7" d="M200 500h100v100H200z"/><path fill="#b8b9b5" d="M300 500h100v100H300z"/><path fill="#c6c6c3" d="M400 500h100v100H400z"/><path fill="#bebebb" d="M500 500h100v100H500z"/><path fill="#c6c7c4" d="M600 500h100v100H600z"/><path fill="#c8cac8" d="M700 500h100v100H700z"/><path fill="#b6b7b8" d="M0 600h100v100H0z"/><path fill="#b0b1b0" d="M100 600h100v100H100z"/><path fill="#c3c5c3" d="M200 600h100v100H200z"/><path fill="#b1b3b4" d="M300 600h100v100H300z"/><path fill="#c1c2c0" d="M400 600h100v100H400z"/><path fill="#b9bab9" d="M500 600h100v100H500z"/><path fill="#c4c5c4" d="M600 600h100v100H600z"/><path fill="#d1d3d2" d="M700 600h100v100H700z"/><path fill="#b6b7b9" d="M0 700h100v100H0z"/><path fill="#b7b8ba" d="M100 700h100v100H100z"/><path fill="#c9cacc" d="M200 700h100v100H200z"/><path fill="#a8a9aa" d="M300 700h100v100H300z"/><path fill="#b7b9b8" d="M400 700h100v100H400z"/><path fill="#bebfc1" d="M500 700h100v100H500z"/><path fill="#bcbebe" d="M600 700h100v100H600z"/><path fill="#e1e3e1" d="M700 700h100v100H700z"/></svg>