<svg xmlns="http://www.w3.org/2000/svg" viewBox="0 0 800 600"><defs/><path fill="#4c4b46" d="M0 0h100v100H0z"/><path fill="#3d3c33" d="M100 0h100v100H100z"/><path fill="#3a3a34" d="M200 0h100v100H200z"/><path fill="#484641" d="M300 0h100v100H300z"/><path fill="#4b4943" d="M400 0h100v100H400z"/><path fill="#35332b" d="M500 0h100v100H500z"/><path fill="#43413b" d="M600 0h100v100H600z"/><path fill="#636466" d="M700 0h100v100H700z"/><path fill="#575248" d="M0 100h100v100H0z"/><path fill="#5a5446" d="M100 100h100v100H100z"/><path fill="#38393d" d="M200 100h100v100H200z"/><path fill="#737477" d="M300 100h100v100H300z"/><path fill="#636260" d="M400 100h100v100H400z"/><path fill="#38322b" d="M500 100h100v100H500z"/><path fill="#51483a" d="M600 100h100v100H600z"/><path fill="#66686b" d="M700 100h100v100H700z"/><path fill="#5c5651" d="M0 200h100v100H0z"/><path fill="#7e705a" d="M100 200h100v100H100z"/><path fill="#4c4a49" d="M200 200h100v100H200z"/><path fill="#8a8b8c" d="M300 200h100v100H300z"/><path fill="#7f7f7f" d="M400 200h100v100H400z"/><path fill="#71685e" d="M500 200h100v100H500z"/><path fill="#746c63" d="M600 200h100v100H600z"/><path fill="#707376" d="M700 200h100v100H700z"/><path fill="#574f4a" d="M0 300h100v100H0z"/><path fill="#776345" d="M100 300h100v100H100z"/><path fill="#5d4d39" d="M200 300h100v100H200z"/><path fill="#514f4a" d="M300 300h100v100H300z"/><path fill="#887e7a" d="M400 300h100v100H400z"/><path fill="#a19691" d="M500 300h100v100H500z"/><path fill="#7b7a7b" d="M600 300h100v100H600z"/><path fill="#858a90" d="M700 300h100v100H700z"/><path fill="#3b3834" d="M0 400h100v100H0z"/><path fill="#695243" d="M100 400h100v100H100z"/><path fill="#695447" d="M200 400h100v100H200z"/><path fill="#716553" d="M300 400h100v100H300z"/><path fill="#aea199" d="M400 400h100v100H400z"/><path fill="#a19792" d="M500 400h100v100H500z"/><path fill="#524844" d="M600 400h100v100H600z"/><path fill="#6c6b6d" d="M700 400h100v100H700z"/><path fill="#7f7265" d="M0 500h100v100H0z"/><path fill="#877561" d="M100 500h100v100H100z"/><path fill="#7b7062" d="M200 500h100v100H200z"/><path fill="#939089" d="M300 500h100v100H300z"/><path fill="#9e9d99" d="M400 500h100v100H400z"/><path fill="#7e7d78" d="M500 500h100v100H500z"/><path fill="#6d6a65" d="M600 500h100v100H600z"/><path fill="#554e48" d="M700 500h100v100H700z"/></svg>