<svg xmlns="http://www.w3.org/2000/svg" viewBox="0 0 800 500"><defs/><path fill="#998b90" d="M0 0h100v100H0z"/><path fill="#b08d86" d="M100 0h100v100H100z"/><path fill="#b1937b" d="M200 0h100v100H200z"/><path fill="#d4ba9d" d="M300 0h100v100H300z"/><path fill="#efd5bb" d="M400 0h100v100H400z"/><path fill="#f8eac9" d="M500 0h100v100H500z"/><path fill="#f0e7cc" d="M600 0h100v100H600z"/><path fill="#f5ecc3" d="M700 0h100v100H700z"/><path fill="#90858b" d="M0 100h100v100H0z"/><path fill="#a6817e" d="M100 100h100v100H100z"/><path fill="#a19a73" d="M200 100h100v100H200z"/><path fill="#a9a277" d="M300 100h100v100H300z"/><path fill="#c6b39e" d="M400 100h100v100H400z"/><path fill="#dac3a1" d="M500 100h100v100H500z"/><path fill="#b7a99b" d="M600 100h100v100H600z"/><path fill="#be997a" d="M700 100h100v100H700z"/><path fill="#a2978d" d="M0 200h100v100H0z"/><path fill="#a3887c" d="M100 200h100v100H100z"/><path fill="#afa180" d="M200 200h100v100H200z"/><path fill="#97866d" d="M300 200h100v100H300z"/><path fill="#ab8d6e" d="M400 200h100v100H400z"/><path fill="#b98a65" d="M500 200h100v100H500z"/><path fill="#a28571" d="M600 200h100v100H600z"/><path fill="#b38d75" d="M700 200h100v100H700z"/><path fill="#b29391" d="M0 300h100v100H0z"/><path fill="#a38872" d="M100 300h100v100H100z"/><path fill="#8c8780" d="M200 300h100v100H200z"/><path fill="#7d7684" d="M300 300h100v100H300z"/><path fill="#8c8480" d="M400 300h100v100H400z"/><path fill="#9c6742" d="M500 300h100v100H500z"/><path fill="#804d31" d="M600 300h100v100H600z"/><path fill="#6f584f" d="M700 300h100v100H700z"/><path fill="#b19a8a" d="M0 400h100v100H0z"/><path fill="#a89b85" d="M100 400h100v100H100z"/><path fill="#a0988e" d="M200 400h100v100H200z"/><path fill="#9f9393" d="M300 400h100v100H300z"/><path fill="#95867c" d="M400 400h100v100H400z"/><path fill="#90745b" d="M500 400h100v100H500z"/><path fill="#735339" d="M600 400h100v100H600z"/><path fill="#563e36" d="M700 400h100v100H700z"/></svg>