<svg xmlns="http://www.w3.org/2000/svg" viewBox="0 0 800 400"><defs/><path fill="#6c5273" d="M0 0h100v100H0z"/><path fill="#5d3d45" d="M100 0h100v100H100z"/><path fill="#6d5574" d="M200 0h100v100H200z"/><path fill="#93788b" d="M300 0h100v100H300z"/><path fill="#937d91" d="M400 0h100v100H400z"/><path fill="#9a818b" d="M500 0h100v100H500z"/><path fill="#755c68" d="M600 0h100v100H600z"/><path fill="#6b5380" d="M700 0h100v100H700z"/><path fill="#654f69" d="M0 100h100v100H0z"/><path fill="#5c414f" d="M100 100h100v100H100z"/><path fill="#645262" d="M200 100h100v100H200z"/><path fill="#b1928d" d="M300 100h100v100H300z"/><path fill="#c7afbd" d="M400 100h100v100H400z"/><path fill="#bfa7ad" d="M500 100h100v100H500z"/><path fill="#80645e" d="M600 100h100v100H600z"/><path fill="#644a66" d="M700 100h100v100H700z"/><path fill="#65475d" d="M0 200h100v100H0z"/><path fill="#5d3f45" d="M100 200h100v100H100z"/><path fill="#694d56" d="M200 200h100v100H200z"/><path fill="#6a524c" d="M300 200h100v100H300z"/><path fill="#917b88" d="M400 200h100v100H400z"/><path fill="#866f90" d="M500 200h100v100H500z"/><path fill="#69504e" d="M600 200h100v100H600z"/><path fill="#5b3e48" d="M700 200h100v100H700z"/><path fill="#63444c" d="M0 300h100v100H0z"/><path fill="#674a41" d="M100 300h100v100H100z"/><path fill="#6d5149" d="M200 300h100v100H200z"/><path fill="#614b49" d="M300 300h100v100H300z"/><path fill="#513f40" d="M400 300h100v100H400z"/><path fill="#644c4b" d="M500 300h100v100H500z"/><path fill="#765a4e" d="M600 300h100v100H600z"/><path fill="#684a49" d="M700 300h100v100H700z"/></svg>