<svg xmlns="http://www.w3.org/2000/svg" viewBox="0 0 800 500"><defs/><path fill="#aabfbc" d="M0 0h100v100H0z"/><path fill="#8d897d" d="M100 0h100v100H100z"/><path fill="#8b9995" d="M200 0h100v100H200z"/><path fill="#879694" d="M300 0h100v100H300z"/><path fill="#b8c5c2" d="M400 0h100v100H400z"/><path fill="#eff0f0" d="M500 0h100v100H500z"/><path fill="#d1dbd8" d="M600 0h100v100H600z"/><path fill="#aac1bd" d="M700 0h100v100H700z"/><path fill="#7b948b" d="M0 100h100v100H0z"/><path fill="#494432" d="M100 100h100v100H100z"/><path fill="#51655e" d="M200 100h100v100H200z"/><path fill="#7e706c" d="M300 100h100v100H300z"/><path fill="#aeb3af" d="M400 100h100v100H400z"/><path fill="#b4bec7" d="M500 100h100v100H500z"/><path fill="#8ea1a5" d="M600 100h100v100H600z"/><path fill="#8fa29b" d="M700 100h100v100H700z"/><path fill="#88968d" d="M0 200h100v100H0z"/><path fill="#555243" d="M100 200h100v100H100z"/><path fill="#596e6a" d="M200 200h100v100H200z"/><path fill="#7f7373" d="M300 200h100v100H300z"/><path fill="#9c9993" d="M400 200h100v100H400z"/><path fill="#8998a8" d="M500 200h100v100H500z"/><path fill="#635f5c" d="M600 200h100v100H600z"/><path fill="#7f9c8d" d="M700 200h100v100H700z"/><path fill="#808279" d="M0 300h100v100H0z"/><path fill="#694c30" d="M100 300h100v100H100z"/><path fill="#937e60" d="M200 300h100v100H200z"/><path fill="#7f6b55" d="M300 300h100v100H300z"/><path fill="#867b6b" d="M400 300h100v100H400z"/><path fill="#9f8479" d="M500 300h100v100H500z"/><path fill="#91856e" d="M600 300h100v100H600z"/><path fill="#738f70" d="M700 300h100v100H700z"/><path fill="#bbb0a4" d="M0 400h100v100H0z"/><path fill="#9f937a" d="M100 400h100v100H100z"/><path fill="#a9a489" d="M200 400h100v100H200z"/><path fill="#756b5f" d="M300 400h100v100H300z"/><path fill="#63625c" d="M400 400h100v100H400z"/><path fill="#b19f8c" d="M500 400h100v100H500z"/><path fill="#a69e85" d="M600 400h100v100H600z"/><path fill="#b9b7a6" d="M700 400h100v100H700z"/></svg>