<svg xmlns="http://www.w3.org/2000/svg" viewBox="0 0 800 500"><defs/><path fill="#5c5e53" d="M0 0h100v100H0z"/><path fill="#4f544d" d="M100 0h100v100H100z"/><path fill="#595a3d" d="M200 0h100v100H200z"/><path fill="#a29588" d="M300 0h100v100H300z"/><path fill="#cebdb1" d="M400 0h100v100H400z"/><path fill="#746f63" d="M500 0h100v100H500z"/><path fill="#3d412f" d="M600 0h100v100H600z"/><path fill="#85847e" d="M700 0h100v100H700z"/><path fill="#868279" d="M0 100h100v100H0z"/><path fill="#393f2e" d="M100 100h100v100H100z"/><path fill="#555a3b" d="M200 100h100v100H200z"/><path fill="#969471" d="M300 100h100v100H300z"/><path fill="#dacab0" d="M400 100h100v100H400z"/><path fill="#807762" d="M500 100h100v100H500z"/><path fill="#5b5c52" d="M600 100h100v100H600z"/><path fill="#919090" d="M700 100h100v100H700z"/><path fill="#706f59" d="M0 200h100v100H0z"/><path fill="#57573f" d="M100 200h100v100H100z"/><path fill="#9f9382" d="M200 200h100v100H200z"/><path fill="#82815f" d="M300 200h100v100H300z"/><path fill="#978974" d="M400 200h100v100H400z"/><path fill="#8c7d6a" d="M500 200h100v100H500z"/><path fill="#676552" d="M600 200h100v100H600z"/><path fill="#8c8989" d="M700 200h100v100H700z"/><path fill="#7d7a65" d="M0 300h100v100H0z"/><path fill="#7e7861" d="M100 300h100v100H100z"/><path fill="#595946" d="M200 300h100v100H200z"/><path fill="#979274" d="M300 300h100v100H300z"/><path fill="#9c9180" d="M400 300h100v100H400z"/><path fill="#b1a794" d="M500 300h100v100H500z"/><path fill="#858177" d="M600 300h100v100H600z"/><path fill="#676b60" d="M700 300h100v100H700z"/><path fill="#c9b8a1" d="M0 400h100v100H0z"/><path fill="#c9baa3" d="M100 400h100v100H100z"/><path fill="#7a7662" d="M200 400h100v100H200z"/><path fill="#5e6149" d="M300 400h100v100H300z"/><path fill="#b6b4a3" d="M400 400h100v100H400z"/><path fill="#cec5b8" d="M500 400h100v100H500z"/><path fill="#898a77" d="M600 400h100v100H600z"/><path fill="#394320" d="M700 400h100v100H700z"/></svg>