<svg xmlns="http://www.w3.org/2000/svg" viewBox="0 0 800 600"><defs/><path fill="#d5d2d2" d="M0 0h100v100H0z"/><path fill="#d7d6d3" d="M100 0h100v100H100z"/><path fill="#cdcdcb" d="M200 0h100v100H200z"/><path fill="#dcd2d0" d="M300 0h100v100H300z"/><path fill="#e8e5e4" d="M400 0h100v100H400z"/><path fill="#cbc8c9" d="M500 0h100v100H500z"/><path fill="#cac9c9" d="M600 0h100v100H600z"/><path fill="#cbcacb" d="M700 0h100v100H700z"/><path fill="#3e2b28" d="M0 100h100v100H0z"/><path fill="#5a442b" d="M100 100h100v100H100z"/><path fill="#2c1a14" d="M200 100h100v100H200z"/><path fill="#823d31" d="M300 100h100v100H300z"/><path fill="#cd9788" d="M400 100h100v100H400z"/><path fill="#5c514e" d="M500 100h100v100H500z"/><path fill="#270901" d="M600 100h100v100H600z"/><path fill="#624338" d="M700 100h100v100H700z"/><path fill="#49332b" d="M0 200h100v100H0z"/><path fill="#673f22" d="M100 200h100v100H100z"/><path fill="#5f3621" d="M200 200h100v100H200z"/><path fill="#a07566" d="M300 200h100v100H300z"/><path fill="#b17c6f" d="M400 200h100v100H400z"/><path fill="#8b6752" d="M500 200h100v100H500z"/><path fill="#501c0f" d="M600 200h100v100H600z"/><path fill="#7a5341" d="M700 200h100v100H700z"/><path fill="#57473a" d="M0 300h100v100H0z"/><path fill="#503d27" d="M100 300h100v100H100z"/><path fill="#473c24" d="M200 300h100v100H200z"/><path fill="#765844" d="M300 300h100v100H300z"/><path fill="#a27a5d" d="M400 300h100v100H400z"/><path fill="#6b452a" d="M500 300h100v100H500z"/><path fill="#52331f" d="M600 300h100v100H600z"/><path fill="#5f3325" d="M700 300h100v100H700z"/><path fill="#4b4838" d="M0 400h100v100H0z"/><path fill="#69634c" d="M100 400h100v100H100z"/><path fill="#55695e" d="M200 400h100v100H200z"/><path fill="#412e20" d="M300 400h100v100H300z"/><path fill="#65391a" d="M400 400h100v100H400z"/><path fill="#83553d" d="M500 400h100v100H500z"/><path fill="#846f5d" d="M600 400h100v100H600z"/><path fill="#776048" d="M700 400h100v100H700z"/><path fill="#bcc3be" d="M0 500h100v100H0z"/><path fill="#c9d7d5" d="M100 500h100v100H100z"/><path fill="#cddada" d="M200 500h100v100H200z"/><path fill="#c1c3ba" d="M300 500h100v100H300z"/><path fill="#b9c0b7" d="M400 500h100v100H400z"/><path fill="#cad0cf" d="M500 500h100v100H500z"/><path fill="#d4dfe1" d="M600 500h100v100H600z"/><path fill="#bbc9c5" d="M700 500h100v100H700z"/></svg>