<svg xmlns="http://www.w3.org/2000/svg" viewBox="0 0 800 600"><defs/><path fill="#b2b2b5" d="M0 0h100v100H0z"/><path fill="#a9a7a8" d="M100 0h100v100H100z"/><path fill="#acafb3" d="M200 0h100v100H200z"/><path fill="#a8adb1" d="M300 0h100v100H300z"/><path fill="#aaa7a4" d="M400 0h100v100H400z"/><path fill="#98979a" d="M500 0h100v100H500z"/><path fill="#929299" d="M600 0h100v100H600z"/><path fill="#a49c95" d="M700 0h100v100H700z"/><path fill="#afa097" d="M0 100h100v100H0z"/><path fill="#927971" d="M100 100h100v100H100z"/><path fill="#a6a4a4" d="M200 100h100v100H200z"/><path fill="#b1a8a3" d="M300 100h100v100H300z"/><path fill="#ab9f96" d="M400 100h100v100H400z"/><path fill="#485785" d="M500 100h100v100H500z"/><path fill="#374a84" d="M600 100h100v100H600z"/><path fill="#98867d" d="M700 100h100v100H700z"/><path fill="#a69186" d="M0 200h100v100H0z"/><path fill="#9c8b83" d="M100 200h100v100H100z"/><path fill="#a29895" d="M200 200h100v100H200z"/><path fill="#baaeab" d="M300 200h100v100H300z"/><path fill="#b8b2b0" d="M400 200h100v100H400z"/><path fill="#929497" d="M500 200h100v100H500z"/><path fill="#7d7f81" d="M600 200h100v100H600z"/><path fill="#958c88" d="M700 200h100v100H700z"/><path fill="#8d6e62" d="M0 300h100v100H0z"/><path fill="#9f8b84" d="M100 300h100v100H100z"/><path fill="#a9a09a" d="M200 300h100v100H200z"/><path fill="#a5a59f" d="M300 300h100v100H300z"/><path fill="#afafb0" d="M400 300h100v100H400z"/><path fill="#979280" d="M500 300h100v100H500z"/><path fill="#79755b" d="M600 300h100v100H600z"/><path fill="#90897e" d="M700 300h100v100H700z"/><path fill="#8a6b60" d="M0 400h100v100H0z"/><path fill="#a38f7f" d="M100 400h100v100H100z"/><path fill="#8b9eae" d="M200 400h100v100H200z"/><path fill="#608290" d="M300 400h100v100H300z"/><path fill="#7f96a5" d="M400 400h100v100H400z"/><path fill="#aeabae" d="M500 400h100v100H500z"/><path fill="#a6a5a9" d="M600 400h100v100H600z"/><path fill="#8a6b66" d="M700 400h100v100H700z"/><path fill="#acafb3" d="M0 500h100v100H0z"/><path fill="#a9b0b3" d="M100 500h100v100H100z"/><path fill="#a6acb3" d="M200 500h100v100H200z"/><path fill="#9ea3ac" d="M300 500h100v100H300z"/><path fill="#969ca3" d="M400 500h100v100H400z"/><path fill="#93989d" d="M500 500h100v100H500z"/><path fill="#888c91" d="M600 500h100v100H600z"/><path fill="#766c6f" d="M700 500h100v100H700z"/></svg>