<svg xmlns="http://www.w3.org/2000/svg" viewBox="0 0 800 600"><defs/><path fill="#d2c1ba" d="M0 0h100v100H0z"/><path fill="#9c9697" d="M100 0h100v100H100z"/><path fill="#a09898" d="M200 0h100v100H200z"/><path fill="#b6a6a4" d="M300 0h100v100H300z"/><path fill="#f5e6d4" d="M400 0h100v100H400z"/><path fill="#f6e8d5" d="M500 0h100v100H500z"/><path fill="#b2a5a5" d="M600 0h100v100H600z"/><path fill="#9c979d" d="M700 0h100v100H700z"/><path fill="#9b6c59" d="M0 100h100v100H0z"/><path fill="#1a0408" d="M100 100h100v100H100z"/><path fill="#170a10" d="M200 100h100v100H200z"/><path fill="#503023" d="M300 100h100v100H300z"/><path fill="#e9bd90" d="M400 100h100v100H400z"/><path fill="#f3c596" d="M500 100h100v100H500z"/><path fill="#502b2b" d="M600 100h100v100H600z"/><path fill="#33181f" d="M700 100h100v100H700z"/><path fill="#6f4744" d="M0 200h100v100H0z"/><path fill="#411e1f" d="M100 200h100v100H100z"/><path fill="#342124" d="M200 200h100v100H200z"/><path fill="#302528" d="M300 200h100v100H300z"/><path fill="#845942" d="M400 200h100v100H400z"/><path fill="#9d6a4f" d="M500 200h100v100H500z"/><path fill="#6c3c32" d="M600 200h100v100H600z"/><path fill="#5f3736" d="M700 200h100v100H700z"/><path fill="#3d303a" d="M0 300h100v100H0z"/><path fill="#3b1c1c" d="M100 300h100v100H100z"/><path fill="#622e26" d="M200 300h100v100H200z"/><path fill="#562c29" d="M300 300h100v100H300z"/><path fill="#723930" d="M400 300h100v100H400z"/><path fill="#703d33" d="M500 300h100v100H500z"/><path fill="#61372d" d="M600 300h100v100H600z"/><path fill="#412c2d" d="M700 300h100v100H700z"/><path fill="#34292f" d="M0 400h100v100H0z"/><path fill="#43201d" d="M100 400h100v100H100z"/><path fill="#a1644e" d="M200 400h100v100H200z"/><path fill="#bf7961" d="M300 400h100v100H300z"/><path fill="#b35840" d="M400 400h100v100H400z"/><path fill="#b65b43" d="M500 400h100v100H500z"/><path fill="#693b2f" d="M600 400h100v100H600z"/><path fill="#4b332f" d="M700 400h100v100H700z"/><path fill="#dcd8d7" d="M0 500h100v100H0z"/><path fill="#e4dad6" d="M100 500h100v100H100z"/><path fill="#ebe1dd" d="M200 500h100v100H200z"/><path fill="#ece3de" d="M300 500h100v100H300z"/><path fill="#e7dbd7" d="M400 500h100v100H400z"/><path fill="#e9ded9" d="M500 500h100v100H500z"/><path fill="#dfdad7" d="M600 500h100v100H600z"/><path fill="#ddd8d7" d="M700 500h100v100H700z"/></svg>