<svg xmlns="http://www.w3.org/2000/svg" viewBox="0 0 800 500"><defs/><path fill="#e1d3ce" d="M0 0h100v100H0z"/><path fill="#aca19a" d="M100 0h100v100H100z"/><path fill="#e0d0ca" d="M200 0h100v100H200z"/><path fill="#f5e3dd" d="M300 0h100v100H300z"/><path fill="#f3e1d9" d="M400 0h100v100H400z"/><path fill="#efdcd5" d="M500 0h100v100H500z"/><path fill="#edddd7" d="M600 0h100v100H600z"/><path fill="#ecdfdb" d="M700 0h100v100H700z"/><path fill="#d2bbb2" d="M0 100h100v100H0z"/><path fill="#7e6a5d" d="M100 100h100v100H100z"/><path fill="#e2c4b8" d="M200 100h100v100H200z"/><path fill="#c2a79e" d="M300 100h100v100H300z"/><path fill="#b4a5a1" d="M400 100h100v100H400z"/><path fill="#c5bebe" d="M500 100h100v100H500z"/><path fill="#cdb4ab" d="M600 100h100v100H600z"/><path fill="#d4c1ba" d="M700 100h100v100H700z"/><path fill="#bba9a0" d="M0 200h100v100H0z"/><path fill="#948074" d="M100 200h100v100H100z"/><path fill="#e1c8bf" d="M200 200h100v100H200z"/><path fill="#766a66" d="M300 200h100v100H300z"/><path fill="#837c7a" d="M400 200h100v100H400z"/><path fill="#cac1c0" d="M500 200h100v100H500z"/><path fill="#917e7b" d="M600 200h100v100H600z"/><path fill="#bfb2ae" d="M700 200h100v100H700z"/><path fill="#9d8e84" d="M0 300h100v100H0z"/><path fill="#80756b" d="M100 300h100v100H100z"/><path fill="#bdb2a7" d="M200 300h100v100H200z"/><path fill="#8f8a89" d="M300 300h100v100H300z"/><path fill="#958a81" d="M400 300h100v100H400z"/><path fill="#bfac9d" d="M500 300h100v100H500z"/><path fill="#9f8a88" d="M600 300h100v100H600z"/><path fill="#c5aea6" d="M700 300h100v100H700z"/><path fill="#9c9086" d="M0 400h100v100H0z"/><path fill="#786d5f" d="M100 400h100v100H100z"/><path fill="#988c7a" d="M200 400h100v100H200z"/><path fill="#9f9384" d="M300 400h100v100H300z"/><path fill="#9f9480" d="M400 400h100v100H400z"/><path fill="#a59683" d="M500 400h100v100H500z"/><path fill="#a59889" d="M600 400h100v100H600z"/><path fill="#a49990" d="M700 400h100v100H700z"/></svg>