<svg xmlns="http://www.w3.org/2000/svg" viewBox="0 0 800 500"><defs/><path fill="gray" d="M0 0h100v100H0z"/><path fill="#828282" d="M100 0h100v100H100z"/><path fill="gray" d="M200 0h100v100H200z"/><path fill="#7d7d7d" d="M300 0h100v100H300z"/><path fill="#8a8a8a" d="M400 0h100v100H400z"/><path fill="#878787" d="M500 0h100v100H500z"/><path fill="#868686" d="M600 0h100v100H600z"/><path fill="#8b8b8b" d="M700 0h100v100H700z"/><path fill="#e3e3e3" d="M0 100h100v100H0z"/><path fill="#dedede" d="M100 100h100v100H100z"/><path fill="#e5e5e5" d="M200 100h100v100H200z"/><path fill="#d5d5d5" d="M300 100h100v100H300z"/><path fill="#cbcbcb" d="M400 100h100v100H400z"/><path fill="#dcdcdc" d="M500 100h100v100H500z"/><path fill="#cfcfcf" d="M600 100h100v100H600z"/><path fill="#ebebeb" d="M700 100h100v100H700z"/><path fill="#dfdfdf" d="M0 200h100v100H0z"/><path fill="#c8c8c8" d="M100 200h100v100H100z"/><path fill="#dedede" d="M200 200h100v100H200z"/><path fill="#d1d1d1" d="M300 200h100v100H300z"/><path fill="#b9b9b9" d="M400 200h100v100H400z"/><path fill="#b2b2b2" d="M500 200h100v100H500z"/><path fill="#b4b4b4" d="M600 200h100v100H600z"/><path fill="#d8d8d8" d="M700 200h100v100H700z"/><path fill="#d1d1d1" d="M0 300h100v100H0z"/><path fill="#b4b4b4" d="M100 300h100v100H100z"/><path fill="#f3f3f3" d="M200 300h100v100H200z"/><path fill="#e6e6e6" d="M300 300h100v100H300z"/><path fill="#d9d9d9" d="M400 300h100v100H400z"/><path fill="#e3e3e3" d="M500 300h100v100H500z"/><path fill="#d8d8d8" d="M600 300h100v100H600z"/><path fill="#c4c4c4" d="M700 300h100v100H700z"/><path fill="#c8c8c8" d="M0 400h100v100H0z"/><path fill="#c3c3c3" d="M100 400h100v100H100z"/><path fill="#f9f9f9" d="M200 400h100v100H200z"/><path fill="#f3f3f3" d="M300 400h100v100H300z"/><path fill="#e5e5e5" d="M400 400h100v100H400z"/><path fill="#e0e0e0" d="M500 400h100v100H500z"/><path fill="#e3e3e3" d="M600 400h100v100H600z"/><path fill="#d3d3d3" d="M700 400h100v100H700z"/></svg>