<svg xmlns="http://www.w3.org/2000/svg" viewBox="0 0 800 500"><defs/><path fill="#d0ccc5" d="M0 0h100v100H0z"/><path fill="#9b968d" d="M100 0h100v100H100z"/><path fill="#9b998d" d="M200 0h100v100H200z"/><path fill="#c9cec8" d="M300 0h100v100H300z"/><path fill="#e2e1dc" d="M400 0h100v100H400z"/><path fill="#e1e1de" d="M500 0h100v100H500z"/><path fill="#dddad1" d="M600 0h100v100H600z"/><path fill="#dfdcd0" d="M700 0h100v100H700z"/><path fill="#b8b1a9" d="M0 100h100v100H0z"/><path fill="#685e56" d="M100 100h100v100H100z"/><path fill="#3a3935" d="M200 100h100v100H200z"/><path fill="#b5b8b7" d="M300 100h100v100H300z"/><path fill="#e2eff6" d="M400 100h100v100H400z"/><path fill="#dfebee" d="M500 100h100v100H500z"/><path fill="#a5ada0" d="M600 100h100v100H600z"/><path fill="#cdc9bc" d="M700 100h100v100H700z"/><path fill="#afab9f" d="M0 200h100v100H0z"/><path fill="#5f5c58" d="M100 200h100v100H100z"/><path fill="#404442" d="M200 200h100v100H200z"/><path fill="#8c908a" d="M300 200h100v100H300z"/><path fill="#d0cfce" d="M400 200h100v100H400z"/><path fill="#dde6e3" d="M500 200h100v100H500z"/><path fill="#8b8e76" d="M600 200h100v100H600z"/><path fill="#a3a59b" d="M700 200h100v100H700z"/><path fill="#aca79b" d="M0 300h100v100H0z"/><path fill="#5a5648" d="M100 300h100v100H100z"/><path fill="#675b4b" d="M200 300h100v100H200z"/><path fill="#7f6d56" d="M300 300h100v100H300z"/><path fill="#8d7f75" d="M400 300h100v100H400z"/><path fill="#727772" d="M500 300h100v100H500z"/><path fill="#7d6663" d="M600 300h100v100H600z"/><path fill="#83867d" d="M700 300h100v100H700z"/><path fill="#bcb5ae" d="M0 400h100v100H0z"/><path fill="#a18d7c" d="M100 400h100v100H100z"/><path fill="#9f8e7e" d="M200 400h100v100H200z"/><path fill="#a19d92" d="M300 400h100v100H300z"/><path fill="#aea5a6" d="M400 400h100v100H400z"/><path fill="#8f9494" d="M500 400h100v100H500z"/><path fill="#9a918d" d="M600 400h100v100H600z"/><path fill="#98a39f" d="M700 400h100v100H700z"/></svg>