<svg xmlns="http://www.w3.org/2000/svg" viewBox="0 0 800 600"><defs/><path fill="#79696b" d="M0 0h100v100H0z"/><path fill="#726a6b" d="M100 0h100v100H100z"/><path fill="#7b7475" d="M200 0h100v100H200z"/><path fill="#847f81" d="M300 0h100v100H300z"/><path fill="#838183" d="M400 0h100v100H400z"/><path fill="#888786" d="M500 0h100v100H500z"/><path fill="#97989a" d="M600 0h100v100H600z"/><path fill="#9d9ea1" d="M700 0h100v100H700z"/><path fill="#a5a1a7" d="M0 100h100v100H0z"/><path fill="#849094" d="M100 100h100v100H100z"/><path fill="#a9a9ac" d="M200 100h100v100H200z"/><path fill="#9ca2ac" d="M300 100h100v100H300z"/><path fill="#828693" d="M400 100h100v100H400z"/><path fill="#8f94a5" d="M500 100h100v100H500z"/><path fill="#9b959f" d="M600 100h100v100H600z"/><path fill="#9c949d" d="M700 100h100v100H700z"/><path fill="#a0a0a6" d="M0 200h100v100H0z"/><path fill="#939b9e" d="M100 200h100v100H100z"/><path fill="#b0adb4" d="M200 200h100v100H200z"/><path fill="#949aa1" d="M300 200h100v100H300z"/><path fill="#7a777c" d="M400 200h100v100H400z"/><path fill="#8a8d96" d="M500 200h100v100H500z"/><path fill="#97939e" d="M600 200h100v100H600z"/><path fill="#958892" d="M700 200h100v100H700z"/><path fill="#989b9f" d="M0 300h100v100H0z"/><path fill="#8d9596" d="M100 300h100v100H100z"/><path fill="#a39f9f" d="M200 300h100v100H200z"/><path fill="#9a9b9a" d="M300 300h100v100H300z"/><path fill="#837d7d" d="M400 300h100v100H400z"/><path fill="#8a898a" d="M500 300h100v100H500z"/><path fill="#8b868a" d="M600 300h100v100H600z"/><path fill="#897983" d="M700 300h100v100H700z"/><path fill="#8f999d" d="M0 400h100v100H0z"/><path fill="#8d9694" d="M100 400h100v100H100z"/><path fill="#a9a69e" d="M200 400h100v100H200z"/><path fill="#a7a7a3" d="M300 400h100v100H300z"/><path fill="#919296" d="M400 400h100v100H400z"/><path fill="#999896" d="M500 400h100v100H500z"/><path fill="#908e8f" d="M600 400h100v100H600z"/><path fill="#7f7a81" d="M700 400h100v100H700z"/><path fill="#a5abad" d="M0 500h100v100H0z"/><path fill="#a7abad" d="M100 500h100v100H100z"/><path fill="#a6abae" d="M200 500h100v100H200z"/><path fill="#9fa3a4" d="M300 500h100v100H300z"/><path fill="#949797" d="M400 500h100v100H400z"/><path fill="#909493" d="M500 500h100v100H500z"/><path fill="#8e9194" d="M600 500h100v100H600z"/><path fill="#868a8f" d="M700 500h100v100H700z"/></svg>