<svg xmlns="http://www.w3.org/2000/svg" viewBox="0 0 800 600"><defs/><path fill="#e1dacc" d="M0 0h100v100H0z"/><path fill="#ded5c7" d="M100 0h100v100H100z"/><path fill="#dfd5c6" d="M200 0h100v100H200z"/><path fill="#e1d6c6" d="M300 0h100v100H300z"/><path fill="#e0d5c6" d="M400 0h100v100H400z"/><path fill="#ded1b9" d="M500 0h100v100H500z"/><path fill="#d7c1a0" d="M600 0h100v100H600z"/><path fill="#d4b487" d="M700 0h100v100H700z"/><path fill="#d5cfc8" d="M0 100h100v100H0z"/><path fill="#d3cfc8" d="M100 100h100v100H100z"/><path fill="#c3cdc9" d="M200 100h100v100H200z"/><path fill="#d3d7d4" d="M300 100h100v100H300z"/><path fill="#d3d6d0" d="M400 100h100v100H400z"/><path fill="#c3c1bc" d="M500 100h100v100H500z"/><path fill="#ceb9ab" d="M600 100h100v100H600z"/><path fill="#d36a5f" d="M700 100h100v100H700z"/><path fill="#d7d3cd" d="M0 200h100v100H0z"/><path fill="#dedcdb" d="M100 200h100v100H100z"/><path fill="#a8c0c0" d="M200 200h100v100H200z"/><path fill="#a9c4bf" d="M300 200h100v100H300z"/><path fill="#b8c2bd" d="M400 200h100v100H400z"/><path fill="#9cafa7" d="M500 200h100v100H500z"/><path fill="#bebab3" d="M600 200h100v100H600z"/><path fill="#c0938e" d="M700 200h100v100H700z"/><path fill="#d8d6dd" d="M0 300h100v100H0z"/><path fill="#d8d4ca" d="M100 300h100v100H100z"/><path fill="#cdcfa4" d="M200 300h100v100H200z"/><path fill="#c4c499" d="M300 300h100v100H300z"/><path fill="#b0a88c" d="M400 300h100v100H400z"/><path fill="#cccaa6" d="M500 300h100v100H500z"/><path fill="#cbc098" d="M600 300h100v100H600z"/><path fill="#c07666" d="M700 300h100v100H700z"/><path fill="#cccec3" d="M0 400h100v100H0z"/><path fill="#c8b38f" d="M100 400h100v100H100z"/><path fill="#e0d17b" d="M200 400h100v100H200z"/><path fill="#e0db7d" d="M300 400h100v100H300z"/><path fill="#c4b964" d="M400 400h100v100H400z"/><path fill="#c9bb6d" d="M500 400h100v100H500z"/><path fill="#988f5e" d="M600 400h100v100H600z"/><path fill="#a76d56" d="M700 400h100v100H700z"/><path fill="#d4d3bb" d="M0 500h100v100H0z"/><path fill="#d6d3b8" d="M100 500h100v100H100z"/><path fill="#d8d5bf" d="M200 500h100v100H200z"/><path fill="#ddd9c3" d="M300 500h100v100H300z"/><path fill="#dfd9bc" d="M400 500h100v100H400z"/><path fill="#d5ceb3" d="M500 500h100v100H500z"/><path fill="#c9c1a8" d="M600 500h100v100H600z"/><path fill="#c3b696" d="M700 500h100v100H700z"/></svg>