<svg xmlns="http://www.w3.org/2000/svg" viewBox="0 0 800 500"><defs/><path fill="#d2bfaf" d="M0 0h100v100H0z"/><path fill="#c9ad97" d="M100 0h100v100H100z"/><path fill="#d0bdab" d="M200 0h100v100H200z"/><path fill="#c3b6aa" d="M300 0h100v100H300z"/><path fill="#b7a89f" d="M400 0h100v100H400z"/><path fill="#a39a92" d="M500 0h100v100H500z"/><path fill="#706b69" d="M600 0h100v100H600z"/><path fill="#6d6767" d="M700 0h100v100H700z"/><path fill="#af9b8b" d="M0 100h100v100H0z"/><path fill="#c6ae9a" d="M100 100h100v100H100z"/><path fill="#c6b9a9" d="M200 100h100v100H200z"/><path fill="#ada594" d="M300 100h100v100H300z"/><path fill="#9e9b95" d="M400 100h100v100H400z"/><path fill="#b5aca4" d="M500 100h100v100H500z"/><path fill="#c7b6aa" d="M600 100h100v100H600z"/><path fill="#c2a8a0" d="M700 100h100v100H700z"/><path fill="#9f8a7b" d="M0 200h100v100H0z"/><path fill="#a48b84" d="M100 200h100v100H100z"/><path fill="#b89b96" d="M200 200h100v100H200z"/><path fill="#aaa299" d="M300 200h100v100H300z"/><path fill="#999895" d="M400 200h100v100H400z"/><path fill="#a09b97" d="M500 200h100v100H500z"/><path fill="#a89790" d="M600 200h100v100H600z"/><path fill="#a5908c" d="M700 200h100v100H700z"/><path fill="#998c81" d="M0 300h100v100H0z"/><path fill="#a48f86" d="M100 300h100v100H100z"/><path fill="#b39c91" d="M200 300h100v100H200z"/><path fill="#a59f99" d="M300 300h100v100H300z"/><path fill="#9a998f" d="M400 300h100v100H400z"/><path fill="#ababa3" d="M500 300h100v100H500z"/><path fill="#b5a69b" d="M600 300h100v100H600z"/><path fill="#c5ada4" d="M700 300h100v100H700z"/><path fill="#baaca2" d="M0 400h100v100H0z"/><path fill="#b0a79d" d="M100 400h100v100H100z"/><path fill="#b3a599" d="M200 400h100v100H200z"/><path fill="#a8a49e" d="M300 400h100v100H300z"/><path fill="#b5b3a8" d="M400 400h100v100H400z"/><path fill="#b5b6ab" d="M500 400h100v100H500z"/><path fill="#c2bcac" d="M600 400h100v100H600z"/><path fill="#cec2b8" d="M700 400h100v100H700z"/></svg>