<svg xmlns="http://www.w3.org/2000/svg" viewBox="0 0 800 1100"><defs/><path fill="#bba98e" d="M0 0h100v100H0z"/><path fill="#9f7b57" d="M100 0h100v100H100z"/><path fill="#bfa682" d="M200 0h100v100H200z"/><path fill="#e5d4b2" d="M300 0h100v100H300z"/><path fill="#dccaa6" d="M400 0h100v100H400z"/><path fill="#ad8962" d="M500 0h100v100H500z"/><path fill="#a17c5e" d="M600 0h100v100H600z"/><path fill="#c1b39a" d="M700 0h100v100H700z"/><path fill="#8b7b68" d="M0 100h100v100H0z"/><path fill="#8b7e6c" d="M100 100h100v100H100z"/><path fill="#a29078" d="M200 100h100v100H200z"/><path fill="#b4a38a" d="M300 100h100v100H300z"/><path fill="#b09d85" d="M400 100h100v100H400z"/><path fill="#97846d" d="M500 100h100v100H500z"/><path fill="#927e67" d="M600 100h100v100H600z"/><path fill="#8f7c61" d="M700 100h100v100H700z"/><path fill="#513f3d" d="M0 200h100v100H0z"/><path fill="#4e423f" d="M100 200h100v100H100z"/><path fill="#5d4640" d="M200 200h100v100H200z"/><path fill="#5c4139" d="M300 200h100v100H300z"/><path fill="#5e4037" d="M400 200h100v100H400z"/><path fill="#4d3934" d="M500 200h100v100H500z"/><path fill="#3d2c2b" d="M600 200h100v100H600z"/><path fill="#493223" d="M700 200h100v100H700z"/><path fill="#76655d" d="M0 300h100v100H0z"/><path fill="#b19f95" d="M100 300h100v100H100z"/><path fill="#987a68" d="M200 300h100v100H200z"/><path fill="#8b7167" d="M300 300h100v100H300z"/><path fill="#846252" d="M400 300h100v100H400z"/><path fill="#a57e65" d="M500 300h100v100H500z"/><path fill="#8a756c" d="M600 300h100v100H600z"/><path fill="#533b2c" d="M700 300h100v100H700z"/><path fill="#4f4948" d="M0 400h100v100H0z"/><path fill="#d3cfc8" d="M100 400h100v100H100z"/><path fill="#c3bebe" d="M200 400h100v100H200z"/><path fill="#524246" d="M300 400h100v100H300z"/><path fill="#6d5d58" d="M400 400h100v100H400z"/><path fill="#e3e1df" d="M500 400h100v100H500z"/><path fill="#958c8a" d="M600 400h100v100H600z"/><path fill="#524235" d="M700 400h100v100H700z"/><path fill="#544a4d" d="M0 500h100v100H0z"/><path fill="#ad9488" d="M100 500h100v100H100z"/><path fill="#d3b5a3" d="M200 500h100v100H200z"/><path fill="#8b6a65" d="M300 500h100v100H300z"/><path fill="#a6897a" d="M400 500h100v100H400z"/><path fill="#dfc8b3" d="M500 500h100v100H500z"/><path fill="#795b53" d="M600 500h100v100H600z"/><path fill="#644a37" d="M700 500h100v100H700z"/><path fill="#5d4d44" d="M0 600h100v100H0z"/><path fill="#a08270" d="M100 600h100v100H100z"/><path fill="#d6c4b5" d="M200 600h100v100H200z"/><path fill="#696566" d="M300 600h100v100H300z"/><path fill="#ac9f98" d="M400 600h100v100H400z"/><path fill="#d9a78a" d="M500 600h100v100H500z"/><path fill="#8f5b43" d="M600 600h100v100H600z"/><path fill="#997555" d="M700 600h100v100H700z"/><path fill="#938379" d="M0 700h100v100H0z"/><path fill="#9e958a" d="M100 700h100v100H100z"/><path fill="#aca9a1" d="M200 700h100v100H200z"/><path fill="#605c56" d="M300 700h100v100H300z"/><path fill="#86837e" d="M400 700h100v100H400z"/><path fill="#a79a8e" d="M500 700h100v100H500z"/><path fill="#8f7a68" d="M600 700h100v100H600z"/><path fill="#998878" d="M700 700h100v100H700z"/><path fill="#4b403b" d="M0 800h100v100H0z"/><path fill="#141515" d="M100 800h100v100H100z"/><path fill="#392e2d" d="M200 800h100v100H200z"/><path fill="#836354" d="M300 800h100v100H300z"/><path fill="#674b43" d="M400 800h100v100H400z"/><path fill="#4f3b39" d="M500 800h100v100H500z"/><path fill="#695140" d="M600 800h100v100H600z"/><path fill="#392f2c" d="M700 800h100v100H700z"/><path fill="#423e44" d="M0 900h100v100H0z"/><path d="M100 900h100v100H100z"/><path fill="#3e373f" d="M200 900h100v100H200z"/><path fill="#82695f" d="M300 900h100v100H300z"/><path fill="#78615a" d="M400 900h100v100H400z"/><path fill="#745b4e" d="M500 900h100v100H500z"/><path fill="#7a5d44" d="M600 900h100v100H600z"/><path fill="#332922" d="M700 900h100v100H700z"/><path fill="#8e7e6b" d="M0 1000h100v100H0z"/><path fill="#58533c" d="M100 1000h100v100H100z"/><path fill="#8e734f" d="M200 1000h100v100H200z"/><path fill="#bd9261" d="M300 1000h100v100H300z"/><path fill="#bb9462" d="M400 1000h100v100H400z"/><path fill="#bb9562" d="M500 1000h100v100H500z"/><path fill="#b08857" d="M600 1000h100v100H600z"/><path fill="#9a764b" d="M700 1000h100v100H700z"/></svg>