<svg xmlns="http://www.w3.org/2000/svg" viewBox="0 0 800 400"><defs/><path fill="#7faebe" d="M0 0h100v100H0z"/><path fill="#7e716b" d="M100 0h100v100H100z"/><path fill="#474a6a" d="M200 0h100v100H200z"/><path fill="#4b4e6d" d="M300 0h100v100H300z"/><path fill="#4f5258" d="M400 0h100v100H400z"/><path fill="#474a61" d="M500 0h100v100H500z"/><path fill="#524f67" d="M600 0h100v100H600z"/><path fill="#809b8c" d="M700 0h100v100H700z"/><path fill="#7a9da8" d="M0 100h100v100H0z"/><path fill="#716a5c" d="M100 100h100v100H100z"/><path fill="#275557" d="M200 100h100v100H200z"/><path fill="#376975" d="M300 100h100v100H300z"/><path fill="#508079" d="M400 100h100v100H400z"/><path fill="#497585" d="M500 100h100v100H500z"/><path fill="#537598" d="M600 100h100v100H600z"/><path fill="#828e74" d="M700 100h100v100H700z"/><path fill="#71818b" d="M0 200h100v100H0z"/><path fill="#71765b" d="M100 200h100v100H100z"/><path fill="#64785a" d="M200 200h100v100H200z"/><path fill="#7f806e" d="M300 200h100v100H300z"/><path fill="#9eaa90" d="M400 200h100v100H400z"/><path fill="#96a285" d="M500 200h100v100H500z"/><path fill="#81947b" d="M600 200h100v100H600z"/><path fill="#586d7b" d="M700 200h100v100H700z"/><path fill="#67706f" d="M0 300h100v100H0z"/><path fill="#496967" d="M100 300h100v100H100z"/><path fill="#8d8690" d="M200 300h100v100H200z"/><path fill="#a18582" d="M300 300h100v100H300z"/><path fill="#ad958b" d="M400 300h100v100H400z"/><path fill="#ab9071" d="M500 300h100v100H500z"/><path fill="#b0937f" d="M600 300h100v100H600z"/><path fill="#8c8b70" d="M700 300h100v100H700z"/></svg>