<svg xmlns="http://www.w3.org/2000/svg" viewBox="0 0 800 500"><defs/><path fill="#c5cacf" d="M0 0h100v100H0z"/><path fill="#bebeba" d="M100 0h100v100H100z"/><path fill="#bfc4c8" d="M200 0h100v100H200z"/><path fill="#c2cad5" d="M300 0h100v100H300z"/><path fill="#c2c9d1" d="M400 0h100v100H400z"/><path fill="#c3c9d0" d="M500 0h100v100H500z"/><path fill="#c2c8ce" d="M600 0h100v100H600z"/><path fill="#c6cad0" d="M700 0h100v100H700z"/><path fill="#93a0ad" d="M0 100h100v100H0z"/><path fill="#6a6553" d="M100 100h100v100H100z"/><path fill="#6c869f" d="M200 100h100v100H200z"/><path fill="#7191b1" d="M300 100h100v100H300z"/><path fill="#6c8cab" d="M400 100h100v100H400z"/><path fill="#718fb0" d="M500 100h100v100H500z"/><path fill="#7492b3" d="M600 100h100v100H600z"/><path fill="#829ab5" d="M700 100h100v100H700z"/><path fill="#939a9d" d="M0 200h100v100H0z"/><path fill="#6b6957" d="M100 200h100v100H100z"/><path fill="#7c93a5" d="M200 200h100v100H200z"/><path fill="#7f95a9" d="M300 200h100v100H300z"/><path fill="#7492b3" d="M400 200h100v100H400z"/><path fill="#7b8e9e" d="M500 200h100v100H500z"/><path fill="#8595a1" d="M600 200h100v100H600z"/><path fill="#92a7ba" d="M700 200h100v100H700z"/><path fill="#82827a" d="M0 300h100v100H0z"/><path fill="#78653f" d="M100 300h100v100H100z"/><path fill="#b69d63" d="M200 300h100v100H200z"/><path fill="#a38b53" d="M300 300h100v100H300z"/><path fill="#ad9e73" d="M400 300h100v100H400z"/><path fill="#b0a97e" d="M500 300h100v100H500z"/><path fill="#a49c7a" d="M600 300h100v100H600z"/><path fill="#9a9495" d="M700 300h100v100H700z"/><path fill="#aba89d" d="M0 400h100v100H0z"/><path fill="#b8a78c" d="M100 400h100v100H100z"/><path fill="#cdbea2" d="M200 400h100v100H200z"/><path fill="#c6ba9c" d="M300 400h100v100H300z"/><path fill="#cdbd94" d="M400 400h100v100H400z"/><path fill="#d0c389" d="M500 400h100v100H500z"/><path fill="#cbbb8c" d="M600 400h100v100H600z"/><path fill="#b5a897" d="M700 400h100v100H700z"/></svg>