<svg xmlns="http://www.w3.org/2000/svg" viewBox="0 0 800 600"><defs/><path fill="#f9f9f7" d="M0 0h100v100H0z"/><path fill="#f3f4f9" d="M100 0h100v100H100z"/><path fill="#fbefd2" d="M200 0h100v100H200z"/><path fill="#fceab9" d="M300 0h100v100H300z"/><path fill="#f2f7f8" d="M400 0h100v100H400z"/><path fill="#fdfdfb" d="M500 0h100v100H500z"/><path fill="#fff" d="M600 0h100v100H600z"/><path fill="#fafaf9" d="M700 0h100v100H700z"/><path fill="#f6f6f4" d="M0 100h100v100H0z"/><path fill="#ebedf2" d="M100 100h100v100H100z"/><path fill="#fdecc2" d="M200 100h100v100H200z"/><path fill="#fbe9b5" d="M300 100h100v100H300z"/><path fill="#e0edec" d="M400 100h100v100H400z"/><path fill="#fcfbf9" d="M500 100h100v100H500z"/><path fill="#ebeceb" d="M600 100h100v100H600z"/><path fill="#f3f4f3" d="M700 100h100v100H700z"/><path fill="#f3f2ee" d="M0 200h100v100H0z"/><path fill="#eff3fc" d="M100 200h100v100H100z"/><path fill="#fce3a1" d="M200 200h100v100H200z"/><path fill="#fce8ae" d="M300 200h100v100H300z"/><path fill="#fff" d="M400 200h100v100H400z"/><path fill="#dcd1d6" d="M500 200h100v100H500z"/><path fill="#d2cbc6" d="M600 200h100v100H600z"/><path fill="#f8f4f3" d="M700 200h100v100H700z"/><path fill="#ecebe9" d="M0 300h100v100H0z"/><path fill="#e9efef" d="M100 300h100v100H100z"/><path fill="#f4ba7e" d="M200 300h100v100H200z"/><path fill="#fbb96b" d="M300 300h100v100H300z"/><path fill="#d9b9b5" d="M400 300h100v100H400z"/><path fill="#e3d0d0" d="M500 300h100v100H500z"/><path fill="#d2cbcf" d="M600 300h100v100H600z"/><path fill="#d6d4d7" d="M700 300h100v100H700z"/><path fill="#e9e9e6" d="M0 400h100v100H0z"/><path fill="#edede8" d="M100 400h100v100H100z"/><path fill="#e1d7d0" d="M200 400h100v100H200z"/><path fill="#f5e6da" d="M300 400h100v100H300z"/><path fill="#a9a1d2" d="M400 400h100v100H400z"/><path fill="#c7e0f3" d="M500 400h100v100H500z"/><path fill="#aee0d3" d="M600 400h100v100H600z"/><path fill="#afd2b5" d="M700 400h100v100H700z"/><path fill="#f6f6f4" d="M0 500h100v100H0z"/><path fill="#f7f7f5" d="M100 500h100v100H100z"/><path fill="#f1f2f1" d="M200 500h100v100H200z"/><path fill="#faf9f6" d="M300 500h100v100H300z"/><path fill="#adcaf4" d="M400 500h100v100H400z"/><path fill="#f1f7f8" d="M500 500h100v100H500z"/><path fill="#fcfaf6" d="M600 500h100v100H600z"/><path fill="#f7f3ef" d="M700 500h100v100H700z"/></svg>