<svg xmlns="http://www.w3.org/2000/svg" viewBox="0 0 800 400"><defs/><path fill="#fbfbfb" d="M0 0h100v100H0z"/><path fill="#f2f2f7" d="M100 0h100v100H100z"/><path fill="#f2f2f6" d="M200 0h100v100H200z"/><path fill="#d3cfe0" d="M300 0h100v100H300z"/><path fill="#a099bc" d="M400 0h100v100H400z"/><path fill="#a19abf" d="M500 0h100v100H500z"/><path fill="#b7b1d0" d="M600 0h100v100H600z"/><path fill="#d4d1e2" d="M700 0h100v100H700z"/><path fill="#d8d5e6" d="M0 100h100v100H0z"/><path fill="#f3f1f5" d="M100 100h100v100H100z"/><path fill="#c1bbd6" d="M200 100h100v100H200z"/><path fill="#a199c2" d="M300 100h100v100H300z"/><path fill="#796fa2" d="M400 100h100v100H400z"/><path fill="#a09abe" d="M500 100h100v100H500z"/><path fill="#a9a3ca" d="M600 100h100v100H600z"/><path fill="#aea8cc" d="M700 100h100v100H700z"/><path fill="#c1bcd6" d="M0 200h100v100H0z"/><path fill="#d3d0e2" d="M100 200h100v100H100z"/><path fill="#cbc7dd" d="M200 200h100v100H200z"/><path fill="#e0ddea" d="M300 200h100v100H300z"/><path fill="#d4d0e1" d="M400 200h100v100H400z"/><path fill="#d1cee2" d="M500 200h100v100H500z"/><path fill="#c4c1d9" d="M600 200h100v100H600z"/><path fill="#b0aacd" d="M700 200h100v100H700z"/><path fill="#e2e1eb" d="M0 300h100v100H0z"/><path fill="#f8f8fa" d="M100 300h100v100H100z"/><path fill="#dfdded" d="M200 300h100v100H200z"/><path fill="#e0dfec" d="M300 300h100v100H300z"/><path fill="#d7d4e3" d="M400 300h100v100H400z"/><path fill="#b6b1d1" d="M500 300h100v100H500z"/><path fill="#aea9cd" d="M600 300h100v100H600z"/><path fill="#a19ac5" d="M700 300h100v100H700z"/></svg>