<svg xmlns="http://www.w3.org/2000/svg" viewBox="0 0 800 600"><defs/><path fill="#aca9a8" d="M0 0h100v100H0z"/><path fill="#aaa8aa" d="M100 0h100v100H100z"/><path fill="#a9a7aa" d="M200 0h100v100H200z"/><path fill="#abaaad" d="M300 0h100v100H300z"/><path fill="#a6a5a9" d="M400 0h100v100H400z"/><path fill="#9a9a9c" d="M500 0h100v100H500z"/><path fill="#999899" d="M600 0h100v100H600z"/><path fill="#969595" d="M700 0h100v100H700z"/><path fill="#b1b1b2" d="M0 100h100v100H0z"/><path fill="#aaaaac" d="M100 100h100v100H100z"/><path fill="#9f9da2" d="M200 100h100v100H200z"/><path fill="#9e9ca1" d="M300 100h100v100H300z"/><path fill="#9a999e" d="M400 100h100v100H400z"/><path fill="#929194" d="M500 100h100v100H500z"/><path fill="#949396" d="M600 100h100v100H600z"/><path fill="#929292" d="M700 100h100v100H700z"/><path fill="#a8a9a9" d="M0 200h100v100H0z"/><path fill="#a7a6a9" d="M100 200h100v100H100z"/><path fill="#989699" d="M200 200h100v100H200z"/><path fill="#98979b" d="M300 200h100v100H300z"/><path fill="#949296" d="M400 200h100v100H400z"/><path fill="#908e93" d="M500 200h100v100H500z"/><path fill="#8b8a8d" d="M600 200h100v100H600z"/><path fill="#989899" d="M700 200h100v100H700z"/><path fill="#9f9f9f" d="M0 300h100v100H0z"/><path fill="#9c9b9e" d="M100 300h100v100H100z"/><path fill="#959499" d="M200 300h100v100H200z"/><path fill="#908e94" d="M300 300h100v100H300z"/><path fill="#949297" d="M400 300h100v100H400z"/><path fill="#929095" d="M500 300h100v100H500z"/><path fill="#7d7c80" d="M600 300h100v100H600z"/><path fill="#8f8f91" d="M700 300h100v100H700z"/><path fill="#a1a1a2" d="M0 400h100v100H0z"/><path fill="#9a999c" d="M100 400h100v100H100z"/><path fill="#99989d" d="M200 400h100v100H200z"/><path fill="#97969c" d="M300 400h100v100H300z"/><path fill="#8e8d92" d="M400 400h100v100H400z"/><path fill="#87868c" d="M500 400h100v100H500z"/><path fill="#8c8b90" d="M600 400h100v100H600z"/><path fill="#8c8c8e" d="M700 400h100v100H700z"/><path fill="#ababad" d="M0 500h100v100H0z"/><path fill="#a9a9ac" d="M100 500h100v100H100z"/><path fill="#a8a8ad" d="M200 500h100v100H200z"/><path fill="#a6a6ab" d="M300 500h100v100H300z"/><path fill="#9c9ba0" d="M400 500h100v100H400z"/><path fill="#939298" d="M500 500h100v100H500z"/><path fill="#939296" d="M600 500h100v100H600z"/><path fill="#98989b" d="M700 500h100v100H700z"/></svg>