<svg xmlns="http://www.w3.org/2000/svg" viewBox="0 0 800 500"><defs/><path fill="#7f757a" d="M0 0h100v100H0z"/><path fill="#977c66" d="M100 0h100v100H100z"/><path fill="#a19a99" d="M200 0h100v100H200z"/><path fill="#bdbaba" d="M300 0h100v100H300z"/><path fill="#d7ccc0" d="M400 0h100v100H400z"/><path fill="#c6b6ac" d="M500 0h100v100H500z"/><path fill="#b19e9c" d="M600 0h100v100H600z"/><path fill="#a0857d" d="M700 0h100v100H700z"/><path fill="#87797b" d="M0 100h100v100H0z"/><path fill="#9b7859" d="M100 100h100v100H100z"/><path fill="#b1aca2" d="M200 100h100v100H200z"/><path fill="#c6c6ba" d="M300 100h100v100H300z"/><path fill="#d4d1ca" d="M400 100h100v100H400z"/><path fill="#bbb7a5" d="M500 100h100v100H500z"/><path fill="#aea29d" d="M600 100h100v100H600z"/><path fill="#af8c8a" d="M700 100h100v100H700z"/><path fill="#867266" d="M0 200h100v100H0z"/><path fill="#9d836c" d="M100 200h100v100H100z"/><path fill="#a2ada4" d="M200 200h100v100H200z"/><path fill="#c5c7b8" d="M300 200h100v100H300z"/><path fill="#d9d7d1" d="M400 200h100v100H400z"/><path fill="#bfc2aa" d="M500 200h100v100H500z"/><path fill="#bdaf9f" d="M600 200h100v100H600z"/><path fill="#b78c88" d="M700 200h100v100H700z"/><path fill="#836046" d="M0 300h100v100H0z"/><path fill="#937a59" d="M100 300h100v100H100z"/><path fill="#73785e" d="M200 300h100v100H200z"/><path fill="#c7bfa6" d="M300 300h100v100H300z"/><path fill="#d9cdc8" d="M400 300h100v100H400z"/><path fill="#d2c1b2" d="M500 300h100v100H500z"/><path fill="#c2aa88" d="M600 300h100v100H600z"/><path fill="#af8568" d="M700 300h100v100H700z"/><path fill="#937861" d="M0 400h100v100H0z"/><path fill="#ac9883" d="M100 400h100v100H100z"/><path fill="#b1a8a3" d="M200 400h100v100H200z"/><path fill="#e2d5c3" d="M300 400h100v100H300z"/><path fill="#e1d4c7" d="M400 400h100v100H400z"/><path fill="#d4c6b7" d="M500 400h100v100H500z"/><path fill="#bfaca2" d="M600 400h100v100H600z"/><path fill="#a2806d" d="M700 400h100v100H700z"/></svg>