<svg xmlns="http://www.w3.org/2000/svg" viewBox="0 0 800 500"><defs/><path fill="#1b7d85" d="M0 0h100v100H0z"/><path fill="#195e64" d="M100 0h100v100H100z"/><path fill="#206468" d="M200 0h100v100H200z"/><path fill="#1b6a6f" d="M300 0h100v100H300z"/><path fill="#1e7376" d="M400 0h100v100H400z"/><path fill="#18676b" d="M500 0h100v100H500z"/><path fill="#206a70" d="M600 0h100v100H600z"/><path fill="#1c828a" d="M700 0h100v100H700z"/><path fill="#1c7276" d="M0 100h100v100H0z"/><path fill="#1b4848" d="M100 100h100v100H100z"/><path fill="#204c4a" d="M200 100h100v100H200z"/><path fill="#1a4a49" d="M300 100h100v100H300z"/><path fill="#1b4d4e" d="M400 100h100v100H400z"/><path fill="#184a49" d="M500 100h100v100H500z"/><path fill="#175154" d="M600 100h100v100H600z"/><path fill="#19727a" d="M700 100h100v100H700z"/><path fill="#1e747a" d="M0 200h100v100H0z"/><path fill="#1d4c50" d="M100 200h100v100H100z"/><path fill="#175c5f" d="M200 200h100v100H200z"/><path fill="#1d5b5b" d="M300 200h100v100H300zm100 0h100v100H400z"/><path fill="#1c5d5c" d="M500 200h100v100H500z"/><path fill="#2a635e" d="M600 200h100v100H600z"/><path fill="#1c7075" d="M700 200h100v100H700z"/><path fill="#196467" d="M0 300h100v100H0z"/><path fill="#163d3e" d="M100 300h100v100H100z"/><path fill="#206769" d="M200 300h100v100H200z"/><path fill="#1d676c" d="M300 300h100v100H300z"/><path fill="#1b6165" d="M400 300h100v100H400z"/><path fill="#19686d" d="M500 300h100v100H500z"/><path fill="#225e5b" d="M600 300h100v100H600z"/><path fill="#1b6e72" d="M700 300h100v100H700z"/><path fill="#166168" d="M0 400h100v100H0z"/><path fill="#185559" d="M100 400h100v100H100z"/><path fill="#1e6f73" d="M200 400h100v100H200z"/><path fill="#216668" d="M300 400h100v100H300z"/><path fill="#267774" d="M400 400h100v100H400z"/><path fill="#1b7678" d="M500 400h100v100H500z"/><path fill="#1f6c74" d="M600 400h100v100H600z"/><path fill="#23777e" d="M700 400h100v100H700z"/></svg>