<svg xmlns="http://www.w3.org/2000/svg" viewBox="0 0 800 1400"><defs/><path fill="#cac3a8" d="M0 0h100v100H0z"/><path fill="#c7bc9e" d="M100 0h100v100H100z"/><path fill="#b9af94" d="M200 0h100v100H200z"/><path fill="#c7c19d" d="M300 0h100v100H300z"/><path fill="#e7e4c6" d="M400 0h100v100H400z"/><path fill="#dcd1ab" d="M500 0h100v100H500z"/><path fill="#ccc095" d="M600 0h100v100H600z"/><path fill="#ccb88b" d="M700 0h100v100H700z"/><path fill="#c5bba2" d="M0 100h100v100H0z"/><path fill="#bbaf92" d="M100 100h100v100H100z"/><path fill="#aa9d80" d="M200 100h100v100H200z"/><path fill="#b4ae8c" d="M300 100h100v100H300z"/><path fill="#cac09f" d="M400 100h100v100H400z"/><path fill="#cfbd97" d="M500 100h100v100H500z"/><path fill="#c4b989" d="M600 100h100v100H600z"/><path fill="#c6b783" d="M700 100h100v100H700z"/><path fill="#bdaf98" d="M0 200h100v100H0z"/><path fill="#afa389" d="M100 200h100v100H100z"/><path fill="#a7997d" d="M200 200h100v100H200z"/><path fill="#a1977c" d="M300 200h100v100H300z"/><path fill="#c0ab92" d="M400 200h100v100H400z"/><path fill="#d1b391" d="M500 200h100v100H500z"/><path fill="#b6af7f" d="M600 200h100v100H600z"/><path fill="#b6aa75" d="M700 200h100v100H700z"/><path fill="#b19f88" d="M0 300h100v100H0z"/><path fill="#a6967e" d="M100 300h100v100H100z"/><path fill="#a49279" d="M200 300h100v100H200z"/><path fill="#9d8c73" d="M300 300h100v100H300z"/><path fill="#c1a98e" d="M400 300h100v100H400z"/><path fill="#b79c80" d="M500 300h100v100H500z"/><path fill="#a4996d" d="M600 300h100v100H600z"/><path fill="#9c955e" d="M700 300h100v100H700z"/><path fill="#a99a83" d="M0 400h100v100H0z"/><path fill="#ac9981" d="M100 400h100v100H100z"/><path fill="#9c8a72" d="M200 400h100v100H200z"/><path fill="#8e7f6a" d="M300 400h100v100H300z"/><path fill="#a2937d" d="M400 400h100v100H400z"/><path fill="#9a886e" d="M500 400h100v100H500z"/><path fill="#9d8b68" d="M600 400h100v100H600z"/><path fill="#8b7c57" d="M700 400h100v100H700z"/><path fill="#b09d82" d="M0 500h100v100H0z"/><path fill="#a6957c" d="M100 500h100v100H100z"/><path fill="#8f775b" d="M200 500h100v100H200z"/><path fill="#947a63" d="M300 500h100v100H300z"/><path fill="#a7876c" d="M400 500h100v100H400z"/><path fill="#927357" d="M500 500h100v100H500z"/><path fill="#847a64" d="M600 500h100v100H600z"/><path fill="#928362" d="M700 500h100v100H700z"/><path fill="#7c6a56" d="M0 600h100v100H0z"/><path fill="#89755e" d="M100 600h100v100H100z"/><path fill="#a4734f" d="M200 600h100v100H200z"/><path fill="#ab8768" d="M300 600h100v100H300z"/><path fill="#ad734d" d="M400 600h100v100H400z"/><path fill="#af6f47" d="M500 600h100v100H500z"/><path fill="#966a46" d="M600 600h100v100H600z"/><path fill="#847056" d="M700 600h100v100H700z"/><path fill="#322c24" d="M0 700h100v100H0z"/><path fill="#726253" d="M100 700h100v100H100z"/><path fill="#a17457" d="M200 700h100v100H200z"/><path fill="#a26b50" d="M300 700h100v100H300z"/><path fill="#a2784f" d="M400 700h100v100H400z"/><path fill="#99694c" d="M500 700h100v100H500z"/><path fill="#a66941" d="M600 700h100v100H600z"/><path fill="#806852" d="M700 700h100v100H700z"/><path fill="#302d26" d="M0 800h100v100H0z"/><path fill="#4a413d" d="M100 800h100v100H100z"/><path fill="#8d6b52" d="M200 800h100v100H200z"/><path fill="#997e66" d="M300 800h100v100H300z"/><path fill="#9b7052" d="M400 800h100v100H400z"/><path fill="#9d6e46" d="M500 800h100v100H500z"/><path fill="#977964" d="M600 800h100v100H600z"/><path fill="#685946" d="M700 800h100v100H700z"/><path fill="#353532" d="M0 900h100v100H0z"/><path fill="#2b2b2b" d="M100 900h100v100H100z"/><path fill="#6b5c50" d="M200 900h100v100H200z"/><path fill="#94806c" d="M300 900h100v100H300z"/><path fill="#946e59" d="M400 900h100v100H400z"/><path fill="#8e735c" d="M500 900h100v100H500z"/><path fill="#837563" d="M600 900h100v100H600z"/><path fill="#847b62" d="M700 900h100v100H700z"/><path fill="#393d42" d="M0 1000h100v100H0z"/><path fill="#242527" d="M100 1000h100v100H100z"/><path fill="#81776b" d="M200 1000h100v100H200z"/><path fill="#999594" d="M300 1000h100v100H300z"/><path fill="#94908b" d="M400 1000h100v100H400z"/><path fill="#7d7d78" d="M500 1000h100v100H500z"/><path fill="#867c64" d="M600 1000h100v100H600z"/><path fill="#9d977c" d="M700 1000h100v100H700z"/><path fill="#393b38" d="M0 1100h100v100H0z"/><path fill="#232322" d="M100 1100h100v100H100z"/><path fill="#685e4e" d="M200 1100h100v100H200z"/><path fill="#ada48b" d="M300 1100h100v100H300z"/><path fill="#89867d" d="M400 1100h100v100H400z"/><path fill="#8a8675" d="M500 1100h100v100H500z"/><path fill="#a59b83" d="M600 1100h100v100H600z"/><path fill="#a49b82" d="M700 1100h100v100H700z"/><path fill="#25231e" d="M0 1200h100v100H0z"/><path fill="#1b1814" d="M100 1200h100v100H100z"/><path fill="#493e2f" d="M200 1200h100v100H200z"/><path fill="#9c8b6e" d="M300 1200h100v100H300z"/><path fill="#938870" d="M400 1200h100v100H400z"/><path fill="#a19882" d="M500 1200h100v100H500z"/><path fill="#a59b84" d="M600 1200h100v100H600z"/><path fill="#a79f85" d="M700 1200h100v100H700z"/><path fill="#17110d" d="M0 1300h100v100H0z"/><path fill="#120e0c" d="M100 1300h100v100H100z"/><path fill="#382f22" d="M200 1300h100v100H200z"/><path fill="#958568" d="M300 1300h100v100H300z"/><path fill="#9b917c" d="M400 1300h100v100H400z"/><path fill="#877a61" d="M500 1300h100v100H500z"/><path fill="#948b70" d="M600 1300h100v100H600z"/><path fill="#aaa48d" d="M700 1300h100v100H700z"/></svg>