<svg xmlns="http://www.w3.org/2000/svg" viewBox="0 0 800 400"><defs/><path fill="#dce2f5" d="M0 0h100v100H0z"/><path fill="#c4ceea" d="M100 0h100v100H100z"/><path fill="#e7ebf6" d="M200 0h100v100H200z"/><path fill="#e7eaf5" d="M300 0h100v100H300z"/><path fill="#dde2f1" d="M400 0h100v100H400z"/><path fill="#e0e4f4" d="M500 0h100v100H500z"/><path fill="#dde2f2" d="M600 0h100v100H600z"/><path fill="#d7ddef" d="M700 0h100v100H700z"/><path fill="#cdd6f1" d="M0 100h100v100H0z"/><path fill="#c9d2eb" d="M100 100h100v100H100z"/><path fill="#ced7ee" d="M200 100h100v100H200z"/><path fill="#ced6ed" d="M300 100h100v100H300z"/><path fill="#c7d0eb" d="M400 100h100v100H400z"/><path fill="#d2daef" d="M500 100h100v100H500z"/><path fill="#d4dbf0" d="M600 100h100v100H600z"/><path fill="#c0cbe9" d="M700 100h100v100H700z"/><path fill="#dbe1f1" d="M0 200h100v100H0z"/><path fill="#ced6ec" d="M100 200h100v100H100z"/><path fill="#cdd6ed" d="M200 200h100v100H200z"/><path fill="#c8d2eb" d="M300 200h100v100H300z"/><path fill="#d9dfef" d="M400 200h100v100H400z"/><path fill="#c8d2ee" d="M500 200h100v100H500z"/><path fill="#92a8ea" d="M600 200h100v100H600z"/><path fill="#bbc7e8" d="M700 200h100v100H700z"/><path fill="#dce2f0" d="M0 300h100v100H0z"/><path fill="#d0d8ee" d="M100 300h100v100H100z"/><path fill="#d2d9ee" d="M200 300h100v100H200z"/><path fill="#d2d8ed" d="M300 300h100v100H300z"/><path fill="#d4dbed" d="M400 300h100v100H400z"/><path fill="#d9dff0" d="M500 300h100v100H500z"/><path fill="#c7d1ed" d="M600 300h100v100H600z"/><path fill="#cad3ec" d="M700 300h100v100H700z"/></svg>