<svg xmlns="http://www.w3.org/2000/svg" viewBox="0 0 800 600"><defs/><path fill="#743b28" d="M0 0h100v100H0z"/><path fill="#77291d" d="M100 0h100v100H100z"/><path fill="#4b130f" d="M200 0h100v100H200z"/><path fill="#000101" d="M300 0h100v100H300z"/><path fill="#070604" d="M400 0h100v100H400z"/><path fill="#431610" d="M500 0h100v100H500z"/><path fill="#772a1e" d="M600 0h100v100H600z"/><path fill="#af6f49" d="M700 0h100v100H700z"/><path fill="#a23929" d="M0 100h100v100H0z"/><path fill="#40100e" d="M100 100h100v100H100z"/><path fill="#010202" d="M200 100h100v100H200z"/><path fill="#22160a" d="M300 100h100v100H300z"/><path fill="#271a0b" d="M400 100h100v100H400z"/><path fill="#080502" d="M500 100h100v100H500z"/><path fill="#000001" d="M600 100h100v100H600z"/><path fill="#62291d" d="M700 100h100v100H700z"/><path fill="#993425" d="M0 200h100v100H0z"/><path fill="#44100d" d="M100 200h100v100H100z"/><path d="M200 200h100v100H200z"/><path fill="#100b05" d="M300 200h100v100H300z"/><path fill="#35210e" d="M400 200h100v100H400z"/><path fill="#171107" d="M500 200h100v100H500z"/><path fill="#1f0a07" d="M600 200h100v100H600z"/><path fill="#89251c" d="M700 200h100v100H700z"/><path fill="#743927" d="M0 300h100v100H0z"/><path fill="#602319" d="M100 300h100v100H100z"/><path fill="#260808" d="M200 300h100v100H200z"/><path fill="#0a0704" d="M300 300h100v100H300z"/><path fill="#1e1509" d="M400 300h100v100H400z"/><path fill="#151407" d="M500 300h100v100H500z"/><path fill="#3c140d" d="M600 300h100v100H600z"/><path fill="#8d271e" d="M700 300h100v100H700z"/><path fill="#ba6a45" d="M0 400h100v100H0z"/><path fill="#a03a29" d="M100 400h100v100H100z"/><path fill="#8f241b" d="M200 400h100v100H200z"/><path fill="#260b09" d="M300 400h100v100H300z"/><path fill="#140505" d="M400 400h100v100H400z"/><path fill="#200506" d="M500 400h100v100H500z"/><path fill="#481a13" d="M600 400h100v100H600z"/><path fill="#a8442f" d="M700 400h100v100H700z"/><path fill="#d48657" d="M0 500h100v100H0z"/><path fill="#b55c3d" d="M100 500h100v100H100z"/><path fill="#923f2b" d="M200 500h100v100H200z"/><path fill="#703625" d="M300 500h100v100H300z"/><path fill="#983c2a" d="M400 500h100v100H400z"/><path fill="#983325" d="M500 500h100v100H500z"/><path fill="#8a3e2b" d="M600 500h100v100H600z"/><path fill="#ba6b47" d="M700 500h100v100H700z"/></svg>