<svg xmlns="http://www.w3.org/2000/svg" viewBox="0 0 800 400"><defs/><path fill="#f6fbf8" d="M0 0h100v100H0z"/><path fill="#e6f7ed" d="M100 0h100v100H100z"/><path fill="#eaece4" d="M200 0h100v100H200z"/><path fill="#efeae4" d="M300 0h100v100H300z"/><path fill="#fdffff" d="M400 0h100v100H400z"/><path fill="#fcfefd" d="M500 0h100v100H500z"/><path fill="#fefefe" d="M600 0h100v100H600z"/><path fill="#f5faf7" d="M700 0h100v100H700z"/><path fill="#f3f8f4" d="M0 100h100v100H0z"/><path fill="#ecfff9" d="M100 100h100v100H100z"/><path fill="#ccb2ae" d="M200 100h100v100H200z"/><path fill="#977875" d="M300 100h100v100H300z"/><path fill="#dde2e3" d="M400 100h100v100H400z"/><path fill="#d6c9c8" d="M500 100h100v100H500z"/><path fill="#c0b9c3" d="M600 100h100v100H600z"/><path fill="#ecf0f0" d="M700 100h100v100H700z"/><path fill="#ebf6f1" d="M0 200h100v100H0z"/><path fill="#e0f3e9" d="M100 200h100v100H100z"/><path fill="#d2c4c2" d="M200 200h100v100H200z"/><path fill="#b7acac" d="M300 200h100v100H300z"/><path fill="#a69899" d="M400 200h100v100H400z"/><path fill="#b29b97" d="M500 200h100v100H500z"/><path fill="#aba19f" d="M600 200h100v100H600z"/><path fill="#dfdfdd" d="M700 200h100v100H700z"/><path fill="#e5f3eb" d="M0 300h100v100H0z"/><path fill="#e7f5ed" d="M100 300h100v100H100z"/><path fill="#feffff" d="M200 300h100v100H200z"/><path fill="#fff" d="M300 300h100v100H300z"/><path fill="#fbfcfa" d="M400 300h100v100H400z"/><path fill="#c0c6c9" d="M500 300h100v100H500z"/><path fill="#a4aaac" d="M600 300h100v100H600z"/><path fill="#cbcfc9" d="M700 300h100v100H700z"/></svg>