<svg xmlns="http://www.w3.org/2000/svg" viewBox="0 0 800 400"><defs/><path fill="#f7fbf9" d="M0 0h100v100H0z"/><path fill="#e4f4ea" d="M100 0h100v100H100z"/><path fill="#f8fcf9" d="M200 0h100v100H200z"/><path fill="#fff" d="M300 0h100v100H300z"/><path fill="#fbfefc" d="M400 0h100v100H400z"/><path fill="#fcfffd" d="M500 0h100v100H500z"/><path fill="#fbfefc" d="M600 0h100v100H600z"/><path fill="#f6fbf8" d="M700 0h100v100H700z"/><path fill="#f6fcf8" d="M0 100h100v100H0z"/><path fill="#e3f2e9" d="M100 100h100v100H100z"/><path fill="#eef0ef" d="M200 100h100v100H200z"/><path fill="#eeedee" d="M300 100h100v100H300z"/><path fill="#f6f6f6" d="M400 100h100v100H400z"/><path fill="#f9f9fa" d="M500 100h100v100H500z"/><path fill="#fdfcfd" d="M600 100h100v100H600z"/><path fill="#fafdfb" d="M700 100h100v100H700z"/><path fill="#eef7f3" d="M0 200h100v100H0z"/><path fill="#def0e5" d="M100 200h100v100H100z"/><path fill="#e7ebe9" d="M200 200h100v100H200z"/><path fill="#e7e8e7" d="M300 200h100v100H300z"/><path fill="#e9eaea" d="M400 200h100v100H400z"/><path fill="#eff0f0" d="M500 200h100v100H500z"/><path fill="#f7f9f8" d="M600 200h100v100H600z"/><path fill="#f8fcfa" d="M700 200h100v100H700z"/><path fill="#e8f4ee" d="M0 300h100v100H0z"/><path fill="#e6f3ed" d="M100 300h100v100H100z"/><path fill="#fff" d="M200 300h100v100H200zm100 0h100v100H300z"/><path fill="#fefffe" d="M400 300h100v100H400z"/><path fill="#fff" d="M500 300h100v100H500zm100 0h100v100H600z"/><path fill="#f8fbfa" d="M700 300h100v100H700z"/></svg>