<svg xmlns="http://www.w3.org/2000/svg" viewBox="0 0 800 400"><defs/><path fill="#687a66" d="M0 0h100v100H0z"/><path fill="#0f140c" d="M100 0h100v100H100z"/><path fill="#39264b" d="M200 0h100v100H200z"/><path fill="#2b323e" d="M300 0h100v100H300z"/><path fill="#2e3437" d="M400 0h100v100H400z"/><path fill="#5b534c" d="M500 0h100v100H500z"/><path fill="#394143" d="M600 0h100v100H600z"/><path fill="#5d7555" d="M700 0h100v100H700z"/><path fill="#5a6958" d="M0 100h100v100H0z"/><path fill="#130d1a" d="M100 100h100v100H100z"/><path fill="#6b4e6d" d="M200 100h100v100H200z"/><path fill="#6a5b46" d="M300 100h100v100H300z"/><path fill="#433a39" d="M400 100h100v100H400z"/><path fill="#3d2d46" d="M500 100h100v100H500z"/><path fill="#31383e" d="M600 100h100v100H600z"/><path fill="#62765a" d="M700 100h100v100H700z"/><path fill="#293c22" d="M0 200h100v100H0z"/><path fill="#201421" d="M100 200h100v100H100z"/><path fill="#9a7847" d="M200 200h100v100H200z"/><path fill="#a77c34" d="M300 200h100v100H300z"/><path fill="#8c794a" d="M400 200h100v100H400z"/><path fill="#565f57" d="M500 200h100v100H500z"/><path fill="#444d40" d="M600 200h100v100H600z"/><path fill="#546b49" d="M700 200h100v100H700z"/><path fill="#2c342a" d="M0 300h100v100H0z"/><path fill="#49433a" d="M100 300h100v100H100z"/><path fill="#6b645a" d="M200 300h100v100H200z"/><path fill="#4f4e4e" d="M300 300h100v100H300z"/><path fill="#6b6162" d="M400 300h100v100H400z"/><path fill="#685a53" d="M500 300h100v100H500z"/><path fill="#735b3e" d="M600 300h100v100H600z"/><path fill="#484d3d" d="M700 300h100v100H700z"/></svg>