<svg xmlns="http://www.w3.org/2000/svg" viewBox="0 0 800 500"><defs/><path fill="#170b05" d="M0 0h100v100H0z"/><path fill="#160a04" d="M100 0h100v100H100z"/><path fill="#150600" d="M200 0h100v100H200z"/><path fill="#1a0701" d="M300 0h100v100H300z"/><path fill="#190801" d="M400 0h100v100H400z"/><path fill="#170400" d="M500 0h100v100H500z"/><path fill="#150804" d="M600 0h100v100H600z"/><path fill="#140b05" d="M700 0h100v100H700z"/><path fill="#2a1a13" d="M0 100h100v100H0z"/><path fill="#373740" d="M100 100h100v100H100z"/><path fill="#33719b" d="M200 100h100v100H200z"/><path fill="#3b6a8c" d="M300 100h100v100H300z"/><path fill="#344662" d="M400 100h100v100H400z"/><path fill="#246692" d="M500 100h100v100H500z"/><path fill="#293034" d="M600 100h100v100H600z"/><path fill="#1f251a" d="M700 100h100v100H700z"/><path fill="#2e1e1c" d="M0 200h100v100H0z"/><path fill="#5b5053" d="M100 200h100v100H100z"/><path fill="#aabcb9" d="M200 200h100v100H200z"/><path fill="#a5b5ae" d="M300 200h100v100H300z"/><path fill="#8b97a1" d="M400 200h100v100H400z"/><path fill="#8cb0b8" d="M500 200h100v100H500z"/><path fill="#4a534d" d="M600 200h100v100H600z"/><path fill="#2a302b" d="M700 200h100v100H700z"/><path fill="#251e1a" d="M0 300h100v100H0z"/><path fill="#5d4e40" d="M100 300h100v100H100z"/><path fill="#996b4f" d="M200 300h100v100H200z"/><path fill="#97674a" d="M300 300h100v100H300z"/><path fill="#9c7058" d="M400 300h100v100H400z"/><path fill="#a3765a" d="M500 300h100v100H500z"/><path fill="#70534f" d="M600 300h100v100H600z"/><path fill="#3e3b36" d="M700 300h100v100H700z"/><path fill="#140e07" d="M0 400h100v100H0z"/><path fill="#221911" d="M100 400h100v100H100z"/><path fill="#251613" d="M200 400h100v100H200z"/><path fill="#261614" d="M300 400h100v100H300z"/><path fill="#281916" d="M400 400h100v100H400z"/><path fill="#261a18" d="M500 400h100v100H500z"/><path fill="#2e1f18" d="M600 400h100v100H600z"/><path fill="#21140d" d="M700 400h100v100H700z"/></svg>