<svg xmlns="http://www.w3.org/2000/svg" viewBox="0 0 800 400"><defs/><path fill="#8f8498" d="M0 0h100v100H0z"/><path fill="#7a5559" d="M100 0h100v100H100z"/><path fill="#cdaeb4" d="M200 0h100v100H200z"/><path fill="#bdbad4" d="M300 0h100v100H300z"/><path fill="#816b93" d="M400 0h100v100H400z"/><path fill="#c1b0be" d="M500 0h100v100H500z"/><path fill="#d1dbe7" d="M600 0h100v100H600z"/><path fill="#c9c1cf" d="M700 0h100v100H700z"/><path fill="#b59c8b" d="M0 100h100v100H0z"/><path fill="#a44c39" d="M100 100h100v100H100z"/><path fill="#bb948d" d="M200 100h100v100H200z"/><path fill="#b19c93" d="M300 100h100v100H300z"/><path fill="#b07d4c" d="M400 100h100v100H400z"/><path fill="#9f6972" d="M500 100h100v100H500z"/><path fill="#905360" d="M600 100h100v100H600z"/><path fill="#b37b8a" d="M700 100h100v100H700z"/><path fill="#df9243" d="M0 200h100v100H0z"/><path fill="#8d5434" d="M100 200h100v100H100z"/><path fill="#6e8ea1" d="M200 200h100v100H200z"/><path fill="#8c9497" d="M300 200h100v100H300z"/><path fill="#c79b90" d="M400 200h100v100H400z"/><path fill="#983451" d="M500 200h100v100H500z"/><path fill="#861533" d="M600 200h100v100H600z"/><path fill="#ab697c" d="M700 200h100v100H700z"/><path fill="#ba742e" d="M0 300h100v100H0z"/><path fill="#5e666b" d="M100 300h100v100H100z"/><path fill="#1e97d3" d="M200 300h100v100H200z"/><path fill="#6fa8a9" d="M300 300h100v100H300z"/><path fill="#ae978c" d="M400 300h100v100H400z"/><path fill="#6e8891" d="M500 300h100v100H500z"/><path fill="#7a4183" d="M600 300h100v100H600z"/><path fill="#6976b6" d="M700 300h100v100H700z"/></svg>