<svg xmlns="http://www.w3.org/2000/svg" viewBox="0 0 800 600"><defs/><path fill="#e6fcfa" d="M0 0h100v100H0z"/><path fill="#ecf7fc" d="M100 0h100v100H100z"/><path fill="#fdf1f5" d="M200 0h100v100H200z"/><path fill="#fdf6f8" d="M300 0h100v100H300z"/><path fill="#fef8f9" d="M400 0h100v100H400z"/><path fill="#fdfdfa" d="M500 0h100v100H500z"/><path fill="#fbf4f5" d="M600 0h100v100H600z"/><path fill="#ece9f5" d="M700 0h100v100H700z"/><path fill="#84d3bb" d="M0 100h100v100H0z"/><path fill="#bbdee8" d="M100 100h100v100H100z"/><path fill="#f1d1d3" d="M200 100h100v100H200z"/><path fill="#ecdfd4" d="M300 100h100v100H300z"/><path fill="#e8dad4" d="M400 100h100v100H400z"/><path fill="#f0e6da" d="M500 100h100v100H500z"/><path fill="#dbcac8" d="M600 100h100v100H600z"/><path fill="#8db6c5" d="M700 100h100v100H700z"/><path fill="#a7d59f" d="M0 200h100v100H0z"/><path fill="#c7cdd3" d="M100 200h100v100H100z"/><path fill="#f3dbde" d="M200 200h100v100H200z"/><path fill="#d7dad2" d="M300 200h100v100H300z"/><path fill="#d3c7c5" d="M400 200h100v100H400z"/><path fill="#f8d8dd" d="M500 200h100v100H500z"/><path fill="#ddcec8" d="M600 200h100v100H600z"/><path fill="#9adece" d="M700 200h100v100H700z"/><path fill="#a5e6cd" d="M0 300h100v100H0z"/><path fill="#ced2db" d="M100 300h100v100H100z"/><path fill="#c6bdd1" d="M200 300h100v100H200z"/><path fill="#a5d3e1" d="M300 300h100v100H300z"/><path fill="#b0bdbf" d="M400 300h100v100H400z"/><path fill="#d0b9c4" d="M500 300h100v100H500z"/><path fill="#ddb9ba" d="M600 300h100v100H600z"/><path fill="#a8d6be" d="M700 300h100v100H700z"/><path fill="#bcebe9" d="M0 400h100v100H0z"/><path fill="#c0ceb3" d="M100 400h100v100H100z"/><path fill="#b6a67c" d="M200 400h100v100H200z"/><path fill="#a2d6c3" d="M300 400h100v100H300z"/><path fill="#b4d7d0" d="M400 400h100v100H400z"/><path fill="#ccc5a1" d="M500 400h100v100H500z"/><path fill="#e7d0b1" d="M600 400h100v100H600z"/><path fill="#e5ad96" d="M700 400h100v100H700z"/><path fill="#f9faf5" d="M0 500h100v100H0z"/><path fill="#f8f3e8" d="M100 500h100v100H100z"/><path fill="#fbf3e9" d="M200 500h100v100H200z"/><path fill="#f9f1ec" d="M300 500h100v100H300z"/><path fill="#faf5f3" d="M400 500h100v100H400z"/><path fill="#fcf7f1" d="M500 500h100v100H500z"/><path fill="#feefeb" d="M600 500h100v100H600z"/><path fill="#fdece8" d="M700 500h100v100H700z"/></svg>