<svg xmlns="http://www.w3.org/2000/svg" viewBox="0 0 800 400"><defs/><path fill="#5e5350" d="M0 0h100v100H0z"/><path fill="#453934" d="M100 0h100v100H100z"/><path fill="#55443e" d="M200 0h100v100H200z"/><path fill="#7b6052" d="M300 0h100v100H300z"/><path fill="#62403d" d="M400 0h100v100H400z"/><path fill="#3c302f" d="M500 0h100v100H500z"/><path fill="#493633" d="M600 0h100v100H600z"/><path fill="#3f2f2e" d="M700 0h100v100H700z"/><path fill="#7f7268" d="M0 100h100v100H0z"/><path fill="#796658" d="M100 100h100v100H100z"/><path fill="#6e5747" d="M200 100h100v100H200z"/><path fill="#775844" d="M300 100h100v100H300z"/><path fill="#533836" d="M400 100h100v100H400z"/><path fill="#3e332f" d="M500 100h100v100H500z"/><path fill="#473933" d="M600 100h100v100H600z"/><path fill="#2e2528" d="M700 100h100v100H700z"/><path fill="#5a483e" d="M0 200h100v100H0z"/><path fill="#685450" d="M100 200h100v100H100z"/><path fill="#6b5854" d="M200 200h100v100H200z"/><path fill="#6b5555" d="M300 200h100v100H300z"/><path fill="#433235" d="M400 200h100v100H400z"/><path fill="#332d2e" d="M500 200h100v100H500z"/><path fill="#362f30" d="M600 200h100v100H600z"/><path fill="#3b302e" d="M700 200h100v100H700z"/><path fill="#3d3135" d="M0 300h100v100H0z"/><path fill="#3e3546" d="M100 300h100v100H100z"/><path fill="#413a4a" d="M200 300h100v100H200z"/><path fill="#7a718c" d="M300 300h100v100H300z"/><path fill="#6c555c" d="M400 300h100v100H400z"/><path fill="#252126" d="M500 300h100v100H500z"/><path fill="#28262c" d="M600 300h100v100H600z"/><path fill="#322b2f" d="M700 300h100v100H700z"/></svg>