<svg xmlns="http://www.w3.org/2000/svg" viewBox="0 0 800 400"><defs/><path fill="#dbccc3" d="M0 0h100v100H0z"/><path fill="#c4bcaf" d="M100 0h100v100H100z"/><path fill="#d5ccc4" d="M200 0h100v100H200z"/><path fill="#897d77" d="M300 0h100v100H300z"/><path fill="#766c68" d="M400 0h100v100H400z"/><path fill="#cdcdc7" d="M500 0h100v100H500z"/><path fill="#d3d7d7" d="M600 0h100v100H600z"/><path fill="#d6d8da" d="M700 0h100v100H700z"/><path fill="#d7c5bd" d="M0 100h100v100H0z"/><path fill="#c4bbae" d="M100 100h100v100H100z"/><path fill="#d0bebd" d="M200 100h100v100H200z"/><path fill="#b5a3a1" d="M300 100h100v100H300z"/><path fill="#b4b1b1" d="M400 100h100v100H400z"/><path fill="#b3adac" d="M500 100h100v100H500z"/><path fill="#ad9d9c" d="M600 100h100v100H600z"/><path fill="#d0ccce" d="M700 100h100v100H700z"/><path fill="#c6bbb0" d="M0 200h100v100H0z"/><path fill="#c1bbb0" d="M100 200h100v100H100z"/><path fill="#d0b6b7" d="M200 200h100v100H200z"/><path fill="#ddbbbe" d="M300 200h100v100H300z"/><path fill="#e0d9d9" d="M400 200h100v100H400z"/><path fill="#b6b5b4" d="M500 200h100v100H500z"/><path fill="#b5aaae" d="M600 200h100v100H600z"/><path fill="#d1cdd8" d="M700 200h100v100H700z"/><path fill="#bdb9b5" d="M0 300h100v100H0z"/><path fill="#c0b4b0" d="M100 300h100v100H100z"/><path fill="#ccbfbc" d="M200 300h100v100H200z"/><path fill="#d5cdcc" d="M300 300h100v100H300z"/><path fill="#d3cccc" d="M400 300h100v100H400z"/><path fill="#cdc7c6" d="M500 300h100v100H500z"/><path fill="#ccc6c4" d="M600 300h100v100H600z"/><path fill="#c6c3ca" d="M700 300h100v100H700z"/></svg>