<svg xmlns="http://www.w3.org/2000/svg" viewBox="0 0 800 500"><defs/><path fill="#dbdbd7" d="M0 0h100v100H0z"/><path fill="#d9d6d2" d="M100 0h100v100H100z"/><path fill="#edebea" d="M200 0h100v100H200z"/><path fill="#c2c7c3" d="M300 0h100v100H300z"/><path fill="#879991" d="M400 0h100v100H400z"/><path fill="#e5e3de" d="M500 0h100v100H500z"/><path fill="#eef0ed" d="M600 0h100v100H600z"/><path fill="#e5e7e7" d="M700 0h100v100H700z"/><path fill="#d6d3ce" d="M0 100h100v100H0z"/><path fill="#b9a582" d="M100 100h100v100H100z"/><path fill="#e9ece0" d="M200 100h100v100H200z"/><path fill="#cec6cb" d="M300 100h100v100H300z"/><path fill="#aa9586" d="M400 100h100v100H400z"/><path fill="#e7e1c5" d="M500 100h100v100H500z"/><path fill="#e6e2dd" d="M600 100h100v100H600z"/><path fill="#d4ccba" d="M700 100h100v100H700z"/><path fill="#d5cbc1" d="M0 200h100v100H0z"/><path fill="#b1a677" d="M100 200h100v100H100z"/><path fill="#a6b08e" d="M200 200h100v100H200z"/><path fill="#ac9f9b" d="M300 200h100v100H300z"/><path fill="#c7b2aa" d="M400 200h100v100H400z"/><path fill="#bdae94" d="M500 200h100v100H500z"/><path fill="#bfb49f" d="M600 200h100v100H600z"/><path fill="#d0c6b7" d="M700 200h100v100H700z"/><path fill="#dacdc2" d="M0 300h100v100H0z"/><path fill="#b8bf9a" d="M100 300h100v100H100z"/><path fill="#c4e2ca" d="M200 300h100v100H200z"/><path fill="#a0adaa" d="M300 300h100v100H300z"/><path fill="#ad8a6f" d="M400 300h100v100H400z"/><path fill="#cba055" d="M500 300h100v100H500z"/><path fill="#d4be3b" d="M600 300h100v100H600z"/><path fill="#d3ac8c" d="M700 300h100v100H700z"/><path fill="#d7ded7" d="M0 400h100v100H0z"/><path fill="#c6e2dc" d="M100 400h100v100H100z"/><path fill="#d2f5f5" d="M200 400h100v100H200z"/><path fill="#c9e4e2" d="M300 400h100v100H300z"/><path fill="#c4c2af" d="M400 400h100v100H400z"/><path fill="#cecba0" d="M500 400h100v100H500z"/><path fill="#f28062" d="M600 400h100v100H600z"/><path fill="#e58a86" d="M700 400h100v100H700z"/></svg>