<svg xmlns="http://www.w3.org/2000/svg" viewBox="0 0 800 600"><defs/><path fill="#9a8169" d="M0 0h100v100H0z"/><path fill="#96826c" d="M100 0h100v100H100z"/><path fill="#a89075" d="M200 0h100v100H200z"/><path fill="#b29a7f" d="M300 0h100v100H300z"/><path fill="#c2ac91" d="M400 0h100v100H400z"/><path fill="#ccb699" d="M500 0h100v100H500z"/><path fill="#d8c1a1" d="M600 0h100v100H600z"/><path fill="#e2c9a5" d="M700 0h100v100H700z"/><path fill="#897a69" d="M0 100h100v100H0z"/><path fill="#726b63" d="M100 100h100v100H100z"/><path fill="#927f6c" d="M200 100h100v100H200z"/><path fill="#958372" d="M300 100h100v100H300z"/><path fill="#a99a86" d="M400 100h100v100H400z"/><path fill="#b3a390" d="M500 100h100v100H500z"/><path fill="#bbab95" d="M600 100h100v100H600z"/><path fill="#c7b59e" d="M700 100h100v100H700z"/><path fill="#776e67" d="M0 200h100v100H0z"/><path fill="#69645d" d="M100 200h100v100H100z"/><path fill="#897868" d="M200 200h100v100H200z"/><path fill="#897c6f" d="M300 200h100v100H300z"/><path fill="#948b7d" d="M400 200h100v100H400z"/><path fill="#948b83" d="M500 200h100v100H500z"/><path fill="#9e9488" d="M600 200h100v100H600z"/><path fill="#ab9e92" d="M700 200h100v100H700z"/><path fill="#605d5c" d="M0 300h100v100H0z"/><path fill="#615e5e" d="M100 300h100v100H100z"/><path fill="#746962" d="M200 300h100v100H200z"/><path fill="#6d6763" d="M300 300h100v100H300z"/><path fill="#75716d" d="M400 300h100v100H400z"/><path fill="#807b78" d="M500 300h100v100H500z"/><path fill="#918a83" d="M600 300h100v100H600z"/><path fill="#9b958d" d="M700 300h100v100H700z"/><path fill="#585454" d="M0 400h100v100H0z"/><path fill="#655e59" d="M100 400h100v100H100z"/><path fill="#68615c" d="M200 400h100v100H200z"/><path fill="#615c59" d="M300 400h100v100H300z"/><path fill="#6d6965" d="M400 400h100v100H400z"/><path fill="#74716d" d="M500 400h100v100H500z"/><path fill="#787471" d="M600 400h100v100H600z"/><path fill="#828180" d="M700 400h100v100H700z"/><path fill="#645751" d="M0 500h100v100H0z"/><path fill="#645a53" d="M100 500h100v100H100z"/><path fill="#5d5551" d="M200 500h100v100H200z"/><path fill="#585254" d="M300 500h100v100H300z"/><path fill="#5f5c61" d="M400 500h100v100H400z"/><path fill="#6e6d6f" d="M500 500h100v100H500z"/><path fill="#6d6b6f" d="M600 500h100v100H600z"/><path fill="#777476" d="M700 500h100v100H700z"/></svg>