<svg xmlns="http://www.w3.org/2000/svg" viewBox="0 0 800 500"><defs/><path fill="#5f6566" d="M0 0h100v100H0z"/><path fill="#9ca3a8" d="M100 0h100v100H100z"/><path fill="#9a9b9c" d="M200 0h100v100H200z"/><path fill="#a5acab" d="M300 0h100v100H300z"/><path fill="#abb2b2" d="M400 0h100v100H400z"/><path fill="#adb4ba" d="M500 0h100v100H500z"/><path fill="#b0b9c2" d="M600 0h100v100H600z"/><path fill="#b4bdc4" d="M700 0h100v100H700z"/><path fill="#6b797e" d="M0 100h100v100H0z"/><path fill="#808a90" d="M100 100h100v100H100z"/><path fill="#7f8084" d="M200 100h100v100H200z"/><path fill="#727a7b" d="M300 100h100v100H300z"/><path fill="#727c7b" d="M400 100h100v100H400z"/><path fill="#8c9697" d="M500 100h100v100H500z"/><path fill="#94a4ab" d="M600 100h100v100H600z"/><path fill="#a3b1bc" d="M700 100h100v100H700z"/><path fill="#7f8b8e" d="M0 200h100v100H0z"/><path fill="#7b8187" d="M100 200h100v100H100z"/><path fill="#8a9197" d="M200 200h100v100H200z"/><path fill="#6b6a68" d="M300 200h100v100H300z"/><path fill="#5e5958" d="M400 200h100v100H400z"/><path fill="#8c9797" d="M500 200h100v100H500z"/><path fill="#868f90" d="M600 200h100v100H600z"/><path fill="#8a939b" d="M700 200h100v100H700z"/><path fill="#7d8484" d="M0 300h100v100H0z"/><path fill="#76706c" d="M100 300h100v100H100z"/><path fill="#84716b" d="M200 300h100v100H200z"/><path fill="#857167" d="M300 300h100v100H300z"/><path fill="#897f6e" d="M400 300h100v100H400z"/><path fill="#887a74" d="M500 300h100v100H500z"/><path fill="#8d7f73" d="M600 300h100v100H600z"/><path fill="#808383" d="M700 300h100v100H700z"/><path fill="#858580" d="M0 400h100v100H0z"/><path fill="#8c8379" d="M100 400h100v100H100z"/><path fill="#908378" d="M200 400h100v100H200z"/><path fill="#8a7d79" d="M300 400h100v100H300z"/><path fill="#897d68" d="M400 400h100v100H400z"/><path fill="#887a70" d="M500 400h100v100H500z"/><path fill="#908377" d="M600 400h100v100H600z"/><path fill="#898077" d="M700 400h100v100H700z"/></svg>