<svg xmlns="http://www.w3.org/2000/svg" viewBox="0 0 800 400"><defs/><path fill="#4b1d25" d="M0 0h100v100H0z"/><path fill="#461c23" d="M100 0h100v100H100z"/><path fill="#4b1d26" d="M200 0h100v100H200z"/><path fill="#6c3637" d="M300 0h100v100H300z"/><path fill="#904e5d" d="M400 0h100v100H400z"/><path fill="#562734" d="M500 0h100v100H500z"/><path fill="#401621" d="M600 0h100v100H600z"/><path fill="#3d151c" d="M700 0h100v100H700z"/><path fill="#491c24" d="M0 100h100v100H0z"/><path fill="#411a20" d="M100 100h100v100H100z"/><path fill="#491c26" d="M200 100h100v100H200z"/><path fill="#6f3436" d="M300 100h100v100H300z"/><path fill="#99514e" d="M400 100h100v100H400z"/><path fill="#472321" d="M500 100h100v100H500z"/><path fill="#431c1e" d="M600 100h100v100H600z"/><path fill="#361417" d="M700 100h100v100H700z"/><path fill="#471c24" d="M0 200h100v100H0z"/><path fill="#38181c" d="M100 200h100v100H100z"/><path fill="#622b36" d="M200 200h100v100H200z"/><path fill="#5b2934" d="M300 200h100v100H300z"/><path fill="#63373d" d="M400 200h100v100H400z"/><path fill="#66363a" d="M500 200h100v100H500z"/><path fill="#622b31" d="M600 200h100v100H600z"/><path fill="#371517" d="M700 200h100v100H700z"/><path fill="#3e191e" d="M0 300h100v100H0z"/><path fill="#4a2227" d="M100 300h100v100H100z"/><path fill="#642d38" d="M200 300h100v100H200z"/><path fill="#642d39" d="M300 300h100v100H300z"/><path fill="#6a323e" d="M400 300h100v100H400z"/><path fill="#7b3a4a" d="M500 300h100v100H500z"/><path fill="#6b3139" d="M600 300h100v100H600z"/><path fill="#431b1e" d="M700 300h100v100H700z"/></svg>