<svg xmlns="http://www.w3.org/2000/svg" viewBox="0 0 800 600"><defs/><path fill="#767677" d="M0 0h100v100H0z"/><path fill="#88898a" d="M100 0h100v100H100z"/><path fill="#7d7d7e" d="M200 0h100v100H200z"/><path fill="#828284" d="M300 0h100v100H300z"/><path fill="#818283" d="M400 0h100v100H400z"/><path fill="#7f8083" d="M500 0h100v100H500z"/><path fill="#878789" d="M600 0h100v100H600z"/><path fill="#6e6d6f" d="M700 0h100v100H700z"/><path fill="#bcbdbd" d="M0 100h100v100H0z"/><path fill="#d7d8d9" d="M100 100h100v100H100z"/><path fill="#cfd0d1" d="M200 100h100v100H200z"/><path fill="#d8d8d9" d="M300 100h100v100H300z"/><path fill="#d3d3d6" d="M400 100h100v100H400z"/><path fill="#d3d3d7" d="M500 100h100v100H500z"/><path fill="#e3e3e1" d="M600 100h100v100H600z"/><path fill="#b6b5b3" d="M700 100h100v100H700z"/><path fill="#bec0c1" d="M0 200h100v100H0z"/><path fill="#c7c7c9" d="M100 200h100v100H100z"/><path fill="#c5c4c6" d="M200 200h100v100H200z"/><path fill="#cdccce" d="M300 200h100v100H300z"/><path fill="#ccced1" d="M400 200h100v100H400z"/><path fill="#c9ccd1" d="M500 200h100v100H500z"/><path fill="#d3d2d2" d="M600 200h100v100H600z"/><path fill="#bab7b4" d="M700 200h100v100H700z"/><path fill="#c0c1c5" d="M0 300h100v100H0z"/><path fill="#b8b6b9" d="M100 300h100v100H100z"/><path fill="#bdb9bc" d="M200 300h100v100H200z"/><path fill="#cccdcf" d="M300 300h100v100H300z"/><path fill="#cccace" d="M400 300h100v100H400z"/><path fill="#c8c6ca" d="M500 300h100v100H500z"/><path fill="#d7d9dc" d="M600 300h100v100H600z"/><path fill="#c5c5c3" d="M700 300h100v100H700z"/><path fill="#c3c5ca" d="M0 400h100v100H0z"/><path fill="#b6b7ba" d="M100 400h100v100H100z"/><path fill="#c0c1c4" d="M200 400h100v100H200z"/><path fill="#cfd3d6" d="M300 400h100v100H300z"/><path fill="#cfc4c8" d="M400 400h100v100H400z"/><path fill="#cbbabd" d="M500 400h100v100H500z"/><path fill="#d5d9d9" d="M600 400h100v100H600z"/><path fill="#d0d0cc" d="M700 400h100v100H700z"/><path fill="#a0a0a1" d="M0 500h100v100H0z"/><path fill="#a3a3a4" d="M100 500h100v100H100z"/><path fill="#afb2b5" d="M200 500h100v100H200z"/><path fill="#b4b8bb" d="M300 500h100v100H300z"/><path fill="#bcc2c2" d="M400 500h100v100H400z"/><path fill="#b7bcbb" d="M500 500h100v100H500z"/><path fill="#bbbdb9" d="M600 500h100v100H600z"/><path fill="#c3c2b9" d="M700 500h100v100H700z"/></svg>