<svg xmlns="http://www.w3.org/2000/svg" viewBox="0 0 800 400"><defs/><path fill="#686055" d="M0 0h100v100H0z"/><path fill="#aaa6a8" d="M100 0h100v100H100z"/><path fill="#959497" d="M200 0h100v100H200z"/><path fill="#868b8f" d="M300 0h100v100H300z"/><path fill="#949396" d="M400 0h100v100H400z"/><path fill="#908e90" d="M500 0h100v100H500z"/><path fill="#8f8d90" d="M600 0h100v100H600z"/><path fill="#b1afb2" d="M700 0h100v100H700z"/><path fill="#9d8e7b" d="M0 100h100v100H0z"/><path fill="#afa9ac" d="M100 100h100v100H100z"/><path fill="#8f8e91" d="M200 100h100v100H200z"/><path fill="#a7a9ab" d="M300 100h100v100H300z"/><path fill="#b4b3b8" d="M400 100h100v100H400z"/><path fill="#939196" d="M500 100h100v100H500z"/><path fill="#777476" d="M600 100h100v100H600z"/><path fill="#979598" d="M700 100h100v100H700z"/><path fill="#97867f" d="M0 200h100v100H0z"/><path fill="#9b9599" d="M100 200h100v100H100z"/><path fill="#878688" d="M200 200h100v100H200z"/><path fill="#969398" d="M300 200h100v100H300z"/><path fill="#b7b6aa" d="M400 200h100v100H400z"/><path fill="#9f9e96" d="M500 200h100v100H500z"/><path fill="#333035" d="M600 200h100v100H600z"/><path fill="#5a585b" d="M700 200h100v100H700z"/><path fill="#7b7174" d="M0 300h100v100H0z"/><path fill="#837f82" d="M100 300h100v100H100z"/><path fill="#817f82" d="M200 300h100v100H200z"/><path fill="#7f7e82" d="M300 300h100v100H300z"/><path fill="#958b81" d="M400 300h100v100H400z"/><path fill="#948c85" d="M500 300h100v100H500z"/><path fill="#706e73" d="M600 300h100v100H600z"/><path fill="#848285" d="M700 300h100v100H700z"/></svg>