<svg xmlns="http://www.w3.org/2000/svg" viewBox="0 0 800 500"><defs/><path fill="#14274c" d="M0 0h100v100H0z"/><path fill="#0c131f" d="M100 0h100v100H100z"/><path fill="#696f6e" d="M200 0h100v100H200z"/><path fill="#648287" d="M300 0h100v100H300z"/><path fill="#779db0" d="M400 0h100v100H400z"/><path fill="#747b83" d="M500 0h100v100H500z"/><path fill="#825c2a" d="M600 0h100v100H600z"/><path fill="#70532e" d="M700 0h100v100H700z"/><path fill="#3a5972" d="M0 100h100v100H0z"/><path fill="#19375c" d="M100 100h100v100H100z"/><path fill="#647377" d="M200 100h100v100H200z"/><path fill="#737c41" d="M300 100h100v100H300z"/><path fill="#696f43" d="M400 100h100v100H400z"/><path fill="#787874" d="M500 100h100v100H500z"/><path fill="#201418" d="M600 100h100v100H600z"/><path fill="#251a1d" d="M700 100h100v100H700z"/><path fill="#7e735d" d="M0 200h100v100H0z"/><path fill="#8496a3" d="M100 200h100v100H100z"/><path fill="#94a2b4" d="M200 200h100v100H200z"/><path fill="#989a92" d="M300 200h100v100H300z"/><path fill="#9ba498" d="M400 200h100v100H400z"/><path fill="#8d8f8b" d="M500 200h100v100H500z"/><path fill="#444851" d="M600 200h100v100H600z"/><path fill="#4c5055" d="M700 200h100v100H700z"/><path fill="#946f5c" d="M0 300h100v100H0z"/><path fill="#c5c2be" d="M100 300h100v100H100z"/><path fill="#a2a6a1" d="M200 300h100v100H200z"/><path fill="#52545b" d="M300 300h100v100H300z"/><path fill="#616470" d="M400 300h100v100H400z"/><path fill="#565557" d="M500 300h100v100H500z"/><path fill="#50494a" d="M600 300h100v100H600z"/><path fill="#74605d" d="M700 300h100v100H700z"/><path fill="#2a1914" d="M0 400h100v100H0z"/><path fill="#836656" d="M100 400h100v100H100z"/><path fill="#978b80" d="M200 400h100v100H200z"/><path fill="#47474c" d="M300 400h100v100H300z"/><path fill="#46454a" d="M400 400h100v100H400z"/><path fill="#685f5f" d="M500 400h100v100H500z"/><path fill="#7c433e" d="M600 400h100v100H600z"/><path fill="#985853" d="M700 400h100v100H700z"/></svg>