<svg xmlns="http://www.w3.org/2000/svg" viewBox="0 0 800 400"><defs/><path fill="#90847b" d="M0 0h100v100H0z"/><path fill="#6c5141" d="M100 0h100v100H100z"/><path fill="#828b86" d="M200 0h100v100H200z"/><path fill="#a1a5a1" d="M300 0h100v100H300z"/><path fill="#9298a0" d="M400 0h100v100H400z"/><path fill="#6d5e82" d="M500 0h100v100H500z"/><path fill="#9d8ca1" d="M600 0h100v100H600z"/><path fill="#9eaea6" d="M700 0h100v100H700z"/><path fill="#8c756b" d="M0 100h100v100H0z"/><path fill="#7a5a49" d="M100 100h100v100H100z"/><path fill="#8c8887" d="M200 100h100v100H200z"/><path fill="#706c74" d="M300 100h100v100H300z"/><path fill="#7d716a" d="M400 100h100v100H400z"/><path fill="#958a52" d="M500 100h100v100H500z"/><path fill="#959ea1" d="M600 100h100v100H600z"/><path fill="#a4b6a5" d="M700 100h100v100H700z"/><path fill="#7d695c" d="M0 200h100v100H0z"/><path fill="#674d42" d="M100 200h100v100H100z"/><path fill="#827574" d="M200 200h100v100H200z"/><path fill="#757271" d="M300 200h100v100H300z"/><path fill="#806759" d="M400 200h100v100H400z"/><path fill="#966750" d="M500 200h100v100H500z"/><path fill="#6c5a7e" d="M600 200h100v100H600z"/><path fill="#9da1ab" d="M700 200h100v100H700z"/><path fill="#6b4c37" d="M0 300h100v100H0z"/><path fill="#746359" d="M100 300h100v100H100z"/><path fill="#908e94" d="M200 300h100v100H200z"/><path fill="#9f9797" d="M300 300h100v100H300z"/><path fill="#78727c" d="M400 300h100v100H400z"/><path fill="#7c8692" d="M500 300h100v100H500z"/><path fill="#917d9b" d="M600 300h100v100H600z"/><path fill="#a8a3b4" d="M700 300h100v100H700z"/></svg>