<svg xmlns="http://www.w3.org/2000/svg" viewBox="0 0 800 1400"><defs/><path fill="#b1abb8" d="M0 0h100v100H0z"/><path fill="#b3acb9" d="M100 0h100v100H100z"/><path fill="#b6acb7" d="M200 0h100v100H200z"/><path fill="#b7adb8" d="M300 0h100v100H300z"/><path fill="#bbb2bd" d="M400 0h100v100H400z"/><path fill="#b7b0bc" d="M500 0h100v100H500z"/><path fill="#b7b0bb" d="M600 0h100v100H600z"/><path fill="#bdb6c2" d="M700 0h100v100H700z"/><path fill="#b5b0be" d="M0 100h100v100H0z"/><path fill="#b0aab7" d="M100 100h100v100H100z"/><path fill="#b0a7b5" d="M200 100h100v100H200z"/><path fill="#b0a8b4" d="M300 100h100v100H300z"/><path fill="#b9b2bf" d="M400 100h100v100H400z"/><path fill="#b5adb9" d="M500 100h100v100H500z"/><path fill="#b2abb8" d="M600 100h100v100H600z"/><path fill="#bdb8c4" d="M700 100h100v100H700z"/><path fill="#b7b3c2" d="M0 200h100v100H0z"/><path fill="#b4b0be" d="M100 200h100v100H100z"/><path fill="#b0aab8" d="M200 200h100v100H200z"/><path fill="#a49aa7" d="M300 200h100v100H300z"/><path fill="#b3abb7" d="M400 200h100v100H400z"/><path fill="#bab3c0" d="M500 200h100v100H500z"/><path fill="#bdb8c7" d="M600 200h100v100H600z"/><path fill="#c0bccb" d="M700 200h100v100H700z"/><path fill="#bab8c7" d="M0 300h100v100H0z"/><path fill="#aca8b9" d="M100 300h100v100H100z"/><path fill="#b1adbc" d="M200 300h100v100H200z"/><path fill="#b1acba" d="M300 300h100v100H300z"/><path fill="#b5b1c0" d="M400 300h100v100H400z"/><path fill="#b9b5c3" d="M500 300h100v100H500z"/><path fill="#b9b6c4" d="M600 300h100v100H600z"/><path fill="#c0bdcb" d="M700 300h100v100H700z"/><path fill="#bfbece" d="M0 400h100v100H0z"/><path fill="#acabbb" d="M100 400h100v100H100z"/><path fill="#b5b4c4" d="M200 400h100v100H200z"/><path fill="#bebdcd" d="M300 400h100v100H300z"/><path fill="#bfbfcc" d="M400 400h100v100H400z"/><path fill="#bebdcb" d="M500 400h100v100H500z"/><path fill="#bebccb" d="M600 400h100v100H600z"/><path fill="#bfbccc" d="M700 400h100v100H700z"/><path fill="#c2c3d3" d="M0 500h100v100H0z"/><path fill="#bfc0d0" d="M100 500h100v100H100z"/><path fill="#bdbfcf" d="M200 500h100v100H200z"/><path fill="#c7c9d6" d="M300 500h100v100H300z"/><path fill="#ccceda" d="M400 500h100v100H400z"/><path fill="#c8cad7" d="M500 500h100v100H500z"/><path fill="#c5c5d3" d="M600 500h100v100H600z"/><path fill="#c3c2d2" d="M700 500h100v100H700z"/><path fill="#c2c2d3" d="M0 600h100v100H0z"/><path fill="#c3c6d6" d="M100 600h100v100H100z"/><path fill="#c7cad9" d="M200 600h100v100H200z"/><path fill="#c9ccd9" d="M300 600h100v100H300z"/><path fill="#cdcfdb" d="M400 600h100v100H400z"/><path fill="#cfd0dc" d="M500 600h100v100H500z"/><path fill="#cdcfdb" d="M600 600h100v100H600z"/><path fill="#c9c9d8" d="M700 600h100v100H700z"/><path fill="#c4c6d9" d="M0 700h100v100H0z"/><path fill="#bfc3d5" d="M100 700h100v100H100z"/><path fill="#cdd1df" d="M200 700h100v100H200z"/><path fill="#cdd3e1" d="M300 700h100v100H300z"/><path fill="#ccd1e1" d="M400 700h100v100H400z"/><path fill="#c7cbdb" d="M500 700h100v100H500z"/><path fill="#cdd1e0" d="M600 700h100v100H600z"/><path fill="#cdcfdf" d="M700 700h100v100H700z"/><path fill="#c7cbdc" d="M0 800h100v100H0z"/><path fill="#c5c9db" d="M100 800h100v100H100z"/><path fill="#cccfde" d="M200 800h100v100H200z"/><path fill="#cdd1e0" d="M300 800h100v100H300z"/><path fill="#cacfdf" d="M400 800h100v100H400z"/><path fill="#c5c9db" d="M500 800h100v100H500z"/><path fill="#c4c7d8" d="M600 800h100v100H600z"/><path fill="#cdd0de" d="M700 800h100v100H700z"/><path fill="#cfd2e2" d="M0 900h100v100H0z"/><path fill="#c7ccdd" d="M100 900h100v100H100z"/><path fill="#ccd0e0" d="M200 900h100v100H200z"/><path fill="#c9ccdc" d="M300 900h100v100H300z"/><path fill="#cacede" d="M400 900h100v100H400z"/><path fill="#c5c9da" d="M500 900h100v100H500z"/><path fill="#cacddd" d="M600 900h100v100H600z"/><path fill="#cbcddc" d="M700 900h100v100H700z"/><path fill="#c6c9db" d="M0 1000h100v100H0z"/><path fill="#c7cbdc" d="M100 1000h100v100H100z"/><path fill="#ced1e2" d="M200 1000h100v100H200z"/><path fill="#cdd1e1" d="M300 1000h100v100H300z"/><path fill="#cacede" d="M400 1000h100v100H400z"/><path fill="#cdd0e0" d="M500 1000h100v100H500z"/><path fill="#c3c5d7" d="M600 1000h100v100H600z"/><path fill="#c6c8d9" d="M700 1000h100v100H700z"/><path fill="#c9cddd" d="M0 1100h100v100H0z"/><path fill="#cfd1e1" d="M100 1100h100v100H100z"/><path fill="#c3c7da" d="M200 1100h100v100H200z"/><path fill="#cbcedf" d="M300 1100h100v100H300z"/><path fill="#cccfde" d="M400 1100h100v100H400z"/><path fill="#cdd0e0" d="M500 1100h100v100H500z"/><path fill="#c6c8da" d="M600 1100h100v100H600z"/><path fill="#c7c9da" d="M700 1100h100v100H700z"/><path fill="#ced4e4" d="M0 1200h100v100H0z"/><path fill="#cbcedf" d="M100 1200h100v100H100z"/><path fill="#c6cadb" d="M200 1200h100v100H200z"/><path fill="#cccfe1" d="M300 1200h100v100H300z"/><path fill="#cdd0e1" d="M400 1200h100v100H400z"/><path fill="#c8ccdc" d="M500 1200h100v100H500z"/><path fill="#cdd0e0" d="M600 1200h100v100H600zm100 0h100v100H700z"/><path fill="#cdd1e2" d="M0 1300h100v100H0z"/><path fill="#d4d7e7" d="M100 1300h100v100H100z"/><path fill="#d5d8e7" d="M200 1300h100v100H200z"/><path fill="#cccfdf" d="M300 1300h100v100H300z"/><path fill="#b9bcce" d="M400 1300h100v100H400z"/><path fill="#c3c5d6" d="M500 1300h100v100H500z"/><path fill="#c8cadb" d="M600 1300h100v100H600z"/><path fill="#ccd0df" d="M700 1300h100v100H700z"/></svg>