<svg xmlns="http://www.w3.org/2000/svg" viewBox="0 0 800 400"><defs/><path fill="#c957bb" d="M0 0h100v100H0z"/><path fill="#ad6886" d="M100 0h100v100H100z"/><path fill="#db4ace" d="M200 0h100v100H200z"/><path fill="#e770da" d="M300 0h100v100H300z"/><path fill="#d95bbd" d="M400 0h100v100H400z"/><path fill="#eb55e7" d="M500 0h100v100H500z"/><path fill="#b376d5" d="M600 0h100v100H600z"/><path fill="#cb70ca" d="M700 0h100v100H700z"/><path fill="#b6399f" d="M0 100h100v100H0z"/><path fill="#933c6b" d="M100 100h100v100H100z"/><path fill="#9f4e8e" d="M200 100h100v100H200z"/><path fill="#c3a9a0" d="M300 100h100v100H300z"/><path fill="#76463e" d="M400 100h100v100H400z"/><path fill="#a72ab2" d="M500 100h100v100H500z"/><path fill="#9a2caa" d="M600 100h100v100H600z"/><path fill="#ae4c9e" d="M700 100h100v100H700z"/><path fill="#bb3d8e" d="M0 200h100v100H0z"/><path fill="#8e6e7a" d="M100 200h100v100H100z"/><path fill="#a3aeb4" d="M200 200h100v100H200z"/><path fill="#9ba796" d="M300 200h100v100H300z"/><path fill="#648570" d="M400 200h100v100H400z"/><path fill="#698398" d="M500 200h100v100H500z"/><path fill="#6e3a6c" d="M600 200h100v100H600z"/><path fill="#af44a0" d="M700 200h100v100H700z"/><path fill="#ba8fa8" d="M0 300h100v100H0z"/><path fill="#afbebe" d="M100 300h100v100H100z"/><path fill="#abb8b4" d="M200 300h100v100H200z"/><path fill="#9ec6b0" d="M300 300h100v100H300z"/><path fill="#94a7b4" d="M400 300h100v100H400z"/><path fill="#8fa9a9" d="M500 300h100v100H500z"/><path fill="#7fa79b" d="M600 300h100v100H600z"/><path fill="#b6a5c1" d="M700 300h100v100H700z"/></svg>