<svg xmlns="http://www.w3.org/2000/svg" viewBox="0 0 800 600"><defs/><path fill="#d2d1c3" d="M0 0h100v100H0z"/><path fill="#cccac1" d="M100 0h100v100H100z"/><path fill="#d0cccb" d="M200 0h100v100H200z"/><path fill="#d5d1cd" d="M300 0h100v100H300z"/><path fill="#d6d2d1" d="M400 0h100v100H400z"/><path fill="#d0cdcc" d="M500 0h100v100H500z"/><path fill="#ceccc7" d="M600 0h100v100H600z"/><path fill="#d0cdc6" d="M700 0h100v100H700z"/><path fill="#c3c262" d="M0 100h100v100H0z"/><path fill="#a3964f" d="M100 100h100v100H100z"/><path fill="#b6b2bf" d="M200 100h100v100H200z"/><path fill="#c0bbc1" d="M300 100h100v100H300z"/><path fill="#d1c8c8" d="M400 100h100v100H400z"/><path fill="#c9bfb8" d="M500 100h100v100H500z"/><path fill="#aba098" d="M600 100h100v100H600z"/><path fill="#c3c0c6" d="M700 100h100v100H700z"/><path fill="#bcba5f" d="M0 200h100v100H0z"/><path fill="#a2915d" d="M100 200h100v100H100z"/><path fill="#b8aeb7" d="M200 200h100v100H200z"/><path fill="#8f8795" d="M300 200h100v100H300z"/><path fill="#b2b8ba" d="M400 200h100v100H400z"/><path fill="#9d98a8" d="M500 200h100v100H500z"/><path fill="#816753" d="M600 200h100v100H600z"/><path fill="#c1b9b9" d="M700 200h100v100H700z"/><path fill="#aea75e" d="M0 300h100v100H0z"/><path fill="#947e57" d="M100 300h100v100H100z"/><path fill="#ad9c87" d="M200 300h100v100H200z"/><path fill="#949188" d="M300 300h100v100H300z"/><path fill="#8a9b8f" d="M400 300h100v100H400z"/><path fill="#918169" d="M500 300h100v100H500z"/><path fill="#8d734d" d="M600 300h100v100H600z"/><path fill="#9a9792" d="M700 300h100v100H700z"/><path fill="#ada57c" d="M0 400h100v100H0z"/><path fill="#a2905e" d="M100 400h100v100H100z"/><path fill="#c0b59d" d="M200 400h100v100H200z"/><path fill="#ccc5c1" d="M300 400h100v100H300z"/><path fill="#c0b4a1" d="M400 400h100v100H400z"/><path fill="#c5b67a" d="M500 400h100v100H500z"/><path fill="#9c9270" d="M600 400h100v100H600z"/><path fill="#8d877a" d="M700 400h100v100H700z"/><path fill="#cdccc8" d="M0 500h100v100H0z"/><path fill="#ceccc3" d="M100 500h100v100H100z"/><path fill="#d0cdc6" d="M200 500h100v100H200z"/><path fill="#cfccc5" d="M300 500h100v100H300z"/><path fill="#ceccc8" d="M400 500h100v100H400z"/><path fill="#cccbc9" d="M500 500h100v100H500z"/><path fill="#cac9c5" d="M600 500h100v100H600z"/><path fill="#c9c8c6" d="M700 500h100v100H700z"/></svg>