<svg xmlns="http://www.w3.org/2000/svg" viewBox="0 0 800 1400"><defs/><path fill="#b8999a" d="M0 0h100v100H0z"/><path fill="#b48c87" d="M100 0h100v100H100z"/><path fill="#d1c0ad" d="M200 0h100v100H200z"/><path fill="#dfddc2" d="M300 0h100v100H300z"/><path fill="#e9edd1" d="M400 0h100v100H400z"/><path fill="#eceed0" d="M500 0h100v100H500z"/><path fill="#ede8c2" d="M600 0h100v100H600z"/><path fill="#eae5d5" d="M700 0h100v100H700z"/><path fill="#b79e9c" d="M0 100h100v100H0z"/><path fill="#ac757c" d="M100 100h100v100H100z"/><path fill="#b26573" d="M200 100h100v100H200z"/><path fill="#b66575" d="M300 100h100v100H300z"/><path fill="#bc7882" d="M400 100h100v100H400z"/><path fill="#cc9a9c" d="M500 100h100v100H500z"/><path fill="#d4bab0" d="M600 100h100v100H600z"/><path fill="#e3c7af" d="M700 100h100v100H700z"/><path fill="#cfdad3" d="M0 200h100v100H0z"/><path fill="#c6e0d3" d="M100 200h100v100H100z"/><path fill="#bed0c9" d="M200 200h100v100H200z"/><path fill="#d2c3bb" d="M300 200h100v100H300z"/><path fill="#c8979d" d="M400 200h100v100H400z"/><path fill="#c67b88" d="M500 200h100v100H500z"/><path fill="#b76170" d="M600 200h100v100H600z"/><path fill="#bf6576" d="M700 200h100v100H700z"/><path fill="#ced9c7" d="M0 300h100v100H0z"/><path fill="#afbfb6" d="M100 300h100v100H100z"/><path fill="#bebfb5" d="M200 300h100v100H200z"/><path fill="#c7d3ce" d="M300 300h100v100H300z"/><path fill="#c5dbd5" d="M400 300h100v100H400z"/><path fill="#d1e4d7" d="M500 300h100v100H500z"/><path fill="#e0e3d8" d="M600 300h100v100H600z"/><path fill="#cfcdc8" d="M700 300h100v100H700z"/><path fill="#d1c9bf" d="M0 400h100v100H0z"/><path fill="#d7c0bb" d="M100 400h100v100H100z"/><path fill="#b8b8b9" d="M200 400h100v100H200z"/><path fill="#537cab" d="M300 400h100v100H300z"/><path fill="#9a99a7" d="M400 400h100v100H400z"/><path fill="#c0b3ac" d="M500 400h100v100H500z"/><path fill="#dfd9e1" d="M600 400h100v100H600z"/><path fill="#ccd1da" d="M700 400h100v100H700z"/><path fill="#d8c7ae" d="M0 500h100v100H0z"/><path fill="#d7cccb" d="M100 500h100v100H100z"/><path fill="#ccc3d1" d="M200 500h100v100H200z"/><path fill="#c0c1c6" d="M300 500h100v100H300z"/><path fill="#d9d8dd" d="M400 500h100v100H400z"/><path fill="#e2e4d6" d="M500 500h100v100H500z"/><path fill="#f9dede" d="M600 500h100v100H600z"/><path fill="#f4d8de" d="M700 500h100v100H700z"/><path fill="#c2d5b5" d="M0 600h100v100H0z"/><path fill="#c7c0c4" d="M100 600h100v100H100z"/><path fill="#7b61a7" d="M200 600h100v100H200z"/><path fill="#9d89a1" d="M300 600h100v100H300z"/><path fill="#ead9d0" d="M400 600h100v100H400z"/><path fill="#cdd0d4" d="M500 600h100v100H500z"/><path fill="#b1c7d2" d="M600 600h100v100H600z"/><path fill="#dfdfe8" d="M700 600h100v100H700z"/><path fill="#ceceb9" d="M0 700h100v100H0z"/><path fill="#d8c5b4" d="M100 700h100v100H100z"/><path fill="#dacdcf" d="M200 700h100v100H200z"/><path fill="#d8cabe" d="M300 700h100v100H300z"/><path fill="#fce0c6" d="M400 700h100v100H400z"/><path fill="#aecbcc" d="M500 700h100v100H500z"/><path fill="#58c2d7" d="M600 700h100v100H600z"/><path fill="#d1dee0" d="M700 700h100v100H700z"/><path fill="#b7d4c9" d="M0 800h100v100H0z"/><path fill="#949287" d="M100 800h100v100H100z"/><path fill="#7f9f99" d="M200 800h100v100H200z"/><path fill="#88a99d" d="M300 800h100v100H300z"/><path fill="#c5b2a4" d="M400 800h100v100H400z"/><path fill="#c9dcd1" d="M500 800h100v100H500z"/><path fill="#e1eae1" d="M600 800h100v100H600z"/><path fill="#dbe6da" d="M700 800h100v100H700z"/><path fill="#c7c8c7" d="M0 900h100v100H0z"/><path fill="#b6aead" d="M100 900h100v100H100z"/><path fill="#bfcbc6" d="M200 900h100v100H200z"/><path fill="#c3beb0" d="M300 900h100v100H300z"/><path fill="#dad3bf" d="M400 900h100v100H400z"/><path fill="#e6e6e1" d="M500 900h100v100H500z"/><path fill="#e3e5e0" d="M600 900h100v100H600z"/><path fill="#e4e9e0" d="M700 900h100v100H700z"/><path fill="#ccccc3" d="M0 1000h100v100H0z"/><path fill="#c1d6c2" d="M100 1000h100v100H100z"/><path fill="#bfdad1" d="M200 1000h100v100H200z"/><path fill="#e8d4cf" d="M300 1000h100v100H300z"/><path fill="#d9e6d3" d="M400 1000h100v100H400z"/><path fill="#c0d5d6" d="M500 1000h100v100H500z"/><path fill="#d2d5d6" d="M600 1000h100v100H600z"/><path fill="#e0e3d8" d="M700 1000h100v100H700z"/><path fill="#c9c6bf" d="M0 1100h100v100H0z"/><path fill="#cbd3bc" d="M100 1100h100v100H100z"/><path fill="#afb9b8" d="M200 1100h100v100H200z"/><path fill="#ccd4d7" d="M300 1100h100v100H300z"/><path fill="#d5dfce" d="M400 1100h100v100H400z"/><path fill="#cfddd6" d="M500 1100h100v100H500z"/><path fill="#e3d8d1" d="M600 1100h100v100H600z"/><path fill="#e6e6d4" d="M700 1100h100v100H700z"/><path fill="#c5d3c7" d="M0 1200h100v100H0z"/><path fill="#c4cfb5" d="M100 1200h100v100H100z"/><path fill="#d3cab5" d="M200 1200h100v100H200z"/><path fill="#cfd4d4" d="M300 1200h100v100H300z"/><path fill="#ced9cf" d="M400 1200h100v100H400z"/><path fill="#dee2d0" d="M500 1200h100v100H500z"/><path fill="#e4dccb" d="M600 1200h100v100H600z"/><path fill="#d2ded5" d="M700 1200h100v100H700z"/><path fill="#c1d1c3" d="M0 1300h100v100H0z"/><path fill="#c4d7c9" d="M100 1300h100v100H100z"/><path fill="#d0cfca" d="M200 1300h100v100H200z"/><path fill="#cec4c0" d="M300 1300h100v100H300z"/><path fill="#acc7d6" d="M400 1300h100v100H400z"/><path fill="#e6dbc6" d="M500 1300h100v100H500z"/><path fill="#e1cdac" d="M600 1300h100v100H600z"/><path fill="#c2d2d9" d="M700 1300h100v100H700z"/></svg>