<svg xmlns="http://www.w3.org/2000/svg" viewBox="0 0 800 900"><defs/><path fill="#ebe8e3" d="M0 0h100v100H0z"/><path fill="#e3e0db" d="M100 0h100v100H100z"/><path fill="#d3d0cb" d="M200 0h100v100H200z"/><path fill="#d6d3ce" d="M300 0h100v100H300z"/><path fill="#e5e2dd" d="M400 0h100v100H400z"/><path fill="#dfdcd7" d="M500 0h100v100H500zm100 0h100v100H600z"/><path fill="#e7e4df" d="M700 0h100v100H700z"/><path fill="#e8e5e0" d="M0 100h100v100H0z"/><path fill="#e2dfda" d="M100 100h100v100H100z"/><path fill="#ece9e4" d="M200 100h100v100H200z"/><path fill="#dfdcd7" d="M300 100h100v100H300z"/><path fill="#7e7d7a" d="M400 100h100v100H400z"/><path fill="#adaba6" d="M500 100h100v100H500z"/><path fill="#dedcd7" d="M600 100h100v100H600z"/><path fill="#ede9e4" d="M700 100h100v100H700z"/><path fill="#e8e5e0" d="M0 200h100v100H0z"/><path fill="#edeae4" d="M100 200h100v100H100z"/><path fill="#b6b3b0" d="M200 200h100v100H200z"/><path fill="#535250" d="M300 200h100v100H300z"/><path fill="#0b0c0b" d="M400 200h100v100H400z"/><path fill="#1c1c1b" d="M500 200h100v100H500z"/><path fill="#595855" d="M600 200h100v100H600z"/><path fill="#d8d6d1" d="M700 200h100v100H700z"/><path fill="#eeebe6" d="M0 300h100v100H0z"/><path fill="#cdcbc6" d="M100 300h100v100H100z"/><path fill="#191919" d="M200 300h100v100H200z"/><path fill="#292928" d="M300 300h100v100H300z"/><path fill="#595856" d="M400 300h100v100H400z"/><path fill="#393837" d="M500 300h100v100H500z"/><path fill="#0f0f0f" d="M600 300h100v100H600z"/><path fill="#a6a3a0" d="M700 300h100v100H700z"/><path fill="#f0ede7" d="M0 400h100v100H0z"/><path fill="#b9b7b3" d="M100 400h100v100H100z"/><path fill="#181818" d="M200 400h100v100H200z"/><path fill="#5f5f5c" d="M300 400h100v100H300z"/><path fill="#8a8885" d="M400 400h100v100H400z"/><path fill="#74726f" d="M500 400h100v100H500z"/><path fill="#10100f" d="M600 400h100v100H600z"/><path fill="#a09f9b" d="M700 400h100v100H700z"/><path fill="#eae7e2" d="M0 500h100v100H0z"/><path fill="#e3e0db" d="M100 500h100v100H100z"/><path fill="#3c3b3a" d="M200 500h100v100H200z"/><path fill="#0c0c0c" d="M300 500h100v100H300z"/><path fill="#101010" d="M400 500h100v100H400z"/><path fill="#1c1c1c" d="M500 500h100v100H500z"/><path fill="#111110" d="M600 500h100v100H600z"/><path fill="#a3a19e" d="M700 500h100v100H700z"/><path fill="#dad7d2" d="M0 600h100v100H0z"/><path fill="#e7e4df" d="M100 600h100v100H100z"/><path fill="#646360" d="M200 600h100v100H200z"/><path fill="#060707" d="M300 600h100v100H300z"/><path fill="#1b1a1a" d="M400 600h100v100H400z"/><path fill="#060606" d="M500 600h100v100H500z"/><path fill="#212121" d="M600 600h100v100H600z"/><path fill="#d4d1cc" d="M700 600h100v100H700z"/><path fill="#bfbdb8" d="M0 700h100v100H0z"/><path fill="#c4c1bc" d="M100 700h100v100H100z"/><path fill="#898783" d="M200 700h100v100H200z"/><path fill="#343331" d="M300 700h100v100H300z"/><path fill="#434240" d="M400 700h100v100H400z"/><path fill="#31302f" d="M500 700h100v100H500z"/><path fill="#5b5a58" d="M600 700h100v100H600z"/><path fill="#dcd9d4" d="M700 700h100v100H700z"/><path fill="#c8c6c1" d="M0 800h100v100H0z"/><path fill="#b0aeaa" d="M100 800h100v100H100z"/><path fill="#91908c" d="M200 800h100v100H200z"/><path fill="#989692" d="M300 800h100v100H300z"/><path fill="#908e8a" d="M400 800h100v100H400z"/><path fill="#8e8c88" d="M500 800h100v100H500z"/><path fill="#92918c" d="M600 800h100v100H600z"/><path fill="#b5b3ae" d="M700 800h100v100H700z"/></svg>