<svg xmlns="http://www.w3.org/2000/svg" viewBox="0 0 800 600"><defs/><path fill="#969896" d="M0 0h100v100H0z"/><path fill="#a29e99" d="M100 0h100v100H100z"/><path fill="#a79d98" d="M200 0h100v100H200z"/><path fill="#abaca9" d="M300 0h100v100H300z"/><path fill="#a2a6a5" d="M400 0h100v100H400z"/><path fill="#939a9b" d="M500 0h100v100H500z"/><path fill="#9ca2a3" d="M600 0h100v100H600z"/><path fill="#999a97" d="M700 0h100v100H700z"/><path fill="#a0a3a3" d="M0 100h100v100H0z"/><path fill="#a29a97" d="M100 100h100v100H100z"/><path fill="#a29b97" d="M200 100h100v100H200z"/><path fill="#acaeac" d="M300 100h100v100H300z"/><path fill="#a8aba9" d="M400 100h100v100H400z"/><path fill="#979896" d="M500 100h100v100H500z"/><path fill="#9aa3a5" d="M600 100h100v100H600z"/><path fill="#9a9c9a" d="M700 100h100v100H700z"/><path fill="#9ea09e" d="M0 200h100v100H0z"/><path fill="#a8a09c" d="M100 200h100v100H100z"/><path fill="#a4a39f" d="M200 200h100v100H200z"/><path fill="#a3a4a0" d="M300 200h100v100H300z"/><path fill="#aaacac" d="M400 200h100v100H400z"/><path fill="#a3a7a8" d="M500 200h100v100H500z"/><path fill="#a5aaaa" d="M600 200h100v100H600z"/><path fill="#949593" d="M700 200h100v100H700z"/><path fill="#a1a3a1" d="M0 300h100v100H0z"/><path fill="#a69b96" d="M100 300h100v100H100z"/><path fill="#a9a7a3" d="M200 300h100v100H200z"/><path fill="#a9acab" d="M300 300h100v100H300z"/><path fill="#a8abab" d="M400 300h100v100H400z"/><path fill="#989897" d="M500 300h100v100H500z"/><path fill="#92918f" d="M600 300h100v100H600z"/><path fill="#939492" d="M700 300h100v100H700z"/><path fill="#a5a19f" d="M0 400h100v100H0z"/><path fill="#a19692" d="M100 400h100v100H100z"/><path fill="#9a9591" d="M200 400h100v100H200z"/><path fill="#989996" d="M300 400h100v100H300z"/><path fill="#9b9795" d="M400 400h100v100H400z"/><path fill="#938f8d" d="M500 400h100v100H500z"/><path fill="#8d8784" d="M600 400h100v100H600z"/><path fill="#949290" d="M700 400h100v100H700z"/><path fill="#a09b99" d="M0 500h100v100H0z"/><path fill="#9e9998" d="M100 500h100v100H100z"/><path fill="#a09e9e" d="M200 500h100v100H200z"/><path fill="#9e9e9c" d="M300 500h100v100H300z"/><path fill="#a29c99" d="M400 500h100v100H400z"/><path fill="#a7a2a2" d="M500 500h100v100H500z"/><path fill="#95979e" d="M600 500h100v100H600z"/><path fill="#989597" d="M700 500h100v100H700z"/></svg>