<svg xmlns="http://www.w3.org/2000/svg" viewBox="0 0 800 600"><defs/><path fill="#3f1c19" d="M0 0h100v100H0z"/><path fill="#614543" d="M100 0h100v100H100z"/><path fill="#7b5451" d="M200 0h100v100H200z"/><path fill="#956765" d="M300 0h100v100H300z"/><path fill="#ad7a78" d="M400 0h100v100H400z"/><path fill="#c8a5a2" d="M500 0h100v100H500z"/><path fill="#e3dcd9" d="M600 0h100v100H600z"/><path fill="#e1b9b2" d="M700 0h100v100H700z"/><path fill="#50413e" d="M0 100h100v100H0z"/><path fill="#87817f" d="M100 100h100v100H100z"/><path fill="#918a88" d="M200 100h100v100H200z"/><path fill="#8f8b89" d="M300 100h100v100H300z"/><path fill="#a6a4a2" d="M400 100h100v100H400z"/><path fill="#bcb8b4" d="M500 100h100v100H500z"/><path fill="#dcd4d1" d="M600 100h100v100H600z"/><path fill="#eee9e4" d="M700 100h100v100H700z"/><path fill="#5a4442" d="M0 200h100v100H0z"/><path fill="#8f8886" d="M100 200h100v100H100z"/><path fill="#8e8382" d="M200 200h100v100H200z"/><path fill="#8d8482" d="M300 200h100v100H300z"/><path fill="#9b918f" d="M400 200h100v100H400z"/><path fill="#b6adaa" d="M500 200h100v100H500z"/><path fill="#d0c8c4" d="M600 200h100v100H600z"/><path fill="#e0d9d1" d="M700 200h100v100H700z"/><path fill="#513a37" d="M0 300h100v100H0z"/><path fill="#807978" d="M100 300h100v100H100z"/><path fill="#7f7674" d="M200 300h100v100H200z"/><path fill="#78716e" d="M300 300h100v100H300z"/><path fill="#807774" d="M400 300h100v100H400z"/><path fill="#9b948d" d="M500 300h100v100H500z"/><path fill="#bcb5ad" d="M600 300h100v100H600z"/><path fill="#cac3b6" d="M700 300h100v100H700z"/><path fill="#513e3b" d="M0 400h100v100H0z"/><path fill="#88827f" d="M100 400h100v100H100z"/><path fill="#8b827f" d="M200 400h100v100H200z"/><path fill="#89817b" d="M300 400h100v100H300z"/><path fill="#99948b" d="M400 400h100v100H400z"/><path fill="#9e998d" d="M500 400h100v100H500z"/><path fill="#aea89a" d="M600 400h100v100H600z"/><path fill="#b5b09d" d="M700 400h100v100H700z"/><path fill="#312a28" d="M0 500h100v100H0z"/><path fill="#554e4c" d="M100 500h100v100H100z"/><path fill="#625b56" d="M200 500h100v100H200z"/><path fill="#70655e" d="M300 500h100v100H300z"/><path fill="#77675e" d="M400 500h100v100H400z"/><path fill="#7c6a5f" d="M500 500h100v100H500z"/><path fill="#7b6659" d="M600 500h100v100H600z"/><path fill="#715d4f" d="M700 500h100v100H700z"/></svg>