<svg xmlns="http://www.w3.org/2000/svg" viewBox="0 0 800 600"><defs/><path fill="#99998e" d="M0 0h100v100H0z"/><path fill="#6e746d" d="M100 0h100v100H100z"/><path fill="#7c8581" d="M200 0h100v100H200z"/><path fill="#737a76" d="M300 0h100v100H300z"/><path fill="#737873" d="M400 0h100v100H400z"/><path fill="#7f817c" d="M500 0h100v100H500z"/><path fill="#b3b4b0" d="M600 0h100v100H600z"/><path fill="#b1b1ad" d="M700 0h100v100H700z"/><path fill="#f4f3e3" d="M0 100h100v100H0z"/><path fill="#849089" d="M100 100h100v100H100z"/><path fill="#607475" d="M200 100h100v100H200z"/><path fill="#7e9593" d="M300 100h100v100H300z"/><path fill="#8ea3a1" d="M400 100h100v100H400z"/><path fill="#acb4a7" d="M500 100h100v100H500z"/><path fill="#f1f2ea" d="M600 100h100v100H600z"/><path fill="#f0f3ef" d="M700 100h100v100H700z"/><path fill="#f0efde" d="M0 200h100v100H0z"/><path fill="#5f5f56" d="M100 200h100v100H100z"/><path fill="#222b2d" d="M200 200h100v100H200z"/><path fill="#858983" d="M300 200h100v100H300z"/><path fill="#a0a9a9" d="M400 200h100v100H400z"/><path fill="#ccccc0" d="M500 200h100v100H500z"/><path fill="#a5aaa3" d="M600 200h100v100H600z"/><path fill="#5a6363" d="M700 200h100v100H700z"/><path fill="#f2f1df" d="M0 300h100v100H0z"/><path fill="#676961" d="M100 300h100v100H100z"/><path fill="#313637" d="M200 300h100v100H200z"/><path fill="#8b867e" d="M300 300h100v100H300z"/><path fill="#84898a" d="M400 300h100v100H400z"/><path fill="#a09e98" d="M500 300h100v100H500z"/><path fill="#9a9d97" d="M600 300h100v100H600z"/><path fill="#818584" d="M700 300h100v100H700z"/><path fill="#ecebda" d="M0 400h100v100H0z"/><path fill="#77776d" d="M100 400h100v100H100z"/><path fill="#505d5c" d="M200 400h100v100H200z"/><path fill="#737c76" d="M300 400h100v100H300z"/><path fill="#817876" d="M400 400h100v100H400z"/><path fill="#8b8980" d="M500 400h100v100H500z"/><path fill="#e5e7e3" d="M600 400h100v100H600z"/><path fill="#fff" d="M700 400h100v100H700z"/><path fill="#e5e5d6" d="M0 500h100v100H0z"/><path fill="#a1a99e" d="M100 500h100v100H100z"/><path fill="#8c938e" d="M200 500h100v100H200z"/><path fill="#959f9a" d="M300 500h100v100H300z"/><path fill="#a1a8a8" d="M400 500h100v100H400z"/><path fill="#c2c2bd" d="M500 500h100v100H500z"/><path fill="#c0c4c0" d="M600 500h100v100H600z"/><path fill="#a4aaa8" d="M700 500h100v100H700z"/></svg>