<svg xmlns="http://www.w3.org/2000/svg" viewBox="0 0 800 600"><defs/><path fill="#f6f6f7" d="M0 0h100v100H0z"/><path fill="#ece8ea" d="M100 0h100v100H100z"/><path fill="#f4f2f2" d="M200 0h100v100H200z"/><path fill="#f7f6f6" d="M300 0h100v100H300z"/><path fill="#f8f7f7" d="M400 0h100v100H400z"/><path fill="#f8f8f8" d="M500 0h100v100H500z"/><path fill="#f8f7f8" d="M600 0h100v100H600z"/><path fill="#f8f8f8" d="M700 0h100v100H700z"/><path fill="#ebe6e8" d="M0 100h100v100H0z"/><path fill="#ac969c" d="M100 100h100v100H100z"/><path fill="#ddd9da" d="M200 100h100v100H200z"/><path fill="#e4e3e4" d="M300 100h100v100H300z"/><path fill="#e3e0e0" d="M400 100h100v100H400z"/><path fill="#dad7d8" d="M500 100h100v100H500z"/><path fill="#dbdad9" d="M600 100h100v100H600z"/><path fill="#cdc7c6" d="M700 100h100v100H700z"/><path fill="#dfd6d8" d="M0 200h100v100H0z"/><path fill="#b7a3a8" d="M100 200h100v100H100z"/><path fill="#f2edef" d="M200 200h100v100H200z"/><path fill="#eae2e4" d="M300 200h100v100H300z"/><path fill="#f6f7fa" d="M400 200h100v100H400z"/><path fill="#d2cece" d="M500 200h100v100H500z"/><path fill="#a59291" d="M600 200h100v100H600z"/><path fill="#ab9d9c" d="M700 200h100v100H700z"/><path fill="#cec1c6" d="M0 300h100v100H0z"/><path fill="#b0999e" d="M100 300h100v100H100z"/><path fill="#c0a9ac" d="M200 300h100v100H200z"/><path fill="#baa1a5" d="M300 300h100v100H300z"/><path fill="#ead6d2" d="M400 300h100v100H400z"/><path fill="#c7b3b4" d="M500 300h100v100H500z"/><path fill="#ab8c93" d="M600 300h100v100H600z"/><path fill="#b09f9c" d="M700 300h100v100H700z"/><path fill="#bdabaf" d="M0 400h100v100H0z"/><path fill="#c99891" d="M100 400h100v100H100z"/><path fill="#ca9f98" d="M200 400h100v100H200z"/><path fill="#c09995" d="M300 400h100v100H300z"/><path fill="#dca299" d="M400 400h100v100H400z"/><path fill="#d59e95" d="M500 400h100v100H500z"/><path fill="#c59589" d="M600 400h100v100H600z"/><path fill="#d2a99e" d="M700 400h100v100H700z"/><path fill="#eee4e2" d="M0 500h100v100H0z"/><path fill="#f8e5e1" d="M100 500h100v100H100z"/><path fill="#f6e4df" d="M200 500h100v100H200z"/><path fill="#f5e3de" d="M300 500h100v100H300z"/><path fill="#f9e7e3" d="M400 500h100v100H400z"/><path fill="#fde9e3" d="M500 500h100v100H500z"/><path fill="#fde7e2" d="M600 500h100v100H600z"/><path fill="#f0e1dd" d="M700 500h100v100H700z"/></svg>