<svg xmlns="http://www.w3.org/2000/svg" viewBox="0 0 800 600"><defs/><path fill="#c8c0aa" d="M0 0h100v100H0z"/><path fill="#e7dfcb" d="M100 0h100v100H100z"/><path fill="#eae3cf" d="M200 0h100v100H200z"/><path fill="#c1b9a8" d="M300 0h100v100H300z"/><path fill="#8f887e" d="M400 0h100v100H400z"/><path fill="#43423d" d="M500 0h100v100H500z"/><path fill="#10100f" d="M600 0h100v100H600z"/><path d="M700 0h100v100H700z"/><path fill="#cdc6b5" d="M0 100h100v100H0z"/><path fill="#eae5d6" d="M100 100h100v100H100z"/><path fill="#e9e5d9" d="M200 100h100v100H200z"/><path fill="#c1c0b7" d="M300 100h100v100H300z"/><path fill="#959490" d="M400 100h100v100H400z"/><path fill="#585857" d="M500 100h100v100H500z"/><path fill="#10110e" d="M600 100h100v100H600z"/><path fill="#010101" d="M700 100h100v100H700z"/><path fill="#a29d92" d="M0 200h100v100H0z"/><path fill="#afaea9" d="M100 200h100v100H100z"/><path fill="#b7b5b1" d="M200 200h100v100H200z"/><path fill="#979a9d" d="M300 200h100v100H300z"/><path fill="#6b727a" d="M400 200h100v100H400z"/><path fill="#4f5257" d="M500 200h100v100H500z"/><path fill="#292928" d="M600 200h100v100H600z"/><path fill="#0b0a09" d="M700 200h100v100H700z"/><path fill="#77746c" d="M0 300h100v100H0z"/><path fill="#7d7c7a" d="M100 300h100v100H100z"/><path fill="#787a7d" d="M200 300h100v100H200z"/><path fill="#656b74" d="M300 300h100v100H300z"/><path fill="#575c63" d="M400 300h100v100H400z"/><path fill="#3c3b3f" d="M500 300h100v100H500z"/><path fill="#332d2e" d="M600 300h100v100H600z"/><path fill="#272624" d="M700 300h100v100H700z"/><path fill="#54534c" d="M0 400h100v100H0z"/><path fill="#525453" d="M100 400h100v100H100z"/><path fill="#535558" d="M200 400h100v100H200z"/><path fill="#565657" d="M300 400h100v100H300z"/><path fill="#514e4d" d="M400 400h100v100H400z"/><path fill="#403e3c" d="M500 400h100v100H500z"/><path fill="#292524" d="M600 400h100v100H600z"/><path fill="#1d1b1a" d="M700 400h100v100H700z"/><path fill="#3d3932" d="M0 500h100v100H0z"/><path fill="#413e39" d="M100 500h100v100H100z"/><path fill="#46433d" d="M200 500h100v100H200z"/><path fill="#423f3b" d="M300 500h100v100H300z"/><path fill="#363330" d="M400 500h100v100H400z"/><path fill="#32312f" d="M500 500h100v100H500z"/><path fill="#2b2b28" d="M600 500h100v100H600z"/><path fill="#181715" d="M700 500h100v100H700z"/></svg>