<svg xmlns="http://www.w3.org/2000/svg" viewBox="0 0 800 400"><defs/><path fill="#cbcbcb" d="M0 0h100v100H0z"/><path fill="#898985" d="M100 0h100v100H100z"/><path fill="#c7c8c9" d="M200 0h100v100H200z"/><path fill="#aaa7ac" d="M300 0h100v100H300z"/><path fill="#c2b3b8" d="M400 0h100v100H400z"/><path fill="#c9caca" d="M500 0h100v100H500z"/><path fill="#d5dbd6" d="M600 0h100v100H600z"/><path fill="#f1f0f0" d="M700 0h100v100H700z"/><path fill="#b8b8b7" d="M0 100h100v100H0z"/><path fill="#8f8e8a" d="M100 100h100v100H100z"/><path fill="#595955" d="M200 100h100v100H200z"/><path fill="#7d7d7d" d="M300 100h100v100H300z"/><path fill="#9e959a" d="M400 100h100v100H400z"/><path fill="#a9aea5" d="M500 100h100v100H500z"/><path fill="#a4af9f" d="M600 100h100v100H600z"/><path fill="#e5e6e8" d="M700 100h100v100H700z"/><path fill="#a5a4a4" d="M0 200h100v100H0z"/><path fill="#787673" d="M100 200h100v100H100z"/><path fill="#585654" d="M200 200h100v100H200z"/><path fill="#999" d="M300 200h100v100H300z"/><path fill="#52544d" d="M400 200h100v100H400z"/><path fill="#746b60" d="M500 200h100v100H500z"/><path fill="#707169" d="M600 200h100v100H600z"/><path fill="#c8cdc8" d="M700 200h100v100H700z"/><path fill="#91918f" d="M0 300h100v100H0z"/><path fill="#a09c98" d="M100 300h100v100H100z"/><path fill="#bebab8" d="M200 300h100v100H200z"/><path fill="#a9a8a9" d="M300 300h100v100H300z"/><path fill="#5d6259" d="M400 300h100v100H400z"/><path fill="#2a2f27" d="M500 300h100v100H500z"/><path fill="#23211f" d="M600 300h100v100H600z"/><path fill="#747472" d="M700 300h100v100H700z"/></svg>