<svg xmlns="http://www.w3.org/2000/svg" viewBox="0 0 800 600"><defs/><path fill="#fcfcfc" d="M0 0h100v100H0z"/><path fill="#f9fbfa" d="M100 0h100v100H100z"/><path fill="#fafbfb" d="M200 0h100v100H200z"/><path fill="#fdfdfd" d="M300 0h100v100H300z"/><path fill="#fefefe" d="M400 0h100v100H400z"/><path fill="#fdfdfc" d="M500 0h100v100H500z"/><path fill="#faf9f9" d="M600 0h100v100H600z"/><path fill="#fafaf9" d="M700 0h100v100H700z"/><path fill="#cbd5cb" d="M0 100h100v100H0z"/><path fill="#99af7a" d="M100 100h100v100H100z"/><path fill="#b6bbbb" d="M200 100h100v100H200z"/><path fill="#cfcccb" d="M300 100h100v100H300z"/><path fill="#cac4bf" d="M400 100h100v100H400z"/><path fill="#cfcec8" d="M500 100h100v100H500z"/><path fill="#aeb0af" d="M600 100h100v100H600z"/><path fill="#aaa79f" d="M700 100h100v100H700z"/><path fill="#cdd8c8" d="M0 200h100v100H0z"/><path fill="#a7a874" d="M100 200h100v100H100z"/><path fill="#b1b2b7" d="M200 200h100v100H200z"/><path fill="#b5b5b0" d="M300 200h100v100H300z"/><path fill="#c2c1bf" d="M400 200h100v100H400z"/><path fill="#c2c9ca" d="M500 200h100v100H500z"/><path fill="#a6afb0" d="M600 200h100v100H600z"/><path fill="#aeaea5" d="M700 200h100v100H700z"/><path fill="#dfdfd0" d="M0 300h100v100H0z"/><path fill="#cbbda9" d="M100 300h100v100H100z"/><path fill="#b2b6b4" d="M200 300h100v100H200z"/><path fill="#b6b8b6" d="M300 300h100v100H300z"/><path fill="#d1d0cf" d="M400 300h100v100H400z"/><path fill="#c1c1bf" d="M500 300h100v100H500z"/><path fill="#a1a6a4" d="M600 300h100v100H600z"/><path fill="#c4cabc" d="M700 300h100v100H700z"/><path fill="#e3d3cb" d="M0 400h100v100H0z"/><path fill="#cbb3ab" d="M100 400h100v100H100z"/><path fill="#c3c2c3" d="M200 400h100v100H200z"/><path fill="#cab9ba" d="M300 400h100v100H300z"/><path fill="#b7b0ac" d="M400 400h100v100H400z"/><path fill="#b7b2ab" d="M500 400h100v100H500z"/><path fill="#8b8884" d="M600 400h100v100H600z"/><path fill="#acaa9f" d="M700 400h100v100H700z"/><path fill="#f2eeee" d="M0 500h100v100H0z"/><path fill="#f5f2f1" d="M100 500h100v100H100z"/><path fill="#f2f2f0" d="M200 500h100v100H200z"/><path fill="#eee9e9" d="M300 500h100v100H300z"/><path fill="#e0dddd" d="M400 500h100v100H400z"/><path fill="#e6e4e3" d="M500 500h100v100H500z"/><path fill="#dfdddb" d="M600 500h100v100H600z"/><path fill="#d3d0cf" d="M700 500h100v100H700z"/></svg>