<svg xmlns="http://www.w3.org/2000/svg" viewBox="0 0 800 1500"><defs/><path fill="#c4c5c4" d="M0 0h100v100H0z"/><path fill="#c9c8c7" d="M100 0h100v100H100z"/><path fill="#d8d7d7" d="M200 0h100v100H200z"/><path fill="#b7b6b4" d="M300 0h100v100H300z"/><path fill="#c9c9c8" d="M400 0h100v100H400z"/><path fill="#b6b7b4" d="M500 0h100v100H500z"/><path fill="#dcdcd9" d="M600 0h100v100H600z"/><path fill="#cfcfcd" d="M700 0h100v100H700z"/><path fill="#dadad8" d="M0 100h100v100H0z"/><path fill="#a5a4a3" d="M100 100h100v100H100z"/><path fill="#bcbcbb" d="M200 100h100v100H200z"/><path fill="#cfcfcc" d="M300 100h100v100H300z"/><path fill="#d7d7d6" d="M400 100h100v100H400z"/><path fill="#d0d1cf" d="M500 100h100v100H500z"/><path fill="#cacbc9" d="M600 100h100v100H600z"/><path fill="#cbcbc9" d="M700 100h100v100H700z"/><path fill="#dbdbdb" d="M0 200h100v100H0z"/><path fill="#979695" d="M100 200h100v100H100z"/><path fill="#848481" d="M200 200h100v100H200z"/><path fill="#a3a2a0" d="M300 200h100v100H300z"/><path fill="#949390" d="M400 200h100v100H400z"/><path fill="#a9a8a6" d="M500 200h100v100H500z"/><path fill="#bbb9b8" d="M600 200h100v100H600z"/><path fill="#c7c6c4" d="M700 200h100v100H700z"/><path fill="#e8e9e7" d="M0 300h100v100H0z"/><path fill="#d6d6d4" d="M100 300h100v100H100z"/><path fill="#bfc0bf" d="M200 300h100v100H200z"/><path fill="#b5b3b2" d="M300 300h100v100H300z"/><path fill="#979795" d="M400 300h100v100H400z"/><path fill="#b1b2b0" d="M500 300h100v100H500z"/><path fill="#9a9994" d="M600 300h100v100H600z"/><path fill="#9a9b96" d="M700 300h100v100H700z"/><path fill="#d9d9d8" d="M0 400h100v100H0z"/><path fill="#f6f6f6" d="M100 400h100v100H100z"/><path fill="#c3c3c1" d="M200 400h100v100H200z"/><path fill="#6d6c6b" d="M300 400h100v100H300z"/><path fill="#9f9f9d" d="M400 400h100v100H400z"/><path fill="#a1a19e" d="M500 400h100v100H500z"/><path fill="#cacac8" d="M600 400h100v100H600z"/><path fill="#dadad8" d="M700 400h100v100H700z"/><path fill="#ececea" d="M0 500h100v100H0z"/><path fill="#b2b2b0" d="M100 500h100v100H100z"/><path fill="#5f5f5c" d="M200 500h100v100H200z"/><path fill="#b2b1b1" d="M300 500h100v100H300z"/><path fill="#b9b9b8" d="M400 500h100v100H400z"/><path fill="#dcdbda" d="M500 500h100v100H500z"/><path fill="#ebebea" d="M600 500h100v100H600z"/><path fill="#efefee" d="M700 500h100v100H700z"/><path fill="#d1d1cf" d="M0 600h100v100H0z"/><path fill="#9b9a98" d="M100 600h100v100H100z"/><path fill="#969592" d="M200 600h100v100H200z"/><path fill="#939490" d="M300 600h100v100H300z"/><path fill="#b5b5b2" d="M400 600h100v100H400z"/><path fill="#f2f2f1" d="M500 600h100v100H500z"/><path fill="#f6f7f5" d="M600 600h100v100H600z"/><path fill="#f5f5f4" d="M700 600h100v100H700z"/><path fill="#ededee" d="M0 700h100v100H0z"/><path fill="#adacac" d="M100 700h100v100H100z"/><path fill="#e9e9e9" d="M200 700h100v100H200z"/><path fill="#c1c1bf" d="M300 700h100v100H300z"/><path fill="#8c8c89" d="M400 700h100v100H400z"/><path fill="#f4f4f3" d="M500 700h100v100H500z"/><path fill="#fefefe" d="M600 700h100v100H600z"/><path fill="#fafaf9" d="M700 700h100v100H700z"/><path fill="#d6d5d5" d="M0 800h100v100H0z"/><path fill="#bdbdbc" d="M100 800h100v100H100z"/><path fill="#efefee" d="M200 800h100v100H200z"/><path fill="#bdbebc" d="M300 800h100v100H300z"/><path fill="#bcbcbb" d="M400 800h100v100H400z"/><path fill="#e8e8e7" d="M500 800h100v100H500z"/><path fill="#e6e7e5" d="M600 800h100v100H600z"/><path fill="#f5f6f4" d="M700 800h100v100H700z"/><path fill="#d6d6d6" d="M0 900h100v100H0z"/><path fill="#cececd" d="M100 900h100v100H100z"/><path fill="#a4a4a0" d="M200 900h100v100H200z"/><path fill="#a7a8a7" d="M300 900h100v100H300z"/><path fill="#bdbdbc" d="M400 900h100v100H400z"/><path fill="#cacac8" d="M500 900h100v100H500z"/><path fill="#d6d6d4" d="M600 900h100v100H600z"/><path fill="#efefed" d="M700 900h100v100H700z"/><path fill="#dbdada" d="M0 1000h100v100H0z"/><path fill="#d8d9d8" d="M100 1000h100v100H100z"/><path fill="#a1a2a0" d="M200 1000h100v100H200z"/><path fill="#ababaa" d="M300 1000h100v100H300z"/><path fill="#9e9e9c" d="M400 1000h100v100H400z"/><path fill="#d3d3d1" d="M500 1000h100v100H500z"/><path fill="#dededc" d="M600 1000h100v100H600z"/><path fill="#dededd" d="M700 1000h100v100H700z"/><path fill="#e3e3e1" d="M0 1100h100v100H0z"/><path fill="#d3d4d2" d="M100 1100h100v100H100z"/><path fill="#80817e" d="M200 1100h100v100H200z"/><path fill="#9b9c9a" d="M300 1100h100v100H300z"/><path fill="#afafae" d="M400 1100h100v100H400z"/><path fill="#e1e1de" d="M500 1100h100v100H500z"/><path fill="#eaeae8" d="M600 1100h100v100H600z"/><path fill="#d5d5d3" d="M700 1100h100v100H700z"/><path fill="#f4f5f3" d="M0 1200h100v100H0z"/><path fill="#dbdcda" d="M100 1200h100v100H100z"/><path fill="#c4c4c2" d="M200 1200h100v100H200z"/><path fill="#b5b4b2" d="M300 1200h100v100H300z"/><path fill="#aaaaa8" d="M400 1200h100v100H400z"/><path fill="#bdbdbb" d="M500 1200h100v100H500z"/><path fill="#cbcbc9" d="M600 1200h100v100H600z"/><path fill="#d4d5d3" d="M700 1200h100v100H700z"/><path fill="#eff0ef" d="M0 1300h100v100H0z"/><path fill="#fafaf9" d="M100 1300h100v100H100z"/><path fill="#a9a8a7" d="M200 1300h100v100H200z"/><path fill="#7f7f7e" d="M300 1300h100v100H300z"/><path fill="#9f9e9c" d="M400 1300h100v100H400z"/><path fill="#c4c4c2" d="M500 1300h100v100H500z"/><path fill="#bbbcb8" d="M600 1300h100v100H600z"/><path fill="#d0d1ce" d="M700 1300h100v100H700z"/><path fill="#eaeae9" d="M0 1400h100v100H0z"/><path fill="#908f8c" d="M100 1400h100v100H100z"/><path fill="#14110d" d="M200 1400h100v100H200z"/><path fill="#363330" d="M300 1400h100v100H300z"/><path fill="#9a9996" d="M400 1400h100v100H400z"/><path fill="#979794" d="M500 1400h100v100H500z"/><path fill="#d6d5d4" d="M600 1400h100v100H600z"/><path fill="#e7e8e5" d="M700 1400h100v100H700z"/></svg>