<svg xmlns="http://www.w3.org/2000/svg" viewBox="0 0 800 500"><defs/><path fill="#2d2850" d="M0 0h100v100H0z"/><path fill="#4a2147" d="M100 0h100v100H100z"/><path fill="#48284c" d="M200 0h100v100H200z"/><path fill="#583c63" d="M300 0h100v100H300z"/><path fill="#643b5d" d="M400 0h100v100H400z"/><path fill="#47284d" d="M500 0h100v100H500z"/><path fill="#3d2249" d="M600 0h100v100H600z"/><path fill="#202951" d="M700 0h100v100H700z"/><path fill="#232c54" d="M0 100h100v100H0z"/><path fill="#33385b" d="M100 100h100v100H100z"/><path fill="#4a506c" d="M200 100h100v100H200z"/><path fill="#8a86aa" d="M300 100h100v100H300z"/><path fill="#a48498" d="M400 100h100v100H400z"/><path fill="#4c4d6b" d="M500 100h100v100H500z"/><path fill="#3a3b5f" d="M600 100h100v100H600z"/><path fill="#253057" d="M700 100h100v100H700z"/><path fill="#2b385d" d="M0 200h100v100H0z"/><path fill="#627389" d="M100 200h100v100H100z"/><path fill="#617087" d="M200 200h100v100H200z"/><path fill="#54647a" d="M300 200h100v100H300z"/><path fill="#50647d" d="M400 200h100v100H400z"/><path fill="#5c6c84" d="M500 200h100v100H500z"/><path fill="#5b6b81" d="M600 200h100v100H600z"/><path fill="#384666" d="M700 200h100v100H700z"/><path fill="#1d2951" d="M0 300h100v100H0z"/><path fill="#465471" d="M100 300h100v100H100z"/><path fill="#5d6a80" d="M200 300h100v100H200z"/><path fill="#57647c" d="M300 300h100v100H300z"/><path fill="#59657c" d="M400 300h100v100H400z"/><path fill="#56637b" d="M500 300h100v100H500z"/><path fill="#485571" d="M600 300h100v100H600z"/><path fill="#222f58" d="M700 300h100v100H700z"/><path fill="#2d395e" d="M0 400h100v100H0z"/><path fill="#475472" d="M100 400h100v100H100z"/><path fill="#4e5b77" d="M200 400h100v100H200z"/><path fill="#485673" d="M300 400h100v100H300z"/><path fill="#4c5976" d="M400 400h100v100H400z"/><path fill="#475472" d="M500 400h100v100H500z"/><path fill="#485573" d="M600 400h100v100H600z"/><path fill="#384569" d="M700 400h100v100H700z"/></svg>