<svg xmlns="http://www.w3.org/2000/svg" viewBox="0 0 800 400"><defs/><path fill="#e69881" d="M0 0h100v100H0z"/><path fill="#b8817c" d="M100 0h100v100H100z"/><path fill="#e1c6ca" d="M200 0h100v100H200z"/><path fill="#f4d5db" d="M300 0h100v100H300z"/><path fill="#f6d4da" d="M400 0h100v100H400z"/><path fill="#fde2e7" d="M500 0h100v100H500z"/><path fill="#e4bdc0" d="M600 0h100v100H600z"/><path fill="#bfc5d7" d="M700 0h100v100H700z"/><path fill="#d48e7c" d="M0 100h100v100H0z"/><path fill="#ba878a" d="M100 100h100v100H100z"/><path fill="#e2b6bb" d="M200 100h100v100H200z"/><path fill="#d0b0b2" d="M300 100h100v100H300z"/><path fill="#e6a9ae" d="M400 100h100v100H400z"/><path fill="#eca3ab" d="M500 100h100v100H500z"/><path fill="#c19b97" d="M600 100h100v100H600z"/><path fill="#a9b5bf" d="M700 100h100v100H700z"/><path fill="#c78174" d="M0 200h100v100H0z"/><path fill="#b28f8c" d="M100 200h100v100H100z"/><path fill="#e1b3ae" d="M200 200h100v100H200z"/><path fill="#bfb6b2" d="M300 200h100v100H300z"/><path fill="#b47773" d="M400 200h100v100H400z"/><path fill="#934c50" d="M500 200h100v100H500z"/><path fill="#90817c" d="M600 200h100v100H600z"/><path fill="#b1babc" d="M700 200h100v100H700z"/><path fill="#bb8479" d="M0 300h100v100H0z"/><path fill="#c19b8a" d="M100 300h100v100H100z"/><path fill="#dcad93" d="M200 300h100v100H200z"/><path fill="#cdb1a0" d="M300 300h100v100H300z"/><path fill="#d2a688" d="M400 300h100v100H400z"/><path fill="#c2a08c" d="M500 300h100v100H500z"/><path fill="#d7b59f" d="M600 300h100v100H600z"/><path fill="#ddd1c9" d="M700 300h100v100H700z"/></svg>