<svg xmlns="http://www.w3.org/2000/svg" viewBox="0 0 800 600"><defs/><path fill="#d0d0be" d="M0 0h100v100H0z"/><path fill="#cac7ba" d="M100 0h100v100H100z"/><path fill="#ccc9ca" d="M200 0h100v100H200z"/><path fill="#d3d0ce" d="M300 0h100v100H300z"/><path fill="#d3d0d0" d="M400 0h100v100H400z"/><path fill="#cfcccb" d="M500 0h100v100H500z"/><path fill="#cdcbc7" d="M600 0h100v100H600z"/><path fill="#ceccc7" d="M700 0h100v100H700z"/><path fill="#c0be5e" d="M0 100h100v100H0z"/><path fill="#a3985a" d="M100 100h100v100H100z"/><path fill="#b9b4c0" d="M200 100h100v100H200z"/><path fill="#bdb6bb" d="M300 100h100v100H300z"/><path fill="#d3c9c9" d="M400 100h100v100H400z"/><path fill="#c3b9af" d="M500 100h100v100H500z"/><path fill="#a79c94" d="M600 100h100v100H600z"/><path fill="#c8c7c8" d="M700 100h100v100H700z"/><path fill="#b9b55a" d="M0 200h100v100H0z"/><path fill="#a18e5f" d="M100 200h100v100H100z"/><path fill="#b6aeb6" d="M200 200h100v100H200z"/><path fill="#8d8692" d="M300 200h100v100H300z"/><path fill="#b1b9bc" d="M400 200h100v100H400z"/><path fill="#908995" d="M500 200h100v100H500z"/><path fill="#886d5a" d="M600 200h100v100H600z"/><path fill="#c7c2be" d="M700 200h100v100H700z"/><path fill="#aba25b" d="M0 300h100v100H0z"/><path fill="#947f59" d="M100 300h100v100H100z"/><path fill="#ab9882" d="M200 300h100v100H200z"/><path fill="#989990" d="M300 300h100v100H300z"/><path fill="#8c9887" d="M400 300h100v100H400z"/><path fill="#928063" d="M500 300h100v100H500z"/><path fill="#8c7450" d="M600 300h100v100H600z"/><path fill="#9e9d98" d="M700 300h100v100H700z"/><path fill="#aca47d" d="M0 400h100v100H0z"/><path fill="#a69465" d="M100 400h100v100H100z"/><path fill="#c2b8a1" d="M200 400h100v100H200z"/><path fill="#cbc4be" d="M300 400h100v100H300z"/><path fill="#c0b39b" d="M400 400h100v100H400z"/><path fill="#c8ba81" d="M500 400h100v100H500z"/><path fill="#938b6f" d="M600 400h100v100H600z"/><path fill="#989389" d="M700 400h100v100H700z"/><path fill="#cfcdcb" d="M0 500h100v100H0z"/><path fill="#cfcfca" d="M100 500h100v100H100z"/><path fill="#cfcecb" d="M200 500h100v100H200z"/><path fill="#cdcbc7" d="M300 500h100v100H300z"/><path fill="#cdcbcb" d="M400 500h100v100H400z"/><path fill="#cbcacd" d="M500 500h100v100H500z"/><path fill="#cecdcc" d="M600 500h100v100H600z"/><path fill="#cbcac7" d="M700 500h100v100H700z"/></svg>