<svg xmlns="http://www.w3.org/2000/svg" viewBox="0 0 800 400"><defs/><path fill="#c3c0c3" d="M0 0h100v100H0z"/><path fill="#796869" d="M100 0h100v100H100z"/><path fill="#bebaba" d="M200 0h100v100H200z"/><path fill="#cbdbe4" d="M300 0h100v100H300z"/><path fill="#d1d8d3" d="M400 0h100v100H400z"/><path fill="#ccd3d2" d="M500 0h100v100H500z"/><path fill="#cccace" d="M600 0h100v100H600z"/><path fill="#b0a596" d="M700 0h100v100H700z"/><path fill="#aba4a7" d="M0 100h100v100H0z"/><path fill="#635354" d="M100 100h100v100H100z"/><path fill="#949180" d="M200 100h100v100H200z"/><path fill="#a8a7a4" d="M300 100h100v100H300z"/><path fill="#a1a4a7" d="M400 100h100v100H400z"/><path fill="#afb4bd" d="M500 100h100v100H500z"/><path fill="#bdb4b6" d="M600 100h100v100H600z"/><path fill="#b8ac9b" d="M700 100h100v100H700z"/><path fill="#968a8c" d="M0 200h100v100H0z"/><path fill="#705d5b" d="M100 200h100v100H100z"/><path fill="#bca391" d="M200 200h100v100H200z"/><path fill="#ba9b7a" d="M300 200h100v100H300z"/><path fill="#ab7c66" d="M400 200h100v100H400z"/><path fill="#c0a487" d="M500 200h100v100H500z"/><path fill="#b28a77" d="M600 200h100v100H600z"/><path fill="#765954" d="M700 200h100v100H700z"/><path fill="#8e7d7c" d="M0 300h100v100H0z"/><path fill="#a08378" d="M100 300h100v100H100z"/><path fill="#c49e91" d="M200 300h100v100H200z"/><path fill="#b78e70" d="M300 300h100v100H300z"/><path fill="#cb9771" d="M400 300h100v100H400z"/><path fill="#c2986e" d="M500 300h100v100H500z"/><path fill="#bf9b87" d="M600 300h100v100H600z"/><path fill="#785954" d="M700 300h100v100H700z"/></svg>