<svg xmlns="http://www.w3.org/2000/svg" viewBox="0 0 800 1100"><defs/><path fill="#9397a4" d="M0 0h100v100H0z"/><path fill="#8b8d96" d="M100 0h100v100H100z"/><path fill="#888890" d="M200 0h100v100H200z"/><path fill="#8f8f99" d="M300 0h100v100H300z"/><path fill="#8e8e99" d="M400 0h100v100H400z"/><path fill="#8e8f99" d="M500 0h100v100H500z"/><path fill="#979aa4" d="M600 0h100v100H600z"/><path fill="#919299" d="M700 0h100v100H700z"/><path fill="#9ea1b0" d="M0 100h100v100H0z"/><path fill="#a2a3b0" d="M100 100h100v100H100z"/><path fill="#9e9da8" d="M200 100h100v100H200z"/><path fill="#a7a7b3" d="M300 100h100v100H300z"/><path fill="#a0a0ad" d="M400 100h100v100H400z"/><path fill="#9f9fab" d="M500 100h100v100H500zm100 0h100v100H600z"/><path fill="#9a9aa2" d="M700 100h100v100H700z"/><path fill="#a6aab8" d="M0 200h100v100H0z"/><path fill="#a3a4b0" d="M100 200h100v100H100z"/><path fill="#a4a4af" d="M200 200h100v100H200z"/><path fill="#a6a6b2" d="M300 200h100v100H300z"/><path fill="#a8a8b5" d="M400 200h100v100H400z"/><path fill="#9c9ca8" d="M500 200h100v100H500zm100 0h100v100H600z"/><path fill="#9999a2" d="M700 200h100v100H700z"/><path fill="#a7aab6" d="M0 300h100v100H0z"/><path fill="#afafbb" d="M100 300h100v100H100z"/><path fill="#9a99a3" d="M200 300h100v100H200z"/><path fill="#aaa9b3" d="M300 300h100v100H300z"/><path fill="#ababb8" d="M400 300h100v100H400z"/><path fill="#a0a0ac" d="M500 300h100v100H500z"/><path fill="#a5a5b1" d="M600 300h100v100H600z"/><path fill="#9c9da8" d="M700 300h100v100H700z"/><path fill="#90919d" d="M0 400h100v100H0z"/><path fill="#9999a4" d="M100 400h100v100H100z"/><path fill="#86858d" d="M200 400h100v100H200z"/><path fill="#97969e" d="M300 400h100v100H300z"/><path fill="#92919b" d="M400 400h100v100H400z"/><path fill="#93939f" d="M500 400h100v100H500z"/><path fill="#a7a7b4" d="M600 400h100v100H600z"/><path fill="#8e8f98" d="M700 400h100v100H700z"/><path fill="#9a9ba7" d="M0 500h100v100H0z"/><path fill="#a1a1ad" d="M100 500h100v100H100z"/><path fill="#96959d" d="M200 500h100v100H200z"/><path fill="#97969d" d="M300 500h100v100H300z"/><path fill="#9999a1" d="M400 500h100v100H400z"/><path fill="#a4a4b0" d="M500 500h100v100H500z"/><path fill="#ababb7" d="M600 500h100v100H600z"/><path fill="#a1a0aa" d="M700 500h100v100H700z"/><path fill="#a2a4b0" d="M0 600h100v100H0z"/><path fill="#adadb9" d="M100 600h100v100H100z"/><path fill="#9796a0" d="M200 600h100v100H200z"/><path fill="#96959f" d="M300 600h100v100H300z"/><path fill="#9f9faa" d="M400 600h100v100H400z"/><path fill="#ababb7" d="M500 600h100v100H500z"/><path fill="#ababb8" d="M600 600h100v100H600z"/><path fill="#9c9ca6" d="M700 600h100v100H700z"/><path fill="#989ba7" d="M0 700h100v100H0z"/><path fill="#a0a1ae" d="M100 700h100v100H100z"/><path fill="#94949f" d="M200 700h100v100H200z"/><path fill="#9c9ba8" d="M300 700h100v100H300z"/><path fill="#a6a6b2" d="M400 700h100v100H400z"/><path fill="#a6a7b3" d="M500 700h100v100H500z"/><path fill="#adadba" d="M600 700h100v100H600z"/><path fill="#94939d" d="M700 700h100v100H700z"/><path fill="#8d909c" d="M0 800h100v100H0z"/><path fill="#9798a4" d="M100 800h100v100H100z"/><path fill="#82828e" d="M200 800h100v100H200z"/><path fill="#90919d" d="M300 800h100v100H300z"/><path fill="#9a9ba7" d="M400 800h100v100H400z"/><path fill="#9396a2" d="M500 800h100v100H500z"/><path fill="#9697a4" d="M600 800h100v100H600z"/><path fill="#81818b" d="M700 800h100v100H700z"/><path fill="#9699a8" d="M0 900h100v100H0z"/><path fill="#989aa8" d="M100 900h100v100H100z"/><path fill="#9295a1" d="M200 900h100v100H200z"/><path fill="#989aa7" d="M300 900h100v100H300z"/><path fill="#9a9ca9" d="M400 900h100v100H400z"/><path fill="#9598a6" d="M500 900h100v100H500z"/><path fill="#9498a4" d="M600 900h100v100H600z"/><path fill="#8a8d98" d="M700 900h100v100H700z"/><path fill="#9598a9" d="M0 1000h100v100H0z"/><path fill="#9092a1" d="M100 1000h100v100H100z"/><path fill="#9295a0" d="M200 1000h100v100H200z"/><path fill="#9ea1ae" d="M300 1000h100v100H300z"/><path fill="#9da1ae" d="M400 1000h100v100H400z"/><path fill="#9d9faf" d="M500 1000h100v100H500z"/><path fill="#9ea1b1" d="M600 1000h100v100H600z"/><path fill="#8e919d" d="M700 1000h100v100H700z"/></svg>