<svg xmlns="http://www.w3.org/2000/svg" viewBox="0 0 800 500"><defs/><path fill="#b8bdc4" d="M0 0h100v100H0z"/><path fill="#b5bac3" d="M100 0h100v100H100z"/><path fill="#c8cfd9" d="M200 0h100v100H200z"/><path fill="#c4c9d3" d="M300 0h100v100H300z"/><path fill="#b5b9c4" d="M400 0h100v100H400z"/><path fill="#b4b7c1" d="M500 0h100v100H500z"/><path fill="#c5c7ce" d="M600 0h100v100H600z"/><path fill="#c1c4c9" d="M700 0h100v100H700z"/><path fill="#afb3ba" d="M0 100h100v100H0z"/><path fill="#a1a6b0" d="M100 100h100v100H100z"/><path fill="#bac2cc" d="M200 100h100v100H200z"/><path fill="#c2c9d4" d="M300 100h100v100H300z"/><path fill="#b0b5c1" d="M400 100h100v100H400z"/><path fill="#a5aab4" d="M500 100h100v100H500z"/><path fill="#babec6" d="M600 100h100v100H600z"/><path fill="#bdc1c8" d="M700 100h100v100H700z"/><path fill="#adb1b8" d="M0 200h100v100H0z"/><path fill="#a5acb4" d="M100 200h100v100H100z"/><path fill="#a8b0ba" d="M200 200h100v100H200z"/><path fill="#b9bfca" d="M300 200h100v100H300z"/><path fill="#b7bdc7" d="M400 200h100v100H400z"/><path fill="#bec3ce" d="M500 200h100v100H500z"/><path fill="#afb3bd" d="M600 200h100v100H600z"/><path fill="#bec1c9" d="M700 200h100v100H700z"/><path fill="#abaeb4" d="M0 300h100v100H0z"/><path fill="#969ca4" d="M100 300h100v100H100z"/><path fill="#959ca4" d="M200 300h100v100H200z"/><path fill="#b3bbc4" d="M300 300h100v100H300z"/><path fill="#b3b8c3" d="M400 300h100v100H400z"/><path fill="#c3c7d0" d="M500 300h100v100H500z"/><path fill="#bbbfca" d="M600 300h100v100H600z"/><path fill="#babec5" d="M700 300h100v100H700z"/><path fill="#abaeb3" d="M0 400h100v100H0z"/><path fill="#abb0b8" d="M100 400h100v100H100z"/><path fill="#b6bac3" d="M200 400h100v100H200z"/><path fill="#c1c8d0" d="M300 400h100v100H300z"/><path fill="#bdc4cd" d="M400 400h100v100H400z"/><path fill="#c5c9d2" d="M500 400h100v100H500z"/><path fill="#c8cdd6" d="M600 400h100v100H600z"/><path fill="#cccfd8" d="M700 400h100v100H700z"/></svg>