<svg xmlns="http://www.w3.org/2000/svg" viewBox="0 0 800 1400"><defs/><path fill="#6e675b" d="M0 0h100v100H0z"/><path fill="#6e6657" d="M100 0h100v100H100z"/><path fill="#706759" d="M200 0h100v100H200z"/><path fill="#746b5b" d="M300 0h100v100H300z"/><path fill="#716959" d="M400 0h100v100H400z"/><path fill="#685f4f" d="M500 0h100v100H500z"/><path fill="#5a5244" d="M600 0h100v100H600z"/><path fill="#453e31" d="M700 0h100v100H700z"/><path fill="#807b70" d="M0 100h100v100H0z"/><path fill="#797064" d="M100 100h100v100H100z"/><path fill="#756c62" d="M200 100h100v100H200z"/><path fill="#776e64" d="M300 100h100v100H300z"/><path fill="#736b61" d="M400 100h100v100H400z"/><path fill="#736a5d" d="M500 100h100v100H500z"/><path fill="#736959" d="M600 100h100v100H600z"/><path fill="#615848" d="M700 100h100v100H700z"/><path fill="#959189" d="M0 200h100v100H0z"/><path fill="#969289" d="M100 200h100v100H100z"/><path fill="#847e75" d="M200 200h100v100H200z"/><path fill="#898379" d="M300 200h100v100H300z"/><path fill="#7b756b" d="M400 200h100v100H400z"/><path fill="#78716a" d="M500 200h100v100H500z"/><path fill="#726a61" d="M600 200h100v100H600z"/><path fill="#5d554b" d="M700 200h100v100H700z"/><path fill="#96938f" d="M0 300h100v100H0z"/><path fill="#a8a6a1" d="M100 300h100v100H100z"/><path fill="#8e8984" d="M200 300h100v100H200z"/><path fill="#958f83" d="M300 300h100v100H300z"/><path fill="#7a7968" d="M400 300h100v100H400z"/><path fill="#888478" d="M500 300h100v100H500z"/><path fill="#7e7b70" d="M600 300h100v100H600z"/><path fill="#6e685e" d="M700 300h100v100H700z"/><path fill="#978e8c" d="M0 400h100v100H0z"/><path fill="#aaa6a1" d="M100 400h100v100H100z"/><path fill="#acaba6" d="M200 400h100v100H200z"/><path fill="#aba69d" d="M300 400h100v100H300z"/><path fill="#a49d91" d="M400 400h100v100H400z"/><path fill="#9f9a8c" d="M500 400h100v100H500z"/><path fill="#878578" d="M600 400h100v100H600z"/><path fill="#79736a" d="M700 400h100v100H700z"/><path fill="#a6a19c" d="M0 500h100v100H0z"/><path fill="#afa7a4" d="M100 500h100v100H100z"/><path fill="#afadaa" d="M200 500h100v100H200z"/><path fill="#a3a198" d="M300 500h100v100H300z"/><path fill="#a19d8f" d="M400 500h100v100H400z"/><path fill="#98948e" d="M500 500h100v100H500z"/><path fill="#98938c" d="M600 500h100v100H600z"/><path fill="#918a7f" d="M700 500h100v100H700z"/><path fill="#a49290" d="M0 600h100v100H0z"/><path fill="#ad9696" d="M100 600h100v100H100z"/><path fill="#ad9495" d="M200 600h100v100H200z"/><path fill="#a1a293" d="M300 600h100v100H300z"/><path fill="#8b8f77" d="M400 600h100v100H400z"/><path fill="#86878b" d="M500 600h100v100H500z"/><path fill="#82838b" d="M600 600h100v100H600z"/><path fill="#9e978c" d="M700 600h100v100H700z"/><path fill="#a28383" d="M0 700h100v100H0z"/><path fill="#a89090" d="M100 700h100v100H100z"/><path fill="#a78084" d="M200 700h100v100H200z"/><path fill="#a7a098" d="M300 700h100v100H300z"/><path fill="#989d89" d="M400 700h100v100H400z"/><path fill="#989796" d="M500 700h100v100H500z"/><path fill="#81838c" d="M600 700h100v100H600z"/><path fill="#939088" d="M700 700h100v100H700z"/><path fill="#967778" d="M0 800h100v100H0z"/><path fill="#a99295" d="M100 800h100v100H100z"/><path fill="#a0848a" d="M200 800h100v100H200z"/><path fill="#999581" d="M300 800h100v100H300z"/><path fill="#91987e" d="M400 800h100v100H400z"/><path fill="#959597" d="M500 800h100v100H500z"/><path fill="#7e7f88" d="M600 800h100v100H600z"/><path fill="#949186" d="M700 800h100v100H700z"/><path fill="#8b6a6a" d="M0 900h100v100H0z"/><path fill="#9d979b" d="M100 900h100v100H100z"/><path fill="#9a9fa3" d="M200 900h100v100H200z"/><path fill="#919283" d="M300 900h100v100H300z"/><path fill="#8a8b77" d="M400 900h100v100H400z"/><path fill="#858487" d="M500 900h100v100H500z"/><path fill="#828185" d="M600 900h100v100H600z"/><path fill="#9a9386" d="M700 900h100v100H700z"/><path fill="#847874" d="M0 1000h100v100H0z"/><path fill="#9d9999" d="M100 1000h100v100H100z"/><path fill="#9b9a97" d="M200 1000h100v100H200z"/><path fill="#9f9c95" d="M300 1000h100v100H300z"/><path fill="#958f88" d="M400 1000h100v100H400z"/><path fill="#989188" d="M500 1000h100v100H500z"/><path fill="#857c73" d="M600 1000h100v100H600z"/><path fill="#7d756c" d="M700 1000h100v100H700z"/><path fill="#76746e" d="M0 1100h100v100H0z"/><path fill="#9c9993" d="M100 1100h100v100H100z"/><path fill="#95928d" d="M200 1100h100v100H200z"/><path fill="#908c87" d="M300 1100h100v100H300z"/><path fill="#89867e" d="M400 1100h100v100H400z"/><path fill="#908b80" d="M500 1100h100v100H500z"/><path fill="#6e635c" d="M600 1100h100v100H600z"/><path fill="#6c645b" d="M700 1100h100v100H700z"/><path fill="#65615d" d="M0 1200h100v100H0z"/><path fill="#8a8782" d="M100 1200h100v100H100z"/><path fill="#817b75" d="M200 1200h100v100H200z"/><path fill="#777169" d="M300 1200h100v100H300z"/><path fill="#72655d" d="M400 1200h100v100H400z"/><path fill="#776d66" d="M500 1200h100v100H500z"/><path fill="#797369" d="M600 1200h100v100H600z"/><path fill="#6f685c" d="M700 1200h100v100H700z"/><path fill="#504c46" d="M0 1300h100v100H0z"/><path fill="#6c6459" d="M100 1300h100v100H100z"/><path fill="#696054" d="M200 1300h100v100H200z"/><path fill="#666258" d="M300 1300h100v100H300z"/><path fill="#665753" d="M400 1300h100v100H400z"/><path fill="#685e56" d="M500 1300h100v100H500z"/><path fill="#6c675a" d="M600 1300h100v100H600z"/><path fill="#60584d" d="M700 1300h100v100H700z"/></svg>