<svg xmlns="http://www.w3.org/2000/svg" viewBox="0 0 800 600"><defs/><path fill="#dfcfd2" d="M0 0h100v100H0z"/><path fill="#ead8da" d="M100 0h100v100H100z"/><path fill="#e7d9d7" d="M200 0h100v100H200z"/><path fill="#e5d5d4" d="M300 0h100v100H300z"/><path fill="#dfd2d2" d="M400 0h100v100H400z"/><path fill="#d5c8c7" d="M500 0h100v100H500z"/><path fill="#d5cfcd" d="M600 0h100v100H600z"/><path fill="#d7d9d3" d="M700 0h100v100H700z"/><path fill="#ebdcdd" d="M0 100h100v100H0z"/><path fill="#f7e7e6" d="M100 100h100v100H100z"/><path fill="#e9dfd8" d="M200 100h100v100H200z"/><path fill="#e7dfdc" d="M300 100h100v100H300z"/><path fill="#f5f0ed" d="M400 100h100v100H400z"/><path fill="#ece4dc" d="M500 100h100v100H500z"/><path fill="#e2e3da" d="M600 100h100v100H600z"/><path fill="#eaeee9" d="M700 100h100v100H700z"/><path fill="#f0e9e7" d="M0 200h100v100H0z"/><path fill="#f3e1df" d="M100 200h100v100H100z"/><path fill="#eadcd7" d="M200 200h100v100H200z"/><path fill="#edebe8" d="M300 200h100v100H300z"/><path fill="#e6e5e1" d="M400 200h100v100H400z"/><path fill="#e3ded7" d="M500 200h100v100H500z"/><path fill="#d3d8ca" d="M600 200h100v100H600z"/><path fill="#d7e1da" d="M700 200h100v100H700z"/><path fill="#f0efeb" d="M0 300h100v100H0z"/><path fill="#e9e3df" d="M100 300h100v100H100z"/><path fill="#d0c7c2" d="M200 300h100v100H200z"/><path fill="#d9d0cc" d="M300 300h100v100H300z"/><path fill="#d4d1d1" d="M400 300h100v100H400z"/><path fill="#c3c5c5" d="M500 300h100v100H500z"/><path fill="#ccd4c9" d="M600 300h100v100H600z"/><path fill="#d9e2d9" d="M700 300h100v100H700z"/><path fill="#eaebe7" d="M0 400h100v100H0z"/><path fill="#e6e5e0" d="M100 400h100v100H100z"/><path fill="#dddbd7" d="M200 400h100v100H200z"/><path fill="#deddd9" d="M300 400h100v100H300z"/><path fill="#dfe0db" d="M400 400h100v100H400z"/><path fill="#d7ded8" d="M500 400h100v100H500z"/><path fill="#dde4dd" d="M600 400h100v100H600z"/><path fill="#dfe7de" d="M700 400h100v100H700z"/><path fill="#e0e4de" d="M0 500h100v100H0z"/><path fill="#e4e8e1" d="M100 500h100v100H100z"/><path fill="#e5eae3" d="M200 500h100v100H200z"/><path fill="#e3e7e2" d="M300 500h100v100H300z"/><path fill="#dde3dc" d="M400 500h100v100H400z"/><path fill="#cdd3cc" d="M500 500h100v100H500z"/><path fill="#c2c8c1" d="M600 500h100v100H600z"/><path fill="#b3bab2" d="M700 500h100v100H700z"/></svg>