<svg xmlns="http://www.w3.org/2000/svg" viewBox="0 0 800 600"><defs/><path fill="#abb6b0" d="M0 0h100v100H0z"/><path fill="#8ca39a" d="M100 0h100v100H100z"/><path fill="#8ea2af" d="M200 0h100v100H200z"/><path fill="#b3a6a6" d="M300 0h100v100H300z"/><path fill="#b18a84" d="M400 0h100v100H400z"/><path fill="#9da192" d="M500 0h100v100H500z"/><path fill="#93a796" d="M600 0h100v100H600z"/><path fill="#819477" d="M700 0h100v100H700z"/><path fill="#91a18d" d="M0 100h100v100H0z"/><path fill="#849d8a" d="M100 100h100v100H100z"/><path fill="#73a5bb" d="M200 100h100v100H200z"/><path fill="#a39280" d="M300 100h100v100H300z"/><path fill="#986e4e" d="M400 100h100v100H400z"/><path fill="#8d997c" d="M500 100h100v100H500z"/><path fill="#729e5c" d="M600 100h100v100H600z"/><path fill="#6b8d55" d="M700 100h100v100H700z"/><path fill="#7e8f79" d="M0 200h100v100H0z"/><path fill="#85a080" d="M100 200h100v100H100z"/><path fill="#849ca2" d="M200 200h100v100H200z"/><path fill="#9d937e" d="M300 200h100v100H300z"/><path fill="#9d8f74" d="M400 200h100v100H400z"/><path fill="#8b8960" d="M500 200h100v100H500z"/><path fill="#53880d" d="M600 200h100v100H600z"/><path fill="#6a8540" d="M700 200h100v100H700z"/><path fill="#8e9f8e" d="M0 300h100v100H0z"/><path fill="#a99e93" d="M100 300h100v100H100z"/><path fill="#d78b77" d="M200 300h100v100H200z"/><path fill="#af725e" d="M300 300h100v100H300z"/><path fill="#9c6b6c" d="M400 300h100v100H400z"/><path fill="#b19fa0" d="M500 300h100v100H500z"/><path fill="#9fa29a" d="M600 300h100v100H600z"/><path fill="#ab8f8f" d="M700 300h100v100H700z"/><path fill="#78797c" d="M0 400h100v100H0z"/><path fill="#564641" d="M100 400h100v100H100z"/><path fill="#5a473a" d="M200 400h100v100H200z"/><path fill="#6a3635" d="M300 400h100v100H300z"/><path fill="#ac757d" d="M400 400h100v100H400z"/><path fill="#a5b2b8" d="M500 400h100v100H500z"/><path fill="#a7abb4" d="M600 400h100v100H600z"/><path fill="#b1939b" d="M700 400h100v100H700z"/><path fill="#525551" d="M0 500h100v100H0z"/><path fill="#2b2f31" d="M100 500h100v100H100z"/><path fill="#313d42" d="M200 500h100v100H200z"/><path fill="#91666c" d="M300 500h100v100H300z"/><path fill="#be898e" d="M400 500h100v100H400z"/><path fill="#a6999e" d="M500 500h100v100H500z"/><path fill="#b29096" d="M600 500h100v100H600z"/><path fill="#b69498" d="M700 500h100v100H700z"/></svg>