<svg xmlns="http://www.w3.org/2000/svg" viewBox="0 0 800 1000"><defs/><path fill="#9ccbc6" d="M0 0h100v100H0z"/><path fill="#7cb3b0" d="M100 0h100v100H100z"/><path fill="#7db8b7" d="M200 0h100v100H200z"/><path fill="#78b6b2" d="M300 0h100v100H300z"/><path fill="#6ab7b1" d="M400 0h100v100H400z"/><path fill="#7abbb6" d="M500 0h100v100H500z"/><path fill="#80bab6" d="M600 0h100v100H600z"/><path fill="#70bbb7" d="M700 0h100v100H700z"/><path fill="#8cddd7" d="M0 100h100v100H0z"/><path fill="#7cd6ca" d="M100 100h100v100H100z"/><path fill="#9ad5c2" d="M200 100h100v100H200z"/><path fill="#7ed4c7" d="M300 100h100v100H300z"/><path fill="#5cccc4" d="M400 100h100v100H400z"/><path fill="#82d5ce" d="M500 100h100v100H500z"/><path fill="#79d1cc" d="M600 100h100v100H600z"/><path fill="#76cac5" d="M700 100h100v100H700z"/><path fill="#3cb3ad" d="M0 200h100v100H0z"/><path fill="#117667" d="M100 200h100v100H100z"/><path fill="#4d7856" d="M200 200h100v100H200z"/><path fill="#197e70" d="M300 200h100v100H300z"/><path fill="#009e95" d="M400 200h100v100H400z"/><path fill="#1bb4a7" d="M500 200h100v100H500z"/><path fill="#34b2a9" d="M600 200h100v100H600z"/><path fill="#05b2a5" d="M700 200h100v100H700z"/><path fill="#40b3ac" d="M0 300h100v100H0z"/><path fill="#00847e" d="M100 300h100v100H100z"/><path fill="#058a88" d="M200 300h100v100H200z"/><path fill="#1e766f" d="M300 300h100v100H300z"/><path fill="#20978e" d="M400 300h100v100H400z"/><path fill="#79beb9" d="M500 300h100v100H500z"/><path fill="#69a5a0" d="M600 300h100v100H600z"/><path fill="#279a91" d="M700 300h100v100H700z"/><path fill="#40c1b7" d="M0 400h100v100H0z"/><path fill="#00b5a6" d="M100 400h100v100H100z"/><path fill="#43ab97" d="M200 400h100v100H200z"/><path fill="#cf9773" d="M300 400h100v100H300z"/><path fill="#8c877a" d="M400 400h100v100H400z"/><path fill="#6f908c" d="M500 400h100v100H500z"/><path fill="#868079" d="M600 400h100v100H600z"/><path fill="#58867f" d="M700 400h100v100H700z"/><path fill="#40c2b7" d="M0 500h100v100H0z"/><path fill="#00b5a6" d="M100 500h100v100H100z"/><path fill="#628f7c" d="M200 500h100v100H200z"/><path fill="#d0896b" d="M300 500h100v100H300z"/><path fill="#957c70" d="M400 500h100v100H400z"/><path fill="#8a7572" d="M500 500h100v100H500z"/><path fill="#7b847e" d="M600 500h100v100H600z"/><path fill="#0ca79c" d="M700 500h100v100H700z"/><path fill="#4abbb3" d="M0 600h100v100H0z"/><path fill="#01aa9d" d="M100 600h100v100H100z"/><path fill="#279289" d="M200 600h100v100H200z"/><path fill="#60796c" d="M300 600h100v100H300z"/><path fill="#4f7972" d="M400 600h100v100H400z"/><path fill="#5f7672" d="M500 600h100v100H500z"/><path fill="#209f94" d="M600 600h100v100H600z"/><path fill="#00b5a7" d="M700 600h100v100H700z"/><path fill="#8abdbd" d="M0 700h100v100H0z"/><path fill="#93c0c5" d="M100 700h100v100H100z"/><path fill="#778278" d="M200 700h100v100H200z"/><path fill="#778273" d="M300 700h100v100H300z"/><path fill="#548b78" d="M400 700h100v100H400z"/><path fill="#4c817a" d="M500 700h100v100H500z"/><path fill="#309a90" d="M600 700h100v100H600z"/><path fill="#01b4a6" d="M700 700h100v100H700z"/><path fill="#72a39a" d="M0 800h100v100H0z"/><path fill="#706e61" d="M100 800h100v100H100z"/><path fill="#90867f" d="M200 800h100v100H200z"/><path fill="#53887d" d="M300 800h100v100H300z"/><path fill="#0c998a" d="M400 800h100v100H400z"/><path fill="#277f78" d="M500 800h100v100H500z"/><path fill="#308279" d="M600 800h100v100H600z"/><path fill="#00b1a3" d="M700 800h100v100H700z"/><path fill="#6fc8be" d="M0 900h100v100H0z"/><path fill="#479e91" d="M100 900h100v100H100z"/><path fill="#5aa5a1" d="M200 900h100v100H200z"/><path fill="#42bcb4" d="M300 900h100v100H300z"/><path fill="#35bcb3" d="M400 900h100v100H400z"/><path fill="#49aba3" d="M500 900h100v100H500z"/><path fill="#57a39d" d="M600 900h100v100H600z"/><path fill="#51b7b0" d="M700 900h100v100H700z"/></svg>