<svg xmlns="http://www.w3.org/2000/svg" viewBox="0 0 800 1100"><defs/><path fill="#cfceca" d="M0 0h100v100H0z"/><path fill="#d3d1cd" d="M100 0h100v100H100z"/><path fill="#dad8d3" d="M200 0h100v100H200z"/><path fill="#e1dfda" d="M300 0h100v100H300z"/><path fill="#e4e2dc" d="M400 0h100v100H400z"/><path fill="#dedad4" d="M500 0h100v100H500z"/><path fill="#e0dcd6" d="M600 0h100v100H600z"/><path fill="#dbd8d1" d="M700 0h100v100H700z"/><path fill="#dad9d4" d="M0 100h100v100H0z"/><path fill="#e7e6e1" d="M100 100h100v100H100z"/><path fill="#f6f5f4" d="M200 100h100v100H200z"/><path fill="#f0efee" d="M300 100h100v100H300z"/><path fill="#f2f1ef" d="M400 100h100v100H400z"/><path fill="#f2f1ee" d="M500 100h100v100H500z"/><path fill="#f2efe8" d="M600 100h100v100H600z"/><path fill="#e9e5de" d="M700 100h100v100H700z"/><path fill="#d0cec8" d="M0 200h100v100H0z"/><path fill="#cacac6" d="M100 200h100v100H100z"/><path fill="#e9e8e7" d="M200 200h100v100H200z"/><path fill="#d6d5d3" d="M300 200h100v100H300z"/><path fill="#dad8d6" d="M400 200h100v100H400z"/><path fill="#d0cfcc" d="M500 200h100v100H500z"/><path fill="#cccac4" d="M600 200h100v100H600z"/><path fill="#f7f2e9" d="M700 200h100v100H700z"/><path fill="#e2e0da" d="M0 300h100v100H0z"/><path fill="#c8c7c2" d="M100 300h100v100H100z"/><path fill="#d7d5d3" d="M200 300h100v100H200z"/><path fill="#d0cfcc" d="M300 300h100v100H300z"/><path fill="#d2d0cd" d="M400 300h100v100H400z"/><path fill="#ceccc9" d="M500 300h100v100H500z"/><path fill="#c7c4bf" d="M600 300h100v100H600z"/><path fill="#f3f0e6" d="M700 300h100v100H700z"/><path fill="#d2d1cd" d="M0 400h100v100H0z"/><path fill="#c7c6c2" d="M100 400h100v100H100z"/><path fill="#d6d5d2" d="M200 400h100v100H200z"/><path fill="#e1e0dd" d="M300 400h100v100H300z"/><path fill="#e6e4e2" d="M400 400h100v100H400z"/><path fill="#eae9e7" d="M500 400h100v100H500z"/><path fill="#cfccc5" d="M600 400h100v100H600z"/><path fill="#d3cfc4" d="M700 400h100v100H700z"/><path fill="#d4d3cd" d="M0 500h100v100H0z"/><path fill="#cccbc7" d="M100 500h100v100H100z"/><path fill="#dddcd9" d="M200 500h100v100H200z"/><path fill="#dcdbd9" d="M300 500h100v100H300z"/><path fill="#cdccc9" d="M400 500h100v100H400z"/><path fill="#ceccc9" d="M500 500h100v100H500z"/><path fill="#d4d2cd" d="M600 500h100v100H600z"/><path fill="#cfcac0" d="M700 500h100v100H700z"/><path fill="#e3e0da" d="M0 600h100v100H0z"/><path fill="#d0cdc6" d="M100 600h100v100H100z"/><path fill="#d0cfca" d="M200 600h100v100H200z"/><path fill="#d5d3d0" d="M300 600h100v100H300z"/><path fill="#cccbc7" d="M400 600h100v100H400z"/><path fill="#ceccc8" d="M500 600h100v100H500z"/><path fill="#c6c3b8" d="M600 600h100v100H600z"/><path fill="#f0e9dc" d="M700 600h100v100H700z"/><path fill="#e3dfd7" d="M0 700h100v100H0z"/><path fill="#cecbc3" d="M100 700h100v100H100z"/><path fill="#e0dfdb" d="M200 700h100v100H200z"/><path fill="#e3e2df" d="M300 700h100v100H300z"/><path fill="#eae8e4" d="M400 700h100v100H400z"/><path fill="#e6e4de" d="M500 700h100v100H500z"/><path fill="#d5d1c6" d="M600 700h100v100H600z"/><path fill="#efe8d9" d="M700 700h100v100H700z"/><path fill="#d8d4cd" d="M0 800h100v100H0z"/><path fill="#c2c0b8" d="M100 800h100v100H100z"/><path fill="#d1d0c8" d="M200 800h100v100H200z"/><path fill="#e2e1da" d="M300 800h100v100H300z"/><path fill="#d9d9d4" d="M400 800h100v100H400z"/><path fill="#ceccc3" d="M500 800h100v100H500z"/><path fill="#d9d5c9" d="M600 800h100v100H600z"/><path fill="#e1dbcd" d="M700 800h100v100H700z"/><path fill="#c8c5c1" d="M0 900h100v100H0z"/><path fill="#dcd7d2" d="M100 900h100v100H100z"/><path fill="#d5d1c9" d="M200 900h100v100H200z"/><path fill="#dbd7ce" d="M300 900h100v100H300z"/><path fill="#eae8de" d="M400 900h100v100H400z"/><path fill="#e5e1d8" d="M500 900h100v100H500z"/><path fill="#d4cec4" d="M600 900h100v100H600z"/><path fill="#d0cbbf" d="M700 900h100v100H700z"/><path fill="#aeadad" d="M0 1000h100v100H0z"/><path fill="#bcbab8" d="M100 1000h100v100H100z"/><path fill="#cac6c2" d="M200 1000h100v100H200z"/><path fill="#cecac4" d="M300 1000h100v100H300z"/><path fill="#d2cec7" d="M400 1000h100v100H400z"/><path fill="#ccc8bf" d="M500 1000h100v100H500z"/><path fill="#cec9c0" d="M600 1000h100v100H600z"/><path fill="#cac6bc" d="M700 1000h100v100H700z"/></svg>