<svg xmlns="http://www.w3.org/2000/svg" viewBox="0 0 800 600"><defs/><path fill="#d5c5a1" d="M0 0h100v100H0z"/><path fill="#cbbd9d" d="M100 0h100v100H100z"/><path fill="#b2b893" d="M200 0h100v100H200z"/><path fill="#a8ba8f" d="M300 0h100v100H300z"/><path fill="#aec094" d="M400 0h100v100H400z"/><path fill="#b8c59a" d="M500 0h100v100H500z"/><path fill="#cfbf9d" d="M600 0h100v100H600z"/><path fill="#d4c7a4" d="M700 0h100v100H700z"/><path fill="#d2c09e" d="M0 100h100v100H0z"/><path fill="#b2a990" d="M100 100h100v100H100z"/><path fill="#c6bb9d" d="M200 100h100v100H200z"/><path fill="#c5bb9d" d="M300 100h100v100H300z"/><path fill="#c2ba99" d="M400 100h100v100H400z"/><path fill="#c7bf9a" d="M500 100h100v100H500z"/><path fill="#bfb594" d="M600 100h100v100H600z"/><path fill="#cfc2a2" d="M700 100h100v100H700z"/><path fill="#d0be9e" d="M0 200h100v100H0z"/><path fill="#aba28f" d="M100 200h100v100H100z"/><path fill="#b7b29a" d="M200 200h100v100H200z"/><path fill="#ccbf9d" d="M300 200h100v100H300z"/><path fill="#d1c19f" d="M400 200h100v100H400z"/><path fill="#d3c59f" d="M500 200h100v100H500z"/><path fill="#d6c7a1" d="M600 200h100v100H600z"/><path fill="#d8caa7" d="M700 200h100v100H700z"/><path fill="#c1b296" d="M0 300h100v100H0z"/><path fill="#a09886" d="M100 300h100v100H100z"/><path fill="#b4a994" d="M200 300h100v100H200z"/><path fill="#bfb397" d="M300 300h100v100H300z"/><path fill="#c7b999" d="M400 300h100v100H400z"/><path fill="#cec19c" d="M500 300h100v100H500z"/><path fill="#cdbf9c" d="M600 300h100v100H600z"/><path fill="#ccbfa0" d="M700 300h100v100H700z"/><path fill="#a8a288" d="M0 400h100v100H0z"/><path fill="#97917e" d="M100 400h100v100H100z"/><path fill="#b4a389" d="M200 400h100v100H200z"/><path fill="#afa287" d="M300 400h100v100H300z"/><path fill="#baaf92" d="M400 400h100v100H400z"/><path fill="#c4b897" d="M500 400h100v100H500z"/><path fill="#c4b497" d="M600 400h100v100H600z"/><path fill="#c5b99a" d="M700 400h100v100H700z"/><path fill="#b7ae90" d="M0 500h100v100H0z"/><path fill="#a1a586" d="M100 500h100v100H100z"/><path fill="#a2a786" d="M200 500h100v100H200z"/><path fill="#a6a686" d="M300 500h100v100H300z"/><path fill="#adab8b" d="M400 500h100v100H400z"/><path fill="#b3b191" d="M500 500h100v100H500z"/><path fill="#a2a888" d="M600 500h100v100H600z"/><path fill="#bab695" d="M700 500h100v100H700z"/></svg>