<svg xmlns="http://www.w3.org/2000/svg" viewBox="0 0 800 600"><defs/><path fill="#bf928a" d="M0 0h100v100H0z"/><path fill="#bc9994" d="M100 0h100v100H100z"/><path fill="#be9b95" d="M200 0h100v100H200z"/><path fill="#c09d97" d="M300 0h100v100H300z"/><path fill="#c5a39a" d="M400 0h100v100H400z"/><path fill="#b29484" d="M500 0h100v100H500z"/><path fill="#a18475" d="M600 0h100v100H600z"/><path fill="#b0897c" d="M700 0h100v100H700z"/><path fill="#b1b4b9" d="M0 100h100v100H0z"/><path fill="#8dbdd2" d="M100 100h100v100H100z"/><path fill="#90bbce" d="M200 100h100v100H200z"/><path fill="#9bbfcf" d="M300 100h100v100H300z"/><path fill="#bad3dd" d="M400 100h100v100H400z"/><path fill="#a0c2b5" d="M500 100h100v100H500z"/><path fill="#5f735f" d="M600 100h100v100H600z"/><path fill="#765d4b" d="M700 100h100v100H700z"/><path fill="#b0b4ba" d="M0 200h100v100H0z"/><path fill="#88bcd1" d="M100 200h100v100H100z"/><path fill="#8bb9ca" d="M200 200h100v100H200z"/><path fill="#94bccd" d="M300 200h100v100H300z"/><path fill="#a2b4bd" d="M400 200h100v100H400z"/><path fill="#a5bbc8" d="M500 200h100v100H500z"/><path fill="#9a9c9c" d="M600 200h100v100H600z"/><path fill="#816057" d="M700 200h100v100H700z"/><path fill="#ababaf" d="M0 300h100v100H0z"/><path fill="#7da8b2" d="M100 300h100v100H100z"/><path fill="#8db6c6" d="M200 300h100v100H200z"/><path fill="#96b3c1" d="M300 300h100v100H300z"/><path fill="#b3a4a2" d="M400 300h100v100H400z"/><path fill="#b1b0b6" d="M500 300h100v100H500z"/><path fill="#ae8379" d="M600 300h100v100H600z"/><path fill="#6c534e" d="M700 300h100v100H700z"/><path fill="#b67f75" d="M0 400h100v100H0z"/><path fill="#b7887f" d="M100 400h100v100H100z"/><path fill="#c59a93" d="M200 400h100v100H200z"/><path fill="#c99f96" d="M300 400h100v100H300z"/><path fill="#b48b83" d="M400 400h100v100H400z"/><path fill="#d19f95" d="M500 400h100v100H500z"/><path fill="#c69084" d="M600 400h100v100H600z"/><path fill="#a8756c" d="M700 400h100v100H700z"/><path fill="#b67367" d="M0 500h100v100H0z"/><path fill="#c08174" d="M100 500h100v100H100z"/><path fill="#c98d80" d="M200 500h100v100H200z"/><path fill="#ce968a" d="M300 500h100v100H300z"/><path fill="#c48f84" d="M400 500h100v100H400z"/><path fill="#c99286" d="M500 500h100v100H500z"/><path fill="#c78c80" d="M600 500h100v100H600z"/><path fill="#bc796d" d="M700 500h100v100H700z"/></svg>