<svg xmlns="http://www.w3.org/2000/svg" viewBox="0 0 800 600"><defs/><path fill="#b2a7a4" d="M0 0h100v100H0z"/><path fill="#d1a67a" d="M100 0h100v100H100z"/><path fill="#a69472" d="M200 0h100v100H200z"/><path fill="#c9cd9c" d="M300 0h100v100H300z"/><path fill="#ced29a" d="M400 0h100v100H400z"/><path fill="#d4dda9" d="M500 0h100v100H500z"/><path fill="#b6c699" d="M600 0h100v100H600z"/><path fill="#48665d" d="M700 0h100v100H700z"/><path fill="#b49f88" d="M0 100h100v100H0z"/><path fill="#b1874e" d="M100 100h100v100H100z"/><path fill="#817455" d="M200 100h100v100H200z"/><path fill="#cec9a0" d="M300 100h100v100H300z"/><path fill="#a29d73" d="M400 100h100v100H400z"/><path fill="#cec988" d="M500 100h100v100H500z"/><path fill="#b1b672" d="M600 100h100v100H600z"/><path fill="#56645c" d="M700 100h100v100H700z"/><path fill="#9e9b81" d="M0 200h100v100H0z"/><path fill="#a0874f" d="M100 200h100v100H100z"/><path fill="#8e7e5d" d="M200 200h100v100H200z"/><path fill="#bcbb94" d="M300 200h100v100H300z"/><path fill="#a0aa9e" d="M400 200h100v100H400z"/><path fill="#7f9e78" d="M500 200h100v100H500z"/><path fill="#7dac81" d="M600 200h100v100H600z"/><path fill="#646b69" d="M700 200h100v100H700z"/><path fill="#9d8e6f" d="M0 300h100v100H0z"/><path fill="#a07f4a" d="M100 300h100v100H100z"/><path fill="#786f57" d="M200 300h100v100H200z"/><path fill="#6c796c" d="M300 300h100v100H300z"/><path fill="#a8a890" d="M400 300h100v100H400z"/><path fill="#97966e" d="M500 300h100v100H500z"/><path fill="#647f67" d="M600 300h100v100H600z"/><path fill="#6a7766" d="M700 300h100v100H700z"/><path fill="#8f8463" d="M0 400h100v100H0z"/><path fill="#7c763e" d="M100 400h100v100H100z"/><path fill="#635441" d="M200 400h100v100H200z"/><path fill="#486d6e" d="M300 400h100v100H300z"/><path fill="#718458" d="M400 400h100v100H400z"/><path fill="#727547" d="M500 400h100v100H500z"/><path fill="#6e9269" d="M600 400h100v100H600z"/><path fill="#54744b" d="M700 400h100v100H700z"/><path fill="#776962" d="M0 500h100v100H0z"/><path fill="#6d6646" d="M100 500h100v100H100z"/><path fill="#5f594c" d="M200 500h100v100H200z"/><path fill="#44555d" d="M300 500h100v100H300z"/><path fill="#334b45" d="M400 500h100v100H400z"/><path fill="#314b4d" d="M500 500h100v100H500z"/><path fill="#506863" d="M600 500h100v100H600z"/><path fill="#5d795e" d="M700 500h100v100H700z"/></svg>