<svg xmlns="http://www.w3.org/2000/svg" viewBox="0 0 800 500"><defs/><path fill="#706b68" d="M0 0h100v100H0z"/><path fill="#84766c" d="M100 0h100v100H100z"/><path fill="#8a7468" d="M200 0h100v100H200z"/><path fill="#82746b" d="M300 0h100v100H300z"/><path fill="#716251" d="M400 0h100v100H400z"/><path fill="#8f7858" d="M500 0h100v100H500z"/><path fill="#a3957d" d="M600 0h100v100H600z"/><path fill="#bfc3ce" d="M700 0h100v100H700z"/><path fill="#84797f" d="M0 100h100v100H0z"/><path fill="#907979" d="M100 100h100v100H100z"/><path fill="#8d7d78" d="M200 100h100v100H200z"/><path fill="#a08774" d="M300 100h100v100H300z"/><path fill="#9f8b71" d="M400 100h100v100H400z"/><path fill="#9a8463" d="M500 100h100v100H500z"/><path fill="#9c8c71" d="M600 100h100v100H600z"/><path fill="#b9bdc6" d="M700 100h100v100H700z"/><path fill="#99909b" d="M0 200h100v100H0z"/><path fill="#948994" d="M100 200h100v100H100z"/><path fill="#8f867e" d="M200 200h100v100H200z"/><path fill="#8c887d" d="M300 200h100v100H300z"/><path fill="#83848d" d="M400 200h100v100H400z"/><path fill="#9e9993" d="M500 200h100v100H500z"/><path fill="#938878" d="M600 200h100v100H600z"/><path fill="#b3b4b7" d="M700 200h100v100H700z"/><path fill="#8a7a80" d="M0 300h100v100H0z"/><path fill="#a79eae" d="M100 300h100v100H100z"/><path fill="#9b9997" d="M200 300h100v100H200z"/><path fill="#828487" d="M300 300h100v100H300z"/><path fill="#808fb2" d="M400 300h100v100H400z"/><path fill="#8b8f9b" d="M500 300h100v100H500z"/><path fill="#858489" d="M600 300h100v100H600z"/><path fill="#a6a3a3" d="M700 300h100v100H700z"/><path fill="#958c95" d="M0 400h100v100H0z"/><path fill="#9697ab" d="M100 400h100v100H100z"/><path fill="#a3a8b8" d="M200 400h100v100H200z"/><path fill="#a4a3ae" d="M300 400h100v100H300z"/><path fill="#9ba1b0" d="M400 400h100v100H400z"/><path fill="#8a919f" d="M500 400h100v100H500z"/><path fill="#6f6a6d" d="M600 400h100v100H600z"/><path fill="#888286" d="M700 400h100v100H700z"/></svg>