<svg xmlns="http://www.w3.org/2000/svg" viewBox="0 0 800 500"><defs/><path fill="#d7dbc5" d="M0 0h100v100H0z"/><path fill="#ced5c1" d="M100 0h100v100H100z"/><path fill="#e0d6b4" d="M200 0h100v100H200z"/><path fill="#ece3d1" d="M300 0h100v100H300z"/><path fill="#eae7e2" d="M400 0h100v100H400z"/><path fill="#eeebe7" d="M500 0h100v100H500z"/><path fill="#e9ebed" d="M600 0h100v100H600z"/><path fill="#e8e3c2" d="M700 0h100v100H700z"/><path fill="#a7b083" d="M0 100h100v100H0z"/><path fill="#929f70" d="M100 100h100v100H100z"/><path fill="#dabc53" d="M200 100h100v100H200z"/><path fill="#e3d3a9" d="M300 100h100v100H300z"/><path fill="#e2dcc5" d="M400 100h100v100H400z"/><path fill="#e1dac1" d="M500 100h100v100H500z"/><path fill="#adbdb1" d="M600 100h100v100H600z"/><path fill="#c7c294" d="M700 100h100v100H700z"/><path fill="#bcc4a1" d="M0 200h100v100H0z"/><path fill="#a8ad85" d="M100 200h100v100H100z"/><path fill="#ddcb74" d="M200 200h100v100H200z"/><path fill="#97a58d" d="M300 200h100v100H300z"/><path fill="#a1a797" d="M400 200h100v100H400z"/><path fill="#a09f83" d="M500 200h100v100H500z"/><path fill="#8d836e" d="M600 200h100v100H600z"/><path fill="#bcbc80" d="M700 200h100v100H700z"/><path fill="#a7b285" d="M0 300h100v100H0z"/><path fill="#b5a579" d="M100 300h100v100H100z"/><path fill="#d98a85" d="M200 300h100v100H200z"/><path fill="#9fa09d" d="M300 300h100v100H300z"/><path fill="#a7ac9e" d="M400 300h100v100H400z"/><path fill="#bab5a7" d="M500 300h100v100H500z"/><path fill="#ac8274" d="M600 300h100v100H600z"/><path fill="#afa468" d="M700 300h100v100H700z"/><path fill="#c3ccb7" d="M0 400h100v100H0z"/><path fill="#c8c5b0" d="M100 400h100v100H100z"/><path fill="#d4b1a9" d="M200 400h100v100H200z"/><path fill="#e7d6d4" d="M300 400h100v100H300z"/><path fill="#e5d9c9" d="M400 400h100v100H400z"/><path fill="#dde3e4" d="M500 400h100v100H500z"/><path fill="#d5d5cf" d="M600 400h100v100H600z"/><path fill="#cac2ac" d="M700 400h100v100H700z"/></svg>