<svg xmlns="http://www.w3.org/2000/svg" viewBox="0 0 800 600"><defs/><path fill="#cecdd6" d="M0 0h100v100H0z"/><path fill="#e1e2ee" d="M100 0h100v100H100z"/><path fill="#dfdce7" d="M200 0h100v100H200z"/><path fill="#c5c0cb" d="M300 0h100v100H300z"/><path fill="#bcb2b7" d="M400 0h100v100H400z"/><path fill="#d4bdad" d="M500 0h100v100H500z"/><path fill="#ba9e83" d="M600 0h100v100H600z"/><path fill="#a58768" d="M700 0h100v100H700z"/><path fill="#e3dddd" d="M0 100h100v100H0z"/><path fill="#ab8a67" d="M100 100h100v100H100z"/><path fill="#b29170" d="M200 100h100v100H200z"/><path fill="#ddb87c" d="M300 100h100v100H300z"/><path fill="#d8b276" d="M400 100h100v100H400z"/><path fill="#b99569" d="M500 100h100v100H500z"/><path fill="#998163" d="M600 100h100v100H600z"/><path fill="#a9998d" d="M700 100h100v100H700z"/><path fill="#ccbcb2" d="M0 200h100v100H0z"/><path fill="#7e4915" d="M100 200h100v100H100z"/><path fill="#7e5d3f" d="M200 200h100v100H200z"/><path fill="#b47d4a" d="M300 200h100v100H300z"/><path fill="#db903c" d="M400 200h100v100H400z"/><path fill="#aa8547" d="M500 200h100v100H500z"/><path fill="#937d54" d="M600 200h100v100H600z"/><path fill="#cab6a5" d="M700 200h100v100H700z"/><path fill="#9d7a55" d="M0 300h100v100H0z"/><path fill="#3f1a0a" d="M100 300h100v100H100z"/><path fill="#551f0f" d="M200 300h100v100H200z"/><path fill="#672323" d="M300 300h100v100H300z"/><path fill="#8a3e39" d="M400 300h100v100H400z"/><path fill="#9d5c40" d="M500 300h100v100H500z"/><path fill="#ad7949" d="M600 300h100v100H600z"/><path fill="#dac5ad" d="M700 300h100v100H700z"/><path fill="#7b6044" d="M0 400h100v100H0z"/><path fill="#533527" d="M100 400h100v100H100z"/><path fill="#5e392b" d="M200 400h100v100H200z"/><path fill="#69483d" d="M300 400h100v100H300z"/><path fill="#8e6e69" d="M400 400h100v100H400z"/><path fill="#ba9997" d="M500 400h100v100H500z"/><path fill="#bda6a6" d="M600 400h100v100H600z"/><path fill="#d4d2d7" d="M700 400h100v100H700z"/><path fill="#8e8381" d="M0 500h100v100H0z"/><path fill="#786152" d="M100 500h100v100H100z"/><path fill="#6a4f3d" d="M200 500h100v100H200z"/><path fill="#795f4d" d="M300 500h100v100H300z"/><path fill="#9c8771" d="M400 500h100v100H400z"/><path fill="#c2c2c6" d="M500 500h100v100H500z"/><path fill="#dce5f6" d="M600 500h100v100H600z"/><path fill="#e1e5f0" d="M700 500h100v100H700z"/></svg>