<svg xmlns="http://www.w3.org/2000/svg" viewBox="0 0 800 1000"><defs/><path fill="#b79a85" d="M0 0h100v100H0z"/><path fill="#b29782" d="M100 0h100v100H100z"/><path fill="#866d5a" d="M200 0h100v100H200z"/><path fill="#4e3b2e" d="M300 0h100v100H300z"/><path fill="#5d4a3c" d="M400 0h100v100H400z"/><path fill="#9b836e" d="M500 0h100v100H500z"/><path fill="#9f8873" d="M600 0h100v100H600z"/><path fill="#9c836e" d="M700 0h100v100H700z"/><path fill="#bea28a" d="M0 100h100v100H0z"/><path fill="#8c6e5a" d="M100 100h100v100H100z"/><path fill="#8d5d43" d="M200 100h100v100H200z"/><path fill="#8f5f44" d="M300 100h100v100H300z"/><path fill="#28160d" d="M400 100h100v100H400z"/><path fill="#4c3a2c" d="M500 100h100v100H500z"/><path fill="#a88c73" d="M600 100h100v100H600z"/><path fill="#b29780" d="M700 100h100v100H700z"/><path fill="#aa907c" d="M0 200h100v100H0z"/><path fill="#906751" d="M100 200h100v100H100z"/><path fill="#f7b592" d="M200 200h100v100H200z"/><path fill="#e09b75" d="M300 200h100v100H300z"/><path fill="#a46b48" d="M400 200h100v100H400z"/><path fill="#341f13" d="M500 200h100v100H500z"/><path fill="#715541" d="M600 200h100v100H600z"/><path fill="#967c67" d="M700 200h100v100H700z"/><path fill="#b19984" d="M0 300h100v100H0z"/><path fill="#9d7d6a" d="M100 300h100v100H100z"/><path fill="#daa386" d="M200 300h100v100H200z"/><path fill="#d29477" d="M300 300h100v100H300z"/><path fill="#e59d72" d="M400 300h100v100H400z"/><path fill="#905532" d="M500 300h100v100H500z"/><path fill="#573926" d="M600 300h100v100H600z"/><path fill="#7a6048" d="M700 300h100v100H700z"/><path fill="#b19b89" d="M0 400h100v100H0z"/><path fill="#9b8474" d="M100 400h100v100H100z"/><path fill="#b9836a" d="M200 400h100v100H200z"/><path fill="#fbbe9e" d="M300 400h100v100H300z"/><path fill="#f1ad86" d="M400 400h100v100H400z"/><path fill="#ac6940" d="M500 400h100v100H500z"/><path fill="#402518" d="M600 400h100v100H600z"/><path fill="#634733" d="M700 400h100v100H700z"/><path fill="#bfa89b" d="M0 500h100v100H0z"/><path fill="#b39a8f" d="M100 500h100v100H100z"/><path fill="#966b57" d="M200 500h100v100H200z"/><path fill="#e3997d" d="M300 500h100v100H300z"/><path fill="#f5ad89" d="M400 500h100v100H400z"/><path fill="#a96235" d="M500 500h100v100H500z"/><path fill="#552a11" d="M600 500h100v100H600z"/><path fill="#3e271c" d="M700 500h100v100H700z"/><path fill="#af9a95" d="M0 600h100v100H0z"/><path fill="#b09a93" d="M100 600h100v100H100z"/><path fill="#694739" d="M200 600h100v100H200z"/><path fill="#563427" d="M300 600h100v100H300z"/><path fill="#a76e50" d="M400 600h100v100H400z"/><path fill="#c9723a" d="M500 600h100v100H500z"/><path fill="#a85a26" d="M600 600h100v100H600z"/><path fill="#5d351d" d="M700 600h100v100H700z"/><path fill="#c2b3b6" d="M0 700h100v100H0z"/><path fill="#b6a2a3" d="M100 700h100v100H100z"/><path fill="#784e3b" d="M200 700h100v100H200z"/><path fill="#391c11" d="M300 700h100v100H300z"/><path fill="#9f613b" d="M400 700h100v100H400z"/><path fill="#ffb88e" d="M500 700h100v100H500z"/><path fill="#e99766" d="M600 700h100v100H600z"/><path fill="#a25a2c" d="M700 700h100v100H700z"/><path fill="#b1a3aa" d="M0 800h100v100H0z"/><path fill="#bea6a8" d="M100 800h100v100H100z"/><path fill="#b78172" d="M200 800h100v100H200z"/><path fill="#945635" d="M300 800h100v100H300z"/><path fill="#b06b41" d="M400 800h100v100H400z"/><path fill="#f0af88" d="M500 800h100v100H500z"/><path fill="#f4b592" d="M600 800h100v100H600z"/><path fill="#cd7949" d="M700 800h100v100H700z"/><path fill="#988585" d="M0 900h100v100H0z"/><path fill="#a18381" d="M100 900h100v100H100z"/><path fill="#724e4a" d="M200 900h100v100H200z"/><path fill="#774b3a" d="M300 900h100v100H300z"/><path fill="#965d40" d="M400 900h100v100H400z"/><path fill="#e59362" d="M500 900h100v100H500z"/><path fill="#f7be9f" d="M600 900h100v100H600z"/><path fill="#e28c62" d="M700 900h100v100H700z"/></svg>