<svg xmlns="http://www.w3.org/2000/svg" viewBox="0 0 800 500"><defs/><path fill="#efeb7d" d="M0 0h100v100H0z"/><path fill="#d5894e" d="M100 0h100v100H100z"/><path fill="#beab7b" d="M200 0h100v100H200z"/><path fill="#b5ad7a" d="M300 0h100v100H300z"/><path fill="#e7e67e" d="M400 0h100v100H400z"/><path fill="#e4e289" d="M500 0h100v100H500z"/><path fill="#eceb87" d="M600 0h100v100H600z"/><path fill="#f1f37f" d="M700 0h100v100H700z"/><path fill="#e2d675" d="M0 100h100v100H0z"/><path fill="#c78b54" d="M100 100h100v100H100z"/><path fill="#a5968e" d="M200 100h100v100H200z"/><path fill="#94868e" d="M300 100h100v100H300z"/><path fill="#cdc277" d="M400 100h100v100H400z"/><path fill="#bca98a" d="M500 100h100v100H500z"/><path fill="#d4d088" d="M600 100h100v100H600z"/><path fill="#dbd588" d="M700 100h100v100H700z"/><path fill="#dbb566" d="M0 200h100v100H0z"/><path fill="#cf8e55" d="M100 200h100v100H100z"/><path fill="#c2b689" d="M200 200h100v100H200z"/><path fill="#b59d83" d="M300 200h100v100H300z"/><path fill="#ced786" d="M400 200h100v100H400z"/><path fill="#769d8f" d="M500 200h100v100H500z"/><path fill="#68a280" d="M600 200h100v100H600z"/><path fill="#d8d882" d="M700 200h100v100H700z"/><path fill="#d0a262" d="M0 300h100v100H0z"/><path fill="#b4534e" d="M100 300h100v100H100z"/><path fill="#ac6c6b" d="M200 300h100v100H200z"/><path fill="#a35a65" d="M300 300h100v100H300z"/><path fill="#a67f8c" d="M400 300h100v100H400z"/><path fill="#928ea1" d="M500 300h100v100H500z"/><path fill="#726292" d="M600 300h100v100H600z"/><path fill="#d2be78" d="M700 300h100v100H700z"/><path fill="#c7765d" d="M0 400h100v100H0z"/><path fill="#ab545f" d="M100 400h100v100H100z"/><path fill="#9d767c" d="M200 400h100v100H200z"/><path fill="#9a6b77" d="M300 400h100v100H300z"/><path fill="#b85361" d="M400 400h100v100H400z"/><path fill="#c35b6a" d="M500 400h100v100H500z"/><path fill="#bd4f66" d="M600 400h100v100H600z"/><path fill="#c57264" d="M700 400h100v100H700z"/></svg>