<svg xmlns="http://www.w3.org/2000/svg" viewBox="0 0 800 400"><defs/><path fill="#472617" d="M0 0h100v100H0z"/><path fill="#311a0e" d="M100 0h100v100H100z"/><path fill="#5a3522" d="M200 0h100v100H200z"/><path fill="#704029" d="M300 0h100v100H300z"/><path fill="#77432a" d="M400 0h100v100H400z"/><path fill="#a56b48" d="M500 0h100v100H500z"/><path fill="#9b5c3d" d="M600 0h100v100H600z"/><path fill="#6b3723" d="M700 0h100v100H700z"/><path fill="#412415" d="M0 100h100v100H0z"/><path fill="#2f1a0e" d="M100 100h100v100H100z"/><path fill="#4f3422" d="M200 100h100v100H200z"/><path fill="#533320" d="M300 100h100v100H300z"/><path fill="#663c26" d="M400 100h100v100H400z"/><path fill="#b7814d" d="M500 100h100v100H500z"/><path fill="#ae7444" d="M600 100h100v100H600z"/><path fill="#714029" d="M700 100h100v100H700z"/><path fill="#311c10" d="M0 200h100v100H0z"/><path fill="#25140b" d="M100 200h100v100H100z"/><path fill="#361f13" d="M200 200h100v100H200z"/><path fill="#2a170b" d="M300 200h100v100H300z"/><path fill="#442716" d="M400 200h100v100H400z"/><path fill="#885731" d="M500 200h100v100H500z"/><path fill="#8e5d35" d="M600 200h100v100H600z"/><path fill="#4c2d1b" d="M700 200h100v100H700z"/><path fill="#2a170d" d="M0 300h100v100H0z"/><path fill="#2f1a0f" d="M100 300h100v100H100z"/><path fill="#3a2211" d="M200 300h100v100H200z"/><path fill="#68482c" d="M300 300h100v100H300z"/><path fill="#6a482d" d="M400 300h100v100H400z"/><path fill="#2e1e10" d="M500 300h100v100H500z"/><path fill="#4c331d" d="M600 300h100v100H600z"/><path fill="#29150b" d="M700 300h100v100H700z"/></svg>