<svg xmlns="http://www.w3.org/2000/svg" viewBox="0 0 800 600"><defs/><path fill="#f5eeec" d="M0 0h100v100H0z"/><path fill="#e5d7d2" d="M100 0h100v100H100z"/><path fill="#d3d3d3" d="M200 0h100v100H200z"/><path fill="#d5d0d1" d="M300 0h100v100H300z"/><path fill="#dcc7c5" d="M400 0h100v100H400z"/><path fill="#bbcfc5" d="M500 0h100v100H500z"/><path fill="#cacacf" d="M600 0h100v100H600z"/><path fill="#dec5c5" d="M700 0h100v100H700z"/><path fill="#c5afa1" d="M0 100h100v100H0z"/><path fill="#9f6147" d="M100 100h100v100H100z"/><path fill="#8c6b78" d="M200 100h100v100H200z"/><path fill="#886d7e" d="M300 100h100v100H300z"/><path fill="#9a7869" d="M400 100h100v100H400z"/><path fill="#45a355" d="M500 100h100v100H500z"/><path fill="#5f8e58" d="M600 100h100v100H600z"/><path fill="#a1967c" d="M700 100h100v100H700z"/><path fill="#bfa9aa" d="M0 200h100v100H0z"/><path fill="#9d6857" d="M100 200h100v100H100z"/><path fill="#a4728f" d="M200 200h100v100H200z"/><path fill="#a87e8a" d="M300 200h100v100H300z"/><path fill="#958173" d="M400 200h100v100H400z"/><path fill="#73884d" d="M500 200h100v100H500z"/><path fill="#597f53" d="M600 200h100v100H600z"/><path fill="#869b93" d="M700 200h100v100H700z"/><path fill="#c3ab8f" d="M0 300h100v100H0z"/><path fill="#925c51" d="M100 300h100v100H100z"/><path fill="#875d9c" d="M200 300h100v100H200z"/><path fill="#9a5d9b" d="M300 300h100v100H300z"/><path fill="#997299" d="M400 300h100v100H400z"/><path fill="#926a81" d="M500 300h100v100H500z"/><path fill="#9e6c7f" d="M600 300h100v100H600z"/><path fill="#968382" d="M700 300h100v100H700z"/><path fill="#b99787" d="M0 400h100v100H0z"/><path fill="#a2525f" d="M100 400h100v100H100z"/><path fill="#8b6e94" d="M200 400h100v100H200z"/><path fill="#836068" d="M300 400h100v100H300z"/><path fill="#a36b9a" d="M400 400h100v100H400z"/><path fill="#a57faa" d="M500 400h100v100H500z"/><path fill="#b66a98" d="M600 400h100v100H600z"/><path fill="#a2547e" d="M700 400h100v100H700z"/><path fill="#e5cbcf" d="M0 500h100v100H0z"/><path fill="#e9bdc9" d="M100 500h100v100H100z"/><path fill="#f0c5bd" d="M200 500h100v100H200z"/><path fill="#dad1b0" d="M300 500h100v100H300z"/><path fill="#d1c2c1" d="M400 500h100v100H400z"/><path fill="#dab1b6" d="M500 500h100v100H500z"/><path fill="#e0a88a" d="M600 500h100v100H600z"/><path fill="#e6a5a6" d="M700 500h100v100H700z"/></svg>