<svg xmlns="http://www.w3.org/2000/svg" viewBox="0 0 800 600"><defs/><path fill="#ccc9bc" d="M0 0h100v100H0z"/><path fill="#d4d1c7" d="M100 0h100v100H100z"/><path fill="#dbd8d1" d="M200 0h100v100H200z"/><path fill="#dedad4" d="M300 0h100v100H300z"/><path fill="#dad6d0" d="M400 0h100v100H400z"/><path fill="#d2cfc8" d="M500 0h100v100H500z"/><path fill="#cac8c1" d="M600 0h100v100H600z"/><path fill="#bcb9b1" d="M700 0h100v100H700z"/><path fill="#cfcabf" d="M0 100h100v100H0z"/><path fill="#bdb9a8" d="M100 100h100v100H100z"/><path fill="#ccc8be" d="M200 100h100v100H200z"/><path fill="#c3bfb5" d="M300 100h100v100H300z"/><path fill="#c6c2b9" d="M400 100h100v100H400z"/><path fill="#bbb6b2" d="M500 100h100v100H500z"/><path fill="#bbb7b1" d="M600 100h100v100H600z"/><path fill="#b4b1aa" d="M700 100h100v100H700z"/><path fill="#c5beb5" d="M0 200h100v100H0z"/><path fill="#bdb6ac" d="M100 200h100v100H100z"/><path fill="#bdb8ae" d="M200 200h100v100H200z"/><path fill="#a19c8f" d="M300 200h100v100H300z"/><path fill="#bab59c" d="M400 200h100v100H400z"/><path fill="#bbb6af" d="M500 200h100v100H500z"/><path fill="#b1aca7" d="M600 200h100v100H600z"/><path fill="#a9a49e" d="M700 200h100v100H700z"/><path fill="#b0a8a0" d="M0 300h100v100H0z"/><path fill="#a7a098" d="M100 300h100v100H100z"/><path fill="#a7a198" d="M200 300h100v100H200z"/><path fill="#8f8881" d="M300 300h100v100H300z"/><path fill="#b8b3a4" d="M400 300h100v100H400z"/><path fill="#a49f8a" d="M500 300h100v100H500z"/><path fill="#ada7a3" d="M600 300h100v100H600z"/><path fill="#a49e99" d="M700 300h100v100H700z"/><path fill="#a29b93" d="M0 400h100v100H0z"/><path fill="#aca59c" d="M100 400h100v100H100z"/><path fill="#888179" d="M200 400h100v100H200z"/><path fill="#7a756d" d="M300 400h100v100H300z"/><path fill="#b8b2a7" d="M400 400h100v100H400z"/><path fill="#a19a8d" d="M500 400h100v100H500z"/><path fill="#aca49d" d="M600 400h100v100H600z"/><path fill="#a69f98" d="M700 400h100v100H700z"/><path fill="#9e978e" d="M0 500h100v100H0z"/><path fill="#aca69b" d="M100 500h100v100H100z"/><path fill="#a29b91" d="M200 500h100v100H200z"/><path fill="#aba49b" d="M300 500h100v100H300z"/><path fill="#b1aaa0" d="M400 500h100v100H400z"/><path fill="#aea7a0" d="M500 500h100v100H500z"/><path fill="#a49c95" d="M600 500h100v100H600z"/><path fill="#968e87" d="M700 500h100v100H700z"/></svg>