<svg xmlns="http://www.w3.org/2000/svg" viewBox="0 0 800 600"><defs/><path fill="#f3eae6" d="M0 0h100v100H0z"/><path fill="#e2d1cb" d="M100 0h100v100H100z"/><path fill="#cccfce" d="M200 0h100v100H200z"/><path fill="#d3cbcb" d="M300 0h100v100H300z"/><path fill="#d9c5c0" d="M400 0h100v100H400z"/><path fill="#aecbbf" d="M500 0h100v100H500z"/><path fill="#d0c6cb" d="M600 0h100v100H600z"/><path fill="#d7beba" d="M700 0h100v100H700z"/><path fill="#c1a79a" d="M0 100h100v100H0z"/><path fill="#a1624d" d="M100 100h100v100H100z"/><path fill="#8a6d7f" d="M200 100h100v100H200z"/><path fill="#8e6b7e" d="M300 100h100v100H300z"/><path fill="#95806b" d="M400 100h100v100H400z"/><path fill="#41a456" d="M500 100h100v100H500z"/><path fill="#6b905e" d="M600 100h100v100H600z"/><path fill="#9f9482" d="M700 100h100v100H700z"/><path fill="#bda5a2" d="M0 200h100v100H0z"/><path fill="#9b685b" d="M100 200h100v100H100z"/><path fill="#a47490" d="M200 200h100v100H200z"/><path fill="#ad7e87" d="M300 200h100v100H300z"/><path fill="#8d7f6c" d="M400 200h100v100H400z"/><path fill="#76824d" d="M500 200h100v100H500z"/><path fill="#617a56" d="M600 200h100v100H600z"/><path fill="#8ca29e" d="M700 200h100v100H700z"/><path fill="#bca285" d="M0 300h100v100H0z"/><path fill="#905857" d="M100 300h100v100H100z"/><path fill="#7c59a0" d="M200 300h100v100H200z"/><path fill="#965a9e" d="M300 300h100v100H300z"/><path fill="#9871a4" d="M400 300h100v100H400z"/><path fill="#96698c" d="M500 300h100v100H500z"/><path fill="#a16886" d="M600 300h100v100H600z"/><path fill="#968586" d="M700 300h100v100H700z"/><path fill="#b69181" d="M0 400h100v100H0z"/><path fill="#a95768" d="M100 400h100v100H100z"/><path fill="#93718b" d="M200 400h100v100H200z"/><path fill="#886762" d="M300 400h100v100H300z"/><path fill="#ab7099" d="M400 400h100v100H400z"/><path fill="#a181a1" d="M500 400h100v100H500z"/><path fill="#bc6c92" d="M600 400h100v100H600z"/><path fill="#a15975" d="M700 400h100v100H700z"/><path fill="#ebd5da" d="M0 500h100v100H0z"/><path fill="#f1cfda" d="M100 500h100v100H100z"/><path fill="#f0d3cc" d="M200 500h100v100H200z"/><path fill="#dfdcc9" d="M300 500h100v100H300z"/><path fill="#dcced2" d="M400 500h100v100H400z"/><path fill="#e0b8bb" d="M500 500h100v100H500z"/><path fill="#e9b399" d="M600 500h100v100H600z"/><path fill="#e3acae" d="M700 500h100v100H700z"/></svg>