<svg xmlns="http://www.w3.org/2000/svg" viewBox="0 0 800 800"><defs/><path fill="#fff" d="M0 0h100v100H0zm100 0h100v100H100zm100 0h100v100H200zm100 0h100v100H300zm100 0h100v100H400zm100 0h100v100H500zm100 0h100v100H600zm100 0h100v100H700z"/><path fill="#f1e5e7" d="M0 100h100v100H0z"/><path fill="#efe5e9" d="M100 100h100v100H100z"/><path fill="#f6f5f8" d="M200 100h100v100H200z"/><path fill="#faf9fa" d="M300 100h100v100H300z"/><path fill="#faf6f8" d="M400 100h100v100H400z"/><path fill="#fbf4f6" d="M500 100h100v100H500z"/><path fill="#efeff3" d="M600 100h100v100H600z"/><path fill="#ebecf1" d="M700 100h100v100H700z"/><path fill="#ba9da5" d="M0 200h100v100H0z"/><path fill="#b38e9a" d="M100 200h100v100H100z"/><path fill="#ceb8bd" d="M200 200h100v100H200z"/><path fill="#c9abb0" d="M300 200h100v100H300z"/><path fill="#b6b7c2" d="M400 200h100v100H400z"/><path fill="#9c8da8" d="M500 200h100v100H500z"/><path fill="#ba7481" d="M600 200h100v100H600z"/><path fill="#9c6c83" d="M700 200h100v100H700z"/><path fill="#c28f94" d="M0 300h100v100H0z"/><path fill="#a796a6" d="M100 300h100v100H100z"/><path fill="#b0a6b1" d="M200 300h100v100H200z"/><path fill="#cdb1ae" d="M300 300h100v100H300z"/><path fill="#b3aab6" d="M400 300h100v100H400z"/><path fill="#9e8198" d="M500 300h100v100H500z"/><path fill="#b56473" d="M600 300h100v100H600z"/><path fill="#ac6071" d="M700 300h100v100H700z"/><path fill="#99606d" d="M0 400h100v100H0z"/><path fill="#5a5472" d="M100 400h100v100H100z"/><path fill="#b4a7be" d="M200 400h100v100H200z"/><path fill="#dbc8cc" d="M300 400h100v100H300z"/><path fill="#816b7b" d="M400 400h100v100H400z"/><path fill="#a590a7" d="M500 400h100v100H500z"/><path fill="#917996" d="M600 400h100v100H600z"/><path fill="#a26e84" d="M700 400h100v100H700z"/><path fill="#70556d" d="M0 500h100v100H0z"/><path fill="#78586f" d="M100 500h100v100H100z"/><path fill="#938ba7" d="M200 500h100v100H200z"/><path fill="#9494ab" d="M300 500h100v100H300z"/><path fill="#736f8b" d="M400 500h100v100H400z"/><path fill="#7e7a97" d="M500 500h100v100H500z"/><path fill="#776f8f" d="M600 500h100v100H600z"/><path fill="#8e718c" d="M700 500h100v100H700z"/><path fill="#eae3e7" d="M0 600h100v100H0z"/><path fill="#efe3e7" d="M100 600h100v100H100z"/><path fill="#d9dbe2" d="M200 600h100v100H200z"/><path fill="#d5dae1" d="M300 600h100v100H300z"/><path fill="#dbe0e6" d="M400 600h100v100H400z"/><path fill="#d9dce2" d="M500 600h100v100H500z"/><path fill="#dddbe1" d="M600 600h100v100H600z"/><path fill="#e8e1e5" d="M700 600h100v100H700z"/><path fill="#fff" d="M0 700h100v100H0zm100 0h100v100H100zm100 0h100v100H200zm100 0h100v100H300zm100 0h100v100H400zm100 0h100v100H500zm100 0h100v100H600zm100 0h100v100H700z"/></svg>