<svg xmlns="http://www.w3.org/2000/svg" viewBox="0 0 800 600"><defs/><path fill="#4f4f64" d="M0 0h100v100H0z"/><path fill="#101115" d="M100 0h100v100H100z"/><path fill="#201c2c" d="M200 0h100v100H200z"/><path fill="#353144" d="M300 0h100v100H300z"/><path fill="#2a273d" d="M400 0h100v100H400z"/><path fill="#202036" d="M500 0h100v100H500z"/><path fill="#202236" d="M600 0h100v100H600z"/><path fill="#232032" d="M700 0h100v100H700z"/><path fill="#222126" d="M0 100h100v100H0z"/><path fill="#0c0a18" d="M100 100h100v100H100z"/><path fill="#595168" d="M200 100h100v100H200z"/><path fill="#988c88" d="M300 100h100v100H300z"/><path fill="#979188" d="M400 100h100v100H400z"/><path fill="#978d84" d="M500 100h100v100H500z"/><path fill="#847771" d="M600 100h100v100H600z"/><path fill="#6d6864" d="M700 100h100v100H700z"/><path fill="#191719" d="M0 200h100v100H0z"/><path fill="#121225" d="M100 200h100v100H100z"/><path fill="#9f97a1" d="M200 200h100v100H200z"/><path fill="#988280" d="M300 200h100v100H300z"/><path fill="#bbafa4" d="M400 200h100v100H400z"/><path fill="#eaddcb" d="M500 200h100v100H500z"/><path fill="#c8c7ac" d="M600 200h100v100H600z"/><path fill="#dad0bb" d="M700 200h100v100H700z"/><path fill="#2e2427" d="M0 300h100v100H0z"/><path fill="#1b1b2a" d="M100 300h100v100H100z"/><path fill="#aca49f" d="M200 300h100v100H200z"/><path fill="#89858c" d="M300 300h100v100H300z"/><path fill="#878384" d="M400 300h100v100H400z"/><path fill="#f1ebda" d="M500 300h100v100H500z"/><path fill="#cbc7b8" d="M600 300h100v100H600z"/><path fill="#ded4c0" d="M700 300h100v100H700z"/><path fill="#332528" d="M0 400h100v100H0z"/><path fill="#2b2531" d="M100 400h100v100H100z"/><path fill="#201f2d" d="M200 400h100v100H200z"/><path fill="#252436" d="M300 400h100v100H300z"/><path fill="#393845" d="M400 400h100v100H400z"/><path fill="#a29e9b" d="M500 400h100v100H500z"/><path fill="#c6bfb4" d="M600 400h100v100H600z"/><path fill="#e8e1cd" d="M700 400h100v100H700z"/><path fill="#2d1e20" d="M0 500h100v100H0z"/><path fill="#1e191e" d="M100 500h100v100H100z"/><path fill="#05060a" d="M200 500h100v100H200z"/><path fill="#23202c" d="M300 500h100v100H300z"/><path fill="#262431" d="M400 500h100v100H400z"/><path fill="#191624" d="M500 500h100v100H500z"/><path fill="#26222f" d="M600 500h100v100H600z"/><path fill="#443f46" d="M700 500h100v100H700z"/></svg>