<svg xmlns="http://www.w3.org/2000/svg" viewBox="0 0 800 600"><defs/><path fill="#89756a" d="M0 0h100v100H0z"/><path fill="#917d73" d="M100 0h100v100H100z"/><path fill="#958076" d="M200 0h100v100H200z"/><path fill="#988379" d="M300 0h100v100H300z"/><path fill="#9b877c" d="M400 0h100v100H400z"/><path fill="#9c897f" d="M500 0h100v100H500z"/><path fill="#9d8b82" d="M600 0h100v100H600z"/><path fill="#9a877e" d="M700 0h100v100H700z"/><path fill="#a19690" d="M0 100h100v100H0z"/><path fill="#9f948e" d="M100 100h100v100H100z"/><path fill="#ada19a" d="M200 100h100v100H200z"/><path fill="#b0a39c" d="M300 100h100v100H300z"/><path fill="#ac9e98" d="M400 100h100v100H400z"/><path fill="#ab9c96" d="M500 100h100v100H500z"/><path fill="#a89a93" d="M600 100h100v100H600z"/><path fill="#ad9f98" d="M700 100h100v100H700z"/><path fill="#8d827a" d="M0 200h100v100H0z"/><path fill="#8c817b" d="M100 200h100v100H100z"/><path fill="#9e918a" d="M200 200h100v100H200z"/><path fill="#a79991" d="M300 200h100v100H300z"/><path fill="#9b8d86" d="M400 200h100v100H400z"/><path fill="#968881" d="M500 200h100v100H500z"/><path fill="#93877f" d="M600 200h100v100H600z"/><path fill="#9f918a" d="M700 200h100v100H700z"/><path fill="#a1948c" d="M0 300h100v100H0z"/><path fill="#998d84" d="M100 300h100v100H100z"/><path fill="#9e918a" d="M200 300h100v100H200z"/><path fill="#a1938c" d="M300 300h100v100H300z"/><path fill="#8e817a" d="M400 300h100v100H400z"/><path fill="#847872" d="M500 300h100v100H500z"/><path fill="#8b7f79" d="M600 300h100v100H600z"/><path fill="#988a82" d="M700 300h100v100H700z"/><path fill="#a89991" d="M0 400h100v100H0z"/><path fill="#9c8e86" d="M100 400h100v100H100z"/><path fill="#9c8f88" d="M200 400h100v100H200z"/><path fill="#9b8d86" d="M300 400h100v100H300z"/><path fill="#93857e" d="M400 400h100v100H400z"/><path fill="#8f817a" d="M500 400h100v100H500z"/><path fill="#91827b" d="M600 400h100v100H600z"/><path fill="#988a82" d="M700 400h100v100H700z"/><path fill="#a4968e" d="M0 500h100v100H0z"/><path fill="#a59790" d="M100 500h100v100H100z"/><path fill="#a3958e" d="M200 500h100v100H200z"/><path fill="#998a82" d="M300 500h100v100H300z"/><path fill="#92837c" d="M400 500h100v100H400z"/><path fill="#8e7f78" d="M500 500h100v100H500z"/><path fill="#8f8078" d="M600 500h100v100H600z"/><path fill="#94857c" d="M700 500h100v100H700z"/></svg>