<svg xmlns="http://www.w3.org/2000/svg" viewBox="0 0 800 500"><defs/><path fill="#665c92" d="M0 0h100v100H0z"/><path fill="#4c3866" d="M100 0h100v100H100z"/><path fill="#463e7c" d="M200 0h100v100H200z"/><path fill="#2e2a72" d="M300 0h100v100H300z"/><path fill="#685b83" d="M400 0h100v100H400z"/><path fill="#817191" d="M500 0h100v100H500z"/><path fill="#6a6093" d="M600 0h100v100H600z"/><path fill="#6f6493" d="M700 0h100v100H700z"/><path fill="#5f5388" d="M0 100h100v100H0z"/><path fill="#4f3c6b" d="M100 100h100v100H100z"/><path fill="#4d4785" d="M200 100h100v100H200z"/><path fill="#2d296f" d="M300 100h100v100H300z"/><path fill="#625787" d="M400 100h100v100H400z"/><path fill="#716695" d="M500 100h100v100H500z"/><path fill="#635b95" d="M600 100h100v100H600z"/><path fill="#6e6394" d="M700 100h100v100H700z"/><path fill="#56487a" d="M0 200h100v100H0z"/><path fill="#493565" d="M100 200h100v100H100z"/><path fill="#584b80" d="M200 200h100v100H200z"/><path fill="#4e4277" d="M300 200h100v100H300z"/><path fill="#574b80" d="M400 200h100v100H400z"/><path fill="#55477c" d="M500 200h100v100H500z"/><path fill="#524174" d="M600 200h100v100H600z"/><path fill="#685b8c" d="M700 200h100v100H700z"/><path fill="#503d6e" d="M0 300h100v100H0z"/><path fill="#372051" d="M100 300h100v100H100z"/><path fill="#4a2e52" d="M200 300h100v100H200z"/><path fill="#513250" d="M300 300h100v100H300z"/><path fill="#3c2354" d="M400 300h100v100H400z"/><path fill="#3e2755" d="M500 300h100v100H500z"/><path fill="#392250" d="M600 300h100v100H600z"/><path fill="#4e3d6f" d="M700 300h100v100H700z"/><path fill="#3f2959" d="M0 400h100v100H0z"/><path fill="#3b2655" d="M100 400h100v100H100z"/><path fill="#4c2453" d="M200 400h100v100H200z"/><path fill="#532050" d="M300 400h100v100H300z"/><path fill="#501f50" d="M400 400h100v100H400z"/><path fill="#4e204f" d="M500 400h100v100H500z"/><path fill="#491f4f" d="M600 400h100v100H600z"/><path fill="#3f2958" d="M700 400h100v100H700z"/></svg>