<svg xmlns="http://www.w3.org/2000/svg" viewBox="0 0 800 400"><defs/><path fill="#b4d6e2" d="M0 0h100v100H0z"/><path fill="#b8b2ad" d="M100 0h100v100H100z"/><path fill="#7f746e" d="M200 0h100v100H200z"/><path fill="#91bfcd" d="M300 0h100v100H300z"/><path fill="#8eb1bd" d="M400 0h100v100H400z"/><path fill="#80949b" d="M500 0h100v100H500z"/><path fill="#77878e" d="M600 0h100v100H600z"/><path fill="#d0e0e7" d="M700 0h100v100H700z"/><path fill="#a3afb1" d="M0 100h100v100H0z"/><path fill="#9f7e6f" d="M100 100h100v100H100z"/><path fill="#737676" d="M200 100h100v100H200z"/><path fill="#65828b" d="M300 100h100v100H300z"/><path fill="#768b8f" d="M400 100h100v100H400z"/><path fill="#588391" d="M500 100h100v100H500z"/><path fill="#6d98a1" d="M600 100h100v100H600z"/><path fill="#bacedb" d="M700 100h100v100H700z"/><path fill="#889da1" d="M0 200h100v100H0z"/><path fill="#a3745e" d="M100 200h100v100H100z"/><path fill="#838a8b" d="M200 200h100v100H200z"/><path fill="#2f3f44" d="M300 200h100v100H300z"/><path fill="#70797a" d="M400 200h100v100H400z"/><path fill="#899ea5" d="M500 200h100v100H500z"/><path fill="#617377" d="M600 200h100v100H600z"/><path fill="#56646b" d="M700 200h100v100H700z"/><path fill="#756d6a" d="M0 300h100v100H0z"/><path fill="#7a635a" d="M100 300h100v100H100z"/><path fill="#7e6d65" d="M200 300h100v100H200z"/><path fill="#6b6d6d" d="M300 300h100v100H300z"/><path fill="#8c8b8d" d="M400 300h100v100H400z"/><path fill="#8f7b71" d="M500 300h100v100H500z"/><path fill="#9a928a" d="M600 300h100v100H600z"/><path fill="#91a7ab" d="M700 300h100v100H700z"/></svg>