<svg xmlns="http://www.w3.org/2000/svg" viewBox="0 0 800 500"><defs/><path fill="#f1f3f6" d="M0 0h100v100H0z"/><path fill="#e6ebf1" d="M100 0h100v100H100z"/><path fill="#e4eaf1" d="M200 0h100v100H200z"/><path fill="#e4e7ec" d="M300 0h100v100H300z"/><path fill="#dee3e9" d="M400 0h100v100H400z"/><path fill="#e8e9ed" d="M500 0h100v100H500z"/><path fill="#e1e4e7" d="M600 0h100v100H600z"/><path fill="#e4e8eb" d="M700 0h100v100H700z"/><path fill="#a1adbb" d="M0 100h100v100H0z"/><path fill="#637995" d="M100 100h100v100H100z"/><path fill="#708dad" d="M200 100h100v100H200z"/><path fill="#486381" d="M300 100h100v100H300z"/><path fill="#5b7997" d="M400 100h100v100H400z"/><path fill="#8096ab" d="M500 100h100v100H500z"/><path fill="#768fa4" d="M600 100h100v100H600z"/><path fill="#9aa8b4" d="M700 100h100v100H700z"/><path fill="#aab6c4" d="M0 200h100v100H0z"/><path fill="#778ca1" d="M100 200h100v100H100z"/><path fill="#768495" d="M200 200h100v100H200z"/><path fill="#546477" d="M300 200h100v100H300z"/><path fill="#8196a3" d="M400 200h100v100H400z"/><path fill="#8d9fa8" d="M500 200h100v100H500z"/><path fill="#8ea3ac" d="M600 200h100v100H600z"/><path fill="#afbcc4" d="M700 200h100v100H700z"/><path fill="#99a7b6" d="M0 300h100v100H0z"/><path fill="#415a78" d="M100 300h100v100H100z"/><path fill="#7c8b9a" d="M200 300h100v100H200z"/><path fill="#7e8a96" d="M300 300h100v100H300z"/><path fill="#7d8b94" d="M400 300h100v100H400z"/><path fill="#85979f" d="M500 300h100v100H500z"/><path fill="#95a4aa" d="M600 300h100v100H600z"/><path fill="#a6b5c0" d="M700 300h100v100H700z"/><path fill="#c5c9cf" d="M0 400h100v100H0z"/><path fill="#9099a6" d="M100 400h100v100H100z"/><path fill="#b3c0cc" d="M200 400h100v100H200z"/><path fill="#b7c2cc" d="M300 400h100v100H300z"/><path fill="#b2bdc6" d="M400 400h100v100H400z"/><path fill="#c1cad1" d="M500 400h100v100H500z"/><path fill="#bdc5cb" d="M600 400h100v100H600z"/><path fill="#b8c1c9" d="M700 400h100v100H700z"/></svg>