<svg xmlns="http://www.w3.org/2000/svg" viewBox="0 0 800 400"><defs/><path fill="#74515a" d="M0 0h100v100H0z"/><path fill="#7b5b5f" d="M100 0h100v100H100z"/><path fill="#544c51" d="M200 0h100v100H200z"/><path fill="#2e313c" d="M300 0h100v100H300z"/><path fill="#232735" d="M400 0h100v100H400z"/><path fill="#2e2d3c" d="M500 0h100v100H500z"/><path fill="#383041" d="M600 0h100v100H600z"/><path fill="#3e3643" d="M700 0h100v100H700z"/><path fill="#544152" d="M0 100h100v100H0z"/><path fill="#604954" d="M100 100h100v100H100z"/><path fill="#343644" d="M200 100h100v100H200z"/><path fill="#333341" d="M300 100h100v100H300z"/><path fill="#423a42" d="M400 100h100v100H400z"/><path fill="#363342" d="M500 100h100v100H500z"/><path fill="#403644" d="M600 100h100v100H600z"/><path fill="#443541" d="M700 100h100v100H700z"/><path fill="#393248" d="M0 200h100v100H0z"/><path fill="#7d5150" d="M100 200h100v100H100z"/><path fill="#734a46" d="M200 200h100v100H200z"/><path fill="#4b3c48" d="M300 200h100v100H300z"/><path fill="#7b5952" d="M400 200h100v100H400z"/><path fill="#40363f" d="M500 200h100v100H500z"/><path fill="#3d323e" d="M600 200h100v100H600z"/><path fill="#38303c" d="M700 200h100v100H700z"/><path fill="#373043" d="M0 300h100v100H0z"/><path fill="#704647" d="M100 300h100v100H100z"/><path fill="#834a42" d="M200 300h100v100H200z"/><path fill="#453640" d="M300 300h100v100H300z"/><path fill="#3e3441" d="M400 300h100v100H400z"/><path fill="#3b313d" d="M500 300h100v100H500z"/><path fill="#3f343f" d="M600 300h100v100H600z"/><path fill="#39323e" d="M700 300h100v100H700z"/></svg>