<svg xmlns="http://www.w3.org/2000/svg" viewBox="0 0 800 500"><defs/><path fill="#7a756a" d="M0 0h100v100H0z"/><path fill="#81817b" d="M100 0h100v100H100z"/><path fill="#7a696f" d="M200 0h100v100H200z"/><path fill="#796871" d="M300 0h100v100H300z"/><path fill="#9e8a8f" d="M400 0h100v100H400z"/><path fill="#8a787e" d="M500 0h100v100H500z"/><path fill="#82776e" d="M600 0h100v100H600z"/><path fill="#8e8377" d="M700 0h100v100H700z"/><path fill="#4e4333" d="M0 100h100v100H0z"/><path fill="#484536" d="M100 100h100v100H100z"/><path fill="#645846" d="M200 100h100v100H200z"/><path fill="#625451" d="M300 100h100v100H300z"/><path fill="#77686c" d="M400 100h100v100H400z"/><path fill="#615d56" d="M500 100h100v100H500z"/><path fill="#534e34" d="M600 100h100v100H600z"/><path fill="#523f36" d="M700 100h100v100H700z"/><path fill="#605444" d="M0 200h100v100H0z"/><path fill="#574a35" d="M100 200h100v100H100z"/><path fill="#5a573a" d="M200 200h100v100H200z"/><path fill="#736051" d="M300 200h100v100H300z"/><path fill="#716244" d="M400 200h100v100H400z"/><path fill="#73594f" d="M500 200h100v100H500z"/><path fill="#66484c" d="M600 200h100v100H600z"/><path fill="#534047" d="M700 200h100v100H700z"/><path fill="#52432d" d="M0 300h100v100H0z"/><path fill="#2a1d08" d="M100 300h100v100H100z"/><path fill="#623f22" d="M200 300h100v100H200z"/><path fill="#634932" d="M300 300h100v100H300z"/><path fill="#642f27" d="M400 300h100v100H400z"/><path fill="#5c1b2b" d="M500 300h100v100H500z"/><path fill="#421b1e" d="M600 300h100v100H600z"/><path fill="#3b3e25" d="M700 300h100v100H700z"/><path fill="#978e7c" d="M0 400h100v100H0z"/><path fill="#8a8474" d="M100 400h100v100H100z"/><path fill="#9f9084" d="M200 400h100v100H200z"/><path fill="#9f8c70" d="M300 400h100v100H300z"/><path fill="#857b71" d="M400 400h100v100H400z"/><path fill="#5e4c4d" d="M500 400h100v100H500z"/><path fill="#85756f" d="M600 400h100v100H600z"/><path fill="#6f7c5a" d="M700 400h100v100H700z"/></svg>