<svg xmlns="http://www.w3.org/2000/svg" viewBox="0 0 800 400"><defs/><path fill="#dab69d" d="M0 0h100v100H0z"/><path fill="#af8b79" d="M100 0h100v100H100z"/><path fill="#cba38d" d="M200 0h100v100H200z"/><path fill="#c69f89" d="M300 0h100v100H300z"/><path fill="#a48e7d" d="M400 0h100v100H400z"/><path fill="#b49d8b" d="M500 0h100v100H500z"/><path fill="#cda38e" d="M600 0h100v100H600z"/><path fill="#d1b6a6" d="M700 0h100v100H700z"/><path fill="#c6997c" d="M0 100h100v100H0z"/><path fill="#a17b68" d="M100 100h100v100H100z"/><path fill="#a1826b" d="M200 100h100v100H200z"/><path fill="#ac917d" d="M300 100h100v100H300z"/><path fill="#ab8d7b" d="M400 100h100v100H400z"/><path fill="#b89785" d="M500 100h100v100H500z"/><path fill="#b9a08e" d="M600 100h100v100H600z"/><path fill="#c5b7ac" d="M700 100h100v100H700z"/><path fill="#b69785" d="M0 200h100v100H0z"/><path fill="#8a6959" d="M100 200h100v100H100z"/><path fill="#a87f61" d="M200 200h100v100H200z"/><path fill="#aa8162" d="M300 200h100v100H300z"/><path fill="#a98b71" d="M400 200h100v100H400z"/><path fill="#ab9a84" d="M500 200h100v100H500z"/><path fill="#b0947f" d="M600 200h100v100H600z"/><path fill="#9f8471" d="M700 200h100v100H700z"/><path fill="#a0806f" d="M0 300h100v100H0z"/><path fill="#8f6050" d="M100 300h100v100H100z"/><path fill="#ab725b" d="M200 300h100v100H200z"/><path fill="#ad765c" d="M300 300h100v100H300z"/><path fill="#b57b63" d="M400 300h100v100H400z"/><path fill="#be907c" d="M500 300h100v100H500z"/><path fill="#a57a66" d="M600 300h100v100H600z"/><path fill="#766354" d="M700 300h100v100H700z"/></svg>