<svg xmlns="http://www.w3.org/2000/svg" viewBox="0 0 800 500"><defs/><path fill="#90a4a9" d="M0 0h100v100H0z"/><path fill="#919181" d="M100 0h100v100H100z"/><path fill="#81a0ab" d="M200 0h100v100H200z"/><path fill="#799fae" d="M300 0h100v100H300z"/><path fill="#8aaab6" d="M400 0h100v100H400z"/><path fill="#a3bec9" d="M500 0h100v100H500z"/><path fill="#89abb8" d="M600 0h100v100H600z"/><path fill="#77949f" d="M700 0h100v100H700z"/><path fill="#667c80" d="M0 100h100v100H0z"/><path fill="#5f614c" d="M100 100h100v100H100z"/><path fill="#4d7c87" d="M200 100h100v100H200z"/><path fill="#3f788d" d="M300 100h100v100H300z"/><path fill="#6c9296" d="M400 100h100v100H400z"/><path fill="#b0c7b9" d="M500 100h100v100H500z"/><path fill="#588a9c" d="M600 100h100v100H600z"/><path fill="#356071" d="M700 100h100v100H700z"/><path fill="#7d8985" d="M0 200h100v100H0z"/><path fill="#656b5c" d="M100 200h100v100H100z"/><path fill="#466477" d="M200 200h100v100H200z"/><path fill="#3b5a63" d="M300 200h100v100H300z"/><path fill="#6a8786" d="M400 200h100v100H400z"/><path fill="#9cb0b2" d="M500 200h100v100H500z"/><path fill="#617f90" d="M600 200h100v100H600z"/><path fill="#416a7b" d="M700 200h100v100H700z"/><path fill="#777f75" d="M0 300h100v100H0z"/><path fill="#8e8465" d="M100 300h100v100H100z"/><path fill="#a49f7e" d="M200 300h100v100H200z"/><path fill="#ada05c" d="M300 300h100v100H300z"/><path fill="#d2c880" d="M400 300h100v100H400z"/><path fill="#a1aeab" d="M500 300h100v100H500z"/><path fill="#8b895c" d="M600 300h100v100H600z"/><path fill="#6e8585" d="M700 300h100v100H700z"/><path fill="#b4b5a8" d="M0 400h100v100H0z"/><path fill="#d4c8ad" d="M100 400h100v100H100z"/><path fill="#f0e6c5" d="M200 400h100v100H200z"/><path fill="#eee6cb" d="M300 400h100v100H300z"/><path fill="#e1dfd6" d="M400 400h100v100H400z"/><path fill="#dde0dd" d="M500 400h100v100H500z"/><path fill="#efe9c5" d="M600 400h100v100H600z"/><path fill="#d2d0bf" d="M700 400h100v100H700z"/></svg>