<svg xmlns="http://www.w3.org/2000/svg" viewBox="0 0 800 600"><defs/><path fill="#f2f3f2" d="M0 0h100v100H0z"/><path fill="#e9e7e6" d="M100 0h100v100H100z"/><path fill="#f1f1f1" d="M200 0h100v100H200z"/><path fill="#f6f5f3" d="M300 0h100v100H300z"/><path fill="#f7f5f4" d="M400 0h100v100H400z"/><path fill="#f7f5f9" d="M500 0h100v100H500z"/><path fill="#f3f3f1" d="M600 0h100v100H600z"/><path fill="#f6f6f4" d="M700 0h100v100H700z"/><path fill="#cad4d4" d="M0 100h100v100H0z"/><path fill="#aea7a3" d="M100 100h100v100H100z"/><path fill="#b1b6b4" d="M200 100h100v100H200z"/><path fill="#9db4bd" d="M300 100h100v100H300z"/><path fill="#aec9c5" d="M400 100h100v100H400z"/><path fill="#acc3a6" d="M500 100h100v100H500z"/><path fill="#d3d6d9" d="M600 100h100v100H600z"/><path fill="#b5b1af" d="M700 100h100v100H700z"/><path fill="#b2b9b3" d="M0 200h100v100H0z"/><path fill="#aaa69f" d="M100 200h100v100H100z"/><path fill="#abb0a9" d="M200 200h100v100H200z"/><path fill="#849eab" d="M300 200h100v100H300z"/><path fill="#b5c4be" d="M400 200h100v100H400z"/><path fill="#afbda4" d="M500 200h100v100H500z"/><path fill="#d8dadc" d="M600 200h100v100H600z"/><path fill="#b4b4b0" d="M700 200h100v100H700z"/><path fill="#c2c4c2" d="M0 300h100v100H0z"/><path fill="#989390" d="M100 300h100v100H100z"/><path fill="#908e86" d="M200 300h100v100H200z"/><path fill="#80817d" d="M300 300h100v100H300z"/><path fill="#b3b4b2" d="M400 300h100v100H400z"/><path fill="#b8bdbf" d="M500 300h100v100H500z"/><path fill="#b7b5af" d="M600 300h100v100H600z"/><path fill="#888480" d="M700 300h100v100H700z"/><path fill="#c2bfbb" d="M0 400h100v100H0z"/><path fill="#988e7e" d="M100 400h100v100H100z"/><path fill="#827d71" d="M200 400h100v100H200z"/><path fill="#787b7b" d="M300 400h100v100H300z"/><path fill="#757674" d="M400 400h100v100H400z"/><path fill="#7c8582" d="M500 400h100v100H500z"/><path fill="#aea794" d="M600 400h100v100H600z"/><path fill="#938a89" d="M700 400h100v100H700z"/><path fill="#f2ede8" d="M0 500h100v100H0z"/><path fill="#f3efe7" d="M100 500h100v100H100z"/><path fill="#eceae6" d="M200 500h100v100H200z"/><path fill="#eae9e4" d="M300 500h100v100H300z"/><path fill="#e7e5e2" d="M400 500h100v100H400z"/><path fill="#e6e6e3" d="M500 500h100v100H500z"/><path fill="#efece7" d="M600 500h100v100H600z"/><path fill="#ede9e5" d="M700 500h100v100H700z"/></svg>