<svg xmlns="http://www.w3.org/2000/svg" viewBox="0 0 800 400"><defs/><path fill="#373534" d="M0 0h100v100H0z"/><path fill="#7d6f54" d="M100 0h100v100H100z"/><path fill="#acae9e" d="M200 0h100v100H200z"/><path fill="#c0afaa" d="M300 0h100v100H300z"/><path fill="#afaea6" d="M400 0h100v100H400z"/><path fill="#b6b1ab" d="M500 0h100v100H500z"/><path fill="#999491" d="M600 0h100v100H600z"/><path fill="#565554" d="M700 0h100v100H700z"/><path fill="#3b3d33" d="M0 100h100v100H0z"/><path fill="#8b7f65" d="M100 100h100v100H100z"/><path fill="#bdb5a6" d="M200 100h100v100H200z"/><path fill="#aba39f" d="M300 100h100v100H300z"/><path fill="#baabab" d="M400 100h100v100H400z"/><path fill="#c0b1a6" d="M500 100h100v100H500z"/><path fill="#94968e" d="M600 100h100v100H600z"/><path fill="#585654" d="M700 100h100v100H700z"/><path fill="#423524" d="M0 200h100v100H0z"/><path fill="#76716a" d="M100 200h100v100H100z"/><path fill="#97a0ad" d="M200 200h100v100H200z"/><path fill="#979799" d="M300 200h100v100H300z"/><path fill="#99909d" d="M400 200h100v100H400z"/><path fill="#a09ba9" d="M500 200h100v100H500z"/><path fill="#817a84" d="M600 200h100v100H600z"/><path fill="#4b4a4d" d="M700 200h100v100H700z"/><path fill="#414144" d="M0 300h100v100H0z"/><path fill="#776961" d="M100 300h100v100H100z"/><path fill="#6d858a" d="M200 300h100v100H200z"/><path fill="#6c8389" d="M300 300h100v100H300z"/><path fill="#aa7c60" d="M400 300h100v100H400z"/><path fill="#5f8a9c" d="M500 300h100v100H500z"/><path fill="#8e7d70" d="M600 300h100v100H600z"/><path fill="#6f5646" d="M700 300h100v100H700z"/></svg>