<svg xmlns="http://www.w3.org/2000/svg" viewBox="0 0 800 500"><defs/><path fill="#fcecd1" d="M0 0h100v100H0z"/><path fill="#f3dab5" d="M100 0h100v100H100z"/><path fill="#ebe5da" d="M200 0h100v100H200z"/><path fill="#f5f1e8" d="M300 0h100v100H300z"/><path fill="#efd8bb" d="M400 0h100v100H400z"/><path fill="#e4c7a2" d="M500 0h100v100H500z"/><path fill="#f9e0c1" d="M600 0h100v100H600z"/><path fill="#f0e3c3" d="M700 0h100v100H700z"/><path fill="#fbdeb1" d="M0 100h100v100H0z"/><path fill="#eebf7e" d="M100 100h100v100H100z"/><path fill="#eed3aa" d="M200 100h100v100H200z"/><path fill="#dec2a6" d="M300 100h100v100H300z"/><path fill="#bab78f" d="M400 100h100v100H400z"/><path fill="#b09155" d="M500 100h100v100H500z"/><path fill="#d9af68" d="M600 100h100v100H600z"/><path fill="#96af47" d="M700 100h100v100H700z"/><path fill="#fae0b9" d="M0 200h100v100H0z"/><path fill="#e2bc7c" d="M100 200h100v100H100z"/><path fill="#ebc17e" d="M200 200h100v100H200z"/><path fill="#ba9467" d="M300 200h100v100H300z"/><path fill="#be8a4b" d="M400 200h100v100H400z"/><path fill="#bc9c71" d="M500 200h100v100H500z"/><path fill="#aeb9a3" d="M600 200h100v100H600z"/><path fill="#a8a869" d="M700 200h100v100H700z"/><path fill="#f8c792" d="M0 300h100v100H0z"/><path fill="#c59d4c" d="M100 300h100v100H100z"/><path fill="#b58f4e" d="M200 300h100v100H200z"/><path fill="#cea16c" d="M300 300h100v100H300z"/><path fill="#d19354" d="M400 300h100v100H400z"/><path fill="#d5b388" d="M500 300h100v100H500z"/><path fill="#c99e68" d="M600 300h100v100H600z"/><path fill="#c59660" d="M700 300h100v100H700z"/><path fill="#f6d2aa" d="M0 400h100v100H0z"/><path fill="#edbe8a" d="M100 400h100v100H100z"/><path fill="#e4bd97" d="M200 400h100v100H200z"/><path fill="#eccda8" d="M300 400h100v100H300z"/><path fill="#e7d9c7" d="M400 400h100v100H400z"/><path fill="#e8d1b4" d="M500 400h100v100H500z"/><path fill="#d1a36e" d="M600 400h100v100H600z"/><path fill="#e5b987" d="M700 400h100v100H700z"/></svg>