<svg xmlns="http://www.w3.org/2000/svg" viewBox="0 0 800 600"><defs/><path fill="#bbb9b2" d="M0 0h100v100H0z"/><path fill="#bcb9b0" d="M100 0h100v100H100z"/><path fill="#c1c4c1" d="M200 0h100v100H200z"/><path fill="#c3c6c4" d="M300 0h100v100H300z"/><path fill="#c5c9c7" d="M400 0h100v100H400z"/><path fill="#c9cccb" d="M500 0h100v100H500z"/><path fill="#cccbc9" d="M600 0h100v100H600z"/><path fill="#c9c9c4" d="M700 0h100v100H700z"/><path fill="#aea187" d="M0 100h100v100H0z"/><path fill="#ab9c78" d="M100 100h100v100H100z"/><path fill="#b99f99" d="M200 100h100v100H200z"/><path fill="#bba29c" d="M300 100h100v100H300z"/><path fill="#c3a9aa" d="M400 100h100v100H400z"/><path fill="#bf9a97" d="M500 100h100v100H500z"/><path fill="#c4b1b0" d="M600 100h100v100H600z"/><path fill="#c4bdc0" d="M700 100h100v100H700z"/><path fill="#a79874" d="M0 200h100v100H0z"/><path fill="#ada085" d="M100 200h100v100H100z"/><path fill="#b39995" d="M200 200h100v100H200z"/><path fill="#a67c76" d="M300 200h100v100H300z"/><path fill="#b58688" d="M400 200h100v100H400z"/><path fill="#d3b5b8" d="M500 200h100v100H500z"/><path fill="#c2b4b3" d="M600 200h100v100H600z"/><path fill="#afa6af" d="M700 200h100v100H700z"/><path fill="#998458" d="M0 300h100v100H0z"/><path fill="#a29886" d="M100 300h100v100H100z"/><path fill="#a6a4a8" d="M200 300h100v100H200z"/><path fill="#9e9b9f" d="M300 300h100v100H300z"/><path fill="#b5b3c0" d="M400 300h100v100H400z"/><path fill="#c1bbb8" d="M500 300h100v100H500z"/><path fill="#beaea1" d="M600 300h100v100H600z"/><path fill="#ad9e9d" d="M700 300h100v100H700z"/><path fill="#847545" d="M0 400h100v100H0z"/><path fill="#94948e" d="M100 400h100v100H100z"/><path fill="#898790" d="M200 400h100v100H200z"/><path fill="#777672" d="M300 400h100v100H300z"/><path fill="#9c9a9d" d="M400 400h100v100H400z"/><path fill="#aaa6a7" d="M500 400h100v100H500z"/><path fill="#c1bec5" d="M600 400h100v100H600z"/><path fill="#c5beb9" d="M700 400h100v100H700z"/><path fill="#85857c" d="M0 500h100v100H0z"/><path fill="#929191" d="M100 500h100v100H100z"/><path fill="#959694" d="M200 500h100v100H200z"/><path fill="#999c99" d="M300 500h100v100H300z"/><path fill="#b8bab8" d="M400 500h100v100H400z"/><path fill="#d5d8da" d="M500 500h100v100H500z"/><path fill="#d7dadd" d="M600 500h100v100H600z"/><path fill="#bec0c0" d="M700 500h100v100H700z"/></svg>