<svg xmlns="http://www.w3.org/2000/svg" viewBox="0 0 800 400"><defs/><path fill="#2b150e" d="M0 0h100v100H0z"/><path fill="#442313" d="M100 0h100v100H100z"/><path fill="#3d2011" d="M200 0h100v100H200z"/><path fill="#6e4b2b" d="M300 0h100v100H300z"/><path fill="#896239" d="M400 0h100v100H400z"/><path fill="#522f1b" d="M500 0h100v100H500z"/><path fill="#361c10" d="M600 0h100v100H600z"/><path fill="#2b170f" d="M700 0h100v100H700z"/><path fill="#351e15" d="M0 100h100v100H0z"/><path fill="#452312" d="M100 100h100v100H100z"/><path fill="#4b2b17" d="M200 100h100v100H200z"/><path fill="#b39d6c" d="M300 100h100v100H300z"/><path fill="#d7be7a" d="M400 100h100v100H400z"/><path fill="#7f5e3c" d="M500 100h100v100H500z"/><path fill="#3d1f12" d="M600 100h100v100H600z"/><path fill="#341c11" d="M700 100h100v100H700z"/><path fill="#31190f" d="M0 200h100v100H0z"/><path fill="#452514" d="M100 200h100v100H100z"/><path fill="#301a10" d="M200 200h100v100H200z"/><path fill="#664c2e" d="M300 200h100v100H300z"/><path fill="#d4b167" d="M400 200h100v100H400z"/><path fill="#8f6c48" d="M500 200h100v100H500z"/><path fill="#714e33" d="M600 200h100v100H600z"/><path fill="#5e3c25" d="M700 200h100v100H700z"/><path fill="#27120b" d="M0 300h100v100H0z"/><path fill="#432212" d="M100 300h100v100H100z"/><path fill="#341b10" d="M200 300h100v100H200z"/><path fill="#593c2c" d="M300 300h100v100H300z"/><path fill="#96765c" d="M400 300h100v100H400z"/><path fill="#604a36" d="M500 300h100v100H500z"/><path fill="#6d482b" d="M600 300h100v100H600z"/><path fill="#694026" d="M700 300h100v100H700z"/></svg>