<svg xmlns="http://www.w3.org/2000/svg" viewBox="0 0 800 600"><defs/><path fill="#a6d3dc" d="M0 0h100v100H0z"/><path fill="#b09077" d="M100 0h100v100H100z"/><path fill="#9bbfc0" d="M200 0h100v100H200z"/><path fill="#95cedd" d="M300 0h100v100H300z"/><path fill="#8bc7d9" d="M400 0h100v100H400z"/><path fill="#8fccd6" d="M500 0h100v100H500z"/><path fill="#94bfcc" d="M600 0h100v100H600z"/><path fill="#97cad7" d="M700 0h100v100H700z"/><path fill="#96b6c1" d="M0 100h100v100H0z"/><path fill="#a17a5a" d="M100 100h100v100H100z"/><path fill="#86acb1" d="M200 100h100v100H200z"/><path fill="#76bccf" d="M300 100h100v100H300z"/><path fill="#7da8bd" d="M400 100h100v100H400z"/><path fill="#86b6b2" d="M500 100h100v100H500z"/><path fill="#8cbcc6" d="M600 100h100v100H600z"/><path fill="#769c9f" d="M700 100h100v100H700z"/><path fill="#abaf9c" d="M0 200h100v100H0z"/><path fill="#c27a4a" d="M100 200h100v100H100z"/><path fill="#9e9185" d="M200 200h100v100H200z"/><path fill="#98a593" d="M300 200h100v100H300z"/><path fill="#b3a48c" d="M400 200h100v100H400z"/><path fill="#abaf8e" d="M500 200h100v100H500z"/><path fill="#9aa58a" d="M600 200h100v100H600z"/><path fill="#836f6c" d="M700 200h100v100H700z"/><path fill="#bda892" d="M0 300h100v100H0z"/><path fill="#c28855" d="M100 300h100v100H100z"/><path fill="#8a7c6b" d="M200 300h100v100H200z"/><path fill="#8e806a" d="M300 300h100v100H300z"/><path fill="#afab81" d="M400 300h100v100H400z"/><path fill="#b2a676" d="M500 300h100v100H500z"/><path fill="#b2a27f" d="M600 300h100v100H600z"/><path fill="#888a90" d="M700 300h100v100H700z"/><path fill="#cca48e" d="M0 400h100v100H0z"/><path fill="#bd8b76" d="M100 400h100v100H100z"/><path fill="#b4aeb3" d="M200 400h100v100H200z"/><path fill="#878f97" d="M300 400h100v100H300z"/><path fill="#a5a8aa" d="M400 400h100v100H400z"/><path fill="#a59898" d="M500 400h100v100H500z"/><path fill="#a4878f" d="M600 400h100v100H600z"/><path fill="#a5916f" d="M700 400h100v100H700z"/><path fill="#cbc7c5" d="M0 500h100v100H0z"/><path fill="#b6a7a5" d="M100 500h100v100H100z"/><path fill="#afb3c4" d="M200 500h100v100H200z"/><path fill="#8aacca" d="M300 500h100v100H300z"/><path fill="#b9c0ca" d="M400 500h100v100H400z"/><path fill="#bdb9bd" d="M500 500h100v100H500z"/><path fill="#9e8ba3" d="M600 500h100v100H600z"/><path fill="#a58b9a" d="M700 500h100v100H700z"/></svg>