<svg xmlns="http://www.w3.org/2000/svg" viewBox="0 0 800 500"><defs/><path fill="#e7e7e3" d="M0 0h100v100H0z"/><path fill="#cec1ad" d="M100 0h100v100H100z"/><path fill="#dbd7d3" d="M200 0h100v100H200z"/><path fill="#e4e4e8" d="M300 0h100v100H300z"/><path fill="#e5e5e2" d="M400 0h100v100H400z"/><path fill="#e9e9dc" d="M500 0h100v100H500z"/><path fill="#e6e7df" d="M600 0h100v100H600z"/><path fill="#e0e1df" d="M700 0h100v100H700z"/><path fill="#d8d5cd" d="M0 100h100v100H0z"/><path fill="#b29c7a" d="M100 100h100v100H100z"/><path fill="#bcbebc" d="M200 100h100v100H200z"/><path fill="#c9cfd4" d="M300 100h100v100H300z"/><path fill="#e0e0da" d="M400 100h100v100H400z"/><path fill="#c8c8ad" d="M500 100h100v100H500z"/><path fill="#d2d2c3" d="M600 100h100v100H600z"/><path fill="#d9d9d7" d="M700 100h100v100H700z"/><path fill="#e3ddcf" d="M0 200h100v100H0z"/><path fill="#a9977d" d="M100 200h100v100H100z"/><path fill="#cbcdcd" d="M200 200h100v100H200z"/><path fill="#e2e2dc" d="M300 200h100v100H300z"/><path fill="#e7e4e1" d="M400 200h100v100H400z"/><path fill="#c9c5c5" d="M500 200h100v100H500z"/><path fill="#bdb7b6" d="M600 200h100v100H600z"/><path fill="#e1dedd" d="M700 200h100v100H700z"/><path fill="#ddd1bb" d="M0 300h100v100H0z"/><path fill="#a09371" d="M100 300h100v100H100z"/><path fill="#bbb5b1" d="M200 300h100v100H200z"/><path fill="#bcb3b0" d="M300 300h100v100H300z"/><path fill="#b0aaa1" d="M400 300h100v100H400z"/><path fill="#cac8c8" d="M500 300h100v100H500z"/><path fill="#c2aea8" d="M600 300h100v100H600z"/><path fill="#dbd5d1" d="M700 300h100v100H700z"/><path fill="#e4ded4" d="M0 400h100v100H0z"/><path fill="#dadad3" d="M100 400h100v100H100z"/><path fill="#e8e9e9" d="M200 400h100v100H200z"/><path fill="#d7d4d1" d="M300 400h100v100H300z"/><path fill="#d4d2cc" d="M400 400h100v100H400z"/><path fill="#e1dcda" d="M500 400h100v100H500z"/><path fill="#e2dcda" d="M600 400h100v100H600z"/><path fill="#e5e4e5" d="M700 400h100v100H700z"/></svg>