<svg xmlns="http://www.w3.org/2000/svg" viewBox="0 0 800 800"><defs/><path fill="#fefefe" d="M0 0h100v100H0z"/><path fill="#fdfbfb" d="M100 0h100v100H100z"/><path fill="#fcfbfb" d="M200 0h100v100H200z"/><path fill="#fffdfd" d="M300 0h100v100H300z"/><path fill="#f4f5f6" d="M400 0h100v100H400z"/><path fill="#f1f2f6" d="M500 0h100v100H500z"/><path fill="#f4f5f8" d="M600 0h100v100H600z"/><path fill="#fafafb" d="M700 0h100v100H700z"/><path fill="#f6f2f2" d="M0 100h100v100H0z"/><path fill="#d4b7b7" d="M100 100h100v100H100z"/><path fill="#ebd5d6" d="M200 100h100v100H200z"/><path fill="#e5cfcd" d="M300 100h100v100H300z"/><path fill="#aeb0bd" d="M400 100h100v100H400z"/><path fill="#9199c0" d="M500 100h100v100H500z"/><path fill="#8088a9" d="M600 100h100v100H600z"/><path fill="#c4c5ca" d="M700 100h100v100H700z"/><path fill="#f6f1f1" d="M0 200h100v100H0z"/><path fill="#b78f90" d="M100 200h100v100H100z"/><path fill="#b49596" d="M200 200h100v100H200z"/><path fill="#d0b2b0" d="M300 200h100v100H300z"/><path fill="#b1b5c4" d="M400 200h100v100H400z"/><path fill="#757faa" d="M500 200h100v100H500z"/><path fill="#48506f" d="M600 200h100v100H600z"/><path fill="#b5b5ba" d="M700 200h100v100H700z"/><path fill="#fbf8f7" d="M0 300h100v100H0z"/><path fill="#eed5d3" d="M100 300h100v100H100z"/><path fill="#f1dad5" d="M200 300h100v100H200z"/><path fill="#f7e4de" d="M300 300h100v100H300z"/><path fill="#cdd0e1" d="M400 300h100v100H400z"/><path fill="#aeb6e4" d="M500 300h100v100H500z"/><path fill="#a3abd6" d="M600 300h100v100H600z"/><path fill="#d7d9e1" d="M700 300h100v100H700z"/><path fill="#f7f6f8" d="M0 400h100v100H0z"/><path fill="#c4bbcc" d="M100 400h100v100H100z"/><path fill="#c5b9d9" d="M200 400h100v100H200z"/><path fill="#d5cfe0" d="M300 400h100v100H300z"/><path fill="#dbddd5" d="M400 400h100v100H400z"/><path fill="#bfc6b1" d="M500 400h100v100H500z"/><path fill="#c3cab2" d="M600 400h100v100H600z"/><path fill="#ebecea" d="M700 400h100v100H700z"/><path fill="#edecee" d="M0 500h100v100H0z"/><path fill="#837d9d" d="M100 500h100v100H100z"/><path fill="#675488" d="M200 500h100v100H200z"/><path fill="#827389" d="M300 500h100v100H300z"/><path fill="#bcc0c4" d="M400 500h100v100H400z"/><path fill="#7f8976" d="M500 500h100v100H500z"/><path fill="#6b7a40" d="M600 500h100v100H600z"/><path fill="#d7dccb" d="M700 500h100v100H700z"/><path fill="#eeeef0" d="M0 600h100v100H0z"/><path fill="#8a80a8" d="M100 600h100v100H100z"/><path fill="#8b71a3" d="M200 600h100v100H200z"/><path fill="#8f7d95" d="M300 600h100v100H300z"/><path fill="#aeb4af" d="M400 600h100v100H400z"/><path fill="#525d41" d="M500 600h100v100H500z"/><path fill="#536227" d="M600 600h100v100H600z"/><path fill="#c8ceb9" d="M700 600h100v100H700z"/><path fill="#f9f8fa" d="M0 700h100v100H0z"/><path fill="#dbd0e8" d="M100 700h100v100H100z"/><path fill="#e1d1f0" d="M200 700h100v100H200z"/><path fill="#e8dff1" d="M300 700h100v100H300z"/><path fill="#d9dcd0" d="M400 700h100v100H400z"/><path fill="#adb598" d="M500 700h100v100H500z"/><path fill="#b1b89f" d="M600 700h100v100H600z"/><path fill="#e8eae4" d="M700 700h100v100H700z"/></svg>