<svg xmlns="http://www.w3.org/2000/svg" viewBox="0 0 800 900"><defs/><path fill="#b9ba85" d="M0 0h100v100H0z"/><path fill="#b5a890" d="M100 0h100v100H100z"/><path fill="#c5c4b8" d="M200 0h100v100H200z"/><path fill="#b1ac9c" d="M300 0h100v100H300z"/><path fill="#9d918b" d="M400 0h100v100H400z"/><path fill="#ccbfba" d="M500 0h100v100H500z"/><path fill="#b7a9a1" d="M600 0h100v100H600z"/><path fill="#796a5e" d="M700 0h100v100H700z"/><path fill="#dfdbc0" d="M0 100h100v100H0z"/><path fill="#c4bcaa" d="M100 100h100v100H100z"/><path fill="#a2a19e" d="M200 100h100v100H200z"/><path fill="#a3a19e" d="M300 100h100v100H300z"/><path fill="#b7aeaa" d="M400 100h100v100H400z"/><path fill="#c6b6b0" d="M500 100h100v100H500z"/><path fill="#ac9e96" d="M600 100h100v100H600z"/><path fill="#5f5349" d="M700 100h100v100H700z"/><path fill="#ded1c8" d="M0 200h100v100H0z"/><path fill="#b4a698" d="M100 200h100v100H100z"/><path fill="#8c857e" d="M200 200h100v100H200z"/><path fill="#696761" d="M300 200h100v100H300z"/><path fill="#615b53" d="M400 200h100v100H400z"/><path fill="#867d74" d="M500 200h100v100H500z"/><path fill="#3c3328" d="M600 200h100v100H600z"/><path fill="#2a190d" d="M700 200h100v100H700z"/><path fill="#695241" d="M0 300h100v100H0z"/><path fill="#544235" d="M100 300h100v100H100z"/><path fill="#453c37" d="M200 300h100v100H200z"/><path fill="#5d5956" d="M300 300h100v100H300z"/><path fill="#a0988d" d="M400 300h100v100H400z"/><path fill="#a59086" d="M500 300h100v100H500z"/><path fill="#7f5e53" d="M600 300h100v100H600z"/><path fill="#4f443d" d="M700 300h100v100H700z"/><path fill="#453a2e" d="M0 400h100v100H0z"/><path fill="#564b43" d="M100 400h100v100H100z"/><path fill="#867a73" d="M200 400h100v100H200z"/><path fill="#a69e96" d="M300 400h100v100H300z"/><path fill="#9b9286" d="M400 400h100v100H400z"/><path fill="#896c5e" d="M500 400h100v100H500z"/><path fill="#956d62" d="M600 400h100v100H600z"/><path fill="#9d988d" d="M700 400h100v100H700z"/><path fill="#2f2e2f" d="M0 500h100v100H0z"/><path fill="#847e79" d="M100 500h100v100H100z"/><path fill="#aeaea8" d="M200 500h100v100H200z"/><path fill="#898979" d="M300 500h100v100H300z"/><path fill="#8e7d71" d="M400 500h100v100H400z"/><path fill="#857a6b" d="M500 500h100v100H500z"/><path fill="#a29e92" d="M600 500h100v100H600z"/><path fill="#615347" d="M700 500h100v100H700z"/><path fill="#3e3c2c" d="M0 600h100v100H0z"/><path fill="#4b3a30" d="M100 600h100v100H100z"/><path fill="#9c837e" d="M200 600h100v100H200z"/><path fill="#8d9387" d="M300 600h100v100H300z"/><path fill="#89887c" d="M400 600h100v100H400z"/><path fill="#a19d95" d="M500 600h100v100H500z"/><path fill="#755f50" d="M600 600h100v100H600z"/><path fill="#22180e" d="M700 600h100v100H700z"/><path fill="#4b533b" d="M0 700h100v100H0z"/><path fill="#513828" d="M100 700h100v100H100z"/><path fill="#632d25" d="M200 700h100v100H200z"/><path fill="#808980" d="M300 700h100v100H300z"/><path fill="#a4a098" d="M400 700h100v100H400z"/><path fill="#707465" d="M500 700h100v100H500z"/><path fill="#282611" d="M600 700h100v100H600z"/><path fill="#482612" d="M700 700h100v100H700z"/><path fill="#56533f" d="M0 800h100v100H0z"/><path fill="#5a4a37" d="M100 800h100v100H100z"/><path fill="#542b26" d="M200 800h100v100H200z"/><path fill="#3d4634" d="M300 800h100v100H300z"/><path fill="#7b7770" d="M400 800h100v100H400z"/><path fill="#2b2318" d="M500 800h100v100H500z"/><path fill="#3e2919" d="M600 800h100v100H600z"/><path fill="#784f32" d="M700 800h100v100H700z"/></svg>