<svg xmlns="http://www.w3.org/2000/svg" viewBox="0 0 800 400"><defs/><path fill="#8780a3" d="M0 0h100v100H0z"/><path fill="#77688e" d="M100 0h100v100H100z"/><path fill="#736a93" d="M200 0h100v100H200z"/><path fill="#7ca1b7" d="M300 0h100v100H300z"/><path fill="#7698b1" d="M400 0h100v100H400z"/><path fill="#82a3ba" d="M500 0h100v100H500z"/><path fill="#767ea2" d="M600 0h100v100H600z"/><path fill="#9182a6" d="M700 0h100v100H700z"/><path fill="#9f95af" d="M0 100h100v100H0z"/><path fill="#806a93" d="M100 100h100v100H100z"/><path fill="#7a76a0" d="M200 100h100v100H200z"/><path fill="#6698b2" d="M300 100h100v100H300z"/><path fill="#6da3ba" d="M400 100h100v100H400z"/><path fill="#70aabd" d="M500 100h100v100H500z"/><path fill="#7696b4" d="M600 100h100v100H600z"/><path fill="#948aaf" d="M700 100h100v100H700z"/><path fill="#beacc2" d="M0 200h100v100H0z"/><path fill="#9088a5" d="M100 200h100v100H100z"/><path fill="#838ca6" d="M200 200h100v100H200z"/><path fill="#4b558a" d="M300 200h100v100H300z"/><path fill="#77779f" d="M400 200h100v100H400z"/><path fill="#928ca6" d="M500 200h100v100H500z"/><path fill="#858aac" d="M600 200h100v100H600z"/><path fill="#a29dbb" d="M700 200h100v100H700z"/><path fill="#bbb1ca" d="M0 300h100v100H0z"/><path fill="#6b7b96" d="M100 300h100v100H100z"/><path fill="#75889c" d="M200 300h100v100H200z"/><path fill="#9f9ebd" d="M300 300h100v100H300z"/><path fill="#a8a3c5" d="M400 300h100v100H400z"/><path fill="#aaa2bd" d="M500 300h100v100H500z"/><path fill="#9e95b3" d="M600 300h100v100H600z"/><path fill="#aea9c6" d="M700 300h100v100H700z"/></svg>