<svg xmlns="http://www.w3.org/2000/svg" viewBox="0 0 800 600"><defs/><path fill="#fafcff" d="M0 0h100v100H0z"/><path fill="#fcffff" d="M100 0h100v100H100z"/><path fill="#fff" d="M200 0h100v100H200z"/><path fill="#fdffff" d="M300 0h100v100H300z"/><path fill="#fcfeff" d="M400 0h100v100H400z"/><path fill="#fff" d="M500 0h100v100H500z"/><path fill="#fffeff" d="M600 0h100v100H600z"/><path fill="#fcfeff" d="M700 0h100v100H700z"/><path fill="#e0efff" d="M0 100h100v100H0z"/><path fill="#d6c4ab" d="M100 100h100v100H100z"/><path fill="#c7dd9d" d="M200 100h100v100H200z"/><path fill="#e8deb8" d="M300 100h100v100H300z"/><path fill="#ead1ac" d="M400 100h100v100H400z"/><path fill="#a8cfa2" d="M500 100h100v100H500z"/><path fill="#b1c1c4" d="M600 100h100v100H600z"/><path fill="#eebdc8" d="M700 100h100v100H700z"/><path fill="#d6e8f6" d="M0 200h100v100H0z"/><path fill="#9292a9" d="M100 200h100v100H100z"/><path fill="#70a174" d="M200 200h100v100H200z"/><path fill="#a9afa5" d="M300 200h100v100H300z"/><path fill="#d9bfc9" d="M400 200h100v100H400z"/><path fill="#61956e" d="M500 200h100v100H500z"/><path fill="#b09a9a" d="M600 200h100v100H600z"/><path fill="#e29da8" d="M700 200h100v100H700z"/><path fill="#d7e1e2" d="M0 300h100v100H0z"/><path fill="#96a167" d="M100 300h100v100H100z"/><path fill="#ae9775" d="M200 300h100v100H200z"/><path fill="#bea5a0" d="M300 300h100v100H300z"/><path fill="#c8b3d4" d="M400 300h100v100H400z"/><path fill="#bfad8a" d="M500 300h100v100H500z"/><path fill="#d2b17f" d="M600 300h100v100H600z"/><path fill="#d59da4" d="M700 300h100v100H700z"/><path fill="#cac5d3" d="M0 400h100v100H0z"/><path fill="#c39951" d="M100 400h100v100H100z"/><path fill="#c2c820" d="M200 400h100v100H200z"/><path fill="#bfc326" d="M300 400h100v100H300z"/><path fill="#fadc2f" d="M400 400h100v100H400z"/><path fill="#b6c421" d="M500 400h100v100H500z"/><path fill="#d9d014" d="M600 400h100v100H600z"/><path fill="#e6bf8d" d="M700 400h100v100H700z"/><path fill="#f5f6ef" d="M0 500h100v100H0z"/><path fill="#f4f4ce" d="M100 500h100v100H100z"/><path fill="#fbf8d1" d="M200 500h100v100H200z"/><path fill="#f7f5d4" d="M300 500h100v100H300z"/><path fill="#faf7d2" d="M400 500h100v100H400z"/><path fill="#fbf8d3" d="M500 500h100v100H500z"/><path fill="#fbf7cf" d="M600 500h100v100H600z"/><path fill="#f6f4e0" d="M700 500h100v100H700z"/></svg>