<svg xmlns="http://www.w3.org/2000/svg" viewBox="0 0 800 600"><defs/><path fill="#83817b" d="M0 0h100v100H0z"/><path fill="#8c8b85" d="M100 0h100v100H100z"/><path fill="#9c9892" d="M200 0h100v100H200z"/><path fill="#a6a29b" d="M300 0h100v100H300z"/><path fill="#a6a29a" d="M400 0h100v100H400z"/><path fill="#a29e93" d="M500 0h100v100H500z"/><path fill="#9a958a" d="M600 0h100v100H600z"/><path fill="#8e8a7e" d="M700 0h100v100H700z"/><path fill="#8d8a84" d="M0 100h100v100H0z"/><path fill="#999793" d="M100 100h100v100H100z"/><path fill="#aca9a5" d="M200 100h100v100H200z"/><path fill="#b6b3af" d="M300 100h100v100H300z"/><path fill="#b4b2ad" d="M400 100h100v100H400z"/><path fill="#b1ada5" d="M500 100h100v100H500z"/><path fill="#9c9990" d="M600 100h100v100H600z"/><path fill="#817f75" d="M700 100h100v100H700z"/><path fill="#95938e" d="M0 200h100v100H0z"/><path fill="#a3a19e" d="M100 200h100v100H100z"/><path fill="#b7b6b3" d="M200 200h100v100H200z"/><path fill="#bebdbb" d="M300 200h100v100H300z"/><path fill="#bdbdba" d="M400 200h100v100H400z"/><path fill="#b4b2ac" d="M500 200h100v100H500z"/><path fill="#98968f" d="M600 200h100v100H600z"/><path fill="#858279" d="M700 200h100v100H700z"/><path fill="#999793" d="M0 300h100v100H0z"/><path fill="#a8a6a3" d="M100 300h100v100H100z"/><path fill="#bab9b7" d="M200 300h100v100H200z"/><path fill="#c8c7c6" d="M300 300h100v100H300z"/><path fill="#c2c1be" d="M400 300h100v100H400z"/><path fill="#b1b0ab" d="M500 300h100v100H500z"/><path fill="#a19f98" d="M600 300h100v100H600z"/><path fill="#848279" d="M700 300h100v100H700z"/><path fill="#959490" d="M0 400h100v100H0z"/><path fill="#a3a29f" d="M100 400h100v100H100z"/><path fill="#b9b8b5" d="M200 400h100v100H200z"/><path fill="#8d8d8a" d="M300 400h100v100H300z"/><path fill="#a8a7a3" d="M400 400h100v100H400z"/><path fill="#bcbbb5" d="M500 400h100v100H500z"/><path fill="#96958d" d="M600 400h100v100H600z"/><path fill="#8a897f" d="M700 400h100v100H700z"/><path fill="#8f8e8a" d="M0 500h100v100H0z"/><path fill="#a2a09d" d="M100 500h100v100H100z"/><path fill="#b3b1ae" d="M200 500h100v100H200z"/><path fill="#676762" d="M300 500h100v100H300z"/><path fill="#8e8e89" d="M400 500h100v100H400z"/><path fill="#b7b6af" d="M500 500h100v100H500z"/><path fill="#9d9c92" d="M600 500h100v100H600z"/><path fill="#99988c" d="M700 500h100v100H700z"/></svg>