<svg xmlns="http://www.w3.org/2000/svg" viewBox="0 0 800 600"><defs/><path fill="#b4a6a0" d="M0 0h100v100H0z"/><path fill="#cfa274" d="M100 0h100v100H100z"/><path fill="#a09271" d="M200 0h100v100H200z"/><path fill="#d4d4a0" d="M300 0h100v100H300z"/><path fill="#c8cd94" d="M400 0h100v100H400z"/><path fill="#e3e5ae" d="M500 0h100v100H500z"/><path fill="#98b086" d="M600 0h100v100H600z"/><path fill="#5f7670" d="M700 0h100v100H700z"/><path fill="#b19c81" d="M0 100h100v100H0z"/><path fill="#af854c" d="M100 100h100v100H100z"/><path fill="#82775c" d="M200 100h100v100H200z"/><path fill="#d5cfa1" d="M300 100h100v100H300z"/><path fill="#98956e" d="M400 100h100v100H400z"/><path fill="#d7d289" d="M500 100h100v100H500z"/><path fill="#98a267" d="M600 100h100v100H600z"/><path fill="#6f7976" d="M700 100h100v100H700z"/><path fill="#9a977c" d="M0 200h100v100H0z"/><path fill="#a1854d" d="M100 200h100v100H100z"/><path fill="#8d7f60" d="M200 200h100v100H200z"/><path fill="#b5b895" d="M300 200h100v100H300z"/><path fill="#99a499" d="M400 200h100v100H400z"/><path fill="#80a37a" d="M500 200h100v100H500z"/><path fill="#709975" d="M600 200h100v100H600z"/><path fill="#797e7d" d="M700 200h100v100H700z"/><path fill="#9a8c6b" d="M0 300h100v100H0z"/><path fill="#a2814b" d="M100 300h100v100H100z"/><path fill="#746b55" d="M200 300h100v100H200z"/><path fill="#6e7c6e" d="M300 300h100v100H300z"/><path fill="#aba88c" d="M400 300h100v100H400z"/><path fill="#939369" d="M500 300h100v100H500z"/><path fill="#5b7761" d="M600 300h100v100H600z"/><path fill="#838d7d" d="M700 300h100v100H700z"/><path fill="#8e8262" d="M0 400h100v100H0z"/><path fill="#777440" d="M100 400h100v100H100z"/><path fill="#5e5041" d="M200 400h100v100H200z"/><path fill="#4a7675" d="M300 400h100v100H300z"/><path fill="#6e8255" d="M400 400h100v100H400z"/><path fill="#6d7548" d="M500 400h100v100H500z"/><path fill="#6a8e66" d="M600 400h100v100H600z"/><path fill="#6a8563" d="M700 400h100v100H700z"/><path fill="#6e5c52" d="M0 500h100v100H0z"/><path fill="#5d5a38" d="M100 500h100v100H100z"/><path fill="#524e42" d="M200 500h100v100H200z"/><path fill="#32464c" d="M300 500h100v100H300z"/><path fill="#223e39" d="M400 500h100v100H400z"/><path fill="#284145" d="M500 500h100v100H500z"/><path fill="#425f57" d="M600 500h100v100H600z"/><path fill="#6d8870" d="M700 500h100v100H700z"/></svg>