<svg xmlns="http://www.w3.org/2000/svg" viewBox="0 0 800 1100"><defs/><path fill="#0b0b0b" d="M0 0h100v100H0z"/><path fill="#181615" d="M100 0h100v100H100z"/><path fill="#1c1515" d="M200 0h100v100H200z"/><path fill="#34322e" d="M300 0h100v100H300z"/><path fill="#3b3833" d="M400 0h100v100H400z"/><path fill="#36322d" d="M500 0h100v100H500z"/><path fill="#2a2723" d="M600 0h100v100H600z"/><path d="M700 0h100v100H700z"/><path fill="#5f5649" d="M0 100h100v100H0z"/><path fill="#726d60" d="M100 100h100v100H100z"/><path fill="#5e6151" d="M200 100h100v100H200z"/><path fill="#8d887a" d="M300 100h100v100H300z"/><path fill="#857d75" d="M400 100h100v100H400z"/><path fill="#766d61" d="M500 100h100v100H500z"/><path fill="#5b5347" d="M600 100h100v100H600z"/><path fill="#12110f" d="M700 100h100v100H700z"/><path fill="#aca08b" d="M0 200h100v100H0z"/><path fill="#d6cdb9" d="M100 200h100v100H100z"/><path fill="#bdbdaa" d="M200 200h100v100H200z"/><path fill="#afa9ab" d="M300 200h100v100H300z"/><path fill="#8f878f" d="M400 200h100v100H400z"/><path fill="#877d75" d="M500 200h100v100H500z"/><path fill="#6c6155" d="M600 200h100v100H600z"/><path fill="#433b34" d="M700 200h100v100H700z"/><path fill="#c2baab" d="M0 300h100v100H0z"/><path fill="#f6ebd9" d="M100 300h100v100H100z"/><path fill="#f0e5da" d="M200 300h100v100H200z"/><path fill="#dacdc6" d="M300 300h100v100H300z"/><path fill="#c3b2a0" d="M400 300h100v100H400z"/><path fill="#90827a" d="M500 300h100v100H500z"/><path fill="#776d67" d="M600 300h100v100H600z"/><path fill="#5f5a57" d="M700 300h100v100H700z"/><path fill="#756f66" d="M0 400h100v100H0z"/><path fill="#ddd4c5" d="M100 400h100v100H100z"/><path fill="#eaddc7" d="M200 400h100v100H200z"/><path fill="#e6d6c3" d="M300 400h100v100H300z"/><path fill="#d0c4b7" d="M400 400h100v100H400z"/><path fill="#a4a0a0" d="M500 400h100v100H500z"/><path fill="#7a7c82" d="M600 400h100v100H600z"/><path fill="#585c61" d="M700 400h100v100H700z"/><path fill="#a19a90" d="M0 500h100v100H0z"/><path fill="#cfc7b9" d="M100 500h100v100H100z"/><path fill="#dcd3c2" d="M200 500h100v100H200z"/><path fill="#d2cdc4" d="M300 500h100v100H300z"/><path fill="#abadb1" d="M400 500h100v100H400z"/><path fill="#898c92" d="M500 500h100v100H500z"/><path fill="#626870" d="M600 500h100v100H600z"/><path fill="#4a4e54" d="M700 500h100v100H700z"/><path fill="#8e8881" d="M0 600h100v100H0z"/><path fill="#908f8c" d="M100 600h100v100H100z"/><path fill="#949695" d="M200 600h100v100H200z"/><path fill="#979797" d="M300 600h100v100H300z"/><path fill="#7e8288" d="M400 600h100v100H400z"/><path fill="#616871" d="M500 600h100v100H500z"/><path fill="#4e545c" d="M600 600h100v100H600z"/><path fill="#40454a" d="M700 600h100v100H700z"/><path fill="#6d6761" d="M0 700h100v100H0z"/><path fill="#6b6a6a" d="M100 700h100v100H100z"/><path fill="#61676c" d="M200 700h100v100H200z"/><path fill="#6d6e70" d="M300 700h100v100H300z"/><path fill="#5a5f66" d="M400 700h100v100H400z"/><path fill="#414a55" d="M500 700h100v100H500z"/><path fill="#3a414a" d="M600 700h100v100H600z"/><path fill="#424243" d="M700 700h100v100H700z"/><path fill="#56514c" d="M0 800h100v100H0z"/><path fill="#545350" d="M100 800h100v100H100z"/><path fill="#4a4d51" d="M200 800h100v100H200z"/><path fill="#474b4f" d="M300 800h100v100H300z"/><path fill="#41464d" d="M400 800h100v100H400z"/><path fill="#3e4247" d="M500 800h100v100H500z"/><path fill="#3f4141" d="M600 800h100v100H600z"/><path fill="#413f3c" d="M700 800h100v100H700z"/><path fill="#403d39" d="M0 900h100v100H0z"/><path fill="#484441" d="M100 900h100v100H100z"/><path fill="#3d3e3f" d="M200 900h100v100H200z"/><path fill="#36393d" d="M300 900h100v100H300z"/><path fill="#3a3c3e" d="M400 900h100v100H400z"/><path fill="#403f3c" d="M500 900h100v100H500z"/><path fill="#3e3c38" d="M600 900h100v100H600z"/><path fill="#373531" d="M700 900h100v100H700z"/><path fill="#2f2c29" d="M0 1000h100v100H0z"/><path fill="#3b3834" d="M100 1000h100v100H100z"/><path fill="#343433" d="M200 1000h100v100H200z"/><path fill="#323232" d="M300 1000h100v100H300z"/><path fill="#393733" d="M400 1000h100v100H400z"/><path fill="#363431" d="M500 1000h100v100H500z"/><path fill="#312f2c" d="M600 1000h100v100H600z"/><path fill="#272622" d="M700 1000h100v100H700z"/></svg>