<svg xmlns="http://www.w3.org/2000/svg" viewBox="0 0 800 600"><defs/><path fill="#e0ebee" d="M0 0h100v100H0z"/><path fill="#d9e2e2" d="M100 0h100v100H100z"/><path fill="#e9ebeb" d="M200 0h100v100H200z"/><path fill="#e8eeef" d="M300 0h100v100H300z"/><path fill="#e9eceb" d="M400 0h100v100H400z"/><path fill="#e7eff2" d="M500 0h100v100H500z"/><path fill="#e9eeee" d="M600 0h100v100H600z"/><path fill="#ecefef" d="M700 0h100v100H700z"/><path fill="#a5bfcb" d="M0 100h100v100H0z"/><path fill="#698f92" d="M100 100h100v100H100z"/><path fill="#b4b8b4" d="M200 100h100v100H200z"/><path fill="#7e897f" d="M300 100h100v100H300z"/><path fill="#847567" d="M400 100h100v100H400z"/><path fill="#a9c6c9" d="M500 100h100v100H500z"/><path fill="#c5e2e8" d="M600 100h100v100H600z"/><path fill="#bbc8ca" d="M700 100h100v100H700z"/><path fill="#90abb9" d="M0 200h100v100H0z"/><path fill="#59898a" d="M100 200h100v100H100z"/><path fill="#81a6a7" d="M200 200h100v100H200z"/><path fill="#7e7f7c" d="M300 200h100v100H300z"/><path fill="#685e54" d="M400 200h100v100H400z"/><path fill="#829091" d="M500 200h100v100H500z"/><path fill="#90c6cd" d="M600 200h100v100H600z"/><path fill="#81a4a8" d="M700 200h100v100H700z"/><path fill="#8bb4be" d="M0 300h100v100H0z"/><path fill="#718980" d="M100 300h100v100H100z"/><path fill="#968880" d="M200 300h100v100H200z"/><path fill="#7e838a" d="M300 300h100v100H300z"/><path fill="#796b5c" d="M400 300h100v100H400z"/><path fill="#546469" d="M500 300h100v100H500z"/><path fill="#5e7876" d="M600 300h100v100H600z"/><path fill="#5c7681" d="M700 300h100v100H700z"/><path fill="#6798a0" d="M0 400h100v100H0z"/><path fill="#545954" d="M100 400h100v100H100z"/><path fill="#836963" d="M200 400h100v100H200z"/><path fill="#987665" d="M300 400h100v100H300z"/><path fill="#9a5f45" d="M400 400h100v100H400z"/><path fill="#8d6048" d="M500 400h100v100H500z"/><path fill="#7d5a4a" d="M600 400h100v100H600z"/><path fill="#38404b" d="M700 400h100v100H700z"/><path fill="#c3c1bc" d="M0 500h100v100H0z"/><path fill="#a4a8aa" d="M100 500h100v100H100z"/><path fill="#b0b7ba" d="M200 500h100v100H200z"/><path fill="#dad0c9" d="M300 500h100v100H300z"/><path fill="#cbae9f" d="M400 500h100v100H400z"/><path fill="#dbb6a3" d="M500 500h100v100H500z"/><path fill="#b9a89f" d="M600 500h100v100H600z"/><path fill="#888e92" d="M700 500h100v100H700z"/></svg>