<svg xmlns="http://www.w3.org/2000/svg" viewBox="0 0 800 600"><defs/><path fill="#bba79d" d="M0 0h100v100H0z"/><path fill="#c7afa1" d="M100 0h100v100H100z"/><path fill="#c9b9aa" d="M200 0h100v100H200z"/><path fill="#d2c5b5" d="M300 0h100v100H300z"/><path fill="#ded1bd" d="M400 0h100v100H400z"/><path fill="#e5dcc5" d="M500 0h100v100H500z"/><path fill="#e8dccb" d="M600 0h100v100H600z"/><path fill="#eeddd2" d="M700 0h100v100H700z"/><path fill="#a17a4a" d="M0 100h100v100H0z"/><path fill="#b5965b" d="M100 100h100v100H100z"/><path fill="#9a943f" d="M200 100h100v100H200z"/><path fill="#949245" d="M300 100h100v100H300z"/><path fill="#a69571" d="M400 100h100v100H400z"/><path fill="#bcc346" d="M500 100h100v100H500z"/><path fill="#d4d983" d="M600 100h100v100H600z"/><path fill="#ddc58e" d="M700 100h100v100H700z"/><path fill="#b3905c" d="M0 200h100v100H0z"/><path fill="#bba375" d="M100 200h100v100H100z"/><path fill="#9a826b" d="M200 200h100v100H200z"/><path fill="#b0816e" d="M300 200h100v100H300z"/><path fill="#ac9192" d="M400 200h100v100H400z"/><path fill="#ba9985" d="M500 200h100v100H500z"/><path fill="#b8a891" d="M600 200h100v100H600z"/><path fill="#d6bc9a" d="M700 200h100v100H700z"/><path fill="#b79566" d="M0 300h100v100H0z"/><path fill="#a8906c" d="M100 300h100v100H100z"/><path fill="#aba3aa" d="M200 300h100v100H200z"/><path fill="#bba9b1" d="M300 300h100v100H300z"/><path fill="#c7b3bc" d="M400 300h100v100H400z"/><path fill="#b78990" d="M500 300h100v100H500z"/><path fill="#7f797a" d="M600 300h100v100H600z"/><path fill="#b3957d" d="M700 300h100v100H700z"/><path fill="#ab8c72" d="M0 400h100v100H0z"/><path fill="#a48e78" d="M100 400h100v100H100z"/><path fill="#aea095" d="M200 400h100v100H200z"/><path fill="#b2aaac" d="M300 400h100v100H300z"/><path fill="#c0b4bd" d="M400 400h100v100H400z"/><path fill="#cbc3c6" d="M500 400h100v100H500z"/><path fill="#ab817a" d="M600 400h100v100H600z"/><path fill="#a37f77" d="M700 400h100v100H700z"/><path fill="#b4afaf" d="M0 500h100v100H0z"/><path fill="#b4aeac" d="M100 500h100v100H100z"/><path fill="#b3adb1" d="M200 500h100v100H200z"/><path fill="#b9b0b9" d="M300 500h100v100H300z"/><path fill="#c5c0cc" d="M400 500h100v100H400z"/><path fill="#cecad7" d="M500 500h100v100H500z"/><path fill="#dddae2" d="M600 500h100v100H600z"/><path fill="#e1e2e7" d="M700 500h100v100H700z"/></svg>