<svg xmlns="http://www.w3.org/2000/svg" viewBox="0 0 800 600"><defs/><path fill="#ddd269" d="M0 0h100v100H0z"/><path fill="#dcd590" d="M100 0h100v100H100z"/><path fill="#d3d0cf" d="M200 0h100v100H200z"/><path fill="#d9d3e3" d="M300 0h100v100H300z"/><path fill="#d8d3e2" d="M400 0h100v100H400z"/><path fill="#d9bbda" d="M500 0h100v100H500z"/><path fill="#d2cce7" d="M600 0h100v100H600z"/><path fill="#a4acb5" d="M700 0h100v100H700z"/><path fill="#dac67f" d="M0 100h100v100H0z"/><path fill="#d0c6a4" d="M100 100h100v100H100z"/><path fill="#cec1cf" d="M200 100h100v100H200z"/><path fill="#cbc0c9" d="M300 100h100v100H300z"/><path fill="#c8c0c4" d="M400 100h100v100H400z"/><path fill="#c8b3be" d="M500 100h100v100H500z"/><path fill="#9dadcd" d="M600 100h100v100H600z"/><path fill="#5e96c2" d="M700 100h100v100H700z"/><path fill="#c9ba8f" d="M0 200h100v100H0z"/><path fill="#bab0a5" d="M100 200h100v100H100z"/><path fill="#c3a7c5" d="M200 200h100v100H200z"/><path fill="#b4b0be" d="M300 200h100v100H300z"/><path fill="#b2b6c2" d="M400 200h100v100H400z"/><path fill="#bbb2c1" d="M500 200h100v100H500z"/><path fill="#adadc2" d="M600 200h100v100H600z"/><path fill="#afbfdb" d="M700 200h100v100H700z"/><path fill="#b4ad7e" d="M0 300h100v100H0z"/><path fill="#a69d98" d="M100 300h100v100H100z"/><path fill="#b09ab0" d="M200 300h100v100H200z"/><path fill="#adac96" d="M300 300h100v100H300z"/><path fill="#b7bb76" d="M400 300h100v100H400z"/><path fill="#bbb891" d="M500 300h100v100H500z"/><path fill="#c9c4c8" d="M600 300h100v100H600z"/><path fill="#e3d7e3" d="M700 300h100v100H700z"/><path fill="#a49b82" d="M0 400h100v100H0z"/><path fill="#968f86" d="M100 400h100v100H100z"/><path fill="#979290" d="M200 400h100v100H200z"/><path fill="#a18f5b" d="M300 400h100v100H300z"/><path fill="#af9b1d" d="M400 400h100v100H400z"/><path fill="#bcab8e" d="M500 400h100v100H500z"/><path fill="#cbc9c9" d="M600 400h100v100H600z"/><path fill="#d4cfd1" d="M700 400h100v100H700z"/><path fill="#948f86" d="M0 500h100v100H0z"/><path fill="#847c74" d="M100 500h100v100H100z"/><path fill="#8c7e75" d="M200 500h100v100H200z"/><path fill="#9b8a8d" d="M300 500h100v100H300z"/><path fill="#a7999f" d="M400 500h100v100H400z"/><path fill="#b8acb1" d="M500 500h100v100H500z"/><path fill="#c4c0b7" d="M600 500h100v100H600z"/><path fill="#cdccc7" d="M700 500h100v100H700z"/></svg>