<svg xmlns="http://www.w3.org/2000/svg" viewBox="0 0 800 600"><defs/><path fill="#cbbe9d" d="M0 0h100v100H0z"/><path fill="#bbaf87" d="M100 0h100v100H100z"/><path fill="#b6ae8f" d="M200 0h100v100H200z"/><path fill="#c4bcaf" d="M300 0h100v100H300z"/><path fill="#d4c9c3" d="M400 0h100v100H400z"/><path fill="#ddd2c7" d="M500 0h100v100H500z"/><path fill="#dad0be" d="M600 0h100v100H600z"/><path fill="#ddd4d1" d="M700 0h100v100H700z"/><path fill="#cdb974" d="M0 100h100v100H0z"/><path fill="#9a9045" d="M100 100h100v100H100z"/><path fill="#7d7f6a" d="M200 100h100v100H200z"/><path fill="#988f83" d="M300 100h100v100H300z"/><path fill="#ada293" d="M400 100h100v100H400z"/><path fill="#c6bd9d" d="M500 100h100v100H500z"/><path fill="#dbcaa9" d="M600 100h100v100H600z"/><path fill="#d7cdc8" d="M700 100h100v100H700z"/><path fill="#c0ad5d" d="M0 200h100v100H0z"/><path fill="#a99b69" d="M100 200h100v100H100z"/><path fill="#a0926d" d="M200 200h100v100H200z"/><path fill="#a79369" d="M300 200h100v100H300z"/><path fill="#9c8265" d="M400 200h100v100H400z"/><path fill="#b19879" d="M500 200h100v100H500z"/><path fill="#b6b5ac" d="M600 200h100v100H600z"/><path fill="#a89478" d="M700 200h100v100H700z"/><path fill="#b7a345" d="M0 300h100v100H0z"/><path fill="#8e8663" d="M100 300h100v100H100z"/><path fill="#b9914a" d="M200 300h100v100H200z"/><path fill="#ab8546" d="M300 300h100v100H300z"/><path fill="#9f846c" d="M400 300h100v100H400z"/><path fill="#a0978f" d="M500 300h100v100H500z"/><path fill="#8b9286" d="M600 300h100v100H600z"/><path fill="#9f8f78" d="M700 300h100v100H700z"/><path fill="#b2a355" d="M0 400h100v100H0z"/><path fill="#8a8977" d="M100 400h100v100H100z"/><path fill="#a8968b" d="M200 400h100v100H200z"/><path fill="#9d8d89" d="M300 400h100v100H300z"/><path fill="#989290" d="M400 400h100v100H400z"/><path fill="#9a9e9f" d="M500 400h100v100H500z"/><path fill="#a9a69f" d="M600 400h100v100H600z"/><path fill="#b0a798" d="M700 400h100v100H700z"/><path fill="#c6c1b4" d="M0 500h100v100H0z"/><path fill="#cbc5b8" d="M100 500h100v100H100z"/><path fill="#c9c4ba" d="M200 500h100v100H200z"/><path fill="#c9c2b9" d="M300 500h100v100H300z"/><path fill="#c7beb7" d="M400 500h100v100H400z"/><path fill="#cac1bb" d="M500 500h100v100H500z"/><path fill="#c9c2bd" d="M600 500h100v100H600z"/><path fill="#c9c3bd" d="M700 500h100v100H700z"/></svg>