<svg xmlns="http://www.w3.org/2000/svg" viewBox="0 0 800 500"><defs/><path fill="#e5ead1" d="M0 0h100v100H0z"/><path fill="#ddcdae" d="M100 0h100v100H100z"/><path fill="#e3e7c7" d="M200 0h100v100H200z"/><path fill="#e6eecd" d="M300 0h100v100H300z"/><path fill="#e2e8cc" d="M400 0h100v100H400z"/><path fill="#ecefe0" d="M500 0h100v100H500z"/><path fill="#eaece1" d="M600 0h100v100H600z"/><path fill="#e5ecd0" d="M700 0h100v100H700z"/><path fill="#dde1b8" d="M0 100h100v100H0z"/><path fill="#cfb47e" d="M100 100h100v100H100z"/><path fill="#d9e4ad" d="M200 100h100v100H200z"/><path fill="#c9cf9e" d="M300 100h100v100H300z"/><path fill="#c8d4a1" d="M400 100h100v100H400z"/><path fill="#979a91" d="M500 100h100v100H500z"/><path fill="#dcddd7" d="M600 100h100v100H600z"/><path fill="#e2e8cd" d="M700 100h100v100H700z"/><path fill="#dcd8b5" d="M0 200h100v100H0z"/><path fill="#d6bf8b" d="M100 200h100v100H100z"/><path fill="#cbdbaf" d="M200 200h100v100H200z"/><path fill="#a6b39a" d="M300 200h100v100H300z"/><path fill="#d1daae" d="M400 200h100v100H400z"/><path fill="#9e9f94" d="M500 200h100v100H500z"/><path fill="#c6c8b8" d="M600 200h100v100H600z"/><path fill="#bec3b3" d="M700 200h100v100H700z"/><path fill="#d5caa6" d="M0 300h100v100H0z"/><path fill="#dcb47d" d="M100 300h100v100H100z"/><path fill="#8e917e" d="M200 300h100v100H200z"/><path fill="#3a5f76" d="M300 300h100v100H300z"/><path fill="#d2b888" d="M400 300h100v100H400z"/><path fill="#b09b83" d="M500 300h100v100H500z"/><path fill="#c5b99e" d="M600 300h100v100H600z"/><path fill="#b6ac90" d="M700 300h100v100H700z"/><path fill="#dbcaaf" d="M0 400h100v100H0z"/><path fill="#dfbb8d" d="M100 400h100v100H100z"/><path fill="#d2bb97" d="M200 400h100v100H200z"/><path fill="#c0b295" d="M300 400h100v100H300z"/><path fill="#debd90" d="M400 400h100v100H400z"/><path fill="#bca687" d="M500 400h100v100H500z"/><path fill="#bfa885" d="M600 400h100v100H600z"/><path fill="#dabe9a" d="M700 400h100v100H700z"/></svg>