<svg xmlns="http://www.w3.org/2000/svg" viewBox="0 0 800 500"><defs/><path fill="#f8f3e0" d="M0 0h100v100H0z"/><path fill="#d1c5a2" d="M100 0h100v100H100z"/><path fill="#bdb8ae" d="M200 0h100v100H200z"/><path fill="#d5d7ca" d="M300 0h100v100H300z"/><path fill="#dde5d6" d="M400 0h100v100H400z"/><path fill="#d6ddd2" d="M500 0h100v100H500z"/><path fill="#cbc7a2" d="M600 0h100v100H600z"/><path fill="#efecdc" d="M700 0h100v100H700z"/><path fill="#e1dbc5" d="M0 100h100v100H0z"/><path fill="#775432" d="M100 100h100v100H100z"/><path fill="#876b4e" d="M200 100h100v100H200z"/><path fill="#b3c19f" d="M300 100h100v100H300z"/><path fill="#9bac9b" d="M400 100h100v100H400z"/><path fill="#9caf9f" d="M500 100h100v100H500z"/><path fill="#939c6b" d="M600 100h100v100H600z"/><path fill="#e4e5d1" d="M700 100h100v100H700z"/><path fill="#dbded1" d="M0 200h100v100H0z"/><path fill="#6c5d38" d="M100 200h100v100H100z"/><path fill="#7d6754" d="M200 200h100v100H200z"/><path fill="#8c8f7a" d="M300 200h100v100H300z"/><path fill="#88a363" d="M400 200h100v100H400z"/><path fill="#849360" d="M500 200h100v100H500z"/><path fill="#687b52" d="M600 200h100v100H600z"/><path fill="#cdd8cf" d="M700 200h100v100H700z"/><path fill="#d7d8c6" d="M0 300h100v100H0z"/><path fill="#644d2a" d="M100 300h100v100H100z"/><path fill="#865441" d="M200 300h100v100H200z"/><path fill="#83564a" d="M300 300h100v100H300z"/><path fill="#876c4f" d="M400 300h100v100H400z"/><path fill="#a99164" d="M500 300h100v100H500z"/><path fill="#6f613c" d="M600 300h100v100H600z"/><path fill="#bac2b4" d="M700 300h100v100H700z"/><path fill="#eddfd7" d="M0 400h100v100H0z"/><path fill="#bf8678" d="M100 400h100v100H100z"/><path fill="#bf9387" d="M200 400h100v100H200z"/><path fill="#af8685" d="M300 400h100v100H300z"/><path fill="#a77e86" d="M400 400h100v100H400z"/><path fill="#cda89a" d="M500 400h100v100H500z"/><path fill="#bf9e86" d="M600 400h100v100H600z"/><path fill="#e1d9d0" d="M700 400h100v100H700z"/></svg>