<svg xmlns="http://www.w3.org/2000/svg" viewBox="0 0 800 400"><defs/><path fill="#9f604d" d="M0 0h100v100H0z"/><path fill="#685741" d="M100 0h100v100H100z"/><path fill="#b7a998" d="M200 0h100v100H200z"/><path fill="#c3c2b2" d="M300 0h100v100H300z"/><path fill="#958f84" d="M400 0h100v100H400z"/><path fill="#7d7c76" d="M500 0h100v100H500z"/><path fill="#8a8d8b" d="M600 0h100v100H600z"/><path fill="#967165" d="M700 0h100v100H700z"/><path fill="#97614c" d="M0 100h100v100H0z"/><path fill="#877d69" d="M100 100h100v100H100z"/><path fill="#958e87" d="M200 100h100v100H200z"/><path fill="#b1a699" d="M300 100h100v100H300z"/><path fill="#9d9c95" d="M400 100h100v100H400z"/><path fill="#4c4845" d="M500 100h100v100H500z"/><path fill="#6e6c68" d="M600 100h100v100H600z"/><path fill="#9b7569" d="M700 100h100v100H700z"/><path fill="#855e4a" d="M0 200h100v100H0z"/><path fill="#8c7d69" d="M100 200h100v100H100z"/><path fill="#bcafa8" d="M200 200h100v100H200z"/><path fill="#c8c3b9" d="M300 200h100v100H300z"/><path fill="#b5a290" d="M400 200h100v100H400z"/><path fill="#6b615b" d="M500 200h100v100H500z"/><path fill="#616361" d="M600 200h100v100H600z"/><path fill="#8d7065" d="M700 200h100v100H700z"/><path fill="#756251" d="M0 300h100v100H0z"/><path fill="#8f7b6d" d="M100 300h100v100H100z"/><path fill="#d4bdb3" d="M200 300h100v100H200z"/><path fill="#dfdac8" d="M300 300h100v100H300z"/><path fill="#b1a38c" d="M400 300h100v100H400z"/><path fill="#767068" d="M500 300h100v100H500z"/><path fill="#6c6961" d="M600 300h100v100H600z"/><path fill="#898074" d="M700 300h100v100H700z"/></svg>