<svg xmlns="http://www.w3.org/2000/svg" viewBox="0 0 800 500"><defs/><path fill="#f2e0d9" d="M0 0h100v100H0z"/><path fill="#dcccc6" d="M100 0h100v100H100z"/><path fill="#edd9cf" d="M200 0h100v100H200z"/><path fill="#f7f1ee" d="M300 0h100v100H300z"/><path fill="#fcf0f0" d="M400 0h100v100H400z"/><path fill="#feecec" d="M500 0h100v100H500z"/><path fill="#fde8ea" d="M600 0h100v100H600z"/><path fill="#fbe4e8" d="M700 0h100v100H700z"/><path fill="#e7d3ca" d="M0 100h100v100H0z"/><path fill="#c6b3aa" d="M100 100h100v100H100z"/><path fill="#d4c4bb" d="M200 100h100v100H200z"/><path fill="#ddf1f0" d="M300 100h100v100H300z"/><path fill="#cdece8" d="M400 100h100v100H400z"/><path fill="#dbd4cd" d="M500 100h100v100H500z"/><path fill="#f0cfd0" d="M600 100h100v100H600z"/><path fill="#e8cccb" d="M700 100h100v100H700z"/><path fill="#d9cdc8" d="M0 200h100v100H0z"/><path fill="#c6b6ab" d="M100 200h100v100H100z"/><path fill="#e1cfc4" d="M200 200h100v100H200z"/><path fill="#f8f1ed" d="M300 200h100v100H300z"/><path fill="#e5e8e4" d="M400 200h100v100H400z"/><path fill="#decbbd" d="M500 200h100v100H500z"/><path fill="#beb3ad" d="M600 200h100v100H600z"/><path fill="#b9b0ac" d="M700 200h100v100H700z"/><path fill="#d9c9c4" d="M0 300h100v100H0z"/><path fill="#b8c1b7" d="M100 300h100v100H100z"/><path fill="#b8c2ba" d="M200 300h100v100H200z"/><path fill="#c6b5b0" d="M300 300h100v100H300z"/><path fill="#bab7b3" d="M400 300h100v100H400z"/><path fill="#aeaaa7" d="M500 300h100v100H500z"/><path fill="#babbb4" d="M600 300h100v100H600z"/><path fill="#b4b0ae" d="M700 300h100v100H700z"/><path fill="#d7c5bf" d="M0 400h100v100H0z"/><path fill="#d8c6ba" d="M100 400h100v100H100z"/><path fill="#dbc8bd" d="M200 400h100v100H200z"/><path fill="#d6c0b6" d="M300 400h100v100H300z"/><path fill="#b5aba8" d="M400 400h100v100H400z"/><path fill="#aea39f" d="M500 400h100v100H500z"/><path fill="#bfaca6" d="M600 400h100v100H600z"/><path fill="#b0aeaf" d="M700 400h100v100H700z"/></svg>