<svg xmlns="http://www.w3.org/2000/svg" viewBox="0 0 800 600"><defs/><path fill="#838581" d="M0 0h100v100H0z"/><path fill="#7d7e79" d="M100 0h100v100H100z"/><path fill="#96968f" d="M200 0h100v100H200z"/><path fill="#94948b" d="M300 0h100v100H300z"/><path fill="#807f76" d="M400 0h100v100H400z"/><path fill="#75746b" d="M500 0h100v100H500z"/><path fill="#67665e" d="M600 0h100v100H600z"/><path fill="#868680" d="M700 0h100v100H700z"/><path fill="#8f918c" d="M0 100h100v100H0z"/><path fill="#8c8d89" d="M100 100h100v100H100z"/><path fill="#b6b8b3" d="M200 100h100v100H200z"/><path fill="#b4b6b0" d="M300 100h100v100H300z"/><path fill="#c3c6c0" d="M400 100h100v100H400z"/><path fill="#a7a9a2" d="M500 100h100v100H500z"/><path fill="#75756e" d="M600 100h100v100H600z"/><path fill="#757570" d="M700 100h100v100H700z"/><path fill="#7d7d78" d="M0 200h100v100H0z"/><path fill="#979893" d="M100 200h100v100H100z"/><path fill="#b4b6b0" d="M200 200h100v100H200z"/><path fill="#9c9d97" d="M300 200h100v100H300z"/><path fill="#b6b9b3" d="M400 200h100v100H400z"/><path fill="#b8bab5" d="M500 200h100v100H500z"/><path fill="#8a8b83" d="M600 200h100v100H600z"/><path fill="#76766f" d="M700 200h100v100H700z"/><path fill="#75756e" d="M0 300h100v100H0z"/><path fill="#a7a8a2" d="M100 300h100v100H100z"/><path fill="#adb0a9" d="M200 300h100v100H200z"/><path fill="#8f908a" d="M300 300h100v100H300z"/><path fill="#8e847e" d="M400 300h100v100H400z"/><path fill="#9e9c96" d="M500 300h100v100H500z"/><path fill="#9d9d96" d="M600 300h100v100H600z"/><path fill="#9a9a91" d="M700 300h100v100H700z"/><path fill="#797973" d="M0 400h100v100H0z"/><path fill="#a3a49f" d="M100 400h100v100H100z"/><path fill="#bbbdb7" d="M200 400h100v100H200z"/><path fill="#c1c3bd" d="M300 400h100v100H300z"/><path fill="#afada6" d="M400 400h100v100H400z"/><path fill="#a9aaa3" d="M500 400h100v100H500z"/><path fill="#bbbcb6" d="M600 400h100v100H600z"/><path fill="#a6a7a1" d="M700 400h100v100H700z"/><path fill="#90918b" d="M0 500h100v100H0z"/><path fill="#c0c3bd" d="M100 500h100v100H100z"/><path fill="#d6d7d2" d="M200 500h100v100H200z"/><path fill="#cfd1cc" d="M300 500h100v100H300z"/><path fill="#e0e3de" d="M400 500h100v100H400z"/><path fill="#dcdfd8" d="M500 500h100v100H500z"/><path fill="#cacbc5" d="M600 500h100v100H600z"/><path fill="#a4a69f" d="M700 500h100v100H700z"/></svg>