<svg xmlns="http://www.w3.org/2000/svg" viewBox="0 0 800 600"><defs/><path fill="#fbfbfb" d="M0 0h100v100H0z"/><path fill="#f5f5f5" d="M100 0h100v100H100z"/><path fill="#f7f7f7" d="M200 0h100v100H200z"/><path fill="#fbfbfb" d="M300 0h100v100H300z"/><path fill="#fafafa" d="M400 0h100v100H400z"/><path fill="#f9f9f9" d="M500 0h100v100H500z"/><path fill="#f6f6f6" d="M600 0h100v100H600z"/><path fill="#f9f9f9" d="M700 0h100v100H700z"/><path fill="#f8f8f8" d="M0 100h100v100H0z"/><path fill="#dcdcdc" d="M100 100h100v100H100z"/><path fill="#f4f4f4" d="M200 100h100v100H200z"/><path fill="#fff" d="M300 100h100v100H300zm100 0h100v100H400z"/><path fill="#eee" d="M500 100h100v100H500z"/><path fill="#ccc" d="M600 100h100v100H600z"/><path fill="#f3f3f3" d="M700 100h100v100H700z"/><path fill="#f5f5f5" d="M0 200h100v100H0z"/><path fill="#e0e0e0" d="M100 200h100v100H100z"/><path fill="#e8e8e8" d="M200 200h100v100H200z"/><path fill="#f2f2f2" d="M300 200h100v100H300z"/><path fill="#fff" d="M400 200h100v100H400z"/><path fill="#f8f8f8" d="M500 200h100v100H500z"/><path fill="#dfdfdf" d="M600 200h100v100H600z"/><path fill="#efefef" d="M700 200h100v100H700z"/><path fill="#eee" d="M0 300h100v100H0z"/><path fill="#d7d7d8" d="M100 300h100v100H100z"/><path fill="#f5f5f3" d="M200 300h100v100H200z"/><path fill="#f2f2f1" d="M300 300h100v100H300z"/><path fill="#f4f3f7" d="M400 300h100v100H400z"/><path fill="#f7f6f9" d="M500 300h100v100H500z"/><path fill="#fbfbfa" d="M600 300h100v100H600z"/><path fill="#e6e6e7" d="M700 300h100v100H700z"/><path fill="#ededeb" d="M0 400h100v100H0z"/><path fill="#b1b3bc" d="M100 400h100v100H100z"/><path fill="#a6a9bb" d="M200 400h100v100H200z"/><path fill="#fcfcfc" d="M300 400h100v100H300z"/><path fill="#edebf1" d="M400 400h100v100H400z"/><path fill="#efecee" d="M500 400h100v100H500z"/><path fill="#fff" d="M600 400h100v100H600z"/><path fill="#f1f1f1" d="M700 400h100v100H700z"/><path fill="#f7f7f7" d="M0 500h100v100H0z"/><path fill="#f3f4f4" d="M100 500h100v100H100z"/><path fill="#e7e7eb" d="M200 500h100v100H200z"/><path fill="#f4f4f4" d="M300 500h100v100H300z"/><path fill="#fbfbfa" d="M400 500h100v100H400zm100 0h100v100H500z"/><path fill="#fafafb" d="M600 500h100v100H600z"/><path fill="#f7f7f6" d="M700 500h100v100H700z"/></svg>