<svg xmlns="http://www.w3.org/2000/svg" viewBox="0 0 800 400"><defs/><path fill="#421339" d="M0 0h100v100H0z"/><path fill="#28157b" d="M100 0h100v100H100z"/><path fill="#65403e" d="M200 0h100v100H200z"/><path fill="#74352d" d="M300 0h100v100H300z"/><path fill="#793331" d="M400 0h100v100H400z"/><path fill="#774c4a" d="M500 0h100v100H500z"/><path fill="#754f52" d="M600 0h100v100H600z"/><path fill="#542633" d="M700 0h100v100H700z"/><path fill="#39134c" d="M0 100h100v100H0z"/><path fill="#341a70" d="M100 100h100v100H100z"/><path fill="#694131" d="M200 100h100v100H200z"/><path fill="#5d403b" d="M300 100h100v100H300z"/><path fill="#58403f" d="M400 100h100v100H400z"/><path fill="#77443d" d="M500 100h100v100H500z"/><path fill="#74617b" d="M600 100h100v100H600z"/><path fill="#55293e" d="M700 100h100v100H700z"/><path fill="#2a0b5f" d="M0 200h100v100H0z"/><path fill="#3a2574" d="M100 200h100v100H100z"/><path fill="#7e4d47" d="M200 200h100v100H200z"/><path fill="#50605a" d="M300 200h100v100H300z"/><path fill="#40655a" d="M400 200h100v100H400z"/><path fill="#754949" d="M500 200h100v100H500z"/><path fill="#715d75" d="M600 200h100v100H600z"/><path fill="#52243e" d="M700 200h100v100H700z"/><path fill="#2a1265" d="M0 300h100v100H0z"/><path fill="#4d428a" d="M100 300h100v100H100z"/><path fill="#817d9b" d="M200 300h100v100H200z"/><path fill="#908f8e" d="M300 300h100v100H300z"/><path fill="#8a7d75" d="M400 300h100v100H400z"/><path fill="#777095" d="M500 300h100v100H500z"/><path fill="#73678b" d="M600 300h100v100H600z"/><path fill="#5a4260" d="M700 300h100v100H700z"/></svg>