<svg xmlns="http://www.w3.org/2000/svg" viewBox="0 0 800 800"><defs/><path fill="#fff" d="M0 0h100v100H0z"/><path fill="#fffefe" d="M100 0h100v100H100zm100 0h100v100H200z"/><path fill="#fff" d="M300 0h100v100H300zm100 0h100v100H400zm100 0h100v100H500zm100 0h100v100H600zm100 0h100v100H700zM0 100h100v100H0z"/><path fill="#fdfeff" d="M100 100h100v100H100z"/><path fill="#fbfcfc" d="M200 100h100v100H200z"/><path fill="#f5f5f5" d="M300 100h100v100H300z"/><path fill="#f1f3f3" d="M400 100h100v100H400z"/><path fill="#f8f9f9" d="M500 100h100v100H500z"/><path fill="#fbfcfd" d="M600 100h100v100H600z"/><path fill="#fefeff" d="M700 100h100v100H700z"/><path fill="#f7f2f1" d="M0 200h100v100H0z"/><path fill="#e8dbd4" d="M100 200h100v100H100z"/><path fill="#dfd2cc" d="M200 200h100v100H200z"/><path fill="#e0dedd" d="M300 200h100v100H300z"/><path fill="#e0d4ce" d="M400 200h100v100H400z"/><path fill="#e4dcda" d="M500 200h100v100H500z"/><path fill="#ebe0d7" d="M600 200h100v100H600z"/><path fill="#f4edeb" d="M700 200h100v100H700z"/><path fill="#f3ecea" d="M0 300h100v100H0z"/><path fill="#e8d6ca" d="M100 300h100v100H100z"/><path fill="#ebdbd5" d="M200 300h100v100H200z"/><path fill="#d6cfc0" d="M300 300h100v100H300z"/><path fill="#e1d2c0" d="M400 300h100v100H400z"/><path fill="#e5e0de" d="M500 300h100v100H500z"/><path fill="#f1e1d5" d="M600 300h100v100H600z"/><path fill="#f7eae7" d="M700 300h100v100H700z"/><path fill="#faf1ef" d="M0 400h100v100H0z"/><path fill="#dfd3c1" d="M100 400h100v100H100z"/><path fill="#a5a28f" d="M200 400h100v100H200z"/><path fill="#c0bbb5" d="M300 400h100v100H300z"/><path fill="#b9bfb7" d="M400 400h100v100H400z"/><path fill="#c4c1ba" d="M500 400h100v100H500z"/><path fill="#b4a9a9" d="M600 400h100v100H600z"/><path fill="#f2e7e5" d="M700 400h100v100H700z"/><path fill="#fcf8f6" d="M0 500h100v100H0z"/><path fill="#ddd5c9" d="M100 500h100v100H100z"/><path fill="#a4a79e" d="M200 500h100v100H200z"/><path fill="#709ba7" d="M300 500h100v100H300z"/><path fill="#65949e" d="M400 500h100v100H400z"/><path fill="#beb3b0" d="M500 500h100v100H500z"/><path fill="#b2b5b4" d="M600 500h100v100H600z"/><path fill="#ededed" d="M700 500h100v100H700z"/><path fill="#feffff" d="M0 600h100v100H0z"/><path fill="#fdfefe" d="M100 600h100v100H100z"/><path fill="#feffff" d="M200 600h100v100H200zm100 0h100v100H300z"/><path fill="#fff" d="M400 600h100v100H400z"/><path fill="#fcfcfc" d="M500 600h100v100H500z"/><path fill="#fcfcfb" d="M600 600h100v100H600z"/><path fill="#fffefe" d="M700 600h100v100H700z"/><path fill="#fff" d="M0 700h100v100H0z"/><path fill="#fefefe" d="M100 700h100v100H100z"/><path fill="#fefefd" d="M200 700h100v100H200z"/><path fill="#fff" d="M300 700h100v100H300zm100 0h100v100H400zm100 0h100v100H500zm100 0h100v100H600zm100 0h100v100H700z"/></svg>