<svg xmlns="http://www.w3.org/2000/svg" viewBox="0 0 800 500"><defs/><path fill="#cad1e6" d="M0 0h100v100H0z"/><path fill="#b5a794" d="M100 0h100v100H100z"/><path fill="#b8b9c0" d="M200 0h100v100H200z"/><path fill="#b2bac8" d="M300 0h100v100H300z"/><path fill="#b1b5be" d="M400 0h100v100H400z"/><path fill="#c5cee2" d="M500 0h100v100H500z"/><path fill="#ccd4ec" d="M600 0h100v100H600z"/><path fill="#c3cae2" d="M700 0h100v100H700z"/><path fill="#adafae" d="M0 100h100v100H0z"/><path fill="#ae9f88" d="M100 100h100v100H100z"/><path fill="#aeb2b2" d="M200 100h100v100H200z"/><path fill="#9f9684" d="M300 100h100v100H300z"/><path fill="#9c8f77" d="M400 100h100v100H400z"/><path fill="#a69ca6" d="M500 100h100v100H500z"/><path fill="#acabd7" d="M600 100h100v100H600z"/><path fill="#8a8198" d="M700 100h100v100H700z"/><path fill="#c7ccd2" d="M0 200h100v100H0z"/><path fill="#a3997d" d="M100 200h100v100H100z"/><path fill="#9ea27f" d="M200 200h100v100H200z"/><path fill="#91826e" d="M300 200h100v100H300z"/><path fill="#a2977b" d="M400 200h100v100H400z"/><path fill="#bcb0a8" d="M500 200h100v100H500z"/><path fill="#bdbfd9" d="M600 200h100v100H600z"/><path fill="#b0b5c3" d="M700 200h100v100H700z"/><path fill="#bbb4b4" d="M0 300h100v100H0z"/><path fill="#bdac85" d="M100 300h100v100H100z"/><path fill="#b0afaa" d="M200 300h100v100H200z"/><path fill="#848596" d="M300 300h100v100H300z"/><path fill="#9798a2" d="M400 300h100v100H400z"/><path fill="#8d95a5" d="M500 300h100v100H500z"/><path fill="#c2c2ad" d="M600 300h100v100H600z"/><path fill="#d4d2c9" d="M700 300h100v100H700z"/><path fill="#cec7b2" d="M0 400h100v100H0z"/><path fill="#d0c9ae" d="M100 400h100v100H100z"/><path fill="#949fc4" d="M200 400h100v100H200z"/><path fill="#8690b6" d="M300 400h100v100H300z"/><path fill="#8590b8" d="M400 400h100v100H400z"/><path fill="#7682a1" d="M500 400h100v100H500z"/><path fill="#adaea7" d="M600 400h100v100H600z"/><path fill="#e7e0c2" d="M700 400h100v100H700z"/></svg>