<svg xmlns="http://www.w3.org/2000/svg" viewBox="0 0 800 800"><defs/><path fill="#3b2d1b" d="M0 0h100v100H0z"/><path fill="#362419" d="M100 0h100v100H100z"/><path fill="#4d3120" d="M200 0h100v100H200z"/><path fill="#372821" d="M300 0h100v100H300z"/><path fill="#242326" d="M400 0h100v100H400z"/><path fill="#372f2d" d="M500 0h100v100H500z"/><path fill="#46322c" d="M600 0h100v100H600z"/><path fill="#3c2e2d" d="M700 0h100v100H700z"/><path fill="#854c24" d="M0 100h100v100H0z"/><path fill="#603621" d="M100 100h100v100H100z"/><path fill="#4f2d20" d="M200 100h100v100H200z"/><path fill="#402b1f" d="M300 100h100v100H300z"/><path fill="#422d26" d="M400 100h100v100H400z"/><path fill="#62473a" d="M500 100h100v100H500z"/><path fill="#6a4e3f" d="M600 100h100v100H600z"/><path fill="#584036" d="M700 100h100v100H700z"/><path fill="#a27d50" d="M0 200h100v100H0z"/><path fill="#a9835b" d="M100 200h100v100H100z"/><path fill="#a37a56" d="M200 200h100v100H200z"/><path fill="#94745b" d="M300 200h100v100H300z"/><path fill="#736059" d="M400 200h100v100H400z"/><path fill="#948881" d="M500 200h100v100H500z"/><path fill="#9a8f8a" d="M600 200h100v100H600z"/><path fill="#92857f" d="M700 200h100v100H700z"/><path fill="#a77f5b" d="M0 300h100v100H0z"/><path fill="#a08766" d="M100 300h100v100H100z"/><path fill="#a27b5c" d="M200 300h100v100H200z"/><path fill="#a38269" d="M300 300h100v100H300z"/><path fill="#a38d7d" d="M400 300h100v100H400z"/><path fill="#92847f" d="M500 300h100v100H500z"/><path fill="#84807c" d="M600 300h100v100H600z"/><path fill="#97807e" d="M700 300h100v100H700z"/><path fill="#a3815f" d="M0 400h100v100H0z"/><path fill="#a38669" d="M100 400h100v100H100z"/><path fill="#9d866c" d="M200 400h100v100H200z"/><path fill="#9b8169" d="M300 400h100v100H300z"/><path fill="#8d7f6b" d="M400 400h100v100H400z"/><path fill="#958273" d="M500 400h100v100H500z"/><path fill="#928473" d="M600 400h100v100H600z"/><path fill="#92796d" d="M700 400h100v100H700z"/><path fill="#967e60" d="M0 500h100v100H0z"/><path fill="#a18365" d="M100 500h100v100H100z"/><path fill="#9d8164" d="M200 500h100v100H200z"/><path fill="#9e7f66" d="M300 500h100v100H300z"/><path fill="#9c7b60" d="M400 500h100v100H400z"/><path fill="#987e66" d="M500 500h100v100H500z"/><path fill="#917a64" d="M600 500h100v100H600z"/><path fill="#8d7563" d="M700 500h100v100H700z"/><path fill="#917c5c" d="M0 600h100v100H0z"/><path fill="#9c7b58" d="M100 600h100v100H100z"/><path fill="#9e7359" d="M200 600h100v100H200z"/><path fill="#9b7a5f" d="M300 600h100v100H300z"/><path fill="#97725b" d="M400 600h100v100H400z"/><path fill="#967a63" d="M500 600h100v100H500z"/><path fill="#7e6b58" d="M600 600h100v100H600z"/><path fill="#826957" d="M700 600h100v100H700z"/><path fill="#a08059" d="M0 700h100v100H0z"/><path fill="#a0805b" d="M100 700h100v100H100z"/><path fill="#9f7e5d" d="M200 700h100v100H200z"/><path fill="#9b7c5f" d="M300 700h100v100H300z"/><path fill="#9a7c61" d="M400 700h100v100H400z"/><path fill="#977860" d="M500 700h100v100H500z"/><path fill="#89715c" d="M600 700h100v100H600z"/><path fill="#8a6f59" d="M700 700h100v100H700z"/></svg>