<svg xmlns="http://www.w3.org/2000/svg" viewBox="0 0 800 600"><defs/><path fill="#4d524f" d="M0 0h100v100H0z"/><path fill="#6d716b" d="M100 0h100v100H100z"/><path fill="#828273" d="M200 0h100v100H200z"/><path fill="#8d8c7b" d="M300 0h100v100H300z"/><path fill="#8c8d7c" d="M400 0h100v100H400z"/><path fill="#858578" d="M500 0h100v100H500z"/><path fill="#534a46" d="M600 0h100v100H600z"/><path fill="#664543" d="M700 0h100v100H700z"/><path fill="#888a7c" d="M0 100h100v100H0z"/><path fill="#b5af9d" d="M100 100h100v100H100z"/><path fill="#9a907b" d="M200 100h100v100H200z"/><path fill="#927161" d="M300 100h100v100H300z"/><path fill="#9b705e" d="M400 100h100v100H400z"/><path fill="#755c47" d="M500 100h100v100H500z"/><path fill="#493f33" d="M600 100h100v100H600z"/><path fill="#574c4a" d="M700 100h100v100H700z"/><path fill="#72756f" d="M0 200h100v100H0z"/><path fill="#857e76" d="M100 200h100v100H100z"/><path fill="#6e4037" d="M200 200h100v100H200z"/><path fill="#a76153" d="M300 200h100v100H300z"/><path fill="#9e5344" d="M400 200h100v100H400z"/><path fill="#5b3728" d="M500 200h100v100H500z"/><path fill="#4e534c" d="M600 200h100v100H600z"/><path fill="#49514e" d="M700 200h100v100H700z"/><path fill="#6d716f" d="M0 300h100v100H0z"/><path fill="#9f9088" d="M100 300h100v100H100z"/><path fill="#4f5f41" d="M200 300h100v100H200z"/><path fill="#6f4c3e" d="M300 300h100v100H300z"/><path fill="#9e7c6c" d="M400 300h100v100H400z"/><path fill="#7a7f6e" d="M500 300h100v100H500z"/><path fill="#5b524d" d="M600 300h100v100H600z"/><path fill="#414643" d="M700 300h100v100H700z"/><path fill="#757b79" d="M0 400h100v100H0z"/><path fill="#847773" d="M100 400h100v100H100z"/><path fill="#5b674a" d="M200 400h100v100H200z"/><path fill="#4c6145" d="M300 400h100v100H300z"/><path fill="#88917a" d="M400 400h100v100H400z"/><path fill="#7d8b77" d="M500 400h100v100H500z"/><path fill="#aab6a8" d="M600 400h100v100H600z"/><path fill="#878b85" d="M700 400h100v100H700z"/><path fill="#40403e" d="M0 500h100v100H0z"/><path fill="#4c4c46" d="M100 500h100v100H100z"/><path fill="#6d4c47" d="M200 500h100v100H200z"/><path fill="#896058" d="M300 500h100v100H300z"/><path fill="#875c55" d="M400 500h100v100H400z"/><path fill="#68514a" d="M500 500h100v100H500z"/><path fill="#999e9a" d="M600 500h100v100H600z"/><path fill="#817e7c" d="M700 500h100v100H700z"/></svg>