<svg xmlns="http://www.w3.org/2000/svg" viewBox="0 0 800 600"><defs/><path fill="#e2d1be" d="M0 0h100v100H0z"/><path fill="#e2d1c1" d="M100 0h100v100H100z"/><path fill="#d7c5b5" d="M200 0h100v100H200z"/><path fill="#dac8b7" d="M300 0h100v100H300z"/><path fill="#dccbba" d="M400 0h100v100H400z"/><path fill="#d4c2ad" d="M500 0h100v100H500z"/><path fill="#d0beaa" d="M600 0h100v100H600z"/><path fill="#cbb9a4" d="M700 0h100v100H700z"/><path fill="#dac9b8" d="M0 100h100v100H0z"/><path fill="#ccbbac" d="M100 100h100v100H100z"/><path fill="#dbcaba" d="M200 100h100v100H200z"/><path fill="#dfcebc" d="M300 100h100v100H300z"/><path fill="#dfcdbc" d="M400 100h100v100H400z"/><path fill="#c5b3a0" d="M500 100h100v100H500z"/><path fill="#c3b19d" d="M600 100h100v100H600z"/><path fill="#bdaa96" d="M700 100h100v100H700z"/><path fill="#d9c9b7" d="M0 200h100v100H0z"/><path fill="#c5b5a3" d="M100 200h100v100H100z"/><path fill="#d4c3b0" d="M200 200h100v100H200z"/><path fill="#c0b3a3" d="M300 200h100v100H300z"/><path fill="#cfbfae" d="M400 200h100v100H400z"/><path fill="#c7b5a3" d="M500 200h100v100H500z"/><path fill="#c3b19c" d="M600 200h100v100H600z"/><path fill="#c7b4a0" d="M700 200h100v100H700z"/><path fill="#dbc8b6" d="M0 300h100v100H0z"/><path fill="#d1bfad" d="M100 300h100v100H100z"/><path fill="#c9b9a7" d="M200 300h100v100H200z"/><path fill="#c3b8a6" d="M300 300h100v100H300z"/><path fill="#b6a898" d="M400 300h100v100H400z"/><path fill="#baa998" d="M500 300h100v100H500z"/><path fill="#b3a28f" d="M600 300h100v100H600z"/><path fill="#af9d8a" d="M700 300h100v100H700z"/><path fill="#c8b8a6" d="M0 400h100v100H0z"/><path fill="#b5a593" d="M100 400h100v100H100z"/><path fill="#baab9a" d="M200 400h100v100H200z"/><path fill="#bdb09e" d="M300 400h100v100H300z"/><path fill="#a29584" d="M400 400h100v100H400z"/><path fill="#ab9a89" d="M500 400h100v100H500z"/><path fill="#9d8d7d" d="M600 400h100v100H600z"/><path fill="#9d8d7a" d="M700 400h100v100H700z"/><path fill="#a99a88" d="M0 500h100v100H0z"/><path fill="#b2a392" d="M100 500h100v100H100z"/><path fill="#b9aa9a" d="M200 500h100v100H200z"/><path fill="#b6a596" d="M300 500h100v100H300z"/><path fill="#c0af9f" d="M400 500h100v100H400z"/><path fill="#bead9c" d="M500 500h100v100H500z"/><path fill="#b9a897" d="M600 500h100v100H600z"/><path fill="#aa9884" d="M700 500h100v100H700z"/></svg>