<svg xmlns="http://www.w3.org/2000/svg" viewBox="0 0 800 500"><defs/><path fill="#dcabf0" d="M0 0h100v100H0z"/><path fill="#ddaceb" d="M100 0h100v100H100z"/><path fill="#cb99d7" d="M200 0h100v100H200z"/><path fill="#a074af" d="M300 0h100v100H300z"/><path fill="#b184be" d="M400 0h100v100H400z"/><path fill="#ae81bb" d="M500 0h100v100H500z"/><path fill="#c488d2" d="M600 0h100v100H600z"/><path fill="#d7a0e7" d="M700 0h100v100H700z"/><path fill="#e3b4fa" d="M0 100h100v100H0z"/><path fill="#e8baf2" d="M100 100h100v100H100z"/><path fill="#d3a8e0" d="M200 100h100v100H200z"/><path fill="#c3a6ce" d="M300 100h100v100H300z"/><path fill="#ccafd4" d="M400 100h100v100H400z"/><path fill="#9a85aa" d="M500 100h100v100H500z"/><path fill="#d099dd" d="M600 100h100v100H600z"/><path fill="#dda8ee" d="M700 100h100v100H700z"/><path fill="#eabafe" d="M0 200h100v100H0z"/><path fill="#ecc3f3" d="M100 200h100v100H100z"/><path fill="#deb1eb" d="M200 200h100v100H200z"/><path fill="#d1abde" d="M300 200h100v100H300z"/><path fill="#bf9acf" d="M400 200h100v100H400z"/><path fill="#b08ac2" d="M500 200h100v100H500z"/><path fill="#ce94df" d="M600 200h100v100H600z"/><path fill="#dca6f1" d="M700 200h100v100H700z"/><path fill="#eebdfe" d="M0 300h100v100H0z"/><path fill="#f4cefd" d="M100 300h100v100H100z"/><path fill="#e7b9f8" d="M200 300h100v100H200z"/><path fill="#deacf4" d="M300 300h100v100H300z"/><path fill="#e3b2f8" d="M400 300h100v100H400z"/><path fill="#e7b5fa" d="M500 300h100v100H500z"/><path fill="#dfadf5" d="M600 300h100v100H600z"/><path fill="#e1aff7" d="M700 300h100v100H700z"/><path fill="#e6c0fb" d="M0 400h100v100H0z"/><path fill="#e5bffd" d="M100 400h100v100H100z"/><path fill="#edceff" d="M200 400h100v100H200z"/><path fill="#f0d7ff" d="M300 400h100v100H300z"/><path fill="#e8c6ff" d="M400 400h100v100H400z"/><path fill="#e6c6ff" d="M500 400h100v100H500z"/><path fill="#e5c3fc" d="M600 400h100v100H600z"/><path fill="#e3bffa" d="M700 400h100v100H700z"/></svg>