<svg xmlns="http://www.w3.org/2000/svg" viewBox="0 0 800 500"><defs/><path fill="#afafaf" d="M0 0h100v100H0z"/><path fill="#aeaeae" d="M100 0h100v100H100z"/><path fill="#adadad" d="M200 0h100v100H200z"/><path fill="#aaa" d="M300 0h100v100H300z"/><path fill="#b8b8b8" d="M400 0h100v100H400z"/><path fill="#b9b9b9" d="M500 0h100v100H500z"/><path fill="#d0d0d0" d="M600 0h100v100H600z"/><path fill="#ddd" d="M700 0h100v100H700z"/><path fill="#b6b6b6" d="M0 100h100v100H0z"/><path fill="silver" d="M100 100h100v100H100z"/><path fill="#b6b6b6" d="M200 100h100v100H200z"/><path fill="#b9b9b9" d="M300 100h100v100H300z"/><path fill="#c6c6c6" d="M400 100h100v100H400z"/><path fill="#bdbdbd" d="M500 100h100v100H500z"/><path fill="#c2c2c2" d="M600 100h100v100H600z"/><path fill="#919191" d="M700 100h100v100H700z"/><path fill="#c8c8c8" d="M0 200h100v100H0z"/><path fill="#c2c2c2" d="M100 200h100v100H100z"/><path fill="#d0d0d0" d="M200 200h100v100H200z"/><path fill="#ebebeb" d="M300 200h100v100H300z"/><path fill="#c6c6c6" d="M400 200h100v100H400z"/><path fill="#d2d2d2" d="M500 200h100v100H500z"/><path fill="#d4d4d4" d="M600 200h100v100H600z"/><path fill="#9d9d9d" d="M700 200h100v100H700z"/><path fill="#c7c7c7" d="M0 300h100v100H0z"/><path fill="#c3c3c3" d="M100 300h100v100H100z"/><path fill="#bdbdbd" d="M200 300h100v100H200z"/><path fill="#cbcbcb" d="M300 300h100v100H300z"/><path fill="#c2c2c2" d="M400 300h100v100H400z"/><path fill="silver" d="M500 300h100v100H500z"/><path fill="#cfcfcf" d="M600 300h100v100H600z"/><path fill="#e0e0e0" d="M700 300h100v100H700z"/><path fill="#d4d4d4" d="M0 400h100v100H0z"/><path fill="#a7a7a7" d="M100 400h100v100H100z"/><path fill="#b2b2b2" d="M200 400h100v100H200z"/><path fill="#cecece" d="M300 400h100v100H300z"/><path fill="#c3c3c3" d="M400 400h100v100H400z"/><path fill="#ddd" d="M500 400h100v100H500z"/><path fill="#c5c5c5" d="M600 400h100v100H600z"/><path fill="#b9b9b9" d="M700 400h100v100H700z"/></svg>