<svg xmlns="http://www.w3.org/2000/svg" viewBox="0 0 800 500"><defs/><path fill="#415047" d="M0 0h100v100H0z"/><path fill="#3e493e" d="M100 0h100v100H100z"/><path fill="#5a715e" d="M200 0h100v100H200z"/><path fill="#81a797" d="M300 0h100v100H300z"/><path fill="#85ae96" d="M400 0h100v100H400z"/><path fill="#74917c" d="M500 0h100v100H500z"/><path fill="#789d7f" d="M600 0h100v100H600z"/><path fill="#8eb99a" d="M700 0h100v100H700z"/><path fill="#404940" d="M0 100h100v100H0z"/><path fill="#444137" d="M100 100h100v100H100z"/><path fill="#526a5b" d="M200 100h100v100H200z"/><path fill="#687f74" d="M300 100h100v100H300z"/><path fill="#84a18c" d="M400 100h100v100H400z"/><path fill="#898e7a" d="M500 100h100v100H500z"/><path fill="#807a68" d="M600 100h100v100H600z"/><path fill="#7eaa85" d="M700 100h100v100H700z"/><path fill="#444e44" d="M0 200h100v100H0z"/><path fill="#44493a" d="M100 200h100v100H100z"/><path fill="#716452" d="M200 200h100v100H200z"/><path fill="#8b6654" d="M300 200h100v100H300z"/><path fill="#564850" d="M400 200h100v100H400z"/><path fill="#666161" d="M500 200h100v100H500z"/><path fill="#68363f" d="M600 200h100v100H600z"/><path fill="#5f6e61" d="M700 200h100v100H700z"/><path fill="#47463a" d="M0 300h100v100H0z"/><path fill="#6b6653" d="M100 300h100v100H100z"/><path fill="#7c6d5e" d="M200 300h100v100H200z"/><path fill="#624e3e" d="M300 300h100v100H300z"/><path fill="#665447" d="M400 300h100v100H400z"/><path fill="#72645e" d="M500 300h100v100H500z"/><path fill="#553a39" d="M600 300h100v100H600z"/><path fill="#201a1b" d="M700 300h100v100H700z"/><path fill="#726051" d="M0 400h100v100H0z"/><path fill="#8b7a68" d="M100 400h100v100H100z"/><path fill="#778573" d="M200 400h100v100H200z"/><path fill="#4a5449" d="M300 400h100v100H300z"/><path fill="#6d675a" d="M400 400h100v100H400z"/><path fill="#9e8772" d="M500 400h100v100H500z"/><path fill="#6d6051" d="M600 400h100v100H600z"/><path fill="#26211c" d="M700 400h100v100H700z"/></svg>