<svg xmlns="http://www.w3.org/2000/svg" viewBox="0 0 800 600"><defs/><path fill="#f6f6f6" d="M0 0h100v100H0z"/><path fill="#f2f2f2" d="M100 0h100v100H100z"/><path fill="#f7f7f7" d="M200 0h100v100H200z"/><path fill="#f5f5f5" d="M300 0h100v100H300z"/><path fill="#f1f1f1" d="M400 0h100v100H400z"/><path fill="#f9f9f9" d="M500 0h100v100H500z"/><path fill="#f8f8f8" d="M600 0h100v100H600zm100 0h100v100H700z"/><path fill="#d7d7d7" d="M0 100h100v100H0z"/><path fill="#ccc" d="M100 100h100v100H100z"/><path fill="#c7c7c7" d="M200 100h100v100H200z"/><path fill="#cbcbcb" d="M300 100h100v100H300z"/><path fill="#b9b9b9" d="M400 100h100v100H400z"/><path fill="#dedede" d="M500 100h100v100H500z"/><path fill="#e1e1e1" d="M600 100h100v100H600z"/><path fill="#dcdcdc" d="M700 100h100v100H700z"/><path fill="#ddd" d="M0 200h100v100H0z"/><path fill="#d3d3d3" d="M100 200h100v100H100zm100 0h100v100H200z"/><path fill="#bfbfbf" d="M300 200h100v100H300z"/><path fill="#b5b5b5" d="M400 200h100v100H400z"/><path fill="#c6c6c6" d="M500 200h100v100H500z"/><path fill="#e2e2e2" d="M600 200h100v100H600z"/><path fill="#dadada" d="M700 200h100v100H700z"/><path fill="#eaeaea" d="M0 300h100v100H0z"/><path fill="#d7d7d7" d="M100 300h100v100H100z"/><path fill="#f9f9f9" d="M200 300h100v100H200z"/><path fill="#bcbcbc" d="M300 300h100v100H300z"/><path fill="#ccc" d="M400 300h100v100H400z"/><path fill="#d0d0d0" d="M500 300h100v100H500z"/><path fill="#e4e4e4" d="M600 300h100v100H600z"/><path fill="#d4d4d4" d="M700 300h100v100H700z"/><path fill="#dfdfdf" d="M0 400h100v100H0z"/><path fill="#d7d7d7" d="M100 400h100v100H100z"/><path fill="#efefef" d="M200 400h100v100H200z"/><path fill="#e2e2e2" d="M300 400h100v100H300z"/><path fill="#d6d6d6" d="M400 400h100v100H400z"/><path fill="#c7c7c7" d="M500 400h100v100H500z"/><path fill="#d4d4d4" d="M600 400h100v100H600z"/><path fill="#cdcdcd" d="M700 400h100v100H700z"/><path fill="#f3f3f3" d="M0 500h100v100H0z"/><path fill="#eaeaea" d="M100 500h100v100H100z"/><path fill="#dfdfdf" d="M200 500h100v100H200z"/><path fill="#eee" d="M300 500h100v100H300z"/><path fill="#ebebeb" d="M400 500h100v100H400z"/><path fill="#eaeaea" d="M500 500h100v100H500z"/><path fill="#eee" d="M600 500h100v100H600z"/><path fill="#e9e9e9" d="M700 500h100v100H700z"/></svg>