<svg xmlns="http://www.w3.org/2000/svg" viewBox="0 0 800 400"><defs/><path fill="#858a84" d="M0 0h100v100H0z"/><path fill="#707270" d="M100 0h100v100H100z"/><path fill="#474647" d="M200 0h100v100H200z"/><path fill="#373737" d="M300 0h100v100H300z"/><path fill="#252525" d="M400 0h100v100H400z"/><path fill="#494949" d="M500 0h100v100H500z"/><path fill="#383838" d="M600 0h100v100H600z"/><path fill="#727671" d="M700 0h100v100H700z"/><path fill="#898e88" d="M0 100h100v100H0z"/><path fill="#6b6d6b" d="M100 100h100v100H100z"/><path fill="#585758" d="M200 100h100v100H200z"/><path fill="#434343" d="M300 100h100v100H300z"/><path fill="#2d2d2d" d="M400 100h100v100H400z"/><path fill="#4e4f4f" d="M500 100h100v100H500z"/><path fill="#474947" d="M600 100h100v100H600z"/><path fill="#919490" d="M700 100h100v100H700z"/><path fill="#909590" d="M0 200h100v100H0z"/><path fill="#676765" d="M100 200h100v100H100z"/><path fill="#3e3d3c" d="M200 200h100v100H200z"/><path fill="#403f3d" d="M300 200h100v100H300z"/><path fill="#4f4f4e" d="M400 200h100v100H400z"/><path fill="#3f3e3b" d="M500 200h100v100H500z"/><path fill="#3e3c38" d="M600 200h100v100H600z"/><path fill="#787b77" d="M700 200h100v100H700z"/><path fill="#6d6d67" d="M0 300h100v100H0z"/><path fill="#4d4842" d="M100 300h100v100H100z"/><path fill="#49443e" d="M200 300h100v100H200z"/><path fill="#46413b" d="M300 300h100v100H300z"/><path fill="#474440" d="M400 300h100v100H400z"/><path fill="#48433e" d="M500 300h100v100H500z"/><path fill="#443e38" d="M600 300h100v100H600z"/><path fill="#595751" d="M700 300h100v100H700z"/></svg>