<svg xmlns="http://www.w3.org/2000/svg" viewBox="0 0 800 500"><defs/><path fill="#bbbbb9" d="M0 0h100v100H0z"/><path fill="#babab8" d="M100 0h100v100H100z"/><path fill="#ececeb" d="M200 0h100v100H200z"/><path fill="#f3f3f3" d="M300 0h100v100H300z"/><path fill="#dcdcdb" d="M400 0h100v100H400z"/><path fill="#e8e9e8" d="M500 0h100v100H500z"/><path fill="#d6d6d4" d="M600 0h100v100H600z"/><path fill="#bcbbb9" d="M700 0h100v100H700z"/><path fill="#b9b9b7" d="M0 100h100v100H0z"/><path fill="#c3c2c0" d="M100 100h100v100H100z"/><path fill="#d1d1d0" d="M200 100h100v100H200z"/><path fill="#dedddc" d="M300 100h100v100H300z"/><path fill="#d1d1d0" d="M400 100h100v100H400z"/><path fill="#d9d9d7" d="M500 100h100v100H500z"/><path fill="#d6d6d4" d="M600 100h100v100H600z"/><path fill="#c5c5c3" d="M700 100h100v100H700z"/><path fill="#f3f3f2" d="M0 200h100v100H0z"/><path fill="#e2e2e0" d="M100 200h100v100H100z"/><path fill="#f2f2f2" d="M200 200h100v100H200z"/><path fill="#ececeb" d="M300 200h100v100H300z"/><path fill="#eae9e9" d="M400 200h100v100H400z"/><path fill="#c6c5c3" d="M500 200h100v100H500z"/><path fill="#cccbca" d="M600 200h100v100H600z"/><path fill="#d1d0ce" d="M700 200h100v100H700z"/><path fill="#ececeb" d="M0 300h100v100H0z"/><path fill="#e4e4e3" d="M100 300h100v100H100z"/><path fill="#959491" d="M200 300h100v100H200z"/><path fill="#979693" d="M300 300h100v100H300z"/><path fill="#8c8a87" d="M400 300h100v100H400z"/><path fill="#a5a3a1" d="M500 300h100v100H500z"/><path fill="#d3d3d2" d="M600 300h100v100H600z"/><path fill="#e2e2e1" d="M700 300h100v100H700z"/><path fill="#e0dfde" d="M0 400h100v100H0z"/><path fill="#c4c4c2" d="M100 400h100v100H100z"/><path fill="#959491" d="M200 400h100v100H200z"/><path fill="#8a8885" d="M300 400h100v100H300z"/><path fill="#807e7b" d="M400 400h100v100H400z"/><path fill="#a3a19f" d="M500 400h100v100H500z"/><path fill="#a19f9c" d="M600 400h100v100H600z"/><path fill="#b7b6b4" d="M700 400h100v100H700z"/></svg>