<svg xmlns="http://www.w3.org/2000/svg" viewBox="0 0 800 400"><defs/><path fill="#221716" d="M0 0h100v100H0z"/><path fill="#593934" d="M100 0h100v100H100z"/><path fill="#917469" d="M200 0h100v100H200z"/><path fill="#c7a697" d="M300 0h100v100H300z"/><path fill="#c4a392" d="M400 0h100v100H400z"/><path fill="#b4a38d" d="M500 0h100v100H500z"/><path fill="#c2a38c" d="M600 0h100v100H600z"/><path fill="#e9e6bc" d="M700 0h100v100H700z"/><path fill="#33211f" d="M0 100h100v100H0z"/><path fill="#553832" d="M100 100h100v100H100z"/><path fill="#806459" d="M200 100h100v100H200z"/><path fill="#957669" d="M300 100h100v100H300z"/><path fill="#b48f80" d="M400 100h100v100H400z"/><path fill="#d6c4ad" d="M500 100h100v100H500z"/><path fill="#c0af85" d="M600 100h100v100H600z"/><path fill="#d2cb95" d="M700 100h100v100H700z"/><path fill="#291d1a" d="M0 200h100v100H0z"/><path fill="#4c322c" d="M100 200h100v100H100z"/><path fill="#7f665f" d="M200 200h100v100H200z"/><path fill="#90665f" d="M300 200h100v100H300z"/><path fill="#866057" d="M400 200h100v100H400z"/><path fill="#d1baa6" d="M500 200h100v100H500z"/><path fill="#a39176" d="M600 200h100v100H600z"/><path fill="#997855" d="M700 200h100v100H700z"/><path fill="#151010" d="M0 300h100v100H0z"/><path fill="#5a4541" d="M100 300h100v100H100z"/><path fill="#907570" d="M200 300h100v100H200z"/><path fill="#8f574c" d="M300 300h100v100H300z"/><path fill="#744d42" d="M400 300h100v100H400z"/><path fill="#c4ad93" d="M500 300h100v100H500z"/><path fill="#d4bdb1" d="M600 300h100v100H600z"/><path fill="#b2a087" d="M700 300h100v100H700z"/></svg>