<svg xmlns="http://www.w3.org/2000/svg" viewBox="0 0 800 400"><defs/><path fill="#abacb9" d="M0 0h100v100H0z"/><path fill="#877f86" d="M100 0h100v100H100z"/><path fill="#b689b8" d="M200 0h100v100H200z"/><path fill="#9aaa9f" d="M300 0h100v100H300z"/><path fill="#e0bed9" d="M400 0h100v100H400z"/><path fill="#c4cac4" d="M500 0h100v100H500z"/><path fill="#c2dbc1" d="M600 0h100v100H600z"/><path fill="#b3b3b1" d="M700 0h100v100H700z"/><path fill="#57849a" d="M0 100h100v100H0z"/><path fill="#6c6c87" d="M100 100h100v100H100z"/><path fill="#6c7183" d="M200 100h100v100H200z"/><path fill="#456865" d="M300 100h100v100H300z"/><path fill="#8a70a4" d="M400 100h100v100H400z"/><path fill="#6d7e89" d="M500 100h100v100H500z"/><path fill="#8b9193" d="M600 100h100v100H600z"/><path fill="#528a77" d="M700 100h100v100H700z"/><path fill="#2b455e" d="M0 200h100v100H0z"/><path fill="#295943" d="M100 200h100v100H100z"/><path fill="#3a365f" d="M200 200h100v100H200z"/><path fill="#5c2591" d="M300 200h100v100H300z"/><path fill="#6f5e6b" d="M400 200h100v100H400z"/><path fill="#2b4346" d="M500 200h100v100H500z"/><path fill="#371a50" d="M600 200h100v100H600z"/><path fill="#284d3a" d="M700 200h100v100H700z"/><path fill="#021a2a" d="M0 300h100v100H0z"/><path fill="#223a44" d="M100 300h100v100H100z"/><path fill="#7a4a76" d="M200 300h100v100H200z"/><path fill="#8d1c89" d="M300 300h100v100H300z"/><path fill="#aa6284" d="M400 300h100v100H400z"/><path fill="#695f6b" d="M500 300h100v100H500z"/><path fill="#000f22" d="M600 300h100v100H600z"/><path fill="#1a3037" d="M700 300h100v100H700z"/></svg>