<svg xmlns="http://www.w3.org/2000/svg" viewBox="0 0 800 400"><defs/><path fill="#c4c4c4" d="M0 0h100v100H0z"/><path fill="#c1c1c1" d="M100 0h100v100H100z"/><path fill="#b8b8b8" d="M200 0h100v100H200z"/><path fill="#bdbdbd" d="M300 0h100v100H300z"/><path fill="#ccc" d="M400 0h100v100H400z"/><path fill="#c8c8c8" d="M500 0h100v100H500z"/><path fill="#c4c4c4" d="M600 0h100v100H600z"/><path fill="#bababa" d="M700 0h100v100H700z"/><path fill="#cdcdcd" d="M0 100h100v100H0z"/><path fill="#cecece" d="M100 100h100v100H100z"/><path fill="silver" d="M200 100h100v100H200z"/><path fill="#c6c6c6" d="M300 100h100v100H300z"/><path fill="#dedede" d="M400 100h100v100H400z"/><path fill="#d0d0d0" d="M500 100h100v100H500z"/><path fill="#c6c6c6" d="M600 100h100v100H600z"/><path fill="#c4c4c4" d="M700 100h100v100H700z"/><path fill="#ccc" d="M0 200h100v100H0z"/><path fill="#d1d1d1" d="M100 200h100v100H100z"/><path fill="#bababa" d="M200 200h100v100H200z"/><path fill="#d3d3d3" d="M300 200h100v100H300z"/><path fill="#dedede" d="M400 200h100v100H400z"/><path fill="#ccc" d="M500 200h100v100H500z"/><path fill="#cbcbcb" d="M600 200h100v100H600z"/><path fill="#c3c3c3" d="M700 200h100v100H700z"/><path fill="silver" d="M0 300h100v100H0z"/><path fill="#ccc" d="M100 300h100v100H100z"/><path fill="#d9d9d9" d="M200 300h100v100H200z"/><path fill="#ddd" d="M300 300h100v100H300z"/><path fill="#d2d2d2" d="M400 300h100v100H400z"/><path fill="#e1e1e1" d="M500 300h100v100H500z"/><path fill="#dadada" d="M600 300h100v100H600z"/><path fill="#bcbcbc" d="M700 300h100v100H700z"/></svg>