<svg xmlns="http://www.w3.org/2000/svg" viewBox="0 0 800 400"><defs/><path fill="#7e206c" d="M0 0h100v100H0z"/><path fill="#67302f" d="M100 0h100v100H100z"/><path fill="#680700" d="M200 0h100v100H200z"/><path fill="#a81808" d="M300 0h100v100H300z"/><path fill="#df3625" d="M400 0h100v100H400z"/><path fill="#d23120" d="M500 0h100v100H500z"/><path fill="#8a0e00" d="M600 0h100v100H600z"/><path fill="#500936" d="M700 0h100v100H700z"/><path fill="#7d286c" d="M0 100h100v100H0z"/><path fill="#632621" d="M100 100h100v100H100z"/><path fill="#5f0904" d="M200 100h100v100H200z"/><path fill="#8e0700" d="M300 100h100v100H300z"/><path fill="#7c2d1e" d="M400 100h100v100H400z"/><path fill="#a7532d" d="M500 100h100v100H500z"/><path fill="#632313" d="M600 100h100v100H600z"/><path fill="#5a1024" d="M700 100h100v100H700z"/><path fill="#75316a" d="M0 200h100v100H0z"/><path fill="#621d16" d="M100 200h100v100H100z"/><path fill="#61130d" d="M200 200h100v100H200z"/><path fill="#7e3725" d="M300 200h100v100H300z"/><path fill="#5f3230" d="M400 200h100v100H400z"/><path fill="#842d1e" d="M500 200h100v100H500z"/><path fill="#6b1908" d="M600 200h100v100H600z"/><path fill="#581128" d="M700 200h100v100H700z"/><path fill="#772a42" d="M0 300h100v100H0z"/><path fill="#651d14" d="M100 300h100v100H100z"/><path fill="#6e1e17" d="M200 300h100v100H200z"/><path fill="#94503a" d="M300 300h100v100H300z"/><path fill="#853830" d="M400 300h100v100H400z"/><path fill="#790b06" d="M500 300h100v100H500z"/><path fill="#851204" d="M600 300h100v100H600z"/><path fill="#6d0d18" d="M700 300h100v100H700z"/></svg>