<svg xmlns="http://www.w3.org/2000/svg" viewBox="0 0 800 500"><defs/><path fill="#f6e1b9" d="M0 0h100v100H0z"/><path fill="#f8dfb3" d="M100 0h100v100H100z"/><path fill="#c6a582" d="M200 0h100v100H200z"/><path fill="#ccb97e" d="M300 0h100v100H300z"/><path fill="#d9b47a" d="M400 0h100v100H400z"/><path fill="#a87a6f" d="M500 0h100v100H500z"/><path fill="#9c9993" d="M600 0h100v100H600z"/><path fill="#b06c5d" d="M700 0h100v100H700z"/><path fill="#cdb897" d="M0 100h100v100H0z"/><path fill="#d3bea0" d="M100 100h100v100H100z"/><path fill="#ba9e76" d="M200 100h100v100H200z"/><path fill="#d9d59e" d="M300 100h100v100H300z"/><path fill="#b5815a" d="M400 100h100v100H400z"/><path fill="#a77775" d="M500 100h100v100H500z"/><path fill="#8493a2" d="M600 100h100v100H600z"/><path fill="#a35650" d="M700 100h100v100H700z"/><path fill="#b2a185" d="M0 200h100v100H0z"/><path fill="#b99b7c" d="M100 200h100v100H100z"/><path fill="#b6a773" d="M200 200h100v100H200z"/><path fill="#ab9c84" d="M300 200h100v100H300z"/><path fill="#9a7d70" d="M400 200h100v100H400z"/><path fill="#b6987b" d="M500 200h100v100H500z"/><path fill="#dfcd95" d="M600 200h100v100H600z"/><path fill="#be9171" d="M700 200h100v100H700z"/><path fill="#c7b3a2" d="M0 300h100v100H0z"/><path fill="#a4896b" d="M100 300h100v100H100z"/><path fill="#c2ac72" d="M200 300h100v100H200z"/><path fill="#b29b6d" d="M300 300h100v100H300z"/><path fill="#c9b070" d="M400 300h100v100H400z"/><path fill="#c4b373" d="M500 300h100v100H500z"/><path fill="#f4d772" d="M600 300h100v100H600z"/><path fill="#bfb394" d="M700 300h100v100H700z"/><path fill="#b48c66" d="M0 400h100v100H0z"/><path fill="#c9a26d" d="M100 400h100v100H100z"/><path fill="#e8c06b" d="M200 400h100v100H200z"/><path fill="#c3a65e" d="M300 400h100v100H300z"/><path fill="#c3ab55" d="M400 400h100v100H400z"/><path fill="#e0b85c" d="M500 400h100v100H500z"/><path fill="#e8be51" d="M600 400h100v100H600z"/><path fill="#d9b486" d="M700 400h100v100H700z"/></svg>