<svg xmlns="http://www.w3.org/2000/svg" viewBox="0 0 800 600"><defs/><path fill="#8f8f8f" d="M0 0h100v100H0z"/><path fill="#a4a4a5" d="M100 0h100v100H100z"/><path fill="#939395" d="M200 0h100v100H200z"/><path fill="#989899" d="M300 0h100v100H300z"/><path fill="#9b9b9c" d="M400 0h100v100H400z"/><path fill="#9a9a9a" d="M500 0h100v100H500z"/><path fill="#99989a" d="M600 0h100v100H600z"/><path fill="#9e9e9e" d="M700 0h100v100H700z"/><path fill="#b3b3b7" d="M0 100h100v100H0z"/><path fill="#d7d7d8" d="M100 100h100v100H100z"/><path fill="#929194" d="M200 100h100v100H200z"/><path fill="#999899" d="M300 100h100v100H300z"/><path fill="#949495" d="M400 100h100v100H400z"/><path fill="#9d9d9d" d="M500 100h100v100H500z"/><path fill="#848384" d="M600 100h100v100H600z"/><path fill="#7f7f80" d="M700 100h100v100H700z"/><path fill="#d1d1d4" d="M0 200h100v100H0z"/><path fill="#b6b7ba" d="M100 200h100v100H100z"/><path fill="#9b9ca1" d="M200 200h100v100H200z"/><path fill="#a5a5aa" d="M300 200h100v100H300z"/><path fill="#a9a9ac" d="M400 200h100v100H400z"/><path fill="#9d9d9f" d="M500 200h100v100H500z"/><path fill="#9b9b9c" d="M600 200h100v100H600z"/><path fill="#6d6d6f" d="M700 200h100v100H700z"/><path fill="#c5c5c8" d="M0 300h100v100H0z"/><path fill="#bebec2" d="M100 300h100v100H100z"/><path fill="#adacb3" d="M200 300h100v100H200z"/><path fill="#a1a1a8" d="M300 300h100v100H300z"/><path fill="#e1e0e1" d="M400 300h100v100H400z"/><path fill="#ccc" d="M500 300h100v100H500z"/><path fill="#ababaa" d="M600 300h100v100H600z"/><path fill="#8e8e8f" d="M700 300h100v100H700z"/><path fill="#9e9ea4" d="M0 400h100v100H0z"/><path fill="#e0dfe1" d="M100 400h100v100H100z"/><path fill="#93939b" d="M200 400h100v100H200z"/><path fill="#abacb1" d="M300 400h100v100H300z"/><path fill="#d4d4d5" d="M400 400h100v100H400z"/><path fill="#bababa" d="M500 400h100v100H500z"/><path fill="#a1a1a1" d="M600 400h100v100H600z"/><path fill="#8e8e8e" d="M700 400h100v100H700z"/><path fill="#8f8f95" d="M0 500h100v100H0z"/><path fill="#cbcacd" d="M100 500h100v100H100z"/><path fill="#c4c4c8" d="M200 500h100v100H200z"/><path fill="#dcdcdf" d="M300 500h100v100H300z"/><path fill="#bbbbbd" d="M400 500h100v100H400z"/><path fill="#868688" d="M500 500h100v100H500z"/><path fill="#848487" d="M600 500h100v100H600z"/><path fill="#9c9c9c" d="M700 500h100v100H700z"/></svg>