<svg xmlns="http://www.w3.org/2000/svg" viewBox="0 0 800 600"><defs/><path fill="#f5f5f6" d="M0 0h100v100H0z"/><path fill="#ebecf1" d="M100 0h100v100H100z"/><path fill="#eff4fa" d="M200 0h100v100H200z"/><path fill="#e9f0f9" d="M300 0h100v100H300z"/><path fill="#eaf1f9" d="M400 0h100v100H400z"/><path fill="#ebf1f9" d="M500 0h100v100H500z"/><path fill="#e6ebf4" d="M600 0h100v100H600z"/><path fill="#f3f3f5" d="M700 0h100v100H700z"/><path fill="#e2e0e3" d="M0 100h100v100H0z"/><path fill="#bfc5d8" d="M100 100h100v100H100z"/><path fill="#dfebfa" d="M200 100h100v100H200z"/><path fill="#e2ecf9" d="M300 100h100v100H300z"/><path fill="#d7e5f6" d="M400 100h100v100H400z"/><path fill="#e3eefa" d="M500 100h100v100H500z"/><path fill="#cdd6e6" d="M600 100h100v100H600z"/><path fill="#dadadf" d="M700 100h100v100H700z"/><path fill="#d6d2d6" d="M0 200h100v100H0z"/><path fill="#bdbac5" d="M100 200h100v100H100z"/><path fill="#d9e6f3" d="M200 200h100v100H200z"/><path fill="#e4f0fa" d="M300 200h100v100H300z"/><path fill="#f6fafc" d="M400 200h100v100H400z"/><path fill="#ecf4fc" d="M500 200h100v100H500z"/><path fill="#ccd4e3" d="M600 200h100v100H600z"/><path fill="#e1dfe3" d="M700 200h100v100H700z"/><path fill="#ccc8cc" d="M0 300h100v100H0z"/><path fill="#c0bbc3" d="M100 300h100v100H100z"/><path fill="#d9d9df" d="M200 300h100v100H200z"/><path fill="#d6dae1" d="M300 300h100v100H300z"/><path fill="#dfe0e5" d="M400 300h100v100H400z"/><path fill="#dbdce1" d="M500 300h100v100H500z"/><path fill="#c3bfc8" d="M600 300h100v100H600z"/><path fill="#dad5da" d="M700 300h100v100H700z"/><path fill="#dedcde" d="M0 400h100v100H0z"/><path fill="#e1e0e2" d="M100 400h100v100H100z"/><path fill="#e7e6e5" d="M200 400h100v100H200z"/><path fill="#e7e4e3" d="M300 400h100v100H300z"/><path fill="#e7e5e5" d="M400 400h100v100H400z"/><path fill="#e5e3e3" d="M500 400h100v100H500z"/><path fill="#dfdbdc" d="M600 400h100v100H600z"/><path fill="#d9d5d7" d="M700 400h100v100H700z"/><path fill="#fff" d="M0 500h100v100H0z"/><path fill="#fefefe" d="M100 500h100v100H100z"/><path fill="#fdfdfd" d="M200 500h100v100H200zm100 0h100v100H300zm100 0h100v100H400zm100 0h100v100H500z"/><path fill="#fefefe" d="M600 500h100v100H600z"/><path fill="#fdfdfd" d="M700 500h100v100H700z"/></svg>