<svg xmlns="http://www.w3.org/2000/svg" viewBox="0 0 800 500"><defs/><path fill="#9c9aa0" d="M0 0h100v100H0z"/><path fill="#98999d" d="M100 0h100v100H100z"/><path fill="#9a9b9d" d="M200 0h100v100H200z"/><path fill="#999a9c" d="M300 0h100v100H300z"/><path fill="#9a9b9d" d="M400 0h100v100H400z"/><path fill="#959696" d="M500 0h100v100H500z"/><path fill="#898988" d="M600 0h100v100H600z"/><path fill="#83807e" d="M700 0h100v100H700z"/><path fill="#9c9ba0" d="M0 100h100v100H0z"/><path fill="#9a9b9f" d="M100 100h100v100H100z"/><path fill="#9c9d9f" d="M200 100h100v100H200z"/><path fill="#9a9b9d" d="M300 100h100v100H300zm100 0h100v100H400z"/><path fill="#939494" d="M500 100h100v100H500z"/><path fill="#919090" d="M600 100h100v100H600z"/><path fill="#8a8785" d="M700 100h100v100H700z"/><path fill="#9c9b9f" d="M0 200h100v100H0z"/><path fill="#9f9fa2" d="M100 200h100v100H100z"/><path fill="#9d9da0" d="M200 200h100v100H200z"/><path fill="#97989a" d="M300 200h100v100H300z"/><path fill="#9c9e9f" d="M400 200h100v100H400z"/><path fill="#959697" d="M500 200h100v100H500z"/><path fill="#8e8d8e" d="M600 200h100v100H600z"/><path fill="#8f8b8b" d="M700 200h100v100H700z"/><path fill="#a2a1a6" d="M0 300h100v100H0z"/><path fill="#a2a2a4" d="M100 300h100v100H100z"/><path fill="#a6a7a9" d="M200 300h100v100H200z"/><path fill="#9b9c9e" d="M300 300h100v100H300z"/><path fill="#9a9b9e" d="M400 300h100v100H400z"/><path fill="#97989a" d="M500 300h100v100H500z"/><path fill="#909090" d="M600 300h100v100H600z"/><path fill="#928f8f" d="M700 300h100v100H700z"/><path fill="#a3a3a6" d="M0 400h100v100H0z"/><path fill="#a4a4a7" d="M100 400h100v100H100z"/><path fill="#a9aaac" d="M200 400h100v100H200z"/><path fill="#a1a2a4" d="M300 400h100v100H300z"/><path fill="#9c9d9f" d="M400 400h100v100H400z"/><path fill="#9b9b9d" d="M500 400h100v100H500z"/><path fill="#969596" d="M600 400h100v100H600z"/><path fill="#908e8e" d="M700 400h100v100H700z"/></svg>