<svg xmlns="http://www.w3.org/2000/svg" viewBox="0 0 800 400"><defs/><path fill="#d6ad9d" d="M0 0h100v100H0z"/><path fill="#7c4d29" d="M100 0h100v100H100z"/><path fill="#857760" d="M200 0h100v100H200z"/><path fill="#5b7765" d="M300 0h100v100H300z"/><path fill="#7c938f" d="M400 0h100v100H400z"/><path fill="#9ea29e" d="M500 0h100v100H500z"/><path fill="#b39585" d="M600 0h100v100H600z"/><path fill="#98796e" d="M700 0h100v100H700z"/><path fill="#c79582" d="M0 100h100v100H0z"/><path fill="#5d4317" d="M100 100h100v100H100z"/><path fill="#6a6255" d="M200 100h100v100H200z"/><path fill="#6f8974" d="M300 100h100v100H300z"/><path fill="#739a6e" d="M400 100h100v100H400z"/><path fill="#7f7c5d" d="M500 100h100v100H500z"/><path fill="#b28b80" d="M600 100h100v100H600z"/><path fill="#927d76" d="M700 100h100v100H700z"/><path fill="#a26e54" d="M0 200h100v100H0z"/><path fill="#5e3920" d="M100 200h100v100H100z"/><path fill="#986d56" d="M200 200h100v100H200z"/><path fill="#72503b" d="M300 200h100v100H300z"/><path fill="#4a3e2e" d="M400 200h100v100H400z"/><path fill="#8b6451" d="M500 200h100v100H500z"/><path fill="#746b5e" d="M600 200h100v100H600z"/><path fill="#504c4a" d="M700 200h100v100H700z"/><path fill="#8c5a40" d="M0 300h100v100H0z"/><path fill="#945c3d" d="M100 300h100v100H100z"/><path fill="#856651" d="M200 300h100v100H200z"/><path fill="#555d5c" d="M300 300h100v100H300z"/><path fill="#586061" d="M400 300h100v100H400z"/><path fill="#716057" d="M500 300h100v100H500z"/><path fill="#876c47" d="M600 300h100v100H600z"/><path fill="#735a44" d="M700 300h100v100H700z"/></svg>