<svg xmlns="http://www.w3.org/2000/svg" viewBox="0 0 800 600"><defs/><path fill="#fcfcfc" d="M0 0h100v100H0z"/><path fill="#f8f8f8" d="M100 0h100v100H100z"/><path fill="#fdfdfd" d="M200 0h100v100H200z"/><path fill="#f7f7f7" d="M300 0h100v100H300z"/><path fill="#f8f8f8" d="M400 0h100v100H400z"/><path fill="#fefefe" d="M500 0h100v100H500z"/><path fill="#f9f9f9" d="M600 0h100v100H600z"/><path fill="#fdfdfd" d="M700 0h100v100H700z"/><path fill="#f2f2f2" d="M0 100h100v100H0z"/><path fill="#b2b2b2" d="M100 100h100v100H100z"/><path fill="#dbdbdb" d="M200 100h100v100H200z"/><path fill="#c4c4c4" d="M300 100h100v100H300z"/><path fill="#b5b5b5" d="M400 100h100v100H400z"/><path fill="#c5c5c5" d="M500 100h100v100H500z"/><path fill="#b8b8b8" d="M600 100h100v100H600z"/><path fill="#b9b9b9" d="M700 100h100v100H700z"/><path fill="#e3e3e3" d="M0 200h100v100H0z"/><path fill="#a2a2a2" d="M100 200h100v100H100z"/><path fill="#cbcbcb" d="M200 200h100v100H200z"/><path fill="#cecece" d="M300 200h100v100H300z"/><path fill="#bdbdbd" d="M400 200h100v100H400z"/><path fill="#ababab" d="M500 200h100v100H500z"/><path fill="#afafaf" d="M600 200h100v100H600zm100 0h100v100H700z"/><path fill="#ccc" d="M0 300h100v100H0z"/><path fill="#b7b7b7" d="M100 300h100v100H100z"/><path fill="#b9b9b9" d="M200 300h100v100H200z"/><path fill="#a8a8a8" d="M300 300h100v100H300z"/><path fill="#adadad" d="M400 300h100v100H400z"/><path fill="#9a9a9a" d="M500 300h100v100H500z"/><path fill="#a7a7a7" d="M600 300h100v100H600z"/><path fill="#b2b2b2" d="M700 300h100v100H700z"/><path fill="#c2c2c2" d="M0 400h100v100H0z"/><path fill="#b9b9b9" d="M100 400h100v100H100z"/><path fill="#d3d3d3" d="M200 400h100v100H200z"/><path fill="#c2c2c2" d="M300 400h100v100H300z"/><path fill="#c1c1c1" d="M400 400h100v100H400z"/><path fill="#b0b0b0" d="M500 400h100v100H500z"/><path fill="#a9a9a9" d="M600 400h100v100H600z"/><path fill="#c7c7c7" d="M700 400h100v100H700z"/><path fill="#f2f2f2" d="M0 500h100v100H0zm100 0h100v100H100z"/><path fill="#f0f0f0" d="M200 500h100v100H200z"/><path fill="#eee" d="M300 500h100v100H300z"/><path fill="#ededed" d="M400 500h100v100H400z"/><path fill="#f8f8f8" d="M500 500h100v100H500z"/><path fill="#f0f0f0" d="M600 500h100v100H600z"/><path fill="#e7e7e7" d="M700 500h100v100H700z"/></svg>