<svg xmlns="http://www.w3.org/2000/svg" viewBox="0 0 800 400"><defs/><path fill="#938d84" d="M0 0h100v100H0z"/><path fill="#b7b5b2" d="M100 0h100v100H100z"/><path fill="#cec8bf" d="M200 0h100v100H200z"/><path fill="#c5c0b4" d="M300 0h100v100H300z"/><path fill="#71acc2" d="M400 0h100v100H400z"/><path fill="#62a9c6" d="M500 0h100v100H500z"/><path fill="#9eb5b9" d="M600 0h100v100H600z"/><path fill="#7aa3af" d="M700 0h100v100H700z"/><path fill="#9d988f" d="M0 100h100v100H0z"/><path fill="#d2d0cc" d="M100 100h100v100H100z"/><path fill="#afa293" d="M200 100h100v100H200z"/><path fill="#bba999" d="M300 100h100v100H300z"/><path fill="#7fb5b4" d="M400 100h100v100H400z"/><path fill="#4e9f99" d="M500 100h100v100H500z"/><path fill="#a8b9b6" d="M600 100h100v100H600z"/><path fill="#5ca1b9" d="M700 100h100v100H700z"/><path fill="#b0aca5" d="M0 200h100v100H0z"/><path fill="#a4aaab" d="M100 200h100v100H100z"/><path fill="#968f84" d="M200 200h100v100H200z"/><path fill="#ccb7ae" d="M300 200h100v100H300z"/><path fill="#a49b78" d="M400 200h100v100H400z"/><path fill="#77b369" d="M500 200h100v100H500z"/><path fill="#c0cab7" d="M600 200h100v100H600z"/><path fill="#729f76" d="M700 200h100v100H700z"/><path fill="#c1bfbd" d="M0 300h100v100H0z"/><path fill="#b9bbbd" d="M100 300h100v100H100z"/><path fill="#dfdede" d="M200 300h100v100H200z"/><path fill="#cba6a6" d="M300 300h100v100H300z"/><path fill="#b96c6b" d="M400 300h100v100H400z"/><path fill="#f0d9d1" d="M500 300h100v100H500z"/><path fill="#f1f6f7" d="M600 300h100v100H600z"/><path fill="#beccb8" d="M700 300h100v100H700z"/></svg>