<svg xmlns="http://www.w3.org/2000/svg" viewBox="0 0 800 500"><defs/><path fill="#364e71" d="M0 0h100v100H0z"/><path fill="#384f71" d="M100 0h100v100H100z"/><path fill="#3a5173" d="M200 0h100v100H200z"/><path fill="#33496a" d="M300 0h100v100H300z"/><path fill="#55647d" d="M400 0h100v100H400z"/><path fill="#617084" d="M500 0h100v100H500z"/><path fill="#324562" d="M600 0h100v100H600z"/><path fill="#2a3c5a" d="M700 0h100v100H700z"/><path fill="#374f73" d="M0 100h100v100H0z"/><path fill="#324767" d="M100 100h100v100H100z"/><path fill="#24344d" d="M200 100h100v100H200z"/><path fill="#434c5a" d="M300 100h100v100H300z"/><path fill="#dddbd5" d="M400 100h100v100H400z"/><path fill="#b4b7b9" d="M500 100h100v100H500z"/><path fill="#2f4363" d="M600 100h100v100H600z"/><path fill="#2b3f5f" d="M700 100h100v100H700z"/><path fill="#375177" d="M0 200h100v100H0z"/><path fill="#2f4463" d="M100 200h100v100H100z"/><path fill="#162233" d="M200 200h100v100H200z"/><path fill="#949492" d="M300 200h100v100H300z"/><path fill="#d7d7d2" d="M400 200h100v100H400z"/><path fill="#566377" d="M500 200h100v100H500z"/><path fill="#21375c" d="M600 200h100v100H600z"/><path fill="#2f4367" d="M700 200h100v100H700z"/><path fill="#3a547b" d="M0 300h100v100H0z"/><path fill="#30486c" d="M100 300h100v100H100z"/><path fill="#263141" d="M200 300h100v100H200z"/><path fill="#808892" d="M300 300h100v100H300z"/><path fill="#4d6183" d="M400 300h100v100H400z"/><path fill="#253c65" d="M500 300h100v100H500z"/><path fill="#2e446a" d="M600 300h100v100H600z"/><path fill="#2d4367" d="M700 300h100v100H700z"/><path fill="#365177" d="M0 400h100v100H0z"/><path fill="#334c73" d="M100 400h100v100H100z"/><path fill="#304666" d="M200 400h100v100H200z"/><path fill="#2b446d" d="M300 400h100v100H300z"/><path fill="#29436e" d="M400 400h100v100H400z"/><path fill="#2e446b" d="M500 400h100v100H500z"/><path fill="#2c4269" d="M600 400h100v100H600z"/><path fill="#2c4266" d="M700 400h100v100H700z"/></svg>