<svg xmlns="http://www.w3.org/2000/svg" viewBox="0 0 800 800"><defs/><path fill="#96969a" d="M0 0h100v100H0z"/><path fill="#e1e8f4" d="M100 0h100v100H100z"/><path fill="#f1f8ff" d="M200 0h100v100H200z"/><path fill="#c3c8d4" d="M300 0h100v100H300z"/><path fill="#604f42" d="M400 0h100v100H400z"/><path fill="#c5c4c4" d="M500 0h100v100H500z"/><path fill="#d0d5dc" d="M600 0h100v100H600z"/><path fill="#868480" d="M700 0h100v100H700z"/><path fill="#686359" d="M0 100h100v100H0z"/><path fill="#8f8f8d" d="M100 100h100v100H100z"/><path fill="#a5a2a0" d="M200 100h100v100H200z"/><path fill="#8e8988" d="M300 100h100v100H300z"/><path fill="#514c45" d="M400 100h100v100H400z"/><path fill="#898986" d="M500 100h100v100H500z"/><path fill="#818181" d="M600 100h100v100H600z"/><path fill="#545350" d="M700 100h100v100H700z"/><path fill="#4f4d47" d="M0 200h100v100H0z"/><path fill="#43413d" d="M100 200h100v100H100z"/><path fill="#696560" d="M200 200h100v100H200z"/><path fill="#7a7774" d="M300 200h100v100H300z"/><path fill="#6a6968" d="M400 200h100v100H400z"/><path fill="#6a6b6a" d="M500 200h100v100H500z"/><path fill="#6e6d6d" d="M600 200h100v100H600z"/><path fill="#6d6b6d" d="M700 200h100v100H700z"/><path fill="#6c7079" d="M0 300h100v100H0z"/><path fill="#717782" d="M100 300h100v100H100z"/><path fill="#767d89" d="M200 300h100v100H200z"/><path fill="#777d85" d="M300 300h100v100H300z"/><path fill="#6e6d70" d="M400 300h100v100H400z"/><path fill="#6b6a6d" d="M500 300h100v100H500z"/><path fill="#68696d" d="M600 300h100v100H600z"/><path fill="#7b7676" d="M700 300h100v100H700z"/><path fill="#8b8c8b" d="M0 400h100v100H0z"/><path fill="#cad2dc" d="M100 400h100v100H100z"/><path fill="#d3d9e4" d="M200 400h100v100H200z"/><path fill="#9ca0a9" d="M300 400h100v100H300z"/><path fill="#aeb2bc" d="M400 400h100v100H400z"/><path fill="#c0c5cf" d="M500 400h100v100H500z"/><path fill="#bec2cc" d="M600 400h100v100H600z"/><path fill="#bbbec9" d="M700 400h100v100H700z"/><path fill="#66655e" d="M0 500h100v100H0z"/><path fill="#787e7f" d="M100 500h100v100H100z"/><path fill="#c8cace" d="M200 500h100v100H200z"/><path fill="#808183" d="M300 500h100v100H300z"/><path fill="#919ca4" d="M400 500h100v100H400z"/><path fill="#d0d6df" d="M500 500h100v100H500z"/><path fill="#d0d5de" d="M600 500h100v100H600z"/><path fill="#cbcfd9" d="M700 500h100v100H700z"/><path fill="#605f5c" d="M0 600h100v100H0z"/><path fill="#555553" d="M100 600h100v100H100z"/><path fill="#696866" d="M200 600h100v100H200z"/><path fill="#585858" d="M300 600h100v100H300z"/><path fill="#5b6260" d="M400 600h100v100H400z"/><path fill="#797c7c" d="M500 600h100v100H500z"/><path fill="#7f8182" d="M600 600h100v100H600z"/><path fill="#797b7d" d="M700 600h100v100H700z"/><path fill="#514f51" d="M0 700h100v100H0z"/><path fill="#5b5d60" d="M100 700h100v100H100z"/><path fill="#54575d" d="M200 700h100v100H200z"/><path fill="#4b4d55" d="M300 700h100v100H300z"/><path fill="#696b6c" d="M400 700h100v100H400z"/><path fill="#727679" d="M500 700h100v100H500z"/><path fill="#76797f" d="M600 700h100v100H600z"/><path fill="#707278" d="M700 700h100v100H700z"/></svg>