<svg xmlns="http://www.w3.org/2000/svg" viewBox="0 0 800 600"><defs/><path fill="#f2faeb" d="M0 0h100v100H0z"/><path fill="#f5f6e7" d="M100 0h100v100H100z"/><path fill="#f3f4f3" d="M200 0h100v100H200z"/><path fill="#f0eae8" d="M300 0h100v100H300z"/><path fill="#f0f4e9" d="M400 0h100v100H400z"/><path fill="#f4faed" d="M500 0h100v100H500z"/><path fill="#e8e9e7" d="M600 0h100v100H600z"/><path fill="#efeae7" d="M700 0h100v100H700z"/><path fill="#ccdeac" d="M0 100h100v100H0z"/><path fill="#e7e1b1" d="M100 100h100v100H100z"/><path fill="#c0d5e9" d="M200 100h100v100H200z"/><path fill="#b2b2a4" d="M300 100h100v100H300z"/><path fill="#c0de96" d="M400 100h100v100H400z"/><path fill="#d7f5bd" d="M500 100h100v100H500z"/><path fill="#a9ab8b" d="M600 100h100v100H600z"/><path fill="#c09a86" d="M700 100h100v100H700z"/><path fill="#e7de92" d="M0 200h100v100H0z"/><path fill="#dbb763" d="M100 200h100v100H100z"/><path fill="#c5cbe1" d="M200 200h100v100H200z"/><path fill="#b7c1a3" d="M300 200h100v100H300z"/><path fill="#a2bb8e" d="M400 200h100v100H400z"/><path fill="#b7c4a7" d="M500 200h100v100H500z"/><path fill="#bbbb9c" d="M600 200h100v100H600z"/><path fill="#ccb7a5" d="M700 200h100v100H700z"/><path fill="#f0db7a" d="M0 300h100v100H0z"/><path fill="#d8ae5f" d="M100 300h100v100H100z"/><path fill="#d2d1dd" d="M200 300h100v100H200z"/><path fill="#d2c9ad" d="M300 300h100v100H300z"/><path fill="#7c7a7a" d="M400 300h100v100H400z"/><path fill="#797778" d="M500 300h100v100H500z"/><path fill="#707173" d="M600 300h100v100H600z"/><path fill="#95b39a" d="M700 300h100v100H700z"/><path fill="#eed572" d="M0 400h100v100H0z"/><path fill="#e7c996" d="M100 400h100v100H100z"/><path fill="#f4e2da" d="M200 400h100v100H200z"/><path fill="#dbc2b4" d="M300 400h100v100H300z"/><path fill="#bfa899" d="M400 400h100v100H400z"/><path fill="#dabba9" d="M500 400h100v100H500z"/><path fill="#b19a8d" d="M600 400h100v100H600z"/><path fill="#b2b7a6" d="M700 400h100v100H700z"/><path fill="#fbf4e9" d="M0 500h100v100H0z"/><path fill="#fbf1ea" d="M100 500h100v100H100z"/><path fill="#fff5ee" d="M200 500h100v100H200z"/><path fill="#dfdbd7" d="M300 500h100v100H300z"/><path fill="#e5d9d5" d="M400 500h100v100H400z"/><path fill="#eddbd3" d="M500 500h100v100H500z"/><path fill="#f6e2d9" d="M600 500h100v100H600z"/><path fill="#ebe4e0" d="M700 500h100v100H700z"/></svg>