<svg xmlns="http://www.w3.org/2000/svg" viewBox="0 0 800 400"><defs/><path fill="#9cb596" d="M0 0h100v100H0z"/><path fill="#8ca486" d="M100 0h100v100H100z"/><path fill="#889f7b" d="M200 0h100v100H200z"/><path fill="#92a676" d="M300 0h100v100H300z"/><path fill="#b4b77a" d="M400 0h100v100H400z"/><path fill="#c1c192" d="M500 0h100v100H500z"/><path fill="#bdc4a2" d="M600 0h100v100H600z"/><path fill="#7db895" d="M700 0h100v100H700z"/><path fill="#9da985" d="M0 100h100v100H0z"/><path fill="#b6b086" d="M100 100h100v100H100z"/><path fill="#89a288" d="M200 100h100v100H200z"/><path fill="#beb97c" d="M300 100h100v100H300z"/><path fill="#b4ba6d" d="M400 100h100v100H400z"/><path fill="#aab186" d="M500 100h100v100H500z"/><path fill="#bec29d" d="M600 100h100v100H600z"/><path fill="#97beaf" d="M700 100h100v100H700z"/><path fill="#9b9790" d="M0 200h100v100H0z"/><path fill="#6e7d8b" d="M100 200h100v100H100z"/><path fill="#b4b8b7" d="M200 200h100v100H200z"/><path fill="#b4afac" d="M300 200h100v100H300z"/><path fill="#c8d0bd" d="M400 200h100v100H400z"/><path fill="#d1d7d1" d="M500 200h100v100H500z"/><path fill="#e3dedc" d="M600 200h100v100H600z"/><path fill="#d6d5d8" d="M700 200h100v100H700z"/><path fill="#cad2cc" d="M0 300h100v100H0z"/><path fill="#a5acaa" d="M100 300h100v100H100z"/><path fill="#cecdbd" d="M200 300h100v100H200z"/><path fill="#c0c9c3" d="M300 300h100v100H300z"/><path fill="#f8f0e0" d="M400 300h100v100H400z"/><path fill="#fbf8f5" d="M500 300h100v100H500z"/><path fill="#f7f7f4" d="M600 300h100v100H600z"/><path fill="#f2f2f2" d="M700 300h100v100H700z"/></svg>