<svg xmlns="http://www.w3.org/2000/svg" viewBox="0 0 800 400"><defs/><path fill="#938287" d="M0 0h100v100H0z"/><path fill="#a79b98" d="M100 0h100v100H100z"/><path fill="#9e9292" d="M200 0h100v100H200z"/><path fill="#8c90a1" d="M300 0h100v100H300z"/><path fill="#b2b3bd" d="M400 0h100v100H400z"/><path fill="#d3c4bc" d="M500 0h100v100H500z"/><path fill="#d9cfc8" d="M600 0h100v100H600z"/><path fill="#7a5d67" d="M700 0h100v100H700z"/><path fill="#87797a" d="M0 100h100v100H0z"/><path fill="#a29390" d="M100 100h100v100H100z"/><path fill="#bdbab0" d="M200 100h100v100H200z"/><path fill="#828694" d="M300 100h100v100H300z"/><path fill="#aeafb3" d="M400 100h100v100H400z"/><path fill="#e7e4d2" d="M500 100h100v100H500z"/><path fill="#d4cec3" d="M600 100h100v100H600z"/><path fill="#746369" d="M700 100h100v100H700z"/><path fill="#7c6c70" d="M0 200h100v100H0z"/><path fill="#6d6066" d="M100 200h100v100H100z"/><path fill="#a28a85" d="M200 200h100v100H200z"/><path fill="#9a8279" d="M300 200h100v100H300z"/><path fill="#9d877f" d="M400 200h100v100H400z"/><path fill="#78707c" d="M500 200h100v100H500z"/><path fill="#585067" d="M600 200h100v100H600z"/><path fill="#534f62" d="M700 200h100v100H700z"/><path fill="#331c2e" d="M0 300h100v100H0z"/><path fill="#5a474f" d="M100 300h100v100H100z"/><path fill="#866866" d="M200 300h100v100H200z"/><path fill="#7f6562" d="M300 300h100v100H300z"/><path fill="#625460" d="M400 300h100v100H400z"/><path fill="#59475b" d="M500 300h100v100H500z"/><path fill="#574659" d="M600 300h100v100H600z"/><path fill="#4a374d" d="M700 300h100v100H700z"/></svg>