<svg xmlns="http://www.w3.org/2000/svg" viewBox="0 0 800 400"><defs/><path fill="#ccc" d="M0 0h100v100H0z"/><path fill="#cecece" d="M100 0h100v100H100z"/><path fill="#ababab" d="M200 0h100v100H200z"/><path fill="#b6b6b6" d="M300 0h100v100H300z"/><path fill="#b0b0b0" d="M400 0h100v100H400zm100 0h100v100H500z"/><path fill="#b2b2b2" d="M600 0h100v100H600z"/><path fill="#c8c8c8" d="M700 0h100v100H700z"/><path fill="#cdcdcd" d="M0 100h100v100H0z"/><path fill="#bababa" d="M100 100h100v100H100z"/><path fill="#a6a6a6" d="M200 100h100v100H200z"/><path fill="#cfcfcf" d="M300 100h100v100H300z"/><path fill="#c1c1c1" d="M400 100h100v100H400z"/><path fill="#b8b8b8" d="M500 100h100v100H500z"/><path fill="#b1b1b1" d="M600 100h100v100H600z"/><path fill="#b9b9b9" d="M700 100h100v100H700z"/><path fill="#cfcfcf" d="M0 200h100v100H0z"/><path fill="#c8c8c8" d="M100 200h100v100H100z"/><path fill="#d9d9d9" d="M200 200h100v100H200z"/><path fill="#d8d8d8" d="M300 200h100v100H300z"/><path fill="#d5d5d5" d="M400 200h100v100H400zm100 0h100v100H500z"/><path fill="#b7b7b7" d="M600 200h100v100H600z"/><path fill="#c1c1c1" d="M700 200h100v100H700z"/><path fill="#d9d9d9" d="M0 300h100v100H0z"/><path fill="#dcdcdc" d="M100 300h100v100H100z"/><path fill="#e3e3e3" d="M200 300h100v100H200z"/><path fill="#d9d9d9" d="M300 300h100v100H300z"/><path fill="#bebebe" d="M400 300h100v100H400z"/><path fill="#d4d4d4" d="M500 300h100v100H500z"/><path fill="#d2d2d2" d="M600 300h100v100H600z"/><path fill="#cdcdcd" d="M700 300h100v100H700z"/></svg>