<svg xmlns="http://www.w3.org/2000/svg" viewBox="0 0 800 600"><defs/><path fill="#e0d8d8" d="M0 0h100v100H0z"/><path fill="#dec7ba" d="M100 0h100v100H100z"/><path fill="#cec4b7" d="M200 0h100v100H200z"/><path fill="#cdc9c2" d="M300 0h100v100H300z"/><path fill="#cdd0d3" d="M400 0h100v100H400z"/><path fill="#c6c8c8" d="M500 0h100v100H500z"/><path fill="#bebbb9" d="M600 0h100v100H600z"/><path fill="#b6b1b1" d="M700 0h100v100H700z"/><path fill="#afabb1" d="M0 100h100v100H0z"/><path fill="#c3a691" d="M100 100h100v100H100z"/><path fill="#b4a993" d="M200 100h100v100H200z"/><path fill="#ada399" d="M300 100h100v100H300z"/><path fill="#c8cfd5" d="M400 100h100v100H400z"/><path fill="#bec2c8" d="M500 100h100v100H500z"/><path fill="#b2b6bc" d="M600 100h100v100H600z"/><path fill="#aca7ad" d="M700 100h100v100H700z"/><path fill="#a9a0a0" d="M0 200h100v100H0z"/><path fill="#c8ab9d" d="M100 200h100v100H100z"/><path fill="#a38e8a" d="M200 200h100v100H200z"/><path fill="#907f6b" d="M300 200h100v100H300z"/><path fill="#a8a98f" d="M400 200h100v100H400z"/><path fill="#9ead9c" d="M500 200h100v100H500z"/><path fill="#8b9e9e" d="M600 200h100v100H600z"/><path fill="#9c9a9a" d="M700 200h100v100H700z"/><path fill="#a99995" d="M0 300h100v100H0z"/><path fill="#bc9b8a" d="M100 300h100v100H100z"/><path fill="#bea69d" d="M200 300h100v100H200z"/><path fill="#b69a85" d="M300 300h100v100H300z"/><path fill="#a3a179" d="M400 300h100v100H400z"/><path fill="#9b9975" d="M500 300h100v100H500z"/><path fill="#8b896a" d="M600 300h100v100H600z"/><path fill="#8c837a" d="M700 300h100v100H700z"/><path fill="#a38a7d" d="M0 400h100v100H0z"/><path fill="#b68a72" d="M100 400h100v100H100z"/><path fill="#d09a85" d="M200 400h100v100H200z"/><path fill="#c69882" d="M300 400h100v100H300z"/><path fill="#b98d7a" d="M400 400h100v100H400z"/><path fill="#c4917c" d="M500 400h100v100H500z"/><path fill="#8e6853" d="M600 400h100v100H600z"/><path fill="#685543" d="M700 400h100v100H700z"/><path fill="#b39681" d="M0 500h100v100H0z"/><path fill="#c8a18a" d="M100 500h100v100H100z"/><path fill="#e1ad97" d="M200 500h100v100H200z"/><path fill="#dbb09b" d="M300 500h100v100H300z"/><path fill="#c7a38e" d="M400 500h100v100H400z"/><path fill="#c9a08c" d="M500 500h100v100H500z"/><path fill="#ae8c78" d="M600 500h100v100H600z"/><path fill="#938170" d="M700 500h100v100H700z"/></svg>