<svg xmlns="http://www.w3.org/2000/svg" viewBox="0 0 800 600"><defs/><path fill="#b2b3dc" d="M0 0h100v100H0z"/><path fill="#bbcfdb" d="M100 0h100v100H100z"/><path fill="#bec9de" d="M200 0h100v100H200z"/><path fill="#b9c1de" d="M300 0h100v100H300z"/><path fill="#b5b9de" d="M400 0h100v100H400z"/><path fill="#c2c6e2" d="M500 0h100v100H500z"/><path fill="#c4c7e2" d="M600 0h100v100H600z"/><path fill="#b7bcde" d="M700 0h100v100H700z"/><path fill="#404ee7" d="M0 100h100v100H0z"/><path fill="#49b9d7" d="M100 100h100v100H100z"/><path fill="#a0b5d1" d="M200 100h100v100H200z"/><path fill="#8296d2" d="M300 100h100v100H300z"/><path fill="#4e69f3" d="M400 100h100v100H400z"/><path fill="#9a9cbd" d="M500 100h100v100H500z"/><path fill="#968ea9" d="M600 100h100v100H600z"/><path fill="#3c39e6" d="M700 100h100v100H700z"/><path fill="#507fdc" d="M0 200h100v100H0z"/><path fill="#59b9d4" d="M100 200h100v100H100z"/><path fill="#8cb983" d="M200 200h100v100H200z"/><path fill="#74a58b" d="M300 200h100v100H300z"/><path fill="#5e75d8" d="M400 200h100v100H400z"/><path fill="#6c6995" d="M500 200h100v100H500z"/><path fill="#706691" d="M600 200h100v100H600z"/><path fill="#425be9" d="M700 200h100v100H700z"/><path fill="#59b3d6" d="M0 300h100v100H0z"/><path fill="#56bfcf" d="M100 300h100v100H100z"/><path fill="#6ca0b2" d="M200 300h100v100H200z"/><path fill="#737479" d="M300 300h100v100H300z"/><path fill="#a37357" d="M400 300h100v100H400z"/><path fill="#85628a" d="M500 300h100v100H500z"/><path fill="#9889b9" d="M600 300h100v100H600z"/><path fill="#4f8cdf" d="M700 300h100v100H700z"/><path fill="#60ccd5" d="M0 400h100v100H0z"/><path fill="#88cad0" d="M100 400h100v100H100z"/><path fill="#aeb4e5" d="M200 400h100v100H200z"/><path fill="#9896d1" d="M300 400h100v100H300z"/><path fill="#877ec6" d="M400 400h100v100H400z"/><path fill="#7d6fcb" d="M500 400h100v100H500z"/><path fill="#7f6dca" d="M600 400h100v100H600z"/><path fill="#618ee2" d="M700 400h100v100H700z"/><path fill="#b3ced3" d="M0 500h100v100H0z"/><path fill="#bcccd2" d="M100 500h100v100H100z"/><path fill="#bcc7d2" d="M200 500h100v100H200z"/><path fill="#b5c0da" d="M300 500h100v100H300z"/><path fill="#adb4dd" d="M400 500h100v100H400z"/><path fill="#a7abdc" d="M500 500h100v100H500z"/><path fill="#a5a6d8" d="M600 500h100v100H600z"/><path fill="#a5add2" d="M700 500h100v100H700z"/></svg>