<svg xmlns="http://www.w3.org/2000/svg" viewBox="0 0 800 800"><defs/><path fill="#fdfdfd" d="M0 0h100v100H0z"/><path fill="#e1e1e1" d="M100 0h100v100H100z"/><path fill="#e4e4e4" d="M200 0h100v100H200z"/><path fill="#f1f1f1" d="M300 0h100v100H300z"/><path fill="#efefef" d="M400 0h100v100H400z"/><path fill="#eaeaea" d="M500 0h100v100H500z"/><path fill="#f2f2f2" d="M600 0h100v100H600z"/><path fill="#f3f3f3" d="M700 0h100v100H700z"/><path fill="#fafafa" d="M0 100h100v100H0z"/><path fill="#e0e0e0" d="M100 100h100v100H100z"/><path fill="#dbdbdb" d="M200 100h100v100H200z"/><path fill="#ebebeb" d="M300 100h100v100H300z"/><path fill="#e7e7e7" d="M400 100h100v100H400z"/><path fill="#dadada" d="M500 100h100v100H500z"/><path fill="#e1e1e1" d="M600 100h100v100H600z"/><path fill="#ededed" d="M700 100h100v100H700z"/><path fill="#f4f4f4" d="M0 200h100v100H0z"/><path fill="#e7e7e7" d="M100 200h100v100H100z"/><path fill="#e0e0e0" d="M200 200h100v100H200z"/><path fill="#efefef" d="M300 200h100v100H300z"/><path fill="#e7e7e7" d="M400 200h100v100H400z"/><path fill="#dddede" d="M500 200h100v100H500z"/><path fill="#e8e8e8" d="M600 200h100v100H600z"/><path fill="#f2f2f2" d="M700 200h100v100H700z"/><path fill="#ededed" d="M0 300h100v100H0z"/><path fill="#e8e8e8" d="M100 300h100v100H100z"/><path fill="#eaeaea" d="M200 300h100v100H200zm100 0h100v100H300z"/><path fill="#ebebeb" d="M400 300h100v100H400z"/><path fill="#eae9e9" d="M500 300h100v100H500z"/><path fill="#d8d7d7" d="M600 300h100v100H600z"/><path fill="#d0d0d0" d="M700 300h100v100H700z"/><path fill="#eaeaea" d="M0 400h100v100H0z"/><path fill="#f0f0f0" d="M100 400h100v100H100z"/><path fill="#ebe9e8" d="M200 400h100v100H200z"/><path fill="#e9e5e4" d="M300 400h100v100H300z"/><path fill="#edeeee" d="M400 400h100v100H400z"/><path fill="#e9e5e4" d="M500 400h100v100H500z"/><path fill="#e8e5e4" d="M600 400h100v100H600z"/><path fill="#e9e9e9" d="M700 400h100v100H700z"/><path fill="#f0f0f0" d="M0 500h100v100H0z"/><path fill="#efefef" d="M100 500h100v100H100z"/><path fill="#f5f5f5" d="M200 500h100v100H200z"/><path fill="#f3f3f3" d="M300 500h100v100H300z"/><path fill="#f5f5f5" d="M400 500h100v100H400zm100 0h100v100H500z"/><path fill="#f9f9f9" d="M600 500h100v100H600z"/><path fill="#fff" d="M700 500h100v100H700z"/><path fill="#f0f0f0" d="M0 600h100v100H0z"/><path fill="#eee" d="M100 600h100v100H100z"/><path fill="#fbfbfb" d="M200 600h100v100H200z"/><path fill="#fafafa" d="M300 600h100v100H300z"/><path fill="#f9f9f9" d="M400 600h100v100H400z"/><path fill="#fbfbfb" d="M500 600h100v100H500z"/><path fill="#f0f0f0" d="M600 600h100v100H600z"/><path fill="#ededed" d="M700 600h100v100H700z"/><path fill="#fefefe" d="M0 700h100v100H0zm100 0h100v100H100z"/><path fill="#fff" d="M200 700h100v100H200zm100 0h100v100H300zm100 0h100v100H400zm100 0h100v100H500z"/><path fill="#f5f5f5" d="M600 700h100v100H600z"/><path fill="#f0f0f0" d="M700 700h100v100H700z"/></svg>