<svg xmlns="http://www.w3.org/2000/svg" viewBox="0 0 800 500"><defs/><path fill="#a6aabc" d="M0 0h100v100H0z"/><path fill="#a7b0c2" d="M100 0h100v100H100z"/><path fill="#abb7c3" d="M200 0h100v100H200z"/><path fill="#b7bec8" d="M300 0h100v100H300z"/><path fill="#c3c3d1" d="M400 0h100v100H400z"/><path fill="#b9becb" d="M500 0h100v100H500z"/><path fill="#b6bcc9" d="M600 0h100v100H600z"/><path fill="#b0b6c9" d="M700 0h100v100H700z"/><path fill="#9ca9bc" d="M0 100h100v100H0z"/><path fill="#97abb6" d="M100 100h100v100H100z"/><path fill="#93acaf" d="M200 100h100v100H200z"/><path fill="#978d80" d="M300 100h100v100H300z"/><path fill="#768e8b" d="M400 100h100v100H400z"/><path fill="#ae9181" d="M500 100h100v100H500z"/><path fill="#939396" d="M600 100h100v100H600z"/><path fill="#868e9e" d="M700 100h100v100H700z"/><path fill="#a7b8cd" d="M0 200h100v100H0z"/><path fill="#99b3bc" d="M100 200h100v100H100z"/><path fill="#afadc0" d="M200 200h100v100H200z"/><path fill="#b49990" d="M300 200h100v100H300z"/><path fill="#89968f" d="M400 200h100v100H400z"/><path fill="#c8907c" d="M500 200h100v100H500z"/><path fill="#92898d" d="M600 200h100v100H600z"/><path fill="#6c7075" d="M700 200h100v100H700z"/><path fill="#95b0bf" d="M0 300h100v100H0z"/><path fill="#93abb9" d="M100 300h100v100H100z"/><path fill="#8894a8" d="M200 300h100v100H200z"/><path fill="#a88a5b" d="M300 300h100v100H300z"/><path fill="#8b7a56" d="M400 300h100v100H400z"/><path fill="#9b8f9e" d="M500 300h100v100H500z"/><path fill="#9b8992" d="M600 300h100v100H600z"/><path fill="#938487" d="M700 300h100v100H700z"/><path fill="#a7bbca" d="M0 400h100v100H0z"/><path fill="#a5b4c7" d="M100 400h100v100H100z"/><path fill="#a1b4bf" d="M200 400h100v100H200z"/><path fill="#b0a289" d="M300 400h100v100H300z"/><path fill="#a0a399" d="M400 400h100v100H400z"/><path fill="#a3a7ba" d="M500 400h100v100H500z"/><path fill="#a8989f" d="M600 400h100v100H600z"/><path fill="#999aa6" d="M700 400h100v100H700z"/></svg>