<svg xmlns="http://www.w3.org/2000/svg" viewBox="0 0 800 400"><defs/><path fill="#962d27" d="M0 0h100v100H0z"/><path fill="#7f4123" d="M100 0h100v100H100z"/><path fill="#c9b8bd" d="M200 0h100v100H200z"/><path fill="#feffff" d="M300 0h100v100H300z"/><path fill="#f3f3f3" d="M400 0h100v100H400z"/><path fill="#b0929a" d="M500 0h100v100H500z"/><path fill="#a98789" d="M600 0h100v100H600z"/><path fill="#a2797f" d="M700 0h100v100H700z"/><path fill="#8a2e1f" d="M0 100h100v100H0z"/><path fill="#8c6049" d="M100 100h100v100H100z"/><path fill="#d9b7c2" d="M200 100h100v100H200z"/><path fill="#e7dbd5" d="M300 100h100v100H300z"/><path fill="#ebd9e0" d="M400 100h100v100H400z"/><path fill="#bd9ca5" d="M500 100h100v100H500z"/><path fill="#6f675b" d="M600 100h100v100H600z"/><path fill="#8e5c5f" d="M700 100h100v100H700z"/><path fill="#8d3621" d="M0 200h100v100H0z"/><path fill="#aa957b" d="M100 200h100v100H100z"/><path fill="#957365" d="M200 200h100v100H200z"/><path fill="#965d62" d="M300 200h100v100H300z"/><path fill="#996676" d="M400 200h100v100H400z"/><path fill="#97776e" d="M500 200h100v100H500z"/><path fill="#726862" d="M600 200h100v100H600z"/><path fill="#773130" d="M700 200h100v100H700z"/><path fill="#954928" d="M0 300h100v100H0z"/><path fill="#a1744c" d="M100 300h100v100H100z"/><path fill="#b68257" d="M200 300h100v100H200z"/><path fill="#c69ea6" d="M300 300h100v100H300z"/><path fill="#c7978b" d="M400 300h100v100H400z"/><path fill="#7f5b36" d="M500 300h100v100H500z"/><path fill="#644a2f" d="M600 300h100v100H600z"/><path fill="#73503c" d="M700 300h100v100H700z"/></svg>