<svg xmlns="http://www.w3.org/2000/svg" viewBox="0 0 800 600"><defs/><path fill="#7b7667" d="M0 0h100v100H0z"/><path fill="#b3aca1" d="M100 0h100v100H100z"/><path fill="#e2dfd5" d="M200 0h100v100H200z"/><path fill="#fffffd" d="M300 0h100v100H300z"/><path fill="#fefeff" d="M400 0h100v100H400z"/><path fill="#fffffa" d="M500 0h100v100H500z"/><path fill="#f9efd9" d="M600 0h100v100H600z"/><path fill="#b9ae99" d="M700 0h100v100H700z"/><path fill="#817b70" d="M0 100h100v100H0z"/><path fill="#898c8c" d="M100 100h100v100H100z"/><path fill="#b3b7b7" d="M200 100h100v100H200z"/><path fill="#ecece6" d="M300 100h100v100H300z"/><path fill="#f6f7f7" d="M400 100h100v100H400z"/><path fill="#f8f8f4" d="M500 100h100v100H500z"/><path fill="#f2e8d9" d="M600 100h100v100H600z"/><path fill="#a9a192" d="M700 100h100v100H700z"/><path fill="#64625f" d="M0 200h100v100H0z"/><path fill="#707678" d="M100 200h100v100H100z"/><path fill="#9a9b9b" d="M200 200h100v100H200z"/><path fill="#bfbebc" d="M300 200h100v100H300z"/><path fill="#cdcece" d="M400 200h100v100H400z"/><path fill="#c4c6c9" d="M500 200h100v100H500z"/><path fill="#b6b4b2" d="M600 200h100v100H600z"/><path fill="#5c6055" d="M700 200h100v100H700z"/><path fill="#494b4d" d="M0 300h100v100H0z"/><path fill="#595e62" d="M100 300h100v100H100z"/><path fill="#72777e" d="M200 300h100v100H200z"/><path fill="#848a93" d="M300 300h100v100H300z"/><path fill="#8c929d" d="M400 300h100v100H400z"/><path fill="#8a8f98" d="M500 300h100v100H500z"/><path fill="#806e6f" d="M600 300h100v100H600z"/><path fill="#41463c" d="M700 300h100v100H700z"/><path fill="#4c4844" d="M0 400h100v100H0z"/><path fill="#595754" d="M100 400h100v100H100z"/><path fill="#666" d="M200 400h100v100H200z"/><path fill="#666a72" d="M300 400h100v100H300z"/><path fill="#636a76" d="M400 400h100v100H400z"/><path fill="#64676f" d="M500 400h100v100H500z"/><path fill="#685251" d="M600 400h100v100H600z"/><path fill="#2e3229" d="M700 400h100v100H700z"/><path fill="#454038" d="M0 500h100v100H0z"/><path fill="#4e4842" d="M100 500h100v100H100z"/><path fill="#5a544e" d="M200 500h100v100H200z"/><path fill="#5f5b56" d="M300 500h100v100H300z"/><path fill="#65615d" d="M400 500h100v100H400z"/><path fill="#575251" d="M500 500h100v100H500z"/><path fill="#4f423f" d="M600 500h100v100H600z"/><path fill="#403f3a" d="M700 500h100v100H700z"/></svg>