<svg xmlns="http://www.w3.org/2000/svg" viewBox="0 0 800 600"><defs/><path fill="#e2eaee" d="M0 0h100v100H0z"/><path fill="#eaf2ee" d="M100 0h100v100H100z"/><path fill="#eaf2ed" d="M200 0h100v100H200z"/><path fill="#e8efee" d="M300 0h100v100H300z"/><path fill="#f0dcd7" d="M400 0h100v100H400z"/><path fill="#f6ede8" d="M500 0h100v100H500z"/><path fill="#ecfcf2" d="M600 0h100v100H600z"/><path fill="#f0f8f3" d="M700 0h100v100H700z"/><path fill="#688a9d" d="M0 100h100v100H0z"/><path fill="#7ba08d" d="M100 100h100v100H100z"/><path fill="#82ac9c" d="M200 100h100v100H200z"/><path fill="#938675" d="M300 100h100v100H300z"/><path fill="#a06c55" d="M400 100h100v100H400z"/><path fill="#b3ab8a" d="M500 100h100v100H500z"/><path fill="#a7e1b1" d="M600 100h100v100H600z"/><path fill="#7cb791" d="M700 100h100v100H700z"/><path fill="#9cc0ac" d="M0 200h100v100H0z"/><path fill="#94d2ac" d="M100 200h100v100H100z"/><path fill="#8a9182" d="M200 200h100v100H200z"/><path fill="#878752" d="M300 200h100v100H300z"/><path fill="#8c9762" d="M400 200h100v100H400z"/><path fill="#9a9478" d="M500 200h100v100H500z"/><path fill="#abc6b3" d="M600 200h100v100H600z"/><path fill="#93d2ae" d="M700 200h100v100H700z"/><path fill="#8bbdb1" d="M0 300h100v100H0z"/><path fill="#89c898" d="M100 300h100v100H100z"/><path fill="#9bc89f" d="M200 300h100v100H200z"/><path fill="#b1bab0" d="M300 300h100v100H300z"/><path fill="#c4c997" d="M400 300h100v100H400z"/><path fill="#91be72" d="M500 300h100v100H500z"/><path fill="#96bca7" d="M600 300h100v100H600z"/><path fill="#7fad7d" d="M700 300h100v100H700z"/><path fill="#a3bcc6" d="M0 400h100v100H0z"/><path fill="#6b8c6e" d="M100 400h100v100H100z"/><path fill="#9eb18f" d="M200 400h100v100H200z"/><path fill="#fcedef" d="M300 400h100v100H300z"/><path fill="#dfdbc9" d="M400 400h100v100H400z"/><path fill="#d4d3b0" d="M500 400h100v100H500z"/><path fill="#a7ca6c" d="M600 400h100v100H600z"/><path fill="#83b92f" d="M700 400h100v100H700z"/><path fill="#fffffe" d="M0 500h100v100H0z"/><path fill="#f0f3ec" d="M100 500h100v100H100z"/><path fill="#f8f9f6" d="M200 500h100v100H200z"/><path fill="#fffffe" d="M300 500h100v100H300z"/><path fill="#fff" d="M400 500h100v100H400z"/><path fill="#fbfdfa" d="M500 500h100v100H500z"/><path fill="#edf4e1" d="M600 500h100v100H600z"/><path fill="#f2f6e5" d="M700 500h100v100H700z"/></svg>