<svg xmlns="http://www.w3.org/2000/svg" viewBox="0 0 800 800"><defs/><path fill="#30495b" d="M0 0h100v100H0z"/><path fill="#30424f" d="M100 0h100v100H100z"/><path fill="#2c4d5f" d="M200 0h100v100H200z"/><path fill="#384857" d="M300 0h100v100H300z"/><path fill="#5a4142" d="M400 0h100v100H400z"/><path fill="#8d614f" d="M500 0h100v100H500z"/><path fill="#3a404f" d="M600 0h100v100H600z"/><path fill="#2f3a4b" d="M700 0h100v100H700z"/><path fill="#2f4454" d="M0 100h100v100H0z"/><path fill="#2c3948" d="M100 100h100v100H100z"/><path fill="#364551" d="M200 100h100v100H200z"/><path fill="#91484d" d="M300 100h100v100H300z"/><path fill="#b47056" d="M400 100h100v100H400z"/><path fill="#ee9d6e" d="M500 100h100v100H500z"/><path fill="#aa5546" d="M600 100h100v100H600z"/><path fill="#36303b" d="M700 100h100v100H700z"/><path fill="#293f50" d="M0 200h100v100H0z"/><path fill="#22374a" d="M100 200h100v100H100z"/><path fill="#384553" d="M200 200h100v100H200z"/><path fill="#a8564e" d="M300 200h100v100H300z"/><path fill="#bd8f5d" d="M400 200h100v100H400z"/><path fill="#f69f6a" d="M500 200h100v100H500z"/><path fill="#a25843" d="M600 200h100v100H600z"/><path fill="#282f3c" d="M700 200h100v100H700z"/><path fill="#293e50" d="M0 300h100v100H0z"/><path fill="#233345" d="M100 300h100v100H100z"/><path fill="#434f54" d="M200 300h100v100H200z"/><path fill="#6e584c" d="M300 300h100v100H300z"/><path fill="#322424" d="M400 300h100v100H400z"/><path fill="#75543d" d="M500 300h100v100H500z"/><path fill="#5a372e" d="M600 300h100v100H600z"/><path fill="#2d2833" d="M700 300h100v100H700z"/><path fill="#243c50" d="M0 400h100v100H0z"/><path fill="#2e3447" d="M100 400h100v100H100z"/><path fill="#824c47" d="M200 400h100v100H200z"/><path fill="#32373d" d="M300 400h100v100H300z"/><path fill="#1a1723" d="M400 400h100v100H400z"/><path fill="#131322" d="M500 400h100v100H500z"/><path fill="#1f1922" d="M600 400h100v100H600z"/><path fill="#24212b" d="M700 400h100v100H700z"/><path fill="#263949" d="M0 500h100v100H0z"/><path fill="#263548" d="M100 500h100v100H100z"/><path fill="#3e2c3f" d="M200 500h100v100H200z"/><path fill="#39323e" d="M300 500h100v100H300z"/><path fill="#1d2731" d="M400 500h100v100H400z"/><path fill="#272b30" d="M500 500h100v100H500z"/><path fill="#1e2331" d="M600 500h100v100H600z"/><path fill="#1d2436" d="M700 500h100v100H700z"/><path fill="#355e6b" d="M0 600h100v100H0z"/><path fill="#214a61" d="M100 600h100v100H100z"/><path fill="#313547" d="M200 600h100v100H200z"/><path fill="#784647" d="M300 600h100v100H300z"/><path fill="#30454c" d="M400 600h100v100H400z"/><path fill="#262931" d="M500 600h100v100H500z"/><path fill="#272434" d="M600 600h100v100H600z"/><path fill="#1c304a" d="M700 600h100v100H700z"/><path fill="#2a586f" d="M0 700h100v100H0z"/><path fill="#253d51" d="M100 700h100v100H100z"/><path fill="#2c3340" d="M200 700h100v100H200z"/><path fill="#45323d" d="M300 700h100v100H300z"/><path fill="#373640" d="M400 700h100v100H400z"/><path fill="#191928" d="M500 700h100v100H500z"/><path fill="#1e2232" d="M600 700h100v100H600z"/><path fill="#1d2d42" d="M700 700h100v100H700z"/></svg>