<svg xmlns="http://www.w3.org/2000/svg" viewBox="0 0 800 500"><defs/><path fill="#2fc0dc" d="M0 0h100v100H0z"/><path fill="#2882b6" d="M100 0h100v100H100z"/><path fill="#42afac" d="M200 0h100v100H200z"/><path fill="#80bc7b" d="M300 0h100v100H300z"/><path fill="#35c7c0" d="M400 0h100v100H400z"/><path fill="#04cff6" d="M500 0h100v100H500z"/><path fill="#0cc6df" d="M600 0h100v100H600z"/><path fill="#47a39a" d="M700 0h100v100H700z"/><path fill="#2cadd1" d="M0 100h100v100H0z"/><path fill="#3485ab" d="M100 100h100v100H100z"/><path fill="#53ae9a" d="M200 100h100v100H200z"/><path fill="#bbb464" d="M300 100h100v100H300z"/><path fill="#51c7be" d="M400 100h100v100H400z"/><path fill="#28a6b2" d="M500 100h100v100H500z"/><path fill="#35948c" d="M600 100h100v100H600z"/><path fill="#2a705f" d="M700 100h100v100H700z"/><path fill="#2da0cb" d="M0 200h100v100H0z"/><path fill="#4292a6" d="M100 200h100v100H100z"/><path fill="#49bbc1" d="M200 200h100v100H200z"/><path fill="#47c3c3" d="M300 200h100v100H300z"/><path fill="#2ecfe4" d="M400 200h100v100H400z"/><path fill="#628570" d="M500 200h100v100H500z"/><path fill="#7e6b3f" d="M600 200h100v100H600z"/><path fill="#237a98" d="M700 200h100v100H700z"/><path fill="#1c98ca" d="M0 300h100v100H0z"/><path fill="#4c96a9" d="M100 300h100v100H100z"/><path fill="#908c66" d="M200 300h100v100H200z"/><path fill="#449289" d="M300 300h100v100H300z"/><path fill="#0c8189" d="M400 300h100v100H400z"/><path fill="#77511d" d="M500 300h100v100H500z"/><path fill="#e15c00" d="M600 300h100v100H600z"/><path fill="#44646e" d="M700 300h100v100H700z"/><path fill="#218dbd" d="M0 400h100v100H0z"/><path fill="#377693" d="M100 400h100v100H100z"/><path fill="#637566" d="M200 400h100v100H200z"/><path fill="#626445" d="M300 400h100v100H300z"/><path fill="#27422c" d="M400 400h100v100H400z"/><path fill="#514f2f" d="M500 400h100v100H500z"/><path fill="#774912" d="M600 400h100v100H600z"/><path fill="#2b2d31" d="M700 400h100v100H700z"/></svg>