<svg xmlns="http://www.w3.org/2000/svg" viewBox="0 0 800 400"><defs/><path fill="#d6d2b1" d="M0 0h100v100H0z"/><path fill="#cdcac2" d="M100 0h100v100H100z"/><path fill="#b8b39f" d="M200 0h100v100H200z"/><path fill="#f9f7d8" d="M300 0h100v100H300z"/><path fill="#fcf9dc" d="M400 0h100v100H400z"/><path fill="#c2d0d6" d="M500 0h100v100H500z"/><path fill="#cad7d8" d="M600 0h100v100H600z"/><path fill="#decfb6" d="M700 0h100v100H700z"/><path fill="#c5bea4" d="M0 100h100v100H0z"/><path fill="#cfccc5" d="M100 100h100v100H100z"/><path fill="#655750" d="M200 100h100v100H200z"/><path fill="#d4ceb5" d="M300 100h100v100H300z"/><path fill="#f8f3d7" d="M400 100h100v100H400z"/><path fill="#ccdcdb" d="M500 100h100v100H500z"/><path fill="#c5d2cc" d="M600 100h100v100H600z"/><path fill="#eae0c2" d="M700 100h100v100H700z"/><path fill="#e1dfc6" d="M0 200h100v100H0z"/><path fill="#b4aea6" d="M100 200h100v100H100z"/><path fill="#846b61" d="M200 200h100v100H200z"/><path fill="#7c6a60" d="M300 200h100v100H300z"/><path fill="#afa290" d="M400 200h100v100H400z"/><path fill="#c5ad96" d="M500 200h100v100H500z"/><path fill="#857e81" d="M600 200h100v100H600z"/><path fill="#97abcb" d="M700 200h100v100H700z"/><path fill="#c7c1b2" d="M0 300h100v100H0z"/><path fill="#916a5f" d="M100 300h100v100H100z"/><path fill="#baa299" d="M200 300h100v100H200z"/><path fill="#978c81" d="M300 300h100v100H300z"/><path fill="#b8afa9" d="M400 300h100v100H400z"/><path fill="#a57e6f" d="M500 300h100v100H500z"/><path fill="#715965" d="M600 300h100v100H600z"/><path fill="#6788ce" d="M700 300h100v100H700z"/></svg>