<svg xmlns="http://www.w3.org/2000/svg" viewBox="0 0 800 400"><defs/><path fill="#f6f9f8" d="M0 0h100v100H0z"/><path fill="#d1ddd5" d="M100 0h100v100H100z"/><path fill="#d4d8d5" d="M200 0h100v100H200z"/><path fill="#e5e2d5" d="M300 0h100v100H300z"/><path fill="#d7c890" d="M400 0h100v100H400z"/><path fill="#ddc5ab" d="M500 0h100v100H500z"/><path fill="#ab7856" d="M600 0h100v100H600z"/><path fill="#e3ded0" d="M700 0h100v100H700z"/><path fill="#ecf1ee" d="M0 100h100v100H0z"/><path fill="#c8d5cd" d="M100 100h100v100H100z"/><path fill="#e3e4e6" d="M200 100h100v100H200z"/><path fill="#e5d9b8" d="M300 100h100v100H300z"/><path fill="#d7b254" d="M400 100h100v100H400z"/><path fill="#e9d9b0" d="M500 100h100v100H500z"/><path fill="#c5b295" d="M600 100h100v100H600z"/><path fill="#ccb899" d="M700 100h100v100H700z"/><path fill="#e9f3ef" d="M0 200h100v100H0z"/><path fill="#ddece5" d="M100 200h100v100H100z"/><path fill="#dededf" d="M200 200h100v100H200z"/><path fill="#eeeee3" d="M300 200h100v100H300z"/><path fill="#deeafd" d="M400 200h100v100H400z"/><path fill="#aac2f6" d="M500 200h100v100H500z"/><path fill="#f0f7fe" d="M600 200h100v100H600z"/><path fill="#fefffd" d="M700 200h100v100H700z"/><path fill="#dae9e1" d="M0 300h100v100H0z"/><path fill="#e5f1f2" d="M100 300h100v100H100z"/><path fill="#dedbaf" d="M200 300h100v100H200z"/><path fill="#d4c95c" d="M300 300h100v100H300z"/><path fill="#bbb9d8" d="M400 300h100v100H400z"/><path fill="#4556d5" d="M500 300h100v100H500z"/><path fill="#f6f1f0" d="M600 300h100v100H600z"/><path fill="#f5f9f7" d="M700 300h100v100H700z"/></svg>