<svg xmlns="http://www.w3.org/2000/svg" viewBox="0 0 800 400"><defs/><path fill="#ddd" d="M0 0h100v100H0z"/><path fill="#8c8c8c" d="M100 0h100v100H100z"/><path fill="#9b9b9b" d="M200 0h100v100H200z"/><path fill="#777" d="M300 0h100v100H300z"/><path fill="#959595" d="M400 0h100v100H400z"/><path fill="#989898" d="M500 0h100v100H500z"/><path fill="#aaa" d="M600 0h100v100H600z"/><path fill="#d3d3d3" d="M700 0h100v100H700z"/><path fill="#ccc" d="M0 100h100v100H0z"/><path fill="#8a8a8a" d="M100 100h100v100H100z"/><path fill="#a5a5a5" d="M200 100h100v100H200z"/><path fill="#969696" d="M300 100h100v100H300z"/><path fill="#828282" d="M400 100h100v100H400z"/><path fill="#9b9b9b" d="M500 100h100v100H500z"/><path fill="#858585" d="M600 100h100v100H600z"/><path fill="#a6a6a6" d="M700 100h100v100H700z"/><path fill="#a2a2a2" d="M0 200h100v100H0z"/><path fill="#8b8b8b" d="M100 200h100v100H100z"/><path fill="#c4c4c4" d="M200 200h100v100H200z"/><path fill="#8d8d8d" d="M300 200h100v100H300z"/><path fill="#636363" d="M400 200h100v100H400z"/><path fill="#929292" d="M500 200h100v100H500z"/><path fill="#acacac" d="M600 200h100v100H600z"/><path fill="#bbb" d="M700 200h100v100H700z"/><path fill="#7d7d7d" d="M0 300h100v100H0z"/><path fill="#afafaf" d="M100 300h100v100H100z"/><path fill="#d7d7d7" d="M200 300h100v100H200z"/><path fill="#a0a0a0" d="M300 300h100v100H300z"/><path fill="#a4a4a4" d="M400 300h100v100H400z"/><path fill="#c4c4c4" d="M500 300h100v100H500z"/><path fill="#ededed" d="M600 300h100v100H600z"/><path fill="#b3b3b3" d="M700 300h100v100H700z"/></svg>