<svg xmlns="http://www.w3.org/2000/svg" viewBox="0 0 800 800"><defs/><path fill="#969599" d="M0 0h100v100H0z"/><path fill="#e0e8f4" d="M100 0h100v100H100z"/><path fill="#f1f9ff" d="M200 0h100v100H200z"/><path fill="#c2c6d1" d="M300 0h100v100H300z"/><path fill="#615042" d="M400 0h100v100H400z"/><path fill="#c5c5c5" d="M500 0h100v100H500z"/><path fill="#cfd4db" d="M600 0h100v100H600z"/><path fill="#85827f" d="M700 0h100v100H700z"/><path fill="#696258" d="M0 100h100v100H0z"/><path fill="#8f8e8d" d="M100 100h100v100H100z"/><path fill="#a4a19e" d="M200 100h100v100H200z"/><path fill="#8e8887" d="M300 100h100v100H300z"/><path fill="#514b44" d="M400 100h100v100H400z"/><path fill="#888886" d="M500 100h100v100H500z"/><path fill="#80807f" d="M600 100h100v100H600z"/><path fill="#53534f" d="M700 100h100v100H700z"/><path fill="#4e4c46" d="M0 200h100v100H0z"/><path fill="#43413d" d="M100 200h100v100H100z"/><path fill="#6a6661" d="M200 200h100v100H200z"/><path fill="#7a7775" d="M300 200h100v100H300z"/><path fill="#6b6968" d="M400 200h100v100H400z"/><path fill="#6b6b6a" d="M500 200h100v100H500z"/><path fill="#6e6d6d" d="M600 200h100v100H600z"/><path fill="#6d6c6d" d="M700 200h100v100H700z"/><path fill="#6d7179" d="M0 300h100v100H0z"/><path fill="#727882" d="M100 300h100v100H100z"/><path fill="#787d89" d="M200 300h100v100H200z"/><path fill="#777c86" d="M300 300h100v100H300z"/><path fill="#6e6d6f" d="M400 300h100v100H400z"/><path fill="#6b6a6d" d="M500 300h100v100H500z"/><path fill="#696a6e" d="M600 300h100v100H600z"/><path fill="#7b7576" d="M700 300h100v100H700z"/><path fill="#8b8c8c" d="M0 400h100v100H0z"/><path fill="#cbd2dd" d="M100 400h100v100H100z"/><path fill="#d3dae5" d="M200 400h100v100H200z"/><path fill="#9ca0a9" d="M300 400h100v100H300z"/><path fill="#afb3bc" d="M400 400h100v100H400z"/><path fill="#c1c6d0" d="M500 400h100v100H500z"/><path fill="#bfc4cd" d="M600 400h100v100H600z"/><path fill="#bcbfca" d="M700 400h100v100H700z"/><path fill="#65645d" d="M0 500h100v100H0z"/><path fill="#787d7f" d="M100 500h100v100H100z"/><path fill="#c7c9cc" d="M200 500h100v100H200z"/><path fill="#7f7f82" d="M300 500h100v100H300z"/><path fill="#919da4" d="M400 500h100v100H400z"/><path fill="#d0d6df" d="M500 500h100v100H500z"/><path fill="#d0d5de" d="M600 500h100v100H600z"/><path fill="#cbced7" d="M700 500h100v100H700z"/><path fill="#5f5f5c" d="M0 600h100v100H0z"/><path fill="#565554" d="M100 600h100v100H100z"/><path fill="#696865" d="M200 600h100v100H200z"/><path fill="#585858" d="M300 600h100v100H300z"/><path fill="#5c6260" d="M400 600h100v100H400z"/><path fill="#797b7c" d="M500 600h100v100H500z"/><path fill="#7f8082" d="M600 600h100v100H600z"/><path fill="#787b7d" d="M700 600h100v100H700z"/><path fill="#504f50" d="M0 700h100v100H0z"/><path fill="#5c5c60" d="M100 700h100v100H100z"/><path fill="#54575d" d="M200 700h100v100H200z"/><path fill="#4b4d54" d="M300 700h100v100H300z"/><path fill="#696b6c" d="M400 700h100v100H400z"/><path fill="#727679" d="M500 700h100v100H500z"/><path fill="#757a7f" d="M600 700h100v100H600z"/><path fill="#707378" d="M700 700h100v100H700z"/></svg>