<svg xmlns="http://www.w3.org/2000/svg" viewBox="0 0 800 500"><defs/><path fill="#f6f6f6" d="M0 0h100v100H0z"/><path fill="#ededed" d="M100 0h100v100H100z"/><path fill="#f5f5f6" d="M200 0h100v100H200z"/><path fill="#f2f7f9" d="M300 0h100v100H300z"/><path fill="#f2f8fa" d="M400 0h100v100H400z"/><path fill="#f3f7f8" d="M500 0h100v100H500z"/><path fill="#f7f8f8" d="M600 0h100v100H600z"/><path fill="#f6f6f6" d="M700 0h100v100H700z"/><path fill="#ebeceb" d="M0 100h100v100H0z"/><path fill="#bbbabe" d="M100 100h100v100H100z"/><path fill="#a9b89f" d="M200 100h100v100H200z"/><path fill="#a8cdb6" d="M300 100h100v100H300z"/><path fill="#b5e2e8" d="M400 100h100v100H400z"/><path fill="#a9c6bc" d="M500 100h100v100H500z"/><path fill="#c2c4bd" d="M600 100h100v100H600z"/><path fill="#e0dfe0" d="M700 100h100v100H700z"/><path fill="#e3e3e4" d="M0 200h100v100H0z"/><path fill="#bebebf" d="M100 200h100v100H100z"/><path fill="#abafa6" d="M200 200h100v100H200z"/><path fill="#a2a49c" d="M300 200h100v100H300z"/><path fill="#9fafab" d="M400 200h100v100H400z"/><path fill="#a2a49f" d="M500 200h100v100H500z"/><path fill="#b9b9b5" d="M600 200h100v100H600z"/><path fill="#e8e8e8" d="M700 200h100v100H700z"/><path fill="#cecdce" d="M0 300h100v100H0z"/><path fill="#c2c2c3" d="M100 300h100v100H100z"/><path fill="#e6e6e7" d="M200 300h100v100H200z"/><path fill="#d5d5d7" d="M300 300h100v100H300z"/><path fill="#efefef" d="M400 300h100v100H400z"/><path fill="#eeedee" d="M500 300h100v100H500z"/><path fill="#a59796" d="M600 300h100v100H600z"/><path fill="#a69b99" d="M700 300h100v100H700z"/><path fill="#ddd" d="M0 400h100v100H0z"/><path fill="#ebebeb" d="M100 400h100v100H100z"/><path fill="#f6f7f7" d="M200 400h100v100H200z"/><path fill="#cccaca" d="M300 400h100v100H300z"/><path fill="#f4f3f3" d="M400 400h100v100H400z"/><path fill="#f6f6f6" d="M500 400h100v100H500z"/><path fill="#dbd7d7" d="M600 400h100v100H600z"/><path fill="#d2cece" d="M700 400h100v100H700z"/></svg>