<svg xmlns="http://www.w3.org/2000/svg" viewBox="0 0 800 900"><defs/><path fill="#f9fbfb" d="M0 0h100v100H0z"/><path fill="#dfe9ed" d="M100 0h100v100H100z"/><path fill="#d2e0e9" d="M200 0h100v100H200z"/><path fill="#dce7ec" d="M300 0h100v100H300z"/><path fill="#dde6eb" d="M400 0h100v100H400z"/><path fill="#d9e4e9" d="M500 0h100v100H500z"/><path fill="#d3e0e6" d="M600 0h100v100H600z"/><path fill="#edf2f4" d="M700 0h100v100H700z"/><path fill="#c8d8e0" d="M0 100h100v100H0z"/><path fill="#477f99" d="M100 100h100v100H100z"/><path fill="#9cb6b5" d="M200 100h100v100H200z"/><path fill="#3c788d" d="M300 100h100v100H300z"/><path fill="#2e6985" d="M400 100h100v100H400z"/><path fill="#357795" d="M500 100h100v100H500z"/><path fill="#216e90" d="M600 100h100v100H600z"/><path fill="#a3c1ce" d="M700 100h100v100H700z"/><path fill="#c3d2da" d="M0 200h100v100H0z"/><path fill="#548399" d="M100 200h100v100H100z"/><path fill="#fffacd" d="M200 200h100v100H200z"/><path fill="#90ae9a" d="M300 200h100v100H300z"/><path fill="#266688" d="M400 200h100v100H400z"/><path fill="#5a92ac" d="M500 200h100v100H500z"/><path fill="#4f93b3" d="M600 200h100v100H600z"/><path fill="#a2beca" d="M700 200h100v100H700z"/><path fill="#c8d6de" d="M0 300h100v100H0z"/><path fill="#367086" d="M100 300h100v100H100z"/><path fill="#dee3ad" d="M200 300h100v100H200z"/><path fill="#f0ecaf" d="M300 300h100v100H300z"/><path fill="#4f8696" d="M400 300h100v100H400z"/><path fill="#417c99" d="M500 300h100v100H500z"/><path fill="#49839e" d="M600 300h100v100H600z"/><path fill="#a1bbc6" d="M700 300h100v100H700z"/><path fill="#cddbe0" d="M0 400h100v100H0z"/><path fill="#236384" d="M100 400h100v100H100z"/><path fill="#8fa18d" d="M200 400h100v100H200z"/><path fill="#dbc785" d="M300 400h100v100H300z"/><path fill="#a1b194" d="M400 400h100v100H400z"/><path fill="#2d708d" d="M500 400h100v100H500z"/><path fill="#1e5e7a" d="M600 400h100v100H600z"/><path fill="#a0b8c4" d="M700 400h100v100H700z"/><path fill="#c8d5da" d="M0 500h100v100H0z"/><path fill="#1e546f" d="M100 500h100v100H100z"/><path fill="#45717d" d="M200 500h100v100H200z"/><path fill="#77a7aa" d="M300 500h100v100H300z"/><path fill="#aebba7" d="M400 500h100v100H400z"/><path fill="#748585" d="M500 500h100v100H500z"/><path fill="#155475" d="M600 500h100v100H600z"/><path fill="#a2bac4" d="M700 500h100v100H700z"/><path fill="#c3d0d6" d="M0 600h100v100H0z"/><path fill="#114059" d="M100 600h100v100H100z"/><path fill="#235e7b" d="M200 600h100v100H200z"/><path fill="#5ba4c9" d="M300 600h100v100H300z"/><path fill="#5fb6dd" d="M400 600h100v100H400z"/><path fill="#799fbb" d="M500 600h100v100H500z"/><path fill="#385e70" d="M600 600h100v100H600z"/><path fill="#97acb5" d="M700 600h100v100H700z"/><path fill="#b5c3c9" d="M0 700h100v100H0z"/><path fill="#003c5b" d="M100 700h100v100H100z"/><path fill="#0d3b55" d="M200 700h100v100H200z"/><path fill="#24607c" d="M300 700h100v100H300z"/><path fill="#228eb8" d="M400 700h100v100H400z"/><path fill="#60b0ca" d="M500 700h100v100H500z"/><path fill="#47798f" d="M600 700h100v100H600z"/><path fill="#87a6b6" d="M700 700h100v100H700z"/><path fill="#e4e7ea" d="M0 800h100v100H0z"/><path fill="#a9bbc5" d="M100 800h100v100H100z"/><path fill="#abbac3" d="M200 800h100v100H200z"/><path fill="#b7c6cd" d="M300 800h100v100H300z"/><path fill="#91aebd" d="M400 800h100v100H400z"/><path fill="#a3b9c5" d="M500 800h100v100H500z"/><path fill="#aec4cf" d="M600 800h100v100H600z"/><path fill="#dee7eb" d="M700 800h100v100H700z"/></svg>