<svg xmlns="http://www.w3.org/2000/svg" viewBox="0 0 800 600"><defs/><path fill="#a57837" d="M0 0h100v100H0z"/><path fill="#86691f" d="M100 0h100v100H100z"/><path fill="#8d7623" d="M200 0h100v100H200z"/><path fill="#b68d4b" d="M300 0h100v100H300z"/><path fill="#a67d43" d="M400 0h100v100H400z"/><path fill="#877f76" d="M500 0h100v100H500z"/><path fill="#858176" d="M600 0h100v100H600z"/><path fill="#8a7f6d" d="M700 0h100v100H700z"/><path fill="#a07435" d="M0 100h100v100H0z"/><path fill="#705315" d="M100 100h100v100H100z"/><path fill="#c5b94d" d="M200 100h100v100H200z"/><path fill="#b9b870" d="M300 100h100v100H300z"/><path fill="#7a8b9f" d="M400 100h100v100H400z"/><path fill="#566372" d="M500 100h100v100H500z"/><path fill="#47492f" d="M600 100h100v100H600z"/><path fill="#6e774a" d="M700 100h100v100H700z"/><path fill="#956c2b" d="M0 200h100v100H0z"/><path fill="#806331" d="M100 200h100v100H100z"/><path fill="#e1d585" d="M200 200h100v100H200z"/><path fill="#c7c29b" d="M300 200h100v100H300z"/><path fill="#687592" d="M400 200h100v100H400z"/><path fill="#4e5258" d="M500 200h100v100H500z"/><path fill="#654f34" d="M600 200h100v100H600z"/><path fill="#af864a" d="M700 200h100v100H700z"/><path fill="#896621" d="M0 300h100v100H0z"/><path fill="#a57e6e" d="M100 300h100v100H100z"/><path fill="#eea7e3" d="M200 300h100v100H200z"/><path fill="#e9a2d3" d="M300 300h100v100H300z"/><path fill="#825f42" d="M400 300h100v100H400z"/><path fill="#614a42" d="M500 300h100v100H500z"/><path fill="#45445e" d="M600 300h100v100H600z"/><path fill="#916c35" d="M700 300h100v100H700z"/><path fill="#765615" d="M0 400h100v100H0z"/><path fill="#7e5844" d="M100 400h100v100H100z"/><path fill="#f597ff" d="M200 400h100v100H200z"/><path fill="#ea93ea" d="M300 400h100v100H300z"/><path fill="#a37e52" d="M400 400h100v100H400z"/><path fill="#af772e" d="M500 400h100v100H500z"/><path fill="#b2651c" d="M600 400h100v100H600z"/><path fill="#a0722e" d="M700 400h100v100H700z"/><path fill="#6e4f13" d="M0 500h100v100H0z"/><path fill="#7b562b" d="M100 500h100v100H100z"/><path fill="#bb826f" d="M200 500h100v100H200z"/><path fill="#b57d5f" d="M300 500h100v100H300z"/><path fill="#af844a" d="M400 500h100v100H400z"/><path fill="#a06f2f" d="M500 500h100v100H500z"/><path fill="#9b6423" d="M600 500h100v100H600z"/><path fill="#9e7132" d="M700 500h100v100H700z"/></svg>