<svg xmlns="http://www.w3.org/2000/svg" viewBox="0 0 800 600"><defs/><path fill="#e2d1be" d="M0 0h100v100H0z"/><path fill="#e2d1c0" d="M100 0h100v100H100z"/><path fill="#d7c6b5" d="M200 0h100v100H200z"/><path fill="#dac9b8" d="M300 0h100v100H300z"/><path fill="#dccbba" d="M400 0h100v100H400z"/><path fill="#d4c2ad" d="M500 0h100v100H500z"/><path fill="#d0beab" d="M600 0h100v100H600z"/><path fill="#cbb9a4" d="M700 0h100v100H700z"/><path fill="#dbc9b8" d="M0 100h100v100H0z"/><path fill="#cdbbad" d="M100 100h100v100H100z"/><path fill="#dbcbba" d="M200 100h100v100H200z"/><path fill="#dfcebc" d="M300 100h100v100H300zm100 0h100v100H400z"/><path fill="#c6b4a0" d="M500 100h100v100H500z"/><path fill="#c3b19d" d="M600 100h100v100H600z"/><path fill="#bdaa96" d="M700 100h100v100H700z"/><path fill="#dac9b7" d="M0 200h100v100H0z"/><path fill="#c6b5a3" d="M100 200h100v100H100z"/><path fill="#d4c2b0" d="M200 200h100v100H200z"/><path fill="#c0b3a3" d="M300 200h100v100H300z"/><path fill="#cebfae" d="M400 200h100v100H400z"/><path fill="#c7b6a2" d="M500 200h100v100H500z"/><path fill="#c3b19e" d="M600 200h100v100H600z"/><path fill="#c6b4a0" d="M700 200h100v100H700z"/><path fill="#dac9b6" d="M0 300h100v100H0z"/><path fill="#d1c0ad" d="M100 300h100v100H100z"/><path fill="#c9baa7" d="M200 300h100v100H200z"/><path fill="#c4b8a6" d="M300 300h100v100H300z"/><path fill="#b6a898" d="M400 300h100v100H400z"/><path fill="#baa898" d="M500 300h100v100H500z"/><path fill="#b4a28f" d="M600 300h100v100H600z"/><path fill="#af9d8a" d="M700 300h100v100H700z"/><path fill="#c9b8a6" d="M0 400h100v100H0z"/><path fill="#b5a593" d="M100 400h100v100H100z"/><path fill="#b9ab9a" d="M200 400h100v100H200z"/><path fill="#bdb09e" d="M300 400h100v100H300z"/><path fill="#a29685" d="M400 400h100v100H400z"/><path fill="#ab9b89" d="M500 400h100v100H500z"/><path fill="#9d8e7d" d="M600 400h100v100H600z"/><path fill="#9d8c79" d="M700 400h100v100H700z"/><path fill="#aa9b88" d="M0 500h100v100H0z"/><path fill="#b2a392" d="M100 500h100v100H100z"/><path fill="#b9aa99" d="M200 500h100v100H200z"/><path fill="#b6a696" d="M300 500h100v100H300z"/><path fill="#bfaf9f" d="M400 500h100v100H400z"/><path fill="#beae9c" d="M500 500h100v100H500z"/><path fill="#baa997" d="M600 500h100v100H600z"/><path fill="#aa9884" d="M700 500h100v100H700z"/></svg>