<svg xmlns="http://www.w3.org/2000/svg" viewBox="0 0 800 1100"><defs/><path fill="#9b8571" d="M0 0h100v100H0z"/><path fill="#bba997" d="M100 0h100v100H100z"/><path fill="#676461" d="M200 0h100v100H200z"/><path fill="#424345" d="M300 0h100v100H300z"/><path fill="#7e858b" d="M400 0h100v100H400z"/><path fill="#eef2f8" d="M500 0h100v100H500z"/><path fill="#a3a5a5" d="M600 0h100v100H600z"/><path fill="#191e18" d="M700 0h100v100H700z"/><path fill="#d5bca4" d="M0 100h100v100H0z"/><path fill="#c9b8ab" d="M100 100h100v100H100z"/><path fill="#928d88" d="M200 100h100v100H200z"/><path fill="#67645f" d="M300 100h100v100H300z"/><path fill="#454341" d="M400 100h100v100H400z"/><path fill="#4b4f55" d="M500 100h100v100H500z"/><path fill="#757c7f" d="M600 100h100v100H600z"/><path fill="#565b39" d="M700 100h100v100H700z"/><path fill="#aca19a" d="M0 200h100v100H0z"/><path fill="#ada095" d="M100 200h100v100H100z"/><path fill="#c7b9b4" d="M200 200h100v100H200z"/><path fill="#6f635b" d="M300 200h100v100H300z"/><path fill="#4f4741" d="M400 200h100v100H400z"/><path fill="#6e665e" d="M500 200h100v100H500z"/><path fill="#564c4b" d="M600 200h100v100H600z"/><path fill="#413a2d" d="M700 200h100v100H700z"/><path fill="#6f645c" d="M0 300h100v100H0z"/><path fill="#60574d" d="M100 300h100v100H100z"/><path fill="#b4b2ac" d="M200 300h100v100H200z"/><path fill="#141415" d="M300 300h100v100H300z"/><path fill="#2f2924" d="M400 300h100v100H400z"/><path fill="#7c685c" d="M500 300h100v100H500z"/><path fill="#4d3827" d="M600 300h100v100H600z"/><path fill="#6e5e4d" d="M700 300h100v100H700z"/><path fill="#bcafa9" d="M0 400h100v100H0z"/><path fill="#97897a" d="M100 400h100v100H100z"/><path fill="#97a0a0" d="M200 400h100v100H200z"/><path fill="#4c5351" d="M300 400h100v100H300z"/><path fill="#7b6550" d="M400 400h100v100H400z"/><path fill="#624b32" d="M500 400h100v100H500z"/><path fill="#6c461d" d="M600 400h100v100H600z"/><path fill="#603425" d="M700 400h100v100H700z"/><path fill="#cec9c0" d="M0 500h100v100H0z"/><path fill="#c4b7a1" d="M100 500h100v100H100z"/><path fill="#bfa685" d="M200 500h100v100H200z"/><path fill="#c4b5a3" d="M300 500h100v100H300z"/><path fill="#a38a70" d="M400 500h100v100H400z"/><path fill="#7f6044" d="M500 500h100v100H500z"/><path fill="#5f4936" d="M600 500h100v100H600z"/><path fill="#431b1d" d="M700 500h100v100H700z"/><path fill="#c2bcb3" d="M0 600h100v100H0z"/><path fill="#bfb091" d="M100 600h100v100H100z"/><path fill="#b6a993" d="M200 600h100v100H200z"/><path fill="#c2b19e" d="M300 600h100v100H300z"/><path fill="#c5b49f" d="M400 600h100v100H400z"/><path fill="#bba289" d="M500 600h100v100H500z"/><path fill="#8e785d" d="M600 600h100v100H600z"/><path fill="#947b61" d="M700 600h100v100H700z"/><path fill="#a79786" d="M0 700h100v100H0z"/><path fill="#d0bfaf" d="M100 700h100v100H100z"/><path fill="#d7cbb4" d="M200 700h100v100H200z"/><path fill="#bcae9d" d="M300 700h100v100H300z"/><path fill="#c0b2a4" d="M400 700h100v100H400z"/><path fill="#dfcbb6" d="M500 700h100v100H500z"/><path fill="#946f5c" d="M600 700h100v100H600z"/><path fill="#a98f75" d="M700 700h100v100H700z"/><path fill="#8c7357" d="M0 800h100v100H0z"/><path fill="#a59584" d="M100 800h100v100H100z"/><path fill="#dfd3c5" d="M200 800h100v100H200z"/><path fill="#cabeaf" d="M300 800h100v100H300z"/><path fill="#c3b8aa" d="M400 800h100v100H400z"/><path fill="#b8a694" d="M500 800h100v100H500z"/><path fill="#88644c" d="M600 800h100v100H600z"/><path fill="#b09372" d="M700 800h100v100H700z"/><path fill="#645446" d="M0 900h100v100H0z"/><path fill="#846c4f" d="M100 900h100v100H100z"/><path fill="#93806b" d="M200 900h100v100H200z"/><path fill="#cabeaf" d="M300 900h100v100H300z"/><path fill="#d6caba" d="M400 900h100v100H400z"/><path fill="#8d785e" d="M500 900h100v100H500z"/><path fill="#9d8362" d="M600 900h100v100H600z"/><path fill="#b59774" d="M700 900h100v100H700z"/><path fill="#232136" d="M0 1000h100v100H0z"/><path fill="#766450" d="M100 1000h100v100H100z"/><path fill="#80684c" d="M200 1000h100v100H200z"/><path fill="#8a735b" d="M300 1000h100v100H300z"/><path fill="#a68f77" d="M400 1000h100v100H400z"/><path fill="#9a7a5e" d="M500 1000h100v100H500z"/><path fill="#a98b6a" d="M600 1000h100v100H600z"/><path fill="#ac8d6b" d="M700 1000h100v100H700z"/></svg>