<svg xmlns="http://www.w3.org/2000/svg" viewBox="0 0 800 400"><defs/><path fill="#a89e8f" d="M0 0h100v100H0z"/><path fill="#9e857b" d="M100 0h100v100H100z"/><path fill="#b5aca3" d="M200 0h100v100H200z"/><path fill="#aea198" d="M300 0h100v100H300z"/><path fill="#a3a19c" d="M400 0h100v100H400z"/><path fill="#979792" d="M500 0h100v100H500z"/><path fill="#a09e94" d="M600 0h100v100H600z"/><path fill="#a29e8b" d="M700 0h100v100H700z"/><path fill="#ab9a8a" d="M0 100h100v100H0z"/><path fill="#a89284" d="M100 100h100v100H100z"/><path fill="#b2a3a0" d="M200 100h100v100H200z"/><path fill="#ae9f99" d="M300 100h100v100H300z"/><path fill="#8f887f" d="M400 100h100v100H400z"/><path fill="#7a7e80" d="M500 100h100v100H500z"/><path fill="#8b8f84" d="M600 100h100v100H600z"/><path fill="#8c876d" d="M700 100h100v100H700z"/><path fill="#a38e7e" d="M0 200h100v100H0z"/><path fill="#a3908c" d="M100 200h100v100H100z"/><path fill="#ac9da2" d="M200 200h100v100H200z"/><path fill="#a59293" d="M300 200h100v100H300z"/><path fill="#6e6767" d="M400 200h100v100H400z"/><path fill="#5f616b" d="M500 200h100v100H500z"/><path fill="#636365" d="M600 200h100v100H600z"/><path fill="#817b65" d="M700 200h100v100H700z"/><path fill="#a38d7f" d="M0 300h100v100H0z"/><path fill="#a69092" d="M100 300h100v100H100z"/><path fill="#a8919a" d="M200 300h100v100H200z"/><path fill="#a6878b" d="M300 300h100v100H300z"/><path fill="#9a8c85" d="M400 300h100v100H400z"/><path fill="#7e7971" d="M500 300h100v100H500z"/><path fill="#7b706a" d="M600 300h100v100H600z"/><path fill="#827269" d="M700 300h100v100H700z"/></svg>