<svg xmlns="http://www.w3.org/2000/svg" viewBox="0 0 800 400"><defs/><path fill="#3a2b25" d="M0 0h100v100H0z"/><path fill="#291a16" d="M100 0h100v100H100z"/><path fill="#726964" d="M200 0h100v100H200z"/><path fill="#c2bfb7" d="M300 0h100v100H300z"/><path fill="#d2c7c6" d="M400 0h100v100H400z"/><path fill="#bdb4b2" d="M500 0h100v100H500z"/><path fill="#e0d9d5" d="M600 0h100v100H600z"/><path fill="#fffffe" d="M700 0h100v100H700z"/><path fill="#c5bcb5" d="M0 100h100v100H0z"/><path fill="#cfcfca" d="M100 100h100v100H100z"/><path fill="#d7d9db" d="M200 100h100v100H200z"/><path fill="#a99794" d="M300 100h100v100H300z"/><path fill="#ab908b" d="M400 100h100v100H400z"/><path fill="#c6b2b1" d="M500 100h100v100H500z"/><path fill="#ecdfe0" d="M600 100h100v100H600z"/><path fill="#faf6f2" d="M700 100h100v100H700z"/><path fill="#d2b2b3" d="M0 200h100v100H0z"/><path fill="#d6cfcc" d="M100 200h100v100H100z"/><path fill="#babbb9" d="M200 200h100v100H200z"/><path fill="#b7b3b2" d="M300 200h100v100H300z"/><path fill="#b6a6a8" d="M400 200h100v100H400z"/><path fill="#c8b4bc" d="M500 200h100v100H500z"/><path fill="#ecdbe3" d="M600 200h100v100H600z"/><path fill="#f1ece9" d="M700 200h100v100H700z"/><path fill="#c8bab4" d="M0 300h100v100H0z"/><path fill="#cec3bf" d="M100 300h100v100H100z"/><path fill="#aeb4b0" d="M200 300h100v100H200z"/><path fill="#d3c3bf" d="M300 300h100v100H300z"/><path fill="#d5c3c3" d="M400 300h100v100H400z"/><path fill="#b2abae" d="M500 300h100v100H500z"/><path fill="#c7bec9" d="M600 300h100v100H600z"/><path fill="#eae6e8" d="M700 300h100v100H700z"/></svg>