<svg xmlns="http://www.w3.org/2000/svg" viewBox="0 0 800 600"><defs/><path fill="#f1e4e1" d="M0 0h100v100H0z"/><path fill="#e0d0e4" d="M100 0h100v100H100z"/><path fill="#d7cdd2" d="M200 0h100v100H200z"/><path fill="#decdcd" d="M300 0h100v100H300z"/><path fill="#ded3d3" d="M400 0h100v100H400z"/><path fill="#e3dad8" d="M500 0h100v100H500z"/><path fill="#e0d6da" d="M600 0h100v100H600z"/><path fill="#e6dcdb" d="M700 0h100v100H700z"/><path fill="#d09494" d="M0 100h100v100H0z"/><path fill="#8a4ca5" d="M100 100h100v100H100z"/><path fill="#235683" d="M200 100h100v100H200z"/><path fill="#726338" d="M300 100h100v100H300z"/><path fill="#ce8655" d="M400 100h100v100H400z"/><path fill="#cf836b" d="M500 100h100v100H500z"/><path fill="#935769" d="M600 100h100v100H600z"/><path fill="#a47172" d="M700 100h100v100H700z"/><path fill="#c68ba1" d="M0 200h100v100H0z"/><path fill="#8c4a96" d="M100 200h100v100H100z"/><path fill="#4c6792" d="M200 200h100v100H200z"/><path fill="#616f59" d="M300 200h100v100H300z"/><path fill="#c78b80" d="M400 200h100v100H400z"/><path fill="#d99191" d="M500 200h100v100H500z"/><path fill="#a88382" d="M600 200h100v100H600z"/><path fill="#a58485" d="M700 200h100v100H700z"/><path fill="#bd86bc" d="M0 300h100v100H0z"/><path fill="#894a80" d="M100 300h100v100H100z"/><path fill="#8e5a70" d="M200 300h100v100H200z"/><path fill="#876860" d="M300 300h100v100H300z"/><path fill="#8e817d" d="M400 300h100v100H400z"/><path fill="#cbb6ad" d="M500 300h100v100H500z"/><path fill="#9c7274" d="M600 300h100v100H600z"/><path fill="#a08676" d="M700 300h100v100H700z"/><path fill="#b47eba" d="M0 400h100v100H0z"/><path fill="#60588a" d="M100 400h100v100H100z"/><path fill="#6b546a" d="M200 400h100v100H200z"/><path fill="#8e6e84" d="M300 400h100v100H300z"/><path fill="#877366" d="M400 400h100v100H400z"/><path fill="#946f51" d="M500 400h100v100H500z"/><path fill="#89403b" d="M600 400h100v100H600z"/><path fill="#5f6968" d="M700 400h100v100H700z"/><path fill="#dce3e7" d="M0 500h100v100H0z"/><path fill="#d5d8dd" d="M100 500h100v100H100z"/><path fill="#d2d0d7" d="M200 500h100v100H200z"/><path fill="#d6dde7" d="M300 500h100v100H300z"/><path fill="#dcdce9" d="M400 500h100v100H400z"/><path fill="#dcdee1" d="M500 500h100v100H500z"/><path fill="#d5dcdd" d="M600 500h100v100H600z"/><path fill="#cdd5da" d="M700 500h100v100H700z"/></svg>