<svg xmlns="http://www.w3.org/2000/svg" viewBox="0 0 800 400"><defs/><path fill="#2e2d25" d="M0 0h100v100H0z"/><path fill="#29281a" d="M100 0h100v100H100z"/><path fill="#55503b" d="M200 0h100v100H200z"/><path fill="#938f84" d="M300 0h100v100H300z"/><path fill="#9e9889" d="M400 0h100v100H400z"/><path fill="#6e6449" d="M500 0h100v100H500z"/><path fill="#4b4734" d="M600 0h100v100H600z"/><path fill="#5c4f43" d="M700 0h100v100H700z"/><path fill="#453f30" d="M0 100h100v100H0z"/><path fill="#453d27" d="M100 100h100v100H100z"/><path fill="#6a654a" d="M200 100h100v100H200z"/><path fill="#b2b3a5" d="M300 100h100v100H300z"/><path fill="#b9b9a9" d="M400 100h100v100H400z"/><path fill="#6c6344" d="M500 100h100v100H500z"/><path fill="#5a5038" d="M600 100h100v100H600z"/><path fill="#5a5040" d="M700 100h100v100H700z"/><path fill="#383527" d="M0 200h100v100H0z"/><path fill="#4a412b" d="M100 200h100v100H100z"/><path fill="#655f45" d="M200 200h100v100H200z"/><path fill="#5f5c39" d="M300 200h100v100H300z"/><path fill="#6f6b4d" d="M400 200h100v100H400z"/><path fill="#6c5e43" d="M500 200h100v100H500z"/><path fill="#62523a" d="M600 200h100v100H600z"/><path fill="#48402f" d="M700 200h100v100H700z"/><path fill="#26261c" d="M0 300h100v100H0z"/><path fill="#2d2d1b" d="M100 300h100v100H100z"/><path fill="#6a664e" d="M200 300h100v100H200z"/><path fill="#868062" d="M300 300h100v100H300z"/><path fill="#9a947d" d="M400 300h100v100H400z"/><path fill="#746a53" d="M500 300h100v100H500z"/><path fill="#534934" d="M600 300h100v100H600z"/><path fill="#4e4332" d="M700 300h100v100H700z"/></svg>