<svg xmlns="http://www.w3.org/2000/svg" viewBox="0 0 800 500"><defs/><path fill="#cec5d5" d="M0 0h100v100H0z"/><path fill="#c5c5d1" d="M100 0h100v100H100z"/><path fill="#90b3ca" d="M200 0h100v100H200z"/><path fill="#98bdca" d="M300 0h100v100H300z"/><path fill="#8ab9cd" d="M400 0h100v100H400z"/><path fill="#a3afaa" d="M500 0h100v100H500z"/><path fill="#b9aeac" d="M600 0h100v100H600z"/><path fill="#b7bacc" d="M700 0h100v100H700z"/><path fill="#c3acc5" d="M0 100h100v100H0z"/><path fill="#828792" d="M100 100h100v100H100z"/><path fill="#2b7aa1" d="M200 100h100v100H200z"/><path fill="#678088" d="M300 100h100v100H300z"/><path fill="#6099a2" d="M400 100h100v100H400z"/><path fill="#3f6145" d="M500 100h100v100H500z"/><path fill="#4b4d35" d="M600 100h100v100H600z"/><path fill="#8384a8" d="M700 100h100v100H700z"/><path fill="#d09cb4" d="M0 200h100v100H0z"/><path fill="#8a777d" d="M100 200h100v100H100z"/><path fill="#2b767d" d="M200 200h100v100H200z"/><path fill="#636b44" d="M300 200h100v100H300z"/><path fill="#698f81" d="M400 200h100v100H400z"/><path fill="#64736e" d="M500 200h100v100H500z"/><path fill="#515f5e" d="M600 200h100v100H600z"/><path fill="#8188a0" d="M700 200h100v100H700z"/><path fill="#af9db0" d="M0 300h100v100H0z"/><path fill="#aa7f4a" d="M100 300h100v100H100z"/><path fill="#795912" d="M200 300h100v100H200z"/><path fill="#857a2b" d="M300 300h100v100H300z"/><path fill="#768270" d="M400 300h100v100H400z"/><path fill="#7c867f" d="M500 300h100v100H500z"/><path fill="#3a301b" d="M600 300h100v100H600z"/><path fill="#594b59" d="M700 300h100v100H700z"/><path fill="#bcceb2" d="M0 400h100v100H0z"/><path fill="#c5cf90" d="M100 400h100v100H100z"/><path fill="#beb88c" d="M200 400h100v100H200z"/><path fill="#b6ae90" d="M300 400h100v100H300z"/><path fill="#abada9" d="M400 400h100v100H400z"/><path fill="#adaf9b" d="M500 400h100v100H500z"/><path fill="#808270" d="M600 400h100v100H600z"/><path fill="#8a8f8d" d="M700 400h100v100H700z"/></svg>