<svg xmlns="http://www.w3.org/2000/svg" viewBox="0 0 800 1100"><defs/><path fill="#72726d" d="M0 0h100v100H0z"/><path fill="#71766f" d="M100 0h100v100H100z"/><path fill="#7d817b" d="M200 0h100v100H200z"/><path fill="#8a8983" d="M300 0h100v100H300z"/><path fill="#92908b" d="M400 0h100v100H400z"/><path fill="#9d9995" d="M500 0h100v100H500z"/><path fill="#9d9a95" d="M600 0h100v100H600z"/><path fill="#a29e98" d="M700 0h100v100H700z"/><path fill="#757370" d="M0 100h100v100H0z"/><path fill="#777a75" d="M100 100h100v100H100z"/><path fill="#6e766f" d="M200 100h100v100H200z"/><path fill="#747973" d="M300 100h100v100H300z"/><path fill="#828781" d="M400 100h100v100H400z"/><path fill="#868d86" d="M500 100h100v100H500z"/><path fill="#929790" d="M600 100h100v100H600z"/><path fill="#aca7a1" d="M700 100h100v100H700z"/><path fill="#7a7672" d="M0 200h100v100H0z"/><path fill="#8a8481" d="M100 200h100v100H100z"/><path fill="#78726f" d="M200 200h100v100H200z"/><path fill="#6c6864" d="M300 200h100v100H300z"/><path fill="#7f7a76" d="M400 200h100v100H400z"/><path fill="#898881" d="M500 200h100v100H500z"/><path fill="#878680" d="M600 200h100v100H600z"/><path fill="#b8b1a8" d="M700 200h100v100H700z"/><path fill="#857f7b" d="M0 300h100v100H0z"/><path fill="#8c8581" d="M100 300h100v100H100z"/><path fill="#817674" d="M200 300h100v100H200z"/><path fill="#867c79" d="M300 300h100v100H300z"/><path fill="#958783" d="M400 300h100v100H400z"/><path fill="#9e918b" d="M500 300h100v100H500z"/><path fill="#a19690" d="M600 300h100v100H600z"/><path fill="#bdb3ab" d="M700 300h100v100H700z"/><path fill="#8b837e" d="M0 400h100v100H0z"/><path fill="#8e8582" d="M100 400h100v100H100z"/><path fill="#9b8c89" d="M200 400h100v100H200z"/><path fill="#ad9e9a" d="M300 400h100v100H300z"/><path fill="#b1a19b" d="M400 400h100v100H400z"/><path fill="#b9a8a2" d="M500 400h100v100H500z"/><path fill="#b7aaa3" d="M600 400h100v100H600z"/><path fill="#c4b8af" d="M700 400h100v100H700z"/><path fill="#8e857f" d="M0 500h100v100H0z"/><path fill="#988b89" d="M100 500h100v100H100z"/><path fill="#ad9a95" d="M200 500h100v100H200z"/><path fill="#9e9088" d="M300 500h100v100H300z"/><path fill="#b09e97" d="M400 500h100v100H400z"/><path fill="#c2b0a9" d="M500 500h100v100H500z"/><path fill="#bdafa8" d="M600 500h100v100H600z"/><path fill="#cbbeb5" d="M700 500h100v100H700z"/><path fill="#8d827d" d="M0 600h100v100H0z"/><path fill="#9d8f8c" d="M100 600h100v100H100z"/><path fill="#a2918a" d="M200 600h100v100H200z"/><path fill="#94847d" d="M300 600h100v100H300z"/><path fill="#af9d96" d="M400 600h100v100H400z"/><path fill="#c7b4ad" d="M500 600h100v100H500z"/><path fill="#c6b7af" d="M600 600h100v100H600z"/><path fill="#d4c6bb" d="M700 600h100v100H700z"/><path fill="#867c76" d="M0 700h100v100H0z"/><path fill="#9b8e8a" d="M100 700h100v100H100z"/><path fill="#a3928b" d="M200 700h100v100H200z"/><path fill="#a5948c" d="M300 700h100v100H300z"/><path fill="#bba8a1" d="M400 700h100v100H400z"/><path fill="#c6b4ab" d="M500 700h100v100H500z"/><path fill="#ccbeb3" d="M600 700h100v100H600z"/><path fill="#dbcec0" d="M700 700h100v100H700z"/><path fill="#847c74" d="M0 800h100v100H0z"/><path fill="#9c8f88" d="M100 800h100v100H100z"/><path fill="#b8a59d" d="M200 800h100v100H200z"/><path fill="#a89890" d="M300 800h100v100H300z"/><path fill="#b2a196" d="M400 800h100v100H400z"/><path fill="#c6b4a7" d="M500 800h100v100H500z"/><path fill="#d3c5b7" d="M600 800h100v100H600z"/><path fill="#e7daca" d="M700 800h100v100H700z"/><path fill="#999083" d="M0 900h100v100H0z"/><path fill="#a0958d" d="M100 900h100v100H100z"/><path fill="#ac9f94" d="M200 900h100v100H200z"/><path fill="#9c9085" d="M300 900h100v100H300z"/><path fill="#bbada2" d="M400 900h100v100H400z"/><path fill="#cfc2b4" d="M500 900h100v100H500z"/><path fill="#dbd1c1" d="M600 900h100v100H600z"/><path fill="#eee3d1" d="M700 900h100v100H700z"/><path fill="#b1a594" d="M0 1000h100v100H0z"/><path fill="#938f84" d="M100 1000h100v100H100z"/><path fill="#958f82" d="M200 1000h100v100H200z"/><path fill="#a79c90" d="M300 1000h100v100H300z"/><path fill="#c2b6a9" d="M400 1000h100v100H400z"/><path fill="#dacfbf" d="M500 1000h100v100H500z"/><path fill="#e0d9c8" d="M600 1000h100v100H600z"/><path fill="#f2e9d4" d="M700 1000h100v100H700z"/></svg>