<svg xmlns="http://www.w3.org/2000/svg" viewBox="0 0 800 600"><defs/><path fill="#dbe1e0" d="M0 0h100v100H0z"/><path fill="#e9e7e5" d="M100 0h100v100H100z"/><path fill="#dadedb" d="M200 0h100v100H200z"/><path fill="#c5d0ce" d="M300 0h100v100H300z"/><path fill="#c7d2d0" d="M400 0h100v100H400z"/><path fill="#d8e6df" d="M500 0h100v100H500z"/><path fill="#d0d7d3" d="M600 0h100v100H600z"/><path fill="#ced4cf" d="M700 0h100v100H700z"/><path fill="#dfe4e4" d="M0 100h100v100H0z"/><path fill="#e3dde0" d="M100 100h100v100H100z"/><path fill="#d3d0d3" d="M200 100h100v100H200z"/><path fill="#c6c3c6" d="M300 100h100v100H300z"/><path fill="#cac1c4" d="M400 100h100v100H400z"/><path fill="#e6c5cc" d="M500 100h100v100H500z"/><path fill="#dfb8be" d="M600 100h100v100H600z"/><path fill="#d7b5b8" d="M700 100h100v100H700z"/><path fill="#e4e4e6" d="M0 200h100v100H0z"/><path fill="#e0d3da" d="M100 200h100v100H100z"/><path fill="#d0c3cb" d="M200 200h100v100H200z"/><path fill="#e5dbde" d="M300 200h100v100H300z"/><path fill="#d2cacc" d="M400 200h100v100H400z"/><path fill="#bd97a4" d="M500 200h100v100H500z"/><path fill="#cb9ca4" d="M600 200h100v100H600z"/><path fill="#d9b0b5" d="M700 200h100v100H700z"/><path fill="#e3dddf" d="M0 300h100v100H0z"/><path fill="#e3c6d1" d="M100 300h100v100H100z"/><path fill="#d6d0d2" d="M200 300h100v100H200z"/><path fill="#dceae4" d="M300 300h100v100H300z"/><path fill="#cac6c6" d="M400 300h100v100H400z"/><path fill="#8c898d" d="M500 300h100v100H500z"/><path fill="#a6979b" d="M600 300h100v100H600z"/><path fill="#dac1c4" d="M700 300h100v100H700z"/><path fill="#e3eae9" d="M0 400h100v100H0z"/><path fill="#d9d0d5" d="M100 400h100v100H100z"/><path fill="#e5d4da" d="M200 400h100v100H200z"/><path fill="#dadadb" d="M300 400h100v100H300z"/><path fill="#d2d1d0" d="M400 400h100v100H400z"/><path fill="#aba8aa" d="M500 400h100v100H500z"/><path fill="#8d848b" d="M600 400h100v100H600z"/><path fill="#b1a3a9" d="M700 400h100v100H700z"/><path fill="#ecf8f6" d="M0 500h100v100H0z"/><path fill="#e9f3f5" d="M100 500h100v100H100z"/><path fill="#dee8e9" d="M200 500h100v100H200z"/><path fill="#d5dadc" d="M300 500h100v100H300z"/><path fill="#cbd7d5" d="M400 500h100v100H400z"/><path fill="#bdcac7" d="M500 500h100v100H500z"/><path fill="#9ca3a5" d="M600 500h100v100H600z"/><path fill="#95999d" d="M700 500h100v100H700z"/></svg>