<svg xmlns="http://www.w3.org/2000/svg" viewBox="0 0 800 400"><defs/><path fill="#2a150e" d="M0 0h100v100H0z"/><path fill="#412213" d="M100 0h100v100H100z"/><path fill="#3e2012" d="M200 0h100v100H200z"/><path fill="#634025" d="M300 0h100v100H300z"/><path fill="#896138" d="M400 0h100v100H400z"/><path fill="#54301c" d="M500 0h100v100H500z"/><path fill="#371c12" d="M600 0h100v100H600z"/><path fill="#2b170f" d="M700 0h100v100H700z"/><path fill="#351f17" d="M0 100h100v100H0z"/><path fill="#452413" d="M100 100h100v100H100z"/><path fill="#482715" d="M200 100h100v100H200z"/><path fill="#ad9668" d="M300 100h100v100H300z"/><path fill="#dac17f" d="M400 100h100v100H400z"/><path fill="#866742" d="M500 100h100v100H500z"/><path fill="#432213" d="M600 100h100v100H600z"/><path fill="#341c11" d="M700 100h100v100H700z"/><path fill="#2f1810" d="M0 200h100v100H0z"/><path fill="#482715" d="M100 200h100v100H100z"/><path fill="#311a11" d="M200 200h100v100H200z"/><path fill="#5f472c" d="M300 200h100v100H300z"/><path fill="#d2b165" d="M400 200h100v100H400z"/><path fill="#97754b" d="M500 200h100v100H500z"/><path fill="#6e4c32" d="M600 200h100v100H600z"/><path fill="#5f3e26" d="M700 200h100v100H700z"/><path fill="#25120c" d="M0 300h100v100H0z"/><path fill="#452414" d="M100 300h100v100H100z"/><path fill="#361b12" d="M200 300h100v100H200z"/><path fill="#533829" d="M300 300h100v100H300z"/><path fill="#9d7d5f" d="M400 300h100v100H400z"/><path fill="#6d5640" d="M500 300h100v100H500z"/><path fill="#6e4a2d" d="M600 300h100v100H600z"/><path fill="#6c4327" d="M700 300h100v100H700z"/></svg>