<svg xmlns="http://www.w3.org/2000/svg" viewBox="0 0 800 600"><defs/><path fill="#e7e7e4" d="M0 0h100v100H0z"/><path fill="#dbded9" d="M100 0h100v100H100z"/><path fill="#d8d8d5" d="M200 0h100v100H200z"/><path fill="#d8d9d3" d="M300 0h100v100H300z"/><path fill="#dfddd6" d="M400 0h100v100H400z"/><path fill="#dedcd7" d="M500 0h100v100H500z"/><path fill="#eae5db" d="M600 0h100v100H600z"/><path fill="#f2f0e7" d="M700 0h100v100H700z"/><path fill="#787b6b" d="M0 100h100v100H0z"/><path fill="#39422e" d="M100 100h100v100H100z"/><path fill="#35351c" d="M200 100h100v100H200z"/><path fill="#3b3f1b" d="M300 100h100v100H300z"/><path fill="#66572d" d="M400 100h100v100H400z"/><path fill="#816c38" d="M500 100h100v100H500z"/><path fill="#a29142" d="M600 100h100v100H600z"/><path fill="#beb276" d="M700 100h100v100H700z"/><path fill="#808372" d="M0 200h100v100H0z"/><path fill="#353924" d="M100 200h100v100H100z"/><path fill="#353618" d="M200 200h100v100H200z"/><path fill="#6b6327" d="M300 200h100v100H300z"/><path fill="#98772f" d="M400 200h100v100H400z"/><path fill="#856e34" d="M500 200h100v100H500z"/><path fill="#8a8038" d="M600 200h100v100H600z"/><path fill="#ccc385" d="M700 200h100v100H700z"/><path fill="#88897a" d="M0 300h100v100H0z"/><path fill="#424322" d="M100 300h100v100H100z"/><path fill="#5c592b" d="M200 300h100v100H200z"/><path fill="#8c783c" d="M300 300h100v100H300z"/><path fill="#927032" d="M400 300h100v100H400z"/><path fill="#906d3a" d="M500 300h100v100H500z"/><path fill="#7f6337" d="M600 300h100v100H600z"/><path fill="#c6b781" d="M700 300h100v100H700z"/><path fill="#777c69" d="M0 400h100v100H0z"/><path fill="#424014" d="M100 400h100v100H100z"/><path fill="#645d20" d="M200 400h100v100H200z"/><path fill="#7e602e" d="M300 400h100v100H300z"/><path fill="#907946" d="M400 400h100v100H400z"/><path fill="#8e6a35" d="M500 400h100v100H500z"/><path fill="#7e6228" d="M600 400h100v100H600z"/><path fill="#6c5e2a" d="M700 400h100v100H700z"/><path fill="#c1c1b7" d="M0 500h100v100H0z"/><path fill="#a3a28f" d="M100 500h100v100H100z"/><path fill="#b5b297" d="M200 500h100v100H200z"/><path fill="#c0b297" d="M300 500h100v100H300z"/><path fill="#d2bd9c" d="M400 500h100v100H400z"/><path fill="#b8a893" d="M500 500h100v100H500z"/><path fill="#b8ac94" d="M600 500h100v100H600z"/><path fill="#a3a48f" d="M700 500h100v100H700z"/></svg>