<svg xmlns="http://www.w3.org/2000/svg" viewBox="0 0 800 500"><defs/><path fill="#d0a057" d="M0 0h100v100H0z"/><path fill="#ae8f57" d="M100 0h100v100H100z"/><path fill="#e1bd7d" d="M200 0h100v100H200z"/><path fill="#728aaf" d="M300 0h100v100H300z"/><path fill="#a8aaac" d="M400 0h100v100H400z"/><path fill="#b5813c" d="M500 0h100v100H500z"/><path fill="#d79d47" d="M600 0h100v100H600z"/><path fill="#ffbd52" d="M700 0h100v100H700z"/><path fill="#c39d5b" d="M0 100h100v100H0z"/><path fill="#8e714a" d="M100 100h100v100H100z"/><path fill="#8d5b3a" d="M200 100h100v100H200z"/><path fill="#443642" d="M300 100h100v100H300z"/><path fill="#9f9794" d="M400 100h100v100H400z"/><path fill="#856231" d="M500 100h100v100H500z"/><path fill="#d5a052" d="M600 100h100v100H600z"/><path fill="#fcbb5a" d="M700 100h100v100H700z"/><path fill="#c2a05f" d="M0 200h100v100H0z"/><path fill="#614439" d="M100 200h100v100H100z"/><path fill="#390005" d="M200 200h100v100H200z"/><path fill="#511715" d="M300 200h100v100H300z"/><path fill="#ce9644" d="M400 200h100v100H400z"/><path fill="#6f582e" d="M500 200h100v100H500z"/><path fill="#835a46" d="M600 200h100v100H600z"/><path fill="#b38248" d="M700 200h100v100H700z"/><path fill="#b1955d" d="M0 300h100v100H0z"/><path fill="#664a40" d="M100 300h100v100H100z"/><path fill="#44080d" d="M200 300h100v100H200z"/><path fill="#562119" d="M300 300h100v100H300z"/><path fill="#8975a1" d="M400 300h100v100H400z"/><path fill="#3b41b6" d="M500 300h100v100H500z"/><path fill="#2f2aa1" d="M600 300h100v100H600z"/><path fill="#817b82" d="M700 300h100v100H700z"/><path fill="#c2a883" d="M0 400h100v100H0z"/><path fill="#83625c" d="M100 400h100v100H100z"/><path fill="#3c0108" d="M200 400h100v100H200z"/><path fill="#5d271c" d="M300 400h100v100H300z"/><path fill="#6d6cc9" d="M400 400h100v100H400z"/><path fill="#192fff" d="M500 400h100v100H500z"/><path fill="#2131ff" d="M600 400h100v100H600z"/><path fill="#306ef3" d="M700 400h100v100H700z"/></svg>