<svg xmlns="http://www.w3.org/2000/svg" viewBox="0 0 800 500"><defs/><path fill="#7dbfc0" d="M0 0h100v100H0z"/><path fill="#9d866d" d="M100 0h100v100H100z"/><path fill="#eee2d2" d="M200 0h100v100H200z"/><path fill="#f4f0e4" d="M300 0h100v100H300z"/><path fill="#e7dfd1" d="M400 0h100v100H400z"/><path fill="#ccdfdb" d="M500 0h100v100H500z"/><path fill="#c1dbdc" d="M600 0h100v100H600z"/><path fill="#87c7c5" d="M700 0h100v100H700z"/><path fill="#469196" d="M0 100h100v100H0z"/><path fill="#7b4a22" d="M100 100h100v100H100z"/><path fill="#fff4da" d="M200 100h100v100H200z"/><path fill="#dbd2c3" d="M300 100h100v100H300z"/><path fill="#928672" d="M400 100h100v100H400z"/><path fill="#81a3a7" d="M500 100h100v100H500z"/><path fill="#739da6" d="M600 100h100v100H600z"/><path fill="#46b2b3" d="M700 100h100v100H700z"/><path fill="#55887d" d="M0 200h100v100H0z"/><path fill="#9b6d49" d="M100 200h100v100H100z"/><path fill="#a4a69e" d="M200 200h100v100H200z"/><path fill="#a19e95" d="M300 200h100v100H300z"/><path fill="#9b9484" d="M400 200h100v100H400z"/><path fill="#cf9e8c" d="M500 200h100v100H500z"/><path fill="#b69785" d="M600 200h100v100H600z"/><path fill="#48b7b9" d="M700 200h100v100H700z"/><path fill="#677560" d="M0 300h100v100H0z"/><path fill="#95491b" d="M100 300h100v100H100z"/><path fill="#825e47" d="M200 300h100v100H200z"/><path fill="#846a48" d="M300 300h100v100H300z"/><path fill="#9a7f54" d="M400 300h100v100H400z"/><path fill="#c16a35" d="M500 300h100v100H500z"/><path fill="#af7c5b" d="M600 300h100v100H600z"/><path fill="#719f99" d="M700 300h100v100H700z"/><path fill="#917152" d="M0 400h100v100H0z"/><path fill="#a64c12" d="M100 400h100v100H100z"/><path fill="#c76a2f" d="M200 400h100v100H200z"/><path fill="#a45f29" d="M300 400h100v100H300z"/><path fill="#9d5f2b" d="M400 400h100v100H400z"/><path fill="#b1571d" d="M500 400h100v100H500z"/><path fill="#ae5c2a" d="M600 400h100v100H600z"/><path fill="#a67e5f" d="M700 400h100v100H700z"/></svg>