<svg xmlns="http://www.w3.org/2000/svg" viewBox="0 0 800 600"><defs/><path fill="#967c65" d="M0 0h100v100H0z"/><path fill="#813f46" d="M100 0h100v100H100z"/><path fill="#aa445c" d="M200 0h100v100H200z"/><path fill="#697a6e" d="M300 0h100v100H300z"/><path fill="#94986f" d="M400 0h100v100H400z"/><path fill="#aa8b79" d="M500 0h100v100H500z"/><path fill="#5b6b6b" d="M600 0h100v100H600z"/><path fill="#3d4647" d="M700 0h100v100H700z"/><path fill="#947764" d="M0 100h100v100H0z"/><path fill="#a5746c" d="M100 100h100v100H100z"/><path fill="#95857f" d="M200 100h100v100H200z"/><path fill="#5f948e" d="M300 100h100v100H300z"/><path fill="#637174" d="M400 100h100v100H400z"/><path fill="#8e8279" d="M500 100h100v100H500z"/><path fill="#594a40" d="M600 100h100v100H600z"/><path fill="#474039" d="M700 100h100v100H700z"/><path fill="#442d2f" d="M0 200h100v100H0z"/><path fill="#5c4d3b" d="M100 200h100v100H100z"/><path fill="#62513f" d="M200 200h100v100H200z"/><path fill="#75765f" d="M300 200h100v100H300z"/><path fill="#464f54" d="M400 200h100v100H400z"/><path fill="#906952" d="M500 200h100v100H500z"/><path fill="#5a453c" d="M600 200h100v100H600z"/><path fill="#3e3632" d="M700 200h100v100H700z"/><path fill="#3a253e" d="M0 300h100v100H0z"/><path fill="#755b55" d="M100 300h100v100H100z"/><path fill="#be946c" d="M200 300h100v100H200z"/><path fill="#8b735c" d="M300 300h100v100H300z"/><path fill="#504c44" d="M400 300h100v100H400z"/><path fill="#c4a07f" d="M500 300h100v100H500z"/><path fill="#6e6a49" d="M600 300h100v100H600z"/><path fill="#4a563e" d="M700 300h100v100H700z"/><path fill="#49424c" d="M0 400h100v100H0z"/><path fill="#757177" d="M100 400h100v100H100z"/><path fill="#f3efb5" d="M200 400h100v100H200z"/><path fill="#b8b699" d="M300 400h100v100H300z"/><path fill="#acaf9f" d="M400 400h100v100H400z"/><path fill="#c0b9a8" d="M500 400h100v100H500z"/><path fill="#8d7f6c" d="M600 400h100v100H600z"/><path fill="#7c7b65" d="M700 400h100v100H700z"/><path fill="#372c32" d="M0 500h100v100H0z"/><path fill="#4a3b54" d="M100 500h100v100H100z"/><path fill="#b19b84" d="M200 500h100v100H200z"/><path fill="#ba9a74" d="M300 500h100v100H300z"/><path fill="#d2b78d" d="M400 500h100v100H400z"/><path fill="#b69e82" d="M500 500h100v100H500z"/><path fill="#75645b" d="M600 500h100v100H600z"/><path fill="#896d51" d="M700 500h100v100H700z"/></svg>