<svg xmlns="http://www.w3.org/2000/svg" viewBox="0 0 800 600"><defs/><path fill="#d7d3e3" d="M0 0h100v100H0z"/><path fill="#cfcce1" d="M100 0h100v100H100z"/><path fill="#d7d7e6" d="M200 0h100v100H200z"/><path fill="#dadae7" d="M300 0h100v100H300z"/><path fill="#dcdce8" d="M400 0h100v100H400z"/><path fill="#dfe0ea" d="M500 0h100v100H500z"/><path fill="#e4e1ec" d="M600 0h100v100H600z"/><path fill="#e7e4ed" d="M700 0h100v100H700z"/><path fill="#786bb3" d="M0 100h100v100H0z"/><path fill="#5f38a4" d="M100 100h100v100H100z"/><path fill="#94609b" d="M200 100h100v100H200z"/><path fill="#986397" d="M300 100h100v100H300z"/><path fill="#98649a" d="M400 100h100v100H400z"/><path fill="#946398" d="M500 100h100v100H500z"/><path fill="#7b5c93" d="M600 100h100v100H600z"/><path fill="#87649e" d="M700 100h100v100H700z"/><path fill="#989bda" d="M0 200h100v100H0z"/><path fill="#8c5ab6" d="M100 200h100v100H100z"/><path fill="#b26b9c" d="M200 200h100v100H200z"/><path fill="#bd6ba2" d="M300 200h100v100H300z"/><path fill="#c972a1" d="M400 200h100v100H400z"/><path fill="#c2719b" d="M500 200h100v100H500z"/><path fill="#745380" d="M600 200h100v100H600z"/><path fill="#a16a9d" d="M700 200h100v100H700z"/><path fill="#ad9ed7" d="M0 300h100v100H0z"/><path fill="#7d6298" d="M100 300h100v100H100z"/><path fill="#2e3b82" d="M200 300h100v100H200z"/><path fill="#533d91" d="M300 300h100v100H300z"/><path fill="#83669f" d="M400 300h100v100H400z"/><path fill="#9067b1" d="M500 300h100v100H500z"/><path fill="#6e42a0" d="M600 300h100v100H600z"/><path fill="#945bb6" d="M700 300h100v100H700z"/><path fill="#a28dc3" d="M0 400h100v100H0z"/><path fill="#704f98" d="M100 400h100v100H100z"/><path fill="#7d6388" d="M200 400h100v100H200z"/><path fill="#965779" d="M300 400h100v100H300z"/><path fill="#988197" d="M400 400h100v100H400z"/><path fill="#9580b0" d="M500 400h100v100H500z"/><path fill="#7a57c8" d="M600 400h100v100H600z"/><path fill="#4a268c" d="M700 400h100v100H700z"/><path fill="#b9bbd0" d="M0 500h100v100H0z"/><path fill="#b9bbdf" d="M100 500h100v100H100z"/><path fill="#e7d5d4" d="M200 500h100v100H200z"/><path fill="#d5c1cb" d="M300 500h100v100H300z"/><path fill="#c1b2cd" d="M400 500h100v100H400z"/><path fill="#d4bfc3" d="M500 500h100v100H500z"/><path fill="#b7aac2" d="M600 500h100v100H600z"/><path fill="#9e96b7" d="M700 500h100v100H700z"/></svg>