<svg xmlns="http://www.w3.org/2000/svg" viewBox="0 0 800 600"><defs/><path fill="#eae9e8" d="M0 0h100v100H0z"/><path fill="#dfe0e2" d="M100 0h100v100H100z"/><path fill="#e5e7ea" d="M200 0h100v100H200z"/><path fill="#eeeded" d="M300 0h100v100H300z"/><path fill="#eeeceb" d="M400 0h100v100H400z"/><path fill="#e9e9ec" d="M500 0h100v100H500z"/><path fill="#e1e4e8" d="M600 0h100v100H600z"/><path fill="#e4e6ea" d="M700 0h100v100H700z"/><path fill="#e9d3a7" d="M0 100h100v100H0z"/><path fill="#939581" d="M100 100h100v100H100z"/><path fill="#9ba9b6" d="M200 100h100v100H200z"/><path fill="#90a1b1" d="M300 100h100v100H300z"/><path fill="#87a1bb" d="M400 100h100v100H400z"/><path fill="#b0b9c3" d="M500 100h100v100H500z"/><path fill="#c9cace" d="M600 100h100v100H600z"/><path fill="#cdd4d6" d="M700 100h100v100H700z"/><path fill="#dfcda4" d="M0 200h100v100H0z"/><path fill="#7f9290" d="M100 200h100v100H100z"/><path fill="#97a8b3" d="M200 200h100v100H200z"/><path fill="#4f818f" d="M300 200h100v100H300z"/><path fill="#448393" d="M400 200h100v100H400z"/><path fill="#94a3a3" d="M500 200h100v100H500z"/><path fill="#ccc6cc" d="M600 200h100v100H600z"/><path fill="#bdbcbf" d="M700 200h100v100H700z"/><path fill="#c7c4ad" d="M0 300h100v100H0z"/><path fill="#6d858d" d="M100 300h100v100H100z"/><path fill="#a09485" d="M200 300h100v100H200z"/><path fill="#838065" d="M300 300h100v100H300z"/><path fill="#767d64" d="M400 300h100v100H400z"/><path fill="#91856c" d="M500 300h100v100H500z"/><path fill="#9d8674" d="M600 300h100v100H600z"/><path fill="#c3bebc" d="M700 300h100v100H700z"/><path fill="#b4bebc" d="M0 400h100v100H0z"/><path fill="#787e7d" d="M100 400h100v100H100z"/><path fill="#8d7c6f" d="M200 400h100v100H200z"/><path fill="#707161" d="M300 400h100v100H300z"/><path fill="#726b56" d="M400 400h100v100H400z"/><path fill="#847261" d="M500 400h100v100H500z"/><path fill="#7f725d" d="M600 400h100v100H600z"/><path fill="#aeaca7" d="M700 400h100v100H700z"/><path fill="#e3e5e7" d="M0 500h100v100H0z"/><path fill="#d9dbdd" d="M100 500h100v100H100z"/><path fill="#d7d9da" d="M200 500h100v100H200z"/><path fill="#d0d0d0" d="M300 500h100v100H300z"/><path fill="#d6d7d6" d="M400 500h100v100H400z"/><path fill="#d4d5d7" d="M500 500h100v100H500z"/><path fill="#d6d6d9" d="M600 500h100v100H600z"/><path fill="#d4d6d7" d="M700 500h100v100H700z"/></svg>