<svg xmlns="http://www.w3.org/2000/svg" viewBox="0 0 800 400"><defs/><path fill="#423235" d="M0 0h100v100H0z"/><path fill="#473540" d="M100 0h100v100H100z"/><path fill="#6f5258" d="M200 0h100v100H200z"/><path fill="#564448" d="M300 0h100v100H300z"/><path fill="#574648" d="M400 0h100v100H400z"/><path fill="#4b363d" d="M500 0h100v100H500z"/><path fill="#5b414e" d="M600 0h100v100H600z"/><path fill="#4d3e42" d="M700 0h100v100H700z"/><path fill="#3f3234" d="M0 100h100v100H0z"/><path fill="#42373f" d="M100 100h100v100H100z"/><path fill="#59444b" d="M200 100h100v100H200z"/><path fill="#564242" d="M300 100h100v100H300z"/><path fill="#584547" d="M400 100h100v100H400z"/><path fill="#4b333f" d="M500 100h100v100H500z"/><path fill="#8e656c" d="M600 100h100v100H600z"/><path fill="#524344" d="M700 100h100v100H700z"/><path fill="#332b2f" d="M0 200h100v100H0z"/><path fill="#503a41" d="M100 200h100v100H100z"/><path fill="#4d383c" d="M200 200h100v100H200z"/><path fill="#573f40" d="M300 200h100v100H300z"/><path fill="#604645" d="M400 200h100v100H400z"/><path fill="#725155" d="M500 200h100v100H500z"/><path fill="#8d676a" d="M600 200h100v100H600z"/><path fill="#4f3c3e" d="M700 200h100v100H700z"/><path fill="#513942" d="M0 300h100v100H0z"/><path fill="#785258" d="M100 300h100v100H100z"/><path fill="#9a6763" d="M200 300h100v100H200z"/><path fill="#a76f69" d="M300 300h100v100H300z"/><path fill="#976767" d="M400 300h100v100H400z"/><path fill="#7d5a5e" d="M500 300h100v100H500z"/><path fill="#967471" d="M600 300h100v100H600z"/><path fill="#735654" d="M700 300h100v100H700z"/></svg>