<svg xmlns="http://www.w3.org/2000/svg" viewBox="0 0 800 400"><defs/><path fill="#695070" d="M0 0h100v100H0z"/><path fill="#5b3d46" d="M100 0h100v100H100z"/><path fill="#6e5674" d="M200 0h100v100H200z"/><path fill="#9b7f8e" d="M300 0h100v100H300z"/><path fill="#998496" d="M400 0h100v100H400z"/><path fill="#a18888" d="M500 0h100v100H500z"/><path fill="#725966" d="M600 0h100v100H600z"/><path fill="#6c5583" d="M700 0h100v100H700z"/><path fill="#654f66" d="M0 100h100v100H0z"/><path fill="#5b4252" d="M100 100h100v100H100z"/><path fill="#655264" d="M200 100h100v100H200z"/><path fill="#b2928b" d="M300 100h100v100H300z"/><path fill="#cab2c5" d="M400 100h100v100H400z"/><path fill="#bca3ac" d="M500 100h100v100H500z"/><path fill="#785c5b" d="M600 100h100v100H600z"/><path fill="#644a67" d="M700 100h100v100H700z"/><path fill="#634559" d="M0 200h100v100H0z"/><path fill="#5d3f42" d="M100 200h100v100H100z"/><path fill="#684d56" d="M200 200h100v100H200z"/><path fill="#654d43" d="M300 200h100v100H300z"/><path fill="#826e7d" d="M400 200h100v100H400z"/><path fill="#7a627f" d="M500 200h100v100H500z"/><path fill="#684d49" d="M600 200h100v100H600z"/><path fill="#5d404f" d="M700 200h100v100H700z"/><path fill="#63454c" d="M0 300h100v100H0z"/><path fill="#694c43" d="M100 300h100v100H100z"/><path fill="#6e524a" d="M200 300h100v100H200z"/><path fill="#634c4b" d="M300 300h100v100H300z"/><path fill="#564342" d="M400 300h100v100H400z"/><path fill="#684f4c" d="M500 300h100v100H500z"/><path fill="#74584d" d="M600 300h100v100H600z"/><path fill="#684c4f" d="M700 300h100v100H700z"/></svg>