<svg xmlns="http://www.w3.org/2000/svg" viewBox="0 0 800 400"><defs/><path fill="#7c6f1d" d="M0 0h100v100H0z"/><path fill="#7e8936" d="M100 0h100v100H100z"/><path fill="#b89618" d="M200 0h100v100H200z"/><path fill="#c6a441" d="M300 0h100v100H300z"/><path fill="#c8b271" d="M400 0h100v100H400z"/><path fill="#c7b065" d="M500 0h100v100H500z"/><path fill="#b89824" d="M600 0h100v100H600z"/><path fill="#c8a85c" d="M700 0h100v100H700z"/><path fill="#746e14" d="M0 100h100v100H0z"/><path fill="#8b8119" d="M100 100h100v100H100z"/><path fill="#b8920b" d="M200 100h100v100H200z"/><path fill="#bf9e23" d="M300 100h100v100H300z"/><path fill="#c4ab47" d="M400 100h100v100H400z"/><path fill="#c0a232" d="M500 100h100v100H500z"/><path fill="#b68500" d="M600 100h100v100H600z"/><path fill="#c99f44" d="M700 100h100v100H700z"/><path fill="#6f701c" d="M0 200h100v100H0z"/><path fill="#8a8524" d="M100 200h100v100H100z"/><path fill="#b4a74d" d="M200 200h100v100H200z"/><path fill="#a5a34d" d="M300 200h100v100H300z"/><path fill="#bcb965" d="M400 200h100v100H400z"/><path fill="#b6a84b" d="M500 200h100v100H500z"/><path fill="#bc921e" d="M600 200h100v100H600z"/><path fill="#c8a353" d="M700 200h100v100H700z"/><path fill="#7c7b2c" d="M0 300h100v100H0z"/><path fill="#ac974a" d="M100 300h100v100H100z"/><path fill="#b79a63" d="M200 300h100v100H200z"/><path fill="#a88f52" d="M300 300h100v100H300z"/><path fill="#b3994f" d="M400 300h100v100H400z"/><path fill="#b49853" d="M500 300h100v100H500z"/><path fill="#caa461" d="M600 300h100v100H600z"/><path fill="#cba763" d="M700 300h100v100H700z"/></svg>