<svg xmlns="http://www.w3.org/2000/svg" viewBox="0 0 800 400"><defs/><path fill="#71606f" d="M0 0h100v100H0z"/><path fill="#776576" d="M100 0h100v100H100z"/><path fill="#7e7d85" d="M200 0h100v100H200z"/><path fill="#91938c" d="M300 0h100v100H300z"/><path fill="#6b606d" d="M400 0h100v100H400z"/><path fill="#6c636f" d="M500 0h100v100H500z"/><path fill="#888882" d="M600 0h100v100H600z"/><path fill="#827e8b" d="M700 0h100v100H700z"/><path fill="#756070" d="M0 100h100v100H0z"/><path fill="#604e6c" d="M100 100h100v100H100z"/><path fill="#2d1d58" d="M200 100h100v100H200z"/><path fill="#685b71" d="M300 100h100v100H300z"/><path fill="#847c7d" d="M400 100h100v100H400z"/><path fill="#908175" d="M500 100h100v100H500z"/><path fill="#77686a" d="M600 100h100v100H600z"/><path fill="#7c7185" d="M700 100h100v100H700z"/><path fill="#7e737f" d="M0 200h100v100H0z"/><path fill="#6b526b" d="M100 200h100v100H100z"/><path fill="#4c2d57" d="M200 200h100v100H200z"/><path fill="#594460" d="M300 200h100v100H300z"/><path fill="#8b8078" d="M400 200h100v100H400z"/><path fill="#878377" d="M500 200h100v100H500z"/><path fill="#6a5c6f" d="M600 200h100v100H600z"/><path fill="#716f8a" d="M700 200h100v100H700z"/><path fill="#7a6777" d="M0 300h100v100H0z"/><path fill="#695265" d="M100 300h100v100H100z"/><path fill="#715a67" d="M200 300h100v100H200z"/><path fill="#8b7a77" d="M300 300h100v100H300z"/><path fill="#a29982" d="M400 300h100v100H400z"/><path fill="#7a8587" d="M500 300h100v100H500z"/><path fill="#596d89" d="M600 300h100v100H600z"/><path fill="#697d92" d="M700 300h100v100H700z"/></svg>