<svg xmlns="http://www.w3.org/2000/svg" viewBox="0 0 800 1100"><defs/><path fill="#211414" d="M0 0h100v100H0z"/><path fill="#361c17" d="M100 0h100v100H100z"/><path fill="#491c14" d="M200 0h100v100H200z"/><path fill="#4b1b16" d="M300 0h100v100H300z"/><path fill="#3c120b" d="M400 0h100v100H400z"/><path fill="#3d0c07" d="M500 0h100v100H500z"/><path fill="#49140f" d="M600 0h100v100H600z"/><path fill="#4d180f" d="M700 0h100v100H700z"/><path fill="#3b100b" d="M0 100h100v100H0z"/><path fill="#50180c" d="M100 100h100v100H100z"/><path fill="#60230b" d="M200 100h100v100H200z"/><path fill="#6e2b07" d="M300 100h100v100H300z"/><path fill="#78370d" d="M400 100h100v100H400z"/><path fill="#78340a" d="M500 100h100v100H500z"/><path fill="#732d07" d="M600 100h100v100H600z"/><path fill="#66230c" d="M700 100h100v100H700z"/><path fill="#521b0e" d="M0 200h100v100H0z"/><path fill="#7d3d16" d="M100 200h100v100H100z"/><path fill="#844a1c" d="M200 200h100v100H200z"/><path fill="#7f512e" d="M300 200h100v100H300z"/><path fill="#813604" d="M400 200h100v100H400z"/><path fill="#80390b" d="M500 200h100v100H500z"/><path fill="#855631" d="M600 200h100v100H600z"/><path fill="#87420e" d="M700 200h100v100H700z"/><path fill="#833e0e" d="M0 300h100v100H0z"/><path fill="#8a400b" d="M100 300h100v100H100z"/><path fill="#7b3b16" d="M200 300h100v100H200z"/><path fill="#763d1f" d="M300 300h100v100H300z"/><path fill="#7f3608" d="M400 300h100v100H400z"/><path fill="#7c3810" d="M500 300h100v100H500z"/><path fill="#7f6049" d="M600 300h100v100H600z"/><path fill="#7f3c0e" d="M700 300h100v100H700z"/><path fill="#863907" d="M0 400h100v100H0z"/><path fill="#7a320d" d="M100 400h100v100H100z"/><path fill="#79300c" d="M200 400h100v100H200z"/><path fill="#8d4a18" d="M300 400h100v100H300z"/><path fill="#8d4f1f" d="M400 400h100v100H400z"/><path fill="#7d370e" d="M500 400h100v100H500z"/><path fill="#823706" d="M600 400h100v100H600z"/><path fill="#803909" d="M700 400h100v100H700z"/><path fill="#956e3a" d="M0 500h100v100H0z"/><path fill="#7e592e" d="M100 500h100v100H100z"/><path fill="#7f320b" d="M200 500h100v100H200z"/><path fill="#945a26" d="M300 500h100v100H300z"/><path fill="#915b28" d="M400 500h100v100H400z"/><path fill="#874415" d="M500 500h100v100H500z"/><path fill="#85420a" d="M600 500h100v100H600z"/><path fill="#813b06" d="M700 500h100v100H700z"/><path fill="#8a4c1e" d="M0 600h100v100H0z"/><path fill="#8b5a26" d="M100 600h100v100H100z"/><path fill="#7a3911" d="M200 600h100v100H200z"/><path fill="#8c4912" d="M300 600h100v100H300z"/><path fill="#854313" d="M400 600h100v100H400z"/><path fill="#8a4a1d" d="M500 600h100v100H500z"/><path fill="#b0836c" d="M600 600h100v100H600z"/><path fill="#8f532c" d="M700 600h100v100H700z"/><path fill="#853d11" d="M0 700h100v100H0z"/><path fill="#966530" d="M100 700h100v100H100z"/><path fill="#a84d43" d="M200 700h100v100H200z"/><path fill="#874222" d="M300 700h100v100H300z"/><path fill="#b99b3b" d="M400 700h100v100H400z"/><path fill="#8e581a" d="M500 700h100v100H500z"/><path fill="#ad7c6c" d="M600 700h100v100H600z"/><path fill="#8d4f29" d="M700 700h100v100H700z"/><path fill="#88471f" d="M0 800h100v100H0z"/><path fill="#8a4c28" d="M100 800h100v100H100z"/><path fill="#984f2c" d="M200 800h100v100H200z"/><path fill="#915735" d="M300 800h100v100H300z"/><path fill="#a8823d" d="M400 800h100v100H400z"/><path fill="#602e0f" d="M500 800h100v100H500z"/><path fill="#2e0100" d="M600 800h100v100H600z"/><path fill="#360e04" d="M700 800h100v100H700z"/><path fill="#591507" d="M0 900h100v100H0z"/><path fill="#86431c" d="M100 900h100v100H100z"/><path fill="#9c673b" d="M200 900h100v100H200z"/><path fill="#a77348" d="M300 900h100v100H300z"/><path fill="#6d341d" d="M400 900h100v100H400z"/><path fill="#190000" d="M500 900h100v100H500z"/><path fill="#0d0204" d="M600 900h100v100H600z"/><path fill="#030001" d="M700 900h100v100H700z"/><path fill="#4e0f07" d="M0 1000h100v100H0z"/><path fill="#4d0603" d="M100 1000h100v100H100z"/><path fill="#642012" d="M200 1000h100v100H200z"/><path fill="#6e2916" d="M300 1000h100v100H300z"/><path fill="#370f06" d="M400 1000h100v100H400z"/><path fill="#000001" d="M500 1000h100v100H500z"/><path fill="#010101" d="M600 1000h100v100H600z"/><path fill="#000101" d="M700 1000h100v100H700z"/></svg>