<svg xmlns="http://www.w3.org/2000/svg" viewBox="0 0 800 500"><defs/><path fill="#e5ded2" d="M0 0h100v100H0z"/><path fill="#decbe3" d="M100 0h100v100H100z"/><path fill="#eae0dd" d="M200 0h100v100H200z"/><path fill="#f5e2d2" d="M300 0h100v100H300z"/><path fill="#f4e4d3" d="M400 0h100v100H400z"/><path fill="#f3e6d9" d="M500 0h100v100H500z"/><path fill="#ebe1d1" d="M600 0h100v100H600z"/><path fill="#eddfc7" d="M700 0h100v100H700z"/><path fill="#b3b6b2" d="M0 100h100v100H0z"/><path fill="#5070a8" d="M100 100h100v100H100z"/><path fill="#e0b590" d="M200 100h100v100H200z"/><path fill="#a8958a" d="M300 100h100v100H300z"/><path fill="#508d8a" d="M400 100h100v100H400z"/><path fill="#9ea792" d="M500 100h100v100H500z"/><path fill="#cdbfab" d="M600 100h100v100H600z"/><path fill="#dab669" d="M700 100h100v100H700z"/><path fill="#b7b99e" d="M0 200h100v100H0z"/><path fill="#95ac73" d="M100 200h100v100H100z"/><path fill="#7daea3" d="M200 200h100v100H200z"/><path fill="#287e85" d="M300 200h100v100H300z"/><path fill="#605e5c" d="M400 200h100v100H400z"/><path fill="#236f68" d="M500 200h100v100H500z"/><path fill="#cd905b" d="M600 200h100v100H600z"/><path fill="#a5734d" d="M700 200h100v100H700z"/><path fill="#dba67d" d="M0 300h100v100H0z"/><path fill="#d78544" d="M100 300h100v100H100z"/><path fill="#908570" d="M200 300h100v100H200z"/><path fill="#918c7b" d="M300 300h100v100H300z"/><path fill="#bb825a" d="M400 300h100v100H400z"/><path fill="#8a9473" d="M500 300h100v100H500z"/><path fill="#977354" d="M600 300h100v100H600z"/><path fill="#98643d" d="M700 300h100v100H700z"/><path fill="#dcb4a1" d="M0 400h100v100H0z"/><path fill="#dba784" d="M100 400h100v100H100z"/><path fill="#c2a990" d="M200 400h100v100H200z"/><path fill="#cead8e" d="M300 400h100v100H300z"/><path fill="#dfb786" d="M400 400h100v100H400z"/><path fill="#eac597" d="M500 400h100v100H500z"/><path fill="#a1b2b1" d="M600 400h100v100H600z"/><path fill="#a0a69b" d="M700 400h100v100H700z"/></svg>