<svg xmlns="http://www.w3.org/2000/svg" viewBox="0 0 800 600"><defs/><path fill="#fbfbfb" d="M0 0h100v100H0z"/><path fill="#f2f2f2" d="M100 0h100v100H100z"/><path fill="#f8f8f8" d="M200 0h100v100H200z"/><path fill="#fafafa" d="M300 0h100v100H300zm100 0h100v100H400zm100 0h100v100H500zm100 0h100v100H600zm100 0h100v100H700z"/><path fill="#f4f4f4" d="M0 100h100v100H0z"/><path fill="#dedede" d="M100 100h100v100H100z"/><path fill="#f9f9f9" d="M200 100h100v100H200z"/><path fill="#fefefe" d="M300 100h100v100H300z"/><path fill="#fdfdfd" d="M400 100h100v100H400zm100 0h100v100H500zm100 0h100v100H600z"/><path fill="#f4f4f4" d="M700 100h100v100H700z"/><path fill="#f0f0f0" d="M0 200h100v100H0z"/><path fill="#e5e5e5" d="M100 200h100v100H100z"/><path fill="#fefefe" d="M200 200h100v100H200z"/><path fill="#fff" d="M300 200h100v100H300zm100 0h100v100H400zm100 0h100v100H500zm100 0h100v100H600z"/><path fill="#f6f6f6" d="M700 200h100v100H700z"/><path fill="#eaeaeb" d="M0 300h100v100H0z"/><path fill="#e4e4e4" d="M100 300h100v100H100z"/><path fill="#fafafa" d="M200 300h100v100H200z"/><path fill="#f9f9f9" d="M300 300h100v100H300zm100 0h100v100H400zm100 0h100v100H500z"/><path fill="#f8f8f8" d="M600 300h100v100H600z"/><path fill="#f5f5f5" d="M700 300h100v100H700z"/><path fill="#e3e3e3" d="M0 400h100v100H0z"/><path fill="#ebebeb" d="M100 400h100v100H100z"/><path fill="#fff" d="M200 400h100v100H200z"/><path fill="#fdfdfd" d="M300 400h100v100H300z"/><path fill="#fefefe" d="M400 400h100v100H400zm100 0h100v100H500zm100 0h100v100H600z"/><path fill="#f3f3f3" d="M700 400h100v100H700z"/><path fill="#f5f5f5" d="M0 500h100v100H0z"/><path fill="#f9f9f9" d="M100 500h100v100H100z"/><path fill="#fafafa" d="M200 500h100v100H200zm100 0h100v100H300zm100 0h100v100H400zm100 0h100v100H500z"/><path fill="#fbfbfb" d="M600 500h100v100H600z"/><path fill="#f7f7f7" d="M700 500h100v100H700z"/></svg>