<svg xmlns="http://www.w3.org/2000/svg" viewBox="0 0 800 500"><defs/><path fill="#d4ba92" d="M0 0h100v100H0z"/><path fill="#804f36" d="M100 0h100v100H100z"/><path fill="#969271" d="M200 0h100v100H200z"/><path fill="#a198a7" d="M300 0h100v100H300z"/><path fill="#a99dab" d="M400 0h100v100H400z"/><path fill="#bdaaab" d="M500 0h100v100H500z"/><path fill="#cdb799" d="M600 0h100v100H600z"/><path fill="#d5c4a8" d="M700 0h100v100H700z"/><path fill="#c7a984" d="M0 100h100v100H0z"/><path fill="#6e412a" d="M100 100h100v100H100z"/><path fill="#9faf77" d="M200 100h100v100H200z"/><path fill="#c7bab4" d="M300 100h100v100H300z"/><path fill="#beaba9" d="M400 100h100v100H400z"/><path fill="#ddcbb5" d="M500 100h100v100H500z"/><path fill="#998260" d="M600 100h100v100H600z"/><path fill="#b8af8b" d="M700 100h100v100H700z"/><path fill="#ac856c" d="M0 200h100v100H0z"/><path fill="#6f4927" d="M100 200h100v100H100z"/><path fill="#929da6" d="M200 200h100v100H200z"/><path fill="#817b97" d="M300 200h100v100H300z"/><path fill="#a59b9a" d="M400 200h100v100H400z"/><path fill="#8c7968" d="M500 200h100v100H500z"/><path fill="#605b42" d="M600 200h100v100H600z"/><path fill="#adab83" d="M700 200h100v100H700z"/><path fill="#94664e" d="M0 300h100v100H0z"/><path fill="#7a3a28" d="M100 300h100v100H100z"/><path fill="#4f3742" d="M200 300h100v100H200z"/><path fill="#301a10" d="M300 300h100v100H300z"/><path fill="#42281b" d="M400 300h100v100H400z"/><path fill="#564648" d="M500 300h100v100H500z"/><path fill="#533937" d="M600 300h100v100H600z"/><path fill="#a37f6c" d="M700 300h100v100H700z"/><path fill="#784430" d="M0 400h100v100H0z"/><path fill="#6e2d1e" d="M100 400h100v100H100z"/><path fill="#642f19" d="M200 400h100v100H200z"/><path fill="#66311b" d="M300 400h100v100H300z"/><path fill="#64301f" d="M400 400h100v100H400z"/><path fill="#653221" d="M500 400h100v100H500z"/><path fill="#563022" d="M600 400h100v100H600z"/><path fill="#75685f" d="M700 400h100v100H700z"/></svg>