<svg xmlns="http://www.w3.org/2000/svg" viewBox="0 0 800 600"><defs/><path fill="#fafaf9" d="M0 0h100v100H0z"/><path fill="#f5e8d1" d="M100 0h100v100H100z"/><path fill="#f3f3f2" d="M200 0h100v100H200z"/><path fill="#f6f7f7" d="M300 0h100v100H300z"/><path fill="#f5f7f7" d="M400 0h100v100H400z"/><path fill="#f5f7f9" d="M500 0h100v100H500z"/><path fill="#fafafa" d="M600 0h100v100H600z"/><path fill="#f8f9f9" d="M700 0h100v100H700z"/><path fill="#edeae4" d="M0 100h100v100H0z"/><path fill="#c5a050" d="M100 100h100v100H100z"/><path fill="#fffdf1" d="M200 100h100v100H200z"/><path fill="#b1dbf8" d="M300 100h100v100H300z"/><path fill="#2992d7" d="M400 100h100v100H400z"/><path fill="#b5d6eb" d="M500 100h100v100H500z"/><path fill="#fdfcf8" d="M600 100h100v100H600z"/><path fill="#e2eaef" d="M700 100h100v100H700z"/><path fill="#69a2c6" d="M0 200h100v100H0z"/><path fill="#87aaad" d="M100 200h100v100H100z"/><path fill="#bbb6a6" d="M200 200h100v100H200z"/><path fill="#92a394" d="M300 200h100v100H300z"/><path fill="#82a9be" d="M400 200h100v100H400z"/><path fill="#bed1df" d="M500 200h100v100H500z"/><path fill="#87cbfb" d="M600 200h100v100H600z"/><path fill="#abd4f1" d="M700 200h100v100H700z"/><path fill="#2d88c4" d="M0 300h100v100H0z"/><path fill="#91b6ba" d="M100 300h100v100H100z"/><path fill="#6a7b7a" d="M200 300h100v100H200z"/><path fill="#6895a9" d="M300 300h100v100H300z"/><path fill="#b0d2e0" d="M400 300h100v100H400z"/><path fill="#b4a77a" d="M500 300h100v100H500z"/><path fill="#3785a9" d="M600 300h100v100H600z"/><path fill="#a6cfe7" d="M700 300h100v100H700z"/><path fill="#80b0c4" d="M0 400h100v100H0z"/><path fill="#bbac77" d="M100 400h100v100H100z"/><path fill="#e7aa3d" d="M200 400h100v100H200z"/><path fill="#83a298" d="M300 400h100v100H300z"/><path fill="#0f95f0" d="M400 400h100v100H400z"/><path fill="#96b0a6" d="M500 400h100v100H500z"/><path fill="#d99622" d="M600 400h100v100H600z"/><path fill="#e0bd75" d="M700 400h100v100H700z"/><path fill="#e6edf0" d="M0 500h100v100H0z"/><path fill="#f5efe3" d="M100 500h100v100H100z"/><path fill="#f8ecd5" d="M200 500h100v100H200z"/><path fill="#e9e9e0" d="M300 500h100v100H300z"/><path fill="#d6e5ec" d="M400 500h100v100H400z"/><path fill="#e0e9eb" d="M500 500h100v100H500z"/><path fill="#f7ecd6" d="M600 500h100v100H600z"/><path fill="#ede8d9" d="M700 500h100v100H700z"/></svg>