<svg xmlns="http://www.w3.org/2000/svg" viewBox="0 0 800 600"><defs/><path fill="#f9f9f9" d="M0 0h100v100H0z"/><path fill="#f1eeeb" d="M100 0h100v100H100z"/><path fill="#f6f3f1" d="M200 0h100v100H200z"/><path fill="#f9f8f6" d="M300 0h100v100H300z"/><path fill="#f8f6f4" d="M400 0h100v100H400z"/><path fill="#faf8f7" d="M500 0h100v100H500zm100 0h100v100H600z"/><path fill="#f9f6f3" d="M700 0h100v100H700z"/><path fill="#e5e1dd" d="M0 100h100v100H0z"/><path fill="#aa886c" d="M100 100h100v100H100z"/><path fill="#c5b887" d="M200 100h100v100H200z"/><path fill="#e5e2b6" d="M300 100h100v100H300z"/><path fill="#c5c5c1" d="M400 100h100v100H400z"/><path fill="#d6d7d4" d="M500 100h100v100H500z"/><path fill="#d3d3cd" d="M600 100h100v100H600z"/><path fill="#c4a482" d="M700 100h100v100H700z"/><path fill="#ded2c9" d="M0 200h100v100H0z"/><path fill="#a48063" d="M100 200h100v100H100z"/><path fill="#b6a988" d="M200 200h100v100H200z"/><path fill="#bbb393" d="M300 200h100v100H300z"/><path fill="#c6d0ce" d="M400 200h100v100H400z"/><path fill="#d0dad0" d="M500 200h100v100H500z"/><path fill="#cbcbb5" d="M600 200h100v100H600z"/><path fill="#bda183" d="M700 200h100v100H700z"/><path fill="#d9cbbd" d="M0 300h100v100H0z"/><path fill="#9f7d60" d="M100 300h100v100H100z"/><path fill="#c8af99" d="M200 300h100v100H200z"/><path fill="#baa58e" d="M300 300h100v100H300z"/><path fill="#9b978f" d="M400 300h100v100H400z"/><path fill="#afac9d" d="M500 300h100v100H500z"/><path fill="#c9bd9a" d="M600 300h100v100H600z"/><path fill="#bc9a79" d="M700 300h100v100H700z"/><path fill="#cfb9a7" d="M0 400h100v100H0z"/><path fill="#b4967b" d="M100 400h100v100H100z"/><path fill="#d6c2ab" d="M200 400h100v100H200z"/><path fill="#c5b09d" d="M300 400h100v100H300z"/><path fill="#a3a09d" d="M400 400h100v100H400z"/><path fill="#a79a73" d="M500 400h100v100H500z"/><path fill="#e8d577" d="M600 400h100v100H600z"/><path fill="#bdaa87" d="M700 400h100v100H700z"/><path fill="#f3efeb" d="M0 500h100v100H0z"/><path fill="#f3efe9" d="M100 500h100v100H100z"/><path fill="#f6f3ee" d="M200 500h100v100H200z"/><path fill="#f9f4ef" d="M300 500h100v100H300z"/><path fill="#fffbf6" d="M400 500h100v100H400z"/><path fill="#f8f5ee" d="M500 500h100v100H500z"/><path fill="#f2ecdf" d="M600 500h100v100H600z"/><path fill="#f3efe7" d="M700 500h100v100H700z"/></svg>