<svg xmlns="http://www.w3.org/2000/svg" viewBox="0 0 800 400"><defs/><path fill="#f6fbfa" d="M0 0h100v100H0z"/><path fill="#e4f2e9" d="M100 0h100v100H100z"/><path fill="#f5faf8" d="M200 0h100v100H200z"/><path fill="#fcfefe" d="M300 0h100v100H300z"/><path fill="#fafcfa" d="M400 0h100v100H400z"/><path fill="#fafdfb" d="M500 0h100v100H500z"/><path fill="#f9fdfb" d="M600 0h100v100H600z"/><path fill="#f5faf8" d="M700 0h100v100H700z"/><path fill="#f4faf7" d="M0 100h100v100H0z"/><path fill="#e3f2e9" d="M100 100h100v100H100z"/><path fill="#fefefe" d="M200 100h100v100H200z"/><path fill="#fff" d="M300 100h100v100H300zm100 0h100v100H400zm100 0h100v100H500z"/><path fill="#fffeff" d="M600 100h100v100H600z"/><path fill="#fafcfb" d="M700 100h100v100H700z"/><path fill="#ecf6f1" d="M0 200h100v100H0z"/><path fill="#dfefe7" d="M100 200h100v100H100z"/><path fill="#fcfefe" d="M200 200h100v100H200z"/><path fill="#fcfefd" d="M300 200h100v100H300z"/><path fill="#fbfdfc" d="M400 200h100v100H400z"/><path fill="#fcfefc" d="M500 200h100v100H500z"/><path fill="#fbfdfc" d="M600 200h100v100H600z"/><path fill="#f9fcfa" d="M700 200h100v100H700z"/><path fill="#e4f2ec" d="M0 300h100v100H0z"/><path fill="#e8f4ed" d="M100 300h100v100H100z"/><path fill="#fcfefd" d="M200 300h100v100H200z"/><path fill="#fcfdfc" d="M300 300h100v100H300z"/><path fill="#fbfdfd" d="M400 300h100v100H400z"/><path fill="#fbfdfc" d="M500 300h100v100H500z"/><path fill="#fcfdfd" d="M600 300h100v100H600z"/><path fill="#f5f9f7" d="M700 300h100v100H700z"/></svg>