<svg xmlns="http://www.w3.org/2000/svg" viewBox="0 0 800 600"><defs/><path fill="#ded5c5" d="M0 0h100v100H0z"/><path fill="#ddd4c8" d="M100 0h100v100H100z"/><path fill="#ddd3c5" d="M200 0h100v100H200z"/><path fill="#ddd0c2" d="M300 0h100v100H300z"/><path fill="#dbcdbc" d="M400 0h100v100H400z"/><path fill="#d3c8b7" d="M500 0h100v100H500z"/><path fill="#c5bcad" d="M600 0h100v100H600z"/><path fill="#cac6ba" d="M700 0h100v100H700z"/><path fill="#dcd7d0" d="M0 100h100v100H0z"/><path fill="#cdc1ba" d="M100 100h100v100H100z"/><path fill="#ded5cc" d="M200 100h100v100H200z"/><path fill="#d0c1b6" d="M300 100h100v100H300z"/><path fill="#d1c1b3" d="M400 100h100v100H400z"/><path fill="#c6b9ac" d="M500 100h100v100H500z"/><path fill="#94847b" d="M600 100h100v100H600z"/><path fill="#beb6ac" d="M700 100h100v100H700z"/><path fill="#d2ccc5" d="M0 200h100v100H0z"/><path fill="#d0c6bc" d="M100 200h100v100H100z"/><path fill="#c8bfb1" d="M200 200h100v100H200z"/><path fill="#c6b3a7" d="M300 200h100v100H300z"/><path fill="#cebcb1" d="M400 200h100v100H400z"/><path fill="#bcaea2" d="M500 200h100v100H500z"/><path fill="#8b7a70" d="M600 200h100v100H600z"/><path fill="#b9b1a6" d="M700 200h100v100H700z"/><path fill="#c7c1bb" d="M0 300h100v100H0z"/><path fill="#c5baad" d="M100 300h100v100H100z"/><path fill="#c8b8a8" d="M200 300h100v100H200z"/><path fill="#c0ac99" d="M300 300h100v100H300z"/><path fill="#beaea3" d="M400 300h100v100H400z"/><path fill="#b29990" d="M500 300h100v100H500z"/><path fill="#85796b" d="M600 300h100v100H600z"/><path fill="#a6a294" d="M700 300h100v100H700z"/><path fill="#bbb3ab" d="M0 400h100v100H0z"/><path fill="#b4a89a" d="M100 400h100v100H100z"/><path fill="#a69893" d="M200 400h100v100H200z"/><path fill="#a69184" d="M300 400h100v100H300z"/><path fill="#ac9c8f" d="M400 400h100v100H400z"/><path fill="#a99088" d="M500 400h100v100H500z"/><path fill="#827b68" d="M600 400h100v100H600z"/><path fill="#928f7e" d="M700 400h100v100H700z"/><path fill="#c3beb3" d="M0 500h100v100H0z"/><path fill="#bab2a4" d="M100 500h100v100H100z"/><path fill="#b4aca0" d="M200 500h100v100H200z"/><path fill="#b8a99d" d="M300 500h100v100H300z"/><path fill="#b0a394" d="M400 500h100v100H400z"/><path fill="#aca292" d="M500 500h100v100H500z"/><path fill="#aba192" d="M600 500h100v100H600z"/><path fill="#a79e8e" d="M700 500h100v100H700z"/></svg>