<svg xmlns="http://www.w3.org/2000/svg" viewBox="0 0 800 500"><defs/><path fill="#dddae1" d="M0 0h100v100H0z"/><path fill="#b6a6ab" d="M100 0h100v100H100z"/><path fill="#cec8cf" d="M200 0h100v100H200z"/><path fill="#cbd6e3" d="M300 0h100v100H300z"/><path fill="#cbd3e0" d="M400 0h100v100H400z"/><path fill="#bacdcb" d="M500 0h100v100H500z"/><path fill="#b4c2b8" d="M600 0h100v100H600z"/><path fill="#dfd9df" d="M700 0h100v100H700z"/><path fill="#c5bdc4" d="M0 100h100v100H0z"/><path fill="#816167" d="M100 100h100v100H100z"/><path fill="#9e9ba3" d="M200 100h100v100H200z"/><path fill="#339ac1" d="M300 100h100v100H300z"/><path fill="#1493cb" d="M400 100h100v100H400z"/><path fill="#3b979a" d="M500 100h100v100H500z"/><path fill="#648a6f" d="M600 100h100v100H600z"/><path fill="#b7b0bc" d="M700 100h100v100H700z"/><path fill="#c5bbc2" d="M0 200h100v100H0z"/><path fill="#8c696e" d="M100 200h100v100H100z"/><path fill="#989193" d="M200 200h100v100H200z"/><path fill="#6b918b" d="M300 200h100v100H300z"/><path fill="#4c8199" d="M400 200h100v100H400z"/><path fill="#6c818c" d="M500 200h100v100H500z"/><path fill="#797777" d="M600 200h100v100H600z"/><path fill="#ae9a9d" d="M700 200h100v100H700z"/><path fill="#a49097" d="M0 300h100v100H0z"/><path fill="#695056" d="M100 300h100v100H100z"/><path fill="#9c6d75" d="M200 300h100v100H200z"/><path fill="#b54a66" d="M300 300h100v100H300z"/><path fill="#b77d8c" d="M400 300h100v100H400z"/><path fill="#8f7174" d="M500 300h100v100H500z"/><path fill="#754648" d="M600 300h100v100H600z"/><path fill="#976f6a" d="M700 300h100v100H700z"/><path fill="#b2adb7" d="M0 400h100v100H0z"/><path fill="#8e848d" d="M100 400h100v100H100z"/><path fill="#b49096" d="M200 400h100v100H200z"/><path fill="#c27c8e" d="M300 400h100v100H300z"/><path fill="#c4a5af" d="M400 400h100v100H400z"/><path fill="#ab999b" d="M500 400h100v100H500z"/><path fill="#9e8081" d="M600 400h100v100H600z"/><path fill="#a68e8f" d="M700 400h100v100H700z"/></svg>