<svg xmlns="http://www.w3.org/2000/svg" viewBox="0 0 800 600"><defs/><path fill="#202020" d="M0 0h100v100H0z"/><path fill="#282828" d="M100 0h100v100H100z"/><path fill="#1d1e1e" d="M200 0h100v100H200z"/><path fill="#222324" d="M300 0h100v100H300z"/><path fill="#1f1e1f" d="M400 0h100v100H400z"/><path fill="#181817" d="M500 0h100v100H500z"/><path fill="#1c1417" d="M600 0h100v100H600z"/><path fill="#262425" d="M700 0h100v100H700z"/><path fill="#a9aaa9" d="M0 100h100v100H0z"/><path fill="#d6d6d5" d="M100 100h100v100H100z"/><path fill="#969183" d="M200 100h100v100H200z"/><path fill="#958879" d="M300 100h100v100H300z"/><path fill="#7e7f7a" d="M400 100h100v100H400z"/><path fill="#83857f" d="M500 100h100v100H500z"/><path fill="#897877" d="M600 100h100v100H600z"/><path fill="#7c716d" d="M700 100h100v100H700z"/><path fill="#afadab" d="M0 200h100v100H0z"/><path fill="#cbd3d7" d="M100 200h100v100H100z"/><path fill="#86908f" d="M200 200h100v100H200z"/><path fill="#8c877b" d="M300 200h100v100H300z"/><path fill="#897a7b" d="M400 200h100v100H400z"/><path fill="#787074" d="M500 200h100v100H500z"/><path fill="#787a72" d="M600 200h100v100H600z"/><path fill="#4a4843" d="M700 200h100v100H700z"/><path fill="#aaacad" d="M0 300h100v100H0z"/><path fill="#d8d6d1" d="M100 300h100v100H100z"/><path fill="#ada896" d="M200 300h100v100H200z"/><path fill="#9d9b90" d="M300 300h100v100H300z"/><path fill="#918595" d="M400 300h100v100H400z"/><path fill="#8d7e7f" d="M500 300h100v100H500z"/><path fill="#899494" d="M600 300h100v100H600z"/><path fill="#545864" d="M700 300h100v100H700z"/><path fill="#acabaa" d="M0 400h100v100H0z"/><path fill="#e7d0b5" d="M100 400h100v100H100z"/><path fill="#98928b" d="M200 400h100v100H200z"/><path fill="#7c7072" d="M300 400h100v100H300z"/><path fill="#6e6667" d="M400 400h100v100H400z"/><path fill="#757777" d="M500 400h100v100H500z"/><path fill="#696c79" d="M600 400h100v100H600z"/><path fill="#464b59" d="M700 400h100v100H700z"/><path fill="#302a22" d="M0 500h100v100H0z"/><path fill="#3d352b" d="M100 500h100v100H100z"/><path fill="#212529" d="M200 500h100v100H200z"/><path fill="#1d1c1d" d="M300 500h100v100H300z"/><path fill="#1a191a" d="M400 500h100v100H400z"/><path fill="#1d1f20" d="M500 500h100v100H500z"/><path fill="#191c20" d="M600 500h100v100H600z"/><path fill="#16181c" d="M700 500h100v100H700z"/></svg>