<svg xmlns="http://www.w3.org/2000/svg" viewBox="0 0 800 500"><defs/><path fill="#f4c9cf" d="M0 0h100v100H0z"/><path fill="#c59aa0" d="M100 0h100v100H100z"/><path fill="#c89892" d="M200 0h100v100H200z"/><path fill="#cd9c96" d="M300 0h100v100H300z"/><path fill="#d2a19b" d="M400 0h100v100H400z"/><path fill="#d0a19b" d="M500 0h100v100H500z"/><path fill="#d4a09c" d="M600 0h100v100H600z"/><path fill="#dfc3c0" d="M700 0h100v100H700z"/><path fill="#f1bdc5" d="M0 100h100v100H0z"/><path fill="#ca8e94" d="M100 100h100v100H100z"/><path fill="#cb887e" d="M200 100h100v100H200z"/><path fill="#d38d7e" d="M300 100h100v100H300z"/><path fill="#d88f86" d="M400 100h100v100H400z"/><path fill="#c5847b" d="M500 100h100v100H500z"/><path fill="#c4847b" d="M600 100h100v100H600z"/><path fill="#d6b5ae" d="M700 100h100v100H700z"/><path fill="#e3b5bf" d="M0 200h100v100H0z"/><path fill="#b98487" d="M100 200h100v100H100z"/><path fill="#b17765" d="M200 200h100v100H200z"/><path fill="#b3755a" d="M300 200h100v100H300z"/><path fill="#b98079" d="M400 200h100v100H400z"/><path fill="#b38582" d="M500 200h100v100H500z"/><path fill="#aa7d6f" d="M600 200h100v100H600z"/><path fill="#caa79f" d="M700 200h100v100H700z"/><path fill="#d0a2aa" d="M0 300h100v100H0z"/><path fill="#a47070" d="M100 300h100v100H100z"/><path fill="#ad777a" d="M200 300h100v100H200z"/><path fill="#bc7c83" d="M300 300h100v100H300z"/><path fill="#9c6e77" d="M400 300h100v100H400z"/><path fill="#926f72" d="M500 300h100v100H500z"/><path fill="#855952" d="M600 300h100v100H600z"/><path fill="#9f847f" d="M700 300h100v100H700z"/><path fill="#e4d7d6" d="M0 400h100v100H0z"/><path fill="#dcc9c7" d="M100 400h100v100H100z"/><path fill="#decaca" d="M200 400h100v100H200z"/><path fill="#e1cccd" d="M300 400h100v100H300z"/><path fill="#d8c5c3" d="M400 400h100v100H400z"/><path fill="#d1c0bd" d="M500 400h100v100H500z"/><path fill="#cfc0be" d="M600 400h100v100H600z"/><path fill="#dcd1d0" d="M700 400h100v100H700z"/></svg>