<svg xmlns="http://www.w3.org/2000/svg" viewBox="0 0 800 500"><defs/><path fill="#aba09e" d="M0 0h100v100H0z"/><path fill="#a48c6d" d="M100 0h100v100H100z"/><path fill="#998b75" d="M200 0h100v100H200z"/><path fill="#b1a59c" d="M300 0h100v100H300z"/><path fill="#d0b39f" d="M400 0h100v100H400z"/><path fill="#d1d2cc" d="M500 0h100v100H500z"/><path fill="#b3b0a7" d="M600 0h100v100H600z"/><path fill="#a5978a" d="M700 0h100v100H700z"/><path fill="#b7a8a1" d="M0 100h100v100H0z"/><path fill="#836234" d="M100 100h100v100H100z"/><path fill="#665847" d="M200 100h100v100H200z"/><path fill="#968c89" d="M300 100h100v100H300z"/><path fill="#bba09b" d="M400 100h100v100H400z"/><path fill="#b2aba4" d="M500 100h100v100H500z"/><path fill="#a2988b" d="M600 100h100v100H600z"/><path fill="#816c5b" d="M700 100h100v100H700z"/><path fill="#cbbcad" d="M0 200h100v100H0z"/><path fill="#846235" d="M100 200h100v100H100z"/><path fill="#675239" d="M200 200h100v100H200z"/><path fill="#a2865f" d="M300 200h100v100H300z"/><path fill="#795d52" d="M400 200h100v100H400z"/><path fill="#666162" d="M500 200h100v100H500z"/><path fill="#847c73" d="M600 200h100v100H600z"/><path fill="#534b48" d="M700 200h100v100H700z"/><path fill="#b7a58e" d="M0 300h100v100H0z"/><path fill="#785932" d="M100 300h100v100H100z"/><path fill="#a38b6e" d="M200 300h100v100H200z"/><path fill="#6b4e22" d="M300 300h100v100H300z"/><path fill="#998672" d="M400 300h100v100H400z"/><path fill="#726967" d="M500 300h100v100H500z"/><path fill="#696059" d="M600 300h100v100H600z"/><path fill="#62574b" d="M700 300h100v100H700z"/><path fill="#bcae9f" d="M0 400h100v100H0z"/><path fill="#a2978c" d="M100 400h100v100H100z"/><path fill="#d9c7b5" d="M200 400h100v100H200z"/><path fill="#ab8f67" d="M300 400h100v100H300z"/><path fill="#e8d6c7" d="M400 400h100v100H400z"/><path fill="#bdb1a9" d="M500 400h100v100H500z"/><path fill="#b1a49b" d="M600 400h100v100H600z"/><path fill="#a69b90" d="M700 400h100v100H700z"/></svg>