<svg xmlns="http://www.w3.org/2000/svg" viewBox="0 0 800 600"><defs/><path fill="#b7acae" d="M0 0h100v100H0z"/><path fill="#b5acb2" d="M100 0h100v100H100z"/><path fill="#bab2b9" d="M200 0h100v100H200z"/><path fill="#bdb6be" d="M300 0h100v100H300z"/><path fill="#b7b3bb" d="M400 0h100v100H400z"/><path fill="#b0abb5" d="M500 0h100v100H500z"/><path fill="#afa7b0" d="M600 0h100v100H600z"/><path fill="#afa5ae" d="M700 0h100v100H700z"/><path fill="#b1a5a7" d="M0 100h100v100H0z"/><path fill="#aea3a9" d="M100 100h100v100H100z"/><path fill="#b8b0b6" d="M200 100h100v100H200z"/><path fill="#a69ea5" d="M300 100h100v100H300z"/><path fill="#a19da5" d="M400 100h100v100H400z"/><path fill="#aea9b3" d="M500 100h100v100H500z"/><path fill="#a29aa4" d="M600 100h100v100H600z"/><path fill="#9b949d" d="M700 100h100v100H700z"/><path fill="#b8aeaf" d="M0 200h100v100H0z"/><path fill="#b9afb4" d="M100 200h100v100H100z"/><path fill="#bbb1b8" d="M200 200h100v100H200z"/><path fill="#b0a6af" d="M300 200h100v100H300z"/><path fill="#a6a1ab" d="M400 200h100v100H400z"/><path fill="#a9a4ae" d="M500 200h100v100H500z"/><path fill="#a69ea7" d="M600 200h100v100H600z"/><path fill="#a59ca5" d="M700 200h100v100H700z"/><path fill="#b9b0b0" d="M0 300h100v100H0z"/><path fill="#b3a9ab" d="M100 300h100v100H100z"/><path fill="#beb3ba" d="M200 300h100v100H200z"/><path fill="#bcb3bd" d="M300 300h100v100H300z"/><path fill="#a9a2ac" d="M400 300h100v100H400z"/><path fill="#9e97a2" d="M500 300h100v100H500z"/><path fill="#9e94a0" d="M600 300h100v100H600z"/><path fill="#988d96" d="M700 300h100v100H700z"/><path fill="#b8acad" d="M0 400h100v100H0z"/><path fill="#b7acaf" d="M100 400h100v100H100z"/><path fill="#cabfc5" d="M200 400h100v100H200z"/><path fill="#c8c0c9" d="M300 400h100v100H300z"/><path fill="#bab3bd" d="M400 400h100v100H400z"/><path fill="#a9a0ab" d="M500 400h100v100H500z"/><path fill="#a198a2" d="M600 400h100v100H600z"/><path fill="#9d939e" d="M700 400h100v100H700z"/><path fill="#c2b8b9" d="M0 500h100v100H0z"/><path fill="#c4bbbf" d="M100 500h100v100H100z"/><path fill="#c2b7be" d="M200 500h100v100H200z"/><path fill="#bfb5bf" d="M300 500h100v100H300z"/><path fill="#c3bcc7" d="M400 500h100v100H400z"/><path fill="#b5aeb7" d="M500 500h100v100H500z"/><path fill="#a89ea9" d="M600 500h100v100H600z"/><path fill="#a59ca7" d="M700 500h100v100H700z"/></svg>