<svg xmlns="http://www.w3.org/2000/svg" viewBox="0 0 800 400"><defs/><path fill="#7b6861" d="M0 0h100v100H0z"/><path fill="#312c2b" d="M100 0h100v100H100z"/><path fill="#685656" d="M200 0h100v100H200z"/><path fill="#5d4a4a" d="M300 0h100v100H300z"/><path fill="#5e4c4b" d="M400 0h100v100H400z"/><path fill="#655252" d="M500 0h100v100H500z"/><path fill="#5d4949" d="M600 0h100v100H600z"/><path fill="#716464" d="M700 0h100v100H700z"/><path fill="#513f38" d="M0 100h100v100H0z"/><path fill="#171211" d="M100 100h100v100H100z"/><path fill="#6a5756" d="M200 100h100v100H200z"/><path fill="#6a4d4e" d="M300 100h100v100H300z"/><path fill="#755657" d="M400 100h100v100H400z"/><path fill="#3f2726" d="M500 100h100v100H500z"/><path fill="#402728" d="M600 100h100v100H600z"/><path fill="#564647" d="M700 100h100v100H700z"/><path fill="#453935" d="M0 200h100v100H0z"/><path fill="#161110" d="M100 200h100v100H100z"/><path fill="#816e70" d="M200 200h100v100H200z"/><path fill="#a09796" d="M300 200h100v100H300z"/><path fill="#9e9593" d="M400 200h100v100H400z"/><path fill="#5b4547" d="M500 200h100v100H500z"/><path fill="#381d18" d="M600 200h100v100H600z"/><path fill="#554443" d="M700 200h100v100H700z"/><path fill="#504745" d="M0 300h100v100H0z"/><path fill="#332623" d="M100 300h100v100H100z"/><path fill="#664f4f" d="M200 300h100v100H200z"/><path fill="#706866" d="M300 300h100v100H300z"/><path fill="#746f6e" d="M400 300h100v100H400z"/><path fill="#655557" d="M500 300h100v100H500z"/><path fill="#422c25" d="M600 300h100v100H600z"/><path fill="#736662" d="M700 300h100v100H700z"/></svg>