<svg xmlns="http://www.w3.org/2000/svg" viewBox="0 0 800 600"><defs/><path fill="#c0c3bc" d="M0 0h100v100H0z"/><path fill="#c1bcb4" d="M100 0h100v100H100z"/><path fill="#c3c0b9" d="M200 0h100v100H200z"/><path fill="#c1bfb8" d="M300 0h100v100H300z"/><path fill="#c1c0b9" d="M400 0h100v100H400z"/><path fill="#bec0b9" d="M500 0h100v100H500z"/><path fill="#c1bfb8" d="M600 0h100v100H600z"/><path fill="#bec2bc" d="M700 0h100v100H700z"/><path fill="#b7b6af" d="M0 100h100v100H0z"/><path fill="#ad9588" d="M100 100h100v100H100z"/><path fill="#afa49b" d="M200 100h100v100H200z"/><path fill="#b8a69c" d="M300 100h100v100H300z"/><path fill="#bbada6" d="M400 100h100v100H400z"/><path fill="#b8aea7" d="M500 100h100v100H500z"/><path fill="#baada5" d="M600 100h100v100H600z"/><path fill="#b4b9b2" d="M700 100h100v100H700z"/><path fill="#b4aba2" d="M0 200h100v100H0z"/><path fill="#a88f80" d="M100 200h100v100H100z"/><path fill="#a9a79f" d="M200 200h100v100H200z"/><path fill="#b7a89f" d="M300 200h100v100H300z"/><path fill="#b8aba2" d="M400 200h100v100H400z"/><path fill="#bfaea2" d="M500 200h100v100H500z"/><path fill="#b5aaa3" d="M600 200h100v100H600z"/><path fill="#8ca899" d="M700 200h100v100H700z"/><path fill="#a1968e" d="M0 300h100v100H0z"/><path fill="#a28877" d="M100 300h100v100H100z"/><path fill="#a08a7e" d="M200 300h100v100H200z"/><path fill="#a99489" d="M300 300h100v100H300z"/><path fill="#abaeac" d="M400 300h100v100H400z"/><path fill="#a2a4a3" d="M500 300h100v100H500z"/><path fill="#9e9790" d="M600 300h100v100H600z"/><path fill="#89a899" d="M700 300h100v100H700z"/><path fill="#8d7a6e" d="M0 400h100v100H0z"/><path fill="#9c8c7f" d="M100 400h100v100H100z"/><path fill="#9d8e82" d="M200 400h100v100H200z"/><path fill="#a3968d" d="M300 400h100v100H300z"/><path fill="#a8aaa7" d="M400 400h100v100H400z"/><path fill="#a5a6a4" d="M500 400h100v100H500z"/><path fill="#a2a19b" d="M600 400h100v100H600z"/><path fill="#aaafa7" d="M700 400h100v100H700z"/><path fill="#9a9289" d="M0 500h100v100H0z"/><path fill="#9f9b95" d="M100 500h100v100H100z"/><path fill="#a2a29d" d="M200 500h100v100H200z"/><path fill="#a5a5a0" d="M300 500h100v100H300z"/><path fill="#aaa7a2" d="M400 500h100v100H400z"/><path fill="#aeaca7" d="M500 500h100v100H500z"/><path fill="#afb0ab" d="M600 500h100v100H600z"/><path fill="#acada8" d="M700 500h100v100H700z"/></svg>