<svg xmlns="http://www.w3.org/2000/svg" viewBox="0 0 800 600"><defs/><path fill="#fff" d="M0 0h100v100H0z"/><path fill="#fffffe" d="M100 0h100v100H100z"/><path fill="#fff" d="M200 0h100v100H200z"/><path fill="#fdfefe" d="M300 0h100v100H300z"/><path fill="#feffff" d="M400 0h100v100H400z"/><path fill="#fff" d="M500 0h100v100H500z"/><path fill="#fefefe" d="M600 0h100v100H600z"/><path fill="#fff" d="M700 0h100v100H700z"/><path fill="#f1efef" d="M0 100h100v100H0z"/><path fill="#d8d6d5" d="M100 100h100v100H100z"/><path fill="#eeeeea" d="M200 100h100v100H200z"/><path fill="#fff" d="M300 100h100v100H300z"/><path fill="#f9f9f9" d="M400 100h100v100H400z"/><path fill="#fbfcfb" d="M500 100h100v100H500z"/><path fill="#fbfcfc" d="M600 100h100v100H600z"/><path fill="#eef0f0" d="M700 100h100v100H700z"/><path fill="#eaebec" d="M0 200h100v100H0z"/><path fill="#c8c7c7" d="M100 200h100v100H100z"/><path fill="#dcdfdf" d="M200 200h100v100H200z"/><path fill="#dae3ec" d="M300 200h100v100H300z"/><path fill="#d6dee7" d="M400 200h100v100H400z"/><path fill="#d2dadb" d="M500 200h100v100H500z"/><path fill="#bbc2c4" d="M600 200h100v100H600z"/><path fill="#dcdddf" d="M700 200h100v100H700z"/><path fill="#dfe2e6" d="M0 300h100v100H0z"/><path fill="#bdbdbd" d="M100 300h100v100H100z"/><path fill="#a1b4b5" d="M200 300h100v100H200z"/><path fill="#7e8792" d="M300 300h100v100H300z"/><path fill="#98a5b6" d="M400 300h100v100H400z"/><path fill="#a3afb8" d="M500 300h100v100H500z"/><path fill="#808990" d="M600 300h100v100H600z"/><path fill="#e0e2e5" d="M700 300h100v100H700z"/><path fill="#e1e2e4" d="M0 400h100v100H0z"/><path fill="#cfcdcd" d="M100 400h100v100H100z"/><path fill="#cacfd0" d="M200 400h100v100H200z"/><path fill="#b6b5b7" d="M300 400h100v100H300z"/><path fill="#afb3b8" d="M400 400h100v100H400z"/><path fill="#d4d7db" d="M500 400h100v100H500z"/><path fill="#afb2b5" d="M600 400h100v100H600z"/><path fill="#cacdcf" d="M700 400h100v100H700z"/><path fill="#fafafa" d="M0 500h100v100H0z"/><path fill="#fdfdfd" d="M100 500h100v100H100z"/><path fill="#fff" d="M200 500h100v100H200zm100 0h100v100H300z"/><path fill="#fafafa" d="M400 500h100v100H400z"/><path fill="#f6f7f7" d="M500 500h100v100H500z"/><path fill="#fefefd" d="M600 500h100v100H600z"/><path fill="#fcfcfc" d="M700 500h100v100H700z"/></svg>