<svg xmlns="http://www.w3.org/2000/svg" viewBox="0 0 800 600"><defs/><path fill="#d2caba" d="M0 0h100v100H0z"/><path fill="#c2b09f" d="M100 0h100v100H100z"/><path fill="#dcd9d2" d="M200 0h100v100H200z"/><path fill="#d3cec7" d="M300 0h100v100H300z"/><path fill="#d3cfc7" d="M400 0h100v100H400z"/><path fill="#d3cec8" d="M500 0h100v100H500z"/><path fill="#b8b1a7" d="M600 0h100v100H600z"/><path fill="#aaa59b" d="M700 0h100v100H700z"/><path fill="#c5b19b" d="M0 100h100v100H0z"/><path fill="#957255" d="M100 100h100v100H100z"/><path fill="#d7d3cf" d="M200 100h100v100H200z"/><path fill="#d2cdca" d="M300 100h100v100H300z"/><path fill="#d5cecb" d="M400 100h100v100H400z"/><path fill="#d9d4cf" d="M500 100h100v100H500z"/><path fill="#c4beb8" d="M600 100h100v100H600z"/><path fill="#bab3a6" d="M700 100h100v100H700z"/><path fill="#c3ad93" d="M0 200h100v100H0z"/><path fill="#ae957d" d="M100 200h100v100H100z"/><path fill="#cec9c6" d="M200 200h100v100H200z"/><path fill="#d2ccc6" d="M300 200h100v100H300z"/><path fill="#c5beb8" d="M400 200h100v100H400z"/><path fill="#c4bfbb" d="M500 200h100v100H500z"/><path fill="#d5cfca" d="M600 200h100v100H600z"/><path fill="#c3b8aa" d="M700 200h100v100H700z"/><path fill="#b19576" d="M0 300h100v100H0z"/><path fill="#ada08f" d="M100 300h100v100H100z"/><path fill="#c7c5bf" d="M200 300h100v100H200z"/><path fill="#bdb6ae" d="M300 300h100v100H300z"/><path fill="#b7b2a0" d="M400 300h100v100H400z"/><path fill="#c0bcb1" d="M500 300h100v100H500z"/><path fill="#cec7c1" d="M600 300h100v100H600z"/><path fill="#b6a090" d="M700 300h100v100H700z"/><path fill="#a08162" d="M0 400h100v100H0z"/><path fill="#a49f94" d="M100 400h100v100H100z"/><path fill="#bfbfbe" d="M200 400h100v100H200z"/><path fill="#b0adaa" d="M300 400h100v100H300z"/><path fill="#8c928a" d="M400 400h100v100H400z"/><path fill="#7d888f" d="M500 400h100v100H500z"/><path fill="#b6b0af" d="M600 400h100v100H600z"/><path fill="#c5b4a6" d="M700 400h100v100H700z"/><path fill="#bbbcb3" d="M0 500h100v100H0z"/><path fill="#babfbb" d="M100 500h100v100H100z"/><path fill="#babebc" d="M200 500h100v100H200z"/><path fill="#b7b7b4" d="M300 500h100v100H300z"/><path fill="#aeb0b3" d="M400 500h100v100H400z"/><path fill="#adb3b8" d="M500 500h100v100H500z"/><path fill="#c6c4c1" d="M600 500h100v100H600z"/><path fill="#cbcbc5" d="M700 500h100v100H700z"/></svg>