<svg xmlns="http://www.w3.org/2000/svg" viewBox="0 0 800 500"><defs/><path fill="#e6ecee" d="M0 0h100v100H0z"/><path fill="#dfdcda" d="M100 0h100v100H100z"/><path fill="#d3d0cd" d="M200 0h100v100H200z"/><path fill="#d3d3d1" d="M300 0h100v100H300z"/><path fill="#dbd7d5" d="M400 0h100v100H400z"/><path fill="#cfd0d1" d="M500 0h100v100H500z"/><path fill="#e1dfe0" d="M600 0h100v100H600z"/><path fill="#f7f2f1" d="M700 0h100v100H700z"/><path fill="#9cbcca" d="M0 100h100v100H0z"/><path fill="#8a837c" d="M100 100h100v100H100z"/><path fill="#9a9892" d="M200 100h100v100H200z"/><path fill="#80a4a9" d="M300 100h100v100H300z"/><path fill="#58b5c1" d="M400 100h100v100H400z"/><path fill="#7fc1aa" d="M500 100h100v100H500z"/><path fill="#8eb6ab" d="M600 100h100v100H600z"/><path fill="#d7c1c9" d="M700 100h100v100H700z"/><path fill="#b4bec0" d="M0 200h100v100H0z"/><path fill="#968072" d="M100 200h100v100H100z"/><path fill="#9da6a5" d="M200 200h100v100H200z"/><path fill="#7da1b3" d="M300 200h100v100H300z"/><path fill="#72c7b2" d="M400 200h100v100H400z"/><path fill="#9ec68f" d="M500 200h100v100H500z"/><path fill="#9fbf9e" d="M600 200h100v100H600z"/><path fill="#ceb8c2" d="M700 200h100v100H700z"/><path fill="#afb3b4" d="M0 300h100v100H0z"/><path fill="#a58a77" d="M100 300h100v100H100z"/><path fill="#b9aea8" d="M200 300h100v100H200z"/><path fill="#87abae" d="M300 300h100v100H300z"/><path fill="#beb6a9" d="M400 300h100v100H400z"/><path fill="#cdb799" d="M500 300h100v100H500z"/><path fill="#a79886" d="M600 300h100v100H600z"/><path fill="#dfc2ca" d="M700 300h100v100H700z"/><path fill="#bfbdba" d="M0 400h100v100H0z"/><path fill="#b79e97" d="M100 400h100v100H100z"/><path fill="#d9adaf" d="M200 400h100v100H200z"/><path fill="#bbb3ad" d="M300 400h100v100H300z"/><path fill="#d9b9b1" d="M400 400h100v100H400z"/><path fill="#d2b4af" d="M500 400h100v100H500z"/><path fill="#a19593" d="M600 400h100v100H600z"/><path fill="#b9aeac" d="M700 400h100v100H700z"/></svg>