<svg xmlns="http://www.w3.org/2000/svg" viewBox="0 0 800 400"><defs/><path fill="#c5d6d6" d="M0 0h100v100H0z"/><path fill="#b7cccc" d="M100 0h100v100H100z"/><path fill="#cddcdd" d="M200 0h100v100H200z"/><path fill="#b1c8c9" d="M300 0h100v100H300z"/><path fill="#8badaf" d="M400 0h100v100H400z"/><path fill="#d3e0e1" d="M500 0h100v100H500z"/><path fill="#bcd0d1" d="M600 0h100v100H600z"/><path fill="#94b3b5" d="M700 0h100v100H700z"/><path fill="#cadcde" d="M0 100h100v100H0z"/><path fill="#a6c2c3" d="M100 100h100v100H100z"/><path fill="#b5cbcb" d="M200 100h100v100H200z"/><path fill="#9dbbbd" d="M300 100h100v100H300z"/><path fill="#6b989b" d="M400 100h100v100H400z"/><path fill="#afc7c8" d="M500 100h100v100H500z"/><path fill="#b9cece" d="M600 100h100v100H600z"/><path fill="#a3bec0" d="M700 100h100v100H700z"/><path fill="#b2cdcf" d="M0 200h100v100H0z"/><path fill="#a0bebf" d="M100 200h100v100H100z"/><path fill="#d4e1e0" d="M200 200h100v100H200z"/><path fill="#d7e3e3" d="M300 200h100v100H300z"/><path fill="#d7e2e2" d="M400 200h100v100H400z"/><path fill="#c6d6d7" d="M500 200h100v100H500z"/><path fill="#b1c8c9" d="M600 200h100v100H600z"/><path fill="#a1bcbe" d="M700 200h100v100H700z"/><path fill="#b2c7c9" d="M0 300h100v100H0z"/><path fill="#b6cbcc" d="M100 300h100v100H100z"/><path fill="#b3c9ca" d="M200 300h100v100H200z"/><path fill="#a5bfc0" d="M300 300h100v100H300z"/><path fill="#b3cacb" d="M400 300h100v100H400z"/><path fill="#a1bdbe" d="M500 300h100v100H500z"/><path fill="#bacfd0" d="M600 300h100v100H600z"/><path fill="#abc4c5" d="M700 300h100v100H700z"/></svg>