<svg xmlns="http://www.w3.org/2000/svg" viewBox="0 0 800 400"><defs/><path fill="#d29705" d="M0 0h100v100H0z"/><path fill="#7b614a" d="M100 0h100v100H100z"/><path fill="#eccd81" d="M200 0h100v100H200z"/><path fill="#eabc4c" d="M300 0h100v100H300z"/><path fill="#e5d4bf" d="M400 0h100v100H400z"/><path fill="#afa9a1" d="M500 0h100v100H500z"/><path fill="#979286" d="M600 0h100v100H600z"/><path fill="#85888d" d="M700 0h100v100H700z"/><path fill="#9c7915" d="M0 100h100v100H0z"/><path fill="#9f816e" d="M100 100h100v100H100z"/><path fill="#dcceb6" d="M200 100h100v100H200z"/><path fill="#b8b5a5" d="M300 100h100v100H300z"/><path fill="#dbdedd" d="M400 100h100v100H400z"/><path fill="#999894" d="M500 100h100v100H500z"/><path fill="#8f8b7f" d="M600 100h100v100H600z"/><path fill="#334255" d="M700 100h100v100H700z"/><path fill="#93620f" d="M0 200h100v100H0z"/><path fill="#878676" d="M100 200h100v100H100z"/><path fill="#808b82" d="M200 200h100v100H200z"/><path fill="#696a63" d="M300 200h100v100H300z"/><path fill="#848681" d="M400 200h100v100H400z"/><path fill="#7e7369" d="M500 200h100v100H500z"/><path fill="#908d7c" d="M600 200h100v100H600z"/><path fill="#293a50" d="M700 200h100v100H700z"/><path fill="#9a713e" d="M0 300h100v100H0z"/><path fill="#5c8a7a" d="M100 300h100v100H100z"/><path fill="#2c9892" d="M200 300h100v100H200z"/><path fill="#917d36" d="M300 300h100v100H300z"/><path fill="#867a52" d="M400 300h100v100H400z"/><path fill="#b9c5c3" d="M500 300h100v100H500z"/><path fill="#889698" d="M600 300h100v100H600z"/><path fill="#00183b" d="M700 300h100v100H700z"/></svg>