<svg xmlns="http://www.w3.org/2000/svg" viewBox="0 0 800 400"><defs/><path fill="#533320" d="M0 0h100v100H0z"/><path fill="#60412c" d="M100 0h100v100H100z"/><path fill="#4c3120" d="M200 0h100v100H200z"/><path fill="#493827" d="M300 0h100v100H300z"/><path fill="#504f42" d="M400 0h100v100H400z"/><path fill="#4a3627" d="M500 0h100v100H500z"/><path fill="#492f20" d="M600 0h100v100H600z"/><path fill="#503321" d="M700 0h100v100H700z"/><path fill="#5c402e" d="M0 100h100v100H0z"/><path fill="#624d3d" d="M100 100h100v100H100z"/><path fill="#462c1f" d="M200 100h100v100H200z"/><path fill="#594834" d="M300 100h100v100H300z"/><path fill="#737763" d="M400 100h100v100H400z"/><path fill="#504030" d="M500 100h100v100H500z"/><path fill="#513421" d="M600 100h100v100H600z"/><path fill="#4a2e1c" d="M700 100h100v100H700z"/><path fill="#694934" d="M0 200h100v100H0z"/><path fill="#654f3e" d="M100 200h100v100H100z"/><path fill="#6f532f" d="M200 200h100v100H200z"/><path fill="#6f593e" d="M300 200h100v100H300z"/><path fill="#5c472e" d="M400 200h100v100H400z"/><path fill="#826630" d="M500 200h100v100H500z"/><path fill="#604c31" d="M600 200h100v100H600z"/><path fill="#755a4a" d="M700 200h100v100H700z"/><path fill="#5d412b" d="M0 300h100v100H0z"/><path fill="#4e4534" d="M100 300h100v100H100z"/><path fill="#58523d" d="M200 300h100v100H200z"/><path fill="#464f46" d="M300 300h100v100H300z"/><path fill="#4c584e" d="M400 300h100v100H400z"/><path fill="#464f3f" d="M500 300h100v100H500z"/><path fill="#969c96" d="M600 300h100v100H600z"/><path fill="#ebe4e3" d="M700 300h100v100H700z"/></svg>