<svg xmlns="http://www.w3.org/2000/svg" viewBox="0 0 800 600"><defs/><path fill="#eae8ec" d="M0 0h100v100H0z"/><path fill="#ddd3de" d="M100 0h100v100H100z"/><path fill="#dadae2" d="M200 0h100v100H200z"/><path fill="#e3e1e5" d="M300 0h100v100H300z"/><path fill="#e7e5e8" d="M400 0h100v100H400z"/><path fill="#e6e3e7" d="M500 0h100v100H500zm100 0h100v100H600z"/><path fill="#eae8eb" d="M700 0h100v100H700z"/><path fill="#b3a9b7" d="M0 100h100v100H0z"/><path fill="#ba70a5" d="M100 100h100v100H100z"/><path fill="#877471" d="M200 100h100v100H200z"/><path fill="#7b8f84" d="M300 100h100v100H300z"/><path fill="#879190" d="M400 100h100v100H400z"/><path fill="#9a9a9e" d="M500 100h100v100H500z"/><path fill="#8f9097" d="M600 100h100v100H600z"/><path fill="#a19da5" d="M700 100h100v100H700z"/><path fill="#b9a1b7" d="M0 200h100v100H0z"/><path fill="#b877a5" d="M100 200h100v100H100z"/><path fill="#7a6452" d="M200 200h100v100H200z"/><path fill="#7a8187" d="M300 200h100v100H300z"/><path fill="#b5b5bb" d="M400 200h100v100H400z"/><path fill="#b9b9b8" d="M500 200h100v100H500z"/><path fill="#8c8c92" d="M600 200h100v100H600z"/><path fill="#9e99a2" d="M700 200h100v100H700z"/><path fill="#c79cbe" d="M0 300h100v100H0z"/><path fill="#ac7299" d="M100 300h100v100H100z"/><path fill="#6e6155" d="M200 300h100v100H200z"/><path fill="#7a6669" d="M300 300h100v100H300z"/><path fill="#94868c" d="M400 300h100v100H400z"/><path fill="#938384" d="M500 300h100v100H500z"/><path fill="#726162" d="M600 300h100v100H600z"/><path fill="#9d99a2" d="M700 300h100v100H700z"/><path fill="#b880a5" d="M0 400h100v100H0z"/><path fill="#784860" d="M100 400h100v100H100z"/><path fill="#63595b" d="M200 400h100v100H200z"/><path fill="#70747f" d="M300 400h100v100H300z"/><path fill="#585e67" d="M400 400h100v100H400z"/><path fill="#6f6f71" d="M500 400h100v100H500z"/><path fill="#705c60" d="M600 400h100v100H600z"/><path fill="#877477" d="M700 400h100v100H700z"/><path fill="#d7cbd1" d="M0 500h100v100H0z"/><path fill="#cbc0c4" d="M100 500h100v100H100z"/><path fill="#d0c7ca" d="M200 500h100v100H200z"/><path fill="#d9d8db" d="M300 500h100v100H300z"/><path fill="#cdcacd" d="M400 500h100v100H400z"/><path fill="#d8d2d4" d="M500 500h100v100H500z"/><path fill="#d9d2d4" d="M600 500h100v100H600z"/><path fill="#d8cfd2" d="M700 500h100v100H700z"/></svg>