<svg xmlns="http://www.w3.org/2000/svg" viewBox="0 0 800 600"><defs/><path fill="#a26714" d="M0 0h100v100H0z"/><path fill="#59462f" d="M100 0h100v100H100z"/><path fill="#40322b" d="M200 0h100v100H200z"/><path fill="#22150f" d="M300 0h100v100H300z"/><path fill="#503025" d="M400 0h100v100H400z"/><path fill="#573528" d="M500 0h100v100H500z"/><path fill="#583311" d="M600 0h100v100H600z"/><path fill="#bdaf9a" d="M700 0h100v100H700z"/><path fill="#b67924" d="M0 100h100v100H0z"/><path fill="#959278" d="M100 100h100v100H100z"/><path fill="#776672" d="M200 100h100v100H200z"/><path fill="#4e4239" d="M300 100h100v100H300z"/><path fill="#726063" d="M400 100h100v100H400z"/><path fill="#835857" d="M500 100h100v100H500z"/><path fill="#604024" d="M600 100h100v100H600z"/><path fill="#b5a897" d="M700 100h100v100H700z"/><path fill="#9b6e2e" d="M0 200h100v100H0z"/><path fill="#a6a68e" d="M100 200h100v100H100z"/><path fill="#acb8c5" d="M200 200h100v100H200z"/><path fill="#e3dbdc" d="M300 200h100v100H300z"/><path fill="#b1a2b0" d="M400 200h100v100H400z"/><path fill="#a48282" d="M500 200h100v100H500z"/><path fill="#625657" d="M600 200h100v100H600z"/><path fill="#a29b91" d="M700 200h100v100H700z"/><path fill="#8b6e42" d="M0 300h100v100H0z"/><path fill="#868876" d="M100 300h100v100H100z"/><path fill="#969790" d="M200 300h100v100H200z"/><path fill="#958574" d="M300 300h100v100H300z"/><path fill="#5b4736" d="M400 300h100v100H400z"/><path fill="#42543a" d="M500 300h100v100H500z"/><path fill="#794f19" d="M600 300h100v100H600z"/><path fill="#bbb8ad" d="M700 300h100v100H700z"/><path fill="#705736" d="M0 400h100v100H0z"/><path fill="#6b6e5e" d="M100 400h100v100H100z"/><path fill="#6f675a" d="M200 400h100v100H200z"/><path fill="#5e4e3a" d="M300 400h100v100H300z"/><path fill="#797d4b" d="M400 400h100v100H400z"/><path fill="#645631" d="M500 400h100v100H500z"/><path fill="#5d3805" d="M600 400h100v100H600z"/><path fill="#a79173" d="M700 400h100v100H700z"/><path fill="#55391e" d="M0 500h100v100H0z"/><path fill="#63624f" d="M100 500h100v100H100z"/><path fill="#645544" d="M200 500h100v100H200z"/><path fill="#7d4b29" d="M300 500h100v100H300z"/><path fill="#95653b" d="M400 500h100v100H400z"/><path fill="#b5773c" d="M500 500h100v100H500z"/><path fill="#734923" d="M600 500h100v100H600z"/><path fill="#ac8361" d="M700 500h100v100H700z"/></svg>