<svg xmlns="http://www.w3.org/2000/svg" viewBox="0 0 800 500"><defs/><path fill="#c1babd" d="M0 0h100v100H0z"/><path fill="#ca9da5" d="M100 0h100v100H100z"/><path fill="#fdffff" d="M200 0h100v100H200z"/><path fill="#f9f9fc" d="M300 0h100v100H300z"/><path fill="#f8ecbf" d="M400 0h100v100H400z"/><path fill="#ffe88b" d="M500 0h100v100H500z"/><path fill="#f3e4a2" d="M600 0h100v100H600z"/><path fill="#a7bd91" d="M700 0h100v100H700z"/><path fill="#bea2aa" d="M0 100h100v100H0z"/><path fill="#c7a5aa" d="M100 100h100v100H100z"/><path fill="#f5ffff" d="M200 100h100v100H200z"/><path fill="#fdfdff" d="M300 100h100v100H300z"/><path fill="#fcf9f3" d="M400 100h100v100H400z"/><path fill="#eacea7" d="M500 100h100v100H500z"/><path fill="#eeded4" d="M600 100h100v100H600z"/><path fill="#c0a586" d="M700 100h100v100H700z"/><path fill="#bf8b98" d="M0 200h100v100H0z"/><path fill="#b27e6b" d="M100 200h100v100H100z"/><path fill="#ccaa93" d="M200 200h100v100H200z"/><path fill="#f1f5fb" d="M300 200h100v100H300z"/><path fill="#fff1cf" d="M400 200h100v100H400z"/><path fill="#b6b966" d="M500 200h100v100H500z"/><path fill="#81a569" d="M600 200h100v100H600z"/><path fill="#c39293" d="M700 200h100v100H700z"/><path fill="#cc9596" d="M0 300h100v100H0z"/><path fill="#d4aa95" d="M100 300h100v100H100z"/><path fill="#c28d6d" d="M200 300h100v100H200z"/><path fill="#b49589" d="M300 300h100v100H300z"/><path fill="#c9986c" d="M400 300h100v100H400z"/><path fill="#c59652" d="M500 300h100v100H500z"/><path fill="#b4bb94" d="M600 300h100v100H600z"/><path fill="#c1aea8" d="M700 300h100v100H700z"/><path fill="#fae9df" d="M0 400h100v100H0z"/><path fill="#e9cfbc" d="M100 400h100v100H100z"/><path fill="#d9bfaf" d="M200 400h100v100H200z"/><path fill="#f4b48a" d="M300 400h100v100H300z"/><path fill="#eab394" d="M400 400h100v100H400z"/><path fill="#e8b79f" d="M500 400h100v100H500z"/><path fill="#cebebc" d="M600 400h100v100H600z"/><path fill="#cdd4d6" d="M700 400h100v100H700z"/></svg>