<svg xmlns="http://www.w3.org/2000/svg" viewBox="0 0 800 600"><defs/><path fill="#78746c" d="M0 0h100v100H0z"/><path fill="#4e4638" d="M100 0h100v100H100z"/><path fill="#5d5838" d="M200 0h100v100H200z"/><path fill="#917a53" d="M300 0h100v100H300z"/><path fill="#ae826b" d="M400 0h100v100H400z"/><path fill="#a2746a" d="M500 0h100v100H500z"/><path fill="#8b6a59" d="M600 0h100v100H600z"/><path fill="#6a6554" d="M700 0h100v100H700z"/><path fill="#6c675b" d="M0 100h100v100H0z"/><path fill="#4b4333" d="M100 100h100v100H100z"/><path fill="#49503d" d="M200 100h100v100H200z"/><path fill="#686550" d="M300 100h100v100H300z"/><path fill="#7b6e61" d="M400 100h100v100H400z"/><path fill="#725c53" d="M500 100h100v100H500z"/><path fill="#635546" d="M600 100h100v100H600z"/><path fill="#6c6450" d="M700 100h100v100H700z"/><path fill="#635a4f" d="M0 200h100v100H0z"/><path fill="#564c38" d="M100 200h100v100H100z"/><path fill="#575341" d="M200 200h100v100H200z"/><path fill="#4f4e45" d="M300 200h100v100H300z"/><path fill="#625d4f" d="M400 200h100v100H400z"/><path fill="#6c5c46" d="M500 200h100v100H500z"/><path fill="#655649" d="M600 200h100v100H600z"/><path fill="#9b8c70" d="M700 200h100v100H700z"/><path fill="#5d5446" d="M0 300h100v100H0z"/><path fill="#514937" d="M100 300h100v100H100z"/><path fill="#665536" d="M200 300h100v100H200z"/><path fill="#7d6546" d="M300 300h100v100H300z"/><path fill="#8d765a" d="M400 300h100v100H400z"/><path fill="#917142" d="M500 300h100v100H500z"/><path fill="#5e543e" d="M600 300h100v100H600z"/><path fill="#7d6a4f" d="M700 300h100v100H700z"/><path fill="#4e4637" d="M0 400h100v100H0z"/><path fill="#3e3629" d="M100 400h100v100H100z"/><path fill="#594c32" d="M200 400h100v100H200z"/><path fill="#8b6c4f" d="M300 400h100v100H300z"/><path fill="#735d50" d="M400 400h100v100H400z"/><path fill="#9a7351" d="M500 400h100v100H500z"/><path fill="#886e3e" d="M600 400h100v100H600z"/><path fill="#735d37" d="M700 400h100v100H700z"/><path fill="#332c21" d="M0 500h100v100H0z"/><path fill="#2f281d" d="M100 500h100v100H100z"/><path fill="#403832" d="M200 500h100v100H200z"/><path fill="#775d4b" d="M300 500h100v100H300z"/><path fill="#665344" d="M400 500h100v100H400z"/><path fill="#87684f" d="M500 500h100v100H500z"/><path fill="#715b41" d="M600 500h100v100H600z"/><path fill="#3e3625" d="M700 500h100v100H700z"/></svg>