<svg xmlns="http://www.w3.org/2000/svg" viewBox="0 0 800 400"><defs/><path fill="#686665" d="M0 0h100v100H0z"/><path fill="#63676a" d="M100 0h100v100H100z"/><path fill="#9e8e8d" d="M200 0h100v100H200z"/><path fill="#9a8686" d="M300 0h100v100H300z"/><path fill="#bec0bc" d="M400 0h100v100H400z"/><path fill="#cbcbcc" d="M500 0h100v100H500z"/><path fill="#c1c1c2" d="M600 0h100v100H600z"/><path fill="#bcbabd" d="M700 0h100v100H700z"/><path fill="#585654" d="M0 100h100v100H0z"/><path fill="#85878a" d="M100 100h100v100H100z"/><path fill="#a19c99" d="M200 100h100v100H200z"/><path fill="#6d6157" d="M300 100h100v100H300z"/><path fill="#827d73" d="M400 100h100v100H400z"/><path fill="#ccced1" d="M500 100h100v100H500z"/><path fill="#dadcdb" d="M600 100h100v100H600z"/><path fill="#c4afb0" d="M700 100h100v100H700z"/><path fill="#5e5e5f" d="M0 200h100v100H0z"/><path fill="#65686d" d="M100 200h100v100H100z"/><path fill="#666766" d="M200 200h100v100H200z"/><path fill="#524c41" d="M300 200h100v100H300z"/><path fill="#4a3d2f" d="M400 200h100v100H400z"/><path fill="#716559" d="M500 200h100v100H500z"/><path fill="#858890" d="M600 200h100v100H600z"/><path fill="#a5a2a2" d="M700 200h100v100H700z"/><path fill="#494c53" d="M0 300h100v100H0z"/><path fill="#5f636e" d="M100 300h100v100H100z"/><path fill="#5f636a" d="M200 300h100v100H200z"/><path fill="#595c5f" d="M300 300h100v100H300z"/><path fill="#605e5f" d="M400 300h100v100H400z"/><path fill="#5f5b5a" d="M500 300h100v100H500z"/><path fill="#626976" d="M600 300h100v100H600z"/><path fill="#5d616c" d="M700 300h100v100H700z"/></svg>