<svg xmlns="http://www.w3.org/2000/svg" viewBox="0 0 800 500"><defs/><path fill="#f4f2f5" d="M0 0h100v100H0z"/><path fill="#efe6ea" d="M100 0h100v100H100z"/><path fill="#eee7eb" d="M200 0h100v100H200z"/><path fill="#f6f5f7" d="M300 0h100v100H300z"/><path fill="#f9f8fc" d="M400 0h100v100H400z"/><path fill="#d8d7da" d="M500 0h100v100H500z"/><path fill="#d2d2d3" d="M600 0h100v100H600z"/><path fill="#eae1e4" d="M700 0h100v100H700z"/><path fill="#dfdae1" d="M0 100h100v100H0z"/><path fill="#d5bdc5" d="M100 100h100v100H100z"/><path fill="#ceb1b9" d="M200 100h100v100H200z"/><path fill="#d3b9bd" d="M300 100h100v100H300z"/><path fill="#e5d3d6" d="M400 100h100v100H400z"/><path fill="#736d76" d="M500 100h100v100H500z"/><path fill="#404147" d="M600 100h100v100H600z"/><path fill="#b2a0a7" d="M700 100h100v100H700z"/><path fill="#e8dadb" d="M0 200h100v100H0z"/><path fill="#d5bbbb" d="M100 200h100v100H100z"/><path fill="#cca6b4" d="M200 200h100v100H200z"/><path fill="#c395a3" d="M300 200h100v100H300z"/><path fill="#dba5a4" d="M400 200h100v100H400z"/><path fill="#91717c" d="M500 200h100v100H500z"/><path fill="#706776" d="M600 200h100v100H600z"/><path fill="#d4c1c9" d="M700 200h100v100H700z"/><path fill="#e6d5d8" d="M0 300h100v100H0z"/><path fill="#bf939a" d="M100 300h100v100H100z"/><path fill="#be929f" d="M200 300h100v100H200z"/><path fill="#c1aba2" d="M300 300h100v100H300z"/><path fill="#c19a9b" d="M400 300h100v100H400z"/><path fill="#b78a7a" d="M500 300h100v100H500z"/><path fill="#b98888" d="M600 300h100v100H600z"/><path fill="#b9a1a9" d="M700 300h100v100H700z"/><path fill="#e5d4d9" d="M0 400h100v100H0z"/><path fill="#dbbbc0" d="M100 400h100v100H100z"/><path fill="#dabbc1" d="M200 400h100v100H200z"/><path fill="#dfc6c5" d="M300 400h100v100H300z"/><path fill="#dec4c2" d="M400 400h100v100H400z"/><path fill="#e7c5ba" d="M500 400h100v100H500z"/><path fill="#e1c6bf" d="M600 400h100v100H600z"/><path fill="#b0aab2" d="M700 400h100v100H700z"/></svg>