<svg xmlns="http://www.w3.org/2000/svg" viewBox="0 0 800 500"><defs/><path fill="#d3baa8" d="M0 0h100v100H0z"/><path fill="#ab846d" d="M100 0h100v100H100z"/><path fill="#ac9c86" d="M200 0h100v100H200z"/><path fill="#b6ac98" d="M300 0h100v100H300z"/><path fill="#b0b0a9" d="M400 0h100v100H400z"/><path fill="#b1afa8" d="M500 0h100v100H500z"/><path fill="#a7a6a3" d="M600 0h100v100H600z"/><path fill="#d7d4cc" d="M700 0h100v100H700z"/><path fill="#cdac99" d="M0 100h100v100H0z"/><path fill="#a7856c" d="M100 100h100v100H100z"/><path fill="#af9e8c" d="M200 100h100v100H200z"/><path fill="#aca595" d="M300 100h100v100H300z"/><path fill="#949c88" d="M400 100h100v100H400z"/><path fill="#9a9f8f" d="M500 100h100v100H500z"/><path fill="#8f8c88" d="M600 100h100v100H600z"/><path fill="#c7bfba" d="M700 100h100v100H700z"/><path fill="#c0957f" d="M0 200h100v100H0z"/><path fill="#9e7d5f" d="M100 200h100v100H100z"/><path fill="#ab9c88" d="M200 200h100v100H200z"/><path fill="#5c715e" d="M300 200h100v100H300z"/><path fill="#707a67" d="M400 200h100v100H400z"/><path fill="#a19d8f" d="M500 200h100v100H500z"/><path fill="#bfb4a9" d="M600 200h100v100H600z"/><path fill="#aca09b" d="M700 200h100v100H700z"/><path fill="#b5876f" d="M0 300h100v100H0z"/><path fill="#a98a71" d="M100 300h100v100H100z"/><path fill="#c8aa95" d="M200 300h100v100H200z"/><path fill="#5f7055" d="M300 300h100v100H300z"/><path fill="#17492c" d="M400 300h100v100H400z"/><path fill="#5b6652" d="M500 300h100v100H500z"/><path fill="#998275" d="M600 300h100v100H600z"/><path fill="#9d9188" d="M700 300h100v100H700z"/><path fill="#c49983" d="M0 400h100v100H0z"/><path fill="#ceaf9b" d="M100 400h100v100H100z"/><path fill="#cdab99" d="M200 400h100v100H200z"/><path fill="#b69986" d="M300 400h100v100H300z"/><path fill="#606f5a" d="M400 400h100v100H400z"/><path fill="#757869" d="M500 400h100v100H500z"/><path fill="#a19186" d="M600 400h100v100H600z"/><path fill="#a19085" d="M700 400h100v100H700z"/></svg>