<svg xmlns="http://www.w3.org/2000/svg" viewBox="0 0 800 600"><defs/><path fill="#cac3b9" d="M0 0h100v100H0z"/><path fill="#cbc4bc" d="M100 0h100v100H100z"/><path fill="#cac4bc" d="M200 0h100v100H200z"/><path fill="#c8bfb7" d="M300 0h100v100H300z"/><path fill="#c7c1ba" d="M400 0h100v100H400z"/><path fill="#d0ceca" d="M500 0h100v100H500z"/><path fill="#d6d5d4" d="M600 0h100v100H600z"/><path fill="#d7d6d8" d="M700 0h100v100H700z"/><path fill="#bbb5a9" d="M0 100h100v100H0z"/><path fill="#b5afa5" d="M100 100h100v100H100z"/><path fill="#c2bbb4" d="M200 100h100v100H200z"/><path fill="#bab9b2" d="M300 100h100v100H300z"/><path fill="#bab8b1" d="M400 100h100v100H400z"/><path fill="#c4c4c1" d="M500 100h100v100H500z"/><path fill="#cececa" d="M600 100h100v100H600z"/><path fill="#d9dbe0" d="M700 100h100v100H700z"/><path fill="#b3ab9f" d="M0 200h100v100H0z"/><path fill="#a7a196" d="M100 200h100v100H100z"/><path fill="#afa49c" d="M200 200h100v100H200z"/><path fill="#9a9386" d="M300 200h100v100H300z"/><path fill="#99998f" d="M400 200h100v100H400z"/><path fill="#a09b93" d="M500 200h100v100H500z"/><path fill="#c2bcb6" d="M600 200h100v100H600z"/><path fill="#d9dbe1" d="M700 200h100v100H700z"/><path fill="#aaa294" d="M0 300h100v100H0z"/><path fill="#a7a296" d="M100 300h100v100H100z"/><path fill="#8d705e" d="M200 300h100v100H200z"/><path fill="#805d4b" d="M300 300h100v100H300z"/><path fill="#aa9f99" d="M400 300h100v100H400z"/><path fill="#a69b94" d="M500 300h100v100H500z"/><path fill="#c5cbcb" d="M600 300h100v100H600z"/><path fill="#d9dce3" d="M700 300h100v100H700z"/><path fill="#9f9687" d="M0 400h100v100H0z"/><path fill="#9e9283" d="M100 400h100v100H100z"/><path fill="#7c624f" d="M200 400h100v100H200z"/><path fill="#796756" d="M300 400h100v100H300z"/><path fill="#a8978e" d="M400 400h100v100H400z"/><path fill="#a4a19d" d="M500 400h100v100H500z"/><path fill="#ba9491" d="M600 400h100v100H600z"/><path fill="#d5cfd3" d="M700 400h100v100H700z"/><path fill="#a69989" d="M0 500h100v100H0z"/><path fill="#a29588" d="M100 500h100v100H100z"/><path fill="#a09387" d="M200 500h100v100H200z"/><path fill="#978679" d="M300 500h100v100H300z"/><path fill="#9e968b" d="M400 500h100v100H400z"/><path fill="#b1aba6" d="M500 500h100v100H500z"/><path fill="#bf8983" d="M600 500h100v100H600z"/><path fill="#d0c8cb" d="M700 500h100v100H700z"/></svg>