<svg xmlns="http://www.w3.org/2000/svg" viewBox="0 0 800 500"><defs/><path fill="#c5c6c7" d="M0 0h100v100H0z"/><path fill="#c3939c" d="M100 0h100v100H100z"/><path fill="#fcfefd" d="M200 0h100v100H200z"/><path fill="#f9fbff" d="M300 0h100v100H300z"/><path fill="#f8eec4" d="M400 0h100v100H400z"/><path fill="#fce586" d="M500 0h100v100H500z"/><path fill="#fbeaa4" d="M600 0h100v100H600z"/><path fill="#a0b782" d="M700 0h100v100H700z"/><path fill="#c0abb1" d="M0 100h100v100H0z"/><path fill="#c59ea6" d="M100 100h100v100H100z"/><path fill="#faffff" d="M200 100h100v100H200z"/><path fill="#fcfbfc" d="M300 100h100v100H300z"/><path fill="#fcfdfb" d="M400 100h100v100H400z"/><path fill="#eed0a5" d="M500 100h100v100H500z"/><path fill="#ffeee2" d="M600 100h100v100H600z"/><path fill="#b89f77" d="M700 100h100v100H700z"/><path fill="#c498a6" d="M0 200h100v100H0z"/><path fill="#ad7869" d="M100 200h100v100H100z"/><path fill="#caab96" d="M200 200h100v100H200z"/><path fill="#f5f3f6" d="M300 200h100v100H300z"/><path fill="#fff7e2" d="M400 200h100v100H400z"/><path fill="#c6bf75" d="M500 200h100v100H500z"/><path fill="#85af73" d="M600 200h100v100H600z"/><path fill="#b48480" d="M700 200h100v100H700z"/><path fill="#c68b90" d="M0 300h100v100H0z"/><path fill="#d3a997" d="M100 300h100v100H100z"/><path fill="#cb926e" d="M200 300h100v100H200z"/><path fill="#b29f98" d="M300 300h100v100H300z"/><path fill="#c9a67e" d="M400 300h100v100H400z"/><path fill="#cb9a4f" d="M500 300h100v100H500z"/><path fill="#abba85" d="M600 300h100v100H600z"/><path fill="#b59e93" d="M700 300h100v100H700z"/><path fill="#f8e5da" d="M0 400h100v100H0z"/><path fill="#e9ceba" d="M100 400h100v100H100z"/><path fill="#ccb4a5" d="M200 400h100v100H200z"/><path fill="#eca77c" d="M300 400h100v100H300z"/><path fill="#e4a684" d="M400 400h100v100H400z"/><path fill="#e6ac8f" d="M500 400h100v100H500z"/><path fill="#d5beb7" d="M600 400h100v100H600z"/><path fill="#c1c8ca" d="M700 400h100v100H700z"/></svg>