<svg xmlns="http://www.w3.org/2000/svg" viewBox="0 0 800 500"><defs/><path fill="#e2e1e1" d="M0 0h100v100H0z"/><path fill="#d9d3d0" d="M100 0h100v100H100z"/><path fill="#e8e4e4" d="M200 0h100v100H200z"/><path fill="#e3e1e3" d="M300 0h100v100H300z"/><path fill="#e7e2df" d="M400 0h100v100H400z"/><path fill="#d9d6d2" d="M500 0h100v100H500z"/><path fill="#cdcccc" d="M600 0h100v100H600z"/><path fill="#d8d6d6" d="M700 0h100v100H700z"/><path fill="#898081" d="M0 100h100v100H0z"/><path fill="#64544f" d="M100 100h100v100H100z"/><path fill="#59504d" d="M200 100h100v100H200z"/><path fill="#4e4647" d="M300 100h100v100H300z"/><path fill="#5d534b" d="M400 100h100v100H400z"/><path fill="#62564d" d="M500 100h100v100H500z"/><path fill="#1c1a1b" d="M600 100h100v100H600z"/><path fill="#736969" d="M700 100h100v100H700z"/><path fill="#928580" d="M0 200h100v100H0z"/><path fill="#77696a" d="M100 200h100v100H100z"/><path fill="#5e5450" d="M200 200h100v100H200z"/><path fill="#6c6057" d="M300 200h100v100H300z"/><path fill="#837772" d="M400 200h100v100H400z"/><path fill="#988c87" d="M500 200h100v100H500z"/><path fill="#928682" d="M600 200h100v100H600z"/><path fill="#847773" d="M700 200h100v100H700z"/><path fill="#7c6f6a" d="M0 300h100v100H0z"/><path fill="#63544a" d="M100 300h100v100H100z"/><path fill="#837d78" d="M200 300h100v100H200z"/><path fill="#716a66" d="M300 300h100v100H300z"/><path fill="#847b78" d="M400 300h100v100H400z"/><path fill="#686369" d="M500 300h100v100H500z"/><path fill="#8a7e78" d="M600 300h100v100H600z"/><path fill="#625754" d="M700 300h100v100H700z"/><path fill="#b1a9a2" d="M0 400h100v100H0z"/><path fill="#90887d" d="M100 400h100v100H100z"/><path fill="#7b7d77" d="M200 400h100v100H200z"/><path fill="#898886" d="M300 400h100v100H300z"/><path fill="#8b8a89" d="M400 400h100v100H400z"/><path fill="#8d8b8a" d="M500 400h100v100H500z"/><path fill="#7f8184" d="M600 400h100v100H600z"/><path fill="#8b8783" d="M700 400h100v100H700z"/></svg>