<svg xmlns="http://www.w3.org/2000/svg" viewBox="0 0 800 500"><defs/><path fill="#ebe2e5" d="M0 0h100v100H0z"/><path fill="#cac0c1" d="M100 0h100v100H100z"/><path fill="#c8babb" d="M200 0h100v100H200z"/><path fill="#dbd0d3" d="M300 0h100v100H300z"/><path fill="#e8e0e2" d="M400 0h100v100H400z"/><path fill="#ece6e6" d="M500 0h100v100H500z"/><path fill="#e9e5e5" d="M600 0h100v100H600z"/><path fill="#eae9ea" d="M700 0h100v100H700z"/><path fill="#c4a6af" d="M0 100h100v100H0z"/><path fill="#492c32" d="M100 100h100v100H100z"/><path fill="#341d22" d="M200 100h100v100H200z"/><path fill="#7a676e" d="M300 100h100v100H300z"/><path fill="#d0c4b9" d="M400 100h100v100H400z"/><path fill="#e8e3cb" d="M500 100h100v100H500z"/><path fill="#e1e3c8" d="M600 100h100v100H600z"/><path fill="#d8d5cb" d="M700 100h100v100H700z"/><path fill="#b59ba2" d="M0 200h100v100H0z"/><path fill="#594148" d="M100 200h100v100H100z"/><path fill="#5e4041" d="M200 200h100v100H200z"/><path fill="#bca195" d="M300 200h100v100H300z"/><path fill="#e5d5bc" d="M400 200h100v100H400z"/><path fill="#d5c1a0" d="M500 200h100v100H500z"/><path fill="#e1c7b4" d="M600 200h100v100H600z"/><path fill="#e1d1cb" d="M700 200h100v100H700z"/><path fill="#8c7277" d="M0 300h100v100H0z"/><path fill="#703d3b" d="M100 300h100v100H100z"/><path fill="#a15e51" d="M200 300h100v100H200z"/><path fill="#8e695c" d="M300 300h100v100H300z"/><path fill="#7e5f53" d="M400 300h100v100H400z"/><path fill="#714e45" d="M500 300h100v100H500z"/><path fill="#643e39" d="M600 300h100v100H600z"/><path fill="#7d656b" d="M700 300h100v100H700z"/><path fill="#c6bebe" d="M0 400h100v100H0z"/><path fill="#bbaeac" d="M100 400h100v100H100z"/><path fill="#bfb3b2" d="M200 400h100v100H200z"/><path fill="#bab0b0" d="M300 400h100v100H300z"/><path fill="#bdb1b2" d="M400 400h100v100H400z"/><path fill="#b9b1b3" d="M500 400h100v100H500z"/><path fill="#ada8ac" d="M600 400h100v100H600z"/><path fill="#c7bfbf" d="M700 400h100v100H700z"/></svg>