<svg xmlns="http://www.w3.org/2000/svg" viewBox="0 0 800 400"><defs/><path fill="#869183" d="M0 0h100v100H0z"/><path fill="#9b9c8f" d="M100 0h100v100H100z"/><path fill="#abb2b0" d="M200 0h100v100H200z"/><path fill="#b6bcbc" d="M300 0h100v100H300z"/><path fill="#cfd3d4" d="M400 0h100v100H400z"/><path fill="#bdc3c5" d="M500 0h100v100H500z"/><path fill="#b6bcbc" d="M600 0h100v100H600z"/><path fill="#99a0a2" d="M700 0h100v100H700z"/><path fill="#838b7a" d="M0 100h100v100H0z"/><path fill="#6c735e" d="M100 100h100v100H100z"/><path fill="#667269" d="M200 100h100v100H200z"/><path fill="#bdbfbc" d="M300 100h100v100H300z"/><path fill="#c8c9c5" d="M400 100h100v100H400z"/><path fill="#bdc0bc" d="M500 100h100v100H500z"/><path fill="#80887f" d="M600 100h100v100H600z"/><path fill="#7e867d" d="M700 100h100v100H700z"/><path fill="#83927a" d="M0 200h100v100H0z"/><path fill="#7d8a76" d="M100 200h100v100H100z"/><path fill="#717f71" d="M200 200h100v100H200z"/><path fill="#b9b48f" d="M300 200h100v100H300z"/><path fill="#cbc7b9" d="M400 200h100v100H400z"/><path fill="#9e9a87" d="M500 200h100v100H500z"/><path fill="#717e70" d="M600 200h100v100H600z"/><path fill="#758176" d="M700 200h100v100H700z"/><path fill="#6f8a6c" d="M0 300h100v100H0z"/><path fill="#a7b5a6" d="M100 300h100v100H100z"/><path fill="#c3cbc1" d="M200 300h100v100H200z"/><path fill="#bcb58d" d="M300 300h100v100H300z"/><path fill="#babfab" d="M400 300h100v100H400z"/><path fill="#b3b8b4" d="M500 300h100v100H500z"/><path fill="#acaca0" d="M600 300h100v100H600z"/><path fill="#b3bcb1" d="M700 300h100v100H700z"/></svg>