<svg xmlns="http://www.w3.org/2000/svg" viewBox="0 0 800 600"><defs/><path fill="#abc5bc" d="M0 0h100v100H0z"/><path fill="#98ae9f" d="M100 0h100v100H100z"/><path fill="#b3ae95" d="M200 0h100v100H200z"/><path fill="#afa38c" d="M300 0h100v100H300z"/><path fill="#a9a08f" d="M400 0h100v100H400z"/><path fill="#a7a38e" d="M500 0h100v100H500z"/><path fill="#a09383" d="M600 0h100v100H600z"/><path fill="#866560" d="M700 0h100v100H700z"/><path fill="#98a298" d="M0 100h100v100H0z"/><path fill="#8b6a64" d="M100 100h100v100H100z"/><path fill="#779386" d="M200 100h100v100H200z"/><path fill="#56a1b5" d="M300 100h100v100H300z"/><path fill="#529cbb" d="M400 100h100v100H400z"/><path fill="#58a5b6" d="M500 100h100v100H500z"/><path fill="#719884" d="M600 100h100v100H600z"/><path fill="#5c352d" d="M700 100h100v100H700z"/><path fill="#ad938d" d="M0 200h100v100H0z"/><path fill="#907574" d="M100 200h100v100H100z"/><path fill="#aa9fae" d="M200 200h100v100H200z"/><path fill="#9d6f75" d="M300 200h100v100H300z"/><path fill="#bd9699" d="M400 200h100v100H400z"/><path fill="#b8a8a4" d="M500 200h100v100H500z"/><path fill="#88706a" d="M600 200h100v100H600z"/><path fill="#693c35" d="M700 200h100v100H700z"/><path fill="#aa847f" d="M0 300h100v100H0z"/><path fill="#826362" d="M100 300h100v100H100z"/><path fill="#8cb2ab" d="M200 300h100v100H200z"/><path fill="#8d887b" d="M300 300h100v100H300z"/><path fill="#baaaa0" d="M400 300h100v100H400z"/><path fill="#d6c7c9" d="M500 300h100v100H500z"/><path fill="#ae9ca0" d="M600 300h100v100H600z"/><path fill="#64413b" d="M700 300h100v100H700z"/><path fill="#a28889" d="M0 400h100v100H0z"/><path fill="#b7acb4" d="M100 400h100v100H100z"/><path fill="#9cbcc1" d="M200 400h100v100H200z"/><path fill="#b3beb3" d="M300 400h100v100H300z"/><path fill="#d8d0bf" d="M400 400h100v100H400z"/><path fill="#e5dfe7" d="M500 400h100v100H500z"/><path fill="#c8b4c1" d="M600 400h100v100H600z"/><path fill="#7a5a5d" d="M700 400h100v100H700z"/><path fill="#cfc5d2" d="M0 500h100v100H0z"/><path fill="#edebf2" d="M100 500h100v100H100z"/><path fill="#f3e8ee" d="M200 500h100v100H200z"/><path fill="#eae0e7" d="M300 500h100v100H300z"/><path fill="#eae3e9" d="M400 500h100v100H400z"/><path fill="#e8e3e8" d="M500 500h100v100H500z"/><path fill="#cebfc7" d="M600 500h100v100H600z"/><path fill="#b5a2ae" d="M700 500h100v100H700z"/></svg>