<svg xmlns="http://www.w3.org/2000/svg" viewBox="0 0 800 400"><defs/><path fill="#b3a7a0" d="M0 0h100v100H0z"/><path fill="#4d4540" d="M100 0h100v100H100z"/><path fill="#4f7098" d="M200 0h100v100H200z"/><path fill="#496794" d="M300 0h100v100H300z"/><path fill="#436998" d="M400 0h100v100H400z"/><path fill="#4f688a" d="M500 0h100v100H500z"/><path fill="#647775" d="M600 0h100v100H600z"/><path fill="#71716f" d="M700 0h100v100H700z"/><path fill="#a89382" d="M0 100h100v100H0z"/><path fill="#7e7166" d="M100 100h100v100H100z"/><path fill="#968583" d="M200 100h100v100H200z"/><path fill="#847174" d="M300 100h100v100H300z"/><path fill="#8f7b7f" d="M400 100h100v100H400z"/><path fill="#a68782" d="M500 100h100v100H500z"/><path fill="#8f9074" d="M600 100h100v100H600z"/><path fill="#848a97" d="M700 100h100v100H700z"/><path fill="#b09d91" d="M0 200h100v100H0z"/><path fill="#7a7369" d="M100 200h100v100H100z"/><path fill="#815f53" d="M200 200h100v100H200z"/><path fill="#b28472" d="M300 200h100v100H300z"/><path fill="#bd9084" d="M400 200h100v100H400z"/><path fill="#cca29c" d="M500 200h100v100H500z"/><path fill="#9b8683" d="M600 200h100v100H600z"/><path fill="#847d7c" d="M700 200h100v100H700z"/><path fill="#ada29b" d="M0 300h100v100H0z"/><path fill="#7b7370" d="M100 300h100v100H100z"/><path fill="#716357" d="M200 300h100v100H200z"/><path fill="#7f6557" d="M300 300h100v100H300z"/><path fill="#c2bdbe" d="M400 300h100v100H400z"/><path fill="#ccdbe6" d="M500 300h100v100H500z"/><path fill="#c7d0d8" d="M600 300h100v100H600z"/><path fill="#9a9595" d="M700 300h100v100H700z"/></svg>