<svg xmlns="http://www.w3.org/2000/svg" viewBox="0 0 800 600"><defs/><path fill="#faf9fb" d="M0 0h100v100H0z"/><path fill="#f6f4f8" d="M100 0h100v100H100z"/><path fill="#fcfbfc" d="M200 0h100v100H200zm100 0h100v100H300z"/><path fill="#fbfafc" d="M400 0h100v100H400z"/><path fill="#fdfcfd" d="M500 0h100v100H500z"/><path fill="#f6f5f8" d="M600 0h100v100H600z"/><path fill="#f8f7fa" d="M700 0h100v100H700z"/><path fill="#f1eff3" d="M0 100h100v100H0z"/><path fill="#ddd8e4" d="M100 100h100v100H100z"/><path fill="#efecf2" d="M200 100h100v100H200z"/><path fill="#fcfcfc" d="M300 100h100v100H300z"/><path fill="#eae6ed" d="M400 100h100v100H400z"/><path fill="#edeaf0" d="M500 100h100v100H500z"/><path fill="#e6e2eb" d="M600 100h100v100H600z"/><path fill="#e8e4ec" d="M700 100h100v100H700z"/><path fill="#ece9f0" d="M0 200h100v100H0z"/><path fill="#dfdae5" d="M100 200h100v100H100z"/><path fill="#e3dfe9" d="M200 200h100v100H200z"/><path fill="#ece9ef" d="M300 200h100v100H300z"/><path fill="#eae6ee" d="M400 200h100v100H400z"/><path fill="#e6e2ea" d="M500 200h100v100H500z"/><path fill="#d8d2e0" d="M600 200h100v100H600z"/><path fill="#d9d3e0" d="M700 200h100v100H700z"/><path fill="#e5e0e9" d="M0 300h100v100H0z"/><path fill="#e3dee7" d="M100 300h100v100H100z"/><path fill="#eeebf1" d="M200 300h100v100H200z"/><path fill="#e3dfe8" d="M300 300h100v100H300z"/><path fill="#e7e3eb" d="M400 300h100v100H400z"/><path fill="#eae6ee" d="M500 300h100v100H500z"/><path fill="#d3cbda" d="M600 300h100v100H600z"/><path fill="#d3cbdb" d="M700 300h100v100H700z"/><path fill="#e3dfe9" d="M0 400h100v100H0z"/><path fill="#e4e0e9" d="M100 400h100v100H100z"/><path fill="#efedf2" d="M200 400h100v100H200z"/><path fill="#f0eef3" d="M300 400h100v100H300z"/><path fill="#ece9ef" d="M400 400h100v100H400z"/><path fill="#f7f6f9" d="M500 400h100v100H500z"/><path fill="#e3dfe8" d="M600 400h100v100H600z"/><path fill="#e0dae6" d="M700 400h100v100H700z"/><path fill="#f8f7f9" d="M0 500h100v100H0z"/><path fill="#f8f8fa" d="M100 500h100v100H100z"/><path fill="#f7f6f9" d="M200 500h100v100H200z"/><path fill="#f6f5f8" d="M300 500h100v100H300z"/><path fill="#f7f5f8" d="M400 500h100v100H400z"/><path fill="#fbfafc" d="M500 500h100v100H500z"/><path fill="#fcfcfd" d="M600 500h100v100H600z"/><path fill="#eeecf2" d="M700 500h100v100H700z"/></svg>