<svg xmlns="http://www.w3.org/2000/svg" viewBox="0 0 800 800"><defs/><path fill="#422e1b" d="M0 0h100v100H0z"/><path fill="#392318" d="M100 0h100v100H100z"/><path fill="#492d1e" d="M200 0h100v100H200z"/><path fill="#30261f" d="M300 0h100v100H300z"/><path fill="#292526" d="M400 0h100v100H400z"/><path fill="#3c302c" d="M500 0h100v100H500z"/><path fill="#49332b" d="M600 0h100v100H600z"/><path fill="#342b2b" d="M700 0h100v100H700z"/><path fill="#844c24" d="M0 100h100v100H0z"/><path fill="#633822" d="M100 100h100v100H100z"/><path fill="#573323" d="M200 100h100v100H200z"/><path fill="#422d23" d="M300 100h100v100H300z"/><path fill="#433029" d="M400 100h100v100H400z"/><path fill="#6a4d40" d="M500 100h100v100H500z"/><path fill="#6e5244" d="M600 100h100v100H600z"/><path fill="#564038" d="M700 100h100v100H700z"/><path fill="#a37f55" d="M0 200h100v100H0z"/><path fill="#a9865d" d="M100 200h100v100H100z"/><path fill="#a47e59" d="M200 200h100v100H200z"/><path fill="#93755d" d="M300 200h100v100H300z"/><path fill="#7e6964" d="M400 200h100v100H400z"/><path fill="#968b85" d="M500 200h100v100H500z"/><path fill="#978e8c" d="M600 200h100v100H600z"/><path fill="#8c7c77" d="M700 200h100v100H700z"/><path fill="#a47f5c" d="M0 300h100v100H0z"/><path fill="#9f8565" d="M100 300h100v100H100z"/><path fill="#9f7a5d" d="M200 300h100v100H200z"/><path fill="#a1816a" d="M300 300h100v100H300z"/><path fill="#9e8c7e" d="M400 300h100v100H400z"/><path fill="#8e817b" d="M500 300h100v100H500z"/><path fill="#888079" d="M600 300h100v100H600z"/><path fill="#927b77" d="M700 300h100v100H700z"/><path fill="#a1805f" d="M0 400h100v100H0z"/><path fill="#a38668" d="M100 400h100v100H100z"/><path fill="#9c876d" d="M200 400h100v100H200z"/><path fill="#9a7f67" d="M300 400h100v100H300z"/><path fill="#8f7e69" d="M400 400h100v100H400z"/><path fill="#968474" d="M500 400h100v100H500z"/><path fill="#928272" d="M600 400h100v100H600z"/><path fill="#90776a" d="M700 400h100v100H700z"/><path fill="#937e60" d="M0 500h100v100H0z"/><path fill="#a08263" d="M100 500h100v100H100z"/><path fill="#9d7f61" d="M200 500h100v100H200z"/><path fill="#9e7e64" d="M300 500h100v100H300z"/><path fill="#9b7b60" d="M400 500h100v100H400z"/><path fill="#967d66" d="M500 500h100v100H500z"/><path fill="#907661" d="M600 500h100v100H600z"/><path fill="#8b7261" d="M700 500h100v100H700z"/><path fill="#927b59" d="M0 600h100v100H0z"/><path fill="#9c7957" d="M100 600h100v100H100z"/><path fill="#9b7458" d="M200 600h100v100H200z"/><path fill="#98795d" d="M300 600h100v100H300z"/><path fill="#96735b" d="M400 600h100v100H400z"/><path fill="#937862" d="M500 600h100v100H500z"/><path fill="#7c6958" d="M600 600h100v100H600z"/><path fill="#846957" d="M700 600h100v100H700z"/><path fill="#a1825a" d="M0 700h100v100H0z"/><path fill="#a0815d" d="M100 700h100v100H100z"/><path fill="#9e7f5e" d="M200 700h100v100H200z"/><path fill="#9b7e60" d="M300 700h100v100H300z"/><path fill="#997d61" d="M400 700h100v100H400z"/><path fill="#93775d" d="M500 700h100v100H500z"/><path fill="#8a6f59" d="M600 700h100v100H600z"/><path fill="#876a54" d="M700 700h100v100H700z"/></svg>