<svg xmlns="http://www.w3.org/2000/svg" viewBox="0 0 800 500"><defs/><path fill="#cad1d7" d="M0 0h100v100H0z"/><path fill="#c0c8cf" d="M100 0h100v100H100z"/><path fill="#c6ccd3" d="M200 0h100v100H200z"/><path fill="#caced4" d="M300 0h100v100H300z"/><path fill="#bfc3c9" d="M400 0h100v100H400z"/><path fill="#afb2b6" d="M500 0h100v100H500z"/><path fill="#a8aeb6" d="M600 0h100v100H600z"/><path fill="#abb2ba" d="M700 0h100v100H700z"/><path fill="#ccd1d8" d="M0 100h100v100H0z"/><path fill="#bec1c6" d="M100 100h100v100H100z"/><path fill="#abb3b9" d="M200 100h100v100H200z"/><path fill="#768690" d="M300 100h100v100H300z"/><path fill="#73808a" d="M400 100h100v100H400z"/><path fill="#6c7781" d="M500 100h100v100H500z"/><path fill="#9fa3a8" d="M600 100h100v100H600z"/><path fill="#aeb4ba" d="M700 100h100v100H700z"/><path fill="#cacfd5" d="M0 200h100v100H0z"/><path fill="#bfc3c4" d="M100 200h100v100H100z"/><path fill="#b0b7b6" d="M200 200h100v100H200z"/><path fill="#6e8190" d="M300 200h100v100H300z"/><path fill="#5f727f" d="M400 200h100v100H400z"/><path fill="#7b8282" d="M500 200h100v100H500z"/><path fill="#a8aaae" d="M600 200h100v100H600z"/><path fill="#afb5bb" d="M700 200h100v100H700z"/><path fill="#c2c8cc" d="M0 300h100v100H0z"/><path fill="#bebfc0" d="M100 300h100v100H100z"/><path fill="#c4c0bb" d="M200 300h100v100H200z"/><path fill="#beb6b1" d="M300 300h100v100H300z"/><path fill="#b9afa6" d="M400 300h100v100H400z"/><path fill="#b9b4ad" d="M500 300h100v100H500z"/><path fill="#a9a19e" d="M600 300h100v100H600z"/><path fill="#aeacac" d="M700 300h100v100H700z"/><path fill="#c7cacd" d="M0 400h100v100H0z"/><path fill="#c5c8ca" d="M100 400h100v100H100z"/><path fill="#c5c3c0" d="M200 400h100v100H200z"/><path fill="#b6b4b3" d="M300 400h100v100H300z"/><path fill="#b5b8bd" d="M400 400h100v100H400z"/><path fill="#b8b9bc" d="M500 400h100v100H500z"/><path fill="#b8b9b9" d="M600 400h100v100H600z"/><path fill="#b3b6b8" d="M700 400h100v100H700z"/></svg>