<svg xmlns="http://www.w3.org/2000/svg" viewBox="0 0 800 400"><defs/><path fill="#696f77" d="M0 0h100v100H0z"/><path fill="#494441" d="M100 0h100v100H100z"/><path fill="#09355b" d="M200 0h100v100H200z"/><path fill="#013463" d="M300 0h100v100H300z"/><path fill="#1a436a" d="M400 0h100v100H400z"/><path fill="#113d66" d="M500 0h100v100H500z"/><path fill="#123a62" d="M600 0h100v100H600z"/><path fill="#8290a2" d="M700 0h100v100H700z"/><path fill="#646467" d="M0 100h100v100H0z"/><path fill="#515054" d="M100 100h100v100H100z"/><path fill="#235685" d="M200 100h100v100H200z"/><path fill="#2b486b" d="M300 100h100v100H300z"/><path fill="#444f5c" d="M400 100h100v100H400z"/><path fill="#354d68" d="M500 100h100v100H500z"/><path fill="#234569" d="M600 100h100v100H600z"/><path fill="#6e777c" d="M700 100h100v100H700z"/><path fill="#605e60" d="M0 200h100v100H0z"/><path fill="#7d6e55" d="M100 200h100v100H100z"/><path fill="#ae9d90" d="M200 200h100v100H200z"/><path fill="#918681" d="M300 200h100v100H300z"/><path fill="#666a67" d="M400 200h100v100H400z"/><path fill="#566e7a" d="M500 200h100v100H500z"/><path fill="#7a8b8b" d="M600 200h100v100H600z"/><path fill="#777459" d="M700 200h100v100H700z"/><path fill="#726866" d="M0 300h100v100H0z"/><path fill="#807155" d="M100 300h100v100H100z"/><path fill="#88796f" d="M200 300h100v100H200z"/><path fill="#847d78" d="M300 300h100v100H300z"/><path fill="#6b7b7d" d="M400 300h100v100H400z"/><path fill="#516a6f" d="M500 300h100v100H500z"/><path fill="#69807c" d="M600 300h100v100H600z"/><path fill="#7b7766" d="M700 300h100v100H700z"/></svg>