<svg xmlns="http://www.w3.org/2000/svg" viewBox="0 0 800 500"><defs/><path fill="#2a7479" d="M0 0h100v100H0z"/><path fill="#6d7258" d="M100 0h100v100H100z"/><path fill="#206271" d="M200 0h100v100H200z"/><path fill="#448490" d="M300 0h100v100H300z"/><path fill="#3c7b87" d="M400 0h100v100H400z"/><path fill="#226170" d="M500 0h100v100H500z"/><path fill="#29717a" d="M600 0h100v100H600z"/><path fill="#746240" d="M700 0h100v100H700z"/><path fill="#4c7367" d="M0 100h100v100H0z"/><path fill="#545f4d" d="M100 100h100v100H100z"/><path fill="#1e3b4c" d="M200 100h100v100H200z"/><path fill="#3e5b61" d="M300 100h100v100H300z"/><path fill="#34535b" d="M400 100h100v100H400z"/><path fill="#284351" d="M500 100h100v100H500z"/><path fill="#1d6e7c" d="M600 100h100v100H600z"/><path fill="#63664d" d="M700 100h100v100H700z"/><path fill="#6e6f50" d="M0 200h100v100H0z"/><path fill="#464535" d="M100 200h100v100H100z"/><path fill="#5f5a41" d="M200 200h100v100H200z"/><path fill="#555960" d="M300 200h100v100H300z"/><path fill="#4e5b65" d="M400 200h100v100H400z"/><path fill="#716a4c" d="M500 200h100v100H500z"/><path fill="#4f6b60" d="M600 200h100v100H600z"/><path fill="#5b5644" d="M700 200h100v100H700z"/><path fill="#7f683f" d="M0 300h100v100H0z"/><path fill="#836941" d="M100 300h100v100H100z"/><path fill="#a17d49" d="M200 300h100v100H200z"/><path fill="#6b685c" d="M300 300h100v100H300z"/><path fill="#817051" d="M400 300h100v100H400z"/><path fill="#b38c50" d="M500 300h100v100H500z"/><path fill="#96784a" d="M600 300h100v100H600z"/><path fill="#695537" d="M700 300h100v100H700z"/><path fill="#9d7f4d" d="M0 400h100v100H0z"/><path fill="#96784a" d="M100 400h100v100H100z"/><path fill="#33261a" d="M200 400h100v100H200z"/><path fill="#4d3f28" d="M300 400h100v100H300z"/><path fill="#645032" d="M400 400h100v100H400z"/><path fill="#9e804e" d="M500 400h100v100H500z"/><path fill="#a78852" d="M600 400h100v100H600z"/><path fill="#816940" d="M700 400h100v100H700z"/></svg>