<svg xmlns="http://www.w3.org/2000/svg" viewBox="0 0 800 800"><defs/><path fill="#d2d5e8" d="M0 0h100v100H0z"/><path fill="#ced1e5" d="M100 0h100v100H100z"/><path fill="#ced0e3" d="M200 0h100v100H200z"/><path fill="#ced0e4" d="M300 0h100v100H300z"/><path fill="#cdd0e3" d="M400 0h100v100H400z"/><path fill="#cdd0e4" d="M500 0h100v100H500z"/><path fill="#cfd1e5" d="M600 0h100v100H600z"/><path fill="#d4d5e7" d="M700 0h100v100H700z"/><path fill="#cbcde1" d="M0 100h100v100H0z"/><path fill="#c8cadf" d="M100 100h100v100H100z"/><path fill="#cacce1" d="M200 100h100v100H200z"/><path fill="#cdcee4" d="M300 100h100v100H300z"/><path fill="#cccee3" d="M400 100h100v100H400z"/><path fill="#cacce1" d="M500 100h100v100H500z"/><path fill="#c9cbe1" d="M600 100h100v100H600z"/><path fill="#cdcfe2" d="M700 100h100v100H700z"/><path fill="#c3c5db" d="M0 200h100v100H0z"/><path fill="#b4b5cd" d="M100 200h100v100H100z"/><path fill="#bcbfd0" d="M200 200h100v100H200z"/><path fill="#bdbfd2" d="M300 200h100v100H300z"/><path fill="#b9bbcf" d="M400 200h100v100H400z"/><path fill="#b8bbcc" d="M500 200h100v100H500z"/><path fill="#bbbccf" d="M600 200h100v100H600z"/><path fill="#c9c8df" d="M700 200h100v100H700z"/><path fill="#c3c6dd" d="M0 300h100v100H0z"/><path fill="#a4a7c2" d="M100 300h100v100H100z"/><path fill="#869196" d="M200 300h100v100H200z"/><path fill="#6c6b6f" d="M300 300h100v100H300z"/><path fill="#79797f" d="M400 300h100v100H400z"/><path fill="#868ea0" d="M500 300h100v100H500z"/><path fill="#8d93a1" d="M600 300h100v100H600z"/><path fill="#b7b6c9" d="M700 300h100v100H700z"/><path fill="#b2b5cd" d="M0 400h100v100H0z"/><path fill="#9697ac" d="M100 400h100v100H100z"/><path fill="#a9abc7" d="M200 400h100v100H200z"/><path fill="#7b7c92" d="M300 400h100v100H300z"/><path fill="#8b8ca2" d="M400 400h100v100H400z"/><path fill="#a59fb3" d="M500 400h100v100H500z"/><path fill="#7e747d" d="M600 400h100v100H600z"/><path fill="#a6a8ba" d="M700 400h100v100H700z"/><path fill="#b6b8d0" d="M0 500h100v100H0z"/><path fill="#b1b5cd" d="M100 500h100v100H100z"/><path fill="#b2b6ce" d="M200 500h100v100H200z"/><path fill="#8589a5" d="M300 500h100v100H300z"/><path fill="#8d91ae" d="M400 500h100v100H400z"/><path fill="#b0aab7" d="M500 500h100v100H500z"/><path fill="#706364" d="M600 500h100v100H600z"/><path fill="#969ab5" d="M700 500h100v100H700z"/><path fill="#c5c7df" d="M0 600h100v100H0zm100 0h100v100H100z"/><path fill="#c6c8df" d="M200 600h100v100H200z"/><path fill="#c4c6de" d="M300 600h100v100H300z"/><path fill="#c3c5db" d="M400 600h100v100H400z"/><path fill="#c4c7e0" d="M500 600h100v100H500z"/><path fill="#c1c3db" d="M600 600h100v100H600z"/><path fill="#c7c5dc" d="M700 600h100v100H700z"/><path fill="#c7cae0" d="M0 700h100v100H0z"/><path fill="#c6c8df" d="M100 700h100v100H100z"/><path fill="#c8c9e0" d="M200 700h100v100H200z"/><path fill="#cacbe2" d="M300 700h100v100H300z"/><path fill="#c9cae1" d="M400 700h100v100H400z"/><path fill="#c9cae0" d="M500 700h100v100H500z"/><path fill="#cdcce3" d="M600 700h100v100H600z"/><path fill="#cecce2" d="M700 700h100v100H700z"/></svg>