<svg xmlns="http://www.w3.org/2000/svg" viewBox="0 0 800 500"><defs/><path fill="#734c39" d="M0 0h100v100H0z"/><path fill="#9b8e8c" d="M100 0h100v100H100z"/><path fill="#9e9696" d="M200 0h100v100H200z"/><path fill="#a69a9a" d="M300 0h100v100H300z"/><path fill="#a59da1" d="M400 0h100v100H400z"/><path fill="#a09ea0" d="M500 0h100v100H500z"/><path fill="#a4a6ac" d="M600 0h100v100H600z"/><path fill="#927d6c" d="M700 0h100v100H700z"/><path fill="#7d4c31" d="M0 100h100v100H0z"/><path fill="#9b8882" d="M100 100h100v100H100z"/><path fill="#a19593" d="M200 100h100v100H200z"/><path fill="#9a9a93" d="M300 100h100v100H300z"/><path fill="#939e92" d="M400 100h100v100H400z"/><path fill="#9e9897" d="M500 100h100v100H500z"/><path fill="#afa7a7" d="M600 100h100v100H600z"/><path fill="#9a8777" d="M700 100h100v100H700z"/><path fill="#80563d" d="M0 200h100v100H0z"/><path fill="#9a8f8c" d="M100 200h100v100H100z"/><path fill="#a0897c" d="M200 200h100v100H200z"/><path fill="#8e8e84" d="M300 200h100v100H300z"/><path fill="#869288" d="M400 200h100v100H400z"/><path fill="#9b969b" d="M500 200h100v100H500z"/><path fill="#a79e9e" d="M600 200h100v100H600z"/><path fill="#998576" d="M700 200h100v100H700z"/><path fill="#855e4c" d="M0 300h100v100H0z"/><path fill="#9e9a91" d="M100 300h100v100H100z"/><path fill="#96875d" d="M200 300h100v100H200z"/><path fill="#9b8f77" d="M300 300h100v100H300z"/><path fill="#a19870" d="M400 300h100v100H400z"/><path fill="#a09c6c" d="M500 300h100v100H500z"/><path fill="#9a9884" d="M600 300h100v100H600z"/><path fill="#998370" d="M700 300h100v100H700z"/><path fill="#86684f" d="M0 400h100v100H0z"/><path fill="#a5a365" d="M100 400h100v100H100z"/><path fill="#969357" d="M200 400h100v100H200z"/><path fill="#969564" d="M300 400h100v100H300z"/><path fill="#9b9c58" d="M400 400h100v100H400z"/><path fill="#9fa159" d="M500 400h100v100H500z"/><path fill="#949c70" d="M600 400h100v100H600z"/><path fill="#938560" d="M700 400h100v100H700z"/></svg>