<svg xmlns="http://www.w3.org/2000/svg" viewBox="0 0 800 400"><defs/><path fill="#ebebeb" d="M0 0h100v100H0z"/><path fill="#ccc" d="M100 0h100v100H100z"/><path fill="#f1f0f0" d="M200 0h100v100H200z"/><path fill="#fefcfb" d="M300 0h100v100H300z"/><path fill="#faf8f6" d="M400 0h100v100H400z"/><path fill="#fbf9f8" d="M500 0h100v100H500z"/><path fill="#f6f5f5" d="M600 0h100v100H600z"/><path fill="#ececec" d="M700 0h100v100H700z"/><path fill="#e5e5e7" d="M0 100h100v100H0z"/><path fill="#c4c2bb" d="M100 100h100v100H100z"/><path fill="#dadfd5" d="M200 100h100v100H200z"/><path fill="#d0dfeb" d="M300 100h100v100H300z"/><path fill="#c8dae6" d="M400 100h100v100H400z"/><path fill="#c8dbe6" d="M500 100h100v100H500z"/><path fill="#ebf2f7" d="M600 100h100v100H600z"/><path fill="#f6f5f6" d="M700 100h100v100H700z"/><path fill="#d0d1d2" d="M0 200h100v100H0z"/><path fill="#b1b1b1" d="M100 200h100v100H100z"/><path fill="#b4b8ba" d="M200 200h100v100H200z"/><path fill="#bbb6b5" d="M300 200h100v100H300z"/><path fill="#afb6bd" d="M400 200h100v100H400z"/><path fill="#b9bcc1" d="M500 200h100v100H500z"/><path fill="#d2d2ce" d="M600 200h100v100H600z"/><path fill="#f0ebe4" d="M700 200h100v100H700z"/><path fill="#c5c3c1" d="M0 300h100v100H0z"/><path fill="#c5afa6" d="M100 300h100v100H100z"/><path fill="#dbb4a3" d="M200 300h100v100H200z"/><path fill="#dfc0b0" d="M300 300h100v100H300z"/><path fill="#dfb6a3" d="M400 300h100v100H400z"/><path fill="#dfb3a1" d="M500 300h100v100H500z"/><path fill="#d7b49b" d="M600 300h100v100H600z"/><path fill="#d9c2ac" d="M700 300h100v100H700z"/></svg>