<svg xmlns="http://www.w3.org/2000/svg" viewBox="0 0 800 500"><defs/><path fill="#afa7a3" d="M0 0h100v100H0z"/><path fill="#a5b8a2" d="M100 0h100v100H100z"/><path fill="#bfc2b8" d="M200 0h100v100H200z"/><path fill="#d3ccc7" d="M300 0h100v100H300z"/><path fill="#d8d4d0" d="M400 0h100v100H400z"/><path fill="#d6ccc5" d="M500 0h100v100H500z"/><path fill="#dfd5cf" d="M600 0h100v100H600z"/><path fill="#bfb3ad" d="M700 0h100v100H700z"/><path fill="#b7b0a1" d="M0 100h100v100H0z"/><path fill="#6e976d" d="M100 100h100v100H100z"/><path fill="#ceccc1" d="M200 100h100v100H200z"/><path fill="#b2b5b4" d="M300 100h100v100H300z"/><path fill="#aeb2a9" d="M400 100h100v100H400z"/><path fill="#b2b29b" d="M500 100h100v100H500z"/><path fill="#c9c6be" d="M600 100h100v100H600z"/><path fill="#c3b4ab" d="M700 100h100v100H700z"/><path fill="#b0b393" d="M0 200h100v100H0z"/><path fill="#769b71" d="M100 200h100v100H100z"/><path fill="#cdc7b6" d="M200 200h100v100H200z"/><path fill="#bcbaae" d="M300 200h100v100H300z"/><path fill="#aeada6" d="M400 200h100v100H400z"/><path fill="#a6b497" d="M500 200h100v100H500z"/><path fill="#aab299" d="M600 200h100v100H600z"/><path fill="#c8b7af" d="M700 200h100v100H700z"/><path fill="#8e8670" d="M0 300h100v100H0z"/><path fill="#51794c" d="M100 300h100v100H100z"/><path fill="#5e9851" d="M200 300h100v100H200z"/><path fill="#538d62" d="M300 300h100v100H300z"/><path fill="#539065" d="M400 300h100v100H400z"/><path fill="#5a8d4f" d="M500 300h100v100H500z"/><path fill="#578345" d="M600 300h100v100H600z"/><path fill="#aab498" d="M700 300h100v100H700z"/><path fill="#858569" d="M0 400h100v100H0z"/><path fill="#728f5f" d="M100 400h100v100H100z"/><path fill="#80a86b" d="M200 400h100v100H200z"/><path fill="#83a76c" d="M300 400h100v100H300z"/><path fill="#80a66b" d="M400 400h100v100H400z"/><path fill="#769f6a" d="M500 400h100v100H500z"/><path fill="#679460" d="M600 400h100v100H600z"/><path fill="#7f9774" d="M700 400h100v100H700z"/></svg>