<svg xmlns="http://www.w3.org/2000/svg" viewBox="0 0 800 700"><defs/><path fill="#ccccca" d="M0 0h100v100H0z"/><path fill="#9e9e9b" d="M100 0h100v100H100z"/><path fill="#a6a7a1" d="M200 0h100v100H200z"/><path fill="#989893" d="M300 0h100v100H300z"/><path fill="#dbdbac" d="M400 0h100v100H400z"/><path fill="#ffffbe" d="M500 0h100v100H500z"/><path fill="#fbfcb4" d="M600 0h100v100H600z"/><path fill="#fefddc" d="M700 0h100v100H700z"/><path fill="#baba93" d="M0 100h100v100H0z"/><path fill="#848400" d="M100 100h100v100H100z"/><path fill="#959503" d="M200 100h100v100H200z"/><path fill="#868600" d="M300 100h100v100H300z"/><path fill="#d5d400" d="M400 100h100v100H400z"/><path fill="#ffff05" d="M500 100h100v100H500z"/><path fill="#fdfd00" d="M600 100h100v100H600z"/><path fill="#ffff83" d="M700 100h100v100H700z"/><path fill="#ffb" d="M0 200h100v100H0z"/><path fill="#ebeb00" d="M100 200h100v100H100z"/><path fill="#f2f206" d="M200 200h100v100H200z"/><path fill="#eeed06" d="M300 200h100v100H300z"/><path fill="#e7e706" d="M400 200h100v100H400z"/><path fill="#d7d70b" d="M500 200h100v100H500z"/><path fill="#dfdf00" d="M600 200h100v100H600z"/><path fill="#f3f379" d="M700 200h100v100H700z"/><path fill="#ffffb8" d="M0 300h100v100H0z"/><path fill="#9c9c05" d="M100 300h100v100H100z"/><path fill="#606014" d="M200 300h100v100H200z"/><path fill="#605f12" d="M300 300h100v100H300z"/><path fill="#717110" d="M400 300h100v100H400z"/><path fill="#606113" d="M500 300h100v100H500z"/><path fill="#5f5f05" d="M600 300h100v100H600z"/><path fill="#919154" d="M700 300h100v100H700z"/><path fill="#ffffb9" d="M0 400h100v100H0z"/><path fill="#eaeb01" d="M100 400h100v100H100z"/><path fill="#b0b010" d="M200 400h100v100H200z"/><path fill="#b0b00e" d="M300 400h100v100H300z"/><path fill="#b9b80d" d="M400 400h100v100H400z"/><path fill="#b5b511" d="M500 400h100v100H500z"/><path fill="#a7a700" d="M600 400h100v100H600z"/><path fill="#bbbb70" d="M700 400h100v100H700z"/><path fill="#ffffb6" d="M0 500h100v100H0z"/><path fill="#fcfd00" d="M100 500h100v100H100z"/><path fill="#fdfc01" d="M200 500h100v100H200z"/><path fill="#fefe00" d="M300 500h100v100H300z"/><path fill="#fdfc00" d="M400 500h100v100H400z"/><path fill="#fefe04" d="M500 500h100v100H500z"/><path fill="#ff0" d="M600 500h100v100H600z"/><path fill="#ffff83" d="M700 500h100v100H700z"/><path fill="#ffffe1" d="M0 600h100v100H0z"/><path fill="#fbfd91" d="M100 600h100v100H100z"/><path fill="#f7f797" d="M200 600h100v100H200z"/><path fill="#f7f897" d="M300 600h100v100H300zm100 0h100v100H400z"/><path fill="#f7f898" d="M500 600h100v100H500z"/><path fill="#f7f78f" d="M600 600h100v100H600z"/><path fill="#fcfcc9" d="M700 600h100v100H700z"/></svg>