<svg xmlns="http://www.w3.org/2000/svg" viewBox="0 0 800 400"><defs/><path fill="#715f6f" d="M0 0h100v100H0z"/><path fill="#756577" d="M100 0h100v100H100z"/><path fill="#7a7882" d="M200 0h100v100H200z"/><path fill="#8d8e8a" d="M300 0h100v100H300z"/><path fill="#6c606e" d="M400 0h100v100H400z"/><path fill="#716871" d="M500 0h100v100H500z"/><path fill="#868682" d="M600 0h100v100H600z"/><path fill="#7f7b8b" d="M700 0h100v100H700z"/><path fill="#776271" d="M0 100h100v100H0z"/><path fill="#594669" d="M100 100h100v100H100z"/><path fill="#281653" d="M200 100h100v100H200z"/><path fill="#665770" d="M300 100h100v100H300z"/><path fill="#877d7b" d="M400 100h100v100H400z"/><path fill="#918273" d="M500 100h100v100H500z"/><path fill="#77656a" d="M600 100h100v100H600z"/><path fill="#7c7086" d="M700 100h100v100H700z"/><path fill="#7b6d7c" d="M0 200h100v100H0z"/><path fill="#6c5169" d="M100 200h100v100H100z"/><path fill="#58385b" d="M200 200h100v100H200z"/><path fill="#675467" d="M300 200h100v100H300z"/><path fill="#8d8177" d="M400 200h100v100H400z"/><path fill="#7c7d7a" d="M500 200h100v100H500z"/><path fill="#645972" d="M600 200h100v100H600z"/><path fill="#717792" d="M700 200h100v100H700z"/><path fill="#7b6574" d="M0 300h100v100H0z"/><path fill="#675166" d="M100 300h100v100H100z"/><path fill="#6f5969" d="M200 300h100v100H200z"/><path fill="#8a7877" d="M300 300h100v100H300z"/><path fill="#a09583" d="M400 300h100v100H400z"/><path fill="#7b8388" d="M500 300h100v100H500z"/><path fill="#586e88" d="M600 300h100v100H600z"/><path fill="#6d7a8d" d="M700 300h100v100H700z"/></svg>