<svg xmlns="http://www.w3.org/2000/svg" viewBox="0 0 800 500"><defs/><path fill="#a9a7a6" d="M0 0h100v100H0z"/><path fill="#b3ada9" d="M100 0h100v100H100z"/><path fill="#958f83" d="M200 0h100v100H200z"/><path fill="#bcb18c" d="M300 0h100v100H300z"/><path fill="#9d9780" d="M400 0h100v100H400z"/><path fill="#a79a81" d="M500 0h100v100H500z"/><path fill="#6b6966" d="M600 0h100v100H600z"/><path fill="#797b77" d="M700 0h100v100H700z"/><path fill="#928d8c" d="M0 100h100v100H0z"/><path fill="#827973" d="M100 100h100v100H100z"/><path fill="#878176" d="M200 100h100v100H200z"/><path fill="#b3a488" d="M300 100h100v100H300z"/><path fill="#8e7f6c" d="M400 100h100v100H400z"/><path fill="#ae9d83" d="M500 100h100v100H500z"/><path fill="#4f4c47" d="M600 100h100v100H600z"/><path fill="#676766" d="M700 100h100v100H700z"/><path fill="#8e8d8b" d="M0 200h100v100H0z"/><path fill="#716d6a" d="M100 200h100v100H100z"/><path fill="#757577" d="M200 200h100v100H200z"/><path fill="#696665" d="M300 200h100v100H300z"/><path fill="#80776b" d="M400 200h100v100H400z"/><path fill="#9e988d" d="M500 200h100v100H500z"/><path fill="#42423f" d="M600 200h100v100H600z"/><path fill="#696867" d="M700 200h100v100H700z"/><path fill="#888583" d="M0 300h100v100H0z"/><path fill="#5a5451" d="M100 300h100v100H100z"/><path fill="#5c5854" d="M200 300h100v100H200z"/><path fill="#7a746e" d="M300 300h100v100H300z"/><path fill="#7b766f" d="M400 300h100v100H400z"/><path fill="#595957" d="M500 300h100v100H500z"/><path fill="#21201e" d="M600 300h100v100H600z"/><path fill="#777877" d="M700 300h100v100H700z"/><path fill="#76726e" d="M0 400h100v100H0z"/><path fill="#443e38" d="M100 400h100v100H100z"/><path fill="#74716f" d="M200 400h100v100H200z"/><path fill="#77716d" d="M300 400h100v100H300z"/><path fill="#6e6a64" d="M400 400h100v100H400z"/><path fill="#807d7c" d="M500 400h100v100H500z"/><path fill="#5f5751" d="M600 400h100v100H600z"/><path fill="#959594" d="M700 400h100v100H700z"/></svg>