<svg xmlns="http://www.w3.org/2000/svg" viewBox="0 0 800 700"><defs/><path fill="#a0a0a0" d="M0 0h100v100H0z"/><path fill="#8b8b8b" d="M100 0h100v100H100z"/><path fill="#8f8f8f" d="M200 0h100v100H200z"/><path fill="#797979" d="M300 0h100v100H300z"/><path fill="#6a6a6a" d="M400 0h100v100H400z"/><path fill="#7a7a7a" d="M500 0h100v100H500z"/><path fill="#969696" d="M600 0h100v100H600z"/><path fill="#b1b1b1" d="M700 0h100v100H700z"/><path fill="#b3b3b3" d="M0 100h100v100H0z"/><path fill="#cacaca" d="M100 100h100v100H100z"/><path fill="#d5d5d5" d="M200 100h100v100H200z"/><path fill="#ccc" d="M300 100h100v100H300z"/><path fill="#dadada" d="M400 100h100v100H400z"/><path fill="#cecece" d="M500 100h100v100H500z"/><path fill="#cfcfcf" d="M600 100h100v100H600z"/><path fill="#d8d8d8" d="M700 100h100v100H700z"/><path fill="#939393" d="M0 200h100v100H0z"/><path fill="#a6a6a6" d="M100 200h100v100H100z"/><path fill="#9d9d9d" d="M200 200h100v100H200z"/><path fill="#b0b0b0" d="M300 200h100v100H300z"/><path fill="#bfbfbf" d="M400 200h100v100H400z"/><path fill="#a9a9a9" d="M500 200h100v100H500z"/><path fill="#b2b2b2" d="M600 200h100v100H600z"/><path fill="#adadad" d="M700 200h100v100H700z"/><path fill="#909090" d="M0 300h100v100H0z"/><path fill="#a0a0a0" d="M100 300h100v100H100z"/><path fill="#757575" d="M200 300h100v100H200z"/><path fill="#a9a9a9" d="M300 300h100v100H300z"/><path fill="#797979" d="M400 300h100v100H400z"/><path fill="#adadad" d="M500 300h100v100H500z"/><path fill="#9f9f9f" d="M600 300h100v100H600z"/><path fill="#a5a5a5" d="M700 300h100v100H700z"/><path fill="#8c8c8c" d="M0 400h100v100H0z"/><path fill="#ababab" d="M100 400h100v100H100z"/><path fill="#a1a1a1" d="M200 400h100v100H200z"/><path fill="#a4a4a4" d="M300 400h100v100H300z"/><path fill="#b7b7b7" d="M400 400h100v100H400z"/><path fill="#a8a8a8" d="M500 400h100v100H500z"/><path fill="#a1a1a1" d="M600 400h100v100H600z"/><path fill="#a0a0a0" d="M700 400h100v100H700z"/><path fill="#acacac" d="M0 500h100v100H0z"/><path fill="#c4c4c4" d="M100 500h100v100H100z"/><path fill="#cecece" d="M200 500h100v100H200z"/><path fill="#c7c7c7" d="M300 500h100v100H300z"/><path fill="#c3c3c3" d="M400 500h100v100H400z"/><path fill="#c1c1c1" d="M500 500h100v100H500z"/><path fill="#bfbfbf" d="M600 500h100v100H600z"/><path fill="#aaa" d="M700 500h100v100H700z"/><path fill="#898989" d="M0 600h100v100H0z"/><path fill="#8b8b8b" d="M100 600h100v100H100z"/><path fill="#939393" d="M200 600h100v100H200z"/><path fill="#9a9a9a" d="M300 600h100v100H300zm100 0h100v100H400z"/><path fill="#9d9d9d" d="M500 600h100v100H500z"/><path fill="#909090" d="M600 600h100v100H600z"/><path fill="#858585" d="M700 600h100v100H700z"/></svg>