<svg xmlns="http://www.w3.org/2000/svg" viewBox="0 0 800 600"><defs/><path fill="#fff" d="M0 0h100v100H0zm100 0h100v100H100zm100 0h100v100H200z"/><path fill="#fdfefd" d="M300 0h100v100H300z"/><path fill="#fdfffe" d="M400 0h100v100H400z"/><path fill="#fdfcfc" d="M500 0h100v100H500z"/><path fill="#fefdfd" d="M600 0h100v100H600z"/><path fill="#fff" d="M700 0h100v100H700z"/><path fill="#fdfdfe" d="M0 100h100v100H0z"/><path fill="#f0fafa" d="M100 100h100v100H100z"/><path fill="#f4faf4" d="M200 100h100v100H200z"/><path fill="#fbfbfa" d="M300 100h100v100H300z"/><path fill="#f8f8fb" d="M400 100h100v100H400z"/><path fill="#f6fafa" d="M500 100h100v100H500z"/><path fill="#f8fcf9" d="M600 100h100v100H600z"/><path fill="#f8fcfc" d="M700 100h100v100H700z"/><path fill="#faf8fa" d="M0 200h100v100H0z"/><path fill="#e4f4f3" d="M100 200h100v100H100z"/><path fill="#f5fdf8" d="M200 200h100v100H200z"/><path fill="#fefaf8" d="M300 200h100v100H300z"/><path fill="#faf4f3" d="M400 200h100v100H400z"/><path fill="#faf8f5" d="M500 200h100v100H500z"/><path fill="#f4f7f5" d="M600 200h100v100H600z"/><path fill="#f4f7f8" d="M700 200h100v100H700z"/><path fill="#fbfefe" d="M0 300h100v100H0z"/><path fill="#e6f9f5" d="M100 300h100v100H100z"/><path fill="#effaf9" d="M200 300h100v100H200z"/><path fill="#fcfaf9" d="M300 300h100v100H300z"/><path fill="#fafbf7" d="M400 300h100v100H400z"/><path fill="#fafbf9" d="M500 300h100v100H500z"/><path fill="#f2f7f7" d="M600 300h100v100H600z"/><path fill="#f8f8f6" d="M700 300h100v100H700z"/><path fill="#f6fdfc" d="M0 400h100v100H0z"/><path fill="#e5f8f6" d="M100 400h100v100H100z"/><path fill="#f8fcfb" d="M200 400h100v100H200z"/><path fill="#fbfdfc" d="M300 400h100v100H300z"/><path fill="#f9fbfb" d="M400 400h100v100H400z"/><path fill="#fbfefc" d="M500 400h100v100H500z"/><path fill="#f9fcfb" d="M600 400h100v100H600z"/><path fill="#f5fbfb" d="M700 400h100v100H700z"/><path fill="#fcfefe" d="M0 500h100v100H0z"/><path fill="#fafefd" d="M100 500h100v100H100z"/><path fill="#fdfffe" d="M200 500h100v100H200z"/><path fill="#fcfefe" d="M300 500h100v100H300z"/><path fill="#fdfffe" d="M400 500h100v100H400z"/><path fill="#fcfefe" d="M500 500h100v100H500zm100 0h100v100H600z"/><path fill="#fbfefd" d="M700 500h100v100H700z"/></svg>