<svg xmlns="http://www.w3.org/2000/svg" viewBox="0 0 800 600"><defs/><path fill="#ad9d90" d="M0 0h100v100H0z"/><path fill="#a18c84" d="M100 0h100v100H100z"/><path fill="#ada9aa" d="M200 0h100v100H200z"/><path fill="#c3c3c4" d="M300 0h100v100H300z"/><path fill="#c0b9b3" d="M400 0h100v100H400z"/><path fill="#c9c6b6" d="M500 0h100v100H500z"/><path fill="#cdcbbf" d="M600 0h100v100H600z"/><path fill="#c8c6be" d="M700 0h100v100H700z"/><path fill="#9e8c72" d="M0 100h100v100H0z"/><path fill="#876851" d="M100 100h100v100H100z"/><path fill="#93919b" d="M200 100h100v100H200z"/><path fill="#b6afa4" d="M300 100h100v100H300z"/><path fill="#b5a697" d="M400 100h100v100H400z"/><path fill="#ab9d84" d="M500 100h100v100H500z"/><path fill="#afad91" d="M600 100h100v100H600z"/><path fill="#b5b4a3" d="M700 100h100v100H700z"/><path fill="#988c75" d="M0 200h100v100H0z"/><path fill="#93755f" d="M100 200h100v100H100z"/><path fill="#a29f8a" d="M200 200h100v100H200z"/><path fill="#9c9988" d="M300 200h100v100H300z"/><path fill="#a7908b" d="M400 200h100v100H400z"/><path fill="#a2988b" d="M500 200h100v100H500z"/><path fill="#a28e84" d="M600 200h100v100H600z"/><path fill="#afa397" d="M700 200h100v100H700z"/><path fill="#a29378" d="M0 300h100v100H0z"/><path fill="#816551" d="M100 300h100v100H100z"/><path fill="#8c7e6a" d="M200 300h100v100H200z"/><path fill="#a17f75" d="M300 300h100v100H300z"/><path fill="#9a8178" d="M400 300h100v100H400z"/><path fill="#938b7e" d="M500 300h100v100H500z"/><path fill="#948679" d="M600 300h100v100H600z"/><path fill="#ac9484" d="M700 300h100v100H700z"/><path fill="#9d8f7a" d="M0 400h100v100H0z"/><path fill="#796152" d="M100 400h100v100H100z"/><path fill="#8c7a78" d="M200 400h100v100H200z"/><path fill="#a1827d" d="M300 400h100v100H300z"/><path fill="#9d8976" d="M400 400h100v100H400z"/><path fill="#a29374" d="M500 400h100v100H500z"/><path fill="#a58972" d="M600 400h100v100H600z"/><path fill="#a79e93" d="M700 400h100v100H700z"/><path fill="#a59e96" d="M0 500h100v100H0z"/><path fill="#a09992" d="M100 500h100v100H100z"/><path fill="#a09691" d="M200 500h100v100H200z"/><path fill="#a39c99" d="M300 500h100v100H300z"/><path fill="#a8a8ab" d="M400 500h100v100H400z"/><path fill="#adaeae" d="M500 500h100v100H500z"/><path fill="#aeb1b6" d="M600 500h100v100H600z"/><path fill="#bac2c8" d="M700 500h100v100H700z"/></svg>