<svg xmlns="http://www.w3.org/2000/svg" viewBox="0 0 800 1400"><defs/><path fill="#3f3d3e" d="M0 0h100v100H0z"/><path fill="#4d4d4d" d="M100 0h100v100H100z"/><path fill="#414040" d="M200 0h100v100H200z"/><path fill="#363535" d="M300 0h100v100H300z"/><path fill="#333" d="M400 0h100v100H400z"/><path fill="#3e3d3e" d="M500 0h100v100H500z"/><path fill="#424041" d="M600 0h100v100H600z"/><path fill="#434141" d="M700 0h100v100H700z"/><path fill="#5a6a7f" d="M0 100h100v100H0z"/><path fill="#5e7083" d="M100 100h100v100H100z"/><path fill="#607289" d="M200 100h100v100H200z"/><path fill="#5d7086" d="M300 100h100v100H300z"/><path fill="#5c6d80" d="M400 100h100v100H400z"/><path fill="#58687c" d="M500 100h100v100H500z"/><path fill="#5a697d" d="M600 100h100v100H600z"/><path fill="#58677c" d="M700 100h100v100H700z"/><path fill="#77a6dc" d="M0 200h100v100H0z"/><path fill="#7ca9dd" d="M100 200h100v100H100z"/><path fill="#90b3de" d="M200 200h100v100H200z"/><path fill="#92b5de" d="M300 200h100v100H300z"/><path fill="#83afe3" d="M400 200h100v100H400z"/><path fill="#83b1e5" d="M500 200h100v100H500z"/><path fill="#82afe4" d="M600 200h100v100H600z"/><path fill="#74a5e1" d="M700 200h100v100H700z"/><path fill="#abc3dd" d="M0 300h100v100H0z"/><path fill="#d4dde3" d="M100 300h100v100H100z"/><path fill="#e0e2e2" d="M200 300h100v100H200z"/><path fill="#c5d1e0" d="M300 300h100v100H300z"/><path fill="#b8cde4" d="M400 300h100v100H400z"/><path fill="#e3ebf2" d="M500 300h100v100H500z"/><path fill="#dde7f1" d="M600 300h100v100H600z"/><path fill="#d3dfed" d="M700 300h100v100H700z"/><path fill="#cfdff4" d="M0 400h100v100H0z"/><path fill="#fff9de" d="M100 400h100v100H100z"/><path fill="#f9e9c6" d="M200 400h100v100H200z"/><path fill="#d0d9e5" d="M300 400h100v100H300z"/><path fill="#cddded" d="M400 400h100v100H400z"/><path fill="#fffffb" d="M500 400h100v100H500z"/><path fill="#fdf9f5" d="M600 400h100v100H600z"/><path fill="#f5f3f1" d="M700 400h100v100H700z"/><path fill="#96b4db" d="M0 500h100v100H0z"/><path fill="#a5c0d8" d="M100 500h100v100H100z"/><path fill="#9ebad0" d="M200 500h100v100H200z"/><path fill="#96b2d6" d="M300 500h100v100H300z"/><path fill="#abc4e2" d="M400 500h100v100H400z"/><path fill="#c9d8eb" d="M500 500h100v100H500z"/><path fill="#c0d0e4" d="M600 500h100v100H600z"/><path fill="#b8cce2" d="M700 500h100v100H700z"/><path fill="#9ab6d9" d="M0 600h100v100H0z"/><path fill="#b2c6df" d="M100 600h100v100H100z"/><path fill="#b7c9e0" d="M200 600h100v100H200z"/><path fill="#b8cae0" d="M300 600h100v100H300z"/><path fill="#b6c7de" d="M400 600h100v100H400z"/><path fill="#b1c4dc" d="M500 600h100v100H500z"/><path fill="#b8cadf" d="M600 600h100v100H600z"/><path fill="#a5bdda" d="M700 600h100v100H700z"/><path fill="#92aec7" d="M0 700h100v100H0z"/><path fill="#a8bed3" d="M100 700h100v100H100z"/><path fill="#9eb8d5" d="M200 700h100v100H200z"/><path fill="#9ab5c5" d="M300 700h100v100H300z"/><path fill="#a9c0dd" d="M400 700h100v100H400z"/><path fill="#a1bad4" d="M500 700h100v100H500z"/><path fill="#abc0d5" d="M600 700h100v100H600z"/><path fill="#9db8d9" d="M700 700h100v100H700z"/><path fill="#b8cde5" d="M0 800h100v100H0z"/><path fill="#bbcee4" d="M100 800h100v100H100z"/><path fill="#bccfe6" d="M200 800h100v100H200z"/><path fill="#bdd0e5" d="M300 800h100v100H300z"/><path fill="#bdd0e6" d="M400 800h100v100H400z"/><path fill="#bccfe6" d="M500 800h100v100H500z"/><path fill="#bed0e7" d="M600 800h100v100H600z"/><path fill="#bccfe6" d="M700 800h100v100H700z"/><path fill="#fdfcf5" d="M0 900h100v100H0z"/><path fill="#fbfbf4" d="M100 900h100v100H100z"/><path fill="#f9f8f2" d="M200 900h100v100H200z"/><path fill="#fffffd" d="M300 900h100v100H300z"/><path fill="#fffefb" d="M400 900h100v100H400z"/><path fill="#fffef9" d="M500 900h100v100H500z"/><path fill="#fffef7" d="M600 900h100v100H600z"/><path fill="#fffffb" d="M700 900h100v100H700z"/><path fill="#e2e0e6" d="M0 1000h100v100H0z"/><path fill="#d2d2dd" d="M100 1000h100v100H100z"/><path fill="#f5f3ec" d="M200 1000h100v100H200z"/><path fill="#faf8f7" d="M300 1000h100v100H300z"/><path fill="#d1d9e0" d="M400 1000h100v100H400z"/><path fill="#dbdedf" d="M500 1000h100v100H500z"/><path fill="#eeece5" d="M600 1000h100v100H600z"/><path fill="#ebeceb" d="M700 1000h100v100H700z"/><path fill="#dfdfee" d="M0 1100h100v100H0z"/><path fill="#d6d9e9" d="M100 1100h100v100H100z"/><path fill="#f8faf9" d="M200 1100h100v100H200z"/><path fill="#fff" d="M300 1100h100v100H300z"/><path fill="#e2e8ee" d="M400 1100h100v100H400z"/><path fill="#eaecef" d="M500 1100h100v100H500z"/><path fill="#fcf9f8" d="M600 1100h100v100H600z"/><path fill="#f2f3f5" d="M700 1100h100v100H700z"/><path fill="#dde8ef" d="M0 1200h100v100H0z"/><path fill="#d0dce4" d="M100 1200h100v100H100z"/><path fill="#d1dde8" d="M200 1200h100v100H200z"/><path fill="#ced7de" d="M300 1200h100v100H300z"/><path fill="#d3dae4" d="M400 1200h100v100H400z"/><path fill="#d1dbe9" d="M500 1200h100v100H500z"/><path fill="#ccd7e3" d="M600 1200h100v100H600z"/><path fill="#d7dfe9" d="M700 1200h100v100H700z"/><path fill="#252a30" d="M0 1300h100v100H0z"/><path fill="#2c3237" d="M100 1300h100v100H100z"/><path fill="#292e33" d="M200 1300h100v100H200z"/><path fill="#22282b" d="M300 1300h100v100H300z"/><path fill="#2d333b" d="M400 1300h100v100H400z"/><path fill="#19222c" d="M500 1300h100v100H500z"/><path fill="#2b333c" d="M600 1300h100v100H600z"/><path fill="#1c232c" d="M700 1300h100v100H700z"/></svg>