<svg xmlns="http://www.w3.org/2000/svg" viewBox="0 0 800 600"><defs/><path fill="#5d534b" d="M0 0h100v100H0z"/><path fill="#7f695f" d="M100 0h100v100H100z"/><path fill="#9f887c" d="M200 0h100v100H200z"/><path fill="#a49085" d="M300 0h100v100H300z"/><path fill="#b9958a" d="M400 0h100v100H400z"/><path fill="#b18570" d="M500 0h100v100H500z"/><path fill="#a87052" d="M600 0h100v100H600z"/><path fill="#675f54" d="M700 0h100v100H700z"/><path fill="#4c5252" d="M0 100h100v100H0z"/><path fill="#8c634f" d="M100 100h100v100H100z"/><path fill="#a27974" d="M200 100h100v100H200z"/><path fill="#8f797b" d="M300 100h100v100H300z"/><path fill="#af696f" d="M400 100h100v100H400z"/><path fill="#ac746b" d="M500 100h100v100H500z"/><path fill="#a17664" d="M600 100h100v100H600z"/><path fill="#58524b" d="M700 100h100v100H700z"/><path fill="#645f58" d="M0 200h100v100H0z"/><path fill="#977d66" d="M100 200h100v100H100z"/><path fill="#868191" d="M200 200h100v100H200z"/><path fill="#ad8e95" d="M300 200h100v100H300z"/><path fill="#bda556" d="M400 200h100v100H400z"/><path fill="#9f8f71" d="M500 200h100v100H500z"/><path fill="#865448" d="M600 200h100v100H600z"/><path fill="#434b4a" d="M700 200h100v100H700z"/><path fill="#806855" d="M0 300h100v100H0z"/><path fill="#836153" d="M100 300h100v100H100z"/><path fill="#4b4641" d="M200 300h100v100H200z"/><path fill="#897f74" d="M300 300h100v100H300z"/><path fill="#aaad7a" d="M400 300h100v100H400z"/><path fill="#8e8980" d="M500 300h100v100H500z"/><path fill="#744d3d" d="M600 300h100v100H600z"/><path fill="#3a4141" d="M700 300h100v100H700z"/><path fill="#9e603a" d="M0 400h100v100H0z"/><path fill="#592d23" d="M100 400h100v100H100z"/><path fill="#5d2821" d="M200 400h100v100H200z"/><path fill="#96584a" d="M300 400h100v100H300z"/><path fill="#7e6e6e" d="M400 400h100v100H400z"/><path fill="#896872" d="M500 400h100v100H500z"/><path fill="#7d5b47" d="M600 400h100v100H600z"/><path fill="#383d36" d="M700 400h100v100H700z"/><path fill="#896740" d="M0 500h100v100H0z"/><path fill="#433a2a" d="M100 500h100v100H100z"/><path fill="#624338" d="M200 500h100v100H200z"/><path fill="#875c4b" d="M300 500h100v100H300z"/><path fill="#8a7656" d="M400 500h100v100H400z"/><path fill="#957663" d="M500 500h100v100H500z"/><path fill="#756456" d="M600 500h100v100H600z"/><path fill="#52563e" d="M700 500h100v100H700z"/></svg>