<svg xmlns="http://www.w3.org/2000/svg" viewBox="0 0 800 400"><defs/><path fill="#858a84" d="M0 0h100v100H0z"/><path fill="#6f716e" d="M100 0h100v100H100z"/><path fill="#474647" d="M200 0h100v100H200z"/><path fill="#373737" d="M300 0h100v100H300z"/><path fill="#252525" d="M400 0h100v100H400z"/><path fill="#404040" d="M500 0h100v100H500z"/><path fill="#353535" d="M600 0h100v100H600z"/><path fill="#656964" d="M700 0h100v100H700z"/><path fill="#878e87" d="M0 100h100v100H0z"/><path fill="#707270" d="M100 100h100v100H100z"/><path fill="#585859" d="M200 100h100v100H200z"/><path fill="#474747" d="M300 100h100v100H300z"/><path fill="#282829" d="M400 100h100v100H400z"/><path fill="#535353" d="M500 100h100v100H500z"/><path fill="#474847" d="M600 100h100v100H600z"/><path fill="#898c88" d="M700 100h100v100H700z"/><path fill="#8f958f" d="M0 200h100v100H0z"/><path fill="#6d6f6b" d="M100 200h100v100H100z"/><path fill="#3e3d3c" d="M200 200h100v100H200z"/><path fill="#41403f" d="M300 200h100v100H300z"/><path fill="#4f4f4d" d="M400 200h100v100H400z"/><path fill="#3f3e3d" d="M500 200h100v100H500z"/><path fill="#3b3836" d="M600 200h100v100H600z"/><path fill="#777a75" d="M700 200h100v100H700z"/><path fill="#747570" d="M0 300h100v100H0z"/><path fill="#504c47" d="M100 300h100v100H100z"/><path fill="#4a4541" d="M200 300h100v100H200z"/><path fill="#45413c" d="M300 300h100v100H300z"/><path fill="#494643" d="M400 300h100v100H400z"/><path fill="#494541" d="M500 300h100v100H500z"/><path fill="#453f3b" d="M600 300h100v100H600z"/><path fill="#54514d" d="M700 300h100v100H700z"/></svg>