<svg xmlns="http://www.w3.org/2000/svg" viewBox="0 0 800 500"><defs/><path fill="#f2edea" d="M0 0h100v100H0z"/><path fill="#e4bb99" d="M100 0h100v100H100z"/><path fill="#c6c3d7" d="M200 0h100v100H200z"/><path fill="#a68dae" d="M300 0h100v100H300z"/><path fill="#9980a9" d="M400 0h100v100H400z"/><path fill="#bdbbd5" d="M500 0h100v100H500z"/><path fill="#fff" d="M600 0h100v100H600z"/><path fill="#f3f2f3" d="M700 0h100v100H700z"/><path fill="#eeddd2" d="M0 100h100v100H0z"/><path fill="#eabe99" d="M100 100h100v100H100z"/><path fill="#c4c3e1" d="M200 100h100v100H200z"/><path fill="#7865a4" d="M300 100h100v100H300z"/><path fill="#7866a9" d="M400 100h100v100H400z"/><path fill="#bcb9db" d="M500 100h100v100H500z"/><path fill="#fff" d="M600 100h100v100H600z"/><path fill="#f6f6f7" d="M700 100h100v100H700z"/><path fill="#e7c7b1" d="M0 200h100v100H0z"/><path fill="#d6b6a1" d="M100 200h100v100H100z"/><path fill="#f1f5f8" d="M200 200h100v100H200z"/><path fill="#d5d5dd" d="M300 200h100v100H300z"/><path fill="#bbbcc3" d="M400 200h100v100H400z"/><path fill="#dfdddc" d="M500 200h100v100H500z"/><path fill="#f8f7f8" d="M600 200h100v100H600z"/><path fill="#f8f8f8" d="M700 200h100v100H700z"/><path fill="#e1bea5" d="M0 300h100v100H0z"/><path fill="#e5d1c3" d="M100 300h100v100H100z"/><path fill="#faffff" d="M200 300h100v100H200z"/><path fill="#e8e8e4" d="M300 300h100v100H300z"/><path fill="#a3a29f" d="M400 300h100v100H400z"/><path fill="#939392" d="M500 300h100v100H500z"/><path fill="#cecfce" d="M600 300h100v100H600z"/><path fill="#f6f6f6" d="M700 300h100v100H700z"/><path fill="#fafafa" d="M0 400h100v100H0z"/><path fill="#fdfefe" d="M100 400h100v100H100z"/><path fill="#fefefe" d="M200 400h100v100H200z"/><path fill="#f9f9f9" d="M300 400h100v100H300z"/><path fill="#eaeaea" d="M400 400h100v100H400z"/><path fill="#dbd8d8" d="M500 400h100v100H500z"/><path fill="#d5d0d1" d="M600 400h100v100H600z"/><path fill="#f9f9f9" d="M700 400h100v100H700z"/></svg>