<svg xmlns="http://www.w3.org/2000/svg" viewBox="0 0 800 600"><defs/><path fill="#534e48" d="M0 0h100v100H0z"/><path fill="#c9c1b8" d="M100 0h100v100H100z"/><path fill="#b4aea8" d="M200 0h100v100H200z"/><path fill="#b2ada9" d="M300 0h100v100H300z"/><path fill="#bcb7b3" d="M400 0h100v100H400z"/><path fill="#bfb9b5" d="M500 0h100v100H500z"/><path fill="#c6c0b9" d="M600 0h100v100H600z"/><path fill="#676560" d="M700 0h100v100H700z"/><path fill="#635e58" d="M0 100h100v100H0z"/><path fill="#d1cac2" d="M100 100h100v100H100z"/><path fill="#e0d8d1" d="M200 100h100v100H200z"/><path fill="#e5ded7" d="M300 100h100v100H300z"/><path fill="#ece5de" d="M400 100h100v100H400z"/><path fill="#ede6e0" d="M500 100h100v100H500z"/><path fill="#e9e1da" d="M600 100h100v100H600z"/><path fill="#c0b9b1" d="M700 100h100v100H700z"/><path fill="#69635d" d="M0 200h100v100H0z"/><path fill="#d4ccc4" d="M100 200h100v100H100z"/><path fill="#d3ccc4" d="M200 200h100v100H200z"/><path fill="#d9d2ca" d="M300 200h100v100H300z"/><path fill="#e4ddd5" d="M400 200h100v100H400z"/><path fill="#e6dfd7" d="M500 200h100v100H500z"/><path fill="#e4ddd7" d="M600 200h100v100H600z"/><path fill="#e1dad2" d="M700 200h100v100H700z"/><path fill="#736c67" d="M0 300h100v100H0z"/><path fill="#c2bab1" d="M100 300h100v100H100z"/><path fill="#7e7771" d="M200 300h100v100H200z"/><path fill="#6d6663" d="M300 300h100v100H300z"/><path fill="#aaa39d" d="M400 300h100v100H400z"/><path fill="#b3ada7" d="M500 300h100v100H500z"/><path fill="#9c9592" d="M600 300h100v100H600z"/><path fill="#b4aea8" d="M700 300h100v100H700z"/><path fill="#7e7972" d="M0 400h100v100H0z"/><path fill="#cfc6bd" d="M100 400h100v100H100z"/><path fill="#8d857d" d="M200 400h100v100H200z"/><path fill="#98908a" d="M300 400h100v100H300z"/><path fill="#cfc8c1" d="M400 400h100v100H400z"/><path fill="#ccc4be" d="M500 400h100v100H500z"/><path fill="#aba4a0" d="M600 400h100v100H600z"/><path fill="#b9b2ac" d="M700 400h100v100H700z"/><path fill="#6d6762" d="M0 500h100v100H0z"/><path fill="#a89e97" d="M100 500h100v100H100z"/><path fill="#c1b8af" d="M200 500h100v100H200z"/><path fill="#e9e2db" d="M300 500h100v100H300z"/><path fill="#e7e0da" d="M400 500h100v100H400z"/><path fill="#efe8e1" d="M500 500h100v100H500z"/><path fill="#b8b4ae" d="M600 500h100v100H600z"/><path fill="#888581" d="M700 500h100v100H700z"/></svg>