<svg xmlns="http://www.w3.org/2000/svg" viewBox="0 0 800 500"><defs/><path fill="#f1ebed" d="M0 0h100v100H0z"/><path fill="#dbd5d5" d="M100 0h100v100H100z"/><path fill="#d7cdce" d="M200 0h100v100H200z"/><path fill="#e5dddf" d="M300 0h100v100H300z"/><path fill="#ece6e8" d="M400 0h100v100H400z"/><path fill="#efeaeb" d="M500 0h100v100H500zm100 0h100v100H600z"/><path fill="#ecebec" d="M700 0h100v100H700z"/><path fill="#c9adb4" d="M0 100h100v100H0z"/><path fill="#55363d" d="M100 100h100v100H100z"/><path fill="#3a1f24" d="M200 100h100v100H200z"/><path fill="#756068" d="M300 100h100v100H300z"/><path fill="#c5b7b1" d="M400 100h100v100H400z"/><path fill="#e6e0cc" d="M500 100h100v100H500z"/><path fill="#e2e2ca" d="M600 100h100v100H600z"/><path fill="#ceccc0" d="M700 100h100v100H700z"/><path fill="#c0a5ac" d="M0 200h100v100H0z"/><path fill="#543f46" d="M100 200h100v100H100z"/><path fill="#473236" d="M200 200h100v100H200z"/><path fill="#a88f89" d="M300 200h100v100H300z"/><path fill="#e9dcc4" d="M400 200h100v100H400z"/><path fill="#d9cba8" d="M500 200h100v100H500z"/><path fill="#e9d8bf" d="M600 200h100v100H600z"/><path fill="#e2d1c6" d="M700 200h100v100H700z"/><path fill="#988085" d="M0 300h100v100H0z"/><path fill="#6d4040" d="M100 300h100v100H100z"/><path fill="#a45e51" d="M200 300h100v100H200z"/><path fill="#9e7668" d="M300 300h100v100H300z"/><path fill="#967968" d="M400 300h100v100H400z"/><path fill="#7e574a" d="M500 300h100v100H500z"/><path fill="#825a52" d="M600 300h100v100H600z"/><path fill="#77575e" d="M700 300h100v100H700z"/><path fill="#afa2a3" d="M0 400h100v100H0z"/><path fill="#9c8380" d="M100 400h100v100H100z"/><path fill="#ab8f8b" d="M200 400h100v100H200z"/><path fill="#9e8b8a" d="M300 400h100v100H300z"/><path fill="#9d8b8b" d="M400 400h100v100H400z"/><path fill="#9a8a8b" d="M500 400h100v100H500z"/><path fill="#887e82" d="M600 400h100v100H600z"/><path fill="#938687" d="M700 400h100v100H700z"/></svg>