<svg xmlns="http://www.w3.org/2000/svg" viewBox="0 0 800 1100"><defs/><path fill="#77685d" d="M0 0h100v100H0z"/><path fill="#938c83" d="M100 0h100v100H100z"/><path fill="#514c47" d="M200 0h100v100H200z"/><path fill="#69645d" d="M300 0h100v100H300z"/><path fill="#56554a" d="M400 0h100v100H400z"/><path fill="#625e53" d="M500 0h100v100H500z"/><path fill="#484238" d="M600 0h100v100H600z"/><path fill="#3d3c35" d="M700 0h100v100H700z"/><path fill="#c5b6b6" d="M0 100h100v100H0z"/><path fill="#beb2ab" d="M100 100h100v100H100z"/><path fill="#8d847e" d="M200 100h100v100H200z"/><path fill="#8a8985" d="M300 100h100v100H300z"/><path fill="#a49a8e" d="M400 100h100v100H400z"/><path fill="#aca591" d="M500 100h100v100H500z"/><path fill="#4b4e45" d="M600 100h100v100H600z"/><path fill="#141413" d="M700 100h100v100H700z"/><path fill="#8e8586" d="M0 200h100v100H0z"/><path fill="#666963" d="M100 200h100v100H100z"/><path fill="#ada795" d="M200 200h100v100H200z"/><path fill="#bebbb2" d="M300 200h100v100H300z"/><path fill="#c3c0af" d="M400 200h100v100H400z"/><path fill="#d2c7a7" d="M500 200h100v100H500z"/><path fill="#9f9f91" d="M600 200h100v100H600z"/><path fill="#3a3b3a" d="M700 200h100v100H700z"/><path fill="#ab536a" d="M0 300h100v100H0z"/><path fill="#7f545b" d="M100 300h100v100H100z"/><path fill="#a4b09f" d="M200 300h100v100H200z"/><path fill="#a9b7af" d="M300 300h100v100H300z"/><path fill="#96a091" d="M400 300h100v100H400z"/><path fill="#a29f82" d="M500 300h100v100H500z"/><path fill="#868b80" d="M600 300h100v100H600z"/><path fill="#51514b" d="M700 300h100v100H700z"/><path fill="#d3c0bd" d="M0 400h100v100H0z"/><path fill="#a89399" d="M100 400h100v100H100z"/><path fill="#b1b1a9" d="M200 400h100v100H200z"/><path fill="#c9c5b8" d="M300 400h100v100H300z"/><path fill="#adab9f" d="M400 400h100v100H400z"/><path fill="#818179" d="M500 400h100v100H500z"/><path fill="#94938f" d="M600 400h100v100H600z"/><path fill="#71706e" d="M700 400h100v100H700z"/><path fill="#e9ecef" d="M0 500h100v100H0z"/><path fill="#ebeff0" d="M100 500h100v100H100z"/><path fill="#e8e6e9" d="M200 500h100v100H200z"/><path fill="#e6e4e8" d="M300 500h100v100H300z"/><path fill="#e8e6e9" d="M400 500h100v100H400z"/><path fill="#cccacc" d="M500 500h100v100H500z"/><path fill="#b9b8b9" d="M600 500h100v100H600zm100 0h100v100H700z"/><path fill="#e8e9ed" d="M0 600h100v100H0z"/><path fill="#e0e1e5" d="M100 600h100v100H100z"/><path fill="#dfe0e2" d="M200 600h100v100H200z"/><path fill="#e4e3e6" d="M300 600h100v100H300z"/><path fill="#e3e1e4" d="M400 600h100v100H400z"/><path fill="#e7e5e6" d="M500 600h100v100H500z"/><path fill="#d8d6d9" d="M600 600h100v100H600z"/><path fill="#b2b1b3" d="M700 600h100v100H700z"/><path fill="#e4e5ea" d="M0 700h100v100H0z"/><path fill="#dedfe2" d="M100 700h100v100H100z"/><path fill="#e1e2e3" d="M200 700h100v100H200z"/><path fill="#e4e2e6" d="M300 700h100v100H300z"/><path fill="#e2e0e2" d="M400 700h100v100H400z"/><path fill="#dfdddf" d="M500 700h100v100H500z"/><path fill="#e6e4e6" d="M600 700h100v100H600z"/><path fill="#e8e6e8" d="M700 700h100v100H700z"/><path fill="#dedfe5" d="M0 800h100v100H0z"/><path fill="#dcdde1" d="M100 800h100v100H100z"/><path fill="#e0e0e3" d="M200 800h100v100H200z"/><path fill="#e1dfe2" d="M300 800h100v100H300z"/><path fill="#dfdddf" d="M400 800h100v100H400z"/><path fill="#dfdde0" d="M500 800h100v100H500z"/><path fill="#dedcdd" d="M600 800h100v100H600z"/><path fill="#dddbd9" d="M700 800h100v100H700z"/><path fill="#dfe0e4" d="M0 900h100v100H0z"/><path fill="#dedde1" d="M100 900h100v100H100z"/><path fill="#dfdde1" d="M200 900h100v100H200z"/><path fill="#dad8da" d="M300 900h100v100H300zm100 0h100v100H400z"/><path fill="#d9d9da" d="M500 900h100v100H500z"/><path fill="#d6d5d4" d="M600 900h100v100H600z"/><path fill="#d8d4d3" d="M700 900h100v100H700z"/><path fill="#dedde0" d="M0 1000h100v100H0z"/><path fill="#d9d8da" d="M100 1000h100v100H100z"/><path fill="#d5d3d5" d="M200 1000h100v100H200z"/><path fill="#d1cecf" d="M300 1000h100v100H300z"/><path fill="#cac7c4" d="M400 1000h100v100H400z"/><path fill="#bebab4" d="M500 1000h100v100H500z"/><path fill="#b6b1a7" d="M600 1000h100v100H600z"/><path fill="#b3aca1" d="M700 1000h100v100H700z"/></svg>