<svg xmlns="http://www.w3.org/2000/svg" viewBox="0 0 800 400"><defs/><path fill="#918a82" d="M0 0h100v100H0z"/><path fill="#b6b4b2" d="M100 0h100v100H100z"/><path fill="#cdc7be" d="M200 0h100v100H200z"/><path fill="#c4bfb3" d="M300 0h100v100H300z"/><path fill="#6eabc1" d="M400 0h100v100H400z"/><path fill="#61a8c5" d="M500 0h100v100H500z"/><path fill="#9db4b9" d="M600 0h100v100H600z"/><path fill="#7aa3ae" d="M700 0h100v100H700z"/><path fill="#9d978f" d="M0 100h100v100H0z"/><path fill="#d3d0cc" d="M100 100h100v100H100z"/><path fill="#afa292" d="M200 100h100v100H200z"/><path fill="#bcaa9a" d="M300 100h100v100H300z"/><path fill="#7db4b3" d="M400 100h100v100H400z"/><path fill="#4fa099" d="M500 100h100v100H500z"/><path fill="#a8b9b6" d="M600 100h100v100H600z"/><path fill="#5ca1b8" d="M700 100h100v100H700z"/><path fill="#afaba4" d="M0 200h100v100H0z"/><path fill="#a4aaab" d="M100 200h100v100H100z"/><path fill="#978f84" d="M200 200h100v100H200z"/><path fill="#cdb8ae" d="M300 200h100v100H300z"/><path fill="#a29a76" d="M400 200h100v100H400z"/><path fill="#79b56b" d="M500 200h100v100H500z"/><path fill="#c0cab7" d="M600 200h100v100H600z"/><path fill="#719e74" d="M700 200h100v100H700z"/><path fill="#c0bfbc" d="M0 300h100v100H0z"/><path fill="#babcbe" d="M100 300h100v100H100z"/><path fill="#dfdfde" d="M200 300h100v100H200z"/><path fill="#cba5a5" d="M300 300h100v100H300z"/><path fill="#ba6d6c" d="M400 300h100v100H400z"/><path fill="#f1dbd4" d="M500 300h100v100H500z"/><path fill="#f1f6f7" d="M600 300h100v100H600z"/><path fill="#becbb8" d="M700 300h100v100H700z"/></svg>