<svg xmlns="http://www.w3.org/2000/svg" viewBox="0 0 800 500"><defs/><path fill="#63615b" d="M0 0h100v100H0z"/><path fill="#5e5a54" d="M100 0h100v100H100z"/><path fill="#bbbbba" d="M200 0h100v100H200z"/><path fill="#d7d7db" d="M300 0h100v100H300z"/><path fill="#ceccd0" d="M400 0h100v100H400z"/><path fill="#bab7bc" d="M500 0h100v100H500z"/><path fill="#97979c" d="M600 0h100v100H600z"/><path fill="#74726a" d="M700 0h100v100H700z"/><path fill="#635f5b" d="M0 100h100v100H0z"/><path fill="#605d5a" d="M100 100h100v100H100z"/><path fill="#bdbcc0" d="M200 100h100v100H200z"/><path fill="#cececf" d="M300 100h100v100H300z"/><path fill="#8f928b" d="M400 100h100v100H400z"/><path fill="#7b8461" d="M500 100h100v100H500z"/><path fill="#957f37" d="M600 100h100v100H600z"/><path fill="#785e2c" d="M700 100h100v100H700z"/><path fill="#5a6056" d="M0 200h100v100H0z"/><path fill="#6d6e58" d="M100 200h100v100H100z"/><path fill="#a19c73" d="M200 200h100v100H200z"/><path fill="#807d61" d="M300 200h100v100H300z"/><path fill="#364d35" d="M400 200h100v100H400z"/><path fill="#344121" d="M500 200h100v100H500z"/><path fill="#3e3615" d="M600 200h100v100H600z"/><path fill="#22160a" d="M700 200h100v100H700z"/><path fill="#2f3b2b" d="M0 300h100v100H0z"/><path fill="#4f563f" d="M100 300h100v100H100z"/><path fill="#616249" d="M200 300h100v100H200z"/><path fill="#474d3e" d="M300 300h100v100H300z"/><path fill="#5d6959" d="M400 300h100v100H400z"/><path fill="#3d483a" d="M500 300h100v100H500z"/><path fill="#190a11" d="M600 300h100v100H600z"/><path fill="#443c1c" d="M700 300h100v100H700z"/><path fill="#463c23" d="M0 400h100v100H0z"/><path fill="#4f6532" d="M100 400h100v100H100z"/><path fill="#39693b" d="M200 400h100v100H200z"/><path fill="#396934" d="M300 400h100v100H300z"/><path fill="#336a2e" d="M400 400h100v100H400z"/><path fill="#2c5725" d="M500 400h100v100H500z"/><path fill="#391d1c" d="M600 400h100v100H600z"/><path fill="#5d4a1e" d="M700 400h100v100H700z"/></svg>