<svg xmlns="http://www.w3.org/2000/svg" viewBox="0 0 800 500"><defs/><path fill="#fcd09d" d="M0 0h100v100H0z"/><path fill="#f3c18e" d="M100 0h100v100H100z"/><path fill="#f9cc98" d="M200 0h100v100H200z"/><path fill="#f8ca95" d="M300 0h100v100H300z"/><path fill="#fcca95" d="M400 0h100v100H400z"/><path fill="#fdcc97" d="M500 0h100v100H500z"/><path fill="#fdd09c" d="M600 0h100v100H600z"/><path fill="#f9cc9a" d="M700 0h100v100H700z"/><path fill="#f2cb9d" d="M0 100h100v100H0z"/><path fill="#ca8a5a" d="M100 100h100v100H100z"/><path fill="#d3b48e" d="M200 100h100v100H200z"/><path fill="#d2d9ce" d="M300 100h100v100H300z"/><path fill="#b7d2ce" d="M400 100h100v100H400z"/><path fill="#c2cec1" d="M500 100h100v100H500z"/><path fill="#cbad82" d="M600 100h100v100H600z"/><path fill="#e2c397" d="M700 100h100v100H700z"/><path fill="#edbd8e" d="M0 200h100v100H0z"/><path fill="#be8758" d="M100 200h100v100H100z"/><path fill="#c7b08a" d="M200 200h100v100H200z"/><path fill="#c8c6b4" d="M300 200h100v100H300z"/><path fill="#bbc7bc" d="M400 200h100v100H400z"/><path fill="#bdbda9" d="M500 200h100v100H500z"/><path fill="#b69976" d="M600 200h100v100H600z"/><path fill="#e4c7a0" d="M700 200h100v100H700z"/><path fill="#e0a675" d="M0 300h100v100H0z"/><path fill="#9b6f49" d="M100 300h100v100H100z"/><path fill="#ac9e82" d="M200 300h100v100H200z"/><path fill="#baa497" d="M300 300h100v100H300z"/><path fill="#b5aa8e" d="M400 300h100v100H400z"/><path fill="#bdaf7f" d="M500 300h100v100H500z"/><path fill="#b88f69" d="M600 300h100v100H600z"/><path fill="#a89077" d="M700 300h100v100H700z"/><path fill="#e1b282" d="M0 400h100v100H0z"/><path fill="#cc9f74" d="M100 400h100v100H100z"/><path fill="#d0b291" d="M200 400h100v100H200z"/><path fill="#d4c0a6" d="M300 400h100v100H300z"/><path fill="#d0bd9e" d="M400 400h100v100H400z"/><path fill="#d3bfa0" d="M500 400h100v100H500z"/><path fill="#d3b28f" d="M600 400h100v100H600z"/><path fill="#b5936f" d="M700 400h100v100H700z"/></svg>