<svg xmlns="http://www.w3.org/2000/svg" viewBox="0 0 800 400"><defs/><path fill="#d7a0b3" d="M0 0h100v100H0z"/><path fill="#cb8496" d="M100 0h100v100H100z"/><path fill="#e4a5b3" d="M200 0h100v100H200z"/><path fill="#edd5de" d="M300 0h100v100H300z"/><path fill="#f3e7e8" d="M400 0h100v100H400z"/><path fill="#efe6eb" d="M500 0h100v100H500z"/><path fill="#e8b1c0" d="M600 0h100v100H600z"/><path fill="#efc4ca" d="M700 0h100v100H700z"/><path fill="#cf8a9d" d="M0 100h100v100H0z"/><path fill="#c27887" d="M100 100h100v100H100z"/><path fill="#e198aa" d="M200 100h100v100H200z"/><path fill="#e8cad1" d="M300 100h100v100H300z"/><path fill="#e9cfcc" d="M400 100h100v100H400z"/><path fill="#e5d4d7" d="M500 100h100v100H500z"/><path fill="#d499a3" d="M600 100h100v100H600z"/><path fill="#e8b5b9" d="M700 100h100v100H700z"/><path fill="#cd8296" d="M0 200h100v100H0z"/><path fill="#cf8692" d="M100 200h100v100H100z"/><path fill="#e0a3ae" d="M200 200h100v100H200z"/><path fill="#ddb0b5" d="M300 200h100v100H300z"/><path fill="#e1b8b1" d="M400 200h100v100H400z"/><path fill="#e8bcb7" d="M500 200h100v100H500z"/><path fill="#d6a2a2" d="M600 200h100v100H600z"/><path fill="#cbafb7" d="M700 200h100v100H700z"/><path fill="#d58d9c" d="M0 300h100v100H0z"/><path fill="#e4a5a6" d="M100 300h100v100H100z"/><path fill="#d4cbc1" d="M200 300h100v100H200z"/><path fill="#c8aea5" d="M300 300h100v100H300z"/><path fill="#daaa9e" d="M400 300h100v100H400z"/><path fill="#cfcaa7" d="M500 300h100v100H500z"/><path fill="#d5b3a1" d="M600 300h100v100H600z"/><path fill="#c4a0aa" d="M700 300h100v100H700z"/></svg>