<svg xmlns="http://www.w3.org/2000/svg" viewBox="0 0 800 500"><defs/><path fill="#7b5c55" d="M0 0h100v100H0z"/><path fill="#c4c2c8" d="M100 0h100v100H100z"/><path fill="#cfd0d7" d="M200 0h100v100H200z"/><path fill="#d5d6db" d="M300 0h100v100H300z"/><path fill="#d5d8dd" d="M400 0h100v100H400z"/><path fill="#d6d7dc" d="M500 0h100v100H500z"/><path fill="#c8c9cd" d="M600 0h100v100H600z"/><path fill="#cfd0d4" d="M700 0h100v100H700z"/><path fill="#948686" d="M0 100h100v100H0z"/><path fill="#cacdd4" d="M100 100h100v100H100z"/><path fill="#d4d5db" d="M200 100h100v100H200z"/><path fill="#c7c9cd" d="M300 100h100v100H300z"/><path fill="#c1c4c7" d="M400 100h100v100H400z"/><path fill="#dbdde2" d="M500 100h100v100H500z"/><path fill="#cccdd0" d="M600 100h100v100H600z"/><path fill="#c7c8cc" d="M700 100h100v100H700z"/><path fill="#b9bdc6" d="M0 200h100v100H0z"/><path fill="#c8cbd3" d="M100 200h100v100H100z"/><path fill="#d1d6dc" d="M200 200h100v100H200z"/><path fill="#b3b6bb" d="M300 200h100v100H300z"/><path fill="#c1c5ca" d="M400 200h100v100H400z"/><path fill="#c5c9cd" d="M500 200h100v100H500z"/><path fill="#c3c3c8" d="M600 200h100v100H600z"/><path fill="#ccccd1" d="M700 200h100v100H700z"/><path fill="#abadb6" d="M0 300h100v100H0z"/><path fill="#b0b2bc" d="M100 300h100v100H100z"/><path fill="#b9b8c2" d="M200 300h100v100H200z"/><path fill="#969ba1" d="M300 300h100v100H300z"/><path fill="#8b8b88" d="M400 300h100v100H400z"/><path fill="#959799" d="M500 300h100v100H500z"/><path fill="#aaa9b5" d="M600 300h100v100H600z"/><path fill="#c6c7cd" d="M700 300h100v100H700z"/><path fill="#91949e" d="M0 400h100v100H0z"/><path fill="#9c9eaa" d="M100 400h100v100H100z"/><path fill="#a7a9b5" d="M200 400h100v100H200z"/><path fill="#909aa6" d="M300 400h100v100H300z"/><path fill="#999ea2" d="M400 400h100v100H400z"/><path fill="#9ca1a6" d="M500 400h100v100H500z"/><path fill="#a7aab1" d="M600 400h100v100H600z"/><path fill="#bec0c6" d="M700 400h100v100H700z"/></svg>