<svg xmlns="http://www.w3.org/2000/svg" viewBox="0 0 800 600"><defs/><path fill="#d4e2df" d="M0 0h100v100H0z"/><path fill="#dadad6" d="M100 0h100v100H100z"/><path fill="#f5eae6" d="M200 0h100v100H200z"/><path fill="#f5ece9" d="M300 0h100v100H300z"/><path fill="#fbf4ef" d="M400 0h100v100H400z"/><path fill="#f4f1ef" d="M500 0h100v100H500z"/><path fill="#f1edeb" d="M600 0h100v100H600z"/><path fill="#e9e4f1" d="M700 0h100v100H700z"/><path fill="#418f7b" d="M0 100h100v100H0z"/><path fill="#867b66" d="M100 100h100v100H100z"/><path fill="#a19e8c" d="M200 100h100v100H200z"/><path fill="#8a9a87" d="M300 100h100v100H300z"/><path fill="#baa99f" d="M400 100h100v100H400z"/><path fill="#908076" d="M500 100h100v100H500z"/><path fill="#89836f" d="M600 100h100v100H600z"/><path fill="#6091b3" d="M700 100h100v100H700z"/><path fill="#52967d" d="M0 200h100v100H0z"/><path fill="#837761" d="M100 200h100v100H100z"/><path fill="#53726b" d="M200 200h100v100H200z"/><path fill="#5d5e54" d="M300 200h100v100H300z"/><path fill="#817a6e" d="M400 200h100v100H400z"/><path fill="#4b4572" d="M500 200h100v100H500z"/><path fill="#534c83" d="M600 200h100v100H600z"/><path fill="#4b9baa" d="M700 200h100v100H700z"/><path fill="#6e9184" d="M0 300h100v100H0z"/><path fill="#90775c" d="M100 300h100v100H100z"/><path fill="#727c59" d="M200 300h100v100H200z"/><path fill="#4b5a4f" d="M300 300h100v100H300z"/><path fill="#626086" d="M400 300h100v100H400z"/><path fill="#342f86" d="M500 300h100v100H500z"/><path fill="#302880" d="M600 300h100v100H600z"/><path fill="#4f75a7" d="M700 300h100v100H700z"/><path fill="#828f7e" d="M0 400h100v100H0z"/><path fill="#8c4f2d" d="M100 400h100v100H100z"/><path fill="#229c84" d="M200 400h100v100H200z"/><path fill="#00cdba" d="M300 400h100v100H300z"/><path fill="#254e71" d="M400 400h100v100H400z"/><path fill="#2f1d68" d="M500 400h100v100H500z"/><path fill="#3e2e66" d="M600 400h100v100H600z"/><path fill="#545d72" d="M700 400h100v100H700z"/><path fill="#d0c7bc" d="M0 500h100v100H0z"/><path fill="#d3b19e" d="M100 500h100v100H100z"/><path fill="#b4b1a4" d="M200 500h100v100H200z"/><path fill="#a8b8ac" d="M300 500h100v100H300z"/><path fill="#beab9f" d="M400 500h100v100H400z"/><path fill="#b1a0a3" d="M500 500h100v100H500z"/><path fill="#c1aa9f" d="M600 500h100v100H600z"/><path fill="#c6b19f" d="M700 500h100v100H700z"/></svg>