<svg xmlns="http://www.w3.org/2000/svg" viewBox="0 0 800 600"><defs/><path fill="#f8f8f8" d="M0 0h100v100H0z"/><path fill="#f4f4f4" d="M100 0h100v100H100z"/><path fill="#f7f7f7" d="M200 0h100v100H200z"/><path fill="#f1f1f1" d="M300 0h100v100H300z"/><path fill="#f9f9f9" d="M400 0h100v100H400z"/><path fill="#f0f0f0" d="M500 0h100v100H500z"/><path fill="#f6f6f6" d="M600 0h100v100H600z"/><path fill="#f3f3f3" d="M700 0h100v100H700z"/><path fill="#909090" d="M0 100h100v100H0z"/><path fill="#2f2f2f" d="M100 100h100v100H100z"/><path fill="#c7c7c7" d="M200 100h100v100H200z"/><path fill="#767676" d="M300 100h100v100H300z"/><path fill="#626262" d="M400 100h100v100H400z"/><path fill="#7f7f7f" d="M500 100h100v100H500z"/><path fill="#b5b5b5" d="M600 100h100v100H600z"/><path fill="#484848" d="M700 100h100v100H700z"/><path fill="#858585" d="M0 200h100v100H0z"/><path fill="#2f2f2f" d="M100 200h100v100H100z"/><path fill="#cacaca" d="M200 200h100v100H200z"/><path fill="#585858" d="M300 200h100v100H300z"/><path fill="#8a8a8a" d="M400 200h100v100H400z"/><path fill="#969696" d="M500 200h100v100H500z"/><path fill="#a4a4a4" d="M600 200h100v100H600z"/><path fill="#3b3b3b" d="M700 200h100v100H700z"/><path fill="#8d8d8d" d="M0 300h100v100H0z"/><path fill="#5a5a5a" d="M100 300h100v100H100z"/><path fill="#d6d6d6" d="M200 300h100v100H200z"/><path fill="#717171" d="M300 300h100v100H300z"/><path fill="#a6a6a6" d="M400 300h100v100H400z"/><path fill="#8f8f8f" d="M500 300h100v100H500z"/><path fill="#c1c1c1" d="M600 300h100v100H600z"/><path fill="#424242" d="M700 300h100v100H700z"/><path fill="#8b8b8b" d="M0 400h100v100H0z"/><path fill="#707070" d="M100 400h100v100H100z"/><path fill="#d7d7d7" d="M200 400h100v100H200z"/><path fill="#515151" d="M300 400h100v100H300z"/><path fill="#606060" d="M400 400h100v100H400z"/><path fill="#747474" d="M500 400h100v100H500z"/><path fill="#efefef" d="M600 400h100v100H600z"/><path fill="#8a8a8a" d="M700 400h100v100H700z"/><path fill="#dcdcdc" d="M0 500h100v100H0z"/><path fill="#d7d7d7" d="M100 500h100v100H100z"/><path fill="#ededed" d="M200 500h100v100H200z"/><path fill="#eaeaea" d="M300 500h100v100H300z"/><path fill="#fafafa" d="M400 500h100v100H400z"/><path fill="#e4e4e4" d="M500 500h100v100H500z"/><path fill="#f2f2f2" d="M600 500h100v100H600z"/><path fill="#efefef" d="M700 500h100v100H700z"/></svg>