<svg xmlns="http://www.w3.org/2000/svg" viewBox="0 0 800 500"><defs/><path fill="#784b97" d="M0 0h100v100H0z"/><path fill="#371851" d="M100 0h100v100H100z"/><path fill="#9e597b" d="M200 0h100v100H200z"/><path fill="#dca8ac" d="M300 0h100v100H300z"/><path fill="#e0c7cf" d="M400 0h100v100H400z"/><path fill="#dab7c2" d="M500 0h100v100H500z"/><path fill="#ca8d9a" d="M600 0h100v100H600z"/><path fill="#b36a84" d="M700 0h100v100H700z"/><path fill="#5a347c" d="M0 100h100v100H0z"/><path fill="#4b255e" d="M100 100h100v100H100z"/><path fill="#bb7e98" d="M200 100h100v100H200z"/><path fill="#e5afad" d="M300 100h100v100H300z"/><path fill="#d9bab1" d="M400 100h100v100H400z"/><path fill="#d5adab" d="M500 100h100v100H500z"/><path fill="#c5848f" d="M600 100h100v100H600z"/><path fill="#71416d" d="M700 100h100v100H700z"/><path fill="#613d80" d="M0 200h100v100H0z"/><path fill="#552a65" d="M100 200h100v100H100z"/><path fill="#915684" d="M200 200h100v100H200z"/><path fill="#a05d72" d="M300 200h100v100H300z"/><path fill="#b3706a" d="M400 200h100v100H400z"/><path fill="#ab626f" d="M500 200h100v100H500z"/><path fill="#a45f7a" d="M600 200h100v100H600z"/><path fill="#653c68" d="M700 200h100v100H700z"/><path fill="#5b3c70" d="M0 300h100v100H0z"/><path fill="#68386e" d="M100 300h100v100H100z"/><path fill="#6e386e" d="M200 300h100v100H200z"/><path fill="#7f3461" d="M300 300h100v100H300z"/><path fill="#6f454e" d="M400 300h100v100H400z"/><path fill="#7d4e73" d="M500 300h100v100H500z"/><path fill="#9e678e" d="M600 300h100v100H600z"/><path fill="#422f55" d="M700 300h100v100H700z"/><path fill="#694471" d="M0 400h100v100H0z"/><path fill="#754883" d="M100 400h100v100H100z"/><path fill="#7e4782" d="M200 400h100v100H200z"/><path fill="#7f4284" d="M300 400h100v100H300z"/><path fill="#a06290" d="M400 400h100v100H400z"/><path fill="#8c488b" d="M500 400h100v100H500z"/><path fill="#83518d" d="M600 400h100v100H600z"/><path fill="#4e3668" d="M700 400h100v100H700z"/></svg>