<svg xmlns="http://www.w3.org/2000/svg" viewBox="0 0 800 600"><defs/><path fill="#e1dacc" d="M0 0h100v100H0z"/><path fill="#ddd5c7" d="M100 0h100v100H100z"/><path fill="#dfd5c6" d="M200 0h100v100H200z"/><path fill="#e0d6c6" d="M300 0h100v100H300z"/><path fill="#e0d5c5" d="M400 0h100v100H400z"/><path fill="#ded0ba" d="M500 0h100v100H500z"/><path fill="#d7c2a1" d="M600 0h100v100H600z"/><path fill="#d4b387" d="M700 0h100v100H700z"/><path fill="#d5cfc7" d="M0 100h100v100H0z"/><path fill="#d3cec9" d="M100 100h100v100H100z"/><path fill="#c3cdc8" d="M200 100h100v100H200z"/><path fill="#d2d8d3" d="M300 100h100v100H300z"/><path fill="#d3d6d0" d="M400 100h100v100H400z"/><path fill="#c3c1bc" d="M500 100h100v100H500z"/><path fill="#ceb8ab" d="M600 100h100v100H600z"/><path fill="#d46960" d="M700 100h100v100H700z"/><path fill="#d7d3cd" d="M0 200h100v100H0z"/><path fill="#dedbda" d="M100 200h100v100H100z"/><path fill="#a8c0c1" d="M200 200h100v100H200z"/><path fill="#a8c4be" d="M300 200h100v100H300z"/><path fill="#b8c2bc" d="M400 200h100v100H400z"/><path fill="#9dafa7" d="M500 200h100v100H500z"/><path fill="#bfbbb3" d="M600 200h100v100H600z"/><path fill="#c1938e" d="M700 200h100v100H700z"/><path fill="#d8d6dc" d="M0 300h100v100H0z"/><path fill="#d8d4c8" d="M100 300h100v100H100z"/><path fill="#cdcfa4" d="M200 300h100v100H200z"/><path fill="#c4c498" d="M300 300h100v100H300z"/><path fill="#afa88c" d="M400 300h100v100H400z"/><path fill="#cccaa6" d="M500 300h100v100H500z"/><path fill="#cbbf97" d="M600 300h100v100H600z"/><path fill="#c17566" d="M700 300h100v100H700z"/><path fill="#cccec2" d="M0 400h100v100H0z"/><path fill="#c9b38f" d="M100 400h100v100H100z"/><path fill="#e0d17b" d="M200 400h100v100H200z"/><path fill="#e1db7d" d="M300 400h100v100H300z"/><path fill="#c4ba63" d="M400 400h100v100H400z"/><path fill="#c9bb6c" d="M500 400h100v100H500z"/><path fill="#988f5e" d="M600 400h100v100H600z"/><path fill="#a76e57" d="M700 400h100v100H700z"/><path fill="#d4d4bb" d="M0 500h100v100H0z"/><path fill="#d6d3b9" d="M100 500h100v100H100z"/><path fill="#d8d5c0" d="M200 500h100v100H200z"/><path fill="#dedac3" d="M300 500h100v100H300z"/><path fill="#dfdabd" d="M400 500h100v100H400z"/><path fill="#d5ceb3" d="M500 500h100v100H500z"/><path fill="#cac2a8" d="M600 500h100v100H600z"/><path fill="#c3b797" d="M700 500h100v100H700z"/></svg>