<svg xmlns="http://www.w3.org/2000/svg" viewBox="0 0 800 600"><defs/><path fill="#d2d2c4" d="M0 0h100v100H0z"/><path fill="#cdccc2" d="M100 0h100v100H100z"/><path fill="#d0cdcb" d="M200 0h100v100H200z"/><path fill="#d5d1cd" d="M300 0h100v100H300z"/><path fill="#d6d3d1" d="M400 0h100v100H400z"/><path fill="#d1cecc" d="M500 0h100v100H500z"/><path fill="#cecbc7" d="M600 0h100v100H600z"/><path fill="#d0cdc6" d="M700 0h100v100H700z"/><path fill="#c3c264" d="M0 100h100v100H0z"/><path fill="#a3964e" d="M100 100h100v100H100z"/><path fill="#b6b0bf" d="M200 100h100v100H200z"/><path fill="#c0bbc2" d="M300 100h100v100H300z"/><path fill="#d1c6c8" d="M400 100h100v100H400z"/><path fill="#c9c0b9" d="M500 100h100v100H500z"/><path fill="#aca199" d="M600 100h100v100H600z"/><path fill="#c2c0c6" d="M700 100h100v100H700z"/><path fill="#bdbb5f" d="M0 200h100v100H0z"/><path fill="#a2915b" d="M100 200h100v100H100z"/><path fill="#b8aeb8" d="M200 200h100v100H200z"/><path fill="#908896" d="M300 200h100v100H300z"/><path fill="#b2b8ba" d="M400 200h100v100H400z"/><path fill="#9e99a9" d="M500 200h100v100H500z"/><path fill="#826653" d="M600 200h100v100H600z"/><path fill="#c1bab8" d="M700 200h100v100H700z"/><path fill="#aea75f" d="M0 300h100v100H0z"/><path fill="#947e57" d="M100 300h100v100H100z"/><path fill="#ad9b87" d="M200 300h100v100H200z"/><path fill="#949087" d="M300 300h100v100H300z"/><path fill="#8a9b8f" d="M400 300h100v100H400z"/><path fill="#91806b" d="M500 300h100v100H500z"/><path fill="#8d734d" d="M600 300h100v100H600z"/><path fill="#9b9792" d="M700 300h100v100H700z"/><path fill="#aea57c" d="M0 400h100v100H0z"/><path fill="#a18f5c" d="M100 400h100v100H100z"/><path fill="#c0b49c" d="M200 400h100v100H200z"/><path fill="#cbc4c1" d="M300 400h100v100H300z"/><path fill="#c0b4a2" d="M400 400h100v100H400z"/><path fill="#c5b57b" d="M500 400h100v100H500z"/><path fill="#9c9271" d="M600 400h100v100H600z"/><path fill="#8c8679" d="M700 400h100v100H700z"/><path fill="#cdccc8" d="M0 500h100v100H0z"/><path fill="#ceccc3" d="M100 500h100v100H100z"/><path fill="#d0cdc5" d="M200 500h100v100H200z"/><path fill="#cfccc5" d="M300 500h100v100H300z"/><path fill="#cecbc6" d="M400 500h100v100H400z"/><path fill="#cccac9" d="M500 500h100v100H500z"/><path fill="#cbc9c4" d="M600 500h100v100H600z"/><path fill="#c9c8c6" d="M700 500h100v100H700z"/></svg>