<svg xmlns="http://www.w3.org/2000/svg" viewBox="0 0 800 600"><defs/><path fill="#876cc6" d="M0 0h100v100H0z"/><path fill="#9a96d6" d="M100 0h100v100H100z"/><path fill="#abbee8" d="M200 0h100v100H200z"/><path fill="#a1b2e4" d="M300 0h100v100H300z"/><path fill="#8fa2dc" d="M400 0h100v100H400z"/><path fill="#a5b7e7" d="M500 0h100v100H500z"/><path fill="#a3b3e8" d="M600 0h100v100H600z"/><path fill="#9f8bd0" d="M700 0h100v100H700z"/><path fill="#8f56b3" d="M0 100h100v100H0z"/><path fill="#8d6eb2" d="M100 100h100v100H100z"/><path fill="#8ea1cd" d="M200 100h100v100H200z"/><path fill="#8c8cc9" d="M300 100h100v100H300z"/><path fill="#7f6fbc" d="M400 100h100v100H400z"/><path fill="#9298c6" d="M500 100h100v100H500z"/><path fill="#6f7ebe" d="M600 100h100v100H600z"/><path fill="#8f5ab9" d="M700 100h100v100H700z"/><path fill="#9e69b8" d="M0 200h100v100H0z"/><path fill="#775c96" d="M100 200h100v100H100z"/><path fill="#4c66ae" d="M200 200h100v100H200z"/><path fill="#7c72c5" d="M300 200h100v100H300z"/><path fill="#9077c6" d="M400 200h100v100H400z"/><path fill="#908ec2" d="M500 200h100v100H500z"/><path fill="#58609d" d="M600 200h100v100H600z"/><path fill="#824eb3" d="M700 200h100v100H700z"/><path fill="#955db7" d="M0 300h100v100H0z"/><path fill="#745290" d="M100 300h100v100H100z"/><path fill="#4c4d98" d="M200 300h100v100H200z"/><path fill="#615fb1" d="M300 300h100v100H300z"/><path fill="#726fb1" d="M400 300h100v100H400z"/><path fill="#7d6fb3" d="M500 300h100v100H500z"/><path fill="#4f44a2" d="M600 300h100v100H600z"/><path fill="#7e40a6" d="M700 300h100v100H700z"/><path fill="#8541a1" d="M0 400h100v100H0z"/><path fill="#7f4e9e" d="M100 400h100v100H100z"/><path fill="#7e68b3" d="M200 400h100v100H200z"/><path fill="#7f4c99" d="M300 400h100v100H300z"/><path fill="#6b4198" d="M400 400h100v100H400z"/><path fill="#8e549a" d="M500 400h100v100H500z"/><path fill="#77479c" d="M600 400h100v100H600z"/><path fill="#9b4cad" d="M700 400h100v100H700z"/><path fill="#824fae" d="M0 500h100v100H0z"/><path fill="#9880c4" d="M100 500h100v100H100z"/><path fill="#a19cd0" d="M200 500h100v100H200z"/><path fill="#8d89c6" d="M300 500h100v100H300z"/><path fill="#8587ca" d="M400 500h100v100H400z"/><path fill="#a397c9" d="M500 500h100v100H500z"/><path fill="#b6a8d4" d="M600 500h100v100H600z"/><path fill="#b375bc" d="M700 500h100v100H700z"/></svg>