<svg xmlns="http://www.w3.org/2000/svg" viewBox="0 0 800 500"><defs/><path fill="#716c69" d="M0 0h100v100H0z"/><path fill="#82746c" d="M100 0h100v100H100z"/><path fill="#8f7866" d="M200 0h100v100H200z"/><path fill="#87776c" d="M300 0h100v100H300z"/><path fill="#716353" d="M400 0h100v100H400z"/><path fill="#8f7859" d="M500 0h100v100H500z"/><path fill="#a08f73" d="M600 0h100v100H600z"/><path fill="#bdc0c6" d="M700 0h100v100H700z"/><path fill="#7e7578" d="M0 100h100v100H0z"/><path fill="#907a79" d="M100 100h100v100H100z"/><path fill="#8b7b78" d="M200 100h100v100H200z"/><path fill="#988174" d="M300 100h100v100H300z"/><path fill="#9b8870" d="M400 100h100v100H400z"/><path fill="#988261" d="M500 100h100v100H500z"/><path fill="#9a886a" d="M600 100h100v100H600z"/><path fill="#b8b9bd" d="M700 100h100v100H700z"/><path fill="#9b929e" d="M0 200h100v100H0z"/><path fill="#8d818c" d="M100 200h100v100H100z"/><path fill="#90857e" d="M200 200h100v100H200z"/><path fill="#988d7d" d="M300 200h100v100H300z"/><path fill="#878483" d="M400 200h100v100H400z"/><path fill="#a0988f" d="M500 200h100v100H500z"/><path fill="#938572" d="M600 200h100v100H600z"/><path fill="#afaeae" d="M700 200h100v100H700z"/><path fill="#8f848b" d="M0 300h100v100H0z"/><path fill="#a599a9" d="M100 300h100v100H100z"/><path fill="#9f9c9c" d="M200 300h100v100H200z"/><path fill="#7d827f" d="M300 300h100v100H300z"/><path fill="#798cb3" d="M400 300h100v100H400z"/><path fill="#8f939f" d="M500 300h100v100H500z"/><path fill="#8b8a91" d="M600 300h100v100H600z"/><path fill="#a6a39f" d="M700 300h100v100H700z"/><path fill="#91868e" d="M0 400h100v100H0z"/><path fill="#9796a6" d="M100 400h100v100H100z"/><path fill="#9ea0ac" d="M200 400h100v100H200z"/><path fill="#a39ba1" d="M300 400h100v100H300z"/><path fill="#999faf" d="M400 400h100v100H400z"/><path fill="#8c909e" d="M500 400h100v100H500z"/><path fill="#747278" d="M600 400h100v100H600z"/><path fill="#857d7c" d="M700 400h100v100H700z"/></svg>