<svg xmlns="http://www.w3.org/2000/svg" viewBox="0 0 800 400"><defs/><path fill="#c19663" d="M0 0h100v100H0z"/><path fill="#bf955c" d="M100 0h100v100H100z"/><path fill="#c19653" d="M200 0h100v100H200z"/><path fill="#d3ab4f" d="M300 0h100v100H300z"/><path fill="#dcaf68" d="M400 0h100v100H400z"/><path fill="#b9965a" d="M500 0h100v100H500z"/><path fill="#b0854f" d="M600 0h100v100H600z"/><path fill="#d27341" d="M700 0h100v100H700z"/><path fill="#c1925f" d="M0 100h100v100H0z"/><path fill="#b38751" d="M100 100h100v100H100z"/><path fill="#bd8b4f" d="M200 100h100v100H200z"/><path fill="#dba76d" d="M300 100h100v100H300z"/><path fill="#dfae61" d="M400 100h100v100H400z"/><path fill="#bf874d" d="M500 100h100v100H500z"/><path fill="#b08c59" d="M600 100h100v100H600z"/><path fill="#be945d" d="M700 100h100v100H700z"/><path fill="#c79a65" d="M0 200h100v100H0z"/><path fill="#c49e61" d="M100 200h100v100H100z"/><path fill="#e3aa4e" d="M200 200h100v100H200z"/><path fill="#e9c16b" d="M300 200h100v100H300z"/><path fill="#e7c168" d="M400 200h100v100H400z"/><path fill="#e69e40" d="M500 200h100v100H500z"/><path fill="#cea458" d="M600 200h100v100H600z"/><path fill="#b3955b" d="M700 200h100v100H700z"/><path fill="#c3915f" d="M0 300h100v100H0z"/><path fill="#bf8d5b" d="M100 300h100v100H100z"/><path fill="#c19a5a" d="M200 300h100v100H200z"/><path fill="#dbac5e" d="M300 300h100v100H300z"/><path fill="#bf9961" d="M400 300h100v100H400z"/><path fill="#c39f5e" d="M500 300h100v100H500z"/><path fill="#be9c61" d="M600 300h100v100H600z"/><path fill="#af8d62" d="M700 300h100v100H700z"/></svg>