<svg xmlns="http://www.w3.org/2000/svg" viewBox="0 0 800 400"><defs/><path fill="#d9a6b8" d="M0 0h100v100H0z"/><path fill="#cd8697" d="M100 0h100v100H100z"/><path fill="#e4a6b4" d="M200 0h100v100H200z"/><path fill="#edd3de" d="M300 0h100v100H300z"/><path fill="#f2e7e9" d="M400 0h100v100H400z"/><path fill="#f1e9ee" d="M500 0h100v100H500z"/><path fill="#eabbc8" d="M600 0h100v100H600z"/><path fill="#edb8c1" d="M700 0h100v100H700z"/><path fill="#d28ea1" d="M0 100h100v100H0z"/><path fill="#be7383" d="M100 100h100v100H100z"/><path fill="#de94a5" d="M200 100h100v100H200z"/><path fill="#ebc9d2" d="M300 100h100v100H300z"/><path fill="#ead4d0" d="M400 100h100v100H400z"/><path fill="#e9dbdd" d="M500 100h100v100H500z"/><path fill="#d7a1ad" d="M600 100h100v100H600z"/><path fill="#e2a4aa" d="M700 100h100v100H700z"/><path fill="#cc8497" d="M0 200h100v100H0z"/><path fill="#d08692" d="M100 200h100v100H100z"/><path fill="#df9cab" d="M200 200h100v100H200z"/><path fill="#dfb2bc" d="M300 200h100v100H300z"/><path fill="#e3beb7" d="M400 200h100v100H400z"/><path fill="#e7bfbf" d="M500 200h100v100H500z"/><path fill="#d9a7a8" d="M600 200h100v100H600z"/><path fill="#cba4ab" d="M700 200h100v100H700z"/><path fill="#d38899" d="M0 300h100v100H0z"/><path fill="#dc989e" d="M100 300h100v100H100z"/><path fill="#d7c4be" d="M200 300h100v100H200z"/><path fill="#ccaca4" d="M300 300h100v100H300z"/><path fill="#dbaba0" d="M400 300h100v100H400z"/><path fill="#d6bea5" d="M500 300h100v100H500z"/><path fill="#dbb8a8" d="M600 300h100v100H600z"/><path fill="#bb939d" d="M700 300h100v100H700z"/></svg>