<svg xmlns="http://www.w3.org/2000/svg" viewBox="0 0 800 600"><defs/><path fill="#f8e7ec" d="M0 0h100v100H0z"/><path fill="#c2a59a" d="M100 0h100v100H100z"/><path fill="#e0c6c4" d="M200 0h100v100H200z"/><path fill="#fae3ea" d="M300 0h100v100H300z"/><path fill="#f8e0e5" d="M400 0h100v100H400z"/><path fill="#f5dfe3" d="M500 0h100v100H500z"/><path fill="#f0d9dd" d="M600 0h100v100H600z"/><path fill="#f2dee1" d="M700 0h100v100H700z"/><path fill="#f3dbe0" d="M0 100h100v100H0z"/><path fill="#b28576" d="M100 100h100v100H100z"/><path fill="#eacecf" d="M200 100h100v100H200z"/><path fill="#ebd4d2" d="M300 100h100v100H300z"/><path fill="#cfb9b6" d="M400 100h100v100H400z"/><path fill="#f4d4d8" d="M500 100h100v100H500z"/><path fill="#fadadd" d="M600 100h100v100H600z"/><path fill="#f5dce0" d="M700 100h100v100H700z"/><path fill="#ebd2d4" d="M0 200h100v100H0z"/><path fill="#b58d7f" d="M100 200h100v100H100z"/><path fill="#f3d2de" d="M200 200h100v100H200z"/><path fill="#e7bbc8" d="M300 200h100v100H300z"/><path fill="#dfbbc4" d="M400 200h100v100H400z"/><path fill="#f7d9df" d="M500 200h100v100H500z"/><path fill="#dacddb" d="M600 200h100v100H600z"/><path fill="#edd9df" d="M700 200h100v100H700z"/><path fill="#e0c5c4" d="M0 300h100v100H0z"/><path fill="#ae8d76" d="M100 300h100v100H100z"/><path fill="#ea94b6" d="M200 300h100v100H200z"/><path fill="#d7348a" d="M300 300h100v100H300z"/><path fill="#e683ab" d="M400 300h100v100H400z"/><path fill="#f7e7d5" d="M500 300h100v100H500z"/><path fill="#b3a190" d="M600 300h100v100H600z"/><path fill="#e9d3d7" d="M700 300h100v100H700z"/><path fill="#c4a5a2" d="M0 400h100v100H0z"/><path fill="#a88954" d="M100 400h100v100H100z"/><path fill="#fac369" d="M200 400h100v100H200z"/><path fill="#f47828" d="M300 400h100v100H300z"/><path fill="#e63d12" d="M400 400h100v100H400z"/><path fill="#cf8439" d="M500 400h100v100H500z"/><path fill="#e3d375" d="M600 400h100v100H600z"/><path fill="#f3dec8" d="M700 400h100v100H700z"/><path fill="#d6c1aa" d="M0 500h100v100H0z"/><path fill="#e2cf8a" d="M100 500h100v100H100z"/><path fill="#f9d37b" d="M200 500h100v100H200z"/><path fill="#f6be5a" d="M300 500h100v100H300z"/><path fill="#f3c36b" d="M400 500h100v100H400z"/><path fill="#efc072" d="M500 500h100v100H500z"/><path fill="#eee2a8" d="M600 500h100v100H600z"/><path fill="#f2e6b7" d="M700 500h100v100H700z"/></svg>