<svg xmlns="http://www.w3.org/2000/svg" viewBox="0 0 800 500"><defs/><path fill="#edeced" d="M0 0h100v100H0z"/><path fill="#dbdbdb" d="M100 0h100v100H100z"/><path fill="#bebdbe" d="M200 0h100v100H200z"/><path fill="#e2e1e2" d="M300 0h100v100H300z"/><path fill="#e8e8e8" d="M400 0h100v100H400z"/><path fill="#e6e6e6" d="M500 0h100v100H500z"/><path fill="#e7e6e7" d="M600 0h100v100H600z"/><path fill="#ededed" d="M700 0h100v100H700z"/><path fill="#ebebeb" d="M0 100h100v100H0z"/><path fill="#d2d1d1" d="M100 100h100v100H100z"/><path fill="#858484" d="M200 100h100v100H200z"/><path fill="#dad9d9" d="M300 100h100v100H300z"/><path fill="#fbfbfb" d="M400 100h100v100H400z"/><path fill="#f4f4f4" d="M500 100h100v100H500z"/><path fill="#d3d2d3" d="M600 100h100v100H600z"/><path fill="#e7e7e7" d="M700 100h100v100H700z"/><path fill="#dcdbdb" d="M0 200h100v100H0z"/><path fill="#a6a5a5" d="M100 200h100v100H100z"/><path fill="#8d8c8c" d="M200 200h100v100H200z"/><path fill="#cecece" d="M300 200h100v100H300z"/><path fill="#efeeef" d="M400 200h100v100H400z"/><path fill="#f0eff0" d="M500 200h100v100H500z"/><path fill="#cbcacb" d="M600 200h100v100H600z"/><path fill="#e0dfe0" d="M700 200h100v100H700z"/><path fill="#e1e1e1" d="M0 300h100v100H0z"/><path fill="#aaa9a9" d="M100 300h100v100H100z"/><path fill="#adacac" d="M200 300h100v100H200z"/><path fill="#c8c8c8" d="M300 300h100v100H300z"/><path fill="#c0bfc0" d="M400 300h100v100H400z"/><path fill="#c9c8c9" d="M500 300h100v100H500z"/><path fill="#c1c0c1" d="M600 300h100v100H600z"/><path fill="#d5d4d5" d="M700 300h100v100H700z"/><path fill="#e7e7e7" d="M0 400h100v100H0z"/><path fill="#e6e6e6" d="M100 400h100v100H100z"/><path fill="#dadada" d="M200 400h100v100H200z"/><path fill="#dbdbdb" d="M300 400h100v100H300z"/><path fill="#dbdadb" d="M400 400h100v100H400z"/><path fill="#dbdbdb" d="M500 400h100v100H500z"/><path fill="#e0dfdf" d="M600 400h100v100H600z"/><path fill="#e2e2e2" d="M700 400h100v100H700z"/></svg>