<svg xmlns="http://www.w3.org/2000/svg" viewBox="0 0 800 400"><defs/><path fill="#c4b2a3" d="M0 0h100v100H0z"/><path fill="#9b9982" d="M100 0h100v100H100z"/><path fill="#cebeac" d="M200 0h100v100H200z"/><path fill="#c4b5a3" d="M300 0h100v100H300z"/><path fill="#b4a58e" d="M400 0h100v100H400z"/><path fill="#b4a99b" d="M500 0h100v100H500z"/><path fill="#b8af8d" d="M600 0h100v100H600z"/><path fill="#79a0ac" d="M700 0h100v100H700z"/><path fill="#bab0a0" d="M0 100h100v100H0z"/><path fill="#ada28c" d="M100 100h100v100H100z"/><path fill="#c1ada0" d="M200 100h100v100H200z"/><path fill="#a79a8f" d="M300 100h100v100H300z"/><path fill="#cebda3" d="M400 100h100v100H400z"/><path fill="#c6b5a4" d="M500 100h100v100H500z"/><path fill="#bbb49c" d="M600 100h100v100H600z"/><path fill="#769ea6" d="M700 100h100v100H700z"/><path fill="#a49f8c" d="M0 200h100v100H0z"/><path fill="#aa9f8b" d="M100 200h100v100H100z"/><path fill="#c0ab9f" d="M200 200h100v100H200z"/><path fill="#afa49b" d="M300 200h100v100H300z"/><path fill="#a69f96" d="M400 200h100v100H400z"/><path fill="#90919b" d="M500 200h100v100H500z"/><path fill="#a29f98" d="M600 200h100v100H600z"/><path fill="#6499b6" d="M700 200h100v100H700z"/><path fill="#9a9a85" d="M0 300h100v100H0z"/><path fill="#b2ac9e" d="M100 300h100v100H100z"/><path fill="#bfa696" d="M200 300h100v100H200z"/><path fill="#b9a491" d="M300 300h100v100H300z"/><path fill="#968e76" d="M400 300h100v100H400z"/><path fill="#606b72" d="M500 300h100v100H500z"/><path fill="#686e70" d="M600 300h100v100H600z"/><path fill="#728272" d="M700 300h100v100H700z"/></svg>