<svg xmlns="http://www.w3.org/2000/svg" viewBox="0 0 800 400"><defs/><path fill="#636c6c" d="M0 0h100v100H0z"/><path fill="#515044" d="M100 0h100v100H100z"/><path fill="#c5855b" d="M200 0h100v100H200z"/><path fill="#be8859" d="M300 0h100v100H300z"/><path fill="#d79063" d="M400 0h100v100H400z"/><path fill="#be845c" d="M500 0h100v100H500z"/><path fill="#c47c60" d="M600 0h100v100H600z"/><path fill="#785f59" d="M700 0h100v100H700z"/><path fill="#4e5453" d="M0 100h100v100H0z"/><path fill="#3d3928" d="M100 100h100v100H100z"/><path fill="#806a4c" d="M200 100h100v100H200z"/><path fill="#87784e" d="M300 100h100v100H300z"/><path fill="#b1966a" d="M400 100h100v100H400z"/><path fill="#8d7851" d="M500 100h100v100H500z"/><path fill="#6c6235" d="M600 100h100v100H600z"/><path fill="#343a22" d="M700 100h100v100H700z"/><path fill="#4d5350" d="M0 200h100v100H0z"/><path fill="#3c3d26" d="M100 200h100v100H100z"/><path fill="#7a654e" d="M200 200h100v100H200z"/><path fill="#684337" d="M300 200h100v100H300z"/><path fill="#421c21" d="M400 200h100v100H400z"/><path fill="#5f3734" d="M500 200h100v100H500z"/><path fill="#5d5536" d="M600 200h100v100H600z"/><path fill="#333b27" d="M700 200h100v100H700z"/><path fill="#4e514b" d="M0 300h100v100H0z"/><path fill="#343122" d="M100 300h100v100H100z"/><path fill="#937743" d="M200 300h100v100H200z"/><path fill="#725327" d="M300 300h100v100H300z"/><path fill="#392611" d="M400 300h100v100H400z"/><path fill="#57401e" d="M500 300h100v100H500z"/><path fill="#64502d" d="M600 300h100v100H600z"/><path fill="#353329" d="M700 300h100v100H700z"/></svg>