<svg xmlns="http://www.w3.org/2000/svg" viewBox="0 0 800 500"><defs/><path fill="#f2dac9" d="M0 0h100v100H0z"/><path fill="#eed8cd" d="M100 0h100v100H100z"/><path fill="#c3bcb8" d="M200 0h100v100H200z"/><path fill="#d8d5d8" d="M300 0h100v100H300z"/><path fill="#dbdde2" d="M400 0h100v100H400z"/><path fill="#e3dedd" d="M500 0h100v100H500z"/><path fill="#ece1de" d="M600 0h100v100H600z"/><path fill="#bdb4b1" d="M700 0h100v100H700z"/><path fill="#f6d8ca" d="M0 100h100v100H0z"/><path fill="#bca29b" d="M100 100h100v100H100z"/><path fill="#beada4" d="M200 100h100v100H200z"/><path fill="#cdcfdb" d="M300 100h100v100H300z"/><path fill="#c3d3eb" d="M400 100h100v100H400z"/><path fill="#d4c0b9" d="M500 100h100v100H500z"/><path fill="#d2a687" d="M600 100h100v100H600z"/><path fill="#ab9d9a" d="M700 100h100v100H700z"/><path fill="#dabbb3" d="M0 200h100v100H0z"/><path fill="#a07c7b" d="M100 200h100v100H100z"/><path fill="#d3bbb2" d="M200 200h100v100H200z"/><path fill="#d3bcb6" d="M300 200h100v100H300z"/><path fill="#c6aaab" d="M400 200h100v100H400z"/><path fill="#cba593" d="M500 200h100v100H500z"/><path fill="#ca9d7c" d="M600 200h100v100H600z"/><path fill="#f0cdba" d="M700 200h100v100H700z"/><path fill="#d4baae" d="M0 300h100v100H0z"/><path fill="#9b807d" d="M100 300h100v100H100z"/><path fill="#ceb09c" d="M200 300h100v100H200z"/><path fill="#d0aa71" d="M300 300h100v100H300z"/><path fill="#c3945e" d="M400 300h100v100H400z"/><path fill="#cea28c" d="M500 300h100v100H500z"/><path fill="#bb8392" d="M600 300h100v100H600z"/><path fill="#cdb288" d="M700 300h100v100H700z"/><path fill="#bda187" d="M0 400h100v100H0z"/><path fill="#b09580" d="M100 400h100v100H100z"/><path fill="#bc996a" d="M200 400h100v100H200z"/><path fill="#bc9a5d" d="M300 400h100v100H300z"/><path fill="#bd9c5f" d="M400 400h100v100H400z"/><path fill="#bd9666" d="M500 400h100v100H500z"/><path fill="#b0757c" d="M600 400h100v100H600z"/><path fill="#b6746e" d="M700 400h100v100H700z"/></svg>