<svg xmlns="http://www.w3.org/2000/svg" viewBox="0 0 800 500"><defs/><path fill="#727256" d="M0 0h100v100H0z"/><path fill="#545a3d" d="M100 0h100v100H100z"/><path fill="#4f583a" d="M200 0h100v100H200z"/><path fill="#4a4f36" d="M300 0h100v100H300z"/><path fill="#555b40" d="M400 0h100v100H400z"/><path fill="#555d3d" d="M500 0h100v100H500z"/><path fill="#646c47" d="M600 0h100v100H600z"/><path fill="#6a7451" d="M700 0h100v100H700z"/><path fill="#747857" d="M0 100h100v100H0z"/><path fill="#5e6646" d="M100 100h100v100H100z"/><path fill="#353d2a" d="M200 100h100v100H200z"/><path fill="#373a23" d="M300 100h100v100H300z"/><path fill="#63613c" d="M400 100h100v100H400z"/><path fill="#4b5133" d="M500 100h100v100H500z"/><path fill="#696d48" d="M600 100h100v100H600z"/><path fill="#6c714e" d="M700 100h100v100H700z"/><path fill="#4f5535" d="M0 200h100v100H0z"/><path fill="#3a4230" d="M100 200h100v100H100z"/><path fill="#535336" d="M200 200h100v100H200z"/><path fill="#b29850" d="M300 200h100v100H300z"/><path fill="#e0bd64" d="M400 200h100v100H400z"/><path fill="#bc9f4e" d="M500 200h100v100H500z"/><path fill="#cfaa52" d="M600 200h100v100H600z"/><path fill="#8b8159" d="M700 200h100v100H700z"/><path fill="#a8a990" d="M0 300h100v100H0z"/><path fill="#b49954" d="M100 300h100v100H100z"/><path fill="#d9b153" d="M200 300h100v100H200z"/><path fill="#e6be5c" d="M300 300h100v100H300z"/><path fill="#e3c06b" d="M400 300h100v100H400z"/><path fill="#edce84" d="M500 300h100v100H500z"/><path fill="#ebd396" d="M600 300h100v100H600z"/><path fill="#dcd6c7" d="M700 300h100v100H700z"/><path fill="#dcdee0" d="M0 400h100v100H0z"/><path fill="#d9d0b9" d="M100 400h100v100H100z"/><path fill="#dbcba2" d="M200 400h100v100H200z"/><path fill="#dfd1ad" d="M300 400h100v100H300z"/><path fill="#e0dbcd" d="M400 400h100v100H400z"/><path fill="#e2e2e3" d="M500 400h100v100H500z"/><path fill="#e3e5ea" d="M600 400h100v100H600z"/><path fill="#e0e1e3" d="M700 400h100v100H700z"/></svg>