<svg xmlns="http://www.w3.org/2000/svg" viewBox="0 0 800 500"><defs/><path fill="#dadede" d="M0 0h100v100H0z"/><path fill="#dddedc" d="M100 0h100v100H100z"/><path fill="#d9dcd6" d="M200 0h100v100H200z"/><path fill="#dbdcd5" d="M300 0h100v100H300z"/><path fill="#ddded9" d="M400 0h100v100H400z"/><path fill="#e3e1de" d="M500 0h100v100H500z"/><path fill="#dddbda" d="M600 0h100v100H600z"/><path fill="#e1e4e3" d="M700 0h100v100H700z"/><path fill="#c6cdcd" d="M0 100h100v100H0z"/><path fill="#d4d6d7" d="M100 100h100v100H100z"/><path fill="#dcddd7" d="M200 100h100v100H200z"/><path fill="#cbcac0" d="M300 100h100v100H300z"/><path fill="#d8d9d4" d="M400 100h100v100H400z"/><path fill="#ebeaea" d="M500 100h100v100H500z"/><path fill="#ded9d8" d="M600 100h100v100H600z"/><path fill="#e0e3e1" d="M700 100h100v100H700z"/><path fill="#cdd3d3" d="M0 200h100v100H0z"/><path fill="#dcddd9" d="M100 200h100v100H100z"/><path fill="#a9aeac" d="M200 200h100v100H200z"/><path fill="#53605f" d="M300 200h100v100H300z"/><path fill="#76807d" d="M400 200h100v100H400z"/><path fill="#f5f6f6" d="M500 200h100v100H500z"/><path fill="#fff" d="M600 200h100v100H600z"/><path fill="#e4e8e8" d="M700 200h100v100H700z"/><path fill="#c1c1be" d="M0 300h100v100H0z"/><path fill="#a7a092" d="M100 300h100v100H100z"/><path fill="#474e4b" d="M200 300h100v100H200z"/><path fill="#7b7b7a" d="M300 300h100v100H300z"/><path fill="#414847" d="M400 300h100v100H400z"/><path fill="#989a8d" d="M500 300h100v100H500z"/><path fill="#dcd8cd" d="M600 300h100v100H600z"/><path fill="#c5c7c8" d="M700 300h100v100H700z"/><path fill="#d8d3cc" d="M0 400h100v100H0z"/><path fill="#bfb5ad" d="M100 400h100v100H100z"/><path fill="#b1a8a9" d="M200 400h100v100H200z"/><path fill="#9f9d9d" d="M300 400h100v100H300z"/><path fill="#989695" d="M400 400h100v100H400z"/><path fill="#b9afa9" d="M500 400h100v100H500z"/><path fill="#bbb0aa" d="M600 400h100v100H600z"/><path fill="#cac2c4" d="M700 400h100v100H700z"/></svg>