<svg xmlns="http://www.w3.org/2000/svg" viewBox="0 0 800 500"><defs/><path fill="#2f332e" d="M0 0h100v100H0z"/><path fill="#6a7367" d="M100 0h100v100H100z"/><path fill="#4c544a" d="M200 0h100v100H200z"/><path fill="#2a3722" d="M300 0h100v100H300z"/><path fill="#3e4228" d="M400 0h100v100H400z"/><path fill="#444c35" d="M500 0h100v100H500z"/><path fill="#545d4a" d="M600 0h100v100H600z"/><path fill="#2d352e" d="M700 0h100v100H700z"/><path fill="#666f64" d="M0 100h100v100H0z"/><path fill="#ecffe4" d="M100 100h100v100H100z"/><path fill="#a9b298" d="M200 100h100v100H200z"/><path fill="#5b6b4b" d="M300 100h100v100H300z"/><path fill="#99b273" d="M400 100h100v100H400z"/><path fill="#a0b67d" d="M500 100h100v100H500z"/><path fill="#a9bd9d" d="M600 100h100v100H600z"/><path fill="#627261" d="M700 100h100v100H700z"/><path fill="#5e6459" d="M0 200h100v100H0z"/><path fill="#d6e6cd" d="M100 200h100v100H100z"/><path fill="#aca68b" d="M200 200h100v100H200z"/><path fill="#7b5e45" d="M300 200h100v100H300z"/><path fill="#465734" d="M400 200h100v100H400z"/><path fill="#4c583f" d="M500 200h100v100H500z"/><path fill="#85957c" d="M600 200h100v100H600z"/><path fill="#525e4f" d="M700 200h100v100H700z"/><path fill="#666e63" d="M0 300h100v100H0z"/><path fill="#e3f5d9" d="M100 300h100v100H100z"/><path fill="#b1bba4" d="M200 300h100v100H200z"/><path fill="#6a493c" d="M300 300h100v100H300z"/><path fill="#7a7e65" d="M400 300h100v100H400z"/><path fill="#667257" d="M500 300h100v100H500z"/><path fill="#707e67" d="M600 300h100v100H600z"/><path fill="#4f5c4c" d="M700 300h100v100H700z"/><path fill="#343733" d="M0 400h100v100H0z"/><path fill="#6d756a" d="M100 400h100v100H100z"/><path fill="#49544c" d="M200 400h100v100H200z"/><path fill="#322825" d="M300 400h100v100H300z"/><path fill="#5c5d54" d="M400 400h100v100H400z"/><path fill="#474d3e" d="M500 400h100v100H500z"/><path fill="#2f3529" d="M600 400h100v100H600z"/><path fill="#262c24" d="M700 400h100v100H700z"/></svg>