<svg xmlns="http://www.w3.org/2000/svg" viewBox="0 0 800 600"><defs/><path fill="#f9e10a" d="M0 0h100v100H0z"/><path fill="#f9df00" d="M100 0h100v100H100z"/><path fill="#f3e455" d="M200 0h100v100H200z"/><path fill="#cbe3fb" d="M300 0h100v100H300z"/><path fill="#c3e4f1" d="M400 0h100v100H400z"/><path fill="#caebfb" d="M500 0h100v100H500z"/><path fill="#a1a59e" d="M600 0h100v100H600z"/><path fill="#b0b9b4" d="M700 0h100v100H700z"/><path fill="#ffe603" d="M0 100h100v100H0z"/><path fill="#ffe500" d="M100 100h100v100H100z"/><path fill="#f7eb50" d="M200 100h100v100H200z"/><path fill="#c6cfe5" d="M300 100h100v100H300z"/><path fill="#c2d3dd" d="M400 100h100v100H400z"/><path fill="#c7ebfc" d="M500 100h100v100H500z"/><path fill="#c1bfb6" d="M600 100h100v100H600z"/><path fill="#c0c7c4" d="M700 100h100v100H700z"/><path fill="#f5df17" d="M0 200h100v100H0z"/><path fill="#f0dd2e" d="M100 200h100v100H100z"/><path fill="#eadf44" d="M200 200h100v100H200z"/><path fill="#c8dcf5" d="M300 200h100v100H300z"/><path fill="#cbdfe7" d="M400 200h100v100H400z"/><path fill="#c8e1ef" d="M500 200h100v100H500z"/><path fill="#c9dfe7" d="M600 200h100v100H600z"/><path fill="#c2d3db" d="M700 200h100v100H700z"/><path fill="#f5e220" d="M0 300h100v100H0z"/><path fill="#f1de14" d="M100 300h100v100H100z"/><path fill="#f1e45c" d="M200 300h100v100H200z"/><path fill="#c8e0fc" d="M300 300h100v100H300z"/><path fill="#c9e2ed" d="M400 300h100v100H400z"/><path fill="#cbe1ee" d="M500 300h100v100H500z"/><path fill="#cce2f0" d="M600 300h100v100H600z"/><path fill="#c1c6cd" d="M700 300h100v100H700z"/><path fill="#bcae9e" d="M0 400h100v100H0z"/><path fill="#c6baa2" d="M100 400h100v100H100z"/><path fill="#a9a895" d="M200 400h100v100H200z"/><path fill="#a7a59f" d="M300 400h100v100H300z"/><path fill="#a799a0" d="M400 400h100v100H400z"/><path fill="#a08d99" d="M500 400h100v100H500z"/><path fill="#9f969d" d="M600 400h100v100H600z"/><path fill="#ada4ab" d="M700 400h100v100H700z"/><path fill="#c3b9b7" d="M0 500h100v100H0z"/><path fill="#afa9a7" d="M100 500h100v100H100z"/><path fill="#a1a19b" d="M200 500h100v100H200z"/><path fill="#b4b7a6" d="M300 500h100v100H300z"/><path fill="#937d7e" d="M400 500h100v100H400z"/><path fill="#887a86" d="M500 500h100v100H500z"/><path fill="#797380" d="M600 500h100v100H600z"/><path fill="#827585" d="M700 500h100v100H700z"/></svg>