<svg xmlns="http://www.w3.org/2000/svg" viewBox="0 0 800 400"><defs/><path fill="#bba48a" d="M0 0h100v100H0z"/><path fill="#b08255" d="M100 0h100v100H100z"/><path fill="#cbc1ba" d="M200 0h100v100H200z"/><path fill="#cfa973" d="M300 0h100v100H300z"/><path fill="#ccc4bd" d="M400 0h100v100H400z"/><path fill="#aea8a9" d="M500 0h100v100H500z"/><path fill="#a69d97" d="M600 0h100v100H600z"/><path fill="#c2c1c0" d="M700 0h100v100H700z"/><path fill="#ba8760" d="M0 100h100v100H0z"/><path fill="#a38579" d="M100 100h100v100H100z"/><path fill="#c3c6bc" d="M200 100h100v100H200z"/><path fill="#c8ba9f" d="M300 100h100v100H300z"/><path fill="#beac94" d="M400 100h100v100H400z"/><path fill="#929092" d="M500 100h100v100H500z"/><path fill="#87838b" d="M600 100h100v100H600z"/><path fill="#aca7a7" d="M700 100h100v100H700z"/><path fill="#b1a081" d="M0 200h100v100H0z"/><path fill="#a36c3f" d="M100 200h100v100H100z"/><path fill="#836659" d="M200 200h100v100H200z"/><path fill="#b58466" d="M300 200h100v100H300z"/><path fill="#c6906d" d="M400 200h100v100H400z"/><path fill="#9b8b82" d="M500 200h100v100H500z"/><path fill="#917667" d="M600 200h100v100H600z"/><path fill="#bbaba3" d="M700 200h100v100H700z"/><path fill="#8c6c6c" d="M0 300h100v100H0z"/><path fill="#92552e" d="M100 300h100v100H100z"/><path fill="#aa5e3c" d="M200 300h100v100H200z"/><path fill="#b55f25" d="M300 300h100v100H300z"/><path fill="#a1645e" d="M400 300h100v100H400z"/><path fill="#ab857e" d="M500 300h100v100H500z"/><path fill="#a85d3d" d="M600 300h100v100H600z"/><path fill="#b17d5d" d="M700 300h100v100H700z"/></svg>