<svg xmlns="http://www.w3.org/2000/svg" viewBox="0 0 800 400"><defs/><path fill="#503043" d="M0 0h100v100H0z"/><path fill="#7c6369" d="M100 0h100v100H100z"/><path fill="#744656" d="M200 0h100v100H200z"/><path fill="#753951" d="M300 0h100v100H300z"/><path fill="#734654" d="M400 0h100v100H400z"/><path fill="#70344b" d="M500 0h100v100H500z"/><path fill="#68464a" d="M600 0h100v100H600z"/><path fill="#827a5f" d="M700 0h100v100H700z"/><path fill="#643f46" d="M0 100h100v100H0z"/><path fill="#694f5a" d="M100 100h100v100H100z"/><path fill="#634149" d="M200 100h100v100H200z"/><path fill="#aa835d" d="M300 100h100v100H300z"/><path fill="#b88759" d="M400 100h100v100H400z"/><path fill="#5a3c40" d="M500 100h100v100H500z"/><path fill="#413c51" d="M600 100h100v100H600z"/><path fill="#8a9a9b" d="M700 100h100v100H700z"/><path fill="#42384c" d="M0 200h100v100H0z"/><path fill="#55495b" d="M100 200h100v100H100z"/><path fill="#5f5665" d="M200 200h100v100H200z"/><path fill="#9c6a51" d="M300 200h100v100H300z"/><path fill="#99684e" d="M400 200h100v100H400z"/><path fill="#957e6e" d="M500 200h100v100H500z"/><path fill="#899392" d="M600 200h100v100H600z"/><path fill="#94a69f" d="M700 200h100v100H700z"/><path fill="#4b3f62" d="M0 300h100v100H0z"/><path fill="#585164" d="M100 300h100v100H100z"/><path fill="#625663" d="M200 300h100v100H200z"/><path fill="#723341" d="M300 300h100v100H300z"/><path fill="#753b45" d="M400 300h100v100H400z"/><path fill="#959292" d="M500 300h100v100H500z"/><path fill="#adb1aa" d="M600 300h100v100H600z"/><path fill="#778b90" d="M700 300h100v100H700z"/></svg>