<svg xmlns="http://www.w3.org/2000/svg" viewBox="0 0 800 500"><defs/><path fill="#bba697" d="M0 0h100v100H0z"/><path fill="#baab9b" d="M100 0h100v100H100z"/><path fill="#c4b5a6" d="M200 0h100v100H200z"/><path fill="#cab9a8" d="M300 0h100v100H300z"/><path fill="#c4b2a2" d="M400 0h100v100H400z"/><path fill="#bfaf9f" d="M500 0h100v100H500z"/><path fill="#bbac97" d="M600 0h100v100H600z"/><path fill="#9b836f" d="M700 0h100v100H700z"/><path fill="#ac9e8e" d="M0 100h100v100H0z"/><path fill="#ad9784" d="M100 100h100v100H100z"/><path fill="#b7a698" d="M200 100h100v100H200z"/><path fill="#baa491" d="M300 100h100v100H300z"/><path fill="#bfa994" d="M400 100h100v100H400z"/><path fill="#b8a494" d="M500 100h100v100H500z"/><path fill="#af9d8a" d="M600 100h100v100H600z"/><path fill="#9c876c" d="M700 100h100v100H700z"/><path fill="#b3a495" d="M0 200h100v100H0z"/><path fill="#ac9989" d="M100 200h100v100H100z"/><path fill="#b7a694" d="M200 200h100v100H200z"/><path fill="#ab947e" d="M300 200h100v100H300z"/><path fill="#a59582" d="M400 200h100v100H400z"/><path fill="#a59480" d="M500 200h100v100H500z"/><path fill="#9e8a7a" d="M600 200h100v100H600z"/><path fill="#a08d75" d="M700 200h100v100H700z"/><path fill="#b6a28a" d="M0 300h100v100H0z"/><path fill="#aa957d" d="M100 300h100v100H100z"/><path fill="#ae9a89" d="M200 300h100v100H200z"/><path fill="#a88067" d="M300 300h100v100H300z"/><path fill="#a0806c" d="M400 300h100v100H400z"/><path fill="#9d876d" d="M500 300h100v100H500z"/><path fill="#8d816a" d="M600 300h100v100H600z"/><path fill="#867d6e" d="M700 300h100v100H700z"/><path fill="#b19a7b" d="M0 400h100v100H0z"/><path fill="#b29a7b" d="M100 400h100v100H100z"/><path fill="#ad977f" d="M200 400h100v100H200z"/><path fill="#b09074" d="M300 400h100v100H300z"/><path fill="#b1927f" d="M400 400h100v100H400z"/><path fill="#b29783" d="M500 400h100v100H500z"/><path fill="#9a9382" d="M600 400h100v100H600z"/><path fill="#7f7c6f" d="M700 400h100v100H700z"/></svg>