<svg xmlns="http://www.w3.org/2000/svg" viewBox="0 0 800 400"><defs/><path fill="#918a82" d="M0 0h100v100H0z"/><path fill="#b7b4b2" d="M100 0h100v100H100z"/><path fill="#cdc7be" d="M200 0h100v100H200z"/><path fill="#c3bfb4" d="M300 0h100v100H300z"/><path fill="#71acc2" d="M400 0h100v100H400z"/><path fill="#63a7c4" d="M500 0h100v100H500z"/><path fill="#a1b6ba" d="M600 0h100v100H600z"/><path fill="#7ea4af" d="M700 0h100v100H700z"/><path fill="#9d978f" d="M0 100h100v100H0z"/><path fill="#d2cfcb" d="M100 100h100v100H100z"/><path fill="#aea192" d="M200 100h100v100H200z"/><path fill="#bda999" d="M300 100h100v100H300z"/><path fill="#6fb1ae" d="M400 100h100v100H400z"/><path fill="#41a4a0" d="M500 100h100v100H500z"/><path fill="#abb9b7" d="M600 100h100v100H600z"/><path fill="#5fa1ba" d="M700 100h100v100H700z"/><path fill="#aba7a2" d="M0 200h100v100H0z"/><path fill="#bebcb8" d="M100 200h100v100H100z"/><path fill="#aca092" d="M200 200h100v100H200z"/><path fill="#ceb7af" d="M300 200h100v100H300z"/><path fill="#9cc896" d="M400 200h100v100H400z"/><path fill="#70bb72" d="M500 200h100v100H500z"/><path fill="#bcc7b1" d="M600 200h100v100H600z"/><path fill="#629866" d="M700 200h100v100H700z"/><path fill="#bebdbb" d="M0 300h100v100H0z"/><path fill="#c8c8c9" d="M100 300h100v100H100z"/><path fill="#efefef" d="M200 300h100v100H200z"/><path fill="#eff0f0" d="M300 300h100v100H300z"/><path fill="#f4f1f4" d="M400 300h100v100H400z"/><path fill="#f9f3f8" d="M500 300h100v100H500z"/><path fill="#eef1f0" d="M600 300h100v100H600z"/><path fill="#b8cab3" d="M700 300h100v100H700z"/></svg>