<svg xmlns="http://www.w3.org/2000/svg" viewBox="0 0 800 500"><defs/><path fill="#a5a29a" d="M0 0h100v100H0z"/><path fill="#978283" d="M100 0h100v100H100z"/><path fill="#916069" d="M200 0h100v100H200z"/><path fill="#a27875" d="M300 0h100v100H300z"/><path fill="#ad9285" d="M400 0h100v100H400z"/><path fill="#ad9b7e" d="M500 0h100v100H500z"/><path fill="#b2aa8b" d="M600 0h100v100H600z"/><path fill="#b5b4aa" d="M700 0h100v100H700z"/><path fill="#958f88" d="M0 100h100v100H0z"/><path fill="#8f7374" d="M100 100h100v100H100z"/><path fill="#99626c" d="M200 100h100v100H200z"/><path fill="#91655b" d="M300 100h100v100H300z"/><path fill="#896e61" d="M400 100h100v100H400z"/><path fill="#9e886f" d="M500 100h100v100H500z"/><path fill="#a19a7b" d="M600 100h100v100H600z"/><path fill="#a39d98" d="M700 100h100v100H700z"/><path fill="#a7a59e" d="M0 200h100v100H0z"/><path fill="#915b59" d="M100 200h100v100H100z"/><path fill="#774441" d="M200 200h100v100H200z"/><path fill="#764e42" d="M300 200h100v100H300z"/><path fill="#784f39" d="M400 200h100v100H400z"/><path fill="#665038" d="M500 200h100v100H500z"/><path fill="#484334" d="M600 200h100v100H600z"/><path fill="#877976" d="M700 200h100v100H700z"/><path fill="#a6a092" d="M0 300h100v100H0z"/><path fill="#843d46" d="M100 300h100v100H100z"/><path fill="#6d2f2d" d="M200 300h100v100H200z"/><path fill="#653d33" d="M300 300h100v100H300z"/><path fill="#9d3f4c" d="M400 300h100v100H400z"/><path fill="#5f3124" d="M500 300h100v100H500z"/><path fill="#644e4e" d="M600 300h100v100H600z"/><path fill="#929086" d="M700 300h100v100H700z"/><path fill="#87744e" d="M0 400h100v100H0z"/><path fill="#6e4d34" d="M100 400h100v100H100z"/><path fill="#6f4430" d="M200 400h100v100H200z"/><path fill="#704e32" d="M300 400h100v100H300z"/><path fill="#a45d57" d="M400 400h100v100H400z"/><path fill="#9d5a56" d="M500 400h100v100H500z"/><path fill="#a86c6c" d="M600 400h100v100H600z"/><path fill="#ae7b70" d="M700 400h100v100H700z"/></svg>