<svg xmlns="http://www.w3.org/2000/svg" viewBox="0 0 800 600"><defs/><path fill="#b1a5b4" d="M0 0h100v100H0z"/><path fill="#a99e92" d="M100 0h100v100H100z"/><path fill="#b9b8b2" d="M200 0h100v100H200z"/><path fill="#b2afaa" d="M300 0h100v100H300z"/><path fill="#b2afa6" d="M400 0h100v100H400z"/><path fill="#b5b1a8" d="M500 0h100v100H500z"/><path fill="#b5b2ae" d="M600 0h100v100H600z"/><path fill="#babdc7" d="M700 0h100v100H700z"/><path fill="#a498a4" d="M0 100h100v100H0z"/><path fill="#9f9b8f" d="M100 100h100v100H100z"/><path fill="#a9aeab" d="M200 100h100v100H200z"/><path fill="#9fa4a6" d="M300 100h100v100H300z"/><path fill="#99a9ae" d="M400 100h100v100H400z"/><path fill="#98adb5" d="M500 100h100v100H500z"/><path fill="#94a1a9" d="M600 100h100v100H600z"/><path fill="#a3abb4" d="M700 100h100v100H700z"/><path fill="#a59497" d="M0 200h100v100H0z"/><path fill="#a39b91" d="M100 200h100v100H100z"/><path fill="#a2a09b" d="M200 200h100v100H200z"/><path fill="#969899" d="M300 200h100v100H300z"/><path fill="#8b9aa5" d="M400 200h100v100H400z"/><path fill="#8a9aa3" d="M500 200h100v100H500z"/><path fill="#999e9f" d="M600 200h100v100H600z"/><path fill="#b0afbd" d="M700 200h100v100H700z"/><path fill="#a08b7e" d="M0 300h100v100H0z"/><path fill="#96867b" d="M100 300h100v100H100z"/><path fill="#957e6f" d="M200 300h100v100H200z"/><path fill="#948077" d="M300 300h100v100H300z"/><path fill="#a59893" d="M400 300h100v100H400z"/><path fill="#ae8e84" d="M500 300h100v100H500z"/><path fill="#a98c83" d="M600 300h100v100H600z"/><path fill="#b0abb8" d="M700 300h100v100H700z"/><path fill="#a6927e" d="M0 400h100v100H0z"/><path fill="#a6978f" d="M100 400h100v100H100z"/><path fill="#9d9999" d="M200 400h100v100H200z"/><path fill="#929697" d="M300 400h100v100H300z"/><path fill="#9ba0a5" d="M400 400h100v100H400z"/><path fill="#a49794" d="M500 400h100v100H500z"/><path fill="#ac958a" d="M600 400h100v100H600z"/><path fill="#afa9ab" d="M700 400h100v100H700z"/><path fill="#a9998a" d="M0 500h100v100H0z"/><path fill="#a9a0ae" d="M100 500h100v100H100z"/><path fill="#a7a3ba" d="M200 500h100v100H200z"/><path fill="#9ea3ac" d="M300 500h100v100H300z"/><path fill="#aba5b9" d="M400 500h100v100H400z"/><path fill="#aaa4ae" d="M500 500h100v100H500z"/><path fill="#ab9988" d="M600 500h100v100H600z"/><path fill="#aea397" d="M700 500h100v100H700z"/></svg>