<svg xmlns="http://www.w3.org/2000/svg" viewBox="0 0 800 500"><defs/><path fill="#6a6766" d="M0 0h100v100H0z"/><path fill="#666463" d="M100 0h100v100H100z"/><path fill="#7c7a78" d="M200 0h100v100H200z"/><path fill="#807e7c" d="M300 0h100v100H300z"/><path fill="#716c6c" d="M400 0h100v100H400z"/><path fill="#635d59" d="M500 0h100v100H500z"/><path fill="#4c443f" d="M600 0h100v100H600z"/><path fill="#443832" d="M700 0h100v100H700z"/><path fill="#312f2f" d="M0 100h100v100H0z"/><path fill="#151211" d="M100 100h100v100H100z"/><path fill="#272422" d="M200 100h100v100H200z"/><path fill="#2c251f" d="M300 100h100v100H300z"/><path fill="#3e352e" d="M400 100h100v100H400z"/><path fill="#0e0b09" d="M500 100h100v100H500z"/><path d="M600 100h100v100H600z"/><path fill="#110f0e" d="M700 100h100v100H700z"/><path fill="#4b4948" d="M0 200h100v100H0z"/><path fill="#42453a" d="M100 200h100v100H100z"/><path fill="#6c6453" d="M200 200h100v100H200z"/><path fill="#7c6d58" d="M300 200h100v100H300z"/><path fill="#a89485" d="M400 200h100v100H400z"/><path fill="#6c5f50" d="M500 200h100v100H500z"/><path fill="#534636" d="M600 200h100v100H600z"/><path fill="#1c140f" d="M700 200h100v100H700z"/><path fill="#454242" d="M0 300h100v100H0z"/><path fill="#485041" d="M100 300h100v100H100z"/><path fill="#92946e" d="M200 300h100v100H200z"/><path fill="#746855" d="M300 300h100v100H300z"/><path fill="#6a6159" d="M400 300h100v100H400z"/><path fill="#5e533f" d="M500 300h100v100H500z"/><path fill="#6d614a" d="M600 300h100v100H600z"/><path fill="#15100f" d="M700 300h100v100H700z"/><path fill="#343333" d="M0 400h100v100H0z"/><path fill="#24261f" d="M100 400h100v100H100z"/><path fill="#535e4c" d="M200 400h100v100H200z"/><path fill="#484742" d="M300 400h100v100H300z"/><path fill="#332f2e" d="M400 400h100v100H400z"/><path fill="#181410" d="M500 400h100v100H500z"/><path fill="#090402" d="M600 400h100v100H600z"/><path fill="#181311" d="M700 400h100v100H700z"/></svg>