<svg xmlns="http://www.w3.org/2000/svg" viewBox="0 0 800 400"><defs/><path fill="#dfdadb" d="M0 0h100v100H0z"/><path fill="#dbd7d6" d="M100 0h100v100H100z"/><path fill="#d1d0cc" d="M200 0h100v100H200z"/><path fill="#d5d2de" d="M300 0h100v100H300z"/><path fill="#d9e2d8" d="M400 0h100v100H400z"/><path fill="#e6e6e5" d="M500 0h100v100H500z"/><path fill="#e9ecf3" d="M600 0h100v100H600z"/><path fill="#e5e2e2" d="M700 0h100v100H700z"/><path fill="#d6d1d3" d="M0 100h100v100H0z"/><path fill="#d7cfd2" d="M100 100h100v100H100z"/><path fill="#c4c3ca" d="M200 100h100v100H200z"/><path fill="#d3d5dd" d="M300 100h100v100H300z"/><path fill="#d6e5e3" d="M400 100h100v100H400z"/><path fill="#e3eef0" d="M500 100h100v100H500z"/><path fill="#e4e7ed" d="M600 100h100v100H600z"/><path fill="#e8e3e4" d="M700 100h100v100H700z"/><path fill="#e2dcde" d="M0 200h100v100H0z"/><path fill="#d1c7ce" d="M100 200h100v100H100z"/><path fill="#d7cdd8" d="M200 200h100v100H200z"/><path fill="#dbd8e2" d="M300 200h100v100H300z"/><path fill="#dbded2" d="M400 200h100v100H400z"/><path fill="#e3ddcc" d="M500 200h100v100H500z"/><path fill="#ccb9bb" d="M600 200h100v100H600z"/><path fill="#e6e0e2" d="M700 200h100v100H700z"/><path fill="#dcd4d9" d="M0 300h100v100H0z"/><path fill="#e0d5dc" d="M100 300h100v100H100z"/><path fill="#e3e0ed" d="M200 300h100v100H200z"/><path fill="#d5cacf" d="M300 300h100v100H300z"/><path fill="#d7ccd0" d="M400 300h100v100H400z"/><path fill="#dcd8e4" d="M500 300h100v100H500z"/><path fill="#e0d5dd" d="M600 300h100v100H600z"/><path fill="#e3dde4" d="M700 300h100v100H700z"/></svg>