<svg xmlns="http://www.w3.org/2000/svg" viewBox="0 0 800 500"><defs/><path fill="#225579" d="M0 0h100v100H0z"/><path fill="#23597f" d="M100 0h100v100H100z"/><path fill="#245b82" d="M200 0h100v100H200z"/><path fill="#2c5b7f" d="M300 0h100v100H300z"/><path fill="#335c7c" d="M400 0h100v100H400z"/><path fill="#425e76" d="M500 0h100v100H500z"/><path fill="#335f82" d="M600 0h100v100H600z"/><path fill="#2d5f85" d="M700 0h100v100H700z"/><path fill="#34506b" d="M0 100h100v100H0z"/><path fill="#385570" d="M100 100h100v100H100z"/><path fill="#3b5a77" d="M200 100h100v100H200z"/><path fill="#3d5e7f" d="M300 100h100v100H300z"/><path fill="#3b5e7f" d="M400 100h100v100H400z"/><path fill="#4c5763" d="M500 100h100v100H500z"/><path fill="#5d5753" d="M600 100h100v100H600z"/><path fill="#44586b" d="M700 100h100v100H700z"/><path fill="#5b523a" d="M0 200h100v100H0z"/><path fill="#5f573f" d="M100 200h100v100H100z"/><path fill="#605644" d="M200 200h100v100H200z"/><path fill="#716860" d="M300 200h100v100H300z"/><path fill="#655f56" d="M400 200h100v100H400z"/><path fill="#74634e" d="M500 200h100v100H500z"/><path fill="#81684f" d="M600 200h100v100H600z"/><path fill="#665740" d="M700 200h100v100H700z"/><path fill="#735c45" d="M0 300h100v100H0z"/><path fill="#604f3a" d="M100 300h100v100H100z"/><path fill="#4f4534" d="M200 300h100v100H200z"/><path fill="#5e574e" d="M300 300h100v100H300z"/><path fill="#544f47" d="M400 300h100v100H400z"/><path fill="#6c5a46" d="M500 300h100v100H500z"/><path fill="#65523c" d="M600 300h100v100H600z"/><path fill="#736048" d="M700 300h100v100H700z"/><path fill="#594737" d="M0 400h100v100H0z"/><path fill="#3b3326" d="M100 400h100v100H100z"/><path fill="#353630" d="M200 400h100v100H200z"/><path fill="#3c4347" d="M300 400h100v100H300z"/><path fill="#373f44" d="M400 400h100v100H400z"/><path fill="#3f3c37" d="M500 400h100v100H500z"/><path fill="#504133" d="M600 400h100v100H600z"/><path fill="#564937" d="M700 400h100v100H700z"/></svg>