<svg xmlns="http://www.w3.org/2000/svg" viewBox="0 0 800 600"><defs/><path fill="#fcfdfc" d="M0 0h100v100H0z"/><path fill="#f6f6f6" d="M100 0h100v100H100z"/><path fill="#f5f6f6" d="M200 0h100v100H200z"/><path fill="#f5f6f7" d="M300 0h100v100H300z"/><path fill="#f4f5f7" d="M400 0h100v100H400z"/><path fill="#ebecef" d="M500 0h100v100H500z"/><path fill="#eeeff1" d="M600 0h100v100H600z"/><path fill="#f5f6f8" d="M700 0h100v100H700z"/><path fill="#f1f2f2" d="M0 100h100v100H0z"/><path fill="#ebecec" d="M100 100h100v100H100z"/><path fill="#eee" d="M200 100h100v100H200z"/><path fill="#f4f4f3" d="M300 100h100v100H300z"/><path fill="#f2f2f1" d="M400 100h100v100H400z"/><path fill="#d9dada" d="M500 100h100v100H500z"/><path fill="#dfdfdf" d="M600 100h100v100H600z"/><path fill="#ebebeb" d="M700 100h100v100H700z"/><path fill="#e4e5e5" d="M0 200h100v100H0z"/><path fill="#ededed" d="M100 200h100v100H100z"/><path fill="#e9e9ea" d="M200 200h100v100H200z"/><path fill="#e7e7e7" d="M300 200h100v100H300zm100 0h100v100H400z"/><path fill="#e6e6e6" d="M500 200h100v100H500z"/><path fill="#e0e0e1" d="M600 200h100v100H600z"/><path fill="#ebebec" d="M700 200h100v100H700z"/><path fill="#f9fafa" d="M0 300h100v100H0z"/><path fill="#f1f1f2" d="M100 300h100v100H100z"/><path fill="#eaeaeb" d="M200 300h100v100H200z"/><path fill="#e6e6e7" d="M300 300h100v100H300z"/><path fill="#e9e9e9" d="M400 300h100v100H400z"/><path fill="#efeff0" d="M500 300h100v100H500z"/><path fill="#e8e9eb" d="M600 300h100v100H600z"/><path fill="#ececee" d="M700 300h100v100H700z"/><path fill="#f5f5f5" d="M0 400h100v100H0z"/><path fill="#f8f8f8" d="M100 400h100v100H100z"/><path fill="#ebecec" d="M200 400h100v100H200z"/><path fill="#eff0f0" d="M300 400h100v100H300z"/><path fill="#ededed" d="M400 400h100v100H400z"/><path fill="#e0e0e1" d="M500 400h100v100H500z"/><path fill="#e2e3e4" d="M600 400h100v100H600z"/><path fill="#f8f9f9" d="M700 400h100v100H700z"/><path fill="#f5f5f5" d="M0 500h100v100H0z"/><path fill="#f6f6f6" d="M100 500h100v100H100z"/><path fill="#f5f5f5" d="M200 500h100v100H200z"/><path fill="#f7f7f7" d="M300 500h100v100H300z"/><path fill="#f2f2f2" d="M400 500h100v100H400z"/><path fill="#f2f2f3" d="M500 500h100v100H500z"/><path fill="#f1f1f1" d="M600 500h100v100H600z"/><path fill="#f5f5f5" d="M700 500h100v100H700z"/></svg>