<svg xmlns="http://www.w3.org/2000/svg" viewBox="0 0 800 400"><defs/><path fill="#354844" d="M0 0h100v100H0z"/><path fill="#a97a27" d="M100 0h100v100H100z"/><path fill="#c98b35" d="M200 0h100v100H200z"/><path fill="#c8793f" d="M300 0h100v100H300z"/><path fill="#a35d25" d="M400 0h100v100H400z"/><path fill="#9e4630" d="M500 0h100v100H500z"/><path fill="#91422e" d="M600 0h100v100H600z"/><path fill="#855b2a" d="M700 0h100v100H700z"/><path fill="#434f42" d="M0 100h100v100H0z"/><path fill="#825944" d="M100 100h100v100H100z"/><path fill="#9c4d36" d="M200 100h100v100H200z"/><path fill="#b0593f" d="M300 100h100v100H300z"/><path fill="#8a5828" d="M400 100h100v100H400z"/><path fill="#a2443e" d="M500 100h100v100H500z"/><path fill="#7b4b32" d="M600 100h100v100H600z"/><path fill="#8a4b3f" d="M700 100h100v100H700z"/><path fill="#795c1c" d="M0 200h100v100H0z"/><path fill="#7a6353" d="M100 200h100v100H100z"/><path fill="#5d613f" d="M200 200h100v100H200z"/><path fill="#a37e4d" d="M300 200h100v100H300z"/><path fill="#cc9883" d="M400 200h100v100H400z"/><path fill="#c1997e" d="M500 200h100v100H500z"/><path fill="#a2745d" d="M600 200h100v100H600z"/><path fill="#cea083" d="M700 200h100v100H700z"/><path fill="#326b4d" d="M0 300h100v100H0z"/><path fill="#1b6563" d="M100 300h100v100H100z"/><path fill="#615d55" d="M200 300h100v100H200z"/><path fill="#786942" d="M300 300h100v100H300z"/><path fill="#b0845d" d="M400 300h100v100H400z"/><path fill="#6e574a" d="M500 300h100v100H500z"/><path fill="#513e3b" d="M600 300h100v100H600z"/><path fill="#70564a" d="M700 300h100v100H700z"/></svg>