<svg xmlns="http://www.w3.org/2000/svg" viewBox="0 0 800 600"><defs/><path fill="#f4f6f3" d="M0 0h100v100H0z"/><path fill="#ebf2f1" d="M100 0h100v100H100z"/><path fill="#e0ecf1" d="M200 0h100v100H200z"/><path fill="#e1f0e4" d="M300 0h100v100H300z"/><path fill="#e8e6ed" d="M400 0h100v100H400z"/><path fill="#ded8eb" d="M500 0h100v100H500z"/><path fill="#e1ddea" d="M600 0h100v100H600z"/><path fill="#f4f4f7" d="M700 0h100v100H700z"/><path fill="#f8faf6" d="M0 100h100v100H0z"/><path fill="#edf1ea" d="M100 100h100v100H100z"/><path fill="#ccdfc2" d="M200 100h100v100H200z"/><path fill="#cee2bc" d="M300 100h100v100H300z"/><path fill="#efeeef" d="M400 100h100v100H400z"/><path fill="#e5e3e0" d="M500 100h100v100H500z"/><path fill="#eae7ea" d="M600 100h100v100H600z"/><path fill="#f8f6f7" d="M700 100h100v100H700z"/><path fill="#f3f8eb" d="M0 200h100v100H0z"/><path fill="#eaf1d3" d="M100 200h100v100H100z"/><path fill="#f3f6dd" d="M200 200h100v100H200z"/><path fill="#f1eedd" d="M300 200h100v100H300z"/><path fill="#efefe9" d="M400 200h100v100H400z"/><path fill="#d8d9c3" d="M500 200h100v100H500z"/><path fill="#f5f3f1" d="M600 200h100v100H600z"/><path fill="#fcfcfd" d="M700 200h100v100H700z"/><path fill="#fbfcfe" d="M0 300h100v100H0z"/><path fill="#fff" d="M100 300h100v100H100z"/><path fill="#fefdfd" d="M200 300h100v100H200z"/><path fill="#edeae9" d="M300 300h100v100H300z"/><path fill="#efedeb" d="M400 300h100v100H400z"/><path fill="#f2f8f7" d="M500 300h100v100H500z"/><path fill="#f3f1ef" d="M600 300h100v100H600z"/><path fill="#fae0e2" d="M700 300h100v100H700z"/><path fill="#fcffff" d="M0 400h100v100H0z"/><path fill="#db7f81" d="M100 400h100v100H100z"/><path fill="#df8c8e" d="M200 400h100v100H200z"/><path fill="#fbfffd" d="M300 400h100v100H300z"/><path fill="#fafffd" d="M400 400h100v100H400z"/><path fill="#e8a9ab" d="M500 400h100v100H500z"/><path fill="#cb3439" d="M600 400h100v100H600z"/><path fill="#d65257" d="M700 400h100v100H700z"/><path fill="#fbfeff" d="M0 500h100v100H0z"/><path fill="#da7e83" d="M100 500h100v100H100z"/><path fill="#e09195" d="M200 500h100v100H200z"/><path fill="#fff" d="M300 500h100v100H300zm100 0h100v100H400z"/><path fill="#e7a5a8" d="M500 500h100v100H500z"/><path fill="#d65e63" d="M600 500h100v100H600z"/><path fill="#e08a8e" d="M700 500h100v100H700z"/></svg>