<svg xmlns="http://www.w3.org/2000/svg" viewBox="0 0 800 600"><defs/><path fill="#eebab0" d="M0 0h100v100H0z"/><path fill="#ec9b92" d="M100 0h100v100H100z"/><path fill="#db7877" d="M200 0h100v100H200z"/><path fill="#c98080" d="M300 0h100v100H300z"/><path fill="#cd837f" d="M400 0h100v100H400z"/><path fill="#bc797d" d="M500 0h100v100H500z"/><path fill="#bb6e6d" d="M600 0h100v100H600z"/><path fill="#b97e76" d="M700 0h100v100H700z"/><path fill="#eba39e" d="M0 100h100v100H0z"/><path fill="#ec6c6b" d="M100 100h100v100H100z"/><path fill="#e86d67" d="M200 100h100v100H200z"/><path fill="#ca7471" d="M300 100h100v100H300z"/><path fill="#bb6263" d="M400 100h100v100H400z"/><path fill="#bc565f" d="M500 100h100v100H500z"/><path fill="#ae5157" d="M600 100h100v100H600z"/><path fill="#9f6063" d="M700 100h100v100H700z"/><path fill="#f5b09f" d="M0 200h100v100H0z"/><path fill="#ea6762" d="M100 200h100v100H100z"/><path fill="#dc6c6a" d="M200 200h100v100H200z"/><path fill="#ed8f7b" d="M300 200h100v100H300z"/><path fill="#d86660" d="M400 200h100v100H400z"/><path fill="#b11e39" d="M500 200h100v100H500z"/><path fill="#9f3b4c" d="M600 200h100v100H600z"/><path fill="#a46866" d="M700 200h100v100H700z"/><path fill="#ef9688" d="M0 300h100v100H0z"/><path fill="#e15957" d="M100 300h100v100H100z"/><path fill="#d6616b" d="M200 300h100v100H200z"/><path fill="#dc716a" d="M300 300h100v100H300z"/><path fill="#c75353" d="M400 300h100v100H400z"/><path fill="#b0253d" d="M500 300h100v100H500z"/><path fill="#b2484e" d="M600 300h100v100H600z"/><path fill="#b87667" d="M700 300h100v100H700z"/><path fill="#e07b76" d="M0 400h100v100H0z"/><path fill="#d64c55" d="M100 400h100v100H100z"/><path fill="#cd5763" d="M200 400h100v100H200z"/><path fill="#ac3a4d" d="M300 400h100v100H300z"/><path fill="#9c2d43" d="M400 400h100v100H400z"/><path fill="#b44556" d="M500 400h100v100H500z"/><path fill="#af3948" d="M600 400h100v100H600z"/><path fill="#a85c56" d="M700 400h100v100H700z"/><path fill="#d19791" d="M0 500h100v100H0z"/><path fill="#ca787b" d="M100 500h100v100H100z"/><path fill="#c0797c" d="M200 500h100v100H200z"/><path fill="#bb817f" d="M300 500h100v100H300z"/><path fill="#b76f73" d="M400 500h100v100H400z"/><path fill="#b16a6f" d="M500 500h100v100H500z"/><path fill="#a15960" d="M600 500h100v100H600z"/><path fill="#9a6363" d="M700 500h100v100H700z"/></svg>