<svg xmlns="http://www.w3.org/2000/svg" viewBox="0 0 800 600"><defs/><path fill="#423e3a" d="M0 0h100v100H0z"/><path fill="#cbc5c3" d="M100 0h100v100H100z"/><path fill="#c4c0c0" d="M200 0h100v100H200z"/><path fill="#c1bec1" d="M300 0h100v100H300z"/><path fill="#c5bebc" d="M400 0h100v100H400z"/><path fill="#bdb7b3" d="M500 0h100v100H500z"/><path fill="#c9bfb9" d="M600 0h100v100H600z"/><path fill="#8f8983" d="M700 0h100v100H700z"/><path fill="#6a6462" d="M0 100h100v100H0z"/><path fill="#baada4" d="M100 100h100v100H100z"/><path fill="#928c82" d="M200 100h100v100H200z"/><path fill="#aaa49d" d="M300 100h100v100H300z"/><path fill="#9b9d9d" d="M400 100h100v100H400z"/><path fill="#aba397" d="M500 100h100v100H500z"/><path fill="#8d9392" d="M600 100h100v100H600z"/><path fill="#9c9181" d="M700 100h100v100H700z"/><path fill="#8f8886" d="M0 200h100v100H0z"/><path fill="#a89f93" d="M100 200h100v100H100z"/><path fill="#8b8b87" d="M200 200h100v100H200z"/><path fill="#b3a497" d="M300 200h100v100H300z"/><path fill="#a0948d" d="M400 200h100v100H400z"/><path fill="#b8a490" d="M500 200h100v100H500z"/><path fill="#77868d" d="M600 200h100v100H600z"/><path fill="#90846d" d="M700 200h100v100H700z"/><path fill="#a09b95" d="M0 300h100v100H0z"/><path fill="#908b7a" d="M100 300h100v100H100z"/><path fill="#a49690" d="M200 300h100v100H200z"/><path fill="#b39a99" d="M300 300h100v100H300z"/><path fill="#ac9692" d="M400 300h100v100H400z"/><path fill="#ac9291" d="M500 300h100v100H500z"/><path fill="#a4988e" d="M600 300h100v100H600z"/><path fill="#a39578" d="M700 300h100v100H700z"/><path fill="#b3aead" d="M0 400h100v100H0z"/><path fill="#a59e99" d="M100 400h100v100H100z"/><path fill="#b2a7a4" d="M200 400h100v100H200z"/><path fill="#b1a4a2" d="M300 400h100v100H300z"/><path fill="#aca09b" d="M400 400h100v100H400z"/><path fill="#a79a96" d="M500 400h100v100H500z"/><path fill="#aa9d94" d="M600 400h100v100H600z"/><path fill="#a99d91" d="M700 400h100v100H700z"/><path fill="#bbb6b6" d="M0 500h100v100H0z"/><path fill="#bcb8bb" d="M100 500h100v100H100z"/><path fill="#b4afb1" d="M200 500h100v100H200z"/><path fill="#aea8a8" d="M300 500h100v100H300z"/><path fill="#aaa3a0" d="M400 500h100v100H400z"/><path fill="#a8a19d" d="M500 500h100v100H500z"/><path fill="#aaa19b" d="M600 500h100v100H600z"/><path fill="#afa69f" d="M700 500h100v100H700z"/></svg>