<svg xmlns="http://www.w3.org/2000/svg" viewBox="0 0 800 1100"><defs/><path fill="#44291a" d="M0 0h100v100H0z"/><path fill="#220600" d="M100 0h100v100H100z"/><path fill="#230702" d="M200 0h100v100H200z"/><path fill="#250500" d="M300 0h100v100H300z"/><path fill="#2a0900" d="M400 0h100v100H400z"/><path fill="#280d00" d="M500 0h100v100H500z"/><path fill="#75563e" d="M600 0h100v100H600z"/><path fill="#786248" d="M700 0h100v100H700z"/><path fill="#3d2113" d="M0 100h100v100H0z"/><path fill="#250800" d="M100 100h100v100H100z"/><path fill="#32190c" d="M200 100h100v100H200z"/><path fill="#3d281e" d="M300 100h100v100H300z"/><path fill="#524036" d="M400 100h100v100H400z"/><path fill="#5b4945" d="M500 100h100v100H500z"/><path fill="#927564" d="M600 100h100v100H600z"/><path fill="#c0a384" d="M700 100h100v100H700z"/><path fill="#180e07" d="M0 200h100v100H0z"/><path fill="#3e3125" d="M100 200h100v100H100z"/><path fill="#595755" d="M200 200h100v100H200z"/><path fill="#787677" d="M300 200h100v100H300z"/><path fill="#68646c" d="M400 200h100v100H400z"/><path fill="#776c72" d="M500 200h100v100H500z"/><path fill="#6a5d55" d="M600 200h100v100H600z"/><path fill="#3b3726" d="M700 200h100v100H700z"/><path fill="#0d0905" d="M0 300h100v100H0z"/><path fill="#342e26" d="M100 300h100v100H100z"/><path fill="#4c4841" d="M200 300h100v100H200z"/><path fill="#2e2a24" d="M300 300h100v100H300z"/><path fill="#3a3430" d="M400 300h100v100H400z"/><path fill="#3a312c" d="M500 300h100v100H500z"/><path fill="#2f2316" d="M600 300h100v100H600z"/><path fill="#150900" d="M700 300h100v100H700z"/><path fill="#060502" d="M0 400h100v100H0z"/><path fill="#0a0500" d="M100 400h100v100H100z"/><path fill="#262229" d="M200 400h100v100H200z"/><path fill="#0b0f35" d="M300 400h100v100H300z"/><path fill="#080c3d" d="M400 400h100v100H400z"/><path fill="#01073e" d="M500 400h100v100H500z"/><path fill="#524a54" d="M600 400h100v100H600z"/><path fill="#311f0f" d="M700 400h100v100H700z"/><path fill="#020100" d="M0 500h100v100H0z"/><path fill="#242018" d="M100 500h100v100H100z"/><path fill="#343547" d="M200 500h100v100H200z"/><path fill="#1d234d" d="M300 500h100v100H300z"/><path fill="#4a4d67" d="M400 500h100v100H400z"/><path fill="#1e2457" d="M500 500h100v100H500z"/><path fill="#1c1d3e" d="M600 500h100v100H600z"/><path fill="#2e1708" d="M700 500h100v100H700z"/><path fill="#040401" d="M0 600h100v100H0z"/><path fill="#0c0a04" d="M100 600h100v100H100z"/><path fill="#191c30" d="M200 600h100v100H200z"/><path fill="#262b41" d="M300 600h100v100H300z"/><path fill="#b0aa98" d="M400 600h100v100H400z"/><path fill="#827d84" d="M500 600h100v100H500z"/><path fill="#4f4e68" d="M600 600h100v100H600z"/><path fill="#492720" d="M700 600h100v100H700z"/><path fill="#050402" d="M0 700h100v100H0z"/><path fill="#060501" d="M100 700h100v100H100z"/><path fill="#464543" d="M200 700h100v100H200z"/><path fill="#5c5e61" d="M300 700h100v100H300z"/><path fill="#7d7673" d="M400 700h100v100H400z"/><path fill="#bfaf96" d="M500 700h100v100H500z"/><path fill="#afa69b" d="M600 700h100v100H600z"/><path fill="#612f31" d="M700 700h100v100H700z"/><path fill="#040402" d="M0 800h100v100H0z"/><path fill="#020100" d="M100 800h100v100H100z"/><path fill="#3b392b" d="M200 800h100v100H200z"/><path fill="#1f2238" d="M300 800h100v100H300z"/><path fill="#545462" d="M400 800h100v100H400z"/><path fill="#6b666d" d="M500 800h100v100H500z"/><path fill="#8d878a" d="M600 800h100v100H600z"/><path fill="#55323c" d="M700 800h100v100H700z"/><path fill="#060602" d="M0 900h100v100H0z"/><path fill="#060501" d="M100 900h100v100H100z"/><path fill="#100e08" d="M200 900h100v100H200z"/><path fill="#2a271f" d="M300 900h100v100H300z"/><path fill="#2c2f49" d="M400 900h100v100H400z"/><path fill="#181c51" d="M500 900h100v100H500z"/><path fill="#5f5f7e" d="M600 900h100v100H600z"/><path fill="#413234" d="M700 900h100v100H700z"/><path fill="#1d1607" d="M0 1000h100v100H0z"/><path fill="#201607" d="M100 1000h100v100H100z"/><path fill="#282013" d="M200 1000h100v100H200z"/><path fill="#4b4536" d="M300 1000h100v100H300z"/><path fill="#2b272b" d="M400 1000h100v100H400z"/><path fill="#27263a" d="M500 1000h100v100H500z"/><path fill="#3b3737" d="M600 1000h100v100H600z"/><path fill="#3f2d15" d="M700 1000h100v100H700z"/></svg>