<svg xmlns="http://www.w3.org/2000/svg" viewBox="0 0 800 600"><defs/><path fill="#fdfdfd" d="M0 0h100v100H0z"/><path fill="#f6f6f6" d="M100 0h100v100H100z"/><path fill="#f2f2f2" d="M200 0h100v100H200zm100 0h100v100H300z"/><path fill="#f3f3f3" d="M400 0h100v100H400z"/><path fill="#f5f5f5" d="M500 0h100v100H500z"/><path fill="#f9f9f9" d="M600 0h100v100H600z"/><path fill="#f8f8f8" d="M700 0h100v100H700z"/><path fill="#dfdfdf" d="M0 100h100v100H0z"/><path fill="#c9c9c9" d="M100 100h100v100H100z"/><path fill="#c6c6c6" d="M200 100h100v100H200z"/><path fill="#acacac" d="M300 100h100v100H300z"/><path fill="#a7a7a7" d="M400 100h100v100H400z"/><path fill="#aeaeae" d="M500 100h100v100H500z"/><path fill="#c8c8c8" d="M600 100h100v100H600z"/><path fill="#cbcbcb" d="M700 100h100v100H700z"/><path fill="#e1e1e1" d="M0 200h100v100H0z"/><path fill="#cacaca" d="M100 200h100v100H100z"/><path fill="#aeaeae" d="M200 200h100v100H200z"/><path fill="#a4a4a4" d="M300 200h100v100H300z"/><path fill="#b2b2b2" d="M400 200h100v100H400z"/><path fill="#c8c8c8" d="M500 200h100v100H500z"/><path fill="#bdbdbd" d="M600 200h100v100H600z"/><path fill="#d0d0d0" d="M700 200h100v100H700z"/><path fill="#f1f1f1" d="M0 300h100v100H0z"/><path fill="#c5c5c5" d="M100 300h100v100H100z"/><path fill="#a1a1a1" d="M200 300h100v100H200z"/><path fill="#a8a8a8" d="M300 300h100v100H300z"/><path fill="#bfbfbf" d="M400 300h100v100H400z"/><path fill="#c2c2c2" d="M500 300h100v100H500z"/><path fill="#949494" d="M600 300h100v100H600zm100 0h100v100H700z"/><path fill="#e3e3e3" d="M0 400h100v100H0z"/><path fill="#c1c1c1" d="M100 400h100v100H100z"/><path fill="#b5b5b5" d="M200 400h100v100H200z"/><path fill="#b6b6b6" d="M300 400h100v100H300z"/><path fill="#b2b2b2" d="M400 400h100v100H400z"/><path fill="#acacac" d="M500 400h100v100H500z"/><path fill="#939393" d="M600 400h100v100H600z"/><path fill="#929292" d="M700 400h100v100H700z"/><path fill="#f3f3f3" d="M0 500h100v100H0z"/><path fill="#efefef" d="M100 500h100v100H100z"/><path fill="#ebebeb" d="M200 500h100v100H200z"/><path fill="#eaeaea" d="M300 500h100v100H300z"/><path fill="#ebebeb" d="M400 500h100v100H400z"/><path fill="#e6e6e6" d="M500 500h100v100H500z"/><path fill="#ebebeb" d="M600 500h100v100H600z"/><path fill="#ededed" d="M700 500h100v100H700z"/></svg>