<svg xmlns="http://www.w3.org/2000/svg" viewBox="0 0 800 600"><defs/><path fill="#e8e7e6" d="M0 0h100v100H0z"/><path fill="#dedfe0" d="M100 0h100v100H100z"/><path fill="#e5e6e9" d="M200 0h100v100H200z"/><path fill="#efecec" d="M300 0h100v100H300z"/><path fill="#f1edeb" d="M400 0h100v100H400z"/><path fill="#e9eaec" d="M500 0h100v100H500z"/><path fill="#e0e3e8" d="M600 0h100v100H600z"/><path fill="#e4e8ea" d="M700 0h100v100H700z"/><path fill="#e4cd9d" d="M0 100h100v100H0z"/><path fill="#8b9281" d="M100 100h100v100H100z"/><path fill="#99a6b2" d="M200 100h100v100H200z"/><path fill="#869bad" d="M300 100h100v100H300z"/><path fill="#7c9cb8" d="M400 100h100v100H400z"/><path fill="#b1b9c3" d="M500 100h100v100H500z"/><path fill="#c7c8cb" d="M600 100h100v100H600z"/><path fill="#cdd2d3" d="M700 100h100v100H700z"/><path fill="#d8c8a0" d="M0 200h100v100H0z"/><path fill="#7c959b" d="M100 200h100v100H100z"/><path fill="#95a4ad" d="M200 200h100v100H200z"/><path fill="#507f89" d="M300 200h100v100H300z"/><path fill="#4a8189" d="M400 200h100v100H400z"/><path fill="#a0a9a8" d="M500 200h100v100H500z"/><path fill="#c6bcc1" d="M600 200h100v100H600z"/><path fill="#c4c3c4" d="M700 200h100v100H700z"/><path fill="#bcbca7" d="M0 300h100v100H0z"/><path fill="#718389" d="M100 300h100v100H100z"/><path fill="#9a8c79" d="M200 300h100v100H200z"/><path fill="#807e67" d="M300 300h100v100H300z"/><path fill="#747961" d="M400 300h100v100H400z"/><path fill="#908269" d="M500 300h100v100H500z"/><path fill="#98816c" d="M600 300h100v100H600z"/><path fill="#cbc8c8" d="M700 300h100v100H700z"/><path fill="#aebbbc" d="M0 400h100v100H0z"/><path fill="#808181" d="M100 400h100v100H100z"/><path fill="#907f73" d="M200 400h100v100H200z"/><path fill="#767664" d="M300 400h100v100H300z"/><path fill="#7c725e" d="M400 400h100v100H400z"/><path fill="#8a7968" d="M500 400h100v100H500z"/><path fill="#817665" d="M600 400h100v100H600z"/><path fill="#bab7b4" d="M700 400h100v100H700z"/><path fill="#e2e6e9" d="M0 500h100v100H0z"/><path fill="#dadfe3" d="M100 500h100v100H100z"/><path fill="#d8dbde" d="M200 500h100v100H200z"/><path fill="#d3d4d4" d="M300 500h100v100H300z"/><path fill="#d8d9db" d="M400 500h100v100H400z"/><path fill="#d7d7dc" d="M500 500h100v100H500z"/><path fill="#d7d9dd" d="M600 500h100v100H600z"/><path fill="#d9dbdc" d="M700 500h100v100H700z"/></svg>