<svg xmlns="http://www.w3.org/2000/svg" viewBox="0 0 800 600"><defs/><path fill="#8c746a" d="M0 0h100v100H0z"/><path fill="#d1cac3" d="M100 0h100v100H100z"/><path fill="#cabcb5" d="M200 0h100v100H200z"/><path fill="#cbbfbc" d="M300 0h100v100H300z"/><path fill="#c8beba" d="M400 0h100v100H400z"/><path fill="#ccc1bd" d="M500 0h100v100H500z"/><path fill="#d3c7c4" d="M600 0h100v100H600z"/><path fill="#cbbbb4" d="M700 0h100v100H700z"/><path fill="#a0928d" d="M0 100h100v100H0z"/><path fill="#d0d6cd" d="M100 100h100v100H100z"/><path fill="#c9cfc5" d="M200 100h100v100H200z"/><path fill="#dcdfe2" d="M300 100h100v100H300z"/><path fill="#dbd9d0" d="M400 100h100v100H400z"/><path fill="#e0e0de" d="M500 100h100v100H500z"/><path fill="#e1e0e1" d="M600 100h100v100H600z"/><path fill="#d9d4d0" d="M700 100h100v100H700z"/><path fill="#a39a99" d="M0 200h100v100H0z"/><path fill="#bdc5b7" d="M100 200h100v100H100z"/><path fill="#c8cfc9" d="M200 200h100v100H200z"/><path fill="#e0dad9" d="M300 200h100v100H300z"/><path fill="#e4dbd6" d="M400 200h100v100H400z"/><path fill="#e2dedc" d="M500 200h100v100H500z"/><path fill="#e4e1e2" d="M600 200h100v100H600z"/><path fill="#e7e3e3" d="M700 200h100v100H700z"/><path fill="#969394" d="M0 300h100v100H0z"/><path fill="#a2ab9d" d="M100 300h100v100H100z"/><path fill="#c6c6bc" d="M200 300h100v100H200z"/><path fill="#dad1ce" d="M300 300h100v100H300z"/><path fill="#dfd8d3" d="M400 300h100v100H400z"/><path fill="#e3dbd8" d="M500 300h100v100H500z"/><path fill="#e1dedc" d="M600 300h100v100H600z"/><path fill="#e5e2e0" d="M700 300h100v100H700z"/><path fill="#949293" d="M0 400h100v100H0z"/><path fill="#8e9389" d="M100 400h100v100H100z"/><path fill="#bab7aa" d="M200 400h100v100H200z"/><path fill="#d8dcde" d="M300 400h100v100H300z"/><path fill="#e3e3e1" d="M400 400h100v100H400z"/><path fill="#ebeaeb" d="M500 400h100v100H500z"/><path fill="#ebebed" d="M600 400h100v100H600z"/><path fill="#e9ebec" d="M700 400h100v100H700z"/><path fill="#85746e" d="M0 500h100v100H0z"/><path fill="#6d605c" d="M100 500h100v100H100z"/><path fill="#7b6e68" d="M200 500h100v100H200z"/><path fill="#a79287" d="M300 500h100v100H300z"/><path fill="#c7ae9e" d="M400 500h100v100H400z"/><path fill="#d5bbad" d="M500 500h100v100H500z"/><path fill="#ddc5b7" d="M600 500h100v100H600z"/><path fill="#e3cabb" d="M700 500h100v100H700z"/></svg>