<svg xmlns="http://www.w3.org/2000/svg" viewBox="0 0 800 600"><defs/><path fill="#f8fcfa" d="M0 0h100v100H0z"/><path fill="#edf7f1" d="M100 0h100v100H100z"/><path fill="#e5f4eb" d="M200 0h100v100H200z"/><path fill="#f7fcf9" d="M300 0h100v100H300z"/><path fill="#fbfdfc" d="M400 0h100v100H400z"/><path fill="#f9fcfa" d="M500 0h100v100H500z"/><path fill="#f8fbf9" d="M600 0h100v100H600z"/><path fill="#f9fdfa" d="M700 0h100v100H700z"/><path fill="#fcfefd" d="M0 100h100v100H0z"/><path fill="#e7f5ec" d="M100 100h100v100H100z"/><path fill="#e3f3e9" d="M200 100h100v100H200z"/><path fill="#fff" d="M300 100h100v100H300zm100 0h100v100H400zm100 0h100v100H500zm100 0h100v100H600zm100 0h100v100H700z"/><path fill="#f7fcf9" d="M0 200h100v100H0z"/><path fill="#e2f2e9" d="M100 200h100v100H100z"/><path fill="#e4f1ea" d="M200 200h100v100H200z"/><path fill="#e5e7e7" d="M300 200h100v100H300z"/><path fill="#e2e3e3" d="M400 200h100v100H400z"/><path fill="#e8e8e8" d="M500 200h100v100H500z"/><path fill="#f4f4f4" d="M600 200h100v100H600zm100 0h100v100H700z"/><path fill="#f4faf7" d="M0 300h100v100H0z"/><path fill="#e1f1e8" d="M100 300h100v100H100z"/><path fill="#e4f1ea" d="M200 300h100v100H200z"/><path fill="#dfe4e1" d="M300 300h100v100H300z"/><path fill="#e2e4e3" d="M400 300h100v100H400z"/><path fill="#e5e6e5" d="M500 300h100v100H500z"/><path fill="#e4e5e5" d="M600 300h100v100H600z"/><path fill="#e9eaea" d="M700 300h100v100H700z"/><path fill="#edf7f1" d="M0 400h100v100H0z"/><path fill="#d8ede1" d="M100 400h100v100H100z"/><path fill="#e9f4ef" d="M200 400h100v100H200z"/><path fill="#fffdff" d="M300 400h100v100H300z"/><path fill="#fcfcfc" d="M400 400h100v100H400zm100 0h100v100H500zm100 0h100v100H600z"/><path fill="#fff" d="M700 400h100v100H700z"/><path fill="#e6f3ec" d="M0 500h100v100H0z"/><path fill="#e3f2e9" d="M100 500h100v100H100z"/><path fill="#f8fcfa" d="M200 500h100v100H200z"/><path fill="#fcfefd" d="M300 500h100v100H300z"/><path fill="#fbfefc" d="M400 500h100v100H400z"/><path fill="#fcfefd" d="M500 500h100v100H500z"/><path fill="#fcfdfc" d="M600 500h100v100H600z"/><path fill="#fbfdfb" d="M700 500h100v100H700z"/></svg>