<svg xmlns="http://www.w3.org/2000/svg" viewBox="0 0 800 600"><defs/><path fill="#d1d1f7" d="M0 0h100v100H0z"/><path fill="#a6a4b9" d="M100 0h100v100H100z"/><path fill="#a299ab" d="M200 0h100v100H200z"/><path fill="#b9c0e3" d="M300 0h100v100H300z"/><path fill="#afc5e1" d="M400 0h100v100H400z"/><path fill="#949fbb" d="M500 0h100v100H500z"/><path fill="#c0c2e5" d="M600 0h100v100H600z"/><path fill="#cfd3fa" d="M700 0h100v100H700z"/><path fill="#c8c7f0" d="M0 100h100v100H0z"/><path fill="#9292a1" d="M100 100h100v100H100z"/><path fill="#897c93" d="M200 100h100v100H200z"/><path fill="#797f9f" d="M300 100h100v100H300z"/><path fill="#86a7ba" d="M400 100h100v100H400z"/><path fill="#809bb5" d="M500 100h100v100H500z"/><path fill="#b595b0" d="M600 100h100v100H600z"/><path fill="#c7b4d5" d="M700 100h100v100H700z"/><path fill="#c1c1e6" d="M0 200h100v100H0z"/><path fill="#817d84" d="M100 200h100v100H100z"/><path fill="#a199b5" d="M200 200h100v100H200z"/><path fill="#bdbcdd" d="M300 200h100v100H300z"/><path fill="#aca4b1" d="M400 200h100v100H400z"/><path fill="#bac3e2" d="M500 200h100v100H500z"/><path fill="#ac727f" d="M600 200h100v100H600z"/><path fill="#b26770" d="M700 200h100v100H700z"/><path fill="#b6b7d5" d="M0 300h100v100H0z"/><path fill="#625d5b" d="M100 300h100v100H100z"/><path fill="#9a7c81" d="M200 300h100v100H200z"/><path fill="#c9c2cc" d="M300 300h100v100H300z"/><path fill="#c1c0cc" d="M400 300h100v100H400z"/><path fill="#494c55" d="M500 300h100v100H500z"/><path fill="#7b5e61" d="M600 300h100v100H600z"/><path fill="#bb7d8f" d="M700 300h100v100H700z"/><path fill="#9796ad" d="M0 400h100v100H0z"/><path fill="#716c6e" d="M100 400h100v100H100z"/><path fill="#9d898c" d="M200 400h100v100H200z"/><path fill="#c7bcbf" d="M300 400h100v100H300z"/><path fill="#cbc6cf" d="M400 400h100v100H400z"/><path fill="#100d19" d="M500 400h100v100H500z"/><path fill="#65666a" d="M600 400h100v100H600z"/><path fill="#c6bcd9" d="M700 400h100v100H700z"/><path fill="#c1c1d0" d="M0 500h100v100H0z"/><path fill="#c1c5cb" d="M100 500h100v100H100z"/><path fill="#ded9e0" d="M200 500h100v100H200z"/><path fill="#c8c0c7" d="M300 500h100v100H300z"/><path fill="#d3d5e1" d="M400 500h100v100H400z"/><path fill="#56555c" d="M500 500h100v100H500z"/><path fill="#a8a9b1" d="M600 500h100v100H600z"/><path fill="#cfd0e9" d="M700 500h100v100H700z"/></svg>