<svg xmlns="http://www.w3.org/2000/svg" viewBox="0 0 800 600"><defs/><path fill="#181314" d="M0 0h100v100H0z"/><path fill="#181014" d="M100 0h100v100H100z"/><path fill="#0f0b12" d="M200 0h100v100H200z"/><path fill="#140e15" d="M300 0h100v100H300z"/><path fill="#1d1615" d="M400 0h100v100H400z"/><path fill="#150f0e" d="M500 0h100v100H500z"/><path fill="#17100b" d="M600 0h100v100H600z"/><path fill="#110c0b" d="M700 0h100v100H700z"/><path fill="#3c3f4f" d="M0 100h100v100H0z"/><path fill="#5b6c83" d="M100 100h100v100H100z"/><path fill="#687481" d="M200 100h100v100H200z"/><path fill="#5a5e68" d="M300 100h100v100H300z"/><path fill="#464248" d="M400 100h100v100H400z"/><path fill="#3f3940" d="M500 100h100v100H500z"/><path fill="#393236" d="M600 100h100v100H600z"/><path fill="#2e2b2d" d="M700 100h100v100H700z"/><path fill="#232e56" d="M0 200h100v100H0z"/><path fill="#598ecf" d="M100 200h100v100H100z"/><path fill="#7ba3c9" d="M200 200h100v100H200z"/><path fill="#58709c" d="M300 200h100v100H300z"/><path fill="#3f487a" d="M400 200h100v100H400z"/><path fill="#373c6c" d="M500 200h100v100H500z"/><path fill="#4a4260" d="M600 200h100v100H600z"/><path fill="#503e4d" d="M700 200h100v100H700z"/><path fill="#272d56" d="M0 300h100v100H0z"/><path fill="#3d538f" d="M100 300h100v100H100z"/><path fill="#5465a0" d="M200 300h100v100H200z"/><path fill="#5f6fb0" d="M300 300h100v100H300z"/><path fill="#6774ae" d="M400 300h100v100H400z"/><path fill="#4a5893" d="M500 300h100v100H500z"/><path fill="#46346e" d="M600 300h100v100H600z"/><path fill="#3e1236" d="M700 300h100v100H700z"/><path fill="#2f365d" d="M0 400h100v100H0z"/><path fill="#5e6fa7" d="M100 400h100v100H100z"/><path fill="#7685c0" d="M200 400h100v100H200z"/><path fill="#7a8cc8" d="M300 400h100v100H300z"/><path fill="#7b8ac4" d="M400 400h100v100H400z"/><path fill="#5a69b0" d="M500 400h100v100H500z"/><path fill="#635d92" d="M600 400h100v100H600z"/><path fill="#523d50" d="M700 400h100v100H700z"/><path fill="#26253f" d="M0 500h100v100H0z"/><path fill="#434670" d="M100 500h100v100H100z"/><path fill="#4e5179" d="M200 500h100v100H200z"/><path fill="#50557e" d="M300 500h100v100H300z"/><path fill="#4e527b" d="M400 500h100v100H400z"/><path fill="#3d426f" d="M500 500h100v100H500z"/><path fill="#535060" d="M600 500h100v100H600z"/><path fill="#493b33" d="M700 500h100v100H700z"/></svg>