<svg xmlns="http://www.w3.org/2000/svg" viewBox="0 0 800 500"><defs/><path fill="#b1ada8" d="M0 0h100v100H0z"/><path fill="#a4a2a7" d="M100 0h100v100H100z"/><path fill="#9d9e9c" d="M200 0h100v100H200z"/><path fill="#a39388" d="M300 0h100v100H300z"/><path fill="#a49a8c" d="M400 0h100v100H400z"/><path fill="#9fa499" d="M500 0h100v100H500z"/><path fill="#a3a5a0" d="M600 0h100v100H600z"/><path fill="#b2b6b1" d="M700 0h100v100H700z"/><path fill="#8a9281" d="M0 100h100v100H0z"/><path fill="#8b9195" d="M100 100h100v100H100z"/><path fill="#aca192" d="M200 100h100v100H200z"/><path fill="#a89080" d="M300 100h100v100H300z"/><path fill="#695e51" d="M400 100h100v100H400z"/><path fill="#6d6b67" d="M500 100h100v100H500z"/><path fill="#959687" d="M600 100h100v100H600z"/><path fill="#8b8f8c" d="M700 100h100v100H700z"/><path fill="#8c9584" d="M0 200h100v100H0z"/><path fill="#868c84" d="M100 200h100v100H100z"/><path fill="#a2948d" d="M200 200h100v100H200z"/><path fill="#989f96" d="M300 200h100v100H300z"/><path fill="#81928d" d="M400 200h100v100H400z"/><path fill="#928574" d="M500 200h100v100H500z"/><path fill="#8d8678" d="M600 200h100v100H600z"/><path fill="#8f8783" d="M700 200h100v100H700z"/><path fill="#788392" d="M0 300h100v100H0z"/><path fill="#716a76" d="M100 300h100v100H100z"/><path fill="#895d4a" d="M200 300h100v100H200z"/><path fill="#797f84" d="M300 300h100v100H300z"/><path fill="#9f9d90" d="M400 300h100v100H400z"/><path fill="#997d66" d="M500 300h100v100H500z"/><path fill="#7f6758" d="M600 300h100v100H600z"/><path fill="#947f6a" d="M700 300h100v100H700z"/><path fill="#78706c" d="M0 400h100v100H0z"/><path fill="#8a736c" d="M100 400h100v100H100z"/><path fill="#ae786a" d="M200 400h100v100H200z"/><path fill="#8e8378" d="M300 400h100v100H300z"/><path fill="#958b83" d="M400 400h100v100H400z"/><path fill="#ba8865" d="M500 400h100v100H500z"/><path fill="#b0955b" d="M600 400h100v100H600z"/><path fill="#b28a67" d="M700 400h100v100H700z"/></svg>