<svg xmlns="http://www.w3.org/2000/svg" viewBox="0 0 800 500"><defs/><path fill="#5f655b" d="M0 0h100v100H0z"/><path fill="#313323" d="M100 0h100v100H100z"/><path fill="#363b1f" d="M200 0h100v100H200z"/><path fill="#404634" d="M300 0h100v100H300z"/><path fill="#3d3c29" d="M400 0h100v100H400z"/><path fill="#373827" d="M500 0h100v100H500z"/><path fill="#4c524d" d="M600 0h100v100H600z"/><path fill="#4a4d46" d="M700 0h100v100H700z"/><path fill="#71726f" d="M0 100h100v100H0z"/><path fill="#4c4b48" d="M100 100h100v100H100z"/><path fill="#626868" d="M200 100h100v100H200z"/><path fill="#67696c" d="M300 100h100v100H300z"/><path fill="#696059" d="M400 100h100v100H400z"/><path fill="#483a31" d="M500 100h100v100H500z"/><path fill="#4c4741" d="M600 100h100v100H600z"/><path fill="#444a41" d="M700 100h100v100H700z"/><path fill="#3d413d" d="M0 200h100v100H0z"/><path fill="#3b3d33" d="M100 200h100v100H100z"/><path fill="#525350" d="M200 200h100v100H200z"/><path fill="#413f3b" d="M300 200h100v100H300z"/><path fill="#37342b" d="M400 200h100v100H400z"/><path fill="#534e48" d="M500 200h100v100H500z"/><path fill="#443b2f" d="M600 200h100v100H600z"/><path fill="#595340" d="M700 200h100v100H700z"/><path fill="#3e3730" d="M0 300h100v100H0z"/><path fill="#23241f" d="M100 300h100v100H100z"/><path fill="#40423a" d="M200 300h100v100H200z"/><path fill="#48433b" d="M300 300h100v100H300z"/><path fill="#424541" d="M400 300h100v100H400z"/><path fill="#5e544b" d="M500 300h100v100H500z"/><path fill="#7d7b62" d="M600 300h100v100H600z"/><path fill="#a9a27e" d="M700 300h100v100H700z"/><path fill="#3a2f26" d="M0 400h100v100H0z"/><path fill="#2b2f2e" d="M100 400h100v100H100z"/><path fill="#2d3735" d="M200 400h100v100H200z"/><path fill="#272722" d="M300 400h100v100H300z"/><path fill="#2c3029" d="M400 400h100v100H400z"/><path fill="#2f2f23" d="M500 400h100v100H500z"/><path fill="#46402b" d="M600 400h100v100H600z"/><path fill="#514b32" d="M700 400h100v100H700z"/></svg>