<svg xmlns="http://www.w3.org/2000/svg" viewBox="0 0 800 400"><defs/><path fill="#d5d6d5" d="M0 0h100v100H0z"/><path fill="#bab9ae" d="M100 0h100v100H100z"/><path fill="#d0ced1" d="M200 0h100v100H200z"/><path fill="#d9d9dd" d="M300 0h100v100H300z"/><path fill="#d6d8d9" d="M400 0h100v100H400z"/><path fill="#d3d5d7" d="M500 0h100v100H500z"/><path fill="#cecfd0" d="M600 0h100v100H600z"/><path fill="#d3d3d4" d="M700 0h100v100H700z"/><path fill="#caccca" d="M0 100h100v100H0z"/><path fill="#bbbcb4" d="M100 100h100v100H100z"/><path fill="#d1cfd2" d="M200 100h100v100H200z"/><path fill="#cecccd" d="M300 100h100v100H300z"/><path fill="#d3d1d2" d="M400 100h100v100H400z"/><path fill="#d1d0d2" d="M500 100h100v100H500z"/><path fill="#c9c8c7" d="M600 100h100v100H600z"/><path fill="#d3d2d0" d="M700 100h100v100H700z"/><path fill="#c5c6c0" d="M0 200h100v100H0z"/><path fill="#b7b7ae" d="M100 200h100v100H100z"/><path fill="#c7c7c7" d="M200 200h100v100H200z"/><path fill="#c6c0ba" d="M300 200h100v100H300z"/><path fill="#c7c3c0" d="M400 200h100v100H400z"/><path fill="#c9c8c8" d="M500 200h100v100H500z"/><path fill="#c2c1bf" d="M600 200h100v100H600z"/><path fill="#cdcccb" d="M700 200h100v100H700z"/><path fill="#c1c3ba" d="M0 300h100v100H0z"/><path fill="#c4c3bc" d="M100 300h100v100H100z"/><path fill="#d4d1d0" d="M200 300h100v100H200z"/><path fill="#d1cecb" d="M300 300h100v100H300z"/><path fill="#d0cdcc" d="M400 300h100v100H400z"/><path fill="#cccac8" d="M500 300h100v100H500z"/><path fill="#cdcbc9" d="M600 300h100v100H600zm100 0h100v100H700z"/></svg>