<svg xmlns="http://www.w3.org/2000/svg" viewBox="0 0 800 500"><defs/><path fill="#a29d9d" d="M0 0h100v100H0z"/><path fill="#b6a192" d="M100 0h100v100H100z"/><path fill="#a0a190" d="M200 0h100v100H200z"/><path fill="#959a98" d="M300 0h100v100H300z"/><path fill="#abaf91" d="M400 0h100v100H400z"/><path fill="#b1b398" d="M500 0h100v100H500z"/><path fill="#a8b189" d="M600 0h100v100H600z"/><path fill="#a6ae70" d="M700 0h100v100H700z"/><path fill="#907f7b" d="M0 100h100v100H0z"/><path fill="#a1785d" d="M100 100h100v100H100z"/><path fill="#535b4d" d="M200 100h100v100H200z"/><path fill="#50545c" d="M300 100h100v100H300z"/><path fill="#9a9660" d="M400 100h100v100H400z"/><path fill="#b4af8b" d="M500 100h100v100H500z"/><path fill="#a1b491" d="M600 100h100v100H600z"/><path fill="#acb59b" d="M700 100h100v100H700z"/><path fill="#886f69" d="M0 200h100v100H0z"/><path fill="#977b61" d="M100 200h100v100H100z"/><path fill="#848f77" d="M200 200h100v100H200z"/><path fill="#6b6a5f" d="M300 200h100v100H300z"/><path fill="#8b9985" d="M400 200h100v100H400z"/><path fill="#a59a90" d="M500 200h100v100H500z"/><path fill="#96a688" d="M600 200h100v100H600z"/><path fill="#8f948c" d="M700 200h100v100H700z"/><path fill="#8d6a5a" d="M0 300h100v100H0z"/><path fill="#988675" d="M100 300h100v100H100z"/><path fill="#a9a38e" d="M200 300h100v100H200z"/><path fill="#a2879a" d="M300 300h100v100H300z"/><path fill="#888e9e" d="M400 300h100v100H400z"/><path fill="#807488" d="M500 300h100v100H500z"/><path fill="#766a6f" d="M600 300h100v100H600z"/><path fill="#827a6b" d="M700 300h100v100H700z"/><path fill="#8e857a" d="M0 400h100v100H0z"/><path fill="#a4a59e" d="M100 400h100v100H100z"/><path fill="#aeb0a1" d="M200 400h100v100H200z"/><path fill="#b0aba4" d="M300 400h100v100H300z"/><path fill="#b0a4a6" d="M400 400h100v100H400z"/><path fill="#a49ba2" d="M500 400h100v100H500z"/><path fill="#9f8da9" d="M600 400h100v100H600z"/><path fill="#8d819f" d="M700 400h100v100H700z"/></svg>