<svg xmlns="http://www.w3.org/2000/svg" viewBox="0 0 800 1400"><defs/><path fill="#b9a891" d="M0 0h100v100H0z"/><path fill="#c0b29c" d="M100 0h100v100H100z"/><path fill="#cabcab" d="M200 0h100v100H200z"/><path fill="#d1c7b9" d="M300 0h100v100H300z"/><path fill="#c5b289" d="M400 0h100v100H400z"/><path fill="#c3ac78" d="M500 0h100v100H500z"/><path fill="#ccb478" d="M600 0h100v100H600z"/><path fill="#a5977d" d="M700 0h100v100H700z"/><path fill="#2e2a27" d="M0 100h100v100H0z"/><path fill="#837f77" d="M100 100h100v100H100z"/><path fill="#a5a39f" d="M200 100h100v100H200z"/><path fill="#918867" d="M300 100h100v100H300z"/><path fill="#927a16" d="M400 100h100v100H400z"/><path fill="#967d1b" d="M500 100h100v100H500z"/><path fill="#887118" d="M600 100h100v100H600z"/><path fill="#353224" d="M700 100h100v100H700z"/><path fill="#1e1f21" d="M0 200h100v100H0z"/><path fill="#1d1d1d" d="M100 200h100v100H100z"/><path fill="#3d3b30" d="M200 200h100v100H200z"/><path fill="#514f47" d="M300 200h100v100H300z"/><path fill="#4e4d47" d="M400 200h100v100H400z"/><path fill="#4a4840" d="M500 200h100v100H500z"/><path fill="#262628" d="M600 200h100v100H600z"/><path fill="#212124" d="M700 200h100v100H700z"/><path fill="#272626" d="M0 300h100v100H0z"/><path fill="#2a2a2b" d="M100 300h100v100H100z"/><path fill="#323333" d="M200 300h100v100H200z"/><path fill="#3c3c3c" d="M300 300h100v100H300z"/><path fill="#454646" d="M400 300h100v100H400z"/><path fill="#323333" d="M500 300h100v100H500zm100 0h100v100H600z"/><path fill="#232324" d="M700 300h100v100H700z"/><path fill="#202020" d="M0 400h100v100H0z"/><path fill="#3a3939" d="M100 400h100v100H100z"/><path fill="#45423f" d="M200 400h100v100H200z"/><path fill="#3f3d39" d="M300 400h100v100H300z"/><path fill="#433f38" d="M400 400h100v100H400z"/><path fill="#474035" d="M500 400h100v100H500z"/><path fill="#48433b" d="M600 400h100v100H600z"/><path fill="#363531" d="M700 400h100v100H700z"/><path fill="#878381" d="M0 500h100v100H0z"/><path fill="#635e56" d="M100 500h100v100H100z"/><path fill="#3d3b2e" d="M200 500h100v100H200z"/><path fill="#3e3e36" d="M300 500h100v100H300z"/><path fill="#43402f" d="M400 500h100v100H400z"/><path fill="#574824" d="M500 500h100v100H500z"/><path fill="#674b16" d="M600 500h100v100H600z"/><path fill="#837864" d="M700 500h100v100H700z"/><path fill="#5a5a56" d="M0 600h100v100H0z"/><path fill="#3c3e39" d="M100 600h100v100H100z"/><path fill="#333734" d="M200 600h100v100H200z"/><path fill="#252c29" d="M300 600h100v100H300z"/><path fill="#29302c" d="M400 600h100v100H400z"/><path fill="#313937" d="M500 600h100v100H500z"/><path fill="#484330" d="M600 600h100v100H600z"/><path fill="#8a7d67" d="M700 600h100v100H700z"/><path fill="#292923" d="M0 700h100v100H0z"/><path fill="#262723" d="M100 700h100v100H100z"/><path fill="#23211b" d="M200 700h100v100H200z"/><path fill="#574539" d="M300 700h100v100H300z"/><path fill="#45362a" d="M400 700h100v100H400z"/><path fill="#1d1d17" d="M500 700h100v100H500z"/><path fill="#2a2f2a" d="M600 700h100v100H600z"/><path fill="#726d66" d="M700 700h100v100H700z"/><path fill="#2a2b26" d="M0 800h100v100H0z"/><path fill="#161914" d="M100 800h100v100H100z"/><path fill="#674c3c" d="M200 800h100v100H200z"/><path fill="#dda485" d="M300 800h100v100H300z"/><path fill="#b5846a" d="M400 800h100v100H400z"/><path fill="#1e1b16" d="M500 800h100v100H500z"/><path fill="#1e2019" d="M600 800h100v100H600z"/><path fill="#7a705f" d="M700 800h100v100H700z"/><path fill="#21221d" d="M0 900h100v100H0z"/><path fill="#312e28" d="M100 900h100v100H100z"/><path fill="#9d745b" d="M200 900h100v100H200z"/><path fill="#ce9172" d="M300 900h100v100H300z"/><path fill="#ba8066" d="M400 900h100v100H400z"/><path fill="#483d37" d="M500 900h100v100H500z"/><path fill="#483a18" d="M600 900h100v100H600z"/><path fill="#96825d" d="M700 900h100v100H700z"/><path fill="#282721" d="M0 1000h100v100H0z"/><path fill="#3d3831" d="M100 1000h100v100H100z"/><path fill="#936953" d="M200 1000h100v100H200z"/><path fill="#e09985" d="M300 1000h100v100H300z"/><path fill="#c38479" d="M400 1000h100v100H400z"/><path fill="#664e3c" d="M500 1000h100v100H500z"/><path fill="#8a6a21" d="M600 1000h100v100H600z"/><path fill="#9a865e" d="M700 1000h100v100H700z"/><path fill="#77746f" d="M0 1100h100v100H0z"/><path fill="#4e433a" d="M100 1100h100v100H100z"/><path fill="#47392e" d="M200 1100h100v100H200z"/><path fill="#b78171" d="M300 1100h100v100H300z"/><path fill="#936863" d="M400 1100h100v100H400z"/><path fill="#413626" d="M500 1100h100v100H500z"/><path fill="#a67f2b" d="M600 1100h100v100H600z"/><path fill="#a89364" d="M700 1100h100v100H700z"/><path fill="#706e67" d="M0 1200h100v100H0z"/><path fill="#514134" d="M100 1200h100v100H100z"/><path fill="#52443b" d="M200 1200h100v100H200z"/><path fill="#4c352b" d="M300 1200h100v100H300z"/><path fill="#3a221d" d="M400 1200h100v100H400z"/><path fill="#342d29" d="M500 1200h100v100H500z"/><path fill="#9e7832" d="M600 1200h100v100H600z"/><path fill="#b19761" d="M700 1200h100v100H700z"/><path fill="#695a54" d="M0 1300h100v100H0z"/><path fill="#5f4b3f" d="M100 1300h100v100H100z"/><path fill="#605043" d="M200 1300h100v100H200z"/><path fill="#6e4c44" d="M300 1300h100v100H300z"/><path fill="#c4535e" d="M400 1300h100v100H400z"/><path fill="#724549" d="M500 1300h100v100H500z"/><path fill="#765f38" d="M600 1300h100v100H600z"/><path fill="#aa8c53" d="M700 1300h100v100H700z"/></svg>