<svg xmlns="http://www.w3.org/2000/svg" viewBox="0 0 800 500"><defs/><path fill="#f1dac7" d="M0 0h100v100H0z"/><path fill="#edd6cc" d="M100 0h100v100H100z"/><path fill="#c2bbb7" d="M200 0h100v100H200z"/><path fill="#d7d5d8" d="M300 0h100v100H300z"/><path fill="#dbdce2" d="M400 0h100v100H400z"/><path fill="#e3dddd" d="M500 0h100v100H500z"/><path fill="#ece1dd" d="M600 0h100v100H600z"/><path fill="#bcb2af" d="M700 0h100v100H700z"/><path fill="#f4d6c8" d="M0 100h100v100H0z"/><path fill="#bba19b" d="M100 100h100v100H100z"/><path fill="#beada4" d="M200 100h100v100H200z"/><path fill="#ccd0db" d="M300 100h100v100H300z"/><path fill="#c4d4eb" d="M400 100h100v100H400z"/><path fill="#d4c0b7" d="M500 100h100v100H500z"/><path fill="#d1a586" d="M600 100h100v100H600z"/><path fill="#ab9e9b" d="M700 100h100v100H700z"/><path fill="#d9bab2" d="M0 200h100v100H0z"/><path fill="#a07c7b" d="M100 200h100v100H100z"/><path fill="#d4bbb2" d="M200 200h100v100H200z"/><path fill="#d2bbb5" d="M300 200h100v100H300z"/><path fill="#c6aaab" d="M400 200h100v100H400z"/><path fill="#cba593" d="M500 200h100v100H500z"/><path fill="#cb9d7d" d="M600 200h100v100H600z"/><path fill="#f0cdba" d="M700 200h100v100H700z"/><path fill="#d3b9ac" d="M0 300h100v100H0z"/><path fill="#9c7f7d" d="M100 300h100v100H100z"/><path fill="#cfb09c" d="M200 300h100v100H200z"/><path fill="#cfaa71" d="M300 300h100v100H300z"/><path fill="#c3945e" d="M400 300h100v100H400z"/><path fill="#cfa28c" d="M500 300h100v100H500z"/><path fill="#ba8292" d="M600 300h100v100H600z"/><path fill="#cdb288" d="M700 300h100v100H700z"/><path fill="#bca085" d="M0 400h100v100H0z"/><path fill="#b0967f" d="M100 400h100v100H100z"/><path fill="#bc996a" d="M200 400h100v100H200z"/><path fill="#bc995d" d="M300 400h100v100H300z"/><path fill="#be9d60" d="M400 400h100v100H400z"/><path fill="#bd9666" d="M500 400h100v100H500z"/><path fill="#b0747c" d="M600 400h100v100H600z"/><path fill="#b6746e" d="M700 400h100v100H700z"/></svg>