<svg xmlns="http://www.w3.org/2000/svg" viewBox="0 0 800 1100"><defs/><path fill="#2e629c" d="M0 0h100v100H0z"/><path fill="#5a86ac" d="M100 0h100v100H100z"/><path fill="#457dab" d="M200 0h100v100H200z"/><path fill="#2d5f9a" d="M300 0h100v100H300z"/><path fill="#42508a" d="M400 0h100v100H400z"/><path fill="#415184" d="M500 0h100v100H500z"/><path fill="#6f7a9b" d="M600 0h100v100H600z"/><path fill="#465789" d="M700 0h100v100H700z"/><path fill="#1971a9" d="M0 100h100v100H0z"/><path fill="#228dbb" d="M100 100h100v100H100z"/><path fill="#4f96b7" d="M200 100h100v100H200z"/><path fill="#1b79ad" d="M300 100h100v100H300z"/><path fill="#254688" d="M400 100h100v100H400z"/><path fill="#324281" d="M500 100h100v100H500z"/><path fill="#585e80" d="M600 100h100v100H600z"/><path fill="#555675" d="M700 100h100v100H700z"/><path fill="#0473af" d="M0 200h100v100H0z"/><path fill="#0482bc" d="M100 200h100v100H100z"/><path fill="#6d8094" d="M200 200h100v100H200z"/><path fill="#2f7ea9" d="M300 200h100v100H300z"/><path fill="#165798" d="M400 200h100v100H400z"/><path fill="#203e89" d="M500 200h100v100H500z"/><path fill="#ae9995" d="M600 200h100v100H600z"/><path fill="#9b7b79" d="M700 200h100v100H700z"/><path fill="#2c71a5" d="M0 300h100v100H0z"/><path fill="#4693b6" d="M100 300h100v100H100z"/><path fill="#81a0b8" d="M200 300h100v100H200z"/><path fill="#5794b5" d="M300 300h100v100H300z"/><path fill="#3a6b9c" d="M400 300h100v100H400z"/><path fill="#314184" d="M500 300h100v100H500z"/><path fill="#544568" d="M600 300h100v100H600z"/><path fill="#4b4974" d="M700 300h100v100H700z"/><path fill="#5c7fa4" d="M0 400h100v100H0z"/><path fill="#909aa6" d="M100 400h100v100H100z"/><path fill="#94a3b2" d="M200 400h100v100H200z"/><path fill="#8292a1" d="M300 400h100v100H300z"/><path fill="#7a8ca0" d="M400 400h100v100H400z"/><path fill="#413974" d="M500 400h100v100H500z"/><path fill="#2b1c5c" d="M600 400h100v100H600z"/><path fill="#283469" d="M700 400h100v100H700z"/><path fill="#17609c" d="M0 500h100v100H0z"/><path fill="#2495c2" d="M100 500h100v100H100z"/><path fill="#bcd4de" d="M200 500h100v100H200z"/><path fill="#f5f1ef" d="M300 500h100v100H300z"/><path fill="#7e95b7" d="M400 500h100v100H400z"/><path fill="#281e58" d="M500 500h100v100H500z"/><path fill="#35265c" d="M600 500h100v100H600z"/><path fill="#2f2756" d="M700 500h100v100H700z"/><path fill="#2e347b" d="M0 600h100v100H0z"/><path fill="#1d8ec3" d="M100 600h100v100H100z"/><path fill="#5a93b3" d="M200 600h100v100H200z"/><path fill="#afb9bc" d="M300 600h100v100H300z"/><path fill="#b1c9da" d="M400 600h100v100H400z"/><path fill="#232056" d="M500 600h100v100H500z"/><path fill="#2f2044" d="M600 600h100v100H600z"/><path fill="#2b2346" d="M700 600h100v100H700z"/><path fill="#29478f" d="M0 700h100v100H0z"/><path fill="#116498" d="M100 700h100v100H100z"/><path fill="#231e25" d="M200 700h100v100H200z"/><path fill="#6e614d" d="M300 700h100v100H300z"/><path fill="#c4cfcb" d="M400 700h100v100H400z"/><path fill="#517ea6" d="M500 700h100v100H500z"/><path fill="#191121" d="M600 700h100v100H600z"/><path fill="#2a2642" d="M700 700h100v100H700z"/><path fill="#275185" d="M0 800h100v100H0z"/><path fill="#2c576c" d="M100 800h100v100H100z"/><path fill="#84523f" d="M200 800h100v100H200z"/><path fill="#d8a171" d="M300 800h100v100H300z"/><path fill="#eac49d" d="M400 800h100v100H400z"/><path fill="#9eddf1" d="M500 800h100v100H500z"/><path fill="#0f3960" d="M600 800h100v100H600z"/><path fill="#1b1532" d="M700 800h100v100H700z"/><path fill="#214174" d="M0 900h100v100H0z"/><path fill="#311b18" d="M100 900h100v100H100z"/><path fill="#90432f" d="M200 900h100v100H200z"/><path fill="#924d32" d="M300 900h100v100H300z"/><path fill="#caa270" d="M400 900h100v100H400z"/><path fill="#cdb084" d="M500 900h100v100H500z"/><path fill="#a1928b" d="M600 900h100v100H600z"/><path fill="#a8a5a4" d="M700 900h100v100H700z"/><path fill="#3d5b73" d="M0 1000h100v100H0z"/><path fill="#4697b0" d="M100 1000h100v100H100z"/><path fill="#426d85" d="M200 1000h100v100H200z"/><path fill="#653634" d="M300 1000h100v100H300z"/><path fill="#ba966a" d="M400 1000h100v100H400z"/><path fill="#a5815c" d="M500 1000h100v100H500z"/><path fill="#5f2b1a" d="M600 1000h100v100H600z"/><path fill="#a8704a" d="M700 1000h100v100H700z"/></svg>