<svg xmlns="http://www.w3.org/2000/svg" viewBox="0 0 800 500"><defs/><path fill="#ced3db" d="M0 0h100v100H0z"/><path fill="#dfe2e6" d="M100 0h100v100H100z"/><path fill="#eceef0" d="M200 0h100v100H200z"/><path fill="#e9ecef" d="M300 0h100v100H300z"/><path fill="#e8e8e9" d="M400 0h100v100H400z"/><path fill="#e8ecef" d="M500 0h100v100H500z"/><path fill="#eef0f3" d="M600 0h100v100H600z"/><path fill="#f6f7f6" d="M700 0h100v100H700z"/><path fill="#41567a" d="M0 100h100v100H0z"/><path fill="#a4abb4" d="M100 100h100v100H100z"/><path fill="#a5b5c9" d="M200 100h100v100H200z"/><path fill="#c5ccd8" d="M300 100h100v100H300z"/><path fill="#a7bfda" d="M400 100h100v100H400z"/><path fill="#bac8d9" d="M500 100h100v100H500z"/><path fill="#bfcbd4" d="M600 100h100v100H600z"/><path fill="#eae7e6" d="M700 100h100v100H700z"/><path fill="#5e6f8c" d="M0 200h100v100H0z"/><path fill="#c0c4cb" d="M100 200h100v100H100z"/><path fill="#c0d2e6" d="M200 200h100v100H200z"/><path fill="#bcd5f1" d="M300 200h100v100H300z"/><path fill="#bcdaf6" d="M400 200h100v100H400z"/><path fill="#c3defc" d="M500 200h100v100H500z"/><path fill="#8b9a9a" d="M600 200h100v100H600z"/><path fill="#959686" d="M700 200h100v100H700z"/><path fill="#828fa4" d="M0 300h100v100H0z"/><path fill="#bebbb9" d="M100 300h100v100H100z"/><path fill="#dfd4c0" d="M200 300h100v100H200z"/><path fill="#cfc6b7" d="M300 300h100v100H300z"/><path fill="#715b4c" d="M400 300h100v100H400z"/><path fill="#d2c7b9" d="M500 300h100v100H500z"/><path fill="#e1d5c0" d="M600 300h100v100H600z"/><path fill="#76725f" d="M700 300h100v100H700z"/><path fill="#bcbcbc" d="M0 400h100v100H0z"/><path fill="#e8e2d9" d="M100 400h100v100H100z"/><path fill="#e8e2d3" d="M200 400h100v100H200z"/><path fill="#b9aa9e" d="M300 400h100v100H300z"/><path fill="#7e595a" d="M400 400h100v100H400z"/><path fill="#c6b5ae" d="M500 400h100v100H500z"/><path fill="#fffbee" d="M600 400h100v100H600z"/><path fill="#e3ddd5" d="M700 400h100v100H700z"/></svg>