<svg xmlns="http://www.w3.org/2000/svg" viewBox="0 0 800 500"><defs/><path fill="#d9dcc6" d="M0 0h100v100H0z"/><path fill="#ced6c1" d="M100 0h100v100H100z"/><path fill="#e1d7b4" d="M200 0h100v100H200z"/><path fill="#ede5d4" d="M300 0h100v100H300z"/><path fill="#ebe8e5" d="M400 0h100v100H400z"/><path fill="#f0edeb" d="M500 0h100v100H500z"/><path fill="#e9ebeb" d="M600 0h100v100H600z"/><path fill="#eae6c6" d="M700 0h100v100H700z"/><path fill="#a7b182" d="M0 100h100v100H0z"/><path fill="#929f6f" d="M100 100h100v100H100z"/><path fill="#dabc54" d="M200 100h100v100H200z"/><path fill="#e3d3aa" d="M300 100h100v100H300z"/><path fill="#e3ddc5" d="M400 100h100v100H400z"/><path fill="#e0d9c3" d="M500 100h100v100H500z"/><path fill="#b0bfb1" d="M600 100h100v100H600z"/><path fill="#cdc79b" d="M700 100h100v100H700z"/><path fill="#bdc4a2" d="M0 200h100v100H0z"/><path fill="#a8ad84" d="M100 200h100v100H100z"/><path fill="#decd76" d="M200 200h100v100H200z"/><path fill="#94a38c" d="M300 200h100v100H300z"/><path fill="#a2a797" d="M400 200h100v100H400z"/><path fill="#9d997d" d="M500 200h100v100H500z"/><path fill="#8e856d" d="M600 200h100v100H600z"/><path fill="#c1c289" d="M700 200h100v100H700z"/><path fill="#a9b386" d="M0 300h100v100H0z"/><path fill="#b7a67a" d="M100 300h100v100H100z"/><path fill="#da8d86" d="M200 300h100v100H200z"/><path fill="#9ba09c" d="M300 300h100v100H300z"/><path fill="#aaaea0" d="M400 300h100v100H400z"/><path fill="#b9b2a4" d="M500 300h100v100H500z"/><path fill="#aa806e" d="M600 300h100v100H600z"/><path fill="#b8af75" d="M700 300h100v100H700z"/><path fill="#bec8af" d="M0 400h100v100H0z"/><path fill="#c3bfa9" d="M100 400h100v100H100z"/><path fill="#d2aca3" d="M200 400h100v100H200z"/><path fill="#e7d4d1" d="M300 400h100v100H300z"/><path fill="#e6d6c6" d="M400 400h100v100H400z"/><path fill="#dde3e5" d="M500 400h100v100H500z"/><path fill="#d0cec5" d="M600 400h100v100H600z"/><path fill="#cac2aa" d="M700 400h100v100H700z"/></svg>