<svg xmlns="http://www.w3.org/2000/svg" viewBox="0 0 800 600"><defs/><path fill="#744e30" d="M0 0h100v100H0z"/><path fill="#6d5849" d="M100 0h100v100H100z"/><path fill="#78604d" d="M200 0h100v100H200z"/><path fill="#836b54" d="M300 0h100v100H300z"/><path fill="#8d745d" d="M400 0h100v100H400z"/><path fill="#907b66" d="M500 0h100v100H500z"/><path fill="#93806d" d="M600 0h100v100H600z"/><path fill="#96816c" d="M700 0h100v100H700z"/><path fill="#908c8c" d="M0 100h100v100H0z"/><path fill="#c5d0df" d="M100 100h100v100H100z"/><path fill="#bfc8d6" d="M200 100h100v100H200z"/><path fill="#c9d3e4" d="M300 100h100v100H300z"/><path fill="#d0dbeb" d="M400 100h100v100H400z"/><path fill="#d1dff0" d="M500 100h100v100H500z"/><path fill="#cfdff4" d="M600 100h100v100H600z"/><path fill="#cedef0" d="M700 100h100v100H700z"/><path fill="#9f978f" d="M0 200h100v100H0z"/><path fill="#f0f1e8" d="M100 200h100v100H100z"/><path fill="#e6e6db" d="M200 200h100v100H200z"/><path fill="#ebeae5" d="M300 200h100v100H300z"/><path fill="#eeeeea" d="M400 200h100v100H400z"/><path fill="#f2f3ef" d="M500 200h100v100H500z"/><path fill="#f3f5f4" d="M600 200h100v100H600z"/><path fill="#dce2e7" d="M700 200h100v100H700z"/><path fill="#8c8176" d="M0 300h100v100H0z"/><path fill="#c9cdcd" d="M100 300h100v100H100z"/><path fill="#e3e2d6" d="M200 300h100v100H200z"/><path fill="#e6e5dc" d="M300 300h100v100H300z"/><path fill="#ebeae5" d="M400 300h100v100H400z"/><path fill="#eae9e4" d="M500 300h100v100H500z"/><path fill="#e9eae4" d="M600 300h100v100H600z"/><path fill="#dfded5" d="M700 300h100v100H700z"/><path fill="#837466" d="M0 400h100v100H0z"/><path fill="#d8d5c7" d="M100 400h100v100H100z"/><path fill="#e7e5d9" d="M200 400h100v100H200z"/><path fill="#e6e0d4" d="M300 400h100v100H300z"/><path fill="#f8f6ef" d="M400 400h100v100H400z"/><path fill="#f8f8f2" d="M500 400h100v100H500z"/><path fill="#e9eae3" d="M600 400h100v100H600z"/><path fill="#dcdbcf" d="M700 400h100v100H700z"/><path fill="#685245" d="M0 500h100v100H0z"/><path fill="#aea491" d="M100 500h100v100H100z"/><path fill="#a9a499" d="M200 500h100v100H200z"/><path fill="#a39f97" d="M300 500h100v100H300z"/><path fill="#b8b6af" d="M400 500h100v100H400z"/><path fill="#b9b8b2" d="M500 500h100v100H500z"/><path fill="#b1ada3" d="M600 500h100v100H600z"/><path fill="#aba495" d="M700 500h100v100H700z"/></svg>