<svg xmlns="http://www.w3.org/2000/svg" viewBox="0 0 800 500"><defs/><path fill="#f0e5cb" d="M0 0h100v100H0z"/><path fill="#d6cdc5" d="M100 0h100v100H100z"/><path fill="#c8c7cf" d="M200 0h100v100H200z"/><path fill="#cccad0" d="M300 0h100v100H300z"/><path fill="#c9c9d4" d="M400 0h100v100H400z"/><path fill="#cecbd1" d="M500 0h100v100H500z"/><path fill="#d6d3d6" d="M600 0h100v100H600z"/><path fill="#e5dfd7" d="M700 0h100v100H700z"/><path fill="#d0a63f" d="M0 100h100v100H0z"/><path fill="#624836" d="M100 100h100v100H100z"/><path fill="#282b58" d="M200 100h100v100H200z"/><path fill="#302e44" d="M300 100h100v100H300z"/><path fill="#4f4d6c" d="M400 100h100v100H400z"/><path fill="#2e3154" d="M500 100h100v100H500z"/><path fill="#393953" d="M600 100h100v100H600z"/><path fill="#b59658" d="M700 100h100v100H700z"/><path fill="#cca44b" d="M0 200h100v100H0z"/><path fill="#584748" d="M100 200h100v100H100z"/><path fill="#41416b" d="M200 200h100v100H200z"/><path fill="#605a65" d="M300 200h100v100H300z"/><path fill="#4e3f50" d="M400 200h100v100H400z"/><path fill="#877a64" d="M500 200h100v100H500z"/><path fill="#8e7e55" d="M600 200h100v100H600z"/><path fill="#ba9133" d="M700 200h100v100H700z"/><path fill="#b8924c" d="M0 300h100v100H0z"/><path fill="#987558" d="M100 300h100v100H100z"/><path fill="#a27c5a" d="M200 300h100v100H200z"/><path fill="#b28f6d" d="M300 300h100v100H300z"/><path fill="#ae8355" d="M400 300h100v100H400z"/><path fill="#b6813f" d="M500 300h100v100H500z"/><path fill="#917430" d="M600 300h100v100H600z"/><path fill="#807a4f" d="M700 300h100v100H700z"/><path fill="#d1bfa6" d="M0 400h100v100H0z"/><path fill="#d7bca2" d="M100 400h100v100H100z"/><path fill="#dfc09e" d="M200 400h100v100H200z"/><path fill="#dec09f" d="M300 400h100v100H300z"/><path fill="#e5c7a8" d="M400 400h100v100H400z"/><path fill="#d5b898" d="M500 400h100v100H500z"/><path fill="#b6a88e" d="M600 400h100v100H600z"/><path fill="#c1b7ab" d="M700 400h100v100H700z"/></svg>