<svg xmlns="http://www.w3.org/2000/svg" viewBox="0 0 800 600"><defs/><path fill="#747a79" d="M0 0h100v100H0z"/><path fill="#96a09c" d="M100 0h100v100H100z"/><path fill="#828ca6" d="M200 0h100v100H200z"/><path fill="#89848f" d="M300 0h100v100H300z"/><path fill="#989499" d="M400 0h100v100H400z"/><path fill="#9c9ba2" d="M500 0h100v100H500z"/><path fill="#9a9ba3" d="M600 0h100v100H600z"/><path fill="#97a3b0" d="M700 0h100v100H700z"/><path fill="#7f8064" d="M0 100h100v100H0z"/><path fill="#b9c3b2" d="M100 100h100v100H100z"/><path fill="#9697b3" d="M200 100h100v100H200z"/><path fill="#a99798" d="M300 100h100v100H300z"/><path fill="#b4abb2" d="M400 100h100v100H400z"/><path fill="#b5b4c0" d="M500 100h100v100H500z"/><path fill="#abadb6" d="M600 100h100v100H600z"/><path fill="#b5c6d6" d="M700 100h100v100H700z"/><path fill="#7c7d62" d="M0 200h100v100H0z"/><path fill="#afb9b5" d="M100 200h100v100H100z"/><path fill="#8f8392" d="M200 200h100v100H200z"/><path fill="#ac9692" d="M300 200h100v100H300z"/><path fill="#8f9eae" d="M400 200h100v100H400z"/><path fill="#9aa3b1" d="M500 200h100v100H500z"/><path fill="#99969f" d="M600 200h100v100H600z"/><path fill="#a6b8c4" d="M700 200h100v100H700z"/><path fill="#73745e" d="M0 300h100v100H0z"/><path fill="#9da7b3" d="M100 300h100v100H100z"/><path fill="#8c8e9d" d="M200 300h100v100H200z"/><path fill="#a79996" d="M300 300h100v100H300z"/><path fill="#9f99a3" d="M400 300h100v100H400z"/><path fill="#b3a6b0" d="M500 300h100v100H500z"/><path fill="#b19fa5" d="M600 300h100v100H600z"/><path fill="#abaea3" d="M700 300h100v100H700z"/><path fill="#6a6d5f" d="M0 400h100v100H0z"/><path fill="#9faabe" d="M100 400h100v100H100z"/><path fill="#a4a8b7" d="M200 400h100v100H200z"/><path fill="#9c9f9c" d="M300 400h100v100H300z"/><path fill="#b4b5b6" d="M400 400h100v100H400z"/><path fill="#a6a8b4" d="M500 400h100v100H500z"/><path fill="#828593" d="M600 400h100v100H600z"/><path fill="#b1aab6" d="M700 400h100v100H700z"/><path fill="#626972" d="M0 500h100v100H0z"/><path fill="#919bab" d="M100 500h100v100H100z"/><path fill="#8f96a3" d="M200 500h100v100H200z"/><path fill="#9198a1" d="M300 500h100v100H300z"/><path fill="#9ca2af" d="M400 500h100v100H400z"/><path fill="#888d9b" d="M500 500h100v100H500z"/><path fill="#787f8c" d="M600 500h100v100H600z"/><path fill="#8d909d" d="M700 500h100v100H700z"/></svg>