<svg xmlns="http://www.w3.org/2000/svg" viewBox="0 0 800 500"><defs/><path fill="#e2e1de" d="M0 0h100v100H0z"/><path fill="#dbd9d5" d="M100 0h100v100H100z"/><path fill="#ccd8e1" d="M200 0h100v100H200z"/><path fill="#cedce8" d="M300 0h100v100H300z"/><path fill="#dedfdd" d="M400 0h100v100H400z"/><path fill="#e6e6e1" d="M500 0h100v100H500z"/><path fill="#dedbd7" d="M600 0h100v100H600z"/><path fill="#d6ded6" d="M700 0h100v100H700z"/><path fill="#b7b5a7" d="M0 100h100v100H0z"/><path fill="#b5af97" d="M100 100h100v100H100z"/><path fill="#466594" d="M200 100h100v100H200z"/><path fill="#4067a2" d="M300 100h100v100H300z"/><path fill="#837c6d" d="M400 100h100v100H400z"/><path fill="#82807a" d="M500 100h100v100H500z"/><path fill="#746d6a" d="M600 100h100v100H600z"/><path fill="#59765e" d="M700 100h100v100H700z"/><path fill="#c5c4b4" d="M0 200h100v100H0z"/><path fill="#a1a194" d="M100 200h100v100H100z"/><path fill="#767e68" d="M200 200h100v100H200z"/><path fill="#8b8b72" d="M300 200h100v100H300z"/><path fill="#394155" d="M400 200h100v100H400z"/><path fill="#604c66" d="M500 200h100v100H500z"/><path fill="#817a95" d="M600 200h100v100H600z"/><path fill="#515a54" d="M700 200h100v100H700z"/><path fill="#73726d" d="M0 300h100v100H0z"/><path fill="#8a7c6f" d="M100 300h100v100H100z"/><path fill="#888672" d="M200 300h100v100H200z"/><path fill="#71746f" d="M300 300h100v100H300z"/><path fill="#726a72" d="M400 300h100v100H400z"/><path fill="#646f87" d="M500 300h100v100H500z"/><path fill="#33496c" d="M600 300h100v100H600z"/><path fill="#73574d" d="M700 300h100v100H700z"/><path fill="#918982" d="M0 400h100v100H0z"/><path fill="#b09882" d="M100 400h100v100H100z"/><path fill="#bbafa4" d="M200 400h100v100H200z"/><path fill="#a69896" d="M300 400h100v100H300z"/><path fill="#c9a291" d="M400 400h100v100H400z"/><path fill="#beac91" d="M500 400h100v100H500z"/><path fill="#867c74" d="M600 400h100v100H600z"/><path fill="#b29f8b" d="M700 400h100v100H700z"/></svg>