<svg xmlns="http://www.w3.org/2000/svg" viewBox="0 0 800 600"><defs/><path fill="#f5e0b8" d="M0 0h100v100H0z"/><path fill="#f7dcb5" d="M100 0h100v100H100z"/><path fill="#ccac7a" d="M200 0h100v100H200z"/><path fill="#cfbc75" d="M300 0h100v100H300z"/><path fill="#d7b37b" d="M400 0h100v100H400z"/><path fill="#ae8979" d="M500 0h100v100H500z"/><path fill="#b0a595" d="M600 0h100v100H600z"/><path fill="#b37550" d="M700 0h100v100H700z"/><path fill="#d7c2a5" d="M0 100h100v100H0z"/><path fill="#dac6a4" d="M100 100h100v100H100z"/><path fill="#c29f5b" d="M200 100h100v100H200z"/><path fill="#d9d29b" d="M300 100h100v100H300z"/><path fill="#b6865a" d="M400 100h100v100H400z"/><path fill="#a2817d" d="M500 100h100v100H500z"/><path fill="#8899a8" d="M600 100h100v100H600z"/><path fill="#a66347" d="M700 100h100v100H700z"/><path fill="#a6957c" d="M0 200h100v100H0z"/><path fill="#c9a976" d="M100 200h100v100H100z"/><path fill="#b9a462" d="M200 200h100v100H200z"/><path fill="#aea28a" d="M300 200h100v100H300z"/><path fill="#9b7865" d="M400 200h100v100H400z"/><path fill="#b7997d" d="M500 200h100v100H500z"/><path fill="#c7b995" d="M600 200h100v100H600z"/><path fill="#bc8058" d="M700 200h100v100H700z"/><path fill="#dbc9a7" d="M0 300h100v100H0z"/><path fill="#c29c52" d="M100 300h100v100H100z"/><path fill="#bdac6e" d="M200 300h100v100H200z"/><path fill="#af9a79" d="M300 300h100v100H300z"/><path fill="#baa67a" d="M400 300h100v100H400z"/><path fill="#c0af7a" d="M500 300h100v100H500z"/><path fill="#f9dc80" d="M600 300h100v100H600z"/><path fill="#beb092" d="M700 300h100v100H700z"/><path fill="#bc9e63" d="M0 400h100v100H0z"/><path fill="#be9a43" d="M100 400h100v100H100z"/><path fill="#dbba6c" d="M200 400h100v100H200z"/><path fill="#bba15f" d="M300 400h100v100H300z"/><path fill="#d2b65c" d="M400 400h100v100H400z"/><path fill="#d4b562" d="M500 400h100v100H500z"/><path fill="#e9c55b" d="M600 400h100v100H600z"/><path fill="#ccaf95" d="M700 400h100v100H700z"/><path fill="#e1ba5c" d="M0 500h100v100H0z"/><path fill="#ebbd64" d="M100 500h100v100H100z"/><path fill="#f0c36d" d="M200 500h100v100H200z"/><path fill="#dcbf61" d="M300 500h100v100H300z"/><path fill="#dac55f" d="M400 500h100v100H400z"/><path fill="#f0c25f" d="M500 500h100v100H500z"/><path fill="#f0c356" d="M600 500h100v100H600z"/><path fill="#e6bd78" d="M700 500h100v100H700z"/></svg>