<svg xmlns="http://www.w3.org/2000/svg" viewBox="0 0 800 500"><defs/><path fill="#9d9092" d="M0 0h100v100H0z"/><path fill="#b19289" d="M100 0h100v100H100z"/><path fill="#b69681" d="M200 0h100v100H200z"/><path fill="#d3b89b" d="M300 0h100v100H300z"/><path fill="#f0d6ba" d="M400 0h100v100H400z"/><path fill="#f7ecca" d="M500 0h100v100H500z"/><path fill="#f4edd0" d="M600 0h100v100H600z"/><path fill="#f5eeca" d="M700 0h100v100H700z"/><path fill="#8d858e" d="M0 100h100v100H0z"/><path fill="#a67e7c" d="M100 100h100v100H100z"/><path fill="#a49575" d="M200 100h100v100H200z"/><path fill="#aaa374" d="M300 100h100v100H300z"/><path fill="#c9b6a3" d="M400 100h100v100H400z"/><path fill="#dcc6a5" d="M500 100h100v100H500z"/><path fill="#c2b6a3" d="M600 100h100v100H600z"/><path fill="#bb9b7e" d="M700 100h100v100H700z"/><path fill="#9f978c" d="M0 200h100v100H0z"/><path fill="#a58981" d="M100 200h100v100H100z"/><path fill="#aca37f" d="M200 200h100v100H200z"/><path fill="#9b8c6c" d="M300 200h100v100H300z"/><path fill="#ab8f71" d="M400 200h100v100H400z"/><path fill="#c09570" d="M500 200h100v100H500z"/><path fill="#a58b77" d="M600 200h100v100H600z"/><path fill="#ad8b75" d="M700 200h100v100H700z"/><path fill="#b59b97" d="M0 300h100v100H0z"/><path fill="#a48772" d="M100 300h100v100H100z"/><path fill="#989083" d="M200 300h100v100H200z"/><path fill="#7f7681" d="M300 300h100v100H300z"/><path fill="#908682" d="M400 300h100v100H400z"/><path fill="#a57450" d="M500 300h100v100H500z"/><path fill="#8d5436" d="M600 300h100v100H600z"/><path fill="#796157" d="M700 300h100v100H700z"/><path fill="#af9083" d="M0 400h100v100H0z"/><path fill="#9f8c75" d="M100 400h100v100H100z"/><path fill="#958e84" d="M200 400h100v100H200z"/><path fill="#968b8d" d="M300 400h100v100H300z"/><path fill="#8b7f79" d="M400 400h100v100H400z"/><path fill="#8c6d54" d="M500 400h100v100H500z"/><path fill="#734c2d" d="M600 400h100v100H600z"/><path fill="#563f37" d="M700 400h100v100H700z"/></svg>