<svg xmlns="http://www.w3.org/2000/svg" viewBox="0 0 800 500"><defs/><path fill="#92ac89" d="M0 0h100v100H0z"/><path fill="#8e9178" d="M100 0h100v100H100z"/><path fill="#c9aea9" d="M200 0h100v100H200z"/><path fill="#cebfbb" d="M300 0h100v100H300z"/><path fill="#ccc1b9" d="M400 0h100v100H400z"/><path fill="#ddc9c2" d="M500 0h100v100H500z"/><path fill="#daccc6" d="M600 0h100v100H600z"/><path fill="#dedad1" d="M700 0h100v100H700z"/><path fill="#77976b" d="M0 100h100v100H0z"/><path fill="#7a8166" d="M100 100h100v100H100z"/><path fill="#b58d81" d="M200 100h100v100H200z"/><path fill="#7f6e68" d="M300 100h100v100H300z"/><path fill="#8c8374" d="M400 100h100v100H400z"/><path fill="#a89780" d="M500 100h100v100H500z"/><path fill="#cdb7a7" d="M600 100h100v100H600z"/><path fill="#ccc2b3" d="M700 100h100v100H700z"/><path fill="#7b9170" d="M0 200h100v100H0z"/><path fill="#88806f" d="M100 200h100v100H100z"/><path fill="#b2a19c" d="M200 200h100v100H200z"/><path fill="#a3999b" d="M300 200h100v100H300z"/><path fill="#b39ba1" d="M400 200h100v100H400z"/><path fill="#b3bbbe" d="M500 200h100v100H500z"/><path fill="#d7c0b6" d="M600 200h100v100H600z"/><path fill="#ddd2c7" d="M700 200h100v100H700z"/><path fill="#6a7057" d="M0 300h100v100H0z"/><path fill="#796a59" d="M100 300h100v100H100z"/><path fill="#a18d7e" d="M200 300h100v100H200z"/><path fill="#aea08e" d="M300 300h100v100H300z"/><path fill="#b5a58e" d="M400 300h100v100H400z"/><path fill="#ccb99f" d="M500 300h100v100H500z"/><path fill="#d1c5bc" d="M600 300h100v100H600z"/><path fill="#bcc9d6" d="M700 300h100v100H700z"/><path fill="#6a745f" d="M0 400h100v100H0z"/><path fill="#8e8172" d="M100 400h100v100H100z"/><path fill="#8c7b68" d="M200 400h100v100H200z"/><path fill="#8e8372" d="M300 400h100v100H300z"/><path fill="#927f5e" d="M400 400h100v100H400z"/><path fill="#ac9b85" d="M500 400h100v100H500z"/><path fill="#babab2" d="M600 400h100v100H600z"/><path fill="#afc2d5" d="M700 400h100v100H700z"/></svg>