<svg xmlns="http://www.w3.org/2000/svg" viewBox="0 0 800 600"><defs/><path fill="#ded36b" d="M0 0h100v100H0z"/><path fill="#ddd58b" d="M100 0h100v100H100z"/><path fill="#d4d1cd" d="M200 0h100v100H200z"/><path fill="#dcd5e4" d="M300 0h100v100H300z"/><path fill="#dad5e3" d="M400 0h100v100H400z"/><path fill="#d9bcdc" d="M500 0h100v100H500z"/><path fill="#d8cbe5" d="M600 0h100v100H600z"/><path fill="#b0bbcc" d="M700 0h100v100H700z"/><path fill="#dcc97f" d="M0 100h100v100H0z"/><path fill="#d1c89f" d="M100 100h100v100H100z"/><path fill="#d0c3cf" d="M200 100h100v100H200z"/><path fill="#cbc1cc" d="M300 100h100v100H300z"/><path fill="#c9c1c5" d="M400 100h100v100H400z"/><path fill="#cab8c5" d="M500 100h100v100H500z"/><path fill="#b0b0c9" d="M600 100h100v100H600z"/><path fill="#579bcf" d="M700 100h100v100H700z"/><path fill="#cdbd91" d="M0 200h100v100H0z"/><path fill="#bab2a4" d="M100 200h100v100H100z"/><path fill="#c5a7c6" d="M200 200h100v100H200z"/><path fill="#b5aebf" d="M300 200h100v100H300z"/><path fill="#b1b6bf" d="M400 200h100v100H400z"/><path fill="#b7b1c1" d="M500 200h100v100H500z"/><path fill="#b3aebf" d="M600 200h100v100H600z"/><path fill="#a5bada" d="M700 200h100v100H700z"/><path fill="#b8b07f" d="M0 300h100v100H0z"/><path fill="#a89f98" d="M100 300h100v100H100z"/><path fill="#b19bb1" d="M200 300h100v100H200z"/><path fill="#b1aea1" d="M300 300h100v100H300z"/><path fill="#b6bf81" d="M400 300h100v100H400z"/><path fill="#bcb88f" d="M500 300h100v100H500z"/><path fill="#c6c1c6" d="M600 300h100v100H600z"/><path fill="#e4d7e1" d="M700 300h100v100H700z"/><path fill="#a79f82" d="M0 400h100v100H0z"/><path fill="#989187" d="M100 400h100v100H100z"/><path fill="#989291" d="M200 400h100v100H200z"/><path fill="#a19062" d="M300 400h100v100H300z"/><path fill="#af9b17" d="M400 400h100v100H400z"/><path fill="#bca97b" d="M500 400h100v100H500z"/><path fill="#cbc8cc" d="M600 400h100v100H600z"/><path fill="#d4cfcf" d="M700 400h100v100H700z"/><path fill="#969087" d="M0 500h100v100H0z"/><path fill="#857d76" d="M100 500h100v100H100z"/><path fill="#8c7f76" d="M200 500h100v100H200z"/><path fill="#9b898b" d="M300 500h100v100H300z"/><path fill="#a69799" d="M400 500h100v100H400z"/><path fill="#b7aab2" d="M500 500h100v100H500z"/><path fill="#c3bdb6" d="M600 500h100v100H600z"/><path fill="#cccbc4" d="M700 500h100v100H700z"/></svg>