<svg xmlns="http://www.w3.org/2000/svg" viewBox="0 0 800 600"><defs/><path fill="#dadada" d="M0 0h100v100H0z"/><path fill="#e2e2e3" d="M100 0h100v100H100z"/><path fill="#ebeaeb" d="M200 0h100v100H200z"/><path fill="#e8e7e7" d="M300 0h100v100H300z"/><path fill="#eceeee" d="M400 0h100v100H400z"/><path fill="#efdfde" d="M500 0h100v100H500z"/><path fill="#ebe0e2" d="M600 0h100v100H600z"/><path fill="#e5e3e6" d="M700 0h100v100H700z"/><path fill="#e4e4e4" d="M0 100h100v100H0z"/><path fill="#dfddde" d="M100 100h100v100H100z"/><path fill="#ead2e3" d="M200 100h100v100H200z"/><path fill="#e8e4e6" d="M300 100h100v100H300z"/><path fill="#e7edec" d="M400 100h100v100H400z"/><path fill="#ecd1d3" d="M500 100h100v100H500z"/><path fill="#e9bace" d="M600 100h100v100H600z"/><path fill="#e9e2e9" d="M700 100h100v100H700z"/><path fill="#e1e1e1" d="M0 200h100v100H0z"/><path fill="#e3e3e3" d="M100 200h100v100H100z"/><path fill="#e9dfea" d="M200 200h100v100H200z"/><path fill="#e8eaec" d="M300 200h100v100H300z"/><path fill="#ecf0ee" d="M400 200h100v100H400z"/><path fill="#efc2c3" d="M500 200h100v100H500z"/><path fill="#e8bed6" d="M600 200h100v100H600z"/><path fill="#e9e6ee" d="M700 200h100v100H700z"/><path fill="#ddd" d="M0 300h100v100H0z"/><path fill="#e1e1e1" d="M100 300h100v100H100z"/><path fill="#f1bfbb" d="M200 300h100v100H200z"/><path fill="#e9bdba" d="M300 300h100v100H300z"/><path fill="#e2e0df" d="M400 300h100v100H400z"/><path fill="#eca4a2" d="M500 300h100v100H500z"/><path fill="#ed909a" d="M600 300h100v100H600z"/><path fill="#e9cdd0" d="M700 300h100v100H700z"/><path fill="#d8d8d8" d="M0 400h100v100H0z"/><path fill="#e5e3e3" d="M100 400h100v100H100z"/><path fill="#f4c1be" d="M200 400h100v100H200z"/><path fill="#f3bbb7" d="M300 400h100v100H300z"/><path fill="#f0d3d1" d="M400 400h100v100H400z"/><path fill="#f1afab" d="M500 400h100v100H500z"/><path fill="#f48780" d="M600 400h100v100H600z"/><path fill="#f09792" d="M700 400h100v100H700z"/><path fill="#e9e9e9" d="M0 500h100v100H0z"/><path fill="#f9f8f8" d="M100 500h100v100H100z"/><path fill="#f7eae9" d="M200 500h100v100H200z"/><path fill="#f8e4e2" d="M300 500h100v100H300z"/><path fill="#f8bdb9" d="M400 500h100v100H400z"/><path fill="#f6d6d4" d="M500 500h100v100H500z"/><path fill="#f5eded" d="M600 500h100v100H600z"/><path fill="#f7c6c3" d="M700 500h100v100H700z"/></svg>