<svg xmlns="http://www.w3.org/2000/svg" viewBox="0 0 800 400"><defs/><path fill="#3a3f77" d="M0 0h100v100H0z"/><path fill="#9e8e87" d="M100 0h100v100H100z"/><path fill="#ae9e5c" d="M200 0h100v100H200z"/><path fill="#c3a878" d="M300 0h100v100H300z"/><path fill="#beaa75" d="M400 0h100v100H400z"/><path fill="#c9ae75" d="M500 0h100v100H500z"/><path fill="#979d6f" d="M600 0h100v100H600z"/><path fill="#aca491" d="M700 0h100v100H700z"/><path fill="#434377" d="M0 100h100v100H0z"/><path fill="#9c8977" d="M100 100h100v100H100z"/><path fill="#848a4d" d="M200 100h100v100H200z"/><path fill="#939d8c" d="M300 100h100v100H300z"/><path fill="#93a083" d="M400 100h100v100H400z"/><path fill="#8fa88b" d="M500 100h100v100H500z"/><path fill="#86905b" d="M600 100h100v100H600z"/><path fill="#9b8371" d="M700 100h100v100H700z"/><path fill="#5c5373" d="M0 200h100v100H0z"/><path fill="#a39179" d="M100 200h100v100H100z"/><path fill="#8c8f68" d="M200 200h100v100H200z"/><path fill="#8a8e75" d="M300 200h100v100H300z"/><path fill="#848672" d="M400 200h100v100H400z"/><path fill="#94a17c" d="M500 200h100v100H500z"/><path fill="#9a936b" d="M600 200h100v100H600z"/><path fill="#968270" d="M700 200h100v100H700z"/><path fill="#756e7b" d="M0 300h100v100H0z"/><path fill="#95796b" d="M100 300h100v100H100z"/><path fill="#a47359" d="M200 300h100v100H200z"/><path fill="#6c7a81" d="M300 300h100v100H300z"/><path fill="#21537b" d="M400 300h100v100H400z"/><path fill="#8e8b7f" d="M500 300h100v100H500z"/><path fill="#926c76" d="M600 300h100v100H600z"/><path fill="#94847f" d="M700 300h100v100H700z"/></svg>