<svg xmlns="http://www.w3.org/2000/svg" viewBox="0 0 800 600"><defs/><path fill="#eeecec" d="M0 0h100v100H0z"/><path fill="#ede8e7" d="M100 0h100v100H100z"/><path fill="#f3f0ee" d="M200 0h100v100H200z"/><path fill="#f8f8f4" d="M300 0h100v100H300z"/><path fill="#f6f5f1" d="M400 0h100v100H400z"/><path fill="#f5f5f2" d="M500 0h100v100H500z"/><path fill="#f5f5f3" d="M600 0h100v100H600z"/><path fill="#f5f5f4" d="M700 0h100v100H700z"/><path fill="#73646b" d="M0 100h100v100H0z"/><path fill="#8b493c" d="M100 100h100v100H100z"/><path fill="#c5b19a" d="M200 100h100v100H200z"/><path fill="#c0a78f" d="M300 100h100v100H300z"/><path fill="#ccb39b" d="M400 100h100v100H400z"/><path fill="#dcc1a7" d="M500 100h100v100H500z"/><path fill="#cbad93" d="M600 100h100v100H600z"/><path fill="#847168" d="M700 100h100v100H700z"/><path fill="#72585c" d="M0 200h100v100H0z"/><path fill="#965749" d="M100 200h100v100H100z"/><path fill="#947664" d="M200 200h100v100H200z"/><path fill="#cba695" d="M300 200h100v100H300z"/><path fill="#ddc3ab" d="M400 200h100v100H400z"/><path fill="#e4d4bb" d="M500 200h100v100H500z"/><path fill="#cca691" d="M600 200h100v100H600z"/><path fill="#73564f" d="M700 200h100v100H700z"/><path fill="#876564" d="M0 300h100v100H0z"/><path fill="#85433d" d="M100 300h100v100H100z"/><path fill="#8e685c" d="M200 300h100v100H200z"/><path fill="#d5ae9a" d="M300 300h100v100H300z"/><path fill="#dcbea7" d="M400 300h100v100H400z"/><path fill="#e1c3ab" d="M500 300h100v100H500z"/><path fill="#c7967f" d="M600 300h100v100H600z"/><path fill="#756159" d="M700 300h100v100H700z"/><path fill="#a27b7a" d="M0 400h100v100H0z"/><path fill="#8b5446" d="M100 400h100v100H100z"/><path fill="#967366" d="M200 400h100v100H200z"/><path fill="#a66e5f" d="M300 400h100v100H300z"/><path fill="#ca8870" d="M400 400h100v100H400z"/><path fill="#d09b82" d="M500 400h100v100H500z"/><path fill="#d09177" d="M600 400h100v100H600z"/><path fill="#b08879" d="M700 400h100v100H700z"/><path fill="#f1e9e4" d="M0 500h100v100H0z"/><path fill="#eee4dd" d="M100 500h100v100H100z"/><path fill="#eee7e2" d="M200 500h100v100H200z"/><path fill="#ede0dc" d="M300 500h100v100H300z"/><path fill="#ece3de" d="M400 500h100v100H400z"/><path fill="#ede7e2" d="M500 500h100v100H500z"/><path fill="#ede2dc" d="M600 500h100v100H600z"/><path fill="#f1e7e2" d="M700 500h100v100H700z"/></svg>