<svg xmlns="http://www.w3.org/2000/svg" viewBox="0 0 800 400"><defs/><path fill="#482618" d="M0 0h100v100H0z"/><path fill="#311b0f" d="M100 0h100v100H100z"/><path fill="#5a3522" d="M200 0h100v100H200z"/><path fill="#704029" d="M300 0h100v100H300z"/><path fill="#77432a" d="M400 0h100v100H400z"/><path fill="#a46c49" d="M500 0h100v100H500z"/><path fill="#9a5c3d" d="M600 0h100v100H600z"/><path fill="#6b3823" d="M700 0h100v100H700z"/><path fill="#402416" d="M0 100h100v100H0z"/><path fill="#2f1a0f" d="M100 100h100v100H100z"/><path fill="#4f3423" d="M200 100h100v100H200z"/><path fill="#533321" d="M300 100h100v100H300z"/><path fill="#653c26" d="M400 100h100v100H400z"/><path fill="#b7814d" d="M500 100h100v100H500z"/><path fill="#ae7444" d="M600 100h100v100H600z"/><path fill="#714028" d="M700 100h100v100H700z"/><path fill="#311c10" d="M0 200h100v100H0z"/><path fill="#25140b" d="M100 200h100v100H100z"/><path fill="#361f14" d="M200 200h100v100H200z"/><path fill="#2a170c" d="M300 200h100v100H300z"/><path fill="#442717" d="M400 200h100v100H400z"/><path fill="#885732" d="M500 200h100v100H500z"/><path fill="#8f5d35" d="M600 200h100v100H600z"/><path fill="#4b2d1b" d="M700 200h100v100H700z"/><path fill="#2a180e" d="M0 300h100v100H0z"/><path fill="#2f1a10" d="M100 300h100v100H100z"/><path fill="#3a2212" d="M200 300h100v100H200z"/><path fill="#68472c" d="M300 300h100v100H300z"/><path fill="#6a472c" d="M400 300h100v100H400z"/><path fill="#2d1e10" d="M500 300h100v100H500z"/><path fill="#4c331d" d="M600 300h100v100H600z"/><path fill="#29150b" d="M700 300h100v100H700z"/></svg>