<svg xmlns="http://www.w3.org/2000/svg" viewBox="0 0 800 600"><defs/><path fill="#e8ebee" d="M0 0h100v100H0z"/><path fill="#cfd6dd" d="M100 0h100v100H100z"/><path fill="#d9dfe8" d="M200 0h100v100H200z"/><path fill="#d7dbe2" d="M300 0h100v100H300z"/><path fill="#d9dce1" d="M400 0h100v100H400z"/><path fill="#dadee6" d="M500 0h100v100H500z"/><path fill="#e1e5e9" d="M600 0h100v100H600z"/><path fill="#e4e5e6" d="M700 0h100v100H700z"/><path fill="#a4aec0" d="M0 100h100v100H0z"/><path fill="#75859e" d="M100 100h100v100H100z"/><path fill="#6c8aac" d="M200 100h100v100H200z"/><path fill="#52657d" d="M300 100h100v100H300z"/><path fill="#4f5872" d="M400 100h100v100H400z"/><path fill="#607091" d="M500 100h100v100H500z"/><path fill="#6c7b96" d="M600 100h100v100H600z"/><path fill="#646776" d="M700 100h100v100H700z"/><path fill="#9faabe" d="M0 200h100v100H0z"/><path fill="#8998ad" d="M100 200h100v100H100z"/><path fill="#77859e" d="M200 200h100v100H200z"/><path fill="#828aa7" d="M300 200h100v100H300z"/><path fill="#868eac" d="M400 200h100v100H400z"/><path fill="#727fa0" d="M500 200h100v100H500z"/><path fill="#687b98" d="M600 200h100v100H600z"/><path fill="#677181" d="M700 200h100v100H700z"/><path fill="#8b96a7" d="M0 300h100v100H0z"/><path fill="#687288" d="M100 300h100v100H100z"/><path fill="#7f839b" d="M200 300h100v100H200z"/><path fill="#9095b1" d="M300 300h100v100H300z"/><path fill="#9d9cb4" d="M400 300h100v100H400z"/><path fill="#6f7085" d="M500 300h100v100H500z"/><path fill="#627688" d="M600 300h100v100H600z"/><path fill="#75848b" d="M700 300h100v100H700z"/><path fill="#919daf" d="M0 400h100v100H0z"/><path fill="#6e7187" d="M100 400h100v100H100z"/><path fill="#98a9c2" d="M200 400h100v100H200z"/><path fill="#567b98" d="M300 400h100v100H300z"/><path fill="#304c68" d="M400 400h100v100H400z"/><path fill="#465069" d="M500 400h100v100H500z"/><path fill="#39606f" d="M600 400h100v100H600z"/><path fill="#4c6d79" d="M700 400h100v100H700z"/><path fill="#e0e3ea" d="M0 500h100v100H0z"/><path fill="#dfe3e9" d="M100 500h100v100H100z"/><path fill="#e4e9ef" d="M200 500h100v100H200z"/><path fill="#d3dde7" d="M300 500h100v100H300z"/><path fill="#cad3dc" d="M400 500h100v100H400z"/><path fill="#d4d9e2" d="M500 500h100v100H500z"/><path fill="#c0cdd2" d="M600 500h100v100H600z"/><path fill="#bdc9cd" d="M700 500h100v100H700z"/></svg>