<svg xmlns="http://www.w3.org/2000/svg" viewBox="0 0 800 500"><defs/><path fill="#f9f9f8" d="M0 0h100v100H0z"/><path fill="#f4f3f3" d="M100 0h100v100H100z"/><path fill="#fdfdfd" d="M200 0h100v100H200z"/><path fill="#f6f5f5" d="M300 0h100v100H300z"/><path fill="#f0f1f0" d="M400 0h100v100H400z"/><path fill="#f8f8f8" d="M500 0h100v100H500z"/><path fill="#f6f5f5" d="M600 0h100v100H600z"/><path fill="#f5f5f5" d="M700 0h100v100H700z"/><path fill="#f1f0ef" d="M0 100h100v100H0z"/><path fill="#e7e7e5" d="M100 100h100v100H100z"/><path fill="#ebebea" d="M200 100h100v100H200z"/><path fill="#d9d9d8" d="M300 100h100v100H300z"/><path fill="#dadad8" d="M400 100h100v100H400z"/><path fill="#dfdddc" d="M500 100h100v100H500z"/><path fill="#e5e3e3" d="M600 100h100v100H600z"/><path fill="#eeedec" d="M700 100h100v100H700z"/><path fill="#f6f6f5" d="M0 200h100v100H0z"/><path fill="#eaeae8" d="M100 200h100v100H100z"/><path fill="#e6e6e5" d="M200 200h100v100H200z"/><path fill="#dbdcdb" d="M300 200h100v100H300z"/><path fill="#dedddd" d="M400 200h100v100H400z"/><path fill="#dfdcdd" d="M500 200h100v100H500z"/><path fill="#e1dede" d="M600 200h100v100H600z"/><path fill="#efedee" d="M700 200h100v100H700z"/><path fill="#efeded" d="M0 300h100v100H0z"/><path fill="#e1dfde" d="M100 300h100v100H100z"/><path fill="#e3e1e0" d="M200 300h100v100H200z"/><path fill="#e5e1e1" d="M300 300h100v100H300z"/><path fill="#e0dcdd" d="M400 300h100v100H400z"/><path fill="#d0cdce" d="M500 300h100v100H500z"/><path fill="#d3d0d1" d="M600 300h100v100H600z"/><path fill="#e9e6e8" d="M700 300h100v100H700z"/><path fill="#e5e3e3" d="M0 400h100v100H0z"/><path fill="#e4e1e1" d="M100 400h100v100H100z"/><path fill="#eae6e6" d="M200 400h100v100H200z"/><path fill="#e7e2e1" d="M300 400h100v100H300z"/><path fill="#ddd9d8" d="M400 400h100v100H400z"/><path fill="#cdcaca" d="M500 400h100v100H500z"/><path fill="#cfccce" d="M600 400h100v100H600z"/><path fill="#e8e6e9" d="M700 400h100v100H700z"/></svg>