<svg xmlns="http://www.w3.org/2000/svg" viewBox="0 0 800 600"><defs/><path fill="#f9f5f5" d="M0 0h100v100H0z"/><path fill="#f3eeed" d="M100 0h100v100H100z"/><path fill="#f8f9fa" d="M200 0h100v100H200z"/><path fill="#fefbfb" d="M300 0h100v100H300z"/><path fill="#fffaf9" d="M400 0h100v100H400z"/><path fill="#fcfafa" d="M500 0h100v100H500z"/><path fill="#faf8f8" d="M600 0h100v100H600z"/><path fill="#fbf9f9" d="M700 0h100v100H700z"/><path fill="#cbaca7" d="M0 100h100v100H0z"/><path fill="#a17a75" d="M100 100h100v100H100z"/><path fill="#dbdbd6" d="M200 100h100v100H200z"/><path fill="#bbd2d4" d="M300 100h100v100H300z"/><path fill="#a6cfdb" d="M400 100h100v100H400z"/><path fill="#a9bec6" d="M500 100h100v100H500z"/><path fill="#b7c1bd" d="M600 100h100v100H600z"/><path fill="#d2e0de" d="M700 100h100v100H700z"/><path fill="#d6bbb4" d="M0 200h100v100H0z"/><path fill="#ab8986" d="M100 200h100v100H100z"/><path fill="#beb9a4" d="M200 200h100v100H200z"/><path fill="#8aa27e" d="M300 200h100v100H300z"/><path fill="#567c59" d="M400 200h100v100H400z"/><path fill="#687667" d="M500 200h100v100H500z"/><path fill="#737862" d="M600 200h100v100H600z"/><path fill="#b1bbad" d="M700 200h100v100H700z"/><path fill="#dfc5c4" d="M0 300h100v100H0z"/><path fill="#a89495" d="M100 300h100v100H100z"/><path fill="#b3a491" d="M200 300h100v100H200z"/><path fill="#70695b" d="M300 300h100v100H300z"/><path fill="#6c675c" d="M400 300h100v100H400z"/><path fill="#7b624d" d="M500 300h100v100H500z"/><path fill="#826e61" d="M600 300h100v100H600z"/><path fill="#b4b3b2" d="M700 300h100v100H700z"/><path fill="#d9c6c7" d="M0 400h100v100H0z"/><path fill="#ab9180" d="M100 400h100v100H100z"/><path fill="#945c1f" d="M200 400h100v100H200z"/><path fill="#5d5849" d="M300 400h100v100H300z"/><path fill="#aaa0a7" d="M400 400h100v100H400z"/><path fill="#c4aa91" d="M500 400h100v100H500z"/><path fill="#9f4900" d="M600 400h100v100H600z"/><path fill="#c3ad95" d="M700 400h100v100H700z"/><path fill="#eae2df" d="M0 500h100v100H0z"/><path fill="#d7b898" d="M100 500h100v100H100z"/><path fill="#d5b692" d="M200 500h100v100H200z"/><path fill="#cac2be" d="M300 500h100v100H300z"/><path fill="#eae5e5" d="M400 500h100v100H400z"/><path fill="#f2ebe1" d="M500 500h100v100H500z"/><path fill="#d6aa7a" d="M600 500h100v100H600z"/><path fill="#dfcab3" d="M700 500h100v100H700z"/></svg>