<svg xmlns="http://www.w3.org/2000/svg" viewBox="0 0 800 600"><defs/><path fill="#98add6" d="M0 0h100v100H0z"/><path fill="#7f89a8" d="M100 0h100v100H100z"/><path fill="#a6b6d6" d="M200 0h100v100H200z"/><path fill="#a8b7ce" d="M300 0h100v100H300z"/><path fill="#a9b2bc" d="M400 0h100v100H400z"/><path fill="#a5b5d5" d="M500 0h100v100H500z"/><path fill="#93a4c6" d="M600 0h100v100H600z"/><path fill="#879cc3" d="M700 0h100v100H700z"/><path fill="#94acbf" d="M0 100h100v100H0z"/><path fill="#5f8275" d="M100 100h100v100H100z"/><path fill="#b5c4e3" d="M200 100h100v100H200z"/><path fill="#acbac8" d="M300 100h100v100H300z"/><path fill="#a8afa8" d="M400 100h100v100H400z"/><path fill="#aabbd2" d="M500 100h100v100H500z"/><path fill="#98a6c0" d="M600 100h100v100H600z"/><path fill="#9faac9" d="M700 100h100v100H700z"/><path fill="#a29ca0" d="M0 200h100v100H0z"/><path fill="#a79380" d="M100 200h100v100H100z"/><path fill="#b1c3e0" d="M200 200h100v100H200z"/><path fill="#b6c5d9" d="M300 200h100v100H300z"/><path fill="#a8bcd6" d="M400 200h100v100H400z"/><path fill="#a1b6c8" d="M500 200h100v100H500z"/><path fill="#99afc3" d="M600 200h100v100H600z"/><path fill="#9dacc6" d="M700 200h100v100H700z"/><path fill="#8b719a" d="M0 300h100v100H0z"/><path fill="#8e789c" d="M100 300h100v100H100z"/><path fill="#9db2c8" d="M200 300h100v100H200z"/><path fill="#9ba7bb" d="M300 300h100v100H300z"/><path fill="#9baebc" d="M400 300h100v100H400z"/><path fill="#9bb2c0" d="M500 300h100v100H500z"/><path fill="#98b3c8" d="M600 300h100v100H600z"/><path fill="#9aafcb" d="M700 300h100v100H700z"/><path fill="#4c5e99" d="M0 400h100v100H0z"/><path fill="#7889b4" d="M100 400h100v100H100z"/><path fill="#a3b6d1" d="M200 400h100v100H200z"/><path fill="#a2b2c7" d="M300 400h100v100H300z"/><path fill="#9fb2c9" d="M400 400h100v100H400z"/><path fill="#9eb1ca" d="M500 400h100v100H500z"/><path fill="#a0b3cf" d="M600 400h100v100H600z"/><path fill="#9cabcb" d="M700 400h100v100H700z"/><path fill="#749dcc" d="M0 500h100v100H0z"/><path fill="#8cabd4" d="M100 500h100v100H100z"/><path fill="#94abd1" d="M200 500h100v100H200z"/><path fill="#9baed2" d="M300 500h100v100H300z"/><path fill="#9eafd0" d="M400 500h100v100H400z"/><path fill="#9daecf" d="M500 500h100v100H500z"/><path fill="#98a8c9" d="M600 500h100v100H600z"/><path fill="#7b87ad" d="M700 500h100v100H700z"/></svg>