<svg xmlns="http://www.w3.org/2000/svg" viewBox="0 0 800 400"><defs/><path fill="#80612e" d="M0 0h100v100H0z"/><path fill="#715f34" d="M100 0h100v100H100z"/><path fill="#876831" d="M200 0h100v100H200z"/><path fill="#724f42" d="M300 0h100v100H300z"/><path fill="#3f728b" d="M400 0h100v100H400z"/><path fill="#5d5c69" d="M500 0h100v100H500z"/><path fill="#a07345" d="M600 0h100v100H600z"/><path fill="#969e9a" d="M700 0h100v100H700z"/><path fill="#7c695a" d="M0 100h100v100H0z"/><path fill="#646458" d="M100 100h100v100H100z"/><path fill="#7e6143" d="M200 100h100v100H200z"/><path fill="#98403e" d="M300 100h100v100H300z"/><path fill="#265b85" d="M400 100h100v100H400z"/><path fill="#563f4b" d="M500 100h100v100H500z"/><path fill="#7a4b30" d="M600 100h100v100H600z"/><path fill="#9aaba5" d="M700 100h100v100H700z"/><path fill="#856c36" d="M0 200h100v100H0z"/><path fill="#69614b" d="M100 200h100v100H100z"/><path fill="#7f7170" d="M200 200h100v100H200z"/><path fill="#915d58" d="M300 200h100v100H300z"/><path fill="#84625f" d="M400 200h100v100H400z"/><path fill="#704e4b" d="M500 200h100v100H500z"/><path fill="#77564d" d="M600 200h100v100H600z"/><path fill="#949795" d="M700 200h100v100H700z"/><path fill="#837c68" d="M0 300h100v100H0z"/><path fill="#9f938f" d="M100 300h100v100H100z"/><path fill="#8c7d78" d="M200 300h100v100H200z"/><path fill="#605b6b" d="M300 300h100v100H300z"/><path fill="#776370" d="M400 300h100v100H400z"/><path fill="#9f8d8d" d="M500 300h100v100H500z"/><path fill="#918988" d="M600 300h100v100H600z"/><path fill="#918887" d="M700 300h100v100H700z"/></svg>