<svg xmlns="http://www.w3.org/2000/svg" viewBox="0 0 800 600"><defs/><path fill="#dec3b0" d="M0 0h100v100H0z"/><path fill="#d0adaf" d="M100 0h100v100H100z"/><path fill="#b5bec3" d="M200 0h100v100H200z"/><path fill="#bbccd1" d="M300 0h100v100H300z"/><path fill="#beced2" d="M400 0h100v100H400z"/><path fill="#c8dce4" d="M500 0h100v100H500z"/><path fill="#bfced4" d="M600 0h100v100H600z"/><path fill="#c1cfd2" d="M700 0h100v100H700z"/><path fill="#dcbba9" d="M0 100h100v100H0z"/><path fill="#c6a9b0" d="M100 100h100v100H100z"/><path fill="#bdc7b3" d="M200 100h100v100H200z"/><path fill="#c2ccb8" d="M300 100h100v100H300z"/><path fill="#cbd0d0" d="M400 100h100v100H400z"/><path fill="#c3cac9" d="M500 100h100v100H500z"/><path fill="#bdc6c9" d="M600 100h100v100H600z"/><path fill="#c7d6db" d="M700 100h100v100H700z"/><path fill="#d9b3a6" d="M0 200h100v100H0z"/><path fill="#c3a9a8" d="M100 200h100v100H100z"/><path fill="#ced7b8" d="M200 200h100v100H200z"/><path fill="#d5c7b8" d="M300 200h100v100H300z"/><path fill="#cebeb0" d="M400 200h100v100H400z"/><path fill="#d1c8bf" d="M500 200h100v100H500z"/><path fill="#c2bfb7" d="M600 200h100v100H600z"/><path fill="#cdc8ca" d="M700 200h100v100H700z"/><path fill="#d3aaa2" d="M0 300h100v100H0z"/><path fill="#c5acaa" d="M100 300h100v100H100z"/><path fill="#d2d0c7" d="M200 300h100v100H200z"/><path fill="#dbd3d4" d="M300 300h100v100H300z"/><path fill="#cab7ba" d="M400 300h100v100H400z"/><path fill="#cbbfc2" d="M500 300h100v100H500z"/><path fill="#b8bfa9" d="M600 300h100v100H600z"/><path fill="#d1d3cd" d="M700 300h100v100H700z"/><path fill="#d2a6a2" d="M0 400h100v100H0z"/><path fill="#baabab" d="M100 400h100v100H100z"/><path fill="#b0baad" d="M200 400h100v100H200z"/><path fill="#d6d0cc" d="M300 400h100v100H300z"/><path fill="#c9c2c0" d="M400 400h100v100H400z"/><path fill="#e1dcdd" d="M500 400h100v100H500z"/><path fill="#afbdaf" d="M600 400h100v100H600z"/><path fill="#c2cabe" d="M700 400h100v100H700z"/><path fill="#d4aeae" d="M0 500h100v100H0z"/><path fill="#c5bcbd" d="M100 500h100v100H100z"/><path fill="#d7d9de" d="M200 500h100v100H200z"/><path fill="#e1d7d6" d="M300 500h100v100H300z"/><path fill="#dcd9d6" d="M400 500h100v100H400z"/><path fill="#e5e1e2" d="M500 500h100v100H500z"/><path fill="#d9d1dd" d="M600 500h100v100H600z"/><path fill="#dcd7db" d="M700 500h100v100H700z"/></svg>