<svg xmlns="http://www.w3.org/2000/svg" viewBox="0 0 800 600"><defs/><path fill="#e1e1df" d="M0 0h100v100H0z"/><path fill="#dbdbd8" d="M100 0h100v100H100z"/><path fill="#d3dbe3" d="M200 0h100v100H200z"/><path fill="#d4dde5" d="M300 0h100v100H300z"/><path fill="#e0e1df" d="M400 0h100v100H400z"/><path fill="#e5e4e0" d="M500 0h100v100H500z"/><path fill="#e1dfda" d="M600 0h100v100H600z"/><path fill="#dbe3dc" d="M700 0h100v100H700z"/><path fill="#b6b4a6" d="M0 100h100v100H0z"/><path fill="#acaa97" d="M100 100h100v100H100z"/><path fill="#436aa0" d="M200 100h100v100H200z"/><path fill="#4671a7" d="M300 100h100v100H300z"/><path fill="#958e81" d="M400 100h100v100H400z"/><path fill="#8a8e8b" d="M500 100h100v100H500z"/><path fill="#706e67" d="M600 100h100v100H600z"/><path fill="#6d8e73" d="M700 100h100v100H700z"/><path fill="#bfbcad" d="M0 200h100v100H0z"/><path fill="#aaa896" d="M100 200h100v100H100z"/><path fill="#6f7473" d="M200 200h100v100H200z"/><path fill="#767673" d="M300 200h100v100H300z"/><path fill="#453e41" d="M400 200h100v100H400z"/><path fill="#674d58" d="M500 200h100v100H500z"/><path fill="#716370" d="M600 200h100v100H600z"/><path fill="#54695c" d="M700 200h100v100H700z"/><path fill="#a9a9a0" d="M0 300h100v100H0z"/><path fill="#8d8c85" d="M100 300h100v100H100z"/><path fill="#818a68" d="M200 300h100v100H200z"/><path fill="#888f75" d="M300 300h100v100H300z"/><path fill="#40537c" d="M400 300h100v100H400z"/><path fill="#636896" d="M500 300h100v100H500z"/><path fill="#616d94" d="M600 300h100v100H600z"/><path fill="#736560" d="M700 300h100v100H700z"/><path fill="#544e49" d="M0 400h100v100H0z"/><path fill="#94785e" d="M100 400h100v100H100z"/><path fill="#95897e" d="M200 400h100v100H200z"/><path fill="#6d616b" d="M300 400h100v100H300z"/><path fill="#a67f66" d="M400 400h100v100H400z"/><path fill="#71736f" d="M500 400h100v100H500z"/><path fill="#2c313d" d="M600 400h100v100H600z"/><path fill="#8c6d57" d="M700 400h100v100H700z"/><path fill="#c4bcb3" d="M0 500h100v100H0z"/><path fill="#c9bbac" d="M100 500h100v100H100z"/><path fill="#cec6be" d="M200 500h100v100H200z"/><path fill="#c9bbb7" d="M300 500h100v100H300z"/><path fill="#dac3b9" d="M400 500h100v100H400z"/><path fill="#d5c7b4" d="M500 500h100v100H500z"/><path fill="#c1b6ab" d="M600 500h100v100H600z"/><path fill="#d4cbbf" d="M700 500h100v100H700z"/></svg>