<svg xmlns="http://www.w3.org/2000/svg" viewBox="0 0 800 600"><defs/><path fill="#e5f3ff" d="M0 0h100v100H0z"/><path fill="#edf1ef" d="M100 0h100v100H100z"/><path fill="#c5c7b6" d="M200 0h100v100H200z"/><path fill="#f4f4f3" d="M300 0h100v100H300z"/><path fill="#fffdfc" d="M400 0h100v100H400z"/><path fill="#fefbf9" d="M500 0h100v100H500z"/><path fill="#e8e7e8" d="M600 0h100v100H600z"/><path fill="#dadcdd" d="M700 0h100v100H700z"/><path fill="#cad5db" d="M0 100h100v100H0z"/><path fill="#cdcdcb" d="M100 100h100v100H100z"/><path fill="#8b624f" d="M200 100h100v100H200z"/><path fill="#858683" d="M300 100h100v100H300z"/><path fill="#728285" d="M400 100h100v100H400z"/><path fill="#a4a9a4" d="M500 100h100v100H500z"/><path fill="#b1b1af" d="M600 100h100v100H600z"/><path fill="#a6a7ab" d="M700 100h100v100H700z"/><path fill="#5d6755" d="M0 200h100v100H0z"/><path fill="#655e4f" d="M100 200h100v100H100z"/><path fill="#786c6e" d="M200 200h100v100H200z"/><path fill="#5a5b55" d="M300 200h100v100H300z"/><path fill="#40463f" d="M400 200h100v100H400z"/><path fill="#41514e" d="M500 200h100v100H500z"/><path fill="#495550" d="M600 200h100v100H600z"/><path fill="#404c40" d="M700 200h100v100H700z"/><path fill="#4e5c37" d="M0 300h100v100H0z"/><path fill="#6c6546" d="M100 300h100v100H100z"/><path fill="#68b2b8" d="M200 300h100v100H200z"/><path fill="#7c8466" d="M300 300h100v100H300z"/><path fill="#885839" d="M400 300h100v100H400z"/><path fill="#776f52" d="M500 300h100v100H500z"/><path fill="#82704c" d="M600 300h100v100H600z"/><path fill="#8f7954" d="M700 300h100v100H700z"/><path fill="#59712c" d="M0 400h100v100H0z"/><path fill="#6e693f" d="M100 400h100v100H100z"/><path fill="#74906f" d="M200 400h100v100H200z"/><path fill="#768644" d="M300 400h100v100H300z"/><path fill="#807737" d="M400 400h100v100H400z"/><path fill="#6d7d31" d="M500 400h100v100H500z"/><path fill="#7d7d41" d="M600 400h100v100H600z"/><path fill="#b1734e" d="M700 400h100v100H700z"/><path fill="#dcded6" d="M0 500h100v100H0z"/><path fill="#dcddd5" d="M100 500h100v100H100z"/><path fill="#d0cec3" d="M200 500h100v100H200z"/><path fill="#cbcfc3" d="M300 500h100v100H300z"/><path fill="#d3dace" d="M400 500h100v100H400z"/><path fill="#dce1d5" d="M500 500h100v100H500z"/><path fill="#e5ebe1" d="M600 500h100v100H600z"/><path fill="#efe4df" d="M700 500h100v100H700z"/></svg>