<svg xmlns="http://www.w3.org/2000/svg" viewBox="0 0 800 400"><defs/><path fill="#d4d4d1" d="M0 0h100v100H0z"/><path fill="#bebfbb" d="M100 0h100v100H100z"/><path fill="#d9dad7" d="M200 0h100v100H200z"/><path fill="#e4e5e3" d="M300 0h100v100H300z"/><path fill="#cbccc9" d="M400 0h100v100H400z"/><path fill="#c9c9c5" d="M500 0h100v100H500z"/><path fill="#c4c5c0" d="M600 0h100v100H600z"/><path fill="#c7c7c2" d="M700 0h100v100H700z"/><path fill="#bcbcb8" d="M0 100h100v100H0z"/><path fill="#c8c9c6" d="M100 100h100v100H100z"/><path fill="#c7c8c5" d="M200 100h100v100H200z"/><path fill="#cacac8" d="M300 100h100v100H300z"/><path fill="#cccdca" d="M400 100h100v100H400z"/><path fill="#c7c8c4" d="M500 100h100v100H500z"/><path fill="#c2c3be" d="M600 100h100v100H600z"/><path fill="#c0c0bb" d="M700 100h100v100H700z"/><path fill="#d6d6d4" d="M0 200h100v100H0z"/><path fill="#c3c4c0" d="M100 200h100v100H100z"/><path fill="#d4d4d2" d="M200 200h100v100H200z"/><path fill="#bcbdb8" d="M300 200h100v100H300z"/><path fill="#cecfca" d="M400 200h100v100H400z"/><path fill="#c2c2bf" d="M500 200h100v100H500z"/><path fill="#c8c8c3" d="M600 200h100v100H600z"/><path fill="#b5b5af" d="M700 200h100v100H700z"/><path fill="#cdcecb" d="M0 300h100v100H0z"/><path fill="#d1d2ce" d="M100 300h100v100H100z"/><path fill="#d3d3d0" d="M200 300h100v100H200z"/><path fill="#cfcfcc" d="M300 300h100v100H300z"/><path fill="#cbccc8" d="M400 300h100v100H400z"/><path fill="#bebeba" d="M500 300h100v100H500z"/><path fill="#d9dad7" d="M600 300h100v100H600z"/><path fill="#c3c4c0" d="M700 300h100v100H700z"/></svg>