<svg xmlns="http://www.w3.org/2000/svg" viewBox="0 0 800 600"><defs/><path fill="#e9e9e8" d="M0 0h100v100H0z"/><path fill="#f0f0ef" d="M100 0h100v100H100z"/><path fill="#f4f5f4" d="M200 0h100v100H200z"/><path fill="#fcfcfb" d="M300 0h100v100H300z"/><path fill="#fdfdfc" d="M400 0h100v100H400z"/><path fill="#faf9f8" d="M500 0h100v100H500z"/><path fill="#faf8f8" d="M600 0h100v100H600z"/><path fill="#f4f4f3" d="M700 0h100v100H700z"/><path fill="#eee" d="M0 100h100v100H0z"/><path fill="#d9d7d4" d="M100 100h100v100H100z"/><path fill="#c7c6c5" d="M200 100h100v100H200z"/><path fill="#bcbcbc" d="M300 100h100v100H300z"/><path fill="#bcbbbc" d="M400 100h100v100H400z"/><path fill="#dbdfda" d="M500 100h100v100H500z"/><path fill="#d7e1d9" d="M600 100h100v100H600z"/><path fill="#dbdeda" d="M700 100h100v100H700z"/><path fill="#eee" d="M0 200h100v100H0z"/><path fill="#aca8aa" d="M100 200h100v100H100z"/><path fill="#c3c2c2" d="M200 200h100v100H200z"/><path fill="#d3d3d3" d="M300 200h100v100H300z"/><path fill="#cbcacb" d="M400 200h100v100H400z"/><path fill="#adb5ae" d="M500 200h100v100H500z"/><path fill="#b6ccbd" d="M600 200h100v100H600z"/><path fill="#d3d8d0" d="M700 200h100v100H700z"/><path fill="#e0e0df" d="M0 300h100v100H0z"/><path fill="#9e9b9d" d="M100 300h100v100H100z"/><path fill="#d2d1d2" d="M200 300h100v100H200z"/><path fill="#e9eae9" d="M300 300h100v100H300z"/><path fill="#e2e2e2" d="M400 300h100v100H400z"/><path fill="#dfdfe0" d="M500 300h100v100H500z"/><path fill="#e3e4e3" d="M600 300h100v100H600z"/><path fill="#d9dad8" d="M700 300h100v100H700z"/><path fill="#d7d7d7" d="M0 400h100v100H0z"/><path fill="#b8b8b8" d="M100 400h100v100H100z"/><path fill="#fafbfa" d="M200 400h100v100H200z"/><path fill="#fff" d="M300 400h100v100H300zm100 0h100v100H400z"/><path fill="#f6f6f6" d="M500 400h100v100H500z"/><path fill="#ececed" d="M600 400h100v100H600z"/><path fill="#e7e6e6" d="M700 400h100v100H700z"/><path fill="#ecebe9" d="M0 500h100v100H0z"/><path fill="#f6f5f3" d="M100 500h100v100H100z"/><path fill="#f0f0ee" d="M200 500h100v100H200z"/><path fill="#efefed" d="M300 500h100v100H300zm100 0h100v100H400z"/><path fill="#eeeeec" d="M500 500h100v100H500z"/><path fill="#ececea" d="M600 500h100v100H600z"/><path fill="#eaeae8" d="M700 500h100v100H700z"/></svg>