<svg xmlns="http://www.w3.org/2000/svg" viewBox="0 0 800 400"><defs/><path fill="#fff" d="M0 0h100v100H0zm100 0h100v100H100z"/><path fill="#f8f6f6" d="M200 0h100v100H200z"/><path fill="#e1d2ca" d="M300 0h100v100H300z"/><path fill="#e8d6c4" d="M400 0h100v100H400z"/><path fill="#f8f4ee" d="M500 0h100v100H500z"/><path fill="#fff" d="M600 0h100v100H600z"/><path fill="#fffefe" d="M700 0h100v100H700zM0 100h100v100H0z"/><path fill="#fff" d="M100 100h100v100H100z"/><path fill="#f6f3f1" d="M200 100h100v100H200z"/><path fill="#d3bcad" d="M300 100h100v100H300z"/><path fill="#cdb39e" d="M400 100h100v100H400z"/><path fill="#ede8e2" d="M500 100h100v100H500z"/><path fill="#fff" d="M600 100h100v100H600z"/><path fill="#fefefe" d="M700 100h100v100H700zM0 200h100v100H0z"/><path fill="#fff" d="M100 200h100v100H100z"/><path fill="#f5efea" d="M200 200h100v100H200z"/><path fill="#ad9787" d="M300 200h100v100H300z"/><path fill="#98867d" d="M400 200h100v100H400z"/><path fill="#e2dede" d="M500 200h100v100H500z"/><path fill="#fff" d="M600 200h100v100H600z"/><path fill="#fefdfd" d="M700 200h100v100H700z"/><path fill="#fefefe" d="M0 300h100v100H0z"/><path fill="#fff" d="M100 300h100v100H100z"/><path fill="#eee7e3" d="M200 300h100v100H200z"/><path fill="#866957" d="M300 300h100v100H300z"/><path fill="#6a594e" d="M400 300h100v100H400z"/><path fill="#d1ccc9" d="M500 300h100v100H500z"/><path fill="#fff" d="M600 300h100v100H600z"/><path fill="#fdfdfc" d="M700 300h100v100H700z"/></svg>