<svg xmlns="http://www.w3.org/2000/svg" viewBox="0 0 800 600"><defs/><path fill="#f4f3f3" d="M0 0h100v100H0z"/><path fill="#f0ede7" d="M100 0h100v100H100z"/><path fill="#f6f6f5" d="M200 0h100v100H200z"/><path fill="#f4f6f8" d="M300 0h100v100H300z"/><path fill="#f2f3f5" d="M400 0h100v100H400z"/><path fill="#f3f4f5" d="M500 0h100v100H500z"/><path fill="#f2f4f5" d="M600 0h100v100H600z"/><path fill="#f3f4f4" d="M700 0h100v100H700z"/><path fill="#d4d3d0" d="M0 100h100v100H0z"/><path fill="#a7a7a3" d="M100 100h100v100H100z"/><path fill="#d6d6ce" d="M200 100h100v100H200z"/><path fill="#c6c8d0" d="M300 100h100v100H300z"/><path fill="#dcddde" d="M400 100h100v100H400z"/><path fill="#c1c1bd" d="M500 100h100v100H500z"/><path fill="#989b9c" d="M600 100h100v100H600z"/><path fill="#cdd1ce" d="M700 100h100v100H700z"/><path fill="#cacdca" d="M0 200h100v100H0z"/><path fill="#aebab9" d="M100 200h100v100H100z"/><path fill="#dadcdd" d="M200 200h100v100H200z"/><path fill="#94a1af" d="M300 200h100v100H300z"/><path fill="#97a9bf" d="M400 200h100v100H400z"/><path fill="#b6bdc1" d="M500 200h100v100H500z"/><path fill="#97a1a3" d="M600 200h100v100H600z"/><path fill="#c7cbcc" d="M700 200h100v100H700z"/><path fill="#c2c4c4" d="M0 300h100v100H0z"/><path fill="#b2b2ab" d="M100 300h100v100H100z"/><path fill="#bababa" d="M200 300h100v100H200z"/><path fill="#7b9db6" d="M300 300h100v100H300z"/><path fill="#6c98af" d="M400 300h100v100H400z"/><path fill="#9da3b0" d="M500 300h100v100H500z"/><path fill="#b3b9c0" d="M600 300h100v100H600z"/><path fill="#bcc0c2" d="M700 300h100v100H700z"/><path fill="#b7bbb3" d="M0 400h100v100H0z"/><path fill="#b1a375" d="M100 400h100v100H100z"/><path fill="#caad68" d="M200 400h100v100H200z"/><path fill="#aa9b79" d="M300 400h100v100H300z"/><path fill="#b4a172" d="M400 400h100v100H400z"/><path fill="#b7a370" d="M500 400h100v100H500z"/><path fill="#9b8f6e" d="M600 400h100v100H600z"/><path fill="#aea484" d="M700 400h100v100H700z"/><path fill="#d8d3c1" d="M0 500h100v100H0z"/><path fill="#ded1af" d="M100 500h100v100H100z"/><path fill="#e3d3ac" d="M200 500h100v100H200z"/><path fill="#e5d5ad" d="M300 500h100v100H300z"/><path fill="#e4d3aa" d="M400 500h100v100H400z"/><path fill="#e3d4b0" d="M500 500h100v100H500z"/><path fill="#ddcea8" d="M600 500h100v100H600z"/><path fill="#cdc5b1" d="M700 500h100v100H700z"/></svg>