<svg xmlns="http://www.w3.org/2000/svg" viewBox="0 0 800 400"><defs/><path fill="#c0a893" d="M0 0h100v100H0z"/><path fill="#bb8255" d="M100 0h100v100H100z"/><path fill="#c3b6b1" d="M200 0h100v100H200z"/><path fill="#d0ad7b" d="M300 0h100v100H300z"/><path fill="#cec4b9" d="M400 0h100v100H400z"/><path fill="#b7b3b4" d="M500 0h100v100H500z"/><path fill="#a8a09d" d="M600 0h100v100H600z"/><path fill="#c1c0bf" d="M700 0h100v100H700z"/><path fill="#ba875f" d="M0 100h100v100H0z"/><path fill="#9a8276" d="M100 100h100v100H100z"/><path fill="#cfcfc9" d="M200 100h100v100H200z"/><path fill="#ccbda0" d="M300 100h100v100H300z"/><path fill="#c1ad92" d="M400 100h100v100H400z"/><path fill="#9f9c9d" d="M500 100h100v100H500z"/><path fill="#858086" d="M600 100h100v100H600z"/><path fill="#a19ea0" d="M700 100h100v100H700z"/><path fill="#bcab84" d="M0 200h100v100H0z"/><path fill="#ac734c" d="M100 200h100v100H100z"/><path fill="#84735f" d="M200 200h100v100H200z"/><path fill="#b1927c" d="M300 200h100v100H300z"/><path fill="#c4916e" d="M400 200h100v100H400z"/><path fill="#a18e83" d="M500 200h100v100H500z"/><path fill="#8c7971" d="M600 200h100v100H600z"/><path fill="#b2a29c" d="M700 200h100v100H700z"/><path fill="#8f7a80" d="M0 300h100v100H0z"/><path fill="#8a5731" d="M100 300h100v100H100z"/><path fill="#a25b46" d="M200 300h100v100H200z"/><path fill="#af5e30" d="M300 300h100v100H300z"/><path fill="#b1705b" d="M400 300h100v100H400z"/><path fill="#a5898a" d="M500 300h100v100H500z"/><path fill="#a26950" d="M600 300h100v100H600z"/><path fill="#ad7858" d="M700 300h100v100H700z"/></svg>