<svg xmlns="http://www.w3.org/2000/svg" viewBox="0 0 800 600"><defs/><path fill="#d8d7d8" d="M0 0h100v100H0z"/><path fill="#cfd1d2" d="M100 0h100v100H100z"/><path fill="#dce8e7" d="M200 0h100v100H200z"/><path fill="#dbe3e3" d="M300 0h100v100H300z"/><path fill="#d5d2d2" d="M400 0h100v100H400z"/><path fill="#d4d0ce" d="M500 0h100v100H500z"/><path fill="#e0ddd2" d="M600 0h100v100H600z"/><path fill="#dce1d9" d="M700 0h100v100H700z"/><path fill="#646b67" d="M0 100h100v100H0z"/><path fill="#3f4943" d="M100 100h100v100H100z"/><path fill="#848f7e" d="M200 100h100v100H200z"/><path fill="#646159" d="M300 100h100v100H300z"/><path fill="#413633" d="M400 100h100v100H400z"/><path fill="#35302c" d="M500 100h100v100H500z"/><path fill="#72694a" d="M600 100h100v100H600z"/><path fill="#9a9b72" d="M700 100h100v100H700z"/><path fill="#7c827d" d="M0 200h100v100H0z"/><path fill="#333431" d="M100 200h100v100H100z"/><path fill="#4c493d" d="M200 200h100v100H200z"/><path fill="#3a3935" d="M300 200h100v100H300z"/><path fill="#272d2b" d="M400 200h100v100H400z"/><path fill="#272322" d="M500 200h100v100H500z"/><path fill="#574e3b" d="M600 200h100v100H600z"/><path fill="#a1936a" d="M700 200h100v100H700z"/><path fill="#747777" d="M0 300h100v100H0z"/><path fill="#383738" d="M100 300h100v100H100z"/><path fill="#43403b" d="M200 300h100v100H200z"/><path fill="#4a4946" d="M300 300h100v100H300z"/><path fill="#74584a" d="M400 300h100v100H400z"/><path fill="#795747" d="M500 300h100v100H500z"/><path fill="#6a5145" d="M600 300h100v100H600z"/><path fill="#665745" d="M700 300h100v100H700z"/><path fill="#60645f" d="M0 400h100v100H0z"/><path fill="#2d2b24" d="M100 400h100v100H100z"/><path fill="#47453b" d="M200 400h100v100H200z"/><path fill="#6b5d50" d="M300 400h100v100H300z"/><path fill="#886959" d="M400 400h100v100H400z"/><path fill="#715548" d="M500 400h100v100H500z"/><path fill="#805144" d="M600 400h100v100H600z"/><path fill="#594946" d="M700 400h100v100H700z"/><path fill="#c0bfb4" d="M0 500h100v100H0z"/><path fill="#b2af9f" d="M100 500h100v100H100z"/><path fill="#b6b1a8" d="M200 500h100v100H200z"/><path fill="#bdb7a5" d="M300 500h100v100H300z"/><path fill="#ada7a2" d="M400 500h100v100H400z"/><path fill="#9f9b9a" d="M500 500h100v100H500z"/><path fill="#a1a1a3" d="M600 500h100v100H600z"/><path fill="#c2c0bf" d="M700 500h100v100H700z"/></svg>