<svg xmlns="http://www.w3.org/2000/svg" viewBox="0 0 800 400"><defs/><path fill="#aaad9d" d="M0 0h100v100H0z"/><path fill="#a1a397" d="M100 0h100v100H100z"/><path fill="#c2c5be" d="M200 0h100v100H200z"/><path fill="#c8cbc8" d="M300 0h100v100H300z"/><path fill="#c5c7c8" d="M400 0h100v100H400z"/><path fill="#c4c6c4" d="M500 0h100v100H500z"/><path fill="#b8bfb8" d="M600 0h100v100H600z"/><path fill="#a0a9a0" d="M700 0h100v100H700z"/><path fill="#b3b1a9" d="M0 100h100v100H0z"/><path fill="#b5aeac" d="M100 100h100v100H100z"/><path fill="#cccec9" d="M200 100h100v100H200z"/><path fill="#cfcfd0" d="M300 100h100v100H300z"/><path fill="#cfd1d5" d="M400 100h100v100H400z"/><path fill="#cdcdd0" d="M500 100h100v100H500z"/><path fill="#c0c1be" d="M600 100h100v100H600z"/><path fill="#acb2aa" d="M700 100h100v100H700z"/><path fill="#b1baaa" d="M0 200h100v100H0z"/><path fill="#b7c0b8" d="M100 200h100v100H100z"/><path fill="#d5d8d8" d="M200 200h100v100H200z"/><path fill="#d1d0cf" d="M300 200h100v100H300z"/><path fill="#d1d2d4" d="M400 200h100v100H400z"/><path fill="#d3dae0" d="M500 200h100v100H500z"/><path fill="#c4c8c9" d="M600 200h100v100H600z"/><path fill="#acb1ac" d="M700 200h100v100H700z"/><path fill="#b2aa91" d="M0 300h100v100H0z"/><path fill="#d3cebc" d="M100 300h100v100H100z"/><path fill="#e7ece7" d="M200 300h100v100H200z"/><path fill="#e0e4e3" d="M300 300h100v100H300z"/><path fill="#dbdede" d="M400 300h100v100H400z"/><path fill="#d7dedd" d="M500 300h100v100H500z"/><path fill="#c9d1cd" d="M600 300h100v100H600z"/><path fill="#b2bdb3" d="M700 300h100v100H700z"/></svg>