<svg xmlns="http://www.w3.org/2000/svg" viewBox="0 0 800 400"><defs/><path fill="#cec7c3" d="M0 0h100v100H0z"/><path fill="#654534" d="M100 0h100v100H100z"/><path fill="#c0bab6" d="M200 0h100v100H200z"/><path fill="#a7a5a4" d="M300 0h100v100H300z"/><path fill="#bdb3ad" d="M400 0h100v100H400z"/><path fill="#b78d84" d="M500 0h100v100H500z"/><path fill="#d0c8c5" d="M600 0h100v100H600z"/><path fill="#bfbcb9" d="M700 0h100v100H700z"/><path fill="#bcb0aa" d="M0 100h100v100H0z"/><path fill="#614838" d="M100 100h100v100H100z"/><path fill="#929085" d="M200 100h100v100H200z"/><path fill="#829e92" d="M300 100h100v100H300z"/><path fill="#9fb3aa" d="M400 100h100v100H400z"/><path fill="#ab685a" d="M500 100h100v100H500z"/><path fill="#ac9188" d="M600 100h100v100H600z"/><path fill="#a2a29d" d="M700 100h100v100H700z"/><path fill="#a6958a" d="M0 200h100v100H0z"/><path fill="#664a3c" d="M100 200h100v100H100z"/><path fill="#aaabaa" d="M200 200h100v100H200z"/><path fill="#b79f98" d="M300 200h100v100H300z"/><path fill="#ae8b83" d="M400 200h100v100H400z"/><path fill="#896860" d="M500 200h100v100H500z"/><path fill="#70635e" d="M600 200h100v100H600z"/><path fill="#b3b1ae" d="M700 200h100v100H700z"/><path fill="#8c796f" d="M0 300h100v100H0z"/><path fill="#413027" d="M100 300h100v100H100z"/><path fill="#767d7d" d="M200 300h100v100H200z"/><path fill="#8e5b51" d="M300 300h100v100H300z"/><path fill="#9f4938" d="M400 300h100v100H400z"/><path fill="#636869" d="M500 300h100v100H500z"/><path fill="#484948" d="M600 300h100v100H600z"/><path fill="#666461" d="M700 300h100v100H700z"/></svg>