<svg xmlns="http://www.w3.org/2000/svg" viewBox="0 0 800 600"><defs/><path fill="#959e75" d="M0 0h100v100H0z"/><path fill="#a29e84" d="M100 0h100v100H100z"/><path fill="#877a73" d="M200 0h100v100H200z"/><path fill="#546951" d="M300 0h100v100H300z"/><path fill="#586b56" d="M400 0h100v100H400z"/><path fill="#616e4f" d="M500 0h100v100H500z"/><path fill="#566837" d="M600 0h100v100H600z"/><path fill="#5e6f3b" d="M700 0h100v100H700z"/><path fill="#a0a77a" d="M0 100h100v100H0z"/><path fill="#917e69" d="M100 100h100v100H100z"/><path fill="#7d7074" d="M200 100h100v100H200z"/><path fill="#aaaeb0" d="M300 100h100v100H300z"/><path fill="#cac8ca" d="M400 100h100v100H400z"/><path fill="#949895" d="M500 100h100v100H500z"/><path fill="#606f4c" d="M600 100h100v100H600z"/><path fill="#455a39" d="M700 100h100v100H700z"/><path fill="#a5a87b" d="M0 200h100v100H0z"/><path fill="#8d7369" d="M100 200h100v100H100z"/><path fill="#838878" d="M200 200h100v100H200z"/><path fill="#b1b3ab" d="M300 200h100v100H300z"/><path fill="#abaca1" d="M400 200h100v100H400z"/><path fill="#939581" d="M500 200h100v100H500z"/><path fill="#70874f" d="M600 200h100v100H600z"/><path fill="#4b5d3e" d="M700 200h100v100H700z"/><path fill="#9e976a" d="M0 300h100v100H0z"/><path fill="#907679" d="M100 300h100v100H100z"/><path fill="#8e956f" d="M200 300h100v100H200z"/><path fill="#9a9d5f" d="M300 300h100v100H300z"/><path fill="#89957f" d="M400 300h100v100H400z"/><path fill="#979c75" d="M500 300h100v100H500z"/><path fill="#9f9c69" d="M600 300h100v100H600z"/><path fill="#7d834c" d="M700 300h100v100H700z"/><path fill="#a08d76" d="M0 400h100v100H0z"/><path fill="#8f7772" d="M100 400h100v100H100z"/><path fill="#968967" d="M200 400h100v100H200z"/><path fill="#9da174" d="M300 400h100v100H300z"/><path fill="#a4aeb0" d="M400 400h100v100H400z"/><path fill="#ad9d90" d="M500 400h100v100H500z"/><path fill="#ac886e" d="M600 400h100v100H600z"/><path fill="#878a44" d="M700 400h100v100H700z"/><path fill="#8f7a73" d="M0 500h100v100H0z"/><path fill="#818267" d="M100 500h100v100H100z"/><path fill="#948568" d="M200 500h100v100H200z"/><path fill="#939b6d" d="M300 500h100v100H300z"/><path fill="#9eaa8e" d="M400 500h100v100H400z"/><path fill="#9f9774" d="M500 500h100v100H500z"/><path fill="#928055" d="M600 500h100v100H600z"/><path fill="#705f37" d="M700 500h100v100H700z"/></svg>