<svg xmlns="http://www.w3.org/2000/svg" viewBox="0 0 800 400"><defs/><path fill="#cbd0d3" d="M0 0h100v100H0z"/><path fill="#939da4" d="M100 0h100v100H100z"/><path fill="#566672" d="M200 0h100v100H200z"/><path fill="#a6afb5" d="M300 0h100v100H300z"/><path fill="#fff" d="M400 0h100v100H400z"/><path fill="#e9ebeb" d="M500 0h100v100H500z"/><path fill="#d7dadc" d="M600 0h100v100H600z"/><path fill="#e1e3e5" d="M700 0h100v100H700z"/><path fill="#d4d7da" d="M0 100h100v100H0z"/><path fill="#9099a1" d="M100 100h100v100H100z"/><path fill="#717e88" d="M200 100h100v100H200z"/><path fill="#7b8891" d="M300 100h100v100H300z"/><path fill="#b3bbc0" d="M400 100h100v100H400z"/><path fill="#b4bbc0" d="M500 100h100v100H500z"/><path fill="#c9cdd1" d="M600 100h100v100H600z"/><path fill="#d7dbdd" d="M700 100h100v100H700z"/><path fill="#e7e9eb" d="M0 200h100v100H0z"/><path fill="#bac0c4" d="M100 200h100v100H100z"/><path fill="#bcc3c6" d="M200 200h100v100H200z"/><path fill="#929ca3" d="M300 200h100v100H300z"/><path fill="#adb4ba" d="M400 200h100v100H400z"/><path fill="#e4e6e8" d="M500 200h100v100H500z"/><path fill="#a4adb3" d="M600 200h100v100H600z"/><path fill="#95a0a7" d="M700 200h100v100H700z"/><path fill="#cacfd2" d="M0 300h100v100H0z"/><path fill="#d2d6d9" d="M100 300h100v100H100z"/><path fill="#f5f6f6" d="M200 300h100v100H200z"/><path fill="#c5c9cd" d="M300 300h100v100H300z"/><path fill="#e2e4e5" d="M400 300h100v100H400z"/><path fill="#e4e6e7" d="M500 300h100v100H500z"/><path fill="#ebedee" d="M600 300h100v100H600z"/><path fill="#ced2d5" d="M700 300h100v100H700z"/></svg>