<svg xmlns="http://www.w3.org/2000/svg" viewBox="0 0 800 500"><defs/><path fill="#acaaa9" d="M0 0h100v100H0z"/><path fill="#938c85" d="M100 0h100v100H100z"/><path fill="#a7a5a1" d="M200 0h100v100H200z"/><path fill="#99a3ad" d="M300 0h100v100H300z"/><path fill="#adb3b8" d="M400 0h100v100H400z"/><path fill="#c2beba" d="M500 0h100v100H500z"/><path fill="#b8bebe" d="M600 0h100v100H600z"/><path fill="#bbc5bd" d="M700 0h100v100H700z"/><path fill="#98948f" d="M0 100h100v100H0z"/><path fill="#867d6c" d="M100 100h100v100H100z"/><path fill="#a7a7a0" d="M200 100h100v100H200z"/><path fill="#7a7977" d="M300 100h100v100H300z"/><path fill="#88847c" d="M400 100h100v100H400z"/><path fill="#b2a590" d="M500 100h100v100H500z"/><path fill="#8e8985" d="M600 100h100v100H600z"/><path fill="#a1a8ac" d="M700 100h100v100H700z"/><path fill="#a39c95" d="M0 200h100v100H0z"/><path fill="#85887e" d="M100 200h100v100H100z"/><path fill="#a8a88f" d="M200 200h100v100H200z"/><path fill="#c2bcab" d="M300 200h100v100H300z"/><path fill="#b1aa92" d="M400 200h100v100H400z"/><path fill="#b59969" d="M500 200h100v100H500z"/><path fill="#a09896" d="M600 200h100v100H600z"/><path fill="#a6a7ab" d="M700 200h100v100H700z"/><path fill="#949288" d="M0 300h100v100H0z"/><path fill="#8a8785" d="M100 300h100v100H100z"/><path fill="#c6a274" d="M200 300h100v100H200z"/><path fill="#c5a17a" d="M300 300h100v100H300z"/><path fill="#ba937e" d="M400 300h100v100H400z"/><path fill="#bca284" d="M500 300h100v100H500z"/><path fill="#b1a9a8" d="M600 300h100v100H600z"/><path fill="#a3a6ad" d="M700 300h100v100H700z"/><path fill="#a6a59a" d="M0 400h100v100H0z"/><path fill="#aba493" d="M100 400h100v100H100z"/><path fill="#e6c09f" d="M200 400h100v100H200z"/><path fill="#d8ab86" d="M300 400h100v100H300z"/><path fill="#d2b2a5" d="M400 400h100v100H400z"/><path fill="#ccbfb5" d="M500 400h100v100H500z"/><path fill="#beb4b0" d="M600 400h100v100H600z"/><path fill="#b5babf" d="M700 400h100v100H700z"/></svg>