<svg xmlns="http://www.w3.org/2000/svg" viewBox="0 0 800 500"><defs/><path fill="#d9dede" d="M0 0h100v100H0z"/><path fill="#b29b90" d="M100 0h100v100H100z"/><path fill="#aca29d" d="M200 0h100v100H200z"/><path fill="#907b6c" d="M300 0h100v100H300z"/><path fill="#a18274" d="M400 0h100v100H400z"/><path fill="#9c7d72" d="M500 0h100v100H500z"/><path fill="#95837b" d="M600 0h100v100H600z"/><path fill="#d5aeb1" d="M700 0h100v100H700z"/><path fill="#c9d2d3" d="M0 100h100v100H0z"/><path fill="#776748" d="M100 100h100v100H100z"/><path fill="#6f694b" d="M200 100h100v100H200z"/><path fill="#71493d" d="M300 100h100v100H300z"/><path fill="#734b42" d="M400 100h100v100H400z"/><path fill="#8d5c4f" d="M500 100h100v100H500z"/><path fill="#a67b62" d="M600 100h100v100H600z"/><path fill="#dac3bb" d="M700 100h100v100H700z"/><path fill="#d6c9c3" d="M0 200h100v100H0z"/><path fill="#655d3c" d="M100 200h100v100H100z"/><path fill="#8f8b78" d="M200 200h100v100H200z"/><path fill="#826a6b" d="M300 200h100v100H300z"/><path fill="#b24a5d" d="M400 200h100v100H400z"/><path fill="#d9807c" d="M500 200h100v100H500z"/><path fill="#e3e8cc" d="M600 200h100v100H600z"/><path fill="#a38f95" d="M700 200h100v100H700z"/><path fill="#b8a59b" d="M0 300h100v100H0z"/><path fill="#806139" d="M100 300h100v100H100z"/><path fill="#ad6b4c" d="M200 300h100v100H200z"/><path fill="#b43b23" d="M300 300h100v100H300z"/><path fill="#d5351f" d="M400 300h100v100H400z"/><path fill="#d74f2e" d="M500 300h100v100H500z"/><path fill="#a8885f" d="M600 300h100v100H600z"/><path fill="#7f544d" d="M700 300h100v100H700z"/><path fill="#b49683" d="M0 400h100v100H0z"/><path fill="#b07f54" d="M100 400h100v100H100z"/><path fill="#c07547" d="M200 400h100v100H200z"/><path fill="#d65227" d="M300 400h100v100H300z"/><path fill="#d0693f" d="M400 400h100v100H400z"/><path fill="#cc6944" d="M500 400h100v100H500z"/><path fill="#ae774f" d="M600 400h100v100H600z"/><path fill="#966145" d="M700 400h100v100H700z"/></svg>