<svg xmlns="http://www.w3.org/2000/svg" viewBox="0 0 800 500"><defs/><path fill="#f1f4f6" d="M0 0h100v100H0z"/><path fill="#e6ecf1" d="M100 0h100v100H100z"/><path fill="#e5ebf1" d="M200 0h100v100H200z"/><path fill="#e5e8ec" d="M300 0h100v100H300z"/><path fill="#dfe3e9" d="M400 0h100v100H400z"/><path fill="#e8eaed" d="M500 0h100v100H500z"/><path fill="#e3e5e8" d="M600 0h100v100H600z"/><path fill="#e5e7ec" d="M700 0h100v100H700z"/><path fill="#a3afbd" d="M0 100h100v100H0z"/><path fill="#627996" d="M100 100h100v100H100z"/><path fill="#708ead" d="M200 100h100v100H200z"/><path fill="#496281" d="M300 100h100v100H300z"/><path fill="#5a7996" d="M400 100h100v100H400z"/><path fill="#8096ac" d="M500 100h100v100H500z"/><path fill="#778fa4" d="M600 100h100v100H600z"/><path fill="#98a6b3" d="M700 100h100v100H700z"/><path fill="#abb7c5" d="M0 200h100v100H0z"/><path fill="#768ba1" d="M100 200h100v100H100z"/><path fill="#758596" d="M200 200h100v100H200z"/><path fill="#546477" d="M300 200h100v100H300z"/><path fill="#8096a2" d="M400 200h100v100H400z"/><path fill="#8c9ea8" d="M500 200h100v100H500z"/><path fill="#8ea3ad" d="M600 200h100v100H600z"/><path fill="#adbac2" d="M700 200h100v100H700z"/><path fill="#9ba8b7" d="M0 300h100v100H0z"/><path fill="#415a77" d="M100 300h100v100H100z"/><path fill="#7c8c9b" d="M200 300h100v100H200z"/><path fill="#7e8a97" d="M300 300h100v100H300z"/><path fill="#7d8a94" d="M400 300h100v100H400z"/><path fill="#8496a0" d="M500 300h100v100H500z"/><path fill="#94a4ab" d="M600 300h100v100H600z"/><path fill="#a4b4bf" d="M700 300h100v100H700z"/><path fill="#c6cad0" d="M0 400h100v100H0z"/><path fill="#9099a6" d="M100 400h100v100H100z"/><path fill="#b3c0cc" d="M200 400h100v100H200z"/><path fill="#b7c3cc" d="M300 400h100v100H300z"/><path fill="#b2bdc5" d="M400 400h100v100H400z"/><path fill="#c1c9d1" d="M500 400h100v100H500z"/><path fill="#bdc5cc" d="M600 400h100v100H600z"/><path fill="#b7c0c9" d="M700 400h100v100H700z"/></svg>