<svg xmlns="http://www.w3.org/2000/svg" viewBox="0 0 800 600"><defs/><path fill="#d1cec9" d="M0 0h100v100H0z"/><path fill="#cdc6c5" d="M100 0h100v100H100z"/><path fill="#d2d1d9" d="M200 0h100v100H200z"/><path fill="#d5d6df" d="M300 0h100v100H300z"/><path fill="#dbd9db" d="M400 0h100v100H400z"/><path fill="#e1e0e4" d="M500 0h100v100H500z"/><path fill="#e3e3e9" d="M600 0h100v100H600z"/><path fill="#e7e7e9" d="M700 0h100v100H700z"/><path fill="#c3bb98" d="M0 100h100v100H0z"/><path fill="#a17547" d="M100 100h100v100H100z"/><path fill="#c3b9ad" d="M200 100h100v100H200z"/><path fill="#ceceda" d="M300 100h100v100H300z"/><path fill="#c3b69e" d="M400 100h100v100H400z"/><path fill="#d8d2d1" d="M500 100h100v100H500z"/><path fill="#d3d0ce" d="M600 100h100v100H600z"/><path fill="#dcdbdc" d="M700 100h100v100H700z"/><path fill="#bca67c" d="M0 200h100v100H0z"/><path fill="#9f6e3d" d="M100 200h100v100H100z"/><path fill="#bdb6a8" d="M200 200h100v100H200z"/><path fill="#b3b19e" d="M300 200h100v100H300z"/><path fill="#baac95" d="M400 200h100v100H400z"/><path fill="#c1bcbc" d="M500 200h100v100H500z"/><path fill="#cac6ba" d="M600 200h100v100H600z"/><path fill="#d8d9de" d="M700 200h100v100H700z"/><path fill="#b18f5d" d="M0 300h100v100H0z"/><path fill="#9a6b2f" d="M100 300h100v100H100z"/><path fill="#ab935b" d="M200 300h100v100H200z"/><path fill="#9f904f" d="M300 300h100v100H300z"/><path fill="#b7a17b" d="M400 300h100v100H400z"/><path fill="#a8a18b" d="M500 300h100v100H500z"/><path fill="#afa18c" d="M600 300h100v100H600z"/><path fill="#d9d2d2" d="M700 300h100v100H700z"/><path fill="#ab9169" d="M0 400h100v100H0z"/><path fill="#a38235" d="M100 400h100v100H100z"/><path fill="#908144" d="M200 400h100v100H200z"/><path fill="#8f8563" d="M300 400h100v100H300z"/><path fill="#bca674" d="M400 400h100v100H400z"/><path fill="#c5b489" d="M500 400h100v100H500z"/><path fill="#b98d7a" d="M600 400h100v100H600z"/><path fill="#c4afab" d="M700 400h100v100H700z"/><path fill="#b8b3a3" d="M0 500h100v100H0z"/><path fill="#bdb5a1" d="M100 500h100v100H100z"/><path fill="#bbae9e" d="M200 500h100v100H200z"/><path fill="#bdb1ab" d="M300 500h100v100H300z"/><path fill="#c6c0c2" d="M400 500h100v100H400z"/><path fill="#d0cdd2" d="M500 500h100v100H500z"/><path fill="#d0cdd4" d="M600 500h100v100H600z"/><path fill="#d8d7d9" d="M700 500h100v100H700z"/></svg>