<svg xmlns="http://www.w3.org/2000/svg" viewBox="0 0 800 500"><defs/><path fill="#aeb599" d="M0 0h100v100H0z"/><path fill="#bdc2a9" d="M100 0h100v100H100z"/><path fill="#c8c0ac" d="M200 0h100v100H200z"/><path fill="#d8d1bd" d="M300 0h100v100H300z"/><path fill="#d8d7bf" d="M400 0h100v100H400z"/><path fill="#dbd8c1" d="M500 0h100v100H500z"/><path fill="#c5cbb1" d="M600 0h100v100H600z"/><path fill="#bec6a8" d="M700 0h100v100H700z"/><path fill="#b3b39b" d="M0 100h100v100H0z"/><path fill="#a9b69a" d="M100 100h100v100H100z"/><path fill="#a3b499" d="M200 100h100v100H200z"/><path fill="#a1aa93" d="M300 100h100v100H300z"/><path fill="#bcc1a7" d="M400 100h100v100H400z"/><path fill="#b3c1a5" d="M500 100h100v100H500z"/><path fill="#99b294" d="M600 100h100v100H600z"/><path fill="#9db190" d="M700 100h100v100H700z"/><path fill="#a58c79" d="M0 200h100v100H0z"/><path fill="#b69b88" d="M100 200h100v100H100z"/><path fill="#c4ab98" d="M200 200h100v100H200z"/><path fill="#c2af9c" d="M300 200h100v100H300z"/><path fill="#b5ae9c" d="M400 200h100v100H400z"/><path fill="#c0b9a5" d="M500 200h100v100H500z"/><path fill="#a8ab95" d="M600 200h100v100H600z"/><path fill="#b9b49c" d="M700 200h100v100H700z"/><path fill="#97493b" d="M0 300h100v100H0z"/><path fill="#ab5c4b" d="M100 300h100v100H100z"/><path fill="#b56250" d="M200 300h100v100H200z"/><path fill="#ac695c" d="M300 300h100v100H300z"/><path fill="#878a91" d="M400 300h100v100H400z"/><path fill="#979894" d="M500 300h100v100H500z"/><path fill="#959595" d="M600 300h100v100H600z"/><path fill="#858585" d="M700 300h100v100H700z"/><path fill="#6f3127" d="M0 400h100v100H0z"/><path fill="#7e4238" d="M100 400h100v100H100z"/><path fill="#9c5547" d="M200 400h100v100H200z"/><path fill="#914f46" d="M300 400h100v100H300z"/><path fill="#686575" d="M400 400h100v100H400z"/><path fill="#81808b" d="M500 400h100v100H500z"/><path fill="#767684" d="M600 400h100v100H600z"/><path fill="#746e76" d="M700 400h100v100H700z"/></svg>