<svg xmlns="http://www.w3.org/2000/svg" viewBox="0 0 800 500"><defs/><path fill="#b8d8cf" d="M0 0h100v100H0z"/><path fill="#a8bead" d="M100 0h100v100H100z"/><path fill="#91c1c2" d="M200 0h100v100H200z"/><path fill="#92c3c7" d="M300 0h100v100H300z"/><path fill="#94c0c3" d="M400 0h100v100H400z"/><path fill="#8ec8cf" d="M500 0h100v100H500z"/><path fill="#a1cdc2" d="M600 0h100v100H600z"/><path fill="#94ae91" d="M700 0h100v100H700z"/><path fill="#bbd2b2" d="M0 100h100v100H0z"/><path fill="#9b9664" d="M100 100h100v100H100z"/><path fill="#639da5" d="M200 100h100v100H200z"/><path fill="#61a8af" d="M300 100h100v100H300z"/><path fill="#68a3a4" d="M400 100h100v100H400z"/><path fill="#549cab" d="M500 100h100v100H500z"/><path fill="#568b6f" d="M600 100h100v100H600z"/><path fill="#9bac7e" d="M700 100h100v100H700z"/><path fill="#bbccac" d="M0 200h100v100H0z"/><path fill="#96966d" d="M100 200h100v100H100z"/><path fill="#4da4b2" d="M200 200h100v100H200z"/><path fill="#18a2ab" d="M300 200h100v100H300z"/><path fill="#2ca4ab" d="M400 200h100v100H400z"/><path fill="#6e9fa4" d="M500 200h100v100H500z"/><path fill="#6a947c" d="M600 200h100v100H600z"/><path fill="#a1b890" d="M700 200h100v100H700z"/><path fill="#b2c2a7" d="M0 300h100v100H0z"/><path fill="#948f6b" d="M100 300h100v100H100z"/><path fill="#889e94" d="M200 300h100v100H200z"/><path fill="#738a86" d="M300 300h100v100H300z"/><path fill="#89928a" d="M400 300h100v100H400z"/><path fill="#98aa9e" d="M500 300h100v100H500z"/><path fill="#b6bf9c" d="M600 300h100v100H600z"/><path fill="#b2b968" d="M700 300h100v100H700z"/><path fill="#acc1b5" d="M0 400h100v100H0z"/><path fill="#9da691" d="M100 400h100v100H100z"/><path fill="#acaea4" d="M200 400h100v100H200z"/><path fill="#cba8a2" d="M300 400h100v100H300z"/><path fill="#ccb0a7" d="M400 400h100v100H400z"/><path fill="#aebdb0" d="M500 400h100v100H500z"/><path fill="#b4bfb2" d="M600 400h100v100H600z"/><path fill="#8e9e86" d="M700 400h100v100H700z"/></svg>