<svg xmlns="http://www.w3.org/2000/svg" viewBox="0 0 800 300"><defs/><path fill="#dedfe1" d="M0 0h100v100H0z"/><path fill="#d9dadc" d="M100 0h100v100H100z"/><path fill="#f5f6f6" d="M200 0h100v100H200z"/><path fill="#f6f5f6" d="M300 0h100v100H300z"/><path fill="#f4f4f4" d="M400 0h100v100H400zm100 0h100v100H500z"/><path fill="#f7f7f7" d="M600 0h100v100H600z"/><path fill="#f6f6f6" d="M700 0h100v100H700z"/><path fill="#ebeced" d="M0 100h100v100H0z"/><path fill="#cecece" d="M100 100h100v100H100z"/><path fill="#eaeaec" d="M200 100h100v100H200z"/><path fill="#cdcccd" d="M300 100h100v100H300z"/><path fill="#dfdfdf" d="M400 100h100v100H400z"/><path fill="#d3d3d2" d="M500 100h100v100H500z"/><path fill="#e2e0e1" d="M600 100h100v100H600z"/><path fill="#dbdbdb" d="M700 100h100v100H700z"/><path fill="#eaebed" d="M0 200h100v100H0z"/><path fill="#d4d5d5" d="M100 200h100v100H100z"/><path fill="#e7e7e7" d="M200 200h100v100H200z"/><path fill="#d7d6d6" d="M300 200h100v100H300z"/><path fill="#e6e6e6" d="M400 200h100v100H400z"/><path fill="#dbdbdc" d="M500 200h100v100H500z"/><path fill="#e1e1e1" d="M600 200h100v100H600z"/><path fill="#dcdbdb" d="M700 200h100v100H700z"/></svg>