<svg xmlns="http://www.w3.org/2000/svg" viewBox="0 0 800 400"><defs/><path fill="#efefef" d="M0 0h100v100H0z"/><path fill="#a8c6ae" d="M100 0h100v100H100z"/><path fill="#9cd0a7" d="M200 0h100v100H200z"/><path fill="#95c7a0" d="M300 0h100v100H300z"/><path fill="#9bcca6" d="M400 0h100v100H400z"/><path fill="#a4d1ac" d="M500 0h100v100H500z"/><path fill="#badcc2" d="M600 0h100v100H600z"/><path fill="#dfdcdf" d="M700 0h100v100H700z"/><path fill="#f0eded" d="M0 100h100v100H0z"/><path fill="#ced4cd" d="M100 100h100v100H100z"/><path fill="#c3dcc9" d="M200 100h100v100H200z"/><path fill="#c4d1c4" d="M300 100h100v100H300z"/><path fill="#cdd3c7" d="M400 100h100v100H400z"/><path fill="#e1efe0" d="M500 100h100v100H500z"/><path fill="#d1eada" d="M600 100h100v100H600z"/><path fill="#dbd7d1" d="M700 100h100v100H700z"/><path fill="#e8e3e9" d="M0 200h100v100H0z"/><path fill="#d2dbca" d="M100 200h100v100H100z"/><path fill="#e2e6c2" d="M200 200h100v100H200z"/><path fill="#e3e0ce" d="M300 200h100v100H300z"/><path fill="#e5dfc6" d="M400 200h100v100H400z"/><path fill="#f5f3db" d="M500 200h100v100H500z"/><path fill="#efe6da" d="M600 200h100v100H600z"/><path fill="#dbd6cf" d="M700 200h100v100H700z"/><path fill="#d5d7cf" d="M0 300h100v100H0z"/><path fill="#d3ebc9" d="M100 300h100v100H100z"/><path fill="#cfdba4" d="M200 300h100v100H200z"/><path fill="#cdc89f" d="M300 300h100v100H300z"/><path fill="#dcf7cb" d="M400 300h100v100H400z"/><path fill="#e6edca" d="M500 300h100v100H500z"/><path fill="#dcc8b4" d="M600 300h100v100H600z"/><path fill="#dee1cd" d="M700 300h100v100H700z"/></svg>