<svg xmlns="http://www.w3.org/2000/svg" viewBox="0 0 800 400"><defs/><path fill="#85726c" d="M0 0h100v100H0z"/><path fill="#383332" d="M100 0h100v100H100z"/><path fill="#675756" d="M200 0h100v100H200z"/><path fill="#635150" d="M300 0h100v100H300z"/><path fill="#614f4f" d="M400 0h100v100H400z"/><path fill="#695555" d="M500 0h100v100H500z"/><path fill="#685454" d="M600 0h100v100H600z"/><path fill="#605252" d="M700 0h100v100H700z"/><path fill="#59453f" d="M0 100h100v100H0z"/><path fill="#120e0d" d="M100 100h100v100H100z"/><path fill="#655352" d="M200 100h100v100H200z"/><path fill="#5e4142" d="M300 100h100v100H300z"/><path fill="#6e4f52" d="M400 100h100v100H400z"/><path fill="#3e2626" d="M500 100h100v100H500z"/><path fill="#462d2e" d="M600 100h100v100H600z"/><path fill="#3d2a2b" d="M700 100h100v100H700z"/><path fill="#4d3f3b" d="M0 200h100v100H0z"/><path fill="#14100f" d="M100 200h100v100H100z"/><path fill="#7e6e6e" d="M200 200h100v100H200z"/><path fill="#9f9090" d="M300 200h100v100H300z"/><path fill="#a59796" d="M400 200h100v100H400z"/><path fill="#594242" d="M500 200h100v100H500z"/><path fill="#422823" d="M600 200h100v100H600z"/><path fill="#3d2928" d="M700 200h100v100H700z"/><path fill="#4f4543" d="M0 300h100v100H0z"/><path fill="#281d1b" d="M100 300h100v100H100z"/><path fill="#664f4f" d="M200 300h100v100H200z"/><path fill="#78716f" d="M300 300h100v100H300z"/><path fill="#797a76" d="M400 300h100v100H400z"/><path fill="#6c5c5f" d="M500 300h100v100H500z"/><path fill="#402a22" d="M600 300h100v100H600z"/><path fill="#51403c" d="M700 300h100v100H700z"/></svg>