<svg xmlns="http://www.w3.org/2000/svg" viewBox="0 0 800 500"><defs/><path fill="#e5eff9" d="M0 0h100v100H0z"/><path fill="#e2f3fa" d="M100 0h100v100H100z"/><path fill="#f1f8fd" d="M200 0h100v100H200z"/><path fill="#eef3fa" d="M300 0h100v100H300z"/><path fill="#dce4e7" d="M400 0h100v100H400z"/><path fill="#e9f0f3" d="M500 0h100v100H500z"/><path fill="#eaeff6" d="M600 0h100v100H600z"/><path fill="#e7f0f9" d="M700 0h100v100H700z"/><path fill="#f3f2d3" d="M0 100h100v100H0z"/><path fill="#dce1ea" d="M100 100h100v100H100z"/><path fill="#a7aecb" d="M200 100h100v100H200z"/><path fill="#ded9e3" d="M300 100h100v100H300z"/><path fill="#dee6c7" d="M400 100h100v100H400z"/><path fill="#babdc2" d="M500 100h100v100H500z"/><path fill="#cbcae1" d="M600 100h100v100H600z"/><path fill="#fdffff" d="M700 100h100v100H700z"/><path fill="#f2f8f4" d="M0 200h100v100H0z"/><path fill="#e2e4e4" d="M100 200h100v100H100z"/><path fill="#daddee" d="M200 200h100v100H200z"/><path fill="#e0dee8" d="M300 200h100v100H300z"/><path fill="#e6dbd4" d="M400 200h100v100H400z"/><path fill="#d0ccc7" d="M500 200h100v100H500z"/><path fill="#eceedd" d="M600 200h100v100H600z"/><path fill="#fdfeff" d="M700 200h100v100H700z"/><path fill="#e5dde6" d="M0 300h100v100H0z"/><path fill="#cbd2c5" d="M100 300h100v100H100z"/><path fill="#cdd8d0" d="M200 300h100v100H200z"/><path fill="#ebebee" d="M300 300h100v100H300z"/><path fill="#b7c9c0" d="M400 300h100v100H400z"/><path fill="#cbd7cf" d="M500 300h100v100H500z"/><path fill="#f6fcf2" d="M600 300h100v100H600z"/><path fill="#e7dcdb" d="M700 300h100v100H700z"/><path fill="#e8e8f0" d="M0 400h100v100H0z"/><path fill="#c8c4c6" d="M100 400h100v100H100z"/><path fill="#cbc5c6" d="M200 400h100v100H200z"/><path fill="#f9f4f0" d="M300 400h100v100H300z"/><path fill="#f2edef" d="M400 400h100v100H400z"/><path fill="#f4e9d6" d="M500 400h100v100H500z"/><path fill="#daca92" d="M600 400h100v100H600z"/><path fill="#e8dfcd" d="M700 400h100v100H700z"/></svg>