<svg xmlns="http://www.w3.org/2000/svg" viewBox="0 0 800 400"><defs/><path fill="#baa49b" d="M0 0h100v100H0z"/><path fill="#d9dad2" d="M100 0h100v100H100z"/><path fill="#c5c6b7" d="M200 0h100v100H200z"/><path fill="#acb5ae" d="M300 0h100v100H300z"/><path fill="#8c9f96" d="M400 0h100v100H400z"/><path fill="#a1aa92" d="M500 0h100v100H500z"/><path fill="#687d63" d="M600 0h100v100H600z"/><path fill="#b8bebb" d="M700 0h100v100H700z"/><path fill="#ccc0be" d="M0 100h100v100H0z"/><path fill="#ddd6c4" d="M100 100h100v100H100z"/><path fill="#e2d1a2" d="M200 100h100v100H200z"/><path fill="#a3aba6" d="M300 100h100v100H300z"/><path fill="#80958f" d="M400 100h100v100H400z"/><path fill="#868e72" d="M500 100h100v100H500z"/><path fill="#4f674d" d="M600 100h100v100H600z"/><path fill="#b1b6af" d="M700 100h100v100H700z"/><path fill="#eceef2" d="M0 200h100v100H0z"/><path fill="#bab8a1" d="M100 200h100v100H100z"/><path fill="#dfce9f" d="M200 200h100v100H200z"/><path fill="#ccd1d0" d="M300 200h100v100H300z"/><path fill="#a4afa4" d="M400 200h100v100H400z"/><path fill="#616e5f" d="M500 200h100v100H500z"/><path fill="#707866" d="M600 200h100v100H600z"/><path fill="#d2d2c8" d="M700 200h100v100H700z"/><path fill="#dad8d7" d="M0 300h100v100H0z"/><path fill="#e4dfd2" d="M100 300h100v100H100z"/><path fill="#f4ecdc" d="M200 300h100v100H200z"/><path fill="#ece8e4" d="M300 300h100v100H300z"/><path fill="#d0cbc0" d="M400 300h100v100H400z"/><path fill="#c4a67b" d="M500 300h100v100H500z"/><path fill="#c9ad8b" d="M600 300h100v100H600z"/><path fill="#d8d8d3" d="M700 300h100v100H700z"/></svg>