<svg xmlns="http://www.w3.org/2000/svg" viewBox="0 0 800 600"><defs/><path fill="#fafafa" d="M0 0h100v100H0z"/><path fill="#f7f7f7" d="M100 0h100v100H100z"/><path fill="#f8f8f8" d="M200 0h100v100H200z"/><path fill="#f2f2f2" d="M300 0h100v100H300z"/><path fill="#f4f4f4" d="M400 0h100v100H400zm100 0h100v100H500z"/><path fill="#f7f7f7" d="M600 0h100v100H600z"/><path fill="#fdfdfd" d="M700 0h100v100H700z"/><path fill="#f1f1f1" d="M0 100h100v100H0z"/><path fill="#e4e4e4" d="M100 100h100v100H100z"/><path fill="#e2e2e2" d="M200 100h100v100H200z"/><path fill="#c2c2c2" d="M300 100h100v100H300z"/><path fill="#d2d2d2" d="M400 100h100v100H400z"/><path fill="#ddd" d="M500 100h100v100H500zm100 0h100v100H600z"/><path fill="#ececec" d="M700 100h100v100H700z"/><path fill="#efefef" d="M0 200h100v100H0z"/><path fill="#e1e1e1" d="M100 200h100v100H100z"/><path fill="#d8d8d8" d="M200 200h100v100H200z"/><path fill="#d9d9d9" d="M300 200h100v100H300z"/><path fill="#e0e0e0" d="M400 200h100v100H400z"/><path fill="#e5e5e5" d="M500 200h100v100H500z"/><path fill="#dfdfdf" d="M600 200h100v100H600z"/><path fill="#e7e7e7" d="M700 200h100v100H700z"/><path fill="#dcdcdc" d="M0 300h100v100H0z"/><path fill="#c8c8c8" d="M100 300h100v100H100z"/><path fill="#d9d9d9" d="M200 300h100v100H200z"/><path fill="#dcdcdc" d="M300 300h100v100H300z"/><path fill="#ddd" d="M400 300h100v100H400z"/><path fill="#dadada" d="M500 300h100v100H500z"/><path fill="#d3d3d3" d="M600 300h100v100H600z"/><path fill="#ededed" d="M700 300h100v100H700z"/><path fill="#e5e5e5" d="M0 400h100v100H0z"/><path fill="#c6c6c6" d="M100 400h100v100H100z"/><path fill="#d5d5d5" d="M200 400h100v100H200z"/><path fill="#dbdbdb" d="M300 400h100v100H300z"/><path fill="#e0e0e0" d="M400 400h100v100H400z"/><path fill="#e6e6e6" d="M500 400h100v100H500z"/><path fill="#dbdbdb" d="M600 400h100v100H600z"/><path fill="#e6e6e6" d="M700 400h100v100H700z"/><path fill="#f8f8f8" d="M0 500h100v100H0z"/><path fill="#f5f5f5" d="M100 500h100v100H100z"/><path fill="#f4f4f4" d="M200 500h100v100H200zm100 0h100v100H300z"/><path fill="#f8f8f8" d="M400 500h100v100H400z"/><path fill="#f7f7f7" d="M500 500h100v100H500z"/><path fill="#f6f6f6" d="M600 500h100v100H600z"/><path fill="#f5f5f5" d="M700 500h100v100H700z"/></svg>