<svg xmlns="http://www.w3.org/2000/svg" viewBox="0 0 800 500"><defs/><path fill="#faf9fa" d="M0 0h100v100H0z"/><path fill="#f5f3f6" d="M100 0h100v100H100z"/><path fill="#fcfcfd" d="M200 0h100v100H200z"/><path fill="#fdfcfd" d="M300 0h100v100H300z"/><path fill="#faf9fa" d="M400 0h100v100H400z"/><path fill="#fdfcfc" d="M500 0h100v100H500z"/><path fill="#f7f7f9" d="M600 0h100v100H600z"/><path fill="#f6f5f8" d="M700 0h100v100H700z"/><path fill="#f0edf1" d="M0 100h100v100H0z"/><path fill="#dbd5e0" d="M100 100h100v100H100z"/><path fill="#e8e4eb" d="M200 100h100v100H200z"/><path fill="#fafafb" d="M300 100h100v100H300z"/><path fill="#eae7ed" d="M400 100h100v100H400z"/><path fill="#e9e6ec" d="M500 100h100v100H500z"/><path fill="#e5e1e8" d="M600 100h100v100H600z"/><path fill="#e1dde6" d="M700 100h100v100H700z"/><path fill="#e9e6ec" d="M0 200h100v100H0z"/><path fill="#e0dbe5" d="M100 200h100v100H100z"/><path fill="#e8e5eb" d="M200 200h100v100H200z"/><path fill="#e4e1e8" d="M300 200h100v100H300z"/><path fill="#e9e6ed" d="M400 200h100v100H400z"/><path fill="#e6e3ea" d="M500 200h100v100H500z"/><path fill="#d7d1dd" d="M600 200h100v100H600z"/><path fill="#cdc5d6" d="M700 200h100v100H700z"/><path fill="#e1dce5" d="M0 300h100v100H0z"/><path fill="#ded8e3" d="M100 300h100v100H100z"/><path fill="#f1eff2" d="M200 300h100v100H200z"/><path fill="#eae6ec" d="M300 300h100v100H300z"/><path fill="#e6e2e9" d="M400 300h100v100H400z"/><path fill="#f2f0f4" d="M500 300h100v100H500z"/><path fill="#d7d1dd" d="M600 300h100v100H600z"/><path fill="#d4cedb" d="M700 300h100v100H700z"/><path fill="#f0edf2" d="M0 400h100v100H0z"/><path fill="#f2eff3" d="M100 400h100v100H100z"/><path fill="#f4f2f5" d="M200 400h100v100H200z"/><path fill="#f5f4f7" d="M300 400h100v100H300z"/><path fill="#f3f1f3" d="M400 400h100v100H400z"/><path fill="#fafafa" d="M500 400h100v100H500z"/><path fill="#f8f6f9" d="M600 400h100v100H600z"/><path fill="#eae6ed" d="M700 400h100v100H700z"/></svg>