<svg xmlns="http://www.w3.org/2000/svg" viewBox="0 0 800 500"><defs/><path fill="#a19484" d="M0 0h100v100H0z"/><path fill="#a2887b" d="M100 0h100v100H100z"/><path fill="#9f766b" d="M200 0h100v100H200z"/><path fill="#a38576" d="M300 0h100v100H300z"/><path fill="#ad9280" d="M400 0h100v100H400z"/><path fill="#a58576" d="M500 0h100v100H500z"/><path fill="#9c7f73" d="M600 0h100v100H600z"/><path fill="#8d786e" d="M700 0h100v100H700z"/><path fill="#b6a493" d="M0 100h100v100H0z"/><path fill="#bda891" d="M100 100h100v100H100z"/><path fill="#b89789" d="M200 100h100v100H200z"/><path fill="#ad7f77" d="M300 100h100v100H300z"/><path fill="#a27e74" d="M400 100h100v100H400z"/><path fill="#a38979" d="M500 100h100v100H500z"/><path fill="#998371" d="M600 100h100v100H600z"/><path fill="#7d6256" d="M700 100h100v100H700z"/><path fill="#907e5f" d="M0 200h100v100H0z"/><path fill="#a08e6e" d="M100 200h100v100H100z"/><path fill="#aa9978" d="M200 200h100v100H200z"/><path fill="#a69784" d="M300 200h100v100H300z"/><path fill="#a89489" d="M400 200h100v100H400z"/><path fill="#a18176" d="M500 200h100v100H500z"/><path fill="#826251" d="M600 200h100v100H600z"/><path fill="#776650" d="M700 200h100v100H700z"/><path fill="#8d7958" d="M0 300h100v100H0z"/><path fill="#9b896d" d="M100 300h100v100H100z"/><path fill="#ad9a7f" d="M200 300h100v100H200z"/><path fill="#b7ab9e" d="M300 300h100v100H300z"/><path fill="#a29d99" d="M400 300h100v100H400z"/><path fill="#ada7a3" d="M500 300h100v100H500z"/><path fill="#b2a395" d="M600 300h100v100H600z"/><path fill="#8c6f60" d="M700 300h100v100H700z"/><path fill="#7b6c56" d="M0 400h100v100H0z"/><path fill="#a0927e" d="M100 400h100v100H100z"/><path fill="#9a928a" d="M200 400h100v100H200z"/><path fill="#c9c0b8" d="M300 400h100v100H300z"/><path fill="#a9a29f" d="M400 400h100v100H400z"/><path fill="#b5ada9" d="M500 400h100v100H500z"/><path fill="#929193" d="M600 400h100v100H600z"/><path fill="#887a6a" d="M700 400h100v100H700z"/></svg>