<svg xmlns="http://www.w3.org/2000/svg" viewBox="0 0 800 500"><defs/><path fill="#b4b9bd" d="M0 0h100v100H0z"/><path fill="#9d857e" d="M100 0h100v100H100z"/><path fill="#996d68" d="M200 0h100v100H200z"/><path fill="#aba9ad" d="M300 0h100v100H300z"/><path fill="#a79da2" d="M400 0h100v100H400z"/><path fill="#a59fa5" d="M500 0h100v100H500z"/><path fill="#a69496" d="M600 0h100v100H600z"/><path fill="#9f9e9c" d="M700 0h100v100H700z"/><path fill="#b7b6bb" d="M0 100h100v100H0z"/><path fill="#9a736f" d="M100 100h100v100H100z"/><path fill="#a4807a" d="M200 100h100v100H200z"/><path fill="#aba6a4" d="M300 100h100v100H300z"/><path fill="#b1acb1" d="M400 100h100v100H400z"/><path fill="#adb2bf" d="M500 100h100v100H500z"/><path fill="#aaa0a1" d="M600 100h100v100H600z"/><path fill="#a1ac9d" d="M700 100h100v100H700z"/><path fill="#a9a19d" d="M0 200h100v100H0z"/><path fill="#996e69" d="M100 200h100v100H100z"/><path fill="#93787c" d="M200 200h100v100H200z"/><path fill="#95867b" d="M300 200h100v100H300z"/><path fill="#a59d9f" d="M400 200h100v100H400z"/><path fill="#a8a1a9" d="M500 200h100v100H500z"/><path fill="#7f9b76" d="M600 200h100v100H600z"/><path fill="#699e63" d="M700 200h100v100H700z"/><path fill="#a08c8c" d="M0 300h100v100H0z"/><path fill="#946a68" d="M100 300h100v100H100z"/><path fill="#b69da1" d="M200 300h100v100H200z"/><path fill="#baa4a7" d="M300 300h100v100H300z"/><path fill="#bba7ab" d="M400 300h100v100H400z"/><path fill="#b28f97" d="M500 300h100v100H500z"/><path fill="#91746f" d="M600 300h100v100H600z"/><path fill="#667f64" d="M700 300h100v100H700z"/><path fill="#a6a3a8" d="M0 400h100v100H0z"/><path fill="#a29e9f" d="M100 400h100v100H100z"/><path fill="#b8adb2" d="M200 400h100v100H200z"/><path fill="#beacb0" d="M300 400h100v100H300z"/><path fill="#bba3a6" d="M400 400h100v100H400z"/><path fill="#a7999f" d="M500 400h100v100H500z"/><path fill="#928895" d="M600 400h100v100H600z"/><path fill="#83838e" d="M700 400h100v100H700z"/></svg>