<svg xmlns="http://www.w3.org/2000/svg" viewBox="0 0 800 500"><defs/><path fill="#b0a7a2" d="M0 0h100v100H0z"/><path fill="#a6b9a3" d="M100 0h100v100H100z"/><path fill="#bcc1b3" d="M200 0h100v100H200z"/><path fill="#d4cdc9" d="M300 0h100v100H300z"/><path fill="#d4d2cf" d="M400 0h100v100H400z"/><path fill="#d8d0c8" d="M500 0h100v100H500z"/><path fill="#d6cdc5" d="M600 0h100v100H600z"/><path fill="#d5ccc8" d="M700 0h100v100H700z"/><path fill="#b9b0a3" d="M0 100h100v100H0z"/><path fill="#70996e" d="M100 100h100v100H100z"/><path fill="#c4c7ba" d="M200 100h100v100H200z"/><path fill="#bbbcb9" d="M300 100h100v100H300z"/><path fill="#abafa8" d="M400 100h100v100H400z"/><path fill="#b7b8a0" d="M500 100h100v100H500z"/><path fill="#bdbcb1" d="M600 100h100v100H600z"/><path fill="#d7cdc7" d="M700 100h100v100H700z"/><path fill="#b7b699" d="M0 200h100v100H0z"/><path fill="#729a6c" d="M100 200h100v100H100z"/><path fill="#cbc5b3" d="M200 200h100v100H200z"/><path fill="#bebcaf" d="M300 200h100v100H300z"/><path fill="#adada8" d="M400 200h100v100H400z"/><path fill="#a7b59a" d="M500 200h100v100H500z"/><path fill="#a3ae94" d="M600 200h100v100H600z"/><path fill="#cec1b8" d="M700 200h100v100H700z"/><path fill="#938b74" d="M0 300h100v100H0z"/><path fill="#4d764a" d="M100 300h100v100H100z"/><path fill="#5e9951" d="M200 300h100v100H200z"/><path fill="#538e60" d="M300 300h100v100H300z"/><path fill="#518e64" d="M400 300h100v100H400z"/><path fill="#5a8e51" d="M500 300h100v100H500z"/><path fill="#578242" d="M600 300h100v100H600z"/><path fill="#96aa86" d="M700 300h100v100H700z"/><path fill="#908971" d="M0 400h100v100H0z"/><path fill="#7b9166" d="M100 400h100v100H100z"/><path fill="#89ac72" d="M200 400h100v100H200z"/><path fill="#8bab73" d="M300 400h100v100H300z"/><path fill="#8aaa73" d="M400 400h100v100H400z"/><path fill="#7fa572" d="M500 400h100v100H500z"/><path fill="#739a6a" d="M600 400h100v100H600z"/><path fill="#7c9672" d="M700 400h100v100H700z"/></svg>