<svg xmlns="http://www.w3.org/2000/svg" viewBox="0 0 800 500"><defs/><path fill="#ebebe3" d="M0 0h100v100H0z"/><path fill="#b9ab8d" d="M100 0h100v100H100z"/><path fill="#d9c6a8" d="M200 0h100v100H200z"/><path fill="#e6e4d3" d="M300 0h100v100H300z"/><path fill="#bfb8a8" d="M400 0h100v100H400z"/><path fill="#d1cfbc" d="M500 0h100v100H500z"/><path fill="#cbd4b5" d="M600 0h100v100H600z"/><path fill="#d4d5c1" d="M700 0h100v100H700z"/><path fill="#c6c4ac" d="M0 100h100v100H0z"/><path fill="#b19a6d" d="M100 100h100v100H100z"/><path fill="#cabea9" d="M200 100h100v100H200z"/><path fill="#ddd4c0" d="M300 100h100v100H300z"/><path fill="#cdc0aa" d="M400 100h100v100H400z"/><path fill="#c4bcae" d="M500 100h100v100H500z"/><path fill="#c8c3ac" d="M600 100h100v100H600z"/><path fill="#dcd4bb" d="M700 100h100v100H700z"/><path fill="#d2c4a3" d="M0 200h100v100H0z"/><path fill="#b6a181" d="M100 200h100v100H100z"/><path fill="#c4b8ac" d="M200 200h100v100H200z"/><path fill="#d7c1a7" d="M300 200h100v100H300z"/><path fill="#d5b093" d="M400 200h100v100H400z"/><path fill="#ceb9a7" d="M500 200h100v100H500z"/><path fill="#d4ccb6" d="M600 200h100v100H600z"/><path fill="#dfcfb7" d="M700 200h100v100H700z"/><path fill="#bead94" d="M0 300h100v100H0z"/><path fill="#bbb7a5" d="M100 300h100v100H100z"/><path fill="#cac1b7" d="M200 300h100v100H200z"/><path fill="#e0d2c4" d="M300 300h100v100H300z"/><path fill="#d5bdae" d="M400 300h100v100H400z"/><path fill="#ceb9a9" d="M500 300h100v100H500z"/><path fill="#dedad3" d="M600 300h100v100H600z"/><path fill="#d2c5b7" d="M700 300h100v100H700z"/><path fill="#caab7c" d="M0 400h100v100H0z"/><path fill="#be9e79" d="M100 400h100v100H100z"/><path fill="#d0ad90" d="M200 400h100v100H200z"/><path fill="#b8a693" d="M300 400h100v100H300z"/><path fill="#cfcac1" d="M400 400h100v100H400z"/><path fill="#dbc8ab" d="M500 400h100v100H500z"/><path fill="#c6ac93" d="M600 400h100v100H600z"/><path fill="#cab199" d="M700 400h100v100H700z"/></svg>