<svg xmlns="http://www.w3.org/2000/svg" viewBox="0 0 800 1100"><defs/><path fill="#746458" d="M0 0h100v100H0z"/><path fill="#968e84" d="M100 0h100v100H100z"/><path fill="#534e4b" d="M200 0h100v100H200z"/><path fill="#6a645e" d="M300 0h100v100H300z"/><path fill="#55544a" d="M400 0h100v100H400z"/><path fill="#625e53" d="M500 0h100v100H500z"/><path fill="#4e483c" d="M600 0h100v100H600z"/><path fill="#3a3932" d="M700 0h100v100H700z"/><path fill="#c5b6b6" d="M0 100h100v100H0z"/><path fill="#c0b5ae" d="M100 100h100v100H100z"/><path fill="#928881" d="M200 100h100v100H200z"/><path fill="#878682" d="M300 100h100v100H300z"/><path fill="#a1998e" d="M400 100h100v100H400z"/><path fill="#b0a693" d="M500 100h100v100H500z"/><path fill="#5b5d53" d="M600 100h100v100H600z"/><path fill="#151414" d="M700 100h100v100H700z"/><path fill="#968b8d" d="M0 200h100v100H0z"/><path fill="#62655f" d="M100 200h100v100H100z"/><path fill="#aba594" d="M200 200h100v100H200z"/><path fill="#bdb9af" d="M300 200h100v100H300z"/><path fill="#c3c0b1" d="M400 200h100v100H400z"/><path fill="#d1c7a5" d="M500 200h100v100H500z"/><path fill="#aeac9b" d="M600 200h100v100H600z"/><path fill="#424442" d="M700 200h100v100H700z"/><path fill="#ac566c" d="M0 300h100v100H0z"/><path fill="#824e59" d="M100 300h100v100H100z"/><path fill="#a0ac9a" d="M200 300h100v100H200z"/><path fill="#acbab1" d="M300 300h100v100H300z"/><path fill="#96a296" d="M400 300h100v100H400z"/><path fill="#a29f82" d="M500 300h100v100H500z"/><path fill="#8d9185" d="M600 300h100v100H600z"/><path fill="#56574f" d="M700 300h100v100H700z"/><path fill="#d4c2bf" d="M0 400h100v100H0z"/><path fill="#ab949b" d="M100 400h100v100H100z"/><path fill="#acaca4" d="M200 400h100v100H200z"/><path fill="#cac6ba" d="M300 400h100v100H300z"/><path fill="#b1afa2" d="M400 400h100v100H400z"/><path fill="#85837b" d="M500 400h100v100H500z"/><path fill="#90908b" d="M600 400h100v100H600z"/><path fill="#7d7b7a" d="M700 400h100v100H700z"/><path fill="#eaecef" d="M0 500h100v100H0z"/><path fill="#ebeff0" d="M100 500h100v100H100z"/><path fill="#e8e7ea" d="M200 500h100v100H200z"/><path fill="#e6e4e8" d="M300 500h100v100H300z"/><path fill="#e9e7ea" d="M400 500h100v100H400z"/><path fill="#d1cfd1" d="M500 500h100v100H500z"/><path fill="#b7b7b7" d="M600 500h100v100H600z"/><path fill="#c0bfc0" d="M700 500h100v100H700z"/><path fill="#e8e9ee" d="M0 600h100v100H0z"/><path fill="#e2e2e6" d="M100 600h100v100H100z"/><path fill="#dfe1e2" d="M200 600h100v100H200z"/><path fill="#e4e4e6" d="M300 600h100v100H300z"/><path fill="#e3e2e4" d="M400 600h100v100H400z"/><path fill="#e6e5e5" d="M500 600h100v100H500z"/><path fill="#dddbdd" d="M600 600h100v100H600z"/><path fill="#b6b4b6" d="M700 600h100v100H700z"/><path fill="#e6e6ed" d="M0 700h100v100H0z"/><path fill="#dfe0e4" d="M100 700h100v100H100z"/><path fill="#e0e2e3" d="M200 700h100v100H200z"/><path fill="#e4e3e5" d="M300 700h100v100H300z"/><path fill="#e3e1e3" d="M400 700h100v100H400z"/><path fill="#e0dedf" d="M500 700h100v100H500z"/><path fill="#e4e2e5" d="M600 700h100v100H600z"/><path fill="#eae8e9" d="M700 700h100v100H700z"/><path fill="#e0e1e7" d="M0 800h100v100H0z"/><path fill="#dcdde1" d="M100 800h100v100H100z"/><path fill="#e1e0e3" d="M200 800h100v100H200z"/><path fill="#e2e0e3" d="M300 800h100v100H300z"/><path fill="#dfdde0" d="M400 800h100v100H400z"/><path fill="#e0dee0" d="M500 800h100v100H500z"/><path fill="#dedcde" d="M600 800h100v100H600z"/><path fill="#dedcda" d="M700 800h100v100H700z"/><path fill="#dfe1e5" d="M0 900h100v100H0z"/><path fill="#dedee2" d="M100 900h100v100H100z"/><path fill="#e0dee1" d="M200 900h100v100H200z"/><path fill="#dbd9dc" d="M300 900h100v100H300z"/><path fill="#dad8da" d="M400 900h100v100H400z"/><path fill="#dad9db" d="M500 900h100v100H500z"/><path fill="#d7d6d6" d="M600 900h100v100H600z"/><path fill="#d9d5d4" d="M700 900h100v100H700z"/><path fill="#dedde0" d="M0 1000h100v100H0z"/><path fill="#d9d8db" d="M100 1000h100v100H100z"/><path fill="#d6d4d6" d="M200 1000h100v100H200z"/><path fill="#d2cfd0" d="M300 1000h100v100H300z"/><path fill="#cbc9c6" d="M400 1000h100v100H400z"/><path fill="#c0bcb6" d="M500 1000h100v100H500z"/><path fill="#b6b1a8" d="M600 1000h100v100H600z"/><path fill="#b5ada3" d="M700 1000h100v100H700z"/></svg>