<svg xmlns="http://www.w3.org/2000/svg" viewBox="0 0 800 1100"><defs/><path fill="#eceded" d="M0 0h100v100H0z"/><path fill="#dadfde" d="M100 0h100v100H100z"/><path fill="#e4e5e5" d="M200 0h100v100H200z"/><path fill="#efeff0" d="M300 0h100v100H300z"/><path fill="#d8d8da" d="M400 0h100v100H400z"/><path fill="#d4d3d3" d="M500 0h100v100H500z"/><path fill="#e4e4e4" d="M600 0h100v100H600z"/><path fill="#f6f6f7" d="M700 0h100v100H700z"/><path fill="#bebdbd" d="M0 100h100v100H0z"/><path fill="#82817f" d="M100 100h100v100H100z"/><path fill="#b4b5b6" d="M200 100h100v100H200z"/><path fill="#cac7c6" d="M300 100h100v100H300z"/><path fill="#d5d4cb" d="M400 100h100v100H400z"/><path fill="#e4e4e2" d="M500 100h100v100H500z"/><path fill="#a9a7a6" d="M600 100h100v100H600z"/><path fill="#a6a5a5" d="M700 100h100v100H700z"/><path fill="#c0bfbd" d="M0 200h100v100H0z"/><path fill="#938c76" d="M100 200h100v100H100z"/><path fill="#cbcccd" d="M200 200h100v100H200z"/><path fill="#96938b" d="M300 200h100v100H300z"/><path fill="#c0b78d" d="M400 200h100v100H400z"/><path fill="#dde1de" d="M500 200h100v100H500z"/><path fill="#aba6a7" d="M600 200h100v100H600z"/><path fill="#cec9c8" d="M700 200h100v100H700z"/><path fill="#e9ebeb" d="M0 300h100v100H0z"/><path fill="#c4c6c0" d="M100 300h100v100H100z"/><path fill="#bfbebd" d="M200 300h100v100H200z"/><path fill="#dddcdb" d="M300 300h100v100H300z"/><path fill="#dee0de" d="M400 300h100v100H400z"/><path fill="#ececee" d="M500 300h100v100H500z"/><path fill="#f2efee" d="M600 300h100v100H600z"/><path fill="#f2f5f5" d="M700 300h100v100H700z"/><path fill="#fefefe" d="M0 400h100v100H0z"/><path fill="#cec6c5" d="M100 400h100v100H100z"/><path fill="#8a8785" d="M200 400h100v100H200z"/><path fill="#c4c7c2" d="M300 400h100v100H300z"/><path fill="#ebeded" d="M400 400h100v100H400z"/><path fill="#d6d3cd" d="M500 400h100v100H500z"/><path fill="#e2ddcf" d="M600 400h100v100H600z"/><path fill="#ecebe9" d="M700 400h100v100H700z"/><path fill="#fcfdfa" d="M0 500h100v100H0z"/><path fill="#e2e2e0" d="M100 500h100v100H100z"/><path fill="#b0afac" d="M200 500h100v100H200z"/><path fill="#afafa9" d="M300 500h100v100H300z"/><path fill="#d1d3d3" d="M400 500h100v100H400z"/><path fill="#b9b89f" d="M500 500h100v100H500z"/><path fill="#c2c4b6" d="M600 500h100v100H600z"/><path fill="#eff5f8" d="M700 500h100v100H700z"/><path fill="#edebe9" d="M0 600h100v100H0z"/><path fill="#bbb4af" d="M100 600h100v100H100z"/><path fill="#d8d8d7" d="M200 600h100v100H200z"/><path fill="#e0dfe1" d="M300 600h100v100H300z"/><path fill="#d4d5d8" d="M400 600h100v100H400z"/><path fill="#686868" d="M500 600h100v100H500z"/><path fill="#7b7c7b" d="M600 600h100v100H600z"/><path fill="#b9bbbb" d="M700 600h100v100H700z"/><path fill="#dcd6d4" d="M0 700h100v100H0z"/><path fill="#7c635a" d="M100 700h100v100H100z"/><path fill="#b9bcbb" d="M200 700h100v100H200z"/><path fill="#c1c3b5" d="M300 700h100v100H300z"/><path fill="#a6a08a" d="M400 700h100v100H400z"/><path fill="#898989" d="M500 700h100v100H500z"/><path fill="#d0d1d4" d="M600 700h100v100H600z"/><path fill="#d3d2d4" d="M700 700h100v100H700z"/><path fill="#f1edec" d="M0 800h100v100H0z"/><path fill="#cabab4" d="M100 800h100v100H100z"/><path fill="#c2cad0" d="M200 800h100v100H200z"/><path fill="#b9b6a2" d="M300 800h100v100H300z"/><path fill="#bab097" d="M400 800h100v100H400z"/><path fill="#f2f4f5" d="M500 800h100v100H500z"/><path fill="#dcd8c5" d="M600 800h100v100H600z"/><path fill="#d3d0c7" d="M700 800h100v100H700z"/><path fill="#e5e0df" d="M0 900h100v100H0z"/><path fill="#acadab" d="M100 900h100v100H100z"/><path fill="#cfccc1" d="M200 900h100v100H200z"/><path fill="#b5ae90" d="M300 900h100v100H300z"/><path fill="#bdbcb6" d="M400 900h100v100H400z"/><path fill="#90968d" d="M500 900h100v100H500z"/><path fill="#a59a75" d="M600 900h100v100H600z"/><path fill="#c3c4bc" d="M700 900h100v100H700z"/><path fill="#ebe5e4" d="M0 1000h100v100H0z"/><path fill="#c2c0bb" d="M100 1000h100v100H100z"/><path fill="#cbcdc7" d="M200 1000h100v100H200z"/><path fill="#cdc8b5" d="M300 1000h100v100H300z"/><path fill="#d6d2ca" d="M400 1000h100v100H400z"/><path fill="#c6c9c8" d="M500 1000h100v100H500z"/><path fill="#bcbcbf" d="M600 1000h100v100H600z"/><path fill="#d6d5d7" d="M700 1000h100v100H700z"/></svg>