<svg xmlns="http://www.w3.org/2000/svg" viewBox="0 0 800 500"><defs/><path fill="#b4d6e7" d="M0 0h100v100H0z"/><path fill="#cbd1ab" d="M100 0h100v100H100z"/><path fill="#b9c7c5" d="M200 0h100v100H200z"/><path fill="#bacacd" d="M300 0h100v100H300z"/><path fill="#b4d4e6" d="M400 0h100v100H400z"/><path fill="#b8d3e3" d="M500 0h100v100H500z"/><path fill="#99bfd2" d="M600 0h100v100H600z"/><path fill="#b3cdd8" d="M700 0h100v100H700z"/><path fill="#a1c4d2" d="M0 100h100v100H0z"/><path fill="#b3b080" d="M100 100h100v100H100z"/><path fill="#a3bfc8" d="M200 100h100v100H200z"/><path fill="#abc6ce" d="M300 100h100v100H300z"/><path fill="#a7becd" d="M400 100h100v100H400z"/><path fill="#a8afb2" d="M500 100h100v100H500z"/><path fill="#86b7d0" d="M600 100h100v100H600z"/><path fill="#a0bec9" d="M700 100h100v100H700z"/><path fill="#b4c9c1" d="M0 200h100v100H0z"/><path fill="#b2bc97" d="M100 200h100v100H100z"/><path fill="#89bcdf" d="M200 200h100v100H200z"/><path fill="#97b7ca" d="M300 200h100v100H300z"/><path fill="#96bad1" d="M400 200h100v100H400z"/><path fill="#8bb1c9" d="M500 200h100v100H500z"/><path fill="#9babbf" d="M600 200h100v100H600z"/><path fill="#a2bbc8" d="M700 200h100v100H700z"/><path fill="#bccaaa" d="M0 300h100v100H0z"/><path fill="#c6b57c" d="M100 300h100v100H100z"/><path fill="#c1aca3" d="M200 300h100v100H200z"/><path fill="#d0ae95" d="M300 300h100v100H300z"/><path fill="#d3c4b4" d="M400 300h100v100H400z"/><path fill="#cfbbba" d="M500 300h100v100H500z"/><path fill="#db94ae" d="M600 300h100v100H600z"/><path fill="#a1afb9" d="M700 300h100v100H700z"/><path fill="#d5d0b4" d="M0 400h100v100H0z"/><path fill="#e6c4a2" d="M100 400h100v100H100z"/><path fill="#e7c2ad" d="M200 400h100v100H200z"/><path fill="#e3c5ad" d="M300 400h100v100H300z"/><path fill="#c7d4b2" d="M400 400h100v100H400z"/><path fill="#d5bfb2" d="M500 400h100v100H500z"/><path fill="#ecb5ac" d="M600 400h100v100H600z"/><path fill="#dbcabc" d="M700 400h100v100H700z"/></svg>