<svg xmlns="http://www.w3.org/2000/svg" viewBox="0 0 800 500"><defs/><path fill="#bda898" d="M0 0h100v100H0z"/><path fill="#baab9b" d="M100 0h100v100H100z"/><path fill="#c5b4a5" d="M200 0h100v100H200z"/><path fill="#cbbbab" d="M300 0h100v100H300z"/><path fill="#c4b3a2" d="M400 0h100v100H400z"/><path fill="#c0af9f" d="M500 0h100v100H500z"/><path fill="#bcac98" d="M600 0h100v100H600z"/><path fill="#a89580" d="M700 0h100v100H700z"/><path fill="#ad9f8e" d="M0 100h100v100H0z"/><path fill="#b19c88" d="M100 100h100v100H100z"/><path fill="#b7a596" d="M200 100h100v100H200z"/><path fill="#bda795" d="M300 100h100v100H300z"/><path fill="#c1ab97" d="M400 100h100v100H400z"/><path fill="#baa696" d="M500 100h100v100H500z"/><path fill="#b2a08e" d="M600 100h100v100H600z"/><path fill="#9a866a" d="M700 100h100v100H700z"/><path fill="#b0a193" d="M0 200h100v100H0z"/><path fill="#ac9988" d="M100 200h100v100H100z"/><path fill="#b7a695" d="M200 200h100v100H200z"/><path fill="#af9883" d="M300 200h100v100H300z"/><path fill="#a79685" d="M400 200h100v100H400z"/><path fill="#a69883" d="M500 200h100v100H500z"/><path fill="#a39081" d="M600 200h100v100H600z"/><path fill="#a08a72" d="M700 200h100v100H700z"/><path fill="#b8a48f" d="M0 300h100v100H0z"/><path fill="#a9947d" d="M100 300h100v100H100z"/><path fill="#b19d8c" d="M200 300h100v100H200z"/><path fill="#a88369" d="M300 300h100v100H300z"/><path fill="#9f7e6a" d="M400 300h100v100H400z"/><path fill="#9c866c" d="M500 300h100v100H500z"/><path fill="#8f8067" d="M600 300h100v100H600z"/><path fill="#897e6f" d="M700 300h100v100H700z"/><path fill="#b29a7b" d="M0 400h100v100H0z"/><path fill="#b19878" d="M100 400h100v100H100z"/><path fill="#ab967e" d="M200 400h100v100H200z"/><path fill="#ae8d70" d="M300 400h100v100H300z"/><path fill="#af8d7b" d="M400 400h100v100H400z"/><path fill="#b1937f" d="M500 400h100v100H500z"/><path fill="#9e9583" d="M600 400h100v100H600z"/><path fill="#757468" d="M700 400h100v100H700z"/></svg>