<svg xmlns="http://www.w3.org/2000/svg" viewBox="0 0 800 600"><defs/><path fill="#eaecdc" d="M0 0h100v100H0z"/><path fill="#ded8cd" d="M100 0h100v100H100z"/><path fill="#e6ecd7" d="M200 0h100v100H200z"/><path fill="#dfdbce" d="M300 0h100v100H300z"/><path fill="#e8e2d1" d="M400 0h100v100H400z"/><path fill="#f1f2de" d="M500 0h100v100H500z"/><path fill="#ededde" d="M600 0h100v100H600z"/><path fill="#f4f3de" d="M700 0h100v100H700z"/><path fill="#89965f" d="M0 100h100v100H0z"/><path fill="#6e4b23" d="M100 100h100v100H100z"/><path fill="#918d49" d="M200 100h100v100H200z"/><path fill="#7b8c66" d="M300 100h100v100H300z"/><path fill="#929e72" d="M400 100h100v100H400z"/><path fill="#9c9e79" d="M500 100h100v100H500z"/><path fill="#4961a9" d="M600 100h100v100H600z"/><path fill="#9ea687" d="M700 100h100v100H700z"/><path fill="#8c8653" d="M0 200h100v100H0z"/><path fill="#663a30" d="M100 200h100v100H100z"/><path fill="#887950" d="M200 200h100v100H200z"/><path fill="#5b6c3e" d="M300 200h100v100H300z"/><path fill="#7c884f" d="M400 200h100v100H400z"/><path fill="#82735f" d="M500 200h100v100H500z"/><path fill="#3f5ebd" d="M600 200h100v100H600z"/><path fill="#6281bc" d="M700 200h100v100H700z"/><path fill="#8a6c48" d="M0 300h100v100H0z"/><path fill="#794c26" d="M100 300h100v100H100z"/><path fill="#9e8273" d="M200 300h100v100H200z"/><path fill="#7a553c" d="M300 300h100v100H300z"/><path fill="#8f8254" d="M400 300h100v100H400z"/><path fill="#7c5942" d="M500 300h100v100H500z"/><path fill="#773b2d" d="M600 300h100v100H600z"/><path fill="#7d6a4c" d="M700 300h100v100H700z"/><path fill="#7f786a" d="M0 400h100v100H0z"/><path fill="#5a331e" d="M100 400h100v100H100z"/><path fill="#91866e" d="M200 400h100v100H200z"/><path fill="#7e744b" d="M300 400h100v100H300z"/><path fill="#464744" d="M400 400h100v100H400z"/><path fill="#85766a" d="M500 400h100v100H500z"/><path fill="#987269" d="M600 400h100v100H600z"/><path fill="#8f7455" d="M700 400h100v100H700z"/><path fill="#d8dcda" d="M0 500h100v100H0z"/><path fill="#d3ceca" d="M100 500h100v100H100z"/><path fill="#d9dad2" d="M200 500h100v100H200z"/><path fill="#d4d4d2" d="M300 500h100v100H300z"/><path fill="#d1d2d1" d="M400 500h100v100H400z"/><path fill="#d9d6d2" d="M500 500h100v100H500z"/><path fill="#dadad7" d="M600 500h100v100H600z"/><path fill="#d7d9d3" d="M700 500h100v100H700z"/></svg>