<svg xmlns="http://www.w3.org/2000/svg" viewBox="0 0 800 600"><defs/><path fill="#fde3ea" d="M0 0h100v100H0z"/><path fill="#e2d7d8" d="M100 0h100v100H100z"/><path fill="#f4dfe2" d="M200 0h100v100H200z"/><path fill="#fedbe4" d="M300 0h100v100H300z"/><path fill="#fce7eb" d="M400 0h100v100H400z"/><path fill="#fbdbe3" d="M500 0h100v100H500z"/><path fill="#fbeaed" d="M600 0h100v100H600z"/><path fill="#fbdfe5" d="M700 0h100v100H700z"/><path fill="#f55c84" d="M0 100h100v100H0z"/><path fill="#772218" d="M100 100h100v100H100z"/><path fill="#e81f53" d="M200 100h100v100H200z"/><path fill="#ff0c52" d="M300 100h100v100H300z"/><path fill="#fe306c" d="M400 100h100v100H400z"/><path fill="#ff0146" d="M500 100h100v100H500z"/><path fill="#ff1a5f" d="M600 100h100v100H600z"/><path fill="#ff2160" d="M700 100h100v100H700z"/><path fill="#c67678" d="M0 200h100v100H0z"/><path fill="#8a4c20" d="M100 200h100v100H100z"/><path fill="#a47464" d="M200 200h100v100H200z"/><path fill="#85a265" d="M300 200h100v100H300z"/><path fill="#969157" d="M400 200h100v100H400z"/><path fill="#ae685a" d="M500 200h100v100H500z"/><path fill="#a56455" d="M600 200h100v100H600z"/><path fill="#c36065" d="M700 200h100v100H700z"/><path fill="#82be68" d="M0 300h100v100H0z"/><path fill="#726f1e" d="M100 300h100v100H100z"/><path fill="#70e452" d="M200 300h100v100H200z"/><path fill="#73e545" d="M300 300h100v100H300z"/><path fill="#76f041" d="M400 300h100v100H400z"/><path fill="#72e249" d="M500 300h100v100H500z"/><path fill="#6fdf4b" d="M600 300h100v100H600z"/><path fill="#59eb49" d="M700 300h100v100H700z"/><path fill="#8d954e" d="M0 400h100v100H0z"/><path fill="#a26a21" d="M100 400h100v100H100z"/><path fill="#e4a94a" d="M200 400h100v100H200z"/><path fill="#dac654" d="M300 400h100v100H300z"/><path fill="#d4f461" d="M400 400h100v100H400z"/><path fill="#dcb44e" d="M500 400h100v100H500z"/><path fill="#e7a045" d="M600 400h100v100H600z"/><path fill="#9db943" d="M700 400h100v100H700z"/><path fill="#e5dec6" d="M0 500h100v100H0z"/><path fill="#eeddb7" d="M100 500h100v100H100z"/><path fill="#eee1bd" d="M200 500h100v100H200z"/><path fill="#ecefc0" d="M300 500h100v100H300z"/><path fill="#eafdc3" d="M400 500h100v100H400z"/><path fill="#ece6be" d="M500 500h100v100H500z"/><path fill="#efe0bb" d="M600 500h100v100H600z"/><path fill="#eae0be" d="M700 500h100v100H700z"/></svg>