<svg xmlns="http://www.w3.org/2000/svg" viewBox="0 0 800 600"><defs/><path fill="#dad8d4" d="M0 0h100v100H0z"/><path fill="#b4afaa" d="M100 0h100v100H100z"/><path fill="#d2d0ca" d="M200 0h100v100H200z"/><path fill="#cec8c4" d="M300 0h100v100H300z"/><path fill="#d4cfc8" d="M400 0h100v100H400z"/><path fill="#d5d6d7" d="M500 0h100v100H500z"/><path fill="#d8d8d8" d="M600 0h100v100H600z"/><path fill="#eae9e9" d="M700 0h100v100H700z"/><path fill="#928b83" d="M0 100h100v100H0z"/><path fill="#5b5248" d="M100 100h100v100H100z"/><path fill="#9da0a2" d="M200 100h100v100H200z"/><path fill="#ada7a3" d="M300 100h100v100H300z"/><path fill="#857467" d="M400 100h100v100H400z"/><path fill="#817c73" d="M500 100h100v100H500z"/><path fill="#a0a3a0" d="M600 100h100v100H600z"/><path fill="#d0d3d3" d="M700 100h100v100H700z"/><path fill="#6a5e53" d="M0 200h100v100H0z"/><path fill="#7d7267" d="M100 200h100v100H100z"/><path fill="#9e8c7f" d="M200 200h100v100H200z"/><path fill="#b5a29d" d="M300 200h100v100H300z"/><path fill="#a29188" d="M400 200h100v100H400z"/><path fill="#91827a" d="M500 200h100v100H500z"/><path fill="#b2a298" d="M600 200h100v100H600z"/><path fill="#aba1aa" d="M700 200h100v100H700z"/><path fill="#4f3e2e" d="M0 300h100v100H0z"/><path fill="#867665" d="M100 300h100v100H100z"/><path fill="#819869" d="M200 300h100v100H200z"/><path fill="#4a8134" d="M300 300h100v100H300z"/><path fill="#b7865e" d="M400 300h100v100H400z"/><path fill="#b08668" d="M500 300h100v100H500z"/><path fill="#a0693e" d="M600 300h100v100H600z"/><path fill="#8b6a57" d="M700 300h100v100H700z"/><path fill="#8c7c6c" d="M0 400h100v100H0z"/><path fill="#90a09d" d="M100 400h100v100H100z"/><path fill="#609b9a" d="M200 400h100v100H200z"/><path fill="#627751" d="M300 400h100v100H300z"/><path fill="#a4653e" d="M400 400h100v100H400z"/><path fill="#a16b4b" d="M500 400h100v100H500z"/><path fill="#ae8d75" d="M600 400h100v100H600z"/><path fill="#bdaa99" d="M700 400h100v100H700z"/><path fill="#fff" d="M0 500h100v100H0z"/><path fill="#fafbfa" d="M100 500h100v100H100z"/><path fill="#e6d8d8" d="M200 500h100v100H200z"/><path fill="#e3d4d8" d="M300 500h100v100H300z"/><path fill="#ddd9d7" d="M400 500h100v100H400z"/><path fill="#e9e6e6" d="M500 500h100v100H500z"/><path fill="#f5f4f3" d="M600 500h100v100H600z"/><path fill="#f9f8f8" d="M700 500h100v100H700z"/></svg>