<svg xmlns="http://www.w3.org/2000/svg" viewBox="0 0 800 400"><defs/><path fill="#606671" d="M0 0h100v100H0z"/><path fill="#8e8785" d="M100 0h100v100H100z"/><path fill="#b5afa6" d="M200 0h100v100H200z"/><path fill="#b0a798" d="M300 0h100v100H300z"/><path fill="#a99c8c" d="M400 0h100v100H400z"/><path fill="#b0a48b" d="M500 0h100v100H500z"/><path fill="#797160" d="M600 0h100v100H600z"/><path fill="#191817" d="M700 0h100v100H700z"/><path fill="#585c65" d="M0 100h100v100H0z"/><path fill="#989da2" d="M100 100h100v100H100z"/><path fill="#c2c5cd" d="M200 100h100v100H200z"/><path fill="#b4b5ba" d="M300 100h100v100H300z"/><path fill="#aca9ac" d="M400 100h100v100H400z"/><path fill="#afabab" d="M500 100h100v100H500z"/><path fill="#969084" d="M600 100h100v100H600z"/><path fill="#242121" d="M700 100h100v100H700z"/><path fill="#494c53" d="M0 200h100v100H0z"/><path fill="#949599" d="M100 200h100v100H100z"/><path fill="#c4c6cb" d="M200 200h100v100H200z"/><path fill="#b5b4bc" d="M300 200h100v100H300z"/><path fill="#b3b1b5" d="M400 200h100v100H400z"/><path fill="#b1b0b6" d="M500 200h100v100H500z"/><path fill="#969086" d="M600 200h100v100H600z"/><path fill="#1f1d1c" d="M700 200h100v100H700z"/><path fill="#33353c" d="M0 300h100v100H0z"/><path fill="#85858a" d="M100 300h100v100H100z"/><path fill="#afafb3" d="M200 300h100v100H200z"/><path fill="#a8a7ad" d="M300 300h100v100H300z"/><path fill="#aeacb0" d="M400 300h100v100H400z"/><path fill="#bbb9b6" d="M500 300h100v100H500z"/><path fill="#989289" d="M600 300h100v100H600z"/><path fill="#23201e" d="M700 300h100v100H700z"/></svg>