<svg xmlns="http://www.w3.org/2000/svg" viewBox="0 0 800 1000"><defs/><path fill="#3a3e39" d="M0 0h100v100H0z"/><path fill="#394446" d="M100 0h100v100H100z"/><path fill="#495150" d="M200 0h100v100H200z"/><path fill="#5f5855" d="M300 0h100v100H300z"/><path fill="#4a3836" d="M400 0h100v100H400z"/><path fill="#3a302c" d="M500 0h100v100H500z"/><path fill="#2d2923" d="M600 0h100v100H600z"/><path fill="#322f26" d="M700 0h100v100H700z"/><path fill="#373c37" d="M0 100h100v100H0z"/><path fill="#2d3c3d" d="M100 100h100v100H100z"/><path fill="#2f4e5b" d="M200 100h100v100H200z"/><path fill="#2c4349" d="M300 100h100v100H300z"/><path fill="#3c3c35" d="M400 100h100v100H400z"/><path fill="#4a453a" d="M500 100h100v100H500z"/><path fill="#524d43" d="M600 100h100v100H600z"/><path fill="#83786b" d="M700 100h100v100H700z"/><path fill="#2e2e27" d="M0 200h100v100H0z"/><path fill="#2b312f" d="M100 200h100v100H100z"/><path fill="#303433" d="M200 200h100v100H200z"/><path fill="#3e3c3a" d="M300 200h100v100H300z"/><path fill="#a49586" d="M400 200h100v100H400z"/><path fill="#c4b2a2" d="M500 200h100v100H500z"/><path fill="#c1af9f" d="M600 200h100v100H600z"/><path fill="#bfae9d" d="M700 200h100v100H700z"/><path fill="#565951" d="M0 300h100v100H0z"/><path fill="#1c2a2a" d="M100 300h100v100H100z"/><path fill="#212623" d="M200 300h100v100H200z"/><path fill="#383e3b" d="M300 300h100v100H300z"/><path fill="#787065" d="M400 300h100v100H400z"/><path fill="#696156" d="M500 300h100v100H500z"/><path fill="#786e62" d="M600 300h100v100H600z"/><path fill="#a19483" d="M700 300h100v100H700z"/><path fill="#a09382" d="M0 400h100v100H0z"/><path fill="#6c6455" d="M100 400h100v100H100z"/><path fill="#726b5d" d="M200 400h100v100H200z"/><path fill="#736e62" d="M300 400h100v100H300z"/><path fill="#676056" d="M400 400h100v100H400z"/><path fill="#7c7264" d="M500 400h100v100H500z"/><path fill="#625b4d" d="M600 400h100v100H600z"/><path fill="#938876" d="M700 400h100v100H700z"/><path fill="#ad9e8d" d="M0 500h100v100H0z"/><path fill="#b1ad9c" d="M100 500h100v100H100z"/><path fill="#b1bbab" d="M200 500h100v100H200z"/><path fill="#b4aa96" d="M300 500h100v100H300z"/><path fill="#6a6256" d="M400 500h100v100H400z"/><path fill="#696153" d="M500 500h100v100H500z"/><path fill="#ab9b88" d="M600 500h100v100H600z"/><path fill="#a99a87" d="M700 500h100v100H700z"/><path fill="#a99b8a" d="M0 600h100v100H0z"/><path fill="#a6aa9a" d="M100 600h100v100H100z"/><path fill="#a4ae9e" d="M200 600h100v100H200z"/><path fill="#aa9e8c" d="M300 600h100v100H300z"/><path fill="#6e655a" d="M400 600h100v100H400z"/><path fill="#0c0f09" d="M500 600h100v100H500z"/><path fill="#766c5c" d="M600 600h100v100H600z"/><path fill="#ac9d8a" d="M700 600h100v100H700z"/><path fill="#a89d8b" d="M0 700h100v100H0z"/><path fill="#a8b1a2" d="M100 700h100v100H100z"/><path fill="#a4a898" d="M200 700h100v100H200z"/><path fill="#a89b89" d="M300 700h100v100H300z"/><path fill="#978a7b" d="M400 700h100v100H400z"/><path fill="#5c5549" d="M500 700h100v100H500z"/><path fill="#746a5b" d="M600 700h100v100H600z"/><path fill="#9d8f7d" d="M700 700h100v100H700z"/><path fill="#a5a090" d="M0 800h100v100H0z"/><path fill="#a5b4a6" d="M100 800h100v100H100z"/><path fill="#9da28f" d="M200 800h100v100H200z"/><path fill="#a79a89" d="M300 800h100v100H300z"/><path fill="#a49787" d="M400 800h100v100H400z"/><path fill="#ac9f8d" d="M500 800h100v100H500z"/><path fill="#5d5647" d="M600 800h100v100H600z"/><path fill="#7c7261" d="M700 800h100v100H700z"/><path fill="#a49f8f" d="M0 900h100v100H0z"/><path fill="#a4a798" d="M100 900h100v100H100z"/><path fill="#a79d8b" d="M200 900h100v100H200z"/><path fill="#a99b8a" d="M300 900h100v100H300z"/><path fill="#988c7c" d="M400 900h100v100H400z"/><path fill="#958978" d="M500 900h100v100H500z"/><path fill="#938776" d="M600 900h100v100H600z"/><path fill="#968a78" d="M700 900h100v100H700z"/></svg>