<svg xmlns="http://www.w3.org/2000/svg" viewBox="0 0 800 900"><defs/><path fill="#171925" d="M0 0h100v100H0z"/><path fill="#2c2429" d="M100 0h100v100H100z"/><path fill="#39446b" d="M200 0h100v100H200z"/><path fill="#516391" d="M300 0h100v100H300z"/><path fill="#656e6a" d="M400 0h100v100H400z"/><path fill="#675e66" d="M500 0h100v100H500z"/><path fill="#4d5782" d="M600 0h100v100H600z"/><path fill="#2b324a" d="M700 0h100v100H700z"/><path fill="#0d0909" d="M0 100h100v100H0z"/><path fill="#67472c" d="M100 100h100v100H100z"/><path fill="#3c3f55" d="M200 100h100v100H200z"/><path fill="#5a6e9b" d="M300 100h100v100H300z"/><path fill="#6d684e" d="M400 100h100v100H400z"/><path fill="#8b6852" d="M500 100h100v100H500z"/><path fill="#5e647c" d="M600 100h100v100H600z"/><path fill="#2c3752" d="M700 100h100v100H700z"/><path fill="#1b140f" d="M0 200h100v100H0z"/><path fill="#553b29" d="M100 200h100v100H100z"/><path fill="#1f1819" d="M200 200h100v100H200z"/><path fill="#37486c" d="M300 200h100v100H300z"/><path fill="#5d5b6b" d="M400 200h100v100H400z"/><path fill="#625b5f" d="M500 200h100v100H500z"/><path fill="#495c7f" d="M600 200h100v100H600z"/><path fill="#273254" d="M700 200h100v100H700z"/><path fill="#1b150f" d="M0 300h100v100H0z"/><path fill="#644931" d="M100 300h100v100H100z"/><path fill="#2b242a" d="M200 300h100v100H200z"/><path fill="#0e1322" d="M300 300h100v100H300z"/><path fill="#5a6171" d="M400 300h100v100H400z"/><path fill="#828994" d="M500 300h100v100H500z"/><path fill="#c2c3c1" d="M600 300h100v100H600z"/><path fill="#5f5f66" d="M700 300h100v100H700z"/><path fill="#070606" d="M0 400h100v100H0z"/><path fill="#2c251f" d="M100 400h100v100H100z"/><path fill="#221a1a" d="M200 400h100v100H200z"/><path fill="#a49b96" d="M300 400h100v100H300z"/><path fill="#a08f81" d="M400 400h100v100H400z"/><path fill="#5f4736" d="M500 400h100v100H500z"/><path fill="#a28f80" d="M600 400h100v100H600z"/><path fill="#6a6664" d="M700 400h100v100H700z"/><path fill="#151312" d="M0 500h100v100H0z"/><path fill="#1c1919" d="M100 500h100v100H100z"/><path fill="#130e0f" d="M200 500h100v100H200z"/><path fill="#b7b1ab" d="M300 500h100v100H300z"/><path fill="#605246" d="M400 500h100v100H400z"/><path fill="#3c2612" d="M500 500h100v100H500z"/><path fill="#574841" d="M600 500h100v100H600z"/><path fill="#625e5a" d="M700 500h100v100H700z"/><path fill="#232122" d="M0 600h100v100H0z"/><path fill="#1a151a" d="M100 600h100v100H100z"/><path d="M200 600h100v100H200z"/><path fill="#6f6a71" d="M300 600h100v100H300z"/><path fill="#655f65" d="M400 600h100v100H400z"/><path fill="#4a4454" d="M500 600h100v100H500z"/><path fill="#777972" d="M600 600h100v100H600z"/><path fill="#414556" d="M700 600h100v100H700z"/><path fill="#383429" d="M0 700h100v100H0z"/><path fill="#322b23" d="M100 700h100v100H100z"/><path fill="#000003" d="M200 700h100v100H200z"/><path fill="#66634a" d="M300 700h100v100H300z"/><path fill="#5d72a4" d="M400 700h100v100H400z"/><path fill="#52658e" d="M500 700h100v100H500z"/><path fill="#aaa863" d="M600 700h100v100H600z"/><path fill="#3a3d3a" d="M700 700h100v100H700z"/><path fill="#504a10" d="M0 800h100v100H0z"/><path fill="#5b501a" d="M100 800h100v100H100z"/><path fill="#08030e" d="M200 800h100v100H200z"/><path fill="#ccbb2d" d="M300 800h100v100H300z"/><path fill="#d6cc49" d="M400 800h100v100H400z"/><path fill="#ddcc39" d="M500 800h100v100H500z"/><path fill="#edda3a" d="M600 800h100v100H600z"/><path fill="#675e1e" d="M700 800h100v100H700z"/></svg>