<svg xmlns="http://www.w3.org/2000/svg" viewBox="0 0 800 600"><defs/><path fill="#63625e" d="M0 0h100v100H0z"/><path fill="#b1afab" d="M100 0h100v100H100z"/><path fill="#bcbab6" d="M200 0h100v100H200z"/><path fill="#8a8987" d="M300 0h100v100H300z"/><path fill="#818180" d="M400 0h100v100H400z"/><path fill="#9a9a9a" d="M500 0h100v100H500z"/><path fill="#8e8e8e" d="M600 0h100v100H600z"/><path fill="#9e9d9a" d="M700 0h100v100H700z"/><path fill="#6d6c68" d="M0 100h100v100H0z"/><path fill="#a09f9b" d="M100 100h100v100H100z"/><path fill="#8d8a88" d="M200 100h100v100H200z"/><path fill="#777574" d="M300 100h100v100H300z"/><path fill="#807d7e" d="M400 100h100v100H400z"/><path fill="#939090" d="M500 100h100v100H500z"/><path fill="#959596" d="M600 100h100v100H600z"/><path fill="#8a8a88" d="M700 100h100v100H700z"/><path fill="#6a6966" d="M0 200h100v100H0z"/><path fill="#8b8a87" d="M100 200h100v100H100z"/><path fill="#999693" d="M200 200h100v100H200z"/><path fill="#716d6c" d="M300 200h100v100H300z"/><path fill="#817d7c" d="M400 200h100v100H400z"/><path fill="#989694" d="M500 200h100v100H500z"/><path fill="#888785" d="M600 200h100v100H600z"/><path fill="#9b9a98" d="M700 200h100v100H700z"/><path fill="#605f5c" d="M0 300h100v100H0z"/><path fill="#858381" d="M100 300h100v100H100z"/><path fill="#8e8c8a" d="M200 300h100v100H200z"/><path fill="#7d7b79" d="M300 300h100v100H300z"/><path fill="#949391" d="M400 300h100v100H400z"/><path fill="#a5a4a3" d="M500 300h100v100H500z"/><path fill="#727170" d="M600 300h100v100H600z"/><path fill="#7d7c7b" d="M700 300h100v100H700z"/><path fill="#53524e" d="M0 400h100v100H0z"/><path fill="#747370" d="M100 400h100v100H100z"/><path fill="#6e6d6c" d="M200 400h100v100H200z"/><path fill="#727271" d="M300 400h100v100H300z"/><path fill="#797876" d="M400 400h100v100H400z"/><path fill="#898a8a" d="M500 400h100v100H500z"/><path fill="#828282" d="M600 400h100v100H600z"/><path fill="#777675" d="M700 400h100v100H700z"/><path fill="#292724" d="M0 500h100v100H0z"/><path fill="#41403c" d="M100 500h100v100H100z"/><path fill="#504f4c" d="M200 500h100v100H200z"/><path fill="#50504e" d="M300 500h100v100H300z"/><path fill="#444442" d="M400 500h100v100H400z"/><path fill="#71706e" d="M500 500h100v100H500z"/><path fill="#7e7d7a" d="M600 500h100v100H600z"/><path fill="#6b6a67" d="M700 500h100v100H700z"/></svg>