<svg xmlns="http://www.w3.org/2000/svg" viewBox="0 0 800 700"><defs/><path fill="#181d17" d="M0 0h100v100H0z"/><path fill="#121c0d" d="M100 0h100v100H100z"/><path fill="#142310" d="M200 0h100v100H200z"/><path fill="#192416" d="M300 0h100v100H300z"/><path fill="#212c1d" d="M400 0h100v100H400z"/><path fill="#15210f" d="M500 0h100v100H500z"/><path fill="#0f160f" d="M600 0h100v100H600z"/><path fill="#201e2a" d="M700 0h100v100H700z"/><path fill="#39443c" d="M0 100h100v100H0z"/><path fill="#485648" d="M100 100h100v100H100z"/><path fill="#5d6660" d="M200 100h100v100H200z"/><path fill="#646d67" d="M300 100h100v100H300z"/><path fill="#697378" d="M400 100h100v100H400z"/><path fill="#98a0b4" d="M500 100h100v100H500z"/><path fill="#303b2b" d="M600 100h100v100H600z"/><path fill="#0a1505" d="M700 100h100v100H700z"/><path fill="#484f53" d="M0 200h100v100H0z"/><path fill="#5a6759" d="M100 200h100v100H100z"/><path fill="#606156" d="M200 200h100v100H200z"/><path fill="#888b8f" d="M300 200h100v100H300z"/><path fill="#91938d" d="M400 200h100v100H400z"/><path fill="#a8acb6" d="M500 200h100v100H500z"/><path fill="#949caf" d="M600 200h100v100H600z"/><path fill="#38453a" d="M700 200h100v100H700z"/><path fill="#353f36" d="M0 300h100v100H0z"/><path fill="#a19ca6" d="M100 300h100v100H100z"/><path fill="#787c70" d="M200 300h100v100H200z"/><path fill="#6f716c" d="M300 300h100v100H300z"/><path fill="#626160" d="M400 300h100v100H400z"/><path fill="#67635f" d="M500 300h100v100H500z"/><path fill="#6d6468" d="M600 300h100v100H600z"/><path fill="#6f7590" d="M700 300h100v100H700z"/><path fill="#232e23" d="M0 400h100v100H0z"/><path fill="#98959e" d="M100 400h100v100H100z"/><path fill="#87908a" d="M200 400h100v100H200z"/><path fill="#3b4536" d="M300 400h100v100H300z"/><path fill="#646c7e" d="M400 400h100v100H400z"/><path fill="#656467" d="M500 400h100v100H500z"/><path fill="#4f4b4e" d="M600 400h100v100H600z"/><path fill="#313a49" d="M700 400h100v100H700z"/><path fill="#132313" d="M0 500h100v100H0z"/><path fill="#6b6a74" d="M100 500h100v100H100z"/><path fill="#787879" d="M200 500h100v100H200z"/><path fill="#535354" d="M300 500h100v100H300z"/><path fill="#51515f" d="M400 500h100v100H400z"/><path fill="#4b4d61" d="M500 500h100v100H500z"/><path fill="#4e5072" d="M600 500h100v100H600z"/><path fill="#243032" d="M700 500h100v100H700z"/><path fill="#10210d" d="M0 600h100v100H0z"/><path fill="#414457" d="M100 600h100v100H100z"/><path fill="#484969" d="M200 600h100v100H200z"/><path fill="#353757" d="M300 600h100v100H300z"/><path fill="#373a60" d="M400 600h100v100H400z"/><path fill="#3a3c67" d="M500 600h100v100H500z"/><path fill="#34385b" d="M600 600h100v100H600z"/><path fill="#152615" d="M700 600h100v100H700z"/></svg>