<svg xmlns="http://www.w3.org/2000/svg" viewBox="0 0 800 600"><defs/><path fill="#81858f" d="M0 0h100v100H0z"/><path fill="#80848b" d="M100 0h100v100H100z"/><path fill="#6e7a77" d="M200 0h100v100H200z"/><path fill="#798279" d="M300 0h100v100H300z"/><path fill="#8c8c8a" d="M400 0h100v100H400z"/><path fill="#7e8380" d="M500 0h100v100H500z"/><path fill="#7d857e" d="M600 0h100v100H600z"/><path fill="#7d7e86" d="M700 0h100v100H700z"/><path fill="#818695" d="M0 100h100v100H0z"/><path fill="#8c8494" d="M100 100h100v100H100z"/><path fill="#8f93a7" d="M200 100h100v100H200z"/><path fill="#949daf" d="M300 100h100v100H300z"/><path fill="#96a0b1" d="M400 100h100v100H400z"/><path fill="#7b98a9" d="M500 100h100v100H500z"/><path fill="#859eb2" d="M600 100h100v100H600z"/><path fill="#858f95" d="M700 100h100v100H700z"/><path fill="#7b8aa3" d="M0 200h100v100H0z"/><path fill="#969c91" d="M100 200h100v100H100z"/><path fill="#9fb4b8" d="M200 200h100v100H200z"/><path fill="#a1b5a7" d="M300 200h100v100H300z"/><path fill="#abc3b6" d="M400 200h100v100H400z"/><path fill="#acc2c1" d="M500 200h100v100H500z"/><path fill="#9fa7ad" d="M600 200h100v100H600z"/><path fill="#6e7372" d="M700 200h100v100H700z"/><path fill="#9a99af" d="M0 300h100v100H0z"/><path fill="#83909e" d="M100 300h100v100H100z"/><path fill="#959a9b" d="M200 300h100v100H200z"/><path fill="#b2a9ad" d="M300 300h100v100H300z"/><path fill="#b2ad9d" d="M400 300h100v100H400z"/><path fill="#b9b19b" d="M500 300h100v100H500z"/><path fill="#a5a089" d="M600 300h100v100H600z"/><path fill="#676554" d="M700 300h100v100H700z"/><path fill="#8e9aa9" d="M0 400h100v100H0z"/><path fill="#86928f" d="M100 400h100v100H100z"/><path fill="#aaa3a0" d="M200 400h100v100H200z"/><path fill="#a29693" d="M300 400h100v100H300z"/><path fill="#b39d86" d="M400 400h100v100H400z"/><path fill="#c4a88b" d="M500 400h100v100H500z"/><path fill="#a99b7f" d="M600 400h100v100H600z"/><path fill="#75684e" d="M700 400h100v100H700z"/><path fill="#6b718f" d="M0 500h100v100H0z"/><path fill="#7f8884" d="M100 500h100v100H100z"/><path fill="#8c876e" d="M200 500h100v100H200z"/><path fill="#8b775f" d="M300 500h100v100H300z"/><path fill="#997f64" d="M400 500h100v100H400z"/><path fill="#997f61" d="M500 500h100v100H500z"/><path fill="#826c5b" d="M600 500h100v100H600z"/><path fill="#68624f" d="M700 500h100v100H700z"/></svg>