<svg xmlns="http://www.w3.org/2000/svg" viewBox="0 0 800 500"><defs/><path fill="#f5f5f5" d="M0 0h100v100H0z"/><path fill="#f0f0f0" d="M100 0h100v100H100z"/><path fill="#f1f1f1" d="M200 0h100v100H200z"/><path fill="#e9e9e9" d="M300 0h100v100H300z"/><path fill="#e9e9e8" d="M400 0h100v100H400z"/><path fill="#efefef" d="M500 0h100v100H500z"/><path fill="#e5e4e5" d="M600 0h100v100H600z"/><path fill="#eeeded" d="M700 0h100v100H700z"/><path fill="#c5c4c5" d="M0 100h100v100H0z"/><path fill="#adadaf" d="M100 100h100v100H100z"/><path fill="#bebdbf" d="M200 100h100v100H200z"/><path fill="#a9a9aa" d="M300 100h100v100H300z"/><path fill="#a4a4a5" d="M400 100h100v100H400z"/><path fill="#b7b7b8" d="M500 100h100v100H500z"/><path fill="#abaaac" d="M600 100h100v100H600z"/><path fill="#c5c5c5" d="M700 100h100v100H700z"/><path fill="#d1d1d1" d="M0 200h100v100H0z"/><path fill="#b2b1b3" d="M100 200h100v100H100z"/><path fill="#9b9a9c" d="M200 200h100v100H200z"/><path fill="#8b8a8d" d="M300 200h100v100H300z"/><path fill="#a2a2a4" d="M400 200h100v100H400zm100 0h100v100H500z"/><path fill="#abaaac" d="M600 200h100v100H600z"/><path fill="#cfcfd0" d="M700 200h100v100H700z"/><path fill="#bdbcbe" d="M0 300h100v100H0z"/><path fill="#8f8e91" d="M100 300h100v100H100z"/><path fill="#a1a2a3" d="M200 300h100v100H200z"/><path fill="#9a9a9c" d="M300 300h100v100H300z"/><path fill="#99989a" d="M400 300h100v100H400z"/><path fill="#a4a4a5" d="M500 300h100v100H500z"/><path fill="#b4b3b5" d="M600 300h100v100H600z"/><path fill="#cbcacb" d="M700 300h100v100H700z"/><path fill="#dbdadb" d="M0 400h100v100H0z"/><path fill="#c3c2c3" d="M100 400h100v100H100z"/><path fill="#dddcdd" d="M200 400h100v100H200z"/><path fill="#d9d9d9" d="M300 400h100v100H300z"/><path fill="#d6d5d6" d="M400 400h100v100H400z"/><path fill="#dadadb" d="M500 400h100v100H500z"/><path fill="#d5d5d6" d="M600 400h100v100H600z"/><path fill="#d6d6d6" d="M700 400h100v100H700z"/></svg>