<svg xmlns="http://www.w3.org/2000/svg" viewBox="0 0 800 500"><defs/><path fill="#8e9096" d="M0 0h100v100H0z"/><path fill="#757680" d="M100 0h100v100H100z"/><path fill="#6c707b" d="M200 0h100v100H200z"/><path fill="#505563" d="M300 0h100v100H300z"/><path fill="#797879" d="M400 0h100v100H400z"/><path fill="#898480" d="M500 0h100v100H500z"/><path fill="#797070" d="M600 0h100v100H600z"/><path fill="#716766" d="M700 0h100v100H700z"/><path fill="#a6a07e" d="M0 100h100v100H0z"/><path fill="#758089" d="M100 100h100v100H100z"/><path fill="#55638c" d="M200 100h100v100H200z"/><path fill="#404e83" d="M300 100h100v100H300z"/><path fill="#baabbb" d="M400 100h100v100H400z"/><path fill="#e9d0d6" d="M500 100h100v100H500z"/><path fill="#bda2aa" d="M600 100h100v100H600z"/><path fill="#c1a0b0" d="M700 100h100v100H700z"/><path fill="#b2a87e" d="M0 200h100v100H0z"/><path fill="#8b9f90" d="M100 200h100v100H100z"/><path fill="#5b6277" d="M200 200h100v100H200z"/><path fill="#4c6092" d="M300 200h100v100H300z"/><path fill="#7d7091" d="M400 200h100v100H400z"/><path fill="#6a556a" d="M500 200h100v100H500z"/><path fill="#41383f" d="M600 200h100v100H600z"/><path fill="#7e5e89" d="M700 200h100v100H700z"/><path fill="#9d9475" d="M0 300h100v100H0z"/><path fill="#8d9087" d="M100 300h100v100H100z"/><path fill="#7a797d" d="M200 300h100v100H200z"/><path fill="#878c92" d="M300 300h100v100H300z"/><path fill="#979392" d="M400 300h100v100H400z"/><path fill="#7e797c" d="M500 300h100v100H500z"/><path fill="#a19d95" d="M600 300h100v100H600z"/><path fill="#82667a" d="M700 300h100v100H700z"/><path fill="#8b847e" d="M0 400h100v100H0z"/><path fill="#88756d" d="M100 400h100v100H100z"/><path fill="#b4afaa" d="M200 400h100v100H200z"/><path fill="#e5e4e3" d="M300 400h100v100H300z"/><path fill="#d2d0cf" d="M400 400h100v100H400z"/><path fill="#e2e2e3" d="M500 400h100v100H500z"/><path fill="#efede8" d="M600 400h100v100H600z"/><path fill="#d2cece" d="M700 400h100v100H700z"/></svg>