<svg xmlns="http://www.w3.org/2000/svg" viewBox="0 0 800 600"><defs/><path fill="#fcf8f3" d="M0 0h100v100H0z"/><path fill="#fbf5f0" d="M100 0h100v100H100z"/><path fill="#f9e9e3" d="M200 0h100v100H200z"/><path fill="#f9e9e2" d="M300 0h100v100H300z"/><path fill="#f8eae2" d="M400 0h100v100H400z"/><path fill="#f7e8e2" d="M500 0h100v100H500z"/><path fill="#f5e4dc" d="M600 0h100v100H600z"/><path fill="#fbf3ed" d="M700 0h100v100H700z"/><path fill="#f3e1d1" d="M0 100h100v100H0z"/><path fill="#ebcdb7" d="M100 100h100v100H100z"/><path fill="#e1b08f" d="M200 100h100v100H200z"/><path fill="#f3d0bb" d="M300 100h100v100H300z"/><path fill="#f4ccb7" d="M400 100h100v100H400z"/><path fill="#e2ab93" d="M500 100h100v100H500z"/><path fill="#d19375" d="M600 100h100v100H600z"/><path fill="#eacbb6" d="M700 100h100v100H700z"/><path fill="#f3e3d4" d="M0 200h100v100H0z"/><path fill="#ecc7af" d="M100 200h100v100H100z"/><path fill="#d3af7e" d="M200 200h100v100H200z"/><path fill="#e4d1b5" d="M300 200h100v100H300z"/><path fill="#ead8ca" d="M400 200h100v100H400z"/><path fill="#d9a88e" d="M500 200h100v100H500z"/><path fill="#d89573" d="M600 200h100v100H600z"/><path fill="#efcfbd" d="M700 200h100v100H700z"/><path fill="#f4e5d8" d="M0 300h100v100H0z"/><path fill="#e4bca0" d="M100 300h100v100H100z"/><path fill="#c8ab95" d="M200 300h100v100H200z"/><path fill="#d1b59a" d="M300 300h100v100H300z"/><path fill="#d7c5b5" d="M400 300h100v100H400z"/><path fill="#d5baac" d="M500 300h100v100H500z"/><path fill="#afa893" d="M600 300h100v100H600z"/><path fill="#97ae94" d="M700 300h100v100H700z"/><path fill="#f1dbc8" d="M0 400h100v100H0z"/><path fill="#d0b08a" d="M100 400h100v100H100z"/><path fill="#d8c3b5" d="M200 400h100v100H200z"/><path fill="#d0bfb9" d="M300 400h100v100H300z"/><path fill="#d8d4cf" d="M400 400h100v100H400z"/><path fill="#e8e1db" d="M500 400h100v100H500z"/><path fill="#c8cbbc" d="M600 400h100v100H600z"/><path fill="#a3ad94" d="M700 400h100v100H700z"/><path fill="#f7e8de" d="M0 500h100v100H0z"/><path fill="#f4e0d6" d="M100 500h100v100H100z"/><path fill="#f5ebe3" d="M200 500h100v100H200z"/><path fill="#f4e9e1" d="M300 500h100v100H300z"/><path fill="#f0ece8" d="M400 500h100v100H400z"/><path fill="#f5ece6" d="M500 500h100v100H500z"/><path fill="#f8efea" d="M600 500h100v100H600z"/><path fill="#f9ede6" d="M700 500h100v100H700z"/></svg>