<svg xmlns="http://www.w3.org/2000/svg" viewBox="0 0 800 600"><defs/><path fill="#d0cfd0" d="M0 0h100v100H0z"/><path fill="#c9cdcd" d="M100 0h100v100H100z"/><path fill="#d8e5e5" d="M200 0h100v100H200z"/><path fill="#d3d9d9" d="M300 0h100v100H300z"/><path fill="#ccc8c7" d="M400 0h100v100H400z"/><path fill="#cfcac6" d="M500 0h100v100H500z"/><path fill="#dad7c9" d="M600 0h100v100H600z"/><path fill="#dde1db" d="M700 0h100v100H700z"/><path fill="#606764" d="M0 100h100v100H0z"/><path fill="#3f4642" d="M100 100h100v100H100z"/><path fill="#848d7a" d="M200 100h100v100H200z"/><path fill="#5b564f" d="M300 100h100v100H300z"/><path fill="#38302f" d="M400 100h100v100H400z"/><path fill="#35302b" d="M500 100h100v100H500z"/><path fill="#767049" d="M600 100h100v100H600z"/><path fill="#a8aa8a" d="M700 100h100v100H700z"/><path fill="#767b77" d="M0 200h100v100H0z"/><path fill="#333331" d="M100 200h100v100H100z"/><path fill="#47443a" d="M200 200h100v100H200z"/><path fill="#313231" d="M300 200h100v100H300z"/><path fill="#292d2a" d="M400 200h100v100H400z"/><path fill="#2d2624" d="M500 200h100v100H500z"/><path fill="#5e553c" d="M600 200h100v100H600z"/><path fill="#b0a280" d="M700 200h100v100H700z"/><path fill="#6b6e6f" d="M0 300h100v100H0z"/><path fill="#373535" d="M100 300h100v100H100z"/><path fill="#413e39" d="M200 300h100v100H200z"/><path fill="#544e4b" d="M300 300h100v100H300z"/><path fill="#7e5d4d" d="M400 300h100v100H400z"/><path fill="#7e5c4a" d="M500 300h100v100H500z"/><path fill="#67493b" d="M600 300h100v100H600z"/><path fill="#786d60" d="M700 300h100v100H700z"/><path fill="#5d5f59" d="M0 400h100v100H0z"/><path fill="#323028" d="M100 400h100v100H100z"/><path fill="#4d493d" d="M200 400h100v100H200z"/><path fill="#716150" d="M300 400h100v100H300z"/><path fill="#7d6253" d="M400 400h100v100H400z"/><path fill="#674e43" d="M500 400h100v100H500z"/><path fill="#754e43" d="M600 400h100v100H600z"/><path fill="#766e6c" d="M700 400h100v100H700z"/><path fill="#d5d5ca" d="M0 500h100v100H0z"/><path fill="#d1cfc0" d="M100 500h100v100H100z"/><path fill="#d0cdc3" d="M200 500h100v100H200z"/><path fill="#d1cdbe" d="M300 500h100v100H300z"/><path fill="#c2bebb" d="M400 500h100v100H400z"/><path fill="#b8b6b6" d="M500 500h100v100H500z"/><path fill="#bcbdbf" d="M600 500h100v100H600z"/><path fill="#d9d9d9" d="M700 500h100v100H700z"/></svg>