<svg xmlns="http://www.w3.org/2000/svg" viewBox="0 0 800 500"><defs/><path fill="#cecbc2" d="M0 0h100v100H0z"/><path fill="#9a958c" d="M100 0h100v100H100z"/><path fill="#99978b" d="M200 0h100v100H200z"/><path fill="#c9cdc9" d="M300 0h100v100H300z"/><path fill="#e2e1dc" d="M400 0h100v100H400z"/><path fill="#e1e1dd" d="M500 0h100v100H500z"/><path fill="#dddad0" d="M600 0h100v100H600z"/><path fill="#dfddd0" d="M700 0h100v100H700z"/><path fill="#b7afa8" d="M0 100h100v100H0z"/><path fill="#685f56" d="M100 100h100v100H100z"/><path fill="#393a36" d="M200 100h100v100H200z"/><path fill="#b6b9b9" d="M300 100h100v100H300z"/><path fill="#e3eff8" d="M400 100h100v100H400z"/><path fill="#e0ecef" d="M500 100h100v100H500z"/><path fill="#a4aca0" d="M600 100h100v100H600z"/><path fill="#cecabc" d="M700 100h100v100H700z"/><path fill="#afaa9e" d="M0 200h100v100H0z"/><path fill="#5e5d58" d="M100 200h100v100H100z"/><path fill="#424542" d="M200 200h100v100H200z"/><path fill="#8d908b" d="M300 200h100v100H300z"/><path fill="#d1cfce" d="M400 200h100v100H400z"/><path fill="#dee7e3" d="M500 200h100v100H500z"/><path fill="#8a8d76" d="M600 200h100v100H600z"/><path fill="#a4a69c" d="M700 200h100v100H700z"/><path fill="#aaa69a" d="M0 300h100v100H0z"/><path fill="#5a5548" d="M100 300h100v100H100z"/><path fill="#685b4b" d="M200 300h100v100H200z"/><path fill="#806c57" d="M300 300h100v100H300z"/><path fill="#8c7f75" d="M400 300h100v100H400z"/><path fill="#727671" d="M500 300h100v100H500z"/><path fill="#7d6663" d="M600 300h100v100H600z"/><path fill="#83877e" d="M700 300h100v100H700z"/><path fill="#bcb5ae" d="M0 400h100v100H0z"/><path fill="#a38f7e" d="M100 400h100v100H100z"/><path fill="#a0907f" d="M200 400h100v100H200z"/><path fill="#a39f94" d="M300 400h100v100H300z"/><path fill="#afa7a8" d="M400 400h100v100H400z"/><path fill="#919696" d="M500 400h100v100H500z"/><path fill="#9b938e" d="M600 400h100v100H600z"/><path fill="#9aa4a2" d="M700 400h100v100H700z"/></svg>