<svg xmlns="http://www.w3.org/2000/svg" viewBox="0 0 800 500"><defs/><path fill="#c5c5c5" d="M0 0h100v100H0z"/><path fill="#aaa" d="M100 0h100v100H100z"/><path fill="#d6d6d6" d="M200 0h100v100H200z"/><path fill="#c3c3c3" d="M300 0h100v100H300z"/><path fill="#c1c1c1" d="M400 0h100v100H400z"/><path fill="#cdcdcd" d="M500 0h100v100H500z"/><path fill="#e6e6e6" d="M600 0h100v100H600z"/><path fill="#e5e5e5" d="M700 0h100v100H700z"/><path fill="#d3d3d3" d="M0 100h100v100H0z"/><path fill="#a8a8a8" d="M100 100h100v100H100z"/><path fill="#dbdbdb" d="M200 100h100v100H200z"/><path fill="#e8e8e8" d="M300 100h100v100H300z"/><path fill="#d7d7d7" d="M400 100h100v100H400z"/><path fill="#afafaf" d="M500 100h100v100H500z"/><path fill="#bfbfbf" d="M600 100h100v100H600z"/><path fill="#e0e0e0" d="M700 100h100v100H700z"/><path fill="#d7d7d7" d="M0 200h100v100H0z"/><path fill="#bbb" d="M100 200h100v100H100z"/><path fill="#ebebeb" d="M200 200h100v100H200z"/><path fill="#cfcfcf" d="M300 200h100v100H300z"/><path fill="#f6f6f6" d="M400 200h100v100H400z"/><path fill="#e1e1e1" d="M500 200h100v100H500z"/><path fill="#cdcdcd" d="M600 200h100v100H600z"/><path fill="#e9e9e9" d="M700 200h100v100H700z"/><path fill="#c6c6c6" d="M0 300h100v100H0z"/><path fill="#c3c3c3" d="M100 300h100v100H100z"/><path fill="#f4f4f4" d="M200 300h100v100H200z"/><path fill="#cacaca" d="M300 300h100v100H300z"/><path fill="#e9e9e9" d="M400 300h100v100H400z"/><path fill="#f7f7f7" d="M500 300h100v100H500z"/><path fill="#f2f2f2" d="M600 300h100v100H600z"/><path fill="#ececec" d="M700 300h100v100H700z"/><path fill="#c2c2c2" d="M0 400h100v100H0z"/><path fill="#e6e6e6" d="M100 400h100v100H100z"/><path fill="#e7e7e7" d="M200 400h100v100H200z"/><path fill="#d9d9d9" d="M300 400h100v100H300z"/><path fill="#dadada" d="M400 400h100v100H400z"/><path fill="#b9b9b9" d="M500 400h100v100H500z"/><path fill="#c7c7c7" d="M600 400h100v100H600z"/><path fill="#dfdfdf" d="M700 400h100v100H700z"/></svg>