<svg xmlns="http://www.w3.org/2000/svg" viewBox="0 0 800 500"><defs/><path fill="#e8c675" d="M0 0h100v100H0z"/><path fill="#ddc6a6" d="M100 0h100v100H100z"/><path fill="#dac6b5" d="M200 0h100v100H200z"/><path fill="#e8c88f" d="M300 0h100v100H300z"/><path fill="#dec08c" d="M400 0h100v100H400z"/><path fill="#e3bc77" d="M500 0h100v100H500z"/><path fill="#eeb730" d="M600 0h100v100H600z"/><path fill="#d6c580" d="M700 0h100v100H700z"/><path fill="#ebbc5f" d="M0 100h100v100H0z"/><path fill="#cfc1ab" d="M100 100h100v100H100z"/><path fill="#c6d1eb" d="M200 100h100v100H200z"/><path fill="#8e9ac0" d="M300 100h100v100H300z"/><path fill="#b6caec" d="M400 100h100v100H400z"/><path fill="#b0cb95" d="M500 100h100v100H500z"/><path fill="#e0c81f" d="M600 100h100v100H600z"/><path fill="#e2d08f" d="M700 100h100v100H700z"/><path fill="#eaba5a" d="M0 200h100v100H0z"/><path fill="#bcb291" d="M100 200h100v100H100z"/><path fill="#bda277" d="M200 200h100v100H200z"/><path fill="#a6688e" d="M300 200h100v100H300z"/><path fill="#d38b8c" d="M400 200h100v100H400z"/><path fill="#95aca1" d="M500 200h100v100H500z"/><path fill="#9da741" d="M600 200h100v100H600z"/><path fill="#e5ddc1" d="M700 200h100v100H700z"/><path fill="#e5c580" d="M0 300h100v100H0z"/><path fill="#888ba5" d="M100 300h100v100H100z"/><path fill="#c76b53" d="M200 300h100v100H200z"/><path fill="#f79394" d="M300 300h100v100H300z"/><path fill="#e5c8cc" d="M400 300h100v100H400z"/><path fill="#9e7295" d="M500 300h100v100H500z"/><path fill="#081665" d="M600 300h100v100H600z"/><path fill="#9fa9ad" d="M700 300h100v100H700z"/><path fill="#c08965" d="M0 400h100v100H0z"/><path fill="#a65a55" d="M100 400h100v100H100z"/><path fill="#d44f1a" d="M200 400h100v100H200z"/><path fill="#d7613b" d="M300 400h100v100H300z"/><path fill="#c1868b" d="M400 400h100v100H400z"/><path fill="#b67085" d="M500 400h100v100H500z"/><path fill="#64488d" d="M600 400h100v100H600z"/><path fill="#7270a9" d="M700 400h100v100H700z"/></svg>