<svg xmlns="http://www.w3.org/2000/svg" viewBox="0 0 800 400"><defs/><path fill="#52becf" d="M0 0h100v100H0z"/><path fill="#23b1cb" d="M100 0h100v100H100z"/><path fill="#b4a67a" d="M200 0h100v100H200z"/><path fill="#f88f34" d="M300 0h100v100H300z"/><path fill="#e58e3d" d="M400 0h100v100H400z"/><path fill="#e78d3c" d="M500 0h100v100H500z"/><path fill="#de6e2e" d="M600 0h100v100H600z"/><path fill="#eb7d4c" d="M700 0h100v100H700z"/><path fill="#59a4a8" d="M0 100h100v100H0z"/><path fill="#569fa5" d="M100 100h100v100H100z"/><path fill="#7aa4a6" d="M200 100h100v100H200z"/><path fill="#a79f99" d="M300 100h100v100H300z"/><path fill="#c1c9c7" d="M400 100h100v100H400z"/><path fill="#cdd1d1" d="M500 100h100v100H500z"/><path fill="#c6c5bf" d="M600 100h100v100H600z"/><path fill="#cbbdb4" d="M700 100h100v100H700z"/><path fill="#a3cccd" d="M0 200h100v100H0z"/><path fill="#a1cac9" d="M100 200h100v100H100z"/><path fill="#aecbcf" d="M200 200h100v100H200z"/><path fill="#d6d6db" d="M300 200h100v100H300z"/><path fill="#dae5e9" d="M400 200h100v100H400z"/><path fill="#e0e5e8" d="M500 200h100v100H500z"/><path fill="#dce5e6" d="M600 200h100v100H600z"/><path fill="#d8e3e4" d="M700 200h100v100H700z"/><path fill="#f8f3f3" d="M0 300h100v100H0z"/><path fill="#f7f0eb" d="M100 300h100v100H100z"/><path fill="#d4dada" d="M200 300h100v100H200z"/><path fill="#c6c7c7" d="M300 300h100v100H300z"/><path fill="#b4bfc3" d="M400 300h100v100H400z"/><path fill="#a4a4a5" d="M500 300h100v100H500z"/><path fill="#9aafb2" d="M600 300h100v100H600z"/><path fill="#799a9f" d="M700 300h100v100H700z"/></svg>