<svg xmlns="http://www.w3.org/2000/svg" viewBox="0 0 800 400"><defs/><path fill="#e38f4d" d="M0 0h100v100H0z"/><path fill="#bcbeac" d="M100 0h100v100H100z"/><path fill="#cedbdf" d="M200 0h100v100H200z"/><path fill="#c3c2be" d="M300 0h100v100H300z"/><path fill="#b4b9ba" d="M400 0h100v100H400z"/><path fill="#9cbbda" d="M500 0h100v100H500z"/><path fill="#a7bdd3" d="M600 0h100v100H600z"/><path fill="#4ebccc" d="M700 0h100v100H700z"/><path fill="#dca15d" d="M0 100h100v100H0z"/><path fill="#b5bfb4" d="M100 100h100v100H100z"/><path fill="#b6b4b1" d="M200 100h100v100H200z"/><path fill="#aca59e" d="M300 100h100v100H300z"/><path fill="#b8c2c8" d="M400 100h100v100H400z"/><path fill="#62bcdc" d="M500 100h100v100H500z"/><path fill="#7abdd4" d="M600 100h100v100H600z"/><path fill="#5d8f91" d="M700 100h100v100H700z"/><path fill="#d2c28b" d="M0 200h100v100H0z"/><path fill="#8fa193" d="M100 200h100v100H100z"/><path fill="#83898b" d="M200 200h100v100H200z"/><path fill="#52565f" d="M300 200h100v100H300z"/><path fill="#788393" d="M400 200h100v100H400z"/><path fill="#657885" d="M500 200h100v100H500z"/><path fill="#707176" d="M600 200h100v100H600z"/><path fill="#4a6594" d="M700 200h100v100H700z"/><path fill="#bdc6a9" d="M0 300h100v100H0z"/><path fill="#778a92" d="M100 300h100v100H100z"/><path fill="#5e666e" d="M200 300h100v100H200z"/><path fill="#4d4840" d="M300 300h100v100H300z"/><path fill="#605b50" d="M400 300h100v100H400z"/><path fill="#666461" d="M500 300h100v100H500z"/><path fill="#645959" d="M600 300h100v100H600z"/><path fill="#4e5b87" d="M700 300h100v100H700z"/></svg>