<svg xmlns="http://www.w3.org/2000/svg" viewBox="0 0 800 400"><defs/><path fill="#c9c9c9" d="M0 0h100v100H0z"/><path fill="#d0d0d0" d="M100 0h100v100H100z"/><path fill="#b0b0b0" d="M200 0h100v100H200z"/><path fill="#b3b3b3" d="M300 0h100v100H300z"/><path fill="#b0b0b0" d="M400 0h100v100H400zm100 0h100v100H500z"/><path fill="#b3b3b3" d="M600 0h100v100H600z"/><path fill="#bdbdbd" d="M700 0h100v100H700z"/><path fill="#cbcbcb" d="M0 100h100v100H0z"/><path fill="#bbb" d="M100 100h100v100H100z"/><path fill="#9e9e9e" d="M200 100h100v100H200z"/><path fill="#c4c4c4" d="M300 100h100v100H300z"/><path fill="#bcbcbc" d="M400 100h100v100H400z"/><path fill="#afafaf" d="M500 100h100v100H500z"/><path fill="#b0b0b0" d="M600 100h100v100H600z"/><path fill="#aeaeae" d="M700 100h100v100H700z"/><path fill="#ccc" d="M0 200h100v100H0z"/><path fill="#c3c3c3" d="M100 200h100v100H100z"/><path fill="#d4d4d4" d="M200 200h100v100H200z"/><path fill="#dadada" d="M300 200h100v100H300zm100 0h100v100H400zm100 0h100v100H500z"/><path fill="#bababa" d="M600 200h100v100H600z"/><path fill="#b0b0b0" d="M700 200h100v100H700z"/><path fill="#d6d6d6" d="M0 300h100v100H0z"/><path fill="#dadada" d="M100 300h100v100H100z"/><path fill="#e1e1e1" d="M200 300h100v100H200z"/><path fill="#dadada" d="M300 300h100v100H300z"/><path fill="#bdbdbd" d="M400 300h100v100H400z"/><path fill="#ccc" d="M500 300h100v100H500z"/><path fill="#d1d1d1" d="M600 300h100v100H600z"/><path fill="#c1c1c1" d="M700 300h100v100H700z"/></svg>