<svg xmlns="http://www.w3.org/2000/svg" viewBox="0 0 800 500"><defs/><path fill="#e1d4dc" d="M0 0h100v100H0z"/><path fill="#dbc8d1" d="M100 0h100v100H100z"/><path fill="#d1c6d1" d="M200 0h100v100H200z"/><path fill="#d7ced4" d="M300 0h100v100H300z"/><path fill="#ddd0d5" d="M400 0h100v100H400z"/><path fill="#d1c5d2" d="M500 0h100v100H500z"/><path fill="#cfc5d4" d="M600 0h100v100H600z"/><path fill="#d4d5db" d="M700 0h100v100H700z"/><path fill="#aa9fa9" d="M0 100h100v100H0z"/><path fill="#b07872" d="M100 100h100v100H100z"/><path fill="#857988" d="M200 100h100v100H200z"/><path fill="#69a1b1" d="M300 100h100v100H300z"/><path fill="#6da7b3" d="M400 100h100v100H400z"/><path fill="#7c8987" d="M500 100h100v100H500z"/><path fill="#986459" d="M600 100h100v100H600z"/><path fill="#6f5971" d="M700 100h100v100H700z"/><path fill="#c6a9a6" d="M0 200h100v100H0z"/><path fill="#d2aa85" d="M100 200h100v100H100z"/><path fill="#a5927f" d="M200 200h100v100H200z"/><path fill="#afa69b" d="M300 200h100v100H300z"/><path fill="#bab9b1" d="M400 200h100v100H400z"/><path fill="#d2b89b" d="M500 200h100v100H500z"/><path fill="#9d6753" d="M600 200h100v100H600z"/><path fill="#815e6d" d="M700 200h100v100H700z"/><path fill="#b08699" d="M0 300h100v100H0z"/><path fill="#9f6264" d="M100 300h100v100H100z"/><path fill="#af765c" d="M200 300h100v100H200z"/><path fill="#bc7851" d="M300 300h100v100H300z"/><path fill="#cb967c" d="M400 300h100v100H400z"/><path fill="#af747e" d="M500 300h100v100H500z"/><path fill="#662f49" d="M600 300h100v100H600z"/><path fill="#774f6e" d="M700 300h100v100H700z"/><path fill="#d2c7d3" d="M0 400h100v100H0z"/><path fill="#bca7bb" d="M100 400h100v100H100z"/><path fill="#cab2bd" d="M200 400h100v100H200z"/><path fill="#caafb5" d="M300 400h100v100H300z"/><path fill="#caaeb2" d="M400 400h100v100H400z"/><path fill="#c8a8b1" d="M500 400h100v100H500z"/><path fill="#bea6b8" d="M600 400h100v100H600z"/><path fill="#c1afc5" d="M700 400h100v100H700z"/></svg>