<svg xmlns="http://www.w3.org/2000/svg" viewBox="0 0 800 600"><defs/><path fill="#fad9b5" d="M0 0h100v100H0z"/><path fill="#bf997e" d="M100 0h100v100H100z"/><path fill="#a07a65" d="M200 0h100v100H200z"/><path fill="#b58a70" d="M300 0h100v100H300z"/><path fill="#bd957b" d="M400 0h100v100H400z"/><path fill="#bb967d" d="M500 0h100v100H500z"/><path fill="#aa8974" d="M600 0h100v100H600z"/><path fill="#cca78e" d="M700 0h100v100H700z"/><path fill="#debf9e" d="M0 100h100v100H0z"/><path fill="#a48169" d="M100 100h100v100H100z"/><path fill="#9c755e" d="M200 100h100v100H200z"/><path fill="#d6a481" d="M300 100h100v100H300z"/><path fill="#cea484" d="M400 100h100v100H400z"/><path fill="#dbb192" d="M500 100h100v100H500z"/><path fill="#deb394" d="M600 100h100v100H600z"/><path fill="#e2ba9b" d="M700 100h100v100H700z"/><path fill="#cbac8d" d="M0 200h100v100H0z"/><path fill="#926f58" d="M100 200h100v100H100z"/><path fill="#cc9d78" d="M200 200h100v100H200z"/><path fill="#e5b188" d="M300 200h100v100H300z"/><path fill="#b88f72" d="M400 200h100v100H400z"/><path fill="#b99379" d="M500 200h100v100H500z"/><path fill="#f2c4a0" d="M600 200h100v100H600z"/><path fill="#f2c8a7" d="M700 200h100v100H700z"/><path fill="#c0a285" d="M0 300h100v100H0z"/><path fill="#a37c62" d="M100 300h100v100H100z"/><path fill="#f4c399" d="M200 300h100v100H200z"/><path fill="#e0af87" d="M300 300h100v100H300z"/><path fill="#a77f65" d="M400 300h100v100H400z"/><path fill="#b38f72" d="M500 300h100v100H500z"/><path fill="#f7c8a3" d="M600 300h100v100H600z"/><path fill="#f9ccab" d="M700 300h100v100H700z"/><path fill="#bb9c7f" d="M0 400h100v100H0z"/><path fill="#ae866b" d="M100 400h100v100H100z"/><path fill="#ca9e7d" d="M200 400h100v100H200z"/><path fill="#d1a280" d="M300 400h100v100H300z"/><path fill="#b68b6e" d="M400 400h100v100H400z"/><path fill="#cba283" d="M500 400h100v100H500z"/><path fill="#d3a788" d="M600 400h100v100H600z"/><path fill="#cfa185" d="M700 400h100v100H700z"/><path fill="#bc9c82" d="M0 500h100v100H0z"/><path fill="#d4aa8d" d="M100 500h100v100H100z"/><path fill="#c99c7f" d="M200 500h100v100H200z"/><path fill="#ba8d71" d="M300 500h100v100H300z"/><path fill="#ae8469" d="M400 500h100v100H400z"/><path fill="#bd9378" d="M500 500h100v100H500z"/><path fill="#ad8167" d="M600 500h100v100H600z"/><path fill="#aa775b" d="M700 500h100v100H700z"/></svg>