<svg xmlns="http://www.w3.org/2000/svg" viewBox="0 0 800 600"><defs/><path fill="#6f7072" d="M0 0h100v100H0z"/><path fill="#877d73" d="M100 0h100v100H100z"/><path fill="#8f9390" d="M200 0h100v100H200z"/><path fill="#b2acac" d="M300 0h100v100H300z"/><path fill="#aca89e" d="M400 0h100v100H400z"/><path fill="#a8aca2" d="M500 0h100v100H500z"/><path fill="#a9a9b2" d="M600 0h100v100H600z"/><path fill="#848f8e" d="M700 0h100v100H700z"/><path fill="#97a6b6" d="M0 100h100v100H0z"/><path fill="#8d8274" d="M100 100h100v100H100z"/><path fill="#abae98" d="M200 100h100v100H200z"/><path fill="#d2c7c4" d="M300 100h100v100H300z"/><path fill="#c6c0b9" d="M400 100h100v100H400z"/><path fill="#bcb5a0" d="M500 100h100v100H500z"/><path fill="#afb0b3" d="M600 100h100v100H600z"/><path fill="#919aa7" d="M700 100h100v100H700z"/><path fill="#a5a6a4" d="M0 200h100v100H0z"/><path fill="#a2968e" d="M100 200h100v100H100z"/><path fill="#c7b8a5" d="M200 200h100v100H200z"/><path fill="#d8cdb8" d="M300 200h100v100H300z"/><path fill="#ddd3c4" d="M400 200h100v100H400z"/><path fill="#ccc7b0" d="M500 200h100v100H500z"/><path fill="#c1b7b0" d="M600 200h100v100H600z"/><path fill="#c1b7bc" d="M700 200h100v100H700z"/><path fill="#b5adb1" d="M0 300h100v100H0z"/><path fill="#9d9397" d="M100 300h100v100H100z"/><path fill="#b4a4bc" d="M200 300h100v100H200z"/><path fill="#cbb8b9" d="M300 300h100v100H300z"/><path fill="#decaba" d="M400 300h100v100H400z"/><path fill="#d7c6b4" d="M500 300h100v100H500z"/><path fill="#b7a9a1" d="M600 300h100v100H600z"/><path fill="#d0c0b1" d="M700 300h100v100H700z"/><path fill="#aba4ae" d="M0 400h100v100H0z"/><path fill="#ae9983" d="M100 400h100v100H100z"/><path fill="#cbb2a5" d="M200 400h100v100H200z"/><path fill="#ceb7b8" d="M300 400h100v100H300z"/><path fill="#bca293" d="M400 400h100v100H400z"/><path fill="#aa927d" d="M500 400h100v100H500z"/><path fill="#cdac85" d="M600 400h100v100H600z"/><path fill="#c29b67" d="M700 400h100v100H700z"/><path fill="#947f6f" d="M0 500h100v100H0z"/><path fill="#b49f85" d="M100 500h100v100H100z"/><path fill="#d9c4a8" d="M200 500h100v100H200z"/><path fill="#ddc7ae" d="M300 500h100v100H300z"/><path fill="#d5bea3" d="M400 500h100v100H400z"/><path fill="#c0ad97" d="M500 500h100v100H500z"/><path fill="#d3b587" d="M600 500h100v100H600z"/><path fill="#ceab72" d="M700 500h100v100H700z"/></svg>