<svg xmlns="http://www.w3.org/2000/svg" viewBox="0 0 800 600"><defs/><path fill="#eaeae8" d="M0 0h100v100H0z"/><path fill="#dad7d3" d="M100 0h100v100H100z"/><path fill="#ddd9d3" d="M200 0h100v100H200z"/><path fill="#d9d4cc" d="M300 0h100v100H300z"/><path fill="#ddd6cc" d="M400 0h100v100H400z"/><path fill="#e7dccf" d="M500 0h100v100H500z"/><path fill="#e9d8ca" d="M600 0h100v100H600z"/><path fill="#e8d8c7" d="M700 0h100v100H700z"/><path fill="#e3e1dd" d="M0 100h100v100H0z"/><path fill="#dfd9d2" d="M100 100h100v100H100z"/><path fill="#d7d2ca" d="M200 100h100v100H200z"/><path fill="#ded9cf" d="M300 100h100v100H300z"/><path fill="#e3dbcf" d="M400 100h100v100H400z"/><path fill="#e4dacb" d="M500 100h100v100H500z"/><path fill="#e1d0c1" d="M600 100h100v100H600z"/><path fill="#e4d5c3" d="M700 100h100v100H700z"/><path fill="#e6e4de" d="M0 200h100v100H0z"/><path fill="#d6d1cb" d="M100 200h100v100H100z"/><path fill="#a7a5a1" d="M200 200h100v100H200z"/><path fill="#c7c2ba" d="M300 200h100v100H300z"/><path fill="#c0b6ab" d="M400 200h100v100H400z"/><path fill="#94847b" d="M500 200h100v100H500z"/><path fill="#bcaf9f" d="M600 200h100v100H600z"/><path fill="#d8c8b5" d="M700 200h100v100H700z"/><path fill="#e6e4df" d="M0 300h100v100H0z"/><path fill="#d4cfc7" d="M100 300h100v100H100z"/><path fill="#afaca6" d="M200 300h100v100H200z"/><path fill="#b9b3ac" d="M300 300h100v100H300z"/><path fill="#c0b8ab" d="M400 300h100v100H400z"/><path fill="#b0a295" d="M500 300h100v100H500z"/><path fill="#c3b3a3" d="M600 300h100v100H600z"/><path fill="#d3bfa7" d="M700 300h100v100H700z"/><path fill="#e2dfda" d="M0 400h100v100H0z"/><path fill="#c1bcb5" d="M100 400h100v100H100z"/><path fill="#d6d1c8" d="M200 400h100v100H200z"/><path fill="#cdc8bc" d="M300 400h100v100H300z"/><path fill="#c9c0b2" d="M400 400h100v100H400z"/><path fill="#d9cbba" d="M500 400h100v100H500z"/><path fill="#c8b6a1" d="M600 400h100v100H600z"/><path fill="#cab196" d="M700 400h100v100H700z"/><path fill="#e2ded7" d="M0 500h100v100H0z"/><path fill="#cec8bf" d="M100 500h100v100H100z"/><path fill="#d9d2c5" d="M200 500h100v100H200z"/><path fill="#d7ccbc" d="M300 500h100v100H300z"/><path fill="#d6c8b6" d="M400 500h100v100H400z"/><path fill="#d1bea8" d="M500 500h100v100H500z"/><path fill="#c0a98e" d="M600 500h100v100H600z"/><path fill="#c3a789" d="M700 500h100v100H700z"/></svg>