<svg xmlns="http://www.w3.org/2000/svg" viewBox="0 0 800 800"><defs/><path fill="#304b5c" d="M0 0h100v100H0z"/><path fill="#324351" d="M100 0h100v100H100z"/><path fill="#2e4d5f" d="M200 0h100v100H200z"/><path fill="#344c5c" d="M300 0h100v100H300z"/><path fill="#4d3d42" d="M400 0h100v100H400z"/><path fill="#8b614f" d="M500 0h100v100H500z"/><path fill="#383f4f" d="M600 0h100v100H600z"/><path fill="#2e3d4e" d="M700 0h100v100H700z"/><path fill="#304758" d="M0 100h100v100H0z"/><path fill="#2e3a48" d="M100 100h100v100H100z"/><path fill="#2e4553" d="M200 100h100v100H200z"/><path fill="#8a484e" d="M300 100h100v100H300z"/><path fill="#ac6552" d="M400 100h100v100H400z"/><path fill="#eca06e" d="M500 100h100v100H500z"/><path fill="#bb634f" d="M600 100h100v100H600z"/><path fill="#45333a" d="M700 100h100v100H700z"/><path fill="#2a4152" d="M0 200h100v100H0z"/><path fill="#263849" d="M100 200h100v100H100z"/><path fill="#2e4555" d="M200 200h100v100H200z"/><path fill="#aa524d" d="M300 200h100v100H300z"/><path fill="#c49161" d="M400 200h100v100H400z"/><path fill="#fba66e" d="M500 200h100v100H500z"/><path fill="#be634a" d="M600 200h100v100H600z"/><path fill="#30323d" d="M700 200h100v100H700z"/><path fill="#283c4e" d="M0 300h100v100H0z"/><path fill="#243143" d="M100 300h100v100H100z"/><path fill="#354852" d="M200 300h100v100H200z"/><path fill="#795f51" d="M300 300h100v100H300z"/><path fill="#372625" d="M400 300h100v100H400z"/><path fill="#856042" d="M500 300h100v100H500z"/><path fill="#6d4333" d="M600 300h100v100H600z"/><path fill="#322831" d="M700 300h100v100H700z"/><path fill="#273f52" d="M0 400h100v100H0z"/><path fill="#2a3749" d="M100 400h100v100H100z"/><path fill="#804e4a" d="M200 400h100v100H200z"/><path fill="#3e4042" d="M300 400h100v100H300z"/><path fill="#1a1724" d="M400 400h100v100H400z"/><path fill="#141523" d="M500 400h100v100H500z"/><path fill="#1f1822" d="M600 400h100v100H600z"/><path fill="#29222c" d="M700 400h100v100H700z"/><path fill="#253747" d="M0 500h100v100H0z"/><path fill="#263344" d="M100 500h100v100H100z"/><path fill="#472e3f" d="M200 500h100v100H200z"/><path fill="#38303e" d="M300 500h100v100H300z"/><path fill="#1d2630" d="M400 500h100v100H400z"/><path fill="#24272c" d="M500 500h100v100H500z"/><path fill="#1f2530" d="M600 500h100v100H600z"/><path fill="#1d202f" d="M700 500h100v100H700z"/><path fill="#345c69" d="M0 600h100v100H0z"/><path fill="#254a62" d="M100 600h100v100H100z"/><path fill="#2a394c" d="M200 600h100v100H200z"/><path fill="#734245" d="M300 600h100v100H300z"/><path fill="#34474e" d="M400 600h100v100H400z"/><path fill="#252e35" d="M500 600h100v100H500z"/><path fill="#2a2837" d="M600 600h100v100H600z"/><path fill="#1c2e48" d="M700 600h100v100H700z"/><path fill="#2d5c71" d="M0 700h100v100H0z"/><path fill="#244055" d="M100 700h100v100H100z"/><path fill="#2c323f" d="M200 700h100v100H200z"/><path fill="#533641" d="M300 700h100v100H300z"/><path fill="#414047" d="M400 700h100v100H400z"/><path fill="#1a1a28" d="M500 700h100v100H500z"/><path fill="#201e2c" d="M600 700h100v100H600z"/><path fill="#1d2b3e" d="M700 700h100v100H700z"/></svg>