<svg xmlns="http://www.w3.org/2000/svg" viewBox="0 0 800 500"><defs/><path fill="#4f4c47" d="M0 0h100v100H0z"/><path fill="#39312c" d="M100 0h100v100H100z"/><path fill="#4a504d" d="M200 0h100v100H200z"/><path fill="#636767" d="M300 0h100v100H300z"/><path fill="#6d6969" d="M400 0h100v100H400z"/><path fill="#4e5653" d="M500 0h100v100H500z"/><path fill="#5a5f5c" d="M600 0h100v100H600z"/><path fill="#353435" d="M700 0h100v100H700z"/><path fill="#837f78" d="M0 100h100v100H0z"/><path fill="#58473e" d="M100 100h100v100H100z"/><path fill="#97a5a4" d="M200 100h100v100H200z"/><path fill="#bec9cb" d="M300 100h100v100H300z"/><path fill="#cbc2bc" d="M400 100h100v100H400z"/><path fill="#acb4b6" d="M500 100h100v100H500z"/><path fill="#9b9f9c" d="M600 100h100v100H600z"/><path fill="#4c4946" d="M700 100h100v100H700z"/><path fill="#6a6663" d="M0 200h100v100H0z"/><path fill="#493a32" d="M100 200h100v100H100z"/><path fill="#868c8a" d="M200 200h100v100H200z"/><path fill="#aab0b3" d="M300 200h100v100H300z"/><path fill="#b9babb" d="M400 200h100v100H400z"/><path fill="#828889" d="M500 200h100v100H500z"/><path fill="#6b6a6c" d="M600 200h100v100H600z"/><path fill="#312d2a" d="M700 200h100v100H700z"/><path fill="#4f4741" d="M0 300h100v100H0z"/><path fill="#443a28" d="M100 300h100v100H100z"/><path fill="#544031" d="M200 300h100v100H200z"/><path fill="#5a4f47" d="M300 300h100v100H300z"/><path fill="#5d5e5f" d="M400 300h100v100H400z"/><path fill="#908c89" d="M500 300h100v100H500z"/><path fill="#60554e" d="M600 300h100v100H600z"/><path fill="#221d1a" d="M700 300h100v100H700z"/><path fill="#251f1c" d="M0 400h100v100H0z"/><path fill="#2c2119" d="M100 400h100v100H100z"/><path fill="#34271e" d="M200 400h100v100H200z"/><path fill="#2c241f" d="M300 400h100v100H300z"/><path fill="#363433" d="M400 400h100v100H400z"/><path fill="#67605e" d="M500 400h100v100H500z"/><path fill="#372b24" d="M600 400h100v100H600z"/><path fill="#191412" d="M700 400h100v100H700z"/></svg>