<svg xmlns="http://www.w3.org/2000/svg" viewBox="0 0 800 400"><defs/><path fill="#e4b670" d="M0 0h100v100H0z"/><path fill="#eab359" d="M100 0h100v100H100z"/><path fill="#e4ba4e" d="M200 0h100v100H200z"/><path fill="#d9ab55" d="M300 0h100v100H300z"/><path fill="#cc944f" d="M400 0h100v100H400z"/><path fill="#c18347" d="M500 0h100v100H500z"/><path fill="#b1733c" d="M600 0h100v100H600z"/><path fill="#a66a36" d="M700 0h100v100H700z"/><path fill="#e3b46c" d="M0 100h100v100H0z"/><path fill="#ecd768" d="M100 100h100v100H100z"/><path fill="#dcd054" d="M200 100h100v100H200z"/><path fill="#e4d751" d="M300 100h100v100H300z"/><path fill="#c69a47" d="M400 100h100v100H400z"/><path fill="#ac7240" d="M500 100h100v100H500z"/><path fill="#a06936" d="M600 100h100v100H600z"/><path fill="#975f30" d="M700 100h100v100H700z"/><path fill="#e3b868" d="M0 200h100v100H0z"/><path fill="#f8ee79" d="M100 200h100v100H100z"/><path fill="#dacd6c" d="M200 200h100v100H200z"/><path fill="#e2d36c" d="M300 200h100v100H300z"/><path fill="#8b6031" d="M400 200h100v100H400z"/><path fill="#734c2a" d="M500 200h100v100H500z"/><path fill="#6e4726" d="M600 200h100v100H600z"/><path fill="#744926" d="M700 200h100v100H700z"/><path fill="#d6a358" d="M0 300h100v100H0z"/><path fill="#e0be62" d="M100 300h100v100H100z"/><path fill="#e4cd6f" d="M200 300h100v100H200z"/><path fill="#cbb461" d="M300 300h100v100H300z"/><path fill="#975929" d="M400 300h100v100H400z"/><path fill="#b2733b" d="M500 300h100v100H500z"/><path fill="#a26533" d="M600 300h100v100H600z"/><path fill="#955a2c" d="M700 300h100v100H700z"/></svg>