<svg xmlns="http://www.w3.org/2000/svg" viewBox="0 0 800 500"><defs/><path fill="#dde7ec" d="M0 0h100v100H0z"/><path fill="#cecec7" d="M100 0h100v100H100z"/><path fill="#c2dcd9" d="M200 0h100v100H200z"/><path fill="#d7bcbb" d="M300 0h100v100H300z"/><path fill="#d6a0b7" d="M400 0h100v100H400z"/><path fill="#bad9df" d="M500 0h100v100H500z"/><path fill="#b5d0cc" d="M600 0h100v100H600z"/><path fill="#bbcebf" d="M700 0h100v100H700z"/><path fill="#cdc6c3" d="M0 100h100v100H0z"/><path fill="#b7b4a6" d="M100 100h100v100H100z"/><path fill="#83a499" d="M200 100h100v100H200z"/><path fill="#8fa499" d="M300 100h100v100H300z"/><path fill="#9598a4" d="M400 100h100v100H400z"/><path fill="#59a183" d="M500 100h100v100H500z"/><path fill="#72a09c" d="M600 100h100v100H600z"/><path fill="#95a78b" d="M700 100h100v100H700z"/><path fill="#d0cdcd" d="M0 200h100v100H0z"/><path fill="#bec6c3" d="M100 200h100v100H100z"/><path fill="#988d7f" d="M200 200h100v100H200z"/><path fill="#819690" d="M300 200h100v100H300z"/><path fill="#9b9982" d="M400 200h100v100H400z"/><path fill="#a34946" d="M500 200h100v100H500z"/><path fill="#77707b" d="M600 200h100v100H600z"/><path fill="#545a50" d="M700 200h100v100H700z"/><path fill="#cdcfca" d="M0 300h100v100H0z"/><path fill="#b6b5af" d="M100 300h100v100H100z"/><path fill="#aa8a74" d="M200 300h100v100H200z"/><path fill="#866354" d="M300 300h100v100H300z"/><path fill="#734937" d="M400 300h100v100H400z"/><path fill="#9d4350" d="M500 300h100v100H500z"/><path fill="#b79ca5" d="M600 300h100v100H600z"/><path fill="#6b6659" d="M700 300h100v100H700z"/><path fill="#dcddda" d="M0 400h100v100H0z"/><path fill="#d9dbd9" d="M100 400h100v100H100z"/><path fill="#e0d8d9" d="M200 400h100v100H200z"/><path fill="#decdcb" d="M300 400h100v100H300z"/><path fill="#bdb2aa" d="M400 400h100v100H400z"/><path fill="#cdd3cc" d="M500 400h100v100H500z"/><path fill="#e5f0f7" d="M600 400h100v100H600z"/><path fill="#d7c9af" d="M700 400h100v100H700z"/></svg>