<svg xmlns="http://www.w3.org/2000/svg" viewBox="0 0 800 600"><defs/><path fill="#d5d5d5" d="M0 0h100v100H0z"/><path fill="#cbcdcd" d="M100 0h100v100H100z"/><path fill="#c4adad" d="M200 0h100v100H200z"/><path fill="#c09c9c" d="M300 0h100v100H300z"/><path fill="#cba4a3" d="M400 0h100v100H400z"/><path fill="#c4afaf" d="M500 0h100v100H500z"/><path fill="#cdd0d0" d="M600 0h100v100H600z"/><path fill="#d3d3d3" d="M700 0h100v100H700z"/><path fill="#c9c9c9" d="M0 100h100v100H0z"/><path fill="#c4c4c4" d="M100 100h100v100H100z"/><path fill="#cacdce" d="M200 100h100v100H200z"/><path fill="#e5eaea" d="M300 100h100v100H300z"/><path fill="#e7eeee" d="M400 100h100v100H400z"/><path fill="#c8cbcb" d="M500 100h100v100H500z"/><path fill="#a7a6a6" d="M600 100h100v100H600z"/><path fill="#cecece" d="M700 100h100v100H700z"/><path fill="#c6c5c5" d="M0 200h100v100H0z"/><path fill="#bfbfbf" d="M100 200h100v100H100z"/><path fill="#d7d6d6" d="M200 200h100v100H200z"/><path fill="#fffdfd" d="M300 200h100v100H300z"/><path fill="#fff" d="M400 200h100v100H400z"/><path fill="#c7c5c3" d="M500 200h100v100H500z"/><path fill="#c7c7c7" d="M600 200h100v100H600z"/><path fill="#d7d6d6" d="M700 200h100v100H700z"/><path fill="#b4b0ae" d="M0 300h100v100H0z"/><path fill="#c1c1c0" d="M100 300h100v100H100z"/><path fill="#cbc8c6" d="M200 300h100v100H200z"/><path fill="#f7f7f7" d="M300 300h100v100H300z"/><path fill="#e9e8e7" d="M400 300h100v100H400z"/><path fill="#c2c1be" d="M500 300h100v100H500z"/><path fill="#e8e8e8" d="M600 300h100v100H600z"/><path fill="#cfccc9" d="M700 300h100v100H700z"/><path fill="#afaca9" d="M0 400h100v100H0z"/><path fill="#b5b5b5" d="M100 400h100v100H100z"/><path fill="#b9b7b5" d="M200 400h100v100H200z"/><path fill="#fff" d="M300 400h100v100H300z"/><path fill="#eeeded" d="M400 400h100v100H400z"/><path fill="#9c9b9a" d="M500 400h100v100H500z"/><path fill="#918f8f" d="M600 400h100v100H600z"/><path fill="#bcb8b6" d="M700 400h100v100H700z"/><path fill="#cfcecd" d="M0 500h100v100H0z"/><path fill="#dbdbdb" d="M100 500h100v100H100z"/><path fill="#dfdede" d="M200 500h100v100H200z"/><path fill="#ebeaeb" d="M300 500h100v100H300z"/><path fill="#e6e5e6" d="M400 500h100v100H400z"/><path fill="#cdccca" d="M500 500h100v100H500z"/><path fill="#c3c1be" d="M600 500h100v100H600z"/><path fill="#d5d4d4" d="M700 500h100v100H700z"/></svg>