<svg xmlns="http://www.w3.org/2000/svg" viewBox="0 0 800 500"><defs/><path fill="#4ac7ce" d="M0 0h100v100H0z"/><path fill="#4cc8ce" d="M100 0h100v100H100z"/><path fill="#65cbd0" d="M200 0h100v100H200z"/><path fill="#73d1d5" d="M300 0h100v100H300z"/><path fill="#71d0d4" d="M400 0h100v100H400z"/><path fill="#73d0d3" d="M500 0h100v100H500z"/><path fill="#52c7cd" d="M600 0h100v100H600z"/><path fill="#4ac6cd" d="M700 0h100v100H700z"/><path fill="#70c3c1" d="M0 100h100v100H0z"/><path fill="#54b6bf" d="M100 100h100v100H100z"/><path fill="#57ced3" d="M200 100h100v100H200z"/><path fill="#66ced4" d="M300 100h100v100H300z"/><path fill="#5ecfd6" d="M400 100h100v100H400z"/><path fill="#5cd1d5" d="M500 100h100v100H500z"/><path fill="#55c6ca" d="M600 100h100v100H600z"/><path fill="#65bec2" d="M700 100h100v100H700z"/><path fill="#c08980" d="M0 200h100v100H0z"/><path fill="#928689" d="M100 200h100v100H100z"/><path fill="#719591" d="M200 200h100v100H200z"/><path fill="#51c3c7" d="M300 200h100v100H300z"/><path fill="#67ab9c" d="M400 200h100v100H400z"/><path fill="#7fa4a2" d="M500 200h100v100H500z"/><path fill="#84a3a7" d="M600 200h100v100H600z"/><path fill="#9e8b7f" d="M700 200h100v100H700z"/><path fill="#8a7061" d="M0 300h100v100H0z"/><path fill="#b49c9c" d="M100 300h100v100H100z"/><path fill="#aa6958" d="M200 300h100v100H200z"/><path fill="#b9b08e" d="M300 300h100v100H300z"/><path fill="#956e3b" d="M400 300h100v100H400z"/><path fill="#a4736e" d="M500 300h100v100H500z"/><path fill="#afa192" d="M600 300h100v100H600z"/><path fill="#a14d5b" d="M700 300h100v100H700z"/><path fill="#66565d" d="M0 400h100v100H0z"/><path fill="#9c888c" d="M100 400h100v100H100z"/><path fill="#7a7e6b" d="M200 400h100v100H200z"/><path fill="#aca96b" d="M300 400h100v100H300z"/><path fill="#bc8664" d="M400 400h100v100H400z"/><path fill="#bf9f9e" d="M500 400h100v100H500z"/><path fill="#947f75" d="M600 400h100v100H600z"/><path fill="#8d7571" d="M700 400h100v100H700z"/></svg>