<svg xmlns="http://www.w3.org/2000/svg" viewBox="0 0 800 500"><defs/><path fill="#e0a177" d="M0 0h100v100H0z"/><path fill="#a0694c" d="M100 0h100v100H100z"/><path fill="#b27d64" d="M200 0h100v100H200z"/><path fill="#e49f70" d="M300 0h100v100H300z"/><path fill="#cc9379" d="M400 0h100v100H400z"/><path fill="#ce8e6b" d="M500 0h100v100H500z"/><path fill="#e4a173" d="M600 0h100v100H600z"/><path fill="#e5a677" d="M700 0h100v100H700z"/><path fill="#c57d4e" d="M0 100h100v100H0z"/><path fill="#8b4620" d="M100 100h100v100H100z"/><path fill="#ae663b" d="M200 100h100v100H200z"/><path fill="#b16a4a" d="M300 100h100v100H300z"/><path fill="#ac796a" d="M400 100h100v100H400z"/><path fill="#c47549" d="M500 100h100v100H500z"/><path fill="#bc6532" d="M600 100h100v100H600z"/><path fill="#c77749" d="M700 100h100v100H700z"/><path fill="#c48353" d="M0 200h100v100H0z"/><path fill="#9a4f23" d="M100 200h100v100H100z"/><path fill="#c4703e" d="M200 200h100v100H200z"/><path fill="#9c634a" d="M300 200h100v100H300z"/><path fill="#a2674a" d="M400 200h100v100H400z"/><path fill="#d37b4f" d="M500 200h100v100H500z"/><path fill="#b6704f" d="M600 200h100v100H600z"/><path fill="#c97440" d="M700 200h100v100H700z"/><path fill="#ae6c45" d="M0 300h100v100H0z"/><path fill="#843e1d" d="M100 300h100v100H100z"/><path fill="#975334" d="M200 300h100v100H200z"/><path fill="#80492e" d="M300 300h100v100H300z"/><path fill="#8c4d31" d="M400 300h100v100H400z"/><path fill="#be683c" d="M500 300h100v100H500z"/><path fill="#ae6446" d="M600 300h100v100H600z"/><path fill="#9b5a3f" d="M700 300h100v100H700z"/><path fill="#ca996c" d="M0 400h100v100H0z"/><path fill="#9b6141" d="M100 400h100v100H100z"/><path fill="#9d6049" d="M200 400h100v100H200z"/><path fill="#955943" d="M300 400h100v100H300z"/><path fill="#a06449" d="M400 400h100v100H400z"/><path fill="#a86b50" d="M500 400h100v100H500z"/><path fill="#bf825a" d="M600 400h100v100H600z"/><path fill="#814a3a" d="M700 400h100v100H700z"/></svg>