<svg xmlns="http://www.w3.org/2000/svg" viewBox="0 0 800 600"><defs/><path fill="#a29c92" d="M0 0h100v100H0z"/><path fill="#9a9589" d="M100 0h100v100H100z"/><path fill="#9c9487" d="M200 0h100v100H200z"/><path fill="#a09c8c" d="M300 0h100v100H300z"/><path fill="#a9a79c" d="M400 0h100v100H400z"/><path fill="#adada4" d="M500 0h100v100H500z"/><path fill="#b2b6b3" d="M600 0h100v100H600z"/><path fill="#bbc1c0" d="M700 0h100v100H700z"/><path fill="#9d9b94" d="M0 100h100v100H0z"/><path fill="#888075" d="M100 100h100v100H100z"/><path fill="#8f8576" d="M200 100h100v100H200z"/><path fill="#929686" d="M300 100h100v100H300z"/><path fill="#939382" d="M400 100h100v100H400z"/><path fill="#989f91" d="M500 100h100v100H500z"/><path fill="#9fa59d" d="M600 100h100v100H600z"/><path fill="#b5b9b0" d="M700 100h100v100H700z"/><path fill="#a1a09f" d="M0 200h100v100H0z"/><path fill="#857c74" d="M100 200h100v100H100z"/><path fill="#948d7c" d="M200 200h100v100H200z"/><path fill="#98988d" d="M300 200h100v100H300z"/><path fill="#979087" d="M400 200h100v100H400z"/><path fill="#9d9796" d="M500 200h100v100H500z"/><path fill="#a3a5a4" d="M600 200h100v100H600z"/><path fill="#b3b7b2" d="M700 200h100v100H700z"/><path fill="#9c9b9a" d="M0 300h100v100H0z"/><path fill="#827a70" d="M100 300h100v100H100z"/><path fill="#989282" d="M200 300h100v100H200z"/><path fill="#a0938f" d="M300 300h100v100H300z"/><path fill="#999294" d="M400 300h100v100H400z"/><path fill="#9098a2" d="M500 300h100v100H500z"/><path fill="#9ba4af" d="M600 300h100v100H600z"/><path fill="#a2a79e" d="M700 300h100v100H700z"/><path fill="#94938e" d="M0 400h100v100H0z"/><path fill="#898078" d="M100 400h100v100H100z"/><path fill="#9e9892" d="M200 400h100v100H200z"/><path fill="#948e8f" d="M300 400h100v100H300z"/><path fill="#928d8a" d="M400 400h100v100H400z"/><path fill="#9c9c94" d="M500 400h100v100H500z"/><path fill="#a9a8a1" d="M600 400h100v100H600z"/><path fill="#9e9c97" d="M700 400h100v100H700z"/><path fill="#a9aaa8" d="M0 500h100v100H0z"/><path fill="#a5a3a1" d="M100 500h100v100H100z"/><path fill="#a4a4a4" d="M200 500h100v100H200z"/><path fill="#a1a2a2" d="M300 500h100v100H300z"/><path fill="#a1a4a5" d="M400 500h100v100H400z"/><path fill="#a6a9a9" d="M500 500h100v100H500z"/><path fill="#a8aba8" d="M600 500h100v100H600z"/><path fill="#a3a0a0" d="M700 500h100v100H700z"/></svg>