<svg xmlns="http://www.w3.org/2000/svg" viewBox="0 0 800 800"><defs/><path fill="#d2d5e8" d="M0 0h100v100H0z"/><path fill="#cfd1e5" d="M100 0h100v100H100z"/><path fill="#cdd0e3" d="M200 0h100v100H200z"/><path fill="#ced1e4" d="M300 0h100v100H300z"/><path fill="#cdd0e4" d="M400 0h100v100H400z"/><path fill="#ced0e4" d="M500 0h100v100H500z"/><path fill="#cfd1e6" d="M600 0h100v100H600z"/><path fill="#d4d4e8" d="M700 0h100v100H700z"/><path fill="#cbcde1" d="M0 100h100v100H0z"/><path fill="#c8cadf" d="M100 100h100v100H100z"/><path fill="#cacce1" d="M200 100h100v100H200z"/><path fill="#cdcfe4" d="M300 100h100v100H300z"/><path fill="#cdcee4" d="M400 100h100v100H400z"/><path fill="#cacce2" d="M500 100h100v100H500z"/><path fill="#c9cbe0" d="M600 100h100v100H600z"/><path fill="#cccfe3" d="M700 100h100v100H700z"/><path fill="#c3c5db" d="M0 200h100v100H0z"/><path fill="#b4b5cc" d="M100 200h100v100H100z"/><path fill="#bdc0d1" d="M200 200h100v100H200z"/><path fill="#bec0d3" d="M300 200h100v100H300z"/><path fill="#babcd0" d="M400 200h100v100H400z"/><path fill="#b9bbcd" d="M500 200h100v100H500z"/><path fill="#bcbdd0" d="M600 200h100v100H600z"/><path fill="#c9c9e0" d="M700 200h100v100H700z"/><path fill="#c4c6dd" d="M0 300h100v100H0z"/><path fill="#a5a8c3" d="M100 300h100v100H100z"/><path fill="#869297" d="M200 300h100v100H200z"/><path fill="#6d6d70" d="M300 300h100v100H300z"/><path fill="#78797e" d="M400 300h100v100H400z"/><path fill="#878fa1" d="M500 300h100v100H500z"/><path fill="#8c93a0" d="M600 300h100v100H600z"/><path fill="#b6b6c9" d="M700 300h100v100H700z"/><path fill="#b4b6ce" d="M0 400h100v100H0z"/><path fill="#9696ac" d="M100 400h100v100H100z"/><path fill="#a9abc6" d="M200 400h100v100H200z"/><path fill="#7c7d93" d="M300 400h100v100H300z"/><path fill="#8b8ca2" d="M400 400h100v100H400z"/><path fill="#a6a0b4" d="M500 400h100v100H500z"/><path fill="#7e747d" d="M600 400h100v100H600z"/><path fill="#a6a8b9" d="M700 400h100v100H700z"/><path fill="#b6b8d0" d="M0 500h100v100H0z"/><path fill="#b1b4cc" d="M100 500h100v100H100z"/><path fill="#b3b7cf" d="M200 500h100v100H200z"/><path fill="#8588a4" d="M300 500h100v100H300z"/><path fill="#8c90ac" d="M400 500h100v100H400z"/><path fill="#b0aab8" d="M500 500h100v100H500z"/><path fill="#706264" d="M600 500h100v100H600z"/><path fill="#9599b4" d="M700 500h100v100H700z"/><path fill="#c5c7df" d="M0 600h100v100H0zm100 0h100v100H100z"/><path fill="#c5c8df" d="M200 600h100v100H200z"/><path fill="#c4c6de" d="M300 600h100v100H300z"/><path fill="#c4c5db" d="M400 600h100v100H400z"/><path fill="#c4c7e0" d="M500 600h100v100H500z"/><path fill="#c0c3db" d="M600 600h100v100H600z"/><path fill="#c7c5db" d="M700 600h100v100H700z"/><path fill="#c7cae0" d="M0 700h100v100H0z"/><path fill="#c6c8df" d="M100 700h100v100H100z"/><path fill="#c8c9e0" d="M200 700h100v100H200z"/><path fill="#cacbe2" d="M300 700h100v100H300z"/><path fill="#cacae2" d="M400 700h100v100H400z"/><path fill="#c9cae0" d="M500 700h100v100H500z"/><path fill="#cdcce2" d="M600 700h100v100H600z"/><path fill="#cecce2" d="M700 700h100v100H700z"/></svg>