<svg xmlns="http://www.w3.org/2000/svg" viewBox="0 0 800 600"><defs/><path fill="#c9d0cc" d="M0 0h100v100H0z"/><path fill="#d8e0df" d="M100 0h100v100H100z"/><path fill="#dbe0da" d="M200 0h100v100H200z"/><path fill="#e1e3e0" d="M300 0h100v100H300z"/><path fill="#e1e7e5" d="M400 0h100v100H400z"/><path fill="#e1e7e4" d="M500 0h100v100H500z"/><path fill="#dde5e1" d="M600 0h100v100H600z"/><path fill="#dce7e3" d="M700 0h100v100H700z"/><path fill="#a3adac" d="M0 100h100v100H0z"/><path fill="#a4a79a" d="M100 100h100v100H100z"/><path fill="#bca179" d="M200 100h100v100H200z"/><path fill="#d5bcb0" d="M300 100h100v100H300z"/><path fill="#ddc3ad" d="M400 100h100v100H400z"/><path fill="#dec6be" d="M500 100h100v100H500z"/><path fill="#bcb9ba" d="M600 100h100v100H600z"/><path fill="#cee1e1" d="M700 100h100v100H700z"/><path fill="#a0aeaf" d="M0 200h100v100H0z"/><path fill="#93a38a" d="M100 200h100v100H100z"/><path fill="#9a8c4e" d="M200 200h100v100H200z"/><path fill="#e2c6a6" d="M300 200h100v100H300z"/><path fill="#d9bf90" d="M400 200h100v100H400z"/><path fill="#e7dec5" d="M500 200h100v100H500z"/><path fill="#bdc7cf" d="M600 200h100v100H600z"/><path fill="#b7c9cb" d="M700 200h100v100H700z"/><path fill="#97a9aa" d="M0 300h100v100H0z"/><path fill="#9b976c" d="M100 300h100v100H100z"/><path fill="#8e8a53" d="M200 300h100v100H200z"/><path fill="#9d947c" d="M300 300h100v100H300z"/><path fill="#ad9860" d="M400 300h100v100H400z"/><path fill="#a18e5f" d="M500 300h100v100H500z"/><path fill="#a79086" d="M600 300h100v100H600z"/><path fill="#aaccd4" d="M700 300h100v100H700z"/><path fill="#929e9a" d="M0 400h100v100H0z"/><path fill="#a17e4e" d="M100 400h100v100H100z"/><path fill="#aa7f52" d="M200 400h100v100H200z"/><path fill="#945a57" d="M300 400h100v100H300z"/><path fill="#ae5545" d="M400 400h100v100H400z"/><path fill="#c74a57" d="M500 400h100v100H500z"/><path fill="#af5e63" d="M600 400h100v100H600z"/><path fill="#afceb4" d="M700 400h100v100H700z"/><path fill="#8e978b" d="M0 500h100v100H0z"/><path fill="#8c856c" d="M100 500h100v100H100z"/><path fill="#ad8f6c" d="M200 500h100v100H200z"/><path fill="#a47b7a" d="M300 500h100v100H300z"/><path fill="#9b7c7f" d="M400 500h100v100H400z"/><path fill="#bd7d88" d="M500 500h100v100H500z"/><path fill="#9d6f6a" d="M600 500h100v100H600z"/><path fill="#aeb4a7" d="M700 500h100v100H700z"/></svg>