<svg xmlns="http://www.w3.org/2000/svg" viewBox="0 0 800 600"><defs/><path fill="#f4f6f2" d="M0 0h100v100H0z"/><path fill="#eef3ef" d="M100 0h100v100H100z"/><path fill="#e5eff4" d="M200 0h100v100H200z"/><path fill="#e4f1e7" d="M300 0h100v100H300z"/><path fill="#ebeaee" d="M400 0h100v100H400z"/><path fill="#ddd9e9" d="M500 0h100v100H500z"/><path fill="#e1dce9" d="M600 0h100v100H600z"/><path fill="#efeff2" d="M700 0h100v100H700z"/><path fill="#f8fbf6" d="M0 100h100v100H0z"/><path fill="#e9ede8" d="M100 100h100v100H100z"/><path fill="#cde0ca" d="M200 100h100v100H200z"/><path fill="#c7deb4" d="M300 100h100v100H300z"/><path fill="#ecedec" d="M400 100h100v100H400z"/><path fill="#e5e2dd" d="M500 100h100v100H500z"/><path fill="#e7e5e9" d="M600 100h100v100H600z"/><path fill="#f3f3f4" d="M700 100h100v100H700z"/><path fill="#f5f9ed" d="M0 200h100v100H0z"/><path fill="#eaf1d1" d="M100 200h100v100H100z"/><path fill="#eff4d8" d="M200 200h100v100H200z"/><path fill="#efeed7" d="M300 200h100v100H300z"/><path fill="#f3f1ed" d="M400 200h100v100H400z"/><path fill="#d6d7c3" d="M500 200h100v100H500z"/><path fill="#f1eee9" d="M600 200h100v100H600z"/><path fill="#fbfbfc" d="M700 200h100v100H700zM0 300h100v100H0z"/><path fill="#fff" d="M100 300h100v100H100zm100 0h100v100H200z"/><path fill="#edeae9" d="M300 300h100v100H300zm100 0h100v100H400z"/><path fill="#f0f4f2" d="M500 300h100v100H500z"/><path fill="#f4f8f5" d="M600 300h100v100H600z"/><path fill="#f8e4e5" d="M700 300h100v100H700z"/><path fill="#fdffff" d="M0 400h100v100H0z"/><path fill="#df9092" d="M100 400h100v100H100z"/><path fill="#de8689" d="M200 400h100v100H200z"/><path fill="#fbfefc" d="M300 400h100v100H300z"/><path fill="#f9fdfb" d="M400 400h100v100H400z"/><path fill="#efc2c2" d="M500 400h100v100H500z"/><path fill="#cf474c" d="M600 400h100v100H600z"/><path fill="#d03b40" d="M700 400h100v100H700z"/><path fill="#fcffff" d="M0 500h100v100H0z"/><path fill="#d8787d" d="M100 500h100v100H100z"/><path fill="#d97479" d="M200 500h100v100H200z"/><path fill="#feffff" d="M300 500h100v100H300z"/><path fill="#fff" d="M400 500h100v100H400z"/><path fill="#eab0b3" d="M500 500h100v100H500z"/><path fill="#d34d51" d="M600 500h100v100H600z"/><path fill="#d66468" d="M700 500h100v100H700z"/></svg>