<svg xmlns="http://www.w3.org/2000/svg" viewBox="0 0 800 600"><defs/><path fill="#e8e3e1" d="M0 0h100v100H0z"/><path fill="#eadfdc" d="M100 0h100v100H100z"/><path fill="#eae5e2" d="M200 0h100v100H200z"/><path fill="#e8e3e1" d="M300 0h100v100H300z"/><path fill="#e8e5e3" d="M400 0h100v100H400z"/><path fill="#e7e4e2" d="M500 0h100v100H500z"/><path fill="#eae5e3" d="M600 0h100v100H600z"/><path fill="#e8e7e4" d="M700 0h100v100H700z"/><path fill="#987a72" d="M0 100h100v100H0z"/><path fill="#ac5d4f" d="M100 100h100v100H100z"/><path fill="#957468" d="M200 100h100v100H200z"/><path fill="#8d685c" d="M300 100h100v100H300z"/><path fill="#8b6b5e" d="M400 100h100v100H400z"/><path fill="#8a685b" d="M500 100h100v100H500z"/><path fill="#88685c" d="M600 100h100v100H600z"/><path fill="#8d675e" d="M700 100h100v100H700z"/><path fill="#a57e76" d="M0 200h100v100H0z"/><path fill="#ad6457" d="M100 200h100v100H100z"/><path fill="#87746a" d="M200 200h100v100H200z"/><path fill="#89695d" d="M300 200h100v100H300z"/><path fill="#886c5d" d="M400 200h100v100H400z"/><path fill="#8b6a5f" d="M500 200h100v100H500z"/><path fill="#826b62" d="M600 200h100v100H600z"/><path fill="#ab6560" d="M700 200h100v100H700z"/><path fill="#ad786e" d="M0 300h100v100H0z"/><path fill="#b26759" d="M100 300h100v100H100z"/><path fill="#b0796e" d="M200 300h100v100H200z"/><path fill="#866c65" d="M300 300h100v100H300z"/><path fill="#96645b" d="M400 300h100v100H400z"/><path fill="#a86b61" d="M500 300h100v100H500z"/><path fill="#ac7166" d="M600 300h100v100H600z"/><path fill="#b56561" d="M700 300h100v100H700z"/><path fill="#b5746c" d="M0 400h100v100H0z"/><path fill="#d96d60" d="M100 400h100v100H100z"/><path fill="#f1776b" d="M200 400h100v100H200z"/><path fill="#a2615c" d="M300 400h100v100H300z"/><path fill="#b15750" d="M400 400h100v100H400z"/><path fill="#a04841" d="M500 400h100v100H500z"/><path fill="#ff8172" d="M600 400h100v100H600z"/><path fill="#dd746b" d="M700 400h100v100H700z"/><path fill="#efd7d5" d="M0 500h100v100H0z"/><path fill="#f9d1ce" d="M100 500h100v100H100z"/><path fill="#f4d1cd" d="M200 500h100v100H200z"/><path fill="#edc7c4" d="M300 500h100v100H300z"/><path fill="#efcac5" d="M400 500h100v100H400z"/><path fill="#ecc9c6" d="M500 500h100v100H500z"/><path fill="#f3cdc9" d="M600 500h100v100H600z"/><path fill="#efcfcb" d="M700 500h100v100H700z"/></svg>