<svg xmlns="http://www.w3.org/2000/svg" viewBox="0 0 800 500"><defs/><path fill="#e6e0d1" d="M0 0h100v100H0z"/><path fill="#d5d1c6" d="M100 0h100v100H100z"/><path fill="#dbdddd" d="M200 0h100v100H200z"/><path fill="#e9f4f6" d="M300 0h100v100H300z"/><path fill="#eff3f5" d="M400 0h100v100H400z"/><path fill="#eef4f6" d="M500 0h100v100H500z"/><path fill="#eef3f3" d="M600 0h100v100H600z"/><path fill="#e5e3dc" d="M700 0h100v100H700z"/><path fill="#b59956" d="M0 100h100v100H0z"/><path fill="#776541" d="M100 100h100v100H100z"/><path fill="#7f8a92" d="M200 100h100v100H200z"/><path fill="#b3d6df" d="M300 100h100v100H300z"/><path fill="#a3c8d1" d="M400 100h100v100H400z"/><path fill="#a6d3de" d="M500 100h100v100H500z"/><path fill="#bdd8dd" d="M600 100h100v100H600z"/><path fill="#9f8e5d" d="M700 100h100v100H700z"/><path fill="#a9935e" d="M0 200h100v100H0z"/><path fill="#706c4f" d="M100 200h100v100H100z"/><path fill="#5e7f82" d="M200 200h100v100H200z"/><path fill="#367880" d="M300 200h100v100H300z"/><path fill="#7496a2" d="M400 200h100v100H400z"/><path fill="#6097a8" d="M500 200h100v100H500z"/><path fill="#497172" d="M600 200h100v100H600z"/><path fill="#a28852" d="M700 200h100v100H700z"/><path fill="#8d7f57" d="M0 300h100v100H0z"/><path fill="#6d665e" d="M100 300h100v100H100z"/><path fill="#8d8081" d="M200 300h100v100H200z"/><path fill="#909a8b" d="M300 300h100v100H300z"/><path fill="#907981" d="M400 300h100v100H400z"/><path fill="#a89894" d="M500 300h100v100H500z"/><path fill="#a0a19c" d="M600 300h100v100H600z"/><path fill="#887449" d="M700 300h100v100H700z"/><path fill="#bfbcb2" d="M0 400h100v100H0z"/><path fill="#c3bac0" d="M100 400h100v100H100z"/><path fill="#d6d0d7" d="M200 400h100v100H200z"/><path fill="#dbdbda" d="M300 400h100v100H300z"/><path fill="#b8b4b1" d="M400 400h100v100H400z"/><path fill="#d8cabe" d="M500 400h100v100H500z"/><path fill="#dfdad7" d="M600 400h100v100H600z"/><path fill="#b3aba3" d="M700 400h100v100H700z"/></svg>