<svg xmlns="http://www.w3.org/2000/svg" viewBox="0 0 800 500"><defs/><path fill="#c5c7cd" d="M0 0h100v100H0z"/><path fill="#bcbec6" d="M100 0h100v100H100z"/><path fill="#9296a1" d="M200 0h100v100H200z"/><path fill="#8b8f9a" d="M300 0h100v100H300z"/><path fill="#c1c2ca" d="M400 0h100v100H400z"/><path fill="#b0b2bb" d="M500 0h100v100H500z"/><path fill="#bebfc5" d="M600 0h100v100H600z"/><path fill="#9ea0aa" d="M700 0h100v100H700z"/><path fill="#b8bac1" d="M0 100h100v100H0z"/><path fill="#a3a7b0" d="M100 100h100v100H100z"/><path fill="#8c909d" d="M200 100h100v100H200z"/><path fill="#7d818f" d="M300 100h100v100H300z"/><path fill="#90929e" d="M400 100h100v100H400z"/><path fill="#8d8f9c" d="M500 100h100v100H500z"/><path fill="#9b9ea8" d="M600 100h100v100H600z"/><path fill="#9295a1" d="M700 100h100v100H700z"/><path fill="#b1b4bc" d="M0 200h100v100H0z"/><path fill="#9ea1ac" d="M100 200h100v100H100z"/><path fill="#8b8e9c" d="M200 200h100v100H200z"/><path fill="#898c99" d="M300 200h100v100H300z"/><path fill="#898d9a" d="M400 200h100v100H400z"/><path fill="#838794" d="M500 200h100v100H500z"/><path fill="#90929e" d="M600 200h100v100H600z"/><path fill="#8d909c" d="M700 200h100v100H700z"/><path fill="#a6a9b1" d="M0 300h100v100H0z"/><path fill="#9c9faa" d="M100 300h100v100H100z"/><path fill="#7b7f8c" d="M200 300h100v100H200z"/><path fill="#7e818e" d="M300 300h100v100H300z"/><path fill="#9a9da9" d="M400 300h100v100H400z"/><path fill="#a3a6b0" d="M500 300h100v100H500z"/><path fill="#a3a7b0" d="M600 300h100v100H600z"/><path fill="#9699a5" d="M700 300h100v100H700z"/><path fill="#b3b5be" d="M0 400h100v100H0z"/><path fill="#b4b6be" d="M100 400h100v100H100z"/><path fill="#9ea1aa" d="M200 400h100v100H200z"/><path fill="#9fa0ab" d="M300 400h100v100H300z"/><path fill="#bebec6" d="M400 400h100v100H400z"/><path fill="#cfd0d5" d="M500 400h100v100H500z"/><path fill="#cbccd2" d="M600 400h100v100H600z"/><path fill="#a1a3ad" d="M700 400h100v100H700z"/></svg>