<svg xmlns="http://www.w3.org/2000/svg" viewBox="0 0 800 500"><defs/><path fill="#ece4ec" d="M0 0h100v100H0z"/><path fill="#ebdcd7" d="M100 0h100v100H100z"/><path fill="#f0e8e2" d="M200 0h100v100H200z"/><path fill="#f0e8e3" d="M300 0h100v100H300z"/><path fill="#efe9e3" d="M400 0h100v100H400z"/><path fill="#eae1da" d="M500 0h100v100H500z"/><path fill="#eee4de" d="M600 0h100v100H600z"/><path fill="#f2e8e3" d="M700 0h100v100H700z"/><path fill="#b68ea2" d="M0 100h100v100H0z"/><path fill="#c68c7a" d="M100 100h100v100H100z"/><path fill="#dbbca9" d="M200 100h100v100H200z"/><path fill="#edd3b8" d="M300 100h100v100H300z"/><path fill="#edd1bd" d="M400 100h100v100H400z"/><path fill="#e2cab1" d="M500 100h100v100H500z"/><path fill="#d9bca0" d="M600 100h100v100H600z"/><path fill="#c8907d" d="M700 100h100v100H700z"/><path fill="#d2938d" d="M0 200h100v100H0z"/><path fill="#d6a99a" d="M100 200h100v100H100z"/><path fill="#c69a8b" d="M200 200h100v100H200z"/><path fill="#e2bba7" d="M300 200h100v100H300z"/><path fill="#e6ccb2" d="M400 200h100v100H400z"/><path fill="#fedacc" d="M500 200h100v100H500z"/><path fill="#cda593" d="M600 200h100v100H600z"/><path fill="#ba837d" d="M700 200h100v100H700z"/><path fill="#c9888d" d="M0 300h100v100H0z"/><path fill="#c2816d" d="M100 300h100v100H100z"/><path fill="#ac5254" d="M200 300h100v100H200z"/><path fill="#bf6870" d="M300 300h100v100H300z"/><path fill="#ba8377" d="M400 300h100v100H400z"/><path fill="#89434a" d="M500 300h100v100H500z"/><path fill="#7f3237" d="M600 300h100v100H600z"/><path fill="#b5695c" d="M700 300h100v100H700z"/><path fill="#dbb6b6" d="M0 400h100v100H0z"/><path fill="#e2b5ae" d="M100 400h100v100H100z"/><path fill="#e2a9a9" d="M200 400h100v100H200z"/><path fill="#c18f95" d="M300 400h100v100H300z"/><path fill="#a17279" d="M400 400h100v100H400z"/><path fill="#9b777a" d="M500 400h100v100H500z"/><path fill="#cf9b9e" d="M600 400h100v100H600z"/><path fill="#e0a097" d="M700 400h100v100H700z"/></svg>