<svg xmlns="http://www.w3.org/2000/svg" viewBox="0 0 800 400"><defs/><path fill="#686168" d="M0 0h100v100H0z"/><path fill="#4d3e40" d="M100 0h100v100H100z"/><path fill="#564d54" d="M200 0h100v100H200z"/><path fill="#5d5968" d="M300 0h100v100H300z"/><path fill="#615d66" d="M400 0h100v100H400z"/><path fill="#605b65" d="M500 0h100v100H500z"/><path fill="#585058" d="M600 0h100v100H600z"/><path fill="#7f7066" d="M700 0h100v100H700z"/><path fill="#4a4047" d="M0 100h100v100H0z"/><path fill="#28191c" d="M100 100h100v100H100z"/><path fill="#3f3a33" d="M200 100h100v100H200z"/><path fill="#5b4b50" d="M300 100h100v100H300z"/><path fill="#594951" d="M400 100h100v100H400z"/><path fill="#564b5b" d="M500 100h100v100H500z"/><path fill="#493d44" d="M600 100h100v100H600z"/><path fill="#6e5d50" d="M700 100h100v100H700z"/><path fill="#4c4044" d="M0 200h100v100H0z"/><path fill="#3d2b2e" d="M100 200h100v100H100z"/><path fill="#6e5755" d="M200 200h100v100H200z"/><path fill="#765543" d="M300 200h100v100H300z"/><path fill="#7c493d" d="M400 200h100v100H400z"/><path fill="#6f4f43" d="M500 200h100v100H500z"/><path fill="#6d483e" d="M600 200h100v100H600z"/><path fill="#4d3530" d="M700 200h100v100H700z"/><path fill="#5a4c4e" d="M0 300h100v100H0z"/><path fill="#856f71" d="M100 300h100v100H100z"/><path fill="#a08383" d="M200 300h100v100H200z"/><path fill="#704a3e" d="M300 300h100v100H300z"/><path fill="#774b3e" d="M400 300h100v100H400z"/><path fill="#754f3e" d="M500 300h100v100H500z"/><path fill="#957b74" d="M600 300h100v100H600z"/><path fill="#5e4745" d="M700 300h100v100H700z"/></svg>