<svg xmlns="http://www.w3.org/2000/svg" viewBox="0 0 800 400"><defs/><path fill="#f7fbf9" d="M0 0h100v100H0z"/><path fill="#e7f3eb" d="M100 0h100v100H100z"/><path fill="#f9fdfb" d="M200 0h100v100H200z"/><path fill="#feffff" d="M300 0h100v100H300z"/><path fill="#fcfefc" d="M400 0h100v100H400z"/><path fill="#fdfefd" d="M500 0h100v100H500z"/><path fill="#fbfdfb" d="M600 0h100v100H600z"/><path fill="#f8fcf9" d="M700 0h100v100H700z"/><path fill="#f5faf7" d="M0 100h100v100H0z"/><path fill="#e4f0e8" d="M100 100h100v100H100z"/><path fill="#e9eae9" d="M200 100h100v100H200z"/><path fill="#e9e9e8" d="M300 100h100v100H300z"/><path fill="#f2f2f2" d="M400 100h100v100H400z"/><path fill="#f6f6f6" d="M500 100h100v100H500z"/><path fill="#fafafa" d="M600 100h100v100H600z"/><path fill="#fafcfb" d="M700 100h100v100H700z"/><path fill="#eff6f2" d="M0 200h100v100H0z"/><path fill="#e2ede6" d="M100 200h100v100H100z"/><path fill="#e7eae8" d="M200 200h100v100H200z"/><path fill="#e8e9e8" d="M300 200h100v100H300z"/><path fill="#e9eae9" d="M400 200h100v100H400z"/><path fill="#efefef" d="M500 200h100v100H500z"/><path fill="#f7f8f7" d="M600 200h100v100H600z"/><path fill="#fafbfb" d="M700 200h100v100H700z"/><path fill="#e5f1ea" d="M0 300h100v100H0z"/><path fill="#ecf4ef" d="M100 300h100v100H100z"/><path fill="#fcfcfc" d="M200 300h100v100H200z"/><path fill="#fafbfb" d="M300 300h100v100H300z"/><path fill="#fafcfb" d="M400 300h100v100H400z"/><path fill="#fcfefd" d="M500 300h100v100H500z"/><path fill="#fefeff" d="M600 300h100v100H600z"/><path fill="#f7faf9" d="M700 300h100v100H700z"/></svg>