<svg xmlns="http://www.w3.org/2000/svg" viewBox="0 0 800 500"><defs/><path fill="#7f7579" d="M0 0h100v100H0z"/><path fill="#977c65" d="M100 0h100v100H100z"/><path fill="#a09c9f" d="M200 0h100v100H200z"/><path fill="#c0bcba" d="M300 0h100v100H300z"/><path fill="#d6cbbe" d="M400 0h100v100H400z"/><path fill="#c3b2aa" d="M500 0h100v100H500z"/><path fill="#ad9996" d="M600 0h100v100H600z"/><path fill="#9f847c" d="M700 0h100v100H700z"/><path fill="#877777" d="M0 100h100v100H0z"/><path fill="#9b7a5b" d="M100 100h100v100H100z"/><path fill="#b1aea5" d="M200 100h100v100H200z"/><path fill="#c8c7bc" d="M300 100h100v100H300z"/><path fill="#d1cec7" d="M400 100h100v100H400z"/><path fill="#b7b4a0" d="M500 100h100v100H500z"/><path fill="#ae9d9a" d="M600 100h100v100H600z"/><path fill="#af8c8a" d="M700 100h100v100H700z"/><path fill="#866f62" d="M0 200h100v100H0z"/><path fill="#9d8772" d="M100 200h100v100H100z"/><path fill="#a3aea4" d="M200 200h100v100H200z"/><path fill="#c9c9bd" d="M300 200h100v100H300z"/><path fill="#d6d4cd" d="M400 200h100v100H400z"/><path fill="#c0c2ac" d="M500 200h100v100H500z"/><path fill="#c0ac9e" d="M600 200h100v100H600z"/><path fill="#b58884" d="M700 200h100v100H700z"/><path fill="#836047" d="M0 300h100v100H0z"/><path fill="#90795a" d="M100 300h100v100H100z"/><path fill="#777d60" d="M200 300h100v100H200z"/><path fill="#cec5ad" d="M300 300h100v100H300z"/><path fill="#d6cac5" d="M400 300h100v100H400z"/><path fill="#d1bfaf" d="M500 300h100v100H500z"/><path fill="#bea482" d="M600 300h100v100H600z"/><path fill="#af856c" d="M700 300h100v100H700z"/><path fill="#94785e" d="M0 400h100v100H0z"/><path fill="#a99682" d="M100 400h100v100H100z"/><path fill="#b4aba5" d="M200 400h100v100H200z"/><path fill="#e2d6c3" d="M300 400h100v100H300z"/><path fill="#dfd3c4" d="M400 400h100v100H400z"/><path fill="#d2c3b4" d="M500 400h100v100H500z"/><path fill="#baa699" d="M600 400h100v100H600z"/><path fill="#9a7661" d="M700 400h100v100H700z"/></svg>