<svg xmlns="http://www.w3.org/2000/svg" viewBox="0 0 800 400"><defs/><path fill="#ebd927" d="M0 0h100v100H0z"/><path fill="#cfc020" d="M100 0h100v100H100z"/><path fill="#f2dd22" d="M200 0h100v100H200z"/><path fill="#fae524" d="M300 0h100v100H300z"/><path fill="#f7e226" d="M400 0h100v100H400z"/><path fill="#f8e328" d="M500 0h100v100H500z"/><path fill="#f6e12b" d="M600 0h100v100H600z"/><path fill="#f3e02b" d="M700 0h100v100H700z"/><path fill="#e9d50e" d="M0 100h100v100H0z"/><path fill="#d4c200" d="M100 100h100v100H100z"/><path fill="#ffe600" d="M200 100h100v100H200zm100 0h100v100H300zm100 0h100v100H400zm100 0h100v100H500z"/><path fill="#fde400" d="M600 100h100v100H600z"/><path fill="#fae100" d="M700 100h100v100H700z"/><path fill="#d9c816" d="M0 200h100v100H0z"/><path fill="#cebd06" d="M100 200h100v100H100z"/><path fill="#fce300" d="M200 200h100v100H200z"/><path fill="#f0de2b" d="M300 200h100v100H300z"/><path fill="#f1df2f" d="M400 200h100v100H400z"/><path fill="#fae100" d="M500 200h100v100H500z"/><path fill="#f6de04" d="M600 200h100v100H600z"/><path fill="#f5de03" d="M700 200h100v100H700z"/><path fill="#cebf16" d="M0 300h100v100H0z"/><path fill="#e0cc01" d="M100 300h100v100H100z"/><path fill="#ffe700" d="M200 300h100v100H200z"/><path fill="#f3de0f" d="M300 300h100v100H300z"/><path fill="#f4de10" d="M400 300h100v100H400z"/><path fill="#ffe500" d="M500 300h100v100H500z"/><path fill="#fee401" d="M600 300h100v100H600z"/><path fill="#f5dd03" d="M700 300h100v100H700z"/></svg>