<svg xmlns="http://www.w3.org/2000/svg" viewBox="0 0 800 600"><defs/><path fill="#fbfefe" d="M0 0h100v100H0z"/><path fill="#ebecf3" d="M100 0h100v100H100z"/><path fill="#e5f5f2" d="M200 0h100v100H200z"/><path fill="#d6f0f1" d="M300 0h100v100H300z"/><path fill="#d1eeee" d="M400 0h100v100H400z"/><path fill="#d8f0f1" d="M500 0h100v100H500z"/><path fill="#ddf3f5" d="M600 0h100v100H600z"/><path fill="#f8fcfc" d="M700 0h100v100H700z"/><path fill="#ced8cc" d="M0 100h100v100H0z"/><path fill="#b48c8f" d="M100 100h100v100H100z"/><path fill="#3a65d3" d="M200 100h100v100H200z"/><path fill="#90cad4" d="M300 100h100v100H300z"/><path fill="#c3ddd7" d="M400 100h100v100H400z"/><path fill="#84cec7" d="M500 100h100v100H500z"/><path fill="#49b7aa" d="M600 100h100v100H600z"/><path fill="#c7d5d3" d="M700 100h100v100H700z"/><path fill="#d0d6cd" d="M0 200h100v100H0z"/><path fill="#aa8797" d="M100 200h100v100H100z"/><path fill="#5b72ef" d="M200 200h100v100H200z"/><path fill="#9bc4cf" d="M300 200h100v100H300z"/><path fill="#bfe3d8" d="M400 200h100v100H400z"/><path fill="#82c4c5" d="M500 200h100v100H500z"/><path fill="#7899c0" d="M600 200h100v100H600z"/><path fill="#bdbab4" d="M700 200h100v100H700z"/><path fill="#e2cccd" d="M0 300h100v100H0z"/><path fill="#c4a9a1" d="M100 300h100v100H100z"/><path fill="#d9d0cf" d="M200 300h100v100H200z"/><path fill="#87b7de" d="M300 300h100v100H300z"/><path fill="#91c0ba" d="M400 300h100v100H400z"/><path fill="#79aec0" d="M500 300h100v100H500z"/><path fill="#88a0d5" d="M600 300h100v100H600z"/><path fill="#bdbac7" d="M700 300h100v100H700z"/><path fill="#dcbdb4" d="M0 400h100v100H0z"/><path fill="#d8c1c3" d="M100 400h100v100H100z"/><path fill="#c0bcdd" d="M200 400h100v100H200z"/><path fill="#dbaea0" d="M300 400h100v100H300z"/><path fill="#f1b48d" d="M400 400h100v100H400z"/><path fill="#d7b3b7" d="M500 400h100v100H500z"/><path fill="#c89e8f" d="M600 400h100v100H600z"/><path fill="#b5c5e7" d="M700 400h100v100H700z"/><path fill="#f7f5f5" d="M0 500h100v100H0z"/><path fill="#f7f7fb" d="M100 500h100v100H100z"/><path fill="#e1e1f4" d="M200 500h100v100H200z"/><path fill="#f7e8dc" d="M300 500h100v100H300z"/><path fill="#faf1e8" d="M400 500h100v100H400z"/><path fill="#f3eeee" d="M500 500h100v100H500z"/><path fill="#e7e4f0" d="M600 500h100v100H600z"/><path fill="#f3f6fd" d="M700 500h100v100H700z"/></svg>