<svg xmlns="http://www.w3.org/2000/svg" viewBox="0 0 800 400"><defs/><path fill="#bea86c" d="M0 0h100v100H0z"/><path fill="#5d4228" d="M100 0h100v100H100z"/><path fill="#c6b070" d="M200 0h100v100H200z"/><path fill="#e0c481" d="M300 0h100v100H300z"/><path fill="#9ebb56" d="M400 0h100v100H400z"/><path fill="#55cb2b" d="M500 0h100v100H500z"/><path fill="#2bba33" d="M600 0h100v100H600z"/><path fill="#3ab328" d="M700 0h100v100H700z"/><path fill="#a8905b" d="M0 100h100v100H0z"/><path fill="#694d29" d="M100 100h100v100H100z"/><path fill="#cbbb7d" d="M200 100h100v100H200z"/><path fill="#9c9566" d="M300 100h100v100H300z"/><path fill="#93c446" d="M400 100h100v100H400z"/><path fill="#5dde29" d="M500 100h100v100H500z"/><path fill="#34d629" d="M600 100h100v100H600z"/><path fill="#21b010" d="M700 100h100v100H700z"/><path fill="#877049" d="M0 200h100v100H0z"/><path fill="#664421" d="M100 200h100v100H100z"/><path fill="#9f8559" d="M200 200h100v100H200z"/><path fill="#686a5f" d="M300 200h100v100H300z"/><path fill="#be8e51" d="M400 200h100v100H400z"/><path fill="#a28d3c" d="M500 200h100v100H500z"/><path fill="#4e9c1e" d="M600 200h100v100H600z"/><path fill="#1bab16" d="M700 200h100v100H700z"/><path fill="#705232" d="M0 300h100v100H0z"/><path fill="#672f09" d="M100 300h100v100H100z"/><path fill="#8e440f" d="M200 300h100v100H200z"/><path fill="#8d4713" d="M300 300h100v100H300z"/><path fill="#863f0c" d="M400 300h100v100H400z"/><path fill="#8b3e11" d="M500 300h100v100H500z"/><path fill="#873d0e" d="M600 300h100v100H600z"/><path fill="#61611e" d="M700 300h100v100H700z"/></svg>