<svg xmlns="http://www.w3.org/2000/svg" viewBox="0 0 800 400"><defs/><path fill="#c3988d" d="M0 0h100v100H0z"/><path fill="#c36e74" d="M100 0h100v100H100z"/><path fill="#bcb1a1" d="M200 0h100v100H200z"/><path fill="#c4b3a4" d="M300 0h100v100H300z"/><path fill="#b8a596" d="M400 0h100v100H400z"/><path fill="#a6929e" d="M500 0h100v100H500z"/><path fill="#847486" d="M600 0h100v100H600z"/><path fill="#927c73" d="M700 0h100v100H700z"/><path fill="#bc817f" d="M0 100h100v100H0z"/><path fill="#bb696b" d="M100 100h100v100H100z"/><path fill="#a38e7a" d="M200 100h100v100H200z"/><path fill="#a89589" d="M300 100h100v100H300z"/><path fill="#9d9a90" d="M400 100h100v100H400z"/><path fill="#847d89" d="M500 100h100v100H500z"/><path fill="#8a6688" d="M600 100h100v100H600z"/><path fill="#8c677c" d="M700 100h100v100H700z"/><path fill="#b66a6f" d="M0 200h100v100H0z"/><path fill="#a26c64" d="M100 200h100v100H100z"/><path fill="#a0877e" d="M200 200h100v100H200z"/><path fill="#907a7f" d="M300 200h100v100H300z"/><path fill="#a57d5c" d="M400 200h100v100H400z"/><path fill="#ab784f" d="M500 200h100v100H500z"/><path fill="#976e61" d="M600 200h100v100H600z"/><path fill="#9a696d" d="M700 200h100v100H700z"/><path fill="#a2575b" d="M0 300h100v100H0z"/><path fill="#a57e6c" d="M100 300h100v100H100z"/><path fill="#b9a290" d="M200 300h100v100H200z"/><path fill="#ac9996" d="M300 300h100v100H300z"/><path fill="#b18d70" d="M400 300h100v100H400z"/><path fill="#a98252" d="M500 300h100v100H500z"/><path fill="#9a785f" d="M600 300h100v100H600z"/><path fill="#a37d71" d="M700 300h100v100H700z"/></svg>