<svg xmlns="http://www.w3.org/2000/svg" viewBox="0 0 800 400"><defs/><path fill="#735629" d="M0 0h100v100H0z"/><path fill="#472b12" d="M100 0h100v100H100z"/><path fill="#523c1c" d="M200 0h100v100H200z"/><path fill="#504124" d="M300 0h100v100H300z"/><path fill="#513d1f" d="M400 0h100v100H400z"/><path fill="#4f4022" d="M500 0h100v100H500z"/><path fill="#3e2a11" d="M600 0h100v100H600z"/><path fill="#674d24" d="M700 0h100v100H700z"/><path fill="#705127" d="M0 100h100v100H0z"/><path fill="#533516" d="M100 100h100v100H100z"/><path fill="#5c4826" d="M200 100h100v100H200z"/><path fill="#585135" d="M300 100h100v100H300z"/><path fill="#655126" d="M400 100h100v100H400z"/><path fill="#524d39" d="M500 100h100v100H500z"/><path fill="#554427" d="M600 100h100v100H600z"/><path fill="#664c28" d="M700 100h100v100H700z"/><path fill="#664721" d="M0 200h100v100H0z"/><path fill="#513619" d="M100 200h100v100H100z"/><path fill="#5b533d" d="M200 200h100v100H200z"/><path fill="#6a6a4a" d="M300 200h100v100H300z"/><path fill="#625f44" d="M400 200h100v100H400z"/><path fill="#6c6c56" d="M500 200h100v100H500z"/><path fill="#585d4c" d="M600 200h100v100H600z"/><path fill="#71604f" d="M700 200h100v100H700z"/><path fill="#58391b" d="M0 300h100v100H0z"/><path fill="#6e4124" d="M100 300h100v100H100z"/><path fill="#61533a" d="M200 300h100v100H200z"/><path fill="#635e45" d="M300 300h100v100H300z"/><path fill="#5f553e" d="M400 300h100v100H400z"/><path fill="#5b4e3a" d="M500 300h100v100H500z"/><path fill="#534b39" d="M600 300h100v100H600z"/><path fill="#5c4738" d="M700 300h100v100H700z"/></svg>