<svg xmlns="http://www.w3.org/2000/svg" viewBox="0 0 800 400"><defs/><path fill="#aaa398" d="M0 0h100v100H0z"/><path fill="#836847" d="M100 0h100v100H100z"/><path fill="#b4af9f" d="M200 0h100v100H200z"/><path fill="#bfb7ad" d="M300 0h100v100H300z"/><path fill="#c4beb2" d="M400 0h100v100H400z"/><path fill="#cbc3b3" d="M500 0h100v100H500z"/><path fill="#beb5a4" d="M600 0h100v100H600z"/><path fill="#d4ccc2" d="M700 0h100v100H700z"/><path fill="#97897f" d="M0 100h100v100H0z"/><path fill="#715024" d="M100 100h100v100H100z"/><path fill="#a59081" d="M200 100h100v100H200z"/><path fill="#45564e" d="M300 100h100v100H300z"/><path fill="#50554b" d="M400 100h100v100H400z"/><path fill="#94aaa2" d="M500 100h100v100H500z"/><path fill="#7f8478" d="M600 100h100v100H600z"/><path fill="#807972" d="M700 100h100v100H700z"/><path fill="#8b725d" d="M0 200h100v100H0z"/><path fill="#614633" d="M100 200h100v100H100z"/><path fill="#6b564a" d="M200 200h100v100H200z"/><path fill="#5c5f52" d="M300 200h100v100H300z"/><path fill="#6e604d" d="M400 200h100v100H400z"/><path fill="#7c8978" d="M500 200h100v100H500z"/><path fill="#4d4741" d="M600 200h100v100H600z"/><path fill="#80705a" d="M700 200h100v100H700z"/><path fill="#a08865" d="M0 300h100v100H0z"/><path fill="#683f45" d="M100 300h100v100H100z"/><path fill="#7e675c" d="M200 300h100v100H200z"/><path fill="#8a7866" d="M300 300h100v100H300z"/><path fill="#706f7d" d="M400 300h100v100H400z"/><path fill="#877a62" d="M500 300h100v100H500z"/><path fill="#625d4b" d="M600 300h100v100H600z"/><path fill="#655845" d="M700 300h100v100H700z"/></svg>