<svg xmlns="http://www.w3.org/2000/svg" viewBox="0 0 800 400"><defs/><path fill="#e2c7c5" d="M0 0h100v100H0z"/><path fill="#c4a59b" d="M100 0h100v100H100z"/><path fill="#dbc5c4" d="M200 0h100v100H200z"/><path fill="#eed5d3" d="M300 0h100v100H300z"/><path fill="#dfe2eb" d="M400 0h100v100H400z"/><path fill="#cbcfd9" d="M500 0h100v100H500z"/><path fill="#ead2d0" d="M600 0h100v100H600z"/><path fill="#e7cece" d="M700 0h100v100H700z"/><path fill="#d8bbb6" d="M0 100h100v100H0z"/><path fill="#d5b0ab" d="M100 100h100v100H100z"/><path fill="#c0a8a4" d="M200 100h100v100H200z"/><path fill="#a59694" d="M300 100h100v100H300z"/><path fill="#a19e9d" d="M400 100h100v100H400z"/><path fill="#c6bbbf" d="M500 100h100v100H500z"/><path fill="#eed4d7" d="M600 100h100v100H600z"/><path fill="#caa1a2" d="M700 100h100v100H700z"/><path fill="#d3b1ad" d="M0 200h100v100H0z"/><path fill="#b0968f" d="M100 200h100v100H100z"/><path fill="#8e8676" d="M200 200h100v100H200z"/><path fill="#807563" d="M300 200h100v100H300z"/><path fill="#887d6a" d="M400 200h100v100H400z"/><path fill="#9e9483" d="M500 200h100v100H500z"/><path fill="#a0958a" d="M600 200h100v100H600z"/><path fill="#a69996" d="M700 200h100v100H700z"/><path fill="#c1a598" d="M0 300h100v100H0z"/><path fill="#9e8b74" d="M100 300h100v100H100z"/><path fill="#8e8963" d="M200 300h100v100H200z"/><path fill="#8a7b5b" d="M300 300h100v100H300z"/><path fill="#9b8764" d="M400 300h100v100H400z"/><path fill="#a49775" d="M500 300h100v100H500z"/><path fill="#807855" d="M600 300h100v100H600z"/><path fill="#81756b" d="M700 300h100v100H700z"/></svg>