<svg xmlns="http://www.w3.org/2000/svg" viewBox="0 0 800 500"><defs/><path fill="#e4f0f0" d="M0 0h100v100H0z"/><path fill="#dff1ef" d="M100 0h100v100H100z"/><path fill="#e3f3f3" d="M200 0h100v100H200z"/><path fill="#eaf6f6" d="M300 0h100v100H300z"/><path fill="#e5f1f1" d="M400 0h100v100H400z"/><path fill="#e4f2f2" d="M500 0h100v100H500z"/><path fill="#e5f4f4" d="M600 0h100v100H600z"/><path fill="#e5f6f6" d="M700 0h100v100H700z"/><path fill="#daebe9" d="M0 100h100v100H0z"/><path fill="#bae0cd" d="M100 100h100v100H100z"/><path fill="#d9e9e8" d="M200 100h100v100H200z"/><path fill="#cfd8db" d="M300 100h100v100H300z"/><path fill="#cfdadd" d="M400 100h100v100H400z"/><path fill="#c7cfd3" d="M500 100h100v100H500z"/><path fill="#c5cfd3" d="M600 100h100v100H600z"/><path fill="#d0e3e1" d="M700 100h100v100H700z"/><path fill="#d7efe9" d="M0 200h100v100H0z"/><path fill="#b7d9c9" d="M100 200h100v100H100z"/><path fill="#d3dbdd" d="M200 200h100v100H200z"/><path fill="#aeb7ba" d="M300 200h100v100H300z"/><path fill="#b2b9bc" d="M400 200h100v100H400z"/><path fill="#c0c4c8" d="M500 200h100v100H500z"/><path fill="#babfc1" d="M600 200h100v100H600z"/><path fill="#c4d1d1" d="M700 200h100v100H700z"/><path fill="#c0e4d8" d="M0 300h100v100H0z"/><path fill="#add2c1" d="M100 300h100v100H100z"/><path fill="#cbd3d7" d="M200 300h100v100H200z"/><path fill="#d3dcdf" d="M300 300h100v100H300z"/><path fill="#d7dfe3" d="M400 300h100v100H400z"/><path fill="#bdc4c8" d="M500 300h100v100H500z"/><path fill="#bfc6c9" d="M600 300h100v100H600z"/><path fill="#cbdad9" d="M700 300h100v100H700z"/><path fill="#c8e7e1" d="M0 400h100v100H0z"/><path fill="#cfe9e6" d="M100 400h100v100H100z"/><path fill="#d5e4e5" d="M200 400h100v100H200z"/><path fill="#dcebec" d="M300 400h100v100H300z"/><path fill="#deedef" d="M400 400h100v100H400z"/><path fill="#cbd8da" d="M500 400h100v100H500z"/><path fill="#d0dbde" d="M600 400h100v100H600z"/><path fill="#cbdddd" d="M700 400h100v100H700z"/></svg>