<svg xmlns="http://www.w3.org/2000/svg" viewBox="0 0 800 400"><defs/><path fill="#dcca94" d="M0 0h100v100H0z"/><path fill="#a29361" d="M100 0h100v100H100z"/><path fill="#2b4038" d="M200 0h100v100H200z"/><path fill="#597b6c" d="M300 0h100v100H300z"/><path fill="#9dd1b6" d="M400 0h100v100H400z"/><path fill="#8fb7a1" d="M500 0h100v100H500z"/><path fill="#5c4f3d" d="M600 0h100v100H600z"/><path fill="#605950" d="M700 0h100v100H700z"/><path fill="#beaa79" d="M0 100h100v100H0z"/><path fill="#888453" d="M100 100h100v100H100z"/><path fill="#1b382d" d="M200 100h100v100H200z"/><path fill="#3c5444" d="M300 100h100v100H300z"/><path fill="#78a88c" d="M400 100h100v100H400z"/><path fill="#607d68" d="M500 100h100v100H500z"/><path fill="#362413" d="M600 100h100v100H600z"/><path fill="#444138" d="M700 100h100v100H700z"/><path fill="#ab9872" d="M0 200h100v100H0z"/><path fill="#636243" d="M100 200h100v100H100z"/><path fill="#79785d" d="M200 200h100v100H200z"/><path fill="#563d27" d="M300 200h100v100H300z"/><path fill="#4b3c30" d="M400 200h100v100H400z"/><path fill="#4f493a" d="M500 200h100v100H500z"/><path fill="#392f22" d="M600 200h100v100H600z"/><path fill="#473f39" d="M700 200h100v100H700z"/><path fill="#83705a" d="M0 300h100v100H0z"/><path fill="#6d5b47" d="M100 300h100v100H100z"/><path fill="#715d4e" d="M200 300h100v100H200z"/><path fill="#442d26" d="M300 300h100v100H300z"/><path fill="#391b17" d="M400 300h100v100H400z"/><path fill="#3c2420" d="M500 300h100v100H500z"/><path fill="#2d201b" d="M600 300h100v100H600z"/><path fill="#393633" d="M700 300h100v100H700z"/></svg>