<svg xmlns="http://www.w3.org/2000/svg" viewBox="0 0 800 400"><defs/><path fill="#909589" d="M0 0h100v100H0z"/><path fill="#8b908d" d="M100 0h100v100H100z"/><path fill="#838b8a" d="M200 0h100v100H200z"/><path fill="#8a8d93" d="M300 0h100v100H300z"/><path fill="#868c8a" d="M400 0h100v100H400z"/><path fill="#847e79" d="M500 0h100v100H500z"/><path fill="#948e8c" d="M600 0h100v100H600z"/><path fill="#8b9296" d="M700 0h100v100H700z"/><path fill="#97967e" d="M0 100h100v100H0z"/><path fill="#677a7d" d="M100 100h100v100H100z"/><path fill="#628c90" d="M200 100h100v100H200z"/><path fill="#6d776e" d="M300 100h100v100H300z"/><path fill="#637e7a" d="M400 100h100v100H400z"/><path fill="#596260" d="M500 100h100v100H500z"/><path fill="#6b5658" d="M600 100h100v100H600z"/><path fill="#726765" d="M700 100h100v100H700z"/><path fill="#8b8562" d="M0 200h100v100H0z"/><path fill="#6d5b69" d="M100 200h100v100H100z"/><path fill="#73656e" d="M200 200h100v100H200z"/><path fill="#686a5e" d="M300 200h100v100H300z"/><path fill="#65736b" d="M400 200h100v100H400z"/><path fill="#524f57" d="M500 200h100v100H500z"/><path fill="#60504f" d="M600 200h100v100H600z"/><path fill="#616152" d="M700 200h100v100H700z"/><path fill="#81837d" d="M0 300h100v100H0z"/><path fill="#755362" d="M100 300h100v100H100z"/><path fill="#8f6c69" d="M200 300h100v100H200z"/><path fill="#859daa" d="M300 300h100v100H300z"/><path fill="#949b9e" d="M400 300h100v100H400z"/><path fill="#8d8a8f" d="M500 300h100v100H500z"/><path fill="#827873" d="M600 300h100v100H600z"/><path fill="#696861" d="M700 300h100v100H700z"/></svg>