<svg xmlns="http://www.w3.org/2000/svg" viewBox="0 0 800 400"><defs/><path fill="#997d5c" d="M0 0h100v100H0z"/><path fill="#8d7454" d="M100 0h100v100H100z"/><path fill="#947956" d="M200 0h100v100H200z"/><path fill="#b09779" d="M300 0h100v100H300z"/><path fill="#a38969" d="M400 0h100v100H400z"/><path fill="#997d59" d="M500 0h100v100H500z"/><path fill="#9e825f" d="M600 0h100v100H600z"/><path fill="#9e825e" d="M700 0h100v100H700z"/><path fill="#a78d6e" d="M0 100h100v100H0z"/><path fill="#a79072" d="M100 100h100v100H100z"/><path fill="#b29a7f" d="M200 100h100v100H200z"/><path fill="#b9aa98" d="M300 100h100v100H300z"/><path fill="#b19f88" d="M400 100h100v100H400z"/><path fill="#b0997c" d="M500 100h100v100H500z"/><path fill="#ad977a" d="M600 100h100v100H600z"/><path fill="#ab997e" d="M700 100h100v100H700z"/><path fill="#ab9277" d="M0 200h100v100H0z"/><path fill="#af9981" d="M100 200h100v100H100z"/><path fill="#a79882" d="M200 200h100v100H200z"/><path fill="#a69e8d" d="M300 200h100v100H300z"/><path fill="#b0a99b" d="M400 200h100v100H400z"/><path fill="#b3a28e" d="M500 200h100v100H500z"/><path fill="#af9b83" d="M600 200h100v100H600z"/><path fill="#af9a7f" d="M700 200h100v100H700z"/><path fill="#a88f74" d="M0 300h100v100H0z"/><path fill="#a99073" d="M100 300h100v100H100z"/><path fill="#9b8668" d="M200 300h100v100H200z"/><path fill="#a19279" d="M300 300h100v100H300z"/><path fill="#af9f89" d="M400 300h100v100H400z"/><path fill="#aa967b" d="M500 300h100v100H500z"/><path fill="#ac9375" d="M600 300h100v100H600z"/><path fill="#ae9577" d="M700 300h100v100H700z"/></svg>