<svg xmlns="http://www.w3.org/2000/svg" viewBox="0 0 800 400"><defs/><path fill="#94a099" d="M0 0h100v100H0z"/><path fill="#cca296" d="M100 0h100v100H100z"/><path fill="#af5c69" d="M200 0h100v100H200z"/><path fill="#955a6b" d="M300 0h100v100H300z"/><path fill="#835063" d="M400 0h100v100H400z"/><path fill="#a4707b" d="M500 0h100v100H500z"/><path fill="#a37878" d="M600 0h100v100H600z"/><path fill="#d3b298" d="M700 0h100v100H700z"/><path fill="#969a93" d="M0 100h100v100H0z"/><path fill="#ad877d" d="M100 100h100v100H100z"/><path fill="#9f6473" d="M200 100h100v100H200z"/><path fill="#925f70" d="M300 100h100v100H300z"/><path fill="#a47988" d="M400 100h100v100H400z"/><path fill="#b17c81" d="M500 100h100v100H500z"/><path fill="#a68179" d="M600 100h100v100H600z"/><path fill="#a38d90" d="M700 100h100v100H700z"/><path fill="#b9aea7" d="M0 200h100v100H0z"/><path fill="#6d575f" d="M100 200h100v100H100z"/><path fill="#827683" d="M200 200h100v100H200z"/><path fill="#c8abac" d="M300 200h100v100H300z"/><path fill="#dcdbdc" d="M400 200h100v100H400z"/><path fill="#b39899" d="M500 200h100v100H500z"/><path fill="#917374" d="M600 200h100v100H600z"/><path fill="#c4abb0" d="M700 200h100v100H700z"/><path fill="#d5c1b7" d="M0 300h100v100H0z"/><path fill="#b79b94" d="M100 300h100v100H100z"/><path fill="#b8b3ad" d="M200 300h100v100H200z"/><path fill="#a2998f" d="M300 300h100v100H300z"/><path fill="#847c76" d="M400 300h100v100H400z"/><path fill="#bfb9ac" d="M500 300h100v100H500z"/><path fill="#e3ceb8" d="M600 300h100v100H600z"/><path fill="#d78a89" d="M700 300h100v100H700z"/></svg>