<svg xmlns="http://www.w3.org/2000/svg" viewBox="0 0 800 500"><defs/><path fill="#dfd1bc" d="M0 0h100v100H0z"/><path fill="#c8ad98" d="M100 0h100v100H100z"/><path fill="#c8b0a0" d="M200 0h100v100H200z"/><path fill="#c6b3a3" d="M300 0h100v100H300z"/><path fill="#cfc8ba" d="M400 0h100v100H400z"/><path fill="#cbc0b0" d="M500 0h100v100H500z"/><path fill="#bfac9f" d="M600 0h100v100H600z"/><path fill="#ccbeae" d="M700 0h100v100H700z"/><path fill="#d9c4ad" d="M0 100h100v100H0z"/><path fill="#c09f88" d="M100 100h100v100H100z"/><path fill="#ad8075" d="M200 100h100v100H200z"/><path fill="#af8e82" d="M300 100h100v100H300z"/><path fill="#c0bbad" d="M400 100h100v100H400z"/><path fill="#b8ab9b" d="M500 100h100v100H500z"/><path fill="#b29f92" d="M600 100h100v100H600z"/><path fill="#cdbead" d="M700 100h100v100H700z"/><path fill="#bda28a" d="M0 200h100v100H0z"/><path fill="#c4ac96" d="M100 200h100v100H100z"/><path fill="#b8a599" d="M200 200h100v100H200z"/><path fill="#a79e92" d="M300 200h100v100H300z"/><path fill="#aaa294" d="M400 200h100v100H400z"/><path fill="#b0a291" d="M500 200h100v100H500z"/><path fill="#a89b8b" d="M600 200h100v100H600z"/><path fill="#b0a495" d="M700 200h100v100H700z"/><path fill="#ae896d" d="M0 300h100v100H0z"/><path fill="#af947d" d="M100 300h100v100H100z"/><path fill="#c4b6a6" d="M200 300h100v100H200z"/><path fill="#a78d7a" d="M300 300h100v100H300z"/><path fill="#91715b" d="M400 300h100v100H400z"/><path fill="#a49482" d="M500 300h100v100H500z"/><path fill="#9c8d7f" d="M600 300h100v100H600z"/><path fill="#908a74" d="M700 300h100v100H700z"/><path fill="#bfa78b" d="M0 400h100v100H0z"/><path fill="#b8a28f" d="M100 400h100v100H100z"/><path fill="#b9aa97" d="M200 400h100v100H200z"/><path fill="#b6998d" d="M300 400h100v100H300z"/><path fill="#a9897d" d="M400 400h100v100H400z"/><path fill="#a49786" d="M500 400h100v100H500z"/><path fill="#9b8a7c" d="M600 400h100v100H600z"/><path fill="#9a9479" d="M700 400h100v100H700z"/></svg>