<svg xmlns="http://www.w3.org/2000/svg" viewBox="0 0 800 400"><defs/><path fill="#bda099" d="M0 0h100v100H0z"/><path fill="#614d43" d="M100 0h100v100H100z"/><path fill="#759594" d="M200 0h100v100H200z"/><path fill="#99acae" d="M300 0h100v100H300z"/><path fill="#95b1bd" d="M400 0h100v100H400z"/><path fill="#9dbccf" d="M500 0h100v100H500z"/><path fill="#71767c" d="M600 0h100v100H600z"/><path fill="#685144" d="M700 0h100v100H700z"/><path fill="#aa8e84" d="M0 100h100v100H0z"/><path fill="#6c6159" d="M100 100h100v100H100z"/><path fill="#87a3a6" d="M200 100h100v100H200z"/><path fill="#afbcb7" d="M300 100h100v100H300z"/><path fill="#b2c4cb" d="M400 100h100v100H400z"/><path fill="#aec3ca" d="M500 100h100v100H500z"/><path fill="#6b7074" d="M600 100h100v100H600z"/><path fill="#6b5448" d="M700 100h100v100H700z"/><path fill="#987a6b" d="M0 200h100v100H0z"/><path fill="#796e63" d="M100 200h100v100H100z"/><path fill="#868d8b" d="M200 200h100v100H200z"/><path fill="#7c7f73" d="M300 200h100v100H300z"/><path fill="#64797a" d="M400 200h100v100H400z"/><path fill="#6c6c69" d="M500 200h100v100H500z"/><path fill="#938788" d="M600 200h100v100H600z"/><path fill="#80645a" d="M700 200h100v100H700z"/><path fill="#896b5c" d="M0 300h100v100H0z"/><path fill="#9c816a" d="M100 300h100v100H100z"/><path fill="#b79d89" d="M200 300h100v100H200z"/><path fill="#ac8a7c" d="M300 300h100v100H300z"/><path fill="#8d6460" d="M400 300h100v100H400z"/><path fill="#946d68" d="M500 300h100v100H500z"/><path fill="#b59993" d="M600 300h100v100H600z"/><path fill="#9a847e" d="M700 300h100v100H700z"/></svg>