<svg xmlns="http://www.w3.org/2000/svg" viewBox="0 0 800 600"><defs/><path fill="#fbfbfb" d="M0 0h100v100H0z"/><path fill="#f5f5f5" d="M100 0h100v100H100z"/><path fill="#f7f7f7" d="M200 0h100v100H200z"/><path fill="#f9f9f9" d="M300 0h100v100H300z"/><path fill="#f7f7f7" d="M400 0h100v100H400z"/><path fill="#f8f8f8" d="M500 0h100v100H500z"/><path fill="#fafafa" d="M600 0h100v100H600z"/><path fill="#fbfbfb" d="M700 0h100v100H700z"/><path fill="#f8f8f8" d="M0 100h100v100H0z"/><path fill="#dedede" d="M100 100h100v100H100z"/><path fill="#f8f8f8" d="M200 100h100v100H200z"/><path fill="#f5f5f5" d="M300 100h100v100H300z"/><path fill="#e6e5e5" d="M400 100h100v100H400z"/><path fill="#e4e3e3" d="M500 100h100v100H500z"/><path fill="#fbfbfb" d="M600 100h100v100H600z"/><path fill="#f9f9f9" d="M700 100h100v100H700z"/><path fill="#f3f3f3" d="M0 200h100v100H0z"/><path fill="#e3e3e3" d="M100 200h100v100H100z"/><path fill="#f4f4f4" d="M200 200h100v100H200z"/><path fill="#f6f6f6" d="M300 200h100v100H300z"/><path fill="#f1f4f4" d="M400 200h100v100H400z"/><path fill="#f4fbfc" d="M500 200h100v100H500z"/><path fill="#fdfdfd" d="M600 200h100v100H600z"/><path fill="#fafafa" d="M700 200h100v100H700z"/><path fill="#ececec" d="M0 300h100v100H0z"/><path fill="#efefef" d="M100 300h100v100H100z"/><path fill="#878686" d="M200 300h100v100H200z"/><path fill="#a8abaa" d="M300 300h100v100H300z"/><path fill="#fff6f4" d="M400 300h100v100H400z"/><path fill="#d6a09f" d="M500 300h100v100H500z"/><path fill="#faf8f8" d="M600 300h100v100H600z"/><path fill="#f9fafa" d="M700 300h100v100H700z"/><path fill="#e8e7e7" d="M0 400h100v100H0z"/><path fill="#eee" d="M100 400h100v100H100z"/><path fill="#a3a2a1" d="M200 400h100v100H200z"/><path fill="#a9acac" d="M300 400h100v100H300z"/><path fill="#ddd2d9" d="M400 400h100v100H400z"/><path fill="#b58d96" d="M500 400h100v100H500z"/><path fill="#eeeff2" d="M600 400h100v100H600z"/><path fill="#f8f9f8" d="M700 400h100v100H700z"/><path fill="#f9f9f9" d="M0 500h100v100H0z"/><path fill="#fbfbfb" d="M100 500h100v100H100z"/><path fill="#fefefe" d="M200 500h100v100H200z"/><path fill="#fdfdfd" d="M300 500h100v100H300z"/><path fill="#f6fafb" d="M400 500h100v100H400z"/><path fill="#eefafd" d="M500 500h100v100H500z"/><path fill="#f2f5f8" d="M600 500h100v100H600z"/><path fill="#fbfafa" d="M700 500h100v100H700z"/></svg>