<svg xmlns="http://www.w3.org/2000/svg" viewBox="0 0 800 600"><defs/><path fill="#90929a" d="M0 0h100v100H0z"/><path fill="#c0b0ab" d="M100 0h100v100H100z"/><path fill="#cbb9b5" d="M200 0h100v100H200z"/><path fill="#a9a3ab" d="M300 0h100v100H300z"/><path fill="#b5abb0" d="M400 0h100v100H400z"/><path fill="#b2a9aa" d="M500 0h100v100H500z"/><path fill="#b3acae" d="M600 0h100v100H600z"/><path fill="#bab0b0" d="M700 0h100v100H700z"/><path fill="#8d929b" d="M0 100h100v100H0z"/><path fill="#666969" d="M100 100h100v100H100z"/><path fill="#918991" d="M200 100h100v100H200z"/><path fill="#958b9c" d="M300 100h100v100H300z"/><path fill="#908a90" d="M400 100h100v100H400z"/><path fill="#b3a4a6" d="M500 100h100v100H500z"/><path fill="#ba9890" d="M600 100h100v100H600z"/><path fill="#ae9086" d="M700 100h100v100H700z"/><path fill="#a0a6b1" d="M0 200h100v100H0z"/><path fill="#727970" d="M100 200h100v100H100z"/><path fill="#8e8e5e" d="M200 200h100v100H200z"/><path fill="#a69476" d="M300 200h100v100H300z"/><path fill="#786e69" d="M400 200h100v100H400z"/><path fill="#a59866" d="M500 200h100v100H500z"/><path fill="#9d6945" d="M600 200h100v100H600z"/><path fill="#c18d79" d="M700 200h100v100H700z"/><path fill="#a8a9af" d="M0 300h100v100H0z"/><path fill="#8c897c" d="M100 300h100v100H100z"/><path fill="#828a61" d="M200 300h100v100H200z"/><path fill="#848f91" d="M300 300h100v100H300z"/><path fill="#768495" d="M400 300h100v100H400z"/><path fill="#919689" d="M500 300h100v100H500z"/><path fill="#8c5b3c" d="M600 300h100v100H600z"/><path fill="#bc9b90" d="M700 300h100v100H700z"/><path fill="#939093" d="M0 400h100v100H0z"/><path fill="#927e7d" d="M100 400h100v100H100z"/><path fill="#8a8f94" d="M200 400h100v100H200z"/><path fill="#8a99a7" d="M300 400h100v100H300z"/><path fill="#93a5bd" d="M400 400h100v100H400z"/><path fill="#939eb7" d="M500 400h100v100H500z"/><path fill="#8a6a6b" d="M600 400h100v100H600z"/><path fill="#a58b87" d="M700 400h100v100H700z"/><path fill="#b2b9ca" d="M0 500h100v100H0z"/><path fill="#b5bbcf" d="M100 500h100v100H100z"/><path fill="#bec3d9" d="M200 500h100v100H200z"/><path fill="#c4c5d4" d="M300 500h100v100H300z"/><path fill="#c7c5ce" d="M400 500h100v100H400z"/><path fill="#c1bfc6" d="M500 500h100v100H500z"/><path fill="#c0c0c8" d="M600 500h100v100H600z"/><path fill="#bab8bf" d="M700 500h100v100H700z"/></svg>