<svg xmlns="http://www.w3.org/2000/svg" viewBox="0 0 800 600"><defs/><path fill="#d8dcdf" d="M0 0h100v100H0z"/><path fill="#dadbdb" d="M100 0h100v100H100z"/><path fill="#d9dcdd" d="M200 0h100v100H200z"/><path fill="#dadddf" d="M300 0h100v100H300z"/><path fill="#e1dbdb" d="M400 0h100v100H400z"/><path fill="#e1dcdb" d="M500 0h100v100H500zm100 0h100v100H600z"/><path fill="#e5e4e4" d="M700 0h100v100H700z"/><path fill="#5d6b7a" d="M0 100h100v100H0z"/><path fill="#585f5d" d="M100 100h100v100H100z"/><path fill="#5d6869" d="M200 100h100v100H200z"/><path fill="#88827c" d="M300 100h100v100H300z"/><path fill="#71585e" d="M400 100h100v100H400z"/><path fill="#b8b3be" d="M500 100h100v100H500z"/><path fill="#664f55" d="M600 100h100v100H600z"/><path fill="#716e6e" d="M700 100h100v100H700z"/><path fill="#697580" d="M0 200h100v100H0z"/><path fill="#525a5b" d="M100 200h100v100H100z"/><path fill="#606368" d="M200 200h100v100H200z"/><path fill="#a09189" d="M300 200h100v100H300z"/><path fill="#956a4b" d="M400 200h100v100H400z"/><path fill="#a58450" d="M500 200h100v100H500z"/><path fill="#966a41" d="M600 200h100v100H600z"/><path fill="#7b7775" d="M700 200h100v100H700z"/><path fill="#747e85" d="M0 300h100v100H0z"/><path fill="#696d67" d="M100 300h100v100H100z"/><path fill="#908d81" d="M200 300h100v100H200z"/><path fill="#baa992" d="M300 300h100v100H300z"/><path fill="#be8d5a" d="M400 300h100v100H400z"/><path fill="#bc8444" d="M500 300h100v100H500z"/><path fill="#c3925b" d="M600 300h100v100H600z"/><path fill="#9f836a" d="M700 300h100v100H700z"/><path fill="#788284" d="M0 400h100v100H0z"/><path fill="#8e8e7f" d="M100 400h100v100H100z"/><path fill="#aea68b" d="M200 400h100v100H200z"/><path fill="#dac49c" d="M300 400h100v100H300z"/><path fill="#baa97e" d="M400 400h100v100H400z"/><path fill="#ad956f" d="M500 400h100v100H500z"/><path fill="#e6dbc3" d="M600 400h100v100H600z"/><path fill="#a7896c" d="M700 400h100v100H700z"/><path fill="#d8dbdb" d="M0 500h100v100H0z"/><path fill="#dcddd8" d="M100 500h100v100H100z"/><path fill="#dedbd3" d="M200 500h100v100H200z"/><path fill="#ece6da" d="M300 500h100v100H300z"/><path fill="#f1eadd" d="M400 500h100v100H400z"/><path fill="#f3eadd" d="M500 500h100v100H500z"/><path fill="#fbf8ef" d="M600 500h100v100H600z"/><path fill="#e7dfd8" d="M700 500h100v100H700z"/></svg>