<svg xmlns="http://www.w3.org/2000/svg" viewBox="0 0 800 500"><defs/><path fill="#b68271" d="M0 0h100v100H0z"/><path fill="#997d5e" d="M100 0h100v100H100z"/><path fill="#aba097" d="M200 0h100v100H200z"/><path fill="#989994" d="M300 0h100v100H300z"/><path fill="#9ca290" d="M400 0h100v100H400z"/><path fill="#a3a1a2" d="M500 0h100v100H500z"/><path fill="#bcabab" d="M600 0h100v100H600z"/><path fill="#d9e6e6" d="M700 0h100v100H700z"/><path fill="#ae6d53" d="M0 100h100v100H0z"/><path fill="#7b4f36" d="M100 100h100v100H100z"/><path fill="#9c958e" d="M200 100h100v100H200z"/><path fill="#a49690" d="M300 100h100v100H300z"/><path fill="#827975" d="M400 100h100v100H400z"/><path fill="#bcb4aa" d="M500 100h100v100H500z"/><path fill="#ccc6b6" d="M600 100h100v100H600z"/><path fill="#d0dedb" d="M700 100h100v100H700z"/><path fill="#81463e" d="M0 200h100v100H0z"/><path fill="#714b41" d="M100 200h100v100H100z"/><path fill="#aa9990" d="M200 200h100v100H200z"/><path fill="#ad8078" d="M300 200h100v100H300z"/><path fill="#87675c" d="M400 200h100v100H400z"/><path fill="#865f4f" d="M500 200h100v100H500z"/><path fill="#b2ac9b" d="M600 200h100v100H600z"/><path fill="#c6bdbe" d="M700 200h100v100H700z"/><path fill="#5e3d2b" d="M0 300h100v100H0z"/><path fill="#6b4c3c" d="M100 300h100v100H100z"/><path fill="#e5b3a7" d="M200 300h100v100H200z"/><path fill="#9c9389" d="M300 300h100v100H300z"/><path fill="#797168" d="M400 300h100v100H400z"/><path fill="#ddcfc3" d="M500 300h100v100H500z"/><path fill="#dcbab2" d="M600 300h100v100H600z"/><path fill="#ea8ca3" d="M700 300h100v100H700z"/><path fill="#ac8268" d="M0 400h100v100H0z"/><path fill="#b1877f" d="M100 400h100v100H100z"/><path fill="#b1929f" d="M200 400h100v100H200z"/><path fill="#c6aba7" d="M300 400h100v100H300z"/><path fill="#ccbab5" d="M400 400h100v100H400z"/><path fill="#e6d9d2" d="M500 400h100v100H500z"/><path fill="#e1bbb0" d="M600 400h100v100H600z"/><path fill="#f4a6b4" d="M700 400h100v100H700z"/></svg>