<svg xmlns="http://www.w3.org/2000/svg" viewBox="0 0 800 400"><defs/><path fill="#695938" d="M0 0h100v100H0z"/><path fill="#855f44" d="M100 0h100v100H100z"/><path fill="#5e6042" d="M200 0h100v100H200z"/><path fill="#4b5e40" d="M300 0h100v100H300z"/><path fill="#40584c" d="M400 0h100v100H400z"/><path fill="#51584f" d="M500 0h100v100H500z"/><path fill="#726663" d="M600 0h100v100H600z"/><path fill="#84828a" d="M700 0h100v100H700z"/><path fill="#483e22" d="M0 100h100v100H0z"/><path fill="#917957" d="M100 100h100v100H100z"/><path fill="#5a7b7b" d="M200 100h100v100H200z"/><path fill="#496172" d="M300 100h100v100H300z"/><path fill="#5a788b" d="M400 100h100v100H400z"/><path fill="#426e81" d="M500 100h100v100H500z"/><path fill="#4f6e7e" d="M600 100h100v100H600z"/><path fill="#7f919f" d="M700 100h100v100H700z"/><path fill="#5a4026" d="M0 200h100v100H0z"/><path fill="#9b764f" d="M100 200h100v100H100z"/><path fill="#74746e" d="M200 200h100v100H200z"/><path fill="#7e7f85" d="M300 200h100v100H300z"/><path fill="#71717f" d="M400 200h100v100H400z"/><path fill="#948a82" d="M500 200h100v100H500z"/><path fill="#6f696a" d="M600 200h100v100H600z"/><path fill="#848d93" d="M700 200h100v100H700z"/><path fill="#664126" d="M0 300h100v100H0z"/><path fill="#856c4b" d="M100 300h100v100H100z"/><path fill="#756142" d="M200 300h100v100H200z"/><path fill="#705b48" d="M300 300h100v100H300z"/><path fill="#786b65" d="M400 300h100v100H400z"/><path fill="#897c7a" d="M500 300h100v100H500z"/><path fill="#766356" d="M600 300h100v100H600z"/><path fill="#847264" d="M700 300h100v100H700z"/></svg>