<svg xmlns="http://www.w3.org/2000/svg" viewBox="0 0 800 500"><defs/><path fill="#a18e7b" d="M0 0h100v100H0z"/><path fill="#92837c" d="M100 0h100v100H100z"/><path fill="#766d75" d="M200 0h100v100H200z"/><path fill="#887f87" d="M300 0h100v100H300z"/><path fill="#8e8288" d="M400 0h100v100H400z"/><path fill="#867d7d" d="M500 0h100v100H500z"/><path fill="#766764" d="M600 0h100v100H600z"/><path fill="#746c6c" d="M700 0h100v100H700z"/><path fill="#86766b" d="M0 100h100v100H0z"/><path fill="#9f9f8e" d="M100 100h100v100H100z"/><path fill="#9b7c79" d="M200 100h100v100H200z"/><path fill="#ad8a83" d="M300 100h100v100H300z"/><path fill="#a59089" d="M400 100h100v100H400z"/><path fill="#897959" d="M500 100h100v100H500z"/><path fill="#734921" d="M600 100h100v100H600z"/><path fill="#968267" d="M700 100h100v100H700z"/><path fill="#8b8275" d="M0 200h100v100H0z"/><path fill="#a19b8e" d="M100 200h100v100H100z"/><path fill="#9c827e" d="M200 200h100v100H200z"/><path fill="#a58a88" d="M300 200h100v100H300z"/><path fill="#9b8e87" d="M400 200h100v100H400z"/><path fill="#766043" d="M500 200h100v100H500z"/><path fill="#704727" d="M600 200h100v100H600z"/><path fill="#9e8566" d="M700 200h100v100H700z"/><path fill="#776360" d="M0 300h100v100H0z"/><path fill="#616163" d="M100 300h100v100H100z"/><path fill="#474d53" d="M200 300h100v100H200z"/><path fill="#444851" d="M300 300h100v100H300z"/><path fill="#595255" d="M400 300h100v100H400z"/><path fill="#7f674a" d="M500 300h100v100H500z"/><path fill="#63412e" d="M600 300h100v100H600z"/><path fill="#896b58" d="M700 300h100v100H700z"/><path fill="#6e5e54" d="M0 400h100v100H0z"/><path fill="#6d6973" d="M100 400h100v100H100z"/><path fill="#58576b" d="M200 400h100v100H200z"/><path fill="#553744" d="M300 400h100v100H300z"/><path fill="#4e2f42" d="M400 400h100v100H400z"/><path fill="#4c2e41" d="M500 400h100v100H500z"/><path fill="#563d4b" d="M600 400h100v100H600z"/><path fill="#776076" d="M700 400h100v100H700z"/></svg>