<svg xmlns="http://www.w3.org/2000/svg" viewBox="0 0 800 1200"><defs/><path fill="#d7d1ce" d="M0 0h100v100H0z"/><path fill="#c7bcb9" d="M100 0h100v100H100z"/><path fill="#c9bdba" d="M200 0h100v100H200z"/><path fill="#c6bbb9" d="M300 0h100v100H300z"/><path fill="#81967f" d="M400 0h100v100H400z"/><path fill="#618c6d" d="M500 0h100v100H500z"/><path fill="#90aab7" d="M600 0h100v100H600z"/><path fill="#a5bfd2" d="M700 0h100v100H700z"/><path fill="#dbdcdc" d="M0 100h100v100H0z"/><path fill="#e4e4e4" d="M100 100h100v100H100z"/><path fill="#ddd7d5" d="M200 100h100v100H200z"/><path fill="#dbd7d5" d="M300 100h100v100H300z"/><path fill="#e4e5e3" d="M400 100h100v100H400z"/><path fill="#d4d5d5" d="M500 100h100v100H500z"/><path fill="#a5bed2" d="M600 100h100v100H600z"/><path fill="#c8cfd9" d="M700 100h100v100H700z"/><path fill="#d1dbe5" d="M0 200h100v100H0z"/><path fill="#b8c4d4" d="M100 200h100v100H100z"/><path fill="#e4e2e0" d="M200 200h100v100H200z"/><path fill="#dfdfde" d="M300 200h100v100H300z"/><path fill="#ededec" d="M400 200h100v100H400z"/><path fill="#cfdde5" d="M500 200h100v100H500z"/><path fill="#c9dbe6" d="M600 200h100v100H600z"/><path fill="#e8e6e5" d="M700 200h100v100H700z"/><path fill="#e9e1e6" d="M0 300h100v100H0z"/><path fill="#d8c6d4" d="M100 300h100v100H100z"/><path fill="#e9ebe9" d="M200 300h100v100H200z"/><path fill="#cececc" d="M300 300h100v100H300z"/><path fill="#d7d7d6" d="M400 300h100v100H400z"/><path fill="#e0dee3" d="M500 300h100v100H500z"/><path fill="#cbdeec" d="M600 300h100v100H600z"/><path fill="#ebedec" d="M700 300h100v100H700z"/><path fill="#c4c6c4" d="M0 400h100v100H0z"/><path fill="#cfcfcc" d="M100 400h100v100H100z"/><path fill="#e3e2e1" d="M200 400h100v100H200z"/><path fill="#c8c9cb" d="M300 400h100v100H300z"/><path fill="#868caa" d="M400 400h100v100H400z"/><path fill="#ddc3cd" d="M500 400h100v100H500z"/><path fill="#d3b1bc" d="M600 400h100v100H600z"/><path fill="#efddde" d="M700 400h100v100H700z"/><path fill="#e7e5e5" d="M0 500h100v100H0z"/><path fill="#dddad9" d="M100 500h100v100H100z"/><path fill="#dbdbda" d="M200 500h100v100H200z"/><path fill="#b7b7bc" d="M300 500h100v100H300z"/><path fill="#717397" d="M400 500h100v100H400z"/><path fill="#d3bbc0" d="M500 500h100v100H500z"/><path fill="#d5c5c8" d="M600 500h100v100H600z"/><path fill="#eed9de" d="M700 500h100v100H700z"/><path fill="#f1f1f2" d="M0 600h100v100H0z"/><path fill="#f1f2f2" d="M100 600h100v100H100z"/><path fill="#e7e6e5" d="M200 600h100v100H200z"/><path fill="#cfd0d3" d="M300 600h100v100H300z"/><path fill="#8589a3" d="M400 600h100v100H400z"/><path fill="#e2dddd" d="M500 600h100v100H500z"/><path fill="#ebe3e5" d="M600 600h100v100H600z"/><path fill="#f6f0f0" d="M700 600h100v100H700z"/><path fill="#eee" d="M0 700h100v100H0z"/><path fill="#f1f1f1" d="M100 700h100v100H100z"/><path fill="#f4f4f3" d="M200 700h100v100H200z"/><path fill="#d6d2d2" d="M300 700h100v100H300z"/><path fill="#dedee1" d="M400 700h100v100H400z"/><path fill="#e3e3e3" d="M500 700h100v100H500z"/><path fill="#dbd4d4" d="M600 700h100v100H600z"/><path fill="#dad4d5" d="M700 700h100v100H700z"/><path fill="#f8f8f8" d="M0 800h100v100H0z"/><path fill="#f6f6f6" d="M100 800h100v100H100z"/><path fill="#eeeded" d="M200 800h100v100H200z"/><path fill="#c5c1c3" d="M300 800h100v100H300z"/><path fill="#dddcdc" d="M400 800h100v100H400z"/><path fill="#f0f1f0" d="M500 800h100v100H500z"/><path fill="#dfdddd" d="M600 800h100v100H600z"/><path fill="#e8e3e4" d="M700 800h100v100H700z"/><path fill="#e0dede" d="M0 900h100v100H0z"/><path fill="#ececed" d="M100 900h100v100H100z"/><path fill="#e8e8e8" d="M200 900h100v100H200z"/><path fill="#f8f8f8" d="M300 900h100v100H300z"/><path fill="#ebebeb" d="M400 900h100v100H400z"/><path fill="#e8e8e8" d="M500 900h100v100H500z"/><path fill="#e9eae9" d="M600 900h100v100H600z"/><path fill="#f8f9f9" d="M700 900h100v100H700z"/><path fill="#dcdbdc" d="M0 1000h100v100H0z"/><path fill="#e5e5e5" d="M100 1000h100v100H100z"/><path fill="#eee" d="M200 1000h100v100H200z"/><path fill="#dfdede" d="M300 1000h100v100H300z"/><path fill="#e3e3e3" d="M400 1000h100v100H400z"/><path fill="#e5e5e3" d="M500 1000h100v100H500z"/><path fill="#d3cdc0" d="M600 1000h100v100H600z"/><path fill="#eeedec" d="M700 1000h100v100H700z"/><path fill="#eaeaea" d="M0 1100h100v100H0z"/><path fill="#eee" d="M100 1100h100v100H100z"/><path fill="#e8e7e7" d="M200 1100h100v100H200z"/><path fill="#d8d6d6" d="M300 1100h100v100H300z"/><path fill="#e2e2e2" d="M400 1100h100v100H400z"/><path fill="#e2e3e1" d="M500 1100h100v100H500z"/><path fill="#d9d6cc" d="M600 1100h100v100H600z"/><path fill="#edeceb" d="M700 1100h100v100H700z"/></svg>