<svg xmlns="http://www.w3.org/2000/svg" viewBox="0 0 800 400"><defs/><path fill="#c59199" d="M0 0h100v100H0z"/><path fill="#d5af9c" d="M100 0h100v100H100z"/><path fill="#c48b96" d="M200 0h100v100H200z"/><path fill="#d197a5" d="M300 0h100v100H300z"/><path fill="#9c7278" d="M400 0h100v100H400z"/><path fill="#9b7378" d="M500 0h100v100H500z"/><path fill="#c18792" d="M600 0h100v100H600z"/><path fill="#a75d64" d="M700 0h100v100H700z"/><path fill="#c99695" d="M0 100h100v100H0z"/><path fill="#d2a295" d="M100 100h100v100H100z"/><path fill="#9e616c" d="M200 100h100v100H200z"/><path fill="#6a4048" d="M300 100h100v100H300z"/><path fill="#94646b" d="M400 100h100v100H400z"/><path fill="#ad747c" d="M500 100h100v100H500z"/><path fill="#ba7283" d="M600 100h100v100H600z"/><path fill="#a15055" d="M700 100h100v100H700z"/><path fill="#cda199" d="M0 200h100v100H0z"/><path fill="#d9b09a" d="M100 200h100v100H100z"/><path fill="#b08476" d="M200 200h100v100H200z"/><path fill="#7a685f" d="M300 200h100v100H300z"/><path fill="#976b6c" d="M400 200h100v100H400z"/><path fill="#b7837c" d="M500 200h100v100H500z"/><path fill="#a27171" d="M600 200h100v100H600z"/><path fill="#86555e" d="M700 200h100v100H700z"/><path fill="#ddb9a7" d="M0 300h100v100H0z"/><path fill="#c79670" d="M100 300h100v100H100z"/><path fill="#88431a" d="M200 300h100v100H200z"/><path fill="#9a6446" d="M300 300h100v100H300z"/><path fill="#c59989" d="M400 300h100v100H400z"/><path fill="#937866" d="M500 300h100v100H500z"/><path fill="#ac957d" d="M600 300h100v100H600z"/><path fill="#a19285" d="M700 300h100v100H700z"/></svg>