<svg xmlns="http://www.w3.org/2000/svg" viewBox="0 0 800 400"><defs/><path fill="#a69b95" d="M0 0h100v100H0z"/><path fill="#736767" d="M100 0h100v100H100z"/><path fill="#ada68d" d="M200 0h100v100H200z"/><path fill="#bbb39f" d="M300 0h100v100H300z"/><path fill="#987d6e" d="M400 0h100v100H400z"/><path fill="#aa978b" d="M500 0h100v100H500z"/><path fill="#baaca9" d="M600 0h100v100H600z"/><path fill="#aba6a5" d="M700 0h100v100H700z"/><path fill="#9e938f" d="M0 100h100v100H0z"/><path fill="#796d6b" d="M100 100h100v100H100z"/><path fill="#9c9483" d="M200 100h100v100H200z"/><path fill="#b1a69a" d="M300 100h100v100H300z"/><path fill="#877265" d="M400 100h100v100H400z"/><path fill="#95857a" d="M500 100h100v100H500z"/><path fill="#bbaba5" d="M600 100h100v100H600z"/><path fill="#8da2a3" d="M700 100h100v100H700z"/><path fill="#8d837e" d="M0 200h100v100H0z"/><path fill="#777070" d="M100 200h100v100H100z"/><path fill="#b6a8a9" d="M200 200h100v100H200z"/><path fill="#a39994" d="M300 200h100v100H300z"/><path fill="#a38f98" d="M400 200h100v100H400z"/><path fill="#a59199" d="M500 200h100v100H500z"/><path fill="#c1acb3" d="M600 200h100v100H600z"/><path fill="#b1aaa5" d="M700 200h100v100H700z"/><path fill="#817677" d="M0 300h100v100H0z"/><path fill="#b79fb5" d="M100 300h100v100H100z"/><path fill="#e9cbe9" d="M200 300h100v100H200z"/><path fill="#beacbd" d="M300 300h100v100H300z"/><path fill="#c6b2cd" d="M400 300h100v100H400z"/><path fill="#dabed7" d="M500 300h100v100H500z"/><path fill="#dec0df" d="M600 300h100v100H600z"/><path fill="#ceb7c9" d="M700 300h100v100H700z"/></svg>