<svg xmlns="http://www.w3.org/2000/svg" viewBox="0 0 800 500"><defs/><path fill="#623e1a" d="M0 0h100v100H0z"/><path fill="#6e5339" d="M100 0h100v100H100z"/><path fill="#685745" d="M200 0h100v100H200z"/><path fill="#735d47" d="M300 0h100v100H300z"/><path fill="#7e6a51" d="M400 0h100v100H400z"/><path fill="#84735c" d="M500 0h100v100H500z"/><path fill="#968060" d="M600 0h100v100H600z"/><path fill="#a37c43" d="M700 0h100v100H700z"/><path fill="#57300c" d="M0 100h100v100H0z"/><path fill="#897d72" d="M100 100h100v100H100z"/><path fill="#b7bfc8" d="M200 100h100v100H200z"/><path fill="#b1b6bb" d="M300 100h100v100H300z"/><path fill="#b9bec4" d="M400 100h100v100H400z"/><path fill="#bcc3cd" d="M500 100h100v100H500z"/><path fill="#b9b6b1" d="M600 100h100v100H600z"/><path fill="#a07a45" d="M700 100h100v100H700z"/><path fill="#512f0d" d="M0 200h100v100H0z"/><path fill="#82776c" d="M100 200h100v100H100z"/><path fill="#a5aab0" d="M200 200h100v100H200z"/><path fill="#9b9ea1" d="M300 200h100v100H300z"/><path fill="#adafb2" d="M400 200h100v100H400z"/><path fill="#b5b9be" d="M500 200h100v100H500z"/><path fill="#b3afa8" d="M600 200h100v100H600z"/><path fill="#a4814f" d="M700 200h100v100H700z"/><path fill="#663721" d="M0 300h100v100H0z"/><path fill="#8e807a" d="M100 300h100v100H100z"/><path fill="#acb3b9" d="M200 300h100v100H200z"/><path fill="#909398" d="M300 300h100v100H300z"/><path fill="#979b9f" d="M400 300h100v100H400z"/><path fill="#94999e" d="M500 300h100v100H500z"/><path fill="#a9a6a0" d="M600 300h100v100H600z"/><path fill="#a58555" d="M700 300h100v100H700z"/><path fill="#602310" d="M0 400h100v100H0z"/><path fill="#7f6c64" d="M100 400h100v100H100z"/><path fill="#a5a9aa" d="M200 400h100v100H200z"/><path fill="#8e8c8c" d="M300 400h100v100H300z"/><path fill="#989593" d="M400 400h100v100H400z"/><path fill="#8d8b8b" d="M500 400h100v100H500z"/><path fill="#91887c" d="M600 400h100v100H600z"/><path fill="#96713f" d="M700 400h100v100H700z"/></svg>