<svg xmlns="http://www.w3.org/2000/svg" viewBox="0 0 800 600"><defs/><path fill="#e7ecef" d="M0 0h100v100H0z"/><path fill="#dfe3e4" d="M100 0h100v100H100z"/><path fill="#e6ebe9" d="M200 0h100v100H200z"/><path fill="#f8faf8" d="M300 0h100v100H300z"/><path fill="#e7eae9" d="M400 0h100v100H400z"/><path fill="#e6e7e3" d="M500 0h100v100H500z"/><path fill="#e1e3e3" d="M600 0h100v100H600z"/><path fill="#eceeed" d="M700 0h100v100H700z"/><path fill="#e6ebec" d="M0 100h100v100H0z"/><path fill="#dfe2e2" d="M100 100h100v100H100z"/><path fill="#dadcdc" d="M200 100h100v100H200z"/><path fill="#e5e5e9" d="M300 100h100v100H300z"/><path fill="#dfdddf" d="M400 100h100v100H400z"/><path fill="#b3b7c4" d="M500 100h100v100H500z"/><path fill="#e7e8e6" d="M600 100h100v100H600z"/><path fill="#e2e4e3" d="M700 100h100v100H700z"/><path fill="#dbdfdd" d="M0 200h100v100H0z"/><path fill="#dce0e0" d="M100 200h100v100H100z"/><path fill="#e7e6e4" d="M200 200h100v100H200z"/><path fill="#92afc7" d="M300 200h100v100H300z"/><path fill="#78a5c4" d="M400 200h100v100H400z"/><path fill="#849fbc" d="M500 200h100v100H500z"/><path fill="#f2f1ed" d="M600 200h100v100H600z"/><path fill="#e2e5e5" d="M700 200h100v100H700z"/><path fill="#dbdfde" d="M0 300h100v100H0z"/><path fill="#d7dbdc" d="M100 300h100v100H100z"/><path fill="#dededc" d="M200 300h100v100H200z"/><path fill="#b1cbd5" d="M300 300h100v100H300z"/><path fill="#b2cedb" d="M400 300h100v100H400z"/><path fill="#d7dfde" d="M500 300h100v100H500z"/><path fill="#e0e0df" d="M600 300h100v100H600z"/><path fill="#d9dcdb" d="M700 300h100v100H700z"/><path fill="#e7e9e8" d="M0 400h100v100H0z"/><path fill="#e1e3e5" d="M100 400h100v100H100z"/><path fill="#e1e3e6" d="M200 400h100v100H200z"/><path fill="#e8e7e6" d="M300 400h100v100H300z"/><path fill="#e4e3df" d="M400 400h100v100H400z"/><path fill="#dadbda" d="M500 400h100v100H500z"/><path fill="#d7dad9" d="M600 400h100v100H600z"/><path fill="#d1d3d2" d="M700 400h100v100H700z"/><path fill="#e4e5e5" d="M0 500h100v100H0z"/><path fill="#e1e3e3" d="M100 500h100v100H100z"/><path fill="#e8eaed" d="M200 500h100v100H200z"/><path fill="#e3e7e8" d="M300 500h100v100H300z"/><path fill="#dbdedf" d="M400 500h100v100H400z"/><path fill="#dcdfde" d="M500 500h100v100H500z"/><path fill="#dddfde" d="M600 500h100v100H600z"/><path fill="#d8dad9" d="M700 500h100v100H700z"/></svg>