<svg xmlns="http://www.w3.org/2000/svg" viewBox="0 0 800 600"><defs/><path fill="#634641" d="M0 0h100v100H0z"/><path fill="#8e5769" d="M100 0h100v100H100z"/><path fill="#82517a" d="M200 0h100v100H200z"/><path fill="#7f8076" d="M300 0h100v100H300z"/><path fill="#80938f" d="M400 0h100v100H400z"/><path fill="#838c7d" d="M500 0h100v100H500z"/><path fill="#8b8e75" d="M600 0h100v100H600z"/><path fill="#9c9782" d="M700 0h100v100H700z"/><path fill="#7d5951" d="M0 100h100v100H0z"/><path fill="#9f4e87" d="M100 100h100v100H100z"/><path fill="#97717e" d="M200 100h100v100H200z"/><path fill="#a3b1a3" d="M300 100h100v100H300z"/><path fill="#94bbd1" d="M400 100h100v100H400z"/><path fill="#a3b4af" d="M500 100h100v100H500z"/><path fill="#aac4b6" d="M600 100h100v100H600z"/><path fill="#c9d4c1" d="M700 100h100v100H700z"/><path fill="#8a5757" d="M0 200h100v100H0z"/><path fill="#89478a" d="M100 200h100v100H100z"/><path fill="#7b5e55" d="M200 200h100v100H200z"/><path fill="#7b563c" d="M300 200h100v100H300z"/><path fill="#82695b" d="M400 200h100v100H400z"/><path fill="#9a7a63" d="M500 200h100v100H500z"/><path fill="#80625c" d="M600 200h100v100H600z"/><path fill="#a19081" d="M700 200h100v100H700z"/><path fill="#934e5d" d="M0 300h100v100H0z"/><path fill="#7f4b91" d="M100 300h100v100H100z"/><path fill="#72809e" d="M200 300h100v100H200z"/><path fill="#7e5b58" d="M300 300h100v100H300z"/><path fill="#945e44" d="M400 300h100v100H400z"/><path fill="#7d4943" d="M500 300h100v100H500z"/><path fill="#82554e" d="M600 300h100v100H600z"/><path fill="#8e5a58" d="M700 300h100v100H700z"/><path fill="#6f3c73" d="M0 400h100v100H0z"/><path fill="#70497c" d="M100 400h100v100H100z"/><path fill="#bda69d" d="M200 400h100v100H200z"/><path fill="#d6ab8e" d="M300 400h100v100H300z"/><path fill="#d0764f" d="M400 400h100v100H400z"/><path fill="#ab827b" d="M500 400h100v100H500z"/><path fill="#a88789" d="M600 400h100v100H600z"/><path fill="#b59a73" d="M700 400h100v100H700z"/><path fill="#9d608e" d="M0 500h100v100H0z"/><path fill="#9f7a78" d="M100 500h100v100H100z"/><path fill="#d6a97d" d="M200 500h100v100H200z"/><path fill="#cda07d" d="M300 500h100v100H300z"/><path fill="#9e8169" d="M400 500h100v100H400z"/><path fill="#745854" d="M500 500h100v100H500z"/><path fill="#6f5f5d" d="M600 500h100v100H600z"/><path fill="#645943" d="M700 500h100v100H700z"/></svg>