<svg xmlns="http://www.w3.org/2000/svg" viewBox="0 0 800 600"><defs/><path fill="#d5d6e2" d="M0 0h100v100H0z"/><path fill="#cdcfd7" d="M100 0h100v100H100z"/><path fill="#e5e6e7" d="M200 0h100v100H200z"/><path fill="#e7e8ea" d="M300 0h100v100H300z"/><path fill="#e0e0e9" d="M400 0h100v100H400z"/><path fill="#e3e4e8" d="M500 0h100v100H500z"/><path fill="#e6e6eb" d="M600 0h100v100H600z"/><path fill="#f4f4fa" d="M700 0h100v100H700z"/><path fill="#6c729d" d="M0 100h100v100H0z"/><path fill="#3d3e4f" d="M100 100h100v100H100z"/><path fill="#58607e" d="M200 100h100v100H200z"/><path fill="#7b7f83" d="M300 100h100v100H300z"/><path fill="#3b3d58" d="M400 100h100v100H400z"/><path fill="#8d8e8f" d="M500 100h100v100H500z"/><path fill="#8a8b89" d="M600 100h100v100H600z"/><path fill="#c7c8c9" d="M700 100h100v100H700z"/><path fill="#6e7190" d="M0 200h100v100H0z"/><path fill="#4d4d4a" d="M100 200h100v100H100z"/><path fill="#3c4165" d="M200 200h100v100H200z"/><path fill="#5a5a67" d="M300 200h100v100H300z"/><path fill="#2c293f" d="M400 200h100v100H400z"/><path fill="#9d9c93" d="M500 200h100v100H500z"/><path fill="#949480" d="M600 200h100v100H600z"/><path fill="#7e8381" d="M700 200h100v100H700z"/><path fill="#646886" d="M0 300h100v100H0z"/><path fill="#3c4156" d="M100 300h100v100H100z"/><path fill="#505777" d="M200 300h100v100H200z"/><path fill="#787c86" d="M300 300h100v100H300z"/><path fill="#4d4a58" d="M400 300h100v100H400z"/><path fill="#6f6a76" d="M500 300h100v100H500z"/><path fill="#7d8088" d="M600 300h100v100H600z"/><path fill="#475366" d="M700 300h100v100H700z"/><path fill="#5f5f73" d="M0 400h100v100H0z"/><path fill="#18214f" d="M100 400h100v100H100z"/><path fill="#786e63" d="M200 400h100v100H200z"/><path fill="#d0b781" d="M300 400h100v100H300z"/><path fill="#5f6371" d="M400 400h100v100H400z"/><path fill="#3d3d5f" d="M500 400h100v100H500z"/><path fill="#4d4e79" d="M600 400h100v100H600z"/><path fill="#464d81" d="M700 400h100v100H700z"/><path fill="#cac9ce" d="M0 500h100v100H0z"/><path fill="#b2b4bf" d="M100 500h100v100H100z"/><path fill="#c7c2c1" d="M200 500h100v100H200z"/><path fill="#dacfc6" d="M300 500h100v100H300z"/><path fill="#bbbac5" d="M400 500h100v100H400z"/><path fill="#bfbec7" d="M500 500h100v100H500z"/><path fill="#c0c0cb" d="M600 500h100v100H600z"/><path fill="#bfc0d0" d="M700 500h100v100H700z"/></svg>