<svg xmlns="http://www.w3.org/2000/svg" viewBox="0 0 800 500"><defs/><path fill="#262a5f" d="M0 0h100v100H0z"/><path fill="#443b64" d="M100 0h100v100H100z"/><path fill="#554e79" d="M200 0h100v100H200z"/><path fill="#55518e" d="M300 0h100v100H300z"/><path fill="#b6a0c2" d="M400 0h100v100H400z"/><path fill="#ffdbe8" d="M500 0h100v100H500z"/><path fill="#867eac" d="M600 0h100v100H600z"/><path fill="#525089" d="M700 0h100v100H700z"/><path fill="#37365f" d="M0 100h100v100H0z"/><path fill="#403a63" d="M100 100h100v100H100z"/><path fill="#494374" d="M200 100h100v100H200z"/><path fill="#514680" d="M300 100h100v100H300z"/><path fill="#baa2c3" d="M400 100h100v100H400z"/><path fill="#f2d1df" d="M500 100h100v100H500z"/><path fill="#8d86a8" d="M600 100h100v100H600z"/><path fill="#4a4c84" d="M700 100h100v100H700z"/><path fill="#242651" d="M0 200h100v100H0z"/><path fill="#664b72" d="M100 200h100v100H100z"/><path fill="#9986ae" d="M200 200h100v100H200z"/><path fill="#7b75a7" d="M300 200h100v100H300z"/><path fill="#bea4c7" d="M400 200h100v100H400z"/><path fill="#b08da7" d="M500 200h100v100H500z"/><path fill="#75637b" d="M600 200h100v100H600z"/><path fill="#8b7d9b" d="M700 200h100v100H700z"/><path fill="#20224b" d="M0 300h100v100H0z"/><path fill="#634161" d="M100 300h100v100H100z"/><path fill="#98688e" d="M200 300h100v100H200z"/><path fill="#5f4d77" d="M300 300h100v100H300z"/><path fill="#7d5b81" d="M400 300h100v100H400z"/><path fill="#76476a" d="M500 300h100v100H500z"/><path fill="#5d425d" d="M600 300h100v100H600z"/><path fill="#a183a4" d="M700 300h100v100H700z"/><path fill="#1b1a3b" d="M0 400h100v100H0z"/><path fill="#242145" d="M100 400h100v100H100z"/><path fill="#31254f" d="M200 400h100v100H200z"/><path fill="#432f55" d="M300 400h100v100H300z"/><path fill="#3f345c" d="M400 400h100v100H400z"/><path fill="#2f214b" d="M500 400h100v100H500z"/><path fill="#21213b" d="M600 400h100v100H600z"/><path fill="#1c233c" d="M700 400h100v100H700z"/></svg>