<svg xmlns="http://www.w3.org/2000/svg" viewBox="0 0 800 600"><defs/><path fill="#a63d5a" d="M0 0h100v100H0z"/><path fill="#7f514f" d="M100 0h100v100H100z"/><path fill="#793f41" d="M200 0h100v100H200z"/><path fill="#992f4a" d="M300 0h100v100H300z"/><path fill="#8c2e45" d="M400 0h100v100H400z"/><path fill="#86233b" d="M500 0h100v100H500z"/><path fill="#852941" d="M600 0h100v100H600z"/><path fill="#7b273f" d="M700 0h100v100H700z"/><path fill="#745358" d="M0 100h100v100H0z"/><path fill="#242635" d="M100 100h100v100H100z"/><path fill="#3f2940" d="M200 100h100v100H200z"/><path fill="#6e2231" d="M300 100h100v100H300z"/><path fill="#7e4d53" d="M400 100h100v100H400z"/><path fill="#8f6b6e" d="M500 100h100v100H500z"/><path fill="#ac8b91" d="M600 100h100v100H600z"/><path fill="#ba9aa5" d="M700 100h100v100H700z"/><path fill="#413b38" d="M0 200h100v100H0z"/><path fill="#40331f" d="M100 200h100v100H100z"/><path fill="#373335" d="M200 200h100v100H200z"/><path fill="#3e2524" d="M300 200h100v100H300z"/><path fill="#6c5148" d="M400 200h100v100H400z"/><path fill="#909391" d="M500 200h100v100H500z"/><path fill="#7e95ab" d="M600 200h100v100H600z"/><path fill="#b5babf" d="M700 200h100v100H700z"/><path fill="#28211f" d="M0 300h100v100H0z"/><path fill="#444a36" d="M100 300h100v100H100z"/><path fill="#2f231e" d="M200 300h100v100H200z"/><path fill="#151013" d="M300 300h100v100H300z"/><path fill="#282d34" d="M400 300h100v100H400z"/><path fill="#42678b" d="M500 300h100v100H500z"/><path fill="#4e6292" d="M600 300h100v100H600z"/><path fill="#8a888d" d="M700 300h100v100H700z"/><path fill="#251e18" d="M0 400h100v100H0z"/><path fill="#183c46" d="M100 400h100v100H100z"/><path fill="#37342d" d="M200 400h100v100H200z"/><path fill="#262120" d="M300 400h100v100H300z"/><path fill="#3b3835" d="M400 400h100v100H400z"/><path fill="#506f87" d="M500 400h100v100H500z"/><path fill="#32455a" d="M600 400h100v100H600z"/><path fill="#7d6553" d="M700 400h100v100H700z"/><path fill="#8d8c8c" d="M0 500h100v100H0z"/><path fill="#939799" d="M100 500h100v100H100z"/><path fill="#aaabac" d="M200 500h100v100H200z"/><path fill="#a9aaaa" d="M300 500h100v100H300z"/><path fill="#adadac" d="M400 500h100v100H400z"/><path fill="#b1b5b7" d="M500 500h100v100H500z"/><path fill="#a9abac" d="M600 500h100v100H600z"/><path fill="#b3a99d" d="M700 500h100v100H700z"/></svg>