<svg xmlns="http://www.w3.org/2000/svg" viewBox="0 0 800 500"><defs/><path fill="#d8d8d7" d="M0 0h100v100H0z"/><path fill="#d3d2be" d="M100 0h100v100H100z"/><path fill="#d7c9d5" d="M200 0h100v100H200z"/><path fill="#d4ccdf" d="M300 0h100v100H300z"/><path fill="#e4e0e5" d="M400 0h100v100H400z"/><path fill="#f6f1de" d="M500 0h100v100H500z"/><path fill="#dcd8c9" d="M600 0h100v100H600z"/><path fill="#e1c9ca" d="M700 0h100v100H700z"/><path fill="#727369" d="M0 100h100v100H0z"/><path fill="#7b6f19" d="M100 100h100v100H100z"/><path fill="#b85089" d="M200 100h100v100H200z"/><path fill="#6e6b89" d="M300 100h100v100H300z"/><path fill="#7c5d8a" d="M400 100h100v100H400z"/><path fill="#c4a447" d="M500 100h100v100H500z"/><path fill="#a3903c" d="M600 100h100v100H600z"/><path fill="#c54a4a" d="M700 100h100v100H700z"/><path fill="#7e8061" d="M0 200h100v100H0z"/><path fill="#8f7a35" d="M100 200h100v100H100z"/><path fill="#ec9fb0" d="M200 200h100v100H200z"/><path fill="#c4b580" d="M300 200h100v100H300z"/><path fill="#b59780" d="M400 200h100v100H400z"/><path fill="#bf984d" d="M500 200h100v100H500z"/><path fill="#b6a25f" d="M600 200h100v100H600z"/><path fill="#d88169" d="M700 200h100v100H700z"/><path fill="#858145" d="M0 300h100v100H0z"/><path fill="#817c3c" d="M100 300h100v100H100z"/><path fill="#bfb8b1" d="M200 300h100v100H200z"/><path fill="#c6b5a4" d="M300 300h100v100H300z"/><path fill="#c7bbac" d="M400 300h100v100H400z"/><path fill="#cbb89e" d="M500 300h100v100H500z"/><path fill="#dbab74" d="M600 300h100v100H600z"/><path fill="#baab92" d="M700 300h100v100H700z"/><path fill="#ceccb0" d="M0 400h100v100H0z"/><path fill="#d3ceb8" d="M100 400h100v100H100z"/><path fill="#d5cac4" d="M200 400h100v100H200z"/><path fill="#d3c9bf" d="M300 400h100v100H300z"/><path fill="#d1cbc4" d="M400 400h100v100H400z"/><path fill="#ded8d4" d="M500 400h100v100H500z"/><path fill="#dfc4ab" d="M600 400h100v100H600z"/><path fill="#cec7bc" d="M700 400h100v100H700z"/></svg>