<svg xmlns="http://www.w3.org/2000/svg" viewBox="0 0 800 800"><defs/><path fill="#67777a" d="M0 0h100v100H0z"/><path fill="#a19387" d="M100 0h100v100H100z"/><path fill="#ac8268" d="M200 0h100v100H200z"/><path fill="#aa9a8c" d="M300 0h100v100H300z"/><path fill="#9c9181" d="M400 0h100v100H400z"/><path fill="#ad7f66" d="M500 0h100v100H500z"/><path fill="#9d8e85" d="M600 0h100v100H600z"/><path fill="#85a2a9" d="M700 0h100v100H700z"/><path fill="#626e6f" d="M0 100h100v100H0z"/><path fill="#a1998e" d="M100 100h100v100H100z"/><path fill="#b38f75" d="M200 100h100v100H200z"/><path fill="#987c6e" d="M300 100h100v100H300z"/><path fill="#826557" d="M400 100h100v100H400z"/><path fill="#a78271" d="M500 100h100v100H500z"/><path fill="#9e958d" d="M600 100h100v100H600z"/><path fill="#9bafae" d="M700 100h100v100H700z"/><path fill="#6c7471" d="M0 200h100v100H0z"/><path fill="#97958e" d="M100 200h100v100H100z"/><path fill="#8d7c73" d="M200 200h100v100H200z"/><path fill="#9a928b" d="M300 200h100v100H300z"/><path fill="#958178" d="M400 200h100v100H400z"/><path fill="#84836d" d="M500 200h100v100H500z"/><path fill="#807865" d="M600 200h100v100H600z"/><path fill="#a39380" d="M700 200h100v100H700z"/><path fill="#787e7a" d="M0 300h100v100H0z"/><path fill="#9f9789" d="M100 300h100v100H100z"/><path fill="#bd9c7f" d="M200 300h100v100H200z"/><path fill="#b3a397" d="M300 300h100v100H300z"/><path fill="#afa7a3" d="M400 300h100v100H400z"/><path fill="#b49f7f" d="M500 300h100v100H500z"/><path fill="#898d83" d="M600 300h100v100H600z"/><path fill="#7f918b" d="M700 300h100v100H700z"/><path fill="#94938a" d="M0 400h100v100H0z"/><path fill="#d9b999" d="M100 400h100v100H100z"/><path fill="#9c927f" d="M200 400h100v100H200z"/><path fill="#557066" d="M300 400h100v100H300z"/><path fill="#547a6e" d="M400 400h100v100H400z"/><path fill="#668276" d="M500 400h100v100H500z"/><path fill="#beb5ae" d="M600 400h100v100H600z"/><path fill="#abadb1" d="M700 400h100v100H700z"/><path fill="#d5b697" d="M0 500h100v100H0z"/><path fill="#cba98d" d="M100 500h100v100H100z"/><path fill="#232a47" d="M200 500h100v100H200z"/><path fill="#000e30" d="M300 500h100v100H300z"/><path fill="#001836" d="M400 500h100v100H400z"/><path fill="#152343" d="M500 500h100v100H500z"/><path fill="#848054" d="M600 500h100v100H600z"/><path fill="#797952" d="M700 500h100v100H700z"/><path fill="#d3ab89" d="M0 600h100v100H0z"/><path fill="#b19077" d="M100 600h100v100H100z"/><path fill="#7e6b67" d="M200 600h100v100H200z"/><path fill="#7e6964" d="M300 600h100v100H300z"/><path fill="#7a6464" d="M400 600h100v100H400z"/><path fill="#655c56" d="M500 600h100v100H500z"/><path fill="#344307" d="M600 600h100v100H600z"/><path fill="#3f4c08" d="M700 600h100v100H700z"/><path fill="#c59b76" d="M0 700h100v100H0z"/><path fill="#c79b75" d="M100 700h100v100H100z"/><path fill="#cea178" d="M200 700h100v100H200z"/><path fill="#cda076" d="M300 700h100v100H300z"/><path fill="#d1a37a" d="M400 700h100v100H400z"/><path fill="#c29f6f" d="M500 700h100v100H500z"/><path fill="#7f7333" d="M600 700h100v100H600z"/><path fill="#957d4d" d="M700 700h100v100H700z"/></svg>