<svg xmlns="http://www.w3.org/2000/svg" viewBox="0 0 800 600"><defs/><path fill="#fff" d="M0 0h100v100H0z"/><path fill="#f4f4f4" d="M100 0h100v100H100z"/><path fill="#f7f7f7" d="M200 0h100v100H200z"/><path fill="#f9f9f9" d="M300 0h100v100H300z"/><path fill="#f3f3f4" d="M400 0h100v100H400z"/><path fill="#f1f1f2" d="M500 0h100v100H500z"/><path fill="#f7f7f7" d="M600 0h100v100H600z"/><path fill="#f4f4f6" d="M700 0h100v100H700z"/><path fill="#fdfdfd" d="M0 100h100v100H0z"/><path fill="#b8b8bb" d="M100 100h100v100H100z"/><path fill="#a5a5a9" d="M200 100h100v100H200z"/><path fill="#e0e1e1" d="M300 100h100v100H300z"/><path fill="#b2b2b5" d="M400 100h100v100H400z"/><path fill="#9e9ea3" d="M500 100h100v100H500z"/><path fill="#d7d7da" d="M600 100h100v100H600z"/><path fill="#e0e0e1" d="M700 100h100v100H700z"/><path fill="#f5f5f6" d="M0 200h100v100H0z"/><path fill="#bfc0c2" d="M100 200h100v100H100z"/><path fill="#c5c5c9" d="M200 200h100v100H200z"/><path fill="#cacbcd" d="M300 200h100v100H300z"/><path fill="#afafb3" d="M400 200h100v100H400z"/><path fill="#96969c" d="M500 200h100v100H500z"/><path fill="#b4b3b6" d="M600 200h100v100H600z"/><path fill="#f1f0ef" d="M700 200h100v100H700z"/><path fill="#e7e7e9" d="M0 300h100v100H0z"/><path fill="#c0c1c3" d="M100 300h100v100H100z"/><path fill="#bebec1" d="M200 300h100v100H200zm100 0h100v100H300z"/><path fill="#c4c4c7" d="M400 300h100v100H400z"/><path fill="#a3a3a7" d="M500 300h100v100H500z"/><path fill="#8d8b8c" d="M600 300h100v100H600z"/><path fill="#8e8d8b" d="M700 300h100v100H700z"/><path fill="#dedfe0" d="M0 400h100v100H0z"/><path fill="#cbcccf" d="M100 400h100v100H100z"/><path fill="#c8c8cb" d="M200 400h100v100H200z"/><path fill="#cdcdcf" d="M300 400h100v100H300z"/><path fill="#c8c8ca" d="M400 400h100v100H400z"/><path fill="#c0c1c4" d="M500 400h100v100H500z"/><path fill="#9a9c9a" d="M600 400h100v100H600z"/><path fill="#73726e" d="M700 400h100v100H700z"/><path fill="#f7f7f7" d="M0 500h100v100H0z"/><path fill="#ececed" d="M100 500h100v100H100z"/><path fill="#efeff0" d="M200 500h100v100H200z"/><path fill="#fbfafb" d="M300 500h100v100H300z"/><path fill="#f0eff0" d="M400 500h100v100H400z"/><path fill="#f2f3f3" d="M500 500h100v100H500z"/><path fill="#dddcdd" d="M600 500h100v100H600z"/><path fill="#d1d1d1" d="M700 500h100v100H700z"/></svg>