<svg xmlns="http://www.w3.org/2000/svg" viewBox="0 0 800 600"><defs/><path fill="#fdfdfd" d="M0 0h100v100H0z"/><path fill="#f9f9f9" d="M100 0h100v100H100z"/><path fill="#fdfdfd" d="M200 0h100v100H200z"/><path fill="#f7f7f7" d="M300 0h100v100H300z"/><path fill="#f8f8f8" d="M400 0h100v100H400z"/><path fill="#fdfdfd" d="M500 0h100v100H500z"/><path fill="#f9f9f9" d="M600 0h100v100H600z"/><path fill="#fdfdfd" d="M700 0h100v100H700z"/><path fill="#f3f3f3" d="M0 100h100v100H0z"/><path fill="#b2b2b2" d="M100 100h100v100H100z"/><path fill="#dbdbdb" d="M200 100h100v100H200z"/><path fill="#c6c6c6" d="M300 100h100v100H300z"/><path fill="#b4b4b4" d="M400 100h100v100H400z"/><path fill="#c6c6c6" d="M500 100h100v100H500z"/><path fill="#b9b9b9" d="M600 100h100v100H600zm100 0h100v100H700z"/><path fill="#e5e5e5" d="M0 200h100v100H0z"/><path fill="#a2a2a2" d="M100 200h100v100H100z"/><path fill="#cbcbcb" d="M200 200h100v100H200z"/><path fill="#cfcfcf" d="M300 200h100v100H300z"/><path fill="#bebebe" d="M400 200h100v100H400z"/><path fill="#ababab" d="M500 200h100v100H500z"/><path fill="#b0b0b0" d="M600 200h100v100H600z"/><path fill="#afafaf" d="M700 200h100v100H700z"/><path fill="#cecece" d="M0 300h100v100H0z"/><path fill="#b7b7b7" d="M100 300h100v100H100z"/><path fill="#bababa" d="M200 300h100v100H200z"/><path fill="#a9a9a9" d="M300 300h100v100H300z"/><path fill="#aeaeae" d="M400 300h100v100H400z"/><path fill="#999" d="M500 300h100v100H500z"/><path fill="#a7a7a7" d="M600 300h100v100H600z"/><path fill="#b2b2b2" d="M700 300h100v100H700z"/><path fill="#c4c4c4" d="M0 400h100v100H0z"/><path fill="#b8b8b8" d="M100 400h100v100H100z"/><path fill="#d3d3d3" d="M200 400h100v100H200z"/><path fill="#c3c3c3" d="M300 400h100v100H300z"/><path fill="silver" d="M400 400h100v100H400z"/><path fill="#b0b0b0" d="M500 400h100v100H500z"/><path fill="#a9a9a9" d="M600 400h100v100H600z"/><path fill="#c7c7c7" d="M700 400h100v100H700z"/><path fill="#f1f1f1" d="M0 500h100v100H0zm100 0h100v100H100z"/><path fill="#efefef" d="M200 500h100v100H200z"/><path fill="#eee" d="M300 500h100v100H300z"/><path fill="#ededed" d="M400 500h100v100H400z"/><path fill="#f7f7f7" d="M500 500h100v100H500z"/><path fill="#f0f0f0" d="M600 500h100v100H600z"/><path fill="#e6e6e6" d="M700 500h100v100H700z"/></svg>