<svg xmlns="http://www.w3.org/2000/svg" viewBox="0 0 800 500"><defs/><path fill="#43601b" d="M0 0h100v100H0z"/><path fill="#426220" d="M100 0h100v100H100z"/><path fill="#546c4f" d="M200 0h100v100H200z"/><path fill="#627a5e" d="M300 0h100v100H300z"/><path fill="#667758" d="M400 0h100v100H400z"/><path fill="#516c2c" d="M500 0h100v100H500z"/><path fill="#3e5b16" d="M600 0h100v100H600z"/><path fill="#43552e" d="M700 0h100v100H700z"/><path fill="#3f6216" d="M0 100h100v100H0z"/><path fill="#5a6e44" d="M100 100h100v100H100z"/><path fill="#807b87" d="M200 100h100v100H200z"/><path fill="#828087" d="M300 100h100v100H300z"/><path fill="#7f7a8a" d="M400 100h100v100H400z"/><path fill="#5a6c4f" d="M500 100h100v100H500z"/><path fill="#3f5e17" d="M600 100h100v100H600z"/><path fill="#3b5419" d="M700 100h100v100H700z"/><path fill="#3a5b13" d="M0 200h100v100H0z"/><path fill="#637052" d="M100 200h100v100H100z"/><path fill="#6f687a" d="M200 200h100v100H200z"/><path fill="#6c6872" d="M300 200h100v100H300z"/><path fill="#696271" d="M400 200h100v100H400z"/><path fill="#4e5e59" d="M500 200h100v100H500z"/><path fill="#36541b" d="M600 200h100v100H600z"/><path fill="#3f551a" d="M700 200h100v100H700z"/><path fill="#45641d" d="M0 300h100v100H0z"/><path fill="#4b6524" d="M100 300h100v100H100z"/><path fill="#536538" d="M200 300h100v100H200z"/><path fill="#55693b" d="M300 300h100v100H300z"/><path fill="#42583a" d="M400 300h100v100H400z"/><path fill="#2c4e2c" d="M500 300h100v100H500z"/><path fill="#2b4c21" d="M600 300h100v100H600z"/><path fill="#395021" d="M700 300h100v100H700z"/><path fill="#44641d" d="M0 400h100v100H0z"/><path fill="#476a1c" d="M100 400h100v100H100z"/><path fill="#456918" d="M200 400h100v100H200z"/><path fill="#3e6115" d="M300 400h100v100H300z"/><path fill="#365814" d="M400 400h100v100H400z"/><path fill="#2d531c" d="M500 400h100v100H500z"/><path fill="#294e23" d="M600 400h100v100H600z"/><path fill="#335623" d="M700 400h100v100H700z"/></svg>