<svg xmlns="http://www.w3.org/2000/svg" viewBox="0 0 800 1100"><defs/><path fill="#85766b" d="M0 0h100v100H0z"/><path fill="#968678" d="M100 0h100v100H100z"/><path fill="#806a5d" d="M200 0h100v100H200z"/><path fill="#846c5f" d="M300 0h100v100H300z"/><path fill="#8d7365" d="M400 0h100v100H400z"/><path fill="#9d7d6c" d="M500 0h100v100H500z"/><path fill="#a68473" d="M600 0h100v100H600z"/><path fill="#9f806f" d="M700 0h100v100H700z"/><path fill="#766a5e" d="M0 100h100v100H0z"/><path fill="#a49a8e" d="M100 100h100v100H100z"/><path fill="#a59b8e" d="M200 100h100v100H200z"/><path fill="#afa395" d="M300 100h100v100H300z"/><path fill="#c0b5a6" d="M400 100h100v100H400z"/><path fill="#cdbdae" d="M500 100h100v100H500z"/><path fill="#d9c0b0" d="M600 100h100v100H600z"/><path fill="#cfb3a3" d="M700 100h100v100H700z"/><path fill="#7d6b5d" d="M0 200h100v100H0z"/><path fill="#ac9d8f" d="M100 200h100v100H100z"/><path fill="#a7998c" d="M200 200h100v100H200z"/><path fill="#b1a496" d="M300 200h100v100H300z"/><path fill="#b9ab9d" d="M400 200h100v100H400z"/><path fill="#c5b9ab" d="M500 200h100v100H500z"/><path fill="#cec5b7" d="M600 200h100v100H600z"/><path fill="#c2b6a9" d="M700 200h100v100H700z"/><path fill="#85796b" d="M0 300h100v100H0z"/><path fill="#b0a899" d="M100 300h100v100H100z"/><path fill="#bbb0a0" d="M200 300h100v100H200z"/><path fill="#c7bcab" d="M300 300h100v100H300z"/><path fill="#bfb0a0" d="M400 300h100v100H400z"/><path fill="#c8baaa" d="M500 300h100v100H500z"/><path fill="#d8c4b7" d="M600 300h100v100H600z"/><path fill="#cbb5ab" d="M700 300h100v100H700z"/><path fill="#82705f" d="M0 400h100v100H0z"/><path fill="#b1a290" d="M100 400h100v100H100z"/><path fill="#beb19f" d="M200 400h100v100H200z"/><path fill="#bbb19f" d="M300 400h100v100H300z"/><path fill="#b9b5a2" d="M400 400h100v100H400z"/><path fill="#babea8" d="M500 400h100v100H500z"/><path fill="#d8d3c1" d="M600 400h100v100H600z"/><path fill="#d3c2b3" d="M700 400h100v100H700z"/><path fill="#806b5a" d="M0 500h100v100H0z"/><path fill="#a89274" d="M100 500h100v100H100z"/><path fill="#c3b7a3" d="M200 500h100v100H200z"/><path fill="#bfb5a4" d="M300 500h100v100H300z"/><path fill="#a7ab88" d="M400 500h100v100H400z"/><path fill="#c9c7b0" d="M500 500h100v100H500z"/><path fill="#ddd4b7" d="M600 500h100v100H600z"/><path fill="#cec5ab" d="M700 500h100v100H700z"/><path fill="#8c7c6b" d="M0 600h100v100H0z"/><path fill="#c1ae97" d="M100 600h100v100H100z"/><path fill="#cfc2ae" d="M200 600h100v100H200z"/><path fill="#d8d1c0" d="M300 600h100v100H300z"/><path fill="#d7cdb3" d="M400 600h100v100H400z"/><path fill="#e1d4bf" d="M500 600h100v100H500z"/><path fill="#e8e0be" d="M600 600h100v100H600z"/><path fill="#d6d0ac" d="M700 600h100v100H700z"/><path fill="#917b68" d="M0 700h100v100H0z"/><path fill="#bcaea1" d="M100 700h100v100H100z"/><path fill="#bdaea0" d="M200 700h100v100H200z"/><path fill="#cfbfab" d="M300 700h100v100H300z"/><path fill="#cbc4b9" d="M400 700h100v100H400z"/><path fill="#d1c8bb" d="M500 700h100v100H500z"/><path fill="#e1d2be" d="M600 700h100v100H600z"/><path fill="#c7bfaf" d="M700 700h100v100H700z"/><path fill="#7d726d" d="M0 800h100v100H0z"/><path fill="#a1aab8" d="M100 800h100v100H100z"/><path fill="#a4abb5" d="M200 800h100v100H200z"/><path fill="#acb2b8" d="M300 800h100v100H300z"/><path fill="#abb5c0" d="M400 800h100v100H400z"/><path fill="#afbac6" d="M500 800h100v100H500z"/><path fill="#c2c7cc" d="M600 800h100v100H600z"/><path fill="#b7bbc0" d="M700 800h100v100H700z"/><path fill="#8f8f91" d="M0 900h100v100H0z"/><path fill="#c0cad5" d="M100 900h100v100H100z"/><path fill="#c1cbd4" d="M200 900h100v100H200z"/><path fill="#bdc9d5" d="M300 900h100v100H300z"/><path fill="#c9d1d8" d="M400 900h100v100H400z"/><path fill="#d3dae0" d="M500 900h100v100H500z"/><path fill="#cfd8e2" d="M600 900h100v100H600z"/><path fill="#c9ccce" d="M700 900h100v100H700z"/><path fill="#584d46" d="M0 1000h100v100H0z"/><path fill="#706967" d="M100 1000h100v100H100z"/><path fill="#706966" d="M200 1000h100v100H200z"/><path fill="#6f6461" d="M300 1000h100v100H300z"/><path fill="#70645e" d="M400 1000h100v100H400z"/><path fill="#655a55" d="M500 1000h100v100H500z"/><path fill="#5f544e" d="M600 1000h100v100H600z"/><path fill="#5a4d46" d="M700 1000h100v100H700z"/></svg>