<svg xmlns="http://www.w3.org/2000/svg" viewBox="0 0 800 400"><defs/><path fill="#aba394" d="M0 0h100v100H0z"/><path fill="#9c8277" d="M100 0h100v100H100z"/><path fill="#b5aea3" d="M200 0h100v100H200z"/><path fill="#b2a89d" d="M300 0h100v100H300z"/><path fill="#a6a5a1" d="M400 0h100v100H400z"/><path fill="#979a96" d="M500 0h100v100H500z"/><path fill="#9d9c94" d="M600 0h100v100H600z"/><path fill="#a4a08e" d="M700 0h100v100H700z"/><path fill="#aea08e" d="M0 100h100v100H0z"/><path fill="#a68d80" d="M100 100h100v100H100z"/><path fill="#b8a9a5" d="M200 100h100v100H200z"/><path fill="#ab9793" d="M300 100h100v100H300z"/><path fill="#9b9488" d="M400 100h100v100H400z"/><path fill="#838480" d="M500 100h100v100H500z"/><path fill="#93958c" d="M600 100h100v100H600z"/><path fill="#928e77" d="M700 100h100v100H700z"/><path fill="#a69283" d="M0 200h100v100H0z"/><path fill="#a38f88" d="M100 200h100v100H100z"/><path fill="#ab9ea1" d="M200 200h100v100H200z"/><path fill="#ac9b9b" d="M300 200h100v100H300z"/><path fill="#746e6b" d="M400 200h100v100H400z"/><path fill="#646772" d="M500 200h100v100H500z"/><path fill="#61676b" d="M600 200h100v100H600z"/><path fill="#7c7864" d="M700 200h100v100H700z"/><path fill="#a08c7c" d="M0 300h100v100H0z"/><path fill="#a59091" d="M100 300h100v100H100z"/><path fill="#a9939e" d="M200 300h100v100H200z"/><path fill="#a6878c" d="M300 300h100v100H300z"/><path fill="#948581" d="M400 300h100v100H400z"/><path fill="#78716b" d="M500 300h100v100H500z"/><path fill="#756b67" d="M600 300h100v100H600z"/><path fill="#84756b" d="M700 300h100v100H700z"/></svg>