<svg xmlns="http://www.w3.org/2000/svg" viewBox="0 0 800 800"><defs/><path fill="#afa398" d="M0 0h100v100H0z"/><path fill="#4f4741" d="M100 0h100v100H100z"/><path fill="#60554b" d="M200 0h100v100H200z"/><path fill="#665c50" d="M300 0h100v100H300z"/><path fill="#5f6256" d="M400 0h100v100H400z"/><path fill="#beb8af" d="M500 0h100v100H500z"/><path fill="#fef8f0" d="M600 0h100v100H600z"/><path fill="#ede6da" d="M700 0h100v100H700z"/><path fill="#b1a8a1" d="M0 100h100v100H0z"/><path fill="#3a3430" d="M100 100h100v100H100z"/><path fill="#3d332b" d="M200 100h100v100H200z"/><path fill="#4a4338" d="M300 100h100v100H300z"/><path fill="#3d5046" d="M400 100h100v100H400z"/><path fill="#a79f94" d="M500 100h100v100H500z"/><path fill="#f8e5d4" d="M600 100h100v100H600z"/><path fill="#ddcbbb" d="M700 100h100v100H700z"/><path fill="#b5aeac" d="M0 200h100v100H0z"/><path fill="#3d3638" d="M100 200h100v100H100z"/><path fill="#2a2123" d="M200 200h100v100H200z"/><path fill="#40302a" d="M300 200h100v100H300z"/><path fill="#373f3b" d="M400 200h100v100H400z"/><path fill="#5d544e" d="M500 200h100v100H500z"/><path fill="#bcac9d" d="M600 200h100v100H600z"/><path fill="#cfbcaa" d="M700 200h100v100H700z"/><path fill="#b1acaa" d="M0 300h100v100H0z"/><path fill="#463b3a" d="M100 300h100v100H100z"/><path fill="#3f2d2a" d="M200 300h100v100H200z"/><path fill="#613a26" d="M300 300h100v100H300z"/><path fill="#3c2620" d="M400 300h100v100H400z"/><path fill="#4a362f" d="M500 300h100v100H500z"/><path fill="#9e8e7f" d="M600 300h100v100H600z"/><path fill="#c5b4a3" d="M700 300h100v100H700z"/><path fill="#b5b2b2" d="M0 400h100v100H0z"/><path fill="#493937" d="M100 400h100v100H100z"/><path fill="#73442e" d="M200 400h100v100H200z"/><path fill="#784b29" d="M300 400h100v100H300z"/><path fill="#23130f" d="M400 400h100v100H400z"/><path fill="#7f7167" d="M500 400h100v100H500z"/><path fill="#b1a492" d="M600 400h100v100H600z"/><path fill="#b5a494" d="M700 400h100v100H700z"/><path fill="#9a9791" d="M0 500h100v100H0z"/><path fill="#3e3730" d="M100 500h100v100H100z"/><path fill="#402e27" d="M200 500h100v100H200z"/><path fill="#4a3527" d="M300 500h100v100H300z"/><path fill="#252019" d="M400 500h100v100H400z"/><path fill="#857a6f" d="M500 500h100v100H500z"/><path fill="#b29386" d="M600 500h100v100H600z"/><path fill="#ab9989" d="M700 500h100v100H700z"/><path fill="#89857e" d="M0 600h100v100H0z"/><path fill="#322f29" d="M100 600h100v100H100z"/><path fill="#070c0f" d="M200 600h100v100H200z"/><path fill="#242422" d="M300 600h100v100H300z"/><path fill="#433e34" d="M400 600h100v100H400z"/><path fill="#746c5d" d="M500 600h100v100H500z"/><path fill="#928472" d="M600 600h100v100H600z"/><path fill="#9e8e7c" d="M700 600h100v100H700z"/><path fill="#949699" d="M0 700h100v100H0z"/><path fill="#413e36" d="M100 700h100v100H100z"/><path fill="#272725" d="M200 700h100v100H200z"/><path fill="#333127" d="M300 700h100v100H300z"/><path fill="#302e24" d="M400 700h100v100H400z"/><path fill="#6b6352" d="M500 700h100v100H500z"/><path fill="#887e69" d="M600 700h100v100H600z"/><path fill="#857663" d="M700 700h100v100H700z"/></svg>