<svg xmlns="http://www.w3.org/2000/svg" viewBox="0 0 800 800"><defs/><path fill="#e7e4e3" d="M0 0h100v100H0z"/><path fill="#afa9a9" d="M100 0h100v100H100z"/><path fill="#e8e4e4" d="M200 0h100v100H200z"/><path fill="#e9e9ea" d="M300 0h100v100H300z"/><path fill="#dcdcdc" d="M400 0h100v100H400z"/><path fill="#e1e0e0" d="M500 0h100v100H500z"/><path fill="#efeeee" d="M600 0h100v100H600z"/><path fill="#f4f2f3" d="M700 0h100v100H700z"/><path fill="#d3cccc" d="M0 100h100v100H0z"/><path fill="#bfaeae" d="M100 100h100v100H100z"/><path fill="#d6cfce" d="M200 100h100v100H200z"/><path fill="#e4e1e2" d="M300 100h100v100H300z"/><path fill="#cfcacb" d="M400 100h100v100H400z"/><path fill="#d6d6d6" d="M500 100h100v100H500z"/><path fill="#e1e0e0" d="M600 100h100v100H600z"/><path fill="#ededed" d="M700 100h100v100H700z"/><path fill="#f8f9f8" d="M0 200h100v100H0z"/><path fill="#e7eaea" d="M100 200h100v100H100z"/><path fill="#e1e4e4" d="M200 200h100v100H200z"/><path fill="#f7f1f2" d="M300 200h100v100H300z"/><path fill="#eee5e5" d="M400 200h100v100H400z"/><path fill="#f0f2f2" d="M500 200h100v100H500z"/><path fill="#e2e2e2" d="M600 200h100v100H600z"/><path fill="#fcfcfc" d="M700 200h100v100H700z"/><path fill="#eaebeb" d="M0 300h100v100H0z"/><path fill="#bababb" d="M100 300h100v100H100z"/><path fill="#bbbdbe" d="M200 300h100v100H200z"/><path fill="#ded9d9" d="M300 300h100v100H300z"/><path fill="#c0b7b8" d="M400 300h100v100H400z"/><path fill="#bcbebf" d="M500 300h100v100H500z"/><path fill="#7c7c7d" d="M600 300h100v100H600z"/><path fill="#e8e9e9" d="M700 300h100v100H700z"/><path fill="#ede0e0" d="M0 400h100v100H0z"/><path fill="#d4c4c4" d="M100 400h100v100H100z"/><path fill="#b3a7a8" d="M200 400h100v100H200z"/><path fill="#fbeced" d="M300 400h100v100H300z"/><path fill="#d4c4c5" d="M400 400h100v100H400z"/><path fill="#a5999a" d="M500 400h100v100H500z"/><path fill="#7d7070" d="M600 400h100v100H600z"/><path fill="#e2d9d9" d="M700 400h100v100H700z"/><path fill="#bcbaba" d="M0 500h100v100H0z"/><path fill="#e0dedf" d="M100 500h100v100H100z"/><path fill="#bfbfbf" d="M200 500h100v100H200z"/><path fill="#e6e1e2" d="M300 500h100v100H300z"/><path fill="#f4eced" d="M400 500h100v100H400z"/><path fill="#e1e2e2" d="M500 500h100v100H500z"/><path fill="#e6e5e6" d="M600 500h100v100H600z"/><path fill="#f4f3f3" d="M700 500h100v100H700z"/><path fill="#b2b3b3" d="M0 600h100v100H0z"/><path fill="#bcbcbd" d="M100 600h100v100H100z"/><path fill="#c8caca" d="M200 600h100v100H200z"/><path fill="#d7d1d1" d="M300 600h100v100H300z"/><path fill="#cec3c4" d="M400 600h100v100H400z"/><path fill="#76787a" d="M500 600h100v100H500z"/><path fill="#d0d0d1" d="M600 600h100v100H600z"/><path fill="#e2e2e2" d="M700 600h100v100H700z"/><path fill="#e2e1e2" d="M0 700h100v100H0z"/><path fill="#e2e2e3" d="M100 700h100v100H100z"/><path fill="#e6e7e7" d="M200 700h100v100H200z"/><path fill="#ddd9d9" d="M300 700h100v100H300z"/><path fill="#d7d0d1" d="M400 700h100v100H400z"/><path fill="#6b6c6d" d="M500 700h100v100H500z"/><path fill="#dbdbdb" d="M600 700h100v100H600z"/><path fill="#f7f7f7" d="M700 700h100v100H700z"/></svg>