<svg xmlns="http://www.w3.org/2000/svg" viewBox="0 0 800 500"><defs/><path fill="#afb0dd" d="M0 0h100v100H0z"/><path fill="#b4cadb" d="M100 0h100v100H100z"/><path fill="#beccdf" d="M200 0h100v100H200z"/><path fill="#b9c1e1" d="M300 0h100v100H300z"/><path fill="#afb4de" d="M400 0h100v100H400z"/><path fill="#c1c4e2" d="M500 0h100v100H500z"/><path fill="#cacce3" d="M600 0h100v100H600z"/><path fill="#b1b4df" d="M700 0h100v100H700z"/><path fill="#4350e7" d="M0 100h100v100H0z"/><path fill="#41b1da" d="M100 100h100v100H100z"/><path fill="#9ebac4" d="M200 100h100v100H200z"/><path fill="#8ca4c3" d="M300 100h100v100H300z"/><path fill="#4269ff" d="M400 100h100v100H400z"/><path fill="#878fc3" d="M500 100h100v100H500z"/><path fill="#999290" d="M600 100h100v100H600z"/><path fill="#312ee7" d="M700 100h100v100H700z"/><path fill="#5a91dd" d="M0 200h100v100H0z"/><path fill="#58bdd2" d="M100 200h100v100H100z"/><path fill="#73af90" d="M200 200h100v100H200z"/><path fill="#6e966c" d="M300 200h100v100H300z"/><path fill="#7475a1" d="M400 200h100v100H400z"/><path fill="#6e5e8d" d="M500 200h100v100H500z"/><path fill="#847798" d="M600 200h100v100H600z"/><path fill="#4064e1" d="M700 200h100v100H700z"/><path fill="#56c3d9" d="M0 300h100v100H0z"/><path fill="#64c6cc" d="M100 300h100v100H100z"/><path fill="#90a9d9" d="M200 300h100v100H200z"/><path fill="#857fac" d="M300 300h100v100H300z"/><path fill="#9f787f" d="M400 300h100v100H400z"/><path fill="#85689f" d="M500 300h100v100H500z"/><path fill="#967ebe" d="M600 300h100v100H600z"/><path fill="#5088df" d="M700 300h100v100H700z"/><path fill="#96cfd1" d="M0 400h100v100H0z"/><path fill="#abced2" d="M100 400h100v100H100z"/><path fill="#bdc4d7" d="M200 400h100v100H200z"/><path fill="#abb6df" d="M300 400h100v100H300z"/><path fill="#98a1e7" d="M400 400h100v100H400z"/><path fill="#9193e4" d="M500 400h100v100H500z"/><path fill="#928bd9" d="M600 400h100v100H600z"/><path fill="#8997da" d="M700 400h100v100H700z"/></svg>