<svg xmlns="http://www.w3.org/2000/svg" viewBox="0 0 800 400"><defs/><path fill="#a7a591" d="M0 0h100v100H0z"/><path fill="#898561" d="M100 0h100v100H100z"/><path fill="#a09986" d="M200 0h100v100H200z"/><path fill="#a89e91" d="M300 0h100v100H300z"/><path fill="#b7af9b" d="M400 0h100v100H400z"/><path fill="#999489" d="M500 0h100v100H500z"/><path fill="#939183" d="M600 0h100v100H600z"/><path fill="#b7b8a3" d="M700 0h100v100H700z"/><path fill="#908d75" d="M0 100h100v100H0z"/><path fill="#908b63" d="M100 100h100v100H100z"/><path fill="#c9c6ab" d="M200 100h100v100H200z"/><path fill="#c5bdab" d="M300 100h100v100H300z"/><path fill="#d9d2aa" d="M400 100h100v100H400z"/><path fill="#8e8d83" d="M500 100h100v100H500z"/><path fill="#7a7560" d="M600 100h100v100H600z"/><path fill="#979a76" d="M700 100h100v100H700z"/><path fill="#c2bd96" d="M0 200h100v100H0z"/><path fill="#aca076" d="M100 200h100v100H100z"/><path fill="#b4ac95" d="M200 200h100v100H200z"/><path fill="#a89f89" d="M300 200h100v100H300z"/><path fill="#b8b59c" d="M400 200h100v100H400z"/><path fill="#898481" d="M500 200h100v100H500z"/><path fill="#726750" d="M600 200h100v100H600z"/><path fill="#898c69" d="M700 200h100v100H700z"/><path fill="#cdbf92" d="M0 300h100v100H0z"/><path fill="#bea87e" d="M100 300h100v100H100z"/><path fill="#aaa089" d="M200 300h100v100H200z"/><path fill="#98947f" d="M300 300h100v100H300z"/><path fill="#949179" d="M400 300h100v100H400z"/><path fill="#b39985" d="M500 300h100v100H500z"/><path fill="#e3ae79" d="M600 300h100v100H600z"/><path fill="#a29972" d="M700 300h100v100H700z"/></svg>