<svg xmlns="http://www.w3.org/2000/svg" viewBox="0 0 800 500"><defs/><path fill="#d3d4c7" d="M0 0h100v100H0z"/><path fill="#bcb6a1" d="M100 0h100v100H100z"/><path fill="#d3cebf" d="M200 0h100v100H200z"/><path fill="#e1d8ca" d="M300 0h100v100H300z"/><path fill="#e5e0de" d="M400 0h100v100H400z"/><path fill="#e1deda" d="M500 0h100v100H500z"/><path fill="#d2d4cd" d="M600 0h100v100H600z"/><path fill="#c2c2be" d="M700 0h100v100H700z"/><path fill="#b4bbaa" d="M0 100h100v100H0z"/><path fill="#a59b78" d="M100 100h100v100H100z"/><path fill="#9ba690" d="M200 100h100v100H200z"/><path fill="#b0a089" d="M300 100h100v100H300z"/><path fill="#a6b0b6" d="M400 100h100v100H400z"/><path fill="#9ba8ad" d="M500 100h100v100H500z"/><path fill="#bcacaa" d="M600 100h100v100H600z"/><path fill="#bac0bf" d="M700 100h100v100H700z"/><path fill="#c7c6b5" d="M0 200h100v100H0z"/><path fill="#b3a180" d="M100 200h100v100H100z"/><path fill="#8b8077" d="M200 200h100v100H200z"/><path fill="#ba9993" d="M300 200h100v100H300z"/><path fill="#b7af9a" d="M400 200h100v100H400z"/><path fill="#9a9c85" d="M500 200h100v100H500z"/><path fill="#bab9ae" d="M600 200h100v100H600z"/><path fill="#adbac7" d="M700 200h100v100H700z"/><path fill="#c0baa6" d="M0 300h100v100H0z"/><path fill="#998d70" d="M100 300h100v100H100z"/><path fill="#84806b" d="M200 300h100v100H200z"/><path fill="#6f7869" d="M300 300h100v100H300z"/><path fill="#82a395" d="M400 300h100v100H400z"/><path fill="#a7b392" d="M500 300h100v100H500z"/><path fill="#af9e7e" d="M600 300h100v100H600z"/><path fill="#bbab9f" d="M700 300h100v100H700z"/><path fill="#c8bda9" d="M0 400h100v100H0z"/><path fill="#a9b69d" d="M100 400h100v100H100z"/><path fill="#91c0a7" d="M200 400h100v100H200z"/><path fill="#7da697" d="M300 400h100v100H300z"/><path fill="#a5bcb6" d="M400 400h100v100H400z"/><path fill="#bccac2" d="M500 400h100v100H500z"/><path fill="#d2c7b6" d="M600 400h100v100H600z"/><path fill="#bfb399" d="M700 400h100v100H700z"/></svg>