<svg xmlns="http://www.w3.org/2000/svg" viewBox="0 0 800 500"><defs/><path fill="#9f8584" d="M0 0h100v100H0z"/><path fill="#8f6765" d="M100 0h100v100H100z"/><path fill="#9e8684" d="M200 0h100v100H200z"/><path fill="#a39293" d="M300 0h100v100H300z"/><path fill="#8b7875" d="M400 0h100v100H400z"/><path fill="#957f74" d="M500 0h100v100H500z"/><path fill="#6b5956" d="M600 0h100v100H600z"/><path fill="#84716d" d="M700 0h100v100H700z"/><path fill="#896e70" d="M0 100h100v100H0z"/><path fill="#5e2f2e" d="M100 100h100v100H100z"/><path fill="#3b4635" d="M200 100h100v100H200z"/><path fill="#6c655d" d="M300 100h100v100H300z"/><path fill="#543e38" d="M400 100h100v100H400z"/><path fill="#513b2f" d="M500 100h100v100H500z"/><path fill="#3c2c28" d="M600 100h100v100H600z"/><path fill="#513f3c" d="M700 100h100v100H700z"/><path fill="#8b6663" d="M0 200h100v100H0z"/><path fill="#562627" d="M100 200h100v100H100z"/><path fill="#686045" d="M200 200h100v100H200z"/><path fill="#937e73" d="M300 200h100v100H300z"/><path fill="#997264" d="M400 200h100v100H400z"/><path fill="#7f5f52" d="M500 200h100v100H500z"/><path fill="#8b7772" d="M600 200h100v100H600z"/><path fill="#937d73" d="M700 200h100v100H700z"/><path fill="#855957" d="M0 300h100v100H0z"/><path fill="#511f1b" d="M100 300h100v100H100z"/><path fill="#ad6f53" d="M200 300h100v100H200z"/><path fill="#b25249" d="M300 300h100v100H300z"/><path fill="#8e4d3c" d="M400 300h100v100H400z"/><path fill="#784c39" d="M500 300h100v100H500z"/><path fill="#83533e" d="M600 300h100v100H600z"/><path fill="#b2795e" d="M700 300h100v100H700z"/><path fill="#925f56" d="M0 400h100v100H0z"/><path fill="#824632" d="M100 400h100v100H100z"/><path fill="#b67c5c" d="M200 400h100v100H200z"/><path fill="#ae6e5a" d="M300 400h100v100H300z"/><path fill="#b48c65" d="M400 400h100v100H400z"/><path fill="#bf976f" d="M500 400h100v100H500z"/><path fill="#b7836c" d="M600 400h100v100H600z"/><path fill="#c89784" d="M700 400h100v100H700z"/></svg>