<svg xmlns="http://www.w3.org/2000/svg" viewBox="0 0 800 500"><defs/><path fill="#b4c9c0" d="M0 0h100v100H0z"/><path fill="#606259" d="M100 0h100v100H100z"/><path fill="#57654c" d="M200 0h100v100H200z"/><path fill="#84958a" d="M300 0h100v100H300z"/><path fill="#b6d2d0" d="M400 0h100v100H400z"/><path fill="#9ebeb7" d="M500 0h100v100H500z"/><path fill="#84958b" d="M600 0h100v100H600z"/><path fill="#8d9e90" d="M700 0h100v100H700z"/><path fill="#a0b7ab" d="M0 100h100v100H0z"/><path fill="#292d23" d="M100 100h100v100H100z"/><path fill="#385531" d="M200 100h100v100H200z"/><path fill="#67796a" d="M300 100h100v100H300z"/><path fill="#79747d" d="M400 100h100v100H400z"/><path fill="#595554" d="M500 100h100v100H500z"/><path fill="#718779" d="M600 100h100v100H600z"/><path fill="#84a594" d="M700 100h100v100H700z"/><path fill="#95a79b" d="M0 200h100v100H0z"/><path fill="#373127" d="M100 200h100v100H100z"/><path fill="#3b4e38" d="M200 200h100v100H200z"/><path fill="#676f64" d="M300 200h100v100H300z"/><path fill="#5d4043" d="M400 200h100v100H400z"/><path fill="#5d3f3d" d="M500 200h100v100H500z"/><path fill="#635b5b" d="M600 200h100v100H600z"/><path fill="#727177" d="M700 200h100v100H700z"/><path fill="#858a81" d="M0 300h100v100H0z"/><path fill="#311b14" d="M100 300h100v100H100z"/><path fill="#2a2e24" d="M200 300h100v100H200z"/><path fill="#362c24" d="M300 300h100v100H300z"/><path fill="#26201e" d="M400 300h100v100H400z"/><path fill="#342621" d="M500 300h100v100H500z"/><path fill="#361916" d="M600 300h100v100H600z"/><path fill="#625b60" d="M700 300h100v100H700z"/><path fill="#756b66" d="M0 400h100v100H0z"/><path fill="#37231d" d="M100 400h100v100H100z"/><path fill="#273c30" d="M200 400h100v100H200z"/><path fill="#36332b" d="M300 400h100v100H300z"/><path fill="#372b2b" d="M400 400h100v100H400z"/><path fill="#342c28" d="M500 400h100v100H500z"/><path fill="#2d2520" d="M600 400h100v100H600z"/><path fill="#3f3b37" d="M700 400h100v100H700z"/></svg>