<svg xmlns="http://www.w3.org/2000/svg" viewBox="0 0 800 400"><defs/><path fill="#aad3e6" d="M0 0h100v100H0z"/><path fill="#88b8ef" d="M100 0h100v100H100z"/><path fill="#deddd9" d="M200 0h100v100H200z"/><path fill="#c7f0e5" d="M300 0h100v100H300z"/><path fill="#a19aa7" d="M400 0h100v100H400z"/><path fill="#d3c1dc" d="M500 0h100v100H500z"/><path fill="#f9eaf8" d="M600 0h100v100H600z"/><path fill="#fbfbfc" d="M700 0h100v100H700z"/><path fill="#9fc6dc" d="M0 100h100v100H0z"/><path fill="#a8c5f2" d="M100 100h100v100H100z"/><path fill="#e5e3d1" d="M200 100h100v100H200z"/><path fill="#b5e1cd" d="M300 100h100v100H300z"/><path fill="#9e9099" d="M400 100h100v100H400z"/><path fill="#a5abd2" d="M500 100h100v100H500z"/><path fill="#c2cef0" d="M600 100h100v100H600z"/><path fill="#e1f2fa" d="M700 100h100v100H700z"/><path fill="#aacdf8" d="M0 200h100v100H0z"/><path fill="#84add0" d="M100 200h100v100H100z"/><path fill="#a28b66" d="M200 200h100v100H200z"/><path fill="#9f9e92" d="M300 200h100v100H300z"/><path fill="#6281a7" d="M400 200h100v100H400z"/><path fill="#74b0e7" d="M500 200h100v100H500z"/><path fill="#b0d2ce" d="M600 200h100v100H600z"/><path fill="#c4e3e6" d="M700 200h100v100H700z"/><path fill="#71b1ee" d="M0 300h100v100H0z"/><path fill="#3e9ff2" d="M100 300h100v100H100z"/><path fill="#3282cf" d="M200 300h100v100H200z"/><path fill="#3195ee" d="M300 300h100v100H300z"/><path fill="#32a3ff" d="M400 300h100v100H400z"/><path fill="#379df5" d="M500 300h100v100H500z"/><path fill="#3eabf6" d="M600 300h100v100H600z"/><path fill="#69bdf6" d="M700 300h100v100H700z"/></svg>