<svg xmlns="http://www.w3.org/2000/svg" viewBox="0 0 800 400"><defs/><path fill="#d8c3a9" d="M0 0h100v100H0z"/><path fill="#f9efe3" d="M100 0h100v100H100z"/><path fill="#f4f1c3" d="M200 0h100v100H200z"/><path fill="#e0d9ab" d="M300 0h100v100H300z"/><path fill="#f4efb1" d="M400 0h100v100H400z"/><path fill="#fcfbdd" d="M500 0h100v100H500z"/><path fill="#f9f9f4" d="M600 0h100v100H600z"/><path fill="#dddba7" d="M700 0h100v100H700z"/><path fill="#ece1cc" d="M0 100h100v100H0z"/><path fill="#ede9e3" d="M100 100h100v100H100z"/><path fill="#c4c5b4" d="M200 100h100v100H200z"/><path fill="#6b5759" d="M300 100h100v100H300z"/><path fill="#cab99f" d="M400 100h100v100H400z"/><path fill="#f7f9d7" d="M500 100h100v100H500z"/><path fill="#fcffd3" d="M600 100h100v100H600z"/><path fill="#debb90" d="M700 100h100v100H700z"/><path fill="#fefae9" d="M0 200h100v100H0z"/><path fill="#c2c1bb" d="M100 200h100v100H100z"/><path fill="#a5998d" d="M200 200h100v100H200z"/><path fill="#d0a990" d="M300 200h100v100H300z"/><path fill="#c8a88d" d="M400 200h100v100H400z"/><path fill="#858175" d="M500 200h100v100H500z"/><path fill="#fbde9a" d="M600 200h100v100H600z"/><path fill="#ddb289" d="M700 200h100v100H700z"/><path fill="#f3e7de" d="M0 300h100v100H0z"/><path fill="#ecc1a3" d="M100 300h100v100H100z"/><path fill="#edb388" d="M200 300h100v100H200z"/><path fill="#ffc196" d="M300 300h100v100H300z"/><path fill="#f0af83" d="M400 300h100v100H400z"/><path fill="#d59d79" d="M500 300h100v100H500z"/><path fill="#f7b48c" d="M600 300h100v100H600z"/><path fill="#ecb192" d="M700 300h100v100H700z"/></svg>