<svg xmlns="http://www.w3.org/2000/svg" viewBox="0 0 800 800"><defs/><path fill="#f7f6f6" d="M0 0h100v100H0z"/><path fill="#faf8fc" d="M100 0h100v100H100z"/><path fill="#d6d5ca" d="M200 0h100v100H200z"/><path fill="#969276" d="M300 0h100v100H300z"/><path fill="#928f73" d="M400 0h100v100H400z"/><path fill="#c5c3b2" d="M500 0h100v100H500z"/><path fill="#f9f8fa" d="M600 0h100v100H600z"/><path fill="#ecebec" d="M700 0h100v100H700z"/><path fill="#b9bc9e" d="M0 100h100v100H0z"/><path fill="#bec2a2" d="M100 100h100v100H100z"/><path fill="#f8f6f8" d="M200 100h100v100H200z"/><path fill="#eeedf1" d="M300 100h100v100H300z"/><path fill="#ebebee" d="M400 100h100v100H400z"/><path fill="#faf9fa" d="M500 100h100v100H500z"/><path fill="#c9cbb4" d="M600 100h100v100H600z"/><path fill="#acb08c" d="M700 100h100v100H700z"/><path fill="#9da17c" d="M0 200h100v100H0z"/><path fill="#757d40" d="M100 200h100v100H100z"/><path fill="#dadcd5" d="M200 200h100v100H200z"/><path fill="#dcdce1" d="M300 200h100v100H300z"/><path fill="#d2d4da" d="M400 200h100v100H400z"/><path fill="#e5e8ef" d="M500 200h100v100H500z"/><path fill="#818754" d="M600 200h100v100H600z"/><path fill="#8a9062" d="M700 200h100v100H700z"/><path fill="#aaac90" d="M0 300h100v100H0z"/><path fill="#7c8555" d="M100 300h100v100H100z"/><path fill="#c0b26c" d="M200 300h100v100H200z"/><path fill="#f2d281" d="M300 300h100v100H300z"/><path fill="#edd9a4" d="M400 300h100v100H400z"/><path fill="#d7c67f" d="M500 300h100v100H500z"/><path fill="#808556" d="M600 300h100v100H600z"/><path fill="#9da27f" d="M700 300h100v100H700z"/><path fill="#a5a88c" d="M0 400h100v100H0z"/><path fill="#757c4b" d="M100 400h100v100H100z"/><path fill="#afad90" d="M200 400h100v100H200z"/><path fill="#d9cfbc" d="M300 400h100v100H300z"/><path fill="#d9d1bf" d="M400 400h100v100H400z"/><path fill="#c8c3a1" d="M500 400h100v100H500z"/><path fill="#747a4f" d="M600 400h100v100H600z"/><path fill="#999d7a" d="M700 400h100v100H700z"/><path fill="#a3a78a" d="M0 500h100v100H0z"/><path fill="#71783e" d="M100 500h100v100H100z"/><path fill="#b8bcb1" d="M200 500h100v100H200z"/><path fill="#d3d3db" d="M300 500h100v100H300z"/><path fill="#bcbdc5" d="M400 500h100v100H400z"/><path fill="#c7cac5" d="M500 500h100v100H500z"/><path fill="#7b824d" d="M600 500h100v100H600z"/><path fill="#979c72" d="M700 500h100v100H700z"/><path fill="#d3d3c2" d="M0 600h100v100H0z"/><path fill="#c3c6a9" d="M100 600h100v100H100z"/><path fill="#c7c4c1" d="M200 600h100v100H200z"/><path fill="#c1b9bd" d="M300 600h100v100H300z"/><path fill="#bbb5b8" d="M400 600h100v100H400z"/><path fill="#c9c3c0" d="M500 600h100v100H500z"/><path fill="#c5c7ae" d="M600 600h100v100H600z"/><path fill="#cecfbb" d="M700 600h100v100H700z"/><path fill="#f8f7f8" d="M0 700h100v100H0z"/><path fill="#eaeae2" d="M100 700h100v100H100z"/><path fill="#f0f0ea" d="M200 700h100v100H200z"/><path fill="#e8e7e7" d="M300 700h100v100H300z"/><path fill="#e5e6e6" d="M400 700h100v100H400z"/><path fill="#f9f8f9" d="M500 700h100v100H500z"/><path fill="#d5d4c1" d="M600 700h100v100H600z"/><path fill="#e4e2d8" d="M700 700h100v100H700z"/></svg>