<svg xmlns="http://www.w3.org/2000/svg" viewBox="0 0 800 500"><defs/><path fill="#af7cc5" d="M0 0h100v100H0z"/><path fill="#df5588" d="M100 0h100v100H100z"/><path fill="#b3747a" d="M200 0h100v100H200z"/><path fill="#a67da7" d="M300 0h100v100H300z"/><path fill="#715c93" d="M400 0h100v100H400z"/><path fill="#7b639d" d="M500 0h100v100H500z"/><path fill="#8c68b2" d="M600 0h100v100H600z"/><path fill="#6a65d8" d="M700 0h100v100H700z"/><path fill="#b973b5" d="M0 100h100v100H0z"/><path fill="#ce607f" d="M100 100h100v100H100z"/><path fill="#9f94b3" d="M200 100h100v100H200z"/><path fill="#a47ba6" d="M300 100h100v100H300z"/><path fill="#384c4e" d="M400 100h100v100H400z"/><path fill="#63617c" d="M500 100h100v100H500z"/><path fill="#9b65ae" d="M600 100h100v100H600z"/><path fill="#2d254d" d="M700 100h100v100H700z"/><path fill="#bf699e" d="M0 200h100v100H0z"/><path fill="#c34e71" d="M100 200h100v100H100z"/><path fill="#a88d87" d="M200 200h100v100H200z"/><path fill="#aa8499" d="M300 200h100v100H300z"/><path fill="#87839c" d="M400 200h100v100H400z"/><path fill="#9679ab" d="M500 200h100v100H500z"/><path fill="#996ebd" d="M600 200h100v100H600z"/><path fill="#38264a" d="M700 200h100v100H700z"/><path fill="#c65490" d="M0 300h100v100H0z"/><path fill="#b45978" d="M100 300h100v100H100z"/><path fill="#acaa99" d="M200 300h100v100H200z"/><path fill="#998680" d="M300 300h100v100H300z"/><path fill="#7e6453" d="M400 300h100v100H400z"/><path fill="#714d46" d="M500 300h100v100H500z"/><path fill="#754d3e" d="M600 300h100v100H600z"/><path fill="#814970" d="M700 300h100v100H700z"/><path fill="#c9484b" d="M0 400h100v100H0z"/><path fill="#b5603b" d="M100 400h100v100H100z"/><path fill="#987050" d="M200 400h100v100H200z"/><path fill="#7d483b" d="M300 400h100v100H300z"/><path fill="#7f4934" d="M400 400h100v100H400z"/><path fill="#6e3e3e" d="M500 400h100v100H500z"/><path fill="#8f4926" d="M600 400h100v100H600z"/><path fill="#9d512a" d="M700 400h100v100H700z"/></svg>