<svg xmlns="http://www.w3.org/2000/svg" viewBox="0 0 800 500"><defs/><path fill="#fbfbfc" d="M0 0h100v100H0z"/><path fill="#f6f6f5" d="M100 0h100v100H100z"/><path fill="#f8faf3" d="M200 0h100v100H200z"/><path fill="#f8f9f4" d="M300 0h100v100H300z"/><path fill="#eaecef" d="M400 0h100v100H400z"/><path fill="#eff0f2" d="M500 0h100v100H500z"/><path fill="#fdfdfd" d="M600 0h100v100H600z"/><path fill="#fff" d="M700 0h100v100H700z"/><path fill="#f5f5f6" d="M0 100h100v100H0z"/><path fill="#eaebea" d="M100 100h100v100H100z"/><path fill="#e5dccd" d="M200 100h100v100H200z"/><path fill="#fffff8" d="M300 100h100v100H300z"/><path fill="#9b9698" d="M400 100h100v100H400z"/><path fill="#c4c2c1" d="M500 100h100v100H500z"/><path fill="#fff" d="M600 100h100v100H600z"/><path fill="#fdfdfd" d="M700 100h100v100H700z"/><path fill="#eeebea" d="M0 200h100v100H0z"/><path fill="#dfe2e2" d="M100 200h100v100H100z"/><path fill="#cfb3a2" d="M200 200h100v100H200z"/><path fill="#d3d4c7" d="M300 200h100v100H300z"/><path fill="#aea18d" d="M400 200h100v100H400z"/><path fill="#b2a7a2" d="M500 200h100v100H500z"/><path fill="#f8f7f9" d="M600 200h100v100H600z"/><path fill="#fff" d="M700 200h100v100H700z"/><path fill="#eceeee" d="M0 300h100v100H0z"/><path fill="#dccecc" d="M100 300h100v100H100z"/><path fill="#c1a18e" d="M200 300h100v100H200z"/><path fill="#b1947e" d="M300 300h100v100H300z"/><path fill="#cbad9f" d="M400 300h100v100H400z"/><path fill="#a4a989" d="M500 300h100v100H500z"/><path fill="#d6dfce" d="M600 300h100v100H600z"/><path fill="#fff" d="M700 300h100v100H700z"/><path fill="#f7f8f8" d="M0 400h100v100H0z"/><path fill="#f3eceb" d="M100 400h100v100H100z"/><path fill="#ecdfdc" d="M200 400h100v100H200z"/><path fill="#ecdedc" d="M300 400h100v100H300z"/><path fill="#fff8fb" d="M400 400h100v100H400z"/><path fill="#edf8ec" d="M500 400h100v100H500z"/><path fill="#eef5eb" d="M600 400h100v100H600z"/><path fill="#fff" d="M700 400h100v100H700z"/></svg>