<svg xmlns="http://www.w3.org/2000/svg" viewBox="0 0 800 400"><defs/><path fill="#6a4e59" d="M0 0h100v100H0z"/><path fill="#6b4445" d="M100 0h100v100H100z"/><path fill="#82525c" d="M200 0h100v100H200z"/><path fill="#865974" d="M300 0h100v100H300z"/><path fill="#997184" d="M400 0h100v100H400z"/><path fill="#956572" d="M500 0h100v100H500z"/><path fill="#885864" d="M600 0h100v100H600z"/><path fill="#5a4459" d="M700 0h100v100H700z"/><path fill="#66444a" d="M0 100h100v100H0z"/><path fill="#6c3f39" d="M100 100h100v100H100z"/><path fill="#6b383b" d="M200 100h100v100H200z"/><path fill="#854850" d="M300 100h100v100H300z"/><path fill="#b27f73" d="M400 100h100v100H400z"/><path fill="#945954" d="M500 100h100v100H500z"/><path fill="#763d42" d="M600 100h100v100H600z"/><path fill="#5b415a" d="M700 100h100v100H700z"/><path fill="#614656" d="M0 200h100v100H0z"/><path fill="#683a33" d="M100 200h100v100H100z"/><path fill="#78453f" d="M200 200h100v100H200z"/><path fill="#8e5a5a" d="M300 200h100v100H300z"/><path fill="#ab7663" d="M400 200h100v100H400z"/><path fill="#906659" d="M500 200h100v100H500z"/><path fill="#7f473b" d="M600 200h100v100H600z"/><path fill="#735456" d="M700 200h100v100H700z"/><path fill="#6f5364" d="M0 300h100v100H0z"/><path fill="#784639" d="M100 300h100v100H100z"/><path fill="#8d4c4a" d="M200 300h100v100H200z"/><path fill="#7f475f" d="M300 300h100v100H300z"/><path fill="#74435b" d="M400 300h100v100H400z"/><path fill="#7e4c5e" d="M500 300h100v100H500z"/><path fill="#89493b" d="M600 300h100v100H600z"/><path fill="#644041" d="M700 300h100v100H700z"/></svg>