<svg xmlns="http://www.w3.org/2000/svg" viewBox="0 0 800 1000"><defs/><path fill="#fff" d="M0 0h100v100H0z"/><path fill="#fdfefe" d="M100 0h100v100H100z"/><path fill="#fff" d="M200 0h100v100H200z"/><path fill="#f7f8f7" d="M300 0h100v100H300z"/><path fill="#e0e1e0" d="M400 0h100v100H400z"/><path fill="#f8f8f8" d="M500 0h100v100H500z"/><path fill="#fff" d="M600 0h100v100H600z"/><path fill="#fefefe" d="M700 0h100v100H700zM0 100h100v100H0z"/><path fill="#fff" d="M100 100h100v100H100z"/><path fill="#dee2e3" d="M200 100h100v100H200z"/><path fill="#acadb0" d="M300 100h100v100H300z"/><path fill="#a6aaaf" d="M400 100h100v100H400z"/><path fill="#d3d7d8" d="M500 100h100v100H500z"/><path fill="#fff" d="M600 100h100v100H600z"/><path fill="#fefefe" d="M700 100h100v100H700z"/><path fill="#fff" d="M0 200h100v100H0z"/><path fill="#c4e8ee" d="M100 200h100v100H100z"/><path fill="#708a99" d="M200 200h100v100H200z"/><path fill="#ad1d39" d="M300 200h100v100H300z"/><path fill="#af1d39" d="M400 200h100v100H400z"/><path fill="#798d9b" d="M500 200h100v100H500z"/><path fill="#b6e3ec" d="M600 200h100v100H600z"/><path fill="#fff" d="M700 200h100v100H700z"/><path fill="#eaf4f6" d="M0 300h100v100H0z"/><path fill="#5cb7ca" d="M100 300h100v100H100z"/><path fill="#678a9a" d="M200 300h100v100H200z"/><path fill="#c21032" d="M300 300h100v100H300z"/><path fill="#ca072a" d="M400 300h100v100H400z"/><path fill="#748999" d="M500 300h100v100H500z"/><path fill="#54b5c9" d="M600 300h100v100H600z"/><path fill="#deeef2" d="M700 300h100v100H700z"/><path fill="#badee6" d="M0 400h100v100H0z"/><path fill="#52abc0" d="M100 400h100v100H100z"/><path fill="#5cb4c8" d="M200 400h100v100H200z"/><path fill="#6f717d" d="M300 400h100v100H300z"/><path fill="#725e6a" d="M400 400h100v100H400z"/><path fill="#61b0c3" d="M500 400h100v100H500z"/><path fill="#51acc1" d="M600 400h100v100H600z"/><path fill="#aed8e2" d="M700 400h100v100H700z"/><path fill="#b4dbe4" d="M0 500h100v100H0z"/><path fill="#52acc0" d="M100 500h100v100H100z"/><path fill="#5fb4cc" d="M200 500h100v100H200z"/><path fill="#42928a" d="M300 500h100v100H300z"/><path fill="#3f8778" d="M400 500h100v100H400z"/><path fill="#5aacc2" d="M500 500h100v100H500z"/><path fill="#52acc1" d="M600 500h100v100H600z"/><path fill="#a8d5e0" d="M700 500h100v100H700z"/><path fill="#dbedf1" d="M0 600h100v100H0z"/><path fill="#55afc5" d="M100 600h100v100H100z"/><path fill="#5da5b2" d="M200 600h100v100H200z"/><path fill="#7a8c74" d="M300 600h100v100H300z"/><path fill="#8b9270" d="M400 600h100v100H400z"/><path fill="#6c9a93" d="M500 600h100v100H500z"/><path fill="#51acc3" d="M600 600h100v100H600z"/><path fill="#cfe8ed" d="M700 600h100v100H700z"/><path fill="#fff" d="M0 700h100v100H0z"/><path fill="#a3d5e3" d="M100 700h100v100H100z"/><path fill="#4f969d" d="M200 700h100v100H200z"/><path fill="#898b61" d="M300 700h100v100H300z"/><path fill="#948f60" d="M400 700h100v100H400z"/><path fill="#739780" d="M500 700h100v100H500z"/><path fill="#88bcca" d="M600 700h100v100H600z"/><path fill="#fff" d="M700 700h100v100H700z"/><path fill="#fefefe" d="M0 800h100v100H0z"/><path fill="#feffff" d="M100 800h100v100H100z"/><path fill="#c0d5d6" d="M200 800h100v100H200z"/><path fill="#96a189" d="M300 800h100v100H300z"/><path fill="#9ea587" d="M400 800h100v100H400z"/><path fill="#aec3bc" d="M500 800h100v100H500z"/><path fill="#edf2f4" d="M600 800h100v100H600z"/><path fill="#fff" d="M700 800h100v100H700zM0 900h100v100H0z"/><path fill="#fdfefe" d="M100 900h100v100H100z"/><path fill="#feffff" d="M200 900h100v100H200z"/><path fill="#edeeee" d="M300 900h100v100H300z"/><path fill="#e6e6e4" d="M400 900h100v100H400z"/><path fill="#f7f7f7" d="M500 900h100v100H500z"/><path fill="#fff" d="M600 900h100v100H600z"/><path fill="#fefefe" d="M700 900h100v100H700z"/></svg>