<svg xmlns="http://www.w3.org/2000/svg" viewBox="0 0 800 400"><defs/><path fill="#7c7262" d="M0 0h100v100H0z"/><path fill="#63645b" d="M100 0h100v100H100z"/><path fill="#6f8177" d="M200 0h100v100H200z"/><path fill="#93b4ae" d="M300 0h100v100H300z"/><path fill="#98b4b0" d="M400 0h100v100H400z"/><path fill="#97b4ab" d="M500 0h100v100H500z"/><path fill="#a1a897" d="M600 0h100v100H600z"/><path fill="#57574e" d="M700 0h100v100H700z"/><path fill="#555044" d="M0 100h100v100H0z"/><path fill="#363a33" d="M100 100h100v100H100z"/><path fill="#566961" d="M200 100h100v100H200z"/><path fill="#3c7e80" d="M300 100h100v100H300z"/><path fill="#2e8088" d="M400 100h100v100H400z"/><path fill="#427c7f" d="M500 100h100v100H500z"/><path fill="#5c7065" d="M600 100h100v100H600z"/><path fill="#4d493c" d="M700 100h100v100H700z"/><path fill="#43433c" d="M0 200h100v100H0z"/><path fill="#2c322d" d="M100 200h100v100H100z"/><path fill="#605e4e" d="M200 200h100v100H200z"/><path fill="#596054" d="M300 200h100v100H300z"/><path fill="#799187" d="M400 200h100v100H400z"/><path fill="#697465" d="M500 200h100v100H500z"/><path fill="#48473d" d="M600 200h100v100H600z"/><path fill="#3a362e" d="M700 200h100v100H700z"/><path fill="#43423a" d="M0 300h100v100H0z"/><path fill="#2c2e24" d="M100 300h100v100H100z"/><path fill="#625138" d="M200 300h100v100H200z"/><path fill="#534631" d="M300 300h100v100H300z"/><path fill="#65553d" d="M400 300h100v100H400z"/><path fill="#5a4f3e" d="M500 300h100v100H500z"/><path fill="#312f28" d="M600 300h100v100H600z"/><path fill="#30291f" d="M700 300h100v100H700z"/></svg>