<svg xmlns="http://www.w3.org/2000/svg" viewBox="0 0 800 1100"><defs/><path fill="#001d39" d="M0 0h100v100H0z"/><path fill="#042c48" d="M100 0h100v100H100z"/><path fill="#24577a" d="M200 0h100v100H200z"/><path fill="#2a5f84" d="M300 0h100v100H300z"/><path fill="#326a8f" d="M400 0h100v100H400z"/><path fill="#0a3c5b" d="M500 0h100v100H500z"/><path fill="#002a47" d="M600 0h100v100H600z"/><path fill="#012745" d="M700 0h100v100H700z"/><path fill="#01203b" d="M0 100h100v100H0z"/><path fill="#01263f" d="M100 100h100v100H100z"/><path fill="#0a4060" d="M200 100h100v100H200z"/><path fill="#407ba3" d="M300 100h100v100H300z"/><path fill="#5289ae" d="M400 100h100v100H400z"/><path fill="#0b496e" d="M500 100h100v100H500z"/><path fill="#053e60" d="M600 100h100v100H600z"/><path fill="#013353" d="M700 100h100v100H700z"/><path fill="#04324c" d="M0 200h100v100H0z"/><path fill="#002f4a" d="M100 200h100v100H100z"/><path fill="#215d81" d="M200 200h100v100H200z"/><path fill="#5494bd" d="M300 200h100v100H300z"/><path fill="#72afd7" d="M400 200h100v100H400z"/><path fill="#347da9" d="M500 200h100v100H500z"/><path fill="#165e89" d="M600 200h100v100H600z"/><path fill="#0a496e" d="M700 200h100v100H700z"/><path fill="#276388" d="M0 300h100v100H0z"/><path fill="#317094" d="M100 300h100v100H100z"/><path fill="#689dbf" d="M200 300h100v100H200z"/><path fill="#a2c2dd" d="M300 300h100v100H300z"/><path fill="#6aa0c5" d="M400 300h100v100H400z"/><path fill="#7bb5dd" d="M500 300h100v100H500z"/><path fill="#4996c4" d="M600 300h100v100H600z"/><path fill="#1f6d99" d="M700 300h100v100H700z"/><path fill="#86b9db" d="M0 400h100v100H0z"/><path fill="#759ab9" d="M100 400h100v100H100z"/><path fill="#63809a" d="M200 400h100v100H200z"/><path fill="#9aa8bb" d="M300 400h100v100H300z"/><path fill="#7e8c9e" d="M400 400h100v100H400z"/><path fill="#a5bdd8" d="M500 400h100v100H500z"/><path fill="#80bbe6" d="M600 400h100v100H600z"/><path fill="#4699c7" d="M700 400h100v100H700z"/><path fill="#69a4ca" d="M0 500h100v100H0z"/><path fill="#7fa3c1" d="M100 500h100v100H100z"/><path fill="#7793ac" d="M200 500h100v100H200z"/><path fill="#72787e" d="M300 500h100v100H300z"/><path fill="#e7e3e4" d="M400 500h100v100H400z"/><path fill="#c9ceda" d="M500 500h100v100H500z"/><path fill="#95bde2" d="M600 500h100v100H600z"/><path fill="#54a4d3" d="M700 500h100v100H700z"/><path fill="#80afd0" d="M0 600h100v100H0z"/><path fill="#bcd5ef" d="M100 600h100v100H100z"/><path fill="#7f99b1" d="M200 600h100v100H200z"/><path fill="#7d7e7b" d="M300 600h100v100H300z"/><path fill="#e8e6e4" d="M400 600h100v100H400z"/><path fill="#e4e5ec" d="M500 600h100v100H500z"/><path fill="#b5d0ee" d="M600 600h100v100H600z"/><path fill="#62a6d0" d="M700 600h100v100H700z"/><path fill="#426788" d="M0 700h100v100H0z"/><path fill="#85a3c0" d="M100 700h100v100H100z"/><path fill="#65859f" d="M200 700h100v100H200z"/><path fill="#6a7c8b" d="M300 700h100v100H300z"/><path fill="#dddde5" d="M400 700h100v100H400z"/><path fill="#dae1f0" d="M500 700h100v100H500z"/><path fill="#9cb9d4" d="M600 700h100v100H600z"/><path fill="#6fa9cd" d="M700 700h100v100H700z"/><path fill="#44789b" d="M0 800h100v100H0z"/><path fill="#2c4f6e" d="M100 800h100v100H100z"/><path fill="#7397b2" d="M200 800h100v100H200z"/><path fill="#b1c9e0" d="M300 800h100v100H300z"/><path fill="#b1c2d5" d="M400 800h100v100H400z"/><path fill="#618da9" d="M500 800h100v100H500z"/><path fill="#4d89aa" d="M600 800h100v100H600z"/><path fill="#5e9bbc" d="M700 800h100v100H700z"/><path fill="#2b5b7d" d="M0 900h100v100H0z"/><path fill="#3d5c7a" d="M100 900h100v100H100z"/><path fill="#7199b3" d="M200 900h100v100H200z"/><path fill="#5588a5" d="M300 900h100v100H300z"/><path fill="#7ea6bb" d="M400 900h100v100H400z"/><path fill="#699db5" d="M500 900h100v100H500z"/><path fill="#619cb8" d="M600 900h100v100H600z"/><path fill="#70a3ba" d="M700 900h100v100H700z"/><path fill="#588397" d="M0 1000h100v100H0z"/><path fill="#1f3a54" d="M100 1000h100v100H100z"/><path fill="#091e3b" d="M200 1000h100v100H200z"/><path fill="#2e5974" d="M300 1000h100v100H300z"/><path fill="#74a1b5" d="M400 1000h100v100H400z"/><path fill="#82a9b7" d="M500 1000h100v100H500z"/><path fill="#5b8ba0" d="M600 1000h100v100H600z"/><path fill="#385d73" d="M700 1000h100v100H700z"/></svg>