<svg xmlns="http://www.w3.org/2000/svg" viewBox="0 0 800 400"><defs/><path fill="#d7d2b2" d="M0 0h100v100H0z"/><path fill="#cccac3" d="M100 0h100v100H100z"/><path fill="#b7b29e" d="M200 0h100v100H200z"/><path fill="#f9f7da" d="M300 0h100v100H300z"/><path fill="#fcf8dc" d="M400 0h100v100H400z"/><path fill="#c1d0d5" d="M500 0h100v100H500z"/><path fill="#cbd7d7" d="M600 0h100v100H600z"/><path fill="#decfb5" d="M700 0h100v100H700z"/><path fill="#c7bfa7" d="M0 100h100v100H0z"/><path fill="#cecbc3" d="M100 100h100v100H100z"/><path fill="#64564f" d="M200 100h100v100H200z"/><path fill="#d3cdb3" d="M300 100h100v100H300z"/><path fill="#f7f3d6" d="M400 100h100v100H400z"/><path fill="#ccdcdb" d="M500 100h100v100H500z"/><path fill="#c5d2cb" d="M600 100h100v100H600z"/><path fill="#eae0c3" d="M700 100h100v100H700z"/><path fill="#e2e0c7" d="M0 200h100v100H0z"/><path fill="#b2aba4" d="M100 200h100v100H100z"/><path fill="#856b62" d="M200 200h100v100H200z"/><path fill="#7c6a5f" d="M300 200h100v100H300z"/><path fill="#b0a391" d="M400 200h100v100H400z"/><path fill="#c4ac96" d="M500 200h100v100H500z"/><path fill="#837d81" d="M600 200h100v100H600z"/><path fill="#97abcb" d="M700 200h100v100H700z"/><path fill="#c7bfb1" d="M0 300h100v100H0z"/><path fill="#90695d" d="M100 300h100v100H100z"/><path fill="#b9a199" d="M200 300h100v100H200z"/><path fill="#968b80" d="M300 300h100v100H300z"/><path fill="#b7aea8" d="M400 300h100v100H400z"/><path fill="#a37b6d" d="M500 300h100v100H500z"/><path fill="#705a66" d="M600 300h100v100H600z"/><path fill="#6788cc" d="M700 300h100v100H700z"/></svg>