<svg xmlns="http://www.w3.org/2000/svg" viewBox="0 0 800 500"><defs/><path fill="#c7c8ce" d="M0 0h100v100H0z"/><path fill="#bdbfc6" d="M100 0h100v100H100z"/><path fill="#9497a3" d="M200 0h100v100H200z"/><path fill="#8c8f9b" d="M300 0h100v100H300z"/><path fill="#c2c2cb" d="M400 0h100v100H400z"/><path fill="#b2b3bc" d="M500 0h100v100H500z"/><path fill="#c0c1c8" d="M600 0h100v100H600z"/><path fill="#9fa1ab" d="M700 0h100v100H700z"/><path fill="#b9bac2" d="M0 100h100v100H0z"/><path fill="#a4a6b1" d="M100 100h100v100H100z"/><path fill="#8d909d" d="M200 100h100v100H200z"/><path fill="#7d808e" d="M300 100h100v100H300z"/><path fill="#90929e" d="M400 100h100v100H400z"/><path fill="#8d8f9c" d="M500 100h100v100H500z"/><path fill="#9c9ea8" d="M600 100h100v100H600z"/><path fill="#9295a1" d="M700 100h100v100H700z"/><path fill="#b3b4bc" d="M0 200h100v100H0z"/><path fill="#9da0ab" d="M100 200h100v100H100z"/><path fill="#8c8e9c" d="M200 200h100v100H200z"/><path fill="#898c98" d="M300 200h100v100H300zm100 0h100v100H400z"/><path fill="#848795" d="M500 200h100v100H500z"/><path fill="#8f929e" d="M600 200h100v100H600z"/><path fill="#8d909c" d="M700 200h100v100H700z"/><path fill="#a8a9b2" d="M0 300h100v100H0z"/><path fill="#9d9faa" d="M100 300h100v100H100z"/><path fill="#7b7f8d" d="M200 300h100v100H200z"/><path fill="#7e818e" d="M300 300h100v100H300z"/><path fill="#9a9ca7" d="M400 300h100v100H400z"/><path fill="#a3a5af" d="M500 300h100v100H500z"/><path fill="#a4a7b0" d="M600 300h100v100H600z"/><path fill="#979aa5" d="M700 300h100v100H700z"/><path fill="#b3b5bd" d="M0 400h100v100H0zm100 0h100v100H100z"/><path fill="#9d9faa" d="M200 400h100v100H200z"/><path fill="#9d9ea9" d="M300 400h100v100H300z"/><path fill="#bcbdc4" d="M400 400h100v100H400z"/><path fill="#ceced4" d="M500 400h100v100H500z"/><path fill="#cbccd2" d="M600 400h100v100H600z"/><path fill="#a0a2ad" d="M700 400h100v100H700z"/></svg>