<svg xmlns="http://www.w3.org/2000/svg" viewBox="0 0 800 400"><defs/><path fill="#b9b580" d="M0 0h100v100H0z"/><path fill="#5b5b47" d="M100 0h100v100H100z"/><path fill="#364935" d="M200 0h100v100H200z"/><path fill="#87bbac" d="M300 0h100v100H300z"/><path fill="#95d0c4" d="M400 0h100v100H400z"/><path fill="#537d6b" d="M500 0h100v100H500z"/><path fill="#395339" d="M600 0h100v100H600z"/><path fill="#44543e" d="M700 0h100v100H700z"/><path fill="#ada46f" d="M0 100h100v100H0z"/><path fill="#60614d" d="M100 100h100v100H100z"/><path fill="#6f7861" d="M200 100h100v100H200z"/><path fill="#739c86" d="M300 100h100v100H300z"/><path fill="#72b597" d="M400 100h100v100H400z"/><path fill="#648768" d="M500 100h100v100H500z"/><path fill="#3f5d3d" d="M600 100h100v100H600z"/><path fill="#3d5c41" d="M700 100h100v100H700z"/><path fill="#787854" d="M0 200h100v100H0z"/><path fill="#7e7b63" d="M100 200h100v100H100z"/><path fill="#aabb9d" d="M200 200h100v100H200z"/><path fill="#8eab9a" d="M300 200h100v100H300z"/><path fill="#9ba793" d="M400 200h100v100H400z"/><path fill="#92977a" d="M500 200h100v100H500z"/><path fill="#8f9d76" d="M600 200h100v100H600z"/><path fill="#566552" d="M700 200h100v100H700z"/><path fill="#5a5944" d="M0 300h100v100H0z"/><path fill="#aaa177" d="M100 300h100v100H100z"/><path fill="#b3c496" d="M200 300h100v100H200z"/><path fill="#90b498" d="M300 300h100v100H300z"/><path fill="#97b098" d="M400 300h100v100H400z"/><path fill="#6eae9b" d="M500 300h100v100H500z"/><path fill="#8cab91" d="M600 300h100v100H600z"/><path fill="#8c8c79" d="M700 300h100v100H700z"/></svg>