<svg xmlns="http://www.w3.org/2000/svg" viewBox="0 0 800 500"><defs/><path fill="#c78395" d="M0 0h100v100H0z"/><path fill="#847899" d="M100 0h100v100H100z"/><path fill="#d48854" d="M200 0h100v100H200z"/><path fill="#db8f59" d="M300 0h100v100H300z"/><path fill="#c68a5e" d="M400 0h100v100H400z"/><path fill="#de9764" d="M500 0h100v100H500z"/><path fill="#df9b67" d="M600 0h100v100H600z"/><path fill="#af7e78" d="M700 0h100v100H700z"/><path fill="#a96f87" d="M0 100h100v100H0z"/><path fill="#736b8e" d="M100 100h100v100H100z"/><path fill="#6b7183" d="M200 100h100v100H200z"/><path fill="#ad8066" d="M300 100h100v100H300z"/><path fill="#b9745b" d="M400 100h100v100H400z"/><path fill="#c18353" d="M500 100h100v100H500z"/><path fill="#ce774f" d="M600 100h100v100H600z"/><path fill="#955a57" d="M700 100h100v100H700z"/><path fill="#a07492" d="M0 200h100v100H0z"/><path fill="#6b759a" d="M100 200h100v100H100z"/><path fill="#4381c4" d="M200 200h100v100H200z"/><path fill="#696eac" d="M300 200h100v100H300z"/><path fill="#a3809e" d="M400 200h100v100H400z"/><path fill="#8b839d" d="M500 200h100v100H500z"/><path fill="#8c7ea0" d="M600 200h100v100H600z"/><path fill="#a2667b" d="M700 200h100v100H700z"/><path fill="#9670aa" d="M0 300h100v100H0z"/><path fill="#878e59" d="M100 300h100v100H100z"/><path fill="#b29d28" d="M200 300h100v100H200z"/><path fill="#af9a2a" d="M300 300h100v100H300z"/><path fill="#9c8423" d="M400 300h100v100H400z"/><path fill="#c3ad38" d="M500 300h100v100H500z"/><path fill="#bfb03b" d="M600 300h100v100H600z"/><path fill="#a5735d" d="M700 300h100v100H700z"/><path fill="#bead97" d="M0 400h100v100H0z"/><path fill="#dcca5e" d="M100 400h100v100H100z"/><path fill="#f2db4e" d="M200 400h100v100H200z"/><path fill="#e8d352" d="M300 400h100v100H300z"/><path fill="#b19b57" d="M400 400h100v100H400z"/><path fill="#d1be51" d="M500 400h100v100H500z"/><path fill="#d2c856" d="M600 400h100v100H600z"/><path fill="#bfa665" d="M700 400h100v100H700z"/></svg>