<svg xmlns="http://www.w3.org/2000/svg" viewBox="0 0 800 700"><defs/><path fill="#fff" d="M0 0h100v100H0zm100 0h100v100H100z"/><path fill="#fffffe" d="M200 0h100v100H200z"/><path fill="#fff" d="M300 0h100v100H300z"/><path fill="#fbfbef" d="M400 0h100v100H400z"/><path fill="#e8e9a2" d="M500 0h100v100H500z"/><path fill="#e7e8a7" d="M600 0h100v100H600z"/><path fill="#fbfbf1" d="M700 0h100v100H700z"/><path fill="#fbfbf4" d="M0 100h100v100H0z"/><path fill="#edeecb" d="M100 100h100v100H100z"/><path fill="#f5f7df" d="M200 100h100v100H200z"/><path fill="#eee8dc" d="M300 100h100v100H300z"/><path fill="#dfd4b4" d="M400 100h100v100H400z"/><path fill="#b7ba70" d="M500 100h100v100H500z"/><path fill="#dfe0a8" d="M600 100h100v100H600z"/><path fill="#fffff6" d="M700 100h100v100H700z"/><path fill="#f6f6e4" d="M0 200h100v100H0z"/><path fill="#cbcd5f" d="M100 200h100v100H100z"/><path fill="#d6d781" d="M200 200h100v100H200z"/><path fill="#dac395" d="M300 200h100v100H300z"/><path fill="#cbad76" d="M400 200h100v100H400z"/><path fill="#a5a9a6" d="M500 200h100v100H500z"/><path fill="#eaf0fb" d="M600 200h100v100H600z"/><path fill="#fff" d="M700 200h100v100H700z"/><path fill="#fefeff" d="M0 300h100v100H0z"/><path fill="#f7f7e0" d="M100 300h100v100H100z"/><path fill="#bcc1c5" d="M200 300h100v100H200z"/><path fill="#aeb1aa" d="M300 300h100v100H300z"/><path fill="#c6c0a4" d="M400 300h100v100H400z"/><path fill="#adbdba" d="M500 300h100v100H500z"/><path fill="#bebfc3" d="M600 300h100v100H600z"/><path fill="#faf7f7" d="M700 300h100v100H700z"/><path fill="#fdfeff" d="M0 400h100v100H0z"/><path fill="#efefd6" d="M100 400h100v100H100z"/><path fill="#afc1bd" d="M200 400h100v100H200z"/><path fill="#bfd6e5" d="M300 400h100v100H300z"/><path fill="#b1cad5" d="M400 400h100v100H400z"/><path fill="#b5d4e1" d="M500 400h100v100H500z"/><path fill="#bbccd4" d="M600 400h100v100H600z"/><path fill="#f4f6f7" d="M700 400h100v100H700z"/><path fill="#f8f8f9" d="M0 500h100v100H0z"/><path fill="#fff" d="M100 500h100v100H100z"/><path fill="#acbbc0" d="M200 500h100v100H200z"/><path fill="#a1b4ba" d="M300 500h100v100H300z"/><path fill="#bfdeea" d="M400 500h100v100H400z"/><path fill="#a5c7d7" d="M500 500h100v100H500z"/><path fill="#aec8d4" d="M600 500h100v100H600z"/><path fill="#fcfdfd" d="M700 500h100v100H700z"/><path fill="#f4f4f5" d="M0 600h100v100H0z"/><path fill="#fefefd" d="M100 600h100v100H100z"/><path fill="#cdd8dc" d="M200 600h100v100H200z"/><path fill="#c0cfd5" d="M300 600h100v100H300z"/><path fill="#ccdee6" d="M400 600h100v100H400z"/><path fill="#dbe5e9" d="M500 600h100v100H500z"/><path fill="#fff" d="M600 600h100v100H600zm100 0h100v100H700z"/></svg>