<svg xmlns="http://www.w3.org/2000/svg" viewBox="0 0 800 700"><defs/><path fill="#d3d2e0" d="M0 0h100v100H0z"/><path fill="#cfcfdd" d="M100 0h100v100H100z"/><path fill="#d0ccd4" d="M200 0h100v100H200z"/><path fill="#cec8ca" d="M300 0h100v100H300z"/><path fill="#c5c3ca" d="M400 0h100v100H400z"/><path fill="#c0bec6" d="M500 0h100v100H500z"/><path fill="#bebcc4" d="M600 0h100v100H600z"/><path fill="#b7b5c0" d="M700 0h100v100H700z"/><path fill="#cec88e" d="M0 100h100v100H0z"/><path fill="#c7bd82" d="M100 100h100v100H100z"/><path fill="#9faeaa" d="M200 100h100v100H200z"/><path fill="#85a3c3" d="M300 100h100v100H300z"/><path fill="#a3aca1" d="M400 100h100v100H400z"/><path fill="#a5ac9b" d="M500 100h100v100H500z"/><path fill="#9a9d8f" d="M600 100h100v100H600z"/><path fill="#aaa88a" d="M700 100h100v100H700z"/><path fill="#bbb657" d="M0 200h100v100H0z"/><path fill="#c3b035" d="M100 200h100v100H100z"/><path fill="#7c9674" d="M200 200h100v100H200z"/><path fill="#428798" d="M300 200h100v100H300z"/><path fill="#83976a" d="M400 200h100v100H400z"/><path fill="#7e8480" d="M500 200h100v100H500z"/><path fill="#757b42" d="M600 200h100v100H600z"/><path fill="#828a58" d="M700 200h100v100H700z"/><path fill="#b3af71" d="M0 300h100v100H0z"/><path fill="#b5ab4d" d="M100 300h100v100H100z"/><path fill="#989a5d" d="M200 300h100v100H200z"/><path fill="#788674" d="M300 300h100v100H300z"/><path fill="#96905b" d="M400 300h100v100H400z"/><path fill="#928257" d="M500 300h100v100H500z"/><path fill="#8a8f4b" d="M600 300h100v100H600z"/><path fill="#958c54" d="M700 300h100v100H700z"/><path fill="#b0a64d" d="M0 400h100v100H0z"/><path fill="#aea247" d="M100 400h100v100H100z"/><path fill="#9b9578" d="M200 400h100v100H200z"/><path fill="#8e8664" d="M300 400h100v100H300z"/><path fill="#918b61" d="M400 400h100v100H400z"/><path fill="#81785e" d="M500 400h100v100H500z"/><path fill="#978956" d="M600 400h100v100H600z"/><path fill="#a89345" d="M700 400h100v100H700z"/><path fill="#c1b445" d="M0 500h100v100H0z"/><path fill="#c8b632" d="M100 500h100v100H100z"/><path fill="#b3aa61" d="M200 500h100v100H200z"/><path fill="#afa74f" d="M300 500h100v100H300z"/><path fill="#aea149" d="M400 500h100v100H400z"/><path fill="#9a8147" d="M500 500h100v100H500z"/><path fill="#a0944e" d="M600 500h100v100H600z"/><path fill="#9c934c" d="M700 500h100v100H700z"/><path fill="#c7c6c0" d="M0 600h100v100H0z"/><path fill="#c6c3b5" d="M100 600h100v100H100z"/><path fill="#c1beb3" d="M200 600h100v100H200z"/><path fill="#bdbab3" d="M300 600h100v100H300z"/><path fill="#b8b6b0" d="M400 600h100v100H400z"/><path fill="#bdbaad" d="M500 600h100v100H500z"/><path fill="#b8b6ac" d="M600 600h100v100H600z"/><path fill="#b0afad" d="M700 600h100v100H700z"/></svg>