<svg xmlns="http://www.w3.org/2000/svg" viewBox="0 0 800 600"><defs/><path fill="#cad0d3" d="M0 0h100v100H0z"/><path fill="#cdd5d7" d="M100 0h100v100H100z"/><path fill="#cbd1d3" d="M200 0h100v100H200z"/><path fill="#cbd0d4" d="M300 0h100v100H300z"/><path fill="#cdd3d6" d="M400 0h100v100H400z"/><path fill="#ced4d8" d="M500 0h100v100H500z"/><path fill="#ccd1d6" d="M600 0h100v100H600z"/><path fill="#c8d0d4" d="M700 0h100v100H700z"/><path fill="#acb5b6" d="M0 100h100v100H0z"/><path fill="#afc3bb" d="M100 100h100v100H100z"/><path fill="#a6aeaf" d="M200 100h100v100H200z"/><path fill="#a8acb0" d="M300 100h100v100H300z"/><path fill="#aeb3b6" d="M400 100h100v100H400z"/><path fill="#b1b6ba" d="M500 100h100v100H500z"/><path fill="#adb3b8" d="M600 100h100v100H600z"/><path fill="#a2abad" d="M700 100h100v100H700z"/><path fill="#aeb9b9" d="M0 200h100v100H0z"/><path fill="#b3c6bf" d="M100 200h100v100H100z"/><path fill="#8e9497" d="M200 200h100v100H200z"/><path fill="#737a7b" d="M300 200h100v100H300z"/><path fill="#798081" d="M400 200h100v100H400z"/><path fill="#767e7e" d="M500 200h100v100H500z"/><path fill="#767e7f" d="M600 200h100v100H600z"/><path fill="#9ea6a8" d="M700 200h100v100H700z"/><path fill="#b1bebd" d="M0 300h100v100H0z"/><path fill="#b2c5c0" d="M100 300h100v100H100z"/><path fill="#778080" d="M200 300h100v100H200z"/><path fill="#46504e" d="M300 300h100v100H300z"/><path fill="#555f5c" d="M400 300h100v100H400z"/><path fill="#505a57" d="M500 300h100v100H500z"/><path fill="#525d5b" d="M600 300h100v100H600z"/><path fill="#8a9394" d="M700 300h100v100H700z"/><path fill="#b0c3bf" d="M0 400h100v100H0z"/><path fill="#a3b7b1" d="M100 400h100v100H100z"/><path fill="#909599" d="M200 400h100v100H200z"/><path fill="#7e8587" d="M300 400h100v100H300z"/><path fill="#9ca0a4" d="M400 400h100v100H400z"/><path fill="#a0a4a8" d="M500 400h100v100H500z"/><path fill="#8e9396" d="M600 400h100v100H600z"/><path fill="#8b9495" d="M700 400h100v100H700z"/><path fill="#bac7c9" d="M0 500h100v100H0z"/><path fill="#b4bec1" d="M100 500h100v100H100z"/><path fill="#b7bec2" d="M200 500h100v100H200z"/><path fill="#b8c0c4" d="M300 500h100v100H300z"/><path fill="#b2b8bc" d="M400 500h100v100H400z"/><path fill="#b1b7bb" d="M500 500h100v100H500z"/><path fill="#afb6b9" d="M600 500h100v100H600z"/><path fill="#a8b1b3" d="M700 500h100v100H700z"/></svg>