<svg xmlns="http://www.w3.org/2000/svg" viewBox="0 0 800 400"><defs/><path fill="#c9d8d9" d="M0 0h100v100H0z"/><path fill="#b9cdcf" d="M100 0h100v100H100z"/><path fill="#ceddde" d="M200 0h100v100H200z"/><path fill="#a3bfc1" d="M300 0h100v100H300z"/><path fill="#89adaf" d="M400 0h100v100H400z"/><path fill="#ceddde" d="M500 0h100v100H500z"/><path fill="#bbcfd1" d="M600 0h100v100H600z"/><path fill="#86abad" d="M700 0h100v100H700z"/><path fill="#c5d9db" d="M0 100h100v100H0z"/><path fill="#a8c3c5" d="M100 100h100v100H100z"/><path fill="#bccfd1" d="M200 100h100v100H200z"/><path fill="#a2bec0" d="M300 100h100v100H300z"/><path fill="#84a9ac" d="M400 100h100v100H400z"/><path fill="#b7cdcf" d="M500 100h100v100H500z"/><path fill="#bcd0d1" d="M600 100h100v100H600z"/><path fill="#93b3b6" d="M700 100h100v100H700z"/><path fill="#b0cbce" d="M0 200h100v100H0z"/><path fill="#aac5c7" d="M100 200h100v100H100z"/><path fill="#d5e1e2" d="M200 200h100v100H200z"/><path fill="#d4e1e2" d="M300 200h100v100H300z"/><path fill="#d6e2e3" d="M400 200h100v100H400z"/><path fill="#bfd2d4" d="M500 200h100v100H500z"/><path fill="#b5cbcd" d="M600 200h100v100H600z"/><path fill="#8fb0b3" d="M700 200h100v100H700z"/><path fill="#b1c8ca" d="M0 300h100v100H0z"/><path fill="#b6cbce" d="M100 300h100v100H100z"/><path fill="#aec6c8" d="M200 300h100v100H200z"/><path fill="#a5c0c2" d="M300 300h100v100H300z"/><path fill="#b5cbcd" d="M400 300h100v100H400z"/><path fill="#a0bcbe" d="M500 300h100v100H500z"/><path fill="#c4d5d7" d="M600 300h100v100H600z"/><path fill="#97b6b8" d="M700 300h100v100H700z"/></svg>