<svg xmlns="http://www.w3.org/2000/svg" viewBox="0 0 800 600"><defs/><path fill="#6c6151" d="M0 0h100v100H0z"/><path fill="#a98266" d="M100 0h100v100H100z"/><path fill="#b1846b" d="M200 0h100v100H200z"/><path fill="#cba587" d="M300 0h100v100H300z"/><path fill="#ddb592" d="M400 0h100v100H400z"/><path fill="#bc8f73" d="M500 0h100v100H500z"/><path fill="#b48f75" d="M600 0h100v100H600z"/><path fill="#6a6058" d="M700 0h100v100H700z"/><path fill="#897b67" d="M0 100h100v100H0z"/><path fill="#906a4f" d="M100 100h100v100H100z"/><path fill="#aa8870" d="M200 100h100v100H200z"/><path fill="#b09f8d" d="M300 100h100v100H300z"/><path fill="#d8b395" d="M400 100h100v100H400z"/><path fill="#d2a082" d="M500 100h100v100H500z"/><path fill="#aa8067" d="M600 100h100v100H600z"/><path fill="#928574" d="M700 100h100v100H700z"/><path fill="#917056" d="M0 200h100v100H0z"/><path fill="#ae7343" d="M100 200h100v100H100z"/><path fill="#5f493c" d="M200 200h100v100H200z"/><path fill="#766d66" d="M300 200h100v100H300z"/><path fill="#5c78a3" d="M400 200h100v100H400z"/><path fill="#928288" d="M500 200h100v100H500z"/><path fill="#ae7c61" d="M600 200h100v100H600z"/><path fill="#7d746d" d="M700 200h100v100H700z"/><path fill="#71332b" d="M0 300h100v100H0z"/><path fill="#683322" d="M100 300h100v100H100z"/><path fill="#442519" d="M200 300h100v100H200z"/><path fill="#42463b" d="M300 300h100v100H300z"/><path fill="#514c51" d="M400 300h100v100H400z"/><path fill="#565052" d="M500 300h100v100H500z"/><path fill="#66493d" d="M600 300h100v100H600z"/><path fill="#393433" d="M700 300h100v100H700z"/><path fill="#6c3329" d="M0 400h100v100H0z"/><path fill="#4e0b10" d="M100 400h100v100H100z"/><path fill="#5a221f" d="M200 400h100v100H200z"/><path fill="#604b3d" d="M300 400h100v100H300z"/><path fill="#5b4e39" d="M400 400h100v100H400z"/><path fill="#40302d" d="M500 400h100v100H500z"/><path fill="#4c2c20" d="M600 400h100v100H600z"/><path fill="#482d23" d="M700 400h100v100H700z"/><path fill="#4d3a2a" d="M0 500h100v100H0z"/><path fill="#270a0b" d="M100 500h100v100H100z"/><path fill="#432d1d" d="M200 500h100v100H200z"/><path fill="#585534" d="M300 500h100v100H300z"/><path fill="#534f34" d="M400 500h100v100H400z"/><path fill="#494127" d="M500 500h100v100H500z"/><path fill="#342d1b" d="M600 500h100v100H600z"/><path fill="#313427" d="M700 500h100v100H700z"/></svg>