<svg xmlns="http://www.w3.org/2000/svg" viewBox="0 0 800 400"><defs/><path fill="#e4e5e6" d="M0 0h100v100H0z"/><path fill="#8d8d8d" d="M100 0h100v100H100z"/><path fill="#8d8e8f" d="M200 0h100v100H200z"/><path fill="#9ba0a5" d="M300 0h100v100H300z"/><path fill="#9d9798" d="M400 0h100v100H400z"/><path fill="#918686" d="M500 0h100v100H500z"/><path fill="#868d8e" d="M600 0h100v100H600z"/><path fill="#878b8d" d="M700 0h100v100H700z"/><path fill="#dcdcdd" d="M0 100h100v100H0z"/><path fill="#818282" d="M100 100h100v100H100z"/><path fill="#8e8d8e" d="M200 100h100v100H200z"/><path fill="#82878e" d="M300 100h100v100H300z"/><path fill="#8f9296" d="M400 100h100v100H400z"/><path fill="#696c6d" d="M500 100h100v100H500z"/><path fill="#5e6a6b" d="M600 100h100v100H600z"/><path fill="#868c8f" d="M700 100h100v100H700z"/><path fill="#bbb9b8" d="M0 200h100v100H0z"/><path fill="#66696b" d="M100 200h100v100H100z"/><path fill="#748585" d="M200 200h100v100H200z"/><path fill="#7d8588" d="M300 200h100v100H300z"/><path fill="#71676a" d="M400 200h100v100H400z"/><path fill="#5f686c" d="M500 200h100v100H500z"/><path fill="#6d7470" d="M600 200h100v100H600z"/><path fill="#595958" d="M700 200h100v100H700z"/><path fill="#848788" d="M0 300h100v100H0z"/><path fill="#4b6268" d="M100 300h100v100H100z"/><path fill="#768991" d="M200 300h100v100H200z"/><path fill="#816d83" d="M300 300h100v100H300z"/><path fill="#6e5d6e" d="M400 300h100v100H400z"/><path fill="#69686d" d="M500 300h100v100H500z"/><path fill="#6d8788" d="M600 300h100v100H600z"/><path fill="#596d71" d="M700 300h100v100H700z"/></svg>