<svg xmlns="http://www.w3.org/2000/svg" viewBox="0 0 800 500"><defs/><path fill="#dfd1cf" d="M0 0h100v100H0z"/><path fill="#bfbdd7" d="M100 0h100v100H100z"/><path fill="#d0c6d2" d="M200 0h100v100H200z"/><path fill="#ded0cf" d="M300 0h100v100H300z"/><path fill="#ded1d0" d="M400 0h100v100H400z"/><path fill="#c0bbd5" d="M500 0h100v100H500z"/><path fill="#b7b7d7" d="M600 0h100v100H600z"/><path fill="#d8ced1" d="M700 0h100v100H700z"/><path fill="#d2c8d2" d="M0 100h100v100H0z"/><path fill="#a4acdc" d="M100 100h100v100H100z"/><path fill="#bdbad5" d="M200 100h100v100H200z"/><path fill="#d6cdd1" d="M300 100h100v100H300z"/><path fill="#d2c9d2" d="M400 100h100v100H400z"/><path fill="#b2b1d7" d="M500 100h100v100H500z"/><path fill="#a4aadb" d="M600 100h100v100H600z"/><path fill="#c8c3d4" d="M700 100h100v100H700z"/><path fill="#dccfd1" d="M0 200h100v100H0z"/><path fill="#afb3da" d="M100 200h100v100H100z"/><path fill="#c8c1d3" d="M200 200h100v100H200z"/><path fill="#dccfd0" d="M300 200h100v100H300z"/><path fill="#ded0cf" d="M400 200h100v100H400z"/><path fill="#c1bbd3" d="M500 200h100v100H500z"/><path fill="#c9c0d2" d="M600 200h100v100H600z"/><path fill="#cbc5d4" d="M700 200h100v100H700z"/><path fill="#d9ced1" d="M0 300h100v100H0z"/><path fill="#aeb3dc" d="M100 300h100v100H100z"/><path fill="#cfc7d3" d="M200 300h100v100H200z"/><path fill="#e0d2cf" d="M300 300h100v100H300z"/><path fill="#c4c1d5" d="M400 300h100v100H400z"/><path fill="#dbced0" d="M500 300h100v100H500z"/><path fill="#b3b5d9" d="M600 300h100v100H600z"/><path fill="#c7c3d5" d="M700 300h100v100H700z"/><path fill="#e9d9cd" d="M0 400h100v100H0z"/><path fill="#d0c8d3" d="M100 400h100v100H100z"/><path fill="#dad0d1" d="M200 400h100v100H200z"/><path fill="#f5e0cb" d="M300 400h100v100H300z"/><path fill="#dbcfd1" d="M400 400h100v100H400z"/><path fill="#f0ddcd" d="M500 400h100v100H500z"/><path fill="#d6cdd2" d="M600 400h100v100H600z"/><path fill="#d9ced1" d="M700 400h100v100H700z"/></svg>