<svg xmlns="http://www.w3.org/2000/svg" viewBox="0 0 800 500"><defs/><path fill="#e7ead9" d="M0 0h100v100H0z"/><path fill="#dad3c6" d="M100 0h100v100H100z"/><path fill="#e3e8d1" d="M200 0h100v100H200z"/><path fill="#dddbcd" d="M300 0h100v100H300z"/><path fill="#e7dfd0" d="M400 0h100v100H400z"/><path fill="#eeefda" d="M500 0h100v100H500z"/><path fill="#e3e5db" d="M600 0h100v100H600z"/><path fill="#f0efd5" d="M700 0h100v100H700z"/><path fill="#8d9a61" d="M0 100h100v100H0z"/><path fill="#643f1e" d="M100 100h100v100H100z"/><path fill="#8a8141" d="M200 100h100v100H200z"/><path fill="#738958" d="M300 100h100v100H300z"/><path fill="#7f966e" d="M400 100h100v100H400z"/><path fill="#9e9c6b" d="M500 100h100v100H500z"/><path fill="#3e5fb9" d="M600 100h100v100H600z"/><path fill="#7e9098" d="M700 100h100v100H700z"/><path fill="#928657" d="M0 200h100v100H0z"/><path fill="#70412e" d="M100 200h100v100H100z"/><path fill="#947f61" d="M200 200h100v100H200z"/><path fill="#675e3b" d="M300 200h100v100H300z"/><path fill="#888d54" d="M400 200h100v100H400z"/><path fill="#876d4b" d="M500 200h100v100H500z"/><path fill="#544e83" d="M600 200h100v100H600z"/><path fill="#5b6d97" d="M700 200h100v100H700z"/><path fill="#7f6f56" d="M0 300h100v100H0z"/><path fill="#5e2e0a" d="M100 300h100v100H100z"/><path fill="#957f6c" d="M200 300h100v100H200z"/><path fill="#7f6243" d="M300 300h100v100H300z"/><path fill="#635a40" d="M400 300h100v100H400z"/><path fill="#715e4f" d="M500 300h100v100H500z"/><path fill="#8f4d38" d="M600 300h100v100H600z"/><path fill="#7c532a" d="M700 300h100v100H700z"/><path fill="#b4bbb8" d="M0 400h100v100H0z"/><path fill="#a4968e" d="M100 400h100v100H100z"/><path fill="#b6b6a7" d="M200 400h100v100H200z"/><path fill="#b3b4a0" d="M300 400h100v100H300z"/><path fill="#979998" d="M400 400h100v100H400z"/><path fill="#b6b2ac" d="M500 400h100v100H500z"/><path fill="#c4beb9" d="M600 400h100v100H600z"/><path fill="#b7b4a9" d="M700 400h100v100H700z"/></svg>