<svg xmlns="http://www.w3.org/2000/svg" viewBox="0 0 800 500"><defs/><path fill="#d4867e" d="M0 0h100v100H0z"/><path fill="#b9776c" d="M100 0h100v100H100z"/><path fill="#c08a7b" d="M200 0h100v100H200z"/><path fill="#d9c5bc" d="M300 0h100v100H300z"/><path fill="#cca49d" d="M400 0h100v100H400z"/><path fill="#c79e96" d="M500 0h100v100H500z"/><path fill="#d1897f" d="M600 0h100v100H600z"/><path fill="#a67069" d="M700 0h100v100H700z"/><path fill="#cf827a" d="M0 100h100v100H0z"/><path fill="#a57a66" d="M100 100h100v100H100z"/><path fill="#8b7f6b" d="M200 100h100v100H200z"/><path fill="#a28581" d="M300 100h100v100H300z"/><path fill="#9e897e" d="M400 100h100v100H400z"/><path fill="#bc8472" d="M500 100h100v100H500z"/><path fill="#bc8b7a" d="M600 100h100v100H600z"/><path fill="#9e6f67" d="M700 100h100v100H700z"/><path fill="#b78474" d="M0 200h100v100H0z"/><path fill="#a58972" d="M100 200h100v100H100z"/><path fill="#c9877c" d="M200 200h100v100H200z"/><path fill="#705560" d="M300 200h100v100H300z"/><path fill="#6f6356" d="M400 200h100v100H400z"/><path fill="#847c64" d="M500 200h100v100H500z"/><path fill="#c79c96" d="M600 200h100v100H600z"/><path fill="#af837e" d="M700 200h100v100H700z"/><path fill="#ba9d96" d="M0 300h100v100H0z"/><path fill="#c0a9a1" d="M100 300h100v100H100z"/><path fill="#a0a5a2" d="M200 300h100v100H200z"/><path fill="#7591ab" d="M300 300h100v100H300z"/><path fill="#9fa6a0" d="M400 300h100v100H400z"/><path fill="#a1928b" d="M500 300h100v100H500z"/><path fill="#b7988a" d="M600 300h100v100H600z"/><path fill="#c3b2b2" d="M700 300h100v100H700z"/><path fill="#c0a6a2" d="M0 400h100v100H0z"/><path fill="#bba8a6" d="M100 400h100v100H100z"/><path fill="#5b909d" d="M200 400h100v100H200z"/><path fill="#57959f" d="M300 400h100v100H300z"/><path fill="#7d9faa" d="M400 400h100v100H400z"/><path fill="#b29ca3" d="M500 400h100v100H500z"/><path fill="#c9ada7" d="M600 400h100v100H600z"/><path fill="#8998a1" d="M700 400h100v100H700z"/></svg>