<svg xmlns="http://www.w3.org/2000/svg" viewBox="0 0 800 600"><defs/><path fill="#6f502c" d="M0 0h100v100H0z"/><path fill="#af733c" d="M100 0h100v100H100z"/><path fill="#d1894b" d="M200 0h100v100H200z"/><path fill="#d78e4d" d="M300 0h100v100H300z"/><path fill="#ce8f51" d="M400 0h100v100H400z"/><path fill="#ae703d" d="M500 0h100v100H500z"/><path fill="#ad713c" d="M600 0h100v100H600z"/><path fill="#6d4d2b" d="M700 0h100v100H700z"/><path fill="#896036" d="M0 100h100v100H0z"/><path fill="#ae6d39" d="M100 100h100v100H100z"/><path fill="#e5b084" d="M200 100h100v100H200z"/><path fill="#eab482" d="M300 100h100v100H300z"/><path fill="#ca996d" d="M400 100h100v100H400z"/><path fill="#c28e65" d="M500 100h100v100H500z"/><path fill="#ae7950" d="M600 100h100v100H600z"/><path fill="#8d6e45" d="M700 100h100v100H700z"/><path fill="#9b6533" d="M0 200h100v100H0z"/><path fill="#c27a40" d="M100 200h100v100H100z"/><path fill="#b38c6d" d="M200 200h100v100H200z"/><path fill="#c79f84" d="M300 200h100v100H300z"/><path fill="#9ba0a8" d="M400 200h100v100H400z"/><path fill="#bca593" d="M500 200h100v100H500z"/><path fill="#b98761" d="M600 200h100v100H600z"/><path fill="#7f6b4a" d="M700 200h100v100H700z"/><path fill="#845024" d="M0 300h100v100H0z"/><path fill="#8e572a" d="M100 300h100v100H100z"/><path fill="#62422f" d="M200 300h100v100H200z"/><path fill="#8d5b42" d="M300 300h100v100H300z"/><path fill="#87796c" d="M400 300h100v100H400z"/><path fill="#917f6c" d="M500 300h100v100H500z"/><path fill="#865d44" d="M600 300h100v100H600z"/><path fill="#4a3c2a" d="M700 300h100v100H700z"/><path fill="#9d6e36" d="M0 400h100v100H0z"/><path fill="#743317" d="M100 400h100v100H100z"/><path fill="#8c1a12" d="M200 400h100v100H200z"/><path fill="#68361f" d="M300 400h100v100H300z"/><path fill="#714520" d="M400 400h100v100H400z"/><path fill="#5e4121" d="M500 400h100v100H500z"/><path fill="#4e2f17" d="M600 400h100v100H600z"/><path fill="#753d17" d="M700 400h100v100H700z"/><path fill="#918041" d="M0 500h100v100H0z"/><path fill="#45310d" d="M100 500h100v100H100z"/><path fill="#67230c" d="M200 500h100v100H200z"/><path fill="#272109" d="M300 500h100v100H300z"/><path fill="#563713" d="M400 500h100v100H400z"/><path fill="#593f14" d="M500 500h100v100H500z"/><path fill="#35390b" d="M600 500h100v100H600z"/><path fill="#543a11" d="M700 500h100v100H700z"/></svg>