<svg xmlns="http://www.w3.org/2000/svg" viewBox="0 0 800 600"><defs/><path fill="#f2f2f1" d="M0 0h100v100H0z"/><path fill="#eceae3" d="M100 0h100v100H100z"/><path fill="#f6f7f6" d="M200 0h100v100H200z"/><path fill="#f4f4f7" d="M300 0h100v100H300z"/><path fill="#f1f2f5" d="M400 0h100v100H400z"/><path fill="#f1f1f2" d="M500 0h100v100H500z"/><path fill="#edeef0" d="M600 0h100v100H600z"/><path fill="#f4f5f5" d="M700 0h100v100H700z"/><path fill="#d1d0cd" d="M0 100h100v100H0z"/><path fill="#aaaaa4" d="M100 100h100v100H100z"/><path fill="#d6d6d1" d="M200 100h100v100H200z"/><path fill="#c4c6cd" d="M300 100h100v100H300z"/><path fill="#e1e1e1" d="M400 100h100v100H400z"/><path fill="#b7b8b3" d="M500 100h100v100H500z"/><path fill="#a1a3a2" d="M600 100h100v100H600z"/><path fill="#d6dad7" d="M700 100h100v100H700z"/><path fill="#c3c8c4" d="M0 200h100v100H0z"/><path fill="#b4bebc" d="M100 200h100v100H100z"/><path fill="#d5d7d8" d="M200 200h100v100H200z"/><path fill="#879aac" d="M300 200h100v100H300z"/><path fill="#97a9c1" d="M400 200h100v100H400z"/><path fill="#adb4b8" d="M500 200h100v100H500z"/><path fill="#9ba5a8" d="M600 200h100v100H600z"/><path fill="#d4d6d6" d="M700 200h100v100H700z"/><path fill="#bebdbe" d="M0 300h100v100H0z"/><path fill="#b4b2a8" d="M100 300h100v100H100z"/><path fill="#b0afb0" d="M200 300h100v100H200z"/><path fill="#799eb5" d="M300 300h100v100H300z"/><path fill="#6f94a6" d="M400 300h100v100H400z"/><path fill="#9fa4b1" d="M500 300h100v100H500z"/><path fill="#b0b5b9" d="M600 300h100v100H600z"/><path fill="#c2c6c9" d="M700 300h100v100H700z"/><path fill="#b7b9ad" d="M0 400h100v100H0z"/><path fill="#b9a774" d="M100 400h100v100H100z"/><path fill="#ceb06a" d="M200 400h100v100H200z"/><path fill="#ae9d77" d="M300 400h100v100H300z"/><path fill="#bfa76e" d="M400 400h100v100H400z"/><path fill="#b9a573" d="M500 400h100v100H500z"/><path fill="#a08f65" d="M600 400h100v100H600z"/><path fill="#bab299" d="M700 400h100v100H700z"/><path fill="#ddd9c8" d="M0 500h100v100H0z"/><path fill="#e1d8bd" d="M100 500h100v100H100z"/><path fill="#e4d9ba" d="M200 500h100v100H200z"/><path fill="#e7dbbb" d="M300 500h100v100H300z"/><path fill="#e6d9ba" d="M400 500h100v100H400z"/><path fill="#e6dbc0" d="M500 500h100v100H500z"/><path fill="#e0d4b5" d="M600 500h100v100H600z"/><path fill="#dad4c5" d="M700 500h100v100H700z"/></svg>