<svg xmlns="http://www.w3.org/2000/svg" viewBox="0 0 800 400"><defs/><path fill="#d6cbba" d="M0 0h100v100H0z"/><path fill="#debd7e" d="M100 0h100v100H100z"/><path fill="#ded2ba" d="M200 0h100v100H200z"/><path fill="#d1c6bd" d="M300 0h100v100H300z"/><path fill="#b2a290" d="M400 0h100v100H400z"/><path fill="#bdc2c5" d="M500 0h100v100H500z"/><path fill="#b3ccc6" d="M600 0h100v100H600z"/><path fill="#abc1b2" d="M700 0h100v100H700z"/><path fill="#d5c3a6" d="M0 100h100v100H0z"/><path fill="#e1c381" d="M100 100h100v100H100z"/><path fill="#c6beac" d="M200 100h100v100H200z"/><path fill="#afb1bd" d="M300 100h100v100H300z"/><path fill="#b88d92" d="M400 100h100v100H400z"/><path fill="#c8a07b" d="M500 100h100v100H500z"/><path fill="#9ebead" d="M600 100h100v100H600z"/><path fill="#75875c" d="M700 100h100v100H700z"/><path fill="#e7c999" d="M0 200h100v100H0z"/><path fill="#c8bf86" d="M100 200h100v100H100z"/><path fill="#8fa99d" d="M200 200h100v100H200z"/><path fill="#acaca8" d="M300 200h100v100H300z"/><path fill="#c3afb4" d="M400 200h100v100H400z"/><path fill="#d3c1bd" d="M500 200h100v100H500z"/><path fill="#bac4c6" d="M600 200h100v100H600z"/><path fill="#8a9a8f" d="M700 200h100v100H700z"/><path fill="#e2cca0" d="M0 300h100v100H0z"/><path fill="#cab490" d="M100 300h100v100H100z"/><path fill="#ad957d" d="M200 300h100v100H200z"/><path fill="#bda3a3" d="M300 300h100v100H300z"/><path fill="#b7a6a6" d="M400 300h100v100H400z"/><path fill="#ccbcc1" d="M500 300h100v100H500z"/><path fill="#c6b2ab" d="M600 300h100v100H600z"/><path fill="#a1a994" d="M700 300h100v100H700z"/></svg>