<svg xmlns="http://www.w3.org/2000/svg" viewBox="0 0 800 300"><defs/><path fill="#171502" d="M0 0h100v100H0z"/><path fill="#645d07" d="M100 0h100v100H100z"/><path fill="#3b3101" d="M200 0h100v100H200z"/><path fill="#ab8e04" d="M300 0h100v100H300z"/><path fill="#b59707" d="M400 0h100v100H400z"/><path fill="#caa802" d="M500 0h100v100H500z"/><path fill="#6a6105" d="M600 0h100v100H600z"/><path fill="#c0c3a9" d="M700 0h100v100H700z"/><path fill="#413c01" d="M0 100h100v100H0z"/><path fill="#69620b" d="M100 100h100v100H100z"/><path fill="#7f7c73" d="M200 100h100v100H200z"/><path fill="#655d38" d="M300 100h100v100H300z"/><path fill="#382e03" d="M400 100h100v100H400z"/><path fill="#7a6f3e" d="M500 100h100v100H500z"/><path fill="#89885f" d="M600 100h100v100H600z"/><path fill="#b7b981" d="M700 100h100v100H700z"/><path fill="#504b00" d="M0 200h100v100H0z"/><path fill="#999566" d="M100 200h100v100H100z"/><path fill="#adafb2" d="M200 200h100v100H200z"/><path fill="#3f4036" d="M300 200h100v100H300z"/><path fill="#343406" d="M400 200h100v100H400z"/><path fill="#656656" d="M500 200h100v100H500z"/><path fill="#afb0b5" d="M600 200h100v100H600z"/><path fill="#8d8d7d" d="M700 200h100v100H700z"/></svg>