<svg xmlns="http://www.w3.org/2000/svg" viewBox="0 0 800 400"><defs/><path fill="#445c40" d="M0 0h100v100H0z"/><path fill="#7f5338" d="M100 0h100v100H100z"/><path fill="#506549" d="M200 0h100v100H200z"/><path fill="#5d6b45" d="M300 0h100v100H300z"/><path fill="#3e6037" d="M400 0h100v100H400z"/><path fill="#485c39" d="M500 0h100v100H500z"/><path fill="#81583b" d="M600 0h100v100H600z"/><path fill="#8b3d2e" d="M700 0h100v100H700z"/><path fill="#887356" d="M0 100h100v100H0z"/><path fill="#913f2a" d="M100 100h100v100H100z"/><path fill="#6a4f3e" d="M200 100h100v100H200z"/><path fill="#865f43" d="M300 100h100v100H300z"/><path fill="#4c5d3a" d="M400 100h100v100H400z"/><path fill="#3e5c3b" d="M500 100h100v100H500z"/><path fill="#967144" d="M600 100h100v100H600z"/><path fill="#914f38" d="M700 100h100v100H700z"/><path fill="#a96f51" d="M0 200h100v100H0z"/><path fill="#87432e" d="M100 200h100v100H100z"/><path fill="#515340" d="M200 200h100v100H200z"/><path fill="#6f714f" d="M300 200h100v100H300z"/><path fill="#4d7745" d="M400 200h100v100H400z"/><path fill="#77633c" d="M500 200h100v100H500z"/><path fill="#837751" d="M600 200h100v100H600z"/><path fill="#465236" d="M700 200h100v100H700z"/><path fill="#99694a" d="M0 300h100v100H0z"/><path fill="#688453" d="M100 300h100v100H100z"/><path fill="#527b4f" d="M200 300h100v100H200z"/><path fill="#577c56" d="M300 300h100v100H300z"/><path fill="#568247" d="M400 300h100v100H400z"/><path fill="#976638" d="M500 300h100v100H500z"/><path fill="#5a7d4b" d="M600 300h100v100H600z"/><path fill="#0c5c36" d="M700 300h100v100H700z"/></svg>