<svg xmlns="http://www.w3.org/2000/svg" viewBox="0 0 800 600"><defs/><path fill="#e5e3e4" d="M0 0h100v100H0z"/><path fill="#ded9d6" d="M100 0h100v100H100z"/><path fill="#e8e5e6" d="M200 0h100v100H200z"/><path fill="#e9e7e8" d="M300 0h100v100H300z"/><path fill="#eee9e4" d="M400 0h100v100H400z"/><path fill="#dddad7" d="M500 0h100v100H500z"/><path fill="#d7d5d5" d="M600 0h100v100H600z"/><path fill="#dfdede" d="M700 0h100v100H700z"/><path fill="#877e80" d="M0 100h100v100H0z"/><path fill="#685751" d="M100 100h100v100H100z"/><path fill="#736867" d="M200 100h100v100H200z"/><path fill="#504a49" d="M300 100h100v100H300z"/><path fill="#6a5f57" d="M400 100h100v100H400z"/><path fill="#564d46" d="M500 100h100v100H500z"/><path fill="#282525" d="M600 100h100v100H600z"/><path fill="#847b7d" d="M700 100h100v100H700z"/><path fill="#8d807c" d="M0 200h100v100H0z"/><path fill="#6e6061" d="M100 200h100v100H100z"/><path fill="#2c2621" d="M200 200h100v100H200z"/><path fill="#5c5049" d="M300 200h100v100H300z"/><path fill="#746967" d="M400 200h100v100H400z"/><path fill="#867971" d="M500 200h100v100H500z"/><path fill="#615a59" d="M600 200h100v100H600z"/><path fill="#8b807a" d="M700 200h100v100H700z"/><path fill="#847976" d="M0 300h100v100H0z"/><path fill="#817271" d="M100 300h100v100H100z"/><path fill="#a49692" d="M200 300h100v100H200z"/><path fill="#877c74" d="M300 300h100v100H300z"/><path fill="#958988" d="M400 300h100v100H400z"/><path fill="#9b9092" d="M500 300h100v100H500z"/><path fill="#b7a69e" d="M600 300h100v100H600z"/><path fill="#857a7a" d="M700 300h100v100H700z"/><path fill="#76685f" d="M0 400h100v100H0z"/><path fill="#54483a" d="M100 400h100v100H100z"/><path fill="#4a4e46" d="M200 400h100v100H200z"/><path fill="#5e5956" d="M300 400h100v100H300z"/><path fill="#66615e" d="M400 400h100v100H400z"/><path fill="#4d4b4f" d="M500 400h100v100H500z"/><path fill="#514d4d" d="M600 400h100v100H600z"/><path fill="#5c534e" d="M700 400h100v100H700z"/><path fill="#d4cfcb" d="M0 500h100v100H0z"/><path fill="#c0bcb7" d="M100 500h100v100H100z"/><path fill="#b7b5b1" d="M200 500h100v100H200z"/><path fill="#b9b8b8" d="M300 500h100v100H300z"/><path fill="#b9b8b7" d="M400 500h100v100H400z"/><path fill="#c0bfbe" d="M500 500h100v100H500z"/><path fill="#b6b6b8" d="M600 500h100v100H600z"/><path fill="#c6c4c1" d="M700 500h100v100H700z"/></svg>