<svg xmlns="http://www.w3.org/2000/svg" viewBox="0 0 800 400"><defs/><path fill="#d2b6c1" d="M0 0h100v100H0z"/><path fill="#c4aaab" d="M100 0h100v100H100z"/><path fill="#d4c5b7" d="M200 0h100v100H200z"/><path fill="#d5d0c5" d="M300 0h100v100H300z"/><path fill="#c6b0a9" d="M400 0h100v100H400z"/><path fill="#b4918c" d="M500 0h100v100H500z"/><path fill="#b7a09f" d="M600 0h100v100H600z"/><path fill="#d4c2bc" d="M700 0h100v100H700z"/><path fill="#c8aab8" d="M0 100h100v100H0z"/><path fill="#bfa896" d="M100 100h100v100H100z"/><path fill="#c8a995" d="M200 100h100v100H200z"/><path fill="#c1b9b0" d="M300 100h100v100H300z"/><path fill="#b18e8c" d="M400 100h100v100H400z"/><path fill="#a1767f" d="M500 100h100v100H500z"/><path fill="#9fa1aa" d="M600 100h100v100H600z"/><path fill="#b7a9a6" d="M700 100h100v100H700z"/><path fill="#c2a2ad" d="M0 200h100v100H0z"/><path fill="#b17d87" d="M100 200h100v100H100z"/><path fill="#b27884" d="M200 200h100v100H200z"/><path fill="#b7848f" d="M300 200h100v100H300z"/><path fill="#ad7480" d="M400 200h100v100H400z"/><path fill="#ae7171" d="M500 200h100v100H500z"/><path fill="#92626b" d="M600 200h100v100H600z"/><path fill="#ab8c8f" d="M700 200h100v100H700z"/><path fill="#ba8b9a" d="M0 300h100v100H0z"/><path fill="#b46981" d="M100 300h100v100H100z"/><path fill="#b86e86" d="M200 300h100v100H200z"/><path fill="#b46781" d="M300 300h100v100H300z"/><path fill="#b97184" d="M400 300h100v100H400z"/><path fill="#c78783" d="M500 300h100v100H500z"/><path fill="#a9696c" d="M600 300h100v100H600z"/><path fill="#a57983" d="M700 300h100v100H700z"/></svg>