<svg xmlns="http://www.w3.org/2000/svg" viewBox="0 0 800 500"><defs/><path fill="#828282" d="M0 0h100v100H0z"/><path fill="#858585" d="M100 0h100v100H100z"/><path fill="#828282" d="M200 0h100v100H200zm100 0h100v100H300z"/><path fill="#8d8d8d" d="M400 0h100v100H400z"/><path fill="#8c8c8c" d="M500 0h100v100H500z"/><path fill="#8b8b8b" d="M600 0h100v100H600z"/><path fill="#919191" d="M700 0h100v100H700z"/><path fill="#e5e5e5" d="M0 100h100v100H0z"/><path fill="#e6e6e6" d="M100 100h100v100H100z"/><path fill="#ebebeb" d="M200 100h100v100H200z"/><path fill="#d7d7d7" d="M300 100h100v100H300z"/><path fill="#c9c9c9" d="M400 100h100v100H400z"/><path fill="#dfdfdf" d="M500 100h100v100H500z"/><path fill="#cfcfcf" d="M600 100h100v100H600z"/><path fill="#f5f5f5" d="M700 100h100v100H700z"/><path fill="#d9d9d9" d="M0 200h100v100H0z"/><path fill="#c7c7c7" d="M100 200h100v100H100z"/><path fill="#dedede" d="M200 200h100v100H200z"/><path fill="#d2d2d2" d="M300 200h100v100H300z"/><path fill="silver" d="M400 200h100v100H400z"/><path fill="#b5b5b5" d="M500 200h100v100H500z"/><path fill="#bcbcbc" d="M600 200h100v100H600z"/><path fill="#e0e0e0" d="M700 200h100v100H700z"/><path fill="#d1d1d1" d="M0 300h100v100H0z"/><path fill="#bcbcbc" d="M100 300h100v100H100z"/><path fill="#f9f9f9" d="M200 300h100v100H200z"/><path fill="#e9e9e9" d="M300 300h100v100H300z"/><path fill="#dedede" d="M400 300h100v100H400z"/><path fill="#e7e7e7" d="M500 300h100v100H500z"/><path fill="#d5d5d5" d="M600 300h100v100H600z"/><path fill="#cbcbcb" d="M700 300h100v100H700z"/><path fill="silver" d="M0 400h100v100H0z"/><path fill="#c7c7c7" d="M100 400h100v100H100z"/><path fill="#fbfbfb" d="M200 400h100v100H200z"/><path fill="#efefef" d="M300 400h100v100H300z"/><path fill="#e1e1e1" d="M400 400h100v100H400z"/><path fill="#ddd" d="M500 400h100v100H500z"/><path fill="#e5e5e5" d="M600 400h100v100H600z"/><path fill="#cdcdcd" d="M700 400h100v100H700z"/></svg>