<svg xmlns="http://www.w3.org/2000/svg" viewBox="0 0 800 500"><defs/><path fill="#c9cfd2" d="M0 0h100v100H0z"/><path fill="#ccd4d6" d="M100 0h100v100H100z"/><path fill="#c9cfd2" d="M200 0h100v100H200z"/><path fill="#c9ced1" d="M300 0h100v100H300z"/><path fill="#ccd1d4" d="M400 0h100v100H400z"/><path fill="#cdd2d6" d="M500 0h100v100H500z"/><path fill="#cbcfd6" d="M600 0h100v100H600z"/><path fill="#c6ced2" d="M700 0h100v100H700z"/><path fill="#abb4b5" d="M0 100h100v100H0z"/><path fill="#aec3ba" d="M100 100h100v100H100z"/><path fill="#a2aaab" d="M200 100h100v100H200z"/><path fill="#a1a5a9" d="M300 100h100v100H300z"/><path fill="#a8adb0" d="M400 100h100v100H400z"/><path fill="#abb0b3" d="M500 100h100v100H500z"/><path fill="#a7adb1" d="M600 100h100v100H600z"/><path fill="#a2abad" d="M700 100h100v100H700z"/><path fill="#afbbba" d="M0 200h100v100H0z"/><path fill="#b4c8c2" d="M100 200h100v100H100z"/><path fill="#7f8788" d="M200 200h100v100H200z"/><path fill="#57615f" d="M300 200h100v100H300z"/><path fill="#5c6664" d="M400 200h100v100H400z"/><path fill="#56605e" d="M500 200h100v100H500z"/><path fill="#5a6463" d="M600 200h100v100H600z"/><path fill="#969e9f" d="M700 200h100v100H700z"/><path fill="#afc2be" d="M0 300h100v100H0z"/><path fill="#a7bcb5" d="M100 300h100v100H100z"/><path fill="#82888b" d="M200 300h100v100H200z"/><path fill="#626a6a" d="M300 300h100v100H300z"/><path fill="#7e8586" d="M400 300h100v100H400z"/><path fill="#808788" d="M500 300h100v100H500z"/><path fill="#747b7d" d="M600 300h100v100H600z"/><path fill="#889092" d="M700 300h100v100H700z"/><path fill="#b7c6c7" d="M0 400h100v100H0z"/><path fill="#afbbbd" d="M100 400h100v100H100z"/><path fill="#b0b6bb" d="M200 400h100v100H200z"/><path fill="#b1b8bc" d="M300 400h100v100H300z"/><path fill="#b2b7bb" d="M400 400h100v100H400z"/><path fill="#b2b8bc" d="M500 400h100v100H500z"/><path fill="#acb2b6" d="M600 400h100v100H600z"/><path fill="#a2abad" d="M700 400h100v100H700z"/></svg>