<svg xmlns="http://www.w3.org/2000/svg" viewBox="0 0 800 900"><defs/><path fill="#bcc7bd" d="M0 0h100v100H0z"/><path fill="#9c9d91" d="M100 0h100v100H100z"/><path fill="#e5aba1" d="M200 0h100v100H200z"/><path fill="#f0eeeb" d="M300 0h100v100H300z"/><path fill="#bdc3cf" d="M400 0h100v100H400z"/><path fill="#a68e94" d="M500 0h100v100H500z"/><path fill="#f9af95" d="M600 0h100v100H600z"/><path fill="#e3dcd3" d="M700 0h100v100H700z"/><path fill="#c5ccbe" d="M0 100h100v100H0z"/><path fill="#aaae9e" d="M100 100h100v100H100z"/><path fill="#e1b7af" d="M200 100h100v100H200z"/><path fill="#eeeeeb" d="M300 100h100v100H300z"/><path fill="#c4cbd3" d="M400 100h100v100H400z"/><path fill="#b5a6ab" d="M500 100h100v100H500z"/><path fill="#ebb9a4" d="M600 100h100v100H600z"/><path fill="#ded5ca" d="M700 100h100v100H700z"/><path fill="#cfc8ba" d="M0 200h100v100H0z"/><path fill="#cbcac3" d="M100 200h100v100H100z"/><path fill="#c3cdcd" d="M200 200h100v100H200z"/><path fill="#dfdfde" d="M300 200h100v100H300z"/><path fill="#d2d1ce" d="M400 200h100v100H400z"/><path fill="#d8d7cf" d="M500 200h100v100H500z"/><path fill="#c5c6be" d="M600 200h100v100H600z"/><path fill="#c4b7a7" d="M700 200h100v100H700z"/><path fill="#d1ccbf" d="M0 300h100v100H0z"/><path fill="#c8c7c0" d="M100 300h100v100H100z"/><path fill="#c4c7c6" d="M200 300h100v100H200z"/><path fill="#e0e0df" d="M300 300h100v100H300z"/><path fill="#d6d6d5" d="M400 300h100v100H400z"/><path fill="#d3d2ce" d="M500 300h100v100H500z"/><path fill="#cac6bc" d="M600 300h100v100H600z"/><path fill="#c5baaa" d="M700 300h100v100H700z"/><path fill="#d2cbbc" d="M0 400h100v100H0z"/><path fill="#cac8c1" d="M100 400h100v100H100z"/><path fill="#bec3c3" d="M200 400h100v100H200z"/><path fill="#dddcdb" d="M300 400h100v100H300z"/><path fill="#d7d6d5" d="M400 400h100v100H400z"/><path fill="#d2d2cd" d="M500 400h100v100H500z"/><path fill="#cac7bc" d="M600 400h100v100H600z"/><path fill="#bdb4a3" d="M700 400h100v100H700z"/><path fill="#d3caba" d="M0 500h100v100H0z"/><path fill="#ccc8c0" d="M100 500h100v100H100z"/><path fill="#bbbebe" d="M200 500h100v100H200z"/><path fill="#d8d8d5" d="M300 500h100v100H300z"/><path fill="#d4d4d2" d="M400 500h100v100H400z"/><path fill="#d0d0ca" d="M500 500h100v100H500z"/><path fill="#cbc6ba" d="M600 500h100v100H600z"/><path fill="#b2ab9a" d="M700 500h100v100H700z"/><path fill="#d4c7b8" d="M0 600h100v100H0z"/><path fill="#cfc7bc" d="M100 600h100v100H100z"/><path fill="#b9b8b7" d="M200 600h100v100H200z"/><path fill="#d6d2cf" d="M300 600h100v100H300z"/><path fill="#e8e2dc" d="M400 600h100v100H400z"/><path fill="#e3ddd4" d="M500 600h100v100H500z"/><path fill="#e0d9ca" d="M600 600h100v100H600z"/><path fill="#d6cdbb" d="M700 600h100v100H700z"/><path fill="#d1bfb4" d="M0 700h100v100H0z"/><path fill="#cdc0b7" d="M100 700h100v100H100z"/><path fill="#b5b2af" d="M200 700h100v100H200z"/><path fill="#d2cdc7" d="M300 700h100v100H300z"/><path fill="#e7e0d5" d="M400 700h100v100H400z"/><path fill="#e0d9cc" d="M500 700h100v100H500z"/><path fill="#dcd4c4" d="M600 700h100v100H600z"/><path fill="#d8ccba" d="M700 700h100v100H700z"/><path fill="#cdb9af" d="M0 800h100v100H0z"/><path fill="#c8b9b2" d="M100 800h100v100H100z"/><path fill="#b1abaa" d="M200 800h100v100H200z"/><path fill="#ccc6be" d="M300 800h100v100H300z"/><path fill="#ddd5c9" d="M400 800h100v100H400z"/><path fill="#d5cdc0" d="M500 800h100v100H500z"/><path fill="#d1c8b8" d="M600 800h100v100H600z"/><path fill="#cdc1ae" d="M700 800h100v100H700z"/></svg>