<svg xmlns="http://www.w3.org/2000/svg" viewBox="0 0 800 400"><defs/><path fill="#847665" d="M0 0h100v100H0z"/><path fill="#7e7d7d" d="M100 0h100v100H100z"/><path fill="#9e8585" d="M200 0h100v100H200z"/><path fill="#6f6163" d="M300 0h100v100H300z"/><path fill="#4d4f51" d="M400 0h100v100H400z"/><path fill="#645e5f" d="M500 0h100v100H500z"/><path fill="#a49d9d" d="M600 0h100v100H600z"/><path fill="#897b78" d="M700 0h100v100H700z"/><path fill="#776f61" d="M0 100h100v100H0z"/><path fill="#4d4442" d="M100 100h100v100H100z"/><path fill="#5c514c" d="M200 100h100v100H200z"/><path fill="#5a4943" d="M300 100h100v100H300z"/><path fill="#40231e" d="M400 100h100v100H400z"/><path fill="#4a4142" d="M500 100h100v100H500z"/><path fill="#5a5a57" d="M600 100h100v100H600z"/><path fill="#755f4c" d="M700 100h100v100H700z"/><path fill="#6d6459" d="M0 200h100v100H0z"/><path fill="#302d35" d="M100 200h100v100H100z"/><path fill="#534d3c" d="M200 200h100v100H200z"/><path fill="#725f55" d="M300 200h100v100H300z"/><path fill="#7f3e27" d="M400 200h100v100H400z"/><path fill="#8b5d41" d="M500 200h100v100H500z"/><path fill="#4b3a3c" d="M600 200h100v100H600z"/><path fill="#856957" d="M700 200h100v100H700z"/><path fill="#57524d" d="M0 300h100v100H0z"/><path fill="#4b5059" d="M100 300h100v100H100z"/><path fill="#605c58" d="M200 300h100v100H200z"/><path fill="#75766b" d="M300 300h100v100H300z"/><path fill="#7f5b4a" d="M400 300h100v100H400z"/><path fill="#6e4d3f" d="M500 300h100v100H500z"/><path fill="#342826" d="M600 300h100v100H600z"/><path fill="#62584f" d="M700 300h100v100H700z"/></svg>