<svg xmlns="http://www.w3.org/2000/svg" viewBox="0 0 800 500"><defs/><path fill="#988b7a" d="M0 0h100v100H0z"/><path fill="#837275" d="M100 0h100v100H100z"/><path fill="#a6a59c" d="M200 0h100v100H200z"/><path fill="#b0a593" d="M300 0h100v100H300z"/><path fill="#84666b" d="M400 0h100v100H400z"/><path fill="#949387" d="M500 0h100v100H500z"/><path fill="#917e6b" d="M600 0h100v100H600z"/><path fill="#885f58" d="M700 0h100v100H700z"/><path fill="#a19c7c" d="M0 100h100v100H0z"/><path fill="#9c8777" d="M100 100h100v100H100z"/><path fill="#b09a69" d="M200 100h100v100H200z"/><path fill="#bda772" d="M300 100h100v100H300z"/><path fill="#b77e7b" d="M400 100h100v100H400z"/><path fill="#c7ad6a" d="M500 100h100v100H500z"/><path fill="#9a8463" d="M600 100h100v100H600z"/><path fill="#85675d" d="M700 100h100v100H700z"/><path fill="#aaaa98" d="M0 200h100v100H0z"/><path fill="#aa9488" d="M100 200h100v100H100z"/><path fill="#a28b80" d="M200 200h100v100H200z"/><path fill="#977d72" d="M300 200h100v100H300z"/><path fill="#aa7c7e" d="M400 200h100v100H400z"/><path fill="#a68084" d="M500 200h100v100H500z"/><path fill="#8a7c72" d="M600 200h100v100H600z"/><path fill="#896a4b" d="M700 200h100v100H700z"/><path fill="#9b8d76" d="M0 300h100v100H0z"/><path fill="#ad9370" d="M100 300h100v100H100z"/><path fill="#e0d299" d="M200 300h100v100H200z"/><path fill="#d6bd98" d="M300 300h100v100H300z"/><path fill="#a58284" d="M400 300h100v100H400z"/><path fill="#b8a990" d="M500 300h100v100H500z"/><path fill="#b39e74" d="M600 300h100v100H600z"/><path fill="#846146" d="M700 300h100v100H700z"/><path fill="#957f7d" d="M0 400h100v100H0z"/><path fill="#b99d86" d="M100 400h100v100H100z"/><path fill="#bda27d" d="M200 400h100v100H200z"/><path fill="#cba787" d="M300 400h100v100H300z"/><path fill="#c8a087" d="M400 400h100v100H400z"/><path fill="#bf9c7b" d="M500 400h100v100H500z"/><path fill="#c0977d" d="M600 400h100v100H600z"/><path fill="#86666d" d="M700 400h100v100H700z"/></svg>