<svg xmlns="http://www.w3.org/2000/svg" viewBox="0 0 800 600"><defs/><path fill="#635f5d" d="M0 0h100v100H0z"/><path fill="#6e676a" d="M100 0h100v100H100z"/><path fill="#706d6e" d="M200 0h100v100H200z"/><path fill="#7e868e" d="M300 0h100v100H300z"/><path fill="#8d99a3" d="M400 0h100v100H400z"/><path fill="#83807d" d="M500 0h100v100H500z"/><path fill="#8b847a" d="M600 0h100v100H600z"/><path fill="#2c2a26" d="M700 0h100v100H700z"/><path fill="#eae6d8" d="M0 100h100v100H0z"/><path fill="#fbf6eb" d="M100 100h100v100H100z"/><path fill="#f0eae3" d="M200 100h100v100H200z"/><path fill="#eeeae8" d="M300 100h100v100H300z"/><path fill="#f4efe7" d="M400 100h100v100H400z"/><path fill="#f0eadf" d="M500 100h100v100H500z"/><path fill="#fbf4ea" d="M600 100h100v100H600z"/><path fill="#5b5853" d="M700 100h100v100H700z"/><path fill="#d9d7cb" d="M0 200h100v100H0z"/><path fill="#e5e4e2" d="M100 200h100v100H100z"/><path fill="#d4cebd" d="M200 200h100v100H200z"/><path fill="#cbb771" d="M300 200h100v100H300z"/><path fill="#c8bc91" d="M400 200h100v100H400z"/><path fill="#c3c3c5" d="M500 200h100v100H500z"/><path fill="#e7e7e2" d="M600 200h100v100H600z"/><path fill="#7f7c73" d="M700 200h100v100H700z"/><path fill="#dcdacd" d="M0 300h100v100H0z"/><path fill="#e3e4e3" d="M100 300h100v100H100z"/><path fill="#d4cfbd" d="M200 300h100v100H200z"/><path fill="#c0ad71" d="M300 300h100v100H300z"/><path fill="#c3bb9d" d="M400 300h100v100H400z"/><path fill="#cdcfd1" d="M500 300h100v100H500z"/><path fill="#e6e9e9" d="M600 300h100v100H600z"/><path fill="#a8a99f" d="M700 300h100v100H700z"/><path fill="#dddbd2" d="M0 400h100v100H0z"/><path fill="#dadad9" d="M100 400h100v100H100z"/><path fill="#d9dada" d="M200 400h100v100H200z"/><path fill="#e1e6eb" d="M300 400h100v100H300zm100 0h100v100H400z"/><path fill="#d7dada" d="M500 400h100v100H500z"/><path fill="#eaeff3" d="M600 400h100v100H600z"/><path fill="#b7bcc2" d="M700 400h100v100H700z"/><path fill="#d9d6cb" d="M0 500h100v100H0z"/><path fill="#d1d1cc" d="M100 500h100v100H100z"/><path fill="#c4c5c0" d="M200 500h100v100H200z"/><path fill="#babbb6" d="M300 500h100v100H300z"/><path fill="#b1b4b2" d="M400 500h100v100H400z"/><path fill="#a0a4a7" d="M500 500h100v100H500z"/><path fill="#9ca0a0" d="M600 500h100v100H600z"/><path fill="#838484" d="M700 500h100v100H700z"/></svg>