<svg xmlns="http://www.w3.org/2000/svg" viewBox="0 0 800 600"><defs/><path fill="#fdfdfd" d="M0 0h100v100H0z"/><path fill="#f7f7f7" d="M100 0h100v100H100z"/><path fill="#f2f2f2" d="M200 0h100v100H200z"/><path fill="#fafafa" d="M300 0h100v100H300z"/><path fill="#f8f8f8" d="M400 0h100v100H400z"/><path fill="#fafafa" d="M500 0h100v100H500zm100 0h100v100H600z"/><path fill="#f7f7f7" d="M700 0h100v100H700z"/><path fill="#d8d8d8" d="M0 100h100v100H0z"/><path fill="#cbcbcb" d="M100 100h100v100H100z"/><path fill="#c1c1c1" d="M200 100h100v100H200z"/><path fill="#bdbdbd" d="M300 100h100v100H300z"/><path fill="#bcbcbc" d="M400 100h100v100H400z"/><path fill="#e4e4e4" d="M500 100h100v100H500z"/><path fill="#dedede" d="M600 100h100v100H600z"/><path fill="#d6d6d6" d="M700 100h100v100H700z"/><path fill="#b2b2b2" d="M0 200h100v100H0z"/><path fill="silver" d="M100 200h100v100H100z"/><path fill="#a5a5a5" d="M200 200h100v100H200z"/><path fill="#9c9c9c" d="M300 200h100v100H300z"/><path fill="#aaa" d="M400 200h100v100H400z"/><path fill="#c4c4c4" d="M500 200h100v100H500z"/><path fill="#a9a9a9" d="M600 200h100v100H600z"/><path fill="#d7d7d7" d="M700 200h100v100H700z"/><path fill="#e7e7e7" d="M0 300h100v100H0z"/><path fill="#bfbfbf" d="M100 300h100v100H100z"/><path fill="#a6a6a6" d="M200 300h100v100H200z"/><path fill="#ababab" d="M300 300h100v100H300z"/><path fill="#999" d="M400 300h100v100H400z"/><path fill="#aeaeae" d="M500 300h100v100H500z"/><path fill="#a5a5a5" d="M600 300h100v100H600z"/><path fill="#b1b1b1" d="M700 300h100v100H700z"/><path fill="#ddd" d="M0 400h100v100H0z"/><path fill="#c9c9c9" d="M100 400h100v100H100z"/><path fill="#bcbcbc" d="M200 400h100v100H200z"/><path fill="#ccc" d="M300 400h100v100H300z"/><path fill="#b4b4b4" d="M400 400h100v100H400z"/><path fill="#818181" d="M500 400h100v100H500z"/><path fill="#484848" d="M600 400h100v100H600z"/><path fill="#aaa" d="M700 400h100v100H700z"/><path fill="#eee" d="M0 500h100v100H0z"/><path fill="#f1f1f1" d="M100 500h100v100H100zm100 0h100v100H200z"/><path fill="#f6f6f6" d="M300 500h100v100H300z"/><path fill="#f2f2f2" d="M400 500h100v100H400z"/><path fill="#ddd" d="M500 500h100v100H500z"/><path fill="#d0d0d0" d="M600 500h100v100H600z"/><path fill="#e5e5e5" d="M700 500h100v100H700z"/></svg>