<svg xmlns="http://www.w3.org/2000/svg" viewBox="0 0 800 500"><defs/><path fill="#65538a" d="M0 0h100v100H0z"/><path fill="#714481" d="M100 0h100v100H100z"/><path fill="#704884" d="M200 0h100v100H200z"/><path fill="#5c3979" d="M300 0h100v100H300z"/><path fill="#9d97ba" d="M400 0h100v100H400z"/><path fill="#fff" d="M500 0h100v100H500z"/><path fill="#fcfcfd" d="M600 0h100v100H600z"/><path fill="#fff" d="M700 0h100v100H700z"/><path fill="#4f3577" d="M0 100h100v100H0z"/><path fill="#733178" d="M100 100h100v100H100z"/><path fill="#7a3e7f" d="M200 100h100v100H200z"/><path fill="#632c6f" d="M300 100h100v100H300z"/><path fill="#8a83ad" d="M400 100h100v100H400z"/><path fill="#eef0fa" d="M500 100h100v100H500z"/><path fill="#d2d2e7" d="M600 100h100v100H600z"/><path fill="#eaeaf5" d="M700 100h100v100H700z"/><path fill="#2b3765" d="M0 200h100v100H0z"/><path fill="#14343d" d="M100 200h100v100H100z"/><path fill="#203a4b" d="M200 200h100v100H200z"/><path fill="#000d48" d="M300 200h100v100H300z"/><path fill="#7878a7" d="M400 200h100v100H400z"/><path fill="#b4b4d7" d="M500 200h100v100H500z"/><path fill="#8282b8" d="M600 200h100v100H600z"/><path fill="#bcbcdb" d="M700 200h100v100H700z"/><path fill="#242867" d="M0 300h100v100H0z"/><path fill="#2e3a70" d="M100 300h100v100H100z"/><path fill="#343f7d" d="M200 300h100v100H200z"/><path fill="#0e155e" d="M300 300h100v100H300z"/><path fill="#7475a2" d="M400 300h100v100H400z"/><path fill="#e5e5f9" d="M500 300h100v100H500z"/><path fill="#a6a6d9" d="M600 300h100v100H600z"/><path fill="#d8d8f1" d="M700 300h100v100H700z"/><path fill="#3c3a81" d="M0 400h100v100H0z"/><path fill="#2c2882" d="M100 400h100v100H100z"/><path fill="#36338e" d="M200 400h100v100H200z"/><path fill="#151271" d="M300 400h100v100H300z"/><path fill="#8b8bb2" d="M400 400h100v100H400z"/><path fill="#fff" d="M500 400h100v100H500z"/><path fill="#fcfcfd" d="M600 400h100v100H600z"/><path fill="#fff" d="M700 400h100v100H700z"/></svg>