<svg xmlns="http://www.w3.org/2000/svg" viewBox="0 0 800 500"><defs/><path fill="#dfe5f3" d="M0 0h100v100H0z"/><path fill="#dddcd6" d="M100 0h100v100H100z"/><path fill="#dfe9f2" d="M200 0h100v100H200z"/><path fill="#e3ebf5" d="M300 0h100v100H300z"/><path fill="#e6f2fd" d="M400 0h100v100H400z"/><path fill="#e6f0f7" d="M500 0h100v100H500z"/><path fill="#e8ebf0" d="M600 0h100v100H600z"/><path fill="#e7edf4" d="M700 0h100v100H700z"/><path fill="#f3f3e9" d="M0 100h100v100H0z"/><path fill="#eddea8" d="M100 100h100v100H100z"/><path fill="#cdb6b0" d="M200 100h100v100H200z"/><path fill="#b9988a" d="M300 100h100v100H300z"/><path fill="#c8a5a7" d="M400 100h100v100H400z"/><path fill="#baa394" d="M500 100h100v100H500z"/><path fill="#ebe7e1" d="M600 100h100v100H600z"/><path fill="#f8fbfa" d="M700 100h100v100H700z"/><path fill="#f1ead2" d="M0 200h100v100H0z"/><path fill="#e8d7b0" d="M100 200h100v100H100z"/><path fill="#9d5569" d="M200 200h100v100H200z"/><path fill="#8c2236" d="M300 200h100v100H300z"/><path fill="#842733" d="M400 200h100v100H400z"/><path fill="#9a3c51" d="M500 200h100v100H500z"/><path fill="#e9cfe8" d="M600 200h100v100H600z"/><path fill="#f7f3fc" d="M700 200h100v100H700z"/><path fill="#eddec2" d="M0 300h100v100H0z"/><path fill="#e7d596" d="M100 300h100v100H100z"/><path fill="#e6bb5e" d="M200 300h100v100H200z"/><path fill="#e1bb4d" d="M300 300h100v100H300z"/><path fill="#e2b050" d="M400 300h100v100H400z"/><path fill="#d9b458" d="M500 300h100v100H500z"/><path fill="#ecbb7f" d="M600 300h100v100H600z"/><path fill="#f3cdd3" d="M700 300h100v100H700z"/><path fill="#ebebe4" d="M0 400h100v100H0z"/><path fill="#efe9c6" d="M100 400h100v100H100z"/><path fill="#f5f2a4" d="M200 400h100v100H200z"/><path fill="#e5e6a6" d="M300 400h100v100H300z"/><path fill="#f4e4a8" d="M400 400h100v100H400z"/><path fill="#f8f2a6" d="M500 400h100v100H500z"/><path fill="#f6eba8" d="M600 400h100v100H600z"/><path fill="#f3f8cf" d="M700 400h100v100H700z"/></svg>