<svg xmlns="http://www.w3.org/2000/svg" viewBox="0 0 800 500"><defs/><path fill="#e4c2aa" d="M0 0h100v100H0z"/><path fill="#c29783" d="M100 0h100v100H100z"/><path fill="#c3aa97" d="M200 0h100v100H200z"/><path fill="#c9bbac" d="M300 0h100v100H300z"/><path fill="#cab19a" d="M400 0h100v100H400z"/><path fill="#dfb59c" d="M500 0h100v100H500z"/><path fill="#d69881" d="M600 0h100v100H600z"/><path fill="#af7c6c" d="M700 0h100v100H700z"/><path fill="#cf9f81" d="M0 100h100v100H0z"/><path fill="#8f593a" d="M100 100h100v100H100z"/><path fill="#998672" d="M200 100h100v100H200z"/><path fill="#a3a7a3" d="M300 100h100v100H300z"/><path fill="#a18466" d="M400 100h100v100H400z"/><path fill="#c98162" d="M500 100h100v100H500z"/><path fill="#d08154" d="M600 100h100v100H600z"/><path fill="#ac6847" d="M700 100h100v100H700z"/><path fill="#bc9684" d="M0 200h100v100H0z"/><path fill="#90604b" d="M100 200h100v100H100z"/><path fill="#a3886f" d="M200 200h100v100H200z"/><path fill="#baa28a" d="M300 200h100v100H300z"/><path fill="#ad8f6f" d="M400 200h100v100H400z"/><path fill="#a16659" d="M500 200h100v100H500z"/><path fill="#986f5d" d="M600 200h100v100H600z"/><path fill="#ac7c63" d="M700 200h100v100H700z"/><path fill="#b08573" d="M0 300h100v100H0z"/><path fill="#8e5942" d="M100 300h100v100H100z"/><path fill="#936848" d="M200 300h100v100H200z"/><path fill="#966c62" d="M300 300h100v100H300z"/><path fill="#986b5c" d="M400 300h100v100H400z"/><path fill="#946248" d="M500 300h100v100H500z"/><path fill="#754737" d="M600 300h100v100H600z"/><path fill="#765a51" d="M700 300h100v100H700z"/><path fill="#c09688" d="M0 400h100v100H0z"/><path fill="#ab7966" d="M100 400h100v100H100z"/><path fill="#c08d72" d="M200 400h100v100H200z"/><path fill="#987469" d="M300 400h100v100H300z"/><path fill="#8b6778" d="M400 400h100v100H400z"/><path fill="#a27770" d="M500 400h100v100H500z"/><path fill="#b2886e" d="M600 400h100v100H600z"/><path fill="#937b67" d="M700 400h100v100H700z"/></svg>