<svg xmlns="http://www.w3.org/2000/svg" viewBox="0 0 800 400"><defs/><path fill="#e1d2b7" d="M0 0h100v100H0z"/><path fill="#b58e7d" d="M100 0h100v100H100z"/><path fill="#bda7ac" d="M200 0h100v100H200z"/><path fill="#bac5c9" d="M300 0h100v100H300z"/><path fill="#d1aeb1" d="M400 0h100v100H400z"/><path fill="#60a4cb" d="M500 0h100v100H500z"/><path fill="#9996a7" d="M600 0h100v100H600z"/><path fill="#d4918b" d="M700 0h100v100H700z"/><path fill="#d6c5b9" d="M0 100h100v100H0z"/><path fill="#a56151" d="M100 100h100v100H100z"/><path fill="#bdaebf" d="M200 100h100v100H200z"/><path fill="#b8d9e2" d="M300 100h100v100H300z"/><path fill="#bf9fad" d="M400 100h100v100H400z"/><path fill="#0b76d2" d="M500 100h100v100H500z"/><path fill="#5b447b" d="M600 100h100v100H600z"/><path fill="#ab494d" d="M700 100h100v100H700z"/><path fill="#c7b8af" d="M0 200h100v100H0z"/><path fill="#985c54" d="M100 200h100v100H100z"/><path fill="#efbcbf" d="M200 200h100v100H200z"/><path fill="#f2c0c1" d="M300 200h100v100H300z"/><path fill="#d58f6b" d="M400 200h100v100H400z"/><path fill="#649492" d="M500 200h100v100H500z"/><path fill="#a3a278" d="M600 200h100v100H600z"/><path fill="#978667" d="M700 200h100v100H700z"/><path fill="#c4b4a2" d="M0 300h100v100H0z"/><path fill="#c1a446" d="M100 300h100v100H100z"/><path fill="#d2bd4b" d="M200 300h100v100H200z"/><path fill="#c4a646" d="M300 300h100v100H300z"/><path fill="#9f8f28" d="M400 300h100v100H400z"/><path fill="#86611d" d="M500 300h100v100H500z"/><path fill="#907416" d="M600 300h100v100H600z"/><path fill="#9b7b26" d="M700 300h100v100H700z"/></svg>