<svg xmlns="http://www.w3.org/2000/svg" viewBox="0 0 800 1100"><defs/><path fill="#696f70" d="M0 0h100v100H0z"/><path fill="#717474" d="M100 0h100v100H100z"/><path fill="#888987" d="M200 0h100v100H200z"/><path fill="#92918f" d="M300 0h100v100H300z"/><path fill="#95908c" d="M400 0h100v100H400z"/><path fill="#958f89" d="M500 0h100v100H500z"/><path fill="#84817e" d="M600 0h100v100H600z"/><path fill="#797875" d="M700 0h100v100H700z"/><path fill="#636c6f" d="M0 100h100v100H0z"/><path fill="#76797a" d="M100 100h100v100H100z"/><path fill="gray" d="M200 100h100v100H200z"/><path fill="#928a85" d="M300 100h100v100H300z"/><path fill="#999593" d="M400 100h100v100H400z"/><path fill="#888481" d="M500 100h100v100H500z"/><path fill="#5f5f61" d="M600 100h100v100H600z"/><path fill="#55585b" d="M700 100h100v100H700z"/><path fill="#70706e" d="M0 200h100v100H0z"/><path fill="#7f7e7c" d="M100 200h100v100H100z"/><path fill="#898786" d="M200 200h100v100H200z"/><path fill="#848385" d="M300 200h100v100H300z"/><path fill="#989393" d="M400 200h100v100H400z"/><path fill="#8d8a8c" d="M500 200h100v100H500z"/><path fill="#737172" d="M600 200h100v100H600z"/><path fill="#7b7977" d="M700 200h100v100H700z"/><path fill="#746f68" d="M0 300h100v100H0z"/><path fill="#84817f" d="M100 300h100v100H100z"/><path fill="#8d8885" d="M200 300h100v100H200z"/><path fill="#8b898a" d="M300 300h100v100H300z"/><path fill="#8e8b8c" d="M400 300h100v100H400z"/><path fill="#8d8a8d" d="M500 300h100v100H500z"/><path fill="#878080" d="M600 300h100v100H600z"/><path fill="#7f7b7a" d="M700 300h100v100H700z"/><path fill="#6b6864" d="M0 400h100v100H0z"/><path fill="#7e8082" d="M100 400h100v100H100z"/><path fill="#96928f" d="M200 400h100v100H200z"/><path fill="#929090" d="M300 400h100v100H300z"/><path fill="#a09b9c" d="M400 400h100v100H400z"/><path fill="#a29a9a" d="M500 400h100v100H500z"/><path fill="#7c787a" d="M600 400h100v100H600z"/><path fill="#6b6c71" d="M700 400h100v100H700z"/><path fill="#605d5b" d="M0 500h100v100H0z"/><path fill="#717578" d="M100 500h100v100H100z"/><path fill="#868585" d="M200 500h100v100H200z"/><path fill="#9f9998" d="M300 500h100v100H300z"/><path fill="#8d8887" d="M400 500h100v100H400z"/><path fill="#827c7c" d="M500 500h100v100H500z"/><path fill="#75757a" d="M600 500h100v100H600z"/><path fill="#63666b" d="M700 500h100v100H700z"/><path fill="#41403e" d="M0 600h100v100H0z"/><path fill="#535557" d="M100 600h100v100H100z"/><path fill="#57595b" d="M200 600h100v100H200z"/><path fill="#75706e" d="M300 600h100v100H300z"/><path fill="#807a79" d="M400 600h100v100H400z"/><path fill="#656061" d="M500 600h100v100H500z"/><path fill="#4e5359" d="M600 600h100v100H600z"/><path fill="#6a6969" d="M700 600h100v100H700z"/><path fill="#454645" d="M0 700h100v100H0z"/><path fill="#474e55" d="M100 700h100v100H100z"/><path fill="#41484e" d="M200 700h100v100H200z"/><path fill="#464544" d="M300 700h100v100H300z"/><path fill="#686363" d="M400 700h100v100H400z"/><path fill="#656060" d="M500 700h100v100H500z"/><path fill="#444547" d="M600 700h100v100H600z"/><path fill="#5a5654" d="M700 700h100v100H700z"/><path fill="#404141" d="M0 800h100v100H0z"/><path fill="#5e5f61" d="M100 800h100v100H100z"/><path fill="#44403d" d="M200 800h100v100H200z"/><path fill="#3f3c3b" d="M300 800h100v100H300z"/><path fill="#444547" d="M400 800h100v100H400z"/><path fill="#383330" d="M500 800h100v100H500z"/><path fill="#201e1e" d="M600 800h100v100H600z"/><path fill="#312d2a" d="M700 800h100v100H700z"/><path fill="#474341" d="M0 900h100v100H0z"/><path fill="#6f6965" d="M100 900h100v100H100z"/><path fill="#343130" d="M200 900h100v100H200z"/><path fill="#262220" d="M300 900h100v100H300z"/><path fill="#24201d" d="M400 900h100v100H400z"/><path fill="#161311" d="M500 900h100v100H500z"/><path fill="#0d0d0c" d="M600 900h100v100H600z"/><path fill="#201d1a" d="M700 900h100v100H700z"/><path fill="#5d5955" d="M0 1000h100v100H0z"/><path fill="#585859" d="M100 1000h100v100H100z"/><path fill="#252524" d="M200 1000h100v100H200z"/><path fill="#0f0e0d" d="M300 1000h100v100H300z"/><path fill="#0d0c0b" d="M400 1000h100v100H400z"/><path fill="#0c0b0b" d="M500 1000h100v100H500z"/><path fill="#080808" d="M600 1000h100v100H600z"/><path fill="#191919" d="M700 1000h100v100H700z"/></svg>