<svg xmlns="http://www.w3.org/2000/svg" viewBox="0 0 800 600"><defs/><path fill="#f7f0f0" d="M0 0h100v100H0z"/><path fill="#f3e6e2" d="M100 0h100v100H100z"/><path fill="#ede9ec" d="M200 0h100v100H200z"/><path fill="#f2ebec" d="M300 0h100v100H300z"/><path fill="#f2eaeb" d="M400 0h100v100H400z"/><path fill="#f6eeee" d="M500 0h100v100H500z"/><path fill="#f1e9ea" d="M600 0h100v100H600z"/><path fill="#f7f2f3" d="M700 0h100v100H700z"/><path fill="#dec2bf" d="M0 100h100v100H0z"/><path fill="#d7b8af" d="M100 100h100v100H100z"/><path fill="#bcabb1" d="M200 100h100v100H200z"/><path fill="#cbb4ba" d="M300 100h100v100H300z"/><path fill="#e0c9cd" d="M400 100h100v100H400z"/><path fill="#d6bdbe" d="M500 100h100v100H500z"/><path fill="#ddcbcd" d="M600 100h100v100H600z"/><path fill="#e4dce0" d="M700 100h100v100H700z"/><path fill="#e0c7c1" d="M0 200h100v100H0z"/><path fill="#caa7a2" d="M100 200h100v100H100z"/><path fill="#c8a0a8" d="M200 200h100v100H200z"/><path fill="#cdafb2" d="M300 200h100v100H300z"/><path fill="#c8b1b6" d="M400 200h100v100H400z"/><path fill="#cba8ac" d="M500 200h100v100H500z"/><path fill="#d7c7c9" d="M600 200h100v100H600z"/><path fill="#e7e8ea" d="M700 200h100v100H700z"/><path fill="#e2c7c2" d="M0 300h100v100H0z"/><path fill="#c49f99" d="M100 300h100v100H100z"/><path fill="#9b7486" d="M200 300h100v100H200z"/><path fill="#b48f9a" d="M300 300h100v100H300z"/><path fill="#ae91a0" d="M400 300h100v100H400z"/><path fill="#dac2c8" d="M500 300h100v100H500z"/><path fill="#d3c0bc" d="M600 300h100v100H600z"/><path fill="#e3e3e4" d="M700 300h100v100H700z"/><path fill="#ddc7c1" d="M0 400h100v100H0z"/><path fill="#d5b5ad" d="M100 400h100v100H100z"/><path fill="#c0a4a7" d="M200 400h100v100H200z"/><path fill="#b6929d" d="M300 400h100v100H300z"/><path fill="#c0a2b0" d="M400 400h100v100H400z"/><path fill="#e3c5bd" d="M500 400h100v100H500z"/><path fill="#d0b1ac" d="M600 400h100v100H600z"/><path fill="#ded4d4" d="M700 400h100v100H700z"/><path fill="#f8f4f3" d="M0 500h100v100H0z"/><path fill="#faf2f0" d="M100 500h100v100H100z"/><path fill="#fdf4f1" d="M200 500h100v100H200z"/><path fill="#fcf6f2" d="M300 500h100v100H300z"/><path fill="#fdf7f3" d="M400 500h100v100H400z"/><path fill="#f7f0ed" d="M500 500h100v100H500z"/><path fill="#f8f1ef" d="M600 500h100v100H600z"/><path fill="#f9f6f5" d="M700 500h100v100H700z"/></svg>