<svg xmlns="http://www.w3.org/2000/svg" viewBox="0 0 800 400"><defs/><path fill="#596c8f" d="M0 0h100v100H0z"/><path fill="#506495" d="M100 0h100v100H100z"/><path fill="#6c7569" d="M200 0h100v100H200z"/><path fill="#5b7084" d="M300 0h100v100H300z"/><path fill="#5176cf" d="M400 0h100v100H400z"/><path fill="#5571a2" d="M500 0h100v100H500z"/><path fill="#68758b" d="M600 0h100v100H600z"/><path fill="#626eac" d="M700 0h100v100H700z"/><path fill="#526cba" d="M0 100h100v100H0z"/><path fill="#5b6ba3" d="M100 100h100v100H100z"/><path fill="#5c668f" d="M200 100h100v100H200z"/><path fill="#4d6ac6" d="M300 100h100v100H300z"/><path fill="#7f8fc5" d="M400 100h100v100H400z"/><path fill="#7485be" d="M500 100h100v100H500z"/><path fill="#717db8" d="M600 100h100v100H600z"/><path fill="#6d6f9e" d="M700 100h100v100H700z"/><path fill="#5e77ce" d="M0 200h100v100H0z"/><path fill="#5a66b9" d="M100 200h100v100H100z"/><path fill="#5d69b7" d="M200 200h100v100H200z"/><path fill="#798dce" d="M300 200h100v100H300z"/><path fill="#a8968b" d="M400 200h100v100H400z"/><path fill="#5f6baf" d="M500 200h100v100H500z"/><path fill="#6072bc" d="M600 200h100v100H600z"/><path fill="#7d768e" d="M700 200h100v100H700z"/><path fill="#4d63b5" d="M0 300h100v100H0z"/><path fill="#4d5fb3" d="M100 300h100v100H100z"/><path fill="#766683" d="M200 300h100v100H200z"/><path fill="#846470" d="M300 300h100v100H300z"/><path fill="#70464a" d="M400 300h100v100H400z"/><path fill="#635c8a" d="M500 300h100v100H500z"/><path fill="#66628d" d="M600 300h100v100H600z"/><path fill="#785756" d="M700 300h100v100H700z"/></svg>