<svg xmlns="http://www.w3.org/2000/svg" viewBox="0 0 800 400"><defs/><path fill="#052c49" d="M0 0h100v100H0z"/><path fill="#5c7a91" d="M100 0h100v100H100z"/><path fill="#5a8c93" d="M200 0h100v100H200z"/><path fill="#247987" d="M300 0h100v100H300z"/><path fill="#77a7b9" d="M400 0h100v100H400z"/><path fill="#9bb2be" d="M500 0h100v100H500z"/><path fill="#155273" d="M600 0h100v100H600z"/><path fill="#002b4b" d="M700 0h100v100H700z"/><path fill="#1c415c" d="M0 100h100v100H0z"/><path fill="#c9d1d8" d="M100 100h100v100H100z"/><path fill="#aac0c0" d="M200 100h100v100H200z"/><path fill="#1c626f" d="M300 100h100v100H300z"/><path fill="#58747a" d="M400 100h100v100H400z"/><path fill="#94a6ad" d="M500 100h100v100H500z"/><path fill="#2a617b" d="M600 100h100v100H600z"/><path fill="#002b48" d="M700 100h100v100H700z"/><path fill="#002a4c" d="M0 200h100v100H0z"/><path fill="#285d74" d="M100 200h100v100H100z"/><path fill="#084c6a" d="M200 200h100v100H200z"/><path fill="#02415a" d="M300 200h100v100H300z"/><path fill="#01415d" d="M400 200h100v100H400z"/><path fill="#005676" d="M500 200h100v100H500z"/><path fill="#08536f" d="M600 200h100v100H600z"/><path fill="#042a43" d="M700 200h100v100H700z"/><path fill="#0c3b5b" d="M0 300h100v100H0z"/><path fill="#1b4d6c" d="M100 300h100v100H100z"/><path fill="#004670" d="M200 300h100v100H200z"/><path fill="#064162" d="M300 300h100v100H300z"/><path fill="#06334f" d="M400 300h100v100H400z"/><path fill="#073651" d="M500 300h100v100H500z"/><path fill="#022f49" d="M600 300h100v100H600z"/><path fill="#022c47" d="M700 300h100v100H700z"/></svg>