<svg xmlns="http://www.w3.org/2000/svg" viewBox="0 0 800 400"><defs/><path fill="#b9b8c0" d="M0 0h100v100H0z"/><path fill="#a8a7af" d="M100 0h100v100H100z"/><path fill="#a9a7aa" d="M200 0h100v100H200z"/><path fill="#bdc0c8" d="M300 0h100v100H300z"/><path fill="#b3bcc8" d="M400 0h100v100H400z"/><path fill="#bfc3cc" d="M500 0h100v100H500z"/><path fill="#b4bcc6" d="M600 0h100v100H600z"/><path fill="#b9b4b8" d="M700 0h100v100H700z"/><path fill="#c0c0c9" d="M0 100h100v100H0z"/><path fill="#9d9aa1" d="M100 100h100v100H100z"/><path fill="#beb9bd" d="M200 100h100v100H200z"/><path fill="#c5c6d0" d="M300 100h100v100H300z"/><path fill="#c3c6cc" d="M400 100h100v100H400z"/><path fill="#b7b7bc" d="M500 100h100v100H500z"/><path fill="#a4a9b1" d="M600 100h100v100H600z"/><path fill="#979ca7" d="M700 100h100v100H700z"/><path fill="#c4c5ce" d="M0 200h100v100H0z"/><path fill="#adaaaf" d="M100 200h100v100H100z"/><path fill="#b0b2ad" d="M200 200h100v100H200z"/><path fill="#a1aca3" d="M300 200h100v100H300z"/><path fill="#d6c5c1" d="M400 200h100v100H400z"/><path fill="#a08d8d" d="M500 200h100v100H500z"/><path fill="#8f888a" d="M600 200h100v100H600z"/><path fill="#acafb6" d="M700 200h100v100H700z"/><path fill="#c5c3c9" d="M0 300h100v100H0z"/><path fill="#c0bbc0" d="M100 300h100v100H100z"/><path fill="#baa18c" d="M200 300h100v100H200z"/><path fill="#9f948d" d="M300 300h100v100H300z"/><path fill="#b9c2c3" d="M400 300h100v100H400z"/><path fill="#c1aba6" d="M500 300h100v100H500z"/><path fill="#d6bfb4" d="M600 300h100v100H600z"/><path fill="#e5d5cc" d="M700 300h100v100H700z"/></svg>