<svg xmlns="http://www.w3.org/2000/svg" viewBox="0 0 800 600"><defs/><path fill="#ece1ea" d="M0 0h100v100H0z"/><path fill="#ede8ed" d="M100 0h100v100H100z"/><path fill="#f5f7f6" d="M200 0h100v100H200z"/><path fill="#f6f4f5" d="M300 0h100v100H300z"/><path fill="#f5f5f5" d="M400 0h100v100H400z"/><path fill="#f8f7f6" d="M500 0h100v100H500z"/><path fill="#fdfcfd" d="M600 0h100v100H600z"/><path fill="#e5f7f7" d="M700 0h100v100H700z"/><path fill="#b093ae" d="M0 100h100v100H0z"/><path fill="#b6a0ad" d="M100 100h100v100H100z"/><path fill="#8ba4a8" d="M200 100h100v100H200z"/><path fill="#b5cbd0" d="M300 100h100v100H300z"/><path fill="#d6eaeb" d="M400 100h100v100H400z"/><path fill="#c5d8da" d="M500 100h100v100H500z"/><path fill="#c8ccc7" d="M600 100h100v100H600z"/><path fill="#54c8af" d="M700 100h100v100H700z"/><path fill="#baa4ba" d="M0 200h100v100H0z"/><path fill="#c8c2bf" d="M100 200h100v100H100z"/><path fill="#628a8f" d="M200 200h100v100H200z"/><path fill="#a7bcbc" d="M300 200h100v100H300z"/><path fill="#dae3e0" d="M400 200h100v100H400z"/><path fill="#6fb0a9" d="M500 200h100v100H500z"/><path fill="#545d52" d="M600 200h100v100H600z"/><path fill="#3f9782" d="M700 200h100v100H700z"/><path fill="#b191aa" d="M0 300h100v100H0z"/><path fill="#b2b4b8" d="M100 300h100v100H100z"/><path fill="#699299" d="M200 300h100v100H200z"/><path fill="#b3bec1" d="M300 300h100v100H300z"/><path fill="#cdc9cb" d="M400 300h100v100H400z"/><path fill="#aab2af" d="M500 300h100v100H500z"/><path fill="#a18a7d" d="M600 300h100v100H600z"/><path fill="#4a8984" d="M700 300h100v100H700z"/><path fill="#b2a2af" d="M0 400h100v100H0z"/><path fill="#b2b4b3" d="M100 400h100v100H100z"/><path fill="#f3f5f6" d="M200 400h100v100H200z"/><path fill="#cfdde4" d="M300 400h100v100H300z"/><path fill="#aaaeae" d="M400 400h100v100H400z"/><path fill="#94a2a9" d="M500 400h100v100H500z"/><path fill="#a5bbc7" d="M600 400h100v100H600z"/><path fill="#87b3ab" d="M700 400h100v100H700z"/><path fill="#f2f0f2" d="M0 500h100v100H0z"/><path fill="#f8faf8" d="M100 500h100v100H100z"/><path fill="#fdf2f4" d="M200 500h100v100H200z"/><path fill="#a3cdc6" d="M300 500h100v100H300z"/><path fill="#adcfce" d="M400 500h100v100H400z"/><path fill="#92b1bb" d="M500 500h100v100H500z"/><path fill="#aecad1" d="M600 500h100v100H600z"/><path fill="#e2e2d9" d="M700 500h100v100H700z"/></svg>