<svg xmlns="http://www.w3.org/2000/svg" viewBox="0 0 800 600"><defs/><path fill="#2c2725" d="M0 0h100v100H0z"/><path fill="#807a77" d="M100 0h100v100H100z"/><path fill="#7c7672" d="M200 0h100v100H200z"/><path fill="#79726e" d="M300 0h100v100H300z"/><path fill="#76726e" d="M400 0h100v100H400z"/><path fill="#736f6b" d="M500 0h100v100H500z"/><path fill="#6e6761" d="M600 0h100v100H600z"/><path fill="#676159" d="M700 0h100v100H700z"/><path fill="#272526" d="M0 100h100v100H0z"/><path fill="#6b6872" d="M100 100h100v100H100z"/><path fill="#93929c" d="M200 100h100v100H200z"/><path fill="#84838c" d="M300 100h100v100H300z"/><path fill="#796762" d="M400 100h100v100H400z"/><path fill="#745c54" d="M500 100h100v100H500z"/><path fill="#746a6d" d="M600 100h100v100H600z"/><path fill="#72727f" d="M700 100h100v100H700z"/><path fill="#777472" d="M0 200h100v100H0z"/><path fill="#6d6a6f" d="M100 200h100v100H100z"/><path fill="#a3a3ab" d="M200 200h100v100H200z"/><path fill="#929096" d="M300 200h100v100H300z"/><path fill="#7f542f" d="M400 200h100v100H400z"/><path fill="#743805" d="M500 200h100v100H500z"/><path fill="#7d6859" d="M600 200h100v100H600z"/><path fill="#7a7d87" d="M700 200h100v100H700z"/><path fill="#b7b6b4" d="M0 300h100v100H0z"/><path fill="#b1b0b8" d="M100 300h100v100H100z"/><path fill="#acafb7" d="M200 300h100v100H200z"/><path fill="#8999a7" d="M300 300h100v100H300z"/><path fill="#78736f" d="M400 300h100v100H400z"/><path fill="#736b63" d="M500 300h100v100H500z"/><path fill="#727a85" d="M600 300h100v100H600z"/><path fill="#7e8690" d="M700 300h100v100H700z"/><path fill="#d1d1cd" d="M0 400h100v100H0z"/><path fill="#ccced3" d="M100 400h100v100H100z"/><path fill="#b9c0ca" d="M200 400h100v100H200z"/><path fill="#a2b2c0" d="M300 400h100v100H300z"/><path fill="#98aabb" d="M400 400h100v100H400z"/><path fill="#93a6b9" d="M500 400h100v100H500z"/><path fill="#8798aa" d="M600 400h100v100H600z"/><path fill="#86909d" d="M700 400h100v100H700z"/><path fill="#f6f8f4" d="M0 500h100v100H0z"/><path fill="#f0f3f0" d="M100 500h100v100H100z"/><path fill="#e9eae4" d="M200 500h100v100H200z"/><path fill="#dddcd9" d="M300 500h100v100H300z"/><path fill="#cfcecb" d="M400 500h100v100H400z"/><path fill="#c2c0bd" d="M500 500h100v100H500z"/><path fill="#b5b7b4" d="M600 500h100v100H600z"/><path fill="#a3a6a3" d="M700 500h100v100H700z"/></svg>