<svg xmlns="http://www.w3.org/2000/svg" viewBox="0 0 800 700"><defs/><path fill="#191e17" d="M0 0h100v100H0z"/><path fill="#111c0e" d="M100 0h100v100H100z"/><path fill="#142310" d="M200 0h100v100H200z"/><path fill="#182316" d="M300 0h100v100H300z"/><path fill="#212b1d" d="M400 0h100v100H400z"/><path fill="#15200e" d="M500 0h100v100H500z"/><path fill="#0f160f" d="M600 0h100v100H600z"/><path fill="#1f1e29" d="M700 0h100v100H700z"/><path fill="#39433b" d="M0 100h100v100H0z"/><path fill="#485548" d="M100 100h100v100H100z"/><path fill="#5c665f" d="M200 100h100v100H200z"/><path fill="#646d67" d="M300 100h100v100H300z"/><path fill="#687276" d="M400 100h100v100H400z"/><path fill="#989fb3" d="M500 100h100v100H500z"/><path fill="#303c2b" d="M600 100h100v100H600z"/><path fill="#0a1505" d="M700 100h100v100H700z"/><path fill="#484f52" d="M0 200h100v100H0z"/><path fill="#5b6659" d="M100 200h100v100H100z"/><path fill="#5f6156" d="M200 200h100v100H200z"/><path fill="#888b8f" d="M300 200h100v100H300z"/><path fill="#91928b" d="M400 200h100v100H400z"/><path fill="#a9adb7" d="M500 200h100v100H500z"/><path fill="#959dae" d="M600 200h100v100H600z"/><path fill="#374439" d="M700 200h100v100H700z"/><path fill="#343f36" d="M0 300h100v100H0z"/><path fill="#a09ba5" d="M100 300h100v100H100z"/><path fill="#777c6f" d="M200 300h100v100H200z"/><path fill="#70726c" d="M300 300h100v100H300z"/><path fill="#636261" d="M400 300h100v100H400z"/><path fill="#676461" d="M500 300h100v100H500z"/><path fill="#6e6568" d="M600 300h100v100H600z"/><path fill="#707690" d="M700 300h100v100H700z"/><path fill="#222d23" d="M0 400h100v100H0z"/><path fill="#99959f" d="M100 400h100v100H100z"/><path fill="#88908b" d="M200 400h100v100H200z"/><path fill="#3a4435" d="M300 400h100v100H300z"/><path fill="#636b7e" d="M400 400h100v100H400z"/><path fill="#646468" d="M500 400h100v100H500z"/><path fill="#4f4a4e" d="M600 400h100v100H600z"/><path fill="#323b4a" d="M700 400h100v100H700z"/><path fill="#142313" d="M0 500h100v100H0z"/><path fill="#6b6a73" d="M100 500h100v100H100z"/><path fill="#79797a" d="M200 500h100v100H200z"/><path fill="#545454" d="M300 500h100v100H300z"/><path fill="#535260" d="M400 500h100v100H400z"/><path fill="#4c4e61" d="M500 500h100v100H500z"/><path fill="#4e5072" d="M600 500h100v100H600z"/><path fill="#253133" d="M700 500h100v100H700z"/><path fill="#10210d" d="M0 600h100v100H0z"/><path fill="#424557" d="M100 600h100v100H100z"/><path fill="#494969" d="M200 600h100v100H200z"/><path fill="#353758" d="M300 600h100v100H300z"/><path fill="#373a60" d="M400 600h100v100H400z"/><path fill="#3a3d67" d="M500 600h100v100H500z"/><path fill="#34385c" d="M600 600h100v100H600z"/><path fill="#152615" d="M700 600h100v100H700z"/></svg>