<svg xmlns="http://www.w3.org/2000/svg" viewBox="0 0 800 500"><defs/><path fill="#afaba0" d="M0 0h100v100H0z"/><path fill="#a59b8e" d="M100 0h100v100H100z"/><path fill="#9a8e83" d="M200 0h100v100H200z"/><path fill="#9b8d83" d="M300 0h100v100H300z"/><path fill="#a5a29b" d="M400 0h100v100H400z"/><path fill="#b8b3b2" d="M500 0h100v100H500z"/><path fill="#c1c2c7" d="M600 0h100v100H600z"/><path fill="#c7cbcf" d="M700 0h100v100H700z"/><path fill="#b6b4ac" d="M0 100h100v100H0z"/><path fill="#9b9183" d="M100 100h100v100H100z"/><path fill="#928076" d="M200 100h100v100H200z"/><path fill="#9c857a" d="M300 100h100v100H300z"/><path fill="#a5978d" d="M400 100h100v100H400z"/><path fill="#8f958f" d="M500 100h100v100H500z"/><path fill="#9aa5a1" d="M600 100h100v100H600z"/><path fill="#c8cbd1" d="M700 100h100v100H700z"/><path fill="#b9b8b3" d="M0 200h100v100H0z"/><path fill="#8c897d" d="M100 200h100v100H100z"/><path fill="#a19b91" d="M200 200h100v100H200z"/><path fill="#b9a099" d="M300 200h100v100H300z"/><path fill="#c2b9bc" d="M400 200h100v100H400z"/><path fill="#879f92" d="M500 200h100v100H500z"/><path fill="#799588" d="M600 200h100v100H600z"/><path fill="#bec0c8" d="M700 200h100v100H700z"/><path fill="#b1aca5" d="M0 300h100v100H0z"/><path fill="#98928d" d="M100 300h100v100H100z"/><path fill="#828080" d="M200 300h100v100H200z"/><path fill="#86736a" d="M300 300h100v100H300z"/><path fill="#946b56" d="M400 300h100v100H400z"/><path fill="#8e9393" d="M500 300h100v100H500z"/><path fill="#a9aca8" d="M600 300h100v100H600z"/><path fill="#b0b3b8" d="M700 300h100v100H700z"/><path fill="#b6b7b2" d="M0 400h100v100H0z"/><path fill="#a19e9c" d="M100 400h100v100H100z"/><path fill="#756a71" d="M200 400h100v100H200z"/><path fill="#888682" d="M300 400h100v100H300z"/><path fill="#7d7162" d="M400 400h100v100H400z"/><path fill="#969597" d="M500 400h100v100H500z"/><path fill="#a29992" d="M600 400h100v100H600z"/><path fill="#a5a1a0" d="M700 400h100v100H700z"/></svg>