<svg xmlns="http://www.w3.org/2000/svg" viewBox="0 0 800 400"><defs/><path fill="#a4b8c0" d="M0 0h100v100H0z"/><path fill="#7d8f9a" d="M100 0h100v100H100z"/><path fill="#939fa8" d="M200 0h100v100H200z"/><path fill="#a2adb7" d="M300 0h100v100H300z"/><path fill="#aab5b8" d="M400 0h100v100H400z"/><path fill="#c0c8c5" d="M500 0h100v100H500z"/><path fill="#999694" d="M600 0h100v100H600z"/><path fill="#8b6f66" d="M700 0h100v100H700z"/><path fill="#7d8b94" d="M0 100h100v100H0z"/><path fill="#58626f" d="M100 100h100v100H100z"/><path fill="#656a77" d="M200 100h100v100H200z"/><path fill="#725958" d="M300 100h100v100H300z"/><path fill="#997e78" d="M400 100h100v100H400z"/><path fill="#afabaa" d="M500 100h100v100H500z"/><path fill="#91817e" d="M600 100h100v100H600z"/><path fill="#7d4c40" d="M700 100h100v100H700z"/><path fill="#828f9c" d="M0 200h100v100H0z"/><path fill="#4b5360" d="M100 200h100v100H100z"/><path fill="#636974" d="M200 200h100v100H200z"/><path fill="#7e5147" d="M300 200h100v100H300z"/><path fill="#a87e76" d="M400 200h100v100H400z"/><path fill="#a99ea2" d="M500 200h100v100H500z"/><path fill="#9d989b" d="M600 200h100v100H600z"/><path fill="#73453b" d="M700 200h100v100H700z"/><path fill="#79899a" d="M0 300h100v100H0z"/><path fill="#4e5a6c" d="M100 300h100v100H100z"/><path fill="#7d818d" d="M200 300h100v100H200z"/><path fill="#9a959c" d="M300 300h100v100H300z"/><path fill="#ada8aa" d="M400 300h100v100H400z"/><path fill="#78747b" d="M500 300h100v100H500z"/><path fill="#757a86" d="M600 300h100v100H600z"/><path fill="#7c5e59" d="M700 300h100v100H700z"/></svg>