<svg xmlns="http://www.w3.org/2000/svg" viewBox="0 0 800 800"><defs/><path fill="#d0c8b9" d="M0 0h100v100H0z"/><path fill="#bec1b2" d="M100 0h100v100H100z"/><path fill="#c4c2b6" d="M200 0h100v100H200z"/><path fill="#d2c8c0" d="M300 0h100v100H300z"/><path fill="#cfc6c2" d="M400 0h100v100H400z"/><path fill="#bdbfbb" d="M500 0h100v100H500z"/><path fill="#98aead" d="M600 0h100v100H600z"/><path fill="#9aa09e" d="M700 0h100v100H700z"/><path fill="#c5c4b2" d="M0 100h100v100H0z"/><path fill="#8fa98e" d="M100 100h100v100H100z"/><path fill="#c9b89d" d="M200 100h100v100H200z"/><path fill="#ddbbac" d="M300 100h100v100H300z"/><path fill="#bea29f" d="M400 100h100v100H400z"/><path fill="#cac4c0" d="M500 100h100v100H500z"/><path fill="#82a598" d="M600 100h100v100H600z"/><path fill="#94a1a8" d="M700 100h100v100H700z"/><path fill="#cfcaba" d="M0 200h100v100H0z"/><path fill="#cfcabe" d="M100 200h100v100H100z"/><path fill="#d9cfc5" d="M200 200h100v100H200z"/><path fill="#76876c" d="M300 200h100v100H300z"/><path fill="#beb4ac" d="M400 200h100v100H400z"/><path fill="#bcc6b9" d="M500 200h100v100H500z"/><path fill="#7fa690" d="M600 200h100v100H600z"/><path fill="#8d9fa6" d="M700 200h100v100H700z"/><path fill="#ddd1c4" d="M0 300h100v100H0z"/><path fill="#d6cbbd" d="M100 300h100v100H100z"/><path fill="#c7b7a6" d="M200 300h100v100H200z"/><path fill="#859880" d="M300 300h100v100H300z"/><path fill="#b7c3c2" d="M400 300h100v100H400z"/><path fill="#8bb19b" d="M500 300h100v100H500z"/><path fill="#609477" d="M600 300h100v100H600z"/><path fill="#70908a" d="M700 300h100v100H700z"/><path fill="#e5d4c6" d="M0 400h100v100H0z"/><path fill="#e5c1ad" d="M100 400h100v100H100z"/><path fill="#eab39c" d="M200 400h100v100H200z"/><path fill="#f0b89e" d="M300 400h100v100H300z"/><path fill="#ecb390" d="M400 400h100v100H400z"/><path fill="#bbb593" d="M500 400h100v100H500z"/><path fill="#7d9781" d="M600 400h100v100H600z"/><path fill="#758c94" d="M700 400h100v100H700z"/><path fill="#e0d1c6" d="M0 500h100v100H0z"/><path fill="#deccbd" d="M100 500h100v100H100z"/><path fill="#d9bc89" d="M200 500h100v100H200z"/><path fill="#deb58b" d="M300 500h100v100H300z"/><path fill="#e0b79b" d="M400 500h100v100H400z"/><path fill="#cdb49e" d="M500 500h100v100H500z"/><path fill="#b0a29c" d="M600 500h100v100H600z"/><path fill="#98a0b1" d="M700 500h100v100H700z"/><path fill="#e8c8bd" d="M0 600h100v100H0z"/><path fill="#efc9ba" d="M100 600h100v100H100z"/><path fill="#cdc3a9" d="M200 600h100v100H200z"/><path fill="#b7aa9c" d="M300 600h100v100H300z"/><path fill="#dcd2cc" d="M400 600h100v100H400z"/><path fill="#bbb4b9" d="M500 600h100v100H500z"/><path fill="#9a8b8f" d="M600 600h100v100H600z"/><path fill="#989eb0" d="M700 600h100v100H700z"/><path fill="#e1afa0" d="M0 700h100v100H0z"/><path fill="#ebc5b7" d="M100 700h100v100H100z"/><path fill="#d8d5d8" d="M200 700h100v100H200z"/><path fill="#ccc8c2" d="M300 700h100v100H300z"/><path fill="#d3beae" d="M400 700h100v100H400z"/><path fill="#bda5b1" d="M500 700h100v100H500z"/><path fill="#9f8999" d="M600 700h100v100H600z"/><path fill="#9a9fae" d="M700 700h100v100H700z"/></svg>