<svg xmlns="http://www.w3.org/2000/svg" viewBox="0 0 800 500"><defs/><path fill="#623e1a" d="M0 0h100v100H0z"/><path fill="#6e5339" d="M100 0h100v100H100z"/><path fill="#6a5847" d="M200 0h100v100H200z"/><path fill="#735d49" d="M300 0h100v100H300z"/><path fill="#7d6952" d="M400 0h100v100H400z"/><path fill="#83725b" d="M500 0h100v100H500z"/><path fill="#968266" d="M600 0h100v100H600z"/><path fill="#a37b45" d="M700 0h100v100H700z"/><path fill="#5b3510" d="M0 100h100v100H0z"/><path fill="#83766a" d="M100 100h100v100H100z"/><path fill="#b6bfc6" d="M200 100h100v100H200z"/><path fill="#b0b7bc" d="M300 100h100v100H300z"/><path fill="#b9bec5" d="M400 100h100v100H400z"/><path fill="#bcc3cb" d="M500 100h100v100H500z"/><path fill="#bdc0c2" d="M600 100h100v100H600z"/><path fill="#a37d4c" d="M700 100h100v100H700z"/><path fill="#553310" d="M0 200h100v100H0z"/><path fill="#7d7165" d="M100 200h100v100H100z"/><path fill="#a5abb1" d="M200 200h100v100H200z"/><path fill="#9a9da0" d="M300 200h100v100H300z"/><path fill="#acafb3" d="M400 200h100v100H400z"/><path fill="#b6b9be" d="M500 200h100v100H500z"/><path fill="#b4b6b5" d="M600 200h100v100H600z"/><path fill="#a58555" d="M700 200h100v100H700z"/><path fill="#693b25" d="M0 300h100v100H0z"/><path fill="#8a7972" d="M100 300h100v100H100z"/><path fill="#a9b1b6" d="M200 300h100v100H200z"/><path fill="#909397" d="M300 300h100v100H300z"/><path fill="#95999d" d="M400 300h100v100H400z"/><path fill="#94989c" d="M500 300h100v100H500z"/><path fill="#a4a5a4" d="M600 300h100v100H600z"/><path fill="#a98b5d" d="M700 300h100v100H700z"/><path fill="#642513" d="M0 400h100v100H0z"/><path fill="#826b64" d="M100 400h100v100H100z"/><path fill="#abb2b5" d="M200 400h100v100H200z"/><path fill="#96999b" d="M300 400h100v100H300z"/><path fill="#9e9fa1" d="M400 400h100v100H400z"/><path fill="#959698" d="M500 400h100v100H500z"/><path fill="#92918e" d="M600 400h100v100H600z"/><path fill="#997647" d="M700 400h100v100H700z"/></svg>