<svg xmlns="http://www.w3.org/2000/svg" viewBox="0 0 800 400"><defs/><path fill="#cd61c1" d="M0 0h100v100H0z"/><path fill="#b76e90" d="M100 0h100v100H100z"/><path fill="#e154d6" d="M200 0h100v100H200z"/><path fill="#ec61e3" d="M300 0h100v100H300z"/><path fill="#de62ce" d="M400 0h100v100H400z"/><path fill="#ec52e5" d="M500 0h100v100H500z"/><path fill="#bd87db" d="M600 0h100v100H600z"/><path fill="#ca5bce" d="M700 0h100v100H700z"/><path fill="#b937a8" d="M0 100h100v100H0z"/><path fill="#8f3e66" d="M100 100h100v100H100z"/><path fill="#9f418c" d="M200 100h100v100H200z"/><path fill="#cfb1b0" d="M300 100h100v100H300z"/><path fill="#87564a" d="M400 100h100v100H400z"/><path fill="#b524b1" d="M500 100h100v100H500z"/><path fill="#a83ec2" d="M600 100h100v100H600z"/><path fill="#a02f92" d="M700 100h100v100H700z"/><path fill="#be3898" d="M0 200h100v100H0z"/><path fill="#8c6273" d="M100 200h100v100H100z"/><path fill="#a3abb1" d="M200 200h100v100H200z"/><path fill="#9fa69d" d="M300 200h100v100H300z"/><path fill="#647d67" d="M400 200h100v100H400z"/><path fill="#648193" d="M500 200h100v100H500z"/><path fill="#793c79" d="M600 200h100v100H600z"/><path fill="#961b83" d="M700 200h100v100H700z"/><path fill="#bc81a3" d="M0 300h100v100H0z"/><path fill="#aab5b6" d="M100 300h100v100H100z"/><path fill="#aab6b4" d="M200 300h100v100H200z"/><path fill="#99bea2" d="M300 300h100v100H300z"/><path fill="#8ea5b0" d="M400 300h100v100H400z"/><path fill="#87a3a3" d="M500 300h100v100H500z"/><path fill="#76a493" d="M600 300h100v100H600z"/><path fill="#a58bb2" d="M700 300h100v100H700z"/></svg>