<svg xmlns="http://www.w3.org/2000/svg" viewBox="0 0 800 800"><defs/><path fill="#afa398" d="M0 0h100v100H0z"/><path fill="#4f4742" d="M100 0h100v100H100z"/><path fill="#60554b" d="M200 0h100v100H200z"/><path fill="#665c50" d="M300 0h100v100H300z"/><path fill="#5f6256" d="M400 0h100v100H400z"/><path fill="#beb8af" d="M500 0h100v100H500z"/><path fill="#fdf8f0" d="M600 0h100v100H600z"/><path fill="#ece6da" d="M700 0h100v100H700z"/><path fill="#b1a8a1" d="M0 100h100v100H0z"/><path fill="#3a3430" d="M100 100h100v100H100z"/><path fill="#3e332b" d="M200 100h100v100H200z"/><path fill="#4a4338" d="M300 100h100v100H300z"/><path fill="#3d5046" d="M400 100h100v100H400z"/><path fill="#a7a094" d="M500 100h100v100H500z"/><path fill="#f7e5d4" d="M600 100h100v100H600z"/><path fill="#ddcbba" d="M700 100h100v100H700z"/><path fill="#b5aeac" d="M0 200h100v100H0z"/><path fill="#3d3637" d="M100 200h100v100H100z"/><path fill="#2a2123" d="M200 200h100v100H200z"/><path fill="#40302a" d="M300 200h100v100H300z"/><path fill="#373f3b" d="M400 200h100v100H400z"/><path fill="#5e544f" d="M500 200h100v100H500z"/><path fill="#bcac9c" d="M600 200h100v100H600z"/><path fill="#cfbcaa" d="M700 200h100v100H700z"/><path fill="#b1acaa" d="M0 300h100v100H0z"/><path fill="#463a3a" d="M100 300h100v100H100z"/><path fill="#3f2d29" d="M200 300h100v100H200z"/><path fill="#613a26" d="M300 300h100v100H300z"/><path fill="#3c2621" d="M400 300h100v100H400z"/><path fill="#4a362f" d="M500 300h100v100H500z"/><path fill="#9e8e7e" d="M600 300h100v100H600z"/><path fill="#c6b4a2" d="M700 300h100v100H700z"/><path fill="#b5b2b2" d="M0 400h100v100H0z"/><path fill="#493937" d="M100 400h100v100H100z"/><path fill="#73452e" d="M200 400h100v100H200z"/><path fill="#784b28" d="M300 400h100v100H300z"/><path fill="#23140f" d="M400 400h100v100H400z"/><path fill="#7f7167" d="M500 400h100v100H500z"/><path fill="#b1a491" d="M600 400h100v100H600z"/><path fill="#b5a493" d="M700 400h100v100H700z"/><path fill="#9a9792" d="M0 500h100v100H0z"/><path fill="#3e3731" d="M100 500h100v100H100z"/><path fill="#402f27" d="M200 500h100v100H200z"/><path fill="#4a3527" d="M300 500h100v100H300z"/><path fill="#252019" d="M400 500h100v100H400z"/><path fill="#857a6f" d="M500 500h100v100H500z"/><path fill="#b29386" d="M600 500h100v100H600z"/><path fill="#ab9989" d="M700 500h100v100H700z"/><path fill="#89857e" d="M0 600h100v100H0z"/><path fill="#322f2a" d="M100 600h100v100H100z"/><path fill="#070c0f" d="M200 600h100v100H200z"/><path fill="#242421" d="M300 600h100v100H300z"/><path fill="#433f35" d="M400 600h100v100H400z"/><path fill="#756d5e" d="M500 600h100v100H500z"/><path fill="#928472" d="M600 600h100v100H600z"/><path fill="#9f8e7c" d="M700 600h100v100H700z"/><path fill="#949699" d="M0 700h100v100H0z"/><path fill="#413e36" d="M100 700h100v100H100z"/><path fill="#272725" d="M200 700h100v100H200z"/><path fill="#333127" d="M300 700h100v100H300z"/><path fill="#302e24" d="M400 700h100v100H400z"/><path fill="#6b6352" d="M500 700h100v100H500z"/><path fill="#887e69" d="M600 700h100v100H600z"/><path fill="#857663" d="M700 700h100v100H700z"/></svg>