<svg xmlns="http://www.w3.org/2000/svg" viewBox="0 0 800 500"><defs/><path fill="#767165" d="M0 0h100v100H0z"/><path fill="#797873" d="M100 0h100v100H100z"/><path fill="#776469" d="M200 0h100v100H200z"/><path fill="#78656f" d="M300 0h100v100H300z"/><path fill="#9d888e" d="M400 0h100v100H400z"/><path fill="#817174" d="M500 0h100v100H500z"/><path fill="#7b7065" d="M600 0h100v100H600z"/><path fill="#9a9087" d="M700 0h100v100H700z"/><path fill="#514737" d="M0 100h100v100H0z"/><path fill="#474535" d="M100 100h100v100H100z"/><path fill="#635947" d="M200 100h100v100H200z"/><path fill="#645855" d="M300 100h100v100H300z"/><path fill="#74696a" d="M400 100h100v100H400z"/><path fill="#606054" d="M500 100h100v100H500z"/><path fill="#524833" d="M600 100h100v100H600z"/><path fill="#695852" d="M700 100h100v100H700z"/><path fill="#5f5241" d="M0 200h100v100H0z"/><path fill="#51442f" d="M100 200h100v100H100z"/><path fill="#595336" d="M200 200h100v100H200z"/><path fill="#725d51" d="M300 200h100v100H300z"/><path fill="#736242" d="M400 200h100v100H400z"/><path fill="#70524e" d="M500 200h100v100H500z"/><path fill="#583a3e" d="M600 200h100v100H600z"/><path fill="#6c5b62" d="M700 200h100v100H700z"/><path fill="#4b3c25" d="M0 300h100v100H0z"/><path fill="#2a1a04" d="M100 300h100v100H100z"/><path fill="#603c1f" d="M200 300h100v100H200z"/><path fill="#61462c" d="M300 300h100v100H300z"/><path fill="#612823" d="M400 300h100v100H400z"/><path fill="#5e1a2c" d="M500 300h100v100H500z"/><path fill="#351611" d="M600 300h100v100H600z"/><path fill="#555943" d="M700 300h100v100H700z"/><path fill="#98907e" d="M0 400h100v100H0z"/><path fill="#8c8778" d="M100 400h100v100H100z"/><path fill="#a19387" d="M200 400h100v100H200z"/><path fill="#9e8d73" d="M300 400h100v100H300z"/><path fill="#7f776e" d="M400 400h100v100H400z"/><path fill="#5a4849" d="M500 400h100v100H500z"/><path fill="#83796d" d="M600 400h100v100H600z"/><path fill="#7e8a6c" d="M700 400h100v100H700z"/></svg>