<svg xmlns="http://www.w3.org/2000/svg" viewBox="0 0 800 400"><defs/><path fill="#616466" d="M0 0h100v100H0z"/><path fill="#595d5e" d="M100 0h100v100H100z"/><path fill="#404140" d="M200 0h100v100H200z"/><path fill="#616364" d="M300 0h100v100H300z"/><path fill="#828082" d="M400 0h100v100H400z"/><path fill="#6b686a" d="M500 0h100v100H500z"/><path fill="#4e4d4e" d="M600 0h100v100H600z"/><path fill="#676567" d="M700 0h100v100H700z"/><path fill="#6f716f" d="M0 100h100v100H0z"/><path fill="#40413e" d="M100 100h100v100H100z"/><path fill="#2a2b2a" d="M200 100h100v100H200z"/><path fill="#2f3030" d="M300 100h100v100H300z"/><path fill="#747275" d="M400 100h100v100H400z"/><path fill="#8e8f94" d="M500 100h100v100H500z"/><path fill="#837c78" d="M600 100h100v100H600z"/><path fill="#6c6665" d="M700 100h100v100H700z"/><path fill="#676764" d="M0 200h100v100H0z"/><path fill="#4d4d4b" d="M100 200h100v100H100z"/><path fill="#4e494c" d="M200 200h100v100H200z"/><path fill="#616161" d="M300 200h100v100H300z"/><path fill="#9e9e9e" d="M400 200h100v100H400z"/><path fill="#807d7f" d="M500 200h100v100H500z"/><path fill="#585853" d="M600 200h100v100H600z"/><path fill="#71716c" d="M700 200h100v100H700z"/><path fill="#767774" d="M0 300h100v100H0z"/><path fill="#676967" d="M100 300h100v100H100z"/><path fill="#817f80" d="M200 300h100v100H200z"/><path fill="#78736f" d="M300 300h100v100H300z"/><path fill="#76706b" d="M400 300h100v100H400z"/><path fill="#5b514e" d="M500 300h100v100H500z"/><path fill="#464140" d="M600 300h100v100H600z"/><path fill="#4b4a4d" d="M700 300h100v100H700z"/></svg>