<svg xmlns="http://www.w3.org/2000/svg" viewBox="0 0 800 400"><defs/><path fill="#b2b3b5" d="M0 0h100v100H0z"/><path fill="#b89e95" d="M100 0h100v100H100z"/><path fill="#bbb2a0" d="M200 0h100v100H200z"/><path fill="#bcd5e9" d="M300 0h100v100H300z"/><path fill="#c0d6ea" d="M400 0h100v100H400z"/><path fill="#d2bca4" d="M500 0h100v100H500z"/><path fill="#dfd4a0" d="M600 0h100v100H600z"/><path fill="#ece3bd" d="M700 0h100v100H700z"/><path fill="#9d9d98" d="M0 100h100v100H0z"/><path fill="#ba8e88" d="M100 100h100v100H100z"/><path fill="#87816e" d="M200 100h100v100H200z"/><path fill="#8d9e97" d="M300 100h100v100H300z"/><path fill="#829a97" d="M400 100h100v100H400z"/><path fill="#ae9e88" d="M500 100h100v100H500z"/><path fill="#efad77" d="M600 100h100v100H600z"/><path fill="#fac49b" d="M700 100h100v100H700z"/><path fill="#bcb0b0" d="M0 200h100v100H0z"/><path fill="#936a65" d="M100 200h100v100H100z"/><path fill="#c68070" d="M200 200h100v100H200z"/><path fill="#cb976f" d="M300 200h100v100H300z"/><path fill="#ad876c" d="M400 200h100v100H400z"/><path fill="#e3c28f" d="M500 200h100v100H500z"/><path fill="#d09779" d="M600 200h100v100H600z"/><path fill="#cb8c6f" d="M700 200h100v100H700z"/><path fill="#ccaeb2" d="M0 300h100v100H0z"/><path fill="#cb93a1" d="M100 300h100v100H100z"/><path fill="#de8895" d="M200 300h100v100H200z"/><path fill="#de8d6e" d="M300 300h100v100H300z"/><path fill="#d6866f" d="M400 300h100v100H400z"/><path fill="#e9b698" d="M500 300h100v100H500z"/><path fill="#dabb96" d="M600 300h100v100H600z"/><path fill="#bd978d" d="M700 300h100v100H700z"/></svg>