<svg xmlns="http://www.w3.org/2000/svg" viewBox="0 0 800 600"><defs/><path fill="#84827c" d="M0 0h100v100H0z"/><path fill="#8c8984" d="M100 0h100v100H100z"/><path fill="#9a9692" d="M200 0h100v100H200z"/><path fill="#a6a19d" d="M300 0h100v100H300z"/><path fill="#a6a29b" d="M400 0h100v100H400z"/><path fill="#a39e94" d="M500 0h100v100H500z"/><path fill="#9d968b" d="M600 0h100v100H600z"/><path fill="#938d80" d="M700 0h100v100H700z"/><path fill="#8e8b86" d="M0 100h100v100H0z"/><path fill="#999791" d="M100 100h100v100H100z"/><path fill="#aca8a4" d="M200 100h100v100H200z"/><path fill="#b6b3ae" d="M300 100h100v100H300z"/><path fill="#b6b2ae" d="M400 100h100v100H400z"/><path fill="#b3aea7" d="M500 100h100v100H500z"/><path fill="#9e9a92" d="M600 100h100v100H600z"/><path fill="#8b887f" d="M700 100h100v100H700z"/><path fill="#95938e" d="M0 200h100v100H0z"/><path fill="#a2a09c" d="M100 200h100v100H100z"/><path fill="#b6b5b2" d="M200 200h100v100H200z"/><path fill="#bebebb" d="M300 200h100v100H300z"/><path fill="#bdbcb8" d="M400 200h100v100H400z"/><path fill="#bab6b2" d="M500 200h100v100H500z"/><path fill="#9c9892" d="M600 200h100v100H600z"/><path fill="#89867d" d="M700 200h100v100H700z"/><path fill="#989692" d="M0 300h100v100H0z"/><path fill="#a8a6a3" d="M100 300h100v100H100z"/><path fill="#b9b8b6" d="M200 300h100v100H200z"/><path fill="#c6c5c4" d="M300 300h100v100H300z"/><path fill="#c3c2bf" d="M400 300h100v100H400z"/><path fill="#b4b3ae" d="M500 300h100v100H500z"/><path fill="#a3a09a" d="M600 300h100v100H600z"/><path fill="#87857c" d="M700 300h100v100H700z"/><path fill="#979691" d="M0 400h100v100H0z"/><path fill="#a2a19d" d="M100 400h100v100H100z"/><path fill="#bbbab8" d="M200 400h100v100H200z"/><path fill="#a7a6a4" d="M300 400h100v100H300z"/><path fill="#b2b1ad" d="M400 400h100v100H400z"/><path fill="#bbbbb6" d="M500 400h100v100H500z"/><path fill="#9b9992" d="M600 400h100v100H600z"/><path fill="#8c8a80" d="M700 400h100v100H700z"/><path fill="#908f8b" d="M0 500h100v100H0z"/><path fill="#a19f9a" d="M100 500h100v100H100z"/><path fill="#b8b7b3" d="M200 500h100v100H200z"/><path fill="#5d5d58" d="M300 500h100v100H300z"/><path fill="#7d7c77" d="M400 500h100v100H400z"/><path fill="#bcbbb5" d="M500 500h100v100H500z"/><path fill="#9e9c94" d="M600 500h100v100H600z"/><path fill="#9b9a8e" d="M700 500h100v100H700z"/></svg>