<svg xmlns="http://www.w3.org/2000/svg" viewBox="0 0 800 500"><defs/><path fill="#f4f4f4" d="M0 0h100v100H0z"/><path fill="#acada9" d="M100 0h100v100H100z"/><path fill="#e4e3e3" d="M200 0h100v100H200z"/><path fill="#f7f7f6" d="M300 0h100v100H300z"/><path fill="#e8e8e1" d="M400 0h100v100H400z"/><path fill="#f3f4f4" d="M500 0h100v100H500z"/><path fill="#f4f4f4" d="M600 0h100v100H600z"/><path fill="#efefef" d="M700 0h100v100H700z"/><path fill="#e8e9e9" d="M0 100h100v100H0z"/><path fill="#7c7b76" d="M100 100h100v100H100z"/><path fill="#f5f5f6" d="M200 100h100v100H200z"/><path fill="#c1bbb6" d="M300 100h100v100H300z"/><path fill="#91857b" d="M400 100h100v100H400z"/><path fill="#e8e6e5" d="M500 100h100v100H500z"/><path fill="#fefffe" d="M600 100h100v100H600z"/><path fill="#eeeded" d="M700 100h100v100H700z"/><path fill="#d5d6d5" d="M0 200h100v100H0z"/><path fill="#81807c" d="M100 200h100v100H100z"/><path fill="#f9f8f9" d="M200 200h100v100H200z"/><path fill="#99928d" d="M300 200h100v100H300z"/><path fill="#7c7773" d="M400 200h100v100H400z"/><path fill="#dcdada" d="M500 200h100v100H500z"/><path fill="#b6bfb6" d="M600 200h100v100H600z"/><path fill="#dddfdd" d="M700 200h100v100H700z"/><path fill="#b6bbba" d="M0 300h100v100H0z"/><path fill="#5c4c41" d="M100 300h100v100H100z"/><path fill="#874c35" d="M200 300h100v100H200z"/><path fill="#7a4936" d="M300 300h100v100H300z"/><path fill="#7f5d52" d="M400 300h100v100H400z"/><path fill="#87513b" d="M500 300h100v100H500z"/><path fill="#74412b" d="M600 300h100v100H600z"/><path fill="#a49d99" d="M700 300h100v100H700z"/><path fill="#a7a19d" d="M0 400h100v100H0z"/><path fill="#8d6352" d="M100 400h100v100H100z"/><path fill="#a56f5b" d="M200 400h100v100H200z"/><path fill="#ab8e84" d="M300 400h100v100H300z"/><path fill="#a2857b" d="M400 400h100v100H400z"/><path fill="#a78175" d="M500 400h100v100H500z"/><path fill="#89503b" d="M600 400h100v100H600z"/><path fill="#8a6f65" d="M700 400h100v100H700z"/></svg>