<svg xmlns="http://www.w3.org/2000/svg" viewBox="0 0 800 400"><defs/><path fill="#443017" d="M0 0h100v100H0z"/><path fill="#593c22" d="M100 0h100v100H100z"/><path fill="#66472e" d="M200 0h100v100H200z"/><path fill="#684628" d="M300 0h100v100H300z"/><path fill="#5e3716" d="M400 0h100v100H400z"/><path fill="#663c23" d="M500 0h100v100H500z"/><path fill="#5a4332" d="M600 0h100v100H600z"/><path fill="#615e5a" d="M700 0h100v100H700z"/><path fill="#483219" d="M0 100h100v100H0z"/><path fill="#473326" d="M100 100h100v100H100z"/><path fill="#4e3c35" d="M200 100h100v100H200z"/><path fill="#654b3e" d="M300 100h100v100H300z"/><path fill="#73603d" d="M400 100h100v100H400z"/><path fill="#5e5e3a" d="M500 100h100v100H500z"/><path fill="#696240" d="M600 100h100v100H600z"/><path fill="#7d7261" d="M700 100h100v100H700z"/><path fill="#635136" d="M0 200h100v100H0z"/><path fill="#74706a" d="M100 200h100v100H100z"/><path fill="#83909e" d="M200 200h100v100H200z"/><path fill="#8f9590" d="M300 200h100v100H300z"/><path fill="#91aa97" d="M400 200h100v100H400z"/><path fill="#728b6a" d="M500 200h100v100H500z"/><path fill="#847349" d="M600 200h100v100H600z"/><path fill="#71654d" d="M700 200h100v100H700z"/><path fill="#5b594c" d="M0 300h100v100H0z"/><path fill="#758280" d="M100 300h100v100H100z"/><path fill="#98b2b2" d="M200 300h100v100H200z"/><path fill="#a3bfb7" d="M300 300h100v100H300z"/><path fill="#a6c9c0" d="M400 300h100v100H400z"/><path fill="#afbab1" d="M500 300h100v100H500z"/><path fill="#a5867b" d="M600 300h100v100H600z"/><path fill="#534547" d="M700 300h100v100H700z"/></svg>