<svg xmlns="http://www.w3.org/2000/svg" viewBox="0 0 800 400"><defs/><path fill="#caede9" d="M0 0h100v100H0z"/><path fill="#9eb2a2" d="M100 0h100v100H100z"/><path fill="#d6f6f3" d="M200 0h100v100H200z"/><path fill="#aceaf2" d="M300 0h100v100H300z"/><path fill="#8cf4f4" d="M400 0h100v100H400z"/><path fill="#e0f6e5" d="M500 0h100v100H500z"/><path fill="#f0eec5" d="M600 0h100v100H600z"/><path fill="#e0ebba" d="M700 0h100v100H700z"/><path fill="#cce5dc" d="M0 100h100v100H0z"/><path fill="#a1bbab" d="M100 100h100v100H100z"/><path fill="#6e675e" d="M200 100h100v100H200z"/><path fill="#85989f" d="M300 100h100v100H300z"/><path fill="#98debb" d="M400 100h100v100H400z"/><path fill="#ebe9be" d="M500 100h100v100H500z"/><path fill="#eee8b7" d="M600 100h100v100H600z"/><path fill="#d7e7b8" d="M700 100h100v100H700z"/><path fill="#a3b7a0" d="M0 200h100v100H0z"/><path fill="#a6a880" d="M100 200h100v100H100z"/><path fill="#6f5c37" d="M200 200h100v100H200z"/><path fill="#afb671" d="M300 200h100v100H300z"/><path fill="#cee38b" d="M400 200h100v100H400z"/><path fill="#e2eaab" d="M500 200h100v100H500z"/><path fill="#e3efb4" d="M600 200h100v100H600z"/><path fill="#e7f0bf" d="M700 200h100v100H700z"/><path fill="#77865b" d="M0 300h100v100H0z"/><path fill="#99b57b" d="M100 300h100v100H100z"/><path fill="#93b28f" d="M200 300h100v100H200z"/><path fill="#c6e18a" d="M300 300h100v100H300z"/><path fill="#cbe078" d="M400 300h100v100H400z"/><path fill="#c3f4a4" d="M500 300h100v100H500z"/><path fill="#bcfab0" d="M600 300h100v100H600z"/><path fill="#e6fdc2" d="M700 300h100v100H700z"/></svg>