<svg xmlns="http://www.w3.org/2000/svg" viewBox="0 0 800 600"><defs/><path fill="#191918" d="M0 0h100v100H0z"/><path fill="#212121" d="M100 0h100v100H100z"/><path fill="#131416" d="M200 0h100v100H200z"/><path fill="#0e1011" d="M300 0h100v100H300z"/><path fill="#151616" d="M400 0h100v100H400z"/><path fill="#1f2021" d="M500 0h100v100H500z"/><path fill="#0c0d0e" d="M600 0h100v100H600z"/><path fill="#070809" d="M700 0h100v100H700z"/><path fill="#a5a6a5" d="M0 100h100v100H0z"/><path fill="#cfd0cf" d="M100 100h100v100H100z"/><path fill="#949b9e" d="M200 100h100v100H200z"/><path fill="#a5aaa9" d="M300 100h100v100H300z"/><path fill="#a3a8a6" d="M400 100h100v100H400z"/><path fill="#899196" d="M500 100h100v100H500z"/><path fill="#8f9497" d="M600 100h100v100H600z"/><path fill="#303234" d="M700 100h100v100H700z"/><path fill="#a9a9a8" d="M0 200h100v100H0z"/><path fill="#d5d5d4" d="M100 200h100v100H100z"/><path fill="#bdc2bf" d="M200 200h100v100H200z"/><path fill="#a1a2a2" d="M300 200h100v100H300z"/><path fill="#676d72" d="M400 200h100v100H400z"/><path fill="#464b4f" d="M500 200h100v100H500z"/><path fill="#899094" d="M600 200h100v100H600z"/><path fill="#93999a" d="M700 200h100v100H700z"/><path fill="#a5a4a3" d="M0 300h100v100H0z"/><path fill="#cacdcd" d="M100 300h100v100H100z"/><path fill="#969ea4" d="M200 300h100v100H200z"/><path fill="#8f959a" d="M300 300h100v100H300z"/><path fill="#81868b" d="M400 300h100v100H400z"/><path fill="#979d9f" d="M500 300h100v100H500z"/><path fill="#888d92" d="M600 300h100v100H600z"/><path fill="#73767b" d="M700 300h100v100H700z"/><path fill="#adadab" d="M0 400h100v100H0z"/><path fill="#ccd2d2" d="M100 400h100v100H100z"/><path fill="#aeb7bb" d="M200 400h100v100H200z"/><path fill="#c2c9ca" d="M300 400h100v100H300z"/><path fill="#afb4b7" d="M400 400h100v100H400z"/><path fill="#787b7c" d="M500 400h100v100H500z"/><path fill="#595b61" d="M600 400h100v100H600z"/><path fill="#3b3740" d="M700 400h100v100H700z"/><path fill="#474747" d="M0 500h100v100H0z"/><path fill="#5a5c5c" d="M100 500h100v100H100z"/><path fill="#515454" d="M200 500h100v100H200z"/><path fill="#4c4f51" d="M300 500h100v100H300z"/><path fill="#2b2c2e" d="M400 500h100v100H400z"/><path fill="#0e0f10" d="M500 500h100v100H500z"/><path fill="#181a1a" d="M600 500h100v100H600z"/><path fill="#1e2020" d="M700 500h100v100H700z"/></svg>