<svg xmlns="http://www.w3.org/2000/svg" viewBox="0 0 800 500"><defs/><path fill="#f5f5f4" d="M0 0h100v100H0z"/><path fill="#e9e9e9" d="M100 0h100v100H100z"/><path fill="#f3f3f3" d="M200 0h100v100H200z"/><path fill="#fafafa" d="M300 0h100v100H300z"/><path fill="#f6f6f6" d="M400 0h100v100H400z"/><path fill="#f8f8f8" d="M500 0h100v100H500z"/><path fill="#f2f2f2" d="M600 0h100v100H600z"/><path fill="#f4f4f4" d="M700 0h100v100H700z"/><path fill="#eaeaea" d="M0 100h100v100H0z"/><path fill="#b3b3b3" d="M100 100h100v100H100z"/><path fill="#cbcbca" d="M200 100h100v100H200z"/><path fill="#9b9c9c" d="M300 100h100v100H300z"/><path fill="#605f5f" d="M400 100h100v100H400z"/><path fill="#a7a7a7" d="M500 100h100v100H500z"/><path fill="#bab9b9" d="M600 100h100v100H600z"/><path fill="#d0d0d0" d="M700 100h100v100H700z"/><path fill="#dfdfdf" d="M0 200h100v100H0z"/><path fill="#bdbdbd" d="M100 200h100v100H100z"/><path fill="#cfcbc8" d="M200 200h100v100H200z"/><path fill="#a5a6a5" d="M300 200h100v100H300z"/><path fill="#636262" d="M400 200h100v100H400z"/><path fill="#bab9ba" d="M500 200h100v100H500z"/><path fill="#dadada" d="M600 200h100v100H600z"/><path fill="#d5d5d5" d="M700 200h100v100H700z"/><path fill="#cbcbcb" d="M0 300h100v100H0z"/><path fill="#8e8e8e" d="M100 300h100v100H100z"/><path fill="#9d9c9d" d="M200 300h100v100H200z"/><path fill="#dbdbdb" d="M300 300h100v100H300z"/><path fill="#dadada" d="M400 300h100v100H400z"/><path fill="#c5c5c5" d="M500 300h100v100H500z"/><path fill="#9d9d9d" d="M600 300h100v100H600z"/><path fill="#cacaca" d="M700 300h100v100H700z"/><path fill="#cecece" d="M0 400h100v100H0z"/><path fill="#ababab" d="M100 400h100v100H100z"/><path fill="#bebebe" d="M200 400h100v100H200z"/><path fill="#f7f7f7" d="M300 400h100v100H300z"/><path fill="#f8f8f8" d="M400 400h100v100H400z"/><path fill="#eee" d="M500 400h100v100H500z"/><path fill="#b7b7b7" d="M600 400h100v100H600z"/><path fill="#bababa" d="M700 400h100v100H700z"/></svg>