<svg xmlns="http://www.w3.org/2000/svg" viewBox="0 0 800 400"><defs/><path fill="#4b1d25" d="M0 0h100v100H0z"/><path fill="#461d23" d="M100 0h100v100H100z"/><path fill="#4b1e27" d="M200 0h100v100H200z"/><path fill="#6c3637" d="M300 0h100v100H300z"/><path fill="#904e5d" d="M400 0h100v100H400z"/><path fill="#562735" d="M500 0h100v100H500z"/><path fill="#401721" d="M600 0h100v100H600z"/><path fill="#3d151c" d="M700 0h100v100H700z"/><path fill="#491c24" d="M0 100h100v100H0z"/><path fill="#411b20" d="M100 100h100v100H100z"/><path fill="#491d25" d="M200 100h100v100H200z"/><path fill="#6f3537" d="M300 100h100v100H300z"/><path fill="#98524f" d="M400 100h100v100H400z"/><path fill="#472322" d="M500 100h100v100H500z"/><path fill="#431c1e" d="M600 100h100v100H600z"/><path fill="#361518" d="M700 100h100v100H700z"/><path fill="#471c24" d="M0 200h100v100H0z"/><path fill="#38191c" d="M100 200h100v100H100z"/><path fill="#622c36" d="M200 200h100v100H200z"/><path fill="#5b2a34" d="M300 200h100v100H300z"/><path fill="#63373e" d="M400 200h100v100H400z"/><path fill="#67373a" d="M500 200h100v100H500z"/><path fill="#622b31" d="M600 200h100v100H600z"/><path fill="#371517" d="M700 200h100v100H700z"/><path fill="#3f191e" d="M0 300h100v100H0z"/><path fill="#4a2227" d="M100 300h100v100H100z"/><path fill="#642e38" d="M200 300h100v100H200z"/><path fill="#642d38" d="M300 300h100v100H300z"/><path fill="#6a333f" d="M400 300h100v100H400z"/><path fill="#7b3a4a" d="M500 300h100v100H500z"/><path fill="#6b313a" d="M600 300h100v100H600z"/><path fill="#431b1e" d="M700 300h100v100H700z"/></svg>