<svg xmlns="http://www.w3.org/2000/svg" viewBox="0 0 800 500"><defs/><path fill="#251f22" d="M0 0h100v100H0z"/><path fill="#2d1f24" d="M100 0h100v100H100z"/><path fill="#302325" d="M200 0h100v100H200z"/><path fill="#312426" d="M300 0h100v100H300z"/><path fill="#302327" d="M400 0h100v100H400z"/><path fill="#2e2226" d="M500 0h100v100H500z"/><path fill="#322429" d="M600 0h100v100H600z"/><path fill="#272023" d="M700 0h100v100H700z"/><path fill="#3c2b30" d="M0 100h100v100H0z"/><path fill="#4c252a" d="M100 100h100v100H100z"/><path fill="#866466" d="M200 100h100v100H200z"/><path fill="#917473" d="M300 100h100v100H300z"/><path fill="#4f282a" d="M400 100h100v100H400z"/><path fill="#62363a" d="M500 100h100v100H500z"/><path fill="#44282f" d="M600 100h100v100H600z"/><path fill="#422d33" d="M700 100h100v100H700z"/><path fill="#39292d" d="M0 200h100v100H0z"/><path fill="#4b2728" d="M100 200h100v100H100z"/><path fill="#8c6964" d="M200 200h100v100H200z"/><path fill="#866964" d="M300 200h100v100H300z"/><path fill="#371d24" d="M400 200h100v100H400z"/><path fill="#451f1c" d="M500 200h100v100H500z"/><path fill="#4a3c3e" d="M600 200h100v100H600z"/><path fill="#504145" d="M700 200h100v100H700z"/><path fill="#2f2126" d="M0 300h100v100H0z"/><path fill="#78453b" d="M100 300h100v100H100z"/><path fill="#be6954" d="M200 300h100v100H200z"/><path fill="#b96551" d="M300 300h100v100H300z"/><path fill="#5e4246" d="M400 300h100v100H400z"/><path fill="#693a38" d="M500 300h100v100H500z"/><path fill="#7a4d4c" d="M600 300h100v100H600z"/><path fill="#3b3136" d="M700 300h100v100H700z"/><path fill="#272121" d="M0 400h100v100H0z"/><path fill="#442f2a" d="M100 400h100v100H100z"/><path fill="#593a32" d="M200 400h100v100H200z"/><path fill="#674b35" d="M300 400h100v100H300z"/><path fill="#4b392c" d="M400 400h100v100H400z"/><path fill="#31282f" d="M500 400h100v100H500z"/><path fill="#2f2428" d="M600 400h100v100H600z"/><path fill="#241e1e" d="M700 400h100v100H700z"/></svg>