<svg xmlns="http://www.w3.org/2000/svg" viewBox="0 0 800 600"><defs/><path fill="#f1f2f1" d="M0 0h100v100H0z"/><path fill="#e9e7e5" d="M100 0h100v100H100z"/><path fill="#f3f2f2" d="M200 0h100v100H200z"/><path fill="#f6f5f2" d="M300 0h100v100H300z"/><path fill="#f7f4f4" d="M400 0h100v100H400z"/><path fill="#f7f5f8" d="M500 0h100v100H500z"/><path fill="#f3f3f1" d="M600 0h100v100H600z"/><path fill="#f8f7f5" d="M700 0h100v100H700z"/><path fill="#cbd4d4" d="M0 100h100v100H0z"/><path fill="#aba5a0" d="M100 100h100v100H100z"/><path fill="#b4bab8" d="M200 100h100v100H200z"/><path fill="#9bb3bc" d="M300 100h100v100H300z"/><path fill="#b0cac1" d="M400 100h100v100H400z"/><path fill="#b0c6ac" d="M500 100h100v100H500z"/><path fill="#d2d5d7" d="M600 100h100v100H600z"/><path fill="#bdb9b5" d="M700 100h100v100H700z"/><path fill="#b2b7b2" d="M0 200h100v100H0z"/><path fill="#aaa69f" d="M100 200h100v100H100z"/><path fill="#abb1ab" d="M200 200h100v100H200z"/><path fill="#829ba7" d="M300 200h100v100H300z"/><path fill="#bbc6bf" d="M400 200h100v100H400z"/><path fill="#b1bea8" d="M500 200h100v100H500z"/><path fill="#d7d8da" d="M600 200h100v100H600z"/><path fill="#b7b7b2" d="M700 200h100v100H700z"/><path fill="#bfc1be" d="M0 300h100v100H0z"/><path fill="#928d8a" d="M100 300h100v100H100z"/><path fill="#8c8982" d="M200 300h100v100H200z"/><path fill="#7c7d7a" d="M300 300h100v100H300z"/><path fill="#afafae" d="M400 300h100v100H400z"/><path fill="#b7babb" d="M500 300h100v100H500z"/><path fill="#b0aca4" d="M600 300h100v100H600z"/><path fill="#8d8885" d="M700 300h100v100H700z"/><path fill="#c1beba" d="M0 400h100v100H0z"/><path fill="#9c9282" d="M100 400h100v100H100z"/><path fill="#888379" d="M200 400h100v100H200z"/><path fill="#7c7f7f" d="M300 400h100v100H300z"/><path fill="#777977" d="M400 400h100v100H400z"/><path fill="#868e89" d="M500 400h100v100H500z"/><path fill="#aea695" d="M600 400h100v100H600z"/><path fill="#a19999" d="M700 400h100v100H700z"/><path fill="#f5f2ed" d="M0 500h100v100H0z"/><path fill="#f8f4ed" d="M100 500h100v100H100z"/><path fill="#f2f1ed" d="M200 500h100v100H200z"/><path fill="#f1efec" d="M300 500h100v100H300z"/><path fill="#efedea" d="M400 500h100v100H400z"/><path fill="#eeedeb" d="M500 500h100v100H500z"/><path fill="#f3f1ec" d="M600 500h100v100H600z"/><path fill="#f3f1ed" d="M700 500h100v100H700z"/></svg>