<svg xmlns="http://www.w3.org/2000/svg" viewBox="0 0 800 500"><defs/><path fill="#c1b8ad" d="M0 0h100v100H0z"/><path fill="#a79d8f" d="M100 0h100v100H100z"/><path fill="#9a968d" d="M200 0h100v100H200z"/><path fill="#a3978b" d="M300 0h100v100H300z"/><path fill="#a89d92" d="M400 0h100v100H400z"/><path fill="#b6ad9f" d="M500 0h100v100H500z"/><path fill="#d9cfba" d="M600 0h100v100H600z"/><path fill="#f1e6d5" d="M700 0h100v100H700z"/><path fill="#8b7863" d="M0 100h100v100H0z"/><path fill="#5c442a" d="M100 100h100v100H100z"/><path fill="#3f3525" d="M200 100h100v100H200z"/><path fill="#553d27" d="M300 100h100v100H300z"/><path fill="#5e4932" d="M400 100h100v100H400z"/><path fill="#725d48" d="M500 100h100v100H500z"/><path fill="#aa957a" d="M600 100h100v100H600z"/><path fill="#e3cab7" d="M700 100h100v100H700z"/><path fill="#978275" d="M0 200h100v100H0z"/><path fill="#735442" d="M100 200h100v100H100z"/><path fill="#453b35" d="M200 200h100v100H200z"/><path fill="#503d36" d="M300 200h100v100H300z"/><path fill="#7d6454" d="M400 200h100v100H400z"/><path fill="#7b6756" d="M500 200h100v100H500z"/><path fill="#957f6e" d="M600 200h100v100H600z"/><path fill="#cdb8a7" d="M700 200h100v100H700z"/><path fill="#958879" d="M0 300h100v100H0z"/><path fill="#66503a" d="M100 300h100v100H100z"/><path fill="#483f30" d="M200 300h100v100H200z"/><path fill="#484136" d="M300 300h100v100H300z"/><path fill="#615644" d="M400 300h100v100H400z"/><path fill="#695e4b" d="M500 300h100v100H500z"/><path fill="#826f53" d="M600 300h100v100H600z"/><path fill="#aa957f" d="M700 300h100v100H700z"/><path fill="#b6ada3" d="M0 400h100v100H0z"/><path fill="#96867a" d="M100 400h100v100H100z"/><path fill="#978c7a" d="M200 400h100v100H200z"/><path fill="#a19583" d="M300 400h100v100H300z"/><path fill="#a59d87" d="M400 400h100v100H400z"/><path fill="#a29a8a" d="M500 400h100v100H500z"/><path fill="#a59b8a" d="M600 400h100v100H600z"/><path fill="#bbad9f" d="M700 400h100v100H700z"/></svg>