<svg xmlns="http://www.w3.org/2000/svg" viewBox="0 0 800 500"><defs/><path fill="#ded7cf" d="M0 0h100v100H0z"/><path fill="#dcd6cd" d="M100 0h100v100H100z"/><path fill="#e3dfd7" d="M200 0h100v100H200z"/><path fill="#e9e6dd" d="M300 0h100v100H300z"/><path fill="#ebe4dc" d="M400 0h100v100H400z"/><path fill="#eae2da" d="M500 0h100v100H500z"/><path fill="#ece6e0" d="M600 0h100v100H600z"/><path fill="#efece1" d="M700 0h100v100H700z"/><path fill="#c1b598" d="M0 100h100v100H0z"/><path fill="#987d56" d="M100 100h100v100H100z"/><path fill="#bda49a" d="M200 100h100v100H200z"/><path fill="#d0b7a5" d="M300 100h100v100H300z"/><path fill="#c0b198" d="M400 100h100v100H400z"/><path fill="#b79e7e" d="M500 100h100v100H500z"/><path fill="#adac93" d="M600 100h100v100H600z"/><path fill="#b3bb63" d="M700 100h100v100H700z"/><path fill="#b4a584" d="M0 200h100v100H0z"/><path fill="#886540" d="M100 200h100v100H100z"/><path fill="#bc9f91" d="M200 200h100v100H200z"/><path fill="#b99c86" d="M300 200h100v100H300z"/><path fill="#b1a17b" d="M400 200h100v100H400z"/><path fill="#a68f69" d="M500 200h100v100H500z"/><path fill="#a6a490" d="M600 200h100v100H600z"/><path fill="#95954b" d="M700 200h100v100H700z"/><path fill="#9e8b69" d="M0 300h100v100H0z"/><path fill="#807259" d="M100 300h100v100H100z"/><path fill="#9da4a1" d="M200 300h100v100H200z"/><path fill="#a4977b" d="M300 300h100v100H300z"/><path fill="#a19b8c" d="M400 300h100v100H400z"/><path fill="#97967a" d="M500 300h100v100H500z"/><path fill="#aaa684" d="M600 300h100v100H600z"/><path fill="#bcb87f" d="M700 300h100v100H700z"/><path fill="#c3bbab" d="M0 400h100v100H0z"/><path fill="#c0bbb1" d="M100 400h100v100H100z"/><path fill="#b1b6ba" d="M200 400h100v100H200z"/><path fill="#b7b9b7" d="M300 400h100v100H300z"/><path fill="#b8bdc2" d="M400 400h100v100H400z"/><path fill="#c2c1b9" d="M500 400h100v100H500z"/><path fill="#c9c3af" d="M600 400h100v100H600z"/><path fill="#d8d2c4" d="M700 400h100v100H700z"/></svg>