<svg xmlns="http://www.w3.org/2000/svg" viewBox="0 0 800 1100"><defs/><path fill="#fff" d="M0 0h100v100H0z"/><path fill="#fffefe" d="M100 0h100v100H100z"/><path fill="#fff" d="M200 0h100v100H200z"/><path fill="#fffffe" d="M300 0h100v100H300z"/><path fill="#fff" d="M400 0h100v100H400zm100 0h100v100H500z"/><path fill="#fffffe" d="M600 0h100v100H600z"/><path fill="#fff" d="M700 0h100v100H700z"/><path fill="#fdffff" d="M0 100h100v100H0z"/><path fill="#f4fafb" d="M100 100h100v100H100z"/><path fill="#e5e8e9" d="M200 100h100v100H200z"/><path fill="#f9fbfb" d="M300 100h100v100H300z"/><path fill="#f6fcfe" d="M400 100h100v100H400z"/><path fill="#f6fcff" d="M500 100h100v100H500zm100 0h100v100H600z"/><path fill="#fafdfe" d="M700 100h100v100H700z"/><path fill="#f2f6f9" d="M0 200h100v100H0z"/><path fill="#d4d7d7" d="M100 200h100v100H100z"/><path fill="#bbbdbd" d="M200 200h100v100H200z"/><path fill="#cdd1d1" d="M300 200h100v100H300z"/><path fill="#f1fbfd" d="M400 200h100v100H400z"/><path fill="#eff4f7" d="M500 200h100v100H500z"/><path fill="#e8f0f3" d="M600 200h100v100H600z"/><path fill="#f2f9fd" d="M700 200h100v100H700z"/><path fill="#e8f1f5" d="M0 300h100v100H0z"/><path fill="#e8f1f4" d="M100 300h100v100H100z"/><path fill="#f3f8f8" d="M200 300h100v100H200z"/><path fill="#e7ebed" d="M300 300h100v100H300z"/><path fill="#cacccd" d="M400 300h100v100H400z"/><path fill="#dfe1e1" d="M500 300h100v100H500z"/><path fill="#eae9e7" d="M600 300h100v100H600z"/><path fill="#f0f7fa" d="M700 300h100v100H700zM0 400h100v100H0z"/><path fill="#e7ecef" d="M100 400h100v100H100z"/><path fill="#d6d5d2" d="M200 400h100v100H200z"/><path fill="#d5d4d4" d="M300 400h100v100H300z"/><path fill="#dce1e2" d="M400 400h100v100H400z"/><path fill="#d8d7d6" d="M500 400h100v100H500z"/><path fill="#d6d0ce" d="M600 400h100v100H600z"/><path fill="#eaf2f7" d="M700 400h100v100H700z"/><path fill="#f3f6f7" d="M0 500h100v100H0z"/><path fill="#dfe1e2" d="M100 500h100v100H100z"/><path fill="#d0c9c9" d="M200 500h100v100H200z"/><path fill="#c1bbbc" d="M300 500h100v100H300z"/><path fill="#edeeef" d="M400 500h100v100H400z"/><path fill="#dedcde" d="M500 500h100v100H500z"/><path fill="#d2cdce" d="M600 500h100v100H600z"/><path fill="#eef9fc" d="M700 500h100v100H700z"/><path fill="#f9feff" d="M0 600h100v100H0z"/><path fill="#f3fbfa" d="M100 600h100v100H100z"/><path fill="#d1cfcd" d="M200 600h100v100H200z"/><path fill="#eff8f2" d="M300 600h100v100H300z"/><path fill="#edfaf1" d="M400 600h100v100H400z"/><path fill="#d3d5d0" d="M500 600h100v100H500z"/><path fill="#dededd" d="M600 600h100v100H600z"/><path fill="#faffff" d="M700 600h100v100H700z"/><path fill="#f6fbf6" d="M0 700h100v100H0z"/><path fill="#e0ede1" d="M100 700h100v100H100z"/><path fill="#d2d2cc" d="M200 700h100v100H200z"/><path fill="#d8e9da" d="M300 700h100v100H300z"/><path fill="#d1ebd5" d="M400 700h100v100H400z"/><path fill="#c6cec5" d="M500 700h100v100H500z"/><path fill="#ced6cd" d="M600 700h100v100H600z"/><path fill="#e7f5e9" d="M700 700h100v100H700z"/><path fill="#e8f5eb" d="M0 800h100v100H0z"/><path fill="#cee8d2" d="M100 800h100v100H100z"/><path fill="#dbded8" d="M200 800h100v100H200z"/><path fill="#e1f0e3" d="M300 800h100v100H300z"/><path fill="#d9eedd" d="M400 800h100v100H400z"/><path fill="#dfefe1" d="M500 800h100v100H500z"/><path fill="#d8eddc" d="M600 800h100v100H600z"/><path fill="#dcf0df" d="M700 800h100v100H700z"/><path fill="#e9f6eb" d="M0 900h100v100H0z"/><path fill="#d0e9d4" d="M100 900h100v100H100z"/><path fill="#d5dfd5" d="M200 900h100v100H200z"/><path fill="#d5ebd9" d="M300 900h100v100H300z"/><path fill="#d4ead7" d="M400 900h100v100H400z"/><path fill="#dfefe2" d="M500 900h100v100H500z"/><path fill="#ddecdf" d="M600 900h100v100H600z"/><path fill="#eaf6ec" d="M700 900h100v100H700z"/><path fill="#f8fdf9" d="M0 1000h100v100H0z"/><path fill="#f0f7f1" d="M100 1000h100v100H100z"/><path fill="#e6efe7" d="M200 1000h100v100H200z"/><path fill="#edf6ee" d="M300 1000h100v100H300z"/><path fill="#f2f7f3" d="M400 1000h100v100H400z"/><path fill="#f8f9f9" d="M500 1000h100v100H500z"/><path fill="#f5f3f4" d="M600 1000h100v100H600z"/><path fill="#fefefe" d="M700 1000h100v100H700z"/></svg>