<svg xmlns="http://www.w3.org/2000/svg" viewBox="0 0 800 500"><defs/><path fill="#efefef" d="M0 0h100v100H0z"/><path fill="#c8c7c4" d="M100 0h100v100H100z"/><path fill="#c6c2c2" d="M200 0h100v100H200z"/><path fill="#d3cac7" d="M300 0h100v100H300z"/><path fill="#d1c5c2" d="M400 0h100v100H400z"/><path fill="#c8c6c2" d="M500 0h100v100H500z"/><path fill="#ced1cf" d="M600 0h100v100H600z"/><path fill="#f9f9fa" d="M700 0h100v100H700z"/><path fill="#c8c9c8" d="M0 100h100v100H0z"/><path fill="#4d4d4c" d="M100 100h100v100H100z"/><path fill="#62564e" d="M200 100h100v100H200z"/><path fill="#838ea7" d="M300 100h100v100H300z"/><path fill="#5f7190" d="M400 100h100v100H400z"/><path fill="#344134" d="M500 100h100v100H500z"/><path fill="#717166" d="M600 100h100v100H600z"/><path fill="#f1f1f2" d="M700 100h100v100H700z"/><path fill="#cdcacd" d="M0 200h100v100H0z"/><path fill="#6e5a53" d="M100 200h100v100H100z"/><path fill="#7b736a" d="M200 200h100v100H200z"/><path fill="#729ab3" d="M300 200h100v100H300z"/><path fill="#3a6882" d="M400 200h100v100H400z"/><path fill="#3a4a43" d="M500 200h100v100H500z"/><path fill="#8d6652" d="M600 200h100v100H600z"/><path fill="#f4eeea" d="M700 200h100v100H700z"/><path fill="#bfbfbe" d="M0 300h100v100H0z"/><path fill="#5b7a2d" d="M100 300h100v100H100z"/><path fill="#6b7c2e" d="M200 300h100v100H200z"/><path fill="#6c7c2c" d="M300 300h100v100H300z"/><path fill="#618626" d="M400 300h100v100H400z"/><path fill="#707a2c" d="M500 300h100v100H500z"/><path fill="#7c7f4d" d="M600 300h100v100H600z"/><path fill="#e8eae9" d="M700 300h100v100H700z"/><path fill="#dce2d2" d="M0 400h100v100H0z"/><path fill="#a9c18a" d="M100 400h100v100H100z"/><path fill="#a8bd8f" d="M200 400h100v100H200z"/><path fill="#9eb18a" d="M300 400h100v100H300z"/><path fill="#a2b98e" d="M400 400h100v100H400z"/><path fill="#abba90" d="M500 400h100v100H500z"/><path fill="#b2c099" d="M600 400h100v100H600z"/><path fill="#f3f6f2" d="M700 400h100v100H700z"/></svg>