<svg xmlns="http://www.w3.org/2000/svg" viewBox="0 0 800 500"><defs/><path fill="#281e28" d="M0 0h100v100H0z"/><path fill="#2b222a" d="M100 0h100v100H100z"/><path fill="#292029" d="M200 0h100v100H200z"/><path fill="#624c42" d="M300 0h100v100H300z"/><path fill="#927255" d="M400 0h100v100H400z"/><path fill="#c09a6a" d="M500 0h100v100H500z"/><path fill="#805a48" d="M600 0h100v100H600z"/><path fill="#3a232e" d="M700 0h100v100H700z"/><path fill="#291f28" d="M0 100h100v100H0z"/><path fill="#31232b" d="M100 100h100v100H100z"/><path fill="#33262d" d="M200 100h100v100H200z"/><path fill="#5d4b40" d="M300 100h100v100H300z"/><path fill="#645141" d="M400 100h100v100H400z"/><path fill="#997b57" d="M500 100h100v100H500z"/><path fill="#d4a36f" d="M600 100h100v100H600z"/><path fill="#5c3637" d="M700 100h100v100H700z"/><path fill="#261e28" d="M0 200h100v100H0z"/><path fill="#3f262f" d="M100 200h100v100H100z"/><path fill="#412931" d="M200 200h100v100H200z"/><path fill="#3e3133" d="M300 200h100v100H300z"/><path fill="#a37c65" d="M400 200h100v100H400z"/><path fill="#bc9368" d="M500 200h100v100H500z"/><path fill="#dab273" d="M600 200h100v100H600z"/><path fill="#dabd92" d="M700 200h100v100H700z"/><path fill="#271e28" d="M0 300h100v100H0z"/><path fill="#2a1f29" d="M100 300h100v100H100z"/><path fill="#3f3032" d="M200 300h100v100H200z"/><path fill="#645647" d="M300 300h100v100H300z"/><path fill="#83644f" d="M400 300h100v100H400z"/><path fill="#9e7c5b" d="M500 300h100v100H500z"/><path fill="#a5885d" d="M600 300h100v100H600z"/><path fill="#bba075" d="M700 300h100v100H700z"/><path fill="#241d27" d="M0 400h100v100H0z"/><path fill="#251d27" d="M100 400h100v100H100z"/><path fill="#3c2e2f" d="M200 400h100v100H200z"/><path fill="#a78f6e" d="M300 400h100v100H300z"/><path fill="#a2896d" d="M400 400h100v100H400z"/><path fill="#7e6955" d="M500 400h100v100H500z"/><path fill="#817058" d="M600 400h100v100H600z"/><path fill="#6d5d4d" d="M700 400h100v100H700z"/></svg>