<svg xmlns="http://www.w3.org/2000/svg" viewBox="0 0 800 600"><defs/><path fill="#fff" d="M0 0h100v100H0z"/><path fill="#fefefe" d="M100 0h100v100H100z"/><path fill="#fffeff" d="M200 0h100v100H200z"/><path fill="#fdfdfd" d="M300 0h100v100H300z"/><path fill="#fefefe" d="M400 0h100v100H400zm100 0h100v100H500z"/><path fill="#fdfdfd" d="M600 0h100v100H600z"/><path fill="#fff" d="M700 0h100v100H700z"/><path fill="#f5f3f2" d="M0 100h100v100H0z"/><path fill="#d9d8d7" d="M100 100h100v100H100z"/><path fill="#ebebe8" d="M200 100h100v100H200z"/><path fill="#fff" d="M300 100h100v100H300z"/><path fill="#fafafa" d="M400 100h100v100H400z"/><path fill="#fcfbfb" d="M500 100h100v100H500z"/><path fill="#fff" d="M600 100h100v100H600z"/><path fill="#eff1f2" d="M700 100h100v100H700z"/><path fill="#ededec" d="M0 200h100v100H0z"/><path fill="#cbcbca" d="M100 200h100v100H100z"/><path fill="#d8dad9" d="M200 200h100v100H200z"/><path fill="#e1e9f0" d="M300 200h100v100H300z"/><path fill="#d9e1ea" d="M400 200h100v100H400z"/><path fill="#d8e0e0" d="M500 200h100v100H500z"/><path fill="#bfc8c9" d="M600 200h100v100H600z"/><path fill="#d3d5d6" d="M700 200h100v100H700z"/><path fill="#e1e5e7" d="M0 300h100v100H0z"/><path fill="#bababb" d="M100 300h100v100H100z"/><path fill="#acbebd" d="M200 300h100v100H200z"/><path fill="#7b8894" d="M300 300h100v100H300z"/><path fill="#97a2b2" d="M400 300h100v100H400z"/><path fill="#a6b4c0" d="M500 300h100v100H500z"/><path fill="#7d858c" d="M600 300h100v100H600z"/><path fill="#d0d4d7" d="M700 300h100v100H700z"/><path fill="#e7e8e9" d="M0 400h100v100H0z"/><path fill="#cecbcc" d="M100 400h100v100H100z"/><path fill="#cdd2d2" d="M200 400h100v100H200z"/><path fill="#b2b2b4" d="M300 400h100v100H300z"/><path fill="#afb3b7" d="M400 400h100v100H400z"/><path fill="#c9cfd3" d="M500 400h100v100H500z"/><path fill="#b8bbbd" d="M600 400h100v100H600z"/><path fill="#bdc0c3" d="M700 400h100v100H700z"/><path fill="#f9f9f9" d="M0 500h100v100H0z"/><path fill="#fbfbfb" d="M100 500h100v100H100z"/><path fill="#fdfcfd" d="M200 500h100v100H200z"/><path fill="#fff" d="M300 500h100v100H300z"/><path fill="#fafbfb" d="M400 500h100v100H400z"/><path fill="#f5f6f6" d="M500 500h100v100H500z"/><path fill="#fcfcfc" d="M600 500h100v100H600z"/><path fill="#fafafa" d="M700 500h100v100H700z"/></svg>