<svg xmlns="http://www.w3.org/2000/svg" viewBox="0 0 800 400"><defs/><path fill="#394843" d="M0 0h100v100H0z"/><path fill="#a57727" d="M100 0h100v100H100z"/><path fill="#c8883a" d="M200 0h100v100H200z"/><path fill="#c2703b" d="M300 0h100v100H300z"/><path fill="#9b5c22" d="M400 0h100v100H400z"/><path fill="#9c3f30" d="M500 0h100v100H500z"/><path fill="#8a402c" d="M600 0h100v100H600z"/><path fill="#805624" d="M700 0h100v100H700z"/><path fill="#51523f" d="M0 100h100v100H0z"/><path fill="#855b45" d="M100 100h100v100H100z"/><path fill="#9b4b33" d="M200 100h100v100H200z"/><path fill="#ab5d3f" d="M300 100h100v100H300z"/><path fill="#905a32" d="M400 100h100v100H400z"/><path fill="#a34b41" d="M500 100h100v100H500z"/><path fill="#7e543a" d="M600 100h100v100H600z"/><path fill="#955445" d="M700 100h100v100H700z"/><path fill="#745f23" d="M0 200h100v100H0z"/><path fill="#6b6154" d="M100 200h100v100H100z"/><path fill="#5a6542" d="M200 200h100v100H200z"/><path fill="#a57e50" d="M300 200h100v100H300z"/><path fill="#d1a18b" d="M400 200h100v100H400z"/><path fill="#b39075" d="M500 200h100v100H500z"/><path fill="#a1735e" d="M600 200h100v100H600z"/><path fill="#c9a082" d="M700 200h100v100H700z"/><path fill="#266a53" d="M0 300h100v100H0z"/><path fill="#1f6561" d="M100 300h100v100H100z"/><path fill="#685850" d="M200 300h100v100H200z"/><path fill="#7c693f" d="M300 300h100v100H300z"/><path fill="#9d7551" d="M400 300h100v100H400z"/><path fill="#5c4840" d="M500 300h100v100H500z"/><path fill="#4f3d3c" d="M600 300h100v100H600z"/><path fill="#6c5346" d="M700 300h100v100H700z"/></svg>