<svg xmlns="http://www.w3.org/2000/svg" viewBox="0 0 800 500"><defs/><path fill="#969a95" d="M0 0h100v100H0z"/><path fill="#698268" d="M100 0h100v100H100z"/><path fill="#788776" d="M200 0h100v100H200z"/><path fill="#7e857d" d="M300 0h100v100H300z"/><path fill="#747a73" d="M400 0h100v100H400z"/><path fill="#626762" d="M500 0h100v100H500z"/><path fill="#575e56" d="M600 0h100v100H600z"/><path fill="#718b70" d="M700 0h100v100H700z"/><path fill="#505450" d="M0 100h100v100H0z"/><path fill="#264525" d="M100 100h100v100H100z"/><path fill="#698167" d="M200 100h100v100H200z"/><path fill="#838d82" d="M300 100h100v100H300z"/><path fill="#515551" d="M400 100h100v100H400z"/><path fill="#425941" d="M500 100h100v100H500z"/><path fill="#243e23" d="M600 100h100v100H600z"/><path fill="#375135" d="M700 100h100v100H700z"/><path fill="#4d564e" d="M0 200h100v100H0z"/><path fill="#273e26" d="M100 200h100v100H100z"/><path fill="#718271" d="M200 200h100v100H200z"/><path fill="#747b72" d="M300 200h100v100H300z"/><path fill="#555954" d="M400 200h100v100H400z"/><path fill="#515951" d="M500 200h100v100H500z"/><path fill="#3e4b3e" d="M600 200h100v100H600z"/><path fill="#5c9059" d="M700 200h100v100H700z"/><path fill="#454f45" d="M0 300h100v100H0z"/><path fill="#082208" d="M100 300h100v100H100z"/><path fill="#5e8e5c" d="M200 300h100v100H200z"/><path fill="#739671" d="M300 300h100v100H300z"/><path fill="#557954" d="M400 300h100v100H400z"/><path fill="#2c432a" d="M500 300h100v100H500z"/><path fill="#396436" d="M600 300h100v100H600z"/><path fill="#476d45" d="M700 300h100v100H700z"/><path fill="#646964" d="M0 400h100v100H0z"/><path fill="#3f4f3f" d="M100 400h100v100H100z"/><path fill="#698567" d="M200 400h100v100H200z"/><path fill="#83a281" d="M300 400h100v100H300z"/><path fill="#688365" d="M400 400h100v100H400z"/><path fill="#5e7b5c" d="M500 400h100v100H500z"/><path fill="#698e67" d="M600 400h100v100H600z"/><path fill="#677366" d="M700 400h100v100H700z"/></svg>