<svg xmlns="http://www.w3.org/2000/svg" viewBox="0 0 800 1100"><defs/><path fill="#fefeff" d="M0 0h100v100H0zm100 0h100v100H100z"/><path fill="#fffff9" d="M200 0h100v100H200z"/><path fill="#d3def0" d="M300 0h100v100H300z"/><path fill="#d4d8ea" d="M400 0h100v100H400z"/><path fill="#eceff5" d="M500 0h100v100H500z"/><path fill="#fffffd" d="M600 0h100v100H600z"/><path fill="#fefeff" d="M700 0h100v100H700z"/><path fill="#fff" d="M0 100h100v100H0z"/><path fill="#d6e3fc" d="M100 100h100v100H100z"/><path fill="#6e98e6" d="M200 100h100v100H200z"/><path fill="#77a2e2" d="M300 100h100v100H300z"/><path fill="#b799b0" d="M400 100h100v100H400z"/><path fill="#c090a2" d="M500 100h100v100H500z"/><path fill="#d7e2ee" d="M600 100h100v100H600z"/><path fill="#fffffd" d="M700 100h100v100H700z"/><path fill="#f2f7ff" d="M0 200h100v100H0z"/><path fill="#4c87f5" d="M100 200h100v100H100z"/><path fill="#5e91ea" d="M200 200h100v100H200z"/><path fill="#708dcf" d="M300 200h100v100H300z"/><path fill="#6d83c4" d="M400 200h100v100H400z"/><path fill="#a1abd2" d="M500 200h100v100H500z"/><path fill="#6d97e2" d="M600 200h100v100H600z"/><path fill="#dde9fd" d="M700 200h100v100H700z"/><path fill="#afcbfc" d="M0 300h100v100H0z"/><path fill="#2970f7" d="M100 300h100v100H100z"/><path fill="#4e8df7" d="M200 300h100v100H200z"/><path fill="#5369b9" d="M300 300h100v100H300z"/><path fill="#3666ce" d="M400 300h100v100H400z"/><path fill="#387ff5" d="M500 300h100v100H500z"/><path fill="#3678f1" d="M600 300h100v100H600z"/><path fill="#9fc1fe" d="M700 300h100v100H700z"/><path fill="#9cbcf9" d="M0 400h100v100H0z"/><path fill="#2174ff" d="M100 400h100v100H100z"/><path fill="#4a67cb" d="M200 400h100v100H200z"/><path fill="#72547f" d="M300 400h100v100H300z"/><path fill="#604c73" d="M400 400h100v100H400z"/><path fill="#5379c8" d="M500 400h100v100H500z"/><path fill="#1d61d9" d="M600 400h100v100H600z"/><path fill="#8baeee" d="M700 400h100v100H700z"/><path fill="#bed5ff" d="M0 500h100v100H0z"/><path fill="#276ff1" d="M100 500h100v100H100z"/><path fill="#b0266f" d="M200 500h100v100H200z"/><path fill="#b34372" d="M300 500h100v100H300z"/><path fill="#ac1e50" d="M400 500h100v100H400z"/><path fill="#a74b87" d="M500 500h100v100H500z"/><path fill="#1a64e2" d="M600 500h100v100H600z"/><path fill="#aec7f6" d="M700 500h100v100H700z"/><path fill="#f2ffff" d="M0 600h100v100H0z"/><path fill="#7a73b7" d="M100 600h100v100H100z"/><path fill="#df1248" d="M200 600h100v100H200z"/><path fill="#8f59ae" d="M300 600h100v100H300z"/><path fill="#aa1054" d="M400 600h100v100H400z"/><path fill="#ba2e62" d="M500 600h100v100H500z"/><path fill="#749ee3" d="M600 600h100v100H600z"/><path fill="#f2f7ff" d="M700 600h100v100H700z"/><path fill="#fdffff" d="M0 700h100v100H0z"/><path fill="#be778f" d="M100 700h100v100H100z"/><path fill="#d9164f" d="M200 700h100v100H200z"/><path fill="#9f5ba7" d="M300 700h100v100H300z"/><path fill="#ae0f52" d="M400 700h100v100H400z"/><path fill="#d92d61" d="M500 700h100v100H500z"/><path fill="#e8cfd8" d="M600 700h100v100H600z"/><path fill="#fff" d="M700 700h100v100H700zM0 800h100v100H0z"/><path fill="#d0597e" d="M100 800h100v100H100z"/><path fill="#df0148" d="M200 800h100v100H200z"/><path fill="#eb8eae" d="M300 800h100v100H300z"/><path fill="#cc3063" d="M400 800h100v100H400z"/><path fill="#ed0d57" d="M500 800h100v100H500z"/><path fill="#f098b5" d="M600 800h100v100H600z"/><path fill="#fff" d="M700 800h100v100H700zM0 900h100v100H0z"/><path fill="#e189a6" d="M100 900h100v100H100z"/><path fill="#e980a3" d="M200 900h100v100H200z"/><path fill="#f8f8f8" d="M300 900h100v100H300z"/><path fill="#e5c5cf" d="M400 900h100v100H400z"/><path fill="#e1638c" d="M500 900h100v100H500z"/><path fill="#f4c7d6" d="M600 900h100v100H600z"/><path fill="#fff" d="M700 900h100v100H700z"/><path fill="#fdfdfd" d="M0 1000h100v100H0z"/><path fill="#f8fafa" d="M100 1000h100v100H100z"/><path fill="#fcfffe" d="M200 1000h100v100H200z"/><path fill="#fff" d="M300 1000h100v100H300z"/><path fill="#feffff" d="M400 1000h100v100H400z"/><path fill="#f5fefb" d="M500 1000h100v100H500z"/><path fill="#fdfefd" d="M600 1000h100v100H600z"/><path fill="#fff" d="M700 1000h100v100H700z"/></svg>