<svg xmlns="http://www.w3.org/2000/svg" viewBox="0 0 800 1300"><defs/><path fill="#bebebe" d="M0 0h100v100H0z"/><path fill="#cfcfcf" d="M100 0h100v100H100z"/><path fill="#dadada" d="M200 0h100v100H200z"/><path fill="#dcdcdc" d="M300 0h100v100H300z"/><path fill="#e0e0e0" d="M400 0h100v100H400z"/><path fill="#d5d5d5" d="M500 0h100v100H500z"/><path fill="#d2d2d2" d="M600 0h100v100H600z"/><path fill="#cdcdcd" d="M700 0h100v100H700z"/><path fill="#bebebe" d="M0 100h100v100H0z"/><path fill="#cacaca" d="M100 100h100v100H100z"/><path fill="#c3c3c3" d="M200 100h100v100H200z"/><path fill="#cdcdcd" d="M300 100h100v100H300z"/><path fill="#ccc" d="M400 100h100v100H400z"/><path fill="#cdcdcd" d="M500 100h100v100H500z"/><path fill="#d4d4d4" d="M600 100h100v100H600z"/><path fill="#c7c7c7" d="M700 100h100v100H700z"/><path fill="#c9c9c9" d="M0 200h100v100H0z"/><path fill="#ccc" d="M100 200h100v100H100z"/><path fill="#b6b6b6" d="M200 200h100v100H200z"/><path fill="#bbb" d="M300 200h100v100H300z"/><path fill="#c7c7c7" d="M400 200h100v100H400z"/><path fill="#bebebe" d="M500 200h100v100H500z"/><path fill="#bdbdbd" d="M600 200h100v100H600z"/><path fill="#bbb" d="M700 200h100v100H700z"/><path fill="#d0d0d0" d="M0 300h100v100H0z"/><path fill="#d1d1d1" d="M100 300h100v100H100z"/><path fill="#cacaca" d="M200 300h100v100H200z"/><path fill="#cdcdcd" d="M300 300h100v100H300z"/><path fill="#cbcbcb" d="M400 300h100v100H400z"/><path fill="#bcbcbc" d="M500 300h100v100H500z"/><path fill="#bbb" d="M600 300h100v100H600z"/><path fill="#c1c1c1" d="M700 300h100v100H700z"/><path fill="#c3c3c3" d="M0 400h100v100H0z"/><path fill="#c4c4c4" d="M100 400h100v100H100z"/><path fill="#bebebe" d="M200 400h100v100H200z"/><path fill="#ccc" d="M300 400h100v100H300z"/><path fill="#cdcdcd" d="M400 400h100v100H400z"/><path fill="#c8c8c8" d="M500 400h100v100H500z"/><path fill="#cbcbcb" d="M600 400h100v100H600z"/><path fill="#bfbfbf" d="M700 400h100v100H700z"/><path fill="#b5b5b5" d="M0 500h100v100H0z"/><path fill="#c2c2c2" d="M100 500h100v100H100z"/><path fill="#cbcbcb" d="M200 500h100v100H200z"/><path fill="#cacaca" d="M300 500h100v100H300z"/><path fill="#c7c7c7" d="M400 500h100v100H400z"/><path fill="#bdbdbd" d="M500 500h100v100H500z"/><path fill="#c9c9c9" d="M600 500h100v100H600zm100 0h100v100H700z"/><path fill="#c4c4c4" d="M0 600h100v100H0z"/><path fill="#c8c8c8" d="M100 600h100v100H100z"/><path fill="#b5b5b5" d="M200 600h100v100H200z"/><path fill="#c7c7c7" d="M300 600h100v100H300z"/><path fill="#b8b8b8" d="M400 600h100v100H400z"/><path fill="#bbb" d="M500 600h100v100H500z"/><path fill="#c6c6c6" d="M600 600h100v100H600z"/><path fill="#c5c5c5" d="M700 600h100v100H700zM0 700h100v100H0z"/><path fill="#bababa" d="M100 700h100v100H100z"/><path fill="#b9b9b9" d="M200 700h100v100H200z"/><path fill="#cbcbcb" d="M300 700h100v100H300z"/><path fill="#ccc" d="M400 700h100v100H400z"/><path fill="#cdcdcd" d="M500 700h100v100H500z"/><path fill="#cacaca" d="M600 700h100v100H600z"/><path fill="#bdbdbd" d="M700 700h100v100H700z"/><path fill="#c4c4c4" d="M0 800h100v100H0z"/><path fill="#b3b3b3" d="M100 800h100v100H100z"/><path fill="#afafaf" d="M200 800h100v100H200z"/><path fill="#bcbcbc" d="M300 800h100v100H300z"/><path fill="#c2c2c2" d="M400 800h100v100H400z"/><path fill="#b3b3b3" d="M500 800h100v100H500z"/><path fill="#b9b9b9" d="M600 800h100v100H600z"/><path fill="#acacac" d="M700 800h100v100H700z"/><path fill="#cbcbcb" d="M0 900h100v100H0z"/><path fill="#c4c4c4" d="M100 900h100v100H100z"/><path fill="#9b9b9b" d="M200 900h100v100H200z"/><path fill="#a8a8a8" d="M300 900h100v100H300z"/><path fill="#a3a3a3" d="M400 900h100v100H400z"/><path fill="#a1a1a1" d="M500 900h100v100H500z"/><path fill="#a0a0a0" d="M600 900h100v100H600z"/><path fill="#b1b1b1" d="M700 900h100v100H700z"/><path fill="#cbcbcb" d="M0 1000h100v100H0z"/><path fill="#bababa" d="M100 1000h100v100H100z"/><path fill="#ababab" d="M200 1000h100v100H200z"/><path fill="#d1d1d1" d="M300 1000h100v100H300z"/><path fill="#cbcbcb" d="M400 1000h100v100H400z"/><path fill="#c2c2c2" d="M500 1000h100v100H500z"/><path fill="#bdbdbd" d="M600 1000h100v100H600z"/><path fill="#aeaeae" d="M700 1000h100v100H700z"/><path fill="#cfcfcf" d="M0 1100h100v100H0z"/><path fill="#c7c7c7" d="M100 1100h100v100H100z"/><path fill="#dadada" d="M200 1100h100v100H200z"/><path fill="#d7d7d7" d="M300 1100h100v100H300zm100 0h100v100H400z"/><path fill="#d6d6d6" d="M500 1100h100v100H500z"/><path fill="#b8b8b8" d="M600 1100h100v100H600z"/><path fill="#b6b6b6" d="M700 1100h100v100H700z"/><path fill="#cfcfcf" d="M0 1200h100v100H0z"/><path fill="#d5d5d5" d="M100 1200h100v100H100z"/><path fill="#c6c6c6" d="M200 1200h100v100H200z"/><path fill="#c5c5c5" d="M300 1200h100v100H300z"/><path fill="#bbb" d="M400 1200h100v100H400z"/><path fill="#c4c4c4" d="M500 1200h100v100H500z"/><path fill="#cdcdcd" d="M600 1200h100v100H600z"/><path fill="#b7b7b7" d="M700 1200h100v100H700z"/></svg>