<svg xmlns="http://www.w3.org/2000/svg" viewBox="0 0 800 600"><defs/><path fill="#fff" d="M0 0h100v100H0z"/><path fill="#fdfdfd" d="M100 0h100v100H100z"/><path fill="#fbfbfb" d="M200 0h100v100H200z"/><path fill="#fdfcfc" d="M300 0h100v100H300z"/><path fill="#feffff" d="M400 0h100v100H400z"/><path fill="#fcfdfd" d="M500 0h100v100H500z"/><path fill="#fefefe" d="M600 0h100v100H600z"/><path fill="#fefdfe" d="M700 0h100v100H700z"/><path fill="#a3b7b9" d="M0 100h100v100H0z"/><path fill="#bfc9c6" d="M100 100h100v100H100z"/><path fill="#81a9ad" d="M200 100h100v100H200z"/><path fill="#b2bebd" d="M300 100h100v100H300z"/><path fill="#c9beba" d="M400 100h100v100H400z"/><path fill="#cbc7c6" d="M500 100h100v100H500z"/><path fill="#d2d6d7" d="M600 100h100v100H600z"/><path fill="#dcdede" d="M700 100h100v100H700z"/><path fill="#b6c5c7" d="M0 200h100v100H0z"/><path fill="#b3b1a5" d="M100 200h100v100H100z"/><path fill="#adb1a8" d="M200 200h100v100H200z"/><path fill="#adafac" d="M300 200h100v100H300z"/><path fill="#919392" d="M400 200h100v100H400z"/><path fill="#b5bcbd" d="M500 200h100v100H500z"/><path fill="#babebd" d="M600 200h100v100H600z"/><path fill="#aab3b3" d="M700 200h100v100H700z"/><path fill="#d2d8d7" d="M0 300h100v100H0z"/><path fill="#b3b9b8" d="M100 300h100v100H100z"/><path fill="#c1b3ab" d="M200 300h100v100H200z"/><path fill="#cbc9c8" d="M300 300h100v100H300z"/><path fill="#acabab" d="M400 300h100v100H400z"/><path fill="#bcbbbb" d="M500 300h100v100H500z"/><path fill="#c6c5c3" d="M600 300h100v100H600z"/><path fill="#9d9d9b" d="M700 300h100v100H700z"/><path fill="#a7b0b0" d="M0 400h100v100H0z"/><path fill="#a0aaaa" d="M100 400h100v100H100z"/><path fill="#9b9c9d" d="M200 400h100v100H200z"/><path fill="#8c8987" d="M300 400h100v100H300z"/><path fill="#a79a97" d="M400 400h100v100H400z"/><path fill="#8a8686" d="M500 400h100v100H500z"/><path fill="#989e9e" d="M600 400h100v100H600z"/><path fill="#dbdad8" d="M700 400h100v100H700z"/><path fill="#e7e8e8" d="M0 500h100v100H0z"/><path fill="#f0f1f1" d="M100 500h100v100H100z"/><path fill="#e6e6e7" d="M200 500h100v100H200z"/><path fill="#dcdcdb" d="M300 500h100v100H300z"/><path fill="#dedddd" d="M400 500h100v100H400z"/><path fill="#e1e1e2" d="M500 500h100v100H500z"/><path fill="#e6e7e8" d="M600 500h100v100H600z"/><path fill="#f4f4f3" d="M700 500h100v100H700z"/></svg>