<svg xmlns="http://www.w3.org/2000/svg" viewBox="0 0 800 400"><defs/><path fill="#4e75a1" d="M0 0h100v100H0z"/><path fill="#295f97" d="M100 0h100v100H100z"/><path fill="#5173a8" d="M200 0h100v100H200z"/><path fill="#425470" d="M300 0h100v100H300z"/><path fill="#3d4a5f" d="M400 0h100v100H400z"/><path fill="#4b5a74" d="M500 0h100v100H500z"/><path fill="#5579af" d="M600 0h100v100H600z"/><path fill="#688ab1" d="M700 0h100v100H700z"/><path fill="#2c5d92" d="M0 100h100v100H0z"/><path fill="#0a4280" d="M100 100h100v100H100z"/><path fill="#495f80" d="M200 100h100v100H200z"/><path fill="#2f528a" d="M300 100h100v100H300z"/><path fill="#204c8a" d="M400 100h100v100H400z"/><path fill="#2c61a5" d="M500 100h100v100H500z"/><path fill="#0b3976" d="M600 100h100v100H600z"/><path fill="#3f648f" d="M700 100h100v100H700z"/><path fill="#2b5e93" d="M0 200h100v100H0z"/><path fill="#1e538d" d="M100 200h100v100H100z"/><path fill="#8996a8" d="M200 200h100v100H200z"/><path fill="#3466a2" d="M300 200h100v100H300z"/><path fill="#394a73" d="M400 200h100v100H400z"/><path fill="#573950" d="M500 200h100v100H500z"/><path fill="#4a3439" d="M600 200h100v100H600z"/><path fill="#415469" d="M700 200h100v100H700z"/><path fill="#4975a3" d="M0 300h100v100H0z"/><path fill="#1c5ea1" d="M100 300h100v100H100z"/><path fill="#1e65af" d="M200 300h100v100H200z"/><path fill="#53617b" d="M300 300h100v100H300z"/><path fill="#89655f" d="M400 300h100v100H400z"/><path fill="#8b6061" d="M500 300h100v100H500z"/><path fill="#6a5d65" d="M600 300h100v100H600z"/><path fill="#586a81" d="M700 300h100v100H700z"/></svg>