<svg xmlns="http://www.w3.org/2000/svg" viewBox="0 0 800 500"><defs/><path fill="#dfe0d9" d="M0 0h100v100H0z"/><path fill="#e9e3d4" d="M100 0h100v100H100z"/><path fill="#f6f4ee" d="M200 0h100v100H200z"/><path fill="#f5f0e4" d="M300 0h100v100H300z"/><path fill="#f4edde" d="M400 0h100v100H400z"/><path fill="#e8eae7" d="M500 0h100v100H500z"/><path fill="#d1dce3" d="M600 0h100v100H600z"/><path fill="#d6dee2" d="M700 0h100v100H700z"/><path fill="#e2e1d9" d="M0 100h100v100H0z"/><path fill="#eee4d2" d="M100 100h100v100H100z"/><path fill="#f4efe0" d="M200 100h100v100H200z"/><path fill="#f9f6eb" d="M300 100h100v100H300z"/><path fill="#f9f2e2" d="M400 100h100v100H400z"/><path fill="#e8e9e1" d="M500 100h100v100H500z"/><path fill="#cad9e3" d="M600 100h100v100H600z"/><path fill="#cddae4" d="M700 100h100v100H700z"/><path fill="#d4dad9" d="M0 200h100v100H0z"/><path fill="#e5e2d7" d="M100 200h100v100H100z"/><path fill="#f1e7ce" d="M200 200h100v100H200z"/><path fill="#f6efd8" d="M300 200h100v100H300z"/><path fill="#f9f4e3" d="M400 200h100v100H400z"/><path fill="#efede1" d="M500 200h100v100H500z"/><path fill="#dee7eb" d="M600 200h100v100H600z"/><path fill="#cedce4" d="M700 200h100v100H700z"/><path fill="#b9cad5" d="M0 300h100v100H0z"/><path fill="#b5c2c2" d="M100 300h100v100H100z"/><path fill="#e5e0cb" d="M200 300h100v100H200z"/><path fill="#f1ead2" d="M300 300h100v100H300z"/><path fill="#fbf8f0" d="M400 300h100v100H400z"/><path fill="#f8f2de" d="M500 300h100v100H500z"/><path fill="#efead2" d="M600 300h100v100H600z"/><path fill="#f0f3f2" d="M700 300h100v100H700z"/><path fill="#cfd9e0" d="M0 400h100v100H0z"/><path fill="#cbd6da" d="M100 400h100v100H100z"/><path fill="#e1e4e0" d="M200 400h100v100H200z"/><path fill="#f0ede4" d="M300 400h100v100H300z"/><path fill="#f9f6ef" d="M400 400h100v100H400z"/><path fill="#fdfbf1" d="M500 400h100v100H500z"/><path fill="#f6efd8" d="M600 400h100v100H600z"/><path fill="#f5f4ee" d="M700 400h100v100H700z"/></svg>