<svg xmlns="http://www.w3.org/2000/svg" viewBox="0 0 800 400"><defs/><path fill="#f1e0bf" d="M0 0h100v100H0z"/><path fill="#d5bea1" d="M100 0h100v100H100z"/><path fill="#c0a988" d="M200 0h100v100H200z"/><path fill="#efdabc" d="M300 0h100v100H300z"/><path fill="#cfbea4" d="M400 0h100v100H400z"/><path fill="#d3c5ac" d="M500 0h100v100H500z"/><path fill="#f3e8cd" d="M600 0h100v100H600z"/><path fill="#eff0e2" d="M700 0h100v100H700z"/><path fill="#f1e1c4" d="M0 100h100v100H0z"/><path fill="#ceb492" d="M100 100h100v100H100z"/><path fill="#9b856c" d="M200 100h100v100H200z"/><path fill="#b2a594" d="M300 100h100v100H300z"/><path fill="#a69782" d="M400 100h100v100H400z"/><path fill="#b0a28b" d="M500 100h100v100H500z"/><path fill="#e7e1c7" d="M600 100h100v100H600z"/><path fill="#e4ebe5" d="M700 100h100v100H700z"/><path fill="#f1e2c7" d="M0 200h100v100H0z"/><path fill="#b99e7c" d="M100 200h100v100H100z"/><path fill="#93856e" d="M200 200h100v100H200z"/><path fill="#8c877e" d="M300 200h100v100H300z"/><path fill="#b3a794" d="M400 200h100v100H400z"/><path fill="#ac9c80" d="M500 200h100v100H500z"/><path fill="#e2d4ba" d="M600 200h100v100H600z"/><path fill="#edead8" d="M700 200h100v100H700z"/><path fill="#ebdac2" d="M0 300h100v100H0z"/><path fill="#d6c1a8" d="M100 300h100v100H100z"/><path fill="#cabcaa" d="M200 300h100v100H200z"/><path fill="#ded1be" d="M300 300h100v100H300z"/><path fill="#efe1cc" d="M400 300h100v100H400z"/><path fill="#e1d9c7" d="M500 300h100v100H500z"/><path fill="#e3d5c0" d="M600 300h100v100H600z"/><path fill="#d4bea0" d="M700 300h100v100H700z"/></svg>