<svg xmlns="http://www.w3.org/2000/svg" viewBox="0 0 800 400"><defs/><path fill="#e08f4e" d="M0 0h100v100H0z"/><path fill="#b9c2b5" d="M100 0h100v100H100z"/><path fill="#cdd5da" d="M200 0h100v100H200z"/><path fill="#c1beb8" d="M300 0h100v100H300z"/><path fill="#b1bac0" d="M400 0h100v100H400z"/><path fill="#90b8dd" d="M500 0h100v100H500z"/><path fill="#97bbd1" d="M600 0h100v100H600z"/><path fill="#5cbac7" d="M700 0h100v100H700z"/><path fill="#d6a465" d="M0 100h100v100H0z"/><path fill="#b4bfb5" d="M100 100h100v100H100z"/><path fill="#adaca8" d="M200 100h100v100H200z"/><path fill="#aaa29f" d="M300 100h100v100H300z"/><path fill="#adc0cb" d="M400 100h100v100H400z"/><path fill="#63bdd9" d="M500 100h100v100H500z"/><path fill="#79b5c6" d="M600 100h100v100H600z"/><path fill="#6a9094" d="M700 100h100v100H700z"/><path fill="#cec391" d="M0 200h100v100H0z"/><path fill="#899b8f" d="M100 200h100v100H100z"/><path fill="#747a7f" d="M200 200h100v100H200z"/><path fill="#4c5159" d="M300 200h100v100H300z"/><path fill="#6f7987" d="M400 200h100v100H400z"/><path fill="#626d77" d="M500 200h100v100H500z"/><path fill="#686269" d="M600 200h100v100H600z"/><path fill="#5972a3" d="M700 200h100v100H700z"/><path fill="#b2bea6" d="M0 300h100v100H0z"/><path fill="#74868f" d="M100 300h100v100H100z"/><path fill="#5e646a" d="M200 300h100v100H200z"/><path fill="#524d43" d="M300 300h100v100H300z"/><path fill="#625c51" d="M400 300h100v100H400z"/><path fill="#676562" d="M500 300h100v100H500z"/><path fill="#5e565b" d="M600 300h100v100H600z"/><path fill="#617195" d="M700 300h100v100H700z"/></svg>