<svg xmlns="http://www.w3.org/2000/svg" viewBox="0 0 800 600"><defs/><path fill="#edeeea" d="M0 0h100v100H0z"/><path fill="#e2e2df" d="M100 0h100v100H100z"/><path fill="#dcddd9" d="M200 0h100v100H200z"/><path fill="#dbdcd8" d="M300 0h100v100H300z"/><path fill="#d7d8d3" d="M400 0h100v100H400z"/><path fill="#d9d9d4" d="M500 0h100v100H500z"/><path fill="#d8d7d3" d="M600 0h100v100H600z"/><path fill="#dedad6" d="M700 0h100v100H700z"/><path fill="#eeefec" d="M0 100h100v100H0z"/><path fill="#d9d9d6" d="M100 100h100v100H100z"/><path fill="#cecfca" d="M200 100h100v100H200z"/><path fill="#d8d8d4" d="M300 100h100v100H300z"/><path fill="#dbdbd7" d="M400 100h100v100H400z"/><path fill="#d8d9d4" d="M500 100h100v100H500z"/><path fill="#d1d1cd" d="M600 100h100v100H600z"/><path fill="#e4e1dc" d="M700 100h100v100H700z"/><path fill="#f8f8f6" d="M0 200h100v100H0z"/><path fill="#e4e4e1" d="M100 200h100v100H100z"/><path fill="#cecfca" d="M200 200h100v100H200z"/><path fill="#e0e1dc" d="M300 200h100v100H300z"/><path fill="#d5d6d2" d="M400 200h100v100H400z"/><path fill="#cdceca" d="M500 200h100v100H500z"/><path fill="#dddcd8" d="M600 200h100v100H600z"/><path fill="#dcd8d3" d="M700 200h100v100H700z"/><path fill="#eeeeec" d="M0 300h100v100H0z"/><path fill="#dddedb" d="M100 300h100v100H100z"/><path fill="#cfcfcb" d="M200 300h100v100H200z"/><path fill="#d2d3ce" d="M300 300h100v100H300z"/><path fill="#cecfca" d="M400 300h100v100H400z"/><path fill="#d0d0cb" d="M500 300h100v100H500z"/><path fill="#d7d6d2" d="M600 300h100v100H600z"/><path fill="#d9d7d2" d="M700 300h100v100H700z"/><path fill="#dbdcd7" d="M0 400h100v100H0z"/><path fill="#d6d7d3" d="M100 400h100v100H100z"/><path fill="#d7d8d4" d="M200 400h100v100H200z"/><path fill="#cfd0cb" d="M300 400h100v100H300z"/><path fill="#d7d7d3" d="M400 400h100v100H400z"/><path fill="#d9d8d3" d="M500 400h100v100H500z"/><path fill="#d6d2cd" d="M600 400h100v100H600z"/><path fill="#cbc6c1" d="M700 400h100v100H700z"/><path fill="#ecede8" d="M0 500h100v100H0z"/><path fill="#e3e5e0" d="M100 500h100v100H100z"/><path fill="#dfe0db" d="M200 500h100v100H200z"/><path fill="#d6d6d1" d="M300 500h100v100H300z"/><path fill="#d6d7d2" d="M400 500h100v100H400z"/><path fill="#d5d3ce" d="M500 500h100v100H500z"/><path fill="#e3e0dc" d="M600 500h100v100H600z"/><path fill="#ded5d2" d="M700 500h100v100H700z"/></svg>