<svg xmlns="http://www.w3.org/2000/svg" viewBox="0 0 800 500"><defs/><path fill="#eee4ed" d="M0 0h100v100H0z"/><path fill="#ebddd8" d="M100 0h100v100H100z"/><path fill="#f0e8e2" d="M200 0h100v100H200z"/><path fill="#eee8e3" d="M300 0h100v100H300z"/><path fill="#efeae4" d="M400 0h100v100H400z"/><path fill="#eae2db" d="M500 0h100v100H500z"/><path fill="#ede5df" d="M600 0h100v100H600z"/><path fill="#f2e9e4" d="M700 0h100v100H700z"/><path fill="#b88fa3" d="M0 100h100v100H0z"/><path fill="#c58c7a" d="M100 100h100v100H100z"/><path fill="#dbbca8" d="M200 100h100v100H200z"/><path fill="#edd3b8" d="M300 100h100v100H300z"/><path fill="#edd1be" d="M400 100h100v100H400z"/><path fill="#e1cab0" d="M500 100h100v100H500z"/><path fill="#d8bca0" d="M600 100h100v100H600z"/><path fill="#c7907d" d="M700 100h100v100H700z"/><path fill="#d1958e" d="M0 200h100v100H0z"/><path fill="#d6a899" d="M100 200h100v100H100z"/><path fill="#c79b8c" d="M200 200h100v100H200z"/><path fill="#e2baa8" d="M300 200h100v100H300z"/><path fill="#e6ccb3" d="M400 200h100v100H400z"/><path fill="#fedbcc" d="M500 200h100v100H500z"/><path fill="#cfa794" d="M600 200h100v100H600z"/><path fill="#b9827c" d="M700 200h100v100H700z"/><path fill="#ca898e" d="M0 300h100v100H0z"/><path fill="#c2806e" d="M100 300h100v100H100z"/><path fill="#ad5354" d="M200 300h100v100H200z"/><path fill="#c06770" d="M300 300h100v100H300z"/><path fill="#bb8277" d="M400 300h100v100H400z"/><path fill="#8b444b" d="M500 300h100v100H500z"/><path fill="#7f3236" d="M600 300h100v100H600z"/><path fill="#b4685a" d="M700 300h100v100H700z"/><path fill="#dcb6b7" d="M0 400h100v100H0z"/><path fill="#e2b4ae" d="M100 400h100v100H100z"/><path fill="#e2a9a8" d="M200 400h100v100H200z"/><path fill="#c28f94" d="M300 400h100v100H300z"/><path fill="#a27178" d="M400 400h100v100H400z"/><path fill="#9b7579" d="M500 400h100v100H500z"/><path fill="#cf9a9e" d="M600 400h100v100H600z"/><path fill="#e09f95" d="M700 400h100v100H700z"/></svg>