<svg xmlns="http://www.w3.org/2000/svg" viewBox="0 0 800 400"><defs/><path fill="#334459" d="M0 0h100v100H0z"/><path fill="#79676a" d="M100 0h100v100H100z"/><path fill="#8997a8" d="M200 0h100v100H200z"/><path fill="#707663" d="M300 0h100v100H300z"/><path fill="#838e87" d="M400 0h100v100H400z"/><path fill="#64644e" d="M500 0h100v100H500z"/><path fill="#758398" d="M600 0h100v100H600z"/><path fill="#3d5471" d="M700 0h100v100H700z"/><path fill="#453544" d="M0 100h100v100H0z"/><path fill="#80798c" d="M100 100h100v100H100z"/><path fill="#7a8b9e" d="M200 100h100v100H200z"/><path fill="#575643" d="M300 100h100v100H300z"/><path fill="#656769" d="M400 100h100v100H400z"/><path fill="#666b5d" d="M500 100h100v100H500z"/><path fill="#84a0c4" d="M600 100h100v100H600z"/><path fill="#3b4057" d="M700 100h100v100H700z"/><path fill="#4f444b" d="M0 200h100v100H0z"/><path fill="#96818b" d="M100 200h100v100H100z"/><path fill="#9b98ac" d="M200 200h100v100H200z"/><path fill="#856f82" d="M300 200h100v100H300z"/><path fill="#81414a" d="M400 200h100v100H400z"/><path fill="#7f7b9c" d="M500 200h100v100H500z"/><path fill="#98a8d5" d="M600 200h100v100H600z"/><path fill="#4d5d76" d="M700 200h100v100H700z"/><path fill="#695b5f" d="M0 300h100v100H0z"/><path fill="#d5b8c0" d="M100 300h100v100H100z"/><path fill="#c5b8d3" d="M200 300h100v100H200z"/><path fill="#764452" d="M300 300h100v100H300z"/><path fill="#6d3b40" d="M400 300h100v100H400z"/><path fill="#6b4652" d="M500 300h100v100H500z"/><path fill="#96819d" d="M600 300h100v100H600z"/><path fill="#b5b1c8" d="M700 300h100v100H700z"/></svg>