<svg xmlns="http://www.w3.org/2000/svg" viewBox="0 0 800 400"><defs/><path fill="#5b504d" d="M0 0h100v100H0z"/><path fill="#413631" d="M100 0h100v100H100z"/><path fill="#52413b" d="M200 0h100v100H200z"/><path fill="#775e51" d="M300 0h100v100H300z"/><path fill="#674440" d="M400 0h100v100H400z"/><path fill="#3f3030" d="M500 0h100v100H500z"/><path fill="#4a3734" d="M600 0h100v100H600z"/><path fill="#443230" d="M700 0h100v100H700z"/><path fill="#7e7369" d="M0 100h100v100H0z"/><path fill="#786659" d="M100 100h100v100H100z"/><path fill="#6b5446" d="M200 100h100v100H200z"/><path fill="#795b45" d="M300 100h100v100H300z"/><path fill="#5b3d3a" d="M400 100h100v100H400z"/><path fill="#3c322d" d="M500 100h100v100H500z"/><path fill="#463832" d="M600 100h100v100H600z"/><path fill="#31262a" d="M700 100h100v100H700z"/><path fill="#5c4b40" d="M0 200h100v100H0z"/><path fill="#6b5852" d="M100 200h100v100H100z"/><path fill="#705c55" d="M200 200h100v100H200z"/><path fill="#6a5553" d="M300 200h100v100H300z"/><path fill="#463335" d="M400 200h100v100H400z"/><path fill="#372f2f" d="M500 200h100v100H500z"/><path fill="#3b3233" d="M600 200h100v100H600z"/><path fill="#382f2d" d="M700 200h100v100H700z"/><path fill="#3e3234" d="M0 300h100v100H0z"/><path fill="#413646" d="M100 300h100v100H100z"/><path fill="#433d4a" d="M200 300h100v100H200z"/><path fill="#78708a" d="M300 300h100v100H300z"/><path fill="#6f595f" d="M400 300h100v100H400z"/><path fill="#272328" d="M500 300h100v100H500z"/><path fill="#26252e" d="M600 300h100v100H600z"/><path fill="#332c30" d="M700 300h100v100H700z"/></svg>