<svg xmlns="http://www.w3.org/2000/svg" viewBox="0 0 800 900"><defs/><path fill="#cecdcb" d="M0 0h100v100H0z"/><path fill="#d4d3d2" d="M100 0h100v100H100z"/><path fill="#dcdbdb" d="M200 0h100v100H200z"/><path fill="#dedddc" d="M300 0h100v100H300z"/><path fill="#d5d5d4" d="M400 0h100v100H400z"/><path fill="#d2d1d0" d="M500 0h100v100H500z"/><path fill="#e3e3e2" d="M600 0h100v100H600z"/><path fill="#fff" d="M700 0h100v100H700z"/><path fill="#b0b3b9" d="M0 100h100v100H0z"/><path fill="#b6b8bc" d="M100 100h100v100H100z"/><path fill="#908e90" d="M200 100h100v100H200z"/><path fill="#9d9b9d" d="M300 100h100v100H300z"/><path fill="#a8a8ad" d="M400 100h100v100H400z"/><path fill="#99999d" d="M500 100h100v100H500z"/><path fill="#bdbdc1" d="M600 100h100v100H600z"/><path fill="#d3d3d7" d="M700 100h100v100H700z"/><path fill="#876f68" d="M0 200h100v100H0z"/><path fill="#7f7274" d="M100 200h100v100H100z"/><path fill="#785b55" d="M200 200h100v100H200z"/><path fill="#74605e" d="M300 200h100v100H300z"/><path fill="#927b7c" d="M400 200h100v100H400z"/><path fill="#6e524d" d="M500 200h100v100H500z"/><path fill="#6e6369" d="M600 200h100v100H600z"/><path fill="#554442" d="M700 200h100v100H700z"/><path fill="#cb8b69" d="M0 300h100v100H0z"/><path fill="#ab7c67" d="M100 300h100v100H100z"/><path fill="#d2a38e" d="M200 300h100v100H200z"/><path fill="#b89386" d="M300 300h100v100H300z"/><path fill="#7d6765" d="M400 300h100v100H400z"/><path fill="#805b4f" d="M500 300h100v100H500z"/><path fill="#4e4242" d="M600 300h100v100H600z"/><path fill="#b38372" d="M700 300h100v100H700z"/><path fill="#c88f73" d="M0 400h100v100H0z"/><path fill="#68493b" d="M100 400h100v100H100z"/><path fill="#986e5f" d="M200 400h100v100H200z"/><path fill="#d8ae9a" d="M300 400h100v100H300z"/><path fill="#a28d85" d="M400 400h100v100H400z"/><path fill="#b58d7c" d="M500 400h100v100H500z"/><path fill="#514b49" d="M600 400h100v100H600z"/><path fill="#b08f82" d="M700 400h100v100H700z"/><path fill="#b88668" d="M0 500h100v100H0z"/><path fill="#775543" d="M100 500h100v100H100z"/><path fill="#6d4f47" d="M200 500h100v100H200z"/><path fill="#7c6d62" d="M300 500h100v100H300z"/><path fill="#bb9887" d="M400 500h100v100H400z"/><path fill="#866156" d="M500 500h100v100H500z"/><path fill="#6e5950" d="M600 500h100v100H600z"/><path fill="#e5bca8" d="M700 500h100v100H700z"/><path fill="#623c1f" d="M0 600h100v100H0z"/><path fill="#583824" d="M100 600h100v100H100z"/><path fill="#976c5e" d="M200 600h100v100H200z"/><path fill="#9d7a68" d="M300 600h100v100H300z"/><path fill="#866353" d="M400 600h100v100H400z"/><path fill="#835c52" d="M500 600h100v100H500z"/><path fill="#6e5a4f" d="M600 600h100v100H600z"/><path fill="#eec0a9" d="M700 600h100v100H700z"/><path fill="#92684c" d="M0 700h100v100H0z"/><path fill="#a47355" d="M100 700h100v100H100z"/><path fill="#efb99e" d="M200 700h100v100H200z"/><path fill="#b79281" d="M300 700h100v100H300z"/><path fill="#be8a6c" d="M400 700h100v100H400z"/><path fill="#b07e60" d="M500 700h100v100H500z"/><path fill="#68544a" d="M600 700h100v100H600z"/><path fill="#ddb7a5" d="M700 700h100v100H700z"/><path fill="#ae8065" d="M0 800h100v100H0z"/><path fill="#a16f56" d="M100 800h100v100H100z"/><path fill="#d9a288" d="M200 800h100v100H200z"/><path fill="#9e7a66" d="M300 800h100v100H300z"/><path fill="#b98f7e" d="M400 800h100v100H400z"/><path fill="#b78f7a" d="M500 800h100v100H500z"/><path fill="#9c7668" d="M600 800h100v100H600z"/><path fill="#cfaea1" d="M700 800h100v100H700z"/></svg>