<svg xmlns="http://www.w3.org/2000/svg" viewBox="0 0 800 500"><defs/><path fill="#ac8b6d" d="M0 0h100v100H0z"/><path fill="#655774" d="M100 0h100v100H100z"/><path fill="#8d6440" d="M200 0h100v100H200z"/><path fill="#6c5c63" d="M300 0h100v100H300z"/><path fill="#9c8d6e" d="M400 0h100v100H400z"/><path fill="#877f8c" d="M500 0h100v100H500z"/><path fill="#8e857e" d="M600 0h100v100H600z"/><path fill="#ab474a" d="M700 0h100v100H700z"/><path fill="#9c763a" d="M0 100h100v100H0z"/><path fill="#2c144f" d="M100 100h100v100H100z"/><path fill="#441d1f" d="M200 100h100v100H200z"/><path fill="#5a4920" d="M300 100h100v100H300z"/><path fill="#7c6767" d="M400 100h100v100H400z"/><path fill="#1e23a3" d="M500 100h100v100H500z"/><path fill="#8c7d82" d="M600 100h100v100H600z"/><path fill="#900" d="M700 100h100v100H700z"/><path fill="#776268" d="M0 200h100v100H0z"/><path fill="#463d64" d="M100 200h100v100H100z"/><path fill="#662f19" d="M200 200h100v100H200z"/><path fill="#7e5c14" d="M300 200h100v100H300z"/><path fill="#8d7b2e" d="M400 200h100v100H400z"/><path fill="#574730" d="M500 200h100v100H500z"/><path fill="#706650" d="M600 200h100v100H600z"/><path fill="#741f4a" d="M700 200h100v100H700z"/><path fill="#5f455b" d="M0 300h100v100H0z"/><path fill="#3e2d5f" d="M100 300h100v100H100z"/><path fill="#564231" d="M200 300h100v100H200z"/><path fill="#221768" d="M300 300h100v100H300z"/><path fill="#44404a" d="M400 300h100v100H400z"/><path fill="#4a443d" d="M500 300h100v100H500z"/><path fill="#41383f" d="M600 300h100v100H600z"/><path fill="#75445c" d="M700 300h100v100H700z"/><path fill="#676089" d="M0 400h100v100H0z"/><path fill="#5a3f63" d="M100 400h100v100H100z"/><path fill="#745b52" d="M200 400h100v100H200z"/><path fill="#3a2ead" d="M300 400h100v100H300z"/><path fill="#53419f" d="M400 400h100v100H400z"/><path fill="#462f95" d="M500 400h100v100H500z"/><path fill="#503d63" d="M600 400h100v100H600z"/><path fill="#7c5e51" d="M700 400h100v100H700z"/></svg>