<svg xmlns="http://www.w3.org/2000/svg" viewBox="0 0 800 600"><defs/><path fill="#cfcec9" d="M0 0h100v100H0z"/><path fill="#d0cecb" d="M100 0h100v100H100z"/><path fill="#d3d1d0" d="M200 0h100v100H200z"/><path fill="#cecccd" d="M300 0h100v100H300z"/><path fill="#c9c7c5" d="M400 0h100v100H400z"/><path fill="#c0bdb8" d="M500 0h100v100H500z"/><path fill="#b7b0a1" d="M600 0h100v100H600z"/><path fill="#b2aa96" d="M700 0h100v100H700z"/><path fill="#cecac1" d="M0 100h100v100H0z"/><path fill="#c4b193" d="M100 100h100v100H100z"/><path fill="#bab7b7" d="M200 100h100v100H200z"/><path fill="#cac7cd" d="M300 100h100v100H300z"/><path fill="#c6c0c0" d="M400 100h100v100H400z"/><path fill="#c5bcb5" d="M500 100h100v100H500z"/><path fill="#baaea1" d="M600 100h100v100H600z"/><path fill="#aca290" d="M700 100h100v100H700z"/><path fill="#cdc7b7" d="M0 200h100v100H0z"/><path fill="#c2ae8c" d="M100 200h100v100H100z"/><path fill="#a29aa1" d="M200 200h100v100H200z"/><path fill="#c2b9bd" d="M300 200h100v100H300z"/><path fill="#ccc5c7" d="M400 200h100v100H400z"/><path fill="#aeb3b3" d="M500 200h100v100H500z"/><path fill="#ababa5" d="M600 200h100v100H600z"/><path fill="#a2958b" d="M700 200h100v100H700z"/><path fill="#cbc39e" d="M0 300h100v100H0z"/><path fill="#bbb283" d="M100 300h100v100H100z"/><path fill="#b2afb8" d="M200 300h100v100H200z"/><path fill="#b5b4b9" d="M300 300h100v100H300z"/><path fill="#bcb8b8" d="M400 300h100v100H400z"/><path fill="#899ea3" d="M500 300h100v100H500z"/><path fill="#878e8e" d="M600 300h100v100H600z"/><path fill="#998b83" d="M700 300h100v100H700z"/><path fill="#bfb184" d="M0 400h100v100H0z"/><path fill="#b5ae90" d="M100 400h100v100H100z"/><path fill="#b8babd" d="M200 400h100v100H200z"/><path fill="#adb2b7" d="M300 400h100v100H300z"/><path fill="#a7abae" d="M400 400h100v100H400z"/><path fill="#a1a0a4" d="M500 400h100v100H500z"/><path fill="#928d94" d="M600 400h100v100H600z"/><path fill="#8d827f" d="M700 400h100v100H700z"/><path fill="#bcb6af" d="M0 500h100v100H0z"/><path fill="#c8c2c2" d="M100 500h100v100H100z"/><path fill="#ccc8cb" d="M200 500h100v100H200z"/><path fill="#c9c7ce" d="M300 500h100v100H300z"/><path fill="#c8c5cd" d="M400 500h100v100H400z"/><path fill="#b9b2ba" d="M500 500h100v100H500z"/><path fill="#a99ea7" d="M600 500h100v100H600z"/><path fill="#9e9291" d="M700 500h100v100H700z"/></svg>