<svg xmlns="http://www.w3.org/2000/svg" viewBox="0 0 800 500"><defs/><path fill="#f2edeb" d="M0 0h100v100H0z"/><path fill="#ececeb" d="M100 0h100v100H100z"/><path fill="#f2edea" d="M200 0h100v100H200z"/><path fill="#f6f2f1" d="M300 0h100v100H300z"/><path fill="#f8f5f5" d="M400 0h100v100H400z"/><path fill="#fbf9f7" d="M500 0h100v100H500z"/><path fill="#f1e3e2" d="M600 0h100v100H600z"/><path fill="#e4dadb" d="M700 0h100v100H700z"/><path fill="#8fb598" d="M0 100h100v100H0z"/><path fill="#c3c9b3" d="M100 100h100v100H100z"/><path fill="#a09294" d="M200 100h100v100H200z"/><path fill="#a39a9d" d="M300 100h100v100H300z"/><path fill="#b2b0b5" d="M400 100h100v100H400z"/><path fill="#d0d2cc" d="M500 100h100v100H500z"/><path fill="#d68a8c" d="M600 100h100v100H600z"/><path fill="#ad7d8c" d="M700 100h100v100H700z"/><path fill="#98ad7d" d="M0 200h100v100H0z"/><path fill="#c8c5b6" d="M100 200h100v100H100z"/><path fill="#9fa1a1" d="M200 200h100v100H200z"/><path fill="#65545f" d="M300 200h100v100H300z"/><path fill="#8b4d5f" d="M400 200h100v100H400z"/><path fill="#c78b7f" d="M500 200h100v100H500z"/><path fill="#dac19d" d="M600 200h100v100H600z"/><path fill="#e6ca7f" d="M700 200h100v100H700z"/><path fill="#d2b59d" d="M0 300h100v100H0z"/><path fill="#cab189" d="M100 300h100v100H100z"/><path fill="#aca696" d="M200 300h100v100H200z"/><path fill="#6a4d48" d="M300 300h100v100H300z"/><path fill="#a5977a" d="M400 300h100v100H400z"/><path fill="#b6b687" d="M500 300h100v100H500z"/><path fill="#f7e181" d="M600 300h100v100H600z"/><path fill="#e4d570" d="M700 300h100v100H700z"/><path fill="#dfd7c9" d="M0 400h100v100H0z"/><path fill="#e5d5bc" d="M100 400h100v100H100z"/><path fill="#e9ddc4" d="M200 400h100v100H200z"/><path fill="#b0a895" d="M300 400h100v100H300z"/><path fill="#a1aba6" d="M400 400h100v100H400z"/><path fill="#969da1" d="M500 400h100v100H500z"/><path fill="#e3cd9a" d="M600 400h100v100H600z"/><path fill="#ded2a8" d="M700 400h100v100H700z"/></svg>