<svg xmlns="http://www.w3.org/2000/svg" viewBox="0 0 800 800"><defs/><path fill="#fefefe" d="M0 0h100v100H0z"/><path fill="#fff" d="M100 0h100v100H100z"/><path fill="#fefefe" d="M200 0h100v100H200z"/><path fill="#f5ede6" d="M300 0h100v100H300z"/><path fill="#fcfbf9" d="M400 0h100v100H400z"/><path fill="#fff" d="M500 0h100v100H500z"/><path fill="#fefdfd" d="M600 0h100v100H600z"/><path fill="#fdfdfd" d="M700 0h100v100H700z"/><path fill="#fff" d="M0 100h100v100H0z"/><path fill="#f7f3f0" d="M100 100h100v100H100z"/><path fill="#e9d4c0" d="M200 100h100v100H200z"/><path fill="#e6a977" d="M300 100h100v100H300z"/><path fill="#e1b590" d="M400 100h100v100H400z"/><path fill="#f0e5d9" d="M500 100h100v100H500z"/><path fill="#feffff" d="M600 100h100v100H600z"/><path fill="#fefefe" d="M700 100h100v100H700z"/><path fill="#fcf9f6" d="M0 200h100v100H0z"/><path fill="#e1bd9e" d="M100 200h100v100H100z"/><path fill="#e5b185" d="M200 200h100v100H200z"/><path fill="#d5894f" d="M300 200h100v100H300z"/><path fill="#dba066" d="M400 200h100v100H400z"/><path fill="#edcaa0" d="M500 200h100v100H500z"/><path fill="#e9d4c0" d="M600 200h100v100H600z"/><path fill="#faf7f4" d="M700 200h100v100H700z"/><path fill="#fff8f3" d="M0 300h100v100H0z"/><path fill="#d3b997" d="M100 300h100v100H100z"/><path fill="#978c6e" d="M200 300h100v100H200z"/><path fill="#be8557" d="M300 300h100v100H300z"/><path fill="#b89465" d="M400 300h100v100H400z"/><path fill="#ceb99c" d="M500 300h100v100H500z"/><path fill="#bea68a" d="M600 300h100v100H600z"/><path fill="#d6ccc1" d="M700 300h100v100H700z"/><path fill="#fffbf7" d="M0 400h100v100H0z"/><path fill="#d7a980" d="M100 400h100v100H100z"/><path fill="#9c653c" d="M200 400h100v100H200z"/><path fill="#c0794e" d="M300 400h100v100H300z"/><path fill="#d28551" d="M400 400h100v100H400z"/><path fill="#b7957d" d="M500 400h100v100H500z"/><path fill="#8d7b6b" d="M600 400h100v100H600z"/><path fill="#dacabd" d="M700 400h100v100H700z"/><path fill="#fdfdfc" d="M0 500h100v100H0z"/><path fill="#e3c5ab" d="M100 500h100v100H100z"/><path fill="#e1a372" d="M200 500h100v100H200z"/><path fill="#cc8758" d="M300 500h100v100H300z"/><path fill="#cd8a5a" d="M400 500h100v100H400z"/><path fill="#8b735b" d="M500 500h100v100H500z"/><path fill="#895c3e" d="M600 500h100v100H600z"/><path fill="#f0d9c6" d="M700 500h100v100H700z"/><path fill="#fefefe" d="M0 600h100v100H0z"/><path fill="#feffff" d="M100 600h100v100H100z"/><path fill="#f4f1ea" d="M200 600h100v100H200z"/><path fill="#efcfb3" d="M300 600h100v100H300z"/><path fill="#dda679" d="M400 600h100v100H400z"/><path fill="#b17f54" d="M500 600h100v100H500z"/><path fill="#deba9d" d="M600 600h100v100H600z"/><path fill="#f8f6f3" d="M700 600h100v100H700z"/><path fill="#fdfdfd" d="M0 700h100v100H0z"/><path fill="#fdfcfd" d="M100 700h100v100H100z"/><path fill="#fff" d="M200 700h100v100H200z"/><path fill="#fcfdfd" d="M300 700h100v100H300z"/><path fill="#f0e3d7" d="M400 700h100v100H400z"/><path fill="#f7ede4" d="M500 700h100v100H500z"/><path fill="#fff" d="M600 700h100v100H600z"/><path fill="#fefefe" d="M700 700h100v100H700z"/></svg>