<svg xmlns="http://www.w3.org/2000/svg" viewBox="0 0 800 500"><defs/><path fill="#f4f4f4" d="M0 0h100v100H0z"/><path fill="#e9e9e9" d="M100 0h100v100H100z"/><path fill="#f3f3f3" d="M200 0h100v100H200z"/><path fill="#fafafa" d="M300 0h100v100H300z"/><path fill="#f4f4f4" d="M400 0h100v100H400z"/><path fill="#f7f7f7" d="M500 0h100v100H500z"/><path fill="#f3f3f3" d="M600 0h100v100H600z"/><path fill="#f4f4f4" d="M700 0h100v100H700z"/><path fill="#eaeaea" d="M0 100h100v100H0z"/><path fill="#b3b3b2" d="M100 100h100v100H100z"/><path fill="#cbcaca" d="M200 100h100v100H200z"/><path fill="#9a9a9b" d="M300 100h100v100H300z"/><path fill="#605f5f" d="M400 100h100v100H400z"/><path fill="#a9a9a9" d="M500 100h100v100H500z"/><path fill="#b8b8b8" d="M600 100h100v100H600z"/><path fill="#d1d1d1" d="M700 100h100v100H700z"/><path fill="#dedede" d="M0 200h100v100H0z"/><path fill="#bdbdbd" d="M100 200h100v100H100z"/><path fill="#cfcac8" d="M200 200h100v100H200z"/><path fill="#a5a6a5" d="M300 200h100v100H300z"/><path fill="#646464" d="M400 200h100v100H400z"/><path fill="#bbbaba" d="M500 200h100v100H500z"/><path fill="#dadada" d="M600 200h100v100H600z"/><path fill="#d6d6d6" d="M700 200h100v100H700z"/><path fill="#c9c9c9" d="M0 300h100v100H0z"/><path fill="#8d8d8d" d="M100 300h100v100H100z"/><path fill="#9e9d9e" d="M200 300h100v100H200z"/><path fill="#dcdcdc" d="M300 300h100v100H300z"/><path fill="#dadada" d="M400 300h100v100H400z"/><path fill="#c4c4c4" d="M500 300h100v100H500z"/><path fill="#9d9d9d" d="M600 300h100v100H600z"/><path fill="#cacaca" d="M700 300h100v100H700z"/><path fill="#cecece" d="M0 400h100v100H0z"/><path fill="#acabab" d="M100 400h100v100H100z"/><path fill="#bfbfbf" d="M200 400h100v100H200z"/><path fill="#f7f7f7" d="M300 400h100v100H300z"/><path fill="#f8f7f7" d="M400 400h100v100H400z"/><path fill="#ededed" d="M500 400h100v100H500z"/><path fill="#b6b6b6" d="M600 400h100v100H600z"/><path fill="#bbb" d="M700 400h100v100H700z"/></svg>