<svg xmlns="http://www.w3.org/2000/svg" viewBox="0 0 800 600"><defs/><path fill="#979594" d="M0 0h100v100H0z"/><path fill="#999796" d="M100 0h100v100H100z"/><path fill="#9d9b9a" d="M200 0h100v100H200z"/><path fill="#908d8f" d="M300 0h100v100H300z"/><path fill="#908d8e" d="M400 0h100v100H400z"/><path fill="#a79a95" d="M500 0h100v100H500z"/><path fill="#aba9a8" d="M600 0h100v100H600z"/><path fill="#b7b5b5" d="M700 0h100v100H700z"/><path fill="#989798" d="M0 100h100v100H0z"/><path fill="#959595" d="M100 100h100v100H100z"/><path fill="#9c9b9b" d="M200 100h100v100H200z"/><path fill="#8f8c93" d="M300 100h100v100H300z"/><path fill="#938d91" d="M400 100h100v100H400z"/><path fill="#a26e62" d="M500 100h100v100H500z"/><path fill="#ada19f" d="M600 100h100v100H600z"/><path fill="#b8b9ba" d="M700 100h100v100H700z"/><path fill="#979797" d="M0 200h100v100H0z"/><path fill="#919193" d="M100 200h100v100H100z"/><path fill="#9f9f9f" d="M200 200h100v100H200z"/><path fill="#979899" d="M300 200h100v100H300z"/><path fill="#899196" d="M400 200h100v100H400z"/><path fill="#a69b98" d="M500 200h100v100H500z"/><path fill="#bab6b6" d="M600 200h100v100H600z"/><path fill="#b8b8b9" d="M700 200h100v100H700z"/><path fill="#919193" d="M0 300h100v100H0z"/><path fill="#8f8f91" d="M100 300h100v100H100z"/><path fill="#a0a1a4" d="M200 300h100v100H200z"/><path fill="#999891" d="M300 300h100v100H300z"/><path fill="#897a66" d="M400 300h100v100H400z"/><path fill="#9fa9ad" d="M500 300h100v100H500z"/><path fill="#afb0b1" d="M600 300h100v100H600z"/><path fill="#b3b2b0" d="M700 300h100v100H700z"/><path fill="#909193" d="M0 400h100v100H0z"/><path fill="#8a8b8c" d="M100 400h100v100H100z"/><path fill="#9a9ca1" d="M200 400h100v100H200z"/><path fill="#a19089" d="M300 400h100v100H300z"/><path fill="#a47457" d="M400 400h100v100H400z"/><path fill="#9c9397" d="M500 400h100v100H500z"/><path fill="#a17f87" d="M600 400h100v100H600z"/><path fill="#9d949b" d="M700 400h100v100H700z"/><path fill="#8a8a8c" d="M0 500h100v100H0z"/><path fill="#929296" d="M100 500h100v100H100z"/><path fill="#999a9d" d="M200 500h100v100H200z"/><path fill="#9f9ea2" d="M300 500h100v100H300z"/><path fill="#9da0a6" d="M400 500h100v100H400z"/><path fill="#95787b" d="M500 500h100v100H500z"/><path fill="#a16671" d="M600 500h100v100H600z"/><path fill="#a09ba4" d="M700 500h100v100H700z"/></svg>