<svg xmlns="http://www.w3.org/2000/svg" viewBox="0 0 800 500"><defs/><path fill="#c4cacf" d="M0 0h100v100H0z"/><path fill="#bebdb9" d="M100 0h100v100H100z"/><path fill="#bfc3c9" d="M200 0h100v100H200z"/><path fill="#c1cad5" d="M300 0h100v100H300z"/><path fill="#c2c9d2" d="M400 0h100v100H400z"/><path fill="#c2c9d1" d="M500 0h100v100H500z"/><path fill="#c2c8cf" d="M600 0h100v100H600z"/><path fill="#c5cad0" d="M700 0h100v100H700z"/><path fill="#929faa" d="M0 100h100v100H0z"/><path fill="#6a6553" d="M100 100h100v100H100z"/><path fill="#6c86a0" d="M200 100h100v100H200z"/><path fill="#7090b1" d="M300 100h100v100H300z"/><path fill="#6c8bab" d="M400 100h100v100H400z"/><path fill="#718fb1" d="M500 100h100v100H500z"/><path fill="#7392b3" d="M600 100h100v100H600z"/><path fill="#829ab6" d="M700 100h100v100H700z"/><path fill="#92999d" d="M0 200h100v100H0z"/><path fill="#6c6958" d="M100 200h100v100H100z"/><path fill="#7d93a5" d="M200 200h100v100H200z"/><path fill="#7f95a8" d="M300 200h100v100H300z"/><path fill="#7492b2" d="M400 200h100v100H400z"/><path fill="#7d8f9e" d="M500 200h100v100H500z"/><path fill="#8695a2" d="M600 200h100v100H600z"/><path fill="#93a8ba" d="M700 200h100v100H700z"/><path fill="#818179" d="M0 300h100v100H0z"/><path fill="#79663f" d="M100 300h100v100H100z"/><path fill="#b79d63" d="M200 300h100v100H200z"/><path fill="#a38b54" d="M300 300h100v100H300z"/><path fill="#ad9f73" d="M400 300h100v100H400z"/><path fill="#b0a97d" d="M500 300h100v100H500z"/><path fill="#a49b7a" d="M600 300h100v100H600z"/><path fill="#9a9495" d="M700 300h100v100H700z"/><path fill="#aaa89c" d="M0 400h100v100H0z"/><path fill="#b8a88d" d="M100 400h100v100H100z"/><path fill="#cdbea2" d="M200 400h100v100H200z"/><path fill="#c5ba9c" d="M300 400h100v100H300z"/><path fill="#cebd94" d="M400 400h100v100H400z"/><path fill="#d0c38a" d="M500 400h100v100H500z"/><path fill="#cabb8b" d="M600 400h100v100H600z"/><path fill="#b5a898" d="M700 400h100v100H700z"/></svg>