<svg xmlns="http://www.w3.org/2000/svg" viewBox="0 0 800 400"><defs/><path fill="#e9e9e9" d="M0 0h100v100H0z"/><path fill="#ededed" d="M100 0h100v100H100z"/><path fill="#e0e0e0" d="M200 0h100v100H200z"/><path fill="#fbfbfb" d="M300 0h100v100H300z"/><path fill="#f0f0f0" d="M400 0h100v100H400z"/><path fill="#e8e8e8" d="M500 0h100v100H500z"/><path fill="#f1f1f1" d="M600 0h100v100H600z"/><path fill="#f2f2f2" d="M700 0h100v100H700z"/><path fill="#d8d8d8" d="M0 100h100v100H0z"/><path fill="#d9d9d9" d="M100 100h100v100H100z"/><path fill="#bcbcbc" d="M200 100h100v100H200z"/><path fill="#eaeaea" d="M300 100h100v100H300zm100 0h100v100H400z"/><path fill="#e3e3e3" d="M500 100h100v100H500z"/><path fill="#bfbfbf" d="M600 100h100v100H600z"/><path fill="#d5d5d5" d="M700 100h100v100H700z"/><path fill="#d2d2d2" d="M0 200h100v100H0z"/><path fill="#bbb" d="M100 200h100v100H100z"/><path fill="#adadad" d="M200 200h100v100H200z"/><path fill="#b4b4b4" d="M300 200h100v100H300z"/><path fill="#bebebe" d="M400 200h100v100H400z"/><path fill="#adadad" d="M500 200h100v100H500z"/><path fill="#b3b3b3" d="M600 200h100v100H600z"/><path fill="#d9d9d9" d="M700 200h100v100H700z"/><path fill="#bbb" d="M0 300h100v100H0z"/><path fill="#9f9f9f" d="M100 300h100v100H100z"/><path fill="#ababab" d="M200 300h100v100H200z"/><path fill="#d7d7d7" d="M300 300h100v100H300z"/><path fill="#cdcdcd" d="M400 300h100v100H400z"/><path fill="#cacaca" d="M500 300h100v100H500z"/><path fill="#a3a3a3" d="M600 300h100v100H600z"/><path fill="#bdbdbd" d="M700 300h100v100H700z"/></svg>