<svg xmlns="http://www.w3.org/2000/svg" viewBox="0 0 800 500"><defs/><path fill="#b47d6b" d="M0 0h100v100H0z"/><path fill="#947959" d="M100 0h100v100H100z"/><path fill="#ada29b" d="M200 0h100v100H200z"/><path fill="#919691" d="M300 0h100v100H300z"/><path fill="#9da18f" d="M400 0h100v100H400z"/><path fill="#a79fa3" d="M500 0h100v100H500z"/><path fill="#c2b4b4" d="M600 0h100v100H600z"/><path fill="#ddecec" d="M700 0h100v100H700z"/><path fill="#ab6a4e" d="M0 100h100v100H0z"/><path fill="#784930" d="M100 100h100v100H100z"/><path fill="#a5a59e" d="M200 100h100v100H200z"/><path fill="#a6928d" d="M300 100h100v100H300z"/><path fill="#857c76" d="M400 100h100v100H400z"/><path fill="#bbafa4" d="M500 100h100v100H500z"/><path fill="#cac7b8" d="M600 100h100v100H600z"/><path fill="#d3e3e1" d="M700 100h100v100H700z"/><path fill="#773f37" d="M0 200h100v100H0z"/><path fill="#714a40" d="M100 200h100v100H100z"/><path fill="#b0988e" d="M200 200h100v100H200z"/><path fill="#a67a70" d="M300 200h100v100H300z"/><path fill="#7c6053" d="M400 200h100v100H400z"/><path fill="#916a56" d="M500 200h100v100H500z"/><path fill="#b7b2a2" d="M600 200h100v100H600z"/><path fill="#cfc2c7" d="M700 200h100v100H700z"/><path fill="#5a3922" d="M0 300h100v100H0z"/><path fill="#795543" d="M100 300h100v100H100z"/><path fill="#e5b9af" d="M200 300h100v100H200z"/><path fill="#9a9389" d="M300 300h100v100H300z"/><path fill="#89807a" d="M400 300h100v100H400z"/><path fill="#eadcd1" d="M500 300h100v100H500z"/><path fill="#dfaeac" d="M600 300h100v100H600z"/><path fill="#f195ab" d="M700 300h100v100H700z"/><path fill="#b79079" d="M0 400h100v100H0z"/><path fill="#bc948e" d="M100 400h100v100H100z"/><path fill="#ab909f" d="M200 400h100v100H200z"/><path fill="#cdb0a8" d="M300 400h100v100H300z"/><path fill="#d8c7c2" d="M400 400h100v100H400z"/><path fill="#e4d5cc" d="M500 400h100v100H500z"/><path fill="#e4b9b2" d="M600 400h100v100H600z"/><path fill="#f2b5c2" d="M700 400h100v100H700z"/></svg>