<svg xmlns="http://www.w3.org/2000/svg" viewBox="0 0 800 400"><defs/><path fill="#a38dae" d="M0 0h100v100H0z"/><path fill="#a99599" d="M100 0h100v100H100z"/><path fill="#a5afbe" d="M200 0h100v100H200z"/><path fill="#a5a4bb" d="M300 0h100v100H300z"/><path fill="#b78ca9" d="M400 0h100v100H400z"/><path fill="#c1bdcd" d="M500 0h100v100H500z"/><path fill="#b4bec9" d="M600 0h100v100H600z"/><path fill="#a796b7" d="M700 0h100v100H700z"/><path fill="#a58fab" d="M0 100h100v100H0z"/><path fill="#a89195" d="M100 100h100v100H100z"/><path fill="#8f7377" d="M200 100h100v100H200z"/><path fill="#937a97" d="M300 100h100v100H300z"/><path fill="#9c7497" d="M400 100h100v100H400z"/><path fill="#a88cbc" d="M500 100h100v100H500z"/><path fill="#9076a3" d="M600 100h100v100H600z"/><path fill="#af92be" d="M700 100h100v100H700z"/><path fill="#a892a3" d="M0 200h100v100H0z"/><path fill="#a6979c" d="M100 200h100v100H100z"/><path fill="#957c8e" d="M200 200h100v100H200z"/><path fill="#9d9097" d="M300 200h100v100H300z"/><path fill="#9e9295" d="M400 200h100v100H400z"/><path fill="#a38c8f" d="M500 200h100v100H500z"/><path fill="#8e7b87" d="M600 200h100v100H600z"/><path fill="#827698" d="M700 200h100v100H700z"/><path fill="#a6959c" d="M0 300h100v100H0z"/><path fill="#cecbc8" d="M100 300h100v100H100z"/><path fill="#9b9693" d="M200 300h100v100H200z"/><path fill="#cfcecd" d="M300 300h100v100H300z"/><path fill="#e5e8e3" d="M400 300h100v100H400z"/><path fill="#c7b9a0" d="M500 300h100v100H500z"/><path fill="#a0927c" d="M600 300h100v100H600z"/><path fill="#89817d" d="M700 300h100v100H700z"/></svg>