<svg xmlns="http://www.w3.org/2000/svg" viewBox="0 0 800 500"><defs/><path fill="#7c5d56" d="M0 0h100v100H0z"/><path fill="#c4c3c9" d="M100 0h100v100H100z"/><path fill="#cfd0d8" d="M200 0h100v100H200z"/><path fill="#d4d6db" d="M300 0h100v100H300z"/><path fill="#d6d8dd" d="M400 0h100v100H400z"/><path fill="#d6d7dc" d="M500 0h100v100H500z"/><path fill="#c7c9cd" d="M600 0h100v100H600z"/><path fill="#cfd0d5" d="M700 0h100v100H700z"/><path fill="#958787" d="M0 100h100v100H0z"/><path fill="#cbcfd5" d="M100 100h100v100H100z"/><path fill="#d3d6dc" d="M200 100h100v100H200z"/><path fill="#c6c8cd" d="M300 100h100v100H300z"/><path fill="#c1c4c8" d="M400 100h100v100H400z"/><path fill="#dadee2" d="M500 100h100v100H500z"/><path fill="#cccdd1" d="M600 100h100v100H600z"/><path fill="#c7c8cc" d="M700 100h100v100H700z"/><path fill="#b9bdc5" d="M0 200h100v100H0z"/><path fill="#c7cbd3" d="M100 200h100v100H100z"/><path fill="#d1d6dc" d="M200 200h100v100H200z"/><path fill="#b2b5ba" d="M300 200h100v100H300z"/><path fill="#c1c5ca" d="M400 200h100v100H400z"/><path fill="#c4c8cc" d="M500 200h100v100H500z"/><path fill="#c2c3c8" d="M600 200h100v100H600z"/><path fill="#ccccd2" d="M700 200h100v100H700z"/><path fill="#aaadb5" d="M0 300h100v100H0z"/><path fill="#b0b2bc" d="M100 300h100v100H100z"/><path fill="#b8b8c1" d="M200 300h100v100H200z"/><path fill="#969aa1" d="M300 300h100v100H300z"/><path fill="#8b8b88" d="M400 300h100v100H400z"/><path fill="#969799" d="M500 300h100v100H500z"/><path fill="#aaa9b6" d="M600 300h100v100H600z"/><path fill="#c6c8cd" d="M700 300h100v100H700z"/><path fill="#91949d" d="M0 400h100v100H0z"/><path fill="#9c9eaa" d="M100 400h100v100H100z"/><path fill="#a7a8b4" d="M200 400h100v100H200z"/><path fill="#909aa6" d="M300 400h100v100H300z"/><path fill="#999fa3" d="M400 400h100v100H400z"/><path fill="#9ca1a6" d="M500 400h100v100H500z"/><path fill="#a8aab2" d="M600 400h100v100H600z"/><path fill="#bebfc6" d="M700 400h100v100H700z"/></svg>