<svg xmlns="http://www.w3.org/2000/svg" viewBox="0 0 800 1100"><defs/><path fill="#d9c0a5" d="M0 0h100v100H0z"/><path fill="#eae5d5" d="M100 0h100v100H100z"/><path fill="#c5d1d4" d="M200 0h100v100H200z"/><path fill="#fff9ea" d="M300 0h100v100H300z"/><path fill="#fef9ed" d="M400 0h100v100H400z"/><path fill="#fffdf1" d="M500 0h100v100H500z"/><path fill="#fcf5e8" d="M600 0h100v100H600z"/><path fill="#fef7e6" d="M700 0h100v100H700z"/><path fill="#e7d4bc" d="M0 100h100v100H0z"/><path fill="#fcf6e6" d="M100 100h100v100H100z"/><path fill="#deeaea" d="M200 100h100v100H200z"/><path fill="#fefff5" d="M300 100h100v100H300z"/><path fill="#fdf1df" d="M400 100h100v100H400z"/><path fill="#f8e0c4" d="M500 100h100v100H500z"/><path fill="#fffff6" d="M600 100h100v100H600z"/><path fill="#f9f2df" d="M700 100h100v100H700z"/><path fill="#eadac5" d="M0 200h100v100H0z"/><path fill="#fcf9eb" d="M100 200h100v100H100z"/><path fill="#c2a085" d="M200 200h100v100H200z"/><path fill="#cd9d78" d="M300 200h100v100H300z"/><path fill="#a77048" d="M400 200h100v100H400z"/><path fill="#623316" d="M500 200h100v100H500z"/><path fill="#b7aa9b" d="M600 200h100v100H600z"/><path fill="#e2d5c5" d="M700 200h100v100H700z"/><path fill="#8e7e73" d="M0 300h100v100H0z"/><path fill="#c5a78d" d="M100 300h100v100H100z"/><path fill="#c1895a" d="M200 300h100v100H200z"/><path fill="#cc7a4d" d="M300 300h100v100H300z"/><path fill="#7d4224" d="M400 300h100v100H400z"/><path fill="#230d06" d="M500 300h100v100H500z"/><path fill="#50250e" d="M600 300h100v100H600z"/><path fill="#ac917b" d="M700 300h100v100H700z"/><path fill="#837471" d="M0 400h100v100H0z"/><path fill="#e9c3a3" d="M100 400h100v100H100z"/><path fill="#ffeac9" d="M200 400h100v100H200z"/><path fill="#bf8866" d="M300 400h100v100H300z"/><path fill="#51200a" d="M400 400h100v100H400z"/><path fill="#af5f39" d="M500 400h100v100H500z"/><path fill="#ca7b51" d="M600 400h100v100H600z"/><path fill="#ab856b" d="M700 400h100v100H700z"/><path fill="#a1adbd" d="M0 500h100v100H0z"/><path fill="#c2c2c4" d="M100 500h100v100H100z"/><path fill="#c9b5a5" d="M200 500h100v100H200z"/><path fill="#d0b298" d="M300 500h100v100H300z"/><path fill="#99735e" d="M400 500h100v100H400z"/><path fill="#9d502f" d="M500 500h100v100H500z"/><path fill="#bf6f49" d="M600 500h100v100H600z"/><path fill="#e8b899" d="M700 500h100v100H700z"/><path fill="#a6b5c3" d="M0 600h100v100H0z"/><path fill="#9ba6b4" d="M100 600h100v100H100z"/><path fill="#e5dcd2" d="M200 600h100v100H200z"/><path fill="#fffff9" d="M300 600h100v100H300z"/><path fill="#faeedf" d="M400 600h100v100H400z"/><path fill="#ae6447" d="M500 600h100v100H500z"/><path fill="#c36941" d="M600 600h100v100H600z"/><path fill="#b37e5f" d="M700 600h100v100H700z"/><path fill="#aebcc7" d="M0 700h100v100H0z"/><path fill="#dcdfdd" d="M100 700h100v100H100z"/><path fill="#fffff3" d="M200 700h100v100H200z"/><path fill="#fffef1" d="M300 700h100v100H300z"/><path fill="#eee4d2" d="M400 700h100v100H400z"/><path fill="#795140" d="M500 700h100v100H500z"/><path fill="#76381d" d="M600 700h100v100H600z"/><path fill="#4f3a31" d="M700 700h100v100H700z"/><path fill="#b8aba4" d="M0 800h100v100H0z"/><path fill="#f5e5d3" d="M100 800h100v100H100z"/><path fill="#d8c4b0" d="M200 800h100v100H200z"/><path fill="#e4d2c0" d="M300 800h100v100H300z"/><path fill="#e6ddd1" d="M400 800h100v100H400z"/><path fill="#55545d" d="M500 800h100v100H500z"/><path fill="#3d414c" d="M600 800h100v100H600z"/><path fill="#434b57" d="M700 800h100v100H700z"/><path fill="#607b98" d="M0 900h100v100H0z"/><path fill="#c09b7d" d="M100 900h100v100H100z"/><path fill="#a25320" d="M200 900h100v100H200z"/><path fill="#a8663c" d="M300 900h100v100H300z"/><path fill="#a49b94" d="M400 900h100v100H400z"/><path fill="#545664" d="M500 900h100v100H500z"/><path fill="#5d6b7c" d="M600 900h100v100H600z"/><path fill="#576c80" d="M700 900h100v100H700z"/><path fill="#969593" d="M0 1000h100v100H0z"/><path fill="#b5642a" d="M100 1000h100v100H100z"/><path fill="#a16540" d="M200 1000h100v100H200z"/><path fill="#9f5624" d="M300 1000h100v100H300z"/><path fill="#8d735e" d="M400 1000h100v100H400z"/><path fill="#4e5e73" d="M500 1000h100v100H500z"/><path fill="#616577" d="M600 1000h100v100H600z"/><path fill="#678ba4" d="M700 1000h100v100H700z"/></svg>