<svg xmlns="http://www.w3.org/2000/svg" viewBox="0 0 800 600"><defs/><path fill="#599f3f" d="M0 0h100v100H0z"/><path fill="#b2a88d" d="M100 0h100v100H100z"/><path fill="#dac7ca" d="M200 0h100v100H200z"/><path fill="#d0d2e9" d="M300 0h100v100H300z"/><path fill="#e3d9e8" d="M400 0h100v100H400z"/><path fill="#e0c6d6" d="M500 0h100v100H500z"/><path fill="#d1b5c3" d="M600 0h100v100H600z"/><path fill="#928e75" d="M700 0h100v100H700z"/><path fill="#3f9c29" d="M0 100h100v100H0z"/><path fill="#be9f9a" d="M100 100h100v100H100z"/><path fill="#e2bab4" d="M200 100h100v100H200z"/><path fill="#d5c7b9" d="M300 100h100v100H300z"/><path fill="#dac9ca" d="M400 100h100v100H400z"/><path fill="#bfbba2" d="M500 100h100v100H500z"/><path fill="#a3b8a6" d="M600 100h100v100H600z"/><path fill="#b1a498" d="M700 100h100v100H700z"/><path fill="#5ca44d" d="M0 200h100v100H0z"/><path fill="#d386a3" d="M100 200h100v100H100z"/><path fill="#b1938e" d="M200 200h100v100H200z"/><path fill="#b5717b" d="M300 200h100v100H300z"/><path fill="#d2b9b5" d="M400 200h100v100H400z"/><path fill="#c5b5b8" d="M500 200h100v100H500z"/><path fill="#958896" d="M600 200h100v100H600z"/><path fill="#aaa4ac" d="M700 200h100v100H700z"/><path fill="#739b5c" d="M0 300h100v100H0z"/><path fill="#e37a99" d="M100 300h100v100H100z"/><path fill="#af8c84" d="M200 300h100v100H200z"/><path fill="#95776b" d="M300 300h100v100H300z"/><path fill="#c2a385" d="M400 300h100v100H400z"/><path fill="#daab9a" d="M500 300h100v100H500z"/><path fill="#b18b85" d="M600 300h100v100H600z"/><path fill="#87757d" d="M700 300h100v100H700z"/><path fill="#98957b" d="M0 400h100v100H0z"/><path fill="#abaf9c" d="M100 400h100v100H100z"/><path fill="#b9d1b4" d="M200 400h100v100H200z"/><path fill="#b7b8c7" d="M300 400h100v100H300z"/><path fill="#bcaead" d="M400 400h100v100H400z"/><path fill="#c4c9c1" d="M500 400h100v100H500z"/><path fill="#cda699" d="M600 400h100v100H600z"/><path fill="#b999b4" d="M700 400h100v100H700z"/><path fill="#c5b3a4" d="M0 500h100v100H0z"/><path fill="#afc9b0" d="M100 500h100v100H100z"/><path fill="#d9cdc1" d="M200 500h100v100H200z"/><path fill="#ecd1dd" d="M300 500h100v100H300z"/><path fill="#cbafbc" d="M400 500h100v100H400z"/><path fill="#a1acbf" d="M500 500h100v100H500z"/><path fill="#d8b7a5" d="M600 500h100v100H600z"/><path fill="#98887f" d="M700 500h100v100H700z"/></svg>