<svg xmlns="http://www.w3.org/2000/svg" viewBox="0 0 800 300"><defs/><path fill="#dedfe0" d="M0 0h100v100H0z"/><path fill="#d7d8d8" d="M100 0h100v100H100z"/><path fill="#e9ebeb" d="M200 0h100v100H200z"/><path fill="#f5f5f5" d="M300 0h100v100H300z"/><path fill="#fafafa" d="M400 0h100v100H400z"/><path fill="#fbfbfb" d="M500 0h100v100H500z"/><path fill="#f5f5f5" d="M600 0h100v100H600z"/><path fill="#f3f3f3" d="M700 0h100v100H700z"/><path fill="#f3f3f5" d="M0 100h100v100H0z"/><path fill="#ededee" d="M100 100h100v100H100z"/><path fill="#f3f3f3" d="M200 100h100v100H200z"/><path fill="#ebebeb" d="M300 100h100v100H300z"/><path fill="#f5f5f5" d="M400 100h100v100H400z"/><path fill="#ededed" d="M500 100h100v100H500z"/><path fill="#efefef" d="M600 100h100v100H600z"/><path fill="#e2e2e2" d="M700 100h100v100H700zM0 200h100v100H0z"/><path fill="#dbdbdb" d="M100 200h100v100H100z"/><path fill="#e8e8e9" d="M200 200h100v100H200z"/><path fill="#e1e0e1" d="M300 200h100v100H300z"/><path fill="#e1e1e1" d="M400 200h100v100H400z"/><path fill="#c6c6c6" d="M500 200h100v100H500z"/><path fill="#e7e7e7" d="M600 200h100v100H600z"/><path fill="#cfcfcf" d="M700 200h100v100H700z"/></svg>