<svg xmlns="http://www.w3.org/2000/svg" viewBox="0 0 800 500"><defs/><path fill="#bbc1ce" d="M0 0h100v100H0z"/><path fill="#777da1" d="M100 0h100v100H100z"/><path fill="#a0a3bb" d="M200 0h100v100H200z"/><path fill="#9b9bb3" d="M300 0h100v100H300z"/><path fill="#9c9db5" d="M400 0h100v100H400z"/><path fill="#9d9cb6" d="M500 0h100v100H500z"/><path fill="#b6bacd" d="M600 0h100v100H600z"/><path fill="#d2d8e5" d="M700 0h100v100H700z"/><path fill="#9ba2ba" d="M0 100h100v100H0z"/><path fill="#2b3b69" d="M100 100h100v100H100z"/><path fill="#7d88ae" d="M200 100h100v100H200z"/><path fill="#6d75a9" d="M300 100h100v100H300z"/><path fill="#6e79ad" d="M400 100h100v100H400z"/><path fill="#5f6897" d="M500 100h100v100H500z"/><path fill="#838caf" d="M600 100h100v100H600z"/><path fill="#9396c1" d="M700 100h100v100H700z"/><path fill="#8f97b1" d="M0 200h100v100H0z"/><path fill="#3e4978" d="M100 200h100v100H100z"/><path fill="#8991aa" d="M200 200h100v100H200z"/><path fill="#8f8cab" d="M300 200h100v100H300z"/><path fill="#928fb0" d="M400 200h100v100H400z"/><path fill="#8e89a8" d="M500 200h100v100H500z"/><path fill="#737c94" d="M600 200h100v100H600z"/><path fill="#73809a" d="M700 200h100v100H700z"/><path fill="#7d83a4" d="M0 300h100v100H0z"/><path fill="#222b63" d="M100 300h100v100H100z"/><path fill="#3f318d" d="M200 300h100v100H200z"/><path fill="#404b8f" d="M300 300h100v100H300z"/><path fill="#41477d" d="M400 300h100v100H400z"/><path fill="#43558b" d="M500 300h100v100H500z"/><path fill="#323977" d="M600 300h100v100H600z"/><path fill="#5e7588" d="M700 300h100v100H700z"/><path fill="#979cb1" d="M0 400h100v100H0z"/><path fill="#5e668d" d="M100 400h100v100H100z"/><path fill="#6b6fa7" d="M200 400h100v100H200z"/><path fill="#939fc3" d="M300 400h100v100H300z"/><path fill="#6a7399" d="M400 400h100v100H400z"/><path fill="#657ea0" d="M500 400h100v100H500z"/><path fill="#676ca0" d="M600 400h100v100H600z"/><path fill="#7f80a4" d="M700 400h100v100H700z"/></svg>