<svg xmlns="http://www.w3.org/2000/svg" viewBox="0 0 800 500"><defs/><path fill="#e1d2cf" d="M0 0h100v100H0z"/><path fill="#c0bed7" d="M100 0h100v100H100z"/><path fill="#d0c7d2" d="M200 0h100v100H200z"/><path fill="#ded0cf" d="M300 0h100v100H300z"/><path fill="#dfd1cf" d="M400 0h100v100H400z"/><path fill="#c1bcd4" d="M500 0h100v100H500z"/><path fill="#b8b7d7" d="M600 0h100v100H600z"/><path fill="#d8cdd1" d="M700 0h100v100H700z"/><path fill="#d2c8d1" d="M0 100h100v100H0z"/><path fill="#a4abdd" d="M100 100h100v100H100z"/><path fill="#bcb9d6" d="M200 100h100v100H200z"/><path fill="#d6ccd1" d="M300 100h100v100H300z"/><path fill="#d3cad3" d="M400 100h100v100H400z"/><path fill="#b1b1d7" d="M500 100h100v100H500z"/><path fill="#a3a9db" d="M600 100h100v100H600z"/><path fill="#c7c2d4" d="M700 100h100v100H700z"/><path fill="#dcd0d1" d="M0 200h100v100H0z"/><path fill="#afb4da" d="M100 200h100v100H100z"/><path fill="#c8c1d4" d="M200 200h100v100H200z"/><path fill="#dbcfd0" d="M300 200h100v100H300z"/><path fill="#ded0cf" d="M400 200h100v100H400z"/><path fill="#c0bbd4" d="M500 200h100v100H500z"/><path fill="#c8c0d3" d="M600 200h100v100H600z"/><path fill="#cac4d4" d="M700 200h100v100H700z"/><path fill="#d9cfd1" d="M0 300h100v100H0z"/><path fill="#aeb3dc" d="M100 300h100v100H100z"/><path fill="#cec7d2" d="M200 300h100v100H200z"/><path fill="#e0d2cf" d="M300 300h100v100H300z"/><path fill="#c4c1d6" d="M400 300h100v100H400z"/><path fill="#dbced1" d="M500 300h100v100H500z"/><path fill="#b4b6d9" d="M600 300h100v100H600z"/><path fill="#c6c3d6" d="M700 300h100v100H700z"/><path fill="#e9d8cd" d="M0 400h100v100H0z"/><path fill="#cfc8d3" d="M100 400h100v100H100z"/><path fill="#d9cfd2" d="M200 400h100v100H200z"/><path fill="#f5e0cb" d="M300 400h100v100H300z"/><path fill="#daced0" d="M400 400h100v100H400z"/><path fill="#f0ddcc" d="M500 400h100v100H500z"/><path fill="#d6cdd3" d="M600 400h100v100H600z"/><path fill="#d7cdd1" d="M700 400h100v100H700z"/></svg>