<svg xmlns="http://www.w3.org/2000/svg" viewBox="0 0 800 500"><defs/><path fill="#e9dbe1" d="M0 0h100v100H0z"/><path fill="#deced7" d="M100 0h100v100H100z"/><path fill="#e1c2c4" d="M200 0h100v100H200z"/><path fill="#f4d3d3" d="M300 0h100v100H300z"/><path fill="#e9d6dc" d="M400 0h100v100H400z"/><path fill="#ddc3c9" d="M500 0h100v100H500z"/><path fill="#e2bfc5" d="M600 0h100v100H600z"/><path fill="#ede1e4" d="M700 0h100v100H700z"/><path fill="#c0a1af" d="M0 100h100v100H0z"/><path fill="#a1758c" d="M100 100h100v100H100z"/><path fill="#b06f7e" d="M200 100h100v100H200z"/><path fill="#c08a96" d="M300 100h100v100H300z"/><path fill="#c18591" d="M400 100h100v100H400z"/><path fill="#bb6e77" d="M500 100h100v100H500z"/><path fill="#b0545e" d="M600 100h100v100H600z"/><path fill="#d4a2a8" d="M700 100h100v100H700z"/><path fill="#bdaab8" d="M0 200h100v100H0z"/><path fill="#9b8098" d="M100 200h100v100H100z"/><path fill="#c59aa9" d="M200 200h100v100H200z"/><path fill="#bd93a1" d="M300 200h100v100H300z"/><path fill="#a89cb2" d="M400 200h100v100H400z"/><path fill="#9198bc" d="M500 200h100v100H500z"/><path fill="#9289ab" d="M600 200h100v100H600z"/><path fill="#c2aab8" d="M700 200h100v100H700z"/><path fill="#9ca3be" d="M0 300h100v100H0z"/><path fill="#837897" d="M100 300h100v100H100z"/><path fill="#7a5d75" d="M200 300h100v100H200z"/><path fill="#685875" d="M300 300h100v100H300z"/><path fill="#3f4b74" d="M400 300h100v100H400z"/><path fill="#777aa9" d="M500 300h100v100H500z"/><path fill="#797aa7" d="M600 300h100v100H600z"/><path fill="#ac9db0" d="M700 300h100v100H700z"/><path fill="#d6dbe7" d="M0 400h100v100H0z"/><path fill="#caccdb" d="M100 400h100v100H100z"/><path fill="#dcc3c9" d="M200 400h100v100H200z"/><path fill="#d5c3c9" d="M300 400h100v100H300z"/><path fill="#b5b0bd" d="M400 400h100v100H400z"/><path fill="#ddb0b0" d="M500 400h100v100H500z"/><path fill="#dfb7b8" d="M600 400h100v100H600z"/><path fill="#ddd3d7" d="M700 400h100v100H700z"/></svg>