<svg xmlns="http://www.w3.org/2000/svg" viewBox="0 0 800 500"><defs/><path fill="#e6dae4" d="M0 0h100v100H0z"/><path fill="#e4d0c8" d="M100 0h100v100H100z"/><path fill="#ede1d9" d="M200 0h100v100H200z"/><path fill="#ece1da" d="M300 0h100v100H300z"/><path fill="#ede3db" d="M400 0h100v100H400z"/><path fill="#e6d9cf" d="M500 0h100v100H500z"/><path fill="#e7d8d0" d="M600 0h100v100H600z"/><path fill="#f0e5df" d="M700 0h100v100H700z"/><path fill="#bb8d9a" d="M0 100h100v100H0z"/><path fill="#cb9280" d="M100 100h100v100H100z"/><path fill="#debea8" d="M200 100h100v100H200z"/><path fill="#f1d6ba" d="M300 100h100v100H300z"/><path fill="#efd2be" d="M400 100h100v100H400z"/><path fill="#e8d2b7" d="M500 100h100v100H500z"/><path fill="#dbb99b" d="M600 100h100v100H600z"/><path fill="#d09b8c" d="M700 100h100v100H700z"/><path fill="#d2938c" d="M0 200h100v100H0z"/><path fill="#d4a697" d="M100 200h100v100H100z"/><path fill="#c18d81" d="M200 200h100v100H200z"/><path fill="#e1b4a3" d="M300 200h100v100H300z"/><path fill="#e8cfb5" d="M400 200h100v100H400z"/><path fill="#f7cbc1" d="M500 200h100v100H500z"/><path fill="#b68879" d="M600 200h100v100H600z"/><path fill="#bf918e" d="M700 200h100v100H700z"/><path fill="#ca8a8e" d="M0 300h100v100H0z"/><path fill="#c57d6a" d="M100 300h100v100H100z"/><path fill="#b35558" d="M200 300h100v100H200z"/><path fill="#ba636a" d="M300 300h100v100H300z"/><path fill="#a66861" d="M400 300h100v100H400z"/><path fill="#78313a" d="M500 300h100v100H500z"/><path fill="#893537" d="M600 300h100v100H600z"/><path fill="#c87f71" d="M700 300h100v100H700z"/><path fill="#e4c9c8" d="M0 400h100v100H0z"/><path fill="#ebc9c5" d="M100 400h100v100H100z"/><path fill="#eac0c0" d="M200 400h100v100H200z"/><path fill="#cba6aa" d="M300 400h100v100H300z"/><path fill="#b18e93" d="M400 400h100v100H400z"/><path fill="#ba9ea0" d="M500 400h100v100H500z"/><path fill="#e0b5b7" d="M600 400h100v100H600z"/><path fill="#ebc0bb" d="M700 400h100v100H700z"/></svg>