<svg xmlns="http://www.w3.org/2000/svg" viewBox="0 0 800 500"><defs/><path fill="#403a3f" d="M0 0h100v100H0z"/><path fill="#4d4548" d="M100 0h100v100H100z"/><path fill="#494144" d="M200 0h100v100H200z"/><path fill="#6b6269" d="M300 0h100v100H300z"/><path fill="#5d5358" d="M400 0h100v100H400z"/><path fill="#493f40" d="M500 0h100v100H500z"/><path fill="#52484b" d="M600 0h100v100H600z"/><path fill="#4a4143" d="M700 0h100v100H700z"/><path fill="#675c5e" d="M0 100h100v100H0z"/><path fill="#503f3c" d="M100 100h100v100H100z"/><path fill="#3b3233" d="M200 100h100v100H200z"/><path fill="#6c6363" d="M300 100h100v100H300z"/><path fill="#554946" d="M400 100h100v100H400z"/><path fill="#453a3a" d="M500 100h100v100H500z"/><path fill="#574d4d" d="M600 100h100v100H600z"/><path fill="#4b4142" d="M700 100h100v100H700z"/><path fill="#7e7980" d="M0 200h100v100H0z"/><path fill="#524444" d="M100 200h100v100H100z"/><path fill="#493c3b" d="M200 200h100v100H200z"/><path fill="#4b3e3f" d="M300 200h100v100H300z"/><path fill="#585156" d="M400 200h100v100H400z"/><path fill="#635b5f" d="M500 200h100v100H500z"/><path fill="#524849" d="M600 200h100v100H600z"/><path fill="#504748" d="M700 200h100v100H700z"/><path fill="#595963" d="M0 300h100v100H0z"/><path fill="#4f4546" d="M100 300h100v100H100z"/><path fill="#493834" d="M200 300h100v100H200z"/><path fill="#221714" d="M300 300h100v100H300z"/><path fill="#322a2b" d="M400 300h100v100H400z"/><path fill="#534948" d="M500 300h100v100H500z"/><path fill="#544e50" d="M600 300h100v100H600z"/><path fill="#595357" d="M700 300h100v100H700z"/><path fill="#353238" d="M0 400h100v100H0z"/><path fill="#312828" d="M100 400h100v100H100z"/><path fill="#1e1411" d="M200 400h100v100H200z"/><path fill="#221611" d="M300 400h100v100H300z"/><path fill="#261b18" d="M400 400h100v100H400z"/><path fill="#241b18" d="M500 400h100v100H500z"/><path fill="#221a18" d="M600 400h100v100H600z"/><path fill="#231b1a" d="M700 400h100v100H700z"/></svg>