<svg xmlns="http://www.w3.org/2000/svg" viewBox="0 0 800 500"><defs/><path fill="#514e48" d="M0 0h100v100H0z"/><path fill="#3a322d" d="M100 0h100v100H100z"/><path fill="#4b514e" d="M200 0h100v100H200z"/><path fill="#646969" d="M300 0h100v100H300z"/><path fill="#6f6b6a" d="M400 0h100v100H400z"/><path fill="#4f5754" d="M500 0h100v100H500z"/><path fill="#5c615e" d="M600 0h100v100H600z"/><path fill="#353435" d="M700 0h100v100H700z"/><path fill="#847f77" d="M0 100h100v100H0z"/><path fill="#58473e" d="M100 100h100v100H100z"/><path fill="#97a6a6" d="M200 100h100v100H200z"/><path fill="#bec9cb" d="M300 100h100v100H300z"/><path fill="#cbc2bc" d="M400 100h100v100H400z"/><path fill="#abb3b4" d="M500 100h100v100H500z"/><path fill="#9a9e9b" d="M600 100h100v100H600z"/><path fill="#4b4745" d="M700 100h100v100H700z"/><path fill="#6b6764" d="M0 200h100v100H0z"/><path fill="#493a32" d="M100 200h100v100H100z"/><path fill="#878c8b" d="M200 200h100v100H200z"/><path fill="#aab0b3" d="M300 200h100v100H300z"/><path fill="#b9bbbb" d="M400 200h100v100H400z"/><path fill="#818788" d="M500 200h100v100H500z"/><path fill="#6b6b6c" d="M600 200h100v100H600z"/><path fill="#302d2a" d="M700 200h100v100H700z"/><path fill="#504842" d="M0 300h100v100H0z"/><path fill="#453a29" d="M100 300h100v100H100z"/><path fill="#544031" d="M200 300h100v100H200z"/><path fill="#594f47" d="M300 300h100v100H300z"/><path fill="#5e5e5f" d="M400 300h100v100H400z"/><path fill="#918c89" d="M500 300h100v100H500z"/><path fill="#5f554d" d="M600 300h100v100H600z"/><path fill="#221d19" d="M700 300h100v100H700z"/><path fill="#261f1c" d="M0 400h100v100H0z"/><path fill="#2d2219" d="M100 400h100v100H100z"/><path fill="#34271f" d="M200 400h100v100H200z"/><path fill="#2d241f" d="M300 400h100v100H300z"/><path fill="#373534" d="M400 400h100v100H400z"/><path fill="#68615d" d="M500 400h100v100H500z"/><path fill="#362c24" d="M600 400h100v100H600z"/><path fill="#191412" d="M700 400h100v100H700z"/></svg>