<svg xmlns="http://www.w3.org/2000/svg" viewBox="0 0 800 600"><defs/><path fill="#fff" d="M0 0h100v100H0z"/><path fill="#fefeff" d="M100 0h100v100H100z"/><path fill="#fff" d="M200 0h100v100H200z"/><path fill="#f6f8fe" d="M300 0h100v100H300zm100 0h100v100H400z"/><path fill="#fff" d="M500 0h100v100H500zm100 0h100v100H600zm100 0h100v100H700z"/><path fill="#d5dbc2" d="M0 100h100v100H0z"/><path fill="#aa9d7f" d="M100 100h100v100H100z"/><path fill="#c0c196" d="M200 100h100v100H200z"/><path fill="#b2b59e" d="M300 100h100v100H300z"/><path fill="#c7c4a5" d="M400 100h100v100H400z"/><path fill="#caceb7" d="M500 100h100v100H500z"/><path fill="#b1b6b8" d="M600 100h100v100H600z"/><path fill="#eae8c3" d="M700 100h100v100H700z"/><path fill="#abb388" d="M0 200h100v100H0z"/><path fill="#563414" d="M100 200h100v100H100z"/><path fill="#7f6c3a" d="M200 200h100v100H200z"/><path fill="#668652" d="M300 200h100v100H300z"/><path fill="#81945a" d="M400 200h100v100H400z"/><path fill="#757573" d="M500 200h100v100H500z"/><path fill="#2956c1" d="M600 200h100v100H600z"/><path fill="#a5b2b7" d="M700 200h100v100H700z"/><path fill="#aea585" d="M0 300h100v100H0z"/><path fill="#734222" d="M100 300h100v100H100z"/><path fill="#9d836d" d="M200 300h100v100H200z"/><path fill="#705943" d="M300 300h100v100H300z"/><path fill="#938850" d="M400 300h100v100H400z"/><path fill="#7c5a4d" d="M500 300h100v100H500z"/><path fill="#634557" d="M600 300h100v100H600z"/><path fill="#a0a4a2" d="M700 300h100v100H700z"/><path fill="#a2a195" d="M0 400h100v100H0z"/><path fill="#542b12" d="M100 400h100v100H100z"/><path fill="#8a7968" d="M200 400h100v100H200z"/><path fill="#80714d" d="M300 400h100v100H300z"/><path fill="#555249" d="M400 400h100v100H400z"/><path fill="#896f63" d="M500 400h100v100H500z"/><path fill="#8a5943" d="M600 400h100v100H600z"/><path fill="#af9f7f" d="M700 400h100v100H700z"/><path fill="#e0e5e4" d="M0 500h100v100H0z"/><path fill="#c8c5c0" d="M100 500h100v100H100z"/><path fill="#d0d1c9" d="M200 500h100v100H200z"/><path fill="#cacbc3" d="M300 500h100v100H300z"/><path fill="#c3c5c5" d="M400 500h100v100H400z"/><path fill="#d3cfce" d="M500 500h100v100H500z"/><path fill="#d3d6d5" d="M600 500h100v100H600z"/><path fill="#e2e2dd" d="M700 500h100v100H700z"/></svg>