<svg xmlns="http://www.w3.org/2000/svg" viewBox="0 0 800 400"><defs/><path fill="#4f7051" d="M0 0h100v100H0z"/><path fill="#435950" d="M100 0h100v100H100z"/><path fill="#2b6263" d="M200 0h100v100H200z"/><path fill="#3d6b66" d="M300 0h100v100H300z"/><path fill="#467474" d="M400 0h100v100H400z"/><path fill="#2b6064" d="M500 0h100v100H500z"/><path fill="#306868" d="M600 0h100v100H600z"/><path fill="#3d6559" d="M700 0h100v100H700z"/><path fill="#375147" d="M0 100h100v100H0z"/><path fill="#476557" d="M100 100h100v100H100z"/><path fill="#416b60" d="M200 100h100v100H200z"/><path fill="#52787a" d="M300 100h100v100H300z"/><path fill="#517c87" d="M400 100h100v100H400z"/><path fill="#4b736f" d="M500 100h100v100H500z"/><path fill="#3f7576" d="M600 100h100v100H600z"/><path fill="#3a5d57" d="M700 100h100v100H700z"/><path fill="#37564f" d="M0 200h100v100H0z"/><path fill="#283b37" d="M100 200h100v100H100z"/><path fill="#2b3b37" d="M200 200h100v100H200z"/><path fill="#314846" d="M300 200h100v100H300z"/><path fill="#3a4c42" d="M400 200h100v100H400z"/><path fill="#3f5953" d="M500 200h100v100H500z"/><path fill="#244947" d="M600 200h100v100H600z"/><path fill="#2d413c" d="M700 200h100v100H700z"/><path fill="#323e32" d="M0 300h100v100H0z"/><path fill="#35392f" d="M100 300h100v100H100z"/><path fill="#3a4442" d="M200 300h100v100H200z"/><path fill="#2f3e37" d="M300 300h100v100H300z"/><path fill="#324440" d="M400 300h100v100H400z"/><path fill="#2e4242" d="M500 300h100v100H500z"/><path fill="#282d23" d="M600 300h100v100H600z"/><path fill="#253027" d="M700 300h100v100H700z"/></svg>