<svg xmlns="http://www.w3.org/2000/svg" viewBox="0 0 800 500"><defs/><path fill="#dbe3e2" d="M0 0h100v100H0z"/><path fill="#c9c3c2" d="M100 0h100v100H100z"/><path fill="#d0e8e4" d="M200 0h100v100H200z"/><path fill="#dfe8e2" d="M300 0h100v100H300z"/><path fill="#e6e3e6" d="M400 0h100v100H400z"/><path fill="#f3ecf0" d="M500 0h100v100H500z"/><path fill="#efdbeb" d="M600 0h100v100H600z"/><path fill="#e9e8e9" d="M700 0h100v100H700z"/><path fill="#d2d7cf" d="M0 100h100v100H0z"/><path fill="#c3c7bc" d="M100 100h100v100H100z"/><path fill="#e3f2e0" d="M200 100h100v100H200z"/><path fill="#e0ded5" d="M300 100h100v100H300z"/><path fill="#dbcecc" d="M400 100h100v100H400z"/><path fill="#cdc8cd" d="M500 100h100v100H500z"/><path fill="#d1c8d2" d="M600 100h100v100H600z"/><path fill="#d8e0e1" d="M700 100h100v100H700z"/><path fill="#c9c7c3" d="M0 200h100v100H0z"/><path fill="#c0b8b0" d="M100 200h100v100H100z"/><path fill="#e1e4da" d="M200 200h100v100H200z"/><path fill="#deded9" d="M300 200h100v100H300z"/><path fill="#d3cfbd" d="M400 200h100v100H400z"/><path fill="#b0b3b3" d="M500 200h100v100H500z"/><path fill="#c0c5be" d="M600 200h100v100H600z"/><path fill="#e0e5e0" d="M700 200h100v100H700z"/><path fill="#ccdbd0" d="M0 300h100v100H0z"/><path fill="#d3dfd0" d="M100 300h100v100H100z"/><path fill="#dbe8db" d="M200 300h100v100H200z"/><path fill="#e4eddf" d="M300 300h100v100H300z"/><path fill="#e4e6d0" d="M400 300h100v100H400z"/><path fill="#eaebdf" d="M500 300h100v100H500z"/><path fill="#e6e9d0" d="M600 300h100v100H600z"/><path fill="#e6e6d2" d="M700 300h100v100H700z"/><path fill="#dde7e6" d="M0 400h100v100H0z"/><path fill="#dadfd7" d="M100 400h100v100H100z"/><path fill="#bdd9d5" d="M200 400h100v100H200z"/><path fill="#c5d9d2" d="M300 400h100v100H300z"/><path fill="#d9ccc9" d="M400 400h100v100H400z"/><path fill="#cbc6ce" d="M500 400h100v100H500z"/><path fill="#d8d4c2" d="M600 400h100v100H600z"/><path fill="#e6e6db" d="M700 400h100v100H700z"/></svg>