<svg xmlns="http://www.w3.org/2000/svg" viewBox="0 0 800 500"><defs/><path fill="#fff" d="M0 0h100v100H0z"/><path fill="#fefeff" d="M100 0h100v100H100z"/><path fill="#f6f8f9" d="M200 0h100v100H200z"/><path fill="#fcf9f4" d="M300 0h100v100H300z"/><path fill="#fff7de" d="M400 0h100v100H400z"/><path fill="#fffdf9" d="M500 0h100v100H500z"/><path fill="#fefeff" d="M600 0h100v100H600z"/><path fill="#fffffe" d="M700 0h100v100H700z"/><path fill="#eeedee" d="M0 100h100v100H0z"/><path fill="#e0e5e3" d="M100 100h100v100H100z"/><path fill="#a2ada9" d="M200 100h100v100H200z"/><path fill="#7085aa" d="M300 100h100v100H300z"/><path fill="#45818b" d="M400 100h100v100H400z"/><path fill="#bfcdd1" d="M500 100h100v100H500z"/><path fill="#fff" d="M600 100h100v100H600z"/><path fill="#fcfefe" d="M700 100h100v100H700z"/><path fill="#d4d2cf" d="M0 200h100v100H0z"/><path fill="#c2bcbe" d="M100 200h100v100H100z"/><path fill="#3d74b2" d="M200 200h100v100H200z"/><path fill="#0078b6" d="M300 200h100v100H300z"/><path fill="#74b9ca" d="M400 200h100v100H400z"/><path fill="#f6eded" d="M500 200h100v100H500z"/><path fill="#f7f2ed" d="M600 200h100v100H600z"/><path fill="#f9f7f5" d="M700 200h100v100H700z"/><path fill="#dedee4" d="M0 300h100v100H0z"/><path fill="#3474bc" d="M100 300h100v100H100z"/><path fill="#007bb8" d="M200 300h100v100H200z"/><path fill="#01a3ab" d="M300 300h100v100H300z"/><path fill="#3187bb" d="M400 300h100v100H400z"/><path fill="#6da9cc" d="M500 300h100v100H500z"/><path fill="#5299bc" d="M600 300h100v100H600z"/><path fill="#6ba7d3" d="M700 300h100v100H700z"/><path fill="#97b9da" d="M0 400h100v100H0z"/><path fill="#509ad4" d="M100 400h100v100H100z"/><path fill="#69b3ce" d="M200 400h100v100H200z"/><path fill="#63a9d5" d="M300 400h100v100H300z"/><path fill="#589fdb" d="M400 400h100v100H400z"/><path fill="#54a1d6" d="M500 400h100v100H500z"/><path fill="#509dd3" d="M600 400h100v100H600z"/><path fill="#73afde" d="M700 400h100v100H700z"/></svg>