<svg xmlns="http://www.w3.org/2000/svg" viewBox="0 0 800 500"><defs/><path fill="#eee" d="M0 0h100v100H0z"/><path fill="#e2e2e2" d="M100 0h100v100H100z"/><path fill="#dadada" d="M200 0h100v100H200z"/><path fill="#d4d4d4" d="M300 0h100v100H300z"/><path fill="#e5e5e6" d="M400 0h100v100H400z"/><path fill="#e7e7e7" d="M500 0h100v100H500z"/><path fill="#e4e4e4" d="M600 0h100v100H600z"/><path fill="#e5e5e5" d="M700 0h100v100H700z"/><path fill="#f1f2f1" d="M0 100h100v100H0z"/><path fill="#dcdcdc" d="M100 100h100v100H100z"/><path fill="#e1e1e1" d="M200 100h100v100H200z"/><path fill="#cacbcc" d="M300 100h100v100H300z"/><path fill="#dadadb" d="M400 100h100v100H400z"/><path fill="#e7e7e7" d="M500 100h100v100H500z"/><path fill="#dfdfdf" d="M600 100h100v100H600z"/><path fill="#d1d1d2" d="M700 100h100v100H700z"/><path fill="#f6f6f6" d="M0 200h100v100H0z"/><path fill="#bfc1c4" d="M100 200h100v100H100z"/><path fill="#c5c6c7" d="M200 200h100v100H200z"/><path fill="#e3e4e5" d="M300 200h100v100H300z"/><path fill="#c6c8c9" d="M400 200h100v100H400z"/><path fill="#d0d1d1" d="M500 200h100v100H500z"/><path fill="#d0d0d0" d="M600 200h100v100H600z"/><path fill="#d2d3d4" d="M700 200h100v100H700z"/><path fill="#e7e8e8" d="M0 300h100v100H0z"/><path fill="#a4a5a7" d="M100 300h100v100H100z"/><path fill="#c8cacc" d="M200 300h100v100H200z"/><path fill="#e9ebeb" d="M300 300h100v100H300z"/><path fill="#cfd0d1" d="M400 300h100v100H400z"/><path fill="#d0d2d2" d="M500 300h100v100H500z"/><path fill="#c5c7c8" d="M600 300h100v100H600z"/><path fill="#d8d9d9" d="M700 300h100v100H700z"/><path fill="#dfdfe1" d="M0 400h100v100H0z"/><path fill="#d5d5d7" d="M100 400h100v100H100z"/><path fill="#e9e9ea" d="M200 400h100v100H200z"/><path fill="#e6e8e8" d="M300 400h100v100H300z"/><path fill="#e1e4e4" d="M400 400h100v100H400z"/><path fill="#e4e5e7" d="M500 400h100v100H500z"/><path fill="#e6e7e7" d="M600 400h100v100H600z"/><path fill="#e8e8e9" d="M700 400h100v100H700z"/></svg>