<svg xmlns="http://www.w3.org/2000/svg" viewBox="0 0 800 500"><defs/><path fill="#c3b198" d="M0 0h100v100H0z"/><path fill="#c0a681" d="M100 0h100v100H100z"/><path fill="#ccbca7" d="M200 0h100v100H200z"/><path fill="#c6b498" d="M300 0h100v100H300z"/><path fill="#cdbb9e" d="M400 0h100v100H400z"/><path fill="#c3b295" d="M500 0h100v100H500z"/><path fill="#afa270" d="M600 0h100v100H600z"/><path fill="#c8b48f" d="M700 0h100v100H700z"/><path fill="#b79f85" d="M0 100h100v100H0z"/><path fill="#b89a6e" d="M100 100h100v100H100z"/><path fill="#b3a47d" d="M200 100h100v100H200z"/><path fill="#af9b6c" d="M300 100h100v100H300z"/><path fill="#b49a6f" d="M400 100h100v100H400z"/><path fill="#a38a5c" d="M500 100h100v100H500z"/><path fill="#c19b58" d="M600 100h100v100H600z"/><path fill="#bead8b" d="M700 100h100v100H700z"/><path fill="#ccb89d" d="M0 200h100v100H0z"/><path fill="#c0a076" d="M100 200h100v100H100z"/><path fill="#aa8e65" d="M200 200h100v100H200z"/><path fill="#a07c53" d="M300 200h100v100H300z"/><path fill="#9a7a58" d="M400 200h100v100H400z"/><path fill="#9c7034" d="M500 200h100v100H500z"/><path fill="#a77236" d="M600 200h100v100H600z"/><path fill="#c3ab8a" d="M700 200h100v100H700z"/><path fill="#a39565" d="M0 300h100v100H0z"/><path fill="#b99a71" d="M100 300h100v100H100z"/><path fill="#bd9a69" d="M200 300h100v100H200z"/><path fill="#b69a69" d="M300 300h100v100H300z"/><path fill="#bb9760" d="M400 300h100v100H400z"/><path fill="#cd8e4f" d="M500 300h100v100H500z"/><path fill="#be905d" d="M600 300h100v100H600z"/><path fill="#c69065" d="M700 300h100v100H700z"/><path fill="#b49662" d="M0 400h100v100H0z"/><path fill="#bc9d70" d="M100 400h100v100H100z"/><path fill="#c4ad75" d="M200 400h100v100H200z"/><path fill="#b5a16c" d="M300 400h100v100H300z"/><path fill="#ccb776" d="M400 400h100v100H400z"/><path fill="#d2c1a1" d="M500 400h100v100H500z"/><path fill="#cdb385" d="M600 400h100v100H600z"/><path fill="#ac7f4f" d="M700 400h100v100H700z"/></svg>