<svg xmlns="http://www.w3.org/2000/svg" viewBox="0 0 800 400"><defs/><path fill="#a68741" d="M0 0h100v100H0z"/><path fill="#9d8450" d="M100 0h100v100H100z"/><path fill="#98814e" d="M200 0h100v100H200z"/><path fill="#947e4d" d="M300 0h100v100H300z"/><path fill="#8f7b4b" d="M400 0h100v100H400z"/><path fill="#95814f" d="M500 0h100v100H500z"/><path fill="#9a8450" d="M600 0h100v100H600z"/><path fill="#8f7740" d="M700 0h100v100H700z"/><path fill="#826e3e" d="M0 100h100v100H0z"/><path fill="#aca895" d="M100 100h100v100H100z"/><path fill="#a5a191" d="M200 100h100v100H200z"/><path fill="#959083" d="M300 100h100v100H300z"/><path fill="#929082" d="M400 100h100v100H400z"/><path fill="#9c998a" d="M500 100h100v100H500z"/><path fill="#a9a699" d="M600 100h100v100H600z"/><path fill="#c4ab64" d="M700 100h100v100H700z"/><path fill="#8a7540" d="M0 200h100v100H0z"/><path fill="#a7a494" d="M100 200h100v100H100z"/><path fill="#ada897" d="M200 200h100v100H200z"/><path fill="#a4a093" d="M300 200h100v100H300z"/><path fill="#a59e8f" d="M400 200h100v100H400z"/><path fill="#a7a293" d="M500 200h100v100H500z"/><path fill="#b1af9f" d="M600 200h100v100H600z"/><path fill="#9c8c5f" d="M700 200h100v100H700z"/><path fill="#725e31" d="M0 300h100v100H0z"/><path fill="#655a3f" d="M100 300h100v100H100z"/><path fill="#a58a4e" d="M200 300h100v100H200z"/><path fill="#b69a54" d="M300 300h100v100H300z"/><path fill="#887449" d="M400 300h100v100H400z"/><path fill="#85734b" d="M500 300h100v100H500z"/><path fill="#957d49" d="M600 300h100v100H600z"/><path fill="#a08846" d="M700 300h100v100H700z"/></svg>