<svg xmlns="http://www.w3.org/2000/svg" viewBox="0 0 800 400"><defs/><path fill="#dcd8d3" d="M0 0h100v100H0z"/><path fill="#b8b6b2" d="M100 0h100v100H100z"/><path fill="#cececa" d="M200 0h100v100H200z"/><path fill="#f3f2ed" d="M300 0h100v100H300z"/><path fill="#e8e7e2" d="M400 0h100v100H400z"/><path fill="#e4e2dd" d="M500 0h100v100H500z"/><path fill="#dcdad5" d="M600 0h100v100H600z"/><path fill="#d4d2cd" d="M700 0h100v100H700z"/><path fill="#d8d6d0" d="M0 100h100v100H0z"/><path fill="#a1a39e" d="M100 100h100v100H100z"/><path fill="#c5c6c4" d="M200 100h100v100H200z"/><path fill="#d6d6d1" d="M300 100h100v100H300z"/><path fill="#e6e5e0" d="M400 100h100v100H400z"/><path fill="#dcdcd7" d="M500 100h100v100H500z"/><path fill="#c7c7c1" d="M600 100h100v100H600z"/><path fill="#cecdc8" d="M700 100h100v100H700z"/><path fill="#c7c6c0" d="M0 200h100v100H0z"/><path fill="#9fa09d" d="M100 200h100v100H100z"/><path fill="#c3c3c2" d="M200 200h100v100H200z"/><path fill="#afb1ab" d="M300 200h100v100H300z"/><path fill="#a4a5a1" d="M400 200h100v100H400z"/><path fill="#acada9" d="M500 200h100v100H500z"/><path fill="#b4b4b0" d="M600 200h100v100H600z"/><path fill="#dcdad5" d="M700 200h100v100H700z"/><path fill="#bcbcb5" d="M0 300h100v100H0z"/><path fill="#babab6" d="M100 300h100v100H100z"/><path fill="#cdcdc8" d="M200 300h100v100H200z"/><path fill="#9d9f9c" d="M300 300h100v100H300z"/><path fill="#959692" d="M400 300h100v100H400z"/><path fill="#949592" d="M500 300h100v100H500z"/><path fill="#838683" d="M600 300h100v100H600z"/><path fill="#b5b5b3" d="M700 300h100v100H700z"/></svg>