<svg xmlns="http://www.w3.org/2000/svg" viewBox="0 0 800 400"><defs/><path fill="#918b82" d="M0 0h100v100H0z"/><path fill="#b8b5b3" d="M100 0h100v100H100z"/><path fill="#cac5bb" d="M200 0h100v100H200z"/><path fill="#b5b7a4" d="M300 0h100v100H300z"/><path fill="#6facc2" d="M400 0h100v100H400z"/><path fill="#60a8c5" d="M500 0h100v100H500z"/><path fill="#9db4b8" d="M600 0h100v100H600z"/><path fill="#7aa3ae" d="M700 0h100v100H700z"/><path fill="#9c968e" d="M0 100h100v100H0z"/><path fill="#d1ceca" d="M100 100h100v100H100z"/><path fill="#ada190" d="M200 100h100v100H200z"/><path fill="#b7a591" d="M300 100h100v100H300z"/><path fill="#80b4b4" d="M400 100h100v100H400z"/><path fill="#4fa099" d="M500 100h100v100H500z"/><path fill="#aabbb8" d="M600 100h100v100H600z"/><path fill="#5ca1b8" d="M700 100h100v100H700z"/><path fill="#ada8a1" d="M0 200h100v100H0z"/><path fill="#9da1a0" d="M100 200h100v100H100z"/><path fill="#999085" d="M200 200h100v100H200z"/><path fill="#cab7ae" d="M300 200h100v100H300z"/><path fill="#949977" d="M400 200h100v100H400z"/><path fill="#77b369" d="M500 200h100v100H500z"/><path fill="#b2bbaa" d="M600 200h100v100H600z"/><path fill="#719e75" d="M700 200h100v100H700z"/><path fill="#c1bfbd" d="M0 300h100v100H0z"/><path fill="#bbbdbf" d="M100 300h100v100H100z"/><path fill="#e1dfdf" d="M200 300h100v100H200z"/><path fill="#c2a1a2" d="M300 300h100v100H300z"/><path fill="#ae7178" d="M400 300h100v100H400z"/><path fill="#f7eaef" d="M500 300h100v100H500z"/><path fill="#edf1f0" d="M600 300h100v100H600z"/><path fill="#beccb9" d="M700 300h100v100H700z"/></svg>