<svg xmlns="http://www.w3.org/2000/svg" viewBox="0 0 800 600"><defs/><path fill="#b4a293" d="M0 0h100v100H0z"/><path fill="#cfcbc6" d="M100 0h100v100H100z"/><path fill="#c5c2bb" d="M200 0h100v100H200z"/><path fill="#c8c2bc" d="M300 0h100v100H300z"/><path fill="#c9c3bb" d="M400 0h100v100H400z"/><path fill="#c1bab2" d="M500 0h100v100H500z"/><path fill="#c2b4ae" d="M600 0h100v100H600z"/><path fill="#c3b6a9" d="M700 0h100v100H700z"/><path fill="#bba49f" d="M0 100h100v100H0z"/><path fill="#8e8782" d="M100 100h100v100H100z"/><path fill="#9ea4a3" d="M200 100h100v100H200z"/><path fill="#babfbe" d="M300 100h100v100H300z"/><path fill="#9aa69d" d="M400 100h100v100H400z"/><path fill="#afb2b3" d="M500 100h100v100H500z"/><path fill="#a38994" d="M600 100h100v100H600z"/><path fill="#c9b2bd" d="M700 100h100v100H700z"/><path fill="#c6c0b7" d="M0 200h100v100H0z"/><path fill="#a09a90" d="M100 200h100v100H100z"/><path fill="#8f8580" d="M200 200h100v100H200z"/><path fill="#807d75" d="M300 200h100v100H300z"/><path fill="#8d918a" d="M400 200h100v100H400z"/><path fill="#948f89" d="M500 200h100v100H500z"/><path fill="#72655f" d="M600 200h100v100H600z"/><path fill="#a79597" d="M700 200h100v100H700z"/><path fill="#a09689" d="M0 300h100v100H0z"/><path fill="#8b8174" d="M100 300h100v100H100z"/><path fill="#887565" d="M200 300h100v100H200z"/><path fill="#757474" d="M300 300h100v100H300z"/><path fill="#86928d" d="M400 300h100v100H400z"/><path fill="#957f6d" d="M500 300h100v100H500z"/><path fill="#716661" d="M600 300h100v100H600z"/><path fill="#8a8685" d="M700 300h100v100H700z"/><path fill="#bbb4ad" d="M0 400h100v100H0z"/><path fill="#b7b0ac" d="M100 400h100v100H100z"/><path fill="#baafae" d="M200 400h100v100H200z"/><path fill="#adafb0" d="M300 400h100v100H300z"/><path fill="#9badaf" d="M400 400h100v100H400z"/><path fill="#a59a93" d="M500 400h100v100H500z"/><path fill="#a2999b" d="M600 400h100v100H600z"/><path fill="#8f9495" d="M700 400h100v100H700z"/><path fill="#ab9b88" d="M0 500h100v100H0z"/><path fill="#a89a8c" d="M100 500h100v100H100z"/><path fill="#afa499" d="M200 500h100v100H200z"/><path fill="#a89f97" d="M300 500h100v100H300z"/><path fill="#aea7a2" d="M400 500h100v100H400z"/><path fill="#bbb6b2" d="M500 500h100v100H500z"/><path fill="#b7b2b0" d="M600 500h100v100H600z"/><path fill="#a7a39f" d="M700 500h100v100H700z"/></svg>