<svg xmlns="http://www.w3.org/2000/svg" viewBox="0 0 800 500"><defs/><path fill="#f7e7b4" d="M0 0h100v100H0z"/><path fill="#a08e6c" d="M100 0h100v100H100z"/><path fill="#9b8d71" d="M200 0h100v100H200z"/><path fill="#ccbd90" d="M300 0h100v100H300z"/><path fill="#fbeeb0" d="M400 0h100v100H400z"/><path fill="#f5e7aa" d="M500 0h100v100H500z"/><path fill="#f1dd9f" d="M600 0h100v100H600z"/><path fill="#e0bd89" d="M700 0h100v100H700z"/><path fill="#e6d091" d="M0 100h100v100H0z"/><path fill="#7c6339" d="M100 100h100v100H100z"/><path fill="#746241" d="M200 100h100v100H200z"/><path fill="#80836a" d="M300 100h100v100H300z"/><path fill="#7fc5cb" d="M400 100h100v100H400z"/><path fill="#99a68a" d="M500 100h100v100H500z"/><path fill="#c7aa65" d="M600 100h100v100H600z"/><path fill="#c09458" d="M700 100h100v100H700z"/><path fill="#cdb986" d="M0 200h100v100H0z"/><path fill="#856f44" d="M100 200h100v100H100z"/><path fill="#c28c5a" d="M200 200h100v100H200z"/><path fill="#988364" d="M300 200h100v100H300z"/><path fill="#848e76" d="M400 200h100v100H400z"/><path fill="#4a4947" d="M500 200h100v100H500z"/><path fill="#6d593a" d="M600 200h100v100H600z"/><path fill="#a77a4a" d="M700 200h100v100H700z"/><path fill="#ab9a70" d="M0 300h100v100H0z"/><path fill="#6a4027" d="M100 300h100v100H100z"/><path fill="#b13425" d="M200 300h100v100H200z"/><path fill="#913e2d" d="M300 300h100v100H300z"/><path fill="#7b6242" d="M400 300h100v100H400z"/><path fill="#3c3228" d="M500 300h100v100H500z"/><path fill="#724f35" d="M600 300h100v100H600z"/><path fill="#8d6843" d="M700 300h100v100H700z"/><path fill="#b3a184" d="M0 400h100v100H0z"/><path fill="#9f7960" d="M100 400h100v100H100z"/><path fill="#be8e78" d="M200 400h100v100H200z"/><path fill="#b99075" d="M300 400h100v100H300z"/><path fill="#bfa486" d="M400 400h100v100H400z"/><path fill="#ad9377" d="M500 400h100v100H500z"/><path fill="#cba681" d="M600 400h100v100H600z"/><path fill="#8c7560" d="M700 400h100v100H700z"/></svg>