<svg xmlns="http://www.w3.org/2000/svg" viewBox="0 0 800 400"><defs/><path fill="#c3955e" d="M0 0h100v100H0z"/><path fill="#c29557" d="M100 0h100v100H100z"/><path fill="#c2964c" d="M200 0h100v100H200z"/><path fill="#d6ab4f" d="M300 0h100v100H300z"/><path fill="#dfac64" d="M400 0h100v100H400z"/><path fill="#b39255" d="M500 0h100v100H500z"/><path fill="#b4814a" d="M600 0h100v100H600z"/><path fill="#d5723c" d="M700 0h100v100H700z"/><path fill="#c2935d" d="M0 100h100v100H0z"/><path fill="#b3874b" d="M100 100h100v100H100z"/><path fill="#c48d4c" d="M200 100h100v100H200z"/><path fill="#e1ab6a" d="M300 100h100v100H300z"/><path fill="#e3ac58" d="M400 100h100v100H400z"/><path fill="#c18648" d="M500 100h100v100H500z"/><path fill="#b59157" d="M600 100h100v100H600z"/><path fill="#bb9257" d="M700 100h100v100H700z"/><path fill="#c99961" d="M0 200h100v100H0z"/><path fill="#ca9e5b" d="M100 200h100v100H100z"/><path fill="#e3aa4d" d="M200 200h100v100H200z"/><path fill="#f0c66a" d="M300 200h100v100H300z"/><path fill="#e8ba5e" d="M400 200h100v100H400z"/><path fill="#e69f3e" d="M500 200h100v100H500z"/><path fill="#cea052" d="M600 200h100v100H600z"/><path fill="#ae9257" d="M700 200h100v100H700z"/><path fill="#c18f5b" d="M0 300h100v100H0z"/><path fill="#c08952" d="M100 300h100v100H100z"/><path fill="#bf9755" d="M200 300h100v100H200z"/><path fill="#daa35b" d="M300 300h100v100H300z"/><path fill="#b8915f" d="M400 300h100v100H400z"/><path fill="#c39f5b" d="M500 300h100v100H500z"/><path fill="#bc9a60" d="M600 300h100v100H600z"/><path fill="#a48359" d="M700 300h100v100H700z"/></svg>