<svg xmlns="http://www.w3.org/2000/svg" viewBox="0 0 800 600"><defs/><path fill="#dde3e2" d="M0 0h100v100H0z"/><path fill="#eae8e6" d="M100 0h100v100H100z"/><path fill="#e0e2e0" d="M200 0h100v100H200z"/><path fill="#c8d3d1" d="M300 0h100v100H300z"/><path fill="#c6d1cf" d="M400 0h100v100H400z"/><path fill="#d9e7e0" d="M500 0h100v100H500z"/><path fill="#d1dbd5" d="M600 0h100v100H600z"/><path fill="#ced2ce" d="M700 0h100v100H700z"/><path fill="#dee4e4" d="M0 100h100v100H0z"/><path fill="#e1dbde" d="M100 100h100v100H100z"/><path fill="#d3d0d3" d="M200 100h100v100H200z"/><path fill="#c7c5c7" d="M300 100h100v100H300z"/><path fill="#c6bfc3" d="M400 100h100v100H400z"/><path fill="#e6c9ce" d="M500 100h100v100H500z"/><path fill="#e1bcc1" d="M600 100h100v100H600z"/><path fill="#d8b1b5" d="M700 100h100v100H700z"/><path fill="#e3e5e6" d="M0 200h100v100H0z"/><path fill="#e0d4db" d="M100 200h100v100H100z"/><path fill="#cec3ca" d="M200 200h100v100H200z"/><path fill="#e3d8dc" d="M300 200h100v100H300z"/><path fill="#d4d0d2" d="M400 200h100v100H400z"/><path fill="#c09ba6" d="M500 200h100v100H500z"/><path fill="#cd9ea7" d="M600 200h100v100H600z"/><path fill="#daaab0" d="M700 200h100v100H700z"/><path fill="#e3dee1" d="M0 300h100v100H0z"/><path fill="#e1c7d1" d="M100 300h100v100H100z"/><path fill="#d6d0d2" d="M200 300h100v100H200z"/><path fill="#dceae4" d="M300 300h100v100H300z"/><path fill="#cececd" d="M400 300h100v100H400z"/><path fill="#948d92" d="M500 300h100v100H500z"/><path fill="#9e9598" d="M600 300h100v100H600z"/><path fill="#d8b7ba" d="M700 300h100v100H700z"/><path fill="#e2e8e8" d="M0 400h100v100H0z"/><path fill="#dad0d6" d="M100 400h100v100H100z"/><path fill="#e5d3da" d="M200 400h100v100H200z"/><path fill="#dcdbdc" d="M300 400h100v100H300z"/><path fill="#d4d4d1" d="M400 400h100v100H400z"/><path fill="#b4b0b1" d="M500 400h100v100H500z"/><path fill="#928b90" d="M600 400h100v100H600z"/><path fill="#ae9ba2" d="M700 400h100v100H700z"/><path fill="#edf8f7" d="M0 500h100v100H0z"/><path fill="#e8f2f5" d="M100 500h100v100H100z"/><path fill="#dee8eb" d="M200 500h100v100H200z"/><path fill="#d5dbdf" d="M300 500h100v100H300z"/><path fill="#ccd7d6" d="M400 500h100v100H400z"/><path fill="#bec9c7" d="M500 500h100v100H500z"/><path fill="#9ea5a8" d="M600 500h100v100H600z"/><path fill="#8f9397" d="M700 500h100v100H700z"/></svg>