<svg xmlns="http://www.w3.org/2000/svg" viewBox="0 0 800 400"><defs/><path fill="#9698a1" d="M0 0h100v100H0z"/><path fill="#959b9a" d="M100 0h100v100H100z"/><path fill="#c5d0d6" d="M200 0h100v100H200z"/><path fill="#dadee7" d="M300 0h100v100H300z"/><path fill="#dee6e9" d="M400 0h100v100H400z"/><path fill="#d1dadd" d="M500 0h100v100H500z"/><path fill="#c2c7bf" d="M600 0h100v100H600z"/><path fill="#dbd1cb" d="M700 0h100v100H700z"/><path fill="#97a2a5" d="M0 100h100v100H0z"/><path fill="#969e8f" d="M100 100h100v100H100z"/><path fill="#b5c4d4" d="M200 100h100v100H200z"/><path fill="#f4c5e8" d="M300 100h100v100H300z"/><path fill="#fbdaf3" d="M400 100h100v100H400z"/><path fill="#ffe6fa" d="M500 100h100v100H500z"/><path fill="#f3d5ea" d="M600 100h100v100H600z"/><path fill="#e6b9d8" d="M700 100h100v100H700z"/><path fill="#767b79" d="M0 200h100v100H0z"/><path fill="#7d8370" d="M100 200h100v100H100z"/><path fill="#a59fad" d="M200 200h100v100H200z"/><path fill="#be97bd" d="M300 200h100v100H300z"/><path fill="#a887a3" d="M400 200h100v100H400z"/><path fill="#c888ac" d="M500 200h100v100H500z"/><path fill="#a97d8f" d="M600 200h100v100H600z"/><path fill="#4b4850" d="M700 200h100v100H700z"/><path fill="#484341" d="M0 300h100v100H0z"/><path fill="#403b35" d="M100 300h100v100H100z"/><path fill="#373c4a" d="M200 300h100v100H200z"/><path fill="#425351" d="M300 300h100v100H300z"/><path fill="#284858" d="M400 300h100v100H400z"/><path fill="#31414f" d="M500 300h100v100H500z"/><path fill="#383e46" d="M600 300h100v100H600z"/><path fill="#58584c" d="M700 300h100v100H700z"/></svg>