<svg xmlns="http://www.w3.org/2000/svg" viewBox="0 0 800 600"><defs/><path fill="#746751" d="M0 0h100v100H0z"/><path fill="#ab9984" d="M100 0h100v100H100z"/><path fill="#baa993" d="M200 0h100v100H200z"/><path fill="#bfb09e" d="M300 0h100v100H300z"/><path fill="#b6a997" d="M400 0h100v100H400z"/><path fill="#c0af9e" d="M500 0h100v100H500z"/><path fill="#cfb9ae" d="M600 0h100v100H600z"/><path fill="#e6d2c0" d="M700 0h100v100H700z"/><path fill="#73674c" d="M0 100h100v100H0z"/><path fill="#8e7c6a" d="M100 100h100v100H100z"/><path fill="#a09c8b" d="M200 100h100v100H200z"/><path fill="#bdaca0" d="M300 100h100v100H300z"/><path fill="#b7afa6" d="M400 100h100v100H400z"/><path fill="#b9a99c" d="M500 100h100v100H500z"/><path fill="#c8b6a6" d="M600 100h100v100H600z"/><path fill="#eddaca" d="M700 100h100v100H700z"/><path fill="#6f6e53" d="M0 200h100v100H0z"/><path fill="#998f7e" d="M100 200h100v100H100z"/><path fill="#ad9b90" d="M200 200h100v100H200z"/><path fill="#aaa69a" d="M300 200h100v100H300z"/><path fill="#b9a69f" d="M400 200h100v100H400z"/><path fill="#cbb2a4" d="M500 200h100v100H500z"/><path fill="#cbb8ab" d="M600 200h100v100H600z"/><path fill="#e9d9cb" d="M700 200h100v100H700z"/><path fill="#776951" d="M0 300h100v100H0z"/><path fill="#918474" d="M100 300h100v100H100z"/><path fill="#97877c" d="M200 300h100v100H200z"/><path fill="#b6a49b" d="M300 300h100v100H300z"/><path fill="#b8a89e" d="M400 300h100v100H400z"/><path fill="#c7b29f" d="M500 300h100v100H500z"/><path fill="#d7c1b2" d="M600 300h100v100H600z"/><path fill="#edded1" d="M700 300h100v100H700z"/><path fill="#80755f" d="M0 400h100v100H0z"/><path fill="#a28d7a" d="M100 400h100v100H100z"/><path fill="#b4a79c" d="M200 400h100v100H200z"/><path fill="#c3bbb3" d="M300 400h100v100H300z"/><path fill="#c7bdb5" d="M400 400h100v100H400z"/><path fill="#c5bab1" d="M500 400h100v100H500z"/><path fill="#c8b6a9" d="M600 400h100v100H600z"/><path fill="#decbba" d="M700 400h100v100H700z"/><path fill="#776c55" d="M0 500h100v100H0z"/><path fill="#928975" d="M100 500h100v100H100z"/><path fill="#a1998a" d="M200 500h100v100H200z"/><path fill="#b2a89c" d="M300 500h100v100H300z"/><path fill="#bfb4a8" d="M400 500h100v100H400z"/><path fill="#cbc2b4" d="M500 500h100v100H500z"/><path fill="#c8bead" d="M600 500h100v100H600z"/><path fill="#d4c1ad" d="M700 500h100v100H700z"/></svg>