<svg xmlns="http://www.w3.org/2000/svg" viewBox="0 0 800 600"><defs/><path fill="#b8cceb" d="M0 0h100v100H0z"/><path fill="#afbbcd" d="M100 0h100v100H100z"/><path fill="#92786d" d="M200 0h100v100H200z"/><path fill="#b3b6b0" d="M300 0h100v100H300z"/><path fill="#bad1d5" d="M400 0h100v100H400z"/><path fill="#c2d6d8" d="M500 0h100v100H500z"/><path fill="#b8ced6" d="M600 0h100v100H600z"/><path fill="#afc9da" d="M700 0h100v100H700z"/><path fill="#bbd2f0" d="M0 100h100v100H0z"/><path fill="#a0a5b1" d="M100 100h100v100H100z"/><path fill="#8f7769" d="M200 100h100v100H200z"/><path fill="#a9b5ba" d="M300 100h100v100H300z"/><path fill="#9fafc7" d="M400 100h100v100H400z"/><path fill="#9badcc" d="M500 100h100v100H500z"/><path fill="#bfd6e2" d="M600 100h100v100H600z"/><path fill="#bad2e2" d="M700 100h100v100H700z"/><path fill="#b8cfed" d="M0 200h100v100H0z"/><path fill="#928b93" d="M100 200h100v100H100z"/><path fill="#9a8b8a" d="M200 200h100v100H200z"/><path fill="#8fa4bf" d="M300 200h100v100H300z"/><path fill="#95a9cc" d="M400 200h100v100H400z"/><path fill="#a8c2db" d="M500 200h100v100H500z"/><path fill="#d0eaf4" d="M600 200h100v100H600z"/><path fill="#c7e0ef" d="M700 200h100v100H700z"/><path fill="#afc1da" d="M0 300h100v100H0z"/><path fill="#7a5b58" d="M100 300h100v100H100z"/><path fill="#a08d89" d="M200 300h100v100H200z"/><path fill="#9fb4be" d="M300 300h100v100H300z"/><path fill="#b0b5af" d="M400 300h100v100H400z"/><path fill="#a3b8da" d="M500 300h100v100H500z"/><path fill="#b7d2e7" d="M600 300h100v100H600z"/><path fill="#c6e5f9" d="M700 300h100v100H700z"/><path fill="#939bb4" d="M0 400h100v100H0z"/><path fill="#764c41" d="M100 400h100v100H100z"/><path fill="#aa8661" d="M200 400h100v100H200z"/><path fill="#a89e9e" d="M300 400h100v100H300z"/><path fill="#ada1a1" d="M400 400h100v100H400z"/><path fill="#9c9bae" d="M500 400h100v100H500z"/><path fill="#b5a5a0" d="M600 400h100v100H600z"/><path fill="#c6d4d3" d="M700 400h100v100H700z"/><path fill="#958e91" d="M0 500h100v100H0z"/><path fill="#aa8a66" d="M100 500h100v100H100z"/><path fill="#a29e98" d="M200 500h100v100H200z"/><path fill="#929fcb" d="M300 500h100v100H300z"/><path fill="#b1b1d8" d="M400 500h100v100H400z"/><path fill="#b8bec6" d="M500 500h100v100H500z"/><path fill="#c3b5b5" d="M600 500h100v100H600z"/><path fill="#c9b990" d="M700 500h100v100H700z"/></svg>