<svg xmlns="http://www.w3.org/2000/svg" viewBox="0 0 800 500"><defs/><path fill="#aab4bd" d="M0 0h100v100H0z"/><path fill="#bfbbbb" d="M100 0h100v100H100z"/><path fill="#a6b1b8" d="M200 0h100v100H200z"/><path fill="#b1bdc4" d="M300 0h100v100H300z"/><path fill="#cbcfd6" d="M400 0h100v100H400z"/><path fill="#a9b5bf" d="M500 0h100v100H500z"/><path fill="#a2b1bc" d="M600 0h100v100H600z"/><path fill="#a5b4bd" d="M700 0h100v100H700z"/><path fill="#3f5c6c" d="M0 100h100v100H0z"/><path fill="#906f59" d="M100 100h100v100H100z"/><path fill="#163e45" d="M200 100h100v100H200z"/><path fill="#628381" d="M300 100h100v100H300z"/><path fill="#bfd2c5" d="M400 100h100v100H400z"/><path fill="#265566" d="M500 100h100v100H500z"/><path fill="#223f4b" d="M600 100h100v100H600z"/><path fill="#2b4656" d="M700 100h100v100H700z"/><path fill="#626f73" d="M0 200h100v100H0z"/><path fill="#88705f" d="M100 200h100v100H100z"/><path fill="#153641" d="M200 200h100v100H200z"/><path fill="#645c51" d="M300 200h100v100H300z"/><path fill="#786c65" d="M400 200h100v100H400z"/><path fill="#444950" d="M500 200h100v100H500z"/><path fill="#494042" d="M600 200h100v100H600z"/><path fill="#33424e" d="M700 200h100v100H700z"/><path fill="#87786b" d="M0 300h100v100H0z"/><path fill="#946844" d="M100 300h100v100H100z"/><path fill="#6f543d" d="M200 300h100v100H200z"/><path fill="#734532" d="M300 300h100v100H300z"/><path fill="#6f4438" d="M400 300h100v100H400z"/><path fill="#895d46" d="M500 300h100v100H500z"/><path fill="#754634" d="M600 300h100v100H600z"/><path fill="#34393e" d="M700 300h100v100H700z"/><path fill="#c9ad9c" d="M0 400h100v100H0z"/><path fill="#a98d7b" d="M100 400h100v100H100z"/><path fill="#90857c" d="M200 400h100v100H200z"/><path fill="#94867b" d="M300 400h100v100H300z"/><path fill="#98897d" d="M400 400h100v100H400z"/><path fill="#96877c" d="M500 400h100v100H500z"/><path fill="#908177" d="M600 400h100v100H600z"/><path fill="#847a75" d="M700 400h100v100H700z"/></svg>