<svg xmlns="http://www.w3.org/2000/svg" viewBox="0 0 800 700"><defs/><path fill="#fcfcfc" d="M0 0h100v100H0z"/><path fill="#f7f8f8" d="M100 0h100v100H100z"/><path fill="#cdcece" d="M200 0h100v100H200z"/><path fill="#dcdddd" d="M300 0h100v100H300z"/><path fill="#fff" d="M400 0h100v100H400z"/><path fill="#fefefe" d="M500 0h100v100H500zm100 0h100v100H600z"/><path fill="#fefeff" d="M700 0h100v100H700z"/><path fill="#fcfbfb" d="M0 100h100v100H0z"/><path fill="#e1dddb" d="M100 100h100v100H100z"/><path fill="#b7b4b2" d="M200 100h100v100H200z"/><path fill="#cbc6c4" d="M300 100h100v100H300z"/><path fill="#e0e0de" d="M400 100h100v100H400z"/><path fill="#fcffff" d="M500 100h100v100H500z"/><path fill="#fff" d="M600 100h100v100H600zm100 0h100v100H700z"/><path fill="#e5ecf0" d="M0 200h100v100H0z"/><path fill="#87abbd" d="M100 200h100v100H100z"/><path fill="#89aebf" d="M200 200h100v100H200z"/><path fill="#a0c8d9" d="M300 200h100v100H300z"/><path fill="#a3b4c5" d="M400 200h100v100H400z"/><path fill="#bcbdcf" d="M500 200h100v100H500z"/><path fill="#a2cbde" d="M600 200h100v100H600z"/><path fill="#d8e3ea" d="M700 200h100v100H700z"/><path fill="#deeaf1" d="M0 300h100v100H0z"/><path fill="#79b9d9" d="M100 300h100v100H100z"/><path fill="#80c2e4" d="M200 300h100v100H200z"/><path fill="#6cb7da" d="M300 300h100v100H300z"/><path fill="#6a89a2" d="M400 300h100v100H400z"/><path fill="#757e97" d="M500 300h100v100H500z"/><path fill="#3f7790" d="M600 300h100v100H600z"/><path fill="#b6cad4" d="M700 300h100v100H700z"/><path fill="#e1ecf1" d="M0 400h100v100H0z"/><path fill="#7cb8d8" d="M100 400h100v100H100z"/><path fill="#759fb1" d="M200 400h100v100H200z"/><path fill="#7c8072" d="M300 400h100v100H300z"/><path fill="#6b95a4" d="M400 400h100v100H400z"/><path fill="#5388a1" d="M500 400h100v100H500z"/><path fill="#52839b" d="M600 400h100v100H600z"/><path fill="#cbe4ef" d="M700 400h100v100H700z"/><path fill="#d9e5eb" d="M0 500h100v100H0z"/><path fill="#77b6d7" d="M100 500h100v100H100z"/><path fill="#5c8da6" d="M200 500h100v100H200z"/><path fill="#8a6535" d="M300 500h100v100H300z"/><path fill="#767869" d="M400 500h100v100H400z"/><path fill="#69a4c4" d="M500 500h100v100H500z"/><path fill="#6db1d2" d="M600 500h100v100H600z"/><path fill="#c6e0ed" d="M700 500h100v100H700z"/><path fill="#d4dde1" d="M0 600h100v100H0z"/><path fill="#7ea9c0" d="M100 600h100v100H100z"/><path fill="#8bc0dc" d="M200 600h100v100H200z"/><path fill="#a79271" d="M300 600h100v100H300z"/><path fill="#d19a58" d="M400 600h100v100H400z"/><path fill="#9fa498" d="M500 600h100v100H500z"/><path fill="#7eb8d7" d="M600 600h100v100H600z"/><path fill="#d0e4ee" d="M700 600h100v100H700z"/></svg>