<svg xmlns="http://www.w3.org/2000/svg" viewBox="0 0 800 500"><defs/><path fill="#e5dbdb" d="M0 0h100v100H0z"/><path fill="#d6cac8" d="M100 0h100v100H100z"/><path fill="#f7edc8" d="M200 0h100v100H200z"/><path fill="#fffac7" d="M300 0h100v100H300z"/><path fill="#fdf7c7" d="M400 0h100v100H400z"/><path fill="#fdf4c7" d="M500 0h100v100H500z"/><path fill="#fdf5c8" d="M600 0h100v100H600z"/><path fill="#e7dbd7" d="M700 0h100v100H700z"/><path fill="#966a71" d="M0 100h100v100H0z"/><path fill="#71442c" d="M100 100h100v100H100z"/><path fill="#e5bb10" d="M200 100h100v100H200z"/><path fill="#e2b50f" d="M300 100h100v100H300z"/><path fill="#dab50f" d="M400 100h100v100H400z"/><path fill="#e0bb21" d="M500 100h100v100H500z"/><path fill="#e2b415" d="M600 100h100v100H600z"/><path fill="#9a694f" d="M700 100h100v100H700z"/><path fill="#926c73" d="M0 200h100v100H0z"/><path fill="#865627" d="M100 200h100v100H100z"/><path fill="#cda029" d="M200 200h100v100H200z"/><path fill="#946d33" d="M300 200h100v100H300z"/><path fill="#946a33" d="M400 200h100v100H400z"/><path fill="#c39233" d="M500 200h100v100H500z"/><path fill="#c59c40" d="M600 200h100v100H600z"/><path fill="#b3a258" d="M700 200h100v100H700z"/><path fill="#7f5b5a" d="M0 300h100v100H0z"/><path fill="#79421f" d="M100 300h100v100H100z"/><path fill="#ae9059" d="M200 300h100v100H200z"/><path fill="#7c5838" d="M300 300h100v100H300z"/><path fill="#b46950" d="M400 300h100v100H400z"/><path fill="#cd6b44" d="M500 300h100v100H500z"/><path fill="#ead0a1" d="M600 300h100v100H600z"/><path fill="#aa8a65" d="M700 300h100v100H700z"/><path fill="#b8a19d" d="M0 400h100v100H0z"/><path fill="#9f807c" d="M100 400h100v100H100z"/><path fill="#b3938c" d="M200 400h100v100H200z"/><path fill="#b49384" d="M300 400h100v100H300z"/><path fill="#ceb4a8" d="M400 400h100v100H400z"/><path fill="#dec3b3" d="M500 400h100v100H500z"/><path fill="#d7c6b7" d="M600 400h100v100H600z"/><path fill="#b5a09f" d="M700 400h100v100H700z"/></svg>