<svg xmlns="http://www.w3.org/2000/svg" viewBox="0 0 800 500"><defs/><path fill="#4d4b55" d="M0 0h100v100H0z"/><path fill="#685e61" d="M100 0h100v100H100z"/><path fill="#515866" d="M200 0h100v100H200z"/><path fill="#5d6269" d="M300 0h100v100H300z"/><path fill="#535e6b" d="M400 0h100v100H400z"/><path fill="#465772" d="M500 0h100v100H500z"/><path fill="#505e7c" d="M600 0h100v100H600z"/><path fill="#4a556b" d="M700 0h100v100H700z"/><path fill="#656a74" d="M0 100h100v100H0z"/><path fill="#8b8184" d="M100 100h100v100H100z"/><path fill="#6f798b" d="M200 100h100v100H200z"/><path fill="#6e727a" d="M300 100h100v100H300z"/><path fill="#646d7f" d="M400 100h100v100H400z"/><path fill="#38435a" d="M500 100h100v100H500z"/><path fill="#798b81" d="M600 100h100v100H600z"/><path fill="#767572" d="M700 100h100v100H700z"/><path fill="#5e616a" d="M0 200h100v100H0z"/><path fill="#80716f" d="M100 200h100v100H100z"/><path fill="#767674" d="M200 200h100v100H200z"/><path fill="#5f5758" d="M300 200h100v100H300z"/><path fill="#494558" d="M400 200h100v100H400z"/><path fill="#5c667b" d="M500 200h100v100H500z"/><path fill="#63674d" d="M600 200h100v100H600z"/><path fill="#63695f" d="M700 200h100v100H700z"/><path fill="#68656f" d="M0 300h100v100H0z"/><path fill="#ab8871" d="M100 300h100v100H100z"/><path fill="#a7896f" d="M200 300h100v100H200z"/><path fill="#90776a" d="M300 300h100v100H300z"/><path fill="#977a5e" d="M400 300h100v100H400z"/><path fill="#ab8a6c" d="M500 300h100v100H500z"/><path fill="#997257" d="M600 300h100v100H600z"/><path fill="#7c6e70" d="M700 300h100v100H700z"/><path fill="#645044" d="M0 400h100v100H0z"/><path fill="#997050" d="M100 400h100v100H100z"/><path fill="#a19b92" d="M200 400h100v100H200z"/><path fill="#a4a7a6" d="M300 400h100v100H300z"/><path fill="#a7a09d" d="M400 400h100v100H400z"/><path fill="#8e6948" d="M500 400h100v100H500z"/><path fill="#6d5133" d="M600 400h100v100H600z"/><path fill="#463d38" d="M700 400h100v100H700z"/></svg>