<svg xmlns="http://www.w3.org/2000/svg" viewBox="0 0 800 400"><defs/><path fill="#bea86b" d="M0 0h100v100H0z"/><path fill="#5c4226" d="M100 0h100v100H100z"/><path fill="#c6b06f" d="M200 0h100v100H200z"/><path fill="#e0c480" d="M300 0h100v100H300z"/><path fill="#9dbb54" d="M400 0h100v100H400z"/><path fill="#53cb2a" d="M500 0h100v100H500z"/><path fill="#29ba31" d="M600 0h100v100H600z"/><path fill="#39b325" d="M700 0h100v100H700z"/><path fill="#a78e59" d="M0 100h100v100H0z"/><path fill="#6a4f2b" d="M100 100h100v100H100z"/><path fill="#cbbb7d" d="M200 100h100v100H200z"/><path fill="#9d9666" d="M300 100h100v100H300z"/><path fill="#95c547" d="M400 100h100v100H400z"/><path fill="#5dde29" d="M500 100h100v100H500z"/><path fill="#35d529" d="M600 100h100v100H600z"/><path fill="#22b010" d="M700 100h100v100H700z"/><path fill="#856f46" d="M0 200h100v100H0z"/><path fill="#664522" d="M100 200h100v100H100z"/><path fill="#9e8459" d="M200 200h100v100H200z"/><path fill="#696a5f" d="M300 200h100v100H300z"/><path fill="#be8e50" d="M400 200h100v100H400z"/><path fill="#a28c3c" d="M500 200h100v100H500z"/><path fill="#4e9b1e" d="M600 200h100v100H600z"/><path fill="#1baa16" d="M700 200h100v100H700z"/><path fill="#6f5030" d="M0 300h100v100H0z"/><path fill="#682f0a" d="M100 300h100v100H100z"/><path fill="#8e440f" d="M200 300h100v100H200z"/><path fill="#8d4613" d="M300 300h100v100H300z"/><path fill="#853e0c" d="M400 300h100v100H400z"/><path fill="#8b3e11" d="M500 300h100v100H500z"/><path fill="#873d0d" d="M600 300h100v100H600z"/><path fill="#60601d" d="M700 300h100v100H700z"/></svg>