<svg xmlns="http://www.w3.org/2000/svg" viewBox="0 0 800 500"><defs/><path fill="#8b856e" d="M0 0h100v100H0z"/><path fill="#7a7666" d="M100 0h100v100H100z"/><path fill="#918a7b" d="M200 0h100v100H200z"/><path fill="#827c72" d="M300 0h100v100H300z"/><path fill="#7d7770" d="M400 0h100v100H400z"/><path fill="#908b81" d="M500 0h100v100H500z"/><path fill="#7a756d" d="M600 0h100v100H600z"/><path fill="#918e82" d="M700 0h100v100H700z"/><path fill="#949088" d="M0 100h100v100H0z"/><path fill="#7b7875" d="M100 100h100v100H100z"/><path fill="#9a9590" d="M200 100h100v100H200z"/><path fill="#9a9591" d="M300 100h100v100H300z"/><path fill="#8e8b87" d="M400 100h100v100H400z"/><path fill="#aeaaa5" d="M500 100h100v100H500z"/><path fill="#b7b4b0" d="M600 100h100v100H600z"/><path fill="#96928e" d="M700 100h100v100H700z"/><path fill="#989793" d="M0 200h100v100H0z"/><path fill="#94938f" d="M100 200h100v100H100z"/><path fill="#a3a09d" d="M200 200h100v100H200z"/><path fill="#adaba7" d="M300 200h100v100H300z"/><path fill="#a5a4a0" d="M400 200h100v100H400z"/><path fill="#d4d1cd" d="M500 200h100v100H500z"/><path fill="#c4c2be" d="M600 200h100v100H600z"/><path fill="#918f8b" d="M700 200h100v100H700z"/><path fill="#aaaaa5" d="M0 300h100v100H0z"/><path fill="#a8a7a4" d="M100 300h100v100H100z"/><path fill="#b3b1ae" d="M200 300h100v100H200z"/><path fill="#8b8886" d="M300 300h100v100H300z"/><path fill="#aca9a6" d="M400 300h100v100H400z"/><path fill="#b4b3af" d="M500 300h100v100H500z"/><path fill="#a7a6a2" d="M600 300h100v100H600z"/><path fill="#9d9c98" d="M700 300h100v100H700z"/><path fill="#a9aba6" d="M0 400h100v100H0z"/><path fill="#bebfbc" d="M100 400h100v100H100z"/><path fill="#c2c2bf" d="M200 400h100v100H200z"/><path fill="#838182" d="M300 400h100v100H300z"/><path fill="#b7b5b4" d="M400 400h100v100H400z"/><path fill="#cdcdca" d="M500 400h100v100H500z"/><path fill="#c7c5c2" d="M600 400h100v100H600z"/><path fill="#c7c6c2" d="M700 400h100v100H700z"/></svg>