<svg xmlns="http://www.w3.org/2000/svg" viewBox="0 0 800 400"><defs/><path fill="#cecbdb" d="M0 0h100v100H0z"/><path fill="#b4adb7" d="M100 0h100v100H100z"/><path fill="#c6b9bf" d="M200 0h100v100H200z"/><path fill="#73768b" d="M300 0h100v100H300z"/><path fill="#686a7f" d="M400 0h100v100H400z"/><path fill="#c5bbbf" d="M500 0h100v100H500z"/><path fill="#c6b9b7" d="M600 0h100v100H600z"/><path fill="#958e92" d="M700 0h100v100H700z"/><path fill="#d5d5e9" d="M0 100h100v100H0z"/><path fill="#a39aa7" d="M100 100h100v100H100z"/><path fill="#988380" d="M200 100h100v100H200z"/><path fill="#4c4545" d="M300 100h100v100H300z"/><path fill="#564a49" d="M400 100h100v100H400z"/><path fill="#87716e" d="M500 100h100v100H500z"/><path fill="#7d6d65" d="M600 100h100v100H600z"/><path fill="#827a7a" d="M700 100h100v100H700z"/><path fill="#d3d3e7" d="M0 200h100v100H0z"/><path fill="#6a6f79" d="M100 200h100v100H100z"/><path fill="#66413f" d="M200 200h100v100H200z"/><path fill="#b13936" d="M300 200h100v100H300z"/><path fill="#662f34" d="M400 200h100v100H400z"/><path fill="#7d4741" d="M500 200h100v100H500z"/><path fill="#41302a" d="M600 200h100v100H600z"/><path fill="#62595b" d="M700 200h100v100H700z"/><path fill="#a9aabc" d="M0 300h100v100H0z"/><path fill="#4e4e56" d="M100 300h100v100H100z"/><path fill="#2b2629" d="M200 300h100v100H200z"/><path fill="#9d8377" d="M300 300h100v100H300z"/><path fill="#7b6d63" d="M400 300h100v100H400z"/><path fill="#554945" d="M500 300h100v100H500z"/><path fill="#594744" d="M600 300h100v100H600z"/><path fill="#4c4041" d="M700 300h100v100H700z"/></svg>