<svg xmlns="http://www.w3.org/2000/svg" viewBox="0 0 800 400"><defs/><path fill="#8b8447" d="M0 0h100v100H0z"/><path fill="#ca9e9d" d="M100 0h100v100H100z"/><path fill="#b3d4f1" d="M200 0h100v100H200z"/><path fill="#c3c5d7" d="M300 0h100v100H300z"/><path fill="#aca9b6" d="M400 0h100v100H400z"/><path fill="#525a5b" d="M500 0h100v100H500z"/><path fill="#462c27" d="M600 0h100v100H600z"/><path fill="#6b4750" d="M700 0h100v100H700z"/><path fill="#948d46" d="M0 100h100v100H0z"/><path fill="#d1b2a7" d="M100 100h100v100H100z"/><path fill="#9eafb2" d="M200 100h100v100H200z"/><path fill="#a4a4a0" d="M300 100h100v100H300z"/><path fill="#b2b4aa" d="M400 100h100v100H400z"/><path fill="#b4cfc1" d="M500 100h100v100H500z"/><path fill="#736e59" d="M600 100h100v100H600z"/><path fill="#714545" d="M700 100h100v100H700z"/><path fill="#7f5b42" d="M0 200h100v100H0z"/><path fill="#c2a083" d="M100 200h100v100H100z"/><path fill="#b58961" d="M200 200h100v100H200z"/><path fill="#784934" d="M300 200h100v100H300z"/><path fill="#a8937f" d="M400 200h100v100H400z"/><path fill="#b4b98d" d="M500 200h100v100H500z"/><path fill="#6e7655" d="M600 200h100v100H600z"/><path fill="#68474b" d="M700 200h100v100H700z"/><path fill="#775341" d="M0 300h100v100H0z"/><path fill="#926049" d="M100 300h100v100H100z"/><path fill="#91716b" d="M200 300h100v100H200z"/><path fill="#753e40" d="M300 300h100v100H300z"/><path fill="#a46c5b" d="M400 300h100v100H400z"/><path fill="#523535" d="M500 300h100v100H500z"/><path fill="#452b27" d="M600 300h100v100H600z"/><path fill="#63413e" d="M700 300h100v100H700z"/></svg>