<svg xmlns="http://www.w3.org/2000/svg" viewBox="0 0 800 800"><defs/><path fill="#e4e0e1" d="M0 0h100v100H0z"/><path fill="#b0a9a9" d="M100 0h100v100H100z"/><path fill="#e4e0e0" d="M200 0h100v100H200z"/><path fill="#e7e7e8" d="M300 0h100v100H300z"/><path fill="#e8e7e6" d="M400 0h100v100H400z"/><path fill="#e9e7e6" d="M500 0h100v100H500z"/><path fill="#ebeaea" d="M600 0h100v100H600z"/><path fill="#efeeef" d="M700 0h100v100H700z"/><path fill="#ebe4e3" d="M0 100h100v100H0z"/><path fill="#bfaeae" d="M100 100h100v100H100z"/><path fill="#cbc3c4" d="M200 100h100v100H200z"/><path fill="#e0dede" d="M300 100h100v100H300z"/><path fill="#d4d0d0" d="M400 100h100v100H400z"/><path fill="#cac9c9" d="M500 100h100v100H500z"/><path fill="#c5c4c4" d="M600 100h100v100H600z"/><path fill="#dbdada" d="M700 100h100v100H700z"/><path fill="#f5f5f5" d="M0 200h100v100H0z"/><path fill="#ced0d0" d="M100 200h100v100H100z"/><path fill="#cbcece" d="M200 200h100v100H200z"/><path fill="#dad3d3" d="M300 200h100v100H300z"/><path fill="#efe4e5" d="M400 200h100v100H400z"/><path fill="#d9dada" d="M500 200h100v100H500z"/><path fill="#c2c1c1" d="M600 200h100v100H600z"/><path fill="#efeeee" d="M700 200h100v100H700z"/><path fill="#fcfcfc" d="M0 300h100v100H0z"/><path fill="#a3a4a4" d="M100 300h100v100H100z"/><path fill="#a8abaa" d="M200 300h100v100H200z"/><path fill="#cec7c7" d="M300 300h100v100H300z"/><path fill="#fef3f3" d="M400 300h100v100H400z"/><path fill="#c8cdcd" d="M500 300h100v100H500z"/><path fill="#a6a7a7" d="M600 300h100v100H600z"/><path fill="#e2e4e4" d="M700 300h100v100H700z"/><path fill="#f0eaea" d="M0 400h100v100H0z"/><path fill="#53494a" d="M100 400h100v100H100z"/><path fill="#706a6a" d="M200 400h100v100H200z"/><path fill="#f0e2e2" d="M300 400h100v100H300z"/><path fill="#fdeaeb" d="M400 400h100v100H400z"/><path fill="#8c7f80" d="M500 400h100v100H500z"/><path fill="#5c5152" d="M600 400h100v100H600z"/><path fill="#a19394" d="M700 400h100v100H700z"/><path fill="#fefdfd" d="M0 500h100v100H0z"/><path fill="#f7f2f2" d="M100 500h100v100H100z"/><path fill="#d5cdcc" d="M200 500h100v100H200z"/><path fill="#e3d9da" d="M300 500h100v100H300z"/><path fill="#b69d97" d="M400 500h100v100H400z"/><path fill="#b99287" d="M500 500h100v100H500z"/><path fill="#e7bcb9" d="M600 500h100v100H600z"/><path fill="#f1dcd6" d="M700 500h100v100H700z"/><path fill="#e1e2e2" d="M0 600h100v100H0z"/><path fill="#a4a4a4" d="M100 600h100v100H100z"/><path fill="#c4c7c7" d="M200 600h100v100H200z"/><path fill="#efeaea" d="M300 600h100v100H300z"/><path fill="#b29d96" d="M400 600h100v100H400z"/><path fill="#8a8c7f" d="M500 600h100v100H500z"/><path fill="#736053" d="M600 600h100v100H600z"/><path fill="#bbbcb4" d="M700 600h100v100H700z"/><path fill="#b3b3b3" d="M0 700h100v100H0z"/><path fill="#7f7e7f" d="M100 700h100v100H100z"/><path fill="#f7f7f7" d="M200 700h100v100H200z"/><path fill="#eee9e8" d="M300 700h100v100H300z"/><path fill="#e1dbdc" d="M400 700h100v100H400z"/><path fill="#cbcece" d="M500 700h100v100H500z"/><path fill="#97897f" d="M600 700h100v100H600z"/><path fill="#cbccca" d="M700 700h100v100H700z"/></svg>