<svg xmlns="http://www.w3.org/2000/svg" viewBox="0 0 800 500"><defs/><path fill="#edaea9" d="M0 0h100v100H0z"/><path fill="#f1a09c" d="M100 0h100v100H100z"/><path fill="#f5c1c3" d="M200 0h100v100H200z"/><path fill="#edb7b9" d="M300 0h100v100H300z"/><path fill="#dca4a6" d="M400 0h100v100H400z"/><path fill="#e9b7ba" d="M500 0h100v100H500z"/><path fill="#eb9e9c" d="M600 0h100v100H600z"/><path fill="#e8a5a0" d="M700 0h100v100H700z"/><path fill="#dfcbc0" d="M0 100h100v100H0z"/><path fill="#cec0b5" d="M100 100h100v100H100z"/><path fill="#bac5c5" d="M200 100h100v100H200z"/><path fill="#adb5b4" d="M300 100h100v100H300z"/><path fill="#a7afae" d="M400 100h100v100H400z"/><path fill="#afbabb" d="M500 100h100v100H500z"/><path fill="#c5b9b2" d="M600 100h100v100H600z"/><path fill="#d9c2b7" d="M700 100h100v100H700z"/><path fill="#d0cfcf" d="M0 200h100v100H0z"/><path fill="#c4c2c2" d="M100 200h100v100H100z"/><path fill="#bdbbbb" d="M200 200h100v100H200z"/><path fill="#b3b1b2" d="M300 200h100v100H300z"/><path fill="#b3b1b1" d="M400 200h100v100H400z"/><path fill="#b7b5b5" d="M500 200h100v100H500z"/><path fill="#cbc9c9" d="M600 200h100v100H600z"/><path fill="#e5e4e4" d="M700 200h100v100H700z"/><path fill="#cdcdce" d="M0 300h100v100H0z"/><path fill="#bdbdbd" d="M100 300h100v100H100z"/><path fill="#bababa" d="M200 300h100v100H200z"/><path fill="#b9b9b9" d="M300 300h100v100H300z"/><path fill="#a7a6a6" d="M400 300h100v100H400z"/><path fill="#afaeaf" d="M500 300h100v100H500z"/><path fill="#dbdcdc" d="M600 300h100v100H600z"/><path fill="#f6f6f6" d="M700 300h100v100H700z"/><path fill="#d4d4d4" d="M0 400h100v100H0z"/><path fill="#bebebe" d="M100 400h100v100H100z"/><path fill="#cbcbcb" d="M200 400h100v100H200z"/><path fill="#c8c9c8" d="M300 400h100v100H300z"/><path fill="#afaeaf" d="M400 400h100v100H400z"/><path fill="#bfbebf" d="M500 400h100v100H500z"/><path fill="#b8b7b7" d="M600 400h100v100H600z"/><path fill="#c9c9c9" d="M700 400h100v100H700z"/></svg>