<svg xmlns="http://www.w3.org/2000/svg" viewBox="0 0 800 1100"><defs/><path fill="#021e39" d="M0 0h100v100H0z"/><path fill="#032a45" d="M100 0h100v100H100z"/><path fill="#257" d="M200 0h100v100H200z"/><path fill="#2b5f83" d="M300 0h100v100H300z"/><path fill="#346c91" d="M400 0h100v100H400z"/><path fill="#0e4363" d="M500 0h100v100H500z"/><path fill="#002948" d="M600 0h100v100H600z"/><path fill="#022846" d="M700 0h100v100H700z"/><path fill="#02213c" d="M0 100h100v100H0z"/><path fill="#02253f" d="M100 100h100v100H100z"/><path fill="#093d5c" d="M200 100h100v100H200z"/><path fill="#38749c" d="M300 100h100v100H300z"/><path fill="#588eb4" d="M400 100h100v100H400z"/><path fill="#124f74" d="M500 100h100v100H500z"/><path fill="#043f61" d="M600 100h100v100H600z"/><path fill="#033555" d="M700 100h100v100H700z"/><path fill="#05334e" d="M0 200h100v100H0z"/><path fill="#002f49" d="M100 200h100v100H100z"/><path fill="#1b567a" d="M200 200h100v100H200z"/><path fill="#4f8fb9" d="M300 200h100v100H300z"/><path fill="#73b0d8" d="M400 200h100v100H400z"/><path fill="#3d84b0" d="M500 200h100v100H500z"/><path fill="#18608c" d="M600 200h100v100H600z"/><path fill="#0b4b70" d="M700 200h100v100H700z"/><path fill="#266187" d="M0 300h100v100H0z"/><path fill="#306f93" d="M100 300h100v100H100z"/><path fill="#5d96b9" d="M200 300h100v100H200z"/><path fill="#a7c5e1" d="M300 300h100v100H300z"/><path fill="#6da1c4" d="M400 300h100v100H400z"/><path fill="#7bb4db" d="M500 300h100v100H500z"/><path fill="#539dcb" d="M600 300h100v100H600z"/><path fill="#23719e" d="M700 300h100v100H700z"/><path fill="#83b8db" d="M0 400h100v100H0z"/><path fill="#7ca1c0" d="M100 400h100v100H100z"/><path fill="#607d96" d="M200 400h100v100H200z"/><path fill="#9ba9bd" d="M300 400h100v100H300z"/><path fill="#7f8c9f" d="M400 400h100v100H400z"/><path fill="#a1b6cf" d="M500 400h100v100H500z"/><path fill="#8ac0e8" d="M600 400h100v100H600z"/><path fill="#4d9fcd" d="M700 400h100v100H700z"/><path fill="#69a5cb" d="M0 500h100v100H0z"/><path fill="#7da1c0" d="M100 500h100v100H100z"/><path fill="#7f9ab3" d="M200 500h100v100H200z"/><path fill="#68717a" d="M300 500h100v100H300z"/><path fill="#e3dcdc" d="M400 500h100v100H400z"/><path fill="#cfd2dc" d="M500 500h100v100H500z"/><path fill="#9ebfe0" d="M600 500h100v100H600z"/><path fill="#5ca9d7" d="M700 500h100v100H700z"/><path fill="#7cadce" d="M0 600h100v100H0z"/><path fill="#bbd6f0" d="M100 600h100v100H100z"/><path fill="#88a2bb" d="M200 600h100v100H200z"/><path fill="#737677" d="M300 600h100v100H300z"/><path fill="#e2e0db" d="M400 600h100v100H400z"/><path fill="#e8e8ed" d="M500 600h100v100H500z"/><path fill="#bfd5ef" d="M600 600h100v100H600z"/><path fill="#6babd5" d="M700 600h100v100H700z"/><path fill="#3d5f7f" d="M0 700h100v100H0z"/><path fill="#86a6c2" d="M100 700h100v100H100z"/><path fill="#6c8aa5" d="M200 700h100v100H200z"/><path fill="#617787" d="M300 700h100v100H300z"/><path fill="#d2d3db" d="M400 700h100v100H400z"/><path fill="#e1e5f4" d="M500 700h100v100H500z"/><path fill="#a6bed7" d="M600 700h100v100H600z"/><path fill="#75aacd" d="M700 700h100v100H700z"/><path fill="#467a9e" d="M0 800h100v100H0z"/><path fill="#2d506f" d="M100 800h100v100H100z"/><path fill="#6b8fab" d="M200 800h100v100H200z"/><path fill="#adc5dd" d="M300 800h100v100H300z"/><path fill="#b9c8db" d="M400 800h100v100H400z"/><path fill="#6c93ad" d="M500 800h100v100H500z"/><path fill="#4c86a8" d="M600 800h100v100H600z"/><path fill="#5d9bbb" d="M700 800h100v100H700z"/><path fill="#336587" d="M0 900h100v100H0z"/><path fill="#375472" d="M100 900h100v100H100z"/><path fill="#749ab3" d="M200 900h100v100H200z"/><path fill="#5385a3" d="M300 900h100v100H300z"/><path fill="#7fa6bc" d="M400 900h100v100H400z"/><path fill="#6d9eb5" d="M500 900h100v100H500z"/><path fill="#609cb6" d="M600 900h100v100H600z"/><path fill="#71a4ba" d="M700 900h100v100H700z"/><path fill="#5c879b" d="M0 1000h100v100H0z"/><path fill="#25415b" d="M100 1000h100v100H100z"/><path fill="#0a1d3a" d="M200 1000h100v100H200z"/><path fill="#28506c" d="M300 1000h100v100H300z"/><path fill="#6f9db2" d="M400 1000h100v100H400z"/><path fill="#86acba" d="M500 1000h100v100H500z"/><path fill="#6292a6" d="M600 1000h100v100H600z"/><path fill="#395e74" d="M700 1000h100v100H700z"/></svg>