<svg xmlns="http://www.w3.org/2000/svg" viewBox="0 0 800 600"><defs/><path fill="#f0dde1" d="M0 0h100v100H0z"/><path fill="#d7cdcb" d="M100 0h100v100H100z"/><path fill="#ecdadc" d="M200 0h100v100H200z"/><path fill="#efdfe1" d="M300 0h100v100H300z"/><path fill="#ecdddf" d="M400 0h100v100H400z"/><path fill="#f0dee1" d="M500 0h100v100H500z"/><path fill="#efdcdf" d="M600 0h100v100H600z"/><path fill="#f2e3e6" d="M700 0h100v100H700z"/><path fill="#bf7981" d="M0 100h100v100H0z"/><path fill="#60372d" d="M100 100h100v100H100z"/><path fill="#c26774" d="M200 100h100v100H200z"/><path fill="#c07c83" d="M300 100h100v100H300z"/><path fill="#b1928e" d="M400 100h100v100H400z"/><path fill="#cc6e7c" d="M500 100h100v100H500z"/><path fill="#c47780" d="M600 100h100v100H600z"/><path fill="#cc808b" d="M700 100h100v100H700z"/><path fill="#ad7274" d="M0 200h100v100H0z"/><path fill="#73463a" d="M100 200h100v100H100z"/><path fill="#cd7382" d="M200 200h100v100H200z"/><path fill="#caaaa2" d="M300 200h100v100H300z"/><path fill="#b7b7a5" d="M400 200h100v100H400z"/><path fill="#bc7980" d="M500 200h100v100H500z"/><path fill="#c76f7d" d="M600 200h100v100H600z"/><path fill="#cd7f8c" d="M700 200h100v100H700z"/><path fill="#8e5f5b" d="M0 300h100v100H0z"/><path fill="#663722" d="M100 300h100v100H100z"/><path fill="#c6978f" d="M200 300h100v100H200z"/><path fill="#e0dfd0" d="M300 300h100v100H300z"/><path fill="#c8c6b8" d="M400 300h100v100H400z"/><path fill="#b69a8d" d="M500 300h100v100H500z"/><path fill="#c5837f" d="M600 300h100v100H600z"/><path fill="#c88b84" d="M700 300h100v100H700z"/><path fill="#6f4f45" d="M0 400h100v100H0z"/><path fill="#674328" d="M100 400h100v100H100z"/><path fill="#bc9873" d="M200 400h100v100H200z"/><path fill="#c6a689" d="M300 400h100v100H300z"/><path fill="#c2a283" d="M400 400h100v100H400z"/><path fill="#c59e77" d="M500 400h100v100H500z"/><path fill="#c0a17e" d="M600 400h100v100H600z"/><path fill="#bf9585" d="M700 400h100v100H700z"/><path fill="#e2ddd8" d="M0 500h100v100H0z"/><path fill="#e2dad2" d="M100 500h100v100H100z"/><path fill="#ece1d7" d="M200 500h100v100H200z"/><path fill="#ebe0d6" d="M300 500h100v100H300z"/><path fill="#ede1d6" d="M400 500h100v100H400z"/><path fill="#ede1d7" d="M500 500h100v100H500z"/><path fill="#ede2db" d="M600 500h100v100H600z"/><path fill="#ebe3df" d="M700 500h100v100H700z"/></svg>