<svg xmlns="http://www.w3.org/2000/svg" viewBox="0 0 800 1100"><defs/><path fill="#8d9090" d="M0 0h100v100H0z"/><path fill="#898d93" d="M100 0h100v100H100z"/><path fill="#6b7c8b" d="M200 0h100v100H200z"/><path fill="#8f989f" d="M300 0h100v100H300z"/><path fill="#abb3b8" d="M400 0h100v100H400z"/><path fill="#6d716e" d="M500 0h100v100H500z"/><path fill="#7e8482" d="M600 0h100v100H600z"/><path fill="#8e989c" d="M700 0h100v100H700z"/><path fill="#7a7e81" d="M0 100h100v100H0z"/><path fill="#8a949e" d="M100 100h100v100H100z"/><path fill="#8394a4" d="M200 100h100v100H200z"/><path fill="#808e99" d="M300 100h100v100H300z"/><path fill="#75818a" d="M400 100h100v100H400z"/><path fill="#7f7574" d="M500 100h100v100H500z"/><path fill="#9da093" d="M600 100h100v100H600z"/><path fill="#a5acb1" d="M700 100h100v100H700z"/><path fill="#6a6e75" d="M0 200h100v100H0z"/><path fill="#929fac" d="M100 200h100v100H100z"/><path fill="#8798ac" d="M200 200h100v100H200z"/><path fill="#99aabf" d="M300 200h100v100H300z"/><path fill="#7b899b" d="M400 200h100v100H400z"/><path fill="#6a565d" d="M500 200h100v100H500z"/><path fill="#756f68" d="M600 200h100v100H600z"/><path fill="#8f8b8c" d="M700 200h100v100H700z"/><path fill="#64666b" d="M0 300h100v100H0z"/><path fill="#9ba5b1" d="M100 300h100v100H100z"/><path fill="#7b8892" d="M200 300h100v100H200z"/><path fill="#97979d" d="M300 300h100v100H300z"/><path fill="#7185ab" d="M400 300h100v100H400z"/><path fill="#433848" d="M500 300h100v100H500z"/><path fill="#5b5658" d="M600 300h100v100H600z"/><path fill="#979695" d="M700 300h100v100H700z"/><path fill="#5e6981" d="M0 400h100v100H0z"/><path fill="#6379a3" d="M100 400h100v100H100z"/><path fill="#45587c" d="M200 400h100v100H200z"/><path fill="#545364" d="M300 400h100v100H300z"/><path fill="#43507d" d="M400 400h100v100H400z"/><path fill="#293a78" d="M500 400h100v100H500z"/><path fill="#5b5a66" d="M600 400h100v100H600z"/><path fill="#6f7076" d="M700 400h100v100H700z"/><path fill="#414957" d="M0 500h100v100H0z"/><path fill="#666a7b" d="M100 500h100v100H100z"/><path fill="#6a6f81" d="M200 500h100v100H200z"/><path fill="#585b63" d="M300 500h100v100H300z"/><path fill="#4a4d61" d="M400 500h100v100H400z"/><path fill="#54546a" d="M500 500h100v100H500z"/><path fill="#696059" d="M600 500h100v100H600z"/><path fill="#6e6355" d="M700 500h100v100H700z"/><path fill="#472e2f" d="M0 600h100v100H0z"/><path fill="#9b7b72" d="M100 600h100v100H100z"/><path fill="#848180" d="M200 600h100v100H200z"/><path fill="#293678" d="M300 600h100v100H300z"/><path fill="#2f4281" d="M400 600h100v100H400z"/><path fill="#a09c9c" d="M500 600h100v100H500z"/><path fill="#bdb5ad" d="M600 600h100v100H600z"/><path fill="#968e7e" d="M700 600h100v100H700z"/><path fill="#674d50" d="M0 700h100v100H0z"/><path fill="#a18284" d="M100 700h100v100H100z"/><path fill="#6a6866" d="M200 700h100v100H200z"/><path fill="#655c66" d="M300 700h100v100H300z"/><path fill="#797e95" d="M400 700h100v100H400z"/><path fill="#b7b4b7" d="M500 700h100v100H500z"/><path fill="#c6c0b9" d="M600 700h100v100H600z"/><path fill="#959189" d="M700 700h100v100H700z"/><path fill="#686560" d="M0 800h100v100H0z"/><path fill="#89847b" d="M100 800h100v100H100z"/><path fill="#7b6f61" d="M200 800h100v100H200z"/><path fill="#9f9180" d="M300 800h100v100H300z"/><path fill="#bfb5a8" d="M400 800h100v100H400z"/><path fill="#c6c1bc" d="M500 800h100v100H500z"/><path fill="#b6b1aa" d="M600 800h100v100H600z"/><path fill="#848078" d="M700 800h100v100H700z"/><path fill="#948b7c" d="M0 900h100v100H0z"/><path fill="#989184" d="M100 900h100v100H100z"/><path fill="#b1aa9e" d="M200 900h100v100H200z"/><path fill="#bcb7b0" d="M300 900h100v100H300z"/><path fill="#beb7ae" d="M400 900h100v100H400z"/><path fill="#bcb7ad" d="M500 900h100v100H500z"/><path fill="#a09b91" d="M600 900h100v100H600z"/><path fill="#625c56" d="M700 900h100v100H700z"/><path fill="#a8a194" d="M0 1000h100v100H0z"/><path fill="#b5aea3" d="M100 1000h100v100H100z"/><path fill="#c1bbb1" d="M200 1000h100v100H200z"/><path fill="#c2beb4" d="M300 1000h100v100H300z"/><path fill="#bdb9af" d="M400 1000h100v100H400z"/><path fill="#b3ada2" d="M500 1000h100v100H500z"/><path fill="#928b7a" d="M600 1000h100v100H600z"/><path fill="#7f7e79" d="M700 1000h100v100H700z"/></svg>