<svg xmlns="http://www.w3.org/2000/svg" viewBox="0 0 800 1400"><defs/><path d="M0 0h100v100H0zm100 0h100v100H100zm100 0h100v100H200zm100 0h100v100H300zm100 0h100v100H400zm100 0h100v100H500zm100 0h100v100H600zm100 0h100v100H700zM0 100h100v100H0zm100 0h100v100H100zm100 0h100v100H200zm100 0h100v100H300zm100 0h100v100H400zm100 0h100v100H500zm100 0h100v100H600zm100 0h100v100H700z"/><path fill="#030303" d="M0 200h100v100H0zm100 0h100v100H100zm100 0h100v100H200zm100 0h100v100H300zm100 0h100v100H400zm100 0h100v100H500z"/><path fill="#020202" d="M600 200h100v100H600z"/><path fill="#030303" d="M700 200h100v100H700z"/><path d="M0 300h100v100H0zm100 0h100v100H100zm100 0h100v100H200zm100 0h100v100H300zm100 0h100v100H400zm100 0h100v100H500zm100 0h100v100H600zm100 0h100v100H700z"/><path fill="#a2a2a2" d="M0 400h100v100H0z"/><path fill="#a0a0a0" d="M100 400h100v100H100z"/><path fill="#9f9f9f" d="M200 400h100v100H200z"/><path fill="#929292" d="M300 400h100v100H300z"/><path fill="#868686" d="M400 400h100v100H400zm100 0h100v100H500z"/><path fill="#7b7b7b" d="M600 400h100v100H600z"/><path fill="#767676" d="M700 400h100v100H700z"/><path fill="#e3e3e3" d="M0 500h100v100H0z"/><path fill="#d5d5d5" d="M100 500h100v100H100z"/><path fill="#d0d0d0" d="M200 500h100v100H200z"/><path fill="#d3d3d3" d="M300 500h100v100H300z"/><path fill="#cdcdcd" d="M400 500h100v100H400z"/><path fill="#cacaca" d="M500 500h100v100H500z"/><path fill="#bababa" d="M600 500h100v100H600z"/><path fill="#a1a1a1" d="M700 500h100v100H700z"/><path fill="#cfcfcf" d="M0 600h100v100H0z"/><path fill="#bababa" d="M100 600h100v100H100z"/><path fill="#c4c4c4" d="M200 600h100v100H200z"/><path fill="#b8b8b8" d="M300 600h100v100H300zm100 0h100v100H400z"/><path fill="#b0b0b0" d="M500 600h100v100H500z"/><path fill="#aeaeae" d="M600 600h100v100H600z"/><path fill="#939393" d="M700 600h100v100H700z"/><path fill="#c9c9c9" d="M0 700h100v100H0z"/><path fill="#a8a8a8" d="M100 700h100v100H100z"/><path fill="#919191" d="M200 700h100v100H200z"/><path fill="#a4a4a4" d="M300 700h100v100H300z"/><path fill="#a1a1a1" d="M400 700h100v100H400z"/><path fill="#9d9d9d" d="M500 700h100v100H500z"/><path fill="#9a9a9a" d="M600 700h100v100H600z"/><path fill="#afafaf" d="M700 700h100v100H700z"/><path fill="#bdbdbd" d="M0 800h100v100H0z"/><path fill="#a3a3a3" d="M100 800h100v100H100z"/><path fill="#b6b6b6" d="M200 800h100v100H200z"/><path fill="#b5b5b5" d="M300 800h100v100H300z"/><path fill="#ababab" d="M400 800h100v100H400z"/><path fill="#9c9c9c" d="M500 800h100v100H500z"/><path fill="#a0a0a0" d="M600 800h100v100H600z"/><path fill="#999" d="M700 800h100v100H700z"/><path fill="#b2b2b2" d="M0 900h100v100H0z"/><path fill="#b1b1b1" d="M100 900h100v100H100z"/><path fill="#b3b3b3" d="M200 900h100v100H200z"/><path fill="#b2b2b2" d="M300 900h100v100H300z"/><path fill="#b0b0b0" d="M400 900h100v100H400z"/><path fill="#a2a2a2" d="M500 900h100v100H500z"/><path fill="#9e9e9e" d="M600 900h100v100H600z"/><path fill="#8c8c8c" d="M700 900h100v100H700z"/><path fill="#131313" d="M0 1000h100v100H0zm100 0h100v100H100z"/><path fill="#121212" d="M200 1000h100v100H200zm100 0h100v100H300z"/><path fill="#111" d="M400 1000h100v100H400zm100 0h100v100H500zm100 0h100v100H600z"/><path fill="#0f0f0f" d="M700 1000h100v100H700z"/><path d="M0 1100h100v100H0zm100 0h100v100H100zm100 0h100v100H200zm100 0h100v100H300zm100 0h100v100H400zm100 0h100v100H500zm100 0h100v100H600zm100 0h100v100H700z"/><path fill="#010101" d="M0 1200h100v100H0zm100 0h100v100H100zm100 0h100v100H200zm100 0h100v100H300zm100 0h100v100H400zm100 0h100v100H500zm100 0h100v100H600zm100 0h100v100H700z"/><path d="M0 1300h100v100H0zm100 0h100v100H100zm100 0h100v100H200zm100 0h100v100H300zm100 0h100v100H400zm100 0h100v100H500zm100 0h100v100H600zm100 0h100v100H700z"/></svg>