<svg xmlns="http://www.w3.org/2000/svg" viewBox="0 0 800 600"><defs/><path fill="#f0ebec" d="M0 0h100v100H0z"/><path fill="#cfc1be" d="M100 0h100v100H100z"/><path fill="#ccbdb3" d="M200 0h100v100H200z"/><path fill="#cab9ae" d="M300 0h100v100H300z"/><path fill="#c6b6aa" d="M400 0h100v100H400z"/><path fill="#c8b6a9" d="M500 0h100v100H500z"/><path fill="#cebbb0" d="M600 0h100v100H600z"/><path fill="#d8c0b6" d="M700 0h100v100H700z"/><path fill="#f2e2e2" d="M0 100h100v100H0z"/><path fill="#d1c7c2" d="M100 100h100v100H100z"/><path fill="#d5ccc4" d="M200 100h100v100H200z"/><path fill="#dbd0c7" d="M300 100h100v100H300z"/><path fill="#ddd2c9" d="M400 100h100v100H400z"/><path fill="#dacfc7" d="M500 100h100v100H500z"/><path fill="#e1d8d8" d="M600 100h100v100H600z"/><path fill="#f0e2e4" d="M700 100h100v100H700z"/><path fill="#e5d2d1" d="M0 200h100v100H0z"/><path fill="#b5aba2" d="M100 200h100v100H100z"/><path fill="#c2b2a5" d="M200 200h100v100H200z"/><path fill="#cbbeb1" d="M300 200h100v100H300z"/><path fill="#ccc1b8" d="M400 200h100v100H400z"/><path fill="#cec3bc" d="M500 200h100v100H500z"/><path fill="#d2c5c2" d="M600 200h100v100H600z"/><path fill="#dec9c3" d="M700 200h100v100H700z"/><path fill="#d3c2c3" d="M0 300h100v100H0z"/><path fill="#aaa19a" d="M100 300h100v100H100z"/><path fill="#c2b2a6" d="M200 300h100v100H200z"/><path fill="#c3b7ae" d="M300 300h100v100H300z"/><path fill="#c3b9b3" d="M400 300h100v100H400z"/><path fill="#c7b9af" d="M500 300h100v100H500z"/><path fill="#c9b7ab" d="M600 300h100v100H600z"/><path fill="#d0b9b3" d="M700 300h100v100H700z"/><path fill="#baa6a1" d="M0 400h100v100H0z"/><path fill="#ab9d99" d="M100 400h100v100H100z"/><path fill="#b8a497" d="M200 400h100v100H200z"/><path fill="#baaba1" d="M300 400h100v100H300z"/><path fill="#bcb0a7" d="M400 400h100v100H400z"/><path fill="#bbaa9e" d="M500 400h100v100H500z"/><path fill="#c2b0ab" d="M600 400h100v100H600z"/><path fill="#c8b2af" d="M700 400h100v100H700z"/><path fill="#d4b5ba" d="M0 500h100v100H0z"/><path fill="#c4acb0" d="M100 500h100v100H100z"/><path fill="#bdacac" d="M200 500h100v100H200z"/><path fill="#bcaeaf" d="M300 500h100v100H300z"/><path fill="#bcb0b4" d="M400 500h100v100H400z"/><path fill="#b9a9ad" d="M500 500h100v100H500z"/><path fill="#bfabaf" d="M600 500h100v100H600z"/><path fill="#c7acb1" d="M700 500h100v100H700z"/></svg>