<svg xmlns="http://www.w3.org/2000/svg" viewBox="0 0 800 500"><defs/><path fill="#f3f5f7" d="M0 0h100v100H0z"/><path fill="#eff2f4" d="M100 0h100v100H100z"/><path fill="#f1f2f3" d="M200 0h100v100H200z"/><path fill="#eeeeef" d="M300 0h100v100H300z"/><path fill="#e4e8eb" d="M400 0h100v100H400z"/><path fill="#ebedef" d="M500 0h100v100H500z"/><path fill="#e5e7e9" d="M600 0h100v100H600z"/><path fill="#e8ebed" d="M700 0h100v100H700z"/><path fill="#b1bac3" d="M0 100h100v100H0z"/><path fill="#8596a3" d="M100 100h100v100H100z"/><path fill="#aab5be" d="M200 100h100v100H200z"/><path fill="#989fa6" d="M300 100h100v100H300z"/><path fill="#7b90a0" d="M400 100h100v100H400z"/><path fill="#96a5b0" d="M500 100h100v100H500z"/><path fill="#8d9ea9" d="M600 100h100v100H600z"/><path fill="#a8b1b8" d="M700 100h100v100H700z"/><path fill="#bac3cb" d="M0 200h100v100H0z"/><path fill="#929faa" d="M100 200h100v100H100z"/><path fill="#89939b" d="M200 200h100v100H200z"/><path fill="#6f7984" d="M300 200h100v100H300z"/><path fill="#949ea4" d="M400 200h100v100H400z"/><path fill="#9ba5a9" d="M500 200h100v100H500z"/><path fill="#9da8ac" d="M600 200h100v100H600z"/><path fill="#b9c0c5" d="M700 200h100v100H700z"/><path fill="#acb6bf" d="M0 300h100v100H0z"/><path fill="#637485" d="M100 300h100v100H100z"/><path fill="#8c949c" d="M200 300h100v100H200z"/><path fill="#8a9096" d="M300 300h100v100H300z"/><path fill="#868e92" d="M400 300h100v100H400z"/><path fill="#959da1" d="M500 300h100v100H500z"/><path fill="#a5aaae" d="M600 300h100v100H600z"/><path fill="#b5bec3" d="M700 300h100v100H700z"/><path fill="#cccfd3" d="M0 400h100v100H0z"/><path fill="#9da4ad" d="M100 400h100v100H100z"/><path fill="#c1c9ce" d="M200 400h100v100H200z"/><path fill="#c3c9ce" d="M300 400h100v100H300z"/><path fill="#bcc3c7" d="M400 400h100v100H400z"/><path fill="#c7cbcf" d="M500 400h100v100H500z"/><path fill="#c3c8cb" d="M600 400h100v100H600z"/><path fill="#c2c8cc" d="M700 400h100v100H700z"/></svg>