<svg xmlns="http://www.w3.org/2000/svg" viewBox="0 0 800 600"><defs/><path fill="#c0c3c6" d="M0 0h100v100H0z"/><path fill="#c1c3c3" d="M100 0h100v100H100z"/><path fill="#c3c7ca" d="M200 0h100v100H200z"/><path fill="#c2c6ca" d="M300 0h100v100H300z"/><path fill="#c3c6ca" d="M400 0h100v100H400z"/><path fill="#cbcdd2" d="M500 0h100v100H500z"/><path fill="#c5c8cd" d="M600 0h100v100H600z"/><path fill="#c1c6ca" d="M700 0h100v100H700z"/><path fill="#a8a9aa" d="M0 100h100v100H0z"/><path fill="#cccbcc" d="M100 100h100v100H100z"/><path fill="#c5c4c1" d="M200 100h100v100H200z"/><path fill="#cccbc8" d="M300 100h100v100H300z"/><path fill="#cbcac9" d="M400 100h100v100H400z"/><path fill="#d7d7d6" d="M500 100h100v100H500z"/><path fill="#929291" d="M600 100h100v100H600z"/><path fill="#838687" d="M700 100h100v100H700z"/><path fill="#92918e" d="M0 200h100v100H0z"/><path fill="#928c82" d="M100 200h100v100H100z"/><path fill="#858998" d="M200 200h100v100H200z"/><path fill="#808395" d="M300 200h100v100H300z"/><path fill="#a5a6a8" d="M400 200h100v100H400z"/><path fill="#a0a1a4" d="M500 200h100v100H500z"/><path fill="#8b8a8a" d="M600 200h100v100H600z"/><path fill="#89847c" d="M700 200h100v100H700z"/><path fill="#7a756d" d="M0 300h100v100H0z"/><path fill="#5a472e" d="M100 300h100v100H100z"/><path fill="#614830" d="M200 300h100v100H200z"/><path fill="#53361e" d="M300 300h100v100H300z"/><path fill="#807261" d="M400 300h100v100H400z"/><path fill="#9b9790" d="M500 300h100v100H500z"/><path fill="#9a9285" d="M600 300h100v100H600z"/><path fill="#938672" d="M700 300h100v100H700z"/><path fill="#7a7364" d="M0 400h100v100H0z"/><path fill="#7a6344" d="M100 400h100v100H100z"/><path fill="#87653d" d="M200 400h100v100H200z"/><path fill="#7f5c31" d="M300 400h100v100H300z"/><path fill="#9d8463" d="M400 400h100v100H400z"/><path fill="#cab89b" d="M500 400h100v100H500z"/><path fill="#c9b595" d="M600 400h100v100H600z"/><path fill="#a39783" d="M700 400h100v100H700z"/><path fill="#b8b9b8" d="M0 500h100v100H0z"/><path fill="#bdbcb9" d="M100 500h100v100H100z"/><path fill="#babbba" d="M200 500h100v100H200z"/><path fill="#babbb9" d="M300 500h100v100H300z"/><path fill="#b9b9b6" d="M400 500h100v100H400z"/><path fill="#b5b4b1" d="M500 500h100v100H500z"/><path fill="#bab8b5" d="M600 500h100v100H600z"/><path fill="#b4b7b4" d="M700 500h100v100H700z"/></svg>