<svg xmlns="http://www.w3.org/2000/svg" viewBox="0 0 800 600"><defs/><path fill="#ceeafa" d="M0 0h100v100H0z"/><path fill="#c9ddec" d="M100 0h100v100H100z"/><path fill="#c0dce5" d="M200 0h100v100H200z"/><path fill="#c5dfdc" d="M300 0h100v100H300z"/><path fill="#bed3cb" d="M400 0h100v100H400z"/><path fill="#c1d8d4" d="M500 0h100v100H500z"/><path fill="#c5d9cc" d="M600 0h100v100H600z"/><path fill="#c1dade" d="M700 0h100v100H700z"/><path fill="#cae4f6" d="M0 100h100v100H0z"/><path fill="#b2d0c2" d="M100 100h100v100H100z"/><path fill="#94dba8" d="M200 100h100v100H200z"/><path fill="#b3ddbc" d="M300 100h100v100H300z"/><path fill="#becdcc" d="M400 100h100v100H400z"/><path fill="#c9dba5" d="M500 100h100v100H500z"/><path fill="#bbc696" d="M600 100h100v100H600z"/><path fill="#b1cec5" d="M700 100h100v100H700z"/><path fill="#c7ddee" d="M0 200h100v100H0z"/><path fill="#a7cab5" d="M100 200h100v100H100z"/><path fill="#a6e1c6" d="M200 200h100v100H200z"/><path fill="#addbbe" d="M300 200h100v100H300z"/><path fill="#9ab2a6" d="M400 200h100v100H400z"/><path fill="#a4ceae" d="M500 200h100v100H500z"/><path fill="#86c8af" d="M600 200h100v100H600z"/><path fill="#b4b5b0" d="M700 200h100v100H700z"/><path fill="#bfdbe5" d="M0 300h100v100H0z"/><path fill="#abacb0" d="M100 300h100v100H100z"/><path fill="#b0aaaf" d="M200 300h100v100H200z"/><path fill="#91a9ae" d="M300 300h100v100H300z"/><path fill="#a09fa8" d="M400 300h100v100H400z"/><path fill="#7ab3a2" d="M500 300h100v100H500z"/><path fill="#96bebd" d="M600 300h100v100H600z"/><path fill="#afbf92" d="M700 300h100v100H700z"/><path fill="#bbd4df" d="M0 400h100v100H0z"/><path fill="#b7a7ad" d="M100 400h100v100H100z"/><path fill="#bea39e" d="M200 400h100v100H200z"/><path fill="#83a0a7" d="M300 400h100v100H300z"/><path fill="#7a96ab" d="M400 400h100v100H400z"/><path fill="#6d9393" d="M500 400h100v100H500z"/><path fill="#abb2ad" d="M600 400h100v100H600z"/><path fill="#b1bf68" d="M700 400h100v100H700z"/><path fill="#c5d7e2" d="M0 500h100v100H0z"/><path fill="#bfccd5" d="M100 500h100v100H100z"/><path fill="#b9d0d8" d="M200 500h100v100H200z"/><path fill="#a5bec3" d="M300 500h100v100H300z"/><path fill="#82a8b6" d="M400 500h100v100H400z"/><path fill="#a0abb5" d="M500 500h100v100H500z"/><path fill="#b4bf96" d="M600 500h100v100H600z"/><path fill="#b4c97e" d="M700 500h100v100H700z"/></svg>