<svg xmlns="http://www.w3.org/2000/svg" viewBox="0 0 800 1100"><defs/><path fill="#181a19" d="M0 0h100v100H0z"/><path fill="#18181a" d="M100 0h100v100H100z"/><path fill="#18191b" d="M200 0h100v100H200zm100 0h100v100H300zm100 0h100v100H400z"/><path fill="#181919" d="M500 0h100v100H500z"/><path fill="#181818" d="M600 0h100v100H600z"/><path fill="#171817" d="M700 0h100v100H700z"/><path fill="#111315" d="M0 100h100v100H0z"/><path fill="#111314" d="M100 100h100v100H100z"/><path fill="#121315" d="M200 100h100v100H200zm100 0h100v100H300zm100 0h100v100H400zm100 0h100v100H500z"/><path fill="#111214" d="M600 100h100v100H600z"/><path fill="#111213" d="M700 100h100v100H700z"/><path fill="#0c0b0f" d="M0 200h100v100H0z"/><path fill="#080c11" d="M100 200h100v100H100z"/><path fill="#03090d" d="M200 200h100v100H200z"/><path fill="#04090d" d="M300 200h100v100H300z"/><path fill="#06090d" d="M400 200h100v100H400zm100 0h100v100H500z"/><path fill="#0d1013" d="M600 200h100v100H600z"/><path fill="#0b0e13" d="M700 200h100v100H700z"/><path fill="#668699" d="M0 300h100v100H0z"/><path fill="#7d8c99" d="M100 300h100v100H100z"/><path fill="#929aad" d="M200 300h100v100H200z"/><path fill="#9098a8" d="M300 300h100v100H300z"/><path fill="#8e93a1" d="M400 300h100v100H400z"/><path fill="#9298a4" d="M500 300h100v100H500z"/><path fill="#72798e" d="M600 300h100v100H600z"/><path fill="#808188" d="M700 300h100v100H700z"/><path fill="#46b8de" d="M0 400h100v100H0z"/><path fill="#94bdcf" d="M100 400h100v100H100z"/><path fill="#b2bbbf" d="M200 400h100v100H200z"/><path fill="#aabec8" d="M300 400h100v100H300z"/><path fill="#aac1d6" d="M400 400h100v100H400z"/><path fill="#a6c0d7" d="M500 400h100v100H500z"/><path fill="#9996af" d="M600 400h100v100H600z"/><path fill="#928e8e" d="M700 400h100v100H700z"/><path fill="#587c90" d="M0 500h100v100H0z"/><path fill="#979aaa" d="M100 500h100v100H100z"/><path fill="#596451" d="M200 500h100v100H200z"/><path fill="#708263" d="M300 500h100v100H300z"/><path fill="#6488a0" d="M400 500h100v100H400z"/><path fill="#5b8394" d="M500 500h100v100H500z"/><path fill="#c3aaaa" d="M600 500h100v100H600z"/><path fill="#898973" d="M700 500h100v100H700z"/><path fill="#59585b" d="M0 600h100v100H0z"/><path fill="#8d8d92" d="M100 600h100v100H100z"/><path fill="#8b8f94" d="M200 600h100v100H200z"/><path fill="#a8a87f" d="M300 600h100v100H300z"/><path fill="#a2a96a" d="M400 600h100v100H400z"/><path fill="#8f9b93" d="M500 600h100v100H500z"/><path fill="#a4947e" d="M600 600h100v100H600z"/><path fill="#8a8468" d="M700 600h100v100H700z"/><path fill="#5f6a73" d="M0 700h100v100H0z"/><path fill="#9a9fa7" d="M100 700h100v100H100z"/><path fill="#cacddd" d="M200 700h100v100H200z"/><path fill="#a39e9f" d="M300 700h100v100H300z"/><path fill="#98987e" d="M400 700h100v100H400z"/><path fill="#9e9fa3" d="M500 700h100v100H500z"/><path fill="#948a7e" d="M600 700h100v100H600z"/><path fill="#7c7e72" d="M700 700h100v100H700z"/><path fill="#788698" d="M0 800h100v100H0z"/><path fill="#afb3bd" d="M100 800h100v100H100z"/><path fill="#a9a5a5" d="M200 800h100v100H200z"/><path fill="#8f8a85" d="M300 800h100v100H300z"/><path fill="#868c96" d="M400 800h100v100H400z"/><path fill="#7e8187" d="M500 800h100v100H500z"/><path fill="#7f8088" d="M600 800h100v100H600z"/><path fill="#868a8d" d="M700 800h100v100H700z"/><path fill="#474644" d="M0 900h100v100H0z"/><path fill="#454443" d="M100 900h100v100H100z"/><path fill="#2e2f32" d="M200 900h100v100H200z"/><path fill="#303134" d="M300 900h100v100H300z"/><path fill="#393b3c" d="M400 900h100v100H400z"/><path fill="#3c3a39" d="M500 900h100v100H500z"/><path fill="#4d4b45" d="M600 900h100v100H600z"/><path fill="#5a5954" d="M700 900h100v100H700z"/><path fill="#554f3f" d="M0 1000h100v100H0z"/><path fill="#5a4a4e" d="M100 1000h100v100H100z"/><path fill="#4a3949" d="M200 1000h100v100H200z"/><path fill="#2a2828" d="M300 1000h100v100H300z"/><path fill="#202325" d="M400 1000h100v100H400z"/><path fill="#292f36" d="M500 1000h100v100H500z"/><path fill="#564e4b" d="M600 1000h100v100H600z"/><path fill="#796952" d="M700 1000h100v100H700z"/></svg>