<svg xmlns="http://www.w3.org/2000/svg" viewBox="0 0 800 400"><defs/><path fill="#b4d0be" d="M0 0h100v100H0z"/><path fill="#598f9a" d="M100 0h100v100H100z"/><path fill="#85a3a6" d="M200 0h100v100H200z"/><path fill="#7eafb0" d="M300 0h100v100H300z"/><path fill="#8698b4" d="M400 0h100v100H400z"/><path fill="#8ea0b2" d="M500 0h100v100H500z"/><path fill="#7ca9b1" d="M600 0h100v100H600z"/><path fill="#aac5bd" d="M700 0h100v100H700z"/><path fill="#a0c1b5" d="M0 100h100v100H0z"/><path fill="#61a8a6" d="M100 100h100v100H100z"/><path fill="#b8abaa" d="M200 100h100v100H200z"/><path fill="#b3adae" d="M300 100h100v100H300z"/><path fill="#83a4a4" d="M400 100h100v100H400z"/><path fill="#958fac" d="M500 100h100v100H500z"/><path fill="#9091b3" d="M600 100h100v100H600z"/><path fill="#8d9bad" d="M700 100h100v100H700z"/><path fill="#82b8ae" d="M0 200h100v100H0z"/><path fill="#66939e" d="M100 200h100v100H100z"/><path fill="#d7a5b8" d="M200 200h100v100H200z"/><path fill="#cc9cb0" d="M300 200h100v100H300z"/><path fill="#a597a2" d="M400 200h100v100H400z"/><path fill="#9b98b2" d="M500 200h100v100H500z"/><path fill="#888bae" d="M600 200h100v100H600z"/><path fill="#988ca0" d="M700 200h100v100H700z"/><path fill="#769b9f" d="M0 300h100v100H0z"/><path fill="#938ca0" d="M100 300h100v100H100z"/><path fill="#af91a7" d="M200 300h100v100H200z"/><path fill="#a08aa5" d="M300 300h100v100H300z"/><path fill="#ba99b3" d="M400 300h100v100H400z"/><path fill="#be95ac" d="M500 300h100v100H500z"/><path fill="#99819f" d="M600 300h100v100H600z"/><path fill="#87898c" d="M700 300h100v100H700z"/></svg>