<svg xmlns="http://www.w3.org/2000/svg" viewBox="0 0 800 600"><defs/><path fill="#f1e3e3" d="M0 0h100v100H0z"/><path fill="#9c7e77" d="M100 0h100v100H100z"/><path fill="#e1d1c4" d="M200 0h100v100H200z"/><path fill="#f0e8ef" d="M300 0h100v100H300z"/><path fill="#e0ccf1" d="M400 0h100v100H400z"/><path fill="#d3afee" d="M500 0h100v100H500z"/><path fill="#c492e3" d="M600 0h100v100H600z"/><path fill="#e4daf1" d="M700 0h100v100H700z"/><path fill="#e0d3cf" d="M0 100h100v100H0z"/><path fill="#91716d" d="M100 100h100v100H100z"/><path fill="#cbbc9d" d="M200 100h100v100H200z"/><path fill="#c6b6bf" d="M300 100h100v100H300z"/><path fill="#beb7bf" d="M400 100h100v100H400z"/><path fill="#dac4e5" d="M500 100h100v100H500z"/><path fill="#ceaef0" d="M600 100h100v100H600z"/><path fill="#ede6f4" d="M700 100h100v100H700z"/><path fill="#cbb3b5" d="M0 200h100v100H0z"/><path fill="#866d5c" d="M100 200h100v100H100z"/><path fill="#909075" d="M200 200h100v100H200z"/><path fill="#9fac8c" d="M300 200h100v100H300z"/><path fill="#868d70" d="M400 200h100v100H400z"/><path fill="#78af84" d="M500 200h100v100H500z"/><path fill="#65ba94" d="M600 200h100v100H600z"/><path fill="#e0e7e4" d="M700 200h100v100H700z"/><path fill="#9c997e" d="M0 300h100v100H0z"/><path fill="#249c1e" d="M100 300h100v100H100z"/><path fill="#00de0d" d="M200 300h100v100H200z"/><path fill="#23b817" d="M300 300h100v100H300z"/><path fill="#467d31" d="M400 300h100v100H400z"/><path fill="#17b314" d="M500 300h100v100H500z"/><path fill="#00e300" d="M600 300h100v100H600z"/><path fill="#85e684" d="M700 300h100v100H700z"/><path fill="#35d939" d="M0 400h100v100H0z"/><path fill="#00ce01" d="M100 400h100v100H100z"/><path fill="#19d219" d="M200 400h100v100H200z"/><path fill="#688351" d="M300 400h100v100H300z"/><path fill="#17b012" d="M400 400h100v100H400z"/><path fill="#437832" d="M500 400h100v100H500z"/><path fill="#1bc317" d="M600 400h100v100H600z"/><path fill="#12dc13" d="M700 400h100v100H700z"/><path fill="#1cda1f" d="M0 500h100v100H0z"/><path fill="#00d800" d="M100 500h100v100H100z"/><path fill="#3bd03a" d="M200 500h100v100H200z"/><path fill="#6ac164" d="M300 500h100v100H300z"/><path fill="#00de01" d="M400 500h100v100H400z"/><path fill="#65a858" d="M500 500h100v100H500z"/><path fill="#3eb736" d="M600 500h100v100H600z"/><path fill="#00dc00" d="M700 500h100v100H700z"/></svg>