<svg xmlns="http://www.w3.org/2000/svg" viewBox="0 0 800 600"><defs/><path fill="#e0edf2" d="M0 0h100v100H0z"/><path fill="#eae5e4" d="M100 0h100v100H100z"/><path fill="#f3efef" d="M200 0h100v100H200z"/><path fill="#f4f5f5" d="M300 0h100v100H300z"/><path fill="#f8f9f8" d="M400 0h100v100H400z"/><path fill="#f4f3f3" d="M500 0h100v100H500z"/><path fill="#eff0f1" d="M600 0h100v100H600z"/><path fill="#e8f0f3" d="M700 0h100v100H700z"/><path fill="#9aa7b7" d="M0 100h100v100H0z"/><path fill="#a67e72" d="M100 100h100v100H100z"/><path fill="#a0afba" d="M200 100h100v100H200z"/><path fill="#bac8ce" d="M300 100h100v100H300z"/><path fill="#d5d8d0" d="M400 100h100v100H400z"/><path fill="#abc0cc" d="M500 100h100v100H500z"/><path fill="#acc1cd" d="M600 100h100v100H600z"/><path fill="#98bdcd" d="M700 100h100v100H700z"/><path fill="#8e9daa" d="M0 200h100v100H0z"/><path fill="#b0897c" d="M100 200h100v100H100z"/><path fill="#849ba9" d="M200 200h100v100H200z"/><path fill="#a0a8ae" d="M300 200h100v100H300z"/><path fill="#b8aca8" d="M400 200h100v100H400z"/><path fill="#8ea6b5" d="M500 200h100v100H500z"/><path fill="#989eac" d="M600 200h100v100H600z"/><path fill="#afacb4" d="M700 200h100v100H700z"/><path fill="#909da3" d="M0 300h100v100H0z"/><path fill="#b9766f" d="M100 300h100v100H100z"/><path fill="#ae9086" d="M200 300h100v100H200z"/><path fill="#b8aeab" d="M300 300h100v100H300z"/><path fill="#b0a19d" d="M400 300h100v100H400z"/><path fill="#776660" d="M500 300h100v100H500z"/><path fill="#70635f" d="M600 300h100v100H600z"/><path fill="#6f8195" d="M700 300h100v100H700z"/><path fill="#b1a39d" d="M0 400h100v100H0z"/><path fill="#c68572" d="M100 400h100v100H100z"/><path fill="#d2b496" d="M200 400h100v100H200z"/><path fill="#e0d5ca" d="M300 400h100v100H300z"/><path fill="#d0d4d6" d="M400 400h100v100H400z"/><path fill="#c6b8b3" d="M500 400h100v100H500z"/><path fill="#a98e72" d="M600 400h100v100H600z"/><path fill="#839099" d="M700 400h100v100H700z"/><path fill="#f8f2ee" d="M0 500h100v100H0z"/><path fill="#f7f0e7" d="M100 500h100v100H100z"/><path fill="#f0e9e3" d="M200 500h100v100H200z"/><path fill="#faf0e7" d="M300 500h100v100H300z"/><path fill="#f5efea" d="M400 500h100v100H400z"/><path fill="#faf3ed" d="M500 500h100v100H500z"/><path fill="#fbeee3" d="M600 500h100v100H600z"/><path fill="#fcf2ea" d="M700 500h100v100H700z"/></svg>