<svg xmlns="http://www.w3.org/2000/svg" viewBox="0 0 800 400"><defs/><path fill="#6e6c69" d="M0 0h100v100H0z"/><path fill="#50563d" d="M100 0h100v100H100z"/><path fill="#448d90" d="M200 0h100v100H200z"/><path fill="#366b55" d="M300 0h100v100H300z"/><path fill="#87633a" d="M400 0h100v100H400z"/><path fill="#8c5c40" d="M500 0h100v100H500z"/><path fill="#776b5d" d="M600 0h100v100H600z"/><path fill="#637a70" d="M700 0h100v100H700z"/><path fill="#775b47" d="M0 100h100v100H0z"/><path fill="#645b34" d="M100 100h100v100H100z"/><path fill="#717f49" d="M200 100h100v100H200z"/><path fill="#ac6d4c" d="M300 100h100v100H300z"/><path fill="#8c585d" d="M400 100h100v100H400z"/><path fill="#7b674e" d="M500 100h100v100H500z"/><path fill="#706d63" d="M600 100h100v100H600z"/><path fill="#757b6b" d="M700 100h100v100H700z"/><path fill="#746043" d="M0 200h100v100H0z"/><path fill="#976445" d="M100 200h100v100H100z"/><path fill="#9c8670" d="M200 200h100v100H200z"/><path fill="#d2957b" d="M300 200h100v100H300z"/><path fill="#dda787" d="M400 200h100v100H400z"/><path fill="#cca967" d="M500 200h100v100H500z"/><path fill="#708d6f" d="M600 200h100v100H600z"/><path fill="#716951" d="M700 200h100v100H700z"/><path fill="#846c50" d="M0 300h100v100H0z"/><path fill="#a57e64" d="M100 300h100v100H100z"/><path fill="#ae7d83" d="M200 300h100v100H200z"/><path fill="#b08972" d="M300 300h100v100H300z"/><path fill="#a8d76f" d="M400 300h100v100H400z"/><path fill="#b6bd82" d="M500 300h100v100H500z"/><path fill="#90989e" d="M600 300h100v100H600z"/><path fill="#808973" d="M700 300h100v100H700z"/></svg>