<svg xmlns="http://www.w3.org/2000/svg" viewBox="0 0 800 400"><defs/><path fill="#90979b" d="M0 0h100v100H0z"/><path fill="#b2b8b7" d="M100 0h100v100H100z"/><path fill="#959195" d="M200 0h100v100H200z"/><path fill="#9a9896" d="M300 0h100v100H300z"/><path fill="#6fa9b2" d="M400 0h100v100H400z"/><path fill="#56b1c4" d="M500 0h100v100H500z"/><path fill="#939fa3" d="M600 0h100v100H600z"/><path fill="#b6b1bb" d="M700 0h100v100H700z"/><path fill="#93a098" d="M0 100h100v100H0z"/><path fill="#b39fc1" d="M100 100h100v100H100z"/><path fill="#8d44ac" d="M200 100h100v100H200z"/><path fill="#938495" d="M300 100h100v100H300z"/><path fill="#56b7c0" d="M400 100h100v100H400z"/><path fill="#2db5ce" d="M500 100h100v100H500z"/><path fill="#7e919a" d="M600 100h100v100H600z"/><path fill="#9f829c" d="M700 100h100v100H700z"/><path fill="#98a19c" d="M0 200h100v100H0z"/><path fill="#8e94a9" d="M100 200h100v100H100z"/><path fill="#9773b4" d="M200 200h100v100H200z"/><path fill="#a1a2a9" d="M300 200h100v100H300z"/><path fill="#93afb1" d="M400 200h100v100H400z"/><path fill="#99a9a0" d="M500 200h100v100H500z"/><path fill="#9bb1a9" d="M600 200h100v100H600z"/><path fill="#b4bdc3" d="M700 200h100v100H700z"/><path fill="#c9cace" d="M0 300h100v100H0z"/><path fill="#b4c8c1" d="M100 300h100v100H100z"/><path fill="#e7e4ea" d="M200 300h100v100H200z"/><path fill="#e1dce3" d="M300 300h100v100H300z"/><path fill="#acabab" d="M400 300h100v100H400z"/><path fill="#927f85" d="M500 300h100v100H500z"/><path fill="#909498" d="M600 300h100v100H600z"/><path fill="#a7d4c1" d="M700 300h100v100H700z"/></svg>