<svg xmlns="http://www.w3.org/2000/svg" viewBox="0 0 800 600"><defs/><path fill="#a6a9a6" d="M0 0h100v100H0z"/><path fill="#c8988a" d="M100 0h100v100H100z"/><path fill="#c29789" d="M200 0h100v100H200z"/><path fill="#c0cecc" d="M300 0h100v100H300z"/><path fill="#c2cbc8" d="M400 0h100v100H400z"/><path fill="#b0b2a3" d="M500 0h100v100H500z"/><path fill="#caccc7" d="M600 0h100v100H600z"/><path fill="#e6e3e0" d="M700 0h100v100H700z"/><path fill="#b0afaa" d="M0 100h100v100H0z"/><path fill="#bc836f" d="M100 100h100v100H100z"/><path fill="#a38274" d="M200 100h100v100H200z"/><path fill="#bab9b4" d="M300 100h100v100H300z"/><path fill="#a39181" d="M400 100h100v100H400z"/><path fill="#80836d" d="M500 100h100v100H500z"/><path fill="#b6b6ae" d="M600 100h100v100H600z"/><path fill="#c3c0bb" d="M700 100h100v100H700z"/><path fill="#afa79e" d="M0 200h100v100H0z"/><path fill="#c88f79" d="M100 200h100v100H100z"/><path fill="#c2b6af" d="M200 200h100v100H200z"/><path fill="#c7715c" d="M300 200h100v100H300z"/><path fill="#dd926a" d="M400 200h100v100H400z"/><path fill="#dcd4be" d="M500 200h100v100H500z"/><path fill="#d3d5d5" d="M600 200h100v100H600z"/><path fill="#6b8d84" d="M700 200h100v100H700z"/><path fill="#d5c4bb" d="M0 300h100v100H0z"/><path fill="#ecad9c" d="M100 300h100v100H100z"/><path fill="#ecd3c9" d="M200 300h100v100H200z"/><path fill="#d99b8a" d="M300 300h100v100H300z"/><path fill="#ce9574" d="M400 300h100v100H400z"/><path fill="#f9dec3" d="M500 300h100v100H500z"/><path fill="#e0d5ce" d="M600 300h100v100H600z"/><path fill="#3c6f63" d="M700 300h100v100H700z"/><path fill="#deaea0" d="M0 400h100v100H0z"/><path fill="#f0b4a1" d="M100 400h100v100H100z"/><path fill="#d89c8a" d="M200 400h100v100H200z"/><path fill="#ad5443" d="M300 400h100v100H300z"/><path fill="#b65d4d" d="M400 400h100v100H400z"/><path fill="#c97a66" d="M500 400h100v100H500z"/><path fill="#deb8a3" d="M600 400h100v100H600z"/><path fill="#94a69c" d="M700 400h100v100H700z"/><path fill="#e5ae9b" d="M0 500h100v100H0z"/><path fill="#edc1af" d="M100 500h100v100H100z"/><path fill="#cf8575" d="M200 500h100v100H200z"/><path fill="#c66d5c" d="M300 500h100v100H300z"/><path fill="#c6715f" d="M400 500h100v100H400z"/><path fill="#c57462" d="M500 500h100v100H500z"/><path fill="#f2cfc1" d="M600 500h100v100H600z"/><path fill="#eec6b8" d="M700 500h100v100H700z"/></svg>