<svg xmlns="http://www.w3.org/2000/svg" viewBox="0 0 800 500"><defs/><path fill="#f8f7f2" d="M0 0h100v100H0z"/><path fill="#bbacaa" d="M100 0h100v100H100z"/><path fill="#e2e0d6" d="M200 0h100v100H200z"/><path fill="#f0ebd9" d="M300 0h100v100H300z"/><path fill="#dbcdb4" d="M400 0h100v100H400z"/><path fill="#f6f8ef" d="M500 0h100v100H500z"/><path fill="#f9f8f3" d="M600 0h100v100H600z"/><path fill="#e5e8e2" d="M700 0h100v100H700z"/><path fill="#efece8" d="M0 100h100v100H0z"/><path fill="#a69595" d="M100 100h100v100H100z"/><path fill="#d2c9b7" d="M200 100h100v100H200z"/><path fill="#d3d4bd" d="M300 100h100v100H300z"/><path fill="#cec3b4" d="M400 100h100v100H400z"/><path fill="#e1d8d1" d="M500 100h100v100H500z"/><path fill="#f9faf7" d="M600 100h100v100H600z"/><path fill="#92a1b6" d="M700 100h100v100H700z"/><path fill="#e2d8cf" d="M0 200h100v100H0z"/><path fill="#b2988b" d="M100 200h100v100H100z"/><path fill="#ada8a5" d="M200 200h100v100H200z"/><path fill="#b5b2b7" d="M300 200h100v100H300z"/><path fill="#c2bac3" d="M400 200h100v100H400z"/><path fill="#c2bdc2" d="M500 200h100v100H500z"/><path fill="#f8faf1" d="M600 200h100v100H600z"/><path fill="#b0bbc5" d="M700 200h100v100H700z"/><path fill="#cec2bd" d="M0 300h100v100H0z"/><path fill="#b7a49f" d="M100 300h100v100H100z"/><path fill="#edede6" d="M200 300h100v100H200z"/><path fill="#e0dad0" d="M300 300h100v100H300z"/><path fill="#f9f6ec" d="M400 300h100v100H400z"/><path fill="#f8f0e3" d="M500 300h100v100H500z"/><path fill="#e2b5b7" d="M600 300h100v100H600z"/><path fill="#f7efe7" d="M700 300h100v100H700z"/><path fill="#ccc4c0" d="M0 400h100v100H0z"/><path fill="#cdc4c1" d="M100 400h100v100H100z"/><path fill="#f9f7f1" d="M200 400h100v100H200z"/><path fill="#eeebe0" d="M300 400h100v100H300z"/><path fill="#e8cfcd" d="M400 400h100v100H400z"/><path fill="#e3bdc7" d="M500 400h100v100H500z"/><path fill="#e5c9cb" d="M600 400h100v100H600z"/><path fill="#ecece6" d="M700 400h100v100H700z"/></svg>