<svg xmlns="http://www.w3.org/2000/svg" viewBox="0 0 800 500"><defs/><path fill="#fbfbfa" d="M0 0h100v100H0z"/><path fill="#eae3e2" d="M100 0h100v100H100z"/><path fill="#e8dfe0" d="M200 0h100v100H200z"/><path fill="#ebe7e8" d="M300 0h100v100H300z"/><path fill="#eedce0" d="M400 0h100v100H400z"/><path fill="#e6d5da" d="M500 0h100v100H500z"/><path fill="#d9c6c6" d="M600 0h100v100H600z"/><path fill="#f2eced" d="M700 0h100v100H700z"/><path fill="#d9d6d4" d="M0 100h100v100H0z"/><path fill="#bfb2b0" d="M100 100h100v100H100z"/><path fill="#cdc4cb" d="M200 100h100v100H200z"/><path fill="#cfc0c8" d="M300 100h100v100H300z"/><path fill="#e5e5ec" d="M400 100h100v100H400z"/><path fill="#d8d6dc" d="M500 100h100v100H500z"/><path fill="#d7d1da" d="M600 100h100v100H600z"/><path fill="#d4d4da" d="M700 100h100v100H700z"/><path fill="#aea9a2" d="M0 200h100v100H0z"/><path fill="#ac9899" d="M100 200h100v100H100z"/><path fill="#d6bcbc" d="M200 200h100v100H200z"/><path fill="#cbc2bc" d="M300 200h100v100H300z"/><path fill="#c1b8b5" d="M400 200h100v100H400z"/><path fill="#c2b4af" d="M500 200h100v100H500z"/><path fill="#d8cac6" d="M600 200h100v100H600z"/><path fill="#b6a5ae" d="M700 200h100v100H700z"/><path fill="#b0a4a3" d="M0 300h100v100H0z"/><path fill="#b09d9c" d="M100 300h100v100H100z"/><path fill="#c1a7a5" d="M200 300h100v100H200z"/><path fill="#bdaaa6" d="M300 300h100v100H300z"/><path fill="#bba19e" d="M400 300h100v100H400z"/><path fill="#b09893" d="M500 300h100v100H500z"/><path fill="#ab9b94" d="M600 300h100v100H600z"/><path fill="#ae9e99" d="M700 300h100v100H700z"/><path fill="#cfcac8" d="M0 400h100v100H0z"/><path fill="#d3cdcc" d="M100 400h100v100H100z"/><path fill="#d5d3d3" d="M200 400h100v100H200z"/><path fill="#d8d1d6" d="M300 400h100v100H300z"/><path fill="#dfd3db" d="M400 400h100v100H400z"/><path fill="#d2cacc" d="M500 400h100v100H500z"/><path fill="#c9cac7" d="M600 400h100v100H600z"/><path fill="#e1d8d9" d="M700 400h100v100H700z"/></svg>