<svg xmlns="http://www.w3.org/2000/svg" viewBox="0 0 800 400"><defs/><path fill="#312437" d="M0 0h100v100H0z"/><path fill="#322536" d="M100 0h100v100H100z"/><path fill="#5d5061" d="M200 0h100v100H200z"/><path fill="#44344a" d="M300 0h100v100H300z"/><path fill="#4d4052" d="M400 0h100v100H400z"/><path fill="#504158" d="M500 0h100v100H500z"/><path fill="#624e67" d="M600 0h100v100H600z"/><path fill="#a18277" d="M700 0h100v100H700z"/><path fill="#2f2133" d="M0 100h100v100H0z"/><path fill="#332639" d="M100 100h100v100H100z"/><path fill="#9f859e" d="M200 100h100v100H200z"/><path fill="#a484a1" d="M300 100h100v100H300z"/><path fill="#967b97" d="M400 100h100v100H400z"/><path fill="#b595a5" d="M500 100h100v100H500z"/><path fill="#e4bdbc" d="M600 100h100v100H600z"/><path fill="#fdd9b9" d="M700 100h100v100H700z"/><path fill="#2c2031" d="M0 200h100v100H0z"/><path fill="#352739" d="M100 200h100v100H100z"/><path fill="#9b7f9b" d="M200 200h100v100H200z"/><path fill="#a27c9d" d="M300 200h100v100H300z"/><path fill="#b3819a" d="M400 200h100v100H400z"/><path fill="#e9beb3" d="M500 200h100v100H500z"/><path fill="#eec2ac" d="M600 200h100v100H600z"/><path fill="#f6caa2" d="M700 200h100v100H700z"/><path fill="#2f2134" d="M0 300h100v100H0z"/><path fill="#392a3f" d="M100 300h100v100H100z"/><path fill="#876986" d="M200 300h100v100H200z"/><path fill="#9b7697" d="M300 300h100v100H300z"/><path fill="#ad8197" d="M400 300h100v100H400z"/><path fill="#c396a0" d="M500 300h100v100H500z"/><path fill="#caaaab" d="M600 300h100v100H600z"/><path fill="#d0ada5" d="M700 300h100v100H700z"/></svg>