<svg xmlns="http://www.w3.org/2000/svg" viewBox="0 0 800 600"><defs/><path fill="#949cc3" d="M0 0h100v100H0z"/><path fill="#b89172" d="M100 0h100v100H100z"/><path fill="#7a6ac0" d="M200 0h100v100H200z"/><path fill="#5453e7" d="M300 0h100v100H300z"/><path fill="#5251d6" d="M400 0h100v100H400z"/><path fill="#5254fc" d="M500 0h100v100H500z"/><path fill="#6a64e1" d="M600 0h100v100H600z"/><path fill="#605db2" d="M700 0h100v100H700z"/><path fill="#9a9ab5" d="M0 100h100v100H0z"/><path fill="#b48c70" d="M100 100h100v100H100z"/><path fill="#b8aec4" d="M200 100h100v100H200z"/><path fill="#b3aad6" d="M300 100h100v100H300z"/><path fill="#a59dc8" d="M400 100h100v100H400z"/><path fill="#b3afec" d="M500 100h100v100H500z"/><path fill="#b0abd6" d="M600 100h100v100H600z"/><path fill="#8687b6" d="M700 100h100v100H700z"/><path fill="#a69ba6" d="M0 200h100v100H0z"/><path fill="#b08d7b" d="M100 200h100v100H100z"/><path fill="#999cb8" d="M200 200h100v100H200z"/><path fill="#9c9eb6" d="M300 200h100v100H300z"/><path fill="#9995a7" d="M400 200h100v100H400z"/><path fill="#a88080" d="M500 200h100v100H500z"/><path fill="#9e5a64" d="M600 200h100v100H600z"/><path fill="#9c849c" d="M700 200h100v100H700z"/><path fill="#aa918f" d="M0 300h100v100H0z"/><path fill="#987e6c" d="M100 300h100v100H100z"/><path fill="#727c8e" d="M200 300h100v100H200z"/><path fill="#697a85" d="M300 300h100v100H300z"/><path fill="#9e8887" d="M400 300h100v100H400z"/><path fill="#9e5546" d="M500 300h100v100H500z"/><path fill="#904136" d="M600 300h100v100H600z"/><path fill="#ab716e" d="M700 300h100v100H700z"/><path fill="#c09a7d" d="M0 400h100v100H0z"/><path fill="#bf986a" d="M100 400h100v100H100z"/><path fill="#ae946c" d="M200 400h100v100H200z"/><path fill="#b09268" d="M300 400h100v100H300z"/><path fill="#9f8b78" d="M400 400h100v100H400z"/><path fill="#9e9e9e" d="M500 400h100v100H500z"/><path fill="#909da1" d="M600 400h100v100H600z"/><path fill="#a59ab8" d="M700 400h100v100H700z"/><path fill="#e3b67b" d="M0 500h100v100H0z"/><path fill="#e8b97e" d="M100 500h100v100H100z"/><path fill="#edbb80" d="M200 500h100v100H200z"/><path fill="#ecb879" d="M300 500h100v100H300z"/><path fill="#a28c89" d="M400 500h100v100H400z"/><path fill="#7d7cc9" d="M500 500h100v100H500z"/><path fill="#827ec4" d="M600 500h100v100H600z"/><path fill="#7c77be" d="M700 500h100v100H700z"/></svg>