<svg xmlns="http://www.w3.org/2000/svg" viewBox="0 0 800 500"><defs/><path fill="#5b6157" d="M0 0h100v100H0z"/><path fill="#313221" d="M100 0h100v100H100z"/><path fill="#373c20" d="M200 0h100v100H200z"/><path fill="#3f4433" d="M300 0h100v100H300z"/><path fill="#3b3926" d="M400 0h100v100H400z"/><path fill="#3a3c2b" d="M500 0h100v100H500z"/><path fill="#4b514d" d="M600 0h100v100H600z"/><path fill="#4a4e45" d="M700 0h100v100H700z"/><path fill="#70706e" d="M0 100h100v100H0z"/><path fill="#4e4d4a" d="M100 100h100v100H100z"/><path fill="#626868" d="M200 100h100v100H200z"/><path fill="#636367" d="M300 100h100v100H300z"/><path fill="#685d57" d="M400 100h100v100H400z"/><path fill="#4b3b32" d="M500 100h100v100H500z"/><path fill="#46443f" d="M600 100h100v100H600z"/><path fill="#4a4d3e" d="M700 100h100v100H700z"/><path fill="#3a3f3a" d="M0 200h100v100H0z"/><path fill="#3e4136" d="M100 200h100v100H100z"/><path fill="#525351" d="M200 200h100v100H200z"/><path fill="#3c3a35" d="M300 200h100v100H300z"/><path fill="#3b372f" d="M400 200h100v100H400z"/><path fill="#534e47" d="M500 200h100v100H500z"/><path fill="#42392d" d="M600 200h100v100H600z"/><path fill="#5f5844" d="M700 200h100v100H700z"/><path fill="#3a342e" d="M0 300h100v100H0z"/><path fill="#242521" d="M100 300h100v100H100z"/><path fill="#42433b" d="M200 300h100v100H200z"/><path fill="#45423b" d="M300 300h100v100H300z"/><path fill="#444743" d="M400 300h100v100H400z"/><path fill="#5f5449" d="M500 300h100v100H500z"/><path fill="#827f66" d="M600 300h100v100H600z"/><path fill="#afa683" d="M700 300h100v100H700z"/><path fill="#372d24" d="M0 400h100v100H0z"/><path fill="#2b312d" d="M100 400h100v100H100z"/><path fill="#2b3532" d="M200 400h100v100H200z"/><path fill="#272721" d="M300 400h100v100H300z"/><path fill="#2d3129" d="M400 400h100v100H400z"/><path fill="#2f2e21" d="M500 400h100v100H500z"/><path fill="#49432e" d="M600 400h100v100H600z"/><path fill="#504b31" d="M700 400h100v100H700z"/></svg>