<svg xmlns="http://www.w3.org/2000/svg" viewBox="0 0 800 800"><defs/><path fill="#d2d3e6" d="M0 0h100v100H0z"/><path fill="#ced0e4" d="M100 0h100v100H100z"/><path fill="#cdcfe2" d="M200 0h100v100H200z"/><path fill="#cdd0e2" d="M300 0h100v100H300z"/><path fill="#cdcfe3" d="M400 0h100v100H400zm100 0h100v100H500z"/><path fill="#cfd1e5" d="M600 0h100v100H600z"/><path fill="#d4d4e7" d="M700 0h100v100H700z"/><path fill="#c9cae0" d="M0 100h100v100H0z"/><path fill="#c7c8de" d="M100 100h100v100H100z"/><path fill="#cbcde3" d="M200 100h100v100H200z"/><path fill="#cfd1e6" d="M300 100h100v100H300z"/><path fill="#cdcfe4" d="M400 100h100v100H400z"/><path fill="#cbcce2" d="M500 100h100v100H500z"/><path fill="#cacce2" d="M600 100h100v100H600z"/><path fill="#cdcee2" d="M700 100h100v100H700z"/><path fill="#c3c4db" d="M0 200h100v100H0z"/><path fill="#b0b1cb" d="M100 200h100v100H100z"/><path fill="#b6bac9" d="M200 200h100v100H200z"/><path fill="#b2b3c5" d="M300 200h100v100H300z"/><path fill="#b1b4c5" d="M400 200h100v100H400z"/><path fill="#b1b5c6" d="M500 200h100v100H500z"/><path fill="#babacd" d="M600 200h100v100H600z"/><path fill="#c7c7dd" d="M700 200h100v100H700z"/><path fill="#c0c2db" d="M0 300h100v100H0z"/><path fill="#a0a3bc" d="M100 300h100v100H100z"/><path fill="#848e94" d="M200 300h100v100H200z"/><path fill="#666466" d="M300 300h100v100H300z"/><path fill="#7b7c84" d="M400 300h100v100H400z"/><path fill="#878fa4" d="M500 300h100v100H500z"/><path fill="#8f95a1" d="M600 300h100v100H600z"/><path fill="#bab9cc" d="M700 300h100v100H700z"/><path fill="#acb0c7" d="M0 400h100v100H0z"/><path fill="#9e9fb5" d="M100 400h100v100H100z"/><path fill="#a9aac9" d="M200 400h100v100H200z"/><path fill="#73758c" d="M300 400h100v100H300z"/><path fill="#9191ab" d="M400 400h100v100H400z"/><path fill="#a398a7" d="M500 400h100v100H500z"/><path fill="#786e77" d="M600 400h100v100H600z"/><path fill="#aeafc6" d="M700 400h100v100H700z"/><path fill="#b6b7d0" d="M0 500h100v100H0z"/><path fill="#b5b9d0" d="M100 500h100v100H100z"/><path fill="#b2b5ce" d="M200 500h100v100H200z"/><path fill="#8d8fac" d="M300 500h100v100H300z"/><path fill="#9b9ebb" d="M400 500h100v100H400z"/><path fill="#aba4af" d="M500 500h100v100H500z"/><path fill="#746b73" d="M600 500h100v100H600z"/><path fill="#a6a9c4" d="M700 500h100v100H700z"/><path fill="#c5c7e0" d="M0 600h100v100H0z"/><path fill="#c5c7df" d="M100 600h100v100H100z"/><path fill="#c7c8e0" d="M200 600h100v100H200zm100 0h100v100H300z"/><path fill="#c5c7de" d="M400 600h100v100H400z"/><path fill="#c5c8e2" d="M500 600h100v100H500z"/><path fill="#c6c7e1" d="M600 600h100v100H600z"/><path fill="#c9c8df" d="M700 600h100v100H700z"/><path fill="#c7c9e1" d="M0 700h100v100H0z"/><path fill="#c6c8e0" d="M100 700h100v100H100z"/><path fill="#c8c9e0" d="M200 700h100v100H200z"/><path fill="#cacae3" d="M300 700h100v100H300z"/><path fill="#c9cbe2" d="M400 700h100v100H400z"/><path fill="#cbcbe1" d="M500 700h100v100H500z"/><path fill="#cecce2" d="M600 700h100v100H600z"/><path fill="#cecde3" d="M700 700h100v100H700z"/></svg>