<svg xmlns="http://www.w3.org/2000/svg" viewBox="0 0 800 1100"><defs/><path fill="#7d8173" d="M0 0h100v100H0z"/><path fill="#a7aa97" d="M100 0h100v100H100z"/><path fill="#b1b4a0" d="M200 0h100v100H200z"/><path fill="#b0b39f" d="M300 0h100v100H300z"/><path fill="#b4b7a2" d="M400 0h100v100H400z"/><path fill="#b0b3a0" d="M500 0h100v100H500z"/><path fill="#9fa597" d="M600 0h100v100H600z"/><path fill="#40413e" d="M700 0h100v100H700z"/><path fill="#b3b59d" d="M0 100h100v100H0z"/><path fill="#a7a280" d="M100 100h100v100H100z"/><path fill="#aca681" d="M200 100h100v100H200z"/><path fill="#a39b79" d="M300 100h100v100H300z"/><path fill="#a49b82" d="M400 100h100v100H400z"/><path fill="#b8b59f" d="M500 100h100v100H500z"/><path fill="#c1b89c" d="M600 100h100v100H600z"/><path fill="#adac99" d="M700 100h100v100H700z"/><path fill="#a6a086" d="M0 200h100v100H0z"/><path fill="#8d734d" d="M100 200h100v100H100z"/><path fill="#918663" d="M200 200h100v100H200z"/><path fill="#918567" d="M300 200h100v100H300z"/><path fill="#8b714c" d="M400 200h100v100H400z"/><path fill="#835e35" d="M500 200h100v100H500z"/><path fill="#976636" d="M600 200h100v100H600z"/><path fill="#c7b999" d="M700 200h100v100H700z"/><path fill="#8a6f4c" d="M0 300h100v100H0z"/><path fill="#8b7f63" d="M100 300h100v100H100z"/><path fill="#aeae97" d="M200 300h100v100H200z"/><path fill="#c3c1a6" d="M300 300h100v100H300z"/><path fill="#c4be9f" d="M400 300h100v100H400z"/><path fill="#a8895c" d="M500 300h100v100H500z"/><path fill="#905f2f" d="M600 300h100v100H600z"/><path fill="#baa889" d="M700 300h100v100H700z"/><path fill="#6e4c2a" d="M0 400h100v100H0z"/><path fill="#aea180" d="M100 400h100v100H100z"/><path fill="#f3efd0" d="M200 400h100v100H200z"/><path fill="#f6f2d7" d="M300 400h100v100H300z"/><path fill="#eeecd2" d="M400 400h100v100H400z"/><path fill="#c3b18f" d="M500 400h100v100H500z"/><path fill="#9d7042" d="M600 400h100v100H600z"/><path fill="#c3ba9f" d="M700 400h100v100H700z"/><path fill="#704524" d="M0 500h100v100H0z"/><path fill="#b5976b" d="M100 500h100v100H100z"/><path fill="#eddeb9" d="M200 500h100v100H200z"/><path fill="#f7f2d9" d="M300 500h100v100H300z"/><path fill="#eae2c8" d="M400 500h100v100H400z"/><path fill="#c6ae8c" d="M500 500h100v100H500z"/><path fill="#936741" d="M600 500h100v100H600z"/><path fill="#b9a77d" d="M700 500h100v100H700z"/><path fill="#6e3d1e" d="M0 600h100v100H0z"/><path fill="#996d3f" d="M100 600h100v100H100z"/><path fill="#be9264" d="M200 600h100v100H200z"/><path fill="#d4c0a0" d="M300 600h100v100H300z"/><path fill="#d9c7a8" d="M400 600h100v100H400z"/><path fill="#ba9268" d="M500 600h100v100H500z"/><path fill="#9c6f43" d="M600 600h100v100H600z"/><path fill="#bfab7f" d="M700 600h100v100H700z"/><path fill="#88613f" d="M0 700h100v100H0z"/><path fill="#8e5c30" d="M100 700h100v100H100z"/><path fill="#9c6739" d="M200 700h100v100H200z"/><path fill="#a46d40" d="M300 700h100v100H300z"/><path fill="#a67449" d="M400 700h100v100H400z"/><path fill="#926138" d="M500 700h100v100H500z"/><path fill="#aa875e" d="M600 700h100v100H600z"/><path fill="#cfc69f" d="M700 700h100v100H700z"/><path fill="#c2b692" d="M0 800h100v100H0z"/><path fill="#ac8760" d="M100 800h100v100H100z"/><path fill="#a57b50" d="M200 800h100v100H200z"/><path fill="#996436" d="M300 800h100v100H300z"/><path fill="#a37548" d="M400 800h100v100H400z"/><path fill="#aa8259" d="M500 800h100v100H500z"/><path fill="#d6c6a4" d="M600 800h100v100H600z"/><path fill="#dedcb7" d="M700 800h100v100H700z"/><path fill="#d2d3ba" d="M0 900h100v100H0z"/><path fill="#dde1ca" d="M100 900h100v100H100z"/><path fill="#dad0b3" d="M200 900h100v100H200z"/><path fill="#a5682f" d="M300 900h100v100H300z"/><path fill="#be9e71" d="M400 900h100v100H400z"/><path fill="#e4e2c4" d="M500 900h100v100H500z"/><path fill="#e5e5cd" d="M600 900h100v100H600z"/><path fill="#e4e4cd" d="M700 900h100v100H700z"/><path fill="#c6c5ab" d="M0 1000h100v100H0z"/><path fill="#cfceb4" d="M100 1000h100v100H100z"/><path fill="#d7d4b7" d="M200 1000h100v100H200z"/><path fill="#c1a578" d="M300 1000h100v100H300z"/><path fill="#cec09f" d="M400 1000h100v100H400z"/><path fill="#e0e2c9" d="M500 1000h100v100H500z"/><path fill="#dbdac2" d="M600 1000h100v100H600z"/><path fill="#d1d0b9" d="M700 1000h100v100H700z"/></svg>