<svg xmlns="http://www.w3.org/2000/svg" viewBox="0 0 800 600"><defs/><path fill="#f2f5f5" d="M0 0h100v100H0z"/><path fill="#eff2ef" d="M100 0h100v100H100z"/><path fill="#f0f5f4" d="M200 0h100v100H200z"/><path fill="#f3f8f7" d="M300 0h100v100H300z"/><path fill="#eff6f7" d="M400 0h100v100H400z"/><path fill="#f3f4ee" d="M500 0h100v100H500z"/><path fill="#f2f1e8" d="M600 0h100v100H600z"/><path fill="#edf1f0" d="M700 0h100v100H700z"/><path fill="#cdd7d7" d="M0 100h100v100H0z"/><path fill="#b2c4b5" d="M100 100h100v100H100z"/><path fill="#e1e5e1" d="M200 100h100v100H200z"/><path fill="#dde6eb" d="M300 100h100v100H300z"/><path fill="#cddde7" d="M400 100h100v100H400z"/><path fill="#dcb363" d="M500 100h100v100H500z"/><path fill="#c1af77" d="M600 100h100v100H600z"/><path fill="#7f968d" d="M700 100h100v100H700z"/><path fill="#c6d5d2" d="M0 200h100v100H0z"/><path fill="#b0c3b6" d="M100 200h100v100H100z"/><path fill="#bad2d8" d="M200 200h100v100H200z"/><path fill="#d4e3ed" d="M300 200h100v100H300z"/><path fill="#dbe4ec" d="M400 200h100v100H400z"/><path fill="#e2b768" d="M500 200h100v100H500z"/><path fill="#b5b5ad" d="M600 200h100v100H600z"/><path fill="#79958f" d="M700 200h100v100H700z"/><path fill="#bdc9c4" d="M0 300h100v100H0z"/><path fill="#9fb6aa" d="M100 300h100v100H100z"/><path fill="#9abab8" d="M200 300h100v100H200z"/><path fill="#c6c0b5" d="M300 300h100v100H300z"/><path fill="#ddc8ba" d="M400 300h100v100H400z"/><path fill="#cdc8a4" d="M500 300h100v100H500z"/><path fill="#a3af9f" d="M600 300h100v100H600z"/><path fill="#809b8d" d="M700 300h100v100H700z"/><path fill="#aebdb3" d="M0 400h100v100H0z"/><path fill="#abb4a4" d="M100 400h100v100H100z"/><path fill="#d6ccc2" d="M200 400h100v100H200z"/><path fill="#ceb8ac" d="M300 400h100v100H300z"/><path fill="#d5c2ae" d="M400 400h100v100H400z"/><path fill="#b0afa7" d="M500 400h100v100H500z"/><path fill="#949078" d="M600 400h100v100H600z"/><path fill="#8a9789" d="M700 400h100v100H700z"/><path fill="#dfe3dc" d="M0 500h100v100H0z"/><path fill="#e4e4dd" d="M100 500h100v100H100z"/><path fill="#e8ebe8" d="M200 500h100v100H200z"/><path fill="#e6ebe9" d="M300 500h100v100H300z"/><path fill="#ebf1f0" d="M400 500h100v100H400z"/><path fill="#e1d9e1" d="M500 500h100v100H500z"/><path fill="#dfd2df" d="M600 500h100v100H600z"/><path fill="#dbdae0" d="M700 500h100v100H700z"/></svg>