<svg xmlns="http://www.w3.org/2000/svg" viewBox="0 0 800 600"><defs/><path fill="#a0a0a2" d="M0 0h100v100H0z"/><path fill="#9c9c9e" d="M100 0h100v100H100z"/><path fill="#99999c" d="M200 0h100v100H200z"/><path fill="#99999b" d="M300 0h100v100H300z"/><path fill="#97979a" d="M400 0h100v100H400z"/><path fill="#949699" d="M500 0h100v100H500z"/><path fill="#95999d" d="M600 0h100v100H600z"/><path fill="#90959a" d="M700 0h100v100H700z"/><path fill="#a4a3a4" d="M0 100h100v100H0z"/><path fill="#98989a" d="M100 100h100v100H100z"/><path fill="#979596" d="M200 100h100v100H200z"/><path fill="#9b9896" d="M300 100h100v100H300z"/><path fill="#9a9795" d="M400 100h100v100H400z"/><path fill="#8f8e8f" d="M500 100h100v100H500z"/><path fill="#868889" d="M600 100h100v100H600z"/><path fill="#868a8d" d="M700 100h100v100H700z"/><path fill="#a5a5a5" d="M0 200h100v100H0z"/><path fill="#9a999a" d="M100 200h100v100H100z"/><path fill="#9a9899" d="M200 200h100v100H200z"/><path fill="#a7a29e" d="M300 200h100v100H300z"/><path fill="#a5a09d" d="M400 200h100v100H400z"/><path fill="#959494" d="M500 200h100v100H500z"/><path fill="#808286" d="M600 200h100v100H600z"/><path fill="#868a8f" d="M700 200h100v100H700z"/><path fill="#a6a4a5" d="M0 300h100v100H0z"/><path fill="#8c8a8c" d="M100 300h100v100H100z"/><path fill="#949190" d="M200 300h100v100H200z"/><path fill="#a29c9b" d="M300 300h100v100H300z"/><path fill="#9d9998" d="M400 300h100v100H400z"/><path fill="#8b8a8a" d="M500 300h100v100H500z"/><path fill="#838589" d="M600 300h100v100H600z"/><path fill="#858a91" d="M700 300h100v100H700z"/><path fill="#9f9e9e" d="M0 400h100v100H0z"/><path fill="#8a888a" d="M100 400h100v100H100z"/><path fill="#918e8d" d="M200 400h100v100H200z"/><path fill="#9d9896" d="M300 400h100v100H300z"/><path fill="#94918f" d="M400 400h100v100H400z"/><path fill="#919191" d="M500 400h100v100H500z"/><path fill="#8b8e91" d="M600 400h100v100H600z"/><path fill="#84898f" d="M700 400h100v100H700z"/><path fill="#a19d9c" d="M0 500h100v100H0z"/><path fill="#9c9b9b" d="M100 500h100v100H100z"/><path fill="#9f9c9b" d="M200 500h100v100H200z"/><path fill="#9d9b99" d="M300 500h100v100H300z"/><path fill="#969594" d="M400 500h100v100H400z"/><path fill="#959596" d="M500 500h100v100H500z"/><path fill="#8f9195" d="M600 500h100v100H600z"/><path fill="#888d92" d="M700 500h100v100H700z"/></svg>