<svg xmlns="http://www.w3.org/2000/svg" viewBox="0 0 800 500"><defs/><path fill="#f7f7f7" d="M0 0h100v100H0z"/><path fill="#e2dfde" d="M100 0h100v100H100z"/><path fill="#e7e6e7" d="M200 0h100v100H200z"/><path fill="#dbdadb" d="M300 0h100v100H300z"/><path fill="#eef2f4" d="M400 0h100v100H400z"/><path fill="#edeff1" d="M500 0h100v100H500z"/><path fill="#e0dfe0" d="M600 0h100v100H600z"/><path fill="#f0f0f1" d="M700 0h100v100H700z"/><path fill="#e8e7e7" d="M0 100h100v100H0z"/><path fill="#978a85" d="M100 100h100v100H100z"/><path fill="#b9b7ba" d="M200 100h100v100H200z"/><path fill="#6e6568" d="M300 100h100v100H300z"/><path fill="#a0aeae" d="M400 100h100v100H400z"/><path fill="#969d9e" d="M500 100h100v100H500z"/><path fill="#787073" d="M600 100h100v100H600z"/><path fill="#bebaba" d="M700 100h100v100H700z"/><path fill="#d6d2d1" d="M0 200h100v100H0z"/><path fill="#a59b97" d="M100 200h100v100H100z"/><path fill="#c1beb8" d="M200 200h100v100H200z"/><path fill="#7c7d7c" d="M300 200h100v100H300z"/><path fill="#807977" d="M400 200h100v100H400z"/><path fill="#7e7b79" d="M500 200h100v100H500z"/><path fill="#7c7f7e" d="M600 200h100v100H600z"/><path fill="#b6b2ae" d="M700 200h100v100H700z"/><path fill="#b4aeab" d="M0 300h100v100H0z"/><path fill="#8a716e" d="M100 300h100v100H100z"/><path fill="#8c8786" d="M200 300h100v100H200z"/><path fill="#847a7a" d="M300 300h100v100H300z"/><path fill="#a2757f" d="M400 300h100v100H400z"/><path fill="#a1707c" d="M500 300h100v100H500z"/><path fill="#a57978" d="M600 300h100v100H600z"/><path fill="#cdbfb8" d="M700 300h100v100H700z"/><path fill="#c9c5c2" d="M0 400h100v100H0z"/><path fill="#c1aaaa" d="M100 400h100v100H100z"/><path fill="#d5a7b6" d="M200 400h100v100H200z"/><path fill="#d4a6b1" d="M300 400h100v100H300z"/><path fill="#dba3ae" d="M400 400h100v100H400z"/><path fill="#dfa3b0" d="M500 400h100v100H500z"/><path fill="#db9daa" d="M600 400h100v100H600z"/><path fill="#d3b7bc" d="M700 400h100v100H700z"/></svg>