<svg xmlns="http://www.w3.org/2000/svg" viewBox="0 0 800 400"><defs/><path d="M0 0h100v100H0z"/><path fill="#3c3d3e" d="M100 0h100v100H100z"/><path fill="#f4e0de" d="M200 0h100v100H200z"/><path fill="#a16765" d="M300 0h100v100H300z"/><path fill="#c99a9a" d="M400 0h100v100H400z"/><path fill="#d4c9c9" d="M500 0h100v100H500z"/><path fill="#0d0f0f" d="M600 0h100v100H600z"/><path d="M700 0h100v100H700zM0 100h100v100H0z"/><path fill="#342d2d" d="M100 100h100v100H100z"/><path fill="#a87776" d="M200 100h100v100H200z"/><path fill="#7f5b5a" d="M300 100h100v100H300z"/><path fill="#9a7573" d="M400 100h100v100H400z"/><path fill="#a97472" d="M500 100h100v100H500z"/><path fill="#101313" d="M600 100h100v100H600z"/><path d="M700 100h100v100H700zM0 200h100v100H0z"/><path fill="#312526" d="M100 200h100v100H100z"/><path fill="#946b6a" d="M200 200h100v100H200z"/><path fill="#7a5e5d" d="M300 200h100v100H300z"/><path fill="#997573" d="M400 200h100v100H400z"/><path fill="#a67a79" d="M500 200h100v100H500z"/><path fill="#101313" d="M600 200h100v100H600z"/><path d="M700 200h100v100H700zM0 300h100v100H0z"/><path fill="#3c3d3d" d="M100 300h100v100H100z"/><path fill="#d9bfbe" d="M200 300h100v100H200z"/><path fill="#965e5c" d="M300 300h100v100H300z"/><path fill="#c79290" d="M400 300h100v100H400z"/><path fill="#d2c3c4" d="M500 300h100v100H500z"/><path fill="#0d0f0f" d="M600 300h100v100H600z"/><path d="M700 300h100v100H700z"/></svg>