<svg xmlns="http://www.w3.org/2000/svg" viewBox="0 0 800 500"><defs/><path fill="#e8e4e5" d="M0 0h100v100H0z"/><path fill="#dcdcdf" d="M100 0h100v100H100z"/><path fill="#dcecf2" d="M200 0h100v100H200z"/><path fill="#daebf4" d="M300 0h100v100H300z"/><path fill="#d6eaf1" d="M400 0h100v100H400z"/><path fill="#dcecf4" d="M500 0h100v100H500z"/><path fill="#e7edf2" d="M600 0h100v100H600z"/><path fill="#ebe8e9" d="M700 0h100v100H700z"/><path fill="#e3dfdf" d="M0 100h100v100H0z"/><path fill="#dbdbdf" d="M100 100h100v100H100z"/><path fill="#afe0f2" d="M200 100h100v100H200z"/><path fill="#9edaee" d="M300 100h100v100H300z"/><path fill="#99d9ee" d="M400 100h100v100H400z"/><path fill="#aedcf2" d="M500 100h100v100H500z"/><path fill="#d6e0ea" d="M600 100h100v100H600z"/><path fill="#cfdde5" d="M700 100h100v100H700z"/><path fill="#e1dcdb" d="M0 200h100v100H0z"/><path fill="#c7cfdb" d="M100 200h100v100H100z"/><path fill="#a9bcd7" d="M200 200h100v100H200z"/><path fill="#b7cbdf" d="M300 200h100v100H300z"/><path fill="#a9bcd3" d="M400 200h100v100H400z"/><path fill="#aebfd8" d="M500 200h100v100H500z"/><path fill="#c9ced6" d="M600 200h100v100H600z"/><path fill="#aecee3" d="M700 200h100v100H700z"/><path fill="#dcd6d5" d="M0 300h100v100H0z"/><path fill="#d1cfd3" d="M100 300h100v100H100z"/><path fill="#cdcbd2" d="M200 300h100v100H200z"/><path fill="#b5cadc" d="M300 300h100v100H300z"/><path fill="#bbcedc" d="M400 300h100v100H400z"/><path fill="#cfcdd5" d="M500 300h100v100H500z"/><path fill="#e2e0e1" d="M600 300h100v100H600z"/><path fill="#b9c6de" d="M700 300h100v100H700z"/><path fill="#e1dbdc" d="M0 400h100v100H0z"/><path fill="#ebe4e3" d="M100 400h100v100H100z"/><path fill="#efedef" d="M200 400h100v100H200z"/><path fill="#b7d5ee" d="M300 400h100v100H300z"/><path fill="#c5e0ea" d="M400 400h100v100H400z"/><path fill="#ece6e5" d="M500 400h100v100H500z"/><path fill="#efeaea" d="M600 400h100v100H600z"/><path fill="#e4dfe1" d="M700 400h100v100H700z"/></svg>