<svg xmlns="http://www.w3.org/2000/svg" viewBox="0 0 800 400"><defs/><path fill="#e8e8e8" d="M0 0h100v100H0z"/><path fill="#e7e7e7" d="M100 0h100v100H100z"/><path fill="#e9e9e9" d="M200 0h100v100H200z"/><path fill="#eee" d="M300 0h100v100H300z"/><path fill="#eaeaea" d="M400 0h100v100H400z"/><path fill="#d7d7d7" d="M500 0h100v100H500z"/><path fill="#dedede" d="M600 0h100v100H600z"/><path fill="#f4f4f4" d="M700 0h100v100H700z"/><path fill="#e6e6e6" d="M0 100h100v100H0z"/><path fill="#dadada" d="M100 100h100v100H100z"/><path fill="#d5d5d5" d="M200 100h100v100H200z"/><path fill="#dbdbdb" d="M300 100h100v100H300z"/><path fill="#f3f3f3" d="M400 100h100v100H400z"/><path fill="#dfdfdf" d="M500 100h100v100H500z"/><path fill="#ebebeb" d="M600 100h100v100H600z"/><path fill="#e6e6e6" d="M700 100h100v100H700z"/><path fill="#d4d4d4" d="M0 200h100v100H0z"/><path fill="#b8b8b8" d="M100 200h100v100H100z"/><path fill="#dadada" d="M200 200h100v100H200z"/><path fill="#dcdcdc" d="M300 200h100v100H300z"/><path fill="#e5e5e5" d="M400 200h100v100H400z"/><path fill="#e9e9e9" d="M500 200h100v100H500z"/><path fill="#e4e4e4" d="M600 200h100v100H600z"/><path fill="#d8d8d8" d="M700 200h100v100H700z"/><path fill="#e0e0e0" d="M0 300h100v100H0z"/><path fill="silver" d="M100 300h100v100H100z"/><path fill="#ddd" d="M200 300h100v100H200z"/><path fill="#dfdfdf" d="M300 300h100v100H300z"/><path fill="#eaeaea" d="M400 300h100v100H400z"/><path fill="#e7e7e7" d="M500 300h100v100H500z"/><path fill="#e2e2e2" d="M600 300h100v100H600z"/><path fill="#dedede" d="M700 300h100v100H700z"/></svg>