<svg xmlns="http://www.w3.org/2000/svg" viewBox="0 0 800 800"><defs/><path fill="#fff" d="M0 0h100v100H0zm100 0h100v100H100z"/><path fill="#f8f8f8" d="M200 0h100v100H200z"/><path fill="#f3f3f3" d="M300 0h100v100H300z"/><path fill="#f7f7f7" d="M400 0h100v100H400z"/><path fill="#f2f2f2" d="M500 0h100v100H500z"/><path fill="#efefef" d="M600 0h100v100H600z"/><path fill="#f8f8f8" d="M700 0h100v100H700z"/><path fill="#fff" d="M0 100h100v100H0z"/><path fill="#d8d9d9" d="M100 100h100v100H100z"/><path fill="#979897" d="M200 100h100v100H200z"/><path fill="#bbb9b9" d="M300 100h100v100H300z"/><path fill="#adacac" d="M400 100h100v100H400z"/><path fill="#bdbdbd" d="M500 100h100v100H500z"/><path fill="#ababac" d="M600 100h100v100H600z"/><path fill="#bbb" d="M700 100h100v100H700z"/><path fill="#fff" d="M0 200h100v100H0z"/><path fill="#edeced" d="M100 200h100v100H100z"/><path fill="#c1bfc4" d="M200 200h100v100H200z"/><path fill="#cccecf" d="M300 200h100v100H300z"/><path fill="#c7cbcb" d="M400 200h100v100H400z"/><path fill="#cacaca" d="M500 200h100v100H500z"/><path fill="#d5d5d5" d="M600 200h100v100H600z"/><path fill="#eaeaeb" d="M700 200h100v100H700z"/><path fill="#fff" d="M0 300h100v100H0z"/><path fill="#f9fdf6" d="M100 300h100v100H100z"/><path fill="#c3d3b8" d="M200 300h100v100H200z"/><path fill="#d6baab" d="M300 300h100v100H300z"/><path fill="#ccadab" d="M400 300h100v100H400z"/><path fill="#e7e9eb" d="M500 300h100v100H500z"/><path fill="#f5f5f6" d="M600 300h100v100H600z"/><path fill="#fffffe" d="M700 300h100v100H700z"/><path fill="#ecf0f9" d="M0 400h100v100H0z"/><path fill="#a4c7d1" d="M100 400h100v100H100z"/><path fill="#adb274" d="M200 400h100v100H200z"/><path fill="#cd9a81" d="M300 400h100v100H300z"/><path fill="#c68878" d="M400 400h100v100H400z"/><path fill="#c0bba6" d="M500 400h100v100H500z"/><path fill="#dcd8d0" d="M600 400h100v100H600z"/><path fill="#f1f1f2" d="M700 400h100v100H700z"/><path fill="#d0dfec" d="M0 500h100v100H0z"/><path fill="#d0e4f7" d="M100 500h100v100H100z"/><path fill="#d4d5d0" d="M200 500h100v100H200z"/><path fill="#efcda1" d="M300 500h100v100H300z"/><path fill="#c0ab9e" d="M400 500h100v100H400z"/><path fill="#95a7a8" d="M500 500h100v100H500z"/><path fill="#dfe0cd" d="M600 500h100v100H600z"/><path fill="#fcfdfe" d="M700 500h100v100H700z"/><path fill="#dde3e7" d="M0 600h100v100H0z"/><path fill="#aec4d7" d="M100 600h100v100H100z"/><path fill="#b6cddf" d="M200 600h100v100H200z"/><path fill="#d2d3d2" d="M300 600h100v100H300z"/><path fill="#fefcfb" d="M400 600h100v100H400z"/><path fill="#ccbcaa" d="M500 600h100v100H500z"/><path fill="#ae7357" d="M600 600h100v100H600z"/><path fill="#e3dad2" d="M700 600h100v100H700z"/><path fill="#c4ad98" d="M0 700h100v100H0z"/><path fill="#b99b80" d="M100 700h100v100H100z"/><path fill="#beb3a7" d="M200 700h100v100H200z"/><path fill="#e8f0f6" d="M300 700h100v100H300z"/><path fill="#fff" d="M400 700h100v100H400z"/><path fill="#eee5db" d="M500 700h100v100H500z"/><path fill="#cc7565" d="M600 700h100v100H600z"/><path fill="#d7a894" d="M700 700h100v100H700z"/></svg>