<svg xmlns="http://www.w3.org/2000/svg" viewBox="0 0 800 500"><defs/><path fill="#dfdfdf" d="M0 0h100v100H0z"/><path fill="#d0d0d0" d="M100 0h100v100H100z"/><path fill="#ddd" d="M200 0h100v100H200z"/><path fill="#d7d7d7" d="M300 0h100v100H300zm100 0h100v100H400z"/><path fill="#e2e2e2" d="M500 0h100v100H500z"/><path fill="#e1e1e1" d="M600 0h100v100H600zm100 0h100v100H700z"/><path fill="#e0e0e0" d="M0 100h100v100H0z"/><path fill="#d8d8d8" d="M100 100h100v100H100z"/><path fill="#e6e6e6" d="M200 100h100v100H200z"/><path fill="#d1d1d1" d="M300 100h100v100H300z"/><path fill="#d2d2d2" d="M400 100h100v100H400z"/><path fill="#ececec" d="M500 100h100v100H500z"/><path fill="#e5e5e5" d="M600 100h100v100H600z"/><path fill="#d2d2d2" d="M700 100h100v100H700z"/><path fill="#dbdbdb" d="M0 200h100v100H0z"/><path fill="#d5d5d5" d="M100 200h100v100H100z"/><path fill="#ccc" d="M200 200h100v100H200z"/><path fill="#d8d8d8" d="M300 200h100v100H300z"/><path fill="#dbdbdb" d="M400 200h100v100H400z"/><path fill="#e0e0e0" d="M500 200h100v100H500z"/><path fill="#e3e3e3" d="M600 200h100v100H600z"/><path fill="#e1e1e1" d="M700 200h100v100H700z"/><path fill="#d5d5d5" d="M0 300h100v100H0z"/><path fill="#c8c8c8" d="M100 300h100v100H100z"/><path fill="#bbb" d="M200 300h100v100H200z"/><path fill="#c7c7c7" d="M300 300h100v100H300z"/><path fill="#dbdbdb" d="M400 300h100v100H400z"/><path fill="#e4e4e4" d="M500 300h100v100H500z"/><path fill="#e1e1e1" d="M600 300h100v100H600z"/><path fill="#e7e7e7" d="M700 300h100v100H700z"/><path fill="#dadada" d="M0 400h100v100H0z"/><path fill="#d7d7d7" d="M100 400h100v100H100z"/><path fill="#e7e7e7" d="M200 400h100v100H200z"/><path fill="#f3f3f3" d="M300 400h100v100H300z"/><path fill="#f4f4f4" d="M400 400h100v100H400z"/><path fill="#f0f0f0" d="M500 400h100v100H500z"/><path fill="#efefef" d="M600 400h100v100H600z"/><path fill="#f1f1f1" d="M700 400h100v100H700z"/></svg>