<svg xmlns="http://www.w3.org/2000/svg" viewBox="0 0 800 500"><defs/><path fill="#a8b3bd" d="M0 0h100v100H0z"/><path fill="#bebab9" d="M100 0h100v100H100z"/><path fill="#a5b0b7" d="M200 0h100v100H200z"/><path fill="#b1bcc4" d="M300 0h100v100H300z"/><path fill="#cbcfd5" d="M400 0h100v100H400z"/><path fill="#a8b4be" d="M500 0h100v100H500z"/><path fill="#a1b0bb" d="M600 0h100v100H600z"/><path fill="#a5b4bd" d="M700 0h100v100H700z"/><path fill="#3e5c6b" d="M0 100h100v100H0z"/><path fill="#907059" d="M100 100h100v100H100z"/><path fill="#163d45" d="M200 100h100v100H200z"/><path fill="#648482" d="M300 100h100v100H300z"/><path fill="#bdd1c4" d="M400 100h100v100H400z"/><path fill="#255466" d="M500 100h100v100H500z"/><path fill="#213e4a" d="M600 100h100v100H600z"/><path fill="#2d4757" d="M700 100h100v100H700z"/><path fill="#636e72" d="M0 200h100v100H0z"/><path fill="#877060" d="M100 200h100v100H100z"/><path fill="#153641" d="M200 200h100v100H200z"/><path fill="#655d51" d="M300 200h100v100H300z"/><path fill="#776a64" d="M400 200h100v100H400z"/><path fill="#44494f" d="M500 200h100v100H500z"/><path fill="#483f41" d="M600 200h100v100H600z"/><path fill="#354451" d="M700 200h100v100H700z"/><path fill="#88766a" d="M0 300h100v100H0z"/><path fill="#946844" d="M100 300h100v100H100z"/><path fill="#70543d" d="M200 300h100v100H200z"/><path fill="#734532" d="M300 300h100v100H300z"/><path fill="#6f4539" d="M400 300h100v100H400z"/><path fill="#895d47" d="M500 300h100v100H500z"/><path fill="#744634" d="M600 300h100v100H600z"/><path fill="#353b40" d="M700 300h100v100H700z"/><path fill="#c9ac9c" d="M0 400h100v100H0z"/><path fill="#a98e7b" d="M100 400h100v100H100z"/><path fill="#90867c" d="M200 400h100v100H200z"/><path fill="#95867b" d="M300 400h100v100H300z"/><path fill="#988a7e" d="M400 400h100v100H400z"/><path fill="#95877d" d="M500 400h100v100H500z"/><path fill="#918177" d="M600 400h100v100H600z"/><path fill="#857c76" d="M700 400h100v100H700z"/></svg>