<svg xmlns="http://www.w3.org/2000/svg" viewBox="0 0 800 400"><defs/><path fill="#ffe9d7" d="M0 0h100v100H0z"/><path fill="#efdad2" d="M100 0h100v100H100z"/><path fill="#c7d8db" d="M200 0h100v100H200z"/><path fill="#d4dccf" d="M300 0h100v100H300z"/><path fill="#b0cee0" d="M400 0h100v100H400z"/><path fill="#abcee3" d="M500 0h100v100H500z"/><path fill="#a3c4dd" d="M600 0h100v100H600z"/><path fill="#e8e6dc" d="M700 0h100v100H700z"/><path fill="#ffe5d5" d="M0 100h100v100H0z"/><path fill="#fae7eb" d="M100 100h100v100H100z"/><path fill="#e6d9d9" d="M200 100h100v100H200z"/><path fill="#efcdbe" d="M300 100h100v100H300z"/><path fill="#ece8cd" d="M400 100h100v100H400z"/><path fill="#c5ccd7" d="M500 100h100v100H500z"/><path fill="#7386c5" d="M600 100h100v100H600z"/><path fill="#ccced3" d="M700 100h100v100H700z"/><path fill="#f7d4d7" d="M0 200h100v100H0z"/><path fill="#ccc3e0" d="M100 200h100v100H100z"/><path fill="#c8b3e6" d="M200 200h100v100H200z"/><path fill="#d5b1c7" d="M300 200h100v100H300z"/><path fill="#f1d4c5" d="M400 200h100v100H400z"/><path fill="#f2dee0" d="M500 200h100v100H500z"/><path fill="#e8c5d5" d="M600 200h100v100H600z"/><path fill="#f0deda" d="M700 200h100v100H700z"/><path fill="#e1c7e2" d="M0 300h100v100H0z"/><path fill="#c5bed9" d="M100 300h100v100H100z"/><path fill="#d0c9e0" d="M200 300h100v100H200z"/><path fill="#f3dbef" d="M300 300h100v100H300z"/><path fill="#fbdbe6" d="M400 300h100v100H400z"/><path fill="#f3dff0" d="M500 300h100v100H500z"/><path fill="#f6e1f3" d="M600 300h100v100H600z"/><path fill="#f0e2ed" d="M700 300h100v100H700z"/></svg>