<svg xmlns="http://www.w3.org/2000/svg" viewBox="0 0 800 600"><defs/><path fill="#924e3b" d="M0 0h100v100H0z"/><path fill="#ad7f0a" d="M100 0h100v100H100z"/><path fill="#6e5e2d" d="M200 0h100v100H200z"/><path fill="#423b37" d="M300 0h100v100H300z"/><path fill="#384036" d="M400 0h100v100H400z"/><path fill="#514a45" d="M500 0h100v100H500z"/><path fill="#303a34" d="M600 0h100v100H600z"/><path fill="#3e494f" d="M700 0h100v100H700z"/><path fill="#b96a4b" d="M0 100h100v100H0z"/><path fill="#e5a70e" d="M100 100h100v100H100z"/><path fill="#939752" d="M200 100h100v100H200z"/><path fill="#628272" d="M300 100h100v100H300z"/><path fill="#648670" d="M400 100h100v100H400z"/><path fill="#699288" d="M500 100h100v100H500z"/><path fill="#74806a" d="M600 100h100v100H600z"/><path fill="#545257" d="M700 100h100v100H700z"/><path fill="#a62b14" d="M0 200h100v100H0z"/><path fill="#dda311" d="M100 200h100v100H100z"/><path fill="#756325" d="M200 200h100v100H200z"/><path fill="#13434e" d="M300 200h100v100H300z"/><path fill="#415240" d="M400 200h100v100H400z"/><path fill="#564d30" d="M500 200h100v100H500z"/><path fill="#434b30" d="M600 200h100v100H600z"/><path fill="#48382d" d="M700 200h100v100H700z"/><path fill="#a22715" d="M0 300h100v100H0z"/><path fill="#daa611" d="M100 300h100v100H100z"/><path fill="#917a3f" d="M200 300h100v100H200z"/><path fill="#766566" d="M300 300h100v100H300z"/><path fill="#5d513b" d="M400 300h100v100H400z"/><path fill="#552e21" d="M500 300h100v100H500z"/><path fill="#413529" d="M600 300h100v100H600z"/><path fill="#251b0b" d="M700 300h100v100H700z"/><path fill="#a6270b" d="M0 400h100v100H0z"/><path fill="#d49a07" d="M100 400h100v100H100z"/><path fill="#8e7f42" d="M200 400h100v100H200z"/><path fill="#95664c" d="M300 400h100v100H300z"/><path fill="#78603d" d="M400 400h100v100H400z"/><path fill="#514233" d="M500 400h100v100H500z"/><path fill="#4a3127" d="M600 400h100v100H600z"/><path fill="#201915" d="M700 400h100v100H700z"/><path fill="#98270a" d="M0 500h100v100H0z"/><path fill="#aba31e" d="M100 500h100v100H100z"/><path fill="#795d13" d="M200 500h100v100H200z"/><path fill="#451d18" d="M300 500h100v100H300z"/><path fill="#595439" d="M400 500h100v100H400z"/><path fill="#6d6544" d="M500 500h100v100H500z"/><path fill="#886433" d="M600 500h100v100H600z"/><path fill="#2a2d12" d="M700 500h100v100H700z"/></svg>