<svg xmlns="http://www.w3.org/2000/svg" viewBox="0 0 800 500"><defs/><path fill="#beac95" d="M0 0h100v100H0z"/><path fill="#c2b0a0" d="M100 0h100v100H100z"/><path fill="#bba89f" d="M200 0h100v100H200z"/><path fill="#9e8a84" d="M300 0h100v100H300z"/><path fill="#a3918a" d="M400 0h100v100H400z"/><path fill="#a08b7f" d="M500 0h100v100H500z"/><path fill="#9d8775" d="M600 0h100v100H600z"/><path fill="#867964" d="M700 0h100v100H700z"/><path fill="#bdaa96" d="M0 100h100v100H0z"/><path fill="#b4a096" d="M100 100h100v100H100z"/><path fill="#9a887a" d="M200 100h100v100H200z"/><path fill="#886559" d="M300 100h100v100H300z"/><path fill="#984245" d="M400 100h100v100H400z"/><path fill="#7e534d" d="M500 100h100v100H500z"/><path fill="#7b4d29" d="M600 100h100v100H600z"/><path fill="#4d3f28" d="M700 100h100v100H700z"/><path fill="#b3a18d" d="M0 200h100v100H0z"/><path fill="#a9958c" d="M100 200h100v100H100z"/><path fill="#716057" d="M200 200h100v100H200z"/><path fill="#7b6551" d="M300 200h100v100H300z"/><path fill="#946964" d="M400 200h100v100H400z"/><path fill="#806161" d="M500 200h100v100H500z"/><path fill="#7d5d40" d="M600 200h100v100H600z"/><path fill="#816a43" d="M700 200h100v100H700z"/><path fill="#c2b09d" d="M0 300h100v100H0z"/><path fill="#9c8e8a" d="M100 300h100v100H100z"/><path fill="#7e707b" d="M200 300h100v100H200z"/><path fill="#8b776c" d="M300 300h100v100H300z"/><path fill="#5b5241" d="M400 300h100v100H400z"/><path fill="#82746f" d="M500 300h100v100H500z"/><path fill="#6f6a5b" d="M600 300h100v100H600z"/><path fill="#736650" d="M700 300h100v100H700z"/><path fill="#bcad99" d="M0 400h100v100H0z"/><path fill="#a89b93" d="M100 400h100v100H100z"/><path fill="#9a9094" d="M200 400h100v100H200z"/><path fill="#968988" d="M300 400h100v100H300z"/><path fill="#5b5559" d="M400 400h100v100H400z"/><path fill="#938784" d="M500 400h100v100H500z"/><path fill="#958068" d="M600 400h100v100H600z"/><path fill="#8f8067" d="M700 400h100v100H700z"/></svg>