<svg xmlns="http://www.w3.org/2000/svg" viewBox="0 0 800 500"><defs/><path fill="#3eb7fe" d="M0 0h100v100H0z"/><path fill="#6fa8d5" d="M100 0h100v100H100z"/><path fill="#72a3cc" d="M200 0h100v100H200z"/><path fill="#79b0d8" d="M300 0h100v100H300z"/><path fill="#81b9df" d="M400 0h100v100H400z"/><path fill="#76aad2" d="M500 0h100v100H500z"/><path fill="#81bfe3" d="M600 0h100v100H600z"/><path fill="#52bbfa" d="M700 0h100v100H700z"/><path fill="#42b7f8" d="M0 100h100v100H0z"/><path fill="#90727d" d="M100 100h100v100H100z"/><path fill="#967177" d="M200 100h100v100H200z"/><path fill="#9f888e" d="M300 100h100v100H300z"/><path fill="#8d787d" d="M400 100h100v100H400z"/><path fill="#9e817f" d="M500 100h100v100H500z"/><path fill="#b19090" d="M600 100h100v100H600z"/><path fill="#5ca3d9" d="M700 100h100v100H700z"/><path fill="#4cb7f3" d="M0 200h100v100H0z"/><path fill="#856a7a" d="M100 200h100v100H100z"/><path fill="#898392" d="M200 200h100v100H200z"/><path fill="#8b8a8f" d="M300 200h100v100H300z"/><path fill="#646075" d="M400 200h100v100H400z"/><path fill="#878ba4" d="M500 200h100v100H500z"/><path fill="#887e8e" d="M600 200h100v100H600z"/><path fill="#4c9ed4" d="M700 200h100v100H700z"/><path fill="#60bbf2" d="M0 300h100v100H0z"/><path fill="#8c6575" d="M100 300h100v100H100z"/><path fill="#968080" d="M200 300h100v100H200z"/><path fill="#978083" d="M300 300h100v100H300z"/><path fill="#7e757b" d="M400 300h100v100H400z"/><path fill="#8c7381" d="M500 300h100v100H500z"/><path fill="#8b6e72" d="M600 300h100v100H600z"/><path fill="#54a8db" d="M700 300h100v100H700z"/><path fill="#56bffa" d="M0 400h100v100H0z"/><path fill="#7bacce" d="M100 400h100v100H100z"/><path fill="#77a8ce" d="M200 400h100v100H200z"/><path fill="#7aafdb" d="M300 400h100v100H300z"/><path fill="#6dacd2" d="M400 400h100v100H400z"/><path fill="#5f9bc3" d="M500 400h100v100H500z"/><path fill="#6ca0c6" d="M600 400h100v100H600z"/><path fill="#4ab3f0" d="M700 400h100v100H700z"/></svg>