<svg xmlns="http://www.w3.org/2000/svg" viewBox="0 0 800 600"><defs/><path fill="#47443f" d="M0 0h100v100H0z"/><path fill="#8c8883" d="M100 0h100v100H100z"/><path fill="#847d78" d="M200 0h100v100H200z"/><path fill="#837c75" d="M300 0h100v100H300z"/><path fill="#888178" d="M400 0h100v100H400z"/><path fill="#8a8075" d="M500 0h100v100H500z"/><path fill="#8a8275" d="M600 0h100v100H600z"/><path fill="#6a6458" d="M700 0h100v100H700z"/><path fill="#7d7973" d="M0 100h100v100H0z"/><path fill="#eae7e6" d="M100 100h100v100H100z"/><path fill="#cbc3c0" d="M200 100h100v100H200z"/><path fill="#bcb4ac" d="M300 100h100v100H300z"/><path fill="#c4baaf" d="M400 100h100v100H400z"/><path fill="#cac1b6" d="M500 100h100v100H500z"/><path fill="#d1c7ba" d="M600 100h100v100H600z"/><path fill="#a09686" d="M700 100h100v100H700z"/><path fill="#87807c" d="M0 200h100v100H0z"/><path fill="#ddd6d7" d="M100 200h100v100H100z"/><path fill="#bab3b0" d="M200 200h100v100H200z"/><path fill="#beb6af" d="M300 200h100v100H300z"/><path fill="#bbb2aa" d="M400 200h100v100H400z"/><path fill="#b3aaa3" d="M500 200h100v100H500z"/><path fill="#c0b6aa" d="M600 200h100v100H600z"/><path fill="#9b8e7f" d="M700 200h100v100H700z"/><path fill="#8f8b88" d="M0 300h100v100H0z"/><path fill="#d6d3d7" d="M100 300h100v100H100z"/><path fill="#c2bcbc" d="M200 300h100v100H200z"/><path fill="#c0b8b4" d="M300 300h100v100H300z"/><path fill="#b5aca6" d="M400 300h100v100H400z"/><path fill="#ada59f" d="M500 300h100v100H500z"/><path fill="#afa499" d="M600 300h100v100H600z"/><path fill="#9b8e7e" d="M700 300h100v100H700z"/><path fill="#a29e9d" d="M0 400h100v100H0z"/><path fill="#eae9f1" d="M100 400h100v100H100z"/><path fill="#d9d6da" d="M200 400h100v100H200z"/><path fill="#c8c2c2" d="M300 400h100v100H300z"/><path fill="#c0b8b2" d="M400 400h100v100H400z"/><path fill="#bdb4ab" d="M500 400h100v100H500z"/><path fill="#bbab9c" d="M600 400h100v100H600z"/><path fill="#ad9b86" d="M700 400h100v100H700z"/><path fill="#706863" d="M0 500h100v100H0z"/><path fill="#8d8a8b" d="M100 500h100v100H100z"/><path fill="#7c7979" d="M200 500h100v100H200z"/><path fill="#6e6a67" d="M300 500h100v100H300z"/><path fill="#716c65" d="M400 500h100v100H400z"/><path fill="#6e655c" d="M500 500h100v100H500z"/><path fill="#6a5e50" d="M600 500h100v100H600z"/><path fill="#605544" d="M700 500h100v100H700z"/></svg>