<svg xmlns="http://www.w3.org/2000/svg" viewBox="0 0 800 400"><defs/><path fill="#c59761" d="M0 0h100v100H0z"/><path fill="#c19458" d="M100 0h100v100H100z"/><path fill="#c3984c" d="M200 0h100v100H200z"/><path fill="#d5ab4a" d="M300 0h100v100H300z"/><path fill="#e0b064" d="M400 0h100v100H400z"/><path fill="#bc9758" d="M500 0h100v100H500z"/><path fill="#b1854b" d="M600 0h100v100H600z"/><path fill="#d3713d" d="M700 0h100v100H700z"/><path fill="#c1925c" d="M0 100h100v100H0z"/><path fill="#b5884e" d="M100 100h100v100H100z"/><path fill="#c08b4c" d="M200 100h100v100H200z"/><path fill="#dea669" d="M300 100h100v100H300z"/><path fill="#e4b05d" d="M400 100h100v100H400z"/><path fill="#c18848" d="M500 100h100v100H500z"/><path fill="#b38c56" d="M600 100h100v100H600z"/><path fill="#c19559" d="M700 100h100v100H700z"/><path fill="#c99b63" d="M0 200h100v100H0z"/><path fill="#c79e5e" d="M100 200h100v100H100z"/><path fill="#e3aa4b" d="M200 200h100v100H200z"/><path fill="#edc067" d="M300 200h100v100H300z"/><path fill="#eac064" d="M400 200h100v100H400z"/><path fill="#e99e3b" d="M500 200h100v100H500z"/><path fill="#d2a352" d="M600 200h100v100H600z"/><path fill="#b39357" d="M700 200h100v100H700z"/><path fill="#c39159" d="M0 300h100v100H0z"/><path fill="#c18d54" d="M100 300h100v100H100z"/><path fill="#c39857" d="M200 300h100v100H200z"/><path fill="#ddab5d" d="M300 300h100v100H300z"/><path fill="#c19b61" d="M400 300h100v100H400z"/><path fill="#c09e5e" d="M500 300h100v100H500z"/><path fill="#c09e61" d="M600 300h100v100H600z"/><path fill="#b18f60" d="M700 300h100v100H700z"/></svg>