<svg xmlns="http://www.w3.org/2000/svg" viewBox="0 0 800 600"><defs/><path fill="#705237" d="M0 0h100v100H0z"/><path fill="#848277" d="M100 0h100v100H100z"/><path fill="#929b8f" d="M200 0h100v100H200z"/><path fill="#8c9488" d="M300 0h100v100H300z"/><path fill="#788376" d="M400 0h100v100H400z"/><path fill="#826d6c" d="M500 0h100v100H500z"/><path fill="#956b6f" d="M600 0h100v100H600z"/><path fill="#a07f7c" d="M700 0h100v100H700z"/><path fill="#90877c" d="M0 100h100v100H0z"/><path fill="#d6c8b4" d="M100 100h100v100H100z"/><path fill="#ad9985" d="M200 100h100v100H200z"/><path fill="#b6b2af" d="M300 100h100v100H300z"/><path fill="#b4aba5" d="M400 100h100v100H400z"/><path fill="#b5afa9" d="M500 100h100v100H500z"/><path fill="#b4aca4" d="M600 100h100v100H600z"/><path fill="#918f84" d="M700 100h100v100H700z"/><path fill="#9a9890" d="M0 200h100v100H0z"/><path fill="#a9a8a1" d="M100 200h100v100H100z"/><path fill="#989d92" d="M200 200h100v100H200z"/><path fill="#b8b8b1" d="M300 200h100v100H300z"/><path fill="#bcb7b1" d="M400 200h100v100H400z"/><path fill="#b2aba2" d="M500 200h100v100H500z"/><path fill="#b6aba3" d="M600 200h100v100H600z"/><path fill="#8c9282" d="M700 200h100v100H700z"/><path fill="#bfbaa3" d="M0 300h100v100H0z"/><path fill="#b59e91" d="M100 300h100v100H100z"/><path fill="#b3a399" d="M200 300h100v100H200z"/><path fill="#b4b29d" d="M300 300h100v100H300z"/><path fill="#bcb6af" d="M400 300h100v100H400z"/><path fill="#b4aba2" d="M500 300h100v100H500z"/><path fill="#b8afaa" d="M600 300h100v100H600z"/><path fill="#898e82" d="M700 300h100v100H700z"/><path fill="#beb4a3" d="M0 400h100v100H0z"/><path fill="#a3a892" d="M100 400h100v100H100z"/><path fill="#b2aea6" d="M200 400h100v100H200z"/><path fill="#c7c1bc" d="M300 400h100v100H300z"/><path fill="#b8b0a8" d="M400 400h100v100H400z"/><path fill="#aaa29b" d="M500 400h100v100H500z"/><path fill="#b0a198" d="M600 400h100v100H600z"/><path fill="#838378" d="M700 400h100v100H700z"/><path fill="#a8b4ae" d="M0 500h100v100H0z"/><path fill="#bdbdb2" d="M100 500h100v100H100z"/><path fill="#bdb9b3" d="M200 500h100v100H200z"/><path fill="#c1bdb3" d="M300 500h100v100H300z"/><path fill="#b8b2a7" d="M400 500h100v100H400z"/><path fill="#aba099" d="M500 500h100v100H500z"/><path fill="#b3a69a" d="M600 500h100v100H600z"/><path fill="#7d7e71" d="M700 500h100v100H700z"/></svg>