<svg xmlns="http://www.w3.org/2000/svg" viewBox="0 0 800 400"><defs/><path fill="#d3b9c3" d="M0 0h100v100H0z"/><path fill="#c5aaae" d="M100 0h100v100H100z"/><path fill="#d6c8bd" d="M200 0h100v100H200z"/><path fill="#d8d0c5" d="M300 0h100v100H300z"/><path fill="#cbbbb3" d="M400 0h100v100H400z"/><path fill="#b6938c" d="M500 0h100v100H500z"/><path fill="#b89f9e" d="M600 0h100v100H600z"/><path fill="#cdb7b3" d="M700 0h100v100H700z"/><path fill="#cdafbd" d="M0 100h100v100H0z"/><path fill="#bfa897" d="M100 100h100v100H100z"/><path fill="#c9a996" d="M200 100h100v100H200z"/><path fill="#c2bcb2" d="M300 100h100v100H300z"/><path fill="#b79a96" d="M400 100h100v100H400z"/><path fill="#a2737c" d="M500 100h100v100H500z"/><path fill="#a9aaaf" d="M600 100h100v100H600z"/><path fill="#aa9a95" d="M700 100h100v100H700z"/><path fill="#c7a9b5" d="M0 200h100v100H0z"/><path fill="#b4898d" d="M100 200h100v100H100z"/><path fill="#b17a83" d="M200 200h100v100H200z"/><path fill="#ba9196" d="M300 200h100v100H300z"/><path fill="#ad7b84" d="M400 200h100v100H400z"/><path fill="#a5696d" d="M500 200h100v100H500z"/><path fill="#926a77" d="M600 200h100v100H600z"/><path fill="#9c7d82" d="M700 200h100v100H700z"/><path fill="#bd94a2" d="M0 300h100v100H0z"/><path fill="#b36981" d="M100 300h100v100H100z"/><path fill="#b86f86" d="M200 300h100v100H200z"/><path fill="#b56b83" d="M300 300h100v100H300z"/><path fill="#b76c82" d="M400 300h100v100H400z"/><path fill="#cd8f87" d="M500 300h100v100H500z"/><path fill="#b27471" d="M600 300h100v100H600z"/><path fill="#99646c" d="M700 300h100v100H700z"/></svg>