<svg xmlns="http://www.w3.org/2000/svg" viewBox="0 0 800 500"><defs/><path fill="#dbc793" d="M0 0h100v100H0z"/><path fill="#9d8d5d" d="M100 0h100v100H100z"/><path fill="#32433d" d="M200 0h100v100H200z"/><path fill="#5e796b" d="M300 0h100v100H300z"/><path fill="#97c2aa" d="M400 0h100v100H400z"/><path fill="#8fb29c" d="M500 0h100v100H500z"/><path fill="#665947" d="M600 0h100v100H600z"/><path fill="#47392f" d="M700 0h100v100H700z"/><path fill="#c0ae78" d="M0 100h100v100H0z"/><path fill="#8e8550" d="M100 100h100v100H100z"/><path fill="#0f2c24" d="M200 100h100v100H200z"/><path fill="#3e6555" d="M300 100h100v100H300z"/><path fill="#8ccaaa" d="M400 100h100v100H400z"/><path fill="#668673" d="M500 100h100v100H500z"/><path fill="#43311f" d="M600 100h100v100H600z"/><path fill="#1c190c" d="M700 100h100v100H700z"/><path fill="#bba678" d="M0 200h100v100H0z"/><path fill="#787850" d="M100 200h100v100H100z"/><path fill="#415742" d="M200 200h100v100H200z"/><path fill="#4a4631" d="M300 200h100v100H300z"/><path fill="#5c6955" d="M400 200h100v100H400z"/><path fill="#586652" d="M500 200h100v100H500z"/><path fill="#403324" d="M600 200h100v100H600z"/><path fill="#241911" d="M700 200h100v100H700z"/><path fill="#998a68" d="M0 300h100v100H0z"/><path fill="#595439" d="M100 300h100v100H100z"/><path fill="#8b7b60" d="M200 300h100v100H200z"/><path fill="#51321d" d="M300 300h100v100H300z"/><path fill="#3f261c" d="M400 300h100v100H400z"/><path fill="#423125" d="M500 300h100v100H500z"/><path fill="#3a3025" d="M600 300h100v100H600z"/><path fill="#190f08" d="M700 300h100v100H700z"/><path fill="#907e6c" d="M0 400h100v100H0z"/><path fill="#877665" d="M100 400h100v100H100z"/><path fill="#7e6f65" d="M200 400h100v100H200z"/><path fill="#5e4e49" d="M300 400h100v100H300z"/><path fill="#563a37" d="M400 400h100v100H400z"/><path fill="#574541" d="M500 400h100v100H500z"/><path fill="#564945" d="M600 400h100v100H600z"/><path fill="#322f2d" d="M700 400h100v100H700z"/></svg>