<svg xmlns="http://www.w3.org/2000/svg" viewBox="0 0 800 400"><defs/><path fill="#b69f69" d="M0 0h100v100H0z"/><path fill="#cb834a" d="M100 0h100v100H100z"/><path fill="#b9b373" d="M200 0h100v100H200z"/><path fill="#d4c37a" d="M300 0h100v100H300z"/><path fill="#646586" d="M400 0h100v100H400z"/><path fill="#7d7c8b" d="M500 0h100v100H500z"/><path fill="#aba175" d="M600 0h100v100H600z"/><path fill="#6c757a" d="M700 0h100v100H700z"/><path fill="#c5945b" d="M0 100h100v100H0z"/><path fill="#b4743d" d="M100 100h100v100H100z"/><path fill="#565957" d="M200 100h100v100H200z"/><path fill="#7f766b" d="M300 100h100v100H300z"/><path fill="#7b7b70" d="M400 100h100v100H400z"/><path fill="#b8ae8e" d="M500 100h100v100H500z"/><path fill="#b1b0a5" d="M600 100h100v100H600z"/><path fill="#75797d" d="M700 100h100v100H700z"/><path fill="#c5955c" d="M0 200h100v100H0z"/><path fill="#9b6443" d="M100 200h100v100H100z"/><path fill="#666b67" d="M200 200h100v100H200z"/><path fill="#545458" d="M300 200h100v100H300z"/><path fill="#616558" d="M400 200h100v100H400z"/><path fill="#917d70" d="M500 200h100v100H500z"/><path fill="#abbbcc" d="M600 200h100v100H600z"/><path fill="#7e8095" d="M700 200h100v100H700z"/><path fill="#ad8559" d="M0 300h100v100H0z"/><path fill="#93725d" d="M100 300h100v100H100z"/><path fill="#8b8270" d="M200 300h100v100H200z"/><path fill="#726959" d="M300 300h100v100H300z"/><path fill="#846e5c" d="M400 300h100v100H400z"/><path fill="#c5965c" d="M500 300h100v100H500z"/><path fill="#888ca3" d="M600 300h100v100H600z"/><path fill="#7c7ea9" d="M700 300h100v100H700z"/></svg>