<svg xmlns="http://www.w3.org/2000/svg" viewBox="0 0 800 400"><defs/><path fill="#bbada4" d="M0 0h100v100H0z"/><path fill="#725e4f" d="M100 0h100v100H100z"/><path fill="#e3c7b6" d="M200 0h100v100H200z"/><path fill="#cfbaa2" d="M300 0h100v100H300z"/><path fill="#98a9a6" d="M400 0h100v100H400z"/><path fill="#859da9" d="M500 0h100v100H500z"/><path fill="#8da9bd" d="M600 0h100v100H600z"/><path fill="#a0bfdb" d="M700 0h100v100H700z"/><path fill="#a4958b" d="M0 100h100v100H0z"/><path fill="#897262" d="M100 100h100v100H100z"/><path fill="#edd6c2" d="M200 100h100v100H200z"/><path fill="#d9c7b7" d="M300 100h100v100H300z"/><path fill="#777d63" d="M400 100h100v100H400z"/><path fill="#1a3004" d="M500 100h100v100H500z"/><path fill="#344924" d="M600 100h100v100H600z"/><path fill="#334326" d="M700 100h100v100H700z"/><path fill="#907f74" d="M0 200h100v100H0z"/><path fill="#816a5a" d="M100 200h100v100H100z"/><path fill="#cdbba4" d="M200 200h100v100H200z"/><path fill="#d3c1b6" d="M300 200h100v100H300z"/><path fill="#a09686" d="M400 200h100v100H400z"/><path fill="#595e41" d="M500 200h100v100H500z"/><path fill="#5d6455" d="M600 200h100v100H600z"/><path fill="#637e6d" d="M700 200h100v100H700z"/><path fill="#7a685b" d="M0 300h100v100H0z"/><path fill="#513d30" d="M100 300h100v100H100z"/><path fill="#816a58" d="M200 300h100v100H200z"/><path fill="#c1a98c" d="M300 300h100v100H300z"/><path fill="#c3ad8d" d="M400 300h100v100H400z"/><path fill="#ad907a" d="M500 300h100v100H500z"/><path fill="#56302b" d="M600 300h100v100H600z"/><path fill="#717c73" d="M700 300h100v100H700z"/></svg>