<svg xmlns="http://www.w3.org/2000/svg" viewBox="0 0 800 400"><defs/><path fill="#bdaca3" d="M0 0h100v100H0z"/><path fill="#958887" d="M100 0h100v100H100z"/><path fill="#aba5a4" d="M200 0h100v100H200z"/><path fill="#c0b69b" d="M300 0h100v100H300z"/><path fill="#b8b39c" d="M400 0h100v100H400z"/><path fill="#878883" d="M500 0h100v100H500z"/><path fill="#918c8c" d="M600 0h100v100H600z"/><path fill="#a38f86" d="M700 0h100v100H700z"/><path fill="#c5b9ac" d="M0 100h100v100H0z"/><path fill="#a89496" d="M100 100h100v100H100z"/><path fill="#c2a8ad" d="M200 100h100v100H200z"/><path fill="#c8c0ae" d="M300 100h100v100H300z"/><path fill="#9d9691" d="M400 100h100v100H400z"/><path fill="#717a76" d="M500 100h100v100H500z"/><path fill="#7e827f" d="M600 100h100v100H600z"/><path fill="#a29c89" d="M700 100h100v100H700z"/><path fill="#c8baae" d="M0 200h100v100H0z"/><path fill="#c3b6b8" d="M100 200h100v100H100z"/><path fill="#ceb7b1" d="M200 200h100v100H200z"/><path fill="#bcb6ac" d="M300 200h100v100H300z"/><path fill="#b4ac9a" d="M400 200h100v100H400z"/><path fill="#c0b3a3" d="M500 200h100v100H500z"/><path fill="#beb2a4" d="M600 200h100v100H600z"/><path fill="#b6ae9d" d="M700 200h100v100H700z"/><path fill="#c4c0bb" d="M0 300h100v100H0z"/><path fill="#c2d0cb" d="M100 300h100v100H100z"/><path fill="#a1a39d" d="M200 300h100v100H200z"/><path fill="#8fa0a4" d="M300 300h100v100H300z"/><path fill="#959e97" d="M400 300h100v100H400z"/><path fill="#a0afaa" d="M500 300h100v100H500z"/><path fill="#c4dcd8" d="M600 300h100v100H600z"/><path fill="#bacac3" d="M700 300h100v100H700z"/></svg>