<svg xmlns="http://www.w3.org/2000/svg" viewBox="0 0 800 500"><defs/><path fill="#4e4740" d="M0 0h100v100H0z"/><path fill="#9b918e" d="M100 0h100v100H100z"/><path fill="#88a49e" d="M200 0h100v100H200z"/><path fill="#8ba4a4" d="M300 0h100v100H300z"/><path fill="#669384" d="M400 0h100v100H400z"/><path fill="#698d7c" d="M500 0h100v100H500z"/><path fill="#ada9a9" d="M600 0h100v100H600z"/><path fill="#7d7672" d="M700 0h100v100H700z"/><path fill="#524a44" d="M0 100h100v100H0z"/><path fill="#b5b3ad" d="M100 100h100v100H100z"/><path fill="#90ab97" d="M200 100h100v100H200z"/><path fill="#93bbac" d="M300 100h100v100H300z"/><path fill="#86b8a5" d="M400 100h100v100H400z"/><path fill="#80a38a" d="M500 100h100v100H500z"/><path fill="#9ba7a2" d="M600 100h100v100H600z"/><path fill="#302826" d="M700 100h100v100H700z"/><path fill="#483e39" d="M0 200h100v100H0z"/><path fill="#b6aaa9" d="M100 200h100v100H100z"/><path fill="#b1b0a9" d="M200 200h100v100H200z"/><path fill="#b6c1bc" d="M300 200h100v100H300z"/><path fill="#c4c5ca" d="M400 200h100v100H400z"/><path fill="#c2bdbb" d="M500 200h100v100H500z"/><path fill="#b1aeaf" d="M600 200h100v100H600z"/><path fill="#382e2a" d="M700 200h100v100H700z"/><path fill="#3e382b" d="M0 300h100v100H0z"/><path fill="#baad85" d="M100 300h100v100H100z"/><path fill="#c7b4a9" d="M200 300h100v100H200z"/><path fill="#c6b4bd" d="M300 300h100v100H300z"/><path fill="#c2b5c0" d="M400 300h100v100H400z"/><path fill="#cdb1a1" d="M500 300h100v100H500z"/><path fill="#cfc3b8" d="M600 300h100v100H600z"/><path fill="#433834" d="M700 300h100v100H700z"/><path fill="#323320" d="M0 400h100v100H0z"/><path fill="#7c8c44" d="M100 400h100v100H100z"/><path fill="#b3997c" d="M200 400h100v100H200z"/><path fill="#ad9a90" d="M300 400h100v100H300z"/><path fill="#ac9b8c" d="M400 400h100v100H400z"/><path fill="#b19b8b" d="M500 400h100v100H500z"/><path fill="#ab9d91" d="M600 400h100v100H600z"/><path fill="#3d322e" d="M700 400h100v100H700z"/></svg>