<svg xmlns="http://www.w3.org/2000/svg" viewBox="0 0 800 400"><defs/><path fill="#f7fbf9" d="M0 0h100v100H0z"/><path fill="#e4f4e9" d="M100 0h100v100H100z"/><path fill="#f5fbf7" d="M200 0h100v100H200z"/><path fill="#fcfefd" d="M300 0h100v100H300z"/><path fill="#fafdfb" d="M400 0h100v100H400z"/><path fill="#fbfdfb" d="M500 0h100v100H500z"/><path fill="#f9fdfa" d="M600 0h100v100H600z"/><path fill="#f6fbf8" d="M700 0h100v100H700z"/><path fill="#f4faf8" d="M0 100h100v100H0z"/><path fill="#e2f3e8" d="M100 100h100v100H100z"/><path fill="#fdfefe" d="M200 100h100v100H200z"/><path fill="#fff" d="M300 100h100v100H300zm100 0h100v100H400zm100 0h100v100H500z"/><path fill="#fefffe" d="M600 100h100v100H600z"/><path fill="#fafdfb" d="M700 100h100v100H700z"/><path fill="#edf8f2" d="M0 200h100v100H0z"/><path fill="#dff1e7" d="M100 200h100v100H100z"/><path fill="#fcfefe" d="M200 200h100v100H200z"/><path fill="#fcfefd" d="M300 200h100v100H300z"/><path fill="#fcfdfc" d="M400 200h100v100H400z"/><path fill="#fcfefd" d="M500 200h100v100H500z"/><path fill="#fbfdfc" d="M600 200h100v100H600z"/><path fill="#f9fcfb" d="M700 200h100v100H700z"/><path fill="#e6f4ec" d="M0 300h100v100H0z"/><path fill="#e7f4ed" d="M100 300h100v100H100z"/><path fill="#fcfefd" d="M200 300h100v100H200z"/><path fill="#fbfefc" d="M300 300h100v100H300z"/><path fill="#fcfdfc" d="M400 300h100v100H400z"/><path fill="#fbfdfb" d="M500 300h100v100H500z"/><path fill="#fdfdfc" d="M600 300h100v100H600z"/><path fill="#f4faf7" d="M700 300h100v100H700z"/></svg>