<svg xmlns="http://www.w3.org/2000/svg" viewBox="0 0 800 600"><defs/><path fill="#e6fcfa" d="M0 0h100v100H0z"/><path fill="#ebf7fc" d="M100 0h100v100H100z"/><path fill="#fdf1f5" d="M200 0h100v100H200z"/><path fill="#fdf6f8" d="M300 0h100v100H300z"/><path fill="#fdf7f9" d="M400 0h100v100H400z"/><path fill="#fdfdfa" d="M500 0h100v100H500z"/><path fill="#fbf4f5" d="M600 0h100v100H600z"/><path fill="#ece9f5" d="M700 0h100v100H700z"/><path fill="#83d2bb" d="M0 100h100v100H0z"/><path fill="#badde6" d="M100 100h100v100H100z"/><path fill="#eed1d2" d="M200 100h100v100H200z"/><path fill="#eadfd4" d="M300 100h100v100H300z"/><path fill="#e7d9d2" d="M400 100h100v100H400z"/><path fill="#eee5d8" d="M500 100h100v100H500z"/><path fill="#d9c9c7" d="M600 100h100v100H600z"/><path fill="#8db5c5" d="M700 100h100v100H700z"/><path fill="#a6d39f" d="M0 200h100v100H0z"/><path fill="#c5ccd1" d="M100 200h100v100H100z"/><path fill="#f1dbdc" d="M200 200h100v100H200z"/><path fill="#d6d9d1" d="M300 200h100v100H300z"/><path fill="#d2c6c4" d="M400 200h100v100H400z"/><path fill="#f5d7db" d="M500 200h100v100H500z"/><path fill="#dbcdc7" d="M600 200h100v100H600z"/><path fill="#9addcd" d="M700 200h100v100H700z"/><path fill="#a5e5cc" d="M0 300h100v100H0z"/><path fill="#cdd0d8" d="M100 300h100v100H100z"/><path fill="#c4bbcf" d="M200 300h100v100H200z"/><path fill="#a5d1de" d="M300 300h100v100H300z"/><path fill="#afbcbe" d="M400 300h100v100H400z"/><path fill="#ceb7c2" d="M500 300h100v100H500z"/><path fill="#dab7b9" d="M600 300h100v100H600z"/><path fill="#a7d6bd" d="M700 300h100v100H700z"/><path fill="#bcebe7" d="M0 400h100v100H0z"/><path fill="#bfceb1" d="M100 400h100v100H100z"/><path fill="#b4a57c" d="M200 400h100v100H200z"/><path fill="#a1d5c2" d="M300 400h100v100H300z"/><path fill="#b3d6cf" d="M400 400h100v100H400z"/><path fill="#cac4a0" d="M500 400h100v100H500z"/><path fill="#e5d0b1" d="M600 400h100v100H600z"/><path fill="#e3ac95" d="M700 400h100v100H700z"/><path fill="#f9f9f5" d="M0 500h100v100H0z"/><path fill="#f8f3e8" d="M100 500h100v100H100z"/><path fill="#faf3ea" d="M200 500h100v100H200z"/><path fill="#f8f1ec" d="M300 500h100v100H300z"/><path fill="#faf4f3" d="M400 500h100v100H400z"/><path fill="#fcf7f1" d="M500 500h100v100H500z"/><path fill="#fdefeb" d="M600 500h100v100H600z"/><path fill="#fdece8" d="M700 500h100v100H700z"/></svg>