<svg xmlns="http://www.w3.org/2000/svg" viewBox="0 0 800 500"><defs/><path fill="#8a99a2" d="M0 0h100v100H0z"/><path fill="#97a0a4" d="M100 0h100v100H100z"/><path fill="#adaeab" d="M200 0h100v100H200z"/><path fill="#bbbbbd" d="M300 0h100v100H300z"/><path fill="#c6dae4" d="M400 0h100v100H400z"/><path fill="#c7d3d7" d="M500 0h100v100H500z"/><path fill="#d5d1cd" d="M600 0h100v100H600z"/><path fill="#d0dbe0" d="M700 0h100v100H700z"/><path fill="#798f99" d="M0 100h100v100H0z"/><path fill="#949c9d" d="M100 100h100v100H100z"/><path fill="#a1a19b" d="M200 100h100v100H200z"/><path fill="#b0a69b" d="M300 100h100v100H300z"/><path fill="#b4b7bb" d="M400 100h100v100H400z"/><path fill="#b6a8ac" d="M500 100h100v100H500z"/><path fill="#b4afa8" d="M600 100h100v100H600z"/><path fill="#b2b9b8" d="M700 100h100v100H700z"/><path fill="#819096" d="M0 200h100v100H0z"/><path fill="#94999b" d="M100 200h100v100H100z"/><path fill="#a3a9aa" d="M200 200h100v100H200z"/><path fill="#acb7b6" d="M300 200h100v100H300z"/><path fill="#b4b1ae" d="M400 200h100v100H400z"/><path fill="#beb1ae" d="M500 200h100v100H500z"/><path fill="#98b2bb" d="M600 200h100v100H600z"/><path fill="#929fa6" d="M700 200h100v100H700z"/><path fill="#74868e" d="M0 300h100v100H0z"/><path fill="#878a8a" d="M100 300h100v100H100z"/><path fill="#9b8786" d="M200 300h100v100H200z"/><path fill="#b69696" d="M300 300h100v100H300z"/><path fill="#ad9a93" d="M400 300h100v100H400z"/><path fill="#b7a59c" d="M500 300h100v100H500z"/><path fill="#aa9f9c" d="M600 300h100v100H600z"/><path fill="#95979b" d="M700 300h100v100H700z"/><path fill="#888b8a" d="M0 400h100v100H0z"/><path fill="#91837e" d="M100 400h100v100H100z"/><path fill="#908686" d="M200 400h100v100H200z"/><path fill="#a68881" d="M300 400h100v100H300z"/><path fill="#a28173" d="M400 400h100v100H400z"/><path fill="#ab9186" d="M500 400h100v100H500z"/><path fill="#b3998f" d="M600 400h100v100H600z"/><path fill="#a29d9b" d="M700 400h100v100H700z"/></svg>