<svg xmlns="http://www.w3.org/2000/svg" viewBox="0 0 800 500"><defs/><path fill="#a9917b" d="M0 0h100v100H0z"/><path fill="#ad866d" d="M100 0h100v100H100z"/><path fill="#b29882" d="M200 0h100v100H200z"/><path fill="#bca994" d="M300 0h100v100H300z"/><path fill="#b0aba4" d="M400 0h100v100H400z"/><path fill="#bfb5ae" d="M500 0h100v100H500z"/><path fill="#c0b6ae" d="M600 0h100v100H600z"/><path fill="#d3bbaf" d="M700 0h100v100H700z"/><path fill="#a9937d" d="M0 100h100v100H0z"/><path fill="#a57457" d="M100 100h100v100H100z"/><path fill="#9f7c58" d="M200 100h100v100H200z"/><path fill="#a89a7d" d="M300 100h100v100H300z"/><path fill="#97938d" d="M400 100h100v100H400z"/><path fill="#9e9b9a" d="M500 100h100v100H500z"/><path fill="#a59e9e" d="M600 100h100v100H600z"/><path fill="#c3a597" d="M700 100h100v100H700z"/><path fill="#a78f7d" d="M0 200h100v100H0z"/><path fill="#a5755b" d="M100 200h100v100H100z"/><path fill="#9b765b" d="M200 200h100v100H200z"/><path fill="#a5886b" d="M300 200h100v100H300z"/><path fill="#8c756a" d="M400 200h100v100H400z"/><path fill="#9a8f88" d="M500 200h100v100H500z"/><path fill="#a5938e" d="M600 200h100v100H600z"/><path fill="#bc997f" d="M700 200h100v100H700z"/><path fill="#b0846c" d="M0 300h100v100H0z"/><path fill="#ac8576" d="M100 300h100v100H100z"/><path fill="#af9a92" d="M200 300h100v100H200z"/><path fill="#a28d85" d="M300 300h100v100H300z"/><path fill="#a38d70" d="M400 300h100v100H400z"/><path fill="#c29c7e" d="M500 300h100v100H500z"/><path fill="#a3907b" d="M600 300h100v100H600z"/><path fill="#af7045" d="M700 300h100v100H700z"/><path fill="#ab8e7c" d="M0 400h100v100H0z"/><path fill="#baa79a" d="M100 400h100v100H100z"/><path fill="#9fa2a3" d="M200 400h100v100H200z"/><path fill="#999ea1" d="M300 400h100v100H300z"/><path fill="#b2a99b" d="M400 400h100v100H400z"/><path fill="#c4b09a" d="M500 400h100v100H500z"/><path fill="#b0a088" d="M600 400h100v100H600z"/><path fill="#b98f72" d="M700 400h100v100H700z"/></svg>