<svg xmlns="http://www.w3.org/2000/svg" viewBox="0 0 800 400"><defs/><path fill="#bcc1c4" d="M0 0h100v100H0z"/><path fill="#a8a9a9" d="M100 0h100v100H100z"/><path fill="#d7d8d9" d="M200 0h100v100H200z"/><path fill="#e7e9ea" d="M300 0h100v100H300z"/><path fill="#e9eaeb" d="M400 0h100v100H400z"/><path fill="#e5e8ea" d="M500 0h100v100H500z"/><path fill="#e2e4e6" d="M600 0h100v100H600z"/><path fill="#d8dadb" d="M700 0h100v100H700z"/><path fill="#b9bec0" d="M0 100h100v100H0z"/><path fill="#b5b5b5" d="M100 100h100v100H100z"/><path fill="#eef0f1" d="M200 100h100v100H200z"/><path fill="#e1e5e8" d="M300 100h100v100H300z"/><path fill="#d7dad8" d="M400 100h100v100H400z"/><path fill="#c7cac9" d="M500 100h100v100H500z"/><path fill="#eaeef0" d="M600 100h100v100H600z"/><path fill="#dddfe0" d="M700 100h100v100H700z"/><path fill="#b2b6b8" d="M0 200h100v100H0z"/><path fill="#aaacad" d="M100 200h100v100H100z"/><path fill="#ecedee" d="M200 200h100v100H200z"/><path fill="#cacdcf" d="M300 200h100v100H300z"/><path fill="#c2cdc5" d="M400 200h100v100H400z"/><path fill="#b5bab5" d="M500 200h100v100H500z"/><path fill="#d8d9da" d="M600 200h100v100H600z"/><path fill="#e0e2e3" d="M700 200h100v100H700z"/><path fill="#b2b3b4" d="M0 300h100v100H0z"/><path fill="#cdcdcf" d="M100 300h100v100H100z"/><path fill="#fcfcfc" d="M200 300h100v100H200z"/><path fill="#d7d6d6" d="M300 300h100v100H300z"/><path fill="#aeb4b4" d="M400 300h100v100H400z"/><path fill="#bbbebd" d="M500 300h100v100H500z"/><path fill="#ebeaea" d="M600 300h100v100H600z"/><path fill="#e1e1e2" d="M700 300h100v100H700z"/></svg>