<svg xmlns="http://www.w3.org/2000/svg" viewBox="0 0 800 600"><defs/><path fill="#c9dcd9" d="M0 0h100v100H0z"/><path fill="#d8d6d1" d="M100 0h100v100H100z"/><path fill="#f3e7e2" d="M200 0h100v100H200z"/><path fill="#f4e9e6" d="M300 0h100v100H300z"/><path fill="#f9f1ec" d="M400 0h100v100H400z"/><path fill="#f0ece8" d="M500 0h100v100H500z"/><path fill="#ebe6e3" d="M600 0h100v100H600z"/><path fill="#e6e2f2" d="M700 0h100v100H700z"/><path fill="#368a75" d="M0 100h100v100H0z"/><path fill="#8f7b65" d="M100 100h100v100H100z"/><path fill="#919989" d="M200 100h100v100H200z"/><path fill="#819382" d="M300 100h100v100H300z"/><path fill="#b3a098" d="M400 100h100v100H400z"/><path fill="#8d7f72" d="M500 100h100v100H500z"/><path fill="#787a6f" d="M600 100h100v100H600z"/><path fill="#70a7c6" d="M700 100h100v100H700z"/><path fill="#519279" d="M0 200h100v100H0z"/><path fill="#807a63" d="M100 200h100v100H100z"/><path fill="#556860" d="M200 200h100v100H200z"/><path fill="#655a4d" d="M300 200h100v100H300z"/><path fill="#797268" d="M400 200h100v100H400z"/><path fill="#443e75" d="M500 200h100v100H500z"/><path fill="#4a4b84" d="M600 200h100v100H600z"/><path fill="#69b6be" d="M700 200h100v100H700z"/><path fill="#6e8e80" d="M0 300h100v100H0z"/><path fill="#8b7052" d="M100 300h100v100H100z"/><path fill="#587c5c" d="M200 300h100v100H200z"/><path fill="#41756a" d="M300 300h100v100H300z"/><path fill="#515589" d="M400 300h100v100H400z"/><path fill="#302981" d="M500 300h100v100H500z"/><path fill="#27247c" d="M600 300h100v100H600z"/><path fill="#6c90b8" d="M700 300h100v100H700z"/><path fill="#888b77" d="M0 400h100v100H0z"/><path fill="#8f532e" d="M100 400h100v100H100z"/><path fill="#1a9d88" d="M200 400h100v100H200z"/><path fill="#00baa8" d="M300 400h100v100H300z"/><path fill="#2d4061" d="M400 400h100v100H400z"/><path fill="#38266b" d="M500 400h100v100H500z"/><path fill="#453156" d="M600 400h100v100H600z"/><path fill="#757c7f" d="M700 400h100v100H700z"/><path fill="#ded4ca" d="M0 500h100v100H0z"/><path fill="#e1c9ba" d="M100 500h100v100H100z"/><path fill="#d2c2b8" d="M200 500h100v100H200z"/><path fill="#d1c1b7" d="M300 500h100v100H300z"/><path fill="#dac5b8" d="M400 500h100v100H400z"/><path fill="#d0c2ba" d="M500 500h100v100H500z"/><path fill="#dbc6b4" d="M600 500h100v100H600z"/><path fill="#e1d1c4" d="M700 500h100v100H700z"/></svg>