<svg xmlns="http://www.w3.org/2000/svg" viewBox="0 0 800 400"><defs/><path fill="#fafafa" d="M0 0h100v100H0z"/><path fill="#f4f4f4" d="M100 0h100v100H100z"/><path fill="#fafafa" d="M200 0h100v100H200z"/><path fill="#fbfbfb" d="M300 0h100v100H300z"/><path fill="#efefef" d="M400 0h100v100H400z"/><path fill="#f0f0f0" d="M500 0h100v100H500z"/><path fill="#eaeaea" d="M600 0h100v100H600z"/><path fill="#f3f3f3" d="M700 0h100v100H700z"/><path fill="#fcfcfc" d="M0 100h100v100H0z"/><path fill="#f5f5f5" d="M100 100h100v100H100z"/><path fill="#f7f7f7" d="M200 100h100v100H200z"/><path fill="#fefefe" d="M300 100h100v100H300z"/><path fill="#eee" d="M400 100h100v100H400z"/><path fill="#ebebeb" d="M500 100h100v100H500z"/><path fill="#eee" d="M600 100h100v100H600z"/><path fill="#f7f7f7" d="M700 100h100v100H700z"/><path fill="#fafafa" d="M0 200h100v100H0z"/><path fill="#f7f7f7" d="M100 200h100v100H100zm100 0h100v100H200z"/><path fill="#fcfcfc" d="M300 200h100v100H300z"/><path fill="#f2f2f2" d="M400 200h100v100H400zm100 0h100v100H500zm100 0h100v100H600z"/><path fill="#f3f3f3" d="M700 200h100v100H700z"/><path fill="#f8f8f8" d="M0 300h100v100H0z"/><path fill="#f4f4f4" d="M100 300h100v100H100z"/><path fill="#fbfbfb" d="M200 300h100v100H200z"/><path fill="#fdfdfd" d="M300 300h100v100H300z"/><path fill="#fbfbfb" d="M400 300h100v100H400zm100 0h100v100H500zm100 0h100v100H600zm100 0h100v100H700z"/></svg>