<svg xmlns="http://www.w3.org/2000/svg" viewBox="0 0 800 600"><defs/><path fill="#f3f2f2" d="M0 0h100v100H0z"/><path fill="#f6f6f5" d="M100 0h100v100H100z"/><path fill="#f9f8f8" d="M200 0h100v100H200z"/><path fill="#f7f7f7" d="M300 0h100v100H300z"/><path fill="#f8f7f7" d="M400 0h100v100H400z"/><path fill="#faf9f9" d="M500 0h100v100H500z"/><path fill="#f6f6f5" d="M600 0h100v100H600z"/><path fill="#f8f7f7" d="M700 0h100v100H700z"/><path fill="#e1dedd" d="M0 100h100v100H0z"/><path fill="#e1dedc" d="M100 100h100v100H100z"/><path fill="#e9e7e5" d="M200 100h100v100H200z"/><path fill="#e3e1e0" d="M300 100h100v100H300z"/><path fill="#eae8e8" d="M400 100h100v100H400z"/><path fill="#eae7e6" d="M500 100h100v100H500zm100 0h100v100H600z"/><path fill="#f2f1f0" d="M700 100h100v100H700z"/><path fill="#e6e4e3" d="M0 200h100v100H0z"/><path fill="#e9e7e5" d="M100 200h100v100H100z"/><path fill="#e8e6e4" d="M200 200h100v100H200z"/><path fill="#eae8e7" d="M300 200h100v100H300z"/><path fill="#e6e3e2" d="M400 200h100v100H400z"/><path fill="#eceae9" d="M500 200h100v100H500z"/><path fill="#e8e6e5" d="M600 200h100v100H600z"/><path fill="#eae7e6" d="M700 200h100v100H700z"/><path fill="#eceaea" d="M0 300h100v100H0z"/><path fill="#e8e6e5" d="M100 300h100v100H100z"/><path fill="#e6e4e3" d="M200 300h100v100H200z"/><path fill="#dad6d4" d="M300 300h100v100H300z"/><path fill="#d8d4d3" d="M400 300h100v100H400z"/><path fill="#e3e0df" d="M500 300h100v100H500z"/><path fill="#e1dedd" d="M600 300h100v100H600z"/><path fill="#e7e4e3" d="M700 300h100v100H700z"/><path fill="#f0eeee" d="M0 400h100v100H0z"/><path fill="#e3e1e0" d="M100 400h100v100H100z"/><path fill="#d0cbca" d="M200 400h100v100H200z"/><path fill="#d2cecc" d="M300 400h100v100H300z"/><path fill="#d9d6d4" d="M400 400h100v100H400z"/><path fill="#e7e4e3" d="M500 400h100v100H500z"/><path fill="#d1ccca" d="M600 400h100v100H600z"/><path fill="#e2dfdd" d="M700 400h100v100H700z"/><path fill="#f7f6f5" d="M0 500h100v100H0z"/><path fill="#faf9f9" d="M100 500h100v100H100z"/><path fill="#f3f3f2" d="M200 500h100v100H200z"/><path fill="#f5f4f3" d="M300 500h100v100H300z"/><path fill="#f8f8f8" d="M400 500h100v100H400z"/><path fill="#f6f6f5" d="M500 500h100v100H500z"/><path fill="#f1efef" d="M600 500h100v100H600z"/><path fill="#f6f5f4" d="M700 500h100v100H700z"/></svg>