<svg xmlns="http://www.w3.org/2000/svg" viewBox="0 0 800 500"><defs/><path fill="#fbfbfb" d="M0 0h100v100H0z"/><path fill="#f2f4f5" d="M100 0h100v100H100z"/><path fill="#ebfafc" d="M200 0h100v100H200z"/><path fill="#ecf9fc" d="M300 0h100v100H300z"/><path fill="#e6f1f5" d="M400 0h100v100H400z"/><path fill="#e8f4f8" d="M500 0h100v100H500z"/><path fill="#e6eef1" d="M600 0h100v100H600z"/><path fill="#e7f2f5" d="M700 0h100v100H700z"/><path fill="#f5f4f5" d="M0 100h100v100H0z"/><path fill="#cdd5de" d="M100 100h100v100H100z"/><path fill="#95a9af" d="M200 100h100v100H200z"/><path fill="#7d999c" d="M300 100h100v100H300z"/><path fill="#99b5bb" d="M400 100h100v100H400z"/><path fill="#97afae" d="M500 100h100v100H500z"/><path fill="#a7c0c2" d="M600 100h100v100H600z"/><path fill="#9dbec6" d="M700 100h100v100H700z"/><path fill="#eef2f6" d="M0 200h100v100H0z"/><path fill="#cec4c8" d="M100 200h100v100H100z"/><path fill="#905a4a" d="M200 200h100v100H200z"/><path fill="#685755" d="M300 200h100v100H300z"/><path fill="#b28e8b" d="M400 200h100v100H400z"/><path fill="#7a6f7b" d="M500 200h100v100H500z"/><path fill="#9995a3" d="M600 200h100v100H600z"/><path fill="#a9c9da" d="M700 200h100v100H700z"/><path fill="#dde2ec" d="M0 300h100v100H0z"/><path fill="#d4c3a9" d="M100 300h100v100H100z"/><path fill="#f3be61" d="M200 300h100v100H200z"/><path fill="#ab7a4c" d="M300 300h100v100H300z"/><path fill="#663b37" d="M400 300h100v100H400z"/><path fill="#825f3d" d="M500 300h100v100H500z"/><path fill="#a65432" d="M600 300h100v100H600z"/><path fill="#a67a74" d="M700 300h100v100H700z"/><path fill="#e8e4d9" d="M0 400h100v100H0z"/><path fill="#f1ddb0" d="M100 400h100v100H100z"/><path fill="#ffeba8" d="M200 400h100v100H200z"/><path fill="#d6c69b" d="M300 400h100v100H300z"/><path fill="#787c78" d="M400 400h100v100H400z"/><path fill="#d9c99d" d="M500 400h100v100H500z"/><path fill="#fadca1" d="M600 400h100v100H600z"/><path fill="#ccbe9f" d="M700 400h100v100H700z"/></svg>