<svg xmlns="http://www.w3.org/2000/svg" viewBox="0 0 800 500"><defs/><path fill="#f0f2f3" d="M0 0h100v100H0z"/><path fill="#d5dcde" d="M100 0h100v100H100z"/><path fill="#d7dee0" d="M200 0h100v100H200z"/><path fill="#dadee2" d="M300 0h100v100H300z"/><path fill="#d9dee0" d="M400 0h100v100H400z"/><path fill="#dbdfe3" d="M500 0h100v100H500z"/><path fill="#d6dde0" d="M600 0h100v100H600z"/><path fill="#eaeef0" d="M700 0h100v100H700z"/><path fill="#eeeff1" d="M0 100h100v100H0z"/><path fill="#bbcbc7" d="M100 100h100v100H100z"/><path fill="#c0cbcb" d="M200 100h100v100H200z"/><path fill="#cfd1d7" d="M300 100h100v100H300z"/><path fill="#cdd0d6" d="M400 100h100v100H400z"/><path fill="#c9ccd2" d="M500 100h100v100H500z"/><path fill="#bfc5cb" d="M600 100h100v100H600z"/><path fill="#e3e9eb" d="M700 100h100v100H700z"/><path fill="#edf0f1" d="M0 200h100v100H0z"/><path fill="#b7c9c5" d="M100 200h100v100H100z"/><path fill="#b0b8b9" d="M200 200h100v100H200z"/><path fill="#b4b6bb" d="M300 200h100v100H300z"/><path fill="#b4b6ba" d="M400 200h100v100H400z"/><path fill="#9d9fa3" d="M500 200h100v100H500z"/><path fill="#9fa3a8" d="M600 200h100v100H600z"/><path fill="#e3e7e8" d="M700 200h100v100H700z"/><path fill="#e8eded" d="M0 300h100v100H0z"/><path fill="#aac0bc" d="M100 300h100v100H100z"/><path fill="#989fa1" d="M200 300h100v100H200z"/><path fill="#acb0b5" d="M300 300h100v100H300z"/><path fill="#acb1b5" d="M400 300h100v100H400z"/><path fill="#afb1b7" d="M500 300h100v100H500z"/><path fill="#9ba0a4" d="M600 300h100v100H600z"/><path fill="#cfd3d5" d="M700 300h100v100H700z"/><path fill="#ebeeef" d="M0 400h100v100H0z"/><path fill="#c0cccf" d="M100 400h100v100H100z"/><path fill="#c6ccd0" d="M200 400h100v100H200z"/><path fill="#cad0d5" d="M300 400h100v100H300z"/><path fill="#c7cdd2" d="M400 400h100v100H400z"/><path fill="#c8ced3" d="M500 400h100v100H500z"/><path fill="#b9bfc3" d="M600 400h100v100H600z"/><path fill="#d6dadc" d="M700 400h100v100H700z"/></svg>