<svg xmlns="http://www.w3.org/2000/svg" viewBox="0 0 800 600"><defs/><path fill="#8a8f8d" d="M0 0h100v100H0z"/><path fill="#cdcdb2" d="M100 0h100v100H100z"/><path fill="#bdbed4" d="M200 0h100v100H200z"/><path fill="#c3c3d1" d="M300 0h100v100H300z"/><path fill="#94a9ba" d="M400 0h100v100H400z"/><path fill="#779ecc" d="M500 0h100v100H500z"/><path fill="#92b7de" d="M600 0h100v100H600z"/><path fill="#9bacc1" d="M700 0h100v100H700z"/><path fill="#838993" d="M0 100h100v100H0z"/><path fill="#b1ab91" d="M100 100h100v100H100z"/><path fill="#a397b0" d="M200 100h100v100H200z"/><path fill="#c9c1b7" d="M300 100h100v100H300z"/><path fill="#a8b7cc" d="M400 100h100v100H400z"/><path fill="#85a7e1" d="M500 100h100v100H500z"/><path fill="#97bcee" d="M600 100h100v100H600z"/><path fill="#a8c7d6" d="M700 100h100v100H700z"/><path fill="#797c9c" d="M0 200h100v100H0z"/><path fill="#9e99aa" d="M100 200h100v100H100z"/><path fill="#9c90a0" d="M200 200h100v100H200z"/><path fill="#c3c3b8" d="M300 200h100v100H300z"/><path fill="#bcbcdf" d="M400 200h100v100H400z"/><path fill="#c0bad7" d="M500 200h100v100H500z"/><path fill="#cacdd5" d="M600 200h100v100H600z"/><path fill="#759bc4" d="M700 200h100v100H700z"/><path fill="#938f97" d="M0 300h100v100H0z"/><path fill="#9e909d" d="M100 300h100v100H100z"/><path fill="#9b92ab" d="M200 300h100v100H200z"/><path fill="#c2c5d3" d="M300 300h100v100H300z"/><path fill="#b8bfe0" d="M400 300h100v100H400z"/><path fill="#b3c1dc" d="M500 300h100v100H500z"/><path fill="#ccd0e7" d="M600 300h100v100H600z"/><path fill="#98b7db" d="M700 300h100v100H700z"/><path fill="#a39da9" d="M0 400h100v100H0z"/><path fill="#9e8899" d="M100 400h100v100H100z"/><path fill="#9d9bc8" d="M200 400h100v100H200z"/><path fill="#c1c3e0" d="M300 400h100v100H300z"/><path fill="#c4c0c9" d="M400 400h100v100H400z"/><path fill="#bbbfde" d="M500 400h100v100H500z"/><path fill="#c0c4e2" d="M600 400h100v100H600z"/><path fill="#b4c3e7" d="M700 400h100v100H700z"/><path fill="#979fc3" d="M0 500h100v100H0z"/><path fill="#9fa8cd" d="M100 500h100v100H100z"/><path fill="#9ca9d7" d="M200 500h100v100H200z"/><path fill="#b4bed6" d="M300 500h100v100H300z"/><path fill="#a9b8d3" d="M400 500h100v100H400z"/><path fill="#99a7cc" d="M500 500h100v100H500z"/><path fill="#9fabcb" d="M600 500h100v100H600z"/><path fill="#a6b2d8" d="M700 500h100v100H700z"/></svg>