<svg xmlns="http://www.w3.org/2000/svg" viewBox="0 0 800 500"><defs/><path fill="#a8d6e6" d="M0 0h100v100H0z"/><path fill="#95c9dc" d="M100 0h100v100H100z"/><path fill="#b8b5b8" d="M200 0h100v100H200z"/><path fill="#97b0b4" d="M300 0h100v100H300z"/><path fill="#a4afa5" d="M400 0h100v100H400z"/><path fill="#a4a9a4" d="M500 0h100v100H500z"/><path fill="#6a95a0" d="M600 0h100v100H600z"/><path fill="#79a1af" d="M700 0h100v100H700z"/><path fill="#a3c7dd" d="M0 100h100v100H0z"/><path fill="#b2c0c2" d="M100 100h100v100H100z"/><path fill="#b6b8ba" d="M200 100h100v100H200z"/><path fill="#76a392" d="M300 100h100v100H300z"/><path fill="#90ad98" d="M400 100h100v100H400z"/><path fill="#4f9299" d="M500 100h100v100H500z"/><path fill="#3e8084" d="M600 100h100v100H600z"/><path fill="#889d9d" d="M700 100h100v100H700z"/><path fill="#a1b0c6" d="M0 200h100v100H0z"/><path fill="#c7bab3" d="M100 200h100v100H100z"/><path fill="#9fb3bc" d="M200 200h100v100H200z"/><path fill="#9b9f91" d="M300 200h100v100H300z"/><path fill="#a8a692" d="M400 200h100v100H400z"/><path fill="#538f9a" d="M500 200h100v100H500z"/><path fill="#3e8a9e" d="M600 200h100v100H600z"/><path fill="#788379" d="M700 200h100v100H700z"/><path fill="#a3b9c5" d="M0 300h100v100H0z"/><path fill="#a9917f" d="M100 300h100v100H100z"/><path fill="#9d998f" d="M200 300h100v100H200z"/><path fill="#8a9794" d="M300 300h100v100H300z"/><path fill="#8299a5" d="M400 300h100v100H400z"/><path fill="#807e99" d="M500 300h100v100H500z"/><path fill="#546775" d="M600 300h100v100H600z"/><path fill="#687e61" d="M700 300h100v100H700z"/><path fill="#9a9893" d="M0 400h100v100H0z"/><path fill="#a39073" d="M100 400h100v100H100z"/><path fill="#b1a897" d="M200 400h100v100H200z"/><path fill="#71979f" d="M300 400h100v100H300z"/><path fill="#699ea6" d="M400 400h100v100H400z"/><path fill="#889b99" d="M500 400h100v100H500z"/><path fill="#887866" d="M600 400h100v100H600z"/><path fill="#757574" d="M700 400h100v100H700z"/></svg>