<svg xmlns="http://www.w3.org/2000/svg" viewBox="0 0 800 600"><defs/><path fill="#f4f6f2" d="M0 0h100v100H0z"/><path fill="#ebf2f0" d="M100 0h100v100H100z"/><path fill="#e0ecef" d="M200 0h100v100H200z"/><path fill="#e1f0e4" d="M300 0h100v100H300z"/><path fill="#e8e6ec" d="M400 0h100v100H400z"/><path fill="#ded8ea" d="M500 0h100v100H500z"/><path fill="#e1dde9" d="M600 0h100v100H600z"/><path fill="#f4f4f6" d="M700 0h100v100H700z"/><path fill="#f8faf5" d="M0 100h100v100H0z"/><path fill="#edf1ea" d="M100 100h100v100H100z"/><path fill="#ccdec3" d="M200 100h100v100H200z"/><path fill="#cee2bc" d="M300 100h100v100H300z"/><path fill="#eeeeef" d="M400 100h100v100H400z"/><path fill="#e5e2e0" d="M500 100h100v100H500z"/><path fill="#eae7ea" d="M600 100h100v100H600z"/><path fill="#f8f6f6" d="M700 100h100v100H700z"/><path fill="#f3f7ea" d="M0 200h100v100H0z"/><path fill="#e9f0d3" d="M100 200h100v100H100z"/><path fill="#f3f6dd" d="M200 200h100v100H200z"/><path fill="#f0eedd" d="M300 200h100v100H300z"/><path fill="#efeee9" d="M400 200h100v100H400z"/><path fill="#d8d8c2" d="M500 200h100v100H500z"/><path fill="#f5f3f1" d="M600 200h100v100H600z"/><path fill="#fcfcfc" d="M700 200h100v100H700z"/><path fill="#fbfcfe" d="M0 300h100v100H0z"/><path fill="#fff" d="M100 300h100v100H100z"/><path fill="#fefdfd" d="M200 300h100v100H200z"/><path fill="#edeae9" d="M300 300h100v100H300z"/><path fill="#efeceb" d="M400 300h100v100H400z"/><path fill="#f2f8f6" d="M500 300h100v100H500z"/><path fill="#f4f1ef" d="M600 300h100v100H600z"/><path fill="#f9e0e2" d="M700 300h100v100H700z"/><path fill="#fdffff" d="M0 400h100v100H0z"/><path fill="#da7f81" d="M100 400h100v100H100z"/><path fill="#df8d8e" d="M200 400h100v100H200z"/><path fill="#fafefd" d="M300 400h100v100H300z"/><path fill="#fafffd" d="M400 400h100v100H400z"/><path fill="#e8a9ab" d="M500 400h100v100H500z"/><path fill="#cb3439" d="M600 400h100v100H600z"/><path fill="#d65257" d="M700 400h100v100H700z"/><path fill="#fbfeff" d="M0 500h100v100H0z"/><path fill="#da7e82" d="M100 500h100v100H100z"/><path fill="#e09195" d="M200 500h100v100H200z"/><path fill="#fff" d="M300 500h100v100H300zm100 0h100v100H400z"/><path fill="#e7a4a8" d="M500 500h100v100H500z"/><path fill="#d65e63" d="M600 500h100v100H600z"/><path fill="#e08a8d" d="M700 500h100v100H700z"/></svg>