<svg xmlns="http://www.w3.org/2000/svg" viewBox="0 0 800 500"><defs/><path fill="#797470" d="M0 0h100v100H0z"/><path fill="#535348" d="M100 0h100v100H100z"/><path fill="#5d655c" d="M200 0h100v100H200z"/><path fill="#28262d" d="M300 0h100v100H300z"/><path fill="#362f2a" d="M400 0h100v100H400z"/><path fill="#9e948a" d="M500 0h100v100H500z"/><path fill="#b9bcb7" d="M600 0h100v100H600z"/><path fill="#a4a7a6" d="M700 0h100v100H700z"/><path fill="#d4cfc9" d="M0 100h100v100H0z"/><path fill="#cfc89f" d="M100 100h100v100H100z"/><path fill="#6a644b" d="M200 100h100v100H200z"/><path fill="#000001" d="M300 100h100v100H300z"/><path fill="#7a614e" d="M400 100h100v100H400z"/><path fill="#917161" d="M500 100h100v100H500z"/><path fill="#c1ca65" d="M600 100h100v100H600z"/><path fill="#bbbf5e" d="M700 100h100v100H700z"/><path fill="#a1a2a3" d="M0 200h100v100H0z"/><path fill="#b6afa9" d="M100 200h100v100H100z"/><path fill="#9b8f8c" d="M200 200h100v100H200z"/><path fill="#747478" d="M300 200h100v100H300z"/><path fill="#5d5651" d="M400 200h100v100H400z"/><path fill="#575051" d="M500 200h100v100H500z"/><path fill="#a9ae96" d="M600 200h100v100H600z"/><path fill="#b3b597" d="M700 200h100v100H700z"/><path fill="#a4a7a5" d="M0 300h100v100H0z"/><path fill="#a39596" d="M100 300h100v100H100z"/><path fill="#846c6e" d="M200 300h100v100H200z"/><path fill="#878c90" d="M300 300h100v100H300z"/><path fill="#424342" d="M400 300h100v100H400z"/><path fill="#53555d" d="M500 300h100v100H500z"/><path fill="#7d838d" d="M600 300h100v100H600z"/><path fill="#8c949d" d="M700 300h100v100H700z"/><path fill="#89857f" d="M0 400h100v100H0z"/><path fill="#534145" d="M100 400h100v100H100z"/><path fill="#200d10" d="M200 400h100v100H200z"/><path fill="#2c292b" d="M300 400h100v100H300z"/><path fill="#4d4743" d="M400 400h100v100H400z"/><path fill="#3a3c44" d="M500 400h100v100H500z"/><path fill="#474849" d="M600 400h100v100H600z"/><path fill="#888b8d" d="M700 400h100v100H700z"/></svg>