<svg xmlns="http://www.w3.org/2000/svg" viewBox="0 0 800 500"><defs/><path fill="#7a7d75" d="M0 0h100v100H0z"/><path fill="#989d97" d="M100 0h100v100H100z"/><path fill="#a18786" d="M200 0h100v100H200z"/><path fill="#aaa094" d="M300 0h100v100H300z"/><path fill="#806a6f" d="M400 0h100v100H400z"/><path fill="#71535c" d="M500 0h100v100H500z"/><path fill="#807276" d="M600 0h100v100H600z"/><path fill="#616868" d="M700 0h100v100H700z"/><path fill="#7c8a74" d="M0 100h100v100H0z"/><path fill="#adb5b0" d="M100 100h100v100H100z"/><path fill="#ae9e86" d="M200 100h100v100H200z"/><path fill="#d9d0a6" d="M300 100h100v100H300z"/><path fill="#9c7691" d="M400 100h100v100H400z"/><path fill="#996487" d="M500 100h100v100H500z"/><path fill="#998a9f" d="M600 100h100v100H600z"/><path fill="#6c8e86" d="M700 100h100v100H700z"/><path fill="#6d8461" d="M0 200h100v100H0z"/><path fill="#a3a6a6" d="M100 200h100v100H100z"/><path fill="#a5919b" d="M200 200h100v100H200z"/><path fill="#b19c9d" d="M300 200h100v100H300z"/><path fill="#8e6e8a" d="M400 200h100v100H400z"/><path fill="#996e8c" d="M500 200h100v100H500z"/><path fill="#857f99" d="M600 200h100v100H600z"/><path fill="#628172" d="M700 200h100v100H700z"/><path fill="#999f9b" d="M0 300h100v100H0z"/><path fill="#7a7c80" d="M100 300h100v100H100z"/><path fill="#523f52" d="M200 300h100v100H200z"/><path fill="#604c5b" d="M300 300h100v100H300z"/><path fill="#594553" d="M400 300h100v100H400z"/><path fill="#4b3d4a" d="M500 300h100v100H500z"/><path fill="#4b3f49" d="M600 300h100v100H600z"/><path fill="#5a5253" d="M700 300h100v100H700z"/><path fill="#747974" d="M0 400h100v100H0z"/><path fill="#565853" d="M100 400h100v100H100z"/><path fill="#484447" d="M200 400h100v100H200z"/><path fill="#4a483f" d="M300 400h100v100H300z"/><path fill="#48473d" d="M400 400h100v100H400z"/><path fill="#414440" d="M500 400h100v100H500z"/><path fill="#464640" d="M600 400h100v100H600z"/><path fill="#5f5c52" d="M700 400h100v100H700z"/></svg>