<svg xmlns="http://www.w3.org/2000/svg" viewBox="0 0 800 600"><defs/><path fill="#56432c" d="M0 0h100v100H0z"/><path fill="#4a3721" d="M100 0h100v100H100z"/><path fill="#43311f" d="M200 0h100v100H200z"/><path fill="#322518" d="M300 0h100v100H300z"/><path fill="#312418" d="M400 0h100v100H400z"/><path fill="#3d2d1d" d="M500 0h100v100H500z"/><path fill="#3e2e1c" d="M600 0h100v100H600z"/><path fill="#41311e" d="M700 0h100v100H700z"/><path fill="#8f877c" d="M0 100h100v100H0z"/><path fill="#332c27" d="M100 100h100v100H100z"/><path fill="#090606" d="M200 100h100v100H200z"/><path fill="#0d0908" d="M300 100h100v100H300z"/><path fill="#0f0b0b" d="M400 100h100v100H400z"/><path fill="#1b1410" d="M500 100h100v100H500z"/><path fill="#4f4537" d="M600 100h100v100H600z"/><path fill="#847a6c" d="M700 100h100v100H700z"/><path fill="#8d7e5b" d="M0 200h100v100H0z"/><path fill="#6d5b3d" d="M100 200h100v100H100z"/><path fill="#413624" d="M200 200h100v100H200z"/><path fill="#322f28" d="M300 200h100v100H300z"/><path fill="#303129" d="M400 200h100v100H400z"/><path fill="#2e2517" d="M500 200h100v100H500z"/><path fill="#5a5137" d="M600 200h100v100H600z"/><path fill="#70644b" d="M700 200h100v100H700z"/><path fill="#83734f" d="M0 300h100v100H0z"/><path fill="#716140" d="M100 300h100v100H100z"/><path fill="#7b6647" d="M200 300h100v100H200z"/><path fill="#726048" d="M300 300h100v100H300z"/><path fill="#6b653f" d="M400 300h100v100H400z"/><path fill="#5d5b2e" d="M500 300h100v100H500z"/><path fill="#625233" d="M600 300h100v100H600z"/><path fill="#5e5334" d="M700 300h100v100H700z"/><path fill="#867253" d="M0 400h100v100H0z"/><path fill="#917d5a" d="M100 400h100v100H100z"/><path fill="#a38863" d="M200 400h100v100H200z"/><path fill="#957b63" d="M300 400h100v100H300z"/><path fill="#927665" d="M400 400h100v100H400z"/><path fill="#a08463" d="M500 400h100v100H500z"/><path fill="#a88f63" d="M600 400h100v100H600z"/><path fill="#6f5353" d="M700 400h100v100H700z"/><path fill="#836872" d="M0 500h100v100H0z"/><path fill="#9c7e66" d="M100 500h100v100H100z"/><path fill="#7b6764" d="M200 500h100v100H200z"/><path fill="#735d65" d="M300 500h100v100H300z"/><path fill="#67536e" d="M400 500h100v100H400z"/><path fill="#827061" d="M500 500h100v100H500z"/><path fill="#887c60" d="M600 500h100v100H600z"/><path fill="#7a5d6e" d="M700 500h100v100H700z"/></svg>