<svg xmlns="http://www.w3.org/2000/svg" viewBox="0 0 800 500"><defs/><path fill="#e1e1e1" d="M0 0h100v100H0zm100 0h100v100H100z"/><path fill="#ededed" d="M200 0h100v100H200z"/><path fill="#e5e5e5" d="M300 0h100v100H300z"/><path fill="#bebebe" d="M400 0h100v100H400z"/><path fill="#c2c2c2" d="M500 0h100v100H500z"/><path fill="#f4f4f4" d="M600 0h100v100H600z"/><path fill="#f3f3f3" d="M700 0h100v100H700z"/><path fill="#a7a7a7" d="M0 100h100v100H0z"/><path fill="#969696" d="M100 100h100v100H100z"/><path fill="#c1c1c1" d="M200 100h100v100H200z"/><path fill="#b2b2b2" d="M300 100h100v100H300z"/><path fill="#afafaf" d="M400 100h100v100H400z"/><path fill="#979797" d="M500 100h100v100H500z"/><path fill="#b2b2b2" d="M600 100h100v100H600z"/><path fill="#c5c5c5" d="M700 100h100v100H700z"/><path fill="#b6b6b6" d="M0 200h100v100H0z"/><path fill="#939393" d="M100 200h100v100H100z"/><path fill="#949494" d="M200 200h100v100H200z"/><path fill="#b8b8b8" d="M300 200h100v100H300z"/><path fill="#8c8c8c" d="M400 200h100v100H400z"/><path fill="#a4a4a4" d="M500 200h100v100H500z"/><path fill="#9a9a9a" d="M600 200h100v100H600z"/><path fill="#a4a4a4" d="M700 200h100v100H700z"/><path fill="#a8a8a8" d="M0 300h100v100H0z"/><path fill="#a6a6a6" d="M100 300h100v100H100z"/><path fill="#bbb" d="M200 300h100v100H200z"/><path fill="#ababab" d="M300 300h100v100H300z"/><path fill="#7c7c7c" d="M400 300h100v100H400z"/><path fill="#858585" d="M500 300h100v100H500z"/><path fill="#aeaeae" d="M600 300h100v100H600z"/><path fill="#bbb" d="M700 300h100v100H700z"/><path fill="#cdcdcd" d="M0 400h100v100H0z"/><path fill="#ddd" d="M100 400h100v100H100z"/><path fill="#e2e2e2" d="M200 400h100v100H200z"/><path fill="#bfbfbf" d="M300 400h100v100H300z"/><path fill="#b9b9b9" d="M400 400h100v100H400z"/><path fill="#c9c9c9" d="M500 400h100v100H500z"/><path fill="#ebebeb" d="M600 400h100v100H600z"/><path fill="#e6e6e6" d="M700 400h100v100H700z"/></svg>