<svg xmlns="http://www.w3.org/2000/svg" viewBox="0 0 800 400"><defs/><path fill="#f3f2f4" d="M0 0h100v100H0z"/><path fill="#e1d9df" d="M100 0h100v100H100z"/><path fill="#fcfaf9" d="M200 0h100v100H200z"/><path fill="#fbecea" d="M300 0h100v100H300z"/><path fill="#f6eef4" d="M400 0h100v100H400z"/><path fill="#eeebee" d="M500 0h100v100H500z"/><path fill="#eaeee3" d="M600 0h100v100H600z"/><path fill="#897c7b" d="M700 0h100v100H700z"/><path fill="#cac9d1" d="M0 100h100v100H0z"/><path fill="#cbccd4" d="M100 100h100v100H100z"/><path fill="#fff" d="M200 100h100v100H200z"/><path fill="#fdfdfd" d="M300 100h100v100H300z"/><path fill="#fff" d="M400 100h100v100H400z"/><path fill="#fff3fa" d="M500 100h100v100H500z"/><path fill="#fdf7fa" d="M600 100h100v100H600z"/><path fill="#877676" d="M700 100h100v100H700z"/><path fill="#ece8eb" d="M0 200h100v100H0z"/><path fill="#adc4bf" d="M100 200h100v100H100z"/><path fill="#7eb9aa" d="M200 200h100v100H200z"/><path fill="#99aca7" d="M300 200h100v100H300z"/><path fill="#a1b2ad" d="M400 200h100v100H400z"/><path fill="#85b3a6" d="M500 200h100v100H500z"/><path fill="#82b1a5" d="M600 200h100v100H600z"/><path fill="#6d6f6b" d="M700 200h100v100H700z"/><path fill="#e1dbda" d="M0 300h100v100H0z"/><path fill="#709c92" d="M100 300h100v100H100z"/><path fill="#007756" d="M200 300h100v100H200z"/><path fill="#615556" d="M300 300h100v100H300z"/><path fill="#734c54" d="M400 300h100v100H400z"/><path fill="#097b5b" d="M500 300h100v100H500z"/><path fill="#0d7558" d="M600 300h100v100H600z"/><path fill="#4f8a7a" d="M700 300h100v100H700z"/></svg>