<svg xmlns="http://www.w3.org/2000/svg" viewBox="0 0 800 600"><defs/><path fill="#e6e6e6" d="M0 0h100v100H0z"/><path fill="#c9c9c9" d="M100 0h100v100H100z"/><path fill="#e7e7e7" d="M200 0h100v100H200z"/><path fill="#ddd" d="M300 0h100v100H300z"/><path fill="#d0d0d0" d="M400 0h100v100H400z"/><path fill="#d1d1d1" d="M500 0h100v100H500z"/><path fill="#c9c9c9" d="M600 0h100v100H600z"/><path fill="#cbcbcb" d="M700 0h100v100H700z"/><path fill="#e4e4e4" d="M0 100h100v100H0z"/><path fill="#cacaca" d="M100 100h100v100H100z"/><path fill="#ebebeb" d="M200 100h100v100H200z"/><path fill="#e5e5e5" d="M300 100h100v100H300z"/><path fill="#d4d4d4" d="M400 100h100v100H400z"/><path fill="#dadada" d="M500 100h100v100H500z"/><path fill="#ccc" d="M600 100h100v100H600z"/><path fill="#d0d0cf" d="M700 100h100v100H700z"/><path fill="#d5d5d5" d="M0 200h100v100H0z"/><path fill="#cfcfcf" d="M100 200h100v100H100z"/><path fill="#e5e5e5" d="M200 200h100v100H200z"/><path fill="#e2e2e2" d="M300 200h100v100H300z"/><path fill="#d5d5d5" d="M400 200h100v100H400z"/><path fill="#e0e0e0" d="M500 200h100v100H500z"/><path fill="#d6d6d6" d="M600 200h100v100H600z"/><path fill="#cecece" d="M700 200h100v100H700z"/><path fill="#d8d8d8" d="M0 300h100v100H0z"/><path fill="#d0d0d0" d="M100 300h100v100H100z"/><path fill="#e7e7e7" d="M200 300h100v100H200z"/><path fill="#e3e3e3" d="M300 300h100v100H300z"/><path fill="#e6e6e6" d="M400 300h100v100H400z"/><path fill="#eaeaea" d="M500 300h100v100H500z"/><path fill="#e1e1e1" d="M600 300h100v100H600z"/><path fill="#d3d3d3" d="M700 300h100v100H700z"/><path fill="#d6d6d6" d="M0 400h100v100H0z"/><path fill="#d5d5d5" d="M100 400h100v100H100z"/><path fill="#eee" d="M200 400h100v100H200z"/><path fill="#ececec" d="M300 400h100v100H300z"/><path fill="#ebebeb" d="M400 400h100v100H400z"/><path fill="#dcdcdc" d="M500 400h100v100H500z"/><path fill="#cecece" d="M600 400h100v100H600z"/><path fill="#cfcecf" d="M700 400h100v100H700z"/><path fill="#dfdfdf" d="M0 500h100v100H0z"/><path fill="#e8e8e9" d="M100 500h100v100H100z"/><path fill="#f4f4f4" d="M200 500h100v100H200z"/><path fill="#eee" d="M300 500h100v100H300zm100 0h100v100H400z"/><path fill="#e9e9e9" d="M500 500h100v100H500z"/><path fill="#ddd" d="M600 500h100v100H600z"/><path fill="#d9dad9" d="M700 500h100v100H700z"/></svg>