<svg xmlns="http://www.w3.org/2000/svg" viewBox="0 0 800 1100"><defs/><path fill="#775d4a" d="M0 0h100v100H0z"/><path fill="#664f44" d="M100 0h100v100H100z"/><path fill="#553b34" d="M200 0h100v100H200z"/><path fill="#4c3230" d="M300 0h100v100H300z"/><path fill="#3f2b2d" d="M400 0h100v100H400z"/><path fill="#49302e" d="M500 0h100v100H500z"/><path fill="#4d3431" d="M600 0h100v100H600z"/><path fill="#553831" d="M700 0h100v100H700z"/><path fill="#886548" d="M0 100h100v100H0z"/><path fill="#835d44" d="M100 100h100v100H100z"/><path fill="#85583e" d="M200 100h100v100H200z"/><path fill="#a86b41" d="M300 100h100v100H300z"/><path fill="#925e3e" d="M400 100h100v100H400z"/><path fill="#85593e" d="M500 100h100v100H500z"/><path fill="#764d39" d="M600 100h100v100H600z"/><path fill="#6a4134" d="M700 100h100v100H700z"/><path fill="#a5744b" d="M0 200h100v100H0z"/><path fill="#84573d" d="M100 200h100v100H100z"/><path fill="#9b633f" d="M200 200h100v100H200z"/><path fill="#b57e4d" d="M300 200h100v100H300z"/><path fill="#9e6945" d="M400 200h100v100H400z"/><path fill="#754736" d="M500 200h100v100H500z"/><path fill="#7a4531" d="M600 200h100v100H600z"/><path fill="#894f34" d="M700 200h100v100H700z"/><path fill="#9d6841" d="M0 300h100v100H0z"/><path fill="#99623e" d="M100 300h100v100H100z"/><path fill="#b37345" d="M200 300h100v100H200z"/><path fill="#935840" d="M300 300h100v100H300z"/><path fill="#874835" d="M400 300h100v100H400z"/><path fill="#9f5834" d="M500 300h100v100H500z"/><path fill="#ad6136" d="M600 300h100v100H600z"/><path fill="#b06336" d="M700 300h100v100H700z"/><path fill="#af7043" d="M0 400h100v100H0z"/><path fill="#9d5b3c" d="M100 400h100v100H100z"/><path fill="#9d503e" d="M200 400h100v100H200z"/><path fill="#c16649" d="M300 400h100v100H300z"/><path fill="#cf7542" d="M400 400h100v100H400z"/><path fill="#d07339" d="M500 400h100v100H500z"/><path fill="#c66a35" d="M600 400h100v100H600z"/><path fill="#bd6534" d="M700 400h100v100H700z"/><path fill="#894834" d="M0 500h100v100H0z"/><path fill="#ae5a38" d="M100 500h100v100H100z"/><path fill="#d97747" d="M200 500h100v100H200z"/><path fill="#f1944e" d="M300 500h100v100H300z"/><path fill="#ef8f4b" d="M400 500h100v100H400z"/><path fill="#e37b39" d="M500 500h100v100H500z"/><path fill="#d26d33" d="M600 500h100v100H600z"/><path fill="#bf5e31" d="M700 500h100v100H700z"/><path fill="#c16937" d="M0 600h100v100H0z"/><path fill="#e17b3c" d="M100 600h100v100H100z"/><path fill="#f7a951" d="M200 600h100v100H200z"/><path fill="#fde588" d="M300 600h100v100H300z"/><path fill="#f89f49" d="M400 600h100v100H400z"/><path fill="#e67538" d="M500 600h100v100H500z"/><path fill="#cc5f34" d="M600 600h100v100H600z"/><path fill="#a1482c" d="M700 600h100v100H700z"/><path fill="#d77136" d="M0 700h100v100H0z"/><path fill="#eb7f3a" d="M100 700h100v100H100z"/><path fill="#f49547" d="M200 700h100v100H200z"/><path fill="#f9a35d" d="M300 700h100v100H300z"/><path fill="#ec7541" d="M400 700h100v100H400z"/><path fill="#b44e31" d="M500 700h100v100H500z"/><path fill="#642a1f" d="M600 700h100v100H600z"/><path fill="#2d130f" d="M700 700h100v100H700z"/><path fill="#c66032" d="M0 800h100v100H0z"/><path fill="#ca5f35" d="M100 800h100v100H100z"/><path fill="#cd5a38" d="M200 800h100v100H200z"/><path fill="#be4b32" d="M300 800h100v100H300z"/><path fill="#8a3528" d="M400 800h100v100H400z"/><path fill="#3b1514" d="M500 800h100v100H500z"/><path fill="#0e0506" d="M600 800h100v100H600z"/><path fill="#020100" d="M700 800h100v100H700z"/><path fill="#7e3b29" d="M0 900h100v100H0z"/><path fill="#58261c" d="M100 900h100v100H100z"/><path fill="#52201b" d="M200 900h100v100H200z"/><path fill="#3c1414" d="M300 900h100v100H300z"/><path fill="#220a0b" d="M400 900h100v100H400z"/><path fill="#130705" d="M500 900h100v100H500z"/><path fill="#090301" d="M600 900h100v100H600z"/><path fill="#030200" d="M700 900h100v100H700z"/><path fill="#1e0f0d" d="M0 1000h100v100H0z"/><path fill="#090405" d="M100 1000h100v100H100z"/><path fill="#0b0303" d="M200 1000h100v100H200z"/><path fill="#0e0503" d="M300 1000h100v100H300z"/><path fill="#0b0402" d="M400 1000h100v100H400z"/><path fill="#060300" d="M500 1000h100v100H500z"/><path fill="#020200" d="M600 1000h100v100H600z"/><path fill="#020100" d="M700 1000h100v100H700z"/></svg>