<svg xmlns="http://www.w3.org/2000/svg" viewBox="0 0 800 1100"><defs/><path fill="#49494b" d="M0 0h100v100H0z"/><path fill="#665858" d="M100 0h100v100H100z"/><path fill="#977c6f" d="M200 0h100v100H200z"/><path fill="#b8c0ca" d="M300 0h100v100H300z"/><path fill="#d1d7e4" d="M400 0h100v100H400z"/><path fill="#cbcbd6" d="M500 0h100v100H500z"/><path fill="#bcbac3" d="M600 0h100v100H600z"/><path fill="#c1bfc0" d="M700 0h100v100H700z"/><path fill="#64605f" d="M0 100h100v100H0z"/><path fill="#8094ae" d="M100 100h100v100H100z"/><path fill="#8da9c7" d="M200 100h100v100H200z"/><path fill="#b5c0cd" d="M300 100h100v100H300z"/><path fill="#d7dfec" d="M400 100h100v100H400z"/><path fill="#bfd1e7" d="M500 100h100v100H500z"/><path fill="#b3cbe8" d="M600 100h100v100H600z"/><path fill="#d2dae4" d="M700 100h100v100H700z"/><path fill="#656f7b" d="M0 200h100v100H0z"/><path fill="#809cc3" d="M100 200h100v100H100z"/><path fill="#8fb1d8" d="M200 200h100v100H200z"/><path fill="#adbcd0" d="M300 200h100v100H300z"/><path fill="#cdd1da" d="M400 200h100v100H400z"/><path fill="#c1dafd" d="M500 200h100v100H500z"/><path fill="#c2d7f6" d="M600 200h100v100H600z"/><path fill="#cab2a7" d="M700 200h100v100H700z"/><path fill="#6e798b" d="M0 300h100v100H0z"/><path fill="#a3b1cf" d="M100 300h100v100H100z"/><path fill="#a6bfe2" d="M200 300h100v100H200z"/><path fill="#b1b6c0" d="M300 300h100v100H300z"/><path fill="#b2b0bd" d="M400 300h100v100H400z"/><path fill="#cbe1cc" d="M500 300h100v100H500z"/><path fill="#c1b98e" d="M600 300h100v100H600z"/><path fill="#8a644a" d="M700 300h100v100H700z"/><path fill="#332b27" d="M0 400h100v100H0z"/><path fill="#b18977" d="M100 400h100v100H100z"/><path fill="#cebfc8" d="M200 400h100v100H200z"/><path fill="#b9bdc8" d="M300 400h100v100H300z"/><path fill="#c8ced9" d="M400 400h100v100H400z"/><path fill="#d8e3dc" d="M500 400h100v100H500z"/><path fill="#99948a" d="M600 400h100v100H600z"/><path fill="#32271f" d="M700 400h100v100H700z"/><path fill="#3f4752" d="M0 500h100v100H0z"/><path fill="#685b54" d="M100 500h100v100H100z"/><path fill="#9d7a78" d="M200 500h100v100H200z"/><path fill="#7d4647" d="M300 500h100v100H300z"/><path fill="#747f71" d="M400 500h100v100H400z"/><path fill="#e1e7f5" d="M500 500h100v100H500z"/><path fill="#adadaf" d="M600 500h100v100H600z"/><path fill="#18140e" d="M700 500h100v100H700z"/><path fill="#6a788d" d="M0 600h100v100H0z"/><path fill="#86a0c0" d="M100 600h100v100H100z"/><path fill="#7f94a0" d="M200 600h100v100H200z"/><path fill="#845a57" d="M300 600h100v100H300z"/><path fill="#756863" d="M400 600h100v100H400z"/><path fill="#c1cfe0" d="M500 600h100v100H500z"/><path fill="#abbed2" d="M600 600h100v100H600z"/><path fill="#6b727b" d="M700 600h100v100H700z"/><path fill="#627085" d="M0 700h100v100H0z"/><path fill="#98b4d8" d="M100 700h100v100H100z"/><path fill="#acbfd5" d="M200 700h100v100H200z"/><path fill="#908e86" d="M300 700h100v100H300z"/><path fill="#787177" d="M400 700h100v100H400z"/><path fill="#b1c0d5" d="M500 700h100v100H500z"/><path fill="#b1c9e8" d="M600 700h100v100H600z"/><path fill="#9bacc4" d="M700 700h100v100H700z"/><path fill="#8d7e80" d="M0 800h100v100H0z"/><path fill="#97afce" d="M100 800h100v100H100z"/><path fill="#c7d7ee" d="M200 800h100v100H200z"/><path fill="#b7bbb9" d="M300 800h100v100H300z"/><path fill="#8a9674" d="M400 800h100v100H400z"/><path fill="#bdcfda" d="M500 800h100v100H500z"/><path fill="#a3c6e8" d="M600 800h100v100H600z"/><path fill="#a6bcd7" d="M700 800h100v100H700z"/><path fill="#84756c" d="M0 900h100v100H0z"/><path fill="#a8a8ac" d="M100 900h100v100H100z"/><path fill="#a99a8f" d="M200 900h100v100H200z"/><path fill="#c4bda8" d="M300 900h100v100H300z"/><path fill="#86995c" d="M400 900h100v100H400z"/><path fill="#b2c1c4" d="M500 900h100v100H500z"/><path fill="#b7cbdf" d="M600 900h100v100H600z"/><path fill="#b7c4d3" d="M700 900h100v100H700z"/><path fill="#828686" d="M0 1000h100v100H0z"/><path fill="#948f8c" d="M100 1000h100v100H100z"/><path fill="#623c2a" d="M200 1000h100v100H200z"/><path fill="#836447" d="M300 1000h100v100H300z"/><path fill="#908a81" d="M400 1000h100v100H400z"/><path fill="#b8bec8" d="M500 1000h100v100H500z"/><path fill="#d5d4d6" d="M600 1000h100v100H600z"/><path fill="#cccbce" d="M700 1000h100v100H700z"/></svg>