<svg xmlns="http://www.w3.org/2000/svg" viewBox="0 0 800 600"><defs/><path fill="#170c08" d="M0 0h100v100H0z"/><path fill="#130604" d="M100 0h100v100H100z"/><path fill="#2b1611" d="M200 0h100v100H200z"/><path fill="#1f1310" d="M300 0h100v100H300z"/><path fill="#18110c" d="M400 0h100v100H400z"/><path fill="#1b0b02" d="M500 0h100v100H500z"/><path fill="#574e4a" d="M600 0h100v100H600z"/><path fill="#999392" d="M700 0h100v100H700z"/><path fill="#504238" d="M0 100h100v100H0z"/><path fill="#9a9b9f" d="M100 100h100v100H100z"/><path fill="#8f96a4" d="M200 100h100v100H200z"/><path fill="#959ea8" d="M300 100h100v100H300z"/><path fill="#222123" d="M400 100h100v100H400z"/><path fill="#130500" d="M500 100h100v100H500z"/><path fill="#6a625d" d="M600 100h100v100H600z"/><path fill="#786d68" d="M700 100h100v100H700z"/><path fill="#423c3f" d="M0 200h100v100H0z"/><path fill="#cccfd3" d="M100 200h100v100H100z"/><path fill="#a6b1c3" d="M200 200h100v100H200z"/><path fill="#8ca5b0" d="M300 200h100v100H300z"/><path fill="#443b37" d="M400 200h100v100H400z"/><path fill="#441d08" d="M500 200h100v100H500z"/><path fill="#483f3a" d="M600 200h100v100H600z"/><path fill="#453938" d="M700 200h100v100H700z"/><path fill="#07080b" d="M0 300h100v100H0z"/><path fill="#12181f" d="M100 300h100v100H100z"/><path fill="#2a2b2e" d="M200 300h100v100H200z"/><path fill="#1a2124" d="M300 300h100v100H300z"/><path fill="#19120d" d="M400 300h100v100H400z"/><path fill="#341c11" d="M500 300h100v100H500z"/><path fill="#413b3c" d="M600 300h100v100H600z"/><path fill="#100d0d" d="M700 300h100v100H700z"/><path fill="#050503" d="M0 400h100v100H0z"/><path fill="#030301" d="M100 400h100v100H100z"/><path fill="#000100" d="M200 400h100v100H200z"/><path fill="#040402" d="M300 400h100v100H300z"/><path fill="#0b0805" d="M400 400h100v100H400z"/><path fill="#0d0c0d" d="M500 400h100v100H500z"/><path fill="#32323a" d="M600 400h100v100H600z"/><path fill="#2b2327" d="M700 400h100v100H700z"/><path fill="#040403" d="M0 500h100v100H0z"/><path fill="#060505" d="M100 500h100v100H100z"/><path fill="#140c08" d="M200 500h100v100H200z"/><path fill="#0c0907" d="M300 500h100v100H300z"/><path fill="#080504" d="M400 500h100v100H400z"/><path fill="#0d0c0c" d="M500 500h100v100H500z"/><path fill="#191a23" d="M600 500h100v100H600z"/><path fill="#191b21" d="M700 500h100v100H700z"/></svg>