<svg xmlns="http://www.w3.org/2000/svg" viewBox="0 0 800 400"><defs/><path fill="#231331" d="M0 0h100v100H0z"/><path fill="#a12f43" d="M100 0h100v100H100z"/><path fill="#6c2cb2" d="M200 0h100v100H200z"/><path fill="#4839b3" d="M300 0h100v100H300z"/><path fill="#5a1fa0" d="M400 0h100v100H400z"/><path fill="#792f8a" d="M500 0h100v100H500z"/><path fill="#573959" d="M600 0h100v100H600z"/><path fill="#42224a" d="M700 0h100v100H700z"/><path fill="#33142f" d="M0 100h100v100H0z"/><path fill="#92374a" d="M100 100h100v100H100z"/><path fill="#583a8a" d="M200 100h100v100H200z"/><path fill="#50268a" d="M300 100h100v100H300z"/><path fill="#5a3d84" d="M400 100h100v100H400z"/><path fill="#86407e" d="M500 100h100v100H500z"/><path fill="#836a64" d="M600 100h100v100H600z"/><path fill="#3c345c" d="M700 100h100v100H700z"/><path fill="#5a1a32" d="M0 200h100v100H0z"/><path fill="#86493d" d="M100 200h100v100H100z"/><path fill="#435e56" d="M200 200h100v100H200z"/><path fill="#532b6d" d="M300 200h100v100H300z"/><path fill="#5d3c67" d="M400 200h100v100H400z"/><path fill="#3c256b" d="M500 200h100v100H500z"/><path fill="#4e2b70" d="M600 200h100v100H600z"/><path fill="#6a3a67" d="M700 200h100v100H700z"/><path fill="#702334" d="M0 300h100v100H0z"/><path fill="#903f52" d="M100 300h100v100H100z"/><path fill="#875570" d="M200 300h100v100H200z"/><path fill="#612640" d="M300 300h100v100H300z"/><path fill="#502949" d="M400 300h100v100H400z"/><path fill="#2d092f" d="M500 300h100v100H500z"/><path fill="#4b1b48" d="M600 300h100v100H600z"/><path fill="#7e4a6d" d="M700 300h100v100H700z"/></svg>