<svg xmlns="http://www.w3.org/2000/svg" viewBox="0 0 800 600"><defs/><path fill="#ebe6dc" d="M0 0h100v100H0z"/><path fill="#d9cec1" d="M100 0h100v100H100z"/><path fill="#b2c6c1" d="M200 0h100v100H200z"/><path fill="#bfc3bb" d="M300 0h100v100H300z"/><path fill="#bec3bb" d="M400 0h100v100H400z"/><path fill="#bcbfb5" d="M500 0h100v100H500z"/><path fill="#b3c2ba" d="M600 0h100v100H600z"/><path fill="#d6d1c6" d="M700 0h100v100H700z"/><path fill="#dbc3b6" d="M0 100h100v100H0z"/><path fill="#a0846e" d="M100 100h100v100H100z"/><path fill="#52a1aa" d="M200 100h100v100H200z"/><path fill="#a79d94" d="M300 100h100v100H300z"/><path fill="#b0aca5" d="M400 100h100v100H400z"/><path fill="#a89e95" d="M500 100h100v100H500z"/><path fill="#6a9d9e" d="M600 100h100v100H600z"/><path fill="#b5c29f" d="M700 100h100v100H700z"/><path fill="#c79f8d" d="M0 200h100v100H0z"/><path fill="#b37d63" d="M100 200h100v100H100z"/><path fill="#8e9b87" d="M200 200h100v100H200z"/><path fill="#998f85" d="M300 200h100v100H300z"/><path fill="#ae9e9a" d="M400 200h100v100H400z"/><path fill="#b69083" d="M500 200h100v100H500z"/><path fill="#838064" d="M600 200h100v100H600z"/><path fill="#bba37b" d="M700 200h100v100H700z"/><path fill="#b57051" d="M0 300h100v100H0z"/><path fill="#b96f42" d="M100 300h100v100H100z"/><path fill="#c09862" d="M200 300h100v100H200z"/><path fill="#b77c47" d="M300 300h100v100H300z"/><path fill="#be7851" d="M400 300h100v100H400z"/><path fill="#b8896e" d="M500 300h100v100H500z"/><path fill="#ae9e7e" d="M600 300h100v100H600z"/><path fill="#949a5a" d="M700 300h100v100H700z"/><path fill="#bb6c35" d="M0 400h100v100H0z"/><path fill="#b38c69" d="M100 400h100v100H100z"/><path fill="#bfacc5" d="M200 400h100v100H200z"/><path fill="#cbb1c4" d="M300 400h100v100H300z"/><path fill="#bca89c" d="M400 400h100v100H400z"/><path fill="#ddba6a" d="M500 400h100v100H500z"/><path fill="#ddb651" d="M600 400h100v100H600z"/><path fill="#a3a775" d="M700 400h100v100H700z"/><path fill="#e2ceae" d="M0 500h100v100H0z"/><path fill="#d8c9bd" d="M100 500h100v100H100z"/><path fill="#ddc5c7" d="M200 500h100v100H200z"/><path fill="#ddcdd4" d="M300 500h100v100H300z"/><path fill="#d1c5c0" d="M400 500h100v100H400z"/><path fill="#e6d2a5" d="M500 500h100v100H500z"/><path fill="#e9d2a1" d="M600 500h100v100H600z"/><path fill="#e1cabf" d="M700 500h100v100H700z"/></svg>