<svg xmlns="http://www.w3.org/2000/svg" viewBox="0 0 800 800"><defs/><path fill="#c7c2b5" d="M0 0h100v100H0z"/><path fill="#bfb2a7" d="M100 0h100v100H100z"/><path fill="#ebc8a5" d="M200 0h100v100H200z"/><path fill="#eac7ac" d="M300 0h100v100H300z"/><path fill="#e1bca5" d="M400 0h100v100H400z"/><path fill="#e6cbb5" d="M500 0h100v100H500z"/><path fill="#dcb3a3" d="M600 0h100v100H600z"/><path fill="#edcebc" d="M700 0h100v100H700z"/><path fill="#b8b1a1" d="M0 100h100v100H0z"/><path fill="#b49e88" d="M100 100h100v100H100z"/><path fill="#dfbf9f" d="M200 100h100v100H200z"/><path fill="#788a8a" d="M300 100h100v100H300z"/><path fill="#b6a995" d="M400 100h100v100H400z"/><path fill="#dfaa9e" d="M500 100h100v100H500z"/><path fill="#c1837e" d="M600 100h100v100H600z"/><path fill="#c3aba9" d="M700 100h100v100H700z"/><path fill="#d9bfa3" d="M0 200h100v100H0z"/><path fill="#bdab8a" d="M100 200h100v100H100z"/><path fill="#a09f97" d="M200 200h100v100H200z"/><path fill="#ac9f96" d="M300 200h100v100H300z"/><path fill="#b7988e" d="M400 200h100v100H400z"/><path fill="#b2ac94" d="M500 200h100v100H500z"/><path fill="#c6b796" d="M600 200h100v100H600z"/><path fill="#d5c5b6" d="M700 200h100v100H700z"/><path fill="#c69f95" d="M0 300h100v100H0z"/><path fill="#8e9698" d="M100 300h100v100H100z"/><path fill="#658a9f" d="M200 300h100v100H200z"/><path fill="#dbbbac" d="M300 300h100v100H300z"/><path fill="#e9ac92" d="M400 300h100v100H400z"/><path fill="#b1652f" d="M500 300h100v100H500z"/><path fill="#a48366" d="M600 300h100v100H600z"/><path fill="#d8cabb" d="M700 300h100v100H700z"/><path fill="#b59293" d="M0 400h100v100H0z"/><path fill="#bf907a" d="M100 400h100v100H100z"/><path fill="#bea68f" d="M200 400h100v100H200z"/><path fill="#e4c0a6" d="M300 400h100v100H300z"/><path fill="#eec2a2" d="M400 400h100v100H400z"/><path fill="#cc9078" d="M500 400h100v100H500z"/><path fill="#916b5d" d="M600 400h100v100H600z"/><path fill="#c6b9aa" d="M700 400h100v100H700z"/><path fill="#e1c3ac" d="M0 500h100v100H0z"/><path fill="#afa295" d="M100 500h100v100H100z"/><path fill="#6f7d7d" d="M200 500h100v100H200z"/><path fill="#665953" d="M300 500h100v100H300z"/><path fill="#b5a884" d="M400 500h100v100H400z"/><path fill="#c19b80" d="M500 500h100v100H500z"/><path fill="#c7a192" d="M600 500h100v100H600z"/><path fill="#d9c7b5" d="M700 500h100v100H700z"/><path fill="#d6b59d" d="M0 600h100v100H0z"/><path fill="#d4aa91" d="M100 600h100v100H100z"/><path fill="#a38775" d="M200 600h100v100H200z"/><path fill="#6e594d" d="M300 600h100v100H300z"/><path fill="#8d7e6b" d="M400 600h100v100H400z"/><path fill="#8a7565" d="M500 600h100v100H500z"/><path fill="#a7897a" d="M600 600h100v100H600z"/><path fill="#d1bcad" d="M700 600h100v100H700z"/><path fill="#c6a590" d="M0 700h100v100H0z"/><path fill="#ca9f84" d="M100 700h100v100H100z"/><path fill="#dcaf91" d="M200 700h100v100H200z"/><path fill="#e5ba9c" d="M300 700h100v100H300z"/><path fill="#d7b09a" d="M400 700h100v100H400z"/><path fill="#dcb7a1" d="M500 700h100v100H500z"/><path fill="#d6b19a" d="M600 700h100v100H600z"/><path fill="#d0b9aa" d="M700 700h100v100H700z"/></svg>