<svg xmlns="http://www.w3.org/2000/svg" viewBox="0 0 800 1100"><defs/><path fill="#ccb4b4" d="M0 0h100v100H0z"/><path fill="#baa6a0" d="M100 0h100v100H100z"/><path fill="#d6aeb3" d="M200 0h100v100H200z"/><path fill="#eee0e4" d="M300 0h100v100H300z"/><path fill="#e4d5cd" d="M400 0h100v100H400z"/><path fill="#e2d1cc" d="M500 0h100v100H500z"/><path fill="#ede3df" d="M600 0h100v100H600z"/><path fill="#e3d4cc" d="M700 0h100v100H700z"/><path fill="#d2bbb3" d="M0 100h100v100H0z"/><path fill="#b9977c" d="M100 100h100v100H100z"/><path fill="#dcbdb3" d="M200 100h100v100H200z"/><path fill="#d7beaf" d="M300 100h100v100H300z"/><path fill="#fbf7f5" d="M400 100h100v100H400z"/><path fill="#cfbfb9" d="M500 100h100v100H500z"/><path fill="#b49b8f" d="M600 100h100v100H600z"/><path fill="#eedfd4" d="M700 100h100v100H700z"/><path fill="#e7e5e3" d="M0 200h100v100H0z"/><path fill="#c1c1c1" d="M100 200h100v100H100z"/><path fill="#c3af9b" d="M200 200h100v100H200z"/><path fill="#ae8663" d="M300 200h100v100H300z"/><path fill="#f3f0ed" d="M400 200h100v100H400z"/><path fill="#e3dbd7" d="M500 200h100v100H500z"/><path fill="#c9b4a4" d="M600 200h100v100H600z"/><path fill="#f8ede2" d="M700 200h100v100H700z"/><path fill="#c3bdb5" d="M0 300h100v100H0z"/><path fill="#8b8582" d="M100 300h100v100H100z"/><path fill="#cbbeb7" d="M200 300h100v100H200z"/><path fill="#ac805f" d="M300 300h100v100H300z"/><path fill="#a2836f" d="M400 300h100v100H400z"/><path fill="#d7d3d5" d="M500 300h100v100H500z"/><path fill="#e6d8cb" d="M600 300h100v100H600z"/><path fill="#f5f2ef" d="M700 300h100v100H700z"/><path fill="#b8ab9e" d="M0 400h100v100H0z"/><path fill="#ad9583" d="M100 400h100v100H100z"/><path fill="#cabdb1" d="M200 400h100v100H200z"/><path fill="#cebca6" d="M300 400h100v100H300z"/><path fill="#d2c1b2" d="M400 400h100v100H400z"/><path fill="#ada199" d="M500 400h100v100H500z"/><path fill="#bc9774" d="M600 400h100v100H600z"/><path fill="#e5d8c5" d="M700 400h100v100H700z"/><path fill="#e0dfd8" d="M0 500h100v100H0z"/><path fill="#edeae0" d="M100 500h100v100H100z"/><path fill="#edebe4" d="M200 500h100v100H200z"/><path fill="#b4a797" d="M300 500h100v100H300z"/><path fill="#c4b19d" d="M400 500h100v100H400z"/><path fill="#dbceb9" d="M500 500h100v100H500z"/><path fill="#b99c7e" d="M600 500h100v100H600z"/><path fill="#e2d1ba" d="M700 500h100v100H700z"/><path fill="#c0aa8f" d="M0 600h100v100H0z"/><path fill="#c7a787" d="M100 600h100v100H100z"/><path fill="#cab196" d="M200 600h100v100H200z"/><path fill="#897362" d="M300 600h100v100H300z"/><path fill="#ad9581" d="M400 600h100v100H400z"/><path fill="#ece5d4" d="M500 600h100v100H500z"/><path fill="#e9e2d4" d="M600 600h100v100H600z"/><path fill="#f5f1e5" d="M700 600h100v100H700z"/><path fill="#ccc1b9" d="M0 700h100v100H0z"/><path fill="#b28f74" d="M100 700h100v100H100z"/><path fill="#b3937d" d="M200 700h100v100H200z"/><path fill="#beafa2" d="M300 700h100v100H300z"/><path fill="#d8c6b2" d="M400 700h100v100H400z"/><path fill="#c7c7ca" d="M500 700h100v100H500z"/><path fill="#bbb2a7" d="M600 700h100v100H600z"/><path fill="#e9e0ce" d="M700 700h100v100H700z"/><path fill="#d7d8db" d="M0 800h100v100H0z"/><path fill="#e0e1df" d="M100 800h100v100H100z"/><path fill="#dbdbe2" d="M200 800h100v100H200z"/><path fill="#d7d1ed" d="M300 800h100v100H300z"/><path fill="#d7d1f6" d="M400 800h100v100H400z"/><path fill="#acadcc" d="M500 800h100v100H500z"/><path fill="#5d5856" d="M600 800h100v100H600z"/><path fill="#dad4ca" d="M700 800h100v100H700z"/><path fill="#8f868e" d="M0 900h100v100H0z"/><path fill="#9c9ca2" d="M100 900h100v100H100z"/><path fill="#a28eb3" d="M200 900h100v100H200z"/><path fill="#dd95cb" d="M300 900h100v100H300z"/><path fill="#aaa0c0" d="M400 900h100v100H400z"/><path fill="#57678e" d="M500 900h100v100H500z"/><path fill="#55514d" d="M600 900h100v100H600z"/><path fill="#fcf7e7" d="M700 900h100v100H700z"/><path fill="#121832" d="M0 1000h100v100H0z"/><path fill="#1c2548" d="M100 1000h100v100H100z"/><path fill="#1a224a" d="M200 1000h100v100H200z"/><path fill="#594549" d="M300 1000h100v100H300z"/><path fill="#272b39" d="M400 1000h100v100H400z"/><path fill="#171e37" d="M500 1000h100v100H500z"/><path fill="#66605b" d="M600 1000h100v100H600z"/><path fill="#f0e3c6" d="M700 1000h100v100H700z"/></svg>