<svg xmlns="http://www.w3.org/2000/svg" viewBox="0 0 800 400"><defs/><path fill="#dcdad7" d="M0 0h100v100H0z"/><path fill="#878386" d="M100 0h100v100H100z"/><path fill="#747ea6" d="M200 0h100v100H200z"/><path fill="#979baf" d="M300 0h100v100H300z"/><path fill="#92959f" d="M400 0h100v100H400z"/><path fill="#a4a6bd" d="M500 0h100v100H500z"/><path fill="#79799c" d="M600 0h100v100H600z"/><path fill="#7d7e7c" d="M700 0h100v100H700z"/><path fill="#dcd4d1" d="M0 100h100v100H0z"/><path fill="#a48c8f" d="M100 100h100v100H100z"/><path fill="#9ba7c2" d="M200 100h100v100H200z"/><path fill="#b4abb7" d="M300 100h100v100H300z"/><path fill="#9fbba4" d="M400 100h100v100H400z"/><path fill="#819f92" d="M500 100h100v100H500z"/><path fill="#a99fbb" d="M600 100h100v100H600z"/><path fill="#a0a6a4" d="M700 100h100v100H700z"/><path fill="#b1afac" d="M0 200h100v100H0z"/><path fill="#634a3d" d="M100 200h100v100H100z"/><path fill="#8f584f" d="M200 200h100v100H200z"/><path fill="#684842" d="M300 200h100v100H300z"/><path fill="#976e57" d="M400 200h100v100H400z"/><path fill="#9a7a59" d="M500 200h100v100H500z"/><path fill="#898270" d="M600 200h100v100H600z"/><path fill="#7c7069" d="M700 200h100v100H700z"/><path fill="#ab8d85" d="M0 300h100v100H0z"/><path fill="#8e3f2a" d="M100 300h100v100H100z"/><path fill="#c2361b" d="M200 300h100v100H200z"/><path fill="#963c20" d="M300 300h100v100H300z"/><path fill="#c8683a" d="M400 300h100v100H400z"/><path fill="#b75635" d="M500 300h100v100H500z"/><path fill="#924628" d="M600 300h100v100H600z"/><path fill="#742d1c" d="M700 300h100v100H700z"/></svg>