<svg xmlns="http://www.w3.org/2000/svg" viewBox="0 0 800 400"><defs/><path fill="#8f8279" d="M0 0h100v100H0z"/><path fill="#6c5141" d="M100 0h100v100H100z"/><path fill="#838b87" d="M200 0h100v100H200z"/><path fill="#a1a4a2" d="M300 0h100v100H300z"/><path fill="#92979f" d="M400 0h100v100H400z"/><path fill="#6c5e82" d="M500 0h100v100H500z"/><path fill="#9c8da2" d="M600 0h100v100H600z"/><path fill="#9faea6" d="M700 0h100v100H700z"/><path fill="#8b746a" d="M0 100h100v100H0z"/><path fill="#7a5b4a" d="M100 100h100v100H100z"/><path fill="#8c8987" d="M200 100h100v100H200z"/><path fill="#6f6d74" d="M300 100h100v100H300z"/><path fill="#7e706a" d="M400 100h100v100H400z"/><path fill="#948a52" d="M500 100h100v100H500z"/><path fill="#949fa1" d="M600 100h100v100H600z"/><path fill="#a6b7a6" d="M700 100h100v100H700z"/><path fill="#7d685c" d="M0 200h100v100H0z"/><path fill="#684e43" d="M100 200h100v100H100z"/><path fill="#837474" d="M200 200h100v100H200z"/><path fill="#757270" d="M300 200h100v100H300z"/><path fill="#816759" d="M400 200h100v100H400z"/><path fill="#966650" d="M500 200h100v100H500z"/><path fill="#6c5b7f" d="M600 200h100v100H600z"/><path fill="#9fa2ac" d="M700 200h100v100H700z"/><path fill="#6a4b36" d="M0 300h100v100H0z"/><path fill="#74635a" d="M100 300h100v100H100z"/><path fill="#908e94" d="M200 300h100v100H200z"/><path fill="#9e9697" d="M300 300h100v100H300z"/><path fill="#78727c" d="M400 300h100v100H400z"/><path fill="#7d8592" d="M500 300h100v100H500z"/><path fill="#917c9b" d="M600 300h100v100H600z"/><path fill="#a8a3b4" d="M700 300h100v100H700z"/></svg>