<svg xmlns="http://www.w3.org/2000/svg" viewBox="0 0 800 400"><defs/><path fill="#94868d" d="M0 0h100v100H0z"/><path fill="#554b53" d="M100 0h100v100H100z"/><path fill="#66585f" d="M200 0h100v100H200z"/><path fill="#b39fa5" d="M300 0h100v100H300z"/><path fill="#cbb8be" d="M400 0h100v100H400z"/><path fill="#cab9bf" d="M500 0h100v100H500z"/><path fill="#a08f93" d="M600 0h100v100H600z"/><path fill="#d3beaf" d="M700 0h100v100H700z"/><path fill="#7f7179" d="M0 100h100v100H0z"/><path fill="#3c3139" d="M100 100h100v100H100z"/><path fill="#3d3037" d="M200 100h100v100H200z"/><path fill="#b69da5" d="M300 100h100v100H300z"/><path fill="#fee2ea" d="M400 100h100v100H400z"/><path fill="#fadfe9" d="M500 100h100v100H500z"/><path fill="#8c7479" d="M600 100h100v100H600z"/><path fill="#c6af9c" d="M700 100h100v100H700z"/><path fill="#676069" d="M0 200h100v100H0z"/><path fill="#392d35" d="M100 200h100v100H100z"/><path fill="#645051" d="M200 200h100v100H200z"/><path fill="#8e7776" d="M300 200h100v100H300z"/><path fill="#b8a09e" d="M400 200h100v100H400z"/><path fill="#d3bbb8" d="M500 200h100v100H500z"/><path fill="#97817a" d="M600 200h100v100H600z"/><path fill="#a28d84" d="M700 200h100v100H700z"/><path fill="#837679" d="M0 300h100v100H0z"/><path fill="#6b5551" d="M100 300h100v100H100z"/><path fill="#9f7b6f" d="M200 300h100v100H200z"/><path fill="#a59085" d="M300 300h100v100H300z"/><path fill="#ad9c8e" d="M400 300h100v100H400z"/><path fill="#a78e81" d="M500 300h100v100H500z"/><path fill="#b19584" d="M600 300h100v100H600z"/><path fill="#887773" d="M700 300h100v100H700z"/></svg>