<svg xmlns="http://www.w3.org/2000/svg" viewBox="0 0 800 500"><defs/><path fill="#70837d" d="M0 0h100v100H0z"/><path fill="#c2c4c0" d="M100 0h100v100H100z"/><path fill="#b4b9b5" d="M200 0h100v100H200z"/><path fill="#babdba" d="M300 0h100v100H300z"/><path fill="#c7c8c6" d="M400 0h100v100H400z"/><path fill="#cacac8" d="M500 0h100v100H500z"/><path fill="#dfdedb" d="M600 0h100v100H600z"/><path fill="#90a09e" d="M700 0h100v100H700z"/><path fill="#6c8380" d="M0 100h100v100H0z"/><path fill="#cfc5c4" d="M100 100h100v100H100z"/><path fill="#bcb7b6" d="M200 100h100v100H200z"/><path fill="#a4a2a5" d="M300 100h100v100H300z"/><path fill="#d2cdcc" d="M400 100h100v100H400z"/><path fill="#c1bfc0" d="M500 100h100v100H500z"/><path fill="#f9edec" d="M600 100h100v100H600z"/><path fill="#a4bbb7" d="M700 100h100v100H700z"/><path fill="#728885" d="M0 200h100v100H0z"/><path fill="#c5c0bf" d="M100 200h100v100H100z"/><path fill="#c6c3c2" d="M200 200h100v100H200z"/><path fill="#bbbabb" d="M300 200h100v100H300z"/><path fill="#bfbdbf" d="M400 200h100v100H400z"/><path fill="#d0cdce" d="M500 200h100v100H500z"/><path fill="#eee4e5" d="M600 200h100v100H600z"/><path fill="#a5bdba" d="M700 200h100v100H700z"/><path fill="#778b88" d="M0 300h100v100H0z"/><path fill="#b7b0b1" d="M100 300h100v100H100z"/><path fill="#cbc6c6" d="M200 300h100v100H200z"/><path fill="#ede5e5" d="M300 300h100v100H300z"/><path fill="#ede6e5" d="M400 300h100v100H400z"/><path fill="#ece5e6" d="M500 300h100v100H500z"/><path fill="#ebe0e2" d="M600 300h100v100H600z"/><path fill="#aec1bf" d="M700 300h100v100H700z"/><path fill="#5a726f" d="M0 400h100v100H0z"/><path fill="#a2a8a6" d="M100 400h100v100H100z"/><path fill="#afb9b7" d="M200 400h100v100H200z"/><path fill="#b5c1bf" d="M300 400h100v100H300z"/><path fill="#b6c4c2" d="M400 400h100v100H400z"/><path fill="#b9c6c5" d="M500 400h100v100H500z"/><path fill="#c2cbcb" d="M600 400h100v100H600z"/><path fill="#9bb8b5" d="M700 400h100v100H700z"/></svg>