<svg xmlns="http://www.w3.org/2000/svg" viewBox="0 0 800 500"><defs/><path fill="#ac8d6f" d="M0 0h100v100H0z"/><path fill="#6a5c74" d="M100 0h100v100H100z"/><path fill="#855d42" d="M200 0h100v100H200z"/><path fill="#6f5d5d" d="M300 0h100v100H300z"/><path fill="#988b6f" d="M400 0h100v100H400z"/><path fill="#82798b" d="M500 0h100v100H500z"/><path fill="#8c8885" d="M600 0h100v100H600z"/><path fill="#a74748" d="M700 0h100v100H700z"/><path fill="#a17b42" d="M0 100h100v100H0z"/><path fill="#325" d="M100 100h100v100H100z"/><path fill="#491d25" d="M200 100h100v100H200z"/><path fill="#5b4623" d="M300 100h100v100H300z"/><path fill="#917c63" d="M400 100h100v100H400z"/><path fill="#141499" d="M500 100h100v100H500z"/><path fill="#847f91" d="M600 100h100v100H600z"/><path fill="#960700" d="M700 100h100v100H700z"/><path fill="#816b61" d="M0 200h100v100H0z"/><path fill="#403969" d="M100 200h100v100H100z"/><path fill="#673826" d="M200 200h100v100H200z"/><path fill="#765219" d="M300 200h100v100H300z"/><path fill="#9b8e33" d="M400 200h100v100H400z"/><path fill="#524431" d="M500 200h100v100H500z"/><path fill="#6e6a54" d="M600 200h100v100H600z"/><path fill="#6a1b43" d="M700 200h100v100H700z"/><path fill="#684f61" d="M0 300h100v100H0z"/><path fill="#3d2b65" d="M100 300h100v100H100z"/><path fill="#5a4834" d="M200 300h100v100H200z"/><path fill="#261a6b" d="M300 300h100v100H300z"/><path fill="#473c49" d="M400 300h100v100H400z"/><path fill="#55483b" d="M500 300h100v100H500z"/><path fill="#473b3a" d="M600 300h100v100H600z"/><path fill="#673b59" d="M700 300h100v100H700z"/><path fill="#645f86" d="M0 400h100v100H0z"/><path fill="#4e3566" d="M100 400h100v100H100z"/><path fill="#705850" d="M200 400h100v100H200z"/><path fill="#3426a5" d="M300 400h100v100H300z"/><path fill="#4a3ea1" d="M400 400h100v100H400z"/><path fill="#3c2c98" d="M500 400h100v100H500z"/><path fill="#46366b" d="M600 400h100v100H600z"/><path fill="#6a5049" d="M700 400h100v100H700z"/></svg>