<svg xmlns="http://www.w3.org/2000/svg" viewBox="0 0 800 400"><defs/><path fill="#fbfbfb" d="M0 0h100v100H0z"/><path fill="#e3e3e3" d="M100 0h100v100H100z"/><path fill="#e5e5e5" d="M200 0h100v100H200z"/><path fill="#ddd" d="M300 0h100v100H300z"/><path fill="#f0f0f0" d="M400 0h100v100H400z"/><path fill="#f9f9f9" d="M500 0h100v100H500z"/><path fill="#d4d4d4" d="M600 0h100v100H600z"/><path fill="#cecece" d="M700 0h100v100H700z"/><path fill="#f5f5f5" d="M0 100h100v100H0z"/><path fill="#ddd" d="M100 100h100v100H100z"/><path fill="#dbdbdb" d="M200 100h100v100H200z"/><path fill="#e5e5e5" d="M300 100h100v100H300z"/><path fill="#f2f2f2" d="M400 100h100v100H400z"/><path fill="#eee" d="M500 100h100v100H500z"/><path fill="#cecece" d="M600 100h100v100H600zm100 0h100v100H700z"/><path fill="#efefef" d="M0 200h100v100H0z"/><path fill="#e3e3e3" d="M100 200h100v100H100z"/><path fill="#efefef" d="M200 200h100v100H200z"/><path fill="#e7e7e7" d="M300 200h100v100H300z"/><path fill="#e2e2e2" d="M400 200h100v100H400z"/><path fill="#d9d9d9" d="M500 200h100v100H500z"/><path fill="#d6d6d6" d="M600 200h100v100H600z"/><path fill="#d2d2d2" d="M700 200h100v100H700z"/><path fill="#ebebeb" d="M0 300h100v100H0z"/><path fill="#f2f2f2" d="M100 300h100v100H100z"/><path fill="#fff" d="M200 300h100v100H200z"/><path fill="#f8f8f8" d="M300 300h100v100H300z"/><path fill="#f4f4f4" d="M400 300h100v100H400z"/><path fill="#f5f5f5" d="M500 300h100v100H500z"/><path fill="#e9e9e9" d="M600 300h100v100H600z"/><path fill="#e4e4e4" d="M700 300h100v100H700z"/></svg>