<svg xmlns="http://www.w3.org/2000/svg" viewBox="0 0 800 600"><defs/><path fill="#796b50" d="M0 0h100v100H0z"/><path fill="#8c7363" d="M100 0h100v100H100z"/><path fill="#a68f7b" d="M200 0h100v100H200z"/><path fill="#927d74" d="M300 0h100v100H300z"/><path fill="#83796e" d="M400 0h100v100H400z"/><path fill="#747166" d="M500 0h100v100H500z"/><path fill="#957d77" d="M600 0h100v100H600z"/><path fill="#756850" d="M700 0h100v100H700z"/><path fill="#97885d" d="M0 100h100v100H0z"/><path fill="#ac8f79" d="M100 100h100v100H100z"/><path fill="#bb9f88" d="M200 100h100v100H200z"/><path fill="#bd9c89" d="M300 100h100v100H300z"/><path fill="#bfb09f" d="M400 100h100v100H400z"/><path fill="#86967d" d="M500 100h100v100H500z"/><path fill="#818b72" d="M600 100h100v100H600z"/><path fill="#746752" d="M700 100h100v100H700z"/><path fill="#ac9c77" d="M0 200h100v100H0z"/><path fill="#ae8e6e" d="M100 200h100v100H100z"/><path fill="#be9f7f" d="M200 200h100v100H200z"/><path fill="#af867c" d="M300 200h100v100H300z"/><path fill="#b18e89" d="M400 200h100v100H400z"/><path fill="#8b8c74" d="M500 200h100v100H500z"/><path fill="#5a745c" d="M600 200h100v100H600z"/><path fill="#7d7059" d="M700 200h100v100H700z"/><path fill="#7f884d" d="M0 300h100v100H0z"/><path fill="#8f7668" d="M100 300h100v100H100z"/><path fill="#b29e83" d="M200 300h100v100H200z"/><path fill="#a3716a" d="M300 300h100v100H300z"/><path fill="#976260" d="M400 300h100v100H400z"/><path fill="#696e50" d="M500 300h100v100H500z"/><path fill="#62584c" d="M600 300h100v100H600z"/><path fill="#7d6964" d="M700 300h100v100H700z"/><path fill="#4b683d" d="M0 400h100v100H0z"/><path fill="#8a5e38" d="M100 400h100v100H100z"/><path fill="#cf8b4b" d="M200 400h100v100H200z"/><path fill="#b78253" d="M300 400h100v100H300z"/><path fill="#a49076" d="M400 400h100v100H400z"/><path fill="#808b5c" d="M500 400h100v100H500z"/><path fill="#5b6e55" d="M600 400h100v100H600z"/><path fill="#52474c" d="M700 400h100v100H700z"/><path fill="#3b4a2f" d="M0 500h100v100H0z"/><path fill="#975c2a" d="M100 500h100v100H100z"/><path fill="#a15514" d="M200 500h100v100H200z"/><path fill="#966434" d="M300 500h100v100H300z"/><path fill="#7e755f" d="M400 500h100v100H400z"/><path fill="#8e7053" d="M500 500h100v100H500z"/><path fill="#785e4f" d="M600 500h100v100H600z"/><path fill="#283633" d="M700 500h100v100H700z"/></svg>