<svg xmlns="http://www.w3.org/2000/svg" viewBox="0 0 800 400"><defs/><path fill="#5e4d3c" d="M0 0h100v100H0z"/><path fill="#453930" d="M100 0h100v100H100z"/><path fill="#60534a" d="M200 0h100v100H200z"/><path fill="#735c4b" d="M300 0h100v100H300z"/><path fill="#6f6356" d="M400 0h100v100H400z"/><path fill="#3d342d" d="M500 0h100v100H500z"/><path fill="#363636" d="M600 0h100v100H600z"/><path fill="#456488" d="M700 0h100v100H700z"/><path fill="#675643" d="M0 100h100v100H0z"/><path fill="#796d58" d="M100 100h100v100H100z"/><path fill="#3d4248" d="M200 100h100v100H200z"/><path fill="#545046" d="M300 100h100v100H300z"/><path fill="#48453b" d="M400 100h100v100H400z"/><path fill="#44423c" d="M500 100h100v100H500z"/><path fill="#31322e" d="M600 100h100v100H600z"/><path fill="#444232" d="M700 100h100v100H700z"/><path fill="#73614c" d="M0 200h100v100H0z"/><path fill="#91845d" d="M100 200h100v100H100z"/><path fill="#5b563b" d="M200 200h100v100H200z"/><path fill="#4f3633" d="M300 200h100v100H300z"/><path fill="#522834" d="M400 200h100v100H400z"/><path fill="#623740" d="M500 200h100v100H500z"/><path fill="#4a2c32" d="M600 200h100v100H600z"/><path fill="#57493c" d="M700 200h100v100H700z"/><path fill="#7a664e" d="M0 300h100v100H0z"/><path fill="#695645" d="M100 300h100v100H100z"/><path fill="#776956" d="M200 300h100v100H200z"/><path fill="#5a2f3b" d="M300 300h100v100H300z"/><path fill="#611836" d="M400 300h100v100H400z"/><path fill="#601633" d="M500 300h100v100H500z"/><path fill="#6e353f" d="M600 300h100v100H600z"/><path fill="#5e524a" d="M700 300h100v100H700z"/></svg>