<svg xmlns="http://www.w3.org/2000/svg" viewBox="0 0 800 600"><defs/><path fill="#fefefe" d="M0 0h100v100H0z"/><path fill="#fdfdfc" d="M100 0h100v100H100z"/><path fill="#fffffe" d="M200 0h100v100H200z"/><path fill="#fff" d="M300 0h100v100H300z"/><path fill="#e9dfbe" d="M400 0h100v100H400z"/><path fill="#f0ecdc" d="M500 0h100v100H500z"/><path fill="#fff" d="M600 0h100v100H600z"/><path fill="#fefefe" d="M700 0h100v100H700z"/><path fill="#fffffe" d="M0 100h100v100H0z"/><path fill="#fff" d="M100 100h100v100H100z"/><path fill="#f3f3f1" d="M200 100h100v100H200z"/><path fill="#d1cab2" d="M300 100h100v100H300z"/><path fill="#957f38" d="M400 100h100v100H400z"/><path fill="#9b8a51" d="M500 100h100v100H500z"/><path fill="#cec8b2" d="M600 100h100v100H600z"/><path fill="#f9f8f7" d="M700 100h100v100H700z"/><path fill="#faf9f7" d="M0 200h100v100H0z"/><path fill="#bdb28e" d="M100 200h100v100H100z"/><path fill="#907e3f" d="M200 200h100v100H200z"/><path fill="#877331" d="M300 200h100v100H300z"/><path fill="#917a2f" d="M400 200h100v100H400z"/><path fill="#a98e35" d="M500 200h100v100H500z"/><path fill="#99802f" d="M600 200h100v100H600z"/><path fill="#afa06e" d="M700 200h100v100H700z"/><path fill="#d3cbae" d="M0 300h100v100H0z"/><path fill="#826c21" d="M100 300h100v100H100z"/><path fill="#8e782e" d="M200 300h100v100H200z"/><path fill="#8a7328" d="M300 300h100v100H300z"/><path fill="#8a7223" d="M400 300h100v100H400z"/><path fill="#bcac78" d="M500 300h100v100H500z"/><path fill="#e4dfcd" d="M600 300h100v100H600z"/><path fill="#d1c9af" d="M700 300h100v100H700z"/><path fill="#cdc4aa" d="M0 400h100v100H0z"/><path fill="#8d7527" d="M100 400h100v100H100z"/><path fill="#7d671d" d="M200 400h100v100H200z"/><path fill="#948044" d="M300 400h100v100H300z"/><path fill="#d2ccb5" d="M400 400h100v100H400z"/><path fill="#fdfefe" d="M500 400h100v100H500z"/><path fill="#fff" d="M600 400h100v100H600zm100 0h100v100H700zM0 500h100v100H0z"/><path fill="#d6d0b9" d="M100 500h100v100H100z"/><path fill="#b9ad85" d="M200 500h100v100H200z"/><path fill="#f5f3ee" d="M300 500h100v100H300z"/><path fill="#fff" d="M400 500h100v100H400z"/><path fill="#fefefc" d="M500 500h100v100H500z"/><path fill="#fefdfc" d="M600 500h100v100H600z"/><path fill="#fdfdfd" d="M700 500h100v100H700z"/></svg>