<svg xmlns="http://www.w3.org/2000/svg" viewBox="0 0 800 700"><defs/><path fill="#d9d5d1" d="M0 0h100v100H0z"/><path fill="#d5bda7" d="M100 0h100v100H100z"/><path fill="#cfc2b6" d="M200 0h100v100H200z"/><path fill="#ede8de" d="M300 0h100v100H300z"/><path fill="#dfdad3" d="M400 0h100v100H400z"/><path fill="#e4dfd5" d="M500 0h100v100H500z"/><path fill="#dfded3" d="M600 0h100v100H600z"/><path fill="#d7d4d0" d="M700 0h100v100H700z"/><path fill="#b79f78" d="M0 100h100v100H0z"/><path fill="#925a31" d="M100 100h100v100H100z"/><path fill="#857354" d="M200 100h100v100H200z"/><path fill="#d6cbb3" d="M300 100h100v100H300z"/><path fill="#48567e" d="M400 100h100v100H400z"/><path fill="#9b9ba3" d="M500 100h100v100H500z"/><path fill="#919579" d="M600 100h100v100H600z"/><path fill="#6c654e" d="M700 100h100v100H700z"/><path fill="#bea27f" d="M0 200h100v100H0z"/><path fill="#885c40" d="M100 200h100v100H100z"/><path fill="#898666" d="M200 200h100v100H200z"/><path fill="#b8a98d" d="M300 200h100v100H300z"/><path fill="#767684" d="M400 200h100v100H400z"/><path fill="#b6b4b9" d="M500 200h100v100H500z"/><path fill="#a0a18d" d="M600 200h100v100H600z"/><path fill="#6a5b44" d="M700 200h100v100H700z"/><path fill="#91795c" d="M0 300h100v100H0z"/><path fill="#79543b" d="M100 300h100v100H100z"/><path fill="#b2a188" d="M200 300h100v100H200z"/><path fill="#d3cbc3" d="M300 300h100v100H300z"/><path fill="#bda59a" d="M400 300h100v100H400z"/><path fill="#d2c1b5" d="M500 300h100v100H500z"/><path fill="#9b7c71" d="M600 300h100v100H600z"/><path fill="#725d52" d="M700 300h100v100H700z"/><path fill="#ad885a" d="M0 400h100v100H0z"/><path fill="#734a33" d="M100 400h100v100H100z"/><path fill="#8d5c4d" d="M200 400h100v100H200z"/><path fill="#9f8671" d="M300 400h100v100H300z"/><path fill="#9d5b52" d="M400 400h100v100H400z"/><path fill="#9e6453" d="M500 400h100v100H500z"/><path fill="#997854" d="M600 400h100v100H600z"/><path fill="#8d7157" d="M700 400h100v100H700z"/><path fill="#9e6c43" d="M0 500h100v100H0z"/><path fill="#763a24" d="M100 500h100v100H100z"/><path fill="#8e5940" d="M200 500h100v100H200z"/><path fill="#93735b" d="M300 500h100v100H300z"/><path fill="#a95b3b" d="M400 500h100v100H400z"/><path fill="#9c4632" d="M500 500h100v100H500z"/><path fill="#a1754a" d="M600 500h100v100H600z"/><path fill="#a7835c" d="M700 500h100v100H700z"/><path fill="#d3c1b9" d="M0 600h100v100H0z"/><path fill="#d5bdb6" d="M100 600h100v100H100z"/><path fill="#dbc7bc" d="M200 600h100v100H200z"/><path fill="#ddd1c7" d="M300 600h100v100H300z"/><path fill="#e7cfc0" d="M400 600h100v100H400z"/><path fill="#dccabc" d="M500 600h100v100H500z"/><path fill="#ded3c0" d="M600 600h100v100H600z"/><path fill="#d4c9bb" d="M700 600h100v100H700z"/></svg>