<svg xmlns="http://www.w3.org/2000/svg" viewBox="0 0 800 500"><defs/><path fill="#dcd5ce" d="M0 0h100v100H0z"/><path fill="#ab877d" d="M100 0h100v100H100z"/><path fill="#c6b1ae" d="M200 0h100v100H200z"/><path fill="#c5b1b6" d="M300 0h100v100H300z"/><path fill="#b69b9d" d="M400 0h100v100H400z"/><path fill="#c8b9be" d="M500 0h100v100H500z"/><path fill="#ddcdc0" d="M600 0h100v100H600z"/><path fill="#e5e1dd" d="M700 0h100v100H700z"/><path fill="#9d918f" d="M0 100h100v100H0z"/><path fill="#956861" d="M100 100h100v100H100z"/><path fill="#d9cecd" d="M200 100h100v100H200z"/><path fill="#a99fa3" d="M300 100h100v100H300z"/><path fill="#9b8890" d="M400 100h100v100H400z"/><path fill="#ae9ea1" d="M500 100h100v100H500z"/><path fill="#c0b9b1" d="M600 100h100v100H600z"/><path fill="#e7edef" d="M700 100h100v100H700z"/><path fill="#b5a5a0" d="M0 200h100v100H0z"/><path fill="#9c7069" d="M100 200h100v100H100z"/><path fill="#e0dad8" d="M200 200h100v100H200z"/><path fill="#ada9a7" d="M300 200h100v100H300z"/><path fill="#948a86" d="M400 200h100v100H400z"/><path fill="#7d5c56" d="M500 200h100v100H500z"/><path fill="#887871" d="M600 200h100v100H600z"/><path fill="#dbd6d3" d="M700 200h100v100H700z"/><path fill="#c4a6a0" d="M0 300h100v100H0z"/><path fill="#926a62" d="M100 300h100v100H100z"/><path fill="#bbaeb2" d="M200 300h100v100H200z"/><path fill="#a27a81" d="M300 300h100v100H300z"/><path fill="#a8888f" d="M400 300h100v100H400z"/><path fill="#ab9ca9" d="M500 300h100v100H500z"/><path fill="#ad9b9a" d="M600 300h100v100H600z"/><path fill="#c1ab93" d="M700 300h100v100H700z"/><path fill="#c9aca0" d="M0 400h100v100H0z"/><path fill="#b99e90" d="M100 400h100v100H100z"/><path fill="#bca2a1" d="M200 400h100v100H200z"/><path fill="#a5665f" d="M300 400h100v100H300z"/><path fill="#ad8280" d="M400 400h100v100H400z"/><path fill="#ccbfc3" d="M500 400h100v100H500z"/><path fill="#bfafb1" d="M600 400h100v100H600z"/><path fill="#b29d8f" d="M700 400h100v100H700z"/></svg>