<svg xmlns="http://www.w3.org/2000/svg" viewBox="0 0 800 500"><defs/><path fill="#fbfaf9" d="M0 0h100v100H0z"/><path fill="#eff0f0" d="M100 0h100v100H100z"/><path fill="#f8f4f3" d="M200 0h100v100H200z"/><path fill="#e9efe9" d="M300 0h100v100H300z"/><path fill="#e1ede7" d="M400 0h100v100H400z"/><path fill="#e6f2f1" d="M500 0h100v100H500z"/><path fill="#e3e8e8" d="M600 0h100v100H600z"/><path fill="#eceded" d="M700 0h100v100H700z"/><path fill="#eaeae8" d="M0 100h100v100H0z"/><path fill="#d3d9d7" d="M100 100h100v100H100z"/><path fill="#ebe8dd" d="M200 100h100v100H200z"/><path fill="#d7e3d9" d="M300 100h100v100H300z"/><path fill="#d2c5bf" d="M400 100h100v100H400z"/><path fill="#d8cfc8" d="M500 100h100v100H500z"/><path fill="#f0f0e9" d="M600 100h100v100H600z"/><path fill="#f9f3f0" d="M700 100h100v100H700z"/><path fill="#dbdddc" d="M0 200h100v100H0z"/><path fill="#d0d7d4" d="M100 200h100v100H100z"/><path fill="#caded2" d="M200 200h100v100H200z"/><path fill="#d5e3d3" d="M300 200h100v100H300z"/><path fill="#dddcd3" d="M400 200h100v100H400z"/><path fill="#d1b8b9" d="M500 200h100v100H500z"/><path fill="#d4e3da" d="M600 200h100v100H600z"/><path fill="#dae3da" d="M700 200h100v100H700z"/><path fill="#d7dae1" d="M0 300h100v100H0z"/><path fill="#cdd0c0" d="M100 300h100v100H100z"/><path fill="#bad7b3" d="M200 300h100v100H200z"/><path fill="#bfdbc7" d="M300 300h100v100H300z"/><path fill="#e3e6da" d="M400 300h100v100H400z"/><path fill="#d7d6a4" d="M500 300h100v100H500z"/><path fill="#a9d3a7" d="M600 300h100v100H600z"/><path fill="#d0e1d2" d="M700 300h100v100H700z"/><path fill="#dfe0d4" d="M0 400h100v100H0z"/><path fill="#d5ddab" d="M100 400h100v100H100z"/><path fill="#cfdfa8" d="M200 400h100v100H200z"/><path fill="#c4d9b5" d="M300 400h100v100H300z"/><path fill="#e8e8ae" d="M400 400h100v100H400z"/><path fill="#f5f69a" d="M500 400h100v100H500z"/><path fill="#d5e299" d="M600 400h100v100H600z"/><path fill="#ebedc1" d="M700 400h100v100H700z"/></svg>