<svg xmlns="http://www.w3.org/2000/svg" viewBox="0 0 800 500"><defs/><path fill="#374039" d="M0 0h100v100H0z"/><path fill="#3f442d" d="M100 0h100v100H100z"/><path fill="#484a37" d="M200 0h100v100H200z"/><path fill="#333532" d="M300 0h100v100H300z"/><path fill="#4c4b44" d="M400 0h100v100H400z"/><path fill="#4a4b54" d="M500 0h100v100H500z"/><path fill="#818080" d="M600 0h100v100H600z"/><path fill="#303132" d="M700 0h100v100H700z"/><path fill="#3a3b68" d="M0 100h100v100H0z"/><path fill="#4f3e50" d="M100 100h100v100H100z"/><path fill="#5b4446" d="M200 100h100v100H200z"/><path fill="#3c3855" d="M300 100h100v100H300z"/><path fill="#2c324d" d="M400 100h100v100H400z"/><path fill="#726e87" d="M500 100h100v100H500z"/><path fill="#eadfcd" d="M600 100h100v100H600z"/><path fill="#6d697c" d="M700 100h100v100H700z"/><path fill="#e5aec1" d="M0 200h100v100H0z"/><path fill="#e75663" d="M100 200h100v100H100z"/><path fill="#ff3746" d="M200 200h100v100H200z"/><path fill="#ca435b" d="M300 200h100v100H300z"/><path fill="#2c2547" d="M400 200h100v100H400z"/><path fill="#c66d61" d="M500 200h100v100H500z"/><path fill="#c55f41" d="M600 200h100v100H600z"/><path fill="#a27172" d="M700 200h100v100H700z"/><path fill="#998d5e" d="M0 300h100v100H0z"/><path fill="#a67367" d="M100 300h100v100H100z"/><path fill="#e37359" d="M200 300h100v100H200z"/><path fill="#d7604b" d="M300 300h100v100H300z"/><path fill="#826c61" d="M400 300h100v100H400z"/><path fill="#977d5c" d="M500 300h100v100H500z"/><path fill="#b3976a" d="M600 300h100v100H600z"/><path fill="#9d906a" d="M700 300h100v100H700z"/><path fill="#6e952f" d="M0 400h100v100H0z"/><path fill="#6c905d" d="M100 400h100v100H100z"/><path fill="#97995c" d="M200 400h100v100H200z"/><path fill="#987231" d="M300 400h100v100H300z"/><path fill="#778452" d="M400 400h100v100H400z"/><path fill="#68982f" d="M500 400h100v100H500z"/><path fill="#67a41d" d="M600 400h100v100H600z"/><path fill="#719438" d="M700 400h100v100H700z"/></svg>