<svg xmlns="http://www.w3.org/2000/svg" viewBox="0 0 800 500"><defs/><path fill="#e6dcdd" d="M0 0h100v100H0z"/><path fill="#d7cac9" d="M100 0h100v100H100z"/><path fill="#f6edca" d="M200 0h100v100H200z"/><path fill="#fffac9" d="M300 0h100v100H300z"/><path fill="#fcf7c9" d="M400 0h100v100H400z"/><path fill="#fdf4c8" d="M500 0h100v100H500z"/><path fill="#fdf6c9" d="M600 0h100v100H600z"/><path fill="#e7dcd8" d="M700 0h100v100H700z"/><path fill="#976c73" d="M0 100h100v100H0z"/><path fill="#71442c" d="M100 100h100v100H100z"/><path fill="#e4bb10" d="M200 100h100v100H200z"/><path fill="#e2b50e" d="M300 100h100v100H300z"/><path fill="#dab50f" d="M400 100h100v100H400z"/><path fill="#e1ba20" d="M500 100h100v100H500z"/><path fill="#e4b515" d="M600 100h100v100H600z"/><path fill="#9a684c" d="M700 100h100v100H700z"/><path fill="#936f75" d="M0 200h100v100H0z"/><path fill="#855527" d="M100 200h100v100H100z"/><path fill="#cea027" d="M200 200h100v100H200z"/><path fill="#966e32" d="M300 200h100v100H300z"/><path fill="#936a32" d="M400 200h100v100H400z"/><path fill="#c29232" d="M500 200h100v100H500z"/><path fill="#c59c40" d="M600 200h100v100H600z"/><path fill="#b2a255" d="M700 200h100v100H700z"/><path fill="#805d5b" d="M0 300h100v100H0z"/><path fill="#79401f" d="M100 300h100v100H100z"/><path fill="#af9159" d="M200 300h100v100H200z"/><path fill="#7b5938" d="M300 300h100v100H300z"/><path fill="#b46950" d="M400 300h100v100H400z"/><path fill="#cb6a43" d="M500 300h100v100H500z"/><path fill="#ebd0a0" d="M600 300h100v100H600z"/><path fill="#aa8965" d="M700 300h100v100H700z"/><path fill="#b8a29e" d="M0 400h100v100H0z"/><path fill="#9d7f7b" d="M100 400h100v100H100z"/><path fill="#b2928b" d="M200 400h100v100H200z"/><path fill="#b49183" d="M300 400h100v100H300z"/><path fill="#cdb3a7" d="M400 400h100v100H400z"/><path fill="#dec2b3" d="M500 400h100v100H500z"/><path fill="#d7c6b7" d="M600 400h100v100H600z"/><path fill="#b49f9e" d="M700 400h100v100H700z"/></svg>