<svg xmlns="http://www.w3.org/2000/svg" viewBox="0 0 800 500"><defs/><path fill="#e6d1b8" d="M0 0h100v100H0z"/><path fill="#d8b397" d="M100 0h100v100H100z"/><path fill="#e1ccb6" d="M200 0h100v100H200z"/><path fill="#dbc9b7" d="M300 0h100v100H300z"/><path fill="#e9dfc9" d="M400 0h100v100H400z"/><path fill="#eae1cc" d="M500 0h100v100H500z"/><path fill="#f9f3de" d="M600 0h100v100H600z"/><path fill="#f6f3e4" d="M700 0h100v100H700z"/><path fill="#d8af7e" d="M0 100h100v100H0z"/><path fill="#bb672f" d="M100 100h100v100H100z"/><path fill="#98583e" d="M200 100h100v100H200z"/><path fill="#915440" d="M300 100h100v100H300z"/><path fill="#d2ae81" d="M400 100h100v100H400z"/><path fill="#d7c89b" d="M500 100h100v100H500z"/><path fill="#f0ebba" d="M600 100h100v100H600z"/><path fill="#e7d8ae" d="M700 100h100v100H700z"/><path fill="#d3a67b" d="M0 200h100v100H0z"/><path fill="#c08452" d="M100 200h100v100H100z"/><path fill="#b88e77" d="M200 200h100v100H200z"/><path fill="#c8a286" d="M300 200h100v100H300z"/><path fill="#c69f7a" d="M400 200h100v100H400z"/><path fill="#a88165" d="M500 200h100v100H500z"/><path fill="#ae755a" d="M600 200h100v100H600z"/><path fill="#d2b489" d="M700 200h100v100H700z"/><path fill="#cc996e" d="M0 300h100v100H0z"/><path fill="#a66736" d="M100 300h100v100H100z"/><path fill="#cf855e" d="M200 300h100v100H200z"/><path fill="#c5865c" d="M300 300h100v100H300z"/><path fill="#954d3f" d="M400 300h100v100H400z"/><path fill="#874537" d="M500 300h100v100H500z"/><path fill="#7b4b16" d="M600 300h100v100H600z"/><path fill="#b67e5e" d="M700 300h100v100H700z"/><path fill="#c99676" d="M0 400h100v100H0z"/><path fill="#b36947" d="M100 400h100v100H100z"/><path fill="#c2704f" d="M200 400h100v100H200z"/><path fill="#b76a49" d="M300 400h100v100H300z"/><path fill="#96614f" d="M400 400h100v100H400z"/><path fill="#77675c" d="M500 400h100v100H500z"/><path fill="#6b6750" d="M600 400h100v100H600z"/><path fill="#b98469" d="M700 400h100v100H700z"/></svg>