<svg xmlns="http://www.w3.org/2000/svg" viewBox="0 0 800 500"><defs/><path fill="#cebdd8" d="M0 0h100v100H0z"/><path fill="#9ca5bd" d="M100 0h100v100H100z"/><path fill="#85a39a" d="M200 0h100v100H200z"/><path fill="#84b49d" d="M300 0h100v100H300z"/><path fill="#8ca19f" d="M400 0h100v100H400z"/><path fill="#9e97ab" d="M500 0h100v100H500z"/><path fill="#94a0a4" d="M600 0h100v100H600z"/><path fill="#aab0b9" d="M700 0h100v100H700z"/><path fill="#b1a3c4" d="M0 100h100v100H0z"/><path fill="#607c96" d="M100 100h100v100H100z"/><path fill="#477362" d="M200 100h100v100H200z"/><path fill="#486f63" d="M300 100h100v100H300z"/><path fill="#5d6970" d="M400 100h100v100H400z"/><path fill="#785d77" d="M500 100h100v100H500z"/><path fill="#55786f" d="M600 100h100v100H600z"/><path fill="#738e8d" d="M700 100h100v100H700z"/><path fill="#b7aacc" d="M0 200h100v100H0z"/><path fill="#5f868b" d="M100 200h100v100H100z"/><path fill="#6e857d" d="M200 200h100v100H200z"/><path fill="#998ea0" d="M300 200h100v100H300z"/><path fill="#8a919d" d="M400 200h100v100H400z"/><path fill="#8f8194" d="M500 200h100v100H500z"/><path fill="#637a70" d="M600 200h100v100H600z"/><path fill="#758a8b" d="M700 200h100v100H700z"/><path fill="#9da0c3" d="M0 300h100v100H0z"/><path fill="#547d7f" d="M100 300h100v100H100z"/><path fill="#6b7569" d="M200 300h100v100H200z"/><path fill="#b57d5b" d="M300 300h100v100H300z"/><path fill="#a2918d" d="M400 300h100v100H400z"/><path fill="#b49f98" d="M500 300h100v100H500z"/><path fill="#a58060" d="M600 300h100v100H600z"/><path fill="#a698a2" d="M700 300h100v100H700z"/><path fill="#c7b9bb" d="M0 400h100v100H0z"/><path fill="#aba591" d="M100 400h100v100H100z"/><path fill="#b4a789" d="M200 400h100v100H200z"/><path fill="#d8a27e" d="M300 400h100v100H300z"/><path fill="#e5ae8a" d="M400 400h100v100H400z"/><path fill="#e4b392" d="M500 400h100v100H500z"/><path fill="#d6aa8b" d="M600 400h100v100H600z"/><path fill="#c7ad9e" d="M700 400h100v100H700z"/></svg>