<svg xmlns="http://www.w3.org/2000/svg" viewBox="0 0 800 400"><defs/><path fill="#fff" d="M0 0h100v100H0z"/><path fill="#f5f4f4" d="M100 0h100v100H100z"/><path fill="#e5e6e7" d="M200 0h100v100H200z"/><path fill="#e1e2e3" d="M300 0h100v100H300z"/><path fill="#e6e6e5" d="M400 0h100v100H400z"/><path fill="#edeae8" d="M500 0h100v100H500z"/><path fill="#fffefe" d="M600 0h100v100H600z"/><path fill="#fff" d="M700 0h100v100H700zM0 100h100v100H0z"/><path fill="#a6a4a6" d="M100 100h100v100H100z"/><path fill="#061821" d="M200 100h100v100H200z"/><path fill="#58666e" d="M300 100h100v100H300z"/><path fill="#e6ddd6" d="M400 100h100v100H400z"/><path fill="#866c56" d="M500 100h100v100H500z"/><path fill="#e6e3e1" d="M600 100h100v100H600z"/><path fill="#fff" d="M700 100h100v100H700zM0 200h100v100H0z"/><path fill="#a9aeb2" d="M100 200h100v100H100z"/><path fill="#243b48" d="M200 200h100v100H200z"/><path fill="#687982" d="M300 200h100v100H300z"/><path fill="#f8f8f7" d="M400 200h100v100H400z"/><path fill="#c8c6c2" d="M500 200h100v100H500z"/><path fill="#f8f8f8" d="M600 200h100v100H600z"/><path fill="#fff" d="M700 200h100v100H700zM0 300h100v100H0z"/><path fill="#bfcddb" d="M100 300h100v100H100z"/><path fill="#5e82a4" d="M200 300h100v100H200z"/><path fill="#91a6be" d="M300 300h100v100H300z"/><path fill="#f5f6f7" d="M400 300h100v100H400z"/><path fill="#e6e6e7" d="M500 300h100v100H500z"/><path fill="#f3f3f3" d="M600 300h100v100H600z"/><path fill="#fcfcfc" d="M700 300h100v100H700z"/></svg>