<svg xmlns="http://www.w3.org/2000/svg" viewBox="0 0 800 300"><defs/><path fill="#eee" d="M0 0h100v100H0z"/><path fill="#ededed" d="M100 0h100v100H100z"/><path fill="#fefefe" d="M200 0h100v100H200z"/><path fill="#fff" d="M300 0h100v100H300zm100 0h100v100H400z"/><path fill="#f2f2f2" d="M500 0h100v100H500z"/><path fill="#eee" d="M600 0h100v100H600zm100 0h100v100H700z"/><path fill="#ececec" d="M0 100h100v100H0z"/><path fill="#e4e4e4" d="M100 100h100v100H100z"/><path fill="#fdfdfd" d="M200 100h100v100H200z"/><path fill="#f2f2f2" d="M300 100h100v100H300z"/><path fill="#e4e4e4" d="M400 100h100v100H400z"/><path fill="#efefef" d="M500 100h100v100H500z"/><path fill="#f5f5f5" d="M600 100h100v100H600z"/><path fill="#f7f7f7" d="M700 100h100v100H700z"/><path fill="#f2f2f2" d="M0 200h100v100H0z"/><path fill="#ececec" d="M100 200h100v100H100z"/><path fill="#f0f0f0" d="M200 200h100v100H200z"/><path fill="#e2e2e2" d="M300 200h100v100H300z"/><path fill="#d9d9d9" d="M400 200h100v100H400z"/><path fill="#ededed" d="M500 200h100v100H500z"/><path fill="#e3e3e3" d="M600 200h100v100H600z"/><path fill="#f6f6f6" d="M700 200h100v100H700z"/></svg>