<svg xmlns="http://www.w3.org/2000/svg" viewBox="0 0 800 400"><defs/><path fill="#edda2a" d="M0 0h100v100H0z"/><path fill="#cfc020" d="M100 0h100v100H100z"/><path fill="#f2dd25" d="M200 0h100v100H200z"/><path fill="#fae526" d="M300 0h100v100H300z"/><path fill="#f7e229" d="M400 0h100v100H400z"/><path fill="#f8e32b" d="M500 0h100v100H500z"/><path fill="#f4e02c" d="M600 0h100v100H600z"/><path fill="#f2df2c" d="M700 0h100v100H700z"/><path fill="#ead510" d="M0 100h100v100H0z"/><path fill="#d2c100" d="M100 100h100v100H100z"/><path fill="#ffe601" d="M200 100h100v100H200z"/><path fill="#ffe600" d="M300 100h100v100H300zm100 0h100v100H400zm100 0h100v100H500z"/><path fill="#fde400" d="M600 100h100v100H600z"/><path fill="#fae200" d="M700 100h100v100H700z"/><path fill="#dac816" d="M0 200h100v100H0z"/><path fill="#cdbc04" d="M100 200h100v100H100z"/><path fill="#fce300" d="M200 200h100v100H200z"/><path fill="#f2de29" d="M300 200h100v100H300z"/><path fill="#f1de2f" d="M400 200h100v100H400z"/><path fill="#fae100" d="M500 200h100v100H500z"/><path fill="#f6de04" d="M600 200h100v100H600z"/><path fill="#f7df03" d="M700 200h100v100H700z"/><path fill="#cdbf18" d="M0 300h100v100H0z"/><path fill="#dfca01" d="M100 300h100v100H100z"/><path fill="#ffe800" d="M200 300h100v100H200z"/><path fill="#f4dd0f" d="M300 300h100v100H300z"/><path fill="#f3de11" d="M400 300h100v100H400z"/><path fill="#ffe500" d="M500 300h100v100H500z"/><path fill="#fee401" d="M600 300h100v100H600z"/><path fill="#f7df02" d="M700 300h100v100H700z"/></svg>