<svg xmlns="http://www.w3.org/2000/svg" viewBox="0 0 800 1400"><defs/><path d="M0 0h100v100H0zm100 0h100v100H100zm100 0h100v100H200zm100 0h100v100H300zm100 0h100v100H400zm100 0h100v100H500zm100 0h100v100H600zm100 0h100v100H700zM0 100h100v100H0zm100 0h100v100H100zm100 0h100v100H200zm100 0h100v100H300zm100 0h100v100H400zm100 0h100v100H500zm100 0h100v100H600zm100 0h100v100H700z"/><path fill="#020202" d="M0 200h100v100H0zm100 0h100v100H100zm100 0h100v100H200zm100 0h100v100H300zm100 0h100v100H400zm100 0h100v100H500zm100 0h100v100H600zm100 0h100v100H700z"/><path d="M0 300h100v100H0zm100 0h100v100H100zm100 0h100v100H200zm100 0h100v100H300zm100 0h100v100H400zm100 0h100v100H500zm100 0h100v100H600zm100 0h100v100H700z"/><path fill="#2c2c2a" d="M0 400h100v100H0z"/><path fill="#2a2a29" d="M100 400h100v100H100z"/><path fill="#2c2c2b" d="M200 400h100v100H200z"/><path fill="#2a2929" d="M300 400h100v100H300z"/><path fill="#2b2929" d="M400 400h100v100H400z"/><path fill="#2c2c2c" d="M500 400h100v100H500z"/><path fill="#2d2d2c" d="M600 400h100v100H600z"/><path fill="#302f2d" d="M700 400h100v100H700z"/><path fill="#e1dfc3" d="M0 500h100v100H0z"/><path fill="#aaada6" d="M100 500h100v100H100z"/><path fill="#cbccc0" d="M200 500h100v100H200z"/><path fill="#c6beae" d="M300 500h100v100H300z"/><path fill="#cac5b6" d="M400 500h100v100H400z"/><path fill="#b4c9d5" d="M500 500h100v100H500z"/><path fill="#aebbc1" d="M600 500h100v100H600z"/><path fill="#aea693" d="M700 500h100v100H700z"/><path fill="#dddcc2" d="M0 600h100v100H0z"/><path fill="#a8ada2" d="M100 600h100v100H100z"/><path fill="#b5b5a4" d="M200 600h100v100H200z"/><path fill="#909291" d="M300 600h100v100H300z"/><path fill="#827a7d" d="M400 600h100v100H400z"/><path fill="#a79890" d="M500 600h100v100H500z"/><path fill="#d3d7c3" d="M600 600h100v100H600z"/><path fill="#938a7f" d="M700 600h100v100H700z"/><path fill="#c5c9b9" d="M0 700h100v100H0z"/><path fill="#aa9591" d="M100 700h100v100H100z"/><path fill="#b9aca1" d="M200 700h100v100H200z"/><path fill="#887b7a" d="M300 700h100v100H300z"/><path fill="#735e60" d="M400 700h100v100H400z"/><path fill="#a49c95" d="M500 700h100v100H500z"/><path fill="#aea999" d="M600 700h100v100H600z"/><path fill="#9b9084" d="M700 700h100v100H700z"/><path fill="#c8cdc5" d="M0 800h100v100H0z"/><path fill="#bbaba5" d="M100 800h100v100H100z"/><path fill="#dbcdc2" d="M200 800h100v100H200z"/><path fill="#74716f" d="M300 800h100v100H300z"/><path fill="#5d5958" d="M400 800h100v100H400z"/><path fill="#d1cfc6" d="M500 800h100v100H500z"/><path fill="#c5c1b8" d="M600 800h100v100H600z"/><path fill="#d4cec3" d="M700 800h100v100H700z"/><path fill="#343434" d="M0 900h100v100H0z"/><path fill="#353635" d="M100 900h100v100H100z"/><path fill="#333433" d="M200 900h100v100H200z"/><path fill="#303130" d="M300 900h100v100H300z"/><path fill="#323333" d="M400 900h100v100H400z"/><path fill="#363635" d="M500 900h100v100H500z"/><path fill="#393837" d="M600 900h100v100H600z"/><path fill="#383837" d="M700 900h100v100H700z"/><path d="M0 1000h100v100H0zm100 0h100v100H100zm100 0h100v100H200zm100 0h100v100H300zm100 0h100v100H400zm100 0h100v100H500zm100 0h100v100H600zm100 0h100v100H700z"/><path fill="#020202" d="M0 1100h100v100H0zm100 0h100v100H100zm100 0h100v100H200zm100 0h100v100H300zm100 0h100v100H400zm100 0h100v100H500zm100 0h100v100H600zm100 0h100v100H700z"/><path d="M0 1200h100v100H0zm100 0h100v100H100zm100 0h100v100H200zm100 0h100v100H300zm100 0h100v100H400zm100 0h100v100H500zm100 0h100v100H600zm100 0h100v100H700zM0 1300h100v100H0zm100 0h100v100H100zm100 0h100v100H200zm100 0h100v100H300zm100 0h100v100H400zm100 0h100v100H500zm100 0h100v100H600zm100 0h100v100H700z"/></svg>