<svg xmlns="http://www.w3.org/2000/svg" viewBox="0 0 800 500"><defs/><path fill="#f8f8f8" d="M0 0h100v100H0z"/><path fill="#f2f2f2" d="M100 0h100v100H100z"/><path fill="#f9f9f9" d="M200 0h100v100H200z"/><path fill="#fafafa" d="M300 0h100v100H300z"/><path fill="#f9f9f9" d="M400 0h100v100H400z"/><path fill="#f6f6f6" d="M500 0h100v100H500z"/><path fill="#fafafa" d="M600 0h100v100H600zm100 0h100v100H700z"/><path fill="#f3f3f3" d="M0 100h100v100H0z"/><path fill="#dfdfdf" d="M100 100h100v100H100z"/><path fill="#f7f7f7" d="M200 100h100v100H200z"/><path fill="#ececec" d="M300 100h100v100H300z"/><path fill="#ededed" d="M400 100h100v100H400z"/><path fill="#ebebeb" d="M500 100h100v100H500z"/><path fill="#f8f8f8" d="M600 100h100v100H600z"/><path fill="#fdfdfd" d="M700 100h100v100H700z"/><path fill="#ededed" d="M0 200h100v100H0z"/><path fill="#e3e3e3" d="M100 200h100v100H100z"/><path fill="#d2d2d2" d="M200 200h100v100H200z"/><path fill="#ddd" d="M300 200h100v100H300z"/><path fill="#eee" d="M400 200h100v100H400z"/><path fill="#e6e6e6" d="M500 200h100v100H500z"/><path fill="#eaeaea" d="M600 200h100v100H600z"/><path fill="#ededed" d="M700 200h100v100H700z"/><path fill="#e6e6e6" d="M0 300h100v100H0z"/><path fill="#cacaca" d="M100 300h100v100H100z"/><path fill="#b7b7b7" d="M200 300h100v100H200z"/><path fill="#cbcbcb" d="M300 300h100v100H300z"/><path fill="#ececec" d="M400 300h100v100H400z"/><path fill="#e8e8e8" d="M500 300h100v100H500zm100 0h100v100H600z"/><path fill="#dedede" d="M700 300h100v100H700z"/><path fill="#f0f0f0" d="M0 400h100v100H0z"/><path fill="#ebebeb" d="M100 400h100v100H100z"/><path fill="#ececec" d="M200 400h100v100H200zm100 0h100v100H300z"/><path fill="#f1f1f1" d="M400 400h100v100H400z"/><path fill="#f3f3f3" d="M500 400h100v100H500z"/><path fill="#f8f8f8" d="M600 400h100v100H600z"/><path fill="#f7f7f7" d="M700 400h100v100H700z"/></svg>