<svg xmlns="http://www.w3.org/2000/svg" viewBox="0 0 800 400"><defs/><path fill="#c9bbdf" d="M0 0h100v100H0z"/><path fill="#c69390" d="M100 0h100v100H100z"/><path fill="#b8ac9e" d="M200 0h100v100H200z"/><path fill="#bbefff" d="M300 0h100v100H300z"/><path fill="#9fddea" d="M400 0h100v100H400z"/><path fill="#b1e3f6" d="M500 0h100v100H500z"/><path fill="#9c99aa" d="M600 0h100v100H600z"/><path fill="#a49db5" d="M700 0h100v100H700z"/><path fill="#aca3b8" d="M0 100h100v100H0z"/><path fill="#a46750" d="M100 100h100v100H100z"/><path fill="#7d766a" d="M200 100h100v100H200z"/><path fill="#65bca8" d="M300 100h100v100H300z"/><path fill="#84bda4" d="M400 100h100v100H400z"/><path fill="#81c1aa" d="M500 100h100v100H500z"/><path fill="#828c94" d="M600 100h100v100H600z"/><path fill="#85748a" d="M700 100h100v100H700z"/><path fill="#ad8ea0" d="M0 200h100v100H0z"/><path fill="#936144" d="M100 200h100v100H100z"/><path fill="#646466" d="M200 200h100v100H200z"/><path fill="#788463" d="M300 200h100v100H300z"/><path fill="#a6b098" d="M400 200h100v100H400z"/><path fill="#8193b7" d="M500 200h100v100H500z"/><path fill="#5a6997" d="M600 200h100v100H600z"/><path fill="#6e513f" d="M700 200h100v100H700z"/><path fill="#bd8d82" d="M0 300h100v100H0z"/><path fill="#a06f45" d="M100 300h100v100H100z"/><path fill="#887f75" d="M200 300h100v100H200z"/><path fill="#9a6e31" d="M300 300h100v100H300z"/><path fill="#887661" d="M400 300h100v100H400z"/><path fill="#6072c7" d="M500 300h100v100H500z"/><path fill="#827179" d="M600 300h100v100H600z"/><path fill="#897b50" d="M700 300h100v100H700z"/></svg>