<svg xmlns="http://www.w3.org/2000/svg" viewBox="0 0 800 500"><defs/><path fill="#e9ecef" d="M0 0h100v100H0z"/><path fill="#d3d8df" d="M100 0h100v100H100z"/><path fill="#dce2e6" d="M200 0h100v100H200z"/><path fill="#cdd4dc" d="M300 0h100v100H300z"/><path fill="#cfd8df" d="M400 0h100v100H400z"/><path fill="#d7dfe5" d="M500 0h100v100H500z"/><path fill="#ced6df" d="M600 0h100v100H600z"/><path fill="#cfd7df" d="M700 0h100v100H700z"/><path fill="#d4dae0" d="M0 100h100v100H0z"/><path fill="#9aa8ba" d="M100 100h100v100H100z"/><path fill="#b1becd" d="M200 100h100v100H200z"/><path fill="#b3c7d5" d="M300 100h100v100H300z"/><path fill="#a1b5c6" d="M400 100h100v100H400z"/><path fill="#9faec0" d="M500 100h100v100H500z"/><path fill="#a4b5c6" d="M600 100h100v100H600z"/><path fill="#b0bdcb" d="M700 100h100v100H700z"/><path fill="#c8d1da" d="M0 200h100v100H0z"/><path fill="#9eacbc" d="M100 200h100v100H100z"/><path fill="#afb9c8" d="M200 200h100v100H200z"/><path fill="#abbbcd" d="M300 200h100v100H300z"/><path fill="#9eaabb" d="M400 200h100v100H400z"/><path fill="#9ca6b9" d="M500 200h100v100H500z"/><path fill="#adbbcb" d="M600 200h100v100H600z"/><path fill="#abb6c5" d="M700 200h100v100H700z"/><path fill="#c0c7d1" d="M0 300h100v100H0z"/><path fill="#909fb2" d="M100 300h100v100H100z"/><path fill="#8c98ac" d="M200 300h100v100H200z"/><path fill="#7a8aa6" d="M300 300h100v100H300z"/><path fill="#8c98b1" d="M400 300h100v100H400z"/><path fill="#8a98b0" d="M500 300h100v100H500z"/><path fill="#99a6b8" d="M600 300h100v100H600z"/><path fill="#9aa6ba" d="M700 300h100v100H700z"/><path fill="#d5d9e1" d="M0 400h100v100H0z"/><path fill="#bec6d1" d="M100 400h100v100H100z"/><path fill="#c5ccd8" d="M200 400h100v100H200z"/><path fill="#b8c1d2" d="M300 400h100v100H300z"/><path fill="#c0c8d6" d="M400 400h100v100H400z"/><path fill="#bac5d4" d="M500 400h100v100H500z"/><path fill="#c5ccd6" d="M600 400h100v100H600z"/><path fill="#c7ced6" d="M700 400h100v100H700z"/></svg>