<svg xmlns="http://www.w3.org/2000/svg" viewBox="0 0 800 600"><defs/><path fill="#e4e9eb" d="M0 0h100v100H0z"/><path fill="#d0d9dd" d="M100 0h100v100H100z"/><path fill="#c6d1d3" d="M200 0h100v100H200z"/><path fill="#c4cecf" d="M300 0h100v100H300z"/><path fill="#c6cdcd" d="M400 0h100v100H400z"/><path fill="#cbd1d0" d="M500 0h100v100H500z"/><path fill="#d2d9d7" d="M600 0h100v100H600z"/><path fill="#e4e9e9" d="M700 0h100v100H700z"/><path fill="#c0d3da" d="M0 100h100v100H0z"/><path fill="#9fbdc7" d="M100 100h100v100H100z"/><path fill="#7facc1" d="M200 100h100v100H200z"/><path fill="#87a5b3" d="M300 100h100v100H300z"/><path fill="#96a19e" d="M400 100h100v100H400z"/><path fill="#b0bbbc" d="M500 100h100v100H500z"/><path fill="#a7bec2" d="M600 100h100v100H600z"/><path fill="#bed3d8" d="M700 100h100v100H700z"/><path fill="#b7cccc" d="M0 200h100v100H0z"/><path fill="#9ab7b4" d="M100 200h100v100H100z"/><path fill="#79a7b7" d="M200 200h100v100H200z"/><path fill="#89a5b4" d="M300 200h100v100H300z"/><path fill="#a0acaa" d="M400 200h100v100H400z"/><path fill="#a4b4b7" d="M500 200h100v100H500z"/><path fill="#9aafb3" d="M600 200h100v100H600z"/><path fill="#b7ccce" d="M700 200h100v100H700z"/><path fill="#b1c7c7" d="M0 300h100v100H0z"/><path fill="#8badac" d="M100 300h100v100H100z"/><path fill="#78a4ae" d="M200 300h100v100H200z"/><path fill="#88a7b3" d="M300 300h100v100H300z"/><path fill="#8ca8ae" d="M400 300h100v100H400z"/><path fill="#8aabb6" d="M500 300h100v100H500z"/><path fill="#8aa5aa" d="M600 300h100v100H600z"/><path fill="#aec0c1" d="M700 300h100v100H700z"/><path fill="#bac9d0" d="M0 400h100v100H0z"/><path fill="#97b4b7" d="M100 400h100v100H100z"/><path fill="#90b0b5" d="M200 400h100v100H200z"/><path fill="#97acb0" d="M300 400h100v100H300z"/><path fill="#82a8ae" d="M400 400h100v100H400z"/><path fill="#8fb3bd" d="M500 400h100v100H500z"/><path fill="#8bb3ba" d="M600 400h100v100H600z"/><path fill="#abc3ca" d="M700 400h100v100H700z"/><path fill="#d7dde0" d="M0 500h100v100H0z"/><path fill="#c6ced1" d="M100 500h100v100H100z"/><path fill="#bec7c9" d="M200 500h100v100H200z"/><path fill="#b9c3c5" d="M300 500h100v100H300z"/><path fill="#bbc6c9" d="M400 500h100v100H400z"/><path fill="#becacc" d="M500 500h100v100H500z"/><path fill="#c5cfd1" d="M600 500h100v100H600z"/><path fill="#d8e0e2" d="M700 500h100v100H700z"/></svg>