<svg xmlns="http://www.w3.org/2000/svg" viewBox="0 0 800 600"><defs/><path fill="#676664" d="M0 0h100v100H0z"/><path fill="#c1bab6" d="M100 0h100v100H100z"/><path fill="#aea57f" d="M200 0h100v100H200z"/><path fill="#989a7a" d="M300 0h100v100H300z"/><path fill="#96968c" d="M400 0h100v100H400z"/><path fill="#c49f83" d="M500 0h100v100H500z"/><path fill="#979c99" d="M600 0h100v100H600z"/><path fill="#898d90" d="M700 0h100v100H700z"/><path fill="#7f786f" d="M0 100h100v100H0z"/><path fill="#dbd3af" d="M100 100h100v100H100z"/><path fill="#babc82" d="M200 100h100v100H200z"/><path fill="#83857b" d="M300 100h100v100H300z"/><path fill="#84796d" d="M400 100h100v100H400z"/><path fill="#a99c7c" d="M500 100h100v100H500z"/><path fill="#bbaa7c" d="M600 100h100v100H600z"/><path fill="#c6a986" d="M700 100h100v100H700z"/><path fill="#929187" d="M0 200h100v100H0z"/><path fill="#d0c8a3" d="M100 200h100v100H100z"/><path fill="#c8b4a1" d="M200 200h100v100H200z"/><path fill="#8f7f71" d="M300 200h100v100H300z"/><path fill="#645e5f" d="M400 200h100v100H400z"/><path fill="#94877f" d="M500 200h100v100H500z"/><path fill="#c79e66" d="M600 200h100v100H600z"/><path fill="#c7bb81" d="M700 200h100v100H700z"/><path fill="#a29d8c" d="M0 300h100v100H0z"/><path fill="#cab597" d="M100 300h100v100H100z"/><path fill="#cba597" d="M200 300h100v100H200z"/><path fill="#af9b6e" d="M300 300h100v100H300z"/><path fill="#8d817c" d="M400 300h100v100H400z"/><path fill="#868880" d="M500 300h100v100H500z"/><path fill="#aba183" d="M600 300h100v100H600z"/><path fill="#c4aa80" d="M700 300h100v100H700z"/><path fill="#a29979" d="M0 400h100v100H0z"/><path fill="#ceb292" d="M100 400h100v100H100z"/><path fill="#c4c06f" d="M200 400h100v100H200z"/><path fill="#699597" d="M300 400h100v100H300z"/><path fill="#678b9f" d="M400 400h100v100H400z"/><path fill="#7c9199" d="M500 400h100v100H500z"/><path fill="#939599" d="M600 400h100v100H600z"/><path fill="#cd9d87" d="M700 400h100v100H700z"/><path fill="#a49184" d="M0 500h100v100H0z"/><path fill="#cbb19f" d="M100 500h100v100H100z"/><path fill="#bab8b0" d="M200 500h100v100H200z"/><path fill="#71a2c9" d="M300 500h100v100H300z"/><path fill="#6d9fc6" d="M400 500h100v100H400z"/><path fill="#83a4c3" d="M500 500h100v100H500z"/><path fill="#a0b3c3" d="M600 500h100v100H600z"/><path fill="#bcb0ad" d="M700 500h100v100H700z"/></svg>