<svg xmlns="http://www.w3.org/2000/svg" viewBox="0 0 800 500"><defs/><path fill="#d39695" d="M0 0h100v100H0z"/><path fill="#6da2b9" d="M100 0h100v100H100z"/><path fill="#c17971" d="M200 0h100v100H200z"/><path fill="#c88373" d="M300 0h100v100H300z"/><path fill="#c89884" d="M400 0h100v100H400z"/><path fill="#b0b08e" d="M500 0h100v100H500z"/><path fill="#dfd07a" d="M600 0h100v100H600z"/><path fill="#e9d37f" d="M700 0h100v100H700z"/><path fill="#a29ea3" d="M0 100h100v100H0z"/><path fill="#668a9a" d="M100 100h100v100H100z"/><path fill="#a76551" d="M200 100h100v100H200z"/><path fill="#bd615e" d="M300 100h100v100H300z"/><path fill="#946061" d="M400 100h100v100H400z"/><path fill="#629db1" d="M500 100h100v100H500z"/><path fill="#7c8f8c" d="M600 100h100v100H600z"/><path fill="#aa804d" d="M700 100h100v100H700z"/><path fill="#9ca1ab" d="M0 200h100v100H0z"/><path fill="#739799" d="M100 200h100v100H100z"/><path fill="#958a82" d="M200 200h100v100H200z"/><path fill="#8b7e7e" d="M300 200h100v100H300z"/><path fill="#798a80" d="M400 200h100v100H400z"/><path fill="#87a4b1" d="M500 200h100v100H500z"/><path fill="#a49daa" d="M600 200h100v100H600z"/><path fill="#8a9170" d="M700 200h100v100H700z"/><path fill="#90adc0" d="M0 300h100v100H0z"/><path fill="#9f8f80" d="M100 300h100v100H100z"/><path fill="#b89983" d="M200 300h100v100H200z"/><path fill="#908e75" d="M300 300h100v100H300z"/><path fill="#9f9a8d" d="M400 300h100v100H400z"/><path fill="#919d9e" d="M500 300h100v100H500z"/><path fill="#718a84" d="M600 300h100v100H600z"/><path fill="#859388" d="M700 300h100v100H700z"/><path fill="#b5c0c7" d="M0 400h100v100H0z"/><path fill="#cdb3af" d="M100 400h100v100H100z"/><path fill="#d5bba9" d="M200 400h100v100H200z"/><path fill="#d1c1a9" d="M300 400h100v100H300z"/><path fill="#cfb1a8" d="M400 400h100v100H400z"/><path fill="#a7aa8c" d="M500 400h100v100H500z"/><path fill="#9eab88" d="M600 400h100v100H600z"/><path fill="#b7aab0" d="M700 400h100v100H700z"/></svg>