<svg xmlns="http://www.w3.org/2000/svg" viewBox="0 0 800 1100"><defs/><path fill="#746559" d="M0 0h100v100H0z"/><path fill="#979086" d="M100 0h100v100H100z"/><path fill="#534f4b" d="M200 0h100v100H200z"/><path fill="#6a655f" d="M300 0h100v100H300z"/><path fill="#56554a" d="M400 0h100v100H400z"/><path fill="#625f54" d="M500 0h100v100H500z"/><path fill="#4d473b" d="M600 0h100v100H600z"/><path fill="#3a3832" d="M700 0h100v100H700z"/><path fill="#c6b7b7" d="M0 100h100v100H0z"/><path fill="#bfb4ac" d="M100 100h100v100H100z"/><path fill="#928881" d="M200 100h100v100H200z"/><path fill="#898884" d="M300 100h100v100H300z"/><path fill="#a39a8f" d="M400 100h100v100H400z"/><path fill="#b0a794" d="M500 100h100v100H500z"/><path fill="#5a5c51" d="M600 100h100v100H600z"/><path fill="#151414" d="M700 100h100v100H700z"/><path fill="#94898a" d="M0 200h100v100H0z"/><path fill="#62655e" d="M100 200h100v100H100z"/><path fill="#aca795" d="M200 200h100v100H200z"/><path fill="#bdbaaf" d="M300 200h100v100H300z"/><path fill="#c2c0b0" d="M400 200h100v100H400z"/><path fill="#d1c7a6" d="M500 200h100v100H500z"/><path fill="#adab9b" d="M600 200h100v100H600z"/><path fill="#424441" d="M700 200h100v100H700z"/><path fill="#ae566c" d="M0 300h100v100H0z"/><path fill="#824f59" d="M100 300h100v100H100z"/><path fill="#a1ac9b" d="M200 300h100v100H200z"/><path fill="#acbab0" d="M300 300h100v100H300z"/><path fill="#97a295" d="M400 300h100v100H400z"/><path fill="#a29f81" d="M500 300h100v100H500z"/><path fill="#8b9084" d="M600 300h100v100H600z"/><path fill="#54554e" d="M700 300h100v100H700z"/><path fill="#d3c4c0" d="M0 400h100v100H0z"/><path fill="#ac969c" d="M100 400h100v100H100z"/><path fill="#adaea5" d="M200 400h100v100H200z"/><path fill="#cac7ba" d="M300 400h100v100H300z"/><path fill="#b1b0a3" d="M400 400h100v100H400z"/><path fill="#85847b" d="M500 400h100v100H500z"/><path fill="#92918d" d="M600 400h100v100H600z"/><path fill="#7c7c7a" d="M700 400h100v100H700z"/><path fill="#eaecef" d="M0 500h100v100H0z"/><path fill="#ebeff0" d="M100 500h100v100H100z"/><path fill="#e8e8eb" d="M200 500h100v100H200z"/><path fill="#e6e4e8" d="M300 500h100v100H300z"/><path fill="#e8e7ea" d="M400 500h100v100H400z"/><path fill="#d1cfd2" d="M500 500h100v100H500z"/><path fill="#b8b7b8" d="M600 500h100v100H600z"/><path fill="#bfbebf" d="M700 500h100v100H700z"/><path fill="#e8e9ee" d="M0 600h100v100H0z"/><path fill="#e2e2e6" d="M100 600h100v100H100z"/><path fill="#e0e1e2" d="M200 600h100v100H200z"/><path fill="#e4e4e6" d="M300 600h100v100H300z"/><path fill="#e3e2e4" d="M400 600h100v100H400z"/><path fill="#e6e4e6" d="M500 600h100v100H500z"/><path fill="#dddbde" d="M600 600h100v100H600z"/><path fill="#b6b4b7" d="M700 600h100v100H700z"/><path fill="#e5e5ed" d="M0 700h100v100H0z"/><path fill="#dfdfe3" d="M100 700h100v100H100z"/><path fill="#e1e2e3" d="M200 700h100v100H200z"/><path fill="#e3e3e6" d="M300 700h100v100H300z"/><path fill="#e3e1e3" d="M400 700h100v100H400z"/><path fill="#e0dfdf" d="M500 700h100v100H500z"/><path fill="#e5e3e5" d="M600 700h100v100H600z"/><path fill="#eae8e9" d="M700 700h100v100H700z"/><path fill="#e0e0e7" d="M0 800h100v100H0z"/><path fill="#dcdde1" d="M100 800h100v100H100z"/><path fill="#e1e1e3" d="M200 800h100v100H200z"/><path fill="#e2e0e3" d="M300 800h100v100H300z"/><path fill="#dfdde0" d="M400 800h100v100H400zm100 0h100v100H500z"/><path fill="#dfdcde" d="M600 800h100v100H600z"/><path fill="#dedcda" d="M700 800h100v100H700z"/><path fill="#dfe1e5" d="M0 900h100v100H0z"/><path fill="#dedde2" d="M100 900h100v100H100z"/><path fill="#e0dee1" d="M200 900h100v100H200z"/><path fill="#dbd9db" d="M300 900h100v100H300z"/><path fill="#dad8da" d="M400 900h100v100H400z"/><path fill="#dbd9da" d="M500 900h100v100H500z"/><path fill="#d7d6d5" d="M600 900h100v100H600z"/><path fill="#d9d5d4" d="M700 900h100v100H700z"/><path fill="#dedde0" d="M0 1000h100v100H0z"/><path fill="#d9d7db" d="M100 1000h100v100H100z"/><path fill="#d6d3d6" d="M200 1000h100v100H200z"/><path fill="#d2cfd0" d="M300 1000h100v100H300z"/><path fill="#cbc8c6" d="M400 1000h100v100H400z"/><path fill="#bfbcb5" d="M500 1000h100v100H500z"/><path fill="#b6b1a8" d="M600 1000h100v100H600z"/><path fill="#b4ada2" d="M700 1000h100v100H700z"/></svg>