<svg xmlns="http://www.w3.org/2000/svg" viewBox="0 0 800 500"><defs/><path fill="#b6bad3" d="M0 0h100v100H0z"/><path fill="#aeb1c4" d="M100 0h100v100H100z"/><path fill="#b0b9c8" d="M200 0h100v100H200z"/><path fill="#b9b4c5" d="M300 0h100v100H300z"/><path fill="#bcc3d1" d="M400 0h100v100H400z"/><path fill="#b3baca" d="M500 0h100v100H500z"/><path fill="#adb0c2" d="M600 0h100v100H600z"/><path fill="#bbb9c0" d="M700 0h100v100H700z"/><path fill="#b3b5cf" d="M0 100h100v100H0z"/><path fill="#9395a6" d="M100 100h100v100H100z"/><path fill="#a6b7b9" d="M200 100h100v100H200z"/><path fill="#a1a0b6" d="M300 100h100v100H300z"/><path fill="#b2b7be" d="M400 100h100v100H400z"/><path fill="#a8b0bb" d="M500 100h100v100H500z"/><path fill="#b0b1c5" d="M600 100h100v100H600z"/><path fill="#b9b4c3" d="M700 100h100v100H700z"/><path fill="#a8a7be" d="M0 200h100v100H0z"/><path fill="#959faf" d="M100 200h100v100H100z"/><path fill="#97a5a3" d="M200 200h100v100H200z"/><path fill="#908d9d" d="M300 200h100v100H300z"/><path fill="#908b8f" d="M400 200h100v100H400z"/><path fill="#abb1ba" d="M500 200h100v100H500z"/><path fill="#b8b7cb" d="M600 200h100v100H600z"/><path fill="#9891a1" d="M700 200h100v100H700z"/><path fill="#9a9baf" d="M0 300h100v100H0z"/><path fill="#9a9ab2" d="M100 300h100v100H100z"/><path fill="#a5adb6" d="M200 300h100v100H200z"/><path fill="#a7aeb9" d="M300 300h100v100H300z"/><path fill="#a19eab" d="M400 300h100v100H400z"/><path fill="#a8a4b3" d="M500 300h100v100H500z"/><path fill="#a6a5b4" d="M600 300h100v100H600z"/><path fill="#8b8c8f" d="M700 300h100v100H700z"/><path fill="#9f9fb1" d="M0 400h100v100H0z"/><path fill="#b3b7ca" d="M100 400h100v100H100z"/><path fill="#aeaebf" d="M200 400h100v100H200z"/><path fill="#bbabb8" d="M300 400h100v100H300z"/><path fill="#b4b3ba" d="M400 400h100v100H400z"/><path fill="#aaa4b8" d="M500 400h100v100H500z"/><path fill="#b4bbcf" d="M600 400h100v100H600z"/><path fill="#aeaebd" d="M700 400h100v100H700z"/></svg>