<svg xmlns="http://www.w3.org/2000/svg" viewBox="0 0 800 400"><defs/><path fill="#8957b6" d="M0 0h100v100H0z"/><path fill="#8e77bc" d="M100 0h100v100H100z"/><path fill="#94aad4" d="M200 0h100v100H200z"/><path fill="#9099d0" d="M300 0h100v100H300z"/><path fill="#7e7cc3" d="M400 0h100v100H400z"/><path fill="#94a0cf" d="M500 0h100v100H500z"/><path fill="#7f90cf" d="M600 0h100v100H600z"/><path fill="#9164bd" d="M700 0h100v100H700z"/><path fill="#9c66b7" d="M0 100h100v100H0z"/><path fill="#7c5f9b" d="M100 100h100v100H100z"/><path fill="#5872b5" d="M200 100h100v100H200z"/><path fill="#7e76c5" d="M300 100h100v100H300z"/><path fill="#8b74c2" d="M400 100h100v100H400z"/><path fill="#8f90c1" d="M500 100h100v100H500z"/><path fill="#5863a1" d="M600 100h100v100H600z"/><path fill="#854fb5" d="M700 100h100v100H700z"/><path fill="#945cb5" d="M0 200h100v100H0z"/><path fill="#724f8f" d="M100 200h100v100H100z"/><path fill="#4f4d9a" d="M200 200h100v100H200z"/><path fill="#665eae" d="M300 200h100v100H300z"/><path fill="#736baf" d="M400 200h100v100H400z"/><path fill="#7e6cb0" d="M500 200h100v100H500z"/><path fill="#4e3e9c" d="M600 200h100v100H600z"/><path fill="#8041a6" d="M700 200h100v100H700z"/><path fill="#813f9f" d="M0 300h100v100H0z"/><path fill="#8558a6" d="M100 300h100v100H100z"/><path fill="#8673b7" d="M200 300h100v100H200z"/><path fill="#7f529d" d="M300 300h100v100H300z"/><path fill="#6a479d" d="M400 300h100v100H400z"/><path fill="#915fa0" d="M500 300h100v100H500z"/><path fill="#8c61ab" d="M600 300h100v100H600z"/><path fill="#a155af" d="M700 300h100v100H700z"/></svg>