<svg xmlns="http://www.w3.org/2000/svg" viewBox="0 0 800 500"><defs/><path fill="#b1b3b0" d="M0 0h100v100H0z"/><path fill="#c3c4c2" d="M100 0h100v100H100z"/><path fill="#c2c3c1" d="M200 0h100v100H200z"/><path fill="#adaead" d="M300 0h100v100H300z"/><path fill="#c8c8c6" d="M400 0h100v100H400z"/><path fill="#c0c1c0" d="M500 0h100v100H500z"/><path fill="#cfcfcc" d="M600 0h100v100H600z"/><path fill="#c7c8c6" d="M700 0h100v100H700z"/><path fill="#a6a8a7" d="M0 100h100v100H0z"/><path fill="#b0b0af" d="M100 100h100v100H100z"/><path fill="#9c9d9d" d="M200 100h100v100H200z"/><path fill="#a8a9a9" d="M300 100h100v100H300z"/><path fill="#bcbdbb" d="M400 100h100v100H400z"/><path fill="#b1b3b2" d="M500 100h100v100H500z"/><path fill="#c3c4c0" d="M600 100h100v100H600z"/><path fill="#a2a4a3" d="M700 100h100v100H700z"/><path fill="#acadac" d="M0 200h100v100H0z"/><path fill="#b2b4b3" d="M100 200h100v100H100z"/><path fill="#a6a7a6" d="M200 200h100v100H200z"/><path fill="#a0a2a3" d="M300 200h100v100H300z"/><path fill="#a8a9a8" d="M400 200h100v100H400z"/><path fill="#b3b4b2" d="M500 200h100v100H500z"/><path fill="#c5c5c3" d="M600 200h100v100H600z"/><path fill="#a3a5a6" d="M700 200h100v100H700z"/><path fill="#b4b5b4" d="M0 300h100v100H0z"/><path fill="#b0b1b0" d="M100 300h100v100H100z"/><path fill="#abadac" d="M200 300h100v100H200z"/><path fill="#afb1af" d="M300 300h100v100H300z"/><path fill="#b3b5b3" d="M400 300h100v100H400z"/><path fill="#abacab" d="M500 300h100v100H500z"/><path fill="#b9bab8" d="M600 300h100v100H600z"/><path fill="#c1c2c1" d="M700 300h100v100H700z"/><path fill="#a5a7a6" d="M0 400h100v100H0z"/><path fill="#aeb0af" d="M100 400h100v100H100z"/><path fill="#b7b9b7" d="M200 400h100v100H200z"/><path fill="#b0b1af" d="M300 400h100v100H300z"/><path fill="#b6b7b5" d="M400 400h100v100H400z"/><path fill="#b4b6b4" d="M500 400h100v100H500z"/><path fill="#afb0ae" d="M600 400h100v100H600z"/><path fill="#c9c9c8" d="M700 400h100v100H700z"/></svg>