<svg xmlns="http://www.w3.org/2000/svg" viewBox="0 0 800 500"><defs/><path fill="#f9f9f9" d="M0 0h100v100H0z"/><path fill="#ebe8e9" d="M100 0h100v100H100z"/><path fill="#f1f1f3" d="M200 0h100v100H200z"/><path fill="#eff0f1" d="M300 0h100v100H300z"/><path fill="#f3f3f3" d="M400 0h100v100H400z"/><path fill="#ebecec" d="M500 0h100v100H500z"/><path fill="#ebebeb" d="M600 0h100v100H600z"/><path fill="#f2f2f2" d="M700 0h100v100H700z"/><path fill="#ebeceb" d="M0 100h100v100H0z"/><path fill="#a0a29f" d="M100 100h100v100H100z"/><path fill="#b7b4ad" d="M200 100h100v100H200z"/><path fill="#c3c7c8" d="M300 100h100v100H300z"/><path fill="#d8d6d7" d="M400 100h100v100H400z"/><path fill="#a8a8aa" d="M500 100h100v100H500z"/><path fill="#d0cecf" d="M600 100h100v100H600z"/><path fill="#a1adb2" d="M700 100h100v100H700z"/><path fill="#d5cecc" d="M0 200h100v100H0z"/><path fill="#ada6a1" d="M100 200h100v100H100z"/><path fill="#adbcbe" d="M200 200h100v100H200z"/><path fill="#b1b7b6" d="M300 200h100v100H300z"/><path fill="#cbcbc6" d="M400 200h100v100H400z"/><path fill="#a3a0a5" d="M500 200h100v100H500z"/><path fill="#b6b9bd" d="M600 200h100v100H600z"/><path fill="#a69596" d="M700 200h100v100H700z"/><path fill="#c1bfbf" d="M0 300h100v100H0z"/><path fill="#90878d" d="M100 300h100v100H100z"/><path fill="#5f8dab" d="M200 300h100v100H200z"/><path fill="#9ba692" d="M300 300h100v100H300z"/><path fill="#93a689" d="M400 300h100v100H400z"/><path fill="#a097aa" d="M500 300h100v100H500z"/><path fill="#a9787e" d="M600 300h100v100H600z"/><path fill="#925a55" d="M700 300h100v100H700z"/><path fill="#e0dee0" d="M0 400h100v100H0z"/><path fill="#d4d4d4" d="M100 400h100v100H100z"/><path fill="#b3b7bc" d="M200 400h100v100H200z"/><path fill="#c8c5be" d="M300 400h100v100H300z"/><path fill="#bccacb" d="M400 400h100v100H400z"/><path fill="#cdcdcf" d="M500 400h100v100H500z"/><path fill="#d0afab" d="M600 400h100v100H600z"/><path fill="#c2b5b5" d="M700 400h100v100H700z"/></svg>