<svg xmlns="http://www.w3.org/2000/svg" viewBox="0 0 800 500"><defs/><path fill="#767164" d="M0 0h100v100H0z"/><path fill="#787872" d="M100 0h100v100H100z"/><path fill="#776469" d="M200 0h100v100H200z"/><path fill="#78656f" d="M300 0h100v100H300z"/><path fill="#9d888e" d="M400 0h100v100H400z"/><path fill="#817174" d="M500 0h100v100H500z"/><path fill="#7b7064" d="M600 0h100v100H600z"/><path fill="#9a9087" d="M700 0h100v100H700z"/><path fill="#514635" d="M0 100h100v100H0z"/><path fill="#474534" d="M100 100h100v100H100z"/><path fill="#635946" d="M200 100h100v100H200z"/><path fill="#645854" d="M300 100h100v100H300z"/><path fill="#74696b" d="M400 100h100v100H400z"/><path fill="#5f6054" d="M500 100h100v100H500z"/><path fill="#524832" d="M600 100h100v100H600z"/><path fill="#685851" d="M700 100h100v100H700z"/><path fill="#5f5240" d="M0 200h100v100H0z"/><path fill="#51442e" d="M100 200h100v100H100z"/><path fill="#585335" d="M200 200h100v100H200z"/><path fill="#725d50" d="M300 200h100v100H300z"/><path fill="#736242" d="M400 200h100v100H400z"/><path fill="#70524d" d="M500 200h100v100H500z"/><path fill="#583a3e" d="M600 200h100v100H600z"/><path fill="#6d5b63" d="M700 200h100v100H700z"/><path fill="#4b3c24" d="M0 300h100v100H0z"/><path fill="#2a1a03" d="M100 300h100v100H100z"/><path fill="#603c1e" d="M200 300h100v100H200z"/><path fill="#61462c" d="M300 300h100v100H300z"/><path fill="#602822" d="M400 300h100v100H400z"/><path fill="#5d1a2c" d="M500 300h100v100H500z"/><path fill="#341611" d="M600 300h100v100H600z"/><path fill="#555942" d="M700 300h100v100H700z"/><path fill="#988f7d" d="M0 400h100v100H0z"/><path fill="#8d8678" d="M100 400h100v100H100z"/><path fill="#a19387" d="M200 400h100v100H200z"/><path fill="#9e8d73" d="M300 400h100v100H300z"/><path fill="#7e776e" d="M400 400h100v100H400z"/><path fill="#5a484a" d="M500 400h100v100H500z"/><path fill="#83796d" d="M600 400h100v100H600z"/><path fill="#7e8a6b" d="M700 400h100v100H700z"/></svg>