<svg xmlns="http://www.w3.org/2000/svg" viewBox="0 0 800 600"><defs/><path fill="#e8e9ea" d="M0 0h100v100H0z"/><path fill="#e4e5e9" d="M100 0h100v100H100z"/><path fill="#e3e4e9" d="M200 0h100v100H200z"/><path fill="#e6e8ea" d="M300 0h100v100H300z"/><path fill="#e8e8ea" d="M400 0h100v100H400z"/><path fill="#e9e9eb" d="M500 0h100v100H500z"/><path fill="#ebebeb" d="M600 0h100v100H600z"/><path fill="#e9e9ea" d="M700 0h100v100H700z"/><path fill="#cdd0e3" d="M0 100h100v100H0z"/><path fill="#8e9cd1" d="M100 100h100v100H100z"/><path fill="#b6bedb" d="M200 100h100v100H200z"/><path fill="#c7cde1" d="M300 100h100v100H300z"/><path fill="#d3d7e5" d="M400 100h100v100H400z"/><path fill="#d8dbe6" d="M500 100h100v100H500z"/><path fill="#a7b2d8" d="M600 100h100v100H600z"/><path fill="#b4bcda" d="M700 100h100v100H700z"/><path fill="#cbcfe2" d="M0 200h100v100H0z"/><path fill="#929fd2" d="M100 200h100v100H100z"/><path fill="#c0c6de" d="M200 200h100v100H200z"/><path fill="#b6bddc" d="M300 200h100v100H300z"/><path fill="#b5bddd" d="M400 200h100v100H400z"/><path fill="#c5cbe0" d="M500 200h100v100H500z"/><path fill="#808ecd" d="M600 200h100v100H600z"/><path fill="#9fa9d4" d="M700 200h100v100H700z"/><path fill="#b5bddc" d="M0 300h100v100H0z"/><path fill="#8d9ad1" d="M100 300h100v100H100z"/><path fill="#99a5d4" d="M200 300h100v100H200z"/><path fill="#9aa5d3" d="M300 300h100v100H300z"/><path fill="#aeb6da" d="M400 300h100v100H400z"/><path fill="#b0b9da" d="M500 300h100v100H500z"/><path fill="#a1abd5" d="M600 300h100v100H600z"/><path fill="#afb7d9" d="M700 300h100v100H700z"/><path fill="#a9b3d8" d="M0 400h100v100H0z"/><path fill="#919dd1" d="M100 400h100v100H100z"/><path fill="#b9c0dd" d="M200 400h100v100H200z"/><path fill="#93a0d2" d="M300 400h100v100H300z"/><path fill="#c0c6df" d="M400 400h100v100H400z"/><path fill="#e5e5e9" d="M500 400h100v100H500z"/><path fill="#a8b2d7" d="M600 400h100v100H600z"/><path fill="#9ca9d4" d="M700 400h100v100H700z"/><path fill="#d8dbe6" d="M0 500h100v100H0z"/><path fill="#d8dbe5" d="M100 500h100v100H100z"/><path fill="#e3e4e8" d="M200 500h100v100H200z"/><path fill="#ced3e3" d="M300 500h100v100H300z"/><path fill="#dee0e7" d="M400 500h100v100H400z"/><path fill="#ececeb" d="M500 500h100v100H500z"/><path fill="#d7dae4" d="M600 500h100v100H600z"/><path fill="#cfd3e3" d="M700 500h100v100H700z"/></svg>