<svg xmlns="http://www.w3.org/2000/svg" viewBox="0 0 800 300"><defs/><path fill="#dedfe0" d="M0 0h100v100H0z"/><path fill="#d9dadc" d="M100 0h100v100H100z"/><path fill="#dbdddf" d="M200 0h100v100H200z"/><path fill="#f3f3f4" d="M300 0h100v100H300z"/><path fill="#f6f6f6" d="M400 0h100v100H400zm100 0h100v100H500z"/><path fill="#f5f5f5" d="M600 0h100v100H600z"/><path fill="#fafafa" d="M700 0h100v100H700z"/><path fill="#ececec" d="M0 100h100v100H0z"/><path fill="#ebeced" d="M100 100h100v100H100z"/><path fill="#f2f2f2" d="M200 100h100v100H200z"/><path fill="#ebebeb" d="M300 100h100v100H300z"/><path fill="#ededed" d="M400 100h100v100H400z"/><path fill="#eeeded" d="M500 100h100v100H500z"/><path fill="#f1f1f1" d="M600 100h100v100H600z"/><path fill="#e1e0e0" d="M700 100h100v100H700z"/><path fill="#e8e8e7" d="M0 200h100v100H0z"/><path fill="#e1e1e1" d="M100 200h100v100H100z"/><path fill="#e8e8e8" d="M200 200h100v100H200z"/><path fill="#e6e6e6" d="M300 200h100v100H300z"/><path fill="#e8e8e8" d="M400 200h100v100H400z"/><path fill="#d9d7d7" d="M500 200h100v100H500z"/><path fill="#e4e4e4" d="M600 200h100v100H600z"/><path fill="#e2e2e1" d="M700 200h100v100H700z"/></svg>