<svg xmlns="http://www.w3.org/2000/svg" viewBox="0 0 800 800"><defs/><path fill="#b2a79c" d="M0 0h100v100H0z"/><path fill="#524a44" d="M100 0h100v100H100z"/><path fill="#5d534a" d="M200 0h100v100H200z"/><path fill="#62584d" d="M300 0h100v100H300z"/><path fill="#5e6156" d="M400 0h100v100H400z"/><path fill="#aca69e" d="M500 0h100v100H500z"/><path fill="#fffcf5" d="M600 0h100v100H600z"/><path fill="#e9e3d7" d="M700 0h100v100H700z"/><path fill="#b5aca6" d="M0 100h100v100H0z"/><path fill="#413a35" d="M100 100h100v100H100z"/><path fill="#43382f" d="M200 100h100v100H200z"/><path fill="#4b4336" d="M300 100h100v100H300z"/><path fill="#45574a" d="M400 100h100v100H400z"/><path fill="#928e83" d="M500 100h100v100H500z"/><path fill="#ffebdc" d="M600 100h100v100H600z"/><path fill="#dccbbb" d="M700 100h100v100H700z"/><path fill="#bbb5b2" d="M0 200h100v100H0z"/><path fill="#403a3a" d="M100 200h100v100H100z"/><path fill="#272023" d="M200 200h100v100H200z"/><path fill="#402f2a" d="M300 200h100v100H300z"/><path fill="#384540" d="M400 200h100v100H400z"/><path fill="#5e5752" d="M500 200h100v100H500z"/><path fill="#bcac9f" d="M600 200h100v100H600z"/><path fill="#cebbaa" d="M700 200h100v100H700z"/><path fill="#b8b4b2" d="M0 300h100v100H0z"/><path fill="#4b3f3f" d="M100 300h100v100H100z"/><path fill="#372b2a" d="M200 300h100v100H200z"/><path fill="#613a26" d="M300 300h100v100H300z"/><path fill="#3f2821" d="M400 300h100v100H400z"/><path fill="#432e28" d="M500 300h100v100H500z"/><path fill="#8e7e71" d="M600 300h100v100H600z"/><path fill="#c5b4a4" d="M700 300h100v100H700z"/><path fill="#bcbabb" d="M0 400h100v100H0z"/><path fill="#493b39" d="M100 400h100v100H100z"/><path fill="#6b402e" d="M200 400h100v100H200z"/><path fill="#7b4c29" d="M300 400h100v100H300z"/><path fill="#2b1a13" d="M400 400h100v100H400z"/><path fill="#6e5f56" d="M500 400h100v100H500z"/><path fill="#b4a896" d="M600 400h100v100H600z"/><path fill="#af9e8f" d="M700 400h100v100H700z"/><path fill="#a4a19d" d="M0 500h100v100H0z"/><path fill="#443b35" d="M100 500h100v100H100z"/><path fill="#483229" d="M200 500h100v100H200z"/><path fill="#573b29" d="M300 500h100v100H300z"/><path fill="#241b16" d="M400 500h100v100H400z"/><path fill="#756c62" d="M500 500h100v100H500z"/><path fill="#ba9e91" d="M600 500h100v100H600z"/><path fill="#a89485" d="M700 500h100v100H700z"/><path fill="#8d887f" d="M0 600h100v100H0z"/><path fill="#393730" d="M100 600h100v100H100z"/><path fill="#0d1215" d="M200 600h100v100H200z"/><path fill="#262623" d="M300 600h100v100H300z"/><path fill="#484339" d="M400 600h100v100H400z"/><path fill="#6d6558" d="M500 600h100v100H500z"/><path fill="#978675" d="M600 600h100v100H600z"/><path fill="#9c8b7a" d="M700 600h100v100H700z"/><path fill="#9c9b9e" d="M0 700h100v100H0z"/><path fill="#3c3932" d="M100 700h100v100H100z"/><path fill="#141616" d="M200 700h100v100H200z"/><path fill="#26251f" d="M300 700h100v100H300z"/><path fill="#292720" d="M400 700h100v100H400z"/><path fill="#5d5748" d="M500 700h100v100H500z"/><path fill="#8c826e" d="M600 700h100v100H600z"/><path fill="#877864" d="M700 700h100v100H700z"/></svg>