<svg xmlns="http://www.w3.org/2000/svg" viewBox="0 0 800 600"><defs/><path fill="#f5dad9" d="M0 0h100v100H0z"/><path fill="#faccce" d="M100 0h100v100H100z"/><path fill="#fbdfe0" d="M200 0h100v100H200z"/><path fill="#f9eaea" d="M300 0h100v100H300z"/><path fill="#feeeef" d="M400 0h100v100H400z"/><path fill="#fcecec" d="M500 0h100v100H500z"/><path fill="#fbeceb" d="M600 0h100v100H600z"/><path fill="#edcbcd" d="M700 0h100v100H700z"/><path fill="#f5dfe0" d="M0 100h100v100H0z"/><path fill="#c09ea0" d="M100 100h100v100H100z"/><path fill="#dec3c5" d="M200 100h100v100H200z"/><path fill="#ebe9e8" d="M300 100h100v100H300z"/><path fill="#aec0b3" d="M400 100h100v100H400z"/><path fill="#b8c7b9" d="M500 100h100v100H500z"/><path fill="#efe4eb" d="M600 100h100v100H600z"/><path fill="#e9c8cd" d="M700 100h100v100H700z"/><path fill="#f9fcfc" d="M0 200h100v100H0z"/><path fill="#9f9b9e" d="M100 200h100v100H100z"/><path fill="#cccacd" d="M200 200h100v100H200z"/><path fill="#f4fcf9" d="M300 200h100v100H300z"/><path fill="#9d9aa7" d="M400 200h100v100H400z"/><path fill="#857f89" d="M500 200h100v100H500z"/><path fill="#8f7db0" d="M600 200h100v100H600z"/><path fill="#d6adbd" d="M700 200h100v100H700z"/><path fill="#edecec" d="M0 300h100v100H0z"/><path fill="#f6f1f1" d="M100 300h100v100H100z"/><path fill="#eeeded" d="M200 300h100v100H200z"/><path fill="#bdc2c1" d="M300 300h100v100H300z"/><path fill="#dcd4e0" d="M400 300h100v100H400z"/><path fill="#8f9a99" d="M500 300h100v100H500z"/><path fill="#879499" d="M600 300h100v100H600z"/><path fill="#d9e0df" d="M700 300h100v100H700z"/><path fill="#ececeb" d="M0 400h100v100H0z"/><path fill="#d7d8db" d="M100 400h100v100H100z"/><path fill="#b7b9b9" d="M200 400h100v100H200z"/><path fill="#9c978d" d="M300 400h100v100H300z"/><path fill="#afb2b0" d="M400 400h100v100H400z"/><path fill="#91a4a3" d="M500 400h100v100H500z"/><path fill="#868c8e" d="M600 400h100v100H600z"/><path fill="#e6d8d8" d="M700 400h100v100H700z"/><path fill="#fff" d="M0 500h100v100H0z"/><path fill="#989d9e" d="M100 500h100v100H100z"/><path fill="#7b7d7d" d="M200 500h100v100H200z"/><path fill="#e6e8e8" d="M300 500h100v100H300z"/><path fill="#9eaaab" d="M400 500h100v100H400z"/><path fill="#dfe1e1" d="M500 500h100v100H500z"/><path fill="#e3e3e4" d="M600 500h100v100H600z"/><path fill="#eee6e8" d="M700 500h100v100H700z"/></svg>