<svg xmlns="http://www.w3.org/2000/svg" viewBox="0 0 800 400"><defs/><path fill="#d3d7e0" d="M0 0h100v100H0z"/><path fill="#c7ae9a" d="M100 0h100v100H100z"/><path fill="#d1d0cf" d="M200 0h100v100H200z"/><path fill="#d6dce4" d="M300 0h100v100H300z"/><path fill="#e5e8f1" d="M400 0h100v100H400z"/><path fill="#e0e7f0" d="M500 0h100v100H500z"/><path fill="#d1d7dc" d="M600 0h100v100H600z"/><path fill="#cfcee2" d="M700 0h100v100H700z"/><path fill="#c2bbb5" d="M0 100h100v100H0z"/><path fill="#a68f7b" d="M100 100h100v100H100z"/><path fill="#c3d7d9" d="M200 100h100v100H200z"/><path fill="#b6c0c5" d="M300 100h100v100H300z"/><path fill="#bdb9bd" d="M400 100h100v100H400z"/><path fill="#cdcacb" d="M500 100h100v100H500z"/><path fill="#bca8ab" d="M600 100h100v100H600z"/><path fill="#c4c2d5" d="M700 100h100v100H700z"/><path fill="#c7b8ab" d="M0 200h100v100H0z"/><path fill="#ad9985" d="M100 200h100v100H100z"/><path fill="#d7e9ea" d="M200 200h100v100H200z"/><path fill="#b5bcbb" d="M300 200h100v100H300z"/><path fill="#938596" d="M400 200h100v100H400z"/><path fill="#767c8c" d="M500 200h100v100H500z"/><path fill="#7f897e" d="M600 200h100v100H600z"/><path fill="#c4c5d1" d="M700 200h100v100H700z"/><path fill="#cfbcad" d="M0 300h100v100H0z"/><path fill="#cfbaa9" d="M100 300h100v100H100z"/><path fill="#cfd0cd" d="M200 300h100v100H200z"/><path fill="#e6e6dd" d="M300 300h100v100H300z"/><path fill="#dbcccc" d="M400 300h100v100H400z"/><path fill="#a28d85" d="M500 300h100v100H500z"/><path fill="#c2a78b" d="M600 300h100v100H600z"/><path fill="#d9c7c8" d="M700 300h100v100H700z"/></svg>