<svg xmlns="http://www.w3.org/2000/svg" viewBox="0 0 800 600"><defs/><path fill="#e6e6eb" d="M0 0h100v100H0z"/><path fill="#d9dae2" d="M100 0h100v100H100z"/><path fill="#d0d2d7" d="M200 0h100v100H200z"/><path fill="#cabec1" d="M300 0h100v100H300z"/><path fill="#c4b2b3" d="M400 0h100v100H400z"/><path fill="#af9c9c" d="M500 0h100v100H500z"/><path fill="#ada2a0" d="M600 0h100v100H600z"/><path fill="#aaa7a2" d="M700 0h100v100H700z"/><path fill="#e4e4ec" d="M0 100h100v100H0z"/><path fill="#d0d5d5" d="M100 100h100v100H100z"/><path fill="#cbadb0" d="M200 100h100v100H200z"/><path fill="#c1262a" d="M300 100h100v100H300z"/><path fill="#bb2121" d="M400 100h100v100H400z"/><path fill="#a40c05" d="M500 100h100v100H500z"/><path fill="#a86460" d="M600 100h100v100H600z"/><path fill="#b3b9b5" d="M700 100h100v100H700z"/><path fill="#dddbdb" d="M0 200h100v100H0z"/><path fill="#c0bfa5" d="M100 200h100v100H100z"/><path fill="#bf7680" d="M200 200h100v100H200z"/><path fill="#a02521" d="M300 200h100v100H300z"/><path fill="#a6262f" d="M400 200h100v100H400z"/><path fill="#443e59" d="M500 200h100v100H500z"/><path fill="#78808c" d="M600 200h100v100H600z"/><path fill="#b9b7b4" d="M700 200h100v100H700z"/><path fill="#e4e3e4" d="M0 300h100v100H0z"/><path fill="#d2d3dd" d="M100 300h100v100H100z"/><path fill="#c28a79" d="M200 300h100v100H200z"/><path fill="#9b5930" d="M300 300h100v100H300z"/><path fill="#ab633b" d="M400 300h100v100H400z"/><path fill="#634e80" d="M500 300h100v100H500z"/><path fill="#867c95" d="M600 300h100v100H600z"/><path fill="#b4b4af" d="M700 300h100v100H700z"/><path fill="#d8daed" d="M0 400h100v100H0z"/><path fill="#d1cfbb" d="M100 400h100v100H100z"/><path fill="#b39d5f" d="M200 400h100v100H200z"/><path fill="#835a86" d="M300 400h100v100H300z"/><path fill="#bb9640" d="M400 400h100v100H400z"/><path fill="#9d521d" d="M500 400h100v100H500z"/><path fill="#9d632a" d="M600 400h100v100H600z"/><path fill="#adab98" d="M700 400h100v100H700z"/><path fill="#c3c0bb" d="M0 500h100v100H0z"/><path fill="#dac570" d="M100 500h100v100H100z"/><path fill="#a89e5d" d="M200 500h100v100H200z"/><path fill="#5f7498" d="M300 500h100v100H300z"/><path fill="#ae9e4b" d="M400 500h100v100H400z"/><path fill="#bd9d20" d="M500 500h100v100H500z"/><path fill="#a78617" d="M600 500h100v100H600z"/><path fill="#9c8b63" d="M700 500h100v100H700z"/></svg>