<svg xmlns="http://www.w3.org/2000/svg" viewBox="0 0 800 400"><defs/><path fill="#b59983" d="M0 0h100v100H0z"/><path fill="#9f8371" d="M100 0h100v100H100z"/><path fill="#a78a73" d="M200 0h100v100H200z"/><path fill="#bea38b" d="M300 0h100v100H300z"/><path fill="#dbc2ac" d="M400 0h100v100H400z"/><path fill="#e1cbb9" d="M500 0h100v100H500z"/><path fill="#edd8c1" d="M600 0h100v100H600z"/><path fill="#efdac4" d="M700 0h100v100H700z"/><path fill="#a78873" d="M0 100h100v100H0z"/><path fill="#916855" d="M100 100h100v100H100z"/><path fill="#6b472a" d="M200 100h100v100H200z"/><path fill="#76692f" d="M300 100h100v100H300z"/><path fill="#a7a185" d="M400 100h100v100H400z"/><path fill="#e8d2c7" d="M500 100h100v100H500z"/><path fill="#f1e1d7" d="M600 100h100v100H600z"/><path fill="#ecd8c6" d="M700 100h100v100H700z"/><path fill="#a68870" d="M0 200h100v100H0z"/><path fill="#734f3d" d="M100 200h100v100H100z"/><path fill="#5f3c1c" d="M200 200h100v100H200z"/><path fill="#655b20" d="M300 200h100v100H300z"/><path fill="#6a6d58" d="M400 200h100v100H400z"/><path fill="#b09a8b" d="M500 200h100v100H500z"/><path fill="#e5d1c5" d="M600 200h100v100H600z"/><path fill="#e7d1ba" d="M700 200h100v100H700z"/><path fill="#7a644f" d="M0 300h100v100H0z"/><path fill="#2e2417" d="M100 300h100v100H100z"/><path fill="#5b4a39" d="M200 300h100v100H200z"/><path fill="#483d28" d="M300 300h100v100H300z"/><path fill="#434340" d="M400 300h100v100H400z"/><path fill="#958366" d="M500 300h100v100H500z"/><path fill="#cdb39c" d="M600 300h100v100H600z"/><path fill="#e4c9ab" d="M700 300h100v100H700z"/></svg>