<svg xmlns="http://www.w3.org/2000/svg" viewBox="0 0 800 400"><defs/><path fill="#fcfcfb" d="M0 0h100v100H0z"/><path fill="#f3f3f6" d="M100 0h100v100H100z"/><path fill="#f3f4f6" d="M200 0h100v100H200z"/><path fill="#dbd8e3" d="M300 0h100v100H300z"/><path fill="#a7a1bf" d="M400 0h100v100H400z"/><path fill="#a29cbe" d="M500 0h100v100H500z"/><path fill="#b2accc" d="M600 0h100v100H600z"/><path fill="#cecbdc" d="M700 0h100v100H700z"/><path fill="#dad7e6" d="M0 100h100v100H0z"/><path fill="#f7f7f7" d="M100 100h100v100H100z"/><path fill="#c2bdd4" d="M200 100h100v100H200z"/><path fill="#a29bc1" d="M300 100h100v100H300z"/><path fill="#786fa0" d="M400 100h100v100H400z"/><path fill="#918ab2" d="M500 100h100v100H500z"/><path fill="#aba6c7" d="M600 100h100v100H600z"/><path fill="#a39cc3" d="M700 100h100v100H700z"/><path fill="#bab5ce" d="M0 200h100v100H0z"/><path fill="#d3d1df" d="M100 200h100v100H100z"/><path fill="#c3bfd4" d="M200 200h100v100H200z"/><path fill="#d9d5e4" d="M300 200h100v100H300z"/><path fill="#c9c5d8" d="M400 200h100v100H400z"/><path fill="#ccc9dc" d="M500 200h100v100H500z"/><path fill="#cfccde" d="M600 200h100v100H600z"/><path fill="#ada8c8" d="M700 200h100v100H700z"/><path fill="#dfdce6" d="M0 300h100v100H0z"/><path fill="#efeef3" d="M100 300h100v100H100z"/><path fill="#e1e0ed" d="M200 300h100v100H200z"/><path fill="#dfdde9" d="M300 300h100v100H300z"/><path fill="#dfdce6" d="M400 300h100v100H400z"/><path fill="#bbb7d3" d="M500 300h100v100H500z"/><path fill="#b6b1cf" d="M600 300h100v100H600z"/><path fill="#978fbb" d="M700 300h100v100H700z"/></svg>