<svg xmlns="http://www.w3.org/2000/svg" viewBox="0 0 800 500"><defs/><path fill="#dff6ff" d="M0 0h100v100H0z"/><path fill="#a5b4bd" d="M100 0h100v100H100z"/><path fill="#35675c" d="M200 0h100v100H200z"/><path fill="#32a38c" d="M300 0h100v100H300z"/><path fill="#34a089" d="M400 0h100v100H400z"/><path fill="#13aea2" d="M500 0h100v100H500z"/><path fill="#4eb2a5" d="M600 0h100v100H600z"/><path fill="#d2d6d7" d="M700 0h100v100H700z"/><path fill="#dcf0ff" d="M0 100h100v100H0z"/><path fill="#837c81" d="M100 100h100v100H100z"/><path fill="#684c40" d="M200 100h100v100H200z"/><path fill="#5c8887" d="M300 100h100v100H300z"/><path fill="#2ea39f" d="M400 100h100v100H400z"/><path fill="#14a897" d="M500 100h100v100H500z"/><path fill="#3da899" d="M600 100h100v100H600z"/><path fill="#b1a69f" d="M700 100h100v100H700z"/><path fill="#cad6e6" d="M0 200h100v100H0z"/><path fill="#60514e" d="M100 200h100v100H100z"/><path fill="#7f5349" d="M200 200h100v100H200z"/><path fill="#4a7561" d="M300 200h100v100H300z"/><path fill="#169682" d="M400 200h100v100H400z"/><path fill="#307f75" d="M500 200h100v100H500z"/><path fill="#678a7b" d="M600 200h100v100H600z"/><path fill="#9f988b" d="M700 200h100v100H700z"/><path fill="#9997a6" d="M0 300h100v100H0z"/><path fill="#74542a" d="M100 300h100v100H100z"/><path fill="#a8824a" d="M200 300h100v100H200z"/><path fill="#806d51" d="M300 300h100v100H300z"/><path fill="#aa7d3a" d="M400 300h100v100H400z"/><path fill="#6f6b77" d="M500 300h100v100H500z"/><path fill="#656b81" d="M600 300h100v100H600z"/><path fill="#afaaaa" d="M700 300h100v100H700z"/><path fill="#715954" d="M0 400h100v100H0z"/><path fill="#aa6f26" d="M100 400h100v100H100z"/><path fill="#c48f41" d="M200 400h100v100H200z"/><path fill="#9c6c48" d="M300 400h100v100H300z"/><path fill="#b27246" d="M400 400h100v100H400z"/><path fill="#77492d" d="M500 400h100v100H500z"/><path fill="#4d331d" d="M600 400h100v100H600z"/><path fill="#b59580" d="M700 400h100v100H700z"/></svg>