<svg xmlns="http://www.w3.org/2000/svg" viewBox="0 0 800 600"><defs/><path fill="#c1b4b1" d="M0 0h100v100H0z"/><path fill="#a99793" d="M100 0h100v100H100z"/><path fill="#a18a81" d="M200 0h100v100H200z"/><path fill="#c0b4ae" d="M300 0h100v100H300z"/><path fill="#baadab" d="M400 0h100v100H400z"/><path fill="#b7aaa8" d="M500 0h100v100H500z"/><path fill="#b6aaa6" d="M600 0h100v100H600z"/><path fill="#948581" d="M700 0h100v100H700z"/><path fill="#c9b6b5" d="M0 100h100v100H0z"/><path fill="#9c7c70" d="M100 100h100v100H100z"/><path fill="#967663" d="M200 100h100v100H200z"/><path fill="#c0b5ab" d="M300 100h100v100H300z"/><path fill="#a39178" d="M400 100h100v100H400z"/><path fill="#b8a795" d="M500 100h100v100H500z"/><path fill="#b7a9a3" d="M600 100h100v100H600z"/><path fill="#a0908c" d="M700 100h100v100H700z"/><path fill="#c9b9b6" d="M0 200h100v100H0z"/><path fill="#8b6a5c" d="M100 200h100v100H100z"/><path fill="#a79284" d="M200 200h100v100H200z"/><path fill="#b9b2a8" d="M300 200h100v100H300z"/><path fill="#a99b81" d="M400 200h100v100H400z"/><path fill="#ac9d90" d="M500 200h100v100H500z"/><path fill="#ab9b95" d="M600 200h100v100H600z"/><path fill="#b29e97" d="M700 200h100v100H700z"/><path fill="#c7b6b1" d="M0 300h100v100H0z"/><path fill="#8c6a5a" d="M100 300h100v100H100z"/><path fill="#998a7c" d="M200 300h100v100H200z"/><path fill="#b8afa6" d="M300 300h100v100H300z"/><path fill="#c7bcb0" d="M400 300h100v100H400z"/><path fill="#9d9480" d="M500 300h100v100H500z"/><path fill="#845d4a" d="M600 300h100v100H600z"/><path fill="#a38c7f" d="M700 300h100v100H700z"/><path fill="#b9a29a" d="M0 400h100v100H0z"/><path fill="#86624e" d="M100 400h100v100H100z"/><path fill="#bba794" d="M200 400h100v100H200z"/><path fill="#cbc2be" d="M300 400h100v100H300z"/><path fill="#a2a4aa" d="M400 400h100v100H400z"/><path fill="#b2a281" d="M500 400h100v100H500z"/><path fill="#b09b8b" d="M600 400h100v100H600z"/><path fill="#a2938c" d="M700 400h100v100H700z"/><path fill="#aa8d82" d="M0 500h100v100H0z"/><path fill="#9c785b" d="M100 500h100v100H100z"/><path fill="#d0c2a7" d="M200 500h100v100H200z"/><path fill="#d4c9c7" d="M300 500h100v100H300z"/><path fill="#abacab" d="M400 500h100v100H400z"/><path fill="#9d938c" d="M500 500h100v100H500z"/><path fill="#c6b7b4" d="M600 500h100v100H600z"/><path fill="#aa9596" d="M700 500h100v100H700z"/></svg>