<svg xmlns="http://www.w3.org/2000/svg" viewBox="0 0 800 700"><defs/><path fill="#fcfcfb" d="M0 0h100v100H0z"/><path fill="#faf5f3" d="M100 0h100v100H100z"/><path fill="#fcfaf9" d="M200 0h100v100H200z"/><path fill="#fffffe" d="M300 0h100v100H300z"/><path fill="#fdfdfc" d="M400 0h100v100H400z"/><path fill="#fefbfc" d="M500 0h100v100H500z"/><path fill="#fefcfc" d="M600 0h100v100H600z"/><path fill="#f9fbfb" d="M700 0h100v100H700z"/><path fill="#f4f0ed" d="M0 100h100v100H0z"/><path fill="#f4d8d0" d="M100 100h100v100H100z"/><path fill="#d2cecd" d="M200 100h100v100H200z"/><path fill="#e8ecf1" d="M300 100h100v100H300z"/><path fill="#ecf2f2" d="M400 100h100v100H400z"/><path fill="#d7e2dc" d="M500 100h100v100H500z"/><path fill="#e6e8df" d="M600 100h100v100H600z"/><path fill="#dbebec" d="M700 100h100v100H700z"/><path fill="#eee2dc" d="M0 200h100v100H0z"/><path fill="#cdc9c2" d="M100 200h100v100H100z"/><path fill="#b9b774" d="M200 200h100v100H200z"/><path fill="#f7d766" d="M300 200h100v100H300z"/><path fill="#ced5aa" d="M400 200h100v100H400z"/><path fill="#709762" d="M500 200h100v100H500z"/><path fill="#b4bfa8" d="M600 200h100v100H600z"/><path fill="#dff0f4" d="M700 200h100v100H700z"/><path fill="#e0d3cf" d="M0 300h100v100H0z"/><path fill="#9cb092" d="M100 300h100v100H100z"/><path fill="#b7b86f" d="M200 300h100v100H200z"/><path fill="#ffd862" d="M300 300h100v100H300z"/><path fill="#e2d0a7" d="M400 300h100v100H400z"/><path fill="#bbb6a9" d="M500 300h100v100H500z"/><path fill="#d9bdaa" d="M600 300h100v100H600z"/><path fill="#d7e3e1" d="M700 300h100v100H700z"/><path fill="#e9d9d5" d="M0 400h100v100H0z"/><path fill="#e7d2af" d="M100 400h100v100H100z"/><path fill="#dac9ba" d="M200 400h100v100H200z"/><path fill="#cbc2c3" d="M300 400h100v100H300z"/><path fill="#aab1b4" d="M400 400h100v100H400z"/><path fill="#d4bccc" d="M500 400h100v100H500z"/><path fill="#dfb4b6" d="M600 400h100v100H600z"/><path fill="#dbd4ce" d="M700 400h100v100H700z"/><path fill="#fef7f1" d="M0 500h100v100H0z"/><path fill="#fbf4ef" d="M100 500h100v100H100z"/><path fill="#f4efe9" d="M200 500h100v100H200z"/><path fill="#f7f0ea" d="M300 500h100v100H300z"/><path fill="#e6eae6" d="M400 500h100v100H400z"/><path fill="#f0edee" d="M500 500h100v100H500z"/><path fill="#fbf1f7" d="M600 500h100v100H600z"/><path fill="#fbf4f3" d="M700 500h100v100H700z"/><path fill="#fff" d="M0 600h100v100H0zm100 0h100v100H100zm100 0h100v100H200zm100 0h100v100H300zm100 0h100v100H400zm100 0h100v100H500zm100 0h100v100H600zm100 0h100v100H700z"/></svg>