<svg xmlns="http://www.w3.org/2000/svg" viewBox="0 0 800 400"><defs/><path fill="#b3b3b2" d="M0 0h100v100H0z"/><path fill="#afa7a2" d="M100 0h100v100H100z"/><path fill="#ced4d9" d="M200 0h100v100H200z"/><path fill="#d3d5da" d="M300 0h100v100H300z"/><path fill="#d8dde3" d="M400 0h100v100H400z"/><path fill="#d5d9dd" d="M500 0h100v100H500z"/><path fill="#d9dee1" d="M600 0h100v100H600z"/><path fill="#d8dfe0" d="M700 0h100v100H700z"/><path fill="#a6a5a3" d="M0 100h100v100H0z"/><path fill="#9e9f9b" d="M100 100h100v100H100z"/><path fill="#cbced3" d="M200 100h100v100H200z"/><path fill="#cecccf" d="M300 100h100v100H300z"/><path fill="#dce0e7" d="M400 100h100v100H400z"/><path fill="#d3d3d7" d="M500 100h100v100H500z"/><path fill="#d7d8d9" d="M600 100h100v100H600z"/><path fill="#dfe4e6" d="M700 100h100v100H700z"/><path fill="#a69d9c" d="M0 200h100v100H0z"/><path fill="#a49d93" d="M100 200h100v100H100z"/><path fill="#bcb4ad" d="M200 200h100v100H200z"/><path fill="#d3c6c9" d="M300 200h100v100H300z"/><path fill="#cdc6c5" d="M400 200h100v100H400z"/><path fill="#d0c6c6" d="M500 200h100v100H500z"/><path fill="#d0c7c5" d="M600 200h100v100H600z"/><path fill="#dadddc" d="M700 200h100v100H700z"/><path fill="#9e8e87" d="M0 300h100v100H0z"/><path fill="#9e8882" d="M100 300h100v100H100z"/><path fill="#c2a8a4" d="M200 300h100v100H200z"/><path fill="#d0b0aa" d="M300 300h100v100H300z"/><path fill="#bda4a1" d="M400 300h100v100H400z"/><path fill="#c7aca8" d="M500 300h100v100H500z"/><path fill="#d1b5b0" d="M600 300h100v100H600z"/><path fill="#d1c0bb" d="M700 300h100v100H700z"/></svg>