<svg xmlns="http://www.w3.org/2000/svg" viewBox="0 0 800 500"><defs/><path fill="#626d73" d="M0 0h100v100H0z"/><path fill="#657079" d="M100 0h100v100H100z"/><path fill="#535255" d="M200 0h100v100H200z"/><path fill="#64686c" d="M300 0h100v100H300z"/><path fill="#6e7273" d="M400 0h100v100H400z"/><path fill="#6c7174" d="M500 0h100v100H500z"/><path fill="#61676c" d="M600 0h100v100H600z"/><path fill="#575757" d="M700 0h100v100H700z"/><path fill="#7c95a7" d="M0 100h100v100H0z"/><path fill="#7b99b3" d="M100 100h100v100H100z"/><path fill="#5a626c" d="M200 100h100v100H200z"/><path fill="#8b9aa7" d="M300 100h100v100H300z"/><path fill="#a5b0b7" d="M400 100h100v100H400z"/><path fill="#a1aeb7" d="M500 100h100v100H500z"/><path fill="#68717a" d="M600 100h100v100H600z"/><path fill="#585758" d="M700 100h100v100H700z"/><path fill="#707e8a" d="M0 200h100v100H0z"/><path fill="#778698" d="M100 200h100v100H100z"/><path fill="#6c717a" d="M200 200h100v100H200z"/><path fill="#8e9aa5" d="M300 200h100v100H300z"/><path fill="#9ba8b4" d="M400 200h100v100H400z"/><path fill="#9ba2a8" d="M500 200h100v100H500z"/><path fill="#585756" d="M600 200h100v100H600z"/><path fill="#555" d="M700 200h100v100H700z"/><path fill="#6c7780" d="M0 300h100v100H0z"/><path fill="#8c95a2" d="M100 300h100v100H100z"/><path fill="#999aa1" d="M200 300h100v100H200z"/><path fill="#99a0a8" d="M300 300h100v100H300z"/><path fill="#7e8996" d="M400 300h100v100H400z"/><path fill="#999ea6" d="M500 300h100v100H500z"/><path fill="#6e6d6e" d="M600 300h100v100H600z"/><path fill="#555455" d="M700 300h100v100H700z"/><path fill="#82878e" d="M0 400h100v100H0z"/><path fill="#a6abb2" d="M100 400h100v100H100z"/><path fill="#8b9096" d="M200 400h100v100H200z"/><path fill="#788186" d="M300 400h100v100H300z"/><path fill="#7d848a" d="M400 400h100v100H400z"/><path fill="#75797e" d="M500 400h100v100H500z"/><path fill="#515754" d="M600 400h100v100H600z"/><path fill="#4e5350" d="M700 400h100v100H700z"/></svg>