<svg xmlns="http://www.w3.org/2000/svg" viewBox="0 0 800 600"><defs/><path fill="#f9f9f9" d="M0 0h100v100H0z"/><path fill="#dcdfdf" d="M100 0h100v100H100z"/><path fill="#e8f0f1" d="M200 0h100v100H200z"/><path fill="#eff5f6" d="M300 0h100v100H300z"/><path fill="#f9fbfb" d="M400 0h100v100H400z"/><path fill="#fbfdfd" d="M500 0h100v100H500z"/><path fill="#eef5f6" d="M600 0h100v100H600z"/><path fill="#fefefe" d="M700 0h100v100H700z"/><path fill="#dadfe0" d="M0 100h100v100H0z"/><path fill="#9b9f95" d="M100 100h100v100H100z"/><path fill="#709594" d="M200 100h100v100H200z"/><path fill="#6da2a9" d="M300 100h100v100H300z"/><path fill="#dcdcdc" d="M400 100h100v100H400z"/><path fill="#e5e2e1" d="M500 100h100v100H500z"/><path fill="#82adb2" d="M600 100h100v100H600z"/><path fill="#e1ecee" d="M700 100h100v100H700z"/><path fill="#e1eef0" d="M0 200h100v100H0z"/><path fill="#879e9c" d="M100 200h100v100H100z"/><path fill="#699698" d="M200 200h100v100H200z"/><path fill="#5d9aa0" d="M300 200h100v100H300z"/><path fill="#aec4c7" d="M400 200h100v100H400z"/><path fill="#acc2c5" d="M500 200h100v100H500z"/><path fill="#609ba2" d="M600 200h100v100H600z"/><path fill="#dfecee" d="M700 200h100v100H700z"/><path fill="#deebed" d="M0 300h100v100H0z"/><path fill="#7b9a9c" d="M100 300h100v100H100z"/><path fill="#549198" d="M200 300h100v100H200z"/><path fill="#478e95" d="M300 300h100v100H300z"/><path fill="#488c94" d="M400 300h100v100H400z"/><path fill="#5d8687" d="M500 300h100v100H500z"/><path fill="#7ca0a3" d="M600 300h100v100H600z"/><path fill="#e6ebec" d="M700 300h100v100H700z"/><path fill="#f4f7f7" d="M0 400h100v100H0z"/><path fill="#c8d1d2" d="M100 400h100v100H100z"/><path fill="#abc4c7" d="M200 400h100v100H200z"/><path fill="#a3c4c7" d="M300 400h100v100H300z"/><path fill="#9dbcbf" d="M400 400h100v100H400z"/><path fill="#c7c7c6" d="M500 400h100v100H500z"/><path fill="#d4d0d0" d="M600 400h100v100H600z"/><path fill="#d8d8d8" d="M700 400h100v100H700z"/><path fill="#fefdfd" d="M0 500h100v100H0z"/><path fill="#fcfcfc" d="M100 500h100v100H100z"/><path fill="#fff" d="M200 500h100v100H200zm100 0h100v100H300z"/><path fill="#fffefe" d="M400 500h100v100H400z"/><path fill="#fff" d="M500 500h100v100H500z"/><path fill="#e6e6e6" d="M600 500h100v100H600z"/><path fill="#e0e0e0" d="M700 500h100v100H700z"/></svg>