<svg xmlns="http://www.w3.org/2000/svg" viewBox="0 0 800 500"><defs/><path fill="#191c1a" d="M0 0h100v100H0z"/><path fill="#18170e" d="M100 0h100v100H100z"/><path fill="#191d1b" d="M200 0h100v100H200z"/><path fill="#171a19" d="M300 0h100v100H300z"/><path fill="#161816" d="M400 0h100v100H400z"/><path fill="#171916" d="M500 0h100v100H500z"/><path fill="#171b18" d="M600 0h100v100H600z"/><path fill="#191d1c" d="M700 0h100v100H700z"/><path fill="#191a16" d="M0 100h100v100H0z"/><path fill="#191911" d="M100 100h100v100H100z"/><path fill="#1b2121" d="M200 100h100v100H200z"/><path fill="#272c28" d="M300 100h100v100H300z"/><path fill="#343737" d="M400 100h100v100H400z"/><path fill="#474849" d="M500 100h100v100H500z"/><path fill="#313331" d="M600 100h100v100H600z"/><path fill="#1b1f20" d="M700 100h100v100H700z"/><path fill="#191c18" d="M0 200h100v100H0z"/><path fill="#161916" d="M100 200h100v100H100z"/><path fill="#172436" d="M200 200h100v100H200z"/><path fill="#374653" d="M300 200h100v100H300z"/><path fill="#414b52" d="M400 200h100v100H400z"/><path fill="#576474" d="M500 200h100v100H500z"/><path fill="#4b5562" d="M600 200h100v100H600z"/><path fill="#1e2830" d="M700 200h100v100H700z"/><path fill="#191c19" d="M0 300h100v100H0z"/><path fill="#14140e" d="M100 300h100v100H100z"/><path fill="#16232f" d="M200 300h100v100H200z"/><path fill="#293b49" d="M300 300h100v100H300z"/><path fill="#2e3d46" d="M400 300h100v100H400z"/><path fill="#303e44" d="M500 300h100v100H500z"/><path fill="#283741" d="M600 300h100v100H600z"/><path fill="#1e303c" d="M700 300h100v100H700z"/><path fill="#191b19" d="M0 400h100v100H0z"/><path fill="#181a18" d="M100 400h100v100H100z"/><path fill="#25363a" d="M200 400h100v100H200z"/><path fill="#0f181e" d="M300 400h100v100H300z"/><path fill="#03050c" d="M400 400h100v100H400z"/><path fill="#04070e" d="M500 400h100v100H500z"/><path fill="#020309" d="M600 400h100v100H600z"/><path fill="#1d2c33" d="M700 400h100v100H700z"/></svg>