<svg xmlns="http://www.w3.org/2000/svg" viewBox="0 0 800 400"><defs/><path fill="#b2cfbc" d="M0 0h100v100H0z"/><path fill="#588f99" d="M100 0h100v100H100z"/><path fill="#85a2a4" d="M200 0h100v100H200z"/><path fill="#7eadb0" d="M300 0h100v100H300z"/><path fill="#8598b2" d="M400 0h100v100H400z"/><path fill="#8e9fb3" d="M500 0h100v100H500z"/><path fill="#7ca8b2" d="M600 0h100v100H600z"/><path fill="#a9c4bb" d="M700 0h100v100H700z"/><path fill="#a1c1b4" d="M0 100h100v100H0z"/><path fill="#60a8a5" d="M100 100h100v100H100z"/><path fill="#b7aca9" d="M200 100h100v100H200z"/><path fill="#b3adae" d="M300 100h100v100H300z"/><path fill="#83a4a4" d="M400 100h100v100H400z"/><path fill="#958fac" d="M500 100h100v100H500z"/><path fill="#9190b3" d="M600 100h100v100H600z"/><path fill="#8d9aad" d="M700 100h100v100H700z"/><path fill="#81b8ad" d="M0 200h100v100H0z"/><path fill="#66939e" d="M100 200h100v100H100z"/><path fill="#d7a5b9" d="M200 200h100v100H200z"/><path fill="#cd9cb0" d="M300 200h100v100H300z"/><path fill="#a597a2" d="M400 200h100v100H400z"/><path fill="#9b98b2" d="M500 200h100v100H500z"/><path fill="#888aaf" d="M600 200h100v100H600z"/><path fill="#978ca1" d="M700 200h100v100H700z"/><path fill="#769b9f" d="M0 300h100v100H0z"/><path fill="#938ca0" d="M100 300h100v100H100z"/><path fill="#b091a7" d="M200 300h100v100H200z"/><path fill="#a08aa5" d="M300 300h100v100H300z"/><path fill="#b998b4" d="M400 300h100v100H400z"/><path fill="#be95ad" d="M500 300h100v100H500z"/><path fill="#9a819f" d="M600 300h100v100H600z"/><path fill="#87888b" d="M700 300h100v100H700z"/></svg>