<svg xmlns="http://www.w3.org/2000/svg" viewBox="0 0 800 600"><defs/><path fill="#fdfbf8" d="M0 0h100v100H0z"/><path fill="#ecedec" d="M100 0h100v100H100z"/><path fill="#e1edf4" d="M200 0h100v100H200zm100 0h100v100H300z"/><path fill="#dbe9f2" d="M400 0h100v100H400z"/><path fill="#deedf5" d="M500 0h100v100H500z"/><path fill="#e0e9ef" d="M600 0h100v100H600z"/><path fill="#fbfbfb" d="M700 0h100v100H700z"/><path fill="#f8ebd5" d="M0 100h100v100H0z"/><path fill="#767671" d="M100 100h100v100H100z"/><path fill="#304d5d" d="M200 100h100v100H200z"/><path fill="#2d4a5d" d="M300 100h100v100H300z"/><path fill="#35576b" d="M400 100h100v100H400z"/><path fill="#295065" d="M500 100h100v100H500z"/><path fill="#2f5056" d="M600 100h100v100H600z"/><path fill="#d7d4ca" d="M700 100h100v100H700z"/><path fill="#f8e9d7" d="M0 200h100v100H0z"/><path fill="#5c6458" d="M100 200h100v100H100z"/><path fill="#00180f" d="M200 200h100v100H200z"/><path fill="#2f4a48" d="M300 200h100v100H300z"/><path fill="#4c6870" d="M400 200h100v100H400z"/><path fill="#152721" d="M500 200h100v100H500z"/><path fill="#2c4637" d="M600 200h100v100H600z"/><path fill="#b3b2a2" d="M700 200h100v100H700z"/><path fill="#e6dad2" d="M0 300h100v100H0z"/><path fill="#78766a" d="M100 300h100v100H100z"/><path fill="#6c7f74" d="M200 300h100v100H200z"/><path fill="#89918a" d="M300 300h100v100H300z"/><path fill="#9fa493" d="M400 300h100v100H400z"/><path fill="#5a7574" d="M500 300h100v100H500z"/><path fill="#8c988c" d="M600 300h100v100H600z"/><path fill="#d6d1c1" d="M700 300h100v100H700z"/><path fill="#d0c5bd" d="M0 400h100v100H0z"/><path fill="#cfc2b9" d="M100 400h100v100H100z"/><path fill="#fffff7" d="M200 400h100v100H200z"/><path fill="#e1dccb" d="M300 400h100v100H300z"/><path fill="#cfcbb0" d="M400 400h100v100H400z"/><path fill="#dddfd0" d="M500 400h100v100H500z"/><path fill="#f0e0d0" d="M600 400h100v100H600z"/><path fill="#eee0cb" d="M700 400h100v100H700z"/><path fill="#fcfaf8" d="M0 500h100v100H0z"/><path fill="#fefefb" d="M100 500h100v100H100z"/><path fill="#f5f5f2" d="M200 500h100v100H200z"/><path fill="#eef1ea" d="M300 500h100v100H300z"/><path fill="#f5f8f3" d="M400 500h100v100H400z"/><path fill="#efefe8" d="M500 500h100v100H500z"/><path fill="#ebe4de" d="M600 500h100v100H600z"/><path fill="#f8f5f0" d="M700 500h100v100H700z"/></svg>