<svg xmlns="http://www.w3.org/2000/svg" viewBox="0 0 800 600"><defs/><path fill="#a5b2ae" d="M0 0h100v100H0z"/><path fill="#87928b" d="M100 0h100v100H100z"/><path fill="#9f988e" d="M200 0h100v100H200z"/><path fill="#b7aaa5" d="M300 0h100v100H300z"/><path fill="#bbbbb9" d="M400 0h100v100H400z"/><path fill="#b9b4af" d="M500 0h100v100H500z"/><path fill="#b6a693" d="M600 0h100v100H600z"/><path fill="#bdab99" d="M700 0h100v100H700z"/><path fill="#4d9d9c" d="M0 100h100v100H0z"/><path fill="#286783" d="M100 100h100v100H100z"/><path fill="#8c7860" d="M200 100h100v100H200z"/><path fill="#be8451" d="M300 100h100v100H300z"/><path fill="#a69681" d="M400 100h100v100H400z"/><path fill="#9c8f7a" d="M500 100h100v100H500z"/><path fill="#a97339" d="M600 100h100v100H600z"/><path fill="#c47a3b" d="M700 100h100v100H700z"/><path fill="#53aca9" d="M0 200h100v100H0z"/><path fill="#3e7f8d" d="M100 200h100v100H100z"/><path fill="#a98354" d="M200 200h100v100H200z"/><path fill="#b99b75" d="M300 200h100v100H300z"/><path fill="#957b6c" d="M400 200h100v100H400z"/><path fill="#a8917f" d="M500 200h100v100H500z"/><path fill="#7b6450" d="M600 200h100v100H600z"/><path fill="#96673d" d="M700 200h100v100H700z"/><path fill="#5ab0ae" d="M0 300h100v100H0z"/><path fill="#588992" d="M100 300h100v100H100z"/><path fill="#a0967e" d="M200 300h100v100H200z"/><path fill="#b4ad94" d="M300 300h100v100H300z"/><path fill="#935650" d="M400 300h100v100H400z"/><path fill="#948f8f" d="M500 300h100v100H500z"/><path fill="#667678" d="M600 300h100v100H600z"/><path fill="#a48466" d="M700 300h100v100H700z"/><path fill="#63aaac" d="M0 400h100v100H0z"/><path fill="#5f939a" d="M100 400h100v100H100z"/><path fill="#99a0a2" d="M200 400h100v100H200z"/><path fill="#b5b5a9" d="M300 400h100v100H300z"/><path fill="#97908a" d="M400 400h100v100H400z"/><path fill="#8c979e" d="M500 400h100v100H500z"/><path fill="#77888c" d="M600 400h100v100H600z"/><path fill="#b1ada9" d="M700 400h100v100H700z"/><path fill="#b6c5c3" d="M0 500h100v100H0z"/><path fill="#b3beb9" d="M100 500h100v100H100z"/><path fill="#c0c4c6" d="M200 500h100v100H200z"/><path fill="#c0c5c9" d="M300 500h100v100H300z"/><path fill="#c2c7c7" d="M400 500h100v100H400z"/><path fill="#bbbdbe" d="M500 500h100v100H500z"/><path fill="#b7bbc1" d="M600 500h100v100H600z"/><path fill="#b6b9c4" d="M700 500h100v100H700z"/></svg>