<svg xmlns="http://www.w3.org/2000/svg" viewBox="0 0 800 500"><defs/><path fill="#959176" d="M0 0h100v100H0z"/><path fill="#9a9995" d="M100 0h100v100H100z"/><path fill="#a5a6a7" d="M200 0h100v100H200z"/><path fill="#a3a4a4" d="M300 0h100v100H300z"/><path fill="#bdc0be" d="M400 0h100v100H400z"/><path fill="#d5d8d2" d="M500 0h100v100H500z"/><path fill="#9fa2a3" d="M600 0h100v100H600z"/><path fill="#aeac97" d="M700 0h100v100H700z"/><path fill="#b1ac90" d="M0 100h100v100H0z"/><path fill="#c2c4c2" d="M100 100h100v100H100z"/><path fill="#77787e" d="M200 100h100v100H200z"/><path fill="#6e6e73" d="M300 100h100v100H300z"/><path fill="#939694" d="M400 100h100v100H400z"/><path fill="#abada6" d="M500 100h100v100H500z"/><path fill="#4d4e4d" d="M600 100h100v100H600z"/><path fill="#918d7f" d="M700 100h100v100H700z"/><path fill="#b1af9d" d="M0 200h100v100H0z"/><path fill="#bcbbbb" d="M100 200h100v100H100z"/><path fill="#b5b2ae" d="M200 200h100v100H200z"/><path fill="#cecbc7" d="M300 200h100v100H300z"/><path fill="#b7b0aa" d="M400 200h100v100H400z"/><path fill="#c0bdb7" d="M500 200h100v100H500z"/><path fill="#dcdfe0" d="M600 200h100v100H600z"/><path fill="#bcb3a3" d="M700 200h100v100H700z"/><path fill="#a1a29c" d="M0 300h100v100H0z"/><path fill="#b3b2b1" d="M100 300h100v100H100z"/><path fill="#b3aeae" d="M200 300h100v100H200z"/><path fill="#a4aeb4" d="M300 300h100v100H300z"/><path fill="#a8a7a6" d="M400 300h100v100H400z"/><path fill="#cec9bf" d="M500 300h100v100H500z"/><path fill="#b5b6aa" d="M600 300h100v100H600z"/><path fill="#d5d0bd" d="M700 300h100v100H700z"/><path fill="#a6a6a5" d="M0 400h100v100H0z"/><path fill="#d1d1d0" d="M100 400h100v100H100z"/><path fill="#cdd2d6" d="M200 400h100v100H200z"/><path fill="#b4b8be" d="M300 400h100v100H300z"/><path fill="#756f60" d="M400 400h100v100H400z"/><path fill="#9d978c" d="M500 400h100v100H500z"/><path fill="#cac5c0" d="M600 400h100v100H600z"/><path fill="#d6d6d2" d="M700 400h100v100H700z"/></svg>