<svg xmlns="http://www.w3.org/2000/svg" viewBox="0 0 800 400"><defs/><path fill="#cebfbd" d="M0 0h100v100H0z"/><path fill="#a8a6ab" d="M100 0h100v100H100z"/><path fill="#c5b8b7" d="M200 0h100v100H200z"/><path fill="#bcb4b1" d="M300 0h100v100H300z"/><path fill="#cac2c0" d="M400 0h100v100H400z"/><path fill="#c8bfbe" d="M500 0h100v100H500z"/><path fill="#c1b2b3" d="M600 0h100v100H600z"/><path fill="#c0b1b1" d="M700 0h100v100H700z"/><path fill="#d9c6c1" d="M0 100h100v100H0z"/><path fill="#ada9b0" d="M100 100h100v100H100z"/><path fill="#9a9498" d="M200 100h100v100H200z"/><path fill="#9a9795" d="M300 100h100v100H300z"/><path fill="#a2a3a1" d="M400 100h100v100H400z"/><path fill="#9b9d9b" d="M500 100h100v100H500z"/><path fill="#b19997" d="M600 100h100v100H600z"/><path fill="#cdb7b2" d="M700 100h100v100H700z"/><path fill="#c3b6b2" d="M0 200h100v100H0z"/><path fill="#979191" d="M100 200h100v100H100z"/><path fill="#8f8079" d="M200 200h100v100H200z"/><path fill="#927373" d="M300 200h100v100H300z"/><path fill="#937b72" d="M400 200h100v100H400z"/><path fill="#a88a7d" d="M500 200h100v100H500z"/><path fill="#978583" d="M600 200h100v100H600z"/><path fill="#bcadaa" d="M700 200h100v100H700z"/><path fill="#b0aeb2" d="M0 300h100v100H0z"/><path fill="#a79f9b" d="M100 300h100v100H100z"/><path fill="#a29e82" d="M200 300h100v100H200z"/><path fill="#938e69" d="M300 300h100v100H300z"/><path fill="#888069" d="M400 300h100v100H400z"/><path fill="#9b9081" d="M500 300h100v100H500z"/><path fill="#a8a5a0" d="M600 300h100v100H600z"/><path fill="#aca6a3" d="M700 300h100v100H700z"/></svg>