<svg xmlns="http://www.w3.org/2000/svg" viewBox="0 0 800 400"><defs/><path fill="#ebb88d" d="M0 0h100v100H0z"/><path fill="#cd845a" d="M100 0h100v100H100z"/><path fill="#daa777" d="M200 0h100v100H200z"/><path fill="#d5ab7c" d="M300 0h100v100H300z"/><path fill="#d9a87e" d="M400 0h100v100H400z"/><path fill="#d9a476" d="M500 0h100v100H500z"/><path fill="#eab682" d="M600 0h100v100H600z"/><path fill="#dea57d" d="M700 0h100v100H700z"/><path fill="#e2a980" d="M0 100h100v100H0z"/><path fill="#cd885b" d="M100 100h100v100H100z"/><path fill="#ecb078" d="M200 100h100v100H200z"/><path fill="#e8ae79" d="M300 100h100v100H300z"/><path fill="#e9b57c" d="M400 100h100v100H400z"/><path fill="#ecba88" d="M500 100h100v100H500z"/><path fill="#e3af83" d="M600 100h100v100H600z"/><path fill="#d8b175" d="M700 100h100v100H700z"/><path fill="#d79971" d="M0 200h100v100H0z"/><path fill="#c87f53" d="M100 200h100v100H100z"/><path fill="#b7a167" d="M200 200h100v100H200z"/><path fill="#c5996e" d="M300 200h100v100H300z"/><path fill="#d79170" d="M400 200h100v100H400z"/><path fill="#dd9a74" d="M500 200h100v100H500z"/><path fill="#d19e7e" d="M600 200h100v100H600z"/><path fill="#968a51" d="M700 200h100v100H700z"/><path fill="#d19268" d="M0 300h100v100H0z"/><path fill="#cd8b68" d="M100 300h100v100H100z"/><path fill="#b08363" d="M200 300h100v100H200z"/><path fill="#c78f71" d="M300 300h100v100H300z"/><path fill="#c37d62" d="M400 300h100v100H400z"/><path fill="#c99172" d="M500 300h100v100H500z"/><path fill="#cb9574" d="M600 300h100v100H600z"/><path fill="#cf916e" d="M700 300h100v100H700z"/></svg>