<svg xmlns="http://www.w3.org/2000/svg" viewBox="0 0 800 1100"><defs/><path fill="#966c46" d="M0 0h100v100H0z"/><path fill="#ac9074" d="M100 0h100v100H100z"/><path fill="#a17b58" d="M200 0h100v100H200z"/><path fill="#a57c55" d="M300 0h100v100H300z"/><path fill="#a77a50" d="M400 0h100v100H400z"/><path fill="#aa7a4d" d="M500 0h100v100H500z"/><path fill="#a97747" d="M600 0h100v100H600z"/><path fill="#a86d35" d="M700 0h100v100H700z"/><path fill="#9a816a" d="M0 100h100v100H0z"/><path fill="#bdc9cd" d="M100 100h100v100H100z"/><path fill="#b3b6b5" d="M200 100h100v100H200z"/><path fill="#bdbfbe" d="M300 100h100v100H300z"/><path fill="#c0c1c0" d="M400 100h100v100H400z"/><path fill="#bec1be" d="M500 100h100v100H500z"/><path fill="#c4cccc" d="M600 100h100v100H600z"/><path fill="#bca48b" d="M700 100h100v100H700z"/><path fill="#94755a" d="M0 200h100v100H0z"/><path fill="#b2b6b4" d="M100 200h100v100H100z"/><path fill="#acaba7" d="M200 200h100v100H200z"/><path fill="#b9b9b7" d="M300 200h100v100H300z"/><path fill="#c6c6c4" d="M400 200h100v100H400z"/><path fill="#c8c9c6" d="M500 200h100v100H500z"/><path fill="#cfd5d5" d="M600 200h100v100H600z"/><path fill="#baa48c" d="M700 200h100v100H700z"/><path fill="#8e725a" d="M0 300h100v100H0z"/><path fill="#b6bbba" d="M100 300h100v100H100z"/><path fill="#adadaa" d="M200 300h100v100H200z"/><path fill="#b7b7b5" d="M300 300h100v100H300z"/><path fill="#c4c4c2" d="M400 300h100v100H400z"/><path fill="#ccccc9" d="M500 300h100v100H500z"/><path fill="#d2d7d6" d="M600 300h100v100H600z"/><path fill="#bda791" d="M700 300h100v100H700z"/><path fill="#8c745e" d="M0 400h100v100H0z"/><path fill="#b7bdbc" d="M100 400h100v100H100z"/><path fill="#a7a8a4" d="M200 400h100v100H200z"/><path fill="#b1b1ae" d="M300 400h100v100H300z"/><path fill="#c0c1be" d="M400 400h100v100H400z"/><path fill="#c9cac5" d="M500 400h100v100H500z"/><path fill="#ced2d2" d="M600 400h100v100H600z"/><path fill="#bfac97" d="M700 400h100v100H700z"/><path fill="#8d7b6a" d="M0 500h100v100H0z"/><path fill="#a7adab" d="M100 500h100v100H100z"/><path fill="#959690" d="M200 500h100v100H200z"/><path fill="#b1b2af" d="M300 500h100v100H300z"/><path fill="#c0c1bf" d="M400 500h100v100H400z"/><path fill="#c9c9c4" d="M500 500h100v100H500z"/><path fill="#d0d4d4" d="M600 500h100v100H600z"/><path fill="#beac99" d="M700 500h100v100H700z"/><path fill="#897c6e" d="M0 600h100v100H0z"/><path fill="#adb2b0" d="M100 600h100v100H100z"/><path fill="#9fa19b" d="M200 600h100v100H200z"/><path fill="#b4b5b1" d="M300 600h100v100H300z"/><path fill="#acacab" d="M400 600h100v100H400z"/><path fill="#bfbfbb" d="M500 600h100v100H500z"/><path fill="#d4d7d5" d="M600 600h100v100H600z"/><path fill="#c0af9e" d="M700 600h100v100H700z"/><path fill="#887d70" d="M0 700h100v100H0z"/><path fill="#adb2ad" d="M100 700h100v100H100z"/><path fill="#989a95" d="M200 700h100v100H200z"/><path fill="#a4a6a1" d="M300 700h100v100H300z"/><path fill="#b1b1af" d="M400 700h100v100H400z"/><path fill="#bebeb9" d="M500 700h100v100H500z"/><path fill="#cfd3cf" d="M600 700h100v100H600z"/><path fill="#bdae9c" d="M700 700h100v100H700z"/><path fill="#897f73" d="M0 800h100v100H0z"/><path fill="#9ca19c" d="M100 800h100v100H100z"/><path fill="#959791" d="M200 800h100v100H200z"/><path fill="#abaca7" d="M300 800h100v100H300z"/><path fill="#b9bab6" d="M400 800h100v100H400z"/><path fill="#bcbcb7" d="M500 800h100v100H500z"/><path fill="#c6cac6" d="M600 800h100v100H600z"/><path fill="#b5a695" d="M700 800h100v100H700z"/><path fill="#83796c" d="M0 900h100v100H0z"/><path fill="#959a94" d="M100 900h100v100H100z"/><path fill="#9a9b95" d="M200 900h100v100H200z"/><path fill="#a4a5a0" d="M300 900h100v100H300z"/><path fill="#abaca7" d="M400 900h100v100H400z"/><path fill="#b4b4af" d="M500 900h100v100H500z"/><path fill="#bcbfbc" d="M600 900h100v100H600z"/><path fill="#aea190" d="M700 900h100v100H700z"/><path fill="#84796c" d="M0 1000h100v100H0z"/><path fill="#9c9f9a" d="M100 1000h100v100H100z"/><path fill="#a6a8a1" d="M200 1000h100v100H200z"/><path fill="#989994" d="M300 1000h100v100H300z"/><path fill="#a1a29c" d="M400 1000h100v100H400z"/><path fill="#aeaea9" d="M500 1000h100v100H500z"/><path fill="#b7bab4" d="M600 1000h100v100H600z"/><path fill="#a08f7a" d="M700 1000h100v100H700z"/></svg>