<svg xmlns="http://www.w3.org/2000/svg" viewBox="0 0 800 400"><defs/><path fill="#9c604d" d="M0 0h100v100H0z"/><path fill="#6c5b45" d="M100 0h100v100H100z"/><path fill="#baac9b" d="M200 0h100v100H200z"/><path fill="#bebead" d="M300 0h100v100H300z"/><path fill="#918b80" d="M400 0h100v100H400z"/><path fill="#70706b" d="M500 0h100v100H500z"/><path fill="#8b8c89" d="M600 0h100v100H600z"/><path fill="#93685a" d="M700 0h100v100H700z"/><path fill="#92604b" d="M0 100h100v100H0z"/><path fill="#8c8471" d="M100 100h100v100H100z"/><path fill="#8f8883" d="M200 100h100v100H200z"/><path fill="#b3a99d" d="M300 100h100v100H300z"/><path fill="#97958f" d="M400 100h100v100H400z"/><path fill="#534e4b" d="M500 100h100v100H500z"/><path fill="#7e7b76" d="M600 100h100v100H600z"/><path fill="#93695c" d="M700 100h100v100H700z"/><path fill="#7f5d49" d="M0 200h100v100H0z"/><path fill="#93816e" d="M100 200h100v100H100z"/><path fill="#c3b3ab" d="M200 200h100v100H200z"/><path fill="#d2cdc0" d="M300 200h100v100H300z"/><path fill="#af9c89" d="M400 200h100v100H400z"/><path fill="#625954" d="M500 200h100v100H500z"/><path fill="#60625f" d="M600 200h100v100H600z"/><path fill="#8e6e62" d="M700 200h100v100H700z"/><path fill="#756454" d="M0 300h100v100H0z"/><path fill="#927f72" d="M100 300h100v100H100z"/><path fill="#d2bfb4" d="M200 300h100v100H200z"/><path fill="#d6d0be" d="M300 300h100v100H300z"/><path fill="#a89b87" d="M400 300h100v100H400z"/><path fill="#77726b" d="M500 300h100v100H500z"/><path fill="#747067" d="M600 300h100v100H600z"/><path fill="#8a8275" d="M700 300h100v100H700z"/></svg>