<svg xmlns="http://www.w3.org/2000/svg" viewBox="0 0 800 500"><defs/><path fill="#707070" d="M0 0h100v100H0z"/><path fill="#626262" d="M100 0h100v100H100z"/><path fill="#777" d="M200 0h100v100H200z"/><path fill="#949494" d="M300 0h100v100H300z"/><path fill="#989898" d="M400 0h100v100H400z"/><path fill="#919191" d="M500 0h100v100H500z"/><path fill="#7b7b7b" d="M600 0h100v100H600z"/><path fill="#696969" d="M700 0h100v100H700z"/><path fill="#7a7a7a" d="M0 100h100v100H0zm100 0h100v100H100z"/><path fill="#929292" d="M200 100h100v100H200z"/><path fill="#959595" d="M300 100h100v100H300z"/><path fill="#9a9a9a" d="M400 100h100v100H400z"/><path fill="#7c7c7c" d="M500 100h100v100H500z"/><path fill="#707070" d="M600 100h100v100H600z"/><path fill="#717171" d="M700 100h100v100H700z"/><path fill="#898989" d="M0 200h100v100H0z"/><path fill="#7e7e7e" d="M100 200h100v100H100z"/><path fill="#9a9a9a" d="M200 200h100v100H200z"/><path fill="#7c7c7c" d="M300 200h100v100H300z"/><path fill="#6f6f6f" d="M400 200h100v100H400z"/><path fill="#404040" d="M500 200h100v100H500z"/><path fill="#616161" d="M600 200h100v100H600z"/><path fill="#5c5c5c" d="M700 200h100v100H700z"/><path fill="#7c7c7c" d="M0 300h100v100H0z"/><path fill="#7a7a7a" d="M100 300h100v100H100z"/><path fill="#8f8f8f" d="M200 300h100v100H200z"/><path fill="#a9a9a9" d="M300 300h100v100H300z"/><path fill="#6d6d6d" d="M400 300h100v100H400z"/><path fill="#282828" d="M500 300h100v100H500z"/><path fill="#595959" d="M600 300h100v100H600zm100 0h100v100H700z"/><path fill="#797979" d="M0 400h100v100H0z"/><path fill="#707070" d="M100 400h100v100H100z"/><path fill="#7f7f7f" d="M200 400h100v100H200z"/><path fill="#868686" d="M300 400h100v100H300z"/><path fill="#4a4a4a" d="M400 400h100v100H400z"/><path fill="#252525" d="M500 400h100v100H500z"/><path fill="#505050" d="M600 400h100v100H600z"/><path fill="#474747" d="M700 400h100v100H700z"/></svg>