<svg xmlns="http://www.w3.org/2000/svg" viewBox="0 0 800 900"><defs/><path fill="#050502" d="M0 0h100v100H0z"/><path fill="#030300" d="M100 0h100v100H100z"/><path fill="#180c0d" d="M200 0h100v100H200z"/><path fill="#150e0c" d="M300 0h100v100H300z"/><path fill="#080501" d="M400 0h100v100H400z"/><path fill="#0a0602" d="M500 0h100v100H500z"/><path fill="#0b0702" d="M600 0h100v100H600z"/><path fill="#080602" d="M700 0h100v100H700z"/><path fill="#070301" d="M0 100h100v100H0z"/><path fill="#2f1e17" d="M100 100h100v100H100z"/><path fill="#473a62" d="M200 100h100v100H200z"/><path fill="#47315d" d="M300 100h100v100H300z"/><path fill="#050000" d="M400 100h100v100H400z"/><path fill="#0c0d0a" d="M500 100h100v100H500z"/><path fill="#0a0703" d="M600 100h100v100H600z"/><path fill="#080501" d="M700 100h100v100H700z"/><path fill="#0d0404" d="M0 200h100v100H0z"/><path fill="#6a5859" d="M100 200h100v100H100z"/><path fill="#404668" d="M200 200h100v100H200z"/><path fill="#2d1c46" d="M300 200h100v100H300z"/><path fill="#1a1b20" d="M400 200h100v100H400z"/><path fill="#685977" d="M500 200h100v100H500z"/><path fill="#3c394a" d="M600 200h100v100H600z"/><path fill="#050400" d="M700 200h100v100H700z"/><path fill="#000100" d="M0 300h100v100H0z"/><path fill="#3b2823" d="M100 300h100v100H100z"/><path fill="#5d3348" d="M200 300h100v100H200z"/><path fill="#2a0d19" d="M300 300h100v100H300z"/><path fill="#21293c" d="M400 300h100v100H400z"/><path fill="#aa799b" d="M500 300h100v100H500z"/><path fill="#594e6d" d="M600 300h100v100H600z"/><path fill="#000302" d="M700 300h100v100H700z"/><path fill="#050402" d="M0 400h100v100H0z"/><path d="M100 400h100v100H100z"/><path fill="#0b0603" d="M200 400h100v100H200z"/><path fill="#070500" d="M300 400h100v100H300z"/><path fill="#080708" d="M400 400h100v100H400z"/><path fill="#383a49" d="M500 400h100v100H500z"/><path fill="#1b1a1f" d="M600 400h100v100H600z"/><path d="M700 400h100v100H700z"/><path fill="#030100" d="M0 500h100v100H0z"/><path fill="#181615" d="M100 500h100v100H100z"/><path fill="#3b3c3c" d="M200 500h100v100H200z"/><path fill="#212121" d="M300 500h100v100H300z"/><path fill="#020100" d="M400 500h100v100H400z"/><path d="M500 500h100v100H500z"/><path fill="#010100" d="M600 500h100v100H600z"/><path fill="#040303" d="M700 500h100v100H700z"/><path fill="#020201" d="M0 600h100v100H0z"/><path fill="#151616" d="M100 600h100v100H100z"/><path fill="#2d2d2b" d="M200 600h100v100H200z"/><path fill="#1e1e1d" d="M300 600h100v100H300z"/><path fill="#070707" d="M400 600h100v100H400z"/><path fill="#040405" d="M500 600h100v100H500z"/><path fill="#030303" d="M600 600h100v100H600zm100 0h100v100H700z"/><path fill="#020202" d="M0 700h100v100H0z"/><path fill="#0e0d0d" d="M100 700h100v100H100z"/><path fill="#242321" d="M200 700h100v100H200z"/><path fill="#181817" d="M300 700h100v100H300z"/><path fill="#030303" d="M400 700h100v100H400zm100 0h100v100H500zm100 0h100v100H600zm100 0h100v100H700z"/><path fill="#030203" d="M0 800h100v100H0z"/><path fill="#030302" d="M100 800h100v100H100z"/><path fill="#050404" d="M200 800h100v100H200z"/><path fill="#040303" d="M300 800h100v100H300z"/><path fill="#030302" d="M400 800h100v100H400z"/><path fill="#030303" d="M500 800h100v100H500zm100 0h100v100H600z"/><path fill="#030202" d="M700 800h100v100H700z"/></svg>