<svg xmlns="http://www.w3.org/2000/svg" viewBox="0 0 800 800"><defs/><path fill="#d8d7d5" d="M0 0h100v100H0z"/><path fill="#d4d2cb" d="M100 0h100v100H100z"/><path fill="#e2e0cf" d="M200 0h100v100H200z"/><path fill="#e9e9e4" d="M300 0h100v100H300z"/><path fill="#e4e3de" d="M400 0h100v100H400z"/><path fill="#f8f7f1" d="M500 0h100v100H500z"/><path fill="#fbfafc" d="M600 0h100v100H600z"/><path fill="#f9f8f8" d="M700 0h100v100H700z"/><path fill="#e8e6dd" d="M0 100h100v100H0z"/><path fill="#eeeede" d="M100 100h100v100H100z"/><path fill="#ffffed" d="M200 100h100v100H200z"/><path fill="#fefdf6" d="M300 100h100v100H300z"/><path fill="#e5e4d5" d="M400 100h100v100H400z"/><path fill="#f6f6ee" d="M500 100h100v100H500z"/><path fill="#fafcfa" d="M600 100h100v100H600z"/><path fill="#f6f9f7" d="M700 100h100v100H700z"/><path fill="#fdfbf7" d="M0 200h100v100H0z"/><path fill="#e4f3eb" d="M100 200h100v100H100z"/><path fill="#c9e8e7" d="M200 200h100v100H200z"/><path fill="#f7f9eb" d="M300 200h100v100H300z"/><path fill="#fcfffc" d="M400 200h100v100H400z"/><path fill="#c3cbc9" d="M500 200h100v100H500z"/><path fill="#c1ccc4" d="M600 200h100v100H600z"/><path fill="#f0f6f0" d="M700 200h100v100H700z"/><path fill="#fafafa" d="M0 300h100v100H0z"/><path fill="#f5fafa" d="M100 300h100v100H100z"/><path fill="#f3f9f6" d="M200 300h100v100H200z"/><path fill="#fffffb" d="M300 300h100v100H300z"/><path fill="#fcffff" d="M400 300h100v100H400z"/><path fill="#f2f5f7" d="M500 300h100v100H500z"/><path fill="#f5fafc" d="M600 300h100v100H600z"/><path fill="#f8fbfa" d="M700 300h100v100H700z"/><path fill="#dcdad0" d="M0 400h100v100H0z"/><path fill="#eeebda" d="M100 400h100v100H100z"/><path fill="#fff" d="M200 400h100v100H200z"/><path fill="#e7e6e1" d="M300 400h100v100H300z"/><path fill="#dbd5bb" d="M400 400h100v100H400z"/><path fill="#eee8c9" d="M500 400h100v100H500z"/><path fill="#ebdfa7" d="M600 400h100v100H600z"/><path fill="#efece1" d="M700 400h100v100H700z"/><path fill="#e6ebe6" d="M0 500h100v100H0z"/><path fill="#ced3cd" d="M100 500h100v100H100z"/><path fill="#d0d5d7" d="M200 500h100v100H200z"/><path fill="#e3ecec" d="M300 500h100v100H300z"/><path fill="#dbd3af" d="M400 500h100v100H400z"/><path fill="#b8ae75" d="M500 500h100v100H500z"/><path fill="#baa843" d="M600 500h100v100H600z"/><path fill="#e0dabb" d="M700 500h100v100H700z"/><path fill="#ebf3f5" d="M0 600h100v100H0z"/><path fill="#c7d0d1" d="M100 600h100v100H100z"/><path fill="#c3c8c8" d="M200 600h100v100H200z"/><path fill="#e8f4f5" d="M300 600h100v100H300z"/><path fill="#e0dede" d="M400 600h100v100H400z"/><path fill="#b3b2a7" d="M500 600h100v100H500z"/><path fill="#bfbca6" d="M600 600h100v100H600z"/><path fill="#d0d0cc" d="M700 600h100v100H700z"/><path fill="#e8f0ef" d="M0 700h100v100H0z"/><path fill="#f0f8f8" d="M100 700h100v100H100z"/><path fill="#f1f9fa" d="M200 700h100v100H200z"/><path fill="#e9f2f1" d="M300 700h100v100H300z"/><path fill="#f1f1f1" d="M400 700h100v100H400z"/><path fill="#dedee1" d="M500 700h100v100H500z"/><path fill="#dddee3" d="M600 700h100v100H600z"/><path fill="#dddede" d="M700 700h100v100H700z"/></svg>