<svg xmlns="http://www.w3.org/2000/svg" viewBox="0 0 800 400"><defs/><path fill="#dbb6a7" d="M0 0h100v100H0z"/><path fill="#814e2b" d="M100 0h100v100H100z"/><path fill="#8d7a62" d="M200 0h100v100H200z"/><path fill="#627460" d="M300 0h100v100H300z"/><path fill="#7b9186" d="M400 0h100v100H400z"/><path fill="#9da2a1" d="M500 0h100v100H500z"/><path fill="#be9f8f" d="M600 0h100v100H600z"/><path fill="#8e756a" d="M700 0h100v100H700z"/><path fill="#cea18f" d="M0 100h100v100H0z"/><path fill="#68441a" d="M100 100h100v100H100z"/><path fill="#646450" d="M200 100h100v100H200z"/><path fill="#64877b" d="M300 100h100v100H300z"/><path fill="#75a07c" d="M400 100h100v100H400z"/><path fill="#737e60" d="M500 100h100v100H500z"/><path fill="#bd9383" d="M600 100h100v100H600z"/><path fill="#87746e" d="M700 100h100v100H700z"/><path fill="#ad7960" d="M0 200h100v100H0z"/><path fill="#5d381e" d="M100 200h100v100H100z"/><path fill="#906955" d="M200 200h100v100H200z"/><path fill="#7a523a" d="M300 200h100v100H300z"/><path fill="#4a3f2d" d="M400 200h100v100H400z"/><path fill="#845f49" d="M500 200h100v100H500z"/><path fill="#88786a" d="M600 200h100v100H600z"/><path fill="#4b4d4d" d="M700 200h100v100H700z"/><path fill="#8e5c41" d="M0 300h100v100H0z"/><path fill="#8c5739" d="M100 300h100v100H100z"/><path fill="#906a53" d="M200 300h100v100H200z"/><path fill="#575f5e" d="M300 300h100v100H300z"/><path fill="#586061" d="M400 300h100v100H400z"/><path fill="#6f6159" d="M500 300h100v100H500z"/><path fill="#876e4a" d="M600 300h100v100H600z"/><path fill="#5f4f3a" d="M700 300h100v100H700z"/></svg>