<svg xmlns="http://www.w3.org/2000/svg" viewBox="0 0 800 600"><defs/><path fill="#f4ead0" d="M0 0h100v100H0z"/><path fill="#b9b3b1" d="M100 0h100v100H100z"/><path fill="#a6a5a8" d="M200 0h100v100H200z"/><path fill="#a9aaad" d="M300 0h100v100H300z"/><path fill="#a2a9b4" d="M400 0h100v100H400z"/><path fill="#a4a9b3" d="M500 0h100v100H500z"/><path fill="#a8abaf" d="M600 0h100v100H600z"/><path fill="#a3a4a7" d="M700 0h100v100H700z"/><path fill="#beb8b3" d="M0 100h100v100H0z"/><path fill="#aaa9ab" d="M100 100h100v100H100z"/><path fill="#aaa8ab" d="M200 100h100v100H200z"/><path fill="#a8a9ac" d="M300 100h100v100H300z"/><path fill="#9fa6b3" d="M400 100h100v100H400z"/><path fill="#a0a8b5" d="M500 100h100v100H500z"/><path fill="#a6aab1" d="M600 100h100v100H600z"/><path fill="#a1a2a5" d="M700 100h100v100H700z"/><path fill="#a8a8ac" d="M0 200h100v100H0z"/><path fill="#a5a4a9" d="M100 200h100v100H100z"/><path fill="#a7a4a4" d="M200 200h100v100H200z"/><path fill="#aaa7a8" d="M300 200h100v100H300z"/><path fill="#a9a7aa" d="M400 200h100v100H400z"/><path fill="#a8a8ac" d="M500 200h100v100H500z"/><path fill="#9c9a9b" d="M600 200h100v100H600z"/><path fill="#a19ea0" d="M700 200h100v100H700z"/><path fill="#aaa9ac" d="M0 300h100v100H0z"/><path fill="#a2a1a4" d="M100 300h100v100H100z"/><path fill="#a29c9b" d="M200 300h100v100H200z"/><path fill="#aaa2a2" d="M300 300h100v100H300z"/><path fill="#aeaaa9" d="M400 300h100v100H400z"/><path fill="#a49c9c" d="M500 300h100v100H500z"/><path fill="#97928f" d="M600 300h100v100H600z"/><path fill="#a19fa0" d="M700 300h100v100H700z"/><path fill="#a9a7a8" d="M0 400h100v100H0z"/><path fill="#9f9ea1" d="M100 400h100v100H100z"/><path fill="#a59692" d="M200 400h100v100H200z"/><path fill="#9b8884" d="M300 400h100v100H300z"/><path fill="#989291" d="M400 400h100v100H400z"/><path fill="#9b9292" d="M500 400h100v100H500z"/><path fill="#afb0b4" d="M600 400h100v100H600z"/><path fill="#aaaaac" d="M700 400h100v100H700z"/><path fill="#a6a4a5" d="M0 500h100v100H0z"/><path fill="#a09ea0" d="M100 500h100v100H100z"/><path fill="#b2adac" d="M200 500h100v100H200z"/><path fill="#aaa2a4" d="M300 500h100v100H300z"/><path fill="#a8a6ab" d="M400 500h100v100H400z"/><path fill="#a7a6ab" d="M500 500h100v100H500z"/><path fill="#a9aaaf" d="M600 500h100v100H600z"/><path fill="#a7a7aa" d="M700 500h100v100H700z"/></svg>