<svg xmlns="http://www.w3.org/2000/svg" viewBox="0 0 800 400"><defs/><path fill="#7a7574" d="M0 0h100v100H0z"/><path fill="#475e56" d="M100 0h100v100H100z"/><path fill="#3b6553" d="M200 0h100v100H200z"/><path fill="#4c6f57" d="M300 0h100v100H300z"/><path fill="#707452" d="M400 0h100v100H400z"/><path fill="#427663" d="M500 0h100v100H500z"/><path fill="#466648" d="M600 0h100v100H600z"/><path fill="#6a5a4b" d="M700 0h100v100H700z"/><path fill="#646562" d="M0 100h100v100H0z"/><path fill="#3f5a4f" d="M100 100h100v100H100z"/><path fill="#35462f" d="M200 100h100v100H200z"/><path fill="#344d33" d="M300 100h100v100H300z"/><path fill="#37412a" d="M400 100h100v100H400z"/><path fill="#3d4d35" d="M500 100h100v100H500z"/><path fill="#38492f" d="M600 100h100v100H600z"/><path fill="#4a4433" d="M700 100h100v100H700z"/><path fill="#5a6d6c" d="M0 200h100v100H0z"/><path fill="#434639" d="M100 200h100v100H100z"/><path fill="#524a34" d="M200 200h100v100H200z"/><path fill="#4f4428" d="M300 200h100v100H300z"/><path fill="#464e56" d="M400 200h100v100H400z"/><path fill="#60595f" d="M500 200h100v100H500z"/><path fill="#504732" d="M600 200h100v100H600z"/><path fill="#3b3324" d="M700 200h100v100H700z"/><path fill="#5f6b66" d="M0 300h100v100H0z"/><path fill="#534335" d="M100 300h100v100H100z"/><path fill="#604956" d="M200 300h100v100H200z"/><path fill="#624f39" d="M300 300h100v100H300z"/><path fill="#485150" d="M400 300h100v100H400z"/><path fill="#3f5655" d="M500 300h100v100H500z"/><path fill="#4e4721" d="M600 300h100v100H600z"/><path fill="#3d3d3e" d="M700 300h100v100H700z"/></svg>