<svg xmlns="http://www.w3.org/2000/svg" viewBox="0 0 800 600"><defs/><path fill="#eff0eb" d="M0 0h100v100H0z"/><path fill="#e2e3df" d="M100 0h100v100H100z"/><path fill="#ddded9" d="M200 0h100v100H200zm100 0h100v100H300z"/><path fill="#d7d8d3" d="M400 0h100v100H400z"/><path fill="#d9dad4" d="M500 0h100v100H500z"/><path fill="#dadad4" d="M600 0h100v100H600z"/><path fill="#d9d6d2" d="M700 0h100v100H700z"/><path fill="#f0f1ed" d="M0 100h100v100H0z"/><path fill="#dadad7" d="M100 100h100v100H100z"/><path fill="#d0d1cc" d="M200 100h100v100H200z"/><path fill="#d5d6d1" d="M300 100h100v100H300z"/><path fill="#dfdfda" d="M400 100h100v100H400z"/><path fill="#d9dad5" d="M500 100h100v100H500z"/><path fill="#d4d4d0" d="M600 100h100v100H600z"/><path fill="#dfddd7" d="M700 100h100v100H700z"/><path fill="#f9f9f7" d="M0 200h100v100H0z"/><path fill="#e6e7e3" d="M100 200h100v100H100z"/><path fill="#cfd0cb" d="M200 200h100v100H200z"/><path fill="#ddded9" d="M300 200h100v100H300z"/><path fill="#dbdcd7" d="M400 200h100v100H400z"/><path fill="#cacbc5" d="M500 200h100v100H500z"/><path fill="#dcdcd8" d="M600 200h100v100H600z"/><path fill="#dedad5" d="M700 200h100v100H700z"/><path fill="#f2f2f0" d="M0 300h100v100H0z"/><path fill="#e0e1dd" d="M100 300h100v100H100z"/><path fill="#d0d1cc" d="M200 300h100v100H200z"/><path fill="#d5d6d0" d="M300 300h100v100H300z"/><path fill="#d0d0ca" d="M400 300h100v100H400z"/><path fill="#cecdc8" d="M500 300h100v100H500z"/><path fill="#dad8d4" d="M600 300h100v100H600z"/><path fill="#d5d2ce" d="M700 300h100v100H700z"/><path fill="#dededa" d="M0 400h100v100H0z"/><path fill="#d6d7d1" d="M100 400h100v100H100z"/><path fill="#d5d6d0" d="M200 400h100v100H200z"/><path fill="#cccdc8" d="M300 400h100v100H300z"/><path fill="#d4d4cf" d="M400 400h100v100H400z"/><path fill="#d7d5d0" d="M500 400h100v100H500z"/><path fill="#dad6d1" d="M600 400h100v100H600z"/><path fill="#cac5c0" d="M700 400h100v100H700z"/><path fill="#e7e8e2" d="M0 500h100v100H0z"/><path fill="#e3e3de" d="M100 500h100v100H100z"/><path fill="#e3e4df" d="M200 500h100v100H200z"/><path fill="#d7d8d3" d="M300 500h100v100H300z"/><path fill="#d8d9d4" d="M400 500h100v100H400z"/><path fill="#d9d8d3" d="M500 500h100v100H500z"/><path fill="#e1ded9" d="M600 500h100v100H600z"/><path fill="#d7cfcb" d="M700 500h100v100H700z"/></svg>