<svg xmlns="http://www.w3.org/2000/svg" viewBox="0 0 800 500"><defs/><path fill="#f9f9f8" d="M0 0h100v100H0z"/><path fill="#f4f4f3" d="M100 0h100v100H100z"/><path fill="#fcfcfc" d="M200 0h100v100H200z"/><path fill="#f7f7f7" d="M300 0h100v100H300z"/><path fill="#f0f0ee" d="M400 0h100v100H400z"/><path fill="#f8f8f8" d="M500 0h100v100H500z"/><path fill="#f8f7f7" d="M600 0h100v100H600z"/><path fill="#f4f3f4" d="M700 0h100v100H700z"/><path fill="#f1f1f0" d="M0 100h100v100H0z"/><path fill="#e5e5e2" d="M100 100h100v100H100z"/><path fill="#eeedec" d="M200 100h100v100H200z"/><path fill="#dcdcda" d="M300 100h100v100H300z"/><path fill="#d9d9d7" d="M400 100h100v100H400z"/><path fill="#e0dfde" d="M500 100h100v100H500z"/><path fill="#e4e2e2" d="M600 100h100v100H600z"/><path fill="#e9e9e8" d="M700 100h100v100H700z"/><path fill="#f7f7f7" d="M0 200h100v100H0z"/><path fill="#eae9e7" d="M100 200h100v100H100z"/><path fill="#e6e6e5" d="M200 200h100v100H200z"/><path fill="#dadad8" d="M300 200h100v100H300z"/><path fill="#e1e0df" d="M400 200h100v100H400z"/><path fill="#dfdcdd" d="M500 200h100v100H500z"/><path fill="#dfdddc" d="M600 200h100v100H600z"/><path fill="#ebeaea" d="M700 200h100v100H700z"/><path fill="#f2f0ef" d="M0 300h100v100H0z"/><path fill="#e3e1df" d="M100 300h100v100H100z"/><path fill="#e2e0df" d="M200 300h100v100H200z"/><path fill="#e2dfde" d="M300 300h100v100H300z"/><path fill="#dfdbdb" d="M400 300h100v100H400z"/><path fill="#d1cfcf" d="M500 300h100v100H500z"/><path fill="#d6d4d4" d="M600 300h100v100H600z"/><path fill="#e2e0e2" d="M700 300h100v100H700z"/><path fill="#e3e2e2" d="M0 400h100v100H0z"/><path fill="#e0dedd" d="M100 400h100v100H100z"/><path fill="#e6e2e1" d="M200 400h100v100H200z"/><path fill="#e8e3e1" d="M300 400h100v100H300z"/><path fill="#ded9d7" d="M400 400h100v100H400z"/><path fill="#cbc9c7" d="M500 400h100v100H500z"/><path fill="#ccc9cb" d="M600 400h100v100H600z"/><path fill="#e4e1e4" d="M700 400h100v100H700z"/></svg>