<svg xmlns="http://www.w3.org/2000/svg" viewBox="0 0 800 600"><defs/><path fill="#e9edf7" d="M0 0h100v100H0z"/><path fill="#dcdada" d="M100 0h100v100H100z"/><path fill="#dde0e3" d="M200 0h100v100H200z"/><path fill="#e9eaf6" d="M300 0h100v100H300z"/><path fill="#eef0ff" d="M400 0h100v100H400z"/><path fill="#ebeefe" d="M500 0h100v100H500z"/><path fill="#ebf1fe" d="M600 0h100v100H600z"/><path fill="#eff3fc" d="M700 0h100v100H700z"/><path fill="#858eb4" d="M0 100h100v100H0z"/><path fill="#644e42" d="M100 100h100v100H100z"/><path fill="#454549" d="M200 100h100v100H200z"/><path fill="#495755" d="M300 100h100v100H300z"/><path fill="#456f7c" d="M400 100h100v100H400z"/><path fill="#426079" d="M500 100h100v100H500z"/><path fill="#516469" d="M600 100h100v100H600z"/><path fill="#9aadce" d="M700 100h100v100H700z"/><path fill="#9296b2" d="M0 200h100v100H0z"/><path fill="#6d5b5b" d="M100 200h100v100H100z"/><path fill="#454552" d="M200 200h100v100H200z"/><path fill="#2b471a" d="M300 200h100v100H300z"/><path fill="#174c1c" d="M400 200h100v100H400z"/><path fill="#295631" d="M500 200h100v100H500z"/><path fill="#567685" d="M600 200h100v100H600z"/><path fill="#8ba1bd" d="M700 200h100v100H700z"/><path fill="#9a9ea6" d="M0 300h100v100H0z"/><path fill="#695954" d="M100 300h100v100H100z"/><path fill="#554097" d="M200 300h100v100H200z"/><path fill="#675069" d="M300 300h100v100H300z"/><path fill="#6e5e40" d="M400 300h100v100H400z"/><path fill="#9e9278" d="M500 300h100v100H500z"/><path fill="#c1a680" d="M600 300h100v100H600z"/><path fill="#b0b5c2" d="M700 300h100v100H700z"/><path fill="#93887d" d="M0 400h100v100H0z"/><path fill="#aa8e5f" d="M100 400h100v100H100z"/><path fill="#9277ae" d="M200 400h100v100H200z"/><path fill="#92759b" d="M300 400h100v100H300z"/><path fill="#b19f7b" d="M400 400h100v100H400z"/><path fill="#d6b374" d="M500 400h100v100H500z"/><path fill="#e39c2b" d="M600 400h100v100H600z"/><path fill="#ccaa73" d="M700 400h100v100H700z"/><path fill="#e9e5dc" d="M0 500h100v100H0z"/><path fill="#f8f1de" d="M100 500h100v100H100z"/><path fill="#fbf7de" d="M200 500h100v100H200z"/><path fill="#f4efdd" d="M300 500h100v100H300z"/><path fill="#f4f0e1" d="M400 500h100v100H400z"/><path fill="#efe8d8" d="M500 500h100v100H500z"/><path fill="#eae1cc" d="M600 500h100v100H600z"/><path fill="#ede6d6" d="M700 500h100v100H700z"/></svg>