<svg xmlns="http://www.w3.org/2000/svg" viewBox="0 0 800 500"><defs/><path fill="#e1dfe0" d="M0 0h100v100H0z"/><path fill="#d8d2ce" d="M100 0h100v100H100z"/><path fill="#e7e3e4" d="M200 0h100v100H200z"/><path fill="#e2e0e1" d="M300 0h100v100H300z"/><path fill="#e6e1dd" d="M400 0h100v100H400z"/><path fill="#d8d5d1" d="M500 0h100v100H500z"/><path fill="#cccbcb" d="M600 0h100v100H600z"/><path fill="#d7d6d6" d="M700 0h100v100H700z"/><path fill="#887e80" d="M0 100h100v100H0z"/><path fill="#64544e" d="M100 100h100v100H100z"/><path fill="#584f4c" d="M200 100h100v100H200z"/><path fill="#4d4646" d="M300 100h100v100H300z"/><path fill="#5f544c" d="M400 100h100v100H400z"/><path fill="#60554c" d="M500 100h100v100H500z"/><path fill="#1d1a1c" d="M600 100h100v100H600z"/><path fill="#756b6b" d="M700 100h100v100H700z"/><path fill="#90847f" d="M0 200h100v100H0z"/><path fill="#776a6b" d="M100 200h100v100H100z"/><path fill="#5f5550" d="M200 200h100v100H200z"/><path fill="#6d6157" d="M300 200h100v100H300z"/><path fill="#847773" d="M400 200h100v100H400z"/><path fill="#998c87" d="M500 200h100v100H500z"/><path fill="#928682" d="M600 200h100v100H600z"/><path fill="#857874" d="M700 200h100v100H700z"/><path fill="#7b6d67" d="M0 300h100v100H0z"/><path fill="#63554b" d="M100 300h100v100H100z"/><path fill="#827d77" d="M200 300h100v100H200z"/><path fill="#716a66" d="M300 300h100v100H300z"/><path fill="#837a77" d="M400 300h100v100H400z"/><path fill="#686369" d="M500 300h100v100H500z"/><path fill="#897d77" d="M600 300h100v100H600z"/><path fill="#635855" d="M700 300h100v100H700z"/><path fill="#b0a8a1" d="M0 400h100v100H0z"/><path fill="#90887e" d="M100 400h100v100H100z"/><path fill="#7b7d77" d="M200 400h100v100H200z"/><path fill="#898887" d="M300 400h100v100H300z"/><path fill="#8b8a89" d="M400 400h100v100H400z"/><path fill="#8d8b8b" d="M500 400h100v100H500z"/><path fill="#7f8185" d="M600 400h100v100H600z"/><path fill="#8c8985" d="M700 400h100v100H700z"/></svg>