<svg xmlns="http://www.w3.org/2000/svg" viewBox="0 0 800 500"><defs/><path fill="#aab4b7" d="M0 0h100v100H0z"/><path fill="#a79e95" d="M100 0h100v100H100z"/><path fill="#bab1ad" d="M200 0h100v100H200z"/><path fill="#bcb8b3" d="M300 0h100v100H300z"/><path fill="#bbb7b4" d="M400 0h100v100H400z"/><path fill="#c5c0be" d="M500 0h100v100H500z"/><path fill="#c7c2be" d="M600 0h100v100H600z"/><path fill="#cbcdcf" d="M700 0h100v100H700z"/><path fill="#a5b0b1" d="M0 100h100v100H0z"/><path fill="#a8998b" d="M100 100h100v100H100z"/><path fill="#a79f98" d="M200 100h100v100H200z"/><path fill="#aeada0" d="M300 100h100v100H300z"/><path fill="#b5b4b1" d="M400 100h100v100H400z"/><path fill="#809eaf" d="M500 100h100v100H500z"/><path fill="#b2b4b3" d="M600 100h100v100H600z"/><path fill="#c1c3c3" d="M700 100h100v100H700z"/><path fill="#a9adad" d="M0 200h100v100H0z"/><path fill="#ac9a8c" d="M100 200h100v100H100z"/><path fill="#88817e" d="M200 200h100v100H200z"/><path fill="#84807f" d="M300 200h100v100H300z"/><path fill="#a9a49d" d="M400 200h100v100H400z"/><path fill="#77889a" d="M500 200h100v100H500z"/><path fill="#9ea0a3" d="M600 200h100v100H600z"/><path fill="#7f7e7a" d="M700 200h100v100H700z"/><path fill="#b1ada8" d="M0 300h100v100H0z"/><path fill="#8f7d6a" d="M100 300h100v100H100z"/><path fill="#897d74" d="M200 300h100v100H200z"/><path fill="#988071" d="M300 300h100v100H300z"/><path fill="#948c82" d="M400 300h100v100H400z"/><path fill="#a85654" d="M500 300h100v100H500z"/><path fill="#996a6c" d="M600 300h100v100H600z"/><path fill="#9aa1a3" d="M700 300h100v100H700z"/><path fill="#a49d9a" d="M0 400h100v100H0z"/><path fill="#91877f" d="M100 400h100v100H100z"/><path fill="#99918c" d="M200 400h100v100H200z"/><path fill="#9e8e85" d="M300 400h100v100H300z"/><path fill="#9c938d" d="M400 400h100v100H400z"/><path fill="#9f8b89" d="M500 400h100v100H500z"/><path fill="#9f8b8b" d="M600 400h100v100H600z"/><path fill="#a09ca0" d="M700 400h100v100H700z"/></svg>