<svg xmlns="http://www.w3.org/2000/svg" viewBox="0 0 800 600"><defs/><path fill="#ded8cb" d="M0 0h100v100H0z"/><path fill="#dcd3c6" d="M100 0h100v100H100z"/><path fill="#ded5c6" d="M200 0h100v100H200z"/><path fill="#e0d6c7" d="M300 0h100v100H300z"/><path fill="#dfd5c5" d="M400 0h100v100H400z"/><path fill="#dbceb7" d="M500 0h100v100H500z"/><path fill="#d5bc9c" d="M600 0h100v100H600z"/><path fill="#d3b083" d="M700 0h100v100H700z"/><path fill="#d4cfc7" d="M0 100h100v100H0z"/><path fill="#d4d0cb" d="M100 100h100v100H100z"/><path fill="#bdccc8" d="M200 100h100v100H200z"/><path fill="#cfd5d0" d="M300 100h100v100H300z"/><path fill="#ced2cc" d="M400 100h100v100H400z"/><path fill="#bebeb7" d="M500 100h100v100H500z"/><path fill="#d0afa3" d="M600 100h100v100H600z"/><path fill="#ca665a" d="M700 100h100v100H700z"/><path fill="#d7d2ce" d="M0 200h100v100H0z"/><path fill="#dcdada" d="M100 200h100v100H100z"/><path fill="#a5bdbd" d="M200 200h100v100H200z"/><path fill="#aec4bf" d="M300 200h100v100H300z"/><path fill="#b7bfba" d="M400 200h100v100H400z"/><path fill="#9dafa6" d="M500 200h100v100H500z"/><path fill="#c4b7b2" d="M600 200h100v100H600z"/><path fill="#ba877d" d="M700 200h100v100H700z"/><path fill="#d5d4da" d="M0 300h100v100H0z"/><path fill="#d5d1c1" d="M100 300h100v100H100z"/><path fill="#cece9d" d="M200 300h100v100H200z"/><path fill="#c4c192" d="M300 300h100v100H300z"/><path fill="#b2ab8a" d="M400 300h100v100H400z"/><path fill="#cccba1" d="M500 300h100v100H500z"/><path fill="#c6af87" d="M600 300h100v100H600z"/><path fill="#c07565" d="M700 300h100v100H700z"/><path fill="#cbcdbd" d="M0 400h100v100H0z"/><path fill="#cab68c" d="M100 400h100v100H100z"/><path fill="#e0d37d" d="M200 400h100v100H200z"/><path fill="#dbd57c" d="M300 400h100v100H300z"/><path fill="#c8bd67" d="M400 400h100v100H400z"/><path fill="#c5b971" d="M500 400h100v100H500z"/><path fill="#93855a" d="M600 400h100v100H600z"/><path fill="#b47d67" d="M700 400h100v100H700z"/><path fill="#d4d3bf" d="M0 500h100v100H0z"/><path fill="#d6d3bd" d="M100 500h100v100H100z"/><path fill="#d9d6c3" d="M200 500h100v100H200z"/><path fill="#ded9c6" d="M300 500h100v100H300z"/><path fill="#ded8be" d="M400 500h100v100H400z"/><path fill="#d4ceb5" d="M500 500h100v100H500z"/><path fill="#c8c0a6" d="M600 500h100v100H600z"/><path fill="#c7bb9b" d="M700 500h100v100H700z"/></svg>