<svg xmlns="http://www.w3.org/2000/svg" viewBox="0 0 800 400"><defs/><path fill="#2c3931" d="M0 0h100v100H0z"/><path fill="#482f29" d="M100 0h100v100H100z"/><path fill="#536c60" d="M200 0h100v100H200z"/><path fill="#82a08e" d="M300 0h100v100H300z"/><path fill="#45625b" d="M400 0h100v100H400z"/><path fill="#70898b" d="M500 0h100v100H500z"/><path fill="#788a88" d="M600 0h100v100H600z"/><path fill="#40544c" d="M700 0h100v100H700z"/><path fill="#282c27" d="M0 100h100v100H0z"/><path fill="#4c4b4b" d="M100 100h100v100H100z"/><path fill="#476f63" d="M200 100h100v100H200z"/><path fill="#719786" d="M300 100h100v100H300z"/><path fill="#5d7870" d="M400 100h100v100H400z"/><path fill="#8e9b98" d="M500 100h100v100H500z"/><path fill="#667270" d="M600 100h100v100H600z"/><path fill="#30463e" d="M700 100h100v100H700z"/><path fill="#2f2f2b" d="M0 200h100v100H0z"/><path fill="#504947" d="M100 200h100v100H100z"/><path fill="#42413a" d="M200 200h100v100H200z"/><path fill="#3f403b" d="M300 200h100v100H300z"/><path fill="#6e7773" d="M400 200h100v100H400z"/><path fill="#6a7c7c" d="M500 200h100v100H500z"/><path fill="#282f35" d="M600 200h100v100H600z"/><path fill="#1d2c2d" d="M700 200h100v100H700z"/><path fill="#50362f" d="M0 300h100v100H0z"/><path fill="#7b453a" d="M100 300h100v100H100z"/><path fill="#935345" d="M200 300h100v100H200z"/><path fill="#9d685d" d="M300 300h100v100H300z"/><path fill="#534c44" d="M400 300h100v100H400z"/><path fill="#323a31" d="M500 300h100v100H500z"/><path fill="#332e2a" d="M600 300h100v100H600z"/><path fill="#282121" d="M700 300h100v100H700z"/></svg>