<svg xmlns="http://www.w3.org/2000/svg" viewBox="0 0 800 300"><defs/><path fill="#f8faf6" d="M0 0h100v100H0z"/><path fill="#f7eef9" d="M100 0h100v100H100z"/><path fill="#cbe260" d="M200 0h100v100H200z"/><path fill="#b4e31e" d="M300 0h100v100H300z"/><path fill="#dcddca" d="M400 0h100v100H400z"/><path fill="#e6ddee" d="M500 0h100v100H500z"/><path fill="#f0ecf0" d="M600 0h100v100H600z"/><path fill="#fbfcfb" d="M700 0h100v100H700z"/><path fill="#f9f9fd" d="M0 100h100v100H0z"/><path fill="#f2ebef" d="M100 100h100v100H100z"/><path fill="#ded4a1" d="M200 100h100v100H200z"/><path fill="#c8c097" d="M300 100h100v100H300z"/><path fill="#b796c0" d="M400 100h100v100H400z"/><path fill="#b492c5" d="M500 100h100v100H500z"/><path fill="#dfcde2" d="M600 100h100v100H600z"/><path fill="#fff" d="M700 100h100v100H700z"/><path fill="#d4f06a" d="M0 200h100v100H0z"/><path fill="#8ab765" d="M100 200h100v100H100z"/><path fill="#6b8d53" d="M200 200h100v100H200z"/><path fill="#d0e752" d="M300 200h100v100H300z"/><path fill="#9fcd7e" d="M400 200h100v100H400z"/><path fill="#bacc6d" d="M500 200h100v100H500z"/><path fill="#ddcfa4" d="M600 200h100v100H600z"/><path fill="#e0c4dc" d="M700 200h100v100H700z"/></svg>