<svg xmlns="http://www.w3.org/2000/svg" viewBox="0 0 800 400"><defs/><path fill="#716149" d="M0 0h100v100H0z"/><path fill="#867e72" d="M100 0h100v100H100z"/><path fill="#96855a" d="M200 0h100v100H200z"/><path fill="#888550" d="M300 0h100v100H300z"/><path fill="#a69365" d="M400 0h100v100H400z"/><path fill="#baa27b" d="M500 0h100v100H500z"/><path fill="#bfa97d" d="M600 0h100v100H600z"/><path fill="#d2ad80" d="M700 0h100v100H700z"/><path fill="#766852" d="M0 100h100v100H0z"/><path fill="#8b8478" d="M100 100h100v100H100z"/><path fill="#74613e" d="M200 100h100v100H200z"/><path fill="#5a5128" d="M300 100h100v100H300z"/><path fill="#a18c5d" d="M400 100h100v100H400z"/><path fill="#95836b" d="M500 100h100v100H500z"/><path fill="#9d8a73" d="M600 100h100v100H600z"/><path fill="#cfa77f" d="M700 100h100v100H700z"/><path fill="#837b6c" d="M0 200h100v100H0z"/><path fill="#786f5e" d="M100 200h100v100H100z"/><path fill="#5b493e" d="M200 200h100v100H200z"/><path fill="#6b504a" d="M300 200h100v100H300z"/><path fill="#998362" d="M400 200h100v100H400z"/><path fill="#66685b" d="M500 200h100v100H500z"/><path fill="#8e8577" d="M600 200h100v100H600z"/><path fill="#b2a085" d="M700 200h100v100H700z"/><path fill="#756a5c" d="M0 300h100v100H0z"/><path fill="#685b48" d="M100 300h100v100H100z"/><path fill="#7d8075" d="M200 300h100v100H200z"/><path fill="#8f918a" d="M300 300h100v100H300z"/><path fill="#858071" d="M400 300h100v100H400z"/><path fill="#736343" d="M500 300h100v100H500z"/><path fill="#9b6d38" d="M600 300h100v100H600z"/><path fill="#d3a068" d="M700 300h100v100H700z"/></svg>