<svg xmlns="http://www.w3.org/2000/svg" viewBox="0 0 800 400"><defs/><path fill="#626566" d="M0 0h100v100H0z"/><path fill="#545757" d="M100 0h100v100H100z"/><path fill="#323232" d="M200 0h100v100H200z"/><path fill="#626466" d="M300 0h100v100H300z"/><path fill="#7d797c" d="M400 0h100v100H400z"/><path fill="#6a686a" d="M500 0h100v100H500z"/><path fill="#4c4a49" d="M600 0h100v100H600z"/><path fill="#817e80" d="M700 0h100v100H700z"/><path fill="#6a6c69" d="M0 100h100v100H0z"/><path fill="#40413e" d="M100 100h100v100H100z"/><path fill="#2e2e2e" d="M200 100h100v100H200z"/><path fill="#333" d="M300 100h100v100H300z"/><path fill="#7d7b7e" d="M400 100h100v100H400z"/><path fill="#919396" d="M500 100h100v100H500z"/><path fill="#756d69" d="M600 100h100v100H600z"/><path fill="#827e7d" d="M700 100h100v100H700z"/><path fill="#6c6c69" d="M0 200h100v100H0z"/><path fill="#50504e" d="M100 200h100v100H100z"/><path fill="#544e52" d="M200 200h100v100H200z"/><path fill="#747271" d="M300 200h100v100H300z"/><path fill="#9e9c9b" d="M400 200h100v100H400z"/><path fill="#716c6c" d="M500 200h100v100H500z"/><path fill="#4b4a46" d="M600 200h100v100H600z"/><path fill="#81817e" d="M700 200h100v100H700z"/><path fill="#727271" d="M0 300h100v100H0z"/><path fill="#757676" d="M100 300h100v100H100z"/><path fill="#878786" d="M200 300h100v100H200z"/><path fill="#6d6863" d="M300 300h100v100H300z"/><path fill="#645e5a" d="M400 300h100v100H400z"/><path fill="#564b48" d="M500 300h100v100H500z"/><path fill="#3e3a3b" d="M600 300h100v100H600z"/><path fill="#656668" d="M700 300h100v100H700z"/></svg>