<svg xmlns="http://www.w3.org/2000/svg" viewBox="0 0 800 400"><defs/><path fill="#b4d1be" d="M0 0h100v100H0z"/><path fill="#5a8f9b" d="M100 0h100v100H100z"/><path fill="#87a4a6" d="M200 0h100v100H200z"/><path fill="#7fafb0" d="M300 0h100v100H300z"/><path fill="#8798b4" d="M400 0h100v100H400z"/><path fill="#8ea0b3" d="M500 0h100v100H500z"/><path fill="#7daab2" d="M600 0h100v100H600z"/><path fill="#aac6bd" d="M700 0h100v100H700z"/><path fill="#a0c1b5" d="M0 100h100v100H0z"/><path fill="#61a7a6" d="M100 100h100v100H100z"/><path fill="#b9abaa" d="M200 100h100v100H200z"/><path fill="#b3adae" d="M300 100h100v100H300z"/><path fill="#83a4a4" d="M400 100h100v100H400z"/><path fill="#958fac" d="M500 100h100v100H500z"/><path fill="#9191b3" d="M600 100h100v100H600z"/><path fill="#8d9bae" d="M700 100h100v100H700z"/><path fill="#82b9ae" d="M0 200h100v100H0z"/><path fill="#67949e" d="M100 200h100v100H100z"/><path fill="#d8a6b9" d="M200 200h100v100H200z"/><path fill="#cc9caf" d="M300 200h100v100H300z"/><path fill="#a598a2" d="M400 200h100v100H400z"/><path fill="#9b97b2" d="M500 200h100v100H500z"/><path fill="#898bae" d="M600 200h100v100H600z"/><path fill="#988da1" d="M700 200h100v100H700z"/><path fill="#779ba0" d="M0 300h100v100H0z"/><path fill="#948ca0" d="M100 300h100v100H100z"/><path fill="#b091a6" d="M200 300h100v100H200z"/><path fill="#a18aa6" d="M300 300h100v100H300z"/><path fill="#ba99b3" d="M400 300h100v100H400z"/><path fill="#bf95ad" d="M500 300h100v100H500z"/><path fill="#9a819f" d="M600 300h100v100H600z"/><path fill="#87898c" d="M700 300h100v100H700z"/></svg>