<svg xmlns="http://www.w3.org/2000/svg" viewBox="0 0 800 400"><defs/><path fill="#544b50" d="M0 0h100v100H0z"/><path fill="#4f4347" d="M100 0h100v100H100z"/><path fill="#50393b" d="M200 0h100v100H200z"/><path fill="#563738" d="M300 0h100v100H300z"/><path fill="#514141" d="M400 0h100v100H400z"/><path fill="#554a4a" d="M500 0h100v100H500z"/><path fill="#635853" d="M600 0h100v100H600z"/><path fill="#625554" d="M700 0h100v100H700z"/><path fill="#50464c" d="M0 100h100v100H0z"/><path fill="#4f4147" d="M100 100h100v100H100z"/><path fill="#55474c" d="M200 100h100v100H200z"/><path fill="#544547" d="M300 100h100v100H300z"/><path fill="#50444a" d="M400 100h100v100H400z"/><path fill="#5a4f4a" d="M500 100h100v100H500z"/><path fill="#7f725c" d="M600 100h100v100H600z"/><path fill="#6c5e55" d="M700 100h100v100H700z"/><path fill="#544850" d="M0 200h100v100H0z"/><path fill="#50434b" d="M100 200h100v100H100z"/><path fill="#51464c" d="M200 200h100v100H200z"/><path fill="#54494a" d="M300 200h100v100H300z"/><path fill="#615558" d="M400 200h100v100H400z"/><path fill="#7e7365" d="M500 200h100v100H500z"/><path fill="#877b62" d="M600 200h100v100H600z"/><path fill="#61584e" d="M700 200h100v100H700z"/><path fill="#4f454d" d="M0 300h100v100H0z"/><path fill="#4b4148" d="M100 300h100v100H100z"/><path fill="#53414d" d="M200 300h100v100H200z"/><path fill="#5c5056" d="M300 300h100v100H300z"/><path fill="#615659" d="M400 300h100v100H400z"/><path fill="#665b5c" d="M500 300h100v100H500z"/><path fill="#65595a" d="M600 300h100v100H600z"/><path fill="#574d50" d="M700 300h100v100H700z"/></svg>