<svg xmlns="http://www.w3.org/2000/svg" viewBox="0 0 800 400"><defs/><path fill="#e6e4e6" d="M0 0h100v100H0z"/><path fill="#a29996" d="M100 0h100v100H100z"/><path fill="#cacfd0" d="M200 0h100v100H200z"/><path fill="#c7cbcc" d="M300 0h100v100H300z"/><path fill="#c7c7c4" d="M400 0h100v100H400z"/><path fill="#d1dad9" d="M500 0h100v100H500z"/><path fill="#c5cbc6" d="M600 0h100v100H600z"/><path fill="#aea9a7" d="M700 0h100v100H700z"/><path fill="#cfcbcc" d="M0 100h100v100H0z"/><path fill="#a48e89" d="M100 100h100v100H100z"/><path fill="#cecbc7" d="M200 100h100v100H200z"/><path fill="#c5c9c5" d="M300 100h100v100H300z"/><path fill="#b9bab9" d="M400 100h100v100H400z"/><path fill="#b2b6b9" d="M500 100h100v100H500z"/><path fill="#a49e9b" d="M600 100h100v100H600z"/><path fill="#9f9999" d="M700 100h100v100H700z"/><path fill="#b4b2b1" d="M0 200h100v100H0z"/><path fill="#b0958b" d="M100 200h100v100H100z"/><path fill="#d0c3c2" d="M200 200h100v100H200z"/><path fill="#b0a9b1" d="M300 200h100v100H300z"/><path fill="#c1a4a3" d="M400 200h100v100H400z"/><path fill="#aea7a9" d="M500 200h100v100H500z"/><path fill="#999591" d="M600 200h100v100H600z"/><path fill="#a09896" d="M700 200h100v100H700z"/><path fill="#b1a0a5" d="M0 300h100v100H0z"/><path fill="#bfa29e" d="M100 300h100v100H100z"/><path fill="#c3bbc4" d="M200 300h100v100H200z"/><path fill="#aca0b4" d="M300 300h100v100H300z"/><path fill="#b79f9a" d="M400 300h100v100H400z"/><path fill="#afa39f" d="M500 300h100v100H500z"/><path fill="#b8bca7" d="M600 300h100v100H600z"/><path fill="#92968d" d="M700 300h100v100H700z"/></svg>