<svg xmlns="http://www.w3.org/2000/svg" viewBox="0 0 800 500"><defs/><path fill="#d4d6c8" d="M0 0h100v100H0z"/><path fill="#bcb7a1" d="M100 0h100v100H100z"/><path fill="#d5cec0" d="M200 0h100v100H200z"/><path fill="#e2d8cc" d="M300 0h100v100H300z"/><path fill="#e5e1de" d="M400 0h100v100H400z"/><path fill="#e1dfdc" d="M500 0h100v100H500z"/><path fill="#d3d5ce" d="M600 0h100v100H600z"/><path fill="#c3c2bf" d="M700 0h100v100H700z"/><path fill="#b4bcab" d="M0 100h100v100H0z"/><path fill="#a59b77" d="M100 100h100v100H100z"/><path fill="#9ba591" d="M200 100h100v100H200z"/><path fill="#b0a089" d="M300 100h100v100H300z"/><path fill="#a7b0b6" d="M400 100h100v100H400z"/><path fill="#9baaae" d="M500 100h100v100H500z"/><path fill="#bcacaa" d="M600 100h100v100H600z"/><path fill="#bac0bf" d="M700 100h100v100H700z"/><path fill="#c7c6b6" d="M0 200h100v100H0z"/><path fill="#b2a281" d="M100 200h100v100H100z"/><path fill="#8b8179" d="M200 200h100v100H200z"/><path fill="#b99993" d="M300 200h100v100H300z"/><path fill="#b7af99" d="M400 200h100v100H400z"/><path fill="#999c86" d="M500 200h100v100H500z"/><path fill="#bbbaae" d="M600 200h100v100H600z"/><path fill="#aebac7" d="M700 200h100v100H700z"/><path fill="#c1bca8" d="M0 300h100v100H0z"/><path fill="#9a8e71" d="M100 300h100v100H100z"/><path fill="#85806a" d="M200 300h100v100H200z"/><path fill="#707868" d="M300 300h100v100H300z"/><path fill="#82a395" d="M400 300h100v100H400z"/><path fill="#a7b492" d="M500 300h100v100H500z"/><path fill="#ae9e7e" d="M600 300h100v100H600z"/><path fill="#bbab9f" d="M700 300h100v100H700z"/><path fill="#c7bfa8" d="M0 400h100v100H0z"/><path fill="#a7b49a" d="M100 400h100v100H100z"/><path fill="#8fbea6" d="M200 400h100v100H200z"/><path fill="#7aa595" d="M300 400h100v100H300z"/><path fill="#a3bab5" d="M400 400h100v100H400z"/><path fill="#bbc9c1" d="M500 400h100v100H500z"/><path fill="#d1c6b6" d="M600 400h100v100H600z"/><path fill="#bdb297" d="M700 400h100v100H700z"/></svg>