<svg xmlns="http://www.w3.org/2000/svg" viewBox="0 0 800 600"><defs/><path fill="#cdc8c2" d="M0 0h100v100H0z"/><path fill="#dfdad4" d="M100 0h100v100H100z"/><path fill="#d5cdc6" d="M200 0h100v100H200z"/><path fill="#cfc7c1" d="M300 0h100v100H300z"/><path fill="#d1cbc5" d="M400 0h100v100H400z"/><path fill="#d2cdc8" d="M500 0h100v100H500z"/><path fill="#d2ccc6" d="M600 0h100v100H600z"/><path fill="#d8cfc7" d="M700 0h100v100H700z"/><path fill="#725b4d" d="M0 100h100v100H0z"/><path fill="#847257" d="M100 100h100v100H100z"/><path fill="#443426" d="M200 100h100v100H200z"/><path fill="#3d2a1b" d="M300 100h100v100H300z"/><path fill="#483523" d="M400 100h100v100H400z"/><path fill="#473927" d="M500 100h100v100H500z"/><path fill="#45260a" d="M600 100h100v100H600z"/><path fill="#735d4a" d="M700 100h100v100H700z"/><path fill="#847468" d="M0 200h100v100H0z"/><path fill="#7c6d59" d="M100 200h100v100H100z"/><path fill="#4b413b" d="M200 200h100v100H200z"/><path fill="#5e524b" d="M300 200h100v100H300z"/><path fill="#615243" d="M400 200h100v100H400z"/><path fill="#9f8778" d="M500 200h100v100H500z"/><path fill="#7a5d53" d="M600 200h100v100H600z"/><path fill="#8e8e7f" d="M700 200h100v100H700z"/><path fill="#81705d" d="M0 300h100v100H0z"/><path fill="#7c6b57" d="M100 300h100v100H100z"/><path fill="#4b4440" d="M200 300h100v100H200z"/><path fill="#666261" d="M300 300h100v100H300z"/><path fill="#78644b" d="M400 300h100v100H400z"/><path fill="#957572" d="M500 300h100v100H500z"/><path fill="#805f60" d="M600 300h100v100H600z"/><path fill="#6f6956" d="M700 300h100v100H700z"/><path fill="#92816b" d="M0 400h100v100H0z"/><path fill="#8d7353" d="M100 400h100v100H100z"/><path fill="#9c7f5c" d="M200 400h100v100H200z"/><path fill="#bc9b7a" d="M300 400h100v100H300z"/><path fill="#d8ad83" d="M400 400h100v100H400z"/><path fill="#b9a68a" d="M500 400h100v100H500z"/><path fill="#9f9087" d="M600 400h100v100H600z"/><path fill="#9f7f6b" d="M700 400h100v100H700z"/><path fill="#e7e2db" d="M0 500h100v100H0z"/><path fill="#e4ddd3" d="M100 500h100v100H100z"/><path fill="#f7eee3" d="M200 500h100v100H200z"/><path fill="#f8eee3" d="M300 500h100v100H300z"/><path fill="#f7e9dd" d="M400 500h100v100H400z"/><path fill="#efede6" d="M500 500h100v100H500z"/><path fill="#d6d3e0" d="M600 500h100v100H600z"/><path fill="#e7dddf" d="M700 500h100v100H700z"/></svg>