<svg xmlns="http://www.w3.org/2000/svg" viewBox="0 0 800 600"><defs/><path fill="#dddcd7" d="M0 0h100v100H0z"/><path fill="#d7d6d2" d="M100 0h100v100H100z"/><path fill="#dad8d4" d="M200 0h100v100H200z"/><path fill="#e2e1dd" d="M300 0h100v100H300z"/><path fill="#e4e3df" d="M400 0h100v100H400z"/><path fill="#d1d0cc" d="M500 0h100v100H500z"/><path fill="#dcdbd7" d="M600 0h100v100H600z"/><path fill="#e4e3df" d="M700 0h100v100H700z"/><path fill="#dddcd8" d="M0 100h100v100H0z"/><path fill="#c9c7c3" d="M100 100h100v100H100z"/><path fill="#cdc9c5" d="M200 100h100v100H200z"/><path fill="#d8d5d1" d="M300 100h100v100H300z"/><path fill="#d3d0cc" d="M400 100h100v100H400z"/><path fill="#dad9d5" d="M500 100h100v100H500z"/><path fill="#e8e7e3" d="M600 100h100v100H600z"/><path fill="#dcdbd7" d="M700 100h100v100H700z"/><path fill="#e4e3df" d="M0 200h100v100H0z"/><path fill="#cccac5" d="M100 200h100v100H100z"/><path fill="#c7c2bf" d="M200 200h100v100H200z"/><path fill="#bfbcb9" d="M300 200h100v100H300z"/><path fill="#d7d3d0" d="M400 200h100v100H400z"/><path fill="#dddad7" d="M500 200h100v100H500z"/><path fill="#e6e5e1" d="M600 200h100v100H600z"/><path fill="#dbdad6" d="M700 200h100v100H700z"/><path fill="#dbd9d6" d="M0 300h100v100H0z"/><path fill="#c1bdb9" d="M100 300h100v100H100z"/><path fill="#bfbbb7" d="M200 300h100v100H200z"/><path fill="#cdcbc7" d="M300 300h100v100H300z"/><path fill="#e6e5e1" d="M400 300h100v100H400z"/><path fill="#d8d6d2" d="M500 300h100v100H500z"/><path fill="#d4d2ce" d="M600 300h100v100H600z"/><path fill="#e1e0db" d="M700 300h100v100H700z"/><path fill="#d8d7d3" d="M0 400h100v100H0z"/><path fill="#c3bfbb" d="M100 400h100v100H100z"/><path fill="#dbd8d5" d="M200 400h100v100H200z"/><path fill="#d3d0cc" d="M300 400h100v100H300z"/><path fill="#e6e6e1" d="M400 400h100v100H400z"/><path fill="#dddcd8" d="M500 400h100v100H500z"/><path fill="#d0ccc8" d="M600 400h100v100H600z"/><path fill="#e1e0db" d="M700 400h100v100H700z"/><path fill="#e3e1dd" d="M0 500h100v100H0z"/><path fill="#d0cecb" d="M100 500h100v100H100z"/><path fill="#cac9c5" d="M200 500h100v100H200z"/><path fill="#cfcdc9" d="M300 500h100v100H300z"/><path fill="#dddbd8" d="M400 500h100v100H400z"/><path fill="#eaeae6" d="M500 500h100v100H500z"/><path fill="#eae9e5" d="M600 500h100v100H600z"/><path fill="#e4e3df" d="M700 500h100v100H700z"/></svg>