<svg xmlns="http://www.w3.org/2000/svg" viewBox="0 0 800 500"><defs/><path fill="#a29485" d="M0 0h100v100H0z"/><path fill="#a48a7c" d="M100 0h100v100H100z"/><path fill="#9f766c" d="M200 0h100v100H200z"/><path fill="#a38375" d="M300 0h100v100H300z"/><path fill="#ae9282" d="M400 0h100v100H400z"/><path fill="#a88778" d="M500 0h100v100H500z"/><path fill="#9b7c72" d="M600 0h100v100H600z"/><path fill="#927e72" d="M700 0h100v100H700z"/><path fill="#b8a695" d="M0 100h100v100H0z"/><path fill="#bba790" d="M100 100h100v100H100z"/><path fill="#b89b8a" d="M200 100h100v100H200z"/><path fill="#af8178" d="M300 100h100v100H300z"/><path fill="#a68075" d="M400 100h100v100H400z"/><path fill="#a18577" d="M500 100h100v100H500z"/><path fill="#9a8473" d="M600 100h100v100H600z"/><path fill="#846b5d" d="M700 100h100v100H700z"/><path fill="#917f61" d="M0 200h100v100H0z"/><path fill="#9f8d6d" d="M100 200h100v100H100z"/><path fill="#aa9976" d="M200 200h100v100H200z"/><path fill="#a79885" d="M300 200h100v100H300z"/><path fill="#aa988c" d="M400 200h100v100H400z"/><path fill="#a28479" d="M500 200h100v100H500z"/><path fill="#856453" d="M600 200h100v100H600z"/><path fill="#79654f" d="M700 200h100v100H700z"/><path fill="#8c7957" d="M0 300h100v100H0z"/><path fill="#9b896e" d="M100 300h100v100H100z"/><path fill="#aa977c" d="M200 300h100v100H200z"/><path fill="#bbad9e" d="M300 300h100v100H300z"/><path fill="#a49f9b" d="M400 300h100v100H400z"/><path fill="#aba6a2" d="M500 300h100v100H500z"/><path fill="#b4a699" d="M600 300h100v100H600z"/><path fill="#91796a" d="M700 300h100v100H700z"/><path fill="#786a53" d="M0 400h100v100H0z"/><path fill="#9f907d" d="M100 400h100v100H100z"/><path fill="#9b938c" d="M200 400h100v100H200z"/><path fill="#c8c0b6" d="M300 400h100v100H300z"/><path fill="#aaa29e" d="M400 400h100v100H400z"/><path fill="#b6afa9" d="M500 400h100v100H500z"/><path fill="#9a999a" d="M600 400h100v100H600z"/><path fill="#83786a" d="M700 400h100v100H700z"/></svg>