<svg xmlns="http://www.w3.org/2000/svg" viewBox="0 0 800 600"><defs/><path fill="#d0d6d9" d="M0 0h100v100H0z"/><path fill="#ced7d8" d="M100 0h100v100H100z"/><path fill="#d3dadc" d="M200 0h100v100H200z"/><path fill="#d5dbde" d="M300 0h100v100H300z"/><path fill="#d5dade" d="M400 0h100v100H400z"/><path fill="#d6dbdf" d="M500 0h100v100H500z"/><path fill="#d3dade" d="M600 0h100v100H600z"/><path fill="#cfd7db" d="M700 0h100v100H700z"/><path fill="#cad2d3" d="M0 100h100v100H0z"/><path fill="#b8cdc5" d="M100 100h100v100H100z"/><path fill="#d2d8db" d="M200 100h100v100H200z"/><path fill="#d7dadf" d="M300 100h100v100H300z"/><path fill="#d6dade" d="M400 100h100v100H400z"/><path fill="#d7dbe0" d="M500 100h100v100H500z"/><path fill="#d6d9df" d="M600 100h100v100H600z"/><path fill="#ccd5d8" d="M700 100h100v100H700z"/><path fill="#c6d1d1" d="M0 200h100v100H0z"/><path fill="#bccdc8" d="M100 200h100v100H100z"/><path fill="#d4d7dc" d="M200 200h100v100H200z"/><path fill="#d7dadf" d="M300 200h100v100H300z"/><path fill="#d8d9de" d="M400 200h100v100H400z"/><path fill="#d8d9df" d="M500 200h100v100H500z"/><path fill="#d7d9df" d="M600 200h100v100H600z"/><path fill="#ced5d9" d="M700 200h100v100H700z"/><path fill="#bdccca" d="M0 300h100v100H0z"/><path fill="#b6cac4" d="M100 300h100v100H100z"/><path fill="#cfd3d8" d="M200 300h100v100H200z"/><path fill="#cfd4d7" d="M300 300h100v100H300z"/><path fill="#cfd3d7" d="M400 300h100v100H400z"/><path fill="#d0d4d7" d="M500 300h100v100H500z"/><path fill="#cfd3d6" d="M600 300h100v100H600z"/><path fill="#c6ced1" d="M700 300h100v100H700z"/><path fill="#b5c9c5" d="M0 400h100v100H0z"/><path fill="#b9cac8" d="M100 400h100v100H100z"/><path fill="#d0d3da" d="M200 400h100v100H200z"/><path fill="#ced1d7" d="M300 400h100v100H300z"/><path fill="#cfd1d6" d="M400 400h100v100H400z"/><path fill="#cfd1d7" d="M500 400h100v100H500z"/><path fill="#ced0d6" d="M600 400h100v100H600z"/><path fill="#c4cdd0" d="M700 400h100v100H700z"/><path fill="#c1ccd0" d="M0 500h100v100H0z"/><path fill="#c4ccd2" d="M100 500h100v100H100z"/><path fill="#c6ced3" d="M200 500h100v100H200z"/><path fill="#c6ced2" d="M300 500h100v100H300z"/><path fill="#c6ccd1" d="M400 500h100v100H400z"/><path fill="#c5cbd0" d="M500 500h100v100H500z"/><path fill="#c5cacf" d="M600 500h100v100H600z"/><path fill="#bdc7ca" d="M700 500h100v100H700z"/></svg>