<svg xmlns="http://www.w3.org/2000/svg" viewBox="0 0 800 600"><defs/><path fill="#d1d1f7" d="M0 0h100v100H0z"/><path fill="#a8a6bc" d="M100 0h100v100H100z"/><path fill="#a399ad" d="M200 0h100v100H200z"/><path fill="#bac0e4" d="M300 0h100v100H300z"/><path fill="#afc6e1" d="M400 0h100v100H400z"/><path fill="#95a0bc" d="M500 0h100v100H500z"/><path fill="#c1c3e6" d="M600 0h100v100H600z"/><path fill="#d0d3fa" d="M700 0h100v100H700z"/><path fill="#c8c7f1" d="M0 100h100v100H0z"/><path fill="#9291a0" d="M100 100h100v100H100z"/><path fill="#887a91" d="M200 100h100v100H200z"/><path fill="#797e9f" d="M300 100h100v100H300z"/><path fill="#85a7ba" d="M400 100h100v100H400z"/><path fill="#7e9bb4" d="M500 100h100v100H500z"/><path fill="#b495b1" d="M600 100h100v100H600z"/><path fill="#c8b4d6" d="M700 100h100v100H700z"/><path fill="#c2c2e7" d="M0 200h100v100H0z"/><path fill="#827d85" d="M100 200h100v100H100z"/><path fill="#a097b4" d="M200 200h100v100H200z"/><path fill="#bcbbdd" d="M300 200h100v100H300z"/><path fill="#aaa3b1" d="M400 200h100v100H400z"/><path fill="#bac2e1" d="M500 200h100v100H500z"/><path fill="#ab737f" d="M600 200h100v100H600z"/><path fill="#b3666f" d="M700 200h100v100H700z"/><path fill="#b7b7d7" d="M0 300h100v100H0z"/><path fill="#615c5b" d="M100 300h100v100H100z"/><path fill="#9a7c82" d="M200 300h100v100H200z"/><path fill="#c8c2cc" d="M300 300h100v100H300z"/><path fill="#c2c1cd" d="M400 300h100v100H400z"/><path fill="#4b4f58" d="M500 300h100v100H500z"/><path fill="#7a5d61" d="M600 300h100v100H600z"/><path fill="#ba7c8d" d="M700 300h100v100H700z"/><path fill="#9898b0" d="M0 400h100v100H0z"/><path fill="#706c6e" d="M100 400h100v100H100z"/><path fill="#9b888a" d="M200 400h100v100H200z"/><path fill="#c6bbbe" d="M300 400h100v100H300z"/><path fill="#ccc7d0" d="M400 400h100v100H400z"/><path fill="#110e19" d="M500 400h100v100H500z"/><path fill="#636468" d="M600 400h100v100H600z"/><path fill="#c5bbd9" d="M700 400h100v100H700z"/><path fill="#bdbece" d="M0 500h100v100H0z"/><path fill="#bec2c8" d="M100 500h100v100H100z"/><path fill="#ddd9df" d="M200 500h100v100H200z"/><path fill="#c6bec6" d="M300 500h100v100H300z"/><path fill="#d3d5e1" d="M400 500h100v100H400z"/><path fill="#545259" d="M500 500h100v100H500z"/><path fill="#a5a6ae" d="M600 500h100v100H600z"/><path fill="#cfd0ea" d="M700 500h100v100H700z"/></svg>