<svg xmlns="http://www.w3.org/2000/svg" viewBox="0 0 800 500"><defs/><path fill="#d7b0b0" d="M0 0h100v100H0z"/><path fill="#cec5c0" d="M100 0h100v100H100z"/><path fill="#7f8f94" d="M200 0h100v100H200z"/><path fill="#7d8c94" d="M300 0h100v100H300z"/><path fill="#9babb4" d="M400 0h100v100H400z"/><path fill="#8c9da6" d="M500 0h100v100H500z"/><path fill="#8fa2ac" d="M600 0h100v100H600z"/><path fill="#bac2c6" d="M700 0h100v100H700z"/><path fill="#c68e8d" d="M0 100h100v100H0z"/><path fill="#a9a59e" d="M100 100h100v100H100z"/><path fill="#3c5d6b" d="M200 100h100v100H200z"/><path fill="#3c5a6a" d="M300 100h100v100H300z"/><path fill="#7d959d" d="M400 100h100v100H400z"/><path fill="#8cacb7" d="M500 100h100v100H500z"/><path fill="#869ba4" d="M600 100h100v100H600z"/><path fill="#a6a9ac" d="M700 100h100v100H700z"/><path fill="#d0a8a4" d="M0 200h100v100H0z"/><path fill="#99a09c" d="M100 200h100v100H100z"/><path fill="#7f969f" d="M200 200h100v100H200z"/><path fill="#96a7ab" d="M300 200h100v100H300z"/><path fill="#789195" d="M400 200h100v100H400z"/><path fill="#91b4b8" d="M500 200h100v100H500z"/><path fill="#96a19f" d="M600 200h100v100H600z"/><path fill="#aeadae" d="M700 200h100v100H700z"/><path fill="#cfbab7" d="M0 300h100v100H0z"/><path fill="#a3a391" d="M100 300h100v100H100z"/><path fill="#a8a286" d="M200 300h100v100H200z"/><path fill="#aca98f" d="M300 300h100v100H300z"/><path fill="#808472" d="M400 300h100v100H400z"/><path fill="#646466" d="M500 300h100v100H500z"/><path fill="#736a57" d="M600 300h100v100H600z"/><path fill="#9e9a8f" d="M700 300h100v100H700z"/><path fill="#d2cdc2" d="M0 400h100v100H0z"/><path fill="#bab69f" d="M100 400h100v100H100z"/><path fill="#bab59d" d="M200 400h100v100H200z"/><path fill="#b7b5a0" d="M300 400h100v100H300z"/><path fill="#bbb9a1" d="M400 400h100v100H400z"/><path fill="#a5a499" d="M500 400h100v100H500z"/><path fill="#a49e8c" d="M600 400h100v100H600z"/><path fill="#beb8aa" d="M700 400h100v100H700z"/></svg>