<svg xmlns="http://www.w3.org/2000/svg" viewBox="0 0 800 500"><defs/><path fill="#dbc793" d="M0 0h100v100H0z"/><path fill="#9d8e5f" d="M100 0h100v100H100z"/><path fill="#32433d" d="M200 0h100v100H200z"/><path fill="#5d796b" d="M300 0h100v100H300z"/><path fill="#97c2aa" d="M400 0h100v100H400z"/><path fill="#8fb29c" d="M500 0h100v100H500z"/><path fill="#665948" d="M600 0h100v100H600z"/><path fill="#47392f" d="M700 0h100v100H700z"/><path fill="#c0ae7a" d="M0 100h100v100H0z"/><path fill="#8e8552" d="M100 100h100v100H100z"/><path fill="#0f2c24" d="M200 100h100v100H200z"/><path fill="#3e6554" d="M300 100h100v100H300z"/><path fill="#8ccaab" d="M400 100h100v100H400z"/><path fill="#668673" d="M500 100h100v100H500z"/><path fill="#443220" d="M600 100h100v100H600z"/><path fill="#1c1a0d" d="M700 100h100v100H700z"/><path fill="#bba679" d="M0 200h100v100H0z"/><path fill="#787951" d="M100 200h100v100H100z"/><path fill="#425743" d="M200 200h100v100H200z"/><path fill="#4a4632" d="M300 200h100v100H300z"/><path fill="#5b6955" d="M400 200h100v100H400z"/><path fill="#576652" d="M500 200h100v100H500z"/><path fill="#403324" d="M600 200h100v100H600z"/><path fill="#241a13" d="M700 200h100v100H700z"/><path fill="#998a68" d="M0 300h100v100H0z"/><path fill="#59543b" d="M100 300h100v100H100z"/><path fill="#8b7c60" d="M200 300h100v100H200z"/><path fill="#51321e" d="M300 300h100v100H300z"/><path fill="#3f271d" d="M400 300h100v100H400z"/><path fill="#423126" d="M500 300h100v100H500z"/><path fill="#393025" d="M600 300h100v100H600z"/><path fill="#190f08" d="M700 300h100v100H700z"/><path fill="#907e6c" d="M0 400h100v100H0z"/><path fill="#877665" d="M100 400h100v100H100z"/><path fill="#7e6e65" d="M200 400h100v100H200z"/><path fill="#5e4e4a" d="M300 400h100v100H300z"/><path fill="#563b37" d="M400 400h100v100H400z"/><path fill="#574541" d="M500 400h100v100H500z"/><path fill="#564945" d="M600 400h100v100H600z"/><path fill="#322e2d" d="M700 400h100v100H700z"/></svg>