<svg xmlns="http://www.w3.org/2000/svg" viewBox="0 0 800 400"><defs/><path fill="#c5cace" d="M0 0h100v100H0z"/><path fill="#8c98a0" d="M100 0h100v100H100z"/><path fill="#526571" d="M200 0h100v100H200z"/><path fill="#b0b8be" d="M300 0h100v100H300z"/><path fill="#fff" d="M400 0h100v100H400z"/><path fill="#dde0e2" d="M500 0h100v100H500z"/><path fill="#dadcdf" d="M600 0h100v100H600z"/><path fill="#e8e9eb" d="M700 0h100v100H700z"/><path fill="#d6dadd" d="M0 100h100v100H0z"/><path fill="#97a1a8" d="M100 100h100v100H100z"/><path fill="#7b8992" d="M200 100h100v100H200z"/><path fill="#77858f" d="M300 100h100v100H300z"/><path fill="#abb3b9" d="M400 100h100v100H400z"/><path fill="#c0c6ca" d="M500 100h100v100H500z"/><path fill="#bec4c8" d="M600 100h100v100H600z"/><path fill="#d8dbde" d="M700 100h100v100H700z"/><path fill="#dfe2e4" d="M0 200h100v100H0z"/><path fill="#bec4c8" d="M100 200h100v100H100z"/><path fill="#cacfd2" d="M200 200h100v100H200z"/><path fill="#a2acb2" d="M300 200h100v100H300z"/><path fill="#c5cbce" d="M400 200h100v100H400z"/><path fill="#e9ebec" d="M500 200h100v100H500z"/><path fill="#a3acb3" d="M600 200h100v100H600z"/><path fill="#a8b2b7" d="M700 200h100v100H700z"/><path fill="#c6cbcf" d="M0 300h100v100H0z"/><path fill="#e0e2e5" d="M100 300h100v100H100z"/><path fill="#f3f4f4" d="M200 300h100v100H200z"/><path fill="#c2c8cc" d="M300 300h100v100H300z"/><path fill="#e5e7e9" d="M400 300h100v100H400z"/><path fill="#e7e8ea" d="M500 300h100v100H500z"/><path fill="#eceeef" d="M600 300h100v100H600z"/><path fill="#d8dbde" d="M700 300h100v100H700z"/></svg>