<svg xmlns="http://www.w3.org/2000/svg" viewBox="0 0 800 600"><defs/><path fill="#b0a28d" d="M0 0h100v100H0z"/><path fill="#a46787" d="M100 0h100v100H100z"/><path fill="#a38989" d="M200 0h100v100H200z"/><path fill="#afa492" d="M300 0h100v100H300z"/><path fill="#b19c9c" d="M400 0h100v100H400z"/><path fill="#a88773" d="M500 0h100v100H500z"/><path fill="#a67e56" d="M600 0h100v100H600z"/><path fill="#93827c" d="M700 0h100v100H700z"/><path fill="#b29994" d="M0 100h100v100H0z"/><path fill="#a05d91" d="M100 100h100v100H100z"/><path fill="#a9a299" d="M200 100h100v100H200z"/><path fill="#a49991" d="M300 100h100v100H300z"/><path fill="#9b878d" d="M400 100h100v100H400z"/><path fill="#9d8685" d="M500 100h100v100H500z"/><path fill="#a06e5c" d="M600 100h100v100H600z"/><path fill="#816a61" d="M700 100h100v100H700z"/><path fill="#af8b96" d="M0 200h100v100H0z"/><path fill="#a75887" d="M100 200h100v100H100z"/><path fill="#b78c6e" d="M200 200h100v100H200z"/><path fill="#b79076" d="M300 200h100v100H300z"/><path fill="#a68b88" d="M400 200h100v100H400z"/><path fill="#a78e8a" d="M500 200h100v100H500z"/><path fill="#b0624d" d="M600 200h100v100H600z"/><path fill="#9c8177" d="M700 200h100v100H700z"/><path fill="#a36c93" d="M0 300h100v100H0z"/><path fill="#b36777" d="M100 300h100v100H100z"/><path fill="#d89a5d" d="M200 300h100v100H200z"/><path fill="#c5946f" d="M300 300h100v100H300z"/><path fill="#c09676" d="M400 300h100v100H400z"/><path fill="#c39773" d="M500 300h100v100H500z"/><path fill="#ad7558" d="M600 300h100v100H600z"/><path fill="#af9182" d="M700 300h100v100H700z"/><path fill="#924a95" d="M0 400h100v100H0z"/><path fill="#bb8078" d="M100 400h100v100H100z"/><path fill="#c99665" d="M200 400h100v100H200z"/><path fill="#b68d74" d="M300 400h100v100H300z"/><path fill="#c0876e" d="M400 400h100v100H400z"/><path fill="#c89973" d="M500 400h100v100H500z"/><path fill="#8d7469" d="M600 400h100v100H600z"/><path fill="#a28271" d="M700 400h100v100H700z"/><path fill="#9b5e84" d="M0 500h100v100H0z"/><path fill="#b08972" d="M100 500h100v100H100z"/><path fill="#d1a578" d="M200 500h100v100H200z"/><path fill="#ba9b80" d="M300 500h100v100H300z"/><path fill="#bc987c" d="M400 500h100v100H400z"/><path fill="#c49572" d="M500 500h100v100H500z"/><path fill="#7e6e71" d="M600 500h100v100H600z"/><path fill="#937666" d="M700 500h100v100H700z"/></svg>