<svg xmlns="http://www.w3.org/2000/svg" viewBox="0 0 800 400"><defs/><path fill="#1e1614" d="M0 0h100v100H0z"/><path fill="#5b3d37" d="M100 0h100v100H100z"/><path fill="#83675e" d="M200 0h100v100H200z"/><path fill="#c1a091" d="M300 0h100v100H300z"/><path fill="#c6a08f" d="M400 0h100v100H400z"/><path fill="#b2a38d" d="M500 0h100v100H500z"/><path fill="#bfa08b" d="M600 0h100v100H600z"/><path fill="#e3ddb8" d="M700 0h100v100H700z"/><path fill="#2f1f1d" d="M0 100h100v100H0z"/><path fill="#583b35" d="M100 100h100v100H100z"/><path fill="#836559" d="M200 100h100v100H200z"/><path fill="#9d8073" d="M300 100h100v100H300z"/><path fill="#b79282" d="M400 100h100v100H400z"/><path fill="#cfbda6" d="M500 100h100v100H500z"/><path fill="#c9b690" d="M600 100h100v100H600z"/><path fill="#d6d195" d="M700 100h100v100H700z"/><path fill="#291d1a" d="M0 200h100v100H0z"/><path fill="#4a312b" d="M100 200h100v100H100z"/><path fill="#775f58" d="M200 200h100v100H200z"/><path fill="#906b63" d="M300 200h100v100H300z"/><path fill="#865d53" d="M400 200h100v100H400z"/><path fill="#d5bfab" d="M500 200h100v100H500z"/><path fill="#a6967b" d="M600 200h100v100H600z"/><path fill="#9e8159" d="M700 200h100v100H700z"/><path fill="#14110f" d="M0 300h100v100H0z"/><path fill="#56423d" d="M100 300h100v100H100z"/><path fill="#8f7771" d="M200 300h100v100H200z"/><path fill="#945e53" d="M300 300h100v100H300z"/><path fill="#72483f" d="M400 300h100v100H400z"/><path fill="#b8a189" d="M500 300h100v100H500z"/><path fill="#d4bcad" d="M600 300h100v100H600z"/><path fill="#b29f8a" d="M700 300h100v100H700z"/></svg>