<svg xmlns="http://www.w3.org/2000/svg" viewBox="0 0 800 600"><defs/><path fill="#fbfbfb" d="M0 0h100v100H0z"/><path fill="#f8fcfc" d="M100 0h100v100H100z"/><path fill="#fff" d="M200 0h100v100H200zm100 0h100v100H300z"/><path fill="#feffff" d="M400 0h100v100H400z"/><path fill="#fff" d="M500 0h100v100H500zm100 0h100v100H600zm100 0h100v100H700z"/><path fill="#edf2f3" d="M0 100h100v100H0z"/><path fill="#c98e95" d="M100 100h100v100H100z"/><path fill="#ac6581" d="M200 100h100v100H200z"/><path fill="#b37091" d="M300 100h100v100H300z"/><path fill="#bb6b87" d="M400 100h100v100H400z"/><path fill="#a7687f" d="M500 100h100v100H500z"/><path fill="#927b8d" d="M600 100h100v100H600z"/><path fill="#ebeded" d="M700 100h100v100H700z"/><path fill="#edf0f1" d="M0 200h100v100H0z"/><path fill="#bb3f4a" d="M100 200h100v100H100z"/><path fill="#2e3759" d="M200 200h100v100H200z"/><path fill="#3a326a" d="M300 200h100v100H300z"/><path fill="#4b0745" d="M400 200h100v100H400z"/><path fill="#713f61" d="M500 200h100v100H500z"/><path fill="#402e57" d="M600 200h100v100H600z"/><path fill="#e2e2e3" d="M700 200h100v100H700z"/><path fill="#eedbde" d="M0 300h100v100H0z"/><path fill="#ac1a28" d="M100 300h100v100H100z"/><path fill="#80192f" d="M200 300h100v100H200z"/><path fill="#7b284d" d="M300 300h100v100H300z"/><path fill="#582652" d="M400 300h100v100H400z"/><path fill="#8a7c80" d="M500 300h100v100H500z"/><path fill="#52444b" d="M600 300h100v100H600z"/><path fill="#e3e1e2" d="M700 300h100v100H700z"/><path fill="#e7cbcf" d="M0 400h100v100H0z"/><path fill="#88373e" d="M100 400h100v100H100z"/><path fill="#504946" d="M200 400h100v100H200z"/><path fill="#5f5663" d="M300 400h100v100H300z"/><path fill="#615f79" d="M400 400h100v100H400z"/><path fill="#4c4848" d="M500 400h100v100H500z"/><path fill="#5b5154" d="M600 400h100v100H600z"/><path fill="#eae6e8" d="M700 400h100v100H700z"/><path fill="#f6f8fa" d="M0 500h100v100H0z"/><path fill="#eaf6f8" d="M100 500h100v100H100z"/><path fill="#f2f6fa" d="M200 500h100v100H200z"/><path fill="#f1f4f4" d="M300 500h100v100H300z"/><path fill="#f0f2ef" d="M400 500h100v100H400z"/><path fill="#f2f2f6" d="M500 500h100v100H500z"/><path fill="#f0f1f3" d="M600 500h100v100H600z"/><path fill="#fbfcfc" d="M700 500h100v100H700z"/></svg>