<svg xmlns="http://www.w3.org/2000/svg" viewBox="0 0 800 600"><defs/><path fill="#dfeaee" d="M0 0h100v100H0z"/><path fill="#d8e1e2" d="M100 0h100v100H100z"/><path fill="#e8e9e9" d="M200 0h100v100H200z"/><path fill="#e6ecee" d="M300 0h100v100H300z"/><path fill="#e8eaea" d="M400 0h100v100H400z"/><path fill="#e5eff1" d="M500 0h100v100H500z"/><path fill="#e8edee" d="M600 0h100v100H600z"/><path fill="#eceeee" d="M700 0h100v100H700z"/><path fill="#a3bfcb" d="M0 100h100v100H0z"/><path fill="#698f90" d="M100 100h100v100H100z"/><path fill="#b4b8b5" d="M200 100h100v100H200z"/><path fill="#7d877d" d="M300 100h100v100H300z"/><path fill="#847566" d="M400 100h100v100H400z"/><path fill="#a9c8ca" d="M500 100h100v100H500z"/><path fill="#c5e1e7" d="M600 100h100v100H600z"/><path fill="#bbc8ca" d="M700 100h100v100H700z"/><path fill="#8faab9" d="M0 200h100v100H0z"/><path fill="#598989" d="M100 200h100v100H100z"/><path fill="#81a6a7" d="M200 200h100v100H200z"/><path fill="#7d7f7c" d="M300 200h100v100H300z"/><path fill="#675e53" d="M400 200h100v100H400z"/><path fill="#829192" d="M500 200h100v100H500z"/><path fill="#8ec5cb" d="M600 200h100v100H600z"/><path fill="#83a5a7" d="M700 200h100v100H700z"/><path fill="#8ab3bf" d="M0 300h100v100H0z"/><path fill="#72897f" d="M100 300h100v100H100z"/><path fill="#968880" d="M200 300h100v100H200z"/><path fill="#7d8189" d="M300 300h100v100H300z"/><path fill="#786b5b" d="M400 300h100v100H400z"/><path fill="#536469" d="M500 300h100v100H500z"/><path fill="#5e7674" d="M600 300h100v100H600z"/><path fill="#5e7783" d="M700 300h100v100H700z"/><path fill="#66969e" d="M0 400h100v100H0z"/><path fill="#545853" d="M100 400h100v100H100z"/><path fill="#836a64" d="M200 400h100v100H200z"/><path fill="#987664" d="M300 400h100v100H300z"/><path fill="#995e44" d="M400 400h100v100H400z"/><path fill="#8d6048" d="M500 400h100v100H500z"/><path fill="#7b5949" d="M600 400h100v100H600z"/><path fill="#3a424d" d="M700 400h100v100H700z"/><path fill="#c4c1bc" d="M0 500h100v100H0z"/><path fill="#a5aaab" d="M100 500h100v100H100z"/><path fill="#b2b9bb" d="M200 500h100v100H200z"/><path fill="#dcd2ca" d="M300 500h100v100H300z"/><path fill="#ccafa1" d="M400 500h100v100H400z"/><path fill="#dbb6a5" d="M500 500h100v100H500z"/><path fill="#b9a8a0" d="M600 500h100v100H600z"/><path fill="#8b9195" d="M700 500h100v100H700z"/></svg>