<svg xmlns="http://www.w3.org/2000/svg" viewBox="0 0 800 1800"><defs/><path fill="#f9f9f9" d="M0 0h100v100H0z"/><path fill="#fbfbfb" d="M100 0h100v100H100z"/><path fill="#fff" d="M200 0h100v100H200z"/><path fill="#fefefe" d="M300 0h100v100H300zm100 0h100v100H400zm100 0h100v100H500z"/><path fill="#fcfcfc" d="M600 0h100v100H600z"/><path fill="#f3f3f3" d="M700 0h100v100H700z"/><path fill="#f7f7f7" d="M0 100h100v100H0z"/><path fill="#f4f4f4" d="M100 100h100v100H100z"/><path fill="#f1f1f1" d="M200 100h100v100H200z"/><path fill="#f6f6f6" d="M300 100h100v100H300z"/><path fill="#fff" d="M400 100h100v100H400zm100 0h100v100H500zm100 0h100v100H600zm100 0h100v100H700z"/><path fill="#ededed" d="M0 200h100v100H0z"/><path fill="#d7d7d7" d="M100 200h100v100H100zm100 0h100v100H200z"/><path fill="#d9d9d9" d="M300 200h100v100H300zm100 0h100v100H400zm100 0h100v100H500zm100 0h100v100H600z"/><path fill="#f7f7f7" d="M700 200h100v100H700z"/><path fill="#e9e9e9" d="M0 300h100v100H0z"/><path fill="#c7c7c7" d="M100 300h100v100H100z"/><path fill="#d1d1d1" d="M200 300h100v100H200z"/><path fill="#d4d4d4" d="M300 300h100v100H300z"/><path fill="#d1d1d1" d="M400 300h100v100H400z"/><path fill="#cdcdcd" d="M500 300h100v100H500z"/><path fill="#e6e6e6" d="M600 300h100v100H600z"/><path fill="#fff" d="M700 300h100v100H700z"/><path fill="#ededed" d="M0 400h100v100H0z"/><path fill="#d3d3d3" d="M100 400h100v100H100z"/><path fill="#d9d9d9" d="M200 400h100v100H200z"/><path fill="#d6d6d6" d="M300 400h100v100H300z"/><path fill="#d8d8d8" d="M400 400h100v100H400z"/><path fill="#d9d9d9" d="M500 400h100v100H500z"/><path fill="#d6d6d6" d="M600 400h100v100H600z"/><path fill="#f3f3f3" d="M700 400h100v100H700z"/><path fill="#ededed" d="M0 500h100v100H0z"/><path fill="#d4d4d4" d="M100 500h100v100H100z"/><path fill="#d7d7d7" d="M200 500h100v100H200zm100 0h100v100H300z"/><path fill="#d6d6d6" d="M400 500h100v100H400z"/><path fill="#d8d8d8" d="M500 500h100v100H500z"/><path fill="#d6d6d6" d="M600 500h100v100H600z"/><path fill="#efefef" d="M700 500h100v100H700z"/><path fill="#ececec" d="M0 600h100v100H0z"/><path fill="#cfcfcf" d="M100 600h100v100H100z"/><path fill="#d2d2d2" d="M200 600h100v100H200z"/><path fill="#d4d4d4" d="M300 600h100v100H300z"/><path fill="#d2d2d2" d="M400 600h100v100H400z"/><path fill="#d5d5d5" d="M500 600h100v100H500z"/><path fill="#d8d8d8" d="M600 600h100v100H600z"/><path fill="#fcfcfc" d="M700 600h100v100H700z"/><path fill="#ebebeb" d="M0 700h100v100H0z"/><path fill="#cfcfcf" d="M100 700h100v100H100z"/><path fill="#cdcdcd" d="M200 700h100v100H200z"/><path fill="#cfcfcf" d="M300 700h100v100H300z"/><path fill="#d0d0d0" d="M400 700h100v100H400z"/><path fill="#ccc" d="M500 700h100v100H500z"/><path fill="#e8e8e8" d="M600 700h100v100H600z"/><path fill="#fff" d="M700 700h100v100H700z"/><path fill="#eaeaea" d="M0 800h100v100H0z"/><path fill="#c6c6c6" d="M100 800h100v100H100z"/><path fill="#cbcbcb" d="M200 800h100v100H200zm100 0h100v100H300z"/><path fill="#d1d1d1" d="M400 800h100v100H400zm100 0h100v100H500z"/><path fill="#d3d3d3" d="M600 800h100v100H600z"/><path fill="#f2f2f2" d="M700 800h100v100H700z"/><path fill="#eaeaea" d="M0 900h100v100H0z"/><path fill="#cfcfcf" d="M100 900h100v100H100z"/><path fill="#cdcdcd" d="M200 900h100v100H200z"/><path fill="#d1d1d1" d="M300 900h100v100H300z"/><path fill="#d2d2d2" d="M400 900h100v100H400z"/><path fill="#e3e3e3" d="M500 900h100v100H500z"/><path fill="#dbdbdb" d="M600 900h100v100H600z"/><path fill="#f4f4f4" d="M700 900h100v100H700z"/><path fill="#ececec" d="M0 1000h100v100H0z"/><path fill="#d3d3d3" d="M100 1000h100v100H100z"/><path fill="#d2d2d2" d="M200 1000h100v100H200z"/><path fill="#d5d5d5" d="M300 1000h100v100H300z"/><path fill="#d1d1d1" d="M400 1000h100v100H400z"/><path fill="#dadada" d="M500 1000h100v100H500z"/><path fill="#e7e7e7" d="M600 1000h100v100H600z"/><path fill="#f8f8f8" d="M700 1000h100v100H700z"/><path fill="#eee" d="M0 1100h100v100H0z"/><path fill="#d2d2d2" d="M100 1100h100v100H100z"/><path fill="#d6d6d6" d="M200 1100h100v100H200z"/><path fill="#d8d8d8" d="M300 1100h100v100H300z"/><path fill="#d3d3d3" d="M400 1100h100v100H400z"/><path fill="#dbdbdb" d="M500 1100h100v100H500z"/><path fill="#e0e0e0" d="M600 1100h100v100H600z"/><path fill="#f2f2f2" d="M700 1100h100v100H700z"/><path fill="#ebebeb" d="M0 1200h100v100H0z"/><path fill="#d3d3d3" d="M100 1200h100v100H100z"/><path fill="#d9d9d9" d="M200 1200h100v100H200z"/><path fill="#d7d7d7" d="M300 1200h100v100H300z"/><path fill="#d8d8d8" d="M400 1200h100v100H400z"/><path fill="#dadada" d="M500 1200h100v100H500z"/><path fill="#dbdbdb" d="M600 1200h100v100H600z"/><path fill="#f3f3f3" d="M700 1200h100v100H700z"/><path fill="#ededed" d="M0 1300h100v100H0z"/><path fill="#cecece" d="M100 1300h100v100H100z"/><path fill="#d6d6d6" d="M200 1300h100v100H200z"/><path fill="#d1d1d1" d="M300 1300h100v100H300z"/><path fill="#d3d3d3" d="M400 1300h100v100H400z"/><path fill="#e2e2e2" d="M500 1300h100v100H500zm100 0h100v100H600z"/><path fill="#f8f8f8" d="M700 1300h100v100H700z"/><path fill="#eaeaea" d="M0 1400h100v100H0z"/><path fill="#cfcfcf" d="M100 1400h100v100H100z"/><path fill="#d1d1d1" d="M200 1400h100v100H200z"/><path fill="#cecece" d="M300 1400h100v100H300z"/><path fill="#d1d1d1" d="M400 1400h100v100H400z"/><path fill="#cacaca" d="M500 1400h100v100H500z"/><path fill="#cfcfcf" d="M600 1400h100v100H600z"/><path fill="#fcfcfc" d="M700 1400h100v100H700z"/><path fill="#eaeaea" d="M0 1500h100v100H0z"/><path fill="#ccc" d="M100 1500h100v100H100z"/><path fill="#d1d1d1" d="M200 1500h100v100H200z"/><path fill="#d0d0d0" d="M300 1500h100v100H300z"/><path fill="#d2d2d2" d="M400 1500h100v100H400z"/><path fill="#d0d0d0" d="M500 1500h100v100H500z"/><path fill="#dcdcdc" d="M600 1500h100v100H600z"/><path fill="#f9f9f9" d="M700 1500h100v100H700z"/><path fill="#ececec" d="M0 1600h100v100H0z"/><path fill="#cbcbcb" d="M100 1600h100v100H100z"/><path fill="#d3d3d3" d="M200 1600h100v100H200z"/><path fill="#cfcfcf" d="M300 1600h100v100H300z"/><path fill="#cecece" d="M400 1600h100v100H400z"/><path fill="#d1d1d1" d="M500 1600h100v100H500z"/><path fill="#d5d5d5" d="M600 1600h100v100H600z"/><path fill="#ededed" d="M700 1600h100v100H700zM0 1700h100v100H0z"/><path fill="#d4d4d4" d="M100 1700h100v100H100z"/><path fill="#d9d9d9" d="M200 1700h100v100H200z"/><path fill="#d8d8d8" d="M300 1700h100v100H300zm100 0h100v100H400z"/><path fill="#d7d7d7" d="M500 1700h100v100H500z"/><path fill="#e4e4e4" d="M600 1700h100v100H600z"/><path fill="#fdfdfd" d="M700 1700h100v100H700z"/></svg>