<svg xmlns="http://www.w3.org/2000/svg" viewBox="0 0 800 600"><defs/><path fill="#a9b5ad" d="M0 0h100v100H0z"/><path fill="#8aa097" d="M100 0h100v100H100z"/><path fill="#91a8b6" d="M200 0h100v100H200z"/><path fill="#b29f9d" d="M300 0h100v100H300z"/><path fill="#ae8882" d="M400 0h100v100H400z"/><path fill="#98a08d" d="M500 0h100v100H500z"/><path fill="#95a69a" d="M600 0h100v100H600z"/><path fill="#849679" d="M700 0h100v100H700z"/><path fill="#93a28e" d="M0 100h100v100H0z"/><path fill="#819e8d" d="M100 100h100v100H100z"/><path fill="#76a6bc" d="M200 100h100v100H200z"/><path fill="#a28b75" d="M300 100h100v100H300z"/><path fill="#977152" d="M400 100h100v100H400z"/><path fill="#869974" d="M500 100h100v100H500z"/><path fill="#719d57" d="M600 100h100v100H600z"/><path fill="#73915f" d="M700 100h100v100H700z"/><path fill="#7d9078" d="M0 200h100v100H0z"/><path fill="#839e80" d="M100 200h100v100H100z"/><path fill="#8b9a9d" d="M200 200h100v100H200z"/><path fill="#9f947e" d="M300 200h100v100H300z"/><path fill="#9d8d74" d="M400 200h100v100H400z"/><path fill="#818b5a" d="M500 200h100v100H500z"/><path fill="#558d12" d="M600 200h100v100H600z"/><path fill="#728854" d="M700 200h100v100H700z"/><path fill="#8c9e8d" d="M0 300h100v100H0z"/><path fill="#ac9b92" d="M100 300h100v100H100z"/><path fill="#d68974" d="M200 300h100v100H200z"/><path fill="#a36857" d="M300 300h100v100H300z"/><path fill="#a17073" d="M400 300h100v100H400z"/><path fill="#b3a1a3" d="M500 300h100v100H500z"/><path fill="#a09999" d="M600 300h100v100H600z"/><path fill="#af9094" d="M700 300h100v100H700z"/><path fill="#707073" d="M0 400h100v100H0z"/><path fill="#4c3d38" d="M100 400h100v100H100z"/><path fill="#524439" d="M200 400h100v100H200z"/><path fill="#733a3b" d="M300 400h100v100H300z"/><path fill="#ab828a" d="M400 400h100v100H400z"/><path fill="#9eb0b7" d="M500 400h100v100H500z"/><path fill="#a9a5ad" d="M600 400h100v100H600z"/><path fill="#b5989e" d="M700 400h100v100H700z"/><path fill="#4b4e4b" d="M0 500h100v100H0z"/><path fill="#2c2f31" d="M100 500h100v100H100z"/><path fill="#353e42" d="M200 500h100v100H200z"/><path fill="#9b6b71" d="M300 500h100v100H300z"/><path fill="#b5878c" d="M400 500h100v100H400z"/><path fill="#a7969c" d="M500 500h100v100H500z"/><path fill="#b08e93" d="M600 500h100v100H600z"/><path fill="#b69b9f" d="M700 500h100v100H700z"/></svg>