<svg xmlns="http://www.w3.org/2000/svg" viewBox="0 0 800 400"><defs/><path fill="#5e85b3" d="M0 0h100v100H0z"/><path fill="#6d9cce" d="M100 0h100v100H100z"/><path fill="#6a95c7" d="M200 0h100v100H200z"/><path fill="#6690c2" d="M300 0h100v100H300z"/><path fill="#4e668b" d="M400 0h100v100H400z"/><path fill="#628bbb" d="M500 0h100v100H500z"/><path fill="#558bc5" d="M600 0h100v100H600z"/><path fill="#5f8ec2" d="M700 0h100v100H700z"/><path fill="#6089b8" d="M0 100h100v100H0z"/><path fill="#6f9cce" d="M100 100h100v100H100z"/><path fill="#6996c9" d="M200 100h100v100H200z"/><path fill="#638dbe" d="M300 100h100v100H300z"/><path fill="#567198" d="M400 100h100v100H400z"/><path fill="#5a7ca5" d="M500 100h100v100H500z"/><path fill="#2c4368" d="M600 100h100v100H600z"/><path fill="#577fb1" d="M700 100h100v100H700z"/><path fill="#6a96c6" d="M0 200h100v100H0z"/><path fill="#5a84b2" d="M100 200h100v100H100z"/><path fill="#335e97" d="M200 200h100v100H200z"/><path fill="#33507b" d="M300 200h100v100H300z"/><path fill="#4971a8" d="M400 200h100v100H400z"/><path fill="#466085" d="M500 200h100v100H500z"/><path fill="#1f3255" d="M600 200h100v100H600z"/><path fill="#3f5b85" d="M700 200h100v100H700z"/><path fill="#6694c6" d="M0 300h100v100H0z"/><path fill="#3b628c" d="M100 300h100v100H100z"/><path fill="#3b567b" d="M200 300h100v100H200z"/><path fill="#3b5577" d="M300 300h100v100H300z"/><path fill="#1d3d62" d="M400 300h100v100H400z"/><path fill="#375272" d="M500 300h100v100H500z"/><path fill="#142d4c" d="M600 300h100v100H600z"/><path fill="#194069" d="M700 300h100v100H700z"/></svg>