<svg xmlns="http://www.w3.org/2000/svg" viewBox="0 0 800 600"><defs/><path fill="#dfd6c7" d="M0 0h100v100H0z"/><path fill="#ded5c9" d="M100 0h100v100H100z"/><path fill="#ddd3c6" d="M200 0h100v100H200z"/><path fill="#ddd1c2" d="M300 0h100v100H300z"/><path fill="#dbcebc" d="M400 0h100v100H400z"/><path fill="#d4c9b8" d="M500 0h100v100H500z"/><path fill="#c5bcae" d="M600 0h100v100H600z"/><path fill="#cbc7bb" d="M700 0h100v100H700z"/><path fill="#dcd6cf" d="M0 100h100v100H0z"/><path fill="#ccc1b8" d="M100 100h100v100H100z"/><path fill="#ddd5cc" d="M200 100h100v100H200z"/><path fill="#cfc1b6" d="M300 100h100v100H300z"/><path fill="#d1c1b3" d="M400 100h100v100H400z"/><path fill="#c6b9ab" d="M500 100h100v100H500z"/><path fill="#93847a" d="M600 100h100v100H600z"/><path fill="#beb7ad" d="M700 100h100v100H700z"/><path fill="#d1ccc5" d="M0 200h100v100H0z"/><path fill="#d0c7bc" d="M100 200h100v100H100z"/><path fill="#c8beb1" d="M200 200h100v100H200z"/><path fill="#c6b3a7" d="M300 200h100v100H300z"/><path fill="#cebcb1" d="M400 200h100v100H400z"/><path fill="#bcada2" d="M500 200h100v100H500z"/><path fill="#8b7a70" d="M600 200h100v100H600z"/><path fill="#bab2a7" d="M700 200h100v100H700z"/><path fill="#c7c0bb" d="M0 300h100v100H0z"/><path fill="#c6b9ac" d="M100 300h100v100H100z"/><path fill="#c7b8a7" d="M200 300h100v100H200z"/><path fill="#c0ac99" d="M300 300h100v100H300z"/><path fill="#beaea2" d="M400 300h100v100H400z"/><path fill="#b09990" d="M500 300h100v100H500z"/><path fill="#85796b" d="M600 300h100v100H600z"/><path fill="#a7a296" d="M700 300h100v100H700z"/><path fill="#bbb3ab" d="M0 400h100v100H0z"/><path fill="#b4a89a" d="M100 400h100v100H100z"/><path fill="#a69893" d="M200 400h100v100H200z"/><path fill="#a69184" d="M300 400h100v100H300z"/><path fill="#ac9c90" d="M400 400h100v100H400z"/><path fill="#a89088" d="M500 400h100v100H500z"/><path fill="#837c68" d="M600 400h100v100H600z"/><path fill="#928f7e" d="M700 400h100v100H700z"/><path fill="#c3beb3" d="M0 500h100v100H0z"/><path fill="#bab2a4" d="M100 500h100v100H100z"/><path fill="#b4ac9f" d="M200 500h100v100H200z"/><path fill="#b8a99c" d="M300 500h100v100H300z"/><path fill="#b0a394" d="M400 500h100v100H400z"/><path fill="#aca292" d="M500 500h100v100H500z"/><path fill="#aba192" d="M600 500h100v100H600z"/><path fill="#a69f8d" d="M700 500h100v100H700z"/></svg>