<svg xmlns="http://www.w3.org/2000/svg" viewBox="0 0 800 600"><defs/><path fill="#f7f7f7" d="M0 0h100v100H0z"/><path fill="#efefef" d="M100 0h100v100H100z"/><path fill="#f7f7f7" d="M200 0h100v100H200z"/><path fill="#e8e8e8" d="M300 0h100v100H300z"/><path fill="#e4e4e4" d="M400 0h100v100H400z"/><path fill="#eee" d="M500 0h100v100H500z"/><path fill="#f9f9f9" d="M600 0h100v100H600z"/><path fill="#f7f7f7" d="M700 0h100v100H700z"/><path fill="#e2e2e2" d="M0 100h100v100H0z"/><path fill="#676766" d="M100 100h100v100H100z"/><path fill="#d7d6d6" d="M200 100h100v100H200z"/><path fill="#838383" d="M300 100h100v100H300z"/><path fill="#565656" d="M400 100h100v100H400z"/><path fill="#868686" d="M500 100h100v100H500z"/><path fill="#dfdfdf" d="M600 100h100v100H600z"/><path fill="#e2e2e2" d="M700 100h100v100H700z"/><path fill="#ccc" d="M0 200h100v100H0z"/><path fill="#636363" d="M100 200h100v100H100z"/><path fill="#b6b6b6" d="M200 200h100v100H200z"/><path fill="#c5c5c5" d="M300 200h100v100H300z"/><path fill="#9b9a9a" d="M400 200h100v100H400z"/><path fill="#909090" d="M500 200h100v100H500z"/><path fill="#dededd" d="M600 200h100v100H600z"/><path fill="#d2d2d2" d="M700 200h100v100H700z"/><path fill="#a9a9a9" d="M0 300h100v100H0z"/><path fill="#767675" d="M100 300h100v100H100z"/><path fill="#b1b1b1" d="M200 300h100v100H200z"/><path fill="#e5e4e4" d="M300 300h100v100H300z"/><path fill="#eee" d="M400 300h100v100H400zm100 0h100v100H500z"/><path fill="#cbcbcb" d="M600 300h100v100H600z"/><path fill="#929190" d="M700 300h100v100H700z"/><path fill="#797979" d="M0 400h100v100H0z"/><path fill="#929292" d="M100 400h100v100H100z"/><path fill="#d5d5d5" d="M200 400h100v100H200z"/><path fill="#e1e1e1" d="M300 400h100v100H300z"/><path fill="#bcbcbb" d="M400 400h100v100H400z"/><path fill="#e5e5e5" d="M500 400h100v100H500z"/><path fill="#edeeee" d="M600 400h100v100H600z"/><path fill="#aba9a8" d="M700 400h100v100H700z"/><path fill="#dcdcdc" d="M0 500h100v100H0z"/><path fill="#efefef" d="M100 500h100v100H100z"/><path fill="#fefefe" d="M200 500h100v100H200z"/><path fill="#dedede" d="M300 500h100v100H300z"/><path fill="#cfcfce" d="M400 500h100v100H400z"/><path fill="#e0e0df" d="M500 500h100v100H500z"/><path fill="#f5f5f5" d="M600 500h100v100H600z"/><path fill="#e7e7e7" d="M700 500h100v100H700z"/></svg>