<svg xmlns="http://www.w3.org/2000/svg" viewBox="0 0 800 400"><defs/><path fill="#dacfc2" d="M0 0h100v100H0z"/><path fill="#5b7683" d="M100 0h100v100H100z"/><path fill="#5e717a" d="M200 0h100v100H200z"/><path fill="#54636d" d="M300 0h100v100H300z"/><path fill="#3c5664" d="M400 0h100v100H400z"/><path fill="#5f7b8c" d="M500 0h100v100H500z"/><path fill="#657d8a" d="M600 0h100v100H600z"/><path fill="#757774" d="M700 0h100v100H700z"/><path fill="#ddcbb8" d="M0 100h100v100H0z"/><path fill="#64899b" d="M100 100h100v100H100z"/><path fill="#799db0" d="M200 100h100v100H200z"/><path fill="#a29990" d="M300 100h100v100H300z"/><path fill="#6c7371" d="M400 100h100v100H400z"/><path fill="#567989" d="M500 100h100v100H500z"/><path fill="#72848d" d="M600 100h100v100H600z"/><path fill="#847566" d="M700 100h100v100H700z"/><path fill="#d9c8bc" d="M0 200h100v100H0z"/><path fill="#868d84" d="M100 200h100v100H100z"/><path fill="#9f946a" d="M200 200h100v100H200z"/><path fill="#9eb1b5" d="M300 200h100v100H300z"/><path fill="#89a2ab" d="M400 200h100v100H400z"/><path fill="#698a99" d="M500 200h100v100H500z"/><path fill="#919287" d="M600 200h100v100H600z"/><path fill="#9d8f7a" d="M700 200h100v100H700z"/><path fill="#c2b2a6" d="M0 300h100v100H0z"/><path fill="#b19d81" d="M100 300h100v100H100z"/><path fill="#bfb98c" d="M200 300h100v100H200z"/><path fill="#bae0ea" d="M300 300h100v100H300z"/><path fill="#b0d7e1" d="M400 300h100v100H400z"/><path fill="#a1d2e0" d="M500 300h100v100H500z"/><path fill="#d7c6a7" d="M600 300h100v100H600z"/><path fill="#c6b29c" d="M700 300h100v100H700z"/></svg>