<svg xmlns="http://www.w3.org/2000/svg" viewBox="0 0 800 500"><defs/><path fill="#a38b91" d="M0 0h100v100H0z"/><path fill="#9a8387" d="M100 0h100v100H100z"/><path fill="#b9b8b5" d="M200 0h100v100H200z"/><path fill="#9a9496" d="M300 0h100v100H300z"/><path fill="#8f8390" d="M400 0h100v100H400z"/><path fill="#b4a9ad" d="M500 0h100v100H500z"/><path fill="#aaa3a9" d="M600 0h100v100H600z"/><path fill="#989495" d="M700 0h100v100H700z"/><path fill="#775662" d="M0 100h100v100H0z"/><path fill="#9a7275" d="M100 100h100v100H100z"/><path fill="#fafcf3" d="M200 100h100v100H200z"/><path fill="#bab6ad" d="M300 100h100v100H300z"/><path fill="#a39fa3" d="M400 100h100v100H400z"/><path fill="#8d6d6a" d="M500 100h100v100H500z"/><path fill="#6e565b" d="M600 100h100v100H600z"/><path fill="#76706d" d="M700 100h100v100H700z"/><path fill="#6d5757" d="M0 200h100v100H0z"/><path fill="#805455" d="M100 200h100v100H100z"/><path fill="#897a7f" d="M200 200h100v100H200z"/><path fill="#867984" d="M300 200h100v100H300z"/><path fill="#ada4ad" d="M400 200h100v100H400z"/><path fill="#785d66" d="M500 200h100v100H500z"/><path fill="#563d4f" d="M600 200h100v100H600z"/><path fill="#7e7074" d="M700 200h100v100H700z"/><path fill="#865b5f" d="M0 300h100v100H0z"/><path fill="#815c5e" d="M100 300h100v100H100z"/><path fill="#6f6466" d="M200 300h100v100H200z"/><path fill="#918e92" d="M300 300h100v100H300z"/><path fill="#89b497" d="M400 300h100v100H400z"/><path fill="#769978" d="M500 300h100v100H500z"/><path fill="#5f735e" d="M600 300h100v100H600z"/><path fill="#7f7f7a" d="M700 300h100v100H700z"/><path fill="#807173" d="M0 400h100v100H0z"/><path fill="#83797a" d="M100 400h100v100H100z"/><path fill="#9e9c9f" d="M200 400h100v100H200z"/><path fill="#9da5a7" d="M300 400h100v100H300z"/><path fill="#6ea57d" d="M400 400h100v100H400z"/><path fill="#529a69" d="M500 400h100v100H500z"/><path fill="#54996f" d="M600 400h100v100H600z"/><path fill="#909f96" d="M700 400h100v100H700z"/></svg>