<svg xmlns="http://www.w3.org/2000/svg" viewBox="0 0 800 400"><defs/><path fill="#b0b1b4" d="M0 0h100v100H0z"/><path fill="#b89c94" d="M100 0h100v100H100z"/><path fill="#b9b19f" d="M200 0h100v100H200z"/><path fill="#bcd4ea" d="M300 0h100v100H300z"/><path fill="#bed5e9" d="M400 0h100v100H400z"/><path fill="#d1bba3" d="M500 0h100v100H500z"/><path fill="#ded49f" d="M600 0h100v100H600z"/><path fill="#ebe2bb" d="M700 0h100v100H700z"/><path fill="#9c9b96" d="M0 100h100v100H0z"/><path fill="#ba8e88" d="M100 100h100v100H100z"/><path fill="#86816f" d="M200 100h100v100H200z"/><path fill="#8c9d97" d="M300 100h100v100H300z"/><path fill="#829997" d="M400 100h100v100H400z"/><path fill="#af9f87" d="M500 100h100v100H500z"/><path fill="#f0ac77" d="M600 100h100v100H600z"/><path fill="#f8c39b" d="M700 100h100v100H700z"/><path fill="#bcafaf" d="M0 200h100v100H0z"/><path fill="#936a65" d="M100 200h100v100H100z"/><path fill="#c78171" d="M200 200h100v100H200z"/><path fill="#cc966f" d="M300 200h100v100H300z"/><path fill="#ac886d" d="M400 200h100v100H400z"/><path fill="#e4c38f" d="M500 200h100v100H500z"/><path fill="#d09778" d="M600 200h100v100H600z"/><path fill="#c98b6e" d="M700 200h100v100H700z"/><path fill="#cbadb1" d="M0 300h100v100H0z"/><path fill="#cb93a1" d="M100 300h100v100H100z"/><path fill="#de8894" d="M200 300h100v100H200z"/><path fill="#dd8d6d" d="M300 300h100v100H300z"/><path fill="#d5866f" d="M400 300h100v100H400z"/><path fill="#e9b798" d="M500 300h100v100H500z"/><path fill="#d9bb96" d="M600 300h100v100H600z"/><path fill="#bb968c" d="M700 300h100v100H700z"/></svg>