<svg xmlns="http://www.w3.org/2000/svg" viewBox="0 0 800 400"><defs/><path fill="#cacaca" d="M0 0h100v100H0z"/><path fill="#959696" d="M100 0h100v100H100z"/><path fill="#9696a3" d="M200 0h100v100H200z"/><path fill="#b8b8ce" d="M300 0h100v100H300z"/><path fill="#c2ccd7" d="M400 0h100v100H400z"/><path fill="#a1abbf" d="M500 0h100v100H500z"/><path fill="#868588" d="M600 0h100v100H600z"/><path fill="#bfbdbe" d="M700 0h100v100H700z"/><path fill="#bfbfbf" d="M0 100h100v100H0z"/><path fill="#a5a6a7" d="M100 100h100v100H100z"/><path fill="#a7a5ab" d="M200 100h100v100H200z"/><path fill="#b0acb5" d="M300 100h100v100H300z"/><path fill="#afb8d1" d="M400 100h100v100H400z"/><path fill="#a1a8c0" d="M500 100h100v100H500z"/><path fill="#939396" d="M600 100h100v100H600z"/><path fill="#c1c1c1" d="M700 100h100v100H700z"/><path fill="#aaa" d="M0 200h100v100H0z"/><path fill="#afafb0" d="M100 200h100v100H100z"/><path fill="#d4d5d4" d="M200 200h100v100H200z"/><path fill="#a8aab4" d="M300 200h100v100H300z"/><path fill="#a8aab6" d="M400 200h100v100H400z"/><path fill="#c5c5c9" d="M500 200h100v100H500z"/><path fill="#cacacb" d="M600 200h100v100H600z"/><path fill="#cecece" d="M700 200h100v100H700z"/><path fill="#b2b4b5" d="M0 300h100v100H0z"/><path fill="#c1bbb2" d="M100 300h100v100H100z"/><path fill="#c8b69c" d="M200 300h100v100H200z"/><path fill="#cac8c3" d="M300 300h100v100H300z"/><path fill="#c8c9c9" d="M400 300h100v100H400z"/><path fill="#c6c6c4" d="M500 300h100v100H500z"/><path fill="#c7c7c6" d="M600 300h100v100H600z"/><path fill="#c8c8c8" d="M700 300h100v100H700z"/></svg>