<svg xmlns="http://www.w3.org/2000/svg" viewBox="0 0 800 600"><defs/><path fill="#fdfdfd" d="M0 0h100v100H0z"/><path fill="#f7f7f7" d="M100 0h100v100H100z"/><path fill="#f2f2f2" d="M200 0h100v100H200z"/><path fill="#f4f4f4" d="M300 0h100v100H300zm100 0h100v100H400zm100 0h100v100H500z"/><path fill="#f9f9f9" d="M600 0h100v100H600zm100 0h100v100H700z"/><path fill="#e0e0e0" d="M0 100h100v100H0z"/><path fill="#cacaca" d="M100 100h100v100H100z"/><path fill="#c7c7c7" d="M200 100h100v100H200z"/><path fill="#adadad" d="M300 100h100v100H300z"/><path fill="#a8a8a8" d="M400 100h100v100H400z"/><path fill="#b0b0b0" d="M500 100h100v100H500z"/><path fill="#c9c9c9" d="M600 100h100v100H600z"/><path fill="#ccc" d="M700 100h100v100H700z"/><path fill="#e2e2e2" d="M0 200h100v100H0z"/><path fill="#cbcbcb" d="M100 200h100v100H100z"/><path fill="#b0b0b0" d="M200 200h100v100H200z"/><path fill="#a5a5a5" d="M300 200h100v100H300z"/><path fill="#b3b3b3" d="M400 200h100v100H400z"/><path fill="#cbcbcb" d="M500 200h100v100H500z"/><path fill="#bebebe" d="M600 200h100v100H600z"/><path fill="#d1d1d1" d="M700 200h100v100H700z"/><path fill="#f2f2f2" d="M0 300h100v100H0z"/><path fill="#c6c6c6" d="M100 300h100v100H100z"/><path fill="#a2a2a2" d="M200 300h100v100H200z"/><path fill="#a9a9a9" d="M300 300h100v100H300z"/><path fill="silver" d="M400 300h100v100H400z"/><path fill="#c2c2c2" d="M500 300h100v100H500z"/><path fill="#959595" d="M600 300h100v100H600z"/><path fill="#949494" d="M700 300h100v100H700z"/><path fill="#e4e4e4" d="M0 400h100v100H0z"/><path fill="#c2c2c2" d="M100 400h100v100H100z"/><path fill="#b5b5b5" d="M200 400h100v100H200z"/><path fill="#b6b6b6" d="M300 400h100v100H300z"/><path fill="#b2b2b2" d="M400 400h100v100H400z"/><path fill="#adadad" d="M500 400h100v100H500z"/><path fill="#949494" d="M600 400h100v100H600z"/><path fill="#929292" d="M700 400h100v100H700z"/><path fill="#f4f4f4" d="M0 500h100v100H0z"/><path fill="#efefef" d="M100 500h100v100H100z"/><path fill="#ebebeb" d="M200 500h100v100H200z"/><path fill="#eaeaea" d="M300 500h100v100H300z"/><path fill="#ebebeb" d="M400 500h100v100H400z"/><path fill="#e7e7e7" d="M500 500h100v100H500z"/><path fill="#ececec" d="M600 500h100v100H600z"/><path fill="#eee" d="M700 500h100v100H700z"/></svg>