<svg xmlns="http://www.w3.org/2000/svg" viewBox="0 0 800 600"><defs/><path fill="#f3f2f0" d="M0 0h100v100H0z"/><path fill="#f4f4f5" d="M100 0h100v100H100z"/><path fill="#f4f2f1" d="M200 0h100v100H200z"/><path fill="#f4f3f1" d="M300 0h100v100H300z"/><path fill="#f5f4f3" d="M400 0h100v100H400z"/><path fill="#f6f5f4" d="M500 0h100v100H500z"/><path fill="#f4f3f2" d="M600 0h100v100H600z"/><path fill="#f2f0ee" d="M700 0h100v100H700z"/><path fill="#dbd7d2" d="M0 100h100v100H0z"/><path fill="#c9c7c4" d="M100 100h100v100H100z"/><path fill="#f8f8f8" d="M200 100h100v100H200z"/><path fill="#dad8d7" d="M300 100h100v100H300z"/><path fill="#dbd8d7" d="M400 100h100v100H400z"/><path fill="#f1f0ef" d="M500 100h100v100H500z"/><path fill="#e5e4e3" d="M600 100h100v100H600z"/><path fill="#e8e5e2" d="M700 100h100v100H700z"/><path fill="#dad8d6" d="M0 200h100v100H0z"/><path fill="#cbc9c8" d="M100 200h100v100H100z"/><path fill="#efeeee" d="M200 200h100v100H200z"/><path fill="#dddad8" d="M300 200h100v100H300z"/><path fill="#e0dedd" d="M400 200h100v100H400z"/><path fill="#d6d3d2" d="M500 200h100v100H500z"/><path fill="#e1dfde" d="M600 200h100v100H600z"/><path fill="#f1f0ef" d="M700 200h100v100H700z"/><path fill="#cecac8" d="M0 300h100v100H0z"/><path fill="#c9c5c3" d="M100 300h100v100H100z"/><path fill="#bfbbb7" d="M200 300h100v100H200z"/><path fill="#b8b4b1" d="M300 300h100v100H300z"/><path fill="#d4d2d2" d="M400 300h100v100H400z"/><path fill="#c6c1bd" d="M500 300h100v100H500z"/><path fill="#e5e4e2" d="M600 300h100v100H600z"/><path fill="#f2f2f1" d="M700 300h100v100H700z"/><path fill="#c3bfbb" d="M0 400h100v100H0z"/><path fill="#c8c2be" d="M100 400h100v100H100z"/><path fill="#e8e5e2" d="M200 400h100v100H200z"/><path fill="#c5c3c3" d="M300 400h100v100H300z"/><path fill="#bdb9b6" d="M400 400h100v100H400z"/><path fill="#d3cfcc" d="M500 400h100v100H500z"/><path fill="#cecbca" d="M600 400h100v100H600z"/><path fill="#dbd8d7" d="M700 400h100v100H700z"/><path fill="#ebeae9" d="M0 500h100v100H0z"/><path fill="#f7f7f7" d="M100 500h100v100H100z"/><path fill="#fff" d="M200 500h100v100H200z"/><path fill="#f9f9f9" d="M300 500h100v100H300z"/><path fill="#f7f6f6" d="M400 500h100v100H400z"/><path fill="#f3f3f3" d="M500 500h100v100H500z"/><path fill="#e1dfde" d="M600 500h100v100H600z"/><path fill="#e7e5e3" d="M700 500h100v100H700z"/></svg>