<svg xmlns="http://www.w3.org/2000/svg" viewBox="0 0 800 500"><defs/><path fill="#b0a9af" d="M0 0h100v100H0z"/><path fill="#aeaab0" d="M100 0h100v100H100z"/><path fill="#7d7e90" d="M200 0h100v100H200z"/><path fill="#a7817a" d="M300 0h100v100H300z"/><path fill="#885d4a" d="M400 0h100v100H400z"/><path fill="#513141" d="M500 0h100v100H500z"/><path fill="#325355" d="M600 0h100v100H600z"/><path fill="#371810" d="M700 0h100v100H700z"/><path fill="#c0bcbd" d="M0 100h100v100H0z"/><path fill="#7e8792" d="M100 100h100v100H100z"/><path fill="#744e51" d="M200 100h100v100H200z"/><path fill="#643955" d="M300 100h100v100H300z"/><path fill="#a2826e" d="M400 100h100v100H400z"/><path fill="#b39e94" d="M500 100h100v100H500z"/><path fill="#578373" d="M600 100h100v100H600z"/><path fill="#3a2825" d="M700 100h100v100H700z"/><path fill="#787f95" d="M0 200h100v100H0z"/><path fill="#796974" d="M100 200h100v100H100z"/><path fill="#8d342c" d="M200 200h100v100H200z"/><path fill="#3c3e80" d="M300 200h100v100H300z"/><path fill="#748aa3" d="M400 200h100v100H400z"/><path fill="#a0af89" d="M500 200h100v100H500z"/><path fill="#586b5e" d="M600 200h100v100H600z"/><path fill="#573833" d="M700 200h100v100H700z"/><path fill="#807770" d="M0 300h100v100H0z"/><path fill="#a8704d" d="M100 300h100v100H100z"/><path fill="#6b4140" d="M200 300h100v100H200z"/><path fill="#54686d" d="M300 300h100v100H300z"/><path fill="#9f7d51" d="M400 300h100v100H400z"/><path fill="#89785f" d="M500 300h100v100H500z"/><path fill="#91693b" d="M600 300h100v100H600z"/><path fill="#744a2c" d="M700 300h100v100H700z"/><path fill="#8b6838" d="M0 400h100v100H0z"/><path fill="#9d6d21" d="M100 400h100v100H100z"/><path fill="#8c744d" d="M200 400h100v100H200z"/><path fill="#926e5e" d="M300 400h100v100H300z"/><path fill="#bca560" d="M400 400h100v100H400z"/><path fill="#c49b84" d="M500 400h100v100H500z"/><path fill="#ceaa6e" d="M600 400h100v100H600z"/><path fill="#ae9c64" d="M700 400h100v100H700z"/></svg>