<svg xmlns="http://www.w3.org/2000/svg" viewBox="0 0 800 600"><defs/><path fill="#684943" d="M0 0h100v100H0z"/><path fill="#90566e" d="M100 0h100v100H100z"/><path fill="#825477" d="M200 0h100v100H200z"/><path fill="#828a81" d="M300 0h100v100H300z"/><path fill="#809492" d="M400 0h100v100H400z"/><path fill="#828878" d="M500 0h100v100H500z"/><path fill="#92957b" d="M600 0h100v100H600z"/><path fill="#97907d" d="M700 0h100v100H700z"/><path fill="#785451" d="M0 100h100v100H0z"/><path fill="#9b4d87" d="M100 100h100v100H100z"/><path fill="#9d797c" d="M200 100h100v100H200z"/><path fill="#9faea2" d="M300 100h100v100H300z"/><path fill="#94bacf" d="M400 100h100v100H400z"/><path fill="#a4b4ab" d="M500 100h100v100H500z"/><path fill="#abc6ba" d="M600 100h100v100H600z"/><path fill="#c7ceb9" d="M700 100h100v100H700z"/><path fill="#91585c" d="M0 200h100v100H0z"/><path fill="#86468c" d="M100 200h100v100H100z"/><path fill="#7a5f52" d="M200 200h100v100H200z"/><path fill="#79543b" d="M300 200h100v100H300z"/><path fill="#886b59" d="M400 200h100v100H400z"/><path fill="#9a735e" d="M500 200h100v100H500z"/><path fill="#87645f" d="M600 200h100v100H600z"/><path fill="#a18e7c" d="M700 200h100v100H700z"/><path fill="#8f495e" d="M0 300h100v100H0z"/><path fill="#7c4d8f" d="M100 300h100v100H100z"/><path fill="#75809d" d="M200 300h100v100H200z"/><path fill="#825f59" d="M300 300h100v100H300z"/><path fill="#975b40" d="M400 300h100v100H400z"/><path fill="#7a4b48" d="M500 300h100v100H500z"/><path fill="#835851" d="M600 300h100v100H600z"/><path fill="#8c5a57" d="M700 300h100v100H700z"/><path fill="#703a77" d="M0 400h100v100H0z"/><path fill="#6e4a79" d="M100 400h100v100H100z"/><path fill="#c8ac9c" d="M200 400h100v100H200z"/><path fill="#d7a686" d="M300 400h100v100H300z"/><path fill="#d37851" d="M400 400h100v100H400z"/><path fill="#a78584" d="M500 400h100v100H500z"/><path fill="#af8885" d="M600 400h100v100H600z"/><path fill="#b79d71" d="M700 400h100v100H700z"/><path fill="#9e6289" d="M0 500h100v100H0z"/><path fill="#9d7c74" d="M100 500h100v100H100z"/><path fill="#d0a47c" d="M200 500h100v100H200z"/><path fill="#c09677" d="M300 500h100v100H300z"/><path fill="#937460" d="M400 500h100v100H400z"/><path fill="#6b5150" d="M500 500h100v100H500z"/><path fill="#6a5a55" d="M600 500h100v100H600z"/><path fill="#564b38" d="M700 500h100v100H700z"/></svg>