<svg xmlns="http://www.w3.org/2000/svg" viewBox="0 0 800 400"><defs/><path fill="#717580" d="M0 0h100v100H0z"/><path fill="#545a64" d="M100 0h100v100H100z"/><path fill="#495060" d="M200 0h100v100H200z"/><path fill="#303746" d="M300 0h100v100H300z"/><path fill="#3c4d66" d="M400 0h100v100H400z"/><path fill="#706e77" d="M500 0h100v100H500z"/><path fill="#659dbf" d="M600 0h100v100H600z"/><path fill="#4f83b2" d="M700 0h100v100H700z"/><path fill="#cdcbc5" d="M0 100h100v100H0z"/><path fill="#949493" d="M100 100h100v100H100z"/><path fill="#515b73" d="M200 100h100v100H200z"/><path fill="#433c56" d="M300 100h100v100H300z"/><path fill="#5b678a" d="M400 100h100v100H400z"/><path fill="#5c432a" d="M500 100h100v100H500z"/><path fill="#3f779e" d="M600 100h100v100H600z"/><path fill="#5188b7" d="M700 100h100v100H700z"/><path fill="#d6d4c1" d="M0 200h100v100H0z"/><path fill="#a8a29f" d="M100 200h100v100H100z"/><path fill="#545631" d="M200 200h100v100H200z"/><path fill="#735f4b" d="M300 200h100v100H300z"/><path fill="#5a543d" d="M400 200h100v100H400z"/><path fill="#63736f" d="M500 200h100v100H500z"/><path fill="#3ea2e2" d="M600 200h100v100H600z"/><path fill="#60daff" d="M700 200h100v100H700z"/><path fill="#d3c9b5" d="M0 300h100v100H0z"/><path fill="#a5a2a4" d="M100 300h100v100H100z"/><path fill="#aeae57" d="M200 300h100v100H200z"/><path fill="#9aa276" d="M300 300h100v100H300z"/><path fill="#777468" d="M400 300h100v100H400z"/><path fill="#80a3be" d="M500 300h100v100H500z"/><path fill="#62b6ef" d="M600 300h100v100H600z"/><path fill="#51acd4" d="M700 300h100v100H700z"/></svg>