<svg xmlns="http://www.w3.org/2000/svg" viewBox="0 0 800 400"><defs/><path fill="#3a3d77" d="M0 0h100v100H0z"/><path fill="#9b8d8b" d="M100 0h100v100H100z"/><path fill="#ad9f60" d="M200 0h100v100H200z"/><path fill="#c6a870" d="M300 0h100v100H300z"/><path fill="#bea871" d="M400 0h100v100H400z"/><path fill="#cdae71" d="M500 0h100v100H500z"/><path fill="#a2a271" d="M600 0h100v100H600z"/><path fill="#aaa58e" d="M700 0h100v100H700z"/><path fill="#3a3c75" d="M0 100h100v100H0z"/><path fill="#9c877b" d="M100 100h100v100H100z"/><path fill="#888c4d" d="M200 100h100v100H200z"/><path fill="#95a08d" d="M300 100h100v100H300z"/><path fill="#9aa588" d="M400 100h100v100H400z"/><path fill="#95ab8e" d="M500 100h100v100H500z"/><path fill="#859768" d="M600 100h100v100H600z"/><path fill="#988167" d="M700 100h100v100H700z"/><path fill="#554e73" d="M0 200h100v100H0z"/><path fill="#a08f7c" d="M100 200h100v100H100z"/><path fill="#8b8e63" d="M200 200h100v100H200z"/><path fill="#898d76" d="M300 200h100v100H300z"/><path fill="#838673" d="M400 200h100v100H400z"/><path fill="#8e9f7b" d="M500 200h100v100H500z"/><path fill="#959468" d="M600 200h100v100H600z"/><path fill="#96806e" d="M700 200h100v100H700z"/><path fill="#746d7b" d="M0 300h100v100H0z"/><path fill="#9b8577" d="M100 300h100v100H100z"/><path fill="#a57961" d="M200 300h100v100H200z"/><path fill="#858581" d="M300 300h100v100H300z"/><path fill="#375d7a" d="M400 300h100v100H400z"/><path fill="#8f8f83" d="M500 300h100v100H500z"/><path fill="#9d7b81" d="M600 300h100v100H600z"/><path fill="#8f7c77" d="M700 300h100v100H700z"/></svg>