<svg xmlns="http://www.w3.org/2000/svg" viewBox="0 0 800 400"><defs/><path fill="#7d6a49" d="M0 0h100v100H0z"/><path fill="#5e503c" d="M100 0h100v100H100z"/><path fill="#56523b" d="M200 0h100v100H200z"/><path fill="#63624c" d="M300 0h100v100H300z"/><path fill="#666350" d="M400 0h100v100H400z"/><path fill="#6f6855" d="M500 0h100v100H500z"/><path fill="#6d654f" d="M600 0h100v100H600z"/><path fill="#69624b" d="M700 0h100v100H700z"/><path fill="#726346" d="M0 100h100v100H0z"/><path fill="#64523f" d="M100 100h100v100H100z"/><path fill="#55604d" d="M200 100h100v100H200z"/><path fill="#596a5c" d="M300 100h100v100H300z"/><path fill="#5f6761" d="M400 100h100v100H400z"/><path fill="#6a6a64" d="M500 100h100v100H500z"/><path fill="#696859" d="M600 100h100v100H600z"/><path fill="#574f41" d="M700 100h100v100H700z"/><path fill="#65583f" d="M0 200h100v100H0z"/><path fill="#614e39" d="M100 200h100v100H100z"/><path fill="#4a4334" d="M200 200h100v100H200z"/><path fill="#615949" d="M300 200h100v100H300z"/><path fill="#695d4f" d="M400 200h100v100H400z"/><path fill="#645f57" d="M500 200h100v100H500z"/><path fill="#57514a" d="M600 200h100v100H600z"/><path fill="#45392e" d="M700 200h100v100H700z"/><path fill="#6f5539" d="M0 300h100v100H0z"/><path fill="#885e3e" d="M100 300h100v100H100z"/><path fill="#815635" d="M200 300h100v100H200z"/><path fill="#845c3e" d="M300 300h100v100H300z"/><path fill="#644b3f" d="M400 300h100v100H400z"/><path fill="#6c564f" d="M500 300h100v100H500z"/><path fill="#634e46" d="M600 300h100v100H600z"/><path fill="#4f4133" d="M700 300h100v100H700z"/></svg>