<svg xmlns="http://www.w3.org/2000/svg" viewBox="0 0 800 600"><defs/><path fill="#8b8b8b" d="M0 0h100v100H0z"/><path fill="#a7a7a7" d="M100 0h100v100H100z"/><path fill="#a9a9a9" d="M200 0h100v100H200z"/><path fill="#a3a3a3" d="M300 0h100v100H300z"/><path fill="#bcbcbc" d="M400 0h100v100H400z"/><path fill="#c5c5c5" d="M500 0h100v100H500z"/><path fill="#b5b5b5" d="M600 0h100v100H600z"/><path fill="#a2a2a2" d="M700 0h100v100H700z"/><path fill="#9f9f9f" d="M0 100h100v100H0z"/><path fill="#afafaf" d="M100 100h100v100H100z"/><path fill="#989898" d="M200 100h100v100H200z"/><path fill="#9d9d9d" d="M300 100h100v100H300z"/><path fill="#b9b9b9" d="M400 100h100v100H400z"/><path fill="#bbb" d="M500 100h100v100H500z"/><path fill="#b9b9b9" d="M600 100h100v100H600z"/><path fill="#b3b3b3" d="M700 100h100v100H700z"/><path fill="#a8a8a8" d="M0 200h100v100H0z"/><path fill="#bdbdbd" d="M100 200h100v100H100z"/><path fill="#b1b1b1" d="M200 200h100v100H200z"/><path fill="#bebebe" d="M300 200h100v100H300z"/><path fill="#dcdcdc" d="M400 200h100v100H400z"/><path fill="#dedede" d="M500 200h100v100H500z"/><path fill="#d4d4d4" d="M600 200h100v100H600z"/><path fill="#bdbdbd" d="M700 200h100v100H700z"/><path fill="#b4b4b4" d="M0 300h100v100H0z"/><path fill="#b6b6b6" d="M100 300h100v100H100z"/><path fill="#b2b2b2" d="M200 300h100v100H200z"/><path fill="#b0b0b0" d="M300 300h100v100H300z"/><path fill="#c9c9c9" d="M400 300h100v100H400z"/><path fill="#b5b5b5" d="M500 300h100v100H500z"/><path fill="#a7a7a7" d="M600 300h100v100H600z"/><path fill="#b0b0b0" d="M700 300h100v100H700z"/><path fill="#bbb" d="M0 400h100v100H0z"/><path fill="#a0a0a0" d="M100 400h100v100H100z"/><path fill="#a7a7a7" d="M200 400h100v100H200z"/><path fill="#afafaf" d="M300 400h100v100H300z"/><path fill="#a9a9a9" d="M400 400h100v100H400z"/><path fill="#b6b6b6" d="M500 400h100v100H500z"/><path fill="#a2a2a2" d="M600 400h100v100H600z"/><path fill="#9d9d9d" d="M700 400h100v100H700z"/><path fill="#aaa" d="M0 500h100v100H0z"/><path fill="#acacac" d="M100 500h100v100H100z"/><path fill="#b5b5b5" d="M200 500h100v100H200z"/><path fill="#c5c5c5" d="M300 500h100v100H300z"/><path fill="#c4c4c4" d="M400 500h100v100H400z"/><path fill="#cacaca" d="M500 500h100v100H500z"/><path fill="#bebebe" d="M600 500h100v100H600z"/><path fill="#aaa" d="M700 500h100v100H700z"/></svg>