<svg xmlns="http://www.w3.org/2000/svg" viewBox="0 0 800 400"><defs/><path fill="#a7916a" d="M0 0h100v100H0z"/><path fill="#818886" d="M100 0h100v100H100z"/><path fill="#a2a598" d="M200 0h100v100H200z"/><path fill="#c5b5a3" d="M300 0h100v100H300z"/><path fill="#bda28f" d="M400 0h100v100H400z"/><path fill="#c6b2a1" d="M500 0h100v100H500z"/><path fill="#aec0b7" d="M600 0h100v100H600z"/><path fill="#9cb3b0" d="M700 0h100v100H700z"/><path fill="#a8a073" d="M0 100h100v100H0z"/><path fill="#9f9785" d="M100 100h100v100H100z"/><path fill="#af957a" d="M200 100h100v100H200z"/><path fill="#b2a085" d="M300 100h100v100H300z"/><path fill="#baaa90" d="M400 100h100v100H400z"/><path fill="#cbb49d" d="M500 100h100v100H500z"/><path fill="#bdbdb1" d="M600 100h100v100H600z"/><path fill="#aeb1aa" d="M700 100h100v100H700z"/><path fill="#9c9172" d="M0 200h100v100H0z"/><path fill="#a08f81" d="M100 200h100v100H100z"/><path fill="#b89c72" d="M200 200h100v100H200z"/><path fill="#929174" d="M300 200h100v100H300z"/><path fill="#9a9585" d="M400 200h100v100H400z"/><path fill="#bca295" d="M500 200h100v100H500z"/><path fill="#bfa199" d="M600 200h100v100H600z"/><path fill="#ad9183" d="M700 200h100v100H700z"/><path fill="#96867d" d="M0 300h100v100H0z"/><path fill="#ac795c" d="M100 300h100v100H100z"/><path fill="#b98f45" d="M200 300h100v100H200z"/><path fill="#858e6f" d="M300 300h100v100H300z"/><path fill="#8e9a8f" d="M400 300h100v100H400z"/><path fill="#b4aca4" d="M500 300h100v100H500z"/><path fill="#b39997" d="M600 300h100v100H600z"/><path fill="#b5998b" d="M700 300h100v100H700z"/></svg>