<svg xmlns="http://www.w3.org/2000/svg" viewBox="0 0 800 600"><defs/><path fill="#ededed" d="M0 0h100v100H0z"/><path fill="#d5d5d5" d="M100 0h100v100H100z"/><path fill="#e8e8e8" d="M200 0h100v100H200z"/><path fill="#f1f1f1" d="M300 0h100v100H300z"/><path fill="#e5e5e5" d="M400 0h100v100H400z"/><path fill="#ebebeb" d="M500 0h100v100H500z"/><path fill="#e7e7e7" d="M600 0h100v100H600z"/><path fill="#ececec" d="M700 0h100v100H700z"/><path fill="#6d6d6d" d="M0 100h100v100H0z"/><path fill="#3a3a3a" d="M100 100h100v100H100z"/><path fill="#b5b5b5" d="M200 100h100v100H200z"/><path fill="#b7b7b7" d="M300 100h100v100H300z"/><path fill="#b6b6b6" d="M400 100h100v100H400z"/><path fill="#ccc" d="M500 100h100v100H500z"/><path fill="#a3a3a3" d="M600 100h100v100H600z"/><path fill="#b7b7b7" d="M700 100h100v100H700z"/><path fill="#454545" d="M0 200h100v100H0z"/><path fill="#484848" d="M100 200h100v100H100z"/><path fill="#c3c3c3" d="M200 200h100v100H200z"/><path fill="#848484" d="M300 200h100v100H300z"/><path fill="#999" d="M400 200h100v100H400z"/><path fill="#cacaca" d="M500 200h100v100H500z"/><path fill="#8b8b8b" d="M600 200h100v100H600z"/><path fill="#a8a8a8" d="M700 200h100v100H700z"/><path fill="#5c5c5c" d="M0 300h100v100H0z"/><path fill="#515151" d="M100 300h100v100H100z"/><path fill="#7e7e7e" d="M200 300h100v100H200z"/><path fill="#767676" d="M300 300h100v100H300z"/><path fill="#8a8a8a" d="M400 300h100v100H400z"/><path fill="#a7a7a7" d="M500 300h100v100H500z"/><path fill="#515151" d="M600 300h100v100H600z"/><path fill="#a6a6a6" d="M700 300h100v100H700z"/><path fill="#838383" d="M0 400h100v100H0z"/><path fill="#757575" d="M100 400h100v100H100z"/><path fill="#606060" d="M200 400h100v100H200z"/><path fill="#595959" d="M300 400h100v100H300z"/><path fill="#787878" d="M400 400h100v100H400z"/><path fill="#646464" d="M500 400h100v100H500z"/><path fill="#5f5f5f" d="M600 400h100v100H600z"/><path fill="#a9a9a9" d="M700 400h100v100H700z"/><path fill="#e4e4e4" d="M0 500h100v100H0z"/><path fill="#dfdfdf" d="M100 500h100v100H100z"/><path fill="#c7c7c7" d="M200 500h100v100H200z"/><path fill="#c3c3c3" d="M300 500h100v100H300z"/><path fill="#ddd" d="M400 500h100v100H400z"/><path fill="#d3d3d3" d="M500 500h100v100H500z"/><path fill="#cacaca" d="M600 500h100v100H600z"/><path fill="#d7d7d7" d="M700 500h100v100H700z"/></svg>