<svg xmlns="http://www.w3.org/2000/svg" viewBox="0 0 800 600"><defs/><path fill="#f5f2f6" d="M0 0h100v100H0z"/><path fill="#eee6ea" d="M100 0h100v100H100z"/><path fill="#f0ebef" d="M200 0h100v100H200z"/><path fill="#f9f8fc" d="M300 0h100v100H300z"/><path fill="#f8f7fb" d="M400 0h100v100H400z"/><path fill="#dadadb" d="M500 0h100v100H500zm100 0h100v100H600z"/><path fill="#efe6e9" d="M700 0h100v100H700z"/><path fill="#e2dbe1" d="M0 100h100v100H0z"/><path fill="#d1b6c0" d="M100 100h100v100H100z"/><path fill="#d1b8be" d="M200 100h100v100H200z"/><path fill="#d8c6c7" d="M300 100h100v100H300z"/><path fill="#dccfd6" d="M400 100h100v100H400z"/><path fill="#65656d" d="M500 100h100v100H500z"/><path fill="#4c4b4e" d="M600 100h100v100H600z"/><path fill="#c5aeb7" d="M700 100h100v100H700z"/><path fill="#e2d3d8" d="M0 200h100v100H0z"/><path fill="#d8bfc1" d="M100 200h100v100H100z"/><path fill="#cba2b2" d="M200 200h100v100H200z"/><path fill="#cc9aa9" d="M300 200h100v100H300z"/><path fill="#dbaca7" d="M400 200h100v100H400z"/><path fill="#836b78" d="M500 200h100v100H500z"/><path fill="#635e6a" d="M600 200h100v100H600z"/><path fill="#d0c6ce" d="M700 200h100v100H700z"/><path fill="#eadbdb" d="M0 300h100v100H0z"/><path fill="#c9a7aa" d="M100 300h100v100H100z"/><path fill="#c4a2ac" d="M200 300h100v100H200z"/><path fill="#c1a5a7" d="M300 300h100v100H300z"/><path fill="#cb989e" d="M400 300h100v100H400z"/><path fill="#957479" d="M500 300h100v100H500z"/><path fill="#a78590" d="M600 300h100v100H600z"/><path fill="#e1c4cc" d="M700 300h100v100H700z"/><path fill="#dbc4ca" d="M0 400h100v100H0z"/><path fill="#be8a95" d="M100 400h100v100H100z"/><path fill="#c08f9b" d="M200 400h100v100H200z"/><path fill="#c8ada4" d="M300 400h100v100H300z"/><path fill="#c4a19a" d="M400 400h100v100H400z"/><path fill="#d79f84" d="M500 400h100v100H500z"/><path fill="#c4948f" d="M600 400h100v100H600z"/><path fill="#9d959c" d="M700 400h100v100H700z"/><path fill="#efe3e5" d="M0 500h100v100H0z"/><path fill="#ebdbdd" d="M100 500h100v100H100z"/><path fill="#ecdcdd" d="M200 500h100v100H200z"/><path fill="#ecdbdd" d="M300 500h100v100H300z"/><path fill="#eddcdc" d="M400 500h100v100H400z"/><path fill="#ecdbdc" d="M500 500h100v100H500z"/><path fill="#e8dddc" d="M600 500h100v100H600z"/><path fill="#d4cad4" d="M700 500h100v100H700z"/></svg>