<svg xmlns="http://www.w3.org/2000/svg" viewBox="0 0 800 500"><defs/><path fill="#cfdde8" d="M0 0h100v100H0z"/><path fill="#b2b6bb" d="M100 0h100v100H100z"/><path fill="#97b8c3" d="M200 0h100v100H200z"/><path fill="#b8d2da" d="M300 0h100v100H300z"/><path fill="#c5c7e3" d="M400 0h100v100H400z"/><path fill="#d2dadc" d="M500 0h100v100H500z"/><path fill="#c4cbd9" d="M600 0h100v100H600z"/><path fill="#d3d6e2" d="M700 0h100v100H700z"/><path fill="#b6c5d4" d="M0 100h100v100H0z"/><path fill="#918e8f" d="M100 100h100v100H100z"/><path fill="#798486" d="M200 100h100v100H200z"/><path fill="#849997" d="M300 100h100v100H300z"/><path fill="#b0a6b1" d="M400 100h100v100H400z"/><path fill="#bfdedf" d="M500 100h100v100H500z"/><path fill="#b7c6c2" d="M600 100h100v100H600z"/><path fill="#c7bcb5" d="M700 100h100v100H700z"/><path fill="#aeb9c0" d="M0 200h100v100H0z"/><path fill="#767c6c" d="M100 200h100v100H100z"/><path fill="#a0978e" d="M200 200h100v100H200z"/><path fill="#b2a07a" d="M300 200h100v100H300z"/><path fill="#8d826d" d="M400 200h100v100H400z"/><path fill="#bac0b3" d="M500 200h100v100H500z"/><path fill="#b0b5ae" d="M600 200h100v100H600z"/><path fill="#cecbc5" d="M700 200h100v100H700z"/><path fill="#9a9ea7" d="M0 300h100v100H0z"/><path fill="#928c80" d="M100 300h100v100H100z"/><path fill="#d4be8c" d="M200 300h100v100H200z"/><path fill="#b2a167" d="M300 300h100v100H300z"/><path fill="#af9688" d="M400 300h100v100H400z"/><path fill="#bb97a3" d="M500 300h100v100H500z"/><path fill="#a2848c" d="M600 300h100v100H600z"/><path fill="#a8a8aa" d="M700 300h100v100H700z"/><path fill="#cdc9cd" d="M0 400h100v100H0z"/><path fill="#d5cecc" d="M100 400h100v100H100z"/><path fill="#e4dac8" d="M200 400h100v100H200z"/><path fill="#d9d2cc" d="M300 400h100v100H300z"/><path fill="#d4cbcf" d="M400 400h100v100H400z"/><path fill="#dbcdd2" d="M500 400h100v100H500z"/><path fill="#d6cacc" d="M600 400h100v100H600z"/><path fill="#d0cdcd" d="M700 400h100v100H700z"/></svg>