<svg xmlns="http://www.w3.org/2000/svg" viewBox="0 0 800 600"><defs/><path fill="#dfe0dc" d="M0 0h100v100H0z"/><path fill="#d2d4d0" d="M100 0h100v100H100z"/><path fill="#cecfca" d="M200 0h100v100H200z"/><path fill="#cfd0c9" d="M300 0h100v100H300z"/><path fill="#d9d6cd" d="M400 0h100v100H400z"/><path fill="#dad6ce" d="M500 0h100v100H500z"/><path fill="#e8e1d4" d="M600 0h100v100H600z"/><path fill="#f2f0e6" d="M700 0h100v100H700z"/><path fill="#727666" d="M0 100h100v100H0z"/><path fill="#39402d" d="M100 100h100v100H100z"/><path fill="#323218" d="M200 100h100v100H200z"/><path fill="#3e411b" d="M300 100h100v100H300z"/><path fill="#6d5b2f" d="M400 100h100v100H400z"/><path fill="#816d36" d="M500 100h100v100H500z"/><path fill="#a39343" d="M600 100h100v100H600z"/><path fill="#cac18f" d="M700 100h100v100H700z"/><path fill="#7b7e6d" d="M0 200h100v100H0z"/><path fill="#333722" d="M100 200h100v100H100z"/><path fill="#3a3c1b" d="M200 200h100v100H200z"/><path fill="#736929" d="M300 200h100v100H300z"/><path fill="#9a752d" d="M400 200h100v100H400z"/><path fill="#816c35" d="M500 200h100v100H500z"/><path fill="#93883d" d="M600 200h100v100H600z"/><path fill="#dbd4a2" d="M700 200h100v100H700z"/><path fill="#7f8170" d="M0 300h100v100H0z"/><path fill="#444420" d="M100 300h100v100H100z"/><path fill="#645f2b" d="M200 300h100v100H200z"/><path fill="#8c753a" d="M300 300h100v100H300z"/><path fill="#906e32" d="M400 300h100v100H400z"/><path fill="#8d6938" d="M500 300h100v100H500z"/><path fill="#826333" d="M600 300h100v100H600z"/><path fill="#cbc095" d="M700 300h100v100H700z"/><path fill="#727662" d="M0 400h100v100H0z"/><path fill="#444215" d="M100 400h100v100H100z"/><path fill="#645d21" d="M200 400h100v100H200z"/><path fill="#7e602f" d="M300 400h100v100H300z"/><path fill="#937946" d="M400 400h100v100H400z"/><path fill="#876533" d="M500 400h100v100H500z"/><path fill="#745b1f" d="M600 400h100v100H600z"/><path fill="#766f43" d="M700 400h100v100H700z"/><path fill="#d3d3cb" d="M0 500h100v100H0z"/><path fill="#bdbdb0" d="M100 500h100v100H100z"/><path fill="#cdcab8" d="M200 500h100v100H200z"/><path fill="#d8cdb8" d="M300 500h100v100H300z"/><path fill="#e4d1b8" d="M400 500h100v100H400z"/><path fill="#cdc1b2" d="M500 500h100v100H500z"/><path fill="#c8c1b1" d="M600 500h100v100H600z"/><path fill="#c7c8be" d="M700 500h100v100H700z"/></svg>