<svg xmlns="http://www.w3.org/2000/svg" viewBox="0 0 800 400"><defs/><path fill="#879182" d="M0 0h100v100H0z"/><path fill="#97988a" d="M100 0h100v100H100z"/><path fill="#a9afae" d="M200 0h100v100H200z"/><path fill="#b8bdbd" d="M300 0h100v100H300z"/><path fill="#ced2d2" d="M400 0h100v100H400z"/><path fill="#bfc4c5" d="M500 0h100v100H500z"/><path fill="#b6bbba" d="M600 0h100v100H600z"/><path fill="#989ea0" d="M700 0h100v100H700z"/><path fill="#838b79" d="M0 100h100v100H0z"/><path fill="#68705c" d="M100 100h100v100H100z"/><path fill="#637064" d="M200 100h100v100H200z"/><path fill="#bebfbb" d="M300 100h100v100H300z"/><path fill="#c8c9c4" d="M400 100h100v100H400z"/><path fill="#b3b7b1" d="M500 100h100v100H500z"/><path fill="#727c73" d="M600 100h100v100H600z"/><path fill="#7e857d" d="M700 100h100v100H700z"/><path fill="#829379" d="M0 200h100v100H0z"/><path fill="#808e7a" d="M100 200h100v100H100z"/><path fill="#7f8b7b" d="M200 200h100v100H200z"/><path fill="#c0b88f" d="M300 200h100v100H300z"/><path fill="#c8c4b6" d="M400 200h100v100H400z"/><path fill="#9b9783" d="M500 200h100v100H500z"/><path fill="#778476" d="M600 200h100v100H600z"/><path fill="#7f8b81" d="M700 200h100v100H700z"/><path fill="#6f8a6b" d="M0 300h100v100H0z"/><path fill="#adbaac" d="M100 300h100v100H100z"/><path fill="#c3cbbe" d="M200 300h100v100H200z"/><path fill="#b8b392" d="M300 300h100v100H300z"/><path fill="#b9c1af" d="M400 300h100v100H400z"/><path fill="#b2b7b4" d="M500 300h100v100H500z"/><path fill="#adada1" d="M600 300h100v100H600z"/><path fill="#b3bcb2" d="M700 300h100v100H700z"/></svg>