<svg xmlns="http://www.w3.org/2000/svg" viewBox="0 0 800 400"><defs/><path fill="#d8cec1" d="M0 0h100v100H0z"/><path fill="#d4c9bf" d="M100 0h100v100H100z"/><path fill="#e3d1bc" d="M200 0h100v100H200z"/><path fill="#e4d4bc" d="M300 0h100v100H300z"/><path fill="#f1d49e" d="M400 0h100v100H400z"/><path fill="#f0d9b4" d="M500 0h100v100H500z"/><path fill="#ece3de" d="M600 0h100v100H600z"/><path fill="#e8ded8" d="M700 0h100v100H700z"/><path fill="#d3c7bb" d="M0 100h100v100H0z"/><path fill="#d3d1ce" d="M100 100h100v100H100z"/><path fill="#f4dab5" d="M200 100h100v100H200z"/><path fill="#fbc46a" d="M300 100h100v100H300z"/><path fill="#ecd2ad" d="M400 100h100v100H400z"/><path fill="#ede1da" d="M500 100h100v100H500z"/><path fill="#eae0d9" d="M600 100h100v100H600z"/><path fill="#eae0dc" d="M700 100h100v100H700z"/><path fill="#cbcabd" d="M0 200h100v100H0z"/><path fill="#debfbb" d="M100 200h100v100H100z"/><path fill="#b7a886" d="M200 200h100v100H200z"/><path fill="#a5b9a9" d="M300 200h100v100H300z"/><path fill="#e6e3e2" d="M400 200h100v100H400z"/><path fill="#ece5e2" d="M500 200h100v100H500z"/><path fill="#ece4e0" d="M600 200h100v100H600z"/><path fill="#ede5de" d="M700 200h100v100H700z"/><path fill="#ad9488" d="M0 300h100v100H0z"/><path fill="#e25353" d="M100 300h100v100H100z"/><path fill="#293d34" d="M200 300h100v100H200z"/><path fill="#065f56" d="M300 300h100v100H300z"/><path fill="#d8d8d4" d="M400 300h100v100H400z"/><path fill="#e8dfdb" d="M500 300h100v100H500z"/><path fill="#e1dad4" d="M600 300h100v100H600z"/><path fill="#dcd4cb" d="M700 300h100v100H700z"/></svg>