<svg xmlns="http://www.w3.org/2000/svg" viewBox="0 0 800 500"><defs/><path fill="#f4eaf0" d="M0 0h100v100H0z"/><path fill="#e8e3ee" d="M100 0h100v100H100z"/><path fill="#dddcdb" d="M200 0h100v100H200z"/><path fill="#e5dfe0" d="M300 0h100v100H300z"/><path fill="#ececec" d="M400 0h100v100H400z"/><path fill="#ebe6e6" d="M500 0h100v100H500z"/><path fill="#e7dfe4" d="M600 0h100v100H600z"/><path fill="#eeedf2" d="M700 0h100v100H700z"/><path fill="#c295af" d="M0 100h100v100H0z"/><path fill="#8e7dab" d="M100 100h100v100H100z"/><path fill="#5f5698" d="M200 100h100v100H200z"/><path fill="#715ab5" d="M300 100h100v100H300z"/><path fill="#7865c0" d="M400 100h100v100H400z"/><path fill="#7563b0" d="M500 100h100v100H500z"/><path fill="#a598b0" d="M600 100h100v100H600z"/><path fill="#ac9db4" d="M700 100h100v100H700z"/><path fill="#ba95ae" d="M0 200h100v100H0z"/><path fill="#847ba2" d="M100 200h100v100H100z"/><path fill="#8c5b9a" d="M200 200h100v100H200z"/><path fill="#c77bbc" d="M300 200h100v100H300z"/><path fill="#cb7db5" d="M400 200h100v100H400z"/><path fill="#a76eaa" d="M500 200h100v100H500z"/><path fill="#a29bbf" d="M600 200h100v100H600z"/><path fill="#9d85a4" d="M700 200h100v100H700z"/><path fill="#ab94b1" d="M0 300h100v100H0z"/><path fill="#908cbe" d="M100 300h100v100H100z"/><path fill="#9ca5d0" d="M200 300h100v100H200z"/><path fill="#a1a5db" d="M300 300h100v100H300z"/><path fill="#a7a9dd" d="M400 300h100v100H400z"/><path fill="#aaa3da" d="M500 300h100v100H500z"/><path fill="#a594b2" d="M600 300h100v100H600z"/><path fill="#8f6c73" d="M700 300h100v100H700z"/><path fill="#d6d4e7" d="M0 400h100v100H0z"/><path fill="#cad1f1" d="M100 400h100v100H100z"/><path fill="#c9dcf2" d="M200 400h100v100H200z"/><path fill="#c0d4f0" d="M300 400h100v100H300z"/><path fill="#c2d9f9" d="M400 400h100v100H400z"/><path fill="#d2d9f2" d="M500 400h100v100H500z"/><path fill="#dacfc7" d="M600 400h100v100H600z"/><path fill="#d3c2ba" d="M700 400h100v100H700z"/></svg>