<svg xmlns="http://www.w3.org/2000/svg" viewBox="0 0 800 400"><defs/><path fill="#948e85" d="M0 0h100v100H0z"/><path fill="#bab8b5" d="M100 0h100v100H100z"/><path fill="#cfc9bf" d="M200 0h100v100H200z"/><path fill="#c2c0b6" d="M300 0h100v100H300z"/><path fill="#6aaac3" d="M400 0h100v100H400z"/><path fill="#68abc9" d="M500 0h100v100H500z"/><path fill="#9eb7bc" d="M600 0h100v100H600z"/><path fill="#6d99a8" d="M700 0h100v100H700z"/><path fill="#a09a93" d="M0 100h100v100H0z"/><path fill="#cfccc9" d="M100 100h100v100H100z"/><path fill="#a89b8c" d="M200 100h100v100H200z"/><path fill="#bcaa99" d="M300 100h100v100H300z"/><path fill="#78b1ab" d="M400 100h100v100H400z"/><path fill="#58a18e" d="M500 100h100v100H500z"/><path fill="#aabbb8" d="M600 100h100v100H600z"/><path fill="#5b96a7" d="M700 100h100v100H700z"/><path fill="#b3afa9" d="M0 200h100v100H0z"/><path fill="#a1a6a8" d="M100 200h100v100H100z"/><path fill="#9d958a" d="M200 200h100v100H200z"/><path fill="#cfb9b0" d="M300 200h100v100H300z"/><path fill="#9a9773" d="M400 200h100v100H400z"/><path fill="#88bd7e" d="M500 200h100v100H500z"/><path fill="#c3cfbd" d="M600 200h100v100H600z"/><path fill="#6d966c" d="M700 200h100v100H700z"/><path fill="#bebdba" d="M0 300h100v100H0z"/><path fill="#bbbdbe" d="M100 300h100v100H100z"/><path fill="#e4e5e5" d="M200 300h100v100H200z"/><path fill="#c28887" d="M300 300h100v100H300z"/><path fill="#bf5d5c" d="M400 300h100v100H400z"/><path fill="#f4ddd4" d="M500 300h100v100H500z"/><path fill="#f3f9fa" d="M600 300h100v100H600z"/><path fill="#b3bdac" d="M700 300h100v100H700z"/></svg>