<svg xmlns="http://www.w3.org/2000/svg" viewBox="0 0 800 600"><defs/><path fill="#b1a6a2" d="M0 0h100v100H0z"/><path fill="#d0a578" d="M100 0h100v100H100z"/><path fill="#a59370" d="M200 0h100v100H200z"/><path fill="#cacc9b" d="M300 0h100v100H300z"/><path fill="#cdd299" d="M400 0h100v100H400z"/><path fill="#d5dda8" d="M500 0h100v100H500z"/><path fill="#b4c497" d="M600 0h100v100H600z"/><path fill="#46635a" d="M700 0h100v100H700z"/><path fill="#b39e86" d="M0 100h100v100H0z"/><path fill="#b2874e" d="M100 100h100v100H100z"/><path fill="#817455" d="M200 100h100v100H200z"/><path fill="#cfcaa0" d="M300 100h100v100H300z"/><path fill="#a19d73" d="M400 100h100v100H400z"/><path fill="#cfc988" d="M500 100h100v100H500z"/><path fill="#afb572" d="M600 100h100v100H600z"/><path fill="#57645c" d="M700 100h100v100H700z"/><path fill="#9c997e" d="M0 200h100v100H0z"/><path fill="#a18850" d="M100 200h100v100H100z"/><path fill="#8e7e5d" d="M200 200h100v100H200z"/><path fill="#bcbb94" d="M300 200h100v100H300z"/><path fill="#9faa9e" d="M400 200h100v100H400z"/><path fill="#7e9e78" d="M500 200h100v100H500z"/><path fill="#7cac80" d="M600 200h100v100H600z"/><path fill="#656b69" d="M700 200h100v100H700z"/><path fill="#9c8d6d" d="M0 300h100v100H0z"/><path fill="#a07f49" d="M100 300h100v100H100z"/><path fill="#786f57" d="M200 300h100v100H200z"/><path fill="#6c796c" d="M300 300h100v100H300z"/><path fill="#a9a790" d="M400 300h100v100H400z"/><path fill="#97956d" d="M500 300h100v100H500z"/><path fill="#647f67" d="M600 300h100v100H600z"/><path fill="#6b7766" d="M700 300h100v100H700z"/><path fill="#8d8161" d="M0 400h100v100H0z"/><path fill="#7b763e" d="M100 400h100v100H100z"/><path fill="#625441" d="M200 400h100v100H200z"/><path fill="#466d6e" d="M300 400h100v100H300z"/><path fill="#708357" d="M400 400h100v100H400z"/><path fill="#707546" d="M500 400h100v100H500z"/><path fill="#6e926a" d="M600 400h100v100H600z"/><path fill="#53734a" d="M700 400h100v100H700z"/><path fill="#776861" d="M0 500h100v100H0z"/><path fill="#6d6748" d="M100 500h100v100H100z"/><path fill="#605b4f" d="M200 500h100v100H200z"/><path fill="#45565e" d="M300 500h100v100H300z"/><path fill="#344b46" d="M400 500h100v100H400z"/><path fill="#334c4e" d="M500 500h100v100H500z"/><path fill="#516964" d="M600 500h100v100H600z"/><path fill="#5e7a5f" d="M700 500h100v100H700z"/></svg>