<svg xmlns="http://www.w3.org/2000/svg" viewBox="0 0 800 400"><defs/><path fill="#cfb45a" d="M0 0h100v100H0z"/><path fill="#96744b" d="M100 0h100v100H100z"/><path fill="#b69666" d="M200 0h100v100H200z"/><path fill="#9d8457" d="M300 0h100v100H300z"/><path fill="#958152" d="M400 0h100v100H400z"/><path fill="#cacb6e" d="M500 0h100v100H500z"/><path fill="#dcdf96" d="M600 0h100v100H600z"/><path fill="#cacf66" d="M700 0h100v100H700z"/><path fill="#caac59" d="M0 100h100v100H0z"/><path fill="#997b4f" d="M100 100h100v100H100z"/><path fill="#907c57" d="M200 100h100v100H200z"/><path fill="#7a644c" d="M300 100h100v100H300z"/><path fill="#836742" d="M400 100h100v100H400z"/><path fill="#bcb361" d="M500 100h100v100H500z"/><path fill="#d3d274" d="M600 100h100v100H600z"/><path fill="#c0c565" d="M700 100h100v100H700z"/><path fill="#bd9d55" d="M0 200h100v100H0z"/><path fill="#93774d" d="M100 200h100v100H100z"/><path fill="#988b50" d="M200 200h100v100H200z"/><path fill="#727459" d="M300 200h100v100H300z"/><path fill="#948652" d="M400 200h100v100H400z"/><path fill="#b8a572" d="M500 200h100v100H500z"/><path fill="#c2b57e" d="M600 200h100v100H600z"/><path fill="#c2b666" d="M700 200h100v100H700z"/><path fill="#a5824b" d="M0 300h100v100H0z"/><path fill="#877557" d="M100 300h100v100H100z"/><path fill="#8d8865" d="M200 300h100v100H200z"/><path fill="#81806b" d="M300 300h100v100H300z"/><path fill="#88826a" d="M400 300h100v100H400z"/><path fill="#aaa798" d="M500 300h100v100H500z"/><path fill="#c2af87" d="M600 300h100v100H600z"/><path fill="#c8a74f" d="M700 300h100v100H700z"/></svg>