<svg xmlns="http://www.w3.org/2000/svg" viewBox="0 0 800 700"><defs/><path fill="#fee57e" d="M0 0h100v100H0z"/><path fill="#fce37f" d="M100 0h100v100H100z"/><path fill="#eed683" d="M200 0h100v100H200z"/><path fill="#dcc288" d="M300 0h100v100H300z"/><path fill="#dec588" d="M400 0h100v100H400z"/><path fill="#fde47f" d="M500 0h100v100H500z"/><path fill="#ffe67e" d="M600 0h100v100H600z"/><path fill="#fee47e" d="M700 0h100v100H700z"/><path fill="#ffe87d" d="M0 100h100v100H0z"/><path fill="#efd785" d="M100 100h100v100H100z"/><path fill="#d3bd8e" d="M200 100h100v100H200z"/><path fill="#b5988f" d="M300 100h100v100H300z"/><path fill="#8e71a1" d="M400 100h100v100H400z"/><path fill="#b5a782" d="M500 100h100v100H500z"/><path fill="#f5e17a" d="M600 100h100v100H600z"/><path fill="#ffe57f" d="M700 100h100v100H700z"/><path fill="#fee57e" d="M0 200h100v100H0z"/><path fill="#fce47d" d="M100 200h100v100H100z"/><path fill="#fff07d" d="M200 200h100v100H200z"/><path fill="#d7ca77" d="M300 200h100v100H300z"/><path fill="#909583" d="M400 200h100v100H400z"/><path fill="#c5d7ab" d="M500 200h100v100H500z"/><path fill="#eddb83" d="M600 200h100v100H600z"/><path fill="#ffe67c" d="M700 200h100v100H700z"/><path fill="#fee57e" d="M0 300h100v100H0z"/><path fill="#fce37d" d="M100 300h100v100H100z"/><path fill="#fde681" d="M200 300h100v100H200z"/><path fill="#e9d878" d="M300 300h100v100H300z"/><path fill="#879066" d="M400 300h100v100H400z"/><path fill="#bdc393" d="M500 300h100v100H500z"/><path fill="#f7e486" d="M600 300h100v100H600z"/><path fill="#ffe57c" d="M700 300h100v100H700z"/><path fill="#ffe67e" d="M0 400h100v100H0z"/><path fill="#fce87f" d="M100 400h100v100H100z"/><path fill="#d9d27a" d="M200 400h100v100H200z"/><path fill="#bf8964" d="M300 400h100v100H300z"/><path fill="#ac685d" d="M400 400h100v100H400z"/><path fill="#cac476" d="M500 400h100v100H500z"/><path fill="#eadf80" d="M600 400h100v100H600z"/><path fill="#fde37d" d="M700 400h100v100H700z"/><path fill="#fae07d" d="M0 500h100v100H0z"/><path fill="#e1c772" d="M100 500h100v100H100z"/><path fill="#9fa071" d="M200 500h100v100H200z"/><path fill="#795c64" d="M300 500h100v100H300z"/><path fill="#96796b" d="M400 500h100v100H400z"/><path fill="#cdc478" d="M500 500h100v100H500z"/><path fill="#dcc876" d="M600 500h100v100H600z"/><path fill="#ffe87f" d="M700 500h100v100H700z"/><path fill="#ecd378" d="M0 600h100v100H0z"/><path fill="#d2b76e" d="M100 600h100v100H100z"/><path fill="#eadb7f" d="M200 600h100v100H200z"/><path fill="#d6cf7e" d="M300 600h100v100H300z"/><path fill="#c6c378" d="M400 600h100v100H400z"/><path fill="#d0b66f" d="M500 600h100v100H500z"/><path fill="#efd378" d="M600 600h100v100H600z"/><path fill="#ffe87f" d="M700 600h100v100H700z"/></svg>