<svg xmlns="http://www.w3.org/2000/svg" viewBox="0 0 800 400"><defs/><path fill="#684b55" d="M0 0h100v100H0z"/><path fill="#704543" d="M100 0h100v100H100z"/><path fill="#7b4b56" d="M200 0h100v100H200z"/><path fill="#86556e" d="M300 0h100v100H300z"/><path fill="#9b7282" d="M400 0h100v100H400z"/><path fill="#915d68" d="M500 0h100v100H500z"/><path fill="#855663" d="M600 0h100v100H600z"/><path fill="#564257" d="M700 0h100v100H700z"/><path fill="#654149" d="M0 100h100v100H0z"/><path fill="#6a3d39" d="M100 100h100v100H100z"/><path fill="#6a393b" d="M200 100h100v100H200z"/><path fill="#905357" d="M300 100h100v100H300z"/><path fill="#b58272" d="M400 100h100v100H400z"/><path fill="#915650" d="M500 100h100v100H500z"/><path fill="#6f3a42" d="M600 100h100v100H600z"/><path fill="#634d62" d="M700 100h100v100H700z"/><path fill="#644755" d="M0 200h100v100H0z"/><path fill="#68382f" d="M100 200h100v100H100z"/><path fill="#7b4740" d="M200 200h100v100H200z"/><path fill="#8c5858" d="M300 200h100v100H300z"/><path fill="#a57060" d="M400 200h100v100H400z"/><path fill="#895e52" d="M500 200h100v100H500z"/><path fill="#814738" d="M600 200h100v100H600z"/><path fill="#745a5d" d="M700 200h100v100H700z"/><path fill="#6f5262" d="M0 300h100v100H0z"/><path fill="#77483b" d="M100 300h100v100H100z"/><path fill="#8e4c52" d="M200 300h100v100H200z"/><path fill="#7c4662" d="M300 300h100v100H300z"/><path fill="#71425f" d="M400 300h100v100H400z"/><path fill="#834d62" d="M500 300h100v100H500z"/><path fill="#814439" d="M600 300h100v100H600z"/><path fill="#63444a" d="M700 300h100v100H700z"/></svg>