<svg xmlns="http://www.w3.org/2000/svg" viewBox="0 0 800 600"><defs/><path fill="#e9dad5" d="M0 0h100v100H0z"/><path fill="#dac3df" d="M100 0h100v100H100z"/><path fill="#c8c1c7" d="M200 0h100v100H200z"/><path fill="#d4c1bf" d="M300 0h100v100H300z"/><path fill="#d6c6c5" d="M400 0h100v100H400z"/><path fill="#dcd0cc" d="M500 0h100v100H500z"/><path fill="#d7cbce" d="M600 0h100v100H600z"/><path fill="#dccecc" d="M700 0h100v100H700z"/><path fill="#c78487" d="M0 100h100v100H0z"/><path fill="#8746a8" d="M100 100h100v100H100z"/><path fill="#1d5281" d="M200 100h100v100H200z"/><path fill="#635e35" d="M300 100h100v100H300z"/><path fill="#ca814c" d="M400 100h100v100H400z"/><path fill="#dc8868" d="M500 100h100v100H500z"/><path fill="#8d5062" d="M600 100h100v100H600z"/><path fill="#a0666a" d="M700 100h100v100H700z"/><path fill="#c08498" d="M0 200h100v100H0z"/><path fill="#8b4b98" d="M100 200h100v100H100z"/><path fill="#4e6992" d="M200 200h100v100H200z"/><path fill="#5d6c5c" d="M300 200h100v100H300z"/><path fill="#bf887d" d="M400 200h100v100H400z"/><path fill="#de9297" d="M500 200h100v100H500z"/><path fill="#ab8885" d="M600 200h100v100H600z"/><path fill="#9c7b7a" d="M700 200h100v100H700z"/><path fill="#bc81b8" d="M0 300h100v100H0z"/><path fill="#884b84" d="M100 300h100v100H100z"/><path fill="#945b6d" d="M200 300h100v100H200z"/><path fill="#866a64" d="M300 300h100v100H300z"/><path fill="#8e7f77" d="M400 300h100v100H400z"/><path fill="#ccbbb3" d="M500 300h100v100H500z"/><path fill="#a17c80" d="M600 300h100v100H600z"/><path fill="#987a69" d="M700 300h100v100H700z"/><path fill="#ac72b0" d="M0 400h100v100H0z"/><path fill="#5e5589" d="M100 400h100v100H100z"/><path fill="#654d63" d="M200 400h100v100H200z"/><path fill="#8a6a80" d="M300 400h100v100H300z"/><path fill="#806b64" d="M400 400h100v100H400z"/><path fill="#8d6d49" d="M500 400h100v100H500z"/><path fill="#8f413c" d="M600 400h100v100H600z"/><path fill="#4b4d4b" d="M700 400h100v100H700z"/><path fill="#d4d9e0" d="M0 500h100v100H0z"/><path fill="#cecfd4" d="M100 500h100v100H100z"/><path fill="#c8c3cc" d="M200 500h100v100H200z"/><path fill="#cfd4df" d="M300 500h100v100H300z"/><path fill="#d7d4e7" d="M400 500h100v100H400z"/><path fill="#d7d5d9" d="M500 500h100v100H500z"/><path fill="#d2d6d6" d="M600 500h100v100H600z"/><path fill="#bcc5cb" d="M700 500h100v100H700z"/></svg>