<svg xmlns="http://www.w3.org/2000/svg" viewBox="0 0 800 500"><defs/><path fill="#bda999" d="M0 0h100v100H0z"/><path fill="#baab9a" d="M100 0h100v100H100z"/><path fill="#c5b4a5" d="M200 0h100v100H200z"/><path fill="#cbbbac" d="M300 0h100v100H300z"/><path fill="#c5b2a3" d="M400 0h100v100H400z"/><path fill="#c1afa0" d="M500 0h100v100H500z"/><path fill="#bcad98" d="M600 0h100v100H600z"/><path fill="#a7947f" d="M700 0h100v100H700z"/><path fill="#ad9e8f" d="M0 100h100v100H0z"/><path fill="#b19c88" d="M100 100h100v100H100z"/><path fill="#b6a495" d="M200 100h100v100H200z"/><path fill="#bca794" d="M300 100h100v100H300z"/><path fill="#c1aa97" d="M400 100h100v100H400z"/><path fill="#bba696" d="M500 100h100v100H500z"/><path fill="#b19f8d" d="M600 100h100v100H600z"/><path fill="#9a866a" d="M700 100h100v100H700z"/><path fill="#b1a193" d="M0 200h100v100H0z"/><path fill="#ac9988" d="M100 200h100v100H100z"/><path fill="#b8a696" d="M200 200h100v100H200z"/><path fill="#af9883" d="M300 200h100v100H300z"/><path fill="#a79685" d="M400 200h100v100H400z"/><path fill="#a69883" d="M500 200h100v100H500z"/><path fill="#a38f81" d="M600 200h100v100H600z"/><path fill="#9f8a71" d="M700 200h100v100H700z"/><path fill="#b8a48e" d="M0 300h100v100H0z"/><path fill="#a9947d" d="M100 300h100v100H100z"/><path fill="#b29d8d" d="M200 300h100v100H200z"/><path fill="#a98369" d="M300 300h100v100H300z"/><path fill="#a07f6b" d="M400 300h100v100H400z"/><path fill="#9c866b" d="M500 300h100v100H500z"/><path fill="#8f8068" d="M600 300h100v100H600z"/><path fill="#897f6f" d="M700 300h100v100H700z"/><path fill="#b29a7a" d="M0 400h100v100H0z"/><path fill="#b19879" d="M100 400h100v100H100z"/><path fill="#ac967f" d="M200 400h100v100H200z"/><path fill="#af8e70" d="M300 400h100v100H300z"/><path fill="#af8d7b" d="M400 400h100v100H400z"/><path fill="#b1947f" d="M500 400h100v100H500z"/><path fill="#9e9584" d="M600 400h100v100H600z"/><path fill="#767567" d="M700 400h100v100H700z"/></svg>