<svg xmlns="http://www.w3.org/2000/svg" viewBox="0 0 800 600"><defs/><path fill="#f2f2f3" d="M0 0h100v100H0z"/><path fill="#f1eeee" d="M100 0h100v100H100z"/><path fill="#f9f9f9" d="M200 0h100v100H200z"/><path fill="#faf8fa" d="M300 0h100v100H300z"/><path fill="#f7f7f6" d="M400 0h100v100H400z"/><path fill="#fbfbfb" d="M500 0h100v100H500z"/><path fill="#fbf9f8" d="M600 0h100v100H600z"/><path fill="#fcfcfc" d="M700 0h100v100H700z"/><path fill="#b1a39f" d="M0 100h100v100H0z"/><path fill="#987666" d="M100 100h100v100H100z"/><path fill="#bbb7aa" d="M200 100h100v100H200z"/><path fill="#c6c9c2" d="M300 100h100v100H300z"/><path fill="#cdc2ca" d="M400 100h100v100H400z"/><path fill="#d7d8d4" d="M500 100h100v100H500z"/><path fill="#b5b4b3" d="M600 100h100v100H600z"/><path fill="#d4cbc4" d="M700 100h100v100H700z"/><path fill="#a89086" d="M0 200h100v100H0z"/><path fill="#a18074" d="M100 200h100v100H100z"/><path fill="#dadbcd" d="M200 200h100v100H200z"/><path fill="#a8b286" d="M300 200h100v100H300z"/><path fill="#c8ccd1" d="M400 200h100v100H400z"/><path fill="#ccc7cb" d="M500 200h100v100H500z"/><path fill="#909586" d="M600 200h100v100H600z"/><path fill="#c9c2b8" d="M700 200h100v100H700z"/><path fill="#a6897e" d="M0 300h100v100H0z"/><path fill="#9d7e71" d="M100 300h100v100H100z"/><path fill="#d2c8be" d="M200 300h100v100H200z"/><path fill="#a39688" d="M300 300h100v100H300z"/><path fill="#c8c3b3" d="M400 300h100v100H400z"/><path fill="#c6b5a8" d="M500 300h100v100H500z"/><path fill="#938074" d="M600 300h100v100H600z"/><path fill="#b8aea1" d="M700 300h100v100H700z"/><path fill="#986a5f" d="M0 400h100v100H0z"/><path fill="#bc886e" d="M100 400h100v100H100z"/><path fill="#be9479" d="M200 400h100v100H200z"/><path fill="#b3a299" d="M300 400h100v100H300z"/><path fill="#b97" d="M400 400h100v100H400z"/><path fill="#9d9267" d="M500 400h100v100H500z"/><path fill="#ab8d70" d="M600 400h100v100H600z"/><path fill="#cfbdad" d="M700 400h100v100H700z"/><path fill="#dcc8c1" d="M0 500h100v100H0z"/><path fill="#ebd9ce" d="M100 500h100v100H100z"/><path fill="#eddacf" d="M200 500h100v100H200z"/><path fill="#e6d0c3" d="M300 500h100v100H300z"/><path fill="#baaeab" d="M400 500h100v100H400z"/><path fill="#bfbbb5" d="M500 500h100v100H500z"/><path fill="#dbcec3" d="M600 500h100v100H600z"/><path fill="#ebe3e1" d="M700 500h100v100H700z"/></svg>