<svg xmlns="http://www.w3.org/2000/svg" viewBox="0 0 800 1500"><defs/><path fill="#cacdd9" d="M0 0h100v100H0z"/><path fill="#d0d3df" d="M100 0h100v100H100z"/><path fill="#d3d6e3" d="M200 0h100v100H200z"/><path fill="#bdc0cb" d="M300 0h100v100H300z"/><path fill="#b8bdc7" d="M400 0h100v100H400z"/><path fill="#c3c8d4" d="M500 0h100v100H500z"/><path fill="#cfd3df" d="M600 0h100v100H600z"/><path fill="#bfc3ce" d="M700 0h100v100H700z"/><path fill="#c4c5d0" d="M0 100h100v100H0z"/><path fill="#b8b9c2" d="M100 100h100v100H100z"/><path fill="#b2b2bb" d="M200 100h100v100H200z"/><path fill="#b1b3bc" d="M300 100h100v100H300z"/><path fill="#b0b4bd" d="M400 100h100v100H400z"/><path fill="#a3a6af" d="M500 100h100v100H500z"/><path fill="#c2c6d1" d="M600 100h100v100H600z"/><path fill="#c4c8d4" d="M700 100h100v100H700z"/><path fill="#cacad4" d="M0 200h100v100H0z"/><path fill="#c0c0ca" d="M100 200h100v100H100z"/><path fill="#afb1ba" d="M200 200h100v100H200z"/><path fill="#b5b7c0" d="M300 200h100v100H300z"/><path fill="#aaadb7" d="M400 200h100v100H400z"/><path fill="#b2b5c0" d="M500 200h100v100H500z"/><path fill="#c1c5d0" d="M600 200h100v100H600z"/><path fill="#c8ccd8" d="M700 200h100v100H700z"/><path fill="#c5c6d0" d="M0 300h100v100H0z"/><path fill="#c7c8d3" d="M100 300h100v100H100z"/><path fill="#bbbfc8" d="M200 300h100v100H200z"/><path fill="#b0b1ba" d="M300 300h100v100H300z"/><path fill="#b1b3bd" d="M400 300h100v100H400z"/><path fill="#b3b7c1" d="M500 300h100v100H500z"/><path fill="#b4b7c2" d="M600 300h100v100H600z"/><path fill="#bfc2ce" d="M700 300h100v100H700z"/><path fill="#cdcdd9" d="M0 400h100v100H0z"/><path fill="#c3c4ce" d="M100 400h100v100H100z"/><path fill="#b3b3bb" d="M200 400h100v100H200z"/><path fill="#b6b6c0" d="M300 400h100v100H300z"/><path fill="#aeafb7" d="M400 400h100v100H400z"/><path fill="#babec7" d="M500 400h100v100H500z"/><path fill="#cfd3df" d="M600 400h100v100H600z"/><path fill="#cacfda" d="M700 400h100v100H700z"/><path fill="#c5c5cf" d="M0 500h100v100H0z"/><path fill="#b7b6bf" d="M100 500h100v100H100z"/><path fill="#bfbfc9" d="M200 500h100v100H200z"/><path fill="#bebfc8" d="M300 500h100v100H300z"/><path fill="#c1c2cc" d="M400 500h100v100H400z"/><path fill="#c3c6d1" d="M500 500h100v100H500z"/><path fill="#c4c8d3" d="M600 500h100v100H600z"/><path fill="#ccd1dd" d="M700 500h100v100H700z"/><path fill="#c2c0cb" d="M0 600h100v100H0z"/><path fill="#c1c1cb" d="M100 600h100v100H100z"/><path fill="#bebfc7" d="M200 600h100v100H200z"/><path fill="#bfbfc8" d="M300 600h100v100H300z"/><path fill="#bfc0ca" d="M400 600h100v100H400z"/><path fill="#babdc7" d="M500 600h100v100H500z"/><path fill="#aeb1bb" d="M600 600h100v100H600z"/><path fill="#b7bbc6" d="M700 600h100v100H700z"/><path fill="#c4c3cc" d="M0 700h100v100H0z"/><path fill="#babac2" d="M100 700h100v100H100z"/><path fill="#acacb3" d="M200 700h100v100H200z"/><path fill="#acadb4" d="M300 700h100v100H300z"/><path fill="#bebec8" d="M400 700h100v100H400z"/><path fill="#b4b7bf" d="M500 700h100v100H500z"/><path fill="#a9acb6" d="M600 700h100v100H600z"/><path fill="#b8bdc9" d="M700 700h100v100H700z"/><path fill="#c5c4cd" d="M0 800h100v100H0z"/><path fill="#bdbbc5" d="M100 800h100v100H100z"/><path fill="#b1b1b8" d="M200 800h100v100H200z"/><path fill="#bebec6" d="M300 800h100v100H300z"/><path fill="#acabb3" d="M400 800h100v100H400z"/><path fill="#b0b2bb" d="M500 800h100v100H500z"/><path fill="#c9cdd9" d="M600 800h100v100H600z"/><path fill="#afb3bf" d="M700 800h100v100H700z"/><path fill="#cac8d3" d="M0 900h100v100H0z"/><path fill="#abaab2" d="M100 900h100v100H100z"/><path fill="#ababb2" d="M200 900h100v100H200z"/><path fill="#c8c9d3" d="M300 900h100v100H300z"/><path fill="#9e9fa6" d="M400 900h100v100H400z"/><path fill="#9d9da4" d="M500 900h100v100H500z"/><path fill="#c4c7d3" d="M600 900h100v100H600z"/><path fill="#c4c6d5" d="M700 900h100v100H700z"/><path fill="#c8c7d2" d="M0 1000h100v100H0z"/><path fill="#c6c5d0" d="M100 1000h100v100H100z"/><path fill="#c5c5d0" d="M200 1000h100v100H200z"/><path fill="#cbccd7" d="M300 1000h100v100H300z"/><path fill="#b1b2ba" d="M400 1000h100v100H400z"/><path fill="#a6a8b0" d="M500 1000h100v100H500z"/><path fill="#bbbfcb" d="M600 1000h100v100H600z"/><path fill="#bbbdc9" d="M700 1000h100v100H700z"/><path fill="#aaaab2" d="M0 1100h100v100H0z"/><path fill="#b1b1ba" d="M100 1100h100v100H100z"/><path fill="#babcc6" d="M200 1100h100v100H200z"/><path fill="#b4b5bf" d="M300 1100h100v100H300z"/><path fill="#acabb4" d="M400 1100h100v100H400z"/><path fill="#a3a5af" d="M500 1100h100v100H500z"/><path fill="#bcc1ce" d="M600 1100h100v100H600z"/><path fill="#a5a7b1" d="M700 1100h100v100H700z"/><path fill="#9f9fa7" d="M0 1200h100v100H0z"/><path fill="#a2a2aa" d="M100 1200h100v100H100z"/><path fill="#b1b2bb" d="M200 1200h100v100H200z"/><path fill="#b8bac5" d="M300 1200h100v100H300z"/><path fill="#acadb7" d="M400 1200h100v100H400z"/><path fill="#b0b3be" d="M500 1200h100v100H500z"/><path fill="#9da1aa" d="M600 1200h100v100H600z"/><path fill="#96989f" d="M700 1200h100v100H700z"/><path fill="#b0b0b9" d="M0 1300h100v100H0z"/><path fill="#b1b1ba" d="M100 1300h100v100H100z"/><path fill="#b7b8c1" d="M200 1300h100v100H200z"/><path fill="#aaaab3" d="M300 1300h100v100H300z"/><path fill="#a7a9b4" d="M400 1300h100v100H400z"/><path fill="#a7aab4" d="M500 1300h100v100H500z"/><path fill="#999ca3" d="M600 1300h100v100H600z"/><path fill="#919198" d="M700 1300h100v100H700z"/><path fill="#c1bdc6" d="M0 1400h100v100H0z"/><path fill="#b3b1b9" d="M100 1400h100v100H100z"/><path fill="#bbbac3" d="M200 1400h100v100H200z"/><path fill="#a8a8b0" d="M300 1400h100v100H300z"/><path fill="#bbbecb" d="M400 1400h100v100H400z"/><path fill="#b1b3be" d="M500 1400h100v100H500z"/><path fill="#a4a5ad" d="M600 1400h100v100H600z"/><path fill="#9e9aa2" d="M700 1400h100v100H700z"/></svg>