<svg xmlns="http://www.w3.org/2000/svg" viewBox="0 0 800 500"><defs/><path fill="#c2a885" d="M0 0h100v100H0z"/><path fill="#d3b7b7" d="M100 0h100v100H100z"/><path fill="#e4c29a" d="M200 0h100v100H200z"/><path fill="#e4e1ae" d="M300 0h100v100H300z"/><path fill="#edf1b9" d="M400 0h100v100H400z"/><path fill="#dac4a3" d="M500 0h100v100H500z"/><path fill="#96846e" d="M600 0h100v100H600z"/><path fill="#ac8e69" d="M700 0h100v100H700z"/><path fill="#ad8a7c" d="M0 100h100v100H0z"/><path fill="#c5a6a5" d="M100 100h100v100H100z"/><path fill="#dfc29c" d="M200 100h100v100H200z"/><path fill="#8eaba5" d="M300 100h100v100H300z"/><path fill="#8fb0b6" d="M400 100h100v100H400z"/><path fill="#c5aba1" d="M500 100h100v100H500z"/><path fill="#95807a" d="M600 100h100v100H600z"/><path fill="#8a6e65" d="M700 100h100v100H700z"/><path fill="#ad908c" d="M0 200h100v100H0z"/><path fill="#c09b8a" d="M100 200h100v100H100z"/><path fill="#e0b58d" d="M200 200h100v100H200z"/><path fill="#d5d2d1" d="M300 200h100v100H300z"/><path fill="#d8cdc2" d="M400 200h100v100H400z"/><path fill="#bc9e81" d="M500 200h100v100H500z"/><path fill="#796e6a" d="M600 200h100v100H600z"/><path fill="#7f6761" d="M700 200h100v100H700z"/><path fill="#827d7c" d="M0 300h100v100H0z"/><path fill="#a3957b" d="M100 300h100v100H100z"/><path fill="#ccb28a" d="M200 300h100v100H200z"/><path fill="#c2cca5" d="M300 300h100v100H300z"/><path fill="#c8cfa4" d="M400 300h100v100H400z"/><path fill="#beb49a" d="M500 300h100v100H500z"/><path fill="#83856d" d="M600 300h100v100H600z"/><path fill="#836861" d="M700 300h100v100H700z"/><path fill="#817c6d" d="M0 400h100v100H0z"/><path fill="#959f71" d="M100 400h100v100H100z"/><path fill="#a2b57d" d="M200 400h100v100H200z"/><path fill="#a5b47e" d="M300 400h100v100H300z"/><path fill="#b5bd95" d="M400 400h100v100H400z"/><path fill="#bcb9a4" d="M500 400h100v100H500z"/><path fill="#a6a385" d="M600 400h100v100H600z"/><path fill="#92876e" d="M700 400h100v100H700z"/></svg>