<svg xmlns="http://www.w3.org/2000/svg" viewBox="0 0 800 600"><defs/><path fill="#e1e6e6" d="M0 0h100v100H0z"/><path fill="#dfe3e2" d="M100 0h100v100H100z"/><path fill="#dedfdd" d="M200 0h100v100H200z"/><path fill="#d9d9d5" d="M300 0h100v100H300z"/><path fill="#d1d0cc" d="M400 0h100v100H400z"/><path fill="#c9c7c3" d="M500 0h100v100H500z"/><path fill="#c3bfb9" d="M600 0h100v100H600z"/><path fill="#beb7ad" d="M700 0h100v100H700z"/><path fill="#dadedd" d="M0 100h100v100H0z"/><path fill="#b9ab92" d="M100 100h100v100H100z"/><path fill="#c0bfb3" d="M200 100h100v100H200z"/><path fill="#cbcfcd" d="M300 100h100v100H300z"/><path fill="#c2c1bc" d="M400 100h100v100H400z"/><path fill="#bbbfb9" d="M500 100h100v100H500z"/><path fill="#b2b9b2" d="M600 100h100v100H600z"/><path fill="#a0a699" d="M700 100h100v100H700z"/><path fill="#cacec8" d="M0 200h100v100H0z"/><path fill="#a28a61" d="M100 200h100v100H100z"/><path fill="#998d81" d="M200 200h100v100H200z"/><path fill="#b7ada6" d="M300 200h100v100H300z"/><path fill="#b5b3a7" d="M400 200h100v100H400z"/><path fill="#af9a8f" d="M500 200h100v100H500z"/><path fill="#a6968a" d="M600 200h100v100H600z"/><path fill="#8f8f7f" d="M700 200h100v100H700z"/><path fill="#ae9685" d="M0 300h100v100H0z"/><path fill="#8f5b35" d="M100 300h100v100H100z"/><path fill="#8e6b5e" d="M200 300h100v100H200z"/><path fill="#875f45" d="M300 300h100v100H300z"/><path fill="#77573b" d="M400 300h100v100H400z"/><path fill="#8d674c" d="M500 300h100v100H500z"/><path fill="#746c58" d="M600 300h100v100H600z"/><path fill="#746150" d="M700 300h100v100H700z"/><path fill="#977359" d="M0 400h100v100H0z"/><path fill="#824728" d="M100 400h100v100H100z"/><path fill="#854944" d="M200 400h100v100H200z"/><path fill="#706a5c" d="M300 400h100v100H300z"/><path fill="#515a61" d="M400 400h100v100H400z"/><path fill="#646d6e" d="M500 400h100v100H500z"/><path fill="#5d604b" d="M600 400h100v100H600z"/><path fill="#6b5c49" d="M700 400h100v100H700z"/><path fill="#b3ae9f" d="M0 500h100v100H0z"/><path fill="#b5a998" d="M100 500h100v100H100z"/><path fill="#b7998d" d="M200 500h100v100H200z"/><path fill="#a49a8f" d="M300 500h100v100H300z"/><path fill="#9c9a90" d="M400 500h100v100H400z"/><path fill="#9e9989" d="M500 500h100v100H500z"/><path fill="#9c907c" d="M600 500h100v100H600z"/><path fill="#968d76" d="M700 500h100v100H700z"/></svg>