<svg xmlns="http://www.w3.org/2000/svg" viewBox="0 0 800 600"><defs/><path fill="#fafafa" d="M0 0h100v100H0z"/><path fill="#f5f5f5" d="M100 0h100v100H100z"/><path fill="#f8f8f8" d="M200 0h100v100H200z"/><path fill="#f7f7f7" d="M300 0h100v100H300z"/><path fill="#f0f0f1" d="M400 0h100v100H400z"/><path fill="#fbfbfb" d="M500 0h100v100H500z"/><path fill="#fafafb" d="M600 0h100v100H600z"/><path fill="#f6f5f6" d="M700 0h100v100H700z"/><path fill="#f4f4f4" d="M0 100h100v100H0z"/><path fill="#dbdbdd" d="M100 100h100v100H100z"/><path fill="#ededef" d="M200 100h100v100H200z"/><path fill="#ececed" d="M300 100h100v100H300z"/><path fill="#d6d5d7" d="M400 100h100v100H400z"/><path fill="#fbfbfb" d="M500 100h100v100H500z"/><path fill="#efeeef" d="M600 100h100v100H600z"/><path fill="#d5d3d6" d="M700 100h100v100H700z"/><path fill="#f0f0f1" d="M0 200h100v100H0z"/><path fill="#dcdbdd" d="M100 200h100v100H100z"/><path fill="#eee" d="M200 200h100v100H200z"/><path fill="#f6f6f7" d="M300 200h100v100H300z"/><path fill="#e8e7e8" d="M400 200h100v100H400z"/><path fill="#c7c6c9" d="M500 200h100v100H500z"/><path fill="#d6d6d8" d="M600 200h100v100H600z"/><path fill="#d8d7d9" d="M700 200h100v100H700z"/><path fill="#e7e7e8" d="M0 300h100v100H0z"/><path fill="#dfdee1" d="M100 300h100v100H100z"/><path fill="#fefefe" d="M200 300h100v100H200z"/><path fill="#f5f5f5" d="M300 300h100v100H300z"/><path fill="#dfdfe1" d="M400 300h100v100H400z"/><path fill="#d7d7d9" d="M500 300h100v100H500z"/><path fill="#dfdee0" d="M600 300h100v100H600z"/><path fill="#e5e5e6" d="M700 300h100v100H700z"/><path fill="#e3e1e3" d="M0 400h100v100H0z"/><path fill="#eeeeef" d="M100 400h100v100H100z"/><path fill="#fefefe" d="M200 400h100v100H200z"/><path fill="#efeff0" d="M300 400h100v100H300z"/><path fill="#f6f6f6" d="M400 400h100v100H400z"/><path fill="#fff" d="M500 400h100v100H500z"/><path fill="#f7f7f8" d="M600 400h100v100H600z"/><path fill="#f2f1f2" d="M700 400h100v100H700z"/><path fill="#f6f6f7" d="M0 500h100v100H0z"/><path fill="#f9f9f9" d="M100 500h100v100H100zm100 0h100v100H200z"/><path fill="#f8f7f8" d="M300 500h100v100H300z"/><path fill="#f8f7f7" d="M400 500h100v100H400z"/><path fill="#f8f8f9" d="M500 500h100v100H500z"/><path fill="#fafafa" d="M600 500h100v100H600z"/><path fill="#f7f7f8" d="M700 500h100v100H700z"/></svg>