<svg xmlns="http://www.w3.org/2000/svg" viewBox="0 0 800 600"><defs/><path fill="#73909f" d="M0 0h100v100H0z"/><path fill="#66869b" d="M100 0h100v100H100z"/><path fill="#b1aca5" d="M200 0h100v100H200z"/><path fill="#bdad9e" d="M300 0h100v100H300z"/><path fill="#c8b8a8" d="M400 0h100v100H400z"/><path fill="#cab394" d="M500 0h100v100H500z"/><path fill="#cd9c7e" d="M600 0h100v100H600z"/><path fill="#cdb7a4" d="M700 0h100v100H700z"/><path fill="#2b6286" d="M0 100h100v100H0z"/><path fill="#6b8799" d="M100 100h100v100H100z"/><path fill="#a5a5a4" d="M200 100h100v100H200z"/><path fill="#b4a79a" d="M300 100h100v100H300z"/><path fill="#bfae9d" d="M400 100h100v100H400z"/><path fill="#b4a48f" d="M500 100h100v100H500z"/><path fill="#daa793" d="M600 100h100v100H600z"/><path fill="#dcbfaa" d="M700 100h100v100H700z"/><path fill="#22608a" d="M0 200h100v100H0z"/><path fill="#989ea1" d="M100 200h100v100H100z"/><path fill="#c5bcb4" d="M200 200h100v100H200z"/><path fill="#d0bfb4" d="M300 200h100v100H300z"/><path fill="#c3b2a5" d="M400 200h100v100H400z"/><path fill="#c6b5a8" d="M500 200h100v100H500z"/><path fill="#ebdccc" d="M600 200h100v100H600z"/><path fill="#ecdbc9" d="M700 200h100v100H700z"/><path fill="#4c7893" d="M0 300h100v100H0z"/><path fill="#cfbcac" d="M100 300h100v100H100z"/><path fill="#e5d1c0" d="M200 300h100v100H200z"/><path fill="#d2c4b8" d="M300 300h100v100H300z"/><path fill="#e1d1c2" d="M400 300h100v100H400z"/><path fill="#f0dece" d="M500 300h100v100H500z"/><path fill="#e1d1c0" d="M600 300h100v100H600z"/><path fill="#ead8c6" d="M700 300h100v100H700z"/><path fill="#c3bbb0" d="M0 400h100v100H0z"/><path fill="#e2cebb" d="M100 400h100v100H100z"/><path fill="#c1b3a3" d="M200 400h100v100H200z"/><path fill="#b8aca1" d="M300 400h100v100H300z"/><path fill="#c8b7a7" d="M400 400h100v100H400z"/><path fill="#e6cbae" d="M500 400h100v100H500z"/><path fill="#c3a294" d="M600 400h100v100H600z"/><path fill="#dfcbba" d="M700 400h100v100H700z"/><path fill="#dfc9b6" d="M0 500h100v100H0z"/><path fill="#d9c8b7" d="M100 500h100v100H100z"/><path fill="#d0beac" d="M200 500h100v100H200z"/><path fill="#cec0b2" d="M300 500h100v100H300z"/><path fill="#cac1b7" d="M400 500h100v100H400z"/><path fill="#c6b9a9" d="M500 500h100v100H500z"/><path fill="#b7a393" d="M600 500h100v100H600z"/><path fill="#bcaa9a" d="M700 500h100v100H700z"/></svg>