<svg xmlns="http://www.w3.org/2000/svg" viewBox="0 0 800 400"><defs/><path fill="#eceefa" d="M0 0h100v100H0z"/><path fill="#bcbfc9" d="M100 0h100v100H100z"/><path fill="#c4c7cd" d="M200 0h100v100H200z"/><path fill="#c9ccd9" d="M300 0h100v100H300z"/><path fill="#d5d7db" d="M400 0h100v100H400z"/><path fill="#cbcbc1" d="M500 0h100v100H500z"/><path fill="#d2d7ed" d="M600 0h100v100H600z"/><path fill="#dadeeb" d="M700 0h100v100H700z"/><path fill="#c1c3cd" d="M0 100h100v100H0z"/><path fill="#c6c8cc" d="M100 100h100v100H100z"/><path fill="#c4c3c3" d="M200 100h100v100H200z"/><path fill="#c8ccd8" d="M300 100h100v100H300z"/><path fill="#c3c7d1" d="M400 100h100v100H400z"/><path fill="#d3d5d3" d="M500 100h100v100H500z"/><path fill="#e1e6f6" d="M600 100h100v100H600z"/><path fill="#b2b7c6" d="M700 100h100v100H700z"/><path fill="#a0a4ab" d="M0 200h100v100H0z"/><path fill="#caccce" d="M100 200h100v100H100z"/><path fill="#eaeced" d="M200 200h100v100H200z"/><path fill="#cfc8c2" d="M300 200h100v100H300z"/><path fill="#9f9282" d="M400 200h100v100H400z"/><path fill="#c3b7a5" d="M500 200h100v100H500z"/><path fill="#d2cac3" d="M600 200h100v100H600z"/><path fill="#c9cad4" d="M700 200h100v100H700z"/><path fill="#86878b" d="M0 300h100v100H0z"/><path fill="#c3c2c1" d="M100 300h100v100H100z"/><path fill="#e8e9eb" d="M200 300h100v100H200z"/><path fill="#c4a984" d="M300 300h100v100H300z"/><path fill="#c3a781" d="M400 300h100v100H400z"/><path fill="#c6a985" d="M500 300h100v100H500z"/><path fill="#c8aa85" d="M600 300h100v100H600z"/><path fill="#beb7aa" d="M700 300h100v100H700z"/></svg>