<svg xmlns="http://www.w3.org/2000/svg" viewBox="0 0 800 400"><defs/><path fill="#ccc9c6" d="M0 0h100v100H0z"/><path fill="#708394" d="M100 0h100v100H100z"/><path fill="#ece6dd" d="M200 0h100v100H200z"/><path fill="#d0baab" d="M300 0h100v100H300z"/><path fill="#d7c7bb" d="M400 0h100v100H400z"/><path fill="#ded3c4" d="M500 0h100v100H500z"/><path fill="#cec8bf" d="M600 0h100v100H600z"/><path fill="#c1bab2" d="M700 0h100v100H700z"/><path fill="#acb3ba" d="M0 100h100v100H0z"/><path fill="#7c94a1" d="M100 100h100v100H100z"/><path fill="#f1e8db" d="M200 100h100v100H200z"/><path fill="#cdb9b3" d="M300 100h100v100H300z"/><path fill="#d2ae8d" d="M400 100h100v100H400z"/><path fill="#cfaa7e" d="M500 100h100v100H500z"/><path fill="#bdbdb1" d="M600 100h100v100H600z"/><path fill="#b4afa7" d="M700 100h100v100H700z"/><path fill="#748191" d="M0 200h100v100H0z"/><path fill="#80939c" d="M100 200h100v100H100z"/><path fill="#dfd1c8" d="M200 200h100v100H200z"/><path fill="#c4b1af" d="M300 200h100v100H300z"/><path fill="#b1b3a7" d="M400 200h100v100H400z"/><path fill="#7e8c7f" d="M500 200h100v100H500z"/><path fill="#b09c95" d="M600 200h100v100H600z"/><path fill="#998680" d="M700 200h100v100H700z"/><path fill="#6d828f" d="M0 300h100v100H0z"/><path fill="#aab1af" d="M100 300h100v100H100z"/><path fill="#c5b9b3" d="M200 300h100v100H200z"/><path fill="#9b7978" d="M300 300h100v100H300z"/><path fill="#ad9c94" d="M400 300h100v100H400z"/><path fill="#93a094" d="M500 300h100v100H500z"/><path fill="#a99890" d="M600 300h100v100H600z"/><path fill="#9b8e85" d="M700 300h100v100H700z"/></svg>