<svg xmlns="http://www.w3.org/2000/svg" viewBox="0 0 800 500"><defs/><path fill="#b7b1af" d="M0 0h100v100H0z"/><path fill="#678996" d="M100 0h100v100H100z"/><path fill="#045a90" d="M200 0h100v100H200z"/><path fill="#005b9b" d="M300 0h100v100H300z"/><path fill="#0469a2" d="M400 0h100v100H400z"/><path fill="#0470aa" d="M500 0h100v100H500z"/><path fill="#006399" d="M600 0h100v100H600z"/><path fill="#5c8ea4" d="M700 0h100v100H700z"/><path fill="#aeaaa8" d="M0 100h100v100H0z"/><path fill="#557a8f" d="M100 100h100v100H100z"/><path fill="#125b90" d="M200 100h100v100H200z"/><path fill="#436680" d="M300 100h100v100H300z"/><path fill="#075080" d="M400 100h100v100H400z"/><path fill="#0d669f" d="M500 100h100v100H500z"/><path fill="#19719f" d="M600 100h100v100H600z"/><path fill="#6892a7" d="M700 100h100v100H700z"/><path fill="#939da0" d="M0 200h100v100H0z"/><path fill="#506f7e" d="M100 200h100v100H100z"/><path fill="#3d677d" d="M200 200h100v100H200z"/><path fill="#596576" d="M300 200h100v100H300z"/><path fill="#20517a" d="M400 200h100v100H400z"/><path fill="#527192" d="M500 200h100v100H500z"/><path fill="#a1a6a9" d="M600 200h100v100H600z"/><path fill="#959ca4" d="M700 200h100v100H700z"/><path fill="#7a868c" d="M0 300h100v100H0z"/><path fill="#6e6e70" d="M100 300h100v100H100z"/><path fill="#817f7d" d="M200 300h100v100H200z"/><path fill="#988b90" d="M300 300h100v100H300z"/><path fill="#858789" d="M400 300h100v100H400z"/><path fill="#989898" d="M500 300h100v100H500z"/><path fill="#ab9d9c" d="M600 300h100v100H600z"/><path fill="#9fa09f" d="M700 300h100v100H700z"/><path fill="#808482" d="M0 400h100v100H0z"/><path fill="#746a74" d="M100 400h100v100H100z"/><path fill="#7f717e" d="M200 400h100v100H200z"/><path fill="#9f908d" d="M300 400h100v100H300z"/><path fill="#928986" d="M400 400h100v100H400z"/><path fill="#9e9591" d="M500 400h100v100H500z"/><path fill="#9d8c89" d="M600 400h100v100H600z"/><path fill="#a09b97" d="M700 400h100v100H700z"/></svg>