<svg xmlns="http://www.w3.org/2000/svg" viewBox="0 0 800 600"><defs/><path fill="#b49f76" d="M0 0h100v100H0z"/><path fill="#ab9b7b" d="M100 0h100v100H100z"/><path fill="#657675" d="M200 0h100v100H200z"/><path fill="#71857e" d="M300 0h100v100H300z"/><path fill="#aeb392" d="M400 0h100v100H400z"/><path fill="#829895" d="M500 0h100v100H500z"/><path fill="#8b8a7d" d="M600 0h100v100H600z"/><path fill="#aa9b86" d="M700 0h100v100H700z"/><path fill="#b18a66" d="M0 100h100v100H0z"/><path fill="#af8f6c" d="M100 100h100v100H100z"/><path fill="#7e7a70" d="M200 100h100v100H200z"/><path fill="#8f8b76" d="M300 100h100v100H300z"/><path fill="#ae8954" d="M400 100h100v100H400z"/><path fill="#837870" d="M500 100h100v100H500z"/><path fill="#8c7d6c" d="M600 100h100v100H600z"/><path fill="#aa9c88" d="M700 100h100v100H700z"/><path fill="#c65724" d="M0 200h100v100H0z"/><path fill="#b4734c" d="M100 200h100v100H100z"/><path fill="#7d8276" d="M200 200h100v100H200z"/><path fill="#8e8a78" d="M300 200h100v100H300z"/><path fill="#937b5a" d="M400 200h100v100H400z"/><path fill="#7d7f73" d="M500 200h100v100H500z"/><path fill="#8e7c6a" d="M600 200h100v100H600z"/><path fill="#a99c88" d="M700 200h100v100H700z"/><path fill="#bc875a" d="M0 300h100v100H0z"/><path fill="#b0946f" d="M100 300h100v100H100z"/><path fill="#7f7260" d="M200 300h100v100H200z"/><path fill="#9c7b58" d="M300 300h100v100H300z"/><path fill="#9f7e5c" d="M400 300h100v100H400z"/><path fill="#8a7c5f" d="M500 300h100v100H500z"/><path fill="#988d77" d="M600 300h100v100H600z"/><path fill="#ac9e88" d="M700 300h100v100H700z"/><path fill="#bda67b" d="M0 400h100v100H0z"/><path fill="#a79c87" d="M100 400h100v100H100z"/><path fill="#a0826c" d="M200 400h100v100H200z"/><path fill="#a0672f" d="M300 400h100v100H300z"/><path fill="#aa783e" d="M400 400h100v100H400z"/><path fill="#9f7143" d="M500 400h100v100H500z"/><path fill="#a59383" d="M600 400h100v100H600z"/><path fill="#a19483" d="M700 400h100v100H700z"/><path fill="#ac9574" d="M0 500h100v100H0z"/><path fill="#ad8e70" d="M100 500h100v100H100z"/><path fill="#ab8a72" d="M200 500h100v100H200z"/><path fill="#b56733" d="M300 500h100v100H300z"/><path fill="#ba662d" d="M400 500h100v100H400z"/><path fill="#af7146" d="M500 500h100v100H500z"/><path fill="#9e9690" d="M600 500h100v100H600z"/><path fill="#a68b78" d="M700 500h100v100H700z"/></svg>