<svg xmlns="http://www.w3.org/2000/svg" viewBox="0 0 800 400"><defs/><path fill="#d7c7b9" d="M0 0h100v100H0z"/><path fill="#c2a696" d="M100 0h100v100H100z"/><path fill="#d0c0b3" d="M200 0h100v100H200z"/><path fill="#d3b6a3" d="M300 0h100v100H300z"/><path fill="#cfac96" d="M400 0h100v100H400z"/><path fill="#cdb5a4" d="M500 0h100v100H500z"/><path fill="#c4b7ac" d="M600 0h100v100H600z"/><path fill="#bbada1" d="M700 0h100v100H700z"/><path fill="#ddc5b5" d="M0 100h100v100H0z"/><path fill="#b4a08f" d="M100 100h100v100H100z"/><path fill="#b5b1a2" d="M200 100h100v100H200z"/><path fill="#e5d3c0" d="M300 100h100v100H300z"/><path fill="#e3c9b9" d="M400 100h100v100H400z"/><path fill="#dfc8ba" d="M500 100h100v100H500z"/><path fill="#a5aeaf" d="M600 100h100v100H600z"/><path fill="#b4b2ad" d="M700 100h100v100H700z"/><path fill="#c7b7ad" d="M0 200h100v100H0z"/><path fill="#a79384" d="M100 200h100v100H100z"/><path fill="#8e8171" d="M200 200h100v100H200z"/><path fill="#c1b4a5" d="M300 200h100v100H300z"/><path fill="#c9b5ab" d="M400 200h100v100H400z"/><path fill="#c1b0a8" d="M500 200h100v100H500z"/><path fill="#a6acab" d="M600 200h100v100H600z"/><path fill="#d0cac5" d="M700 200h100v100H700z"/><path fill="#cfb8ad" d="M0 300h100v100H0z"/><path fill="#c9b9af" d="M100 300h100v100H100z"/><path fill="#cbb3a6" d="M200 300h100v100H200z"/><path fill="#c7ab9c" d="M300 300h100v100H300z"/><path fill="#c9bbb3" d="M400 300h100v100H400z"/><path fill="#bb99a9" d="M500 300h100v100H500z"/><path fill="#c5acb2" d="M600 300h100v100H600z"/><path fill="#cec5bd" d="M700 300h100v100H700z"/></svg>