<svg xmlns="http://www.w3.org/2000/svg" viewBox="0 0 800 500"><defs/><path fill="#acc1be" d="M0 0h100v100H0z"/><path fill="#8c8a7d" d="M100 0h100v100H100z"/><path fill="#899690" d="M200 0h100v100H200z"/><path fill="#849593" d="M300 0h100v100H300z"/><path fill="#aebeba" d="M400 0h100v100H400z"/><path fill="#ebedec" d="M500 0h100v100H500z"/><path fill="#dee4e1" d="M600 0h100v100H600z"/><path fill="#9fb7b3" d="M700 0h100v100H700z"/><path fill="#809991" d="M0 100h100v100H0z"/><path fill="#4a4533" d="M100 100h100v100H100z"/><path fill="#4f665e" d="M200 100h100v100H200z"/><path fill="#7a6b68" d="M300 100h100v100H300z"/><path fill="#acafab" d="M400 100h100v100H400z"/><path fill="#b0b9c1" d="M500 100h100v100H500z"/><path fill="#9dacb2" d="M600 100h100v100H600z"/><path fill="#7f958e" d="M700 100h100v100H700z"/><path fill="#8c9c94" d="M0 200h100v100H0z"/><path fill="#565040" d="M100 200h100v100H100z"/><path fill="#59706b" d="M200 200h100v100H200z"/><path fill="#7b6f71" d="M300 200h100v100H300z"/><path fill="#9d9690" d="M400 200h100v100H400z"/><path fill="#899cac" d="M500 200h100v100H500z"/><path fill="#6b6464" d="M600 200h100v100H600z"/><path fill="#6c8a79" d="M700 200h100v100H700z"/><path fill="#83897f" d="M0 300h100v100H0z"/><path fill="#664a2f" d="M100 300h100v100H100z"/><path fill="#958060" d="M200 300h100v100H200z"/><path fill="#7f6a55" d="M300 300h100v100H300z"/><path fill="#857a69" d="M400 300h100v100H400z"/><path fill="#9a8377" d="M500 300h100v100H500z"/><path fill="#9f8c79" d="M600 300h100v100H600z"/><path fill="#63805d" d="M700 300h100v100H700z"/><path fill="#bdb3a8" d="M0 400h100v100H0z"/><path fill="#a1937b" d="M100 400h100v100H100z"/><path fill="#a9a68b" d="M200 400h100v100H200z"/><path fill="#7c7263" d="M300 400h100v100H300z"/><path fill="#5e5e58" d="M400 400h100v100H400z"/><path fill="#ac9a89" d="M500 400h100v100H500z"/><path fill="#aba18a" d="M600 400h100v100H600z"/><path fill="#b0ad98" d="M700 400h100v100H700z"/></svg>