<svg xmlns="http://www.w3.org/2000/svg" viewBox="0 0 800 600"><defs/><path fill="#b6c4d1" d="M0 0h100v100H0z"/><path fill="#b8c4ca" d="M100 0h100v100H100z"/><path fill="#b6c6d9" d="M200 0h100v100H200z"/><path fill="#c0cbd2" d="M300 0h100v100H300z"/><path fill="#c0ccd9" d="M400 0h100v100H400z"/><path fill="#c0cdde" d="M500 0h100v100H500z"/><path fill="#bcc8d6" d="M600 0h100v100H600z"/><path fill="#bcc8d5" d="M700 0h100v100H700z"/><path fill="#86a0b3" d="M0 100h100v100H0z"/><path fill="#92a29c" d="M100 100h100v100H100z"/><path fill="#9ab1be" d="M200 100h100v100H200z"/><path fill="#a2b3b8" d="M300 100h100v100H300z"/><path fill="#9fa9b5" d="M400 100h100v100H400z"/><path fill="#9ca7b6" d="M500 100h100v100H500z"/><path fill="#9cadbb" d="M600 100h100v100H600z"/><path fill="#b6c4d0" d="M700 100h100v100H700z"/><path fill="#9eadb4" d="M0 200h100v100H0z"/><path fill="#9ca5a4" d="M100 200h100v100H100z"/><path fill="#a5adb6" d="M200 200h100v100H200z"/><path fill="#aab3ba" d="M300 200h100v100H300z"/><path fill="#a7acb8" d="M400 200h100v100H400z"/><path fill="#a6adb9" d="M500 200h100v100H500z"/><path fill="#a8afbb" d="M600 200h100v100H600z"/><path fill="#b8c1cc" d="M700 200h100v100H700z"/><path fill="#98a7a5" d="M0 300h100v100H0z"/><path fill="#9ca6a7" d="M100 300h100v100H100z"/><path fill="#adb8be" d="M200 300h100v100H200z"/><path fill="#abb6b9" d="M300 300h100v100H300z"/><path fill="#a6b0b4" d="M400 300h100v100H400z"/><path fill="#afb8bf" d="M500 300h100v100H500z"/><path fill="#aab2b7" d="M600 300h100v100H600z"/><path fill="#b1bac5" d="M700 300h100v100H700z"/><path fill="#9ca894" d="M0 400h100v100H0z"/><path fill="#acb688" d="M100 400h100v100H100z"/><path fill="#b2b98d" d="M200 400h100v100H200z"/><path fill="#8f9590" d="M300 400h100v100H300z"/><path fill="#aebba9" d="M400 400h100v100H400z"/><path fill="#a4aea3" d="M500 400h100v100H500z"/><path fill="#878a89" d="M600 400h100v100H600z"/><path fill="#abb5ad" d="M700 400h100v100H700z"/><path fill="#b2bdb6" d="M0 500h100v100H0z"/><path fill="#b5bfb5" d="M100 500h100v100H100z"/><path fill="#b2bab2" d="M200 500h100v100H200z"/><path fill="#a9b0b5" d="M300 500h100v100H300z"/><path fill="#b5bfbe" d="M400 500h100v100H400z"/><path fill="#acb4b7" d="M500 500h100v100H500z"/><path fill="#a3a9b1" d="M600 500h100v100H600z"/><path fill="#a6b0b0" d="M700 500h100v100H700z"/></svg>