<svg xmlns="http://www.w3.org/2000/svg" viewBox="0 0 800 600"><defs/><path fill="#f4efe6" d="M0 0h100v100H0z"/><path fill="#ece8de" d="M100 0h100v100H100z"/><path fill="#e7e0d6" d="M200 0h100v100H200z"/><path fill="#ede9e0" d="M300 0h100v100H300z"/><path fill="#ede8df" d="M400 0h100v100H400z"/><path fill="#ebe6db" d="M500 0h100v100H500z"/><path fill="#f0eae0" d="M600 0h100v100H600zm100 0h100v100H700z"/><path fill="#e0dacf" d="M0 100h100v100H0z"/><path fill="#9e8982" d="M100 100h100v100H100z"/><path fill="#93928e" d="M200 100h100v100H200z"/><path fill="#dad6c7" d="M300 100h100v100H300z"/><path fill="#d0af99" d="M400 100h100v100H400z"/><path fill="#cbbaaa" d="M500 100h100v100H500z"/><path fill="#d8d0c6" d="M600 100h100v100H600z"/><path fill="#a4968d" d="M700 100h100v100H700z"/><path fill="#d5ccbd" d="M0 200h100v100H0z"/><path fill="#89746c" d="M100 200h100v100H100z"/><path fill="#b3a38b" d="M200 200h100v100H200z"/><path fill="#ccb996" d="M300 200h100v100H300z"/><path fill="#bd9e82" d="M400 200h100v100H400z"/><path fill="#bc9a78" d="M500 200h100v100H500z"/><path fill="#cbb79e" d="M600 200h100v100H600z"/><path fill="#a49789" d="M700 200h100v100H700z"/><path fill="#d3c5b5" d="M0 300h100v100H0z"/><path fill="#9f8273" d="M100 300h100v100H100z"/><path fill="#94796a" d="M200 300h100v100H200z"/><path fill="#8c7566" d="M300 300h100v100H300z"/><path fill="#9f9184" d="M400 300h100v100H400z"/><path fill="#aa9379" d="M500 300h100v100H500z"/><path fill="#c6a884" d="M600 300h100v100H600z"/><path fill="#c5b69e" d="M700 300h100v100H700z"/><path fill="#aba199" d="M0 400h100v100H0z"/><path fill="#997c67" d="M100 400h100v100H100z"/><path fill="#927a61" d="M200 400h100v100H200z"/><path fill="#967e78" d="M300 400h100v100H300z"/><path fill="#8b7d7e" d="M400 400h100v100H400z"/><path fill="#897068" d="M500 400h100v100H500z"/><path fill="#c3af94" d="M600 400h100v100H600z"/><path fill="#bdad97" d="M700 400h100v100H700z"/><path fill="#e4ded5" d="M0 500h100v100H0z"/><path fill="#dbd3c9" d="M100 500h100v100H100z"/><path fill="#e5dcd0" d="M200 500h100v100H200z"/><path fill="#e0dad0" d="M300 500h100v100H300z"/><path fill="#e1d9d0" d="M400 500h100v100H400z"/><path fill="#e9e0d5" d="M500 500h100v100H500z"/><path fill="#efe8da" d="M600 500h100v100H600z"/><path fill="#ede7db" d="M700 500h100v100H700z"/></svg>