<svg xmlns="http://www.w3.org/2000/svg" viewBox="0 0 800 600"><defs/><path fill="#eaecee" d="M0 0h100v100H0z"/><path fill="#e0e2e6" d="M100 0h100v100H100z"/><path fill="#e3e5ea" d="M200 0h100v100H200z"/><path fill="#e8e7e9" d="M300 0h100v100H300z"/><path fill="#e6e6e9" d="M400 0h100v100H400z"/><path fill="#e7e7e8" d="M500 0h100v100H500z"/><path fill="#e6e6ea" d="M600 0h100v100H600z"/><path fill="#e7e9ee" d="M700 0h100v100H700z"/><path fill="#cac1b0" d="M0 100h100v100H0z"/><path fill="#978a77" d="M100 100h100v100H100z"/><path fill="#9f8d78" d="M200 100h100v100H200z"/><path fill="#a28871" d="M300 100h100v100H300z"/><path fill="#b5a594" d="M400 100h100v100H400z"/><path fill="#b09b8a" d="M500 100h100v100H500z"/><path fill="#af9f87" d="M600 100h100v100H600z"/><path fill="#b5aa9c" d="M700 100h100v100H700z"/><path fill="#cbbeaf" d="M0 200h100v100H0z"/><path fill="#908168" d="M100 200h100v100H100z"/><path fill="#987c61" d="M200 200h100v100H200z"/><path fill="#997d5c" d="M300 200h100v100H300z"/><path fill="#ac8b70" d="M400 200h100v100H400z"/><path fill="#ada392" d="M500 200h100v100H500z"/><path fill="#a48f70" d="M600 200h100v100H600z"/><path fill="#b4a38f" d="M700 200h100v100H700z"/><path fill="#c4c0b4" d="M0 300h100v100H0z"/><path fill="#8e8572" d="M100 300h100v100H100z"/><path fill="#ac8c6e" d="M200 300h100v100H200z"/><path fill="#b38b67" d="M300 300h100v100H300z"/><path fill="#a48673" d="M400 300h100v100H400z"/><path fill="#8b8984" d="M500 300h100v100H500z"/><path fill="#8b7a6d" d="M600 300h100v100H600z"/><path fill="#ad927b" d="M700 300h100v100H700z"/><path fill="#bdbfb6" d="M0 400h100v100H0z"/><path fill="#857b67" d="M100 400h100v100H100z"/><path fill="#bd9c82" d="M200 400h100v100H200z"/><path fill="#bca58d" d="M300 400h100v100H300z"/><path fill="#a99a85" d="M400 400h100v100H400z"/><path fill="#938472" d="M500 400h100v100H500z"/><path fill="#998575" d="M600 400h100v100H600z"/><path fill="#aca086" d="M700 400h100v100H700z"/><path fill="#d8dadc" d="M0 500h100v100H0z"/><path fill="#b8b7b9" d="M100 500h100v100H100z"/><path fill="#c7c3c8" d="M200 500h100v100H200z"/><path fill="#cccbc9" d="M300 500h100v100H300z"/><path fill="#cfcdca" d="M400 500h100v100H400z"/><path fill="#cfccc6" d="M500 500h100v100H500z"/><path fill="#cac3be" d="M600 500h100v100H600z"/><path fill="#c6c9c4" d="M700 500h100v100H700z"/></svg>