<svg xmlns="http://www.w3.org/2000/svg" viewBox="0 0 800 2000"><defs/><path fill="#0276c2" d="M0 0h100v100H0z"/><path fill="#1680c5" d="M100 0h100v100H100z"/><path fill="#0f7cc4" d="M200 0h100v100H200z"/><path fill="#107dc4" d="M300 0h100v100H300z"/><path fill="#1882c6" d="M400 0h100v100H400z"/><path fill="#1a82c6" d="M500 0h100v100H500zm100 0h100v100H600z"/><path fill="#0276c2" d="M700 0h100v100H700z"/><path fill="#0e7cc5" d="M0 100h100v100H0z"/><path fill="#5aa3d0" d="M100 100h100v100H100z"/><path fill="#4c9cce" d="M200 100h100v100H200z"/><path fill="#59a2d0" d="M300 100h100v100H300z"/><path fill="#64a9d3" d="M400 100h100v100H400z"/><path fill="#55a0d0" d="M500 100h100v100H500z"/><path fill="#52a0cf" d="M600 100h100v100H600z"/><path fill="#0477c3" d="M700 100h100v100H700z"/><path fill="#0672c0" d="M0 200h100v100H0z"/><path fill="#2b8ac7" d="M100 200h100v100H100z"/><path fill="#2d8bc8" d="M200 200h100v100H200z"/><path fill="#318ec9" d="M300 200h100v100H300z"/><path fill="#2d8dc9" d="M400 200h100v100H400z"/><path fill="#0074c3" d="M500 200h100v100H500z"/><path fill="#0072c1" d="M600 200h100v100H600z"/><path fill="#006ebf" d="M700 200h100v100H700z"/><path fill="#add4ec" d="M0 300h100v100H0z"/><path fill="#acd5ef" d="M100 300h100v100H100z"/><path fill="#aad1eb" d="M200 300h100v100H200z"/><path fill="#a7cfe9" d="M300 300h100v100H300z"/><path fill="#a0c9e3" d="M400 300h100v100H400z"/><path fill="#a0c8e2" d="M500 300h100v100H500z"/><path fill="#a9d0e9" d="M600 300h100v100H600z"/><path fill="#add4eb" d="M700 300h100v100H700z"/><path fill="#bbd1e1" d="M0 400h100v100H0z"/><path fill="#7c9fbd" d="M100 400h100v100H100z"/><path fill="#eff7fd" d="M200 400h100v100H200z"/><path fill="#ebe7e7" d="M300 400h100v100H300z"/><path fill="#b7b1b5" d="M400 400h100v100H400z"/><path fill="#cec7c9" d="M500 400h100v100H500z"/><path fill="#f1e9e6" d="M600 400h100v100H600z"/><path fill="#f8f2f0" d="M700 400h100v100H700z"/><path fill="#6b9abf" d="M0 500h100v100H0z"/><path fill="#004d8b" d="M100 500h100v100H100z"/><path fill="#9abdd8" d="M200 500h100v100H200z"/><path fill="#e6eff2" d="M300 500h100v100H300z"/><path fill="#c9d5d9" d="M400 500h100v100H400z"/><path fill="#d9e5ea" d="M500 500h100v100H500z"/><path fill="#dae8ed" d="M600 500h100v100H600z"/><path fill="#e6eff3" d="M700 500h100v100H700z"/><path fill="#7fa8c8" d="M0 600h100v100H0z"/><path fill="#1e649b" d="M100 600h100v100H100z"/><path fill="#bad4e8" d="M200 600h100v100H200z"/><path fill="#e3f0f3" d="M300 600h100v100H300z"/><path fill="#bbd7e0" d="M400 600h100v100H400z"/><path fill="#bcd5df" d="M500 600h100v100H500z"/><path fill="#d3e4e8" d="M600 600h100v100H600z"/><path fill="#eaf2f4" d="M700 600h100v100H700z"/><path fill="#ddeaf3" d="M0 700h100v100H0z"/><path fill="#c3d5e3" d="M100 700h100v100H100z"/><path fill="#eff4f6" d="M200 700h100v100H200z"/><path fill="#f0f2f4" d="M300 700h100v100H300z"/><path fill="#e2eaed" d="M400 700h100v100H400z"/><path fill="#f4f8f9" d="M500 700h100v100H500z"/><path fill="#eff7fc" d="M600 700h100v100H600z"/><path fill="#ecf5fa" d="M700 700h100v100H700z"/><path fill="#fff" d="M0 800h100v100H0z"/><path fill="#fffefe" d="M100 800h100v100H100z"/><path fill="#e5e4e5" d="M200 800h100v100H200z"/><path fill="#c3c4ca" d="M300 800h100v100H300z"/><path fill="#ddd9db" d="M400 800h100v100H400z"/><path fill="#d6eaf6" d="M500 800h100v100H500z"/><path fill="#87bcdc" d="M600 800h100v100H600z"/><path fill="#93c2df" d="M700 800h100v100H700z"/><path fill="#fafcfd" d="M0 900h100v100H0z"/><path fill="#d9e7ec" d="M100 900h100v100H100z"/><path fill="#c7dde4" d="M200 900h100v100H200z"/><path fill="#bfd5dd" d="M300 900h100v100H300z"/><path fill="#d6e4e7" d="M400 900h100v100H400z"/><path fill="#a2cbe5" d="M500 900h100v100H500z"/><path fill="#73b7d6" d="M600 900h100v100H600z"/><path fill="#8ec4dc" d="M700 900h100v100H700z"/><path fill="#fdfefe" d="M0 1000h100v100H0z"/><path fill="#e5eef0" d="M100 1000h100v100H100z"/><path fill="#d9e7eb" d="M200 1000h100v100H200z"/><path fill="#d7e7ed" d="M300 1000h100v100H300z"/><path fill="#e9f3f5" d="M400 1000h100v100H400z"/><path fill="#d9ebf6" d="M500 1000h100v100H500z"/><path fill="#97cbe5" d="M600 1000h100v100H600z"/><path fill="#a6d1e7" d="M700 1000h100v100H700z"/><path fill="#d8eaf5" d="M0 1100h100v100H0z"/><path fill="#cbe5f6" d="M100 1100h100v100H100z"/><path fill="#f3fbff" d="M200 1100h100v100H200z"/><path fill="#f0eeef" d="M300 1100h100v100H300z"/><path fill="#cfd0d5" d="M400 1100h100v100H400z"/><path fill="#ddddde" d="M500 1100h100v100H500z"/><path fill="#eaeef2" d="M600 1100h100v100H600z"/><path fill="#f4f8fc" d="M700 1100h100v100H700z"/><path fill="#7cb3d7" d="M0 1200h100v100H0z"/><path fill="#6884a3" d="M100 1200h100v100H100z"/><path fill="#c5dbea" d="M200 1200h100v100H200z"/><path fill="#d9dde2" d="M300 1200h100v100H300z"/><path fill="#b5b9bf" d="M400 1200h100v100H400z"/><path fill="#babec5" d="M500 1200h100v100H500z"/><path fill="#cfd1d4" d="M600 1200h100v100H600z"/><path fill="#fbfbfa" d="M700 1200h100v100H700z"/><path fill="#82a7c4" d="M0 1300h100v100H0z"/><path fill="#7390b3" d="M100 1300h100v100H100z"/><path fill="#a5c8e1" d="M200 1300h100v100H200z"/><path fill="#ddebef" d="M300 1300h100v100H300z"/><path fill="#c1d9e1" d="M400 1300h100v100H400z"/><path fill="#c1d9e2" d="M500 1300h100v100H500z"/><path fill="#bdd6df" d="M600 1300h100v100H600z"/><path fill="#e7f0f3" d="M700 1300h100v100H700z"/><path fill="#c1daea" d="M0 1400h100v100H0z"/><path fill="#a1cfec" d="M100 1400h100v100H100z"/><path fill="#e1f2fb" d="M200 1400h100v100H200z"/><path fill="#eef6f8" d="M300 1400h100v100H300z"/><path fill="#cfe4ea" d="M400 1400h100v100H400z"/><path fill="#d0e2e8" d="M500 1400h100v100H500z"/><path fill="#e0ebee" d="M600 1400h100v100H600z"/><path fill="#f5f9fa" d="M700 1400h100v100H700z"/><path fill="#fff" d="M0 1500h100v100H0z"/><path fill="#e7e4e5" d="M100 1500h100v100H100z"/><path fill="#e0dedf" d="M200 1500h100v100H200z"/><path fill="#d8d8dc" d="M300 1500h100v100H300z"/><path fill="#dedcdf" d="M400 1500h100v100H400z"/><path fill="#f5fafd" d="M500 1500h100v100H500z"/><path fill="#c2dded" d="M600 1500h100v100H600z"/><path fill="#c6deed" d="M700 1500h100v100H700z"/><path fill="#f9fbfc" d="M0 1600h100v100H0z"/><path fill="#dce2e6" d="M100 1600h100v100H100z"/><path fill="#c7d0d5" d="M200 1600h100v100H200z"/><path fill="#c5ccd2" d="M300 1600h100v100H300z"/><path fill="#d1d5d9" d="M400 1600h100v100H400z"/><path fill="#bfd9ea" d="M500 1600h100v100H500z"/><path fill="#4ea7cf" d="M600 1600h100v100H600z"/><path fill="#52a8d0" d="M700 1600h100v100H700z"/><path fill="#ecf3f5" d="M0 1700h100v100H0z"/><path fill="#e8f2f5" d="M100 1700h100v100H100z"/><path fill="#cce1e8" d="M200 1700h100v100H200z"/><path fill="#bdd9e1" d="M300 1700h100v100H300z"/><path fill="#d2e7ec" d="M400 1700h100v100H400z"/><path fill="#bfd7e7" d="M500 1700h100v100H500z"/><path fill="#3e5d7b" d="M600 1700h100v100H600z"/><path fill="#385c7b" d="M700 1700h100v100H700z"/><path fill="#fff" d="M0 1800h100v100H0z"/><path fill="#d7e7ee" d="M100 1800h100v100H100z"/><path fill="#e4eef2" d="M200 1800h100v100H200z"/><path fill="#f3f7f6" d="M300 1800h100v100H300z"/><path fill="#f4f8f8" d="M400 1800h100v100H400z"/><path fill="#f2f6f9" d="M500 1800h100v100H500z"/><path fill="#c1d3e1" d="M600 1800h100v100H600z"/><path fill="#c9d7e4" d="M700 1800h100v100H700z"/><path fill="#e5f0f6" d="M0 1900h100v100H0z"/><path fill="#bad4e0" d="M100 1900h100v100H100z"/><path fill="#c9dee8" d="M200 1900h100v100H200z"/><path fill="#e3eff5" d="M300 1900h100v100H300z"/><path fill="#ddebf2" d="M400 1900h100v100H400z"/><path fill="#deecf2" d="M500 1900h100v100H500z"/><path fill="#e3f1f6" d="M600 1900h100v100H600z"/><path fill="#edf6fb" d="M700 1900h100v100H700z"/></svg>