<svg xmlns="http://www.w3.org/2000/svg" viewBox="0 0 800 500"><defs/><path fill="#e1e1e1" d="M0 0h100v100H0z"/><path fill="#b0b0b0" d="M100 0h100v100H100z"/><path fill="#cdcdcd" d="M200 0h100v100H200z"/><path fill="#b8b8b8" d="M300 0h100v100H300z"/><path fill="#dadada" d="M400 0h100v100H400z"/><path fill="#e5e5e5" d="M500 0h100v100H500z"/><path fill="#c7c7c7" d="M600 0h100v100H600z"/><path fill="#e7e7e7" d="M700 0h100v100H700z"/><path fill="#ccc" d="M0 100h100v100H0z"/><path fill="#9a9a9a" d="M100 100h100v100H100z"/><path fill="#c9c9c9" d="M200 100h100v100H200z"/><path fill="#9e9e9e" d="M300 100h100v100H300z"/><path fill="#b5b5b5" d="M400 100h100v100H400z"/><path fill="#bdbdbd" d="M500 100h100v100H500z"/><path fill="#b7b7b7" d="M600 100h100v100H600z"/><path fill="#e5e5e5" d="M700 100h100v100H700z"/><path fill="#c2c2c2" d="M0 200h100v100H0z"/><path fill="#9a9a9a" d="M100 200h100v100H100z"/><path fill="silver" d="M200 200h100v100H200z"/><path fill="#7f7f7f" d="M300 200h100v100H300z"/><path fill="#afafaf" d="M400 200h100v100H400z"/><path fill="#a0a0a0" d="M500 200h100v100H500z"/><path fill="#afafaf" d="M600 200h100v100H600z"/><path fill="#dbdbdb" d="M700 200h100v100H700z"/><path fill="#b3b3b3" d="M0 300h100v100H0z"/><path fill="#999" d="M100 300h100v100H100z"/><path fill="#bebebe" d="M200 300h100v100H200z"/><path fill="#a1a1a1" d="M300 300h100v100H300z"/><path fill="#a9a9a9" d="M400 300h100v100H400z"/><path fill="#a0a0a0" d="M500 300h100v100H500z"/><path fill="#9a9a9a" d="M600 300h100v100H600z"/><path fill="#aeaeae" d="M700 300h100v100H700z"/><path fill="#b7b7b7" d="M0 400h100v100H0z"/><path fill="#c6c6c6" d="M100 400h100v100H100z"/><path fill="#c5c5c5" d="M200 400h100v100H200z"/><path fill="#bfbfbf" d="M300 400h100v100H300z"/><path fill="#c7c7c7" d="M400 400h100v100H400z"/><path fill="#c4c4c4" d="M500 400h100v100H500z"/><path fill="#b8b8b8" d="M600 400h100v100H600z"/><path fill="#b0b0b0" d="M700 400h100v100H700z"/></svg>