<svg xmlns="http://www.w3.org/2000/svg" viewBox="0 0 800 500"><defs/><path fill="#c4995f" d="M0 0h100v100H0z"/><path fill="#a79770" d="M100 0h100v100H100z"/><path fill="#1a222d" d="M200 0h100v100H200z"/><path fill="#1e2434" d="M300 0h100v100H300z"/><path fill="#222839" d="M400 0h100v100H400z"/><path fill="#0d1321" d="M500 0h100v100H500z"/><path fill="#131824" d="M600 0h100v100H600z"/><path fill="#252226" d="M700 0h100v100H700z"/><path fill="#caa970" d="M0 100h100v100H0z"/><path fill="#9c9375" d="M100 100h100v100H100z"/><path fill="#4a3135" d="M200 100h100v100H200z"/><path fill="#695153" d="M300 100h100v100H300z"/><path fill="#645a60" d="M400 100h100v100H400z"/><path fill="#2a2835" d="M500 100h100v100H500z"/><path fill="#192231" d="M600 100h100v100H600z"/><path fill="#2e2e33" d="M700 100h100v100H700z"/><path fill="#c6a66e" d="M0 200h100v100H0z"/><path fill="#7e765e" d="M100 200h100v100H100z"/><path fill="#361f1d" d="M200 200h100v100H200z"/><path fill="#2b1f1f" d="M300 200h100v100H300z"/><path fill="#2b2022" d="M400 200h100v100H400z"/><path fill="#322225" d="M500 200h100v100H500z"/><path fill="#080f1e" d="M600 200h100v100H600z"/><path fill="#1a1f27" d="M700 200h100v100H700z"/><path fill="#bfa573" d="M0 300h100v100H0z"/><path fill="#817f67" d="M100 300h100v100H100z"/><path fill="#5e4139" d="M200 300h100v100H200z"/><path fill="#91614d" d="M300 300h100v100H300z"/><path fill="#8c6354" d="M400 300h100v100H400z"/><path fill="#926856" d="M500 300h100v100H500z"/><path fill="#7d5441" d="M600 300h100v100H600z"/><path fill="#4e3a36" d="M700 300h100v100H700z"/><path fill="#b9a87d" d="M0 400h100v100H0z"/><path fill="#947e65" d="M100 400h100v100H100z"/><path fill="#a2715b" d="M200 400h100v100H200z"/><path fill="#db9b7b" d="M300 400h100v100H300z"/><path fill="#d69b80" d="M400 400h100v100H400z"/><path fill="#dc9f81" d="M500 400h100v100H500z"/><path fill="#cd9171" d="M600 400h100v100H600z"/><path fill="#ac7f66" d="M700 400h100v100H700z"/></svg>