<svg xmlns="http://www.w3.org/2000/svg" viewBox="0 0 800 600"><defs/><path fill="#fbfbfb" d="M0 0h100v100H0z"/><path fill="#f5f5f5" d="M100 0h100v100H100z"/><path fill="#fcfcfc" d="M200 0h100v100H200z"/><path fill="#f4f4f4" d="M300 0h100v100H300zm100 0h100v100H400z"/><path fill="#fcfcfc" d="M500 0h100v100H500z"/><path fill="#f6f6f6" d="M600 0h100v100H600z"/><path fill="#fafafa" d="M700 0h100v100H700z"/><path fill="#eee" d="M0 100h100v100H0z"/><path fill="#adadad" d="M100 100h100v100H100z"/><path fill="#e2e2e2" d="M200 100h100v100H200z"/><path fill="silver" d="M300 100h100v100H300z"/><path fill="#b8b8b8" d="M400 100h100v100H400z"/><path fill="#c5c5c5" d="M500 100h100v100H500z"/><path fill="#b1b1b1" d="M600 100h100v100H600z"/><path fill="#c6c6c6" d="M700 100h100v100H700z"/><path fill="#dfdfdf" d="M0 200h100v100H0z"/><path fill="#a7a7a7" d="M100 200h100v100H100z"/><path fill="#c9c9c9" d="M200 200h100v100H200z"/><path fill="#cacaca" d="M300 200h100v100H300z"/><path fill="#bbb" d="M400 200h100v100H400z"/><path fill="#a9a9a9" d="M500 200h100v100H500z"/><path fill="#aaa" d="M600 200h100v100H600z"/><path fill="#bcbcbc" d="M700 200h100v100H700z"/><path fill="#c6c6c6" d="M0 300h100v100H0z"/><path fill="#b9b9b9" d="M100 300h100v100H100z"/><path fill="#b6b6b6" d="M200 300h100v100H200z"/><path fill="#afafaf" d="M300 300h100v100H300z"/><path fill="#acacac" d="M400 300h100v100H400z"/><path fill="#9b9b9b" d="M500 300h100v100H500z"/><path fill="#a3a3a3" d="M600 300h100v100H600z"/><path fill="silver" d="M700 300h100v100H700z"/><path fill="#c4c4c4" d="M0 400h100v100H0z"/><path fill="#bfbfbf" d="M100 400h100v100H100z"/><path fill="#d4d4d4" d="M200 400h100v100H200z"/><path fill="#c6c6c6" d="M300 400h100v100H300z"/><path fill="#c1c1c1" d="M400 400h100v100H400z"/><path fill="#b8b8b8" d="M500 400h100v100H500z"/><path fill="#adadad" d="M600 400h100v100H600z"/><path fill="#d5d5d5" d="M700 400h100v100H700z"/><path fill="#f6f6f6" d="M0 500h100v100H0zm100 0h100v100H100z"/><path fill="#f5f5f5" d="M200 500h100v100H200z"/><path fill="#f3f3f3" d="M300 500h100v100H300z"/><path fill="#f4f4f4" d="M400 500h100v100H400z"/><path fill="#fbfbfb" d="M500 500h100v100H500z"/><path fill="#f5f5f5" d="M600 500h100v100H600z"/><path fill="#efefef" d="M700 500h100v100H700z"/></svg>