<svg xmlns="http://www.w3.org/2000/svg" viewBox="0 0 800 400"><defs/><path fill="#586c8f" d="M0 0h100v100H0z"/><path fill="#516494" d="M100 0h100v100H100z"/><path fill="#6b756a" d="M200 0h100v100H200z"/><path fill="#5c7083" d="M300 0h100v100H300z"/><path fill="#5175d0" d="M400 0h100v100H400z"/><path fill="#5471a2" d="M500 0h100v100H500z"/><path fill="#68758b" d="M600 0h100v100H600z"/><path fill="#636dac" d="M700 0h100v100H700z"/><path fill="#526dba" d="M0 100h100v100H0z"/><path fill="#5b6ba3" d="M100 100h100v100H100z"/><path fill="#5c668e" d="M200 100h100v100H200z"/><path fill="#4d6ac5" d="M300 100h100v100H300z"/><path fill="#7e8ec5" d="M400 100h100v100H400z"/><path fill="#7585be" d="M500 100h100v100H500z"/><path fill="#717db8" d="M600 100h100v100H600z"/><path fill="#6c709e" d="M700 100h100v100H700z"/><path fill="#5d76ce" d="M0 200h100v100H0z"/><path fill="#5a67b9" d="M100 200h100v100H100z"/><path fill="#5d69b7" d="M200 200h100v100H200z"/><path fill="#788dd0" d="M300 200h100v100H300z"/><path fill="#a8978c" d="M400 200h100v100H400z"/><path fill="#606cae" d="M500 200h100v100H500z"/><path fill="#5f72bc" d="M600 200h100v100H600z"/><path fill="#7d778d" d="M700 200h100v100H700z"/><path fill="#4c63b6" d="M0 300h100v100H0z"/><path fill="#4d5fb3" d="M100 300h100v100H100z"/><path fill="#766683" d="M200 300h100v100H200z"/><path fill="#856470" d="M300 300h100v100H300z"/><path fill="#714748" d="M400 300h100v100H400z"/><path fill="#635c89" d="M500 300h100v100H500z"/><path fill="#66628f" d="M600 300h100v100H600z"/><path fill="#795757" d="M700 300h100v100H700z"/></svg>