<svg xmlns="http://www.w3.org/2000/svg" viewBox="0 0 800 500"><defs/><path fill="#b57239" d="M0 0h100v100H0z"/><path fill="#c87833" d="M100 0h100v100H100z"/><path fill="#a76f3f" d="M200 0h100v100H200z"/><path fill="#ca7a27" d="M300 0h100v100H300z"/><path fill="#cb7e2e" d="M400 0h100v100H400z"/><path fill="#d8852d" d="M500 0h100v100H500z"/><path fill="#a87141" d="M600 0h100v100H600z"/><path fill="#ed8f2f" d="M700 0h100v100H700z"/><path fill="#b6832d" d="M0 100h100v100H0z"/><path fill="#a2763c" d="M100 100h100v100H100z"/><path fill="#3f4772" d="M200 100h100v100H200z"/><path fill="#7e5e3b" d="M300 100h100v100H300z"/><path fill="#88583d" d="M400 100h100v100H400z"/><path fill="#596833" d="M500 100h100v100H500z"/><path fill="#2f437a" d="M600 100h100v100H600z"/><path fill="#b08059" d="M700 100h100v100H700z"/><path fill="#ac7932" d="M0 200h100v100H0z"/><path fill="#a68d76" d="M100 200h100v100H100z"/><path fill="#ac775c" d="M200 200h100v100H200z"/><path fill="#a77a48" d="M300 200h100v100H300z"/><path fill="#65443c" d="M400 200h100v100H400z"/><path fill="#455c32" d="M500 200h100v100H500z"/><path fill="#937a53" d="M600 200h100v100H600z"/><path fill="#8c6b4c" d="M700 200h100v100H700z"/><path fill="#526f3e" d="M0 300h100v100H0z"/><path fill="#82885f" d="M100 300h100v100H100z"/><path fill="#b27260" d="M200 300h100v100H200z"/><path fill="#977868" d="M300 300h100v100H300z"/><path fill="#815d46" d="M400 300h100v100H400z"/><path fill="#5d3743" d="M500 300h100v100H500z"/><path fill="#cd6a37" d="M600 300h100v100H600z"/><path fill="#986854" d="M700 300h100v100H700z"/><path fill="#2a3843" d="M0 400h100v100H0z"/><path fill="#644a2e" d="M100 400h100v100H100z"/><path fill="#614153" d="M200 400h100v100H200z"/><path fill="#3b3f5e" d="M300 400h100v100H300z"/><path fill="#905931" d="M400 400h100v100H400z"/><path fill="#62432f" d="M500 400h100v100H500z"/><path fill="#755644" d="M600 400h100v100H600z"/><path fill="#663c39" d="M700 400h100v100H700z"/></svg>