<svg xmlns="http://www.w3.org/2000/svg" viewBox="0 0 800 800"><defs/><path fill="#fff" d="M0 0h100v100H0zm100 0h100v100H100zm100 0h100v100H200zm100 0h100v100H300zm100 0h100v100H400zm100 0h100v100H500zm100 0h100v100H600z"/><path fill="#fefefe" d="M700 0h100v100H700z"/><path fill="#fbfbf9" d="M0 100h100v100H0z"/><path fill="#c3b59d" d="M100 100h100v100H100z"/><path fill="#b0a187" d="M200 100h100v100H200z"/><path fill="#a8997b" d="M300 100h100v100H300z"/><path fill="#b5a68a" d="M400 100h100v100H400z"/><path fill="#ab9b7c" d="M500 100h100v100H500z"/><path fill="#c2b7a0" d="M600 100h100v100H600z"/><path fill="#fff" d="M700 100h100v100H700z"/><path fill="#faf9f6" d="M0 200h100v100H0z"/><path fill="#997e4b" d="M100 200h100v100H100z"/><path fill="#765c29" d="M200 200h100v100H200z"/><path fill="#806534" d="M300 200h100v100H300z"/><path fill="#796132" d="M400 200h100v100H400z"/><path fill="#7f6330" d="M500 200h100v100H500z"/><path fill="#977950" d="M600 200h100v100H600z"/><path fill="#fcfaf9" d="M700 200h100v100H700z"/><path fill="#fcfbf9" d="M0 300h100v100H0z"/><path fill="#a0895f" d="M100 300h100v100H100z"/><path fill="#836a3b" d="M200 300h100v100H200z"/><path fill="#999079" d="M300 300h100v100H300z"/><path fill="#8c7c5b" d="M400 300h100v100H400z"/><path fill="#806b3d" d="M500 300h100v100H500z"/><path fill="#62743c" d="M600 300h100v100H600z"/><path fill="#b5b9aa" d="M700 300h100v100H700z"/><path fill="#fdfcfa" d="M0 400h100v100H0z"/><path fill="#98835a" d="M100 400h100v100H100z"/><path fill="#8a7d61" d="M200 400h100v100H200z"/><path fill="#b7a6a5" d="M300 400h100v100H300z"/><path fill="#a99283" d="M400 400h100v100H400z"/><path fill="#88956e" d="M500 400h100v100H500z"/><path fill="#336423" d="M600 400h100v100H600z"/><path fill="#bcc1b5" d="M700 400h100v100H700z"/><path fill="#fdfcf9" d="M0 500h100v100H0z"/><path fill="#9e8962" d="M100 500h100v100H100z"/><path fill="#856f44" d="M200 500h100v100H200z"/><path fill="#8b7249" d="M300 500h100v100H300z"/><path fill="#886e42" d="M400 500h100v100H400z"/><path fill="#867047" d="M500 500h100v100H500z"/><path fill="#91754e" d="M600 500h100v100H600z"/><path fill="#f1ebe8" d="M700 500h100v100H700z"/><path fill="#fcfcfc" d="M0 600h100v100H0z"/><path fill="#a48d62" d="M100 600h100v100H100z"/><path fill="#816737" d="M200 600h100v100H200z"/><path fill="#886f3e" d="M300 600h100v100H300z"/><path fill="#816b40" d="M400 600h100v100H400z"/><path fill="#866d3f" d="M500 600h100v100H500z"/><path fill="#7c6432" d="M600 600h100v100H600z"/><path fill="#cac0ae" d="M700 600h100v100H700z"/><path fill="#fff" d="M0 700h100v100H0z"/><path fill="#ebeae6" d="M100 700h100v100H100z"/><path fill="#e3e0da" d="M200 700h100v100H200z"/><path fill="#ece8e0" d="M300 700h100v100H300z"/><path fill="#e6e3de" d="M400 700h100v100H400z"/><path fill="#e3e0da" d="M500 700h100v100H500z"/><path fill="#dbd7ce" d="M600 700h100v100H600z"/><path fill="#eae7e3" d="M700 700h100v100H700z"/></svg>