<svg xmlns="http://www.w3.org/2000/svg" viewBox="0 0 800 800"><defs/><path fill="#fff" d="M0 0h100v100H0zm100 0h100v100H100zm100 0h100v100H200zm100 0h100v100H300zm100 0h100v100H400zm100 0h100v100H500zm100 0h100v100H600zm100 0h100v100H700z"/><path fill="#efe7e5" d="M0 100h100v100H0z"/><path fill="#d7cdcd" d="M100 100h100v100H100z"/><path fill="#f0e0db" d="M200 100h100v100H200z"/><path fill="#f8e0d5" d="M300 100h100v100H300z"/><path fill="#eedfdd" d="M400 100h100v100H400z"/><path fill="#e0d0d0" d="M500 100h100v100H500z"/><path fill="#f2e3e0" d="M600 100h100v100H600z"/><path fill="#f0e7e6" d="M700 100h100v100H700z"/><path fill="#bc9894" d="M0 200h100v100H0z"/><path fill="#77443e" d="M100 200h100v100H100z"/><path fill="#ac6f75" d="M200 200h100v100H200z"/><path fill="#7c547a" d="M300 200h100v100H300z"/><path fill="#a56a60" d="M400 200h100v100H400z"/><path fill="#8f5f55" d="M500 200h100v100H500z"/><path fill="#cc958a" d="M600 200h100v100H600z"/><path fill="#cc958d" d="M700 200h100v100H700z"/><path fill="#a58987" d="M0 300h100v100H0z"/><path fill="#7e5651" d="M100 300h100v100H100z"/><path fill="#e7cdcb" d="M200 300h100v100H200z"/><path fill="#876e97" d="M300 300h100v100H300z"/><path fill="#94665c" d="M400 300h100v100H400z"/><path fill="#be9588" d="M500 300h100v100H500z"/><path fill="#c4a8ab" d="M600 300h100v100H600z"/><path fill="#c7a6a2" d="M700 300h100v100H700z"/><path fill="#8a6664" d="M0 400h100v100H0z"/><path fill="#845a5a" d="M100 400h100v100H100z"/><path fill="#c7a09c" d="M200 400h100v100H200z"/><path fill="#8d5d5d" d="M300 400h100v100H300z"/><path fill="#7d4c4b" d="M400 400h100v100H400z"/><path fill="#7b5768" d="M500 400h100v100H500z"/><path fill="#a2606e" d="M600 400h100v100H600z"/><path fill="#d0756f" d="M700 400h100v100H700z"/><path fill="#957372" d="M0 500h100v100H0z"/><path fill="#936565" d="M100 500h100v100H100z"/><path fill="#955f60" d="M200 500h100v100H200z"/><path fill="#9b6565" d="M300 500h100v100H300z"/><path fill="#a0696a" d="M400 500h100v100H400z"/><path fill="#996d6e" d="M500 500h100v100H500z"/><path fill="#be6259" d="M600 500h100v100H600z"/><path fill="#ee6352" d="M700 500h100v100H700z"/><path fill="#fdfafa" d="M0 600h100v100H0z"/><path fill="#fcfafa" d="M100 600h100v100H100z"/><path fill="#fdfcfd" d="M200 600h100v100H200z"/><path fill="#fbfbfb" d="M300 600h100v100H300z"/><path fill="#fcfbfb" d="M400 600h100v100H400z"/><path fill="#fefdfd" d="M500 600h100v100H500z"/><path fill="#fafefe" d="M600 600h100v100H600zm100 0h100v100H700z"/><path fill="#fff" d="M0 700h100v100H0zm100 0h100v100H100zm100 0h100v100H200zm100 0h100v100H300zm100 0h100v100H400zm100 0h100v100H500zm100 0h100v100H600z"/><path fill="#fffefe" d="M700 700h100v100H700z"/></svg>