<svg xmlns="http://www.w3.org/2000/svg" viewBox="0 0 800 1200"><defs/><path fill="#6d5553" d="M0 0h100v100H0z"/><path fill="#84879d" d="M100 0h100v100H100z"/><path fill="#7893b8" d="M200 0h100v100H200z"/><path fill="#7a7591" d="M300 0h100v100H300z"/><path fill="#706177" d="M400 0h100v100H400z"/><path fill="#587b9b" d="M500 0h100v100H500z"/><path fill="#5f7da0" d="M600 0h100v100H600z"/><path fill="#6d8bb6" d="M700 0h100v100H700z"/><path fill="#e19d99" d="M0 100h100v100H0z"/><path fill="#ac97a8" d="M100 100h100v100H100z"/><path fill="#83454b" d="M200 100h100v100H200z"/><path fill="#96787a" d="M300 100h100v100H300z"/><path fill="#b28482" d="M400 100h100v100H400z"/><path fill="#9c6e6e" d="M500 100h100v100H500z"/><path fill="#aa5f5c" d="M600 100h100v100H600z"/><path fill="#b16e72" d="M700 100h100v100H700z"/><path fill="#756f69" d="M0 200h100v100H0z"/><path fill="#88a0bb" d="M100 200h100v100H100z"/><path fill="#8b6e89" d="M200 200h100v100H200z"/><path fill="#c39fa6" d="M300 200h100v100H300z"/><path fill="#c0a0a4" d="M400 200h100v100H400z"/><path fill="#a88e96" d="M500 200h100v100H500z"/><path fill="#afa8b4" d="M600 200h100v100H600z"/><path fill="#7e99b4" d="M700 200h100v100H700z"/><path fill="#74798d" d="M0 300h100v100H0z"/><path fill="#8097ba" d="M100 300h100v100H100z"/><path fill="#778ca4" d="M200 300h100v100H200z"/><path fill="#7d777a" d="M300 300h100v100H300z"/><path fill="#6785a7" d="M400 300h100v100H400z"/><path fill="#608cb8" d="M500 300h100v100H500z"/><path fill="#5f91b9" d="M600 300h100v100H600z"/><path fill="#6899c2" d="M700 300h100v100H700z"/><path fill="#a7add2" d="M0 400h100v100H0z"/><path fill="#849bc0" d="M100 400h100v100H100z"/><path fill="#957977" d="M200 400h100v100H200z"/><path fill="#885842" d="M300 400h100v100H300z"/><path fill="#6b849d" d="M400 400h100v100H400z"/><path fill="#889da2" d="M500 400h100v100H500z"/><path fill="#77a1c6" d="M600 400h100v100H600z"/><path fill="#749abe" d="M700 400h100v100H700z"/><path fill="#a2a4c5" d="M0 500h100v100H0z"/><path fill="#8795b5" d="M100 500h100v100H100z"/><path fill="#8d8b9d" d="M200 500h100v100H200z"/><path fill="#797a8b" d="M300 500h100v100H300z"/><path fill="#88806e" d="M400 500h100v100H400z"/><path fill="#91876a" d="M500 500h100v100H500z"/><path fill="#7087a6" d="M600 500h100v100H600z"/><path fill="#7d96b7" d="M700 500h100v100H700z"/><path fill="#7b768f" d="M0 600h100v100H0z"/><path fill="#6e667c" d="M100 600h100v100H100z"/><path fill="#7b7f9e" d="M200 600h100v100H200z"/><path fill="#8e93a2" d="M300 600h100v100H300z"/><path fill="#9c8a72" d="M400 600h100v100H400z"/><path fill="#7b828e" d="M500 600h100v100H500z"/><path fill="#7f899b" d="M600 600h100v100H600z"/><path fill="#8894b0" d="M700 600h100v100H700z"/><path fill="#543d54" d="M0 700h100v100H0z"/><path fill="#755a6d" d="M100 700h100v100H100z"/><path fill="#876c7e" d="M200 700h100v100H200z"/><path fill="#8b8197" d="M300 700h100v100H300z"/><path fill="#888fac" d="M400 700h100v100H400z"/><path fill="#7f8391" d="M500 700h100v100H500z"/><path fill="#8b95b2" d="M600 700h100v100H600z"/><path fill="#9fa9cd" d="M700 700h100v100H700z"/><path fill="#664a60" d="M0 800h100v100H0z"/><path fill="#826678" d="M100 800h100v100H100z"/><path fill="#65545c" d="M200 800h100v100H200z"/><path fill="#947a8d" d="M300 800h100v100H300z"/><path fill="#8c88a1" d="M400 800h100v100H400z"/><path fill="#bbc0c8" d="M500 800h100v100H500z"/><path fill="#8b93ab" d="M600 800h100v100H600z"/><path fill="#b1b2d7" d="M700 800h100v100H700z"/><path fill="#694f67" d="M0 900h100v100H0z"/><path fill="#806778" d="M100 900h100v100H100z"/><path fill="#776474" d="M200 900h100v100H200z"/><path fill="#886e81" d="M300 900h100v100H300z"/><path fill="#a59fad" d="M400 900h100v100H400z"/><path fill="#9aa1b0" d="M500 900h100v100H500z"/><path fill="#a0848d" d="M600 900h100v100H600z"/><path fill="#e6a2a4" d="M700 900h100v100H700z"/><path fill="#4b3242" d="M0 1000h100v100H0z"/><path fill="#654e64" d="M100 1000h100v100H100z"/><path fill="#6d556e" d="M200 1000h100v100H200z"/><path fill="#8c7c8e" d="M300 1000h100v100H300z"/><path fill="#a5a2b9" d="M400 1000h100v100H400z"/><path fill="#b597a9" d="M500 1000h100v100H500z"/><path fill="#df8a7e" d="M600 1000h100v100H600z"/><path fill="#f59589" d="M700 1000h100v100H700z"/><path fill="#6b5d70" d="M0 1100h100v100H0z"/><path fill="#73617a" d="M100 1100h100v100H100z"/><path fill="#786d82" d="M200 1100h100v100H200z"/><path fill="#948da1" d="M300 1100h100v100H300z"/><path fill="#b3a6c2" d="M400 1100h100v100H400z"/><path fill="#b8a1b6" d="M500 1100h100v100H500z"/><path fill="#b7959c" d="M600 1100h100v100H600z"/><path fill="#cfa8b8" d="M700 1100h100v100H700z"/></svg>