<svg xmlns="http://www.w3.org/2000/svg" viewBox="0 0 800 500"><defs/><path fill="#c8cdd5" d="M0 0h100v100H0z"/><path fill="#c3c9d1" d="M100 0h100v100H100z"/><path fill="#c2c8d0" d="M200 0h100v100H200z"/><path fill="#c4cad2" d="M300 0h100v100H300z"/><path fill="#c3cad1" d="M400 0h100v100H400z"/><path fill="#c5cbd3" d="M500 0h100v100H500z"/><path fill="#c3c9d1" d="M600 0h100v100H600z"/><path fill="#c6ccd4" d="M700 0h100v100H700z"/><path fill="#babec6" d="M0 100h100v100H0z"/><path fill="#b6bac0" d="M100 100h100v100H100z"/><path fill="#bcc1c8" d="M200 100h100v100H200z"/><path fill="#c2c8cf" d="M300 100h100v100H300z"/><path fill="#bcc0c7" d="M400 100h100v100H400z"/><path fill="#bdc1c8" d="M500 100h100v100H500z"/><path fill="#babfc5" d="M600 100h100v100H600z"/><path fill="#c0c5cc" d="M700 100h100v100H700z"/><path fill="#bec3c9" d="M0 200h100v100H0z"/><path fill="#b3b8bf" d="M100 200h100v100H100z"/><path fill="#bbc0c6" d="M200 200h100v100H200z"/><path fill="#c5cad1" d="M300 200h100v100H300z"/><path fill="#c1c6ce" d="M400 200h100v100H400z"/><path fill="#c2c7ce" d="M500 200h100v100H500z"/><path fill="#bcc1c8" d="M600 200h100v100H600z"/><path fill="#b3b8be" d="M700 200h100v100H700z"/><path fill="#bfc4cb" d="M0 300h100v100H0z"/><path fill="#b5babf" d="M100 300h100v100H100z"/><path fill="#b5bac0" d="M200 300h100v100H200z"/><path fill="#bbc0c6" d="M300 300h100v100H300z"/><path fill="#bcc1c7" d="M400 300h100v100H400z"/><path fill="#acb2b8" d="M500 300h100v100H500z"/><path fill="#adb3b9" d="M600 300h100v100H600z"/><path fill="#b6bbc1" d="M700 300h100v100H700z"/><path fill="#c1c6cd" d="M0 400h100v100H0z"/><path fill="#c3c7cf" d="M100 400h100v100H100z"/><path fill="#c3c8cf" d="M200 400h100v100H200z"/><path fill="#c5c9d1" d="M300 400h100v100H300z"/><path fill="#c0c5cc" d="M400 400h100v100H400z"/><path fill="#b4b9c0" d="M500 400h100v100H500z"/><path fill="#bbbfc7" d="M600 400h100v100H600z"/><path fill="#c1c5cd" d="M700 400h100v100H700z"/></svg>