<svg xmlns="http://www.w3.org/2000/svg" viewBox="0 0 800 400"><defs/><path fill="#cacab0" d="M0 0h100v100H0z"/><path fill="#a6a7a6" d="M100 0h100v100H100z"/><path fill="#5a5b39" d="M200 0h100v100H200z"/><path fill="#545350" d="M300 0h100v100H300z"/><path fill="#414263" d="M400 0h100v100H400z"/><path fill="#363775" d="M500 0h100v100H500z"/><path fill="#45466f" d="M600 0h100v100H600z"/><path fill="#2c2d37" d="M700 0h100v100H700z"/><path fill="#cac89a" d="M0 100h100v100H0z"/><path fill="#9f9798" d="M100 100h100v100H100z"/><path fill="#454220" d="M200 100h100v100H200z"/><path fill="#72775a" d="M300 100h100v100H300z"/><path fill="#5f5b52" d="M400 100h100v100H400z"/><path fill="#422e49" d="M500 100h100v100H500z"/><path fill="#374468" d="M600 100h100v100H600z"/><path fill="#424752" d="M700 100h100v100H700z"/><path fill="#c6d0c9" d="M0 200h100v100H0z"/><path fill="#b18b8d" d="M100 200h100v100H100z"/><path fill="#972c23" d="M200 200h100v100H200z"/><path fill="#903732" d="M300 200h100v100H300z"/><path fill="#923d36" d="M400 200h100v100H400z"/><path fill="#8a373f" d="M500 200h100v100H500z"/><path fill="#6f3b50" d="M600 200h100v100H600z"/><path fill="#5e4c62" d="M700 200h100v100H700z"/><path fill="#c4b3b5" d="M0 300h100v100H0z"/><path fill="#d05e64" d="M100 300h100v100H100z"/><path fill="#ce2b2f" d="M200 300h100v100H200z"/><path fill="#c11f1f" d="M300 300h100v100H300z"/><path fill="#a93d3f" d="M400 300h100v100H400z"/><path fill="#a93535" d="M500 300h100v100H500z"/><path fill="#d31e18" d="M600 300h100v100H600z"/><path fill="#d0454d" d="M700 300h100v100H700z"/></svg>