<svg xmlns="http://www.w3.org/2000/svg" viewBox="0 0 800 500"><defs/><path fill="#efe4c9" d="M0 0h100v100H0z"/><path fill="#d5ccc4" d="M100 0h100v100H100z"/><path fill="#c7c6cf" d="M200 0h100v100H200z"/><path fill="#cbc8ce" d="M300 0h100v100H300z"/><path fill="#c9c8d4" d="M400 0h100v100H400z"/><path fill="#cccad0" d="M500 0h100v100H500z"/><path fill="#d5d2d5" d="M600 0h100v100H600z"/><path fill="#e5dfd6" d="M700 0h100v100H700z"/><path fill="#cea43c" d="M0 100h100v100H0z"/><path fill="#604737" d="M100 100h100v100H100z"/><path fill="#282b57" d="M200 100h100v100H200z"/><path fill="#302e44" d="M300 100h100v100H300z"/><path fill="#504d6d" d="M400 100h100v100H400z"/><path fill="#2d3053" d="M500 100h100v100H500z"/><path fill="#3b3b53" d="M600 100h100v100H600z"/><path fill="#b69759" d="M700 100h100v100H700z"/><path fill="#cba34a" d="M0 200h100v100H0z"/><path fill="#584649" d="M100 200h100v100H100z"/><path fill="#42426b" d="M200 200h100v100H200z"/><path fill="#605a66" d="M300 200h100v100H300z"/><path fill="#4e3f50" d="M400 200h100v100H400z"/><path fill="#887a65" d="M500 200h100v100H500z"/><path fill="#907d54" d="M600 200h100v100H600z"/><path fill="#bb9235" d="M700 200h100v100H700z"/><path fill="#b7924c" d="M0 300h100v100H0z"/><path fill="#987658" d="M100 300h100v100H100z"/><path fill="#a37d5a" d="M200 300h100v100H200z"/><path fill="#b28f6c" d="M300 300h100v100H300z"/><path fill="#ae8355" d="M400 300h100v100H400z"/><path fill="#b6813f" d="M500 300h100v100H500z"/><path fill="#90742f" d="M600 300h100v100H600z"/><path fill="#827d51" d="M700 300h100v100H700z"/><path fill="#d1bea6" d="M0 400h100v100H0z"/><path fill="#d7bda2" d="M100 400h100v100H100z"/><path fill="#dfc19d" d="M200 400h100v100H200z"/><path fill="#dfc1a0" d="M300 400h100v100H300z"/><path fill="#e4c8a8" d="M400 400h100v100H400z"/><path fill="#d5b899" d="M500 400h100v100H500z"/><path fill="#b5a88f" d="M600 400h100v100H600z"/><path fill="#c1b8ad" d="M700 400h100v100H700z"/></svg>