<svg xmlns="http://www.w3.org/2000/svg" viewBox="0 0 800 400"><defs/><path fill="#e5e4ec" d="M0 0h100v100H0z"/><path fill="#7aced3" d="M100 0h100v100H100z"/><path fill="#f49185" d="M200 0h100v100H200z"/><path fill="#ffd6d9" d="M300 0h100v100H300z"/><path fill="#cd9ad3" d="M400 0h100v100H400z"/><path fill="#9e67e4" d="M500 0h100v100H500z"/><path fill="#d0a4d3" d="M600 0h100v100H600z"/><path fill="#fed2cc" d="M700 0h100v100H700z"/><path fill="#c7dae0" d="M0 100h100v100H0z"/><path fill="#87dade" d="M100 100h100v100H100z"/><path fill="#edbbbb" d="M200 100h100v100H200z"/><path fill="#e7c1d9" d="M300 100h100v100H300z"/><path fill="#d452dc" d="M400 100h100v100H400z"/><path fill="#c246c7" d="M500 100h100v100H500z"/><path fill="#dc75dd" d="M600 100h100v100H600z"/><path fill="#f0c1c9" d="M700 100h100v100H700z"/><path fill="#9de3ed" d="M0 200h100v100H0z"/><path fill="#80bbd2" d="M100 200h100v100H100z"/><path fill="#e7b7b1" d="M200 200h100v100H200z"/><path fill="#c9a4c5" d="M300 200h100v100H300z"/><path fill="#cf80d4" d="M400 200h100v100H400z"/><path fill="#d68fbd" d="M500 200h100v100H500z"/><path fill="#b768c2" d="M600 200h100v100H600z"/><path fill="#b3a0c9" d="M700 200h100v100H700z"/><path fill="#93e4f0" d="M0 300h100v100H0z"/><path fill="#a8c3d1" d="M100 300h100v100H100z"/><path fill="#e0b3a8" d="M200 300h100v100H200z"/><path fill="#ba96c4" d="M300 300h100v100H300z"/><path fill="#8e63cc" d="M400 300h100v100H400z"/><path fill="#8386a4" d="M500 300h100v100H500z"/><path fill="#936ad0" d="M600 300h100v100H600z"/><path fill="#b7a2d6" d="M700 300h100v100H700z"/></svg>