<svg xmlns="http://www.w3.org/2000/svg" viewBox="0 0 800 600"><defs/><path fill="#dfe0e5" d="M0 0h100v100H0z"/><path fill="#d6d7e3" d="M100 0h100v100H100z"/><path fill="#dadbe0" d="M200 0h100v100H200z"/><path fill="#d9d8dc" d="M300 0h100v100H300z"/><path fill="#dbd8da" d="M400 0h100v100H400z"/><path fill="#e2e0e7" d="M500 0h100v100H500z"/><path fill="#e7e9f7" d="M600 0h100v100H600z"/><path fill="#dddde9" d="M700 0h100v100H700z"/><path fill="#4d495a" d="M0 100h100v100H0z"/><path fill="#2b2546" d="M100 100h100v100H100z"/><path fill="#362d39" d="M200 100h100v100H200z"/><path fill="#312748" d="M300 100h100v100H300z"/><path fill="#352335" d="M400 100h100v100H400z"/><path fill="#382a59" d="M500 100h100v100H500z"/><path fill="#6c6db5" d="M600 100h100v100H600z"/><path fill="#7070a2" d="M700 100h100v100H700z"/><path fill="#50485f" d="M0 200h100v100H0z"/><path fill="#4d3641" d="M100 200h100v100H100z"/><path fill="#5a3f3d" d="M200 200h100v100H200z"/><path fill="#40477c" d="M300 200h100v100H300z"/><path fill="#312d5a" d="M400 200h100v100H400z"/><path fill="#544684" d="M500 200h100v100H500z"/><path fill="#b6a297" d="M600 200h100v100H600z"/><path fill="#bfb0a5" d="M700 200h100v100H700z"/><path fill="#685e6b" d="M0 300h100v100H0z"/><path fill="#735e4f" d="M100 300h100v100H100z"/><path fill="#ac9e5a" d="M200 300h100v100H200z"/><path fill="#5a7377" d="M300 300h100v100H300z"/><path fill="#666693" d="M400 300h100v100H400z"/><path fill="#6e5c9a" d="M500 300h100v100H500z"/><path fill="#b8ac79" d="M600 300h100v100H600z"/><path fill="#998d7e" d="M700 300h100v100H700z"/><path fill="#534e69" d="M0 400h100v100H0z"/><path fill="#546a4e" d="M100 400h100v100H100z"/><path fill="#8ba94f" d="M200 400h100v100H200z"/><path fill="#719659" d="M300 400h100v100H300z"/><path fill="#717780" d="M400 400h100v100H400z"/><path fill="#27245d" d="M500 400h100v100H500z"/><path fill="#334b49" d="M600 400h100v100H600z"/><path fill="#31364d" d="M700 400h100v100H700z"/><path fill="#a3a6bd" d="M0 500h100v100H0z"/><path fill="#98a7aa" d="M100 500h100v100H100z"/><path fill="#9fb7ae" d="M200 500h100v100H200z"/><path fill="#afbdb5" d="M300 500h100v100H300z"/><path fill="#a1aaa9" d="M400 500h100v100H400z"/><path fill="#8d94a7" d="M500 500h100v100H500z"/><path fill="#8488a9" d="M600 500h100v100H600z"/><path fill="#87879e" d="M700 500h100v100H700z"/></svg>