<svg xmlns="http://www.w3.org/2000/svg" viewBox="0 0 800 400"><defs/><path fill="#245184" d="M0 0h100v100H0z"/><path fill="#9e946d" d="M100 0h100v100H100z"/><path fill="#377faa" d="M200 0h100v100H200z"/><path fill="#206dc9" d="M300 0h100v100H300z"/><path fill="#2479be" d="M400 0h100v100H400z"/><path fill="#2a7cad" d="M500 0h100v100H500z"/><path fill="#3d62b3" d="M600 0h100v100H600z"/><path fill="#195b96" d="M700 0h100v100H700z"/><path fill="#405b8f" d="M0 100h100v100H0z"/><path fill="#a66991" d="M100 100h100v100H100z"/><path fill="#776394" d="M200 100h100v100H200z"/><path fill="#1c77c3" d="M300 100h100v100H300z"/><path fill="#1c6bb4" d="M400 100h100v100H400z"/><path fill="#1f7189" d="M500 100h100v100H500z"/><path fill="#376164" d="M600 100h100v100H600z"/><path fill="#102247" d="M700 100h100v100H700z"/><path fill="#57659b" d="M0 200h100v100H0z"/><path fill="#7e7393" d="M100 200h100v100H100z"/><path fill="#bf8a20" d="M200 200h100v100H200z"/><path fill="#a1614e" d="M300 200h100v100H300z"/><path fill="#7b4594" d="M400 200h100v100H400z"/><path fill="#925d62" d="M500 200h100v100H500z"/><path fill="#9c5f5c" d="M600 200h100v100H600z"/><path fill="#435058" d="M700 200h100v100H700z"/><path fill="#6874a2" d="M0 300h100v100H0z"/><path fill="#668979" d="M100 300h100v100H100z"/><path fill="#919457" d="M200 300h100v100H200z"/><path fill="#966471" d="M300 300h100v100H300z"/><path fill="#2d3da9" d="M400 300h100v100H400z"/><path fill="#524b6a" d="M500 300h100v100H500z"/><path fill="#724a5d" d="M600 300h100v100H600z"/><path fill="#796994" d="M700 300h100v100H700z"/></svg>