<svg xmlns="http://www.w3.org/2000/svg" viewBox="0 0 800 600"><defs/><path fill="#a26713" d="M0 0h100v100H0z"/><path fill="#58452f" d="M100 0h100v100H100z"/><path fill="#40312a" d="M200 0h100v100H200z"/><path fill="#21150f" d="M300 0h100v100H300z"/><path fill="#513026" d="M400 0h100v100H400z"/><path fill="#563527" d="M500 0h100v100H500z"/><path fill="#583410" d="M600 0h100v100H600z"/><path fill="#beb09b" d="M700 0h100v100H700z"/><path fill="#b77924" d="M0 100h100v100H0z"/><path fill="#959279" d="M100 100h100v100H100z"/><path fill="#776872" d="M200 100h100v100H200z"/><path fill="#50443a" d="M300 100h100v100H300z"/><path fill="#736265" d="M400 100h100v100H400z"/><path fill="#845958" d="M500 100h100v100H500z"/><path fill="#604025" d="M600 100h100v100H600z"/><path fill="#b6a998" d="M700 100h100v100H700z"/><path fill="#9b6e2e" d="M0 200h100v100H0z"/><path fill="#a5a68f" d="M100 200h100v100H100z"/><path fill="#acb8c5" d="M200 200h100v100H200z"/><path fill="#e3dbdc" d="M300 200h100v100H300z"/><path fill="#b1a0af" d="M400 200h100v100H400z"/><path fill="#a38281" d="M500 200h100v100H500z"/><path fill="#625656" d="M600 200h100v100H600z"/><path fill="#a39c92" d="M700 200h100v100H700z"/><path fill="#8b6e42" d="M0 300h100v100H0z"/><path fill="#868876" d="M100 300h100v100H100z"/><path fill="#96968f" d="M200 300h100v100H200z"/><path fill="#948373" d="M300 300h100v100H300z"/><path fill="#5a4736" d="M400 300h100v100H400z"/><path fill="#425439" d="M500 300h100v100H500z"/><path fill="#794f19" d="M600 300h100v100H600z"/><path fill="#bab8ad" d="M700 300h100v100H700z"/><path fill="#705736" d="M0 400h100v100H0z"/><path fill="#6b6e5f" d="M100 400h100v100H100z"/><path fill="#6f665a" d="M200 400h100v100H200z"/><path fill="#5d4f3a" d="M300 400h100v100H300z"/><path fill="#7a7d4b" d="M400 400h100v100H400z"/><path fill="#655530" d="M500 400h100v100H500z"/><path fill="#5e3906" d="M600 400h100v100H600z"/><path fill="#a89274" d="M700 400h100v100H700z"/><path fill="#56391e" d="M0 500h100v100H0z"/><path fill="#63624f" d="M100 500h100v100H100z"/><path fill="#665443" d="M200 500h100v100H200z"/><path fill="#7d4b28" d="M300 500h100v100H300z"/><path fill="#95653b" d="M400 500h100v100H400z"/><path fill="#b4763b" d="M500 500h100v100H500z"/><path fill="#744923" d="M600 500h100v100H600z"/><path fill="#ad8361" d="M700 500h100v100H700z"/></svg>