<svg xmlns="http://www.w3.org/2000/svg" viewBox="0 0 800 400"><defs/><path fill="#d6d8c9" d="M0 0h100v100H0z"/><path fill="#ddc7b1" d="M100 0h100v100H100z"/><path fill="#e4d2b6" d="M200 0h100v100H200z"/><path fill="#e9e6d1" d="M300 0h100v100H300z"/><path fill="#d9d6c9" d="M400 0h100v100H400z"/><path fill="#e9eeed" d="M500 0h100v100H500z"/><path fill="#d8d2c5" d="M600 0h100v100H600z"/><path fill="#cfc9b0" d="M700 0h100v100H700z"/><path fill="#d5cdc3" d="M0 100h100v100H0z"/><path fill="#dfc5a8" d="M100 100h100v100H100z"/><path fill="#dac8ac" d="M200 100h100v100H200z"/><path fill="#e9dcca" d="M300 100h100v100H300z"/><path fill="#bcc1a0" d="M400 100h100v100H400z"/><path fill="#d6e5d9" d="M500 100h100v100H500z"/><path fill="#b2b69a" d="M600 100h100v100H600z"/><path fill="#d5c6a8" d="M700 100h100v100H700z"/><path fill="#e2d8c9" d="M0 200h100v100H0z"/><path fill="#d0b08e" d="M100 200h100v100H100z"/><path fill="#b19c74" d="M200 200h100v100H200z"/><path fill="#d6c8b1" d="M300 200h100v100H300z"/><path fill="#9e9d78" d="M400 200h100v100H400z"/><path fill="#8d975d" d="M500 200h100v100H500z"/><path fill="#ada878" d="M600 200h100v100H600z"/><path fill="#c7c49e" d="M700 200h100v100H700z"/><path fill="#e9d8c0" d="M0 300h100v100H0z"/><path fill="#ac947c" d="M100 300h100v100H100z"/><path fill="#ad977e" d="M200 300h100v100H200z"/><path fill="#a1724d" d="M300 300h100v100H300z"/><path fill="#9e7157" d="M400 300h100v100H400z"/><path fill="#a89785" d="M500 300h100v100H500z"/><path fill="#957d65" d="M600 300h100v100H600z"/><path fill="#cbb083" d="M700 300h100v100H700z"/></svg>