<svg xmlns="http://www.w3.org/2000/svg" viewBox="0 0 800 400"><defs/><path fill="#404458" d="M0 0h100v100H0z"/><path fill="#5d546d" d="M100 0h100v100H100z"/><path fill="#606985" d="M200 0h100v100H200z"/><path fill="#657191" d="M300 0h100v100H300z"/><path fill="#8c9bb2" d="M400 0h100v100H400z"/><path fill="#9baac2" d="M500 0h100v100H500z"/><path fill="#8190a9" d="M600 0h100v100H600z"/><path fill="#494574" d="M700 0h100v100H700z"/><path fill="#4d4f65" d="M0 100h100v100H0z"/><path fill="#8b90a8" d="M100 100h100v100H100z"/><path fill="#97a8bd" d="M200 100h100v100H200z"/><path fill="#787c99" d="M300 100h100v100H300z"/><path fill="#757494" d="M400 100h100v100H400z"/><path fill="#9c9fbe" d="M500 100h100v100H500z"/><path fill="#728cb0" d="M600 100h100v100H600z"/><path fill="#433e6e" d="M700 100h100v100H700z"/><path fill="#5c5d74" d="M0 200h100v100H0z"/><path fill="#8590af" d="M100 200h100v100H100z"/><path fill="#9fa48a" d="M200 200h100v100H200z"/><path fill="#84867c" d="M300 200h100v100H300z"/><path fill="#9babcc" d="M400 200h100v100H400z"/><path fill="#9e9dc3" d="M500 200h100v100H500z"/><path fill="#7f89a3" d="M600 200h100v100H600z"/><path fill="#4a467a" d="M700 200h100v100H700z"/><path fill="#73778d" d="M0 300h100v100H0z"/><path fill="#717d91" d="M100 300h100v100H100z"/><path fill="#9cacb4" d="M200 300h100v100H200z"/><path fill="#acc0c1" d="M300 300h100v100H300z"/><path fill="#717e9d" d="M400 300h100v100H400z"/><path fill="#a18dbb" d="M500 300h100v100H500z"/><path fill="#ac9db3" d="M600 300h100v100H600z"/><path fill="#7981a9" d="M700 300h100v100H700z"/></svg>