<svg xmlns="http://www.w3.org/2000/svg" viewBox="0 0 800 300"><defs/><path fill="#161402" d="M0 0h100v100H0z"/><path fill="#655e07" d="M100 0h100v100H100z"/><path fill="#3a2f01" d="M200 0h100v100H200z"/><path fill="#aa8e04" d="M300 0h100v100H300z"/><path fill="#b49606" d="M400 0h100v100H400z"/><path fill="#cba601" d="M500 0h100v100H500z"/><path fill="#6c6304" d="M600 0h100v100H600z"/><path fill="#c0c2a9" d="M700 0h100v100H700z"/><path fill="#3f3a01" d="M0 100h100v100H0z"/><path fill="#696209" d="M100 100h100v100H100z"/><path fill="#7e7b72" d="M200 100h100v100H200z"/><path fill="#655e38" d="M300 100h100v100H300z"/><path fill="#392e02" d="M400 100h100v100H400z"/><path fill="#7b6f3d" d="M500 100h100v100H500z"/><path fill="#88875e" d="M600 100h100v100H600z"/><path fill="#b7b980" d="M700 100h100v100H700z"/><path fill="#4e4a00" d="M0 200h100v100H0z"/><path fill="#989563" d="M100 200h100v100H100z"/><path fill="#aeafb4" d="M200 200h100v100H200z"/><path fill="#404237" d="M300 200h100v100H300z"/><path fill="#343504" d="M400 200h100v100H400z"/><path fill="#656654" d="M500 200h100v100H500z"/><path fill="#b0b0b6" d="M600 200h100v100H600z"/><path fill="#8e8f7e" d="M700 200h100v100H700z"/></svg>