<svg xmlns="http://www.w3.org/2000/svg" viewBox="0 0 800 400"><defs/><path fill="#674c57" d="M0 0h100v100H0z"/><path fill="#6b4344" d="M100 0h100v100H100z"/><path fill="#81515a" d="M200 0h100v100H200z"/><path fill="#865873" d="M300 0h100v100H300z"/><path fill="#987083" d="M400 0h100v100H400z"/><path fill="#946471" d="M500 0h100v100H500z"/><path fill="#875763" d="M600 0h100v100H600z"/><path fill="#594458" d="M700 0h100v100H700z"/><path fill="#664349" d="M0 100h100v100H0z"/><path fill="#6c3f39" d="M100 100h100v100H100z"/><path fill="#6b383a" d="M200 100h100v100H200z"/><path fill="#864950" d="M300 100h100v100H300z"/><path fill="#b27f73" d="M400 100h100v100H400z"/><path fill="#935953" d="M500 100h100v100H500z"/><path fill="#753d42" d="M600 100h100v100H600z"/><path fill="#5c435b" d="M700 100h100v100H700z"/><path fill="#604555" d="M0 200h100v100H0z"/><path fill="#683a33" d="M100 200h100v100H100z"/><path fill="#79463f" d="M200 200h100v100H200z"/><path fill="#8e5b5a" d="M300 200h100v100H300z"/><path fill="#aa7663" d="M400 200h100v100H400z"/><path fill="#906658" d="M500 200h100v100H500z"/><path fill="#7e473a" d="M600 200h100v100H600z"/><path fill="#745659" d="M700 200h100v100H700z"/><path fill="#6d5163" d="M0 300h100v100H0z"/><path fill="#784739" d="M100 300h100v100H100z"/><path fill="#8d4c4b" d="M200 300h100v100H200z"/><path fill="#7e475f" d="M300 300h100v100H300z"/><path fill="#74435b" d="M400 300h100v100H400z"/><path fill="#7e4d5e" d="M500 300h100v100H500z"/><path fill="#88493b" d="M600 300h100v100H600z"/><path fill="#644242" d="M700 300h100v100H700z"/></svg>