<svg xmlns="http://www.w3.org/2000/svg" viewBox="0 0 800 600"><defs/><path fill="#060c0b" d="M0 0h100v100H0z"/><path fill="#060d0b" d="M100 0h100v100H100z"/><path fill="#050b08" d="M200 0h100v100H200z"/><path fill="#050b07" d="M300 0h100v100H300z"/><path fill="#080e0c" d="M400 0h100v100H400z"/><path fill="#091010" d="M500 0h100v100H500z"/><path fill="#050b08" d="M600 0h100v100H600z"/><path fill="#020806" d="M700 0h100v100H700z"/><path fill="#0d1412" d="M0 100h100v100H0z"/><path fill="#141c1c" d="M100 100h100v100H100z"/><path fill="#0f161d" d="M200 100h100v100H200z"/><path fill="#060d11" d="M300 100h100v100H300z"/><path fill="#0f1724" d="M400 100h100v100H400z"/><path fill="#161f1e" d="M500 100h100v100H500z"/><path fill="#0c1215" d="M600 100h100v100H600z"/><path fill="#0c120f" d="M700 100h100v100H700z"/><path fill="#0c1411" d="M0 200h100v100H0z"/><path fill="#1f2728" d="M100 200h100v100H100z"/><path fill="#232b2c" d="M200 200h100v100H200z"/><path fill="#0e1517" d="M300 200h100v100H300z"/><path fill="#0f141d" d="M400 200h100v100H400z"/><path fill="#141916" d="M500 200h100v100H500z"/><path fill="#22292b" d="M600 200h100v100H600z"/><path fill="#141916" d="M700 200h100v100H700z"/><path fill="#111817" d="M0 300h100v100H0z"/><path fill="#1e2424" d="M100 300h100v100H100z"/><path fill="#273331" d="M200 300h100v100H200z"/><path fill="#182422" d="M300 300h100v100H300z"/><path fill="#131a19" d="M400 300h100v100H400z"/><path fill="#121915" d="M500 300h100v100H500z"/><path fill="#1e2429" d="M600 300h100v100H600z"/><path fill="#131918" d="M700 300h100v100H700z"/><path fill="#0f1613" d="M0 400h100v100H0z"/><path fill="#141a1c" d="M100 400h100v100H100z"/><path fill="#1f2a2d" d="M200 400h100v100H200z"/><path fill="#1b2724" d="M300 400h100v100H300z"/><path fill="#0e150e" d="M400 400h100v100H400z"/><path fill="#111913" d="M500 400h100v100H500z"/><path fill="#1f2536" d="M600 400h100v100H600z"/><path fill="#222928" d="M700 400h100v100H700z"/><path fill="#0a0f0d" d="M0 500h100v100H0z"/><path fill="#090f0d" d="M100 500h100v100H100z"/><path fill="#090f0b" d="M200 500h100v100H200z"/><path fill="#0b110b" d="M300 500h100v100H300z"/><path fill="#0c130c" d="M400 500h100v100H400z"/><path fill="#0e150e" d="M500 500h100v100H500z"/><path fill="#131912" d="M600 500h100v100H600z"/><path fill="#161c18" d="M700 500h100v100H700z"/></svg>