<svg xmlns="http://www.w3.org/2000/svg" viewBox="0 0 800 500"><defs/><path fill="#e8c4b8" d="M0 0h100v100H0z"/><path fill="#d68c73" d="M100 0h100v100H100z"/><path fill="#be8676" d="M200 0h100v100H200z"/><path fill="#b37f6f" d="M300 0h100v100H300z"/><path fill="#a78073" d="M400 0h100v100H400z"/><path fill="#ba8f7d" d="M500 0h100v100H500z"/><path fill="#ba8d7d" d="M600 0h100v100H600z"/><path fill="#e2cac4" d="M700 0h100v100H700z"/><path fill="#dcac9c" d="M0 100h100v100H0z"/><path fill="#c34a22" d="M100 100h100v100H100z"/><path fill="#a75639" d="M200 100h100v100H200z"/><path fill="#a25b43" d="M300 100h100v100H300z"/><path fill="#7a3e28" d="M400 100h100v100H400z"/><path fill="#95452d" d="M500 100h100v100H500z"/><path fill="#a04d2c" d="M600 100h100v100H600z"/><path fill="#ad9380" d="M700 100h100v100H700z"/><path fill="#d2a79a" d="M0 200h100v100H0z"/><path fill="#af4d27" d="M100 200h100v100H100z"/><path fill="#a16850" d="M200 200h100v100H200z"/><path fill="#53413d" d="M300 200h100v100H300z"/><path fill="#8d5c49" d="M400 200h100v100H400z"/><path fill="#89452e" d="M500 200h100v100H500z"/><path fill="#7a402b" d="M600 200h100v100H600z"/><path fill="#937341" d="M700 200h100v100H700z"/><path fill="#d9927d" d="M0 300h100v100H0z"/><path fill="#a2552a" d="M100 300h100v100H100z"/><path fill="#a96039" d="M200 300h100v100H200z"/><path fill="#3f140a" d="M300 300h100v100H300z"/><path fill="#805e52" d="M400 300h100v100H400z"/><path fill="#a3877e" d="M500 300h100v100H500z"/><path fill="#86705d" d="M600 300h100v100H600z"/><path fill="#90693d" d="M700 300h100v100H700z"/><path fill="#e3a794" d="M0 400h100v100H0z"/><path fill="#d38667" d="M100 400h100v100H100z"/><path fill="#d68c6f" d="M200 400h100v100H200z"/><path fill="#936152" d="M300 400h100v100H300z"/><path fill="#a98579" d="M400 400h100v100H400z"/><path fill="#edd2c9" d="M500 400h100v100H500z"/><path fill="#e8cfc3" d="M600 400h100v100H600z"/><path fill="#c19e84" d="M700 400h100v100H700z"/></svg>