<svg xmlns="http://www.w3.org/2000/svg" viewBox="0 0 800 400"><defs/><path fill="#c9a988" d="M0 0h100v100H0z"/><path fill="#8e5b3c" d="M100 0h100v100H100z"/><path fill="#8f7154" d="M200 0h100v100H200z"/><path fill="#464d45" d="M300 0h100v100H300z"/><path fill="#4e4e49" d="M400 0h100v100H400z"/><path fill="#405048" d="M500 0h100v100H500z"/><path fill="#495f60" d="M600 0h100v100H600z"/><path fill="#a08a76" d="M700 0h100v100H700z"/><path fill="#c09774" d="M0 100h100v100H0z"/><path fill="#71452b" d="M100 100h100v100H100z"/><path fill="#7b664d" d="M200 100h100v100H200z"/><path fill="#413731" d="M300 100h100v100H300z"/><path fill="#252d2d" d="M400 100h100v100H400z"/><path fill="#422e21" d="M500 100h100v100H500z"/><path fill="#4e504d" d="M600 100h100v100H600z"/><path fill="#6c544d" d="M700 100h100v100H700z"/><path fill="#b08463" d="M0 200h100v100H0z"/><path fill="#573b28" d="M100 200h100v100H100z"/><path fill="#6d6553" d="M200 200h100v100H200z"/><path fill="#bf663e" d="M300 200h100v100H300z"/><path fill="#b27055" d="M400 200h100v100H400z"/><path fill="#c3805a" d="M500 200h100v100H500z"/><path fill="#814f49" d="M600 200h100v100H600z"/><path fill="#835744" d="M700 200h100v100H700z"/><path fill="#9b7157" d="M0 300h100v100H0z"/><path fill="#974d1d" d="M100 300h100v100H100z"/><path fill="#b37249" d="M200 300h100v100H200z"/><path fill="#bb8d70" d="M300 300h100v100H300z"/><path fill="#c09b81" d="M400 300h100v100H400z"/><path fill="#ba987c" d="M500 300h100v100H500z"/><path fill="#aa6a4f" d="M600 300h100v100H600z"/><path fill="#985a3d" d="M700 300h100v100H700z"/></svg>