<svg xmlns="http://www.w3.org/2000/svg" viewBox="0 0 800 500"><defs/><path fill="#393434" d="M0 0h100v100H0z"/><path fill="#332c2d" d="M100 0h100v100H100z"/><path fill="#514a40" d="M200 0h100v100H200z"/><path fill="#554d3c" d="M300 0h100v100H300z"/><path fill="#483d31" d="M400 0h100v100H400z"/><path fill="#574b3e" d="M500 0h100v100H500z"/><path fill="#59493c" d="M600 0h100v100H600z"/><path fill="#564c43" d="M700 0h100v100H700z"/><path fill="#604d27" d="M0 100h100v100H0z"/><path fill="#3b2a18" d="M100 100h100v100H100z"/><path fill="#695431" d="M200 100h100v100H200z"/><path fill="#7d612a" d="M300 100h100v100H300z"/><path fill="#534327" d="M400 100h100v100H400z"/><path fill="#5e4d34" d="M500 100h100v100H500z"/><path fill="#644f37" d="M600 100h100v100H600z"/><path fill="#7a6441" d="M700 100h100v100H700z"/><path fill="#573d1c" d="M0 200h100v100H0z"/><path fill="#513d23" d="M100 200h100v100H100z"/><path fill="#3c2c1a" d="M200 200h100v100H200z"/><path fill="#664f29" d="M300 200h100v100H300z"/><path fill="#5b482f" d="M400 200h100v100H400z"/><path fill="#4f4637" d="M500 200h100v100H500z"/><path fill="#685e50" d="M600 200h100v100H600z"/><path fill="#5e4d32" d="M700 200h100v100H700z"/><path fill="#57412a" d="M0 300h100v100H0z"/><path fill="#55422d" d="M100 300h100v100H100z"/><path fill="#4c362e" d="M200 300h100v100H200z"/><path fill="#47362b" d="M300 300h100v100H300z"/><path fill="#6c4d3b" d="M400 300h100v100H400z"/><path fill="#483628" d="M500 300h100v100H500z"/><path fill="#473b31" d="M600 300h100v100H600z"/><path fill="#624d33" d="M700 300h100v100H700z"/><path fill="#2d2522" d="M0 400h100v100H0z"/><path fill="#2b221f" d="M100 400h100v100H100z"/><path fill="#342724" d="M200 400h100v100H200z"/><path fill="#31221c" d="M300 400h100v100H300z"/><path fill="#423028" d="M400 400h100v100H400z"/><path fill="#352824" d="M500 400h100v100H500z"/><path fill="#231714" d="M600 400h100v100H600z"/><path fill="#2e231e" d="M700 400h100v100H700z"/></svg>