<svg xmlns="http://www.w3.org/2000/svg" viewBox="0 0 800 600"><defs/><path fill="#a47836" d="M0 0h100v100H0z"/><path fill="#81641b" d="M100 0h100v100H100z"/><path fill="#927a27" d="M200 0h100v100H200z"/><path fill="#b68d4a" d="M300 0h100v100H300z"/><path fill="#9b7846" d="M400 0h100v100H400z"/><path fill="#817c79" d="M500 0h100v100H500z"/><path fill="#7e7d76" d="M600 0h100v100H600z"/><path fill="#8a7e64" d="M700 0h100v100H700z"/><path fill="#9d7133" d="M0 100h100v100H0z"/><path fill="#6e5213" d="M100 100h100v100H100z"/><path fill="#d5ca53" d="M200 100h100v100H200z"/><path fill="#b0b377" d="M300 100h100v100H300z"/><path fill="#7389a6" d="M400 100h100v100H400z"/><path fill="#4d555c" d="M500 100h100v100H500z"/><path fill="#494a26" d="M600 100h100v100H600z"/><path fill="#7d7b46" d="M700 100h100v100H700z"/><path fill="#8d6627" d="M0 200h100v100H0z"/><path fill="#886b3c" d="M100 200h100v100H100z"/><path fill="#e6d591" d="M200 200h100v100H200z"/><path fill="#c1b7a0" d="M300 200h100v100H300z"/><path fill="#626e86" d="M400 200h100v100H400z"/><path fill="#4a4b50" d="M500 200h100v100H500z"/><path fill="#6e583d" d="M600 200h100v100H600z"/><path fill="#af8548" d="M700 200h100v100H700z"/><path fill="#84621d" d="M0 300h100v100H0z"/><path fill="#ac8177" d="M100 300h100v100H100z"/><path fill="#f1a5ea" d="M200 300h100v100H200z"/><path fill="#e49ccf" d="M300 300h100v100H300z"/><path fill="#7d5d37" d="M400 300h100v100H400z"/><path fill="#695046" d="M500 300h100v100H500z"/><path fill="#514851" d="M600 300h100v100H600z"/><path fill="#956e33" d="M700 300h100v100H700z"/><path fill="#745412" d="M0 400h100v100H0z"/><path fill="#83594c" d="M100 400h100v100H100z"/><path fill="#f096f8" d="M200 400h100v100H200z"/><path fill="#e391d6" d="M300 400h100v100H300z"/><path fill="#a27d48" d="M400 400h100v100H400z"/><path fill="#b3762a" d="M500 400h100v100H500z"/><path fill="#b66415" d="M600 400h100v100H600z"/><path fill="#9c7333" d="M700 400h100v100H700z"/><path fill="#6d4e12" d="M0 500h100v100H0z"/><path fill="#815b2d" d="M100 500h100v100H100z"/><path fill="#b57f62" d="M200 500h100v100H200z"/><path fill="#af7a52" d="M300 500h100v100H300z"/><path fill="#ac8245" d="M400 500h100v100H400z"/><path fill="#98692b" d="M500 500h100v100H500z"/><path fill="#9a6525" d="M600 500h100v100H600z"/><path fill="#9b7032" d="M700 500h100v100H700z"/></svg>