<svg xmlns="http://www.w3.org/2000/svg" viewBox="0 0 800 500"><defs/><path fill="#a4b2b1" d="M0 0h100v100H0z"/><path fill="#adb9b9" d="M100 0h100v100H100z"/><path fill="#94a0a3" d="M200 0h100v100H200z"/><path fill="#aeb2b3" d="M300 0h100v100H300z"/><path fill="#bbbab7" d="M400 0h100v100H400z"/><path fill="#979496" d="M500 0h100v100H500z"/><path fill="#9da0a1" d="M600 0h100v100H600z"/><path fill="#b8c2c2" d="M700 0h100v100H700z"/><path fill="#9ea9a6" d="M0 100h100v100H0z"/><path fill="#a9b1b2" d="M100 100h100v100H100z"/><path fill="#a6aaab" d="M200 100h100v100H200z"/><path fill="#a9999c" d="M300 100h100v100H300z"/><path fill="#b2acaf" d="M400 100h100v100H400z"/><path fill="#aea3a9" d="M500 100h100v100H500z"/><path fill="#afa9ab" d="M600 100h100v100H600z"/><path fill="#aeaaa9" d="M700 100h100v100H700z"/><path fill="#c1cac8" d="M0 200h100v100H0z"/><path fill="#9da0a1" d="M100 200h100v100H100z"/><path fill="#979798" d="M200 200h100v100H200z"/><path fill="#978b90" d="M300 200h100v100H300z"/><path fill="#9fa6ab" d="M400 200h100v100H400z"/><path fill="#a39da4" d="M500 200h100v100H500z"/><path fill="#a89496" d="M600 200h100v100H600z"/><path fill="#9e8d8d" d="M700 200h100v100H700z"/><path fill="#bac4c3" d="M0 300h100v100H0z"/><path fill="#969e9b" d="M100 300h100v100H100z"/><path fill="#878f92" d="M200 300h100v100H200z"/><path fill="#7f7d85" d="M300 300h100v100H300z"/><path fill="#909397" d="M400 300h100v100H400z"/><path fill="#938f94" d="M500 300h100v100H500z"/><path fill="#8a8587" d="M600 300h100v100H600z"/><path fill="#747a7b" d="M700 300h100v100H700z"/><path fill="#a6b1af" d="M0 400h100v100H0z"/><path fill="#91897b" d="M100 400h100v100H100z"/><path fill="#9fa4a1" d="M200 400h100v100H200z"/><path fill="#a4a1a6" d="M300 400h100v100H300z"/><path fill="#9fa0a2" d="M400 400h100v100H400z"/><path fill="#88817e" d="M500 400h100v100H500z"/><path fill="#71625e" d="M600 400h100v100H600z"/><path fill="#796f66" d="M700 400h100v100H700z"/></svg>