<svg xmlns="http://www.w3.org/2000/svg" viewBox="0 0 800 500"><defs/><path fill="#91acb7" d="M0 0h100v100H0z"/><path fill="#aea68d" d="M100 0h100v100H100z"/><path fill="#7495a1" d="M200 0h100v100H200z"/><path fill="#6894a6" d="M300 0h100v100H300z"/><path fill="#6890a0" d="M400 0h100v100H400z"/><path fill="#658ea0" d="M500 0h100v100H500z"/><path fill="#6b93a3" d="M600 0h100v100H600z"/><path fill="#6d93a4" d="M700 0h100v100H700z"/><path fill="#77949a" d="M0 100h100v100H0z"/><path fill="#908764" d="M100 100h100v100H100z"/><path fill="#3b6576" d="M200 100h100v100H200z"/><path fill="#23475a" d="M300 100h100v100H300z"/><path fill="#2e6178" d="M400 100h100v100H400z"/><path fill="#456c7e" d="M500 100h100v100H500z"/><path fill="#2e5f76" d="M600 100h100v100H600z"/><path fill="#366f87" d="M700 100h100v100H700z"/><path fill="#97a29b" d="M0 200h100v100H0z"/><path fill="#848a74" d="M100 200h100v100H100z"/><path fill="#403537" d="M200 200h100v100H200z"/><path fill="#210f14" d="M300 200h100v100H300z"/><path fill="#3a6c82" d="M400 200h100v100H400z"/><path fill="#5d5050" d="M500 200h100v100H500z"/><path fill="#47433f" d="M600 200h100v100H600z"/><path fill="#437e97" d="M700 200h100v100H700z"/><path fill="#a3a392" d="M0 300h100v100H0z"/><path fill="#6a5930" d="M100 300h100v100H100z"/><path fill="#2e0e02" d="M200 300h100v100H200z"/><path fill="#1c070e" d="M300 300h100v100H300z"/><path fill="#352f28" d="M400 300h100v100H400z"/><path fill="#371e1d" d="M500 300h100v100H500z"/><path fill="#3c1a04" d="M600 300h100v100H600z"/><path fill="#345c65" d="M700 300h100v100H700z"/><path fill="#bbb5a6" d="M0 400h100v100H0z"/><path fill="#8c7a5e" d="M100 400h100v100H100z"/><path fill="#796752" d="M200 400h100v100H200z"/><path fill="#776756" d="M300 400h100v100H300z"/><path fill="#7a6c59" d="M400 400h100v100H400z"/><path fill="#765" d="M500 400h100v100H500z"/><path fill="#75614a" d="M600 400h100v100H600z"/><path fill="#75766a" d="M700 400h100v100H700z"/></svg>