<svg xmlns="http://www.w3.org/2000/svg" viewBox="0 0 800 900"><defs/><path fill="#ededed" d="M0 0h100v100H0z"/><path fill="#dedede" d="M100 0h100v100H100z"/><path fill="#eee" d="M200 0h100v100H200z"/><path fill="#ececec" d="M300 0h100v100H300z"/><path fill="#d6d6d6" d="M400 0h100v100H400z"/><path fill="#e9e9e9" d="M500 0h100v100H500z"/><path fill="#eee" d="M600 0h100v100H600z"/><path fill="#f5f5f5" d="M700 0h100v100H700z"/><path fill="#e9e9e9" d="M0 100h100v100H0z"/><path fill="#e2e2e2" d="M100 100h100v100H100zm100 0h100v100H200zm100 0h100v100H300z"/><path fill="#cecece" d="M400 100h100v100H400z"/><path fill="#d3d3d3" d="M500 100h100v100H500z"/><path fill="#dcdcdc" d="M600 100h100v100H600z"/><path fill="#e1e1e1" d="M700 100h100v100H700z"/><path fill="#e3e3e3" d="M0 200h100v100H0z"/><path fill="#878787" d="M100 200h100v100H100z"/><path fill="#adadad" d="M200 200h100v100H200z"/><path fill="#767676" d="M300 200h100v100H300z"/><path fill="#a1a1a1" d="M400 200h100v100H400z"/><path fill="#d4d4d4" d="M500 200h100v100H500z"/><path fill="#d1d1d1" d="M600 200h100v100H600z"/><path fill="#dadada" d="M700 200h100v100H700z"/><path fill="#f5f5f5" d="M0 300h100v100H0z"/><path fill="#a4a4a4" d="M100 300h100v100H100z"/><path fill="#cbcbcb" d="M200 300h100v100H200z"/><path fill="#c4c4c4" d="M300 300h100v100H300z"/><path fill="#dcdcdc" d="M400 300h100v100H400z"/><path fill="#e5e5e5" d="M500 300h100v100H500z"/><path fill="#cacaca" d="M600 300h100v100H600z"/><path fill="#d8d8d8" d="M700 300h100v100H700z"/><path fill="#fdfdfd" d="M0 400h100v100H0z"/><path fill="#e4e4e4" d="M100 400h100v100H100z"/><path fill="#cacaca" d="M200 400h100v100H200z"/><path fill="#cfcfcf" d="M300 400h100v100H300z"/><path fill="#eaeaea" d="M400 400h100v100H400z"/><path fill="#dadada" d="M500 400h100v100H500z"/><path fill="#bebebe" d="M600 400h100v100H600z"/><path fill="#d4d4d4" d="M700 400h100v100H700z"/><path fill="#fdfdfd" d="M0 500h100v100H0z"/><path fill="#cfcfcf" d="M100 500h100v100H100z"/><path fill="#b1b1b1" d="M200 500h100v100H200z"/><path fill="#bababa" d="M300 500h100v100H300z"/><path fill="#c1c1c1" d="M400 500h100v100H400z"/><path fill="#c7c7c7" d="M500 500h100v100H500z"/><path fill="#c2c2c2" d="M600 500h100v100H600z"/><path fill="#dfdfdf" d="M700 500h100v100H700z"/><path fill="#fff" d="M0 600h100v100H0z"/><path fill="#dedede" d="M100 600h100v100H100z"/><path fill="#bdbdbd" d="M200 600h100v100H200z"/><path fill="#d0d0d0" d="M300 600h100v100H300z"/><path fill="#d3d3d3" d="M400 600h100v100H400z"/><path fill="#e1e1e1" d="M500 600h100v100H500z"/><path fill="#f3f3f3" d="M600 600h100v100H600z"/><path fill="#d9d9d9" d="M700 600h100v100H700z"/><path fill="#eee" d="M0 700h100v100H0z"/><path fill="#ebebeb" d="M100 700h100v100H100z"/><path fill="#ddd" d="M200 700h100v100H200z"/><path fill="#ededed" d="M300 700h100v100H300z"/><path fill="#ececec" d="M400 700h100v100H400z"/><path fill="#f5f5f5" d="M500 700h100v100H500z"/><path fill="#fff" d="M600 700h100v100H600z"/><path fill="#f6f6f6" d="M700 700h100v100H700z"/><path fill="#fbfbfb" d="M0 800h100v100H0z"/><path fill="#fff" d="M100 800h100v100H100z"/><path fill="#f2f2f2" d="M200 800h100v100H200z"/><path fill="#f4f4f4" d="M300 800h100v100H300z"/><path fill="#f8f8f8" d="M400 800h100v100H400z"/><path fill="#fefefe" d="M500 800h100v100H500z"/><path fill="#f7f7f7" d="M600 800h100v100H600z"/><path fill="#f9f9f9" d="M700 800h100v100H700z"/></svg>