<svg xmlns="http://www.w3.org/2000/svg" viewBox="0 0 800 900"><defs/><path fill="#fff" d="M0 0h100v100H0z"/><path fill="#f5f6fa" d="M100 0h100v100H100z"/><path fill="#afb8d7" d="M200 0h100v100H200z"/><path fill="#96a1c8" d="M300 0h100v100H300z"/><path fill="#fff" d="M400 0h100v100H400z"/><path fill="#feffff" d="M500 0h100v100H500z"/><path fill="#fefeff" d="M600 0h100v100H600z"/><path fill="#fff" d="M700 0h100v100H700z"/><path fill="#a5afcf" d="M0 100h100v100H0z"/><path fill="#4b61a9" d="M100 100h100v100H100z"/><path fill="#2e479a" d="M200 100h100v100H200z"/><path fill="#435ca5" d="M300 100h100v100H300z"/><path fill="#c7d1dd" d="M400 100h100v100H400z"/><path fill="#b1bdc7" d="M500 100h100v100H500z"/><path fill="#eeeeef" d="M600 100h100v100H600z"/><path fill="#fff" d="M700 100h100v100H700z"/><path fill="#91949a" d="M0 200h100v100H0z"/><path fill="#2c3e65" d="M100 200h100v100H100z"/><path fill="#1d2947" d="M200 200h100v100H200z"/><path fill="#3b455d" d="M300 200h100v100H300z"/><path fill="#60686a" d="M400 200h100v100H400z"/><path fill="#39423a" d="M500 200h100v100H500z"/><path fill="#55575b" d="M600 200h100v100H600z"/><path fill="#f8f7ee" d="M700 200h100v100H700z"/><path fill="#cdc297" d="M0 300h100v100H0z"/><path fill="#6b7068" d="M100 300h100v100H100z"/><path fill="#343a40" d="M200 300h100v100H200z"/><path fill="#121916" d="M300 300h100v100H300z"/><path fill="#343e24" d="M400 300h100v100H400z"/><path fill="#697b3e" d="M500 300h100v100H500z"/><path fill="#5e6044" d="M600 300h100v100H600z"/><path fill="#d8dc48" d="M700 300h100v100H700z"/><path fill="#dfd095" d="M0 400h100v100H0z"/><path fill="#b3b090" d="M100 400h100v100H100z"/><path fill="#3a4149" d="M200 400h100v100H200z"/><path fill="#161715" d="M300 400h100v100H300z"/><path fill="#1c1c18" d="M400 400h100v100H400z"/><path fill="#37412d" d="M500 400h100v100H500z"/><path fill="#aeb090" d="M600 400h100v100H600z"/><path fill="#d4da24" d="M700 400h100v100H700z"/><path fill="#ebdca3" d="M0 500h100v100H0z"/><path fill="#7b7853" d="M100 500h100v100H100z"/><path fill="#354043" d="M200 500h100v100H200z"/><path fill="#3c4936" d="M300 500h100v100H300z"/><path fill="#313d2e" d="M400 500h100v100H400z"/><path fill="#23292d" d="M500 500h100v100H500z"/><path fill="#8e9b6d" d="M600 500h100v100H600z"/><path fill="#c8d32a" d="M700 500h100v100H700z"/><path fill="#fffff5" d="M0 600h100v100H0z"/><path fill="#595c52" d="M100 600h100v100H100z"/><path fill="#474d54" d="M200 600h100v100H200z"/><path fill="#8e9599" d="M300 600h100v100H300z"/><path fill="#383f58" d="M400 600h100v100H400z"/><path fill="#2a383c" d="M500 600h100v100H500z"/><path fill="#99c05a" d="M600 600h100v100H600z"/><path fill="#a8c451" d="M700 600h100v100H700z"/><path fill="#fff" d="M0 700h100v100H0z"/><path fill="#fcfbf6" d="M100 700h100v100H100z"/><path fill="#6e78a0" d="M200 700h100v100H200z"/><path fill="#616fa5" d="M300 700h100v100H300z"/><path fill="#7ea3c9" d="M400 700h100v100H400z"/><path fill="#9acbe6" d="M500 700h100v100H500z"/><path fill="#afddf0" d="M600 700h100v100H600z"/><path fill="#beddea" d="M700 700h100v100H700z"/><path fill="#fefefe" d="M0 800h100v100H0z"/><path fill="#fff" d="M100 800h100v100H100z"/><path fill="#f2f4fb" d="M200 800h100v100H200z"/><path fill="#fdfcfd" d="M300 800h100v100H300z"/><path fill="#daeff6" d="M400 800h100v100H400z"/><path fill="#d2ebf5" d="M500 800h100v100H500z"/><path fill="#f1f7fb" d="M600 800h100v100H600z"/><path fill="#fefffe" d="M700 800h100v100H700z"/></svg>