<svg xmlns="http://www.w3.org/2000/svg" viewBox="0 0 800 500"><defs/><path fill="#79817e" d="M0 0h100v100H0z"/><path fill="#6f7772" d="M100 0h100v100H100z"/><path fill="#817b79" d="M200 0h100v100H200z"/><path fill="#847d77" d="M300 0h100v100H300z"/><path fill="#7a7064" d="M400 0h100v100H400z"/><path fill="#886867" d="M500 0h100v100H500z"/><path fill="#837873" d="M600 0h100v100H600z"/><path fill="#777671" d="M700 0h100v100H700z"/><path fill="#856874" d="M0 100h100v100H0z"/><path fill="#a38c97" d="M100 100h100v100H100z"/><path fill="#d2d5d0" d="M200 100h100v100H200z"/><path fill="#728278" d="M300 100h100v100H300z"/><path fill="#766c76" d="M400 100h100v100H400z"/><path fill="#a05b5d" d="M500 100h100v100H500z"/><path fill="#837a7a" d="M600 100h100v100H600z"/><path fill="#6e6964" d="M700 100h100v100H700z"/><path fill="#8a8463" d="M0 200h100v100H0z"/><path fill="#b6b29e" d="M100 200h100v100H100z"/><path fill="#d6d8dc" d="M200 200h100v100H200z"/><path fill="#81786b" d="M300 200h100v100H300z"/><path fill="#736c67" d="M400 200h100v100H400z"/><path fill="#777d6b" d="M500 200h100v100H500z"/><path fill="#80766c" d="M600 200h100v100H600z"/><path fill="#706c68" d="M700 200h100v100H700z"/><path fill="#7e9087" d="M0 300h100v100H0z"/><path fill="#e0d09f" d="M100 300h100v100H100z"/><path fill="#f8d7b3" d="M200 300h100v100H200z"/><path fill="#d5b9a2" d="M300 300h100v100H300z"/><path fill="#e9ba7d" d="M400 300h100v100H400z"/><path fill="#f3c787" d="M500 300h100v100H500z"/><path fill="#f3cd89" d="M600 300h100v100H600z"/><path fill="#9e9880" d="M700 300h100v100H700z"/><path fill="#89726b" d="M0 400h100v100H0z"/><path fill="#d2bd80" d="M100 400h100v100H100z"/><path fill="#8cc36b" d="M200 400h100v100H200z"/><path fill="#64a761" d="M300 400h100v100H300z"/><path fill="#6dae5b" d="M400 400h100v100H400z"/><path fill="#78b562" d="M500 400h100v100H500z"/><path fill="#ded287" d="M600 400h100v100H600z"/><path fill="#cbb182" d="M700 400h100v100H700z"/></svg>