<svg xmlns="http://www.w3.org/2000/svg" viewBox="0 0 800 400"><defs/><path fill="#6a474b" d="M0 0h100v100H0z"/><path fill="#9c7572" d="M100 0h100v100H100z"/><path fill="#ae8a94" d="M200 0h100v100H200z"/><path fill="#b48c83" d="M300 0h100v100H300z"/><path fill="#af8b80" d="M400 0h100v100H400z"/><path fill="#aa888c" d="M500 0h100v100H500z"/><path fill="#b59391" d="M600 0h100v100H600z"/><path fill="#8e676a" d="M700 0h100v100H700z"/><path fill="#6a3a48" d="M0 100h100v100H0z"/><path fill="#82484d" d="M100 100h100v100H100z"/><path fill="#7f5e60" d="M200 100h100v100H200z"/><path fill="#805a58" d="M300 100h100v100H300z"/><path fill="#8e5e5a" d="M400 100h100v100H400z"/><path fill="#764553" d="M500 100h100v100H500z"/><path fill="#7c5854" d="M600 100h100v100H600z"/><path fill="#805956" d="M700 100h100v100H700z"/><path fill="#6a3346" d="M0 200h100v100H0z"/><path fill="#8e544f" d="M100 200h100v100H100z"/><path fill="#91796c" d="M200 200h100v100H200z"/><path fill="#824848" d="M300 200h100v100H300z"/><path fill="#9a4f51" d="M400 200h100v100H400z"/><path fill="#a76a66" d="M500 200h100v100H500z"/><path fill="#8c3d40" d="M600 200h100v100H600z"/><path fill="#62324a" d="M700 200h100v100H700z"/><path fill="#7b474c" d="M0 300h100v100H0z"/><path fill="#884443" d="M100 300h100v100H100z"/><path fill="#a96962" d="M200 300h100v100H200z"/><path fill="#c69c8e" d="M300 300h100v100H300z"/><path fill="#b67670" d="M400 300h100v100H400z"/><path fill="#a56765" d="M500 300h100v100H500z"/><path fill="#8d3643" d="M600 300h100v100H600z"/><path fill="#743742" d="M700 300h100v100H700z"/></svg>