<svg xmlns="http://www.w3.org/2000/svg" viewBox="0 0 800 600"><defs/><path fill="#efbfb3" d="M0 0h100v100H0z"/><path fill="#eca196" d="M100 0h100v100H100z"/><path fill="#de7e7c" d="M200 0h100v100H200z"/><path fill="#ce8483" d="M300 0h100v100H300z"/><path fill="#cf8581" d="M400 0h100v100H400z"/><path fill="#be7b7e" d="M500 0h100v100H500z"/><path fill="#bb7172" d="M600 0h100v100H600z"/><path fill="#bc7a72" d="M700 0h100v100H700z"/><path fill="#eaa6a0" d="M0 100h100v100H0z"/><path fill="#ec7170" d="M100 100h100v100H100z"/><path fill="#ea6964" d="M200 100h100v100H200z"/><path fill="#cc7472" d="M300 100h100v100H300z"/><path fill="#ba6464" d="M400 100h100v100H400z"/><path fill="#bd5b62" d="M500 100h100v100H500z"/><path fill="#b7595d" d="M600 100h100v100H600z"/><path fill="#9c5459" d="M700 100h100v100H700z"/><path fill="#f5b5a5" d="M0 200h100v100H0z"/><path fill="#eb6a65" d="M100 200h100v100H100z"/><path fill="#de6a68" d="M200 200h100v100H200z"/><path fill="#eb8d7c" d="M300 200h100v100H300z"/><path fill="#db6f67" d="M400 200h100v100H400z"/><path fill="#b8223a" d="M500 200h100v100H500z"/><path fill="#9e354a" d="M600 200h100v100H600z"/><path fill="#a15e5e" d="M700 200h100v100H700z"/><path fill="#f09f8f" d="M0 300h100v100H0z"/><path fill="#e45c58" d="M100 300h100v100H100z"/><path fill="#d7606a" d="M200 300h100v100H200z"/><path fill="#e2756e" d="M300 300h100v100H300z"/><path fill="#cd5d59" d="M400 300h100v100H400z"/><path fill="#b6273a" d="M500 300h100v100H500z"/><path fill="#ac3f4c" d="M600 300h100v100H600z"/><path fill="#bd7162" d="M700 300h100v100H700z"/><path fill="#e27f79" d="M0 400h100v100H0z"/><path fill="#d84b53" d="M100 400h100v100H100z"/><path fill="#ce5562" d="M200 400h100v100H200z"/><path fill="#b13c4f" d="M300 400h100v100H300z"/><path fill="#9b2a41" d="M400 400h100v100H400z"/><path fill="#b34355" d="M500 400h100v100H500z"/><path fill="#b13a4b" d="M600 400h100v100H600z"/><path fill="#ab524e" d="M700 400h100v100H700z"/><path fill="#d3948f" d="M0 500h100v100H0z"/><path fill="#cd7377" d="M100 500h100v100H100z"/><path fill="#c37277" d="M200 500h100v100H200z"/><path fill="#b87a79" d="M300 500h100v100H300z"/><path fill="#b5686e" d="M400 500h100v100H400z"/><path fill="#b4656c" d="M500 500h100v100H500z"/><path fill="#a5575f" d="M600 500h100v100H600z"/><path fill="#9c565a" d="M700 500h100v100H700z"/></svg>