<svg xmlns="http://www.w3.org/2000/svg" viewBox="0 0 800 600"><defs/><path fill="#fbf6f2" d="M0 0h100v100H0z"/><path fill="#faf3ee" d="M100 0h100v100H100z"/><path fill="#f8e6df" d="M200 0h100v100H200z"/><path fill="#f8e7de" d="M300 0h100v100H300z"/><path fill="#f7e7df" d="M400 0h100v100H400z"/><path fill="#f6e5dd" d="M500 0h100v100H500z"/><path fill="#f5e1d9" d="M600 0h100v100H600z"/><path fill="#fcf6f1" d="M700 0h100v100H700z"/><path fill="#f2e1d2" d="M0 100h100v100H0z"/><path fill="#e9c8b1" d="M100 100h100v100H100z"/><path fill="#e3b594" d="M200 100h100v100H200z"/><path fill="#f4d2be" d="M300 100h100v100H300z"/><path fill="#f5ccb8" d="M400 100h100v100H400z"/><path fill="#deab92" d="M500 100h100v100H500z"/><path fill="#d29477" d="M600 100h100v100H600z"/><path fill="#f0d9c8" d="M700 100h100v100H700z"/><path fill="#f4e3d4" d="M0 200h100v100H0z"/><path fill="#e9bfa5" d="M100 200h100v100H100z"/><path fill="#d0b284" d="M200 200h100v100H200z"/><path fill="#e2d0b4" d="M300 200h100v100H300z"/><path fill="#e5d6c8" d="M400 200h100v100H400z"/><path fill="#d7a489" d="M500 200h100v100H500z"/><path fill="#d79979" d="M600 200h100v100H600z"/><path fill="#eed9cb" d="M700 200h100v100H700z"/><path fill="#f3e5d7" d="M0 300h100v100H0z"/><path fill="#e0b799" d="M100 300h100v100H100z"/><path fill="#c7af9c" d="M200 300h100v100H200z"/><path fill="#d2b69f" d="M300 300h100v100H300z"/><path fill="#d7cabd" d="M400 300h100v100H400z"/><path fill="#d4bcae" d="M500 300h100v100H500z"/><path fill="#a3a48d" d="M600 300h100v100H600z"/><path fill="#a2b9a0" d="M700 300h100v100H700z"/><path fill="#efd7c3" d="M0 400h100v100H0z"/><path fill="#d3b28e" d="M100 400h100v100H100z"/><path fill="#d9c3b5" d="M200 400h100v100H200z"/><path fill="#cfbdb3" d="M300 400h100v100H300z"/><path fill="#d9d1ca" d="M400 400h100v100H400z"/><path fill="#e7ddd4" d="M500 400h100v100H500z"/><path fill="#c4c5b3" d="M600 400h100v100H600z"/><path fill="#b4baa5" d="M700 400h100v100H700z"/><path fill="#f8ede5" d="M0 500h100v100H0z"/><path fill="#f7eae2" d="M100 500h100v100H100z"/><path fill="#f9f3ef" d="M200 500h100v100H200zm100 0h100v100H300z"/><path fill="#f7f4f1" d="M400 500h100v100H400z"/><path fill="#f8f3ef" d="M500 500h100v100H500z"/><path fill="#fbf5f1" d="M600 500h100v100H600z"/><path fill="#fef6f3" d="M700 500h100v100H700z"/></svg>