<svg xmlns="http://www.w3.org/2000/svg" viewBox="0 0 800 400"><defs/><path fill="#f9f6ed" d="M0 0h100v100H0z"/><path fill="#e3c872" d="M100 0h100v100H100z"/><path fill="#f6f4ed" d="M200 0h100v100H200z"/><path fill="#f8f7fd" d="M300 0h100v100H300z"/><path fill="#f6f6fc" d="M400 0h100v100H400z"/><path fill="#f0ede5" d="M500 0h100v100H500z"/><path fill="#edebe7" d="M600 0h100v100H600z"/><path fill="#f9f9ff" d="M700 0h100v100H700z"/><path fill="#f2f0eb" d="M0 100h100v100H0z"/><path fill="#e2d1a1" d="M100 100h100v100H100z"/><path fill="#f7fafa" d="M200 100h100v100H200z"/><path fill="#ebf4fa" d="M300 100h100v100H300z"/><path fill="#eaecf4" d="M400 100h100v100H400z"/><path fill="#ebe7e7" d="M500 100h100v100H500z"/><path fill="#e3e7ec" d="M600 100h100v100H600z"/><path fill="#eef1f8" d="M700 100h100v100H700z"/><path fill="#ecd89e" d="M0 200h100v100H0z"/><path fill="#e1c77d" d="M100 200h100v100H100z"/><path fill="#f3f0ff" d="M200 200h100v100H200z"/><path fill="#e1b8bf" d="M300 200h100v100H300z"/><path fill="#e2dbe4" d="M400 200h100v100H400z"/><path fill="#f7faff" d="M500 200h100v100H500z"/><path fill="#f2eaed" d="M600 200h100v100H600z"/><path fill="#ede3e7" d="M700 200h100v100H700z"/><path fill="#e1c37a" d="M0 300h100v100H0z"/><path fill="#ebd9a5" d="M100 300h100v100H100z"/><path fill="#f6f1ff" d="M200 300h100v100H200z"/><path fill="#e6c9d3" d="M300 300h100v100H300z"/><path fill="#eaeffa" d="M400 300h100v100H400z"/><path fill="#f9f8fc" d="M500 300h100v100H500z"/><path fill="#e8e1ea" d="M600 300h100v100H600z"/><path fill="#efe5ed" d="M700 300h100v100H700z"/></svg>