<svg xmlns="http://www.w3.org/2000/svg" viewBox="0 0 800 400"><defs/><path fill="#fbfbfc" d="M0 0h100v100H0z"/><path fill="#e4e4e4" d="M100 0h100v100H100z"/><path fill="#e0e1e1" d="M200 0h100v100H200z"/><path fill="#ececed" d="M300 0h100v100H300z"/><path fill="#f0f1f2" d="M400 0h100v100H400z"/><path fill="#f5f6f6" d="M500 0h100v100H500z"/><path fill="#e1e2e2" d="M600 0h100v100H600z"/><path fill="#fafafa" d="M700 0h100v100H700z"/><path fill="#eeedeb" d="M0 100h100v100H0z"/><path fill="#d7d6d6" d="M100 100h100v100H100z"/><path fill="#d3d2d1" d="M200 100h100v100H200z"/><path fill="#e0e0de" d="M300 100h100v100H300z"/><path fill="#e8e7e5" d="M400 100h100v100H400z"/><path fill="#e3e5e6" d="M500 100h100v100H500z"/><path fill="#dadbdb" d="M600 100h100v100H600z"/><path fill="#dce3e4" d="M700 100h100v100H700z"/><path fill="#c6c1ad" d="M0 200h100v100H0z"/><path fill="#c3bda2" d="M100 200h100v100H100z"/><path fill="#c1bba1" d="M200 200h100v100H200z"/><path fill="#c4bda8" d="M300 200h100v100H300z"/><path fill="#c6c1b1" d="M400 200h100v100H400z"/><path fill="#c6c7c1" d="M500 200h100v100H500z"/><path fill="#c1c6c4" d="M600 200h100v100H600z"/><path fill="#b5bcba" d="M700 200h100v100H700z"/><path fill="#cec8b3" d="M0 300h100v100H0z"/><path fill="#c9c3ab" d="M100 300h100v100H100z"/><path fill="#cbc6af" d="M200 300h100v100H200z"/><path fill="#c4bda4" d="M300 300h100v100H300z"/><path fill="#c7c2aa" d="M400 300h100v100H400z"/><path fill="#c7c5b6" d="M500 300h100v100H500z"/><path fill="#c1c1b2" d="M600 300h100v100H600z"/><path fill="#c3c2b2" d="M700 300h100v100H700z"/></svg>