<svg xmlns="http://www.w3.org/2000/svg" viewBox="0 0 800 400"><defs/><path fill="#d9adea" d="M0 0h100v100H0z"/><path fill="#b180be" d="M100 0h100v100H100z"/><path fill="#ba81cc" d="M200 0h100v100H200z"/><path fill="#c586bb" d="M300 0h100v100H300z"/><path fill="#cf88a4" d="M400 0h100v100H400z"/><path fill="#c885ac" d="M500 0h100v100H500z"/><path fill="#c58ad2" d="M600 0h100v100H600z"/><path fill="#d6abe6" d="M700 0h100v100H700z"/><path fill="#d3a8e4" d="M0 100h100v100H0z"/><path fill="#a270af" d="M100 100h100v100H100z"/><path fill="#a267b0" d="M200 100h100v100H200z"/><path fill="#b6759b" d="M300 100h100v100H300z"/><path fill="#bb717b" d="M400 100h100v100H400z"/><path fill="#b96d89" d="M500 100h100v100H500z"/><path fill="#c585d2" d="M600 100h100v100H600z"/><path fill="#d7abe1" d="M700 100h100v100H700z"/><path fill="#c99ed7" d="M0 200h100v100H0z"/><path fill="#c08abf" d="M100 200h100v100H100z"/><path fill="#966490" d="M200 200h100v100H200z"/><path fill="#c794b8" d="M300 200h100v100H300z"/><path fill="#d9a3cd" d="M400 200h100v100H400z"/><path fill="#d79ed0" d="M500 200h100v100H500z"/><path fill="#ac78b5" d="M600 200h100v100H600z"/><path fill="#7e6297" d="M700 200h100v100H700z"/><path fill="#d6a4d3" d="M0 300h100v100H0z"/><path fill="#e7b2da" d="M100 300h100v100H100z"/><path fill="#947095" d="M200 300h100v100H200z"/><path fill="#c197c0" d="M300 300h100v100H300z"/><path fill="#fdc9f0" d="M400 300h100v100H400z"/><path fill="#b684b2" d="M500 300h100v100H500z"/><path fill="#906290" d="M600 300h100v100H600z"/><path fill="#775583" d="M700 300h100v100H700z"/></svg>