<svg xmlns="http://www.w3.org/2000/svg" viewBox="0 0 800 400"><defs/><path fill="#36c1e3" d="M0 0h100v100H0z"/><path fill="#92979a" d="M100 0h100v100H100z"/><path fill="#48b6ce" d="M200 0h100v100H200z"/><path fill="#41c3e7" d="M300 0h100v100H300z"/><path fill="#34c6fa" d="M400 0h100v100H400z"/><path fill="#1fc6f5" d="M500 0h100v100H500z"/><path fill="#45c6d2" d="M600 0h100v100H600z"/><path fill="#b3ce8c" d="M700 0h100v100H700z"/><path fill="#45a7c5" d="M0 100h100v100H0z"/><path fill="#848f96" d="M100 100h100v100H100z"/><path fill="#617969" d="M200 100h100v100H200z"/><path fill="#679daf" d="M300 100h100v100H300z"/><path fill="#43bde8" d="M400 100h100v100H400z"/><path fill="#4d98c5" d="M500 100h100v100H500z"/><path fill="#53a7b6" d="M600 100h100v100H600z"/><path fill="#9db1a7" d="M700 100h100v100H700z"/><path fill="#5ea5bf" d="M0 200h100v100H0z"/><path fill="#957d80" d="M100 200h100v100H100z"/><path fill="#49626f" d="M200 200h100v100H200z"/><path fill="#707e7b" d="M300 200h100v100H300z"/><path fill="#5d8ec5" d="M400 200h100v100H400z"/><path fill="#485996" d="M500 200h100v100H500z"/><path fill="#045bc2" d="M600 200h100v100H600z"/><path fill="#8baca9" d="M700 200h100v100H700z"/><path fill="#889491" d="M0 300h100v100H0z"/><path fill="#ae7651" d="M100 300h100v100H100z"/><path fill="#4c6483" d="M200 300h100v100H200z"/><path fill="#816774" d="M300 300h100v100H300z"/><path fill="#c07a92" d="M400 300h100v100H400z"/><path fill="#957779" d="M500 300h100v100H500z"/><path fill="#715f57" d="M600 300h100v100H600z"/><path fill="#9a7e64" d="M700 300h100v100H700z"/></svg>