<svg xmlns="http://www.w3.org/2000/svg" viewBox="0 0 800 400"><defs/><path fill="#414458" d="M0 0h100v100H0z"/><path fill="#5f546e" d="M100 0h100v100H100z"/><path fill="#606880" d="M200 0h100v100H200z"/><path fill="#616b8b" d="M300 0h100v100H300z"/><path fill="#90a1b8" d="M400 0h100v100H400z"/><path fill="#9fb0c7" d="M500 0h100v100H500z"/><path fill="#8b9bb0" d="M600 0h100v100H600z"/><path fill="#514e7d" d="M700 0h100v100H700z"/><path fill="#4a4b60" d="M0 100h100v100H0z"/><path fill="#7c7f95" d="M100 100h100v100H100z"/><path fill="#94a6c0" d="M200 100h100v100H200z"/><path fill="#7c83a2" d="M300 100h100v100H300z"/><path fill="#6c6d8a" d="M400 100h100v100H400z"/><path fill="#9a99b9" d="M500 100h100v100H500z"/><path fill="#768fb2" d="M600 100h100v100H600z"/><path fill="#484674" d="M700 100h100v100H700z"/><path fill="#5a5b72" d="M0 200h100v100H0z"/><path fill="#8f9ab9" d="M100 200h100v100H100z"/><path fill="#a7af9b" d="M200 200h100v100H200z"/><path fill="#817f78" d="M300 200h100v100H300z"/><path fill="#95a3c3" d="M400 200h100v100H400z"/><path fill="#a6a9cb" d="M500 200h100v100H500z"/><path fill="#8795af" d="M600 200h100v100H600z"/><path fill="#49487a" d="M700 200h100v100H700z"/><path fill="#6c7085" d="M0 300h100v100H0z"/><path fill="#6a758c" d="M100 300h100v100H100z"/><path fill="#929fa2" d="M200 300h100v100H200z"/><path fill="#aabbb1" d="M300 300h100v100H300z"/><path fill="#7d8ca6" d="M400 300h100v100H400z"/><path fill="#98b" d="M500 300h100v100H500z"/><path fill="#a594ad" d="M600 300h100v100H600z"/><path fill="#747b9e" d="M700 300h100v100H700z"/></svg>