<svg xmlns="http://www.w3.org/2000/svg" viewBox="0 0 800 600"><defs/><path fill="#d5d7d8" d="M0 0h100v100H0z"/><path fill="#d2d1cf" d="M100 0h100v100H100z"/><path fill="#d2d1d2" d="M200 0h100v100H200z"/><path fill="#ccd0d5" d="M300 0h100v100H300z"/><path fill="#d4dcdd" d="M400 0h100v100H400z"/><path fill="#cfd5d7" d="M500 0h100v100H500z"/><path fill="#d5d5d8" d="M600 0h100v100H600z"/><path fill="#ddddde" d="M700 0h100v100H700z"/><path fill="#5b6868" d="M0 100h100v100H0z"/><path fill="#3f4135" d="M100 100h100v100H100z"/><path fill="#2e3b38" d="M200 100h100v100H200z"/><path fill="#7d866a" d="M300 100h100v100H300z"/><path fill="#c79b4f" d="M400 100h100v100H400z"/><path fill="#916c36" d="M500 100h100v100H500z"/><path fill="#303d3d" d="M600 100h100v100H600z"/><path fill="#536061" d="M700 100h100v100H700z"/><path fill="#616a68" d="M0 200h100v100H0z"/><path fill="#383a32" d="M100 200h100v100H100z"/><path fill="#596859" d="M200 200h100v100H200z"/><path fill="#b3ad65" d="M300 200h100v100H300z"/><path fill="#a7642b" d="M400 200h100v100H400z"/><path fill="#9c7842" d="M500 200h100v100H500z"/><path fill="#3c4a40" d="M600 200h100v100H600z"/><path fill="#4d5b5f" d="M700 200h100v100H700z"/><path fill="#636c66" d="M0 300h100v100H0z"/><path fill="#46463d" d="M100 300h100v100H100z"/><path fill="#7b7676" d="M200 300h100v100H200z"/><path fill="#666652" d="M300 300h100v100H300z"/><path fill="#546457" d="M400 300h100v100H400z"/><path fill="#506c4c" d="M500 300h100v100H500z"/><path fill="#536047" d="M600 300h100v100H600z"/><path fill="#596b6a" d="M700 300h100v100H700z"/><path fill="#5a5d54" d="M0 400h100v100H0z"/><path fill="#3f2b27" d="M100 400h100v100H100z"/><path fill="#562b35" d="M200 400h100v100H200z"/><path fill="#422f43" d="M300 400h100v100H300z"/><path fill="#173543" d="M400 400h100v100H400z"/><path fill="#183845" d="M500 400h100v100H500z"/><path fill="#1c3838" d="M600 400h100v100H600z"/><path fill="#41565a" d="M700 400h100v100H700z"/><path fill="#c2bdbe" d="M0 500h100v100H0z"/><path fill="#b4a8ab" d="M100 500h100v100H100z"/><path fill="#bdb0b3" d="M200 500h100v100H200z"/><path fill="#bcb0b1" d="M300 500h100v100H300z"/><path fill="#b2aaab" d="M400 500h100v100H400z"/><path fill="#b3abac" d="M500 500h100v100H500z"/><path fill="#aca5ab" d="M600 500h100v100H600z"/><path fill="#c0b9bc" d="M700 500h100v100H700z"/></svg>