<svg xmlns="http://www.w3.org/2000/svg" viewBox="0 0 800 500"><defs/><path fill="#d1abaa" d="M0 0h100v100H0z"/><path fill="#d6b3b0" d="M100 0h100v100H100z"/><path fill="#c7acae" d="M200 0h100v100H200z"/><path fill="#b28983" d="M300 0h100v100H300z"/><path fill="#d98058" d="M400 0h100v100H400z"/><path fill="#f29462" d="M500 0h100v100H500z"/><path fill="#cb8262" d="M600 0h100v100H600z"/><path fill="#c06f4f" d="M700 0h100v100H700z"/><path fill="#c8a1a1" d="M0 100h100v100H0z"/><path fill="#c59d9f" d="M100 100h100v100H100z"/><path fill="#cb9f9c" d="M200 100h100v100H200z"/><path fill="#d3adad" d="M300 100h100v100H300z"/><path fill="#cf9587" d="M400 100h100v100H400z"/><path fill="#d9a38f" d="M500 100h100v100H500z"/><path fill="#d3b4a3" d="M600 100h100v100H600z"/><path fill="#c0a396" d="M700 100h100v100H700z"/><path fill="#dbd5db" d="M0 200h100v100H0z"/><path fill="#dfd5db" d="M100 200h100v100H100z"/><path fill="#e5b49d" d="M200 200h100v100H200z"/><path fill="#de8559" d="M300 200h100v100H300z"/><path fill="#d8a79b" d="M400 200h100v100H400z"/><path fill="#e8c7be" d="M500 200h100v100H500z"/><path fill="#ddb1a6" d="M600 200h100v100H600z"/><path fill="#ceaf9d" d="M700 200h100v100H700z"/><path fill="#e2d4d6" d="M0 300h100v100H0z"/><path fill="#e7d5d5" d="M100 300h100v100H100z"/><path fill="#e8cfc6" d="M200 300h100v100H200z"/><path fill="#f3dbca" d="M300 300h100v100H300z"/><path fill="#ecd9ce" d="M400 300h100v100H400z"/><path fill="#aaa899" d="M500 300h100v100H500z"/><path fill="#a5938a" d="M600 300h100v100H600z"/><path fill="#aa9384" d="M700 300h100v100H700z"/><path fill="#d59884" d="M0 400h100v100H0z"/><path fill="#e2a081" d="M100 400h100v100H100z"/><path fill="#ceadae" d="M200 400h100v100H200z"/><path fill="#b7aba4" d="M300 400h100v100H300z"/><path fill="#8f9679" d="M400 400h100v100H400z"/><path fill="#677357" d="M500 400h100v100H500z"/><path fill="#687155" d="M600 400h100v100H600z"/><path fill="#6b6a50" d="M700 400h100v100H700z"/></svg>