<svg xmlns="http://www.w3.org/2000/svg" viewBox="0 0 800 600"><defs/><path fill="#fcf9f3" d="M0 0h100v100H0z"/><path fill="#f7faf0" d="M100 0h100v100H100z"/><path fill="#f4f9f9" d="M200 0h100v100H200z"/><path fill="#f4f9fb" d="M300 0h100v100H300z"/><path fill="#f5f9fb" d="M400 0h100v100H400z"/><path fill="#f6f9fa" d="M500 0h100v100H500z"/><path fill="#f2f2f2" d="M600 0h100v100H600z"/><path fill="#fbf4f1" d="M700 0h100v100H700z"/><path fill="#efcd9e" d="M0 100h100v100H0z"/><path fill="#c6b48d" d="M100 100h100v100H100z"/><path fill="#96c4d4" d="M200 100h100v100H200z"/><path fill="#a8d5dd" d="M300 100h100v100H300z"/><path fill="#a8d5d7" d="M400 100h100v100H400z"/><path fill="#9fcfde" d="M500 100h100v100H500z"/><path fill="#9a897f" d="M600 100h100v100H600z"/><path fill="#df9f88" d="M700 100h100v100H700z"/><path fill="#e9cda5" d="M0 200h100v100H0z"/><path fill="#b8bbaa" d="M100 200h100v100H100z"/><path fill="#92c5da" d="M200 200h100v100H200z"/><path fill="#a6c6c0" d="M300 200h100v100H300z"/><path fill="#a7c8c2" d="M400 200h100v100H400z"/><path fill="#9dc4cd" d="M500 200h100v100H500z"/><path fill="#8b807b" d="M600 200h100v100H600z"/><path fill="#d2afa5" d="M700 200h100v100H700z"/><path fill="#ddc69b" d="M0 300h100v100H0z"/><path fill="#acbba1" d="M100 300h100v100H100z"/><path fill="#adc3c8" d="M200 300h100v100H200z"/><path fill="#b4b7b3" d="M300 300h100v100H300z"/><path fill="#beb8a9" d="M400 300h100v100H400z"/><path fill="#c4b19a" d="M500 300h100v100H500z"/><path fill="#968570" d="M600 300h100v100H600z"/><path fill="#d09f82" d="M700 300h100v100H700z"/><path fill="#dcb79d" d="M0 400h100v100H0z"/><path fill="#c7b090" d="M100 400h100v100H100z"/><path fill="#bcb29e" d="M200 400h100v100H200z"/><path fill="#beaa8b" d="M300 400h100v100H300z"/><path fill="#b7c5b5" d="M400 400h100v100H400z"/><path fill="#ccb09b" d="M500 400h100v100H500z"/><path fill="#b8a172" d="M600 400h100v100H600z"/><path fill="#b8aa85" d="M700 400h100v100H700z"/><path fill="#f2eff0" d="M0 500h100v100H0z"/><path fill="#ede9ea" d="M100 500h100v100H100z"/><path fill="#f2ebe3" d="M200 500h100v100H200z"/><path fill="#f9f2da" d="M300 500h100v100H300z"/><path fill="#f8f8d8" d="M400 500h100v100H400z"/><path fill="#f5f1de" d="M500 500h100v100H500z"/><path fill="#fbece1" d="M600 500h100v100H600z"/><path fill="#ece9dd" d="M700 500h100v100H700z"/></svg>