<svg xmlns="http://www.w3.org/2000/svg" viewBox="0 0 800 400"><defs/><path fill="#684437" d="M0 0h100v100H0z"/><path fill="#9c614c" d="M100 0h100v100H100z"/><path fill="#c28164" d="M200 0h100v100H200z"/><path fill="#a2755d" d="M300 0h100v100H300z"/><path fill="#9b6650" d="M400 0h100v100H400z"/><path fill="#b47253" d="M500 0h100v100H500z"/><path fill="#db9470" d="M600 0h100v100H600z"/><path fill="#c17052" d="M700 0h100v100H700z"/><path fill="#70483c" d="M0 100h100v100H0z"/><path fill="#905847" d="M100 100h100v100H100z"/><path fill="#945c4b" d="M200 100h100v100H200z"/><path fill="#85584a" d="M300 100h100v100H300z"/><path fill="#906144" d="M400 100h100v100H400z"/><path fill="#c07e5b" d="M500 100h100v100H500z"/><path fill="#f6b79c" d="M600 100h100v100H600z"/><path fill="#c2775c" d="M700 100h100v100H700z"/><path fill="#674035" d="M0 200h100v100H0z"/><path fill="#654239" d="M100 200h100v100H100z"/><path fill="#784c47" d="M200 200h100v100H200z"/><path fill="#915d5a" d="M300 200h100v100H300z"/><path fill="#a26654" d="M400 200h100v100H400z"/><path fill="#a5625c" d="M500 200h100v100H500z"/><path fill="#a96969" d="M600 200h100v100H600z"/><path fill="#7e4d41" d="M700 200h100v100H700z"/><path fill="#6d4439" d="M0 300h100v100H0z"/><path fill="#6f4a3e" d="M100 300h100v100H100z"/><path fill="#774d46" d="M200 300h100v100H200z"/><path fill="#7d4d4a" d="M300 300h100v100H300z"/><path fill="#874845" d="M400 300h100v100H400z"/><path fill="#7d4747" d="M500 300h100v100H500z"/><path fill="#6e3f3f" d="M600 300h100v100H600z"/><path fill="#6a3b32" d="M700 300h100v100H700z"/></svg>