<svg xmlns="http://www.w3.org/2000/svg" viewBox="0 0 800 1100"><defs/><path fill="#7a7e72" d="M0 0h100v100H0z"/><path fill="#a4a795" d="M100 0h100v100H100z"/><path fill="#b3b5a2" d="M200 0h100v100H200z"/><path fill="#b0b39f" d="M300 0h100v100H300z"/><path fill="#b4b7a3" d="M400 0h100v100H400z"/><path fill="#b1b39f" d="M500 0h100v100H500z"/><path fill="#a4aa9b" d="M600 0h100v100H600z"/><path fill="#4f514c" d="M700 0h100v100H700z"/><path fill="#b2b49f" d="M0 100h100v100H0z"/><path fill="#a9a787" d="M100 100h100v100H100z"/><path fill="#ada883" d="M200 100h100v100H200z"/><path fill="#a6a07f" d="M300 100h100v100H300z"/><path fill="#a49b82" d="M400 100h100v100H400z"/><path fill="#b8b7a2" d="M500 100h100v100H500z"/><path fill="#c4bb9f" d="M600 100h100v100H600z"/><path fill="#adab98" d="M700 100h100v100H700z"/><path fill="#aaa58d" d="M0 200h100v100H0z"/><path fill="#8f754f" d="M100 200h100v100H100z"/><path fill="#928461" d="M200 200h100v100H200z"/><path fill="#928769" d="M300 200h100v100H300z"/><path fill="#8b724e" d="M400 200h100v100H400z"/><path fill="#85633c" d="M500 200h100v100H500z"/><path fill="#936234" d="M600 200h100v100H600z"/><path fill="#c4b08c" d="M700 200h100v100H700z"/><path fill="#8d7350" d="M0 300h100v100H0z"/><path fill="#897b5d" d="M100 300h100v100H100z"/><path fill="#a9a893" d="M200 300h100v100H200z"/><path fill="#c1bea4" d="M300 300h100v100H300z"/><path fill="#c6c1a3" d="M400 300h100v100H400z"/><path fill="#ac9164" d="M500 300h100v100H500z"/><path fill="#8e5d2c" d="M600 300h100v100H600z"/><path fill="#b49978" d="M700 300h100v100H700z"/><path fill="#6e4b29" d="M0 400h100v100H0z"/><path fill="#a49675" d="M100 400h100v100H100z"/><path fill="#f1eecf" d="M200 400h100v100H200z"/><path fill="#f7f2d6" d="M300 400h100v100H300z"/><path fill="#efedd3" d="M400 400h100v100H400z"/><path fill="#ccbe9f" d="M500 400h100v100H500z"/><path fill="#9c6f3f" d="M600 400h100v100H600z"/><path fill="#beaf92" d="M700 400h100v100H700z"/><path fill="#6f4323" d="M0 500h100v100H0z"/><path fill="#b09166" d="M100 500h100v100H100z"/><path fill="#ebdbb6" d="M200 500h100v100H200z"/><path fill="#f7f3d9" d="M300 500h100v100H300z"/><path fill="#eee8ce" d="M400 500h100v100H400z"/><path fill="#cdb998" d="M500 500h100v100H500z"/><path fill="#956a45" d="M600 500h100v100H600z"/><path fill="#b49d73" d="M700 500h100v100H700z"/><path fill="#6b3b1d" d="M0 600h100v100H0z"/><path fill="#966c3f" d="M100 600h100v100H100z"/><path fill="#bf9364" d="M200 600h100v100H200z"/><path fill="#d3bd9c" d="M300 600h100v100H300z"/><path fill="#ded1b3" d="M400 600h100v100H400z"/><path fill="#c19b72" d="M500 600h100v100H500z"/><path fill="#9d7045" d="M600 600h100v100H600z"/><path fill="#b8a073" d="M700 600h100v100H700z"/><path fill="#886240" d="M0 700h100v100H0z"/><path fill="#8d5a2f" d="M100 700h100v100H100z"/><path fill="#9c6739" d="M200 700h100v100H200z"/><path fill="#a57043" d="M300 700h100v100H300z"/><path fill="#a8754b" d="M400 700h100v100H400z"/><path fill="#94633b" d="M500 700h100v100H500z"/><path fill="#a47b52" d="M600 700h100v100H600z"/><path fill="#ccc199" d="M700 700h100v100H700z"/><path fill="#c4bb95" d="M0 800h100v100H0z"/><path fill="#ab865f" d="M100 800h100v100H100z"/><path fill="#a67c51" d="M200 800h100v100H200z"/><path fill="#986436" d="M300 800h100v100H300z"/><path fill="#a27346" d="M400 800h100v100H400z"/><path fill="#a77c52" d="M500 800h100v100H500z"/><path fill="#cfbb99" d="M600 800h100v100H600z"/><path fill="#e1deb9" d="M700 800h100v100H700z"/><path fill="#d2d3ba" d="M0 900h100v100H0z"/><path fill="#dedfc9" d="M100 900h100v100H100z"/><path fill="#dcd4ba" d="M200 900h100v100H200z"/><path fill="#a97039" d="M300 900h100v100H300z"/><path fill="#b69061" d="M400 900h100v100H400z"/><path fill="#e0dbbb" d="M500 900h100v100H500z"/><path fill="#e7e5ce" d="M600 900h100v100H600z"/><path fill="#e5e4cc" d="M700 900h100v100H700z"/><path fill="#c7c5ac" d="M0 1000h100v100H0z"/><path fill="#d0cdb4" d="M100 1000h100v100H100z"/><path fill="#d9d6bb" d="M200 1000h100v100H200z"/><path fill="#c5aa7e" d="M300 1000h100v100H300z"/><path fill="#ccba98" d="M400 1000h100v100H400z"/><path fill="#e1e2c9" d="M500 1000h100v100H500z"/><path fill="#deddc4" d="M600 1000h100v100H600z"/><path fill="#d2d1ba" d="M700 1000h100v100H700z"/></svg>