<svg xmlns="http://www.w3.org/2000/svg" viewBox="0 0 800 500"><defs/><path fill="#c8c7c9" d="M0 0h100v100H0z"/><path fill="#aeafb2" d="M100 0h100v100H100z"/><path fill="#b5b5b7" d="M200 0h100v100H200z"/><path fill="#bbbebc" d="M300 0h100v100H300z"/><path fill="#bfccc6" d="M400 0h100v100H400z"/><path fill="#b8c2bf" d="M500 0h100v100H500z"/><path fill="#b8c1be" d="M600 0h100v100H600z"/><path fill="#c0c2c4" d="M700 0h100v100H700z"/><path fill="#4f4b4d" d="M0 100h100v100H0z"/><path fill="#170804" d="M100 100h100v100H100z"/><path fill="#543a25" d="M200 100h100v100H200z"/><path fill="#373024" d="M300 100h100v100H300z"/><path fill="#2a462d" d="M400 100h100v100H400z"/><path fill="#606b51" d="M500 100h100v100H500z"/><path fill="#7d6955" d="M600 100h100v100H600z"/><path fill="#665a51" d="M700 100h100v100H700z"/><path fill="#5a575a" d="M0 200h100v100H0z"/><path fill="#391c0e" d="M100 200h100v100H100z"/><path fill="#825733" d="M200 200h100v100H200z"/><path fill="#4e3e2b" d="M300 200h100v100H300z"/><path fill="#2e1915" d="M400 200h100v100H400z"/><path fill="#51241e" d="M500 200h100v100H500z"/><path fill="#602218" d="M600 200h100v100H600z"/><path fill="#62463e" d="M700 200h100v100H700z"/><path fill="#524c4d" d="M0 300h100v100H0z"/><path fill="#050000" d="M100 300h100v100H100z"/><path fill="#561c0d" d="M200 300h100v100H200z"/><path fill="#591f0f" d="M300 300h100v100H300z"/><path fill="#1e0602" d="M400 300h100v100H400z"/><path fill="#1c0503" d="M500 300h100v100H500z"/><path fill="#0d0000" d="M600 300h100v100H600z"/><path fill="#302826" d="M700 300h100v100H700z"/><path fill="#9b9495" d="M0 400h100v100H0z"/><path fill="#766261" d="M100 400h100v100H100z"/><path fill="#93746c" d="M200 400h100v100H200z"/><path fill="#90726a" d="M300 400h100v100H300z"/><path fill="#7d6d67" d="M400 400h100v100H400z"/><path fill="#7c6c67" d="M500 400h100v100H500z"/><path fill="#73615d" d="M600 400h100v100H600z"/><path fill="#827879" d="M700 400h100v100H700z"/></svg>