<svg xmlns="http://www.w3.org/2000/svg" viewBox="0 0 800 600"><defs/><path fill="#e5d5b8" d="M0 0h100v100H0z"/><path fill="#c0a177" d="M100 0h100v100H100z"/><path fill="#c7ad90" d="M200 0h100v100H200z"/><path fill="#ccb696" d="M300 0h100v100H300z"/><path fill="#b39c78" d="M400 0h100v100H400z"/><path fill="#b09d78" d="M500 0h100v100H500z"/><path fill="#cab391" d="M600 0h100v100H600z"/><path fill="#d4bb9a" d="M700 0h100v100H700z"/><path fill="#decaa7" d="M0 100h100v100H0z"/><path fill="#9f7651" d="M100 100h100v100H100z"/><path fill="#95705b" d="M200 100h100v100H200z"/><path fill="#ab9475" d="M300 100h100v100H300z"/><path fill="#726849" d="M400 100h100v100H400z"/><path fill="#877555" d="M500 100h100v100H500z"/><path fill="#c2a98b" d="M600 100h100v100H600z"/><path fill="#bd9977" d="M700 100h100v100H700z"/><path fill="#ceb08a" d="M0 200h100v100H0z"/><path fill="#83674a" d="M100 200h100v100H100z"/><path fill="#9d8771" d="M200 200h100v100H200z"/><path fill="#ae937a" d="M300 200h100v100H300z"/><path fill="#8b755f" d="M400 200h100v100H400z"/><path fill="#8d7563" d="M500 200h100v100H500z"/><path fill="#bca185" d="M600 200h100v100H600z"/><path fill="#c7a989" d="M700 200h100v100H700z"/><path fill="#b28f67" d="M0 300h100v100H0z"/><path fill="#97764d" d="M100 300h100v100H100z"/><path fill="#b18f73" d="M200 300h100v100H200z"/><path fill="#a58562" d="M300 300h100v100H300z"/><path fill="#927152" d="M400 300h100v100H400z"/><path fill="#9f7c4e" d="M500 300h100v100H500z"/><path fill="#886b50" d="M600 300h100v100H600z"/><path fill="#a38974" d="M700 300h100v100H700z"/><path fill="#957248" d="M0 400h100v100H0z"/><path fill="#9e7b4f" d="M100 400h100v100H100z"/><path fill="#96795f" d="M200 400h100v100H200z"/><path fill="#9b5633" d="M300 400h100v100H300z"/><path fill="#a05430" d="M400 400h100v100H400z"/><path fill="#a96d3e" d="M500 400h100v100H500z"/><path fill="#7f6248" d="M600 400h100v100H600z"/><path fill="#846a56" d="M700 400h100v100H700z"/><path fill="#917052" d="M0 500h100v100H0z"/><path fill="#977860" d="M100 500h100v100H100z"/><path fill="#917359" d="M200 500h100v100H200z"/><path fill="#a45c4b" d="M300 500h100v100H300z"/><path fill="#9f5044" d="M400 500h100v100H400z"/><path fill="#955b4b" d="M500 500h100v100H500z"/><path fill="#886951" d="M600 500h100v100H600z"/><path fill="#886b53" d="M700 500h100v100H700z"/></svg>