<svg xmlns="http://www.w3.org/2000/svg" viewBox="0 0 800 600"><defs/><path fill="#190607" d="M0 0h100v100H0z"/><path fill="#180608" d="M100 0h100v100H100z"/><path fill="#110606" d="M200 0h100v100H200z"/><path fill="#190d0d" d="M300 0h100v100H300z"/><path fill="#17080b" d="M400 0h100v100H400z"/><path fill="#100506" d="M500 0h100v100H500z"/><path fill="#140e0d" d="M600 0h100v100H600z"/><path fill="#16090a" d="M700 0h100v100H700z"/><path fill="#691a22" d="M0 100h100v100H0z"/><path fill="#6e1a27" d="M100 100h100v100H100z"/><path fill="#5e2527" d="M200 100h100v100H200z"/><path fill="#894746" d="M300 100h100v100H300z"/><path fill="#9d323a" d="M400 100h100v100H400z"/><path fill="#852b40" d="M500 100h100v100H500z"/><path fill="#894d4a" d="M600 100h100v100H600z"/><path fill="#9d4244" d="M700 100h100v100H700z"/><path fill="#672122" d="M0 200h100v100H0z"/><path fill="#6f192c" d="M100 200h100v100H100z"/><path fill="#7c3544" d="M200 200h100v100H200z"/><path fill="#91574f" d="M300 200h100v100H300z"/><path fill="#6a2a2c" d="M400 200h100v100H400z"/><path fill="#683326" d="M500 200h100v100H500z"/><path fill="#683c2a" d="M600 200h100v100H600z"/><path fill="#a04e58" d="M700 200h100v100H700z"/><path fill="#61201e" d="M0 300h100v100H0z"/><path fill="#6e1d29" d="M100 300h100v100H100z"/><path fill="#8b3e4c" d="M200 300h100v100H200z"/><path fill="#8d695b" d="M300 300h100v100H300z"/><path fill="#733131" d="M400 300h100v100H400z"/><path fill="#643b24" d="M500 300h100v100H500z"/><path fill="#594b46" d="M600 300h100v100H600z"/><path fill="#7e4f50" d="M700 300h100v100H700z"/><path fill="#5b1b23" d="M0 400h100v100H0z"/><path fill="#762230" d="M100 400h100v100H100z"/><path fill="#8a3d56" d="M200 400h100v100H200z"/><path fill="#75464d" d="M300 400h100v100H300z"/><path fill="#9d4331" d="M400 400h100v100H400z"/><path fill="#c44930" d="M500 400h100v100H500z"/><path fill="#833840" d="M600 400h100v100H600z"/><path fill="#502748" d="M700 400h100v100H700z"/><path fill="#2e181c" d="M0 500h100v100H0z"/><path fill="#3d171d" d="M100 500h100v100H100z"/><path fill="#270713" d="M200 500h100v100H200z"/><path fill="#260915" d="M300 500h100v100H300z"/><path fill="#321414" d="M400 500h100v100H400z"/><path fill="#481815" d="M500 500h100v100H500z"/><path fill="#391920" d="M600 500h100v100H600z"/><path fill="#21102b" d="M700 500h100v100H700z"/></svg>