<svg xmlns="http://www.w3.org/2000/svg" viewBox="0 0 800 600"><defs/><path fill="#3a4855" d="M0 0h100v100H0z"/><path fill="#4c4f55" d="M100 0h100v100H100z"/><path fill="#3578a2" d="M200 0h100v100H200z"/><path fill="#427b9f" d="M300 0h100v100H300z"/><path fill="#385570" d="M400 0h100v100H400z"/><path fill="#1d456b" d="M500 0h100v100H500z"/><path fill="#2e4c6d" d="M600 0h100v100H600z"/><path fill="#3d4b5b" d="M700 0h100v100H700z"/><path fill="#3d4853" d="M0 100h100v100H0z"/><path fill="#46494f" d="M100 100h100v100H100z"/><path fill="#2f6085" d="M200 100h100v100H200z"/><path fill="#385a7d" d="M300 100h100v100H300z"/><path fill="#344b63" d="M400 100h100v100H400z"/><path fill="#264a68" d="M500 100h100v100H500z"/><path fill="#304a61" d="M600 100h100v100H600z"/><path fill="#3c4958" d="M700 100h100v100H700z"/><path fill="#434c54" d="M0 200h100v100H0z"/><path fill="#3d4653" d="M100 200h100v100H100z"/><path fill="#2e3261" d="M200 200h100v100H200z"/><path fill="#393866" d="M300 200h100v100H300z"/><path fill="#3c4660" d="M400 200h100v100H400z"/><path fill="#3b3e51" d="M500 200h100v100H500z"/><path fill="#11391f" d="M600 200h100v100H600z"/><path fill="#25433b" d="M700 200h100v100H700z"/><path fill="#404850" d="M0 300h100v100H0z"/><path fill="#443e3d" d="M100 300h100v100H100z"/><path fill="#353935" d="M200 300h100v100H200z"/><path fill="#343938" d="M300 300h100v100H300z"/><path fill="#343e34" d="M400 300h100v100H400z"/><path fill="#234b24" d="M500 300h100v100H500z"/><path fill="#263402" d="M600 300h100v100H600z"/><path fill="#293a31" d="M700 300h100v100H700z"/><path fill="#3f4049" d="M0 400h100v100H0z"/><path fill="#293a27" d="M100 400h100v100H100z"/><path fill="#004814" d="M200 400h100v100H200z"/><path fill="#074921" d="M300 400h100v100H300z"/><path fill="#0e3b32" d="M400 400h100v100H400z"/><path fill="#003e38" d="M500 400h100v100H500z"/><path fill="#161e32" d="M600 400h100v100H600z"/><path fill="#433838" d="M700 400h100v100H700z"/><path fill="#312726" d="M0 500h100v100H0z"/><path fill="#1f1f0d" d="M100 500h100v100H100z"/><path fill="#0a3e14" d="M200 500h100v100H200z"/><path fill="#054017" d="M300 500h100v100H300z"/><path fill="#142f43" d="M400 500h100v100H400z"/><path fill="#1c355c" d="M500 500h100v100H500z"/><path fill="#233d55" d="M600 500h100v100H600z"/><path fill="#7e7255" d="M700 500h100v100H700z"/></svg>