<svg xmlns="http://www.w3.org/2000/svg" viewBox="0 0 800 500"><defs/><path fill="#5f6366" d="M0 0h100v100H0z"/><path fill="#686c6f" d="M100 0h100v100H100z"/><path fill="#5e5f62" d="M200 0h100v100H200z"/><path fill="#67686a" d="M300 0h100v100H300z"/><path fill="#69686a" d="M400 0h100v100H400z"/><path fill="#585556" d="M500 0h100v100H500z"/><path fill="#575859" d="M600 0h100v100H600z"/><path fill="#585959" d="M700 0h100v100H700z"/><path fill="#7a7e84" d="M0 100h100v100H0z"/><path fill="#838d96" d="M100 100h100v100H100z"/><path fill="#82878d" d="M200 100h100v100H200z"/><path fill="#9ba1aa" d="M300 100h100v100H300z"/><path fill="#918f95" d="M400 100h100v100H400z"/><path fill="#787474" d="M500 100h100v100H500z"/><path fill="#6e7171" d="M600 100h100v100H600z"/><path fill="#5e6061" d="M700 100h100v100H700z"/><path fill="#82868b" d="M0 200h100v100H0z"/><path fill="#8e969e" d="M100 200h100v100H100z"/><path fill="#8a9299" d="M200 200h100v100H200z"/><path fill="#939da6" d="M300 200h100v100H300z"/><path fill="#a6a3a8" d="M400 200h100v100H400z"/><path fill="#868281" d="M500 200h100v100H500z"/><path fill="#7f7a79" d="M600 200h100v100H600z"/><path fill="#5e5d5e" d="M700 200h100v100H700z"/><path fill="#858b8f" d="M0 300h100v100H0z"/><path fill="#727883" d="M100 300h100v100H100z"/><path fill="#8f949e" d="M200 300h100v100H200z"/><path fill="#a6adb6" d="M300 300h100v100H300z"/><path fill="#a39c9e" d="M400 300h100v100H400z"/><path fill="#948e8c" d="M500 300h100v100H500z"/><path fill="#8a8083" d="M600 300h100v100H600z"/><path fill="#605c60" d="M700 300h100v100H700z"/><path fill="#8c8f96" d="M0 400h100v100H0z"/><path fill="#9da0a5" d="M100 400h100v100H100z"/><path fill="#80878f" d="M200 400h100v100H200z"/><path fill="#73797e" d="M300 400h100v100H300z"/><path fill="#727272" d="M400 400h100v100H400z"/><path fill="#75726f" d="M500 400h100v100H500z"/><path fill="#6d6b6a" d="M600 400h100v100H600z"/><path fill="#575a59" d="M700 400h100v100H700z"/></svg>