<svg xmlns="http://www.w3.org/2000/svg" viewBox="0 0 800 400"><defs/><path fill="#dac8c5" d="M0 0h100v100H0z"/><path fill="#c4a9a1" d="M100 0h100v100H100z"/><path fill="#d5caa2" d="M200 0h100v100H200z"/><path fill="#d3bfa5" d="M300 0h100v100H300z"/><path fill="#c9b69d" d="M400 0h100v100H400z"/><path fill="#ddd29e" d="M500 0h100v100H500z"/><path fill="#dfb278" d="M600 0h100v100H600z"/><path fill="#d7aea4" d="M700 0h100v100H700z"/><path fill="#d4beb9" d="M0 100h100v100H0z"/><path fill="#c1ad9b" d="M100 100h100v100H100z"/><path fill="#ccd1b8" d="M200 100h100v100H200z"/><path fill="#bec9a7" d="M300 100h100v100H300z"/><path fill="#c0c292" d="M400 100h100v100H400z"/><path fill="#c7a06d" d="M500 100h100v100H500z"/><path fill="#d08d5b" d="M600 100h100v100H600z"/><path fill="#d3a498" d="M700 100h100v100H700z"/><path fill="#cbb3ad" d="M0 200h100v100H0z"/><path fill="#b9aa9f" d="M100 200h100v100H100z"/><path fill="#c2bdb2" d="M200 200h100v100H200z"/><path fill="#acbaa9" d="M300 200h100v100H300z"/><path fill="#aeb9a1" d="M400 200h100v100H400z"/><path fill="#917982" d="M500 200h100v100H500z"/><path fill="#a37164" d="M600 200h100v100H600z"/><path fill="#c79284" d="M700 200h100v100H700z"/><path fill="#bfa9a2" d="M0 300h100v100H0z"/><path fill="#b9b7b4" d="M100 300h100v100H100z"/><path fill="#b8aca6" d="M200 300h100v100H200z"/><path fill="#bca69f" d="M300 300h100v100H300z"/><path fill="#b9a69b" d="M400 300h100v100H400z"/><path fill="#786792" d="M500 300h100v100H500z"/><path fill="#857580" d="M600 300h100v100H600z"/><path fill="#ab9487" d="M700 300h100v100H700z"/></svg>