<svg xmlns="http://www.w3.org/2000/svg" viewBox="0 0 800 400"><defs/><path fill="#dcd9d2" d="M0 0h100v100H0z"/><path fill="#b8b7b3" d="M100 0h100v100H100z"/><path fill="#cececb" d="M200 0h100v100H200z"/><path fill="#f2f1ed" d="M300 0h100v100H300z"/><path fill="#e8e6e2" d="M400 0h100v100H400z"/><path fill="#e4e2de" d="M500 0h100v100H500z"/><path fill="#dbdad6" d="M600 0h100v100H600z"/><path fill="#d4d3cd" d="M700 0h100v100H700z"/><path fill="#d8d6cf" d="M0 100h100v100H0z"/><path fill="#a2a39f" d="M100 100h100v100H100z"/><path fill="#c5c6c5" d="M200 100h100v100H200z"/><path fill="#d7d6d1" d="M300 100h100v100H300z"/><path fill="#e5e5e0" d="M400 100h100v100H400z"/><path fill="#dcddd8" d="M500 100h100v100H500z"/><path fill="#c7c7c2" d="M600 100h100v100H600z"/><path fill="#cdcdc7" d="M700 100h100v100H700z"/><path fill="#c8c6c0" d="M0 200h100v100H0z"/><path fill="#9fa09d" d="M100 200h100v100H100z"/><path fill="#c2c3c1" d="M200 200h100v100H200z"/><path fill="#b0b1ac" d="M300 200h100v100H300z"/><path fill="#a5a6a2" d="M400 200h100v100H400z"/><path fill="#acaea9" d="M500 200h100v100H500z"/><path fill="#b4b4b0" d="M600 200h100v100H600z"/><path fill="#dbdad5" d="M700 200h100v100H700z"/><path fill="#bdbdb6" d="M0 300h100v100H0z"/><path fill="#babab6" d="M100 300h100v100H100z"/><path fill="#cdcdc8" d="M200 300h100v100H200z"/><path fill="#9e9f9d" d="M300 300h100v100H300z"/><path fill="#949692" d="M400 300h100v100H400z"/><path fill="#949593" d="M500 300h100v100H500z"/><path fill="#838584" d="M600 300h100v100H600z"/><path fill="#b4b5b2" d="M700 300h100v100H700z"/></svg>