<svg xmlns="http://www.w3.org/2000/svg" viewBox="0 0 800 600"><defs/><path fill="#fefefe" d="M0 0h100v100H0z"/><path fill="#fcfcfd" d="M100 0h100v100H100z"/><path fill="#fdfdfc" d="M200 0h100v100H200z"/><path fill="#fffefd" d="M300 0h100v100H300z"/><path fill="#fcfcfc" d="M400 0h100v100H400z"/><path fill="#fdfefe" d="M500 0h100v100H500z"/><path fill="#fcfcfc" d="M600 0h100v100H600zm100 0h100v100H700z"/><path fill="#fbfbfb" d="M0 100h100v100H0z"/><path fill="#ede9e3" d="M100 100h100v100H100z"/><path fill="#f5f5f1" d="M200 100h100v100H200z"/><path fill="#f5f8fb" d="M300 100h100v100H300z"/><path fill="#faf5ef" d="M400 100h100v100H400z"/><path fill="#f7ede6" d="M500 100h100v100H500z"/><path fill="#f9f7f6" d="M600 100h100v100H600z"/><path fill="#fafafa" d="M700 100h100v100H700z"/><path fill="#fafaf8" d="M0 200h100v100H0z"/><path fill="#efebe2" d="M100 200h100v100H100z"/><path fill="#eef1ef" d="M200 200h100v100H200z"/><path fill="#e1ebef" d="M300 200h100v100H300z"/><path fill="#f6f3ed" d="M400 200h100v100H400z"/><path fill="#f9f7f3" d="M500 200h100v100H500z"/><path fill="#f8f4f2" d="M600 200h100v100H600z"/><path fill="#f6f3f2" d="M700 200h100v100H700z"/><path fill="#f8f7f4" d="M0 300h100v100H0z"/><path fill="#e4e1d7" d="M100 300h100v100H100z"/><path fill="#e9e5de" d="M200 300h100v100H200z"/><path fill="#ece7df" d="M300 300h100v100H300z"/><path fill="#eee8db" d="M400 300h100v100H400z"/><path fill="#ebe5db" d="M500 300h100v100H500z"/><path fill="#edeae5" d="M600 300h100v100H600z"/><path fill="#f5f3f1" d="M700 300h100v100H700z"/><path fill="#f6f5f1" d="M0 400h100v100H0z"/><path fill="#ebeae1" d="M100 400h100v100H100z"/><path fill="#fafaf3" d="M200 400h100v100H200z"/><path fill="#f5f4eb" d="M300 400h100v100H300z"/><path fill="#f3f0ee" d="M400 400h100v100H400z"/><path fill="#ede7e0" d="M500 400h100v100H500z"/><path fill="#eeeae0" d="M600 400h100v100H600z"/><path fill="#f2eee9" d="M700 400h100v100H700z"/><path fill="#fefefe" d="M0 500h100v100H0z"/><path fill="#fffefe" d="M100 500h100v100H100z"/><path fill="#fefefd" d="M200 500h100v100H200z"/><path fill="#fff" d="M300 500h100v100H300z"/><path fill="#fdfdfd" d="M400 500h100v100H400z"/><path fill="#fdfefd" d="M500 500h100v100H500z"/><path fill="#fefefd" d="M600 500h100v100H600z"/><path fill="#fdfdfc" d="M700 500h100v100H700z"/></svg>