<svg xmlns="http://www.w3.org/2000/svg" viewBox="0 0 800 500"><defs/><path fill="#f9f8f4" d="M0 0h100v100H0z"/><path fill="#ece9e5" d="M100 0h100v100H100z"/><path fill="#ece8e6" d="M200 0h100v100H200z"/><path fill="#f7f6f2" d="M300 0h100v100H300z"/><path fill="#f4f2ee" d="M400 0h100v100H400z"/><path fill="#f7f5f2" d="M500 0h100v100H500z"/><path fill="#f3f2ed" d="M600 0h100v100H600z"/><path fill="#f2f0e9" d="M700 0h100v100H700z"/><path fill="#e2ddcd" d="M0 100h100v100H0z"/><path fill="#aea494" d="M100 100h100v100H100z"/><path fill="#c1b7ab" d="M200 100h100v100H200z"/><path fill="#e5ded0" d="M300 100h100v100H300z"/><path fill="#e2dfd5" d="M400 100h100v100H400z"/><path fill="#dfd9ce" d="M500 100h100v100H500z"/><path fill="#d4cfc4" d="M600 100h100v100H600z"/><path fill="#bcb39e" d="M700 100h100v100H700z"/><path fill="#d7cfc0" d="M0 200h100v100H0z"/><path fill="#b9af9e" d="M100 200h100v100H100z"/><path fill="#cac0b2" d="M200 200h100v100H200z"/><path fill="#786e6c" d="M300 200h100v100H300z"/><path fill="#7c6e66" d="M400 200h100v100H400z"/><path fill="#c8c1b0" d="M500 200h100v100H500z"/><path fill="#d2c6b3" d="M600 200h100v100H600z"/><path fill="#b3a68f" d="M700 200h100v100H700z"/><path fill="#c2baac" d="M0 300h100v100H0z"/><path fill="#b7ab9b" d="M100 300h100v100H100z"/><path fill="#7b7068" d="M200 300h100v100H200z"/><path fill="#83746e" d="M300 300h100v100H300z"/><path fill="#907f73" d="M400 300h100v100H400z"/><path fill="#b8b1a1" d="M500 300h100v100H500z"/><path fill="#cfb69d" d="M600 300h100v100H600z"/><path fill="#b08259" d="M700 300h100v100H700z"/><path fill="#e1ddd8" d="M0 400h100v100H0z"/><path fill="#dfd9d0" d="M100 400h100v100H100z"/><path fill="#8d8a86" d="M200 400h100v100H200z"/><path fill="#efede3" d="M300 400h100v100H300z"/><path fill="#fffff7" d="M400 400h100v100H400z"/><path fill="#fffcf2" d="M500 400h100v100H500z"/><path fill="#f8efe3" d="M600 400h100v100H600z"/><path fill="#d4c7bc" d="M700 400h100v100H700z"/></svg>