<svg xmlns="http://www.w3.org/2000/svg" viewBox="0 0 800 800"><defs/><path fill="#fefefe" d="M0 0h100v100H0z"/><path fill="#fff" d="M100 0h100v100H100z"/><path fill="#fefefd" d="M200 0h100v100H200z"/><path fill="#f5ece5" d="M300 0h100v100H300z"/><path fill="#fcfaf9" d="M400 0h100v100H400z"/><path fill="#fff" d="M500 0h100v100H500z"/><path fill="#fefdfd" d="M600 0h100v100H600z"/><path fill="#fdfdfd" d="M700 0h100v100H700z"/><path fill="#fff" d="M0 100h100v100H0z"/><path fill="#f7f3ef" d="M100 100h100v100H100z"/><path fill="#e9d4bf" d="M200 100h100v100H200z"/><path fill="#e6a976" d="M300 100h100v100H300z"/><path fill="#e1b58f" d="M400 100h100v100H400z"/><path fill="#f1e4d9" d="M500 100h100v100H500z"/><path fill="#feffff" d="M600 100h100v100H600z"/><path fill="#fefefe" d="M700 100h100v100H700z"/><path fill="#fcf8f5" d="M0 200h100v100H0z"/><path fill="#e0bd9c" d="M100 200h100v100H100z"/><path fill="#e4b184" d="M200 200h100v100H200z"/><path fill="#d4894f" d="M300 200h100v100H300z"/><path fill="#dba068" d="M400 200h100v100H400z"/><path fill="#eccaa0" d="M500 200h100v100H500z"/><path fill="#e8d4bf" d="M600 200h100v100H600z"/><path fill="#faf7f4" d="M700 200h100v100H700z"/><path fill="#fff7f2" d="M0 300h100v100H0z"/><path fill="#d1b896" d="M100 300h100v100H100z"/><path fill="#958b6e" d="M200 300h100v100H200z"/><path fill="#be8657" d="M300 300h100v100H300z"/><path fill="#b89566" d="M400 300h100v100H400z"/><path fill="#cdb89b" d="M500 300h100v100H500z"/><path fill="#bda689" d="M600 300h100v100H600z"/><path fill="#d6cdc2" d="M700 300h100v100H700z"/><path fill="#fefaf7" d="M0 400h100v100H0z"/><path fill="#d7a97e" d="M100 400h100v100H100z"/><path fill="#9d653b" d="M200 400h100v100H200z"/><path fill="#bf784d" d="M300 400h100v100H300z"/><path fill="#d38551" d="M400 400h100v100H400z"/><path fill="#b6957c" d="M500 400h100v100H500z"/><path fill="#8d7a6b" d="M600 400h100v100H600z"/><path fill="#dccbbe" d="M700 400h100v100H700z"/><path fill="#fdfdfc" d="M0 500h100v100H0z"/><path fill="#e3c5ad" d="M100 500h100v100H100z"/><path fill="#e2a474" d="M200 500h100v100H200z"/><path fill="#cd885a" d="M300 500h100v100H300z"/><path fill="#cc8a5a" d="M400 500h100v100H400z"/><path fill="#8a7259" d="M500 500h100v100H500z"/><path fill="#8b5d3e" d="M600 500h100v100H600z"/><path fill="#f1dac8" d="M700 500h100v100H700z"/><path fill="#fefefe" d="M0 600h100v100H0z"/><path fill="#feffff" d="M100 600h100v100H100z"/><path fill="#f4f1ec" d="M200 600h100v100H200z"/><path fill="#efd1b4" d="M300 600h100v100H300z"/><path fill="#dda67a" d="M400 600h100v100H400z"/><path fill="#b38156" d="M500 600h100v100H500z"/><path fill="#dfbda1" d="M600 600h100v100H600z"/><path fill="#f8f6f4" d="M700 600h100v100H700z"/><path fill="#fdfdfd" d="M0 700h100v100H0z"/><path fill="#fdfcfc" d="M100 700h100v100H100z"/><path fill="#fff" d="M200 700h100v100H200z"/><path fill="#fcfdfd" d="M300 700h100v100H300z"/><path fill="#f1e5d8" d="M400 700h100v100H400z"/><path fill="#f8efe6" d="M500 700h100v100H500z"/><path fill="#fff" d="M600 700h100v100H600z"/><path fill="#fefefe" d="M700 700h100v100H700z"/></svg>