<svg xmlns="http://www.w3.org/2000/svg" viewBox="0 0 800 500"><defs/><path fill="#d89d6e" d="M0 0h100v100H0z"/><path fill="#987659" d="M100 0h100v100H100z"/><path fill="#3f5857" d="M200 0h100v100H200z"/><path fill="#536a5f" d="M300 0h100v100H300z"/><path fill="#556d65" d="M400 0h100v100H400z"/><path fill="#597569" d="M500 0h100v100H500z"/><path fill="#3e6977" d="M600 0h100v100H600z"/><path fill="#c6ae98" d="M700 0h100v100H700z"/><path fill="#d49b6e" d="M0 100h100v100H0z"/><path fill="#826a55" d="M100 100h100v100H100z"/><path fill="#2a4e58" d="M200 100h100v100H200z"/><path fill="#3f5f5f" d="M300 100h100v100H300z"/><path fill="#4c6b6b" d="M400 100h100v100H400z"/><path fill="#40666a" d="M500 100h100v100H500z"/><path fill="#3e5c6b" d="M600 100h100v100H600z"/><path fill="#ac836e" d="M700 100h100v100H700z"/><path fill="#c6916a" d="M0 200h100v100H0z"/><path fill="#77685a" d="M100 200h100v100H100z"/><path fill="#0e3956" d="M200 200h100v100H200z"/><path fill="#294256" d="M300 200h100v100H300z"/><path fill="#5a5653" d="M400 200h100v100H400z"/><path fill="#515055" d="M500 200h100v100H500z"/><path fill="#515e65" d="M600 200h100v100H600z"/><path fill="#a7846e" d="M700 200h100v100H700z"/><path fill="#8e6854" d="M0 300h100v100H0z"/><path fill="#8d705f" d="M100 300h100v100H100z"/><path fill="#695a51" d="M200 300h100v100H200z"/><path fill="#574741" d="M300 300h100v100H300z"/><path fill="#7c716a" d="M400 300h100v100H400z"/><path fill="#816a60" d="M500 300h100v100H500z"/><path fill="#6e5d5f" d="M600 300h100v100H600z"/><path fill="#6d5c5d" d="M700 300h100v100H700z"/><path fill="#74574c" d="M0 400h100v100H0z"/><path fill="#84685d" d="M100 400h100v100H100z"/><path fill="#b08770" d="M200 400h100v100H200z"/><path fill="#716254" d="M300 400h100v100H300z"/><path fill="#3e453b" d="M400 400h100v100H400z"/><path fill="#4b5143" d="M500 400h100v100H500z"/><path fill="#7d6e6d" d="M600 400h100v100H600z"/><path fill="#766165" d="M700 400h100v100H700z"/></svg>