<svg xmlns="http://www.w3.org/2000/svg" viewBox="0 0 800 500"><defs/><path fill="#262b5f" d="M0 0h100v100H0z"/><path fill="#443a65" d="M100 0h100v100H100z"/><path fill="#554d79" d="M200 0h100v100H200z"/><path fill="#55508d" d="M300 0h100v100H300z"/><path fill="#b59fc1" d="M400 0h100v100H400z"/><path fill="#ffdbe8" d="M500 0h100v100H500z"/><path fill="#8780ad" d="M600 0h100v100H600z"/><path fill="#504f89" d="M700 0h100v100H700z"/><path fill="#38365f" d="M0 100h100v100H0z"/><path fill="#403a64" d="M100 100h100v100H100z"/><path fill="#494373" d="M200 100h100v100H200z"/><path fill="#50467f" d="M300 100h100v100H300z"/><path fill="#b9a1c3" d="M400 100h100v100H400z"/><path fill="#f3d1e0" d="M500 100h100v100H500z"/><path fill="#8f87aa" d="M600 100h100v100H600z"/><path fill="#4b4c84" d="M700 100h100v100H700z"/><path fill="#232652" d="M0 200h100v100H0z"/><path fill="#654a73" d="M100 200h100v100H100z"/><path fill="#9885ae" d="M200 200h100v100H200z"/><path fill="#7c75a7" d="M300 200h100v100H300z"/><path fill="#bda4c7" d="M400 200h100v100H400z"/><path fill="#b28ea9" d="M500 200h100v100H500z"/><path fill="#75627a" d="M600 200h100v100H600z"/><path fill="#8b7c9a" d="M700 200h100v100H700z"/><path fill="#20224b" d="M0 300h100v100H0z"/><path fill="#634061" d="M100 300h100v100H100z"/><path fill="#99688f" d="M200 300h100v100H200z"/><path fill="#604f78" d="M300 300h100v100H300z"/><path fill="#7c5b82" d="M400 300h100v100H400z"/><path fill="#77486b" d="M500 300h100v100H500z"/><path fill="#5d425d" d="M600 300h100v100H600z"/><path fill="#a284a5" d="M700 300h100v100H700z"/><path fill="#1b1a3b" d="M0 400h100v100H0z"/><path fill="#242043" d="M100 400h100v100H100z"/><path fill="#33254e" d="M200 400h100v100H200z"/><path fill="#432f55" d="M300 400h100v100H300z"/><path fill="#3f345c" d="M400 400h100v100H400z"/><path fill="#30214b" d="M500 400h100v100H500z"/><path fill="#21213b" d="M600 400h100v100H600z"/><path fill="#1c243b" d="M700 400h100v100H700z"/></svg>