<svg xmlns="http://www.w3.org/2000/svg" viewBox="0 0 800 600"><defs/><path fill="#98aed7" d="M0 0h100v100H0z"/><path fill="#8089a8" d="M100 0h100v100H100z"/><path fill="#a6b6d6" d="M200 0h100v100H200z"/><path fill="#a8b8cf" d="M300 0h100v100H300z"/><path fill="#a8b3bd" d="M400 0h100v100H400z"/><path fill="#a5b5d4" d="M500 0h100v100H500z"/><path fill="#94a5c7" d="M600 0h100v100H600z"/><path fill="#879bc3" d="M700 0h100v100H700z"/><path fill="#94acc1" d="M0 100h100v100H0z"/><path fill="#5e8174" d="M100 100h100v100H100z"/><path fill="#b5c4e2" d="M200 100h100v100H200z"/><path fill="#abbac8" d="M300 100h100v100H300z"/><path fill="#a8afa8" d="M400 100h100v100H400z"/><path fill="#aabbd2" d="M500 100h100v100H500z"/><path fill="#98a7c0" d="M600 100h100v100H600z"/><path fill="#a0aac9" d="M700 100h100v100H700z"/><path fill="#a29da1" d="M0 200h100v100H0z"/><path fill="#a6937f" d="M100 200h100v100H100z"/><path fill="#b2c3e0" d="M200 200h100v100H200z"/><path fill="#b6c5d9" d="M300 200h100v100H300z"/><path fill="#a9bcd5" d="M400 200h100v100H400z"/><path fill="#a1b6c8" d="M500 200h100v100H500z"/><path fill="#99afc3" d="M600 200h100v100H600z"/><path fill="#9dacc6" d="M700 200h100v100H700z"/><path fill="#8d739b" d="M0 300h100v100H0z"/><path fill="#8e779b" d="M100 300h100v100H100z"/><path fill="#9db2c9" d="M200 300h100v100H200z"/><path fill="#9ba7bc" d="M300 300h100v100H300z"/><path fill="#9bafbc" d="M400 300h100v100H400z"/><path fill="#9bb2c0" d="M500 300h100v100H500z"/><path fill="#99b3c8" d="M600 300h100v100H600z"/><path fill="#9aafcb" d="M700 300h100v100H700z"/><path fill="#4d5e99" d="M0 400h100v100H0z"/><path fill="#7787b3" d="M100 400h100v100H100z"/><path fill="#a3b6d1" d="M200 400h100v100H200z"/><path fill="#a2b1c5" d="M300 400h100v100H300z"/><path fill="#9eb2c9" d="M400 400h100v100H400z"/><path fill="#9db1ca" d="M500 400h100v100H500z"/><path fill="#a0b3d0" d="M600 400h100v100H600z"/><path fill="#9daccb" d="M700 400h100v100H700z"/><path fill="#739ccb" d="M0 500h100v100H0z"/><path fill="#8eaad4" d="M100 500h100v100H100z"/><path fill="#95abd1" d="M200 500h100v100H200z"/><path fill="#9bafd2" d="M300 500h100v100H300z"/><path fill="#9eb0d0" d="M400 500h100v100H400z"/><path fill="#9eafce" d="M500 500h100v100H500z"/><path fill="#98a9c9" d="M600 500h100v100H600z"/><path fill="#7c88ad" d="M700 500h100v100H700z"/></svg>