<svg xmlns="http://www.w3.org/2000/svg" viewBox="0 0 800 600"><defs/><path fill="#d1d485" d="M0 0h100v100H0z"/><path fill="#6b7362" d="M100 0h100v100H100z"/><path fill="#a19d6a" d="M200 0h100v100H200z"/><path fill="#a2bcad" d="M300 0h100v100H300z"/><path fill="#a2bdc8" d="M400 0h100v100H400z"/><path fill="#aabeb9" d="M500 0h100v100H500z"/><path fill="#a5a06c" d="M600 0h100v100H600z"/><path fill="#dedf92" d="M700 0h100v100H700z"/><path fill="#bbbc74" d="M0 100h100v100H0z"/><path fill="#676d55" d="M100 100h100v100H100z"/><path fill="#a6a461" d="M200 100h100v100H200z"/><path fill="#5e9b5f" d="M300 100h100v100H300z"/><path fill="#b7cdca" d="M400 100h100v100H400z"/><path fill="#cbd1c9" d="M500 100h100v100H500z"/><path fill="#9a915a" d="M600 100h100v100H600z"/><path fill="#e7e484" d="M700 100h100v100H700z"/><path fill="#a0a269" d="M0 200h100v100H0z"/><path fill="#838965" d="M100 200h100v100H100z"/><path fill="#f5ee93" d="M200 200h100v100H200z"/><path fill="#e8e47e" d="M300 200h100v100H300z"/><path fill="#f4f08b" d="M400 200h100v100H400z"/><path fill="#ded784" d="M500 200h100v100H500z"/><path fill="#e3dc82" d="M600 200h100v100H600z"/><path fill="#f1ef8e" d="M700 200h100v100H700z"/><path fill="#8f9566" d="M0 300h100v100H0z"/><path fill="#808169" d="M100 300h100v100H100z"/><path fill="#b49b7d" d="M200 300h100v100H200z"/><path fill="#ab9f69" d="M300 300h100v100H300z"/><path fill="#c3be8b" d="M400 300h100v100H400z"/><path fill="#a49974" d="M500 300h100v100H500z"/><path fill="#9d8b58" d="M600 300h100v100H600z"/><path fill="#e2da83" d="M700 300h100v100H700z"/><path fill="#727e61" d="M0 400h100v100H0z"/><path fill="#5d4f40" d="M100 400h100v100H100z"/><path fill="#866950" d="M200 400h100v100H200z"/><path fill="#74553f" d="M300 400h100v100H300z"/><path fill="#70563b" d="M400 400h100v100H400z"/><path fill="#764c2f" d="M500 400h100v100H500z"/><path fill="#60571b" d="M600 400h100v100H600z"/><path fill="#8fb952" d="M700 400h100v100H700z"/><path fill="#5b4c2e" d="M0 500h100v100H0z"/><path fill="#57391e" d="M100 500h100v100H100z"/><path fill="#683f1a" d="M200 500h100v100H200z"/><path fill="#6a4119" d="M300 500h100v100H300z"/><path fill="#633812" d="M400 500h100v100H400z"/><path fill="#643911" d="M500 500h100v100H500z"/><path fill="#704925" d="M600 500h100v100H600z"/><path fill="#917446" d="M700 500h100v100H700z"/></svg>