<svg xmlns="http://www.w3.org/2000/svg" viewBox="0 0 800 600"><defs/><path fill="#eef0f2" d="M0 0h100v100H0z"/><path fill="#edf2f2" d="M100 0h100v100H100z"/><path fill="#e9ecee" d="M200 0h100v100H200z"/><path fill="#e9ebed" d="M300 0h100v100H300z"/><path fill="#eff2f3" d="M400 0h100v100H400z"/><path fill="#f0f2f4" d="M500 0h100v100H500z"/><path fill="#edf0f2" d="M600 0h100v100H600z"/><path fill="#e9edef" d="M700 0h100v100H700z"/><path fill="#cfd4d5" d="M0 100h100v100H0z"/><path fill="#c3d1ce" d="M100 100h100v100H100z"/><path fill="#babebf" d="M200 100h100v100H200z"/><path fill="#c1c1c3" d="M300 100h100v100H300z"/><path fill="#e5e6e8" d="M400 100h100v100H400z"/><path fill="#d7dadb" d="M500 100h100v100H500z"/><path fill="#ced1d2" d="M600 100h100v100H600z"/><path fill="#bdc2c3" d="M700 100h100v100H700z"/><path fill="#ccd3d3" d="M0 200h100v100H0z"/><path fill="#b9c6c3" d="M100 200h100v100H100z"/><path fill="#b7b8b8" d="M200 200h100v100H200z"/><path fill="#cfcfd0" d="M300 200h100v100H300z"/><path fill="#d6d6d7" d="M400 200h100v100H400z"/><path fill="#c0c0c1" d="M500 200h100v100H500z"/><path fill="#c4c5c7" d="M600 200h100v100H600z"/><path fill="#c2c4c6" d="M700 200h100v100H700z"/><path fill="#ccd6d6" d="M0 300h100v100H0z"/><path fill="#b1c1be" d="M100 300h100v100H100z"/><path fill="#aaaaab" d="M200 300h100v100H200z"/><path fill="#bababb" d="M300 300h100v100H300z"/><path fill="#b9bbbc" d="M400 300h100v100H400z"/><path fill="#c2c3c5" d="M500 300h100v100H500z"/><path fill="#c6c8ca" d="M600 300h100v100H600z"/><path fill="#c1c4c5" d="M700 300h100v100H700z"/><path fill="#c2d5d3" d="M0 400h100v100H0z"/><path fill="#b8c7c5" d="M100 400h100v100H100z"/><path fill="#b2b3b3" d="M200 400h100v100H200z"/><path fill="#b2b4b5" d="M300 400h100v100H300z"/><path fill="#cbccce" d="M400 400h100v100H400z"/><path fill="#cdcfd1" d="M500 400h100v100H500z"/><path fill="#b3b4b5" d="M600 400h100v100H600z"/><path fill="#b8bcbd" d="M700 400h100v100H700z"/><path fill="#dde5e7" d="M0 500h100v100H0z"/><path fill="#d8dcdf" d="M100 500h100v100H100z"/><path fill="#dcdfe0" d="M200 500h100v100H200z"/><path fill="#dde0e1" d="M300 500h100v100H300z"/><path fill="#dbddde" d="M400 500h100v100H400z"/><path fill="#dadbdd" d="M500 500h100v100H500z"/><path fill="#d5d6d8" d="M600 500h100v100H600z"/><path fill="#d9dddf" d="M700 500h100v100H700z"/></svg>