<svg xmlns="http://www.w3.org/2000/svg" viewBox="0 0 800 400"><defs/><path fill="#dac0b2" d="M0 0h100v100H0z"/><path fill="#c38c82" d="M100 0h100v100H100z"/><path fill="#dda192" d="M200 0h100v100H200z"/><path fill="#c58e82" d="M300 0h100v100H300z"/><path fill="#bb867b" d="M400 0h100v100H400z"/><path fill="#a87c72" d="M500 0h100v100H500z"/><path fill="#be9286" d="M600 0h100v100H600z"/><path fill="#e9a18c" d="M700 0h100v100H700z"/><path fill="#d0bbae" d="M0 100h100v100H0z"/><path fill="#bf8278" d="M100 100h100v100H100z"/><path fill="#8b675f" d="M200 100h100v100H200z"/><path fill="#8a665d" d="M300 100h100v100H300z"/><path fill="#a97467" d="M400 100h100v100H400z"/><path fill="#936960" d="M500 100h100v100H500z"/><path fill="#c09282" d="M600 100h100v100H600z"/><path fill="#dc9986" d="M700 100h100v100H700z"/><path fill="#d5b4a7" d="M0 200h100v100H0z"/><path fill="#ad726d" d="M100 200h100v100H100z"/><path fill="#9e5f5b" d="M200 200h100v100H200z"/><path fill="#aa685d" d="M300 200h100v100H300z"/><path fill="#d48572" d="M400 200h100v100H400z"/><path fill="#d28573" d="M500 200h100v100H500z"/><path fill="#d47d70" d="M600 200h100v100H600z"/><path fill="#b26460" d="M700 200h100v100H700z"/><path fill="#cba29b" d="M0 300h100v100H0z"/><path fill="#aa6c6a" d="M100 300h100v100H100z"/><path fill="#b77c78" d="M200 300h100v100H200z"/><path fill="#ba6f67" d="M300 300h100v100H300z"/><path fill="#c3776e" d="M400 300h100v100H400z"/><path fill="#dc9983" d="M500 300h100v100H500z"/><path fill="#c8776a" d="M600 300h100v100H600z"/><path fill="#a65a5b" d="M700 300h100v100H700z"/></svg>