<svg xmlns="http://www.w3.org/2000/svg" viewBox="0 0 800 600"><defs/><path fill="#f4f7f2" d="M0 0h100v100H0z"/><path fill="#f8f8f3" d="M100 0h100v100H100z"/><path fill="#fefffb" d="M200 0h100v100H200z"/><path fill="#fcfffb" d="M300 0h100v100H300z"/><path fill="#fcfdf9" d="M400 0h100v100H400z"/><path fill="#fafcf8" d="M500 0h100v100H500z"/><path fill="#fcfdf9" d="M600 0h100v100H600zm100 0h100v100H700z"/><path fill="#dae6e3" d="M0 100h100v100H0z"/><path fill="#e8e7e2" d="M100 100h100v100H100z"/><path fill="#dbded9" d="M200 100h100v100H200z"/><path fill="#f6ebe7" d="M300 100h100v100H300z"/><path fill="#f8e9e4" d="M400 100h100v100H400z"/><path fill="#f0e5e0" d="M500 100h100v100H500z"/><path fill="#ede8e4" d="M600 100h100v100H600z"/><path fill="#f2e3de" d="M700 100h100v100H700z"/><path fill="#dfe7e3" d="M0 200h100v100H0z"/><path fill="#e7e6e2" d="M100 200h100v100H100z"/><path fill="#d3dcd5" d="M200 200h100v100H200z"/><path fill="#f5e8e2" d="M300 200h100v100H300z"/><path fill="#edd9d5" d="M400 200h100v100H400z"/><path fill="#e4c8b8" d="M500 200h100v100H500z"/><path fill="#e5d2ca" d="M600 200h100v100H600z"/><path fill="#e9d8d0" d="M700 200h100v100H700z"/><path fill="#e3e8e4" d="M0 300h100v100H0z"/><path fill="#ece8e2" d="M100 300h100v100H100z"/><path fill="#efcbbb" d="M200 300h100v100H200z"/><path fill="#ecad9a" d="M300 300h100v100H300z"/><path fill="#f0d4c9" d="M400 300h100v100H400z"/><path fill="#eedfd3" d="M500 300h100v100H500z"/><path fill="#f1e5dc" d="M600 300h100v100H600z"/><path fill="#d3c0b6" d="M700 300h100v100H700z"/><path fill="#e8e6e1" d="M0 400h100v100H0z"/><path fill="#ebd9cb" d="M100 400h100v100H100z"/><path fill="#dec5b1" d="M200 400h100v100H200z"/><path fill="#d87f60" d="M300 400h100v100H300z"/><path fill="#e38a67" d="M400 400h100v100H400z"/><path fill="#d46e4a" d="M500 400h100v100H500z"/><path fill="#db7552" d="M600 400h100v100H600z"/><path fill="#cd967e" d="M700 400h100v100H700z"/><path fill="#f0eee6" d="M0 500h100v100H0z"/><path fill="#f1eadf" d="M100 500h100v100H100z"/><path fill="#eeeae0" d="M200 500h100v100H200z"/><path fill="#edded2" d="M300 500h100v100H300z"/><path fill="#eecfc1" d="M400 500h100v100H400z"/><path fill="#edc6b7" d="M500 500h100v100H500z"/><path fill="#ecc2b2" d="M600 500h100v100H600z"/><path fill="#f1d6ca" d="M700 500h100v100H700z"/></svg>