<svg xmlns="http://www.w3.org/2000/svg" viewBox="0 0 800 1100"><defs/><path fill="#f6f8eb" d="M0 0h100v100H0z"/><path fill="#f6f9ec" d="M100 0h100v100H100z"/><path fill="#f4f8eb" d="M200 0h100v100H200z"/><path fill="#f5f8ea" d="M300 0h100v100H300z"/><path fill="#f7f9ec" d="M400 0h100v100H400z"/><path fill="#f8faf0" d="M500 0h100v100H500z"/><path fill="#f8faef" d="M600 0h100v100H600z"/><path fill="#f9faed" d="M700 0h100v100H700z"/><path fill="#f0f3e5" d="M0 100h100v100H0z"/><path fill="#eaecdf" d="M100 100h100v100H100z"/><path fill="#eef2e5" d="M200 100h100v100H200z"/><path fill="#b2b4a8" d="M300 100h100v100H300z"/><path fill="#cecfc1" d="M400 100h100v100H400z"/><path fill="#f5f7ea" d="M500 100h100v100H500z"/><path fill="#f1f3e6" d="M600 100h100v100H600z"/><path fill="#f7f8ea" d="M700 100h100v100H700z"/><path fill="#f5f8e9" d="M0 200h100v100H0z"/><path fill="#f5f7ea" d="M100 200h100v100H100z"/><path fill="#d5d8cc" d="M200 200h100v100H200z"/><path fill="#a8a99e" d="M300 200h100v100H300z"/><path fill="#c2c5b7" d="M400 200h100v100H400z"/><path fill="#d2d4c6" d="M500 200h100v100H500z"/><path fill="#ebede0" d="M600 200h100v100H600z"/><path fill="#f7f9ea" d="M700 200h100v100H700z"/><path fill="#f6f8e8" d="M0 300h100v100H0z"/><path fill="#fbfdef" d="M100 300h100v100H100z"/><path fill="#bdbfb2" d="M200 300h100v100H200z"/><path fill="#aeb1a2" d="M300 300h100v100H300z"/><path fill="#abac9f" d="M400 300h100v100H400z"/><path fill="#c9cabc" d="M500 300h100v100H500z"/><path fill="#eef0e3" d="M600 300h100v100H600z"/><path fill="#f2f4e5" d="M700 300h100v100H700z"/><path fill="#f5f7e5" d="M0 400h100v100H0z"/><path fill="#f7f9eb" d="M100 400h100v100H100z"/><path fill="#eff2e4" d="M200 400h100v100H200z"/><path fill="#b8b9ac" d="M300 400h100v100H300z"/><path fill="#aaab9f" d="M400 400h100v100H400z"/><path fill="#c7c9bc" d="M500 400h100v100H500z"/><path fill="#d0d1c2" d="M600 400h100v100H600z"/><path fill="#eceede" d="M700 400h100v100H700z"/><path fill="#f5f7e8" d="M0 500h100v100H0z"/><path fill="#f7f9ec" d="M100 500h100v100H100z"/><path fill="#f5f7eb" d="M200 500h100v100H200z"/><path fill="#96968c" d="M300 500h100v100H300z"/><path fill="#adafa0" d="M400 500h100v100H400z"/><path fill="#c0c2b3" d="M500 500h100v100H500z"/><path fill="#c7c8b8" d="M600 500h100v100H600z"/><path fill="#f5f8e6" d="M700 500h100v100H700z"/><path fill="#f9fae9" d="M0 600h100v100H0z"/><path fill="#f8faed" d="M100 600h100v100H100z"/><path fill="#f9fcee" d="M200 600h100v100H200z"/><path fill="#c2c2b4" d="M300 600h100v100H300z"/><path fill="#b8b8a9" d="M400 600h100v100H400z"/><path fill="#eaedde" d="M500 600h100v100H500z"/><path fill="#f3f6e7" d="M600 600h100v100H600z"/><path fill="#f7f9eb" d="M700 600h100v100H700z"/><path fill="#f7f9e5" d="M0 700h100v100H0z"/><path fill="#f8f9e9" d="M100 700h100v100H100z"/><path fill="#fbfcee" d="M200 700h100v100H200z"/><path fill="#c2c2b2" d="M300 700h100v100H300z"/><path fill="#c9c9bc" d="M400 700h100v100H400z"/><path fill="#fefff2" d="M500 700h100v100H500z"/><path fill="#f5f7ea" d="M600 700h100v100H600z"/><path fill="#f7f8ea" d="M700 700h100v100H700z"/><path fill="#f8f9e5" d="M0 800h100v100H0z"/><path fill="#f9f9e7" d="M100 800h100v100H100z"/><path fill="#f9faeb" d="M200 800h100v100H200z"/><path fill="#dddecf" d="M300 800h100v100H300z"/><path fill="#e5e7d8" d="M400 800h100v100H400z"/><path fill="#fafcef" d="M500 800h100v100H500z"/><path fill="#f8faed" d="M600 800h100v100H600z"/><path fill="#f6f8ea" d="M700 800h100v100H700z"/><path fill="#faf8e3" d="M0 900h100v100H0z"/><path fill="#f8f9e6" d="M100 900h100v100H100z"/><path fill="#f9faeb" d="M200 900h100v100H200z"/><path fill="#fafbef" d="M300 900h100v100H300z"/><path fill="#f8fbed" d="M400 900h100v100H400z"/><path fill="#fafbef" d="M500 900h100v100H500z"/><path fill="#fafaed" d="M600 900h100v100H600z"/><path fill="#f4f7e9" d="M700 900h100v100H700z"/><path fill="#f5f6df" d="M0 1000h100v100H0z"/><path fill="#f7f8e5" d="M100 1000h100v100H100z"/><path fill="#f9faeb" d="M200 1000h100v100H200z"/><path fill="#f7f8e8" d="M300 1000h100v100H300z"/><path fill="#f7f9ea" d="M400 1000h100v100H400z"/><path fill="#f8f9e9" d="M500 1000h100v100H500z"/><path fill="#f7f8e7" d="M600 1000h100v100H600z"/><path fill="#f6f8e9" d="M700 1000h100v100H700z"/></svg>