<svg xmlns="http://www.w3.org/2000/svg" viewBox="0 0 800 500"><defs/><path fill="#d0d3df" d="M0 0h100v100H0z"/><path fill="#c5c7d0" d="M100 0h100v100H100z"/><path fill="#dcdddf" d="M200 0h100v100H200z"/><path fill="#e4e5e6" d="M300 0h100v100H300z"/><path fill="#d5d6e0" d="M400 0h100v100H400z"/><path fill="#e0e0e4" d="M500 0h100v100H500z"/><path fill="#dedfe4" d="M600 0h100v100H600z"/><path fill="#f0f1f5" d="M700 0h100v100H700z"/><path fill="#6d72a1" d="M0 100h100v100H0z"/><path fill="#41404c" d="M100 100h100v100H100z"/><path fill="#464d6f" d="M200 100h100v100H200z"/><path fill="#7b7e82" d="M300 100h100v100H300z"/><path fill="#2f314d" d="M400 100h100v100H400z"/><path fill="#8c8c8c" d="M500 100h100v100H500z"/><path fill="#878782" d="M600 100h100v100H600z"/><path fill="#b5b6b4" d="M700 100h100v100H700z"/><path fill="#6f7291" d="M0 200h100v100H0z"/><path fill="#4e504e" d="M100 200h100v100H100z"/><path fill="#3a4167" d="M200 200h100v100H200z"/><path fill="#5a5d71" d="M300 200h100v100H300z"/><path fill="#342e40" d="M400 200h100v100H400z"/><path fill="#878485" d="M500 200h100v100H500z"/><path fill="#9e9f8d" d="M600 200h100v100H600z"/><path fill="#596164" d="M700 200h100v100H700z"/><path fill="#61637d" d="M0 300h100v100H0z"/><path fill="#1d244c" d="M100 300h100v100H100z"/><path fill="#5b5d6d" d="M200 300h100v100H200z"/><path fill="#aea487" d="M300 300h100v100H300z"/><path fill="#66686e" d="M400 300h100v100H400z"/><path fill="#3f3d5a" d="M500 300h100v100H500z"/><path fill="#626381" d="M600 300h100v100H600z"/><path fill="#2f3964" d="M700 300h100v100H700z"/><path fill="#a3a1a8" d="M0 400h100v100H0z"/><path fill="#737790" d="M100 400h100v100H100z"/><path fill="#a29a94" d="M200 400h100v100H200z"/><path fill="#d9c4a2" d="M300 400h100v100H300z"/><path fill="#9694a0" d="M400 400h100v100H400z"/><path fill="#89899c" d="M500 400h100v100H500z"/><path fill="#9392a8" d="M600 400h100v100H600z"/><path fill="#8789ab" d="M700 400h100v100H700z"/></svg>