<svg xmlns="http://www.w3.org/2000/svg" viewBox="0 0 800 400"><defs/><path fill="#89714a" d="M0 0h100v100H0z"/><path fill="#785a2b" d="M100 0h100v100H100z"/><path fill="#8f703d" d="M200 0h100v100H200z"/><path fill="#907855" d="M300 0h100v100H300z"/><path fill="#75582a" d="M400 0h100v100H400z"/><path fill="#907447" d="M500 0h100v100H500z"/><path fill="#ae905f" d="M600 0h100v100H600z"/><path fill="#8c6f3f" d="M700 0h100v100H700z"/><path fill="#a78851" d="M0 100h100v100H0z"/><path fill="#8c5a09" d="M100 100h100v100H100z"/><path fill="#af8a49" d="M200 100h100v100H200z"/><path fill="#d9c9ab" d="M300 100h100v100H300z"/><path fill="#754600" d="M400 100h100v100H400z"/><path fill="#a98a56" d="M500 100h100v100H500z"/><path fill="#e0d7c3" d="M600 100h100v100H600z"/><path fill="#a38653" d="M700 100h100v100H700z"/><path fill="#9a7437" d="M0 200h100v100H0z"/><path fill="#99732e" d="M100 200h100v100H100z"/><path fill="#ac8f57" d="M200 200h100v100H200z"/><path fill="#9f814d" d="M300 200h100v100H300z"/><path fill="#8b5d12" d="M400 200h100v100H400z"/><path fill="#ab884a" d="M500 200h100v100H500z"/><path fill="#d4c29a" d="M600 200h100v100H600z"/><path fill="#a08350" d="M700 200h100v100H700z"/><path fill="#745424" d="M0 300h100v100H0z"/><path fill="#896626" d="M100 300h100v100H100z"/><path fill="#ad863b" d="M200 300h100v100H200z"/><path fill="#7c510e" d="M300 300h100v100H300z"/><path fill="#6b450b" d="M400 300h100v100H400z"/><path fill="#97763b" d="M500 300h100v100H500z"/><path fill="#bfa265" d="M600 300h100v100H600z"/><path fill="#9e7a3b" d="M700 300h100v100H700z"/></svg>