<svg xmlns="http://www.w3.org/2000/svg" viewBox="0 0 800 600"><defs/><path fill="#fefdfd" d="M0 0h100v100H0z"/><path fill="#fcfbfb" d="M100 0h100v100H100z"/><path fill="#fdfefe" d="M200 0h100v100H200z"/><path fill="#fefefe" d="M300 0h100v100H300zm100 0h100v100H400z"/><path fill="#fdfefd" d="M500 0h100v100H500z"/><path fill="#fafafa" d="M600 0h100v100H600z"/><path fill="#fdfdfd" d="M700 0h100v100H700z"/><path fill="#fcfaf9" d="M0 100h100v100H0z"/><path fill="#f7f3f2" d="M100 100h100v100H100z"/><path fill="#faf9f8" d="M200 100h100v100H200z"/><path fill="#fffefd" d="M300 100h100v100H300z"/><path fill="#ededeb" d="M400 100h100v100H400z"/><path fill="#eeeeeb" d="M500 100h100v100H500z"/><path fill="#f6f7f4" d="M600 100h100v100H600z"/><path fill="#fcfbfc" d="M700 100h100v100H700z"/><path fill="#fefffe" d="M0 200h100v100H0z"/><path fill="#f8f9f9" d="M100 200h100v100H100z"/><path fill="#f4f2f2" d="M200 200h100v100H200z"/><path fill="#ebf5f1" d="M300 200h100v100H300z"/><path fill="#eceae7" d="M400 200h100v100H400z"/><path fill="#e5e2e0" d="M500 200h100v100H500z"/><path fill="#f2f3ee" d="M600 200h100v100H600z"/><path fill="#fcfcfb" d="M700 200h100v100H700z"/><path fill="#fdfdfe" d="M0 300h100v100H0z"/><path fill="#f6f6f6" d="M100 300h100v100H100z"/><path fill="#eff0ec" d="M200 300h100v100H200z"/><path fill="#e6f0e9" d="M300 300h100v100H300z"/><path fill="#f7f9f2" d="M400 300h100v100H400z"/><path fill="#e9ece3" d="M500 300h100v100H500z"/><path fill="#edefe8" d="M600 300h100v100H600z"/><path fill="#fcfcfa" d="M700 300h100v100H700z"/><path fill="#fefefe" d="M0 400h100v100H0z"/><path fill="#f9f9f8" d="M100 400h100v100H100z"/><path fill="#fbfbfa" d="M200 400h100v100H200z"/><path fill="#fefdfc" d="M300 400h100v100H300z"/><path fill="#fbfaf9" d="M400 400h100v100H400z"/><path fill="#fefdf8" d="M500 400h100v100H500z"/><path fill="#fbfbf6" d="M600 400h100v100H600z"/><path fill="#fdfdfc" d="M700 400h100v100H700z"/><path fill="#fefefe" d="M0 500h100v100H0zm100 0h100v100H100z"/><path fill="#fff" d="M200 500h100v100H200z"/><path fill="#fefeff" d="M300 500h100v100H300z"/><path fill="#fff" d="M400 500h100v100H400z"/><path fill="#feffff" d="M500 500h100v100H500z"/><path fill="#fdfdfe" d="M600 500h100v100H600z"/><path fill="#fdfdfd" d="M700 500h100v100H700z"/></svg>