<svg xmlns="http://www.w3.org/2000/svg" viewBox="0 0 800 500"><defs/><path fill="#f5f5f5" d="M0 0h100v100H0z"/><path fill="#eaeaea" d="M100 0h100v100H100z"/><path fill="#f8f8f8" d="M200 0h100v100H200z"/><path fill="#f9f9f9" d="M300 0h100v100H300zm100 0h100v100H400zm100 0h100v100H500z"/><path fill="#f8f8f8" d="M600 0h100v100H600zm100 0h100v100H700z"/><path fill="#ededed" d="M0 100h100v100H0z"/><path fill="#d2d2d2" d="M100 100h100v100H100z"/><path fill="#f7f7f7" d="M200 100h100v100H200z"/><path fill="#fdfdfd" d="M300 100h100v100H300z"/><path fill="#fcfcfc" d="M400 100h100v100H400z"/><path fill="#fdfdfd" d="M500 100h100v100H500z"/><path fill="#f6f6f6" d="M600 100h100v100H600z"/><path fill="#ededed" d="M700 100h100v100H700z"/><path fill="#e9e9e9" d="M0 200h100v100H0z"/><path fill="#d1d1d1" d="M100 200h100v100H100z"/><path fill="#f3f3f3" d="M200 200h100v100H200z"/><path fill="#e8e8e8" d="M300 200h100v100H300z"/><path fill="#e7e7e7" d="M400 200h100v100H400z"/><path fill="#f3f3f3" d="M500 200h100v100H500z"/><path fill="#d5d5d5" d="M600 200h100v100H600z"/><path fill="#e3e3e3" d="M700 200h100v100H700z"/><path fill="#d8d8d8" d="M0 300h100v100H0z"/><path fill="#d2d2d2" d="M100 300h100v100H100z"/><path fill="#ededed" d="M200 300h100v100H200z"/><path fill="#e5e5e5" d="M300 300h100v100H300z"/><path fill="#e4e4e4" d="M400 300h100v100H400z"/><path fill="#eee" d="M500 300h100v100H500z"/><path fill="#e9e9e9" d="M600 300h100v100H600z"/><path fill="#d0d0d0" d="M700 300h100v100H700z"/><path fill="#eaeaea" d="M0 400h100v100H0z"/><path fill="#f9f9f9" d="M100 400h100v100H100z"/><path fill="#f7f7f7" d="M200 400h100v100H200zm100 0h100v100H300z"/><path fill="#f8f8f8" d="M400 400h100v100H400zm100 0h100v100H500z"/><path fill="#f4f4f4" d="M600 400h100v100H600z"/><path fill="#e2e2e2" d="M700 400h100v100H700z"/></svg>