<svg xmlns="http://www.w3.org/2000/svg" viewBox="0 0 800 500"><defs/><path fill="#8c6b99" d="M0 0h100v100H0z"/><path fill="#714a81" d="M100 0h100v100H100z"/><path fill="#734d82" d="M200 0h100v100H200z"/><path fill="#70497f" d="M300 0h100v100H300z"/><path fill="#6d467d" d="M400 0h100v100H400z"/><path fill="#694177" d="M500 0h100v100H500z"/><path fill="#8a6a9d" d="M600 0h100v100H600z"/><path fill="#dbc9ca" d="M700 0h100v100H700z"/><path fill="#613573" d="M0 100h100v100H0z"/><path fill="#3d0851" d="M100 100h100v100H100z"/><path fill="#411055" d="M200 100h100v100H200z"/><path fill="#3e0951" d="M300 100h100v100H300z"/><path fill="#400d53" d="M400 100h100v100H400z"/><path fill="#785189" d="M500 100h100v100H500z"/><path fill="#a689bc" d="M600 100h100v100H600z"/><path fill="#d1b9ba" d="M700 100h100v100H700z"/><path fill="#693f7a" d="M0 200h100v100H0z"/><path fill="#47165b" d="M100 200h100v100H100z"/><path fill="#3f0e55" d="M200 200h100v100H200z"/><path fill="#502067" d="M300 200h100v100H300z"/><path fill="#906ea3" d="M400 200h100v100H400z"/><path fill="#b59ac6" d="M500 200h100v100H500z"/><path fill="#a487bd" d="M600 200h100v100H600z"/><path fill="#cfb9be" d="M700 200h100v100H700z"/><path fill="#633a75" d="M0 300h100v100H0z"/><path fill="#3c0853" d="M100 300h100v100H100z"/><path fill="#724774" d="M200 300h100v100H200z"/><path fill="#d1b8be" d="M300 300h100v100H300z"/><path fill="#d4c3d3" d="M400 300h100v100H400z"/><path fill="#c7b7cf" d="M500 300h100v100H500z"/><path fill="#c4a8bd" d="M600 300h100v100H600z"/><path fill="#9f83b0" d="M700 300h100v100H700z"/><path fill="#744d84" d="M0 400h100v100H0z"/><path fill="#4f1e65" d="M100 400h100v100H100z"/><path fill="#a17c8e" d="M200 400h100v100H200z"/><path fill="#d0b1ae" d="M300 400h100v100H300z"/><path fill="#c5a6ac" d="M400 400h100v100H400z"/><path fill="#c5aaab" d="M500 400h100v100H500z"/><path fill="#b7959e" d="M600 400h100v100H600z"/><path fill="#623678" d="M700 400h100v100H700z"/></svg>