<svg xmlns="http://www.w3.org/2000/svg" viewBox="0 0 800 600"><defs/><path fill="#67594d" d="M0 0h100v100H0z"/><path fill="#796c64" d="M100 0h100v100H100z"/><path fill="#718d90" d="M200 0h100v100H200z"/><path fill="#768e8d" d="M300 0h100v100H300z"/><path fill="#6d96a0" d="M400 0h100v100H400z"/><path fill="#7ca2af" d="M500 0h100v100H500z"/><path fill="#7ba5b1" d="M600 0h100v100H600z"/><path fill="#aca5aa" d="M700 0h100v100H700z"/><path fill="#5f331d" d="M0 100h100v100H0z"/><path fill="#4a3530" d="M100 100h100v100H100z"/><path fill="#395753" d="M200 100h100v100H200z"/><path fill="#365d57" d="M300 100h100v100H300z"/><path fill="#2c6b5e" d="M400 100h100v100H400z"/><path fill="#5f8e7c" d="M500 100h100v100H500z"/><path fill="#438a7c" d="M600 100h100v100H600z"/><path fill="#826d72" d="M700 100h100v100H700z"/><path fill="#713b1f" d="M0 200h100v100H0z"/><path fill="#223741" d="M100 200h100v100H100z"/><path fill="#4a3e37" d="M200 200h100v100H200z"/><path fill="#644730" d="M300 200h100v100H300z"/><path fill="#54725f" d="M400 200h100v100H400z"/><path fill="#929370" d="M500 200h100v100H500z"/><path fill="#7c977b" d="M600 200h100v100H600z"/><path fill="#826f78" d="M700 200h100v100H700z"/><path fill="#72321b" d="M0 300h100v100H0z"/><path fill="#574f35" d="M100 300h100v100H100z"/><path fill="#716b39" d="M200 300h100v100H200z"/><path fill="#8a7b42" d="M300 300h100v100H300z"/><path fill="#8d7f6f" d="M400 300h100v100H400z"/><path fill="#a45279" d="M500 300h100v100H500z"/><path fill="#914c6b" d="M600 300h100v100H600z"/><path fill="#b8728a" d="M700 300h100v100H700z"/><path fill="#6e3416" d="M0 400h100v100H0z"/><path fill="#8c712d" d="M100 400h100v100H100z"/><path fill="#678451" d="M200 400h100v100H200z"/><path fill="#89a168" d="M300 400h100v100H300z"/><path fill="#ddb657" d="M400 400h100v100H400z"/><path fill="#dda16c" d="M500 400h100v100H500z"/><path fill="#d7ab54" d="M600 400h100v100H600z"/><path fill="#e0c075" d="M700 400h100v100H700z"/><path fill="#6e6661" d="M0 500h100v100H0z"/><path fill="#878179" d="M100 500h100v100H100z"/><path fill="#aca090" d="M200 500h100v100H200z"/><path fill="#c9bdb1" d="M300 500h100v100H300z"/><path fill="#d4d1ca" d="M400 500h100v100H400z"/><path fill="#e0e4d7" d="M500 500h100v100H500z"/><path fill="#eaecda" d="M600 500h100v100H600z"/><path fill="#f4f3e3" d="M700 500h100v100H700z"/></svg>