<svg xmlns="http://www.w3.org/2000/svg" viewBox="0 0 800 500"><defs/><path fill="#dfd8cf" d="M0 0h100v100H0z"/><path fill="#ddd7cd" d="M100 0h100v100H100z"/><path fill="#e3dfd7" d="M200 0h100v100H200z"/><path fill="#e9e6dd" d="M300 0h100v100H300z"/><path fill="#ebe5dc" d="M400 0h100v100H400z"/><path fill="#eae2db" d="M500 0h100v100H500z"/><path fill="#ede6e1" d="M600 0h100v100H600z"/><path fill="#f0ece2" d="M700 0h100v100H700z"/><path fill="#c2b69a" d="M0 100h100v100H0z"/><path fill="#987d56" d="M100 100h100v100H100z"/><path fill="#bda499" d="M200 100h100v100H200z"/><path fill="#d1b8a6" d="M300 100h100v100H300z"/><path fill="#c1b199" d="M400 100h100v100H400z"/><path fill="#b79e7d" d="M500 100h100v100H500z"/><path fill="#adac94" d="M600 100h100v100H600z"/><path fill="#b3bb65" d="M700 100h100v100H700z"/><path fill="#b4a685" d="M0 200h100v100H0z"/><path fill="#87653f" d="M100 200h100v100H100z"/><path fill="#bc9f92" d="M200 200h100v100H200z"/><path fill="#ba9c87" d="M300 200h100v100H300z"/><path fill="#b1a17c" d="M400 200h100v100H400z"/><path fill="#a68e68" d="M500 200h100v100H500z"/><path fill="#a5a290" d="M600 200h100v100H600z"/><path fill="#95964c" d="M700 200h100v100H700z"/><path fill="#9f8c6a" d="M0 300h100v100H0z"/><path fill="#807157" d="M100 300h100v100H100z"/><path fill="#9da3a2" d="M200 300h100v100H200z"/><path fill="#a5977a" d="M300 300h100v100H300z"/><path fill="#a19b8b" d="M400 300h100v100H400z"/><path fill="#97967a" d="M500 300h100v100H500z"/><path fill="#a9a584" d="M600 300h100v100H600z"/><path fill="#bcb880" d="M700 300h100v100H700z"/><path fill="#c2baaa" d="M0 400h100v100H0z"/><path fill="#c0bbb0" d="M100 400h100v100H100z"/><path fill="#b1b5b9" d="M200 400h100v100H200z"/><path fill="#b7b9b6" d="M300 400h100v100H300z"/><path fill="#b7bdc2" d="M400 400h100v100H400z"/><path fill="#c0c1b9" d="M500 400h100v100H500z"/><path fill="#c8c2af" d="M600 400h100v100H600z"/><path fill="#d7d1c3" d="M700 400h100v100H700z"/></svg>