<svg xmlns="http://www.w3.org/2000/svg" viewBox="0 0 800 400"><defs/><path fill="#b3a26d" d="M0 0h100v100H0z"/><path fill="#d38a4d" d="M100 0h100v100H100z"/><path fill="#c4b672" d="M200 0h100v100H200z"/><path fill="#ddcc7a" d="M300 0h100v100H300z"/><path fill="#737289" d="M400 0h100v100H400z"/><path fill="#5d5e81" d="M500 0h100v100H500z"/><path fill="#b1a87a" d="M600 0h100v100H600z"/><path fill="#646c6e" d="M700 0h100v100H700z"/><path fill="#be9561" d="M0 100h100v100H0z"/><path fill="#be773c" d="M100 100h100v100H100z"/><path fill="#575b57" d="M200 100h100v100H200z"/><path fill="#8b7f6b" d="M300 100h100v100H300z"/><path fill="#827e74" d="M400 100h100v100H400z"/><path fill="#aba78f" d="M500 100h100v100H500z"/><path fill="#bfb7a1" d="M600 100h100v100H600z"/><path fill="#686c6e" d="M700 100h100v100H700z"/><path fill="#c6995f" d="M0 200h100v100H0z"/><path fill="#a26640" d="M100 200h100v100H100z"/><path fill="#626562" d="M200 200h100v100H200z"/><path fill="#55555d" d="M300 200h100v100H300z"/><path fill="#5e675b" d="M400 200h100v100H400z"/><path fill="#8b796c" d="M500 200h100v100H500z"/><path fill="#b7c6d3" d="M600 200h100v100H600z"/><path fill="#787b92" d="M700 200h100v100H700z"/><path fill="#b28b5b" d="M0 300h100v100H0z"/><path fill="#97715a" d="M100 300h100v100H100z"/><path fill="#8e8575" d="M200 300h100v100H200z"/><path fill="#716657" d="M300 300h100v100H300z"/><path fill="#74685b" d="M400 300h100v100H400z"/><path fill="#c48d53" d="M500 300h100v100H500z"/><path fill="#9597a3" d="M600 300h100v100H600z"/><path fill="#7074a3" d="M700 300h100v100H700z"/></svg>