<svg xmlns="http://www.w3.org/2000/svg" viewBox="0 0 800 600"><defs/><path fill="#a29e94" d="M0 0h100v100H0z"/><path fill="#abaaa8" d="M100 0h100v100H100z"/><path fill="#afadae" d="M200 0h100v100H200z"/><path fill="#b3b2b0" d="M300 0h100v100H300z"/><path fill="#b4b4b2" d="M400 0h100v100H400z"/><path fill="#b7b6b5" d="M500 0h100v100H500z"/><path fill="#bab9b6" d="M600 0h100v100H600z"/><path fill="#b4b4b0" d="M700 0h100v100H700z"/><path fill="#a3a185" d="M0 100h100v100H0z"/><path fill="#9b8e76" d="M100 100h100v100H100z"/><path fill="#a29b88" d="M200 100h100v100H200z"/><path fill="#a1a290" d="M300 100h100v100H300z"/><path fill="#a3a393" d="M400 100h100v100H400z"/><path fill="#9fa095" d="M500 100h100v100H500z"/><path fill="#a5a694" d="M600 100h100v100H600z"/><path fill="#aba988" d="M700 100h100v100H700z"/><path fill="#a6a17b" d="M0 200h100v100H0z"/><path fill="#9a8869" d="M100 200h100v100H100z"/><path fill="#a4a17e" d="M200 200h100v100H200z"/><path fill="#a0a389" d="M300 200h100v100H300z"/><path fill="#a6a68a" d="M400 200h100v100H400z"/><path fill="#9ea28f" d="M500 200h100v100H500z"/><path fill="#829a9d" d="M600 200h100v100H600z"/><path fill="#919b91" d="M700 200h100v100H700z"/><path fill="#9d9576" d="M0 300h100v100H0z"/><path fill="#927d6d" d="M100 300h100v100H100z"/><path fill="#9e8d74" d="M200 300h100v100H200z"/><path fill="#a4937c" d="M300 300h100v100H300z"/><path fill="#a69377" d="M400 300h100v100H400z"/><path fill="#948e7b" d="M500 300h100v100H500z"/><path fill="#3b7da5" d="M600 300h100v100H600z"/><path fill="#879381" d="M700 300h100v100H700z"/><path fill="#918573" d="M0 400h100v100H0z"/><path fill="#8a6e68" d="M100 400h100v100H100z"/><path fill="#91706d" d="M200 400h100v100H200z"/><path fill="#9b7b79" d="M300 400h100v100H300z"/><path fill="#a37e70" d="M400 400h100v100H400z"/><path fill="#927d74" d="M500 400h100v100H500z"/><path fill="#76828f" d="M600 400h100v100H600z"/><path fill="#99897a" d="M700 400h100v100H700z"/><path fill="#908a89" d="M0 500h100v100H0z"/><path fill="#988c8b" d="M100 500h100v100H100z"/><path fill="#9f9693" d="M200 500h100v100H200z"/><path fill="#a09a9a" d="M300 500h100v100H300z"/><path fill="#a29d9e" d="M400 500h100v100H400z"/><path fill="#a5a09f" d="M500 500h100v100H500z"/><path fill="#a9a09e" d="M600 500h100v100H600z"/><path fill="#a19d9f" d="M700 500h100v100H700z"/></svg>