<svg xmlns="http://www.w3.org/2000/svg" viewBox="0 0 800 600"><defs/><path fill="#edebef" d="M0 0h100v100H0z"/><path fill="#ded7df" d="M100 0h100v100H100z"/><path fill="#e0dee6" d="M200 0h100v100H200z"/><path fill="#e3e1e6" d="M300 0h100v100H300z"/><path fill="#ebe7ec" d="M400 0h100v100H400z"/><path fill="#e9e6eb" d="M500 0h100v100H500z"/><path fill="#e9e7ec" d="M600 0h100v100H600z"/><path fill="#eae8ec" d="M700 0h100v100H700z"/><path fill="#b3acb7" d="M0 100h100v100H0z"/><path fill="#bb70a7" d="M100 100h100v100H100z"/><path fill="#897071" d="M200 100h100v100H200z"/><path fill="#7b8d7e" d="M300 100h100v100H300z"/><path fill="#83918e" d="M400 100h100v100H400z"/><path fill="#979497" d="M500 100h100v100H500z"/><path fill="#94979d" d="M600 100h100v100H600z"/><path fill="#8f8a93" d="M700 100h100v100H700z"/><path fill="#b6a4b5" d="M0 200h100v100H0z"/><path fill="#c079ad" d="M100 200h100v100H100z"/><path fill="#7d6653" d="M200 200h100v100H200z"/><path fill="#737e84" d="M300 200h100v100H300z"/><path fill="#aeb5bd" d="M400 200h100v100H400z"/><path fill="#bdbbbc" d="M500 200h100v100H500z"/><path fill="#92959b" d="M600 200h100v100H600z"/><path fill="#8e8892" d="M700 200h100v100H700z"/><path fill="#c29ebb" d="M0 300h100v100H0z"/><path fill="#b376a1" d="M100 300h100v100H100z"/><path fill="#746457" d="M200 300h100v100H200z"/><path fill="#785f60" d="M300 300h100v100H300z"/><path fill="#9a868a" d="M400 300h100v100H400z"/><path fill="#9d8b89" d="M500 300h100v100H500z"/><path fill="#7a6868" d="M600 300h100v100H600z"/><path fill="#8c8791" d="M700 300h100v100H700z"/><path fill="#be87ae" d="M0 400h100v100H0z"/><path fill="#834c69" d="M100 400h100v100H100z"/><path fill="#5f5658" d="M200 400h100v100H200z"/><path fill="#707480" d="M300 400h100v100H300z"/><path fill="#5a6470" d="M400 400h100v100H400z"/><path fill="#6c6e70" d="M500 400h100v100H500z"/><path fill="#766568" d="M600 400h100v100H600z"/><path fill="#735d61" d="M700 400h100v100H700z"/><path fill="#cdbec5" d="M0 500h100v100H0z"/><path fill="#bbadb1" d="M100 500h100v100H100z"/><path fill="#bcb1b4" d="M200 500h100v100H200z"/><path fill="#cccbd0" d="M300 500h100v100H300z"/><path fill="#bdbcc0" d="M400 500h100v100H400z"/><path fill="#c4c2c5" d="M500 500h100v100H500z"/><path fill="#cec6c9" d="M600 500h100v100H600z"/><path fill="#c4b7b9" d="M700 500h100v100H700z"/></svg>