<svg xmlns="http://www.w3.org/2000/svg" viewBox="0 0 800 600"><defs/><path fill="#f6faf8" d="M0 0h100v100H0z"/><path fill="#f1f8f3" d="M100 0h100v100H100z"/><path fill="#edf0ef" d="M200 0h100v100H200z"/><path fill="#ecefee" d="M300 0h100v100H300z"/><path fill="#edf1ef" d="M400 0h100v100H400z"/><path fill="#eef2f0" d="M500 0h100v100H500z"/><path fill="#edf1f0" d="M600 0h100v100H600z"/><path fill="#edf2f3" d="M700 0h100v100H700z"/><path fill="#ecf0ef" d="M0 100h100v100H0z"/><path fill="#dceadd" d="M100 100h100v100H100z"/><path fill="#f2f4f7" d="M200 100h100v100H200z"/><path fill="#e9e9ec" d="M300 100h100v100H300z"/><path fill="#dfdfe0" d="M400 100h100v100H400z"/><path fill="#f2f4f6" d="M500 100h100v100H500z"/><path fill="#f0f2f3" d="M600 100h100v100H600z"/><path fill="#dddfdf" d="M700 100h100v100H700z"/><path fill="#e6edea" d="M0 200h100v100H0z"/><path fill="#e4f1e8" d="M100 200h100v100H100z"/><path fill="#e1dedd" d="M200 200h100v100H200z"/><path fill="#c2bcc0" d="M300 200h100v100H300z"/><path fill="#c5c1c6" d="M400 200h100v100H400z"/><path fill="#e3e3e9" d="M500 200h100v100H500z"/><path fill="#e8eaed" d="M600 200h100v100H600z"/><path fill="#dadcd3" d="M700 200h100v100H700z"/><path fill="#dae6e1" d="M0 300h100v100H0z"/><path fill="#deede4" d="M100 300h100v100H100z"/><path fill="#d0cece" d="M200 300h100v100H200z"/><path fill="#bdb9b8" d="M300 300h100v100H300z"/><path fill="#c8c4c2" d="M400 300h100v100H400z"/><path fill="#d1d2d3" d="M500 300h100v100H500z"/><path fill="#cbced0" d="M600 300h100v100H600z"/><path fill="#e0e4e3" d="M700 300h100v100H700z"/><path fill="#d6e6dd" d="M0 400h100v100H0z"/><path fill="#dce9e3" d="M100 400h100v100H100z"/><path fill="#c8c8ce" d="M200 400h100v100H200z"/><path fill="#afa79f" d="M300 400h100v100H300z"/><path fill="#beb6ac" d="M400 400h100v100H400z"/><path fill="#b9b8b8" d="M500 400h100v100H500z"/><path fill="#cfd0d5" d="M600 400h100v100H600z"/><path fill="#eaf0f3" d="M700 400h100v100H700z"/><path fill="#e7f1f1" d="M0 500h100v100H0z"/><path fill="#e9f1f4" d="M100 500h100v100H100z"/><path fill="#e0e6e9" d="M200 500h100v100H200z"/><path fill="#d7dcde" d="M300 500h100v100H300z"/><path fill="#dbdee0" d="M400 500h100v100H400z"/><path fill="#dce0e3" d="M500 500h100v100H500z"/><path fill="#eaeef2" d="M600 500h100v100H600z"/><path fill="#e3e8ec" d="M700 500h100v100H700z"/></svg>