<svg xmlns="http://www.w3.org/2000/svg" viewBox="0 0 800 600"><defs/><path fill="#e1d3cc" d="M0 0h100v100H0z"/><path fill="#d9cab3" d="M100 0h100v100H100z"/><path fill="#e4c2a3" d="M200 0h100v100H200z"/><path fill="#e7b48a" d="M300 0h100v100H300z"/><path fill="#e3b87e" d="M400 0h100v100H400z"/><path fill="#c5aa7b" d="M500 0h100v100H500z"/><path fill="#ddb381" d="M600 0h100v100H600z"/><path fill="#e7b692" d="M700 0h100v100H700z"/><path fill="#ccd0d2" d="M0 100h100v100H0z"/><path fill="#cfd1cf" d="M100 100h100v100H100z"/><path fill="#f5c7aa" d="M200 100h100v100H200z"/><path fill="#e9ab85" d="M300 100h100v100H300z"/><path fill="#e8a586" d="M400 100h100v100H400z"/><path fill="#a1856b" d="M500 100h100v100H500z"/><path fill="#d29979" d="M600 100h100v100H600z"/><path fill="#ecab89" d="M700 100h100v100H700z"/><path fill="#bbcac9" d="M0 200h100v100H0z"/><path fill="#aec1c1" d="M100 200h100v100H100z"/><path fill="#c1b2a1" d="M200 200h100v100H200z"/><path fill="#e5b58d" d="M300 200h100v100H300z"/><path fill="#e5b578" d="M400 200h100v100H400z"/><path fill="#d89656" d="M500 200h100v100H500z"/><path fill="#d39f6d" d="M600 200h100v100H600z"/><path fill="#e0b69d" d="M700 200h100v100H700z"/><path fill="#ceb8a8" d="M0 300h100v100H0z"/><path fill="#e5a89f" d="M100 300h100v100H100z"/><path fill="#9baa4f" d="M200 300h100v100H200z"/><path fill="#ca8f58" d="M300 300h100v100H300z"/><path fill="#c56962" d="M400 300h100v100H400z"/><path fill="#849591" d="M500 300h100v100H500z"/><path fill="#ce886d" d="M600 300h100v100H600z"/><path fill="#d47774" d="M700 300h100v100H700z"/><path fill="#ecb8a3" d="M0 400h100v100H0z"/><path fill="#f9cfbb" d="M100 400h100v100H100z"/><path fill="#d1a580" d="M200 400h100v100H200z"/><path fill="#e16c6b" d="M300 400h100v100H300z"/><path fill="#c05568" d="M400 400h100v100H400z"/><path fill="#6d6a9b" d="M500 400h100v100H500z"/><path fill="#ae516b" d="M600 400h100v100H600z"/><path fill="#ad474f" d="M700 400h100v100H700z"/><path fill="#f3c4b1" d="M0 500h100v100H0z"/><path fill="#e68695" d="M100 500h100v100H100z"/><path fill="#dd7a6e" d="M200 500h100v100H200z"/><path fill="#d56961" d="M300 500h100v100H300z"/><path fill="#e85771" d="M400 500h100v100H400z"/><path fill="#f36d80" d="M500 500h100v100H500z"/><path fill="#b14c64" d="M600 500h100v100H600z"/><path fill="#943d4b" d="M700 500h100v100H700z"/></svg>