<svg xmlns="http://www.w3.org/2000/svg" viewBox="0 0 800 600"><defs/><path fill="#b3afb3" d="M0 0h100v100H0z"/><path fill="#d1d5d6" d="M100 0h100v100H100z"/><path fill="#d6e1e4" d="M200 0h100v100H200z"/><path fill="#dcecf2" d="M300 0h100v100H300z"/><path fill="#e0e7eb" d="M400 0h100v100H400z"/><path fill="#e4edef" d="M500 0h100v100H500z"/><path fill="#e7edf0" d="M600 0h100v100H600z"/><path fill="#e9eef1" d="M700 0h100v100H700z"/><path fill="#f4fbff" d="M0 100h100v100H0z"/><path fill="#c3bbc8" d="M100 100h100v100H100z"/><path fill="#c0a9b3" d="M200 100h100v100H200z"/><path fill="#ccb9c2" d="M300 100h100v100H300z"/><path fill="#d2cdcf" d="M400 100h100v100H400z"/><path fill="#d5bdc4" d="M500 100h100v100H500z"/><path fill="#c7c0c5" d="M600 100h100v100H600z"/><path fill="#dcdadd" d="M700 100h100v100H700z"/><path fill="#f1fcfd" d="M0 200h100v100H0z"/><path fill="#968091" d="M100 200h100v100H100z"/><path fill="#815a6c" d="M200 200h100v100H200z"/><path fill="#937687" d="M300 200h100v100H300z"/><path fill="#837c88" d="M400 200h100v100H400z"/><path fill="#876770" d="M500 200h100v100H500z"/><path fill="#97898d" d="M600 200h100v100H600z"/><path fill="#a78393" d="M700 200h100v100H700z"/><path fill="#f1f9fa" d="M0 300h100v100H0z"/><path fill="#a37e8b" d="M100 300h100v100H100z"/><path fill="#876e83" d="M200 300h100v100H200z"/><path fill="#9f969a" d="M300 300h100v100H300z"/><path fill="#7a6f7c" d="M400 300h100v100H400z"/><path fill="#756984" d="M500 300h100v100H500z"/><path fill="#9090aa" d="M600 300h100v100H600z"/><path fill="#8f7d8c" d="M700 300h100v100H700z"/><path fill="#f8f8fb" d="M0 400h100v100H0z"/><path fill="#a27285" d="M100 400h100v100H100z"/><path fill="#806973" d="M200 400h100v100H200z"/><path fill="#958083" d="M300 400h100v100H300z"/><path fill="#7a6f7b" d="M400 400h100v100H400z"/><path fill="#756c7b" d="M500 400h100v100H500z"/><path fill="#8d657b" d="M600 400h100v100H600z"/><path fill="#817680" d="M700 400h100v100H700z"/><path fill="#f5f8fb" d="M0 500h100v100H0z"/><path fill="#c9c1c8" d="M100 500h100v100H100z"/><path fill="#b8b1bd" d="M200 500h100v100H200z"/><path fill="#c7bbc9" d="M300 500h100v100H300z"/><path fill="#c7c3cb" d="M400 500h100v100H400z"/><path fill="#a7b1b8" d="M500 500h100v100H500z"/><path fill="#a8a7b1" d="M600 500h100v100H600z"/><path fill="#b9b6be" d="M700 500h100v100H700z"/></svg>