<svg xmlns="http://www.w3.org/2000/svg" viewBox="0 0 800 500"><defs/><path fill="#bebcb9" d="M0 0h100v100H0z"/><path fill="#91918f" d="M100 0h100v100H100z"/><path fill="#a3a4a1" d="M200 0h100v100H200z"/><path fill="#a3a39f" d="M300 0h100v100H300z"/><path fill="#a4a29c" d="M400 0h100v100H400z"/><path fill="#a3a29b" d="M500 0h100v100H500z"/><path fill="#92928c" d="M600 0h100v100H600z"/><path fill="#babab8" d="M700 0h100v100H700z"/><path fill="#62615d" d="M0 100h100v100H0z"/><path fill="#12130e" d="M100 100h100v100H100z"/><path fill="#252721" d="M200 100h100v100H200z"/><path fill="#1d1d14" d="M300 100h100v100H300z"/><path fill="#191b11" d="M400 100h100v100H400z"/><path fill="#353728" d="M500 100h100v100H500z"/><path fill="#27271f" d="M600 100h100v100H600z"/><path fill="#5f5f60" d="M700 100h100v100H700z"/><path fill="#64635f" d="M0 200h100v100H0z"/><path fill="#353631" d="M100 200h100v100H100z"/><path fill="#3a3832" d="M200 200h100v100H200z"/><path fill="#4f4b43" d="M300 200h100v100H300z"/><path fill="#4f4f4a" d="M400 200h100v100H400z"/><path fill="#7e7f5f" d="M500 200h100v100H500z"/><path fill="#7a7160" d="M600 200h100v100H600z"/><path fill="#7e7083" d="M700 200h100v100H700z"/><path fill="#6a6964" d="M0 300h100v100H0z"/><path fill="#23211a" d="M100 300h100v100H100z"/><path fill="#302d24" d="M200 300h100v100H200z"/><path fill="#605b55" d="M300 300h100v100H300z"/><path fill="#57574b" d="M400 300h100v100H400z"/><path fill="#8c8963" d="M500 300h100v100H500z"/><path fill="#99905f" d="M600 300h100v100H600z"/><path fill="#bdb49b" d="M700 300h100v100H700z"/><path fill="#9c9a94" d="M0 400h100v100H0z"/><path fill="#48453d" d="M100 400h100v100H100z"/><path fill="#565349" d="M200 400h100v100H200z"/><path fill="#717067" d="M300 400h100v100H300z"/><path fill="#68675f" d="M400 400h100v100H400z"/><path fill="#6f6d5c" d="M500 400h100v100H500z"/><path fill="#6f684e" d="M600 400h100v100H600z"/><path fill="#85806b" d="M700 400h100v100H700z"/></svg>