<svg xmlns="http://www.w3.org/2000/svg" viewBox="0 0 800 600"><defs/><path fill="#a36615" d="M0 0h100v100H0z"/><path fill="#b87718" d="M100 0h100v100H100z"/><path fill="#daa64a" d="M200 0h100v100H200z"/><path fill="#f3d7a7" d="M300 0h100v100H300z"/><path fill="#f6dbb4" d="M400 0h100v100H400z"/><path fill="#d6b485" d="M500 0h100v100H500z"/><path fill="#e4cbae" d="M600 0h100v100H600z"/><path fill="#e4d0bc" d="M700 0h100v100H700z"/><path fill="#844e0c" d="M0 100h100v100H0z"/><path fill="#ab7f41" d="M100 100h100v100H100z"/><path fill="#e1c9a4" d="M200 100h100v100H200z"/><path fill="#e3d2ad" d="M300 100h100v100H300z"/><path fill="#e0d0a8" d="M400 100h100v100H400z"/><path fill="#dbccaa" d="M500 100h100v100H500z"/><path fill="#c9b394" d="M600 100h100v100H600z"/><path fill="#c8b9ac" d="M700 100h100v100H700z"/><path fill="#6a3f13" d="M0 200h100v100H0z"/><path fill="#b6a386" d="M100 200h100v100H100z"/><path fill="#c7b486" d="M200 200h100v100H200z"/><path fill="#c8ac96" d="M300 200h100v100H300z"/><path fill="#bb9b90" d="M400 200h100v100H400z"/><path fill="#b59c8e" d="M500 200h100v100H500z"/><path fill="#ac9a84" d="M600 200h100v100H600z"/><path fill="#6e5b4a" d="M700 200h100v100H700z"/><path fill="#563517" d="M0 300h100v100H0z"/><path fill="#948160" d="M100 300h100v100H100z"/><path fill="#aa9b76" d="M200 300h100v100H200z"/><path fill="#b19b8a" d="M300 300h100v100H300z"/><path fill="#a78c87" d="M400 300h100v100H400z"/><path fill="#a68e8b" d="M500 300h100v100H500z"/><path fill="#9c9084" d="M600 300h100v100H600z"/><path fill="#4a3624" d="M700 300h100v100H700z"/><path fill="#3d250d" d="M0 400h100v100H0z"/><path fill="#786c53" d="M100 400h100v100H100z"/><path fill="#91887b" d="M200 400h100v100H200z"/><path fill="#988078" d="M300 400h100v100H300z"/><path fill="#a29486" d="M400 400h100v100H400z"/><path fill="#948788" d="M500 400h100v100H500z"/><path fill="#999292" d="M600 400h100v100H600z"/><path fill="#4a3a2e" d="M700 400h100v100H700z"/><path fill="#251607" d="M0 500h100v100H0z"/><path fill="#5c564b" d="M100 500h100v100H100z"/><path fill="#80716b" d="M200 500h100v100H200z"/><path fill="#78625d" d="M300 500h100v100H300z"/><path fill="#715954" d="M400 500h100v100H400z"/><path fill="#69545b" d="M500 500h100v100H500z"/><path fill="#726f71" d="M600 500h100v100H600z"/><path fill="#433428" d="M700 500h100v100H700z"/></svg>