<svg xmlns="http://www.w3.org/2000/svg" viewBox="0 0 800 400"><defs/><path fill="#cd65c3" d="M0 0h100v100H0z"/><path fill="#b66f90" d="M100 0h100v100H100z"/><path fill="#e156d7" d="M200 0h100v100H200z"/><path fill="#ed62e4" d="M300 0h100v100H300z"/><path fill="#df64cf" d="M400 0h100v100H400z"/><path fill="#ec55e5" d="M500 0h100v100H500z"/><path fill="#be88dc" d="M600 0h100v100H600z"/><path fill="#cb5dcd" d="M700 0h100v100H700z"/><path fill="#ba39a9" d="M0 100h100v100H0z"/><path fill="#8f3d65" d="M100 100h100v100H100z"/><path fill="#a03f8c" d="M200 100h100v100H200z"/><path fill="#cfb1b1" d="M300 100h100v100H300z"/><path fill="#87584a" d="M400 100h100v100H400z"/><path fill="#b722b1" d="M500 100h100v100H500z"/><path fill="#a93ec4" d="M600 100h100v100H600z"/><path fill="#9e2d92" d="M700 100h100v100H700z"/><path fill="#be3a99" d="M0 200h100v100H0z"/><path fill="#8c6171" d="M100 200h100v100H100z"/><path fill="#a2aab0" d="M200 200h100v100H200z"/><path fill="#a0a79e" d="M300 200h100v100H300z"/><path fill="#657d66" d="M400 200h100v100H400z"/><path fill="#648192" d="M500 200h100v100H500z"/><path fill="#7a3d7a" d="M600 200h100v100H600z"/><path fill="#961982" d="M700 200h100v100H700z"/><path fill="#be81a4" d="M0 300h100v100H0z"/><path fill="#aab4b5" d="M100 300h100v100H100z"/><path fill="#aab6b4" d="M200 300h100v100H200z"/><path fill="#99bda1" d="M300 300h100v100H300z"/><path fill="#8ea4ae" d="M400 300h100v100H400z"/><path fill="#87a3a3" d="M500 300h100v100H500z"/><path fill="#75a392" d="M600 300h100v100H600z"/><path fill="#a489b0" d="M700 300h100v100H700z"/></svg>