<svg xmlns="http://www.w3.org/2000/svg" viewBox="0 0 800 500"><defs/><path fill="#f7f7f7" d="M0 0h100v100H0z"/><path fill="#f5f5f5" d="M100 0h100v100H100z"/><path fill="#f4f4f4" d="M200 0h100v100H200z"/><path fill="#eee" d="M300 0h100v100H300zm100 0h100v100H400z"/><path fill="#f0f0f0" d="M500 0h100v100H500z"/><path fill="#eaeaea" d="M600 0h100v100H600z"/><path fill="#eee" d="M700 0h100v100H700z"/><path fill="#c8c7c9" d="M0 100h100v100H0z"/><path fill="#a9a9a9" d="M100 100h100v100H100z"/><path fill="#bfc0c0" d="M200 100h100v100H200z"/><path fill="#a9a9aa" d="M300 100h100v100H300z"/><path fill="#a7a7a7" d="M400 100h100v100H400z"/><path fill="#b2b2b2" d="M500 100h100v100H500z"/><path fill="#ababab" d="M600 100h100v100H600z"/><path fill="#b9b9ba" d="M700 100h100v100H700z"/><path fill="#d1d1d1" d="M0 200h100v100H0z"/><path fill="#afafb0" d="M100 200h100v100H100z"/><path fill="#9e9e9f" d="M200 200h100v100H200z"/><path fill="#8a898b" d="M300 200h100v100H300z"/><path fill="#a4a4a6" d="M400 200h100v100H400z"/><path fill="#a6a6a8" d="M500 200h100v100H500z"/><path fill="#ababac" d="M600 200h100v100H600z"/><path fill="#c5c5c5" d="M700 200h100v100H700z"/><path fill="#c6c5c6" d="M0 300h100v100H0z"/><path fill="#8d8d8f" d="M100 300h100v100H100z"/><path fill="#9a9a9c" d="M200 300h100v100H200z"/><path fill="#959597" d="M300 300h100v100H300z"/><path fill="#919193" d="M400 300h100v100H400z"/><path fill="#a0a0a1" d="M500 300h100v100H500z"/><path fill="#adadae" d="M600 300h100v100H600z"/><path fill="#c4c4c3" d="M700 300h100v100H700z"/><path fill="#d6d6d7" d="M0 400h100v100H0z"/><path fill="#b2b1b3" d="M100 400h100v100H100z"/><path fill="#d0d0d0" d="M200 400h100v100H200z"/><path fill="#cfcfce" d="M300 400h100v100H300z"/><path fill="#c8c8c8" d="M400 400h100v100H400z"/><path fill="#cfcfd0" d="M500 400h100v100H500z"/><path fill="#ccc" d="M600 400h100v100H600z"/><path fill="#cdcdcd" d="M700 400h100v100H700z"/></svg>