<svg xmlns="http://www.w3.org/2000/svg" viewBox="0 0 800 400"><defs/><path fill="#605954" d="M0 0h100v100H0z"/><path fill="#8e7154" d="M100 0h100v100H100z"/><path fill="#8a745a" d="M200 0h100v100H200z"/><path fill="#a29480" d="M300 0h100v100H300z"/><path fill="#a1967b" d="M400 0h100v100H400z"/><path fill="#918b77" d="M500 0h100v100H500z"/><path fill="#9c886f" d="M600 0h100v100H600z"/><path fill="#343334" d="M700 0h100v100H700z"/><path fill="#5f5049" d="M0 100h100v100H0z"/><path fill="#836244" d="M100 100h100v100H100z"/><path fill="#564f48" d="M200 100h100v100H200z"/><path fill="#635048" d="M300 100h100v100H300z"/><path fill="#454940" d="M400 100h100v100H400z"/><path fill="#4e4d46" d="M500 100h100v100H500z"/><path fill="#93806c" d="M600 100h100v100H600z"/><path fill="#3e3938" d="M700 100h100v100H700z"/><path fill="#735e4e" d="M0 200h100v100H0z"/><path fill="#754d2f" d="M100 200h100v100H100z"/><path fill="#553837" d="M200 200h100v100H200z"/><path fill="#54413b" d="M300 200h100v100H300z"/><path fill="#46352f" d="M400 200h100v100H400z"/><path fill="#4a352e" d="M500 200h100v100H500z"/><path fill="#755e4a" d="M600 200h100v100H600z"/><path fill="#463d38" d="M700 200h100v100H700z"/><path fill="#725745" d="M0 300h100v100H0z"/><path fill="#764f35" d="M100 300h100v100H100z"/><path fill="#634840" d="M200 300h100v100H200z"/><path fill="#584d4d" d="M300 300h100v100H300z"/><path fill="#55413a" d="M400 300h100v100H400z"/><path fill="#483330" d="M500 300h100v100H500z"/><path fill="#6c4d47" d="M600 300h100v100H600z"/><path fill="#362c31" d="M700 300h100v100H700z"/></svg>