<svg xmlns="http://www.w3.org/2000/svg" viewBox="0 0 800 500"><defs/><path fill="#ebf1f3" d="M0 0h100v100H0z"/><path fill="#e9eff1" d="M100 0h100v100H100z"/><path fill="#f2f2f2" d="M200 0h100v100H200z"/><path fill="#f2eaeb" d="M300 0h100v100H300z"/><path fill="#f2e6e7" d="M400 0h100v100H400z"/><path fill="#f0e5e6" d="M500 0h100v100H500z"/><path fill="#f9eded" d="M600 0h100v100H600z"/><path fill="#f4eaea" d="M700 0h100v100H700z"/><path fill="#b6d9e6" d="M0 100h100v100H0z"/><path fill="#a1c5d2" d="M100 100h100v100H100z"/><path fill="#bab7b6" d="M200 100h100v100H200z"/><path fill="#ccafb2" d="M300 100h100v100H300z"/><path fill="#f2ced1" d="M400 100h100v100H400z"/><path fill="#dbb6b9" d="M500 100h100v100H500z"/><path fill="#cea3a7" d="M600 100h100v100H600z"/><path fill="#e5ccce" d="M700 100h100v100H700z"/><path fill="#cfd2d3" d="M0 200h100v100H0z"/><path fill="#899da4" d="M100 200h100v100H100z"/><path fill="#5d737e" d="M200 200h100v100H200z"/><path fill="#806d6f" d="M300 200h100v100H300z"/><path fill="#dbc3c5" d="M400 200h100v100H400z"/><path fill="#cfacaf" d="M500 200h100v100H500z"/><path fill="#9b8a8b" d="M600 200h100v100H600z"/><path fill="#e0bcbf" d="M700 200h100v100H700z"/><path fill="#adadae" d="M0 300h100v100H0z"/><path fill="#728b94" d="M100 300h100v100H100z"/><path fill="#68777e" d="M200 300h100v100H200z"/><path fill="#b7a1a2" d="M300 300h100v100H300z"/><path fill="#d2b6b8" d="M400 300h100v100H400z"/><path fill="#d8c0c2" d="M500 300h100v100H500z"/><path fill="#a17d80" d="M600 300h100v100H600z"/><path fill="#9c787b" d="M700 300h100v100H700z"/><path fill="#d0d1d1" d="M0 400h100v100H0z"/><path fill="#cfcecd" d="M100 400h100v100H100z"/><path fill="#cfcccb" d="M200 400h100v100H200z"/><path fill="#e0c3c6" d="M300 400h100v100H300z"/><path fill="#eacdcf" d="M400 400h100v100H400z"/><path fill="#f0e5e6" d="M500 400h100v100H500z"/><path fill="#e2cbcd" d="M600 400h100v100H600z"/><path fill="#c4bebe" d="M700 400h100v100H700z"/></svg>