<svg xmlns="http://www.w3.org/2000/svg" viewBox="0 0 800 600"><defs/><path fill="#2e1a0a" d="M0 0h100v100H0z"/><path fill="#2f1c10" d="M100 0h100v100H100z"/><path fill="#3e3733" d="M200 0h100v100H200z"/><path fill="#332f2b" d="M300 0h100v100H300z"/><path fill="#302820" d="M400 0h100v100H400z"/><path fill="#292319" d="M500 0h100v100H500z"/><path fill="#2e2416" d="M600 0h100v100H600z"/><path fill="#1d1308" d="M700 0h100v100H700z"/><path fill="#2c1107" d="M0 100h100v100H0z"/><path fill="#481c07" d="M100 100h100v100H100z"/><path fill="#5e392a" d="M200 100h100v100H200z"/><path fill="#7e7c79" d="M300 100h100v100H300z"/><path fill="#787673" d="M400 100h100v100H400z"/><path fill="#73706d" d="M500 100h100v100H500z"/><path fill="#615e5b" d="M600 100h100v100H600z"/><path fill="#4d4a47" d="M700 100h100v100H700z"/><path fill="#280d04" d="M0 200h100v100H0z"/><path fill="#341a11" d="M100 200h100v100H100z"/><path fill="#3a2820" d="M200 200h100v100H200z"/><path fill="#827e78" d="M300 200h100v100H300z"/><path fill="#a1a39e" d="M400 200h100v100H400z"/><path fill="#a6a59f" d="M500 200h100v100H500z"/><path fill="#98948f" d="M600 200h100v100H600z"/><path fill="#86827f" d="M700 200h100v100H700z"/><path fill="#1c0902" d="M0 300h100v100H0z"/><path fill="#1f1a18" d="M100 300h100v100H100z"/><path fill="#636463" d="M200 300h100v100H200z"/><path fill="#b2b3af" d="M300 300h100v100H300z"/><path fill="#aeb0ac" d="M400 300h100v100H400z"/><path fill="#b7b9b3" d="M500 300h100v100H500z"/><path fill="#93918d" d="M600 300h100v100H600z"/><path fill="#706e6c" d="M700 300h100v100H700z"/><path fill="#332f2e" d="M0 400h100v100H0z"/><path fill="#686766" d="M100 400h100v100H100z"/><path fill="#90928f" d="M200 400h100v100H200z"/><path fill="#d2d4d2" d="M300 400h100v100H300z"/><path fill="#bdbfbc" d="M400 400h100v100H400z"/><path fill="#959794" d="M500 400h100v100H500z"/><path fill="#767672" d="M600 400h100v100H600z"/><path fill="#7b7978" d="M700 400h100v100H700z"/><path fill="#4a484a" d="M0 500h100v100H0z"/><path fill="#8d8f8d" d="M100 500h100v100H100z"/><path fill="#979996" d="M200 500h100v100H200z"/><path fill="#adafac" d="M300 500h100v100H300z"/><path fill="#c5c7c4" d="M400 500h100v100H400z"/><path fill="#858583" d="M500 500h100v100H500z"/><path fill="#5f5f5c" d="M600 500h100v100H600z"/><path fill="#8e8d8b" d="M700 500h100v100H700z"/></svg>