<svg xmlns="http://www.w3.org/2000/svg" viewBox="0 0 800 500"><defs/><path fill="#e2e7e9" d="M0 0h100v100H0z"/><path fill="#d7dde0" d="M100 0h100v100H100z"/><path fill="#dce2e4" d="M200 0h100v100H200z"/><path fill="#e0e6e9" d="M300 0h100v100H300z"/><path fill="#dde3e5" d="M400 0h100v100H400z"/><path fill="#e1e6e9" d="M500 0h100v100H500z"/><path fill="#e2e7e9" d="M600 0h100v100H600z"/><path fill="#e4eaeb" d="M700 0h100v100H700z"/><path fill="#a3b8c2" d="M0 100h100v100H0z"/><path fill="#66818f" d="M100 100h100v100H100z"/><path fill="#8ba6b3" d="M200 100h100v100H200z"/><path fill="#92a9b5" d="M300 100h100v100H300z"/><path fill="#78929f" d="M400 100h100v100H400z"/><path fill="#809ba7" d="M500 100h100v100H500z"/><path fill="#98b2bf" d="M600 100h100v100H600z"/><path fill="#99b2bf" d="M700 100h100v100H700z"/><path fill="#a1b5bf" d="M0 200h100v100H0z"/><path fill="#758f9c" d="M100 200h100v100H100z"/><path fill="#91aab6" d="M200 200h100v100H200z"/><path fill="#98a6ac" d="M300 200h100v100H300z"/><path fill="#9ea4a7" d="M400 200h100v100H400z"/><path fill="#90a4ae" d="M500 200h100v100H500z"/><path fill="#97b2bf" d="M600 200h100v100H600z"/><path fill="#a2bbc7" d="M700 200h100v100H700z"/><path fill="#8da3ae" d="M0 300h100v100H0z"/><path fill="#506c7b" d="M100 300h100v100H100z"/><path fill="#67818f" d="M200 300h100v100H200z"/><path fill="#81949e" d="M300 300h100v100H300z"/><path fill="#8f999d" d="M400 300h100v100H400z"/><path fill="#85949b" d="M500 300h100v100H500z"/><path fill="#667f8c" d="M600 300h100v100H600z"/><path fill="#75919e" d="M700 300h100v100H700z"/><path fill="#a2afb5" d="M0 400h100v100H0z"/><path fill="#7c8c95" d="M100 400h100v100H100z"/><path fill="#b0c0c8" d="M200 400h100v100H200z"/><path fill="#b6c5cb" d="M300 400h100v100H300z"/><path fill="#a7b7bd" d="M400 400h100v100H400z"/><path fill="#bccdd5" d="M500 400h100v100H500z"/><path fill="#9bacb3" d="M600 400h100v100H600z"/><path fill="#78878f" d="M700 400h100v100H700z"/></svg>