<svg xmlns="http://www.w3.org/2000/svg" viewBox="0 0 800 800"><defs/><path fill="#594e54" d="M0 0h100v100H0z"/><path fill="#817a44" d="M100 0h100v100H100z"/><path fill="#bebd30" d="M200 0h100v100H200z"/><path fill="#6e654b" d="M300 0h100v100H300z"/><path fill="#575052" d="M400 0h100v100H400z"/><path fill="#3c5339" d="M500 0h100v100H500z"/><path fill="#315634" d="M600 0h100v100H600z"/><path fill="#355937" d="M700 0h100v100H700z"/><path fill="#534d4f" d="M0 100h100v100H0z"/><path fill="#715539" d="M100 100h100v100H100z"/><path fill="#9e6d21" d="M200 100h100v100H200z"/><path fill="#68584d" d="M300 100h100v100H300z"/><path fill="#3d513b" d="M400 100h100v100H400z"/><path fill="#2d552e" d="M500 100h100v100H500z"/><path fill="#335233" d="M600 100h100v100H600z"/><path fill="#26452b" d="M700 100h100v100H700z"/><path fill="#585158" d="M0 200h100v100H0z"/><path fill="#85632d" d="M100 200h100v100H100z"/><path fill="#5f3c15" d="M200 200h100v100H200z"/><path fill="#4a4240" d="M300 200h100v100H300z"/><path fill="#4b5978" d="M400 200h100v100H400z"/><path fill="#706c4a" d="M500 200h100v100H500z"/><path fill="#516286" d="M600 200h100v100H600z"/><path fill="#493626" d="M700 200h100v100H700z"/><path fill="#b3a638" d="M0 300h100v100H0z"/><path fill="#dcbc42" d="M100 300h100v100H100z"/><path fill="#997423" d="M200 300h100v100H200z"/><path fill="#51473a" d="M300 300h100v100H300z"/><path fill="#625e75" d="M400 300h100v100H400z"/><path fill="#9b6844" d="M500 300h100v100H500z"/><path fill="#7b6858" d="M600 300h100v100H600z"/><path fill="#85663a" d="M700 300h100v100H700z"/><path fill="#c7ab4f" d="M0 400h100v100H0z"/><path fill="#f2c772" d="M100 400h100v100H100z"/><path fill="#b79a89" d="M200 400h100v100H200z"/><path fill="#5e5966" d="M300 400h100v100H300z"/><path fill="#695944" d="M400 400h100v100H400z"/><path fill="#95672a" d="M500 400h100v100H500z"/><path fill="#a2733f" d="M600 400h100v100H600z"/><path fill="#a9672f" d="M700 400h100v100H700z"/><path fill="#a47786" d="M0 500h100v100H0z"/><path fill="#ea99a8" d="M100 500h100v100H100z"/><path fill="#826ca4" d="M200 500h100v100H200z"/><path fill="#4e505f" d="M300 500h100v100H300z"/><path fill="#965f60" d="M400 500h100v100H400z"/><path fill="#bb6b78" d="M500 500h100v100H500z"/><path fill="#b36447" d="M600 500h100v100H600z"/><path fill="#d45e11" d="M700 500h100v100H700z"/><path fill="#90697b" d="M0 600h100v100H0z"/><path fill="#ed7aea" d="M100 600h100v100H100z"/><path fill="#99559f" d="M200 600h100v100H200z"/><path fill="#4a473d" d="M300 600h100v100H300z"/><path fill="#8b5e57" d="M400 600h100v100H400z"/><path fill="#f872d4" d="M500 600h100v100H500z"/><path fill="#dc6fb4" d="M600 600h100v100H600z"/><path fill="#926d7b" d="M700 600h100v100H700z"/><path fill="#775761" d="M0 700h100v100H0z"/><path fill="#99646d" d="M100 700h100v100H100z"/><path fill="#684f5f" d="M200 700h100v100H200z"/><path fill="#534c4d" d="M300 700h100v100H300z"/><path fill="#605753" d="M400 700h100v100H400z"/><path fill="#c8689a" d="M500 700h100v100H500z"/><path fill="#d570b9" d="M600 700h100v100H600z"/><path fill="#6873bd" d="M700 700h100v100H700z"/></svg>