<svg xmlns="http://www.w3.org/2000/svg" viewBox="0 0 800 600"><defs/><path fill="#f8f7f4" d="M0 0h100v100H0z"/><path fill="#eef0eb" d="M100 0h100v100H100z"/><path fill="#f1efef" d="M200 0h100v100H200z"/><path fill="#f9f8f8" d="M300 0h100v100H300z"/><path fill="#fefefd" d="M400 0h100v100H400z"/><path fill="#fdfbfa" d="M500 0h100v100H500z"/><path fill="#fcfbfb" d="M600 0h100v100H600z"/><path fill="#fdfbfa" d="M700 0h100v100H700z"/><path fill="#e9ddc7" d="M0 100h100v100H0z"/><path fill="#a4a173" d="M100 100h100v100H100z"/><path fill="#cfd0c4" d="M200 100h100v100H200z"/><path fill="#eae8f3" d="M300 100h100v100H300z"/><path fill="#ebeaed" d="M400 100h100v100H400z"/><path fill="#dce6de" d="M500 100h100v100H500z"/><path fill="#d9dbcf" d="M600 100h100v100H600z"/><path fill="#dcd2bb" d="M700 100h100v100H700z"/><path fill="#dcd3bc" d="M0 200h100v100H0z"/><path fill="#ad9c77" d="M100 200h100v100H100z"/><path fill="#d5d6cb" d="M200 200h100v100H200z"/><path fill="#d5d6d0" d="M300 200h100v100H300z"/><path fill="#d1dee7" d="M400 200h100v100H400z"/><path fill="#cddcde" d="M500 200h100v100H500z"/><path fill="#c7d1ce" d="M600 200h100v100H600z"/><path fill="#9a968a" d="M700 200h100v100H700z"/><path fill="#bbbb98" d="M0 300h100v100H0z"/><path fill="#c5ae86" d="M100 300h100v100H100z"/><path fill="#c9ced0" d="M200 300h100v100H200z"/><path fill="#cdcec7" d="M300 300h100v100H300z"/><path fill="#d9c8ba" d="M400 300h100v100H400z"/><path fill="#d6cbb9" d="M500 300h100v100H500z"/><path fill="#cdc5b2" d="M600 300h100v100H600z"/><path fill="#857b6d" d="M700 300h100v100H700z"/><path fill="#c7b691" d="M0 400h100v100H0z"/><path fill="#b29565" d="M100 400h100v100H100z"/><path fill="#c4bda7" d="M200 400h100v100H200z"/><path fill="#d3bfaa" d="M300 400h100v100H300z"/><path fill="#d1bfa0" d="M400 400h100v100H400z"/><path fill="#c8c0a2" d="M500 400h100v100H500z"/><path fill="#bbad8d" d="M600 400h100v100H600z"/><path fill="#a6966d" d="M700 400h100v100H700z"/><path fill="#ede4da" d="M0 500h100v100H0z"/><path fill="#e9e1d0" d="M100 500h100v100H100z"/><path fill="#eee7da" d="M200 500h100v100H200z"/><path fill="#ede7db" d="M300 500h100v100H300z"/><path fill="#eeebde" d="M400 500h100v100H400z"/><path fill="#e9e6d6" d="M500 500h100v100H500z"/><path fill="#e0dbc9" d="M600 500h100v100H600z"/><path fill="#dad4c3" d="M700 500h100v100H700z"/></svg>