<svg xmlns="http://www.w3.org/2000/svg" viewBox="0 0 800 600"><defs/><path fill="#ecf3f2" d="M0 0h100v100H0z"/><path fill="#ebf5f6" d="M100 0h100v100H100z"/><path fill="#f0f4f1" d="M200 0h100v100H200z"/><path fill="#fbfaf8" d="M300 0h100v100H300z"/><path fill="#f6f5f1" d="M400 0h100v100H400z"/><path fill="#f5f4f0" d="M500 0h100v100H500z"/><path fill="#f8f8f5" d="M600 0h100v100H600z"/><path fill="#ebf4f7" d="M700 0h100v100H700z"/><path fill="#a3bfb3" d="M0 100h100v100H0z"/><path fill="#8fc9d1" d="M100 100h100v100H100z"/><path fill="#b5c0ae" d="M200 100h100v100H200z"/><path fill="#dcd7c0" d="M300 100h100v100H300z"/><path fill="#b5b3a3" d="M400 100h100v100H400z"/><path fill="#adaa9a" d="M500 100h100v100H500z"/><path fill="#b9b7aa" d="M600 100h100v100H600z"/><path fill="#93bccd" d="M700 100h100v100H700z"/><path fill="#aacacf" d="M0 200h100v100H0z"/><path fill="#8bc7d2" d="M100 200h100v100H100z"/><path fill="#d4cfbb" d="M200 200h100v100H200z"/><path fill="#e5dac2" d="M300 200h100v100H300z"/><path fill="#d3c4b1" d="M400 200h100v100H400z"/><path fill="#c7baa8" d="M500 200h100v100H500z"/><path fill="#c9c1b5" d="M600 200h100v100H600z"/><path fill="#97b8ca" d="M700 200h100v100H700z"/><path fill="#acced2" d="M0 300h100v100H0z"/><path fill="#93bac4" d="M100 300h100v100H100z"/><path fill="#b9d5d0" d="M200 300h100v100H200z"/><path fill="#cbd4ce" d="M300 300h100v100H300z"/><path fill="#c0ccbf" d="M400 300h100v100H400z"/><path fill="#c0ccc2" d="M500 300h100v100H500z"/><path fill="#a0d7d2" d="M600 300h100v100H600z"/><path fill="#7abcc1" d="M700 300h100v100H700z"/><path fill="#8caa82" d="M0 400h100v100H0z"/><path fill="#a4b2bc" d="M100 400h100v100H100z"/><path fill="#a6dce9" d="M200 400h100v100H200z"/><path fill="#afcfd9" d="M300 400h100v100H300z"/><path fill="#a6d8e2" d="M400 400h100v100H400z"/><path fill="#b8dee7" d="M500 400h100v100H500z"/><path fill="#88c8cf" d="M600 400h100v100H600z"/><path fill="#71bcbe" d="M700 400h100v100H700z"/><path fill="#e0e0df" d="M0 500h100v100H0z"/><path fill="#e4e6ec" d="M100 500h100v100H100z"/><path fill="#ebf4f8" d="M200 500h100v100H200z"/><path fill="#e4eef2" d="M300 500h100v100H300z"/><path fill="#e6f3f7" d="M400 500h100v100H400z"/><path fill="#e0f0f4" d="M500 500h100v100H500z"/><path fill="#e6f3f8" d="M600 500h100v100H600z"/><path fill="#e5f0f4" d="M700 500h100v100H700z"/></svg>