<svg xmlns="http://www.w3.org/2000/svg" viewBox="0 0 800 500"><defs/><path fill="#fefffe" d="M0 0h100v100H0z"/><path fill="#f5f1ef" d="M100 0h100v100H100z"/><path fill="#f7f4f3" d="M200 0h100v100H200z"/><path fill="#faf9f9" d="M300 0h100v100H300z"/><path fill="#fbfcfc" d="M400 0h100v100H400zm100 0h100v100H500z"/><path fill="#fbfbf9" d="M600 0h100v100H600z"/><path fill="#fcfcfd" d="M700 0h100v100H700z"/><path fill="#fbfcfa" d="M0 100h100v100H0z"/><path fill="#c0a599" d="M100 100h100v100H100z"/><path fill="#bda196" d="M200 100h100v100H200z"/><path fill="#e0d7d3" d="M300 100h100v100H300z"/><path fill="#dadcdd" d="M400 100h100v100H400z"/><path fill="#e5e5e8" d="M500 100h100v100H500z"/><path fill="#e8e8df" d="M600 100h100v100H600z"/><path fill="#e8e4d4" d="M700 100h100v100H700z"/><path fill="#f2eeeb" d="M0 200h100v100H0z"/><path fill="#b8a197" d="M100 200h100v100H100z"/><path fill="#c0a299" d="M200 200h100v100H200z"/><path fill="#bbb0b0" d="M300 200h100v100H300z"/><path fill="#b7bbbb" d="M400 200h100v100H400z"/><path fill="#bbbdbc" d="M500 200h100v100H500z"/><path fill="#dfcda0" d="M600 200h100v100H600z"/><path fill="#f5e3bd" d="M700 200h100v100H700z"/><path fill="#e0d7d3" d="M0 300h100v100H0z"/><path fill="#ad8367" d="M100 300h100v100H100z"/><path fill="#dfbe8c" d="M200 300h100v100H200z"/><path fill="#d3a06a" d="M300 300h100v100H300z"/><path fill="#c79966" d="M400 300h100v100H400z"/><path fill="#e3a45d" d="M500 300h100v100H500z"/><path fill="#d8a967" d="M600 300h100v100H600z"/><path fill="#d2dfda" d="M700 300h100v100H700z"/><path fill="#f2eae3" d="M0 400h100v100H0z"/><path fill="#efd0b5" d="M100 400h100v100H100z"/><path fill="#f8dcb5" d="M200 400h100v100H200z"/><path fill="#fcd6ac" d="M300 400h100v100H300z"/><path fill="#fdd2a5" d="M400 400h100v100H400z"/><path fill="#ffd7ac" d="M500 400h100v100H500z"/><path fill="#e4d7c5" d="M600 400h100v100H600z"/><path fill="#c5dbe5" d="M700 400h100v100H700z"/></svg>