<svg xmlns="http://www.w3.org/2000/svg" viewBox="0 0 800 500"><defs/><path fill="#b6ae9b" d="M0 0h100v100H0z"/><path fill="#ac9e90" d="M100 0h100v100H100z"/><path fill="#b8aea7" d="M200 0h100v100H200z"/><path fill="#bbb7b2" d="M300 0h100v100H300z"/><path fill="#b7b1a7" d="M400 0h100v100H400z"/><path fill="#b0a499" d="M500 0h100v100H500z"/><path fill="#a79680" d="M600 0h100v100H600z"/><path fill="#b1a37f" d="M700 0h100v100H700z"/><path fill="#a9a58a" d="M0 100h100v100H0z"/><path fill="#a28566" d="M100 100h100v100H100z"/><path fill="#ac9b93" d="M200 100h100v100H200z"/><path fill="#c5bcc2" d="M300 100h100v100H300z"/><path fill="#b5aeb0" d="M400 100h100v100H400z"/><path fill="#747177" d="M500 100h100v100H500z"/><path fill="#836658" d="M600 100h100v100H600z"/><path fill="#ada375" d="M700 100h100v100H700z"/><path fill="#a7935a" d="M0 200h100v100H0z"/><path fill="#82613c" d="M100 200h100v100H100z"/><path fill="#3c6e53" d="M200 200h100v100H200z"/><path fill="#917068" d="M300 200h100v100H300z"/><path fill="#a57272" d="M400 200h100v100H400z"/><path fill="#8d7f67" d="M500 200h100v100H500z"/><path fill="#6a4436" d="M600 200h100v100H600z"/><path fill="#926b48" d="M700 200h100v100H700z"/><path fill="#c1988a" d="M0 300h100v100H0z"/><path fill="#c48ba4" d="M100 300h100v100H100z"/><path fill="#947269" d="M200 300h100v100H200z"/><path fill="#885d53" d="M300 300h100v100H300z"/><path fill="#82635b" d="M400 300h100v100H400z"/><path fill="#9e7749" d="M500 300h100v100H500z"/><path fill="#7b442a" d="M600 300h100v100H600z"/><path fill="#8c4f1a" d="M700 300h100v100H700z"/><path fill="#c0a994" d="M0 400h100v100H0z"/><path fill="#c5ada3" d="M100 400h100v100H100z"/><path fill="#cfb7a2" d="M200 400h100v100H200z"/><path fill="#cbbbb0" d="M300 400h100v100H300z"/><path fill="#bcb0b1" d="M400 400h100v100H400z"/><path fill="#a49fa3" d="M500 400h100v100H500z"/><path fill="#bbaa9d" d="M600 400h100v100H600z"/><path fill="#b6a388" d="M700 400h100v100H700z"/></svg>