<svg xmlns="http://www.w3.org/2000/svg" viewBox="0 0 800 600"><defs/><path fill="#d5d1e1" d="M0 0h100v100H0z"/><path fill="#cdcae0" d="M100 0h100v100H100z"/><path fill="#d5d6e5" d="M200 0h100v100H200z"/><path fill="#d9d9e6" d="M300 0h100v100H300z"/><path fill="#dadce8" d="M400 0h100v100H400z"/><path fill="#dedee9" d="M500 0h100v100H500z"/><path fill="#e2dfeb" d="M600 0h100v100H600z"/><path fill="#e5e3ed" d="M700 0h100v100H700z"/><path fill="#7669b2" d="M0 100h100v100H0z"/><path fill="#6138a3" d="M100 100h100v100H100z"/><path fill="#96609a" d="M200 100h100v100H200z"/><path fill="#986397" d="M300 100h100v100H300z"/><path fill="#98639a" d="M400 100h100v100H400z"/><path fill="#946398" d="M500 100h100v100H500z"/><path fill="#7a5c93" d="M600 100h100v100H600z"/><path fill="#88659e" d="M700 100h100v100H700z"/><path fill="#979ad9" d="M0 200h100v100H0z"/><path fill="#8c5bb6" d="M100 200h100v100H100z"/><path fill="#b26b9d" d="M200 200h100v100H200z"/><path fill="#bd6aa2" d="M300 200h100v100H300z"/><path fill="#ca72a1" d="M400 200h100v100H400z"/><path fill="#c2719b" d="M500 200h100v100H500z"/><path fill="#73537f" d="M600 200h100v100H600z"/><path fill="#a26b9e" d="M700 200h100v100H700z"/><path fill="#ac9dd6" d="M0 300h100v100H0z"/><path fill="#7c6297" d="M100 300h100v100H100z"/><path fill="#2d3b82" d="M200 300h100v100H200z"/><path fill="#543e92" d="M300 300h100v100H300z"/><path fill="#8466a0" d="M400 300h100v100H400z"/><path fill="#9167b2" d="M500 300h100v100H500z"/><path fill="#6e42a1" d="M600 300h100v100H600z"/><path fill="#945cb6" d="M700 300h100v100H700z"/><path fill="#a18cc2" d="M0 400h100v100H0z"/><path fill="#714f99" d="M100 400h100v100H100z"/><path fill="#7e6388" d="M200 400h100v100H200z"/><path fill="#965879" d="M300 400h100v100H300z"/><path fill="#978097" d="M400 400h100v100H400z"/><path fill="#957fb0" d="M500 400h100v100H500z"/><path fill="#7956c8" d="M600 400h100v100H600z"/><path fill="#4b288c" d="M700 400h100v100H700z"/><path fill="#b9bad0" d="M0 500h100v100H0z"/><path fill="#bbbcdf" d="M100 500h100v100H100z"/><path fill="#e7d6d4" d="M200 500h100v100H200z"/><path fill="#d5c1cc" d="M300 500h100v100H300z"/><path fill="#c2b3cc" d="M400 500h100v100H400z"/><path fill="#d5c0c4" d="M500 500h100v100H500z"/><path fill="#b6aac2" d="M600 500h100v100H600z"/><path fill="#9f97b8" d="M700 500h100v100H700z"/></svg>