<svg xmlns="http://www.w3.org/2000/svg" viewBox="0 0 800 500"><defs/><path fill="#f2f7f2" d="M0 0h100v100H0z"/><path fill="#f7f8f3" d="M100 0h100v100H100z"/><path fill="#fdfdf9" d="M200 0h100v100H200z"/><path fill="#fcfefa" d="M300 0h100v100H300z"/><path fill="#fcfbf8" d="M400 0h100v100H400z"/><path fill="#fbfdf9" d="M500 0h100v100H500zm100 0h100v100H600z"/><path fill="#fcfcf7" d="M700 0h100v100H700z"/><path fill="#d9e5e2" d="M0 100h100v100H0z"/><path fill="#e6e6e1" d="M100 100h100v100H100z"/><path fill="#d5dcd7" d="M200 100h100v100H200z"/><path fill="#f3ece8" d="M300 100h100v100H300z"/><path fill="#f3e3dd" d="M400 100h100v100H400z"/><path fill="#ebdcd4" d="M500 100h100v100H500z"/><path fill="#e6dad3" d="M600 100h100v100H600z"/><path fill="#f1e3dc" d="M700 100h100v100H700z"/><path fill="#e0e7e3" d="M0 200h100v100H0z"/><path fill="#e9e9e4" d="M100 200h100v100H100z"/><path fill="#e1dbd1" d="M200 200h100v100H200z"/><path fill="#f4ded4" d="M300 200h100v100H300z"/><path fill="#ecd8d2" d="M400 200h100v100H400z"/><path fill="#ebdfd5" d="M500 200h100v100H500z"/><path fill="#eee0d8" d="M600 200h100v100H600z"/><path fill="#e3d7cf" d="M700 200h100v100H700z"/><path fill="#e5e7e3" d="M0 300h100v100H0z"/><path fill="#ebe1d7" d="M100 300h100v100H100z"/><path fill="#e8c8b3" d="M200 300h100v100H200z"/><path fill="#de8366" d="M300 300h100v100H300z"/><path fill="#eaa98f" d="M400 300h100v100H400z"/><path fill="#dea188" d="M500 300h100v100H500z"/><path fill="#e7ac95" d="M600 300h100v100H600z"/><path fill="#c79d89" d="M700 300h100v100H700z"/><path fill="#eeebe4" d="M0 400h100v100H0z"/><path fill="#efe1d5" d="M100 400h100v100H100z"/><path fill="#e8e1d4" d="M200 400h100v100H200z"/><path fill="#e3bdab" d="M300 400h100v100H300z"/><path fill="#e9ae97" d="M400 400h100v100H400z"/><path fill="#e39b82" d="M500 400h100v100H500z"/><path fill="#e3967d" d="M600 400h100v100H600z"/><path fill="#e5b39e" d="M700 400h100v100H700z"/></svg>