<svg xmlns="http://www.w3.org/2000/svg" viewBox="0 0 800 400"><defs/><path fill="#684437" d="M0 0h100v100H0z"/><path fill="#9d614c" d="M100 0h100v100H100z"/><path fill="#c28265" d="M200 0h100v100H200z"/><path fill="#a2745d" d="M300 0h100v100H300z"/><path fill="#9b664f" d="M400 0h100v100H400z"/><path fill="#b47354" d="M500 0h100v100H500z"/><path fill="#dd9571" d="M600 0h100v100H600z"/><path fill="#c16f53" d="M700 0h100v100H700z"/><path fill="#70483c" d="M0 100h100v100H0z"/><path fill="#905847" d="M100 100h100v100H100z"/><path fill="#935b4b" d="M200 100h100v100H200z"/><path fill="#85574a" d="M300 100h100v100H300z"/><path fill="#916045" d="M400 100h100v100H400z"/><path fill="#c07e5c" d="M500 100h100v100H500z"/><path fill="#f6b79c" d="M600 100h100v100H600z"/><path fill="#c1765b" d="M700 100h100v100H700z"/><path fill="#674135" d="M0 200h100v100H0z"/><path fill="#644238" d="M100 200h100v100H100z"/><path fill="#794c48" d="M200 200h100v100H200z"/><path fill="#915d5b" d="M300 200h100v100H300z"/><path fill="#a26655" d="M400 200h100v100H400z"/><path fill="#a4625b" d="M500 200h100v100H500z"/><path fill="#a86768" d="M600 200h100v100H600z"/><path fill="#7d4c40" d="M700 200h100v100H700z"/><path fill="#6d4539" d="M0 300h100v100H0z"/><path fill="#6e4a3d" d="M100 300h100v100H100z"/><path fill="#774d46" d="M200 300h100v100H200z"/><path fill="#7c4d49" d="M300 300h100v100H300z"/><path fill="#864844" d="M400 300h100v100H400z"/><path fill="#7c4648" d="M500 300h100v100H500z"/><path fill="#6d3f3f" d="M600 300h100v100H600z"/><path fill="#6a3b32" d="M700 300h100v100H700z"/></svg>