<svg xmlns="http://www.w3.org/2000/svg" viewBox="0 0 800 800"><defs/><path fill="#907e68" d="M0 0h100v100H0z"/><path fill="#84827f" d="M100 0h100v100H100z"/><path fill="#ced0d5" d="M200 0h100v100H200z"/><path fill="#c5c6c7" d="M300 0h100v100H300z"/><path fill="#847f78" d="M400 0h100v100H400z"/><path fill="#796c55" d="M500 0h100v100H500z"/><path fill="#7e6b4f" d="M600 0h100v100H600z"/><path fill="#735d4a" d="M700 0h100v100H700z"/><path fill="#6e6151" d="M0 100h100v100H0z"/><path fill="#b6b7b4" d="M100 100h100v100H100z"/><path fill="#cdcfd3" d="M200 100h100v100H200z"/><path fill="#c7c8cb" d="M300 100h100v100H300z"/><path fill="#92917d" d="M400 100h100v100H400z"/><path fill="#735f43" d="M500 100h100v100H500z"/><path fill="#6a3c28" d="M600 100h100v100H600z"/><path fill="#5c3d2b" d="M700 100h100v100H700z"/><path fill="#746859" d="M0 200h100v100H0z"/><path fill="#bcc0bd" d="M100 200h100v100H100z"/><path fill="#d8dddf" d="M200 200h100v100H200z"/><path fill="#d1d2d2" d="M300 200h100v100H300z"/><path fill="#a0a16b" d="M400 200h100v100H400z"/><path fill="#713f27" d="M500 200h100v100H500z"/><path fill="#20060a" d="M600 200h100v100H600z"/><path fill="#5d4c48" d="M700 200h100v100H700z"/><path fill="#8b8175" d="M0 300h100v100H0z"/><path fill="#bcc1c2" d="M100 300h100v100H100z"/><path fill="#e1e5e9" d="M200 300h100v100H200z"/><path fill="#e2e1dc" d="M300 300h100v100H300z"/><path fill="#d6dbb0" d="M400 300h100v100H400z"/><path fill="#a48679" d="M500 300h100v100H500z"/><path fill="#80584c" d="M600 300h100v100H600z"/><path fill="#bfa28d" d="M700 300h100v100H700z"/><path fill="#dbdedf" d="M0 400h100v100H0z"/><path fill="#cbcecd" d="M100 400h100v100H100z"/><path fill="#d2d4d4" d="M200 400h100v100H200z"/><path fill="#d9dcdd" d="M300 400h100v100H300z"/><path fill="#dfe3e6" d="M400 400h100v100H400z"/><path fill="#a9a7a0" d="M500 400h100v100H500z"/><path fill="#8e845e" d="M600 400h100v100H600z"/><path fill="#9a9b60" d="M700 400h100v100H700z"/><path fill="#dfe3e5" d="M0 500h100v100H0z"/><path fill="#c6cacb" d="M100 500h100v100H100z"/><path fill="#d1d4d6" d="M200 500h100v100H200z"/><path fill="#d5d9dc" d="M300 500h100v100H300z"/><path fill="#d8dadc" d="M400 500h100v100H400z"/><path fill="#9f9b8f" d="M500 500h100v100H500z"/><path fill="#aca75d" d="M600 500h100v100H600z"/><path fill="#9c9c6b" d="M700 500h100v100H700z"/><path fill="#d4dadf" d="M0 600h100v100H0z"/><path fill="#cdd2d6" d="M100 600h100v100H100z"/><path fill="#d9dde0" d="M200 600h100v100H200z"/><path fill="#e1e6ea" d="M300 600h100v100H300z"/><path fill="#d6d8da" d="M400 600h100v100H400z"/><path fill="#ada487" d="M500 600h100v100H500z"/><path fill="#dcda78" d="M600 600h100v100H600z"/><path fill="#bdc2a1" d="M700 600h100v100H700z"/><path fill="#cad3d9" d="M0 700h100v100H0z"/><path fill="#d1d8dd" d="M100 700h100v100H100z"/><path fill="#dfe3e7" d="M200 700h100v100H200z"/><path fill="#e9edef" d="M300 700h100v100H300z"/><path fill="#eceff4" d="M400 700h100v100H400z"/><path fill="#d9d6b9" d="M500 700h100v100H500z"/><path fill="#e2e18e" d="M600 700h100v100H600z"/><path fill="#d2d9cd" d="M700 700h100v100H700z"/></svg>