<svg xmlns="http://www.w3.org/2000/svg" viewBox="0 0 800 600"><defs/><path fill="#f8f9f9" d="M0 0h100v100H0z"/><path fill="#f4f3f6" d="M100 0h100v100H100z"/><path fill="#f5f4f7" d="M200 0h100v100H200z"/><path fill="#f9f8fa" d="M300 0h100v100H300z"/><path fill="#fdfdfd" d="M400 0h100v100H400z"/><path fill="#f5f5f7" d="M500 0h100v100H500z"/><path fill="#f8f7f7" d="M600 0h100v100H600z"/><path fill="#fbfbfb" d="M700 0h100v100H700z"/><path fill="#eeeef0" d="M0 100h100v100H0z"/><path fill="#cdcbd0" d="M100 100h100v100H100z"/><path fill="#f1f0f2" d="M200 100h100v100H200z"/><path fill="#f2f2f5" d="M300 100h100v100H300z"/><path fill="#b3b2b7" d="M400 100h100v100H400z"/><path fill="#d0ced5" d="M500 100h100v100H500z"/><path fill="#e5e4e7" d="M600 100h100v100H600z"/><path fill="#dededf" d="M700 100h100v100H700z"/><path fill="#e9e9ed" d="M0 200h100v100H0z"/><path fill="#d5d4d8" d="M100 200h100v100H100z"/><path fill="#f0eff2" d="M200 200h100v100H200z"/><path fill="#d0cfd4" d="M300 200h100v100H300z"/><path fill="#918f96" d="M400 200h100v100H400z"/><path fill="#cac8cf" d="M500 200h100v100H500z"/><path fill="#e2e0e4" d="M600 200h100v100H600z"/><path fill="#c7c6ca" d="M700 200h100v100H700z"/><path fill="#e6e5e9" d="M0 300h100v100H0z"/><path fill="#c6c4ca" d="M100 300h100v100H100z"/><path fill="#dcdae0" d="M200 300h100v100H200z"/><path fill="#c2bec3" d="M300 300h100v100H300z"/><path fill="#e3e2e8" d="M400 300h100v100H400z"/><path fill="#d3d1d8" d="M500 300h100v100H500z"/><path fill="#e3e2e7" d="M600 300h100v100H600z"/><path fill="#eae9ed" d="M700 300h100v100H700z"/><path fill="#dad8de" d="M0 400h100v100H0z"/><path fill="#cfcdd3" d="M100 400h100v100H100z"/><path fill="#dcdbe2" d="M200 400h100v100H200z"/><path fill="#b7b5bc" d="M300 400h100v100H300z"/><path fill="#e9e8ef" d="M400 400h100v100H400z"/><path fill="#f4f3f9" d="M500 400h100v100H500z"/><path fill="#dedde2" d="M600 400h100v100H600z"/><path fill="#cdcbcf" d="M700 400h100v100H700z"/><path fill="#f1f0f4" d="M0 500h100v100H0z"/><path fill="#f5f4fb" d="M100 500h100v100H100z"/><path fill="#e1e0e7" d="M200 500h100v100H200z"/><path fill="#c7c6cd" d="M300 500h100v100H300z"/><path fill="#f0eff4" d="M400 500h100v100H400z"/><path fill="#f5f4fa" d="M500 500h100v100H500z"/><path fill="#f4f4f7" d="M600 500h100v100H600z"/><path fill="#f7f6f8" d="M700 500h100v100H700z"/></svg>