<svg xmlns="http://www.w3.org/2000/svg" viewBox="0 0 800 600"><defs/><path fill="#c7c4ba" d="M0 0h100v100H0z"/><path fill="#c5beb2" d="M100 0h100v100H100z"/><path fill="#cfc8ba" d="M200 0h100v100H200z"/><path fill="#d0cab9" d="M300 0h100v100H300z"/><path fill="#ccc9ba" d="M400 0h100v100H400z"/><path fill="#d1cab9" d="M500 0h100v100H500z"/><path fill="#d2ccbb" d="M600 0h100v100H600z"/><path fill="#cdc8b6" d="M700 0h100v100H700z"/><path fill="#bab5ab" d="M0 100h100v100H0z"/><path fill="#a8988c" d="M100 100h100v100H100z"/><path fill="#c4b5a4" d="M200 100h100v100H200z"/><path fill="#8aaaa5" d="M300 100h100v100H300z"/><path fill="#59979a" d="M400 100h100v100H400z"/><path fill="#bdc1b4" d="M500 100h100v100H500z"/><path fill="#d8cebf" d="M600 100h100v100H600z"/><path fill="#cec8bd" d="M700 100h100v100H700z"/><path fill="#91a4a1" d="M0 200h100v100H0z"/><path fill="#a09480" d="M100 200h100v100H100z"/><path fill="#9e927f" d="M200 200h100v100H200z"/><path fill="#618e8e" d="M300 200h100v100H300z"/><path fill="#3a848c" d="M400 200h100v100H400z"/><path fill="#b0b1a2" d="M500 200h100v100H500z"/><path fill="#c0b6a4" d="M600 200h100v100H600z"/><path fill="#c6beae" d="M700 200h100v100H700z"/><path fill="#a19b96" d="M0 300h100v100H0z"/><path fill="#9e8a7c" d="M100 300h100v100H100z"/><path fill="#bfb6a8" d="M200 300h100v100H200z"/><path fill="#849391" d="M300 300h100v100H300z"/><path fill="#6c8687" d="M400 300h100v100H400z"/><path fill="#b0aca0" d="M500 300h100v100H500z"/><path fill="#a89b88" d="M600 300h100v100H600z"/><path fill="#a29a84" d="M700 300h100v100H700z"/><path fill="#aa9a98" d="M0 400h100v100H0z"/><path fill="#8c7a76" d="M100 400h100v100H100z"/><path fill="#b6b2a8" d="M200 400h100v100H200z"/><path fill="#c2b9ad" d="M300 400h100v100H300z"/><path fill="#cabfb4" d="M400 400h100v100H400z"/><path fill="#c5bfb8" d="M500 400h100v100H500z"/><path fill="#c9c2bb" d="M600 400h100v100H600z"/><path fill="#aeaa9f" d="M700 400h100v100H700z"/><path fill="#bdbcb8" d="M0 500h100v100H0z"/><path fill="#b6b5b0" d="M100 500h100v100H100z"/><path fill="#bcb8b4" d="M200 500h100v100H200z"/><path fill="#c2bcb8" d="M300 500h100v100H300z"/><path fill="#c9c6c2" d="M400 500h100v100H400z"/><path fill="#c6c4c1" d="M500 500h100v100H500z"/><path fill="#cecdcc" d="M600 500h100v100H600z"/><path fill="#d0cecd" d="M700 500h100v100H700z"/></svg>