<svg xmlns="http://www.w3.org/2000/svg" viewBox="0 0 800 500"><defs/><path fill="#fdfdfd" d="M0 0h100v100H0z"/><path fill="#f6f6f6" d="M100 0h100v100H100zm100 0h100v100H200z"/><path fill="#f8f8f8" d="M300 0h100v100H300z"/><path fill="#f6f6f6" d="M400 0h100v100H400z"/><path fill="#f7f7f7" d="M500 0h100v100H500z"/><path fill="#f6f6f6" d="M600 0h100v100H600z"/><path fill="#f3f3f3" d="M700 0h100v100H700z"/><path fill="#fdfdfd" d="M0 100h100v100H0z"/><path fill="#eaeaea" d="M100 100h100v100H100z"/><path fill="#e9e9e9" d="M200 100h100v100H200z"/><path fill="#e1e1e1" d="M300 100h100v100H300z"/><path fill="#e9e9e9" d="M400 100h100v100H400z"/><path fill="#e1e1e1" d="M500 100h100v100H500z"/><path fill="#ececec" d="M600 100h100v100H600z"/><path fill="#dcdcdc" d="M700 100h100v100H700z"/><path fill="#fbfbfb" d="M0 200h100v100H0z"/><path fill="#eaeaea" d="M100 200h100v100H100z"/><path fill="#e3e3e3" d="M200 200h100v100H200z"/><path fill="#eaeaea" d="M300 200h100v100H300z"/><path fill="#f3f3f3" d="M400 200h100v100H400z"/><path fill="#e4e4e4" d="M500 200h100v100H500z"/><path fill="#ececec" d="M600 200h100v100H600zm100 0h100v100H700z"/><path fill="#f6f6f6" d="M0 300h100v100H0z"/><path fill="#e1e1e1" d="M100 300h100v100H100z"/><path fill="#d6d6d6" d="M200 300h100v100H200z"/><path fill="#ebebeb" d="M300 300h100v100H300z"/><path fill="#e6e6e6" d="M400 300h100v100H400z"/><path fill="#e1e1e1" d="M500 300h100v100H500z"/><path fill="#e2e2e2" d="M600 300h100v100H600z"/><path fill="#eaeaea" d="M700 300h100v100H700z"/><path fill="#f9f9f9" d="M0 400h100v100H0z"/><path fill="#ededed" d="M100 400h100v100H100zm100 0h100v100H200z"/><path fill="#f6f6f6" d="M300 400h100v100H300zm100 0h100v100H400zm100 0h100v100H500zm100 0h100v100H600z"/><path fill="#f2f2f2" d="M700 400h100v100H700z"/></svg>