<svg xmlns="http://www.w3.org/2000/svg" viewBox="0 0 800 600"><defs/><path fill="#b9c6d4" d="M0 0h100v100H0z"/><path fill="#bac6cd" d="M100 0h100v100H100z"/><path fill="#b8c6d9" d="M200 0h100v100H200z"/><path fill="#c2cdd6" d="M300 0h100v100H300z"/><path fill="#c3cdda" d="M400 0h100v100H400z"/><path fill="#c3cfe1" d="M500 0h100v100H500z"/><path fill="#bfcad9" d="M600 0h100v100H600z"/><path fill="#bdc9d6" d="M700 0h100v100H700z"/><path fill="#849fb5" d="M0 100h100v100H0z"/><path fill="#91a19b" d="M100 100h100v100H100z"/><path fill="#98b0be" d="M200 100h100v100H200z"/><path fill="#a1b5b9" d="M300 100h100v100H300z"/><path fill="#9fa9b5" d="M400 100h100v100H400z"/><path fill="#9ba5b5" d="M500 100h100v100H500z"/><path fill="#9bacba" d="M600 100h100v100H600z"/><path fill="#b4c2cf" d="M700 100h100v100H700z"/><path fill="#9fadb8" d="M0 200h100v100H0z"/><path fill="#9ca5a1" d="M100 200h100v100H100z"/><path fill="#a6aeb7" d="M200 200h100v100H200z"/><path fill="#a9b3ba" d="M300 200h100v100H300z"/><path fill="#a8adb9" d="M400 200h100v100H400z"/><path fill="#a5abb8" d="M500 200h100v100H500z"/><path fill="#a7adba" d="M600 200h100v100H600z"/><path fill="#b7becb" d="M700 200h100v100H700z"/><path fill="#9eaaa7" d="M0 300h100v100H0z"/><path fill="#9ba7a5" d="M100 300h100v100H100z"/><path fill="#aab4bf" d="M200 300h100v100H200z"/><path fill="#adb8bb" d="M300 300h100v100H300z"/><path fill="#a7b1b7" d="M400 300h100v100H400z"/><path fill="#acb5be" d="M500 300h100v100H500z"/><path fill="#adb5bb" d="M600 300h100v100H600z"/><path fill="#b2bac5" d="M700 300h100v100H700z"/><path fill="#99a898" d="M0 400h100v100H0z"/><path fill="#a8b38b" d="M100 400h100v100H100z"/><path fill="#b6bd90" d="M200 400h100v100H200z"/><path fill="#929893" d="M300 400h100v100H300z"/><path fill="#acb9a6" d="M400 400h100v100H400z"/><path fill="#a8b4aa" d="M500 400h100v100H500z"/><path fill="#898d8c" d="M600 400h100v100H600z"/><path fill="#aab2ac" d="M700 400h100v100H700z"/><path fill="#b0bcb0" d="M0 500h100v100H0z"/><path fill="#b4bfad" d="M100 500h100v100H100z"/><path fill="#b5bcaa" d="M200 500h100v100H200z"/><path fill="#a2a8ac" d="M300 500h100v100H300z"/><path fill="#b4beba" d="M400 500h100v100H400z"/><path fill="#aeb5b3" d="M500 500h100v100H500z"/><path fill="#9ca1a9" d="M600 500h100v100H600z"/><path fill="#a9b2b0" d="M700 500h100v100H700z"/></svg>