<svg xmlns="http://www.w3.org/2000/svg" viewBox="0 0 800 600"><defs/><path fill="#f8fafd" d="M0 0h100v100H0z"/><path fill="#bcb9cd" d="M100 0h100v100H100z"/><path fill="#d7d5d9" d="M200 0h100v100H200z"/><path fill="#d5dae3" d="M300 0h100v100H300z"/><path fill="#cbcbc7" d="M400 0h100v100H400z"/><path fill="#cecad3" d="M500 0h100v100H500z"/><path fill="#c9c2c9" d="M600 0h100v100H600z"/><path fill="#d2c3be" d="M700 0h100v100H700z"/><path fill="#eae6e9" d="M0 100h100v100H0z"/><path fill="#9cb0c9" d="M100 100h100v100H100z"/><path fill="#b4bdd2" d="M200 100h100v100H200z"/><path fill="#a4b1ca" d="M300 100h100v100H300z"/><path fill="#7488a1" d="M400 100h100v100H400z"/><path fill="#8f9bad" d="M500 100h100v100H500z"/><path fill="#9394a7" d="M600 100h100v100H600z"/><path fill="#7e5951" d="M700 100h100v100H700z"/><path fill="#fafaf8" d="M0 200h100v100H0z"/><path fill="#e2dbdb" d="M100 200h100v100H100z"/><path fill="#e1e1e1" d="M200 200h100v100H200z"/><path fill="#dddfde" d="M300 200h100v100H300z"/><path fill="#959da1" d="M400 200h100v100H400z"/><path fill="#8d887e" d="M500 200h100v100H500z"/><path fill="#b8b0a7" d="M600 200h100v100H600z"/><path fill="#997b75" d="M700 200h100v100H700z"/><path fill="#f6f7f7" d="M0 300h100v100H0z"/><path fill="#e2dede" d="M100 300h100v100H100z"/><path fill="#dfdfdf" d="M200 300h100v100H200z"/><path fill="#dde0e1" d="M300 300h100v100H300z"/><path fill="#b9b695" d="M400 300h100v100H400z"/><path fill="#b09969" d="M500 300h100v100H500z"/><path fill="#d0c8b4" d="M600 300h100v100H600z"/><path fill="#b19689" d="M700 300h100v100H700z"/><path fill="#f5f4f5" d="M0 400h100v100H0z"/><path fill="#d2d5d1" d="M100 400h100v100H100z"/><path fill="#d0d5cb" d="M200 400h100v100H200z"/><path fill="#e0dedc" d="M300 400h100v100H300z"/><path fill="#bcb6a1" d="M400 400h100v100H400z"/><path fill="#c4b7a0" d="M500 400h100v100H500z"/><path fill="#d7cfc1" d="M600 400h100v100H600z"/><path fill="#c0b2a6" d="M700 400h100v100H700z"/><path fill="#fcfcfd" d="M0 500h100v100H0z"/><path fill="#f8f8f7" d="M100 500h100v100H100z"/><path fill="#f0f0ef" d="M200 500h100v100H200z"/><path fill="#ecebeb" d="M300 500h100v100H300z"/><path fill="#e7e6e6" d="M400 500h100v100H400z"/><path fill="#e5e5e7" d="M500 500h100v100H500z"/><path fill="#f1f0f0" d="M600 500h100v100H600z"/><path fill="#f3f2f0" d="M700 500h100v100H700z"/></svg>