<svg xmlns="http://www.w3.org/2000/svg" viewBox="0 0 800 500"><defs/><path fill="#cdab87" d="M0 0h100v100H0z"/><path fill="#a59a8f" d="M100 0h100v100H100z"/><path fill="#bebab7" d="M200 0h100v100H200z"/><path fill="#cbaba5" d="M300 0h100v100H300z"/><path fill="#c3b2ac" d="M400 0h100v100H400z"/><path fill="#bfb3a4" d="M500 0h100v100H500z"/><path fill="#d6ac88" d="M600 0h100v100H600z"/><path fill="#d6ad86" d="M700 0h100v100H700z"/><path fill="#c0976c" d="M0 100h100v100H0z"/><path fill="#807472" d="M100 100h100v100H100z"/><path fill="#8c6d6e" d="M200 100h100v100H200z"/><path fill="#9e5354" d="M300 100h100v100H300z"/><path fill="#82706a" d="M400 100h100v100H400z"/><path fill="#8f8980" d="M500 100h100v100H500z"/><path fill="#c09b7b" d="M600 100h100v100H600z"/><path fill="#aa9276" d="M700 100h100v100H700z"/><path fill="#ad9270" d="M0 200h100v100H0z"/><path fill="#7d7069" d="M100 200h100v100H100z"/><path fill="#785c4e" d="M200 200h100v100H200z"/><path fill="#7a6463" d="M300 200h100v100H300z"/><path fill="#776967" d="M400 200h100v100H400z"/><path fill="#989691" d="M500 200h100v100H500z"/><path fill="#c6b4a5" d="M600 200h100v100H600z"/><path fill="#bdad9a" d="M700 200h100v100H700z"/><path fill="#9a8c7d" d="M0 300h100v100H0z"/><path fill="#715f57" d="M100 300h100v100H100z"/><path fill="#5b5244" d="M200 300h100v100H200z"/><path fill="#7e5c64" d="M300 300h100v100H300z"/><path fill="#a4545e" d="M400 300h100v100H400z"/><path fill="#84797b" d="M500 300h100v100H500z"/><path fill="#85817c" d="M600 300h100v100H600z"/><path fill="#8a6f5f" d="M700 300h100v100H700z"/><path fill="#999594" d="M0 400h100v100H0z"/><path fill="#675c5a" d="M100 400h100v100H100z"/><path fill="#56473e" d="M200 400h100v100H200z"/><path fill="#584141" d="M300 400h100v100H300z"/><path fill="#715a5e" d="M400 400h100v100H400z"/><path fill="#6d6b68" d="M500 400h100v100H500z"/><path fill="#574c43" d="M600 400h100v100H600z"/><path fill="#423a36" d="M700 400h100v100H700z"/></svg>