<svg xmlns="http://www.w3.org/2000/svg" viewBox="0 0 800 600"><defs/><path fill="#f7f6f7" d="M0 0h100v100H0z"/><path fill="#f5f5f5" d="M100 0h100v100H100z"/><path fill="#f7f7f7" d="M200 0h100v100H200zm100 0h100v100H300z"/><path fill="#f9f9f9" d="M400 0h100v100H400z"/><path fill="#f8f8f8" d="M500 0h100v100H500z"/><path fill="#f5f5f5" d="M600 0h100v100H600z"/><path fill="#f9f9f9" d="M700 0h100v100H700z"/><path fill="#e7e7e7" d="M0 100h100v100H0z"/><path fill="#dcdcdb" d="M100 100h100v100H100z"/><path fill="#e5e5e4" d="M200 100h100v100H200z"/><path fill="#e3e3e3" d="M300 100h100v100H300z"/><path fill="#d5d4d5" d="M400 100h100v100H400z"/><path fill="#d2d1d2" d="M500 100h100v100H500z"/><path fill="#dadadb" d="M600 100h100v100H600z"/><path fill="#d6d6d7" d="M700 100h100v100H700z"/><path fill="#ebebeb" d="M0 200h100v100H0z"/><path fill="#e0e0e0" d="M100 200h100v100H100z"/><path fill="#b9b9ba" d="M200 200h100v100H200z"/><path fill="#c5c4c7" d="M300 200h100v100H300z"/><path fill="#d8d6d8" d="M400 200h100v100H400z"/><path fill="#c7c6c7" d="M500 200h100v100H500z"/><path fill="#c1bfc1" d="M600 200h100v100H600z"/><path fill="#cccbcd" d="M700 200h100v100H700z"/><path fill="#eaeaea" d="M0 300h100v100H0z"/><path fill="#e1e1e1" d="M100 300h100v100H100z"/><path fill="#d2d2d3" d="M200 300h100v100H200z"/><path fill="#d3d2d3" d="M300 300h100v100H300z"/><path fill="#e8e8e8" d="M400 300h100v100H400z"/><path fill="#e1e0e0" d="M500 300h100v100H500z"/><path fill="#d3d3d3" d="M600 300h100v100H600z"/><path fill="#d5d4d6" d="M700 300h100v100H700z"/><path fill="#eee" d="M0 400h100v100H0z"/><path fill="#e1e1e1" d="M100 400h100v100H100z"/><path fill="#eee" d="M200 400h100v100H200z"/><path fill="#ededed" d="M300 400h100v100H300z"/><path fill="#f5f5f5" d="M400 400h100v100H400z"/><path fill="#ebebeb" d="M500 400h100v100H500z"/><path fill="#ececec" d="M600 400h100v100H600z"/><path fill="#e9e9e9" d="M700 400h100v100H700z"/><path fill="#f9f9f9" d="M0 500h100v100H0zm100 0h100v100H100zm100 0h100v100H200z"/><path fill="#fafafa" d="M300 500h100v100H300z"/><path fill="#fdfdfd" d="M400 500h100v100H400z"/><path fill="#f7f7f7" d="M500 500h100v100H500z"/><path fill="#f6f6f6" d="M600 500h100v100H600z"/><path fill="#f8f8f8" d="M700 500h100v100H700z"/></svg>