<svg xmlns="http://www.w3.org/2000/svg" viewBox="0 0 800 500"><defs/><path fill="#415067" d="M0 0h100v100H0z"/><path fill="#42536e" d="M100 0h100v100H100z"/><path fill="#4c5764" d="M200 0h100v100H200z"/><path fill="#807b66" d="M300 0h100v100H300z"/><path fill="#716956" d="M400 0h100v100H400z"/><path fill="#50555a" d="M500 0h100v100H500z"/><path fill="#43556f" d="M600 0h100v100H600z"/><path fill="#404e64" d="M700 0h100v100H700z"/><path fill="#323c4d" d="M0 100h100v100H0z"/><path fill="#344157" d="M100 100h100v100H100z"/><path fill="#4f5457" d="M200 100h100v100H200z"/><path fill="#736f5c" d="M300 100h100v100H300z"/><path fill="#60594a" d="M400 100h100v100H400z"/><path fill="#595954" d="M500 100h100v100H500z"/><path fill="#2e3a4c" d="M600 100h100v100H600z"/><path fill="#2e3847" d="M700 100h100v100H700z"/><path fill="#1d2430" d="M0 200h100v100H0z"/><path fill="#2d323e" d="M100 200h100v100H100z"/><path fill="#646460" d="M200 200h100v100H200z"/><path fill="#6d6a61" d="M300 200h100v100H300z"/><path fill="#5d5750" d="M400 200h100v100H400z"/><path fill="#686760" d="M500 200h100v100H500z"/><path fill="#414852" d="M600 200h100v100H600z"/><path fill="#1e2531" d="M700 200h100v100H700z"/><path fill="#293343" d="M0 300h100v100H0z"/><path fill="#38424f" d="M100 300h100v100H100z"/><path fill="#666558" d="M200 300h100v100H200z"/><path fill="#646053" d="M300 300h100v100H300z"/><path fill="#4e5056" d="M400 300h100v100H400z"/><path fill="#686457" d="M500 300h100v100H500z"/><path fill="#454e58" d="M600 300h100v100H600z"/><path fill="#252f3d" d="M700 300h100v100H700z"/><path fill="#3c4d65" d="M0 400h100v100H0z"/><path fill="#515c68" d="M100 400h100v100H100z"/><path fill="#7d7961" d="M200 400h100v100H200z"/><path fill="#646153" d="M300 400h100v100H300z"/><path fill="#424e62" d="M400 400h100v100H400z"/><path fill="#6f6b59" d="M500 400h100v100H500z"/><path fill="#5f6669" d="M600 400h100v100H600z"/><path fill="#38475f" d="M700 400h100v100H700z"/></svg>