<svg xmlns="http://www.w3.org/2000/svg" viewBox="0 0 800 400"><defs/><path fill="#1e1514" d="M0 0h100v100H0z"/><path fill="#5a3c36" d="M100 0h100v100H100z"/><path fill="#82665c" d="M200 0h100v100H200z"/><path fill="#c1a091" d="M300 0h100v100H300z"/><path fill="#c7a090" d="M400 0h100v100H400z"/><path fill="#b3a38d" d="M500 0h100v100H500z"/><path fill="#bfa18b" d="M600 0h100v100H600z"/><path fill="#e4ddb9" d="M700 0h100v100H700z"/><path fill="#2f1e1d" d="M0 100h100v100H0z"/><path fill="#573b35" d="M100 100h100v100H100z"/><path fill="#836458" d="M200 100h100v100H200z"/><path fill="#9e8173" d="M300 100h100v100H300z"/><path fill="#b69282" d="M400 100h100v100H400z"/><path fill="#cebba5" d="M500 100h100v100H500z"/><path fill="#cab691" d="M600 100h100v100H600z"/><path fill="#d7d195" d="M700 100h100v100H700z"/><path fill="#291e1a" d="M0 200h100v100H0z"/><path fill="#4a312a" d="M100 200h100v100H100z"/><path fill="#775e57" d="M200 200h100v100H200z"/><path fill="#906b64" d="M300 200h100v100H300z"/><path fill="#865d54" d="M400 200h100v100H400z"/><path fill="#d7bfab" d="M500 200h100v100H500z"/><path fill="#a6967b" d="M600 200h100v100H600z"/><path fill="#9f8258" d="M700 200h100v100H700z"/><path fill="#14100f" d="M0 300h100v100H0z"/><path fill="#55413b" d="M100 300h100v100H100z"/><path fill="#907671" d="M200 300h100v100H200z"/><path fill="#945e54" d="M300 300h100v100H300z"/><path fill="#71473d" d="M400 300h100v100H400z"/><path fill="#b7a088" d="M500 300h100v100H500z"/><path fill="#d4bcad" d="M600 300h100v100H600z"/><path fill="#b39f89" d="M700 300h100v100H700z"/></svg>