<svg xmlns="http://www.w3.org/2000/svg" viewBox="0 0 800 500"><defs/><path fill="#3a3f37" d="M0 0h100v100H0z"/><path fill="#373c35" d="M100 0h100v100H100z"/><path fill="#3e463c" d="M200 0h100v100H200z"/><path fill="#434d41" d="M300 0h100v100H300z"/><path fill="#3f483c" d="M400 0h100v100H400z"/><path fill="#444e44" d="M500 0h100v100H500z"/><path fill="#424940" d="M600 0h100v100H600z"/><path fill="#424941" d="M700 0h100v100H700z"/><path fill="#425158" d="M0 100h100v100H0z"/><path fill="#7d8e90" d="M100 100h100v100H100z"/><path fill="#788a8d" d="M200 100h100v100H200z"/><path fill="#708287" d="M300 100h100v100H300z"/><path fill="#99acaa" d="M400 100h100v100H400z"/><path fill="#4f5f6a" d="M500 100h100v100H500z"/><path fill="#6a7c7e" d="M600 100h100v100H600z"/><path fill="#55666d" d="M700 100h100v100H700z"/><path fill="#3e4c57" d="M0 200h100v100H0z"/><path fill="#93a8ae" d="M100 200h100v100H100z"/><path fill="#8ea4ad" d="M200 200h100v100H200z"/><path fill="#8198a5" d="M300 200h100v100H300z"/><path fill="#afc5c4" d="M400 200h100v100H400z"/><path fill="#4d5f6c" d="M500 200h100v100H500z"/><path fill="#596565" d="M600 200h100v100H600z"/><path fill="#4f5a5e" d="M700 200h100v100H700z"/><path fill="#455158" d="M0 300h100v100H0z"/><path fill="#5d6c6c" d="M100 300h100v100H100z"/><path fill="#4c5b49" d="M200 300h100v100H200z"/><path fill="#6f746e" d="M300 300h100v100H300z"/><path fill="#8c8a7a" d="M400 300h100v100H400z"/><path fill="#454d50" d="M500 300h100v100H500z"/><path fill="#373f41" d="M600 300h100v100H600z"/><path fill="#414842" d="M700 300h100v100H700z"/><path fill="#3a4244" d="M0 400h100v100H0z"/><path fill="#454b4a" d="M100 400h100v100H100z"/><path fill="#474b46" d="M200 400h100v100H200z"/><path fill="#646a71" d="M300 400h100v100H300z"/><path fill="#747d83" d="M400 400h100v100H400z"/><path fill="#545f63" d="M500 400h100v100H500z"/><path fill="#394244" d="M600 400h100v100H600z"/><path fill="#3f4946" d="M700 400h100v100H700z"/></svg>