<svg xmlns="http://www.w3.org/2000/svg" viewBox="0 0 800 500"><defs/><path fill="#c9af88" d="M0 0h100v100H0z"/><path fill="#d2b6b7" d="M100 0h100v100H100z"/><path fill="#e4c39b" d="M200 0h100v100H200z"/><path fill="#eae2aa" d="M300 0h100v100H300z"/><path fill="#f4f9bb" d="M400 0h100v100H400z"/><path fill="#e3cea6" d="M500 0h100v100H500z"/><path fill="#9f8d78" d="M600 0h100v100H600z"/><path fill="#a78c61" d="M700 0h100v100H700z"/><path fill="#a87" d="M0 100h100v100H0z"/><path fill="#c4a7ac" d="M100 100h100v100H100z"/><path fill="#e1c39a" d="M200 100h100v100H200z"/><path fill="#98ada2" d="M300 100h100v100H300z"/><path fill="#86aeb1" d="M400 100h100v100H400z"/><path fill="#c7b1a9" d="M500 100h100v100H500z"/><path fill="#9e8a84" d="M600 100h100v100H600z"/><path fill="#83675d" d="M700 100h100v100H700z"/><path fill="#b0918b" d="M0 200h100v100H0z"/><path fill="#bd998c" d="M100 200h100v100H100z"/><path fill="#e2b98e" d="M200 200h100v100H200z"/><path fill="#cdccc9" d="M300 200h100v100H300z"/><path fill="#cfcbc7" d="M400 200h100v100H400z"/><path fill="#c1a488" d="M500 200h100v100H500z"/><path fill="#847771" d="M600 200h100v100H600z"/><path fill="#78625c" d="M700 200h100v100H700z"/><path fill="#8c8481" d="M0 300h100v100H0z"/><path fill="#a4947f" d="M100 300h100v100H100z"/><path fill="#d2ad87" d="M200 300h100v100H200z"/><path fill="#d0d0b3" d="M300 300h100v100H300z"/><path fill="#d0d5aa" d="M400 300h100v100H400z"/><path fill="#c7ba9f" d="M500 300h100v100H500z"/><path fill="#84856c" d="M600 300h100v100H600z"/><path fill="#7f645d" d="M700 300h100v100H700z"/><path fill="#7a766a" d="M0 400h100v100H0z"/><path fill="#8e9b6d" d="M100 400h100v100H100z"/><path fill="#9eb477" d="M200 400h100v100H200z"/><path fill="#a0b377" d="M300 400h100v100H300z"/><path fill="#acbc88" d="M400 400h100v100H400z"/><path fill="#bebea6" d="M500 400h100v100H500z"/><path fill="#aaa88c" d="M600 400h100v100H600z"/><path fill="#898363" d="M700 400h100v100H700z"/></svg>