<svg xmlns="http://www.w3.org/2000/svg" viewBox="0 0 800 400"><defs/><path fill="#d6cbbf" d="M0 0h100v100H0z"/><path fill="#d4c7bc" d="M100 0h100v100H100z"/><path fill="#e2cfba" d="M200 0h100v100H200z"/><path fill="#e4ceaa" d="M300 0h100v100H300z"/><path fill="#f1d297" d="M400 0h100v100H400z"/><path fill="#efdbbe" d="M500 0h100v100H500z"/><path fill="#ebe2dd" d="M600 0h100v100H600z"/><path fill="#e6dcd7" d="M700 0h100v100H700z"/><path fill="#d2c7bb" d="M0 100h100v100H0z"/><path fill="#d5d8d5" d="M100 100h100v100H100z"/><path fill="#fadeb2" d="M200 100h100v100H200z"/><path fill="#fecb77" d="M300 100h100v100H300z"/><path fill="#edd6b9" d="M400 100h100v100H400z"/><path fill="#ece3de" d="M500 100h100v100H500z"/><path fill="#eae1da" d="M600 100h100v100H600z"/><path fill="#eae0dc" d="M700 100h100v100H700z"/><path fill="#cac6ba" d="M0 200h100v100H0z"/><path fill="#ddadaa" d="M100 200h100v100H100z"/><path fill="#989273" d="M200 200h100v100H200z"/><path fill="#8aada3" d="M300 200h100v100H300z"/><path fill="#e8e5e4" d="M400 200h100v100H400z"/><path fill="#ebe5e2" d="M500 200h100v100H500z"/><path fill="#eae3df" d="M600 200h100v100H600z"/><path fill="#ebe4dd" d="M700 200h100v100H700z"/><path fill="#ad877b" d="M0 300h100v100H0z"/><path fill="#df4647" d="M100 300h100v100H100z"/><path fill="#173d35" d="M200 300h100v100H200z"/><path fill="#136459" d="M300 300h100v100H300z"/><path fill="#dfdad7" d="M400 300h100v100H400z"/><path fill="#e4dcd8" d="M500 300h100v100H500z"/><path fill="#dfd8d1" d="M600 300h100v100H600z"/><path fill="#d9d0c6" d="M700 300h100v100H700z"/></svg>