<svg xmlns="http://www.w3.org/2000/svg" viewBox="0 0 800 1300"><defs/><path d="M0 0h100v100H0zm100 0h100v100H100zm100 0h100v100H200zm100 0h100v100H300zm100 0h100v100H400zm100 0h100v100H500zm100 0h100v100H600zm100 0h100v100H700z"/><path fill="#010101" d="M0 100h100v100H0zm100 0h100v100H100zm100 0h100v100H200zm100 0h100v100H300zm100 0h100v100H400zm100 0h100v100H500zm100 0h100v100H600z"/><path d="M700 100h100v100H700z"/><path fill="#010101" d="M0 200h100v100H0z"/><path d="M100 200h100v100H100z"/><path fill="#000101" d="M200 200h100v100H200zm100 0h100v100H300z"/><path d="M400 200h100v100H400zm100 0h100v100H500z"/><path fill="#010101" d="M600 200h100v100H600z"/><path d="M700 200h100v100H700zM0 300h100v100H0z"/><path fill="#000101" d="M100 300h100v100H100z"/><path fill="#080101" d="M200 300h100v100H200z"/><path fill="#0a0000" d="M300 300h100v100H300z"/><path fill="#020202" d="M400 300h100v100H400zm100 0h100v100H500z"/><path d="M600 300h100v100H600zm100 0h100v100H700z"/><path fill="#bfc7c3" d="M0 400h100v100H0z"/><path fill="#a9aba7" d="M100 400h100v100H100z"/><path fill="#72a6a7" d="M200 400h100v100H200z"/><path fill="#66c0c4" d="M300 400h100v100H300z"/><path fill="#909898" d="M400 400h100v100H400z"/><path fill="#9b9b99" d="M500 400h100v100H500z"/><path fill="#505251" d="M600 400h100v100H600z"/><path d="M700 400h100v100H700z"/><path fill="#f6fffb" d="M0 500h100v100H0z"/><path fill="#cacacc" d="M100 500h100v100H100z"/><path fill="#9be3a9" d="M200 500h100v100H200z"/><path fill="#7bdeab" d="M300 500h100v100H300z"/><path fill="#a8abb4" d="M400 500h100v100H400z"/><path fill="#c1c1bf" d="M500 500h100v100H500z"/><path fill="#666767" d="M600 500h100v100H600z"/><path d="M700 500h100v100H700z"/><path fill="#f2fff9" d="M0 600h100v100H0z"/><path fill="#c7ccca" d="M100 600h100v100H100z"/><path fill="#ddd6d3" d="M200 600h100v100H200z"/><path fill="#cdc3be" d="M300 600h100v100H300z"/><path fill="#c5c5c5" d="M400 600h100v100H400z"/><path fill="#dbdddc" d="M500 600h100v100H500z"/><path fill="#5c5e5d" d="M600 600h100v100H600z"/><path d="M700 600h100v100H700z"/><path fill="#8c9490" d="M0 700h100v100H0z"/><path fill="#868887" d="M100 700h100v100H100z"/><path fill="#7b7c7d" d="M200 700h100v100H200z"/><path fill="#999b9c" d="M300 700h100v100H300z"/><path fill="#9b9c9c" d="M400 700h100v100H400z"/><path fill="#8d8f8e" d="M500 700h100v100H500z"/><path fill="#333534" d="M600 700h100v100H600z"/><path d="M700 700h100v100H700zM0 800h100v100H0zm100 0h100v100H100zm100 0h100v100H200zm100 0h100v100H300zm100 0h100v100H400zm100 0h100v100H500zm100 0h100v100H600zm100 0h100v100H700z"/><path fill="#030403" d="M0 900h100v100H0z"/><path fill="#030303" d="M100 900h100v100H100zm100 0h100v100H200z"/><path fill="#040404" d="M300 900h100v100H300zm100 0h100v100H400z"/><path fill="#030303" d="M500 900h100v100H500z"/><path fill="#010101" d="M600 900h100v100H600z"/><path d="M700 900h100v100H700zM0 1000h100v100H0zm100 0h100v100H100zm100 0h100v100H200zm100 0h100v100H300zm100 0h100v100H400zm100 0h100v100H500zm100 0h100v100H600zm100 0h100v100H700zM0 1100h100v100H0zm100 0h100v100H100zm100 0h100v100H200zm100 0h100v100H300zm100 0h100v100H400zm100 0h100v100H500zm100 0h100v100H600zm100 0h100v100H700zM0 1200h100v100H0zm100 0h100v100H100zm100 0h100v100H200zm100 0h100v100H300zm100 0h100v100H400zm100 0h100v100H500zm100 0h100v100H600zm100 0h100v100H700z"/></svg>