<svg xmlns="http://www.w3.org/2000/svg" viewBox="0 0 800 1000"><defs/><path fill="#a19e99" d="M0 0h100v100H0z"/><path fill="#bfbab8" d="M100 0h100v100H100z"/><path fill="#b3b0ae" d="M200 0h100v100H200z"/><path fill="#b2adac" d="M300 0h100v100H300z"/><path fill="#9e9b92" d="M400 0h100v100H400z"/><path fill="#848274" d="M500 0h100v100H500z"/><path fill="#7f7b6f" d="M600 0h100v100H600z"/><path fill="#817e79" d="M700 0h100v100H700z"/><path fill="#7a7770" d="M0 100h100v100H0z"/><path fill="#bebbb7" d="M100 100h100v100H100z"/><path fill="#ebe9ea" d="M200 100h100v100H200z"/><path fill="#c5c4bb" d="M300 100h100v100H300z"/><path fill="#9b9987" d="M400 100h100v100H400z"/><path fill="#9a9385" d="M500 100h100v100H500z"/><path fill="#9b9287" d="M600 100h100v100H600z"/><path fill="#c1bdbc" d="M700 100h100v100H700z"/><path fill="#75736c" d="M0 200h100v100H0z"/><path fill="#d4d1cf" d="M100 200h100v100H100z"/><path fill="#eae8e4" d="M200 200h100v100H200z"/><path fill="#928d80" d="M300 200h100v100H300z"/><path fill="#949088" d="M400 200h100v100H400z"/><path fill="#d0ccc7" d="M500 200h100v100H500z"/><path fill="#959088" d="M600 200h100v100H600z"/><path fill="#adaaa3" d="M700 200h100v100H700z"/><path fill="#8b877d" d="M0 300h100v100H0z"/><path fill="#b8b5aa" d="M100 300h100v100H100z"/><path fill="#c6c0b4" d="M200 300h100v100H200z"/><path fill="#787670" d="M300 300h100v100H300z"/><path fill="#6d6b66" d="M400 300h100v100H400z"/><path fill="#9d9995" d="M500 300h100v100H500z"/><path fill="#807b6f" d="M600 300h100v100H600z"/><path fill="#9c9688" d="M700 300h100v100H700z"/><path fill="#89877e" d="M0 400h100v100H0z"/><path fill="#999284" d="M100 400h100v100H100z"/><path fill="#8d8983" d="M200 400h100v100H200z"/><path fill="#77726c" d="M300 400h100v100H300z"/><path fill="#a29e9a" d="M400 400h100v100H400z"/><path fill="#656462" d="M500 400h100v100H500z"/><path fill="#787165" d="M600 400h100v100H600z"/><path fill="#6d634d" d="M700 400h100v100H700z"/><path fill="#83807d" d="M0 500h100v100H0z"/><path fill="#868079" d="M100 500h100v100H100z"/><path fill="#6e6661" d="M200 500h100v100H200z"/><path fill="#7b6f69" d="M300 500h100v100H300z"/><path fill="#736861" d="M400 500h100v100H400z"/><path fill="#504c4a" d="M500 500h100v100H500z"/><path fill="#333432" d="M600 500h100v100H600z"/><path fill="#36342a" d="M700 500h100v100H700z"/><path fill="#736e6d" d="M0 600h100v100H0z"/><path fill="#85817e" d="M100 600h100v100H100z"/><path fill="#92928c" d="M200 600h100v100H200z"/><path fill="#898b84" d="M300 600h100v100H300z"/><path fill="#767e7b" d="M400 600h100v100H400z"/><path fill="#3d3c3c" d="M500 600h100v100H500z"/><path fill="#40312c" d="M600 600h100v100H600z"/><path fill="#3a3631" d="M700 600h100v100H700z"/><path fill="#7d7167" d="M0 700h100v100H0z"/><path fill="#907d6e" d="M100 700h100v100H100z"/><path fill="#937c6c" d="M200 700h100v100H200z"/><path fill="#ae9281" d="M300 700h100v100H300z"/><path fill="#aa8272" d="M400 700h100v100H400z"/><path fill="#715b4f" d="M500 700h100v100H500z"/><path fill="#656054" d="M600 700h100v100H600z"/><path fill="#656f66" d="M700 700h100v100H700z"/><path fill="#bcb3a8" d="M0 800h100v100H0z"/><path fill="#e5dbcf" d="M100 800h100v100H100z"/><path fill="#e5dcd1" d="M200 800h100v100H200z"/><path fill="#e7dcd2" d="M300 800h100v100H300z"/><path fill="#e5d5cc" d="M400 800h100v100H400z"/><path fill="#dbd1ca" d="M500 800h100v100H500z"/><path fill="#cdcfca" d="M600 800h100v100H600z"/><path fill="#c6cac5" d="M700 800h100v100H700z"/><path fill="#aba49f" d="M0 900h100v100H0z"/><path fill="#d4cdcb" d="M100 900h100v100H100z"/><path fill="#d2d0ce" d="M200 900h100v100H200z"/><path fill="#d3d2cf" d="M300 900h100v100H300z"/><path fill="#d1d2d0" d="M400 900h100v100H400z"/><path fill="#d1d1d0" d="M500 900h100v100H500z"/><path fill="#d4d2d1" d="M600 900h100v100H600z"/><path fill="#ccc9c8" d="M700 900h100v100H700z"/></svg>