<svg xmlns="http://www.w3.org/2000/svg" viewBox="0 0 800 400"><defs/><path fill="#d4dafc" d="M0 0h100v100H0z"/><path fill="#b9c1ef" d="M100 0h100v100H100z"/><path fill="#dbe1fa" d="M200 0h100v100H200z"/><path fill="#e1e7fd" d="M300 0h100v100H300z"/><path fill="#e0e6fd" d="M400 0h100v100H400z"/><path fill="#dbe1fb" d="M500 0h100v100H500z"/><path fill="#d6dcfa" d="M600 0h100v100H600z"/><path fill="#e1e6fd" d="M700 0h100v100H700z"/><path fill="#e0e5f8" d="M0 100h100v100H0z"/><path fill="#d2d6ed" d="M100 100h100v100H100z"/><path fill="#eef0fa" d="M200 100h100v100H200z"/><path fill="#dce2fb" d="M300 100h100v100H300zm100 0h100v100H400z"/><path fill="#f1f2fa" d="M500 100h100v100H500z"/><path fill="#ecedf9" d="M600 100h100v100H600z"/><path fill="#fdfdfe" d="M700 100h100v100H700z"/><path fill="#cfd4f4" d="M0 200h100v100H0z"/><path fill="#d6d9f0" d="M100 200h100v100H100z"/><path fill="#eceefa" d="M200 200h100v100H200z"/><path fill="#f8f9fd" d="M300 200h100v100H300z"/><path fill="#f6f7fc" d="M400 200h100v100H400z"/><path fill="#eaecfa" d="M500 200h100v100H500z"/><path fill="#e3e6f9" d="M600 200h100v100H600z"/><path fill="#fafafd" d="M700 200h100v100H700z"/><path fill="#c5cbef" d="M0 300h100v100H0z"/><path fill="#f5f5f9" d="M100 300h100v100H100z"/><path fill="#f2f2fa" d="M200 300h100v100H200z"/><path fill="#f6f7fc" d="M300 300h100v100H300z"/><path fill="#f0f1f9" d="M400 300h100v100H400z"/><path fill="#f9f9fc" d="M500 300h100v100H500z"/><path fill="#fff" d="M600 300h100v100H600z"/><path fill="#f8f9fb" d="M700 300h100v100H700z"/></svg>