<svg xmlns="http://www.w3.org/2000/svg" viewBox="0 0 800 600"><defs/><path fill="#c9d1ce" d="M0 0h100v100H0z"/><path fill="#dae2e1" d="M100 0h100v100H100z"/><path fill="#dde2dc" d="M200 0h100v100H200z"/><path fill="#e1e6e3" d="M300 0h100v100H300z"/><path fill="#e4eae8" d="M400 0h100v100H400z"/><path fill="#e4e9e6" d="M500 0h100v100H500z"/><path fill="#e0e7e3" d="M600 0h100v100H600z"/><path fill="#dceae6" d="M700 0h100v100H700z"/><path fill="#a0aaa5" d="M0 100h100v100H0z"/><path fill="#a7a99e" d="M100 100h100v100H100z"/><path fill="#b59d78" d="M200 100h100v100H200z"/><path fill="#d9bcb2" d="M300 100h100v100H300z"/><path fill="#dac2af" d="M400 100h100v100H400z"/><path fill="#dfc6be" d="M500 100h100v100H500z"/><path fill="#c0bbba" d="M600 100h100v100H600z"/><path fill="#c9dada" d="M700 100h100v100H700z"/><path fill="#9eabab" d="M0 200h100v100H0z"/><path fill="#98ab99" d="M100 200h100v100H100z"/><path fill="#988947" d="M200 200h100v100H200z"/><path fill="#e5caa8" d="M300 200h100v100H300z"/><path fill="#e1c493" d="M400 200h100v100H400z"/><path fill="#e8d7bb" d="M500 200h100v100H500z"/><path fill="#c8cdd2" d="M600 200h100v100H600z"/><path fill="#b4c6c8" d="M700 200h100v100H700z"/><path fill="#93a5a7" d="M0 300h100v100H0z"/><path fill="#9c9c73" d="M100 300h100v100H100z"/><path fill="#89864c" d="M200 300h100v100H200z"/><path fill="#a39d83" d="M300 300h100v100H300z"/><path fill="#b5a170" d="M400 300h100v100H400z"/><path fill="#a59d69" d="M500 300h100v100H500z"/><path fill="#aa998a" d="M600 300h100v100H600z"/><path fill="#a1c2cc" d="M700 300h100v100H700z"/><path fill="#8f9f9d" d="M0 400h100v100H0z"/><path fill="#a58659" d="M100 400h100v100H100z"/><path fill="#ac885d" d="M200 400h100v100H200z"/><path fill="#93645c" d="M300 400h100v100H300z"/><path fill="#b15846" d="M400 400h100v100H400z"/><path fill="#ba5155" d="M500 400h100v100H500z"/><path fill="#ba5965" d="M600 400h100v100H600z"/><path fill="#abc5ab" d="M700 400h100v100H700z"/><path fill="#8a948a" d="M0 500h100v100H0z"/><path fill="#8c7e62" d="M100 500h100v100H100z"/><path fill="#aa8255" d="M200 500h100v100H200z"/><path fill="#a46a6a" d="M300 500h100v100H300z"/><path fill="#956a6e" d="M400 500h100v100H400z"/><path fill="#c46b7b" d="M500 500h100v100H500z"/><path fill="#a85f62" d="M600 500h100v100H600z"/><path fill="#9ea290" d="M700 500h100v100H700z"/></svg>