<svg xmlns="http://www.w3.org/2000/svg" viewBox="0 0 800 400"><defs/><path fill="#f4f4f4" d="M0 0h100v100H0z"/><path fill="#d6d6d6" d="M100 0h100v100H100z"/><path fill="#dadada" d="M200 0h100v100H200z"/><path fill="#e9e8e9" d="M300 0h100v100H300z"/><path fill="#fafdfd" d="M400 0h100v100H400z"/><path fill="#dbedf0" d="M500 0h100v100H500z"/><path fill="#eef5f6" d="M600 0h100v100H600z"/><path fill="#ebebeb" d="M700 0h100v100H700z"/><path fill="#ededed" d="M0 100h100v100H0z"/><path fill="#d1d1d1" d="M100 100h100v100H100z"/><path fill="#ebecec" d="M200 100h100v100H200z"/><path fill="#e2e0e0" d="M300 100h100v100H300z"/><path fill="#d6dddc" d="M400 100h100v100H400z"/><path fill="#77c7d5" d="M500 100h100v100H500z"/><path fill="#a5dce6" d="M600 100h100v100H600z"/><path fill="#e3e0e0" d="M700 100h100v100H700z"/><path fill="#e3e3e3" d="M0 200h100v100H0z"/><path fill="#dbdbdb" d="M100 200h100v100H100z"/><path fill="#d8d9d9" d="M200 200h100v100H200z"/><path fill="#dad9d9" d="M300 200h100v100H300z"/><path fill="#d2d3d3" d="M400 200h100v100H400z"/><path fill="#97cdd9" d="M500 200h100v100H500z"/><path fill="#b2d6de" d="M600 200h100v100H600z"/><path fill="#f0eceb" d="M700 200h100v100H700z"/><path fill="#e3e3e3" d="M0 300h100v100H0z"/><path fill="#e0e0e0" d="M100 300h100v100H100z"/><path fill="#cdcdcd" d="M200 300h100v100H200z"/><path fill="#dadada" d="M300 300h100v100H300z"/><path fill="#e6e6e6" d="M400 300h100v100H400z"/><path fill="#efe6e6" d="M500 300h100v100H500z"/><path fill="#e5e0e0" d="M600 300h100v100H600z"/><path fill="#e5e6e6" d="M700 300h100v100H700z"/></svg>