<svg xmlns="http://www.w3.org/2000/svg" viewBox="0 0 800 400"><defs/><path fill="#9b92a7" d="M0 0h100v100H0z"/><path fill="#9c7b9c" d="M100 0h100v100H100z"/><path fill="#7d9a77" d="M200 0h100v100H200z"/><path fill="#8daca1" d="M300 0h100v100H300z"/><path fill="#9b9a99" d="M400 0h100v100H400z"/><path fill="#958c86" d="M500 0h100v100H500z"/><path fill="#949893" d="M600 0h100v100H600z"/><path fill="#75b6b1" d="M700 0h100v100H700z"/><path fill="#8b697f" d="M0 100h100v100H0z"/><path fill="#8e6f97" d="M100 100h100v100H100z"/><path fill="#797375" d="M200 100h100v100H200z"/><path fill="#8d989d" d="M300 100h100v100H300z"/><path fill="#8a677d" d="M400 100h100v100H400z"/><path fill="#715466" d="M500 100h100v100H500z"/><path fill="#80716b" d="M600 100h100v100H600z"/><path fill="#6d915e" d="M700 100h100v100H700z"/><path fill="#899596" d="M0 200h100v100H0z"/><path fill="#96818f" d="M100 200h100v100H100z"/><path fill="#b6829d" d="M200 200h100v100H200z"/><path fill="#c897ae" d="M300 200h100v100H300z"/><path fill="#bb8ab1" d="M400 200h100v100H400z"/><path fill="#a387b2" d="M500 200h100v100H500z"/><path fill="#a28eae" d="M600 200h100v100H600z"/><path fill="#6d877d" d="M700 200h100v100H700z"/><path fill="#adb1c2" d="M0 300h100v100H0z"/><path fill="#afa6a3" d="M100 300h100v100H100z"/><path fill="#c2bcce" d="M200 300h100v100H200z"/><path fill="#bdadbc" d="M300 300h100v100H300z"/><path fill="#ac9e98" d="M400 300h100v100H400z"/><path fill="#b0a5ad" d="M500 300h100v100H500z"/><path fill="#9a8893" d="M600 300h100v100H600z"/><path fill="#aaa5a8" d="M700 300h100v100H700z"/></svg>