<svg xmlns="http://www.w3.org/2000/svg" viewBox="0 0 800 500"><defs/><path fill="#e9dbb1" d="M0 0h100v100H0z"/><path fill="#ceb18d" d="M100 0h100v100H100z"/><path fill="#e0ceb4" d="M200 0h100v100H200z"/><path fill="#f8fdf6" d="M300 0h100v100H300z"/><path fill="#f7faf1" d="M400 0h100v100H400z"/><path fill="#f1f3eb" d="M500 0h100v100H500z"/><path fill="#e9e5d8" d="M600 0h100v100H600z"/><path fill="#e1cfb0" d="M700 0h100v100H700z"/><path fill="#dcc898" d="M0 100h100v100H0z"/><path fill="#b48759" d="M100 100h100v100H100z"/><path fill="#b1a186" d="M200 100h100v100H200z"/><path fill="#c7b6b3" d="M300 100h100v100H300z"/><path fill="#bfaba8" d="M400 100h100v100H400z"/><path fill="#dbdcd1" d="M500 100h100v100H500z"/><path fill="#cfc9be" d="M600 100h100v100H600z"/><path fill="#d7c297" d="M700 100h100v100H700z"/><path fill="#e1be7b" d="M0 200h100v100H0z"/><path fill="#be8f6d" d="M100 200h100v100H100z"/><path fill="#bcb8ae" d="M200 200h100v100H200z"/><path fill="#9e7e7b" d="M300 200h100v100H300z"/><path fill="#85615c" d="M400 200h100v100H400z"/><path fill="#cccec5" d="M500 200h100v100H500z"/><path fill="#d4d0ca" d="M600 200h100v100H600z"/><path fill="#e3ce9f" d="M700 200h100v100H700z"/><path fill="#d8b583" d="M0 300h100v100H0z"/><path fill="#bb8a71" d="M100 300h100v100H100z"/><path fill="#c9a393" d="M200 300h100v100H200z"/><path fill="#b59286" d="M300 300h100v100H300z"/><path fill="#c98f83" d="M400 300h100v100H400z"/><path fill="#bf9892" d="M500 300h100v100H500z"/><path fill="#c19b95" d="M600 300h100v100H600z"/><path fill="#cebf9e" d="M700 300h100v100H700z"/><path fill="#e1d2be" d="M0 400h100v100H0z"/><path fill="#d7c1b6" d="M100 400h100v100H100z"/><path fill="#cdb1ae" d="M200 400h100v100H200z"/><path fill="#c7beba" d="M300 400h100v100H300z"/><path fill="#d9c4bc" d="M400 400h100v100H400z"/><path fill="#d5b4b4" d="M500 400h100v100H500z"/><path fill="#daafac" d="M600 400h100v100H600z"/><path fill="#e3d7c6" d="M700 400h100v100H700z"/></svg>