<svg xmlns="http://www.w3.org/2000/svg" viewBox="0 0 800 500"><defs/><path fill="#9d9395" d="M0 0h100v100H0z"/><path fill="#6b6062" d="M100 0h100v100H100z"/><path fill="#7b6e70" d="M200 0h100v100H200z"/><path fill="#a48c8e" d="M300 0h100v100H300z"/><path fill="#918183" d="M400 0h100v100H400z"/><path fill="#7c7578" d="M500 0h100v100H500z"/><path fill="#6e6768" d="M600 0h100v100H600z"/><path fill="#c0afaf" d="M700 0h100v100H700z"/><path fill="#796a6d" d="M0 100h100v100H0z"/><path fill="#352627" d="M100 100h100v100H100z"/><path fill="#514045" d="M200 100h100v100H200z"/><path fill="#9b8589" d="M300 100h100v100H300z"/><path fill="#9e898c" d="M400 100h100v100H400z"/><path fill="#3e3336" d="M500 100h100v100H500z"/><path fill="#4a3435" d="M600 100h100v100H600z"/><path fill="#b49697" d="M700 100h100v100H700z"/><path fill="#74696c" d="M0 200h100v100H0z"/><path fill="#39292b" d="M100 200h100v100H100z"/><path fill="#423437" d="M200 200h100v100H200z"/><path fill="#3f3539" d="M300 200h100v100H300z"/><path fill="#5a4d4e" d="M400 200h100v100H400z"/><path fill="#433737" d="M500 200h100v100H500z"/><path fill="#4f3738" d="M600 200h100v100H600z"/><path fill="#b29798" d="M700 200h100v100H700z"/><path fill="#695d5f" d="M0 300h100v100H0z"/><path fill="#533534" d="M100 300h100v100H100z"/><path fill="#5c4745" d="M200 300h100v100H200z"/><path fill="#413c3c" d="M300 300h100v100H300z"/><path fill="#352c2f" d="M400 300h100v100H400z"/><path fill="#5a3b3e" d="M500 300h100v100H500z"/><path fill="#663c3e" d="M600 300h100v100H600z"/><path fill="#a08385" d="M700 300h100v100H700z"/><path fill="#8a7d7e" d="M0 400h100v100H0z"/><path fill="#b1968e" d="M100 400h100v100H100z"/><path fill="#9f918b" d="M200 400h100v100H200z"/><path fill="#706b6e" d="M300 400h100v100H300z"/><path fill="#646062" d="M400 400h100v100H400z"/><path fill="#746768" d="M500 400h100v100H500z"/><path fill="#82696c" d="M600 400h100v100H600z"/><path fill="#948081" d="M700 400h100v100H700z"/></svg>