<svg xmlns="http://www.w3.org/2000/svg" viewBox="0 0 800 600"><defs/><path fill="#f3e3e5" d="M0 0h100v100H0z"/><path fill="#ddd4d2" d="M100 0h100v100H100z"/><path fill="#eedfe0" d="M200 0h100v100H200z"/><path fill="#f4e4e6" d="M300 0h100v100H300z"/><path fill="#f0e2e4" d="M400 0h100v100H400z"/><path fill="#f4e4e6" d="M500 0h100v100H500z"/><path fill="#f2e2e5" d="M600 0h100v100H600z"/><path fill="#f2e4e6" d="M700 0h100v100H700z"/><path fill="#c57d87" d="M0 100h100v100H0z"/><path fill="#5f342a" d="M100 100h100v100H100z"/><path fill="#b7626c" d="M200 100h100v100H200z"/><path fill="#c57580" d="M300 100h100v100H300z"/><path fill="#ae918c" d="M400 100h100v100H400z"/><path fill="#ca6c7a" d="M500 100h100v100H500z"/><path fill="#c67882" d="M600 100h100v100H600z"/><path fill="#c66f7b" d="M700 100h100v100H700z"/><path fill="#b5787c" d="M0 200h100v100H0z"/><path fill="#6e4437" d="M100 200h100v100H100z"/><path fill="#c46c7a" d="M200 200h100v100H200z"/><path fill="#c99e9a" d="M300 200h100v100H300z"/><path fill="#b8b9a6" d="M400 200h100v100H400z"/><path fill="#b97b7f" d="M500 200h100v100H500z"/><path fill="#c87481" d="M600 200h100v100H600z"/><path fill="#c66e7c" d="M700 200h100v100H700z"/><path fill="#9c6a68" d="M0 300h100v100H0z"/><path fill="#663823" d="M100 300h100v100H100z"/><path fill="#c38d87" d="M200 300h100v100H200z"/><path fill="#e2dfd0" d="M300 300h100v100H300z"/><path fill="#cbcbbd" d="M400 300h100v100H400z"/><path fill="#b39b90" d="M500 300h100v100H500z"/><path fill="#c78182" d="M600 300h100v100H600z"/><path fill="#c37a75" d="M700 300h100v100H700z"/><path fill="#6f4d46" d="M0 400h100v100H0z"/><path fill="#58321a" d="M100 400h100v100H100z"/><path fill="#bb9670" d="M200 400h100v100H200z"/><path fill="#c9a98c" d="M300 400h100v100H300z"/><path fill="#c5a68a" d="M400 400h100v100H400z"/><path fill="#c59e77" d="M500 400h100v100H500z"/><path fill="#c4a781" d="M600 400h100v100H600z"/><path fill="#ba8875" d="M700 400h100v100H700z"/><path fill="#d4cdc7" d="M0 500h100v100H0z"/><path fill="#d2c7bf" d="M100 500h100v100H100z"/><path fill="#e3d3c6" d="M200 500h100v100H200z"/><path fill="#e3d3c5" d="M300 500h100v100H300z"/><path fill="#e5d4c6" d="M400 500h100v100H400z"/><path fill="#e5d4c5" d="M500 500h100v100H500z"/><path fill="#e6d8cc" d="M600 500h100v100H600z"/><path fill="#e0d2cb" d="M700 500h100v100H700z"/></svg>