<svg xmlns="http://www.w3.org/2000/svg" viewBox="0 0 800 600"><defs/><path fill="#f7f7f7" d="M0 0h100v100H0z"/><path fill="#eee" d="M100 0h100v100H100z"/><path fill="#f9f8fb" d="M200 0h100v100H200z"/><path fill="#f4f7fa" d="M300 0h100v100H300z"/><path fill="#f5f6f7" d="M400 0h100v100H400z"/><path fill="#f7f8fa" d="M500 0h100v100H500z"/><path fill="#fafafa" d="M600 0h100v100H600z"/><path fill="#f7f6f6" d="M700 0h100v100H700z"/><path fill="#eceded" d="M0 100h100v100H0z"/><path fill="#bdbcbe" d="M100 100h100v100H100z"/><path fill="#b6c6ae" d="M200 100h100v100H200z"/><path fill="#b2dcca" d="M300 100h100v100H300z"/><path fill="#c1eef8" d="M400 100h100v100H400z"/><path fill="#b3cfc6" d="M500 100h100v100H500z"/><path fill="#cecec9" d="M600 100h100v100H600z"/><path fill="#e3e3e4" d="M700 100h100v100H700z"/><path fill="#e4e3e4" d="M0 200h100v100H0z"/><path fill="silver" d="M100 200h100v100H100z"/><path fill="#959e8b" d="M200 200h100v100H200z"/><path fill="#98a392" d="M300 200h100v100H300z"/><path fill="#98afad" d="M400 200h100v100H400z"/><path fill="#92988e" d="M500 200h100v100H500z"/><path fill="#c2c3be" d="M600 200h100v100H600z"/><path fill="#ebeced" d="M700 200h100v100H700z"/><path fill="#d4d4d4" d="M0 300h100v100H0z"/><path fill="#c2c2c2" d="M100 300h100v100H100z"/><path fill="#cccacd" d="M200 300h100v100H200z"/><path fill="#c7c6c8" d="M300 300h100v100H300z"/><path fill="#ced2d1" d="M400 300h100v100H400z"/><path fill="#cecccd" d="M500 300h100v100H500z"/><path fill="#afa7a5" d="M600 300h100v100H600z"/><path fill="#d4d0cf" d="M700 300h100v100H700z"/><path fill="#cacacb" d="M0 400h100v100H0z"/><path fill="#d6d6d6" d="M100 400h100v100H100z"/><path fill="#f3f4f3" d="M200 400h100v100H200z"/><path fill="#d1d0cf" d="M300 400h100v100H300z"/><path fill="#fefdfe" d="M400 400h100v100H400z"/><path fill="#f4f2f2" d="M500 400h100v100H500z"/><path fill="#a19291" d="M600 400h100v100H600z"/><path fill="#a99d9c" d="M700 400h100v100H700z"/><path fill="#eff0f0" d="M0 500h100v100H0z"/><path fill="#f7f7f7" d="M100 500h100v100H100z"/><path fill="#f4f4f4" d="M200 500h100v100H200z"/><path fill="#d9d7d7" d="M300 500h100v100H300z"/><path fill="#f5f5f5" d="M400 500h100v100H400zm100 0h100v100H500z"/><path fill="#f3f3f3" d="M600 500h100v100H600z"/><path fill="#ededed" d="M700 500h100v100H700z"/></svg>