<svg xmlns="http://www.w3.org/2000/svg" viewBox="0 0 800 600"><defs/><path fill="#82837e" d="M0 0h100v100H0z"/><path fill="#767978" d="M100 0h100v100H100z"/><path fill="#8a8b8b" d="M200 0h100v100H200z"/><path fill="#959798" d="M300 0h100v100H300z"/><path fill="#908e8b" d="M400 0h100v100H400z"/><path fill="#959490" d="M500 0h100v100H500z"/><path fill="#969692" d="M600 0h100v100H600z"/><path fill="#91918f" d="M700 0h100v100H700z"/><path fill="#655448" d="M0 100h100v100H0z"/><path fill="#493728" d="M100 100h100v100H100z"/><path fill="#88827d" d="M200 100h100v100H200z"/><path fill="#bebebc" d="M300 100h100v100H300z"/><path fill="#543a2a" d="M400 100h100v100H400z"/><path fill="#301a08" d="M500 100h100v100H500z"/><path fill="#6c5d4f" d="M600 100h100v100H600z"/><path fill="#887f80" d="M700 100h100v100H700z"/><path fill="#757998" d="M0 200h100v100H0z"/><path fill="#5c5b68" d="M100 200h100v100H100z"/><path fill="#8a6a52" d="M200 200h100v100H200z"/><path fill="#b69c89" d="M300 200h100v100H300z"/><path fill="#9a9282" d="M400 200h100v100H400z"/><path fill="#8c6d53" d="M500 200h100v100H500z"/><path fill="#7c5f40" d="M600 200h100v100H600z"/><path fill="#7d916e" d="M700 200h100v100H700z"/><path fill="#9d8d7c" d="M0 300h100v100H0z"/><path fill="#6f6860" d="M100 300h100v100H100z"/><path fill="#4d3d2d" d="M200 300h100v100H200z"/><path fill="#785d49" d="M300 300h100v100H300z"/><path fill="#a3744d" d="M400 300h100v100H400z"/><path fill="#a0673f" d="M500 300h100v100H500z"/><path fill="#626e5d" d="M600 300h100v100H600z"/><path fill="#255850" d="M700 300h100v100H700z"/><path fill="#ad9072" d="M0 400h100v100H0z"/><path fill="#a8866b" d="M100 400h100v100H100z"/><path fill="#8e6c56" d="M200 400h100v100H200z"/><path fill="#785c4a" d="M300 400h100v100H300z"/><path fill="#694d3f" d="M400 400h100v100H400z"/><path fill="#755545" d="M500 400h100v100H500z"/><path fill="#9e816e" d="M600 400h100v100H600z"/><path fill="#907567" d="M700 400h100v100H700z"/><path fill="#efeae8" d="M0 500h100v100H0z"/><path fill="#e8e3e1" d="M100 500h100v100H100z"/><path fill="#e3dfdc" d="M200 500h100v100H200z"/><path fill="#dbdada" d="M300 500h100v100H300z"/><path fill="#dbdbdb" d="M400 500h100v100H400z"/><path fill="#dddbdc" d="M500 500h100v100H500z"/><path fill="#dfdbda" d="M600 500h100v100H600z"/><path fill="#faf0e9" d="M700 500h100v100H700z"/></svg>