<svg xmlns="http://www.w3.org/2000/svg" viewBox="0 0 800 500"><defs/><path fill="#aeaa9f" d="M0 0h100v100H0z"/><path fill="#a39a8c" d="M100 0h100v100H100z"/><path fill="#9a8e83" d="M200 0h100v100H200z"/><path fill="#9a8f85" d="M300 0h100v100H300z"/><path fill="#a5a49d" d="M400 0h100v100H400z"/><path fill="#b9b4b3" d="M500 0h100v100H500z"/><path fill="#c0c4cb" d="M600 0h100v100H600z"/><path fill="#ccc8c1" d="M700 0h100v100H700z"/><path fill="#b4b2a9" d="M0 100h100v100H0z"/><path fill="#988e80" d="M100 100h100v100H100z"/><path fill="#968076" d="M200 100h100v100H200z"/><path fill="#9a857b" d="M300 100h100v100H300z"/><path fill="#a3968d" d="M400 100h100v100H400z"/><path fill="#8d948e" d="M500 100h100v100H500z"/><path fill="#a2abaa" d="M600 100h100v100H600z"/><path fill="#cbcccf" d="M700 100h100v100H700z"/><path fill="#b7b4af" d="M0 200h100v100H0z"/><path fill="#8a887c" d="M100 200h100v100H100z"/><path fill="#a59d93" d="M200 200h100v100H200z"/><path fill="#b9a19a" d="M300 200h100v100H300z"/><path fill="#c1b9bc" d="M400 200h100v100H400z"/><path fill="#7a9a87" d="M500 200h100v100H500z"/><path fill="#839890" d="M600 200h100v100H600z"/><path fill="#c3c7cf" d="M700 200h100v100H700z"/><path fill="#afa8a2" d="M0 300h100v100H0z"/><path fill="#96908b" d="M100 300h100v100H100z"/><path fill="#817c7d" d="M200 300h100v100H200z"/><path fill="#877267" d="M300 300h100v100H300z"/><path fill="#936c5a" d="M400 300h100v100H400z"/><path fill="#909896" d="M500 300h100v100H500z"/><path fill="#a9aba7" d="M600 300h100v100H600z"/><path fill="#b6bbbf" d="M700 300h100v100H700z"/><path fill="#b6b6b2" d="M0 400h100v100H0z"/><path fill="#a19e9d" d="M100 400h100v100H100z"/><path fill="#786c73" d="M200 400h100v100H200z"/><path fill="#888881" d="M300 400h100v100H300z"/><path fill="#817567" d="M400 400h100v100H400z"/><path fill="#9a999a" d="M500 400h100v100H500z"/><path fill="#a0968f" d="M600 400h100v100H600z"/><path fill="#ababaa" d="M700 400h100v100H700z"/></svg>