<svg xmlns="http://www.w3.org/2000/svg" viewBox="0 0 800 600"><defs/><path fill="#c9d1cd" d="M0 0h100v100H0z"/><path fill="#dbe2e1" d="M100 0h100v100H100z"/><path fill="#dee2dd" d="M200 0h100v100H200z"/><path fill="#e2e6e4" d="M300 0h100v100H300z"/><path fill="#e4eae7" d="M400 0h100v100H400z"/><path fill="#e4eae5" d="M500 0h100v100H500z"/><path fill="#e0e8e2" d="M600 0h100v100H600z"/><path fill="#dce9e6" d="M700 0h100v100H700z"/><path fill="#a1aba5" d="M0 100h100v100H0z"/><path fill="#a7aa9f" d="M100 100h100v100H100z"/><path fill="#b59e79" d="M200 100h100v100H200z"/><path fill="#d7bbb2" d="M300 100h100v100H300z"/><path fill="#dac2af" d="M400 100h100v100H400z"/><path fill="#dfc7be" d="M500 100h100v100H500z"/><path fill="#c0bbbb" d="M600 100h100v100H600z"/><path fill="#c9dada" d="M700 100h100v100H700z"/><path fill="#9eabaa" d="M0 200h100v100H0z"/><path fill="#98ab9a" d="M100 200h100v100H100z"/><path fill="#998947" d="M200 200h100v100H200z"/><path fill="#e5c9a7" d="M300 200h100v100H300z"/><path fill="#e2c492" d="M400 200h100v100H400z"/><path fill="#e9d7ba" d="M500 200h100v100H500z"/><path fill="#cacdd3" d="M600 200h100v100H600z"/><path fill="#b3c6c9" d="M700 200h100v100H700z"/><path fill="#94a5a7" d="M0 300h100v100H0z"/><path fill="#9c9c74" d="M100 300h100v100H100z"/><path fill="#8a864c" d="M200 300h100v100H200z"/><path fill="#a39d83" d="M300 300h100v100H300z"/><path fill="#b6a170" d="M400 300h100v100H400z"/><path fill="#a59e68" d="M500 300h100v100H500z"/><path fill="#ab998b" d="M600 300h100v100H600z"/><path fill="#9fc1cb" d="M700 300h100v100H700z"/><path fill="#8f9e9d" d="M0 400h100v100H0z"/><path fill="#a68759" d="M100 400h100v100H100z"/><path fill="#ac885d" d="M200 400h100v100H200z"/><path fill="#93655c" d="M300 400h100v100H300z"/><path fill="#b05846" d="M400 400h100v100H400z"/><path fill="#ba5254" d="M500 400h100v100H500z"/><path fill="#b95864" d="M600 400h100v100H600z"/><path fill="#aac4ab" d="M700 400h100v100H700z"/><path fill="#8a958b" d="M0 500h100v100H0z"/><path fill="#8c7f61" d="M100 500h100v100H100z"/><path fill="#aa8255" d="M200 500h100v100H200z"/><path fill="#a5696b" d="M300 500h100v100H300z"/><path fill="#96696f" d="M400 500h100v100H400z"/><path fill="#c46b7b" d="M500 500h100v100H500z"/><path fill="#a95f62" d="M600 500h100v100H600z"/><path fill="#9ea08f" d="M700 500h100v100H700z"/></svg>