<svg xmlns="http://www.w3.org/2000/svg" viewBox="0 0 800 800"><defs/><path fill="#8e7256" d="M0 0h100v100H0z"/><path fill="#93775b" d="M100 0h100v100H100z"/><path fill="#a18366" d="M200 0h100v100H200z"/><path fill="#ab8e70" d="M300 0h100v100H300z"/><path fill="#bba181" d="M400 0h100v100H400z"/><path fill="#b79974" d="M500 0h100v100H500z"/><path fill="#ad8e67" d="M600 0h100v100H600z"/><path fill="#bea17c" d="M700 0h100v100H700z"/><path fill="#8d7e6d" d="M0 100h100v100H0z"/><path fill="#7a6f61" d="M100 100h100v100H100z"/><path fill="#716150" d="M200 100h100v100H200z"/><path fill="#6f604d" d="M300 100h100v100H300z"/><path fill="#7c7161" d="M400 100h100v100H400z"/><path fill="#908373" d="M500 100h100v100H500z"/><path fill="#8b8174" d="M600 100h100v100H600z"/><path fill="#93846f" d="M700 100h100v100H700z"/><path fill="#8e897f" d="M0 200h100v100H0z"/><path fill="#767168" d="M100 200h100v100H100z"/><path fill="#847b72" d="M200 200h100v100H200z"/><path fill="#a49e99" d="M300 200h100v100H300z"/><path fill="#c2c2c0" d="M400 200h100v100H400z"/><path fill="#c7cac8" d="M500 200h100v100H500z"/><path fill="#bfc4c4" d="M600 200h100v100H600z"/><path fill="#aca8a0" d="M700 200h100v100H700z"/><path fill="#8e877f" d="M0 300h100v100H0z"/><path fill="#a6a5a4" d="M100 300h100v100H100z"/><path fill="#b2b2af" d="M200 300h100v100H200z"/><path fill="#adaeac" d="M300 300h100v100H300z"/><path fill="#b6b5b3" d="M400 300h100v100H400z"/><path fill="#b3b2af" d="M500 300h100v100H500z"/><path fill="#b5b7b6" d="M600 300h100v100H600z"/><path fill="#a39c94" d="M700 300h100v100H700z"/><path fill="#9e978f" d="M0 400h100v100H0z"/><path fill="#afb1b1" d="M100 400h100v100H100z"/><path fill="#a1a09e" d="M200 400h100v100H200z"/><path fill="#abaaa8" d="M300 400h100v100H300z"/><path fill="#a5a3a2" d="M400 400h100v100H400z"/><path fill="#a1a09d" d="M500 400h100v100H500z"/><path fill="#b0b2b1" d="M600 400h100v100H600z"/><path fill="#958f88" d="M700 400h100v100H700z"/><path fill="#918881" d="M0 500h100v100H0z"/><path fill="#b6b9b9" d="M100 500h100v100H100z"/><path fill="#a9a9a7" d="M200 500h100v100H200z"/><path fill="#a1a19f" d="M300 500h100v100H300z"/><path fill="#afb0ae" d="M400 500h100v100H400z"/><path fill="#a9aaa8" d="M500 500h100v100H500z"/><path fill="#a7aaab" d="M600 500h100v100H600z"/><path fill="#8a8680" d="M700 500h100v100H700z"/><path fill="#998f85" d="M0 600h100v100H0z"/><path fill="#b7b7b6" d="M100 600h100v100H100z"/><path fill="#a3a09e" d="M200 600h100v100H200z"/><path fill="#979694" d="M300 600h100v100H300z"/><path fill="#9d9c99" d="M400 600h100v100H400z"/><path fill="#9f9d9b" d="M500 600h100v100H500z"/><path fill="#989797" d="M600 600h100v100H600z"/><path fill="#857c76" d="M700 600h100v100H700z"/><path fill="#684a35" d="M0 700h100v100H0z"/><path fill="#684c39" d="M100 700h100v100H100z"/><path fill="#5e422f" d="M200 700h100v100H200z"/><path fill="#5b3e2a" d="M300 700h100v100H300z"/><path fill="#523624" d="M400 700h100v100H400z"/><path fill="#563723" d="M500 700h100v100H500z"/><path fill="#593924" d="M600 700h100v100H600z"/><path fill="#5e3d26" d="M700 700h100v100H700z"/></svg>