<svg xmlns="http://www.w3.org/2000/svg" viewBox="0 0 800 600"><defs/><path fill="#e8dae0" d="M0 0h100v100H0z"/><path fill="#dad8db" d="M100 0h100v100H100z"/><path fill="#efe9f0" d="M200 0h100v100H200z"/><path fill="#f6edf6" d="M300 0h100v100H300z"/><path fill="#eeeaef" d="M400 0h100v100H400z"/><path fill="#edecec" d="M500 0h100v100H500z"/><path fill="#ebe7e9" d="M600 0h100v100H600z"/><path fill="#e7e5e8" d="M700 0h100v100H700z"/><path fill="#c39797" d="M0 100h100v100H0z"/><path fill="#b0a1a9" d="M100 100h100v100H100z"/><path fill="#b89ca2" d="M200 100h100v100H200z"/><path fill="#bd9aa6" d="M300 100h100v100H300z"/><path fill="#ccbdc1" d="M400 100h100v100H400z"/><path fill="#9f9eaf" d="M500 100h100v100H500z"/><path fill="#82799d" d="M600 100h100v100H600z"/><path fill="#a695a0" d="M700 100h100v100H700z"/><path fill="#cfa6af" d="M0 200h100v100H0z"/><path fill="#c5acb5" d="M100 200h100v100H100z"/><path fill="#ca8b95" d="M200 200h100v100H200z"/><path fill="#89676b" d="M300 200h100v100H300z"/><path fill="#997478" d="M400 200h100v100H400z"/><path fill="#a191b4" d="M500 200h100v100H500z"/><path fill="#615d81" d="M600 200h100v100H600z"/><path fill="#a28f93" d="M700 200h100v100H700z"/><path fill="#ddb7cf" d="M0 300h100v100H0z"/><path fill="#b4a0a5" d="M100 300h100v100H100z"/><path fill="#b66f89" d="M200 300h100v100H200z"/><path fill="#9451a8" d="M300 300h100v100H300z"/><path fill="#905794" d="M400 300h100v100H400z"/><path fill="#aa8c96" d="M500 300h100v100H500z"/><path fill="#7e6656" d="M600 300h100v100H600z"/><path fill="#896f4b" d="M700 300h100v100H700z"/><path fill="#cbb3c1" d="M0 400h100v100H0z"/><path fill="#b29d8b" d="M100 400h100v100H100z"/><path fill="#c09181" d="M200 400h100v100H200z"/><path fill="#c4a4b3" d="M300 400h100v100H300z"/><path fill="#d0aeb4" d="M400 400h100v100H400z"/><path fill="#968576" d="M500 400h100v100H500z"/><path fill="#7d684c" d="M600 400h100v100H600z"/><path fill="#866b4e" d="M700 400h100v100H700z"/><path fill="#dcd8d7" d="M0 500h100v100H0z"/><path fill="#dbd6ce" d="M100 500h100v100H100z"/><path fill="#dcd8ce" d="M200 500h100v100H200z"/><path fill="#e0d9d0" d="M300 500h100v100H300z"/><path fill="#ded6cc" d="M400 500h100v100H400z"/><path fill="#d2cdcb" d="M500 500h100v100H500z"/><path fill="#c6c2bf" d="M600 500h100v100H600z"/><path fill="#bdb8b6" d="M700 500h100v100H700z"/></svg>