<svg xmlns="http://www.w3.org/2000/svg" viewBox="0 0 800 500"><defs/><path fill="#e5d9de" d="M0 0h100v100H0z"/><path fill="#d9d6da" d="M100 0h100v100H100z"/><path fill="#e7e4ea" d="M200 0h100v100H200z"/><path fill="#f4eaf5" d="M300 0h100v100H300z"/><path fill="#eeeaf1" d="M400 0h100v100H400z"/><path fill="#e9e9e9" d="M500 0h100v100H500z"/><path fill="#e8e4e8" d="M600 0h100v100H600z"/><path fill="#e1dee1" d="M700 0h100v100H700z"/><path fill="#c19896" d="M0 100h100v100H0z"/><path fill="#b5a2ad" d="M100 100h100v100H100z"/><path fill="#bb9a9f" d="M200 100h100v100H200z"/><path fill="#b09193" d="M300 100h100v100H300z"/><path fill="#c3b1af" d="M400 100h100v100H400z"/><path fill="#a4a1b3" d="M500 100h100v100H500z"/><path fill="#6e6b93" d="M600 100h100v100H600z"/><path fill="#a692a3" d="M700 100h100v100H700z"/><path fill="#d8acbd" d="M0 200h100v100H0z"/><path fill="#c4b0ba" d="M100 200h100v100H100z"/><path fill="#c38193" d="M200 200h100v100H200z"/><path fill="#86567a" d="M300 200h100v100H300z"/><path fill="#845370" d="M400 200h100v100H400z"/><path fill="#b095b0" d="M500 200h100v100H500z"/><path fill="#70677e" d="M600 200h100v100H600z"/><path fill="#8d756b" d="M700 200h100v100H700z"/><path fill="#d9b6ce" d="M0 300h100v100H0z"/><path fill="#ad9b96" d="M100 300h100v100H100z"/><path fill="#b6797b" d="M200 300h100v100H200z"/><path fill="#ac78b4" d="M300 300h100v100H300z"/><path fill="#b583b5" d="M400 300h100v100H400z"/><path fill="#9a7e77" d="M500 300h100v100H500z"/><path fill="#836c58" d="M600 300h100v100H600z"/><path fill="#72532a" d="M700 300h100v100H700z"/><path fill="#d2c8cb" d="M0 400h100v100H0z"/><path fill="#cdc2b5" d="M100 400h100v100H100z"/><path fill="#d2c2ae" d="M200 400h100v100H200z"/><path fill="#d9cdbe" d="M300 400h100v100H300z"/><path fill="#dfcfc0" d="M400 400h100v100H400z"/><path fill="#bdb4ab" d="M500 400h100v100H500z"/><path fill="#b0a79e" d="M600 400h100v100H600z"/><path fill="#9d8f84" d="M700 400h100v100H700z"/></svg>