<svg xmlns="http://www.w3.org/2000/svg" viewBox="0 0 800 600"><defs/><path fill="#f2e5f7" d="M0 0h100v100H0z"/><path fill="#dbcee8" d="M100 0h100v100H100z"/><path fill="#ecdaf4" d="M200 0h100v100H200z"/><path fill="#eeddf4" d="M300 0h100v100H300z"/><path fill="#eedcf3" d="M400 0h100v100H400z"/><path fill="#f6dff6" d="M500 0h100v100H500z"/><path fill="#f0ddf5" d="M600 0h100v100H600z"/><path fill="#edddf4" d="M700 0h100v100H700z"/><path fill="#ba7ed5" d="M0 100h100v100H0z"/><path fill="#411587" d="M100 100h100v100H100z"/><path fill="#9a54c5" d="M200 100h100v100H200z"/><path fill="#965ab3" d="M300 100h100v100H300z"/><path fill="#b278ce" d="M400 100h100v100H400z"/><path fill="#9bb4cf" d="M500 100h100v100H500z"/><path fill="#aa87c9" d="M600 100h100v100H600z"/><path fill="#b861d4" d="M700 100h100v100H700z"/><path fill="#a673c9" d="M0 200h100v100H0z"/><path fill="#4a1c88" d="M100 200h100v100H100z"/><path fill="#9e678d" d="M200 200h100v100H200z"/><path fill="#9e6e68" d="M300 200h100v100H300z"/><path fill="#ae7971" d="M400 200h100v100H400z"/><path fill="#968b4e" d="M500 200h100v100H500z"/><path fill="#aa8682" d="M600 200h100v100H600z"/><path fill="#ce82de" d="M700 200h100v100H700z"/><path fill="#8458b6" d="M0 300h100v100H0z"/><path fill="#541f8e" d="M100 300h100v100H100z"/><path fill="#c37b55" d="M200 300h100v100H200z"/><path fill="#c3743d" d="M300 300h100v100H300z"/><path fill="#724e56" d="M400 300h100v100H400z"/><path fill="#4d486e" d="M500 300h100v100H500z"/><path fill="#784151" d="M600 300h100v100H600z"/><path fill="#ab6897" d="M700 300h100v100H700z"/><path fill="#8f73b6" d="M0 400h100v100H0z"/><path fill="#8d6d92" d="M100 400h100v100H100z"/><path fill="#b88b92" d="M200 400h100v100H200z"/><path fill="#b38291" d="M300 400h100v100H300z"/><path fill="#9d7675" d="M400 400h100v100H400z"/><path fill="#9e797b" d="M500 400h100v100H500z"/><path fill="#ab7779" d="M600 400h100v100H600z"/><path fill="#9775a7" d="M700 400h100v100H700z"/><path fill="#fcfcfb" d="M0 500h100v100H0z"/><path fill="#fefef5" d="M100 500h100v100H100z"/><path fill="#f6f4fb" d="M200 500h100v100H200z"/><path fill="#f4f3fd" d="M300 500h100v100H300z"/><path fill="#fcf9f5" d="M400 500h100v100H400z"/><path fill="#fef9f6" d="M500 500h100v100H500z"/><path fill="#f9f7ff" d="M600 500h100v100H600z"/><path fill="#faf8fe" d="M700 500h100v100H700z"/></svg>