<svg xmlns="http://www.w3.org/2000/svg" viewBox="0 0 800 500"><defs/><path fill="#82afce" d="M0 0h100v100H0z"/><path fill="#8192a5" d="M100 0h100v100H100z"/><path fill="#647cb2" d="M200 0h100v100H200z"/><path fill="#5e77b9" d="M300 0h100v100H300z"/><path fill="#7b98bf" d="M400 0h100v100H400z"/><path fill="#96b9d7" d="M500 0h100v100H500z"/><path fill="#7083d4" d="M600 0h100v100H600z"/><path fill="#7086d0" d="M700 0h100v100H700z"/><path fill="#7079a6" d="M0 100h100v100H0z"/><path fill="#663d39" d="M100 100h100v100H100z"/><path fill="#544878" d="M200 100h100v100H200z"/><path fill="#322752" d="M300 100h100v100H300z"/><path fill="#8576ae" d="M400 100h100v100H400z"/><path fill="#9897bf" d="M500 100h100v100H500z"/><path fill="#7d75a9" d="M600 100h100v100H600z"/><path fill="#778fc1" d="M700 100h100v100H700z"/><path fill="#5d6299" d="M0 200h100v100H0z"/><path fill="#5a3848" d="M100 200h100v100H100z"/><path fill="#4c2588" d="M200 200h100v100H200z"/><path fill="#502174" d="M300 200h100v100H300z"/><path fill="#5f429e" d="M400 200h100v100H400z"/><path fill="#4b3778" d="M500 200h100v100H500z"/><path fill="#6f5075" d="M600 200h100v100H600z"/><path fill="#718c95" d="M700 200h100v100H700z"/><path fill="#606176" d="M0 300h100v100H0z"/><path fill="#6e4b37" d="M100 300h100v100H100z"/><path fill="#a2788a" d="M200 300h100v100H200z"/><path fill="#a66f72" d="M300 300h100v100H300z"/><path fill="#84656f" d="M400 300h100v100H400z"/><path fill="#bfb3ac" d="M500 300h100v100H500z"/><path fill="#806265" d="M600 300h100v100H600z"/><path fill="#61819c" d="M700 300h100v100H700z"/><path fill="#7196a4" d="M0 400h100v100H0z"/><path fill="#a4b8b6" d="M100 400h100v100H100z"/><path fill="#83a5c4" d="M200 400h100v100H200z"/><path fill="#5c7fa6" d="M300 400h100v100H300z"/><path fill="#93aeb4" d="M400 400h100v100H400z"/><path fill="#cde7e2" d="M500 400h100v100H500z"/><path fill="#728e94" d="M600 400h100v100H600z"/><path fill="#70a5bf" d="M700 400h100v100H700z"/></svg>