<svg xmlns="http://www.w3.org/2000/svg" viewBox="0 0 800 1000"><defs/><path fill="#fff" d="M0 0h100v100H0zm100 0h100v100H100z"/><path fill="#fbfbfb" d="M200 0h100v100H200z"/><path fill="#fcfcfc" d="M300 0h100v100H300z"/><path fill="#fdfcfc" d="M400 0h100v100H400z"/><path fill="#fefdfd" d="M500 0h100v100H500z"/><path fill="#fff" d="M600 0h100v100H600zm100 0h100v100H700z"/><path fill="#f4f5f5" d="M0 100h100v100H0z"/><path fill="#fbfafa" d="M100 100h100v100H100z"/><path fill="#dfeef0" d="M200 100h100v100H200z"/><path fill="#e7f0f1" d="M300 100h100v100H300z"/><path fill="#daebeb" d="M400 100h100v100H400z"/><path fill="#f3f8f8" d="M500 100h100v100H500z"/><path fill="#fffefe" d="M600 100h100v100H600z"/><path fill="#fff" d="M700 100h100v100H700z"/><path fill="#f2f5f6" d="M0 200h100v100H0z"/><path fill="#d9eaeb" d="M100 200h100v100H100z"/><path fill="#f8f9fa" d="M200 200h100v100H200z"/><path fill="#f6f8f8" d="M300 200h100v100H300z"/><path fill="#f5f8f9" d="M400 200h100v100H400z"/><path fill="#d9ebed" d="M500 200h100v100H500z"/><path fill="#ecf4f4" d="M600 200h100v100H600z"/><path fill="#fff" d="M700 200h100v100H700z"/><path fill="#fdfefe" d="M0 300h100v100H0z"/><path fill="#f6f9fa" d="M100 300h100v100H100z"/><path fill="#fafafa" d="M200 300h100v100H200z"/><path fill="#f9faf9" d="M300 300h100v100H300z"/><path fill="#fdfcfc" d="M400 300h100v100H400z"/><path fill="#f4f8f8" d="M500 300h100v100H500z"/><path fill="#f9fbfb" d="M600 300h100v100H600z"/><path fill="#fff" d="M700 300h100v100H700zM0 400h100v100H0z"/><path fill="#fcfcfc" d="M100 400h100v100H100z"/><path fill="#fdfdfd" d="M200 400h100v100H200z"/><path fill="#fff" d="M300 400h100v100H300z"/><path fill="#fbfcfc" d="M400 400h100v100H400z"/><path fill="#fcfbfb" d="M500 400h100v100H500z"/><path fill="#fafaf9" d="M600 400h100v100H600z"/><path fill="#fdfdfd" d="M700 400h100v100H700z"/><path fill="#fffeff" d="M0 500h100v100H0z"/><path fill="#fcfcfc" d="M100 500h100v100H100z"/><path fill="#fff" d="M200 500h100v100H200zm100 0h100v100H300z"/><path fill="#fdfdfd" d="M400 500h100v100H400z"/><path fill="#fafafa" d="M500 500h100v100H500z"/><path fill="#eef2f2" d="M600 500h100v100H600z"/><path fill="#fbfcfb" d="M700 500h100v100H700z"/><path fill="#fdfdfd" d="M0 600h100v100H0z"/><path fill="#fafafa" d="M100 600h100v100H100z"/><path fill="#fff" d="M200 600h100v100H200zm100 0h100v100H300z"/><path fill="#fefefe" d="M400 600h100v100H400z"/><path fill="#f8f9f9" d="M500 600h100v100H500z"/><path fill="#d1e7ea" d="M600 600h100v100H600z"/><path fill="#f7f9f9" d="M700 600h100v100H700z"/><path fill="#fafafa" d="M0 700h100v100H0z"/><path fill="#fdfdfd" d="M100 700h100v100H100z"/><path fill="#fff" d="M200 700h100v100H200z"/><path fill="#fefefe" d="M300 700h100v100H300zm100 0h100v100H400z"/><path fill="#fbfbfb" d="M500 700h100v100H500z"/><path fill="#f9fbfb" d="M600 700h100v100H600z"/><path fill="#fefefe" d="M700 700h100v100H700zM0 800h100v100H0z"/><path fill="#fff" d="M100 800h100v100H100z"/><path fill="#fafafa" d="M200 800h100v100H200z"/><path fill="#fbfbfb" d="M300 800h100v100H300z"/><path fill="#fdfdfd" d="M400 800h100v100H400z"/><path fill="#fffefe" d="M500 800h100v100H500z"/><path fill="#fff" d="M600 800h100v100H600zm100 0h100v100H700zM0 900h100v100H0z"/><path fill="#f9f9f9" d="M100 900h100v100H100z"/><path fill="#fafafa" d="M200 900h100v100H200z"/><path fill="#fff" d="M300 900h100v100H300zm100 0h100v100H400zm100 0h100v100H500z"/><path fill="#f8f8f8" d="M600 900h100v100H600z"/><path fill="#f7f7f7" d="M700 900h100v100H700z"/></svg>