<svg xmlns="http://www.w3.org/2000/svg" viewBox="0 0 800 400"><defs/><path fill="#dbdbdb" d="M0 0h100v100H0z"/><path fill="#c3c3c3" d="M100 0h100v100H100z"/><path fill="#dfdfdf" d="M200 0h100v100H200z"/><path fill="#e0e0e0" d="M300 0h100v100H300z"/><path fill="#d5d5d5" d="M400 0h100v100H400z"/><path fill="#e0e0e0" d="M500 0h100v100H500z"/><path fill="#dbdbdb" d="M600 0h100v100H600z"/><path fill="#dadada" d="M700 0h100v100H700z"/><path fill="#ddd" d="M0 100h100v100H0z"/><path fill="#d2d2d2" d="M100 100h100v100H100z"/><path fill="#e9e9e9" d="M200 100h100v100H200z"/><path fill="#d5d5d5" d="M300 100h100v100H300z"/><path fill="#d8d8d8" d="M400 100h100v100H400z"/><path fill="#cbcbcb" d="M500 100h100v100H500z"/><path fill="#e2e2e2" d="M600 100h100v100H600z"/><path fill="#ddd" d="M700 100h100v100H700z"/><path fill="#cfcfcf" d="M0 200h100v100H0z"/><path fill="#c7c7c7" d="M100 200h100v100H100z"/><path fill="#c8c8c8" d="M200 200h100v100H200z"/><path fill="#adadad" d="M300 200h100v100H300z"/><path fill="#a9a9a9" d="M400 200h100v100H400z"/><path fill="#b4b4b4" d="M500 200h100v100H500z"/><path fill="#b9b9b9" d="M600 200h100v100H600z"/><path fill="#d8d8d8" d="M700 200h100v100H700z"/><path fill="#c8c8c8" d="M0 300h100v100H0z"/><path fill="#c3c3c3" d="M100 300h100v100H100z"/><path fill="#c8c8c8" d="M200 300h100v100H200z"/><path fill="silver" d="M300 300h100v100H300z"/><path fill="#c3c3c3" d="M400 300h100v100H400z"/><path fill="#c1c1c1" d="M500 300h100v100H500z"/><path fill="#bebebe" d="M600 300h100v100H600z"/><path fill="#c1c1c1" d="M700 300h100v100H700z"/></svg>