<svg xmlns="http://www.w3.org/2000/svg" viewBox="0 0 800 600"><defs/><path fill="#ece5d4" d="M0 0h100v100H0z"/><path fill="#f3efe5" d="M100 0h100v100H100z"/><path fill="#f9f7ef" d="M200 0h100v100H200z"/><path fill="#f4efe5" d="M300 0h100v100H300z"/><path fill="#f0ecde" d="M400 0h100v100H400z"/><path fill="#f0eade" d="M500 0h100v100H500z"/><path fill="#f2ede8" d="M600 0h100v100H600z"/><path fill="#fefaf2" d="M700 0h100v100H700z"/><path fill="#ebe5e0" d="M0 100h100v100H0z"/><path fill="#bfd0de" d="M100 100h100v100H100z"/><path fill="#dfe6e4" d="M200 100h100v100H200z"/><path fill="#cedbe2" d="M300 100h100v100H300z"/><path fill="#d2e1e6" d="M400 100h100v100H400z"/><path fill="#d8e1e6" d="M500 100h100v100H500z"/><path fill="#d3dae4" d="M600 100h100v100H600z"/><path fill="#f1eee8" d="M700 100h100v100H700z"/><path fill="#d4dadb" d="M0 200h100v100H0z"/><path fill="#c1d6df" d="M100 200h100v100H100z"/><path fill="#e6e7e2" d="M200 200h100v100H200z"/><path fill="#ccd8dd" d="M300 200h100v100H300z"/><path fill="#bed2dd" d="M400 200h100v100H400z"/><path fill="#beccda" d="M500 200h100v100H500z"/><path fill="#d2dadd" d="M600 200h100v100H600z"/><path fill="#efebe3" d="M700 200h100v100H700z"/><path fill="#cddadb" d="M0 300h100v100H0z"/><path fill="#c1d6db" d="M100 300h100v100H100z"/><path fill="#ddddda" d="M200 300h100v100H200z"/><path fill="#bac8d9" d="M300 300h100v100H300z"/><path fill="#a2bcd3" d="M400 300h100v100H400z"/><path fill="#b7c2cf" d="M500 300h100v100H500z"/><path fill="#c4d1d9" d="M600 300h100v100H600z"/><path fill="#e5e2dc" d="M700 300h100v100H700z"/><path fill="#cfd8da" d="M0 400h100v100H0z"/><path fill="#bacfd9" d="M100 400h100v100H100z"/><path fill="#b9c5d1" d="M200 400h100v100H200z"/><path fill="#89a2c7" d="M300 400h100v100H300z"/><path fill="#a1adc0" d="M400 400h100v100H400z"/><path fill="#98a8ca" d="M500 400h100v100H500z"/><path fill="#426bca" d="M600 400h100v100H600z"/><path fill="#c1c9d0" d="M700 400h100v100H700z"/><path fill="#ddd8ce" d="M0 500h100v100H0z"/><path fill="#c5caca" d="M100 500h100v100H100z"/><path fill="#9aa8af" d="M200 500h100v100H200z"/><path fill="#8a9196" d="M300 500h100v100H300z"/><path fill="#7f8b94" d="M400 500h100v100H400z"/><path fill="#98a8b2" d="M500 500h100v100H500z"/><path fill="#8ea7bc" d="M600 500h100v100H600z"/><path fill="#bcbebe" d="M700 500h100v100H700z"/></svg>