<svg xmlns="http://www.w3.org/2000/svg" viewBox="0 0 800 500"><defs/><path fill="#393329" d="M0 0h100v100H0z"/><path fill="#6d6457" d="M100 0h100v100H100z"/><path fill="#5e594a" d="M200 0h100v100H200z"/><path fill="#484739" d="M300 0h100v100H300z"/><path fill="#2d321f" d="M400 0h100v100H400z"/><path fill="#363e2b" d="M500 0h100v100H500z"/><path fill="#333a24" d="M600 0h100v100H600z"/><path fill="#3b4320" d="M700 0h100v100H700z"/><path fill="#333e43" d="M0 100h100v100H0z"/><path fill="#647e95" d="M100 100h100v100H100z"/><path fill="#617b9a" d="M200 100h100v100H200z"/><path fill="#595657" d="M300 100h100v100H300z"/><path fill="#4f4a48" d="M400 100h100v100H400z"/><path fill="#4e4c4b" d="M500 100h100v100H500z"/><path fill="#5c7279" d="M600 100h100v100H600z"/><path fill="#5a524f" d="M700 100h100v100H700z"/><path fill="#42474c" d="M0 200h100v100H0z"/><path fill="#6b94b2" d="M100 200h100v100H100z"/><path fill="#476d8d" d="M200 200h100v100H200z"/><path fill="#161a1c" d="M300 200h100v100H300z"/><path fill="#2e343a" d="M400 200h100v100H400z"/><path fill="#4f6172" d="M500 200h100v100H500z"/><path fill="#6c879a" d="M600 200h100v100H600z"/><path fill="#76585e" d="M700 200h100v100H700z"/><path fill="#615a57" d="M0 300h100v100H0z"/><path fill="#565757" d="M100 300h100v100H100z"/><path fill="#3c474c" d="M200 300h100v100H200z"/><path fill="#14181d" d="M300 300h100v100H300z"/><path fill="#191e21" d="M400 300h100v100H400z"/><path fill="#1a272d" d="M500 300h100v100H500z"/><path fill="#597c97" d="M600 300h100v100H600z"/><path fill="#7195b5" d="M700 300h100v100H700z"/><path fill="#585656" d="M0 400h100v100H0z"/><path fill="#5d5a58" d="M100 400h100v100H100z"/><path fill="#383a3a" d="M200 400h100v100H200z"/><path fill="#2d2f30" d="M300 400h100v100H300z"/><path fill="#262826" d="M400 400h100v100H400z"/><path fill="#21201d" d="M500 400h100v100H500z"/><path fill="#24313f" d="M600 400h100v100H600z"/><path fill="#4b6072" d="M700 400h100v100H700z"/></svg>