<svg xmlns="http://www.w3.org/2000/svg" viewBox="0 0 800 800"><defs/><path fill="#f0dfe1" d="M0 0h100v100H0z"/><path fill="#d399a7" d="M100 0h100v100H100z"/><path fill="#d1b3bd" d="M200 0h100v100H200z"/><path fill="#aeb0b1" d="M300 0h100v100H300z"/><path fill="#9f9f9f" d="M400 0h100v100H400z"/><path fill="#a9a8a8" d="M500 0h100v100H500z"/><path fill="#aaa6a5" d="M600 0h100v100H600z"/><path fill="#d9d9d9" d="M700 0h100v100H700z"/><path fill="#dadad9" d="M0 100h100v100H0z"/><path fill="#b0b1a4" d="M100 100h100v100H100z"/><path fill="#c0c1b2" d="M200 100h100v100H200z"/><path fill="#bebdba" d="M300 100h100v100H300z"/><path fill="#b6b5b5" d="M400 100h100v100H400z"/><path fill="#c8caca" d="M500 100h100v100H500z"/><path fill="#a1b1b4" d="M600 100h100v100H600z"/><path fill="#cccece" d="M700 100h100v100H700z"/><path fill="#dadad7" d="M0 200h100v100H0z"/><path fill="#e2e3b2" d="M100 200h100v100H100z"/><path fill="#dedf8e" d="M200 200h100v100H200z"/><path fill="#edebde" d="M300 200h100v100H300z"/><path fill="#e3eaee" d="M400 200h100v100H400z"/><path fill="#82c3d0" d="M500 200h100v100H500z"/><path fill="#b5dbe4" d="M600 200h100v100H600z"/><path fill="#dadddd" d="M700 200h100v100H700z"/><path fill="#ddd" d="M0 300h100v100H0z"/><path fill="#ebebf0" d="M100 300h100v100H100z"/><path fill="#dedfdb" d="M200 300h100v100H200z"/><path fill="#d8d7d5" d="M300 300h100v100H300z"/><path fill="#d5d9da" d="M400 300h100v100H400z"/><path fill="#d0d5d6" d="M500 300h100v100H500z"/><path fill="#fcf6f5" d="M600 300h100v100H600z"/><path fill="#e1e0e0" d="M700 300h100v100H700z"/><path fill="#e4e4e4" d="M0 400h100v100H0z"/><path fill="#e5e6e4" d="M100 400h100v100H100z"/><path fill="#f3f4f3" d="M200 400h100v100H200z"/><path fill="#d9d9d9" d="M300 400h100v100H300z"/><path fill="#e0e0e0" d="M400 400h100v100H400z"/><path fill="#f4f8f7" d="M500 400h100v100H500z"/><path fill="#eef5f4" d="M600 400h100v100H600z"/><path fill="#e2e2e2" d="M700 400h100v100H700z"/><path fill="#e4e3e4" d="M0 500h100v100H0z"/><path fill="#f3f2f4" d="M100 500h100v100H100z"/><path fill="#cdc3ce" d="M200 500h100v100H200z"/><path fill="#f2f1f3" d="M300 500h100v100H300z"/><path fill="#f6f4f4" d="M400 500h100v100H400z"/><path fill="#d4b5bd" d="M500 500h100v100H500z"/><path fill="#eecbd3" d="M600 500h100v100H600z"/><path fill="#e4d3d7" d="M700 500h100v100H700z"/><path fill="#d2cbd3" d="M0 600h100v100H0z"/><path fill="#af8ab1" d="M100 600h100v100H100z"/><path fill="#ceb9d0" d="M200 600h100v100H200z"/><path fill="#dfdfe0" d="M300 600h100v100H300z"/><path fill="#ebe3e4" d="M400 600h100v100H400z"/><path fill="#e5c8d0" d="M500 600h100v100H500z"/><path fill="#d48699" d="M600 600h100v100H600z"/><path fill="#d6bbc1" d="M700 600h100v100H700z"/><path fill="#dbdadb" d="M0 700h100v100H0z"/><path fill="#cbc2cb" d="M100 700h100v100H100z"/><path fill="#e8ebe7" d="M200 700h100v100H200z"/><path fill="#dfe0df" d="M300 700h100v100H300z"/><path fill="#e2e3e3" d="M400 700h100v100H400z"/><path fill="#dde5e3" d="M500 700h100v100H500z"/><path fill="#d3d5d5" d="M600 700h100v100H600z"/><path fill="#d4d4d3" d="M700 700h100v100H700z"/></svg>