<svg xmlns="http://www.w3.org/2000/svg" viewBox="0 0 800 500"><defs/><path fill="#d4d8d8" d="M0 0h100v100H0z"/><path fill="#d0d8da" d="M100 0h100v100H100z"/><path fill="#dfe0e0" d="M200 0h100v100H200z"/><path fill="#e2e0e1" d="M300 0h100v100H300z"/><path fill="#e4e2e3" d="M400 0h100v100H400z"/><path fill="#e0e0e0" d="M500 0h100v100H500z"/><path fill="#d6d8d8" d="M600 0h100v100H600z"/><path fill="#d7dcdd" d="M700 0h100v100H700z"/><path fill="#dadbd0" d="M0 100h100v100H0z"/><path fill="#abc5aa" d="M100 100h100v100H100z"/><path fill="#aacebe" d="M200 100h100v100H200z"/><path fill="#badcd8" d="M300 100h100v100H300z"/><path fill="#b5d3d3" d="M400 100h100v100H400z"/><path fill="#97beb5" d="M500 100h100v100H500z"/><path fill="#a3c6b6" d="M600 100h100v100H600z"/><path fill="#efe1d4" d="M700 100h100v100H700z"/><path fill="#d4d9ce" d="M0 200h100v100H0z"/><path fill="#a5c3a9" d="M100 200h100v100H100z"/><path fill="#c9d1b7" d="M200 200h100v100H200z"/><path fill="#dccdc3" d="M300 200h100v100H300z"/><path fill="#d5b5ba" d="M400 200h100v100H400z"/><path fill="#ced8c4" d="M500 200h100v100H500z"/><path fill="#cbc8b5" d="M600 200h100v100H600z"/><path fill="#dbb9b0" d="M700 200h100v100H700z"/><path fill="#c5d1c6" d="M0 300h100v100H0z"/><path fill="#a8bea0" d="M100 300h100v100H100z"/><path fill="#dfb99b" d="M200 300h100v100H200z"/><path fill="#eeb99c" d="M300 300h100v100H300z"/><path fill="#ecaea6" d="M400 300h100v100H400z"/><path fill="#e5cfb1" d="M500 300h100v100H500z"/><path fill="#d4bc99" d="M600 300h100v100H600z"/><path fill="#bca079" d="M700 300h100v100H700z"/><path fill="#c1c9c5" d="M0 400h100v100H0z"/><path fill="#c2c0b7" d="M100 400h100v100H100z"/><path fill="#d2cbb9" d="M200 400h100v100H200z"/><path fill="#d7cdbc" d="M300 400h100v100H300z"/><path fill="#d8d1bb" d="M400 400h100v100H400z"/><path fill="#d7cfbe" d="M500 400h100v100H500z"/><path fill="#cdc7b8" d="M600 400h100v100H600z"/><path fill="#c2b39b" d="M700 400h100v100H700z"/></svg>