<svg xmlns="http://www.w3.org/2000/svg" viewBox="0 0 800 400"><defs/><path fill="#897670" d="M0 0h100v100H0z"/><path fill="#3a3533" d="M100 0h100v100H100z"/><path fill="#685859" d="M200 0h100v100H200z"/><path fill="#655353" d="M300 0h100v100H300z"/><path fill="#635151" d="M400 0h100v100H400z"/><path fill="#6a5757" d="M500 0h100v100H500zm100 0h100v100H600z"/><path fill="#615253" d="M700 0h100v100H700z"/><path fill="#5a4740" d="M0 100h100v100H0z"/><path fill="#100d0c" d="M100 100h100v100H100z"/><path fill="#645351" d="M200 100h100v100H200z"/><path fill="#5c3f41" d="M300 100h100v100H300z"/><path fill="#6d4f51" d="M400 100h100v100H400z"/><path fill="#3e2626" d="M500 100h100v100H500z"/><path fill="#462d2e" d="M600 100h100v100H600z"/><path fill="#3a2728" d="M700 100h100v100H700z"/><path fill="#50423e" d="M0 200h100v100H0z"/><path fill="#14100e" d="M100 200h100v100H100z"/><path fill="#7e6e6e" d="M200 200h100v100H200z"/><path fill="#9e8f90" d="M300 200h100v100H300z"/><path fill="#a69998" d="M400 200h100v100H400z"/><path fill="#594243" d="M500 200h100v100H500z"/><path fill="#422924" d="M600 200h100v100H600z"/><path fill="#3b2726" d="M700 200h100v100H700z"/><path fill="#4f4543" d="M0 300h100v100H0z"/><path fill="#261b18" d="M100 300h100v100H100z"/><path fill="#654e4e" d="M200 300h100v100H200z"/><path fill="#77706f" d="M300 300h100v100H300z"/><path fill="#797975" d="M400 300h100v100H400z"/><path fill="#6b5c60" d="M500 300h100v100H500z"/><path fill="#3f2922" d="M600 300h100v100H600z"/><path fill="#4e3c38" d="M700 300h100v100H700z"/></svg>