<svg xmlns="http://www.w3.org/2000/svg" viewBox="0 0 800 1100"><defs/><path fill="#58575c" d="M0 0h100v100H0z"/><path fill="#56555a" d="M100 0h100v100H100z"/><path fill="#4f4d51" d="M200 0h100v100H200z"/><path fill="#4f4849" d="M300 0h100v100H300z"/><path fill="#4b494e" d="M400 0h100v100H400z"/><path fill="#525156" d="M500 0h100v100H500z"/><path fill="#4f4e53" d="M600 0h100v100H600z"/><path fill="#4d4d52" d="M700 0h100v100H700z"/><path fill="#555358" d="M0 100h100v100H0z"/><path fill="#4c4d53" d="M100 100h100v100H100z"/><path fill="#796861" d="M200 100h100v100H200z"/><path fill="#caa58f" d="M300 100h100v100H300z"/><path fill="#a18577" d="M400 100h100v100H400z"/><path fill="#535154" d="M500 100h100v100H500z"/><path fill="#4a4a4e" d="M600 100h100v100H600z"/><path fill="#4a4b4f" d="M700 100h100v100H700z"/><path fill="#4b4a50" d="M0 200h100v100H0z"/><path fill="#49474b" d="M100 200h100v100H100z"/><path fill="#867569" d="M200 200h100v100H200z"/><path fill="#cbb4a6" d="M300 200h100v100H300z"/><path fill="#937c71" d="M400 200h100v100H400z"/><path fill="#554d4d" d="M500 200h100v100H500z"/><path fill="#404046" d="M600 200h100v100H600z"/><path fill="#45474b" d="M700 200h100v100H700z"/><path fill="#46454a" d="M0 300h100v100H0z"/><path fill="#3e3c40" d="M100 300h100v100H100z"/><path fill="#816357" d="M200 300h100v100H200z"/><path fill="#a57f74" d="M300 300h100v100H300z"/><path fill="#936f62" d="M400 300h100v100H400z"/><path fill="#53433f" d="M500 300h100v100H500z"/><path fill="#313238" d="M600 300h100v100H600z"/><path fill="#404044" d="M700 300h100v100H700z"/><path fill="#464549" d="M0 400h100v100H0z"/><path fill="#34363c" d="M100 400h100v100H100z"/><path fill="#705c53" d="M200 400h100v100H200z"/><path fill="#e3b3a1" d="M300 400h100v100H300z"/><path fill="#aa8170" d="M400 400h100v100H400z"/><path fill="#352e2e" d="M500 400h100v100H500z"/><path fill="#323238" d="M600 400h100v100H600z"/><path fill="#3f4043" d="M700 400h100v100H700z"/><path fill="#37363b" d="M0 500h100v100H0z"/><path fill="#2b2a2f" d="M100 500h100v100H100z"/><path fill="#1e1d21" d="M200 500h100v100H200z"/><path fill="#6e5046" d="M300 500h100v100H300z"/><path fill="#533b36" d="M400 500h100v100H400z"/><path fill="#17171e" d="M500 500h100v100H500z"/><path fill="#252329" d="M600 500h100v100H600z"/><path fill="#2c2c31" d="M700 500h100v100H700z"/><path fill="#4a484d" d="M0 600h100v100H0z"/><path fill="#c0c0c1" d="M100 600h100v100H100z"/><path fill="#a8aaac" d="M200 600h100v100H200z"/><path fill="#b8afae" d="M300 600h100v100H300z"/><path fill="#a59c9a" d="M400 600h100v100H400z"/><path fill="#75767a" d="M500 600h100v100H500z"/><path fill="#6f6e72" d="M600 600h100v100H600z"/><path fill="#545357" d="M700 600h100v100H700z"/><path fill="#4b4c52" d="M0 700h100v100H0z"/><path fill="#fff" d="M100 700h100v100H100zm100 0h100v100H200z"/><path fill="#feffff" d="M300 700h100v100H300z"/><path fill="#fff" d="M400 700h100v100H400z"/><path fill="#fdfdfd" d="M500 700h100v100H500z"/><path fill="#fff" d="M600 700h100v100H600z"/><path fill="#d5d6d8" d="M700 700h100v100H700z"/><path fill="#aea49f" d="M0 800h100v100H0z"/><path fill="#f6f4f2" d="M100 800h100v100H100z"/><path fill="#e4e4e5" d="M200 800h100v100H200z"/><path fill="#c6c6c6" d="M300 800h100v100H300z"/><path fill="#afafaf" d="M400 800h100v100H400z"/><path fill="#e8e8e7" d="M500 800h100v100H500z"/><path fill="#fff" d="M600 800h100v100H600z"/><path fill="#e1d4ce" d="M700 800h100v100H700z"/><path fill="#fed7c1" d="M0 900h100v100H0z"/><path fill="#f5f1f1" d="M100 900h100v100H100z"/><path fill="#bfc0c0" d="M200 900h100v100H200z"/><path fill="#d3d3d3" d="M300 900h100v100H300z"/><path fill="#c1c1c1" d="M400 900h100v100H400z"/><path fill="#b3b3b2" d="M500 900h100v100H500z"/><path fill="#dbdee0" d="M600 900h100v100H600z"/><path fill="#e8c9b9" d="M700 900h100v100H700z"/><path fill="#998985" d="M0 1000h100v100H0z"/><path fill="#f3f5f8" d="M100 1000h100v100H100z"/><path fill="#fff" d="M200 1000h100v100H200z"/><path fill="#fefefe" d="M300 1000h100v100H300z"/><path fill="#fff" d="M400 1000h100v100H400z"/><path fill="#fcfbfb" d="M500 1000h100v100H500z"/><path fill="#fff" d="M600 1000h100v100H600z"/><path fill="#c3a99f" d="M700 1000h100v100H700z"/></svg>