<svg xmlns="http://www.w3.org/2000/svg" viewBox="0 0 800 600"><defs/><path fill="#41244b" d="M0 0h100v100H0z"/><path fill="#816552" d="M100 0h100v100H100z"/><path fill="#1e0a40" d="M200 0h100v100H200z"/><path fill="#a99da1" d="M300 0h100v100H300z"/><path fill="#ffffed" d="M400 0h100v100H400z"/><path fill="#d1c4be" d="M500 0h100v100H500z"/><path fill="#2a164f" d="M600 0h100v100H600z"/><path fill="#3c1e4a" d="M700 0h100v100H700z"/><path fill="#432c4c" d="M0 100h100v100H0z"/><path fill="#7d595d" d="M100 100h100v100H100z"/><path fill="#36194e" d="M200 100h100v100H200z"/><path fill="#3c3264" d="M300 100h100v100H300z"/><path fill="#867a8b" d="M400 100h100v100H400z"/><path fill="#4c3a64" d="M500 100h100v100H500z"/><path fill="#240f4e" d="M600 100h100v100H600z"/><path fill="#522e52" d="M700 100h100v100H700z"/><path fill="#56424a" d="M0 200h100v100H0z"/><path fill="#9b8071" d="M100 200h100v100H100z"/><path fill="#3e225b" d="M200 200h100v100H200z"/><path fill="#341a42" d="M300 200h100v100H300z"/><path fill="#502c4c" d="M400 200h100v100H400z"/><path fill="#220c4f" d="M500 200h100v100H500z"/><path fill="#23144b" d="M600 200h100v100H600z"/><path fill="#634467" d="M700 200h100v100H700z"/><path fill="#775950" d="M0 300h100v100H0z"/><path fill="#6b5862" d="M100 300h100v100H100z"/><path fill="#573d5a" d="M200 300h100v100H200z"/><path fill="#d7b665" d="M300 300h100v100H300z"/><path fill="#fbce60" d="M400 300h100v100H400z"/><path fill="#e5b46b" d="M500 300h100v100H500z"/><path fill="#6e5a83" d="M600 300h100v100H600z"/><path fill="#412661" d="M700 300h100v100H700z"/><path fill="#744d62" d="M0 400h100v100H0z"/><path fill="#372469" d="M100 400h100v100H100z"/><path fill="#523c71" d="M200 400h100v100H200z"/><path fill="#765f5f" d="M300 400h100v100H300z"/><path fill="#775a58" d="M400 400h100v100H400z"/><path fill="#7b5a58" d="M500 400h100v100H500z"/><path fill="#3d2761" d="M600 400h100v100H600z"/><path fill="#432359" d="M700 400h100v100H700z"/><path fill="#523368" d="M0 500h100v100H0z"/><path fill="#41235c" d="M100 500h100v100H100z"/><path fill="#391652" d="M200 500h100v100H200z"/><path fill="#1f0859" d="M300 500h100v100H300z"/><path fill="#200a5c" d="M400 500h100v100H400z"/><path fill="#190258" d="M500 500h100v100H500z"/><path fill="#3e2b66" d="M600 500h100v100H600z"/><path fill="#7f6d7f" d="M700 500h100v100H700z"/></svg>