<svg xmlns="http://www.w3.org/2000/svg" viewBox="0 0 800 500"><defs/><path fill="#d9d4cf" d="M0 0h100v100H0z"/><path fill="#d3d1d1" d="M100 0h100v100H100z"/><path fill="#d9d4d0" d="M200 0h100v100H200z"/><path fill="#dbd8d2" d="M300 0h100v100H300z"/><path fill="#d8d2cf" d="M400 0h100v100H400z"/><path fill="#d9d3cf" d="M500 0h100v100H500z"/><path fill="#d8d0ce" d="M600 0h100v100H600z"/><path fill="#d5cac7" d="M700 0h100v100H700z"/><path fill="#d4d3d2" d="M0 100h100v100H0z"/><path fill="#c0bbbc" d="M100 100h100v100H100z"/><path fill="#cfc4b4" d="M200 100h100v100H200z"/><path fill="#cbb9b0" d="M300 100h100v100H300z"/><path fill="#d6d0c3" d="M400 100h100v100H400z"/><path fill="#d5d3c9" d="M500 100h100v100H500z"/><path fill="#cecabf" d="M600 100h100v100H600z"/><path fill="#c9c4c7" d="M700 100h100v100H700z"/><path fill="#d1cdcb" d="M0 200h100v100H0z"/><path fill="#c1b7b2" d="M100 200h100v100H100z"/><path fill="#c4b7ae" d="M200 200h100v100H200z"/><path fill="#c59e9e" d="M300 200h100v100H300z"/><path fill="#cdbdb6" d="M400 200h100v100H400z"/><path fill="#c9c8c8" d="M500 200h100v100H500z"/><path fill="#bfc1b1" d="M600 200h100v100H600z"/><path fill="#c0c6bb" d="M700 200h100v100H700z"/><path fill="#ccbeb8" d="M0 300h100v100H0z"/><path fill="#b8a199" d="M100 300h100v100H100z"/><path fill="#b79991" d="M200 300h100v100H200z"/><path fill="#c7a29d" d="M300 300h100v100H300z"/><path fill="#be988b" d="M400 300h100v100H400z"/><path fill="#bdaaa2" d="M500 300h100v100H500z"/><path fill="#c9afad" d="M600 300h100v100H600z"/><path fill="#c2b3a2" d="M700 300h100v100H700z"/><path fill="#d4c5bf" d="M0 400h100v100H0z"/><path fill="#d1b7b2" d="M100 400h100v100H100z"/><path fill="#cdb5b1" d="M200 400h100v100H200z"/><path fill="#cbb6b1" d="M300 400h100v100H300z"/><path fill="#cbb2b0" d="M400 400h100v100H400z"/><path fill="#c8b4b5" d="M500 400h100v100H500z"/><path fill="#cdbaba" d="M600 400h100v100H600z"/><path fill="#cabdb9" d="M700 400h100v100H700z"/></svg>