<svg xmlns="http://www.w3.org/2000/svg" viewBox="0 0 800 400"><defs/><path fill="#846229" d="M0 0h100v100H0z"/><path fill="#745f2f" d="M100 0h100v100H100z"/><path fill="#866c33" d="M200 0h100v100H200z"/><path fill="#74533d" d="M300 0h100v100H300z"/><path fill="#4b7282" d="M400 0h100v100H400z"/><path fill="#606068" d="M500 0h100v100H500z"/><path fill="#9c6a3b" d="M600 0h100v100H600z"/><path fill="#a2a89e" d="M700 0h100v100H700z"/><path fill="#766458" d="M0 100h100v100H0z"/><path fill="#6c695c" d="M100 100h100v100H100z"/><path fill="#7a6343" d="M200 100h100v100H200z"/><path fill="#9c3f3c" d="M300 100h100v100H300z"/><path fill="#225e91" d="M400 100h100v100H400z"/><path fill="#514a5b" d="M500 100h100v100H500z"/><path fill="#7a442c" d="M600 100h100v100H600z"/><path fill="#a5b3aa" d="M700 100h100v100H700z"/><path fill="#836b37" d="M0 200h100v100H0z"/><path fill="#6a6247" d="M100 200h100v100H100z"/><path fill="#786e6d" d="M200 200h100v100H200z"/><path fill="#955b56" d="M300 200h100v100H300z"/><path fill="#7e605d" d="M400 200h100v100H400z"/><path fill="#6a4c43" d="M500 200h100v100H500z"/><path fill="#71453e" d="M600 200h100v100H600z"/><path fill="#9da09a" d="M700 200h100v100H700z"/><path fill="#83775a" d="M0 300h100v100H0z"/><path fill="#978c85" d="M100 300h100v100H100z"/><path fill="#8d7d79" d="M200 300h100v100H200z"/><path fill="#6b626b" d="M300 300h100v100H300z"/><path fill="#765e68" d="M400 300h100v100H400z"/><path fill="#998487" d="M500 300h100v100H500z"/><path fill="#878282" d="M600 300h100v100H600z"/><path fill="#9a9190" d="M700 300h100v100H700z"/></svg>