<svg xmlns="http://www.w3.org/2000/svg" viewBox="0 0 800 500"><defs/><path fill="#f9e9d9" d="M0 0h100v100H0z"/><path fill="#f2dccb" d="M100 0h100v100H100z"/><path fill="#f9ebdd" d="M200 0h100v100H200z"/><path fill="#fcf8f1" d="M300 0h100v100H300z"/><path fill="#faf8f6" d="M400 0h100v100H400z"/><path fill="#fbf8f4" d="M500 0h100v100H500z"/><path fill="#fbf5eb" d="M600 0h100v100H600z"/><path fill="#faf1e2" d="M700 0h100v100H700z"/><path fill="#e5a46a" d="M0 100h100v100H0z"/><path fill="#d18240" d="M100 100h100v100H100z"/><path fill="#eec291" d="M200 100h100v100H200z"/><path fill="#fbeacf" d="M300 100h100v100H300z"/><path fill="#f8f0e4" d="M400 100h100v100H400z"/><path fill="#faf5f0" d="M500 100h100v100H500z"/><path fill="#f2dbb9" d="M600 100h100v100H600z"/><path fill="#efce99" d="M700 100h100v100H700z"/><path fill="#e4a56e" d="M0 200h100v100H0z"/><path fill="#dc9f5c" d="M100 200h100v100H100z"/><path fill="#f5dcb0" d="M200 200h100v100H200z"/><path fill="#faecd7" d="M300 200h100v100H300z"/><path fill="#f9ecd6" d="M400 200h100v100H400z"/><path fill="#f5e6d4" d="M500 200h100v100H500z"/><path fill="#efd6b6" d="M600 200h100v100H600z"/><path fill="#efcf9c" d="M700 200h100v100H700z"/><path fill="#dc975d" d="M0 300h100v100H0z"/><path fill="#e1af6e" d="M100 300h100v100H100z"/><path fill="#e6c497" d="M200 300h100v100H200z"/><path fill="#e0b788" d="M300 300h100v100H300z"/><path fill="#fbe6c7" d="M400 300h100v100H400z"/><path fill="#f6deb9" d="M500 300h100v100H500z"/><path fill="#d6b183" d="M600 300h100v100H600z"/><path fill="#e4c391" d="M700 300h100v100H700z"/><path fill="#e3b68d" d="M0 400h100v100H0z"/><path fill="#ebc89e" d="M100 400h100v100H100z"/><path fill="#e9cba7" d="M200 400h100v100H200z"/><path fill="#e9c9a3" d="M300 400h100v100H300z"/><path fill="#f5dfc3" d="M400 400h100v100H400z"/><path fill="#eeddc4" d="M500 400h100v100H500z"/><path fill="#e0c7a7" d="M600 400h100v100H600z"/><path fill="#ebd5b6" d="M700 400h100v100H700z"/></svg>