<svg xmlns="http://www.w3.org/2000/svg" viewBox="0 0 800 500"><defs/><path fill="#94bbf8" d="M0 0h100v100H0z"/><path fill="#b8d3f7" d="M100 0h100v100H100z"/><path fill="#c7dbfe" d="M200 0h100v100H200z"/><path fill="#c1d7fe" d="M300 0h100v100H300z"/><path fill="#b3d3fe" d="M400 0h100v100H400z"/><path fill="#afcfff" d="M500 0h100v100H500z"/><path fill="#abc7fa" d="M600 0h100v100H600z"/><path fill="#a7b2de" d="M700 0h100v100H700z"/><path fill="#c2caed" d="M0 100h100v100H0z"/><path fill="#c6cdd6" d="M100 100h100v100H100z"/><path fill="#c5c2d8" d="M200 100h100v100H200z"/><path fill="#cee6ff" d="M300 100h100v100H300z"/><path fill="#b9bdda" d="M400 100h100v100H400z"/><path fill="#bacaf0" d="M500 100h100v100H500z"/><path fill="#bdd7ff" d="M600 100h100v100H600z"/><path fill="#d7c3e7" d="M700 100h100v100H700z"/><path fill="#e2a6ad" d="M0 200h100v100H0z"/><path fill="#deb3be" d="M100 200h100v100H100z"/><path fill="#ccd3e4" d="M200 200h100v100H200z"/><path fill="#d2d9f6" d="M300 200h100v100H300z"/><path fill="#b38c8f" d="M400 200h100v100H400z"/><path fill="#bba4a6" d="M500 200h100v100H500z"/><path fill="#cdc4da" d="M600 200h100v100H600z"/><path fill="#d7abba" d="M700 200h100v100H700z"/><path fill="#d9b5c8" d="M0 300h100v100H0z"/><path fill="#d3a5c4" d="M100 300h100v100H100z"/><path fill="#d5869c" d="M200 300h100v100H200z"/><path fill="#b89194" d="M300 300h100v100H300z"/><path fill="#c3abb3" d="M400 300h100v100H400z"/><path fill="#bd96a4" d="M500 300h100v100H500z"/><path fill="#d4a2a0" d="M600 300h100v100H600z"/><path fill="#d497a5" d="M700 300h100v100H700z"/><path fill="#b3a7a3" d="M0 400h100v100H0z"/><path fill="#bbaaaf" d="M100 400h100v100H100z"/><path fill="#caa5b4" d="M200 400h100v100H200z"/><path fill="#a3a387" d="M300 400h100v100H300z"/><path fill="#b4bf8e" d="M400 400h100v100H400z"/><path fill="#b3b16e" d="M500 400h100v100H500z"/><path fill="#b3b080" d="M600 400h100v100H600z"/><path fill="#a09297" d="M700 400h100v100H700z"/></svg>