<svg xmlns="http://www.w3.org/2000/svg" viewBox="0 0 800 600"><defs/><path fill="#dfe0de" d="M0 0h100v100H0z"/><path fill="#d7d7d5" d="M100 0h100v100H100z"/><path fill="#d1d3d4" d="M200 0h100v100H200z"/><path fill="#ced0d1" d="M300 0h100v100H300z"/><path fill="#d6d8d7" d="M400 0h100v100H400z"/><path fill="#d8dddb" d="M500 0h100v100H500z"/><path fill="#d5e0da" d="M600 0h100v100H600z"/><path fill="#eaeef2" d="M700 0h100v100H700z"/><path fill="#616568" d="M0 100h100v100H0z"/><path fill="#222221" d="M100 100h100v100H100z"/><path fill="#3a3f31" d="M200 100h100v100H200z"/><path fill="#6e736a" d="M300 100h100v100H300z"/><path fill="#6d7c88" d="M400 100h100v100H400z"/><path fill="#93a189" d="M500 100h100v100H500z"/><path fill="#c8d095" d="M600 100h100v100H600z"/><path fill="#a9b0a6" d="M700 100h100v100H700z"/><path fill="#606062" d="M0 200h100v100H0z"/><path fill="#212227" d="M100 200h100v100H100z"/><path fill="#807c5e" d="M200 200h100v100H200z"/><path fill="#bea483" d="M300 200h100v100H300z"/><path fill="#6f6160" d="M400 200h100v100H400z"/><path fill="#b6af80" d="M500 200h100v100H500z"/><path fill="#f7f3ad" d="M600 200h100v100H600z"/><path fill="#979d90" d="M700 200h100v100H700z"/><path fill="#6c6a73" d="M0 300h100v100H0z"/><path fill="#3a3a36" d="M100 300h100v100H100z"/><path fill="#696144" d="M200 300h100v100H200z"/><path fill="#986548" d="M300 300h100v100H300z"/><path fill="#c1785e" d="M400 300h100v100H400z"/><path fill="#bfa46c" d="M500 300h100v100H500z"/><path fill="#beb57d" d="M600 300h100v100H600z"/><path fill="#8f8e8c" d="M700 300h100v100H700z"/><path fill="#69646d" d="M0 400h100v100H0z"/><path fill="#573b2b" d="M100 400h100v100H100z"/><path fill="#5e5636" d="M200 400h100v100H200z"/><path fill="#4f3a31" d="M300 400h100v100H300z"/><path fill="#977a79" d="M400 400h100v100H400z"/><path fill="#d4cac8" d="M500 400h100v100H500z"/><path fill="#c28f5f" d="M600 400h100v100H600z"/><path fill="#8e674c" d="M700 400h100v100H700z"/><path fill="#c6bbb7" d="M0 500h100v100H0z"/><path fill="#c5b1ac" d="M100 500h100v100H100z"/><path fill="#cebfb8" d="M200 500h100v100H200z"/><path fill="#cdbebc" d="M300 500h100v100H300z"/><path fill="#ddcfd2" d="M400 500h100v100H400z"/><path fill="#e4d8d6" d="M500 500h100v100H500z"/><path fill="#e5d3c5" d="M600 500h100v100H600z"/><path fill="#ccb6a8" d="M700 500h100v100H700z"/></svg>