<svg xmlns="http://www.w3.org/2000/svg" viewBox="0 0 800 400"><defs/><path fill="#a15565" d="M0 0h100v100H0z"/><path fill="#84595a" d="M100 0h100v100H100z"/><path fill="#907a6e" d="M200 0h100v100H200z"/><path fill="#a48c7f" d="M300 0h100v100H300z"/><path fill="#ab9586" d="M400 0h100v100H400z"/><path fill="#a69182" d="M500 0h100v100H500z"/><path fill="#8e766e" d="M600 0h100v100H600z"/><path fill="#95867f" d="M700 0h100v100H700z"/><path fill="#a46167" d="M0 100h100v100H0z"/><path fill="#805151" d="M100 100h100v100H100z"/><path fill="#8b5f53" d="M200 100h100v100H200z"/><path fill="#b58f79" d="M300 100h100v100H300z"/><path fill="#ccb49c" d="M400 100h100v100H400z"/><path fill="#a48378" d="M500 100h100v100H500z"/><path fill="#786763" d="M600 100h100v100H600z"/><path fill="#9e9a90" d="M700 100h100v100H700z"/><path fill="#915a5e" d="M0 200h100v100H0z"/><path fill="#825958" d="M100 200h100v100H100z"/><path fill="#9d7d71" d="M200 200h100v100H200z"/><path fill="#b69276" d="M300 200h100v100H300z"/><path fill="#bea17e" d="M400 200h100v100H400z"/><path fill="#af846a" d="M500 200h100v100H500z"/><path fill="#685857" d="M600 200h100v100H600z"/><path fill="#867f73" d="M700 200h100v100H700z"/><path fill="#805154" d="M0 300h100v100H0z"/><path fill="#825f55" d="M100 300h100v100H100z"/><path fill="#a6afaf" d="M200 300h100v100H200z"/><path fill="#aebcb5" d="M300 300h100v100H300z"/><path fill="#a3a9a1" d="M400 300h100v100H400z"/><path fill="#9e826e" d="M500 300h100v100H500z"/><path fill="#916c52" d="M600 300h100v100H600z"/><path fill="#836f58" d="M700 300h100v100H700z"/></svg>