<svg xmlns="http://www.w3.org/2000/svg" viewBox="0 0 800 500"><defs/><path fill="#bec7d0" d="M0 0h100v100H0z"/><path fill="#9eabb9" d="M100 0h100v100H100z"/><path fill="#afb8c6" d="M200 0h100v100H200z"/><path fill="#93969b" d="M300 0h100v100H300z"/><path fill="#b8c0c6" d="M400 0h100v100H400z"/><path fill="#ccd0d3" d="M500 0h100v100H500z"/><path fill="#c3cace" d="M600 0h100v100H600z"/><path fill="#bdbec2" d="M700 0h100v100H700z"/><path fill="#a0b2c4" d="M0 100h100v100H0z"/><path fill="#778da4" d="M100 100h100v100H100z"/><path fill="#828fa2" d="M200 100h100v100H200z"/><path fill="#545c67" d="M300 100h100v100H300z"/><path fill="#82919d" d="M400 100h100v100H400z"/><path fill="#9ea9b0" d="M500 100h100v100H500z"/><path fill="#99a4ac" d="M600 100h100v100H600z"/><path fill="#878c94" d="M700 100h100v100H700z"/><path fill="#a5b1c0" d="M0 200h100v100H0z"/><path fill="#808e9e" d="M100 200h100v100H100z"/><path fill="#828a90" d="M200 200h100v100H200z"/><path fill="#7a8188" d="M300 200h100v100H300z"/><path fill="#9099a2" d="M400 200h100v100H400z"/><path fill="#929ea7" d="M500 200h100v100H500z"/><path fill="#98a0a7" d="M600 200h100v100H600z"/><path fill="#8b9198" d="M700 200h100v100H700z"/><path fill="#9ba5b2" d="M0 300h100v100H0z"/><path fill="#6e7a88" d="M100 300h100v100H100z"/><path fill="#808a91" d="M200 300h100v100H200z"/><path fill="#838e99" d="M300 300h100v100H300z"/><path fill="#88919a" d="M400 300h100v100H400z"/><path fill="#808891" d="M500 300h100v100H500z"/><path fill="#8a8d96" d="M600 300h100v100H600z"/><path fill="#888990" d="M700 300h100v100H700z"/><path fill="#b0b6be" d="M0 400h100v100H0z"/><path fill="#9199a3" d="M100 400h100v100H100z"/><path fill="#a8aeb4" d="M200 400h100v100H200z"/><path fill="#9299a2" d="M300 400h100v100H300z"/><path fill="#969da5" d="M400 400h100v100H400z"/><path fill="#a1a6ad" d="M500 400h100v100H500z"/><path fill="#a5a7ac" d="M600 400h100v100H600z"/><path fill="#a3a2aa" d="M700 400h100v100H700z"/></svg>