<svg xmlns="http://www.w3.org/2000/svg" viewBox="0 0 800 500"><defs/><path fill="#ddcabc" d="M0 0h100v100H0z"/><path fill="#b6aaaf" d="M100 0h100v100H100z"/><path fill="#b7aba6" d="M200 0h100v100H200z"/><path fill="#bcb6b1" d="M300 0h100v100H300z"/><path fill="#b1b2b3" d="M400 0h100v100H400z"/><path fill="#acabaf" d="M500 0h100v100H500z"/><path fill="#b7a5a3" d="M600 0h100v100H600z"/><path fill="#c8ab9a" d="M700 0h100v100H700z"/><path fill="#d1c3be" d="M0 100h100v100H0z"/><path fill="#aca3b0" d="M100 100h100v100H100z"/><path fill="#88829c" d="M200 100h100v100H200z"/><path fill="#8c7584" d="M300 100h100v100H300z"/><path fill="#949796" d="M400 100h100v100H400z"/><path fill="#a7afb1" d="M500 100h100v100H500z"/><path fill="#b8a39f" d="M600 100h100v100H600z"/><path fill="#af7056" d="M700 100h100v100H700z"/><path fill="#beb5bb" d="M0 200h100v100H0z"/><path fill="#968aa1" d="M100 200h100v100H100z"/><path fill="#887c84" d="M200 200h100v100H200z"/><path fill="#858796" d="M300 200h100v100H300z"/><path fill="#9387a8" d="M400 200h100v100H400z"/><path fill="#a55b96" d="M500 200h100v100H500z"/><path fill="#bcaab3" d="M600 200h100v100H600z"/><path fill="#b99e8d" d="M700 200h100v100H700z"/><path fill="#bdb5b4" d="M0 300h100v100H0z"/><path fill="#90899f" d="M100 300h100v100H100z"/><path fill="#7a6f9a" d="M200 300h100v100H200z"/><path fill="#9194a3" d="M300 300h100v100H300z"/><path fill="#9a889b" d="M400 300h100v100H400z"/><path fill="#9b5395" d="M500 300h100v100H500z"/><path fill="#a49aa4" d="M600 300h100v100H600z"/><path fill="#bbbab7" d="M700 300h100v100H700z"/><path fill="#bab1ad" d="M0 400h100v100H0z"/><path fill="#8c829b" d="M100 400h100v100H100z"/><path fill="#5b4892" d="M200 400h100v100H200z"/><path fill="#a9a6ad" d="M300 400h100v100H300z"/><path fill="#b8b7af" d="M400 400h100v100H400z"/><path fill="#a8b6b2" d="M500 400h100v100H500z"/><path fill="#9aa2a3" d="M600 400h100v100H600z"/><path fill="#b2adaf" d="M700 400h100v100H700z"/></svg>