<svg xmlns="http://www.w3.org/2000/svg" viewBox="0 0 800 500"><defs/><path fill="#fbfbfb" d="M0 0h100v100H0z"/><path fill="#f7f7f5" d="M100 0h100v100H100z"/><path fill="#f7f9f2" d="M200 0h100v100H200z"/><path fill="#f8f9f6" d="M300 0h100v100H300z"/><path fill="#ebecee" d="M400 0h100v100H400z"/><path fill="#f2f3f4" d="M500 0h100v100H500z"/><path fill="#fffefe" d="M600 0h100v100H600z"/><path fill="#fff" d="M700 0h100v100H700z"/><path fill="#f5f5f5" d="M0 100h100v100H0z"/><path fill="#e9eae9" d="M100 100h100v100H100z"/><path fill="#e7dfd0" d="M200 100h100v100H200z"/><path fill="#fdfdf8" d="M300 100h100v100H300z"/><path fill="#958d8e" d="M400 100h100v100H400z"/><path fill="#cfd0d2" d="M500 100h100v100H500z"/><path fill="#fff" d="M600 100h100v100H600z"/><path fill="#fdfdfd" d="M700 100h100v100H700z"/><path fill="#eeeced" d="M0 200h100v100H0z"/><path fill="#dbdcdc" d="M100 200h100v100H100z"/><path fill="#d0b5a5" d="M200 200h100v100H200z"/><path fill="#d3d6c9" d="M300 200h100v100H300z"/><path fill="#ab9c8a" d="M400 200h100v100H400z"/><path fill="#bab1af" d="M500 200h100v100H500z"/><path fill="#fcfbfd" d="M600 200h100v100H600z"/><path fill="#fff" d="M700 200h100v100H700z"/><path fill="#eeeff0" d="M0 300h100v100H0z"/><path fill="#dacac6" d="M100 300h100v100H100z"/><path fill="#bf9f8b" d="M200 300h100v100H200z"/><path fill="#b3947f" d="M300 300h100v100H300z"/><path fill="#cbafa0" d="M400 300h100v100H400z"/><path fill="#a1ab89" d="M500 300h100v100H500z"/><path fill="#e2e8dd" d="M600 300h100v100H600z"/><path fill="#fff" d="M700 300h100v100H700z"/><path fill="#f7f8f8" d="M0 400h100v100H0z"/><path fill="#f3ebea" d="M100 400h100v100H100z"/><path fill="#eaddda" d="M200 400h100v100H200z"/><path fill="#eddfdd" d="M300 400h100v100H300z"/><path fill="#fffbfd" d="M400 400h100v100H400z"/><path fill="#ebf7e9" d="M500 400h100v100H500z"/><path fill="#f1f6f0" d="M600 400h100v100H600z"/><path fill="#fff" d="M700 400h100v100H700z"/></svg>