<svg xmlns="http://www.w3.org/2000/svg" viewBox="0 0 800 600"><defs/><path fill="#40224b" d="M0 0h100v100H0z"/><path fill="#816653" d="M100 0h100v100H100z"/><path fill="#220e40" d="M200 0h100v100H200z"/><path fill="#9a8c97" d="M300 0h100v100H300z"/><path fill="#ffffeb" d="M400 0h100v100H400z"/><path fill="#e3d7c8" d="M500 0h100v100H500z"/><path fill="#321f56" d="M600 0h100v100H600z"/><path fill="#391c48" d="M700 0h100v100H700z"/><path fill="#3d284b" d="M0 100h100v100H0z"/><path fill="#805c5d" d="M100 100h100v100H100z"/><path fill="#391b4f" d="M200 100h100v100H200z"/><path fill="#34295e" d="M300 100h100v100H300z"/><path fill="#847a8d" d="M400 100h100v100H400z"/><path fill="#534168" d="M500 100h100v100H500z"/><path fill="#210d4e" d="M600 100h100v100H600z"/><path fill="#502d52" d="M700 100h100v100H700z"/><path fill="#4c3948" d="M0 200h100v100H0z"/><path fill="#a08772" d="M100 200h100v100H100z"/><path fill="#42245d" d="M200 200h100v100H200z"/><path fill="#291042" d="M300 200h100v100H300z"/><path fill="#482548" d="M400 200h100v100H400z"/><path fill="#1a054f" d="M500 200h100v100H500z"/><path fill="#1d0d46" d="M600 200h100v100H600z"/><path fill="#5b4166" d="M700 200h100v100H700z"/><path fill="#71564f" d="M0 300h100v100H0z"/><path fill="#786564" d="M100 300h100v100H100z"/><path fill="#4a2e57" d="M200 300h100v100H200z"/><path fill="#c9ab63" d="M300 300h100v100H300z"/><path fill="#f4cc62" d="M400 300h100v100H400z"/><path fill="#e1b069" d="M500 300h100v100H500z"/><path fill="#7c6786" d="M600 300h100v100H600z"/><path fill="#3b2464" d="M700 300h100v100H700z"/><path fill="#7a5262" d="M0 400h100v100H0z"/><path fill="#3b2767" d="M100 400h100v100H100z"/><path fill="#4e3b73" d="M200 400h100v100H200z"/><path fill="#836c63" d="M300 400h100v100H300z"/><path fill="#83655a" d="M400 400h100v100H400z"/><path fill="#906d57" d="M500 400h100v100H500z"/><path fill="#462f64" d="M600 400h100v100H600z"/><path fill="#3a1d5b" d="M700 400h100v100H700z"/><path fill="#543569" d="M0 500h100v100H0z"/><path fill="#3f235f" d="M100 500h100v100H100z"/><path fill="#3c1953" d="M200 500h100v100H200z"/><path fill="#200857" d="M300 500h100v100H300z"/><path fill="#1f085c" d="M400 500h100v100H400z"/><path fill="#1a045b" d="M500 500h100v100H500z"/><path fill="#2e1b5e" d="M600 500h100v100H600z"/><path fill="#7f6f80" d="M700 500h100v100H700z"/></svg>