<svg xmlns="http://www.w3.org/2000/svg" viewBox="0 0 800 600"><defs/><path fill="#58615d" d="M0 0h100v100H0z"/><path fill="#897f74" d="M100 0h100v100H100z"/><path fill="#a09685" d="M200 0h100v100H200z"/><path fill="#a0998a" d="M300 0h100v100H300z"/><path fill="#b1a18f" d="M400 0h100v100H400z"/><path fill="#b1a390" d="M500 0h100v100H500z"/><path fill="#a09484" d="M600 0h100v100H600z"/><path fill="#72736b" d="M700 0h100v100H700z"/><path fill="#405153" d="M0 100h100v100H0z"/><path fill="#6b6256" d="M100 100h100v100H100z"/><path fill="#868d87" d="M200 100h100v100H200z"/><path fill="#7c8f92" d="M300 100h100v100H300z"/><path fill="#9d998e" d="M400 100h100v100H400z"/><path fill="#a2988c" d="M500 100h100v100H500z"/><path fill="#958a7f" d="M600 100h100v100H600z"/><path fill="#626a64" d="M700 100h100v100H700z"/><path fill="#5e5449" d="M0 200h100v100H0z"/><path fill="#825738" d="M100 200h100v100H100z"/><path fill="#5c584e" d="M200 200h100v100H200z"/><path fill="#5f6863" d="M300 200h100v100H300z"/><path fill="#6d8087" d="M400 200h100v100H400z"/><path fill="#929189" d="M500 200h100v100H500z"/><path fill="#9b9183" d="M600 200h100v100H600z"/><path fill="#515d5f" d="M700 200h100v100H700z"/><path fill="#5c4b3c" d="M0 300h100v100H0z"/><path fill="#6d482f" d="M100 300h100v100H100z"/><path fill="#583f26" d="M200 300h100v100H200z"/><path fill="#484535" d="M300 300h100v100H300z"/><path fill="#6b4d4b" d="M400 300h100v100H400z"/><path fill="#7a706f" d="M500 300h100v100H500z"/><path fill="#715f5e" d="M600 300h100v100H600z"/><path fill="#6d5847" d="M700 300h100v100H700z"/><path fill="#885f3a" d="M0 400h100v100H0z"/><path fill="#3e3325" d="M100 400h100v100H100z"/><path fill="#392414" d="M200 400h100v100H200z"/><path fill="#6a5843" d="M300 400h100v100H300z"/><path fill="#9c8366" d="M400 400h100v100H400z"/><path fill="#353831" d="M500 400h100v100H500z"/><path fill="#6f2e27" d="M600 400h100v100H600z"/><path fill="#b25035" d="M700 400h100v100H700z"/><path fill="#a68451" d="M0 500h100v100H0z"/><path fill="#2a411e" d="M100 500h100v100H100z"/><path fill="#3a4a2a" d="M200 500h100v100H200z"/><path fill="#70623e" d="M300 500h100v100H300z"/><path fill="#927049" d="M400 500h100v100H400z"/><path fill="#3c4f28" d="M500 500h100v100H500z"/><path fill="#3e5225" d="M600 500h100v100H600z"/><path fill="#60532e" d="M700 500h100v100H700z"/></svg>