<svg xmlns="http://www.w3.org/2000/svg" viewBox="0 0 800 400"><defs/><path fill="#616566" d="M0 0h100v100H0z"/><path fill="#545757" d="M100 0h100v100H100z"/><path fill="#323232" d="M200 0h100v100H200z"/><path fill="#626465" d="M300 0h100v100H300z"/><path fill="#7c797b" d="M400 0h100v100H400z"/><path fill="#6a676a" d="M500 0h100v100H500z"/><path fill="#4c4948" d="M600 0h100v100H600z"/><path fill="#807e80" d="M700 0h100v100H700z"/><path fill="#6a6c69" d="M0 100h100v100H0z"/><path fill="#40403d" d="M100 100h100v100H100z"/><path fill="#2e2e2e" d="M200 100h100v100H200z"/><path fill="#323334" d="M300 100h100v100H300z"/><path fill="#7c7b7e" d="M400 100h100v100H400z"/><path fill="#919296" d="M500 100h100v100H500z"/><path fill="#746c68" d="M600 100h100v100H600z"/><path fill="#827e7c" d="M700 100h100v100H700z"/><path fill="#6b6c68" d="M0 200h100v100H0z"/><path fill="#50504e" d="M100 200h100v100H100z"/><path fill="#544e51" d="M200 200h100v100H200z"/><path fill="#737171" d="M300 200h100v100H300z"/><path fill="#9e9c9a" d="M400 200h100v100H400z"/><path fill="#716c6b" d="M500 200h100v100H500z"/><path fill="#4c4a45" d="M600 200h100v100H600z"/><path fill="#80817e" d="M700 200h100v100H700z"/><path fill="#71726f" d="M0 300h100v100H0z"/><path fill="#757776" d="M100 300h100v100H100z"/><path fill="#878786" d="M200 300h100v100H200z"/><path fill="#6d6862" d="M300 300h100v100H300z"/><path fill="#645d59" d="M400 300h100v100H400z"/><path fill="#554b47" d="M500 300h100v100H500z"/><path fill="#3e3a3b" d="M600 300h100v100H600z"/><path fill="#646568" d="M700 300h100v100H700z"/></svg>