<svg xmlns="http://www.w3.org/2000/svg" viewBox="0 0 800 600"><defs/><path fill="#e9e9d8" d="M0 0h100v100H0z"/><path fill="#e0dbc7" d="M100 0h100v100H100z"/><path fill="#ece9c6" d="M200 0h100v100H200z"/><path fill="#e5e1c2" d="M300 0h100v100H300z"/><path fill="#e2e0c4" d="M400 0h100v100H400z"/><path fill="#e8e9db" d="M500 0h100v100H500z"/><path fill="#ece5ca" d="M600 0h100v100H600z"/><path fill="#f0efda" d="M700 0h100v100H700z"/><path fill="#ebecda" d="M0 100h100v100H0z"/><path fill="#d2c3b2" d="M100 100h100v100H100z"/><path fill="#e5e0c5" d="M200 100h100v100H200z"/><path fill="#eae9c8" d="M300 100h100v100H300z"/><path fill="#e4e2c8" d="M400 100h100v100H400z"/><path fill="#e7e6d2" d="M500 100h100v100H500z"/><path fill="#dedfd2" d="M600 100h100v100H600z"/><path fill="#eaebdc" d="M700 100h100v100H700z"/><path fill="#ececd8" d="M0 200h100v100H0z"/><path fill="#c3ad9b" d="M100 200h100v100H100z"/><path fill="#c2c1ae" d="M200 200h100v100H200z"/><path fill="#d7d8be" d="M300 200h100v100H300z"/><path fill="#e1e4c8" d="M400 200h100v100H400z"/><path fill="#e9dcc1" d="M500 200h100v100H500z"/><path fill="#b59a86" d="M600 200h100v100H600z"/><path fill="#d7dacc" d="M700 200h100v100H700z"/><path fill="#ebead4" d="M0 300h100v100H0z"/><path fill="#ba9f85" d="M100 300h100v100H100z"/><path fill="#a4a390" d="M200 300h100v100H200z"/><path fill="#aca788" d="M300 300h100v100H300z"/><path fill="#b7a67a" d="M400 300h100v100H400z"/><path fill="#c6ba99" d="M500 300h100v100H500z"/><path fill="#99887c" d="M600 300h100v100H600z"/><path fill="#d1d1c3" d="M700 300h100v100H700z"/><path fill="#e3e1d1" d="M0 400h100v100H0z"/><path fill="#baa28f" d="M100 400h100v100H100z"/><path fill="#bb9575" d="M200 400h100v100H200z"/><path fill="#b6a381" d="M300 400h100v100H300z"/><path fill="#99795e" d="M400 400h100v100H400z"/><path fill="#a1846c" d="M500 400h100v100H500z"/><path fill="#a1998e" d="M600 400h100v100H600z"/><path fill="#d6d5c5" d="M700 400h100v100H700z"/><path fill="#e4e3d1" d="M0 500h100v100H0z"/><path fill="#ded8c2" d="M100 500h100v100H100z"/><path fill="#be9c7d" d="M200 500h100v100H200z"/><path fill="#bc9f86" d="M300 500h100v100H300z"/><path fill="#a59c82" d="M400 500h100v100H400z"/><path fill="#a2967f" d="M500 500h100v100H500z"/><path fill="#908f8d" d="M600 500h100v100H600z"/><path fill="#bebbae" d="M700 500h100v100H700z"/></svg>