<svg xmlns="http://www.w3.org/2000/svg" viewBox="0 0 800 1000"><defs/><path fill="#29282d" d="M0 0h100v100H0z"/><path fill="#3f3e43" d="M100 0h100v100H100z"/><path fill="#3d3c41" d="M200 0h100v100H200z"/><path fill="#3f3e43" d="M300 0h100v100H300z"/><path fill="#403f43" d="M400 0h100v100H400z"/><path fill="#3f3e42" d="M500 0h100v100H500z"/><path fill="#3e3d43" d="M600 0h100v100H600z"/><path fill="#212127" d="M700 0h100v100H700z"/><path fill="#302f34" d="M0 100h100v100H0z"/><path fill="#47464b" d="M100 100h100v100H100z"/><path fill="#434247" d="M200 100h100v100H200z"/><path fill="#49484d" d="M300 100h100v100H300z"/><path fill="#413f44" d="M400 100h100v100H400z"/><path fill="#44434a" d="M500 100h100v100H500z"/><path fill="#4c4946" d="M600 100h100v100H600z"/><path fill="#35302a" d="M700 100h100v100H700z"/><path fill="#2d2c31" d="M0 200h100v100H0z"/><path fill="#414145" d="M100 200h100v100H100z"/><path fill="#414045" d="M200 200h100v100H200z"/><path fill="#403f44" d="M300 200h100v100H300z"/><path fill="#3c3b3f" d="M400 200h100v100H400z"/><path fill="#3e3d42" d="M500 200h100v100H500z"/><path fill="#424044" d="M600 200h100v100H600z"/><path fill="#2a282a" d="M700 200h100v100H700z"/><path fill="#2b2a2f" d="M0 300h100v100H0z"/><path fill="#3f3f43" d="M100 300h100v100H100z"/><path fill="#3e3d42" d="M200 300h100v100H200z"/><path fill="#3d3d42" d="M300 300h100v100H300z"/><path fill="#424146" d="M400 300h100v100H400z"/><path fill="#403f44" d="M500 300h100v100H500z"/><path fill="#36353b" d="M600 300h100v100H600z"/><path fill="#201f25" d="M700 300h100v100H700z"/><path fill="#2d2c31" d="M0 400h100v100H0z"/><path fill="#47464b" d="M100 400h100v100H100z"/><path fill="#413f45" d="M200 400h100v100H200z"/><path fill="#363034" d="M300 400h100v100H300z"/><path fill="#323237" d="M400 400h100v100H400z"/><path fill="#242328" d="M500 400h100v100H500z"/><path fill="#1f1f23" d="M600 400h100v100H600z"/><path fill="#1f1e22" d="M700 400h100v100H700z"/><path fill="#2e2d32" d="M0 500h100v100H0z"/><path fill="#464247" d="M100 500h100v100H100z"/><path fill="#3a3337" d="M200 500h100v100H200z"/><path fill="#2b292d" d="M300 500h100v100H300z"/><path fill="#29292e" d="M400 500h100v100H400z"/><path fill="#2b2a2f" d="M500 500h100v100H500z"/><path fill="#313035" d="M600 500h100v100H600z"/><path fill="#26252a" d="M700 500h100v100H700z"/><path fill="#2d2d32" d="M0 600h100v100H0z"/><path fill="#454246" d="M100 600h100v100H100z"/><path fill="#3a3236" d="M200 600h100v100H200z"/><path fill="#303136" d="M300 600h100v100H300z"/><path fill="#353439" d="M400 600h100v100H400z"/><path fill="#302f34" d="M500 600h100v100H500z"/><path fill="#343337" d="M600 600h100v100H600z"/><path fill="#252429" d="M700 600h100v100H700z"/><path fill="#2d2b30" d="M0 700h100v100H0z"/><path fill="#424246" d="M100 700h100v100H100z"/><path fill="#3d3d43" d="M200 700h100v100H200z"/><path fill="#434247" d="M300 700h100v100H300z"/><path fill="#404044" d="M400 700h100v100H400z"/><path fill="#403f44" d="M500 700h100v100H500z"/><path fill="#454449" d="M600 700h100v100H600z"/><path fill="#2e2e32" d="M700 700h100v100H700z"/><path fill="#2e2d32" d="M0 800h100v100H0z"/><path fill="#403f44" d="M100 800h100v100H100z"/><path fill="#3e3d42" d="M200 800h100v100H200z"/><path fill="#3d3c41" d="M300 800h100v100H300z"/><path fill="#3b3a3f" d="M400 800h100v100H400z"/><path fill="#46444a" d="M500 800h100v100H500z"/><path fill="#323135" d="M600 800h100v100H600z"/><path fill="#201f24" d="M700 800h100v100H700z"/><path fill="#2e2d32" d="M0 900h100v100H0z"/><path fill="#48474c" d="M100 900h100v100H100z"/><path fill="#404045" d="M200 900h100v100H200z"/><path fill="#3c3b40" d="M300 900h100v100H300z"/><path fill="#444347" d="M400 900h100v100H400z"/><path fill="#3c3b40" d="M500 900h100v100H500z"/><path fill="#212025" d="M600 900h100v100H600z"/><path fill="#1a191e" d="M700 900h100v100H700z"/></svg>