<svg xmlns="http://www.w3.org/2000/svg" viewBox="0 0 800 400"><defs/><path fill="#c4baa6" d="M0 0h100v100H0z"/><path fill="#a89e8e" d="M100 0h100v100H100z"/><path fill="#d6c9bc" d="M200 0h100v100H200z"/><path fill="#d5c8b4" d="M300 0h100v100H300z"/><path fill="#d7c9b7" d="M400 0h100v100H400z"/><path fill="#cbbaa2" d="M500 0h100v100H500z"/><path fill="#c9b293" d="M600 0h100v100H600z"/><path fill="#d2bea5" d="M700 0h100v100H700z"/><path fill="#b1a78a" d="M0 100h100v100H0z"/><path fill="#9e9480" d="M100 100h100v100H100z"/><path fill="#a19f8a" d="M200 100h100v100H200z"/><path fill="#929184" d="M300 100h100v100H300z"/><path fill="#a5a697" d="M400 100h100v100H400z"/><path fill="#969984" d="M500 100h100v100H500z"/><path fill="#b0a282" d="M600 100h100v100H600z"/><path fill="#c8b19d" d="M700 100h100v100H700z"/><path fill="#b1a596" d="M0 200h100v100H0z"/><path fill="#90958b" d="M100 200h100v100H100z"/><path fill="#989b80" d="M200 200h100v100H200z"/><path fill="#ae9e8a" d="M300 200h100v100H300z"/><path fill="#ada092" d="M400 200h100v100H400z"/><path fill="#b5a885" d="M500 200h100v100H500z"/><path fill="#c6aa7f" d="M600 200h100v100H600z"/><path fill="#ba9989" d="M700 200h100v100H700z"/><path fill="#9b9486" d="M0 300h100v100H0z"/><path fill="#9b9892" d="M100 300h100v100H100z"/><path fill="#b69f93" d="M200 300h100v100H200z"/><path fill="#a69891" d="M300 300h100v100H300z"/><path fill="#ab9d97" d="M400 300h100v100H400z"/><path fill="#cdb898" d="M500 300h100v100H500z"/><path fill="#b9a67c" d="M600 300h100v100H600z"/><path fill="#a4978b" d="M700 300h100v100H700z"/></svg>