<svg xmlns="http://www.w3.org/2000/svg" viewBox="0 0 800 400"><defs/><path fill="#d6c4b5" d="M0 0h100v100H0z"/><path fill="#c1a796" d="M100 0h100v100H100z"/><path fill="#d0c0b2" d="M200 0h100v100H200z"/><path fill="#d7b7a3" d="M300 0h100v100H300z"/><path fill="#d2b099" d="M400 0h100v100H400z"/><path fill="#d1b9a9" d="M500 0h100v100H500z"/><path fill="#c0b7ad" d="M600 0h100v100H600z"/><path fill="#baaea2" d="M700 0h100v100H700z"/><path fill="#dbc4b4" d="M0 100h100v100H0z"/><path fill="#b3a090" d="M100 100h100v100H100z"/><path fill="#aaa898" d="M200 100h100v100H200z"/><path fill="#e3d3c0" d="M300 100h100v100H300z"/><path fill="#e1c8b9" d="M400 100h100v100H400z"/><path fill="#d8c3b6" d="M500 100h100v100H500z"/><path fill="#99a8ac" d="M600 100h100v100H600z"/><path fill="#beb8b2" d="M700 100h100v100H700z"/><path fill="#c3b3a8" d="M0 200h100v100H0z"/><path fill="#a99487" d="M100 200h100v100H100z"/><path fill="#958576" d="M200 200h100v100H200z"/><path fill="#beac9d" d="M300 200h100v100H300z"/><path fill="#c8b4ab" d="M400 200h100v100H400z"/><path fill="#bdaba6" d="M500 200h100v100H500z"/><path fill="#adb1b0" d="M600 200h100v100H600z"/><path fill="#d2cac5" d="M700 200h100v100H700z"/><path fill="#cfb7ac" d="M0 300h100v100H0z"/><path fill="#ccbfb5" d="M100 300h100v100H100z"/><path fill="#cfb8ac" d="M200 300h100v100H200z"/><path fill="#cab3a7" d="M300 300h100v100H300z"/><path fill="#c6b9b3" d="M400 300h100v100H400z"/><path fill="#ba96aa" d="M500 300h100v100H500z"/><path fill="#c7adb4" d="M600 300h100v100H600z"/><path fill="#cec6be" d="M700 300h100v100H700z"/></svg>