<svg xmlns="http://www.w3.org/2000/svg" viewBox="0 0 800 600"><defs/><path fill="#9ca5aa" d="M0 0h100v100H0z"/><path fill="#aeb3b8" d="M100 0h100v100H100z"/><path fill="#b3b6b8" d="M200 0h100v100H200z"/><path fill="#c1bebb" d="M300 0h100v100H300z"/><path fill="#cbc4bc" d="M400 0h100v100H400z"/><path fill="#c1b9b0" d="M500 0h100v100H500z"/><path fill="#a49f99" d="M600 0h100v100H600z"/><path fill="#847f7d" d="M700 0h100v100H700z"/><path fill="#a1a9ae" d="M0 100h100v100H0z"/><path fill="#9c9d9f" d="M100 100h100v100H100z"/><path fill="#bbb7b6" d="M200 100h100v100H200z"/><path fill="#ada8aa" d="M300 100h100v100H300z"/><path fill="#bbb4b0" d="M400 100h100v100H400z"/><path fill="#cbc3ba" d="M500 100h100v100H500z"/><path fill="#c7bbb0" d="M600 100h100v100H600z"/><path fill="#b3a89d" d="M700 100h100v100H700z"/><path fill="#b7b5b4" d="M0 200h100v100H0z"/><path fill="#b2aeaa" d="M100 200h100v100H100z"/><path fill="#bbbab8" d="M200 200h100v100H200z"/><path fill="#a2a1a6" d="M300 200h100v100H300z"/><path fill="#9b969a" d="M400 200h100v100H400z"/><path fill="#a59d97" d="M500 200h100v100H500z"/><path fill="#a39888" d="M600 200h100v100H600z"/><path fill="#c6b6a5" d="M700 200h100v100H700z"/><path fill="#b9b6b4" d="M0 300h100v100H0z"/><path fill="#888281" d="M100 300h100v100H100z"/><path fill="#7b7578" d="M200 300h100v100H200z"/><path fill="#746663" d="M300 300h100v100H300z"/><path fill="#7a6e67" d="M400 300h100v100H400z"/><path fill="#62606c" d="M500 300h100v100H500z"/><path fill="#5a5466" d="M600 300h100v100H600z"/><path fill="#c4b3a1" d="M700 300h100v100H700z"/><path fill="#bebebe" d="M0 400h100v100H0z"/><path fill="#a4a0a2" d="M100 400h100v100H100z"/><path fill="#918d92" d="M200 400h100v100H200z"/><path fill="#969497" d="M300 400h100v100H300z"/><path fill="#8e8481" d="M400 400h100v100H400z"/><path fill="#756b71" d="M500 400h100v100H500z"/><path fill="#7d7885" d="M600 400h100v100H600z"/><path fill="#bbaea1" d="M700 400h100v100H700z"/><path fill="#9e9c9c" d="M0 500h100v100H0z"/><path fill="#99989a" d="M100 500h100v100H100z"/><path fill="#98989a" d="M200 500h100v100H200z"/><path fill="#9a9c9c" d="M300 500h100v100H300z"/><path fill="#929295" d="M400 500h100v100H400z"/><path fill="#989594" d="M500 500h100v100H500z"/><path fill="#99928c" d="M600 500h100v100H600z"/><path fill="#948a84" d="M700 500h100v100H700z"/></svg>