<svg xmlns="http://www.w3.org/2000/svg" viewBox="0 0 800 400"><defs/><path fill="#96c2d3" d="M0 0h100v100H0z"/><path fill="#878569" d="M100 0h100v100H100z"/><path fill="#536875" d="M200 0h100v100H200z"/><path fill="#506f7c" d="M300 0h100v100H300z"/><path fill="#486f80" d="M400 0h100v100H400z"/><path fill="#5a7b88" d="M500 0h100v100H500z"/><path fill="#6c838d" d="M600 0h100v100H600z"/><path fill="#556871" d="M700 0h100v100H700z"/><path fill="#91b1b5" d="M0 100h100v100H0z"/><path fill="#8b7d61" d="M100 100h100v100H100z"/><path fill="#737e8d" d="M200 100h100v100H200z"/><path fill="#6c7d87" d="M300 100h100v100H300z"/><path fill="#78838a" d="M400 100h100v100H400z"/><path fill="#818a91" d="M500 100h100v100H500z"/><path fill="#6f8283" d="M600 100h100v100H600z"/><path fill="#626768" d="M700 100h100v100H700z"/><path fill="#827160" d="M0 200h100v100H0z"/><path fill="#887555" d="M100 200h100v100H100z"/><path fill="#8c8883" d="M200 200h100v100H200z"/><path fill="#92948d" d="M300 200h100v100H300z"/><path fill="#a99f99" d="M400 200h100v100H400z"/><path fill="#8f928f" d="M500 200h100v100H500z"/><path fill="#828d89" d="M600 200h100v100H600z"/><path fill="#6a7071" d="M700 200h100v100H700z"/><path fill="#7b674d" d="M0 300h100v100H0z"/><path fill="#75825b" d="M100 300h100v100H100z"/><path fill="#87856e" d="M200 300h100v100H200z"/><path fill="#b9b3a1" d="M300 300h100v100H300z"/><path fill="#cfcebd" d="M400 300h100v100H400z"/><path fill="#bcb79e" d="M500 300h100v100H500z"/><path fill="#988d7a" d="M600 300h100v100H600z"/><path fill="#877b73" d="M700 300h100v100H700z"/></svg>