<svg xmlns="http://www.w3.org/2000/svg" viewBox="0 0 800 400"><defs/><path fill="#1b405d" d="M0 0h100v100H0z"/><path fill="#293e4c" d="M100 0h100v100H100z"/><path fill="#7d817c" d="M200 0h100v100H200z"/><path fill="#969478" d="M300 0h100v100H300z"/><path fill="#aaad65" d="M400 0h100v100H400z"/><path fill="#afb761" d="M500 0h100v100H500z"/><path fill="#aeb781" d="M600 0h100v100H600z"/><path fill="#c6d2c2" d="M700 0h100v100H700z"/><path fill="#2d4962" d="M0 100h100v100H0z"/><path fill="#374b55" d="M100 100h100v100H100z"/><path fill="#767d72" d="M200 100h100v100H200z"/><path fill="#7d7350" d="M300 100h100v100H300z"/><path fill="#afa15c" d="M400 100h100v100H400z"/><path fill="#9ba14f" d="M500 100h100v100H500z"/><path fill="#899e66" d="M600 100h100v100H600z"/><path fill="#c8cfc0" d="M700 100h100v100H700z"/><path fill="#163653" d="M0 200h100v100H0z"/><path fill="#363937" d="M100 200h100v100H100z"/><path fill="#514a42" d="M200 200h100v100H200z"/><path fill="#79684e" d="M300 200h100v100H300z"/><path fill="#a7a36b" d="M400 200h100v100H400z"/><path fill="#9d8a4b" d="M500 200h100v100H500z"/><path fill="#6f632c" d="M600 200h100v100H600z"/><path fill="#aeb781" d="M700 200h100v100H700z"/><path fill="#253443" d="M0 300h100v100H0z"/><path fill="#433d3c" d="M100 300h100v100H100z"/><path fill="#43382f" d="M200 300h100v100H200z"/><path fill="#4a3b27" d="M300 300h100v100H300z"/><path fill="#4e3c22" d="M400 300h100v100H400z"/><path fill="#836e39" d="M500 300h100v100H500z"/><path fill="#724919" d="M600 300h100v100H600z"/><path fill="#86773c" d="M700 300h100v100H700z"/></svg>