<svg xmlns="http://www.w3.org/2000/svg" viewBox="0 0 800 600"><defs/><path fill="#f8f7f7" d="M0 0h100v100H0z"/><path fill="#ece7e8" d="M100 0h100v100H100z"/><path fill="#f5f4f4" d="M200 0h100v100H200z"/><path fill="#f7f6f6" d="M300 0h100v100H300z"/><path fill="#f9f8f8" d="M400 0h100v100H400z"/><path fill="#f9f8f9" d="M500 0h100v100H500z"/><path fill="#f9f7f9" d="M600 0h100v100H600z"/><path fill="#f9f9f9" d="M700 0h100v100H700z"/><path fill="#eae4e6" d="M0 100h100v100H0z"/><path fill="#ae969d" d="M100 100h100v100H100z"/><path fill="#e4dfe2" d="M200 100h100v100H200z"/><path fill="#e7e5e6" d="M300 100h100v100H300z"/><path fill="#e5e1e2" d="M400 100h100v100H400z"/><path fill="#dddada" d="M500 100h100v100H500z"/><path fill="#dbd8d9" d="M600 100h100v100H600z"/><path fill="#d5cdce" d="M700 100h100v100H700z"/><path fill="#dbcfd3" d="M0 200h100v100H0z"/><path fill="#bca8ae" d="M100 200h100v100H100z"/><path fill="#f0e8eb" d="M200 200h100v100H200z"/><path fill="#eae1e3" d="M300 200h100v100H300z"/><path fill="#f8f8fa" d="M400 200h100v100H400z"/><path fill="#cec6c7" d="M500 200h100v100H500z"/><path fill="#a89292" d="M600 200h100v100H600z"/><path fill="#b1a4a2" d="M700 200h100v100H700z"/><path fill="#cabcc1" d="M0 300h100v100H0z"/><path fill="#b3989c" d="M100 300h100v100H100z"/><path fill="#bda4a7" d="M200 300h100v100H200z"/><path fill="#bba1a4" d="M300 300h100v100H300z"/><path fill="#ecd2ce" d="M400 300h100v100H400z"/><path fill="#c2a9ab" d="M500 300h100v100H500z"/><path fill="#ab8a91" d="M600 300h100v100H600z"/><path fill="#b8a7a3" d="M700 300h100v100H700z"/><path fill="#c0abae" d="M0 400h100v100H0z"/><path fill="#ce9c94" d="M100 400h100v100H100z"/><path fill="#cda39b" d="M200 400h100v100H200z"/><path fill="#c59d97" d="M300 400h100v100H300z"/><path fill="#dfa49b" d="M400 400h100v100H400z"/><path fill="#d9a299" d="M500 400h100v100H500z"/><path fill="#c8968a" d="M600 400h100v100H600z"/><path fill="#dab5a9" d="M700 400h100v100H700z"/><path fill="#f4ebe9" d="M0 500h100v100H0z"/><path fill="#faece8" d="M100 500h100v100H100z"/><path fill="#faebe6" d="M200 500h100v100H200z"/><path fill="#f8eae5" d="M300 500h100v100H300z"/><path fill="#fbede9" d="M400 500h100v100H400z"/><path fill="#fdeeea" d="M500 500h100v100H500z"/><path fill="#fcebe7" d="M600 500h100v100H600z"/><path fill="#f5e9e6" d="M700 500h100v100H700z"/></svg>