<svg xmlns="http://www.w3.org/2000/svg" viewBox="0 0 800 400"><defs/><path fill="#5d6766" d="M0 0h100v100H0z"/><path fill="#565143" d="M100 0h100v100H100z"/><path fill="#ca8a5a" d="M200 0h100v100H200z"/><path fill="#c08d59" d="M300 0h100v100H300z"/><path fill="#dd9563" d="M400 0h100v100H400z"/><path fill="#be855a" d="M500 0h100v100H500z"/><path fill="#bd785a" d="M600 0h100v100H600z"/><path fill="#73625d" d="M700 0h100v100H700z"/><path fill="#4b514f" d="M0 100h100v100H0z"/><path fill="#443f2d" d="M100 100h100v100H100z"/><path fill="#77654d" d="M200 100h100v100H200z"/><path fill="#827451" d="M300 100h100v100H300z"/><path fill="#a78d67" d="M400 100h100v100H400z"/><path fill="#847250" d="M500 100h100v100H500z"/><path fill="#5d5a2f" d="M600 100h100v100H600z"/><path fill="#3c4331" d="M700 100h100v100H700z"/><path fill="#464b47" d="M0 200h100v100H0z"/><path fill="#3c3c22" d="M100 200h100v100H100z"/><path fill="#7f654a" d="M200 200h100v100H200z"/><path fill="#653c2d" d="M300 200h100v100H300z"/><path fill="#3c1517" d="M400 200h100v100H400z"/><path fill="#633a2f" d="M500 200h100v100H500z"/><path fill="#524b2b" d="M600 200h100v100H600z"/><path fill="#3b3f31" d="M700 200h100v100H700z"/><path fill="#595d57" d="M0 300h100v100H0z"/><path fill="#474638" d="M100 300h100v100H100z"/><path fill="#998053" d="M200 300h100v100H200z"/><path fill="#705837" d="M300 300h100v100H300z"/><path fill="#473927" d="M400 300h100v100H400z"/><path fill="#665235" d="M500 300h100v100H500z"/><path fill="#66583e" d="M600 300h100v100H600z"/><path fill="#4d4d47" d="M700 300h100v100H700z"/></svg>