<svg xmlns="http://www.w3.org/2000/svg" viewBox="0 0 800 500"><defs/><path fill="#e8e0ca" d="M0 0h100v100H0z"/><path fill="#d4bd99" d="M100 0h100v100H100z"/><path fill="#bf9c76" d="M200 0h100v100H200z"/><path fill="#dccdbd" d="M300 0h100v100H300z"/><path fill="#d7c9b3" d="M400 0h100v100H400z"/><path fill="#e8d8c4" d="M500 0h100v100H500z"/><path fill="#e3d2bf" d="M600 0h100v100H600z"/><path fill="#d3c5b1" d="M700 0h100v100H700z"/><path fill="#ccba8a" d="M0 100h100v100H0z"/><path fill="#b88f53" d="M100 100h100v100H100z"/><path fill="#ae8d63" d="M200 100h100v100H200z"/><path fill="#b0925f" d="M300 100h100v100H300z"/><path fill="#a47a31" d="M400 100h100v100H400z"/><path fill="#caa683" d="M500 100h100v100H500z"/><path fill="#a09366" d="M600 100h100v100H600z"/><path fill="#988862" d="M700 100h100v100H700z"/><path fill="#cfc2a2" d="M0 200h100v100H0z"/><path fill="#b89056" d="M100 200h100v100H100z"/><path fill="#cdb391" d="M200 200h100v100H200z"/><path fill="#b68f4c" d="M300 200h100v100H300z"/><path fill="#bf8f32" d="M400 200h100v100H400z"/><path fill="#ab874c" d="M500 200h100v100H500z"/><path fill="#978960" d="M600 200h100v100H600z"/><path fill="#ae9b78" d="M700 200h100v100H700z"/><path fill="#c1a584" d="M0 300h100v100H0z"/><path fill="#a57744" d="M100 300h100v100H100z"/><path fill="#90805d" d="M200 300h100v100H200z"/><path fill="#837859" d="M300 300h100v100H300z"/><path fill="#9f7634" d="M400 300h100v100H400z"/><path fill="#9b7a40" d="M500 300h100v100H500z"/><path fill="#8b744f" d="M600 300h100v100H600z"/><path fill="#a98d5e" d="M700 300h100v100H700z"/><path fill="#cfbfa5" d="M0 400h100v100H0z"/><path fill="#b9a17d" d="M100 400h100v100H100z"/><path fill="#b7a88c" d="M200 400h100v100H200z"/><path fill="#b3a88e" d="M300 400h100v100H300z"/><path fill="#c5b9a3" d="M400 400h100v100H400z"/><path fill="#b4ac99" d="M500 400h100v100H500z"/><path fill="#a19c84" d="M600 400h100v100H600z"/><path fill="#c2ae80" d="M700 400h100v100H700z"/></svg>