<svg xmlns="http://www.w3.org/2000/svg" viewBox="0 0 800 800"><defs/><path fill="#fff" d="M0 0h100v100H0zm100 0h100v100H100zm100 0h100v100H200zm100 0h100v100H300zm100 0h100v100H400zm100 0h100v100H500zm100 0h100v100H600zm100 0h100v100H700z"/><path fill="#e6e5ec" d="M0 100h100v100H0z"/><path fill="#e7e4ec" d="M100 100h100v100H100z"/><path fill="#e6e6ef" d="M200 100h100v100H200z"/><path fill="#efeef6" d="M300 100h100v100H300z"/><path fill="#f2f1f7" d="M400 100h100v100H400z"/><path fill="#eae8f1" d="M500 100h100v100H500z"/><path fill="#eeebf4" d="M600 100h100v100H600z"/><path fill="#edeaf0" d="M700 100h100v100H700z"/><path fill="#382e5c" d="M0 200h100v100H0z"/><path fill="#2d2c66" d="M100 200h100v100H100z"/><path fill="#473774" d="M200 200h100v100H200z"/><path fill="#655f8d" d="M300 200h100v100H300z"/><path fill="#8682a6" d="M400 200h100v100H400z"/><path fill="#403d80" d="M500 200h100v100H500z"/><path fill="#3c3876" d="M600 200h100v100H600z"/><path fill="#383976" d="M700 200h100v100H700z"/><path fill="#291945" d="M0 300h100v100H0z"/><path fill="#211b51" d="M100 300h100v100H100z"/><path fill="#6b3a62" d="M200 300h100v100H200z"/><path fill="#6e405e" d="M300 300h100v100H300z"/><path fill="#7c4960" d="M400 300h100v100H400z"/><path fill="#3d3673" d="M500 300h100v100H500z"/><path fill="#2b275f" d="M600 300h100v100H600z"/><path fill="#3b336f" d="M700 300h100v100H700z"/><path fill="#3a2a53" d="M0 400h100v100H0z"/><path fill="#52325b" d="M100 400h100v100H100z"/><path fill="#6d3555" d="M200 400h100v100H200z"/><path fill="#c87669" d="M300 400h100v100H300z"/><path fill="#ad666a" d="M400 400h100v100H400z"/><path fill="#5d4f85" d="M500 400h100v100H500z"/><path fill="#6e567c" d="M600 400h100v100H600z"/><path fill="#bc786f" d="M700 400h100v100H700z"/><path fill="#1f1545" d="M0 500h100v100H0z"/><path fill="#411e41" d="M100 500h100v100H100z"/><path fill="#582c52" d="M200 500h100v100H200z"/><path fill="#432155" d="M300 500h100v100H300z"/><path fill="#5c2e59" d="M400 500h100v100H400z"/><path fill="#412f6a" d="M500 500h100v100H500z"/><path fill="#643f65" d="M600 500h100v100H600z"/><path fill="#764661" d="M700 500h100v100H700z"/><path fill="#c2bccb" d="M0 600h100v100H0z"/><path fill="#bab8c7" d="M100 600h100v100H100z"/><path fill="#cfc4d2" d="M200 600h100v100H200z"/><path fill="#ccc6d7" d="M300 600h100v100H300z"/><path fill="#c8c2d4" d="M400 600h100v100H400z"/><path fill="#c4bfd0" d="M500 600h100v100H500z"/><path fill="#c1bed0" d="M600 600h100v100H600z"/><path fill="#bcbdd3" d="M700 600h100v100H700z"/><path fill="#fff" d="M0 700h100v100H0zm100 0h100v100H100zm100 0h100v100H200zm100 0h100v100H300zm100 0h100v100H400zm100 0h100v100H500zm100 0h100v100H600zm100 0h100v100H700z"/></svg>