<svg xmlns="http://www.w3.org/2000/svg" viewBox="0 0 800 500"><defs/><path fill="#c6c7cd" d="M0 0h100v100H0z"/><path fill="#babbc3" d="M100 0h100v100H100z"/><path fill="#9395a1" d="M200 0h100v100H200z"/><path fill="#90939f" d="M300 0h100v100H300z"/><path fill="#c2c3c9" d="M400 0h100v100H400z"/><path fill="#b4b5be" d="M500 0h100v100H500z"/><path fill="#bbbcc3" d="M600 0h100v100H600z"/><path fill="#a1a3ad" d="M700 0h100v100H700z"/><path fill="#babac2" d="M0 100h100v100H0z"/><path fill="#a1a3af" d="M100 100h100v100H100z"/><path fill="#8c8e9c" d="M200 100h100v100H200z"/><path fill="#7d808e" d="M300 100h100v100H300z"/><path fill="#8b8d9a" d="M400 100h100v100H400zm100 0h100v100H500z"/><path fill="#999ba6" d="M600 100h100v100H600z"/><path fill="#9395a1" d="M700 100h100v100H700z"/><path fill="#b1b2ba" d="M0 200h100v100H0z"/><path fill="#9c9ea9" d="M100 200h100v100H100z"/><path fill="#8b8d9b" d="M200 200h100v100H200z"/><path fill="#868896" d="M300 200h100v100H300z"/><path fill="#8a8c99" d="M400 200h100v100H400z"/><path fill="#848694" d="M500 200h100v100H500z"/><path fill="#8e919d" d="M600 200h100v100H600z"/><path fill="#8d909b" d="M700 200h100v100H700z"/><path fill="#a4a6af" d="M0 300h100v100H0z"/><path fill="#9b9ca8" d="M100 300h100v100H100z"/><path fill="#7d7f8d" d="M200 300h100v100H200z"/><path fill="#7d808d" d="M300 300h100v100H300z"/><path fill="#9b9ea9" d="M400 300h100v100H400z"/><path fill="#a5a7b0" d="M500 300h100v100H500z"/><path fill="#a6a7b1" d="M600 300h100v100H600z"/><path fill="#9597a3" d="M700 300h100v100H700z"/><path fill="#b5b7be" d="M0 400h100v100H0z"/><path fill="#b3b4bd" d="M100 400h100v100H100z"/><path fill="#9fa0ac" d="M200 400h100v100H200z"/><path fill="#a0a2ac" d="M300 400h100v100H300z"/><path fill="#c1c2c9" d="M400 400h100v100H400z"/><path fill="#d0d2d6" d="M500 400h100v100H500z"/><path fill="#cacbd1" d="M600 400h100v100H600z"/><path fill="#9d9faa" d="M700 400h100v100H700z"/></svg>