<svg xmlns="http://www.w3.org/2000/svg" viewBox="0 0 800 400"><defs/><path fill="#7abba6" d="M0 0h100v100H0z"/><path fill="#34a385" d="M100 0h100v100H100z"/><path fill="#54b3af" d="M200 0h100v100H200z"/><path fill="#8b8b8a" d="M300 0h100v100H300z"/><path fill="#bf6960" d="M400 0h100v100H400z"/><path fill="#827c8c" d="M500 0h100v100H500z"/><path fill="#91828e" d="M600 0h100v100H600z"/><path fill="#c4b2bc" d="M700 0h100v100H700z"/><path fill="#bec5c0" d="M0 100h100v100H0z"/><path fill="#52a19c" d="M100 100h100v100H100z"/><path fill="#aea18f" d="M200 100h100v100H200z"/><path fill="#b07b71" d="M300 100h100v100H300z"/><path fill="#a25d62" d="M400 100h100v100H400z"/><path fill="#ae5652" d="M500 100h100v100H500z"/><path fill="#896370" d="M600 100h100v100H600z"/><path fill="#c0a8a9" d="M700 100h100v100H700z"/><path fill="#b4cccf" d="M0 200h100v100H0z"/><path fill="#9dc1c9" d="M100 200h100v100H100z"/><path fill="#bebfc1" d="M200 200h100v100H200z"/><path fill="#bbb6ba" d="M300 200h100v100H300z"/><path fill="#adb0bc" d="M400 200h100v100H400z"/><path fill="#c4b5b9" d="M500 200h100v100H500z"/><path fill="#beaeb3" d="M600 200h100v100H600z"/><path fill="#c2b8bc" d="M700 200h100v100H700z"/><path fill="#acc5c3" d="M0 300h100v100H0z"/><path fill="#dae1e8" d="M100 300h100v100H100z"/><path fill="#dde3e9" d="M200 300h100v100H200z"/><path fill="#e9ecef" d="M300 300h100v100H300z"/><path fill="#dfe4e7" d="M400 300h100v100H400z"/><path fill="#e1e7ec" d="M500 300h100v100H500z"/><path fill="#dfe1e3" d="M600 300h100v100H600z"/><path fill="#db7a9b" d="M700 300h100v100H700z"/></svg>