<svg xmlns="http://www.w3.org/2000/svg" viewBox="0 0 800 400"><defs/><path fill="#908e86" d="M0 0h100v100H0z"/><path fill="#525760" d="M100 0h100v100H100z"/><path fill="#838287" d="M200 0h100v100H200z"/><path fill="#abb4ac" d="M300 0h100v100H300z"/><path fill="#9b9a88" d="M400 0h100v100H400z"/><path fill="#b6b5a6" d="M500 0h100v100H500z"/><path fill="#b1b29e" d="M600 0h100v100H600z"/><path fill="#a0a28f" d="M700 0h100v100H700z"/><path fill="#888a83" d="M0 100h100v100H0z"/><path fill="#424650" d="M100 100h100v100H100z"/><path fill="#78696c" d="M200 100h100v100H200z"/><path fill="#bab4af" d="M300 100h100v100H300z"/><path fill="#948e89" d="M400 100h100v100H400z"/><path fill="#b8ada5" d="M500 100h100v100H500z"/><path fill="#a6a195" d="M600 100h100v100H600z"/><path fill="#8c8a78" d="M700 100h100v100H700z"/><path fill="#808484" d="M0 200h100v100H0z"/><path fill="#4e4d4e" d="M100 200h100v100H100z"/><path fill="#b7b3a4" d="M200 200h100v100H200z"/><path fill="#a4918a" d="M300 200h100v100H300z"/><path fill="#8e8071" d="M400 200h100v100H400z"/><path fill="#acb0a6" d="M500 200h100v100H500z"/><path fill="#9b8983" d="M600 200h100v100H600z"/><path fill="#736154" d="M700 200h100v100H700z"/><path fill="#7e8584" d="M0 300h100v100H0z"/><path fill="#52483e" d="M100 300h100v100H100z"/><path fill="#747560" d="M200 300h100v100H200z"/><path fill="#545353" d="M300 300h100v100H300z"/><path fill="#6c6755" d="M400 300h100v100H400z"/><path fill="#9a9d84" d="M500 300h100v100H500z"/><path fill="#a48789" d="M600 300h100v100H600z"/><path fill="#7f655b" d="M700 300h100v100H700z"/></svg>