<svg xmlns="http://www.w3.org/2000/svg" viewBox="0 0 800 1200"><defs/><path fill="#606769" d="M0 0h100v100H0z"/><path fill="#505661" d="M100 0h100v100H100z"/><path fill="#132547" d="M200 0h100v100H200z"/><path fill="#082753" d="M300 0h100v100H300z"/><path fill="#3a4c61" d="M400 0h100v100H400z"/><path fill="#606f76" d="M500 0h100v100H500z"/><path fill="#6b7779" d="M600 0h100v100H600z"/><path fill="#3c4d60" d="M700 0h100v100H700z"/><path fill="#7f8a8f" d="M0 100h100v100H0z"/><path fill="#5c6a7c" d="M100 100h100v100H100z"/><path fill="#223251" d="M200 100h100v100H200z"/><path fill="#142e5d" d="M300 100h100v100H300z"/><path fill="#32436e" d="M400 100h100v100H400z"/><path fill="#7a8797" d="M500 100h100v100H500z"/><path fill="#798e9f" d="M600 100h100v100H600z"/><path fill="#627d9d" d="M700 100h100v100H700z"/><path fill="#a5b0bb" d="M0 200h100v100H0z"/><path fill="#65728b" d="M100 200h100v100H100z"/><path fill="#102962" d="M200 200h100v100H200z"/><path fill="#243868" d="M300 200h100v100H300z"/><path fill="#435073" d="M400 200h100v100H400z"/><path fill="#64728f" d="M500 200h100v100H500z"/><path fill="#6c83a3" d="M600 200h100v100H600z"/><path fill="#677ca1" d="M700 200h100v100H700z"/><path fill="#a2adbd" d="M0 300h100v100H0z"/><path fill="#abb2be" d="M100 300h100v100H100z"/><path fill="#73707c" d="M200 300h100v100H200z"/><path fill="#7c7e8a" d="M300 300h100v100H300z"/><path fill="#929eb3" d="M400 300h100v100H400z"/><path fill="#5d729d" d="M500 300h100v100H500z"/><path fill="#0b2a6f" d="M600 300h100v100H600z"/><path fill="#5e739b" d="M700 300h100v100H700z"/><path fill="#a3aab5" d="M0 400h100v100H0z"/><path fill="#b9c1cf" d="M100 400h100v100H100z"/><path fill="#b08a6c" d="M200 400h100v100H200z"/><path fill="#b5916b" d="M300 400h100v100H300z"/><path fill="#848eaa" d="M400 400h100v100H400z"/><path fill="#7481a4" d="M500 400h100v100H500z"/><path fill="#516590" d="M600 400h100v100H600z"/><path fill="#788ba9" d="M700 400h100v100H700z"/><path fill="#505b77" d="M0 500h100v100H0z"/><path fill="#939aaf" d="M100 500h100v100H100z"/><path fill="#a8a5af" d="M200 500h100v100H200z"/><path fill="#9a9aa6" d="M300 500h100v100H300z"/><path fill="#3a4a7a" d="M400 500h100v100H400z"/><path fill="#34487b" d="M500 500h100v100H500z"/><path fill="#8691a8" d="M600 500h100v100H600z"/><path fill="#71809d" d="M700 500h100v100H700z"/><path fill="#3a4566" d="M0 600h100v100H0z"/><path fill="#8c929f" d="M100 600h100v100H100z"/><path fill="#a1a6b1" d="M200 600h100v100H200z"/><path fill="#626f94" d="M300 600h100v100H300z"/><path fill="#133070" d="M400 600h100v100H400z"/><path fill="#13285f" d="M500 600h100v100H500z"/><path fill="#65718f" d="M600 600h100v100H600z"/><path fill="#7b8da8" d="M700 600h100v100H700z"/><path fill="#677188" d="M0 700h100v100H0z"/><path fill="#2d416e" d="M100 700h100v100H100z"/><path fill="#445278" d="M200 700h100v100H200z"/><path fill="#939cb0" d="M300 700h100v100H300z"/><path fill="#39456e" d="M400 700h100v100H400z"/><path fill="#5d6c8c" d="M500 700h100v100H500z"/><path fill="#385082" d="M600 700h100v100H600z"/><path fill="#667d9c" d="M700 700h100v100H700z"/><path fill="#74828e" d="M0 800h100v100H0z"/><path fill="#3b4b74" d="M100 800h100v100H100z"/><path fill="#3f4d6c" d="M200 800h100v100H200z"/><path fill="#88919b" d="M300 800h100v100H300z"/><path fill="#838e9d" d="M400 800h100v100H400z"/><path fill="#7e8fa3" d="M500 800h100v100H500z"/><path fill="#375181" d="M600 800h100v100H600z"/><path fill="#4e648a" d="M700 800h100v100H700z"/><path fill="#6e8197" d="M0 900h100v100H0z"/><path fill="#8393a0" d="M100 900h100v100H100z"/><path fill="#7d899a" d="M200 900h100v100H200z"/><path fill="#3f4b6e" d="M300 900h100v100H300z"/><path fill="#3c4e77" d="M400 900h100v100H400z"/><path fill="#7d8e9e" d="M500 900h100v100H500z"/><path fill="#778fa9" d="M600 900h100v100H600z"/><path fill="#4f607e" d="M700 900h100v100H700z"/><path fill="#495977" d="M0 1000h100v100H0z"/><path fill="#677680" d="M100 1000h100v100H100z"/><path fill="#687785" d="M200 1000h100v100H200z"/><path fill="#253154" d="M300 1000h100v100H300z"/><path fill="#1b2a52" d="M400 1000h100v100H400z"/><path fill="#58687c" d="M500 1000h100v100H500z"/><path fill="#647a90" d="M600 1000h100v100H600z"/><path fill="#696e6f" d="M700 1000h100v100H700z"/><path fill="#1a2845" d="M0 1100h100v100H0z"/><path fill="#3c424e" d="M100 1100h100v100H100z"/><path fill="#41484e" d="M200 1100h100v100H200z"/><path fill="#383e48" d="M300 1100h100v100H300z"/><path fill="#45484e" d="M400 1100h100v100H400z"/><path fill="#494b4c" d="M500 1100h100v100H500z"/><path fill="#4f4f49" d="M600 1100h100v100H600z"/><path fill="#5b523f" d="M700 1100h100v100H700z"/></svg>