<svg xmlns="http://www.w3.org/2000/svg" viewBox="0 0 800 600"><defs/><path fill="#ece9e9" d="M0 0h100v100H0z"/><path fill="#e7e1e1" d="M100 0h100v100H100z"/><path fill="#f3f1f2" d="M200 0h100v100H200z"/><path fill="#f3f3f3" d="M300 0h100v100H300z"/><path fill="#f2f3f3" d="M400 0h100v100H400z"/><path fill="#f0eff0" d="M500 0h100v100H500z"/><path fill="#edebeb" d="M600 0h100v100H600z"/><path fill="#f5f3f3" d="M700 0h100v100H700z"/><path fill="#b3a9a5" d="M0 100h100v100H0z"/><path fill="#7c615b" d="M100 100h100v100H100z"/><path fill="#96938e" d="M200 100h100v100H200z"/><path fill="#7b7d76" d="M300 100h100v100H300z"/><path fill="#7f7874" d="M400 100h100v100H400z"/><path fill="#b9b2b6" d="M500 100h100v100H500z"/><path fill="#a89a97" d="M600 100h100v100H600z"/><path fill="#e0d4c7" d="M700 100h100v100H700z"/><path fill="#b2a8a6" d="M0 200h100v100H0z"/><path fill="#725d56" d="M100 200h100v100H100z"/><path fill="#686f67" d="M200 200h100v100H200z"/><path fill="#60625a" d="M300 200h100v100H300z"/><path fill="#6d6163" d="M400 200h100v100H400z"/><path fill="#86776d" d="M500 200h100v100H500z"/><path fill="#ddc9a9" d="M600 200h100v100H600z"/><path fill="#ebdbc5" d="M700 200h100v100H700z"/><path fill="#baa9a7" d="M0 300h100v100H0z"/><path fill="#835d54" d="M100 300h100v100H100z"/><path fill="#7a6c60" d="M200 300h100v100H200z"/><path fill="#635f64" d="M300 300h100v100H300z"/><path fill="#a08586" d="M400 300h100v100H400z"/><path fill="#828766" d="M500 300h100v100H500z"/><path fill="#bdb68c" d="M600 300h100v100H600z"/><path fill="#ceb4a2" d="M700 300h100v100H700z"/><path fill="#ab9088" d="M0 400h100v100H0z"/><path fill="#6d3e2e" d="M100 400h100v100H100z"/><path fill="#734f41" d="M200 400h100v100H200z"/><path fill="#6b514c" d="M300 400h100v100H300z"/><path fill="#856856" d="M400 400h100v100H400z"/><path fill="#c4b48e" d="M500 400h100v100H500z"/><path fill="#54533f" d="M600 400h100v100H600z"/><path fill="#797169" d="M700 400h100v100H700z"/><path fill="#e0d8d5" d="M0 500h100v100H0z"/><path fill="#d7cac5" d="M100 500h100v100H100z"/><path fill="#dacecb" d="M200 500h100v100H200z"/><path fill="#ddd4d2" d="M300 500h100v100H300z"/><path fill="#dedcd7" d="M400 500h100v100H400z"/><path fill="#e5e2db" d="M500 500h100v100H500z"/><path fill="#c4c1c0" d="M600 500h100v100H600z"/><path fill="#c8c5c4" d="M700 500h100v100H700z"/></svg>