<svg xmlns="http://www.w3.org/2000/svg" viewBox="0 0 800 600"><defs/><path fill="#f9f9fb" d="M0 0h100v100H0z"/><path fill="#f5f3f7" d="M100 0h100v100H100z"/><path fill="#fbfbfc" d="M200 0h100v100H200z"/><path fill="#fcfbfc" d="M300 0h100v100H300zm100 0h100v100H400z"/><path fill="#fdfcfd" d="M500 0h100v100H500z"/><path fill="#f7f6f8" d="M600 0h100v100H600z"/><path fill="#f7f5f7" d="M700 0h100v100H700z"/><path fill="#f1eff3" d="M0 100h100v100H0z"/><path fill="#ddd7e2" d="M100 100h100v100H100z"/><path fill="#edeaf0" d="M200 100h100v100H200z"/><path fill="#fdfdfd" d="M300 100h100v100H300z"/><path fill="#eae7ee" d="M400 100h100v100H400z"/><path fill="#edeaef" d="M500 100h100v100H500z"/><path fill="#e9e5ed" d="M600 100h100v100H600z"/><path fill="#e4e0e8" d="M700 100h100v100H700z"/><path fill="#eceaee" d="M0 200h100v100H0z"/><path fill="#ded8e3" d="M100 200h100v100H100z"/><path fill="#e1dce6" d="M200 200h100v100H200z"/><path fill="#ebe8ee" d="M300 200h100v100H300z"/><path fill="#ebe7ed" d="M400 200h100v100H400z"/><path fill="#e5e1e9" d="M500 200h100v100H500z"/><path fill="#dad4df" d="M600 200h100v100H600z"/><path fill="#d4cedb" d="M700 200h100v100H700z"/><path fill="#e5e1e9" d="M0 300h100v100H0z"/><path fill="#e1dce5" d="M100 300h100v100H100z"/><path fill="#f1eef2" d="M200 300h100v100H200z"/><path fill="#e1dce6" d="M300 300h100v100H300z"/><path fill="#e5e1e9" d="M400 300h100v100H400z"/><path fill="#ebe7ed" d="M500 300h100v100H500z"/><path fill="#d4cddb" d="M600 300h100v100H600z"/><path fill="#cbc3d4" d="M700 300h100v100H700z"/><path fill="#e1dce6" d="M0 400h100v100H0z"/><path fill="#dfd9e3" d="M100 400h100v100H100z"/><path fill="#f0edf2" d="M200 400h100v100H200z"/><path fill="#f1eff3" d="M300 400h100v100H300z"/><path fill="#e9e6ed" d="M400 400h100v100H400z"/><path fill="#f7f6f8" d="M500 400h100v100H500z"/><path fill="#dfdae4" d="M600 400h100v100H600z"/><path fill="#dbd5e1" d="M700 400h100v100H700z"/><path fill="#f5f2f5" d="M0 500h100v100H0z"/><path fill="#f6f4f8" d="M100 500h100v100H100z"/><path fill="#f5f3f7" d="M200 500h100v100H200z"/><path fill="#f3f2f6" d="M300 500h100v100H300z"/><path fill="#f4f2f6" d="M400 500h100v100H400z"/><path fill="#f9f8fa" d="M500 500h100v100H500z"/><path fill="#fcfbfc" d="M600 500h100v100H600z"/><path fill="#ebe8ee" d="M700 500h100v100H700z"/></svg>