<svg xmlns="http://www.w3.org/2000/svg" viewBox="0 0 800 600"><defs/><path fill="#7e6842" d="M0 0h100v100H0z"/><path fill="#b4341d" d="M100 0h100v100H100z"/><path fill="#46243c" d="M200 0h100v100H200z"/><path fill="#927c3e" d="M300 0h100v100H300z"/><path fill="#3e4153" d="M400 0h100v100H400z"/><path fill="#516994" d="M500 0h100v100H500z"/><path fill="#b7a9ad" d="M600 0h100v100H600z"/><path fill="#83684f" d="M700 0h100v100H700z"/><path fill="#b48c26" d="M0 100h100v100H0z"/><path fill="#952711" d="M100 100h100v100H100z"/><path fill="#532018" d="M200 100h100v100H200z"/><path fill="#81713d" d="M300 100h100v100H300z"/><path fill="#294544" d="M400 100h100v100H400z"/><path fill="#7d9a95" d="M500 100h100v100H500z"/><path fill="#afb2a2" d="M600 100h100v100H600z"/><path fill="#b3ac92" d="M700 100h100v100H700z"/><path fill="#cfb78a" d="M0 200h100v100H0z"/><path fill="#795848" d="M100 200h100v100H100z"/><path fill="#6d782e" d="M200 200h100v100H200z"/><path fill="#606c55" d="M300 200h100v100H300z"/><path fill="#5f6e59" d="M400 200h100v100H400z"/><path fill="#8a9070" d="M500 200h100v100H500z"/><path fill="#546b66" d="M600 200h100v100H600z"/><path fill="#b3a894" d="M700 200h100v100H700z"/><path fill="#836d50" d="M0 300h100v100H0z"/><path fill="#6d6b54" d="M100 300h100v100H100z"/><path fill="#777b30" d="M200 300h100v100H200z"/><path fill="#6d6658" d="M300 300h100v100H300z"/><path fill="#bfb3a4" d="M400 300h100v100H400z"/><path fill="#b9a98f" d="M500 300h100v100H500z"/><path fill="#969088" d="M600 300h100v100H600z"/><path fill="#9d9b8c" d="M700 300h100v100H700z"/><path fill="#696458" d="M0 400h100v100H0z"/><path fill="#827e7e" d="M100 400h100v100H100z"/><path fill="#4d6a5d" d="M200 400h100v100H200z"/><path fill="#40725a" d="M300 400h100v100H300z"/><path fill="#828782" d="M400 400h100v100H400z"/><path fill="#83827f" d="M500 400h100v100H500z"/><path fill="#7e817c" d="M600 400h100v100H600z"/><path fill="#7e504f" d="M700 400h100v100H700z"/><path fill="#8e8f8d" d="M0 500h100v100H0z"/><path fill="#9a989a" d="M100 500h100v100H100z"/><path fill="#2d5c44" d="M200 500h100v100H200z"/><path fill="#003414" d="M300 500h100v100H300z"/><path fill="#686d68" d="M400 500h100v100H400z"/><path fill="#888a89" d="M500 500h100v100H500z"/><path fill="#8c8e8c" d="M600 500h100v100H600z"/><path fill="#7d605f" d="M700 500h100v100H700z"/></svg>