<svg xmlns="http://www.w3.org/2000/svg" viewBox="0 0 800 400"><defs/><path fill="#e7e7e7" d="M0 0h100v100H0z"/><path fill="#e9e9e9" d="M100 0h100v100H100z"/><path fill="#e7e7e7" d="M200 0h100v100H200z"/><path fill="#f6f6f6" d="M300 0h100v100H300z"/><path fill="#f7f7f7" d="M400 0h100v100H400z"/><path fill="#e2e2e2" d="M500 0h100v100H500z"/><path fill="#f5f5f5" d="M600 0h100v100H600z"/><path fill="#f3f3f3" d="M700 0h100v100H700z"/><path fill="#d9d9d9" d="M0 100h100v100H0z"/><path fill="#dedede" d="M100 100h100v100H100z"/><path fill="#c1c1c1" d="M200 100h100v100H200z"/><path fill="#ececec" d="M300 100h100v100H300z"/><path fill="#f2f2f2" d="M400 100h100v100H400z"/><path fill="#e1e1e1" d="M500 100h100v100H500z"/><path fill="#cdcdcd" d="M600 100h100v100H600z"/><path fill="#d0d0d0" d="M700 100h100v100H700z"/><path fill="#d1d1d1" d="M0 200h100v100H0z"/><path fill="#bababa" d="M100 200h100v100H100z"/><path fill="#acacac" d="M200 200h100v100H200z"/><path fill="#b1b1b1" d="M300 200h100v100H300z"/><path fill="#c2c2c2" d="M400 200h100v100H400z"/><path fill="#adadad" d="M500 200h100v100H500zm100 0h100v100H600z"/><path fill="#d2d2d2" d="M700 200h100v100H700z"/><path fill="#bebebe" d="M0 300h100v100H0z"/><path fill="#a3a3a3" d="M100 300h100v100H100z"/><path fill="#a8a8a8" d="M200 300h100v100H200z"/><path fill="#d4d4d4" d="M300 300h100v100H300z"/><path fill="#c8c8c8" d="M400 300h100v100H400z"/><path fill="#c5c5c5" d="M500 300h100v100H500z"/><path fill="#a6a6a6" d="M600 300h100v100H600z"/><path fill="#bcbcbc" d="M700 300h100v100H700z"/></svg>