<svg xmlns="http://www.w3.org/2000/svg" viewBox="0 0 800 600"><defs/><path fill="#e2e5e5" d="M0 0h100v100H0z"/><path fill="#dfe2e3" d="M100 0h100v100H100z"/><path fill="#dedfdd" d="M200 0h100v100H200z"/><path fill="#d8d8d5" d="M300 0h100v100H300z"/><path fill="#cfcfcc" d="M400 0h100v100H400z"/><path fill="#c8c7c3" d="M500 0h100v100H500z"/><path fill="#c2bfb8" d="M600 0h100v100H600z"/><path fill="#bbb6aa" d="M700 0h100v100H700z"/><path fill="#d7d9d6" d="M0 100h100v100H0z"/><path fill="#b4a58a" d="M100 100h100v100H100z"/><path fill="#bcbbb2" d="M200 100h100v100H200z"/><path fill="#c9ccc9" d="M300 100h100v100H300z"/><path fill="#c0c0ba" d="M400 100h100v100H400z"/><path fill="#b7bcb5" d="M500 100h100v100H500z"/><path fill="#abb2aa" d="M600 100h100v100H600z"/><path fill="#a0a496" d="M700 100h100v100H700z"/><path fill="#c5c7bf" d="M0 200h100v100H0z"/><path fill="#a0865d" d="M100 200h100v100H100z"/><path fill="#9d8f86" d="M200 200h100v100H200z"/><path fill="#b1a69a" d="M300 200h100v100H300z"/><path fill="#ada799" d="M400 200h100v100H400z"/><path fill="#ac9386" d="M500 200h100v100H500z"/><path fill="#9f9181" d="M600 200h100v100H600z"/><path fill="#929180" d="M700 200h100v100H700z"/><path fill="#ab8d78" d="M0 300h100v100H0z"/><path fill="#8b5533" d="M100 300h100v100H100z"/><path fill="#8c6759" d="M200 300h100v100H200z"/><path fill="#845f44" d="M300 300h100v100H300z"/><path fill="#745439" d="M400 300h100v100H400z"/><path fill="#89674f" d="M500 300h100v100H500z"/><path fill="#696752" d="M600 300h100v100H600z"/><path fill="#7c6757" d="M700 300h100v100H700z"/><path fill="#927055" d="M0 400h100v100H0z"/><path fill="#83462b" d="M100 400h100v100H100z"/><path fill="#834e48" d="M200 400h100v100H200z"/><path fill="#6b685c" d="M300 400h100v100H300z"/><path fill="#515d66" d="M400 400h100v100H400z"/><path fill="#666f6d" d="M500 400h100v100H500z"/><path fill="#5d5c47" d="M600 400h100v100H600z"/><path fill="#756955" d="M700 400h100v100H700z"/><path fill="#b7b3a5" d="M0 500h100v100H0z"/><path fill="#bab1a0" d="M100 500h100v100H100z"/><path fill="#b7a093" d="M200 500h100v100H200z"/><path fill="#a7a195" d="M300 500h100v100H300z"/><path fill="#a6a194" d="M400 500h100v100H400z"/><path fill="#a49b88" d="M500 500h100v100H500z"/><path fill="#9d937d" d="M600 500h100v100H600z"/><path fill="#958e77" d="M700 500h100v100H700z"/></svg>