<svg xmlns="http://www.w3.org/2000/svg" viewBox="0 0 800 600"><defs/><path fill="#d8d4ea" d="M0 0h100v100H0z"/><path fill="#d9d7eb" d="M100 0h100v100H100z"/><path fill="#ceceea" d="M200 0h100v100H200z"/><path fill="#c2c2e2" d="M300 0h100v100H300z"/><path fill="#c8c8e5" d="M400 0h100v100H400z"/><path fill="#c5bddf" d="M500 0h100v100H500z"/><path fill="#c3b8d9" d="M600 0h100v100H600z"/><path fill="#c1b5d4" d="M700 0h100v100H700z"/><path fill="#d2c5e5" d="M0 100h100v100H0z"/><path fill="#bd99c2" d="M100 100h100v100H100z"/><path fill="#9c98a3" d="M200 100h100v100H200z"/><path fill="#879096" d="M300 100h100v100H300z"/><path fill="#8a8c98" d="M400 100h100v100H400z"/><path fill="#7e818b" d="M500 100h100v100H500z"/><path fill="#818da4" d="M600 100h100v100H600z"/><path fill="#a6accf" d="M700 100h100v100H700z"/><path fill="#ceb9e0" d="M0 200h100v100H0z"/><path fill="#8c73b0" d="M100 200h100v100H100z"/><path fill="#a6a993" d="M200 200h100v100H200z"/><path fill="#afb0a1" d="M300 200h100v100H300z"/><path fill="#97938d" d="M400 200h100v100H400z"/><path fill="#567f8e" d="M500 200h100v100H500z"/><path fill="#4d7d98" d="M600 200h100v100H600z"/><path fill="#9d9bb9" d="M700 200h100v100H700z"/><path fill="#c8b6dc" d="M0 300h100v100H0z"/><path fill="#9174a8" d="M100 300h100v100H100z"/><path fill="#8e918f" d="M200 300h100v100H200z"/><path fill="#8a8a8a" d="M300 300h100v100H300z"/><path fill="#b6afa0" d="M400 300h100v100H400z"/><path fill="#9da192" d="M500 300h100v100H500z"/><path fill="#858d8b" d="M600 300h100v100H600z"/><path fill="#9193b8" d="M700 300h100v100H700z"/><path fill="#beb3d6" d="M0 400h100v100H0z"/><path fill="#8971a4" d="M100 400h100v100H100z"/><path fill="#bd94c8" d="M200 400h100v100H200z"/><path fill="#af8fbf" d="M300 400h100v100H300z"/><path fill="#bd9ec6" d="M400 400h100v100H400z"/><path fill="#b988b3" d="M500 400h100v100H500z"/><path fill="#9881ac" d="M600 400h100v100H600z"/><path fill="#8993be" d="M700 400h100v100H700z"/><path fill="#c7c0de" d="M0 500h100v100H0z"/><path fill="#bca9d4" d="M100 500h100v100H100z"/><path fill="#d0b8dc" d="M200 500h100v100H200z"/><path fill="#c5b1d6" d="M300 500h100v100H300z"/><path fill="#bdaacf" d="M400 500h100v100H400z"/><path fill="#b199c1" d="M500 500h100v100H500z"/><path fill="#a98fb5" d="M600 500h100v100H600z"/><path fill="#a596b3" d="M700 500h100v100H700z"/></svg>