<svg xmlns="http://www.w3.org/2000/svg" viewBox="0 0 800 600"><defs/><path fill="#ecddd9" d="M0 0h100v100H0z"/><path fill="#d5cac7" d="M100 0h100v100H100z"/><path fill="#f1edeb" d="M200 0h100v100H200z"/><path fill="#f0ece9" d="M300 0h100v100H300z"/><path fill="#f3efed" d="M400 0h100v100H400z"/><path fill="#eeebe9" d="M500 0h100v100H500z"/><path fill="#e4e1df" d="M600 0h100v100H600z"/><path fill="#e2e0df" d="M700 0h100v100H700z"/><path fill="#97655b" d="M0 100h100v100H0z"/><path fill="#66514a" d="M100 100h100v100H100z"/><path fill="#bfb2a8" d="M200 100h100v100H200z"/><path fill="#bdb9b0" d="M300 100h100v100H300z"/><path fill="#cfc9c2" d="M400 100h100v100H400z"/><path fill="#8e8178" d="M500 100h100v100H500z"/><path fill="#5b4f47" d="M600 100h100v100H600z"/><path fill="#8b6f67" d="M700 100h100v100H700z"/><path fill="#856050" d="M0 200h100v100H0z"/><path fill="#77635c" d="M100 200h100v100H100z"/><path fill="#adb0a7" d="M200 200h100v100H200z"/><path fill="#90a6a4" d="M300 200h100v100H300z"/><path fill="#a5c5be" d="M400 200h100v100H400z"/><path fill="#73756f" d="M500 200h100v100H500z"/><path fill="#5f534c" d="M600 200h100v100H600z"/><path fill="#8b6a64" d="M700 200h100v100H700z"/><path fill="#8b5d53" d="M0 300h100v100H0z"/><path fill="#6d4c43" d="M100 300h100v100H100z"/><path fill="#7c9b93" d="M200 300h100v100H200z"/><path fill="#4f5a51" d="M300 300h100v100H300z"/><path fill="#6f8785" d="M400 300h100v100H400z"/><path fill="#3f7576" d="M500 300h100v100H500z"/><path fill="#634f43" d="M600 300h100v100H600z"/><path fill="#806e68" d="M700 300h100v100H700z"/><path fill="#775048" d="M0 400h100v100H0z"/><path fill="#5c3520" d="M100 400h100v100H100z"/><path fill="#2e362a" d="M200 400h100v100H200z"/><path fill="#4e3929" d="M300 400h100v100H300z"/><path fill="#5a3621" d="M400 400h100v100H400z"/><path fill="#4b645d" d="M500 400h100v100H500z"/><path fill="#948473" d="M600 400h100v100H600z"/><path fill="#7d6959" d="M700 400h100v100H700z"/><path fill="#c4b8b1" d="M0 500h100v100H0z"/><path fill="#c2b2a3" d="M100 500h100v100H100z"/><path fill="#a49892" d="M200 500h100v100H200z"/><path fill="#ab9e98" d="M300 500h100v100H300z"/><path fill="#d6bfaf" d="M400 500h100v100H400z"/><path fill="#d2c9c1" d="M500 500h100v100H500z"/><path fill="#bdb8b3" d="M600 500h100v100H600z"/><path fill="#b6a89d" d="M700 500h100v100H700z"/></svg>