<svg xmlns="http://www.w3.org/2000/svg" viewBox="0 0 800 500"><defs/><path fill="#e6d9c4" d="M0 0h100v100H0z"/><path fill="#c0b9ad" d="M100 0h100v100H100z"/><path fill="#84837b" d="M200 0h100v100H200z"/><path fill="#949593" d="M300 0h100v100H300z"/><path fill="#8f9390" d="M400 0h100v100H400z"/><path fill="#848282" d="M500 0h100v100H500z"/><path fill="#8d8c7a" d="M600 0h100v100H600z"/><path fill="#bdbfb9" d="M700 0h100v100H700z"/><path fill="#b8af97" d="M0 100h100v100H0z"/><path fill="#9f8f79" d="M100 100h100v100H100z"/><path fill="#868368" d="M200 100h100v100H200z"/><path fill="#5b4538" d="M300 100h100v100H300z"/><path fill="#593e29" d="M400 100h100v100H400z"/><path fill="#4a3922" d="M500 100h100v100H500z"/><path fill="#717148" d="M600 100h100v100H600z"/><path fill="#adb098" d="M700 100h100v100H700z"/><path fill="#727459" d="M0 200h100v100H0z"/><path fill="#766551" d="M100 200h100v100H100z"/><path fill="#a89b83" d="M200 200h100v100H200z"/><path fill="#836f56" d="M300 200h100v100H300z"/><path fill="#716e58" d="M400 200h100v100H400z"/><path fill="#716e59" d="M500 200h100v100H500z"/><path fill="#867950" d="M600 200h100v100H600z"/><path fill="#918e6c" d="M700 200h100v100H700z"/><path fill="#87735a" d="M0 300h100v100H0z"/><path fill="#977659" d="M100 300h100v100H100z"/><path fill="#debf93" d="M200 300h100v100H200z"/><path fill="#bb9973" d="M300 300h100v100H300z"/><path fill="#656b60" d="M400 300h100v100H400z"/><path fill="#7d7158" d="M500 300h100v100H500z"/><path fill="#976246" d="M600 300h100v100H600z"/><path fill="#a2835f" d="M700 300h100v100H700z"/><path fill="#9fa589" d="M0 400h100v100H0z"/><path fill="#846c4e" d="M100 400h100v100H100z"/><path fill="#94754d" d="M200 400h100v100H200z"/><path fill="#98795a" d="M300 400h100v100H300z"/><path fill="#8f664c" d="M400 400h100v100H400z"/><path fill="#82593c" d="M500 400h100v100H500z"/><path fill="#886146" d="M600 400h100v100H600z"/><path fill="#8b664a" d="M700 400h100v100H700z"/></svg>