<svg xmlns="http://www.w3.org/2000/svg" viewBox="0 0 800 500"><defs/><path fill="#2f1515" d="M0 0h100v100H0z"/><path fill="#62585a" d="M100 0h100v100H100z"/><path fill="#d7dfe0" d="M200 0h100v100H200z"/><path fill="#cdb8d2" d="M300 0h100v100H300z"/><path fill="#c46bc6" d="M400 0h100v100H400z"/><path fill="#ab4aad" d="M500 0h100v100H500z"/><path fill="#833784" d="M600 0h100v100H600z"/><path fill="#3b3239" d="M700 0h100v100H700z"/><path fill="#55221a" d="M0 100h100v100H0z"/><path fill="#dac9c8" d="M100 100h100v100H100z"/><path fill="#fff" d="M200 100h100v100H200z"/><path fill="#fdf5fd" d="M300 100h100v100H300z"/><path fill="#fea6fe" d="M400 100h100v100H400z"/><path fill="#ff78f4" d="M500 100h100v100H500z"/><path fill="#cf39c1" d="M600 100h100v100H600z"/><path fill="#43204b" d="M700 100h100v100H700z"/><path fill="#562830" d="M0 200h100v100H0z"/><path fill="#f0eded" d="M100 200h100v100H100z"/><path fill="#fbfffd" d="M200 200h100v100H200z"/><path fill="#f1fbf2" d="M300 200h100v100H300z"/><path fill="#e4fce8" d="M400 200h100v100H400z"/><path fill="#d5eecc" d="M500 200h100v100H500z"/><path fill="#845554" d="M600 200h100v100H600z"/><path fill="#592d4f" d="M700 200h100v100H700z"/><path fill="#481e2d" d="M0 300h100v100H0z"/><path fill="#42a245" d="M100 300h100v100H100z"/><path fill="#32b139" d="M200 300h100v100H200z"/><path fill="#1ca727" d="M300 300h100v100H300z"/><path fill="#0ea518" d="M400 300h100v100H400z"/><path fill="#159629" d="M500 300h100v100H500z"/><path fill="#135d48" d="M600 300h100v100H600z"/><path fill="#484a39" d="M700 300h100v100H700z"/><path fill="#192a0a" d="M0 400h100v100H0z"/><path fill="#006d00" d="M100 400h100v100H100z"/><path fill="#007b00" d="M200 400h100v100H200z"/><path fill="#008100" d="M300 400h100v100H300z"/><path fill="#057a04" d="M400 400h100v100H400z"/><path fill="#16702a" d="M500 400h100v100H500z"/><path fill="#32444a" d="M600 400h100v100H600z"/><path fill="#541b42" d="M700 400h100v100H700z"/></svg>