<svg xmlns="http://www.w3.org/2000/svg" viewBox="0 0 800 700"><defs/><path fill="#fff" d="M0 0h100v100H0z"/><path fill="#edeff1" d="M100 0h100v100H100z"/><path fill="#d8e2ea" d="M200 0h100v100H200z"/><path fill="#d9e2e9" d="M300 0h100v100H300z"/><path fill="#e0e3e6" d="M400 0h100v100H400z"/><path fill="#dee3e8" d="M500 0h100v100H500z"/><path fill="#d6dee4" d="M600 0h100v100H600z"/><path fill="#e4ebf0" d="M700 0h100v100H700z"/><path fill="#fff" d="M0 100h100v100H0z"/><path fill="#cfd7dd" d="M100 100h100v100H100z"/><path fill="#a8bdcd" d="M200 100h100v100H200z"/><path fill="#b4bec5" d="M300 100h100v100H300z"/><path fill="#aeb3b7" d="M400 100h100v100H400z"/><path fill="#adb2b6" d="M500 100h100v100H500z"/><path fill="#a1a7ac" d="M600 100h100v100H600z"/><path fill="#c0c7cc" d="M700 100h100v100H700z"/><path fill="#fffffe" d="M0 200h100v100H0z"/><path fill="#ced7de" d="M100 200h100v100H100z"/><path fill="#b1c3d1" d="M200 200h100v100H200z"/><path fill="#c4cace" d="M300 200h100v100H300z"/><path fill="#b5bcc3" d="M400 200h100v100H400z"/><path fill="#bdc1c5" d="M500 200h100v100H500z"/><path fill="#b9bec2" d="M600 200h100v100H600z"/><path fill="#c9cfd3" d="M700 200h100v100H700z"/><path fill="#fff" d="M0 300h100v100H0z"/><path fill="#e3e6e8" d="M100 300h100v100H100z"/><path fill="#ced6dc" d="M200 300h100v100H200z"/><path fill="#ccd4da" d="M300 300h100v100H300z"/><path fill="#dde1e5" d="M400 300h100v100H400z"/><path fill="#e1e6eb" d="M500 300h100v100H500z"/><path fill="#d9e1e8" d="M600 300h100v100H600z"/><path fill="#e7edf1" d="M700 300h100v100H700z"/><path fill="#fff" d="M0 400h100v100H0z"/><path fill="#cfd4d9" d="M100 400h100v100H100z"/><path fill="#b3c4d2" d="M200 400h100v100H200z"/><path fill="#b8c5ce" d="M300 400h100v100H300z"/><path fill="#bdc0c2" d="M400 400h100v100H400z"/><path fill="#b7bbbf" d="M500 400h100v100H500z"/><path fill="#abb2b8" d="M600 400h100v100H600z"/><path fill="#c5ced4" d="M700 400h100v100H700z"/><path fill="#fffffe" d="M0 500h100v100H0z"/><path fill="#c5cfd7" d="M100 500h100v100H100z"/><path fill="#a7bbcc" d="M200 500h100v100H200z"/><path fill="#bdc5c9" d="M300 500h100v100H300z"/><path fill="#aab0b7" d="M400 500h100v100H400z"/><path fill="#b2b6b9" d="M500 500h100v100H500z"/><path fill="#adb3b6" d="M600 500h100v100H600z"/><path fill="#bfc5ca" d="M700 500h100v100H700z"/><path fill="#fff" d="M0 600h100v100H0z"/><path fill="#dee2e5" d="M100 600h100v100H100z"/><path fill="#cbd3d9" d="M200 600h100v100H200z"/><path fill="#cbd0d4" d="M300 600h100v100H300z"/><path fill="#d7dde1" d="M400 600h100v100H400z"/><path fill="#dbe0e4" d="M500 600h100v100H500z"/><path fill="#d5dbe0" d="M600 600h100v100H600z"/><path fill="#dde1e6" d="M700 600h100v100H700z"/></svg>