<svg xmlns="http://www.w3.org/2000/svg" viewBox="0 0 800 600"><defs/><path fill="#e2e2e5" d="M0 0h100v100H0z"/><path fill="#dfdedf" d="M100 0h100v100H100z"/><path fill="#dfdfe3" d="M200 0h100v100H200z"/><path fill="#e4e4e5" d="M300 0h100v100H300z"/><path fill="#e7e6e5" d="M400 0h100v100H400z"/><path fill="#e2e3e7" d="M500 0h100v100H500z"/><path fill="#e2e4e7" d="M600 0h100v100H600z"/><path fill="#e3e4e6" d="M700 0h100v100H700z"/><path fill="#e3e4e7" d="M0 100h100v100H0z"/><path fill="#e1dfdf" d="M100 100h100v100H100z"/><path fill="#cacad0" d="M200 100h100v100H200z"/><path fill="#c3c2c3" d="M300 100h100v100H300z"/><path fill="#e1dede" d="M400 100h100v100H400z"/><path fill="#cfcecf" d="M500 100h100v100H500z"/><path fill="#bdbec1" d="M600 100h100v100H600z"/><path fill="#cac7cb" d="M700 100h100v100H700z"/><path fill="#dad9de" d="M0 200h100v100H0z"/><path fill="#d7d4d5" d="M100 200h100v100H100z"/><path fill="#e9e5e4" d="M200 200h100v100H200z"/><path fill="#f7f4f1" d="M300 200h100v100H300z"/><path fill="#f6f3f0" d="M400 200h100v100H400z"/><path fill="#dedcdf" d="M500 200h100v100H500z"/><path fill="#c0c0c4" d="M600 200h100v100H600z"/><path fill="#cbc5ca" d="M700 200h100v100H700z"/><path fill="#d0d0d4" d="M0 300h100v100H0z"/><path fill="#d3d1d5" d="M100 300h100v100H100z"/><path fill="#e7e5ec" d="M200 300h100v100H200z"/><path fill="#d4d5da" d="M300 300h100v100H300z"/><path fill="#c7ccd4" d="M400 300h100v100H400z"/><path fill="#c2c4cc" d="M500 300h100v100H500z"/><path fill="#bebcbe" d="M600 300h100v100H600z"/><path fill="#c5c0c4" d="M700 300h100v100H700z"/><path fill="#e3e2e7" d="M0 400h100v100H0z"/><path fill="#cfcfd6" d="M100 400h100v100H100z"/><path fill="#e9e7f1" d="M200 400h100v100H200z"/><path fill="#cecfd6" d="M300 400h100v100H300z"/><path fill="#d0d3d8" d="M400 400h100v100H400z"/><path fill="#d7d8da" d="M500 400h100v100H500z"/><path fill="#d3d2d6" d="M600 400h100v100H600z"/><path fill="#d3d1d6" d="M700 400h100v100H700z"/><path fill="#dbdcdf" d="M0 500h100v100H0z"/><path fill="#e5e4e9" d="M100 500h100v100H100z"/><path fill="#f7f5f8" d="M200 500h100v100H200z"/><path fill="#ececeb" d="M300 500h100v100H300z"/><path fill="#e8e9ea" d="M400 500h100v100H400z"/><path fill="#ebecec" d="M500 500h100v100H500z"/><path fill="#efedee" d="M600 500h100v100H600z"/><path fill="#e3e0e5" d="M700 500h100v100H700z"/></svg>