<svg xmlns="http://www.w3.org/2000/svg" viewBox="0 0 800 600"><defs/><path fill="#dbdad7" d="M0 0h100v100H0z"/><path fill="#d4d3cf" d="M100 0h100v100H100z"/><path fill="#d8d7d3" d="M200 0h100v100H200z"/><path fill="#e2e1dd" d="M300 0h100v100H300z"/><path fill="#e1e0dc" d="M400 0h100v100H400z"/><path fill="#d0cfcb" d="M500 0h100v100H500z"/><path fill="#dfdeda" d="M600 0h100v100H600z"/><path fill="#e2e2dd" d="M700 0h100v100H700z"/><path fill="#dddcd8" d="M0 100h100v100H0z"/><path fill="#c9c7c3" d="M100 100h100v100H100z"/><path fill="#ccc9c5" d="M200 100h100v100H200z"/><path fill="#d5d2cf" d="M300 100h100v100H300z"/><path fill="#d0cdc9" d="M400 100h100v100H400z"/><path fill="#dddbd7" d="M500 100h100v100H500z"/><path fill="#e3e2de" d="M600 100h100v100H600z"/><path fill="#dddcd9" d="M700 100h100v100H700z"/><path fill="#e1e0dd" d="M0 200h100v100H0z"/><path fill="#cac7c3" d="M100 200h100v100H100z"/><path fill="#c3c0bc" d="M200 200h100v100H200z"/><path fill="#c1bfbb" d="M300 200h100v100H300z"/><path fill="#d9d7d4" d="M400 200h100v100H400z"/><path fill="#deddd9" d="M500 200h100v100H500z"/><path fill="#e2e1dd" d="M600 200h100v100H600z"/><path fill="#dcdbd7" d="M700 200h100v100H700z"/><path fill="#d9d6d3" d="M0 300h100v100H0z"/><path fill="#bdbab6" d="M100 300h100v100H100z"/><path fill="#c1bdba" d="M200 300h100v100H200z"/><path fill="#d0cfcc" d="M300 300h100v100H300z"/><path fill="#e6e5e1" d="M400 300h100v100H400z"/><path fill="#d4d2cf" d="M500 300h100v100H500z"/><path fill="#d2d0cc" d="M600 300h100v100H600z"/><path fill="#e2e1dd" d="M700 300h100v100H700z"/><path fill="#d4d2cf" d="M0 400h100v100H0z"/><path fill="#c5c3bf" d="M100 400h100v100H100z"/><path fill="#dcdbd7" d="M200 400h100v100H200z"/><path fill="#d2d0cd" d="M300 400h100v100H300z"/><path fill="#e6e5e1" d="M400 400h100v100H400z"/><path fill="#dcdbd7" d="M500 400h100v100H500z"/><path fill="#d1cfcb" d="M600 400h100v100H600z"/><path fill="#e1e0dc" d="M700 400h100v100H700z"/><path fill="#e2e1dd" d="M0 500h100v100H0z"/><path fill="#cecdca" d="M100 500h100v100H100z"/><path fill="#c8c6c3" d="M200 500h100v100H200z"/><path fill="#ceccc8" d="M300 500h100v100H300z"/><path fill="#dddcd8" d="M400 500h100v100H400z"/><path fill="#ebe9e5" d="M500 500h100v100H500z"/><path fill="#e9e9e5" d="M600 500h100v100H600z"/><path fill="#e2e2de" d="M700 500h100v100H700z"/></svg>