<svg xmlns="http://www.w3.org/2000/svg" viewBox="0 0 800 400"><defs/><path fill="#d5a7c4" d="M0 0h100v100H0z"/><path fill="#e9a4bf" d="M100 0h100v100H100z"/><path fill="#daa6c3" d="M200 0h100v100H200z"/><path fill="#deacc7" d="M300 0h100v100H300z"/><path fill="#e5adc5" d="M400 0h100v100H400z"/><path fill="#d4a1c1" d="M500 0h100v100H500z"/><path fill="#d79dbd" d="M600 0h100v100H600z"/><path fill="#d3a6c4" d="M700 0h100v100H700z"/><path fill="#dca7c3" d="M0 100h100v100H0z"/><path fill="#e6a3bf" d="M100 100h100v100H100z"/><path fill="#ca9bbe" d="M200 100h100v100H200z"/><path fill="#cc9fc0" d="M300 100h100v100H300z"/><path fill="#bf94bb" d="M400 100h100v100H400z"/><path fill="#dca3c1" d="M500 100h100v100H500z"/><path fill="#ce9cbd" d="M600 100h100v100H600z"/><path fill="#c69ec0" d="M700 100h100v100H700z"/><path fill="#dea4c1" d="M0 200h100v100H0z"/><path fill="#e5a5c0" d="M100 200h100v100H100z"/><path fill="#d7a0c0" d="M200 200h100v100H200z"/><path fill="#c795bd" d="M300 200h100v100H300z"/><path fill="#cd9abe" d="M400 200h100v100H400z"/><path fill="#e6a6c2" d="M500 200h100v100H500z"/><path fill="#d59fbf" d="M600 200h100v100H600z"/><path fill="#be96bc" d="M700 200h100v100H700z"/><path fill="#e9a7c1" d="M0 300h100v100H0z"/><path fill="#daa1c0" d="M100 300h100v100H100z"/><path fill="#c092bc" d="M200 300h100v100H200z"/><path fill="#e39dbe" d="M300 300h100v100H300z"/><path fill="#f2a8c1" d="M400 300h100v100H400z"/><path fill="#f7aac2" d="M500 300h100v100H500z"/><path fill="#eda8c1" d="M600 300h100v100H600z"/><path fill="#cb9cbf" d="M700 300h100v100H700z"/></svg>