<svg xmlns="http://www.w3.org/2000/svg" viewBox="0 0 800 500"><defs/><path fill="#44601c" d="M0 0h100v100H0z"/><path fill="#43631f" d="M100 0h100v100H100z"/><path fill="#52694b" d="M200 0h100v100H200z"/><path fill="#637a5e" d="M300 0h100v100H300z"/><path fill="#67785a" d="M400 0h100v100H400z"/><path fill="#546e32" d="M500 0h100v100H500z"/><path fill="#3f5d17" d="M600 0h100v100H600z"/><path fill="#3f5528" d="M700 0h100v100H700z"/><path fill="#416318" d="M0 100h100v100H0z"/><path fill="#566c3e" d="M100 100h100v100H100z"/><path fill="#807c87" d="M200 100h100v100H200z"/><path fill="#827f88" d="M300 100h100v100H300z"/><path fill="#7f7a8a" d="M400 100h100v100H400z"/><path fill="#636f5d" d="M500 100h100v100H500z"/><path fill="#3f5f18" d="M600 100h100v100H600z"/><path fill="#3d5619" d="M700 100h100v100H700z"/><path fill="#3b5c15" d="M0 200h100v100H0z"/><path fill="#5e6d4b" d="M100 200h100v100H100z"/><path fill="#716b7e" d="M200 200h100v100H200z"/><path fill="#6c6973" d="M300 200h100v100H300z"/><path fill="#6b6473" d="M400 200h100v100H400z"/><path fill="#566162" d="M500 200h100v100H500z"/><path fill="#35541d" d="M600 200h100v100H600z"/><path fill="#41561b" d="M700 200h100v100H700z"/><path fill="#45651d" d="M0 300h100v100H0z"/><path fill="#4b6623" d="M100 300h100v100H100z"/><path fill="#546538" d="M200 300h100v100H200z"/><path fill="#57693d" d="M300 300h100v100H300z"/><path fill="#465b3c" d="M400 300h100v100H400z"/><path fill="#2f4f30" d="M500 300h100v100H500z"/><path fill="#2a4c20" d="M600 300h100v100H600z"/><path fill="#384f22" d="M700 300h100v100H700z"/><path fill="#45641e" d="M0 400h100v100H0z"/><path fill="#496a1e" d="M100 400h100v100H100z"/><path fill="#466919" d="M200 400h100v100H200z"/><path fill="#406316" d="M300 400h100v100H300z"/><path fill="#385914" d="M400 400h100v100H400z"/><path fill="#2f551c" d="M500 400h100v100H500z"/><path fill="#2a4f23" d="M600 400h100v100H600z"/><path fill="#305524" d="M700 400h100v100H700z"/></svg>