<svg xmlns="http://www.w3.org/2000/svg" viewBox="0 0 800 400"><defs/><path fill="#7f7273" d="M0 0h100v100H0z"/><path fill="#7e6759" d="M100 0h100v100H100z"/><path fill="#8a8b8a" d="M200 0h100v100H200z"/><path fill="#9d988d" d="M300 0h100v100H300z"/><path fill="#a08b57" d="M400 0h100v100H400z"/><path fill="#a6a595" d="M500 0h100v100H500z"/><path fill="#9b908a" d="M600 0h100v100H600z"/><path fill="#876e6f" d="M700 0h100v100H700z"/><path fill="#78656b" d="M0 100h100v100H0z"/><path fill="#846554" d="M100 100h100v100H100z"/><path fill="#7b8579" d="M200 100h100v100H200z"/><path fill="#8d8e81" d="M300 100h100v100H300z"/><path fill="#98927a" d="M400 100h100v100H400z"/><path fill="#979789" d="M500 100h100v100H500z"/><path fill="#857871" d="M600 100h100v100H600z"/><path fill="#7a6d6f" d="M700 100h100v100H700z"/><path fill="#86706e" d="M0 200h100v100H0z"/><path fill="#856e67" d="M100 200h100v100H100z"/><path fill="#796977" d="M200 200h100v100H200z"/><path fill="#7e7469" d="M300 200h100v100H300z"/><path fill="#908575" d="M400 200h100v100H400z"/><path fill="#99876b" d="M500 200h100v100H500z"/><path fill="#81654d" d="M600 200h100v100H600z"/><path fill="#8a7b6e" d="M700 200h100v100H700z"/><path fill="#8d7a71" d="M0 300h100v100H0z"/><path fill="#8c7770" d="M100 300h100v100H100z"/><path fill="#5f5488" d="M200 300h100v100H200z"/><path fill="#757879" d="M300 300h100v100H300z"/><path fill="#8a8d8d" d="M400 300h100v100H400z"/><path fill="#96908d" d="M500 300h100v100H500z"/><path fill="#978470" d="M600 300h100v100H600z"/><path fill="#938374" d="M700 300h100v100H700z"/></svg>