<svg xmlns="http://www.w3.org/2000/svg" viewBox="0 0 800 400"><defs/><path fill="#efeeee" d="M0 0h100v100H0z"/><path fill="#dededd" d="M100 0h100v100H100z"/><path fill="#ebebea" d="M200 0h100v100H200z"/><path fill="#eee" d="M300 0h100v100H300z"/><path fill="#efefef" d="M400 0h100v100H400z"/><path fill="#ebebea" d="M500 0h100v100H500z"/><path fill="#eaeae9" d="M600 0h100v100H600z"/><path fill="#f7f6f6" d="M700 0h100v100H700z"/><path fill="#e3e2e2" d="M0 100h100v100H0z"/><path fill="#cccbca" d="M100 100h100v100H100z"/><path fill="#efefee" d="M200 100h100v100H200z"/><path fill="#f0f0f0" d="M300 100h100v100H300z"/><path fill="#eae9e9" d="M400 100h100v100H400z"/><path fill="#dadad8" d="M500 100h100v100H500z"/><path fill="#d3d3d1" d="M600 100h100v100H600z"/><path fill="#e7e7e6" d="M700 100h100v100H700z"/><path fill="#e5e5e5" d="M0 200h100v100H0z"/><path fill="#cdcccb" d="M100 200h100v100H100z"/><path fill="#e9e8e8" d="M200 200h100v100H200z"/><path fill="#cbcbc9" d="M300 200h100v100H300z"/><path fill="#e3e3e2" d="M400 200h100v100H400z"/><path fill="#d3d2d1" d="M500 200h100v100H500z"/><path fill="#d5d4d4" d="M600 200h100v100H600z"/><path fill="#e2e1e1" d="M700 200h100v100H700z"/><path fill="#e8e8e7" d="M0 300h100v100H0zm100 0h100v100H100z"/><path fill="#f3f3f3" d="M200 300h100v100H200z"/><path fill="#ebebeb" d="M300 300h100v100H300z"/><path fill="#f2f1f1" d="M400 300h100v100H400z"/><path fill="#d6d5d4" d="M500 300h100v100H500z"/><path fill="#f2f2f1" d="M600 300h100v100H600z"/><path fill="#e8e7e7" d="M700 300h100v100H700z"/></svg>