<svg xmlns="http://www.w3.org/2000/svg" viewBox="0 0 800 500"><defs/><path fill="#afaca0" d="M0 0h100v100H0z"/><path fill="#a59b8f" d="M100 0h100v100H100z"/><path fill="#9a8e84" d="M200 0h100v100H200z"/><path fill="#9b8d84" d="M300 0h100v100H300z"/><path fill="#a5a29b" d="M400 0h100v100H400z"/><path fill="#b8b3b2" d="M500 0h100v100H500z"/><path fill="#c1c2c7" d="M600 0h100v100H600z"/><path fill="#c7cbcf" d="M700 0h100v100H700z"/><path fill="#b6b4ac" d="M0 100h100v100H0z"/><path fill="#9c9084" d="M100 100h100v100H100z"/><path fill="#938077" d="M200 100h100v100H200z"/><path fill="#9c8379" d="M300 100h100v100H300z"/><path fill="#a4978d" d="M400 100h100v100H400z"/><path fill="#919690" d="M500 100h100v100H500z"/><path fill="#9aa5a0" d="M600 100h100v100H600z"/><path fill="#c8cbd0" d="M700 100h100v100H700z"/><path fill="#bab9b4" d="M0 200h100v100H0z"/><path fill="#8c887c" d="M100 200h100v100H100z"/><path fill="#a09b90" d="M200 200h100v100H200z"/><path fill="#b9a098" d="M300 200h100v100H300z"/><path fill="#c2babc" d="M400 200h100v100H400z"/><path fill="#879f92" d="M500 200h100v100H500z"/><path fill="#789487" d="M600 200h100v100H600z"/><path fill="#bec0c8" d="M700 200h100v100H700z"/><path fill="#b1aca7" d="M0 300h100v100H0z"/><path fill="#97918c" d="M100 300h100v100H100z"/><path fill="#848181" d="M200 300h100v100H200z"/><path fill="#88746b" d="M300 300h100v100H300z"/><path fill="#956c58" d="M400 300h100v100H400z"/><path fill="#8f9492" d="M500 300h100v100H500z"/><path fill="#a8ada8" d="M600 300h100v100H600z"/><path fill="#b1b4b7" d="M700 300h100v100H700z"/><path fill="#b7b7b3" d="M0 400h100v100H0z"/><path fill="#a19e9c" d="M100 400h100v100H100z"/><path fill="#746970" d="M200 400h100v100H200z"/><path fill="#888581" d="M300 400h100v100H300z"/><path fill="#7c6f5f" d="M400 400h100v100H400z"/><path fill="#959496" d="M500 400h100v100H500z"/><path fill="#a39993" d="M600 400h100v100H600z"/><path fill="#a5a1a0" d="M700 400h100v100H700z"/></svg>