<svg xmlns="http://www.w3.org/2000/svg" viewBox="0 0 800 500"><defs/><path fill="#3b342a" d="M0 0h100v100H0z"/><path fill="#3f2d25" d="M100 0h100v100H100z"/><path fill="#383331" d="M200 0h100v100H200z"/><path fill="#2b211a" d="M300 0h100v100H300z"/><path fill="#2b2a29" d="M400 0h100v100H400z"/><path fill="#3e3c35" d="M500 0h100v100H500z"/><path fill="#383431" d="M600 0h100v100H600z"/><path fill="#2b2620" d="M700 0h100v100H700z"/><path fill="#917c64" d="M0 100h100v100H0z"/><path fill="#c18e57" d="M100 100h100v100H100z"/><path fill="#989c90" d="M200 100h100v100H200z"/><path fill="#5f7b7e" d="M300 100h100v100H300z"/><path fill="#9da6a3" d="M400 100h100v100H400z"/><path fill="#857664" d="M500 100h100v100H500z"/><path fill="#97a895" d="M600 100h100v100H600z"/><path fill="#a19380" d="M700 100h100v100H700z"/><path fill="#5c4a3a" d="M0 200h100v100H0z"/><path fill="#a76c39" d="M100 200h100v100H100z"/><path fill="#947d65" d="M200 200h100v100H200z"/><path fill="#7d6c6a" d="M300 200h100v100H300z"/><path fill="#9f6f59" d="M400 200h100v100H400z"/><path fill="#6c7947" d="M500 200h100v100H500z"/><path fill="#879e72" d="M600 200h100v100H600z"/><path fill="#71675c" d="M700 200h100v100H700z"/><path fill="#3e2b1d" d="M0 300h100v100H0z"/><path fill="#9d6228" d="M100 300h100v100H100z"/><path fill="#754b24" d="M200 300h100v100H200z"/><path fill="#4e5140" d="M300 300h100v100H300z"/><path fill="#6a715f" d="M400 300h100v100H400z"/><path fill="#9f823d" d="M500 300h100v100H500z"/><path fill="#aa9472" d="M600 300h100v100H600z"/><path fill="#615245" d="M700 300h100v100H700z"/><path fill="#24150b" d="M0 400h100v100H0z"/><path fill="#6d4721" d="M100 400h100v100H100z"/><path fill="#5e462c" d="M200 400h100v100H200z"/><path fill="#59685c" d="M300 400h100v100H300z"/><path fill="#6d7360" d="M400 400h100v100H400z"/><path fill="#8d4b28" d="M500 400h100v100H500z"/><path fill="#844420" d="M600 400h100v100H600z"/><path fill="#3a1f10" d="M700 400h100v100H700z"/></svg>