<svg xmlns="http://www.w3.org/2000/svg" viewBox="0 0 800 400"><defs/><path fill="#4a291a" d="M0 0h100v100H0z"/><path fill="#311a0f" d="M100 0h100v100H100z"/><path fill="#583321" d="M200 0h100v100H200z"/><path fill="#70412a" d="M300 0h100v100H300z"/><path fill="#76422a" d="M400 0h100v100H400z"/><path fill="#9d6544" d="M500 0h100v100H500z"/><path fill="#9e6041" d="M600 0h100v100H600z"/><path fill="#703a26" d="M700 0h100v100H700z"/><path fill="#432517" d="M0 100h100v100H0z"/><path fill="#2f1a0f" d="M100 100h100v100H100z"/><path fill="#4f3423" d="M200 100h100v100H200z"/><path fill="#5d3a26" d="M300 100h100v100H300z"/><path fill="#663c26" d="M400 100h100v100H400z"/><path fill="#b17c4d" d="M500 100h100v100H500z"/><path fill="#b67b4a" d="M600 100h100v100H600z"/><path fill="#79442c" d="M700 100h100v100H700z"/><path fill="#362013" d="M0 200h100v100H0z"/><path fill="#26140c" d="M100 200h100v100H100z"/><path fill="#392217" d="M200 200h100v100H200z"/><path fill="#2b180d" d="M300 200h100v100H300z"/><path fill="#371d11" d="M400 200h100v100H400z"/><path fill="#915d35" d="M500 200h100v100H500z"/><path fill="#a36c3e" d="M600 200h100v100H600z"/><path fill="#5a3622" d="M700 200h100v100H700z"/><path fill="#2a180f" d="M0 300h100v100H0z"/><path fill="#2d190f" d="M100 300h100v100H100z"/><path fill="#382113" d="M200 300h100v100H200z"/><path fill="#5a3b24" d="M300 300h100v100H300z"/><path fill="#69462c" d="M400 300h100v100H400z"/><path fill="#3e2917" d="M500 300h100v100H500z"/><path fill="#543921" d="M600 300h100v100H600z"/><path fill="#372012" d="M700 300h100v100H700z"/></svg>