<svg xmlns="http://www.w3.org/2000/svg" viewBox="0 0 800 600"><defs/><path fill="#4a495d" d="M0 0h100v100H0z"/><path fill="#0e0d12" d="M100 0h100v100H100z"/><path fill="#221e2f" d="M200 0h100v100H200z"/><path fill="#353245" d="M300 0h100v100H300z"/><path fill="#29263c" d="M400 0h100v100H400z"/><path fill="#212136" d="M500 0h100v100H500z"/><path fill="#1d1d31" d="M600 0h100v100H600z"/><path fill="#1d1a2c" d="M700 0h100v100H700z"/><path fill="#1f1d20" d="M0 100h100v100H0z"/><path fill="#0e0d1e" d="M100 100h100v100H100z"/><path fill="#685f74" d="M200 100h100v100H200z"/><path fill="#988b86" d="M300 100h100v100H300z"/><path fill="#9e988e" d="M400 100h100v100H400z"/><path fill="#9e9187" d="M500 100h100v100H500z"/><path fill="#8e807a" d="M600 100h100v100H600z"/><path fill="#746f6a" d="M700 100h100v100H700z"/><path fill="#181619" d="M0 200h100v100H0z"/><path fill="#171629" d="M100 200h100v100H100z"/><path fill="#a8a0a5" d="M200 200h100v100H200z"/><path fill="#947e7d" d="M300 200h100v100H300z"/><path fill="#c2b7ac" d="M400 200h100v100H400z"/><path fill="#ded3c2" d="M500 200h100v100H500z"/><path fill="#c6c8ae" d="M600 200h100v100H600z"/><path fill="#dcd0bc" d="M700 200h100v100H700z"/><path fill="#2c2227" d="M0 300h100v100H0z"/><path fill="#212130" d="M100 300h100v100H100z"/><path fill="#b1a9a4" d="M200 300h100v100H200z"/><path fill="#73707c" d="M300 300h100v100H300z"/><path fill="#949190" d="M400 300h100v100H400z"/><path fill="#f2ecdb" d="M500 300h100v100H500z"/><path fill="#cdcab9" d="M600 300h100v100H600z"/><path fill="#e6dbc7" d="M700 300h100v100H700z"/><path fill="#332629" d="M0 400h100v100H0z"/><path fill="#27222d" d="M100 400h100v100H100z"/><path fill="#1c1927" d="M200 400h100v100H200z"/><path fill="#212033" d="M300 400h100v100H300z"/><path fill="#3e3d49" d="M400 400h100v100H400z"/><path fill="#9a9695" d="M500 400h100v100H500z"/><path fill="#c1bab0" d="M600 400h100v100H600z"/><path fill="#e2dac8" d="M700 400h100v100H700z"/><path fill="#2b1e20" d="M0 500h100v100H0z"/><path fill="#19161b" d="M100 500h100v100H100z"/><path fill="#090a0d" d="M200 500h100v100H200z"/><path fill="#272530" d="M300 500h100v100H300z"/><path fill="#22212c" d="M400 500h100v100H400z"/><path fill="#151220" d="M500 500h100v100H500z"/><path fill="#1f1b28" d="M600 500h100v100H600z"/><path fill="#3b363f" d="M700 500h100v100H700z"/></svg>