<svg xmlns="http://www.w3.org/2000/svg" viewBox="0 0 800 1100"><defs/><path fill="#cfceca" d="M0 0h100v100H0z"/><path fill="#d3d1cd" d="M100 0h100v100H100z"/><path fill="#dad8d3" d="M200 0h100v100H200z"/><path fill="#e1dfda" d="M300 0h100v100H300z"/><path fill="#e4e3dc" d="M400 0h100v100H400z"/><path fill="#dedbd4" d="M500 0h100v100H500z"/><path fill="#e0dcd6" d="M600 0h100v100H600z"/><path fill="#dbd8d1" d="M700 0h100v100H700z"/><path fill="#dad9d4" d="M0 100h100v100H0z"/><path fill="#e8e6e1" d="M100 100h100v100H100z"/><path fill="#f6f5f3" d="M200 100h100v100H200z"/><path fill="#f0efee" d="M300 100h100v100H300z"/><path fill="#f2f1ef" d="M400 100h100v100H400z"/><path fill="#f2f1ee" d="M500 100h100v100H500z"/><path fill="#f2efe8" d="M600 100h100v100H600z"/><path fill="#e9e5de" d="M700 100h100v100H700z"/><path fill="#d0cec8" d="M0 200h100v100H0z"/><path fill="#cacac6" d="M100 200h100v100H100z"/><path fill="#e9e9e8" d="M200 200h100v100H200z"/><path fill="#d6d5d3" d="M300 200h100v100H300z"/><path fill="#dad9d6" d="M400 200h100v100H400z"/><path fill="#d0cfcc" d="M500 200h100v100H500z"/><path fill="#cccac4" d="M600 200h100v100H600z"/><path fill="#f7f2e8" d="M700 200h100v100H700z"/><path fill="#e2e0da" d="M0 300h100v100H0z"/><path fill="#c8c7c3" d="M100 300h100v100H100z"/><path fill="#d7d6d3" d="M200 300h100v100H200z"/><path fill="#d0cfcc" d="M300 300h100v100H300z"/><path fill="#d2d0ce" d="M400 300h100v100H400z"/><path fill="#cfccc9" d="M500 300h100v100H500z"/><path fill="#c7c5bf" d="M600 300h100v100H600z"/><path fill="#f3f0e6" d="M700 300h100v100H700z"/><path fill="#d2d1cc" d="M0 400h100v100H0z"/><path fill="#c7c5c2" d="M100 400h100v100H100z"/><path fill="#d6d6d2" d="M200 400h100v100H200z"/><path fill="#e1e0dd" d="M300 400h100v100H300z"/><path fill="#e6e4e2" d="M400 400h100v100H400z"/><path fill="#eae9e8" d="M500 400h100v100H500z"/><path fill="#cfccc6" d="M600 400h100v100H600z"/><path fill="#d4cfc4" d="M700 400h100v100H700z"/><path fill="#d4d3cd" d="M0 500h100v100H0z"/><path fill="#ccccc7" d="M100 500h100v100H100z"/><path fill="#dddcd9" d="M200 500h100v100H200z"/><path fill="#dddbd9" d="M300 500h100v100H300z"/><path fill="#ceccc9" d="M400 500h100v100H400z"/><path fill="#cecdc9" d="M500 500h100v100H500z"/><path fill="#d4d3cd" d="M600 500h100v100H600z"/><path fill="#cfcac0" d="M700 500h100v100H700z"/><path fill="#e3e0d9" d="M0 600h100v100H0z"/><path fill="#d0cdc6" d="M100 600h100v100H100z"/><path fill="#d0cfcb" d="M200 600h100v100H200z"/><path fill="#d5d3d1" d="M300 600h100v100H300z"/><path fill="#cdcbc7" d="M400 600h100v100H400z"/><path fill="#cecdc8" d="M500 600h100v100H500z"/><path fill="#c7c3b8" d="M600 600h100v100H600z"/><path fill="#f0e9dc" d="M700 600h100v100H700z"/><path fill="#e3e0d7" d="M0 700h100v100H0z"/><path fill="#ceccc3" d="M100 700h100v100H100z"/><path fill="#e0dfdb" d="M200 700h100v100H200z"/><path fill="#e3e2de" d="M300 700h100v100H300z"/><path fill="#eae9e5" d="M400 700h100v100H400z"/><path fill="#e6e4de" d="M500 700h100v100H500z"/><path fill="#d5d1c6" d="M600 700h100v100H600z"/><path fill="#efe9da" d="M700 700h100v100H700z"/><path fill="#d8d4cd" d="M0 800h100v100H0z"/><path fill="#c2c0b8" d="M100 800h100v100H100z"/><path fill="#d2d0c8" d="M200 800h100v100H200z"/><path fill="#e2e1da" d="M300 800h100v100H300z"/><path fill="#dadad4" d="M400 800h100v100H400z"/><path fill="#cecdc3" d="M500 800h100v100H500z"/><path fill="#d9d5c9" d="M600 800h100v100H600z"/><path fill="#e1dbcd" d="M700 800h100v100H700z"/><path fill="#c8c5c1" d="M0 900h100v100H0z"/><path fill="#dcd7d2" d="M100 900h100v100H100z"/><path fill="#d5d1c9" d="M200 900h100v100H200z"/><path fill="#dbd7ce" d="M300 900h100v100H300z"/><path fill="#eae8de" d="M400 900h100v100H400z"/><path fill="#e5e1d8" d="M500 900h100v100H500z"/><path fill="#d4cec4" d="M600 900h100v100H600z"/><path fill="#d0cbbf" d="M700 900h100v100H700z"/><path fill="#aeadae" d="M0 1000h100v100H0z"/><path fill="#bcbab8" d="M100 1000h100v100H100z"/><path fill="#c9c6c2" d="M200 1000h100v100H200z"/><path fill="#cecac4" d="M300 1000h100v100H300z"/><path fill="#d2cec7" d="M400 1000h100v100H400z"/><path fill="#ccc8bf" d="M500 1000h100v100H500z"/><path fill="#cec9c0" d="M600 1000h100v100H600z"/><path fill="#cac6bc" d="M700 1000h100v100H700z"/></svg>