<svg xmlns="http://www.w3.org/2000/svg" viewBox="0 0 800 600"><defs/><path fill="#cec8c3" d="M0 0h100v100H0z"/><path fill="#e1dbd5" d="M100 0h100v100H100z"/><path fill="#d2cbc4" d="M200 0h100v100H200z"/><path fill="#cfc8c1" d="M300 0h100v100H300z"/><path fill="#d1cbc6" d="M400 0h100v100H400z"/><path fill="#d3ccc8" d="M500 0h100v100H500z"/><path fill="#d1cac5" d="M600 0h100v100H600z"/><path fill="#ddd5ce" d="M700 0h100v100H700z"/><path fill="#735d4f" d="M0 100h100v100H0z"/><path fill="#86745b" d="M100 100h100v100H100z"/><path fill="#433426" d="M200 100h100v100H200z"/><path fill="#412e1f" d="M300 100h100v100H300z"/><path fill="#493928" d="M400 100h100v100H400z"/><path fill="#4d3d2a" d="M500 100h100v100H500z"/><path fill="#47290d" d="M600 100h100v100H600z"/><path fill="#8b7868" d="M700 100h100v100H700z"/><path fill="#867668" d="M0 200h100v100H0z"/><path fill="#746653" d="M100 200h100v100H100z"/><path fill="#4d433d" d="M200 200h100v100H200z"/><path fill="#5f524a" d="M300 200h100v100H300z"/><path fill="#645747" d="M400 200h100v100H400z"/><path fill="#a5887d" d="M500 200h100v100H500z"/><path fill="#74594f" d="M600 200h100v100H600z"/><path fill="#9f9e91" d="M700 200h100v100H700z"/><path fill="#847360" d="M0 300h100v100H0z"/><path fill="#796652" d="M100 300h100v100H100z"/><path fill="#49433f" d="M200 300h100v100H200z"/><path fill="#6a625e" d="M300 300h100v100H300z"/><path fill="#7c684d" d="M400 300h100v100H400z"/><path fill="#967675" d="M500 300h100v100H500z"/><path fill="#7b5b57" d="M600 300h100v100H600z"/><path fill="#7e7866" d="M700 300h100v100H700z"/><path fill="#978671" d="M0 400h100v100H0z"/><path fill="#927858" d="M100 400h100v100H100z"/><path fill="#a48765" d="M200 400h100v100H200z"/><path fill="#c4a27f" d="M300 400h100v100H300z"/><path fill="#dbb288" d="M400 400h100v100H400z"/><path fill="#bbab90" d="M500 400h100v100H500z"/><path fill="#9f9087" d="M600 400h100v100H600z"/><path fill="#af9281" d="M700 400h100v100H700z"/><path fill="#eeeae4" d="M0 500h100v100H0z"/><path fill="#ece6de" d="M100 500h100v100H100z"/><path fill="#fbf4ed" d="M200 500h100v100H200z"/><path fill="#f9f1e9" d="M300 500h100v100H300z"/><path fill="#f9f0e6" d="M400 500h100v100H400z"/><path fill="#f0efec" d="M500 500h100v100H500z"/><path fill="#dedbe7" d="M600 500h100v100H600z"/><path fill="#f1eaec" d="M700 500h100v100H700z"/></svg>