<svg xmlns="http://www.w3.org/2000/svg" viewBox="0 0 800 500"><defs/><path fill="#dbd0d6" d="M0 0h100v100H0z"/><path fill="#b5a1af" d="M100 0h100v100H100z"/><path fill="#b8a0bf" d="M200 0h100v100H200z"/><path fill="#c8b0c7" d="M300 0h100v100H300z"/><path fill="#d9cdd3" d="M400 0h100v100H400z"/><path fill="#e5dfe1" d="M500 0h100v100H500z"/><path fill="#dccedb" d="M600 0h100v100H600z"/><path fill="#dfd4de" d="M700 0h100v100H700z"/><path fill="#a88896" d="M0 100h100v100H0z"/><path fill="#818581" d="M100 100h100v100H100z"/><path fill="#a9adb7" d="M200 100h100v100H200z"/><path fill="#dfcade" d="M300 100h100v100H300z"/><path fill="#e4d3d6" d="M400 100h100v100H400z"/><path fill="#d5d5c6" d="M500 100h100v100H500z"/><path fill="#afa4c3" d="M600 100h100v100H600z"/><path fill="#ac81a0" d="M700 100h100v100H700z"/><path fill="#9b8aa2" d="M0 200h100v100H0z"/><path fill="#7d8582" d="M100 200h100v100H100z"/><path fill="#bbc4b6" d="M200 200h100v100H200z"/><path fill="#f0e0ec" d="M300 200h100v100H300z"/><path fill="#f5e9e8" d="M400 200h100v100H400z"/><path fill="#f1eff0" d="M500 200h100v100H500z"/><path fill="#cfced8" d="M600 200h100v100H600z"/><path fill="#ae8fa8" d="M700 200h100v100H700z"/><path fill="#9c839e" d="M0 300h100v100H0z"/><path fill="#897a8a" d="M100 300h100v100H100z"/><path fill="#b6a9b0" d="M200 300h100v100H200z"/><path fill="#cec5cf" d="M300 300h100v100H300z"/><path fill="#dbcbc5" d="M400 300h100v100H400z"/><path fill="#bcbab9" d="M500 300h100v100H500z"/><path fill="#a9a9b3" d="M600 300h100v100H600z"/><path fill="#9d98a6" d="M700 300h100v100H700z"/><path fill="#bbadbf" d="M0 400h100v100H0z"/><path fill="#bfafc0" d="M100 400h100v100H100z"/><path fill="#bbb4c0" d="M200 400h100v100H200z"/><path fill="#adb0bc" d="M300 400h100v100H300z"/><path fill="#bbb9bd" d="M400 400h100v100H400z"/><path fill="#beb2bc" d="M500 400h100v100H500z"/><path fill="#ada4b6" d="M600 400h100v100H600z"/><path fill="#a6a2af" d="M700 400h100v100H700z"/></svg>