<svg xmlns="http://www.w3.org/2000/svg" viewBox="0 0 800 500"><defs/><path fill="#e5dfd9" d="M0 0h100v100H0z"/><path fill="#cdc1b9" d="M100 0h100v100H100z"/><path fill="#c9bbb4" d="M200 0h100v100H200z"/><path fill="#c7c6c1" d="M300 0h100v100H300z"/><path fill="#dee2e3" d="M400 0h100v100H400z"/><path fill="#e0e2e3" d="M500 0h100v100H500z"/><path fill="#e5e9e8" d="M600 0h100v100H600z"/><path fill="#eef0ec" d="M700 0h100v100H700z"/><path fill="#d6c8c0" d="M0 100h100v100H0z"/><path fill="#ba907d" d="M100 100h100v100H100z"/><path fill="#a68071" d="M200 100h100v100H200z"/><path fill="#786863" d="M300 100h100v100H300z"/><path fill="#b1aeb1" d="M400 100h100v100H400z"/><path fill="#ccc3c4" d="M500 100h100v100H500z"/><path fill="#d0d5d1" d="M600 100h100v100H600z"/><path fill="#eaede9" d="M700 100h100v100H700z"/><path fill="#d3cdd2" d="M0 200h100v100H0z"/><path fill="#8d6356" d="M100 200h100v100H100z"/><path fill="#8f949d" d="M200 200h100v100H200z"/><path fill="#ab9eb5" d="M300 200h100v100H300z"/><path fill="#b39595" d="M400 200h100v100H400z"/><path fill="#979195" d="M500 200h100v100H500z"/><path fill="#c4bf9f" d="M600 200h100v100H600z"/><path fill="#f0f2ea" d="M700 200h100v100H700z"/><path fill="#ddd7df" d="M0 300h100v100H0z"/><path fill="#80574e" d="M100 300h100v100H100z"/><path fill="#abaaad" d="M200 300h100v100H200z"/><path fill="#b0bbb8" d="M300 300h100v100H300z"/><path fill="#a39d92" d="M400 300h100v100H400z"/><path fill="#b7bcc5" d="M500 300h100v100H500z"/><path fill="#afaca5" d="M600 300h100v100H600z"/><path fill="#bab7a8" d="M700 300h100v100H700z"/><path fill="#dfd7d7" d="M0 400h100v100H0z"/><path fill="#b2a4a4" d="M100 400h100v100H100z"/><path fill="#e6e2e2" d="M200 400h100v100H200z"/><path fill="#aca499" d="M300 400h100v100H300z"/><path fill="#beb9ad" d="M400 400h100v100H400z"/><path fill="#d5d8d9" d="M500 400h100v100H500z"/><path fill="#aeac9e" d="M600 400h100v100H600z"/><path fill="#b2afa1" d="M700 400h100v100H700z"/></svg>