<svg xmlns="http://www.w3.org/2000/svg" viewBox="0 0 800 600"><defs/><path fill="#357995" d="M0 0h100v100H0z"/><path fill="#939c8c" d="M100 0h100v100H100z"/><path fill="#4a7648" d="M200 0h100v100H200z"/><path fill="#378772" d="M300 0h100v100H300z"/><path fill="#257c91" d="M400 0h100v100H400z"/><path fill="#40a45c" d="M500 0h100v100H500z"/><path fill="#4a9253" d="M600 0h100v100H600z"/><path fill="#578190" d="M700 0h100v100H700z"/><path fill="#427f94" d="M0 100h100v100H0z"/><path fill="#99a695" d="M100 100h100v100H100z"/><path fill="#7da578" d="M200 100h100v100H200z"/><path fill="#6bae86" d="M300 100h100v100H300z"/><path fill="#6db097" d="M400 100h100v100H400z"/><path fill="#7fc186" d="M500 100h100v100H500z"/><path fill="#6ba67f" d="M600 100h100v100H600z"/><path fill="#86a39f" d="M700 100h100v100H700z"/><path fill="#537a75" d="M0 200h100v100H0z"/><path fill="#8da088" d="M100 200h100v100H100z"/><path fill="#6b9ca8" d="M200 200h100v100H200z"/><path fill="#aed9b0" d="M300 200h100v100H300z"/><path fill="#8fd2b6" d="M400 200h100v100H400z"/><path fill="#8fc6d9" d="M500 200h100v100H500z"/><path fill="#9cbbae" d="M600 200h100v100H600z"/><path fill="#6e918f" d="M700 200h100v100H700z"/><path fill="#5f7a75" d="M0 300h100v100H0z"/><path fill="#90a08f" d="M100 300h100v100H100z"/><path fill="#839096" d="M200 300h100v100H200z"/><path fill="#bfd1dc" d="M300 300h100v100H300z"/><path fill="#a1b59e" d="M400 300h100v100H400z"/><path fill="#bcc0b4" d="M500 300h100v100H500z"/><path fill="#aac8c0" d="M600 300h100v100H600z"/><path fill="#89b5b9" d="M700 300h100v100H700z"/><path fill="#8a9785" d="M0 400h100v100H0z"/><path fill="#96ad92" d="M100 400h100v100H100z"/><path fill="#c2cbd6" d="M200 400h100v100H200z"/><path fill="#75b1c0" d="M300 400h100v100H300z"/><path fill="#80b7bb" d="M400 400h100v100H400z"/><path fill="#c1caae" d="M500 400h100v100H500z"/><path fill="#c2cfbd" d="M600 400h100v100H600z"/><path fill="#c6cdbd" d="M700 400h100v100H700z"/><path fill="#647b78" d="M0 500h100v100H0z"/><path fill="#9aaea5" d="M100 500h100v100H100z"/><path fill="#adbfd0" d="M200 500h100v100H200z"/><path fill="#6b8f86" d="M300 500h100v100H300z"/><path fill="#8b9d8a" d="M400 500h100v100H400z"/><path fill="#659b70" d="M500 500h100v100H500z"/><path fill="#919d84" d="M600 500h100v100H600z"/><path fill="#908e74" d="M700 500h100v100H700z"/></svg>