<svg xmlns="http://www.w3.org/2000/svg" viewBox="0 0 800 600"><defs/><path fill="#eaecee" d="M0 0h100v100H0z"/><path fill="#e1e2e7" d="M100 0h100v100H100z"/><path fill="#e4e6ea" d="M200 0h100v100H200z"/><path fill="#e9e7ea" d="M300 0h100v100H300z"/><path fill="#e7e7ea" d="M400 0h100v100H400z"/><path fill="#e7e7e9" d="M500 0h100v100H500z"/><path fill="#e6e6ea" d="M600 0h100v100H600z"/><path fill="#e7e9ee" d="M700 0h100v100H700z"/><path fill="#cbc3b1" d="M0 100h100v100H0z"/><path fill="#978b78" d="M100 100h100v100H100z"/><path fill="#9e8e78" d="M200 100h100v100H200z"/><path fill="#a28971" d="M300 100h100v100H300z"/><path fill="#b5a595" d="M400 100h100v100H400z"/><path fill="#b19c8b" d="M500 100h100v100H500z"/><path fill="#afa188" d="M600 100h100v100H600z"/><path fill="#b5aa9c" d="M700 100h100v100H700z"/><path fill="#ccbfb0" d="M0 200h100v100H0z"/><path fill="#908169" d="M100 200h100v100H100z"/><path fill="#997c61" d="M200 200h100v100H200z"/><path fill="#997c5c" d="M300 200h100v100H300z"/><path fill="#ad8c70" d="M400 200h100v100H400z"/><path fill="#ada292" d="M500 200h100v100H500z"/><path fill="#a49070" d="M600 200h100v100H600z"/><path fill="#b3a28e" d="M700 200h100v100H700z"/><path fill="#c5c2b5" d="M0 300h100v100H0z"/><path fill="#8e8572" d="M100 300h100v100H100z"/><path fill="#ab8b6f" d="M200 300h100v100H200z"/><path fill="#b28b66" d="M300 300h100v100H300z"/><path fill="#a58773" d="M400 300h100v100H400z"/><path fill="#8c8a85" d="M500 300h100v100H500z"/><path fill="#8c7b6d" d="M600 300h100v100H600z"/><path fill="#ad9079" d="M700 300h100v100H700z"/><path fill="#bfc1b7" d="M0 400h100v100H0z"/><path fill="#857c67" d="M100 400h100v100H100z"/><path fill="#bd9c82" d="M200 400h100v100H200z"/><path fill="#bda58d" d="M300 400h100v100H300z"/><path fill="#a99985" d="M400 400h100v100H400z"/><path fill="#938473" d="M500 400h100v100H500z"/><path fill="#988475" d="M600 400h100v100H600z"/><path fill="#ac9f85" d="M700 400h100v100H700z"/><path fill="#d8d9db" d="M0 500h100v100H0z"/><path fill="#b6b5b6" d="M100 500h100v100H100z"/><path fill="#c8c2c6" d="M200 500h100v100H200z"/><path fill="#cbcac7" d="M300 500h100v100H300z"/><path fill="#ceccc8" d="M400 500h100v100H400z"/><path fill="#cecac4" d="M500 500h100v100H500z"/><path fill="#c9c2bd" d="M600 500h100v100H600z"/><path fill="#c4c7c2" d="M700 500h100v100H700z"/></svg>