<svg xmlns="http://www.w3.org/2000/svg" viewBox="0 0 800 400"><defs/><path fill="#c19564" d="M0 0h100v100H0z"/><path fill="#be955c" d="M100 0h100v100H100z"/><path fill="#c09652" d="M200 0h100v100H200z"/><path fill="#d2aa4e" d="M300 0h100v100H300z"/><path fill="#ddaf67" d="M400 0h100v100H400z"/><path fill="#ba965a" d="M500 0h100v100H500z"/><path fill="#b0854f" d="M600 0h100v100H600z"/><path fill="#d37342" d="M700 0h100v100H700z"/><path fill="#c09360" d="M0 100h100v100H0z"/><path fill="#b38851" d="M100 100h100v100H100z"/><path fill="#bd8b4f" d="M200 100h100v100H200z"/><path fill="#daa66d" d="M300 100h100v100H300z"/><path fill="#deaf61" d="M400 100h100v100H400z"/><path fill="#be884d" d="M500 100h100v100H500z"/><path fill="#b08b5a" d="M600 100h100v100H600z"/><path fill="#be945d" d="M700 100h100v100H700z"/><path fill="#c69a66" d="M0 200h100v100H0z"/><path fill="#c39d61" d="M100 200h100v100H100z"/><path fill="#e3aa4d" d="M200 200h100v100H200z"/><path fill="#e9c06b" d="M300 200h100v100H300z"/><path fill="#e7c269" d="M400 200h100v100H400z"/><path fill="#e69e40" d="M500 200h100v100H500z"/><path fill="#cea358" d="M600 200h100v100H600z"/><path fill="#b2955b" d="M700 200h100v100H700z"/><path fill="#c3925f" d="M0 300h100v100H0z"/><path fill="#bf8d5b" d="M100 300h100v100H100z"/><path fill="#c19a5a" d="M200 300h100v100H200z"/><path fill="#dbac5e" d="M300 300h100v100H300z"/><path fill="#bf9962" d="M400 300h100v100H400z"/><path fill="#c29f5f" d="M500 300h100v100H500z"/><path fill="#be9c61" d="M600 300h100v100H600z"/><path fill="#af8d62" d="M700 300h100v100H700z"/></svg>