<svg xmlns="http://www.w3.org/2000/svg" viewBox="0 0 800 400"><defs/><path fill="#bac1c1" d="M0 0h100v100H0z"/><path fill="#b9c3ba" d="M100 0h100v100H100z"/><path fill="#b9bcbb" d="M200 0h100v100H200z"/><path fill="#b3b9bc" d="M300 0h100v100H300z"/><path fill="#b0b8bb" d="M400 0h100v100H400z"/><path fill="#afb0af" d="M500 0h100v100H500z"/><path fill="#a79c8b" d="M600 0h100v100H600z"/><path fill="#a59882" d="M700 0h100v100H700z"/><path fill="#b1bdc0" d="M0 100h100v100H0z"/><path fill="#a5b8b6" d="M100 100h100v100H100z"/><path fill="#bdc1c2" d="M200 100h100v100H200z"/><path fill="#aeb4bb" d="M300 100h100v100H300z"/><path fill="#a5b1b9" d="M400 100h100v100H400z"/><path fill="#9a9790" d="M500 100h100v100H500z"/><path fill="#907e67" d="M600 100h100v100H600z"/><path fill="#826843" d="M700 100h100v100H700z"/><path fill="#b69f78" d="M0 200h100v100H0z"/><path fill="#a99974" d="M100 200h100v100H100z"/><path fill="#c3a483" d="M200 200h100v100H200z"/><path fill="#bc997a" d="M300 200h100v100H300z"/><path fill="#b08f77" d="M400 200h100v100H400z"/><path fill="#ad8b74" d="M500 200h100v100H500z"/><path fill="#ae8a72" d="M600 200h100v100H600z"/><path fill="#9b7454" d="M700 200h100v100H700z"/><path fill="#7c6a1f" d="M0 300h100v100H0z"/><path fill="#78681e" d="M100 300h100v100H100z"/><path fill="#816a20" d="M200 300h100v100H200z"/><path fill="#826a20" d="M300 300h100v100H300z"/><path fill="#7f6820" d="M400 300h100v100H400z"/><path fill="#77651d" d="M500 300h100v100H500z"/><path fill="#77661e" d="M600 300h100v100H600z"/><path fill="#756723" d="M700 300h100v100H700z"/></svg>