<svg xmlns="http://www.w3.org/2000/svg" viewBox="0 0 800 400"><defs/><path fill="#57c2d2" d="M0 0h100v100H0z"/><path fill="#1cb3cf" d="M100 0h100v100H100z"/><path fill="#acab87" d="M200 0h100v100H200z"/><path fill="#ff973e" d="M300 0h100v100H300z"/><path fill="#ec8f3e" d="M400 0h100v100H400z"/><path fill="#ec923f" d="M500 0h100v100H500z"/><path fill="#e27534" d="M600 0h100v100H600z"/><path fill="#ed713b" d="M700 0h100v100H700z"/><path fill="#5da8af" d="M0 100h100v100H0z"/><path fill="#519da3" d="M100 100h100v100H100z"/><path fill="#75a4a3" d="M200 100h100v100H200z"/><path fill="#a49485" d="M300 100h100v100H300z"/><path fill="#babbb0" d="M400 100h100v100H400z"/><path fill="#c4c4bc" d="M500 100h100v100H500z"/><path fill="#c5bfb2" d="M600 100h100v100H600z"/><path fill="#baa597" d="M700 100h100v100H700z"/><path fill="#89bfc2" d="M0 200h100v100H0z"/><path fill="#86baba" d="M100 200h100v100H100z"/><path fill="#9dc3c9" d="M200 200h100v100H200z"/><path fill="#d0d2d8" d="M300 200h100v100H300z"/><path fill="#dee6ea" d="M400 200h100v100H400z"/><path fill="#e2e9ef" d="M500 200h100v100H500z"/><path fill="#e6ecec" d="M600 200h100v100H600z"/><path fill="#dfe3e3" d="M700 200h100v100H700z"/><path fill="#f7f4f3" d="M0 300h100v100H0z"/><path fill="#eeece6" d="M100 300h100v100H100z"/><path fill="#d8e0e1" d="M200 300h100v100H200z"/><path fill="#c2c5c4" d="M300 300h100v100H300z"/><path fill="#bdc7ca" d="M400 300h100v100H400z"/><path fill="#979fa1" d="M500 300h100v100H500z"/><path fill="#a8b8b9" d="M600 300h100v100H600z"/><path fill="#66949c" d="M700 300h100v100H700z"/></svg>