<svg xmlns="http://www.w3.org/2000/svg" viewBox="0 0 800 400"><defs/><path fill="#514125" d="M0 0h100v100H0z"/><path fill="#6b4427" d="M100 0h100v100H100z"/><path fill="#614d30" d="M200 0h100v100H200z"/><path fill="#594d32" d="M300 0h100v100H300z"/><path fill="#837348" d="M400 0h100v100H400z"/><path fill="#72624e" d="M500 0h100v100H500z"/><path fill="#6c4831" d="M600 0h100v100H600z"/><path fill="#675c33" d="M700 0h100v100H700z"/><path fill="#4c3a2a" d="M0 100h100v100H0z"/><path fill="#513e27" d="M100 100h100v100H100z"/><path fill="#44373f" d="M200 100h100v100H200z"/><path fill="#56412f" d="M300 100h100v100H300z"/><path fill="#7c6d3d" d="M400 100h100v100H400z"/><path fill="#716045" d="M500 100h100v100H500z"/><path fill="#712721" d="M600 100h100v100H600z"/><path fill="#6b6046" d="M700 100h100v100H700z"/><path fill="#5f4b2a" d="M0 200h100v100H0z"/><path fill="#4a382d" d="M100 200h100v100H100z"/><path fill="#524349" d="M200 200h100v100H200z"/><path fill="#717c4b" d="M300 200h100v100H300z"/><path fill="#857b53" d="M400 200h100v100H400z"/><path fill="#7f693a" d="M500 200h100v100H500z"/><path fill="#554534" d="M600 200h100v100H600z"/><path fill="#696f5b" d="M700 200h100v100H700z"/><path fill="#6b5337" d="M0 300h100v100H0z"/><path fill="#574c28" d="M100 300h100v100H100z"/><path fill="#656044" d="M200 300h100v100H200z"/><path fill="#625f57" d="M300 300h100v100H300z"/><path fill="#616257" d="M400 300h100v100H400z"/><path fill="#696b3f" d="M500 300h100v100H500z"/><path fill="#52492c" d="M600 300h100v100H600z"/><path fill="#5e543d" d="M700 300h100v100H700z"/></svg>