<svg xmlns="http://www.w3.org/2000/svg" viewBox="0 0 800 600"><defs/><path fill="#fdfefe" d="M0 0h100v100H0z"/><path fill="#fcfcfc" d="M100 0h100v100H100z"/><path fill="#fefefe" d="M200 0h100v100H200z"/><path fill="#fff" d="M300 0h100v100H300z"/><path fill="#fefefe" d="M400 0h100v100H400z"/><path fill="#feffff" d="M500 0h100v100H500z"/><path fill="#fefffe" d="M600 0h100v100H600z"/><path fill="#fff" d="M700 0h100v100H700z"/><path fill="#f3f1f2" d="M0 100h100v100H0z"/><path fill="#d2c6c6" d="M100 100h100v100H100z"/><path fill="#dad4c7" d="M200 100h100v100H200z"/><path fill="#e6ebe7" d="M300 100h100v100H300z"/><path fill="#f8feff" d="M400 100h100v100H400z"/><path fill="#ece1cb" d="M500 100h100v100H500z"/><path fill="#e1d3b0" d="M600 100h100v100H600z"/><path fill="#ecf2f6" d="M700 100h100v100H700z"/><path fill="#e4e2e4" d="M0 200h100v100H0z"/><path fill="#cbc3c2" d="M100 200h100v100H100z"/><path fill="#f6f0e7" d="M200 200h100v100H200z"/><path fill="#76a1b0" d="M300 200h100v100H300z"/><path fill="#a3c0c9" d="M400 200h100v100H400z"/><path fill="#fffae7" d="M500 200h100v100H500z"/><path fill="#f0e8d0" d="M600 200h100v100H600z"/><path fill="#e9e9ed" d="M700 200h100v100H700z"/><path fill="#d9dede" d="M0 300h100v100H0z"/><path fill="#d3cac4" d="M100 300h100v100H100z"/><path fill="#fffaf7" d="M200 300h100v100H200z"/><path fill="#7cb3bd" d="M300 300h100v100H300z"/><path fill="#76a7ab" d="M400 300h100v100H400z"/><path fill="#f8e7eb" d="M500 300h100v100H500z"/><path fill="#f8f8fb" d="M600 300h100v100H600z"/><path fill="#f7f9f8" d="M700 300h100v100H700z"/><path fill="#dfddda" d="M0 400h100v100H0z"/><path fill="#b0b3ab" d="M100 400h100v100H100z"/><path fill="#e8e9da" d="M200 400h100v100H200z"/><path fill="#eeebdc" d="M300 400h100v100H300z"/><path fill="#e1dadd" d="M400 400h100v100H400z"/><path fill="#c6b2b7" d="M500 400h100v100H500z"/><path fill="#d6bbca" d="M600 400h100v100H600z"/><path fill="#d9cbd4" d="M700 400h100v100H700z"/><path fill="#f2f7f3" d="M0 500h100v100H0z"/><path fill="#dbe9ea" d="M100 500h100v100H100z"/><path fill="#f6faf4" d="M200 500h100v100H200z"/><path fill="#fdfdf3" d="M300 500h100v100H300z"/><path fill="#ebf0ee" d="M400 500h100v100H400z"/><path fill="#dce2e3" d="M500 500h100v100H500z"/><path fill="#e5e2e4" d="M600 500h100v100H600z"/><path fill="#ededef" d="M700 500h100v100H700z"/></svg>