<svg xmlns="http://www.w3.org/2000/svg" viewBox="0 0 800 400"><defs/><path fill="#e3eaec" d="M0 0h100v100H0z"/><path fill="#e8ecea" d="M100 0h100v100H100z"/><path fill="#b2b4b1" d="M200 0h100v100H200z"/><path fill="#888785" d="M300 0h100v100H300z"/><path fill="#919190" d="M400 0h100v100H400z"/><path fill="#959795" d="M500 0h100v100H500z"/><path fill="#c8cbca" d="M600 0h100v100H600z"/><path fill="#c1c1be" d="M700 0h100v100H700z"/><path fill="#dee3e2" d="M0 100h100v100H0z"/><path fill="#e6eae7" d="M100 100h100v100H100z"/><path fill="#c8cac7" d="M200 100h100v100H200z"/><path fill="#858380" d="M300 100h100v100H300z"/><path fill="#767674" d="M400 100h100v100H400z"/><path fill="#7c7d7e" d="M500 100h100v100H500z"/><path fill="#d8dedd" d="M600 100h100v100H600z"/><path fill="#d2d2d0" d="M700 100h100v100H700z"/><path fill="#cccfcd" d="M0 200h100v100H0z"/><path fill="#dee3e1" d="M100 200h100v100H100z"/><path fill="#cdcfcd" d="M200 200h100v100H200z"/><path fill="#8d8d8b" d="M300 200h100v100H300z"/><path fill="#767674" d="M400 200h100v100H400z"/><path fill="#666766" d="M500 200h100v100H500z"/><path fill="#6a6b6c" d="M600 200h100v100H600z"/><path fill="#666565" d="M700 200h100v100H700z"/><path fill="#d0d9da" d="M0 300h100v100H0z"/><path fill="#dce3e2" d="M100 300h100v100H100z"/><path fill="#929596" d="M200 300h100v100H200z"/><path fill="#737576" d="M300 300h100v100H300z"/><path fill="#808180" d="M400 300h100v100H400z"/><path fill="gray" d="M500 300h100v100H500z"/><path fill="#747574" d="M600 300h100v100H600z"/><path fill="#6d6b6b" d="M700 300h100v100H700z"/></svg>