<svg xmlns="http://www.w3.org/2000/svg" viewBox="0 0 800 600"><defs/><path fill="#ebebeb" d="M0 0h100v100H0z"/><path fill="#d2d2d2" d="M100 0h100v100H100z"/><path fill="#d8d7d7" d="M200 0h100v100H200z"/><path fill="#d8d8d7" d="M300 0h100v100H300z"/><path fill="#dddcdc" d="M400 0h100v100H400z"/><path fill="#dad9d9" d="M500 0h100v100H500z"/><path fill="#e2e1e1" d="M600 0h100v100H600z"/><path fill="#f9f8f8" d="M700 0h100v100H700z"/><path fill="#f4f4f4" d="M0 100h100v100H0z"/><path fill="#f0f0f0" d="M100 100h100v100H100z"/><path fill="#f1f3f3" d="M200 100h100v100H200z"/><path fill="#e5e8e9" d="M300 100h100v100H300z"/><path fill="#fafbfb" d="M400 100h100v100H400z"/><path fill="#fcffff" d="M500 100h100v100H500z"/><path fill="#fafdfe" d="M600 100h100v100H600z"/><path fill="#f7f8f8" d="M700 100h100v100H700z"/><path fill="#fff" d="M0 200h100v100H0z"/><path fill="#f0f1f1" d="M100 200h100v100H100z"/><path fill="#e3dedc" d="M200 200h100v100H200z"/><path fill="#cfbfbb" d="M300 200h100v100H300z"/><path fill="#c8b1a8" d="M400 200h100v100H400z"/><path fill="#bf9e92" d="M500 200h100v100H500z"/><path fill="#bd9b8e" d="M600 200h100v100H600z"/><path fill="#d5cfcd" d="M700 200h100v100H700z"/><path fill="#fdffff" d="M0 300h100v100H0z"/><path fill="#7c7474" d="M100 300h100v100H100z"/><path fill="#69301f" d="M200 300h100v100H200z"/><path fill="#7b3d29" d="M300 300h100v100H300z"/><path fill="#7a3e2b" d="M400 300h100v100H400z"/><path fill="#7e422d" d="M500 300h100v100H500z"/><path fill="#895743" d="M600 300h100v100H600z"/><path fill="#d6cac6" d="M700 300h100v100H700z"/><path fill="#f5f6f7" d="M0 400h100v100H0z"/><path fill="#8c8281" d="M100 400h100v100H100z"/><path fill="#6b4b3f" d="M200 400h100v100H200z"/><path fill="#967970" d="M300 400h100v100H300z"/><path fill="#bba6a2" d="M400 400h100v100H400z"/><path fill="#dbd1ce" d="M500 400h100v100H500z"/><path fill="#f8f7f7" d="M600 400h100v100H600z"/><path fill="#fff" d="M700 400h100v100H700z"/><path fill="#dedce0" d="M0 500h100v100H0z"/><path fill="#d4d1d4" d="M100 500h100v100H100z"/><path fill="#d7d3d5" d="M200 500h100v100H200z"/><path fill="#eff0f3" d="M300 500h100v100H300z"/><path fill="#f7f9fc" d="M400 500h100v100H400zm100 0h100v100H500z"/><path fill="#f1f1f5" d="M600 500h100v100H600z"/><path fill="#f0eff2" d="M700 500h100v100H700z"/></svg>