<svg xmlns="http://www.w3.org/2000/svg" viewBox="0 0 800 400"><defs/><path fill="#e0e8ef" d="M0 0h100v100H0z"/><path fill="#26384c" d="M100 0h100v100H100z"/><path fill="#181012" d="M200 0h100v100H200z"/><path fill="#36322e" d="M300 0h100v100H300z"/><path fill="#6f6d51" d="M400 0h100v100H400z"/><path fill="#54514d" d="M500 0h100v100H500z"/><path fill="#322d31" d="M600 0h100v100H600z"/><path fill="#c9c0ba" d="M700 0h100v100H700z"/><path fill="#e6ebf2" d="M0 100h100v100H0z"/><path fill="#2a3647" d="M100 100h100v100H100z"/><path fill="#353639" d="M200 100h100v100H200z"/><path fill="#4a4c4b" d="M300 100h100v100H300z"/><path fill="#5f5845" d="M400 100h100v100H400z"/><path fill="#43463c" d="M500 100h100v100H500z"/><path fill="#473f25" d="M600 100h100v100H600z"/><path fill="#c2c1b2" d="M700 100h100v100H700z"/><path fill="#e3e8f1" d="M0 200h100v100H0z"/><path fill="#333b4a" d="M100 200h100v100H100z"/><path fill="#969173" d="M200 200h100v100H200z"/><path fill="#798568" d="M300 200h100v100H300z"/><path fill="#79605e" d="M400 200h100v100H400z"/><path fill="#a18c94" d="M500 200h100v100H500z"/><path fill="#8d7b49" d="M600 200h100v100H600z"/><path fill="#d5c9a6" d="M700 200h100v100H700z"/><path fill="#f2f4f4" d="M0 300h100v100H0z"/><path fill="#868986" d="M100 300h100v100H100z"/><path fill="#a9a494" d="M200 300h100v100H200z"/><path fill="#c2c4ab" d="M300 300h100v100H300z"/><path fill="#a1a092" d="M400 300h100v100H400z"/><path fill="#9b917f" d="M500 300h100v100H500z"/><path fill="#8a8880" d="M600 300h100v100H600z"/><path fill="#cbc9c4" d="M700 300h100v100H700z"/></svg>