<svg xmlns="http://www.w3.org/2000/svg" viewBox="0 0 800 500"><defs/><path fill="#e3d7de" d="M0 0h100v100H0z"/><path fill="#dccad3" d="M100 0h100v100H100z"/><path fill="#d3c7d2" d="M200 0h100v100H200z"/><path fill="#d9ced4" d="M300 0h100v100H300z"/><path fill="#dfd1d6" d="M400 0h100v100H400z"/><path fill="#d3c7d4" d="M500 0h100v100H500z"/><path fill="#d1c7d5" d="M600 0h100v100H600z"/><path fill="#d6d6dd" d="M700 0h100v100H700z"/><path fill="#ada1ab" d="M0 100h100v100H0z"/><path fill="#b17772" d="M100 100h100v100H100z"/><path fill="#867989" d="M200 100h100v100H200z"/><path fill="#69a1b0" d="M300 100h100v100H300z"/><path fill="#6da7b3" d="M400 100h100v100H400z"/><path fill="#7b8888" d="M500 100h100v100H500z"/><path fill="#986459" d="M600 100h100v100H600z"/><path fill="#6e5870" d="M700 100h100v100H700z"/><path fill="#c7aba7" d="M0 200h100v100H0z"/><path fill="#d4aa84" d="M100 200h100v100H100z"/><path fill="#a5927f" d="M200 200h100v100H200z"/><path fill="#afa69b" d="M300 200h100v100H300z"/><path fill="#bab8b1" d="M400 200h100v100H400z"/><path fill="#d3b99b" d="M500 200h100v100H500z"/><path fill="#9e6752" d="M600 200h100v100H600z"/><path fill="#7f5b6c" d="M700 200h100v100H700z"/><path fill="#b2899c" d="M0 300h100v100H0z"/><path fill="#9f6163" d="M100 300h100v100H100z"/><path fill="#af755b" d="M200 300h100v100H200z"/><path fill="#be7750" d="M300 300h100v100H300z"/><path fill="#ce957b" d="M400 300h100v100H400z"/><path fill="#b2757f" d="M500 300h100v100H500z"/><path fill="#682f48" d="M600 300h100v100H600z"/><path fill="#764e6d" d="M700 300h100v100H700z"/><path fill="#d2c8d4" d="M0 400h100v100H0z"/><path fill="#bba6b9" d="M100 400h100v100H100z"/><path fill="#cab1bd" d="M200 400h100v100H200z"/><path fill="#caaeb4" d="M300 400h100v100H300z"/><path fill="#caaeb1" d="M400 400h100v100H400z"/><path fill="#c7a7b0" d="M500 400h100v100H500z"/><path fill="#bda5b7" d="M600 400h100v100H600z"/><path fill="#bfadc3" d="M700 400h100v100H700z"/></svg>