<svg xmlns="http://www.w3.org/2000/svg" viewBox="0 0 800 500"><defs/><path fill="#a8a6a0" d="M0 0h100v100H0z"/><path fill="#9d9e9b" d="M100 0h100v100H100z"/><path fill="#bdbbb9" d="M200 0h100v100H200z"/><path fill="#cbc7c4" d="M300 0h100v100H300z"/><path fill="#b8b8b7" d="M400 0h100v100H400z"/><path fill="#bfbcbb" d="M500 0h100v100H500z"/><path fill="#bbb8b6" d="M600 0h100v100H600z"/><path fill="#c2bdb4" d="M700 0h100v100H700z"/><path fill="#878a89" d="M0 100h100v100H0z"/><path fill="#7b8286" d="M100 100h100v100H100z"/><path fill="#98999b" d="M200 100h100v100H200z"/><path fill="#b1afb0" d="M300 100h100v100H300z"/><path fill="#a2a6ac" d="M400 100h100v100H400z"/><path fill="#b1b2b7" d="M500 100h100v100H500z"/><path fill="#858a91" d="M600 100h100v100H600z"/><path fill="#abaaa8" d="M700 100h100v100H700z"/><path fill="#878783" d="M0 200h100v100H0z"/><path fill="#818281" d="M100 200h100v100H100z"/><path fill="#9f9fa1" d="M200 200h100v100H200z"/><path fill="#b1afb1" d="M300 200h100v100H300z"/><path fill="#a5a5ab" d="M400 200h100v100H400z"/><path fill="#afb0b7" d="M500 200h100v100H500z"/><path fill="#91969c" d="M600 200h100v100H600z"/><path fill="#a3a6a9" d="M700 200h100v100H700z"/><path fill="#7f817f" d="M0 300h100v100H0z"/><path fill="#727477" d="M100 300h100v100H100z"/><path fill="#8e8f92" d="M200 300h100v100H200z"/><path fill="#9c9a9c" d="M300 300h100v100H300z"/><path fill="#96969c" d="M400 300h100v100H400z"/><path fill="#989ba3" d="M500 300h100v100H500z"/><path fill="#898d91" d="M600 300h100v100H600z"/><path fill="#919392" d="M700 300h100v100H700z"/><path fill="#54534f" d="M0 400h100v100H0z"/><path fill="#504e4c" d="M100 400h100v100H100z"/><path fill="#696564" d="M200 400h100v100H200z"/><path fill="#646568" d="M300 400h100v100H300z"/><path fill="#6c6a6c" d="M400 400h100v100H400z"/><path fill="#706c6c" d="M500 400h100v100H500z"/><path fill="#868177" d="M600 400h100v100H600z"/><path fill="#a29680" d="M700 400h100v100H700z"/></svg>