<svg xmlns="http://www.w3.org/2000/svg" viewBox="0 0 800 400"><defs/><path fill="#2d758a" d="M0 0h100v100H0z"/><path fill="#35535e" d="M100 0h100v100H100z"/><path fill="#6a897b" d="M200 0h100v100H200z"/><path fill="#4daa98" d="M300 0h100v100H300z"/><path fill="#919969" d="M400 0h100v100H400z"/><path fill="#8c7153" d="M500 0h100v100H500z"/><path fill="#6b665e" d="M600 0h100v100H600z"/><path fill="#4d7479" d="M700 0h100v100H700z"/><path fill="#2d667a" d="M0 100h100v100H0z"/><path fill="#1d6e8c" d="M100 100h100v100H100z"/><path fill="#909b6a" d="M200 100h100v100H200z"/><path fill="#75c99a" d="M300 100h100v100H300z"/><path fill="#53ceb5" d="M400 100h100v100H400z"/><path fill="#b6a361" d="M500 100h100v100H500z"/><path fill="#b2854e" d="M600 100h100v100H600z"/><path fill="#766754" d="M700 100h100v100H700z"/><path fill="#1a6080" d="M0 200h100v100H0z"/><path fill="#4c6f6d" d="M100 200h100v100H100z"/><path fill="#cb9d52" d="M200 200h100v100H200z"/><path fill="#ba7d40" d="M300 200h100v100H300z"/><path fill="#ad7348" d="M400 200h100v100H400z"/><path fill="#b47d4b" d="M500 200h100v100H500z"/><path fill="#ab834d" d="M600 200h100v100H600z"/><path fill="#7d6e47" d="M700 200h100v100H700z"/><path fill="#395a61" d="M0 300h100v100H0z"/><path fill="#83734c" d="M100 300h100v100H100z"/><path fill="#a1925c" d="M200 300h100v100H200z"/><path fill="#997445" d="M300 300h100v100H300z"/><path fill="#bd7a3c" d="M400 300h100v100H400z"/><path fill="#b28243" d="M500 300h100v100H500z"/><path fill="#9b7b43" d="M600 300h100v100H600z"/><path fill="#67613f" d="M700 300h100v100H700z"/></svg>