<svg xmlns="http://www.w3.org/2000/svg" viewBox="0 0 800 600"><defs/><path fill="#eae3d7" d="M0 0h100v100H0z"/><path fill="#e9e2d6" d="M100 0h100v100H100z"/><path fill="#e0d6c7" d="M200 0h100v100H200z"/><path fill="#ddccb9" d="M300 0h100v100H300z"/><path fill="#d6c1af" d="M400 0h100v100H400z"/><path fill="#dbcec3" d="M500 0h100v100H500z"/><path fill="#dbd3c6" d="M600 0h100v100H600z"/><path fill="#d2c8b9" d="M700 0h100v100H700z"/><path fill="#bcbdb7" d="M0 100h100v100H0z"/><path fill="#babfbb" d="M100 100h100v100H100z"/><path fill="#d4d3cb" d="M200 100h100v100H200z"/><path fill="#c7c8b5" d="M300 100h100v100H300z"/><path fill="#c6c5b0" d="M400 100h100v100H400z"/><path fill="#cccbc0" d="M500 100h100v100H500z"/><path fill="#c6c4bc" d="M600 100h100v100H600z"/><path fill="#b8b4ac" d="M700 100h100v100H700z"/><path fill="#b2bcba" d="M0 200h100v100H0z"/><path fill="#89a1a6" d="M100 200h100v100H100z"/><path fill="#9eb595" d="M200 200h100v100H200z"/><path fill="#bccbad" d="M300 200h100v100H300z"/><path fill="#c6d6c3" d="M400 200h100v100H400z"/><path fill="#c4cec1" d="M500 200h100v100H500z"/><path fill="#bdc0b7" d="M600 200h100v100H600z"/><path fill="#b6b8b0" d="M700 200h100v100H700z"/><path fill="#cdccc9" d="M0 300h100v100H0z"/><path fill="#9ea695" d="M100 300h100v100H100z"/><path fill="#a8a283" d="M200 300h100v100H200z"/><path fill="#c2b8a8" d="M300 300h100v100H300z"/><path fill="#b3a38d" d="M400 300h100v100H400z"/><path fill="#ae9f95" d="M500 300h100v100H500z"/><path fill="#a39584" d="M600 300h100v100H600z"/><path fill="#a8a088" d="M700 300h100v100H700z"/><path fill="#cac3bb" d="M0 400h100v100H0z"/><path fill="#a59a88" d="M100 400h100v100H100z"/><path fill="#9f685a" d="M200 400h100v100H200z"/><path fill="#ae8c6a" d="M300 400h100v100H300z"/><path fill="#ad9077" d="M400 400h100v100H400z"/><path fill="#9b7b72" d="M500 400h100v100H500z"/><path fill="#7e645b" d="M600 400h100v100H600z"/><path fill="#714e41" d="M700 400h100v100H700z"/><path fill="#e1dccd" d="M0 500h100v100H0z"/><path fill="#d7c9b8" d="M100 500h100v100H100z"/><path fill="#d2bea7" d="M200 500h100v100H200z"/><path fill="#cdb39a" d="M300 500h100v100H300z"/><path fill="#d4c3b0" d="M400 500h100v100H400z"/><path fill="#cfbeb1" d="M500 500h100v100H500z"/><path fill="#c1b2a4" d="M600 500h100v100H600z"/><path fill="#aa9a8d" d="M700 500h100v100H700z"/></svg>