<svg xmlns="http://www.w3.org/2000/svg" viewBox="0 0 800 600"><defs/><path fill="#8c786e" d="M0 0h100v100H0z"/><path fill="#948076" d="M100 0h100v100H100z"/><path fill="#978379" d="M200 0h100v100H200z"/><path fill="#9a867c" d="M300 0h100v100H300z"/><path fill="#9c897f" d="M400 0h100v100H400z"/><path fill="#9d8a81" d="M500 0h100v100H500z"/><path fill="#9e8c83" d="M600 0h100v100H600z"/><path fill="#9b887f" d="M700 0h100v100H700z"/><path fill="#9f938c" d="M0 100h100v100H0z"/><path fill="#9e928c" d="M100 100h100v100H100z"/><path fill="#ac9f98" d="M200 100h100v100H200z"/><path fill="#afa29b" d="M300 100h100v100H300z"/><path fill="#aa9c95" d="M400 100h100v100H400z"/><path fill="#a99a94" d="M500 100h100v100H500z"/><path fill="#a69791" d="M600 100h100v100H600z"/><path fill="#ad9f98" d="M700 100h100v100H700z"/><path fill="#8c8079" d="M0 200h100v100H0z"/><path fill="#8f837c" d="M100 200h100v100H100z"/><path fill="#9f928a" d="M200 200h100v100H200z"/><path fill="#a69790" d="M300 200h100v100H300z"/><path fill="#988b83" d="M400 200h100v100H400z"/><path fill="#948780" d="M500 200h100v100H500z"/><path fill="#92857e" d="M600 200h100v100H600z"/><path fill="#a2938b" d="M700 200h100v100H700z"/><path fill="#a0938b" d="M0 300h100v100H0z"/><path fill="#998c84" d="M100 300h100v100H100z"/><path fill="#9d9088" d="M200 300h100v100H200z"/><path fill="#a0928b" d="M300 300h100v100H300z"/><path fill="#897d76" d="M400 300h100v100H400z"/><path fill="#857972" d="M500 300h100v100H500z"/><path fill="#897d76" d="M600 300h100v100H600z"/><path fill="#9a8c84" d="M700 300h100v100H700z"/><path fill="#a99b93" d="M0 400h100v100H0z"/><path fill="#9d9088" d="M100 400h100v100H100z"/><path fill="#9b8f88" d="M200 400h100v100H200z"/><path fill="#9a8c85" d="M300 400h100v100H300z"/><path fill="#91837d" d="M400 400h100v100H400z"/><path fill="#8f817a" d="M500 400h100v100H500z"/><path fill="#91837b" d="M600 400h100v100H600z"/><path fill="#988a82" d="M700 400h100v100H700z"/><path fill="#96877f" d="M0 500h100v100H0z"/><path fill="#9c8e87" d="M100 500h100v100H100z"/><path fill="#a1938b" d="M200 500h100v100H200z"/><path fill="#968880" d="M300 500h100v100H300z"/><path fill="#90827b" d="M400 500h100v100H400z"/><path fill="#8b7d75" d="M500 500h100v100H500z"/><path fill="#8e8077" d="M600 500h100v100H600z"/><path fill="#92847a" d="M700 500h100v100H700z"/></svg>