<svg xmlns="http://www.w3.org/2000/svg" viewBox="0 0 800 500"><defs/><path fill="#20171f" d="M0 0h100v100H0z"/><path fill="#33222e" d="M100 0h100v100H100z"/><path fill="#3b2732" d="M200 0h100v100H200z"/><path fill="#352733" d="M300 0h100v100H300z"/><path fill="#362734" d="M400 0h100v100H400z"/><path fill="#33232f" d="M500 0h100v100H500z"/><path fill="#261c22" d="M600 0h100v100H600z"/><path fill="#362731" d="M700 0h100v100H700z"/><path fill="#0e090d" d="M0 100h100v100H0z"/><path fill="#2b1a22" d="M100 100h100v100H100z"/><path fill="#2a1b26" d="M200 100h100v100H200z"/><path fill="#070711" d="M300 100h100v100H300z"/><path fill="#080712" d="M400 100h100v100H400z"/><path fill="#271218" d="M500 100h100v100H500z"/><path fill="#1d0f11" d="M600 100h100v100H600z"/><path fill="#23161f" d="M700 100h100v100H700z"/><path fill="#251922" d="M0 200h100v100H0z"/><path fill="#27181f" d="M100 200h100v100H100z"/><path fill="#2a1417" d="M200 200h100v100H200z"/><path fill="#401115" d="M300 200h100v100H300z"/><path fill="#3c161a" d="M400 200h100v100H400z"/><path fill="#291214" d="M500 200h100v100H500z"/><path fill="#2b181e" d="M600 200h100v100H600z"/><path fill="#251a25" d="M700 200h100v100H700z"/><path fill="#291b23" d="M0 300h100v100H0z"/><path fill="#200f14" d="M100 300h100v100H100z"/><path fill="#380308" d="M200 300h100v100H200z"/><path fill="#37080e" d="M300 300h100v100H300z"/><path fill="#32181f" d="M400 300h100v100H400z"/><path fill="#3b0a0a" d="M500 300h100v100H500z"/><path fill="#370c0a" d="M600 300h100v100H600z"/><path fill="#1d121a" d="M700 300h100v100H700z"/><path fill="#1f131a" d="M0 400h100v100H0z"/><path fill="#110709" d="M100 400h100v100H100z"/><path fill="#230509" d="M200 400h100v100H200z"/><path fill="#180609" d="M300 400h100v100H300z"/><path fill="#170507" d="M400 400h100v100H400z"/><path fill="#32090f" d="M500 400h100v100H500z"/><path fill="#421114" d="M600 400h100v100H600z"/><path fill="#1c090b" d="M700 400h100v100H700z"/></svg>