<svg xmlns="http://www.w3.org/2000/svg" viewBox="0 0 800 800"><defs/><path fill="#96979a" d="M0 0h100v100H0z"/><path fill="#e0e8f4" d="M100 0h100v100H100z"/><path fill="#ecf4ff" d="M200 0h100v100H200z"/><path fill="#b7b8c1" d="M300 0h100v100H300z"/><path fill="#655345" d="M400 0h100v100H400z"/><path fill="#cdcfd3" d="M500 0h100v100H500z"/><path fill="#c1c4c9" d="M600 0h100v100H600z"/><path fill="#7d7974" d="M700 0h100v100H700z"/><path fill="#646056" d="M0 100h100v100H0z"/><path fill="#888987" d="M100 100h100v100H100z"/><path fill="#a09d9a" d="M200 100h100v100H200z"/><path fill="#86807d" d="M300 100h100v100H300z"/><path fill="#534e47" d="M400 100h100v100H400z"/><path fill="#898a89" d="M500 100h100v100H500z"/><path fill="#737373" d="M600 100h100v100H600z"/><path fill="#555452" d="M700 100h100v100H700z"/><path fill="#4e4c48" d="M0 200h100v100H0z"/><path fill="#464441" d="M100 200h100v100H100z"/><path fill="#6a6865" d="M200 200h100v100H200z"/><path fill="#787674" d="M300 200h100v100H300z"/><path fill="#686867" d="M400 200h100v100H400z"/><path fill="#6a6969" d="M500 200h100v100H500z"/><path fill="#6e6d6d" d="M600 200h100v100H600z"/><path fill="#6e6c6e" d="M700 200h100v100H700z"/><path fill="#72777f" d="M0 300h100v100H0z"/><path fill="#7c838e" d="M100 300h100v100H100z"/><path fill="#7d8591" d="M200 300h100v100H200z"/><path fill="#777c85" d="M300 300h100v100H300z"/><path fill="#717073" d="M400 300h100v100H400z"/><path fill="#6d6c70" d="M500 300h100v100H500z"/><path fill="#6f7074" d="M600 300h100v100H600z"/><path fill="#7f7979" d="M700 300h100v100H700z"/><path fill="#8d8d8d" d="M0 400h100v100H0z"/><path fill="#cdd4df" d="M100 400h100v100H100z"/><path fill="#d5dbe6" d="M200 400h100v100H200z"/><path fill="#9ca0a8" d="M300 400h100v100H300z"/><path fill="#b7bcc6" d="M400 400h100v100H400z"/><path fill="#c7cdd8" d="M500 400h100v100H500z"/><path fill="#c5cad5" d="M600 400h100v100H600z"/><path fill="#c1c6d1" d="M700 400h100v100H700z"/><path fill="#5c5b56" d="M0 500h100v100H0z"/><path fill="#6c6f70" d="M100 500h100v100H100z"/><path fill="#b5b6b8" d="M200 500h100v100H200z"/><path fill="#6e6f70" d="M300 500h100v100H300z"/><path fill="#8c989e" d="M400 500h100v100H400z"/><path fill="#c4c9d1" d="M500 500h100v100H500z"/><path fill="#c5c9d0" d="M600 500h100v100H600z"/><path fill="#c0c3ca" d="M700 500h100v100H700z"/><path fill="#5e5d5b" d="M0 600h100v100H0z"/><path fill="#5d5d5b" d="M100 600h100v100H100z"/><path fill="#666563" d="M200 600h100v100H200z"/><path fill="#575858" d="M300 600h100v100H300z"/><path fill="#626764" d="M400 600h100v100H400z"/><path fill="#7d7f7e" d="M500 600h100v100H500z"/><path fill="#7c7e80" d="M600 600h100v100H600z"/><path fill="#76787b" d="M700 600h100v100H700z"/><path fill="#4d4d4e" d="M0 700h100v100H0z"/><path fill="#5a5a5e" d="M100 700h100v100H100z"/><path fill="#4f5259" d="M200 700h100v100H200z"/><path fill="#4a4c53" d="M300 700h100v100H300z"/><path fill="#686a6d" d="M400 700h100v100H400z"/><path fill="#707478" d="M500 700h100v100H500z"/><path fill="#74787c" d="M600 700h100v100H600z"/><path fill="#6f7072" d="M700 700h100v100H700z"/></svg>