<svg xmlns="http://www.w3.org/2000/svg" viewBox="0 0 800 400"><defs/><path fill="#7c7874" d="M0 0h100v100H0z"/><path fill="#6b6763" d="M100 0h100v100H100z"/><path fill="#797368" d="M200 0h100v100H200z"/><path fill="#77745a" d="M300 0h100v100H300z"/><path fill="#a1a27e" d="M400 0h100v100H400z"/><path fill="#c3c1ae" d="M500 0h100v100H500z"/><path fill="#dfd9d0" d="M600 0h100v100H600z"/><path fill="#d7cec8" d="M700 0h100v100H700z"/><path fill="#76736f" d="M0 100h100v100H0z"/><path fill="#5f5b53" d="M100 100h100v100H100z"/><path fill="#6b5b4c" d="M200 100h100v100H200z"/><path fill="#918979" d="M300 100h100v100H300z"/><path fill="#acb5af" d="M400 100h100v100H400z"/><path fill="#aca5a3" d="M500 100h100v100H500z"/><path fill="#c0af9b" d="M600 100h100v100H600z"/><path fill="#d1c3b8" d="M700 100h100v100H700z"/><path fill="#6c6865" d="M0 200h100v100H0z"/><path fill="#615443" d="M100 200h100v100H100z"/><path fill="#736455" d="M200 200h100v100H200z"/><path fill="#81776d" d="M300 200h100v100H300z"/><path fill="#958a7f" d="M400 200h100v100H400z"/><path fill="#9f958d" d="M500 200h100v100H500z"/><path fill="#bbaca1" d="M600 200h100v100H600z"/><path fill="#e7d2ca" d="M700 200h100v100H700z"/><path fill="#716c63" d="M0 300h100v100H0z"/><path fill="#625842" d="M100 300h100v100H100z"/><path fill="#3e3e36" d="M200 300h100v100H200z"/><path fill="#4a473f" d="M300 300h100v100H300z"/><path fill="#57544a" d="M400 300h100v100H400z"/><path fill="#605e55" d="M500 300h100v100H500z"/><path fill="#847d6d" d="M600 300h100v100H600z"/><path fill="#c0b2a4" d="M700 300h100v100H700z"/></svg>