<svg xmlns="http://www.w3.org/2000/svg" viewBox="0 0 800 400"><defs/><path fill="#a8927c" d="M0 0h100v100H0z"/><path fill="#a48b73" d="M100 0h100v100H100z"/><path fill="#bcac8c" d="M200 0h100v100H200z"/><path fill="#d2ccb5" d="M300 0h100v100H300z"/><path fill="#e0d2c2" d="M400 0h100v100H400z"/><path fill="#c5bba6" d="M500 0h100v100H500z"/><path fill="#c2b1a0" d="M600 0h100v100H600z"/><path fill="#b0998a" d="M700 0h100v100H700z"/><path fill="#91785d" d="M0 100h100v100H0z"/><path fill="#a38d77" d="M100 100h100v100H100z"/><path fill="#d7b9a1" d="M200 100h100v100H200z"/><path fill="#e6ccc1" d="M300 100h100v100H300z"/><path fill="#e5d5c5" d="M400 100h100v100H400z"/><path fill="#e9dfc0" d="M500 100h100v100H500z"/><path fill="#dfc8b5" d="M600 100h100v100H600z"/><path fill="#b19d8a" d="M700 100h100v100H700z"/><path fill="#7a5e4a" d="M0 200h100v100H0z"/><path fill="#ab9771" d="M100 200h100v100H100z"/><path fill="#c9a88b" d="M200 200h100v100H200z"/><path fill="#dda389" d="M300 200h100v100H300z"/><path fill="#e5ada4" d="M400 200h100v100H400z"/><path fill="#eac8ab" d="M500 200h100v100H500z"/><path fill="#d4b78f" d="M600 200h100v100H600z"/><path fill="#cabd98" d="M700 200h100v100H700z"/><path fill="#74524a" d="M0 300h100v100H0z"/><path fill="#976b56" d="M100 300h100v100H100z"/><path fill="#876758" d="M200 300h100v100H200z"/><path fill="#997764" d="M300 300h100v100H300z"/><path fill="#b58e8b" d="M400 300h100v100H400z"/><path fill="#c2a298" d="M500 300h100v100H500z"/><path fill="#9e7764" d="M600 300h100v100H600z"/><path fill="#a67759" d="M700 300h100v100H700z"/></svg>