<svg xmlns="http://www.w3.org/2000/svg" viewBox="0 0 800 400"><defs/><path fill="#35936d" d="M0 0h100v100H0z"/><path fill="#428a75" d="M100 0h100v100H100z"/><path fill="#448e78" d="M200 0h100v100H200z"/><path fill="#42907a" d="M300 0h100v100H300z"/><path fill="#4b9385" d="M400 0h100v100H400z"/><path fill="#599f98" d="M500 0h100v100H500z"/><path fill="#5d9596" d="M600 0h100v100H600z"/><path fill="#5b9c9b" d="M700 0h100v100H700z"/><path fill="#3b9675" d="M0 100h100v100H0z"/><path fill="#408f74" d="M100 100h100v100H100z"/><path fill="#458f77" d="M200 100h100v100H200z"/><path fill="#3b9380" d="M300 100h100v100H300z"/><path fill="#3ba595" d="M400 100h100v100H400z"/><path fill="#579594" d="M500 100h100v100H500z"/><path fill="#5d9294" d="M600 100h100v100H600z"/><path fill="#589a98" d="M700 100h100v100H700z"/><path fill="#469784" d="M0 200h100v100H0z"/><path fill="#428e76" d="M100 200h100v100H100z"/><path fill="#4e9688" d="M200 200h100v100H200z"/><path fill="#479d87" d="M300 200h100v100H300z"/><path fill="#339c80" d="M400 200h100v100H400z"/><path fill="#3b9184" d="M500 200h100v100H500z"/><path fill="#4d8b89" d="M600 200h100v100H600z"/><path fill="#4b9687" d="M700 200h100v100H700z"/><path fill="#3b8f72" d="M0 300h100v100H0z"/><path fill="#42907a" d="M100 300h100v100H100z"/><path fill="#49a68f" d="M200 300h100v100H200z"/><path fill="#49a08c" d="M300 300h100v100H300z"/><path fill="#42987f" d="M400 300h100v100H400z"/><path fill="#419780" d="M500 300h100v100H500z"/><path fill="#429682" d="M600 300h100v100H600z"/><path fill="#499b88" d="M700 300h100v100H700z"/></svg>