<svg xmlns="http://www.w3.org/2000/svg" viewBox="0 0 800 400"><defs/><path fill="#2c3a31" d="M0 0h100v100H0z"/><path fill="#482f2a" d="M100 0h100v100H100z"/><path fill="#536d61" d="M200 0h100v100H200z"/><path fill="#809f8d" d="M300 0h100v100H300z"/><path fill="#436059" d="M400 0h100v100H400z"/><path fill="#6f888a" d="M500 0h100v100H500z"/><path fill="#768987" d="M600 0h100v100H600z"/><path fill="#3e514a" d="M700 0h100v100H700z"/><path fill="#282c27" d="M0 100h100v100H0z"/><path fill="#4c4c4c" d="M100 100h100v100H100z"/><path fill="#487064" d="M200 100h100v100H200z"/><path fill="#709685" d="M300 100h100v100H300z"/><path fill="#5e7872" d="M400 100h100v100H400z"/><path fill="#8e9b99" d="M500 100h100v100H500z"/><path fill="#66716f" d="M600 100h100v100H600z"/><path fill="#30473f" d="M700 100h100v100H700z"/><path fill="#2f2f2a" d="M0 200h100v100H0z"/><path fill="#514a48" d="M100 200h100v100H100z"/><path fill="#43403a" d="M200 200h100v100H200z"/><path fill="#41413c" d="M300 200h100v100H300z"/><path fill="#6e7673" d="M400 200h100v100H400z"/><path fill="#6a7b7b" d="M500 200h100v100H500z"/><path fill="#282e34" d="M600 200h100v100H600z"/><path fill="#1c2c2d" d="M700 200h100v100H700z"/><path fill="#50362f" d="M0 300h100v100H0z"/><path fill="#7b463b" d="M100 300h100v100H100z"/><path fill="#935344" d="M200 300h100v100H200z"/><path fill="#9c675d" d="M300 300h100v100H300z"/><path fill="#524c44" d="M400 300h100v100H400z"/><path fill="#323a30" d="M500 300h100v100H500z"/><path fill="#322e29" d="M600 300h100v100H600z"/><path fill="#282121" d="M700 300h100v100H700z"/></svg>