<svg xmlns="http://www.w3.org/2000/svg" viewBox="0 0 800 400"><defs/><path fill="#fff" d="M0 0h100v100H0z"/><path fill="#fefefe" d="M100 0h100v100H100z"/><path fill="#f6f6f6" d="M200 0h100v100H200z"/><path fill="#f3f3f3" d="M300 0h100v100H300z"/><path fill="#f6f6f6" d="M400 0h100v100H400z"/><path fill="#f3f3f3" d="M500 0h100v100H500z"/><path fill="#fafafa" d="M600 0h100v100H600z"/><path fill="#fff" d="M700 0h100v100H700zM0 100h100v100H0z"/><path fill="#fdfdfd" d="M100 100h100v100H100z"/><path fill="#dfdfdf" d="M200 100h100v100H200z"/><path fill="#dcdcdc" d="M300 100h100v100H300z"/><path fill="#e8e8e8" d="M400 100h100v100H400z"/><path fill="#dfdfdf" d="M500 100h100v100H500z"/><path fill="#f3f3f3" d="M600 100h100v100H600z"/><path fill="#fff" d="M700 100h100v100H700zM0 200h100v100H0z"/><path fill="#f9f9f9" d="M100 200h100v100H100z"/><path fill="#dcdcdc" d="M200 200h100v100H200z"/><path fill="#dbdbdb" d="M300 200h100v100H300z"/><path fill="#e4e4e4" d="M400 200h100v100H400z"/><path fill="#d8d8d8" d="M500 200h100v100H500z"/><path fill="#eee" d="M600 200h100v100H600z"/><path fill="#fff" d="M700 200h100v100H700zM0 300h100v100H0z"/><path fill="#fafafa" d="M100 300h100v100H100z"/><path fill="#ececec" d="M200 300h100v100H200zm100 0h100v100H300z"/><path fill="#eaeaea" d="M400 300h100v100H400zm100 0h100v100H500z"/><path fill="#ededed" d="M600 300h100v100H600z"/><path fill="#fff" d="M700 300h100v100H700z"/></svg>