<svg xmlns="http://www.w3.org/2000/svg" viewBox="0 0 800 400"><defs/><path fill="#c9cdd1" d="M0 0h100v100H0z"/><path fill="#929ba1" d="M100 0h100v100H100z"/><path fill="#546470" d="M200 0h100v100H200z"/><path fill="#a7afb5" d="M300 0h100v100H300z"/><path fill="#fff" d="M400 0h100v100H400z"/><path fill="#e9eaea" d="M500 0h100v100H500z"/><path fill="#d6d8da" d="M600 0h100v100H600z"/><path fill="#e0e2e4" d="M700 0h100v100H700z"/><path fill="#d4d7d9" d="M0 100h100v100H0z"/><path fill="#8f98a0" d="M100 100h100v100H100z"/><path fill="#727e87" d="M200 100h100v100H200z"/><path fill="#7d8890" d="M300 100h100v100H300z"/><path fill="#b3babe" d="M400 100h100v100H400z"/><path fill="#b4babe" d="M500 100h100v100H500z"/><path fill="#c8cdcf" d="M600 100h100v100H600z"/><path fill="#d7d9dc" d="M700 100h100v100H700z"/><path fill="#e7e8e9" d="M0 200h100v100H0z"/><path fill="#babfc3" d="M100 200h100v100H100z"/><path fill="#bcc2c5" d="M200 200h100v100H200z"/><path fill="#929ca2" d="M300 200h100v100H300z"/><path fill="#aeb4b9" d="M400 200h100v100H400z"/><path fill="#e5e6e7" d="M500 200h100v100H500z"/><path fill="#a4acb2" d="M600 200h100v100H600z"/><path fill="#97a0a7" d="M700 200h100v100H700z"/><path fill="#c9cdd0" d="M0 300h100v100H0z"/><path fill="#d2d6d9" d="M100 300h100v100H100z"/><path fill="#f5f5f5" d="M200 300h100v100H200z"/><path fill="#c5c9cc" d="M300 300h100v100H300z"/><path fill="#e2e4e5" d="M400 300h100v100H400z"/><path fill="#e4e6e7" d="M500 300h100v100H500z"/><path fill="#ebeded" d="M600 300h100v100H600z"/><path fill="#ced2d5" d="M700 300h100v100H700z"/></svg>