<svg xmlns="http://www.w3.org/2000/svg" viewBox="0 0 800 600"><defs/><path fill="#f8efd5" d="M0 0h100v100H0z"/><path fill="#beb9b3" d="M100 0h100v100H100z"/><path fill="#a5a4a8" d="M200 0h100v100H200z"/><path fill="#ababad" d="M300 0h100v100H300z"/><path fill="#a3aab5" d="M400 0h100v100H400z"/><path fill="#a5abb5" d="M500 0h100v100H500z"/><path fill="#a7aaae" d="M600 0h100v100H600z"/><path fill="#abacb0" d="M700 0h100v100H700z"/><path fill="#c5beb7" d="M0 100h100v100H0z"/><path fill="#aba9ac" d="M100 100h100v100H100z"/><path fill="#aaa8ab" d="M200 100h100v100H200z"/><path fill="#a9aaac" d="M300 100h100v100H300z"/><path fill="#a0a7b5" d="M400 100h100v100H400z"/><path fill="#a0a9b7" d="M500 100h100v100H500z"/><path fill="#a6abb3" d="M600 100h100v100H600z"/><path fill="#a5a6aa" d="M700 100h100v100H700z"/><path fill="#aaa9ae" d="M0 200h100v100H0z"/><path fill="#a6a5aa" d="M100 200h100v100H100z"/><path fill="#a7a4a5" d="M200 200h100v100H200z"/><path fill="#aba8a9" d="M300 200h100v100H300z"/><path fill="#a6a4a9" d="M400 200h100v100H400z"/><path fill="#a9a7ac" d="M500 200h100v100H500z"/><path fill="#9e9da0" d="M600 200h100v100H600z"/><path fill="#a2a0a2" d="M700 200h100v100H700z"/><path fill="#aba8ac" d="M0 300h100v100H0z"/><path fill="#a5a3a8" d="M100 300h100v100H100z"/><path fill="#a39d9e" d="M200 300h100v100H200z"/><path fill="#ada6a6" d="M300 300h100v100H300z"/><path fill="#b2adad" d="M400 300h100v100H400z"/><path fill="#aba4a4" d="M500 300h100v100H500z"/><path fill="#958e8c" d="M600 300h100v100H600z"/><path fill="#a09d9d" d="M700 300h100v100H700z"/><path fill="#aaa8aa" d="M0 400h100v100H0z"/><path fill="#a09fa3" d="M100 400h100v100H100z"/><path fill="#a59795" d="M200 400h100v100H200z"/><path fill="#9d8884" d="M300 400h100v100H300z"/><path fill="#9d9694" d="M400 400h100v100H400z"/><path fill="#998f8f" d="M500 400h100v100H500z"/><path fill="#acabad" d="M600 400h100v100H600z"/><path fill="#ababad" d="M700 400h100v100H700z"/><path fill="#a9a6a8" d="M0 500h100v100H0z"/><path fill="#9f9da0" d="M100 500h100v100H100z"/><path fill="#b1aaa8" d="M200 500h100v100H200z"/><path fill="#a89c9c" d="M300 500h100v100H300z"/><path fill="#a5a3a6" d="M400 500h100v100H400z"/><path fill="#a6a3a7" d="M500 500h100v100H500z"/><path fill="#aaabaf" d="M600 500h100v100H600z"/><path fill="#aaaaae" d="M700 500h100v100H700z"/></svg>