<svg xmlns="http://www.w3.org/2000/svg" viewBox="0 0 800 400"><defs/><path fill="#706b6b" d="M0 0h100v100H0z"/><path fill="#5c6162" d="M100 0h100v100H100z"/><path fill="#616b73" d="M200 0h100v100H200z"/><path fill="#6e6f74" d="M300 0h100v100H300z"/><path fill="#878284" d="M400 0h100v100H400z"/><path fill="#898489" d="M500 0h100v100H500z"/><path fill="#8a8a8c" d="M600 0h100v100H600z"/><path fill="#969597" d="M700 0h100v100H700z"/><path fill="#6f6c6e" d="M0 100h100v100H0z"/><path fill="#595d5f" d="M100 100h100v100H100z"/><path fill="#727077" d="M200 100h100v100H200z"/><path fill="#7b7272" d="M300 100h100v100H300z"/><path fill="#8b817f" d="M400 100h100v100H400z"/><path fill="#918585" d="M500 100h100v100H500z"/><path fill="#858482" d="M600 100h100v100H600z"/><path fill="#838685" d="M700 100h100v100H700z"/><path fill="#515d68" d="M0 200h100v100H0z"/><path fill="#626362" d="M100 200h100v100H100z"/><path fill="#857f7d" d="M200 200h100v100H200z"/><path fill="#8f8989" d="M300 200h100v100H300z"/><path fill="#8d8281" d="M400 200h100v100H400z"/><path fill="#998e8e" d="M500 200h100v100H500z"/><path fill="#918886" d="M600 200h100v100H600z"/><path fill="#7c7772" d="M700 200h100v100H700z"/><path fill="#495354" d="M0 300h100v100H0z"/><path fill="#73726f" d="M100 300h100v100H100z"/><path fill="#867f75" d="M200 300h100v100H200z"/><path fill="#8f8982" d="M300 300h100v100H300z"/><path fill="#918e89" d="M400 300h100v100H400z"/><path fill="#949390" d="M500 300h100v100H500z"/><path fill="#959293" d="M600 300h100v100H600z"/><path fill="#928f8e" d="M700 300h100v100H700z"/></svg>