<svg xmlns="http://www.w3.org/2000/svg" viewBox="0 0 800 600"><defs/><path fill="#6f7576" d="M0 0h100v100H0z"/><path fill="#949c99" d="M100 0h100v100H100z"/><path fill="#858da5" d="M200 0h100v100H200z"/><path fill="#86828f" d="M300 0h100v100H300z"/><path fill="#928f95" d="M400 0h100v100H400z"/><path fill="#9898a0" d="M500 0h100v100H500z"/><path fill="#97979f" d="M600 0h100v100H600z"/><path fill="#939daa" d="M700 0h100v100H700z"/><path fill="#7a7c65" d="M0 100h100v100H0z"/><path fill="#bbc4ac" d="M100 100h100v100H100z"/><path fill="#979bba" d="M200 100h100v100H200z"/><path fill="#a79597" d="M300 100h100v100H300z"/><path fill="#b8acb1" d="M400 100h100v100H400z"/><path fill="#b7b6c1" d="M500 100h100v100H500z"/><path fill="#afafb8" d="M600 100h100v100H600z"/><path fill="#b5c4d3" d="M700 100h100v100H700z"/><path fill="#75775e" d="M0 200h100v100H0z"/><path fill="#b3bdb1" d="M100 200h100v100H100z"/><path fill="#8d8597" d="M200 200h100v100H200z"/><path fill="#ad948f" d="M300 200h100v100H300z"/><path fill="#929eae" d="M400 200h100v100H400z"/><path fill="#9aa7b7" d="M500 200h100v100H500z"/><path fill="#9997a1" d="M600 200h100v100H600z"/><path fill="#a3b4c1" d="M700 200h100v100H700z"/><path fill="#6f6f5c" d="M0 300h100v100H0z"/><path fill="#a0abb3" d="M100 300h100v100H100z"/><path fill="#8b8f9e" d="M200 300h100v100H200z"/><path fill="#aa9996" d="M300 300h100v100H300z"/><path fill="#9f98a2" d="M400 300h100v100H400z"/><path fill="#aea3ae" d="M500 300h100v100H500z"/><path fill="#b49ea6" d="M600 300h100v100H600z"/><path fill="#a9aca0" d="M700 300h100v100H700z"/><path fill="#666858" d="M0 400h100v100H0z"/><path fill="#9faabc" d="M100 400h100v100H100z"/><path fill="#a1a7b7" d="M200 400h100v100H200z"/><path fill="#9ea19e" d="M300 400h100v100H300z"/><path fill="#afafae" d="M400 400h100v100H400z"/><path fill="#b1b2bf" d="M500 400h100v100H500z"/><path fill="#818491" d="M600 400h100v100H600z"/><path fill="#aea9b5" d="M700 400h100v100H700z"/><path fill="#61676e" d="M0 500h100v100H0z"/><path fill="#96a0b1" d="M100 500h100v100H100z"/><path fill="#969caa" d="M200 500h100v100H200z"/><path fill="#989da7" d="M300 500h100v100H300z"/><path fill="#a2a7b3" d="M400 500h100v100H400z"/><path fill="#9296a4" d="M500 500h100v100H500z"/><path fill="#757a88" d="M600 500h100v100H600z"/><path fill="#9496a5" d="M700 500h100v100H700z"/></svg>