<svg xmlns="http://www.w3.org/2000/svg" viewBox="0 0 800 500"><defs/><path fill="#b7bcc4" d="M0 0h100v100H0z"/><path fill="#b5bbc1" d="M100 0h100v100H100z"/><path fill="#cfd2db" d="M200 0h100v100H200z"/><path fill="#d0d2db" d="M300 0h100v100H300z"/><path fill="#c9cbd4" d="M400 0h100v100H400z"/><path fill="#bec1cb" d="M500 0h100v100H500z"/><path fill="#b1b2bb" d="M600 0h100v100H600z"/><path fill="#a0abb7" d="M700 0h100v100H700z"/><path fill="#929b9d" d="M0 100h100v100H0z"/><path fill="#61746c" d="M100 100h100v100H100z"/><path fill="#acafc6" d="M200 100h100v100H200z"/><path fill="#898ca8" d="M300 100h100v100H300z"/><path fill="#898aa4" d="M400 100h100v100H400z"/><path fill="#767b8f" d="M500 100h100v100H500z"/><path fill="#5b6e81" d="M600 100h100v100H600z"/><path fill="#6a8397" d="M700 100h100v100H700z"/><path fill="#828d8c" d="M0 200h100v100H0z"/><path fill="#3f594e" d="M100 200h100v100H100z"/><path fill="#b9b3cb" d="M200 200h100v100H200z"/><path fill="#a8b0ac" d="M300 200h100v100H300z"/><path fill="#989b94" d="M400 200h100v100H400z"/><path fill="#5e6c62" d="M500 200h100v100H500z"/><path fill="#768c90" d="M600 200h100v100H600z"/><path fill="#b7b5be" d="M700 200h100v100H700z"/><path fill="#9ea2af" d="M0 300h100v100H0z"/><path fill="#8996a6" d="M100 300h100v100H100z"/><path fill="#a7a2bb" d="M200 300h100v100H200z"/><path fill="#888882" d="M300 300h100v100H300z"/><path fill="#4a412f" d="M400 300h100v100H400z"/><path fill="#503c3c" d="M500 300h100v100H500z"/><path fill="#9f9ca9" d="M600 300h100v100H600z"/><path fill="#bab7be" d="M700 300h100v100H700z"/><path fill="#adb0c0" d="M0 400h100v100H0z"/><path fill="#b2b7cf" d="M100 400h100v100H100z"/><path fill="#9ea2be" d="M200 400h100v100H200z"/><path fill="#7b899f" d="M300 400h100v100H300z"/><path fill="#5e6473" d="M400 400h100v100H400z"/><path fill="#5d5562" d="M500 400h100v100H500z"/><path fill="#737989" d="M600 400h100v100H600z"/><path fill="#9b97a0" d="M700 400h100v100H700z"/></svg>