<svg xmlns="http://www.w3.org/2000/svg" viewBox="0 0 800 500"><defs/><path fill="#b7d6cd" d="M0 0h100v100H0z"/><path fill="#a6beae" d="M100 0h100v100H100z"/><path fill="#92c1c4" d="M200 0h100v100H200z"/><path fill="#93c2c7" d="M300 0h100v100H300z"/><path fill="#94c0c3" d="M400 0h100v100H400z"/><path fill="#8ec7cf" d="M500 0h100v100H500z"/><path fill="#a5cfc0" d="M600 0h100v100H600z"/><path fill="#859e82" d="M700 0h100v100H700z"/><path fill="#baceab" d="M0 100h100v100H0z"/><path fill="#969464" d="M100 100h100v100H100z"/><path fill="#609fa8" d="M200 100h100v100H200z"/><path fill="#61a7ac" d="M300 100h100v100H300z"/><path fill="#68a3a5" d="M400 100h100v100H400z"/><path fill="#4f9ba8" d="M500 100h100v100H500z"/><path fill="#5e8d6a" d="M600 100h100v100H600z"/><path fill="#95a57a" d="M700 100h100v100H700z"/><path fill="#bacaa7" d="M0 200h100v100H0z"/><path fill="#91936d" d="M100 200h100v100H100z"/><path fill="#48a5b4" d="M200 200h100v100H200z"/><path fill="#14a2aa" d="M300 200h100v100H300z"/><path fill="#33a5ab" d="M400 200h100v100H400z"/><path fill="#6c9a9e" d="M500 200h100v100H500z"/><path fill="#6c987c" d="M600 200h100v100H600z"/><path fill="#9cb18b" d="M700 200h100v100H700z"/><path fill="#b0bea0" d="M0 300h100v100H0z"/><path fill="#938f6c" d="M100 300h100v100H100z"/><path fill="#849c93" d="M200 300h100v100H200z"/><path fill="#738986" d="M300 300h100v100H300z"/><path fill="#8c948a" d="M400 300h100v100H400z"/><path fill="#96aca1" d="M500 300h100v100H500z"/><path fill="#bbc194" d="M600 300h100v100H600z"/><path fill="#a4ae63" d="M700 300h100v100H700z"/><path fill="#abbeb1" d="M0 400h100v100H0z"/><path fill="#9ea792" d="M100 400h100v100H100z"/><path fill="#ababa3" d="M200 400h100v100H200z"/><path fill="#cea9a2" d="M300 400h100v100H300z"/><path fill="#cab1a7" d="M400 400h100v100H400z"/><path fill="#aabdaf" d="M500 400h100v100H500z"/><path fill="#b4bfb1" d="M600 400h100v100H600z"/><path fill="#7f8f75" d="M700 400h100v100H700z"/></svg>