<svg xmlns="http://www.w3.org/2000/svg" viewBox="0 0 800 400"><defs/><path fill="#777a60" d="M0 0h100v100H0z"/><path fill="#6e6649" d="M100 0h100v100H100z"/><path fill="#737b63" d="M200 0h100v100H200z"/><path fill="#909a8b" d="M300 0h100v100H300z"/><path fill="#616142" d="M400 0h100v100H400z"/><path fill="#686d53" d="M500 0h100v100H500z"/><path fill="#6a6a50" d="M600 0h100v100H600z"/><path fill="#5c6142" d="M700 0h100v100H700z"/><path fill="#908d6d" d="M0 100h100v100H0z"/><path fill="#736c4e" d="M100 100h100v100H100z"/><path fill="#a8ad94" d="M200 100h100v100H200z"/><path fill="#d7ded1" d="M300 100h100v100H300z"/><path fill="#827c60" d="M400 100h100v100H400z"/><path fill="#98965e" d="M500 100h100v100H500z"/><path fill="#928e6f" d="M600 100h100v100H600z"/><path fill="#6c7458" d="M700 100h100v100H700z"/><path fill="#938e6d" d="M0 200h100v100H0z"/><path fill="#6a6850" d="M100 200h100v100H100z"/><path fill="#999064" d="M200 200h100v100H200z"/><path fill="#ac907b" d="M300 200h100v100H300z"/><path fill="#7a7a7f" d="M400 200h100v100H400z"/><path fill="#a99e81" d="M500 200h100v100H500z"/><path fill="#877d5c" d="M600 200h100v100H600z"/><path fill="#676753" d="M700 200h100v100H700z"/><path fill="#687359" d="M0 300h100v100H0z"/><path fill="#817857" d="M100 300h100v100H100z"/><path fill="#a18671" d="M200 300h100v100H200z"/><path fill="#5d5f5b" d="M300 300h100v100H300z"/><path fill="#616263" d="M400 300h100v100H400z"/><path fill="#62666a" d="M500 300h100v100H500z"/><path fill="#9d9e7c" d="M600 300h100v100H600z"/><path fill="#6c6d63" d="M700 300h100v100H700z"/></svg>