<svg xmlns="http://www.w3.org/2000/svg" viewBox="0 0 800 500"><defs/><path fill="#f2f2f2" d="M0 0h100v100H0z"/><path fill="#dcdcdc" d="M100 0h100v100H100z"/><path fill="#ededed" d="M200 0h100v100H200z"/><path fill="#f6f5f6" d="M300 0h100v100H300z"/><path fill="#f1f2f2" d="M400 0h100v100H400z"/><path fill="#f4f5f5" d="M500 0h100v100H500z"/><path fill="#f5f5f5" d="M600 0h100v100H600z"/><path fill="#f3f3f3" d="M700 0h100v100H700z"/><path fill="#f0f0f0" d="M0 100h100v100H0z"/><path fill="#d5d5d6" d="M100 100h100v100H100z"/><path fill="#eaeae9" d="M200 100h100v100H200z"/><path fill="#fafbfa" d="M300 100h100v100H300z"/><path fill="#fdfcfc" d="M400 100h100v100H400z"/><path fill="#e3e3e1" d="M500 100h100v100H500z"/><path fill="#f4f5f5" d="M600 100h100v100H600z"/><path fill="#f9f9f9" d="M700 100h100v100H700z"/><path fill="#e8e7e7" d="M0 200h100v100H0z"/><path fill="#dee0e1" d="M100 200h100v100H100z"/><path fill="#9a96a1" d="M200 200h100v100H200z"/><path fill="#a5949a" d="M300 200h100v100H300z"/><path fill="#b6bfb4" d="M400 200h100v100H400z"/><path fill="#b1b4b2" d="M500 200h100v100H500z"/><path fill="#ededed" d="M600 200h100v100H600z"/><path fill="#f6f6f6" d="M700 200h100v100H700z"/><path fill="#dfdedf" d="M0 300h100v100H0z"/><path fill="#d3d3d2" d="M100 300h100v100H100z"/><path fill="#d4cfd8" d="M200 300h100v100H200z"/><path fill="#c6b9ca" d="M300 300h100v100H300z"/><path fill="#cacbcc" d="M400 300h100v100H400z"/><path fill="#f1f4f3" d="M500 300h100v100H500z"/><path fill="#eeedee" d="M600 300h100v100H600z"/><path fill="#f4f4f4" d="M700 300h100v100H700z"/><path fill="#d6d6d6" d="M0 400h100v100H0z"/><path fill="#e6e6e6" d="M100 400h100v100H100z"/><path fill="#f5f5f4" d="M200 400h100v100H200z"/><path fill="#fff" d="M300 400h100v100H300z"/><path fill="#fffefe" d="M400 400h100v100H400z"/><path fill="#f5f4f4" d="M500 400h100v100H500z"/><path fill="#f4f4f4" d="M600 400h100v100H600z"/><path fill="#f3f3f3" d="M700 400h100v100H700z"/></svg>