<svg xmlns="http://www.w3.org/2000/svg" viewBox="0 0 800 400"><defs/><path fill="#505050" d="M0 0h100v100H0z"/><path fill="#929292" d="M100 0h100v100H100z"/><path fill="#a5a5a5" d="M200 0h100v100H200z"/><path fill="#a2a2a2" d="M300 0h100v100H300z"/><path fill="#b3b3b3" d="M400 0h100v100H400z"/><path fill="#979797" d="M500 0h100v100H500z"/><path fill="#818181" d="M600 0h100v100H600z"/><path fill="#393939" d="M700 0h100v100H700z"/><path fill="#adadad" d="M0 100h100v100H0z"/><path fill="#bdbdbd" d="M100 100h100v100H100z"/><path fill="#989898" d="M200 100h100v100H200z"/><path fill="#a7a7a7" d="M300 100h100v100H300z"/><path fill="#ababab" d="M400 100h100v100H400z"/><path fill="#898989" d="M500 100h100v100H500z"/><path fill="#787878" d="M600 100h100v100H600z"/><path fill="#7c7c7c" d="M700 100h100v100H700z"/><path fill="#c6c6c6" d="M0 200h100v100H0z"/><path fill="#c7c7c7" d="M100 200h100v100H100z"/><path fill="#b4b4b4" d="M200 200h100v100H200z"/><path fill="#bdbdbd" d="M300 200h100v100H300z"/><path fill="#cdcdcd" d="M400 200h100v100H400z"/><path fill="#b9b9b9" d="M500 200h100v100H500z"/><path fill="#9b9b9b" d="M600 200h100v100H600z"/><path fill="#a4a4a4" d="M700 200h100v100H700z"/><path fill="#737373" d="M0 300h100v100H0z"/><path fill="#b8b8b8" d="M100 300h100v100H100z"/><path fill="#cbcbcb" d="M200 300h100v100H200z"/><path fill="#c3c3c3" d="M300 300h100v100H300z"/><path fill="#b9b9b9" d="M400 300h100v100H400z"/><path fill="#a7a7a7" d="M500 300h100v100H500z"/><path fill="#a0a0a0" d="M600 300h100v100H600z"/><path fill="#afafaf" d="M700 300h100v100H700z"/></svg>