<svg xmlns="http://www.w3.org/2000/svg" viewBox="0 0 800 500"><defs/><path fill="#abd6c7" d="M0 0h100v100H0z"/><path fill="#d7a49e" d="M100 0h100v100H100z"/><path fill="#bbc1a7" d="M200 0h100v100H200z"/><path fill="#99d4c1" d="M300 0h100v100H300z"/><path fill="#92cdc4" d="M400 0h100v100H400z"/><path fill="#9dcab5" d="M500 0h100v100H500z"/><path fill="#99cdb5" d="M600 0h100v100H600z"/><path fill="#99d1bc" d="M700 0h100v100H700z"/><path fill="#99c1ae" d="M0 100h100v100H0z"/><path fill="#cd8076" d="M100 100h100v100H100z"/><path fill="#959b74" d="M200 100h100v100H200z"/><path fill="#7cb69d" d="M300 100h100v100H300z"/><path fill="#6cb4a0" d="M400 100h100v100H400z"/><path fill="#80b69f" d="M500 100h100v100H500z"/><path fill="#68ad7a" d="M600 100h100v100H600z"/><path fill="#66b688" d="M700 100h100v100H700z"/><path fill="#b3b8ad" d="M0 200h100v100H0z"/><path fill="#cf988c" d="M100 200h100v100H100z"/><path fill="#94938e" d="M200 200h100v100H200z"/><path fill="#929c8b" d="M300 200h100v100H300z"/><path fill="#9c8f7b" d="M400 200h100v100H400z"/><path fill="#c09089" d="M500 200h100v100H500z"/><path fill="#b58e7b" d="M600 200h100v100H600z"/><path fill="#979f80" d="M700 200h100v100H700z"/><path fill="#c8aba5" d="M0 300h100v100H0z"/><path fill="#d87a67" d="M100 300h100v100H100z"/><path fill="#d07b83" d="M200 300h100v100H200z"/><path fill="#dc8596" d="M300 300h100v100H300z"/><path fill="#af6d47" d="M400 300h100v100H400z"/><path fill="#c86031" d="M500 300h100v100H500z"/><path fill="#f65b66" d="M600 300h100v100H600z"/><path fill="#e56a6b" d="M700 300h100v100H700z"/><path fill="#e5b3b2" d="M0 400h100v100H0z"/><path fill="#ef8f93" d="M100 400h100v100H100z"/><path fill="#f59fa7" d="M200 400h100v100H200z"/><path fill="#fc9fae" d="M300 400h100v100H300z"/><path fill="#cd896e" d="M400 400h100v100H400z"/><path fill="#b37a42" d="M500 400h100v100H500z"/><path fill="#c6765c" d="M600 400h100v100H600z"/><path fill="#c27f62" d="M700 400h100v100H700z"/></svg>