<svg xmlns="http://www.w3.org/2000/svg" viewBox="0 0 800 800"><defs/><path fill="#a88d78" d="M0 0h100v100H0z"/><path fill="#a68a75" d="M100 0h100v100H100z"/><path fill="#a78974" d="M200 0h100v100H200z"/><path fill="#a3836e" d="M300 0h100v100H300z"/><path fill="#9c7d68" d="M400 0h100v100H400z"/><path fill="#987b65" d="M500 0h100v100H500z"/><path fill="#997964" d="M600 0h100v100H600z"/><path fill="#927661" d="M700 0h100v100H700z"/><path fill="#d7e8db" d="M0 100h100v100H0z"/><path fill="#ceded0" d="M100 100h100v100H100z"/><path fill="#c6d7cb" d="M200 100h100v100H200z"/><path fill="#c6d4c8" d="M300 100h100v100H300z"/><path fill="#c1cdc4" d="M400 100h100v100H400z"/><path fill="#c4cec6" d="M500 100h100v100H500z"/><path fill="#becbc2" d="M600 100h100v100H600z"/><path fill="#bcc6ba" d="M700 100h100v100H700z"/><path fill="#6aa98a" d="M0 200h100v100H0z"/><path fill="#5f9d7b" d="M100 200h100v100H100z"/><path fill="#356b51" d="M200 200h100v100H200z"/><path fill="#2e6956" d="M300 200h100v100H300z"/><path fill="#215547" d="M400 200h100v100H400z"/><path fill="#245a4a" d="M500 200h100v100H500z"/><path fill="#276a54" d="M600 200h100v100H600z"/><path fill="#2c5533" d="M700 200h100v100H700z"/><path fill="#5e947a" d="M0 300h100v100H0z"/><path fill="#5e886c" d="M100 300h100v100H100z"/><path fill="#444638" d="M200 300h100v100H200z"/><path fill="#42483c" d="M300 300h100v100H300z"/><path fill="#474737" d="M400 300h100v100H400z"/><path fill="#4f5239" d="M500 300h100v100H500z"/><path fill="#365240" d="M600 300h100v100H600z"/><path fill="#325b3b" d="M700 300h100v100H700z"/><path fill="#538161" d="M0 400h100v100H0z"/><path fill="#596b51" d="M100 400h100v100H100z"/><path fill="#97795a" d="M200 400h100v100H200z"/><path fill="#9f7a55" d="M300 400h100v100H300z"/><path fill="#84694b" d="M400 400h100v100H400z"/><path fill="#807651" d="M500 400h100v100H500z"/><path fill="#6c593f" d="M600 400h100v100H600z"/><path fill="#3d432f" d="M700 400h100v100H700z"/><path fill="#557146" d="M0 500h100v100H0z"/><path fill="#9ba04a" d="M100 500h100v100H100z"/><path fill="#9e864c" d="M200 500h100v100H200z"/><path fill="#a08357" d="M300 500h100v100H300z"/><path fill="#73623d" d="M400 500h100v100H400z"/><path fill="#55472b" d="M500 500h100v100H500z"/><path fill="#50412d" d="M600 500h100v100H600z"/><path fill="#555327" d="M700 500h100v100H700z"/><path fill="#e0e2c7" d="M0 600h100v100H0z"/><path fill="#f4f3cb" d="M100 600h100v100H100z"/><path fill="#e5e4c5" d="M200 600h100v100H200z"/><path fill="#e5e1c9" d="M300 600h100v100H300z"/><path fill="#e5dfbf" d="M400 600h100v100H400z"/><path fill="#c7c5ae" d="M500 600h100v100H500z"/><path fill="#babaa9" d="M600 600h100v100H600z"/><path fill="#d8d9b4" d="M700 600h100v100H700z"/><path fill="#d0b7a1" d="M0 700h100v100H0z"/><path fill="#c8af9c" d="M100 700h100v100H100z"/><path fill="#c3aa95" d="M200 700h100v100H200z"/><path fill="#c1a894" d="M300 700h100v100H300z"/><path fill="#b69f8c" d="M400 700h100v100H400z"/><path fill="#aa9481" d="M500 700h100v100H500z"/><path fill="#a58f79" d="M600 700h100v100H600z"/><path fill="#9c8875" d="M700 700h100v100H700z"/></svg>