<svg xmlns="http://www.w3.org/2000/svg" viewBox="0 0 800 600"><defs/><path fill="#fde1e7" d="M0 0h100v100H0z"/><path fill="#e1d5d6" d="M100 0h100v100H100z"/><path fill="#f3dce0" d="M200 0h100v100H200z"/><path fill="#ffd9e1" d="M300 0h100v100H300z"/><path fill="#fce5e9" d="M400 0h100v100H400z"/><path fill="#fcd9e0" d="M500 0h100v100H500z"/><path fill="#fbe8eb" d="M600 0h100v100H600z"/><path fill="#fbdde4" d="M700 0h100v100H700z"/><path fill="#f45982" d="M0 100h100v100H0z"/><path fill="#772218" d="M100 100h100v100H100z"/><path fill="#ea1d53" d="M200 100h100v100H200z"/><path fill="#ff0d52" d="M300 100h100v100H300z"/><path fill="#fe306c" d="M400 100h100v100H400z"/><path fill="#ff0145" d="M500 100h100v100H500z"/><path fill="#ff195e" d="M600 100h100v100H600z"/><path fill="#ff2362" d="M700 100h100v100H700z"/><path fill="#c47677" d="M0 200h100v100H0z"/><path fill="#894e20" d="M100 200h100v100H100z"/><path fill="#a37766" d="M200 200h100v100H200z"/><path fill="#83a465" d="M300 200h100v100H300z"/><path fill="#959256" d="M400 200h100v100H400z"/><path fill="#ac6b5b" d="M500 200h100v100H500z"/><path fill="#a36655" d="M600 200h100v100H600z"/><path fill="#c26366" d="M700 200h100v100H700z"/><path fill="#81bd65" d="M0 300h100v100H0z"/><path fill="#726f1f" d="M100 300h100v100H100z"/><path fill="#71e451" d="M200 300h100v100H200z"/><path fill="#74e545" d="M300 300h100v100H300z"/><path fill="#77f142" d="M400 300h100v100H400z"/><path fill="#74e149" d="M500 300h100v100H500z"/><path fill="#70df4b" d="M600 300h100v100H600z"/><path fill="#5beb4a" d="M700 300h100v100H700z"/><path fill="#8e944d" d="M0 400h100v100H0z"/><path fill="#a46c23" d="M100 400h100v100H100z"/><path fill="#e4a94b" d="M200 400h100v100H200z"/><path fill="#dac754" d="M300 400h100v100H300z"/><path fill="#d4f461" d="M400 400h100v100H400z"/><path fill="#dcb34d" d="M500 400h100v100H500z"/><path fill="#e6a045" d="M600 400h100v100H600z"/><path fill="#9eba47" d="M700 400h100v100H700z"/><path fill="#e6dfc8" d="M0 500h100v100H0z"/><path fill="#efdeba" d="M100 500h100v100H100z"/><path fill="#efe2bf" d="M200 500h100v100H200z"/><path fill="#ecefc2" d="M300 500h100v100H300z"/><path fill="#ebfdc5" d="M400 500h100v100H400z"/><path fill="#ede7c0" d="M500 500h100v100H500z"/><path fill="#efe1bd" d="M600 500h100v100H600z"/><path fill="#ebe1c1" d="M700 500h100v100H700z"/></svg>