<svg xmlns="http://www.w3.org/2000/svg" viewBox="0 0 800 400"><defs/><path fill="#dbba90" d="M0 0h100v100H0z"/><path fill="#773b1a" d="M100 0h100v100H100z"/><path fill="#552826" d="M200 0h100v100H200z"/><path fill="#8a6657" d="M300 0h100v100H300z"/><path fill="#916f60" d="M400 0h100v100H400z"/><path fill="#60302a" d="M500 0h100v100H500z"/><path fill="#5a2b25" d="M600 0h100v100H600z"/><path fill="#d5bb8f" d="M700 0h100v100H700z"/><path fill="#be9268" d="M0 100h100v100H0z"/><path fill="#622811" d="M100 100h100v100H100z"/><path fill="#a99987" d="M200 100h100v100H200z"/><path fill="#f0ecce" d="M300 100h100v100H300z"/><path fill="#dbe0cb" d="M400 100h100v100H400z"/><path fill="#bba89d" d="M500 100h100v100H500z"/><path fill="#343e17" d="M600 100h100v100H600z"/><path fill="#58a558" d="M700 100h100v100H700z"/><path fill="#b8865b" d="M0 200h100v100H0z"/><path fill="#7f3b14" d="M100 200h100v100H100z"/><path fill="#cba983" d="M200 200h100v100H200z"/><path fill="#886847" d="M300 200h100v100H300z"/><path fill="#725537" d="M400 200h100v100H400z"/><path fill="#d1b68c" d="M500 200h100v100H500z"/><path fill="#926136" d="M600 200h100v100H600z"/><path fill="#7a6f37" d="M700 200h100v100H700z"/><path fill="#ca9b75" d="M0 300h100v100H0z"/><path fill="#db9965" d="M100 300h100v100H100z"/><path fill="#e2ba8e" d="M200 300h100v100H200z"/><path fill="#ab9576" d="M300 300h100v100H300z"/><path fill="#bcaa7d" d="M400 300h100v100H400z"/><path fill="#f4d9a2" d="M500 300h100v100H500z"/><path fill="#f0a770" d="M600 300h100v100H600z"/><path fill="#945e3d" d="M700 300h100v100H700z"/></svg>