<svg xmlns="http://www.w3.org/2000/svg" viewBox="0 0 800 500"><defs/><path fill="#bda998" d="M0 0h100v100H0z"/><path fill="#baab9a" d="M100 0h100v100H100z"/><path fill="#c5b4a5" d="M200 0h100v100H200z"/><path fill="#cbbbab" d="M300 0h100v100H300z"/><path fill="#c5b2a3" d="M400 0h100v100H400z"/><path fill="#c1af9f" d="M500 0h100v100H500z"/><path fill="#bcac98" d="M600 0h100v100H600z"/><path fill="#a7947f" d="M700 0h100v100H700z"/><path fill="#ad9e8e" d="M0 100h100v100H0z"/><path fill="#b19c89" d="M100 100h100v100H100z"/><path fill="#b6a496" d="M200 100h100v100H200z"/><path fill="#bca794" d="M300 100h100v100H300z"/><path fill="#c1aa97" d="M400 100h100v100H400z"/><path fill="#bba695" d="M500 100h100v100H500z"/><path fill="#b29f8d" d="M600 100h100v100H600z"/><path fill="#9a8669" d="M700 100h100v100H700z"/><path fill="#b0a193" d="M0 200h100v100H0z"/><path fill="#ac9989" d="M100 200h100v100H100z"/><path fill="#b7a696" d="M200 200h100v100H200z"/><path fill="#af9782" d="M300 200h100v100H300z"/><path fill="#a79685" d="M400 200h100v100H400z"/><path fill="#a59883" d="M500 200h100v100H500z"/><path fill="#a28f80" d="M600 200h100v100H600z"/><path fill="#a08b71" d="M700 200h100v100H700z"/><path fill="#b8a48e" d="M0 300h100v100H0z"/><path fill="#a9947d" d="M100 300h100v100H100z"/><path fill="#b29d8d" d="M200 300h100v100H200z"/><path fill="#a98369" d="M300 300h100v100H300z"/><path fill="#a07e6b" d="M400 300h100v100H400z"/><path fill="#9c866b" d="M500 300h100v100H500z"/><path fill="#8f8068" d="M600 300h100v100H600z"/><path fill="#897e6f" d="M700 300h100v100H700z"/><path fill="#b19a7a" d="M0 400h100v100H0z"/><path fill="#b09979" d="M100 400h100v100H100z"/><path fill="#ab967f" d="M200 400h100v100H200z"/><path fill="#af8e70" d="M300 400h100v100H300z"/><path fill="#af8e7b" d="M400 400h100v100H400z"/><path fill="#b1947f" d="M500 400h100v100H500z"/><path fill="#9e9583" d="M600 400h100v100H600z"/><path fill="#767467" d="M700 400h100v100H700z"/></svg>