<svg xmlns="http://www.w3.org/2000/svg" viewBox="0 0 800 900"><defs/><path fill="#fff" d="M0 0h100v100H0z"/><path fill="#f3f3f3" d="M100 0h100v100H100z"/><path fill="#f3f0ea" d="M200 0h100v100H200z"/><path fill="#f3ecde" d="M300 0h100v100H300z"/><path fill="#f7f7f3" d="M400 0h100v100H400z"/><path fill="#fff" d="M500 0h100v100H500z"/><path fill="#fefefe" d="M600 0h100v100H600zm100 0h100v100H700z"/><path fill="#fff" d="M0 100h100v100H0z"/><path fill="#f2f0ee" d="M100 100h100v100H100z"/><path fill="#e7cd9f" d="M200 100h100v100H200z"/><path fill="#c0ac8b" d="M300 100h100v100H300z"/><path fill="#dec7a1" d="M400 100h100v100H400z"/><path fill="#f0efeb" d="M500 100h100v100H500z"/><path fill="#c6c7c7" d="M600 100h100v100H600z"/><path fill="#e5e5e4" d="M700 100h100v100H700z"/><path fill="#fff" d="M0 200h100v100H0z"/><path fill="#f1f0ed" d="M100 200h100v100H100z"/><path fill="#e8cb96" d="M200 200h100v100H200z"/><path fill="#b5ab87" d="M300 200h100v100H300z"/><path fill="#839a8e" d="M400 200h100v100H400z"/><path fill="#ced1d1" d="M500 200h100v100H500z"/><path fill="#d3d3d2" d="M600 200h100v100H600z"/><path fill="#e3e3e3" d="M700 200h100v100H700z"/><path fill="#fff" d="M0 300h100v100H0z"/><path fill="#e4e6e8" d="M100 300h100v100H100z"/><path fill="#b9b8b4" d="M200 300h100v100H200z"/><path fill="#d1d8d9" d="M300 300h100v100H300z"/><path fill="#d2dadc" d="M400 300h100v100H400z"/><path fill="#dbdbdb" d="M500 300h100v100H500z"/><path fill="#fff" d="M600 300h100v100H600z"/><path fill="#fefefe" d="M700 300h100v100H700z"/><path fill="#fff" d="M0 400h100v100H0z"/><path fill="#f7f4f3" d="M100 400h100v100H100z"/><path fill="#e2e0e0" d="M200 400h100v100H200z"/><path fill="#f7f6f4" d="M300 400h100v100H300z"/><path fill="#edebe9" d="M400 400h100v100H400z"/><path fill="#dfdedd" d="M500 400h100v100H500z"/><path fill="#edeeef" d="M600 400h100v100H600z"/><path fill="#fff" d="M700 400h100v100H700z"/><path fill="#fdfefe" d="M0 500h100v100H0z"/><path fill="#8bafbf" d="M100 500h100v100H100z"/><path fill="#c0cccf" d="M200 500h100v100H200z"/><path fill="#7fe7da" d="M300 500h100v100H300z"/><path fill="#8be9db" d="M400 500h100v100H400z"/><path fill="#cfd6db" d="M500 500h100v100H500z"/><path fill="#4486a1" d="M600 500h100v100H600z"/><path fill="#f2f6f8" d="M700 500h100v100H700z"/><path fill="#fbfafa" d="M0 600h100v100H0z"/><path fill="#2a7999" d="M100 600h100v100H100z"/><path fill="#72a5ba" d="M200 600h100v100H200z"/><path fill="#a4d8d8" d="M300 600h100v100H300z"/><path fill="#97d1d4" d="M400 600h100v100H400z"/><path fill="#77a4b8" d="M500 600h100v100H500z"/><path fill="#0f6b90" d="M600 600h100v100H600z"/><path fill="#eff2f3" d="M700 600h100v100H700z"/><path fill="#fdfaf9" d="M0 700h100v100H0z"/><path fill="#257393" d="M100 700h100v100H100z"/><path fill="#4f8ea7" d="M200 700h100v100H200z"/><path fill="#c0c9d1" d="M300 700h100v100H300z"/><path fill="#4d87a3" d="M400 700h100v100H400z"/><path fill="#bacad0" d="M500 700h100v100H500z"/><path fill="#136b8e" d="M600 700h100v100H600z"/><path fill="#dfe7eb" d="M700 700h100v100H700z"/><path fill="#fefcfb" d="M0 800h100v100H0z"/><path fill="#98b9c7" d="M100 800h100v100H100z"/><path fill="#adc7d1" d="M200 800h100v100H200z"/><path fill="#ecedec" d="M300 800h100v100H300z"/><path fill="#a7c2cc" d="M400 800h100v100H400z"/><path fill="#eeeeef" d="M500 800h100v100H500z"/><path fill="#97b9c8" d="M600 800h100v100H600z"/><path fill="#ebf1f3" d="M700 800h100v100H700z"/></svg>