<svg xmlns="http://www.w3.org/2000/svg" viewBox="0 0 800 400"><defs/><path fill="#39408a" d="M0 0h100v100H0z"/><path fill="#516494" d="M100 0h100v100H100z"/><path fill="#2b3cb1" d="M200 0h100v100H200z"/><path fill="#3048c1" d="M300 0h100v100H300z"/><path fill="#6279a6" d="M400 0h100v100H400z"/><path fill="#a292a9" d="M500 0h100v100H500z"/><path fill="#d2c8a0" d="M600 0h100v100H600z"/><path fill="#cabc9b" d="M700 0h100v100H700z"/><path fill="#518694" d="M0 100h100v100H0z"/><path fill="#5c858b" d="M100 100h100v100H100z"/><path fill="#3e4eab" d="M200 100h100v100H200z"/><path fill="#3a54c7" d="M300 100h100v100H300z"/><path fill="#5869a3" d="M400 100h100v100H400z"/><path fill="#bba786" d="M500 100h100v100H500z"/><path fill="#dacaa5" d="M600 100h100v100H600z"/><path fill="#cfc69f" d="M700 100h100v100H700z"/><path fill="#2b64a4" d="M0 200h100v100H0z"/><path fill="#476994" d="M100 200h100v100H100z"/><path fill="#566c8a" d="M200 200h100v100H200z"/><path fill="#6b689c" d="M300 200h100v100H300z"/><path fill="#7e5c99" d="M400 200h100v100H400z"/><path fill="#c0c1b4" d="M500 200h100v100H500z"/><path fill="#b3a88e" d="M600 200h100v100H600z"/><path fill="#c9b27a" d="M700 200h100v100H700z"/><path fill="#3b6aaa" d="M0 300h100v100H0z"/><path fill="#786887" d="M100 300h100v100H100z"/><path fill="#91606c" d="M200 300h100v100H200z"/><path fill="#82717d" d="M300 300h100v100H300z"/><path fill="#948f74" d="M400 300h100v100H400z"/><path fill="#cc876a" d="M500 300h100v100H500z"/><path fill="#9b7a7d" d="M600 300h100v100H600z"/><path fill="#ab9773" d="M700 300h100v100H700z"/></svg>