<svg xmlns="http://www.w3.org/2000/svg" viewBox="0 0 800 600"><defs/><path fill="#636763" d="M0 0h100v100H0z"/><path fill="#676b68" d="M100 0h100v100H100z"/><path fill="#696b69" d="M200 0h100v100H200z"/><path fill="#646869" d="M300 0h100v100H300z"/><path fill="#a89e91" d="M400 0h100v100H400z"/><path fill="#d4af80" d="M500 0h100v100H500z"/><path fill="#93897f" d="M600 0h100v100H600z"/><path fill="#a6967d" d="M700 0h100v100H700z"/><path fill="#b9a6b7" d="M0 100h100v100H0z"/><path fill="#bfb2bf" d="M100 100h100v100H100z"/><path fill="#c4b9c3" d="M200 100h100v100H200z"/><path fill="#c6c3c1" d="M300 100h100v100H300z"/><path fill="#737384" d="M400 100h100v100H400z"/><path fill="#71667d" d="M500 100h100v100H500z"/><path fill="#9f939b" d="M600 100h100v100H600z"/><path fill="#9d8e8e" d="M700 100h100v100H700z"/><path fill="#a993a9" d="M0 200h100v100H0z"/><path fill="#b39cb3" d="M100 200h100v100H100z"/><path fill="#b59db6" d="M200 200h100v100H200z"/><path fill="#b597b6" d="M300 200h100v100H300z"/><path fill="#6a5a9d" d="M400 200h100v100H400z"/><path fill="#516fa8" d="M500 200h100v100H500z"/><path fill="#8aa6c4" d="M600 200h100v100H600z"/><path fill="#5a6f9d" d="M700 200h100v100H700z"/><path fill="#a29d9c" d="M0 300h100v100H0z"/><path fill="#b0b2aa" d="M100 300h100v100H100z"/><path fill="#b5b7b0" d="M200 300h100v100H200z"/><path fill="#b0afab" d="M300 300h100v100H300z"/><path fill="#8870ae" d="M400 300h100v100H400z"/><path fill="#5f73a8" d="M500 300h100v100H500z"/><path fill="#6d8db8" d="M600 300h100v100H600z"/><path fill="#47649e" d="M700 300h100v100H700z"/><path fill="#ab86a7" d="M0 400h100v100H0z"/><path fill="#bb9ab9" d="M100 400h100v100H100z"/><path fill="#c3a5c0" d="M200 400h100v100H200z"/><path fill="#c5a6c4" d="M300 400h100v100H300z"/><path fill="#6d5a7b" d="M400 400h100v100H400z"/><path fill="#5c5d6e" d="M500 400h100v100H500z"/><path fill="#6b6d7e" d="M600 400h100v100H600z"/><path fill="#6a6d7f" d="M700 400h100v100H700z"/><path fill="#565865" d="M0 500h100v100H0z"/><path fill="#7c7684" d="M100 500h100v100H100z"/><path fill="#888493" d="M200 500h100v100H200z"/><path fill="#817d88" d="M300 500h100v100H300z"/><path fill="#4e4743" d="M400 500h100v100H400z"/><path fill="#3d3331" d="M500 500h100v100H500z"/><path fill="#4a413d" d="M600 500h100v100H600z"/><path fill="#3d393c" d="M700 500h100v100H700z"/></svg>