<svg xmlns="http://www.w3.org/2000/svg" viewBox="0 0 800 500"><defs/><path fill="#66548b" d="M0 0h100v100H0z"/><path fill="#6f4581" d="M100 0h100v100H100z"/><path fill="#724b84" d="M200 0h100v100H200z"/><path fill="#553679" d="M300 0h100v100H300z"/><path fill="#aeaac7" d="M400 0h100v100H400z"/><path fill="#fff" d="M500 0h100v100H500z"/><path fill="#fcfcfd" d="M600 0h100v100H600z"/><path fill="#fff" d="M700 0h100v100H700z"/><path fill="#513378" d="M0 100h100v100H0z"/><path fill="#713077" d="M100 100h100v100H100z"/><path fill="#7d3e7e" d="M200 100h100v100H200z"/><path fill="#58246c" d="M300 100h100v100H300z"/><path fill="#9995ba" d="M400 100h100v100H400z"/><path fill="#ebecf8" d="M500 100h100v100H500z"/><path fill="#d4d4e9" d="M600 100h100v100H600z"/><path fill="#efeff8" d="M700 100h100v100H700z"/><path fill="#2c3a63" d="M0 200h100v100H0z"/><path fill="#14353c" d="M100 200h100v100H100z"/><path fill="#1f394c" d="M200 200h100v100H200z"/><path fill="#030f4a" d="M300 200h100v100H300z"/><path fill="#8383b2" d="M400 200h100v100H400z"/><path fill="#a9a9d1" d="M500 200h100v100H500z"/><path fill="#8f8fbe" d="M600 200h100v100H600z"/><path fill="#c4c4e2" d="M700 200h100v100H700z"/><path fill="#222765" d="M0 300h100v100H0z"/><path fill="#2a346e" d="M100 300h100v100H100z"/><path fill="#323c7a" d="M200 300h100v100H200z"/><path fill="#050c57" d="M300 300h100v100H300z"/><path fill="#8989b1" d="M400 300h100v100H400z"/><path fill="#e3e2f9" d="M500 300h100v100H500z"/><path fill="#a6a5da" d="M600 300h100v100H600z"/><path fill="#e2e1f5" d="M700 300h100v100H700z"/><path fill="#4b498b" d="M0 400h100v100H0z"/><path fill="#413e8f" d="M100 400h100v100H100z"/><path fill="#49469a" d="M200 400h100v100H200z"/><path fill="#28257c" d="M300 400h100v100H300z"/><path fill="#a9a8c6" d="M400 400h100v100H400z"/><path fill="#fff" d="M500 400h100v100H500z"/><path fill="#fcfcfd" d="M600 400h100v100H600z"/><path fill="#fff" d="M700 400h100v100H700z"/></svg>