<svg xmlns="http://www.w3.org/2000/svg" viewBox="0 0 800 1100"><defs/><path fill="#302520" d="M0 0h100v100H0z"/><path fill="#2f241f" d="M100 0h100v100H100z"/><path fill="#2e231d" d="M200 0h100v100H200z"/><path fill="#281f1b" d="M300 0h100v100H300z"/><path fill="#211b19" d="M400 0h100v100H400z"/><path fill="#271f1d" d="M500 0h100v100H500z"/><path fill="#3b2f2b" d="M600 0h100v100H600z"/><path fill="#43332c" d="M700 0h100v100H700z"/><path fill="#3f3129" d="M0 100h100v100H0z"/><path fill="#43352f" d="M100 100h100v100H100z"/><path fill="#3c3029" d="M200 100h100v100H200z"/><path fill="#443732" d="M300 100h100v100H300z"/><path fill="#4c4340" d="M400 100h100v100H400z"/><path fill="#3f3430" d="M500 100h100v100H500z"/><path fill="#4d3f38" d="M600 100h100v100H600z"/><path fill="#4b3c35" d="M700 100h100v100H700z"/><path fill="#271d17" d="M0 200h100v100H0z"/><path fill="#2b2523" d="M100 200h100v100H100z"/><path fill="#382d2a" d="M200 200h100v100H200z"/><path fill="#463d3b" d="M300 200h100v100H300z"/><path fill="#494545" d="M400 200h100v100H400z"/><path fill="#3c332e" d="M500 200h100v100H500z"/><path fill="#564943" d="M600 200h100v100H600z"/><path fill="#544741" d="M700 200h100v100H700z"/><path fill="#251c19" d="M0 300h100v100H0z"/><path fill="#312a23" d="M100 300h100v100H100z"/><path fill="#4f3d37" d="M200 300h100v100H200z"/><path fill="#564743" d="M300 300h100v100H300z"/><path fill="#423d3b" d="M400 300h100v100H400z"/><path fill="#322b22" d="M500 300h100v100H500z"/><path fill="#3d342f" d="M600 300h100v100H600z"/><path fill="#3d3632" d="M700 300h100v100H700z"/><path fill="#3d322f" d="M0 400h100v100H0z"/><path fill="#716560" d="M100 400h100v100H100zm100 0h100v100H200z"/><path fill="#8d807c" d="M300 400h100v100H300z"/><path fill="#756b68" d="M400 400h100v100H400z"/><path fill="#392a22" d="M500 400h100v100H500z"/><path fill="#332c27" d="M600 400h100v100H600z"/><path fill="#38302c" d="M700 400h100v100H700z"/><path fill="#6a5852" d="M0 500h100v100H0z"/><path fill="#817969" d="M100 500h100v100H100z"/><path fill="#7e7c68" d="M200 500h100v100H200z"/><path fill="#757169" d="M300 500h100v100H300z"/><path fill="#a2988a" d="M400 500h100v100H400z"/><path fill="#5f5750" d="M500 500h100v100H500z"/><path fill="#585250" d="M600 500h100v100H600z"/><path fill="#3f3530" d="M700 500h100v100H700z"/><path fill="#4c3630" d="M0 600h100v100H0z"/><path fill="#a8a496" d="M100 600h100v100H100z"/><path fill="#7c7963" d="M200 600h100v100H200z"/><path fill="#988d81" d="M300 600h100v100H300z"/><path fill="#b3a599" d="M400 600h100v100H400z"/><path fill="#9e9892" d="M500 600h100v100H500z"/><path fill="#7d726f" d="M600 600h100v100H600z"/><path fill="#372820" d="M700 600h100v100H700z"/><path fill="#4e3025" d="M0 700h100v100H0z"/><path fill="#cac0be" d="M100 700h100v100H100z"/><path fill="#bcb3b0" d="M200 700h100v100H200z"/><path fill="#a18e7f" d="M300 700h100v100H300z"/><path fill="#98816d" d="M400 700h100v100H400z"/><path fill="#786760" d="M500 700h100v100H500z"/><path fill="#726c71" d="M600 700h100v100H600z"/><path fill="#877a72" d="M700 700h100v100H700z"/><path fill="#543b2f" d="M0 800h100v100H0z"/><path fill="#c1bab4" d="M100 800h100v100H100z"/><path fill="#b7b2ad" d="M200 800h100v100H200z"/><path fill="#b2aba6" d="M300 800h100v100H300z"/><path fill="#b0a7a1" d="M400 800h100v100H400z"/><path fill="#888585" d="M500 800h100v100H500z"/><path fill="#7d7877" d="M600 800h100v100H600z"/><path fill="#877f78" d="M700 800h100v100H700z"/><path fill="#573d33" d="M0 900h100v100H0z"/><path fill="#ada6a4" d="M100 900h100v100H100z"/><path fill="#aba3a1" d="M200 900h100v100H200z"/><path fill="#a8a1a0" d="M300 900h100v100H300z"/><path fill="#988e89" d="M400 900h100v100H400z"/><path fill="#7c7577" d="M500 900h100v100H500z"/><path fill="#777071" d="M600 900h100v100H600z"/><path fill="#585356" d="M700 900h100v100H700z"/><path fill="#705f57" d="M0 1000h100v100H0z"/><path fill="#a99d9a" d="M100 1000h100v100H100z"/><path fill="#a69c99" d="M200 1000h100v100H200z"/><path fill="#a09591" d="M300 1000h100v100H300z"/><path fill="#a39690" d="M400 1000h100v100H400z"/><path fill="#857f81" d="M500 1000h100v100H500z"/><path fill="#918683" d="M600 1000h100v100H600z"/><path fill="#655b5b" d="M700 1000h100v100H700z"/></svg>