<svg xmlns="http://www.w3.org/2000/svg" viewBox="0 0 800 500"><defs/><path fill="#424f46" d="M0 0h100v100H0z"/><path fill="#404b40" d="M100 0h100v100H100z"/><path fill="#59705f" d="M200 0h100v100H200z"/><path fill="#82a796" d="M300 0h100v100H300z"/><path fill="#88b199" d="M400 0h100v100H400z"/><path fill="#739481" d="M500 0h100v100H500z"/><path fill="#72967a" d="M600 0h100v100H600z"/><path fill="#8fba9b" d="M700 0h100v100H700z"/><path fill="#3f4941" d="M0 100h100v100H0z"/><path fill="#444339" d="M100 100h100v100H100z"/><path fill="#536658" d="M200 100h100v100H200z"/><path fill="#678479" d="M300 100h100v100H300z"/><path fill="#82a28d" d="M400 100h100v100H400z"/><path fill="#8c9982" d="M500 100h100v100H500z"/><path fill="#817868" d="M600 100h100v100H600z"/><path fill="#86b48b" d="M700 100h100v100H700z"/><path fill="#434c43" d="M0 200h100v100H0z"/><path fill="#3e4437" d="M100 200h100v100H100z"/><path fill="#666151" d="M200 200h100v100H200z"/><path fill="#8a6e5b" d="M300 200h100v100H300z"/><path fill="#635559" d="M400 200h100v100H400z"/><path fill="#6d6f6c" d="M500 200h100v100H500z"/><path fill="#6a3940" d="M600 200h100v100H600z"/><path fill="#697567" d="M700 200h100v100H700z"/><path fill="#46483f" d="M0 300h100v100H0z"/><path fill="#676451" d="M100 300h100v100H100z"/><path fill="#806c5b" d="M200 300h100v100H200z"/><path fill="#745949" d="M300 300h100v100H300z"/><path fill="#645047" d="M400 300h100v100H400z"/><path fill="#675c5a" d="M500 300h100v100H500z"/><path fill="#5f4241" d="M600 300h100v100H600z"/><path fill="#2c1e22" d="M700 300h100v100H700z"/><path fill="#675748" d="M0 400h100v100H0z"/><path fill="#867564" d="M100 400h100v100H100z"/><path fill="#788473" d="M200 400h100v100H200z"/><path fill="#485044" d="M300 400h100v100H300z"/><path fill="#676352" d="M400 400h100v100H400z"/><path fill="#9f8873" d="M500 400h100v100H500z"/><path fill="#6d5e4f" d="M600 400h100v100H600z"/><path fill="#292420" d="M700 400h100v100H700z"/></svg>