<svg xmlns="http://www.w3.org/2000/svg" viewBox="0 0 800 500"><defs/><path fill="#949099" d="M0 0h100v100H0z"/><path fill="#8a8091" d="M100 0h100v100H100z"/><path fill="#92999a" d="M200 0h100v100H200z"/><path fill="#948f8e" d="M300 0h100v100H300z"/><path fill="#9b9a9d" d="M400 0h100v100H400z"/><path fill="#a4b0a9" d="M500 0h100v100H500z"/><path fill="#aabc9a" d="M600 0h100v100H600z"/><path fill="#b5b9b6" d="M700 0h100v100H700z"/><path fill="#8e8e9d" d="M0 100h100v100H0z"/><path fill="#6e6d72" d="M100 100h100v100H100z"/><path fill="#7f9c94" d="M200 100h100v100H200z"/><path fill="#798e87" d="M300 100h100v100H300z"/><path fill="#666a76" d="M400 100h100v100H400z"/><path fill="#668784" d="M500 100h100v100H500z"/><path fill="#7da396" d="M600 100h100v100H600z"/><path fill="#a0a8b0" d="M700 100h100v100H700z"/><path fill="#888997" d="M0 200h100v100H0z"/><path fill="#939994" d="M100 200h100v100H100z"/><path fill="#718f95" d="M200 200h100v100H200z"/><path fill="#749d9d" d="M300 200h100v100H300z"/><path fill="#969897" d="M400 200h100v100H400z"/><path fill="#77908b" d="M500 200h100v100H500z"/><path fill="#8c9aa1" d="M600 200h100v100H600z"/><path fill="#9c9a9e" d="M700 200h100v100H700z"/><path fill="#a39fa7" d="M0 300h100v100H0z"/><path fill="#827173" d="M100 300h100v100H100z"/><path fill="#4c5977" d="M200 300h100v100H200z"/><path fill="#414a69" d="M300 300h100v100H300z"/><path fill="#7d564c" d="M400 300h100v100H400z"/><path fill="#613b39" d="M500 300h100v100H500z"/><path fill="#7d767e" d="M600 300h100v100H600z"/><path fill="#a9aeb5" d="M700 300h100v100H700z"/><path fill="#a49e9e" d="M0 400h100v100H0z"/><path fill="#867370" d="M100 400h100v100H100z"/><path fill="#848087" d="M200 400h100v100H200z"/><path fill="#7d7173" d="M300 400h100v100H300z"/><path fill="#8d736d" d="M400 400h100v100H400z"/><path fill="#7b6361" d="M500 400h100v100H500z"/><path fill="#837476" d="M600 400h100v100H600z"/><path fill="#b2b3b6" d="M700 400h100v100H700z"/></svg>