<svg xmlns="http://www.w3.org/2000/svg" viewBox="0 0 800 300"><defs/><path fill="#bfb8af" d="M0 0h100v100H0z"/><path fill="#bbb9c8" d="M100 0h100v100H100z"/><path fill="#d7d8e9" d="M200 0h100v100H200z"/><path fill="#d4d9ea" d="M300 0h100v100H300z"/><path fill="#d8d1d5" d="M400 0h100v100H400z"/><path fill="#c8d2e7" d="M500 0h100v100H500z"/><path fill="#d2d7e9" d="M600 0h100v100H600z"/><path fill="#d4d0d7" d="M700 0h100v100H700z"/><path fill="#cdc4c8" d="M0 100h100v100H0z"/><path fill="#bab3b9" d="M100 100h100v100H100z"/><path fill="#b8afa7" d="M200 100h100v100H200z"/><path fill="#c6c3c1" d="M300 100h100v100H300z"/><path fill="#beb39d" d="M400 100h100v100H400z"/><path fill="#d2d7ec" d="M500 100h100v100H500z"/><path fill="#c3b58b" d="M600 100h100v100H600z"/><path fill="#d7cb9e" d="M700 100h100v100H700z"/><path fill="#d7d8eb" d="M0 200h100v100H0z"/><path fill="#d5d1d5" d="M100 200h100v100H100z"/><path fill="#c3c0b8" d="M200 200h100v100H200z"/><path fill="#cec8c3" d="M300 200h100v100H300z"/><path fill="#d8cec7" d="M400 200h100v100H400z"/><path fill="#d4d3d8" d="M500 200h100v100H500z"/><path fill="#ddd5c8" d="M600 200h100v100H600z"/><path fill="#d8cfc4" d="M700 200h100v100H700z"/></svg>