<svg xmlns="http://www.w3.org/2000/svg" viewBox="0 0 800 400"><defs/><path fill="#958e85" d="M0 0h100v100H0z"/><path fill="#bcb9b7" d="M100 0h100v100H100z"/><path fill="#cbc6bb" d="M200 0h100v100H200z"/><path fill="#b3b6a6" d="M300 0h100v100H300z"/><path fill="#6cabc5" d="M400 0h100v100H400z"/><path fill="#68abc8" d="M500 0h100v100H500z"/><path fill="#9eb6bb" d="M600 0h100v100H600z"/><path fill="#6d9aa8" d="M700 0h100v100H700z"/><path fill="#9f9991" d="M0 100h100v100H0z"/><path fill="#cccac6" d="M100 100h100v100H100z"/><path fill="#a79a8a" d="M200 100h100v100H200z"/><path fill="#b8a592" d="M300 100h100v100H300z"/><path fill="#7bb1aa" d="M400 100h100v100H400z"/><path fill="#58a18e" d="M500 100h100v100H500z"/><path fill="#acbcb9" d="M600 100h100v100H600z"/><path fill="#5b96a6" d="M700 100h100v100H700z"/><path fill="#b1aca6" d="M0 200h100v100H0z"/><path fill="#9b9fa0" d="M100 200h100v100H100z"/><path fill="#9f978c" d="M200 200h100v100H200z"/><path fill="#cab8b0" d="M300 200h100v100H300z"/><path fill="#8b9775" d="M400 200h100v100H400z"/><path fill="#87bc7e" d="M500 200h100v100H500z"/><path fill="#b4bfae" d="M600 200h100v100H600z"/><path fill="#6e976d" d="M700 200h100v100H700z"/><path fill="#bebdbb" d="M0 300h100v100H0z"/><path fill="#bcbebf" d="M100 300h100v100H100z"/><path fill="#e6e5e5" d="M200 300h100v100H200z"/><path fill="#bb8484" d="M300 300h100v100H300z"/><path fill="#b56168" d="M400 300h100v100H400z"/><path fill="#f9edf3" d="M500 300h100v100H500z"/><path fill="#eff4f2" d="M600 300h100v100H600z"/><path fill="#b3beae" d="M700 300h100v100H700z"/></svg>