<svg xmlns="http://www.w3.org/2000/svg" viewBox="0 0 800 600"><defs/><path fill="#ece8e8" d="M0 0h100v100H0z"/><path fill="#e8e2e1" d="M100 0h100v100H100z"/><path fill="#f3f1f2" d="M200 0h100v100H200z"/><path fill="#f3f2f2" d="M300 0h100v100H300z"/><path fill="#f2f2f3" d="M400 0h100v100H400z"/><path fill="#f0efef" d="M500 0h100v100H500z"/><path fill="#eceaeb" d="M600 0h100v100H600z"/><path fill="#f6f4f4" d="M700 0h100v100H700z"/><path fill="#b3a8a4" d="M0 100h100v100H0z"/><path fill="#7b5f5a" d="M100 100h100v100H100z"/><path fill="#9b9994" d="M200 100h100v100H200z"/><path fill="#797972" d="M300 100h100v100H300z"/><path fill="#89817e" d="M400 100h100v100H400z"/><path fill="#b8b0b3" d="M500 100h100v100H500z"/><path fill="#aea09b" d="M600 100h100v100H600z"/><path fill="#e8ddd1" d="M700 100h100v100H700z"/><path fill="#afa3a1" d="M0 200h100v100H0z"/><path fill="#745f58" d="M100 200h100v100H100z"/><path fill="#666c65" d="M200 200h100v100H200z"/><path fill="#61625c" d="M300 200h100v100H300z"/><path fill="#6d5f61" d="M400 200h100v100H400z"/><path fill="#8c7a6d" d="M500 200h100v100H500z"/><path fill="#e0cba8" d="M600 200h100v100H600z"/><path fill="#efe1ce" d="M700 200h100v100H700z"/><path fill="#b6a09c" d="M0 300h100v100H0z"/><path fill="#845c52" d="M100 300h100v100H100z"/><path fill="#75665b" d="M200 300h100v100H200z"/><path fill="#615b60" d="M300 300h100v100H300z"/><path fill="#a18682" d="M400 300h100v100H400z"/><path fill="#878c66" d="M500 300h100v100H500z"/><path fill="#b8ae84" d="M600 300h100v100H600z"/><path fill="#d3bdad" d="M700 300h100v100H700z"/><path fill="#aa8d85" d="M0 400h100v100H0z"/><path fill="#714232" d="M100 400h100v100H100z"/><path fill="#795549" d="M200 400h100v100H200z"/><path fill="#6e5450" d="M300 400h100v100H300z"/><path fill="#90755f" d="M400 400h100v100H400z"/><path fill="#c1af8c" d="M500 400h100v100H500z"/><path fill="#50503d" d="M600 400h100v100H600z"/><path fill="#908882" d="M700 400h100v100H700z"/><path fill="#e6dfdd" d="M0 500h100v100H0z"/><path fill="#e1d8d4" d="M100 500h100v100H100z"/><path fill="#e3dad7" d="M200 500h100v100H200z"/><path fill="#e6dfdd" d="M300 500h100v100H300z"/><path fill="#e6e6e2" d="M400 500h100v100H400z"/><path fill="#eae7e2" d="M500 500h100v100H500z"/><path fill="#d0cccc" d="M600 500h100v100H600z"/><path fill="#dad7d7" d="M700 500h100v100H700z"/></svg>