<svg xmlns="http://www.w3.org/2000/svg" viewBox="0 0 800 600"><defs/><path fill="#fefcf9" d="M0 0h100v100H0z"/><path fill="#efefee" d="M100 0h100v100H100z"/><path fill="#e4eef4" d="M200 0h100v100H200z"/><path fill="#e4eff6" d="M300 0h100v100H300z"/><path fill="#deebf2" d="M400 0h100v100H400z"/><path fill="#e2eff7" d="M500 0h100v100H500z"/><path fill="#e0eaf0" d="M600 0h100v100H600z"/><path fill="#f9f9fa" d="M700 0h100v100H700z"/><path fill="#f9eed8" d="M0 100h100v100H0z"/><path fill="#7e7c76" d="M100 100h100v100H100z"/><path fill="#2e495b" d="M200 100h100v100H200z"/><path fill="#2d495d" d="M300 100h100v100H300z"/><path fill="#315268" d="M400 100h100v100H400z"/><path fill="#2a5169" d="M500 100h100v100H500z"/><path fill="#22444f" d="M600 100h100v100H600z"/><path fill="#c9c6bd" d="M700 100h100v100H700z"/><path fill="#fef0dc" d="M0 200h100v100H0z"/><path fill="#686c60" d="M100 200h100v100H100z"/><path fill="#00160f" d="M200 200h100v100H200z"/><path fill="#2a4141" d="M300 200h100v100H300z"/><path fill="#496571" d="M400 200h100v100H400z"/><path fill="#182725" d="M500 200h100v100H500z"/><path fill="#223b2e" d="M600 200h100v100H600z"/><path fill="#a5a494" d="M700 200h100v100H700z"/><path fill="#eee4dc" d="M0 300h100v100H0z"/><path fill="#79766b" d="M100 300h100v100H100z"/><path fill="#5e7268" d="M200 300h100v100H200z"/><path fill="#7d8884" d="M300 300h100v100H300z"/><path fill="#a1a698" d="M400 300h100v100H400z"/><path fill="#597372" d="M500 300h100v100H500z"/><path fill="#76867d" d="M600 300h100v100H600z"/><path fill="#ccc7b7" d="M700 300h100v100H700z"/><path fill="#d3c8c1" d="M0 400h100v100H0z"/><path fill="#c4b7ae" d="M100 400h100v100H100z"/><path fill="#fffffc" d="M200 400h100v100H200z"/><path fill="#e2dccd" d="M300 400h100v100H300z"/><path fill="#ccc6a9" d="M400 400h100v100H400z"/><path fill="#daddce" d="M500 400h100v100H500z"/><path fill="#f1e3d5" d="M600 400h100v100H600z"/><path fill="#ebdbc2" d="M700 400h100v100H700z"/><path fill="#f9f7f4" d="M0 500h100v100H0z"/><path fill="#fcfaf8" d="M100 500h100v100H100z"/><path fill="#f5f4f1" d="M200 500h100v100H200z"/><path fill="#ebede5" d="M300 500h100v100H300z"/><path fill="#f1f5ee" d="M400 500h100v100H400z"/><path fill="#edede4" d="M500 500h100v100H500z"/><path fill="#e5ddd5" d="M600 500h100v100H600z"/><path fill="#f3ede8" d="M700 500h100v100H700z"/></svg>