<svg xmlns="http://www.w3.org/2000/svg" viewBox="0 0 800 500"><defs/><path fill="#afa5a1" d="M0 0h100v100H0z"/><path fill="#a7baa4" d="M100 0h100v100H100z"/><path fill="#bbc1b4" d="M200 0h100v100H200z"/><path fill="#d5ceca" d="M300 0h100v100H300z"/><path fill="#d5d2cf" d="M400 0h100v100H400z"/><path fill="#d9d1c9" d="M500 0h100v100H500z"/><path fill="#d5ccc5" d="M600 0h100v100H600z"/><path fill="#d6cdc9" d="M700 0h100v100H700z"/><path fill="#b9b0a4" d="M0 100h100v100H0z"/><path fill="#719a6f" d="M100 100h100v100H100z"/><path fill="#c2c6b8" d="M200 100h100v100H200z"/><path fill="#bcbbba" d="M300 100h100v100H300z"/><path fill="#aaaea9" d="M400 100h100v100H400z"/><path fill="#b8b8a0" d="M500 100h100v100H500z"/><path fill="#bdbdb2" d="M600 100h100v100H600z"/><path fill="#d8cec8" d="M700 100h100v100H700z"/><path fill="#b7b698" d="M0 200h100v100H0z"/><path fill="#729a6d" d="M100 200h100v100H100z"/><path fill="#cbc6b4" d="M200 200h100v100H200z"/><path fill="#bfbcb0" d="M300 200h100v100H300z"/><path fill="#aeada7" d="M400 200h100v100H400z"/><path fill="#a7b59b" d="M500 200h100v100H500z"/><path fill="#a3ae93" d="M600 200h100v100H600z"/><path fill="#cec1b8" d="M700 200h100v100H700z"/><path fill="#948d75" d="M0 300h100v100H0z"/><path fill="#4e764a" d="M100 300h100v100H100z"/><path fill="#5f9a52" d="M200 300h100v100H200z"/><path fill="#558e60" d="M300 300h100v100H300z"/><path fill="#518e65" d="M400 300h100v100H400z"/><path fill="#5a8e51" d="M500 300h100v100H500z"/><path fill="#578243" d="M600 300h100v100H600z"/><path fill="#96aa85" d="M700 300h100v100H700z"/><path fill="#908a72" d="M0 400h100v100H0z"/><path fill="#7a9064" d="M100 400h100v100H100z"/><path fill="#87ac71" d="M200 400h100v100H200z"/><path fill="#8aab72" d="M300 400h100v100H300z"/><path fill="#88aa73" d="M400 400h100v100H400z"/><path fill="#7ea471" d="M500 400h100v100H500z"/><path fill="#729969" d="M600 400h100v100H600z"/><path fill="#7b9771" d="M700 400h100v100H700z"/></svg>