<svg xmlns="http://www.w3.org/2000/svg" viewBox="0 0 800 600"><defs/><path fill="#968568" d="M0 0h100v100H0z"/><path fill="#574226" d="M100 0h100v100H100z"/><path fill="#534c31" d="M200 0h100v100H200z"/><path fill="#726046" d="M300 0h100v100H300z"/><path fill="#727460" d="M400 0h100v100H400z"/><path fill="#6b7460" d="M500 0h100v100H500z"/><path fill="#87846b" d="M600 0h100v100H600z"/><path fill="#928667" d="M700 0h100v100H700z"/><path fill="#918368" d="M0 100h100v100H0z"/><path fill="#5b4d27" d="M100 100h100v100H100z"/><path fill="#6f5f3b" d="M200 100h100v100H200z"/><path fill="#816446" d="M300 100h100v100H300z"/><path fill="#827757" d="M400 100h100v100H400z"/><path fill="#7a7552" d="M500 100h100v100H500z"/><path fill="#8c8568" d="M600 100h100v100H600z"/><path fill="#97886a" d="M700 100h100v100H700z"/><path fill="#8a7d5e" d="M0 200h100v100H0z"/><path fill="#666036" d="M100 200h100v100H100z"/><path fill="#7b6d41" d="M200 200h100v100H200z"/><path fill="#816241" d="M300 200h100v100H300z"/><path fill="#88754d" d="M400 200h100v100H400z"/><path fill="#86734c" d="M500 200h100v100H500z"/><path fill="#9b886c" d="M600 200h100v100H600z"/><path fill="#a69276" d="M700 200h100v100H700z"/><path fill="#827b5d" d="M0 300h100v100H0z"/><path fill="#6c683d" d="M100 300h100v100H100z"/><path fill="#878951" d="M200 300h100v100H200z"/><path fill="#866c48" d="M300 300h100v100H300z"/><path fill="#a7a57b" d="M400 300h100v100H400z"/><path fill="#adb090" d="M500 300h100v100H500z"/><path fill="#aeac89" d="M600 300h100v100H600z"/><path fill="#a39572" d="M700 300h100v100H700z"/><path fill="#74704f" d="M0 400h100v100H0z"/><path fill="#6a6a40" d="M100 400h100v100H100z"/><path fill="#8c996c" d="M200 400h100v100H200z"/><path fill="#979a76" d="M300 400h100v100H300z"/><path fill="#aca984" d="M400 400h100v100H400z"/><path fill="#a0a490" d="M500 400h100v100H500z"/><path fill="#a7ae93" d="M600 400h100v100H600z"/><path fill="#a9a381" d="M700 400h100v100H700z"/><path fill="#979e72" d="M0 500h100v100H0z"/><path fill="#76855a" d="M100 500h100v100H100z"/><path fill="#829165" d="M200 500h100v100H200z"/><path fill="#959b6d" d="M300 500h100v100H300z"/><path fill="#9ea178" d="M400 500h100v100H400z"/><path fill="#9aa179" d="M500 500h100v100H500z"/><path fill="#9da67d" d="M600 500h100v100H600z"/><path fill="#a3ab84" d="M700 500h100v100H700z"/></svg>