<svg xmlns="http://www.w3.org/2000/svg" viewBox="0 0 800 600"><defs/><path fill="#dedec8" d="M0 0h100v100H0z"/><path fill="#c1c0be" d="M100 0h100v100H100z"/><path fill="#cac9c2" d="M200 0h100v100H200z"/><path fill="#c5c7bf" d="M300 0h100v100H300z"/><path fill="#c7ccbc" d="M400 0h100v100H400z"/><path fill="#d4deb9" d="M500 0h100v100H500z"/><path fill="#e2cdb6" d="M600 0h100v100H600z"/><path fill="#dabec9" d="M700 0h100v100H700z"/><path fill="#aea055" d="M0 100h100v100H0z"/><path fill="#433531" d="M100 100h100v100H100z"/><path fill="#51503c" d="M200 100h100v100H200z"/><path fill="#4c472d" d="M300 100h100v100H300z"/><path fill="#4c4923" d="M400 100h100v100H400z"/><path fill="#6a6e21" d="M500 100h100v100H500z"/><path fill="#7a5822" d="M600 100h100v100H600z"/><path fill="#6d3d4d" d="M700 100h100v100H700z"/><path fill="#aa9c63" d="M0 200h100v100H0z"/><path fill="#544a4a" d="M100 200h100v100H100z"/><path fill="#6d6039" d="M200 200h100v100H200z"/><path fill="#6e5a32" d="M300 200h100v100H300z"/><path fill="#5a5e5b" d="M400 200h100v100H400z"/><path fill="#678a65" d="M500 200h100v100H500z"/><path fill="#785840" d="M600 200h100v100H600z"/><path fill="#964f70" d="M700 200h100v100H700z"/><path fill="#777974" d="M0 300h100v100H0z"/><path fill="#44353d" d="M100 300h100v100H100z"/><path fill="#807e5e" d="M200 300h100v100H200z"/><path fill="#897953" d="M300 300h100v100H300z"/><path fill="#61736d" d="M400 300h100v100H400z"/><path fill="#738c6e" d="M500 300h100v100H500z"/><path fill="#4b504b" d="M600 300h100v100H600z"/><path fill="#704b60" d="M700 300h100v100H700z"/><path fill="#726e64" d="M0 400h100v100H0z"/><path fill="#4d3e46" d="M100 400h100v100H100z"/><path fill="#6c6686" d="M200 400h100v100H200z"/><path fill="#5f606c" d="M300 400h100v100H300z"/><path fill="#55604e" d="M400 400h100v100H400z"/><path fill="#856a4a" d="M500 400h100v100H500z"/><path fill="#4b5a4e" d="M600 400h100v100H600z"/><path fill="#4e6875" d="M700 400h100v100H700z"/><path fill="#d5d8cf" d="M0 500h100v100H0z"/><path fill="#d0d5cf" d="M100 500h100v100H100z"/><path fill="#d2d9dc" d="M200 500h100v100H200z"/><path fill="#c3d9d9" d="M300 500h100v100H300z"/><path fill="#c4cecc" d="M400 500h100v100H400z"/><path fill="#d2d2d4" d="M500 500h100v100H500z"/><path fill="#c5c9cb" d="M600 500h100v100H600z"/><path fill="#bad1d6" d="M700 500h100v100H700z"/></svg>