<svg xmlns="http://www.w3.org/2000/svg" viewBox="0 0 800 400"><defs/><path fill="#9698a0" d="M0 0h100v100H0z"/><path fill="#969b99" d="M100 0h100v100H100z"/><path fill="#c6d1d9" d="M200 0h100v100H200z"/><path fill="#dbdfe8" d="M300 0h100v100H300z"/><path fill="#dfe6e9" d="M400 0h100v100H400z"/><path fill="#cfd8d9" d="M500 0h100v100H500z"/><path fill="#c9cbc3" d="M600 0h100v100H600z"/><path fill="#cdc6c0" d="M700 0h100v100H700z"/><path fill="#97a1a4" d="M0 100h100v100H0z"/><path fill="#959d8f" d="M100 100h100v100H100z"/><path fill="#b5c2d3" d="M200 100h100v100H200z"/><path fill="#f3c2e7" d="M300 100h100v100H300z"/><path fill="#fcd7f2" d="M400 100h100v100H400z"/><path fill="#ffe0f6" d="M500 100h100v100H500z"/><path fill="#f1cce4" d="M600 100h100v100H600z"/><path fill="#cea8c2" d="M700 100h100v100H700z"/><path fill="#717574" d="M0 200h100v100H0z"/><path fill="#7b7f6e" d="M100 200h100v100H100z"/><path fill="#a098a7" d="M200 200h100v100H200z"/><path fill="#af8baf" d="M300 200h100v100H300z"/><path fill="#977996" d="M400 200h100v100H400z"/><path fill="#be82a7" d="M500 200h100v100H500z"/><path fill="#937081" d="M600 200h100v100H600z"/><path fill="#43474b" d="M700 200h100v100H700z"/><path fill="#48403b" d="M0 300h100v100H0z"/><path fill="#3f3831" d="M100 300h100v100H100z"/><path fill="#373c43" d="M200 300h100v100H200z"/><path fill="#4e5e55" d="M300 300h100v100H300z"/><path fill="#314e57" d="M400 300h100v100H400z"/><path fill="#39454c" d="M500 300h100v100H500z"/><path fill="#404141" d="M600 300h100v100H600z"/><path fill="#645f4b" d="M700 300h100v100H700z"/></svg>