<svg xmlns="http://www.w3.org/2000/svg" viewBox="0 0 800 500"><defs/><path fill="#c8c8c9" d="M0 0h100v100H0z"/><path fill="#d6b89d" d="M100 0h100v100H100z"/><path fill="#bbb1a6" d="M200 0h100v100H200z"/><path fill="#bab1a1" d="M300 0h100v100H300z"/><path fill="#b7ad9a" d="M400 0h100v100H400z"/><path fill="#aca490" d="M500 0h100v100H500z"/><path fill="#938d7d" d="M600 0h100v100H600z"/><path fill="#ac8064" d="M700 0h100v100H700z"/><path fill="#cac5bf" d="M0 100h100v100H0z"/><path fill="#c2a185" d="M100 100h100v100H100z"/><path fill="#978576" d="M200 100h100v100H200z"/><path fill="#9c8065" d="M300 100h100v100H300z"/><path fill="#a18060" d="M400 100h100v100H400z"/><path fill="#8e7151" d="M500 100h100v100H500z"/><path fill="#8f8270" d="M600 100h100v100H600z"/><path fill="#766857" d="M700 100h100v100H700z"/><path fill="#c9beb3" d="M0 200h100v100H0z"/><path fill="#b38d71" d="M100 200h100v100H100z"/><path fill="#86766a" d="M200 200h100v100H200z"/><path fill="#947557" d="M300 200h100v100H300z"/><path fill="#6b503a" d="M400 200h100v100H400z"/><path fill="#6e4a3a" d="M500 200h100v100H500z"/><path fill="#50463e" d="M600 200h100v100H600z"/><path fill="#826451" d="M700 200h100v100H700z"/><path fill="#c5b6a6" d="M0 300h100v100H0z"/><path fill="#ab9270" d="M100 300h100v100H100z"/><path fill="#b69276" d="M200 300h100v100H200z"/><path fill="#b2957b" d="M300 300h100v100H300z"/><path fill="#a2826a" d="M400 300h100v100H400z"/><path fill="#a98369" d="M500 300h100v100H500z"/><path fill="#9e7e5e" d="M600 300h100v100H600z"/><path fill="#b68d69" d="M700 300h100v100H700z"/><path fill="#cfb6a2" d="M0 400h100v100H0z"/><path fill="#bc9575" d="M100 400h100v100H100z"/><path fill="#be8865" d="M200 400h100v100H200z"/><path fill="#bb8c6d" d="M300 400h100v100H300z"/><path fill="#c69c80" d="M400 400h100v100H400z"/><path fill="#dbbaa0" d="M500 400h100v100H500z"/><path fill="#cba077" d="M600 400h100v100H600z"/><path fill="#cca27f" d="M700 400h100v100H700z"/></svg>