<svg xmlns="http://www.w3.org/2000/svg" viewBox="0 0 800 600"><defs/><path fill="#9a6e9f" d="M0 0h100v100H0z"/><path fill="#7e5b88" d="M100 0h100v100H100z"/><path fill="#5f456c" d="M200 0h100v100H200z"/><path fill="#614b6f" d="M300 0h100v100H300z"/><path fill="#60506d" d="M400 0h100v100H400z"/><path fill="#655467" d="M500 0h100v100H500z"/><path fill="#67545d" d="M600 0h100v100H600z"/><path fill="#6b5a58" d="M700 0h100v100H700z"/><path fill="#ac78a3" d="M0 100h100v100H0z"/><path fill="#6f4f6e" d="M100 100h100v100H100z"/><path fill="#231134" d="M200 100h100v100H200z"/><path fill="#30174d" d="M300 100h100v100H300z"/><path fill="#2e1952" d="M400 100h100v100H400z"/><path fill="#231a44" d="M500 100h100v100H500z"/><path fill="#221833" d="M600 100h100v100H600z"/><path fill="#79614e" d="M700 100h100v100H700z"/><path fill="#b079a2" d="M0 200h100v100H0z"/><path fill="#523651" d="M100 200h100v100H100z"/><path fill="#2a1425" d="M200 200h100v100H200z"/><path fill="#834560" d="M300 200h100v100H300z"/><path fill="#ae5e73" d="M400 200h100v100H400z"/><path fill="#5e3e48" d="M500 200h100v100H500z"/><path fill="#554d49" d="M600 200h100v100H600z"/><path fill="#ad8955" d="M700 200h100v100H700z"/><path fill="#92678d" d="M0 300h100v100H0z"/><path fill="#24183a" d="M100 300h100v100H100z"/><path fill="#362134" d="M200 300h100v100H200z"/><path fill="#21171f" d="M300 300h100v100H300z"/><path fill="#27222b" d="M400 300h100v100H400z"/><path fill="#2e2f35" d="M500 300h100v100H500z"/><path fill="#69534b" d="M600 300h100v100H600z"/><path fill="#75402e" d="M700 300h100v100H700z"/><path fill="#583c5b" d="M0 400h100v100H0z"/><path fill="#201234" d="M100 400h100v100H100z"/><path fill="#382138" d="M200 400h100v100H200z"/><path fill="#2e2027" d="M300 400h100v100H300z"/><path fill="#3b2e36" d="M400 400h100v100H400z"/><path fill="#5a4e55" d="M500 400h100v100H500z"/><path fill="#623d29" d="M600 400h100v100H600z"/><path fill="#633223" d="M700 400h100v100H700z"/><path fill="#2d1d39" d="M0 500h100v100H0z"/><path fill="#261128" d="M100 500h100v100H100z"/><path fill="#422c3f" d="M200 500h100v100H200z"/><path fill="#af9299" d="M300 500h100v100H300z"/><path fill="#cfb0a4" d="M400 500h100v100H400z"/><path fill="#ac9580" d="M500 500h100v100H500z"/><path fill="#bba073" d="M600 500h100v100H600z"/><path fill="#574b40" d="M700 500h100v100H700z"/></svg>