<svg xmlns="http://www.w3.org/2000/svg" viewBox="0 0 800 500"><defs/><path fill="#acd5c7" d="M0 0h100v100H0z"/><path fill="#dba09a" d="M100 0h100v100H100z"/><path fill="#b9c6ac" d="M200 0h100v100H200z"/><path fill="#99d4c4" d="M300 0h100v100H300z"/><path fill="#96cdc3" d="M400 0h100v100H400z"/><path fill="#a0cbb5" d="M500 0h100v100H500z"/><path fill="#98cdb5" d="M600 0h100v100H600z"/><path fill="#a8d6c4" d="M700 0h100v100H700z"/><path fill="#9abcac" d="M0 100h100v100H0z"/><path fill="#cb7e71" d="M100 100h100v100H100z"/><path fill="#8f9c75" d="M200 100h100v100H200z"/><path fill="#75b79e" d="M300 100h100v100H300z"/><path fill="#6cb4a0" d="M400 100h100v100H400z"/><path fill="#7cb8a2" d="M500 100h100v100H500z"/><path fill="#5fa971" d="M600 100h100v100H600z"/><path fill="#74c097" d="M700 100h100v100H700z"/><path fill="#b9b3a9" d="M0 200h100v100H0z"/><path fill="#ca998d" d="M100 200h100v100H100z"/><path fill="#97938c" d="M200 200h100v100H200z"/><path fill="#919a8b" d="M300 200h100v100H300z"/><path fill="#9f8b77" d="M400 200h100v100H400z"/><path fill="#c38f88" d="M500 200h100v100H500z"/><path fill="#b48975" d="M600 200h100v100H600z"/><path fill="#a8a990" d="M700 200h100v100H700z"/><path fill="#caa49e" d="M0 300h100v100H0z"/><path fill="#d77361" d="M100 300h100v100H100z"/><path fill="#d57d87" d="M200 300h100v100H200z"/><path fill="#dd8293" d="M300 300h100v100H300z"/><path fill="#aa6738" d="M400 300h100v100H400z"/><path fill="#ca5e33" d="M500 300h100v100H500z"/><path fill="#ef545c" d="M600 300h100v100H600z"/><path fill="#e77979" d="M700 300h100v100H700z"/><path fill="#e9bab9" d="M0 400h100v100H0z"/><path fill="#f29fa2" d="M100 400h100v100H100z"/><path fill="#f7aab1" d="M200 400h100v100H200z"/><path fill="#fcaab7" d="M300 400h100v100H300z"/><path fill="#cf9578" d="M400 400h100v100H400z"/><path fill="#bd8b5b" d="M500 400h100v100H500z"/><path fill="#c9846a" d="M600 400h100v100H600z"/><path fill="#cf9d85" d="M700 400h100v100H700z"/></svg>