<svg xmlns="http://www.w3.org/2000/svg" viewBox="0 0 800 500"><defs/><path fill="#aeacac" d="M0 0h100v100H0z"/><path fill="#948d86" d="M100 0h100v100H100z"/><path fill="#a7a6a2" d="M200 0h100v100H200z"/><path fill="#9ba5b0" d="M300 0h100v100H300z"/><path fill="#aeb4b9" d="M400 0h100v100H400z"/><path fill="#c3bebb" d="M500 0h100v100H500z"/><path fill="#babebf" d="M600 0h100v100H600z"/><path fill="#bcc6bd" d="M700 0h100v100H700z"/><path fill="#989690" d="M0 100h100v100H0z"/><path fill="#867c6c" d="M100 100h100v100H100z"/><path fill="#a7a7a0" d="M200 100h100v100H200z"/><path fill="#797876" d="M300 100h100v100H300z"/><path fill="#87837c" d="M400 100h100v100H400z"/><path fill="#b3a590" d="M500 100h100v100H500z"/><path fill="#908985" d="M600 100h100v100H600z"/><path fill="#a1a8ab" d="M700 100h100v100H700z"/><path fill="#a59c97" d="M0 200h100v100H0z"/><path fill="#84877b" d="M100 200h100v100H100z"/><path fill="#a9a88f" d="M200 200h100v100H200z"/><path fill="#c2bcaa" d="M300 200h100v100H300z"/><path fill="#b3ab93" d="M400 200h100v100H400z"/><path fill="#b5996a" d="M500 200h100v100H500z"/><path fill="#a09896" d="M600 200h100v100H600z"/><path fill="#a6a6ab" d="M700 200h100v100H700z"/><path fill="#95948b" d="M0 300h100v100H0z"/><path fill="#8a8785" d="M100 300h100v100H100z"/><path fill="#c6a174" d="M200 300h100v100H200z"/><path fill="#c6a27b" d="M300 300h100v100H300z"/><path fill="#b9937e" d="M400 300h100v100H400z"/><path fill="#bca283" d="M500 300h100v100H500z"/><path fill="#b1a9a8" d="M600 300h100v100H600z"/><path fill="#a2a6ad" d="M700 300h100v100H700z"/><path fill="#a6a59b" d="M0 400h100v100H0z"/><path fill="#aaa292" d="M100 400h100v100H100z"/><path fill="#e5bf9e" d="M200 400h100v100H200z"/><path fill="#d9aa86" d="M300 400h100v100H300z"/><path fill="#d2b0a3" d="M400 400h100v100H400z"/><path fill="#ccbeb4" d="M500 400h100v100H500z"/><path fill="#bdb4b0" d="M600 400h100v100H600z"/><path fill="#b4b8bf" d="M700 400h100v100H700z"/></svg>