<svg xmlns="http://www.w3.org/2000/svg" viewBox="0 0 800 500"><defs/><path fill="#e9f2f9" d="M0 0h100v100H0z"/><path fill="#e7eef4" d="M100 0h100v100H100z"/><path fill="#eaf0f6" d="M200 0h100v100H200z"/><path fill="#eef3f9" d="M300 0h100v100H300z"/><path fill="#e7ebf0" d="M400 0h100v100H400z"/><path fill="#e3e9ee" d="M500 0h100v100H500z"/><path fill="#e6eff5" d="M600 0h100v100H600z"/><path fill="#eaf1f7" d="M700 0h100v100H700z"/><path fill="#e9f6fc" d="M0 100h100v100H0z"/><path fill="#929294" d="M100 100h100v100H100z"/><path fill="#8e8c8b" d="M200 100h100v100H200z"/><path fill="#b6b3b2" d="M300 100h100v100H300z"/><path fill="#a4a3a3" d="M400 100h100v100H400z"/><path fill="#a0a1a1" d="M500 100h100v100H500z"/><path fill="#9fa1a2" d="M600 100h100v100H600z"/><path fill="#e0e6ec" d="M700 100h100v100H700z"/><path fill="#eff5fa" d="M0 200h100v100H0z"/><path fill="#766d6d" d="M100 200h100v100H100z"/><path fill="#43383a" d="M200 200h100v100H200z"/><path fill="#908b8a" d="M300 200h100v100H300z"/><path fill="#d1c9c3" d="M400 200h100v100H400z"/><path fill="#a39799" d="M500 200h100v100H500z"/><path fill="#737172" d="M600 200h100v100H600z"/><path fill="#ced1d4" d="M700 200h100v100H700z"/><path fill="#f3f4f7" d="M0 300h100v100H0z"/><path fill="#726664" d="M100 300h100v100H100z"/><path fill="#342427" d="M200 300h100v100H200z"/><path fill="#886f66" d="M300 300h100v100H300z"/><path fill="#aa8e82" d="M400 300h100v100H400z"/><path fill="#6e5151" d="M500 300h100v100H500z"/><path fill="#493735" d="M600 300h100v100H600z"/><path fill="#cccfd1" d="M700 300h100v100H700z"/><path fill="#eaeef2" d="M0 400h100v100H0z"/><path fill="#877878" d="M100 400h100v100H100z"/><path fill="#896c64" d="M200 400h100v100H200z"/><path fill="#c6a192" d="M300 400h100v100H300z"/><path fill="#b3968b" d="M400 400h100v100H400z"/><path fill="#9a7e77" d="M500 400h100v100H500z"/><path fill="#806762" d="M600 400h100v100H600z"/><path fill="#d6dade" d="M700 400h100v100H700z"/></svg>