<svg xmlns="http://www.w3.org/2000/svg" viewBox="0 0 800 600"><defs/><path fill="#e5e5e3" d="M0 0h100v100H0z"/><path fill="#ebeceb" d="M100 0h100v100H100z"/><path fill="#f0f1ef" d="M200 0h100v100H200z"/><path fill="#f5f6f4" d="M300 0h100v100H300z"/><path fill="#fbfbf9" d="M400 0h100v100H400z"/><path fill="#f7f6f5" d="M500 0h100v100H500z"/><path fill="#f6f5f4" d="M600 0h100v100H600z"/><path fill="#f4f3f2" d="M700 0h100v100H700z"/><path fill="#edeeed" d="M0 100h100v100H0z"/><path fill="#b0a9a3" d="M100 100h100v100H100z"/><path fill="#908d8a" d="M200 100h100v100H200z"/><path fill="#939493" d="M300 100h100v100H300z"/><path fill="#8c8c8c" d="M400 100h100v100H400z"/><path fill="#cbcdca" d="M500 100h100v100H500z"/><path fill="#e0e8e2" d="M600 100h100v100H600z"/><path fill="#dcdfdb" d="M700 100h100v100H700z"/><path fill="#eaebea" d="M0 200h100v100H0z"/><path fill="#867a7a" d="M100 200h100v100H100z"/><path fill="#686464" d="M200 200h100v100H200z"/><path fill="#868787" d="M300 200h100v100H300z"/><path fill="#7d7b7d" d="M400 200h100v100H400z"/><path fill="#969c96" d="M500 200h100v100H500z"/><path fill="#b5cdbc" d="M600 200h100v100H600z"/><path fill="#d1d8ce" d="M700 200h100v100H700z"/><path fill="#dbdcda" d="M0 300h100v100H0z"/><path fill="#6d6d61" d="M100 300h100v100H100z"/><path fill="#adaeaa" d="M200 300h100v100H200z"/><path fill="#e9e9ea" d="M300 300h100v100H300z"/><path fill="#dedede" d="M400 300h100v100H400z"/><path fill="#c3c3c4" d="M500 300h100v100H500z"/><path fill="#c6c9c7" d="M600 300h100v100H600z"/><path fill="#ced1cc" d="M700 300h100v100H700z"/><path fill="#ccccca" d="M0 400h100v100H0z"/><path fill="#939d90" d="M100 400h100v100H100z"/><path fill="#ebede9" d="M200 400h100v100H200z"/><path fill="#fff" d="M300 400h100v100H300zm100 0h100v100H400z"/><path fill="#f5f4f4" d="M500 400h100v100H500z"/><path fill="#e6e5e5" d="M600 400h100v100H600z"/><path fill="#cbcac9" d="M700 400h100v100H700z"/><path fill="#e6e6e4" d="M0 500h100v100H0z"/><path fill="#f5f3f5" d="M100 500h100v100H100z"/><path fill="#f5f4f4" d="M200 500h100v100H200z"/><path fill="#f3f3f2" d="M300 500h100v100H300z"/><path fill="#f5f5f4" d="M400 500h100v100H400z"/><path fill="#efefee" d="M500 500h100v100H500z"/><path fill="#ecebea" d="M600 500h100v100H600z"/><path fill="#f0f0ef" d="M700 500h100v100H700z"/></svg>