<svg xmlns="http://www.w3.org/2000/svg" viewBox="0 0 800 500"><defs/><path fill="#f3ddce" d="M0 0h100v100H0z"/><path fill="#d1d8dd" d="M100 0h100v100H100z"/><path fill="#e5e4e2" d="M200 0h100v100H200z"/><path fill="#f7ebdd" d="M300 0h100v100H300z"/><path fill="#eeeadb" d="M400 0h100v100H400z"/><path fill="#dadde3" d="M500 0h100v100H500z"/><path fill="#e2e6e6" d="M600 0h100v100H600z"/><path fill="#f0dfd2" d="M700 0h100v100H700z"/><path fill="#db8549" d="M0 100h100v100H0z"/><path fill="#486c88" d="M100 100h100v100H100z"/><path fill="#cdaf8e" d="M200 100h100v100H200z"/><path fill="#f0b78c" d="M300 100h100v100H300z"/><path fill="#a28a9f" d="M400 100h100v100H400z"/><path fill="#9f9896" d="M500 100h100v100H500z"/><path fill="#aaa5b3" d="M600 100h100v100H600z"/><path fill="#da7a36" d="M700 100h100v100H700z"/><path fill="#ba8a6b" d="M0 200h100v100H0z"/><path fill="#55819c" d="M100 200h100v100H100z"/><path fill="#c6a88d" d="M200 200h100v100H200z"/><path fill="#b38d9d" d="M300 200h100v100H300z"/><path fill="#8d70c1" d="M400 200h100v100H400z"/><path fill="#a58ca5" d="M500 200h100v100H500z"/><path fill="#9e8582" d="M600 200h100v100H600z"/><path fill="#e37c32" d="M700 200h100v100H700z"/><path fill="#797f83" d="M0 300h100v100H0z"/><path fill="#597bb8" d="M100 300h100v100H100z"/><path fill="#b2a5da" d="M200 300h100v100H200z"/><path fill="#b19dc5" d="M300 300h100v100H300z"/><path fill="#ae617b" d="M400 300h100v100H400z"/><path fill="#c46bc0" d="M500 300h100v100H500z"/><path fill="#98a0d7" d="M600 300h100v100H600z"/><path fill="#e38a6e" d="M700 300h100v100H700z"/><path fill="#b0b9cc" d="M0 400h100v100H0z"/><path fill="#cdc0ec" d="M100 400h100v100H100z"/><path fill="#eacef8" d="M200 400h100v100H200z"/><path fill="#cebfe7" d="M300 400h100v100H300z"/><path fill="#d2acdc" d="M400 400h100v100H400z"/><path fill="#e4baf2" d="M500 400h100v100H500z"/><path fill="#c7c3ef" d="M600 400h100v100H600z"/><path fill="#d3b4d1" d="M700 400h100v100H700z"/></svg>