<svg xmlns="http://www.w3.org/2000/svg" viewBox="0 0 800 800"><defs/><path fill="#65777b" d="M0 0h100v100H0z"/><path fill="#9f978f" d="M100 0h100v100H100z"/><path fill="#aa7d62" d="M200 0h100v100H200z"/><path fill="#b0a193" d="M300 0h100v100H300z"/><path fill="#a09686" d="M400 0h100v100H400z"/><path fill="#af836a" d="M500 0h100v100H500z"/><path fill="#a2877a" d="M600 0h100v100H600z"/><path fill="#86a1a8" d="M700 0h100v100H700z"/><path fill="#5f6b6c" d="M0 100h100v100H0z"/><path fill="#9e9b90" d="M100 100h100v100H100z"/><path fill="#b28b72" d="M200 100h100v100H200z"/><path fill="#a08176" d="M300 100h100v100H300z"/><path fill="#7b6559" d="M400 100h100v100H400z"/><path fill="#a37c6b" d="M500 100h100v100H500z"/><path fill="#a5978d" d="M600 100h100v100H600z"/><path fill="#9aafaf" d="M700 100h100v100H700z"/><path fill="#69706f" d="M0 200h100v100H0z"/><path fill="#999892" d="M100 200h100v100H100z"/><path fill="#8e7d73" d="M200 200h100v100H200z"/><path fill="#938e87" d="M300 200h100v100H300z"/><path fill="#917c75" d="M400 200h100v100H400z"/><path fill="#838070" d="M500 200h100v100H500z"/><path fill="#857b66" d="M600 200h100v100H600z"/><path fill="#a08773" d="M700 200h100v100H700z"/><path fill="#757c7a" d="M0 300h100v100H0z"/><path fill="#98968e" d="M100 300h100v100H100z"/><path fill="#ba9a80" d="M200 300h100v100H200z"/><path fill="#b4a297" d="M300 300h100v100H300z"/><path fill="#b1a9a9" d="M400 300h100v100H400z"/><path fill="#af9e84" d="M500 300h100v100H500z"/><path fill="#89897b" d="M600 300h100v100H600z"/><path fill="#848f8d" d="M700 300h100v100H700z"/><path fill="#8b8d86" d="M0 400h100v100H0z"/><path fill="#d2b497" d="M100 400h100v100H100z"/><path fill="#b2a087" d="M200 400h100v100H200z"/><path fill="#697c6e" d="M300 400h100v100H300z"/><path fill="#648576" d="M400 400h100v100H400z"/><path fill="#6e8677" d="M500 400h100v100H500z"/><path fill="#b3aea5" d="M600 400h100v100H600z"/><path fill="#b1b3b8" d="M700 400h100v100H700z"/><path fill="#ccb298" d="M0 500h100v100H0z"/><path fill="#d8b493" d="M100 500h100v100H100z"/><path fill="#373b51" d="M200 500h100v100H200z"/><path fill="#000f31" d="M300 500h100v100H300z"/><path fill="#00203a" d="M400 500h100v100H400z"/><path fill="#071f40" d="M500 500h100v100H500z"/><path fill="#8f8769" d="M600 500h100v100H600z"/><path fill="#898861" d="M700 500h100v100H700z"/><path fill="#dab390" d="M0 600h100v100H0z"/><path fill="#b4937c" d="M100 600h100v100H100z"/><path fill="#695d60" d="M200 600h100v100H200z"/><path fill="#68595e" d="M300 600h100v100H300z"/><path fill="#64545b" d="M400 600h100v100H400z"/><path fill="#564e55" d="M500 600h100v100H500z"/><path fill="#384415" d="M600 600h100v100H600z"/><path fill="#3d4b07" d="M700 600h100v100H700z"/><path fill="#c59b78" d="M0 700h100v100H0z"/><path fill="#c79d76" d="M100 700h100v100H100z"/><path fill="#d7a77d" d="M200 700h100v100H200z"/><path fill="#d4a67b" d="M300 700h100v100H300z"/><path fill="#d6a780" d="M400 700h100v100H400z"/><path fill="#caa476" d="M500 700h100v100H500z"/><path fill="#746f2b" d="M600 700h100v100H600z"/><path fill="#836e3b" d="M700 700h100v100H700z"/></svg>