<svg xmlns="http://www.w3.org/2000/svg" viewBox="0 0 800 1100"><defs/><path fill="#ceaf96" d="M0 0h100v100H0z"/><path fill="#cbaf98" d="M100 0h100v100H100z"/><path fill="#c0a38b" d="M200 0h100v100H200z"/><path fill="#a78e78" d="M300 0h100v100H300z"/><path fill="#ad957d" d="M400 0h100v100H400z"/><path fill="#b8a088" d="M500 0h100v100H500z"/><path fill="#b39b84" d="M600 0h100v100H600z"/><path fill="#b1957e" d="M700 0h100v100H700z"/><path fill="#c6a992" d="M0 100h100v100H0z"/><path fill="#ae947e" d="M100 100h100v100H100z"/><path fill="#7d5f49" d="M200 100h100v100H200z"/><path fill="#543929" d="M300 100h100v100H300z"/><path fill="#34241b" d="M400 100h100v100H400z"/><path fill="#88735e" d="M500 100h100v100H500z"/><path fill="#b19a81" d="M600 100h100v100H600z"/><path fill="#ae9780" d="M700 100h100v100H700z"/><path fill="#b29c85" d="M0 200h100v100H0z"/><path fill="#84644f" d="M100 200h100v100H100z"/><path fill="#c08869" d="M200 200h100v100H200z"/><path fill="#cc916d" d="M300 200h100v100H300z"/><path fill="#5a3a27" d="M400 200h100v100H400z"/><path fill="#2e2016" d="M500 200h100v100H500z"/><path fill="#977e66" d="M600 200h100v100H600z"/><path fill="#ab947e" d="M700 200h100v100H700z"/><path fill="#af9883" d="M0 300h100v100H0z"/><path fill="#a37d66" d="M100 300h100v100H100z"/><path fill="#f5bfa1" d="M200 300h100v100H200z"/><path fill="#cf9474" d="M300 300h100v100H300z"/><path fill="#cb8c64" d="M400 300h100v100H400z"/><path fill="#663f29" d="M500 300h100v100H500z"/><path fill="#71533e" d="M600 300h100v100H600z"/><path fill="#937b62" d="M700 300h100v100H700z"/><path fill="#b6a18e" d="M0 400h100v100H0z"/><path fill="#a18775" d="M100 400h100v100H100z"/><path fill="#c49176" d="M200 400h100v100H200z"/><path fill="#e0a98c" d="M300 400h100v100H300z"/><path fill="#e6a882" d="M400 400h100v100H400z"/><path fill="#a96a42" d="M500 400h100v100H500z"/><path fill="#603e29" d="M600 400h100v100H600z"/><path fill="#82674e" d="M700 400h100v100H700z"/><path fill="#bba696" d="M0 500h100v100H0z"/><path fill="#aa9586" d="M100 500h100v100H100z"/><path fill="#bd8c74" d="M200 500h100v100H200z"/><path fill="#f5bc9f" d="M300 500h100v100H300z"/><path fill="#eeb08c" d="M400 500h100v100H400z"/><path fill="#b4754d" d="M500 500h100v100H500z"/><path fill="#54301d" d="M600 500h100v100H600z"/><path fill="#654633" d="M700 500h100v100H700z"/><path fill="#c0aca1" d="M0 600h100v100H0z"/><path fill="#b9a499" d="M100 600h100v100H100z"/><path fill="#896250" d="M200 600h100v100H200z"/><path fill="#c3846b" d="M300 600h100v100H300z"/><path fill="#e4a686" d="M400 600h100v100H400z"/><path fill="#ae6635" d="M500 600h100v100H500z"/><path fill="#773f1a" d="M600 600h100v100H600z"/><path fill="#533624" d="M700 600h100v100H700z"/><path fill="#b5a5a0" d="M0 700h100v100H0z"/><path fill="#b6a39d" d="M100 700h100v100H100z"/><path fill="#775342" d="M200 700h100v100H200z"/><path fill="#41281b" d="M300 700h100v100H300z"/><path fill="#966345" d="M400 700h100v100H400z"/><path fill="#df8e5c" d="M500 700h100v100H500z"/><path fill="#c57540" d="M600 700h100v100H600z"/><path fill="#7e4b27" d="M700 700h100v100H700z"/><path fill="#c9bec2" d="M0 800h100v100H0z"/><path fill="#c1afaf" d="M100 800h100v100H100z"/><path fill="#90624e" d="M200 800h100v100H200z"/><path fill="#5d3522" d="M300 800h100v100H300z"/><path fill="#b3754b" d="M400 800h100v100H400z"/><path fill="#f8be9a" d="M500 800h100v100H500z"/><path fill="#eba67d" d="M600 800h100v100H600z"/><path fill="#bb7140" d="M700 800h100v100H700z"/><path fill="#b5a8ac" d="M0 900h100v100H0z"/><path fill="#c5adae" d="M100 900h100v100H100z"/><path fill="#bb8a7d" d="M200 900h100v100H200z"/><path fill="#ac6b46" d="M300 900h100v100H300z"/><path fill="#b6744a" d="M400 900h100v100H400z"/><path fill="#eaaf87" d="M500 900h100v100H500z"/><path fill="#efbb9b" d="M600 900h100v100H600z"/><path fill="#d78758" d="M700 900h100v100H700z"/><path fill="#ad9a98" d="M0 1000h100v100H0z"/><path fill="#a78886" d="M100 1000h100v100H100z"/><path fill="#664946" d="M200 1000h100v100H200z"/><path fill="#6d4a41" d="M300 1000h100v100H300z"/><path fill="#9e674a" d="M400 1000h100v100H400z"/><path fill="#e79866" d="M500 1000h100v100H500z"/><path fill="#f0bca0" d="M600 1000h100v100H600z"/><path fill="#e1956b" d="M700 1000h100v100H700z"/></svg>