<svg xmlns="http://www.w3.org/2000/svg" viewBox="0 0 800 600"><defs/><path fill="#fff" d="M0 0h100v100H0z"/><path fill="#fbfbfb" d="M100 0h100v100H100z"/><path fill="#fdfdfd" d="M200 0h100v100H200z"/><path fill="#feffff" d="M300 0h100v100H300z"/><path fill="#fbfcfc" d="M400 0h100v100H400z"/><path fill="#fafafa" d="M500 0h100v100H500z"/><path fill="#fdfcfd" d="M600 0h100v100H600z"/><path fill="#fefefe" d="M700 0h100v100H700z"/><path fill="#f4f4f4" d="M0 100h100v100H0z"/><path fill="#e5e5e6" d="M100 100h100v100H100z"/><path fill="#f0efef" d="M200 100h100v100H200z"/><path fill="#dde0df" d="M300 100h100v100H300z"/><path fill="#d0d7d8" d="M400 100h100v100H400z"/><path fill="#dfeded" d="M500 100h100v100H500z"/><path fill="#f0f1f0" d="M600 100h100v100H600z"/><path fill="#f2f4f4" d="M700 100h100v100H700z"/><path fill="#f1f1f1" d="M0 200h100v100H0z"/><path fill="#e4e5e5" d="M100 200h100v100H100z"/><path fill="#e8e5e2" d="M200 200h100v100H200z"/><path fill="#d3d2d0" d="M300 200h100v100H300z"/><path fill="#c2c1c2" d="M400 200h100v100H400z"/><path fill="#e2e5e5" d="M500 200h100v100H500z"/><path fill="#dfd7d7" d="M600 200h100v100H600z"/><path fill="#e5d2d3" d="M700 200h100v100H700z"/><path fill="#f5f5f5" d="M0 300h100v100H0z"/><path fill="#e3e3e4" d="M100 300h100v100H100z"/><path fill="#d9d8d8" d="M200 300h100v100H200z"/><path fill="#d2d2d2" d="M300 300h100v100H300z"/><path fill="#cfd0d0" d="M400 300h100v100H400z"/><path fill="#e9e9e9" d="M500 300h100v100H500z"/><path fill="#e6e4e4" d="M600 300h100v100H600z"/><path fill="#e0dadb" d="M700 300h100v100H700z"/><path fill="#efefef" d="M0 400h100v100H0z"/><path fill="#e9e9e9" d="M100 400h100v100H100z"/><path fill="#f3f3f3" d="M200 400h100v100H200z"/><path fill="#e0e0e0" d="M300 400h100v100H300z"/><path fill="#e5e5e5" d="M400 400h100v100H400z"/><path fill="#f4f4f4" d="M500 400h100v100H500z"/><path fill="#f7f7f7" d="M600 400h100v100H600z"/><path fill="#e9eaea" d="M700 400h100v100H700z"/><path fill="#fcfcfc" d="M0 500h100v100H0z"/><path fill="#fdfdfd" d="M100 500h100v100H100zm100 0h100v100H200z"/><path fill="#fefefe" d="M300 500h100v100H300zm100 0h100v100H400z"/><path fill="#fdfdfd" d="M500 500h100v100H500zm100 0h100v100H600z"/><path fill="#fbfbfb" d="M700 500h100v100H700z"/></svg>