<svg xmlns="http://www.w3.org/2000/svg" viewBox="0 0 800 400"><defs/><path fill="#f1e8d6" d="M0 0h100v100H0z"/><path fill="#c3a08a" d="M100 0h100v100H100z"/><path fill="#b2bdbf" d="M200 0h100v100H200z"/><path fill="#b7d0db" d="M300 0h100v100H300z"/><path fill="#cedbe1" d="M400 0h100v100H400z"/><path fill="#dce4e7" d="M500 0h100v100H500z"/><path fill="#d2d8da" d="M600 0h100v100H600z"/><path fill="#ebe8db" d="M700 0h100v100H700z"/><path fill="#e9d9c5" d="M0 100h100v100H0z"/><path fill="#c5a691" d="M100 100h100v100H100z"/><path fill="#98b6c0" d="M200 100h100v100H200z"/><path fill="#50a9d9" d="M300 100h100v100H300z"/><path fill="#6fb2d4" d="M400 100h100v100H400z"/><path fill="#85c2e2" d="M500 100h100v100H500z"/><path fill="#90c1db" d="M600 100h100v100H600z"/><path fill="#dcd7ca" d="M700 100h100v100H700z"/><path fill="#d6c1ad" d="M0 200h100v100H0z"/><path fill="#b79b8b" d="M100 200h100v100H100z"/><path fill="#b5b5a7" d="M200 200h100v100H200z"/><path fill="#8da8a6" d="M300 200h100v100H300z"/><path fill="#6e8796" d="M400 200h100v100H400z"/><path fill="#718d95" d="M500 200h100v100H500z"/><path fill="#9da8a1" d="M600 200h100v100H600z"/><path fill="#c1988b" d="M700 200h100v100H700z"/><path fill="#cdb19b" d="M0 300h100v100H0z"/><path fill="#be9886" d="M100 300h100v100H100z"/><path fill="#c4a27c" d="M200 300h100v100H200z"/><path fill="#e6b54d" d="M300 300h100v100H300z"/><path fill="#d5b35c" d="M400 300h100v100H400z"/><path fill="#cba95d" d="M500 300h100v100H500z"/><path fill="#c49d67" d="M600 300h100v100H600z"/><path fill="#ac8c7d" d="M700 300h100v100H700z"/></svg>