<svg xmlns="http://www.w3.org/2000/svg" viewBox="0 0 800 400"><defs/><path fill="#e1e1e1" d="M0 0h100v100H0zm100 0h100v100H100z"/><path fill="#dedede" d="M200 0h100v100H200z"/><path fill="#e0e0e0" d="M300 0h100v100H300zm100 0h100v100H400z"/><path fill="#ddd" d="M500 0h100v100H500z"/><path fill="#d3d2d2" d="M600 0h100v100H600z"/><path fill="#d2d1d1" d="M700 0h100v100H700z"/><path fill="#e2e2e2" d="M0 100h100v100H0z"/><path fill="#e1e1e1" d="M100 100h100v100H100z"/><path fill="#dfdfdf" d="M200 100h100v100H200z"/><path fill="#e2e2e2" d="M300 100h100v100H300z"/><path fill="#e1e1e1" d="M400 100h100v100H400z"/><path fill="#e0e0e0" d="M500 100h100v100H500z"/><path fill="#d7d6d6" d="M600 100h100v100H600z"/><path fill="#d2d2d2" d="M700 100h100v100H700z"/><path fill="#e2e2e2" d="M0 200h100v100H0z"/><path fill="#ddd" d="M100 200h100v100H100z"/><path fill="#dcdcdc" d="M200 200h100v100H200zm100 0h100v100H300z"/><path fill="#d5d5d5" d="M400 200h100v100H400z"/><path fill="#d8d8d8" d="M500 200h100v100H500z"/><path fill="#dbdbdb" d="M600 200h100v100H600z"/><path fill="#d6d6d6" d="M700 200h100v100H700z"/><path fill="#d9d9d9" d="M0 300h100v100H0z"/><path fill="#d7d7d7" d="M100 300h100v100H100z"/><path fill="#dfdfdf" d="M200 300h100v100H200z"/><path fill="#dbdbdb" d="M300 300h100v100H300z"/><path fill="#dcdcdc" d="M400 300h100v100H400z"/><path fill="#dfdfdf" d="M500 300h100v100H500z"/><path fill="#e0e0e0" d="M600 300h100v100H600z"/><path fill="#d4d3d3" d="M700 300h100v100H700z"/></svg>