<svg xmlns="http://www.w3.org/2000/svg" viewBox="0 0 800 600"><defs/><path fill="#735439" d="M0 0h100v100H0z"/><path fill="#756254" d="M100 0h100v100H100z"/><path fill="#7e6a59" d="M200 0h100v100H200z"/><path fill="#887360" d="M300 0h100v100H300z"/><path fill="#95806d" d="M400 0h100v100H400z"/><path fill="#938271" d="M500 0h100v100H500z"/><path fill="#9d8f80" d="M600 0h100v100H600z"/><path fill="#99836d" d="M700 0h100v100H700z"/><path fill="#989799" d="M0 100h100v100H0z"/><path fill="#ccd7e5" d="M100 100h100v100H100z"/><path fill="#c6cfdd" d="M200 100h100v100H200z"/><path fill="#cfdaea" d="M300 100h100v100H300z"/><path fill="#d6e2f2" d="M400 100h100v100H400z"/><path fill="#d5e2f3" d="M500 100h100v100H500z"/><path fill="#d4e6fc" d="M600 100h100v100H600z"/><path fill="#c6cdd8" d="M700 100h100v100H700z"/><path fill="#a59d92" d="M0 200h100v100H0z"/><path fill="#edede3" d="M100 200h100v100H100z"/><path fill="#e8e6db" d="M200 200h100v100H200z"/><path fill="#eceae3" d="M300 200h100v100H300z"/><path fill="#eeede7" d="M400 200h100v100H400z"/><path fill="#f0f0ea" d="M500 200h100v100H500z"/><path fill="#f4f7f5" d="M600 200h100v100H600z"/><path fill="#d3d0cb" d="M700 200h100v100H700z"/><path fill="#8b8278" d="M0 300h100v100H0z"/><path fill="#c9cdcc" d="M100 300h100v100H100z"/><path fill="#e3e1d5" d="M200 300h100v100H200z"/><path fill="#e6e3d9" d="M300 300h100v100H300z"/><path fill="#ebeae5" d="M400 300h100v100H400z"/><path fill="#eae9e4" d="M500 300h100v100H500z"/><path fill="#eaece8" d="M600 300h100v100H600z"/><path fill="#d3caba" d="M700 300h100v100H700z"/><path fill="#877868" d="M0 400h100v100H0z"/><path fill="#dfdbc9" d="M100 400h100v100H100z"/><path fill="#e3e0d6" d="M200 400h100v100H200z"/><path fill="#e4ded2" d="M300 400h100v100H300z"/><path fill="#f7f6ef" d="M400 400h100v100H400z"/><path fill="#f4f5ed" d="M500 400h100v100H500z"/><path fill="#e5e7e0" d="M600 400h100v100H600z"/><path fill="#cdc3af" d="M700 400h100v100H700z"/><path fill="#5e463a" d="M0 500h100v100H0z"/><path fill="#8d8273" d="M100 500h100v100H100z"/><path fill="#857e75" d="M200 500h100v100H200z"/><path fill="#878179" d="M300 500h100v100H300z"/><path fill="#95928b" d="M400 500h100v100H400z"/><path fill="#98948c" d="M500 500h100v100H500z"/><path fill="#969085" d="M600 500h100v100H600z"/><path fill="#98836b" d="M700 500h100v100H700z"/></svg>