<svg xmlns="http://www.w3.org/2000/svg" viewBox="0 0 800 500"><defs/><path fill="#e5dfd9" d="M0 0h100v100H0z"/><path fill="#ccc0b8" d="M100 0h100v100H100z"/><path fill="#c9bab4" d="M200 0h100v100H200z"/><path fill="#c7c4c0" d="M300 0h100v100H300z"/><path fill="#dee2e2" d="M400 0h100v100H400z"/><path fill="#e1e2e4" d="M500 0h100v100H500z"/><path fill="#e5e9e9" d="M600 0h100v100H600z"/><path fill="#eef0ed" d="M700 0h100v100H700z"/><path fill="#d5c8bf" d="M0 100h100v100H0z"/><path fill="#ba907d" d="M100 100h100v100H100z"/><path fill="#a68171" d="M200 100h100v100H200z"/><path fill="#786863" d="M300 100h100v100H300z"/><path fill="#b1afb3" d="M400 100h100v100H400z"/><path fill="#cac3c4" d="M500 100h100v100H500z"/><path fill="#d1d5d1" d="M600 100h100v100H600z"/><path fill="#eaeee9" d="M700 100h100v100H700z"/><path fill="#d3ccd1" d="M0 200h100v100H0z"/><path fill="#8d6356" d="M100 200h100v100H100z"/><path fill="#8f959e" d="M200 200h100v100H200z"/><path fill="#ac9fb5" d="M300 200h100v100H300z"/><path fill="#b29595" d="M400 200h100v100H400z"/><path fill="#979194" d="M500 200h100v100H500z"/><path fill="#c6c0a1" d="M600 200h100v100H600z"/><path fill="#f0f2eb" d="M700 200h100v100H700z"/><path fill="#dcd6de" d="M0 300h100v100H0z"/><path fill="#7f574e" d="M100 300h100v100H100z"/><path fill="#abacae" d="M200 300h100v100H200z"/><path fill="#afbab7" d="M300 300h100v100H300z"/><path fill="#a49e93" d="M400 300h100v100H400z"/><path fill="#b7bcc7" d="M500 300h100v100H500z"/><path fill="#afaba5" d="M600 300h100v100H600z"/><path fill="#bbb7a8" d="M700 300h100v100H700z"/><path fill="#ded7d6" d="M0 400h100v100H0z"/><path fill="#b2a6a5" d="M100 400h100v100H100z"/><path fill="#e6e3e3" d="M200 400h100v100H200z"/><path fill="#aca498" d="M300 400h100v100H300z"/><path fill="#bfbbae" d="M400 400h100v100H400z"/><path fill="#d5d7d9" d="M500 400h100v100H500z"/><path fill="#aeac9d" d="M600 400h100v100H600z"/><path fill="#b4b1a3" d="M700 400h100v100H700z"/></svg>