<svg xmlns="http://www.w3.org/2000/svg" viewBox="0 0 800 600"><defs/><path fill="#939394" d="M0 0h100v100H0z"/><path fill="#938c81" d="M100 0h100v100H100z"/><path fill="#aca69e" d="M200 0h100v100H200z"/><path fill="#97938d" d="M300 0h100v100H300z"/><path fill="#8f897f" d="M400 0h100v100H400z"/><path fill="#9d9184" d="M500 0h100v100H500z"/><path fill="#8a8177" d="M600 0h100v100H600z"/><path fill="#736e68" d="M700 0h100v100H700z"/><path fill="#a89d96" d="M0 100h100v100H0z"/><path fill="#c7b8ac" d="M100 100h100v100H100z"/><path fill="#b6aca7" d="M200 100h100v100H200z"/><path fill="#b1a4a0" d="M300 100h100v100H300z"/><path fill="#ab9992" d="M400 100h100v100H400z"/><path fill="#78776a" d="M500 100h100v100H500z"/><path fill="#ad9a8e" d="M600 100h100v100H600z"/><path fill="#88786f" d="M700 100h100v100H700z"/><path fill="#bfadab" d="M0 200h100v100H0z"/><path fill="#c9b6b1" d="M100 200h100v100H100z"/><path fill="#c0b9b9" d="M200 200h100v100H200z"/><path fill="#aaabaf" d="M300 200h100v100H300z"/><path fill="#a79999" d="M400 200h100v100H400z"/><path fill="#778b8a" d="M500 200h100v100H500z"/><path fill="#9f8d87" d="M600 200h100v100H600z"/><path fill="#96827a" d="M700 200h100v100H700z"/><path fill="#beb1ab" d="M0 300h100v100H0z"/><path fill="#b0a9a1" d="M100 300h100v100H100z"/><path fill="#b9b1ac" d="M200 300h100v100H200z"/><path fill="#a79b90" d="M300 300h100v100H300z"/><path fill="#a1877a" d="M400 300h100v100H400z"/><path fill="#807977" d="M500 300h100v100H500z"/><path fill="#8e8176" d="M600 300h100v100H600z"/><path fill="#938a7f" d="M700 300h100v100H700z"/><path fill="#b5afaf" d="M0 400h100v100H0z"/><path fill="#a69f8e" d="M100 400h100v100H100z"/><path fill="#b7b2a6" d="M200 400h100v100H200z"/><path fill="#a89b8d" d="M300 400h100v100H300z"/><path fill="#9b8e7b" d="M400 400h100v100H400z"/><path fill="#898274" d="M500 400h100v100H500z"/><path fill="#9b8e7a" d="M600 400h100v100H600z"/><path fill="#887f6f" d="M700 400h100v100H700z"/><path fill="#c2c4c2" d="M0 500h100v100H0z"/><path fill="#b5b9ac" d="M100 500h100v100H100z"/><path fill="#b9b3a5" d="M200 500h100v100H200z"/><path fill="#b6b2a6" d="M300 500h100v100H300z"/><path fill="#aeac9d" d="M400 500h100v100H400z"/><path fill="#aba390" d="M500 500h100v100H500z"/><path fill="#a69b89" d="M600 500h100v100H600z"/><path fill="#8e8272" d="M700 500h100v100H700z"/></svg>