<svg xmlns="http://www.w3.org/2000/svg" viewBox="0 0 800 500"><defs/><path fill="#e6caae" d="M0 0h100v100H0z"/><path fill="#907f75" d="M100 0h100v100H100z"/><path fill="#5b698b" d="M200 0h100v100H200z"/><path fill="#5b6c91" d="M300 0h100v100H300z"/><path fill="#6779a0" d="M400 0h100v100H400z"/><path fill="#4e6c7b" d="M500 0h100v100H500z"/><path fill="#5e769b" d="M600 0h100v100H600z"/><path fill="#5f74ac" d="M700 0h100v100H700z"/><path fill="#cbb49a" d="M0 100h100v100H0z"/><path fill="#867362" d="M100 100h100v100H100z"/><path fill="#575d76" d="M200 100h100v100H200z"/><path fill="#4e5262" d="M300 100h100v100H300z"/><path fill="#4a4652" d="M400 100h100v100H400z"/><path fill="#4c5a68" d="M500 100h100v100H500z"/><path fill="#4e6084" d="M600 100h100v100H600z"/><path fill="#54638a" d="M700 100h100v100H700z"/><path fill="#88745b" d="M0 200h100v100H0z"/><path fill="#796453" d="M100 200h100v100H100z"/><path fill="#503f33" d="M200 200h100v100H200z"/><path fill="#544747" d="M300 200h100v100H300z"/><path fill="#635148" d="M400 200h100v100H400z"/><path fill="#5f4a41" d="M500 200h100v100H500z"/><path fill="#544948" d="M600 200h100v100H600z"/><path fill="#6e7996" d="M700 200h100v100H700z"/><path fill="#917c6b" d="M0 300h100v100H0z"/><path fill="#6e533f" d="M100 300h100v100H100z"/><path fill="#504036" d="M200 300h100v100H200z"/><path fill="#554546" d="M300 300h100v100H300z"/><path fill="#817474" d="M400 300h100v100H400z"/><path fill="#675c55" d="M500 300h100v100H500z"/><path fill="#5c524c" d="M600 300h100v100H600z"/><path fill="#505162" d="M700 300h100v100H700z"/><path fill="#858588" d="M0 400h100v100H0z"/><path fill="#695347" d="M100 400h100v100H100z"/><path fill="#604b3e" d="M200 400h100v100H200z"/><path fill="#6c5f5d" d="M300 400h100v100H300z"/><path fill="#726257" d="M400 400h100v100H400z"/><path fill="#524237" d="M500 400h100v100H500z"/><path fill="#65594d" d="M600 400h100v100H600z"/><path fill="#48403e" d="M700 400h100v100H700z"/></svg>