<svg xmlns="http://www.w3.org/2000/svg" viewBox="0 0 800 600"><defs/><path fill="#fcf8f4" d="M0 0h100v100H0z"/><path fill="#fbf5f1" d="M100 0h100v100H100z"/><path fill="#f9eae4" d="M200 0h100v100H200z"/><path fill="#f9e9e2" d="M300 0h100v100H300z"/><path fill="#f8eae2" d="M400 0h100v100H400z"/><path fill="#f7e9e2" d="M500 0h100v100H500z"/><path fill="#f6e5dd" d="M600 0h100v100H600z"/><path fill="#fbf3ef" d="M700 0h100v100H700z"/><path fill="#f3e2d2" d="M0 100h100v100H0z"/><path fill="#eccdb7" d="M100 100h100v100H100z"/><path fill="#e0b08e" d="M200 100h100v100H200z"/><path fill="#f4d0bb" d="M300 100h100v100H300z"/><path fill="#f4ccb6" d="M400 100h100v100H400z"/><path fill="#e2ac93" d="M500 100h100v100H500z"/><path fill="#d19374" d="M600 100h100v100H600z"/><path fill="#ebcbb5" d="M700 100h100v100H700z"/><path fill="#f4e3d5" d="M0 200h100v100H0z"/><path fill="#ecc7af" d="M100 200h100v100H100z"/><path fill="#d3af7d" d="M200 200h100v100H200z"/><path fill="#e4d1b6" d="M300 200h100v100H300z"/><path fill="#ebd8ca" d="M400 200h100v100H400z"/><path fill="#d9aa8d" d="M500 200h100v100H500z"/><path fill="#d79472" d="M600 200h100v100H600z"/><path fill="#efcdbc" d="M700 200h100v100H700z"/><path fill="#f5e7d9" d="M0 300h100v100H0z"/><path fill="#e5bda0" d="M100 300h100v100H100z"/><path fill="#c8ac95" d="M200 300h100v100H200z"/><path fill="#d1b59b" d="M300 300h100v100H300z"/><path fill="#d7c5b5" d="M400 300h100v100H400z"/><path fill="#d5bbac" d="M500 300h100v100H500z"/><path fill="#b0a894" d="M600 300h100v100H600z"/><path fill="#96ae93" d="M700 300h100v100H700z"/><path fill="#f2dcca" d="M0 400h100v100H0z"/><path fill="#d0b189" d="M100 400h100v100H100z"/><path fill="#d8c4b5" d="M200 400h100v100H200z"/><path fill="#d0c0b9" d="M300 400h100v100H300z"/><path fill="#d8d3cf" d="M400 400h100v100H400z"/><path fill="#e8e1da" d="M500 400h100v100H500z"/><path fill="#c9cbbd" d="M600 400h100v100H600z"/><path fill="#a2ac94" d="M700 400h100v100H700z"/><path fill="#f7e9df" d="M0 500h100v100H0z"/><path fill="#f4e1d6" d="M100 500h100v100H100z"/><path fill="#f6ebe3" d="M200 500h100v100H200z"/><path fill="#f4e9e1" d="M300 500h100v100H300z"/><path fill="#f0ece9" d="M400 500h100v100H400z"/><path fill="#f5ece6" d="M500 500h100v100H500z"/><path fill="#f8efea" d="M600 500h100v100H600z"/><path fill="#faede7" d="M700 500h100v100H700z"/></svg>