<svg xmlns="http://www.w3.org/2000/svg" viewBox="0 0 800 400"><defs/><path fill="#7e7977" d="M0 0h100v100H0z"/><path fill="#50635c" d="M100 0h100v100H100z"/><path fill="#436c5a" d="M200 0h100v100H200z"/><path fill="#4d705b" d="M300 0h100v100H300z"/><path fill="#797b58" d="M400 0h100v100H400z"/><path fill="#4c7a68" d="M500 0h100v100H500z"/><path fill="#456b51" d="M600 0h100v100H600z"/><path fill="#685a49" d="M700 0h100v100H700z"/><path fill="#696766" d="M0 100h100v100H0z"/><path fill="#3e5951" d="M100 100h100v100H100z"/><path fill="#304632" d="M200 100h100v100H200z"/><path fill="#324f39" d="M300 100h100v100H300z"/><path fill="#3c462c" d="M400 100h100v100H400z"/><path fill="#3a4f39" d="M500 100h100v100H500z"/><path fill="#364b30" d="M600 100h100v100H600z"/><path fill="#484333" d="M700 100h100v100H700z"/><path fill="#5e6d6e" d="M0 200h100v100H0z"/><path fill="#464e44" d="M100 200h100v100H100z"/><path fill="#4d4931" d="M200 200h100v100H200z"/><path fill="#50482b" d="M300 200h100v100H300z"/><path fill="#45494c" d="M400 200h100v100H400z"/><path fill="#5f575b" d="M500 200h100v100H500z"/><path fill="#534a3c" d="M600 200h100v100H600z"/><path fill="#3e3725" d="M700 200h100v100H700z"/><path fill="#606e6d" d="M0 300h100v100H0z"/><path fill="#534334" d="M100 300h100v100H100z"/><path fill="#5d4652" d="M200 300h100v100H200z"/><path fill="#64503b" d="M300 300h100v100H300z"/><path fill="#4b514f" d="M400 300h100v100H400z"/><path fill="#455c66" d="M500 300h100v100H500z"/><path fill="#4d4522" d="M600 300h100v100H600z"/><path fill="#413d3a" d="M700 300h100v100H700z"/></svg>