<svg xmlns="http://www.w3.org/2000/svg" viewBox="0 0 800 500"><defs/><path fill="#ced2d3" d="M0 0h100v100H0z"/><path fill="#b8bfbc" d="M100 0h100v100H100z"/><path fill="#d8dbdd" d="M200 0h100v100H200z"/><path fill="#d9dbde" d="M300 0h100v100H300z"/><path fill="#cbcecc" d="M400 0h100v100H400z"/><path fill="#dfe2e5" d="M500 0h100v100H500z"/><path fill="#dee1e3" d="M600 0h100v100H600z"/><path fill="#c9cdce" d="M700 0h100v100H700z"/><path fill="#cbcfd0" d="M0 100h100v100H0z"/><path fill="#bac2be" d="M100 100h100v100H100z"/><path fill="#cbd2d6" d="M200 100h100v100H200z"/><path fill="#c8ced1" d="M300 100h100v100H300z"/><path fill="#b7c1ac" d="M400 100h100v100H400z"/><path fill="#e2e5e7" d="M500 100h100v100H500z"/><path fill="#e9edf3" d="M600 100h100v100H600z"/><path fill="#d1d5d8" d="M700 100h100v100H700z"/><path fill="#c3c9c9" d="M0 200h100v100H0z"/><path fill="#bac1bc" d="M100 200h100v100H100z"/><path fill="#d7dce1" d="M200 200h100v100H200z"/><path fill="#ced3d5" d="M300 200h100v100H300z"/><path fill="#c4bcb5" d="M400 200h100v100H400z"/><path fill="#e1e2e8" d="M500 200h100v100H500z"/><path fill="#cfc5b5" d="M600 200h100v100H600z"/><path fill="#c0c3b9" d="M700 200h100v100H700z"/><path fill="#b4bcba" d="M0 300h100v100H0z"/><path fill="#a8b3a9" d="M100 300h100v100H100z"/><path fill="#d5cfca" d="M200 300h100v100H200z"/><path fill="#a97662" d="M300 300h100v100H300z"/><path fill="#8c756e" d="M400 300h100v100H400z"/><path fill="#e4e7ec" d="M500 300h100v100H500z"/><path fill="#c2ac97" d="M600 300h100v100H600z"/><path fill="#9a9b78" d="M700 300h100v100H700z"/><path fill="#bbc2c1" d="M0 400h100v100H0z"/><path fill="#cfd6d9" d="M100 400h100v100H100z"/><path fill="#dadada" d="M200 400h100v100H200z"/><path fill="#b58c79" d="M300 400h100v100H300z"/><path fill="#b4a096" d="M400 400h100v100H400z"/><path fill="#e0e5e9" d="M500 400h100v100H500z"/><path fill="#d2d2d1" d="M600 400h100v100H600z"/><path fill="#acb5a6" d="M700 400h100v100H700z"/></svg>