<svg xmlns="http://www.w3.org/2000/svg" viewBox="0 0 800 800"><defs/><path fill="#fff" d="M0 0h100v100H0zm100 0h100v100H100zm100 0h100v100H200zm100 0h100v100H300zm100 0h100v100H400zm100 0h100v100H500zm100 0h100v100H600zm100 0h100v100H700z"/><path fill="#f9f8f8" d="M0 100h100v100H0z"/><path fill="#f0edeb" d="M100 100h100v100H100z"/><path fill="#f8f8f8" d="M200 100h100v100H200z"/><path fill="#f8faf8" d="M300 100h100v100H300z"/><path fill="#f9fbfa" d="M400 100h100v100H400z"/><path fill="#fcfeff" d="M500 100h100v100H500z"/><path fill="#f9fcfd" d="M600 100h100v100H600z"/><path fill="#fbfcfc" d="M700 100h100v100H700z"/><path fill="#d7d7d7" d="M0 200h100v100H0z"/><path fill="#80776e" d="M100 200h100v100H100z"/><path fill="#b6b1b2" d="M200 200h100v100H200z"/><path fill="#dad0c7" d="M300 200h100v100H300z"/><path fill="#d4ccc4" d="M400 200h100v100H400z"/><path fill="#a7938b" d="M500 200h100v100H500z"/><path fill="#b09d93" d="M600 200h100v100H600z"/><path fill="#cec9c8" d="M700 200h100v100H700z"/><path fill="#d1cecb" d="M0 300h100v100H0z"/><path fill="#8b7f74" d="M100 300h100v100H100z"/><path fill="#a9bcbb" d="M200 300h100v100H200z"/><path fill="#72a7a8" d="M300 300h100v100H300z"/><path fill="#83aca6" d="M400 300h100v100H400z"/><path fill="#7a6d5a" d="M500 300h100v100H500z"/><path fill="#716567" d="M600 300h100v100H600z"/><path fill="#bab9bd" d="M700 300h100v100H700z"/><path fill="#b3aca4" d="M0 400h100v100H0z"/><path fill="#6a523f" d="M100 400h100v100H100z"/><path fill="#7b6b66" d="M200 400h100v100H200z"/><path fill="#3b4c4a" d="M300 400h100v100H300z"/><path fill="#6d5753" d="M400 400h100v100H400z"/><path fill="#966252" d="M500 400h100v100H500z"/><path fill="#454342" d="M600 400h100v100H600z"/><path fill="#c7c6c8" d="M700 400h100v100H700z"/><path fill="#9a9085" d="M0 500h100v100H0z"/><path fill="#633e21" d="M100 500h100v100H100z"/><path fill="#b74c35" d="M200 500h100v100H200z"/><path fill="#bb4832" d="M300 500h100v100H300z"/><path fill="#b23f29" d="M400 500h100v100H400z"/><path fill="#a55536" d="M500 500h100v100H500z"/><path fill="#75552e" d="M600 500h100v100H600z"/><path fill="#bfa891" d="M700 500h100v100H700z"/><path fill="#ede8e5" d="M0 600h100v100H0z"/><path fill="#ebe5de" d="M100 600h100v100H100z"/><path fill="#ecede6" d="M200 600h100v100H200z"/><path fill="#efeee7" d="M300 600h100v100H300z"/><path fill="#e8e8df" d="M400 600h100v100H400z"/><path fill="#ecebe4" d="M500 600h100v100H500z"/><path fill="#f8f0e9" d="M600 600h100v100H600z"/><path fill="#f1ebe5" d="M700 600h100v100H700z"/><path fill="#fff" d="M0 700h100v100H0zm100 0h100v100H100zm100 0h100v100H200zm100 0h100v100H300zm100 0h100v100H400zm100 0h100v100H500zm100 0h100v100H600zm100 0h100v100H700z"/></svg>