<svg xmlns="http://www.w3.org/2000/svg" viewBox="0 0 800 400"><defs/><path fill="#1c4e86" d="M0 0h100v100H0z"/><path fill="#9b9572" d="M100 0h100v100H100z"/><path fill="#43889c" d="M200 0h100v100H200z"/><path fill="#316dc0" d="M300 0h100v100H300z"/><path fill="#3078b6" d="M400 0h100v100H400z"/><path fill="#3880a8" d="M500 0h100v100H500z"/><path fill="#3c68b5" d="M600 0h100v100H600z"/><path fill="#245caa" d="M700 0h100v100H700z"/><path fill="#34578b" d="M0 100h100v100H0z"/><path fill="#aa6f89" d="M100 100h100v100H100z"/><path fill="#6b5fa1" d="M200 100h100v100H200z"/><path fill="#1477cf" d="M300 100h100v100H300z"/><path fill="#0e6fc3" d="M400 100h100v100H400z"/><path fill="#10729f" d="M500 100h100v100H500z"/><path fill="#2e6370" d="M600 100h100v100H600z"/><path fill="#193155" d="M700 100h100v100H700z"/><path fill="#50639b" d="M0 200h100v100H0z"/><path fill="#846b9f" d="M100 200h100v100H100z"/><path fill="#c18431" d="M200 200h100v100H200z"/><path fill="#a16d49" d="M300 200h100v100H300z"/><path fill="#7c4890" d="M400 200h100v100H400z"/><path fill="#8b6363" d="M500 200h100v100H500z"/><path fill="#97635a" d="M600 200h100v100H600z"/><path fill="#4c5253" d="M700 200h100v100H700z"/><path fill="#6672a0" d="M0 300h100v100H0z"/><path fill="#668d7b" d="M100 300h100v100H100z"/><path fill="#87934b" d="M200 300h100v100H200z"/><path fill="#a36464" d="M300 300h100v100H300z"/><path fill="#3c3eaf" d="M400 300h100v100H400z"/><path fill="#524872" d="M500 300h100v100H500z"/><path fill="#7f4b5a" d="M600 300h100v100H600z"/><path fill="#796387" d="M700 300h100v100H700z"/></svg>