<svg xmlns="http://www.w3.org/2000/svg" viewBox="0 0 800 500"><defs/><path fill="#9d776e" d="M0 0h100v100H0z"/><path fill="#a18271" d="M100 0h100v100H100z"/><path fill="#b38c92" d="M200 0h100v100H200z"/><path fill="#8a7982" d="M300 0h100v100H300z"/><path fill="#434d5f" d="M400 0h100v100H400z"/><path fill="#94898c" d="M500 0h100v100H500z"/><path fill="#a3948f" d="M600 0h100v100H600z"/><path fill="#9b8e8d" d="M700 0h100v100H700z"/><path fill="#9c7263" d="M0 100h100v100H0z"/><path fill="#a47e6b" d="M100 100h100v100H100z"/><path fill="#ac807b" d="M200 100h100v100H200z"/><path fill="#444e66" d="M300 100h100v100H300z"/><path fill="#18325e" d="M400 100h100v100H400z"/><path fill="#606371" d="M500 100h100v100H500z"/><path fill="#a7907e" d="M600 100h100v100H600z"/><path fill="#a59593" d="M700 100h100v100H700z"/><path fill="#9f796b" d="M0 200h100v100H0z"/><path fill="#9f8070" d="M100 200h100v100H100z"/><path fill="#a0918f" d="M200 200h100v100H200z"/><path fill="#a18684" d="M300 200h100v100H300z"/><path fill="#9a777d" d="M400 200h100v100H400z"/><path fill="#a6979a" d="M500 200h100v100H500z"/><path fill="#ae9e91" d="M600 200h100v100H600z"/><path fill="#ada1a0" d="M700 200h100v100H700z"/><path fill="#987568" d="M0 300h100v100H0z"/><path fill="#9e865b" d="M100 300h100v100H100z"/><path fill="#869468" d="M200 300h100v100H200z"/><path fill="#99ab90" d="M300 300h100v100H300z"/><path fill="#b2ab99" d="M400 300h100v100H400z"/><path fill="#ae7d58" d="M500 300h100v100H500z"/><path fill="#a47a5b" d="M600 300h100v100H600z"/><path fill="#a99990" d="M700 300h100v100H700z"/><path fill="#897269" d="M0 400h100v100H0z"/><path fill="#9f8e83" d="M100 400h100v100H100z"/><path fill="#afa278" d="M200 400h100v100H200z"/><path fill="#aba681" d="M300 400h100v100H300z"/><path fill="#b1a99f" d="M400 400h100v100H400z"/><path fill="#a2835f" d="M500 400h100v100H500z"/><path fill="#9c846e" d="M600 400h100v100H600z"/><path fill="#9c918c" d="M700 400h100v100H700z"/></svg>