<svg xmlns="http://www.w3.org/2000/svg" viewBox="0 0 800 500"><defs/><path fill="#897e8a" d="M0 0h100v100H0z"/><path fill="#8a7684" d="M100 0h100v100H100z"/><path fill="#817484" d="M200 0h100v100H200z"/><path fill="#756b7b" d="M300 0h100v100H300z"/><path fill="#625b63" d="M400 0h100v100H400z"/><path fill="#807981" d="M500 0h100v100H500z"/><path fill="#7a707f" d="M600 0h100v100H600z"/><path fill="#807384" d="M700 0h100v100H700z"/><path fill="#6e606f" d="M0 100h100v100H0z"/><path fill="#715b6c" d="M100 100h100v100H100z"/><path fill="#645668" d="M200 100h100v100H200z"/><path fill="#5a4e63" d="M300 100h100v100H300z"/><path fill="#574e5a" d="M400 100h100v100H400z"/><path fill="#6f6472" d="M500 100h100v100H500z"/><path fill="#665b6e" d="M600 100h100v100H600z"/><path fill="#736477" d="M700 100h100v100H700z"/><path fill="#7e6f7d" d="M0 200h100v100H0z"/><path fill="#7d6777" d="M100 200h100v100H100z"/><path fill="#5b4a5a" d="M200 200h100v100H200z"/><path fill="#5b5062" d="M300 200h100v100H300z"/><path fill="#534755" d="M400 200h100v100H400z"/><path fill="#3f3643" d="M500 200h100v100H500z"/><path fill="#706475" d="M600 200h100v100H600z"/><path fill="#938597" d="M700 200h100v100H700z"/><path fill="#867380" d="M0 300h100v100H0z"/><path fill="#54414e" d="M100 300h100v100H100z"/><path fill="#382b3b" d="M200 300h100v100H200z"/><path fill="#7e7185" d="M300 300h100v100H300z"/><path fill="#9189a0" d="M400 300h100v100H400z"/><path fill="#897c90" d="M500 300h100v100H500z"/><path fill="#473c4b" d="M600 300h100v100H600z"/><path fill="#5f5464" d="M700 300h100v100H700z"/><path fill="#918991" d="M0 400h100v100H0z"/><path fill="#5b535f" d="M100 400h100v100H100z"/><path fill="#68636d" d="M200 400h100v100H200z"/><path fill="#998e9c" d="M300 400h100v100H300z"/><path fill="#908695" d="M400 400h100v100H400z"/><path fill="#938896" d="M500 400h100v100H500z"/><path fill="#78707d" d="M600 400h100v100H600z"/><path fill="#706b76" d="M700 400h100v100H700z"/></svg>