<svg xmlns="http://www.w3.org/2000/svg" viewBox="0 0 800 900"><defs/><path fill="#d0cfcd" d="M0 0h100v100H0z"/><path fill="#d5d4d2" d="M100 0h100v100H100z"/><path fill="#e2e0df" d="M200 0h100v100H200z"/><path fill="#dededc" d="M300 0h100v100H300z"/><path fill="#d6d5d4" d="M400 0h100v100H400z"/><path fill="#d5d4d3" d="M500 0h100v100H500z"/><path fill="#e6e5e4" d="M600 0h100v100H600z"/><path fill="#fff" d="M700 0h100v100H700z"/><path fill="#b4b6bb" d="M0 100h100v100H0z"/><path fill="#b9b9bd" d="M100 100h100v100H100z"/><path fill="#989697" d="M200 100h100v100H200z"/><path fill="#a1a0a2" d="M300 100h100v100H300z"/><path fill="#acabae" d="M400 100h100v100H400z"/><path fill="#a0a0a3" d="M500 100h100v100H500z"/><path fill="#bebec1" d="M600 100h100v100H600z"/><path fill="#d6d7da" d="M700 100h100v100H700z"/><path fill="#846d67" d="M0 200h100v100H0z"/><path fill="#807577" d="M100 200h100v100H100z"/><path fill="#715550" d="M200 200h100v100H200z"/><path fill="#786361" d="M300 200h100v100H300z"/><path fill="#897678" d="M400 200h100v100H400z"/><path fill="#6d524d" d="M500 200h100v100H500z"/><path fill="#70666b" d="M600 200h100v100H600z"/><path fill="#453533" d="M700 200h100v100H700z"/><path fill="#cc8d6d" d="M0 300h100v100H0z"/><path fill="#a97b67" d="M100 300h100v100H100z"/><path fill="#cda28d" d="M200 300h100v100H200z"/><path fill="#ba9588" d="M300 300h100v100H300z"/><path fill="#816c6b" d="M400 300h100v100H400z"/><path fill="#785346" d="M500 300h100v100H500z"/><path fill="#564b4b" d="M600 300h100v100H600z"/><path fill="#a37465" d="M700 300h100v100H700z"/><path fill="#c99074" d="M0 400h100v100H0z"/><path fill="#6f4f41" d="M100 400h100v100H100z"/><path fill="#986f5e" d="M200 400h100v100H200z"/><path fill="#daad9a" d="M300 400h100v100H300z"/><path fill="#9f8c85" d="M400 400h100v100H400z"/><path fill="#b8917e" d="M500 400h100v100H500z"/><path fill="#544e4b" d="M600 400h100v100H600z"/><path fill="#a38073" d="M700 400h100v100H700z"/><path fill="#c08d6f" d="M0 500h100v100H0z"/><path fill="#745343" d="M100 500h100v100H100z"/><path fill="#6c4e47" d="M200 500h100v100H200z"/><path fill="#7f6f64" d="M300 500h100v100H300z"/><path fill="#c2a290" d="M400 500h100v100H400z"/><path fill="#835e53" d="M500 500h100v100H500z"/><path fill="#6c5951" d="M600 500h100v100H600z"/><path fill="#ddb39f" d="M700 500h100v100H700z"/><path fill="#663f22" d="M0 600h100v100H0z"/><path fill="#583723" d="M100 600h100v100H100z"/><path fill="#8f6658" d="M200 600h100v100H200z"/><path fill="#977665" d="M300 600h100v100H300z"/><path fill="#876456" d="M400 600h100v100H400z"/><path fill="#876156" d="M500 600h100v100H500z"/><path fill="#69554d" d="M600 600h100v100H600z"/><path fill="#ebbba4" d="M700 600h100v100H700z"/><path fill="#845d42" d="M0 700h100v100H0z"/><path fill="#96684a" d="M100 700h100v100H100z"/><path fill="#ebb59a" d="M200 700h100v100H200z"/><path fill="#ba9583" d="M300 700h100v100H300z"/><path fill="#b88568" d="M400 700h100v100H400z"/><path fill="#ae7c5f" d="M500 700h100v100H500z"/><path fill="#614f46" d="M600 700h100v100H600z"/><path fill="#ddb6a3" d="M700 700h100v100H700z"/><path fill="#ba8a6d" d="M0 800h100v100H0z"/><path fill="#aa785d" d="M100 800h100v100H100z"/><path fill="#dea68d" d="M200 800h100v100H200z"/><path fill="#9f7b68" d="M300 800h100v100H300z"/><path fill="#c39884" d="M400 800h100v100H400z"/><path fill="#be937b" d="M500 800h100v100H500z"/><path fill="#977465" d="M600 800h100v100H600z"/><path fill="#caa99b" d="M700 800h100v100H700z"/></svg>