<svg xmlns="http://www.w3.org/2000/svg" viewBox="0 0 800 400"><defs/><path fill="#b6a79e" d="M0 0h100v100H0z"/><path fill="#756150" d="M100 0h100v100H100z"/><path fill="#e7cbba" d="M200 0h100v100H200z"/><path fill="#c9b69f" d="M300 0h100v100H300z"/><path fill="#90a29e" d="M400 0h100v100H400z"/><path fill="#778d91" d="M500 0h100v100H500z"/><path fill="#85a1b0" d="M600 0h100v100H600z"/><path fill="#91aec5" d="M700 0h100v100H700z"/><path fill="#9e8e84" d="M0 100h100v100H0z"/><path fill="#937b6b" d="M100 100h100v100H100z"/><path fill="#ecd7c4" d="M200 100h100v100H200z"/><path fill="#d9c8bb" d="M300 100h100v100H300z"/><path fill="#70775d" d="M400 100h100v100H400z"/><path fill="#162d00" d="M500 100h100v100H500z"/><path fill="#384e2a" d="M600 100h100v100H600z"/><path fill="#344526" d="M700 100h100v100H700z"/><path fill="#89786c" d="M0 200h100v100H0z"/><path fill="#7b6455" d="M100 200h100v100H100z"/><path fill="#c0ae96" d="M200 200h100v100H200z"/><path fill="#cab8ab" d="M300 200h100v100H300z"/><path fill="#9f9380" d="M400 200h100v100H400z"/><path fill="#67644b" d="M500 200h100v100H500z"/><path fill="#626257" d="M600 200h100v100H600z"/><path fill="#67887b" d="M700 200h100v100H700z"/><path fill="#746153" d="M0 300h100v100H0z"/><path fill="#513c2f" d="M100 300h100v100H100z"/><path fill="#826b58" d="M200 300h100v100H200z"/><path fill="#c3ab8c" d="M300 300h100v100H300z"/><path fill="#cab292" d="M400 300h100v100H400z"/><path fill="#ac8d77" d="M500 300h100v100H500z"/><path fill="#55312a" d="M600 300h100v100H600z"/><path fill="#707168" d="M700 300h100v100H700z"/></svg>