<svg xmlns="http://www.w3.org/2000/svg" viewBox="0 0 800 400"><defs/><path fill="#c2ab8c" d="M0 0h100v100H0z"/><path fill="#6a3d36" d="M100 0h100v100H100z"/><path fill="#a36b53" d="M200 0h100v100H200z"/><path fill="#cc8f69" d="M300 0h100v100H300z"/><path fill="#b47a61" d="M400 0h100v100H400z"/><path fill="#c78f69" d="M500 0h100v100H500z"/><path fill="#bc7a59" d="M600 0h100v100H600z"/><path fill="#7b5d5b" d="M700 0h100v100H700z"/><path fill="#bca77e" d="M0 100h100v100H0z"/><path fill="#6a3e30" d="M100 100h100v100H100z"/><path fill="#a06a4d" d="M200 100h100v100H200z"/><path fill="#cb7d54" d="M300 100h100v100H300z"/><path fill="#c4885b" d="M400 100h100v100H400z"/><path fill="#d2875c" d="M500 100h100v100H500z"/><path fill="#b1774d" d="M600 100h100v100H600z"/><path fill="#764d4d" d="M700 100h100v100H700z"/><path fill="#9d8b6a" d="M0 200h100v100H0z"/><path fill="#642326" d="M100 200h100v100H100z"/><path fill="#96403c" d="M200 200h100v100H200z"/><path fill="#bc6444" d="M300 200h100v100H300z"/><path fill="#b0734f" d="M400 200h100v100H400z"/><path fill="#cc6a43" d="M500 200h100v100H500z"/><path fill="#b35842" d="M600 200h100v100H600z"/><path fill="#7d4857" d="M700 200h100v100H700z"/><path fill="#8c5e5c" d="M0 300h100v100H0z"/><path fill="#85083b" d="M100 300h100v100H100z"/><path fill="#ba284c" d="M200 300h100v100H200z"/><path fill="#b3524b" d="M300 300h100v100H300z"/><path fill="#a83b45" d="M400 300h100v100H400z"/><path fill="#be4c42" d="M500 300h100v100H500z"/><path fill="#b42c40" d="M600 300h100v100H600z"/><path fill="#963a68" d="M700 300h100v100H700z"/></svg>