<svg xmlns="http://www.w3.org/2000/svg" viewBox="0 0 800 400"><defs/><path fill="#ab9792" d="M0 0h100v100H0z"/><path fill="#83703d" d="M100 0h100v100H100z"/><path fill="#75645b" d="M200 0h100v100H200z"/><path fill="#70575e" d="M300 0h100v100H300z"/><path fill="#837679" d="M400 0h100v100H400z"/><path fill="#73a054" d="M500 0h100v100H500z"/><path fill="#72b258" d="M600 0h100v100H600z"/><path fill="#9f9b96" d="M700 0h100v100H700z"/><path fill="#ac9486" d="M0 100h100v100H0z"/><path fill="#73692d" d="M100 100h100v100H100z"/><path fill="#858374" d="M200 100h100v100H200z"/><path fill="#a78a86" d="M300 100h100v100H300z"/><path fill="#857d63" d="M400 100h100v100H400z"/><path fill="#5f7239" d="M500 100h100v100H500z"/><path fill="#6c6d2f" d="M600 100h100v100H600z"/><path fill="#ada59d" d="M700 100h100v100H700z"/><path fill="#a18c6f" d="M0 200h100v100H0z"/><path fill="#5f581f" d="M100 200h100v100H100z"/><path fill="#7d563a" d="M200 200h100v100H200z"/><path fill="#8b683c" d="M300 200h100v100H300z"/><path fill="#4f303e" d="M400 200h100v100H400z"/><path fill="#837073" d="M500 200h100v100H500z"/><path fill="#987667" d="M600 200h100v100H600z"/><path fill="#715e61" d="M700 200h100v100H700z"/><path fill="#958058" d="M0 300h100v100H0z"/><path fill="#634015" d="M100 300h100v100H100z"/><path fill="#845841" d="M200 300h100v100H200z"/><path fill="#5f4755" d="M300 300h100v100H300z"/><path fill="#310a3a" d="M400 300h100v100H400z"/><path fill="#865a49" d="M500 300h100v100H500z"/><path fill="#986f5c" d="M600 300h100v100H600z"/><path fill="#3f171b" d="M700 300h100v100H700z"/></svg>