<svg xmlns="http://www.w3.org/2000/svg" viewBox="0 0 800 600"><defs/><path fill="#f6f5e1" d="M0 0h100v100H0z"/><path fill="#efecd8" d="M100 0h100v100H100z"/><path fill="#fcfae6" d="M200 0h100v100H200z"/><path fill="#f9f8e5" d="M300 0h100v100H300z"/><path fill="#e6eae0" d="M400 0h100v100H400z"/><path fill="#edf0e2" d="M500 0h100v100H500z"/><path fill="#faf8e4" d="M600 0h100v100H600z"/><path fill="#faf7e4" d="M700 0h100v100H700z"/><path fill="#f6f4e0" d="M0 100h100v100H0z"/><path fill="#eee8d5" d="M100 100h100v100H100z"/><path fill="#fcfbe5" d="M200 100h100v100H200z"/><path fill="#e8ece2" d="M300 100h100v100H300z"/><path fill="#c5d2db" d="M400 100h100v100H400z"/><path fill="#ced4d1" d="M500 100h100v100H500z"/><path fill="#f7f2e1" d="M600 100h100v100H600z"/><path fill="#e1ecd7" d="M700 100h100v100H700z"/><path fill="#f6f3df" d="M0 200h100v100H0z"/><path fill="#e7e1cf" d="M100 200h100v100H100z"/><path fill="#e6e4c9" d="M200 200h100v100H200z"/><path fill="#dfe7d2" d="M300 200h100v100H300z"/><path fill="#cfd4d7" d="M400 200h100v100H400z"/><path fill="#ddd8c3" d="M500 200h100v100H500z"/><path fill="#efedd2" d="M600 200h100v100H600z"/><path fill="#d8dbc5" d="M700 200h100v100H700z"/><path fill="#f2efdb" d="M0 300h100v100H0z"/><path fill="#ece9d5" d="M100 300h100v100H100z"/><path fill="#ebdec6" d="M200 300h100v100H200z"/><path fill="#e2d5b9" d="M300 300h100v100H300z"/><path fill="#e4e1d2" d="M400 300h100v100H400z"/><path fill="#e9e1cc" d="M500 300h100v100H500z"/><path fill="#f5e1be" d="M600 300h100v100H600z"/><path fill="#e6dcc6" d="M700 300h100v100H700z"/><path fill="#efead5" d="M0 400h100v100H0z"/><path fill="#e5e0cd" d="M100 400h100v100H100z"/><path fill="#e5e1cb" d="M200 400h100v100H200z"/><path fill="#ece2cb" d="M300 400h100v100H300z"/><path fill="#eadcc6" d="M400 400h100v100H400z"/><path fill="#f3e6c9" d="M500 400h100v100H500z"/><path fill="#f4ddbc" d="M600 400h100v100H600z"/><path fill="#f4ecd3" d="M700 400h100v100H700z"/><path fill="#f4f1dc" d="M0 500h100v100H0z"/><path fill="#eae7d5" d="M100 500h100v100H100z"/><path fill="#edebd5" d="M200 500h100v100H200z"/><path fill="#f5f4d9" d="M300 500h100v100H300z"/><path fill="#f1ebd1" d="M400 500h100v100H400z"/><path fill="#f4f1d6" d="M500 500h100v100H500z"/><path fill="#f9f7e2" d="M600 500h100v100H600z"/><path fill="#f7f3df" d="M700 500h100v100H700z"/></svg>