<svg xmlns="http://www.w3.org/2000/svg" viewBox="0 0 800 400"><defs/><path fill="#dfdad7" d="M0 0h100v100H0z"/><path fill="#cdc6c2" d="M100 0h100v100H100z"/><path fill="#d3c6bf" d="M200 0h100v100H200z"/><path fill="#d7cfca" d="M300 0h100v100H300z"/><path fill="#ebe7e4" d="M400 0h100v100H400z"/><path fill="#e9deda" d="M500 0h100v100H500z"/><path fill="#ebddd6" d="M600 0h100v100H600z"/><path fill="#d5b8ac" d="M700 0h100v100H700z"/><path fill="#e1d9d5" d="M0 100h100v100H0z"/><path fill="#bfa59a" d="M100 100h100v100H100z"/><path fill="#d0bbb2" d="M200 100h100v100H200z"/><path fill="#f2f3f2" d="M300 100h100v100H300z"/><path fill="#d2beb6" d="M400 100h100v100H400z"/><path fill="#c6a396" d="M500 100h100v100H500z"/><path fill="#c4a79a" d="M600 100h100v100H600z"/><path fill="#d4bbb1" d="M700 100h100v100H700z"/><path fill="#e2dbd9" d="M0 200h100v100H0z"/><path fill="#c2a398" d="M100 200h100v100H100z"/><path fill="#ccaca0" d="M200 200h100v100H200z"/><path fill="#d8ccc7" d="M300 200h100v100H300z"/><path fill="#d4a28f" d="M400 200h100v100H400z"/><path fill="#ccada0" d="M500 200h100v100H500z"/><path fill="#b59080" d="M600 200h100v100H600z"/><path fill="#c9ab9e" d="M700 200h100v100H700z"/><path fill="#bfa195" d="M0 300h100v100H0z"/><path fill="#c6aea4" d="M100 300h100v100H100z"/><path fill="#daccc7" d="M200 300h100v100H200z"/><path fill="#d4b4a7" d="M300 300h100v100H300z"/><path fill="#d3a391" d="M400 300h100v100H400z"/><path fill="#cca99a" d="M500 300h100v100H500z"/><path fill="#c6a393" d="M600 300h100v100H600z"/><path fill="#cdb0a3" d="M700 300h100v100H700z"/></svg>