<svg xmlns="http://www.w3.org/2000/svg" viewBox="0 0 800 500"><defs/><path fill="#f5e46c" d="M0 0h100v100H0z"/><path fill="#e9cea5" d="M100 0h100v100H100z"/><path fill="#d6bfce" d="M200 0h100v100H200z"/><path fill="#a8bfc9" d="M300 0h100v100H300z"/><path fill="#a1b9c9" d="M400 0h100v100H400z"/><path fill="#a4bac6" d="M500 0h100v100H500z"/><path fill="#a0b1bc" d="M600 0h100v100H600z"/><path fill="#7b93aa" d="M700 0h100v100H700z"/><path fill="#edd95d" d="M0 100h100v100H0z"/><path fill="#e2c3b1" d="M100 100h100v100H100z"/><path fill="#e1cbc4" d="M200 100h100v100H200z"/><path fill="#e0dcc9" d="M300 100h100v100H300z"/><path fill="#dcd7cf" d="M400 100h100v100H400z"/><path fill="#cccfcd" d="M500 100h100v100H500z"/><path fill="#cac5c3" d="M600 100h100v100H600z"/><path fill="#b2aca9" d="M700 100h100v100H700z"/><path fill="#d2bb4b" d="M0 200h100v100H0z"/><path fill="#ddc0bb" d="M100 200h100v100H100z"/><path fill="#e4c998" d="M200 200h100v100H200z"/><path fill="#d8c2a0" d="M300 200h100v100H300z"/><path fill="#c3b293" d="M400 200h100v100H400z"/><path fill="#c3a98a" d="M500 200h100v100H500z"/><path fill="#b39f89" d="M600 200h100v100H600z"/><path fill="#9d7b68" d="M700 200h100v100H700z"/><path fill="#a08b4a" d="M0 300h100v100H0z"/><path fill="#d2aeb3" d="M100 300h100v100H100z"/><path fill="#c4b49c" d="M200 300h100v100H200z"/><path fill="#9fa27d" d="M300 300h100v100H300z"/><path fill="#749171" d="M400 300h100v100H400z"/><path fill="#978461" d="M500 300h100v100H500z"/><path fill="#918473" d="M600 300h100v100H600z"/><path fill="#8c785d" d="M700 300h100v100H700z"/><path fill="#6b5836" d="M0 400h100v100H0z"/><path fill="#b18f82" d="M100 400h100v100H100z"/><path fill="#949f8a" d="M200 400h100v100H200z"/><path fill="#6e947c" d="M300 400h100v100H300z"/><path fill="#9c8f75" d="M400 400h100v100H400z"/><path fill="#797456" d="M500 400h100v100H500z"/><path fill="#8f7f6a" d="M600 400h100v100H600z"/><path fill="#8c7a65" d="M700 400h100v100H700z"/></svg>