<svg xmlns="http://www.w3.org/2000/svg" viewBox="0 0 800 400"><defs/><path fill="#755a2e" d="M0 0h100v100H0z"/><path fill="#8c6638" d="M100 0h100v100H100z"/><path fill="#906433" d="M200 0h100v100H200z"/><path fill="#8c6831" d="M300 0h100v100H300z"/><path fill="#73622e" d="M400 0h100v100H400z"/><path fill="#785d2a" d="M500 0h100v100H500z"/><path fill="#87683a" d="M600 0h100v100H600z"/><path fill="#796541" d="M700 0h100v100H700z"/><path fill="#82613c" d="M0 100h100v100H0z"/><path fill="#7e6343" d="M100 100h100v100H100z"/><path fill="#8c5a42" d="M200 100h100v100H200z"/><path fill="#845530" d="M300 100h100v100H300z"/><path fill="#756337" d="M400 100h100v100H400z"/><path fill="#987a4c" d="M500 100h100v100H500z"/><path fill="#856541" d="M600 100h100v100H600z"/><path fill="#855d3a" d="M700 100h100v100H700z"/><path fill="#6d593b" d="M0 200h100v100H0z"/><path fill="#683f2d" d="M100 200h100v100H100z"/><path fill="#835a3f" d="M200 200h100v100H200z"/><path fill="#7e5034" d="M300 200h100v100H300z"/><path fill="#8c563e" d="M400 200h100v100H400z"/><path fill="#82866a" d="M500 200h100v100H500z"/><path fill="#7b5d46" d="M600 200h100v100H600z"/><path fill="#71452a" d="M700 200h100v100H700z"/><path fill="#7b5b38" d="M0 300h100v100H0z"/><path fill="#87623c" d="M100 300h100v100H100z"/><path fill="#745939" d="M200 300h100v100H200z"/><path fill="#5a4131" d="M300 300h100v100H300z"/><path fill="#8d6641" d="M400 300h100v100H400z"/><path fill="#8c5f3f" d="M500 300h100v100H500z"/><path fill="#9b6548" d="M600 300h100v100H600z"/><path fill="#90643b" d="M700 300h100v100H700z"/></svg>