<svg xmlns="http://www.w3.org/2000/svg" viewBox="0 0 800 500"><defs/><path fill="#a2afaf" d="M0 0h100v100H0z"/><path fill="#abb5b5" d="M100 0h100v100H100z"/><path fill="#98a2a4" d="M200 0h100v100H200z"/><path fill="#b0b1b1" d="M300 0h100v100H300z"/><path fill="#b9b4b2" d="M400 0h100v100H400z"/><path fill="#948f91" d="M500 0h100v100H500z"/><path fill="#a5aaaa" d="M600 0h100v100H600z"/><path fill="#acb4b3" d="M700 0h100v100H700z"/><path fill="#a4afad" d="M0 100h100v100H0z"/><path fill="#a7acae" d="M100 100h100v100H100z"/><path fill="#a5a6a7" d="M200 100h100v100H200z"/><path fill="#aa999c" d="M300 100h100v100H300z"/><path fill="#b4afb3" d="M400 100h100v100H400z"/><path fill="#afa3a9" d="M500 100h100v100H500z"/><path fill="#b0a8a9" d="M600 100h100v100H600z"/><path fill="#a9a1a0" d="M700 100h100v100H700z"/><path fill="#bec6c3" d="M0 200h100v100H0z"/><path fill="#9b9e9f" d="M100 200h100v100H100z"/><path fill="#949698" d="M200 200h100v100H200z"/><path fill="#91898d" d="M300 200h100v100H300z"/><path fill="#9ba4a8" d="M400 200h100v100H400z"/><path fill="#9f969d" d="M500 200h100v100H500z"/><path fill="#a19193" d="M600 200h100v100H600z"/><path fill="#978c8b" d="M700 200h100v100H700z"/><path fill="#b6bfbe" d="M0 300h100v100H0z"/><path fill="#929b97" d="M100 300h100v100H100z"/><path fill="#868f91" d="M200 300h100v100H200z"/><path fill="#848089" d="M300 300h100v100H300z"/><path fill="#8f9396" d="M400 300h100v100H400z"/><path fill="#91898e" d="M500 300h100v100H500z"/><path fill="#858181" d="M600 300h100v100H600z"/><path fill="#737776" d="M700 300h100v100H700z"/><path fill="#a0a8a5" d="M0 400h100v100H0z"/><path fill="#94826f" d="M100 400h100v100H100z"/><path fill="#a2a8a6" d="M200 400h100v100H200z"/><path fill="#a7a4a7" d="M300 400h100v100H300z"/><path fill="#9e9f9f" d="M400 400h100v100H400z"/><path fill="#7d7370" d="M500 400h100v100H500z"/><path fill="#6a5d58" d="M600 400h100v100H600z"/><path fill="#776e65" d="M700 400h100v100H700z"/></svg>