<svg xmlns="http://www.w3.org/2000/svg" viewBox="0 0 800 500"><defs/><path fill="#f1f1f1" d="M0 0h100v100H0z"/><path fill="#e6e6e6" d="M100 0h100v100H100z"/><path fill="#eee" d="M200 0h100v100H200z"/><path fill="#f5f4f5" d="M300 0h100v100H300z"/><path fill="#eee" d="M400 0h100v100H400zm100 0h100v100H500z"/><path fill="#f1f1f1" d="M600 0h100v100H600z"/><path fill="#eaeaea" d="M700 0h100v100H700z"/><path fill="#d1d1d1" d="M0 100h100v100H0z"/><path fill="#bfbfbf" d="M100 100h100v100H100z"/><path fill="#bbbabb" d="M200 100h100v100H200z"/><path fill="#bab9b9" d="M300 100h100v100H300z"/><path fill="#aeadae" d="M400 100h100v100H400z"/><path fill="#b8b8b8" d="M500 100h100v100H500z"/><path fill="#cacaca" d="M600 100h100v100H600z"/><path fill="#c4c4c4" d="M700 100h100v100H700z"/><path fill="#d5d5d5" d="M0 200h100v100H0z"/><path fill="#c9c9c9" d="M100 200h100v100H100z"/><path fill="#c5c5c5" d="M200 200h100v100H200z"/><path fill="#bdbdbd" d="M300 200h100v100H300z"/><path fill="#c1c0c0" d="M400 200h100v100H400z"/><path fill="#cecdcd" d="M500 200h100v100H500z"/><path fill="#cacaca" d="M600 200h100v100H600z"/><path fill="#b7b7b7" d="M700 200h100v100H700z"/><path fill="#cbcbcb" d="M0 300h100v100H0z"/><path fill="#bebebe" d="M100 300h100v100H100z"/><path fill="#e2e2e2" d="M200 300h100v100H200z"/><path fill="#c6c6c6" d="M300 300h100v100H300z"/><path fill="#c8c8c8" d="M400 300h100v100H400z"/><path fill="#e2e2e2" d="M500 300h100v100H500z"/><path fill="#cecece" d="M600 300h100v100H600z"/><path fill="silver" d="M700 300h100v100H700z"/><path fill="#e0e0e0" d="M0 400h100v100H0z"/><path fill="#dcdcdc" d="M100 400h100v100H100z"/><path fill="#f0f0f0" d="M200 400h100v100H200z"/><path fill="#f3f3f3" d="M300 400h100v100H300z"/><path fill="#f4f4f4" d="M400 400h100v100H400z"/><path fill="#e7e7e7" d="M500 400h100v100H500z"/><path fill="#e2e2e2" d="M600 400h100v100H600z"/><path fill="#dedede" d="M700 400h100v100H700z"/></svg>