<svg xmlns="http://www.w3.org/2000/svg" viewBox="0 0 800 600"><defs/><path fill="#f3f3f3" d="M0 0h100v100H0z"/><path fill="#eee" d="M100 0h100v100H100z"/><path fill="#f2f2f2" d="M200 0h100v100H200z"/><path fill="#e5e5e5" d="M300 0h100v100H300z"/><path fill="#f5f5f5" d="M400 0h100v100H400z"/><path fill="#fbfbfb" d="M500 0h100v100H500z"/><path fill="#f9f9f9" d="M600 0h100v100H600z"/><path fill="#f2f1f1" d="M700 0h100v100H700z"/><path fill="#ddd" d="M0 100h100v100H0z"/><path fill="#bdbcbc" d="M100 100h100v100H100z"/><path fill="#c2c0c1" d="M200 100h100v100H200z"/><path fill="#a4a3a2" d="M300 100h100v100H300z"/><path fill="#edeceb" d="M400 100h100v100H400z"/><path fill="#f7f6f6" d="M500 100h100v100H500z"/><path fill="#f1f0f0" d="M600 100h100v100H600z"/><path fill="#cab5ad" d="M700 100h100v100H700z"/><path fill="#d8d8d7" d="M0 200h100v100H0z"/><path fill="#c5c7c9" d="M100 200h100v100H100z"/><path fill="#d3c2bf" d="M200 200h100v100H200z"/><path fill="#e2d5cf" d="M300 200h100v100H300z"/><path fill="#696762" d="M400 200h100v100H400z"/><path fill="#4c4543" d="M500 200h100v100H500z"/><path fill="#767272" d="M600 200h100v100H600z"/><path fill="#d5d2cf" d="M700 200h100v100H700z"/><path fill="#d6d6d6" d="M0 300h100v100H0z"/><path fill="#c2c3c4" d="M100 300h100v100H100z"/><path fill="#c28972" d="M200 300h100v100H200z"/><path fill="#c4907c" d="M300 300h100v100H300z"/><path fill="#363837" d="M400 300h100v100H400z"/><path fill="#726d6e" d="M500 300h100v100H500z"/><path fill="#4f4a4a" d="M600 300h100v100H600z"/><path fill="#e0dfde" d="M700 300h100v100H700z"/><path fill="#c9caca" d="M0 400h100v100H0z"/><path fill="#b3b3b3" d="M100 400h100v100H100z"/><path fill="#c4b6b1" d="M200 400h100v100H200z"/><path fill="#bdb4b0" d="M300 400h100v100H300z"/><path fill="#9b9b9b" d="M400 400h100v100H400z"/><path fill="#b7b7b8" d="M500 400h100v100H500z"/><path fill="#a09e9e" d="M600 400h100v100H600z"/><path fill="#c9c9c9" d="M700 400h100v100H700z"/><path fill="#e0e0e0" d="M0 500h100v100H0z"/><path fill="#dedede" d="M100 500h100v100H100z"/><path fill="#e1e5e6" d="M200 500h100v100H200z"/><path fill="#e2e4e5" d="M300 500h100v100H300z"/><path fill="#e7e7e7" d="M400 500h100v100H400z"/><path fill="#e4e3e3" d="M500 500h100v100H500z"/><path fill="#e9e9e9" d="M600 500h100v100H600z"/><path fill="#ddd" d="M700 500h100v100H700z"/></svg>