<svg xmlns="http://www.w3.org/2000/svg" viewBox="0 0 800 600"><defs/><path fill="#4c524f" d="M0 0h100v100H0z"/><path fill="#666b66" d="M100 0h100v100H100z"/><path fill="#7b7b6d" d="M200 0h100v100H200z"/><path fill="#888776" d="M300 0h100v100H300z"/><path fill="#878b7a" d="M400 0h100v100H400z"/><path fill="#808275" d="M500 0h100v100H500z"/><path fill="#55524d" d="M600 0h100v100H600z"/><path fill="#644441" d="M700 0h100v100H700z"/><path fill="#818375" d="M0 100h100v100H0z"/><path fill="#b2ae9c" d="M100 100h100v100H100z"/><path fill="#a09a83" d="M200 100h100v100H200z"/><path fill="#927564" d="M300 100h100v100H300z"/><path fill="#a17563" d="M400 100h100v100H400z"/><path fill="#80664f" d="M500 100h100v100H500z"/><path fill="#4a4032" d="M600 100h100v100H600z"/><path fill="#584846" d="M700 100h100v100H700z"/><path fill="#73756d" d="M0 200h100v100H0z"/><path fill="#88837a" d="M100 200h100v100H100z"/><path fill="#73473d" d="M200 200h100v100H200z"/><path fill="#a15b4e" d="M300 200h100v100H300z"/><path fill="#a55547" d="M400 200h100v100H400z"/><path fill="#5b3021" d="M500 200h100v100H500z"/><path fill="#4d5048" d="M600 200h100v100H600z"/><path fill="#48524e" d="M700 200h100v100H700z"/><path fill="#686e6c" d="M0 300h100v100H0z"/><path fill="#a0938b" d="M100 300h100v100H100z"/><path fill="#596043" d="M200 300h100v100H200z"/><path fill="#694a3c" d="M300 300h100v100H300z"/><path fill="#ab7b6b" d="M400 300h100v100H400z"/><path fill="#797b6a" d="M500 300h100v100H500z"/><path fill="#5f544e" d="M600 300h100v100H600z"/><path fill="#3e4340" d="M700 300h100v100H700z"/><path fill="#757c78" d="M0 400h100v100H0z"/><path fill="#8c7f7a" d="M100 400h100v100H100z"/><path fill="#5e6a4d" d="M200 400h100v100H200z"/><path fill="#445e40" d="M300 400h100v100H300z"/><path fill="#879179" d="M400 400h100v100H400z"/><path fill="#7f9179" d="M500 400h100v100H500z"/><path fill="#a5b1a3" d="M600 400h100v100H600z"/><path fill="#91968f" d="M700 400h100v100H700z"/><path fill="#474945" d="M0 500h100v100H0z"/><path fill="#51514c" d="M100 500h100v100H100z"/><path fill="#6a4e48" d="M200 500h100v100H200z"/><path fill="#86645b" d="M300 500h100v100H300z"/><path fill="#88635a" d="M400 500h100v100H400z"/><path fill="#674d46" d="M500 500h100v100H500z"/><path fill="#8e958f" d="M600 500h100v100H600z"/><path fill="#898885" d="M700 500h100v100H700z"/></svg>