<svg xmlns="http://www.w3.org/2000/svg" viewBox="0 0 800 600"><defs/><path fill="#4f4f63" d="M0 0h100v100H0z"/><path fill="#101016" d="M100 0h100v100H100z"/><path fill="#211c2c" d="M200 0h100v100H200z"/><path fill="#353144" d="M300 0h100v100H300z"/><path fill="#2a273e" d="M400 0h100v100H400z"/><path fill="#212137" d="M500 0h100v100H500zm100 0h100v100H600z"/><path fill="#232032" d="M700 0h100v100H700z"/><path fill="#222125" d="M0 100h100v100H0z"/><path fill="#0c0a19" d="M100 100h100v100H100z"/><path fill="#5a526a" d="M200 100h100v100H200z"/><path fill="#998c89" d="M300 100h100v100H300z"/><path fill="#989289" d="M400 100h100v100H400z"/><path fill="#988e84" d="M500 100h100v100H500z"/><path fill="#867973" d="M600 100h100v100H600z"/><path fill="#6e6965" d="M700 100h100v100H700z"/><path fill="#181619" d="M0 200h100v100H0z"/><path fill="#131225" d="M100 200h100v100H100z"/><path fill="#a198a2" d="M200 200h100v100H200z"/><path fill="#97827f" d="M300 200h100v100H300z"/><path fill="#bcb1a4" d="M400 200h100v100H400z"/><path fill="#eaddcb" d="M500 200h100v100H500z"/><path fill="#c8c8ad" d="M600 200h100v100H600z"/><path fill="#dbd0bb" d="M700 200h100v100H700z"/><path fill="#2e2428" d="M0 300h100v100H0z"/><path fill="#1b1c2b" d="M100 300h100v100H100z"/><path fill="#aca5a0" d="M200 300h100v100H200z"/><path fill="#88838b" d="M300 300h100v100H300z"/><path fill="#878484" d="M400 300h100v100H400z"/><path fill="#f1ebda" d="M500 300h100v100H500z"/><path fill="#cbc7b9" d="M600 300h100v100H600z"/><path fill="#dfd4c1" d="M700 300h100v100H700z"/><path fill="#332528" d="M0 400h100v100H0z"/><path fill="#2a2531" d="M100 400h100v100H100z"/><path fill="#201e2d" d="M200 400h100v100H200z"/><path fill="#252336" d="M300 400h100v100H300z"/><path fill="#3a3845" d="M400 400h100v100H400z"/><path fill="#a19d9a" d="M500 400h100v100H500z"/><path fill="#c5beb4" d="M600 400h100v100H600z"/><path fill="#e8e0cd" d="M700 400h100v100H700z"/><path fill="#2d1f20" d="M0 500h100v100H0z"/><path fill="#1e191e" d="M100 500h100v100H100z"/><path fill="#05060b" d="M200 500h100v100H200z"/><path fill="#23212c" d="M300 500h100v100H300z"/><path fill="#262430" d="M400 500h100v100H400z"/><path fill="#181524" d="M500 500h100v100H500z"/><path fill="#25222e" d="M600 500h100v100H600z"/><path fill="#433e44" d="M700 500h100v100H700z"/></svg>