<svg xmlns="http://www.w3.org/2000/svg" viewBox="0 0 800 400"><defs/><path fill="#708686" d="M0 0h100v100H0z"/><path fill="#788f71" d="M100 0h100v100H100z"/><path fill="#4d6c6d" d="M200 0h100v100H200z"/><path fill="#353c61" d="M300 0h100v100H300z"/><path fill="#525e69" d="M400 0h100v100H400z"/><path fill="#517671" d="M500 0h100v100H500z"/><path fill="#49746c" d="M600 0h100v100H600z"/><path fill="#6a7465" d="M700 0h100v100H700z"/><path fill="#7c8e8c" d="M0 100h100v100H0z"/><path fill="#567553" d="M100 100h100v100H100z"/><path fill="#1e4b4f" d="M200 100h100v100H200z"/><path fill="#4f4125" d="M300 100h100v100H300z"/><path fill="#653823" d="M400 100h100v100H400z"/><path fill="#483c31" d="M500 100h100v100H500z"/><path fill="#547a42" d="M600 100h100v100H600z"/><path fill="#626547" d="M700 100h100v100H700z"/><path fill="#a6b4ae" d="M0 200h100v100H0z"/><path fill="#587351" d="M100 200h100v100H100z"/><path fill="#21352a" d="M200 200h100v100H200z"/><path fill="#395b2a" d="M300 200h100v100H300z"/><path fill="#574d29" d="M400 200h100v100H400z"/><path fill="#4b3424" d="M500 200h100v100H500z"/><path fill="#0d2c28" d="M600 200h100v100H600z"/><path fill="#5e6257" d="M700 200h100v100H700z"/><path fill="#ccd5ce" d="M0 300h100v100H0z"/><path fill="#606851" d="M100 300h100v100H100z"/><path fill="#3f3b2e" d="M200 300h100v100H200z"/><path fill="#4a7851" d="M300 300h100v100H300z"/><path fill="#485a45" d="M400 300h100v100H400z"/><path fill="#3f433c" d="M500 300h100v100H500z"/><path fill="#323224" d="M600 300h100v100H600z"/><path fill="#85827a" d="M700 300h100v100H700z"/></svg>