<svg xmlns="http://www.w3.org/2000/svg" viewBox="0 0 800 500"><defs/><path fill="#fadfb4" d="M0 0h100v100H0z"/><path fill="#f5ca8d" d="M100 0h100v100H100z"/><path fill="#c6e6ca" d="M200 0h100v100H200z"/><path fill="#b7efe9" d="M300 0h100v100H300z"/><path fill="#dcdcc5" d="M400 0h100v100H400z"/><path fill="#e0e2c7" d="M500 0h100v100H500z"/><path fill="#dce1c3" d="M600 0h100v100H600z"/><path fill="#e1deb6" d="M700 0h100v100H700z"/><path fill="#f8ca82" d="M0 100h100v100H0z"/><path fill="#e7a143" d="M100 100h100v100H100z"/><path fill="#9d956c" d="M200 100h100v100H200z"/><path fill="#9bceb7" d="M300 100h100v100H300z"/><path fill="#c0dab6" d="M400 100h100v100H400z"/><path fill="#82e5cc" d="M500 100h100v100H500z"/><path fill="#87d79f" d="M600 100h100v100H600z"/><path fill="#b7c973" d="M700 100h100v100H700z"/><path fill="#f8cb86" d="M0 200h100v100H0z"/><path fill="#d59e51" d="M100 200h100v100H100z"/><path fill="#b5633e" d="M200 200h100v100H200z"/><path fill="#b1977a" d="M300 200h100v100H300z"/><path fill="#dce2ac" d="M400 200h100v100H400z"/><path fill="#a5e0b6" d="M500 200h100v100H500z"/><path fill="#a9d3b1" d="M600 200h100v100H600z"/><path fill="#bfcd86" d="M700 200h100v100H700z"/><path fill="#f4c682" d="M0 300h100v100H0z"/><path fill="#dc9c47" d="M100 300h100v100H100z"/><path fill="#c49954" d="M200 300h100v100H200z"/><path fill="#d4b566" d="M300 300h100v100H300z"/><path fill="#8b9174" d="M400 300h100v100H400z"/><path fill="#b2a959" d="M500 300h100v100H500z"/><path fill="#fec071" d="M600 300h100v100H600z"/><path fill="#d3ba7c" d="M700 300h100v100H700z"/><path fill="#efc381" d="M0 400h100v100H0z"/><path fill="#edb057" d="M100 400h100v100H100z"/><path fill="#dead5b" d="M200 400h100v100H200z"/><path fill="#f0b45e" d="M300 400h100v100H300z"/><path fill="#ba9276" d="M400 400h100v100H400z"/><path fill="#c8ad7f" d="M500 400h100v100H500z"/><path fill="#f4bb67" d="M600 400h100v100H600z"/><path fill="#ebb665" d="M700 400h100v100H700z"/></svg>