<svg xmlns="http://www.w3.org/2000/svg" viewBox="0 0 800 400"><defs/><path fill="#3f302a" d="M0 0h100v100H0z"/><path fill="#322420" d="M100 0h100v100H100z"/><path fill="#88827b" d="M200 0h100v100H200z"/><path fill="#c2b9b2" d="M300 0h100v100H300z"/><path fill="#ccbfbd" d="M400 0h100v100H400z"/><path fill="#beb3af" d="M500 0h100v100H500z"/><path fill="#e9e3df" d="M600 0h100v100H600z"/><path fill="#fffffc" d="M700 0h100v100H700z"/><path fill="#d0c7c1" d="M0 100h100v100H0z"/><path fill="#dcdcd8" d="M100 100h100v100H100z"/><path fill="#d5d6d8" d="M200 100h100v100H200z"/><path fill="#a99792" d="M300 100h100v100H300z"/><path fill="#ad918d" d="M400 100h100v100H400z"/><path fill="#cebabb" d="M500 100h100v100H500z"/><path fill="#f0e4e4" d="M600 100h100v100H600z"/><path fill="#f9f6f2" d="M700 100h100v100H700z"/><path fill="#d1b3b5" d="M0 200h100v100H0z"/><path fill="#d0cac8" d="M100 200h100v100H100z"/><path fill="#b6b5b3" d="M200 200h100v100H200z"/><path fill="#b8b1af" d="M300 200h100v100H300z"/><path fill="#b7a5a8" d="M400 200h100v100H400z"/><path fill="#ccb8c1" d="M500 200h100v100H500z"/><path fill="#ecdde4" d="M600 200h100v100H600z"/><path fill="#f0edea" d="M700 200h100v100H700z"/><path fill="#c5b7ad" d="M0 300h100v100H0z"/><path fill="#ccc1bb" d="M100 300h100v100H100z"/><path fill="#b2bab7" d="M200 300h100v100H200z"/><path fill="#d8c5c1" d="M300 300h100v100H300z"/><path fill="#d1c1c0" d="M400 300h100v100H400z"/><path fill="#b1a9ad" d="M500 300h100v100H500z"/><path fill="#cac3cc" d="M600 300h100v100H600z"/><path fill="#ebe9ea" d="M700 300h100v100H700z"/></svg>