<svg xmlns="http://www.w3.org/2000/svg" viewBox="0 0 800 500"><defs/><path fill="#dc9a70" d="M0 0h100v100H0z"/><path fill="#9c6549" d="M100 0h100v100H100z"/><path fill="#b97f5f" d="M200 0h100v100H200z"/><path fill="#dd9970" d="M300 0h100v100H300z"/><path fill="#ca9178" d="M400 0h100v100H400z"/><path fill="#cf8a67" d="M500 0h100v100H500z"/><path fill="#e29666" d="M600 0h100v100H600z"/><path fill="#eab490" d="M700 0h100v100H700z"/><path fill="#c67b4b" d="M0 100h100v100H0z"/><path fill="#8b4721" d="M100 100h100v100H100z"/><path fill="#b56939" d="M200 100h100v100H200z"/><path fill="#ac694d" d="M300 100h100v100H300z"/><path fill="#b07a69" d="M400 100h100v100H400z"/><path fill="#c87546" d="M500 100h100v100H500z"/><path fill="#bb612b" d="M600 100h100v100H600z"/><path fill="#d08d66" d="M700 100h100v100H700z"/><path fill="#be7b4d" d="M0 200h100v100H0z"/><path fill="#9d4f22" d="M100 200h100v100H100z"/><path fill="#bf6e3d" d="M200 200h100v100H200z"/><path fill="#99624a" d="M300 200h100v100H300z"/><path fill="#a66645" d="M400 200h100v100H400z"/><path fill="#d47c50" d="M500 200h100v100H500z"/><path fill="#b86a47" d="M600 200h100v100H600z"/><path fill="#d28b5e" d="M700 200h100v100H700z"/><path fill="#ab6942" d="M0 300h100v100H0z"/><path fill="#843e1e" d="M100 300h100v100H100z"/><path fill="#955032" d="M200 300h100v100H200z"/><path fill="#7d472d" d="M300 300h100v100H300z"/><path fill="#915132" d="M400 300h100v100H400z"/><path fill="#bd6b40" d="M500 300h100v100H500z"/><path fill="#a85b3f" d="M600 300h100v100H600z"/><path fill="#aa745d" d="M700 300h100v100H700z"/><path fill="#cd996a" d="M0 400h100v100H0z"/><path fill="#9d603f" d="M100 400h100v100H100z"/><path fill="#9a5a43" d="M200 400h100v100H200z"/><path fill="#94563d" d="M300 400h100v100H300z"/><path fill="#9e6044" d="M400 400h100v100H400z"/><path fill="#a96a4d" d="M500 400h100v100H500z"/><path fill="#b77750" d="M600 400h100v100H600z"/><path fill="#8d5d53" d="M700 400h100v100H700z"/></svg>