<svg xmlns="http://www.w3.org/2000/svg" viewBox="0 0 800 600"><defs/><path fill="#e5e6e3" d="M0 0h100v100H0z"/><path fill="#d9dcd8" d="M100 0h100v100H100z"/><path fill="#d7d7d3" d="M200 0h100v100H200z"/><path fill="#d6d8d1" d="M300 0h100v100H300z"/><path fill="#dedbd5" d="M400 0h100v100H400zm100 0h100v100H500z"/><path fill="#e9e5da" d="M600 0h100v100H600z"/><path fill="#f1efe6" d="M700 0h100v100H700z"/><path fill="#767969" d="M0 100h100v100H0z"/><path fill="#39422e" d="M100 100h100v100H100z"/><path fill="#35351c" d="M200 100h100v100H200z"/><path fill="#3b3f1a" d="M300 100h100v100H300z"/><path fill="#66572d" d="M400 100h100v100H400z"/><path fill="#816d38" d="M500 100h100v100H500z"/><path fill="#a29143" d="M600 100h100v100H600z"/><path fill="#bfb277" d="M700 100h100v100H700z"/><path fill="#808271" d="M0 200h100v100H0z"/><path fill="#353924" d="M100 200h100v100H100z"/><path fill="#343618" d="M200 200h100v100H200z"/><path fill="#6c6427" d="M300 200h100v100H300z"/><path fill="#98772f" d="M400 200h100v100H400z"/><path fill="#856e34" d="M500 200h100v100H500z"/><path fill="#8a8038" d="M600 200h100v100H600z"/><path fill="#cdc487" d="M700 200h100v100H700z"/><path fill="#868878" d="M0 300h100v100H0z"/><path fill="#434323" d="M100 300h100v100H100z"/><path fill="#5d592b" d="M200 300h100v100H200z"/><path fill="#8b773b" d="M300 300h100v100H300z"/><path fill="#927032" d="M400 300h100v100H400z"/><path fill="#906d3a" d="M500 300h100v100H500z"/><path fill="#7e6337" d="M600 300h100v100H600z"/><path fill="#c7b783" d="M700 300h100v100H700z"/><path fill="#757a67" d="M0 400h100v100H0z"/><path fill="#424114" d="M100 400h100v100H100z"/><path fill="#645d20" d="M200 400h100v100H200z"/><path fill="#7e612e" d="M300 400h100v100H300z"/><path fill="#917947" d="M400 400h100v100H400z"/><path fill="#8e6a35" d="M500 400h100v100H500z"/><path fill="#7d6127" d="M600 400h100v100H600z"/><path fill="#6b5e2a" d="M700 400h100v100H700z"/><path fill="#c1c1b7" d="M0 500h100v100H0z"/><path fill="#a4a38f" d="M100 500h100v100H100z"/><path fill="#b5b398" d="M200 500h100v100H200z"/><path fill="#c0b397" d="M300 500h100v100H300z"/><path fill="#d2bd9d" d="M400 500h100v100H400z"/><path fill="#b8a994" d="M500 500h100v100H500z"/><path fill="#b8ac95" d="M600 500h100v100H600z"/><path fill="#a4a590" d="M700 500h100v100H700z"/></svg>