<svg xmlns="http://www.w3.org/2000/svg" viewBox="0 0 800 500"><defs/><path fill="#a3c28b" d="M0 0h100v100H0z"/><path fill="#8db66c" d="M100 0h100v100H100z"/><path fill="#8fb273" d="M200 0h100v100H200z"/><path fill="#8baa72" d="M300 0h100v100H300z"/><path fill="#829c6d" d="M400 0h100v100H400z"/><path fill="#90b176" d="M500 0h100v100H500z"/><path fill="#8dae72" d="M600 0h100v100H600z"/><path fill="#a9c691" d="M700 0h100v100H700z"/><path fill="#75a24e" d="M0 100h100v100H0z"/><path fill="#55981e" d="M100 100h100v100H100z"/><path fill="#4e871f" d="M200 100h100v100H200z"/><path fill="#4a821d" d="M300 100h100v100H300z"/><path fill="#3b6817" d="M400 100h100v100H400z"/><path fill="#4a811e" d="M500 100h100v100H500z"/><path fill="#468315" d="M600 100h100v100H600z"/><path fill="#648d42" d="M700 100h100v100H700z"/><path fill="#7aa359" d="M0 200h100v100H0z"/><path fill="#589428" d="M100 200h100v100H100z"/><path fill="#4c7728" d="M200 200h100v100H200z"/><path fill="#223512" d="M300 200h100v100H300z"/><path fill="#457321" d="M400 200h100v100H400z"/><path fill="#619a33" d="M500 200h100v100H500z"/><path fill="#5a9729" d="M600 200h100v100H600z"/><path fill="#739c51" d="M700 200h100v100H700z"/><path fill="#7bab54" d="M0 300h100v100H0z"/><path fill="#4e8920" d="M100 300h100v100H100z"/><path fill="#528926" d="M200 300h100v100H200z"/><path fill="#203310" d="M300 300h100v100H300z"/><path fill="#6b815a" d="M400 300h100v100H400z"/><path fill="#6ea640" d="M500 300h100v100H500z"/><path fill="#53931f" d="M600 300h100v100H600z"/><path fill="#729f4e" d="M700 300h100v100H700z"/><path fill="#8eb86c" d="M0 400h100v100H0z"/><path fill="#71a745" d="M100 400h100v100H100z"/><path fill="#78ac4e" d="M200 400h100v100H200z"/><path fill="#608342" d="M300 400h100v100H300z"/><path fill="#82a16a" d="M400 400h100v100H400z"/><path fill="#86b65f" d="M500 400h100v100H500z"/><path fill="#6ba33e" d="M600 400h100v100H600z"/><path fill="#86ae67" d="M700 400h100v100H700z"/></svg>