<svg xmlns="http://www.w3.org/2000/svg" viewBox="0 0 800 500"><defs/><path fill="#d4d6b2" d="M0 0h100v100H0z"/><path fill="#d2d2be" d="M100 0h100v100H100z"/><path fill="#d6d7ca" d="M200 0h100v100H200z"/><path fill="#dbd9c7" d="M300 0h100v100H300z"/><path fill="#dbdcc9" d="M400 0h100v100H400z"/><path fill="#dadacb" d="M500 0h100v100H500z"/><path fill="#d2d1c7" d="M600 0h100v100H600z"/><path fill="#d0d5d0" d="M700 0h100v100H700z"/><path fill="#d5ce38" d="M0 100h100v100H0z"/><path fill="#beb561" d="M100 100h100v100H100z"/><path fill="#ccc26c" d="M200 100h100v100H200z"/><path fill="#ab9b4c" d="M300 100h100v100H300z"/><path fill="#cfbf60" d="M400 100h100v100H400z"/><path fill="#c8c262" d="M500 100h100v100H500z"/><path fill="#bba97d" d="M600 100h100v100H600z"/><path fill="#cfb7a8" d="M700 100h100v100H700z"/><path fill="#d2cf50" d="M0 200h100v100H0z"/><path fill="#b6bd75" d="M100 200h100v100H100z"/><path fill="#969665" d="M200 200h100v100H200z"/><path fill="#c3a36d" d="M300 200h100v100H300z"/><path fill="#d1bd69" d="M400 200h100v100H400z"/><path fill="#b9975c" d="M500 200h100v100H500z"/><path fill="#d0bb75" d="M600 200h100v100H600z"/><path fill="#cca49b" d="M700 200h100v100H700z"/><path fill="#cac95f" d="M0 300h100v100H0z"/><path fill="#a5a478" d="M100 300h100v100H100z"/><path fill="#967469" d="M200 300h100v100H200z"/><path fill="#bb8876" d="M300 300h100v100H300z"/><path fill="#d2baa8" d="M400 300h100v100H400z"/><path fill="#a8686f" d="M500 300h100v100H500z"/><path fill="#996850" d="M600 300h100v100H600z"/><path fill="#bf9673" d="M700 300h100v100H700z"/><path fill="#bbbe9b" d="M0 400h100v100H0z"/><path fill="#aca09a" d="M100 400h100v100H100z"/><path fill="#aa969b" d="M200 400h100v100H200z"/><path fill="#b6abac" d="M300 400h100v100H300z"/><path fill="#c4bdc0" d="M400 400h100v100H400z"/><path fill="#a8999d" d="M500 400h100v100H500z"/><path fill="#a5918f" d="M600 400h100v100H600z"/><path fill="#b49992" d="M700 400h100v100H700z"/></svg>