<svg xmlns="http://www.w3.org/2000/svg" viewBox="0 0 800 500"><defs/><path fill="#c3bab0" d="M0 0h100v100H0z"/><path fill="#a99e91" d="M100 0h100v100H100z"/><path fill="#9b988f" d="M200 0h100v100H200z"/><path fill="#a4988c" d="M300 0h100v100H300z"/><path fill="#a99f93" d="M400 0h100v100H400z"/><path fill="#b7ada1" d="M500 0h100v100H500z"/><path fill="#dacfbb" d="M600 0h100v100H600z"/><path fill="#f1e6d6" d="M700 0h100v100H700z"/><path fill="#8c7a66" d="M0 100h100v100H0z"/><path fill="#5c4429" d="M100 100h100v100H100z"/><path fill="#3f3525" d="M200 100h100v100H200z"/><path fill="#553c26" d="M300 100h100v100H300z"/><path fill="#5e4832" d="M400 100h100v100H400z"/><path fill="#715c47" d="M500 100h100v100H500z"/><path fill="#aa957a" d="M600 100h100v100H600z"/><path fill="#e3cab6" d="M700 100h100v100H700z"/><path fill="#998477" d="M0 200h100v100H0z"/><path fill="#725442" d="M100 200h100v100H100z"/><path fill="#463c36" d="M200 200h100v100H200z"/><path fill="#503e35" d="M300 200h100v100H300z"/><path fill="#7c6454" d="M400 200h100v100H400z"/><path fill="#7b6656" d="M500 200h100v100H500z"/><path fill="#957f6d" d="M600 200h100v100H600z"/><path fill="#ccb7a6" d="M700 200h100v100H700z"/><path fill="#98897c" d="M0 300h100v100H0z"/><path fill="#664f3a" d="M100 300h100v100H100z"/><path fill="#483f30" d="M200 300h100v100H200z"/><path fill="#484035" d="M300 300h100v100H300z"/><path fill="#615644" d="M400 300h100v100H400z"/><path fill="#685d4b" d="M500 300h100v100H500z"/><path fill="#826f53" d="M600 300h100v100H600z"/><path fill="#aa947e" d="M700 300h100v100H700z"/><path fill="#b7aea3" d="M0 400h100v100H0z"/><path fill="#968679" d="M100 400h100v100H100z"/><path fill="#968c79" d="M200 400h100v100H200z"/><path fill="#a09582" d="M300 400h100v100H300z"/><path fill="#a59c87" d="M400 400h100v100H400z"/><path fill="#a2998a" d="M500 400h100v100H500z"/><path fill="#a59b8a" d="M600 400h100v100H600z"/><path fill="#b9ab9e" d="M700 400h100v100H700z"/></svg>