<svg xmlns="http://www.w3.org/2000/svg" viewBox="0 0 800 400"><defs/><path fill="#41bad6" d="M0 0h100v100H0z"/><path fill="#89969d" d="M100 0h100v100H100z"/><path fill="#4cadc8" d="M200 0h100v100H200z"/><path fill="#47c0e8" d="M300 0h100v100H300z"/><path fill="#33c7fa" d="M400 0h100v100H400z"/><path fill="#1dc4f5" d="M500 0h100v100H500z"/><path fill="#5ac6c0" d="M600 0h100v100H600z"/><path fill="#c8ce81" d="M700 0h100v100H700z"/><path fill="#4fa1c1" d="M0 100h100v100H0z"/><path fill="#7b8e96" d="M100 100h100v100H100z"/><path fill="#65735b" d="M200 100h100v100H200z"/><path fill="#5ea3b6" d="M300 100h100v100H300z"/><path fill="#45b4de" d="M400 100h100v100H400z"/><path fill="#478cc2" d="M500 100h100v100H500z"/><path fill="#55a3b2" d="M600 100h100v100H600z"/><path fill="#aaaea9" d="M700 100h100v100H700z"/><path fill="#6c9fb2" d="M0 200h100v100H0z"/><path fill="#917c7f" d="M100 200h100v100H100z"/><path fill="#456071" d="M200 200h100v100H200z"/><path fill="#747f80" d="M300 200h100v100H300z"/><path fill="#7289c9" d="M400 200h100v100H400z"/><path fill="#435691" d="M500 200h100v100H500z"/><path fill="#115fbd" d="M600 200h100v100H600z"/><path fill="#aab795" d="M700 200h100v100H700z"/><path fill="#8f9089" d="M0 300h100v100H0z"/><path fill="#a87450" d="M100 300h100v100H100z"/><path fill="#4d627e" d="M200 300h100v100H200z"/><path fill="#8a646b" d="M300 300h100v100H300z"/><path fill="#b37786" d="M400 300h100v100H400z"/><path fill="#96756a" d="M500 300h100v100H500z"/><path fill="#776053" d="M600 300h100v100H600z"/><path fill="#a88660" d="M700 300h100v100H700z"/></svg>