<svg xmlns="http://www.w3.org/2000/svg" viewBox="0 0 800 800"><defs/><path fill="#d8d8d6" d="M0 0h100v100H0z"/><path fill="#d5d3cc" d="M100 0h100v100H100z"/><path fill="#e3e0d0" d="M200 0h100v100H200z"/><path fill="#eae9e5" d="M300 0h100v100H300z"/><path fill="#e4e3df" d="M400 0h100v100H400z"/><path fill="#f7f6f0" d="M500 0h100v100H500z"/><path fill="#fbfafc" d="M600 0h100v100H600z"/><path fill="#f9f8f8" d="M700 0h100v100H700z"/><path fill="#e8e6dd" d="M0 100h100v100H0z"/><path fill="#ededde" d="M100 100h100v100H100z"/><path fill="#ffffed" d="M200 100h100v100H200z"/><path fill="#fefdf6" d="M300 100h100v100H300z"/><path fill="#e6e4d5" d="M400 100h100v100H400z"/><path fill="#f5f6ee" d="M500 100h100v100H500z"/><path fill="#fbfdfb" d="M600 100h100v100H600z"/><path fill="#f6f9f7" d="M700 100h100v100H700z"/><path fill="#fdfbf6" d="M0 200h100v100H0z"/><path fill="#e5f4ec" d="M100 200h100v100H100z"/><path fill="#c9e8e7" d="M200 200h100v100H200z"/><path fill="#f7f9eb" d="M300 200h100v100H300z"/><path fill="#fcfffd" d="M400 200h100v100H400z"/><path fill="#c3ccc9" d="M500 200h100v100H500z"/><path fill="#c1ccc4" d="M600 200h100v100H600z"/><path fill="#f0f6f0" d="M700 200h100v100H700z"/><path fill="#f9f9f9" d="M0 300h100v100H0z"/><path fill="#f6fbfb" d="M100 300h100v100H100z"/><path fill="#f2f9f6" d="M200 300h100v100H200z"/><path fill="#fffffb" d="M300 300h100v100H300z"/><path fill="#fdffff" d="M400 300h100v100H400z"/><path fill="#f2f4f7" d="M500 300h100v100H500z"/><path fill="#f5f9fc" d="M600 300h100v100H600z"/><path fill="#f8fbfa" d="M700 300h100v100H700z"/><path fill="#dddbd1" d="M0 400h100v100H0z"/><path fill="#eeebda" d="M100 400h100v100H100z"/><path fill="#fff" d="M200 400h100v100H200z"/><path fill="#e8e7e3" d="M300 400h100v100H300z"/><path fill="#dbd7bb" d="M400 400h100v100H400z"/><path fill="#efe9ca" d="M500 400h100v100H500z"/><path fill="#ede2aa" d="M600 400h100v100H600z"/><path fill="#efece0" d="M700 400h100v100H700z"/><path fill="#e7ece7" d="M0 500h100v100H0z"/><path fill="#ced3cd" d="M100 500h100v100H100z"/><path fill="#d1d6d7" d="M200 500h100v100H200z"/><path fill="#e4ecec" d="M300 500h100v100H300z"/><path fill="#dbd3b0" d="M400 500h100v100H400z"/><path fill="#b8af75" d="M500 500h100v100H500z"/><path fill="#baa844" d="M600 500h100v100H600z"/><path fill="#dfd9b8" d="M700 500h100v100H700z"/><path fill="#ecf4f5" d="M0 600h100v100H0z"/><path fill="#c8d0d2" d="M100 600h100v100H100z"/><path fill="#c2c8c7" d="M200 600h100v100H200z"/><path fill="#e8f3f4" d="M300 600h100v100H300z"/><path fill="#e1e0df" d="M400 600h100v100H400z"/><path fill="#b3b1a5" d="M500 600h100v100H500z"/><path fill="#bfbba4" d="M600 600h100v100H600z"/><path fill="#d1d0cb" d="M700 600h100v100H700z"/><path fill="#e8f0f0" d="M0 700h100v100H0z"/><path fill="#f0f8f8" d="M100 700h100v100H100z"/><path fill="#f2f9f9" d="M200 700h100v100H200z"/><path fill="#e9f3f2" d="M300 700h100v100H300z"/><path fill="#f0f1f1" d="M400 700h100v100H400z"/><path fill="#dedee0" d="M500 700h100v100H500z"/><path fill="#dddee3" d="M600 700h100v100H600z"/><path fill="#ddddde" d="M700 700h100v100H700z"/></svg>