<svg xmlns="http://www.w3.org/2000/svg" viewBox="0 0 800 500"><defs/><path fill="#beac95" d="M0 0h100v100H0z"/><path fill="#c2afa0" d="M100 0h100v100H100z"/><path fill="#baa69d" d="M200 0h100v100H200z"/><path fill="#9d8882" d="M300 0h100v100H300z"/><path fill="#a49089" d="M400 0h100v100H400z"/><path fill="#a18c80" d="M500 0h100v100H500z"/><path fill="#97836f" d="M600 0h100v100H600z"/><path fill="#8b7f67" d="M700 0h100v100H700z"/><path fill="#bcaa96" d="M0 100h100v100H0z"/><path fill="#b29e94" d="M100 100h100v100H100z"/><path fill="#968576" d="M200 100h100v100H200z"/><path fill="#8b6258" d="M300 100h100v100H300z"/><path fill="#954043" d="M400 100h100v100H400z"/><path fill="#7d564d" d="M500 100h100v100H500z"/><path fill="#744620" d="M600 100h100v100H600z"/><path fill="#544a33" d="M700 100h100v100H700z"/><path fill="#b4a08c" d="M0 200h100v100H0z"/><path fill="#a39088" d="M100 200h100v100H100z"/><path fill="#6e5c53" d="M200 200h100v100H200z"/><path fill="#816956" d="M300 200h100v100H300z"/><path fill="#936763" d="M400 200h100v100H400z"/><path fill="#7b605e" d="M500 200h100v100H500z"/><path fill="#7e5c3c" d="M600 200h100v100H600z"/><path fill="#816c45" d="M700 200h100v100H700z"/><path fill="#c0af9d" d="M0 300h100v100H0z"/><path fill="#9a8c88" d="M100 300h100v100H100z"/><path fill="#7e707b" d="M200 300h100v100H200z"/><path fill="#857365" d="M300 300h100v100H300z"/><path fill="#5c5445" d="M400 300h100v100H400z"/><path fill="#82766e" d="M500 300h100v100H500z"/><path fill="#6a6756" d="M600 300h100v100H600z"/><path fill="#7a6951" d="M700 300h100v100H700z"/><path fill="#baac98" d="M0 400h100v100H0z"/><path fill="#a49891" d="M100 400h100v100H100z"/><path fill="#9d9295" d="M200 400h100v100H200z"/><path fill="#8d8180" d="M300 400h100v100H300z"/><path fill="#5e585b" d="M400 400h100v100H400z"/><path fill="#978a83" d="M500 400h100v100H500z"/><path fill="#917c64" d="M600 400h100v100H600z"/><path fill="#93856c" d="M700 400h100v100H700z"/></svg>