<svg xmlns="http://www.w3.org/2000/svg" viewBox="0 0 800 400"><defs/><path fill="#4b7292" d="M0 0h100v100H0z"/><path fill="#5e90aa" d="M100 0h100v100H100z"/><path fill="#78b4c1" d="M200 0h100v100H200z"/><path fill="#7aa5aa" d="M300 0h100v100H300z"/><path fill="#6e9dac" d="M400 0h100v100H400z"/><path fill="#70a0ad" d="M500 0h100v100H500z"/><path fill="#63858f" d="M600 0h100v100H600z"/><path fill="#517288" d="M700 0h100v100H700z"/><path fill="#3f5876" d="M0 100h100v100H0z"/><path fill="#6ab1cc" d="M100 100h100v100H100z"/><path fill="#6accf7" d="M200 100h100v100H200z"/><path fill="#7dd7f5" d="M300 100h100v100H300z"/><path fill="#71cff6" d="M400 100h100v100H400z"/><path fill="#80e2ff" d="M500 100h100v100H500z"/><path fill="#72b3c6" d="M600 100h100v100H600z"/><path fill="#558199" d="M700 100h100v100H700z"/><path fill="#3f4f64" d="M0 200h100v100H0z"/><path fill="#60a6c5" d="M100 200h100v100H100z"/><path fill="#539ec8" d="M200 200h100v100H200z"/><path fill="#457aa5" d="M300 200h100v100H300z"/><path fill="#45617b" d="M400 200h100v100H400z"/><path fill="#447ba4" d="M500 200h100v100H500z"/><path fill="#58a6cf" d="M600 200h100v100H600z"/><path fill="#4e7f9c" d="M700 200h100v100H700z"/><path fill="#383d4c" d="M0 300h100v100H0z"/><path fill="#4f90b5" d="M100 300h100v100H100z"/><path fill="#5bb3df" d="M200 300h100v100H200z"/><path fill="#445f75" d="M300 300h100v100H300z"/><path fill="#393945" d="M400 300h100v100H400z"/><path fill="#3c4d61" d="M500 300h100v100H500z"/><path fill="#55a5d3" d="M600 300h100v100H600z"/><path fill="#477a9c" d="M700 300h100v100H700z"/></svg>