<svg xmlns="http://www.w3.org/2000/svg" viewBox="0 0 800 600"><defs/><path fill="#fae108" d="M0 0h100v100H0z"/><path fill="#fbe000" d="M100 0h100v100H100z"/><path fill="#f2e669" d="M200 0h100v100H200z"/><path fill="#c8def4" d="M300 0h100v100H300z"/><path fill="#c2e3f3" d="M400 0h100v100H400z"/><path fill="#c7e4ef" d="M500 0h100v100H500z"/><path fill="#9b9d96" d="M600 0h100v100H600z"/><path fill="#b3bfbe" d="M700 0h100v100H700z"/><path fill="#fde406" d="M0 100h100v100H0z"/><path fill="#ffe500" d="M100 100h100v100H100z"/><path fill="#f1e865" d="M200 100h100v100H200z"/><path fill="#c6cddf" d="M300 100h100v100H300z"/><path fill="#c3d9e5" d="M400 100h100v100H400z"/><path fill="#c5e4ef" d="M500 100h100v100H500z"/><path fill="#c6c5bc" d="M600 100h100v100H600z"/><path fill="#c2cfd0" d="M700 100h100v100H700z"/><path fill="#f4df1a" d="M0 200h100v100H0z"/><path fill="#f0db23" d="M100 200h100v100H100z"/><path fill="#e8e057" d="M200 200h100v100H200z"/><path fill="#c7def5" d="M300 200h100v100H300z"/><path fill="#c9e0eb" d="M400 200h100v100H400z"/><path fill="#c7e2f0" d="M500 200h100v100H500z"/><path fill="#c6dee9" d="M600 200h100v100H600z"/><path fill="#c2d4de" d="M700 200h100v100H700z"/><path fill="#f1dd2c" d="M0 300h100v100H0z"/><path fill="#f1dd20" d="M100 300h100v100H100z"/><path fill="#e8e176" d="M200 300h100v100H200z"/><path fill="#c8ddf3" d="M300 300h100v100H300z"/><path fill="#c8dee9" d="M400 300h100v100H400z"/><path fill="#cadde9" d="M500 300h100v100H500z"/><path fill="#cbdae4" d="M600 300h100v100H600z"/><path fill="#c1c3c8" d="M700 300h100v100H700z"/><path fill="#b8a9a1" d="M0 400h100v100H0z"/><path fill="#c5b8a8" d="M100 400h100v100H100z"/><path fill="#9e9d91" d="M200 400h100v100H200z"/><path fill="#a09d97" d="M300 400h100v100H300z"/><path fill="#a4939b" d="M400 400h100v100H400z"/><path fill="#958690" d="M500 400h100v100H500z"/><path fill="#998f98" d="M600 400h100v100H600z"/><path fill="#a39aa4" d="M700 400h100v100H700z"/><path fill="#c4beba" d="M0 500h100v100H0z"/><path fill="#aba9a5" d="M100 500h100v100H100z"/><path fill="#a5a89f" d="M200 500h100v100H200z"/><path fill="#b7bbaa" d="M300 500h100v100H300z"/><path fill="#8e797c" d="M400 500h100v100H400z"/><path fill="#8a7f89" d="M500 500h100v100H500z"/><path fill="#7c7584" d="M600 500h100v100H600z"/><path fill="#7d6e7e" d="M700 500h100v100H700z"/></svg>