<svg xmlns="http://www.w3.org/2000/svg" viewBox="0 0 800 500"><defs/><path fill="#ecedec" d="M0 0h100v100H0z"/><path fill="#dcdbdc" d="M100 0h100v100H100z"/><path fill="#bebebe" d="M200 0h100v100H200z"/><path fill="#e2e1e2" d="M300 0h100v100H300z"/><path fill="#e8e8e8" d="M400 0h100v100H400z"/><path fill="#e6e6e6" d="M500 0h100v100H500z"/><path fill="#e7e7e7" d="M600 0h100v100H600z"/><path fill="#ededed" d="M700 0h100v100H700z"/><path fill="#ebebeb" d="M0 100h100v100H0z"/><path fill="#d2d1d1" d="M100 100h100v100H100z"/><path fill="#858485" d="M200 100h100v100H200z"/><path fill="#dad9da" d="M300 100h100v100H300z"/><path fill="#fbfbfb" d="M400 100h100v100H400z"/><path fill="#f3f4f4" d="M500 100h100v100H500z"/><path fill="#d3d3d3" d="M600 100h100v100H600z"/><path fill="#e7e7e7" d="M700 100h100v100H700z"/><path fill="#dcdbdc" d="M0 200h100v100H0z"/><path fill="#a6a5a6" d="M100 200h100v100H100z"/><path fill="#8e8c8d" d="M200 200h100v100H200z"/><path fill="#cfcece" d="M300 200h100v100H300z"/><path fill="#efefef" d="M400 200h100v100H400z"/><path fill="#f0f0f0" d="M500 200h100v100H500z"/><path fill="#cccacb" d="M600 200h100v100H600z"/><path fill="#e0e0e0" d="M700 200h100v100H700z"/><path fill="#e1e1e1" d="M0 300h100v100H0z"/><path fill="#aaa9aa" d="M100 300h100v100H100z"/><path fill="#aeacad" d="M200 300h100v100H200z"/><path fill="#c9c8c8" d="M300 300h100v100H300z"/><path fill="#c1c0c0" d="M400 300h100v100H400z"/><path fill="#cac9c9" d="M500 300h100v100H500z"/><path fill="#c2c1c1" d="M600 300h100v100H600z"/><path fill="#d6d4d5" d="M700 300h100v100H700z"/><path fill="#e7e7e7" d="M0 400h100v100H0z"/><path fill="#e6e6e6" d="M100 400h100v100H100z"/><path fill="#dadada" d="M200 400h100v100H200z"/><path fill="#dcdbdc" d="M300 400h100v100H300z"/><path fill="#dbdbdb" d="M400 400h100v100H400zm100 0h100v100H500z"/><path fill="#e0dfe0" d="M600 400h100v100H600z"/><path fill="#e3e2e2" d="M700 400h100v100H700z"/></svg>