<svg xmlns="http://www.w3.org/2000/svg" viewBox="0 0 800 400"><defs/><path fill="#8d8a89" d="M0 0h100v100H0z"/><path fill="#6f6252" d="M100 0h100v100H100z"/><path fill="#acb1b6" d="M200 0h100v100H200z"/><path fill="#afc8e6" d="M300 0h100v100H300z"/><path fill="#95b3d5" d="M400 0h100v100H400z"/><path fill="#c3d5ed" d="M500 0h100v100H500z"/><path fill="#aaabab" d="M600 0h100v100H600z"/><path fill="#705d50" d="M700 0h100v100H700z"/><path fill="#8a8280" d="M0 100h100v100H0z"/><path fill="#665848" d="M100 100h100v100H100z"/><path fill="#a8b0b8" d="M200 100h100v100H200z"/><path fill="#c8dcf1" d="M300 100h100v100H300z"/><path fill="#a5c1d9" d="M400 100h100v100H400z"/><path fill="#afbcc7" d="M500 100h100v100H500z"/><path fill="#928983" d="M600 100h100v100H600z"/><path fill="#664f40" d="M700 100h100v100H700z"/><path fill="#897f78" d="M0 200h100v100H0z"/><path fill="#816b5c" d="M100 200h100v100H100z"/><path fill="#858382" d="M200 200h100v100H200z"/><path fill="#9b9ca4" d="M300 200h100v100H300z"/><path fill="#978e9a" d="M400 200h100v100H400z"/><path fill="#a1a099" d="M500 200h100v100H500z"/><path fill="#8e979b" d="M600 200h100v100H600z"/><path fill="#6d5857" d="M700 200h100v100H700z"/><path fill="#857871" d="M0 300h100v100H0z"/><path fill="#a08f82" d="M100 300h100v100H100z"/><path fill="#816d4d" d="M200 300h100v100H200z"/><path fill="#5b5a62" d="M300 300h100v100H300z"/><path fill="#51557e" d="M400 300h100v100H400z"/><path fill="#617995" d="M500 300h100v100H500z"/><path fill="#5e7a7b" d="M600 300h100v100H600z"/><path fill="#637e77" d="M700 300h100v100H700z"/></svg>