<svg xmlns="http://www.w3.org/2000/svg" viewBox="0 0 800 800"><defs/><path fill="#3b2b1b" d="M0 0h100v100H0z"/><path fill="#362419" d="M100 0h100v100H100z"/><path fill="#4e3120" d="M200 0h100v100H200z"/><path fill="#362921" d="M300 0h100v100H300z"/><path fill="#232226" d="M400 0h100v100H400z"/><path fill="#372e2d" d="M500 0h100v100H500z"/><path fill="#46322c" d="M600 0h100v100H600z"/><path fill="#3c2d2d" d="M700 0h100v100H700z"/><path fill="#864b23" d="M0 100h100v100H0z"/><path fill="#5f3521" d="M100 100h100v100H100z"/><path fill="#4e2d1f" d="M200 100h100v100H200z"/><path fill="#402a1f" d="M300 100h100v100H300z"/><path fill="#412d26" d="M400 100h100v100H400z"/><path fill="#624739" d="M500 100h100v100H500z"/><path fill="#6a4e3f" d="M600 100h100v100H600z"/><path fill="#594136" d="M700 100h100v100H700z"/><path fill="#a17c4f" d="M0 200h100v100H0z"/><path fill="#a98359" d="M100 200h100v100H100z"/><path fill="#a27a55" d="M200 200h100v100H200z"/><path fill="#93755b" d="M300 200h100v100H300z"/><path fill="#735f5a" d="M400 200h100v100H400z"/><path fill="#938780" d="M500 200h100v100H500z"/><path fill="#998f8a" d="M600 200h100v100H600z"/><path fill="#928580" d="M700 200h100v100H700z"/><path fill="#a77f5b" d="M0 300h100v100H0z"/><path fill="#a08767" d="M100 300h100v100H100z"/><path fill="#a27b5c" d="M200 300h100v100H200z"/><path fill="#a38269" d="M300 300h100v100H300z"/><path fill="#a38c7d" d="M400 300h100v100H400z"/><path fill="#92847f" d="M500 300h100v100H500z"/><path fill="#84807c" d="M600 300h100v100H600z"/><path fill="#97807d" d="M700 300h100v100H700z"/><path fill="#a3815f" d="M0 400h100v100H0z"/><path fill="#a28668" d="M100 400h100v100H100z"/><path fill="#9d876c" d="M200 400h100v100H200z"/><path fill="#9c8069" d="M300 400h100v100H300z"/><path fill="#8e7f6c" d="M400 400h100v100H400z"/><path fill="#958274" d="M500 400h100v100H500z"/><path fill="#918473" d="M600 400h100v100H600z"/><path fill="#91796d" d="M700 400h100v100H700z"/><path fill="#957e60" d="M0 500h100v100H0z"/><path fill="#a18465" d="M100 500h100v100H100z"/><path fill="#9e8163" d="M200 500h100v100H200z"/><path fill="#9e7f66" d="M300 500h100v100H300z"/><path fill="#9c7b60" d="M400 500h100v100H400z"/><path fill="#987e67" d="M500 500h100v100H500z"/><path fill="#917964" d="M600 500h100v100H600z"/><path fill="#8d7563" d="M700 500h100v100H700z"/><path fill="#927c5b" d="M0 600h100v100H0z"/><path fill="#9b7a59" d="M100 600h100v100H100z"/><path fill="#9d7358" d="M200 600h100v100H200z"/><path fill="#9a7a5f" d="M300 600h100v100H300z"/><path fill="#96725a" d="M400 600h100v100H400z"/><path fill="#957a64" d="M500 600h100v100H500z"/><path fill="#7f6b58" d="M600 600h100v100H600z"/><path fill="#826857" d="M700 600h100v100H700z"/><path fill="#a08058" d="M0 700h100v100H0z"/><path fill="#a0805b" d="M100 700h100v100H100z"/><path fill="#9e7e5e" d="M200 700h100v100H200z"/><path fill="#9b7c5f" d="M300 700h100v100H300z"/><path fill="#9a7c60" d="M400 700h100v100H400z"/><path fill="#97785f" d="M500 700h100v100H500z"/><path fill="#89715b" d="M600 700h100v100H600z"/><path fill="#8a6e5a" d="M700 700h100v100H700z"/></svg>