<svg xmlns="http://www.w3.org/2000/svg" viewBox="0 0 800 600"><defs/><path fill="#785e59" d="M0 0h100v100H0z"/><path fill="#846661" d="M100 0h100v100H100z"/><path fill="#896d67" d="M200 0h100v100H200z"/><path fill="#8a716b" d="M300 0h100v100H300z"/><path fill="#846c65" d="M400 0h100v100H400z"/><path fill="#806b66" d="M500 0h100v100H500z"/><path fill="#8c7b74" d="M600 0h100v100H600z"/><path fill="#786562" d="M700 0h100v100H700z"/><path fill="#6c534e" d="M0 100h100v100H0z"/><path fill="#715950" d="M100 100h100v100H100z"/><path fill="#837068" d="M200 100h100v100H200z"/><path fill="#81736a" d="M300 100h100v100H300z"/><path fill="#73645f" d="M400 100h100v100H400z"/><path fill="#6d615f" d="M500 100h100v100H500z"/><path fill="#655a5b" d="M600 100h100v100H600z"/><path fill="#785a58" d="M700 100h100v100H700z"/><path fill="#6e544e" d="M0 200h100v100H0z"/><path fill="#8e5c4d" d="M100 200h100v100H100z"/><path fill="#7a665c" d="M200 200h100v100H200z"/><path fill="#69625c" d="M300 200h100v100H300z"/><path fill="#635354" d="M400 200h100v100H400z"/><path fill="#565050" d="M500 200h100v100H500z"/><path fill="#534a4b" d="M600 200h100v100H600z"/><path fill="#7f5955" d="M700 200h100v100H700z"/><path fill="#836255" d="M0 300h100v100H0z"/><path fill="#c7936e" d="M100 300h100v100H100z"/><path fill="#a28a72" d="M200 300h100v100H200z"/><path fill="#a18e7b" d="M300 300h100v100H300z"/><path fill="#8e776b" d="M400 300h100v100H400z"/><path fill="#94826f" d="M500 300h100v100H500z"/><path fill="#897265" d="M600 300h100v100H600z"/><path fill="#865b57" d="M700 300h100v100H700z"/><path fill="#9b7e68" d="M0 400h100v100H0z"/><path fill="#e0c394" d="M100 400h100v100H100z"/><path fill="#b8997a" d="M200 400h100v100H200z"/><path fill="#b7977c" d="M300 400h100v100H300z"/><path fill="#c5a88a" d="M400 400h100v100H400z"/><path fill="#af9a80" d="M500 400h100v100H500z"/><path fill="#9b7962" d="M600 400h100v100H600z"/><path fill="#9b6a5d" d="M700 400h100v100H700z"/><path fill="#927b68" d="M0 500h100v100H0z"/><path fill="#b8a282" d="M100 500h100v100H100z"/><path fill="#a98d75" d="M200 500h100v100H200z"/><path fill="#ab9179" d="M300 500h100v100H300z"/><path fill="#a7917b" d="M400 500h100v100H400z"/><path fill="#908274" d="M500 500h100v100H500z"/><path fill="#a68a6c" d="M600 500h100v100H600z"/><path fill="#977561" d="M700 500h100v100H700z"/></svg>