<svg xmlns="http://www.w3.org/2000/svg" viewBox="0 0 800 400"><defs/><path fill="#cdbeba" d="M0 0h100v100H0z"/><path fill="#a2919b" d="M100 0h100v100H100z"/><path fill="#c9ac9f" d="M200 0h100v100H200z"/><path fill="#bba894" d="M300 0h100v100H300z"/><path fill="#a39098" d="M400 0h100v100H400z"/><path fill="#b69a95" d="M500 0h100v100H500z"/><path fill="#bda08a" d="M600 0h100v100H600z"/><path fill="#d6cbc8" d="M700 0h100v100H700z"/><path fill="#c0b2b3" d="M0 100h100v100H0z"/><path fill="#a7929a" d="M100 100h100v100H100z"/><path fill="#dcbe95" d="M200 100h100v100H200z"/><path fill="#c2acaa" d="M300 100h100v100H300z"/><path fill="#c4b49c" d="M400 100h100v100H400z"/><path fill="#c99987" d="M500 100h100v100H500z"/><path fill="#aa9a8f" d="M600 100h100v100H600z"/><path fill="#c3b4a3" d="M700 100h100v100H700z"/><path fill="#b7a7a9" d="M0 200h100v100H0z"/><path fill="#b49988" d="M100 200h100v100H100z"/><path fill="#d4ae7e" d="M200 200h100v100H200z"/><path fill="#9b97a8" d="M300 200h100v100H300z"/><path fill="#b49b92" d="M400 200h100v100H400z"/><path fill="#c49687" d="M500 200h100v100H500z"/><path fill="#a98a57" d="M600 200h100v100H600z"/><path fill="#937022" d="M700 200h100v100H700z"/><path fill="#b4a09a" d="M0 300h100v100H0z"/><path fill="#a38165" d="M100 300h100v100H100z"/><path fill="#c18c87" d="M200 300h100v100H200z"/><path fill="#c8bab8" d="M300 300h100v100H300z"/><path fill="#bd9499" d="M400 300h100v100H400z"/><path fill="#aa827f" d="M500 300h100v100H500z"/><path fill="#a27753" d="M600 300h100v100H600z"/><path fill="#a17838" d="M700 300h100v100H700z"/></svg>