<svg xmlns="http://www.w3.org/2000/svg" viewBox="0 0 800 500"><defs/><path fill="#eaecef" d="M0 0h100v100H0z"/><path fill="#cdd4dc" d="M100 0h100v100H100z"/><path fill="#d6dde6" d="M200 0h100v100H200z"/><path fill="#d5dce3" d="M300 0h100v100H300z"/><path fill="#d6d8dd" d="M400 0h100v100H400z"/><path fill="#d7dae2" d="M500 0h100v100H500z"/><path fill="#dce0e6" d="M600 0h100v100H600z"/><path fill="#dcdddf" d="M700 0h100v100H700z"/><path fill="#a9b3c5" d="M0 100h100v100H0z"/><path fill="#7888a1" d="M100 100h100v100H100z"/><path fill="#6e8bac" d="M200 100h100v100H200z"/><path fill="#536984" d="M300 100h100v100H300z"/><path fill="#4c5670" d="M400 100h100v100H400z"/><path fill="#58688b" d="M500 100h100v100H500z"/><path fill="#6e7f9d" d="M600 100h100v100H600z"/><path fill="#52586b" d="M700 100h100v100H700z"/><path fill="#9ea9bb" d="M0 200h100v100H0z"/><path fill="#8493a8" d="M100 200h100v100H100z"/><path fill="#778097" d="M200 200h100v100H200z"/><path fill="#9092ae" d="M300 200h100v100H300z"/><path fill="#a4a7c3" d="M400 200h100v100H400z"/><path fill="#8087a4" d="M500 200h100v100H500z"/><path fill="#697b95" d="M600 200h100v100H600z"/><path fill="#636f80" d="M700 200h100v100H700z"/><path fill="#8a97a8" d="M0 300h100v100H0z"/><path fill="#5c6178" d="M100 300h100v100H100z"/><path fill="#838da8" d="M200 300h100v100H200z"/><path fill="#7186a3" d="M300 300h100v100H300z"/><path fill="#576781" d="M400 300h100v100H400z"/><path fill="#51556c" d="M500 300h100v100H500z"/><path fill="#496374" d="M600 300h100v100H600z"/><path fill="#4c6a74" d="M700 300h100v100H700z"/><path fill="#c3cbd5" d="M0 400h100v100H0z"/><path fill="#b3b8c5" d="M100 400h100v100H100z"/><path fill="#c9d2de" d="M200 400h100v100H200z"/><path fill="#a4bccf" d="M300 400h100v100H300z"/><path fill="#8598ac" d="M400 400h100v100H400z"/><path fill="#949fb1" d="M500 400h100v100H500z"/><path fill="#8ba1ab" d="M600 400h100v100H600z"/><path fill="#77919a" d="M700 400h100v100H700z"/></svg>