<svg xmlns="http://www.w3.org/2000/svg" viewBox="0 0 800 600"><defs/><path fill="#969c93" d="M0 0h100v100H0z"/><path fill="#b2b0a5" d="M100 0h100v100H100z"/><path fill="#c4bda3" d="M200 0h100v100H200z"/><path fill="#cccbba" d="M300 0h100v100H300z"/><path fill="#cdd0c5" d="M400 0h100v100H400z"/><path fill="#cfd4cc" d="M500 0h100v100H500z"/><path fill="#c8cec8" d="M600 0h100v100H600z"/><path fill="#c2c4b2" d="M700 0h100v100H700z"/><path fill="#8a8b84" d="M0 100h100v100H0z"/><path fill="#c2b0b2" d="M100 100h100v100H100z"/><path fill="#bdad9b" d="M200 100h100v100H200z"/><path fill="#d3cfc4" d="M300 100h100v100H300z"/><path fill="#c6c5c1" d="M400 100h100v100H400z"/><path fill="#cecfce" d="M500 100h100v100H500z"/><path fill="#cbcbc8" d="M600 100h100v100H600z"/><path fill="#c1c7c3" d="M700 100h100v100H700z"/><path fill="#a4a296" d="M0 200h100v100H0z"/><path fill="#bfafb1" d="M100 200h100v100H100z"/><path fill="#aba08f" d="M200 200h100v100H200z"/><path fill="#b9b7ad" d="M300 200h100v100H300z"/><path fill="#d1d6dc" d="M400 200h100v100H400z"/><path fill="#bbbab7" d="M500 200h100v100H500z"/><path fill="#abaca4" d="M600 200h100v100H600z"/><path fill="#bdc0bf" d="M700 200h100v100H700z"/><path fill="#aeaea6" d="M0 300h100v100H0z"/><path fill="#b5aab0" d="M100 300h100v100H100z"/><path fill="#aa9f9a" d="M200 300h100v100H200z"/><path fill="#b0a4a4" d="M300 300h100v100H300z"/><path fill="#b1999d" d="M400 300h100v100H400z"/><path fill="#b7b8b9" d="M500 300h100v100H500z"/><path fill="#b5babd" d="M600 300h100v100H600z"/><path fill="#ababac" d="M700 300h100v100H700z"/><path fill="#abb0b0" d="M0 400h100v100H0z"/><path fill="#aea5b0" d="M100 400h100v100H100z"/><path fill="#afaeb5" d="M200 400h100v100H200z"/><path fill="#b4b0b7" d="M300 400h100v100H300z"/><path fill="#beaeb1" d="M400 400h100v100H400z"/><path fill="#b7bac0" d="M500 400h100v100H500z"/><path fill="#c4c8d1" d="M600 400h100v100H600z"/><path fill="#b8bfc4" d="M700 400h100v100H700z"/><path fill="#98a5aa" d="M0 500h100v100H0z"/><path fill="#a2a6b2" d="M100 500h100v100H100z"/><path fill="#a7a8b0" d="M200 500h100v100H200z"/><path fill="#aba6ad" d="M300 500h100v100H300z"/><path fill="#b6bcc3" d="M400 500h100v100H400z"/><path fill="#aeb2bc" d="M500 500h100v100H500z"/><path fill="#a7abb3" d="M600 500h100v100H600z"/><path fill="#bdc6cc" d="M700 500h100v100H700z"/></svg>