<svg xmlns="http://www.w3.org/2000/svg" viewBox="0 0 800 500"><defs/><path fill="#c2c2bf" d="M0 0h100v100H0z"/><path fill="#ddc4a7" d="M100 0h100v100H100z"/><path fill="#e1c9ae" d="M200 0h100v100H200z"/><path fill="#e3ccb3" d="M300 0h100v100H300z"/><path fill="#e3cfb9" d="M400 0h100v100H400z"/><path fill="#d8c5b2" d="M500 0h100v100H500z"/><path fill="#e2d3c1" d="M600 0h100v100H600z"/><path fill="#b5afa6" d="M700 0h100v100H700z"/><path fill="#baa08e" d="M0 100h100v100H0z"/><path fill="#dfbe9b" d="M100 100h100v100H100z"/><path fill="#e6ccaf" d="M200 100h100v100H200z"/><path fill="#e7cdb0" d="M300 100h100v100H300z"/><path fill="#e2caaf" d="M400 100h100v100H400z"/><path fill="#d9c2a8" d="M500 100h100v100H500z"/><path fill="#e2cdb6" d="M600 100h100v100H600z"/><path fill="#cdbfb0" d="M700 100h100v100H700z"/><path fill="#a38262" d="M0 200h100v100H0z"/><path fill="#e6cdac" d="M100 200h100v100H100z"/><path fill="#e5cfb4" d="M200 200h100v100H200z"/><path fill="#dbc6a9" d="M300 200h100v100H300z"/><path fill="#d6c2a6" d="M400 200h100v100H400z"/><path fill="#d7c5ac" d="M500 200h100v100H500z"/><path fill="#d3c2a5" d="M600 200h100v100H600z"/><path fill="#c8b7a0" d="M700 200h100v100H700z"/><path fill="#b39175" d="M0 300h100v100H0z"/><path fill="#e5cdb0" d="M100 300h100v100H100z"/><path fill="#dbc9b0" d="M200 300h100v100H200z"/><path fill="#cebca4" d="M300 300h100v100H300z"/><path fill="#d6c4ad" d="M400 300h100v100H400z"/><path fill="#c9b9a7" d="M500 300h100v100H500z"/><path fill="#c9b892" d="M600 300h100v100H600z"/><path fill="#c7b78f" d="M700 300h100v100H700z"/><path fill="#ac8f7a" d="M0 400h100v100H0z"/><path fill="#dcc4ac" d="M100 400h100v100H100z"/><path fill="#c9b793" d="M200 400h100v100H200z"/><path fill="#c3b189" d="M300 400h100v100H300z"/><path fill="#c5b38c" d="M400 400h100v100H400z"/><path fill="#bbad84" d="M500 400h100v100H500z"/><path fill="#b1a58c" d="M600 400h100v100H600z"/><path fill="#c2b3a2" d="M700 400h100v100H700z"/></svg>