<svg xmlns="http://www.w3.org/2000/svg" viewBox="0 0 800 500"><defs/><path fill="#3e301f" d="M0 0h100v100H0z"/><path fill="#442519" d="M100 0h100v100H100z"/><path fill="#594d35" d="M200 0h100v100H200z"/><path fill="#423323" d="M300 0h100v100H300z"/><path fill="#8c746e" d="M400 0h100v100H400z"/><path fill="#9a8b88" d="M500 0h100v100H500z"/><path fill="#867b6f" d="M600 0h100v100H600z"/><path fill="#29231b" d="M700 0h100v100H700z"/><path fill="#594229" d="M0 100h100v100H0z"/><path fill="#402e18" d="M100 100h100v100H100z"/><path fill="#2a2525" d="M200 100h100v100H200z"/><path fill="#362f2f" d="M300 100h100v100H300z"/><path fill="#70645b" d="M400 100h100v100H400z"/><path fill="#b6ada1" d="M500 100h100v100H500z"/><path fill="#b1a89d" d="M600 100h100v100H600z"/><path fill="#534236" d="M700 100h100v100H700z"/><path fill="#372819" d="M0 200h100v100H0z"/><path fill="#3c2b18" d="M100 200h100v100H100z"/><path fill="#1e1515" d="M200 200h100v100H200z"/><path fill="#3d2c22" d="M300 200h100v100H300z"/><path fill="#483b2e" d="M400 200h100v100H400z"/><path fill="#6f5947" d="M500 200h100v100H500z"/><path fill="#846851" d="M600 200h100v100H600z"/><path fill="#674e40" d="M700 200h100v100H700z"/><path fill="#1e1414" d="M0 300h100v100H0z"/><path fill="#22150d" d="M100 300h100v100H100z"/><path fill="#2c1a0f" d="M200 300h100v100H200z"/><path fill="#48372e" d="M300 300h100v100H300z"/><path fill="#3b2a24" d="M400 300h100v100H400z"/><path fill="#86735e" d="M500 300h100v100H500z"/><path fill="#ac8464" d="M600 300h100v100H600z"/><path fill="#5b3f35" d="M700 300h100v100H700z"/><path fill="#1b1414" d="M0 400h100v100H0z"/><path fill="#161011" d="M100 400h100v100H100z"/><path fill="#282220" d="M200 400h100v100H200z"/><path fill="#644b3d" d="M300 400h100v100H300z"/><path fill="#92786e" d="M400 400h100v100H400z"/><path fill="#6d6164" d="M500 400h100v100H500z"/><path fill="#5a5050" d="M600 400h100v100H600z"/><path fill="#322b2f" d="M700 400h100v100H700z"/></svg>