<svg xmlns="http://www.w3.org/2000/svg" viewBox="0 0 800 500"><defs/><path fill="#f7f6f4" d="M0 0h100v100H0z"/><path fill="#e3c99d" d="M100 0h100v100H100z"/><path fill="#eaeedf" d="M200 0h100v100H200z"/><path fill="#e6f3ef" d="M300 0h100v100H300z"/><path fill="#e1efec" d="M400 0h100v100H400z"/><path fill="#deebe7" d="M500 0h100v100H500z"/><path fill="#e8e1de" d="M600 0h100v100H600z"/><path fill="#f8f7f7" d="M700 0h100v100H700z"/><path fill="#f8f2ea" d="M0 100h100v100H0z"/><path fill="#c69c53" d="M100 100h100v100H100z"/><path fill="#689785" d="M200 100h100v100H200z"/><path fill="#679a8d" d="M300 100h100v100H300z"/><path fill="#98bbab" d="M400 100h100v100H400z"/><path fill="#a1c2a9" d="M500 100h100v100H500z"/><path fill="#c3baab" d="M600 100h100v100H600z"/><path fill="#f9f1f1" d="M700 100h100v100H700z"/><path fill="#f0e3cc" d="M0 200h100v100H0z"/><path fill="#c89b5d" d="M100 200h100v100H100z"/><path fill="#6f817d" d="M200 200h100v100H200z"/><path fill="#a7947d" d="M300 200h100v100H300z"/><path fill="#c69075" d="M400 200h100v100H400z"/><path fill="#a89e8f" d="M500 200h100v100H500z"/><path fill="#b7b6ae" d="M600 200h100v100H600z"/><path fill="#f7f1f0" d="M700 200h100v100H700z"/><path fill="#e0c59a" d="M0 300h100v100H0z"/><path fill="#d9b780" d="M100 300h100v100H100z"/><path fill="#eacfcf" d="M200 300h100v100H200z"/><path fill="#f7e6e0" d="M300 300h100v100H300z"/><path fill="#fff5ef" d="M400 300h100v100H400z"/><path fill="#fff5ee" d="M500 300h100v100H500z"/><path fill="#f8efec" d="M600 300h100v100H600z"/><path fill="#f7f6f7" d="M700 300h100v100H700z"/><path fill="#e9e1d3" d="M0 400h100v100H0z"/><path fill="#f1ece3" d="M100 400h100v100H100z"/><path fill="#f7fbfe" d="M200 400h100v100H200z"/><path fill="#f5f7f7" d="M300 400h100v100H300z"/><path fill="#f6fbfc" d="M400 400h100v100H400z"/><path fill="#f6fafb" d="M500 400h100v100H500z"/><path fill="#f7f8f9" d="M600 400h100v100H600z"/><path fill="#eee" d="M700 400h100v100H700z"/></svg>