<svg xmlns="http://www.w3.org/2000/svg" viewBox="0 0 800 600"><defs/><path fill="#fdfdfd" d="M0 0h100v100H0z"/><path fill="#f9f9f9" d="M100 0h100v100H100z"/><path fill="#f4f4f4" d="M200 0h100v100H200z"/><path fill="#fafafa" d="M300 0h100v100H300z"/><path fill="#f9f9f9" d="M400 0h100v100H400z"/><path fill="#fbfbfb" d="M500 0h100v100H500z"/><path fill="#f7f7f7" d="M600 0h100v100H600z"/><path fill="#f9f9f9" d="M700 0h100v100H700z"/><path fill="#d8d8d8" d="M0 100h100v100H0z"/><path fill="#cacaca" d="M100 100h100v100H100z"/><path fill="#c1c0c0" d="M200 100h100v100H200z"/><path fill="#b8b8b8" d="M300 100h100v100H300z"/><path fill="#b8b9b9" d="M400 100h100v100H400z"/><path fill="#e6e6e6" d="M500 100h100v100H500z"/><path fill="#d8d8d8" d="M600 100h100v100H600z"/><path fill="#e0e0e0" d="M700 100h100v100H700z"/><path fill="#b8b8b8" d="M0 200h100v100H0z"/><path fill="#c1c1c1" d="M100 200h100v100H100z"/><path fill="#a7a7a7" d="M200 200h100v100H200z"/><path fill="#9e9e9e" d="M300 200h100v100H300z"/><path fill="#acacac" d="M400 200h100v100H400z"/><path fill="#c5c5c5" d="M500 200h100v100H500z"/><path fill="#acacac" d="M600 200h100v100H600z"/><path fill="#e1e1e1" d="M700 200h100v100H700z"/><path fill="#e7e7e7" d="M0 300h100v100H0z"/><path fill="#c2c2c2" d="M100 300h100v100H100z"/><path fill="#a6a6a6" d="M200 300h100v100H200z"/><path fill="#b3b3b3" d="M300 300h100v100H300z"/><path fill="#a1a1a1" d="M400 300h100v100H400z"/><path fill="#b7b7b6" d="M500 300h100v100H500z"/><path fill="#9f9f9f" d="M600 300h100v100H600z"/><path fill="#c3c3c2" d="M700 300h100v100H700z"/><path fill="#dcdcdc" d="M0 400h100v100H0z"/><path fill="#cacaca" d="M100 400h100v100H100z"/><path fill="silver" d="M200 400h100v100H200z"/><path fill="#d9d9d9" d="M300 400h100v100H300z"/><path fill="#b5b5b5" d="M400 400h100v100H400z"/><path fill="#787877" d="M500 400h100v100H500z"/><path fill="#4d4d4c" d="M600 400h100v100H600z"/><path fill="#c2c2c2" d="M700 400h100v100H700z"/><path fill="#f2f2f2" d="M0 500h100v100H0z"/><path fill="#f7f7f7" d="M100 500h100v100H100z"/><path fill="#f3f3f3" d="M200 500h100v100H200z"/><path fill="#f4f4f4" d="M300 500h100v100H300z"/><path fill="#f3f3f3" d="M400 500h100v100H400z"/><path fill="#e4e4e4" d="M500 500h100v100H500z"/><path fill="#dcdcdc" d="M600 500h100v100H600z"/><path fill="#f3f3f3" d="M700 500h100v100H700z"/></svg>