<svg xmlns="http://www.w3.org/2000/svg" viewBox="0 0 800 400"><defs/><path fill="#dfcb7e" d="M0 0h100v100H0z"/><path fill="#8d8171" d="M100 0h100v100H100z"/><path fill="#a48a76" d="M200 0h100v100H200z"/><path fill="#a79c89" d="M300 0h100v100H300z"/><path fill="#a4bda6" d="M400 0h100v100H400z"/><path fill="#a1b69e" d="M500 0h100v100H500z"/><path fill="#a69a82" d="M600 0h100v100H600z"/><path fill="#b8936c" d="M700 0h100v100H700z"/><path fill="#ceb875" d="M0 100h100v100H0z"/><path fill="#938b77" d="M100 100h100v100H100z"/><path fill="#c8ae96" d="M200 100h100v100H200z"/><path fill="#a49895" d="M300 100h100v100H300z"/><path fill="#a1c5c2" d="M400 100h100v100H400z"/><path fill="#a5c6c5" d="M500 100h100v100H500z"/><path fill="#a7998f" d="M600 100h100v100H600z"/><path fill="#8e664b" d="M700 100h100v100H700z"/><path fill="#b09b6d" d="M0 200h100v100H0z"/><path fill="#988b7a" d="M100 200h100v100H100z"/><path fill="#96777c" d="M200 200h100v100H200z"/><path fill="#88736f" d="M300 200h100v100H300z"/><path fill="#a8977e" d="M400 200h100v100H400z"/><path fill="#b3a496" d="M500 200h100v100H500z"/><path fill="#b98166" d="M600 200h100v100H600z"/><path fill="#8b694c" d="M700 200h100v100H700z"/><path fill="#a18d75" d="M0 300h100v100H0z"/><path fill="#cdbcb6" d="M100 300h100v100H100z"/><path fill="#a7688e" d="M200 300h100v100H200z"/><path fill="#a2617e" d="M300 300h100v100H300z"/><path fill="#dbc3bd" d="M400 300h100v100H400z"/><path fill="#b6afb9" d="M500 300h100v100H500z"/><path fill="#e6d4d1" d="M600 300h100v100H600z"/><path fill="#b19981" d="M700 300h100v100H700z"/></svg>