<svg xmlns="http://www.w3.org/2000/svg" viewBox="0 0 800 400"><defs/><path fill="#857d46" d="M0 0h100v100H0z"/><path fill="#cb9d97" d="M100 0h100v100H100z"/><path fill="#b2c9e3" d="M200 0h100v100H200z"/><path fill="#c5c8da" d="M300 0h100v100H300z"/><path fill="#aea8b7" d="M400 0h100v100H400z"/><path fill="#525b5c" d="M500 0h100v100H500z"/><path fill="#46312b" d="M600 0h100v100H600z"/><path fill="#633d43" d="M700 0h100v100H700z"/><path fill="#898c3f" d="M0 100h100v100H0z"/><path fill="#d0b2a7" d="M100 100h100v100H100z"/><path fill="#a4bdc6" d="M200 100h100v100H200z"/><path fill="#acb4b7" d="M300 100h100v100H300z"/><path fill="#b1b0a7" d="M400 100h100v100H400z"/><path fill="#b4d0ca" d="M500 100h100v100H500z"/><path fill="#716f5e" d="M600 100h100v100H600z"/><path fill="#6a4341" d="M700 100h100v100H700z"/><path fill="#7f5f43" d="M0 200h100v100H0z"/><path fill="#c2a183" d="M100 200h100v100H100z"/><path fill="#b4875f" d="M200 200h100v100H200z"/><path fill="#7a4e37" d="M300 200h100v100H300z"/><path fill="#a18e78" d="M400 200h100v100H400z"/><path fill="#bfca9e" d="M500 200h100v100H500z"/><path fill="#7c8c64" d="M600 200h100v100H600z"/><path fill="#6d5150" d="M700 200h100v100H700z"/><path fill="#735342" d="M0 300h100v100H0z"/><path fill="#926248" d="M100 300h100v100H100z"/><path fill="#a5847b" d="M200 300h100v100H200z"/><path fill="#754141" d="M300 300h100v100H300z"/><path fill="#a06959" d="M400 300h100v100H400z"/><path fill="#6b4844" d="M500 300h100v100H500z"/><path fill="#3f2721" d="M600 300h100v100H600z"/><path fill="#614540" d="M700 300h100v100H700z"/></svg>