<svg xmlns="http://www.w3.org/2000/svg" viewBox="0 0 800 500"><defs/><path fill="#415d4e" d="M0 0h100v100H0z"/><path fill="#847a57" d="M100 0h100v100H100z"/><path fill="#a1b2bb" d="M200 0h100v100H200z"/><path fill="#a0b2bc" d="M300 0h100v100H300z"/><path fill="#9bb0bc" d="M400 0h100v100H400z"/><path fill="#99aab6" d="M500 0h100v100H500z"/><path fill="#a59da6" d="M600 0h100v100H600z"/><path fill="#576b68" d="M700 0h100v100H700z"/><path fill="#4b5e47" d="M0 100h100v100H0z"/><path fill="#8b825e" d="M100 100h100v100H100z"/><path fill="#9abece" d="M200 100h100v100H200z"/><path fill="#7aa7a9" d="M300 100h100v100H300z"/><path fill="#77b3c0" d="M400 100h100v100H400z"/><path fill="#77a5b6" d="M500 100h100v100H500z"/><path fill="#5b5359" d="M600 100h100v100H600z"/><path fill="#485e59" d="M700 100h100v100H700z"/><path fill="#576444" d="M0 200h100v100H0z"/><path fill="#9d8f72" d="M100 200h100v100H100z"/><path fill="#b7b6bb" d="M200 200h100v100H200z"/><path fill="#9ea188" d="M300 200h100v100H300z"/><path fill="#adbaa8" d="M400 200h100v100H400z"/><path fill="#b0a7a1" d="M500 200h100v100H500z"/><path fill="#9a887e" d="M600 200h100v100H600z"/><path fill="#546860" d="M700 200h100v100H700z"/><path fill="#6c673c" d="M0 300h100v100H0z"/><path fill="#727f67" d="M100 300h100v100H100z"/><path fill="#997672" d="M200 300h100v100H200z"/><path fill="#737370" d="M300 300h100v100H300z"/><path fill="#757b78" d="M400 300h100v100H400z"/><path fill="#868584" d="M500 300h100v100H500z"/><path fill="#c57636" d="M600 300h100v100H600z"/><path fill="#735e38" d="M700 300h100v100H700z"/><path fill="#6b6d4c" d="M0 400h100v100H0z"/><path fill="#4e838a" d="M100 400h100v100H100z"/><path fill="#81777f" d="M200 400h100v100H200z"/><path fill="#8b7073" d="M300 400h100v100H300z"/><path fill="#837075" d="M400 400h100v100H400z"/><path fill="#6e93a4" d="M500 400h100v100H500z"/><path fill="#77756d" d="M600 400h100v100H600z"/><path fill="#6c5f4b" d="M700 400h100v100H700z"/></svg>