<svg xmlns="http://www.w3.org/2000/svg" viewBox="0 0 800 1100"><defs/><path fill="#474b40" d="M0 0h100v100H0z"/><path fill="#7e827b" d="M100 0h100v100H100z"/><path fill="#848782" d="M200 0h100v100H200z"/><path fill="#aaa89e" d="M300 0h100v100H300z"/><path fill="#d8bca6" d="M400 0h100v100H400z"/><path fill="#c5a288" d="M500 0h100v100H500z"/><path fill="#bd9876" d="M600 0h100v100H600z"/><path fill="#a38c7c" d="M700 0h100v100H700z"/><path fill="#40453b" d="M0 100h100v100H0z"/><path fill="#444944" d="M100 100h100v100H100z"/><path fill="#6c6e6e" d="M200 100h100v100H200z"/><path fill="#c6c7bf" d="M300 100h100v100H300z"/><path fill="#d7bca8" d="M400 100h100v100H400z"/><path fill="#c49e81" d="M500 100h100v100H500z"/><path fill="#baa18a" d="M600 100h100v100H600z"/><path fill="#99877c" d="M700 100h100v100H700z"/><path fill="#3c3f36" d="M0 200h100v100H0z"/><path fill="#353934" d="M100 200h100v100H100z"/><path fill="#575b5e" d="M200 200h100v100H200z"/><path fill="#adb2ae" d="M300 200h100v100H300z"/><path fill="#c4b9ad" d="M400 200h100v100H400z"/><path fill="#baada0" d="M500 200h100v100H500z"/><path fill="#a4a39d" d="M600 200h100v100H600z"/><path fill="#887a6e" d="M700 200h100v100H700z"/><path fill="#41463e" d="M0 300h100v100H0z"/><path fill="#2c312b" d="M100 300h100v100H100z"/><path fill="#545855" d="M200 300h100v100H200z"/><path fill="#808481" d="M300 300h100v100H300z"/><path fill="#959997" d="M400 300h100v100H400z"/><path fill="#888e8f" d="M500 300h100v100H500z"/><path fill="#666869" d="M600 300h100v100H600z"/><path fill="#79756d" d="M700 300h100v100H700z"/><path fill="#50584d" d="M0 400h100v100H0z"/><path fill="#272d26" d="M100 400h100v100H100z"/><path fill="#464e4b" d="M200 400h100v100H200z"/><path fill="#717573" d="M300 400h100v100H300z"/><path fill="#72797a" d="M400 400h100v100H400z"/><path fill="#575d61" d="M500 400h100v100H500z"/><path fill="#566068" d="M600 400h100v100H600z"/><path fill="#b3b6b2" d="M700 400h100v100H700z"/><path fill="#6b7168" d="M0 500h100v100H0z"/><path fill="#3e453d" d="M100 500h100v100H100z"/><path fill="#20272c" d="M200 500h100v100H200z"/><path fill="#41474a" d="M300 500h100v100H300z"/><path fill="#565c5d" d="M400 500h100v100H400z"/><path fill="#585d61" d="M500 500h100v100H500z"/><path fill="#5b6770" d="M600 500h100v100H600z"/><path fill="#b3baba" d="M700 500h100v100H700z"/><path fill="#a0a69e" d="M0 600h100v100H0z"/><path fill="#80857d" d="M100 600h100v100H100z"/><path fill="#757874" d="M200 600h100v100H200z"/><path fill="#5a554f" d="M300 600h100v100H300z"/><path fill="#8f7d70" d="M400 600h100v100H400z"/><path fill="#cabbb0" d="M500 600h100v100H500z"/><path fill="#c6c5c2" d="M600 600h100v100H600z"/><path fill="#c2cbc9" d="M700 600h100v100H700z"/><path fill="#b6b9b1" d="M0 700h100v100H0z"/><path fill="#a89889" d="M100 700h100v100H100z"/><path fill="#a48976" d="M200 700h100v100H200z"/><path fill="#997c6a" d="M300 700h100v100H300z"/><path fill="#c6ad9e" d="M400 700h100v100H400z"/><path fill="#e8d3c5" d="M500 700h100v100H500z"/><path fill="#e6d5ca" d="M600 700h100v100H600z"/><path fill="#d2c8c0" d="M700 700h100v100H700z"/><path fill="#b2afa6" d="M0 800h100v100H0z"/><path fill="#ab8f7e" d="M100 800h100v100H100z"/><path fill="#9e7e6a" d="M200 800h100v100H200z"/><path fill="#a68877" d="M300 800h100v100H300z"/><path fill="#ccb5a8" d="M400 800h100v100H400z"/><path fill="#ebd9cb" d="M500 800h100v100H500z"/><path fill="#d7c8bd" d="M600 800h100v100H600z"/><path fill="#bbb0a6" d="M700 800h100v100H700z"/><path fill="#a9a59b" d="M0 900h100v100H0z"/><path fill="#aa8d7a" d="M100 900h100v100H100z"/><path fill="#a78775" d="M200 900h100v100H200z"/><path fill="#ae8f7e" d="M300 900h100v100H300z"/><path fill="#d6c0b3" d="M400 900h100v100H400z"/><path fill="#e1c8b8" d="M500 900h100v100H500z"/><path fill="#cdb0a1" d="M600 900h100v100H600z"/><path fill="#dfcbbe" d="M700 900h100v100H700z"/><path fill="#adaa9f" d="M0 1000h100v100H0z"/><path fill="#b09584" d="M100 1000h100v100H100z"/><path fill="#b79a88" d="M200 1000h100v100H200z"/><path fill="#c7a899" d="M300 1000h100v100H300z"/><path fill="#e6cec1" d="M400 1000h100v100H400z"/><path fill="#ddc5b6" d="M500 1000h100v100H500z"/><path fill="#edd7ce" d="M600 1000h100v100H600z"/><path fill="#f3e4dd" d="M700 1000h100v100H700z"/></svg>