<svg xmlns="http://www.w3.org/2000/svg" viewBox="0 0 800 600"><defs/><path fill="#f3f4f6" d="M0 0h100v100H0z"/><path fill="#f4f5f7" d="M100 0h100v100H100z"/><path fill="#f1f3f4" d="M200 0h100v100H200z"/><path fill="#f3f4f6" d="M300 0h100v100H300z"/><path fill="#f5f7f7" d="M400 0h100v100H400z"/><path fill="#f6f7f8" d="M500 0h100v100H500z"/><path fill="#f4f6f7" d="M600 0h100v100H600z"/><path fill="#f0f4f4" d="M700 0h100v100H700z"/><path fill="#d4dada" d="M0 100h100v100H0z"/><path fill="#c1cdcc" d="M100 100h100v100H100z"/><path fill="#d7dcdd" d="M200 100h100v100H200z"/><path fill="#dcdee0" d="M300 100h100v100H300z"/><path fill="#e7eaec" d="M400 100h100v100H400z"/><path fill="#e7e9eb" d="M500 100h100v100H500z"/><path fill="#dadedf" d="M600 100h100v100H600z"/><path fill="#dbe1e4" d="M700 100h100v100H700z"/><path fill="#d4dadb" d="M0 200h100v100H0z"/><path fill="#c3cfcd" d="M100 200h100v100H100z"/><path fill="#dbdedf" d="M200 200h100v100H200z"/><path fill="#dbdadd" d="M300 200h100v100H300z"/><path fill="#e2e1e4" d="M400 200h100v100H400z"/><path fill="#e6e6e8" d="M500 200h100v100H500z"/><path fill="#dddee0" d="M600 200h100v100H600z"/><path fill="#d4d7d9" d="M700 200h100v100H700z"/><path fill="#c8d3d4" d="M0 300h100v100H0z"/><path fill="#c5d3d2" d="M100 300h100v100H100z"/><path fill="#e0e2e4" d="M200 300h100v100H200z"/><path fill="#d9dbdc" d="M300 300h100v100H300z"/><path fill="#d5d6d8" d="M400 300h100v100H400z"/><path fill="#dadcdd" d="M500 300h100v100H500z"/><path fill="#d4d6d8" d="M600 300h100v100H600z"/><path fill="#cbcdcf" d="M700 300h100v100H700z"/><path fill="#c5d3d4" d="M0 400h100v100H0z"/><path fill="#bcc8c8" d="M100 400h100v100H100z"/><path fill="#d3d3d6" d="M200 400h100v100H200z"/><path fill="#c7c8ca" d="M300 400h100v100H300zm100 0h100v100H400z"/><path fill="#d2d3d5" d="M500 400h100v100H500z"/><path fill="#e2e3e5" d="M600 400h100v100H600z"/><path fill="#d2d5d7" d="M700 400h100v100H700z"/><path fill="#d7e2e4" d="M0 500h100v100H0z"/><path fill="#d5dde0" d="M100 500h100v100H100z"/><path fill="#d2d6d8" d="M200 500h100v100H200z"/><path fill="#c8cbce" d="M300 500h100v100H300z"/><path fill="#d2d4d6" d="M400 500h100v100H400z"/><path fill="#dddfe3" d="M500 500h100v100H500z"/><path fill="#e4e7e9" d="M600 500h100v100H600z"/><path fill="#dde3e5" d="M700 500h100v100H700z"/></svg>