<svg xmlns="http://www.w3.org/2000/svg" viewBox="0 0 800 600"><defs/><path fill="#d0d6d8" d="M0 0h100v100H0z"/><path fill="#ced7d8" d="M100 0h100v100H100z"/><path fill="#d5dcdf" d="M200 0h100v100H200z"/><path fill="#d7dce0" d="M300 0h100v100H300z"/><path fill="#d7dcdf" d="M400 0h100v100H400z"/><path fill="#d3d8dd" d="M500 0h100v100H500z"/><path fill="#d0d5da" d="M600 0h100v100H600z"/><path fill="#ced6da" d="M700 0h100v100H700z"/><path fill="#cad3d3" d="M0 100h100v100H0z"/><path fill="#b8cbc4" d="M100 100h100v100H100z"/><path fill="#c5cace" d="M200 100h100v100H200z"/><path fill="#cfd2d7" d="M300 100h100v100H300z"/><path fill="#c8cbd0" d="M400 100h100v100H400z"/><path fill="#c7cacf" d="M500 100h100v100H500z"/><path fill="#cbced4" d="M600 100h100v100H600z"/><path fill="#bfc7ca" d="M700 100h100v100H700z"/><path fill="#c5d0d0" d="M0 200h100v100H0z"/><path fill="#bdcfc9" d="M100 200h100v100H100z"/><path fill="#bdbfc4" d="M200 200h100v100H200z"/><path fill="#b1b2b6" d="M300 200h100v100H300z"/><path fill="#bebfc5" d="M400 200h100v100H400z"/><path fill="#b7b8bd" d="M500 200h100v100H500z"/><path fill="#b5b6bb" d="M600 200h100v100H600z"/><path fill="#aaaeb2" d="M700 200h100v100H700z"/><path fill="#bccbca" d="M0 300h100v100H0z"/><path fill="#b9ccc7" d="M100 300h100v100H100z"/><path fill="#b7babe" d="M200 300h100v100H200z"/><path fill="#8b8c90" d="M300 300h100v100H300z"/><path fill="#939397" d="M400 300h100v100H400z"/><path fill="#a2a4a7" d="M500 300h100v100H500z"/><path fill="#a3a4a8" d="M600 300h100v100H600z"/><path fill="#a6a9af" d="M700 300h100v100H700z"/><path fill="#b4c8c5" d="M0 400h100v100H0z"/><path fill="#bacac9" d="M100 400h100v100H100z"/><path fill="#c1c4cb" d="M200 400h100v100H200z"/><path fill="#9b9da2" d="M300 400h100v100H300z"/><path fill="#989a9f" d="M400 400h100v100H400z"/><path fill="#a9abb1" d="M500 400h100v100H500z"/><path fill="#aaabb0" d="M600 400h100v100H600z"/><path fill="#adb3b6" d="M700 400h100v100H700z"/><path fill="#c0ccd0" d="M0 500h100v100H0z"/><path fill="#c3ccd2" d="M100 500h100v100H100z"/><path fill="#c5ced2" d="M200 500h100v100H200z"/><path fill="#b9c1c5" d="M300 500h100v100H300z"/><path fill="#c0c6cb" d="M400 500h100v100H400z"/><path fill="#c5cbd0" d="M500 500h100v100H500z"/><path fill="#bec3c8" d="M600 500h100v100H600z"/><path fill="#b8c0c4" d="M700 500h100v100H700z"/></svg>