<svg xmlns="http://www.w3.org/2000/svg" viewBox="0 0 800 400"><defs/><path fill="#e4dbd2" d="M0 0h100v100H0z"/><path fill="#e1d8d0" d="M100 0h100v100H100z"/><path fill="#d4cac1" d="M200 0h100v100H200z"/><path fill="#d2c5bb" d="M300 0h100v100H300z"/><path fill="#cbbfb3" d="M400 0h100v100H400z"/><path fill="#c8bbb0" d="M500 0h100v100H500z"/><path fill="#c8bbb1" d="M600 0h100v100H600z"/><path fill="#ddd5cd" d="M700 0h100v100H700z"/><path fill="#e4dbd3" d="M0 100h100v100H0z"/><path fill="#d8cec5" d="M100 100h100v100H100z"/><path fill="#beafa2" d="M200 100h100v100H200z"/><path fill="#b9aa9d" d="M300 100h100v100H300z"/><path fill="#ae9d92" d="M400 100h100v100H400z"/><path fill="#ad9d92" d="M500 100h100v100H500z"/><path fill="#aa9b8e" d="M600 100h100v100H600z"/><path fill="#d2c8bd" d="M700 100h100v100H700z"/><path fill="#ded6cc" d="M0 200h100v100H0z"/><path fill="#d1c6bd" d="M100 200h100v100H100z"/><path fill="#c7bbb0" d="M200 200h100v100H200z"/><path fill="#c5b8ae" d="M300 200h100v100H300z"/><path fill="#bdaea5" d="M400 200h100v100H400z"/><path fill="#bcaea5" d="M500 200h100v100H500z"/><path fill="#ab9b90" d="M600 200h100v100H600z"/><path fill="#b3a499" d="M700 200h100v100H700z"/><path fill="#d5cbc0" d="M0 300h100v100H0z"/><path fill="#d1c7bd" d="M100 300h100v100H100z"/><path fill="#d5ccc2" d="M200 300h100v100H200z"/><path fill="#d3c8bf" d="M300 300h100v100H300z"/><path fill="#d1c6be" d="M400 300h100v100H400z"/><path fill="#c8bab1" d="M500 300h100v100H500z"/><path fill="#b9a99f" d="M600 300h100v100H600z"/><path fill="#ad9e95" d="M700 300h100v100H700z"/></svg>