<svg xmlns="http://www.w3.org/2000/svg" viewBox="0 0 800 500"><defs/><path fill="#a6a79c" d="M0 0h100v100H0z"/><path fill="#9faba4" d="M100 0h100v100H100z"/><path fill="#c2b8ad" d="M200 0h100v100H200z"/><path fill="#bcaa9a" d="M300 0h100v100H300z"/><path fill="#b3a597" d="M400 0h100v100H400z"/><path fill="#b5ab9f" d="M500 0h100v100H500z"/><path fill="#b8afa4" d="M600 0h100v100H600z"/><path fill="#aaa9a7" d="M700 0h100v100H700z"/><path fill="#99908a" d="M0 100h100v100H0z"/><path fill="#9da19d" d="M100 100h100v100H100z"/><path fill="#bab5ab" d="M200 100h100v100H200z"/><path fill="#baa99c" d="M300 100h100v100H300z"/><path fill="#b6a99f" d="M400 100h100v100H400z"/><path fill="#b0a296" d="M500 100h100v100H500z"/><path fill="#ada49a" d="M600 100h100v100H600z"/><path fill="#a5adae" d="M700 100h100v100H700z"/><path fill="#9f9792" d="M0 200h100v100H0z"/><path fill="#beb4b2" d="M100 200h100v100H100z"/><path fill="#bfbbb4" d="M200 200h100v100H200z"/><path fill="#bbb3ac" d="M300 200h100v100H300z"/><path fill="#b8aea8" d="M400 200h100v100H400z"/><path fill="#b2a29a" d="M500 200h100v100H500z"/><path fill="#aba1a0" d="M600 200h100v100H600z"/><path fill="#a6adab" d="M700 200h100v100H700z"/><path fill="#a49c96" d="M0 300h100v100H0z"/><path fill="#c3b8b7" d="M100 300h100v100H100z"/><path fill="#c2bab1" d="M200 300h100v100H200z"/><path fill="#c3b6ab" d="M300 300h100v100H300z"/><path fill="#bfb5ae" d="M400 300h100v100H400z"/><path fill="#bab0a8" d="M500 300h100v100H500z"/><path fill="#aba4a6" d="M600 300h100v100H600z"/><path fill="#a9b0ac" d="M700 300h100v100H700z"/><path fill="#a5a29b" d="M0 400h100v100H0z"/><path fill="#c3beb7" d="M100 400h100v100H100z"/><path fill="#c4c0b7" d="M200 400h100v100H200z"/><path fill="#c2bbb0" d="M300 400h100v100H300z"/><path fill="#c2b9b0" d="M400 400h100v100H400z"/><path fill="#bbb7ad" d="M500 400h100v100H500z"/><path fill="#adaca7" d="M600 400h100v100H600z"/><path fill="#b2b6b0" d="M700 400h100v100H700z"/></svg>