<svg xmlns="http://www.w3.org/2000/svg" viewBox="0 0 800 500"><defs/><path fill="#bbc1ce" d="M0 0h100v100H0z"/><path fill="#777da1" d="M100 0h100v100H100z"/><path fill="#9fa2bb" d="M200 0h100v100H200z"/><path fill="#9b9ab3" d="M300 0h100v100H300z"/><path fill="#9c9db6" d="M400 0h100v100H400z"/><path fill="#9d9cb6" d="M500 0h100v100H500z"/><path fill="#b6bacd" d="M600 0h100v100H600z"/><path fill="#d2d9e5" d="M700 0h100v100H700z"/><path fill="#9ba2ba" d="M0 100h100v100H0z"/><path fill="#2c3b69" d="M100 100h100v100H100z"/><path fill="#7d88ae" d="M200 100h100v100H200z"/><path fill="#6d75a9" d="M300 100h100v100H300z"/><path fill="#6e78ad" d="M400 100h100v100H400z"/><path fill="#5f6897" d="M500 100h100v100H500z"/><path fill="#838caf" d="M600 100h100v100H600z"/><path fill="#9397c1" d="M700 100h100v100H700z"/><path fill="#9097b1" d="M0 200h100v100H0z"/><path fill="#3e4879" d="M100 200h100v100H100z"/><path fill="#8990aa" d="M200 200h100v100H200z"/><path fill="#8f8caa" d="M300 200h100v100H300z"/><path fill="#928fb0" d="M400 200h100v100H400z"/><path fill="#8e89a8" d="M500 200h100v100H500z"/><path fill="#737c94" d="M600 200h100v100H600z"/><path fill="#74809a" d="M700 200h100v100H700z"/><path fill="#7e83a4" d="M0 300h100v100H0z"/><path fill="#232b63" d="M100 300h100v100H100z"/><path fill="#3f318d" d="M200 300h100v100H200z"/><path fill="#404b8f" d="M300 300h100v100H300z"/><path fill="#41477e" d="M400 300h100v100H400z"/><path fill="#44558b" d="M500 300h100v100H500z"/><path fill="#333977" d="M600 300h100v100H600z"/><path fill="#5e7588" d="M700 300h100v100H700z"/><path fill="#979cb1" d="M0 400h100v100H0z"/><path fill="#5f668d" d="M100 400h100v100H100z"/><path fill="#6b6fa7" d="M200 400h100v100H200z"/><path fill="#949fc3" d="M300 400h100v100H300z"/><path fill="#6a7399" d="M400 400h100v100H400z"/><path fill="#667ea0" d="M500 400h100v100H500z"/><path fill="#676c9f" d="M600 400h100v100H600z"/><path fill="#7f80a4" d="M700 400h100v100H700z"/></svg>