<svg xmlns="http://www.w3.org/2000/svg" viewBox="0 0 800 400"><defs/><path fill="#e8967e" d="M0 0h100v100H0z"/><path fill="#bc7f78" d="M100 0h100v100H100z"/><path fill="#ddc2c7" d="M200 0h100v100H200z"/><path fill="#f3d6dd" d="M300 0h100v100H300z"/><path fill="#f5d4db" d="M400 0h100v100H400z"/><path fill="#f9e1e5" d="M500 0h100v100H500z"/><path fill="#eac6c6" d="M600 0h100v100H600z"/><path fill="#b8bccf" d="M700 0h100v100H700z"/><path fill="#d89482" d="M0 100h100v100H0z"/><path fill="#b58284" d="M100 100h100v100H100z"/><path fill="#e1b8bc" d="M200 100h100v100H200z"/><path fill="#d4b3b6" d="M300 100h100v100H300z"/><path fill="#ecb3b8" d="M400 100h100v100H400z"/><path fill="#f4b3ba" d="M500 100h100v100H500z"/><path fill="#d6a29e" d="M600 100h100v100H600z"/><path fill="#a6b0ba" d="M700 100h100v100H700z"/><path fill="#cd8171" d="M0 200h100v100H0z"/><path fill="#b08b8b" d="M100 200h100v100H100z"/><path fill="#e9b4b3" d="M200 200h100v100H200z"/><path fill="#bfb6b2" d="M300 200h100v100H300z"/><path fill="#b98081" d="M400 200h100v100H400z"/><path fill="#a04c53" d="M500 200h100v100H500z"/><path fill="#8d7673" d="M600 200h100v100H600z"/><path fill="#95a3a6" d="M700 200h100v100H700z"/><path fill="#be847a" d="M0 300h100v100H0z"/><path fill="#b69587" d="M100 300h100v100H100z"/><path fill="#daad93" d="M200 300h100v100H200z"/><path fill="#cab5a8" d="M300 300h100v100H300z"/><path fill="#ca9f83" d="M400 300h100v100H400z"/><path fill="#b5907e" d="M500 300h100v100H500z"/><path fill="#c5a693" d="M600 300h100v100H600z"/><path fill="#d6cac2" d="M700 300h100v100H700z"/></svg>