<svg xmlns="http://www.w3.org/2000/svg" viewBox="0 0 800 500"><defs/><path fill="#dce0e1" d="M0 0h100v100H0z"/><path fill="#dddedc" d="M100 0h100v100H100z"/><path fill="#dcdfd9" d="M200 0h100v100H200z"/><path fill="#dcded7" d="M300 0h100v100H300z"/><path fill="#dfe0dc" d="M400 0h100v100H400z"/><path fill="#e3e2df" d="M500 0h100v100H500z"/><path fill="#dedcda" d="M600 0h100v100H600z"/><path fill="#dde1df" d="M700 0h100v100H700z"/><path fill="#c9ced0" d="M0 100h100v100H0z"/><path fill="#d1d3d4" d="M100 100h100v100H100z"/><path fill="#dcdcd8" d="M200 100h100v100H200z"/><path fill="#cdcdc3" d="M300 100h100v100H300z"/><path fill="#d7d7d1" d="M400 100h100v100H400z"/><path fill="#eaeae9" d="M500 100h100v100H500z"/><path fill="#dfdad8" d="M600 100h100v100H600z"/><path fill="#dbdfdc" d="M700 100h100v100H700z"/><path fill="#cfd5d6" d="M0 200h100v100H0z"/><path fill="#dcddda" d="M100 200h100v100H100z"/><path fill="#b6b9b8" d="M200 200h100v100H200z"/><path fill="#596564" d="M300 200h100v100H300z"/><path fill="#707a78" d="M400 200h100v100H400z"/><path fill="#f1f2f2" d="M500 200h100v100H500z"/><path fill="#fff" d="M600 200h100v100H600z"/><path fill="#e5e9e9" d="M700 200h100v100H700z"/><path fill="#c3c4c3" d="M0 300h100v100H0z"/><path fill="#aca498" d="M100 300h100v100H100z"/><path fill="#49514c" d="M200 300h100v100H200z"/><path fill="#717372" d="M300 300h100v100H300z"/><path fill="#464d4c" d="M400 300h100v100H400z"/><path fill="#898d81" d="M500 300h100v100H500z"/><path fill="#e4dfd3" d="M600 300h100v100H600z"/><path fill="#c1c4c4" d="M700 300h100v100H700z"/><path fill="#d8d3cc" d="M0 400h100v100H0z"/><path fill="#bcb2aa" d="M100 400h100v100H100z"/><path fill="#aea4a5" d="M200 400h100v100H200z"/><path fill="#a09d9c" d="M300 400h100v100H300z"/><path fill="#939291" d="M400 400h100v100H400z"/><path fill="#b1a8a1" d="M500 400h100v100H500z"/><path fill="#baafa8" d="M600 400h100v100H600z"/><path fill="#c0b7b7" d="M700 400h100v100H700z"/></svg>