<svg xmlns="http://www.w3.org/2000/svg" viewBox="0 0 800 500"><defs/><path fill="#d2d4c6" d="M0 0h100v100H0z"/><path fill="#b9b29c" d="M100 0h100v100H100z"/><path fill="#d4cdc0" d="M200 0h100v100H200z"/><path fill="#dfd4c7" d="M300 0h100v100H300z"/><path fill="#e4e1de" d="M400 0h100v100H400z"/><path fill="#dfdeda" d="M500 0h100v100H500z"/><path fill="#ced0c9" d="M600 0h100v100H600z"/><path fill="#c8c6c4" d="M700 0h100v100H700z"/><path fill="#b1b7a6" d="M0 100h100v100H0z"/><path fill="#aa9f7c" d="M100 100h100v100H100z"/><path fill="#95a28c" d="M200 100h100v100H200z"/><path fill="#b2a08d" d="M300 100h100v100H300z"/><path fill="#a4b0b7" d="M400 100h100v100H400z"/><path fill="#a0a9ad" d="M500 100h100v100H500z"/><path fill="#baaba8" d="M600 100h100v100H600z"/><path fill="#bec4c6" d="M700 100h100v100H700z"/><path fill="#c3c2af" d="M0 200h100v100H0z"/><path fill="#b3a183" d="M100 200h100v100H100z"/><path fill="#897c75" d="M200 200h100v100H200z"/><path fill="#b69891" d="M300 200h100v100H300z"/><path fill="#abaa94" d="M400 200h100v100H400z"/><path fill="#9a9b85" d="M500 200h100v100H500z"/><path fill="#b9b9b1" d="M600 200h100v100H600z"/><path fill="#b6c0cb" d="M700 200h100v100H700z"/><path fill="#bab39e" d="M0 300h100v100H0z"/><path fill="#968e70" d="M100 300h100v100H100z"/><path fill="#81836b" d="M200 300h100v100H200z"/><path fill="#6d7c6f" d="M300 300h100v100H300z"/><path fill="#86a79b" d="M400 300h100v100H400z"/><path fill="#acb290" d="M500 300h100v100H500z"/><path fill="#ad9d80" d="M600 300h100v100H600z"/><path fill="#c3b6ad" d="M700 300h100v100H700z"/><path fill="#c8bfaa" d="M0 400h100v100H0z"/><path fill="#abbba2" d="M100 400h100v100H100z"/><path fill="#94c0a8" d="M200 400h100v100H200z"/><path fill="#8bac9d" d="M300 400h100v100H300z"/><path fill="#adc1ba" d="M400 400h100v100H400z"/><path fill="#c1cac6" d="M500 400h100v100H500z"/><path fill="#cec2b0" d="M600 400h100v100H600z"/><path fill="#c7bca6" d="M700 400h100v100H700z"/></svg>