<svg xmlns="http://www.w3.org/2000/svg" viewBox="0 0 800 400"><defs/><path fill="#8d7280" d="M0 0h100v100H0z"/><path fill="#8b7e89" d="M100 0h100v100H100z"/><path fill="#8c7a87" d="M200 0h100v100H200z"/><path fill="#908a94" d="M300 0h100v100H300z"/><path fill="#788a79" d="M400 0h100v100H400z"/><path fill="#88806d" d="M500 0h100v100H500z"/><path fill="#887f81" d="M600 0h100v100H600z"/><path fill="#6a647b" d="M700 0h100v100H700z"/><path fill="#847080" d="M0 100h100v100H0z"/><path fill="#847b85" d="M100 100h100v100H100z"/><path fill="#72687c" d="M200 100h100v100H200z"/><path fill="#807987" d="M300 100h100v100H300z"/><path fill="#897e6b" d="M400 100h100v100H400z"/><path fill="#458872" d="M500 100h100v100H500z"/><path fill="#355278" d="M600 100h100v100H600z"/><path fill="#3e3573" d="M700 100h100v100H700z"/><path fill="#414c50" d="M0 200h100v100H0z"/><path fill="#567655" d="M100 200h100v100H100z"/><path fill="#3f5b3f" d="M200 200h100v100H200z"/><path fill="#495055" d="M300 200h100v100H300z"/><path fill="#8e827f" d="M400 200h100v100H400z"/><path fill="#7d6d5c" d="M500 200h100v100H500z"/><path fill="#6f6c63" d="M600 200h100v100H600z"/><path fill="#706356" d="M700 200h100v100H700z"/><path fill="#343b42" d="M0 300h100v100H0z"/><path fill="#39434d" d="M100 300h100v100H100z"/><path fill="#353e46" d="M200 300h100v100H200z"/><path fill="#3f454f" d="M300 300h100v100H300z"/><path fill="#86817e" d="M400 300h100v100H400z"/><path fill="#a37a5f" d="M500 300h100v100H500z"/><path fill="#999382" d="M600 300h100v100H600z"/><path fill="#a18373" d="M700 300h100v100H700z"/></svg>