<svg xmlns="http://www.w3.org/2000/svg" viewBox="0 0 800 500"><defs/><path fill="#522342" d="M0 0h100v100H0z"/><path fill="#880f86" d="M100 0h100v100H100z"/><path fill="#532540" d="M200 0h100v100H200z"/><path fill="#3c2c25" d="M300 0h100v100H300z"/><path fill="#3c2829" d="M400 0h100v100H400z"/><path fill="#2c1e27" d="M500 0h100v100H500z"/><path fill="#302127" d="M600 0h100v100H600z"/><path fill="#442926" d="M700 0h100v100H700z"/><path fill="#551d49" d="M0 100h100v100H0z"/><path fill="#5b1353" d="M100 100h100v100H100z"/><path fill="#4f2939" d="M200 100h100v100H200z"/><path fill="#4e3628" d="M300 100h100v100H300z"/><path fill="#4a331f" d="M400 100h100v100H400z"/><path fill="#272132" d="M500 100h100v100H500z"/><path fill="#302738" d="M600 100h100v100H600z"/><path fill="#54211c" d="M700 100h100v100H700z"/><path fill="#371b27" d="M0 200h100v100H0z"/><path fill="#441f28" d="M100 200h100v100H100z"/><path fill="#6d4825" d="M200 200h100v100H200z"/><path fill="#876825" d="M300 200h100v100H300z"/><path fill="#8c6e33" d="M400 200h100v100H400z"/><path fill="#65481a" d="M500 200h100v100H500z"/><path fill="#473127" d="M600 200h100v100H600z"/><path fill="#492825" d="M700 200h100v100H700z"/><path fill="#2d1a1c" d="M0 300h100v100H0z"/><path fill="#512d2c" d="M100 300h100v100H100z"/><path fill="#886122" d="M200 300h100v100H200z"/><path fill="#a18726" d="M300 300h100v100H300z"/><path fill="#bba146" d="M400 300h100v100H400z"/><path fill="#8b701c" d="M500 300h100v100H500z"/><path fill="#5e4421" d="M600 300h100v100H600z"/><path fill="#432d28" d="M700 300h100v100H700z"/><path fill="#382423" d="M0 400h100v100H0z"/><path fill="#493f2c" d="M100 400h100v100H100z"/><path fill="#756032" d="M200 400h100v100H200z"/><path fill="#876916" d="M300 400h100v100H300z"/><path fill="#937721" d="M400 400h100v100H400z"/><path fill="#705626" d="M500 400h100v100H500z"/><path fill="#6e5c3d" d="M600 400h100v100H600z"/><path fill="#382822" d="M700 400h100v100H700z"/></svg>