<svg xmlns="http://www.w3.org/2000/svg" viewBox="0 0 800 600"><defs/><path fill="#505b62" d="M0 0h100v100H0z"/><path fill="#9f8f55" d="M100 0h100v100H100z"/><path fill="#55775c" d="M200 0h100v100H200z"/><path fill="#3057a4" d="M300 0h100v100H300z"/><path fill="#3450b3" d="M400 0h100v100H400z"/><path fill="#314dc3" d="M500 0h100v100H500z"/><path fill="#294097" d="M600 0h100v100H600z"/><path fill="#677381" d="M700 0h100v100H700z"/><path fill="#707873" d="M0 100h100v100H0z"/><path fill="#aaab66" d="M100 100h100v100H100z"/><path fill="#527569" d="M200 100h100v100H200z"/><path fill="#816983" d="M300 100h100v100H300z"/><path fill="#886aad" d="M400 100h100v100H400z"/><path fill="#9260d0" d="M500 100h100v100H500z"/><path fill="#796ca4" d="M600 100h100v100H600z"/><path fill="#6c8086" d="M700 100h100v100H700z"/><path fill="#989b89" d="M0 200h100v100H0z"/><path fill="#b0a36c" d="M100 200h100v100H100z"/><path fill="#927a8c" d="M200 200h100v100H200z"/><path fill="#9a889c" d="M300 200h100v100H300z"/><path fill="#75717f" d="M400 200h100v100H400z"/><path fill="#62527b" d="M500 200h100v100H500z"/><path fill="#8f7e7c" d="M600 200h100v100H600z"/><path fill="#728d67" d="M700 200h100v100H700z"/><path fill="#adae8e" d="M0 300h100v100H0z"/><path fill="#a8966c" d="M100 300h100v100H100z"/><path fill="#d592b5" d="M200 300h100v100H200z"/><path fill="#f6a9ec" d="M300 300h100v100H300z"/><path fill="#eca1e1" d="M400 300h100v100H400z"/><path fill="#d791c4" d="M500 300h100v100H500z"/><path fill="#ab8689" d="M600 300h100v100H600z"/><path fill="#59545f" d="M700 300h100v100H700z"/><path fill="#b3ac86" d="M0 400h100v100H0z"/><path fill="#a1aa9f" d="M100 400h100v100H100z"/><path fill="#aa9cb0" d="M200 400h100v100H200z"/><path fill="#c1a2bc" d="M300 400h100v100H300z"/><path fill="#c6abc2" d="M400 400h100v100H400z"/><path fill="#b6a6b7" d="M500 400h100v100H500z"/><path fill="#b4aab7" d="M600 400h100v100H600z"/><path fill="#a6789f" d="M700 400h100v100H700z"/><path fill="#82858a" d="M0 500h100v100H0z"/><path fill="#a3a4ac" d="M100 500h100v100H100z"/><path fill="#b6b8bd" d="M200 500h100v100H200z"/><path fill="#b2b8bb" d="M300 500h100v100H300z"/><path fill="#b4b8bc" d="M400 500h100v100H400z"/><path fill="#9c9ea1" d="M500 500h100v100H500z"/><path fill="#918f94" d="M600 500h100v100H600z"/><path fill="#8a8b8c" d="M700 500h100v100H700z"/></svg>