<svg xmlns="http://www.w3.org/2000/svg" viewBox="0 0 800 500"><defs/><path fill="#718882" d="M0 0h100v100H0z"/><path fill="#9eb3a7" d="M100 0h100v100H100z"/><path fill="#bac2c3" d="M200 0h100v100H200z"/><path fill="#c7cac1" d="M300 0h100v100H300z"/><path fill="#c5b8b0" d="M400 0h100v100H400z"/><path fill="#d3c2b8" d="M500 0h100v100H500z"/><path fill="#ccbab6" d="M600 0h100v100H600z"/><path fill="#cbb9b6" d="M700 0h100v100H700z"/><path fill="#858988" d="M0 100h100v100H0z"/><path fill="#8b8f87" d="M100 100h100v100H100z"/><path fill="#9d968e" d="M200 100h100v100H200z"/><path fill="#b7a57e" d="M300 100h100v100H300z"/><path fill="#8e8365" d="M400 100h100v100H400z"/><path fill="#948878" d="M500 100h100v100H500z"/><path fill="#958d78" d="M600 100h100v100H600z"/><path fill="#ac9783" d="M700 100h100v100H700z"/><path fill="#545b55" d="M0 200h100v100H0z"/><path fill="#7a9076" d="M100 200h100v100H100z"/><path fill="#d1d093" d="M200 200h100v100H200z"/><path fill="#cccda8" d="M300 200h100v100H300z"/><path fill="#a0a082" d="M400 200h100v100H400z"/><path fill="#6e6c56" d="M500 200h100v100H500z"/><path fill="#7e825e" d="M600 200h100v100H600z"/><path fill="#848457" d="M700 200h100v100H700z"/><path fill="#434b47" d="M0 300h100v100H0z"/><path fill="#988e69" d="M100 300h100v100H100z"/><path fill="#b7b082" d="M200 300h100v100H200z"/><path fill="#a59e7c" d="M300 300h100v100H300z"/><path fill="#a19887" d="M400 300h100v100H400z"/><path fill="#59674a" d="M500 300h100v100H500z"/><path fill="#58a26e" d="M600 300h100v100H600z"/><path fill="#6f9c91" d="M700 300h100v100H700z"/><path fill="#8a7d85" d="M0 400h100v100H0z"/><path fill="#9c9392" d="M100 400h100v100H100z"/><path fill="#928e84" d="M200 400h100v100H200z"/><path fill="#938075" d="M300 400h100v100H300z"/><path fill="#c29a6e" d="M400 400h100v100H400z"/><path fill="#8ec57f" d="M500 400h100v100H500z"/><path fill="#55c8a3" d="M600 400h100v100H600z"/><path fill="#8da09d" d="M700 400h100v100H700z"/></svg>