<svg xmlns="http://www.w3.org/2000/svg" viewBox="0 0 800 400"><defs/><path fill="#fcfcfd" d="M0 0h100v100H0z"/><path fill="#eaeaec" d="M100 0h100v100H100zm100 0h100v100H200z"/><path fill="#f0f0f1" d="M300 0h100v100H300z"/><path fill="#fbfbfb" d="M400 0h100v100H400z"/><path fill="#fafafa" d="M500 0h100v100H500z"/><path fill="#f6f6f7" d="M600 0h100v100H600z"/><path fill="#fdfdfd" d="M700 0h100v100H700z"/><path fill="#f7f7f8" d="M0 100h100v100H0z"/><path fill="#e8e8ea" d="M100 100h100v100H100z"/><path fill="#e9e8eb" d="M200 100h100v100H200z"/><path fill="#f2f2f2" d="M300 100h100v100H300z"/><path fill="#f8f8f9" d="M400 100h100v100H400z"/><path fill="#eeeef0" d="M500 100h100v100H500z"/><path fill="#efefef" d="M600 100h100v100H600z"/><path fill="#fbfbfb" d="M700 100h100v100H700z"/><path fill="#f2f2f3" d="M0 200h100v100H0z"/><path fill="#ededee" d="M100 200h100v100H100z"/><path fill="#efeff1" d="M200 200h100v100H200z"/><path fill="#f3f3f4" d="M300 200h100v100H300z"/><path fill="#eff0ef" d="M400 200h100v100H400z"/><path fill="#f1f1f1" d="M500 200h100v100H500z"/><path fill="#f0f0f1" d="M600 200h100v100H600z"/><path fill="#f8f8f8" d="M700 200h100v100H700z"/><path fill="#eeedee" d="M0 300h100v100H0z"/><path fill="#f1f1f1" d="M100 300h100v100H100z"/><path fill="#f7f7f7" d="M200 300h100v100H200z"/><path fill="#f1f0f1" d="M300 300h100v100H300z"/><path fill="#efeef0" d="M400 300h100v100H400z"/><path fill="#efefef" d="M500 300h100v100H500z"/><path fill="#f7f7f7" d="M600 300h100v100H600z"/><path fill="#f8f8f9" d="M700 300h100v100H700z"/></svg>