<svg xmlns="http://www.w3.org/2000/svg" viewBox="0 0 800 500"><defs/><path fill="#202020" d="M0 0h100v100H0z"/><path fill="#292a2a" d="M100 0h100v100H100z"/><path fill="#343333" d="M200 0h100v100H200z"/><path fill="#563736" d="M300 0h100v100H300z"/><path fill="#613838" d="M400 0h100v100H400z"/><path fill="#433434" d="M500 0h100v100H500z"/><path fill="#2b2d2d" d="M600 0h100v100H600z"/><path fill="#232323" d="M700 0h100v100H700z"/><path fill="#262626" d="M0 100h100v100H0z"/><path fill="#2f2f2f" d="M100 100h100v100H100z"/><path fill="#633a39" d="M200 100h100v100H200z"/><path fill="#8a534f" d="M300 100h100v100H300z"/><path fill="#855d5c" d="M400 100h100v100H400z"/><path fill="#965a59" d="M500 100h100v100H500z"/><path fill="#513433" d="M600 100h100v100H600z"/><path fill="#252a2a" d="M700 100h100v100H700z"/><path fill="#262828" d="M0 200h100v100H0z"/><path fill="#3a3030" d="M100 200h100v100H100z"/><path fill="#7b4747" d="M200 200h100v100H200z"/><path fill="#735655" d="M300 200h100v100H300z"/><path fill="#6e5857" d="M400 200h100v100H400z"/><path fill="#996866" d="M500 200h100v100H500z"/><path fill="#713f3f" d="M600 200h100v100H600z"/><path fill="#242b2a" d="M700 200h100v100H700z"/><path fill="#262727" d="M0 300h100v100H0z"/><path fill="#33302f" d="M100 300h100v100H100z"/><path fill="#633b3a" d="M200 300h100v100H200z"/><path fill="#825857" d="M300 300h100v100H300z"/><path fill="#895e5b" d="M400 300h100v100H400z"/><path fill="#9c605e" d="M500 300h100v100H500z"/><path fill="#513a39" d="M600 300h100v100H600z"/><path fill="#252929" d="M700 300h100v100H700z"/><path fill="#222121" d="M0 400h100v100H0z"/><path fill="#2a2c2c" d="M100 400h100v100H100z"/><path fill="#353232" d="M200 400h100v100H200z"/><path fill="#613534" d="M300 400h100v100H300z"/><path fill="#764441" d="M400 400h100v100H400z"/><path fill="#553b3a" d="M500 400h100v100H500z"/><path fill="#2c2e2d" d="M600 400h100v100H600z"/><path fill="#252525" d="M700 400h100v100H700z"/></svg>