<svg xmlns="http://www.w3.org/2000/svg" viewBox="0 0 800 600"><defs/><path fill="#e4a272" d="M0 0h100v100H0z"/><path fill="#bc6545" d="M100 0h100v100H100z"/><path fill="#dec0c0" d="M200 0h100v100H200z"/><path fill="#e8edb6" d="M300 0h100v100H300z"/><path fill="#d9c4a6" d="M400 0h100v100H400z"/><path fill="#d4d8d7" d="M500 0h100v100H500z"/><path fill="#ccd8e7" d="M600 0h100v100H600z"/><path fill="#e3bcab" d="M700 0h100v100H700z"/><path fill="#e19968" d="M0 100h100v100H0z"/><path fill="#b65d44" d="M100 100h100v100H100z"/><path fill="#a9a695" d="M200 100h100v100H200z"/><path fill="#e1f2f9" d="M300 100h100v100H300z"/><path fill="#d4c9b8" d="M400 100h100v100H400z"/><path fill="#acb5c0" d="M500 100h100v100H500z"/><path fill="#bcdcf4" d="M600 100h100v100H600z"/><path fill="#d2b9a9" d="M700 100h100v100H700z"/><path fill="#da8a5d" d="M0 200h100v100H0z"/><path fill="#b5634d" d="M100 200h100v100H100z"/><path fill="#cbc7a8" d="M200 200h100v100H200z"/><path fill="#e4f1c4" d="M300 200h100v100H300z"/><path fill="#ccbda2" d="M400 200h100v100H400z"/><path fill="#b3c6d9" d="M500 200h100v100H500z"/><path fill="#d5e6cf" d="M600 200h100v100H600z"/><path fill="#d8bb8b" d="M700 200h100v100H700z"/><path fill="#ce7f56" d="M0 300h100v100H0z"/><path fill="#ba7563" d="M100 300h100v100H100z"/><path fill="#e8d0c2" d="M200 300h100v100H200z"/><path fill="#e8d1b9" d="M300 300h100v100H300z"/><path fill="#decebf" d="M400 300h100v100H400z"/><path fill="#ccc6d2" d="M500 300h100v100H500z"/><path fill="#cde0e1" d="M600 300h100v100H600z"/><path fill="#e3c6ab" d="M700 300h100v100H700z"/><path fill="#c66c46" d="M0 400h100v100H0z"/><path fill="#c48b83" d="M100 400h100v100H100z"/><path fill="#e7c3d8" d="M200 400h100v100H200z"/><path fill="#e4becf" d="M300 400h100v100H300z"/><path fill="#e9d9d3" d="M400 400h100v100H400z"/><path fill="#dbd6d7" d="M500 400h100v100H500z"/><path fill="#cde1f0" d="M600 400h100v100H600z"/><path fill="#dad8d7" d="M700 400h100v100H700z"/><path fill="#bb6a4d" d="M0 500h100v100H0z"/><path fill="#cfa4a0" d="M100 500h100v100H100z"/><path fill="#d6c6d5" d="M200 500h100v100H200z"/><path fill="#dec8d1" d="M300 500h100v100H300z"/><path fill="#e8d7cf" d="M400 500h100v100H400z"/><path fill="#e2dcdc" d="M500 500h100v100H500z"/><path fill="#e3e5e8" d="M600 500h100v100H600z"/><path fill="#e1dede" d="M700 500h100v100H700z"/></svg>