<svg xmlns="http://www.w3.org/2000/svg" viewBox="0 0 800 600"><defs/><path fill="#887772" d="M0 0h100v100H0z"/><path fill="#90807d" d="M100 0h100v100H100z"/><path fill="#99847e" d="M200 0h100v100H200z"/><path fill="#a99992" d="M300 0h100v100H300z"/><path fill="#9e918f" d="M400 0h100v100H400z"/><path fill="#826a62" d="M500 0h100v100H500z"/><path fill="#826759" d="M600 0h100v100H600z"/><path fill="#805a4e" d="M700 0h100v100H700z"/><path fill="#55362f" d="M0 100h100v100H0z"/><path fill="#422b24" d="M100 100h100v100H100z"/><path fill="#4f3532" d="M200 100h100v100H200z"/><path fill="#483737" d="M300 100h100v100H300z"/><path fill="#493c3e" d="M400 100h100v100H400z"/><path fill="#68585e" d="M500 100h100v100H500z"/><path fill="#756450" d="M600 100h100v100H600z"/><path fill="#7a725a" d="M700 100h100v100H700z"/><path fill="#6a4a3a" d="M0 200h100v100H0z"/><path fill="#605651" d="M100 200h100v100H100z"/><path fill="#625b5b" d="M200 200h100v100H200z"/><path fill="#6e6463" d="M300 200h100v100H300z"/><path fill="#7f7875" d="M400 200h100v100H400z"/><path fill="#807979" d="M500 200h100v100H500z"/><path fill="#6a6566" d="M600 200h100v100H600z"/><path fill="#575151" d="M700 200h100v100H700z"/><path fill="#967a64" d="M0 300h100v100H0z"/><path fill="#705f5b" d="M100 300h100v100H100z"/><path fill="#473c3c" d="M200 300h100v100H200z"/><path fill="#5f5856" d="M300 300h100v100H300z"/><path fill="#4a4545" d="M400 300h100v100H400z"/><path fill="#4b4547" d="M500 300h100v100H500z"/><path fill="#635d5d" d="M600 300h100v100H600z"/><path fill="#867d77" d="M700 300h100v100H700z"/><path fill="#9a7c62" d="M0 400h100v100H0z"/><path fill="#47332d" d="M100 400h100v100H100z"/><path fill="#181012" d="M200 400h100v100H200z"/><path fill="#322c2a" d="M300 400h100v100H300z"/><path fill="#686366" d="M400 400h100v100H400z"/><path fill="#7a7375" d="M500 400h100v100H500z"/><path fill="#9c928e" d="M600 400h100v100H600z"/><path fill="#eee9e3" d="M700 400h100v100H700z"/><path fill="#2b1d19" d="M0 500h100v100H0z"/><path fill="#272424" d="M100 500h100v100H100z"/><path fill="#6b6869" d="M200 500h100v100H200z"/><path fill="#9d9799" d="M300 500h100v100H300z"/><path fill="#8d8685" d="M400 500h100v100H400z"/><path fill="#b0a7a0" d="M500 500h100v100H500z"/><path fill="#f1e8e1" d="M600 500h100v100H600z"/><path fill="#f3ebea" d="M700 500h100v100H700z"/></svg>