<svg xmlns="http://www.w3.org/2000/svg" viewBox="0 0 800 400"><defs/><path fill="#61554d" d="M0 0h100v100H0z"/><path fill="#805d42" d="M100 0h100v100H100z"/><path fill="#8f8887" d="M200 0h100v100H200z"/><path fill="#738c73" d="M300 0h100v100H300z"/><path fill="#558958" d="M400 0h100v100H400z"/><path fill="#b2b1b1" d="M500 0h100v100H500z"/><path fill="#bfbebc" d="M600 0h100v100H600z"/><path fill="#67605c" d="M700 0h100v100H700z"/><path fill="#6a5548" d="M0 100h100v100H0z"/><path fill="#7d604a" d="M100 100h100v100H100z"/><path fill="#909097" d="M200 100h100v100H200z"/><path fill="#688e62" d="M300 100h100v100H300z"/><path fill="#7b7341" d="M400 100h100v100H400z"/><path fill="#aa8f8e" d="M500 100h100v100H500z"/><path fill="#a3a9aa" d="M600 100h100v100H600z"/><path fill="#686361" d="M700 100h100v100H700z"/><path fill="#725a48" d="M0 200h100v100H0z"/><path fill="#79583e" d="M100 200h100v100H100z"/><path fill="#957d70" d="M200 200h100v100H200z"/><path fill="#839a8f" d="M300 200h100v100H300z"/><path fill="#a89744" d="M400 200h100v100H400z"/><path fill="#90a08c" d="M500 200h100v100H500z"/><path fill="#8c7f77" d="M600 200h100v100H600z"/><path fill="#6e5b4f" d="M700 200h100v100H700z"/><path fill="#7e5b42" d="M0 300h100v100H0z"/><path fill="#89542c" d="M100 300h100v100H100z"/><path fill="#965729" d="M200 300h100v100H200z"/><path fill="#556066" d="M300 300h100v100H300z"/><path fill="#44798f" d="M400 300h100v100H400z"/><path fill="#578997" d="M500 300h100v100H500z"/><path fill="#9e663d" d="M600 300h100v100H600z"/><path fill="#905933" d="M700 300h100v100H700z"/></svg>