<svg xmlns="http://www.w3.org/2000/svg" viewBox="0 0 800 400"><defs/><path fill="#dfdde0" d="M0 0h100v100H0z"/><path fill="#e6e5e6" d="M100 0h100v100H100z"/><path fill="#d8d5d9" d="M200 0h100v100H200z"/><path fill="#dedcde" d="M300 0h100v100H300z"/><path fill="#dedcdf" d="M400 0h100v100H400z"/><path fill="#e6e4e7" d="M500 0h100v100H500z"/><path fill="#e2e0e3" d="M600 0h100v100H600z"/><path fill="#e5e3e6" d="M700 0h100v100H700z"/><path fill="#d8d6d8" d="M0 100h100v100H0z"/><path fill="#dcdbdd" d="M100 100h100v100H100z"/><path fill="#d5d4d6" d="M200 100h100v100H200z"/><path fill="#e0dfe1" d="M300 100h100v100H300z"/><path fill="#e8e6e9" d="M400 100h100v100H400z"/><path fill="#e7e7e7" d="M500 100h100v100H500z"/><path fill="#dddcdd" d="M600 100h100v100H600z"/><path fill="#d0ced1" d="M700 100h100v100H700z"/><path fill="#e3e2e4" d="M0 200h100v100H0z"/><path fill="#cecdcf" d="M100 200h100v100H100z"/><path fill="#d5d4d5" d="M200 200h100v100H200z"/><path fill="#d3d2d5" d="M300 200h100v100H300z"/><path fill="#e7e6e7" d="M400 200h100v100H400z"/><path fill="#e0e0e1" d="M500 200h100v100H500z"/><path fill="#dedcde" d="M600 200h100v100H600z"/><path fill="#d5d3d6" d="M700 200h100v100H700z"/><path fill="#e7e5e7" d="M0 300h100v100H0z"/><path fill="#e5e4e6" d="M100 300h100v100H100z"/><path fill="#fbfbfb" d="M200 300h100v100H200z"/><path fill="#f6f6f6" d="M300 300h100v100H300z"/><path fill="#f3f3f3" d="M400 300h100v100H400z"/><path fill="#cbcacb" d="M500 300h100v100H500z"/><path fill="#deddde" d="M600 300h100v100H600z"/><path fill="#f3f3f4" d="M700 300h100v100H700z"/></svg>