<svg xmlns="http://www.w3.org/2000/svg" viewBox="0 0 800 600"><defs/><path fill="#f8f7f4" d="M0 0h100v100H0z"/><path fill="#eff0eb" d="M100 0h100v100H100z"/><path fill="#f2f1f0" d="M200 0h100v100H200z"/><path fill="#faf8f8" d="M300 0h100v100H300z"/><path fill="#fefefd" d="M400 0h100v100H400z"/><path fill="#fcfbfa" d="M500 0h100v100H500z"/><path fill="#fcfcfa" d="M600 0h100v100H600z"/><path fill="#fdfcfa" d="M700 0h100v100H700z"/><path fill="#e7dac4" d="M0 100h100v100H0z"/><path fill="#a3a074" d="M100 100h100v100H100z"/><path fill="#d4d3ca" d="M200 100h100v100H200z"/><path fill="#ebe7f3" d="M300 100h100v100H300z"/><path fill="#ebeaed" d="M400 100h100v100H400z"/><path fill="#dbe6de" d="M500 100h100v100H500z"/><path fill="#d9d9cd" d="M600 100h100v100H600z"/><path fill="#e0d7c2" d="M700 100h100v100H700z"/><path fill="#d7ceb5" d="M0 200h100v100H0z"/><path fill="#b3a07d" d="M100 200h100v100H100z"/><path fill="#d5d5cc" d="M200 200h100v100H200z"/><path fill="#d3d5d0" d="M300 200h100v100H300z"/><path fill="#d1dde5" d="M400 200h100v100H400z"/><path fill="#ccdada" d="M500 200h100v100H500z"/><path fill="#c0c8c4" d="M600 200h100v100H600z"/><path fill="#9f9c93" d="M700 200h100v100H700z"/><path fill="#bab792" d="M0 300h100v100H0z"/><path fill="#c6af89" d="M100 300h100v100H100z"/><path fill="#c7ccce" d="M200 300h100v100H200z"/><path fill="#d0cdc5" d="M300 300h100v100H300z"/><path fill="#dbc8b9" d="M400 300h100v100H400z"/><path fill="#d7ccba" d="M500 300h100v100H500z"/><path fill="#c4bba8" d="M600 300h100v100H600z"/><path fill="#92877c" d="M700 300h100v100H700z"/><path fill="#c9b590" d="M0 400h100v100H0z"/><path fill="#b69a6c" d="M100 400h100v100H100z"/><path fill="#c9c0ab" d="M200 400h100v100H200z"/><path fill="#d5c0a9" d="M300 400h100v100H300z"/><path fill="#d1c2a4" d="M400 400h100v100H400z"/><path fill="#c9c1a4" d="M500 400h100v100H500z"/><path fill="#b7a786" d="M600 400h100v100H600z"/><path fill="#b4a682" d="M700 400h100v100H700z"/><path fill="#f0e9e0" d="M0 500h100v100H0z"/><path fill="#f0eadd" d="M100 500h100v100H100z"/><path fill="#f2ebe0" d="M200 500h100v100H200z"/><path fill="#f1ece2" d="M300 500h100v100H300z"/><path fill="#f2eee5" d="M400 500h100v100H400z"/><path fill="#eeebdf" d="M500 500h100v100H500z"/><path fill="#e4dfd1" d="M600 500h100v100H600z"/><path fill="#e5e1d5" d="M700 500h100v100H700z"/></svg>