<svg xmlns="http://www.w3.org/2000/svg" viewBox="0 0 800 500"><defs/><path fill="#f7f7f8" d="M0 0h100v100H0z"/><path fill="#bab0a7" d="M100 0h100v100H100z"/><path fill="#cac1b7" d="M200 0h100v100H200z"/><path fill="#f9f9f9" d="M300 0h100v100H300z"/><path fill="#e0e0df" d="M400 0h100v100H400z"/><path fill="#dad8d6" d="M500 0h100v100H500z"/><path fill="#f2f2f2" d="M600 0h100v100H600z"/><path fill="#f3f3f3" d="M700 0h100v100H700z"/><path fill="#f0f0ef" d="M0 100h100v100H0z"/><path fill="#806e5a" d="M100 100h100v100H100z"/><path fill="#bfb1a7" d="M200 100h100v100H200z"/><path fill="#efeceb" d="M300 100h100v100H300z"/><path fill="#c5c0bd" d="M400 100h100v100H400z"/><path fill="#bbb2a9" d="M500 100h100v100H500z"/><path fill="#f1edea" d="M600 100h100v100H600z"/><path fill="#f8f8f9" d="M700 100h100v100H700z"/><path fill="#dfdcd8" d="M0 200h100v100H0z"/><path fill="#908170" d="M100 200h100v100H100z"/><path fill="#d2d1d2" d="M200 200h100v100H200z"/><path fill="#c1b9b3" d="M300 200h100v100H300z"/><path fill="#b8a28e" d="M400 200h100v100H400z"/><path fill="#cdc5be" d="M500 200h100v100H500z"/><path fill="#c5b9b1" d="M600 200h100v100H600z"/><path fill="#f1f0ef" d="M700 200h100v100H700z"/><path fill="#c3beb7" d="M0 300h100v100H0z"/><path fill="#7d6243" d="M100 300h100v100H100z"/><path fill="#807059" d="M200 300h100v100H200z"/><path fill="#7e6e5a" d="M300 300h100v100H300z"/><path fill="#987958" d="M400 300h100v100H400z"/><path fill="#967b5e" d="M500 300h100v100H500z"/><path fill="#9b7f5f" d="M600 300h100v100H600z"/><path fill="#e6e1da" d="M700 300h100v100H700z"/><path fill="#d0c9c2" d="M0 400h100v100H0z"/><path fill="#ae987e" d="M100 400h100v100H100z"/><path fill="#c1ac90" d="M200 400h100v100H200z"/><path fill="#bba88f" d="M300 400h100v100H300z"/><path fill="#b29e85" d="M400 400h100v100H400z"/><path fill="#b8a288" d="M500 400h100v100H500z"/><path fill="#bba281" d="M600 400h100v100H600z"/><path fill="#d5c9bc" d="M700 400h100v100H700z"/></svg>