<svg xmlns="http://www.w3.org/2000/svg" viewBox="0 0 800 600"><defs/><path fill="#bdb699" d="M0 0h100v100H0z"/><path fill="#beb89d" d="M100 0h100v100H100z"/><path fill="#c6bdaa" d="M200 0h100v100H200z"/><path fill="#cec3b2" d="M300 0h100v100H300z"/><path fill="#cfc7b6" d="M400 0h100v100H400z"/><path fill="#cdc6bc" d="M500 0h100v100H500z"/><path fill="#cac3bd" d="M600 0h100v100H600z"/><path fill="#c2beb9" d="M700 0h100v100H700z"/><path fill="#a4aa6c" d="M0 100h100v100H0z"/><path fill="#879354" d="M100 100h100v100H100z"/><path fill="#b4ad9c" d="M200 100h100v100H200z"/><path fill="#bcb9ab" d="M300 100h100v100H300z"/><path fill="#c4c0b2" d="M400 100h100v100H400z"/><path fill="#beb8a5" d="M500 100h100v100H500z"/><path fill="#b7b1a5" d="M600 100h100v100H600z"/><path fill="#c0b4ac" d="M700 100h100v100H700z"/><path fill="#889842" d="M0 200h100v100H0z"/><path fill="#94946c" d="M100 200h100v100H100z"/><path fill="#ac9e9c" d="M200 200h100v100H200z"/><path fill="#acb3ac" d="M300 200h100v100H300z"/><path fill="#bcb3a8" d="M400 200h100v100H400z"/><path fill="#b0a497" d="M500 200h100v100H500z"/><path fill="#9d957c" d="M600 200h100v100H600z"/><path fill="#b4a87d" d="M700 200h100v100H700z"/><path fill="#738a25" d="M0 300h100v100H0z"/><path fill="#918e75" d="M100 300h100v100H100z"/><path fill="#b0a498" d="M200 300h100v100H200z"/><path fill="#a9aa89" d="M300 300h100v100H300z"/><path fill="#bdad9e" d="M400 300h100v100H400z"/><path fill="#b2a592" d="M500 300h100v100H500z"/><path fill="#959965" d="M600 300h100v100H600z"/><path fill="#ab9c71" d="M700 300h100v100H700z"/><path fill="#758438" d="M0 400h100v100H0z"/><path fill="#947f6c" d="M100 400h100v100H100z"/><path fill="#ad9a83" d="M200 400h100v100H200z"/><path fill="#bca994" d="M300 400h100v100H300z"/><path fill="#b6a998" d="M400 400h100v100H400z"/><path fill="#ada190" d="M500 400h100v100H500z"/><path fill="#a59788" d="M600 400h100v100H600z"/><path fill="#a59886" d="M700 400h100v100H700z"/><path fill="#9d957b" d="M0 500h100v100H0z"/><path fill="#b0a18d" d="M100 500h100v100H100z"/><path fill="#b3a892" d="M200 500h100v100H200z"/><path fill="#a09688" d="M300 500h100v100H300z"/><path fill="#95908b" d="M400 500h100v100H400z"/><path fill="#929091" d="M500 500h100v100H500z"/><path fill="#85888d" d="M600 500h100v100H600z"/><path fill="#7d868e" d="M700 500h100v100H700z"/></svg>