<svg xmlns="http://www.w3.org/2000/svg" viewBox="0 0 800 600"><defs/><path fill="#f3f3f3" d="M0 0h100v100H0z"/><path fill="#eee" d="M100 0h100v100H100z"/><path fill="#f3f3f3" d="M200 0h100v100H200z"/><path fill="#e5e6e6" d="M300 0h100v100H300z"/><path fill="#f4f4f4" d="M400 0h100v100H400z"/><path fill="#fafafb" d="M500 0h100v100H500z"/><path fill="#f9f9f9" d="M600 0h100v100H600z"/><path fill="#f3f1f1" d="M700 0h100v100H700z"/><path fill="#ddd" d="M0 100h100v100H0z"/><path fill="#bcbcbb" d="M100 100h100v100H100z"/><path fill="#c2c1c2" d="M200 100h100v100H200z"/><path fill="#a3a2a1" d="M300 100h100v100H300z"/><path fill="#eeeceb" d="M400 100h100v100H400z"/><path fill="#f8f7f6" d="M500 100h100v100H500z"/><path fill="#f1f1f1" d="M600 100h100v100H600z"/><path fill="#c9b5ad" d="M700 100h100v100H700z"/><path fill="#d8d8d7" d="M0 200h100v100H0z"/><path fill="#c5c7c8" d="M100 200h100v100H100z"/><path fill="#d2c2c0" d="M200 200h100v100H200z"/><path fill="#e2d4cf" d="M300 200h100v100H300z"/><path fill="#6a6964" d="M400 200h100v100H400z"/><path fill="#4c4644" d="M500 200h100v100H500z"/><path fill="#767271" d="M600 200h100v100H600z"/><path fill="#d4d0cd" d="M700 200h100v100H700z"/><path fill="#d6d6d6" d="M0 300h100v100H0z"/><path fill="#c2c3c4" d="M100 300h100v100H100z"/><path fill="#c28973" d="M200 300h100v100H200z"/><path fill="#c6917d" d="M300 300h100v100H300z"/><path fill="#363836" d="M400 300h100v100H400z"/><path fill="#716d6d" d="M500 300h100v100H500z"/><path fill="#4e4949" d="M600 300h100v100H600z"/><path fill="#dfdede" d="M700 300h100v100H700z"/><path fill="#c8c9c9" d="M0 400h100v100H0z"/><path fill="#b3b3b2" d="M100 400h100v100H100z"/><path fill="#c5b6b1" d="M200 400h100v100H200z"/><path fill="#bdb3b0" d="M300 400h100v100H300z"/><path fill="#9a9a9a" d="M400 400h100v100H400z"/><path fill="#b7b7b8" d="M500 400h100v100H500z"/><path fill="#a09e9f" d="M600 400h100v100H600z"/><path fill="#c8c8c8" d="M700 400h100v100H700z"/><path fill="#dfdfdf" d="M0 500h100v100H0z"/><path fill="#dedede" d="M100 500h100v100H100z"/><path fill="#e1e5e5" d="M200 500h100v100H200z"/><path fill="#e2e3e5" d="M300 500h100v100H300z"/><path fill="#e8e7e8" d="M400 500h100v100H400z"/><path fill="#e3e2e2" d="M500 500h100v100H500z"/><path fill="#e8e8e9" d="M600 500h100v100H600z"/><path fill="#ddd" d="M700 500h100v100H700z"/></svg>