<svg xmlns="http://www.w3.org/2000/svg" viewBox="0 0 800 400"><defs/><path fill="#b2a06a" d="M0 0h100v100H0z"/><path fill="#d2884b" d="M100 0h100v100H100z"/><path fill="#c2b471" d="M200 0h100v100H200z"/><path fill="#ddcb7a" d="M300 0h100v100H300z"/><path fill="#6f6e87" d="M400 0h100v100H400z"/><path fill="#5c5e7f" d="M500 0h100v100H500z"/><path fill="#b1a679" d="M600 0h100v100H600z"/><path fill="#626b6c" d="M700 0h100v100H700z"/><path fill="#be9460" d="M0 100h100v100H0z"/><path fill="#bd773d" d="M100 100h100v100H100z"/><path fill="#565b57" d="M200 100h100v100H200z"/><path fill="#8b806b" d="M300 100h100v100H300z"/><path fill="#817e74" d="M400 100h100v100H400z"/><path fill="#ada990" d="M500 100h100v100H500z"/><path fill="#beb6a1" d="M600 100h100v100H600z"/><path fill="#676c6d" d="M700 100h100v100H700z"/><path fill="#c5985e" d="M0 200h100v100H0z"/><path fill="#a16541" d="M100 200h100v100H100z"/><path fill="#626562" d="M200 200h100v100H200z"/><path fill="#56555d" d="M300 200h100v100H300z"/><path fill="#5f675b" d="M400 200h100v100H400z"/><path fill="#8b786c" d="M500 200h100v100H500z"/><path fill="#b7c6d3" d="M600 200h100v100H600z"/><path fill="#787b91" d="M700 200h100v100H700z"/><path fill="#b18a5a" d="M0 300h100v100H0z"/><path fill="#97725a" d="M100 300h100v100H100z"/><path fill="#8d8474" d="M200 300h100v100H200z"/><path fill="#716657" d="M300 300h100v100H300z"/><path fill="#76695b" d="M400 300h100v100H400z"/><path fill="#c48d53" d="M500 300h100v100H500z"/><path fill="#9597a4" d="M600 300h100v100H600z"/><path fill="#7073a2" d="M700 300h100v100H700z"/></svg>