<svg xmlns="http://www.w3.org/2000/svg" viewBox="0 0 800 500"><defs/><path fill="#f6efec" d="M0 0h100v100H0z"/><path fill="#d5c2c2" d="M100 0h100v100H100z"/><path fill="#e7dbd5" d="M200 0h100v100H200z"/><path fill="#ede4dd" d="M300 0h100v100H300z"/><path fill="#f0e7e2" d="M400 0h100v100H400z"/><path fill="#f1e7e0" d="M500 0h100v100H500z"/><path fill="#f1e8e3" d="M600 0h100v100H600z"/><path fill="#e6dfde" d="M700 0h100v100H700z"/><path fill="#c9b0a2" d="M0 100h100v100H0z"/><path fill="#935f55" d="M100 100h100v100H100z"/><path fill="#bca28d" d="M200 100h100v100H200z"/><path fill="#9a7e70" d="M300 100h100v100H300z"/><path fill="#8a7578" d="M400 100h100v100H400z"/><path fill="#8b7a78" d="M500 100h100v100H500z"/><path fill="#af9580" d="M600 100h100v100H600z"/><path fill="#ccb5a7" d="M700 100h100v100H700z"/><path fill="#c9aea3" d="M0 200h100v100H0z"/><path fill="#89615e" d="M100 200h100v100H100z"/><path fill="#907276" d="M200 200h100v100H200z"/><path fill="#8f7a7c" d="M300 200h100v100H300z"/><path fill="#ac9b9a" d="M400 200h100v100H400z"/><path fill="#baa7a5" d="M500 200h100v100H500z"/><path fill="#917c75" d="M600 200h100v100H600z"/><path fill="#c3b1a5" d="M700 200h100v100H700z"/><path fill="#b19390" d="M0 300h100v100H0z"/><path fill="#735361" d="M100 300h100v100H100z"/><path fill="#764a55" d="M200 300h100v100H200z"/><path fill="#a07685" d="M300 300h100v100H300z"/><path fill="#9f738f" d="M400 300h100v100H400z"/><path fill="#bc8798" d="M500 300h100v100H500z"/><path fill="#a26c6b" d="M600 300h100v100H600z"/><path fill="#967d74" d="M700 300h100v100H700z"/><path fill="#decbcc" d="M0 400h100v100H0z"/><path fill="#ddc2c5" d="M100 400h100v100H100z"/><path fill="#e9cecf" d="M200 400h100v100H200z"/><path fill="#e8cccf" d="M300 400h100v100H300z"/><path fill="#dec6d2" d="M400 400h100v100H400z"/><path fill="#e1c8ce" d="M500 400h100v100H500z"/><path fill="#e9cccb" d="M600 400h100v100H600z"/><path fill="#d6c4c5" d="M700 400h100v100H700z"/></svg>