<svg xmlns="http://www.w3.org/2000/svg" viewBox="0 0 800 400"><defs/><path fill="#e0e0e0" d="M0 0h100v100H0z"/><path fill="#d9d9d9" d="M100 0h100v100H100z"/><path fill="#d6d6d6" d="M200 0h100v100H200z"/><path fill="#dedede" d="M300 0h100v100H300z"/><path fill="#e0e0e0" d="M400 0h100v100H400z"/><path fill="#d9d9d9" d="M500 0h100v100H500z"/><path fill="#cfcfcf" d="M600 0h100v100H600z"/><path fill="#cecece" d="M700 0h100v100H700z"/><path fill="#e0e0e0" d="M0 100h100v100H0z"/><path fill="#d8d7d7" d="M100 100h100v100H100z"/><path fill="#d1d0d1" d="M200 100h100v100H200z"/><path fill="#d9d9d9" d="M300 100h100v100H300z"/><path fill="#dedede" d="M400 100h100v100H400z"/><path fill="#d3d2d2" d="M500 100h100v100H500z"/><path fill="#cbcaca" d="M600 100h100v100H600z"/><path fill="#d0d0d0" d="M700 100h100v100H700z"/><path fill="#dedede" d="M0 200h100v100H0z"/><path fill="#d6d4d5" d="M100 200h100v100H100z"/><path fill="#dadada" d="M200 200h100v100H200z"/><path fill="#d9d9d9" d="M300 200h100v100H300z"/><path fill="#cfcecf" d="M400 200h100v100H400z"/><path fill="#d1d0d1" d="M500 200h100v100H500z"/><path fill="#d4d4d4" d="M600 200h100v100H600z"/><path fill="#d1d1d1" d="M700 200h100v100H700z"/><path fill="#d8d8d8" d="M0 300h100v100H0z"/><path fill="#d0cfd0" d="M100 300h100v100H100z"/><path fill="#ddd" d="M200 300h100v100H200z"/><path fill="#dadada" d="M300 300h100v100H300zm100 0h100v100H400z"/><path fill="#dedede" d="M500 300h100v100H500z"/><path fill="#dfdfdf" d="M600 300h100v100H600z"/><path fill="#cbcbcb" d="M700 300h100v100H700z"/></svg>