<svg xmlns="http://www.w3.org/2000/svg" viewBox="0 0 800 500"><defs/><path fill="#a3c28a" d="M0 0h100v100H0z"/><path fill="#8db66c" d="M100 0h100v100H100z"/><path fill="#8fb274" d="M200 0h100v100H200z"/><path fill="#8baa73" d="M300 0h100v100H300z"/><path fill="#829c6f" d="M400 0h100v100H400z"/><path fill="#90b177" d="M500 0h100v100H500z"/><path fill="#8dae73" d="M600 0h100v100H600z"/><path fill="#a9c691" d="M700 0h100v100H700z"/><path fill="#74a24f" d="M0 100h100v100H0z"/><path fill="#55981e" d="M100 100h100v100H100z"/><path fill="#4e8720" d="M200 100h100v100H200z"/><path fill="#4b821e" d="M300 100h100v100H300z"/><path fill="#3b6819" d="M400 100h100v100H400z"/><path fill="#4a811f" d="M500 100h100v100H500z"/><path fill="#478317" d="M600 100h100v100H600z"/><path fill="#648d43" d="M700 100h100v100H700z"/><path fill="#7aa25a" d="M0 200h100v100H0z"/><path fill="#589429" d="M100 200h100v100H100z"/><path fill="#4c7829" d="M200 200h100v100H200z"/><path fill="#223613" d="M300 200h100v100H300z"/><path fill="#467223" d="M400 200h100v100H400z"/><path fill="#619b34" d="M500 200h100v100H500z"/><path fill="#5b982a" d="M600 200h100v100H600z"/><path fill="#739c52" d="M700 200h100v100H700z"/><path fill="#7bab54" d="M0 300h100v100H0z"/><path fill="#4f8921" d="M100 300h100v100H100z"/><path fill="#528927" d="M200 300h100v100H200z"/><path fill="#203311" d="M300 300h100v100H300z"/><path fill="#6b815a" d="M400 300h100v100H400z"/><path fill="#6ea641" d="M500 300h100v100H500z"/><path fill="#53931f" d="M600 300h100v100H600z"/><path fill="#72a04e" d="M700 300h100v100H700z"/><path fill="#8eb86c" d="M0 400h100v100H0z"/><path fill="#71a745" d="M100 400h100v100H100z"/><path fill="#78ac4e" d="M200 400h100v100H200z"/><path fill="#608343" d="M300 400h100v100H300z"/><path fill="#82a06a" d="M400 400h100v100H400z"/><path fill="#85b65f" d="M500 400h100v100H500z"/><path fill="#6ba33e" d="M600 400h100v100H600z"/><path fill="#87ae68" d="M700 400h100v100H700z"/></svg>