<svg xmlns="http://www.w3.org/2000/svg" viewBox="0 0 800 600"><defs/><path fill="#a9a9a8" d="M0 0h100v100H0z"/><path fill="#ababa9" d="M100 0h100v100H100z"/><path fill="#adadab" d="M200 0h100v100H200z"/><path fill="#b3b3b1" d="M300 0h100v100H300z"/><path fill="#b0afae" d="M400 0h100v100H400z"/><path fill="#a9a9a7" d="M500 0h100v100H500z"/><path fill="#a6a6a4" d="M600 0h100v100H600z"/><path fill="#a2a2a1" d="M700 0h100v100H700z"/><path fill="#a4a4a4" d="M0 100h100v100H0z"/><path fill="#a4a4a2" d="M100 100h100v100H100z"/><path fill="#a9a9a7" d="M200 100h100v100H200z"/><path fill="#acacaa" d="M300 100h100v100H300z"/><path fill="#abaaa8" d="M400 100h100v100H400z"/><path fill="#a7a7a5" d="M500 100h100v100H500z"/><path fill="#999998" d="M600 100h100v100H600z"/><path fill="#949394" d="M700 100h100v100H700z"/><path fill="#9e9e9e" d="M0 200h100v100H0z"/><path fill="#a1a09e" d="M100 200h100v100H100z"/><path fill="#a3a2a0" d="M200 200h100v100H200z"/><path fill="#a0a09e" d="M300 200h100v100H300z"/><path fill="#a5a5a3" d="M400 200h100v100H400z"/><path fill="#989896" d="M500 200h100v100H500z"/><path fill="#949493" d="M600 200h100v100H600z"/><path fill="#8f8f8f" d="M700 200h100v100H700z"/><path fill="#969797" d="M0 300h100v100H0z"/><path fill="#989797" d="M100 300h100v100H100z"/><path fill="#979694" d="M200 300h100v100H200z"/><path fill="#939391" d="M300 300h100v100H300z"/><path fill="#979795" d="M400 300h100v100H400z"/><path fill="#929290" d="M500 300h100v100H500z"/><path fill="#919191" d="M600 300h100v100H600z"/><path fill="#8c8c8c" d="M700 300h100v100H700z"/><path fill="#8e8e8e" d="M0 400h100v100H0z"/><path fill="#909090" d="M100 400h100v100H100z"/><path fill="#929290" d="M200 400h100v100H200z"/><path fill="#90908e" d="M300 400h100v100H300z"/><path fill="#92928f" d="M400 400h100v100H400z"/><path fill="#919190" d="M500 400h100v100H500z"/><path fill="#898989" d="M600 400h100v100H600z"/><path fill="#868687" d="M700 400h100v100H700z"/><path fill="#828382" d="M0 500h100v100H0z"/><path fill="#888" d="M100 500h100v100H100z"/><path fill="#8a8a89" d="M200 500h100v100H200z"/><path fill="#8c8c8a" d="M300 500h100v100H300z"/><path fill="#898987" d="M400 500h100v100H400z"/><path fill="#858584" d="M500 500h100v100H500z"/><path fill="#828282" d="M600 500h100v100H600z"/><path fill="#808081" d="M700 500h100v100H700z"/></svg>