<svg xmlns="http://www.w3.org/2000/svg" viewBox="0 0 800 600"><defs/><path fill="#988b7c" d="M0 0h100v100H0z"/><path fill="#816e58" d="M100 0h100v100H100z"/><path fill="#968671" d="M200 0h100v100H200z"/><path fill="#88735c" d="M300 0h100v100H300z"/><path fill="#76532b" d="M400 0h100v100H400z"/><path fill="#724d21" d="M500 0h100v100H500z"/><path fill="#72552f" d="M600 0h100v100H600z"/><path fill="#958876" d="M700 0h100v100H700z"/><path fill="#a49583" d="M0 100h100v100H0z"/><path fill="#443829" d="M100 100h100v100H100z"/><path fill="#1c1712" d="M200 100h100v100H200z"/><path fill="#332719" d="M300 100h100v100H300z"/><path fill="#462f11" d="M400 100h100v100H400z"/><path fill="#4d3817" d="M500 100h100v100H500z"/><path fill="#553b14" d="M600 100h100v100H600z"/><path fill="#897355" d="M700 100h100v100H700z"/><path fill="#b3a899" d="M0 200h100v100H0z"/><path fill="#4f4638" d="M100 200h100v100H100z"/><path fill="#0c0e0d" d="M200 200h100v100H200z"/><path fill="#272621" d="M300 200h100v100H300z"/><path fill="#36342f" d="M400 200h100v100H400z"/><path fill="#27261d" d="M500 200h100v100H500z"/><path fill="#5c441e" d="M600 200h100v100H600z"/><path fill="#86755e" d="M700 200h100v100H700z"/><path fill="#b8b1a9" d="M0 300h100v100H0z"/><path fill="#433c30" d="M100 300h100v100H100z"/><path fill="#1c1d1d" d="M200 300h100v100H200z"/><path fill="#312725" d="M300 300h100v100H300z"/><path fill="#38281f" d="M400 300h100v100H400z"/><path fill="#5f3426" d="M500 300h100v100H500z"/><path fill="#693c29" d="M600 300h100v100H600z"/><path fill="#716658" d="M700 300h100v100H700z"/><path fill="#aeaaa6" d="M0 400h100v100H0z"/><path fill="#4e473a" d="M100 400h100v100H100z"/><path fill="#412723" d="M200 400h100v100H200z"/><path fill="#492821" d="M300 400h100v100H300z"/><path fill="#5a332b" d="M400 400h100v100H400z"/><path fill="#7c383f" d="M500 400h100v100H500z"/><path fill="#562029" d="M600 400h100v100H600z"/><path fill="#605b54" d="M700 400h100v100H700z"/><path fill="#aaaaa9" d="M0 500h100v100H0z"/><path fill="#887e6d" d="M100 500h100v100H100z"/><path fill="#948b82" d="M200 500h100v100H200z"/><path fill="#83817f" d="M300 500h100v100H300z"/><path fill="#73615a" d="M400 500h100v100H400z"/><path fill="#604842" d="M500 500h100v100H500z"/><path fill="#51433c" d="M600 500h100v100H600z"/><path fill="#87847c" d="M700 500h100v100H700z"/></svg>