<svg xmlns="http://www.w3.org/2000/svg" viewBox="0 0 800 500"><defs/><path fill="#d3d3c9" d="M0 0h100v100H0z"/><path fill="#c4cbbe" d="M100 0h100v100H100z"/><path fill="#dcdad2" d="M200 0h100v100H200z"/><path fill="#e3ded6" d="M300 0h100v100H300z"/><path fill="#e3dad4" d="M400 0h100v100H400z"/><path fill="#ded4cd" d="M500 0h100v100H500z"/><path fill="#d0c6bf" d="M600 0h100v100H600z"/><path fill="#bab4ad" d="M700 0h100v100H700z"/><path fill="#d2d1c6" d="M0 100h100v100H0z"/><path fill="#c1c9bb" d="M100 100h100v100H100z"/><path fill="#e3dcd6" d="M200 100h100v100H200z"/><path fill="#e3d8d3" d="M300 100h100v100H300z"/><path fill="#e6d8d2" d="M400 100h100v100H400z"/><path fill="#e2d3ce" d="M500 100h100v100H500z"/><path fill="#d2c2be" d="M600 100h100v100H600z"/><path fill="#beb2ac" d="M700 100h100v100H700z"/><path fill="#cbcdc2" d="M0 200h100v100H0z"/><path fill="#c4cabe" d="M100 200h100v100H100z"/><path fill="#ded7d1" d="M200 200h100v100H200z"/><path fill="#ded3ce" d="M300 200h100v100H300z"/><path fill="#e0d3ce" d="M400 200h100v100H400z"/><path fill="#ddcfca" d="M500 200h100v100H500z"/><path fill="#cdbfb9" d="M600 200h100v100H600z"/><path fill="#b6a7a3" d="M700 200h100v100H700z"/><path fill="#bec7bc" d="M0 300h100v100H0z"/><path fill="#bfc6bb" d="M100 300h100v100H100z"/><path fill="#d9d1cc" d="M200 300h100v100H200z"/><path fill="#ddd4ce" d="M300 300h100v100H300z"/><path fill="#ddd0ca" d="M400 300h100v100H400z"/><path fill="#d6c8c2" d="M500 300h100v100H500z"/><path fill="#c4b5b0" d="M600 300h100v100H600z"/><path fill="#ad9f9b" d="M700 300h100v100H700z"/><path fill="#b7c3ba" d="M0 400h100v100H0z"/><path fill="#ced0ca" d="M100 400h100v100H100z"/><path fill="#ddd8d4" d="M200 400h100v100H200z"/><path fill="#ded7d3" d="M300 400h100v100H300z"/><path fill="#dbd1ce" d="M400 400h100v100H400z"/><path fill="#d2c6c2" d="M500 400h100v100H500z"/><path fill="#c1b4b1" d="M600 400h100v100H600z"/><path fill="#a39894" d="M700 400h100v100H700z"/></svg>