<svg xmlns="http://www.w3.org/2000/svg" viewBox="0 0 800 400"><defs/><path fill="#8faeb6" d="M0 0h100v100H0z"/><path fill="#9fabae" d="M100 0h100v100H100z"/><path fill="#bfcccf" d="M200 0h100v100H200z"/><path fill="#c7d3d6" d="M300 0h100v100H300z"/><path fill="#cdd9dd" d="M400 0h100v100H400z"/><path fill="#cfe0e4" d="M500 0h100v100H500z"/><path fill="#c7d4d6" d="M600 0h100v100H600z"/><path fill="#b7d1d8" d="M700 0h100v100H700z"/><path fill="#95b1b7" d="M0 100h100v100H0z"/><path fill="#a8b3b6" d="M100 100h100v100H100z"/><path fill="#a5b4b7" d="M200 100h100v100H200z"/><path fill="#aac2c5" d="M300 100h100v100H300z"/><path fill="#cce2e5" d="M400 100h100v100H400z"/><path fill="#b8c6c2" d="M500 100h100v100H500z"/><path fill="#c3dadc" d="M600 100h100v100H600z"/><path fill="#a2c0c7" d="M700 100h100v100H700z"/><path fill="#9db2b7" d="M0 200h100v100H0z"/><path fill="#adb9bc" d="M100 200h100v100H100z"/><path fill="#d7dbdd" d="M200 200h100v100H200z"/><path fill="#cc8486" d="M300 200h100v100H300z"/><path fill="#b79894" d="M400 200h100v100H400z"/><path fill="#a19d8b" d="M500 200h100v100H500z"/><path fill="#c0a5af" d="M600 200h100v100H600z"/><path fill="#aebbc4" d="M700 200h100v100H700z"/><path fill="#a4b3b8" d="M0 300h100v100H0z"/><path fill="#becacd" d="M100 300h100v100H100z"/><path fill="#d7bcbd" d="M200 300h100v100H200z"/><path fill="#d1a1a2" d="M300 300h100v100H300z"/><path fill="#cfc3c6" d="M400 300h100v100H400z"/><path fill="#d3d1d9" d="M500 300h100v100H500z"/><path fill="#c198a2" d="M600 300h100v100H600z"/><path fill="#cacad0" d="M700 300h100v100H700z"/></svg>