<svg xmlns="http://www.w3.org/2000/svg" viewBox="0 0 800 400"><defs/><path fill="#d6d6d6" d="M0 0h100v100H0z"/><path fill="#c1c1c1" d="M100 0h100v100H100z"/><path fill="#f6f6f6" d="M200 0h100v100H200z"/><path fill="#fefefe" d="M300 0h100v100H300z"/><path fill="#f2f2f2" d="M400 0h100v100H400z"/><path fill="#f8f8f8" d="M500 0h100v100H500z"/><path fill="#e8e8e8" d="M600 0h100v100H600z"/><path fill="#dedede" d="M700 0h100v100H700z"/><path fill="#acacac" d="M0 100h100v100H0z"/><path fill="#cdcdcd" d="M100 100h100v100H100z"/><path fill="#ebebeb" d="M200 100h100v100H200z"/><path fill="#f3f3f3" d="M300 100h100v100H300z"/><path fill="#ebebeb" d="M400 100h100v100H400z"/><path fill="#ededed" d="M500 100h100v100H500z"/><path fill="#c7c7c7" d="M600 100h100v100H600z"/><path fill="#c2c2c2" d="M700 100h100v100H700zM0 200h100v100H0z"/><path fill="#bdbdbd" d="M100 200h100v100H100z"/><path fill="#e5e5e5" d="M200 200h100v100H200z"/><path fill="#e3e3e3" d="M300 200h100v100H300z"/><path fill="#e8e8e8" d="M400 200h100v100H400z"/><path fill="#ededed" d="M500 200h100v100H500z"/><path fill="#ccc" d="M600 200h100v100H600z"/><path fill="#c7c7c7" d="M700 200h100v100H700z"/><path fill="#d3d3d3" d="M0 300h100v100H0z"/><path fill="#e4e4e4" d="M100 300h100v100H100z"/><path fill="#eee" d="M200 300h100v100H200z"/><path fill="#d0d0d0" d="M300 300h100v100H300z"/><path fill="#cacaca" d="M400 300h100v100H400z"/><path fill="#d5d5d5" d="M500 300h100v100H500z"/><path fill="#dbdbdb" d="M600 300h100v100H600z"/><path fill="#d3d3d3" d="M700 300h100v100H700z"/></svg>