<svg xmlns="http://www.w3.org/2000/svg" viewBox="0 0 800 600"><defs/><path fill="#ece6e2" d="M0 0h100v100H0z"/><path fill="#e1ded5" d="M100 0h100v100H100z"/><path fill="#dedad5" d="M200 0h100v100H200z"/><path fill="#dad7d7" d="M300 0h100v100H300z"/><path fill="#d3d2d8" d="M400 0h100v100H400z"/><path fill="#dbdada" d="M500 0h100v100H500z"/><path fill="#d7dad9" d="M600 0h100v100H600z"/><path fill="#e3dfda" d="M700 0h100v100H700z"/><path fill="#b79b92" d="M0 100h100v100H0z"/><path fill="#b29f72" d="M100 100h100v100H100z"/><path fill="#72746f" d="M200 100h100v100H200z"/><path fill="#7b7d86" d="M300 100h100v100H300z"/><path fill="#9fa8bb" d="M400 100h100v100H400z"/><path fill="#8f8f8b" d="M500 100h100v100H500z"/><path fill="#708484" d="M600 100h100v100H600z"/><path fill="#7e7c73" d="M700 100h100v100H700z"/><path fill="#b7a69a" d="M0 200h100v100H0z"/><path fill="#cfb282" d="M100 200h100v100H100z"/><path fill="#ab7973" d="M200 200h100v100H200z"/><path fill="#6a544d" d="M300 200h100v100H300z"/><path fill="#63605b" d="M400 200h100v100H400z"/><path fill="#8b7b69" d="M500 200h100v100H500z"/><path fill="#aca5ab" d="M600 200h100v100H600z"/><path fill="#8b716a" d="M700 200h100v100H700z"/><path fill="#dec5a3" d="M0 300h100v100H0z"/><path fill="#bda67d" d="M100 300h100v100H100z"/><path fill="#806958" d="M200 300h100v100H200z"/><path fill="#817974" d="M300 300h100v100H300z"/><path fill="#606764" d="M400 300h100v100H400z"/><path fill="#807d6e" d="M500 300h100v100H500z"/><path fill="#8c7e83" d="M600 300h100v100H600z"/><path fill="#85727c" d="M700 300h100v100H700z"/><path fill="#d7caa6" d="M0 400h100v100H0z"/><path fill="#8ea18c" d="M100 400h100v100H100z"/><path fill="#6a8081" d="M200 400h100v100H200z"/><path fill="#9196a9" d="M300 400h100v100H300z"/><path fill="#8b93ac" d="M400 400h100v100H400z"/><path fill="#728482" d="M500 400h100v100H500z"/><path fill="#655f5b" d="M600 400h100v100H600z"/><path fill="#6e5753" d="M700 400h100v100H700z"/><path fill="#dfe6e3" d="M0 500h100v100H0z"/><path fill="#d0dbda" d="M100 500h100v100H100z"/><path fill="#cdd1d0" d="M200 500h100v100H200z"/><path fill="#cccad1" d="M300 500h100v100H300z"/><path fill="#d6cad0" d="M400 500h100v100H400z"/><path fill="#d0d2d1" d="M500 500h100v100H500z"/><path fill="#ced7d8" d="M600 500h100v100H600z"/><path fill="#c9c6c1" d="M700 500h100v100H700z"/></svg>