<svg xmlns="http://www.w3.org/2000/svg" viewBox="0 0 800 700"><defs/><path fill="#feffff" d="M0 0h100v100H0z"/><path fill="#fdfeff" d="M100 0h100v100H100z"/><path fill="#e6eaec" d="M200 0h100v100H200z"/><path fill="#f7f8f9" d="M300 0h100v100H300z"/><path fill="#fff" d="M400 0h100v100H400zm100 0h100v100H500zm100 0h100v100H600zm100 0h100v100H700z"/><path fill="#fafcff" d="M0 100h100v100H0z"/><path fill="#e1d9c7" d="M100 100h100v100H100z"/><path fill="#dbd5ca" d="M200 100h100v100H200z"/><path fill="#bbbbbd" d="M300 100h100v100H300z"/><path fill="#dad8d6" d="M400 100h100v100H400z"/><path fill="#e8e8e7" d="M500 100h100v100H500z"/><path fill="#f6f6f6" d="M600 100h100v100H600z"/><path fill="#fafafa" d="M700 100h100v100H700z"/><path fill="#d1dfe6" d="M0 200h100v100H0z"/><path fill="#85a5a9" d="M100 200h100v100H100z"/><path fill="#a1b8bd" d="M200 200h100v100H200z"/><path fill="#bcc2c5" d="M300 200h100v100H300z"/><path fill="#aebbc3" d="M400 200h100v100H400z"/><path fill="#c1c9cc" d="M500 200h100v100H500z"/><path fill="#e5e3e2" d="M600 200h100v100H600z"/><path fill="#ededed" d="M700 200h100v100H700z"/><path fill="#c7d6dc" d="M0 300h100v100H0z"/><path fill="#5791a8" d="M100 300h100v100H100z"/><path fill="#7ba7b8" d="M200 300h100v100H200z"/><path fill="#5f95a4" d="M300 300h100v100H300z"/><path fill="#908f5f" d="M400 300h100v100H400z"/><path fill="#c5c6c3" d="M500 300h100v100H500z"/><path fill="#e3e2e3" d="M600 300h100v100H600z"/><path fill="#f1f1f1" d="M700 300h100v100H700z"/><path fill="#d0dce1" d="M0 400h100v100H0z"/><path fill="#7199a8" d="M100 400h100v100H100z"/><path fill="#80a2af" d="M200 400h100v100H200z"/><path fill="#7aa6b7" d="M300 400h100v100H300z"/><path fill="#bfc4b5" d="M400 400h100v100H400z"/><path fill="#e9e6e1" d="M500 400h100v100H500z"/><path fill="#f3f4f5" d="M600 400h100v100H600z"/><path fill="#f4f3f3" d="M700 400h100v100H700z"/><path fill="#dfe7ea" d="M0 500h100v100H0z"/><path fill="#8caab5" d="M100 500h100v100H100z"/><path fill="#8baab6" d="M200 500h100v100H200z"/><path fill="#c2c9cc" d="M300 500h100v100H300z"/><path fill="#cccacd" d="M400 500h100v100H400z"/><path fill="#f0f1f2" d="M500 500h100v100H500z"/><path fill="#ddd" d="M600 500h100v100H600z"/><path fill="#e2e2e2" d="M700 500h100v100H700z"/><path fill="#fbfbfb" d="M0 600h100v100H0z"/><path fill="#f4f4f4" d="M100 600h100v100H100z"/><path fill="#fffefd" d="M200 600h100v100H200z"/><path fill="#e1e1e0" d="M300 600h100v100H300z"/><path fill="#cbcccc" d="M400 600h100v100H400z"/><path fill="#f5f5f5" d="M500 600h100v100H500z"/><path fill="#f7f7f7" d="M600 600h100v100H600z"/><path fill="#f8f8f8" d="M700 600h100v100H700z"/></svg>