<svg xmlns="http://www.w3.org/2000/svg" viewBox="0 0 800 600"><defs/><path fill="#9b8f81" d="M0 0h100v100H0z"/><path fill="#86735c" d="M100 0h100v100H100z"/><path fill="#9c8b77" d="M200 0h100v100H200z"/><path fill="#8d7a63" d="M300 0h100v100H300z"/><path fill="#795833" d="M400 0h100v100H400z"/><path fill="#744f23" d="M500 0h100v100H500z"/><path fill="#74552e" d="M600 0h100v100H600z"/><path fill="#948573" d="M700 0h100v100H700z"/><path fill="#a59785" d="M0 100h100v100H0z"/><path fill="#4b3f2f" d="M100 100h100v100H100z"/><path fill="#251f19" d="M200 100h100v100H200z"/><path fill="#392b1e" d="M300 100h100v100H300z"/><path fill="#4a3110" d="M400 100h100v100H400z"/><path fill="#533a15" d="M500 100h100v100H500z"/><path fill="#533912" d="M600 100h100v100H600z"/><path fill="#7f6644" d="M700 100h100v100H700z"/><path fill="#b4a899" d="M0 200h100v100H0z"/><path fill="#534a3a" d="M100 200h100v100H100z"/><path fill="#090b0a" d="M200 200h100v100H200z"/><path fill="#21201c" d="M300 200h100v100H300z"/><path fill="#37352e" d="M400 200h100v100H400z"/><path fill="#25261f" d="M500 200h100v100H500z"/><path fill="#55411e" d="M600 200h100v100H600z"/><path fill="#806b4e" d="M700 200h100v100H700z"/><path fill="#bab4ad" d="M0 300h100v100H0z"/><path fill="#4c4538" d="M100 300h100v100H100z"/><path fill="#1c1f1f" d="M200 300h100v100H200z"/><path fill="#302926" d="M300 300h100v100H300z"/><path fill="#392c24" d="M400 300h100v100H400z"/><path fill="#512f21" d="M500 300h100v100H500z"/><path fill="#6a3f29" d="M600 300h100v100H600z"/><path fill="#6a5a45" d="M700 300h100v100H700z"/><path fill="#b5b0ad" d="M0 400h100v100H0z"/><path fill="#474234" d="M100 400h100v100H100z"/><path fill="#38221e" d="M200 400h100v100H200z"/><path fill="#44231e" d="M300 400h100v100H300z"/><path fill="#4e2c23" d="M400 400h100v100H400z"/><path fill="#783539" d="M500 400h100v100H500z"/><path fill="#682733" d="M600 400h100v100H600z"/><path fill="#4f4740" d="M700 400h100v100H700z"/><path fill="#aeafaf" d="M0 500h100v100H0z"/><path fill="#867c6b" d="M100 500h100v100H100z"/><path fill="#8f8277" d="M200 500h100v100H200z"/><path fill="#7a7472" d="M300 500h100v100H300z"/><path fill="#79645e" d="M400 500h100v100H400z"/><path fill="#674a47" d="M500 500h100v100H500z"/><path fill="#553e3a" d="M600 500h100v100H600z"/><path fill="#747067" d="M700 500h100v100H700z"/></svg>