<svg xmlns="http://www.w3.org/2000/svg" viewBox="0 0 800 600"><defs/><path fill="#d8d4e9" d="M0 0h100v100H0z"/><path fill="#d8d7ea" d="M100 0h100v100H100z"/><path fill="#cbcbe6" d="M200 0h100v100H200z"/><path fill="#bfc0df" d="M300 0h100v100H300z"/><path fill="#c6c5e4" d="M400 0h100v100H400z"/><path fill="#c2badb" d="M500 0h100v100H500z"/><path fill="#c3b7d8" d="M600 0h100v100H600z"/><path fill="#c1b4d2" d="M700 0h100v100H700z"/><path fill="#cfc1e2" d="M0 100h100v100H0z"/><path fill="#b897bf" d="M100 100h100v100H100z"/><path fill="#9a99a1" d="M200 100h100v100H200z"/><path fill="#889096" d="M300 100h100v100H300z"/><path fill="#898b98" d="M400 100h100v100H400z"/><path fill="#797d8a" d="M500 100h100v100H500z"/><path fill="#8290a9" d="M600 100h100v100H600z"/><path fill="#a8add0" d="M700 100h100v100H700z"/><path fill="#c8b3de" d="M0 200h100v100H0z"/><path fill="#8874ad" d="M100 200h100v100H100z"/><path fill="#a8ae91" d="M200 200h100v100H200z"/><path fill="#acaea2" d="M300 200h100v100H300z"/><path fill="#99958c" d="M400 200h100v100H400z"/><path fill="#518696" d="M500 200h100v100H500z"/><path fill="#5e8094" d="M600 200h100v100H600z"/><path fill="#a39dbf" d="M700 200h100v100H700z"/><path fill="#c5b1d8" d="M0 300h100v100H0z"/><path fill="#8f71a2" d="M100 300h100v100H100z"/><path fill="#8e8b91" d="M200 300h100v100H200z"/><path fill="#8d898f" d="M300 300h100v100H300z"/><path fill="#b9aea2" d="M400 300h100v100H400z"/><path fill="#9e9f91" d="M500 300h100v100H500z"/><path fill="#858b91" d="M600 300h100v100H600z"/><path fill="#9598bf" d="M700 300h100v100H700z"/><path fill="#b7acd2" d="M0 400h100v100H0z"/><path fill="#9078ac" d="M100 400h100v100H100z"/><path fill="#c49ace" d="M200 400h100v100H200z"/><path fill="#b295c5" d="M300 400h100v100H300z"/><path fill="#bd98c6" d="M400 400h100v100H400z"/><path fill="#b582b4" d="M500 400h100v100H500z"/><path fill="#917eb0" d="M600 400h100v100H600z"/><path fill="#9299bd" d="M700 400h100v100H700z"/><path fill="#cac4de" d="M0 500h100v100H0z"/><path fill="#c7b5da" d="M100 500h100v100H100z"/><path fill="#cdbcdb" d="M200 500h100v100H200z"/><path fill="#c4b5d6" d="M300 500h100v100H300z"/><path fill="#bdadce" d="M400 500h100v100H400z"/><path fill="#b2a0c2" d="M500 500h100v100H500z"/><path fill="#ac97b6" d="M600 500h100v100H600z"/><path fill="#a99ab5" d="M700 500h100v100H700z"/></svg>