<svg xmlns="http://www.w3.org/2000/svg" viewBox="0 0 800 500"><defs/><path fill="#dad2cb" d="M0 0h100v100H0z"/><path fill="#ab8979" d="M100 0h100v100H100z"/><path fill="#af8982" d="M200 0h100v100H200z"/><path fill="#aea5a6" d="M300 0h100v100H300z"/><path fill="#a8b2b5" d="M400 0h100v100H400z"/><path fill="#b9b9b7" d="M500 0h100v100H500z"/><path fill="#ccc6c0" d="M600 0h100v100H600z"/><path fill="#c9c2bb" d="M700 0h100v100H700z"/><path fill="#d4c7be" d="M0 100h100v100H0z"/><path fill="#8a523d" d="M100 100h100v100H100z"/><path fill="#9a837a" d="M200 100h100v100H200z"/><path fill="#a29b93" d="M300 100h100v100H300z"/><path fill="#a6a49d" d="M400 100h100v100H400z"/><path fill="#b5b4b0" d="M500 100h100v100H500z"/><path fill="#a5a39a" d="M600 100h100v100H600z"/><path fill="#beb9b5" d="M700 100h100v100H700z"/><path fill="#bea79c" d="M0 200h100v100H0z"/><path fill="#8f624d" d="M100 200h100v100H100z"/><path fill="#acaea7" d="M200 200h100v100H200z"/><path fill="#a29d8c" d="M300 200h100v100H300z"/><path fill="#9c8a75" d="M400 200h100v100H400z"/><path fill="#afaba5" d="M500 200h100v100H500z"/><path fill="#c4bfb7" d="M600 200h100v100H600z"/><path fill="#b5b1a5" d="M700 200h100v100H700z"/><path fill="#9b7666" d="M0 300h100v100H0z"/><path fill="#825946" d="M100 300h100v100H100z"/><path fill="#9d9c99" d="M200 300h100v100H200z"/><path fill="#9f9a95" d="M300 300h100v100H300z"/><path fill="#a09c96" d="M400 300h100v100H400z"/><path fill="#a9a39c" d="M500 300h100v100H500z"/><path fill="#747a60" d="M600 300h100v100H600z"/><path fill="#a59e82" d="M700 300h100v100H700z"/><path fill="#866051" d="M0 400h100v100H0z"/><path fill="#937f73" d="M100 400h100v100H100z"/><path fill="#7d7c78" d="M200 400h100v100H200z"/><path fill="#8e877b" d="M300 400h100v100H300z"/><path fill="#827c76" d="M400 400h100v100H400z"/><path fill="#9a9487" d="M500 400h100v100H500z"/><path fill="#56604c" d="M600 400h100v100H600z"/><path fill="#a4a092" d="M700 400h100v100H700z"/></svg>