<svg xmlns="http://www.w3.org/2000/svg" viewBox="0 0 800 500"><defs/><path fill="#d1d7da" d="M0 0h100v100H0z"/><path fill="#ced6d7" d="M100 0h100v100H100z"/><path fill="#d4dbde" d="M200 0h100v100H200z"/><path fill="#d8dce1" d="M300 0h100v100H300z"/><path fill="#d4d9de" d="M400 0h100v100H400z"/><path fill="#d5dadf" d="M500 0h100v100H500z"/><path fill="#d1d8dc" d="M600 0h100v100H600z"/><path fill="#ced6db" d="M700 0h100v100H700z"/><path fill="#ccd3d6" d="M0 100h100v100H0z"/><path fill="#b9cdc5" d="M100 100h100v100H100z"/><path fill="#c1c7ca" d="M200 100h100v100H200z"/><path fill="#cdd0d6" d="M300 100h100v100H300z"/><path fill="#cacdd3" d="M400 100h100v100H400z"/><path fill="#c4c7cd" d="M500 100h100v100H500z"/><path fill="#cdd1d7" d="M600 100h100v100H600z"/><path fill="#b9c0c4" d="M700 100h100v100H700z"/><path fill="#c4d0d0" d="M0 200h100v100H0z"/><path fill="#bdcfca" d="M100 200h100v100H100z"/><path fill="#bfc2c7" d="M200 200h100v100H200z"/><path fill="#a0a2a6" d="M300 200h100v100H300z"/><path fill="#acadb1" d="M400 200h100v100H400z"/><path fill="#b0b2b7" d="M500 200h100v100H500z"/><path fill="#b0b1b7" d="M600 200h100v100H600z"/><path fill="#a3a7ac" d="M700 200h100v100H700z"/><path fill="#b9cac8" d="M0 300h100v100H0z"/><path fill="#b5c9c4" d="M100 300h100v100H100z"/><path fill="#bdc1c7" d="M200 300h100v100H200z"/><path fill="#929398" d="M300 300h100v100H300z"/><path fill="#8d8d92" d="M400 300h100v100H400z"/><path fill="#9c9ea2" d="M500 300h100v100H500z"/><path fill="#a7a8ad" d="M600 300h100v100H600z"/><path fill="#a5aaaf" d="M700 300h100v100H700z"/><path fill="#bac9ca" d="M0 400h100v100H0z"/><path fill="#c0cccf" d="M100 400h100v100H100z"/><path fill="#c7ced4" d="M200 400h100v100H200z"/><path fill="#b1b7bb" d="M300 400h100v100H300z"/><path fill="#b4b9be" d="M400 400h100v100H400z"/><path fill="#bec4ca" d="M500 400h100v100H500z"/><path fill="#babec4" d="M600 400h100v100H600z"/><path fill="#b2babd" d="M700 400h100v100H700z"/></svg>