<svg xmlns="http://www.w3.org/2000/svg" viewBox="0 0 800 500"><defs/><path fill="#e1e1e7" d="M0 0h100v100H0z"/><path fill="#897eba" d="M100 0h100v100H100z"/><path fill="#a798c9" d="M200 0h100v100H200z"/><path fill="#c3d7ee" d="M300 0h100v100H300z"/><path fill="#cce4e9" d="M400 0h100v100H400z"/><path fill="#afc3ea" d="M500 0h100v100H500z"/><path fill="#b0bce6" d="M600 0h100v100H600z"/><path fill="#acaad4" d="M700 0h100v100H700z"/><path fill="#e9e9d3" d="M0 100h100v100H0z"/><path fill="#9b7a8c" d="M100 100h100v100H100z"/><path fill="#9d92d7" d="M200 100h100v100H200z"/><path fill="#c7e9f7" d="M300 100h100v100H300z"/><path fill="#addeeb" d="M400 100h100v100H400z"/><path fill="#7ca8e9" d="M500 100h100v100H500z"/><path fill="#99a3dc" d="M600 100h100v100H600z"/><path fill="#aab2d6" d="M700 100h100v100H700z"/><path fill="#ffc3b5" d="M0 200h100v100H0z"/><path fill="#b67570" d="M100 200h100v100H100z"/><path fill="#7b74a3" d="M200 200h100v100H200z"/><path fill="#b6bad4" d="M300 200h100v100H300z"/><path fill="#c2babb" d="M400 200h100v100H400z"/><path fill="#7984ac" d="M500 200h100v100H500z"/><path fill="#6979c7" d="M600 200h100v100H600z"/><path fill="#99b2d8" d="M700 200h100v100H700z"/><path fill="#f48c97" d="M0 300h100v100H0z"/><path fill="#b86e95" d="M100 300h100v100H100z"/><path fill="#a698ad" d="M200 300h100v100H200z"/><path fill="#86a1b5" d="M300 300h100v100H300z"/><path fill="#8fb9c5" d="M400 300h100v100H400z"/><path fill="#8f90cc" d="M500 300h100v100H500z"/><path fill="#864181" d="M600 300h100v100H600z"/><path fill="#b494a5" d="M700 300h100v100H700z"/><path fill="#fcfbfb" d="M0 400h100v100H0z"/><path fill="#f9f6f6" d="M100 400h100v100H100z"/><path fill="#fdfffe" d="M200 400h100v100H200z"/><path fill="#dbeee9" d="M300 400h100v100H300z"/><path fill="#ddf2f0" d="M400 400h100v100H400z"/><path fill="#fbfffd" d="M500 400h100v100H500z"/><path fill="#ff9188" d="M600 400h100v100H600z"/><path fill="#ffc7c3" d="M700 400h100v100H700z"/></svg>