<svg xmlns="http://www.w3.org/2000/svg" viewBox="0 0 800 400"><defs/><path fill="#5e4d3c" d="M0 0h100v100H0z"/><path fill="#463932" d="M100 0h100v100H100z"/><path fill="#61534a" d="M200 0h100v100H200z"/><path fill="#735c4c" d="M300 0h100v100H300z"/><path fill="#706257" d="M400 0h100v100H400z"/><path fill="#3d332c" d="M500 0h100v100H500z"/><path fill="#373737" d="M600 0h100v100H600z"/><path fill="#466389" d="M700 0h100v100H700z"/><path fill="#675643" d="M0 100h100v100H0z"/><path fill="#796d58" d="M100 100h100v100H100z"/><path fill="#3d4248" d="M200 100h100v100H200z"/><path fill="#545146" d="M300 100h100v100H300z"/><path fill="#48453b" d="M400 100h100v100H400z"/><path fill="#44433c" d="M500 100h100v100H500z"/><path fill="#31322e" d="M600 100h100v100H600z"/><path fill="#454333" d="M700 100h100v100H700z"/><path fill="#72624c" d="M0 200h100v100H0z"/><path fill="#90845e" d="M100 200h100v100H100z"/><path fill="#5b553c" d="M200 200h100v100H200z"/><path fill="#503534" d="M300 200h100v100H300z"/><path fill="#522934" d="M400 200h100v100H400z"/><path fill="#633740" d="M500 200h100v100H500z"/><path fill="#4a2b32" d="M600 200h100v100H600z"/><path fill="#574a3c" d="M700 200h100v100H700z"/><path fill="#7a674d" d="M0 300h100v100H0z"/><path fill="#6a5845" d="M100 300h100v100H100z"/><path fill="#776956" d="M200 300h100v100H200z"/><path fill="#5a2e3b" d="M300 300h100v100H300z"/><path fill="#601835" d="M400 300h100v100H400z"/><path fill="#611634" d="M500 300h100v100H500z"/><path fill="#6d353f" d="M600 300h100v100H600z"/><path fill="#5e524b" d="M700 300h100v100H700z"/></svg>