<svg xmlns="http://www.w3.org/2000/svg" viewBox="0 0 800 600"><defs/><path fill="#c0b3b1" d="M0 0h100v100H0z"/><path fill="#af9e99" d="M100 0h100v100H100z"/><path fill="#a48e84" d="M200 0h100v100H200z"/><path fill="#beb2ac" d="M300 0h100v100H300z"/><path fill="#bbb0ad" d="M400 0h100v100H400z"/><path fill="#b8acab" d="M500 0h100v100H500z"/><path fill="#b2a6a1" d="M600 0h100v100H600z"/><path fill="#ab9d99" d="M700 0h100v100H700z"/><path fill="#c9b8b6" d="M0 100h100v100H0z"/><path fill="#a08379" d="M100 100h100v100H100z"/><path fill="#8d6b58" d="M200 100h100v100H200z"/><path fill="#c3b6ac" d="M300 100h100v100H300z"/><path fill="#a79680" d="M400 100h100v100H400z"/><path fill="#b8a693" d="M500 100h100v100H500z"/><path fill="#b5a7a1" d="M600 100h100v100H600z"/><path fill="#b5a49e" d="M700 100h100v100H700z"/><path fill="#cdbcba" d="M0 200h100v100H0z"/><path fill="#8f6f62" d="M100 200h100v100H100z"/><path fill="#a1897b" d="M200 200h100v100H200z"/><path fill="#bcb5ab" d="M300 200h100v100H300z"/><path fill="#a6997e" d="M400 200h100v100H400z"/><path fill="#ad9e8e" d="M500 200h100v100H500z"/><path fill="#ad9e99" d="M600 200h100v100H600z"/><path fill="#b6a099" d="M700 200h100v100H700z"/><path fill="#ccbcb7" d="M0 300h100v100H0z"/><path fill="#906d5d" d="M100 300h100v100H100z"/><path fill="#99897c" d="M200 300h100v100H200z"/><path fill="#b5ada2" d="M300 300h100v100H300z"/><path fill="#cac0b3" d="M400 300h100v100H400z"/><path fill="#9e9987" d="M500 300h100v100H500z"/><path fill="#886451" d="M600 300h100v100H600z"/><path fill="#9c8073" d="M700 300h100v100H700z"/><path fill="#bca7a1" d="M0 400h100v100H0z"/><path fill="#86614e" d="M100 400h100v100H100z"/><path fill="#af9987" d="M200 400h100v100H200z"/><path fill="#cec5bd" d="M300 400h100v100H300z"/><path fill="#a4a7ac" d="M400 400h100v100H400z"/><path fill="#aea183" d="M500 400h100v100H500z"/><path fill="#b29985" d="M600 400h100v100H600z"/><path fill="#a08f87" d="M700 400h100v100H700z"/><path fill="#b39b93" d="M0 500h100v100H0z"/><path fill="#9f7e68" d="M100 500h100v100H100z"/><path fill="#cdbda3" d="M200 500h100v100H200z"/><path fill="#d5cac7" d="M300 500h100v100H300z"/><path fill="#aeb0b1" d="M400 500h100v100H400z"/><path fill="#a1988f" d="M500 500h100v100H500z"/><path fill="#c3b5b0" d="M600 500h100v100H600z"/><path fill="#ab989a" d="M700 500h100v100H700z"/></svg>