<svg xmlns="http://www.w3.org/2000/svg" viewBox="0 0 800 500"><defs/><path fill="#9ea8c0" d="M0 0h100v100H0z"/><path fill="#949aa9" d="M100 0h100v100H100z"/><path fill="#7a7c7d" d="M200 0h100v100H200z"/><path fill="#8d887c" d="M300 0h100v100H300z"/><path fill="#918b85" d="M400 0h100v100H400z"/><path fill="#99a0ab" d="M500 0h100v100H500z"/><path fill="#a0b2d2" d="M600 0h100v100H600z"/><path fill="#8590a3" d="M700 0h100v100H700z"/><path fill="#a0afc8" d="M0 100h100v100H0z"/><path fill="#b7b9c6" d="M100 100h100v100H100z"/><path fill="#a2998c" d="M200 100h100v100H200z"/><path fill="#a0927c" d="M300 100h100v100H300z"/><path fill="#888683" d="M400 100h100v100H400z"/><path fill="#767a79" d="M500 100h100v100H500z"/><path fill="#929599" d="M600 100h100v100H600z"/><path fill="#8c9aac" d="M700 100h100v100H700z"/><path fill="#6a6c41" d="M0 200h100v100H0z"/><path fill="#77785e" d="M100 200h100v100H100z"/><path fill="#838064" d="M200 200h100v100H200z"/><path fill="#87856e" d="M300 200h100v100H300z"/><path fill="#949a9c" d="M400 200h100v100H400z"/><path fill="#919ca4" d="M500 200h100v100H500z"/><path fill="#7b8895" d="M600 200h100v100H600z"/><path fill="#8d9fbb" d="M700 200h100v100H700z"/><path fill="#3e3415" d="M0 300h100v100H0z"/><path fill="#483e1b" d="M100 300h100v100H100z"/><path fill="#413e17" d="M200 300h100v100H200z"/><path fill="#43451f" d="M300 300h100v100H300z"/><path fill="#3c4221" d="M400 300h100v100H400z"/><path fill="#54605d" d="M500 300h100v100H500z"/><path fill="#6c7b71" d="M600 300h100v100H600z"/><path fill="#5e6648" d="M700 300h100v100H700z"/><path fill="#655442" d="M0 400h100v100H0z"/><path fill="#63523f" d="M100 400h100v100H100z"/><path fill="#554731" d="M200 400h100v100H200z"/><path fill="#574628" d="M300 400h100v100H300z"/><path fill="#645630" d="M400 400h100v100H400z"/><path fill="#453c16" d="M500 400h100v100H500z"/><path fill="#382f16" d="M600 400h100v100H600z"/><path fill="#39351d" d="M700 400h100v100H700z"/></svg>