<svg xmlns="http://www.w3.org/2000/svg" viewBox="0 0 800 500"><defs/><path fill="#cec7af" d="M0 0h100v100H0z"/><path fill="#c9ad89" d="M100 0h100v100H100z"/><path fill="#d3bb9b" d="M200 0h100v100H200z"/><path fill="#cdb39b" d="M300 0h100v100H300z"/><path fill="#d1cabc" d="M400 0h100v100H400z"/><path fill="#e6efd9" d="M500 0h100v100H500z"/><path fill="#e3e7bc" d="M600 0h100v100H600z"/><path fill="#eae6d1" d="M700 0h100v100H700z"/><path fill="#d1c3a2" d="M0 100h100v100H0z"/><path fill="#ad987e" d="M100 100h100v100H100z"/><path fill="#bfb09c" d="M200 100h100v100H200z"/><path fill="#cebdb5" d="M300 100h100v100H300z"/><path fill="#c2c594" d="M400 100h100v100H400z"/><path fill="#b7cb84" d="M500 100h100v100H500z"/><path fill="#b5bd6f" d="M600 100h100v100H600z"/><path fill="#d9d7ac" d="M700 100h100v100H700z"/><path fill="#d4b88d" d="M0 200h100v100H0z"/><path fill="#a19489" d="M100 200h100v100H100z"/><path fill="#bdaca0" d="M200 200h100v100H200z"/><path fill="#c3bab8" d="M300 200h100v100H300z"/><path fill="#bdb8a9" d="M400 200h100v100H400z"/><path fill="#b3ae95" d="M500 200h100v100H500z"/><path fill="#ab9982" d="M600 200h100v100H600z"/><path fill="#d3cba9" d="M700 200h100v100H700z"/><path fill="#c1ae8c" d="M0 300h100v100H0z"/><path fill="#877571" d="M100 300h100v100H100z"/><path fill="#9e7c80" d="M200 300h100v100H200z"/><path fill="#97aaa9" d="M300 300h100v100H300z"/><path fill="#a08f81" d="M400 300h100v100H400z"/><path fill="#ca987a" d="M500 300h100v100H500z"/><path fill="#ddd5ca" d="M600 300h100v100H600z"/><path fill="#ddd3c5" d="M700 300h100v100H700z"/><path fill="#baa891" d="M0 400h100v100H0z"/><path fill="#b28c7c" d="M100 400h100v100H100z"/><path fill="#c07868" d="M200 400h100v100H200z"/><path fill="#c39483" d="M300 400h100v100H300z"/><path fill="#b89178" d="M400 400h100v100H400z"/><path fill="#d6ad97" d="M500 400h100v100H500z"/><path fill="#e2d4cb" d="M600 400h100v100H600z"/><path fill="#dccebe" d="M700 400h100v100H700z"/></svg>