<svg xmlns="http://www.w3.org/2000/svg" viewBox="0 0 800 500"><defs/><path fill="#dad6d9" d="M0 0h100v100H0z"/><path fill="#e1dad5" d="M100 0h100v100H100z"/><path fill="#dedae3" d="M200 0h100v100H200z"/><path fill="#e0dde6" d="M300 0h100v100H300z"/><path fill="#ded9e3" d="M400 0h100v100H400z"/><path fill="#d6d3e0" d="M500 0h100v100H500z"/><path fill="#dadbe8" d="M600 0h100v100H600z"/><path fill="#bfadad" d="M700 0h100v100H700z"/><path fill="#d3d3c9" d="M0 100h100v100H0z"/><path fill="#dad2be" d="M100 100h100v100H100z"/><path fill="#d5d0dd" d="M200 100h100v100H200z"/><path fill="#d9d6de" d="M300 100h100v100H300z"/><path fill="#d9d5df" d="M400 100h100v100H400z"/><path fill="#d2ccd9" d="M500 100h100v100H500z"/><path fill="#d0d0da" d="M600 100h100v100H600z"/><path fill="#beb2bd" d="M700 100h100v100H700z"/><path fill="#d6cfb9" d="M0 200h100v100H0z"/><path fill="#d5cfc9" d="M100 200h100v100H100z"/><path fill="#d3d0dd" d="M200 200h100v100H200z"/><path fill="#d8d1dd" d="M300 200h100v100H300z"/><path fill="#d4cdd9" d="M400 200h100v100H400z"/><path fill="#cccbdb" d="M500 200h100v100H500z"/><path fill="#cdc9d7" d="M600 200h100v100H600z"/><path fill="#ccc7d5" d="M700 200h100v100H700z"/><path fill="#d6cca5" d="M0 300h100v100H0z"/><path fill="#d6cbc9" d="M100 300h100v100H100z"/><path fill="#d7ced5" d="M200 300h100v100H200z"/><path fill="#d6c6cd" d="M300 300h100v100H300z"/><path fill="#d6c8d2" d="M400 300h100v100H400z"/><path fill="#d1cad1" d="M500 300h100v100H500z"/><path fill="#d5cfdb" d="M600 300h100v100H600z"/><path fill="#c9c4d3" d="M700 300h100v100H700z"/><path fill="#cdbfb2" d="M0 400h100v100H0z"/><path fill="#d0c4c7" d="M100 400h100v100H100z"/><path fill="#d4c8cd" d="M200 400h100v100H200z"/><path fill="#d0c5cc" d="M300 400h100v100H300z"/><path fill="#d3c7ce" d="M400 400h100v100H400z"/><path fill="#cfc6cc" d="M500 400h100v100H500z"/><path fill="#d2cdda" d="M600 400h100v100H600z"/><path fill="#c8c2d1" d="M700 400h100v100H700z"/></svg>