<svg xmlns="http://www.w3.org/2000/svg" viewBox="0 0 800 400"><defs/><path fill="#f1cb5b" d="M0 0h100v100H0z"/><path fill="#e0c67d" d="M100 0h100v100H100z"/><path fill="#ddd1b9" d="M200 0h100v100H200z"/><path fill="#e6ddbf" d="M300 0h100v100H300z"/><path fill="#dfdabf" d="M400 0h100v100H400z"/><path fill="#cfd0b8" d="M500 0h100v100H500z"/><path fill="#b2bb9d" d="M600 0h100v100H600z"/><path fill="#a8a461" d="M700 0h100v100H700z"/><path fill="#f2ca5a" d="M0 100h100v100H0z"/><path fill="#dcc586" d="M100 100h100v100H100z"/><path fill="#c7d6e6" d="M200 100h100v100H200z"/><path fill="#acc9d4" d="M300 100h100v100H300z"/><path fill="#a7c6cc" d="M400 100h100v100H400z"/><path fill="#9cb8c6" d="M500 100h100v100H500z"/><path fill="#adaa9e" d="M600 100h100v100H600z"/><path fill="#b1a358" d="M700 100h100v100H700z"/><path fill="#f3ca5b" d="M0 200h100v100H0z"/><path fill="#ca9f6c" d="M100 200h100v100H100z"/><path fill="#bb9d73" d="M200 200h100v100H200z"/><path fill="#c2b284" d="M300 200h100v100H300z"/><path fill="#cdb68b" d="M400 200h100v100H400z"/><path fill="#d6b790" d="M500 200h100v100H500z"/><path fill="#e1ab79" d="M600 200h100v100H600z"/><path fill="#eebf57" d="M700 200h100v100H700z"/><path fill="#e3bd6f" d="M0 300h100v100H0z"/><path fill="#d8b077" d="M100 300h100v100H100z"/><path fill="#eeb872" d="M200 300h100v100H200z"/><path fill="#e2a76d" d="M300 300h100v100H300z"/><path fill="#daab6e" d="M400 300h100v100H400z"/><path fill="#d3a068" d="M500 300h100v100H500z"/><path fill="#e9b573" d="M600 300h100v100H600z"/><path fill="#ebc471" d="M700 300h100v100H700z"/></svg>