<svg xmlns="http://www.w3.org/2000/svg" viewBox="0 0 800 400"><defs/><path fill="#bfbac5" d="M0 0h100v100H0z"/><path fill="#be9f91" d="M100 0h100v100H100z"/><path fill="#bfb9ba" d="M200 0h100v100H200z"/><path fill="#bab5b8" d="M300 0h100v100H300z"/><path fill="#bbb5b4" d="M400 0h100v100H400z"/><path fill="#b4afae" d="M500 0h100v100H500z"/><path fill="#a7a3a6" d="M600 0h100v100H600z"/><path fill="#a2a0a9" d="M700 0h100v100H700z"/><path fill="#bfada0" d="M0 100h100v100H0z"/><path fill="#ab9288" d="M100 100h100v100H100z"/><path fill="#73716c" d="M200 100h100v100H200z"/><path fill="#6c6b64" d="M300 100h100v100H300z"/><path fill="#77736f" d="M400 100h100v100H400z"/><path fill="#807c77" d="M500 100h100v100H500z"/><path fill="#736e6a" d="M600 100h100v100H600z"/><path fill="#827d78" d="M700 100h100v100H700z"/><path fill="#ac9588" d="M0 200h100v100H0z"/><path fill="#a89e84" d="M100 200h100v100H100z"/><path fill="#758f79" d="M200 200h100v100H200z"/><path fill="#728772" d="M300 200h100v100H300z"/><path fill="#738e6d" d="M400 200h100v100H400z"/><path fill="#799178" d="M500 200h100v100H500z"/><path fill="#6d876c" d="M600 200h100v100H600z"/><path fill="#677564" d="M700 200h100v100H700z"/><path fill="#ac9e91" d="M0 300h100v100H0z"/><path fill="#c2c5a8" d="M100 300h100v100H100z"/><path fill="#acbdb1" d="M200 300h100v100H200z"/><path fill="#a9b9a9" d="M300 300h100v100H300z"/><path fill="#a8c2a1" d="M400 300h100v100H400z"/><path fill="#9fbb9c" d="M500 300h100v100H500z"/><path fill="#96b292" d="M600 300h100v100H600z"/><path fill="#7a9780" d="M700 300h100v100H700z"/></svg>