<svg xmlns="http://www.w3.org/2000/svg" viewBox="0 0 800 600"><defs/><path fill="#79898b" d="M0 0h100v100H0z"/><path fill="#9e9f9e" d="M100 0h100v100H100z"/><path fill="#b4b1ac" d="M200 0h100v100H200z"/><path fill="#bfbab3" d="M300 0h100v100H300z"/><path fill="#c8bdb5" d="M400 0h100v100H400z"/><path fill="#beb4ab" d="M500 0h100v100H500z"/><path fill="#ada59f" d="M600 0h100v100H600z"/><path fill="#778082" d="M700 0h100v100H700z"/><path fill="#566a71" d="M0 100h100v100H0z"/><path fill="#7a7d7c" d="M100 100h100v100H100z"/><path fill="#8a949a" d="M200 100h100v100H200z"/><path fill="#81959e" d="M300 100h100v100H300z"/><path fill="#a39a98" d="M400 100h100v100H400z"/><path fill="#9e9491" d="M500 100h100v100H500z"/><path fill="#908d8e" d="M600 100h100v100H600z"/><path fill="#5a676a" d="M700 100h100v100H700z"/><path fill="#5b6061" d="M0 200h100v100H0z"/><path fill="#6f655f" d="M100 200h100v100H100z"/><path fill="#637379" d="M200 200h100v100H200z"/><path fill="#7c8789" d="M300 200h100v100H300z"/><path fill="#af9387" d="M400 200h100v100H400z"/><path fill="#af998c" d="M500 200h100v100H500z"/><path fill="#979290" d="M600 200h100v100H600z"/><path fill="#4f5e63" d="M700 200h100v100H700z"/><path fill="#554f4d" d="M0 300h100v100H0z"/><path fill="#655451" d="M100 300h100v100H100z"/><path fill="#3f4845" d="M200 300h100v100H200z"/><path fill="#5c5952" d="M300 300h100v100H300z"/><path fill="#9f8d7f" d="M400 300h100v100H400z"/><path fill="#7c7982" d="M500 300h100v100H500z"/><path fill="#746a6d" d="M600 300h100v100H600z"/><path fill="#584844" d="M700 300h100v100H700z"/><path fill="#71574a" d="M0 400h100v100H0z"/><path fill="#6a564a" d="M100 400h100v100H100z"/><path fill="#7f6657" d="M200 400h100v100H200z"/><path fill="#9e6d45" d="M300 400h100v100H300z"/><path fill="#ae8442" d="M400 400h100v100H400z"/><path fill="#9f7a3f" d="M500 400h100v100H500z"/><path fill="#6c3a32" d="M600 400h100v100H600z"/><path fill="#84433f" d="M700 400h100v100H700z"/><path fill="#957b66" d="M0 500h100v100H0z"/><path fill="#595249" d="M100 500h100v100H100z"/><path fill="#796857" d="M200 500h100v100H200z"/><path fill="#a4834c" d="M300 500h100v100H300z"/><path fill="#e2c933" d="M400 500h100v100H400z"/><path fill="#ccbb34" d="M500 500h100v100H500z"/><path fill="#6c5d40" d="M600 500h100v100H600z"/><path fill="#946b60" d="M700 500h100v100H700z"/></svg>