<svg xmlns="http://www.w3.org/2000/svg" viewBox="0 0 800 500"><defs/><path fill="#bda698" d="M0 0h100v100H0z"/><path fill="#a38768" d="M100 0h100v100H100z"/><path fill="#a39978" d="M200 0h100v100H200z"/><path fill="#beaf8b" d="M300 0h100v100H300z"/><path fill="#bead94" d="M400 0h100v100H400z"/><path fill="#ac9d8a" d="M500 0h100v100H500z"/><path fill="#896855" d="M600 0h100v100H600z"/><path fill="#948778" d="M700 0h100v100H700z"/><path fill="#c7a57e" d="M0 100h100v100H0z"/><path fill="#ac7a35" d="M100 100h100v100H100z"/><path fill="#997564" d="M200 100h100v100H200z"/><path fill="#b9979a" d="M300 100h100v100H300z"/><path fill="#c9b38e" d="M400 100h100v100H400z"/><path fill="#aa7181" d="M500 100h100v100H500z"/><path fill="#764235" d="M600 100h100v100H600z"/><path fill="#7f6857" d="M700 100h100v100H700z"/><path fill="#8e7a68" d="M0 200h100v100H0z"/><path fill="#7c4421" d="M100 200h100v100H100z"/><path fill="#787359" d="M200 200h100v100H200z"/><path fill="#736155" d="M300 200h100v100H300z"/><path fill="#636377" d="M400 200h100v100H400z"/><path fill="#836675" d="M500 200h100v100H500z"/><path fill="#8f7556" d="M600 200h100v100H600z"/><path fill="#977c6c" d="M700 200h100v100H700z"/><path fill="#4e4e4f" d="M0 300h100v100H0z"/><path fill="#30424c" d="M100 300h100v100H100z"/><path fill="#48a9a3" d="M200 300h100v100H200z"/><path fill="#2f875c" d="M300 300h100v100H300z"/><path fill="#0d463e" d="M400 300h100v100H400z"/><path fill="#286e5d" d="M500 300h100v100H500z"/><path fill="#2d7a6b" d="M600 300h100v100H600z"/><path fill="#6a6d71" d="M700 300h100v100H700z"/><path fill="#8ab0b6" d="M0 400h100v100H0z"/><path fill="#5ea2b6" d="M100 400h100v100H100z"/><path fill="#6dcad4" d="M200 400h100v100H200z"/><path fill="#63ccb9" d="M300 400h100v100H300z"/><path fill="#6ce1dc" d="M400 400h100v100H400z"/><path fill="#5fbeaf" d="M500 400h100v100H500z"/><path fill="#5ecac7" d="M600 400h100v100H600z"/><path fill="#83cdca" d="M700 400h100v100H700z"/></svg>