<svg xmlns="http://www.w3.org/2000/svg" viewBox="0 0 800 400"><defs/><path fill="#f6f1ed" d="M0 0h100v100H0z"/><path fill="#debab0" d="M100 0h100v100H100z"/><path fill="#ccb4ab" d="M200 0h100v100H200z"/><path fill="#d2c8bf" d="M300 0h100v100H300z"/><path fill="#d5c6bb" d="M400 0h100v100H400z"/><path fill="#dfdfdb" d="M500 0h100v100H500z"/><path fill="#e8ddd5" d="M600 0h100v100H600z"/><path fill="#faccb8" d="M700 0h100v100H700z"/><path fill="#f0e8e2" d="M0 100h100v100H0z"/><path fill="#d9b6ac" d="M100 100h100v100H100z"/><path fill="#bfae96" d="M200 100h100v100H200z"/><path fill="#d6bba1" d="M300 100h100v100H300z"/><path fill="#d2baa7" d="M400 100h100v100H400z"/><path fill="#d7cbbb" d="M500 100h100v100H500z"/><path fill="#d4c0b6" d="M600 100h100v100H600z"/><path fill="#b5a7a4" d="M700 100h100v100H700z"/><path fill="#dfd3cc" d="M0 200h100v100H0z"/><path fill="#d9b3a9" d="M100 200h100v100H100z"/><path fill="#f7b8a7" d="M200 200h100v100H200z"/><path fill="#eacaaf" d="M300 200h100v100H300z"/><path fill="#f2e0c7" d="M400 200h100v100H400z"/><path fill="#ddcfb6" d="M500 200h100v100H500z"/><path fill="#d4bbaa" d="M600 200h100v100H600z"/><path fill="#b09f96" d="M700 200h100v100H700z"/><path fill="#d4c2b9" d="M0 300h100v100H0z"/><path fill="#e3c3b6" d="M100 300h100v100H100z"/><path fill="#eb958e" d="M200 300h100v100H200z"/><path fill="#e69490" d="M300 300h100v100H300z"/><path fill="#f1beb5" d="M400 300h100v100H400z"/><path fill="#e3dcd2" d="M500 300h100v100H500z"/><path fill="#ddcfc4" d="M600 300h100v100H600z"/><path fill="#dfd1c5" d="M700 300h100v100H700z"/></svg>