<svg xmlns="http://www.w3.org/2000/svg" viewBox="0 0 800 500"><defs/><path fill="#a5c38d" d="M0 0h100v100H0z"/><path fill="#90b86e" d="M100 0h100v100H100z"/><path fill="#91b176" d="M200 0h100v100H200z"/><path fill="#8fad77" d="M300 0h100v100H300z"/><path fill="#859d72" d="M400 0h100v100H400z"/><path fill="#92b178" d="M500 0h100v100H500z"/><path fill="#93b27b" d="M600 0h100v100H600z"/><path fill="#9abc80" d="M700 0h100v100H700z"/><path fill="#76a352" d="M0 100h100v100H0z"/><path fill="#55991e" d="M100 100h100v100H100z"/><path fill="#508921" d="M200 100h100v100H200z"/><path fill="#4f8a21" d="M300 100h100v100H300z"/><path fill="#3b661a" d="M400 100h100v100H400z"/><path fill="#467a1d" d="M500 100h100v100H500z"/><path fill="#4d881f" d="M600 100h100v100H600z"/><path fill="#497b22" d="M700 100h100v100H700z"/><path fill="#7fa560" d="M0 200h100v100H0z"/><path fill="#59942b" d="M100 200h100v100H100z"/><path fill="#51802e" d="M200 200h100v100H200z"/><path fill="#243715" d="M300 200h100v100H300z"/><path fill="#456d27" d="M400 200h100v100H400z"/><path fill="#639d35" d="M500 200h100v100H500z"/><path fill="#619c32" d="M600 200h100v100H600z"/><path fill="#5c8e34" d="M700 200h100v100H700z"/><path fill="#79a952" d="M0 300h100v100H0z"/><path fill="#49841a" d="M100 300h100v100H100z"/><path fill="#508924" d="M200 300h100v100H200z"/><path fill="#1d350b" d="M300 300h100v100H300z"/><path fill="#5c724a" d="M400 300h100v100H400z"/><path fill="#68a03c" d="M500 300h100v100H500z"/><path fill="#549420" d="M600 300h100v100H600z"/><path fill="#558b29" d="M700 300h100v100H700z"/><path fill="#a0c383" d="M0 400h100v100H0z"/><path fill="#82b05d" d="M100 400h100v100H100z"/><path fill="#8bb966" d="M200 400h100v100H200z"/><path fill="#73925b" d="M300 400h100v100H300z"/><path fill="#90a87f" d="M400 400h100v100H400z"/><path fill="#9ac37b" d="M500 400h100v100H500z"/><path fill="#85b55e" d="M600 400h100v100H600z"/><path fill="#85ad66" d="M700 400h100v100H700z"/></svg>