<svg xmlns="http://www.w3.org/2000/svg" viewBox="0 0 800 400"><defs/><path fill="#e4e2e0" d="M0 0h100v100H0z"/><path fill="#888488" d="M100 0h100v100H100z"/><path fill="#70779c" d="M200 0h100v100H200z"/><path fill="#969ab2" d="M300 0h100v100H300z"/><path fill="#94969d" d="M400 0h100v100H400z"/><path fill="#a8aabd" d="M500 0h100v100H500z"/><path fill="#707198" d="M600 0h100v100H600z"/><path fill="#818388" d="M700 0h100v100H700z"/><path fill="#dfdbd8" d="M0 100h100v100H0z"/><path fill="#9f898e" d="M100 100h100v100H100z"/><path fill="#9ca4c1" d="M200 100h100v100H200z"/><path fill="#b5adbb" d="M300 100h100v100H300z"/><path fill="#a9bdac" d="M400 100h100v100H400z"/><path fill="#8eac9a" d="M500 100h100v100H500z"/><path fill="#a194b6" d="M600 100h100v100H600z"/><path fill="#aaaeb2" d="M700 100h100v100H700z"/><path fill="#c0c0bd" d="M0 200h100v100H0z"/><path fill="#664e46" d="M100 200h100v100H100z"/><path fill="#8c625f" d="M200 200h100v100H200z"/><path fill="#735553" d="M300 200h100v100H300z"/><path fill="#987a64" d="M400 200h100v100H400z"/><path fill="#9a8462" d="M500 200h100v100H500z"/><path fill="#828177" d="M600 200h100v100H600z"/><path fill="#8f8984" d="M700 200h100v100H700z"/><path fill="#ab9690" d="M0 300h100v100H0z"/><path fill="#804230" d="M100 300h100v100H100z"/><path fill="#ba351b" d="M200 300h100v100H200z"/><path fill="#88351e" d="M300 300h100v100H300z"/><path fill="#b55e36" d="M400 300h100v100H400z"/><path fill="#c75a38" d="M500 300h100v100H500z"/><path fill="#925435" d="M600 300h100v100H600z"/><path fill="#813723" d="M700 300h100v100H700z"/></svg>