<svg xmlns="http://www.w3.org/2000/svg" viewBox="0 0 800 500"><defs/><path fill="#9d8c7d" d="M0 0h100v100H0z"/><path fill="#413b35" d="M100 0h100v100H100z"/><path fill="#48433f" d="M200 0h100v100H200z"/><path fill="#4d4743" d="M300 0h100v100H300z"/><path fill="#4b4542" d="M400 0h100v100H400z"/><path fill="#57514d" d="M500 0h100v100H500z"/><path fill="#746e62" d="M600 0h100v100H600z"/><path fill="#7b7470" d="M700 0h100v100H700z"/><path fill="#9f8e7f" d="M0 100h100v100H0z"/><path fill="#46403b" d="M100 100h100v100H100z"/><path fill="#4a4442" d="M200 100h100v100H200z"/><path fill="#56534e" d="M300 100h100v100H300z"/><path fill="#5d5c59" d="M400 100h100v100H400z"/><path fill="#514e51" d="M500 100h100v100H500z"/><path fill="#5e5c5d" d="M600 100h100v100H600z"/><path fill="#817f82" d="M700 100h100v100H700z"/><path fill="#a19489" d="M0 200h100v100H0z"/><path fill="#4e4b48" d="M100 200h100v100H100z"/><path fill="#494746" d="M200 200h100v100H200z"/><path fill="#6e6b69" d="M300 200h100v100H300z"/><path fill="#737072" d="M400 200h100v100H400z"/><path fill="#727179" d="M500 200h100v100H500z"/><path fill="#666773" d="M600 200h100v100H600z"/><path fill="#898b92" d="M700 200h100v100H700z"/><path fill="#a58d81" d="M0 300h100v100H0z"/><path fill="#544d4c" d="M100 300h100v100H100z"/><path fill="#514e4f" d="M200 300h100v100H200z"/><path fill="#5e5b5c" d="M300 300h100v100H300z"/><path fill="#75797b" d="M400 300h100v100H400z"/><path fill="#878d93" d="M500 300h100v100H500z"/><path fill="#7a818c" d="M600 300h100v100H600z"/><path fill="#8d929e" d="M700 300h100v100H700z"/><path fill="#a9988d" d="M0 400h100v100H0z"/><path fill="#4a4746" d="M100 400h100v100H100z"/><path fill="#565255" d="M200 400h100v100H200z"/><path fill="#59585c" d="M300 400h100v100H300z"/><path fill="#6e7377" d="M400 400h100v100H400z"/><path fill="#757c82" d="M500 400h100v100H500z"/><path fill="#747b85" d="M600 400h100v100H600z"/><path fill="#9499a2" d="M700 400h100v100H700z"/></svg>