<svg xmlns="http://www.w3.org/2000/svg" viewBox="0 0 800 500"><defs/><path fill="#f2f3f3" d="M0 0h100v100H0z"/><path fill="#f1f1f1" d="M100 0h100v100H100z"/><path fill="#eeedee" d="M200 0h100v100H200z"/><path fill="#e4e6e8" d="M300 0h100v100H300z"/><path fill="#eceef0" d="M400 0h100v100H400z"/><path fill="#f4f4f4" d="M500 0h100v100H500z"/><path fill="#eeeff0" d="M600 0h100v100H600z"/><path fill="#f3f3f3" d="M700 0h100v100H700z"/><path fill="#e3e4e5" d="M0 100h100v100H0z"/><path fill="#d3d4d6" d="M100 100h100v100H100z"/><path fill="#d3d2d4" d="M200 100h100v100H200z"/><path fill="#c4c5c9" d="M300 100h100v100H300z"/><path fill="#c6c7cc" d="M400 100h100v100H400z"/><path fill="#dbdde0" d="M500 100h100v100H500z"/><path fill="#ceced1" d="M600 100h100v100H600z"/><path fill="#c9c8cb" d="M700 100h100v100H700z"/><path fill="#e6e6e7" d="M0 200h100v100H0z"/><path fill="#dcdbdd" d="M100 200h100v100H100z"/><path fill="#dddede" d="M200 200h100v100H200z"/><path fill="#dadcdf" d="M300 200h100v100H300z"/><path fill="#d5d7db" d="M400 200h100v100H400z"/><path fill="#d1d2d6" d="M500 200h100v100H500z"/><path fill="#dadadc" d="M600 200h100v100H600z"/><path fill="#bcbbbf" d="M700 200h100v100H700z"/><path fill="#e2e2e4" d="M0 300h100v100H0z"/><path fill="#d8d8da" d="M100 300h100v100H100z"/><path fill="#d5d5d6" d="M200 300h100v100H200z"/><path fill="#cdccce" d="M300 300h100v100H300z"/><path fill="#e9eaeb" d="M400 300h100v100H400z"/><path fill="#ceced1" d="M500 300h100v100H500z"/><path fill="#d7d8d9" d="M600 300h100v100H600z"/><path fill="#d4d4d6" d="M700 300h100v100H700z"/><path fill="#f5f5f5" d="M0 400h100v100H0z"/><path fill="#e3e3e3" d="M100 400h100v100H100z"/><path fill="#dededf" d="M200 400h100v100H200z"/><path fill="#e0e0e1" d="M300 400h100v100H300z"/><path fill="#f6f6f6" d="M400 400h100v100H400z"/><path fill="#ebebeb" d="M500 400h100v100H500z"/><path fill="#e4e4e5" d="M600 400h100v100H600z"/><path fill="#dfe0e1" d="M700 400h100v100H700z"/></svg>