<svg xmlns="http://www.w3.org/2000/svg" viewBox="0 0 800 600"><defs/><path fill="#e9e9e7" d="M0 0h100v100H0z"/><path fill="#eeeeed" d="M100 0h100v100H100z"/><path fill="#f0f1ef" d="M200 0h100v100H200z"/><path fill="#f7f7f6" d="M300 0h100v100H300z"/><path fill="#fafaf9" d="M400 0h100v100H400z"/><path fill="#f8f8f7" d="M500 0h100v100H500z"/><path fill="#f9f8f8" d="M600 0h100v100H600z"/><path fill="#f7f6f5" d="M700 0h100v100H700z"/><path fill="#eeefed" d="M0 100h100v100H0z"/><path fill="#dddbd9" d="M100 100h100v100H100z"/><path fill="#cecdcc" d="M200 100h100v100H200z"/><path fill="#c8c8c7" d="M300 100h100v100H300z"/><path fill="#c3c3c3" d="M400 100h100v100H400z"/><path fill="#dee0dd" d="M500 100h100v100H500z"/><path fill="#dce4de" d="M600 100h100v100H600z"/><path fill="#dde0dc" d="M700 100h100v100H700z"/><path fill="#f2f3f1" d="M0 200h100v100H0z"/><path fill="#afaaab" d="M100 200h100v100H100z"/><path fill="#bdbbbc" d="M200 200h100v100H200z"/><path fill="#d0d0d0" d="M300 200h100v100H300z"/><path fill="#cccbcc" d="M400 200h100v100H400z"/><path fill="#b0b5b0" d="M500 200h100v100H500z"/><path fill="#b0c6b7" d="M600 200h100v100H600z"/><path fill="#d1d7ce" d="M700 200h100v100H700z"/><path fill="#e5e6e4" d="M0 300h100v100H0z"/><path fill="#9f9b9d" d="M100 300h100v100H100z"/><path fill="#c4c4c4" d="M200 300h100v100H200z"/><path fill="#e5e5e5" d="M300 300h100v100H300z"/><path fill="#ddd" d="M400 300h100v100H400z"/><path fill="#d6d6d6" d="M500 300h100v100H500z"/><path fill="#e2e5e4" d="M600 300h100v100H600z"/><path fill="#d9dbd8" d="M700 300h100v100H700z"/><path fill="#dadada" d="M0 400h100v100H0z"/><path fill="#b1b1b1" d="M100 400h100v100H100z"/><path fill="#f1f1f1" d="M200 400h100v100H200z"/><path fill="#fff" d="M300 400h100v100H300z"/><path fill="#fefefe" d="M400 400h100v100H400z"/><path fill="#f9f9f9" d="M500 400h100v100H500z"/><path fill="#e9e9e9" d="M600 400h100v100H600z"/><path fill="#e3e3e4" d="M700 400h100v100H700z"/><path fill="#e9e9e7" d="M0 500h100v100H0z"/><path fill="#f0f0ef" d="M100 500h100v100H100z"/><path fill="#f1f1f0" d="M200 500h100v100H200z"/><path fill="#f1f1ef" d="M300 500h100v100H300z"/><path fill="#f1f1f0" d="M400 500h100v100H400z"/><path fill="#eeeeed" d="M500 500h100v100H500z"/><path fill="#ebebea" d="M600 500h100v100H600z"/><path fill="#eeefec" d="M700 500h100v100H700z"/></svg>