<svg xmlns="http://www.w3.org/2000/svg" viewBox="0 0 800 500"><defs/><path fill="#cbbfb0" d="M0 0h100v100H0z"/><path fill="#ab9787" d="M100 0h100v100H100z"/><path fill="#c6a69a" d="M200 0h100v100H200z"/><path fill="#c9a594" d="M300 0h100v100H300z"/><path fill="#b99386" d="M400 0h100v100H400z"/><path fill="#ccaa97" d="M500 0h100v100H500z"/><path fill="#a18c87" d="M600 0h100v100H600z"/><path fill="#c2b3a6" d="M700 0h100v100H700z"/><path fill="#aca59b" d="M0 100h100v100H0z"/><path fill="#9d7f67" d="M100 100h100v100H100z"/><path fill="#ab9288" d="M200 100h100v100H200z"/><path fill="#8c727b" d="M300 100h100v100H300z"/><path fill="#9e7775" d="M400 100h100v100H400z"/><path fill="#997f73" d="M500 100h100v100H500z"/><path fill="#926360" d="M600 100h100v100H600z"/><path fill="#97a19c" d="M700 100h100v100H700z"/><path fill="#bda394" d="M0 200h100v100H0z"/><path fill="#a8846c" d="M100 200h100v100H100z"/><path fill="#a29991" d="M200 200h100v100H200z"/><path fill="#968a83" d="M300 200h100v100H300z"/><path fill="#bc9871" d="M400 200h100v100H400z"/><path fill="#988a84" d="M500 200h100v100H500z"/><path fill="#95726f" d="M600 200h100v100H600z"/><path fill="#a49086" d="M700 200h100v100H700z"/><path fill="#a58f79" d="M0 300h100v100H0z"/><path fill="#8c8375" d="M100 300h100v100H100z"/><path fill="#bfb3ad" d="M200 300h100v100H200z"/><path fill="#9f939e" d="M300 300h100v100H300z"/><path fill="#a18c95" d="M400 300h100v100H400z"/><path fill="#b1989c" d="M500 300h100v100H500z"/><path fill="#a6897f" d="M600 300h100v100H600z"/><path fill="#809872" d="M700 300h100v100H700z"/><path fill="#b7a49e" d="M0 400h100v100H0z"/><path fill="#aba999" d="M100 400h100v100H100z"/><path fill="#d8c3b8" d="M200 400h100v100H200z"/><path fill="#a798a6" d="M300 400h100v100H300z"/><path fill="#9a93a1" d="M400 400h100v100H400z"/><path fill="#a39ba7" d="M500 400h100v100H500z"/><path fill="#dbb8b2" d="M600 400h100v100H600z"/><path fill="#bdb6a2" d="M700 400h100v100H700z"/></svg>