<svg xmlns="http://www.w3.org/2000/svg" viewBox="0 0 800 600"><defs/><path fill="#60625e" d="M0 0h100v100H0z"/><path fill="#777a77" d="M100 0h100v100H100z"/><path fill="#8f8f8b" d="M200 0h100v100H200z"/><path fill="#9e9f9b" d="M300 0h100v100H300z"/><path fill="#bfbfbd" d="M400 0h100v100H400z"/><path fill="#bdbab8" d="M500 0h100v100H500z"/><path fill="#a5a2a0" d="M600 0h100v100H600z"/><path fill="#b0aeab" d="M700 0h100v100H700z"/><path fill="#515351" d="M0 100h100v100H0z"/><path fill="#7e7e7b" d="M100 100h100v100H100z"/><path fill="#8b8c89" d="M200 100h100v100H200z"/><path fill="#a19f9b" d="M300 100h100v100H300z"/><path fill="#bab9b5" d="M400 100h100v100H400z"/><path fill="#c2c2c0" d="M500 100h100v100H500z"/><path fill="#888583" d="M600 100h100v100H600z"/><path fill="#858482" d="M700 100h100v100H700z"/><path fill="#555655" d="M0 200h100v100H0z"/><path fill="#6a6b6a" d="M100 200h100v100H100z"/><path fill="#7b7b79" d="M200 200h100v100H200z"/><path fill="#9d9a94" d="M300 200h100v100H300z"/><path fill="#c2bdb6" d="M400 200h100v100H400z"/><path fill="#999996" d="M500 200h100v100H500z"/><path fill="#9a9a98" d="M600 200h100v100H600z"/><path fill="#a3a29f" d="M700 200h100v100H700z"/><path fill="#5f5e5c" d="M0 300h100v100H0z"/><path fill="#515050" d="M100 300h100v100H100z"/><path fill="#5e5f5e" d="M200 300h100v100H200z"/><path fill="#8a8682" d="M300 300h100v100H300z"/><path fill="#878480" d="M400 300h100v100H400z"/><path fill="#6a6867" d="M500 300h100v100H500z"/><path fill="#a6a3a0" d="M600 300h100v100H600z"/><path fill="#c7c2bc" d="M700 300h100v100H700z"/><path fill="#464644" d="M0 400h100v100H0z"/><path fill="#484846" d="M100 400h100v100H100z"/><path fill="#404040" d="M200 400h100v100H200z"/><path fill="#5e5d5d" d="M300 400h100v100H300z"/><path fill="#71706f" d="M400 400h100v100H400z"/><path fill="#3f3f3f" d="M500 400h100v100H500z"/><path fill="#636362" d="M600 400h100v100H600z"/><path fill="#757371" d="M700 400h100v100H700z"/><path fill="#171717" d="M0 500h100v100H0z"/><path fill="#353534" d="M100 500h100v100H100z"/><path fill="#41403f" d="M200 500h100v100H200z"/><path fill="#4d4c4c" d="M300 500h100v100H300z"/><path fill="#716f6e" d="M400 500h100v100H400z"/><path fill="#4f4f4e" d="M500 500h100v100H500z"/><path fill="#393b3b" d="M600 500h100v100H600z"/><path fill="#393a3a" d="M700 500h100v100H700z"/></svg>