<svg xmlns="http://www.w3.org/2000/svg" viewBox="0 0 800 500"><defs/><path fill="#c7b089" d="M0 0h100v100H0z"/><path fill="#b29067" d="M100 0h100v100H100z"/><path fill="#b68a94" d="M200 0h100v100H200z"/><path fill="#bd9c9e" d="M300 0h100v100H300z"/><path fill="#9fa79b" d="M400 0h100v100H400z"/><path fill="#c4c3bc" d="M500 0h100v100H500z"/><path fill="#c7bebc" d="M600 0h100v100H600z"/><path fill="#ccc6c7" d="M700 0h100v100H700z"/><path fill="#ac9675" d="M0 100h100v100H0z"/><path fill="#b29876" d="M100 100h100v100H100z"/><path fill="#aa9396" d="M200 100h100v100H200z"/><path fill="#d1b8b1" d="M300 100h100v100H300z"/><path fill="#d6cdcc" d="M400 100h100v100H400z"/><path fill="#bcbcb1" d="M500 100h100v100H500z"/><path fill="#b4b2a4" d="M600 100h100v100H600z"/><path fill="#a6a091" d="M700 100h100v100H700z"/><path fill="#cfa768" d="M0 200h100v100H0z"/><path fill="#a59381" d="M100 200h100v100H100z"/><path fill="#8c7876" d="M200 200h100v100H200z"/><path fill="#c5b6b1" d="M300 200h100v100H300z"/><path fill="#d1c4bb" d="M400 200h100v100H400z"/><path fill="#c3bcba" d="M500 200h100v100H500z"/><path fill="#c4b7b4" d="M600 200h100v100H600z"/><path fill="#86695b" d="M700 200h100v100H700z"/><path fill="#c3966f" d="M0 300h100v100H0z"/><path fill="#a48d73" d="M100 300h100v100H100z"/><path fill="#927a72" d="M200 300h100v100H200z"/><path fill="#a89b91" d="M300 300h100v100H300z"/><path fill="#baa494" d="M400 300h100v100H400z"/><path fill="#b78f7b" d="M500 300h100v100H500z"/><path fill="#c8ad8b" d="M600 300h100v100H600z"/><path fill="#a99872" d="M700 300h100v100H700z"/><path fill="#c19a6b" d="M0 400h100v100H0z"/><path fill="#b68e6f" d="M100 400h100v100H100z"/><path fill="#bc8f70" d="M200 400h100v100H200z"/><path fill="#b9957a" d="M300 400h100v100H300z"/><path fill="#c49c7f" d="M400 400h100v100H400z"/><path fill="#ba987a" d="M500 400h100v100H500z"/><path fill="#b19c88" d="M600 400h100v100H600z"/><path fill="#ba9e7c" d="M700 400h100v100H700z"/></svg>