<svg xmlns="http://www.w3.org/2000/svg" viewBox="0 0 800 400"><defs/><path fill="#bba9a1" d="M0 0h100v100H0z"/><path fill="#988988" d="M100 0h100v100H100z"/><path fill="#b1a9a7" d="M200 0h100v100H200z"/><path fill="#c1b79b" d="M300 0h100v100H300z"/><path fill="#b0ab99" d="M400 0h100v100H400z"/><path fill="#7d8380" d="M500 0h100v100H500z"/><path fill="#908c8e" d="M600 0h100v100H600z"/><path fill="#a59389" d="M700 0h100v100H700z"/><path fill="#c7bcae" d="M0 100h100v100H0z"/><path fill="#b09a9e" d="M100 100h100v100H100z"/><path fill="#c3aab0" d="M200 100h100v100H200z"/><path fill="#cac1b0" d="M300 100h100v100H300z"/><path fill="#9e958f" d="M400 100h100v100H400z"/><path fill="#7d827b" d="M500 100h100v100H500z"/><path fill="#86857d" d="M600 100h100v100H600z"/><path fill="#a7a08b" d="M700 100h100v100H700z"/><path fill="#c4b7ac" d="M0 200h100v100H0z"/><path fill="#c5bdbc" d="M100 200h100v100H100z"/><path fill="#d1bab1" d="M200 200h100v100H200z"/><path fill="#b2aea4" d="M300 200h100v100H300z"/><path fill="#b4ae9b" d="M400 200h100v100H400z"/><path fill="#bdb3a3" d="M500 200h100v100H500z"/><path fill="#cac3b6" d="M600 200h100v100H600z"/><path fill="#b9b4a6" d="M700 200h100v100H700z"/><path fill="#c9c9c5" d="M0 300h100v100H0z"/><path fill="#bccbc4" d="M100 300h100v100H100z"/><path fill="#9aa39e" d="M200 300h100v100H200z"/><path fill="#95a8ac" d="M300 300h100v100H300z"/><path fill="#949e9b" d="M400 300h100v100H400z"/><path fill="#9fb1b0" d="M500 300h100v100H500z"/><path fill="#b9d6d0" d="M600 300h100v100H600z"/><path fill="#afc1b9" d="M700 300h100v100H700z"/></svg>