<svg xmlns="http://www.w3.org/2000/svg" viewBox="0 0 800 600"><defs/><path fill="#c18e86" d="M0 0h100v100H0z"/><path fill="#c1968f" d="M100 0h100v100H100z"/><path fill="#c29790" d="M200 0h100v100H200z"/><path fill="#c39991" d="M300 0h100v100H300z"/><path fill="#c69d94" d="M400 0h100v100H400z"/><path fill="#b99486" d="M500 0h100v100H500z"/><path fill="#ab877a" d="M600 0h100v100H600z"/><path fill="#b28c7f" d="M700 0h100v100H700z"/><path fill="#b5b4b8" d="M0 100h100v100H0z"/><path fill="#8ebdd2" d="M100 100h100v100H100z"/><path fill="#91bace" d="M200 100h100v100H200z"/><path fill="#9cbdcf" d="M300 100h100v100H300z"/><path fill="#bad3de" d="M400 100h100v100H400z"/><path fill="#a3c5b5" d="M500 100h100v100H500z"/><path fill="#637965" d="M600 100h100v100H600z"/><path fill="#6a5d49" d="M700 100h100v100H700z"/><path fill="#b3b4b8" d="M0 200h100v100H0z"/><path fill="#8abcd2" d="M100 200h100v100H100z"/><path fill="#8cb8ca" d="M200 200h100v100H200z"/><path fill="#95bccf" d="M300 200h100v100H300z"/><path fill="#a0b7c3" d="M400 200h100v100H400z"/><path fill="#a6bcc9" d="M500 200h100v100H500z"/><path fill="#a3abab" d="M600 200h100v100H600z"/><path fill="#745a4f" d="M700 200h100v100H700z"/><path fill="#b0b0b4" d="M0 300h100v100H0z"/><path fill="#7eafbc" d="M100 300h100v100H100z"/><path fill="#8bb8c8" d="M200 300h100v100H200z"/><path fill="#92b7c9" d="M300 300h100v100H300z"/><path fill="#b2a7a6" d="M400 300h100v100H400z"/><path fill="#a9b0b7" d="M500 300h100v100H500z"/><path fill="#b6918b" d="M600 300h100v100H600z"/><path fill="#65504b" d="M700 300h100v100H700z"/><path fill="#b5867e" d="M0 400h100v100H0z"/><path fill="#ad8b84" d="M100 400h100v100H100z"/><path fill="#bda09c" d="M200 400h100v100H200z"/><path fill="#c3a5a1" d="M300 400h100v100H300z"/><path fill="#b38e87" d="M400 400h100v100H400z"/><path fill="#cba29b" d="M500 400h100v100H500z"/><path fill="#c89387" d="M600 400h100v100H600z"/><path fill="#996d64" d="M700 400h100v100H700z"/><path fill="#b77365" d="M0 500h100v100H0z"/><path fill="#c37f72" d="M100 500h100v100H100z"/><path fill="#ca8c7e" d="M200 500h100v100H200z"/><path fill="#d1968a" d="M300 500h100v100H300z"/><path fill="#c28e83" d="M400 500h100v100H400z"/><path fill="#ca9285" d="M500 500h100v100H500z"/><path fill="#cc9186" d="M600 500h100v100H600z"/><path fill="#c17f71" d="M700 500h100v100H700z"/></svg>