<svg xmlns="http://www.w3.org/2000/svg" viewBox="0 0 800 600"><defs/><path fill="#2e2928" d="M0 0h100v100H0z"/><path fill="#817c7a" d="M100 0h100v100H100z"/><path fill="#7a7672" d="M200 0h100v100H200z"/><path fill="#787370" d="M300 0h100v100H300z"/><path fill="#767371" d="M400 0h100v100H400z"/><path fill="#72706e" d="M500 0h100v100H500z"/><path fill="#6c6764" d="M600 0h100v100H600z"/><path fill="#635d54" d="M700 0h100v100H700z"/><path fill="#2c2a2b" d="M0 100h100v100H0z"/><path fill="#706d77" d="M100 100h100v100H100z"/><path fill="#92929e" d="M200 100h100v100H200z"/><path fill="#83818b" d="M300 100h100v100H300z"/><path fill="#77625a" d="M400 100h100v100H400z"/><path fill="#725a4e" d="M500 100h100v100H500z"/><path fill="#746d74" d="M600 100h100v100H600z"/><path fill="#6f6e75" d="M700 100h100v100H700z"/><path fill="#777574" d="M0 200h100v100H0z"/><path fill="#757378" d="M100 200h100v100H100z"/><path fill="#a4a4ac" d="M200 200h100v100H200z"/><path fill="#918d90" d="M300 200h100v100H300z"/><path fill="#7d4e27" d="M400 200h100v100H400z"/><path fill="#743b09" d="M500 200h100v100H500z"/><path fill="#7f716a" d="M600 200h100v100H600z"/><path fill="#78797c" d="M700 200h100v100H700z"/><path fill="#bab9b7" d="M0 300h100v100H0z"/><path fill="#b4b3b8" d="M100 300h100v100H100z"/><path fill="#a9aeb6" d="M200 300h100v100H200z"/><path fill="#8595a3" d="M300 300h100v100H300z"/><path fill="#777371" d="M400 300h100v100H400z"/><path fill="#73716e" d="M500 300h100v100H500z"/><path fill="#717d8a" d="M600 300h100v100H600z"/><path fill="#7e8285" d="M700 300h100v100H700z"/><path fill="#d2d2ce" d="M0 400h100v100H0z"/><path fill="#cdcfd3" d="M100 400h100v100H100z"/><path fill="#bac2cb" d="M200 400h100v100H200z"/><path fill="#a5b2c1" d="M300 400h100v100H300z"/><path fill="#9badbf" d="M400 400h100v100H400z"/><path fill="#96a7ba" d="M500 400h100v100H500z"/><path fill="#8999ab" d="M600 400h100v100H600z"/><path fill="#888f93" d="M700 400h100v100H700z"/><path fill="#f7f8f5" d="M0 500h100v100H0z"/><path fill="#f2f4f2" d="M100 500h100v100H100z"/><path fill="#ebece2" d="M200 500h100v100H200z"/><path fill="#deded6" d="M300 500h100v100H300z"/><path fill="#d0cec6" d="M400 500h100v100H400z"/><path fill="#c2c0b8" d="M500 500h100v100H500z"/><path fill="#b5b7b2" d="M600 500h100v100H600z"/><path fill="#a2a398" d="M700 500h100v100H700z"/></svg>