<svg xmlns="http://www.w3.org/2000/svg" viewBox="0 0 800 600"><defs/><path fill="#6c645f" d="M0 0h100v100H0z"/><path fill="#b1b3ae" d="M100 0h100v100H100z"/><path fill="#b9bcb7" d="M200 0h100v100H200z"/><path fill="#b6bcb6" d="M300 0h100v100H300z"/><path fill="#adb2a9" d="M400 0h100v100H400z"/><path fill="#91867c" d="M500 0h100v100H500z"/><path fill="#837669" d="M600 0h100v100H600z"/><path fill="#9d978e" d="M700 0h100v100H700z"/><path fill="#a68883" d="M0 100h100v100H0z"/><path fill="#eabea3" d="M100 100h100v100H100z"/><path fill="#efce9b" d="M200 100h100v100H200z"/><path fill="#f4cba2" d="M300 100h100v100H300z"/><path fill="#edc094" d="M400 100h100v100H400z"/><path fill="#e9be93" d="M500 100h100v100H500z"/><path fill="#ca9d78" d="M600 100h100v100H600z"/><path fill="#a89685" d="M700 100h100v100H700z"/><path fill="#9d7b6f" d="M0 200h100v100H0z"/><path fill="#c59973" d="M100 200h100v100H100z"/><path fill="#c6a56b" d="M200 200h100v100H200z"/><path fill="#c4975b" d="M300 200h100v100H300z"/><path fill="#c0873c" d="M400 200h100v100H400z"/><path fill="#c49b60" d="M500 200h100v100H500z"/><path fill="#a59266" d="M600 200h100v100H600z"/><path fill="#98816e" d="M700 200h100v100H700z"/><path fill="#aa8f80" d="M0 300h100v100H0z"/><path fill="#c79c7d" d="M100 300h100v100H100z"/><path fill="#d6a793" d="M200 300h100v100H200z"/><path fill="#a08a66" d="M300 300h100v100H300z"/><path fill="#8f8161" d="M400 300h100v100H400z"/><path fill="#9e8c71" d="M500 300h100v100H500z"/><path fill="#a48b68" d="M600 300h100v100H600z"/><path fill="#9a8674" d="M700 300h100v100H700z"/><path fill="#d0b097" d="M0 400h100v100H0z"/><path fill="#ce9c84" d="M100 400h100v100H100z"/><path fill="#c7989b" d="M200 400h100v100H200z"/><path fill="#cd9589" d="M300 400h100v100H300z"/><path fill="#c68b7a" d="M400 400h100v100H400z"/><path fill="#c98f79" d="M500 400h100v100H500z"/><path fill="#da8d6a" d="M600 400h100v100H600z"/><path fill="#c2846c" d="M700 400h100v100H700z"/><path fill="#ae9d92" d="M0 500h100v100H0z"/><path fill="#a6948a" d="M100 500h100v100H100z"/><path fill="#a18e87" d="M200 500h100v100H200z"/><path fill="#ac948c" d="M300 500h100v100H300z"/><path fill="#a68c80" d="M400 500h100v100H400z"/><path fill="#9d7d70" d="M500 500h100v100H500z"/><path fill="#a07c6b" d="M600 500h100v100H600z"/><path fill="#9c7969" d="M700 500h100v100H700z"/></svg>