<svg xmlns="http://www.w3.org/2000/svg" viewBox="0 0 800 500"><defs/><path fill="#ababab" d="M0 0h100v100H0z"/><path fill="#b2b2b2" d="M100 0h100v100H100z"/><path fill="#ccc" d="M200 0h100v100H200z"/><path fill="#c5c5c5" d="M300 0h100v100H300z"/><path fill="#cfcfcf" d="M400 0h100v100H400zm100 0h100v100H500z"/><path fill="#9e9e9e" d="M600 0h100v100H600z"/><path fill="#9a9a9a" d="M700 0h100v100H700z"/><path fill="#999" d="M0 100h100v100H0z"/><path fill="#8f8f8f" d="M100 100h100v100H100z"/><path fill="#b2b2b2" d="M200 100h100v100H200z"/><path fill="#989898" d="M300 100h100v100H300z"/><path fill="#828282" d="M400 100h100v100H400z"/><path fill="#979797" d="M500 100h100v100H500z"/><path fill="#c9c9c9" d="M600 100h100v100H600z"/><path fill="#d1d1d1" d="M700 100h100v100H700z"/><path fill="#b4b4b4" d="M0 200h100v100H0z"/><path fill="#aaa" d="M100 200h100v100H100z"/><path fill="#6f6f6f" d="M200 200h100v100H200z"/><path fill="#7d7d7d" d="M300 200h100v100H300z"/><path fill="#8a8a8a" d="M400 200h100v100H400z"/><path fill="#919191" d="M500 200h100v100H500z"/><path fill="#c1c1c1" d="M600 200h100v100H600z"/><path fill="#e9e9e9" d="M700 200h100v100H700z"/><path fill="#d8d8d8" d="M0 300h100v100H0z"/><path fill="#c9c9c9" d="M100 300h100v100H100z"/><path fill="#9d9d9d" d="M200 300h100v100H200z"/><path fill="#858585" d="M300 300h100v100H300z"/><path fill="#7f7f7f" d="M400 300h100v100H400z"/><path fill="#b4b4b4" d="M500 300h100v100H500z"/><path fill="#9b9b9b" d="M600 300h100v100H600z"/><path fill="#a9a9a9" d="M700 300h100v100H700z"/><path fill="#b1b1b1" d="M0 400h100v100H0z"/><path fill="#bebebe" d="M100 400h100v100H100z"/><path fill="#cecece" d="M200 400h100v100H200z"/><path fill="#adadad" d="M300 400h100v100H300z"/><path fill="#a3a3a3" d="M400 400h100v100H400z"/><path fill="#989898" d="M500 400h100v100H500z"/><path fill="#848484" d="M600 400h100v100H600z"/><path fill="#909090" d="M700 400h100v100H700z"/></svg>