<svg xmlns="http://www.w3.org/2000/svg" viewBox="0 0 800 500"><defs/><path fill="#a99e99" d="M0 0h100v100H0z"/><path fill="#9b9492" d="M100 0h100v100H100z"/><path fill="#9a928c" d="M200 0h100v100H200z"/><path fill="#513320" d="M300 0h100v100H300z"/><path fill="#5f3f16" d="M400 0h100v100H400z"/><path fill="#6a5242" d="M500 0h100v100H500z"/><path fill="#89817a" d="M600 0h100v100H600z"/><path fill="#9a9490" d="M700 0h100v100H700z"/><path fill="#a79a98" d="M0 100h100v100H0z"/><path fill="#aca3a6" d="M100 100h100v100H100z"/><path fill="#bab9b6" d="M200 100h100v100H200z"/><path fill="#705e45" d="M300 100h100v100H300z"/><path fill="#564225" d="M400 100h100v100H400z"/><path fill="#5c4c42" d="M500 100h100v100H500z"/><path fill="#827973" d="M600 100h100v100H600z"/><path fill="#a6a3a3" d="M700 100h100v100H700z"/><path fill="#a79698" d="M0 200h100v100H0z"/><path fill="#9e9392" d="M100 200h100v100H100z"/><path fill="#89867c" d="M200 200h100v100H200z"/><path fill="#482926" d="M300 200h100v100H300z"/><path fill="#583531" d="M400 200h100v100H400z"/><path fill="#757166" d="M500 200h100v100H500z"/><path fill="#70695c" d="M600 200h100v100H600z"/><path fill="#9e9897" d="M700 200h100v100H700z"/><path fill="#9d8790" d="M0 300h100v100H0z"/><path fill="#82777d" d="M100 300h100v100H100z"/><path fill="#726a64" d="M200 300h100v100H200z"/><path fill="#583b3f" d="M300 300h100v100H300z"/><path fill="#674b4c" d="M400 300h100v100H400z"/><path fill="#71524e" d="M500 300h100v100H500z"/><path fill="#541d17" d="M600 300h100v100H600z"/><path fill="#88827f" d="M700 300h100v100H700z"/><path fill="#978898" d="M0 400h100v100H0z"/><path fill="#918396" d="M100 400h100v100H100z"/><path fill="#9c95a2" d="M200 400h100v100H200z"/><path fill="#b6adb7" d="M300 400h100v100H300z"/><path fill="#c3bdc4" d="M400 400h100v100H400z"/><path fill="#8f6570" d="M500 400h100v100H500z"/><path fill="#7c424a" d="M600 400h100v100H600z"/><path fill="#937f86" d="M700 400h100v100H700z"/></svg>