<svg xmlns="http://www.w3.org/2000/svg" viewBox="0 0 800 600"><defs/><path fill="#afbbbd" d="M0 0h100v100H0z"/><path fill="#babec0" d="M100 0h100v100H100z"/><path fill="#b3c8d1" d="M200 0h100v100H200z"/><path fill="#a5c7d4" d="M300 0h100v100H300z"/><path fill="#a0cbdd" d="M400 0h100v100H400z"/><path fill="#aac8d5" d="M500 0h100v100H500z"/><path fill="#a5cadb" d="M600 0h100v100H600z"/><path fill="#a5b9c3" d="M700 0h100v100H700z"/><path fill="#525758" d="M0 100h100v100H0z"/><path fill="#4c4885" d="M100 100h100v100H100z"/><path fill="#2797d2" d="M200 100h100v100H200z"/><path fill="#2688c7" d="M300 100h100v100H300z"/><path fill="#67afea" d="M400 100h100v100H400z"/><path fill="#6189be" d="M500 100h100v100H500z"/><path fill="#2779c7" d="M600 100h100v100H600z"/><path fill="#22514e" d="M700 100h100v100H700z"/><path fill="#3a6e62" d="M0 200h100v100H0z"/><path fill="#2d7886" d="M100 200h100v100H100z"/><path fill="#2a5d9b" d="M200 200h100v100H200z"/><path fill="#29697b" d="M300 200h100v100H300z"/><path fill="#3e5aa0" d="M400 200h100v100H400z"/><path fill="#3c3d9f" d="M500 200h100v100H500z"/><path fill="#31438c" d="M600 200h100v100H600z"/><path fill="#24453d" d="M700 200h100v100H700z"/><path fill="#638459" d="M0 300h100v100H0z"/><path fill="#75933f" d="M100 300h100v100H100z"/><path fill="#445681" d="M200 300h100v100H200z"/><path fill="#57647c" d="M300 300h100v100H300z"/><path fill="#655560" d="M400 300h100v100H400z"/><path fill="#4d3968" d="M500 300h100v100H500z"/><path fill="#524c80" d="M600 300h100v100H600z"/><path fill="#433b4c" d="M700 300h100v100H700z"/><path fill="#7f5547" d="M0 400h100v100H0z"/><path fill="#723517" d="M100 400h100v100H100z"/><path fill="#625a3d" d="M200 400h100v100H200z"/><path fill="#95755a" d="M300 400h100v100H300z"/><path fill="#956f4b" d="M400 400h100v100H400z"/><path fill="#6a5637" d="M500 400h100v100H500z"/><path fill="#744040" d="M600 400h100v100H600z"/><path fill="#7b4845" d="M700 400h100v100H700z"/><path fill="#978b8d" d="M0 500h100v100H0z"/><path fill="#8c817f" d="M100 500h100v100H100z"/><path fill="#928c81" d="M200 500h100v100H200z"/><path fill="#9e9886" d="M300 500h100v100H300z"/><path fill="#b9b69b" d="M400 500h100v100H400z"/><path fill="#928e82" d="M500 500h100v100H500z"/><path fill="#937878" d="M600 500h100v100H600z"/><path fill="#a19389" d="M700 500h100v100H700z"/></svg>