<svg xmlns="http://www.w3.org/2000/svg" viewBox="0 0 800 600"><defs/><path fill="#faffff" d="M0 0h100v100H0z"/><path fill="#d7d2cf" d="M100 0h100v100H100z"/><path fill="#d7d2ce" d="M200 0h100v100H200z"/><path fill="#d6dde0" d="M300 0h100v100H300z"/><path fill="#c3c8cd" d="M400 0h100v100H400z"/><path fill="#ced5d8" d="M500 0h100v100H500z"/><path fill="#cecdc9" d="M600 0h100v100H600z"/><path fill="#c6c0b8" d="M700 0h100v100H700z"/><path fill="#8acee0" d="M0 100h100v100H0z"/><path fill="#566267" d="M100 100h100v100H100z"/><path fill="#5881a0" d="M200 100h100v100H200z"/><path fill="#6197c0" d="M300 100h100v100H300z"/><path fill="#bdbaa4" d="M400 100h100v100H400z"/><path fill="#a4aaac" d="M500 100h100v100H500z"/><path fill="#66a3cc" d="M600 100h100v100H600z"/><path fill="#5eb0e1" d="M700 100h100v100H700z"/><path fill="#75b3c9" d="M0 200h100v100H0z"/><path fill="#4d3d3d" d="M100 200h100v100H100z"/><path fill="#557699" d="M200 200h100v100H200z"/><path fill="#788080" d="M300 200h100v100H300z"/><path fill="#ffffc8" d="M400 200h100v100H400z"/><path fill="#f6c492" d="M500 200h100v100H500z"/><path fill="#6c7886" d="M600 200h100v100H600z"/><path fill="#358cc5" d="M700 200h100v100H700z"/><path fill="#6f96b2" d="M0 300h100v100H0z"/><path fill="#4e3b3e" d="M100 300h100v100H100z"/><path fill="#484e54" d="M200 300h100v100H200z"/><path fill="#675c50" d="M300 300h100v100H300z"/><path fill="#daa273" d="M400 300h100v100H400z"/><path fill="#a68264" d="M500 300h100v100H500z"/><path fill="#3f545a" d="M600 300h100v100H600z"/><path fill="#3b96ca" d="M700 300h100v100H700z"/><path fill="#798c9a" d="M0 400h100v100H0z"/><path fill="#320c03" d="M100 400h100v100H100z"/><path fill="#270e00" d="M200 400h100v100H200z"/><path fill="#371905" d="M300 400h100v100H300z"/><path fill="#2c0f01" d="M400 400h100v100H400z"/><path fill="#211203" d="M500 400h100v100H500z"/><path fill="#3c1b00" d="M600 400h100v100H600z"/><path fill="#45697c" d="M700 400h100v100H700z"/><path fill="#c3bab5" d="M0 500h100v100H0z"/><path fill="#8b7365" d="M100 500h100v100H100z"/><path fill="#928277" d="M200 500h100v100H200z"/><path fill="#958073" d="M300 500h100v100H300z"/><path fill="#9c8b80" d="M400 500h100v100H400z"/><path fill="#a7998e" d="M500 500h100v100H500z"/><path fill="#99877a" d="M600 500h100v100H600z"/><path fill="#908277" d="M700 500h100v100H700z"/></svg>