<svg xmlns="http://www.w3.org/2000/svg" viewBox="0 0 800 400"><defs/><path fill="#859183" d="M0 0h100v100H0z"/><path fill="#9c9d90" d="M100 0h100v100H100z"/><path fill="#acb1b0" d="M200 0h100v100H200z"/><path fill="#b5bbbc" d="M300 0h100v100H300z"/><path fill="#cfd4d4" d="M400 0h100v100H400z"/><path fill="#bdc3c6" d="M500 0h100v100H500z"/><path fill="#b6bcbc" d="M600 0h100v100H600z"/><path fill="#9aa1a2" d="M700 0h100v100H700z"/><path fill="#838c7a" d="M0 100h100v100H0z"/><path fill="#6e735f" d="M100 100h100v100H100z"/><path fill="#667268" d="M200 100h100v100H200z"/><path fill="#bcbebb" d="M300 100h100v100H300z"/><path fill="#c8c9c5" d="M400 100h100v100H400z"/><path fill="#bec1bd" d="M500 100h100v100H500z"/><path fill="#828a82" d="M600 100h100v100H600z"/><path fill="#7d857c" d="M700 100h100v100H700z"/><path fill="#82927a" d="M0 200h100v100H0z"/><path fill="#7d8a75" d="M100 200h100v100H100z"/><path fill="#707f71" d="M200 200h100v100H200z"/><path fill="#b8b48f" d="M300 200h100v100H300z"/><path fill="#cbc8b9" d="M400 200h100v100H400z"/><path fill="#9f9b87" d="M500 200h100v100H500z"/><path fill="#707d6f" d="M600 200h100v100H600z"/><path fill="#748076" d="M700 200h100v100H700z"/><path fill="#6e8a6c" d="M0 300h100v100H0z"/><path fill="#a5b4a4" d="M100 300h100v100H100z"/><path fill="#c3cbc2" d="M200 300h100v100H200z"/><path fill="#bdb58d" d="M300 300h100v100H300z"/><path fill="#babfaa" d="M400 300h100v100H400z"/><path fill="#b3b9b4" d="M500 300h100v100H500z"/><path fill="#acaba0" d="M600 300h100v100H600z"/><path fill="#b2bbb1" d="M700 300h100v100H700z"/></svg>