<svg xmlns="http://www.w3.org/2000/svg" viewBox="0 0 800 500"><defs/><path fill="#d3cab6" d="M0 0h100v100H0z"/><path fill="#c1965f" d="M100 0h100v100H100z"/><path fill="#adae40" d="M200 0h100v100H200z"/><path fill="#96c74a" d="M300 0h100v100H300z"/><path fill="#d8c198" d="M400 0h100v100H400z"/><path fill="#ae824e" d="M500 0h100v100H500z"/><path fill="#b99976" d="M600 0h100v100H600z"/><path fill="#a38269" d="M700 0h100v100H700z"/><path fill="#be914c" d="M0 100h100v100H0z"/><path fill="#bd7a17" d="M100 100h100v100H100z"/><path fill="#c99732" d="M200 100h100v100H200z"/><path fill="#caa137" d="M300 100h100v100H300z"/><path fill="#c3842f" d="M400 100h100v100H400z"/><path fill="#b2651b" d="M500 100h100v100H500z"/><path fill="#c6771e" d="M600 100h100v100H600z"/><path fill="#956935" d="M700 100h100v100H700z"/><path fill="#b67312" d="M0 200h100v100H0z"/><path fill="#b5700a" d="M100 200h100v100H100z"/><path fill="#bf811c" d="M200 200h100v100H200z"/><path fill="#d4862c" d="M300 200h100v100H300z"/><path fill="#c58835" d="M400 200h100v100H400z"/><path fill="#c58a38" d="M500 200h100v100H500z"/><path fill="#a6881f" d="M600 200h100v100H600z"/><path fill="#725d08" d="M700 200h100v100H700z"/><path fill="#a16415" d="M0 300h100v100H0z"/><path fill="#a25f0d" d="M100 300h100v100H100z"/><path fill="#b27527" d="M200 300h100v100H200z"/><path fill="#d4b176" d="M300 300h100v100H300z"/><path fill="#d9b994" d="M400 300h100v100H400z"/><path fill="#c39a6a" d="M500 300h100v100H500z"/><path fill="#b59375" d="M600 300h100v100H600z"/><path fill="#b15a5f" d="M700 300h100v100H700z"/><path fill="#a36725" d="M0 400h100v100H0z"/><path fill="#b27124" d="M100 400h100v100H100z"/><path fill="#a58355" d="M200 400h100v100H200z"/><path fill="#bd883d" d="M300 400h100v100H300z"/><path fill="#d87ea2" d="M400 400h100v100H400z"/><path fill="#b663aa" d="M500 400h100v100H500z"/><path fill="#d06fc4" d="M600 400h100v100H600z"/><path fill="#d17cc2" d="M700 400h100v100H700z"/></svg>