<svg xmlns="http://www.w3.org/2000/svg" viewBox="0 0 800 500"><defs/><path fill="#c78998" d="M0 0h100v100H0z"/><path fill="#b37984" d="M100 0h100v100H100z"/><path fill="#a885a7" d="M200 0h100v100H200z"/><path fill="#a9819b" d="M300 0h100v100H300z"/><path fill="#93788f" d="M400 0h100v100H400z"/><path fill="#928d9c" d="M500 0h100v100H500z"/><path fill="#ad919d" d="M600 0h100v100H600z"/><path fill="#b48e91" d="M700 0h100v100H700z"/><path fill="#a6889f" d="M0 100h100v100H0z"/><path fill="#bea1a5" d="M100 100h100v100H100z"/><path fill="#8086a4" d="M200 100h100v100H200z"/><path fill="#718e93" d="M300 100h100v100H300z"/><path fill="#26c2b9" d="M400 100h100v100H400z"/><path fill="#90b1cf" d="M500 100h100v100H500z"/><path fill="#c3b2d1" d="M600 100h100v100H600z"/><path fill="#9a7f73" d="M700 100h100v100H700z"/><path fill="#ba9397" d="M0 200h100v100H0z"/><path fill="#a2a0ab" d="M100 200h100v100H100z"/><path fill="#7b97c5" d="M200 200h100v100H200z"/><path fill="#779388" d="M300 200h100v100H300z"/><path fill="#5b9d63" d="M400 200h100v100H400z"/><path fill="#6f7a71" d="M500 200h100v100H500z"/><path fill="#8b7f87" d="M600 200h100v100H600z"/><path fill="#9da489" d="M700 200h100v100H700z"/><path fill="#b1a3a1" d="M0 300h100v100H0z"/><path fill="#8ba5b6" d="M100 300h100v100H100z"/><path fill="#b3bedf" d="M200 300h100v100H200z"/><path fill="#ddac7e" d="M300 300h100v100H300z"/><path fill="#d1b36f" d="M400 300h100v100H400z"/><path fill="#9f8992" d="M500 300h100v100H500z"/><path fill="#7f7285" d="M600 300h100v100H600z"/><path fill="#829568" d="M700 300h100v100H700z"/><path fill="#d0a2a8" d="M0 400h100v100H0z"/><path fill="#c3bbcd" d="M100 400h100v100H100z"/><path fill="#ccb2b8" d="M200 400h100v100H200z"/><path fill="#deb268" d="M300 400h100v100H300z"/><path fill="#e3bf73" d="M400 400h100v100H400z"/><path fill="#e2c1c4" d="M500 400h100v100H500z"/><path fill="#e5ceea" d="M600 400h100v100H600z"/><path fill="#c1a499" d="M700 400h100v100H700z"/></svg>