<svg xmlns="http://www.w3.org/2000/svg" viewBox="0 0 800 600"><defs/><path fill="#3e2e2b" d="M0 0h100v100H0z"/><path fill="#573c39" d="M100 0h100v100H100z"/><path fill="#916a63" d="M200 0h100v100H200z"/><path fill="#c9c3be" d="M300 0h100v100H300z"/><path fill="#ada4a0" d="M400 0h100v100H400z"/><path fill="#bebcb9" d="M500 0h100v100H500z"/><path fill="#d3ada0" d="M600 0h100v100H600z"/><path fill="#6f4d43" d="M700 0h100v100H700z"/><path fill="#4d3533" d="M0 100h100v100H0z"/><path fill="#5e3834" d="M100 100h100v100H100z"/><path fill="#a27d76" d="M200 100h100v100H200z"/><path fill="#c6d5d7" d="M300 100h100v100H300z"/><path fill="#919aa1" d="M400 100h100v100H400z"/><path fill="#9db2b6" d="M500 100h100v100H500z"/><path fill="#e3c2b8" d="M600 100h100v100H600z"/><path fill="#af726a" d="M700 100h100v100H700z"/><path fill="#4a302c" d="M0 200h100v100H0z"/><path fill="#5f403b" d="M100 200h100v100H100z"/><path fill="#aa8b86" d="M200 200h100v100H200z"/><path fill="#ced5da" d="M300 200h100v100H300z"/><path fill="#abb1ba" d="M400 200h100v100H400z"/><path fill="#b7c9ce" d="M500 200h100v100H500z"/><path fill="#d3b5b0" d="M600 200h100v100H600z"/><path fill="#a7737a" d="M700 200h100v100H700z"/><path fill="#4d3731" d="M0 300h100v100H0z"/><path fill="#613f3d" d="M100 300h100v100H100z"/><path fill="#9a726f" d="M200 300h100v100H200z"/><path fill="#8f8d87" d="M300 300h100v100H300z"/><path fill="#696f6d" d="M400 300h100v100H400z"/><path fill="#a89992" d="M500 300h100v100H500z"/><path fill="#a4726d" d="M600 300h100v100H600z"/><path fill="#9b7373" d="M700 300h100v100H700z"/><path fill="#483533" d="M0 400h100v100H0z"/><path fill="#6b403f" d="M100 400h100v100H100z"/><path fill="#c49a94" d="M200 400h100v100H200z"/><path fill="#c2958e" d="M300 400h100v100H300z"/><path fill="#c9948e" d="M400 400h100v100H400z"/><path fill="#d0aa9d" d="M500 400h100v100H500z"/><path fill="#d3ab9c" d="M600 400h100v100H600z"/><path fill="#b38a82" d="M700 400h100v100H700z"/><path fill="#4b2f2a" d="M0 500h100v100H0z"/><path fill="#8d6259" d="M100 500h100v100H100z"/><path fill="#f3d3c7" d="M200 500h100v100H200z"/><path fill="#e7b6a1" d="M300 500h100v100H300z"/><path fill="#e5b29b" d="M400 500h100v100H400z"/><path fill="#d1bda7" d="M500 500h100v100H500z"/><path fill="#f8ddce" d="M600 500h100v100H600z"/><path fill="#c59f98" d="M700 500h100v100H700z"/></svg>