<svg xmlns="http://www.w3.org/2000/svg" viewBox="0 0 800 400"><defs/><path fill="#c1b1a5" d="M0 0h100v100H0z"/><path fill="#957961" d="M100 0h100v100H100z"/><path fill="#9697a5" d="M200 0h100v100H200z"/><path fill="#8c8d97" d="M300 0h100v100H300z"/><path fill="#939d9c" d="M400 0h100v100H400z"/><path fill="#acbc7f" d="M500 0h100v100H500z"/><path fill="#98b65b" d="M600 0h100v100H600z"/><path fill="#c0d0aa" d="M700 0h100v100H700z"/><path fill="#c9b9a3" d="M0 100h100v100H0z"/><path fill="#96835f" d="M100 100h100v100H100z"/><path fill="#8f8da2" d="M200 100h100v100H200z"/><path fill="#796669" d="M300 100h100v100H300z"/><path fill="#87909c" d="M400 100h100v100H400z"/><path fill="#a3b2b5" d="M500 100h100v100H500z"/><path fill="#929887" d="M600 100h100v100H600z"/><path fill="#a6aca8" d="M700 100h100v100H700z"/><path fill="#b6a688" d="M0 200h100v100H0z"/><path fill="#968a70" d="M100 200h100v100H100z"/><path fill="#9f9ca8" d="M200 200h100v100H200z"/><path fill="#7a685d" d="M300 200h100v100H300z"/><path fill="#9c989d" d="M400 200h100v100H400z"/><path fill="#c8c9dc" d="M500 200h100v100H500z"/><path fill="#c6bace" d="M600 200h100v100H600z"/><path fill="#b9b5c3" d="M700 200h100v100H700z"/><path fill="#b69b87" d="M0 300h100v100H0z"/><path fill="#ad9c92" d="M100 300h100v100H100z"/><path fill="#a39696" d="M200 300h100v100H200z"/><path fill="#ab978c" d="M300 300h100v100H300z"/><path fill="#bbb7ce" d="M400 300h100v100H400z"/><path fill="#6c70c7" d="M500 300h100v100H500z"/><path fill="#797bc5" d="M600 300h100v100H600z"/><path fill="#d6d7e6" d="M700 300h100v100H700z"/></svg>