<svg xmlns="http://www.w3.org/2000/svg" viewBox="0 0 800 400"><defs/><path fill="#acaa98" d="M0 0h100v100H0z"/><path fill="#8e8c68" d="M100 0h100v100H100z"/><path fill="#9f9785" d="M200 0h100v100H200z"/><path fill="#aaa092" d="M300 0h100v100H300z"/><path fill="#b2ac99" d="M400 0h100v100H400z"/><path fill="#9f998b" d="M500 0h100v100H500z"/><path fill="#969289" d="M600 0h100v100H600z"/><path fill="#aead97" d="M700 0h100v100H700z"/><path fill="#93907a" d="M0 100h100v100H0z"/><path fill="#848058" d="M100 100h100v100H100z"/><path fill="#c5c1a6" d="M200 100h100v100H200z"/><path fill="#c4bdac" d="M300 100h100v100H300z"/><path fill="#d8cfaa" d="M400 100h100v100H400z"/><path fill="#989889" d="M500 100h100v100H500z"/><path fill="#7c7969" d="M600 100h100v100H600z"/><path fill="#878860" d="M700 100h100v100H700z"/><path fill="#beba96" d="M0 200h100v100H0z"/><path fill="#a89e71" d="M100 200h100v100H100z"/><path fill="#bbb49a" d="M200 200h100v100H200z"/><path fill="#9f9885" d="M300 200h100v100H300z"/><path fill="#bbb99b" d="M400 200h100v100H400z"/><path fill="#8f8b85" d="M500 200h100v100H500z"/><path fill="#6d6553" d="M600 200h100v100H600z"/><path fill="#74764d" d="M700 200h100v100H700z"/><path fill="#d3c8a2" d="M0 300h100v100H0z"/><path fill="#bfad87" d="M100 300h100v100H100z"/><path fill="#b0a895" d="M200 300h100v100H200z"/><path fill="#a9a492" d="M300 300h100v100H300z"/><path fill="#9c9d87" d="M400 300h100v100H400z"/><path fill="#b1a296" d="M500 300h100v100H500z"/><path fill="#deb38a" d="M600 300h100v100H600z"/><path fill="#a1946b" d="M700 300h100v100H700z"/></svg>