<svg xmlns="http://www.w3.org/2000/svg" viewBox="0 0 800 600"><defs/><path fill="#82847f" d="M0 0h100v100H0z"/><path fill="#7c7d78" d="M100 0h100v100H100z"/><path fill="#93928c" d="M200 0h100v100H200z"/><path fill="#96958c" d="M300 0h100v100H300z"/><path fill="#7d7c73" d="M400 0h100v100H400z"/><path fill="#77756c" d="M500 0h100v100H500z"/><path fill="#6b6a63" d="M600 0h100v100H600z"/><path fill="#777772" d="M700 0h100v100H700z"/><path fill="#90928d" d="M0 100h100v100H0z"/><path fill="#8b8c87" d="M100 100h100v100H100z"/><path fill="#b7b9b3" d="M200 100h100v100H200z"/><path fill="#b5b7b1" d="M300 100h100v100H300z"/><path fill="#c2c5be" d="M400 100h100v100H400z"/><path fill="#aaada6" d="M500 100h100v100H500z"/><path fill="#7f7f79" d="M600 100h100v100H600z"/><path fill="#65655f" d="M700 100h100v100H700z"/><path fill="#7f7f7b" d="M0 200h100v100H0z"/><path fill="#91928c" d="M100 200h100v100H100z"/><path fill="#bbbeb7" d="M200 200h100v100H200z"/><path fill="#9a9c95" d="M300 200h100v100H300z"/><path fill="#b8bcb6" d="M400 200h100v100H400z"/><path fill="#bcbfb8" d="M500 200h100v100H500z"/><path fill="#969690" d="M600 200h100v100H600z"/><path fill="#65645e" d="M700 200h100v100H700z"/><path fill="#767570" d="M0 300h100v100H0z"/><path fill="#a2a49d" d="M100 300h100v100H100z"/><path fill="#b2b5ae" d="M200 300h100v100H200z"/><path fill="#8d8f89" d="M300 300h100v100H300z"/><path fill="#908982" d="M400 300h100v100H400z"/><path fill="#9d9b95" d="M500 300h100v100H500z"/><path fill="#9d9e97" d="M600 300h100v100H600z"/><path fill="#8d8c84" d="M700 300h100v100H700z"/><path fill="#777671" d="M0 400h100v100H0z"/><path fill="#a2a49e" d="M100 400h100v100H100z"/><path fill="#b9bcb5" d="M200 400h100v100H200z"/><path fill="#bfc2bb" d="M300 400h100v100H300z"/><path fill="#a9a69e" d="M400 400h100v100H400z"/><path fill="#a4a39c" d="M500 400h100v100H500z"/><path fill="#bdbfb8" d="M600 400h100v100H600z"/><path fill="#a3a49d" d="M700 400h100v100H700z"/><path fill="#8c8d87" d="M0 500h100v100H0z"/><path fill="#b8bab4" d="M100 500h100v100H100z"/><path fill="#d1d4ce" d="M200 500h100v100H200z"/><path fill="#d2d5ce" d="M300 500h100v100H300z"/><path fill="#e0e4dd" d="M400 500h100v100H400z"/><path fill="#d8dad4" d="M500 500h100v100H500z"/><path fill="#cdcfc9" d="M600 500h100v100H600z"/><path fill="#9e9f98" d="M700 500h100v100H700z"/></svg>