<svg xmlns="http://www.w3.org/2000/svg" viewBox="0 0 800 500"><defs/><path fill="#f4e3dc" d="M0 0h100v100H0z"/><path fill="#ddccc6" d="M100 0h100v100H100z"/><path fill="#ebd7cd" d="M200 0h100v100H200z"/><path fill="#f6efec" d="M300 0h100v100H300z"/><path fill="#fbf2f0" d="M400 0h100v100H400z"/><path fill="#fdebeb" d="M500 0h100v100H500z"/><path fill="#fde9eb" d="M600 0h100v100H600z"/><path fill="#fbe2e5" d="M700 0h100v100H700z"/><path fill="#ead5cc" d="M0 100h100v100H0z"/><path fill="#c5b4ac" d="M100 100h100v100H100z"/><path fill="#d3c1b6" d="M200 100h100v100H200z"/><path fill="#ddedeb" d="M300 100h100v100H300z"/><path fill="#cdece9" d="M400 100h100v100H400z"/><path fill="#d8d6cf" d="M500 100h100v100H500z"/><path fill="#f0d0d0" d="M600 100h100v100H600z"/><path fill="#e8cac9" d="M700 100h100v100H700z"/><path fill="#ddcfca" d="M0 200h100v100H0z"/><path fill="#c7b7ad" d="M100 200h100v100H100z"/><path fill="#ddccc1" d="M200 200h100v100H200z"/><path fill="#f8f1ec" d="M300 200h100v100H300z"/><path fill="#eaefec" d="M400 200h100v100H400z"/><path fill="#dfcec1" d="M500 200h100v100H500z"/><path fill="#c5b8b0" d="M600 200h100v100H600z"/><path fill="#b4aba6" d="M700 200h100v100H700z"/><path fill="#dbcac7" d="M0 300h100v100H0z"/><path fill="#b8bcb2" d="M100 300h100v100H100z"/><path fill="#b8c5bc" d="M200 300h100v100H200z"/><path fill="#c2b1ac" d="M300 300h100v100H300z"/><path fill="#bfbab4" d="M400 300h100v100H400z"/><path fill="#aaa6a3" d="M500 300h100v100H500z"/><path fill="#bbbab2" d="M600 300h100v100H600z"/><path fill="#abaaa7" d="M700 300h100v100H700z"/><path fill="#dccec9" d="M0 400h100v100H0z"/><path fill="#d8cbc1" d="M100 400h100v100H100z"/><path fill="#ded0c6" d="M200 400h100v100H200z"/><path fill="#d8c5bd" d="M300 400h100v100H300z"/><path fill="#c3bab6" d="M400 400h100v100H400z"/><path fill="#b2acab" d="M500 400h100v100H500z"/><path fill="#cbbab3" d="M600 400h100v100H600z"/><path fill="#b6b2b2" d="M700 400h100v100H700z"/></svg>