<svg xmlns="http://www.w3.org/2000/svg" viewBox="0 0 800 500"><defs/><path fill="#4c4b4e" d="M0 0h100v100H0z"/><path fill="#c6c0c0" d="M100 0h100v100H100z"/><path fill="#d0c4c2" d="M200 0h100v100H200z"/><path fill="#dfdbd8" d="M300 0h100v100H300z"/><path fill="#eae1de" d="M400 0h100v100H400z"/><path fill="#f2e9e4" d="M500 0h100v100H500z"/><path fill="#fffcf4" d="M600 0h100v100H600z"/><path fill="#b5afa8" d="M700 0h100v100H700z"/><path fill="#757779" d="M0 100h100v100H0z"/><path fill="#ccaea7" d="M100 100h100v100H100z"/><path fill="#ae7f74" d="M200 100h100v100H200z"/><path fill="#92a6b0" d="M300 100h100v100H300z"/><path fill="#9bb9b7" d="M400 100h100v100H400z"/><path fill="#afbcb7" d="M500 100h100v100H500z"/><path fill="#f2c7bb" d="M600 100h100v100H600z"/><path fill="#e4e0d1" d="M700 100h100v100H700z"/><path fill="#a4a4a3" d="M0 200h100v100H0z"/><path fill="#b8978e" d="M100 200h100v100H100z"/><path fill="#8d7d79" d="M200 200h100v100H200z"/><path fill="#788385" d="M300 200h100v100H300z"/><path fill="#a2aaa3" d="M400 200h100v100H400z"/><path fill="#928473" d="M500 200h100v100H500z"/><path fill="#d8a493" d="M600 200h100v100H600z"/><path fill="#e5e3d1" d="M700 200h100v100H700z"/><path fill="#aca5a2" d="M0 300h100v100H0z"/><path fill="#ad9f9b" d="M100 300h100v100H100z"/><path fill="#acaea9" d="M200 300h100v100H200z"/><path fill="#b6bdb2" d="M300 300h100v100H300z"/><path fill="#dfd1c8" d="M400 300h100v100H400z"/><path fill="#bba096" d="M500 300h100v100H500z"/><path fill="#c8a295" d="M600 300h100v100H600z"/><path fill="#ece3d3" d="M700 300h100v100H700z"/><path fill="#a39c9b" d="M0 400h100v100H0z"/><path fill="#aba5a2" d="M100 400h100v100H100z"/><path fill="#b6aeaa" d="M200 400h100v100H200z"/><path fill="#bbb3ad" d="M300 400h100v100H300z"/><path fill="#bebab1" d="M400 400h100v100H400z"/><path fill="#c9c4ba" d="M500 400h100v100H500z"/><path fill="#d0c6c0" d="M600 400h100v100H600z"/><path fill="#d9cfbd" d="M700 400h100v100H700z"/></svg>