<svg xmlns="http://www.w3.org/2000/svg" viewBox="0 0 800 400"><defs/><path fill="#758daa" d="M0 0h100v100H0z"/><path fill="#cca06e" d="M100 0h100v100H100z"/><path fill="#ffee9b" d="M200 0h100v100H200z"/><path fill="#5c6766" d="M300 0h100v100H300z"/><path fill="#2c4156" d="M400 0h100v100H400z"/><path fill="#2d4557" d="M500 0h100v100H500z"/><path fill="#274052" d="M600 0h100v100H600z"/><path fill="#b7a982" d="M700 0h100v100H700z"/><path fill="#8c959b" d="M0 100h100v100H0z"/><path fill="#d3b596" d="M100 100h100v100H100z"/><path fill="#e7d591" d="M200 100h100v100H200z"/><path fill="#65828a" d="M300 100h100v100H300z"/><path fill="#546e8c" d="M400 100h100v100H400z"/><path fill="#767289" d="M500 100h100v100H500z"/><path fill="#67646c" d="M600 100h100v100H600z"/><path fill="#b39a6b" d="M700 100h100v100H700z"/><path fill="#7f796f" d="M0 200h100v100H0z"/><path fill="#b79c8d" d="M100 200h100v100H100z"/><path fill="#988073" d="M200 200h100v100H200z"/><path fill="#827a57" d="M300 200h100v100H300z"/><path fill="#856a56" d="M400 200h100v100H400z"/><path fill="#936863" d="M500 200h100v100H500z"/><path fill="#876b69" d="M600 200h100v100H600z"/><path fill="#ccaa85" d="M700 200h100v100H700z"/><path fill="#8b7257" d="M0 300h100v100H0z"/><path fill="#a98c64" d="M100 300h100v100H100z"/><path fill="#a98c57" d="M200 300h100v100H200z"/><path fill="#d7b063" d="M300 300h100v100H300z"/><path fill="#bdac85" d="M400 300h100v100H400z"/><path fill="#998c75" d="M500 300h100v100H500z"/><path fill="#7e7a75" d="M600 300h100v100H600z"/><path fill="#81746a" d="M700 300h100v100H700z"/></svg>