<svg xmlns="http://www.w3.org/2000/svg" viewBox="0 0 800 600"><defs/><path fill="#7e5051" d="M0 0h100v100H0z"/><path fill="#955056" d="M100 0h100v100H100z"/><path fill="#8d6a70" d="M200 0h100v100H200z"/><path fill="#7e6c7e" d="M300 0h100v100H300z"/><path fill="#ba7c8e" d="M400 0h100v100H400z"/><path fill="#e48e8c" d="M500 0h100v100H500z"/><path fill="#c79081" d="M600 0h100v100H600z"/><path fill="#b27254" d="M700 0h100v100H700z"/><path fill="#a58b99" d="M0 100h100v100H0z"/><path fill="#c5a7b8" d="M100 100h100v100H100z"/><path fill="#dac9bf" d="M200 100h100v100H200z"/><path fill="#919c9e" d="M300 100h100v100H300z"/><path fill="#b0a9b6" d="M400 100h100v100H400z"/><path fill="#b5aaa8" d="M500 100h100v100H500z"/><path fill="#d5bbab" d="M600 100h100v100H600z"/><path fill="#ad9581" d="M700 100h100v100H700z"/><path fill="#ae9aa8" d="M0 200h100v100H0z"/><path fill="#f3d2d7" d="M100 200h100v100H100z"/><path fill="#b3b499" d="M200 200h100v100H200z"/><path fill="#587761" d="M300 200h100v100H300z"/><path fill="#9b8383" d="M400 200h100v100H400z"/><path fill="#a5837d" d="M500 200h100v100H500z"/><path fill="#b5846e" d="M600 200h100v100H600z"/><path fill="#918467" d="M700 200h100v100H700z"/><path fill="#b2a2b7" d="M0 300h100v100H0z"/><path fill="#d5afb5" d="M100 300h100v100H100z"/><path fill="#ccb6aa" d="M200 300h100v100H200z"/><path fill="#658da5" d="M300 300h100v100H300z"/><path fill="#ac858e" d="M400 300h100v100H400z"/><path fill="#d59785" d="M500 300h100v100H500z"/><path fill="#b2949b" d="M600 300h100v100H600z"/><path fill="#c3aa95" d="M700 300h100v100H700z"/><path fill="#ab9db9" d="M0 400h100v100H0z"/><path fill="#bc9dad" d="M100 400h100v100H100z"/><path fill="#cf9b91" d="M200 400h100v100H200z"/><path fill="#da9b8d" d="M300 400h100v100H300z"/><path fill="#d7a3a4" d="M400 400h100v100H400z"/><path fill="#be8675" d="M500 400h100v100H500z"/><path fill="#c1957b" d="M600 400h100v100H600z"/><path fill="#ceb59d" d="M700 400h100v100H700z"/><path fill="#9c94ab" d="M0 500h100v100H0z"/><path fill="#ad8d87" d="M100 500h100v100H100z"/><path fill="#976e66" d="M200 500h100v100H200z"/><path fill="#af7b69" d="M300 500h100v100H300z"/><path fill="#c5937a" d="M400 500h100v100H400z"/><path fill="#a1797c" d="M500 500h100v100H500z"/><path fill="#977a88" d="M600 500h100v100H600z"/><path fill="#aa8a8c" d="M700 500h100v100H700z"/></svg>