<svg xmlns="http://www.w3.org/2000/svg" viewBox="0 0 800 400"><defs/><path fill="#64675a" d="M0 0h100v100H0z"/><path fill="#859a9b" d="M100 0h100v100H100z"/><path fill="#4c6278" d="M200 0h100v100H200z"/><path fill="#435771" d="M300 0h100v100H300z"/><path fill="#354a3a" d="M400 0h100v100H400z"/><path fill="#57746b" d="M500 0h100v100H500z"/><path fill="#5e7b6e" d="M600 0h100v100H600z"/><path fill="#6d6648" d="M700 0h100v100H700z"/><path fill="#555350" d="M0 100h100v100H0z"/><path fill="#768586" d="M100 100h100v100H100z"/><path fill="#5a626c" d="M200 100h100v100H200z"/><path fill="#54606d" d="M300 100h100v100H300z"/><path fill="#485c53" d="M400 100h100v100H400z"/><path fill="#2f5042" d="M500 100h100v100H500z"/><path fill="#50787b" d="M600 100h100v100H600z"/><path fill="#83714d" d="M700 100h100v100H700z"/><path fill="#87948c" d="M0 200h100v100H0z"/><path fill="#75848b" d="M100 200h100v100H100z"/><path fill="#505042" d="M200 200h100v100H200z"/><path fill="#424b3c" d="M300 200h100v100H300z"/><path fill="#697e74" d="M400 200h100v100H400z"/><path fill="#3d6a54" d="M500 200h100v100H500z"/><path fill="#689091" d="M600 200h100v100H600z"/><path fill="#928a74" d="M700 200h100v100H700z"/><path fill="#8d9e9a" d="M0 300h100v100H0z"/><path fill="#6f816d" d="M100 300h100v100H100z"/><path fill="#556543" d="M200 300h100v100H200z"/><path fill="#4e6141" d="M300 300h100v100H300z"/><path fill="#596a45" d="M400 300h100v100H400z"/><path fill="#666d4f" d="M500 300h100v100H500z"/><path fill="#636c46" d="M600 300h100v100H600z"/><path fill="#6d6f49" d="M700 300h100v100H700z"/></svg>