<svg xmlns="http://www.w3.org/2000/svg" viewBox="0 0 800 500"><defs/><path fill="#eee" d="M0 0h100v100H0z"/><path fill="#e2e2e3" d="M100 0h100v100H100z"/><path fill="#dadadb" d="M200 0h100v100H200z"/><path fill="#d5d5d6" d="M300 0h100v100H300z"/><path fill="#e6e6e6" d="M400 0h100v100H400z"/><path fill="#e7e8e7" d="M500 0h100v100H500z"/><path fill="#e4e4e4" d="M600 0h100v100H600z"/><path fill="#e6e5e5" d="M700 0h100v100H700z"/><path fill="#f1f1f2" d="M0 100h100v100H0z"/><path fill="#dcdcde" d="M100 100h100v100H100z"/><path fill="#e2e3e3" d="M200 100h100v100H200z"/><path fill="#cacbcd" d="M300 100h100v100H300z"/><path fill="#dadbdc" d="M400 100h100v100H400z"/><path fill="#e7e7e7" d="M500 100h100v100H500z"/><path fill="#dfdfdf" d="M600 100h100v100H600z"/><path fill="#d1d2d2" d="M700 100h100v100H700z"/><path fill="#f6f6f7" d="M0 200h100v100H0z"/><path fill="#c0c3c6" d="M100 200h100v100H100z"/><path fill="#c4c6c7" d="M200 200h100v100H200z"/><path fill="#e3e5e5" d="M300 200h100v100H300z"/><path fill="#c6c8ca" d="M400 200h100v100H400z"/><path fill="#d0d1d1" d="M500 200h100v100H500z"/><path fill="#d1d1d1" d="M600 200h100v100H600z"/><path fill="#d2d3d4" d="M700 200h100v100H700z"/><path fill="#e8e8e9" d="M0 300h100v100H0z"/><path fill="#a4a6a8" d="M100 300h100v100H100z"/><path fill="#c7c9cb" d="M200 300h100v100H200z"/><path fill="#e9eaeb" d="M300 300h100v100H300z"/><path fill="#cfd1d1" d="M400 300h100v100H400z"/><path fill="#d1d2d2" d="M500 300h100v100H500z"/><path fill="#c5c8c9" d="M600 300h100v100H600z"/><path fill="#d7d9d9" d="M700 300h100v100H700z"/><path fill="#dfe0e2" d="M0 400h100v100H0z"/><path fill="#d5d5d7" d="M100 400h100v100H100z"/><path fill="#e8e9e9" d="M200 400h100v100H200z"/><path fill="#e6e8e7" d="M300 400h100v100H300z"/><path fill="#e1e3e3" d="M400 400h100v100H400z"/><path fill="#e3e5e6" d="M500 400h100v100H500z"/><path fill="#e6e7e7" d="M600 400h100v100H600z"/><path fill="#e7e8e9" d="M700 400h100v100H700z"/></svg>