<svg xmlns="http://www.w3.org/2000/svg" viewBox="0 0 800 500"><defs/><path fill="#e5e5dd" d="M0 0h100v100H0z"/><path fill="#b9a887" d="M100 0h100v100H100z"/><path fill="#d7c7ab" d="M200 0h100v100H200z"/><path fill="#e4e0d0" d="M300 0h100v100H300z"/><path fill="#bbb4a5" d="M400 0h100v100H400z"/><path fill="#d1d1bc" d="M500 0h100v100H500z"/><path fill="#cbd1b3" d="M600 0h100v100H600z"/><path fill="#d7d8c5" d="M700 0h100v100H700z"/><path fill="#c4bfa5" d="M0 100h100v100H0z"/><path fill="#b2996e" d="M100 100h100v100H100z"/><path fill="#cec3b0" d="M200 100h100v100H200z"/><path fill="#dbcfba" d="M300 100h100v100H300z"/><path fill="#cebda7" d="M400 100h100v100H400z"/><path fill="#c1baab" d="M500 100h100v100H500z"/><path fill="#cdc6ad" d="M600 100h100v100H600z"/><path fill="#dad1bb" d="M700 100h100v100H700z"/><path fill="#d0c0a1" d="M0 200h100v100H0z"/><path fill="#b6a387" d="M100 200h100v100H100z"/><path fill="#c5b8ac" d="M200 200h100v100H200z"/><path fill="#dcc5a9" d="M300 200h100v100H300z"/><path fill="#d5ae93" d="M400 200h100v100H400z"/><path fill="#d0baa9" d="M500 200h100v100H500z"/><path fill="#dad2bd" d="M600 200h100v100H600z"/><path fill="#dcd0bc" d="M700 200h100v100H700z"/><path fill="#bca98d" d="M0 300h100v100H0z"/><path fill="#bab6a7" d="M100 300h100v100H100z"/><path fill="#cdc1b6" d="M200 300h100v100H200z"/><path fill="#d7cabf" d="M300 300h100v100H300z"/><path fill="#d3bdb1" d="M400 300h100v100H400z"/><path fill="#d2c2b3" d="M500 300h100v100H500z"/><path fill="#dcd4ce" d="M600 300h100v100H600z"/><path fill="#c3b6ab" d="M700 300h100v100H700z"/><path fill="#cca874" d="M0 400h100v100H0z"/><path fill="#c4996e" d="M100 400h100v100H100z"/><path fill="#d4a780" d="M200 400h100v100H200z"/><path fill="#b4a38f" d="M300 400h100v100H300z"/><path fill="#d4cfc4" d="M400 400h100v100H400z"/><path fill="#d9bb97" d="M500 400h100v100H500z"/><path fill="#c6a785" d="M600 400h100v100H600z"/><path fill="#c0a786" d="M700 400h100v100H700z"/></svg>