<svg xmlns="http://www.w3.org/2000/svg" viewBox="0 0 800 500"><defs/><path fill="#d8b9ba" d="M0 0h100v100H0z"/><path fill="#b19b9b" d="M100 0h100v100H100z"/><path fill="#919fa7" d="M200 0h100v100H200z"/><path fill="#85909c" d="M300 0h100v100H300z"/><path fill="#929ba8" d="M400 0h100v100H400z"/><path fill="#99a2ad" d="M500 0h100v100H500z"/><path fill="#a0a2a7" d="M600 0h100v100H600z"/><path fill="#a5a8b0" d="M700 0h100v100H700z"/><path fill="#bd8384" d="M0 100h100v100H0z"/><path fill="#785f62" d="M100 100h100v100H100z"/><path fill="#73776f" d="M200 100h100v100H200z"/><path fill="#2a303c" d="M300 100h100v100H300z"/><path fill="#626774" d="M400 100h100v100H400z"/><path fill="#5f6778" d="M500 100h100v100H500z"/><path fill="#374154" d="M600 100h100v100H600z"/><path fill="#676976" d="M700 100h100v100H700z"/><path fill="#aa8b8a" d="M0 200h100v100H0z"/><path fill="#7f6a6a" d="M100 200h100v100H100z"/><path fill="#846d66" d="M200 200h100v100H200z"/><path fill="#51515a" d="M300 200h100v100H300z"/><path fill="#3e4e5e" d="M400 200h100v100H400z"/><path fill="#5f5860" d="M500 200h100v100H500z"/><path fill="#393340" d="M600 200h100v100H600z"/><path fill="#5c5f6a" d="M700 200h100v100H700z"/><path fill="#998b8c" d="M0 300h100v100H0z"/><path fill="#634f4d" d="M100 300h100v100H100z"/><path fill="#543c41" d="M200 300h100v100H200z"/><path fill="#624349" d="M300 300h100v100H300z"/><path fill="#6c575d" d="M400 300h100v100H400z"/><path fill="#65575b" d="M500 300h100v100H500z"/><path fill="#453738" d="M600 300h100v100H600z"/><path fill="#5f6164" d="M700 300h100v100H700z"/><path fill="#979396" d="M0 400h100v100H0z"/><path fill="#7c6a68" d="M100 400h100v100H100z"/><path fill="#86797b" d="M200 400h100v100H200z"/><path fill="#785f60" d="M300 400h100v100H300z"/><path fill="#7a6767" d="M400 400h100v100H400z"/><path fill="#85787b" d="M500 400h100v100H500z"/><path fill="#82736f" d="M600 400h100v100H600z"/><path fill="#76797f" d="M700 400h100v100H700z"/></svg>