<svg xmlns="http://www.w3.org/2000/svg" viewBox="0 0 800 500"><defs/><path fill="#917096" d="M0 0h100v100H0z"/><path fill="#8f3f47" d="M100 0h100v100H100z"/><path fill="#83767c" d="M200 0h100v100H200z"/><path fill="#91adb9" d="M300 0h100v100H300z"/><path fill="#9aa4ae" d="M400 0h100v100H400z"/><path fill="#85acbb" d="M500 0h100v100H500z"/><path fill="#989795" d="M600 0h100v100H600z"/><path fill="#968270" d="M700 0h100v100H700z"/><path fill="#856b83" d="M0 100h100v100H0z"/><path fill="#8a2c2b" d="M100 100h100v100H100z"/><path fill="#808c92" d="M200 100h100v100H200z"/><path fill="#a7c2cf" d="M300 100h100v100H300z"/><path fill="#a1a7b1" d="M400 100h100v100H400z"/><path fill="#8fb6c4" d="M500 100h100v100H500z"/><path fill="#a8a197" d="M600 100h100v100H600z"/><path fill="#977b64" d="M700 100h100v100H700z"/><path fill="#8f6681" d="M0 200h100v100H0z"/><path fill="#842c29" d="M100 200h100v100H100z"/><path fill="#a37e7b" d="M200 200h100v100H200z"/><path fill="#98a79c" d="M300 200h100v100H300z"/><path fill="#b3b6a6" d="M400 200h100v100H400z"/><path fill="#afa3a2" d="M500 200h100v100H500z"/><path fill="#928474" d="M600 200h100v100H600z"/><path fill="#9e7e6d" d="M700 200h100v100H700z"/><path fill="#8f5672" d="M0 300h100v100H0z"/><path fill="#7b2520" d="M100 300h100v100H100z"/><path fill="#8d625d" d="M200 300h100v100H200z"/><path fill="#999487" d="M300 300h100v100H300z"/><path fill="#a9bca1" d="M400 300h100v100H400z"/><path fill="#939f87" d="M500 300h100v100H500z"/><path fill="#89776a" d="M600 300h100v100H600z"/><path fill="#af6f5b" d="M700 300h100v100H700z"/><path fill="#835761" d="M0 400h100v100H0z"/><path fill="#875042" d="M100 400h100v100H100z"/><path fill="#9c7f70" d="M200 400h100v100H200z"/><path fill="#a69186" d="M300 400h100v100H300z"/><path fill="#a39e93" d="M400 400h100v100H400z"/><path fill="#979884" d="M500 400h100v100H500z"/><path fill="#af6885" d="M600 400h100v100H600z"/><path fill="#aa736d" d="M700 400h100v100H700z"/></svg>