<svg xmlns="http://www.w3.org/2000/svg" viewBox="0 0 800 600"><defs/><path fill="#876cc5" d="M0 0h100v100H0z"/><path fill="#9a96d6" d="M100 0h100v100H100z"/><path fill="#abbee8" d="M200 0h100v100H200z"/><path fill="#a0b1e4" d="M300 0h100v100H300z"/><path fill="#8fa1dc" d="M400 0h100v100H400z"/><path fill="#a5b7e7" d="M500 0h100v100H500z"/><path fill="#a3b2e8" d="M600 0h100v100H600z"/><path fill="#9f8bcf" d="M700 0h100v100H700z"/><path fill="#8f56b2" d="M0 100h100v100H0z"/><path fill="#8d6eb2" d="M100 100h100v100H100z"/><path fill="#8da1ce" d="M200 100h100v100H200z"/><path fill="#8c8bc9" d="M300 100h100v100H300z"/><path fill="#7f70bc" d="M400 100h100v100H400z"/><path fill="#9197c6" d="M500 100h100v100H500z"/><path fill="#6f7dbe" d="M600 100h100v100H600z"/><path fill="#8f5ab9" d="M700 100h100v100H700z"/><path fill="#9e69b8" d="M0 200h100v100H0z"/><path fill="#765b96" d="M100 200h100v100H100z"/><path fill="#4c66ae" d="M200 200h100v100H200z"/><path fill="#7d72c5" d="M300 200h100v100H300z"/><path fill="#8f77c6" d="M400 200h100v100H400z"/><path fill="#8f8ec1" d="M500 200h100v100H500z"/><path fill="#575f9c" d="M600 200h100v100H600z"/><path fill="#824db3" d="M700 200h100v100H700z"/><path fill="#965db8" d="M0 300h100v100H0z"/><path fill="#735290" d="M100 300h100v100H100z"/><path fill="#4d4d97" d="M200 300h100v100H200z"/><path fill="#6160b1" d="M300 300h100v100H300z"/><path fill="#716fb1" d="M400 300h100v100H400z"/><path fill="#7d6fb3" d="M500 300h100v100H500z"/><path fill="#4e43a1" d="M600 300h100v100H600z"/><path fill="#7f40a6" d="M700 300h100v100H700z"/><path fill="#8541a1" d="M0 400h100v100H0z"/><path fill="#7f4f9e" d="M100 400h100v100H100z"/><path fill="#7e68b2" d="M200 400h100v100H200z"/><path fill="#7f4c99" d="M300 400h100v100H300z"/><path fill="#6b4298" d="M400 400h100v100H400z"/><path fill="#8e549a" d="M500 400h100v100H500z"/><path fill="#78479c" d="M600 400h100v100H600z"/><path fill="#9b4cad" d="M700 400h100v100H700z"/><path fill="#824faf" d="M0 500h100v100H0z"/><path fill="#9980c4" d="M100 500h100v100H100z"/><path fill="#a09cd0" d="M200 500h100v100H200z"/><path fill="#8d89c6" d="M300 500h100v100H300z"/><path fill="#8586ca" d="M400 500h100v100H400z"/><path fill="#a397c9" d="M500 500h100v100H500z"/><path fill="#b5a8d5" d="M600 500h100v100H600z"/><path fill="#b374bb" d="M700 500h100v100H700z"/></svg>