<svg xmlns="http://www.w3.org/2000/svg" viewBox="0 0 800 600"><defs/><path fill="#d5b7bd" d="M0 0h100v100H0z"/><path fill="#c4b6bc" d="M100 0h100v100H100z"/><path fill="#acacb2" d="M200 0h100v100H200z"/><path fill="#b4b2b8" d="M300 0h100v100H300z"/><path fill="#c0bac1" d="M400 0h100v100H400z"/><path fill="#b4b3ba" d="M500 0h100v100H500z"/><path fill="#b0b1b9" d="M600 0h100v100H600z"/><path fill="#ccd4dd" d="M700 0h100v100H700z"/><path fill="#d84042" d="M0 100h100v100H0z"/><path fill="#915e5e" d="M100 100h100v100H100z"/><path fill="#3f3c3d" d="M200 100h100v100H200z"/><path fill="#0d0e0e" d="M300 100h100v100H300z"/><path fill="#c5b6b6" d="M400 100h100v100H400z"/><path fill="#515152" d="M500 100h100v100H500z"/><path fill="#141a1c" d="M600 100h100v100H600z"/><path fill="#84666a" d="M700 100h100v100H700z"/><path fill="#d54f52" d="M0 200h100v100H0z"/><path fill="#775c5d" d="M100 200h100v100H100z"/><path fill="#5a5758" d="M200 200h100v100H200z"/><path fill="#3d2123" d="M300 200h100v100H300z"/><path fill="#bc7c7c" d="M400 200h100v100H400z"/><path fill="#694b4d" d="M500 200h100v100H500z"/><path fill="#6b6163" d="M600 200h100v100H600z"/><path fill="#926266" d="M700 200h100v100H700z"/><path fill="#c26164" d="M0 300h100v100H0z"/><path fill="#6a5f60" d="M100 300h100v100H100z"/><path fill="#7f3437" d="M200 300h100v100H200z"/><path fill="#983536" d="M300 300h100v100H300z"/><path fill="#8e2526" d="M400 300h100v100H400z"/><path fill="#a52f30" d="M500 300h100v100H500z"/><path fill="#925c5f" d="M600 300h100v100H600z"/><path fill="#b6afb6" d="M700 300h100v100H700z"/><path fill="#a56f72" d="M0 400h100v100H0z"/><path fill="#a3a3a8" d="M100 400h100v100H100z"/><path fill="#9d7e84" d="M200 400h100v100H200z"/><path fill="#401719" d="M300 400h100v100H300z"/><path fill="#3e2629" d="M400 400h100v100H400z"/><path fill="#532d2f" d="M500 400h100v100H500z"/><path fill="#cdc9d0" d="M600 400h100v100H600z"/><path fill="#c5c7cd" d="M700 400h100v100H700z"/><path fill="#bfbcc4" d="M0 500h100v100H0z"/><path fill="#c0c7cf" d="M100 500h100v100H100z"/><path fill="#837f86" d="M200 500h100v100H200z"/><path fill="#726d74" d="M300 500h100v100H300z"/><path fill="#7e7076" d="M400 500h100v100H400z"/><path fill="#766a70" d="M500 500h100v100H500z"/><path fill="#a9abb2" d="M600 500h100v100H600z"/><path fill="#c0c4ca" d="M700 500h100v100H700z"/></svg>