<svg xmlns="http://www.w3.org/2000/svg" viewBox="0 0 800 500"><defs/><path fill="#e6e4e7" d="M0 0h100v100H0z"/><path fill="#eae8eb" d="M100 0h100v100H100z"/><path fill="#e1dfe2" d="M200 0h100v100H200z"/><path fill="#dad8db" d="M300 0h100v100H300z"/><path fill="#d7d5d8" d="M400 0h100v100H400z"/><path fill="#c1bfc2" d="M500 0h100v100H500z"/><path fill="#aaa8ab" d="M600 0h100v100H600z"/><path fill="#a8a6a9" d="M700 0h100v100H700z"/><path fill="#e0dee1" d="M0 100h100v100H0z"/><path fill="#e6e4e7" d="M100 100h100v100H100z"/><path fill="#d2d0d3" d="M200 100h100v100H200z"/><path fill="#cac8cb" d="M300 100h100v100H300z"/><path fill="#d9d7da" d="M400 100h100v100H400z"/><path fill="#afadb0" d="M500 100h100v100H500z"/><path fill="#9b999c" d="M600 100h100v100H600z"/><path fill="#a8a6a9" d="M700 100h100v100H700z"/><path fill="#d8d6d9" d="M0 200h100v100H0z"/><path fill="#dfdde0" d="M100 200h100v100H100z"/><path fill="#d7d5d8" d="M200 200h100v100H200z"/><path fill="#cecccf" d="M300 200h100v100H300z"/><path fill="#cbc9cc" d="M400 200h100v100H400z"/><path fill="#cecccf" d="M500 200h100v100H500z"/><path fill="#bbb9bc" d="M600 200h100v100H600z"/><path fill="#acaaad" d="M700 200h100v100H700z"/><path fill="#d2d0d3" d="M0 300h100v100H0z"/><path fill="#cfcdd0" d="M100 300h100v100H100z"/><path fill="#cdcbce" d="M200 300h100v100H200z"/><path fill="#c9c7ca" d="M300 300h100v100H300z"/><path fill="#c7c5c8" d="M400 300h100v100H400zm100 0h100v100H500z"/><path fill="#b7b5b8" d="M600 300h100v100H600z"/><path fill="#a5a3a6" d="M700 300h100v100H700z"/><path fill="#cbc9cc" d="M0 400h100v100H0z"/><path fill="#c0bec1" d="M100 400h100v100H100z"/><path fill="#cac8cb" d="M200 400h100v100H200zm100 0h100v100H300z"/><path fill="#c5c3c6" d="M400 400h100v100H400z"/><path fill="#bebcbf" d="M500 400h100v100H500z"/><path fill="#b3b1b4" d="M600 400h100v100H600z"/><path fill="#aba9ac" d="M700 400h100v100H700z"/></svg>