<svg xmlns="http://www.w3.org/2000/svg" viewBox="0 0 800 400"><defs/><path fill="#cabce0" d="M0 0h100v100H0z"/><path fill="#c69592" d="M100 0h100v100H100z"/><path fill="#b9ad9f" d="M200 0h100v100H200z"/><path fill="#bdf0ff" d="M300 0h100v100H300z"/><path fill="#a2ddec" d="M400 0h100v100H400z"/><path fill="#b3e4f7" d="M500 0h100v100H500z"/><path fill="#9e9cad" d="M600 0h100v100H600z"/><path fill="#a59eb7" d="M700 0h100v100H700z"/><path fill="#ada4b9" d="M0 100h100v100H0z"/><path fill="#a46750" d="M100 100h100v100H100z"/><path fill="#7e766a" d="M200 100h100v100H200z"/><path fill="#65bea9" d="M300 100h100v100H300z"/><path fill="#84bda5" d="M400 100h100v100H400z"/><path fill="#80c2ab" d="M500 100h100v100H500z"/><path fill="#828b92" d="M600 100h100v100H600z"/><path fill="#857489" d="M700 100h100v100H700z"/><path fill="#ad8fa2" d="M0 200h100v100H0z"/><path fill="#936244" d="M100 200h100v100H100z"/><path fill="#656467" d="M200 200h100v100H200z"/><path fill="#778564" d="M300 200h100v100H300z"/><path fill="#a7b198" d="M400 200h100v100H400z"/><path fill="#8395b6" d="M500 200h100v100H500z"/><path fill="#5b6a99" d="M600 200h100v100H600z"/><path fill="#6e513f" d="M700 200h100v100H700z"/><path fill="#bd8c82" d="M0 300h100v100H0z"/><path fill="#9f6d43" d="M100 300h100v100H100z"/><path fill="#867d74" d="M200 300h100v100H200z"/><path fill="#986d30" d="M300 300h100v100H300z"/><path fill="#88765f" d="M400 300h100v100H400z"/><path fill="#6072c6" d="M500 300h100v100H500z"/><path fill="#817079" d="M600 300h100v100H600z"/><path fill="#88784d" d="M700 300h100v100H700z"/></svg>