<svg xmlns="http://www.w3.org/2000/svg" viewBox="0 0 800 400"><defs/><path fill="#bfaea5" d="M0 0h100v100H0z"/><path fill="#968988" d="M100 0h100v100H100z"/><path fill="#aba6a6" d="M200 0h100v100H200z"/><path fill="#c1b69c" d="M300 0h100v100H300z"/><path fill="#bab49d" d="M400 0h100v100H400z"/><path fill="#898a85" d="M500 0h100v100H500z"/><path fill="#928d8d" d="M600 0h100v100H600z"/><path fill="#a49087" d="M700 0h100v100H700z"/><path fill="#c6baac" d="M0 100h100v100H0z"/><path fill="#a79396" d="M100 100h100v100H100z"/><path fill="#c2a8ad" d="M200 100h100v100H200z"/><path fill="#c9c0ae" d="M300 100h100v100H300z"/><path fill="#9e9892" d="M400 100h100v100H400z"/><path fill="#717976" d="M500 100h100v100H500z"/><path fill="#7e827e" d="M600 100h100v100H600z"/><path fill="#a19b89" d="M700 100h100v100H700z"/><path fill="#c7baae" d="M0 200h100v100H0z"/><path fill="#c2b7b7" d="M100 200h100v100H100z"/><path fill="#cfb7b1" d="M200 200h100v100H200z"/><path fill="#bdb7ac" d="M300 200h100v100H300z"/><path fill="#b4ad9a" d="M400 200h100v100H400z"/><path fill="#c0b3a4" d="M500 200h100v100H500z"/><path fill="#beb2a4" d="M600 200h100v100H600z"/><path fill="#b6ae9d" d="M700 200h100v100H700z"/><path fill="#c5c0bb" d="M0 300h100v100H0z"/><path fill="#c2d1cb" d="M100 300h100v100H100z"/><path fill="#a2a49c" d="M200 300h100v100H200z"/><path fill="#8fa0a5" d="M300 300h100v100H300z"/><path fill="#959e98" d="M400 300h100v100H400z"/><path fill="#9faeaa" d="M500 300h100v100H500z"/><path fill="#c4dcd8" d="M600 300h100v100H600z"/><path fill="#bacbc3" d="M700 300h100v100H700z"/></svg>