<svg xmlns="http://www.w3.org/2000/svg" viewBox="0 0 800 500"><defs/><path fill="#b6aca4" d="M0 0h100v100H0z"/><path fill="#bead9f" d="M100 0h100v100H100z"/><path fill="#cac4b1" d="M200 0h100v100H200z"/><path fill="#c1bdb1" d="M300 0h100v100H300z"/><path fill="#bfb7ac" d="M400 0h100v100H400z"/><path fill="#bdb6a9" d="M500 0h100v100H500z"/><path fill="#bdbaab" d="M600 0h100v100H600z"/><path fill="#b9afa6" d="M700 0h100v100H700z"/><path fill="#606868" d="M0 100h100v100H0z"/><path fill="#9c7c60" d="M100 100h100v100H100z"/><path fill="#87806e" d="M200 100h100v100H200z"/><path fill="#afb7a8" d="M300 100h100v100H300z"/><path fill="#dae8da" d="M400 100h100v100H400z"/><path fill="#8d8c7f" d="M500 100h100v100H500z"/><path fill="#4e6455" d="M600 100h100v100H600z"/><path fill="#4e6d68" d="M700 100h100v100H700z"/><path fill="#8d8e7f" d="M0 200h100v100H0z"/><path fill="#937660" d="M100 200h100v100H100z"/><path fill="#62615a" d="M200 200h100v100H200z"/><path fill="#a59988" d="M300 200h100v100H300z"/><path fill="#ae9886" d="M400 200h100v100H400z"/><path fill="#8e7869" d="M500 200h100v100H500z"/><path fill="#59554f" d="M600 200h100v100H600z"/><path fill="#645b53" d="M700 200h100v100H700z"/><path fill="#5e4249" d="M0 300h100v100H0z"/><path fill="#62332f" d="M100 300h100v100H100z"/><path fill="#6a665b" d="M200 300h100v100H200z"/><path fill="#6a5d5c" d="M300 300h100v100H300z"/><path fill="#473641" d="M400 300h100v100H400z"/><path fill="#443743" d="M500 300h100v100H500z"/><path fill="#633836" d="M600 300h100v100H600z"/><path fill="#6d3b3a" d="M700 300h100v100H700z"/><path fill="#947f7c" d="M0 400h100v100H0z"/><path fill="#98766f" d="M100 400h100v100H100z"/><path fill="#987973" d="M200 400h100v100H200z"/><path fill="#89797b" d="M300 400h100v100H300z"/><path fill="#887e83" d="M400 400h100v100H400z"/><path fill="#867c83" d="M500 400h100v100H500z"/><path fill="#897070" d="M600 400h100v100H600z"/><path fill="#836768" d="M700 400h100v100H700z"/></svg>