<svg xmlns="http://www.w3.org/2000/svg" viewBox="0 0 800 400"><defs/><path fill="#bea8a0" d="M0 0h100v100H0z"/><path fill="#dcdbd4" d="M100 0h100v100H100z"/><path fill="#c6c5b0" d="M200 0h100v100H200z"/><path fill="#a9b2ad" d="M300 0h100v100H300z"/><path fill="#91a199" d="M400 0h100v100H400z"/><path fill="#a3aa8d" d="M500 0h100v100H500z"/><path fill="#687c62" d="M600 0h100v100H600z"/><path fill="#c8ccca" d="M700 0h100v100H700z"/><path fill="#d3c9c9" d="M0 100h100v100H0z"/><path fill="#d8d1be" d="M100 100h100v100H100z"/><path fill="#decb98" d="M200 100h100v100H200z"/><path fill="#9aa4a2" d="M300 100h100v100H300z"/><path fill="#778d84" d="M400 100h100v100H400z"/><path fill="#6f7d66" d="M500 100h100v100H500z"/><path fill="#496450" d="M600 100h100v100H600z"/><path fill="#c5c7c0" d="M700 100h100v100H700z"/><path fill="#e7eaee" d="M0 200h100v100H0z"/><path fill="#bdb9a2" d="M100 200h100v100H100z"/><path fill="#e4d3a5" d="M200 200h100v100H200z"/><path fill="#d2d9dd" d="M300 200h100v100H300z"/><path fill="#acb3a6" d="M400 200h100v100H400z"/><path fill="#71705a" d="M500 200h100v100H500z"/><path fill="#8f8c76" d="M600 200h100v100H600z"/><path fill="#e2e1db" d="M700 200h100v100H700z"/><path fill="#d8d5d2" d="M0 300h100v100H0z"/><path fill="#ebe4da" d="M100 300h100v100H100z"/><path fill="#f5eee2" d="M200 300h100v100H200z"/><path fill="#e7e2dd" d="M300 300h100v100H300z"/><path fill="#c6beaf" d="M400 300h100v100H400z"/><path fill="#c3a27b" d="M500 300h100v100H500z"/><path fill="#c7b197" d="M600 300h100v100H600z"/><path fill="#d4d5d2" d="M700 300h100v100H700z"/></svg>