<svg xmlns="http://www.w3.org/2000/svg" viewBox="0 0 800 600"><defs/><path fill="#d1dce8" d="M0 0h100v100H0z"/><path fill="#d0cfc7" d="M100 0h100v100H100z"/><path fill="#dbcfb7" d="M200 0h100v100H200z"/><path fill="#cfcbc9" d="M300 0h100v100H300z"/><path fill="#cbcdcf" d="M400 0h100v100H400z"/><path fill="#d8dde1" d="M500 0h100v100H500z"/><path fill="#d3dce3" d="M600 0h100v100H600z"/><path fill="#d4dbe3" d="M700 0h100v100H700z"/><path fill="#a2b8c4" d="M0 100h100v100H0z"/><path fill="#c79529" d="M100 100h100v100H100z"/><path fill="#9d9975" d="M200 100h100v100H200z"/><path fill="#8ca2aa" d="M300 100h100v100H300z"/><path fill="#7c9494" d="M400 100h100v100H400z"/><path fill="#7e8f91" d="M500 100h100v100H500z"/><path fill="#6b7f81" d="M600 100h100v100H600z"/><path fill="#819eaf" d="M700 100h100v100H700z"/><path fill="#aab4b4" d="M0 200h100v100H0z"/><path fill="#997b4d" d="M100 200h100v100H100z"/><path fill="#a4a7a6" d="M200 200h100v100H200z"/><path fill="#aba8a0" d="M300 200h100v100H300z"/><path fill="#546b7c" d="M400 200h100v100H400z"/><path fill="#7d90a1" d="M500 200h100v100H500z"/><path fill="#807f7f" d="M600 200h100v100H600z"/><path fill="#919ba1" d="M700 200h100v100H700z"/><path fill="#a6b2af" d="M0 300h100v100H0z"/><path fill="#8f784e" d="M100 300h100v100H100z"/><path fill="#d5ba7a" d="M200 300h100v100H200z"/><path fill="#aba177" d="M300 300h100v100H300z"/><path fill="#1e1b1d" d="M400 300h100v100H400z"/><path fill="#70736c" d="M500 300h100v100H500z"/><path fill="#908e91" d="M600 300h100v100H600z"/><path fill="#8f949c" d="M700 300h100v100H700z"/><path fill="#a3a99a" d="M0 400h100v100H0z"/><path fill="#8b7b31" d="M100 400h100v100H100z"/><path fill="#999633" d="M200 400h100v100H200z"/><path fill="#878534" d="M300 400h100v100H300z"/><path fill="#66672f" d="M400 400h100v100H400z"/><path fill="#75753f" d="M500 400h100v100H500z"/><path fill="#8a8854" d="M600 400h100v100H600z"/><path fill="#98a28d" d="M700 400h100v100H700z"/><path fill="#ccd0cc" d="M0 500h100v100H0z"/><path fill="#b6baaa" d="M100 500h100v100H100z"/><path fill="#b0b3ab" d="M200 500h100v100H200z"/><path fill="#b3b7ad" d="M300 500h100v100H300z"/><path fill="#b6baac" d="M400 500h100v100H400z"/><path fill="#b3b5aa" d="M500 500h100v100H500z"/><path fill="#bbbea3" d="M600 500h100v100H600z"/><path fill="#c1c8b7" d="M700 500h100v100H700z"/></svg>