<svg xmlns="http://www.w3.org/2000/svg" viewBox="0 0 800 400"><defs/><path fill="#dddbde" d="M0 0h100v100H0z"/><path fill="#e4e4e5" d="M100 0h100v100H100z"/><path fill="#d8d7d9" d="M200 0h100v100H200z"/><path fill="#e1dfe1" d="M300 0h100v100H300z"/><path fill="#e0dfe1" d="M400 0h100v100H400z"/><path fill="#e6e5e7" d="M500 0h100v100H500z"/><path fill="#dfdde0" d="M600 0h100v100H600z"/><path fill="#e8e6e9" d="M700 0h100v100H700z"/><path fill="#d9d8da" d="M0 100h100v100H0z"/><path fill="#dad9db" d="M100 100h100v100H100z"/><path fill="#d3d1d3" d="M200 100h100v100H200z"/><path fill="#e0dfe0" d="M300 100h100v100H300z"/><path fill="#e9e8ea" d="M400 100h100v100H400z"/><path fill="#e6e6e7" d="M500 100h100v100H500z"/><path fill="#d7d6d8" d="M600 100h100v100H600z"/><path fill="#d6d4d7" d="M700 100h100v100H700z"/><path fill="#e2e1e3" d="M0 200h100v100H0z"/><path fill="#d3d2d4" d="M100 200h100v100H100z"/><path fill="#dad9db" d="M200 200h100v100H200z"/><path fill="#d9d9da" d="M300 200h100v100H300z"/><path fill="#e9e9ea" d="M400 200h100v100H400z"/><path fill="#dad9db" d="M500 200h100v100H500z"/><path fill="#dbdbdb" d="M600 200h100v100H600z"/><path fill="#e3e2e3" d="M700 200h100v100H700z"/><path fill="#e7e6e7" d="M0 300h100v100H0z"/><path fill="#ececec" d="M100 300h100v100H100z"/><path fill="#fafbfc" d="M200 300h100v100H200z"/><path fill="#fafafb" d="M300 300h100v100H300z"/><path fill="#ededee" d="M400 300h100v100H400z"/><path fill="#d0d0d1" d="M500 300h100v100H500z"/><path fill="#e3e3e4" d="M600 300h100v100H600z"/><path fill="#f5f5f5" d="M700 300h100v100H700z"/></svg>