<svg xmlns="http://www.w3.org/2000/svg" viewBox="0 0 800 500"><defs/><path fill="#eceadf" d="M0 0h100v100H0z"/><path fill="#c2a793" d="M100 0h100v100H100z"/><path fill="#c7cec4" d="M200 0h100v100H200z"/><path fill="#e7f3f5" d="M300 0h100v100H300z"/><path fill="#e2f9fb" d="M400 0h100v100H400z"/><path fill="#dbeded" d="M500 0h100v100H500z"/><path fill="#d6e0d7" d="M600 0h100v100H600z"/><path fill="#99a88b" d="M700 0h100v100H700z"/><path fill="#c9bfa5" d="M0 100h100v100H0z"/><path fill="#a7805f" d="M100 100h100v100H100z"/><path fill="#959c76" d="M200 100h100v100H200z"/><path fill="#95a78f" d="M300 100h100v100H300z"/><path fill="#d8f1e6" d="M400 100h100v100H400z"/><path fill="#b0c2a1" d="M500 100h100v100H500z"/><path fill="#9ca286" d="M600 100h100v100H600z"/><path fill="#5b7743" d="M700 100h100v100H700z"/><path fill="#bea892" d="M0 200h100v100H0z"/><path fill="#b29476" d="M100 200h100v100H100z"/><path fill="#baae92" d="M200 200h100v100H200z"/><path fill="#9b9074" d="M300 200h100v100H300z"/><path fill="#999d77" d="M400 200h100v100H400z"/><path fill="#b0b595" d="M500 200h100v100H500z"/><path fill="#bab0a2" d="M600 200h100v100H600z"/><path fill="#6f8956" d="M700 200h100v100H700z"/><path fill="#bda28a" d="M0 300h100v100H0z"/><path fill="#a47c5c" d="M100 300h100v100H100z"/><path fill="#aab4aa" d="M200 300h100v100H200z"/><path fill="#94a8a5" d="M300 300h100v100H300z"/><path fill="#a89b8b" d="M400 300h100v100H400z"/><path fill="#c2b8ad" d="M500 300h100v100H500z"/><path fill="#a5978f" d="M600 300h100v100H600z"/><path fill="#4e4f33" d="M700 300h100v100H700z"/><path fill="#b5a08f" d="M0 400h100v100H0z"/><path fill="#a89a82" d="M100 400h100v100H100z"/><path fill="#b5b6a2" d="M200 400h100v100H200z"/><path fill="#cfc0b0" d="M300 400h100v100H300z"/><path fill="#b4a89c" d="M400 400h100v100H400z"/><path fill="#b0a99d" d="M500 400h100v100H500z"/><path fill="#9d968f" d="M600 400h100v100H600z"/><path fill="#806f62" d="M700 400h100v100H700z"/></svg>