<svg xmlns="http://www.w3.org/2000/svg" viewBox="0 0 800 600"><defs/><path fill="#9eb0bf" d="M0 0h100v100H0z"/><path fill="#9fa9b7" d="M100 0h100v100H100z"/><path fill="#bcc5d2" d="M200 0h100v100H200z"/><path fill="#cdd5e3" d="M300 0h100v100H300z"/><path fill="#c6d0de" d="M400 0h100v100H400z"/><path fill="#b7c2d1" d="M500 0h100v100H500z"/><path fill="#c5cfde" d="M600 0h100v100H600z"/><path fill="#cdd8e5" d="M700 0h100v100H700z"/><path fill="#c8d3df" d="M0 100h100v100H0z"/><path fill="#939eac" d="M100 100h100v100H100z"/><path fill="#bcc4d1" d="M200 100h100v100H200z"/><path fill="#c6cdd9" d="M300 100h100v100H300z"/><path fill="#bac2cf" d="M400 100h100v100H400z"/><path fill="#a2acbb" d="M500 100h100v100H500z"/><path fill="#d7deea" d="M600 100h100v100H600z"/><path fill="#ecf1fc" d="M700 100h100v100H700z"/><path fill="#dce2ed" d="M0 200h100v100H0z"/><path fill="#a7b1be" d="M100 200h100v100H100z"/><path fill="#d5dbe7" d="M200 200h100v100H200z"/><path fill="#c6cdd9" d="M300 200h100v100H300z"/><path fill="#c5ccd9" d="M400 200h100v100H400z"/><path fill="#b2baca" d="M500 200h100v100H500z"/><path fill="#cfd6e4" d="M600 200h100v100H600z"/><path fill="#e5ecf8" d="M700 200h100v100H700z"/><path fill="#d7deea" d="M0 300h100v100H0z"/><path fill="#bec7d3" d="M100 300h100v100H100z"/><path fill="#e3e6f2" d="M200 300h100v100H200z"/><path fill="#dadfec" d="M300 300h100v100H300z"/><path fill="#b3bccb" d="M400 300h100v100H400z"/><path fill="#c2c9d8" d="M500 300h100v100H500z"/><path fill="#cfd8e4" d="M600 300h100v100H600z"/><path fill="#e2eaf6" d="M700 300h100v100H700z"/><path fill="#cad2de" d="M0 400h100v100H0z"/><path fill="#bdc7d3" d="M100 400h100v100H100z"/><path fill="#e5e8f4" d="M200 400h100v100H200z"/><path fill="#c9d1de" d="M300 400h100v100H300z"/><path fill="#aeb7c6" d="M400 400h100v100H400z"/><path fill="#bfc7d5" d="M500 400h100v100H500z"/><path fill="#d6deea" d="M600 400h100v100H600z"/><path fill="#dde5f0" d="M700 400h100v100H700z"/><path fill="#bcc6d3" d="M0 500h100v100H0z"/><path fill="#ccd4e0" d="M100 500h100v100H100z"/><path fill="#dce1ed" d="M200 500h100v100H200z"/><path fill="#c9d1dd" d="M300 500h100v100H300z"/><path fill="#c2cbd9" d="M400 500h100v100H400z"/><path fill="#bac5d3" d="M500 500h100v100H500z"/><path fill="#bfc9d8" d="M600 500h100v100H600z"/><path fill="#cdd5e2" d="M700 500h100v100H700z"/></svg>