<svg xmlns="http://www.w3.org/2000/svg" viewBox="0 0 800 600"><defs/><path fill="#f4f1ef" d="M0 0h100v100H0z"/><path fill="#e6e2e1" d="M100 0h100v100H100z"/><path fill="#e7e7e7" d="M200 0h100v100H200z"/><path fill="#f4f0ec" d="M300 0h100v100H300z"/><path fill="#f8f6ef" d="M400 0h100v100H400z"/><path fill="#eeebea" d="M500 0h100v100H500z"/><path fill="#efeae9" d="M600 0h100v100H600z"/><path fill="#eeeae9" d="M700 0h100v100H700z"/><path fill="#cab8b1" d="M0 100h100v100H0z"/><path fill="#988988" d="M100 100h100v100H100z"/><path fill="#b0a8a6" d="M200 100h100v100H200z"/><path fill="#bdb398" d="M300 100h100v100H300z"/><path fill="#aca692" d="M400 100h100v100H400z"/><path fill="#767c79" d="M500 100h100v100H500z"/><path fill="#868585" d="M600 100h100v100H600z"/><path fill="#a28e83" d="M700 100h100v100H700z"/><path fill="#d2ccbf" d="M0 200h100v100H0z"/><path fill="#a99696" d="M100 200h100v100H100z"/><path fill="#c1a5ad" d="M200 200h100v100H200z"/><path fill="#c9c0af" d="M300 200h100v100H300z"/><path fill="#a09a95" d="M400 200h100v100H400z"/><path fill="#777f7a" d="M500 200h100v100H500z"/><path fill="#848782" d="M600 200h100v100H600z"/><path fill="#a6a190" d="M700 200h100v100H700z"/><path fill="#d5cabf" d="M0 300h100v100H0z"/><path fill="#c2b4b3" d="M100 300h100v100H100z"/><path fill="#d3bab5" d="M200 300h100v100H200z"/><path fill="#c6baaf" d="M300 300h100v100H300z"/><path fill="#b6ab99" d="M400 300h100v100H400z"/><path fill="#c1b2a1" d="M500 300h100v100H500z"/><path fill="#baa998" d="M600 300h100v100H600z"/><path fill="#aea591" d="M700 300h100v100H700z"/><path fill="#cbc2bc" d="M0 400h100v100H0z"/><path fill="#bfcac5" d="M100 400h100v100H100z"/><path fill="#b0ab9f" d="M200 400h100v100H200z"/><path fill="#8e9c9f" d="M300 400h100v100H300z"/><path fill="#9aa297" d="M400 400h100v100H400z"/><path fill="#a6b1a8" d="M500 400h100v100H500z"/><path fill="#cce1de" d="M600 400h100v100H600z"/><path fill="#c6d1cb" d="M700 400h100v100H700z"/><path fill="#ebeeee" d="M0 500h100v100H0z"/><path fill="#dae3de" d="M100 500h100v100H100z"/><path fill="#c3cecf" d="M200 500h100v100H200z"/><path fill="#cad5d8" d="M300 500h100v100H300z"/><path fill="#bfc5c7" d="M400 500h100v100H400z"/><path fill="#bfcbce" d="M500 500h100v100H500z"/><path fill="#c8dad4" d="M600 500h100v100H600z"/><path fill="#bbcdc6" d="M700 500h100v100H700z"/></svg>