<svg xmlns="http://www.w3.org/2000/svg" viewBox="0 0 800 500"><defs/><path fill="#d3d3cd" d="M0 0h100v100H0z"/><path fill="#d0d0cb" d="M100 0h100v100H100z"/><path fill="#ddddde" d="M200 0h100v100H200z"/><path fill="#e8e8e8" d="M300 0h100v100H300z"/><path fill="#e6e6e6" d="M400 0h100v100H400z"/><path fill="#e9e9e9" d="M500 0h100v100H500z"/><path fill="#f5f4f4" d="M600 0h100v100H600z"/><path fill="#fdfdfd" d="M700 0h100v100H700z"/><path fill="#ede9e5" d="M0 100h100v100H0z"/><path fill="#e0e0df" d="M100 100h100v100H100z"/><path fill="#e9eaea" d="M200 100h100v100H200z"/><path fill="#f7f7f7" d="M300 100h100v100H300z"/><path fill="#f4f4f4" d="M400 100h100v100H400z"/><path fill="#f5f5f5" d="M500 100h100v100H500z"/><path fill="#f6f6f6" d="M600 100h100v100H600z"/><path fill="#fdfdfd" d="M700 100h100v100H700z"/><path fill="#e2e4e6" d="M0 200h100v100H0z"/><path fill="#ded3cf" d="M100 200h100v100H100z"/><path fill="#e9e5e1" d="M200 200h100v100H200z"/><path fill="#eeeff1" d="M300 200h100v100H300z"/><path fill="#eaeaea" d="M400 200h100v100H400zm100 0h100v100H500z"/><path fill="#ebe8e8" d="M600 200h100v100H600z"/><path fill="#f5f5f5" d="M700 200h100v100H700z"/><path fill="#dbdbdb" d="M0 300h100v100H0z"/><path fill="#d0cecb" d="M100 300h100v100H100z"/><path fill="#d7d7d7" d="M200 300h100v100H200z"/><path fill="#d8d7d3" d="M300 300h100v100H300z"/><path fill="#d9d9d9" d="M400 300h100v100H400z"/><path fill="#dfdfdf" d="M500 300h100v100H500z"/><path fill="#e3e2e3" d="M600 300h100v100H600z"/><path fill="#ece8e5" d="M700 300h100v100H700z"/><path fill="#dbdbdb" d="M0 400h100v100H0z"/><path fill="#cdcecf" d="M100 400h100v100H100z"/><path fill="#d6d5d3" d="M200 400h100v100H200z"/><path fill="#e0ded9" d="M300 400h100v100H300z"/><path fill="#ededee" d="M400 400h100v100H400z"/><path fill="#ededed" d="M500 400h100v100H500z"/><path fill="#eaebeb" d="M600 400h100v100H600z"/><path fill="#fbfbfb" d="M700 400h100v100H700z"/></svg>