<svg xmlns="http://www.w3.org/2000/svg" viewBox="0 0 800 500"><defs/><path fill="#e1e1e1" d="M0 0h100v100H0zm100 0h100v100H100z"/><path fill="#ededed" d="M200 0h100v100H200z"/><path fill="#e5e5e5" d="M300 0h100v100H300z"/><path fill="#bfbfbf" d="M400 0h100v100H400z"/><path fill="#c2c2c2" d="M500 0h100v100H500z"/><path fill="#f4f4f4" d="M600 0h100v100H600zm100 0h100v100H700z"/><path fill="#a7a7a7" d="M0 100h100v100H0z"/><path fill="#959595" d="M100 100h100v100H100z"/><path fill="#c2c2c2" d="M200 100h100v100H200z"/><path fill="#b2b2b2" d="M300 100h100v100H300z"/><path fill="#aeaeae" d="M400 100h100v100H400z"/><path fill="#969696" d="M500 100h100v100H500z"/><path fill="#b1b1b1" d="M600 100h100v100H600z"/><path fill="#c7c7c7" d="M700 100h100v100H700z"/><path fill="#b6b6b6" d="M0 200h100v100H0z"/><path fill="#929292" d="M100 200h100v100H100z"/><path fill="#949494" d="M200 200h100v100H200z"/><path fill="#b7b7b7" d="M300 200h100v100H300z"/><path fill="#8b8b8b" d="M400 200h100v100H400z"/><path fill="#a3a3a3" d="M500 200h100v100H500z"/><path fill="#9b9b9b" d="M600 200h100v100H600z"/><path fill="#a3a3a3" d="M700 200h100v100H700z"/><path fill="#a9a9a9" d="M0 300h100v100H0z"/><path fill="#a5a5a5" d="M100 300h100v100H100z"/><path fill="#bcbcbc" d="M200 300h100v100H200z"/><path fill="#acacac" d="M300 300h100v100H300z"/><path fill="#7c7c7c" d="M400 300h100v100H400z"/><path fill="#848484" d="M500 300h100v100H500z"/><path fill="#adadad" d="M600 300h100v100H600z"/><path fill="#bababa" d="M700 300h100v100H700z"/><path fill="#cdcdcd" d="M0 400h100v100H0z"/><path fill="#dcdcdc" d="M100 400h100v100H100z"/><path fill="#e1e1e1" d="M200 400h100v100H200z"/><path fill="#bebebe" d="M300 400h100v100H300z"/><path fill="#b8b8b8" d="M400 400h100v100H400z"/><path fill="#c8c8c8" d="M500 400h100v100H500z"/><path fill="#eaeaea" d="M600 400h100v100H600z"/><path fill="#e5e5e5" d="M700 400h100v100H700z"/></svg>