<svg xmlns="http://www.w3.org/2000/svg" viewBox="0 0 800 600"><defs/><path fill="#bbb9b2" d="M0 0h100v100H0z"/><path fill="#bcb9b0" d="M100 0h100v100H100z"/><path fill="#c1c4c1" d="M200 0h100v100H200z"/><path fill="#c3c6c4" d="M300 0h100v100H300z"/><path fill="#c5c9c7" d="M400 0h100v100H400z"/><path fill="#c9cdcb" d="M500 0h100v100H500z"/><path fill="#cccbc9" d="M600 0h100v100H600z"/><path fill="#c9c9c5" d="M700 0h100v100H700z"/><path fill="#afa288" d="M0 100h100v100H0z"/><path fill="#ab9c78" d="M100 100h100v100H100z"/><path fill="#b9a099" d="M200 100h100v100H200z"/><path fill="#bba29d" d="M300 100h100v100H300z"/><path fill="#c3aaaa" d="M400 100h100v100H400z"/><path fill="#c09a97" d="M500 100h100v100H500z"/><path fill="#c4b1b0" d="M600 100h100v100H600z"/><path fill="#c4bdc1" d="M700 100h100v100H700z"/><path fill="#a89875" d="M0 200h100v100H0z"/><path fill="#aca084" d="M100 200h100v100H100z"/><path fill="#b49895" d="M200 200h100v100H200z"/><path fill="#a67d75" d="M300 200h100v100H300z"/><path fill="#b58688" d="M400 200h100v100H400z"/><path fill="#d3b5b6" d="M500 200h100v100H500z"/><path fill="#c1b4b3" d="M600 200h100v100H600z"/><path fill="#afa7af" d="M700 200h100v100H700z"/><path fill="#98855a" d="M0 300h100v100H0z"/><path fill="#a29885" d="M100 300h100v100H100z"/><path fill="#a6a4a9" d="M200 300h100v100H200z"/><path fill="#9e9ca0" d="M300 300h100v100H300z"/><path fill="#b4b2c0" d="M400 300h100v100H400z"/><path fill="#c1bbb8" d="M500 300h100v100H500z"/><path fill="#beaea1" d="M600 300h100v100H600z"/><path fill="#ac9e9c" d="M700 300h100v100H700z"/><path fill="#847544" d="M0 400h100v100H0z"/><path fill="#94938e" d="M100 400h100v100H100z"/><path fill="#8a8891" d="M200 400h100v100H200z"/><path fill="#777571" d="M300 400h100v100H300z"/><path fill="#9c9a9e" d="M400 400h100v100H400z"/><path fill="#a9a5a7" d="M500 400h100v100H500z"/><path fill="#c1bec5" d="M600 400h100v100H600z"/><path fill="#c6beba" d="M700 400h100v100H700z"/><path fill="#85847b" d="M0 500h100v100H0z"/><path fill="#929291" d="M100 500h100v100H100z"/><path fill="#959594" d="M200 500h100v100H200z"/><path fill="#989b98" d="M300 500h100v100H300z"/><path fill="#b8b8b8" d="M400 500h100v100H400z"/><path fill="#d4d7da" d="M500 500h100v100H500z"/><path fill="#d7dade" d="M600 500h100v100H600z"/><path fill="#bec0c0" d="M700 500h100v100H700z"/></svg>