<svg xmlns="http://www.w3.org/2000/svg" viewBox="0 0 800 600"><defs/><path fill="#dd9b94" d="M0 0h100v100H0z"/><path fill="#c4948f" d="M100 0h100v100H100z"/><path fill="#e3ddd4" d="M200 0h100v100H200z"/><path fill="#df9292" d="M300 0h100v100H300z"/><path fill="#c5c0ba" d="M400 0h100v100H400z"/><path fill="#a4bfb6" d="M500 0h100v100H500z"/><path fill="#c2c7c3" d="M600 0h100v100H600z"/><path fill="#d6ccc7" d="M700 0h100v100H700z"/><path fill="#ddcec1" d="M0 100h100v100H0z"/><path fill="#baa199" d="M100 100h100v100H100z"/><path fill="#e08587" d="M200 100h100v100H200z"/><path fill="#bfbdb5" d="M300 100h100v100H300z"/><path fill="#57927b" d="M400 100h100v100H400z"/><path fill="#3f836a" d="M500 100h100v100H500z"/><path fill="#3f7b66" d="M600 100h100v100H600z"/><path fill="#8f9d91" d="M700 100h100v100H700z"/><path fill="#c78c85" d="M0 200h100v100H0z"/><path fill="#c7a7a1" d="M100 200h100v100H100z"/><path fill="#efe0db" d="M200 200h100v100H200z"/><path fill="#6da38f" d="M300 200h100v100H300z"/><path fill="#356e5a" d="M400 200h100v100H400z"/><path fill="#407862" d="M500 200h100v100H500z"/><path fill="#387860" d="M600 200h100v100H600z"/><path fill="#4f7b6a" d="M700 200h100v100H700z"/><path fill="#cb8a83" d="M0 300h100v100H0z"/><path fill="#b26164" d="M100 300h100v100H100z"/><path fill="#7e8d82" d="M200 300h100v100H200z"/><path fill="#3d7262" d="M300 300h100v100H300z"/><path fill="#315c4f" d="M400 300h100v100H400z"/><path fill="#2d5d4b" d="M500 300h100v100H500z"/><path fill="#37735c" d="M600 300h100v100H600z"/><path fill="#589481" d="M700 300h100v100H700z"/><path fill="#a7958d" d="M0 400h100v100H0z"/><path fill="#6f8077" d="M100 400h100v100H100z"/><path fill="#71827b" d="M200 400h100v100H200z"/><path fill="#54625c" d="M300 400h100v100H300z"/><path fill="#1d5543" d="M400 400h100v100H400z"/><path fill="#2f5a4a" d="M500 400h100v100H500z"/><path fill="#326752" d="M600 400h100v100H600z"/><path fill="#6e988b" d="M700 400h100v100H700z"/><path fill="#ab968c" d="M0 500h100v100H0z"/><path fill="#b99d9b" d="M100 500h100v100H100z"/><path fill="#c0a6a8" d="M200 500h100v100H200z"/><path fill="#9c8d8d" d="M300 500h100v100H300z"/><path fill="#6c8b7e" d="M400 500h100v100H400z"/><path fill="#50806c" d="M500 500h100v100H500z"/><path fill="#56796a" d="M600 500h100v100H600z"/><path fill="#cdd4d3" d="M700 500h100v100H700z"/></svg>