<svg xmlns="http://www.w3.org/2000/svg" viewBox="0 0 800 500"><defs/><path fill="#e7dab2" d="M0 0h100v100H0z"/><path fill="#ccad89" d="M100 0h100v100H100z"/><path fill="#e4d4ba" d="M200 0h100v100H200z"/><path fill="#fafffc" d="M300 0h100v100H300z"/><path fill="#fafbf2" d="M400 0h100v100H400z"/><path fill="#f1f3ed" d="M500 0h100v100H500z"/><path fill="#e6dece" d="M600 0h100v100H600z"/><path fill="#e2d2b4" d="M700 0h100v100H700z"/><path fill="#dcc693" d="M0 100h100v100H0z"/><path fill="#b28559" d="M100 100h100v100H100z"/><path fill="#b1a58c" d="M200 100h100v100H200z"/><path fill="#c2aba9" d="M300 100h100v100H300z"/><path fill="#bdaba8" d="M400 100h100v100H400z"/><path fill="#d9dacf" d="M500 100h100v100H500z"/><path fill="#cdc4b5" d="M600 100h100v100H600z"/><path fill="#dfcca2" d="M700 100h100v100H700z"/><path fill="#deba79" d="M0 200h100v100H0z"/><path fill="#be9170" d="M100 200h100v100H100z"/><path fill="#bcb9b2" d="M200 200h100v100H200z"/><path fill="#9b7773" d="M300 200h100v100H300z"/><path fill="#8c6f69" d="M400 200h100v100H400z"/><path fill="#d5d7ce" d="M500 200h100v100H500z"/><path fill="#cfcac0" d="M600 200h100v100H600z"/><path fill="#e8d3a4" d="M700 200h100v100H700z"/><path fill="#d6b280" d="M0 300h100v100H0z"/><path fill="#bd8d76" d="M100 300h100v100H100z"/><path fill="#c6a291" d="M200 300h100v100H200z"/><path fill="#b58e82" d="M300 300h100v100H300z"/><path fill="#c98d83" d="M400 300h100v100H400z"/><path fill="#bf938f" d="M500 300h100v100H500z"/><path fill="#c29c93" d="M600 300h100v100H600z"/><path fill="#d5c9a8" d="M700 300h100v100H700z"/><path fill="#decdba" d="M0 400h100v100H0z"/><path fill="#d1bab2" d="M100 400h100v100H100z"/><path fill="#c7abaa" d="M200 400h100v100H200z"/><path fill="#c6c0bb" d="M300 400h100v100H300z"/><path fill="#d6c5bd" d="M400 400h100v100H400z"/><path fill="#d1b3b3" d="M500 400h100v100H500z"/><path fill="#d6aea8" d="M600 400h100v100H600z"/><path fill="#e3dac9" d="M700 400h100v100H700z"/></svg>