<svg xmlns="http://www.w3.org/2000/svg" viewBox="0 0 800 600"><defs/><path fill="#79766d" d="M0 0h100v100H0z"/><path fill="#b7aa9d" d="M100 0h100v100H100z"/><path fill="#b9aba1" d="M200 0h100v100H200z"/><path fill="#c3b6ab" d="M300 0h100v100H300z"/><path fill="#cabab0" d="M400 0h100v100H400z"/><path fill="#d1c0b6" d="M500 0h100v100H500z"/><path fill="#d6c5bb" d="M600 0h100v100H600z"/><path fill="#decdc2" d="M700 0h100v100H700z"/><path fill="#7e7a71" d="M0 100h100v100H0z"/><path fill="#b6a79b" d="M100 100h100v100H100z"/><path fill="#b2a59b" d="M200 100h100v100H200z"/><path fill="#b8ab9f" d="M300 100h100v100H300z"/><path fill="#c4b4a7" d="M400 100h100v100H400z"/><path fill="#cab9ac" d="M500 100h100v100H500z"/><path fill="#d1c1b4" d="M600 100h100v100H600z"/><path fill="#d8c6ba" d="M700 100h100v100H700z"/><path fill="#858076" d="M0 200h100v100H0z"/><path fill="#b6a79c" d="M100 200h100v100H100z"/><path fill="#b1a499" d="M200 200h100v100H200z"/><path fill="#baab9e" d="M300 200h100v100H300z"/><path fill="#b5a497" d="M400 200h100v100H400z"/><path fill="#b8a89b" d="M500 200h100v100H500z"/><path fill="#c8b8aa" d="M600 200h100v100H600z"/><path fill="#d2c0b3" d="M700 200h100v100H700z"/><path fill="#847d73" d="M0 300h100v100H0z"/><path fill="#b2a396" d="M100 300h100v100H100z"/><path fill="#b4a79a" d="M200 300h100v100H200z"/><path fill="#b9a99d" d="M300 300h100v100H300z"/><path fill="#b2a295" d="M400 300h100v100H400z"/><path fill="#b8a89a" d="M500 300h100v100H500z"/><path fill="#c3b3a4" d="M600 300h100v100H600z"/><path fill="#bfad9f" d="M700 300h100v100H700z"/><path fill="#80796e" d="M0 400h100v100H0z"/><path fill="#a6978a" d="M100 400h100v100H100z"/><path fill="#b3a698" d="M200 400h100v100H200z"/><path fill="#b5a699" d="M300 400h100v100H300z"/><path fill="#beaea1" d="M400 400h100v100H400z"/><path fill="#c9b9aa" d="M500 400h100v100H500z"/><path fill="#baaa9a" d="M600 400h100v100H600z"/><path fill="#bba99b" d="M700 400h100v100H700z"/><path fill="#797163" d="M0 500h100v100H0z"/><path fill="#9b8e7e" d="M100 500h100v100H100z"/><path fill="#a09484" d="M200 500h100v100H200z"/><path fill="#ab9d8f" d="M300 500h100v100H300z"/><path fill="#b7a798" d="M400 500h100v100H400z"/><path fill="#bfaf9f" d="M500 500h100v100H500z"/><path fill="#b4a394" d="M600 500h100v100H600z"/><path fill="#b6a595" d="M700 500h100v100H700z"/></svg>