<svg xmlns="http://www.w3.org/2000/svg" viewBox="0 0 800 1100"><defs/><path fill="#7b7f72" d="M0 0h100v100H0z"/><path fill="#a5a895" d="M100 0h100v100H100z"/><path fill="#b2b5a1" d="M200 0h100v100H200z"/><path fill="#b0b39f" d="M300 0h100v100H300z"/><path fill="#b4b7a3" d="M400 0h100v100H400z"/><path fill="#b1b4a0" d="M500 0h100v100H500z"/><path fill="#a4aa9c" d="M600 0h100v100H600z"/><path fill="#4e514b" d="M700 0h100v100H700z"/><path fill="#b2b49f" d="M0 100h100v100H0z"/><path fill="#a9a686" d="M100 100h100v100H100z"/><path fill="#aca783" d="M200 100h100v100H200z"/><path fill="#a69f7e" d="M300 100h100v100H300z"/><path fill="#a49b82" d="M400 100h100v100H400z"/><path fill="#b7b6a1" d="M500 100h100v100H500z"/><path fill="#c3bb9f" d="M600 100h100v100H600z"/><path fill="#acac98" d="M700 100h100v100H700z"/><path fill="#a9a48b" d="M0 200h100v100H0z"/><path fill="#8e754f" d="M100 200h100v100H100z"/><path fill="#928461" d="M200 200h100v100H200z"/><path fill="#938769" d="M300 200h100v100H300z"/><path fill="#8c724d" d="M400 200h100v100H400z"/><path fill="#85633b" d="M500 200h100v100H500z"/><path fill="#936133" d="M600 200h100v100H600z"/><path fill="#c3b08c" d="M700 200h100v100H700z"/><path fill="#8c724f" d="M0 300h100v100H0z"/><path fill="#897b5f" d="M100 300h100v100H100z"/><path fill="#aaaa94" d="M200 300h100v100H200z"/><path fill="#c2bfa5" d="M300 300h100v100H300z"/><path fill="#c6c2a4" d="M400 300h100v100H400z"/><path fill="#ad9165" d="M500 300h100v100H500z"/><path fill="#8f5d2d" d="M600 300h100v100H600z"/><path fill="#b49a79" d="M700 300h100v100H700z"/><path fill="#6f4b29" d="M0 400h100v100H0z"/><path fill="#a69776" d="M100 400h100v100H100z"/><path fill="#f2eecf" d="M200 400h100v100H200z"/><path fill="#f7f2d6" d="M300 400h100v100H300z"/><path fill="#efedd3" d="M400 400h100v100H400z"/><path fill="#cbbe9e" d="M500 400h100v100H500z"/><path fill="#9c6e3e" d="M600 400h100v100H600z"/><path fill="#beb093" d="M700 400h100v100H700z"/><path fill="#6f4322" d="M0 500h100v100H0z"/><path fill="#b09266" d="M100 500h100v100H100z"/><path fill="#ebdbb6" d="M200 500h100v100H200z"/><path fill="#f7f3d9" d="M300 500h100v100H300z"/><path fill="#eee7ce" d="M400 500h100v100H400z"/><path fill="#cdb897" d="M500 500h100v100H500z"/><path fill="#956944" d="M600 500h100v100H600z"/><path fill="#b49e73" d="M700 500h100v100H700z"/><path fill="#6b3a1c" d="M0 600h100v100H0z"/><path fill="#976c3f" d="M100 600h100v100H100z"/><path fill="#be9263" d="M200 600h100v100H200z"/><path fill="#d2bc9b" d="M300 600h100v100H300z"/><path fill="#ddcfb2" d="M400 600h100v100H400z"/><path fill="#c09a71" d="M500 600h100v100H500z"/><path fill="#9e7045" d="M600 600h100v100H600z"/><path fill="#b9a074" d="M700 600h100v100H700z"/><path fill="#896341" d="M0 700h100v100H0z"/><path fill="#8d5b2f" d="M100 700h100v100H100z"/><path fill="#9c6739" d="M200 700h100v100H200z"/><path fill="#a56f43" d="M300 700h100v100H300z"/><path fill="#a7744b" d="M400 700h100v100H400z"/><path fill="#946339" d="M500 700h100v100H500z"/><path fill="#a47c53" d="M600 700h100v100H600z"/><path fill="#ccc19a" d="M700 700h100v100H700z"/><path fill="#c4bb96" d="M0 800h100v100H0z"/><path fill="#ac8761" d="M100 800h100v100H100z"/><path fill="#a77d52" d="M200 800h100v100H200z"/><path fill="#986336" d="M300 800h100v100H300z"/><path fill="#a37346" d="M400 800h100v100H400z"/><path fill="#a67e53" d="M500 800h100v100H500z"/><path fill="#d1bd9b" d="M600 800h100v100H600z"/><path fill="#e1deba" d="M700 800h100v100H700z"/><path fill="#d2d3ba" d="M0 900h100v100H0z"/><path fill="#dedfc8" d="M100 900h100v100H100z"/><path fill="#ddd5ba" d="M200 900h100v100H200z"/><path fill="#aa7039" d="M300 900h100v100H300z"/><path fill="#b79263" d="M400 900h100v100H400z"/><path fill="#e0dcbc" d="M500 900h100v100H500z"/><path fill="#e6e5cd" d="M600 900h100v100H600z"/><path fill="#e5e4cc" d="M700 900h100v100H700z"/><path fill="#c7c5ac" d="M0 1000h100v100H0z"/><path fill="#cfcdb3" d="M100 1000h100v100H100z"/><path fill="#d8d7ba" d="M200 1000h100v100H200z"/><path fill="#c5ab7f" d="M300 1000h100v100H300z"/><path fill="#cdbb99" d="M400 1000h100v100H400z"/><path fill="#e1e2c9" d="M500 1000h100v100H500z"/><path fill="#ddddc4" d="M600 1000h100v100H600z"/><path fill="#d1d0b9" d="M700 1000h100v100H700z"/></svg>