<svg xmlns="http://www.w3.org/2000/svg" viewBox="0 0 800 1000"><defs/><path fill="#fff" d="M0 0h100v100H0zm100 0h100v100H100z"/><path fill="#fdfcfc" d="M200 0h100v100H200zm100 0h100v100H300z"/><path fill="#fffefe" d="M400 0h100v100H400z"/><path fill="#fefefe" d="M500 0h100v100H500z"/><path fill="#fff" d="M600 0h100v100H600zm100 0h100v100H700z"/><path fill="#f6f7f7" d="M0 100h100v100H0z"/><path fill="#f9f7f6" d="M100 100h100v100H100z"/><path fill="#e1f0f1" d="M200 100h100v100H200z"/><path fill="#e6f1f2" d="M300 100h100v100H300z"/><path fill="#dceaea" d="M400 100h100v100H400z"/><path fill="#eff6f6" d="M500 100h100v100H500z"/><path fill="#fff" d="M600 100h100v100H600z"/><path fill="#feffff" d="M700 100h100v100H700z"/><path fill="#f6f9f8" d="M0 200h100v100H0z"/><path fill="#d5e8e8" d="M100 200h100v100H100z"/><path fill="#f6f9fa" d="M200 200h100v100H200z"/><path fill="#f4f7f7" d="M300 200h100v100H300z"/><path fill="#f3f7f7" d="M400 200h100v100H400z"/><path fill="#d9ebec" d="M500 200h100v100H500z"/><path fill="#e6f0f0" d="M600 200h100v100H600z"/><path fill="#fff" d="M700 200h100v100H700z"/><path fill="#fefefe" d="M0 300h100v100H0z"/><path fill="#f4f8f8" d="M100 300h100v100H100z"/><path fill="#fafafa" d="M200 300h100v100H200z"/><path fill="#f9faf9" d="M300 300h100v100H300z"/><path fill="#fefdfc" d="M400 300h100v100H400z"/><path fill="#f3f8f7" d="M500 300h100v100H500z"/><path fill="#f7fafa" d="M600 300h100v100H600z"/><path fill="#fff" d="M700 300h100v100H700zM0 400h100v100H0z"/><path fill="#fbfbfb" d="M100 400h100v100H100z"/><path fill="#fcfdfd" d="M200 400h100v100H200z"/><path fill="#fefefe" d="M300 400h100v100H300z"/><path fill="#fbfcfc" d="M400 400h100v100H400z"/><path fill="#fcfcfc" d="M500 400h100v100H500z"/><path fill="#fbfbfa" d="M600 400h100v100H600z"/><path fill="#fcfdfd" d="M700 400h100v100H700z"/><path fill="#fff" d="M0 500h100v100H0z"/><path fill="#fbfbfb" d="M100 500h100v100H100z"/><path fill="#fff" d="M200 500h100v100H200zm100 0h100v100H300z"/><path fill="#fdfdfd" d="M400 500h100v100H400z"/><path fill="#fafbfb" d="M500 500h100v100H500z"/><path fill="#eef0f0" d="M600 500h100v100H600z"/><path fill="#f9fafa" d="M700 500h100v100H700z"/><path fill="#fff" d="M0 600h100v100H0z"/><path fill="#f9f9f9" d="M100 600h100v100H100z"/><path fill="#fff" d="M200 600h100v100H200zm100 0h100v100H300z"/><path fill="#fefefe" d="M400 600h100v100H400z"/><path fill="#fafbfb" d="M500 600h100v100H500z"/><path fill="#d1e7e9" d="M600 600h100v100H600z"/><path fill="#f2f6f6" d="M700 600h100v100H700z"/><path fill="#fbfbfb" d="M0 700h100v100H0z"/><path fill="#fcfcfc" d="M100 700h100v100H100z"/><path fill="#fff" d="M200 700h100v100H200zm100 0h100v100H300z"/><path fill="#fefefe" d="M400 700h100v100H400z"/><path fill="#fcfcfc" d="M500 700h100v100H500z"/><path fill="#f7f9f9" d="M600 700h100v100H600z"/><path fill="#fdfefd" d="M700 700h100v100H700z"/><path fill="#fefefe" d="M0 800h100v100H0z"/><path fill="#fff" d="M100 800h100v100H100z"/><path fill="#fafafa" d="M200 800h100v100H200z"/><path fill="#fafbfb" d="M300 800h100v100H300z"/><path fill="#fcfcfc" d="M400 800h100v100H400z"/><path fill="#fefefe" d="M500 800h100v100H500z"/><path fill="#fff" d="M600 800h100v100H600zm100 0h100v100H700zM0 900h100v100H0z"/><path fill="#f9f9f9" d="M100 900h100v100H100zm100 0h100v100H200z"/><path fill="#fefefe" d="M300 900h100v100H300z"/><path fill="#fff" d="M400 900h100v100H400zm100 0h100v100H500z"/><path fill="#f8f8f8" d="M600 900h100v100H600z"/><path fill="#f5f6f6" d="M700 900h100v100H700z"/></svg>