<svg xmlns="http://www.w3.org/2000/svg" viewBox="0 0 800 400"><defs/><path fill="#e48e4a" d="M0 0h100v100H0z"/><path fill="#bbbead" d="M100 0h100v100H100z"/><path fill="#cedbdf" d="M200 0h100v100H200z"/><path fill="#c3c2be" d="M300 0h100v100H300z"/><path fill="#b3b9ba" d="M400 0h100v100H400z"/><path fill="#9abbdb" d="M500 0h100v100H500z"/><path fill="#a6bcd2" d="M600 0h100v100H600z"/><path fill="#4cbccc" d="M700 0h100v100H700z"/><path fill="#dca05d" d="M0 100h100v100H0z"/><path fill="#b5c0b7" d="M100 100h100v100H100z"/><path fill="#b5b4b0" d="M200 100h100v100H200z"/><path fill="#aca49f" d="M300 100h100v100H300z"/><path fill="#b6c2c9" d="M400 100h100v100H400z"/><path fill="#62bcdb" d="M500 100h100v100H500z"/><path fill="#7bbdd3" d="M600 100h100v100H600z"/><path fill="#5d8f91" d="M700 100h100v100H700z"/><path fill="#d3c18b" d="M0 200h100v100H0z"/><path fill="#8ea093" d="M100 200h100v100H100z"/><path fill="#81888b" d="M200 200h100v100H200z"/><path fill="#52565e" d="M300 200h100v100H300z"/><path fill="#788292" d="M400 200h100v100H400z"/><path fill="#657783" d="M500 200h100v100H500z"/><path fill="#707074" d="M600 200h100v100H600z"/><path fill="#496594" d="M700 200h100v100H700z"/><path fill="#bcc6a9" d="M0 300h100v100H0z"/><path fill="#778b92" d="M100 300h100v100H100z"/><path fill="#5f676e" d="M200 300h100v100H200z"/><path fill="#4e4a42" d="M300 300h100v100H300z"/><path fill="#615c51" d="M400 300h100v100H400z"/><path fill="#676562" d="M500 300h100v100H500z"/><path fill="#645a59" d="M600 300h100v100H600z"/><path fill="#505e88" d="M700 300h100v100H700z"/></svg>