<svg xmlns="http://www.w3.org/2000/svg" viewBox="0 0 800 500"><defs/><path fill="#b5babd" d="M0 0h100v100H0z"/><path fill="#a08b81" d="M100 0h100v100H100z"/><path fill="#956760" d="M200 0h100v100H200z"/><path fill="#aba9ad" d="M300 0h100v100H300z"/><path fill="#a69da2" d="M400 0h100v100H400z"/><path fill="#a59da3" d="M500 0h100v100H500z"/><path fill="#a7989b" d="M600 0h100v100H600z"/><path fill="#9b9693" d="M700 0h100v100H700z"/><path fill="#b7b8bd" d="M0 100h100v100H0z"/><path fill="#9d7975" d="M100 100h100v100H100z"/><path fill="#a67d74" d="M200 100h100v100H200z"/><path fill="#aba7a6" d="M300 100h100v100H300z"/><path fill="#b0a9ae" d="M400 100h100v100H400z"/><path fill="#b4bac6" d="M500 100h100v100H500z"/><path fill="#aa9da4" d="M600 100h100v100H600z"/><path fill="#9ea394" d="M700 100h100v100H700z"/><path fill="#aaa6a3" d="M0 200h100v100H0z"/><path fill="#99726c" d="M100 200h100v100H100z"/><path fill="#97797f" d="M200 200h100v100H200z"/><path fill="#95847a" d="M300 200h100v100H300z"/><path fill="#a59b9a" d="M400 200h100v100H400z"/><path fill="#a9a3ad" d="M500 200h100v100H500z"/><path fill="#889d83" d="M600 200h100v100H600z"/><path fill="#6fa167" d="M700 200h100v100H700z"/><path fill="#a39190" d="M0 300h100v100H0z"/><path fill="#946b69" d="M100 300h100v100H100z"/><path fill="#b19296" d="M200 300h100v100H200z"/><path fill="#b89d9e" d="M300 300h100v100H300z"/><path fill="#b9a2a5" d="M400 300h100v100H400z"/><path fill="#b39198" d="M500 300h100v100H500z"/><path fill="#997977" d="M600 300h100v100H600z"/><path fill="#647f5c" d="M700 300h100v100H700z"/><path fill="#a7a3a7" d="M0 400h100v100H0z"/><path fill="#a49b9c" d="M100 400h100v100H100z"/><path fill="#bab2b7" d="M200 400h100v100H200z"/><path fill="#c0b2b6" d="M300 400h100v100H300z"/><path fill="#bda9ac" d="M400 400h100v100H400z"/><path fill="#ab9ca2" d="M500 400h100v100H500z"/><path fill="#978a97" d="M600 400h100v100H600z"/><path fill="#807985" d="M700 400h100v100H700z"/></svg>