<svg xmlns="http://www.w3.org/2000/svg" viewBox="0 0 800 500"><defs/><path fill="#e7e7e7" d="M0 0h100v100H0z"/><path fill="#d5d4d3" d="M100 0h100v100H100z"/><path fill="#cbcbc9" d="M200 0h100v100H200z"/><path fill="#c4c4c2" d="M300 0h100v100H300z"/><path fill="#f3f3f2" d="M400 0h100v100H400z"/><path fill="#e8e8e7" d="M500 0h100v100H500z"/><path fill="#e2e3e3" d="M600 0h100v100H600z"/><path fill="#fafafa" d="M700 0h100v100H700z"/><path fill="#dbdbdb" d="M0 100h100v100H0z"/><path fill="#d0d2d1" d="M100 100h100v100H100z"/><path fill="#d1d2d1" d="M200 100h100v100H200z"/><path fill="#cdcdcc" d="M300 100h100v100H300z"/><path fill="#f3f3f3" d="M400 100h100v100H400z"/><path fill="#e0e0df" d="M500 100h100v100H500z"/><path fill="#dfdfdf" d="M600 100h100v100H600z"/><path fill="#e2e1e1" d="M700 100h100v100H700z"/><path fill="#dedede" d="M0 200h100v100H0z"/><path fill="#bdb0b1" d="M100 200h100v100H100z"/><path fill="#bcb9b7" d="M200 200h100v100H200z"/><path fill="#c1c2c1" d="M300 200h100v100H300z"/><path fill="#e5e5e5" d="M400 200h100v100H400z"/><path fill="#c6c6c5" d="M500 200h100v100H500z"/><path fill="#cfcecd" d="M600 200h100v100H600z"/><path fill="#d5d5d4" d="M700 200h100v100H700z"/><path fill="#e1e2e2" d="M0 300h100v100H0z"/><path fill="#b19e9e" d="M100 300h100v100H100z"/><path fill="#bdb8b7" d="M200 300h100v100H200z"/><path fill="#bcbdbc" d="M300 300h100v100H300z"/><path fill="#aca9a8" d="M400 300h100v100H400z"/><path fill="#949390" d="M500 300h100v100H500z"/><path fill="#a4a5a3" d="M600 300h100v100H600z"/><path fill="#b6b6b5" d="M700 300h100v100H700z"/><path fill="#eee" d="M0 400h100v100H0z"/><path fill="#ccc" d="M100 400h100v100H100z"/><path fill="#bfbfbf" d="M200 400h100v100H200z"/><path fill="#b6b6b6" d="M300 400h100v100H300z"/><path fill="#d0cfcf" d="M400 400h100v100H400z"/><path fill="#c4c3c2" d="M500 400h100v100H500z"/><path fill="#c9c9c9" d="M600 400h100v100H600z"/><path fill="#c8c8c7" d="M700 400h100v100H700z"/></svg>