<svg xmlns="http://www.w3.org/2000/svg" viewBox="0 0 800 500"><defs/><path fill="#eae6e5" d="M0 0h100v100H0z"/><path fill="#dddcde" d="M100 0h100v100H100z"/><path fill="#dceaf0" d="M200 0h100v100H200z"/><path fill="#dbedf4" d="M300 0h100v100H300z"/><path fill="#d6eaf1" d="M400 0h100v100H400z"/><path fill="#dbeaf3" d="M500 0h100v100H500z"/><path fill="#e7eff4" d="M600 0h100v100H600z"/><path fill="#ece7e8" d="M700 0h100v100H700z"/><path fill="#e3dfe0" d="M0 100h100v100H0z"/><path fill="#dedbde" d="M100 100h100v100H100z"/><path fill="#b5e3f3" d="M200 100h100v100H200z"/><path fill="#9fdaee" d="M300 100h100v100H300z"/><path fill="#9adbef" d="M400 100h100v100H400z"/><path fill="#a6d9f1" d="M500 100h100v100H500z"/><path fill="#d8e4ed" d="M600 100h100v100H600z"/><path fill="#cedae4" d="M700 100h100v100H700z"/><path fill="#e0dbda" d="M0 200h100v100H0z"/><path fill="#cad1da" d="M100 200h100v100H100z"/><path fill="#a9bdd7" d="M200 200h100v100H200z"/><path fill="#b5cadf" d="M300 200h100v100H300z"/><path fill="#adc0d5" d="M400 200h100v100H400z"/><path fill="#aabdd8" d="M500 200h100v100H500z"/><path fill="#caced7" d="M600 200h100v100H600z"/><path fill="#abcbdf" d="M700 200h100v100H700z"/><path fill="#ded8d7" d="M0 300h100v100H0z"/><path fill="#d1d0d2" d="M100 300h100v100H100z"/><path fill="#cecad1" d="M200 300h100v100H200z"/><path fill="#b7cadc" d="M300 300h100v100H300z"/><path fill="#bbd0dd" d="M400 300h100v100H400z"/><path fill="#cccad3" d="M500 300h100v100H500z"/><path fill="#e6e4e2" d="M600 300h100v100H600z"/><path fill="#b9c7df" d="M700 300h100v100H700z"/><path fill="#dcd6d5" d="M0 400h100v100H0z"/><path fill="#e6dfdd" d="M100 400h100v100H100z"/><path fill="#f2edeb" d="M200 400h100v100H200z"/><path fill="#b4cfe9" d="M300 400h100v100H300z"/><path fill="#bcdae8" d="M400 400h100v100H400z"/><path fill="#e5e0df" d="M500 400h100v100H500z"/><path fill="#ece7e5" d="M600 400h100v100H600z"/><path fill="#e0dadb" d="M700 400h100v100H700z"/></svg>