<svg xmlns="http://www.w3.org/2000/svg" viewBox="0 0 800 500"><defs/><path fill="#ebeadd" d="M0 0h100v100H0z"/><path fill="#c0a691" d="M100 0h100v100H100z"/><path fill="#c6cec3" d="M200 0h100v100H200z"/><path fill="#e7f2f3" d="M300 0h100v100H300z"/><path fill="#e3f8fc" d="M400 0h100v100H400z"/><path fill="#daeded" d="M500 0h100v100H500z"/><path fill="#d5dfd5" d="M600 0h100v100H600z"/><path fill="#97a688" d="M700 0h100v100H700z"/><path fill="#c8bda4" d="M0 100h100v100H0z"/><path fill="#a78061" d="M100 100h100v100H100z"/><path fill="#959c76" d="M200 100h100v100H200z"/><path fill="#95a78f" d="M300 100h100v100H300z"/><path fill="#d8f1e6" d="M400 100h100v100H400z"/><path fill="#afc1a0" d="M500 100h100v100H500z"/><path fill="#9ca286" d="M600 100h100v100H600z"/><path fill="#5b7642" d="M700 100h100v100H700z"/><path fill="#bca691" d="M0 200h100v100H0z"/><path fill="#b39476" d="M100 200h100v100H100z"/><path fill="#b9ae92" d="M200 200h100v100H200z"/><path fill="#9b9075" d="M300 200h100v100H300z"/><path fill="#989d76" d="M400 200h100v100H400z"/><path fill="#b1b595" d="M500 200h100v100H500z"/><path fill="#b9b0a2" d="M600 200h100v100H600z"/><path fill="#6e8856" d="M700 200h100v100H700z"/><path fill="#bca088" d="M0 300h100v100H0z"/><path fill="#a47c5c" d="M100 300h100v100H100z"/><path fill="#a9b4a9" d="M200 300h100v100H200z"/><path fill="#94a8a5" d="M300 300h100v100H300z"/><path fill="#a99c8b" d="M400 300h100v100H400z"/><path fill="#c2b9ad" d="M500 300h100v100H500z"/><path fill="#a3958e" d="M600 300h100v100H600z"/><path fill="#4d4f33" d="M700 300h100v100H700z"/><path fill="#b59f8f" d="M0 400h100v100H0z"/><path fill="#a89c85" d="M100 400h100v100H100z"/><path fill="#b6b6a2" d="M200 400h100v100H200z"/><path fill="#cfc0b0" d="M300 400h100v100H300z"/><path fill="#b4a99c" d="M400 400h100v100H400z"/><path fill="#b1ab9e" d="M500 400h100v100H500z"/><path fill="#9d9790" d="M600 400h100v100H600z"/><path fill="#817063" d="M700 400h100v100H700z"/></svg>