<svg xmlns="http://www.w3.org/2000/svg" viewBox="0 0 800 500"><defs/><path fill="#f1e7eb" d="M0 0h100v100H0z"/><path fill="#ead9df" d="M100 0h100v100H100z"/><path fill="#efe1e6" d="M200 0h100v100H200z"/><path fill="#f2e3e6" d="M300 0h100v100H300z"/><path fill="#eee0e5" d="M400 0h100v100H400z"/><path fill="#eedfe4" d="M500 0h100v100H500z"/><path fill="#efe2e6" d="M600 0h100v100H600z"/><path fill="#efe4e9" d="M700 0h100v100H700z"/><path fill="#d09fb1" d="M0 100h100v100H0z"/><path fill="#c0788c" d="M100 100h100v100H100z"/><path fill="#ce98aa" d="M200 100h100v100H200z"/><path fill="#c1889c" d="M300 100h100v100H300z"/><path fill="#d5a4b4" d="M400 100h100v100H400z"/><path fill="#d1aaba" d="M500 100h100v100H500z"/><path fill="#cea0b0" d="M600 100h100v100H600z"/><path fill="#ddb9c5" d="M700 100h100v100H700z"/><path fill="#d4a2b1" d="M0 200h100v100H0z"/><path fill="#c57d91" d="M100 200h100v100H100z"/><path fill="#ba879e" d="M200 200h100v100H200z"/><path fill="#b78695" d="M300 200h100v100H300z"/><path fill="#cb93a4" d="M400 200h100v100H400z"/><path fill="#c896a7" d="M500 200h100v100H500z"/><path fill="#ce98ac" d="M600 200h100v100H600z"/><path fill="#e8cdd1" d="M700 200h100v100H700z"/><path fill="#cc97a6" d="M0 300h100v100H0z"/><path fill="#ab5b72" d="M100 300h100v100H100z"/><path fill="#b87a98" d="M200 300h100v100H200z"/><path fill="#b47b9b" d="M300 300h100v100H300z"/><path fill="#ba7d99" d="M400 300h100v100H400z"/><path fill="#b48f9f" d="M500 300h100v100H500z"/><path fill="#8b617c" d="M600 300h100v100H600z"/><path fill="#dcc1c8" d="M700 300h100v100H700z"/><path fill="#d0b3be" d="M0 400h100v100H0z"/><path fill="#c99fac" d="M100 400h100v100H100z"/><path fill="#ccacb9" d="M200 400h100v100H200z"/><path fill="#caa9be" d="M300 400h100v100H300z"/><path fill="#ceb1c6" d="M400 400h100v100H400z"/><path fill="#c6b2be" d="M500 400h100v100H500z"/><path fill="#c7bbc2" d="M600 400h100v100H600z"/><path fill="#ddcad1" d="M700 400h100v100H700z"/></svg>