<svg xmlns="http://www.w3.org/2000/svg" viewBox="0 0 800 600"><defs/><path fill="#f6f5e1" d="M0 0h100v100H0z"/><path fill="#eeecd9" d="M100 0h100v100H100z"/><path fill="#fbfae6" d="M200 0h100v100H200z"/><path fill="#f9f8e4" d="M300 0h100v100H300z"/><path fill="#e7ebe0" d="M400 0h100v100H400z"/><path fill="#edf0e3" d="M500 0h100v100H500z"/><path fill="#faf8e4" d="M600 0h100v100H600z"/><path fill="#faf7e4" d="M700 0h100v100H700z"/><path fill="#f6f4e0" d="M0 100h100v100H0z"/><path fill="#ece8d4" d="M100 100h100v100H100z"/><path fill="#fcfbe5" d="M200 100h100v100H200z"/><path fill="#e8ece3" d="M300 100h100v100H300z"/><path fill="#c5d3db" d="M400 100h100v100H400z"/><path fill="#ced4d1" d="M500 100h100v100H500z"/><path fill="#f6f2e1" d="M600 100h100v100H600z"/><path fill="#e0ecd7" d="M700 100h100v100H700z"/><path fill="#f6f3df" d="M0 200h100v100H0z"/><path fill="#e6e2cf" d="M100 200h100v100H100z"/><path fill="#e6e4c9" d="M200 200h100v100H200z"/><path fill="#e0e7d2" d="M300 200h100v100H300z"/><path fill="#cfd4d7" d="M400 200h100v100H400z"/><path fill="#ddd8c3" d="M500 200h100v100H500z"/><path fill="#efedd2" d="M600 200h100v100H600z"/><path fill="#d8dbc5" d="M700 200h100v100H700z"/><path fill="#f2efdb" d="M0 300h100v100H0z"/><path fill="#ece9d5" d="M100 300h100v100H100z"/><path fill="#ebdfc6" d="M200 300h100v100H200z"/><path fill="#e1d5b9" d="M300 300h100v100H300z"/><path fill="#e4e1d3" d="M400 300h100v100H400z"/><path fill="#e8e1cc" d="M500 300h100v100H500z"/><path fill="#f4e1bf" d="M600 300h100v100H600z"/><path fill="#e6dbc6" d="M700 300h100v100H700z"/><path fill="#eeead5" d="M0 400h100v100H0z"/><path fill="#e5e0cd" d="M100 400h100v100H100z"/><path fill="#e5e1cb" d="M200 400h100v100H200z"/><path fill="#ebe2cb" d="M300 400h100v100H300z"/><path fill="#eadcc7" d="M400 400h100v100H400z"/><path fill="#f3e6c9" d="M500 400h100v100H500z"/><path fill="#f4ddbc" d="M600 400h100v100H600z"/><path fill="#f4ecd3" d="M700 400h100v100H700z"/><path fill="#f4f1dc" d="M0 500h100v100H0z"/><path fill="#ebe7d5" d="M100 500h100v100H100z"/><path fill="#ecebd5" d="M200 500h100v100H200z"/><path fill="#f5f4d9" d="M300 500h100v100H300z"/><path fill="#f0ead2" d="M400 500h100v100H400z"/><path fill="#f3f2d6" d="M500 500h100v100H500z"/><path fill="#f9f7e2" d="M600 500h100v100H600z"/><path fill="#f7f3e0" d="M700 500h100v100H700z"/></svg>