<svg xmlns="http://www.w3.org/2000/svg" viewBox="0 0 800 400"><defs/><path fill="#aaa" d="M0 0h100v100H0z"/><path fill="#8d8d8d" d="M100 0h100v100H100z"/><path fill="#9e9e9e" d="M200 0h100v100H200z"/><path fill="#cdcdcd" d="M300 0h100v100H300z"/><path fill="#dbdbdb" d="M400 0h100v100H400z"/><path fill="#dfdfdf" d="M500 0h100v100H500z"/><path fill="#a2a2a2" d="M600 0h100v100H600z"/><path fill="#b9b9b9" d="M700 0h100v100H700z"/><path fill="#878787" d="M0 100h100v100H0z"/><path fill="#8a8a8a" d="M100 100h100v100H100z"/><path fill="#a3a3a3" d="M200 100h100v100H200z"/><path fill="#9d9d9d" d="M300 100h100v100H300z"/><path fill="#979797" d="M400 100h100v100H400z"/><path fill="#9d9d9d" d="M500 100h100v100H500z"/><path fill="#bcbcbc" d="M600 100h100v100H600zm100 0h100v100H700z"/><path fill="#8b8b8b" d="M0 200h100v100H0z"/><path fill="#979797" d="M100 200h100v100H100z"/><path fill="#c4c4c4" d="M200 200h100v100H200z"/><path fill="#b9b9b9" d="M300 200h100v100H300z"/><path fill="#c7c7c7" d="M400 200h100v100H400z"/><path fill="#a9a9a9" d="M500 200h100v100H500z"/><path fill="#bababa" d="M600 200h100v100H600z"/><path fill="#dcdcdc" d="M700 200h100v100H700z"/><path fill="#8e8e8e" d="M0 300h100v100H0z"/><path fill="#b5b5b5" d="M100 300h100v100H100z"/><path fill="#ccc" d="M200 300h100v100H200z"/><path fill="#c8c8c8" d="M300 300h100v100H300z"/><path fill="#dedede" d="M400 300h100v100H400z"/><path fill="#d0d0d0" d="M500 300h100v100H500z"/><path fill="#c7c7c7" d="M600 300h100v100H600z"/><path fill="#ebebeb" d="M700 300h100v100H700z"/></svg>