<svg xmlns="http://www.w3.org/2000/svg" viewBox="0 0 800 400"><defs/><path fill="#bbaaa1" d="M0 0h100v100H0z"/><path fill="#988988" d="M100 0h100v100H100z"/><path fill="#b1a9a7" d="M200 0h100v100H200z"/><path fill="#c0b79c" d="M300 0h100v100H300z"/><path fill="#b0ab99" d="M400 0h100v100H400z"/><path fill="#7d8380" d="M500 0h100v100H500z"/><path fill="#908c8e" d="M600 0h100v100H600z"/><path fill="#a59389" d="M700 0h100v100H700z"/><path fill="#c6bcae" d="M0 100h100v100H0z"/><path fill="#af9a9d" d="M100 100h100v100H100z"/><path fill="#c2a9af" d="M200 100h100v100H200z"/><path fill="#c9c1b0" d="M300 100h100v100H300z"/><path fill="#9e958f" d="M400 100h100v100H400z"/><path fill="#7d827b" d="M500 100h100v100H500z"/><path fill="#86857d" d="M600 100h100v100H600z"/><path fill="#a7a08b" d="M700 100h100v100H700z"/><path fill="#c4b6ac" d="M0 200h100v100H0z"/><path fill="#c5bdbb" d="M100 200h100v100H100z"/><path fill="#d0bab1" d="M200 200h100v100H200z"/><path fill="#b1aea5" d="M300 200h100v100H300z"/><path fill="#b3ae9b" d="M400 200h100v100H400z"/><path fill="#bcb2a3" d="M500 200h100v100H500z"/><path fill="#cac2b6" d="M600 200h100v100H600z"/><path fill="#b9b4a6" d="M700 200h100v100H700z"/><path fill="#c9c9c5" d="M0 300h100v100H0z"/><path fill="#bccac4" d="M100 300h100v100H100z"/><path fill="#9aa29e" d="M200 300h100v100H200z"/><path fill="#95a8ac" d="M300 300h100v100H300z"/><path fill="#939e9a" d="M400 300h100v100H400z"/><path fill="#9fb1b0" d="M500 300h100v100H500z"/><path fill="#b9d5d0" d="M600 300h100v100H600z"/><path fill="#afc1b9" d="M700 300h100v100H700z"/></svg>