<svg xmlns="http://www.w3.org/2000/svg" viewBox="0 0 800 500"><defs/><path fill="#eff0ef" d="M0 0h100v100H0z"/><path fill="#cac9c5" d="M100 0h100v100H100z"/><path fill="#c8c4c3" d="M200 0h100v100H200z"/><path fill="#d3cbc8" d="M300 0h100v100H300z"/><path fill="#d3c6c3" d="M400 0h100v100H400z"/><path fill="#cac7c4" d="M500 0h100v100H500z"/><path fill="#cfd1cf" d="M600 0h100v100H600z"/><path fill="#f9f8f9" d="M700 0h100v100H700z"/><path fill="#c9cac9" d="M0 100h100v100H0z"/><path fill="#4e4e4d" d="M100 100h100v100H100z"/><path fill="#61564d" d="M200 100h100v100H200z"/><path fill="#838ea6" d="M300 100h100v100H300z"/><path fill="#607291" d="M400 100h100v100H400z"/><path fill="#354235" d="M500 100h100v100H500z"/><path fill="#6f6f65" d="M600 100h100v100H600z"/><path fill="#f0f0f1" d="M700 100h100v100H700z"/><path fill="#cfcbce" d="M0 200h100v100H0z"/><path fill="#6e5a54" d="M100 200h100v100H100z"/><path fill="#7a7268" d="M200 200h100v100H200z"/><path fill="#729bb4" d="M300 200h100v100H300z"/><path fill="#3a6985" d="M400 200h100v100H400z"/><path fill="#394a44" d="M500 200h100v100H500z"/><path fill="#8b6552" d="M600 200h100v100H600z"/><path fill="#f4ede9" d="M700 200h100v100H700z"/><path fill="#c0c0bf" d="M0 300h100v100H0z"/><path fill="#5b7a2e" d="M100 300h100v100H100z"/><path fill="#6b7c2e" d="M200 300h100v100H200z"/><path fill="#6c7c2d" d="M300 300h100v100H300z"/><path fill="#608527" d="M400 300h100v100H400z"/><path fill="#6f7a2b" d="M500 300h100v100H500z"/><path fill="#7c7e4d" d="M600 300h100v100H600z"/><path fill="#e6e8e7" d="M700 300h100v100H700z"/><path fill="#dbe2d3" d="M0 400h100v100H0z"/><path fill="#a7c088" d="M100 400h100v100H100z"/><path fill="#a7bd8e" d="M200 400h100v100H200z"/><path fill="#9db08a" d="M300 400h100v100H300z"/><path fill="#a2b98d" d="M400 400h100v100H400z"/><path fill="#aaba8f" d="M500 400h100v100H500z"/><path fill="#b1bf97" d="M600 400h100v100H600z"/><path fill="#f2f5f1" d="M700 400h100v100H700z"/></svg>