<svg xmlns="http://www.w3.org/2000/svg" viewBox="0 0 800 700"><defs/><path fill="#cee0e7" d="M0 0h100v100H0z"/><path fill="#5cb2b7" d="M100 0h100v100H100z"/><path fill="#82827f" d="M200 0h100v100H200z"/><path fill="#6f7172" d="M300 0h100v100H300z"/><path fill="#848480" d="M400 0h100v100H400z"/><path fill="#565654" d="M500 0h100v100H500z"/><path fill="#6c6964" d="M600 0h100v100H600z"/><path fill="#ba9a7d" d="M700 0h100v100H700z"/><path fill="#bfd1db" d="M0 100h100v100H0z"/><path fill="#a6cdd1" d="M100 100h100v100H100z"/><path fill="#cecfd5" d="M200 100h100v100H200z"/><path fill="#bdc1cc" d="M300 100h100v100H300z"/><path fill="#ced1d9" d="M400 100h100v100H400z"/><path fill="#52555a" d="M500 100h100v100H500z"/><path fill="#3d3422" d="M600 100h100v100H600z"/><path fill="#cab65e" d="M700 100h100v100H700z"/><path fill="#bfd3de" d="M0 200h100v100H0z"/><path fill="#65a3a1" d="M100 200h100v100H100z"/><path fill="#9f7762" d="M200 200h100v100H200z"/><path fill="#767375" d="M300 200h100v100H300z"/><path fill="#ad9b60" d="M400 200h100v100H400z"/><path fill="#312c34" d="M500 200h100v100H500z"/><path fill="#222464" d="M600 200h100v100H600z"/><path fill="#0f650f" d="M700 200h100v100H700z"/><path fill="#c1d7dc" d="M0 300h100v100H0z"/><path fill="#256778" d="M100 300h100v100H100z"/><path fill="#7b5b59" d="M200 300h100v100H200z"/><path fill="#2f2312" d="M300 300h100v100H300z"/><path fill="#968403" d="M400 300h100v100H400z"/><path fill="#6a751f" d="M500 300h100v100H500z"/><path fill="#1b4841" d="M600 300h100v100H600z"/><path fill="#b18d0c" d="M700 300h100v100H700z"/><path fill="#c5d3cf" d="M0 400h100v100H0z"/><path fill="#1350b3" d="M100 400h100v100H100z"/><path fill="#081b63" d="M200 400h100v100H200z"/><path fill="#080900" d="M300 400h100v100H300z"/><path fill="#116a1c" d="M400 400h100v100H400z"/><path fill="#155814" d="M500 400h100v100H500z"/><path fill="#295d20" d="M600 400h100v100H600z"/><path fill="#7c8b16" d="M700 400h100v100H700z"/><path fill="#d7cede" d="M0 500h100v100H0z"/><path fill="#a3695e" d="M100 500h100v100H100z"/><path fill="#9c6351" d="M200 500h100v100H200z"/><path fill="#8f485b" d="M300 500h100v100H300z"/><path fill="#a7372d" d="M400 500h100v100H400z"/><path fill="#8a3d2e" d="M500 500h100v100H500z"/><path fill="#585a3b" d="M600 500h100v100H600z"/><path fill="#397e1a" d="M700 500h100v100H700z"/><path fill="#e0d8e5" d="M0 600h100v100H0z"/><path fill="#d57a72" d="M100 600h100v100H100z"/><path fill="#e8868d" d="M200 600h100v100H200z"/><path fill="#f78da3" d="M300 600h100v100H300z"/><path fill="#dc6b75" d="M400 600h100v100H400z"/><path fill="#e46677" d="M500 600h100v100H500z"/><path fill="#9a575f" d="M600 600h100v100H600z"/><path fill="#89562c" d="M700 600h100v100H700z"/></svg>