<svg xmlns="http://www.w3.org/2000/svg" viewBox="0 0 800 400"><defs/><path fill="#ae9c6f" d="M0 0h100v100H0z"/><path fill="#9c7861" d="M100 0h100v100H100z"/><path fill="#b9aa93" d="M200 0h100v100H200z"/><path fill="#d0c9a3" d="M300 0h100v100H300z"/><path fill="#cdc59f" d="M400 0h100v100H400z"/><path fill="#d3c8a8" d="M500 0h100v100H500z"/><path fill="#b9ac8e" d="M600 0h100v100H600z"/><path fill="#b4ad96" d="M700 0h100v100H700z"/><path fill="#b58d61" d="M0 100h100v100H0z"/><path fill="#8f6e4a" d="M100 100h100v100H100z"/><path fill="#9fae71" d="M200 100h100v100H200z"/><path fill="#aa937c" d="M300 100h100v100H300z"/><path fill="#9d8180" d="M400 100h100v100H400z"/><path fill="#969e73" d="M500 100h100v100H500z"/><path fill="#9a9068" d="M600 100h100v100H600z"/><path fill="#8a908a" d="M700 100h100v100H700z"/><path fill="#ad8b78" d="M0 200h100v100H0z"/><path fill="#927a5d" d="M100 200h100v100H100z"/><path fill="#796048" d="M200 200h100v100H200z"/><path fill="#744145" d="M300 200h100v100H300z"/><path fill="#8a686e" d="M400 200h100v100H400z"/><path fill="#836d60" d="M500 200h100v100H500z"/><path fill="#9b8f79" d="M600 200h100v100H600z"/><path fill="#a09a7f" d="M700 200h100v100H700z"/><path fill="#a78a6c" d="M0 300h100v100H0z"/><path fill="#8d6a5f" d="M100 300h100v100H100z"/><path fill="#85546b" d="M200 300h100v100H200z"/><path fill="#652540" d="M300 300h100v100H300z"/><path fill="#684073" d="M400 300h100v100H400z"/><path fill="#77405b" d="M500 300h100v100H500z"/><path fill="#b38034" d="M600 300h100v100H600z"/><path fill="#b0a255" d="M700 300h100v100H700z"/></svg>