<svg xmlns="http://www.w3.org/2000/svg" viewBox="0 0 800 500"><defs/><path fill="#bfc5bd" d="M0 0h100v100H0z"/><path fill="#a6aca8" d="M100 0h100v100H100z"/><path fill="#919593" d="M200 0h100v100H200z"/><path fill="#4f4f4f" d="M300 0h100v100H300z"/><path fill="#6b6b6b" d="M400 0h100v100H400z"/><path fill="#969899" d="M500 0h100v100H500z"/><path fill="#b3b6b6" d="M600 0h100v100H600z"/><path fill="#e0e2df" d="M700 0h100v100H700z"/><path fill="#d7dae1" d="M0 100h100v100H0z"/><path fill="#a2a5a6" d="M100 100h100v100H100z"/><path fill="#969795" d="M200 100h100v100H200z"/><path fill="#393a39" d="M300 100h100v100H300z"/><path fill="#717374" d="M400 100h100v100H400z"/><path fill="#a4a5a7" d="M500 100h100v100H500z"/><path fill="#d8d8dd" d="M600 100h100v100H600z"/><path fill="#f4f3f4" d="M700 100h100v100H700z"/><path fill="#e8dda5" d="M0 200h100v100H0z"/><path fill="#aba287" d="M100 200h100v100H100z"/><path fill="#908f8f" d="M200 200h100v100H200z"/><path fill="#5b5e5f" d="M300 200h100v100H300z"/><path fill="#75757a" d="M400 200h100v100H400z"/><path fill="#797473" d="M500 200h100v100H500z"/><path fill="#c1bdb7" d="M600 200h100v100H600z"/><path fill="#e4e3e1" d="M700 200h100v100H700z"/><path fill="#938b4d" d="M0 300h100v100H0z"/><path fill="#c4c3b4" d="M100 300h100v100H100z"/><path fill="#979ba6" d="M200 300h100v100H200z"/><path fill="#65635c" d="M300 300h100v100H300z"/><path fill="#7c7975" d="M400 300h100v100H400z"/><path fill="#888380" d="M500 300h100v100H500z"/><path fill="#a29b92" d="M600 300h100v100H600z"/><path fill="#bab5b0" d="M700 300h100v100H700z"/><path fill="#aea799" d="M0 400h100v100H0z"/><path fill="#bab6b4" d="M100 400h100v100H100z"/><path fill="#a59787" d="M200 400h100v100H200z"/><path fill="#978364" d="M300 400h100v100H300z"/><path fill="#a68e6b" d="M400 400h100v100H400z"/><path fill="#b59c7c" d="M500 400h100v100H500z"/><path fill="#c5b29c" d="M600 400h100v100H600z"/><path fill="#dbd0c6" d="M700 400h100v100H700z"/></svg>