<svg xmlns="http://www.w3.org/2000/svg" viewBox="0 0 800 500"><defs/><path fill="#b5b5b4" d="M0 0h100v100H0z"/><path fill="#c0c1c1" d="M100 0h100v100H100z"/><path fill="#dad9d8" d="M200 0h100v100H200z"/><path fill="#dcd5d3" d="M300 0h100v100H300z"/><path fill="#d7d7d9" d="M400 0h100v100H400z"/><path fill="#d3d0cf" d="M500 0h100v100H500z"/><path fill="#c0b7b7" d="M600 0h100v100H600z"/><path fill="#b5b5b4" d="M700 0h100v100H700z"/><path fill="#606160" d="M0 100h100v100H0z"/><path fill="#848281" d="M100 100h100v100H100z"/><path fill="#9a908b" d="M200 100h100v100H200z"/><path fill="#7c716a" d="M300 100h100v100H300z"/><path fill="#929296" d="M400 100h100v100H400z"/><path fill="#909a87" d="M500 100h100v100H500z"/><path fill="#5d5d3c" d="M600 100h100v100H600z"/><path fill="#8e8c76" d="M700 100h100v100H700z"/><path fill="#868887" d="M0 200h100v100H0z"/><path fill="#8c8684" d="M100 200h100v100H100z"/><path fill="#8e7d70" d="M200 200h100v100H200z"/><path fill="#6b8598" d="M300 200h100v100H300z"/><path fill="#808587" d="M400 200h100v100H400z"/><path fill="#958e85" d="M500 200h100v100H500z"/><path fill="#5d523b" d="M600 200h100v100H600z"/><path fill="#aaab8f" d="M700 200h100v100H700z"/><path fill="#939393" d="M0 300h100v100H0z"/><path fill="#887969" d="M100 300h100v100H100z"/><path fill="#a97256" d="M200 300h100v100H200z"/><path fill="#ad947d" d="M300 300h100v100H300z"/><path fill="#a08b70" d="M400 300h100v100H400z"/><path fill="#b39d78" d="M500 300h100v100H500z"/><path fill="#ad9477" d="M600 300h100v100H600z"/><path fill="#bdb398" d="M700 300h100v100H700z"/><path fill="#d5cfca" d="M0 400h100v100H0z"/><path fill="#d5c4b4" d="M100 400h100v100H100z"/><path fill="#ddc5b2" d="M200 400h100v100H200z"/><path fill="#e7d4c3" d="M300 400h100v100H300z"/><path fill="#e6d7c8" d="M400 400h100v100H400z"/><path fill="#e5d9cb" d="M500 400h100v100H500z"/><path fill="#e7dfd4" d="M600 400h100v100H600z"/><path fill="#e5ded6" d="M700 400h100v100H700z"/></svg>