<svg xmlns="http://www.w3.org/2000/svg" viewBox="0 0 800 400"><defs/><path fill="#d7ab6a" d="M0 0h100v100H0z"/><path fill="#b68535" d="M100 0h100v100H100z"/><path fill="#aca5a2" d="M200 0h100v100H200z"/><path fill="#fea49c" d="M300 0h100v100H300z"/><path fill="#f46f69" d="M400 0h100v100H400z"/><path fill="#ed6d69" d="M500 0h100v100H500z"/><path fill="#fc807b" d="M600 0h100v100H600z"/><path fill="#f5dfd9" d="M700 0h100v100H700z"/><path fill="#956d35" d="M0 100h100v100H0z"/><path fill="#a0774f" d="M100 100h100v100H100z"/><path fill="#ab7a62" d="M200 100h100v100H200z"/><path fill="#c1a89d" d="M300 100h100v100H300z"/><path fill="#c0a5aa" d="M400 100h100v100H400z"/><path fill="#907a8a" d="M500 100h100v100H500z"/><path fill="#7d6877" d="M600 100h100v100H600z"/><path fill="#d9c9bf" d="M700 100h100v100H700z"/><path fill="#665049" d="M0 200h100v100H0z"/><path fill="#cf9e89" d="M100 200h100v100H100z"/><path fill="#7b5848" d="M200 200h100v100H200z"/><path fill="#857a7a" d="M300 200h100v100H300z"/><path fill="#cdc4c4" d="M400 200h100v100H400z"/><path fill="#d6bfb7" d="M500 200h100v100H500z"/><path fill="#a68d85" d="M600 200h100v100H600z"/><path fill="#a99284" d="M700 200h100v100H700z"/><path fill="#2e2526" d="M0 300h100v100H0z"/><path fill="#9a3939" d="M100 300h100v100H100z"/><path fill="#172b3f" d="M200 300h100v100H200z"/><path fill="#195975" d="M300 300h100v100H300z"/><path fill="#8db4c4" d="M400 300h100v100H400z"/><path fill="#98cce3" d="M500 300h100v100H500z"/><path fill="#9bcae0" d="M600 300h100v100H600z"/><path fill="#aed7e4" d="M700 300h100v100H700z"/></svg>