<svg xmlns="http://www.w3.org/2000/svg" viewBox="0 0 800 400"><defs/><path fill="#917b86" d="M0 0h100v100H0z"/><path fill="#717071" d="M100 0h100v100H100z"/><path fill="#9988a4" d="M200 0h100v100H200z"/><path fill="#9e9ec0" d="M300 0h100v100H300z"/><path fill="#9fa4c4" d="M400 0h100v100H400z"/><path fill="#968db0" d="M500 0h100v100H500z"/><path fill="#9284a7" d="M600 0h100v100H600z"/><path fill="#969cc1" d="M700 0h100v100H700z"/><path fill="#86676b" d="M0 100h100v100H0z"/><path fill="#606468" d="M100 100h100v100H100z"/><path fill="#8685a5" d="M200 100h100v100H200z"/><path fill="#9fb8d7" d="M300 100h100v100H300z"/><path fill="#a0cbe8" d="M400 100h100v100H400z"/><path fill="#969bc4" d="M500 100h100v100H500z"/><path fill="#988fa0" d="M600 100h100v100H600z"/><path fill="#90889d" d="M700 100h100v100H700z"/><path fill="#6d6e81" d="M0 200h100v100H0z"/><path fill="#6a6660" d="M100 200h100v100H100z"/><path fill="#a49bb3" d="M200 200h100v100H200z"/><path fill="#b4b6cc" d="M300 200h100v100H300z"/><path fill="#c5b7c8" d="M400 200h100v100H400z"/><path fill="#a69199" d="M500 200h100v100H500z"/><path fill="#b87e68" d="M600 200h100v100H600z"/><path fill="#7f5863" d="M700 200h100v100H700z"/><path fill="#7d7374" d="M0 300h100v100H0z"/><path fill="#977157" d="M100 300h100v100H100z"/><path fill="#a06c57" d="M200 300h100v100H200z"/><path fill="#b98a8f" d="M300 300h100v100H300z"/><path fill="#cf9a9d" d="M400 300h100v100H400z"/><path fill="#a8827f" d="M500 300h100v100H500z"/><path fill="#c59977" d="M600 300h100v100H600z"/><path fill="#998a82" d="M700 300h100v100H700z"/></svg>