<svg xmlns="http://www.w3.org/2000/svg" viewBox="0 0 800 500"><defs/><path fill="#c1c4c7" d="M0 0h100v100H0z"/><path fill="#c5c8c8" d="M100 0h100v100H100z"/><path fill="#c6c9cb" d="M200 0h100v100H200z"/><path fill="#c6c9cd" d="M300 0h100v100H300zm100 0h100v100H400z"/><path fill="#ced0d5" d="M500 0h100v100H500z"/><path fill="#c5c8cd" d="M600 0h100v100H600z"/><path fill="#bec4c7" d="M700 0h100v100H700z"/><path fill="#a2a5a5" d="M0 100h100v100H0z"/><path fill="#c0bfbf" d="M100 100h100v100H100z"/><path fill="#bebfc1" d="M200 100h100v100H200z"/><path fill="#c2c4c6" d="M300 100h100v100H300z"/><path fill="#c5c5c5" d="M400 100h100v100H400z"/><path fill="#d1d1d1" d="M500 100h100v100H500z"/><path fill="#979796" d="M600 100h100v100H600z"/><path fill="#7d7d7e" d="M700 100h100v100H700z"/><path fill="#8e8d89" d="M0 200h100v100H0z"/><path fill="#796e5f" d="M100 200h100v100H100z"/><path fill="#767479" d="M200 200h100v100H200z"/><path fill="#635d68" d="M300 200h100v100H300z"/><path fill="#918f8c" d="M400 200h100v100H400z"/><path fill="#919293" d="M500 200h100v100H500z"/><path fill="#878788" d="M600 200h100v100H600z"/><path fill="#898072" d="M700 200h100v100H700z"/><path fill="#787369" d="M0 300h100v100H0z"/><path fill="#5d482a" d="M100 300h100v100H100z"/><path fill="#6c461c" d="M200 300h100v100H200z"/><path fill="#643b0d" d="M300 300h100v100H300z"/><path fill="#816747" d="M400 300h100v100H400z"/><path fill="#b8ab95" d="M500 300h100v100H500z"/><path fill="#b6a78f" d="M600 300h100v100H600z"/><path fill="#9d8c73" d="M700 300h100v100H700z"/><path fill="#a19f99" d="M0 400h100v100H0z"/><path fill="#aca395" d="M100 400h100v100H100z"/><path fill="#ada496" d="M200 400h100v100H200z"/><path fill="#aaa193" d="M300 400h100v100H300z"/><path fill="#b1a89b" d="M400 400h100v100H400z"/><path fill="#bab3a5" d="M500 400h100v100H500z"/><path fill="#c0b7a8" d="M600 400h100v100H600z"/><path fill="#b3ada2" d="M700 400h100v100H700z"/></svg>