<svg xmlns="http://www.w3.org/2000/svg" viewBox="0 0 800 600"><defs/><path fill="#d0bfb8" d="M0 0h100v100H0z"/><path fill="#9b9395" d="M100 0h100v100H100z"/><path fill="#9e9596" d="M200 0h100v100H200z"/><path fill="#b5a5a3" d="M300 0h100v100H300z"/><path fill="#f5e7d4" d="M400 0h100v100H400z"/><path fill="#f6e8d5" d="M500 0h100v100H500z"/><path fill="#b0a3a3" d="M600 0h100v100H600z"/><path fill="#9a969a" d="M700 0h100v100H700z"/><path fill="#986a57" d="M0 100h100v100H0z"/><path fill="#190307" d="M100 100h100v100H100z"/><path fill="#16090f" d="M200 100h100v100H200z"/><path fill="#513023" d="M300 100h100v100H300z"/><path fill="#e9bd90" d="M400 100h100v100H400z"/><path fill="#f1c494" d="M500 100h100v100H500z"/><path fill="#4e2928" d="M600 100h100v100H600z"/><path fill="#33171e" d="M700 100h100v100H700z"/><path fill="#6d4442" d="M0 200h100v100H0z"/><path fill="#411e1f" d="M100 200h100v100H100z"/><path fill="#342124" d="M200 200h100v100H200z"/><path fill="#312528" d="M300 200h100v100H300z"/><path fill="#845842" d="M400 200h100v100H400z"/><path fill="#9b684e" d="M500 200h100v100H500z"/><path fill="#6c3b32" d="M600 200h100v100H600z"/><path fill="#5e3736" d="M700 200h100v100H700z"/><path fill="#3b2e38" d="M0 300h100v100H0z"/><path fill="#3b1d1c" d="M100 300h100v100H100z"/><path fill="#632e26" d="M200 300h100v100H200z"/><path fill="#572d29" d="M300 300h100v100H300z"/><path fill="#733b30" d="M400 300h100v100H400z"/><path fill="#713d33" d="M500 300h100v100H500z"/><path fill="#61362e" d="M600 300h100v100H600z"/><path fill="#402c2d" d="M700 300h100v100H700z"/><path fill="#33272e" d="M0 400h100v100H0z"/><path fill="#45221e" d="M100 400h100v100H100z"/><path fill="#a2644f" d="M200 400h100v100H200z"/><path fill="#bf7961" d="M300 400h100v100H300z"/><path fill="#b25840" d="M400 400h100v100H400z"/><path fill="#b65b42" d="M500 400h100v100H500z"/><path fill="#693c2f" d="M600 400h100v100H600z"/><path fill="#4a332e" d="M700 400h100v100H700z"/><path fill="#ded9d8" d="M0 500h100v100H0z"/><path fill="#e5dcd8" d="M100 500h100v100H100z"/><path fill="#ece3df" d="M200 500h100v100H200z"/><path fill="#ede4df" d="M300 500h100v100H300z"/><path fill="#e6dcd9" d="M400 500h100v100H400z"/><path fill="#e9dfdb" d="M500 500h100v100H500z"/><path fill="#e0dcd8" d="M600 500h100v100H600z"/><path fill="#ded9d8" d="M700 500h100v100H700z"/></svg>