<svg xmlns="http://www.w3.org/2000/svg" viewBox="0 0 800 600"><defs/><path fill="#f6f6f6" d="M0 0h100v100H0z"/><path fill="#efefef" d="M100 0h100v100H100z"/><path fill="#f4f4f4" d="M200 0h100v100H200z"/><path fill="#f6f6f6" d="M300 0h100v100H300z"/><path fill="#f7f7f7" d="M400 0h100v100H400zm100 0h100v100H500z"/><path fill="#f8f8f8" d="M600 0h100v100H600z"/><path fill="#f9f9f9" d="M700 0h100v100H700z"/><path fill="#e5e5e5" d="M0 100h100v100H0z"/><path fill="#cfcfcf" d="M100 100h100v100H100z"/><path fill="#d2d2d2" d="M200 100h100v100H200z"/><path fill="#d7d7d7" d="M300 100h100v100H300z"/><path fill="#dedede" d="M400 100h100v100H400z"/><path fill="#eee" d="M500 100h100v100H500z"/><path fill="#e2e2e2" d="M600 100h100v100H600z"/><path fill="#dfdfdf" d="M700 100h100v100H700z"/><path fill="#e7e7e7" d="M0 200h100v100H0z"/><path fill="#d8d8d8" d="M100 200h100v100H100z"/><path fill="#e0e0e0" d="M200 200h100v100H200z"/><path fill="#eaeaea" d="M300 200h100v100H300z"/><path fill="#dbdbdb" d="M400 200h100v100H400z"/><path fill="#e8e8e8" d="M500 200h100v100H500z"/><path fill="#dadada" d="M600 200h100v100H600z"/><path fill="#d0d0d0" d="M700 200h100v100H700z"/><path fill="#e4e4e4" d="M0 300h100v100H0zm100 0h100v100H100z"/><path fill="#ececec" d="M200 300h100v100H200z"/><path fill="#e4e4e4" d="M300 300h100v100H300zm100 0h100v100H400z"/><path fill="#e7e7e7" d="M500 300h100v100H500z"/><path fill="#e2e2e2" d="M600 300h100v100H600z"/><path fill="#cecece" d="M700 300h100v100H700z"/><path fill="#e2e2e2" d="M0 400h100v100H0z"/><path fill="#e8e8e8" d="M100 400h100v100H100z"/><path fill="#dbdbdb" d="M200 400h100v100H200z"/><path fill="#d6d6d6" d="M300 400h100v100H300z"/><path fill="#ddd" d="M400 400h100v100H400z"/><path fill="#e2e2e2" d="M500 400h100v100H500z"/><path fill="#f1f1f1" d="M600 400h100v100H600z"/><path fill="#ebebeb" d="M700 400h100v100H700z"/><path fill="#f8f8f8" d="M0 500h100v100H0z"/><path fill="#f5f5f5" d="M100 500h100v100H100z"/><path fill="#e9e9e9" d="M200 500h100v100H200z"/><path fill="#eee" d="M300 500h100v100H300z"/><path fill="#f1f1f1" d="M400 500h100v100H400z"/><path fill="#f5f5f5" d="M500 500h100v100H500z"/><path fill="#f3f3f3" d="M600 500h100v100H600z"/><path fill="#f5f5f5" d="M700 500h100v100H700z"/></svg>