<svg xmlns="http://www.w3.org/2000/svg" viewBox="0 0 800 400"><defs/><path fill="#5f86b4" d="M0 0h100v100H0z"/><path fill="#6e9cce" d="M100 0h100v100H100z"/><path fill="#6996c7" d="M200 0h100v100H200z"/><path fill="#628dbe" d="M300 0h100v100H300z"/><path fill="#4f668a" d="M400 0h100v100H400z"/><path fill="#618cbd" d="M500 0h100v100H500z"/><path fill="#5288c1" d="M600 0h100v100H600z"/><path fill="#5f8ec1" d="M700 0h100v100H700z"/><path fill="#618aba" d="M0 100h100v100H0z"/><path fill="#6d9acd" d="M100 100h100v100H100z"/><path fill="#6595cb" d="M200 100h100v100H200z"/><path fill="#5b81b1" d="M300 100h100v100H300z"/><path fill="#5a78a4" d="M400 100h100v100H400z"/><path fill="#4f6e95" d="M500 100h100v100H500z"/><path fill="#2c4367" d="M600 100h100v100H600z"/><path fill="#5880b1" d="M700 100h100v100H700z"/><path fill="#6c99ca" d="M0 200h100v100H0z"/><path fill="#4e77a5" d="M100 200h100v100H100z"/><path fill="#284d80" d="M200 200h100v100H200z"/><path fill="#2d4973" d="M300 200h100v100H300z"/><path fill="#43679a" d="M400 200h100v100H400z"/><path fill="#405979" d="M500 200h100v100H500z"/><path fill="#1c3154" d="M600 200h100v100H600z"/><path fill="#40608b" d="M700 200h100v100H700z"/><path fill="#5d8bbc" d="M0 300h100v100H0z"/><path fill="#375e88" d="M100 300h100v100H100z"/><path fill="#506c92" d="M200 300h100v100H200z"/><path fill="#405c7d" d="M300 300h100v100H300z"/><path fill="#16385f" d="M400 300h100v100H400z"/><path fill="#2e4a6c" d="M500 300h100v100H500z"/><path fill="#0e2a49" d="M600 300h100v100H600z"/><path fill="#1c4671" d="M700 300h100v100H700z"/></svg>