<svg xmlns="http://www.w3.org/2000/svg" viewBox="0 0 800 400"><defs/><path fill="#aeacae" d="M0 0h100v100H0z"/><path fill="#b9988c" d="M100 0h100v100H100z"/><path fill="#b5b3a2" d="M200 0h100v100H200z"/><path fill="#b5d2ea" d="M300 0h100v100H300z"/><path fill="#bad1e0" d="M400 0h100v100H400z"/><path fill="#ccb39b" d="M500 0h100v100H500z"/><path fill="#e3d79d" d="M600 0h100v100H600z"/><path fill="#ece3c6" d="M700 0h100v100H700z"/><path fill="#a5a19c" d="M0 100h100v100H0z"/><path fill="#b0847e" d="M100 100h100v100H100z"/><path fill="#8f8775" d="M200 100h100v100H200z"/><path fill="#8f9689" d="M300 100h100v100H300z"/><path fill="#8b968e" d="M400 100h100v100H400z"/><path fill="#bda184" d="M500 100h100v100H500z"/><path fill="#f3a874" d="M600 100h100v100H600z"/><path fill="#f3c09d" d="M700 100h100v100H700z"/><path fill="#bcabad" d="M0 200h100v100H0z"/><path fill="#9a6b67" d="M100 200h100v100H100z"/><path fill="#d38272" d="M200 200h100v100H200z"/><path fill="#cc9169" d="M300 200h100v100H300z"/><path fill="#b88b6e" d="M400 200h100v100H400z"/><path fill="#eec893" d="M500 200h100v100H500z"/><path fill="#c59278" d="M600 200h100v100H600z"/><path fill="#c89b88" d="M700 200h100v100H700z"/><path fill="#d4b1b4" d="M0 300h100v100H0z"/><path fill="#d59bb1" d="M100 300h100v100H100z"/><path fill="#df909f" d="M200 300h100v100H200z"/><path fill="#e58f72" d="M300 300h100v100H300z"/><path fill="#e28a76" d="M400 300h100v100H400z"/><path fill="#e6b09a" d="M500 300h100v100H500z"/><path fill="#deb18c" d="M600 300h100v100H600z"/><path fill="#cda493" d="M700 300h100v100H700z"/></svg>