<svg xmlns="http://www.w3.org/2000/svg" viewBox="0 0 800 600"><defs/><path fill="#cdc1af" d="M0 0h100v100H0z"/><path fill="#d8c3a1" d="M100 0h100v100H100z"/><path fill="#c8baa7" d="M200 0h100v100H200z"/><path fill="#c4b49a" d="M300 0h100v100H300z"/><path fill="#b8aaa0" d="M400 0h100v100H400z"/><path fill="#826f6d" d="M500 0h100v100H500z"/><path fill="#9c8d84" d="M600 0h100v100H600z"/><path fill="#9c968b" d="M700 0h100v100H700z"/><path fill="#c2b5a3" d="M0 100h100v100H0z"/><path fill="#cbb692" d="M100 100h100v100H100z"/><path fill="#b8afa3" d="M200 100h100v100H200z"/><path fill="#b9b4a4" d="M300 100h100v100H300z"/><path fill="#a99f94" d="M400 100h100v100H400z"/><path fill="#948b8c" d="M500 100h100v100H500z"/><path fill="#a0968b" d="M600 100h100v100H600z"/><path fill="#a1998b" d="M700 100h100v100H700z"/><path fill="#b3aba5" d="M0 200h100v100H0z"/><path fill="#adaaa7" d="M100 200h100v100H100z"/><path fill="#b4ada3" d="M200 200h100v100H200z"/><path fill="#9f8671" d="M300 200h100v100H300z"/><path fill="#a89e8a" d="M400 200h100v100H400z"/><path fill="#a5a79b" d="M500 200h100v100H500z"/><path fill="#98948e" d="M600 200h100v100H600z"/><path fill="#a49a8c" d="M700 200h100v100H700z"/><path fill="#9e9697" d="M0 300h100v100H0z"/><path fill="#9e938d" d="M100 300h100v100H100z"/><path fill="#b19076" d="M200 300h100v100H200z"/><path fill="#b04f33" d="M300 300h100v100H300z"/><path fill="#a49587" d="M400 300h100v100H400z"/><path fill="#74725f" d="M500 300h100v100H500z"/><path fill="#83807b" d="M600 300h100v100H600z"/><path fill="#969183" d="M700 300h100v100H700z"/><path fill="#999089" d="M0 400h100v100H0z"/><path fill="#a69c95" d="M100 400h100v100H100z"/><path fill="#af9482" d="M200 400h100v100H200z"/><path fill="#a36850" d="M300 400h100v100H300z"/><path fill="#9a9087" d="M400 400h100v100H400z"/><path fill="#796e62" d="M500 400h100v100H500z"/><path fill="#8b847b" d="M600 400h100v100H600z"/><path fill="#988073" d="M700 400h100v100H700z"/><path fill="#a3958c" d="M0 500h100v100H0z"/><path fill="#a09891" d="M100 500h100v100H100z"/><path fill="#98958f" d="M200 500h100v100H200z"/><path fill="#9a998a" d="M300 500h100v100H300z"/><path fill="#8b8479" d="M400 500h100v100H400z"/><path fill="#877c6a" d="M500 500h100v100H500z"/><path fill="#8c7d68" d="M600 500h100v100H600z"/><path fill="#945e50" d="M700 500h100v100H700z"/></svg>