<svg xmlns="http://www.w3.org/2000/svg" viewBox="0 0 800 500"><defs/><path fill="#d3d9e2" d="M0 0h100v100H0z"/><path fill="#d4d9df" d="M100 0h100v100H100z"/><path fill="#d5d8d9" d="M200 0h100v100H200z"/><path fill="#d6bfc9" d="M300 0h100v100H300z"/><path fill="#acbcce" d="M400 0h100v100H400z"/><path fill="#6797b6" d="M500 0h100v100H500z"/><path fill="#b4bbc7" d="M600 0h100v100H600z"/><path fill="#bec6cc" d="M700 0h100v100H700z"/><path fill="#ccd3dc" d="M0 100h100v100H0z"/><path fill="#ced6db" d="M100 100h100v100H100z"/><path fill="#cbcfcb" d="M200 100h100v100H200z"/><path fill="#5d6863" d="M300 100h100v100H300z"/><path fill="#325658" d="M400 100h100v100H400z"/><path fill="#497388" d="M500 100h100v100H500z"/><path fill="#b7b9bd" d="M600 100h100v100H600z"/><path fill="#adb5b5" d="M700 100h100v100H700z"/><path fill="#ced5dd" d="M0 200h100v100H0z"/><path fill="#aac9d0" d="M100 200h100v100H100z"/><path fill="#969ea2" d="M200 200h100v100H200z"/><path fill="#789287" d="M300 200h100v100H300z"/><path fill="#768d7a" d="M400 200h100v100H400z"/><path fill="#b6b8ad" d="M500 200h100v100H500z"/><path fill="#99a892" d="M600 200h100v100H600z"/><path fill="#a8b7bd" d="M700 200h100v100H700z"/><path fill="#ceb4bf" d="M0 300h100v100H0z"/><path fill="#8a9aa1" d="M100 300h100v100H100z"/><path fill="#91959c" d="M200 300h100v100H200z"/><path fill="#94959c" d="M300 300h100v100H300z"/><path fill="#b2c1c2" d="M400 300h100v100H400z"/><path fill="#5f8f8a" d="M500 300h100v100H500z"/><path fill="#457b6d" d="M600 300h100v100H600z"/><path fill="#87a2a7" d="M700 300h100v100H700z"/><path fill="#d4d0d9" d="M0 400h100v100H0z"/><path fill="#bec8d0" d="M100 400h100v100H100z"/><path fill="#a5b6bc" d="M200 400h100v100H200z"/><path fill="#9ba5b2" d="M300 400h100v100H300z"/><path fill="#a6b8bf" d="M400 400h100v100H400z"/><path fill="#8ba8ae" d="M500 400h100v100H500z"/><path fill="#8faaaf" d="M600 400h100v100H600z"/><path fill="#abb7c0" d="M700 400h100v100H700z"/></svg>