<svg xmlns="http://www.w3.org/2000/svg" viewBox="0 0 800 400"><defs/><path fill="#948e84" d="M0 0h100v100H0z"/><path fill="#b9b7b4" d="M100 0h100v100H100z"/><path fill="#cfc8bf" d="M200 0h100v100H200z"/><path fill="#c2c1b6" d="M300 0h100v100H300z"/><path fill="#6daac5" d="M400 0h100v100H400z"/><path fill="#6aaac7" d="M500 0h100v100H500z"/><path fill="#a3b9bd" d="M600 0h100v100H600z"/><path fill="#729ca9" d="M700 0h100v100H700z"/><path fill="#a09a92" d="M0 100h100v100H0z"/><path fill="#d1cecb" d="M100 100h100v100H100z"/><path fill="#a99c8c" d="M200 100h100v100H200z"/><path fill="#bca899" d="M300 100h100v100H300z"/><path fill="#69b1a7" d="M400 100h100v100H400z"/><path fill="#49a697" d="M500 100h100v100H500z"/><path fill="#adbbb8" d="M600 100h100v100H600z"/><path fill="#5d97a8" d="M700 100h100v100H700z"/><path fill="#afaba7" d="M0 200h100v100H0z"/><path fill="#bab8b5" d="M100 200h100v100H100z"/><path fill="#b4a89b" d="M200 200h100v100H200z"/><path fill="#d3bfb7" d="M300 200h100v100H300z"/><path fill="#9ccb9a" d="M400 200h100v100H400z"/><path fill="#85c385" d="M500 200h100v100H500z"/><path fill="#bbcab3" d="M600 200h100v100H600z"/><path fill="#5e8f5d" d="M700 200h100v100H700z"/><path fill="#bbbab8" d="M0 300h100v100H0z"/><path fill="#cbcbcc" d="M100 300h100v100H100z"/><path fill="#f1f2f2" d="M200 300h100v100H200z"/><path fill="#eff0f0" d="M300 300h100v100H300z"/><path fill="#f7f2f5" d="M400 300h100v100H400z"/><path fill="#faf2f8" d="M500 300h100v100H500z"/><path fill="#f1f4f2" d="M600 300h100v100H600z"/><path fill="#b2bdac" d="M700 300h100v100H700z"/></svg>