<svg xmlns="http://www.w3.org/2000/svg" viewBox="0 0 800 500"><defs/><path fill="#f3eade" d="M0 0h100v100H0z"/><path fill="#ecdfc9" d="M100 0h100v100H100z"/><path fill="#eee2ce" d="M200 0h100v100H200z"/><path fill="#e8e9e1" d="M300 0h100v100H300z"/><path fill="#e9f5fb" d="M400 0h100v100H400z"/><path fill="#edfbfd" d="M500 0h100v100H500z"/><path fill="#d8e4e6" d="M600 0h100v100H600z"/><path fill="#e6f0f2" d="M700 0h100v100H700z"/><path fill="#ceaa6d" d="M0 100h100v100H0z"/><path fill="#ba7d17" d="M100 100h100v100H100z"/><path fill="#bc7d16" d="M200 100h100v100H200z"/><path fill="#b5832a" d="M300 100h100v100H300z"/><path fill="#9faba2" d="M400 100h100v100H400z"/><path fill="#ade3f1" d="M500 100h100v100H500z"/><path fill="#b2eff9" d="M600 100h100v100H600z"/><path fill="#bcebf5" d="M700 100h100v100H700z"/><path fill="#d0a869" d="M0 200h100v100H0z"/><path fill="#bf8426" d="M100 200h100v100H100z"/><path fill="#bd8225" d="M200 200h100v100H200z"/><path fill="#bf8a39" d="M300 200h100v100H300z"/><path fill="#919793" d="M400 200h100v100H400z"/><path fill="#b4d7e0" d="M500 200h100v100H500z"/><path fill="#b9f2fd" d="M600 200h100v100H600z"/><path fill="#bbeef7" d="M700 200h100v100H700z"/><path fill="#beb49e" d="M0 300h100v100H0z"/><path fill="#809394" d="M100 300h100v100H100z"/><path fill="#84968f" d="M200 300h100v100H200z"/><path fill="#7c9699" d="M300 300h100v100H300z"/><path fill="#98b3c1" d="M400 300h100v100H400z"/><path fill="#fcfbfb" d="M500 300h100v100H500z"/><path fill="#ebf8fa" d="M600 300h100v100H600z"/><path fill="#c9edf4" d="M700 300h100v100H700z"/><path fill="#9bb5c0" d="M0 400h100v100H0z"/><path fill="#b1c7d1" d="M100 400h100v100H100z"/><path fill="#d3e3ec" d="M200 400h100v100H200z"/><path fill="#c8dbe2" d="M300 400h100v100H300z"/><path fill="#f9faf9" d="M400 400h100v100H400z"/><path fill="#fcfcfb" d="M500 400h100v100H500z"/><path fill="#fcfaf8" d="M600 400h100v100H600z"/><path fill="#f6f6f6" d="M700 400h100v100H700z"/></svg>