<svg xmlns="http://www.w3.org/2000/svg" viewBox="0 0 800 600"><defs/><path fill="#e5e6eb" d="M0 0h100v100H0z"/><path fill="#d9dae1" d="M100 0h100v100H100z"/><path fill="#d1d2d8" d="M200 0h100v100H200z"/><path fill="#cabfc2" d="M300 0h100v100H300z"/><path fill="#c5b3b4" d="M400 0h100v100H400z"/><path fill="#b09d9d" d="M500 0h100v100H500z"/><path fill="#ada3a0" d="M600 0h100v100H600z"/><path fill="#a9a6a1" d="M700 0h100v100H700z"/><path fill="#e5e5ed" d="M0 100h100v100H0z"/><path fill="#d1d6d5" d="M100 100h100v100H100z"/><path fill="#cbaeb2" d="M200 100h100v100H200z"/><path fill="#c1272c" d="M300 100h100v100H300z"/><path fill="#bb2221" d="M400 100h100v100H400z"/><path fill="#a50c05" d="M500 100h100v100H500z"/><path fill="#a8635f" d="M600 100h100v100H600z"/><path fill="#b3b8b6" d="M700 100h100v100H700z"/><path fill="#dedcdc" d="M0 200h100v100H0z"/><path fill="#bfbea5" d="M100 200h100v100H100z"/><path fill="#c07782" d="M200 200h100v100H200z"/><path fill="#a12422" d="M300 200h100v100H300z"/><path fill="#a6262e" d="M400 200h100v100H400z"/><path fill="#453d57" d="M500 200h100v100H500z"/><path fill="#777f8a" d="M600 200h100v100H600z"/><path fill="#b9b7b3" d="M700 200h100v100H700z"/><path fill="#e5e4e3" d="M0 300h100v100H0z"/><path fill="#d2d4dd" d="M100 300h100v100H100z"/><path fill="#c28a7a" d="M200 300h100v100H200z"/><path fill="#9b5a2f" d="M300 300h100v100H300z"/><path fill="#ab623a" d="M400 300h100v100H400z"/><path fill="#634e80" d="M500 300h100v100H500z"/><path fill="#857b95" d="M600 300h100v100H600z"/><path fill="#b4b3af" d="M700 300h100v100H700z"/><path fill="#d9dbec" d="M0 400h100v100H0z"/><path fill="#d2cfbc" d="M100 400h100v100H100z"/><path fill="#b59f5f" d="M200 400h100v100H200z"/><path fill="#835986" d="M300 400h100v100H300z"/><path fill="#ba9641" d="M400 400h100v100H400z"/><path fill="#9e531d" d="M500 400h100v100H500z"/><path fill="#9d6229" d="M600 400h100v100H600z"/><path fill="#adab98" d="M700 400h100v100H700z"/><path fill="#c3c0bc" d="M0 500h100v100H0z"/><path fill="#d9c571" d="M100 500h100v100H100z"/><path fill="#a89f5c" d="M200 500h100v100H200z"/><path fill="#5e7399" d="M300 500h100v100H300z"/><path fill="#ad9e4b" d="M400 500h100v100H400z"/><path fill="#bd9d20" d="M500 500h100v100H500z"/><path fill="#a78617" d="M600 500h100v100H600z"/><path fill="#9b8b62" d="M700 500h100v100H700z"/></svg>