<svg xmlns="http://www.w3.org/2000/svg" viewBox="0 0 800 500"><defs/><path fill="#f4f3f4" d="M0 0h100v100H0z"/><path fill="#cdccce" d="M100 0h100v100H100z"/><path fill="#d8d6d8" d="M200 0h100v100H200z"/><path fill="#e6e3e4" d="M300 0h100v100H300z"/><path fill="#e0dddf" d="M400 0h100v100H400z"/><path fill="#e5e2e4" d="M500 0h100v100H500z"/><path fill="#e6e2e3" d="M600 0h100v100H600z"/><path fill="#fdfcfb" d="M700 0h100v100H700z"/><path fill="#d0ced1" d="M0 100h100v100H0z"/><path fill="#37323f" d="M100 100h100v100H100z"/><path fill="#676069" d="M200 100h100v100H200z"/><path fill="#b5a9a5" d="M300 100h100v100H300z"/><path fill="#766f75" d="M400 100h100v100H400z"/><path fill="#a79b9a" d="M500 100h100v100H500z"/><path fill="#978686" d="M600 100h100v100H600z"/><path fill="#f8f2ee" d="M700 100h100v100H700z"/><path fill="#c8c7ca" d="M0 200h100v100H0z"/><path fill="#373441" d="M100 200h100v100H100z"/><path fill="#675857" d="M200 200h100v100H200z"/><path fill="#7c6c64" d="M300 200h100v100H300z"/><path fill="#84746d" d="M400 200h100v100H400z"/><path fill="#8d7b71" d="M500 200h100v100H500z"/><path fill="#7b675d" d="M600 200h100v100H600z"/><path fill="#e9e5e2" d="M700 200h100v100H700z"/><path fill="#c2c2c4" d="M0 300h100v100H0z"/><path fill="#51494f" d="M100 300h100v100H100z"/><path fill="#8f7a6b" d="M200 300h100v100H200z"/><path fill="#927d72" d="M300 300h100v100H300z"/><path fill="#7b6762" d="M400 300h100v100H400z"/><path fill="#99857a" d="M500 300h100v100H500z"/><path fill="#816c61" d="M600 300h100v100H600z"/><path fill="#d4d2d3" d="M700 300h100v100H700z"/><path fill="#f0f0f0" d="M0 400h100v100H0z"/><path fill="#dfdbd9" d="M100 400h100v100H100z"/><path fill="#eee8e4" d="M200 400h100v100H200z"/><path fill="#cdc8c6" d="M300 400h100v100H300z"/><path fill="#aeadb0" d="M400 400h100v100H400z"/><path fill="#e6e3e0" d="M500 400h100v100H500z"/><path fill="#cac7c7" d="M600 400h100v100H600z"/><path fill="#e4e4e6" d="M700 400h100v100H700z"/></svg>