<svg xmlns="http://www.w3.org/2000/svg" viewBox="0 0 800 1200"><defs/><path fill="#e2c2bb" d="M0 0h100v100H0z"/><path fill="#fdd6cf" d="M100 0h100v100H100z"/><path fill="#f8d6cd" d="M200 0h100v100H200z"/><path fill="#f2c9bc" d="M300 0h100v100H300z"/><path fill="#f2cbbe" d="M400 0h100v100H400z"/><path fill="#f8f4f4" d="M500 0h100v100H500z"/><path fill="#eaeaeb" d="M600 0h100v100H600z"/><path fill="#f0f0f0" d="M700 0h100v100H700z"/><path fill="#f3a795" d="M0 100h100v100H0z"/><path fill="#ee8e75" d="M100 100h100v100H100z"/><path fill="#f4bdad" d="M200 100h100v100H200z"/><path fill="#e3f1f3" d="M300 100h100v100H300z"/><path fill="#e1e8e8" d="M400 100h100v100H400z"/><path fill="#e0e5e1" d="M500 100h100v100H500z"/><path fill="#e1e4e1" d="M600 100h100v100H600z"/><path fill="#f7f7f7" d="M700 100h100v100H700z"/><path fill="#fff" d="M0 200h100v100H0z"/><path fill="#f4fffb" d="M100 200h100v100H100z"/><path fill="#f4fdf9" d="M200 200h100v100H200z"/><path fill="#f6fbf4" d="M300 200h100v100H300z"/><path fill="#f5fbf4" d="M400 200h100v100H400z"/><path fill="#f2fdf4" d="M500 200h100v100H500z"/><path fill="#f5fdf7" d="M600 200h100v100H600z"/><path fill="#fff" d="M700 200h100v100H700z"/><path fill="#fffefe" d="M0 300h100v100H0z"/><path fill="#f6fcf7" d="M100 300h100v100H100z"/><path fill="#fbfefc" d="M200 300h100v100H200z"/><path fill="#fcfefc" d="M300 300h100v100H300z"/><path fill="#f6fdf7" d="M400 300h100v100H400z"/><path fill="#fdfffd" d="M500 300h100v100H500z"/><path fill="#f8fefa" d="M600 300h100v100H600z"/><path fill="#fff" d="M700 300h100v100H700zM0 400h100v100H0z"/><path fill="#f8fdf9" d="M100 400h100v100H100z"/><path fill="#fefffe" d="M200 400h100v100H200z"/><path fill="#fff" d="M300 400h100v100H300z"/><path fill="#f8fdfa" d="M400 400h100v100H400z"/><path fill="#fdfffd" d="M500 400h100v100H500z"/><path fill="#f7fef9" d="M600 400h100v100H600z"/><path fill="#fff" d="M700 400h100v100H700zM0 500h100v100H0z"/><path fill="#f7fdf8" d="M100 500h100v100H100z"/><path fill="#fefffe" d="M200 500h100v100H200z"/><path fill="#fff" d="M300 500h100v100H300z"/><path fill="#f8fdfa" d="M400 500h100v100H400z"/><path fill="#fdfffd" d="M500 500h100v100H500z"/><path fill="#f8fefa" d="M600 500h100v100H600z"/><path fill="#fff" d="M700 500h100v100H700zM0 600h100v100H0z"/><path fill="#f8fdf8" d="M100 600h100v100H100z"/><path fill="#feffff" d="M200 600h100v100H200z"/><path fill="#fff" d="M300 600h100v100H300z"/><path fill="#f9fdfa" d="M400 600h100v100H400z"/><path fill="#fdfffd" d="M500 600h100v100H500z"/><path fill="#f8fef9" d="M600 600h100v100H600z"/><path fill="#fff" d="M700 600h100v100H700zM0 700h100v100H0z"/><path fill="#f9fefa" d="M100 700h100v100H100z"/><path fill="#fefffe" d="M200 700h100v100H200zm100 0h100v100H300z"/><path fill="#f8fefa" d="M400 700h100v100H400z"/><path fill="#fdfffd" d="M500 700h100v100H500z"/><path fill="#f8fef9" d="M600 700h100v100H600z"/><path fill="#fff" d="M700 700h100v100H700zM0 800h100v100H0z"/><path fill="#f7fdf9" d="M100 800h100v100H100z"/><path fill="#fefffe" d="M200 800h100v100H200z"/><path fill="#fff" d="M300 800h100v100H300z"/><path fill="#fafefc" d="M400 800h100v100H400z"/><path fill="#fdfffe" d="M500 800h100v100H500z"/><path fill="#f8fef9" d="M600 800h100v100H600z"/><path fill="#fff" d="M700 800h100v100H700zM0 900h100v100H0z"/><path fill="#e0f9e5" d="M100 900h100v100H100z"/><path fill="#d7f7de" d="M200 900h100v100H200z"/><path fill="#e5f9e9" d="M300 900h100v100H300z"/><path fill="#e1f7e5" d="M400 900h100v100H400z"/><path fill="#effbf0" d="M500 900h100v100H500z"/><path fill="#f9fef9" d="M600 900h100v100H600z"/><path fill="#fff" d="M700 900h100v100H700zM0 1000h100v100H0z"/><path fill="#f0fbf0" d="M100 1000h100v100H100z"/><path fill="#e4fdec" d="M200 1000h100v100H200z"/><path fill="#defbe6" d="M300 1000h100v100H300z"/><path fill="#d7f8de" d="M400 1000h100v100H400z"/><path fill="#d3fade" d="M500 1000h100v100H500z"/><path fill="#f5fdf6" d="M600 1000h100v100H600z"/><path fill="#fffeff" d="M700 1000h100v100H700z"/><path fill="#fdf4f2" d="M0 1100h100v100H0z"/><path fill="#eedfd8" d="M100 1100h100v100H100z"/><path fill="#ebcfc6" d="M200 1100h100v100H200z"/><path fill="#e7dbd5" d="M300 1100h100v100H300z"/><path fill="#dfe2dd" d="M400 1100h100v100H400z"/><path fill="#dddace" d="M500 1100h100v100H500z"/><path fill="#f0e3da" d="M600 1100h100v100H600z"/><path fill="#fffbfb" d="M700 1100h100v100H700z"/></svg>