<svg xmlns="http://www.w3.org/2000/svg" viewBox="0 0 800 500"><defs/><path fill="#d5e1f6" d="M0 0h100v100H0z"/><path fill="#a5bbe4" d="M100 0h100v100H100z"/><path fill="#98b0e2" d="M200 0h100v100H200z"/><path fill="#bdc8df" d="M300 0h100v100H300z"/><path fill="#b8c5de" d="M400 0h100v100H400z"/><path fill="#8fa8dd" d="M500 0h100v100H500z"/><path fill="#91aada" d="M600 0h100v100H600z"/><path fill="#baccec" d="M700 0h100v100H700z"/><path fill="#bfcfec" d="M0 100h100v100H0z"/><path fill="#7692cd" d="M100 100h100v100H100z"/><path fill="#6b87c7" d="M200 100h100v100H200z"/><path fill="#e1e1dd" d="M300 100h100v100H300z"/><path fill="#d9d8d0" d="M400 100h100v100H400z"/><path fill="#466bbb" d="M500 100h100v100H500z"/><path fill="#4d71bd" d="M600 100h100v100H600z"/><path fill="#a6bae1" d="M700 100h100v100H700z"/><path fill="#a5bbe5" d="M0 200h100v100H0z"/><path fill="#718ec9" d="M100 200h100v100H100z"/><path fill="#6283c4" d="M200 200h100v100H200z"/><path fill="#ebe5d0" d="M300 200h100v100H300z"/><path fill="#e8e3d0" d="M400 200h100v100H400z"/><path fill="#7d99d4" d="M500 200h100v100H500z"/><path fill="#6283c8" d="M600 200h100v100H600z"/><path fill="#8da8dc" d="M700 200h100v100H700z"/><path fill="#95aedc" d="M0 300h100v100H0z"/><path fill="#5678c0" d="M100 300h100v100H100z"/><path fill="#7994cc" d="M200 300h100v100H200z"/><path fill="#e4dfcc" d="M300 300h100v100H300z"/><path fill="#e1ddcb" d="M400 300h100v100H400z"/><path fill="#96abd6" d="M500 300h100v100H500z"/><path fill="#5275bf" d="M600 300h100v100H600z"/><path fill="#718fcd" d="M700 300h100v100H700z"/><path fill="#9bb2e0" d="M0 400h100v100H0z"/><path fill="#7f9bd3" d="M100 400h100v100H100z"/><path fill="#b8c7e0" d="M200 400h100v100H200z"/><path fill="#a3b6de" d="M300 400h100v100H300z"/><path fill="#bec8da" d="M400 400h100v100H400z"/><path fill="#c2cad5" d="M500 400h100v100H500z"/><path fill="#809bcf" d="M600 400h100v100H600z"/><path fill="#90a9dc" d="M700 400h100v100H700z"/></svg>