<svg xmlns="http://www.w3.org/2000/svg" viewBox="0 0 800 600"><defs/><path fill="#e3e5e4" d="M0 0h100v100H0z"/><path fill="#dcdfe1" d="M100 0h100v100H100z"/><path fill="#e0e4e0" d="M200 0h100v100H200z"/><path fill="#e5e8e1" d="M300 0h100v100H300z"/><path fill="#e6e9e4" d="M400 0h100v100H400z"/><path fill="#e2e6e3" d="M500 0h100v100H500z"/><path fill="#dce0e3" d="M600 0h100v100H600z"/><path fill="#dde0e3" d="M700 0h100v100H700z"/><path fill="#9ea567" d="M0 100h100v100H0z"/><path fill="#6f5e33" d="M100 100h100v100H100z"/><path fill="#6a635b" d="M200 100h100v100H200z"/><path fill="#666057" d="M300 100h100v100H300z"/><path fill="#5e5346" d="M400 100h100v100H400z"/><path fill="#6b694f" d="M500 100h100v100H500z"/><path fill="#787046" d="M600 100h100v100H600z"/><path fill="#98a043" d="M700 100h100v100H700z"/><path fill="#979a50" d="M0 200h100v100H0z"/><path fill="#5f4810" d="M100 200h100v100H100z"/><path fill="#5c5d53" d="M200 200h100v100H200z"/><path fill="#484f58" d="M300 200h100v100H300z"/><path fill="#444247" d="M400 200h100v100H400z"/><path fill="#7b6c48" d="M500 200h100v100H500z"/><path fill="#7a7d30" d="M600 200h100v100H600z"/><path fill="#929b29" d="M700 200h100v100H700z"/><path fill="#9d9755" d="M0 300h100v100H0z"/><path fill="#59441a" d="M100 300h100v100H100z"/><path fill="#7f7231" d="M200 300h100v100H200z"/><path fill="#966a30" d="M300 300h100v100H300z"/><path fill="#776e37" d="M400 300h100v100H400z"/><path fill="#8d8264" d="M500 300h100v100H500z"/><path fill="#996672" d="M600 300h100v100H600z"/><path fill="#514f27" d="M700 300h100v100H700z"/><path fill="#7e764f" d="M0 400h100v100H0z"/><path fill="#35310a" d="M100 400h100v100H100z"/><path fill="#60400c" d="M200 400h100v100H200z"/><path fill="#7a6434" d="M300 400h100v100H300z"/><path fill="#604708" d="M400 400h100v100H400z"/><path fill="#4a504b" d="M500 400h100v100H500z"/><path fill="#5a2582" d="M600 400h100v100H600z"/><path fill="#2e2630" d="M700 400h100v100H700z"/><path fill="#bfc5c3" d="M0 500h100v100H0z"/><path fill="#aebdb2" d="M100 500h100v100H100z"/><path fill="#aabdb5" d="M200 500h100v100H200z"/><path fill="#a4b9b4" d="M300 500h100v100H300z"/><path fill="#abbeb4" d="M400 500h100v100H400z"/><path fill="#acb8b0" d="M500 500h100v100H500z"/><path fill="#aaa5b8" d="M600 500h100v100H600z"/><path fill="#aeb1b6" d="M700 500h100v100H700z"/></svg>