<svg xmlns="http://www.w3.org/2000/svg" viewBox="0 0 800 400"><defs/><path fill="#8a8f77" d="M0 0h100v100H0z"/><path fill="#7d7f6e" d="M100 0h100v100H100z"/><path fill="#98b6b3" d="M200 0h100v100H200z"/><path fill="#9db8b6" d="M300 0h100v100H300z"/><path fill="#a4b6ad" d="M400 0h100v100H400z"/><path fill="#87a79d" d="M500 0h100v100H500z"/><path fill="#769891" d="M600 0h100v100H600z"/><path fill="#9d9a75" d="M700 0h100v100H700z"/><path fill="#878565" d="M0 100h100v100H0z"/><path fill="#7b7c6a" d="M100 100h100v100H100z"/><path fill="#88b2b2" d="M200 100h100v100H200z"/><path fill="#96afa9" d="M300 100h100v100H300z"/><path fill="#9aa9a8" d="M400 100h100v100H400z"/><path fill="#89a198" d="M500 100h100v100H500z"/><path fill="#799890" d="M600 100h100v100H600z"/><path fill="#959973" d="M700 100h100v100H700z"/><path fill="#8d866e" d="M0 200h100v100H0z"/><path fill="#767865" d="M100 200h100v100H100z"/><path fill="#84a099" d="M200 200h100v100H200z"/><path fill="#8ca397" d="M300 200h100v100H300z"/><path fill="#9aa7a5" d="M400 200h100v100H400z"/><path fill="#97a69e" d="M500 200h100v100H500z"/><path fill="#8f9c8e" d="M600 200h100v100H600z"/><path fill="#a8a47a" d="M700 200h100v100H700z"/><path fill="#848a71" d="M0 300h100v100H0z"/><path fill="#7b8a77" d="M100 300h100v100H100z"/><path fill="#829f92" d="M200 300h100v100H200z"/><path fill="#91a291" d="M300 300h100v100H300z"/><path fill="#9cb5a1" d="M400 300h100v100H400z"/><path fill="#a0bba8" d="M500 300h100v100H500z"/><path fill="#a2a999" d="M600 300h100v100H600z"/><path fill="#838471" d="M700 300h100v100H700z"/></svg>