<svg xmlns="http://www.w3.org/2000/svg" viewBox="0 0 800 400"><defs/><path fill="#b1f8f7" d="M0 0h100v100H0z"/><path fill="#93a2bf" d="M100 0h100v100H100z"/><path fill="#4d80c6" d="M200 0h100v100H200z"/><path fill="#3291b1" d="M300 0h100v100H300z"/><path fill="#0f92bd" d="M400 0h100v100H400z"/><path fill="#3a99b1" d="M500 0h100v100H500z"/><path fill="#a7e4e6" d="M600 0h100v100H600z"/><path fill="#a0c0ae" d="M700 0h100v100H700z"/><path fill="#b3d2d8" d="M0 100h100v100H0z"/><path fill="#6880ab" d="M100 100h100v100H100z"/><path fill="#417d8b" d="M200 100h100v100H200z"/><path fill="#707f5e" d="M300 100h100v100H300z"/><path fill="#5a7f73" d="M400 100h100v100H400z"/><path fill="#5d7b70" d="M500 100h100v100H500z"/><path fill="#84d8db" d="M600 100h100v100H600z"/><path fill="#89aba3" d="M700 100h100v100H700z"/><path fill="#82bcbd" d="M0 200h100v100H0z"/><path fill="#767184" d="M100 200h100v100H100z"/><path fill="#a7833a" d="M200 200h100v100H200z"/><path fill="#a08a2f" d="M300 200h100v100H300z"/><path fill="#7f8540" d="M400 200h100v100H400z"/><path fill="#6a787a" d="M500 200h100v100H500z"/><path fill="#6ba293" d="M600 200h100v100H600z"/><path fill="#799773" d="M700 200h100v100H700z"/><path fill="#47a699" d="M0 300h100v100H0z"/><path fill="#a77c47" d="M100 300h100v100H100z"/><path fill="#8fae0e" d="M200 300h100v100H200z"/><path fill="#479a44" d="M300 300h100v100H300z"/><path fill="#4f9440" d="M400 300h100v100H400z"/><path fill="#6f9526" d="M500 300h100v100H500z"/><path fill="#798225" d="M600 300h100v100H600z"/><path fill="#887134" d="M700 300h100v100H700z"/></svg>