<svg xmlns="http://www.w3.org/2000/svg" viewBox="0 0 800 500"><defs/><path fill="#84c4c4" d="M0 0h100v100H0z"/><path fill="#9a8a74" d="M100 0h100v100H100z"/><path fill="#e9d9c9" d="M200 0h100v100H200z"/><path fill="#f4f1e6" d="M300 0h100v100H300z"/><path fill="#eae2d6" d="M400 0h100v100H400z"/><path fill="#d2dfd7" d="M500 0h100v100H500z"/><path fill="#cddfdf" d="M600 0h100v100H600z"/><path fill="#83c5c5" d="M700 0h100v100H700z"/><path fill="#4899a0" d="M0 100h100v100H0z"/><path fill="#6f4320" d="M100 100h100v100H100z"/><path fill="#faedd3" d="M200 100h100v100H200z"/><path fill="#e6e4d2" d="M300 100h100v100H300z"/><path fill="#978770" d="M400 100h100v100H400z"/><path fill="#80a3a6" d="M500 100h100v100H500z"/><path fill="#749cab" d="M600 100h100v100H600z"/><path fill="#35abae" d="M700 100h100v100H700z"/><path fill="#55908a" d="M0 200h100v100H0z"/><path fill="#93633d" d="M100 200h100v100H100z"/><path fill="#acaea7" d="M200 200h100v100H200z"/><path fill="#a2a097" d="M300 200h100v100H300z"/><path fill="#9a9482" d="M400 200h100v100H400z"/><path fill="#c5a195" d="M500 200h100v100H500z"/><path fill="#c59583" d="M600 200h100v100H600z"/><path fill="#3daeb0" d="M700 200h100v100H700z"/><path fill="#627968" d="M0 300h100v100H0z"/><path fill="#8c4213" d="M100 300h100v100H100z"/><path fill="#825d47" d="M200 300h100v100H200z"/><path fill="#7e6446" d="M300 300h100v100H300z"/><path fill="#9c835c" d="M400 300h100v100H400z"/><path fill="#be6933" d="M500 300h100v100H500z"/><path fill="#b87751" d="M600 300h100v100H600z"/><path fill="#62938d" d="M700 300h100v100H700z"/><path fill="#9d8a72" d="M0 400h100v100H0z"/><path fill="#b16232" d="M100 400h100v100H100z"/><path fill="#d2804b" d="M200 400h100v100H200z"/><path fill="#b57748" d="M300 400h100v100H300z"/><path fill="#a7774a" d="M400 400h100v100H400z"/><path fill="#bd6e3b" d="M500 400h100v100H500z"/><path fill="#bc7246" d="M600 400h100v100H600z"/><path fill="#af886c" d="M700 400h100v100H700z"/></svg>