<svg xmlns="http://www.w3.org/2000/svg" viewBox="0 0 800 600"><defs/><path fill="#c2c3d3" d="M0 0h100v100H0z"/><path fill="#8f91a0" d="M100 0h100v100H100z"/><path fill="#9295a3" d="M200 0h100v100H200z"/><path fill="#afb0bd" d="M300 0h100v100H300z"/><path fill="#acaebb" d="M400 0h100v100H400z"/><path fill="#afb1bc" d="M500 0h100v100H500z"/><path fill="#aeafb8" d="M600 0h100v100H600z"/><path fill="#aaacb7" d="M700 0h100v100H700z"/><path fill="#a1a5b2" d="M0 100h100v100H0z"/><path fill="#7b7f90" d="M100 100h100v100H100z"/><path fill="#a5a7b6" d="M200 100h100v100H200z"/><path fill="#acabb9" d="M300 100h100v100H300z"/><path fill="#b2b4c4" d="M400 100h100v100H400z"/><path fill="#bbbecd" d="M500 100h100v100H500z"/><path fill="#a7adb3" d="M600 100h100v100H600z"/><path fill="#9ba2ae" d="M700 100h100v100H700z"/><path fill="#817b80" d="M0 200h100v100H0z"/><path fill="#7b7e8c" d="M100 200h100v100H100z"/><path fill="#a8abb6" d="M200 200h100v100H200z"/><path fill="#7d8081" d="M300 200h100v100H300z"/><path fill="#959aa5" d="M400 200h100v100H400z"/><path fill="#93979c" d="M500 200h100v100H500z"/><path fill="#898a8f" d="M600 200h100v100H600z"/><path fill="#7f8c9c" d="M700 200h100v100H700z"/><path fill="#69676e" d="M0 300h100v100H0z"/><path fill="#6c6c76" d="M100 300h100v100H100z"/><path fill="#a7a5af" d="M200 300h100v100H200z"/><path fill="#989ca7" d="M300 300h100v100H300z"/><path fill="#a2a8b5" d="M400 300h100v100H400z"/><path fill="#a9a9b1" d="M500 300h100v100H500z"/><path fill="#7e7b7b" d="M600 300h100v100H600z"/><path fill="#657f8b" d="M700 300h100v100H700z"/><path fill="#746969" d="M0 400h100v100H0z"/><path fill="#88756a" d="M100 400h100v100H100z"/><path fill="#99918c" d="M200 400h100v100H200z"/><path fill="#807879" d="M300 400h100v100H300z"/><path fill="#8a837e" d="M400 400h100v100H400z"/><path fill="#a6a1a3" d="M500 400h100v100H500z"/><path fill="#bdb9be" d="M600 400h100v100H600z"/><path fill="#a7a5a6" d="M700 400h100v100H700z"/><path fill="#918683" d="M0 500h100v100H0z"/><path fill="#a1918a" d="M100 500h100v100H100z"/><path fill="#8c8384" d="M200 500h100v100H200z"/><path fill="#7b6861" d="M300 500h100v100H300z"/><path fill="#8a756e" d="M400 500h100v100H400z"/><path fill="#ab9e9b" d="M500 500h100v100H500z"/><path fill="#b5b5be" d="M600 500h100v100H600z"/><path fill="#9898a1" d="M700 500h100v100H700z"/></svg>