<svg xmlns="http://www.w3.org/2000/svg" viewBox="0 0 800 500"><defs/><path fill="#7f817a" d="M0 0h100v100H0z"/><path fill="#9a9c96" d="M100 0h100v100H100z"/><path fill="#a48a89" d="M200 0h100v100H200z"/><path fill="#a9a195" d="M300 0h100v100H300z"/><path fill="#7e666e" d="M400 0h100v100H400z"/><path fill="#74535d" d="M500 0h100v100H500z"/><path fill="#83797f" d="M600 0h100v100H600z"/><path fill="#515956" d="M700 0h100v100H700z"/><path fill="#7b8b74" d="M0 100h100v100H0z"/><path fill="#adadae" d="M100 100h100v100H100z"/><path fill="#b2a987" d="M200 100h100v100H200z"/><path fill="#d7cea6" d="M300 100h100v100H300z"/><path fill="#986e90" d="M400 100h100v100H400z"/><path fill="#9c6788" d="M500 100h100v100H500z"/><path fill="#9a97aa" d="M600 100h100v100H600z"/><path fill="#597d6d" d="M700 100h100v100H700z"/><path fill="#758a6a" d="M0 200h100v100H0z"/><path fill="#a29fa6" d="M100 200h100v100H100z"/><path fill="#a18897" d="M200 200h100v100H200z"/><path fill="#a78e97" d="M300 200h100v100H300z"/><path fill="#8b6988" d="M400 200h100v100H400z"/><path fill="#916a86" d="M500 200h100v100H500z"/><path fill="#817f98" d="M600 200h100v100H600z"/><path fill="#546e5a" d="M700 200h100v100H700z"/><path fill="#9a9e9e" d="M0 300h100v100H0z"/><path fill="#6f7174" d="M100 300h100v100H100z"/><path fill="#4d3d4d" d="M200 300h100v100H200z"/><path fill="#5b4955" d="M300 300h100v100H300z"/><path fill="#51424c" d="M400 300h100v100H400z"/><path fill="#453b45" d="M500 300h100v100H500z"/><path fill="#4a3f46" d="M600 300h100v100H600z"/><path fill="#534d4a" d="M700 300h100v100H700z"/><path fill="#646a63" d="M0 400h100v100H0z"/><path fill="#4f504a" d="M100 400h100v100H100z"/><path fill="#494748" d="M200 400h100v100H200z"/><path fill="#444639" d="M300 400h100v100H300z"/><path fill="#434539" d="M400 400h100v100H400z"/><path fill="#3d413a" d="M500 400h100v100H500z"/><path fill="#48483e" d="M600 400h100v100H600z"/><path fill="#525347" d="M700 400h100v100H700z"/></svg>