<svg xmlns="http://www.w3.org/2000/svg" viewBox="0 0 800 500"><defs/><path fill="#eff0f2" d="M0 0h100v100H0z"/><path fill="#ebe6e5" d="M100 0h100v100H100z"/><path fill="#f4f4f5" d="M200 0h100v100H200z"/><path fill="#f8f4f8" d="M300 0h100v100H300z"/><path fill="#f4f4f4" d="M400 0h100v100H400z"/><path fill="#fafafa" d="M500 0h100v100H500z"/><path fill="#f8f6f5" d="M600 0h100v100H600z"/><path fill="#faf8f7" d="M700 0h100v100H700z"/><path fill="#b1a6a3" d="M0 100h100v100H0z"/><path fill="#916956" d="M100 100h100v100H100z"/><path fill="#bfbcb1" d="M200 100h100v100H200z"/><path fill="#bcc6b2" d="M300 100h100v100H300z"/><path fill="#cfcad3" d="M400 100h100v100H400z"/><path fill="#d4d1cf" d="M500 100h100v100H500z"/><path fill="#afb4b3" d="M600 100h100v100H600z"/><path fill="#c8beb6" d="M700 100h100v100H700z"/><path fill="#b19c94" d="M0 200h100v100H0z"/><path fill="#96776a" d="M100 200h100v100H100z"/><path fill="#e4e6e0" d="M200 200h100v100H200z"/><path fill="#a6a27c" d="M300 200h100v100H300z"/><path fill="#c4cccb" d="M400 200h100v100H400z"/><path fill="#d0c7cb" d="M500 200h100v100H500z"/><path fill="#938f88" d="M600 200h100v100H600z"/><path fill="#b1a99e" d="M700 200h100v100H700z"/><path fill="#9f7a70" d="M0 300h100v100H0z"/><path fill="#a07360" d="M100 300h100v100H100z"/><path fill="#c2a593" d="M200 300h100v100H200z"/><path fill="#a79b96" d="M300 300h100v100H300z"/><path fill="#c7b296" d="M400 300h100v100H400z"/><path fill="#b6a47e" d="M500 300h100v100H500z"/><path fill="#a08875" d="M600 300h100v100H600z"/><path fill="#b09c8a" d="M700 300h100v100H700z"/><path fill="#bea097" d="M0 400h100v100H0z"/><path fill="#d8b6a6" d="M100 400h100v100H100z"/><path fill="#ddbeab" d="M200 400h100v100H200z"/><path fill="#d3b9a9" d="M300 400h100v100H300z"/><path fill="#b1998c" d="M400 400h100v100H400z"/><path fill="#a49d8b" d="M500 400h100v100H500z"/><path fill="#c3b29d" d="M600 400h100v100H600z"/><path fill="#dccac2" d="M700 400h100v100H700z"/></svg>