<svg xmlns="http://www.w3.org/2000/svg" viewBox="0 0 800 500"><defs/><path fill="#e8dfc9" d="M0 0h100v100H0z"/><path fill="#d3bc98" d="M100 0h100v100H100z"/><path fill="#bd9b75" d="M200 0h100v100H200z"/><path fill="#dbcdbc" d="M300 0h100v100H300z"/><path fill="#d7c8b2" d="M400 0h100v100H400z"/><path fill="#e8d7c4" d="M500 0h100v100H500z"/><path fill="#e2d1be" d="M600 0h100v100H600z"/><path fill="#d2c4af" d="M700 0h100v100H700z"/><path fill="#cbb988" d="M0 100h100v100H0z"/><path fill="#b89054" d="M100 100h100v100H100z"/><path fill="#ae8e65" d="M200 100h100v100H200z"/><path fill="#b0925f" d="M300 100h100v100H300z"/><path fill="#a47a31" d="M400 100h100v100H400z"/><path fill="#caa683" d="M500 100h100v100H500z"/><path fill="#9f9266" d="M600 100h100v100H600z"/><path fill="#998a63" d="M700 100h100v100H700z"/><path fill="#cec2a1" d="M0 200h100v100H0z"/><path fill="#b79056" d="M100 200h100v100H100z"/><path fill="#cdb391" d="M200 200h100v100H200z"/><path fill="#b68f4c" d="M300 200h100v100H300z"/><path fill="#bf8e32" d="M400 200h100v100H400z"/><path fill="#aa874d" d="M500 200h100v100H500z"/><path fill="#978961" d="M600 200h100v100H600z"/><path fill="#ae9c79" d="M700 200h100v100H700z"/><path fill="#c0a382" d="M0 300h100v100H0z"/><path fill="#a57745" d="M100 300h100v100H100z"/><path fill="#907f5e" d="M200 300h100v100H200z"/><path fill="#827859" d="M300 300h100v100H300z"/><path fill="#9f7634" d="M400 300h100v100H400z"/><path fill="#9a7a41" d="M500 300h100v100H500z"/><path fill="#8b744f" d="M600 300h100v100H600z"/><path fill="#aa8e60" d="M700 300h100v100H700z"/><path fill="#cebea4" d="M0 400h100v100H0z"/><path fill="#b9a17e" d="M100 400h100v100H100z"/><path fill="#b7a98c" d="M200 400h100v100H200z"/><path fill="#b2a78e" d="M300 400h100v100H300z"/><path fill="#c5b8a3" d="M400 400h100v100H400z"/><path fill="#b3ab99" d="M500 400h100v100H500z"/><path fill="#a19c84" d="M600 400h100v100H600z"/><path fill="#c3af81" d="M700 400h100v100H700z"/></svg>