<svg xmlns="http://www.w3.org/2000/svg" viewBox="0 0 800 500"><defs/><path fill="#b79cec" d="M0 0h100v100H0z"/><path fill="#ba9dcf" d="M100 0h100v100H100z"/><path fill="#b18ce0" d="M200 0h100v100H200z"/><path fill="#8392e7" d="M300 0h100v100H300z"/><path fill="#9b95c8" d="M400 0h100v100H400z"/><path fill="#8e93e1" d="M500 0h100v100H500z"/><path fill="#8c8beb" d="M600 0h100v100H600z"/><path fill="#a5b3da" d="M700 0h100v100H700z"/><path fill="#4a43e9" d="M0 100h100v100H0z"/><path fill="#6b4799" d="M100 100h100v100H100z"/><path fill="#592bb8" d="M200 100h100v100H200z"/><path fill="#2b19d5" d="M300 100h100v100H300z"/><path fill="#2923af" d="M400 100h100v100H400z"/><path fill="#453f76" d="M500 100h100v100H500z"/><path fill="#4a3e6f" d="M600 100h100v100H600z"/><path fill="#837776" d="M700 100h100v100H700z"/><path fill="#646ad9" d="M0 200h100v100H0z"/><path fill="#6f5a9e" d="M100 200h100v100H100z"/><path fill="#414ca6" d="M200 200h100v100H200z"/><path fill="#615ec3" d="M300 200h100v100H300z"/><path fill="#7b71b3" d="M400 200h100v100H400z"/><path fill="#67664e" d="M500 200h100v100H500z"/><path fill="#50373f" d="M600 200h100v100H600z"/><path fill="#9a7162" d="M700 200h100v100H700z"/><path fill="#6c62cd" d="M0 300h100v100H0z"/><path fill="#3d4f64" d="M100 300h100v100H100z"/><path fill="#10378b" d="M200 300h100v100H200z"/><path fill="#7d6a8d" d="M300 300h100v100H300z"/><path fill="#b2a0ae" d="M400 300h100v100H400z"/><path fill="#b095a7" d="M500 300h100v100H500z"/><path fill="#784885" d="M600 300h100v100H600z"/><path fill="#474067" d="M700 300h100v100H700z"/><path fill="#8b87c0" d="M0 400h100v100H0z"/><path fill="#677396" d="M100 400h100v100H100z"/><path fill="#7b82c4" d="M200 400h100v100H200z"/><path fill="#ac798b" d="M300 400h100v100H300z"/><path fill="#a873b0" d="M400 400h100v100H400z"/><path fill="#c2abd3" d="M500 400h100v100H500z"/><path fill="#be85cd" d="M600 400h100v100H600z"/><path fill="#756290" d="M700 400h100v100H700z"/></svg>