<svg xmlns="http://www.w3.org/2000/svg" viewBox="0 0 800 600"><defs/><path fill="#82868f" d="M0 0h100v100H0z"/><path fill="#80848a" d="M100 0h100v100H100z"/><path fill="#6d7976" d="M200 0h100v100H200z"/><path fill="#7a827a" d="M300 0h100v100H300z"/><path fill="#8c8c8a" d="M400 0h100v100H400z"/><path fill="#7d8480" d="M500 0h100v100H500z"/><path fill="#7d857e" d="M600 0h100v100H600z"/><path fill="#7d7e86" d="M700 0h100v100H700z"/><path fill="#808695" d="M0 100h100v100H0z"/><path fill="#8c8494" d="M100 100h100v100H100z"/><path fill="#9094a8" d="M200 100h100v100H200z"/><path fill="#949faf" d="M300 100h100v100H300z"/><path fill="#96a1b1" d="M400 100h100v100H400z"/><path fill="#7a97aa" d="M500 100h100v100H500z"/><path fill="#869eb2" d="M600 100h100v100H600z"/><path fill="#848e94" d="M700 100h100v100H700z"/><path fill="#7b8aa4" d="M0 200h100v100H0z"/><path fill="#959d92" d="M100 200h100v100H100z"/><path fill="#9eb4b7" d="M200 200h100v100H200z"/><path fill="#a1b6a6" d="M300 200h100v100H300z"/><path fill="#acc3b5" d="M400 200h100v100H400z"/><path fill="#adc2c2" d="M500 200h100v100H500z"/><path fill="#9ea7ac" d="M600 200h100v100H600z"/><path fill="#6f7270" d="M700 200h100v100H700z"/><path fill="#9a99af" d="M0 300h100v100H0z"/><path fill="#82919d" d="M100 300h100v100H100z"/><path fill="#969a9c" d="M200 300h100v100H200z"/><path fill="#b2aaad" d="M300 300h100v100H300z"/><path fill="#b1ad9c" d="M400 300h100v100H400z"/><path fill="#b9b19b" d="M500 300h100v100H500z"/><path fill="#a4a088" d="M600 300h100v100H600z"/><path fill="#676453" d="M700 300h100v100H700z"/><path fill="#8d99a8" d="M0 400h100v100H0z"/><path fill="#879390" d="M100 400h100v100H100z"/><path fill="#aaa3a0" d="M200 400h100v100H200z"/><path fill="#a29592" d="M300 400h100v100H300z"/><path fill="#b29d86" d="M400 400h100v100H400z"/><path fill="#c4a88b" d="M500 400h100v100H500z"/><path fill="#a99b7e" d="M600 400h100v100H600z"/><path fill="#75684e" d="M700 400h100v100H700z"/><path fill="#6b718f" d="M0 500h100v100H0z"/><path fill="#7f8984" d="M100 500h100v100H100z"/><path fill="#8b876e" d="M200 500h100v100H200z"/><path fill="#8a765f" d="M300 500h100v100H300z"/><path fill="#987e63" d="M400 500h100v100H400z"/><path fill="#987e61" d="M500 500h100v100H500z"/><path fill="#816c5b" d="M600 500h100v100H600z"/><path fill="#68624f" d="M700 500h100v100H700z"/></svg>