<svg xmlns="http://www.w3.org/2000/svg" viewBox="0 0 800 600"><defs/><path fill="#fff" d="M0 0h100v100H0zm100 0h100v100H100z"/><path fill="#fdfdfd" d="M200 0h100v100H200z"/><path fill="#f1f1f1" d="M300 0h100v100H300z"/><path fill="#f8f8f8" d="M400 0h100v100H400z"/><path fill="#fff" d="M500 0h100v100H500z"/><path fill="#fefefe" d="M600 0h100v100H600zm100 0h100v100H700z"/><path fill="#efefef" d="M0 100h100v100H0z"/><path fill="#bfbfbf" d="M100 100h100v100H100z"/><path fill="#cacaca" d="M200 100h100v100H200z"/><path fill="#c0bebf" d="M300 100h100v100H300z"/><path fill="#c3c2c2" d="M400 100h100v100H400z"/><path fill="#cdcccb" d="M500 100h100v100H500z"/><path fill="#deddde" d="M600 100h100v100H600z"/><path fill="#f3f3f3" d="M700 100h100v100H700z"/><path fill="#dfdfdf" d="M0 200h100v100H0z"/><path fill="#9d9c9d" d="M100 200h100v100H100z"/><path fill="#b0aeaf" d="M200 200h100v100H200z"/><path fill="#a6a5a6" d="M300 200h100v100H300zm100 0h100v100H400z"/><path fill="#b8b7b7" d="M500 200h100v100H500z"/><path fill="#cfcfcf" d="M600 200h100v100H600z"/><path fill="#efefef" d="M700 200h100v100H700z"/><path fill="#dfdede" d="M0 300h100v100H0z"/><path fill="#bcbcbc" d="M100 300h100v100H100z"/><path fill="#bcbbba" d="M200 300h100v100H200z"/><path fill="#a6a5a5" d="M300 300h100v100H300z"/><path fill="#a9a8a8" d="M400 300h100v100H400z"/><path fill="#bbbabb" d="M500 300h100v100H500z"/><path fill="#c6c5c5" d="M600 300h100v100H600z"/><path fill="#efefef" d="M700 300h100v100H700z"/><path fill="#e7e6e7" d="M0 400h100v100H0z"/><path fill="#d0d0d0" d="M100 400h100v100H100z"/><path fill="#cac9c9" d="M200 400h100v100H200z"/><path fill="#bdbdbd" d="M300 400h100v100H300z"/><path fill="#d0cfcf" d="M400 400h100v100H400zm100 0h100v100H500zm100 0h100v100H600z"/><path fill="#ececec" d="M700 400h100v100H700z"/><path fill="#fbfbfb" d="M0 500h100v100H0z"/><path fill="#f3f3f3" d="M100 500h100v100H100z"/><path fill="#f6f6f6" d="M200 500h100v100H200z"/><path fill="#f4f4f4" d="M300 500h100v100H300z"/><path fill="#f6f6f6" d="M400 500h100v100H400z"/><path fill="#f7f7f7" d="M500 500h100v100H500z"/><path fill="#f9f9f9" d="M600 500h100v100H600z"/><path fill="#fafafa" d="M700 500h100v100H700z"/></svg>