<svg xmlns="http://www.w3.org/2000/svg" viewBox="0 0 800 700"><defs/><path fill="#c9dce3" d="M0 0h100v100H0z"/><path fill="#5db0b6" d="M100 0h100v100H100z"/><path fill="#878684" d="M200 0h100v100H200z"/><path fill="#747576" d="M300 0h100v100H300z"/><path fill="#8a8a85" d="M400 0h100v100H400z"/><path fill="#4c4e4d" d="M500 0h100v100H500z"/><path fill="#746d65" d="M600 0h100v100H600z"/><path fill="#c29c7b" d="M700 0h100v100H700z"/><path fill="#c1d0d9" d="M0 100h100v100H0z"/><path fill="#a4cfd4" d="M100 100h100v100H100z"/><path fill="#c1c3c9" d="M200 100h100v100H200z"/><path fill="#bfc4ce" d="M300 100h100v100H300z"/><path fill="#cccfda" d="M400 100h100v100H400z"/><path fill="#383a40" d="M500 100h100v100H500z"/><path fill="#483f2e" d="M600 100h100v100H600z"/><path fill="#c0b85c" d="M700 100h100v100H700z"/><path fill="#bad1dd" d="M0 200h100v100H0z"/><path fill="#639b93" d="M100 200h100v100H100z"/><path fill="#a1755f" d="M200 200h100v100H200z"/><path fill="#726e6d" d="M300 200h100v100H300z"/><path fill="#b0964c" d="M400 200h100v100H400z"/><path fill="#2e2938" d="M500 200h100v100H500z"/><path fill="#222a5e" d="M600 200h100v100H600z"/><path fill="#19680d" d="M700 200h100v100H700z"/><path fill="#b8d1d4" d="M0 300h100v100H0z"/><path fill="#23627f" d="M100 300h100v100H100z"/><path fill="#73575b" d="M200 300h100v100H200z"/><path fill="#281f0c" d="M300 300h100v100H300z"/><path fill="#8f8906" d="M400 300h100v100H400z"/><path fill="#546c1b" d="M500 300h100v100H500z"/><path fill="#28513c" d="M600 300h100v100H600z"/><path fill="#c2990b" d="M700 300h100v100H700z"/><path fill="#bdcbca" d="M0 400h100v100H0z"/><path fill="#194fb2" d="M100 400h100v100H100z"/><path fill="#0c1656" d="M200 400h100v100H200z"/><path fill="#0a0d01" d="M300 400h100v100H300z"/><path fill="#1d6920" d="M400 400h100v100H400z"/><path fill="#12500e" d="M500 400h100v100H500z"/><path fill="#336027" d="M600 400h100v100H600z"/><path fill="#788d19" d="M700 400h100v100H700z"/><path fill="#d7cadc" d="M0 500h100v100H0z"/><path fill="#b36b52" d="M100 500h100v100H100z"/><path fill="#ab6a5a" d="M200 500h100v100H200z"/><path fill="#a14f62" d="M300 500h100v100H300z"/><path fill="#b4362f" d="M400 500h100v100H400z"/><path fill="#904433" d="M500 500h100v100H500z"/><path fill="#61573a" d="M600 500h100v100H600z"/><path fill="#457a1a" d="M700 500h100v100H700z"/><path fill="#e1d7e3" d="M0 600h100v100H0z"/><path fill="#d37f7e" d="M100 600h100v100H100z"/><path fill="#e8909b" d="M200 600h100v100H200z"/><path fill="#f495a8" d="M300 600h100v100H300z"/><path fill="#df7b85" d="M400 600h100v100H400z"/><path fill="#df6c80" d="M500 600h100v100H500z"/><path fill="#986368" d="M600 600h100v100H600z"/><path fill="#a05f41" d="M700 600h100v100H700z"/></svg>