<svg xmlns="http://www.w3.org/2000/svg" viewBox="0 0 800 600"><defs/><path fill="#598fcb" d="M0 0h100v100H0z"/><path fill="#a6d7e6" d="M100 0h100v100H100z"/><path fill="#2b84c7" d="M200 0h100v100H200z"/><path fill="#4c8bcc" d="M300 0h100v100H300z"/><path fill="#a3c0e2" d="M400 0h100v100H400z"/><path fill="#73c1e0" d="M500 0h100v100H500z"/><path fill="#77b4d9" d="M600 0h100v100H600z"/><path fill="#9dc2e0" d="M700 0h100v100H700z"/><path fill="#4282c4" d="M0 100h100v100H0z"/><path fill="#96d2e7" d="M100 100h100v100H100z"/><path fill="#6a99cd" d="M200 100h100v100H200z"/><path fill="#bfd1e4" d="M300 100h100v100H300z"/><path fill="#faf7f2" d="M400 100h100v100H400z"/><path fill="#b3daef" d="M500 100h100v100H500z"/><path fill="#8cc2e7" d="M600 100h100v100H600z"/><path fill="#92c3eb" d="M700 100h100v100H700z"/><path fill="#3886bb" d="M0 200h100v100H0z"/><path fill="#9bc7e5" d="M100 200h100v100H100z"/><path fill="#edf5f6" d="M200 200h100v100H200z"/><path fill="#98bddb" d="M300 200h100v100H300z"/><path fill="#5ca3d6" d="M400 200h100v100H400z"/><path fill="#66aad9" d="M500 200h100v100H500z"/><path fill="#5a9dd5" d="M600 200h100v100H600z"/><path fill="#4894d8" d="M700 200h100v100H700z"/><path fill="#6bb7d7" d="M0 300h100v100H0z"/><path fill="#50a4c5" d="M100 300h100v100H100z"/><path fill="#88c3d4" d="M200 300h100v100H200z"/><path fill="#8cd4e3" d="M300 300h100v100H300z"/><path fill="#5cb8d0" d="M400 300h100v100H400z"/><path fill="#72c5d3" d="M500 300h100v100H500z"/><path fill="#77ced7" d="M600 300h100v100H600z"/><path fill="#82d1da" d="M700 300h100v100H700z"/><path fill="#c7f3f0" d="M0 400h100v100H0z"/><path fill="#9fd4d8" d="M100 400h100v100H100z"/><path fill="#91c7d1" d="M200 400h100v100H200z"/><path fill="#adeae8" d="M300 400h100v100H300z"/><path fill="#b0e4e1" d="M400 400h100v100H400z"/><path fill="#adeae8" d="M500 400h100v100H500z"/><path fill="#cff5f0" d="M600 400h100v100H600z"/><path fill="#d2f8f1" d="M700 400h100v100H700z"/><path fill="#fffffc" d="M0 500h100v100H0z"/><path fill="#f4fcfb" d="M100 500h100v100H100z"/><path fill="#e2fafa" d="M200 500h100v100H200z"/><path fill="#edf9f7" d="M300 500h100v100H300z"/><path fill="#f0f9f8" d="M400 500h100v100H400z"/><path fill="#e0f9f6" d="M500 500h100v100H500z"/><path fill="#fbfdfb" d="M600 500h100v100H600z"/><path fill="#fffdfc" d="M700 500h100v100H700z"/></svg>