<svg xmlns="http://www.w3.org/2000/svg" viewBox="0 0 800 500"><defs/><path fill="#b9b9b7" d="M0 0h100v100H0z"/><path fill="#babab7" d="M100 0h100v100H100z"/><path fill="#ebebeb" d="M200 0h100v100H200z"/><path fill="#f2f2f2" d="M300 0h100v100H300z"/><path fill="#dbdbda" d="M400 0h100v100H400z"/><path fill="#e7e7e6" d="M500 0h100v100H500z"/><path fill="#d4d4d2" d="M600 0h100v100H600z"/><path fill="#bbbab9" d="M700 0h100v100H700z"/><path fill="#b9b9b7" d="M0 100h100v100H0z"/><path fill="#c3c3c1" d="M100 100h100v100H100z"/><path fill="#d1d1d0" d="M200 100h100v100H200z"/><path fill="#dcdcdb" d="M300 100h100v100H300z"/><path fill="#d1d1cf" d="M400 100h100v100H400z"/><path fill="#d8d8d6" d="M500 100h100v100H500z"/><path fill="#d4d4d2" d="M600 100h100v100H600z"/><path fill="#c6c6c5" d="M700 100h100v100H700z"/><path fill="#f2f2f2" d="M0 200h100v100H0z"/><path fill="#e1e1df" d="M100 200h100v100H100z"/><path fill="#f1f1f0" d="M200 200h100v100H200z"/><path fill="#ebebea" d="M300 200h100v100H300z"/><path fill="#e9e9e8" d="M400 200h100v100H400z"/><path fill="#c4c4c2" d="M500 200h100v100H500z"/><path fill="#cacac8" d="M600 200h100v100H600z"/><path fill="#d1d0cf" d="M700 200h100v100H700z"/><path fill="#ebebeb" d="M0 300h100v100H0z"/><path fill="#e2e3e1" d="M100 300h100v100H100z"/><path fill="#93918e" d="M200 300h100v100H200z"/><path fill="#979592" d="M300 300h100v100H300z"/><path fill="#8a8986" d="M400 300h100v100H400z"/><path fill="#a5a4a2" d="M500 300h100v100H500z"/><path fill="#d2d3d1" d="M600 300h100v100H600z"/><path fill="#e2e2e1" d="M700 300h100v100H700z"/><path fill="#dfdedc" d="M0 400h100v100H0z"/><path fill="#c4c3c1" d="M100 400h100v100H100z"/><path fill="#959391" d="M200 400h100v100H200z"/><path fill="#8a8886" d="M300 400h100v100H300z"/><path fill="#817e7b" d="M400 400h100v100H400z"/><path fill="#a3a19f" d="M500 400h100v100H500z"/><path fill="#a19f9c" d="M600 400h100v100H600z"/><path fill="#b8b7b6" d="M700 400h100v100H700z"/></svg>