<svg xmlns="http://www.w3.org/2000/svg" viewBox="0 0 800 600"><defs/><path fill="#756c66" d="M0 0h100v100H0z"/><path fill="#b8b8b3" d="M100 0h100v100H100z"/><path fill="#bec1bc" d="M200 0h100v100H200z"/><path fill="#bbc0ba" d="M300 0h100v100H300z"/><path fill="#b2b4ac" d="M400 0h100v100H400z"/><path fill="#91847b" d="M500 0h100v100H500z"/><path fill="#8f8074" d="M600 0h100v100H600z"/><path fill="#918e88" d="M700 0h100v100H700z"/><path fill="#a78883" d="M0 100h100v100H0z"/><path fill="#e7ba9b" d="M100 100h100v100H100z"/><path fill="#edcc97" d="M200 100h100v100H200z"/><path fill="#f0c69a" d="M300 100h100v100H300z"/><path fill="#eabb8b" d="M400 100h100v100H400z"/><path fill="#e4b688" d="M500 100h100v100H500z"/><path fill="#c89d7b" d="M600 100h100v100H600z"/><path fill="#8d816f" d="M700 100h100v100H700z"/><path fill="#9c7d70" d="M0 200h100v100H0z"/><path fill="#c99d73" d="M100 200h100v100H100z"/><path fill="#c6a66f" d="M200 200h100v100H200z"/><path fill="#bb8f56" d="M300 200h100v100H300z"/><path fill="#bb8740" d="M400 200h100v100H400z"/><path fill="#bc9a64" d="M500 200h100v100H500z"/><path fill="#a49269" d="M600 200h100v100H600z"/><path fill="#84725f" d="M700 200h100v100H700z"/><path fill="#ab8d7c" d="M0 300h100v100H0z"/><path fill="#c79a7e" d="M100 300h100v100H100z"/><path fill="#d2a38f" d="M200 300h100v100H200z"/><path fill="#9c8564" d="M300 300h100v100H300z"/><path fill="#907e63" d="M400 300h100v100H400z"/><path fill="#a08c70" d="M500 300h100v100H500z"/><path fill="#a88b69" d="M600 300h100v100H600z"/><path fill="#847567" d="M700 300h100v100H700z"/><path fill="#cdac94" d="M0 400h100v100H0z"/><path fill="#ce9b86" d="M100 400h100v100H100z"/><path fill="#c39a9c" d="M200 400h100v100H200z"/><path fill="#cf9587" d="M300 400h100v100H300z"/><path fill="#c68e7c" d="M400 400h100v100H400z"/><path fill="#cb8e77" d="M500 400h100v100H500z"/><path fill="#de8e6b" d="M600 400h100v100H600z"/><path fill="#a4745f" d="M700 400h100v100H700z"/><path fill="#aa9a8f" d="M0 500h100v100H0z"/><path fill="#9c8f84" d="M100 500h100v100H100z"/><path fill="#97857e" d="M200 500h100v100H200z"/><path fill="#a28e86" d="M300 500h100v100H300z"/><path fill="#9a8479" d="M400 500h100v100H400z"/><path fill="#91756a" d="M500 500h100v100H500z"/><path fill="#967868" d="M600 500h100v100H600z"/><path fill="#836b5c" d="M700 500h100v100H700z"/></svg>