<svg xmlns="http://www.w3.org/2000/svg" viewBox="0 0 800 400"><defs/><path fill="#929d97" d="M0 0h100v100H0z"/><path fill="#cca194" d="M100 0h100v100H100z"/><path fill="#ac5966" d="M200 0h100v100H200z"/><path fill="#945869" d="M300 0h100v100H300z"/><path fill="#824f61" d="M400 0h100v100H400z"/><path fill="#a36f7a" d="M500 0h100v100H500z"/><path fill="#a27776" d="M600 0h100v100H600z"/><path fill="#d2b298" d="M700 0h100v100H700z"/><path fill="#959891" d="M0 100h100v100H0z"/><path fill="#ad867e" d="M100 100h100v100H100z"/><path fill="#9e6473" d="M200 100h100v100H200z"/><path fill="#935f70" d="M300 100h100v100H300z"/><path fill="#a47a89" d="M400 100h100v100H400z"/><path fill="#b17d82" d="M500 100h100v100H500z"/><path fill="#a7807a" d="M600 100h100v100H600z"/><path fill="#a38e90" d="M700 100h100v100H700z"/><path fill="#b9aca6" d="M0 200h100v100H0z"/><path fill="#6c565f" d="M100 200h100v100H100z"/><path fill="#837784" d="M200 200h100v100H200z"/><path fill="#c8acac" d="M300 200h100v100H300z"/><path fill="#dcdbdc" d="M400 200h100v100H400z"/><path fill="#b29798" d="M500 200h100v100H500z"/><path fill="#927374" d="M600 200h100v100H600z"/><path fill="#c4acb0" d="M700 200h100v100H700z"/><path fill="#d4c0b5" d="M0 300h100v100H0z"/><path fill="#b79c95" d="M100 300h100v100H100z"/><path fill="#b8b3ad" d="M200 300h100v100H200z"/><path fill="#a0998e" d="M300 300h100v100H300z"/><path fill="#847c76" d="M400 300h100v100H400z"/><path fill="#bfb9ac" d="M500 300h100v100H500z"/><path fill="#e3cdb6" d="M600 300h100v100H600z"/><path fill="#d78a89" d="M700 300h100v100H700z"/></svg>