<svg xmlns="http://www.w3.org/2000/svg" viewBox="0 0 800 800"><defs/><path fill="#92767b" d="M0 0h100v100H0z"/><path fill="#dfdabd" d="M100 0h100v100H100z"/><path fill="#e2e5c3" d="M200 0h100v100H200z"/><path fill="#e3e7ca" d="M300 0h100v100H300z"/><path fill="#d3d5c0" d="M400 0h100v100H400z"/><path fill="#cbcab5" d="M500 0h100v100H500z"/><path fill="#c4c1ad" d="M600 0h100v100H600z"/><path fill="#7e7071" d="M700 0h100v100H700z"/><path fill="#74273f" d="M0 100h100v100H0z"/><path fill="#a6656b" d="M100 100h100v100H100z"/><path fill="#cea79a" d="M200 100h100v100H200z"/><path fill="#ded0b8" d="M300 100h100v100H300z"/><path fill="#e9ebd3" d="M400 100h100v100H400z"/><path fill="#e2e7cf" d="M500 100h100v100H500z"/><path fill="#d3d8c2" d="M600 100h100v100H600z"/><path fill="#cecab5" d="M700 100h100v100H700z"/><path fill="#85474c" d="M0 200h100v100H0z"/><path fill="#9c6164" d="M100 200h100v100H100z"/><path fill="#b17f7b" d="M200 200h100v100H200z"/><path fill="#b76575" d="M300 200h100v100H300z"/><path fill="#cb878b" d="M400 200h100v100H400z"/><path fill="#d1b3aa" d="M500 200h100v100H500z"/><path fill="#e0d0bf" d="M600 200h100v100H600z"/><path fill="#e4e6c8" d="M700 200h100v100H700z"/><path fill="#844b55" d="M0 300h100v100H0z"/><path fill="#b69987" d="M100 300h100v100H100z"/><path fill="#b79185" d="M200 300h100v100H200z"/><path fill="#b59079" d="M300 300h100v100H300z"/><path fill="#808151" d="M400 300h100v100H400z"/><path fill="#9b6869" d="M500 300h100v100H500z"/><path fill="#b95d71" d="M600 300h100v100H600z"/><path fill="#b78081" d="M700 300h100v100H700z"/><path fill="#8a5a5a" d="M0 400h100v100H0z"/><path fill="#95655f" d="M100 400h100v100H100z"/><path fill="#aa7c74" d="M200 400h100v100H200z"/><path fill="#b49973" d="M300 400h100v100H300z"/><path fill="#7b844e" d="M400 400h100v100H400z"/><path fill="#7c935e" d="M500 400h100v100H500z"/><path fill="#987666" d="M600 400h100v100H600z"/><path fill="#90344d" d="M700 400h100v100H700z"/><path fill="#551d38" d="M0 500h100v100H0z"/><path fill="#6d2c43" d="M100 500h100v100H100z"/><path fill="#9b6665" d="M200 500h100v100H200z"/><path fill="#a26a69" d="M300 500h100v100H300z"/><path fill="#936e66" d="M400 500h100v100H400z"/><path fill="#54523d" d="M500 500h100v100H500z"/><path fill="#6c524c" d="M600 500h100v100H600z"/><path fill="#983e54" d="M700 500h100v100H700z"/><path fill="#aa895d" d="M0 600h100v100H0z"/><path fill="#7c453c" d="M100 600h100v100H100z"/><path fill="#6b253c" d="M200 600h100v100H200z"/><path fill="#782843" d="M300 600h100v100H300z"/><path fill="#904558" d="M400 600h100v100H400z"/><path fill="#863d52" d="M500 600h100v100H500z"/><path fill="#844b58" d="M600 600h100v100H600z"/><path fill="#9f4155" d="M700 600h100v100H700z"/><path fill="#dddeb5" d="M0 700h100v100H0z"/><path fill="#d0c37d" d="M100 700h100v100H100z"/><path fill="#a97e4c" d="M200 700h100v100H200z"/><path fill="#753432" d="M300 700h100v100H300z"/><path fill="#652a3a" d="M400 700h100v100H400z"/><path fill="#5f233c" d="M500 700h100v100H500z"/><path fill="#6e2b43" d="M600 700h100v100H600z"/><path fill="#873648" d="M700 700h100v100H700z"/></svg>