<svg xmlns="http://www.w3.org/2000/svg" viewBox="0 0 800 500"><defs/><path fill="#717379" d="M0 0h100v100H0z"/><path fill="#d0d1d6" d="M100 0h100v100H100z"/><path fill="#bdbabf" d="M200 0h100v100H200z"/><path fill="#b6b2b4" d="M300 0h100v100H300z"/><path fill="#b3afae" d="M400 0h100v100H400z"/><path fill="#aeaaa7" d="M500 0h100v100H500z"/><path fill="#bfbdbe" d="M600 0h100v100H600z"/><path fill="#838285" d="M700 0h100v100H700z"/><path fill="#6e727a" d="M0 100h100v100H0z"/><path fill="#c1b8a4" d="M100 100h100v100H100z"/><path fill="#6f654f" d="M200 100h100v100H200z"/><path fill="#5a5047" d="M300 100h100v100H300z"/><path fill="#634f48" d="M400 100h100v100H400z"/><path fill="#605a4d" d="M500 100h100v100H500z"/><path fill="#9a9885" d="M600 100h100v100H600z"/><path fill="#8d8c92" d="M700 100h100v100H700z"/><path fill="#7d8288" d="M0 200h100v100H0z"/><path fill="#aea58d" d="M100 200h100v100H100z"/><path fill="#5b553f" d="M200 200h100v100H200z"/><path fill="#475151" d="M300 200h100v100H300z"/><path fill="#564d45" d="M400 200h100v100H400z"/><path fill="#584e41" d="M500 200h100v100H500z"/><path fill="#797968" d="M600 200h100v100H600z"/><path fill="#8b8a8e" d="M700 200h100v100H700z"/><path fill="#787c81" d="M0 300h100v100H0z"/><path fill="#969384" d="M100 300h100v100H100z"/><path fill="#55594f" d="M200 300h100v100H200z"/><path fill="#72695b" d="M300 300h100v100H300z"/><path fill="#725342" d="M400 300h100v100H400z"/><path fill="#7c4a30" d="M500 300h100v100H500z"/><path fill="#716a6d" d="M600 300h100v100H600z"/><path fill="#878c94" d="M700 300h100v100H700z"/><path fill="#696a6f" d="M0 400h100v100H0z"/><path fill="#bbbfc4" d="M100 400h100v100H100z"/><path fill="#b5b4b6" d="M200 400h100v100H200z"/><path fill="#c4b9b7" d="M300 400h100v100H300z"/><path fill="#b9b6b9" d="M400 400h100v100H400z"/><path fill="#b6b2b4" d="M500 400h100v100H500z"/><path fill="#c0bfc8" d="M600 400h100v100H600z"/><path fill="#898b92" d="M700 400h100v100H700z"/></svg>