<svg xmlns="http://www.w3.org/2000/svg" viewBox="0 0 800 400"><defs/><path fill="#dbd9b8" d="M0 0h100v100H0z"/><path fill="#aa6858" d="M100 0h100v100H100z"/><path fill="#d43038" d="M200 0h100v100H200z"/><path fill="#d1454a" d="M300 0h100v100H300z"/><path fill="#8f9297" d="M400 0h100v100H400z"/><path fill="#a1a293" d="M500 0h100v100H500z"/><path fill="#bcb79f" d="M600 0h100v100H600z"/><path fill="#cfc9a8" d="M700 0h100v100H700z"/><path fill="#d3d3ae" d="M0 100h100v100H0z"/><path fill="#ae312c" d="M100 100h100v100H100z"/><path fill="#e15c4e" d="M200 100h100v100H200z"/><path fill="#8e8090" d="M300 100h100v100H300z"/><path fill="#5c7498" d="M400 100h100v100H400z"/><path fill="#473d3e" d="M500 100h100v100H500z"/><path fill="#7b6d62" d="M600 100h100v100H600z"/><path fill="#a89980" d="M700 100h100v100H700z"/><path fill="#bdab8f" d="M0 200h100v100H0z"/><path fill="#ae4a3e" d="M100 200h100v100H100z"/><path fill="#eb6050" d="M200 200h100v100H200z"/><path fill="#b0846e" d="M300 200h100v100H300z"/><path fill="#898261" d="M400 200h100v100H400z"/><path fill="#61665d" d="M500 200h100v100H500z"/><path fill="#538ea5" d="M600 200h100v100H600z"/><path fill="#94a095" d="M700 200h100v100H700z"/><path fill="#b39a87" d="M0 300h100v100H0z"/><path fill="#bb8b62" d="M100 300h100v100H100z"/><path fill="#e16d2e" d="M200 300h100v100H200z"/><path fill="#b3491f" d="M300 300h100v100H300z"/><path fill="#c2702e" d="M400 300h100v100H400z"/><path fill="#8d9a77" d="M500 300h100v100H500z"/><path fill="#7fac87" d="M600 300h100v100H600z"/><path fill="#91a67a" d="M700 300h100v100H700z"/></svg>