<svg xmlns="http://www.w3.org/2000/svg" viewBox="0 0 800 400"><defs/><path fill="#ae856b" d="M0 0h100v100H0z"/><path fill="#9f6f66" d="M100 0h100v100H100z"/><path fill="#b79586" d="M200 0h100v100H200z"/><path fill="#ae9f94" d="M300 0h100v100H300z"/><path fill="#ada196" d="M400 0h100v100H400z"/><path fill="#a69486" d="M500 0h100v100H500z"/><path fill="#9a7a64" d="M600 0h100v100H600z"/><path fill="#b19177" d="M700 0h100v100H700z"/><path fill="#a87962" d="M0 100h100v100H0z"/><path fill="#a27365" d="M100 100h100v100H100z"/><path fill="#b89190" d="M200 100h100v100H200z"/><path fill="#a49693" d="M300 100h100v100H300z"/><path fill="#a49995" d="M400 100h100v100H400z"/><path fill="#928374" d="M500 100h100v100H500z"/><path fill="#7e6152" d="M600 100h100v100H600z"/><path fill="#8e8d7f" d="M700 100h100v100H700z"/><path fill="#ab8172" d="M0 200h100v100H0z"/><path fill="#a57667" d="M100 200h100v100H100z"/><path fill="#a87c65" d="M200 200h100v100H200z"/><path fill="#a77f70" d="M300 200h100v100H300z"/><path fill="#b47f6a" d="M400 200h100v100H400z"/><path fill="#979a99" d="M500 200h100v100H500z"/><path fill="#92b1bb" d="M600 200h100v100H600z"/><path fill="#a59b8b" d="M700 200h100v100H700z"/><path fill="#a1736d" d="M0 300h100v100H0z"/><path fill="#a06865" d="M100 300h100v100H100z"/><path fill="#9a5f5a" d="M200 300h100v100H200z"/><path fill="#95625f" d="M300 300h100v100H300z"/><path fill="#a65b65" d="M400 300h100v100H400z"/><path fill="#958e9b" d="M500 300h100v100H500z"/><path fill="#8db4c8" d="M600 300h100v100H600z"/><path fill="#97a2a9" d="M700 300h100v100H700z"/></svg>