<svg xmlns="http://www.w3.org/2000/svg" viewBox="0 0 800 600"><defs/><path fill="#bcb1a8" d="M0 0h100v100H0z"/><path fill="#c4b3a4" d="M100 0h100v100H100z"/><path fill="#cbc7b5" d="M200 0h100v100H200z"/><path fill="#c4bfaf" d="M300 0h100v100H300z"/><path fill="#beb3a8" d="M400 0h100v100H400z"/><path fill="#c1baad" d="M500 0h100v100H500z"/><path fill="#bfbbac" d="M600 0h100v100H600z"/><path fill="#bbb0a7" d="M700 0h100v100H700z"/><path fill="#575a5f" d="M0 100h100v100H0z"/><path fill="#98775d" d="M100 100h100v100H100z"/><path fill="#8a8875" d="M200 100h100v100H200z"/><path fill="#aab4a9" d="M300 100h100v100H300z"/><path fill="#c5d4cc" d="M400 100h100v100H400z"/><path fill="#7b7d73" d="M500 100h100v100H500z"/><path fill="#546a5c" d="M600 100h100v100H600z"/><path fill="#627974" d="M700 100h100v100H700z"/><path fill="#939884" d="M0 200h100v100H0z"/><path fill="#a0886a" d="M100 200h100v100H100z"/><path fill="#6c625b" d="M200 200h100v100H200z"/><path fill="#c0b9a5" d="M300 200h100v100H300z"/><path fill="#d8c9ae" d="M400 200h100v100H400z"/><path fill="#968675" d="M500 200h100v100H500z"/><path fill="#4c584e" d="M600 200h100v100H600z"/><path fill="#54605b" d="M700 200h100v100H700z"/><path fill="#77615f" d="M0 300h100v100H0z"/><path fill="#6c4a42" d="M100 300h100v100H100z"/><path fill="#6a7166" d="M200 300h100v100H200z"/><path fill="#7e6d66" d="M300 300h100v100H300z"/><path fill="#614546" d="M400 300h100v100H400z"/><path fill="#5b4947" d="M500 300h100v100H500z"/><path fill="#714f48" d="M600 300h100v100H600z"/><path fill="#835b54" d="M700 300h100v100H700z"/><path fill="#5e3f45" d="M0 400h100v100H0z"/><path fill="#6e3b35" d="M100 400h100v100H100z"/><path fill="#6d5652" d="M200 400h100v100H200z"/><path fill="#615257" d="M300 400h100v100H300z"/><path fill="#4e4453" d="M400 400h100v100H400z"/><path fill="#473d4f" d="M500 400h100v100H500z"/><path fill="#633333" d="M600 400h100v100H600z"/><path fill="#5d373d" d="M700 400h100v100H700z"/><path fill="#b8a79d" d="M0 500h100v100H0z"/><path fill="#b69f96" d="M100 500h100v100H100z"/><path fill="#b49d94" d="M200 500h100v100H200z"/><path fill="#ac9e9a" d="M300 500h100v100H300z"/><path fill="#ada29e" d="M400 500h100v100H400z"/><path fill="#afa39f" d="M500 500h100v100H500z"/><path fill="#a89893" d="M600 500h100v100H600z"/><path fill="#ad9a93" d="M700 500h100v100H700z"/></svg>