<svg xmlns="http://www.w3.org/2000/svg" viewBox="0 0 800 900"><defs/><path fill="#496078" d="M0 0h100v100H0z"/><path fill="#607288" d="M100 0h100v100H100z"/><path fill="#8e8c8c" d="M200 0h100v100H200z"/><path fill="#9b9998" d="M300 0h100v100H300z"/><path fill="#7d8085" d="M400 0h100v100H400z"/><path fill="#627180" d="M500 0h100v100H500z"/><path fill="#4d687f" d="M600 0h100v100H600z"/><path fill="#41627a" d="M700 0h100v100H700z"/><path fill="#5a6773" d="M0 100h100v100H0z"/><path fill="#8b8a8d" d="M100 100h100v100H100z"/><path fill="#838183" d="M200 100h100v100H200z"/><path fill="#777573" d="M300 100h100v100H300z"/><path fill="#6a7683" d="M400 100h100v100H400z"/><path fill="#48637c" d="M500 100h100v100H500z"/><path fill="#47637c" d="M600 100h100v100H600z"/><path fill="#4e5e68" d="M700 100h100v100H700z"/><path fill="#65778c" d="M0 200h100v100H0z"/><path fill="#7e8792" d="M100 200h100v100H100z"/><path fill="#646568" d="M200 200h100v100H200z"/><path fill="#6b6964" d="M300 200h100v100H300z"/><path fill="#8b9093" d="M400 200h100v100H400z"/><path fill="#838e94" d="M500 200h100v100H500z"/><path fill="#687176" d="M600 200h100v100H600z"/><path fill="#4b5f6d" d="M700 200h100v100H700z"/><path fill="#5a6979" d="M0 300h100v100H0z"/><path fill="#798188" d="M100 300h100v100H100z"/><path fill="#4f5250" d="M200 300h100v100H200z"/><path fill="#51514e" d="M300 300h100v100H300z"/><path fill="#7c7d7d" d="M400 300h100v100H400z"/><path fill="#72726e" d="M500 300h100v100H500z"/><path fill="#4c473f" d="M600 300h100v100H600z"/><path fill="#2c271e" d="M700 300h100v100H700z"/><path fill="#868a8a" d="M0 400h100v100H0z"/><path fill="#969a98" d="M100 400h100v100H100z"/><path fill="#858782" d="M200 400h100v100H200z"/><path fill="#818075" d="M300 400h100v100H300z"/><path fill="#999489" d="M400 400h100v100H400z"/><path fill="#89857a" d="M500 400h100v100H500z"/><path fill="#837e71" d="M600 400h100v100H600z"/><path fill="#6c685d" d="M700 400h100v100H700z"/><path fill="#dcd8d0" d="M0 500h100v100H0z"/><path fill="#ccc7bd" d="M100 500h100v100H100z"/><path fill="#d1cbc0" d="M200 500h100v100H200z"/><path fill="#cfccc1" d="M300 500h100v100H300z"/><path fill="#cfc7be" d="M400 500h100v100H400z"/><path fill="#cfc9c0" d="M500 500h100v100H500z"/><path fill="#dad7cb" d="M600 500h100v100H600z"/><path fill="#e8e3d6" d="M700 500h100v100H700z"/><path fill="#d7d1c2" d="M0 600h100v100H0z"/><path fill="#c6c0b7" d="M100 600h100v100H100z"/><path fill="#c7c1b6" d="M200 600h100v100H200z"/><path fill="#c9c5b8" d="M300 600h100v100H300z"/><path fill="#c8c2b9" d="M400 600h100v100H400z"/><path fill="#c7c2b7" d="M500 600h100v100H500z"/><path fill="#cbc5b8" d="M600 600h100v100H600z"/><path fill="#d4cfc1" d="M700 600h100v100H700z"/><path fill="#cfcfc0" d="M0 700h100v100H0z"/><path fill="#c8c2b5" d="M100 700h100v100H100z"/><path fill="#c9c2b7" d="M200 700h100v100H200z"/><path fill="#cdc7bd" d="M300 700h100v100H300z"/><path fill="#cbc5bd" d="M400 700h100v100H400z"/><path fill="#cac3ba" d="M500 700h100v100H500z"/><path fill="#c9c3b8" d="M600 700h100v100H600z"/><path fill="#cfcec2" d="M700 700h100v100H700z"/><path fill="#bec5bf" d="M0 800h100v100H0z"/><path fill="#bfbdb5" d="M100 800h100v100H100z"/><path fill="#c5c0b6" d="M200 800h100v100H200z"/><path fill="#c8c1b9" d="M300 800h100v100H300z"/><path fill="#c8c1bb" d="M400 800h100v100H400z"/><path fill="#c8c1ba" d="M500 800h100v100H500z"/><path fill="#cec9c1" d="M600 800h100v100H600z"/><path fill="#d0d1ca" d="M700 800h100v100H700z"/></svg>