<svg xmlns="http://www.w3.org/2000/svg" viewBox="0 0 800 500"><defs/><path fill="#967d50" d="M0 0h100v100H0z"/><path fill="#97916f" d="M100 0h100v100H100z"/><path fill="#969077" d="M200 0h100v100H200z"/><path fill="#a09b83" d="M300 0h100v100H300z"/><path fill="#9f886a" d="M400 0h100v100H400z"/><path fill="#8d7766" d="M500 0h100v100H500z"/><path fill="#a08b70" d="M600 0h100v100H600z"/><path fill="#98977b" d="M700 0h100v100H700z"/><path fill="#9a7f4d" d="M0 100h100v100H0z"/><path fill="#999273" d="M100 100h100v100H100z"/><path fill="#b1a67a" d="M200 100h100v100H200z"/><path fill="#9d9b68" d="M300 100h100v100H300z"/><path fill="#a79667" d="M400 100h100v100H400z"/><path fill="#9d9a73" d="M500 100h100v100H500z"/><path fill="#b09d5e" d="M600 100h100v100H600z"/><path fill="#b5ac5a" d="M700 100h100v100H700z"/><path fill="#8f743f" d="M0 200h100v100H0z"/><path fill="#93905d" d="M100 200h100v100H100z"/><path fill="#b3bd68" d="M200 200h100v100H200z"/><path fill="#8ea452" d="M300 200h100v100H300z"/><path fill="#a49956" d="M400 200h100v100H400z"/><path fill="#b6bd72" d="M500 200h100v100H500z"/><path fill="#957d45" d="M600 200h100v100H600z"/><path fill="#8c8956" d="M700 200h100v100H700z"/><path fill="#a68e55" d="M0 300h100v100H0z"/><path fill="#cfd886" d="M100 300h100v100H100z"/><path fill="#d3d280" d="M200 300h100v100H200z"/><path fill="#c7a15f" d="M300 300h100v100H300z"/><path fill="#d0c471" d="M400 300h100v100H400z"/><path fill="#d0db7a" d="M500 300h100v100H500z"/><path fill="#b0b472" d="M600 300h100v100H600z"/><path fill="#8c8f87" d="M700 300h100v100H700z"/><path fill="#b48144" d="M0 400h100v100H0z"/><path fill="#b1b05e" d="M100 400h100v100H100z"/><path fill="#c0bc6b" d="M200 400h100v100H200z"/><path fill="#cdb36b" d="M300 400h100v100H300z"/><path fill="#bfbd67" d="M400 400h100v100H400z"/><path fill="#ced37c" d="M500 400h100v100H500z"/><path fill="#c0ca7a" d="M600 400h100v100H600z"/><path fill="#878e5f" d="M700 400h100v100H700z"/></svg>