<svg xmlns="http://www.w3.org/2000/svg" viewBox="0 0 800 500"><defs/><path fill="#407640" d="M0 0h100v100H0z"/><path fill="#879e84" d="M100 0h100v100H100z"/><path fill="#fffdf9" d="M200 0h100v100H200z"/><path fill="#e3e2d7" d="M300 0h100v100H300z"/><path fill="#e7dfda" d="M400 0h100v100H400z"/><path fill="#869180" d="M500 0h100v100H500z"/><path fill="#2b422b" d="M600 0h100v100H600z"/><path fill="#3a4539" d="M700 0h100v100H700z"/><path fill="#3a5e3b" d="M0 100h100v100H0z"/><path fill="#6f7266" d="M100 100h100v100H100z"/><path fill="#c2bdb7" d="M200 100h100v100H200z"/><path fill="#aba8a3" d="M300 100h100v100H300z"/><path fill="#b4b5b0" d="M400 100h100v100H400z"/><path fill="#999896" d="M500 100h100v100H500z"/><path fill="#465047" d="M600 100h100v100H600z"/><path fill="#2c342d" d="M700 100h100v100H700z"/><path fill="#2b3e28" d="M0 200h100v100H0z"/><path fill="#605c59" d="M100 200h100v100H100z"/><path fill="#8c8b87" d="M200 200h100v100H200z"/><path fill="#a9a6a1" d="M300 200h100v100H300z"/><path fill="#858380" d="M400 200h100v100H400z"/><path fill="#7d7d7c" d="M500 200h100v100H500z"/><path fill="#636262" d="M600 200h100v100H600z"/><path fill="#444343" d="M700 200h100v100H700z"/><path fill="#343731" d="M0 300h100v100H0z"/><path fill="#484645" d="M100 300h100v100H100z"/><path fill="#5c5c5a" d="M200 300h100v100H200z"/><path fill="#5d5d5b" d="M300 300h100v100H300z"/><path fill="#696967" d="M400 300h100v100H400z"/><path fill="#616161" d="M500 300h100v100H500z"/><path fill="#494949" d="M600 300h100v100H600z"/><path fill="#363636" d="M700 300h100v100H700z"/><path fill="#4f4e4b" d="M0 400h100v100H0z"/><path fill="#4d4d4b" d="M100 400h100v100H100z"/><path fill="#595756" d="M200 400h100v100H200z"/><path fill="#4f4d4c" d="M300 400h100v100H300z"/><path fill="#4b4948" d="M400 400h100v100H400z"/><path fill="#464445" d="M500 400h100v100H500z"/><path fill="#3e3d3d" d="M600 400h100v100H600z"/><path fill="#3d3c3b" d="M700 400h100v100H700z"/></svg>