<svg xmlns="http://www.w3.org/2000/svg" viewBox="0 0 800 500"><defs/><path fill="#da9a70" d="M0 0h100v100H0z"/><path fill="#9c6549" d="M100 0h100v100H100z"/><path fill="#b97f5f" d="M200 0h100v100H200z"/><path fill="#dc9970" d="M300 0h100v100H300z"/><path fill="#c99178" d="M400 0h100v100H400z"/><path fill="#ce8a67" d="M500 0h100v100H500z"/><path fill="#e09666" d="M600 0h100v100H600z"/><path fill="#e9b48f" d="M700 0h100v100H700z"/><path fill="#c57b4b" d="M0 100h100v100H0z"/><path fill="#8b4721" d="M100 100h100v100H100z"/><path fill="#b46939" d="M200 100h100v100H200z"/><path fill="#ab684e" d="M300 100h100v100H300z"/><path fill="#af7a69" d="M400 100h100v100H400z"/><path fill="#c77547" d="M500 100h100v100H500z"/><path fill="#b9602c" d="M600 100h100v100H600z"/><path fill="#cf8c67" d="M700 100h100v100H700z"/><path fill="#bd7b4d" d="M0 200h100v100H0z"/><path fill="#9d4f22" d="M100 200h100v100H100z"/><path fill="#be6e3e" d="M200 200h100v100H200z"/><path fill="#98634a" d="M300 200h100v100H300z"/><path fill="#a66645" d="M400 200h100v100H400z"/><path fill="#d37c50" d="M500 200h100v100H500z"/><path fill="#b76a47" d="M600 200h100v100H600z"/><path fill="#d18a5e" d="M700 200h100v100H700z"/><path fill="#aa6942" d="M0 300h100v100H0z"/><path fill="#833e1e" d="M100 300h100v100H100z"/><path fill="#945032" d="M200 300h100v100H200z"/><path fill="#7d472c" d="M300 300h100v100H300z"/><path fill="#915032" d="M400 300h100v100H400z"/><path fill="#bd6b41" d="M500 300h100v100H500z"/><path fill="#a85b3f" d="M600 300h100v100H600z"/><path fill="#a9745d" d="M700 300h100v100H700z"/><path fill="#cc996a" d="M0 400h100v100H0z"/><path fill="#9c603f" d="M100 400h100v100H100z"/><path fill="#995a44" d="M200 400h100v100H200z"/><path fill="#93563e" d="M300 400h100v100H300z"/><path fill="#9d6045" d="M400 400h100v100H400z"/><path fill="#a96b4d" d="M500 400h100v100H500z"/><path fill="#b67750" d="M600 400h100v100H600z"/><path fill="#8c5d53" d="M700 400h100v100H700z"/></svg>