<svg xmlns="http://www.w3.org/2000/svg" viewBox="0 0 800 500"><defs/><path fill="#8f99a1" d="M0 0h100v100H0z"/><path fill="#929ba2" d="M100 0h100v100H100z"/><path fill="#999ea4" d="M200 0h100v100H200z"/><path fill="#a1a4a9" d="M300 0h100v100H300z"/><path fill="#a9acaf" d="M400 0h100v100H400z"/><path fill="#b0b1b5" d="M500 0h100v100H500z"/><path fill="#b7c3c8" d="M600 0h100v100H600z"/><path fill="#b28084" d="M700 0h100v100H700z"/><path fill="#8d979e" d="M0 100h100v100H0z"/><path fill="#7d858a" d="M100 100h100v100H100z"/><path fill="#8d939b" d="M200 100h100v100H200z"/><path fill="#8b908e" d="M300 100h100v100H300z"/><path fill="#918f85" d="M400 100h100v100H400z"/><path fill="#9fa0a4" d="M500 100h100v100H500z"/><path fill="#a6b1b6" d="M600 100h100v100H600z"/><path fill="#b2878a" d="M700 100h100v100H700z"/><path fill="#899399" d="M0 200h100v100H0z"/><path fill="#788084" d="M100 200h100v100H100z"/><path fill="#8c929a" d="M200 200h100v100H200z"/><path fill="#86888d" d="M300 200h100v100H300z"/><path fill="#827979" d="M400 200h100v100H400z"/><path fill="#959195" d="M500 200h100v100H500z"/><path fill="#a1a9ad" d="M600 200h100v100H600z"/><path fill="#ae8f93" d="M700 200h100v100H700z"/><path fill="#7f8a8e" d="M0 300h100v100H0z"/><path fill="#777e81" d="M100 300h100v100H100z"/><path fill="#898c93" d="M200 300h100v100H200z"/><path fill="#7c7d81" d="M300 300h100v100H300z"/><path fill="#84807e" d="M400 300h100v100H400z"/><path fill="#939496" d="M500 300h100v100H500z"/><path fill="#9ca5a9" d="M600 300h100v100H600z"/><path fill="#a58c91" d="M700 300h100v100H700z"/><path fill="#7f888f" d="M0 400h100v100H0z"/><path fill="#7f878d" d="M100 400h100v100H100z"/><path fill="#828990" d="M200 400h100v100H200z"/><path fill="#7a8184" d="M300 400h100v100H300z"/><path fill="#7e827f" d="M400 400h100v100H400z"/><path fill="#8a8d91" d="M500 400h100v100H500z"/><path fill="#949ca2" d="M600 400h100v100H600z"/><path fill="#9a898e" d="M700 400h100v100H700z"/></svg>