<svg xmlns="http://www.w3.org/2000/svg" viewBox="0 0 800 400"><defs/><path fill="#d8cfc2" d="M0 0h100v100H0z"/><path fill="#d4cabf" d="M100 0h100v100H100z"/><path fill="#e4d1bd" d="M200 0h100v100H200z"/><path fill="#e4d3be" d="M300 0h100v100H300z"/><path fill="#f1d49f" d="M400 0h100v100H400z"/><path fill="#f0d9b1" d="M500 0h100v100H500z"/><path fill="#ece3de" d="M600 0h100v100H600z"/><path fill="#e8ddd8" d="M700 0h100v100H700z"/><path fill="#d3c7bc" d="M0 100h100v100H0z"/><path fill="#d3d0cd" d="M100 100h100v100H100z"/><path fill="#f2dab6" d="M200 100h100v100H200z"/><path fill="#fcc468" d="M300 100h100v100H300z"/><path fill="#edd1ab" d="M400 100h100v100H400z"/><path fill="#ece1db" d="M500 100h100v100H500z"/><path fill="#eae1d9" d="M600 100h100v100H600z"/><path fill="#eae1db" d="M700 100h100v100H700z"/><path fill="#ccc9bd" d="M0 200h100v100H0z"/><path fill="#dec0bc" d="M100 200h100v100H100z"/><path fill="#b9aa87" d="M200 200h100v100H200z"/><path fill="#a7b9a8" d="M300 200h100v100H300z"/><path fill="#e5e2e2" d="M400 200h100v100H400z"/><path fill="#ede5e2" d="M500 200h100v100H500z"/><path fill="#ece3df" d="M600 200h100v100H600z"/><path fill="#ede6de" d="M700 200h100v100H700z"/><path fill="#ad9789" d="M0 300h100v100H0z"/><path fill="#e35453" d="M100 300h100v100H100z"/><path fill="#2b3d35" d="M200 300h100v100H200z"/><path fill="#045f55" d="M300 300h100v100H300z"/><path fill="#d6d6d3" d="M400 300h100v100H400z"/><path fill="#e9dfdb" d="M500 300h100v100H500z"/><path fill="#e0dad4" d="M600 300h100v100H600z"/><path fill="#dcd4ca" d="M700 300h100v100H700z"/></svg>