<svg xmlns="http://www.w3.org/2000/svg" viewBox="0 0 800 400"><defs/><path fill="#2ddf32" d="M0 0h100v100H0z"/><path fill="#57532d" d="M100 0h100v100H100z"/><path fill="#1927d5" d="M200 0h100v100H200z"/><path fill="#1172ea" d="M300 0h100v100H300z"/><path fill="#11a0e6" d="M400 0h100v100H400z"/><path fill="#2d50a3" d="M500 0h100v100H500z"/><path fill="#1b33ba" d="M600 0h100v100H600z"/><path fill="#0bb54a" d="M700 0h100v100H700z"/><path fill="#2bca20" d="M0 100h100v100H0z"/><path fill="#50383c" d="M100 100h100v100H100z"/><path fill="#2f2891" d="M200 100h100v100H200z"/><path fill="#23519f" d="M300 100h100v100H300z"/><path fill="#297586" d="M400 100h100v100H400z"/><path fill="#2f5497" d="M500 100h100v100H500z"/><path fill="#2437ba" d="M600 100h100v100H600z"/><path fill="#147344" d="M700 100h100v100H700z"/><path fill="#44a225" d="M0 200h100v100H0z"/><path fill="#532b37" d="M100 200h100v100H100z"/><path fill="#312b38" d="M200 200h100v100H200z"/><path fill="#3b182c" d="M300 200h100v100H300z"/><path fill="#2b0849" d="M400 200h100v100H400z"/><path fill="#34304c" d="M500 200h100v100H500z"/><path fill="#393381" d="M600 200h100v100H600z"/><path fill="#2c5b54" d="M700 200h100v100H700z"/><path fill="#4d6523" d="M0 300h100v100H0z"/><path fill="#4e1e0d" d="M100 300h100v100H100z"/><path fill="#312e1f" d="M200 300h100v100H200z"/><path fill="#49372a" d="M300 300h100v100H300z"/><path fill="#3c3720" d="M400 300h100v100H400z"/><path fill="#2e2015" d="M500 300h100v100H500z"/><path fill="#311d27" d="M600 300h100v100H600z"/><path fill="#2c412b" d="M700 300h100v100H700z"/></svg>