<svg xmlns="http://www.w3.org/2000/svg" viewBox="0 0 800 500"><defs/><path fill="#f1ece9" d="M0 0h100v100H0z"/><path fill="#ecebea" d="M100 0h100v100H100z"/><path fill="#f1ece9" d="M200 0h100v100H200z"/><path fill="#f5f2f2" d="M300 0h100v100H300z"/><path fill="#f8f5f6" d="M400 0h100v100H400z"/><path fill="#fbf9f6" d="M500 0h100v100H500z"/><path fill="#f0e2e1" d="M600 0h100v100H600z"/><path fill="#e3d9da" d="M700 0h100v100H700z"/><path fill="#8eb496" d="M0 100h100v100H0z"/><path fill="#c3c8b3" d="M100 100h100v100H100z"/><path fill="#9e9193" d="M200 100h100v100H200z"/><path fill="#a39a9d" d="M300 100h100v100H300z"/><path fill="#b1b0b5" d="M400 100h100v100H400z"/><path fill="#d0d2cb" d="M500 100h100v100H500z"/><path fill="#d6888b" d="M600 100h100v100H600z"/><path fill="#ac7d8c" d="M700 100h100v100H700z"/><path fill="#98ac7e" d="M0 200h100v100H0z"/><path fill="#c9c5b7" d="M100 200h100v100H100z"/><path fill="#9ea1a0" d="M200 200h100v100H200z"/><path fill="#65545e" d="M300 200h100v100H300z"/><path fill="#8b4d5e" d="M400 200h100v100H400z"/><path fill="#c88c7f" d="M500 200h100v100H500z"/><path fill="#dac29c" d="M600 200h100v100H600z"/><path fill="#e5cb7e" d="M700 200h100v100H700z"/><path fill="#d2b59d" d="M0 300h100v100H0z"/><path fill="#cbb288" d="M100 300h100v100H100z"/><path fill="#aba595" d="M200 300h100v100H200z"/><path fill="#6a4d47" d="M300 300h100v100H300z"/><path fill="#a6997a" d="M400 300h100v100H400z"/><path fill="#b7b686" d="M500 300h100v100H500z"/><path fill="#f6e180" d="M600 300h100v100H600z"/><path fill="#e4d472" d="M700 300h100v100H700z"/><path fill="#dfd7c9" d="M0 400h100v100H0z"/><path fill="#e5d6be" d="M100 400h100v100H100z"/><path fill="#e9ddc4" d="M200 400h100v100H200z"/><path fill="#b0a895" d="M300 400h100v100H300z"/><path fill="#a1aca7" d="M400 400h100v100H400z"/><path fill="#979da1" d="M500 400h100v100H500z"/><path fill="#e3ce9b" d="M600 400h100v100H600z"/><path fill="#ded2ab" d="M700 400h100v100H700z"/></svg>