<svg xmlns="http://www.w3.org/2000/svg" viewBox="0 0 800 400"><defs/><path fill="#bea79f" d="M0 0h100v100H0z"/><path fill="#7b7272" d="M100 0h100v100H100z"/><path fill="#c5a49b" d="M200 0h100v100H200z"/><path fill="#cfa9a0" d="M300 0h100v100H300z"/><path fill="#a68b83" d="M400 0h100v100H400z"/><path fill="#b1948d" d="M500 0h100v100H500z"/><path fill="#b79b91" d="M600 0h100v100H600z"/><path fill="#b19d99" d="M700 0h100v100H700z"/><path fill="#947f7a" d="M0 100h100v100H0z"/><path fill="#7a6260" d="M100 100h100v100H100z"/><path fill="#a18084" d="M200 100h100v100H200z"/><path fill="#a78886" d="M300 100h100v100H300z"/><path fill="#9c7970" d="M400 100h100v100H400z"/><path fill="#87695d" d="M500 100h100v100H500z"/><path fill="#b9988d" d="M600 100h100v100H600z"/><path fill="#ae9d9a" d="M700 100h100v100H700z"/><path fill="#ab8585" d="M0 200h100v100H0z"/><path fill="#6d5c51" d="M100 200h100v100H100z"/><path fill="#885c5e" d="M200 200h100v100H200z"/><path fill="#7e595c" d="M300 200h100v100H300z"/><path fill="#a19b75" d="M400 200h100v100H400z"/><path fill="#795249" d="M500 200h100v100H500z"/><path fill="#855758" d="M600 200h100v100H600z"/><path fill="#9a6a6f" d="M700 200h100v100H700z"/><path fill="#898275" d="M0 300h100v100H0z"/><path fill="#5c744a" d="M100 300h100v100H100z"/><path fill="#6e6953" d="M200 300h100v100H200z"/><path fill="#677d44" d="M300 300h100v100H300z"/><path fill="#75724c" d="M400 300h100v100H400z"/><path fill="#784647" d="M500 300h100v100H500z"/><path fill="#7e263e" d="M600 300h100v100H600z"/><path fill="#8e5459" d="M700 300h100v100H700z"/></svg>