<svg xmlns="http://www.w3.org/2000/svg" viewBox="0 0 800 400"><defs/><path fill="#accab9" d="M0 0h100v100H0z"/><path fill="#59909a" d="M100 0h100v100H100z"/><path fill="#8ba5a5" d="M200 0h100v100H200z"/><path fill="#7ca9ae" d="M300 0h100v100H300z"/><path fill="#8596b2" d="M400 0h100v100H400z"/><path fill="#8d9cb1" d="M500 0h100v100H500z"/><path fill="#80a4b2" d="M600 0h100v100H600z"/><path fill="#adc5bd" d="M700 0h100v100H700z"/><path fill="#95bcb1" d="M0 100h100v100H0z"/><path fill="#63a8a7" d="M100 100h100v100H100z"/><path fill="#c4aaab" d="M200 100h100v100H200z"/><path fill="#b3abae" d="M300 100h100v100H300z"/><path fill="#8aa3a2" d="M400 100h100v100H400z"/><path fill="#968faf" d="M500 100h100v100H500z"/><path fill="#8a8eb1" d="M600 100h100v100H600z"/><path fill="#909bad" d="M700 100h100v100H700z"/><path fill="#76afa8" d="M0 200h100v100H0z"/><path fill="#6a8f9e" d="M100 200h100v100H100z"/><path fill="#dba5ba" d="M200 200h100v100H200z"/><path fill="#c499ad" d="M300 200h100v100H300z"/><path fill="#a496a5" d="M400 200h100v100H400z"/><path fill="#9b95b2" d="M500 200h100v100H500z"/><path fill="#8784a9" d="M600 200h100v100H600z"/><path fill="#9f94a1" d="M700 200h100v100H700z"/><path fill="#75959d" d="M0 300h100v100H0z"/><path fill="#9e8fa3" d="M100 300h100v100H100z"/><path fill="#a38ca3" d="M200 300h100v100H200z"/><path fill="#a28ba6" d="M300 300h100v100H300z"/><path fill="#c19ab3" d="M400 300h100v100H400z"/><path fill="#bb92ab" d="M500 300h100v100H500z"/><path fill="#947e9a" d="M600 300h100v100H600z"/><path fill="#818c8d" d="M700 300h100v100H700z"/></svg>