<svg xmlns="http://www.w3.org/2000/svg" viewBox="0 0 800 600"><defs/><path fill="#cbddd9" d="M0 0h100v100H0z"/><path fill="#d9d7d2" d="M100 0h100v100H100z"/><path fill="#f2e7e3" d="M200 0h100v100H200z"/><path fill="#f4e9e6" d="M300 0h100v100H300z"/><path fill="#f9f1ec" d="M400 0h100v100H400z"/><path fill="#f0ece7" d="M500 0h100v100H500z"/><path fill="#ebe6e3" d="M600 0h100v100H600z"/><path fill="#e6e2f2" d="M700 0h100v100H700z"/><path fill="#3a8a75" d="M0 100h100v100H0z"/><path fill="#907c66" d="M100 100h100v100H100z"/><path fill="#939989" d="M200 100h100v100H200z"/><path fill="#829282" d="M300 100h100v100H300z"/><path fill="#b4a098" d="M400 100h100v100H400z"/><path fill="#8e7f73" d="M500 100h100v100H500z"/><path fill="#7a7b70" d="M600 100h100v100H600z"/><path fill="#71a7c5" d="M700 100h100v100H700z"/><path fill="#549279" d="M0 200h100v100H0z"/><path fill="#827a65" d="M100 200h100v100H100z"/><path fill="#576860" d="M200 200h100v100H200z"/><path fill="#665a4d" d="M300 200h100v100H300z"/><path fill="#7b726a" d="M400 200h100v100H400z"/><path fill="#453e75" d="M500 200h100v100H500z"/><path fill="#4a4b84" d="M600 200h100v100H600z"/><path fill="#6ab6be" d="M700 200h100v100H700z"/><path fill="#718e81" d="M0 300h100v100H0z"/><path fill="#8b7153" d="M100 300h100v100H100z"/><path fill="#587d5d" d="M200 300h100v100H200z"/><path fill="#42766b" d="M300 300h100v100H300z"/><path fill="#51568a" d="M400 300h100v100H400z"/><path fill="#302981" d="M500 300h100v100H500z"/><path fill="#27247b" d="M600 300h100v100H600z"/><path fill="#6c90b8" d="M700 300h100v100H700z"/><path fill="#898b78" d="M0 400h100v100H0z"/><path fill="#8f5330" d="M100 400h100v100H100z"/><path fill="#1a9d88" d="M200 400h100v100H200z"/><path fill="#00bba8" d="M300 400h100v100H300z"/><path fill="#2e4062" d="M400 400h100v100H400z"/><path fill="#38266b" d="M500 400h100v100H500z"/><path fill="#453157" d="M600 400h100v100H600z"/><path fill="#757c80" d="M700 400h100v100H700z"/><path fill="#ded4ca" d="M0 500h100v100H0z"/><path fill="#e1c9ba" d="M100 500h100v100H100z"/><path fill="#d2c2b7" d="M200 500h100v100H200z"/><path fill="#d1c1b7" d="M300 500h100v100H300z"/><path fill="#dac5b8" d="M400 500h100v100H400z"/><path fill="#d0c2ba" d="M500 500h100v100H500z"/><path fill="#dbc6b4" d="M600 500h100v100H600z"/><path fill="#e1d1c5" d="M700 500h100v100H700z"/></svg>