<svg xmlns="http://www.w3.org/2000/svg" viewBox="0 0 800 600"><defs/><path fill="#e8dce6" d="M0 0h100v100H0z"/><path fill="#ebe6ea" d="M100 0h100v100H100z"/><path fill="#f3f4f3" d="M200 0h100v100H200z"/><path fill="#f5f3f4" d="M300 0h100v100H300z"/><path fill="#f4f4f5" d="M400 0h100v100H400z"/><path fill="#f9f6f6" d="M500 0h100v100H500z"/><path fill="#f7fbfb" d="M600 0h100v100H600z"/><path fill="#e2f6f6" d="M700 0h100v100H700z"/><path fill="#af90ad" d="M0 100h100v100H0z"/><path fill="#beacb4" d="M100 100h100v100H100z"/><path fill="#86a1a6" d="M200 100h100v100H200z"/><path fill="#b9d0d4" d="M300 100h100v100H300z"/><path fill="#d3eaea" d="M400 100h100v100H400z"/><path fill="#c7d4d8" d="M500 100h100v100H500z"/><path fill="#b7c6ba" d="M600 100h100v100H600z"/><path fill="#66d0ba" d="M700 100h100v100H700z"/><path fill="#b89fb7" d="M0 200h100v100H0z"/><path fill="#c2c1bc" d="M100 200h100v100H100z"/><path fill="#638b90" d="M200 200h100v100H200z"/><path fill="#b2c0c0" d="M300 200h100v100H300z"/><path fill="#cedfdb" d="M400 200h100v100H400z"/><path fill="#68a59e" d="M500 200h100v100H500z"/><path fill="#516253" d="M600 200h100v100H600z"/><path fill="#57a799" d="M700 200h100v100H700z"/><path fill="#b090a8" d="M0 300h100v100H0z"/><path fill="#a6adb2" d="M100 300h100v100H100z"/><path fill="#6c949b" d="M200 300h100v100H200z"/><path fill="#c2c8cc" d="M300 300h100v100H300z"/><path fill="#c6c2c4" d="M400 300h100v100H400z"/><path fill="#b2b4b0" d="M500 300h100v100H500z"/><path fill="#908074" d="M600 300h100v100H600z"/><path fill="#63a09c" d="M700 300h100v100H700z"/><path fill="#aea0ab" d="M0 400h100v100H0z"/><path fill="#bbbdbb" d="M100 400h100v100H100z"/><path fill="#f5f6f7" d="M200 400h100v100H200z"/><path fill="#cddce0" d="M300 400h100v100H300z"/><path fill="#a0a4a4" d="M400 400h100v100H400z"/><path fill="#95a9b1" d="M500 400h100v100H500z"/><path fill="#99b3be" d="M600 400h100v100H600z"/><path fill="#9cc2bc" d="M700 400h100v100H700z"/><path fill="#f6f5f6" d="M0 500h100v100H0z"/><path fill="#fefffe" d="M100 500h100v100H100z"/><path fill="#f5eced" d="M200 500h100v100H200z"/><path fill="#9ecbbf" d="M300 500h100v100H300z"/><path fill="#abc9c9" d="M400 500h100v100H400z"/><path fill="#9eb9c3" d="M500 500h100v100H500z"/><path fill="#bdd1d7" d="M600 500h100v100H600z"/><path fill="#ede9e0" d="M700 500h100v100H700z"/></svg>