<svg xmlns="http://www.w3.org/2000/svg" viewBox="0 0 800 500"><defs/><path fill="#95a5af" d="M0 0h100v100H0z"/><path fill="#a8938a" d="M100 0h100v100H100z"/><path fill="#cbbeb9" d="M200 0h100v100H200z"/><path fill="#d0c3c1" d="M300 0h100v100H300z"/><path fill="#ccc1bf" d="M400 0h100v100H400z"/><path fill="#d1c3bc" d="M500 0h100v100H500z"/><path fill="#cfbcb3" d="M600 0h100v100H600z"/><path fill="#c8b8ac" d="M700 0h100v100H700z"/><path fill="#7a8f9d" d="M0 100h100v100H0z"/><path fill="#9f7a6a" d="M100 100h100v100H100z"/><path fill="#cebeb2" d="M200 100h100v100H200z"/><path fill="#c8bab2" d="M300 100h100v100H300z"/><path fill="#c3b6af" d="M400 100h100v100H400z"/><path fill="#d5c5b8" d="M500 100h100v100H500z"/><path fill="#bcac9f" d="M600 100h100v100H600z"/><path fill="#b7ad9a" d="M700 100h100v100H700z"/><path fill="#87888d" d="M0 200h100v100H0z"/><path fill="#92775f" d="M100 200h100v100H100z"/><path fill="#d7cfc1" d="M200 200h100v100H200z"/><path fill="#c1afbc" d="M300 200h100v100H300z"/><path fill="#bfb1c2" d="M400 200h100v100H400z"/><path fill="#d6c3b9" d="M500 200h100v100H500z"/><path fill="#9f928b" d="M600 200h100v100H600z"/><path fill="#92a28e" d="M700 200h100v100H700z"/><path fill="#93827c" d="M0 300h100v100H0z"/><path fill="#8f644a" d="M100 300h100v100H100z"/><path fill="#9b7871" d="M200 300h100v100H200z"/><path fill="#987177" d="M300 300h100v100H300z"/><path fill="#97797f" d="M400 300h100v100H400z"/><path fill="#997876" d="M500 300h100v100H500z"/><path fill="#976c51" d="M600 300h100v100H600z"/><path fill="#657e6e" d="M700 300h100v100H700z"/><path fill="#947b6f" d="M0 400h100v100H0z"/><path fill="#9a6b55" d="M100 400h100v100H100z"/><path fill="#9e7660" d="M200 400h100v100H200z"/><path fill="#ab8974" d="M300 400h100v100H300z"/><path fill="#a98c7d" d="M400 400h100v100H400z"/><path fill="#af9283" d="M500 400h100v100H500z"/><path fill="#b38f7d" d="M600 400h100v100H600z"/><path fill="#a4836f" d="M700 400h100v100H700z"/></svg>