<svg xmlns="http://www.w3.org/2000/svg" viewBox="0 0 800 1000"><defs/><path d="M0 0h100v100H0z"/><path fill="#131313" d="M100 0h100v100H100z"/><path fill="#555" d="M200 0h100v100H200z"/><path fill="#515151" d="M300 0h100v100H300z"/><path fill="#626262" d="M400 0h100v100H400z"/><path fill="#676767" d="M500 0h100v100H500z"/><path fill="#2b2b2b" d="M600 0h100v100H600z"/><path d="M700 0h100v100H700z"/><path fill="#464646" d="M0 100h100v100H0z"/><path fill="#565656" d="M100 100h100v100H100z"/><path fill="#464646" d="M200 100h100v100H200z"/><path fill="#5b5b5b" d="M300 100h100v100H300z"/><path fill="#565656" d="M400 100h100v100H400z"/><path fill="#525252" d="M500 100h100v100H500z"/><path fill="#555" d="M600 100h100v100H600z"/><path fill="#505050" d="M700 100h100v100H700z"/><path fill="#161616" d="M0 200h100v100H0z"/><path fill="#3f3f3f" d="M100 200h100v100H100z"/><path fill="#717171" d="M200 200h100v100H200z"/><path fill="#6c6c6c" d="M300 200h100v100H300z"/><path fill="#7e7e7e" d="M400 200h100v100H400z"/><path fill="#868686" d="M500 200h100v100H500z"/><path fill="#454545" d="M600 200h100v100H600z"/><path fill="#1b1b1b" d="M700 200h100v100H700z"/><path d="M0 300h100v100H0zm100 0h100v100H100zm100 0h100v100H200zm100 0h100v100H300zm100 0h100v100H400zm100 0h100v100H500zm100 0h100v100H600zm100 0h100v100H700z"/><path fill="#0b0b0b" d="M0 400h100v100H0z"/><path fill="#111211" d="M100 400h100v100H100z"/><path fill="#100f0f" d="M200 400h100v100H200z"/><path fill="#121111" d="M300 400h100v100H300z"/><path fill="#141313" d="M400 400h100v100H400z"/><path fill="#131313" d="M500 400h100v100H500zm100 0h100v100H600z"/><path fill="#0d0d0d" d="M700 400h100v100H700z"/><path fill="#3e3e3e" d="M0 500h100v100H0z"/><path fill="#6f6e6e" d="M100 500h100v100H100z"/><path fill="#6d7170" d="M200 500h100v100H200z"/><path fill="#737776" d="M300 500h100v100H300z"/><path fill="#818684" d="M400 500h100v100H400z"/><path fill="#717171" d="M500 500h100v100H500z"/><path fill="#696768" d="M600 500h100v100H600z"/><path fill="#5a5b5a" d="M700 500h100v100H700z"/><path fill="#040303" d="M0 600h100v100H0z"/><path fill="#0d1a1a" d="M100 600h100v100H100z"/><path fill="#061211" d="M200 600h100v100H200z"/><path fill="#0c1710" d="M300 600h100v100H300z"/><path fill="#0c1f18" d="M400 600h100v100H400z"/><path fill="#050f0e" d="M500 600h100v100H500z"/><path fill="#010805" d="M600 600h100v100H600z"/><path fill="#131d19" d="M700 600h100v100H700z"/><path fill="#060808" d="M0 700h100v100H0z"/><path fill="#00090a" d="M100 700h100v100H100z"/><path fill="#1a160d" d="M200 700h100v100H200z"/><path fill="#4d432e" d="M300 700h100v100H300z"/><path fill="#202a1a" d="M400 700h100v100H400z"/><path fill="#031410" d="M500 700h100v100H500z"/><path fill="#021511" d="M600 700h100v100H600z"/><path fill="#151d1a" d="M700 700h100v100H700z"/><path d="M0 800h100v100H0z"/><path fill="#121513" d="M100 800h100v100H100z"/><path fill="#6b6751" d="M200 800h100v100H200z"/><path fill="#71644b" d="M300 800h100v100H300z"/><path fill="#475239" d="M400 800h100v100H400z"/><path fill="#17271e" d="M500 800h100v100H500z"/><path fill="#030a0a" d="M600 800h100v100H600z"/><path fill="#151c18" d="M700 800h100v100H700z"/><path d="M0 900h100v100H0z"/><path fill="#434544" d="M100 900h100v100H100z"/><path fill="#8d8d89" d="M200 900h100v100H200z"/><path fill="#6a6a66" d="M300 900h100v100H300z"/><path fill="#7e807d" d="M400 900h100v100H400z"/><path fill="#8e918e" d="M500 900h100v100H500z"/><path fill="#303131" d="M600 900h100v100H600z"/><path fill="#0c0d0c" d="M700 900h100v100H700z"/></svg>