<svg xmlns="http://www.w3.org/2000/svg" viewBox="0 0 800 600"><defs/><path fill="#d1d6da" d="M0 0h100v100H0z"/><path fill="#cfd2e1" d="M100 0h100v100H100z"/><path fill="#cfd4e1" d="M200 0h100v100H200z"/><path fill="#ced3e1" d="M300 0h100v100H300z"/><path fill="#ced2e0" d="M400 0h100v100H400z"/><path fill="#ccd0df" d="M500 0h100v100H500z"/><path fill="#ced6d9" d="M600 0h100v100H600z"/><path fill="#d4dacf" d="M700 0h100v100H700z"/><path fill="#c7c9bb" d="M0 100h100v100H0z"/><path fill="#b2b8d6" d="M100 100h100v100H100z"/><path fill="#aeb7de" d="M200 100h100v100H200z"/><path fill="#b0b8db" d="M300 100h100v100H300z"/><path fill="#afb7db" d="M400 100h100v100H400z"/><path fill="#adb5dc" d="M500 100h100v100H500z"/><path fill="#b4c7c4" d="M600 100h100v100H600z"/><path fill="#d5dc9e" d="M700 100h100v100H700z"/><path fill="#c8cab7" d="M0 200h100v100H0z"/><path fill="#b1b9d4" d="M100 200h100v100H100z"/><path fill="#aeb7e2" d="M200 200h100v100H200z"/><path fill="#b1b9df" d="M300 200h100v100H300z"/><path fill="#adb7e0" d="M400 200h100v100H400z"/><path fill="#acb6e0" d="M500 200h100v100H500z"/><path fill="#b3c5ce" d="M600 200h100v100H600z"/><path fill="#cfd9a4" d="M700 200h100v100H700z"/><path fill="#c8cab8" d="M0 300h100v100H0z"/><path fill="#babbc8" d="M100 300h100v100H100z"/><path fill="#b8bcce" d="M200 300h100v100H200z"/><path fill="#b7bacd" d="M300 300h100v100H300z"/><path fill="#b8bcce" d="M400 300h100v100H400z"/><path fill="#bcbdcb" d="M500 300h100v100H500z"/><path fill="#b5c4c6" d="M600 300h100v100H600z"/><path fill="#c0d2b1" d="M700 300h100v100H700z"/><path fill="#cac6ae" d="M0 400h100v100H0z"/><path fill="#d0b98d" d="M100 400h100v100H100z"/><path fill="#d0b98b" d="M200 400h100v100H200z"/><path fill="#cfb98b" d="M300 400h100v100H300z"/><path fill="#cfba8e" d="M400 400h100v100H400z"/><path fill="#d4b988" d="M500 400h100v100H500z"/><path fill="#bbbb9d" d="M600 400h100v100H600z"/><path fill="#b4cbba" d="M700 400h100v100H700z"/><path fill="#c9cbc4" d="M0 500h100v100H0z"/><path fill="#d2cabb" d="M100 500h100v100H100z"/><path fill="#d2c9b8" d="M200 500h100v100H200z"/><path fill="#cfcabd" d="M300 500h100v100H300z"/><path fill="#d3cec1" d="M400 500h100v100H400z"/><path fill="#d2cdbf" d="M500 500h100v100H500z"/><path fill="#d1cfc7" d="M600 500h100v100H600z"/><path fill="#c8d3d7" d="M700 500h100v100H700z"/></svg>