<svg xmlns="http://www.w3.org/2000/svg" viewBox="0 0 800 400"><defs/><path fill="#97868a" d="M0 0h100v100H0z"/><path fill="#a89b9a" d="M100 0h100v100H100z"/><path fill="#a09393" d="M200 0h100v100H200z"/><path fill="#8b8c9c" d="M300 0h100v100H300z"/><path fill="#afb2bf" d="M400 0h100v100H400z"/><path fill="#c9bab4" d="M500 0h100v100H500z"/><path fill="#dacbc3" d="M600 0h100v100H600z"/><path fill="#7c6b78" d="M700 0h100v100H700z"/><path fill="#807274" d="M0 100h100v100H0z"/><path fill="#a0928e" d="M100 100h100v100H100z"/><path fill="#b7b2aa" d="M200 100h100v100H200z"/><path fill="#868c9a" d="M300 100h100v100H300z"/><path fill="#a6aab5" d="M400 100h100v100H400z"/><path fill="#e8e4d3" d="M500 100h100v100H500z"/><path fill="#ebe6d5" d="M600 100h100v100H600z"/><path fill="#7e7077" d="M700 100h100v100H700z"/><path fill="#84757a" d="M0 200h100v100H0z"/><path fill="#776a6f" d="M100 200h100v100H100z"/><path fill="#a6938d" d="M200 200h100v100H200z"/><path fill="#9f8a82" d="M300 200h100v100H300z"/><path fill="#a28c83" d="M400 200h100v100H400z"/><path fill="#8d858b" d="M500 200h100v100H500z"/><path fill="#5f586d" d="M600 200h100v100H600z"/><path fill="#5c5a68" d="M700 200h100v100H700z"/><path fill="#351e2f" d="M0 300h100v100H0z"/><path fill="#55424c" d="M100 300h100v100H100z"/><path fill="#866766" d="M200 300h100v100H200z"/><path fill="#816561" d="M300 300h100v100H300z"/><path fill="#6b5c65" d="M400 300h100v100H400z"/><path fill="#5a4a5c" d="M500 300h100v100H500z"/><path fill="#55485d" d="M600 300h100v100H600z"/><path fill="#4a394e" d="M700 300h100v100H700z"/></svg>