<svg xmlns="http://www.w3.org/2000/svg" viewBox="0 0 800 500"><defs/><path fill="#dce3e2" d="M0 0h100v100H0z"/><path fill="#c9d9d2" d="M100 0h100v100H100z"/><path fill="#dbe1e2" d="M200 0h100v100H200z"/><path fill="#e0e5e7" d="M300 0h100v100H300z"/><path fill="#e4eaeb" d="M400 0h100v100H400z"/><path fill="#e5ebed" d="M500 0h100v100H500z"/><path fill="#e2e8ea" d="M600 0h100v100H600z"/><path fill="#e6eded" d="M700 0h100v100H700z"/><path fill="#d5dfdd" d="M0 100h100v100H0z"/><path fill="#c8d7d1" d="M100 100h100v100H100z"/><path fill="#e2e6e9" d="M200 100h100v100H200z"/><path fill="#dadbdf" d="M300 100h100v100H300z"/><path fill="#dadcdf" d="M400 100h100v100H400z"/><path fill="#d6d7db" d="M500 100h100v100H500z"/><path fill="#d8dce0" d="M600 100h100v100H600z"/><path fill="#e4e9ec" d="M700 100h100v100H700z"/><path fill="#c7d5d1" d="M0 200h100v100H0z"/><path fill="#c1d0ca" d="M100 200h100v100H100z"/><path fill="#dbe0e3" d="M200 200h100v100H200z"/><path fill="#d3d8da" d="M300 200h100v100H300z"/><path fill="#d4d7d9" d="M400 200h100v100H400z"/><path fill="#d2d5d7" d="M500 200h100v100H500z"/><path fill="#d7dbdd" d="M600 200h100v100H600z"/><path fill="#e4e9eb" d="M700 200h100v100H700z"/><path fill="#c9dcd6" d="M0 300h100v100H0z"/><path fill="#ccdad7" d="M100 300h100v100H100z"/><path fill="#d6dade" d="M200 300h100v100H200z"/><path fill="#d7dcdf" d="M300 300h100v100H300z"/><path fill="#dadee1" d="M400 300h100v100H400z"/><path fill="#dadde1" d="M500 300h100v100H500z"/><path fill="#d5d8db" d="M600 300h100v100H600z"/><path fill="#dee5e5" d="M700 300h100v100H700z"/><path fill="#dfe6e8" d="M0 400h100v100H0z"/><path fill="#dbe0e3" d="M100 400h100v100H100z"/><path fill="#dadee1" d="M200 400h100v100H200z"/><path fill="#dce0e3" d="M300 400h100v100H300z"/><path fill="#dadfe1" d="M400 400h100v100H400z"/><path fill="#d4d7db" d="M500 400h100v100H500z"/><path fill="#d7dbdd" d="M600 400h100v100H600z"/><path fill="#e3e8e9" d="M700 400h100v100H700z"/></svg>