<svg xmlns="http://www.w3.org/2000/svg" viewBox="0 0 800 600"><defs/><path fill="#745c58" d="M0 0h100v100H0z"/><path fill="#826560" d="M100 0h100v100H100z"/><path fill="#856b65" d="M200 0h100v100H200z"/><path fill="#856d68" d="M300 0h100v100H300z"/><path fill="#806b64" d="M400 0h100v100H400z"/><path fill="#7b6762" d="M500 0h100v100H500z"/><path fill="#877570" d="M600 0h100v100H600z"/><path fill="#7d6965" d="M700 0h100v100H700z"/><path fill="#6e5550" d="M0 100h100v100H0z"/><path fill="#6e564e" d="M100 100h100v100H100z"/><path fill="#87736c" d="M200 100h100v100H200z"/><path fill="#85756d" d="M300 100h100v100H300z"/><path fill="#776661" d="M400 100h100v100H400z"/><path fill="#72635f" d="M500 100h100v100H500z"/><path fill="#676060" d="M600 100h100v100H600z"/><path fill="#7c5e5c" d="M700 100h100v100H700z"/><path fill="#6c544f" d="M0 200h100v100H0z"/><path fill="#855649" d="M100 200h100v100H100z"/><path fill="#776158" d="M200 200h100v100H200z"/><path fill="#66605a" d="M300 200h100v100H300z"/><path fill="#605154" d="M400 200h100v100H400z"/><path fill="#564f50" d="M500 200h100v100H500z"/><path fill="#464446" d="M600 200h100v100H600z"/><path fill="#7e5854" d="M700 200h100v100H700z"/><path fill="#7c5e54" d="M0 300h100v100H0z"/><path fill="#c58f6c" d="M100 300h100v100H100z"/><path fill="#a1876f" d="M200 300h100v100H200z"/><path fill="#a08e7b" d="M300 300h100v100H300z"/><path fill="#8a7369" d="M400 300h100v100H400z"/><path fill="#8e7c6c" d="M500 300h100v100H500z"/><path fill="#897667" d="M600 300h100v100H600z"/><path fill="#8b5f59" d="M700 300h100v100H700z"/><path fill="#907563" d="M0 400h100v100H0z"/><path fill="#dfc495" d="M100 400h100v100H100z"/><path fill="#b4997b" d="M200 400h100v100H200z"/><path fill="#b29278" d="M300 400h100v100H300z"/><path fill="#c1a485" d="M400 400h100v100H400z"/><path fill="#b19c80" d="M500 400h100v100H500z"/><path fill="#917661" d="M600 400h100v100H600z"/><path fill="#a16d5e" d="M700 400h100v100H700z"/><path fill="#99806c" d="M0 500h100v100H0z"/><path fill="#cab38d" d="M100 500h100v100H100z"/><path fill="#b6977a" d="M200 500h100v100H200z"/><path fill="#b6987e" d="M300 500h100v100H300z"/><path fill="#baa087" d="M400 500h100v100H400z"/><path fill="#9e8f7e" d="M500 500h100v100H500z"/><path fill="#ad9071" d="M600 500h100v100H600z"/><path fill="#b4896e" d="M700 500h100v100H700z"/></svg>