<svg xmlns="http://www.w3.org/2000/svg" viewBox="0 0 800 500"><defs/><path fill="#ededed" d="M0 0h100v100H0z"/><path fill="#d1d1d1" d="M100 0h100v100H100z"/><path fill="#dcdcdc" d="M200 0h100v100H200z"/><path fill="#f3f3f3" d="M300 0h100v100H300z"/><path fill="#ebebeb" d="M400 0h100v100H400z"/><path fill="#f5f5f5" d="M500 0h100v100H500z"/><path fill="#c9c9c9" d="M600 0h100v100H600z"/><path fill="#c4c4c4" d="M700 0h100v100H700z"/><path fill="#d9d9d9" d="M0 100h100v100H0z"/><path fill="#676767" d="M100 100h100v100H100z"/><path fill="#d7d7d7" d="M200 100h100v100H200z"/><path fill="#fff" d="M300 100h100v100H300z"/><path fill="#f8f8f8" d="M400 100h100v100H400z"/><path fill="#fff" d="M500 100h100v100H500z"/><path fill="silver" d="M600 100h100v100H600z"/><path fill="#9d9d9d" d="M700 100h100v100H700z"/><path fill="#afafaf" d="M0 200h100v100H0z"/><path fill="#5d5d5d" d="M100 200h100v100H100z"/><path fill="#aaa" d="M200 200h100v100H200z"/><path fill="#c1c1c1" d="M300 200h100v100H300z"/><path fill="#bfbfbf" d="M400 200h100v100H400z"/><path fill="#c2c2c2" d="M500 200h100v100H500z"/><path fill="#989898" d="M600 200h100v100H600z"/><path fill="#797979" d="M700 200h100v100H700z"/><path fill="#909090" d="M0 300h100v100H0z"/><path fill="#8f8f8f" d="M100 300h100v100H100z"/><path fill="#5e5e5e" d="M200 300h100v100H200z"/><path fill="#5b5b5b" d="M300 300h100v100H300z"/><path fill="#595959" d="M400 300h100v100H400z"/><path fill="#4b4b4b" d="M500 300h100v100H500z"/><path fill="#616161" d="M600 300h100v100H600z"/><path fill="#4a4a4a" d="M700 300h100v100H700z"/><path fill="#909090" d="M0 400h100v100H0z"/><path fill="#b8b8b8" d="M100 400h100v100H100z"/><path fill="#bfbfbf" d="M200 400h100v100H200z"/><path fill="#dedede" d="M300 400h100v100H300z"/><path fill="#737373" d="M400 400h100v100H400z"/><path fill="#4f4f4f" d="M500 400h100v100H500z"/><path fill="#a4a4a4" d="M600 400h100v100H600zm100 0h100v100H700z"/></svg>