<svg xmlns="http://www.w3.org/2000/svg" viewBox="0 0 800 500"><defs/><path fill="#bcbcb6" d="M0 0h100v100H0z"/><path fill="#b3b8b3" d="M100 0h100v100H100z"/><path fill="#bfbfb4" d="M200 0h100v100H200z"/><path fill="#cdccba" d="M300 0h100v100H300z"/><path fill="#b6b6af" d="M400 0h100v100H400z"/><path fill="#d2d0b9" d="M500 0h100v100H500z"/><path fill="#cdc7b4" d="M600 0h100v100H600z"/><path fill="#bfc1be" d="M700 0h100v100H700z"/><path fill="#939378" d="M0 100h100v100H0z"/><path fill="#8c846e" d="M100 100h100v100H100z"/><path fill="#a69475" d="M200 100h100v100H200z"/><path fill="#cbb66c" d="M300 100h100v100H300z"/><path fill="#b8a867" d="M400 100h100v100H400z"/><path fill="#bfb168" d="M500 100h100v100H500z"/><path fill="#b7a256" d="M600 100h100v100H600z"/><path fill="#8e9486" d="M700 100h100v100H700z"/><path fill="#9f9681" d="M0 200h100v100H0z"/><path fill="#957c71" d="M100 200h100v100H100z"/><path fill="#9e937e" d="M200 200h100v100H200z"/><path fill="#ab9d70" d="M300 200h100v100H300z"/><path fill="#a76779" d="M400 200h100v100H400z"/><path fill="#713a66" d="M500 200h100v100H500z"/><path fill="#96836a" d="M600 200h100v100H600z"/><path fill="#b2a47d" d="M700 200h100v100H700z"/><path fill="#a09888" d="M0 300h100v100H0z"/><path fill="#a87d82" d="M100 300h100v100H100z"/><path fill="#b29584" d="M200 300h100v100H200z"/><path fill="#a98e78" d="M300 300h100v100H300z"/><path fill="#b58886" d="M400 300h100v100H400z"/><path fill="#9d6c81" d="M500 300h100v100H500z"/><path fill="#af887a" d="M600 300h100v100H600z"/><path fill="#b9956e" d="M700 300h100v100H700z"/><path fill="#b8bbbb" d="M0 400h100v100H0z"/><path fill="#c4bdb6" d="M100 400h100v100H100z"/><path fill="#c0b9b3" d="M200 400h100v100H200z"/><path fill="#c2bcb4" d="M300 400h100v100H300z"/><path fill="#cbc7b7" d="M400 400h100v100H400z"/><path fill="#cac5b4" d="M500 400h100v100H500z"/><path fill="#cac1b1" d="M600 400h100v100H600z"/><path fill="#b7b2ab" d="M700 400h100v100H700z"/></svg>