<svg xmlns="http://www.w3.org/2000/svg" viewBox="0 0 800 400"><defs/><path fill="#7d3b2d" d="M0 0h100v100H0z"/><path fill="#6e2a1f" d="M100 0h100v100H100z"/><path fill="#a23f2f" d="M200 0h100v100H200z"/><path fill="#ad421d" d="M300 0h100v100H300z"/><path fill="#a24120" d="M400 0h100v100H400z"/><path fill="#9b4a31" d="M500 0h100v100H500z"/><path fill="#84482d" d="M600 0h100v100H600z"/><path fill="#6e4d2d" d="M700 0h100v100H700z"/><path fill="#64271a" d="M0 100h100v100H0z"/><path fill="#7c3422" d="M100 100h100v100H100z"/><path fill="#b75132" d="M200 100h100v100H200z"/><path fill="#9d4820" d="M300 100h100v100H300z"/><path fill="#953e1f" d="M400 100h100v100H400z"/><path fill="#9b3e27" d="M500 100h100v100H500z"/><path fill="#8a3821" d="M600 100h100v100H600z"/><path fill="#703820" d="M700 100h100v100H700z"/><path fill="#571f14" d="M0 200h100v100H0z"/><path fill="#782816" d="M100 200h100v100H100z"/><path fill="#ad4225" d="M200 200h100v100H200z"/><path fill="#732b15" d="M300 200h100v100H300z"/><path fill="#712d18" d="M400 200h100v100H400z"/><path fill="#973520" d="M500 200h100v100H500z"/><path fill="#81331c" d="M600 200h100v100H600z"/><path fill="#594324" d="M700 200h100v100H700z"/><path fill="#571f16" d="M0 300h100v100H0z"/><path fill="#5a2011" d="M100 300h100v100H100z"/><path fill="#5e2210" d="M200 300h100v100H200z"/><path fill="#541b0b" d="M300 300h100v100H300z"/><path fill="#60210f" d="M400 300h100v100H400z"/><path fill="#6d2513" d="M500 300h100v100H500z"/><path fill="#5b2614" d="M600 300h100v100H600z"/><path fill="#52351e" d="M700 300h100v100H700z"/></svg>