<svg xmlns="http://www.w3.org/2000/svg" viewBox="0 0 800 600"><defs/><path fill="#f3f1ee" d="M0 0h100v100H0z"/><path fill="#e5e1e0" d="M100 0h100v100H100z"/><path fill="#e7e6e6" d="M200 0h100v100H200z"/><path fill="#f3f0eb" d="M300 0h100v100H300z"/><path fill="#f7f6ee" d="M400 0h100v100H400z"/><path fill="#eeebe9" d="M500 0h100v100H500z"/><path fill="#efe9e8" d="M600 0h100v100H600z"/><path fill="#ede9e7" d="M700 0h100v100H700z"/><path fill="#c8b8af" d="M0 100h100v100H0z"/><path fill="#978988" d="M100 100h100v100H100z"/><path fill="#b1a8a6" d="M200 100h100v100H200z"/><path fill="#bcb298" d="M300 100h100v100H300z"/><path fill="#aaa591" d="M400 100h100v100H400z"/><path fill="#757b79" d="M500 100h100v100H500z"/><path fill="#858484" d="M600 100h100v100H600z"/><path fill="#a28e83" d="M700 100h100v100H700z"/><path fill="#d2ccbe" d="M0 200h100v100H0z"/><path fill="#aa9696" d="M100 200h100v100H100z"/><path fill="#c1a5ad" d="M200 200h100v100H200z"/><path fill="#c9c0b0" d="M300 200h100v100H300z"/><path fill="#a09a95" d="M400 200h100v100H400z"/><path fill="#767f7a" d="M500 200h100v100H500z"/><path fill="#858882" d="M600 200h100v100H600z"/><path fill="#a6a291" d="M700 200h100v100H700z"/><path fill="#d4c9be" d="M0 300h100v100H0z"/><path fill="#c2b4b4" d="M100 300h100v100H100z"/><path fill="#d3bab5" d="M200 300h100v100H200z"/><path fill="#c5b9af" d="M300 300h100v100H300z"/><path fill="#b6ab98" d="M400 300h100v100H400z"/><path fill="#c1b3a1" d="M500 300h100v100H500z"/><path fill="#baaa98" d="M600 300h100v100H600z"/><path fill="#aea592" d="M700 300h100v100H700z"/><path fill="#cac1ba" d="M0 400h100v100H0z"/><path fill="#bfcac5" d="M100 400h100v100H100z"/><path fill="#afa99e" d="M200 400h100v100H200z"/><path fill="#8e9c9e" d="M300 400h100v100H300z"/><path fill="#9aa297" d="M400 400h100v100H400z"/><path fill="#a6b1aa" d="M500 400h100v100H500z"/><path fill="#cce2df" d="M600 400h100v100H600z"/><path fill="#c7d0ca" d="M700 400h100v100H700z"/><path fill="#ebedee" d="M0 500h100v100H0z"/><path fill="#dae3df" d="M100 500h100v100H100z"/><path fill="#c3cfd0" d="M200 500h100v100H200z"/><path fill="#cad5d8" d="M300 500h100v100H300z"/><path fill="#bfc6c7" d="M400 500h100v100H400z"/><path fill="#c0ccce" d="M500 500h100v100H500z"/><path fill="#c8d9d4" d="M600 500h100v100H600z"/><path fill="#bccec6" d="M700 500h100v100H700z"/></svg>