<svg xmlns="http://www.w3.org/2000/svg" viewBox="0 0 800 400"><defs/><path fill="#050505" d="M0 0h100v100H0z"/><path fill="#242424" d="M100 0h100v100H100z"/><path fill="#767676" d="M200 0h100v100H200z"/><path fill="#737373" d="M300 0h100v100H300z"/><path fill="#060506" d="M400 0h100v100H400z"/><path fill="#020202" d="M500 0h100v100H500z"/><path d="M600 0h100v100H600zm100 0h100v100H700z"/><path fill="#0b0b0b" d="M0 100h100v100H0z"/><path fill="#232323" d="M100 100h100v100H100z"/><path fill="#757575" d="M200 100h100v100H200z"/><path fill="#656565" d="M300 100h100v100H300z"/><path d="M400 100h100v100H400z"/><path fill="#373737" d="M500 100h100v100H500z"/><path fill="#5d5d5d" d="M600 100h100v100H600z"/><path fill="#0d0d0c" d="M700 100h100v100H700z"/><path fill="#171717" d="M0 200h100v100H0z"/><path fill="#292929" d="M100 200h100v100H100z"/><path fill="#4f4f4f" d="M200 200h100v100H200z"/><path fill="#424242" d="M300 200h100v100H300z"/><path d="M400 200h100v100H400z"/><path fill="#6f6f6f" d="M500 200h100v100H500z"/><path fill="#c6c6c6" d="M600 200h100v100H600z"/><path fill="#272727" d="M700 200h100v100H700z"/><path fill="#191919" d="M0 300h100v100H0z"/><path fill="#1b1b1b" d="M100 300h100v100H100z"/><path fill="#3a3a3a" d="M200 300h100v100H200z"/><path fill="#4e4e4e" d="M300 300h100v100H300z"/><path d="M400 300h100v100H400zm100 0h100v100H500z"/><path fill="#020202" d="M600 300h100v100H600z"/><path fill="#060607" d="M700 300h100v100H700z"/></svg>