<svg xmlns="http://www.w3.org/2000/svg" viewBox="0 0 800 500"><defs/><path fill="#e7f1f7" d="M0 0h100v100H0z"/><path fill="#e4f4fa" d="M100 0h100v100H100z"/><path fill="#edf3fa" d="M200 0h100v100H200z"/><path fill="#edf2f9" d="M300 0h100v100H300z"/><path fill="#dbe6e2" d="M400 0h100v100H400z"/><path fill="#e4ebf0" d="M500 0h100v100H500z"/><path fill="#e3e8f1" d="M600 0h100v100H600z"/><path fill="#edf4fb" d="M700 0h100v100H700z"/><path fill="#f2f0d5" d="M0 100h100v100H0z"/><path fill="#d7d5e5" d="M100 100h100v100H100z"/><path fill="#a8aecc" d="M200 100h100v100H200z"/><path fill="#e3dfe5" d="M300 100h100v100H300z"/><path fill="#dde3c5" d="M400 100h100v100H400z"/><path fill="#bfbecc" d="M500 100h100v100H500z"/><path fill="#d8d8e8" d="M600 100h100v100H600z"/><path fill="#fff" d="M700 100h100v100H700z"/><path fill="#f2f9f5" d="M0 200h100v100H0z"/><path fill="#e6eae6" d="M100 200h100v100H100z"/><path fill="#dde2f3" d="M200 200h100v100H200z"/><path fill="#e3e1e8" d="M300 200h100v100H300z"/><path fill="#d9d2cb" d="M400 200h100v100H400z"/><path fill="#cfd0c7" d="M500 200h100v100H500z"/><path fill="#f6f8e8" d="M600 200h100v100H600z"/><path fill="#fbfbfc" d="M700 200h100v100H700z"/><path fill="#e0d5e2" d="M0 300h100v100H0z"/><path fill="#c2c5ba" d="M100 300h100v100H100z"/><path fill="#cfd5d0" d="M200 300h100v100H200z"/><path fill="#edeeef" d="M300 300h100v100H300z"/><path fill="#bbcac3" d="M400 300h100v100H400z"/><path fill="#d8dfd7" d="M500 300h100v100H500z"/><path fill="#f5f6ec" d="M600 300h100v100H600z"/><path fill="#e6d8d7" d="M700 300h100v100H700z"/><path fill="#eaf3f5" d="M0 400h100v100H0z"/><path fill="#cacacb" d="M100 400h100v100H100z"/><path fill="#cac5c9" d="M200 400h100v100H200z"/><path fill="#faf9f4" d="M300 400h100v100H300z"/><path fill="#f6f1f5" d="M400 400h100v100H400z"/><path fill="#f0e5c5" d="M500 400h100v100H500z"/><path fill="#d9cc8f" d="M600 400h100v100H600z"/><path fill="#eae8d6" d="M700 400h100v100H700z"/></svg>