<svg xmlns="http://www.w3.org/2000/svg" viewBox="0 0 800 600"><defs/><path fill="#eae9e7" d="M0 0h100v100H0z"/><path fill="#d9d7d3" d="M100 0h100v100H100z"/><path fill="#ddd9d2" d="M200 0h100v100H200z"/><path fill="#dad3cc" d="M300 0h100v100H300z"/><path fill="#ddd5cc" d="M400 0h100v100H400z"/><path fill="#e6dccf" d="M500 0h100v100H500z"/><path fill="#e9d9ca" d="M600 0h100v100H600z"/><path fill="#e8d7c7" d="M700 0h100v100H700z"/><path fill="#e3e0dc" d="M0 100h100v100H0z"/><path fill="#dfd9d3" d="M100 100h100v100H100z"/><path fill="#d7d1ca" d="M200 100h100v100H200z"/><path fill="#dfd8cf" d="M300 100h100v100H300z"/><path fill="#e3dcce" d="M400 100h100v100H400z"/><path fill="#e4d9ca" d="M500 100h100v100H500z"/><path fill="#e1d0c1" d="M600 100h100v100H600z"/><path fill="#e4d5c3" d="M700 100h100v100H700z"/><path fill="#e5e4dd" d="M0 200h100v100H0z"/><path fill="#d6d1ca" d="M100 200h100v100H100z"/><path fill="#a6a4a0" d="M200 200h100v100H200z"/><path fill="#c7c1b9" d="M300 200h100v100H300z"/><path fill="#bfb6ab" d="M400 200h100v100H400z"/><path fill="#94847b" d="M500 200h100v100H500z"/><path fill="#bcae9f" d="M600 200h100v100H600z"/><path fill="#d8c8b4" d="M700 200h100v100H700z"/><path fill="#e5e4df" d="M0 300h100v100H0z"/><path fill="#d4cec6" d="M100 300h100v100H100z"/><path fill="#afaca6" d="M200 300h100v100H200z"/><path fill="#b9b3ac" d="M300 300h100v100H300z"/><path fill="#c1b7ab" d="M400 300h100v100H400z"/><path fill="#b1a296" d="M500 300h100v100H500z"/><path fill="#c3b3a3" d="M600 300h100v100H600z"/><path fill="#d3bfa7" d="M700 300h100v100H700z"/><path fill="#e1deda" d="M0 400h100v100H0z"/><path fill="#c1bcb6" d="M100 400h100v100H100z"/><path fill="#d7d2c8" d="M200 400h100v100H200z"/><path fill="#cdc8bc" d="M300 400h100v100H300z"/><path fill="#c9bfb2" d="M400 400h100v100H400z"/><path fill="#d9cbba" d="M500 400h100v100H500z"/><path fill="#c8b5a0" d="M600 400h100v100H600z"/><path fill="#cab196" d="M700 400h100v100H700z"/><path fill="#e2ded6" d="M0 500h100v100H0z"/><path fill="#cec8bf" d="M100 500h100v100H100z"/><path fill="#d9d2c6" d="M200 500h100v100H200z"/><path fill="#d6cbbc" d="M300 500h100v100H300z"/><path fill="#d7c8b6" d="M400 500h100v100H400z"/><path fill="#d1bfa8" d="M500 500h100v100H500z"/><path fill="#c1a98f" d="M600 500h100v100H600z"/><path fill="#c3a789" d="M700 500h100v100H700z"/></svg>