<svg xmlns="http://www.w3.org/2000/svg" viewBox="0 0 800 500"><defs/><path fill="#b6b1a8" d="M0 0h100v100H0z"/><path fill="#9e9a95" d="M100 0h100v100H100z"/><path fill="#7999a6" d="M200 0h100v100H200z"/><path fill="#73a2cb" d="M300 0h100v100H300z"/><path fill="#719ecd" d="M400 0h100v100H400z"/><path fill="#5a8b77" d="M500 0h100v100H500z"/><path fill="#4c7c43" d="M600 0h100v100H600z"/><path fill="#a6a89d" d="M700 0h100v100H700z"/><path fill="#b1aea8" d="M0 100h100v100H0z"/><path fill="#a29e9b" d="M100 100h100v100H100z"/><path fill="#6c8e5f" d="M200 100h100v100H200z"/><path fill="#79958a" d="M300 100h100v100H300z"/><path fill="#9aa5bd" d="M400 100h100v100H400z"/><path fill="#629278" d="M500 100h100v100H500z"/><path fill="#497942" d="M600 100h100v100H600z"/><path fill="#afada3" d="M700 100h100v100H700z"/><path fill="#aeada9" d="M0 200h100v100H0z"/><path fill="#aaa6a4" d="M100 200h100v100H100z"/><path fill="#6f8f5b" d="M200 200h100v100H200z"/><path fill="#8ea180" d="M300 200h100v100H300z"/><path fill="#bbb9b8" d="M400 200h100v100H400z"/><path fill="#80a565" d="M500 200h100v100H500z"/><path fill="#6b7246" d="M600 200h100v100H600z"/><path fill="#b1a8a5" d="M700 200h100v100H700z"/><path fill="#b5b3b3" d="M0 300h100v100H0z"/><path fill="#babab8" d="M100 300h100v100H100z"/><path fill="#a9b29c" d="M200 300h100v100H200z"/><path fill="#b9b9ad" d="M300 300h100v100H300z"/><path fill="#bfbeb2" d="M400 300h100v100H400z"/><path fill="#b0b995" d="M500 300h100v100H500z"/><path fill="#9c9383" d="M600 300h100v100H600z"/><path fill="#b2adaa" d="M700 300h100v100H700z"/><path fill="#b5b5b5" d="M0 400h100v100H0z"/><path fill="#cccece" d="M100 400h100v100H100z"/><path fill="#d1d0cf" d="M200 400h100v100H200z"/><path fill="#cdc5bc" d="M300 400h100v100H300z"/><path fill="#ccc6ba" d="M400 400h100v100H400z"/><path fill="#c6c1be" d="M500 400h100v100H500z"/><path fill="#9b9fa2" d="M600 400h100v100H600z"/><path fill="#b5b7b5" d="M700 400h100v100H700z"/></svg>