<svg xmlns="http://www.w3.org/2000/svg" viewBox="0 0 800 800"><defs/><path fill="#fff" d="M0 0h100v100H0zm100 0h100v100H100zm100 0h100v100H200zm100 0h100v100H300zm100 0h100v100H400zm100 0h100v100H500zm100 0h100v100H600z"/><path fill="#feffff" d="M700 0h100v100H700z"/><path fill="#fffcfb" d="M0 100h100v100H0z"/><path fill="#fefcfc" d="M100 100h100v100H100z"/><path fill="#fefcfb" d="M200 100h100v100H200z"/><path fill="#fef9f5" d="M300 100h100v100H300z"/><path fill="#fefdfd" d="M400 100h100v100H400z"/><path fill="#fefaf7" d="M500 100h100v100H500z"/><path fill="#fefdfc" d="M600 100h100v100H600z"/><path fill="#fffcfb" d="M700 100h100v100H700z"/><path fill="#f3e8e2" d="M0 200h100v100H0z"/><path fill="#f5e4de" d="M100 200h100v100H100z"/><path fill="#fcd7cd" d="M200 200h100v100H200z"/><path fill="#f3c6be" d="M300 200h100v100H300z"/><path fill="#dac6b9" d="M400 200h100v100H400z"/><path fill="#ffd3c6" d="M500 200h100v100H500z"/><path fill="#f1d2c7" d="M600 200h100v100H600z"/><path fill="#e6e0d8" d="M700 200h100v100H700z"/><path fill="#fbeae3" d="M0 300h100v100H0z"/><path fill="#d2c7be" d="M100 300h100v100H100z"/><path fill="#aeb194" d="M200 300h100v100H200z"/><path fill="#eed29c" d="M300 300h100v100H300z"/><path fill="#cbba98" d="M400 300h100v100H400z"/><path fill="#f0dac7" d="M500 300h100v100H500z"/><path fill="#d2bcaa" d="M600 300h100v100H600z"/><path fill="#e3d9d2" d="M700 300h100v100H700z"/><path fill="#fbe9e3" d="M0 400h100v100H0z"/><path fill="#dcc9be" d="M100 400h100v100H100z"/><path fill="#957b5c" d="M200 400h100v100H200z"/><path fill="#b29552" d="M300 400h100v100H300z"/><path fill="#a98a5f" d="M400 400h100v100H400z"/><path fill="#d5a883" d="M500 400h100v100H500z"/><path fill="#7e8a7f" d="M600 400h100v100H600z"/><path fill="#c8bd9e" d="M700 400h100v100H700z"/><path fill="#fcece8" d="M0 500h100v100H0z"/><path fill="#d7c6bb" d="M100 500h100v100H100z"/><path fill="#a79893" d="M200 500h100v100H200z"/><path fill="#d8b7b9" d="M300 500h100v100H300z"/><path fill="#cbb2af" d="M400 500h100v100H400z"/><path fill="#c1a4a5" d="M500 500h100v100H500z"/><path fill="#e5c8c5" d="M600 500h100v100H600z"/><path fill="#f6e6d6" d="M700 500h100v100H700z"/><path fill="#fefdfd" d="M0 600h100v100H0zm100 0h100v100H100z"/><path fill="#fff" d="M200 600h100v100H200z"/><path fill="#feffff" d="M300 600h100v100H300zm100 0h100v100H400z"/><path fill="#fefefe" d="M500 600h100v100H500z"/><path fill="#fefdfd" d="M600 600h100v100H600z"/><path fill="#fefeff" d="M700 600h100v100H700z"/><path fill="#fff" d="M0 700h100v100H0zm100 0h100v100H100z"/><path fill="#fdfdfd" d="M200 700h100v100H200z"/><path fill="#fffeff" d="M300 700h100v100H300z"/><path fill="#fffefe" d="M400 700h100v100H400z"/><path fill="#fffeff" d="M500 700h100v100H500z"/><path fill="#fff" d="M600 700h100v100H600z"/><path fill="#fffffe" d="M700 700h100v100H700z"/></svg>