<svg xmlns="http://www.w3.org/2000/svg" viewBox="0 0 800 600"><defs/><path fill="#96866a" d="M0 0h100v100H0z"/><path fill="#574326" d="M100 0h100v100H100z"/><path fill="#534d32" d="M200 0h100v100H200z"/><path fill="#736146" d="M300 0h100v100H300z"/><path fill="#727560" d="M400 0h100v100H400z"/><path fill="#6c7561" d="M500 0h100v100H500z"/><path fill="#88846b" d="M600 0h100v100H600z"/><path fill="#938667" d="M700 0h100v100H700z"/><path fill="#918569" d="M0 100h100v100H0z"/><path fill="#5c4d26" d="M100 100h100v100H100z"/><path fill="#6f5e3a" d="M200 100h100v100H200z"/><path fill="#816346" d="M300 100h100v100H300z"/><path fill="#827656" d="M400 100h100v100H400z"/><path fill="#7a724f" d="M500 100h100v100H500z"/><path fill="#8c8368" d="M600 100h100v100H600z"/><path fill="#97886a" d="M700 100h100v100H700z"/><path fill="#8b7f60" d="M0 200h100v100H0z"/><path fill="#666036" d="M100 200h100v100H100z"/><path fill="#7c6d41" d="M200 200h100v100H200z"/><path fill="#816140" d="M300 200h100v100H300z"/><path fill="#89774e" d="M400 200h100v100H400z"/><path fill="#87774e" d="M500 200h100v100H500z"/><path fill="#9d896c" d="M600 200h100v100H600z"/><path fill="#a69276" d="M700 200h100v100H700z"/><path fill="#817a5c" d="M0 300h100v100H0z"/><path fill="#6b673d" d="M100 300h100v100H100z"/><path fill="#888c55" d="M200 300h100v100H200z"/><path fill="#87704c" d="M300 300h100v100H300z"/><path fill="#a9a77d" d="M400 300h100v100H400z"/><path fill="#adb093" d="M500 300h100v100H500z"/><path fill="#aeae8b" d="M600 300h100v100H600z"/><path fill="#a39673" d="M700 300h100v100H700z"/><path fill="#787653" d="M0 400h100v100H0z"/><path fill="#6a6c43" d="M100 400h100v100H100z"/><path fill="#8a986c" d="M200 400h100v100H200z"/><path fill="#989d77" d="M300 400h100v100H300z"/><path fill="#aaa882" d="M400 400h100v100H400z"/><path fill="#9da38c" d="M500 400h100v100H500z"/><path fill="#a4ad91" d="M600 400h100v100H600z"/><path fill="#a8a684" d="M700 400h100v100H700z"/><path fill="#9aa27a" d="M0 500h100v100H0z"/><path fill="#7b8962" d="M100 500h100v100H100z"/><path fill="#849267" d="M200 500h100v100H200z"/><path fill="#969a6e" d="M300 500h100v100H300z"/><path fill="#9ea17a" d="M400 500h100v100H400z"/><path fill="#9da47a" d="M500 500h100v100H500z"/><path fill="#9fa77e" d="M600 500h100v100H600z"/><path fill="#a5ad87" d="M700 500h100v100H700z"/></svg>