<svg xmlns="http://www.w3.org/2000/svg" viewBox="0 0 800 400"><defs/><path fill="#c9bbbb" d="M0 0h100v100H0z"/><path fill="#a39198" d="M100 0h100v100H100z"/><path fill="#cbad9d" d="M200 0h100v100H200z"/><path fill="#b8a799" d="M300 0h100v100H300z"/><path fill="#aa9093" d="M400 0h100v100H400z"/><path fill="#b89790" d="M500 0h100v100H500z"/><path fill="#bda18e" d="M600 0h100v100H600z"/><path fill="#d6cbca" d="M700 0h100v100H700z"/><path fill="#beaeb1" d="M0 100h100v100H0z"/><path fill="#aa959b" d="M100 100h100v100H100z"/><path fill="#ddbc94" d="M200 100h100v100H200z"/><path fill="#bfabac" d="M300 100h100v100H300z"/><path fill="#c5b39b" d="M400 100h100v100H400z"/><path fill="#c89c8d" d="M500 100h100v100H500z"/><path fill="#aa9a8a" d="M600 100h100v100H600z"/><path fill="#c1ae98" d="M700 100h100v100H700z"/><path fill="#b4a2a4" d="M0 200h100v100H0z"/><path fill="#b79981" d="M100 200h100v100H100z"/><path fill="#d1a97e" d="M200 200h100v100H200z"/><path fill="#9a95a2" d="M300 200h100v100H300z"/><path fill="#b2948f" d="M400 200h100v100H400z"/><path fill="#bf937f" d="M500 200h100v100H500z"/><path fill="#a3824d" d="M600 200h100v100H600z"/><path fill="#976c10" d="M700 200h100v100H700z"/><path fill="#b09c96" d="M0 300h100v100H0z"/><path fill="#a57f63" d="M100 300h100v100H100z"/><path fill="#c28c8b" d="M200 300h100v100H200z"/><path fill="#d1bdc0" d="M300 300h100v100H300z"/><path fill="#c998a1" d="M400 300h100v100H400z"/><path fill="#b28382" d="M500 300h100v100H500z"/><path fill="#a67959" d="M600 300h100v100H600z"/><path fill="#a37a3a" d="M700 300h100v100H700z"/></svg>