<svg xmlns="http://www.w3.org/2000/svg" viewBox="0 0 800 600"><defs/><path fill="#cfd5da" d="M0 0h100v100H0z"/><path fill="#cdd2e0" d="M100 0h100v100H100z"/><path fill="#ced2e0" d="M200 0h100v100H200z"/><path fill="#ced1e0" d="M300 0h100v100H300z"/><path fill="#cdd1e0" d="M400 0h100v100H400z"/><path fill="#cbd0de" d="M500 0h100v100H500z"/><path fill="#cfd7d8" d="M600 0h100v100H600z"/><path fill="#d5dace" d="M700 0h100v100H700z"/><path fill="#c9c8bc" d="M0 100h100v100H0z"/><path fill="#b0b7da" d="M100 100h100v100H100z"/><path fill="#aeb6dd" d="M200 100h100v100H200z"/><path fill="#b0b7dc" d="M300 100h100v100H300z"/><path fill="#afb6dd" d="M400 100h100v100H400z"/><path fill="#acb5dc" d="M500 100h100v100H500z"/><path fill="#b8cac0" d="M600 100h100v100H600z"/><path fill="#d7dd9f" d="M700 100h100v100H700z"/><path fill="#c9cab6" d="M0 200h100v100H0z"/><path fill="#afb9dc" d="M100 200h100v100H100z"/><path fill="#adb7e2" d="M200 200h100v100H200z"/><path fill="#aeb8e2" d="M300 200h100v100H300z"/><path fill="#acb6e1" d="M400 200h100v100H400z"/><path fill="#adb6e2" d="M500 200h100v100H500z"/><path fill="#b5c7c9" d="M600 200h100v100H600z"/><path fill="#d0daa5" d="M700 200h100v100H700z"/><path fill="#cac9b7" d="M0 300h100v100H0z"/><path fill="#babbc6" d="M100 300h100v100H100z"/><path fill="#bbbcc6" d="M200 300h100v100H200z"/><path fill="#b9bac6" d="M300 300h100v100H300z"/><path fill="#bcbcc7" d="M400 300h100v100H400z"/><path fill="#bebdc3" d="M500 300h100v100H500z"/><path fill="#b3c4c0" d="M600 300h100v100H600z"/><path fill="#c3d2b2" d="M700 300h100v100H700z"/><path fill="#cac4ac" d="M0 400h100v100H0z"/><path fill="#d0b88a" d="M100 400h100v100H100zm100 0h100v100H200z"/><path fill="#d0b98b" d="M300 400h100v100H300z"/><path fill="#d0b98c" d="M400 400h100v100H400z"/><path fill="#d4b988" d="M500 400h100v100H500z"/><path fill="#bbbca4" d="M600 400h100v100H600z"/><path fill="#b7ccbd" d="M700 400h100v100H700z"/><path fill="#ccd0cc" d="M0 500h100v100H0z"/><path fill="#d6d1c7" d="M100 500h100v100H100z"/><path fill="#d5d0c5" d="M200 500h100v100H200z"/><path fill="#d3d1c9" d="M300 500h100v100H300z"/><path fill="#d6d4cd" d="M400 500h100v100H400z"/><path fill="#d3d2c9" d="M500 500h100v100H500z"/><path fill="#d4d5d3" d="M600 500h100v100H600z"/><path fill="#cdd7dc" d="M700 500h100v100H700z"/></svg>