<svg xmlns="http://www.w3.org/2000/svg" viewBox="0 0 800 500"><defs/><path fill="#e9eae9" d="M0 0h100v100H0z"/><path fill="#b19e94" d="M100 0h100v100H100z"/><path fill="#e8e5e4" d="M200 0h100v100H200z"/><path fill="#fff" d="M300 0h100v100H300zm100 0h100v100H400z"/><path fill="#eaedee" d="M500 0h100v100H500z"/><path fill="#818587" d="M600 0h100v100H600z"/><path fill="#c4c4c6" d="M700 0h100v100H700z"/><path fill="#a7b1a8" d="M0 100h100v100H0z"/><path fill="#8b7464" d="M100 100h100v100H100z"/><path fill="#e9e9e8" d="M200 100h100v100H200z"/><path fill="#eff4f1" d="M300 100h100v100H300z"/><path fill="#f4eae3" d="M400 100h100v100H400z"/><path fill="#d4d3d0" d="M500 100h100v100H500z"/><path fill="#565c5e" d="M600 100h100v100H600z"/><path fill="#a6a7a9" d="M700 100h100v100H700z"/><path fill="#ccc7c2" d="M0 200h100v100H0z"/><path fill="#8e7b71" d="M100 200h100v100H100z"/><path fill="#b2afad" d="M200 200h100v100H200z"/><path fill="#847675" d="M300 200h100v100H300z"/><path fill="#8c6b69" d="M400 200h100v100H400z"/><path fill="#9f6559" d="M500 200h100v100H500z"/><path fill="#686465" d="M600 200h100v100H600z"/><path fill="#b1a9a6" d="M700 200h100v100H700z"/><path fill="#c0b1a7" d="M0 300h100v100H0z"/><path fill="#745340" d="M100 300h100v100H100z"/><path fill="#94715d" d="M200 300h100v100H200z"/><path fill="#704434" d="M300 300h100v100H300z"/><path fill="#78584c" d="M400 300h100v100H400z"/><path fill="#895e4d" d="M500 300h100v100H500z"/><path fill="#765343" d="M600 300h100v100H600z"/><path fill="#666362" d="M700 300h100v100H700z"/><path fill="#b4a79e" d="M0 400h100v100H0z"/><path fill="#a08573" d="M100 400h100v100H100z"/><path fill="#b69885" d="M200 400h100v100H200z"/><path fill="#b09784" d="M300 400h100v100H300z"/><path fill="#ac9684" d="M400 400h100v100H400z"/><path fill="#b29d8c" d="M500 400h100v100H500z"/><path fill="#9c7e6d" d="M600 400h100v100H600z"/><path fill="#756964" d="M700 400h100v100H700z"/></svg>