<svg xmlns="http://www.w3.org/2000/svg" viewBox="0 0 800 600"><defs/><path fill="#f6e5e9" d="M0 0h100v100H0z"/><path fill="#c3a69a" d="M100 0h100v100H100z"/><path fill="#e5cbca" d="M200 0h100v100H200z"/><path fill="#fae4ea" d="M300 0h100v100H300z"/><path fill="#f9e1e6" d="M400 0h100v100H400z"/><path fill="#f6dfe3" d="M500 0h100v100H500z"/><path fill="#f1d9dd" d="M600 0h100v100H600z"/><path fill="#f3e3e5" d="M700 0h100v100H700z"/><path fill="#f1d7da" d="M0 100h100v100H0z"/><path fill="#b08473" d="M100 100h100v100H100z"/><path fill="#f1d6d8" d="M200 100h100v100H200z"/><path fill="#e8cfcc" d="M300 100h100v100H300z"/><path fill="#d0b7b3" d="M400 100h100v100H400z"/><path fill="#f5d5d8" d="M500 100h100v100H500z"/><path fill="#fadadd" d="M600 100h100v100H600z"/><path fill="#f5e0e4" d="M700 100h100v100H700z"/><path fill="#e8cfd0" d="M0 200h100v100H0z"/><path fill="#b38d7d" d="M100 200h100v100H100z"/><path fill="#f2ccda" d="M200 200h100v100H200z"/><path fill="#e5b1c2" d="M300 200h100v100H300z"/><path fill="#e5bfc9" d="M400 200h100v100H400z"/><path fill="#f5dbe1" d="M500 200h100v100H500z"/><path fill="#d2c6d4" d="M600 200h100v100H600z"/><path fill="#f4dfe2" d="M700 200h100v100H700z"/><path fill="#d8bcba" d="M0 300h100v100H0z"/><path fill="#b4957c" d="M100 300h100v100H100z"/><path fill="#e98cb4" d="M200 300h100v100H200z"/><path fill="#da348d" d="M300 300h100v100H300z"/><path fill="#e888aa" d="M400 300h100v100H400z"/><path fill="#ede2cc" d="M500 300h100v100H500z"/><path fill="#b6a490" d="M600 300h100v100H600z"/><path fill="#f1dbdf" d="M700 300h100v100H700z"/><path fill="#c09e99" d="M0 400h100v100H0z"/><path fill="#b2955a" d="M100 400h100v100H100z"/><path fill="#fbbb59" d="M200 400h100v100H200z"/><path fill="#f27219" d="M300 400h100v100H300z"/><path fill="#e6420c" d="M400 400h100v100H400z"/><path fill="#d38c3b" d="M500 400h100v100H500z"/><path fill="#e7da83" d="M600 400h100v100H600z"/><path fill="#f5e2d0" d="M700 400h100v100H700z"/><path fill="#decbb4" d="M0 500h100v100H0z"/><path fill="#ebdb9b" d="M100 500h100v100H100z"/><path fill="#fbda8a" d="M200 500h100v100H200z"/><path fill="#f9ca75" d="M300 500h100v100H300z"/><path fill="#f5d182" d="M400 500h100v100H400z"/><path fill="#f3ce8a" d="M500 500h100v100H500z"/><path fill="#f1e5ae" d="M600 500h100v100H600z"/><path fill="#f5ebc4" d="M700 500h100v100H700z"/></svg>