<svg xmlns="http://www.w3.org/2000/svg" viewBox="0 0 800 500"><defs/><path fill="#897f79" d="M0 0h100v100H0z"/><path fill="#83695d" d="M100 0h100v100H100z"/><path fill="#9c9080" d="M200 0h100v100H200z"/><path fill="#aea78a" d="M300 0h100v100H300z"/><path fill="#98a38d" d="M400 0h100v100H400z"/><path fill="#adab98" d="M500 0h100v100H500z"/><path fill="#a2a389" d="M600 0h100v100H600z"/><path fill="#b0ac9c" d="M700 0h100v100H700z"/><path fill="#6f5a40" d="M0 100h100v100H0z"/><path fill="#75553b" d="M100 100h100v100H100z"/><path fill="#9a8465" d="M200 100h100v100H200z"/><path fill="#98895c" d="M300 100h100v100H300z"/><path fill="#74804d" d="M400 100h100v100H400z"/><path fill="#968773" d="M500 100h100v100H500z"/><path fill="#918156" d="M600 100h100v100H600z"/><path fill="#9a7965" d="M700 100h100v100H700z"/><path fill="#735844" d="M0 200h100v100H0z"/><path fill="#8c705a" d="M100 200h100v100H100z"/><path fill="#807979" d="M200 200h100v100H200z"/><path fill="#7f6255" d="M300 200h100v100H300z"/><path fill="#b6a38a" d="M400 200h100v100H400z"/><path fill="#b19d84" d="M500 200h100v100H500z"/><path fill="#886a46" d="M600 200h100v100H600z"/><path fill="#a39281" d="M700 200h100v100H700z"/><path fill="#836753" d="M0 300h100v100H0z"/><path fill="#757069" d="M100 300h100v100H100z"/><path fill="#6d7278" d="M200 300h100v100H200z"/><path fill="#967f70" d="M300 300h100v100H300z"/><path fill="#b9ac98" d="M400 300h100v100H400z"/><path fill="#b6a797" d="M500 300h100v100H500z"/><path fill="#9c7c65" d="M600 300h100v100H600z"/><path fill="#938176" d="M700 300h100v100H700z"/><path fill="#8c796f" d="M0 400h100v100H0z"/><path fill="#837c77" d="M100 400h100v100H100z"/><path fill="#948175" d="M200 400h100v100H200z"/><path fill="#9b9183" d="M300 400h100v100H300z"/><path fill="#b1ada1" d="M400 400h100v100H400z"/><path fill="#b8b3a5" d="M500 400h100v100H500z"/><path fill="#ada49c" d="M600 400h100v100H600z"/><path fill="#a99c92" d="M700 400h100v100H700z"/></svg>