<svg xmlns="http://www.w3.org/2000/svg" viewBox="0 0 800 400"><defs/><path fill="#89a774" d="M0 0h100v100H0z"/><path fill="#a7ac97" d="M100 0h100v100H100z"/><path fill="#6f8261" d="M200 0h100v100H200z"/><path fill="#7cb7a7" d="M300 0h100v100H300z"/><path fill="#9bcfd7" d="M400 0h100v100H400z"/><path fill="#8ab7bd" d="M500 0h100v100H500z"/><path fill="#9eaeb6" d="M600 0h100v100H600z"/><path fill="#9fa7c1" d="M700 0h100v100H700z"/><path fill="#8ea37a" d="M0 100h100v100H0z"/><path fill="#929781" d="M100 100h100v100H100z"/><path fill="#4a4729" d="M200 100h100v100H200z"/><path fill="#5a8d61" d="M300 100h100v100H300z"/><path fill="#7fa59b" d="M400 100h100v100H400z"/><path fill="#879a8e" d="M500 100h100v100H500z"/><path fill="#717c40" d="M600 100h100v100H600z"/><path fill="#6f6e48" d="M700 100h100v100H700z"/><path fill="#a0a98f" d="M0 200h100v100H0z"/><path fill="#9a957b" d="M100 200h100v100H100z"/><path fill="#7a6740" d="M200 200h100v100H200z"/><path fill="#a69a84" d="M300 200h100v100H300z"/><path fill="#a9a189" d="M400 200h100v100H400z"/><path fill="#5e4e3f" d="M500 200h100v100H500z"/><path fill="#656b42" d="M600 200h100v100H600z"/><path fill="#99916d" d="M700 200h100v100H700z"/><path fill="#b1ac91" d="M0 300h100v100H0z"/><path fill="#a8916c" d="M100 300h100v100H100z"/><path fill="#9f8860" d="M200 300h100v100H200z"/><path fill="#978669" d="M300 300h100v100H300z"/><path fill="#937f67" d="M400 300h100v100H400z"/><path fill="#6b5528" d="M500 300h100v100H500z"/><path fill="#63541a" d="M600 300h100v100H600z"/><path fill="#a99771" d="M700 300h100v100H700z"/></svg>