<svg xmlns="http://www.w3.org/2000/svg" viewBox="0 0 800 500"><defs/><path fill="#b4806d" d="M0 0h100v100H0z"/><path fill="#987d5d" d="M100 0h100v100H100z"/><path fill="#aa9f96" d="M200 0h100v100H200z"/><path fill="#979893" d="M300 0h100v100H300z"/><path fill="#9ba08f" d="M400 0h100v100H400z"/><path fill="#a3a0a2" d="M500 0h100v100H500z"/><path fill="#bdabac" d="M600 0h100v100H600z"/><path fill="#d8e6e4" d="M700 0h100v100H700z"/><path fill="#ad6c52" d="M0 100h100v100H0z"/><path fill="#7c5138" d="M100 100h100v100H100z"/><path fill="#9d968f" d="M200 100h100v100H200z"/><path fill="#a4968f" d="M300 100h100v100H300z"/><path fill="#827975" d="M400 100h100v100H400z"/><path fill="#bdb4aa" d="M500 100h100v100H500z"/><path fill="#ccc6b6" d="M600 100h100v100H600z"/><path fill="#d0ddda" d="M700 100h100v100H700z"/><path fill="#80443d" d="M0 200h100v100H0z"/><path fill="#714c43" d="M100 200h100v100H100z"/><path fill="#ac998f" d="M200 200h100v100H200z"/><path fill="#ad7f77" d="M300 200h100v100H300z"/><path fill="#86675c" d="M400 200h100v100H400z"/><path fill="#87604f" d="M500 200h100v100H500z"/><path fill="#b1ab9b" d="M600 200h100v100H600z"/><path fill="#c7bcbe" d="M700 200h100v100H700z"/><path fill="#5d3b29" d="M0 300h100v100H0z"/><path fill="#6d4d3e" d="M100 300h100v100H100z"/><path fill="#e6b4a7" d="M200 300h100v100H200z"/><path fill="#9b9288" d="M300 300h100v100H300z"/><path fill="#7a7269" d="M400 300h100v100H400z"/><path fill="#ddd0c4" d="M500 300h100v100H500z"/><path fill="#dcbab2" d="M600 300h100v100H600z"/><path fill="#ea8da3" d="M700 300h100v100H700z"/><path fill="#ac8267" d="M0 400h100v100H0z"/><path fill="#b18980" d="M100 400h100v100H100z"/><path fill="#b0929f" d="M200 400h100v100H200z"/><path fill="#c6aba7" d="M300 400h100v100H300z"/><path fill="#cdbbb6" d="M400 400h100v100H400z"/><path fill="#e6d9d1" d="M500 400h100v100H500z"/><path fill="#e1bbb0" d="M600 400h100v100H600z"/><path fill="#f3a6b5" d="M700 400h100v100H700z"/></svg>