<svg xmlns="http://www.w3.org/2000/svg" viewBox="0 0 800 800"><defs/><path fill="#fefefe" d="M0 0h100v100H0z"/><path fill="#fff" d="M100 0h100v100H100z"/><path fill="#e0e0d6" d="M200 0h100v100H200z"/><path fill="#9c997e" d="M300 0h100v100H300z"/><path fill="#9a977c" d="M400 0h100v100H400z"/><path fill="#cdcbbc" d="M500 0h100v100H500z"/><path fill="#fff" d="M600 0h100v100H600z"/><path fill="#f1f1f1" d="M700 0h100v100H700z"/><path fill="#fefefe" d="M0 100h100v100H0z"/><path fill="#fdfdfb" d="M100 100h100v100H100z"/><path fill="#fff" d="M200 100h100v100H200zm100 0h100v100H300zm100 0h100v100H400zm100 0h100v100H500z"/><path fill="#ebeae2" d="M600 100h100v100H600z"/><path fill="#f3f3ef" d="M700 100h100v100H700z"/><path fill="#fff" d="M0 200h100v100H0z"/><path fill="#a7ad87" d="M100 200h100v100H100z"/><path fill="#d3cfba" d="M200 200h100v100H200z"/><path fill="#dcc5c9" d="M300 200h100v100H300z"/><path fill="#d4c0c3" d="M400 200h100v100H400z"/><path fill="#e5d6cc" d="M500 200h100v100H500z"/><path fill="#919965" d="M600 200h100v100H600z"/><path fill="#ebebe3" d="M700 200h100v100H700z"/><path fill="#fffefe" d="M0 300h100v100H0z"/><path fill="#98a27c" d="M100 300h100v100H100z"/><path fill="#917e51" d="M200 300h100v100H200z"/><path fill="#bf9799" d="M300 300h100v100H300z"/><path fill="#bb999c" d="M400 300h100v100H400z"/><path fill="#ab856a" d="M500 300h100v100H500z"/><path fill="#808d5a" d="M600 300h100v100H600z"/><path fill="#f3f3f0" d="M700 300h100v100H700z"/><path fill="#fffefe" d="M0 400h100v100H0z"/><path fill="#9da480" d="M100 400h100v100H100z"/><path fill="#8d8b65" d="M200 400h100v100H200z"/><path fill="#d5c2c6" d="M300 400h100v100H300z"/><path fill="#d2bbbd" d="M400 400h100v100H400z"/><path fill="#a49c84" d="M500 400h100v100H500z"/><path fill="#838a5b" d="M600 400h100v100H600z"/><path fill="#f1f1ec" d="M700 400h100v100H700z"/><path fill="#fefeff" d="M0 500h100v100H0z"/><path fill="#9da27a" d="M100 500h100v100H100z"/><path fill="#969976" d="M200 500h100v100H200z"/><path fill="#bba5a8" d="M300 500h100v100H300z"/><path fill="#ac9190" d="M400 500h100v100H400z"/><path fill="#afac97" d="M500 500h100v100H500z"/><path fill="#878f59" d="M600 500h100v100H600z"/><path fill="#f1f1ed" d="M700 500h100v100H700z"/><path fill="#fefeff" d="M0 600h100v100H0z"/><path fill="#f8f8f5" d="M100 600h100v100H100z"/><path fill="#eeeee9" d="M200 600h100v100H200z"/><path fill="#dad7d8" d="M300 600h100v100H300z"/><path fill="#dcd8da" d="M400 600h100v100H400z"/><path fill="#edebe7" d="M500 600h100v100H500z"/><path fill="#f5f6ef" d="M600 600h100v100H600z"/><path fill="#fefeff" d="M700 600h100v100H700z"/><path fill="#fff" d="M0 700h100v100H0z"/><path fill="#f1f2e8" d="M100 700h100v100H100z"/><path fill="#fbfcf8" d="M200 700h100v100H200z"/><path fill="#fbfcfd" d="M300 700h100v100H300z"/><path fill="#f7f8f9" d="M400 700h100v100H400z"/><path fill="#fff" d="M500 700h100v100H500z"/><path fill="#f2f3ea" d="M600 700h100v100H600z"/><path fill="#f9faf6" d="M700 700h100v100H700z"/></svg>