<svg xmlns="http://www.w3.org/2000/svg" viewBox="0 0 800 500"><defs/><path fill="#c1c1c1" d="M0 0h100v100H0z"/><path fill="#a8a8a8" d="M100 0h100v100H100z"/><path fill="#6a6a6a" d="M200 0h100v100H200z"/><path fill="#868686" d="M300 0h100v100H300z"/><path fill="#adadad" d="M400 0h100v100H400z"/><path fill="#a8a8a8" d="M500 0h100v100H500z"/><path fill="#878787" d="M600 0h100v100H600z"/><path fill="#a6a6a6" d="M700 0h100v100H700z"/><path fill="#bcbcbc" d="M0 100h100v100H0z"/><path fill="#6c6c6c" d="M100 100h100v100H100z"/><path fill="#252525" d="M200 100h100v100H200z"/><path fill="#454545" d="M300 100h100v100H300z"/><path fill="#979797" d="M400 100h100v100H400z"/><path fill="#a7a7a7" d="M500 100h100v100H500z"/><path fill="#9c9c9c" d="M600 100h100v100H600z"/><path fill="#919191" d="M700 100h100v100H700z"/><path fill="#b5b5b5" d="M0 200h100v100H0z"/><path fill="#707070" d="M100 200h100v100H100z"/><path fill="#575757" d="M200 200h100v100H200z"/><path fill="#3f3f3f" d="M300 200h100v100H300z"/><path fill="#a0a0a0" d="M400 200h100v100H400z"/><path fill="#bebebe" d="M500 200h100v100H500z"/><path fill="#8b8b8b" d="M600 200h100v100H600z"/><path fill="#a0a0a0" d="M700 200h100v100H700z"/><path fill="#9e9e9e" d="M0 300h100v100H0z"/><path fill="#7e7e7e" d="M100 300h100v100H100zm100 0h100v100H200z"/><path fill="#929292" d="M300 300h100v100H300z"/><path fill="#a7a7a7" d="M400 300h100v100H400z"/><path fill="#777" d="M500 300h100v100H500z"/><path fill="#595959" d="M600 300h100v100H600z"/><path fill="#868686" d="M700 300h100v100H700z"/><path fill="#bbb" d="M0 400h100v100H0z"/><path fill="#a7a7a7" d="M100 400h100v100H100z"/><path fill="#c3c3c3" d="M200 400h100v100H200z"/><path fill="#a2a2a2" d="M300 400h100v100H300z"/><path fill="#a0a0a0" d="M400 400h100v100H400z"/><path fill="#9d9d9d" d="M500 400h100v100H500z"/><path fill="#898989" d="M600 400h100v100H600z"/><path fill="#929292" d="M700 400h100v100H700z"/></svg>