<svg xmlns="http://www.w3.org/2000/svg" viewBox="0 0 800 600"><defs/><path fill="#f7f8f9" d="M0 0h100v100H0z"/><path fill="#f3f2f5" d="M100 0h100v100H100z"/><path fill="#f5f4f8" d="M200 0h100v100H200z"/><path fill="#f9f9fb" d="M300 0h100v100H300z"/><path fill="#fdfdfd" d="M400 0h100v100H400z"/><path fill="#f4f4f6" d="M500 0h100v100H500z"/><path fill="#f8f8f8" d="M600 0h100v100H600z"/><path fill="#fcfcfc" d="M700 0h100v100H700z"/><path fill="#eeedf0" d="M0 100h100v100H0z"/><path fill="#cbcacf" d="M100 100h100v100H100z"/><path fill="#f6f5f7" d="M200 100h100v100H200z"/><path fill="#ececee" d="M300 100h100v100H300z"/><path fill="#b4b3b8" d="M400 100h100v100H400z"/><path fill="#d0ced3" d="M500 100h100v100H500z"/><path fill="#e7e7e9" d="M600 100h100v100H600z"/><path fill="#dfdfe0" d="M700 100h100v100H700z"/><path fill="#e7e6eb" d="M0 200h100v100H0z"/><path fill="#d6d5da" d="M100 200h100v100H100z"/><path fill="#eeedf1" d="M200 200h100v100H200z"/><path fill="#cbcacf" d="M300 200h100v100H300z"/><path fill="#99979d" d="M400 200h100v100H400z"/><path fill="#cdcbd1" d="M500 200h100v100H500z"/><path fill="#e0dfe3" d="M600 200h100v100H600z"/><path fill="#cac9cd" d="M700 200h100v100H700z"/><path fill="#e2e0e5" d="M0 300h100v100H0z"/><path fill="#c7c6cb" d="M100 300h100v100H100z"/><path fill="#d7d5db" d="M200 300h100v100H200z"/><path fill="#c4c1c7" d="M300 300h100v100H300z"/><path fill="#e6e4eb" d="M400 300h100v100H400z"/><path fill="#d4d3d8" d="M500 300h100v100H500z"/><path fill="#e2e1e6" d="M600 300h100v100H600z"/><path fill="#ecebee" d="M700 300h100v100H700z"/><path fill="#d9d7dd" d="M0 400h100v100H0z"/><path fill="#d5d3da" d="M100 400h100v100H100z"/><path fill="#d5d4dc" d="M200 400h100v100H200z"/><path fill="#b9b8bf" d="M300 400h100v100H300z"/><path fill="#ebeaef" d="M400 400h100v100H400z"/><path fill="#f5f4fa" d="M500 400h100v100H500z"/><path fill="#d9d8de" d="M600 400h100v100H600z"/><path fill="#d3d3d6" d="M700 400h100v100H700z"/><path fill="#f3f2f6" d="M0 500h100v100H0z"/><path fill="#f6f6fd" d="M100 500h100v100H100z"/><path fill="#e1e0e7" d="M200 500h100v100H200z"/><path fill="#d2d1d7" d="M300 500h100v100H300z"/><path fill="#f2f1f7" d="M400 500h100v100H400z"/><path fill="#f5f4f9" d="M500 500h100v100H500z"/><path fill="#f6f6f8" d="M600 500h100v100H600z"/><path fill="#f9f8fa" d="M700 500h100v100H700z"/></svg>