<svg xmlns="http://www.w3.org/2000/svg" viewBox="0 0 800 500"><defs/><path fill="#a68a61" d="M0 0h100v100H0z"/><path fill="#9b805b" d="M100 0h100v100H100z"/><path fill="#c4974a" d="M200 0h100v100H200z"/><path fill="#8b7757" d="M300 0h100v100H300z"/><path fill="#9e885b" d="M400 0h100v100H400z"/><path fill="#a59c8a" d="M500 0h100v100H500z"/><path fill="#98865c" d="M600 0h100v100H600z"/><path fill="#b28e4c" d="M700 0h100v100H700z"/><path fill="#96845f" d="M0 100h100v100H0z"/><path fill="#a88141" d="M100 100h100v100H100z"/><path fill="#b18548" d="M200 100h100v100H200z"/><path fill="#826857" d="M300 100h100v100H300z"/><path fill="#867256" d="M400 100h100v100H400z"/><path fill="#8d7962" d="M500 100h100v100H500z"/><path fill="#907a52" d="M600 100h100v100H600z"/><path fill="#a58b57" d="M700 100h100v100H700z"/><path fill="#a08e60" d="M0 200h100v100H0z"/><path fill="#9f734c" d="M100 200h100v100H100z"/><path fill="#9e6f43" d="M200 200h100v100H200z"/><path fill="#936543" d="M300 200h100v100H300z"/><path fill="#846c56" d="M400 200h100v100H400z"/><path fill="#a9794f" d="M500 200h100v100H500z"/><path fill="#b37e3c" d="M600 200h100v100H600z"/><path fill="#a08955" d="M700 200h100v100H700z"/><path fill="#957d5c" d="M0 300h100v100H0z"/><path fill="#a47243" d="M100 300h100v100H100z"/><path fill="#8d724e" d="M200 300h100v100H200z"/><path fill="#7b684d" d="M300 300h100v100H300z"/><path fill="#7c675e" d="M400 300h100v100H400z"/><path fill="#907459" d="M500 300h100v100H500z"/><path fill="#977545" d="M600 300h100v100H600z"/><path fill="#a56c3e" d="M700 300h100v100H700z"/><path fill="#ac7446" d="M0 400h100v100H0z"/><path fill="#b47637" d="M100 400h100v100H100z"/><path fill="#af7145" d="M200 400h100v100H200z"/><path fill="#8f7661" d="M300 400h100v100H300z"/><path fill="#a16e52" d="M400 400h100v100H400z"/><path fill="#967059" d="M500 400h100v100H500z"/><path fill="#a77f4a" d="M600 400h100v100H600z"/><path fill="#bb7339" d="M700 400h100v100H700z"/></svg>