<svg xmlns="http://www.w3.org/2000/svg" viewBox="0 0 800 500"><defs/><path fill="#b5b5b4" d="M0 0h100v100H0z"/><path fill="#c1c1c0" d="M100 0h100v100H100z"/><path fill="#ebebeb" d="M200 0h100v100H200z"/><path fill="#f2f2f1" d="M300 0h100v100H300z"/><path fill="#dcdcdb" d="M400 0h100v100H400z"/><path fill="#ebeaea" d="M500 0h100v100H500z"/><path fill="#cececc" d="M600 0h100v100H600z"/><path fill="#c3c2c1" d="M700 0h100v100H700z"/><path fill="#bbbab8" d="M0 100h100v100H0z"/><path fill="#c4c4c2" d="M100 100h100v100H100z"/><path fill="#dbdbda" d="M200 100h100v100H200z"/><path fill="#dededc" d="M300 100h100v100H300z"/><path fill="#d5d4d3" d="M400 100h100v100H400z"/><path fill="#dcdbda" d="M500 100h100v100H500z"/><path fill="#d3d3d1" d="M600 100h100v100H600z"/><path fill="#cbcbc9" d="M700 100h100v100H700z"/><path fill="#f4f4f4" d="M0 200h100v100H0z"/><path fill="#e4e4e3" d="M100 200h100v100H100z"/><path fill="#f2f2f1" d="M200 200h100v100H200z"/><path fill="#eaeae9" d="M300 200h100v100H300z"/><path fill="#e3e3e2" d="M400 200h100v100H400z"/><path fill="#c2c1c0" d="M500 200h100v100H500z"/><path fill="#d3d3d2" d="M600 200h100v100H600z"/><path fill="#d6d5d4" d="M700 200h100v100H700z"/><path fill="#eaeae9" d="M0 300h100v100H0z"/><path fill="#dadad9" d="M100 300h100v100H100z"/><path fill="#8a8885" d="M200 300h100v100H200z"/><path fill="#8e8c8a" d="M300 300h100v100H300z"/><path fill="#7b7976" d="M400 300h100v100H400z"/><path fill="#ababa9" d="M500 300h100v100H500z"/><path fill="#cbcbca" d="M600 300h100v100H600z"/><path fill="#e1e1e0" d="M700 300h100v100H700zM0 400h100v100H0z"/><path fill="#c7c7c5" d="M100 400h100v100H100z"/><path fill="#a6a5a4" d="M200 400h100v100H200z"/><path fill="#9c9b99" d="M300 400h100v100H300z"/><path fill="#918f8d" d="M400 400h100v100H400z"/><path fill="#b0afad" d="M500 400h100v100H500z"/><path fill="#a5a3a1" d="M600 400h100v100H600z"/><path fill="#c7c7c5" d="M700 400h100v100H700z"/></svg>