<svg xmlns="http://www.w3.org/2000/svg" viewBox="0 0 800 400"><defs/><path fill="#aca894" d="M0 0h100v100H0z"/><path fill="#b8b3a0" d="M100 0h100v100H100z"/><path fill="#c6c2b1" d="M200 0h100v100H200z"/><path fill="#d9d6c9" d="M300 0h100v100H300z"/><path fill="#d4d2c5" d="M400 0h100v100H400z"/><path fill="#ccc9bb" d="M500 0h100v100H500z"/><path fill="#d0ccbc" d="M600 0h100v100H600z"/><path fill="#b6b19c" d="M700 0h100v100H700z"/><path fill="#ada997" d="M0 100h100v100H0z"/><path fill="#c2beab" d="M100 100h100v100H100z"/><path fill="#d8d4c6" d="M200 100h100v100H200z"/><path fill="#d2cfc3" d="M300 100h100v100H300z"/><path fill="#d2cdbe" d="M400 100h100v100H400z"/><path fill="#d0cbbc" d="M500 100h100v100H500z"/><path fill="#bab7a8" d="M600 100h100v100H600z"/><path fill="#a29f90" d="M700 100h100v100H700z"/><path fill="#bcb8a8" d="M0 200h100v100H0z"/><path fill="#beb8a5" d="M100 200h100v100H100z"/><path fill="#cec9ba" d="M200 200h100v100H200z"/><path fill="#b6b4a9" d="M300 200h100v100H300z"/><path fill="#cbc8bd" d="M400 200h100v100H400z"/><path fill="#dbd9ce" d="M500 200h100v100H500z"/><path fill="#aeaca0" d="M600 200h100v100H600z"/><path fill="#a8a394" d="M700 200h100v100H700z"/><path fill="#c4bfb0" d="M0 300h100v100H0z"/><path fill="#c3beab" d="M100 300h100v100H100z"/><path fill="#d8d3c5" d="M200 300h100v100H200z"/><path fill="#eae6dc" d="M300 300h100v100H300z"/><path fill="#e8e5dc" d="M400 300h100v100H400z"/><path fill="#e7e4dc" d="M500 300h100v100H500z"/><path fill="#ede9e1" d="M600 300h100v100H600z"/><path fill="#c6c1b4" d="M700 300h100v100H700z"/></svg>