<svg xmlns="http://www.w3.org/2000/svg" viewBox="0 0 800 500"><defs/><path fill="#e8c675" d="M0 0h100v100H0z"/><path fill="#ddc6a7" d="M100 0h100v100H100z"/><path fill="#dac6b5" d="M200 0h100v100H200z"/><path fill="#e8c890" d="M300 0h100v100H300z"/><path fill="#dec08c" d="M400 0h100v100H400z"/><path fill="#e3bc77" d="M500 0h100v100H500z"/><path fill="#eeb72f" d="M600 0h100v100H600z"/><path fill="#d6c580" d="M700 0h100v100H700z"/><path fill="#ebbc5f" d="M0 100h100v100H0z"/><path fill="#cfc0ac" d="M100 100h100v100H100z"/><path fill="#c6d1ed" d="M200 100h100v100H200z"/><path fill="#8e9bc1" d="M300 100h100v100H300z"/><path fill="#b6caec" d="M400 100h100v100H400z"/><path fill="#b0cb95" d="M500 100h100v100H500z"/><path fill="#e0c81f" d="M600 100h100v100H600z"/><path fill="#e2d08f" d="M700 100h100v100H700z"/><path fill="#ebba5a" d="M0 200h100v100H0z"/><path fill="#bcb292" d="M100 200h100v100H100z"/><path fill="#bda377" d="M200 200h100v100H200z"/><path fill="#a7698f" d="M300 200h100v100H300z"/><path fill="#d38b8d" d="M400 200h100v100H400z"/><path fill="#96aca1" d="M500 200h100v100H500z"/><path fill="#9ea741" d="M600 200h100v100H600z"/><path fill="#e5ddc1" d="M700 200h100v100H700z"/><path fill="#e5c580" d="M0 300h100v100H0z"/><path fill="#888ba5" d="M100 300h100v100H100z"/><path fill="#c76b54" d="M200 300h100v100H200z"/><path fill="#f89395" d="M300 300h100v100H300z"/><path fill="#e5c8cd" d="M400 300h100v100H400z"/><path fill="#9e7296" d="M500 300h100v100H500z"/><path fill="#091665" d="M600 300h100v100H600z"/><path fill="#9fa9ad" d="M700 300h100v100H700z"/><path fill="#c08a65" d="M0 400h100v100H0z"/><path fill="#a65955" d="M100 400h100v100H100z"/><path fill="#d44e1a" d="M200 400h100v100H200z"/><path fill="#d7603b" d="M300 400h100v100H300z"/><path fill="#c1868c" d="M400 400h100v100H400z"/><path fill="#b66f85" d="M500 400h100v100H500z"/><path fill="#64488d" d="M600 400h100v100H600z"/><path fill="#7270a9" d="M700 400h100v100H700z"/></svg>