<svg xmlns="http://www.w3.org/2000/svg" viewBox="0 0 800 600"><defs/><path fill="#ac8595" d="M0 0h100v100H0z"/><path fill="#a98292" d="M100 0h100v100H100z"/><path fill="#ab8494" d="M200 0h100v100H200z"/><path fill="#ac8495" d="M300 0h100v100H300z"/><path fill="#aa8394" d="M400 0h100v100H400z"/><path fill="#aa8293" d="M500 0h100v100H500z"/><path fill="#aa8395" d="M600 0h100v100H600z"/><path fill="#ab8394" d="M700 0h100v100H700z"/><path fill="#9e7487" d="M0 100h100v100H0z"/><path fill="#8f6679" d="M100 100h100v100H100z"/><path fill="#956d7f" d="M200 100h100v100H200z"/><path fill="#956f82" d="M300 100h100v100H300z"/><path fill="#926d7f" d="M400 100h100v100H400z"/><path fill="#906a7d" d="M500 100h100v100H500z"/><path fill="#92697c" d="M600 100h100v100H600z"/><path fill="#92697d" d="M700 100h100v100H700z"/><path fill="#9c7286" d="M0 200h100v100H0z"/><path fill="#926779" d="M100 200h100v100H100z"/><path fill="#9a7284" d="M200 200h100v100H200z"/><path fill="#917083" d="M300 200h100v100H300z"/><path fill="#8b697e" d="M400 200h100v100H400z"/><path fill="#98798a" d="M500 200h100v100H500z"/><path fill="#a07585" d="M600 200h100v100H600z"/><path fill="#946576" d="M700 200h100v100H700z"/><path fill="#976f81" d="M0 300h100v100H0z"/><path fill="#8e687d" d="M100 300h100v100H100z"/><path fill="#926f85" d="M200 300h100v100H200z"/><path fill="#866b86" d="M300 300h100v100H300z"/><path fill="#9b7a8f" d="M400 300h100v100H400z"/><path fill="#6c5d83" d="M500 300h100v100H500z"/><path fill="#8a6d85" d="M600 300h100v100H600z"/><path fill="#946a7b" d="M700 300h100v100H700z"/><path fill="#8d6b7f" d="M0 400h100v100H0z"/><path fill="#776280" d="M100 400h100v100H100z"/><path fill="#6d5f86" d="M200 400h100v100H200z"/><path fill="#736387" d="M300 400h100v100H300z"/><path fill="#92778f" d="M400 400h100v100H400z"/><path fill="#5c5383" d="M500 400h100v100H500z"/><path fill="#665b85" d="M600 400h100v100H600z"/><path fill="#88657b" d="M700 400h100v100H700z"/><path fill="#a48094" d="M0 500h100v100H0z"/><path fill="#977891" d="M100 500h100v100H100z"/><path fill="#927691" d="M200 500h100v100H200z"/><path fill="#977991" d="M300 500h100v100H300z"/><path fill="#a07e93" d="M400 500h100v100H400z"/><path fill="#9e7d93" d="M500 500h100v100H500z"/><path fill="#987891" d="M600 500h100v100H600z"/><path fill="#a47c8d" d="M700 500h100v100H700z"/></svg>