<svg xmlns="http://www.w3.org/2000/svg" viewBox="0 0 800 400"><defs/><path fill="#92978e" d="M0 0h100v100H0z"/><path fill="#8a957c" d="M100 0h100v100H100z"/><path fill="#99999c" d="M200 0h100v100H200z"/><path fill="#a5a3a2" d="M300 0h100v100H300z"/><path fill="#a39f9b" d="M400 0h100v100H400z"/><path fill="#a3a19e" d="M500 0h100v100H500z"/><path fill="#929290" d="M600 0h100v100H600z"/><path fill="#817f7a" d="M700 0h100v100H700z"/><path fill="#89937f" d="M0 100h100v100H0z"/><path fill="#81845e" d="M100 100h100v100H100z"/><path fill="#888b91" d="M200 100h100v100H200z"/><path fill="#8f8e8a" d="M300 100h100v100H300z"/><path fill="#949190" d="M400 100h100v100H400z"/><path fill="#969998" d="M500 100h100v100H500z"/><path fill="#878d8f" d="M600 100h100v100H600z"/><path fill="#7b7b76" d="M700 100h100v100H700z"/><path fill="#9d9c8c" d="M0 200h100v100H0z"/><path fill="#9b9287" d="M100 200h100v100H100z"/><path fill="#888a8a" d="M200 200h100v100H200z"/><path fill="#888988" d="M300 200h100v100H300z"/><path fill="#9e9d9c" d="M400 200h100v100H400z"/><path fill="#999896" d="M500 200h100v100H500z"/><path fill="#818485" d="M600 200h100v100H600z"/><path fill="#8b8e86" d="M700 200h100v100H700z"/><path fill="#a3958e" d="M0 300h100v100H0z"/><path fill="#9a8e8a" d="M100 300h100v100H100z"/><path fill="#949494" d="M200 300h100v100H200z"/><path fill="#9d9293" d="M300 300h100v100H300z"/><path fill="#8b8786" d="M400 300h100v100H400z"/><path fill="#8e8b87" d="M500 300h100v100H500z"/><path fill="#73706f" d="M600 300h100v100H600z"/><path fill="#7e7d77" d="M700 300h100v100H700z"/></svg>