<svg xmlns="http://www.w3.org/2000/svg" viewBox="0 0 800 500"><defs/><path fill="#fbfbf9" d="M0 0h100v100H0z"/><path fill="#f5e7cc" d="M100 0h100v100H100z"/><path fill="#f4f3ee" d="M200 0h100v100H200z"/><path fill="#f1f7fc" d="M300 0h100v100H300z"/><path fill="#e8f1f6" d="M400 0h100v100H400z"/><path fill="#eef4f7" d="M500 0h100v100H500z"/><path fill="#fbfaf9" d="M600 0h100v100H600z"/><path fill="#fafaf8" d="M700 0h100v100H700z"/><path fill="#e0e3e3" d="M0 100h100v100H0z"/><path fill="#b39c5a" d="M100 100h100v100H100z"/><path fill="#fff3dc" d="M200 100h100v100H200z"/><path fill="#c2dceb" d="M300 100h100v100H300z"/><path fill="#258ccf" d="M400 100h100v100H400z"/><path fill="#9bcaea" d="M500 100h100v100H500z"/><path fill="#f3f7f9" d="M600 100h100v100H600z"/><path fill="#d6e3eb" d="M700 100h100v100H700z"/><path fill="#4590c5" d="M0 200h100v100H0z"/><path fill="#7baebd" d="M100 200h100v100H100z"/><path fill="#919d9e" d="M200 200h100v100H200z"/><path fill="#75918e" d="M300 200h100v100H300z"/><path fill="#b6c6c5" d="M400 200h100v100H400z"/><path fill="#c1c0b3" d="M500 200h100v100H500z"/><path fill="#58b1ef" d="M600 200h100v100H600z"/><path fill="#8bcaf5" d="M700 200h100v100H700z"/><path fill="#4b97c4" d="M0 300h100v100H0z"/><path fill="#9aa689" d="M100 300h100v100H100z"/><path fill="#a88e4e" d="M200 300h100v100H200z"/><path fill="#719391" d="M300 300h100v100H300z"/><path fill="#3ea9ef" d="M400 300h100v100H400z"/><path fill="#95a68e" d="M500 300h100v100H500z"/><path fill="#867e40" d="M600 300h100v100H600z"/><path fill="#b5b694" d="M700 300h100v100H700z"/><path fill="#c8d9de" d="M0 400h100v100H0z"/><path fill="#e1d6bb" d="M100 400h100v100H100z"/><path fill="#fdd796" d="M200 400h100v100H200z"/><path fill="#c8cfbf" d="M300 400h100v100H300z"/><path fill="#91c5e4" d="M400 400h100v100H400z"/><path fill="#b3d3e2" d="M500 400h100v100H500z"/><path fill="#f8d293" d="M600 400h100v100H600z"/><path fill="#ecd19c" d="M700 400h100v100H700z"/></svg>