<svg xmlns="http://www.w3.org/2000/svg" viewBox="0 0 800 400"><defs/><path fill="#5f442e" d="M0 0h100v100H0z"/><path fill="#3d2319" d="M100 0h100v100H100z"/><path fill="#41271c" d="M200 0h100v100H200z"/><path fill="#49301f" d="M300 0h100v100H300z"/><path fill="#94704d" d="M400 0h100v100H400z"/><path fill="#8c6d4a" d="M500 0h100v100H500z"/><path fill="#5e4a30" d="M600 0h100v100H600z"/><path fill="#262d1a" d="M700 0h100v100H700z"/><path fill="#573b27" d="M0 100h100v100H0z"/><path fill="#3f2419" d="M100 100h100v100H100z"/><path fill="#3b2419" d="M200 100h100v100H200z"/><path fill="#423226" d="M300 100h100v100H300z"/><path fill="#b8ae80" d="M400 100h100v100H400z"/><path fill="#a59066" d="M500 100h100v100H500z"/><path fill="#724d33" d="M600 100h100v100H600z"/><path fill="#644a30" d="M700 100h100v100H700z"/><path fill="#492d20" d="M0 200h100v100H0z"/><path fill="#42261b" d="M100 200h100v100H100z"/><path fill="#604739" d="M200 200h100v100H200z"/><path fill="#716044" d="M300 200h100v100H300z"/><path fill="#84735d" d="M400 200h100v100H400z"/><path fill="#6e5e4e" d="M500 200h100v100H500z"/><path fill="#684731" d="M600 200h100v100H600z"/><path fill="#6f3d28" d="M700 200h100v100H700z"/><path fill="#4c2e20" d="M0 300h100v100H0z"/><path fill="#5c402e" d="M100 300h100v100H100z"/><path fill="#796a56" d="M200 300h100v100H200z"/><path fill="#7b5c34" d="M300 300h100v100H300z"/><path fill="#755837" d="M400 300h100v100H400z"/><path fill="#5f4637" d="M500 300h100v100H500z"/><path fill="#53352a" d="M600 300h100v100H600z"/><path fill="#583020" d="M700 300h100v100H700z"/></svg>