<svg xmlns="http://www.w3.org/2000/svg" viewBox="0 0 800 500"><defs/><path fill="#ddcfce" d="M0 0h100v100H0z"/><path fill="#bebdd6" d="M100 0h100v100H100z"/><path fill="#d2c7d1" d="M200 0h100v100H200z"/><path fill="#e0d2cf" d="M300 0h100v100H300z"/><path fill="#dccfcf" d="M400 0h100v100H400z"/><path fill="#bdbad5" d="M500 0h100v100H500z"/><path fill="#bab9d6" d="M600 0h100v100H600z"/><path fill="#e0d2cf" d="M700 0h100v100H700z"/><path fill="#cdc5d1" d="M0 100h100v100H0z"/><path fill="#a3abdc" d="M100 100h100v100H100z"/><path fill="#bdbad5" d="M200 100h100v100H200z"/><path fill="#d9ced1" d="M300 100h100v100H300z"/><path fill="#cfc7d3" d="M400 100h100v100H400z"/><path fill="#aeafd7" d="M500 100h100v100H500z"/><path fill="#a4aada" d="M600 100h100v100H600z"/><path fill="#d1c9d2" d="M700 100h100v100H700z"/><path fill="#d9ced0" d="M0 200h100v100H0z"/><path fill="#adb1da" d="M100 200h100v100H100z"/><path fill="#cac2d2" d="M200 200h100v100H200z"/><path fill="#ded0cf" d="M300 200h100v100H300z"/><path fill="#dccecf" d="M400 200h100v100H400z"/><path fill="#c1bad3" d="M500 200h100v100H500z"/><path fill="#c7c0d2" d="M600 200h100v100H600z"/><path fill="#d2c9d2" d="M700 200h100v100H700z"/><path fill="#d6ccd2" d="M0 300h100v100H0z"/><path fill="#adb3db" d="M100 300h100v100H100z"/><path fill="#d2c9d2" d="M200 300h100v100H200z"/><path fill="#ded1cf" d="M300 300h100v100H300z"/><path fill="#c7c3d4" d="M400 300h100v100H400z"/><path fill="#d7cbd1" d="M500 300h100v100H500z"/><path fill="#b0b3da" d="M600 300h100v100H600z"/><path fill="#d0c9d3" d="M700 300h100v100H700z"/><path fill="#e7d7cd" d="M0 400h100v100H0z"/><path fill="#cfc8d4" d="M100 400h100v100H100z"/><path fill="#dcd1d0" d="M200 400h100v100H200z"/><path fill="#f5dfca" d="M300 400h100v100H300z"/><path fill="#dacfd0" d="M400 400h100v100H400z"/><path fill="#f1ddcb" d="M500 400h100v100H500z"/><path fill="#d2cad3" d="M600 400h100v100H600z"/><path fill="#e0d2cf" d="M700 400h100v100H700z"/></svg>