<svg xmlns="http://www.w3.org/2000/svg" viewBox="0 0 800 300"><defs/><path fill="#dedfe1" d="M0 0h100v100H0z"/><path fill="#d8d9db" d="M100 0h100v100H100z"/><path fill="#eeeff1" d="M200 0h100v100H200z"/><path fill="#f2f2f3" d="M300 0h100v100H300z"/><path fill="#f7f7f7" d="M400 0h100v100H400z"/><path fill="#f4f4f4" d="M500 0h100v100H500z"/><path fill="#ebebeb" d="M600 0h100v100H600z"/><path fill="#ececec" d="M700 0h100v100H700z"/><path fill="#e3e3e3" d="M0 100h100v100H0zm100 0h100v100H100z"/><path fill="#dcdcdc" d="M200 100h100v100H200z"/><path fill="#d8d8d8" d="M300 100h100v100H300z"/><path fill="#e3e3e3" d="M400 100h100v100H400z"/><path fill="#ebebeb" d="M500 100h100v100H500z"/><path fill="#d3d2d2" d="M600 100h100v100H600z"/><path fill="#cac9c9" d="M700 100h100v100H700z"/><path fill="#dadada" d="M0 200h100v100H0z"/><path fill="#dededf" d="M100 200h100v100H100z"/><path fill="#d9d9d9" d="M200 200h100v100H200z"/><path fill="#e0dfdf" d="M300 200h100v100H300z"/><path fill="#efefef" d="M400 200h100v100H400z"/><path fill="#e4e4e4" d="M500 200h100v100H500z"/><path fill="#d0d0d0" d="M600 200h100v100H600z"/><path fill="#d4d4d4" d="M700 200h100v100H700z"/></svg>