<svg xmlns="http://www.w3.org/2000/svg" viewBox="0 0 800 600"><defs/><path fill="#d4d8d8" d="M0 0h100v100H0z"/><path fill="#d3d8dc" d="M100 0h100v100H100z"/><path fill="#e1dfe0" d="M200 0h100v100H200z"/><path fill="#e3dfdf" d="M300 0h100v100H300z"/><path fill="#e4e3e1" d="M400 0h100v100H400z"/><path fill="#e1dfde" d="M500 0h100v100H500z"/><path fill="#d9d8d9" d="M600 0h100v100H600z"/><path fill="#d3dadc" d="M700 0h100v100H700z"/><path fill="#d7dacf" d="M0 100h100v100H0z"/><path fill="#aac6ad" d="M100 100h100v100H100z"/><path fill="#b7d3c9" d="M200 100h100v100H200z"/><path fill="#c1dddd" d="M300 100h100v100H300z"/><path fill="#c0d0d5" d="M400 100h100v100H400z"/><path fill="#9ac1b9" d="M500 100h100v100H500z"/><path fill="#b3caba" d="M600 100h100v100H600z"/><path fill="#ece3d8" d="M700 100h100v100H700z"/><path fill="#d4d7cc" d="M0 200h100v100H0z"/><path fill="#a1bfa4" d="M100 200h100v100H100z"/><path fill="#bbd2b7" d="M200 200h100v100H200z"/><path fill="#cbd4c8" d="M300 200h100v100H300z"/><path fill="#bfc6be" d="M400 200h100v100H400z"/><path fill="#b2d0bf" d="M500 200h100v100H500z"/><path fill="#c1c8b9" d="M600 200h100v100H600z"/><path fill="#e7c6bf" d="M700 200h100v100H700z"/><path fill="#c5d2c6" d="M0 300h100v100H0z"/><path fill="#a4c5a5" d="M100 300h100v100H100z"/><path fill="#e2c6af" d="M200 300h100v100H200z"/><path fill="#edb3ac" d="M300 300h100v100H300z"/><path fill="#eaa0ac" d="M400 300h100v100H400z"/><path fill="#e6dac0" d="M500 300h100v100H500z"/><path fill="#d1b599" d="M600 300h100v100H600z"/><path fill="#c6ad9a" d="M700 300h100v100H700z"/><path fill="#becac0" d="M0 400h100v100H0z"/><path fill="#b6b9a1" d="M100 400h100v100H100z"/><path fill="#deb997" d="M200 400h100v100H200z"/><path fill="#e8c39f" d="M300 400h100v100H300z"/><path fill="#e7caa9" d="M400 400h100v100H400z"/><path fill="#e2ceaf" d="M500 400h100v100H500z"/><path fill="#ccba98" d="M600 400h100v100H600z"/><path fill="#bfa377" d="M700 400h100v100H700z"/><path fill="#c3caca" d="M0 500h100v100H0z"/><path fill="#c3c6c3" d="M100 500h100v100H100z"/><path fill="#cad0c9" d="M200 500h100v100H200z"/><path fill="#cccdc8" d="M300 500h100v100H300z"/><path fill="#cdcbc3" d="M400 500h100v100H400z"/><path fill="#ccccc6" d="M500 500h100v100H500z"/><path fill="#c8c6c1" d="M600 500h100v100H600z"/><path fill="#c1beb5" d="M700 500h100v100H700z"/></svg>