<svg xmlns="http://www.w3.org/2000/svg" viewBox="0 0 800 400"><defs/><path fill="#fbf8f9" d="M0 0h100v100H0z"/><path fill="#e4d7db" d="M100 0h100v100H100z"/><path fill="#fcfcfb" d="M200 0h100v100H200z"/><path fill="#faeae7" d="M300 0h100v100H300z"/><path fill="#f7f1f6" d="M400 0h100v100H400z"/><path fill="#efeaed" d="M500 0h100v100H500z"/><path fill="#f5f8f1" d="M600 0h100v100H600z"/><path fill="#887a7a" d="M700 0h100v100H700z"/><path fill="#cfcfd7" d="M0 100h100v100H0z"/><path fill="#c1c4ce" d="M100 100h100v100H100z"/><path fill="#fff" d="M200 100h100v100H200z"/><path fill="#fdfdfe" d="M300 100h100v100H300z"/><path fill="#fff" d="M400 100h100v100H400z"/><path fill="#fbf2f8" d="M500 100h100v100H500z"/><path fill="#fffffe" d="M600 100h100v100H600z"/><path fill="#857474" d="M700 100h100v100H700z"/><path fill="#e9e5e9" d="M0 200h100v100H0z"/><path fill="#bacac9" d="M100 200h100v100H100z"/><path fill="#96c4b9" d="M200 200h100v100H200z"/><path fill="#a1bdb7" d="M300 200h100v100H300z"/><path fill="#aec0bc" d="M400 200h100v100H400z"/><path fill="#9abdb4" d="M500 200h100v100H500z"/><path fill="#9fc4bd" d="M600 200h100v100H600z"/><path fill="#656764" d="M700 200h100v100H700z"/><path fill="#ebe5e5" d="M0 300h100v100H0z"/><path fill="#79a499" d="M100 300h100v100H100z"/><path fill="#007858" d="M200 300h100v100H200z"/><path fill="#565c58" d="M300 300h100v100H300z"/><path fill="#834654" d="M400 300h100v100H400z"/><path fill="#0b7a5c" d="M500 300h100v100H500z"/><path fill="#13785c" d="M600 300h100v100H600z"/><path fill="#317562" d="M700 300h100v100H700z"/></svg>