<svg xmlns="http://www.w3.org/2000/svg" viewBox="0 0 800 600"><defs/><path fill="#75716e" d="M0 0h100v100H0z"/><path fill="#b6b5b2" d="M100 0h100v100H100z"/><path fill="#f6f6f3" d="M200 0h100v100H200z"/><path fill="#c9c8c5" d="M300 0h100v100H300z"/><path fill="#9b9996" d="M400 0h100v100H400z"/><path fill="#9c9c97" d="M500 0h100v100H500z"/><path fill="#757572" d="M600 0h100v100H600z"/><path fill="#51514f" d="M700 0h100v100H700z"/><path fill="#9a9895" d="M0 100h100v100H0z"/><path fill="#e2e4de" d="M100 100h100v100H100z"/><path fill="#f2f2ec" d="M200 100h100v100H200z"/><path fill="#c6c4bf" d="M300 100h100v100H300z"/><path fill="#8d8c8a" d="M400 100h100v100H400z"/><path fill="#848481" d="M500 100h100v100H500z"/><path fill="#6c6c6a" d="M600 100h100v100H600z"/><path fill="#3d3d3d" d="M700 100h100v100H700z"/><path fill="#767673" d="M0 200h100v100H0z"/><path fill="#aeaea9" d="M100 200h100v100H100z"/><path fill="#bbbab5" d="M200 200h100v100H200z"/><path fill="#a8a5a0" d="M300 200h100v100H300z"/><path fill="#777673" d="M400 200h100v100H400z"/><path fill="#6a6a69" d="M500 200h100v100H500z"/><path fill="#4a4b4a" d="M600 200h100v100H600z"/><path fill="#403f3f" d="M700 200h100v100H700z"/><path fill="#62605d" d="M0 300h100v100H0z"/><path fill="#70716e" d="M100 300h100v100H100z"/><path fill="#676767" d="M200 300h100v100H200z"/><path fill="#757471" d="M300 300h100v100H300z"/><path fill="#5c5b58" d="M400 300h100v100H400z"/><path fill="#575553" d="M500 300h100v100H500z"/><path fill="#393837" d="M600 300h100v100H600z"/><path fill="#272627" d="M700 300h100v100H700z"/><path fill="#464441" d="M0 400h100v100H0z"/><path fill="#575655" d="M100 400h100v100H100z"/><path fill="#494a4a" d="M200 400h100v100H200z"/><path fill="#535251" d="M300 400h100v100H300z"/><path fill="#444545" d="M400 400h100v100H400z"/><path fill="#363535" d="M500 400h100v100H500z"/><path fill="#2a2929" d="M600 400h100v100H600z"/><path fill="#2f2d2d" d="M700 400h100v100H700z"/><path fill="#292825" d="M0 500h100v100H0z"/><path fill="#4f4e49" d="M100 500h100v100H100z"/><path fill="#585554" d="M200 500h100v100H200z"/><path fill="#55504e" d="M300 500h100v100H300z"/><path fill="#534f4e" d="M400 500h100v100H400z"/><path fill="#4a4644" d="M500 500h100v100H500z"/><path fill="#464240" d="M600 500h100v100H600z"/><path fill="#3e3a37" d="M700 500h100v100H700z"/></svg>