<svg xmlns="http://www.w3.org/2000/svg" viewBox="0 0 800 600"><defs/><path fill="#cdc3bb" d="M0 0h100v100H0z"/><path fill="#beb1b7" d="M100 0h100v100H100z"/><path fill="#ccbdb8" d="M200 0h100v100H200z"/><path fill="#cfc0bb" d="M300 0h100v100H300z"/><path fill="#d5cbcb" d="M400 0h100v100H400z"/><path fill="#dbd2d1" d="M500 0h100v100H500z"/><path fill="#e1dbd6" d="M600 0h100v100H600z"/><path fill="#e3e0dc" d="M700 0h100v100H700z"/><path fill="#c4b5aa" d="M0 100h100v100H0z"/><path fill="#9a88ac" d="M100 100h100v100H100z"/><path fill="#bb9898" d="M200 100h100v100H200z"/><path fill="#bfa1a7" d="M300 100h100v100H300z"/><path fill="#cccccb" d="M400 100h100v100H400z"/><path fill="#c5c4cd" d="M500 100h100v100H500z"/><path fill="#d3c8c3" d="M600 100h100v100H600z"/><path fill="#d8dada" d="M700 100h100v100H700z"/><path fill="#b9abab" d="M0 200h100v100H0z"/><path fill="#a390aa" d="M100 200h100v100H100z"/><path fill="#ae909f" d="M200 200h100v100H200z"/><path fill="#af97af" d="M300 200h100v100H300z"/><path fill="#d1ccce" d="M400 200h100v100H400z"/><path fill="#d1ceda" d="M500 200h100v100H500z"/><path fill="#cdc4cc" d="M600 200h100v100H600z"/><path fill="#cac5c7" d="M700 200h100v100H700z"/><path fill="#b0a1af" d="M0 300h100v100H0z"/><path fill="#a08798" d="M100 300h100v100H100z"/><path fill="#c19583" d="M200 300h100v100H200z"/><path fill="#c1a19d" d="M300 300h100v100H300z"/><path fill="#cdc4bb" d="M400 300h100v100H400z"/><path fill="#d7cbb0" d="M500 300h100v100H500z"/><path fill="#d4cdc2" d="M600 300h100v100H600z"/><path fill="#cac5c4" d="M700 300h100v100H700z"/><path fill="#9f8da7" d="M0 400h100v100H0z"/><path fill="#9f716e" d="M100 400h100v100H100z"/><path fill="#bb9e64" d="M200 400h100v100H200z"/><path fill="#bd9b7e" d="M300 400h100v100H300z"/><path fill="#cc9078" d="M400 400h100v100H400z"/><path fill="#ce9572" d="M500 400h100v100H500z"/><path fill="#d4b989" d="M600 400h100v100H600z"/><path fill="#b7bcba" d="M700 400h100v100H700z"/><path fill="#b6a8a2" d="M0 500h100v100H0z"/><path fill="#c0ac93" d="M100 500h100v100H100z"/><path fill="#b2aca2" d="M200 500h100v100H200z"/><path fill="#b2a6aa" d="M300 500h100v100H300z"/><path fill="#c8acab" d="M400 500h100v100H400z"/><path fill="#cbb0b1" d="M500 500h100v100H500z"/><path fill="#d1bfae" d="M600 500h100v100H600z"/><path fill="#c6bfb6" d="M700 500h100v100H700z"/></svg>