<svg xmlns="http://www.w3.org/2000/svg" viewBox="0 0 800 600"><defs/><path fill="#a0b1c0" d="M0 0h100v100H0z"/><path fill="#9ca6b4" d="M100 0h100v100H100z"/><path fill="#c0c9d6" d="M200 0h100v100H200z"/><path fill="#cad4e1" d="M300 0h100v100H300z"/><path fill="#c2cdda" d="M400 0h100v100H400z"/><path fill="#b5c1d0" d="M500 0h100v100H500z"/><path fill="#c8d3e1" d="M600 0h100v100H600z"/><path fill="#cbd6e3" d="M700 0h100v100H700z"/><path fill="#c9d2df" d="M0 100h100v100H0z"/><path fill="#919dab" d="M100 100h100v100H100z"/><path fill="#c4ccd9" d="M200 100h100v100H200z"/><path fill="#c3cad9" d="M300 100h100v100H300z"/><path fill="#b4bccb" d="M400 100h100v100H400z"/><path fill="#a4afbe" d="M500 100h100v100H500z"/><path fill="#dee4f1" d="M600 100h100v100H600z"/><path fill="#e6edf9" d="M700 100h100v100H700z"/><path fill="#d9dfeb" d="M0 200h100v100H0z"/><path fill="#adb7c4" d="M100 200h100v100H100z"/><path fill="#d2d9e6" d="M200 200h100v100H200z"/><path fill="#c7cedc" d="M300 200h100v100H300z"/><path fill="#c5cddb" d="M400 200h100v100H400z"/><path fill="#b2bccb" d="M500 200h100v100H500z"/><path fill="#d5ddea" d="M600 200h100v100H600z"/><path fill="#e2eaf6" d="M700 200h100v100H700z"/><path fill="#d1d8e4" d="M0 300h100v100H0z"/><path fill="#c0cad7" d="M100 300h100v100H100z"/><path fill="#e4e9f5" d="M200 300h100v100H200z"/><path fill="#d4dbe7" d="M300 300h100v100H300z"/><path fill="#b1bbc9" d="M400 300h100v100H400z"/><path fill="#c1c9d7" d="M500 300h100v100H500z"/><path fill="#d3dce9" d="M600 300h100v100H600z"/><path fill="#e0e9f5" d="M700 300h100v100H700z"/><path fill="#c6cfdb" d="M0 400h100v100H0z"/><path fill="#c0c9d6" d="M100 400h100v100H100z"/><path fill="#e5eaf6" d="M200 400h100v100H200z"/><path fill="#c2cbd9" d="M300 400h100v100H300z"/><path fill="#afbac8" d="M400 400h100v100H400z"/><path fill="#bfc8d6" d="M500 400h100v100H500z"/><path fill="#d7e0ec" d="M600 400h100v100H600z"/><path fill="#dae3ef" d="M700 400h100v100H700z"/><path fill="#bdc7d3" d="M0 500h100v100H0z"/><path fill="#d0d7e3" d="M100 500h100v100H100z"/><path fill="#d9e0ec" d="M200 500h100v100H200z"/><path fill="#cbd3e1" d="M300 500h100v100H300z"/><path fill="#c4cedb" d="M400 500h100v100H400z"/><path fill="#bac5d4" d="M500 500h100v100H500z"/><path fill="#c1cbd9" d="M600 500h100v100H600z"/><path fill="#cdd7e4" d="M700 500h100v100H700z"/></svg>