<svg xmlns="http://www.w3.org/2000/svg" viewBox="0 0 800 400"><defs/><path fill="#ddb1ee" d="M0 0h100v100H0z"/><path fill="#b282c0" d="M100 0h100v100H100z"/><path fill="#bc83ce" d="M200 0h100v100H200z"/><path fill="#c487c2" d="M300 0h100v100H300z"/><path fill="#cd89ac" d="M400 0h100v100H400z"/><path fill="#c989b0" d="M500 0h100v100H500z"/><path fill="#c489d0" d="M600 0h100v100H600z"/><path fill="#d4a7e5" d="M700 0h100v100H700z"/><path fill="#d8ace9" d="M0 100h100v100H0z"/><path fill="#a775b4" d="M100 100h100v100H100z"/><path fill="#9e66ae" d="M200 100h100v100H200z"/><path fill="#b878a0" d="M300 100h100v100H300z"/><path fill="#be7176" d="M400 100h100v100H400z"/><path fill="#bb6b7f" d="M500 100h100v100H500z"/><path fill="#c481cb" d="M600 100h100v100H600z"/><path fill="#d7a8e1" d="M700 100h100v100H700z"/><path fill="#cda3dd" d="M0 200h100v100H0z"/><path fill="#ba86be" d="M100 200h100v100H100z"/><path fill="#976294" d="M200 200h100v100H200z"/><path fill="#bd89af" d="M300 200h100v100H300z"/><path fill="#cf97bf" d="M400 200h100v100H400z"/><path fill="#d296c8" d="M500 200h100v100H500z"/><path fill="#bd82c5" d="M600 200h100v100H600z"/><path fill="#8e6fa5" d="M700 200h100v100H700z"/><path fill="#cf9fd1" d="M0 300h100v100H0z"/><path fill="#e8b3dc" d="M100 300h100v100H100z"/><path fill="#946e90" d="M200 300h100v100H200z"/><path fill="#ba91b6" d="M300 300h100v100H300z"/><path fill="#ffcbf2" d="M400 300h100v100H400z"/><path fill="#c593c0" d="M500 300h100v100H500z"/><path fill="#9d6f9e" d="M600 300h100v100H600z"/><path fill="#573b67" d="M700 300h100v100H700z"/></svg>