<svg xmlns="http://www.w3.org/2000/svg" viewBox="0 0 800 700"><defs/><path fill="#191e16" d="M0 0h100v100H0z"/><path fill="#111b0d" d="M100 0h100v100H100z"/><path fill="#14220f" d="M200 0h100v100H200z"/><path fill="#192316" d="M300 0h100v100H300z"/><path fill="#202b1c" d="M400 0h100v100H400z"/><path fill="#14200e" d="M500 0h100v100H500z"/><path fill="#0f1510" d="M600 0h100v100H600z"/><path fill="#1e1d29" d="M700 0h100v100H700z"/><path fill="#39433a" d="M0 100h100v100H0z"/><path fill="#485547" d="M100 100h100v100H100z"/><path fill="#5d6560" d="M200 100h100v100H200z"/><path fill="#626c65" d="M300 100h100v100H300z"/><path fill="#697378" d="M400 100h100v100H400z"/><path fill="#969eb1" d="M500 100h100v100H500z"/><path fill="#2d3828" d="M600 100h100v100H600z"/><path fill="#091406" d="M700 100h100v100H700z"/><path fill="#474d52" d="M0 200h100v100H0z"/><path fill="#5a6658" d="M100 200h100v100H100z"/><path fill="#606258" d="M200 200h100v100H200z"/><path fill="#888b8e" d="M300 200h100v100H300z"/><path fill="#91938c" d="M400 200h100v100H400z"/><path fill="#a8acb6" d="M500 200h100v100H500z"/><path fill="#929bac" d="M600 200h100v100H600z"/><path fill="#344135" d="M700 200h100v100H700z"/><path fill="#333e35" d="M0 300h100v100H0z"/><path fill="#a09ca4" d="M100 300h100v100H100z"/><path fill="#777c70" d="M200 300h100v100H200z"/><path fill="#6f726b" d="M300 300h100v100H300z"/><path fill="#62615f" d="M400 300h100v100H400z"/><path fill="#66625e" d="M500 300h100v100H500z"/><path fill="#6e666a" d="M600 300h100v100H600z"/><path fill="#6b728a" d="M700 300h100v100H700z"/><path fill="#212d22" d="M0 400h100v100H0z"/><path fill="#98959e" d="M100 400h100v100H100z"/><path fill="#868e89" d="M200 400h100v100H200z"/><path fill="#3a4436" d="M300 400h100v100H300z"/><path fill="#636b7e" d="M400 400h100v100H400z"/><path fill="#646366" d="M500 400h100v100H500z"/><path fill="#4e4a4e" d="M600 400h100v100H600z"/><path fill="#2f3947" d="M700 400h100v100H700z"/><path fill="#142313" d="M0 500h100v100H0z"/><path fill="#6a6973" d="M100 500h100v100H100z"/><path fill="#787879" d="M200 500h100v100H200z"/><path fill="#535254" d="M300 500h100v100H300z"/><path fill="#51505f" d="M400 500h100v100H400z"/><path fill="#4b4d61" d="M500 500h100v100H500z"/><path fill="#4d4f71" d="M600 500h100v100H600z"/><path fill="#232f2f" d="M700 500h100v100H700z"/><path fill="#0f200d" d="M0 600h100v100H0z"/><path fill="#414455" d="M100 600h100v100H100z"/><path fill="#474868" d="M200 600h100v100H200z"/><path fill="#343656" d="M300 600h100v100H300z"/><path fill="#36395f" d="M400 600h100v100H400z"/><path fill="#393c66" d="M500 600h100v100H500z"/><path fill="#323759" d="M600 600h100v100H600z"/><path fill="#132513" d="M700 600h100v100H700z"/></svg>