<svg xmlns="http://www.w3.org/2000/svg" viewBox="0 0 800 600"><defs/><path fill="#f9f9f8" d="M0 0h100v100H0z"/><path fill="#f6f2ed" d="M100 0h100v100H100z"/><path fill="#f6f4f3" d="M200 0h100v100H200z"/><path fill="#f9f9f9" d="M300 0h100v100H300z"/><path fill="#f8f8f8" d="M400 0h100v100H400z"/><path fill="#f6f5f4" d="M500 0h100v100H500z"/><path fill="#f5efed" d="M600 0h100v100H600z"/><path fill="#f5f3f4" d="M700 0h100v100H700z"/><path fill="#f2f0ec" d="M0 100h100v100H0z"/><path fill="#d7bd9b" d="M100 100h100v100H100z"/><path fill="#dddddc" d="M200 100h100v100H200z"/><path fill="#e9e9e9" d="M300 100h100v100H300z"/><path fill="#ebecee" d="M400 100h100v100H400z"/><path fill="#e3dcda" d="M500 100h100v100H500z"/><path fill="#dbc0ba" d="M600 100h100v100H600z"/><path fill="#eae4e3" d="M700 100h100v100H700z"/><path fill="#eee7dd" d="M0 200h100v100H0z"/><path fill="#e1caaa" d="M100 200h100v100H100z"/><path fill="#d6cfc4" d="M200 200h100v100H200z"/><path fill="#d4d3cb" d="M300 200h100v100H300z"/><path fill="#eeefee" d="M400 200h100v100H400z"/><path fill="#ece7e4" d="M500 200h100v100H500z"/><path fill="#dcd8d4" d="M600 200h100v100H600z"/><path fill="#dbd1d0" d="M700 200h100v100H700z"/><path fill="#e0d6c6" d="M0 300h100v100H0z"/><path fill="#d4bda9" d="M100 300h100v100H100z"/><path fill="#d6a776" d="M200 300h100v100H200z"/><path fill="#d7af85" d="M300 300h100v100H300z"/><path fill="#d9bbb5" d="M400 300h100v100H400z"/><path fill="#dcc2ba" d="M500 300h100v100H500z"/><path fill="#dec4bc" d="M600 300h100v100H600z"/><path fill="#d5c0b9" d="M700 300h100v100H700z"/><path fill="#d6cabf" d="M0 400h100v100H0z"/><path fill="#d7b6a6" d="M100 400h100v100H100z"/><path fill="#f6d1c8" d="M200 400h100v100H200z"/><path fill="#e6c2b7" d="M300 400h100v100H300z"/><path fill="#dbb7af" d="M400 400h100v100H400z"/><path fill="#eec5bd" d="M500 400h100v100H500z"/><path fill="#e3c4ba" d="M600 400h100v100H600z"/><path fill="#cec7bd" d="M700 400h100v100H700z"/><path fill="#faf5f4" d="M0 500h100v100H0z"/><path fill="#fbf5f4" d="M100 500h100v100H100z"/><path fill="#f9f5f5" d="M200 500h100v100H200z"/><path fill="#f8f4f4" d="M300 500h100v100H300z"/><path fill="#f8f2f1" d="M400 500h100v100H400z"/><path fill="#f9f3f3" d="M500 500h100v100H500z"/><path fill="#f8f6f5" d="M600 500h100v100H600z"/><path fill="#f5f3f2" d="M700 500h100v100H700z"/></svg>