<svg xmlns="http://www.w3.org/2000/svg" viewBox="0 0 800 500"><defs/><path fill="#bfc5d3" d="M0 0h100v100H0z"/><path fill="#bcc5d1" d="M100 0h100v100H100z"/><path fill="#c7cbd3" d="M200 0h100v100H200z"/><path fill="#cccdd8" d="M300 0h100v100H300z"/><path fill="#cbcbd7" d="M400 0h100v100H400z"/><path fill="#cccdd8" d="M500 0h100v100H500z"/><path fill="#c8cad5" d="M600 0h100v100H600z"/><path fill="#c3cbd7" d="M700 0h100v100H700z"/><path fill="#818db9" d="M0 100h100v100H0z"/><path fill="#6e7fa9" d="M100 100h100v100H100z"/><path fill="#d7d2bd" d="M200 100h100v100H200z"/><path fill="#f2efbb" d="M300 100h100v100H300z"/><path fill="#f4eeb2" d="M400 100h100v100H400z"/><path fill="#fdf6b6" d="M500 100h100v100H500z"/><path fill="#e1d6b9" d="M600 100h100v100H600z"/><path fill="#969ebf" d="M700 100h100v100H700z"/><path fill="#8492b9" d="M0 200h100v100H0z"/><path fill="#7f8dae" d="M100 200h100v100H100z"/><path fill="#a6a7b2" d="M200 200h100v100H200z"/><path fill="#94a7b6" d="M300 200h100v100H300z"/><path fill="#d2d7b1" d="M400 200h100v100H400z"/><path fill="#cfd5b0" d="M500 200h100v100H500z"/><path fill="#c5cac2" d="M600 200h100v100H600z"/><path fill="#969ebd" d="M700 200h100v100H700z"/><path fill="#778ab4" d="M0 300h100v100H0z"/><path fill="#a2aaac" d="M100 300h100v100H100z"/><path fill="#b09ba8" d="M200 300h100v100H200z"/><path fill="#7a70a1" d="M300 300h100v100H300z"/><path fill="#b49baa" d="M400 300h100v100H400z"/><path fill="#ceaead" d="M500 300h100v100H500z"/><path fill="#7377b1" d="M600 300h100v100H600z"/><path fill="#adb2b8" d="M700 300h100v100H700z"/><path fill="#a3b1c2" d="M0 400h100v100H0z"/><path fill="#c3c3c2" d="M100 400h100v100H100z"/><path fill="#dac3c5" d="M200 400h100v100H200z"/><path fill="#c3b8c4" d="M300 400h100v100H300z"/><path fill="#d6bdbf" d="M400 400h100v100H400z"/><path fill="#e3c2be" d="M500 400h100v100H500z"/><path fill="#c7b6bf" d="M600 400h100v100H600z"/><path fill="#c0c5c2" d="M700 400h100v100H700z"/></svg>