<svg xmlns="http://www.w3.org/2000/svg" viewBox="0 0 800 400"><defs/><path fill="#c4c4c7" d="M0 0h100v100H0z"/><path fill="#c9cace" d="M100 0h100v100H100z"/><path fill="#d0d0d1" d="M200 0h100v100H200z"/><path fill="#c5c4c7" d="M300 0h100v100H300z"/><path fill="#c5c2c3" d="M400 0h100v100H400z"/><path fill="#c7c6c9" d="M500 0h100v100H500z"/><path fill="#c9c6c7" d="M600 0h100v100H600z"/><path fill="#c4c5ca" d="M700 0h100v100H700z"/><path fill="#c5c2c1" d="M0 100h100v100H0z"/><path fill="#cccdd0" d="M100 100h100v100H100z"/><path fill="#d3d0cd" d="M200 100h100v100H200z"/><path fill="#c4c1c3" d="M300 100h100v100H300z"/><path fill="#c5c5c6" d="M400 100h100v100H400z"/><path fill="#c6c5c8" d="M500 100h100v100H500z"/><path fill="#c5c1c3" d="M600 100h100v100H600z"/><path fill="#bdbec6" d="M700 100h100v100H700z"/><path fill="#c7c5cb" d="M0 200h100v100H0z"/><path fill="#d2cfce" d="M100 200h100v100H100z"/><path fill="#d4d1cb" d="M200 200h100v100H200z"/><path fill="#cecbce" d="M300 200h100v100H300z"/><path fill="#d8c3b8" d="M400 200h100v100H400z"/><path fill="#d6c0b1" d="M500 200h100v100H500z"/><path fill="#ccc2bf" d="M600 200h100v100H600z"/><path fill="#c0bdc2" d="M700 200h100v100H700z"/><path fill="#c1bfc7" d="M0 300h100v100H0z"/><path fill="#d3cdca" d="M100 300h100v100H100z"/><path fill="#cfcfd0" d="M200 300h100v100H200z"/><path fill="#cac6cf" d="M300 300h100v100H300z"/><path fill="#cebdb8" d="M400 300h100v100H400z"/><path fill="#d4c7c1" d="M500 300h100v100H500z"/><path fill="#d0c1bb" d="M600 300h100v100H600z"/><path fill="#c5babf" d="M700 300h100v100H700z"/></svg>