<svg xmlns="http://www.w3.org/2000/svg" viewBox="0 0 800 600"><defs/><path fill="#e9e9e7" d="M0 0h100v100H0z"/><path fill="#dee1e1" d="M100 0h100v100H100z"/><path fill="#e5e8eb" d="M200 0h100v100H200z"/><path fill="#eeedee" d="M300 0h100v100H300z"/><path fill="#eeeceb" d="M400 0h100v100H400z"/><path fill="#e9eaec" d="M500 0h100v100H500z"/><path fill="#e0e3e8" d="M600 0h100v100H600z"/><path fill="#e3e7e9" d="M700 0h100v100H700z"/><path fill="#e9d2a5" d="M0 100h100v100H0z"/><path fill="#929582" d="M100 100h100v100H100z"/><path fill="#9aa8b6" d="M200 100h100v100H200z"/><path fill="#8fa0b1" d="M300 100h100v100H300z"/><path fill="#85a0bb" d="M400 100h100v100H400z"/><path fill="#afb9c4" d="M500 100h100v100H500z"/><path fill="#c8cacd" d="M600 100h100v100H600z"/><path fill="#ced4d8" d="M700 100h100v100H700z"/><path fill="#ddcba2" d="M0 200h100v100H0z"/><path fill="#7f9292" d="M100 200h100v100H100z"/><path fill="#97a8b2" d="M200 200h100v100H200z"/><path fill="#4f818e" d="M300 200h100v100H300z"/><path fill="#468292" d="M400 200h100v100H400z"/><path fill="#96a4a4" d="M500 200h100v100H500z"/><path fill="#cbc5ca" d="M600 200h100v100H600z"/><path fill="#bebdc0" d="M700 200h100v100H700z"/><path fill="#c5c3ad" d="M0 300h100v100H0z"/><path fill="#6e848d" d="M100 300h100v100H100z"/><path fill="#a09483" d="M200 300h100v100H200z"/><path fill="#838065" d="M300 300h100v100H300z"/><path fill="#767b64" d="M400 300h100v100H400z"/><path fill="#90856c" d="M500 300h100v100H500z"/><path fill="#9c8573" d="M600 300h100v100H600z"/><path fill="#c4bfbe" d="M700 300h100v100H700z"/><path fill="#b2bdbb" d="M0 400h100v100H0z"/><path fill="#797f7d" d="M100 400h100v100H100z"/><path fill="#8d7c71" d="M200 400h100v100H200z"/><path fill="#717161" d="M300 400h100v100H300z"/><path fill="#736c58" d="M400 400h100v100H400z"/><path fill="#857363" d="M500 400h100v100H500z"/><path fill="#7e725f" d="M600 400h100v100H600z"/><path fill="#afada9" d="M700 400h100v100H700z"/><path fill="#e3e5e7" d="M0 500h100v100H0z"/><path fill="#daddde" d="M100 500h100v100H100z"/><path fill="#d8dadc" d="M200 500h100v100H200z"/><path fill="#d2d1d1" d="M300 500h100v100H300z"/><path fill="#d8d8d8" d="M400 500h100v100H400z"/><path fill="#d5d6d8" d="M500 500h100v100H500z"/><path fill="#d7d7db" d="M600 500h100v100H600z"/><path fill="#d6d7d8" d="M700 500h100v100H700z"/></svg>