<svg xmlns="http://www.w3.org/2000/svg" viewBox="0 0 800 600"><defs/><path fill="#d2ccc4" d="M0 0h100v100H0z"/><path fill="#dedad1" d="M100 0h100v100H100z"/><path fill="#e1d8cb" d="M200 0h100v100H200z"/><path fill="#e0dac8" d="M300 0h100v100H300z"/><path fill="#e6e0ca" d="M400 0h100v100H400z"/><path fill="#e7dfcb" d="M500 0h100v100H500z"/><path fill="#eedfcb" d="M600 0h100v100H600z"/><path fill="#f0ddc7" d="M700 0h100v100H700z"/><path fill="#c1cbc1" d="M0 100h100v100H0z"/><path fill="#a8a66e" d="M100 100h100v100H100z"/><path fill="#beab70" d="M200 100h100v100H200z"/><path fill="#abb0a1" d="M300 100h100v100H300z"/><path fill="#b5a894" d="M400 100h100v100H400z"/><path fill="#b7a795" d="M500 100h100v100H500z"/><path fill="#b9b194" d="M600 100h100v100H600z"/><path fill="#b9be83" d="M700 100h100v100H700z"/><path fill="#b7c1b5" d="M0 200h100v100H0z"/><path fill="#a99f53" d="M100 200h100v100H100z"/><path fill="#a58d4b" d="M200 200h100v100H200z"/><path fill="#b46351" d="M300 200h100v100H300z"/><path fill="#a25a4e" d="M400 200h100v100H400z"/><path fill="#8f6362" d="M500 200h100v100H500z"/><path fill="#b37f4f" d="M600 200h100v100H600z"/><path fill="#a5a261" d="M700 200h100v100H700z"/><path fill="#bfbfad" d="M0 300h100v100H0z"/><path fill="#bb9d4f" d="M100 300h100v100H100z"/><path fill="#778670" d="M200 300h100v100H200z"/><path fill="#9a7a51" d="M300 300h100v100H300z"/><path fill="#997f40" d="M400 300h100v100H400z"/><path fill="#666060" d="M500 300h100v100H500z"/><path fill="#886e7c" d="M600 300h100v100H600z"/><path fill="#b28383" d="M700 300h100v100H700z"/><path fill="#bfbca8" d="M0 400h100v100H0z"/><path fill="#949778" d="M100 400h100v100H100z"/><path fill="#477e8b" d="M200 400h100v100H200z"/><path fill="#7a7749" d="M300 400h100v100H300z"/><path fill="#5b7150" d="M400 400h100v100H400z"/><path fill="#60625c" d="M500 400h100v100H500z"/><path fill="#704f88" d="M600 400h100v100H600z"/><path fill="#896185" d="M700 400h100v100H700z"/><path fill="#c6c2bd" d="M0 500h100v100H0z"/><path fill="#a3b4bc" d="M100 500h100v100H100z"/><path fill="#aab3ab" d="M200 500h100v100H200z"/><path fill="#acada0" d="M300 500h100v100H300z"/><path fill="#acada7" d="M400 500h100v100H400z"/><path fill="#b6ae99" d="M500 500h100v100H500z"/><path fill="#a59699" d="M600 500h100v100H600z"/><path fill="#ad9998" d="M700 500h100v100H700z"/></svg>