<svg xmlns="http://www.w3.org/2000/svg" viewBox="0 0 800 500"><defs/><path fill="#b5b3b9" d="M0 0h100v100H0z"/><path fill="#9f989f" d="M100 0h100v100H100z"/><path fill="#e4d9c0" d="M200 0h100v100H200z"/><path fill="#ffffd5" d="M300 0h100v100H300z"/><path fill="#dee2c7" d="M400 0h100v100H400z"/><path fill="#b0ccc2" d="M500 0h100v100H500z"/><path fill="#b1c1ba" d="M600 0h100v100H600z"/><path fill="#ada3aa" d="M700 0h100v100H700z"/><path fill="#5d5962" d="M0 100h100v100H0z"/><path fill="#46383b" d="M100 100h100v100H100z"/><path fill="#b7b974" d="M200 100h100v100H200z"/><path fill="#cbce80" d="M300 100h100v100H300z"/><path fill="#8f9569" d="M400 100h100v100H400z"/><path fill="#38564e" d="M500 100h100v100H500z"/><path fill="#414d4e" d="M600 100h100v100H600z"/><path fill="#6b5d5e" d="M700 100h100v100H700z"/><path fill="#756e75" d="M0 200h100v100H0z"/><path fill="#5c5156" d="M100 200h100v100H100z"/><path fill="#837361" d="M200 200h100v100H200z"/><path fill="#815f59" d="M300 200h100v100H300z"/><path fill="#91836b" d="M400 200h100v100H400z"/><path fill="#88776d" d="M500 200h100v100H500z"/><path fill="#5f414f" d="M600 200h100v100H600z"/><path fill="#6c5e6b" d="M700 200h100v100H700z"/><path fill="#6e6271" d="M0 300h100v100H0z"/><path fill="#52394d" d="M100 300h100v100H100z"/><path fill="#976a61" d="M200 300h100v100H200z"/><path fill="#926d64" d="M300 300h100v100H300z"/><path fill="#846b61" d="M400 300h100v100H400z"/><path fill="#ab937b" d="M500 300h100v100H500z"/><path fill="#5a3c40" d="M600 300h100v100H600z"/><path fill="#3f3241" d="M700 300h100v100H700z"/><path fill="#938792" d="M0 400h100v100H0z"/><path fill="#826d7c" d="M100 400h100v100H100z"/><path fill="#866f77" d="M200 400h100v100H200z"/><path fill="#766a7f" d="M300 400h100v100H300z"/><path fill="#5d5974" d="M400 400h100v100H400z"/><path fill="#6e5e75" d="M500 400h100v100H500z"/><path fill="#7a6a77" d="M600 400h100v100H600z"/><path fill="#676a6f" d="M700 400h100v100H700z"/></svg>