<svg xmlns="http://www.w3.org/2000/svg" viewBox="0 0 800 800"><defs/><path fill="#f6f6f6" d="M0 0h100v100H0z"/><path fill="#e2e1e1" d="M100 0h100v100H100z"/><path fill="#ceb3b4" d="M200 0h100v100H200z"/><path fill="#b69490" d="M300 0h100v100H300z"/><path fill="#c7bfbc" d="M400 0h100v100H400z"/><path fill="#d8d1cd" d="M500 0h100v100H500z"/><path fill="#d1bdb9" d="M600 0h100v100H600z"/><path fill="#fbfefe" d="M700 0h100v100H700z"/><path fill="#f3f3f4" d="M0 100h100v100H0z"/><path fill="#c9c4b8" d="M100 100h100v100H100z"/><path fill="#dfc7c4" d="M200 100h100v100H200z"/><path fill="#9e524f" d="M300 100h100v100H300z"/><path fill="#835448" d="M400 100h100v100H400z"/><path fill="#ac7c6d" d="M500 100h100v100H500z"/><path fill="#c59285" d="M600 100h100v100H600z"/><path fill="#f9ffff" d="M700 100h100v100H700z"/><path fill="#eeeff0" d="M0 200h100v100H0z"/><path fill="#ab9e8d" d="M100 200h100v100H100z"/><path fill="#dbc1b1" d="M200 200h100v100H200z"/><path fill="#dca59c" d="M300 200h100v100H300z"/><path fill="#d0b7ad" d="M400 200h100v100H400z"/><path fill="#d9bdb5" d="M500 200h100v100H500z"/><path fill="#d4afa4" d="M600 200h100v100H600z"/><path fill="#f4fafb" d="M700 200h100v100H700z"/><path fill="#e9eae7" d="M0 300h100v100H0z"/><path fill="#928177" d="M100 300h100v100H100z"/><path fill="#a37063" d="M200 300h100v100H200z"/><path fill="#e1ad94" d="M300 300h100v100H300z"/><path fill="#d4bbb0" d="M400 300h100v100H400z"/><path fill="#b4988c" d="M500 300h100v100H500z"/><path fill="#c3a9a5" d="M600 300h100v100H600z"/><path fill="#f5f9f9" d="M700 300h100v100H700z"/><path fill="#dbdad6" d="M0 400h100v100H0z"/><path fill="#a5968a" d="M100 400h100v100H100z"/><path fill="#d3a693" d="M200 400h100v100H200z"/><path fill="#d8d0ca" d="M300 400h100v100H300z"/><path fill="#deb8b5" d="M400 400h100v100H400z"/><path fill="#aa806c" d="M500 400h100v100H500z"/><path fill="#afa093" d="M600 400h100v100H600z"/><path fill="#f3f6f8" d="M700 400h100v100H700z"/><path fill="#d1cec7" d="M0 500h100v100H0z"/><path fill="#a99081" d="M100 500h100v100H100z"/><path fill="#ce8d7a" d="M200 500h100v100H200z"/><path fill="#c38e7d" d="M300 500h100v100H300z"/><path fill="#da8d77" d="M400 500h100v100H400z"/><path fill="#da978e" d="M500 500h100v100H500z"/><path fill="#c9aaa1" d="M600 500h100v100H600z"/><path fill="#eaeeee" d="M700 500h100v100H700z"/><path fill="#caccc6" d="M0 600h100v100H0z"/><path fill="#8d6754" d="M100 600h100v100H100z"/><path fill="#a85a41" d="M200 600h100v100H200z"/><path fill="#b27567" d="M300 600h100v100H300z"/><path fill="#a54932" d="M400 600h100v100H400z"/><path fill="#ab5037" d="M500 600h100v100H500z"/><path fill="#b88d85" d="M600 600h100v100H600z"/><path fill="#eaf2f4" d="M700 600h100v100H700z"/><path fill="#d0c4b5" d="M0 700h100v100H0z"/><path fill="#9b8777" d="M100 700h100v100H100z"/><path fill="#9a7e6d" d="M200 700h100v100H200z"/><path fill="#9d897c" d="M300 700h100v100H300z"/><path fill="#887065" d="M400 700h100v100H400z"/><path fill="#84695b" d="M500 700h100v100H500z"/><path fill="#a08c7f" d="M600 700h100v100H600z"/><path fill="#e4dacf" d="M700 700h100v100H700z"/></svg>