<svg xmlns="http://www.w3.org/2000/svg" viewBox="0 0 800 500"><defs/><path fill="#807450" d="M0 0h100v100H0z"/><path fill="#968b66" d="M100 0h100v100H100z"/><path fill="#6f653f" d="M200 0h100v100H200z"/><path fill="#9b916d" d="M300 0h100v100H300z"/><path fill="#b0a585" d="M400 0h100v100H400z"/><path fill="#9f9571" d="M500 0h100v100H500z"/><path fill="#9e9575" d="M600 0h100v100H600z"/><path fill="#b6ae92" d="M700 0h100v100H700z"/><path fill="#887a4d" d="M0 100h100v100H0z"/><path fill="#796d49" d="M100 100h100v100H100z"/><path fill="#3a3815" d="M200 100h100v100H200z"/><path fill="#9c936f" d="M300 100h100v100H300z"/><path fill="#b5ad92" d="M400 100h100v100H400z"/><path fill="#a29979" d="M500 100h100v100H500z"/><path fill="#b3ad99" d="M600 100h100v100H600z"/><path fill="#c8c5b5" d="M700 100h100v100H700z"/><path fill="#96855e" d="M0 200h100v100H0z"/><path fill="#8c8368" d="M100 200h100v100H100z"/><path fill="#504d28" d="M200 200h100v100H200z"/><path fill="#c1bfad" d="M300 200h100v100H300z"/><path fill="#cac9bc" d="M400 200h100v100H400z"/><path fill="#aba289" d="M500 200h100v100H500z"/><path fill="#b6b19f" d="M600 200h100v100H600z"/><path fill="#c9c6b7" d="M700 200h100v100H700z"/><path fill="#b1a78f" d="M0 300h100v100H0z"/><path fill="#b0ac9a" d="M100 300h100v100H100z"/><path fill="#4b491e" d="M200 300h100v100H200z"/><path fill="#a69481" d="M300 300h100v100H300z"/><path fill="#a58c7a" d="M400 300h100v100H400z"/><path fill="#a29f8e" d="M500 300h100v100H500z"/><path fill="#afab9c" d="M600 300h100v100H600z"/><path fill="#bbb7a5" d="M700 300h100v100H700z"/><path fill="#afa38d" d="M0 400h100v100H0z"/><path fill="#cfc9bb" d="M100 400h100v100H100z"/><path fill="#9e986a" d="M200 400h100v100H200z"/><path fill="#aa9980" d="M300 400h100v100H300z"/><path fill="#987f67" d="M400 400h100v100H400z"/><path fill="#938e7d" d="M500 400h100v100H500z"/><path fill="#9f9f93" d="M600 400h100v100H600z"/><path fill="#9d967c" d="M700 400h100v100H700z"/></svg>