<svg xmlns="http://www.w3.org/2000/svg" viewBox="0 0 800 600"><defs/><path fill="#f5f5f5" d="M0 0h100v100H0z"/><path fill="#f4f3f4" d="M100 0h100v100H100z"/><path fill="#f1f1f1" d="M200 0h100v100H200z"/><path fill="#f2f1f1" d="M300 0h100v100H300z"/><path fill="#f0f3f1" d="M400 0h100v100H400z"/><path fill="#eaeeef" d="M500 0h100v100H500z"/><path fill="#f2f1f1" d="M600 0h100v100H600z"/><path fill="#f3f3f3" d="M700 0h100v100H700z"/><path fill="#737373" d="M0 100h100v100H0z"/><path fill="#645d63" d="M100 100h100v100H100z"/><path fill="#605f5c" d="M200 100h100v100H200z"/><path fill="#424b47" d="M300 100h100v100H300z"/><path fill="#897661" d="M400 100h100v100H400z"/><path fill="#6a544d" d="M500 100h100v100H500z"/><path fill="#36393a" d="M600 100h100v100H600z"/><path fill="#555758" d="M700 100h100v100H700z"/><path fill="#716f71" d="M0 200h100v100H0z"/><path fill="#4e4751" d="M100 200h100v100H100z"/><path fill="#464239" d="M200 200h100v100H200z"/><path fill="#3b3b3c" d="M300 200h100v100H300z"/><path fill="#5a6d5c" d="M400 200h100v100H400z"/><path fill="#5c6452" d="M500 200h100v100H500z"/><path fill="#333337" d="M600 200h100v100H600z"/><path fill="#444849" d="M700 200h100v100H700z"/><path fill="#777478" d="M0 300h100v100H0z"/><path fill="#605c5d" d="M100 300h100v100H100z"/><path fill="#595247" d="M200 300h100v100H200z"/><path fill="#574f4b" d="M300 300h100v100H300z"/><path fill="#519f76" d="M400 300h100v100H400z"/><path fill="#477c60" d="M500 300h100v100H500z"/><path fill="#615350" d="M600 300h100v100H600z"/><path fill="#5a5753" d="M700 300h100v100H700z"/><path fill="#807979" d="M0 400h100v100H0z"/><path fill="#827577" d="M100 400h100v100H100z"/><path fill="#6b5754" d="M200 400h100v100H200z"/><path fill="#604d49" d="M300 400h100v100H300z"/><path fill="#857272" d="M400 400h100v100H400z"/><path fill="#8b7677" d="M500 400h100v100H500z"/><path fill="#a18a84" d="M600 400h100v100H600z"/><path fill="#8d7c6f" d="M700 400h100v100H700z"/><path fill="#cec4bf" d="M0 500h100v100H0z"/><path fill="#c7bcbe" d="M100 500h100v100H100z"/><path fill="#c3bab9" d="M200 500h100v100H200z"/><path fill="#b5acac" d="M300 500h100v100H300z"/><path fill="#c0b9ba" d="M400 500h100v100H400z"/><path fill="#c4bdbd" d="M500 500h100v100H500z"/><path fill="#c7bdbd" d="M600 500h100v100H600z"/><path fill="#cbc2bd" d="M700 500h100v100H700z"/></svg>