<svg xmlns="http://www.w3.org/2000/svg" viewBox="0 0 800 500"><defs/><path fill="#e3e3e3" d="M0 0h100v100H0z"/><path fill="#c5c5c5" d="M100 0h100v100H100z"/><path fill="#c1c1c1" d="M200 0h100v100H200z"/><path fill="#dcdcdc" d="M300 0h100v100H300z"/><path fill="#bababa" d="M400 0h100v100H400z"/><path fill="#e8e8e8" d="M500 0h100v100H500z"/><path fill="#dcdcdc" d="M600 0h100v100H600z"/><path fill="#c7c7c7" d="M700 0h100v100H700z"/><path fill="#dcdcdc" d="M0 100h100v100H0z"/><path fill="#9d9d9d" d="M100 100h100v100H100z"/><path fill="#bcbcbc" d="M200 100h100v100H200z"/><path fill="#bdbdbd" d="M300 100h100v100H300z"/><path fill="#c2c2c2" d="M400 100h100v100H400z"/><path fill="#e3e3e3" d="M500 100h100v100H500z"/><path fill="#dadada" d="M600 100h100v100H600z"/><path fill="#d1d1d1" d="M700 100h100v100H700z"/><path fill="#e1e1e1" d="M0 200h100v100H0z"/><path fill="#aeaeae" d="M100 200h100v100H100z"/><path fill="#c1c1c1" d="M200 200h100v100H200z"/><path fill="#c4c4c4" d="M300 200h100v100H300z"/><path fill="#d9d9d9" d="M400 200h100v100H400z"/><path fill="#cbcbcb" d="M500 200h100v100H500z"/><path fill="#d0d0d0" d="M600 200h100v100H600z"/><path fill="#cfcfcf" d="M700 200h100v100H700z"/><path fill="#d2d2d2" d="M0 300h100v100H0z"/><path fill="#cdcdcd" d="M100 300h100v100H100z"/><path fill="#b3b3b3" d="M200 300h100v100H200z"/><path fill="#ababab" d="M300 300h100v100H300z"/><path fill="#a6a6a6" d="M400 300h100v100H400z"/><path fill="#818181" d="M500 300h100v100H500z"/><path fill="#8e8e8e" d="M600 300h100v100H600z"/><path fill="#9a9a9a" d="M700 300h100v100H700z"/><path fill="#bdbdbd" d="M0 400h100v100H0z"/><path fill="#dcdcdc" d="M100 400h100v100H100z"/><path fill="#c1c1c1" d="M200 400h100v100H200z"/><path fill="#cfcfcf" d="M300 400h100v100H300z"/><path fill="#b0b0b0" d="M400 400h100v100H400z"/><path fill="#c6c6c6" d="M500 400h100v100H500z"/><path fill="#a4a4a4" d="M600 400h100v100H600z"/><path fill="#acacac" d="M700 400h100v100H700z"/></svg>