<svg xmlns="http://www.w3.org/2000/svg" viewBox="0 0 800 400"><defs/><path fill="#d3a8c5" d="M0 0h100v100H0z"/><path fill="#eba5c1" d="M100 0h100v100H100z"/><path fill="#dda7c3" d="M200 0h100v100H200z"/><path fill="#dfaec8" d="M300 0h100v100H300z"/><path fill="#e8b0c8" d="M400 0h100v100H400z"/><path fill="#d8a5c2" d="M500 0h100v100H500z"/><path fill="#d69ebe" d="M600 0h100v100H600z"/><path fill="#d5a7c4" d="M700 0h100v100H700z"/><path fill="#d8a6c4" d="M0 100h100v100H0z"/><path fill="#eaa4c0" d="M100 100h100v100H100z"/><path fill="#c99bbf" d="M200 100h100v100H200z"/><path fill="#cea1c1" d="M300 100h100v100H300z"/><path fill="#c296bc" d="M400 100h100v100H400z"/><path fill="#d6a1c0" d="M500 100h100v100H500z"/><path fill="#d09dbe" d="M600 100h100v100H600z"/><path fill="#c59dc0" d="M700 100h100v100H700z"/><path fill="#dea5c3" d="M0 200h100v100H0z"/><path fill="#e5a4c0" d="M100 200h100v100H100z"/><path fill="#dca4c1" d="M200 200h100v100H200z"/><path fill="#c595bd" d="M300 200h100v100H300z"/><path fill="#c596bd" d="M400 200h100v100H400z"/><path fill="#e6a7c2" d="M500 200h100v100H500z"/><path fill="#daa1c0" d="M600 200h100v100H600z"/><path fill="#b992bb" d="M700 200h100v100H700z"/><path fill="#e9a8c3" d="M0 300h100v100H0z"/><path fill="#e0a5c1" d="M100 300h100v100H100z"/><path fill="#c194bd" d="M200 300h100v100H200z"/><path fill="#df9dbf" d="M300 300h100v100H300z"/><path fill="#efa8c2" d="M400 300h100v100H400z"/><path fill="#f0a7c1" d="M500 300h100v100H500z"/><path fill="#eea9c2" d="M600 300h100v100H600z"/><path fill="#cd9cbe" d="M700 300h100v100H700z"/></svg>