<svg xmlns="http://www.w3.org/2000/svg" viewBox="0 0 800 1700"><defs/><path fill="#000101" d="M0 0h100v100H0z"/><path fill="#000001" d="M100 0h100v100H100zm100 0h100v100H200zm100 0h100v100H300zm100 0h100v100H400zm100 0h100v100H500z"/><path fill="#010101" d="M600 0h100v100H600zm100 0h100v100H700z"/><path fill="#0f0502" d="M0 100h100v100H0z"/><path fill="#140603" d="M100 100h100v100H100z"/><path fill="#140602" d="M200 100h100v100H200z"/><path fill="#0d0402" d="M300 100h100v100H300z"/><path fill="#120602" d="M400 100h100v100H400z"/><path fill="#0e0402" d="M500 100h100v100H500z"/><path fill="#000101" d="M600 100h100v100H600z"/><path fill="#010101" d="M700 100h100v100H700z"/><path fill="#380e06" d="M0 200h100v100H0z"/><path fill="#571708" d="M100 200h100v100H100z"/><path fill="#441207" d="M200 200h100v100H200z"/><path fill="#471307" d="M300 200h100v100H300z"/><path fill="#531508" d="M400 200h100v100H400z"/><path fill="#551608" d="M500 200h100v100H500z"/><path fill="#0b0302" d="M600 200h100v100H600z"/><path fill="#000101" d="M700 200h100v100H700z"/><path fill="#2f0c05" d="M0 300h100v100H0z"/><path fill="#571607" d="M100 300h100v100H100z"/><path fill="#3a1007" d="M200 300h100v100H200z"/><path fill="#3f1006" d="M300 300h100v100H300z"/><path fill="#4b1307" d="M400 300h100v100H400z"/><path fill="#370f06" d="M500 300h100v100H500z"/><path fill="#060202" d="M600 300h100v100H600z"/><path fill="#000001" d="M700 300h100v100H700z"/><path fill="#310d06" d="M0 400h100v100H0z"/><path fill="#571608" d="M100 400h100v100H100z"/><path fill="#501408" d="M200 400h100v100H200z"/><path fill="#300d05" d="M300 400h100v100H300z"/><path fill="#541607" d="M400 400h100v100H400z"/><path fill="#320d06" d="M500 400h100v100H500z"/><path fill="#210903" d="M600 400h100v100H600z"/><path fill="#0c0402" d="M700 400h100v100H700z"/><path fill="#360e05" d="M0 500h100v100H0z"/><path fill="#571608" d="M100 500h100v100H100z"/><path fill="#4d1408" d="M200 500h100v100H200z"/><path fill="#4c1307" d="M300 500h100v100H300z"/><path fill="#501407" d="M400 500h100v100H400z"/><path fill="#150604" d="M500 500h100v100H500z"/><path fill="#190703" d="M600 500h100v100H600z"/><path fill="#090302" d="M700 500h100v100H700z"/><path fill="#310d05" d="M0 600h100v100H0z"/><path fill="#501507" d="M100 600h100v100H100z"/><path fill="#551607" d="M200 600h100v100H200z"/><path fill="#521507" d="M300 600h100v100H300z"/><path fill="#481307" d="M400 600h100v100H400z"/><path fill="#461207" d="M500 600h100v100H500z"/><path fill="#3c1006" d="M600 600h100v100H600z"/><path fill="#160603" d="M700 600h100v100H700z"/><path fill="#300d05" d="M0 700h100v100H0z"/><path fill="#561708" d="M100 700h100v100H100z"/><path fill="#4f1508" d="M200 700h100v100H200z"/><path fill="#2c0d05" d="M300 700h100v100H300z"/><path fill="#300d06" d="M400 700h100v100H400z"/><path fill="#340e05" d="M500 700h100v100H500z"/><path fill="#050302" d="M600 700h100v100H600z"/><path fill="#010202" d="M700 700h100v100H700z"/><path fill="#2e0c05" d="M0 800h100v100H0z"/><path fill="#5a1708" d="M100 800h100v100H100z"/><path fill="#511407" d="M200 800h100v100H200z"/><path fill="#3d1006" d="M300 800h100v100H300z"/><path fill="#230a05" d="M400 800h100v100H400z"/><path fill="#160704" d="M500 800h100v100H500z"/><path fill="#180703" d="M600 800h100v100H600z"/><path fill="#000102" d="M700 800h100v100H700z"/><path fill="#2f0d05" d="M0 900h100v100H0z"/><path fill="#5b1708" d="M100 900h100v100H100z"/><path fill="#4b1307" d="M200 900h100v100H200z"/><path fill="#521507" d="M300 900h100v100H300z"/><path fill="#5e1809" d="M400 900h100v100H400z"/><path fill="#541608" d="M500 900h100v100H500z"/><path fill="#2b0c05" d="M600 900h100v100H600z"/><path fill="#000102" d="M700 900h100v100H700z"/><path fill="#3d1106" d="M0 1000h100v100H0z"/><path fill="#5c180a" d="M100 1000h100v100H100z"/><path fill="#511508" d="M200 1000h100v100H200z"/><path fill="#4c1407" d="M300 1000h100v100H300z"/><path fill="#531508" d="M400 1000h100v100H400z"/><path fill="#551608" d="M500 1000h100v100H500z"/><path fill="#491407" d="M600 1000h100v100H600z"/><path fill="#220a05" d="M700 1000h100v100H700z"/><path fill="#260801" d="M0 1100h100v100H0z"/><path fill="#390600" d="M100 1100h100v100H100z"/><path fill="#3a0b02" d="M200 1100h100v100H200z"/><path fill="#330c04" d="M300 1100h100v100H300z"/><path fill="#471308" d="M400 1100h100v100H400z"/><path fill="#421106" d="M500 1100h100v100H500z"/><path fill="#3c0e04" d="M600 1100h100v100H600z"/><path fill="#0c0605" d="M700 1100h100v100H700z"/><path fill="#5f605a" d="M0 1200h100v100H0z"/><path fill="#646763" d="M100 1200h100v100H100z"/><path fill="#1a1c1b" d="M200 1200h100v100H200z"/><path fill="#111313" d="M300 1200h100v100H300z"/><path fill="#000304" d="M400 1200h100v100H400z"/><path fill="#0e0f0f" d="M500 1200h100v100H500z"/><path fill="#1e201e" d="M600 1200h100v100H600z"/><path d="M700 1200h100v100H700z"/><path fill="#4c4c48" d="M0 1300h100v100H0z"/><path fill="#e8e7dc" d="M100 1300h100v100H100z"/><path fill="#65645e" d="M200 1300h100v100H200z"/><path fill="#a2a199" d="M300 1300h100v100H300z"/><path fill="#686762" d="M400 1300h100v100H400z"/><path fill="#96958c" d="M500 1300h100v100H500z"/><path fill="#86857e" d="M600 1300h100v100H600z"/><path d="M700 1300h100v100H700z"/><path fill="#020201" d="M0 1400h100v100H0z"/><path fill="#0d0c0a" d="M100 1400h100v100H100z"/><path fill="#070706" d="M200 1400h100v100H200z"/><path fill="#191917" d="M300 1400h100v100H300z"/><path fill="#151412" d="M400 1400h100v100H400z"/><path fill="#1d1c1b" d="M500 1400h100v100H500z"/><path fill="#151413" d="M600 1400h100v100H600z"/><path fill="#010101" d="M700 1400h100v100H700zM0 1500h100v100H0z"/><path d="M100 1500h100v100H100z"/><path fill="#010101" d="M200 1500h100v100H200z"/><path d="M300 1500h100v100H300zm100 0h100v100H400zm100 0h100v100H500zm100 0h100v100H600z"/><path fill="#020202" d="M700 1500h100v100H700zM0 1600h100v100H0z"/><path fill="#060605" d="M100 1600h100v100H100z"/><path fill="#030302" d="M200 1600h100v100H200z"/><path fill="#050505" d="M300 1600h100v100H300z"/><path fill="#040404" d="M400 1600h100v100H400z"/><path fill="#050505" d="M500 1600h100v100H500zm100 0h100v100H600z"/><path fill="#020202" d="M700 1600h100v100H700z"/></svg>