<svg xmlns="http://www.w3.org/2000/svg" viewBox="0 0 800 500"><defs/><path fill="#f2f2f2" d="M0 0h100v100H0z"/><path fill="#d3d3d3" d="M100 0h100v100H100z"/><path fill="#ebebeb" d="M200 0h100v100H200z"/><path fill="#f8f8f8" d="M300 0h100v100H300zm100 0h100v100H400zm100 0h100v100H500z"/><path fill="#f5f5f5" d="M600 0h100v100H600zm100 0h100v100H700z"/><path fill="#f0f0f0" d="M0 100h100v100H0z"/><path fill="#cfcfcf" d="M100 100h100v100H100z"/><path fill="#ededed" d="M200 100h100v100H200z"/><path fill="#f4f4f4" d="M300 100h100v100H300z"/><path fill="#fff" d="M400 100h100v100H400zm100 0h100v100H500z"/><path fill="#f9f9f9" d="M600 100h100v100H600z"/><path fill="#fafafa" d="M700 100h100v100H700z"/><path fill="#eaeaea" d="M0 200h100v100H0z"/><path fill="#d9d9d9" d="M100 200h100v100H100z"/><path fill="#e8e8e8" d="M200 200h100v100H200z"/><path fill="#dcdcdc" d="M300 200h100v100H300z"/><path fill="#efefef" d="M400 200h100v100H400z"/><path fill="#f3f3f3" d="M500 200h100v100H500z"/><path fill="#e5e5e5" d="M600 200h100v100H600z"/><path fill="#f7f7f7" d="M700 200h100v100H700z"/><path fill="#ccc" d="M0 300h100v100H0z"/><path fill="#cdcdcd" d="M100 300h100v100H100z"/><path fill="#e1e1e1" d="M200 300h100v100H200z"/><path fill="#e3e3e3" d="M300 300h100v100H300z"/><path fill="#e4e4e4" d="M400 300h100v100H400z"/><path fill="#dbdbdb" d="M500 300h100v100H500z"/><path fill="#d5d5d5" d="M600 300h100v100H600z"/><path fill="#e3e3e3" d="M700 300h100v100H700z"/><path fill="#ddd" d="M0 400h100v100H0z"/><path fill="#e7e7e7" d="M100 400h100v100H100z"/><path fill="#f5f5f5" d="M200 400h100v100H200z"/><path fill="#fafafa" d="M300 400h100v100H300z"/><path fill="#f5f5f5" d="M400 400h100v100H400z"/><path fill="#e3e3e3" d="M500 400h100v100H500z"/><path fill="#dbdbdb" d="M600 400h100v100H600z"/><path fill="#e7e7e7" d="M700 400h100v100H700z"/></svg>