<svg xmlns="http://www.w3.org/2000/svg" viewBox="0 0 800 400"><defs/><path fill="#ae9365" d="M0 0h100v100H0z"/><path fill="#808784" d="M100 0h100v100H100z"/><path fill="#99a095" d="M200 0h100v100H200z"/><path fill="#c3b4a3" d="M300 0h100v100H300z"/><path fill="#c0a693" d="M400 0h100v100H400z"/><path fill="#c4ac9c" d="M500 0h100v100H500z"/><path fill="#b3c1b5" d="M600 0h100v100H600z"/><path fill="#9eb6b2" d="M700 0h100v100H700z"/><path fill="#ada374" d="M0 100h100v100H0z"/><path fill="#999382" d="M100 100h100v100H100z"/><path fill="#b79b7e" d="M200 100h100v100H200z"/><path fill="#b1a189" d="M300 100h100v100H300z"/><path fill="#bcae90" d="M400 100h100v100H400z"/><path fill="#c5af9d" d="M500 100h100v100H500z"/><path fill="#bfbdaf" d="M600 100h100v100H600z"/><path fill="#aeb7b2" d="M700 100h100v100H700z"/><path fill="#a59670" d="M0 200h100v100H0z"/><path fill="#9a8e83" d="M100 200h100v100H100z"/><path fill="#b69a73" d="M200 200h100v100H200z"/><path fill="#949272" d="M300 200h100v100H300z"/><path fill="#999481" d="M400 200h100v100H400z"/><path fill="#bda393" d="M500 200h100v100H500z"/><path fill="#bfa39b" d="M600 200h100v100H600z"/><path fill="#b79b8e" d="M700 200h100v100H700z"/><path fill="#99897c" d="M0 300h100v100H0z"/><path fill="#a57b69" d="M100 300h100v100H100z"/><path fill="#c3954a" d="M200 300h100v100H200z"/><path fill="#8b926f" d="M300 300h100v100H300z"/><path fill="#8c978b" d="M400 300h100v100H400z"/><path fill="#b4aea4" d="M500 300h100v100H500z"/><path fill="#b19997" d="M600 300h100v100H600z"/><path fill="#bc9d8f" d="M700 300h100v100H700z"/></svg>