<svg xmlns="http://www.w3.org/2000/svg" viewBox="0 0 800 500"><defs/><path fill="#6a6662" d="M0 0h100v100H0z"/><path fill="#554022" d="M100 0h100v100H100z"/><path fill="#787a79" d="M200 0h100v100H200z"/><path fill="#31313a" d="M300 0h100v100H300z"/><path fill="#6d6d68" d="M400 0h100v100H400z"/><path fill="#7b796f" d="M500 0h100v100H500z"/><path fill="#8d8c81" d="M600 0h100v100H600z"/><path fill="#572924" d="M700 0h100v100H700z"/><path fill="#5a5148" d="M0 100h100v100H0z"/><path fill="#715e41" d="M100 100h100v100H100z"/><path fill="#9d928e" d="M200 100h100v100H200z"/><path fill="#5f5e62" d="M300 100h100v100H300z"/><path fill="#75746f" d="M400 100h100v100H400z"/><path fill="#908e78" d="M500 100h100v100H500z"/><path fill="#929179" d="M600 100h100v100H600z"/><path fill="#673b32" d="M700 100h100v100H700z"/><path fill="#584838" d="M0 200h100v100H0z"/><path fill="#5b5332" d="M100 200h100v100H100z"/><path fill="#757355" d="M200 200h100v100H200z"/><path fill="#635c41" d="M300 200h100v100H300z"/><path fill="#4a4637" d="M400 200h100v100H400z"/><path fill="#4e3f33" d="M500 200h100v100H500z"/><path fill="#412c1b" d="M600 200h100v100H600z"/><path fill="#75401d" d="M700 200h100v100H700z"/><path fill="#4c3924" d="M0 300h100v100H0z"/><path fill="#564d24" d="M100 300h100v100H100z"/><path fill="#5c5b2f" d="M200 300h100v100H200z"/><path fill="#69602b" d="M300 300h100v100H300z"/><path fill="#6d602a" d="M400 300h100v100H400z"/><path fill="#47311a" d="M500 300h100v100H500z"/><path fill="#453316" d="M600 300h100v100H600z"/><path fill="#783c17" d="M700 300h100v100H700z"/><path fill="#4d3b1b" d="M0 400h100v100H0z"/><path fill="#6e622d" d="M100 400h100v100H100z"/><path fill="#5f5a33" d="M200 400h100v100H200z"/><path fill="#414d3e" d="M300 400h100v100H300z"/><path fill="#4c5842" d="M400 400h100v100H400z"/><path fill="#575d38" d="M500 400h100v100H500z"/><path fill="#52674f" d="M600 400h100v100H600z"/><path fill="#3a4136" d="M700 400h100v100H700z"/></svg>