<svg xmlns="http://www.w3.org/2000/svg" viewBox="0 0 800 500"><defs/><path fill="#e0e0e0" d="M0 0h100v100H0z"/><path fill="#ddd" d="M100 0h100v100H100z"/><path fill="#f1f1f1" d="M200 0h100v100H200z"/><path fill="#dfdfdf" d="M300 0h100v100H300z"/><path fill="#bababa" d="M400 0h100v100H400z"/><path fill="#c3c3c3" d="M500 0h100v100H500z"/><path fill="#f4f4f4" d="M600 0h100v100H600zm100 0h100v100H700z"/><path fill="#a9a9a9" d="M0 100h100v100H0z"/><path fill="#989898" d="M100 100h100v100H100z"/><path fill="#bebebe" d="M200 100h100v100H200z"/><path fill="#afafaf" d="M300 100h100v100H300z"/><path fill="#a9a9a9" d="M400 100h100v100H400z"/><path fill="#989898" d="M500 100h100v100H500z"/><path fill="#b3b3b3" d="M600 100h100v100H600z"/><path fill="#c8c8c8" d="M700 100h100v100H700z"/><path fill="#b4b4b4" d="M0 200h100v100H0z"/><path fill="#8d8d8d" d="M100 200h100v100H100z"/><path fill="#9b9b9b" d="M200 200h100v100H200z"/><path fill="#b9b9b9" d="M300 200h100v100H300z"/><path fill="#888" d="M400 200h100v100H400z"/><path fill="#a2a2a2" d="M500 200h100v100H500z"/><path fill="#929292" d="M600 200h100v100H600z"/><path fill="#b4b4b4" d="M700 200h100v100H700z"/><path fill="#a8a8a8" d="M0 300h100v100H0z"/><path fill="#afafaf" d="M100 300h100v100H100z"/><path fill="#bcbcbc" d="M200 300h100v100H200z"/><path fill="#a5a5a5" d="M300 300h100v100H300z"/><path fill="#7e7e7e" d="M400 300h100v100H400z"/><path fill="#8d8d8d" d="M500 300h100v100H500z"/><path fill="#b7b7b7" d="M600 300h100v100H600z"/><path fill="#ccc" d="M700 300h100v100H700z"/><path fill="#d3d3d3" d="M0 400h100v100H0z"/><path fill="#e5e5e5" d="M100 400h100v100H100zm100 0h100v100H200z"/><path fill="#c6c6c6" d="M300 400h100v100H300z"/><path fill="#bfbfbf" d="M400 400h100v100H400z"/><path fill="#d6d6d6" d="M500 400h100v100H500z"/><path fill="#eee" d="M600 400h100v100H600z"/><path fill="#ececec" d="M700 400h100v100H700z"/></svg>