<svg xmlns="http://www.w3.org/2000/svg" viewBox="0 0 800 400"><defs/><path fill="#dfccb4" d="M0 0h100v100H0z"/><path fill="#b18577" d="M100 0h100v100H100z"/><path fill="#bcabb0" d="M200 0h100v100H200z"/><path fill="#bdc5c7" d="M300 0h100v100H300z"/><path fill="#c7acaf" d="M400 0h100v100H400z"/><path fill="#449ece" d="M500 0h100v100H500z"/><path fill="#a08391" d="M600 0h100v100H600z"/><path fill="#d09089" d="M700 0h100v100H700z"/><path fill="#d1bfb1" d="M0 100h100v100H0z"/><path fill="#a45f52" d="M100 100h100v100H100z"/><path fill="#c6b9d1" d="M200 100h100v100H200z"/><path fill="#c1d4e0" d="M300 100h100v100H300z"/><path fill="#b390a5" d="M400 100h100v100H400z"/><path fill="#0072d4" d="M500 100h100v100H500z"/><path fill="#72416a" d="M600 100h100v100H600z"/><path fill="#af6a68" d="M700 100h100v100H700z"/><path fill="#bfada4" d="M0 200h100v100H0z"/><path fill="#a66955" d="M100 200h100v100H100z"/><path fill="#efc3aa" d="M200 200h100v100H200z"/><path fill="#edb99e" d="M300 200h100v100H300z"/><path fill="#c99356" d="M400 200h100v100H400z"/><path fill="#749579" d="M500 200h100v100H500z"/><path fill="#b7a85b" d="M600 200h100v100H600z"/><path fill="#a1916a" d="M700 200h100v100H700z"/><path fill="#c2b597" d="M0 300h100v100H0z"/><path fill="#d2bd40" d="M100 300h100v100H100z"/><path fill="#c9b14a" d="M200 300h100v100H200z"/><path fill="#ba9d3e" d="M300 300h100v100H300z"/><path fill="#8b781e" d="M400 300h100v100H400z"/><path fill="#704b13" d="M500 300h100v100H500z"/><path fill="#6e5408" d="M600 300h100v100H600z"/><path fill="#9f873b" d="M700 300h100v100H700z"/></svg>