<svg xmlns="http://www.w3.org/2000/svg" viewBox="0 0 800 400"><defs/><path fill="#cec6b8" d="M0 0h100v100H0z"/><path fill="#87755c" d="M100 0h100v100H100z"/><path fill="#a6a19a" d="M200 0h100v100H200z"/><path fill="#6d8d91" d="M300 0h100v100H300z"/><path fill="#8d98a0" d="M400 0h100v100H400z"/><path fill="#bcaeac" d="M500 0h100v100H500z"/><path fill="#c8c5bd" d="M600 0h100v100H600z"/><path fill="#d9dbd6" d="M700 0h100v100H700z"/><path fill="#c8bba8" d="M0 100h100v100H0z"/><path fill="#989076" d="M100 100h100v100H100z"/><path fill="#b7a68f" d="M200 100h100v100H200z"/><path fill="#bd8e4d" d="M300 100h100v100H300z"/><path fill="#c4a575" d="M400 100h100v100H400z"/><path fill="#b4a9a0" d="M500 100h100v100H500z"/><path fill="#ae9a8c" d="M600 100h100v100H600z"/><path fill="#dcd7ce" d="M700 100h100v100H700z"/><path fill="#aa9184" d="M0 200h100v100H0z"/><path fill="#948072" d="M100 200h100v100H100z"/><path fill="#bcab8d" d="M200 200h100v100H200z"/><path fill="#a68d5e" d="M300 200h100v100H300z"/><path fill="#bba980" d="M400 200h100v100H400z"/><path fill="#b3b4ae" d="M500 200h100v100H500z"/><path fill="#b6ada6" d="M600 200h100v100H600z"/><path fill="#e1ddd5" d="M700 200h100v100H700z"/><path fill="#987d75" d="M0 300h100v100H0z"/><path fill="#917a6e" d="M100 300h100v100H100z"/><path fill="#b6a398" d="M200 300h100v100H200z"/><path fill="#8e9d9b" d="M300 300h100v100H300z"/><path fill="#a0aaab" d="M400 300h100v100H400z"/><path fill="#b5b3b4" d="M500 300h100v100H500z"/><path fill="#c2bebb" d="M600 300h100v100H600z"/><path fill="#e2dfd8" d="M700 300h100v100H700z"/></svg>