<svg xmlns="http://www.w3.org/2000/svg" viewBox="0 0 800 600"><defs/><path fill="#fdcf9d" d="M0 0h100v100H0z"/><path fill="#f4c38f" d="M100 0h100v100H100z"/><path fill="#fbcd98" d="M200 0h100v100H200z"/><path fill="#fbca94" d="M300 0h100v100H300z"/><path fill="#fecb94" d="M400 0h100v100H400z"/><path fill="#ffcd96" d="M500 0h100v100H500z"/><path fill="#fed19d" d="M600 0h100v100H600z"/><path fill="#facc99" d="M700 0h100v100H700z"/><path fill="#f4c99c" d="M0 100h100v100H0z"/><path fill="#c88858" d="M100 100h100v100H100z"/><path fill="#dcbb94" d="M200 100h100v100H200z"/><path fill="#d3d1c0" d="M300 100h100v100H300z"/><path fill="#c1ccbf" d="M400 100h100v100H400z"/><path fill="#cecab1" d="M500 100h100v100H500z"/><path fill="#d1b081" d="M600 100h100v100H600z"/><path fill="#e9c59a" d="M700 100h100v100H700z"/><path fill="#edbc8e" d="M0 200h100v100H0z"/><path fill="#c98c5d" d="M100 200h100v100H100z"/><path fill="#c5b090" d="M200 200h100v100H200z"/><path fill="#cbddda" d="M300 200h100v100H300z"/><path fill="#acd3da" d="M400 200h100v100H400z"/><path fill="#b8c5bf" d="M500 200h100v100H500z"/><path fill="#b89c79" d="M600 200h100v100H600z"/><path fill="#ebcea5" d="M700 200h100v100H700z"/><path fill="#e5aa7a" d="M0 300h100v100H0z"/><path fill="#ab7f56" d="M100 300h100v100H100z"/><path fill="#c2ab84" d="M200 300h100v100H200z"/><path fill="#c1a186" d="M300 300h100v100H300z"/><path fill="#c7b08b" d="M400 300h100v100H400z"/><path fill="#c7a878" d="M500 300h100v100H500z"/><path fill="#b9926c" d="M600 300h100v100H600z"/><path fill="#dfbf9b" d="M700 300h100v100H700z"/><path fill="#d49c6e" d="M0 400h100v100H0z"/><path fill="#9d724e" d="M100 400h100v100H100z"/><path fill="#b0a490" d="M200 400h100v100H200z"/><path fill="#bab2b0" d="M300 400h100v100H300z"/><path fill="#acb29e" d="M400 400h100v100H400z"/><path fill="#bcb694" d="M500 400h100v100H500z"/><path fill="#b69370" d="M600 400h100v100H600z"/><path fill="#947c63" d="M700 400h100v100H700z"/><path fill="#ecbe8d" d="M0 500h100v100H0z"/><path fill="#e5b98a" d="M100 500h100v100H100z"/><path fill="#e5be93" d="M200 500h100v100H200z"/><path fill="#e7c399" d="M300 500h100v100H300z"/><path fill="#e6c198" d="M400 500h100v100H400z"/><path fill="#e5c39d" d="M500 500h100v100H500z"/><path fill="#e2bd93" d="M600 500h100v100H600z"/><path fill="#d9b084" d="M700 500h100v100H700z"/></svg>