<svg xmlns="http://www.w3.org/2000/svg" viewBox="0 0 800 600"><defs/><path fill="#9b9082" d="M0 0h100v100H0z"/><path fill="#86735c" d="M100 0h100v100H100z"/><path fill="#9c8b77" d="M200 0h100v100H200z"/><path fill="#8e7a64" d="M300 0h100v100H300z"/><path fill="#795934" d="M400 0h100v100H400z"/><path fill="#755023" d="M500 0h100v100H500z"/><path fill="#75562f" d="M600 0h100v100H600z"/><path fill="#948574" d="M700 0h100v100H700z"/><path fill="#a69786" d="M0 100h100v100H0z"/><path fill="#4d402f" d="M100 100h100v100H100z"/><path fill="#252019" d="M200 100h100v100H200z"/><path fill="#392b1e" d="M300 100h100v100H300z"/><path fill="#4b3111" d="M400 100h100v100H400z"/><path fill="#533a15" d="M500 100h100v100H500z"/><path fill="#533912" d="M600 100h100v100H600z"/><path fill="#7f6543" d="M700 100h100v100H700z"/><path fill="#b4a999" d="M0 200h100v100H0z"/><path fill="#544a3a" d="M100 200h100v100H100z"/><path fill="#090b0a" d="M200 200h100v100H200z"/><path fill="#211f1a" d="M300 200h100v100H300z"/><path fill="#37342d" d="M400 200h100v100H400z"/><path fill="#26261f" d="M500 200h100v100H500z"/><path fill="#55401e" d="M600 200h100v100H600z"/><path fill="#806a4c" d="M700 200h100v100H700z"/><path fill="#bbb4ad" d="M0 300h100v100H0z"/><path fill="#4d4638" d="M100 300h100v100H100z"/><path fill="#1c1f1e" d="M200 300h100v100H200z"/><path fill="#302927" d="M300 300h100v100H300z"/><path fill="#392d23" d="M400 300h100v100H400z"/><path fill="#502f21" d="M500 300h100v100H500z"/><path fill="#693f29" d="M600 300h100v100H600z"/><path fill="#695944" d="M700 300h100v100H700z"/><path fill="#b5b1ae" d="M0 400h100v100H0z"/><path fill="#484235" d="M100 400h100v100H100z"/><path fill="#38221e" d="M200 400h100v100H200z"/><path fill="#44231d" d="M300 400h100v100H300z"/><path fill="#4e2c22" d="M400 400h100v100H400z"/><path fill="#78353a" d="M500 400h100v100H500z"/><path fill="#682834" d="M600 400h100v100H600z"/><path fill="#4f463f" d="M700 400h100v100H700z"/><path fill="#afafb0" d="M0 500h100v100H0z"/><path fill="#867c6b" d="M100 500h100v100H100z"/><path fill="#8f8277" d="M200 500h100v100H200z"/><path fill="#7a7472" d="M300 500h100v100H300z"/><path fill="#79635e" d="M400 500h100v100H400z"/><path fill="#684a47" d="M500 500h100v100H500z"/><path fill="#543f3b" d="M600 500h100v100H600z"/><path fill="#736f66" d="M700 500h100v100H700z"/></svg>