<svg xmlns="http://www.w3.org/2000/svg" viewBox="0 0 800 500"><defs/><path fill="#b2b0b6" d="M0 0h100v100H0z"/><path fill="#9e979d" d="M100 0h100v100H100z"/><path fill="#e4dabe" d="M200 0h100v100H200z"/><path fill="#ffffd3" d="M300 0h100v100H300z"/><path fill="#dee1c5" d="M400 0h100v100H400z"/><path fill="#aecbc1" d="M500 0h100v100H500z"/><path fill="#afbfb8" d="M600 0h100v100H600z"/><path fill="#aca2a8" d="M700 0h100v100H700z"/><path fill="#5b565f" d="M0 100h100v100H0z"/><path fill="#47393c" d="M100 100h100v100H100z"/><path fill="#b6ba74" d="M200 100h100v100H200z"/><path fill="#cacc7f" d="M300 100h100v100H300z"/><path fill="#8e9368" d="M400 100h100v100H400z"/><path fill="#36554e" d="M500 100h100v100H500z"/><path fill="#414d4e" d="M600 100h100v100H600z"/><path fill="#6c5e60" d="M700 100h100v100H700z"/><path fill="#736c74" d="M0 200h100v100H0z"/><path fill="#5d5256" d="M100 200h100v100H100z"/><path fill="#847261" d="M200 200h100v100H200z"/><path fill="#815f5a" d="M300 200h100v100H300z"/><path fill="#92846c" d="M400 200h100v100H400z"/><path fill="#8a796e" d="M500 200h100v100H500z"/><path fill="#5f424f" d="M600 200h100v100H600z"/><path fill="#6c5f6b" d="M700 200h100v100H700z"/><path fill="#6d606f" d="M0 300h100v100H0z"/><path fill="#52394d" d="M100 300h100v100H100z"/><path fill="#966a60" d="M200 300h100v100H200z"/><path fill="#8f6b64" d="M300 300h100v100H300z"/><path fill="#836a60" d="M400 300h100v100H400z"/><path fill="#a9927a" d="M500 300h100v100H500z"/><path fill="#593b40" d="M600 300h100v100H600z"/><path fill="#403341" d="M700 300h100v100H700z"/><path fill="#948894" d="M0 400h100v100H0z"/><path fill="#86727f" d="M100 400h100v100H100z"/><path fill="#88727b" d="M200 400h100v100H200z"/><path fill="#786d82" d="M300 400h100v100H300z"/><path fill="#605c78" d="M400 400h100v100H400z"/><path fill="#716278" d="M500 400h100v100H500z"/><path fill="#7c6e7a" d="M600 400h100v100H600z"/><path fill="#6b6e74" d="M700 400h100v100H700z"/></svg>