<svg xmlns="http://www.w3.org/2000/svg" viewBox="0 0 800 400"><defs/><path fill="#7a5085" d="M0 0h100v100H0z"/><path fill="#7c658e" d="M100 0h100v100H100z"/><path fill="#8183a3" d="M200 0h100v100H200z"/><path fill="#7d709c" d="M300 0h100v100H300z"/><path fill="#756191" d="M400 0h100v100H400z"/><path fill="#817e9d" d="M500 0h100v100H500z"/><path fill="#6c6997" d="M600 0h100v100H600z"/><path fill="#7c528a" d="M700 0h100v100H700z"/><path fill="#875985" d="M0 100h100v100H0z"/><path fill="#655173" d="M100 100h100v100H100z"/><path fill="#585989" d="M200 100h100v100H200z"/><path fill="#715d92" d="M300 100h100v100H300z"/><path fill="#7d6397" d="M400 100h100v100H400z"/><path fill="#7c7294" d="M500 100h100v100H500z"/><path fill="#5b5179" d="M600 100h100v100H600z"/><path fill="#754982" d="M700 100h100v100H700z"/><path fill="#7e5082" d="M0 200h100v100H0z"/><path fill="#64486c" d="M100 200h100v100H100z"/><path fill="#584474" d="M200 200h100v100H200z"/><path fill="#675485" d="M300 200h100v100H300z"/><path fill="#6b5983" d="M400 200h100v100H400z"/><path fill="#705685" d="M500 200h100v100H500z"/><path fill="#523873" d="M600 200h100v100H600z"/><path fill="#75447b" d="M700 200h100v100H700z"/><path fill="#723d70" d="M0 300h100v100H0z"/><path fill="#795587" d="M100 300h100v100H100z"/><path fill="#765b8b" d="M200 300h100v100H200z"/><path fill="#6c4070" d="M300 300h100v100H300z"/><path fill="#623d71" d="M400 300h100v100H400z"/><path fill="#825178" d="M500 300h100v100H500z"/><path fill="#825684" d="M600 300h100v100H600z"/><path fill="#894f83" d="M700 300h100v100H700z"/></svg>