<svg xmlns="http://www.w3.org/2000/svg" viewBox="0 0 800 500"><defs/><path fill="#4c463e" d="M0 0h100v100H0z"/><path fill="#9e9592" d="M100 0h100v100H100z"/><path fill="#84a29b" d="M200 0h100v100H200z"/><path fill="#89a2a2" d="M300 0h100v100H300z"/><path fill="#639181" d="M400 0h100v100H400z"/><path fill="#729082" d="M500 0h100v100H500z"/><path fill="#ada9a7" d="M600 0h100v100H600z"/><path fill="#726a66" d="M700 0h100v100H700z"/><path fill="#514a44" d="M0 100h100v100H0z"/><path fill="#b9b8b2" d="M100 100h100v100H100z"/><path fill="#8eaa96" d="M200 100h100v100H200z"/><path fill="#94bfb0" d="M300 100h100v100H300z"/><path fill="#81b29d" d="M400 100h100v100H400z"/><path fill="#86a991" d="M500 100h100v100H500z"/><path fill="#919995" d="M600 100h100v100H600z"/><path fill="#271e1b" d="M700 100h100v100H700z"/><path fill="#4c433d" d="M0 200h100v100H0z"/><path fill="#b2a9a6" d="M100 200h100v100H100z"/><path fill="#b2b0aa" d="M200 200h100v100H200z"/><path fill="#b7c3bf" d="M300 200h100v100H300z"/><path fill="#c2c1c5" d="M400 200h100v100H400z"/><path fill="#c2c0bd" d="M500 200h100v100H500z"/><path fill="#a29e9e" d="M600 200h100v100H600z"/><path fill="#2f2621" d="M700 200h100v100H700z"/><path fill="#443e30" d="M0 300h100v100H0z"/><path fill="#bbaf85" d="M100 300h100v100H100z"/><path fill="#c9b4ad" d="M200 300h100v100H200z"/><path fill="#c7b6bf" d="M300 300h100v100H300z"/><path fill="#c3b4bd" d="M400 300h100v100H400z"/><path fill="#d4b8a8" d="M500 300h100v100H500z"/><path fill="#bdb2a9" d="M600 300h100v100H600z"/><path fill="#3a2e2a" d="M700 300h100v100H700z"/><path fill="#343720" d="M0 400h100v100H0z"/><path fill="#7c8747" d="M100 400h100v100H100z"/><path fill="#a88f76" d="M200 400h100v100H200z"/><path fill="#a6948d" d="M300 400h100v100H300z"/><path fill="#a59386" d="M400 400h100v100H400z"/><path fill="#af9a8a" d="M500 400h100v100H500z"/><path fill="#988b81" d="M600 400h100v100H600z"/><path fill="#382d29" d="M700 400h100v100H700z"/></svg>