<svg xmlns="http://www.w3.org/2000/svg" viewBox="0 0 800 500"><defs/><path fill="#f4cbd1" d="M0 0h100v100H0z"/><path fill="#c99ea6" d="M100 0h100v100H100z"/><path fill="#c99a95" d="M200 0h100v100H200z"/><path fill="#cd9c96" d="M300 0h100v100H300z"/><path fill="#d2a29a" d="M400 0h100v100H400z"/><path fill="#d1a39c" d="M500 0h100v100H500z"/><path fill="#d4a29d" d="M600 0h100v100H600z"/><path fill="#dbb9b4" d="M700 0h100v100H700z"/><path fill="#f1bfc7" d="M0 100h100v100H0z"/><path fill="#c0898f" d="M100 100h100v100H100z"/><path fill="#ca8781" d="M200 100h100v100H200z"/><path fill="#d08c7f" d="M300 100h100v100H300z"/><path fill="#d89087" d="M400 100h100v100H400z"/><path fill="#c8867e" d="M500 100h100v100H500z"/><path fill="#c4837b" d="M600 100h100v100H600z"/><path fill="#cea69e" d="M700 100h100v100H700z"/><path fill="#e7bbc3" d="M0 200h100v100H0z"/><path fill="#c18d91" d="M100 200h100v100H100z"/><path fill="#b77d6b" d="M200 200h100v100H200z"/><path fill="#b6795c" d="M300 200h100v100H300z"/><path fill="#c3877b" d="M400 200h100v100H400z"/><path fill="#b48582" d="M500 200h100v100H500z"/><path fill="#ad8375" d="M600 200h100v100H600z"/><path fill="#c1998f" d="M700 200h100v100H700z"/><path fill="#d3a6af" d="M0 300h100v100H0z"/><path fill="#a27071" d="M100 300h100v100H100z"/><path fill="#ad7677" d="M200 300h100v100H200z"/><path fill="#b8797f" d="M300 300h100v100H300z"/><path fill="#a06e78" d="M400 300h100v100H400z"/><path fill="#8d6d75" d="M500 300h100v100H500z"/><path fill="#8f645e" d="M600 300h100v100H600z"/><path fill="#906f69" d="M700 300h100v100H700z"/><path fill="#e0d0d1" d="M0 400h100v100H0z"/><path fill="#d5bebc" d="M100 400h100v100H100z"/><path fill="#dbc3c2" d="M200 400h100v100H200z"/><path fill="#e0c6c8" d="M300 400h100v100H300z"/><path fill="#d7bfbf" d="M400 400h100v100H400z"/><path fill="#cab7b2" d="M500 400h100v100H500z"/><path fill="#c5b3b1" d="M600 400h100v100H600z"/><path fill="#cbbcba" d="M700 400h100v100H700z"/></svg>