<svg xmlns="http://www.w3.org/2000/svg" viewBox="0 0 800 400"><defs/><path fill="#cbcbca" d="M0 0h100v100H0z"/><path fill="#888986" d="M100 0h100v100H100z"/><path fill="#c5c7c8" d="M200 0h100v100H200z"/><path fill="#a9a6ab" d="M300 0h100v100H300z"/><path fill="#c3b4b9" d="M400 0h100v100H400z"/><path fill="#c8cac9" d="M500 0h100v100H500z"/><path fill="#d5dbd5" d="M600 0h100v100H600z"/><path fill="#f1f0f0" d="M700 0h100v100H700z"/><path fill="#b6b7b6" d="M0 100h100v100H0z"/><path fill="#8f8d8a" d="M100 100h100v100H100z"/><path fill="#585754" d="M200 100h100v100H200z"/><path fill="#7e7e7e" d="M300 100h100v100H300z"/><path fill="#9e959a" d="M400 100h100v100H400z"/><path fill="#a9aea5" d="M500 100h100v100H500z"/><path fill="#a3ae9f" d="M600 100h100v100H600z"/><path fill="#e6e7e9" d="M700 100h100v100H700z"/><path fill="#a4a4a2" d="M0 200h100v100H0z"/><path fill="#777573" d="M100 200h100v100H100z"/><path fill="#5a5855" d="M200 200h100v100H200z"/><path fill="#9a9a9a" d="M300 200h100v100H300z"/><path fill="#51524c" d="M400 200h100v100H400z"/><path fill="#746b60" d="M500 200h100v100H500z"/><path fill="#71716a" d="M600 200h100v100H600z"/><path fill="#c9cdc9" d="M700 200h100v100H700z"/><path fill="#91918f" d="M0 300h100v100H0z"/><path fill="#a09d98" d="M100 300h100v100H100z"/><path fill="#bfb9b8" d="M200 300h100v100H200z"/><path fill="#a8a8a9" d="M300 300h100v100H300z"/><path fill="#5d625a" d="M400 300h100v100H400z"/><path fill="#292e27" d="M500 300h100v100H500z"/><path fill="#22201d" d="M600 300h100v100H600z"/><path fill="#747473" d="M700 300h100v100H700z"/></svg>