<svg xmlns="http://www.w3.org/2000/svg" viewBox="0 0 800 600"><defs/><path fill="#f7f6f7" d="M0 0h100v100H0z"/><path fill="#f5f5f5" d="M100 0h100v100H100z"/><path fill="#f7f6f7" d="M200 0h100v100H200z"/><path fill="#f6f6f6" d="M300 0h100v100H300z"/><path fill="#f9f9f8" d="M400 0h100v100H400z"/><path fill="#f8f8f8" d="M500 0h100v100H500z"/><path fill="#f5f5f5" d="M600 0h100v100H600z"/><path fill="#f9f9f9" d="M700 0h100v100H700z"/><path fill="#e6e6e6" d="M0 100h100v100H0z"/><path fill="#dadada" d="M100 100h100v100H100z"/><path fill="#e5e5e5" d="M200 100h100v100H200z"/><path fill="#e3e3e3" d="M300 100h100v100H300z"/><path fill="#d4d3d4" d="M400 100h100v100H400z"/><path fill="#d1d1d1" d="M500 100h100v100H500z"/><path fill="#d9d9d9" d="M600 100h100v100H600z"/><path fill="#d6d6d6" d="M700 100h100v100H700z"/><path fill="#ebebeb" d="M0 200h100v100H0z"/><path fill="#dedede" d="M100 200h100v100H100z"/><path fill="#b9b9b9" d="M200 200h100v100H200z"/><path fill="#c5c5c5" d="M300 200h100v100H300z"/><path fill="#d6d6d6" d="M400 200h100v100H400z"/><path fill="#c6c6c5" d="M500 200h100v100H500z"/><path fill="#bebebf" d="M600 200h100v100H600z"/><path fill="#cbcbcc" d="M700 200h100v100H700z"/><path fill="#e9e9e9" d="M0 300h100v100H0z"/><path fill="#e1e1e1" d="M100 300h100v100H100z"/><path fill="#d1d1d1" d="M200 300h100v100H200z"/><path fill="#d2d2d2" d="M300 300h100v100H300z"/><path fill="#e7e7e7" d="M400 300h100v100H400z"/><path fill="#e0e0e0" d="M500 300h100v100H500z"/><path fill="#d3d2d3" d="M600 300h100v100H600z"/><path fill="#d6d5d7" d="M700 300h100v100H700z"/><path fill="#ededed" d="M0 400h100v100H0z"/><path fill="#e0e0e0" d="M100 400h100v100H100z"/><path fill="#ededed" d="M200 400h100v100H200z"/><path fill="#ececec" d="M300 400h100v100H300z"/><path fill="#f5f5f5" d="M400 400h100v100H400z"/><path fill="#eaeaea" d="M500 400h100v100H500z"/><path fill="#ebebeb" d="M600 400h100v100H600z"/><path fill="#e9e9e9" d="M700 400h100v100H700z"/><path fill="#f8f8f8" d="M0 500h100v100H0zm100 0h100v100H100z"/><path fill="#f9f9f9" d="M200 500h100v100H200z"/><path fill="#fafafa" d="M300 500h100v100H300z"/><path fill="#fcfcfc" d="M400 500h100v100H400z"/><path fill="#f7f7f7" d="M500 500h100v100H500z"/><path fill="#f6f6f6" d="M600 500h100v100H600z"/><path fill="#f8f8f8" d="M700 500h100v100H700z"/></svg>