<svg xmlns="http://www.w3.org/2000/svg" viewBox="0 0 800 400"><defs/><path fill="#727681" d="M0 0h100v100H0z"/><path fill="#545a64" d="M100 0h100v100H100z"/><path fill="#495061" d="M200 0h100v100H200z"/><path fill="#303645" d="M300 0h100v100H300z"/><path fill="#3b4c65" d="M400 0h100v100H400z"/><path fill="#6f6e78" d="M500 0h100v100H500z"/><path fill="#649dbf" d="M600 0h100v100H600z"/><path fill="#4e83b2" d="M700 0h100v100H700z"/><path fill="#cecbc5" d="M0 100h100v100H0z"/><path fill="#949492" d="M100 100h100v100H100z"/><path fill="#515c74" d="M200 100h100v100H200z"/><path fill="#423c56" d="M300 100h100v100H300z"/><path fill="#5a678b" d="M400 100h100v100H400z"/><path fill="#5c4229" d="M500 100h100v100H500z"/><path fill="#40779d" d="M600 100h100v100H600z"/><path fill="#5089b8" d="M700 100h100v100H700z"/><path fill="#d5d5c1" d="M0 200h100v100H0z"/><path fill="#a8a3a0" d="M100 200h100v100H100z"/><path fill="#535632" d="M200 200h100v100H200z"/><path fill="#735e4b" d="M300 200h100v100H300z"/><path fill="#5a543e" d="M400 200h100v100H400z"/><path fill="#63726e" d="M500 200h100v100H500z"/><path fill="#3da2e2" d="M600 200h100v100H600z"/><path fill="#60daff" d="M700 200h100v100H700z"/><path fill="#d3c9b5" d="M0 300h100v100H0z"/><path fill="#a4a2a4" d="M100 300h100v100H100z"/><path fill="#aead57" d="M200 300h100v100H200z"/><path fill="#9ba375" d="M300 300h100v100H300z"/><path fill="#767466" d="M400 300h100v100H400z"/><path fill="#80a2bd" d="M500 300h100v100H500z"/><path fill="#62b7f0" d="M600 300h100v100H600z"/><path fill="#51acd3" d="M700 300h100v100H700z"/></svg>