<svg xmlns="http://www.w3.org/2000/svg" viewBox="0 0 800 600"><defs/><path fill="#f2e8eb" d="M0 0h100v100H0z"/><path fill="#ebdde2" d="M100 0h100v100H100z"/><path fill="#f0e5e8" d="M200 0h100v100H200z"/><path fill="#f2e5e7" d="M300 0h100v100H300z"/><path fill="#eee2e6" d="M400 0h100v100H400z"/><path fill="#eee1e6" d="M500 0h100v100H500z"/><path fill="#efe3e7" d="M600 0h100v100H600z"/><path fill="#f1e9ec" d="M700 0h100v100H700z"/><path fill="#d2a0b1" d="M0 100h100v100H0z"/><path fill="#c07a8d" d="M100 100h100v100H100z"/><path fill="#d29cb0" d="M200 100h100v100H200z"/><path fill="#c78fa2" d="M300 100h100v100H300z"/><path fill="#d6a7b6" d="M400 100h100v100H400z"/><path fill="#d1a9b8" d="M500 100h100v100H500z"/><path fill="#d0a2b0" d="M600 100h100v100H600z"/><path fill="#ddbdc8" d="M700 100h100v100H700z"/><path fill="#cf9aaa" d="M0 200h100v100H0z"/><path fill="#c88295" d="M100 200h100v100H100z"/><path fill="#b7889d" d="M200 200h100v100H200z"/><path fill="#b88696" d="M300 200h100v100H300z"/><path fill="#ce9bac" d="M400 200h100v100H400z"/><path fill="#c79caf" d="M500 200h100v100H500z"/><path fill="#d3a4b5" d="M600 200h100v100H600z"/><path fill="#e9d2d6" d="M700 200h100v100H700z"/><path fill="#d29fac" d="M0 300h100v100H0z"/><path fill="#b96f84" d="M100 300h100v100H100z"/><path fill="#ba839d" d="M200 300h100v100H200z"/><path fill="#bc889b" d="M300 300h100v100H300z"/><path fill="#c48799" d="M400 300h100v100H400z"/><path fill="#c48f9f" d="M500 300h100v100H500z"/><path fill="#b78098" d="M600 300h100v100H600z"/><path fill="#ebd7d9" d="M700 300h100v100H700z"/><path fill="#c08a9b" d="M0 400h100v100H0z"/><path fill="#ac5f75" d="M100 400h100v100H100z"/><path fill="#b47c99" d="M200 400h100v100H200z"/><path fill="#b2789e" d="M300 400h100v100H300z"/><path fill="#b682a1" d="M400 400h100v100H400z"/><path fill="#a0899a" d="M500 400h100v100H500z"/><path fill="#8c6f85" d="M600 400h100v100H600z"/><path fill="#dcc4ca" d="M700 400h100v100H700z"/><path fill="#e0d0d7" d="M0 500h100v100H0z"/><path fill="#dfc9d0" d="M100 500h100v100H100z"/><path fill="#dfccd2" d="M200 500h100v100H200z"/><path fill="#e0cfd8" d="M300 500h100v100H300z"/><path fill="#e2d1dc" d="M400 500h100v100H400z"/><path fill="#e1d4d9" d="M500 500h100v100H500z"/><path fill="#ebe5e5" d="M600 500h100v100H600z"/><path fill="#e8dee2" d="M700 500h100v100H700z"/></svg>