<svg xmlns="http://www.w3.org/2000/svg" viewBox="0 0 800 400"><defs/><path fill="#867fa2" d="M0 0h100v100H0z"/><path fill="#74658c" d="M100 0h100v100H100z"/><path fill="#75739c" d="M200 0h100v100H200z"/><path fill="#7da9bd" d="M300 0h100v100H300z"/><path fill="#749cb4" d="M400 0h100v100H400z"/><path fill="#84b1c2" d="M500 0h100v100H500z"/><path fill="#73789d" d="M600 0h100v100H600z"/><path fill="#a79ab7" d="M700 0h100v100H700z"/><path fill="#a598b2" d="M0 100h100v100H0z"/><path fill="#836d96" d="M100 100h100v100H100z"/><path fill="#787aa1" d="M200 100h100v100H200z"/><path fill="#5f89a9" d="M300 100h100v100H300z"/><path fill="#6b96b1" d="M400 100h100v100H400z"/><path fill="#70a5b8" d="M500 100h100v100H500z"/><path fill="#758cae" d="M600 100h100v100H600z"/><path fill="#a79dbc" d="M700 100h100v100H700z"/><path fill="#b9a7bf" d="M0 200h100v100H0z"/><path fill="#8985a2" d="M100 200h100v100H100z"/><path fill="#7e89a2" d="M200 200h100v100H200z"/><path fill="#545c90" d="M300 200h100v100H300z"/><path fill="#807da3" d="M400 200h100v100H400z"/><path fill="#998fa8" d="M500 200h100v100H500z"/><path fill="#8585a9" d="M600 200h100v100H600z"/><path fill="#b3afc7" d="M700 200h100v100H700z"/><path fill="#b9b2cb" d="M0 300h100v100H0z"/><path fill="#697d96" d="M100 300h100v100H100z"/><path fill="#7a8aa0" d="M200 300h100v100H200z"/><path fill="#a8a4c4" d="M300 300h100v100H300z"/><path fill="#aba6c7" d="M400 300h100v100H400z"/><path fill="#aba5c0" d="M500 300h100v100H500z"/><path fill="#a49cb9" d="M600 300h100v100H600z"/><path fill="#bcb9d1" d="M700 300h100v100H700z"/></svg>