<svg xmlns="http://www.w3.org/2000/svg" viewBox="0 0 800 500"><defs/><path fill="#e0dbdc" d="M0 0h100v100H0z"/><path fill="#c7b1a6" d="M100 0h100v100H100z"/><path fill="#cdd2d9" d="M200 0h100v100H200z"/><path fill="#d0d0d6" d="M300 0h100v100H300z"/><path fill="#cfcbcf" d="M400 0h100v100H400z"/><path fill="#d3c5c5" d="M500 0h100v100H500z"/><path fill="#d1d0d6" d="M600 0h100v100H600z"/><path fill="#dedee2" d="M700 0h100v100H700z"/><path fill="#dbcfca" d="M0 100h100v100H0z"/><path fill="#ad9688" d="M100 100h100v100H100z"/><path fill="#adb4bb" d="M200 100h100v100H200z"/><path fill="#c2b5b4" d="M300 100h100v100H300z"/><path fill="#beb9be" d="M400 100h100v100H400z"/><path fill="#c4b8ba" d="M500 100h100v100H500z"/><path fill="#c5c0c7" d="M600 100h100v100H600z"/><path fill="#d2d5da" d="M700 100h100v100H700z"/><path fill="#d1bdb1" d="M0 200h100v100H0z"/><path fill="#b89f92" d="M100 200h100v100H100z"/><path fill="#bbb4ac" d="M200 200h100v100H200z"/><path fill="#c1b5b1" d="M300 200h100v100H300z"/><path fill="#c0afaf" d="M400 200h100v100H400z"/><path fill="#cec6c8" d="M500 200h100v100H500z"/><path fill="#cac7ce" d="M600 200h100v100H600z"/><path fill="#cacbce" d="M700 200h100v100H700z"/><path fill="#c2a492" d="M0 300h100v100H0z"/><path fill="#afa39c" d="M100 300h100v100H100z"/><path fill="#c0c0b3" d="M200 300h100v100H200z"/><path fill="#d7c2a6" d="M300 300h100v100H300z"/><path fill="#d8b297" d="M400 300h100v100H400z"/><path fill="#bfacab" d="M500 300h100v100H500z"/><path fill="#b79c90" d="M600 300h100v100H600z"/><path fill="#c6b4a6" d="M700 300h100v100H700z"/><path fill="#d8ccc3" d="M0 400h100v100H0z"/><path fill="#d9cfc6" d="M100 400h100v100H100z"/><path fill="#dfcfc2" d="M200 400h100v100H200z"/><path fill="#dfd4c4" d="M300 400h100v100H300z"/><path fill="#d5d0be" d="M400 400h100v100H400z"/><path fill="#d6ccca" d="M500 400h100v100H500z"/><path fill="#dccdc2" d="M600 400h100v100H600z"/><path fill="#ddd2ca" d="M700 400h100v100H700z"/></svg>