<svg xmlns="http://www.w3.org/2000/svg" viewBox="0 0 800 600"><defs/><path fill="#f9f5f5" d="M0 0h100v100H0z"/><path fill="#f3eeed" d="M100 0h100v100H100z"/><path fill="#f8f9fa" d="M200 0h100v100H200z"/><path fill="#fefbfc" d="M300 0h100v100H300z"/><path fill="snow" d="M400 0h100v100H400z"/><path fill="#fdfafa" d="M500 0h100v100H500z"/><path fill="#faf8f8" d="M600 0h100v100H600z"/><path fill="#fbf9f9" d="M700 0h100v100H700z"/><path fill="#ccafa9" d="M0 100h100v100H0z"/><path fill="#a17a75" d="M100 100h100v100H100z"/><path fill="#dbdad5" d="M200 100h100v100H200z"/><path fill="#bcd2d4" d="M300 100h100v100H300z"/><path fill="#a7cfdb" d="M400 100h100v100H400z"/><path fill="#a9bec7" d="M500 100h100v100H500z"/><path fill="#b7c1be" d="M600 100h100v100H600z"/><path fill="#d2e0df" d="M700 100h100v100H700z"/><path fill="#d7bcb4" d="M0 200h100v100H0z"/><path fill="#aa8986" d="M100 200h100v100H100z"/><path fill="#beb9a5" d="M200 200h100v100H200z"/><path fill="#8ba37f" d="M300 200h100v100H300z"/><path fill="#577b5a" d="M400 200h100v100H400z"/><path fill="#687667" d="M500 200h100v100H500z"/><path fill="#737862" d="M600 200h100v100H600z"/><path fill="#b0bbac" d="M700 200h100v100H700z"/><path fill="#e0c7c5" d="M0 300h100v100H0z"/><path fill="#a89394" d="M100 300h100v100H100z"/><path fill="#b3a493" d="M200 300h100v100H200z"/><path fill="#71695b" d="M300 300h100v100H300z"/><path fill="#6c675c" d="M400 300h100v100H400z"/><path fill="#7b614c" d="M500 300h100v100H500z"/><path fill="#826f61" d="M600 300h100v100H600z"/><path fill="#b3b2b1" d="M700 300h100v100H700z"/><path fill="#dac7c7" d="M0 400h100v100H0z"/><path fill="#ab9281" d="M100 400h100v100H100z"/><path fill="#945b1f" d="M200 400h100v100H200z"/><path fill="#5d5948" d="M300 400h100v100H300z"/><path fill="#a89fa6" d="M400 400h100v100H400z"/><path fill="#c4aa92" d="M500 400h100v100H500z"/><path fill="#9f4900" d="M600 400h100v100H600z"/><path fill="#c3ac94" d="M700 400h100v100H700z"/><path fill="#eae2df" d="M0 500h100v100H0z"/><path fill="#d6b897" d="M100 500h100v100H100z"/><path fill="#d5b591" d="M200 500h100v100H200z"/><path fill="#c9c1be" d="M300 500h100v100H300z"/><path fill="#eae4e5" d="M400 500h100v100H400z"/><path fill="#f2ebe2" d="M500 500h100v100H500z"/><path fill="#d6a979" d="M600 500h100v100H600z"/><path fill="#dfc9b2" d="M700 500h100v100H700z"/></svg>