<svg xmlns="http://www.w3.org/2000/svg" viewBox="0 0 800 500"><defs/><path fill="#ddebd5" d="M0 0h100v100H0z"/><path fill="#d9ac7d" d="M100 0h100v100H100z"/><path fill="#e5b5a3" d="M200 0h100v100H200z"/><path fill="#d8d0c6" d="M300 0h100v100H300z"/><path fill="#f3cdc1" d="M400 0h100v100H400z"/><path fill="#c5c39b" d="M500 0h100v100H500z"/><path fill="#b5bd9a" d="M600 0h100v100H600z"/><path fill="#f1c5b5" d="M700 0h100v100H700z"/><path fill="#ccdab0" d="M0 100h100v100H0z"/><path fill="#cc910e" d="M100 100h100v100H100z"/><path fill="#ae963e" d="M200 100h100v100H200z"/><path fill="#90c7d5" d="M300 100h100v100H300z"/><path fill="#d0986c" d="M400 100h100v100H400z"/><path fill="#7dac70" d="M500 100h100v100H500z"/><path fill="#64b098" d="M600 100h100v100H600z"/><path fill="#eaa07c" d="M700 100h100v100H700z"/><path fill="#c3d1aa" d="M0 200h100v100H0z"/><path fill="#d3a61d" d="M100 200h100v100H100z"/><path fill="#b7b82d" d="M200 200h100v100H200z"/><path fill="#a2be95" d="M300 200h100v100H300z"/><path fill="#dbc3af" d="M400 200h100v100H400z"/><path fill="#98c2a6" d="M500 200h100v100H500z"/><path fill="#9fcdea" d="M600 200h100v100H600z"/><path fill="#e1aa93" d="M700 200h100v100H700z"/><path fill="#d0bb86" d="M0 300h100v100H0z"/><path fill="#c89318" d="M100 300h100v100H100z"/><path fill="#d08820" d="M200 300h100v100H200z"/><path fill="#7a800d" d="M300 300h100v100H300z"/><path fill="#7db56b" d="M400 300h100v100H400z"/><path fill="#d8d8dd" d="M500 300h100v100H500z"/><path fill="#bad0db" d="M600 300h100v100H600z"/><path fill="#dbcfc4" d="M700 300h100v100H700z"/><path fill="#e8d0b6" d="M0 400h100v100H0z"/><path fill="#d1c281" d="M100 400h100v100H100z"/><path fill="#84a24c" d="M200 400h100v100H200z"/><path fill="#4f953b" d="M300 400h100v100H300z"/><path fill="#80b471" d="M400 400h100v100H400z"/><path fill="#e6eef2" d="M500 400h100v100H500z"/><path fill="#c4dfe2" d="M600 400h100v100H600z"/><path fill="#dadece" d="M700 400h100v100H700z"/></svg>