<svg xmlns="http://www.w3.org/2000/svg" viewBox="0 0 800 1100"><defs/><path fill="#fff" d="M0 0h100v100H0zm100 0h100v100H100z"/><path fill="#fdfcfc" d="M200 0h100v100H200z"/><path fill="#f7f7f7" d="M300 0h100v100H300zm100 0h100v100H400z"/><path fill="#fdfdfd" d="M500 0h100v100H500z"/><path fill="#fff" d="M600 0h100v100H600zm100 0h100v100H700zM0 100h100v100H0z"/><path fill="#fafaf9" d="M100 100h100v100H100z"/><path fill="#d9d6d4" d="M200 100h100v100H200z"/><path fill="#d8d8d7" d="M300 100h100v100H300z"/><path fill="#e9e9e9" d="M400 100h100v100H400z"/><path fill="#f1f0f0" d="M500 100h100v100H500z"/><path fill="#fcfcfc" d="M600 100h100v100H600z"/><path fill="#fff" d="M700 100h100v100H700zM0 200h100v100H0z"/><path fill="#cecbca" d="M100 200h100v100H100z"/><path fill="#ada9a7" d="M200 200h100v100H200z"/><path fill="#cecccc" d="M300 200h100v100H300z"/><path fill="#c8c6c6" d="M400 200h100v100H400z"/><path fill="#b5b3b1" d="M500 200h100v100H500z"/><path fill="#d9d8d7" d="M600 200h100v100H600z"/><path fill="#fff" d="M700 200h100v100H700zM0 300h100v100H0z"/><path fill="#c3bfbc" d="M100 300h100v100H100z"/><path fill="#9a938d" d="M200 300h100v100H200z"/><path fill="#b4aea9" d="M300 300h100v100H300z"/><path fill="#8f8983" d="M400 300h100v100H400z"/><path fill="#948b83" d="M500 300h100v100H500z"/><path fill="#c6c3c1" d="M600 300h100v100H600z"/><path fill="#fff" d="M700 300h100v100H700zM0 400h100v100H0z"/><path fill="#cfcdcd" d="M100 400h100v100H100z"/><path fill="#9d815f" d="M200 400h100v100H200z"/><path fill="#b29d83" d="M300 400h100v100H300z"/><path fill="#9d866e" d="M400 400h100v100H400z"/><path fill="#8f7966" d="M500 400h100v100H500z"/><path fill="#d3d0cc" d="M600 400h100v100H600z"/><path fill="#fdfefe" d="M700 400h100v100H700z"/><path fill="#fff" d="M0 500h100v100H0z"/><path fill="#cccbc6" d="M100 500h100v100H100z"/><path fill="#a89a87" d="M200 500h100v100H200z"/><path fill="#b79d7a" d="M300 500h100v100H300z"/><path fill="#968977" d="M400 500h100v100H400z"/><path fill="#dadbde" d="M500 500h100v100H500z"/><path fill="#c3c3c2" d="M600 500h100v100H600z"/><path fill="#dfdfdf" d="M700 500h100v100H700z"/><path fill="#fff" d="M0 600h100v100H0z"/><path fill="#f2f1ef" d="M100 600h100v100H100z"/><path fill="#dbe2e8" d="M200 600h100v100H200z"/><path fill="#c0b492" d="M300 600h100v100H300z"/><path fill="#9d7c35" d="M400 600h100v100H400z"/><path fill="#d4d0c8" d="M500 600h100v100H500z"/><path fill="#ececee" d="M600 600h100v100H600z"/><path fill="#f8f8f8" d="M700 600h100v100H700z"/><path fill="#fff" d="M0 700h100v100H0zm100 0h100v100H100z"/><path fill="#d7dbdc" d="M200 700h100v100H200z"/><path fill="#a7aca6" d="M300 700h100v100H300z"/><path fill="#969684" d="M400 700h100v100H400z"/><path fill="#f2f0ee" d="M500 700h100v100H500z"/><path fill="#fff" d="M600 700h100v100H600z"/><path fill="#fefefe" d="M700 700h100v100H700z"/><path fill="#fdfdfd" d="M0 800h100v100H0z"/><path fill="#fff" d="M100 800h100v100H100z"/><path fill="#b7bcc0" d="M200 800h100v100H200z"/><path fill="#8c9499" d="M300 800h100v100H300z"/><path fill="#e1e3e7" d="M400 800h100v100H400z"/><path fill="#fff" d="M500 800h100v100H500z"/><path fill="#fcfcfc" d="M600 800h100v100H600z"/><path fill="#fff" d="M700 800h100v100H700z"/><path fill="#fdfdfd" d="M0 900h100v100H0z"/><path fill="#fff" d="M100 900h100v100H100z"/><path fill="#c7c8c8" d="M200 900h100v100H200z"/><path fill="#7f8587" d="M300 900h100v100H300z"/><path fill="#fffffe" d="M400 900h100v100H400z"/><path fill="#fefefe" d="M500 900h100v100H500z"/><path fill="#fff" d="M600 900h100v100H600zm100 0h100v100H700zM0 1000h100v100H0zm100 0h100v100H100z"/><path fill="#f5f5f5" d="M200 1000h100v100H200z"/><path fill="#e4e4e3" d="M300 1000h100v100H300z"/><path fill="#fff" d="M400 1000h100v100H400z"/><path fill="#fefefe" d="M500 1000h100v100H500z"/><path fill="#fff" d="M600 1000h100v100H600zm100 0h100v100H700z"/></svg>