<svg xmlns="http://www.w3.org/2000/svg" viewBox="0 0 800 500"><defs/><path fill="#a6acbd" d="M0 0h100v100H0z"/><path fill="#fee8de" d="M100 0h100v100H100z"/><path fill="#8f7a71" d="M200 0h100v100H200z"/><path fill="#5e534f" d="M300 0h100v100H300z"/><path fill="#675954" d="M400 0h100v100H400z"/><path fill="#90796b" d="M500 0h100v100H500z"/><path fill="#edcaa5" d="M600 0h100v100H600z"/><path fill="#fdf0e4" d="M700 0h100v100H700z"/><path fill="#c3c2cc" d="M0 100h100v100H0z"/><path fill="#ffddc7" d="M100 100h100v100H100z"/><path fill="#8a707e" d="M200 100h100v100H200z"/><path fill="#293445" d="M300 100h100v100H300z"/><path fill="#3c414b" d="M400 100h100v100H400z"/><path fill="#c6a587" d="M500 100h100v100H500z"/><path fill="#ffc99d" d="M600 100h100v100H600z"/><path fill="#f9e1d8" d="M700 100h100v100H700z"/><path fill="#c9d2d9" d="M0 200h100v100H0z"/><path fill="#fecfb6" d="M100 200h100v100H100z"/><path fill="#f8c5b8" d="M200 200h100v100H200z"/><path fill="#e2d0c4" d="M300 200h100v100H300z"/><path fill="#ded0d0" d="M400 200h100v100H400z"/><path fill="#e7c4a9" d="M500 200h100v100H500z"/><path fill="#edb294" d="M600 200h100v100H600z"/><path fill="#f3d7e1" d="M700 200h100v100H700z"/><path fill="#eaeaec" d="M0 300h100v100H0z"/><path fill="#fcd0ad" d="M100 300h100v100H100z"/><path fill="#c0a195" d="M200 300h100v100H200z"/><path fill="#e7ba9a" d="M300 300h100v100H300z"/><path fill="#ffbea3" d="M400 300h100v100H400z"/><path fill="#f7d6ba" d="M500 300h100v100H500z"/><path fill="#f3b986" d="M600 300h100v100H600z"/><path fill="#fddbc4" d="M700 300h100v100H700z"/><path fill="#f9d6b9" d="M0 400h100v100H0z"/><path fill="#f6ceaa" d="M100 400h100v100H100z"/><path fill="#c8b49d" d="M200 400h100v100H200z"/><path fill="#e5a986" d="M300 400h100v100H300z"/><path fill="#f5996b" d="M400 400h100v100H400z"/><path fill="#f4d3ae" d="M500 400h100v100H500z"/><path fill="#f8bf89" d="M600 400h100v100H600z"/><path fill="#fcc189" d="M700 400h100v100H700z"/></svg>