<svg xmlns="http://www.w3.org/2000/svg" viewBox="0 0 800 500"><defs/><path fill="#d4d9e1" d="M0 0h100v100H0z"/><path fill="#d5d9de" d="M100 0h100v100H100z"/><path fill="#d6d8d8" d="M200 0h100v100H200z"/><path fill="#d6bfc8" d="M300 0h100v100H300z"/><path fill="#acbccd" d="M400 0h100v100H400z"/><path fill="#6797b5" d="M500 0h100v100H500z"/><path fill="#b4bbc6" d="M600 0h100v100H600z"/><path fill="#bfc7cc" d="M700 0h100v100H700z"/><path fill="#ccd3db" d="M0 100h100v100H0z"/><path fill="#ced6da" d="M100 100h100v100H100z"/><path fill="#cbcfcb" d="M200 100h100v100H200z"/><path fill="#5c6963" d="M300 100h100v100H300z"/><path fill="#315658" d="M400 100h100v100H400z"/><path fill="#477288" d="M500 100h100v100H500z"/><path fill="#b7b9bd" d="M600 100h100v100H600z"/><path fill="#adb6b5" d="M700 100h100v100H700z"/><path fill="#ced5dc" d="M0 200h100v100H0z"/><path fill="#a9c9d0" d="M100 200h100v100H100z"/><path fill="#959fa3" d="M200 200h100v100H200z"/><path fill="#789188" d="M300 200h100v100H300z"/><path fill="#758d7a" d="M400 200h100v100H400z"/><path fill="#b6b8ac" d="M500 200h100v100H500z"/><path fill="#98a792" d="M600 200h100v100H600z"/><path fill="#a8b7bd" d="M700 200h100v100H700z"/><path fill="#ceb5bf" d="M0 300h100v100H0z"/><path fill="#8a9aa1" d="M100 300h100v100H100z"/><path fill="#91959c" d="M200 300h100v100H200z"/><path fill="#94959b" d="M300 300h100v100H300z"/><path fill="#b2c1c2" d="M400 300h100v100H400z"/><path fill="#5f8f8a" d="M500 300h100v100H500z"/><path fill="#447b6d" d="M600 300h100v100H600z"/><path fill="#86a2a6" d="M700 300h100v100H700z"/><path fill="#d4d0d8" d="M0 400h100v100H0z"/><path fill="#bfc8cf" d="M100 400h100v100H100z"/><path fill="#a5b6bc" d="M200 400h100v100H200z"/><path fill="#9ba5b1" d="M300 400h100v100H300z"/><path fill="#a4b8bf" d="M400 400h100v100H400z"/><path fill="#8aa8ae" d="M500 400h100v100H500z"/><path fill="#8eaaaf" d="M600 400h100v100H600z"/><path fill="#abb7c0" d="M700 400h100v100H700z"/></svg>