<svg xmlns="http://www.w3.org/2000/svg" viewBox="0 0 800 400"><defs/><path fill="#9598a4" d="M0 0h100v100H0z"/><path fill="#525457" d="M100 0h100v100H100z"/><path fill="#313338" d="M200 0h100v100H200z"/><path fill="#405365" d="M300 0h100v100H300z"/><path fill="#6c869d" d="M400 0h100v100H400z"/><path fill="#64747c" d="M500 0h100v100H500z"/><path fill="#5c725a" d="M600 0h100v100H600z"/><path fill="#646354" d="M700 0h100v100H700z"/><path fill="#7c808b" d="M0 100h100v100H0z"/><path fill="#4d555f" d="M100 100h100v100H100z"/><path fill="#1f232b" d="M200 100h100v100H200z"/><path fill="#28353c" d="M300 100h100v100H300z"/><path fill="#435c68" d="M400 100h100v100H400z"/><path fill="#4f5c61" d="M500 100h100v100H500z"/><path fill="#496244" d="M600 100h100v100H600z"/><path fill="#4d5645" d="M700 100h100v100H700z"/><path fill="#7a7e84" d="M0 200h100v100H0z"/><path fill="#46474b" d="M100 200h100v100H100z"/><path fill="#57606e" d="M200 200h100v100H200z"/><path fill="#5a5f60" d="M300 200h100v100H300z"/><path fill="#676867" d="M400 200h100v100H400z"/><path fill="#595755" d="M500 200h100v100H500z"/><path fill="#445962" d="M600 200h100v100H600z"/><path fill="#5c5957" d="M700 200h100v100H700z"/><path fill="#64666b" d="M0 300h100v100H0z"/><path fill="#3c3b40" d="M100 300h100v100H100z"/><path fill="#383c48" d="M200 300h100v100H200z"/><path fill="#3f4759" d="M300 300h100v100H300z"/><path fill="#5f6e7f" d="M400 300h100v100H400z"/><path fill="#5d6878" d="M500 300h100v100H500z"/><path fill="#4a4d52" d="M600 300h100v100H600z"/><path fill="#444242" d="M700 300h100v100H700z"/></svg>