<svg xmlns="http://www.w3.org/2000/svg" viewBox="0 0 800 500"><defs/><path fill="#5e6056" d="M0 0h100v100H0z"/><path fill="#4d5349" d="M100 0h100v100H100z"/><path fill="#5b5b3e" d="M200 0h100v100H200z"/><path fill="#ad9f92" d="M300 0h100v100H300z"/><path fill="#ccbdb0" d="M400 0h100v100H400z"/><path fill="#646053" d="M500 0h100v100H500z"/><path fill="#424737" d="M600 0h100v100H600z"/><path fill="#9a948c" d="M700 0h100v100H700z"/><path fill="#7e7b71" d="M0 100h100v100H0z"/><path fill="#373e2a" d="M100 100h100v100H100z"/><path fill="#606244" d="M200 100h100v100H200z"/><path fill="#92926d" d="M300 100h100v100H300z"/><path fill="#d6c5ab" d="M400 100h100v100H400z"/><path fill="#6f6854" d="M500 100h100v100H500z"/><path fill="#60615b" d="M600 100h100v100H600z"/><path fill="#a59f9c" d="M700 100h100v100H700z"/><path fill="#696952" d="M0 200h100v100H0z"/><path fill="#605e46" d="M100 200h100v100H100z"/><path fill="#9c917f" d="M200 200h100v100H200z"/><path fill="#8b8867" d="M300 200h100v100H300z"/><path fill="#988775" d="M400 200h100v100H400z"/><path fill="#877c66" d="M500 200h100v100H500z"/><path fill="#696858" d="M600 200h100v100H600z"/><path fill="#96908c" d="M700 200h100v100H700z"/><path fill="#827e69" d="M0 300h100v100H0z"/><path fill="#847d69" d="M100 300h100v100H100z"/><path fill="#535641" d="M200 300h100v100H200z"/><path fill="#8d8b6e" d="M300 300h100v100H300z"/><path fill="#999281" d="M400 300h100v100H400z"/><path fill="#aba392" d="M500 300h100v100H500z"/><path fill="#83817a" d="M600 300h100v100H600z"/><path fill="#595e4b" d="M700 300h100v100H700z"/><path fill="#d7c4ab" d="M0 400h100v100H0z"/><path fill="#d8c7af" d="M100 400h100v100H100z"/><path fill="#827a65" d="M200 400h100v100H200z"/><path fill="#63644c" d="M300 400h100v100H300z"/><path fill="#c8c1ad" d="M400 400h100v100H400z"/><path fill="#dfd2c2" d="M500 400h100v100H500z"/><path fill="#6f7258" d="M600 400h100v100H600z"/><path fill="#404722" d="M700 400h100v100H700z"/></svg>