<svg xmlns="http://www.w3.org/2000/svg" viewBox="0 0 800 400"><defs/><path fill="#e0a002" d="M0 0h100v100H0z"/><path fill="#745a44" d="M100 0h100v100H100z"/><path fill="#e7cb88" d="M200 0h100v100H200z"/><path fill="#e9bd4e" d="M300 0h100v100H300z"/><path fill="#e9d5ba" d="M400 0h100v100H400z"/><path fill="#b5aea9" d="M500 0h100v100H500z"/><path fill="#968f80" d="M600 0h100v100H600z"/><path fill="#969698" d="M700 0h100v100H700z"/><path fill="#a88515" d="M0 100h100v100H0z"/><path fill="#91735e" d="M100 100h100v100H100z"/><path fill="#e5d4b6" d="M200 100h100v100H200z"/><path fill="#c3ba94" d="M300 100h100v100H300z"/><path fill="#ddddd7" d="M400 100h100v100H400z"/><path fill="#a6a6a6" d="M500 100h100v100H500z"/><path fill="#918c80" d="M600 100h100v100H600z"/><path fill="#475161" d="M700 100h100v100H700z"/><path fill="#97690e" d="M0 200h100v100H0z"/><path fill="#8d806f" d="M100 200h100v100H100z"/><path fill="#92938a" d="M200 200h100v100H200z"/><path fill="#6b6e74" d="M300 200h100v100H300z"/><path fill="#8a9292" d="M400 200h100v100H400z"/><path fill="#7d7169" d="M500 200h100v100H500z"/><path fill="#948e79" d="M600 200h100v100H600z"/><path fill="#424e5d" d="M700 200h100v100H700z"/><path fill="#986b31" d="M0 300h100v100H0z"/><path fill="#5f8474" d="M100 300h100v100H100z"/><path fill="#269a95" d="M200 300h100v100H200z"/><path fill="#857732" d="M300 300h100v100H300z"/><path fill="#7f6f40" d="M400 300h100v100H400z"/><path fill="#afbab7" d="M500 300h100v100H500z"/><path fill="#939f9f" d="M600 300h100v100H600z"/><path fill="#001c3d" d="M700 300h100v100H700z"/></svg>