<svg xmlns="http://www.w3.org/2000/svg" viewBox="0 0 800 500"><defs/><path fill="#cdc9c1" d="M0 0h100v100H0z"/><path fill="#9a938a" d="M100 0h100v100H100z"/><path fill="#9b998e" d="M200 0h100v100H200z"/><path fill="#cdd0cc" d="M300 0h100v100H300z"/><path fill="#e2e0db" d="M400 0h100v100H400z"/><path fill="#dededb" d="M500 0h100v100H500z"/><path fill="#ddd7cc" d="M600 0h100v100H600z"/><path fill="#e5e3d9" d="M700 0h100v100H700z"/><path fill="#b3aba3" d="M0 100h100v100H0z"/><path fill="#625a51" d="M100 100h100v100H100z"/><path fill="#3c3e3b" d="M200 100h100v100H200z"/><path fill="#c0c5c3" d="M300 100h100v100H300z"/><path fill="#e5f2fb" d="M400 100h100v100H400z"/><path fill="#d9e6e8" d="M500 100h100v100H500z"/><path fill="#a1a799" d="M600 100h100v100H600z"/><path fill="#dedacf" d="M700 100h100v100H700z"/><path fill="#aba69a" d="M0 200h100v100H0z"/><path fill="#5b5955" d="M100 200h100v100H100z"/><path fill="#414643" d="M200 200h100v100H200z"/><path fill="#939690" d="M300 200h100v100H300z"/><path fill="#d7d7d6" d="M400 200h100v100H400z"/><path fill="#d3ded7" d="M500 200h100v100H500z"/><path fill="#878770" d="M600 200h100v100H600z"/><path fill="#b5b8b1" d="M700 200h100v100H700z"/><path fill="#a39f93" d="M0 300h100v100H0z"/><path fill="#575344" d="M100 300h100v100H100z"/><path fill="#695b4a" d="M200 300h100v100H200z"/><path fill="#826d58" d="M300 300h100v100H300z"/><path fill="#8a8077" d="M400 300h100v100H400z"/><path fill="#72746f" d="M500 300h100v100H500z"/><path fill="#79645f" d="M600 300h100v100H600z"/><path fill="#939a93" d="M700 300h100v100H700z"/><path fill="#bdb4ae" d="M0 400h100v100H0z"/><path fill="#a79482" d="M100 400h100v100H100z"/><path fill="#a49585" d="M200 400h100v100H200z"/><path fill="#a6a29a" d="M300 400h100v100H300z"/><path fill="#b1a8a8" d="M400 400h100v100H400z"/><path fill="#929796" d="M500 400h100v100H500z"/><path fill="#9e9692" d="M600 400h100v100H600z"/><path fill="#a9b5b4" d="M700 400h100v100H700z"/></svg>