<svg xmlns="http://www.w3.org/2000/svg" viewBox="0 0 800 1000"><defs/><path fill="#d4d5d8" d="M0 0h100v100H0z"/><path fill="#dbdadb" d="M100 0h100v100H100z"/><path fill="#e4e6e6" d="M200 0h100v100H200z"/><path fill="#e1e2e2" d="M300 0h100v100H300z"/><path fill="#e5e7e6" d="M400 0h100v100H400z"/><path fill="#dfe0df" d="M500 0h100v100H500z"/><path fill="#e8eae9" d="M600 0h100v100H600z"/><path fill="#e4e7e7" d="M700 0h100v100H700z"/><path fill="#d5d4d8" d="M0 100h100v100H0z"/><path fill="#cecdd0" d="M100 100h100v100H100z"/><path fill="#cbcacd" d="M200 100h100v100H200z"/><path fill="#d1d2d4" d="M300 100h100v100H300z"/><path fill="#dfe1e1" d="M400 100h100v100H400z"/><path fill="#e3e6e6" d="M500 100h100v100H500z"/><path fill="#dee1e1" d="M600 100h100v100H600z"/><path fill="#e6e9e7" d="M700 100h100v100H700z"/><path fill="#e1e1e2" d="M0 200h100v100H0z"/><path fill="#d1d1d4" d="M100 200h100v100H100z"/><path fill="#d6d7da" d="M200 200h100v100H200z"/><path fill="#d8d8db" d="M300 200h100v100H300z"/><path fill="#d1d2d4" d="M400 200h100v100H400z"/><path fill="#dfe2e2" d="M500 200h100v100H500z"/><path fill="#e0e4e4" d="M600 200h100v100H600z"/><path fill="#e1e5e3" d="M700 200h100v100H700z"/><path fill="#d9d9db" d="M0 300h100v100H0z"/><path fill="#d4d4d5" d="M100 300h100v100H100z"/><path fill="#bababe" d="M200 300h100v100H200z"/><path fill="#c8c9cc" d="M300 300h100v100H300z"/><path fill="#cfd0d3" d="M400 300h100v100H400z"/><path fill="#c6c7cb" d="M500 300h100v100H500z"/><path fill="#ced0d3" d="M600 300h100v100H600z"/><path fill="#e2e7e6" d="M700 300h100v100H700z"/><path fill="#cac8ce" d="M0 400h100v100H0z"/><path fill="#d2d2d4" d="M100 400h100v100H100z"/><path fill="#bfbfc2" d="M200 400h100v100H200z"/><path fill="#c0c1c4" d="M300 400h100v100H300z"/><path fill="#c7c6ca" d="M400 400h100v100H400z"/><path fill="#c9cacd" d="M500 400h100v100H500z"/><path fill="#ccced1" d="M600 400h100v100H600z"/><path fill="#dce0e1" d="M700 400h100v100H700z"/><path fill="#d8d6db" d="M0 500h100v100H0z"/><path fill="#cccace" d="M100 500h100v100H100z"/><path fill="#c5c5c8" d="M200 500h100v100H200z"/><path fill="#cecfd3" d="M300 500h100v100H300z"/><path fill="#c8c9cc" d="M400 500h100v100H400z"/><path fill="#c7c8cb" d="M500 500h100v100H500z"/><path fill="#d9dcdd" d="M600 500h100v100H600z"/><path fill="#dce0e1" d="M700 500h100v100H700z"/><path fill="#d6d6d9" d="M0 600h100v100H0z"/><path fill="#d1d1d4" d="M100 600h100v100H100z"/><path fill="#d1d2d5" d="M200 600h100v100H200z"/><path fill="#cdced1" d="M300 600h100v100H300z"/><path fill="#cccdd1" d="M400 600h100v100H400z"/><path fill="#d2d4d7" d="M500 600h100v100H500z"/><path fill="#dfe3e3" d="M600 600h100v100H600z"/><path fill="#dbdedf" d="M700 600h100v100H700z"/><path fill="#d7d7db" d="M0 700h100v100H0z"/><path fill="#e0e1e2" d="M100 700h100v100H100z"/><path fill="#dce0e1" d="M200 700h100v100H200z"/><path fill="#d0d1d5" d="M300 700h100v100H300z"/><path fill="#d2d4d7" d="M400 700h100v100H400z"/><path fill="#d2d3d6" d="M500 700h100v100H500z"/><path fill="#dde0e0" d="M600 700h100v100H600z"/><path fill="#dbdedf" d="M700 700h100v100H700z"/><path fill="#d6d6d9" d="M0 800h100v100H0z"/><path fill="#dfe0e1" d="M100 800h100v100H100z"/><path fill="#d0d1d4" d="M200 800h100v100H200z"/><path fill="#d5d6d8" d="M300 800h100v100H300z"/><path fill="#daddde" d="M400 800h100v100H400z"/><path fill="#cfd1d3" d="M500 800h100v100H500z"/><path fill="#d7dadc" d="M600 800h100v100H600z"/><path fill="#d5d7d9" d="M700 800h100v100H700z"/><path fill="#d1cfd4" d="M0 900h100v100H0z"/><path fill="#d0cfd3" d="M100 900h100v100H100z"/><path fill="#d3d3d6" d="M200 900h100v100H200z"/><path fill="#dadbdd" d="M300 900h100v100H300z"/><path fill="#d8d9dc" d="M400 900h100v100H400z"/><path fill="#dfe1e2" d="M500 900h100v100H500z"/><path fill="#dcdedf" d="M600 900h100v100H600z"/><path fill="#dfe1e1" d="M700 900h100v100H700z"/></svg>