<svg xmlns="http://www.w3.org/2000/svg" viewBox="0 0 800 500"><defs/><path fill="#fcecd4" d="M0 0h100v100H0z"/><path fill="#f3dbb7" d="M100 0h100v100H100z"/><path fill="#ece5db" d="M200 0h100v100H200z"/><path fill="#f5f2ea" d="M300 0h100v100H300z"/><path fill="#f0d9bc" d="M400 0h100v100H400z"/><path fill="#e5c8a3" d="M500 0h100v100H500z"/><path fill="#fae1c1" d="M600 0h100v100H600z"/><path fill="#f0e3c3" d="M700 0h100v100H700z"/><path fill="#fbdfb1" d="M0 100h100v100H0z"/><path fill="#edbf7e" d="M100 100h100v100H100z"/><path fill="#eed2aa" d="M200 100h100v100H200z"/><path fill="#dfc3a8" d="M300 100h100v100H300z"/><path fill="#bcb790" d="M400 100h100v100H400z"/><path fill="#af9154" d="M500 100h100v100H500z"/><path fill="#dbb06a" d="M600 100h100v100H600z"/><path fill="#96b146" d="M700 100h100v100H700z"/><path fill="#fae0b9" d="M0 200h100v100H0z"/><path fill="#e1bd7c" d="M100 200h100v100H100z"/><path fill="#edc27e" d="M200 200h100v100H200z"/><path fill="#ba9467" d="M300 200h100v100H300z"/><path fill="#be8a4d" d="M400 200h100v100H400z"/><path fill="#bc9b6f" d="M500 200h100v100H500z"/><path fill="#aeb8a2" d="M600 200h100v100H600z"/><path fill="#a6a868" d="M700 200h100v100H700z"/><path fill="#f7c995" d="M0 300h100v100H0z"/><path fill="#c59e4d" d="M100 300h100v100H100z"/><path fill="#b6904e" d="M200 300h100v100H200z"/><path fill="#cea16c" d="M300 300h100v100H300z"/><path fill="#d19253" d="M400 300h100v100H400z"/><path fill="#d5b388" d="M500 300h100v100H500z"/><path fill="#cba06d" d="M600 300h100v100H600z"/><path fill="#c49560" d="M700 300h100v100H700z"/><path fill="#f6d1a9" d="M0 400h100v100H0z"/><path fill="#ecbc87" d="M100 400h100v100H100z"/><path fill="#e3bb95" d="M200 400h100v100H200z"/><path fill="#eccba5" d="M300 400h100v100H300z"/><path fill="#e7d8c4" d="M400 400h100v100H400z"/><path fill="#e8d1b3" d="M500 400h100v100H500z"/><path fill="#d1a26c" d="M600 400h100v100H600z"/><path fill="#e4b684" d="M700 400h100v100H700z"/></svg>