<svg xmlns="http://www.w3.org/2000/svg" viewBox="0 0 800 600"><defs/><path fill="#6c5448" d="M0 0h100v100H0z"/><path fill="#3a271f" d="M100 0h100v100H100z"/><path fill="#57433c" d="M200 0h100v100H200z"/><path fill="#534036" d="M300 0h100v100H300z"/><path fill="#40322e" d="M400 0h100v100H400z"/><path fill="#3e3534" d="M500 0h100v100H500z"/><path fill="#837771" d="M600 0h100v100H600z"/><path fill="#fbf9f6" d="M700 0h100v100H700z"/><path fill="#5e4639" d="M0 100h100v100H0z"/><path fill="#5e4338" d="M100 100h100v100H100z"/><path fill="#6e5e57" d="M200 100h100v100H200z"/><path fill="#4b3833" d="M300 100h100v100H300z"/><path fill="#3a2c28" d="M400 100h100v100H400z"/><path fill="#3d2419" d="M500 100h100v100H500z"/><path fill="#968277" d="M600 100h100v100H600z"/><path fill="#f1f5f5" d="M700 100h100v100H700z"/><path fill="#4a362e" d="M0 200h100v100H0z"/><path fill="#71584d" d="M100 200h100v100H100z"/><path fill="#756160" d="M200 200h100v100H200z"/><path fill="#605455" d="M300 200h100v100H300z"/><path fill="#756767" d="M400 200h100v100H400z"/><path fill="#795f5a" d="M500 200h100v100H500z"/><path fill="#8b766f" d="M600 200h100v100H600z"/><path fill="#babdc2" d="M700 200h100v100H700z"/><path fill="#42312c" d="M0 300h100v100H0z"/><path fill="#4e3e37" d="M100 300h100v100H100z"/><path fill="#5b423d" d="M200 300h100v100H200z"/><path fill="#695250" d="M300 300h100v100H300z"/><path fill="#6e5452" d="M400 300h100v100H400z"/><path fill="#6c5654" d="M500 300h100v100H500z"/><path fill="#493d38" d="M600 300h100v100H600z"/><path fill="#6b6363" d="M700 300h100v100H700z"/><path fill="#31150b" d="M0 400h100v100H0z"/><path fill="#3a1e17" d="M100 400h100v100H100z"/><path fill="#b6b4b8" d="M200 400h100v100H200z"/><path fill="#d8dce4" d="M300 400h100v100H300z"/><path fill="#c6c8d0" d="M400 400h100v100H400z"/><path fill="#cccdd5" d="M500 400h100v100H500z"/><path fill="#63504d" d="M600 400h100v100H600z"/><path fill="#90877d" d="M700 400h100v100H700z"/><path fill="#280d04" d="M0 500h100v100H0z"/><path fill="#584643" d="M100 500h100v100H100z"/><path fill="#c4c9d1" d="M200 500h100v100H200z"/><path fill="#c1c4cc" d="M300 500h100v100H300z"/><path fill="#b9bac1" d="M400 500h100v100H400z"/><path fill="#bfbec4" d="M500 500h100v100H500z"/><path fill="#989091" d="M600 500h100v100H600z"/><path fill="#513a31" d="M700 500h100v100H700z"/></svg>