<svg xmlns="http://www.w3.org/2000/svg" viewBox="0 0 800 400"><defs/><path fill="#d8ccbf" d="M0 0h100v100H0z"/><path fill="#767875" d="M100 0h100v100H100z"/><path fill="#8bb5a7" d="M200 0h100v100H200z"/><path fill="#91c5b3" d="M300 0h100v100H300z"/><path fill="#86c7b3" d="M400 0h100v100H400z"/><path fill="#8bc8b7" d="M500 0h100v100H500z"/><path fill="#7aae9c" d="M600 0h100v100H600z"/><path fill="#bac8b2" d="M700 0h100v100H700z"/><path fill="#c4b9af" d="M0 100h100v100H0z"/><path fill="#78807a" d="M100 100h100v100H100z"/><path fill="#a3c9bb" d="M200 100h100v100H200z"/><path fill="#a8b5ab" d="M300 100h100v100H300z"/><path fill="#a7aaa2" d="M400 100h100v100H400z"/><path fill="#91b9a7" d="M500 100h100v100H500z"/><path fill="#80926b" d="M600 100h100v100H600z"/><path fill="#9d9574" d="M700 100h100v100H700z"/><path fill="#afa2a0" d="M0 200h100v100H0z"/><path fill="#9a6f79" d="M100 200h100v100H100z"/><path fill="#aa929b" d="M200 200h100v100H200z"/><path fill="#b38494" d="M300 200h100v100H300z"/><path fill="#8e9c9c" d="M400 200h100v100H400z"/><path fill="#88a785" d="M500 200h100v100H500z"/><path fill="#807a5e" d="M600 200h100v100H600z"/><path fill="#b9a8a5" d="M700 200h100v100H700z"/><path fill="#7a686a" d="M0 300h100v100H0z"/><path fill="#9f5277" d="M100 300h100v100H100z"/><path fill="#a76d82" d="M200 300h100v100H200z"/><path fill="#9f8c8a" d="M300 300h100v100H300z"/><path fill="#3aa2aa" d="M400 300h100v100H400z"/><path fill="#8b9a91" d="M500 300h100v100H500z"/><path fill="#778c90" d="M600 300h100v100H600z"/><path fill="#97a2a6" d="M700 300h100v100H700z"/></svg>