<svg xmlns="http://www.w3.org/2000/svg" viewBox="0 0 800 700"><defs/><path fill="#d3d2e0" d="M0 0h100v100H0z"/><path fill="#cfcfde" d="M100 0h100v100H100z"/><path fill="#d0ccd4" d="M200 0h100v100H200z"/><path fill="#cec8cb" d="M300 0h100v100H300z"/><path fill="#c6c3ca" d="M400 0h100v100H400z"/><path fill="#c0bec6" d="M500 0h100v100H500z"/><path fill="#bebcc4" d="M600 0h100v100H600z"/><path fill="#b8b6c1" d="M700 0h100v100H700z"/><path fill="#cec88c" d="M0 100h100v100H0z"/><path fill="#c6bc81" d="M100 100h100v100H100z"/><path fill="#9faeaa" d="M200 100h100v100H200z"/><path fill="#84a2c2" d="M300 100h100v100H300z"/><path fill="#a3aca2" d="M400 100h100v100H400z"/><path fill="#a5ac9b" d="M500 100h100v100H500z"/><path fill="#9a9c8e" d="M600 100h100v100H600z"/><path fill="#aba88a" d="M700 100h100v100H700z"/><path fill="#bab656" d="M0 200h100v100H0z"/><path fill="#c2b135" d="M100 200h100v100H100z"/><path fill="#7b9673" d="M200 200h100v100H200z"/><path fill="#428797" d="M300 200h100v100H300z"/><path fill="#84976b" d="M400 200h100v100H400z"/><path fill="#7e847f" d="M500 200h100v100H500z"/><path fill="#757c41" d="M600 200h100v100H600z"/><path fill="#828a58" d="M700 200h100v100H700z"/><path fill="#b4af70" d="M0 300h100v100H0z"/><path fill="#b5ac4d" d="M100 300h100v100H100z"/><path fill="#989a5d" d="M200 300h100v100H200z"/><path fill="#798574" d="M300 300h100v100H300z"/><path fill="#968f5c" d="M400 300h100v100H400z"/><path fill="#918258" d="M500 300h100v100H500z"/><path fill="#8b8f4b" d="M600 300h100v100H600z"/><path fill="#958c53" d="M700 300h100v100H700z"/><path fill="#b0a64b" d="M0 400h100v100H0z"/><path fill="#aea347" d="M100 400h100v100H100z"/><path fill="#9a9578" d="M200 400h100v100H200z"/><path fill="#8d8664" d="M300 400h100v100H300z"/><path fill="#918b61" d="M400 400h100v100H400z"/><path fill="#80785e" d="M500 400h100v100H500z"/><path fill="#988956" d="M600 400h100v100H600z"/><path fill="#a89445" d="M700 400h100v100H700z"/><path fill="#c1b444" d="M0 500h100v100H0z"/><path fill="#c8b634" d="M100 500h100v100H100z"/><path fill="#b4aa61" d="M200 500h100v100H200z"/><path fill="#afa84f" d="M300 500h100v100H300z"/><path fill="#aea14a" d="M400 500h100v100H400z"/><path fill="#9a8147" d="M500 500h100v100H500z"/><path fill="#a0954f" d="M600 500h100v100H600z"/><path fill="#9c934d" d="M700 500h100v100H700z"/><path fill="#c7c5c0" d="M0 600h100v100H0z"/><path fill="#c6c3b6" d="M100 600h100v100H100z"/><path fill="#c1beb3" d="M200 600h100v100H200z"/><path fill="#bcbab3" d="M300 600h100v100H300z"/><path fill="#b8b6b0" d="M400 600h100v100H400z"/><path fill="#bcbaae" d="M500 600h100v100H500z"/><path fill="#b8b6ac" d="M600 600h100v100H600z"/><path fill="#b0b0ae" d="M700 600h100v100H700z"/></svg>