<svg xmlns="http://www.w3.org/2000/svg" viewBox="0 0 800 600"><defs/><path fill="#98988c" d="M0 0h100v100H0z"/><path fill="#6e756f" d="M100 0h100v100H100z"/><path fill="#7a837e" d="M200 0h100v100H200z"/><path fill="#717974" d="M300 0h100v100H300z"/><path fill="#727772" d="M400 0h100v100H400z"/><path fill="#838680" d="M500 0h100v100H500z"/><path fill="#b6b7b3" d="M600 0h100v100H600z"/><path fill="#aeaeab" d="M700 0h100v100H700z"/><path fill="#f1f2e0" d="M0 100h100v100H0z"/><path fill="#77857f" d="M100 100h100v100H100z"/><path fill="#5e7272" d="M200 100h100v100H200z"/><path fill="#819796" d="M300 100h100v100H300z"/><path fill="#8fa2a0" d="M400 100h100v100H400z"/><path fill="#babfb1" d="M500 100h100v100H500z"/><path fill="#eef0e9" d="M600 100h100v100H600z"/><path fill="#edf0eb" d="M700 100h100v100H700z"/><path fill="#edecda" d="M0 200h100v100H0z"/><path fill="#565650" d="M100 200h100v100H100z"/><path fill="#2e3738" d="M200 200h100v100H200z"/><path fill="#92948d" d="M300 200h100v100H300z"/><path fill="#9aa4a2" d="M400 200h100v100H400z"/><path fill="#dbd9cc" d="M500 200h100v100H500z"/><path fill="#888f8b" d="M600 200h100v100H600z"/><path fill="#6f7776" d="M700 200h100v100H700z"/><path fill="#eeeddb" d="M0 300h100v100H0z"/><path fill="#585a54" d="M100 300h100v100H100z"/><path fill="#353b3b" d="M200 300h100v100H200z"/><path fill="#8a8880" d="M300 300h100v100H300z"/><path fill="#797e7e" d="M400 300h100v100H400z"/><path fill="#a4a199" d="M500 300h100v100H500z"/><path fill="#969a96" d="M600 300h100v100H600z"/><path fill="#a2a6a4" d="M700 300h100v100H700z"/><path fill="#e6e5d4" d="M0 400h100v100H0z"/><path fill="#787970" d="M100 400h100v100H100z"/><path fill="#616c6a" d="M200 400h100v100H200z"/><path fill="#818883" d="M300 400h100v100H300z"/><path fill="#7f7876" d="M400 400h100v100H400z"/><path fill="#97978e" d="M500 400h100v100H500z"/><path fill="#eff0ee" d="M600 400h100v100H600z"/><path fill="#fffffc" d="M700 400h100v100H700z"/><path fill="#e4e5d6" d="M0 500h100v100H0z"/><path fill="#97a299" d="M100 500h100v100H100z"/><path fill="#7e8782" d="M200 500h100v100H200z"/><path fill="#93a09b" d="M300 500h100v100H300z"/><path fill="#a0aaaa" d="M400 500h100v100H400z"/><path fill="#d1d2cb" d="M500 500h100v100H500z"/><path fill="#a9b0ac" d="M600 500h100v100H600z"/><path fill="#a1a7a5" d="M700 500h100v100H700z"/></svg>