<svg xmlns="http://www.w3.org/2000/svg" viewBox="0 0 800 600"><defs/><path fill="#fcfcfc" d="M0 0h100v100H0z"/><path fill="#f6f6f6" d="M100 0h100v100H100zm100 0h100v100H200z"/><path fill="#f5f6f7" d="M300 0h100v100H300z"/><path fill="#f4f5f5" d="M400 0h100v100H400z"/><path fill="#ebecee" d="M500 0h100v100H500z"/><path fill="#eeeff1" d="M600 0h100v100H600z"/><path fill="#f5f6f8" d="M700 0h100v100H700z"/><path fill="#f0f0f0" d="M0 100h100v100H0z"/><path fill="#ebebeb" d="M100 100h100v100H100z"/><path fill="#ededee" d="M200 100h100v100H200z"/><path fill="#f3f3f3" d="M300 100h100v100H300z"/><path fill="#f1f1f1" d="M400 100h100v100H400z"/><path fill="#d9d9d9" d="M500 100h100v100H500z"/><path fill="#dfdfde" d="M600 100h100v100H600z"/><path fill="#eaebeb" d="M700 100h100v100H700z"/><path fill="#e4e5e5" d="M0 200h100v100H0z"/><path fill="#ededed" d="M100 200h100v100H100z"/><path fill="#e8e8e9" d="M200 200h100v100H200z"/><path fill="#e6e6e6" d="M300 200h100v100H300zm100 0h100v100H400zm100 0h100v100H500z"/><path fill="#dfdfe0" d="M600 200h100v100H600z"/><path fill="#e9eaea" d="M700 200h100v100H700z"/><path fill="#f9f9f9" d="M0 300h100v100H0z"/><path fill="#f1f1f1" d="M100 300h100v100H100z"/><path fill="#e9e9e9" d="M200 300h100v100H200z"/><path fill="#e5e6e6" d="M300 300h100v100H300z"/><path fill="#e8e8e8" d="M400 300h100v100H400z"/><path fill="#eeeeef" d="M500 300h100v100H500z"/><path fill="#e8e9eb" d="M600 300h100v100H600z"/><path fill="#eaeced" d="M700 300h100v100H700z"/><path fill="#f5f5f5" d="M0 400h100v100H0z"/><path fill="#f6f7f7" d="M100 400h100v100H100z"/><path fill="#ebebeb" d="M200 400h100v100H200z"/><path fill="#f0f0f0" d="M300 400h100v100H300z"/><path fill="#ececed" d="M400 400h100v100H400z"/><path fill="#dfe0e0" d="M500 400h100v100H500z"/><path fill="#e2e3e3" d="M600 400h100v100H600z"/><path fill="#f8f8f9" d="M700 400h100v100H700z"/><path fill="#f5f5f5" d="M0 500h100v100H0z"/><path fill="#f6f6f6" d="M100 500h100v100H100z"/><path fill="#f4f4f4" d="M200 500h100v100H200z"/><path fill="#f7f7f7" d="M300 500h100v100H300z"/><path fill="#f2f2f2" d="M400 500h100v100H400zm100 0h100v100H500z"/><path fill="#f1f1f2" d="M600 500h100v100H600z"/><path fill="#f6f5f5" d="M700 500h100v100H700z"/></svg>