<svg xmlns="http://www.w3.org/2000/svg" viewBox="0 0 800 600"><defs/><path fill="#ebdfe8" d="M0 0h100v100H0z"/><path fill="#ece7eb" d="M100 0h100v100H100z"/><path fill="#f4f6f5" d="M200 0h100v100H200z"/><path fill="#f5f4f5" d="M300 0h100v100H300z"/><path fill="#f6f4f5" d="M400 0h100v100H400z"/><path fill="#f9f6f6" d="M500 0h100v100H500z"/><path fill="#fdfcfc" d="M600 0h100v100H600z"/><path fill="#e4f6f6" d="M700 0h100v100H700z"/><path fill="#af91ae" d="M0 100h100v100H0z"/><path fill="#b7a2ae" d="M100 100h100v100H100z"/><path fill="#89a3a8" d="M200 100h100v100H200z"/><path fill="#b5ccd1" d="M300 100h100v100H300z"/><path fill="#d6eaeb" d="M400 100h100v100H400z"/><path fill="#c5d8da" d="M500 100h100v100H500z"/><path fill="#c7cbc6" d="M600 100h100v100H600z"/><path fill="#54c8ae" d="M700 100h100v100H700z"/><path fill="#baa2b9" d="M0 200h100v100H0z"/><path fill="#c7c3c0" d="M100 200h100v100H100z"/><path fill="#60888d" d="M200 200h100v100H200z"/><path fill="#a9bcbd" d="M300 200h100v100H300z"/><path fill="#dae3df" d="M400 200h100v100H400z"/><path fill="#6dafa9" d="M500 200h100v100H500z"/><path fill="#535c51" d="M600 200h100v100H600z"/><path fill="#409884" d="M700 200h100v100H700z"/><path fill="#b08faa" d="M0 300h100v100H0z"/><path fill="#b1b4b8" d="M100 300h100v100H100z"/><path fill="#6a9299" d="M200 300h100v100H200z"/><path fill="#b4bfc3" d="M300 300h100v100H300z"/><path fill="#ccc8ca" d="M400 300h100v100H400z"/><path fill="#abb3af" d="M500 300h100v100H500z"/><path fill="#a18a7d" d="M600 300h100v100H600z"/><path fill="#4a8a85" d="M700 300h100v100H700z"/><path fill="#b0a2ae" d="M0 400h100v100H0z"/><path fill="#b4b6b5" d="M100 400h100v100H100z"/><path fill="#f5f5f6" d="M200 400h100v100H200z"/><path fill="#cedde3" d="M300 400h100v100H300z"/><path fill="#a8acac" d="M400 400h100v100H400z"/><path fill="#93a2a9" d="M500 400h100v100H500z"/><path fill="#a5bbc6" d="M600 400h100v100H600z"/><path fill="#88b3ab" d="M700 400h100v100H700z"/><path fill="#f2f1f1" d="M0 500h100v100H0z"/><path fill="#f8faf8" d="M100 500h100v100H100z"/><path fill="#fcf1f3" d="M200 500h100v100H200z"/><path fill="#a4cec6" d="M300 500h100v100H300z"/><path fill="#aed0ce" d="M400 500h100v100H400z"/><path fill="#93b2bc" d="M500 500h100v100H500z"/><path fill="#b0cbd2" d="M600 500h100v100H600z"/><path fill="#e3e2da" d="M700 500h100v100H700z"/></svg>