<svg xmlns="http://www.w3.org/2000/svg" viewBox="0 0 800 400"><defs/><path fill="#d5d6d6" d="M0 0h100v100H0z"/><path fill="#d8d9d9" d="M100 0h100v100H100z"/><path fill="#d0d1d2" d="M200 0h100v100H200z"/><path fill="#e2e4e4" d="M300 0h100v100H300z"/><path fill="#e5e7e6" d="M400 0h100v100H400z"/><path fill="#e0e2e2" d="M500 0h100v100H500z"/><path fill="#ced0d0" d="M600 0h100v100H600z"/><path fill="#c9cacb" d="M700 0h100v100H700z"/><path fill="#d0d1d2" d="M0 100h100v100H0z"/><path fill="#e7e8e8" d="M100 100h100v100H100z"/><path fill="#c7c9c9" d="M200 100h100v100H200z"/><path fill="#bebfc0" d="M300 100h100v100H300z"/><path fill="#cccece" d="M400 100h100v100H400z"/><path fill="#dadcdb" d="M500 100h100v100H500z"/><path fill="#e6e8e8" d="M600 100h100v100H600z"/><path fill="#e1e3e3" d="M700 100h100v100H700z"/><path fill="#cdced0" d="M0 200h100v100H0z"/><path fill="#e0e1e2" d="M100 200h100v100H100z"/><path fill="#cdcfd0" d="M200 200h100v100H200z"/><path fill="#7a7b7c" d="M300 200h100v100H300z"/><path fill="#9a9a9c" d="M400 200h100v100H400z"/><path fill="#d3d4d6" d="M500 200h100v100H500z"/><path fill="#e8eaea" d="M600 200h100v100H600z"/><path fill="#e7e8e9" d="M700 200h100v100H700z"/><path fill="#c5c6c8" d="M0 300h100v100H0z"/><path fill="#c2c3c6" d="M100 300h100v100H100z"/><path fill="#c2c3c5" d="M200 300h100v100H200z"/><path fill="#a2a3a5" d="M300 300h100v100H300z"/><path fill="#b2b3b5" d="M400 300h100v100H400z"/><path fill="#e1e3e3" d="M500 300h100v100H500z"/><path fill="#e8e9e9" d="M600 300h100v100H600z"/><path fill="#e8e9ea" d="M700 300h100v100H700z"/></svg>