<svg xmlns="http://www.w3.org/2000/svg" viewBox="0 0 800 400"><defs/><path fill="#c49761" d="M0 0h100v100H0z"/><path fill="#c19657" d="M100 0h100v100H100z"/><path fill="#c3984c" d="M200 0h100v100H200z"/><path fill="#d5ab4b" d="M300 0h100v100H300z"/><path fill="#e0af64" d="M400 0h100v100H400z"/><path fill="#bc9758" d="M500 0h100v100H500z"/><path fill="#b2854c" d="M600 0h100v100H600z"/><path fill="#d4713d" d="M700 0h100v100H700z"/><path fill="#c1925c" d="M0 100h100v100H0z"/><path fill="#b5884d" d="M100 100h100v100H100z"/><path fill="#bd8b4d" d="M200 100h100v100H200z"/><path fill="#dea668" d="M300 100h100v100H300z"/><path fill="#e3ae5c" d="M400 100h100v100H400z"/><path fill="#be874b" d="M500 100h100v100H500z"/><path fill="#b08b56" d="M600 100h100v100H600z"/><path fill="#c19358" d="M700 100h100v100H700z"/><path fill="#c99a63" d="M0 200h100v100H0z"/><path fill="#c59d5b" d="M100 200h100v100H100z"/><path fill="#e6a949" d="M200 200h100v100H200z"/><path fill="#ecbf69" d="M300 200h100v100H300z"/><path fill="#ecc264" d="M400 200h100v100H400z"/><path fill="#e99d39" d="M500 200h100v100H500z"/><path fill="#d1a452" d="M600 200h100v100H600z"/><path fill="#b49658" d="M700 200h100v100H700z"/><path fill="#c5925b" d="M0 300h100v100H0z"/><path fill="#c38f58" d="M100 300h100v100H100z"/><path fill="#c49d56" d="M200 300h100v100H200z"/><path fill="#e2af5d" d="M300 300h100v100H300z"/><path fill="#c49c60" d="M400 300h100v100H400z"/><path fill="#c7a05a" d="M500 300h100v100H500z"/><path fill="#c29b5b" d="M600 300h100v100H600z"/><path fill="#b08d5e" d="M700 300h100v100H700z"/></svg>