<svg xmlns="http://www.w3.org/2000/svg" viewBox="0 0 800 500"><defs/><path fill="#e6ebed" d="M0 0h100v100H0z"/><path fill="#e1e7e8" d="M100 0h100v100H100z"/><path fill="#e9f0f3" d="M200 0h100v100H200z"/><path fill="#e7eff2" d="M300 0h100v100H300z"/><path fill="#e8eff3" d="M400 0h100v100H400z"/><path fill="#e9f1f4" d="M500 0h100v100H500z"/><path fill="#e8eef0" d="M600 0h100v100H600z"/><path fill="#e4ebee" d="M700 0h100v100H700z"/><path fill="#a5b9c0" d="M0 100h100v100H0z"/><path fill="#9ab3bc" d="M100 100h100v100H100z"/><path fill="#a1b8c2" d="M200 100h100v100H200z"/><path fill="#a4b2b5" d="M300 100h100v100H300z"/><path fill="#a3bcc1" d="M400 100h100v100H400z"/><path fill="#a9bbc0" d="M500 100h100v100H500z"/><path fill="#a5bcc4" d="M600 100h100v100H600z"/><path fill="#a9c0c9" d="M700 100h100v100H700z"/><path fill="#adc0ca" d="M0 200h100v100H0z"/><path fill="#9db5bf" d="M100 200h100v100H100z"/><path fill="#7a9391" d="M200 200h100v100H200z"/><path fill="#7b9b93" d="M300 200h100v100H300z"/><path fill="#8a988c" d="M400 200h100v100H400z"/><path fill="#72877e" d="M500 200h100v100H500z"/><path fill="#88a1a8" d="M600 200h100v100H600z"/><path fill="#c4d3d9" d="M700 200h100v100H700z"/><path fill="#a3b2b5" d="M0 300h100v100H0z"/><path fill="#655849" d="M100 300h100v100H100z"/><path fill="#938362" d="M200 300h100v100H200z"/><path fill="#92754b" d="M300 300h100v100H300z"/><path fill="#ba6132" d="M400 300h100v100H400z"/><path fill="#96613d" d="M500 300h100v100H500z"/><path fill="#6a6449" d="M600 300h100v100H600z"/><path fill="#828c85" d="M700 300h100v100H700z"/><path fill="#c9c6bb" d="M0 400h100v100H0z"/><path fill="#ac9c85" d="M100 400h100v100H100z"/><path fill="#bfae96" d="M200 400h100v100H200z"/><path fill="#cab58d" d="M300 400h100v100H300z"/><path fill="#bba38b" d="M400 400h100v100H400z"/><path fill="#c5ad93" d="M500 400h100v100H500z"/><path fill="#c2af8e" d="M600 400h100v100H600z"/><path fill="#a39c89" d="M700 400h100v100H700z"/></svg>