<svg xmlns="http://www.w3.org/2000/svg" viewBox="0 0 800 500"><defs/><path fill="#d6c4a2" d="M0 0h100v100H0z"/><path fill="#dba388" d="M100 0h100v100H100z"/><path fill="#c1b698" d="M200 0h100v100H200z"/><path fill="#c1c5a8" d="M300 0h100v100H300z"/><path fill="#8eb6bc" d="M400 0h100v100H400z"/><path fill="#87b2c4" d="M500 0h100v100H500z"/><path fill="#7cb8d1" d="M600 0h100v100H600z"/><path fill="#9494a6" d="M700 0h100v100H700z"/><path fill="#d3c3a9" d="M0 100h100v100H0z"/><path fill="#d2a087" d="M100 100h100v100H100z"/><path fill="#c1ac84" d="M200 100h100v100H200z"/><path fill="#c4ceaf" d="M300 100h100v100H300z"/><path fill="#a2b9b7" d="M400 100h100v100H400z"/><path fill="#96afc4" d="M500 100h100v100H500z"/><path fill="#9ba9c4" d="M600 100h100v100H600z"/><path fill="#a8949e" d="M700 100h100v100H700z"/><path fill="#c3b2a8" d="M0 200h100v100H0z"/><path fill="#ca957d" d="M100 200h100v100H100z"/><path fill="#a88d72" d="M200 200h100v100H200z"/><path fill="#aba187" d="M300 200h100v100H300z"/><path fill="#807374" d="M400 200h100v100H400z"/><path fill="#7e8b8f" d="M500 200h100v100H500z"/><path fill="#7686a1" d="M600 200h100v100H600z"/><path fill="#908688" d="M700 200h100v100H700z"/><path fill="#ddab98" d="M0 300h100v100H0z"/><path fill="#ca9c99" d="M100 300h100v100H100z"/><path fill="#d5b6b6" d="M200 300h100v100H200z"/><path fill="#c89d95" d="M300 300h100v100H300z"/><path fill="#96847c" d="M400 300h100v100H400z"/><path fill="#aa9696" d="M500 300h100v100H500z"/><path fill="#98979b" d="M600 300h100v100H600z"/><path fill="#825639" d="M700 300h100v100H700z"/><path fill="#c48e82" d="M0 400h100v100H0z"/><path fill="#d3c3c5" d="M100 400h100v100H100z"/><path fill="#a2c2d6" d="M200 400h100v100H200z"/><path fill="#7ca0bb" d="M300 400h100v100H300z"/><path fill="#939b8e" d="M400 400h100v100H400z"/><path fill="#b3937a" d="M500 400h100v100H500z"/><path fill="#647560" d="M600 400h100v100H600z"/><path fill="#77351f" d="M700 400h100v100H700z"/></svg>