<svg xmlns="http://www.w3.org/2000/svg" viewBox="0 0 800 500"><defs/><path fill="#f8f6f7" d="M0 0h100v100H0z"/><path fill="#f1edf0" d="M100 0h100v100H100z"/><path fill="#f5f2f4" d="M200 0h100v100H200z"/><path fill="#c7c8c6" d="M300 0h100v100H300z"/><path fill="#c7c9c6" d="M400 0h100v100H400z"/><path fill="#dedfdd" d="M500 0h100v100H500z"/><path fill="#e8e8e8" d="M600 0h100v100H600z"/><path fill="#f2f2f3" d="M700 0h100v100H700z"/><path fill="#fff" d="M0 100h100v100H0z"/><path fill="#f5f7f5" d="M100 100h100v100H100z"/><path fill="#e8ede9" d="M200 100h100v100H200z"/><path fill="#9b9a98" d="M300 100h100v100H300z"/><path fill="#6a6967" d="M400 100h100v100H400z"/><path fill="#b9bbb9" d="M500 100h100v100H500z"/><path fill="#dce0dc" d="M600 100h100v100H600z"/><path fill="#edefec" d="M700 100h100v100H700z"/><path fill="#f5f7f6" d="M0 200h100v100H0z"/><path fill="#a5aba1" d="M100 200h100v100H100z"/><path fill="#c9cfc9" d="M200 200h100v100H200z"/><path fill="#90928f" d="M300 200h100v100H300z"/><path fill="#6a6e6c" d="M400 200h100v100H400z"/><path fill="#a39898" d="M500 200h100v100H500z"/><path fill="#d1d3c8" d="M600 200h100v100H600z"/><path fill="#e7eee9" d="M700 200h100v100H700z"/><path fill="#ecefee" d="M0 300h100v100H0z"/><path fill="#adaea7" d="M100 300h100v100H100z"/><path fill="#b3c3bc" d="M200 300h100v100H200z"/><path fill="#708478" d="M300 300h100v100H300z"/><path fill="#66615a" d="M400 300h100v100H400z"/><path fill="#8d8275" d="M500 300h100v100H500z"/><path fill="#c6ae9e" d="M600 300h100v100H600z"/><path fill="#d9d9cc" d="M700 300h100v100H700z"/><path fill="#eff3ed" d="M0 400h100v100H0z"/><path fill="#e1e6de" d="M100 400h100v100H100z"/><path fill="#d9ded5" d="M200 400h100v100H200z"/><path fill="#d6dbd7" d="M300 400h100v100H300z"/><path fill="#cfc1be" d="M400 400h100v100H400z"/><path fill="#d8d5d1" d="M500 400h100v100H500z"/><path fill="#d0c7bb" d="M600 400h100v100H600z"/><path fill="#ccc9b9" d="M700 400h100v100H700z"/></svg>