<svg xmlns="http://www.w3.org/2000/svg" viewBox="0 0 800 400"><defs/><path fill="#b1b1b1" d="M0 0h100v100H0z"/><path fill="#9b9b9b" d="M100 0h100v100H100z"/><path fill="#b0b0b0" d="M200 0h100v100H200z"/><path fill="#b9b9b9" d="M300 0h100v100H300z"/><path fill="#dedede" d="M400 0h100v100H400z"/><path fill="#e9e9e9" d="M500 0h100v100H500z"/><path fill="#c2c2c2" d="M600 0h100v100H600z"/><path fill="#c9c9ca" d="M700 0h100v100H700z"/><path fill="#a3a3a3" d="M0 100h100v100H0z"/><path fill="#919191" d="M100 100h100v100H100z"/><path fill="#a0a0a0" d="M200 100h100v100H200zm100 0h100v100H300z"/><path fill="#a7a7a7" d="M400 100h100v100H400z"/><path fill="#dadada" d="M500 100h100v100H500z"/><path fill="#c9c9c9" d="M600 100h100v100H600z"/><path fill="#dadada" d="M700 100h100v100H700z"/><path fill="#9e9e9e" d="M0 200h100v100H0z"/><path fill="#868686" d="M100 200h100v100H100z"/><path fill="#8b8b8b" d="M200 200h100v100H200z"/><path fill="#979797" d="M300 200h100v100H300z"/><path fill="#8a8a8a" d="M400 200h100v100H400z"/><path fill="#959595" d="M500 200h100v100H500z"/><path fill="#b8b8b8" d="M600 200h100v100H600z"/><path fill="#e1e1e1" d="M700 200h100v100H700z"/><path fill="#9d9d9d" d="M0 300h100v100H0z"/><path fill="#919191" d="M100 300h100v100H100z"/><path fill="#989898" d="M200 300h100v100H200z"/><path fill="#9f9f9f" d="M300 300h100v100H300zm100 0h100v100H400z"/><path fill="#a3a3a3" d="M500 300h100v100H500z"/><path fill="#a7a7a7" d="M600 300h100v100H600z"/><path fill="#cbcbcb" d="M700 300h100v100H700z"/></svg>