<svg xmlns="http://www.w3.org/2000/svg" viewBox="0 0 800 500"><defs/><path fill="#eee" d="M0 0h100v100H0z"/><path fill="#cecece" d="M100 0h100v100H100z"/><path fill="#ddd" d="M200 0h100v100H200z"/><path fill="#f5f5f5" d="M300 0h100v100H300z"/><path fill="#eee" d="M400 0h100v100H400z"/><path fill="#f5f5f5" d="M500 0h100v100H500z"/><path fill="#d2d2d2" d="M600 0h100v100H600z"/><path fill="silver" d="M700 0h100v100H700z"/><path fill="#dedede" d="M0 100h100v100H0z"/><path fill="#656565" d="M100 100h100v100H100z"/><path fill="#d4d4d4" d="M200 100h100v100H200z"/><path fill="#fff" d="M300 100h100v100H300z"/><path fill="#f7f7f7" d="M400 100h100v100H400z"/><path fill="#fbfbfb" d="M500 100h100v100H500z"/><path fill="#cfcfcf" d="M600 100h100v100H600z"/><path fill="#9d9d9d" d="M700 100h100v100H700z"/><path fill="#b4b4b4" d="M0 200h100v100H0z"/><path fill="#595959" d="M100 200h100v100H100z"/><path fill="#a7a7a7" d="M200 200h100v100H200z"/><path fill="#bcbcbc" d="M300 200h100v100H300zm100 0h100v100H400z"/><path fill="#c3c3c3" d="M500 200h100v100H500z"/><path fill="#989898" d="M600 200h100v100H600z"/><path fill="#7f7f7f" d="M700 200h100v100H700z"/><path fill="#909090" d="M0 300h100v100H0z"/><path fill="#939393" d="M100 300h100v100H100z"/><path fill="#616161" d="M200 300h100v100H200z"/><path fill="#595959" d="M300 300h100v100H300z"/><path fill="#5d5d5d" d="M400 300h100v100H400z"/><path fill="#474747" d="M500 300h100v100H500z"/><path fill="#5e5e5e" d="M600 300h100v100H600z"/><path fill="#555" d="M700 300h100v100H700z"/><path fill="#8d8d8d" d="M0 400h100v100H0z"/><path fill="#b8b8b8" d="M100 400h100v100H100z"/><path fill="#c1c1c1" d="M200 400h100v100H200z"/><path fill="#e1e1e1" d="M300 400h100v100H300z"/><path fill="#787878" d="M400 400h100v100H400z"/><path fill="#494949" d="M500 400h100v100H500z"/><path fill="#999" d="M600 400h100v100H600z"/><path fill="#b0b0b0" d="M700 400h100v100H700z"/></svg>