<svg xmlns="http://www.w3.org/2000/svg" viewBox="0 0 800 400"><defs/><path fill="#cfccdb" d="M0 0h100v100H0z"/><path fill="#b2adb7" d="M100 0h100v100H100z"/><path fill="#c6bbc1" d="M200 0h100v100H200z"/><path fill="#7c7d95" d="M300 0h100v100H300z"/><path fill="#6f7187" d="M400 0h100v100H400z"/><path fill="#c2b8bd" d="M500 0h100v100H500z"/><path fill="#c7bab8" d="M600 0h100v100H600z"/><path fill="#988f93" d="M700 0h100v100H700z"/><path fill="#d6d6eb" d="M0 100h100v100H0z"/><path fill="#a79eab" d="M100 100h100v100H100z"/><path fill="#9b8a87" d="M200 100h100v100H200z"/><path fill="#4a4a4a" d="M300 100h100v100H300z"/><path fill="#514a49" d="M400 100h100v100H400z"/><path fill="#8a7875" d="M500 100h100v100H500z"/><path fill="#8a7a72" d="M600 100h100v100H600z"/><path fill="#817777" d="M700 100h100v100H700z"/><path fill="#dbdcf1" d="M0 200h100v100H0z"/><path fill="#767a86" d="M100 200h100v100H100z"/><path fill="#674542" d="M200 200h100v100H200z"/><path fill="#b03f3c" d="M300 200h100v100H300z"/><path fill="#622e33" d="M400 200h100v100H400z"/><path fill="#7b4540" d="M500 200h100v100H500z"/><path fill="#44332b" d="M600 200h100v100H600z"/><path fill="#605757" d="M700 200h100v100H700z"/><path fill="#aaacbd" d="M0 300h100v100H0z"/><path fill="#51535b" d="M100 300h100v100H100z"/><path fill="#2e252a" d="M200 300h100v100H200z"/><path fill="#a07a6e" d="M300 300h100v100H300z"/><path fill="#7a675f" d="M400 300h100v100H400z"/><path fill="#5f4f4a" d="M500 300h100v100H500z"/><path fill="#5a4945" d="M600 300h100v100H600z"/><path fill="#413535" d="M700 300h100v100H700z"/></svg>