<svg xmlns="http://www.w3.org/2000/svg" viewBox="0 0 800 300"><defs/><path fill="#dbdcdd" d="M0 0h100v100H0z"/><path fill="#d4d5d7" d="M100 0h100v100H100z"/><path fill="#d1d1d3" d="M200 0h100v100H200z"/><path fill="#ebebec" d="M300 0h100v100H300z"/><path fill="#f8f8f8" d="M400 0h100v100H400z"/><path fill="#f3f3f4" d="M500 0h100v100H500z"/><path fill="#ededed" d="M600 0h100v100H600z"/><path fill="#f3f3f3" d="M700 0h100v100H700z"/><path fill="#e8e9eb" d="M0 100h100v100H0z"/><path fill="#e9eaeb" d="M100 100h100v100H100zm100 0h100v100H200z"/><path fill="#edeeee" d="M300 100h100v100H300z"/><path fill="#e4e5e4" d="M400 100h100v100H400z"/><path fill="#dddede" d="M500 100h100v100H500z"/><path fill="#e2e2e1" d="M600 100h100v100H600z"/><path fill="#c3c4c4" d="M700 100h100v100H700z"/><path fill="#e9eaec" d="M0 200h100v100H0z"/><path fill="#e7e8ea" d="M100 200h100v100H100z"/><path fill="#e5e6e9" d="M200 200h100v100H200z"/><path fill="#e0e1e2" d="M300 200h100v100H300z"/><path fill="#e0dfdf" d="M400 200h100v100H400z"/><path fill="#d4d6d7" d="M500 200h100v100H500z"/><path fill="#dbdcdc" d="M600 200h100v100H600z"/><path fill="#dadada" d="M700 200h100v100H700z"/></svg>