<svg xmlns="http://www.w3.org/2000/svg" viewBox="0 0 800 800"><defs/><path fill="#e5e4e5" d="M0 0h100v100H0z"/><path fill="#eaeae7" d="M100 0h100v100H100z"/><path fill="#f3f3ef" d="M200 0h100v100H200z"/><path fill="#f2f2ed" d="M300 0h100v100H300z"/><path fill="#e1e0d8" d="M400 0h100v100H400z"/><path fill="#ddd9d1" d="M500 0h100v100H500z"/><path fill="#e2e1da" d="M600 0h100v100H600z"/><path fill="#eaebe5" d="M700 0h100v100H700z"/><path fill="#e5e6e7" d="M0 100h100v100H0z"/><path fill="#dfdfdc" d="M100 100h100v100H100z"/><path fill="#e7e5df" d="M200 100h100v100H200z"/><path fill="#eff0e9" d="M300 100h100v100H300z"/><path fill="#dcdbd1" d="M400 100h100v100H400z"/><path fill="#dedbd2" d="M500 100h100v100H500z"/><path fill="#e5e6e0" d="M600 100h100v100H600z"/><path fill="#e8e9e3" d="M700 100h100v100H700z"/><path fill="#e5e6e7" d="M0 200h100v100H0z"/><path fill="#e5e7e7" d="M100 200h100v100H100z"/><path fill="#baaa9b" d="M200 200h100v100H200z"/><path fill="#d2c6be" d="M300 200h100v100H300z"/><path fill="#bcb8ae" d="M400 200h100v100H400z"/><path fill="#c3baae" d="M500 200h100v100H500z"/><path fill="#dcd7cd" d="M600 200h100v100H600z"/><path fill="#e9ebe6" d="M700 200h100v100H700z"/><path fill="#dadadc" d="M0 300h100v100H0z"/><path fill="#e2e3e2" d="M100 300h100v100H100z"/><path fill="#c1b2a5" d="M200 300h100v100H200z"/><path fill="#7f99ba" d="M300 300h100v100H300z"/><path fill="#6c8fbc" d="M400 300h100v100H400z"/><path fill="#a08a9b" d="M500 300h100v100H500z"/><path fill="#e4dccc" d="M600 300h100v100H600z"/><path fill="#ebede9" d="M700 300h100v100H700z"/><path fill="#e0e1e1" d="M0 400h100v100H0z"/><path fill="#dadcdb" d="M100 400h100v100H100z"/><path fill="#cdbaab" d="M200 400h100v100H200z"/><path fill="#bcc7cd" d="M300 400h100v100H300z"/><path fill="#cad1d6" d="M400 400h100v100H400z"/><path fill="#ccb9b0" d="M500 400h100v100H500z"/><path fill="#d9d0c6" d="M600 400h100v100H600z"/><path fill="#e7eae5" d="M700 400h100v100H700z"/><path fill="#ebeceb" d="M0 500h100v100H0z"/><path fill="#e6e9e8" d="M100 500h100v100H100z"/><path fill="#e1dcd8" d="M200 500h100v100H200z"/><path fill="#e8e0d7" d="M300 500h100v100H300z"/><path fill="#e0dad1" d="M400 500h100v100H400z"/><path fill="#dedcd7" d="M500 500h100v100H500z"/><path fill="#dad8d5" d="M600 500h100v100H600z"/><path fill="#dee0db" d="M700 500h100v100H700z"/><path fill="#e4e4e4" d="M0 600h100v100H0z"/><path fill="#dfe0df" d="M100 600h100v100H100z"/><path fill="#e8ebeb" d="M200 600h100v100H200z"/><path fill="#e3e7e8" d="M300 600h100v100H300z"/><path fill="#dee1e2" d="M400 600h100v100H400z"/><path fill="#e2e5e5" d="M500 600h100v100H500z"/><path fill="#e6e6e5" d="M600 600h100v100H600z"/><path fill="#eaeae6" d="M700 600h100v100H700z"/><path fill="#e5e4e4" d="M0 700h100v100H0z"/><path fill="#e5e7e6" d="M100 700h100v100H100z"/><path fill="#e6e8e6" d="M200 700h100v100H200z"/><path fill="#e3e5e4" d="M300 700h100v100H300z"/><path fill="#e1e3e2" d="M400 700h100v100H400z"/><path fill="#e4e6e5" d="M500 700h100v100H500z"/><path fill="#e6e7e5" d="M600 700h100v100H600z"/><path fill="#e6e5e1" d="M700 700h100v100H700z"/></svg>