<svg xmlns="http://www.w3.org/2000/svg" viewBox="0 0 800 1400"><defs/><path d="M0 0h100v100H0zm100 0h100v100H100zm100 0h100v100H200zm100 0h100v100H300zm100 0h100v100H400zm100 0h100v100H500zm100 0h100v100H600zm100 0h100v100H700z"/><path fill="#010101" d="M0 100h100v100H0z"/><path d="M100 100h100v100H100z"/><path fill="#0c0c0c" d="M200 100h100v100H200z"/><path fill="#393939" d="M300 100h100v100H300z"/><path fill="#151515" d="M400 100h100v100H400z"/><path d="M500 100h100v100H500z"/><path fill="#010101" d="M600 100h100v100H600z"/><path d="M700 100h100v100H700zM0 200h100v100H0z"/><path fill="#050505" d="M100 200h100v100H100z"/><path fill="#0c0c0c" d="M200 200h100v100H200z"/><path fill="#212121" d="M300 200h100v100H300z"/><path fill="#0f1010" d="M400 200h100v100H400z"/><path fill="#020202" d="M500 200h100v100H500z"/><path fill="#090909" d="M600 200h100v100H600z"/><path fill="#050505" d="M700 200h100v100H700z"/><path fill="#c1bebe" d="M0 300h100v100H0z"/><path fill="#6f6a6a" d="M100 300h100v100H100z"/><path fill="#564f53" d="M200 300h100v100H200z"/><path fill="#857f7e" d="M300 300h100v100H300z"/><path fill="#95908e" d="M400 300h100v100H400z"/><path fill="#6f6d6b" d="M500 300h100v100H500z"/><path fill="#615856" d="M600 300h100v100H600z"/><path fill="#8e8a88" d="M700 300h100v100H700z"/><path fill="#f2eceb" d="M0 400h100v100H0z"/><path fill="#4c444a" d="M100 400h100v100H100z"/><path fill="#725b55" d="M200 400h100v100H200z"/><path fill="#7a7172" d="M300 400h100v100H300z"/><path fill="#bbb4b1" d="M400 400h100v100H400z"/><path fill="#848987" d="M500 400h100v100H500z"/><path fill="#776b6a" d="M600 400h100v100H600z"/><path fill="#817371" d="M700 400h100v100H700z"/><path fill="#f1f0f1" d="M0 500h100v100H0z"/><path fill="#88878b" d="M100 500h100v100H100z"/><path fill="#56443d" d="M200 500h100v100H200z"/><path fill="#5f5758" d="M300 500h100v100H300z"/><path fill="#b5adaa" d="M400 500h100v100H400z"/><path fill="#969e9e" d="M500 500h100v100H500z"/><path fill="#8a8f91" d="M600 500h100v100H600z"/><path fill="#735f5f" d="M700 500h100v100H700z"/><path fill="#dedddc" d="M0 600h100v100H0z"/><path fill="#b9b3ad" d="M100 600h100v100H100z"/><path fill="#8f857e" d="M200 600h100v100H200z"/><path fill="#aaa099" d="M300 600h100v100H300z"/><path fill="#bab2af" d="M400 600h100v100H400z"/><path fill="#a6a0a4" d="M500 600h100v100H500z"/><path fill="#999297" d="M600 600h100v100H600z"/><path fill="#745a5a" d="M700 600h100v100H700z"/><path fill="#f9f8f8" d="M0 700h100v100H0z"/><path fill="#eeecea" d="M100 700h100v100H100z"/><path fill="#d6d4d3" d="M200 700h100v100H200z"/><path fill="#cac6c4" d="M300 700h100v100H300z"/><path fill="#edecea" d="M400 700h100v100H400z"/><path fill="#b2ada9" d="M500 700h100v100H500z"/><path fill="#c4c1c0" d="M600 700h100v100H600z"/><path fill="#f4f1f1" d="M700 700h100v100H700z"/><path fill="#dfdfda" d="M0 800h100v100H0z"/><path fill="#c8c8c2" d="M100 800h100v100H100z"/><path fill="#c0beba" d="M200 800h100v100H200z"/><path fill="#e0e4ea" d="M300 800h100v100H300z"/><path fill="#d9d2d0" d="M400 800h100v100H400z"/><path fill="#6c3e1b" d="M500 800h100v100H500z"/><path fill="#8f847d" d="M600 800h100v100H600z"/><path fill="#fff" d="M700 800h100v100H700z"/><path fill="#c8c7bf" d="M0 900h100v100H0z"/><path fill="#b3b1ab" d="M100 900h100v100H100z"/><path fill="#c7c7bc" d="M200 900h100v100H200z"/><path fill="#ddbe8b" d="M300 900h100v100H300z"/><path fill="#cc924c" d="M400 900h100v100H400z"/><path fill="#b26d21" d="M500 900h100v100H500z"/><path fill="#d5b892" d="M600 900h100v100H600z"/><path fill="#fff" d="M700 900h100v100H700z"/><path fill="#f8f7f5" d="M0 1000h100v100H0z"/><path fill="#eef2f5" d="M100 1000h100v100H100z"/><path fill="#e4c698" d="M200 1000h100v100H200z"/><path fill="#fcb34b" d="M300 1000h100v100H300z"/><path fill="#ffc260" d="M400 1000h100v100H400z"/><path fill="#dc9e4c" d="M500 1000h100v100H500z"/><path fill="#b29b85" d="M600 1000h100v100H600z"/><path fill="#fff" d="M700 1000h100v100H700z"/><path fill="#252525" d="M0 1100h100v100H0z"/><path fill="#272728" d="M100 1100h100v100H100z"/><path fill="#231e19" d="M200 1100h100v100H200z"/><path fill="#231f19" d="M300 1100h100v100H300zm100 0h100v100H400z"/><path fill="#1c1917" d="M500 1100h100v100H500z"/><path fill="#131519" d="M600 1100h100v100H600z"/><path fill="#222223" d="M700 1100h100v100H700z"/><path d="M0 1200h100v100H0zm100 0h100v100H100zm100 0h100v100H200zm100 0h100v100H300zm100 0h100v100H400zm100 0h100v100H500zm100 0h100v100H600zm100 0h100v100H700zM0 1300h100v100H0zm100 0h100v100H100zm100 0h100v100H200zm100 0h100v100H300zm100 0h100v100H400zm100 0h100v100H500zm100 0h100v100H600zm100 0h100v100H700z"/></svg>