<svg xmlns="http://www.w3.org/2000/svg" viewBox="0 0 800 800"><defs/><path fill="#a8b5b9" d="M0 0h100v100H0z"/><path fill="#978886" d="M100 0h100v100H100z"/><path fill="#987e7c" d="M200 0h100v100H200z"/><path fill="#aea6a8" d="M300 0h100v100H300z"/><path fill="#9e979a" d="M400 0h100v100H400z"/><path fill="#948a8d" d="M500 0h100v100H500z"/><path fill="#908a8c" d="M600 0h100v100H600z"/><path fill="#7f7f81" d="M700 0h100v100H700z"/><path fill="#e0e2de" d="M0 100h100v100H0z"/><path fill="#e1c9c6" d="M100 100h100v100H100z"/><path fill="#ceb5b1" d="M200 100h100v100H200z"/><path fill="#b7b9b3" d="M300 100h100v100H300z"/><path fill="#b3b0a9" d="M400 100h100v100H400z"/><path fill="#ba9993" d="M500 100h100v100H500z"/><path fill="#ac8580" d="M600 100h100v100H600z"/><path fill="#946962" d="M700 100h100v100H700z"/><path fill="#eae4e0" d="M0 200h100v100H0z"/><path fill="#b9d1cc" d="M100 200h100v100H100z"/><path fill="#596e6c" d="M200 200h100v100H200z"/><path fill="#8b9694" d="M300 200h100v100H300z"/><path fill="#a1ada9" d="M400 200h100v100H400z"/><path fill="#8b9d9c" d="M500 200h100v100H500z"/><path fill="#7098a3" d="M600 200h100v100H600z"/><path fill="#b19290" d="M700 200h100v100H700z"/><path fill="#d3dad6" d="M0 300h100v100H0z"/><path fill="#317c75" d="M100 300h100v100H100z"/><path fill="#5c716f" d="M200 300h100v100H200z"/><path fill="#79666a" d="M300 300h100v100H300z"/><path fill="#674c4d" d="M400 300h100v100H400z"/><path fill="#a1827c" d="M500 300h100v100H500z"/><path fill="#1a7375" d="M600 300h100v100H600z"/><path fill="#b0918e" d="M700 300h100v100H700z"/><path fill="#c3c6c1" d="M0 400h100v100H0z"/><path fill="#739fa2" d="M100 400h100v100H100z"/><path fill="#776e70" d="M200 400h100v100H200z"/><path fill="#573534" d="M300 400h100v100H300z"/><path fill="#463534" d="M400 400h100v100H400z"/><path fill="#a1756d" d="M500 400h100v100H500z"/><path fill="#2b3b39" d="M600 400h100v100H600z"/><path fill="#a87772" d="M700 400h100v100H700z"/><path fill="#eff5ef" d="M0 500h100v100H0z"/><path fill="#e5cfce" d="M100 500h100v100H100z"/><path fill="#cb7f7c" d="M200 500h100v100H200z"/><path fill="#9c6f70" d="M300 500h100v100H300z"/><path fill="#4b3843" d="M400 500h100v100H400z"/><path fill="#d9958e" d="M500 500h100v100H500z"/><path fill="#a87671" d="M600 500h100v100H600z"/><path fill="#b5817a" d="M700 500h100v100H700z"/><path fill="#f1e4e0" d="M0 600h100v100H0z"/><path fill="#d7918d" d="M100 600h100v100H100z"/><path fill="#d88984" d="M200 600h100v100H200z"/><path fill="#9d6f70" d="M300 600h100v100H300z"/><path fill="#81575a" d="M400 600h100v100H400z"/><path fill="#d79692" d="M500 600h100v100H500z"/><path fill="#e6a8a2" d="M600 600h100v100H600z"/><path fill="#e8aca1" d="M700 600h100v100H700z"/><path fill="#e7d9da" d="M0 700h100v100H0z"/><path fill="#d9c9c8" d="M100 700h100v100H100z"/><path fill="#dacdcc" d="M200 700h100v100H200z"/><path fill="#d5cac9" d="M300 700h100v100H300z"/><path fill="#e8d9d8" d="M400 700h100v100H400z"/><path fill="#dfd2d2" d="M500 700h100v100H500z"/><path fill="#d3c9c8" d="M600 700h100v100H600z"/><path fill="#e7dcdb" d="M700 700h100v100H700z"/></svg>