<svg xmlns="http://www.w3.org/2000/svg" viewBox="0 0 800 600"><defs/><path fill="#c18e85" d="M0 0h100v100H0z"/><path fill="#c1958e" d="M100 0h100v100H100z"/><path fill="#c2978f" d="M200 0h100v100H200z"/><path fill="#c39890" d="M300 0h100v100H300z"/><path fill="#c69c94" d="M400 0h100v100H400z"/><path fill="#ba9487" d="M500 0h100v100H500z"/><path fill="#ac877a" d="M600 0h100v100H600z"/><path fill="#b38d80" d="M700 0h100v100H700z"/><path fill="#b5b3b6" d="M0 100h100v100H0z"/><path fill="#8fbed1" d="M100 100h100v100H100z"/><path fill="#92bacd" d="M200 100h100v100H200z"/><path fill="#9bbece" d="M300 100h100v100H300z"/><path fill="#bad3dd" d="M400 100h100v100H400z"/><path fill="#a3c5b6" d="M500 100h100v100H500z"/><path fill="#637a65" d="M600 100h100v100H600z"/><path fill="#695c49" d="M700 100h100v100H700z"/><path fill="#b2b3b7" d="M0 200h100v100H0z"/><path fill="#8abcd2" d="M100 200h100v100H100z"/><path fill="#8cb9ca" d="M200 200h100v100H200z"/><path fill="#95bcce" d="M300 200h100v100H300z"/><path fill="#a1b7c3" d="M400 200h100v100H400z"/><path fill="#a6bcc9" d="M500 200h100v100H500z"/><path fill="#a3acac" d="M600 200h100v100H600z"/><path fill="#745a50" d="M700 200h100v100H700z"/><path fill="#b0b0b4" d="M0 300h100v100H0z"/><path fill="#7fb0bc" d="M100 300h100v100H100z"/><path fill="#8bb9c8" d="M200 300h100v100H200z"/><path fill="#91b8ca" d="M300 300h100v100H300z"/><path fill="#b2a8a7" d="M400 300h100v100H400z"/><path fill="#a9b0b7" d="M500 300h100v100H500z"/><path fill="#b6938c" d="M600 300h100v100H600z"/><path fill="#66514c" d="M700 300h100v100H700z"/><path fill="#b5877e" d="M0 400h100v100H0z"/><path fill="#ab8b84" d="M100 400h100v100H100z"/><path fill="#bca09d" d="M200 400h100v100H200z"/><path fill="#c2a5a1" d="M300 400h100v100H300z"/><path fill="#b38e87" d="M400 400h100v100H400z"/><path fill="#cba39b" d="M500 400h100v100H500z"/><path fill="#c99387" d="M600 400h100v100H600z"/><path fill="#976c64" d="M700 400h100v100H700z"/><path fill="#b67365" d="M0 500h100v100H0z"/><path fill="#c27e72" d="M100 500h100v100H100z"/><path fill="#ca8c7e" d="M200 500h100v100H200z"/><path fill="#d09689" d="M300 500h100v100H300z"/><path fill="#c18e82" d="M400 500h100v100H400z"/><path fill="#ca9184" d="M500 500h100v100H500z"/><path fill="#cc9286" d="M600 500h100v100H600z"/><path fill="#c17e71" d="M700 500h100v100H700z"/></svg>