<svg xmlns="http://www.w3.org/2000/svg" viewBox="0 0 800 600"><defs/><path fill="#6b727e" d="M0 0h100v100H0z"/><path fill="#72716f" d="M100 0h100v100H100z"/><path fill="#747563" d="M200 0h100v100H200z"/><path fill="#7d8a9a" d="M300 0h100v100H300z"/><path fill="#929bab" d="M400 0h100v100H400z"/><path fill="#92a7ba" d="M500 0h100v100H500z"/><path fill="#9ea7b3" d="M600 0h100v100H600z"/><path fill="#9fa2ac" d="M700 0h100v100H700z"/><path fill="#99b3cd" d="M0 100h100v100H0z"/><path fill="#9ca189" d="M100 100h100v100H100z"/><path fill="#9bad89" d="M200 100h100v100H200z"/><path fill="#9dafd3" d="M300 100h100v100H300z"/><path fill="#93a3a8" d="M400 100h100v100H400z"/><path fill="#95bedc" d="M500 100h100v100H500z"/><path fill="#adb3be" d="M600 100h100v100H600z"/><path fill="#a2a2aa" d="M700 100h100v100H700z"/><path fill="#a6bbcb" d="M0 200h100v100H0z"/><path fill="#a1a36b" d="M100 200h100v100H100z"/><path fill="#90a292" d="M200 200h100v100H200z"/><path fill="#7aa2b7" d="M300 200h100v100H300z"/><path fill="#7d96a3" d="M400 200h100v100H400z"/><path fill="#7c9faf" d="M500 200h100v100H500z"/><path fill="#b2b8c0" d="M600 200h100v100H600z"/><path fill="#b2b2ba" d="M700 200h100v100H700z"/><path fill="#9db5c7" d="M0 300h100v100H0z"/><path fill="#92935f" d="M100 300h100v100H100z"/><path fill="#969b94" d="M200 300h100v100H200z"/><path fill="#87928e" d="M300 300h100v100H300z"/><path fill="#747f81" d="M400 300h100v100H400z"/><path fill="#8e9e9a" d="M500 300h100v100H500z"/><path fill="#a2a7b3" d="M600 300h100v100H600z"/><path fill="#8aa1b4" d="M700 300h100v100H700z"/><path fill="#9fac9d" d="M0 400h100v100H0z"/><path fill="#9a944c" d="M100 400h100v100H100z"/><path fill="#787661" d="M200 400h100v100H200z"/><path fill="#5c8d9c" d="M300 400h100v100H300z"/><path fill="#429bc9" d="M400 400h100v100H400z"/><path fill="#858a76" d="M500 400h100v100H500z"/><path fill="#78727e" d="M600 400h100v100H600z"/><path fill="#919bb1" d="M700 400h100v100H700z"/><path fill="#a7afaa" d="M0 500h100v100H0z"/><path fill="#9c9c84" d="M100 500h100v100H100z"/><path fill="#91948c" d="M200 500h100v100H200z"/><path fill="#94a7a4" d="M300 500h100v100H300z"/><path fill="#819ca7" d="M400 500h100v100H400z"/><path fill="#878f84" d="M500 500h100v100H500z"/><path fill="#858978" d="M600 500h100v100H600z"/><path fill="#919998" d="M700 500h100v100H700z"/></svg>