<svg xmlns="http://www.w3.org/2000/svg" viewBox="0 0 800 500"><defs/><path fill="#efe5e9" d="M0 0h100v100H0z"/><path fill="#e3d9e0" d="M100 0h100v100H100z"/><path fill="#e9d4d5" d="M200 0h100v100H200z"/><path fill="#f4dbdb" d="M300 0h100v100H300z"/><path fill="#f1e2e5" d="M400 0h100v100H400z"/><path fill="#e1d2d6" d="M500 0h100v100H500z"/><path fill="#e4cdd2" d="M600 0h100v100H600z"/><path fill="#eae2e6" d="M700 0h100v100H700z"/><path fill="#c2a4b1" d="M0 100h100v100H0z"/><path fill="#947890" d="M100 100h100v100H100z"/><path fill="#ab6c7a" d="M200 100h100v100H200z"/><path fill="#be858f" d="M300 100h100v100H300z"/><path fill="#bb8a96" d="M400 100h100v100H400z"/><path fill="#b36f7a" d="M500 100h100v100H500z"/><path fill="#aa5963" d="M600 100h100v100H600z"/><path fill="#c4898f" d="M700 100h100v100H700z"/><path fill="#c4b1bd" d="M0 200h100v100H0z"/><path fill="#9a829a" d="M100 200h100v100H100z"/><path fill="#be9cae" d="M200 200h100v100H200z"/><path fill="#bc8e9c" d="M300 200h100v100H300z"/><path fill="#b1a0b3" d="M400 200h100v100H400z"/><path fill="#9d99b3" d="M500 200h100v100H500z"/><path fill="#a58ea6" d="M600 200h100v100H600z"/><path fill="#b997a5" d="M700 200h100v100H700z"/><path fill="#99a0b9" d="M0 300h100v100H0z"/><path fill="#7d7696" d="M100 300h100v100H100z"/><path fill="#796078" d="M200 300h100v100H200z"/><path fill="#6d5a75" d="M300 300h100v100H300z"/><path fill="#404b73" d="M400 300h100v100H400z"/><path fill="#5e79b0" d="M500 300h100v100H500z"/><path fill="#677eb4" d="M600 300h100v100H600z"/><path fill="#8e87a3" d="M700 300h100v100H700z"/><path fill="#ced6e3" d="M0 400h100v100H0z"/><path fill="#bac0d3" d="M100 400h100v100H100z"/><path fill="#d2b6bd" d="M200 400h100v100H200z"/><path fill="#c7b6bf" d="M300 400h100v100H300z"/><path fill="#a39faf" d="M400 400h100v100H400z"/><path fill="#d0a3a6" d="M500 400h100v100H500z"/><path fill="#ddaaab" d="M600 400h100v100H600z"/><path fill="#d1c0c6" d="M700 400h100v100H700z"/></svg>