<svg xmlns="http://www.w3.org/2000/svg" viewBox="0 0 800 500"><defs/><path fill="#b2c7bd" d="M0 0h100v100H0z"/><path fill="#5d6057" d="M100 0h100v100H100z"/><path fill="#56644a" d="M200 0h100v100H200z"/><path fill="#83958a" d="M300 0h100v100H300z"/><path fill="#b4d2d0" d="M400 0h100v100H400z"/><path fill="#9bbdb5" d="M500 0h100v100H500z"/><path fill="#83948b" d="M600 0h100v100H600z"/><path fill="#8c9c8f" d="M700 0h100v100H700z"/><path fill="#9fb6aa" d="M0 100h100v100H0z"/><path fill="#292d23" d="M100 100h100v100H100z"/><path fill="#385632" d="M200 100h100v100H200z"/><path fill="#68796c" d="M300 100h100v100H300z"/><path fill="#78737b" d="M400 100h100v100H400z"/><path fill="#595553" d="M500 100h100v100H500z"/><path fill="#72887a" d="M600 100h100v100H600z"/><path fill="#85a695" d="M700 100h100v100H700z"/><path fill="#94a59a" d="M0 200h100v100H0z"/><path fill="#373126" d="M100 200h100v100H100z"/><path fill="#3c4d38" d="M200 200h100v100H200z"/><path fill="#676f64" d="M300 200h100v100H300z"/><path fill="#5c3f42" d="M400 200h100v100H400z"/><path fill="#5d3f3e" d="M500 200h100v100H500z"/><path fill="#635a5b" d="M600 200h100v100H600z"/><path fill="#747278" d="M700 200h100v100H700z"/><path fill="#84897f" d="M0 300h100v100H0z"/><path fill="#311b14" d="M100 300h100v100H100z"/><path fill="#2a2e23" d="M200 300h100v100H200z"/><path fill="#362b23" d="M300 300h100v100H300z"/><path fill="#261f1f" d="M400 300h100v100H400z"/><path fill="#342620" d="M500 300h100v100H500z"/><path fill="#361915" d="M600 300h100v100H600z"/><path fill="#645e62" d="M700 300h100v100H700z"/><path fill="#756a65" d="M0 400h100v100H0z"/><path fill="#38241d" d="M100 400h100v100H100z"/><path fill="#273d30" d="M200 400h100v100H200z"/><path fill="#37332b" d="M300 400h100v100H300z"/><path fill="#372c2b" d="M400 400h100v100H400z"/><path fill="#362d29" d="M500 400h100v100H500z"/><path fill="#2d2621" d="M600 400h100v100H600z"/><path fill="#423e39" d="M700 400h100v100H700z"/></svg>