<svg xmlns="http://www.w3.org/2000/svg" viewBox="0 0 800 400"><defs/><path fill="#4f75a1" d="M0 0h100v100H0z"/><path fill="#2a5f97" d="M100 0h100v100H100z"/><path fill="#5273a8" d="M200 0h100v100H200z"/><path fill="#43546f" d="M300 0h100v100H300z"/><path fill="#3e4b60" d="M400 0h100v100H400z"/><path fill="#4c5b75" d="M500 0h100v100H500z"/><path fill="#5679af" d="M600 0h100v100H600z"/><path fill="#698ab1" d="M700 0h100v100H700z"/><path fill="#2e5d92" d="M0 100h100v100H0z"/><path fill="#0c4380" d="M100 100h100v100H100z"/><path fill="#4a5f80" d="M200 100h100v100H200z"/><path fill="#30528a" d="M300 100h100v100H300z"/><path fill="#224c8a" d="M400 100h100v100H400z"/><path fill="#2e61a5" d="M500 100h100v100H500z"/><path fill="#0d3976" d="M600 100h100v100H600z"/><path fill="#40648f" d="M700 100h100v100H700z"/><path fill="#2d5e93" d="M0 200h100v100H0z"/><path fill="#1f538d" d="M100 200h100v100H100z"/><path fill="#8896a8" d="M200 200h100v100H200z"/><path fill="#3566a2" d="M300 200h100v100H300z"/><path fill="#3b4a73" d="M400 200h100v100H400z"/><path fill="#583950" d="M500 200h100v100H500z"/><path fill="#4a333a" d="M600 200h100v100H600z"/><path fill="#425469" d="M700 200h100v100H700z"/><path fill="#4a75a3" d="M0 300h100v100H0z"/><path fill="#1d5ea1" d="M100 300h100v100H100z"/><path fill="#1e65af" d="M200 300h100v100H200z"/><path fill="#53617b" d="M300 300h100v100H300z"/><path fill="#89655f" d="M400 300h100v100H400z"/><path fill="#8b5f61" d="M500 300h100v100H500z"/><path fill="#6a5d65" d="M600 300h100v100H600z"/><path fill="#586a81" d="M700 300h100v100H700z"/></svg>