<svg xmlns="http://www.w3.org/2000/svg" viewBox="0 0 800 500"><defs/><path fill="#e3d6d1" d="M0 0h100v100H0z"/><path fill="#b2a7a0" d="M100 0h100v100H100z"/><path fill="#dbccc6" d="M200 0h100v100H200z"/><path fill="#f2e1db" d="M300 0h100v100H300z"/><path fill="#f0dfd9" d="M400 0h100v100H400z"/><path fill="#eedcd5" d="M500 0h100v100H500z"/><path fill="#efe0da" d="M600 0h100v100H600z"/><path fill="#eadcd7" d="M700 0h100v100H700z"/><path fill="#d8c2b8" d="M0 100h100v100H0z"/><path fill="#806c5f" d="M100 100h100v100H100z"/><path fill="#dabdb2" d="M200 100h100v100H200z"/><path fill="#d2b5aa" d="M300 100h100v100H300z"/><path fill="#beaba6" d="M400 100h100v100H400z"/><path fill="#c5bfbe" d="M500 100h100v100H500z"/><path fill="#ccb7ae" d="M600 100h100v100H600z"/><path fill="#cdb7ae" d="M700 100h100v100H700z"/><path fill="#c3b2a9" d="M0 200h100v100H0z"/><path fill="#8e7c6f" d="M100 200h100v100H100z"/><path fill="#e6ccc3" d="M200 200h100v100H200z"/><path fill="#796d69" d="M300 200h100v100H300z"/><path fill="#726b6a" d="M400 200h100v100H400z"/><path fill="#c8c2c3" d="M500 200h100v100H500z"/><path fill="#9a8a87" d="M600 200h100v100H600z"/><path fill="#b0a19d" d="M700 200h100v100H700z"/><path fill="#a4948a" d="M0 300h100v100H0z"/><path fill="#756961" d="M100 300h100v100H100z"/><path fill="#beb3a8" d="M200 300h100v100H200z"/><path fill="#968f8c" d="M300 300h100v100H300z"/><path fill="#928a82" d="M400 300h100v100H400z"/><path fill="#bea998" d="M500 300h100v100H500z"/><path fill="#a28f8d" d="M600 300h100v100H600z"/><path fill="#b1968f" d="M700 300h100v100H700z"/><path fill="#aca29a" d="M0 400h100v100H0z"/><path fill="#897f74" d="M100 400h100v100H100z"/><path fill="#a99e8f" d="M200 400h100v100H200z"/><path fill="#a99f93" d="M300 400h100v100H300z"/><path fill="#aba092" d="M400 400h100v100H400z"/><path fill="#b0a493" d="M500 400h100v100H500z"/><path fill="#b9ada2" d="M600 400h100v100H600z"/><path fill="#a99c92" d="M700 400h100v100H700z"/></svg>