<svg xmlns="http://www.w3.org/2000/svg" viewBox="0 0 800 500"><defs/><path fill="#d6d9e3" d="M0 0h100v100H0z"/><path fill="#d6d9e2" d="M100 0h100v100H100z"/><path fill="#d6d9db" d="M200 0h100v100H200z"/><path fill="#decad3" d="M300 0h100v100H300z"/><path fill="#c4cad9" d="M400 0h100v100H400z"/><path fill="#77a3bf" d="M500 0h100v100H500z"/><path fill="#b4bdc8" d="M600 0h100v100H600z"/><path fill="#c2c8ce" d="M700 0h100v100H700z"/><path fill="#d0d4dd" d="M0 100h100v100H0z"/><path fill="#cfd5db" d="M100 100h100v100H100z"/><path fill="#d9dad7" d="M200 100h100v100H200z"/><path fill="#6b6f6c" d="M300 100h100v100H300z"/><path fill="#415d60" d="M400 100h100v100H400z"/><path fill="#32647f" d="M500 100h100v100H500z"/><path fill="#a8b0b9" d="M600 100h100v100H600z"/><path fill="#acb3b1" d="M700 100h100v100H700z"/><path fill="#ced6de" d="M0 200h100v100H0z"/><path fill="#b2cdd3" d="M100 200h100v100H100z"/><path fill="#9ba8ad" d="M200 200h100v100H200z"/><path fill="#6d8a80" d="M300 200h100v100H300z"/><path fill="#638471" d="M400 200h100v100H400z"/><path fill="#adb1a6" d="M500 200h100v100H500z"/><path fill="#abb6a0" d="M600 200h100v100H600z"/><path fill="#adb9bc" d="M700 200h100v100H700z"/><path fill="#d3bdc7" d="M0 300h100v100H0z"/><path fill="#8d9da5" d="M100 300h100v100H100z"/><path fill="#9499a0" d="M200 300h100v100H200z"/><path fill="#9b989d" d="M300 300h100v100H300z"/><path fill="#b9c2c0" d="M400 300h100v100H400z"/><path fill="#799d9a" d="M500 300h100v100H500z"/><path fill="#4a7a69" d="M600 300h100v100H600z"/><path fill="#759698" d="M700 300h100v100H700z"/><path fill="#d5cad4" d="M0 400h100v100H0z"/><path fill="#b6bbc4" d="M100 400h100v100H100z"/><path fill="#9eb1b6" d="M200 400h100v100H200z"/><path fill="#8d96a2" d="M300 400h100v100H300z"/><path fill="#a2b5bc" d="M400 400h100v100H400z"/><path fill="#7b9fa2" d="M500 400h100v100H500z"/><path fill="#7a9ea0" d="M600 400h100v100H600z"/><path fill="#9fafb6" d="M700 400h100v100H700z"/></svg>