<svg xmlns="http://www.w3.org/2000/svg" viewBox="0 0 800 400"><defs/><path fill="#ece2cf" d="M0 0h100v100H0z"/><path fill="#c29e89" d="M100 0h100v100H100z"/><path fill="#adbfc6" d="M200 0h100v100H200z"/><path fill="#b1cfdd" d="M300 0h100v100H300z"/><path fill="#cedee5" d="M400 0h100v100H400z"/><path fill="#d9e5ea" d="M500 0h100v100H500z"/><path fill="#d4dbdd" d="M600 0h100v100H600z"/><path fill="#e4e0d2" d="M700 0h100v100H700z"/><path fill="#e4d2bc" d="M0 100h100v100H0z"/><path fill="#c4a894" d="M100 100h100v100H100z"/><path fill="#8eb6c3" d="M200 100h100v100H200z"/><path fill="#47a3d6" d="M300 100h100v100H300z"/><path fill="#63a6cd" d="M400 100h100v100H400z"/><path fill="#72b8dd" d="M500 100h100v100H500z"/><path fill="#90bbd3" d="M600 100h100v100H600z"/><path fill="#d8ccbd" d="M700 100h100v100H700z"/><path fill="#cfb6a2" d="M0 200h100v100H0z"/><path fill="#b5988b" d="M100 200h100v100H100z"/><path fill="#b7b29d" d="M200 200h100v100H200z"/><path fill="#9caa97" d="M300 200h100v100H300z"/><path fill="#77898e" d="M400 200h100v100H400z"/><path fill="#82968f" d="M500 200h100v100H500z"/><path fill="#aba38f" d="M600 200h100v100H600z"/><path fill="#c19c91" d="M700 200h100v100H700z"/><path fill="#cdaf97" d="M0 300h100v100H0z"/><path fill="#c09c89" d="M100 300h100v100H100z"/><path fill="#c7a379" d="M200 300h100v100H200z"/><path fill="#e4b24d" d="M300 300h100v100H300z"/><path fill="#d3af5c" d="M400 300h100v100H400z"/><path fill="#cea960" d="M500 300h100v100H500z"/><path fill="#b99264" d="M600 300h100v100H600z"/><path fill="#b6998b" d="M700 300h100v100H700z"/></svg>