<svg xmlns="http://www.w3.org/2000/svg" viewBox="0 0 800 500"><defs/><path fill="#e7e0d2" d="M0 0h100v100H0z"/><path fill="#d6d2c8" d="M100 0h100v100H100z"/><path fill="#dcddde" d="M200 0h100v100H200z"/><path fill="#e9f3f6" d="M300 0h100v100H300z"/><path fill="#eff3f5" d="M400 0h100v100H400z"/><path fill="#eef5f6" d="M500 0h100v100H500z"/><path fill="#eef3f4" d="M600 0h100v100H600z"/><path fill="#e5e4dd" d="M700 0h100v100H700z"/><path fill="#b69957" d="M0 100h100v100H0z"/><path fill="#786641" d="M100 100h100v100H100z"/><path fill="#7f8a90" d="M200 100h100v100H200z"/><path fill="#b4d6df" d="M300 100h100v100H300z"/><path fill="#a3c9d2" d="M400 100h100v100H400z"/><path fill="#a6d3de" d="M500 100h100v100H500z"/><path fill="#bed9df" d="M600 100h100v100H600z"/><path fill="#9f8e5c" d="M700 100h100v100H700z"/><path fill="#a99560" d="M0 200h100v100H0z"/><path fill="#706c50" d="M100 200h100v100H100z"/><path fill="#5e7e83" d="M200 200h100v100H200z"/><path fill="#357781" d="M300 200h100v100H300z"/><path fill="#7496a2" d="M400 200h100v100H400z"/><path fill="#6298a7" d="M500 200h100v100H500z"/><path fill="#487173" d="M600 200h100v100H600z"/><path fill="#a18650" d="M700 200h100v100H700z"/><path fill="#8e8059" d="M0 300h100v100H0z"/><path fill="#6c655e" d="M100 300h100v100H100z"/><path fill="#8c8081" d="M200 300h100v100H200z"/><path fill="#909a8a" d="M300 300h100v100H300z"/><path fill="#907981" d="M400 300h100v100H400z"/><path fill="#a89793" d="M500 300h100v100H500z"/><path fill="#a0a19c" d="M600 300h100v100H600z"/><path fill="#867348" d="M700 300h100v100H700z"/><path fill="#bfbcb1" d="M0 400h100v100H0z"/><path fill="#c3babf" d="M100 400h100v100H100z"/><path fill="#d6d0d7" d="M200 400h100v100H200z"/><path fill="#dbdada" d="M300 400h100v100H300z"/><path fill="#b8b4b2" d="M400 400h100v100H400z"/><path fill="#d7c9bd" d="M500 400h100v100H500z"/><path fill="#e0dbd8" d="M600 400h100v100H600z"/><path fill="#b2a9a1" d="M700 400h100v100H700z"/></svg>