<svg xmlns="http://www.w3.org/2000/svg" viewBox="0 0 800 600"><defs/><path fill="#f6f6f6" d="M0 0h100v100H0z"/><path fill="#f5f5f5" d="M100 0h100v100H100z"/><path fill="#f7f7f7" d="M200 0h100v100H200z"/><path fill="#f4f4f4" d="M300 0h100v100H300z"/><path fill="#f9f9f9" d="M400 0h100v100H400z"/><path fill="#f0f0f0" d="M500 0h100v100H500z"/><path fill="#f5f5f5" d="M600 0h100v100H600zm100 0h100v100H700z"/><path fill="#848484" d="M0 100h100v100H0z"/><path fill="#2f2f2f" d="M100 100h100v100H100z"/><path fill="#c9c9c9" d="M200 100h100v100H200z"/><path fill="#686868" d="M300 100h100v100H300z"/><path fill="#575757" d="M400 100h100v100H400z"/><path fill="#939393" d="M500 100h100v100H500z"/><path fill="#9e9e9e" d="M600 100h100v100H600z"/><path fill="#585858" d="M700 100h100v100H700z"/><path fill="#7c7c7c" d="M0 200h100v100H0z"/><path fill="#3d3d3d" d="M100 200h100v100H100z"/><path fill="#c7c7c7" d="M200 200h100v100H200z"/><path fill="#676767" d="M300 200h100v100H300z"/><path fill="#979797" d="M400 200h100v100H400z"/><path fill="#a8a8a8" d="M500 200h100v100H500z"/><path fill="#939393" d="M600 200h100v100H600z"/><path fill="#4d4d4d" d="M700 200h100v100H700z"/><path fill="#828282" d="M0 300h100v100H0z"/><path fill="#636363" d="M100 300h100v100H100z"/><path fill="#ccc" d="M200 300h100v100H200z"/><path fill="#707070" d="M300 300h100v100H300z"/><path fill="#909090" d="M400 300h100v100H400z"/><path fill="#9f9f9f" d="M500 300h100v100H500z"/><path fill="#afafaf" d="M600 300h100v100H600z"/><path fill="#535353" d="M700 300h100v100H700z"/><path fill="#848484" d="M0 400h100v100H0z"/><path fill="#7e7e7e" d="M100 400h100v100H100z"/><path fill="#d3d3d3" d="M200 400h100v100H200z"/><path fill="#575757" d="M300 400h100v100H300z"/><path fill="#787878" d="M400 400h100v100H400z"/><path fill="#888" d="M500 400h100v100H500z"/><path fill="#e5e5e5" d="M600 400h100v100H600z"/><path fill="#989898" d="M700 400h100v100H700z"/><path fill="#e3e3e3" d="M0 500h100v100H0zm100 0h100v100H100z"/><path fill="#f4f4f4" d="M200 500h100v100H200z"/><path fill="#ebebeb" d="M300 500h100v100H300z"/><path fill="#f3f3f3" d="M400 500h100v100H400z"/><path fill="#e7e7e7" d="M500 500h100v100H500z"/><path fill="#f9f9f9" d="M600 500h100v100H600z"/><path fill="#f5f5f5" d="M700 500h100v100H700z"/></svg>