<svg xmlns="http://www.w3.org/2000/svg" viewBox="0 0 800 600"><defs/><path fill="#c0c1bc" d="M0 0h100v100H0z"/><path fill="#c6c4c5" d="M100 0h100v100H100z"/><path fill="#b6bbb9" d="M200 0h100v100H200z"/><path fill="#b4bcb6" d="M300 0h100v100H300z"/><path fill="#b5c2c2" d="M400 0h100v100H400z"/><path fill="#bcc0c0" d="M500 0h100v100H500z"/><path fill="#bfb7b3" d="M600 0h100v100H600z"/><path fill="#cdcbcb" d="M700 0h100v100H700z"/><path fill="#93a893" d="M0 100h100v100H0z"/><path fill="#c1c2be" d="M100 100h100v100H100z"/><path fill="#ab9e94" d="M200 100h100v100H200z"/><path fill="#a08f79" d="M300 100h100v100H300z"/><path fill="#9d9788" d="M400 100h100v100H400z"/><path fill="#b2a1a0" d="M500 100h100v100H500z"/><path fill="#b9b1b1" d="M600 100h100v100H600z"/><path fill="#d9dade" d="M700 100h100v100H700z"/><path fill="#59774e" d="M0 200h100v100H0z"/><path fill="#b1b7ac" d="M100 200h100v100H100z"/><path fill="#a28d8d" d="M200 200h100v100H200z"/><path fill="#b48c85" d="M300 200h100v100H300z"/><path fill="#b09188" d="M400 200h100v100H400z"/><path fill="#a08a80" d="M500 200h100v100H500z"/><path fill="#b3ac99" d="M600 200h100v100H600z"/><path fill="#cfced3" d="M700 200h100v100H700z"/><path fill="#858e4c" d="M0 300h100v100H0z"/><path fill="#b1b098" d="M100 300h100v100H100z"/><path fill="#b19f9c" d="M200 300h100v100H200z"/><path fill="#bf907a" d="M300 300h100v100H300z"/><path fill="#b99282" d="M400 300h100v100H400z"/><path fill="#b6a8a4" d="M500 300h100v100H500z"/><path fill="#b8afa3" d="M600 300h100v100H600z"/><path fill="#c0c3cc" d="M700 300h100v100H700z"/><path fill="#939761" d="M0 400h100v100H0z"/><path fill="#c6c2c4" d="M100 400h100v100H100z"/><path fill="#b8afb6" d="M200 400h100v100H200z"/><path fill="#ceb3c4" d="M300 400h100v100H300z"/><path fill="#c4b1c2" d="M400 400h100v100H400z"/><path fill="#ccced8" d="M500 400h100v100H500z"/><path fill="#cbcbd4" d="M600 400h100v100H600z"/><path fill="#bdb4b6" d="M700 400h100v100H700z"/><path fill="#a8a085" d="M0 500h100v100H0z"/><path fill="#cbc4c8" d="M100 500h100v100H100z"/><path fill="#ccc5ce" d="M200 500h100v100H200z"/><path fill="#d0c6d1" d="M300 500h100v100H300z"/><path fill="#cac2cb" d="M400 500h100v100H400z"/><path fill="#c1bbc3" d="M500 500h100v100H500z"/><path fill="#c1bcc5" d="M600 500h100v100H600z"/><path fill="#bcb3cd" d="M700 500h100v100H700z"/></svg>