<svg xmlns="http://www.w3.org/2000/svg" viewBox="0 0 800 400"><defs/><path fill="#efcfe8" d="M0 0h100v100H0z"/><path fill="#a19056" d="M100 0h100v100H100z"/><path fill="#b6c8bb" d="M200 0h100v100H200z"/><path fill="#a7bcc0" d="M300 0h100v100H300z"/><path fill="#a4c2cb" d="M400 0h100v100H400z"/><path fill="#afbec0" d="M500 0h100v100H500z"/><path fill="#a8b0a7" d="M600 0h100v100H600z"/><path fill="#e6c2ec" d="M700 0h100v100H700z"/><path fill="#d9ccd9" d="M0 100h100v100H0z"/><path fill="#8ea179" d="M100 100h100v100H100z"/><path fill="#a2bba9" d="M200 100h100v100H200z"/><path fill="#b6a19d" d="M300 100h100v100H300z"/><path fill="#a2967f" d="M400 100h100v100H400z"/><path fill="#a3b9b1" d="M500 100h100v100H500z"/><path fill="#a39da7" d="M600 100h100v100H600z"/><path fill="#d4b9e0" d="M700 100h100v100H700z"/><path fill="#b592d0" d="M0 200h100v100H0z"/><path fill="#87809a" d="M100 200h100v100H100z"/><path fill="#c3cacc" d="M200 200h100v100H200z"/><path fill="#c1c6b1" d="M300 200h100v100H300z"/><path fill="#d2d4cf" d="M400 200h100v100H400z"/><path fill="#d4ccc3" d="M500 200h100v100H500z"/><path fill="#c19a38" d="M600 200h100v100H600z"/><path fill="#e1a88b" d="M700 200h100v100H700z"/><path fill="#c7789e" d="M0 300h100v100H0z"/><path fill="#cda1af" d="M100 300h100v100H100z"/><path fill="#e7d8be" d="M200 300h100v100H200z"/><path fill="#e4cbb3" d="M300 300h100v100H300z"/><path fill="#e0d3c9" d="M400 300h100v100H400z"/><path fill="#b8bd90" d="M500 300h100v100H500z"/><path fill="#cfb25e" d="M600 300h100v100H600z"/><path fill="#e3af4a" d="M700 300h100v100H700z"/></svg>