<svg xmlns="http://www.w3.org/2000/svg" viewBox="0 0 800 600"><defs/><path fill="#e0eef2" d="M0 0h100v100H0z"/><path fill="#e8e5e5" d="M100 0h100v100H100z"/><path fill="#f4f0ef" d="M200 0h100v100H200z"/><path fill="#f4f5f5" d="M300 0h100v100H300z"/><path fill="#f9f9f9" d="M400 0h100v100H400z"/><path fill="#f5f4f4" d="M500 0h100v100H500z"/><path fill="#f0f1f2" d="M600 0h100v100H600z"/><path fill="#e7eef2" d="M700 0h100v100H700z"/><path fill="#9da9b9" d="M0 100h100v100H0z"/><path fill="#a37f75" d="M100 100h100v100H100z"/><path fill="#9fa7af" d="M200 100h100v100H200z"/><path fill="#b4c4cd" d="M300 100h100v100H300z"/><path fill="#d8dbd3" d="M400 100h100v100H400z"/><path fill="#a9bec8" d="M500 100h100v100H500z"/><path fill="#afc4cf" d="M600 100h100v100H600z"/><path fill="#8ab4c5" d="M700 100h100v100H700z"/><path fill="#8da1ae" d="M0 200h100v100H0z"/><path fill="#b28b7d" d="M100 200h100v100H100z"/><path fill="#869ba9" d="M200 200h100v100H200z"/><path fill="#9ca6af" d="M300 200h100v100H300z"/><path fill="#beb5b1" d="M400 200h100v100H400z"/><path fill="#91aab9" d="M500 200h100v100H500z"/><path fill="#9ea9b6" d="M600 200h100v100H600z"/><path fill="#a5a3ac" d="M700 200h100v100H700z"/><path fill="#8ea1aa" d="M0 300h100v100H0z"/><path fill="#bb7b73" d="M100 300h100v100H100z"/><path fill="#ad8d85" d="M200 300h100v100H200z"/><path fill="#b4a9a5" d="M300 300h100v100H300z"/><path fill="#b2a19d" d="M400 300h100v100H400z"/><path fill="#796965" d="M500 300h100v100H500z"/><path fill="#786862" d="M600 300h100v100H600z"/><path fill="#61758a" d="M700 300h100v100H700z"/><path fill="#aca29d" d="M0 400h100v100H0z"/><path fill="#c27f6c" d="M100 400h100v100H100z"/><path fill="#cfae8d" d="M200 400h100v100H200z"/><path fill="#e1d5c9" d="M300 400h100v100H300z"/><path fill="#ced2d4" d="M400 400h100v100H400z"/><path fill="#c4b8b4" d="M500 400h100v100H500z"/><path fill="#a88b6e" d="M600 400h100v100H600z"/><path fill="#6d7c86" d="M700 400h100v100H700z"/><path fill="#f4ede8" d="M0 500h100v100H0z"/><path fill="#f3e9dd" d="M100 500h100v100H100z"/><path fill="#efe6dc" d="M200 500h100v100H200z"/><path fill="#f7ece2" d="M300 500h100v100H300z"/><path fill="#f2ebe5" d="M400 500h100v100H400z"/><path fill="#f7f0e9" d="M500 500h100v100H500z"/><path fill="#f8e9db" d="M600 500h100v100H600z"/><path fill="#f7eae0" d="M700 500h100v100H700z"/></svg>