<svg xmlns="http://www.w3.org/2000/svg" viewBox="0 0 800 500"><defs/><path fill="#bdc2bd" d="M0 0h100v100H0z"/><path fill="#a1a8a0" d="M100 0h100v100H100z"/><path fill="#bdc8c1" d="M200 0h100v100H200z"/><path fill="#bdc8c2" d="M300 0h100v100H300z"/><path fill="#a8aea6" d="M400 0h100v100H400z"/><path fill="#bac4be" d="M500 0h100v100H500z"/><path fill="#bbc5bf" d="M600 0h100v100H600z"/><path fill="#c5cbc6" d="M700 0h100v100H700z"/><path fill="#b6bdb7" d="M0 100h100v100H0z"/><path fill="#8f958b" d="M100 100h100v100H100z"/><path fill="#949d90" d="M200 100h100v100H200z"/><path fill="#9ba395" d="M300 100h100v100H300z"/><path fill="#9ba499" d="M400 100h100v100H400z"/><path fill="#9da699" d="M500 100h100v100H500z"/><path fill="#9da494" d="M600 100h100v100H600z"/><path fill="#b6beb8" d="M700 100h100v100H700z"/><path fill="#b8beb7" d="M0 200h100v100H0z"/><path fill="#9da295" d="M100 200h100v100H100z"/><path fill="#8a9186" d="M200 200h100v100H200z"/><path fill="#878a7f" d="M300 200h100v100H300z"/><path fill="#93988f" d="M400 200h100v100H400z"/><path fill="#94998e" d="M500 200h100v100H500z"/><path fill="#8a8d7f" d="M600 200h100v100H600z"/><path fill="#b3b9b3" d="M700 200h100v100H700z"/><path fill="#a6aba3" d="M0 300h100v100H0z"/><path fill="#98a199" d="M100 300h100v100H100z"/><path fill="#88938d" d="M200 300h100v100H200z"/><path fill="#a4ada3" d="M300 300h100v100H300z"/><path fill="#a7aea3" d="M400 300h100v100H400z"/><path fill="#939991" d="M500 300h100v100H500z"/><path fill="#95a096" d="M600 300h100v100H600z"/><path fill="#a7aea6" d="M700 300h100v100H700z"/><path fill="#e4e5e2" d="M0 400h100v100H0z"/><path fill="#e8ebe9" d="M100 400h100v100H100z"/><path fill="#eaecea" d="M200 400h100v100H200z"/><path fill="#e8ebe9" d="M300 400h100v100H300z"/><path fill="#e9eceb" d="M400 400h100v100H400z"/><path fill="#e1e3e1" d="M500 400h100v100H500z"/><path fill="#e3e5e4" d="M600 400h100v100H600z"/><path fill="#e7e8e7" d="M700 400h100v100H700z"/></svg>