<svg xmlns="http://www.w3.org/2000/svg" viewBox="0 0 800 400"><defs/><path fill="#e7e9ed" d="M0 0h100v100H0z"/><path fill="#7e91d5" d="M100 0h100v100H100z"/><path fill="#8c9edb" d="M200 0h100v100H200z"/><path fill="#83abdf" d="M300 0h100v100H300z"/><path fill="#7fc0d0" d="M400 0h100v100H400z"/><path fill="#8eb6cb" d="M500 0h100v100H500z"/><path fill="#8397d4" d="M600 0h100v100H600z"/><path fill="#73cad2" d="M700 0h100v100H700z"/><path fill="#d9ddec" d="M0 100h100v100H0z"/><path fill="#5d76da" d="M100 100h100v100H100z"/><path fill="#7797e1" d="M200 100h100v100H200z"/><path fill="#8891ae" d="M300 100h100v100H300z"/><path fill="#8cc5b9" d="M400 100h100v100H400z"/><path fill="#89bdce" d="M500 100h100v100H500z"/><path fill="#798fe2" d="M600 100h100v100H600z"/><path fill="#61c8d2" d="M700 100h100v100H700z"/><path fill="#a9b4dd" d="M0 200h100v100H0z"/><path fill="#778cd8" d="M100 200h100v100H100z"/><path fill="#9cb1df" d="M200 200h100v100H200z"/><path fill="#93a8b2" d="M300 200h100v100H300z"/><path fill="#b9c9c2" d="M400 200h100v100H400z"/><path fill="#a6b7de" d="M500 200h100v100H500z"/><path fill="#cdcaae" d="M600 200h100v100H600z"/><path fill="#aae599" d="M700 200h100v100H700z"/><path fill="#9ca9dc" d="M0 300h100v100H0z"/><path fill="#c7cee5" d="M100 300h100v100H100z"/><path fill="#dee7db" d="M200 300h100v100H200z"/><path fill="#b9d1c3" d="M300 300h100v100H300z"/><path fill="#dbdcd8" d="M400 300h100v100H400z"/><path fill="#d5e3db" d="M500 300h100v100H500z"/><path fill="#f0e48f" d="M600 300h100v100H600z"/><path fill="#c1e3b6" d="M700 300h100v100H700z"/></svg>