<svg xmlns="http://www.w3.org/2000/svg" viewBox="0 0 800 500"><defs/><path fill="#f9fafb" d="M0 0h100v100H0z"/><path fill="#b8afa5" d="M100 0h100v100H100z"/><path fill="#c5bbb1" d="M200 0h100v100H200z"/><path fill="#faf9f9" d="M300 0h100v100H300z"/><path fill="#e3e2e2" d="M400 0h100v100H400z"/><path fill="#d6d4d2" d="M500 0h100v100H500z"/><path fill="#f2f2f2" d="M600 0h100v100H600z"/><path fill="#f0f0f0" d="M700 0h100v100H700z"/><path fill="#f2f2f2" d="M0 100h100v100H0z"/><path fill="#837360" d="M100 100h100v100H100z"/><path fill="#b3a498" d="M200 100h100v100H200z"/><path fill="#f5f1f0" d="M300 100h100v100H300z"/><path fill="#c7c3bf" d="M400 100h100v100H400z"/><path fill="#b9afa5" d="M500 100h100v100H500z"/><path fill="#ece8e5" d="M600 100h100v100H600z"/><path fill="#f4f5f5" d="M700 100h100v100H700z"/><path fill="#e4e1de" d="M0 200h100v100H0z"/><path fill="#8f816f" d="M100 200h100v100H100z"/><path fill="#d4d4d4" d="M200 200h100v100H200z"/><path fill="#beb7b2" d="M300 200h100v100H300z"/><path fill="#baa592" d="M400 200h100v100H400z"/><path fill="#cbc2bb" d="M500 200h100v100H500z"/><path fill="#c4b9af" d="M600 200h100v100H600z"/><path fill="#edeceb" d="M700 200h100v100H700z"/><path fill="#c8c4bf" d="M0 300h100v100H0z"/><path fill="#7b6143" d="M100 300h100v100H100z"/><path fill="#86755d" d="M200 300h100v100H200z"/><path fill="#756859" d="M300 300h100v100H300z"/><path fill="#9e7e5c" d="M400 300h100v100H400z"/><path fill="#987d5f" d="M500 300h100v100H500z"/><path fill="#957958" d="M600 300h100v100H600z"/><path fill="#dcd4cb" d="M700 300h100v100H700z"/><path fill="#d2ccc5" d="M0 400h100v100H0z"/><path fill="#aa947a" d="M100 400h100v100H100z"/><path fill="#bea889" d="M200 400h100v100H200z"/><path fill="#bba58a" d="M300 400h100v100H300z"/><path fill="#ad9980" d="M400 400h100v100H400z"/><path fill="#b09b81" d="M500 400h100v100H500z"/><path fill="#b89d7b" d="M600 400h100v100H600z"/><path fill="#cbbcaa" d="M700 400h100v100H700z"/></svg>