<svg xmlns="http://www.w3.org/2000/svg" viewBox="0 0 800 500"><defs/><path fill="#93739a" d="M0 0h100v100H0z"/><path fill="#92454f" d="M100 0h100v100H100z"/><path fill="#886b6f" d="M200 0h100v100H200z"/><path fill="#93b0bc" d="M300 0h100v100H300z"/><path fill="#9ea3ac" d="M400 0h100v100H400z"/><path fill="#8aadbc" d="M500 0h100v100H500z"/><path fill="#989c9f" d="M600 0h100v100H600z"/><path fill="#97826e" d="M700 0h100v100H700z"/><path fill="#856d87" d="M0 100h100v100H0z"/><path fill="#8a2e2f" d="M100 100h100v100H100z"/><path fill="#7c7e84" d="M200 100h100v100H200z"/><path fill="#a4c4d2" d="M300 100h100v100H300z"/><path fill="#a2a5af" d="M400 100h100v100H400z"/><path fill="#89b2c0" d="M500 100h100v100H500z"/><path fill="#a3a6a4" d="M600 100h100v100H600z"/><path fill="#96785a" d="M700 100h100v100H700z"/><path fill="#8f6d87" d="M0 200h100v100H0z"/><path fill="#7f2927" d="M100 200h100v100H100z"/><path fill="#a47977" d="M200 200h100v100H200z"/><path fill="#9caa9f" d="M300 200h100v100H300z"/><path fill="#aeb4a5" d="M400 200h100v100H400z"/><path fill="#b6a9a8" d="M500 200h100v100H500z"/><path fill="#998c84" d="M600 200h100v100H600z"/><path fill="#997761" d="M700 200h100v100H700z"/><path fill="#925d7b" d="M0 300h100v100H0z"/><path fill="#7b2420" d="M100 300h100v100H100z"/><path fill="#915d58" d="M200 300h100v100H200z"/><path fill="#9a9387" d="M300 300h100v100H300z"/><path fill="#aabb9f" d="M400 300h100v100H400z"/><path fill="#9ea990" d="M500 300h100v100H500z"/><path fill="#83796c" d="M600 300h100v100H600z"/><path fill="#a96850" d="M700 300h100v100H700z"/><path fill="#855e6a" d="M0 400h100v100H0z"/><path fill="#895046" d="M100 400h100v100H100z"/><path fill="#9b7d72" d="M200 400h100v100H200z"/><path fill="#a49088" d="M300 400h100v100H300z"/><path fill="#a49f95" d="M400 400h100v100H400z"/><path fill="#949c86" d="M500 400h100v100H500z"/><path fill="#aa7086" d="M600 400h100v100H600z"/><path fill="#ae6e6c" d="M700 400h100v100H700z"/></svg>