<svg xmlns="http://www.w3.org/2000/svg" viewBox="0 0 800 500"><defs/><path fill="#ccd2db" d="M0 0h100v100H0z"/><path fill="#e0e2e6" d="M100 0h100v100H100z"/><path fill="#eceef0" d="M200 0h100v100H200z"/><path fill="#eaedef" d="M300 0h100v100H300z"/><path fill="#e8e8e9" d="M400 0h100v100H400z"/><path fill="#e9ecf0" d="M500 0h100v100H500z"/><path fill="#eef0f3" d="M600 0h100v100H600z"/><path fill="#f7f7f7" d="M700 0h100v100H700z"/><path fill="#3f5479" d="M0 100h100v100H0z"/><path fill="#a7aeb7" d="M100 100h100v100H100z"/><path fill="#a5b4c9" d="M200 100h100v100H200z"/><path fill="#c3ccd7" d="M300 100h100v100H300z"/><path fill="#a6beda" d="M400 100h100v100H400z"/><path fill="#bbc8d9" d="M500 100h100v100H500z"/><path fill="#becad3" d="M600 100h100v100H600z"/><path fill="#ebe8e7" d="M700 100h100v100H700z"/><path fill="#5d6e8c" d="M0 200h100v100H0z"/><path fill="#c1c5cd" d="M100 200h100v100H100z"/><path fill="#c0d3e6" d="M200 200h100v100H200z"/><path fill="#bcd6f2" d="M300 200h100v100H300z"/><path fill="#bcdaf7" d="M400 200h100v100H400z"/><path fill="#c4defc" d="M500 200h100v100H500z"/><path fill="#8a9999" d="M600 200h100v100H600z"/><path fill="#959786" d="M700 200h100v100H700z"/><path fill="#808ca2" d="M0 300h100v100H0z"/><path fill="#bdbab7" d="M100 300h100v100H100z"/><path fill="#dfd4c0" d="M200 300h100v100H200z"/><path fill="#cec4b5" d="M300 300h100v100H300z"/><path fill="#70594a" d="M400 300h100v100H400z"/><path fill="#d3c8ba" d="M500 300h100v100H500z"/><path fill="#e1d4c0" d="M600 300h100v100H600z"/><path fill="#787361" d="M700 300h100v100H700z"/><path fill="#bcbcbd" d="M0 400h100v100H0z"/><path fill="#e9e3da" d="M100 400h100v100H100z"/><path fill="#e7e2d3" d="M200 400h100v100H200z"/><path fill="#b9aa9e" d="M300 400h100v100H300z"/><path fill="#805a5c" d="M400 400h100v100H400z"/><path fill="#c8b8b0" d="M500 400h100v100H500z"/><path fill="#fffaee" d="M600 400h100v100H600z"/><path fill="#e4ded6" d="M700 400h100v100H700z"/></svg>