<svg xmlns="http://www.w3.org/2000/svg" viewBox="0 0 800 600"><defs/><path fill="#c2b9b0" d="M0 0h100v100H0z"/><path fill="#cdc7c3" d="M100 0h100v100H100z"/><path fill="#dedadb" d="M200 0h100v100H200z"/><path fill="#e0e1eb" d="M300 0h100v100H300z"/><path fill="#d9dcea" d="M400 0h100v100H400z"/><path fill="#d7dcf2" d="M500 0h100v100H500z"/><path fill="#cbd2ea" d="M600 0h100v100H600z"/><path fill="#b8bbc9" d="M700 0h100v100H700z"/><path fill="#dbd2c4" d="M0 100h100v100H0z"/><path fill="#e4dcd7" d="M100 100h100v100H100z"/><path fill="#ece5e5" d="M200 100h100v100H200z"/><path fill="#f1eff6" d="M300 100h100v100H300z"/><path fill="#e6e7f2" d="M400 100h100v100H400z"/><path fill="#e0e2f3" d="M500 100h100v100H500z"/><path fill="#d7daec" d="M600 100h100v100H600z"/><path fill="#c7c7d1" d="M700 100h100v100H700z"/><path fill="#e2d7ca" d="M0 200h100v100H0z"/><path fill="#e8dfd8" d="M100 200h100v100H100z"/><path fill="#e2dbda" d="M200 200h100v100H200z"/><path fill="#e9e6ee" d="M300 200h100v100H300z"/><path fill="#e9e9f5" d="M400 200h100v100H400z"/><path fill="#dcdde9" d="M500 200h100v100H500z"/><path fill="#cdcdd8" d="M600 200h100v100H600z"/><path fill="#c2c1c6" d="M700 200h100v100H700z"/><path fill="#e4d8c7" d="M0 300h100v100H0z"/><path fill="#e2d9cf" d="M100 300h100v100H100z"/><path fill="#dcd6d3" d="M200 300h100v100H200z"/><path fill="#dbd7dc" d="M300 300h100v100H300z"/><path fill="#d1d0d8" d="M400 300h100v100H400z"/><path fill="#d5d3de" d="M500 300h100v100H500z"/><path fill="#d1cfd8" d="M600 300h100v100H600z"/><path fill="#b5b3b4" d="M700 300h100v100H700z"/><path fill="#dbcfbe" d="M0 400h100v100H0z"/><path fill="#d9d0c5" d="M100 400h100v100H100z"/><path fill="#ded6d4" d="M200 400h100v100H200z"/><path fill="#d2cdd3" d="M300 400h100v100H300z"/><path fill="#d4d2dd" d="M400 400h100v100H400z"/><path fill="#c9c9d4" d="M500 400h100v100H500z"/><path fill="#cfcbd4" d="M600 400h100v100H600z"/><path fill="#bcb6b7" d="M700 400h100v100H700z"/><path fill="#c6baa8" d="M0 500h100v100H0z"/><path fill="#ccc2b5" d="M100 500h100v100H100z"/><path fill="#cdc4c3" d="M200 500h100v100H200z"/><path fill="#c3c0c9" d="M300 500h100v100H300z"/><path fill="#c5c4d2" d="M400 500h100v100H400z"/><path fill="#bcbac8" d="M500 500h100v100H500z"/><path fill="#b4afb4" d="M600 500h100v100H600z"/><path fill="#b8ada9" d="M700 500h100v100H700z"/></svg>