<svg xmlns="http://www.w3.org/2000/svg" viewBox="0 0 800 600"><defs/><path fill="#101d2b" d="M0 0h100v100H0z"/><path fill="#0d1a23" d="M100 0h100v100H100z"/><path fill="#0f1624" d="M200 0h100v100H200z"/><path fill="#101727" d="M300 0h100v100H300z"/><path fill="#0f1726" d="M400 0h100v100H400zm100 0h100v100H500z"/><path fill="#0e1927" d="M600 0h100v100H600z"/><path fill="#142131" d="M700 0h100v100H700z"/><path fill="#23345f" d="M0 100h100v100H0z"/><path fill="#342646" d="M100 100h100v100H100z"/><path fill="#1e2d64" d="M200 100h100v100H200z"/><path fill="#222861" d="M300 100h100v100H300z"/><path fill="#2c2c66" d="M400 100h100v100H400z"/><path fill="#31336c" d="M500 100h100v100H500z"/><path fill="#38255e" d="M600 100h100v100H600z"/><path fill="#484e7f" d="M700 100h100v100H700z"/><path fill="#3f4261" d="M0 200h100v100H0z"/><path fill="#54374f" d="M100 200h100v100H100z"/><path fill="#2f5488" d="M200 200h100v100H200z"/><path fill="#35476a" d="M300 200h100v100H300z"/><path fill="#2d3f6a" d="M400 200h100v100H400z"/><path fill="#416694" d="M500 200h100v100H500z"/><path fill="#67467d" d="M600 200h100v100H600z"/><path fill="#5f4d6a" d="M700 200h100v100H700z"/><path fill="#5f5469" d="M0 300h100v100H0z"/><path fill="#683439" d="M100 300h100v100H100z"/><path fill="#4f495e" d="M200 300h100v100H200z"/><path fill="#927d6a" d="M300 300h100v100H300z"/><path fill="#5b4e5d" d="M400 300h100v100H400z"/><path fill="#69546f" d="M500 300h100v100H500z"/><path fill="#76688b" d="M600 300h100v100H600z"/><path fill="#756572" d="M700 300h100v100H700z"/><path fill="#6d545d" d="M0 400h100v100H0z"/><path fill="#883920" d="M100 400h100v100H100z"/><path fill="#86512e" d="M200 400h100v100H200z"/><path fill="#9b8e61" d="M300 400h100v100H300z"/><path fill="#6b6d5b" d="M400 400h100v100H400z"/><path fill="#815f59" d="M500 400h100v100H500z"/><path fill="#937672" d="M600 400h100v100H600z"/><path fill="#6b6c73" d="M700 400h100v100H700z"/><path fill="#2b2f38" d="M0 500h100v100H0z"/><path fill="#3f3638" d="M100 500h100v100H100z"/><path fill="#423839" d="M200 500h100v100H200z"/><path fill="#343942" d="M300 500h100v100H300z"/><path fill="#353d42" d="M400 500h100v100H400z"/><path fill="#41414a" d="M500 500h100v100H500z"/><path fill="#4e4145" d="M600 500h100v100H600z"/><path fill="#443c3c" d="M700 500h100v100H700z"/></svg>