<svg xmlns="http://www.w3.org/2000/svg" viewBox="0 0 800 600"><defs/><path fill="#eeede8" d="M0 0h100v100H0z"/><path fill="#eff1ec" d="M100 0h100v100H100z"/><path fill="#e7d2c8" d="M200 0h100v100H200z"/><path fill="#da4d42" d="M300 0h100v100H300z"/><path fill="#bd5851" d="M400 0h100v100H400z"/><path fill="#d5dbd7" d="M500 0h100v100H500z"/><path fill="#ebede8" d="M600 0h100v100H600z"/><path fill="#c9d4d3" d="M700 0h100v100H700z"/><path fill="#f1efec" d="M0 100h100v100H0z"/><path fill="#eaebe3" d="M100 100h100v100H100z"/><path fill="#d48d81" d="M200 100h100v100H200z"/><path fill="#da3d32" d="M300 100h100v100H300z"/><path fill="#b25e57" d="M400 100h100v100H400z"/><path fill="#d1d5cf" d="M500 100h100v100H500z"/><path fill="#edf0eb" d="M600 100h100v100H600z"/><path fill="#c4d3dc" d="M700 100h100v100H700z"/><path fill="#efefeb" d="M0 200h100v100H0z"/><path fill="#e3d9cf" d="M100 200h100v100H100z"/><path fill="#dfd6d1" d="M200 200h100v100H200z"/><path fill="#b2aeaa" d="M300 200h100v100H300z"/><path fill="#d8d9d6" d="M400 200h100v100H400z"/><path fill="#dcdbd7" d="M500 200h100v100H500z"/><path fill="#e4e7e7" d="M600 200h100v100H600z"/><path fill="#c2ccd6" d="M700 200h100v100H700z"/><path fill="#efede8" d="M0 300h100v100H0z"/><path fill="#e3dad0" d="M100 300h100v100H100z"/><path fill="#e9e5de" d="M200 300h100v100H200z"/><path fill="#beb6b0" d="M300 300h100v100H300z"/><path fill="#dcd7d1" d="M400 300h100v100H400z"/><path fill="#d6d4d1" d="M500 300h100v100H500z"/><path fill="#e5e1da" d="M600 300h100v100H600z"/><path fill="#d0cdca" d="M700 300h100v100H700z"/><path fill="#eeeae4" d="M0 400h100v100H0z"/><path fill="#dfd4c8" d="M100 400h100v100H100z"/><path fill="#d5c9c1" d="M200 400h100v100H200z"/><path fill="#e9dbd2" d="M300 400h100v100H300z"/><path fill="#e5d7cc" d="M400 400h100v100H400z"/><path fill="#cec0b8" d="M500 400h100v100H500z"/><path fill="#f2e5d9" d="M600 400h100v100H600z"/><path fill="#f2e8dd" d="M700 400h100v100H700z"/><path fill="#ece8e2" d="M0 500h100v100H0z"/><path fill="#e5dace" d="M100 500h100v100H100z"/><path fill="#e6dad3" d="M200 500h100v100H200z"/><path fill="#ece1d8" d="M300 500h100v100H300z"/><path fill="#e5dcd2" d="M400 500h100v100H400z"/><path fill="#ded3cb" d="M500 500h100v100H500z"/><path fill="#f0e6dc" d="M600 500h100v100H600z"/><path fill="#ede5dd" d="M700 500h100v100H700z"/></svg>