<svg xmlns="http://www.w3.org/2000/svg" viewBox="0 0 800 600"><defs/><path fill="#170607" d="M0 0h100v100H0z"/><path fill="#180608" d="M100 0h100v100H100z"/><path fill="#110605" d="M200 0h100v100H200z"/><path fill="#180c0c" d="M300 0h100v100H300z"/><path fill="#16080b" d="M400 0h100v100H400z"/><path fill="#0f0506" d="M500 0h100v100H500z"/><path fill="#130d0d" d="M600 0h100v100H600z"/><path fill="#140909" d="M700 0h100v100H700z"/><path fill="#681a21" d="M0 100h100v100H0z"/><path fill="#6e1926" d="M100 100h100v100H100z"/><path fill="#5d2426" d="M200 100h100v100H200z"/><path fill="#884646" d="M300 100h100v100H300z"/><path fill="#9c3239" d="M400 100h100v100H400z"/><path fill="#852b40" d="M500 100h100v100H500z"/><path fill="#884c4a" d="M600 100h100v100H600z"/><path fill="#9d4244" d="M700 100h100v100H700z"/><path fill="#662120" d="M0 200h100v100H0z"/><path fill="#6f192c" d="M100 200h100v100H100z"/><path fill="#7c3543" d="M200 200h100v100H200z"/><path fill="#91574f" d="M300 200h100v100H300z"/><path fill="#6a292c" d="M400 200h100v100H400z"/><path fill="#683126" d="M500 200h100v100H500z"/><path fill="#683b2a" d="M600 200h100v100H600z"/><path fill="#a04e58" d="M700 200h100v100H700z"/><path fill="#611f1d" d="M0 300h100v100H0z"/><path fill="#6f1e28" d="M100 300h100v100H100z"/><path fill="#8c3c4c" d="M200 300h100v100H200z"/><path fill="#8e695a" d="M300 300h100v100H300z"/><path fill="#733232" d="M400 300h100v100H400z"/><path fill="#643a23" d="M500 300h100v100H500z"/><path fill="#594a44" d="M600 300h100v100H600z"/><path fill="#7e4f51" d="M700 300h100v100H700z"/><path fill="#591b22" d="M0 400h100v100H0z"/><path fill="#76212f" d="M100 400h100v100H100z"/><path fill="#883d56" d="M200 400h100v100H200z"/><path fill="#76474e" d="M300 400h100v100H300z"/><path fill="#9c4231" d="M400 400h100v100H400z"/><path fill="#c54830" d="M500 400h100v100H500z"/><path fill="#84383f" d="M600 400h100v100H600z"/><path fill="#522749" d="M700 400h100v100H700z"/><path fill="#2e181c" d="M0 500h100v100H0z"/><path fill="#3d171d" d="M100 500h100v100H100z"/><path fill="#260713" d="M200 500h100v100H200z"/><path fill="#260915" d="M300 500h100v100H300z"/><path fill="#331413" d="M400 500h100v100H400z"/><path fill="#481815" d="M500 500h100v100H500z"/><path fill="#39181f" d="M600 500h100v100H600z"/><path fill="#22102b" d="M700 500h100v100H700z"/></svg>