<svg xmlns="http://www.w3.org/2000/svg" viewBox="0 0 800 600"><defs/><path fill="#fff" d="M0 0h100v100H0z"/><path fill="#d3d1c1" d="M100 0h100v100H100z"/><path fill="#c5cec1" d="M200 0h100v100H200z"/><path fill="#c8d2bf" d="M300 0h100v100H300z"/><path fill="#c7caba" d="M400 0h100v100H400z"/><path fill="#bec9b1" d="M500 0h100v100H500z"/><path fill="#a7b495" d="M600 0h100v100H600z"/><path fill="#e0e4dd" d="M700 0h100v100H700z"/><path fill="#fdf6f1" d="M0 100h100v100H0z"/><path fill="#958c6a" d="M100 100h100v100H100z"/><path fill="#667843" d="M200 100h100v100H200z"/><path fill="#6c7c3d" d="M300 100h100v100H300z"/><path fill="#5d6839" d="M400 100h100v100H400z"/><path fill="#6b864b" d="M500 100h100v100H500z"/><path fill="#6e894e" d="M600 100h100v100H600z"/><path fill="#8d9979" d="M700 100h100v100H700z"/><path fill="#efe3d5" d="M0 200h100v100H0z"/><path fill="#baae96" d="M100 200h100v100H100z"/><path fill="#a3a37d" d="M200 200h100v100H200z"/><path fill="#765e32" d="M300 200h100v100H300z"/><path fill="#806b42" d="M400 200h100v100H400z"/><path fill="#797442" d="M500 200h100v100H500z"/><path fill="#a3a899" d="M600 200h100v100H600z"/><path fill="#adaf95" d="M700 200h100v100H700z"/><path fill="#e6d4c1" d="M0 300h100v100H0z"/><path fill="#a3a690" d="M100 300h100v100H100z"/><path fill="#b5bbac" d="M200 300h100v100H200z"/><path fill="#d2beae" d="M300 300h100v100H300z"/><path fill="#d9a583" d="M400 300h100v100H400z"/><path fill="#ddc2b5" d="M500 300h100v100H500z"/><path fill="#9b8f8e" d="M600 300h100v100H600z"/><path fill="#a19e9d" d="M700 300h100v100H700z"/><path fill="#e3c8a9" d="M0 400h100v100H0z"/><path fill="#a1bcc3" d="M100 400h100v100H100z"/><path fill="#84b5ce" d="M200 400h100v100H200z"/><path fill="#b4b8ab" d="M300 400h100v100H300z"/><path fill="#b6a89a" d="M400 400h100v100H400z"/><path fill="#af9c93" d="M500 400h100v100H500z"/><path fill="#97919d" d="M600 400h100v100H600z"/><path fill="#a59f9e" d="M700 400h100v100H700z"/><path fill="#f3ebe1" d="M0 500h100v100H0z"/><path fill="#f2f8fb" d="M100 500h100v100H100z"/><path fill="#e9eef0" d="M200 500h100v100H200z"/><path fill="#edebeb" d="M300 500h100v100H300z"/><path fill="#eeeeef" d="M400 500h100v100H400z"/><path fill="#eeedec" d="M500 500h100v100H500z"/><path fill="#ecedf2" d="M600 500h100v100H600z"/><path fill="#f1f0f4" d="M700 500h100v100H700z"/></svg>