<svg xmlns="http://www.w3.org/2000/svg" viewBox="0 0 800 500"><defs/><path fill="#decc97" d="M0 0h100v100H0z"/><path fill="#c09577" d="M100 0h100v100H100z"/><path fill="#c2b487" d="M200 0h100v100H200z"/><path fill="#b2d5c8" d="M300 0h100v100H300z"/><path fill="#9bd2ce" d="M400 0h100v100H400z"/><path fill="#add5ca" d="M500 0h100v100H500z"/><path fill="#dccd96" d="M600 0h100v100H600z"/><path fill="#ddcb97" d="M700 0h100v100H700z"/><path fill="#d7b875" d="M0 100h100v100H0z"/><path fill="#b4764c" d="M100 100h100v100H100z"/><path fill="#868245" d="M200 100h100v100H200z"/><path fill="#8aaa9f" d="M300 100h100v100H300z"/><path fill="#97c7ca" d="M400 100h100v100H400z"/><path fill="#8fb8a7" d="M500 100h100v100H500z"/><path fill="#a79966" d="M600 100h100v100H600z"/><path fill="#a88e5b" d="M700 100h100v100H700z"/><path fill="#cda776" d="M0 200h100v100H0z"/><path fill="#bd8a67" d="M100 200h100v100H100z"/><path fill="#897d4b" d="M200 200h100v100H200z"/><path fill="#857745" d="M300 200h100v100H300z"/><path fill="#c0b073" d="M400 200h100v100H400z"/><path fill="#bfab69" d="M500 200h100v100H500z"/><path fill="#a99663" d="M600 200h100v100H600z"/><path fill="#b09667" d="M700 200h100v100H700z"/><path fill="#b48b6b" d="M0 300h100v100H0z"/><path fill="#9f9192" d="M100 300h100v100H100z"/><path fill="#828c6f" d="M200 300h100v100H200z"/><path fill="#725b4f" d="M300 300h100v100H300z"/><path fill="#878585" d="M400 300h100v100H400z"/><path fill="#a99d9c" d="M500 300h100v100H500z"/><path fill="#888f94" d="M600 300h100v100H600z"/><path fill="#a0a385" d="M700 300h100v100H700z"/><path fill="#d2d6d6" d="M0 400h100v100H0z"/><path fill="#b5c6cb" d="M100 400h100v100H100z"/><path fill="#a7a892" d="M200 400h100v100H200z"/><path fill="#c19e88" d="M300 400h100v100H300z"/><path fill="#a1979a" d="M400 400h100v100H400z"/><path fill="#a8c3c3" d="M500 400h100v100H500z"/><path fill="#bfcdcf" d="M600 400h100v100H600z"/><path fill="#c6d0d2" d="M700 400h100v100H700z"/></svg>