<svg xmlns="http://www.w3.org/2000/svg" viewBox="0 0 800 600"><defs/><path fill="#fff" d="M0 0h100v100H0z"/><path fill="#fffefe" d="M100 0h100v100H100z"/><path fill="#feffff" d="M200 0h100v100H200z"/><path fill="#fdfdfd" d="M300 0h100v100H300z"/><path fill="#fdfefe" d="M400 0h100v100H400z"/><path fill="#fefefe" d="M500 0h100v100H500z"/><path fill="#fdfcfd" d="M600 0h100v100H600z"/><path fill="#fff" d="M700 0h100v100H700z"/><path fill="#f4f2f2" d="M0 100h100v100H0z"/><path fill="#d9d8d8" d="M100 100h100v100H100z"/><path fill="#ecece8" d="M200 100h100v100H200z"/><path fill="#fff" d="M300 100h100v100H300z"/><path fill="#fafafa" d="M400 100h100v100H400z"/><path fill="#fbfbfb" d="M500 100h100v100H500z"/><path fill="#fefeff" d="M600 100h100v100H600z"/><path fill="#eff1f1" d="M700 100h100v100H700z"/><path fill="#ececec" d="M0 200h100v100H0z"/><path fill="#cbcbcb" d="M100 200h100v100H100z"/><path fill="#d8dbd9" d="M200 200h100v100H200z"/><path fill="#e0e8ef" d="M300 200h100v100H300z"/><path fill="#d8e0ea" d="M400 200h100v100H400z"/><path fill="#d8e0e0" d="M500 200h100v100H500z"/><path fill="#bfc7c8" d="M600 200h100v100H600z"/><path fill="#d3d5d7" d="M700 200h100v100H700z"/><path fill="#e1e5e7" d="M0 300h100v100H0z"/><path fill="#bab9bb" d="M100 300h100v100H100z"/><path fill="#abbdbc" d="M200 300h100v100H200z"/><path fill="#7b8793" d="M300 300h100v100H300z"/><path fill="#97a2b2" d="M400 300h100v100H400z"/><path fill="#a5b4bf" d="M500 300h100v100H500z"/><path fill="#7d858b" d="M600 300h100v100H600z"/><path fill="#d1d4d9" d="M700 300h100v100H700z"/><path fill="#e6e7e9" d="M0 400h100v100H0z"/><path fill="#cecccb" d="M100 400h100v100H100z"/><path fill="#ced1d2" d="M200 400h100v100H200z"/><path fill="#b3b2b4" d="M300 400h100v100H300z"/><path fill="#b0b3b7" d="M400 400h100v100H400z"/><path fill="#cacfd3" d="M500 400h100v100H500z"/><path fill="#b8babc" d="M600 400h100v100H600z"/><path fill="#bdc0c4" d="M700 400h100v100H700z"/><path fill="#f9fafa" d="M0 500h100v100H0z"/><path fill="#fbfbfb" d="M100 500h100v100H100z"/><path fill="#fdfdfd" d="M200 500h100v100H200z"/><path fill="#fff" d="M300 500h100v100H300z"/><path fill="#fafbfb" d="M400 500h100v100H400z"/><path fill="#f6f6f6" d="M500 500h100v100H500z"/><path fill="#fbfcfc" d="M600 500h100v100H600z"/><path fill="#fafafa" d="M700 500h100v100H700z"/></svg>