<svg xmlns="http://www.w3.org/2000/svg" viewBox="0 0 800 400"><defs/><path fill="#d6d8c9" d="M0 0h100v100H0z"/><path fill="#ddc6b1" d="M100 0h100v100H100z"/><path fill="#e4d2b6" d="M200 0h100v100H200z"/><path fill="#e9e6d1" d="M300 0h100v100H300z"/><path fill="#d8d6c8" d="M400 0h100v100H400z"/><path fill="#e9eeee" d="M500 0h100v100H500z"/><path fill="#d7d2c4" d="M600 0h100v100H600z"/><path fill="#cfc8b0" d="M700 0h100v100H700z"/><path fill="#d5cdc3" d="M0 100h100v100H0z"/><path fill="#dfc4a8" d="M100 100h100v100H100z"/><path fill="#dac8ad" d="M200 100h100v100H200z"/><path fill="#e8ddca" d="M300 100h100v100H300z"/><path fill="#bbc0a0" d="M400 100h100v100H400z"/><path fill="#d5e5d8" d="M500 100h100v100H500z"/><path fill="#b2b699" d="M600 100h100v100H600z"/><path fill="#d5c6a9" d="M700 100h100v100H700z"/><path fill="#e2d8c9" d="M0 200h100v100H0z"/><path fill="#cfaf8d" d="M100 200h100v100H100z"/><path fill="#b19d75" d="M200 200h100v100H200z"/><path fill="#d6c8b1" d="M300 200h100v100H300z"/><path fill="#9d9c77" d="M400 200h100v100H400z"/><path fill="#8d975d" d="M500 200h100v100H500z"/><path fill="#aea879" d="M600 200h100v100H600z"/><path fill="#c6c59f" d="M700 200h100v100H700z"/><path fill="#e8d8bf" d="M0 300h100v100H0z"/><path fill="#ac947d" d="M100 300h100v100H100z"/><path fill="#ad977d" d="M200 300h100v100H200z"/><path fill="#a1724d" d="M300 300h100v100H300z"/><path fill="#9e7159" d="M400 300h100v100H400z"/><path fill="#a89785" d="M500 300h100v100H500z"/><path fill="#957e64" d="M600 300h100v100H600z"/><path fill="#cbb083" d="M700 300h100v100H700z"/></svg>