<svg xmlns="http://www.w3.org/2000/svg" viewBox="0 0 800 600"><defs/><path fill="#effefd" d="M0 0h100v100H0z"/><path fill="#f1fafd" d="M100 0h100v100H100z"/><path fill="#fdf5f9" d="M200 0h100v100H200z"/><path fill="#fdfafa" d="M300 0h100v100H300z"/><path fill="#fdfafb" d="M400 0h100v100H400z"/><path fill="#fcfcfa" d="M500 0h100v100H500z"/><path fill="#fef8f8" d="M600 0h100v100H600z"/><path fill="#efebf6" d="M700 0h100v100H700z"/><path fill="#84d4be" d="M0 100h100v100H0z"/><path fill="#afdbe2" d="M100 100h100v100H100z"/><path fill="#ecd0d3" d="M200 100h100v100H200z"/><path fill="#ebdad1" d="M300 100h100v100H300z"/><path fill="#e5d9d2" d="M400 100h100v100H400z"/><path fill="#eae4d7" d="M500 100h100v100H500z"/><path fill="#e6cfca" d="M600 100h100v100H600z"/><path fill="#80a9bc" d="M700 100h100v100H700z"/><path fill="#a7d39d" d="M0 200h100v100H0z"/><path fill="#bfcfd1" d="M100 200h100v100H100z"/><path fill="#f0d8d9" d="M200 200h100v100H200z"/><path fill="#d7dbd0" d="M300 200h100v100H300z"/><path fill="#d2c8c4" d="M400 200h100v100H400z"/><path fill="#f2d7d8" d="M500 200h100v100H500z"/><path fill="#e0cec8" d="M600 200h100v100H600z"/><path fill="#92d8c9" d="M700 200h100v100H700z"/><path fill="#a5e1c6" d="M0 300h100v100H0z"/><path fill="#cad6db" d="M100 300h100v100H100z"/><path fill="#cdbbd2" d="M200 300h100v100H200z"/><path fill="#abd5e0" d="M300 300h100v100H300z"/><path fill="#acbbbb" d="M400 300h100v100H400z"/><path fill="#cfbcc9" d="M500 300h100v100H500z"/><path fill="#e1b6c1" d="M600 300h100v100H600z"/><path fill="#9cd1b6" d="M700 300h100v100H700z"/><path fill="#b2e8e4" d="M0 400h100v100H0z"/><path fill="#bcd2bb" d="M100 400h100v100H100z"/><path fill="#b0a178" d="M200 400h100v100H200z"/><path fill="#9acfbc" d="M300 400h100v100H300z"/><path fill="#a8d7cf" d="M400 400h100v100H400z"/><path fill="#c5c0a0" d="M500 400h100v100H500z"/><path fill="#e2d3b2" d="M600 400h100v100H600z"/><path fill="#d5aa8d" d="M700 400h100v100H700z"/><path fill="#f5f9f3" d="M0 500h100v100H0z"/><path fill="#f4efe1" d="M100 500h100v100H100z"/><path fill="#f6eedf" d="M200 500h100v100H200z"/><path fill="#f3ede7" d="M300 500h100v100H300z"/><path fill="#f5f1ef" d="M400 500h100v100H400z"/><path fill="#f9f4ea" d="M500 500h100v100H500z"/><path fill="#faebe6" d="M600 500h100v100H600z"/><path fill="#f9e1dc" d="M700 500h100v100H700z"/></svg>