<svg xmlns="http://www.w3.org/2000/svg" viewBox="0 0 800 600"><defs/><path fill="#f5f4f2" d="M0 0h100v100H0z"/><path fill="#f2f0ec" d="M100 0h100v100H100z"/><path fill="#f6f6f4" d="M200 0h100v100H200z"/><path fill="#eeeeeb" d="M300 0h100v100H300z"/><path fill="#f4f2ef" d="M400 0h100v100H400z"/><path fill="#eceae7" d="M500 0h100v100H500z"/><path fill="#f4f3f2" d="M600 0h100v100H600z"/><path fill="#f6f5f3" d="M700 0h100v100H700z"/><path fill="#e3e0d5" d="M0 100h100v100H0z"/><path fill="#cfc5b4" d="M100 100h100v100H100z"/><path fill="#d1c8ba" d="M200 100h100v100H200z"/><path fill="#b9b8ae" d="M300 100h100v100H300z"/><path fill="#c9c3b4" d="M400 100h100v100H400z"/><path fill="#bcb4a9" d="M500 100h100v100H500z"/><path fill="#cbc9c4" d="M600 100h100v100H600z"/><path fill="#d9d7ce" d="M700 100h100v100H700z"/><path fill="#d8d3c5" d="M0 200h100v100H0z"/><path fill="#c7beb0" d="M100 200h100v100H100z"/><path fill="#b8b2a0" d="M200 200h100v100H200z"/><path fill="#979a91" d="M300 200h100v100H300z"/><path fill="#565b53" d="M400 200h100v100H400z"/><path fill="#8c887f" d="M500 200h100v100H500z"/><path fill="#c3bab2" d="M600 200h100v100H600z"/><path fill="#b6b3a9" d="M700 200h100v100H700z"/><path fill="#d8d1c3" d="M0 300h100v100H0z"/><path fill="#a69682" d="M100 300h100v100H100z"/><path fill="#887c64" d="M200 300h100v100H200z"/><path fill="#7f7465" d="M300 300h100v100H300z"/><path fill="#595044" d="M400 300h100v100H400z"/><path fill="#6d6655" d="M500 300h100v100H500z"/><path fill="#8d8569" d="M600 300h100v100H600z"/><path fill="#9a8c82" d="M700 300h100v100H700z"/><path fill="#c5bcad" d="M0 400h100v100H0z"/><path fill="#876e5a" d="M100 400h100v100H100z"/><path fill="#856f56" d="M200 400h100v100H200z"/><path fill="#887859" d="M300 400h100v100H300z"/><path fill="#615548" d="M400 400h100v100H400z"/><path fill="#6a6b5f" d="M500 400h100v100H500z"/><path fill="#757354" d="M600 400h100v100H600z"/><path fill="#898475" d="M700 400h100v100H700z"/><path fill="#e2e1da" d="M0 500h100v100H0z"/><path fill="#d5d0c8" d="M100 500h100v100H100z"/><path fill="#d2cdc5" d="M200 500h100v100H200z"/><path fill="#cccac0" d="M300 500h100v100H300z"/><path fill="#cbc8c5" d="M400 500h100v100H400z"/><path fill="#c9c8c6" d="M500 500h100v100H500z"/><path fill="#d1cfc5" d="M600 500h100v100H600z"/><path fill="#dddad7" d="M700 500h100v100H700z"/></svg>