<svg xmlns="http://www.w3.org/2000/svg" viewBox="0 0 800 500"><defs/><path fill="#b7aba0" d="M0 0h100v100H0z"/><path fill="#b4aba0" d="M100 0h100v100H100z"/><path fill="#b5afa5" d="M200 0h100v100H200z"/><path fill="#cdc6bd" d="M300 0h100v100H300z"/><path fill="#c1bbb2" d="M400 0h100v100H400z"/><path fill="#bdb6ae" d="M500 0h100v100H500z"/><path fill="#cfc8c0" d="M600 0h100v100H600z"/><path fill="#ccc4bc" d="M700 0h100v100H700z"/><path fill="#b3a89e" d="M0 100h100v100H0z"/><path fill="#b5aea4" d="M100 100h100v100H100z"/><path fill="#bbb5ab" d="M200 100h100v100H200z"/><path fill="#c5beb6" d="M300 100h100v100H300z"/><path fill="#ada7a0" d="M400 100h100v100H400z"/><path fill="#aba69f" d="M500 100h100v100H500z"/><path fill="#d7d1cb" d="M600 100h100v100H600z"/><path fill="#cfc7c1" d="M700 100h100v100H700z"/><path fill="#988f85" d="M0 200h100v100H0z"/><path fill="#a8a19a" d="M100 200h100v100H100z"/><path fill="#bdb6ae" d="M200 200h100v100H200z"/><path fill="#b2aca5" d="M300 200h100v100H300z"/><path fill="#aca8a2" d="M400 200h100v100H400z"/><path fill="#b4b0aa" d="M500 200h100v100H500z"/><path fill="#c0bdb9" d="M600 200h100v100H600z"/><path fill="#c1bbb6" d="M700 200h100v100H700z"/><path fill="#8f8477" d="M0 300h100v100H0z"/><path fill="#8d857c" d="M100 300h100v100H100z"/><path fill="#aca49d" d="M200 300h100v100H200z"/><path fill="#aaa49d" d="M300 300h100v100H300z"/><path fill="#b2ada6" d="M400 300h100v100H400z"/><path fill="#bcb7b1" d="M500 300h100v100H500z"/><path fill="#c4beba" d="M600 300h100v100H600z"/><path fill="#c7bfba" d="M700 300h100v100H700z"/><path fill="#8b7d6f" d="M0 400h100v100H0z"/><path fill="#92877b" d="M100 400h100v100H100z"/><path fill="#aba197" d="M200 400h100v100H200z"/><path fill="#aaa49a" d="M300 400h100v100H300z"/><path fill="#a8a29a" d="M400 400h100v100H400z"/><path fill="#b7b1a9" d="M500 400h100v100H500z"/><path fill="#c1bab4" d="M600 400h100v100H600z"/><path fill="#dfd7ce" d="M700 400h100v100H700z"/></svg>