<svg xmlns="http://www.w3.org/2000/svg" viewBox="0 0 800 400"><defs/><path fill="#d7dfcb" d="M0 0h100v100H0z"/><path fill="#a5998b" d="M100 0h100v100H100z"/><path fill="#bdc3c7" d="M200 0h100v100H200z"/><path fill="#838f9e" d="M300 0h100v100H300z"/><path fill="#adb0ba" d="M400 0h100v100H400z"/><path fill="#d3e7da" d="M500 0h100v100H500z"/><path fill="#e0ebe1" d="M600 0h100v100H600z"/><path fill="#93a089" d="M700 0h100v100H700z"/><path fill="#d5d7c3" d="M0 100h100v100H0z"/><path fill="#a5947f" d="M100 100h100v100H100z"/><path fill="#afaeb9" d="M200 100h100v100H200z"/><path fill="#252c41" d="M300 100h100v100H300z"/><path fill="#66656e" d="M400 100h100v100H400z"/><path fill="#91988b" d="M500 100h100v100H500z"/><path fill="#a9b0a2" d="M600 100h100v100H600z"/><path fill="#819271" d="M700 100h100v100H700z"/><path fill="#c7c1a7" d="M0 200h100v100H0z"/><path fill="#b8a58b" d="M100 200h100v100H100z"/><path fill="#9ca38f" d="M200 200h100v100H200z"/><path fill="#383833" d="M300 200h100v100H300z"/><path fill="#857f74" d="M400 200h100v100H400z"/><path fill="#b2a699" d="M500 200h100v100H500z"/><path fill="#c0baae" d="M600 200h100v100H600z"/><path fill="#b6c9b3" d="M700 200h100v100H700z"/><path fill="#d5cbb4" d="M0 300h100v100H0z"/><path fill="#d3bd9c" d="M100 300h100v100H100z"/><path fill="#aaa18b" d="M200 300h100v100H200z"/><path fill="#8b8372" d="M300 300h100v100H300z"/><path fill="#c4b49d" d="M400 300h100v100H400z"/><path fill="#baa692" d="M500 300h100v100H500z"/><path fill="#b7a58e" d="M600 300h100v100H600z"/><path fill="#c4c1ad" d="M700 300h100v100H700z"/></svg>