<svg xmlns="http://www.w3.org/2000/svg" viewBox="0 0 800 500"><defs/><path fill="#f2f1f1" d="M0 0h100v100H0z"/><path fill="#efeeef" d="M100 0h100v100H100z"/><path fill="#f6f5f6" d="M200 0h100v100H200z"/><path fill="#dfdfde" d="M300 0h100v100H300z"/><path fill="#a8a7a6" d="M400 0h100v100H400z"/><path fill="#e6e6e5" d="M500 0h100v100H500z"/><path fill="#f4f4f4" d="M600 0h100v100H600z"/><path fill="#fdfcfd" d="M700 0h100v100H700z"/><path fill="#f5f5f5" d="M0 100h100v100H0z"/><path fill="#d8d7d7" d="M100 100h100v100H100z"/><path fill="#d3d2d2" d="M200 100h100v100H200z"/><path fill="#d2d1d0" d="M300 100h100v100H300z"/><path fill="#cccbca" d="M400 100h100v100H400z"/><path fill="#d8d6d6" d="M500 100h100v100H500z"/><path fill="#e6e5e5" d="M600 100h100v100H600z"/><path fill="#f0f0ef" d="M700 100h100v100H700z"/><path fill="#f2f1f2" d="M0 200h100v100H0z"/><path fill="#dfdede" d="M100 200h100v100H100z"/><path fill="#d9d8d8" d="M200 200h100v100H200z"/><path fill="#c5c3c2" d="M300 200h100v100H300z"/><path fill="#c2c1c0" d="M400 200h100v100H400z"/><path fill="#cfcdcc" d="M500 200h100v100H500z"/><path fill="#c6c4c4" d="M600 200h100v100H600z"/><path fill="#dfdede" d="M700 200h100v100H700z"/><path fill="#dedddd" d="M0 300h100v100H0z"/><path fill="#c1bfc0" d="M100 300h100v100H100z"/><path fill="#c8c6c6" d="M200 300h100v100H200z"/><path fill="#c7c5c5" d="M300 300h100v100H300z"/><path fill="#b0aeae" d="M400 300h100v100H400z"/><path fill="#cbcaca" d="M500 300h100v100H500z"/><path fill="#b2b0af" d="M600 300h100v100H600z"/><path fill="#d0cfce" d="M700 300h100v100H700z"/><path fill="#e5e5e4" d="M0 400h100v100H0z"/><path fill="#e0dfdf" d="M100 400h100v100H100z"/><path fill="#e0dfe0" d="M200 400h100v100H200z"/><path fill="#ececec" d="M300 400h100v100H300z"/><path fill="#b9b7b7" d="M400 400h100v100H400z"/><path fill="#c0bebe" d="M500 400h100v100H500z"/><path fill="#d2d1d0" d="M600 400h100v100H600z"/><path fill="#cecdcc" d="M700 400h100v100H700z"/></svg>