<svg xmlns="http://www.w3.org/2000/svg" viewBox="0 0 800 500"><defs/><path fill="#d2d2c7" d="M0 0h100v100H0z"/><path fill="#c3cabd" d="M100 0h100v100H100z"/><path fill="#e0dbd3" d="M200 0h100v100H200z"/><path fill="#e3dcd5" d="M300 0h100v100H300z"/><path fill="#e3dad2" d="M400 0h100v100H400z"/><path fill="#ddd1ca" d="M500 0h100v100H500z"/><path fill="#cdc6c1" d="M600 0h100v100H600z"/><path fill="#b3a292" d="M700 0h100v100H700z"/><path fill="#d0d1c5" d="M0 100h100v100H0z"/><path fill="#c3cbbc" d="M100 100h100v100H100z"/><path fill="#e3dbd5" d="M200 100h100v100H200z"/><path fill="#e2d7d1" d="M300 100h100v100H300z"/><path fill="#e6d7d2" d="M400 100h100v100H400z"/><path fill="#e0d0cb" d="M500 100h100v100H500z"/><path fill="#d0c3c0" d="M600 100h100v100H600z"/><path fill="#b5a093" d="M700 100h100v100H700z"/><path fill="#c7cbbf" d="M0 200h100v100H0zm100 0h100v100H100z"/><path fill="#e0d7d1" d="M200 200h100v100H200z"/><path fill="#ded2cc" d="M300 200h100v100H300z"/><path fill="#ded2cb" d="M400 200h100v100H400z"/><path fill="#d9cbc4" d="M500 200h100v100H500z"/><path fill="#c9beb9" d="M600 200h100v100H600z"/><path fill="#ad978c" d="M700 200h100v100H700z"/><path fill="#bcc5b9" d="M0 300h100v100H0z"/><path fill="#c0c7bc" d="M100 300h100v100H100z"/><path fill="#d9d1cb" d="M200 300h100v100H200z"/><path fill="#ded4cd" d="M300 300h100v100H300z"/><path fill="#dcd0ca" d="M400 300h100v100H400z"/><path fill="#d5c6c0" d="M500 300h100v100H500z"/><path fill="#c3b6b2" d="M600 300h100v100H600z"/><path fill="#a69187" d="M700 300h100v100H700z"/><path fill="#bbc5bc" d="M0 400h100v100H0z"/><path fill="#cfd1cc" d="M100 400h100v100H100z"/><path fill="#dcd7d4" d="M200 400h100v100H200z"/><path fill="#ddd6d2" d="M300 400h100v100H300z"/><path fill="#dad0cc" d="M400 400h100v100H400z"/><path fill="#d0c4c0" d="M500 400h100v100H500z"/><path fill="#bcafac" d="M600 400h100v100H600z"/><path fill="#9f948e" d="M700 400h100v100H700z"/></svg>