<svg xmlns="http://www.w3.org/2000/svg" viewBox="0 0 800 600"><defs/><path fill="#fdfdfd" d="M0 0h100v100H0z"/><path fill="#fafafa" d="M100 0h100v100H100z"/><path fill="#fbfbfb" d="M200 0h100v100H200z"/><path fill="#f9f9f9" d="M300 0h100v100H300z"/><path fill="#fdfdfd" d="M400 0h100v100H400z"/><path fill="#fefefe" d="M500 0h100v100H500z"/><path fill="#fcfcfc" d="M600 0h100v100H600z"/><path fill="#fdfdfd" d="M700 0h100v100H700z"/><path fill="#f4f4f4" d="M0 100h100v100H0z"/><path fill="#d8d7d8" d="M100 100h100v100H100z"/><path fill="#cacac9" d="M200 100h100v100H200z"/><path fill="#ededed" d="M300 100h100v100H300z"/><path fill="#fbfbfb" d="M400 100h100v100H400z"/><path fill="#f7f7f7" d="M500 100h100v100H500z"/><path fill="#f3f3f3" d="M600 100h100v100H600zm100 0h100v100H700z"/><path fill="#f1f1f1" d="M0 200h100v100H0z"/><path fill="#c3c2c3" d="M100 200h100v100H100z"/><path fill="#dbdbdb" d="M200 200h100v100H200z"/><path fill="#fafafa" d="M300 200h100v100H300z"/><path fill="#f7f7f7" d="M400 200h100v100H400z"/><path fill="#f9f9f9" d="M500 200h100v100H500z"/><path fill="#f4f4f4" d="M600 200h100v100H600z"/><path fill="#f9f9f9" d="M700 200h100v100H700z"/><path fill="#d5d5d5" d="M0 300h100v100H0z"/><path fill="#b7b5b6" d="M100 300h100v100H100z"/><path fill="#e3e2e3" d="M200 300h100v100H200z"/><path fill="#f1f1f1" d="M300 300h100v100H300z"/><path fill="#dedede" d="M400 300h100v100H400z"/><path fill="#dddcdc" d="M500 300h100v100H500z"/><path fill="#ececec" d="M600 300h100v100H600z"/><path fill="#f6f6f6" d="M700 300h100v100H700z"/><path fill="#d4d3d3" d="M0 400h100v100H0z"/><path fill="#d6d6d6" d="M100 400h100v100H100z"/><path fill="#e2e3e3" d="M200 400h100v100H200z"/><path fill="#e2e1e2" d="M300 400h100v100H300z"/><path fill="#eeeeed" d="M400 400h100v100H400z"/><path fill="#ececeb" d="M500 400h100v100H500z"/><path fill="#e2e2e2" d="M600 400h100v100H600z"/><path fill="#f0f0f0" d="M700 400h100v100H700z"/><path fill="#f4f4f4" d="M0 500h100v100H0z"/><path fill="#f8f8f8" d="M100 500h100v100H100z"/><path fill="#f4f4f4" d="M200 500h100v100H200z"/><path fill="#f8f8f8" d="M300 500h100v100H300z"/><path fill="#fbfbfb" d="M400 500h100v100H400z"/><path fill="#f8f8f8" d="M500 500h100v100H500z"/><path fill="#f0f0f0" d="M600 500h100v100H600z"/><path fill="#f3f3f3" d="M700 500h100v100H700z"/></svg>