<svg xmlns="http://www.w3.org/2000/svg" viewBox="0 0 800 600"><defs/><path fill="#ebe4e0" d="M0 0h100v100H0z"/><path fill="#d8ceca" d="M100 0h100v100H100z"/><path fill="#e9e2df" d="M200 0h100v100H200z"/><path fill="#f0ebe7" d="M300 0h100v100H300z"/><path fill="#e8e1db" d="M400 0h100v100H400z"/><path fill="#e7deda" d="M500 0h100v100H500z"/><path fill="#e0d4ce" d="M600 0h100v100H600z"/><path fill="#d1cac4" d="M700 0h100v100H700z"/><path fill="#e0d7d1" d="M0 100h100v100H0z"/><path fill="#c89266" d="M100 100h100v100H100z"/><path fill="#d5c8be" d="M200 100h100v100H200z"/><path fill="#e5dbd4" d="M300 100h100v100H300z"/><path fill="#dbd3ca" d="M400 100h100v100H400z"/><path fill="#dbcec7" d="M500 100h100v100H500z"/><path fill="#d8b7b0" d="M600 100h100v100H600z"/><path fill="#c4bfbf" d="M700 100h100v100H700z"/><path fill="#ccccca" d="M0 200h100v100H0z"/><path fill="#828c7a" d="M100 200h100v100H100z"/><path fill="#d3c7c0" d="M200 200h100v100H200z"/><path fill="#ddd0ca" d="M300 200h100v100H300z"/><path fill="#d5d2cf" d="M400 200h100v100H400z"/><path fill="#ccc8c6" d="M500 200h100v100H500z"/><path fill="#c5bdba" d="M600 200h100v100H600z"/><path fill="#b4afad" d="M700 200h100v100H700z"/><path fill="#a88d88" d="M0 300h100v100H0z"/><path fill="#9c7264" d="M100 300h100v100H100z"/><path fill="#c4b8ac" d="M200 300h100v100H200z"/><path fill="#b09c97" d="M300 300h100v100H300z"/><path fill="#b9a886" d="M400 300h100v100H400z"/><path fill="#afa07b" d="M500 300h100v100H500z"/><path fill="#b7a291" d="M600 300h100v100H600z"/><path fill="#9d9794" d="M700 300h100v100H700z"/><path fill="#988b81" d="M0 400h100v100H0z"/><path fill="#ad927c" d="M100 400h100v100H100z"/><path fill="#cdb298" d="M200 400h100v100H200z"/><path fill="#c7af9b" d="M300 400h100v100H300z"/><path fill="#bdab88" d="M400 400h100v100H400z"/><path fill="#bba378" d="M500 400h100v100H500z"/><path fill="#b09583" d="M600 400h100v100H600z"/><path fill="#a1948d" d="M700 400h100v100H700z"/><path fill="#aca7a4" d="M0 500h100v100H0z"/><path fill="#bbb7b4" d="M100 500h100v100H100z"/><path fill="#b5b2b0" d="M200 500h100v100H200z"/><path fill="#b0adaa" d="M300 500h100v100H300z"/><path fill="#afabac" d="M400 500h100v100H400z"/><path fill="#aaa6a9" d="M500 500h100v100H500z"/><path fill="#a8a2a3" d="M600 500h100v100H600z"/><path fill="#aca4a2" d="M700 500h100v100H700z"/></svg>