<svg xmlns="http://www.w3.org/2000/svg" viewBox="0 0 800 500"><defs/><path fill="#d6d6d9" d="M0 0h100v100H0z"/><path fill="#c9c9ce" d="M100 0h100v100H100z"/><path fill="#cbcbd0" d="M200 0h100v100H200z"/><path fill="#c7cac8" d="M300 0h100v100H300z"/><path fill="#c0bbc3" d="M400 0h100v100H400z"/><path fill="#bbb9be" d="M500 0h100v100H500z"/><path fill="#c2c6c4" d="M600 0h100v100H600z"/><path fill="#cdcfd1" d="M700 0h100v100H700z"/><path fill="#595968" d="M0 100h100v100H0z"/><path fill="#262b39" d="M100 100h100v100H100z"/><path fill="#4a5c56" d="M200 100h100v100H200z"/><path fill="#3c5a3f" d="M300 100h100v100H300z"/><path fill="#43753e" d="M400 100h100v100H400z"/><path fill="#33443c" d="M500 100h100v100H500z"/><path fill="#273830" d="M600 100h100v100H600z"/><path fill="#3f4851" d="M700 100h100v100H700z"/><path fill="#625f70" d="M0 200h100v100H0z"/><path fill="#304140" d="M100 200h100v100H100z"/><path fill="#4e7d4d" d="M200 200h100v100H200z"/><path fill="#405b3e" d="M300 200h100v100H300z"/><path fill="#4b7e3f" d="M400 200h100v100H400z"/><path fill="#395539" d="M500 200h100v100H500z"/><path fill="#37453f" d="M600 200h100v100H600z"/><path fill="#444954" d="M700 200h100v100H700z"/><path fill="#565162" d="M0 300h100v100H0z"/><path fill="#262538" d="M100 300h100v100H100z"/><path fill="#313744" d="M200 300h100v100H200z"/><path fill="#323353" d="M300 300h100v100H300z"/><path fill="#2f2c50" d="M400 300h100v100H400z"/><path fill="#2f3644" d="M500 300h100v100H500z"/><path fill="#334548" d="M600 300h100v100H600z"/><path fill="#2e2c3f" d="M700 300h100v100H700z"/><path fill="#96949c" d="M0 400h100v100H0z"/><path fill="#878393" d="M100 400h100v100H100z"/><path fill="#9188a6" d="M200 400h100v100H200z"/><path fill="#8881a5" d="M300 400h100v100H300z"/><path fill="#7d7793" d="M400 400h100v100H400z"/><path fill="#8e83a9" d="M500 400h100v100H500z"/><path fill="#838593" d="M600 400h100v100H600z"/><path fill="#898496" d="M700 400h100v100H700z"/></svg>