<svg xmlns="http://www.w3.org/2000/svg" viewBox="0 0 800 400"><defs/><path fill="#fcd8bf" d="M0 0h100v100H0z"/><path fill="#efefee" d="M100 0h100v100H100z"/><path fill="#afbcc3" d="M200 0h100v100H200z"/><path fill="#e0d89a" d="M300 0h100v100H300z"/><path fill="#f9e477" d="M400 0h100v100H400z"/><path fill="#f0f3f4" d="M500 0h100v100H500z"/><path fill="#f1f5f9" d="M600 0h100v100H600z"/><path fill="#f7d8c5" d="M700 0h100v100H700z"/><path fill="#f7dcc8" d="M0 100h100v100H0z"/><path fill="#f5f8ff" d="M100 100h100v100H100z"/><path fill="#6e817b" d="M200 100h100v100H200z"/><path fill="#c2bf9c" d="M300 100h100v100H300z"/><path fill="#fbf7e8" d="M400 100h100v100H400z"/><path fill="#eff0ee" d="M500 100h100v100H500z"/><path fill="#f3f5f6" d="M600 100h100v100H600z"/><path fill="#f9d9b4" d="M700 100h100v100H700z"/><path fill="#fae5da" d="M0 200h100v100H0z"/><path fill="#dbe2d6" d="M100 200h100v100H100z"/><path fill="#daddc5" d="M200 200h100v100H200z"/><path fill="#efdcd6" d="M300 200h100v100H300z"/><path fill="#d1e0e8" d="M400 200h100v100H400z"/><path fill="#f3e7c9" d="M500 200h100v100H500z"/><path fill="#c6d5d5" d="M600 200h100v100H600z"/><path fill="#d7c39c" d="M700 200h100v100H700z"/><path fill="#e3e4e4" d="M0 300h100v100H0z"/><path fill="#b2d6df" d="M100 300h100v100H100z"/><path fill="#dde9ea" d="M200 300h100v100H200z"/><path fill="#dcdcda" d="M300 300h100v100H300z"/><path fill="#c1d8e2" d="M400 300h100v100H400z"/><path fill="#f8f3ef" d="M500 300h100v100H500z"/><path fill="#dae8ef" d="M600 300h100v100H600z"/><path fill="#b8d0d8" d="M700 300h100v100H700z"/></svg>