<svg xmlns="http://www.w3.org/2000/svg" viewBox="0 0 800 400"><defs/><path fill="#5e84b3" d="M0 0h100v100H0z"/><path fill="#6d9ccd" d="M100 0h100v100H100z"/><path fill="#6996c8" d="M200 0h100v100H200z"/><path fill="#6691c3" d="M300 0h100v100H300z"/><path fill="#4d658b" d="M400 0h100v100H400z"/><path fill="#628aba" d="M500 0h100v100H500z"/><path fill="#548cc5" d="M600 0h100v100H600z"/><path fill="#5f8ec2" d="M700 0h100v100H700z"/><path fill="#6189b7" d="M0 100h100v100H0z"/><path fill="#6f9cce" d="M100 100h100v100H100z"/><path fill="#6996c9" d="M200 100h100v100H200z"/><path fill="#638dbe" d="M300 100h100v100H300z"/><path fill="#557098" d="M400 100h100v100H400z"/><path fill="#5b7da6" d="M500 100h100v100H500z"/><path fill="#2c4569" d="M600 100h100v100H600z"/><path fill="#567fb0" d="M700 100h100v100H700z"/><path fill="#6996c6" d="M0 200h100v100H0z"/><path fill="#5b84b3" d="M100 200h100v100H100z"/><path fill="#335f98" d="M200 200h100v100H200z"/><path fill="#34517b" d="M300 200h100v100H300z"/><path fill="#4971a8" d="M400 200h100v100H400z"/><path fill="#466186" d="M500 200h100v100H500z"/><path fill="#1f3255" d="M600 200h100v100H600z"/><path fill="#3f5b85" d="M700 200h100v100H700z"/><path fill="#6794c6" d="M0 300h100v100H0z"/><path fill="#3b638d" d="M100 300h100v100H100z"/><path fill="#3b547a" d="M200 300h100v100H200z"/><path fill="#3b5578" d="M300 300h100v100H300z"/><path fill="#1d3d62" d="M400 300h100v100H400z"/><path fill="#375272" d="M500 300h100v100H500z"/><path fill="#142e4d" d="M600 300h100v100H600z"/><path fill="#194069" d="M700 300h100v100H700z"/></svg>