<svg xmlns="http://www.w3.org/2000/svg" viewBox="0 0 800 600"><defs/><path fill="#f5edf3" d="M0 0h100v100H0z"/><path fill="#ebe7f0" d="M100 0h100v100H100z"/><path fill="#e3e0dd" d="M200 0h100v100H200z"/><path fill="#eee6e3" d="M300 0h100v100H300z"/><path fill="#f4f2ee" d="M400 0h100v100H400z"/><path fill="#f0e8e7" d="M500 0h100v100H500z"/><path fill="#ebe4e8" d="M600 0h100v100H600z"/><path fill="#f3f2f5" d="M700 0h100v100H700z"/><path fill="#c094af" d="M0 100h100v100H0z"/><path fill="#9181b1" d="M100 100h100v100H100z"/><path fill="#5d5b94" d="M200 100h100v100H200z"/><path fill="#6f65b5" d="M300 100h100v100H300z"/><path fill="#7671c2" d="M400 100h100v100H400z"/><path fill="#7b71b0" d="M500 100h100v100H500z"/><path fill="#a89ab2" d="M600 100h100v100H600z"/><path fill="#b4a6bb" d="M700 100h100v100H700z"/><path fill="#b992ad" d="M0 200h100v100H0z"/><path fill="#8077a2" d="M100 200h100v100H100z"/><path fill="#854f9e" d="M200 200h100v100H200z"/><path fill="#b66bbb" d="M300 200h100v100H300z"/><path fill="#b062b1" d="M400 200h100v100H400z"/><path fill="#9766ab" d="M500 200h100v100H500z"/><path fill="#a6a2bc" d="M600 200h100v100H600z"/><path fill="#a894b0" d="M700 200h100v100H700z"/><path fill="#b093b1" d="M0 300h100v100H0z"/><path fill="#897fa8" d="M100 300h100v100H100z"/><path fill="#9b81ae" d="M200 300h100v100H200z"/><path fill="#bf9aca" d="M300 300h100v100H300z"/><path fill="#c69dc4" d="M400 300h100v100H400z"/><path fill="#ae90c0" d="M500 300h100v100H500z"/><path fill="#9d8fbb" d="M600 300h100v100H600z"/><path fill="#94788c" d="M700 300h100v100H700z"/><path fill="#aea1c4" d="M0 400h100v100H0z"/><path fill="#a2a7dc" d="M100 400h100v100H100z"/><path fill="#a5c0ec" d="M200 400h100v100H200z"/><path fill="#96b1e9" d="M300 400h100v100H300z"/><path fill="#9ab7f2" d="M400 400h100v100H400z"/><path fill="#afb3e6" d="M500 400h100v100H500z"/><path fill="#b39ca2" d="M600 400h100v100H600z"/><path fill="#a8867f" d="M700 400h100v100H700z"/><path fill="#ebedf9" d="M0 500h100v100H0z"/><path fill="#e1e8f7" d="M100 500h100v100H100z"/><path fill="#dbe5f4" d="M200 500h100v100H200z"/><path fill="#dee9f8" d="M300 500h100v100H300z"/><path fill="#e0ecfe" d="M400 500h100v100H400z"/><path fill="#e7e8f0" d="M500 500h100v100H500z"/><path fill="#ede7df" d="M600 500h100v100H600z"/><path fill="#ece3e2" d="M700 500h100v100H700z"/></svg>