<svg xmlns="http://www.w3.org/2000/svg" viewBox="0 0 800 600"><defs/><path fill="#f6f6f6" d="M0 0h100v100H0z"/><path fill="#f4f4f4" d="M100 0h100v100H100z"/><path fill="#f1f1f2" d="M200 0h100v100H200z"/><path fill="#f3f2f2" d="M300 0h100v100H300z"/><path fill="#f0f4f2" d="M400 0h100v100H400z"/><path fill="#ebefef" d="M500 0h100v100H500z"/><path fill="#f2f2f2" d="M600 0h100v100H600z"/><path fill="#f3f3f3" d="M700 0h100v100H700z"/><path fill="#767676" d="M0 100h100v100H0z"/><path fill="#645d65" d="M100 100h100v100H100z"/><path fill="#63615d" d="M200 100h100v100H200z"/><path fill="#444c49" d="M300 100h100v100H300z"/><path fill="#897661" d="M400 100h100v100H400z"/><path fill="#6c554e" d="M500 100h100v100H500z"/><path fill="#373b3c" d="M600 100h100v100H600z"/><path fill="#565758" d="M700 100h100v100H700z"/><path fill="#737172" d="M0 200h100v100H0z"/><path fill="#4e4750" d="M100 200h100v100H100z"/><path fill="#454239" d="M200 200h100v100H200z"/><path fill="#3b3b3c" d="M300 200h100v100H300z"/><path fill="#596c5c" d="M400 200h100v100H400z"/><path fill="#5d6552" d="M500 200h100v100H500z"/><path fill="#333237" d="M600 200h100v100H600z"/><path fill="#424648" d="M700 200h100v100H700z"/><path fill="#78767a" d="M0 300h100v100H0z"/><path fill="#605c5c" d="M100 300h100v100H100z"/><path fill="#595348" d="M200 300h100v100H200z"/><path fill="#574e4c" d="M300 300h100v100H300z"/><path fill="#509f76" d="M400 300h100v100H400z"/><path fill="#467c60" d="M500 300h100v100H500z"/><path fill="#605350" d="M600 300h100v100H600z"/><path fill="#595653" d="M700 300h100v100H700z"/><path fill="#827a7a" d="M0 400h100v100H0z"/><path fill="#827578" d="M100 400h100v100H100z"/><path fill="#6c5754" d="M200 400h100v100H200z"/><path fill="#604d48" d="M300 400h100v100H300z"/><path fill="#857271" d="M400 400h100v100H400z"/><path fill="#8b7676" d="M500 400h100v100H500z"/><path fill="#a18b84" d="M600 400h100v100H600z"/><path fill="#8d7b6e" d="M700 400h100v100H700z"/><path fill="#cec5bf" d="M0 500h100v100H0z"/><path fill="#c6bcbd" d="M100 500h100v100H100z"/><path fill="#c2b9b9" d="M200 500h100v100H200z"/><path fill="#b4abac" d="M300 500h100v100H300z"/><path fill="#bfb9b9" d="M400 500h100v100H400z"/><path fill="#c4bdbd" d="M500 500h100v100H500z"/><path fill="#c6bdbe" d="M600 500h100v100H600z"/><path fill="#cac1bb" d="M700 500h100v100H700z"/></svg>