<svg xmlns="http://www.w3.org/2000/svg" viewBox="0 0 800 500"><defs/><path fill="#dbc896" d="M0 0h100v100H0z"/><path fill="#a99866" d="M100 0h100v100H100z"/><path fill="#37463e" d="M200 0h100v100H200z"/><path fill="#546f62" d="M300 0h100v100H300z"/><path fill="#96c0a9" d="M400 0h100v100H400z"/><path fill="#94bca6" d="M500 0h100v100H500z"/><path fill="#6c6552" d="M600 0h100v100H600z"/><path fill="#4c3d34" d="M700 0h100v100H700z"/><path fill="#c2b17f" d="M0 100h100v100H0z"/><path fill="#958952" d="M100 100h100v100H100z"/><path fill="#18322a" d="M200 100h100v100H200z"/><path fill="#325448" d="M300 100h100v100H300z"/><path fill="#8ac6a8" d="M400 100h100v100H400z"/><path fill="#719a86" d="M500 100h100v100H500z"/><path fill="#453322" d="M600 100h100v100H600z"/><path fill="#262114" d="M700 100h100v100H700z"/><path fill="#c1ab7f" d="M0 200h100v100H0z"/><path fill="#7d7b51" d="M100 200h100v100H100z"/><path fill="#465d49" d="M200 200h100v100H200z"/><path fill="#494834" d="M300 200h100v100H300z"/><path fill="#5d6955" d="M400 200h100v100H400z"/><path fill="#5b705b" d="M500 200h100v100H500z"/><path fill="#463829" d="M600 200h100v100H600z"/><path fill="#2b2019" d="M700 200h100v100H700z"/><path fill="#a39270" d="M0 300h100v100H0z"/><path fill="#575136" d="M100 300h100v100H100z"/><path fill="#8b7d63" d="M200 300h100v100H200z"/><path fill="#593a24" d="M300 300h100v100H300z"/><path fill="#3e251b" d="M400 300h100v100H400z"/><path fill="#422f24" d="M500 300h100v100H500z"/><path fill="#3b3126" d="M600 300h100v100H600z"/><path fill="#1e150e" d="M700 300h100v100H700z"/><path fill="#958472" d="M0 400h100v100H0z"/><path fill="#867564" d="M100 400h100v100H100z"/><path fill="#806f68" d="M200 400h100v100H200z"/><path fill="#61524d" d="M300 400h100v100H300z"/><path fill="#573d3a" d="M400 400h100v100H400z"/><path fill="#594441" d="M500 400h100v100H500z"/><path fill="#594a47" d="M600 400h100v100H600z"/><path fill="#3b3734" d="M700 400h100v100H700z"/></svg>