<svg xmlns="http://www.w3.org/2000/svg" viewBox="0 0 800 500"><defs/><path fill="#e1e6e9" d="M0 0h100v100H0z"/><path fill="#d6dde0" d="M100 0h100v100H100z"/><path fill="#dce1e4" d="M200 0h100v100H200z"/><path fill="#e0e5e8" d="M300 0h100v100H300z"/><path fill="#dce2e4" d="M400 0h100v100H400z"/><path fill="#e1e6e9" d="M500 0h100v100H500z"/><path fill="#e1e7e9" d="M600 0h100v100H600z"/><path fill="#e4e9eb" d="M700 0h100v100H700z"/><path fill="#a1b6c1" d="M0 100h100v100H0z"/><path fill="#66818f" d="M100 100h100v100H100z"/><path fill="#8ba5b2" d="M200 100h100v100H200z"/><path fill="#90a8b5" d="M300 100h100v100H300z"/><path fill="#78919e" d="M400 100h100v100H400z"/><path fill="#809aa7" d="M500 100h100v100H500z"/><path fill="#97b2be" d="M600 100h100v100H600z"/><path fill="#99b3bf" d="M700 100h100v100H700z"/><path fill="#a0b4be" d="M0 200h100v100H0z"/><path fill="#758f9c" d="M100 200h100v100H100z"/><path fill="#90a9b6" d="M200 200h100v100H200z"/><path fill="#97a5ab" d="M300 200h100v100H300z"/><path fill="#9da4a6" d="M400 200h100v100H400z"/><path fill="#8fa4ad" d="M500 200h100v100H500z"/><path fill="#97b2bf" d="M600 200h100v100H600z"/><path fill="#a2bbc7" d="M700 200h100v100H700z"/><path fill="#8ca2ac" d="M0 300h100v100H0z"/><path fill="#4f6b7a" d="M100 300h100v100H100z"/><path fill="#67818e" d="M200 300h100v100H200z"/><path fill="#80949d" d="M300 300h100v100H300z"/><path fill="#8e989c" d="M400 300h100v100H400z"/><path fill="#83949a" d="M500 300h100v100H500z"/><path fill="#657e8b" d="M600 300h100v100H600z"/><path fill="#75909e" d="M700 300h100v100H700z"/><path fill="#a0aeb4" d="M0 400h100v100H0z"/><path fill="#7c8d95" d="M100 400h100v100H100z"/><path fill="#b0c1c9" d="M200 400h100v100H200z"/><path fill="#b6c4cb" d="M300 400h100v100H300z"/><path fill="#a7b6bd" d="M400 400h100v100H400z"/><path fill="#bbccd5" d="M500 400h100v100H500z"/><path fill="#9baab2" d="M600 400h100v100H600z"/><path fill="#78888f" d="M700 400h100v100H700z"/></svg>