<svg xmlns="http://www.w3.org/2000/svg" viewBox="0 0 800 800"><defs/><path fill="#fff9e6" d="M0 0h100v100H0z"/><path fill="#fffae8" d="M100 0h100v100H100z"/><path fill="#fff9e8" d="M200 0h100v100H200zm100 0h100v100H300z"/><path fill="#fffae8" d="M400 0h100v100H400z"/><path fill="#fffae7" d="M500 0h100v100H500z"/><path fill="#fffbe9" d="M600 0h100v100H600z"/><path fill="#fff9e7" d="M700 0h100v100H700z"/><path fill="#f4f3e4" d="M0 100h100v100H0z"/><path fill="#f1f2e3" d="M100 100h100v100H100z"/><path fill="#fff8e5" d="M200 100h100v100H200z"/><path fill="#fdf8e4" d="M300 100h100v100H300z"/><path fill="#fcf6e2" d="M400 100h100v100H400z"/><path fill="#fef7e5" d="M500 100h100v100H500z"/><path fill="#fcf5e3" d="M600 100h100v100H600z"/><path fill="#fdf6e4" d="M700 100h100v100H700z"/><path fill="#d5d5c7" d="M0 200h100v100H0z"/><path fill="#8ba58d" d="M100 200h100v100H100z"/><path fill="#90bf8f" d="M200 200h100v100H200z"/><path fill="#8cbe8f" d="M300 200h100v100H300z"/><path fill="#8dac8d" d="M400 200h100v100H400z"/><path fill="#b29183" d="M500 200h100v100H500z"/><path fill="#836751" d="M600 200h100v100H600z"/><path fill="#bcbfae" d="M700 200h100v100H700z"/><path fill="#f0ebd9" d="M0 300h100v100H0z"/><path fill="#d4d7c2" d="M100 300h100v100H100z"/><path fill="#d4e1c6" d="M200 300h100v100H200z"/><path fill="#d2c8af" d="M300 300h100v100H300z"/><path fill="#d1b29c" d="M400 300h100v100H400z"/><path fill="#d2a893" d="M500 300h100v100H500z"/><path fill="#c2947d" d="M600 300h100v100H600z"/><path fill="#e6d5c1" d="M700 300h100v100H700z"/><path fill="#fffbe9" d="M0 400h100v100H0z"/><path fill="#ffe" d="M100 400h100v100H100z"/><path fill="#ffffef" d="M200 400h100v100H200z"/><path fill="#fff8e7" d="M300 400h100v100H300z"/><path fill="#fff2e0" d="M400 400h100v100H400z"/><path fill="#fff9e7" d="M500 400h100v100H500z"/><path fill="#fffbe9" d="M600 400h100v100H600z"/><path fill="#fff8e6" d="M700 400h100v100H700z"/><path fill="#fef7e5" d="M0 500h100v100H0zm100 0h100v100H100zm100 0h100v100H200z"/><path fill="#fefae8" d="M300 500h100v100H300z"/><path fill="#fffcea" d="M400 500h100v100H400z"/><path fill="#fef8e6" d="M500 500h100v100H500z"/><path fill="#fdf8e6" d="M600 500h100v100H600z"/><path fill="#fef8e6" d="M700 500h100v100H700z"/><path fill="#fff8e6" d="M0 600h100v100H0zm100 0h100v100H100zm100 0h100v100H200z"/><path fill="#fef1de" d="M300 600h100v100H300z"/><path fill="#fce7d4" d="M400 600h100v100H400z"/><path fill="#fff8e6" d="M500 600h100v100H500zm100 0h100v100H600zm100 0h100v100H700zM0 700h100v100H0zm100 0h100v100H100z"/><path fill="#fff9e7" d="M200 700h100v100H200z"/><path fill="#fad6c1" d="M300 700h100v100H300z"/><path fill="#f9d4bf" d="M400 700h100v100H400z"/><path fill="#fffae8" d="M500 700h100v100H500z"/><path fill="#fff8e6" d="M600 700h100v100H600zm100 0h100v100H700z"/></svg>