<svg xmlns="http://www.w3.org/2000/svg" viewBox="0 0 800 500"><defs/><path fill="#231f21" d="M0 0h100v100H0z"/><path fill="#2b2024" d="M100 0h100v100H100z"/><path fill="#281e20" d="M200 0h100v100H200z"/><path fill="#271d1e" d="M300 0h100v100H300z"/><path fill="#2e2326" d="M400 0h100v100H400z"/><path fill="#2a2024" d="M500 0h100v100H500z"/><path fill="#2f2226" d="M600 0h100v100H600z"/><path fill="#251f22" d="M700 0h100v100H700z"/><path fill="#392a2f" d="M0 100h100v100H0z"/><path fill="#4a242a" d="M100 100h100v100H100z"/><path fill="#826163" d="M200 100h100v100H200z"/><path fill="#947778" d="M300 100h100v100H300z"/><path fill="#4c262a" d="M400 100h100v100H400z"/><path fill="#693a3e" d="M500 100h100v100H500z"/><path fill="#45282f" d="M600 100h100v100H600z"/><path fill="#452e33" d="M700 100h100v100H700z"/><path fill="#3a2b2e" d="M0 200h100v100H0z"/><path fill="#482527" d="M100 200h100v100H100z"/><path fill="#856765" d="M200 200h100v100H200z"/><path fill="#8e726f" d="M300 200h100v100H300z"/><path fill="#351c20" d="M400 200h100v100H400z"/><path fill="#4b2120" d="M500 200h100v100H500z"/><path fill="#3b2f32" d="M600 200h100v100H600z"/><path fill="#554347" d="M700 200h100v100H700z"/><path fill="#302228" d="M0 300h100v100H0z"/><path fill="#724239" d="M100 300h100v100H100z"/><path fill="#ba6956" d="M200 300h100v100H200z"/><path fill="#b96552" d="M300 300h100v100H300z"/><path fill="#5d4147" d="M400 300h100v100H400z"/><path fill="#623533" d="M500 300h100v100H500z"/><path fill="#82514d" d="M600 300h100v100H600z"/><path fill="#493c42" d="M700 300h100v100H700z"/><path fill="#292122" d="M0 400h100v100H0z"/><path fill="#523630" d="M100 400h100v100H100z"/><path fill="#72473a" d="M200 400h100v100H200z"/><path fill="#82593d" d="M300 400h100v100H300z"/><path fill="#5c4132" d="M400 400h100v100H400z"/><path fill="#3c2d33" d="M500 400h100v100H500z"/><path fill="#3b2a30" d="M600 400h100v100H600z"/><path fill="#271d1e" d="M700 400h100v100H700z"/></svg>