<svg xmlns="http://www.w3.org/2000/svg" viewBox="0 0 800 400"><defs/><path fill="#2d7489" d="M0 0h100v100H0z"/><path fill="#34535e" d="M100 0h100v100H100z"/><path fill="#68877a" d="M200 0h100v100H200z"/><path fill="#4da997" d="M300 0h100v100H300z"/><path fill="#909869" d="M400 0h100v100H400z"/><path fill="#8c7052" d="M500 0h100v100H500z"/><path fill="#69665d" d="M600 0h100v100H600z"/><path fill="#4d7278" d="M700 0h100v100H700z"/><path fill="#2d6779" d="M0 100h100v100H0z"/><path fill="#1b6d8c" d="M100 100h100v100H100z"/><path fill="#8e9b6c" d="M200 100h100v100H200z"/><path fill="#76ca9a" d="M300 100h100v100H300z"/><path fill="#53cfb6" d="M400 100h100v100H400z"/><path fill="#b5a462" d="M500 100h100v100H500z"/><path fill="#b3854f" d="M600 100h100v100H600z"/><path fill="#776754" d="M700 100h100v100H700z"/><path fill="#1a607f" d="M0 200h100v100H0z"/><path fill="#496f6d" d="M100 200h100v100H100z"/><path fill="#c99d52" d="M200 200h100v100H200z"/><path fill="#bb7e40" d="M300 200h100v100H300z"/><path fill="#ad7448" d="M400 200h100v100H400z"/><path fill="#b47d4b" d="M500 200h100v100H500z"/><path fill="#ac834d" d="M600 200h100v100H600z"/><path fill="#7e6f47" d="M700 200h100v100H700z"/><path fill="#385962" d="M0 300h100v100H0z"/><path fill="#82724d" d="M100 300h100v100H100z"/><path fill="#a1925c" d="M200 300h100v100H200z"/><path fill="#997445" d="M300 300h100v100H300z"/><path fill="#bd7a3d" d="M400 300h100v100H400z"/><path fill="#b28243" d="M500 300h100v100H500z"/><path fill="#9b7b42" d="M600 300h100v100H600z"/><path fill="#69613d" d="M700 300h100v100H700z"/></svg>