<svg xmlns="http://www.w3.org/2000/svg" viewBox="0 0 800 500"><defs/><path fill="#e3f4ed" d="M0 0h100v100H0z"/><path fill="#e1e2db" d="M100 0h100v100H100z"/><path fill="#e5f0ea" d="M200 0h100v100H200z"/><path fill="#def9f2" d="M300 0h100v100H300z"/><path fill="#dff0e7" d="M400 0h100v100H400z"/><path fill="#e4ead9" d="M500 0h100v100H500z"/><path fill="#e9eadb" d="M600 0h100v100H600z"/><path fill="#dde9e2" d="M700 0h100v100H700z"/><path fill="#c4eed9" d="M0 100h100v100H0z"/><path fill="#bcae97" d="M100 100h100v100H100z"/><path fill="#d3e7d5" d="M200 100h100v100H200z"/><path fill="#d1e4b3" d="M300 100h100v100H300z"/><path fill="#d6e5ae" d="M400 100h100v100H400z"/><path fill="#dbc49e" d="M500 100h100v100H500z"/><path fill="#cdd3a4" d="M600 100h100v100H600z"/><path fill="#abb198" d="M700 100h100v100H700z"/><path fill="#c6e2d1" d="M0 200h100v100H0z"/><path fill="#c3b89e" d="M100 200h100v100H100z"/><path fill="#c7cc66" d="M200 200h100v100H200z"/><path fill="#bccc41" d="M300 200h100v100H300z"/><path fill="#c6e38c" d="M400 200h100v100H400z"/><path fill="#d6d162" d="M500 200h100v100H500z"/><path fill="#a8b35d" d="M600 200h100v100H600z"/><path fill="#a6ad80" d="M700 200h100v100H700z"/><path fill="#c4c5b6" d="M0 300h100v100H0z"/><path fill="#c4be8d" d="M100 300h100v100H100z"/><path fill="#969327" d="M200 300h100v100H200z"/><path fill="#80750a" d="M300 300h100v100H300z"/><path fill="#8e9119" d="M400 300h100v100H400z"/><path fill="#8d8217" d="M500 300h100v100H500z"/><path fill="#85830f" d="M600 300h100v100H600z"/><path fill="#919a56" d="M700 300h100v100H700z"/><path fill="#e4e2dd" d="M0 400h100v100H0z"/><path fill="#d9e3be" d="M100 400h100v100H100z"/><path fill="#b2b588" d="M200 400h100v100H200z"/><path fill="#aa9f82" d="M300 400h100v100H300z"/><path fill="#aca086" d="M400 400h100v100H400z"/><path fill="#aaa58c" d="M500 400h100v100H500z"/><path fill="#b1ac93" d="M600 400h100v100H600z"/><path fill="#bdb7b2" d="M700 400h100v100H700z"/></svg>