<svg xmlns="http://www.w3.org/2000/svg" viewBox="0 0 800 600"><defs/><path fill="#f0eaec" d="M0 0h100v100H0z"/><path fill="#cfc2be" d="M100 0h100v100H100z"/><path fill="#ccbdb3" d="M200 0h100v100H200z"/><path fill="#c9baaf" d="M300 0h100v100H300z"/><path fill="#c6b6ab" d="M400 0h100v100H400z"/><path fill="#c8b6ab" d="M500 0h100v100H500z"/><path fill="#cdbab1" d="M600 0h100v100H600z"/><path fill="#d7c0b7" d="M700 0h100v100H700z"/><path fill="#f2e3e2" d="M0 100h100v100H0z"/><path fill="#d1c7c1" d="M100 100h100v100H100z"/><path fill="#d5cbc4" d="M200 100h100v100H200z"/><path fill="#dbd0c7" d="M300 100h100v100H300z"/><path fill="#dcd2c8" d="M400 100h100v100H400z"/><path fill="#dacfc7" d="M500 100h100v100H500z"/><path fill="#e1d8d8" d="M600 100h100v100H600z"/><path fill="#f0e2e4" d="M700 100h100v100H700z"/><path fill="#e4d1d1" d="M0 200h100v100H0z"/><path fill="#b5aba1" d="M100 200h100v100H100z"/><path fill="#c2b3a5" d="M200 200h100v100H200z"/><path fill="#cabeb2" d="M300 200h100v100H300z"/><path fill="#ccc1b8" d="M400 200h100v100H400z"/><path fill="#cec3bc" d="M500 200h100v100H500z"/><path fill="#d1c6c2" d="M600 200h100v100H600z"/><path fill="#dec9c3" d="M700 200h100v100H700z"/><path fill="#d2c2c2" d="M0 300h100v100H0z"/><path fill="#aaa19a" d="M100 300h100v100H100z"/><path fill="#c2b2a6" d="M200 300h100v100H200z"/><path fill="#c2b7ae" d="M300 300h100v100H300z"/><path fill="#c3b9b3" d="M400 300h100v100H400z"/><path fill="#c7b8af" d="M500 300h100v100H500z"/><path fill="#c9b7aa" d="M600 300h100v100H600z"/><path fill="#d0bab2" d="M700 300h100v100H700z"/><path fill="#baa5a0" d="M0 400h100v100H0z"/><path fill="#ac9d9a" d="M100 400h100v100H100z"/><path fill="#b8a496" d="M200 400h100v100H200z"/><path fill="#baaba1" d="M300 400h100v100H300z"/><path fill="#bcb0a7" d="M400 400h100v100H400z"/><path fill="#bbaa9e" d="M500 400h100v100H500z"/><path fill="#c2b0aa" d="M600 400h100v100H600z"/><path fill="#c8b1b0" d="M700 400h100v100H700z"/><path fill="#d4b5ba" d="M0 500h100v100H0z"/><path fill="#c5acb0" d="M100 500h100v100H100z"/><path fill="#bdabac" d="M200 500h100v100H200z"/><path fill="#bcaeaf" d="M300 500h100v100H300z"/><path fill="#bcb0b4" d="M400 500h100v100H400z"/><path fill="#b9a9ae" d="M500 500h100v100H500z"/><path fill="#c0abae" d="M600 500h100v100H600z"/><path fill="#c7acb1" d="M700 500h100v100H700z"/></svg>