<svg xmlns="http://www.w3.org/2000/svg" viewBox="0 0 800 400"><defs/><path fill="#6a4437" d="M0 0h100v100H0z"/><path fill="#a3654f" d="M100 0h100v100H100z"/><path fill="#be7f63" d="M200 0h100v100H200z"/><path fill="#9f7059" d="M300 0h100v100H300z"/><path fill="#98624c" d="M400 0h100v100H400z"/><path fill="#ba7858" d="M500 0h100v100H500z"/><path fill="#e39a77" d="M600 0h100v100H600z"/><path fill="#b5674b" d="M700 0h100v100H700z"/><path fill="#71493b" d="M0 100h100v100H0z"/><path fill="#895445" d="M100 100h100v100H100z"/><path fill="#8a5547" d="M200 100h100v100H200z"/><path fill="#86584b" d="M300 100h100v100H300z"/><path fill="#956445" d="M400 100h100v100H400z"/><path fill="#c98465" d="M500 100h100v100H500z"/><path fill="#f0ad95" d="M600 100h100v100H600z"/><path fill="#aa644c" d="M700 100h100v100H700z"/><path fill="#664034" d="M0 200h100v100H0z"/><path fill="#624238" d="M100 200h100v100H100z"/><path fill="#7c4e49" d="M200 200h100v100H200z"/><path fill="#97605c" d="M300 200h100v100H300z"/><path fill="#a36152" d="M400 200h100v100H400z"/><path fill="#9e5d5c" d="M500 200h100v100H500z"/><path fill="#955959" d="M600 200h100v100H600z"/><path fill="#75463a" d="M700 200h100v100H700z"/><path fill="#6e463c" d="M0 300h100v100H0z"/><path fill="#754e40" d="M100 300h100v100H100z"/><path fill="#734b43" d="M200 300h100v100H200z"/><path fill="#754844" d="M300 300h100v100H300z"/><path fill="#76403f" d="M400 300h100v100H400z"/><path fill="#6c3e41" d="M500 300h100v100H500z"/><path fill="#683a37" d="M600 300h100v100H600z"/><path fill="#683930" d="M700 300h100v100H700z"/></svg>