<svg xmlns="http://www.w3.org/2000/svg" viewBox="0 0 800 600"><defs/><path fill="#f4f3f2" d="M0 0h100v100H0z"/><path fill="#efede6" d="M100 0h100v100H100z"/><path fill="#f6f6f5" d="M200 0h100v100H200z"/><path fill="#f5f5f8" d="M300 0h100v100H300z"/><path fill="#f2f3f5" d="M400 0h100v100H400z"/><path fill="#f3f4f4" d="M500 0h100v100H500z"/><path fill="#f2f3f3" d="M600 0h100v100H600z"/><path fill="#f3f4f4" d="M700 0h100v100H700z"/><path fill="#d3d3d0" d="M0 100h100v100H0z"/><path fill="#a6a7a3" d="M100 100h100v100H100z"/><path fill="#d6d6cf" d="M200 100h100v100H200z"/><path fill="#c6c8ce" d="M300 100h100v100H300z"/><path fill="#dddede" d="M400 100h100v100H400z"/><path fill="#c0c0bc" d="M500 100h100v100H500z"/><path fill="#989a9b" d="M600 100h100v100H600z"/><path fill="#ced1cd" d="M700 100h100v100H700z"/><path fill="#caccca" d="M0 200h100v100H0z"/><path fill="#aebab9" d="M100 200h100v100H100z"/><path fill="#d9dcdc" d="M200 200h100v100H200z"/><path fill="#93a1af" d="M300 200h100v100H300z"/><path fill="#97a8c0" d="M400 200h100v100H400z"/><path fill="#b6bdc0" d="M500 200h100v100H500z"/><path fill="#98a2a3" d="M600 200h100v100H600z"/><path fill="#c7cbcc" d="M700 200h100v100H700z"/><path fill="#c1c2c4" d="M0 300h100v100H0z"/><path fill="#b3b1ab" d="M100 300h100v100H100z"/><path fill="#b9b9ba" d="M200 300h100v100H200z"/><path fill="#7a9db6" d="M300 300h100v100H300z"/><path fill="#6d98ae" d="M400 300h100v100H400z"/><path fill="#9da3b1" d="M500 300h100v100H500z"/><path fill="#b3b8bf" d="M600 300h100v100H600z"/><path fill="#bdc0c2" d="M700 300h100v100H700z"/><path fill="#b6bab2" d="M0 400h100v100H0z"/><path fill="#b1a374" d="M100 400h100v100H100z"/><path fill="#caad68" d="M200 400h100v100H200z"/><path fill="#aa9b79" d="M300 400h100v100H300z"/><path fill="#b5a172" d="M400 400h100v100H400z"/><path fill="#b7a370" d="M500 400h100v100H500z"/><path fill="#9b8f6d" d="M600 400h100v100H600z"/><path fill="#afa486" d="M700 400h100v100H700z"/><path fill="#d8d3c0" d="M0 500h100v100H0z"/><path fill="#ded2b0" d="M100 500h100v100H100z"/><path fill="#e3d3ad" d="M200 500h100v100H200z"/><path fill="#e6d5ad" d="M300 500h100v100H300z"/><path fill="#e4d3aa" d="M400 500h100v100H400z"/><path fill="#e3d5b0" d="M500 500h100v100H500z"/><path fill="#ddcfa9" d="M600 500h100v100H600z"/><path fill="#cdc6b2" d="M700 500h100v100H700z"/></svg>