<svg xmlns="http://www.w3.org/2000/svg" viewBox="0 0 800 400"><defs/><path fill="#eaeaea" d="M0 0h100v100H0z"/><path fill="#cbcbcc" d="M100 0h100v100H100z"/><path fill="#f1f0f0" d="M200 0h100v100H200z"/><path fill="#fdfbfa" d="M300 0h100v100H300z"/><path fill="#faf8f6" d="M400 0h100v100H400z"/><path fill="#faf8f7" d="M500 0h100v100H500z"/><path fill="#f5f5f4" d="M600 0h100v100H600z"/><path fill="#ebebeb" d="M700 0h100v100H700z"/><path fill="#e5e5e7" d="M0 100h100v100H0z"/><path fill="#c4c1bb" d="M100 100h100v100H100z"/><path fill="#d9dfd5" d="M200 100h100v100H200z"/><path fill="#d0dfea" d="M300 100h100v100H300z"/><path fill="#c7dae5" d="M400 100h100v100H400z"/><path fill="#c8dbe7" d="M500 100h100v100H500z"/><path fill="#ebf3f8" d="M600 100h100v100H600z"/><path fill="#f5f5f6" d="M700 100h100v100H700z"/><path fill="#cfd0d1" d="M0 200h100v100H0z"/><path fill="#b1b1b0" d="M100 200h100v100H100z"/><path fill="#b4b8b9" d="M200 200h100v100H200z"/><path fill="#bab5b5" d="M300 200h100v100H300z"/><path fill="#afb6bc" d="M400 200h100v100H400z"/><path fill="#b9bcc1" d="M500 200h100v100H500z"/><path fill="#d2d2cf" d="M600 200h100v100H600z"/><path fill="#f0ece4" d="M700 200h100v100H700z"/><path fill="#c4c2c1" d="M0 300h100v100H0z"/><path fill="#c5afa5" d="M100 300h100v100H100z"/><path fill="#dbb3a2" d="M200 300h100v100H200z"/><path fill="#dfc0b1" d="M300 300h100v100H300z"/><path fill="#dfb6a3" d="M400 300h100v100H400z"/><path fill="#dfb3a2" d="M500 300h100v100H500z"/><path fill="#d7b49b" d="M600 300h100v100H600z"/><path fill="#d8c3ad" d="M700 300h100v100H700z"/></svg>