<svg xmlns="http://www.w3.org/2000/svg" viewBox="0 0 800 400"><defs/><path fill="#4b1d26" d="M0 0h100v100H0z"/><path fill="#441d23" d="M100 0h100v100H100z"/><path fill="#4e1f28" d="M200 0h100v100H200z"/><path fill="#643133" d="M300 0h100v100H300z"/><path fill="#864959" d="M400 0h100v100H400z"/><path fill="#572835" d="M500 0h100v100H500z"/><path fill="#401722" d="M600 0h100v100H600z"/><path fill="#431720" d="M700 0h100v100H700z"/><path fill="#4a1d25" d="M0 100h100v100H0z"/><path fill="#431c22" d="M100 100h100v100H100z"/><path fill="#461c25" d="M200 100h100v100H200z"/><path fill="#6d3437" d="M300 100h100v100H300z"/><path fill="#ac5d5c" d="M400 100h100v100H400z"/><path fill="#53292b" d="M500 100h100v100H500z"/><path fill="#411b1e" d="M600 100h100v100H600z"/><path fill="#3b161b" d="M700 100h100v100H700z"/><path fill="#4a1e26" d="M0 200h100v100H0z"/><path fill="#35171b" d="M100 200h100v100H100z"/><path fill="#5d2933" d="M200 200h100v100H200z"/><path fill="#5e2a35" d="M300 200h100v100H300z"/><path fill="#5c3337" d="M400 200h100v100H400z"/><path fill="#613637" d="M500 200h100v100H500z"/><path fill="#602b31" d="M600 200h100v100H600z"/><path fill="#3c181c" d="M700 200h100v100H700z"/><path fill="#401a20" d="M0 300h100v100H0z"/><path fill="#452025" d="M100 300h100v100H100z"/><path fill="#67303a" d="M200 300h100v100H200z"/><path fill="#652f3a" d="M300 300h100v100H300z"/><path fill="#69333f" d="M400 300h100v100H400z"/><path fill="#803d4f" d="M500 300h100v100H500z"/><path fill="#733641" d="M600 300h100v100H600z"/><path fill="#471e21" d="M700 300h100v100H700z"/></svg>