<svg xmlns="http://www.w3.org/2000/svg" viewBox="0 0 800 600"><defs/><path fill="#f9f9f8" d="M0 0h100v100H0z"/><path fill="#f2ece5" d="M100 0h100v100H100z"/><path fill="#f5f4f4" d="M200 0h100v100H200z"/><path fill="#f8f9f9" d="M300 0h100v100H300z"/><path fill="#f8f9fa" d="M400 0h100v100H400z"/><path fill="#f5f3f3" d="M500 0h100v100H500z"/><path fill="#f5eceb" d="M600 0h100v100H600z"/><path fill="#f7f6f5" d="M700 0h100v100H700z"/><path fill="#f2efea" d="M0 100h100v100H0z"/><path fill="#d6b997" d="M100 100h100v100H100z"/><path fill="#e0e2e4" d="M200 100h100v100H200z"/><path fill="#e9e8e9" d="M300 100h100v100H300z"/><path fill="#e8eaed" d="M400 100h100v100H400z"/><path fill="#e0d6d4" d="M500 100h100v100H500z"/><path fill="#ddc5bf" d="M600 100h100v100H600z"/><path fill="#efe9e8" d="M700 100h100v100H700z"/><path fill="#ece2d7" d="M0 200h100v100H0z"/><path fill="#e2cbaf" d="M100 200h100v100H100z"/><path fill="#d1c7b8" d="M200 200h100v100H200z"/><path fill="#d5d3cc" d="M300 200h100v100H300z"/><path fill="#efefee" d="M400 200h100v100H400z"/><path fill="#e8e1de" d="M500 200h100v100H500z"/><path fill="#dbd7d2" d="M600 200h100v100H600z"/><path fill="#dfd4d1" d="M700 200h100v100H700z"/><path fill="#dbd0bf" d="M0 300h100v100H0z"/><path fill="#d4b9a5" d="M100 300h100v100H100z"/><path fill="#d7a470" d="M200 300h100v100H200z"/><path fill="#d8ae88" d="M300 300h100v100H300z"/><path fill="#d9b7af" d="M400 300h100v100H400z"/><path fill="#dcbeb7" d="M500 300h100v100H500z"/><path fill="#dbbfb7" d="M600 300h100v100H600z"/><path fill="#d8c4be" d="M700 300h100v100H700z"/><path fill="#daccc0" d="M0 400h100v100H0z"/><path fill="#dfbbae" d="M100 400h100v100H100z"/><path fill="#f9d4ce" d="M200 400h100v100H200z"/><path fill="#e7c4bc" d="M300 400h100v100H300z"/><path fill="#dfbab3" d="M400 400h100v100H400z"/><path fill="#f4c8c1" d="M500 400h100v100H500z"/><path fill="#e2c7bb" d="M600 400h100v100H600z"/><path fill="#d8d0c7" d="M700 400h100v100H700z"/><path fill="#fbf9f9" d="M0 500h100v100H0z"/><path fill="#fcf9fa" d="M100 500h100v100H100z"/><path fill="#fbf9fa" d="M200 500h100v100H200z"/><path fill="#faf8f8" d="M300 500h100v100H300z"/><path fill="#faf7f6" d="M400 500h100v100H400z"/><path fill="#faf8f8" d="M500 500h100v100H500z"/><path fill="#f9f8f8" d="M600 500h100v100H600z"/><path fill="#f8f7f8" d="M700 500h100v100H700z"/></svg>