<svg xmlns="http://www.w3.org/2000/svg" viewBox="0 0 800 500"><defs/><path fill="#cbbad7" d="M0 0h100v100H0z"/><path fill="#98a5bb" d="M100 0h100v100H100z"/><path fill="#82a497" d="M200 0h100v100H200z"/><path fill="#81b19a" d="M300 0h100v100H300z"/><path fill="#8a9b9c" d="M400 0h100v100H400z"/><path fill="#9b96a9" d="M500 0h100v100H500z"/><path fill="#8d9d9f" d="M600 0h100v100H600z"/><path fill="#b8bdc4" d="M700 0h100v100H700z"/><path fill="#ab9fc2" d="M0 100h100v100H0z"/><path fill="#5a7b90" d="M100 100h100v100H100z"/><path fill="#477162" d="M200 100h100v100H200z"/><path fill="#496c64" d="M300 100h100v100H300z"/><path fill="#626972" d="M400 100h100v100H400z"/><path fill="#78607a" d="M500 100h100v100H500z"/><path fill="#4e776a" d="M600 100h100v100H600z"/><path fill="#8da2a3" d="M700 100h100v100H700z"/><path fill="#b3a9c9" d="M0 200h100v100H0z"/><path fill="#618686" d="M100 200h100v100H100z"/><path fill="#778881" d="M200 200h100v100H200z"/><path fill="#9d91a0" d="M300 200h100v100H300z"/><path fill="#8e939e" d="M400 200h100v100H400z"/><path fill="#8d8193" d="M500 200h100v100H500z"/><path fill="#5b7768" d="M600 200h100v100H600z"/><path fill="#8f9ba0" d="M700 200h100v100H700z"/><path fill="#939ec4" d="M0 300h100v100H0z"/><path fill="#508084" d="M100 300h100v100H100z"/><path fill="#6d7769" d="M200 300h100v100H200z"/><path fill="#b77f5d" d="M300 300h100v100H300z"/><path fill="#a8999a" d="M400 300h100v100H400z"/><path fill="#bb9f93" d="M500 300h100v100H500z"/><path fill="#a78367" d="M600 300h100v100H600z"/><path fill="#b9b1bc" d="M700 300h100v100H700z"/><path fill="#c8b2ab" d="M0 400h100v100H0z"/><path fill="#b19d80" d="M100 400h100v100H100z"/><path fill="#b89e7c" d="M200 400h100v100H200z"/><path fill="#dc9c73" d="M300 400h100v100H300z"/><path fill="#e4a780" d="M400 400h100v100H400z"/><path fill="#e1a881" d="M500 400h100v100H500z"/><path fill="#cf9e7c" d="M600 400h100v100H600z"/><path fill="#d3b6a5" d="M700 400h100v100H700z"/></svg>