<svg xmlns="http://www.w3.org/2000/svg" viewBox="0 0 800 400"><defs/><path fill="#cabbb9" d="M0 0h100v100H0z"/><path fill="#aba8ad" d="M100 0h100v100H100z"/><path fill="#c2b5b3" d="M200 0h100v100H200z"/><path fill="#b6aeab" d="M300 0h100v100H300z"/><path fill="#c5bebd" d="M400 0h100v100H400z"/><path fill="#c2bab9" d="M500 0h100v100H500z"/><path fill="#beaead" d="M600 0h100v100H600z"/><path fill="#c6b9b8" d="M700 0h100v100H700z"/><path fill="#d6c5c1" d="M0 100h100v100H0z"/><path fill="#aaa6ac" d="M100 100h100v100H100z"/><path fill="#989295" d="M200 100h100v100H200z"/><path fill="#9d9896" d="M300 100h100v100H300z"/><path fill="#a3a19e" d="M400 100h100v100H400z"/><path fill="#9e9c99" d="M500 100h100v100H500z"/><path fill="#af9492" d="M600 100h100v100H600z"/><path fill="#cdbab5" d="M700 100h100v100H700z"/><path fill="#beb3b1" d="M0 200h100v100H0z"/><path fill="#958d8e" d="M100 200h100v100H100z"/><path fill="#908078" d="M200 200h100v100H200z"/><path fill="#907072" d="M300 200h100v100H300z"/><path fill="#937d74" d="M400 200h100v100H400z"/><path fill="#a5897e" d="M500 200h100v100H500z"/><path fill="#988784" d="M600 200h100v100H600z"/><path fill="#c6b9b7" d="M700 200h100v100H700z"/><path fill="#acabaf" d="M0 300h100v100H0z"/><path fill="#aaa199" d="M100 300h100v100H100z"/><path fill="#a09e7b" d="M200 300h100v100H200z"/><path fill="#8f8f5f" d="M300 300h100v100H300z"/><path fill="#837a5d" d="M400 300h100v100H400z"/><path fill="#978b7c" d="M500 300h100v100H500z"/><path fill="#a7a5a0" d="M600 300h100v100H600z"/><path fill="#a9a3a0" d="M700 300h100v100H700z"/></svg>