<svg xmlns="http://www.w3.org/2000/svg" viewBox="0 0 800 500"><defs/><path fill="#f1eaec" d="M0 0h100v100H0z"/><path fill="#dbd3d3" d="M100 0h100v100H100z"/><path fill="#d6cccd" d="M200 0h100v100H200z"/><path fill="#e5dcde" d="M300 0h100v100H300z"/><path fill="#ebe5e7" d="M400 0h100v100H400z"/><path fill="#eee9eb" d="M500 0h100v100H500z"/><path fill="#eee9ea" d="M600 0h100v100H600z"/><path fill="#ecebec" d="M700 0h100v100H700z"/><path fill="#c8abb4" d="M0 100h100v100H0z"/><path fill="#54353b" d="M100 100h100v100H100z"/><path fill="#3a1f23" d="M200 100h100v100H200z"/><path fill="#766168" d="M300 100h100v100H300z"/><path fill="#c5b7b2" d="M400 100h100v100H400z"/><path fill="#e6e0cc" d="M500 100h100v100H500z"/><path fill="#e2e2ca" d="M600 100h100v100H600z"/><path fill="#cfccc1" d="M700 100h100v100H700z"/><path fill="#bfa5ab" d="M0 200h100v100H0z"/><path fill="#543f46" d="M100 200h100v100H100z"/><path fill="#493337" d="M200 200h100v100H200z"/><path fill="#aa918a" d="M300 200h100v100H300z"/><path fill="#e9dcc4" d="M400 200h100v100H400z"/><path fill="#d9caa8" d="M500 200h100v100H500z"/><path fill="#e8d7bf" d="M600 200h100v100H600z"/><path fill="#e2d1c7" d="M700 200h100v100H700z"/><path fill="#987e84" d="M0 300h100v100H0z"/><path fill="#6e4040" d="M100 300h100v100H100z"/><path fill="#a35e52" d="M200 300h100v100H200z"/><path fill="#9d7666" d="M300 300h100v100H300z"/><path fill="#947766" d="M400 300h100v100H400z"/><path fill="#7d564a" d="M500 300h100v100H500z"/><path fill="#805951" d="M600 300h100v100H600z"/><path fill="#77575f" d="M700 300h100v100H700z"/><path fill="#afa2a4" d="M0 400h100v100H0z"/><path fill="#9e8582" d="M100 400h100v100H100z"/><path fill="#ab908c" d="M200 400h100v100H200z"/><path fill="#a08c8b" d="M300 400h100v100H300z"/><path fill="#9e8c8c" d="M400 400h100v100H400z"/><path fill="#9a8b8c" d="M500 400h100v100H500z"/><path fill="#8a7f84" d="M600 400h100v100H600z"/><path fill="#978989" d="M700 400h100v100H700z"/></svg>