<svg xmlns="http://www.w3.org/2000/svg" viewBox="0 0 800 400"><defs/><path fill="#cdd5d6" d="M0 0h100v100H0z"/><path fill="#7d8787" d="M100 0h100v100H100z"/><path fill="#d3d8d8" d="M200 0h100v100H200z"/><path fill="#ebebee" d="M300 0h100v100H300z"/><path fill="#7c8197" d="M400 0h100v100H400z"/><path fill="#d0d2d8" d="M500 0h100v100H500z"/><path fill="#f0f0ee" d="M600 0h100v100H600z"/><path fill="#e9e6e3" d="M700 0h100v100H700z"/><path fill="#d5dedf" d="M0 100h100v100H0z"/><path fill="#8d999a" d="M100 100h100v100H100z"/><path fill="#b0b7b6" d="M200 100h100v100H200z"/><path fill="#e7e8ec" d="M300 100h100v100H300z"/><path fill="#535879" d="M400 100h100v100H400z"/><path fill="#d0d1db" d="M500 100h100v100H500z"/><path fill="#e3e6e5" d="M600 100h100v100H600z"/><path fill="#c0c8c8" d="M700 100h100v100H700z"/><path fill="#bcc4c6" d="M0 200h100v100H0z"/><path fill="#a3abab" d="M100 200h100v100H100z"/><path fill="#757d7d" d="M200 200h100v100H200z"/><path fill="#bea5ba" d="M300 200h100v100H300z"/><path fill="#d9d8db" d="M400 200h100v100H400z"/><path fill="#d1d8d7" d="M500 200h100v100H500z"/><path fill="#dddfe0" d="M600 200h100v100H600z"/><path fill="#b8c6c7" d="M700 200h100v100H700z"/><path fill="#818989" d="M0 300h100v100H0z"/><path fill="#b0b9b9" d="M100 300h100v100H100z"/><path fill="#a9b2b3" d="M200 300h100v100H200z"/><path fill="#bcc0c5" d="M300 300h100v100H300z"/><path fill="#b0b8b9" d="M400 300h100v100H400z"/><path fill="#8a9394" d="M500 300h100v100H500z"/><path fill="#aab1b3" d="M600 300h100v100H600z"/><path fill="#dce2e2" d="M700 300h100v100H700z"/></svg>