<svg xmlns="http://www.w3.org/2000/svg" viewBox="0 0 800 500"><defs/><path fill="#e4e4e4" d="M0 0h100v100H0z"/><path fill="#bebebe" d="M100 0h100v100H100z"/><path fill="#e6e6e6" d="M200 0h100v100H200z"/><path fill="#e1e1e1" d="M300 0h100v100H300z"/><path fill="#d7d7d7" d="M400 0h100v100H400z"/><path fill="#ededed" d="M500 0h100v100H500z"/><path fill="#ececec" d="M600 0h100v100H600z"/><path fill="#eee" d="M700 0h100v100H700z"/><path fill="#e3e3e3" d="M0 100h100v100H0z"/><path fill="silver" d="M100 100h100v100H100z"/><path fill="#fbfbfb" d="M200 100h100v100H200z"/><path fill="#cacaca" d="M300 100h100v100H300z"/><path fill="#9b9b9b" d="M400 100h100v100H400z"/><path fill="#f1f1f1" d="M500 100h100v100H500z"/><path fill="#f8f8f8" d="M600 100h100v100H600z"/><path fill="#f6f6f6" d="M700 100h100v100H700z"/><path fill="#cacaca" d="M0 200h100v100H0z"/><path fill="#c4c4c4" d="M100 200h100v100H100z"/><path fill="#f4f4f4" d="M200 200h100v100H200z"/><path fill="#c6c5c5" d="M300 200h100v100H300z"/><path fill="#c1c1c1" d="M400 200h100v100H400z"/><path fill="#c3c3c3" d="M500 200h100v100H500z"/><path fill="#bab1b1" d="M600 200h100v100H600z"/><path fill="#e7e6e6" d="M700 200h100v100H700z"/><path fill="#959595" d="M0 300h100v100H0z"/><path fill="#b8b8b8" d="M100 300h100v100H100z"/><path fill="#fefefe" d="M200 300h100v100H200z"/><path fill="#e7e7e7" d="M300 300h100v100H300z"/><path fill="#f7f7f7" d="M400 300h100v100H400z"/><path fill="#d2d1d1" d="M500 300h100v100H500z"/><path fill="#b4b1b1" d="M600 300h100v100H600z"/><path fill="#e7e8e8" d="M700 300h100v100H700z"/><path fill="#bcbcbc" d="M0 400h100v100H0z"/><path fill="#e0e0e0" d="M100 400h100v100H100z"/><path fill="#fbfbfb" d="M200 400h100v100H200z"/><path fill="#f7f7f7" d="M300 400h100v100H300z"/><path fill="#f5f5f5" d="M400 400h100v100H400z"/><path fill="#f7f7f7" d="M500 400h100v100H500z"/><path fill="#eceded" d="M600 400h100v100H600z"/><path fill="#dcdcdc" d="M700 400h100v100H700z"/></svg>