<svg xmlns="http://www.w3.org/2000/svg" viewBox="0 0 800 400"><defs/><path fill="#f6f1ea" d="M0 0h100v100H0z"/><path fill="#f2ece7" d="M100 0h100v100H100z"/><path fill="#f9f2ea" d="M200 0h100v100H200z"/><path fill="#e9e0d8" d="M300 0h100v100H300z"/><path fill="#e0d6cc" d="M400 0h100v100H400z"/><path fill="#eae1da" d="M500 0h100v100H500z"/><path fill="#ece1d6" d="M600 0h100v100H600z"/><path fill="#efe8e2" d="M700 0h100v100H700z"/><path fill="#f1e6d7" d="M0 100h100v100H0z"/><path fill="#efe8e3" d="M100 100h100v100H100z"/><path fill="#f8f0e4" d="M200 100h100v100H200z"/><path fill="#ded2c9" d="M300 100h100v100H300z"/><path fill="#dad1c9" d="M400 100h100v100H400z"/><path fill="#e6e0da" d="M500 100h100v100H500z"/><path fill="#e2d9cf" d="M600 100h100v100H600z"/><path fill="#e0dad4" d="M700 100h100v100H700z"/><path fill="#e6ded8" d="M0 200h100v100H0z"/><path fill="#e9e1d7" d="M100 200h100v100H100z"/><path fill="#ecdfcb" d="M200 200h100v100H200z"/><path fill="#d8cec6" d="M300 200h100v100H300z"/><path fill="#ddc4b0" d="M400 200h100v100H400z"/><path fill="#e6cab1" d="M500 200h100v100H500z"/><path fill="#d7c3b5" d="M600 200h100v100H600z"/><path fill="#d0c6c1" d="M700 200h100v100H700z"/><path fill="#dfd8d7" d="M0 300h100v100H0z"/><path fill="#e8ded3" d="M100 300h100v100H100z"/><path fill="#e3ddd2" d="M200 300h100v100H200z"/><path fill="#d6d0cf" d="M300 300h100v100H300z"/><path fill="#d9c2b2" d="M400 300h100v100H400z"/><path fill="#d7c0af" d="M500 300h100v100H500z"/><path fill="#d7c2b3" d="M600 300h100v100H600z"/><path fill="#ccbdb8" d="M700 300h100v100H700z"/></svg>