<svg xmlns="http://www.w3.org/2000/svg" viewBox="0 0 800 600"><defs/><path fill="#d4d5b6" d="M0 0h100v100H0z"/><path fill="#d1d2c5" d="M100 0h100v100H100z"/><path fill="#d6d8cd" d="M200 0h100v100H200z"/><path fill="#dcdbca" d="M300 0h100v100H300z"/><path fill="#d9dbcc" d="M400 0h100v100H400z"/><path fill="#dadace" d="M500 0h100v100H500z"/><path fill="#d4d6ca" d="M600 0h100v100H600z"/><path fill="#cdd4d4" d="M700 0h100v100H700z"/><path fill="#d4cd38" d="M0 100h100v100H0z"/><path fill="#c2b96d" d="M100 100h100v100H100z"/><path fill="#d0c168" d="M200 100h100v100H200z"/><path fill="#b6a054" d="M300 100h100v100H300z"/><path fill="#d4c667" d="M400 100h100v100H400z"/><path fill="#c7bd6a" d="M500 100h100v100H500z"/><path fill="#baa682" d="M600 100h100v100H600z"/><path fill="#cebfb2" d="M700 100h100v100H700z"/><path fill="#d0cb48" d="M0 200h100v100H0z"/><path fill="#b4b772" d="M100 200h100v100H100z"/><path fill="#9f9e64" d="M200 200h100v100H200z"/><path fill="#b4a05e" d="M300 200h100v100H300z"/><path fill="#c7b85f" d="M400 200h100v100H400z"/><path fill="#bda95c" d="M500 200h100v100H500z"/><path fill="#d6c37c" d="M600 200h100v100H600z"/><path fill="#cca2aa" d="M700 200h100v100H700z"/><path fill="#ced05e" d="M0 300h100v100H0z"/><path fill="#adb57b" d="M100 300h100v100H100z"/><path fill="#948166" d="M200 300h100v100H200z"/><path fill="#d6a17b" d="M300 300h100v100H300z"/><path fill="#d1b487" d="M400 300h100v100H400z"/><path fill="#b37662" d="M500 300h100v100H500z"/><path fill="#b79266" d="M600 300h100v100H600z"/><path fill="#c7aa93" d="M700 300h100v100H700z"/><path fill="#bfbd6c" d="M0 400h100v100H0z"/><path fill="#9d8b79" d="M100 400h100v100H100z"/><path fill="#997070" d="M200 400h100v100H200z"/><path fill="#ac8b87" d="M300 400h100v100H300z"/><path fill="#cab2b4" d="M400 400h100v100H400z"/><path fill="#976b76" d="M500 400h100v100H500z"/><path fill="#91604b" d="M600 400h100v100H600z"/><path fill="#bd927c" d="M700 400h100v100H700z"/><path fill="#bdc0b7" d="M0 500h100v100H0z"/><path fill="#b7b4b3" d="M100 500h100v100H100z"/><path fill="#b5b1b3" d="M200 500h100v100H200z"/><path fill="#c1c1c3" d="M300 500h100v100H300z"/><path fill="#c0bfc1" d="M400 500h100v100H400z"/><path fill="#b3b0b2" d="M500 500h100v100H500z"/><path fill="#b5aeb3" d="M600 500h100v100H600z"/><path fill="#b5b1b1" d="M700 500h100v100H700z"/></svg>