<svg xmlns="http://www.w3.org/2000/svg" viewBox="0 0 800 500"><defs/><path fill="#fafafa" d="M0 0h100v100H0z"/><path fill="#f5f5f5" d="M100 0h100v100H100z"/><path fill="#f1f1f1" d="M200 0h100v100H200z"/><path fill="#f8f8f8" d="M300 0h100v100H300z"/><path fill="#fbfbfb" d="M400 0h100v100H400z"/><path fill="#f8f8f8" d="M500 0h100v100H500z"/><path fill="#fafafa" d="M600 0h100v100H600z"/><path fill="#fcfcfc" d="M700 0h100v100H700z"/><path fill="#f6f6f6" d="M0 100h100v100H0z"/><path fill="#d7d7d7" d="M100 100h100v100H100z"/><path fill="#bdbdbd" d="M200 100h100v100H200z"/><path fill="#e6e6e6" d="M300 100h100v100H300zm100 0h100v100H400zm100 0h100v100H500z"/><path fill="#f9f9f9" d="M600 100h100v100H600z"/><path fill="#e7e7e7" d="M700 100h100v100H700z"/><path fill="#f2f2f2" d="M0 200h100v100H0z"/><path fill="#d4d4d4" d="M100 200h100v100H100z"/><path fill="#c3c3c3" d="M200 200h100v100H200z"/><path fill="#d9d9d9" d="M300 200h100v100H300z"/><path fill="#d7d7d7" d="M400 200h100v100H400z"/><path fill="#e7e7e7" d="M500 200h100v100H500z"/><path fill="#d4d4d4" d="M600 200h100v100H600zm100 0h100v100H700z"/><path fill="#e4e4e4" d="M0 300h100v100H0z"/><path fill="#c9c9c9" d="M100 300h100v100H100z"/><path fill="#d7d7d7" d="M200 300h100v100H200z"/><path fill="#ddd" d="M300 300h100v100H300z"/><path fill="#cdcdcd" d="M400 300h100v100H400z"/><path fill="#d0d0d0" d="M500 300h100v100H500z"/><path fill="#dadada" d="M600 300h100v100H600z"/><path fill="#f4f4f4" d="M700 300h100v100H700z"/><path fill="#eee" d="M0 400h100v100H0z"/><path fill="#ebebeb" d="M100 400h100v100H100z"/><path fill="#f4f4f4" d="M200 400h100v100H200z"/><path fill="#f3f3f3" d="M300 400h100v100H300z"/><path fill="#eaeaea" d="M400 400h100v100H400zm100 0h100v100H500z"/><path fill="#ededed" d="M600 400h100v100H600z"/><path fill="#f0f0f0" d="M700 400h100v100H700z"/></svg>