<svg xmlns="http://www.w3.org/2000/svg" viewBox="0 0 800 400"><defs/><path fill="#5f6671" d="M0 0h100v100H0z"/><path fill="#8e8685" d="M100 0h100v100H100z"/><path fill="#b5afa6" d="M200 0h100v100H200z"/><path fill="#b0a798" d="M300 0h100v100H300z"/><path fill="#a99c8c" d="M400 0h100v100H400z"/><path fill="#b0a38b" d="M500 0h100v100H500z"/><path fill="#797160" d="M600 0h100v100H600z"/><path fill="#1a1918" d="M700 0h100v100H700z"/><path fill="#585c66" d="M0 100h100v100H0z"/><path fill="#979ca1" d="M100 100h100v100H100z"/><path fill="#c2c4ce" d="M200 100h100v100H200z"/><path fill="#b5b5bb" d="M300 100h100v100H300z"/><path fill="#aca9ad" d="M400 100h100v100H400z"/><path fill="#b0acaa" d="M500 100h100v100H500z"/><path fill="#979184" d="M600 100h100v100H600z"/><path fill="#252221" d="M700 100h100v100H700z"/><path fill="#494b53" d="M0 200h100v100H0z"/><path fill="#939499" d="M100 200h100v100H100z"/><path fill="#c4c5cb" d="M200 200h100v100H200z"/><path fill="#b4b4bc" d="M300 200h100v100H300z"/><path fill="#b3b1b5" d="M400 200h100v100H400z"/><path fill="#b1afb6" d="M500 200h100v100H500z"/><path fill="#969087" d="M600 200h100v100H600z"/><path fill="#201e1d" d="M700 200h100v100H700z"/><path fill="#32353b" d="M0 300h100v100H0z"/><path fill="#858589" d="M100 300h100v100H100z"/><path fill="#b1afb3" d="M200 300h100v100H200z"/><path fill="#aaa8ae" d="M300 300h100v100H300z"/><path fill="#afacb1" d="M400 300h100v100H400z"/><path fill="#bcbab6" d="M500 300h100v100H500z"/><path fill="#99938a" d="M600 300h100v100H600z"/><path fill="#24201f" d="M700 300h100v100H700z"/></svg>