<svg xmlns="http://www.w3.org/2000/svg" viewBox="0 0 800 500"><defs/><path fill="#f7e2cd" d="M0 0h100v100H0z"/><path fill="#eed3bd" d="M100 0h100v100H100z"/><path fill="#f8e6d6" d="M200 0h100v100H200z"/><path fill="#fcf7f0" d="M300 0h100v100H300z"/><path fill="#faf7f3" d="M400 0h100v100H400z"/><path fill="#fcf8f4" d="M500 0h100v100H500z"/><path fill="#fcf2e3" d="M600 0h100v100H600z"/><path fill="#f9f0e1" d="M700 0h100v100H700z"/><path fill="#e3a065" d="M0 100h100v100H0z"/><path fill="#d28745" d="M100 100h100v100H100z"/><path fill="#f1c596" d="M200 100h100v100H200z"/><path fill="#fcedd6" d="M300 100h100v100H300z"/><path fill="#f7ebdd" d="M400 100h100v100H400z"/><path fill="#faf6f3" d="M500 100h100v100H500z"/><path fill="#f0d4ac" d="M600 100h100v100H600z"/><path fill="#f1d4a7" d="M700 100h100v100H700z"/><path fill="#e1a169" d="M0 200h100v100H0z"/><path fill="#dfa664" d="M100 200h100v100H100z"/><path fill="#f5ddb5" d="M200 200h100v100H200z"/><path fill="#f8e8d1" d="M300 200h100v100H300z"/><path fill="#fae8d0" d="M400 200h100v100H400z"/><path fill="#f6e5d0" d="M500 200h100v100H500z"/><path fill="#eed0a9" d="M600 200h100v100H600z"/><path fill="#f0d3a6" d="M700 200h100v100H700z"/><path fill="#da985f" d="M0 300h100v100H0z"/><path fill="#e4b67a" d="M100 300h100v100H100z"/><path fill="#e2bc8c" d="M200 300h100v100H200z"/><path fill="#e0b684" d="M300 300h100v100H300z"/><path fill="#fbe4c3" d="M400 300h100v100H400z"/><path fill="#f2d8b3" d="M500 300h100v100H500z"/><path fill="#d2ab7b" d="M600 300h100v100H600z"/><path fill="#eacfa7" d="M700 300h100v100H700z"/><path fill="#e7c3a1" d="M0 400h100v100H0z"/><path fill="#eed2b0" d="M100 400h100v100H100z"/><path fill="#edd4b7" d="M200 400h100v100H200z"/><path fill="#efd8bc" d="M300 400h100v100H300z"/><path fill="#f4e4ce" d="M400 400h100v100H400z"/><path fill="#ecdeca" d="M500 400h100v100H500z"/><path fill="#e9d3b8" d="M600 400h100v100H600z"/><path fill="#f4e4ce" d="M700 400h100v100H700z"/></svg>