<svg xmlns="http://www.w3.org/2000/svg" viewBox="0 0 800 400"><defs/><path fill="#c7e2cb" d="M0 0h100v100H0z"/><path fill="#bec5a1" d="M100 0h100v100H100z"/><path fill="#c5ceb3" d="M200 0h100v100H200z"/><path fill="#dceadb" d="M300 0h100v100H300z"/><path fill="#c0e0ca" d="M400 0h100v100H400z"/><path fill="#c2e2cd" d="M500 0h100v100H500z"/><path fill="#bbddc4" d="M600 0h100v100H600z"/><path fill="#e6f2ee" d="M700 0h100v100H700z"/><path fill="#d9e0b0" d="M0 100h100v100H0z"/><path fill="#9f9046" d="M100 100h100v100H100z"/><path fill="#aeac65" d="M200 100h100v100H200z"/><path fill="#ddf0d6" d="M300 100h100v100H300z"/><path fill="#d7e9ce" d="M400 100h100v100H400z"/><path fill="#dfeed7" d="M500 100h100v100H500z"/><path fill="#d3e4bf" d="M600 100h100v100H600z"/><path fill="#e0e9be" d="M700 100h100v100H700z"/><path fill="#c5b384" d="M0 200h100v100H0z"/><path fill="#a68851" d="M100 200h100v100H100z"/><path fill="#b69f36" d="M200 200h100v100H200z"/><path fill="#c0c067" d="M300 200h100v100H300z"/><path fill="#d0c461" d="M400 200h100v100H400z"/><path fill="#cfc956" d="M500 200h100v100H500z"/><path fill="#cdc252" d="M600 200h100v100H600z"/><path fill="#cabd50" d="M700 200h100v100H700z"/><path fill="#ccbc9a" d="M0 300h100v100H0z"/><path fill="#b69e68" d="M100 300h100v100H100z"/><path fill="#b5a153" d="M200 300h100v100H200z"/><path fill="#c9b45f" d="M300 300h100v100H300z"/><path fill="#d1c558" d="M400 300h100v100H400z"/><path fill="#d1d34f" d="M500 300h100v100H500z"/><path fill="#c6c345" d="M600 300h100v100H600z"/><path fill="#c5ba70" d="M700 300h100v100H700z"/></svg>