<svg xmlns="http://www.w3.org/2000/svg" viewBox="0 0 800 500"><defs/><path fill="#beac95" d="M0 0h100v100H0z"/><path fill="#c3b0a1" d="M100 0h100v100H100z"/><path fill="#bba89f" d="M200 0h100v100H200z"/><path fill="#a08b84" d="M300 0h100v100H300z"/><path fill="#a4918a" d="M400 0h100v100H400z"/><path fill="#a08c80" d="M500 0h100v100H500z"/><path fill="#9d8876" d="M600 0h100v100H600z"/><path fill="#877a64" d="M700 0h100v100H700z"/><path fill="#bdab96" d="M0 100h100v100H0z"/><path fill="#b4a096" d="M100 100h100v100H100z"/><path fill="#9b897a" d="M200 100h100v100H200z"/><path fill="#88655a" d="M300 100h100v100H300z"/><path fill="#984345" d="M400 100h100v100H400z"/><path fill="#7e524d" d="M500 100h100v100H500z"/><path fill="#7b4d29" d="M600 100h100v100H600z"/><path fill="#4e3e26" d="M700 100h100v100H700z"/><path fill="#b3a18c" d="M0 200h100v100H0z"/><path fill="#aa958d" d="M100 200h100v100H100z"/><path fill="#726058" d="M200 200h100v100H200z"/><path fill="#7b6551" d="M300 200h100v100H300z"/><path fill="#956964" d="M400 200h100v100H400z"/><path fill="#7f6160" d="M500 200h100v100H500z"/><path fill="#7d5d40" d="M600 200h100v100H600z"/><path fill="#816942" d="M700 200h100v100H700z"/><path fill="#c1b09d" d="M0 300h100v100H0z"/><path fill="#9e8f8a" d="M100 300h100v100H100z"/><path fill="#7d707b" d="M200 300h100v100H200z"/><path fill="#8b776c" d="M300 300h100v100H300z"/><path fill="#5c5341" d="M400 300h100v100H400z"/><path fill="#82756e" d="M500 300h100v100H500z"/><path fill="#6f6b5b" d="M600 300h100v100H600z"/><path fill="#73654f" d="M700 300h100v100H700z"/><path fill="#bcad99" d="M0 400h100v100H0z"/><path fill="#a79b93" d="M100 400h100v100H100z"/><path fill="#9a9094" d="M200 400h100v100H200z"/><path fill="#968887" d="M300 400h100v100H300z"/><path fill="#595457" d="M400 400h100v100H400z"/><path fill="#928683" d="M500 400h100v100H500z"/><path fill="#957f68" d="M600 400h100v100H600z"/><path fill="#8e7e66" d="M700 400h100v100H700z"/></svg>