<svg xmlns="http://www.w3.org/2000/svg" viewBox="0 0 800 400"><defs/><path fill="#eee" d="M0 0h100v100H0z"/><path fill="#c9c9c9" d="M100 0h100v100H100z"/><path fill="#bebebe" d="M200 0h100v100H200z"/><path fill="#dedede" d="M300 0h100v100H300z"/><path fill="#ececec" d="M400 0h100v100H400z"/><path fill="#ebebeb" d="M500 0h100v100H500z"/><path fill="#e9e9e9" d="M600 0h100v100H600z"/><path fill="#eee" d="M700 0h100v100H700z"/><path fill="#ececec" d="M0 100h100v100H0z"/><path fill="#d7d7d7" d="M100 100h100v100H100z"/><path fill="#bdbdbd" d="M200 100h100v100H200z"/><path fill="#ebebeb" d="M300 100h100v100H300z"/><path fill="#e6e6e6" d="M400 100h100v100H400zm100 0h100v100H500z"/><path fill="#eee" d="M600 100h100v100H600z"/><path fill="#ededed" d="M700 100h100v100H700z"/><path fill="#dfdfdf" d="M0 200h100v100H0z"/><path fill="#dad9da" d="M100 200h100v100H100z"/><path fill="#cacaca" d="M200 200h100v100H200z"/><path fill="#e8e8e8" d="M300 200h100v100H300z"/><path fill="#e1e1e1" d="M400 200h100v100H400z"/><path fill="#dadada" d="M500 200h100v100H500z"/><path fill="#efefef" d="M600 200h100v100H600zm100 0h100v100H700z"/><path fill="#ddd" d="M0 300h100v100H0z"/><path fill="#eee" d="M100 300h100v100H100z"/><path fill="#fff" d="M200 300h100v100H200z"/><path fill="#eee" d="M300 300h100v100H300z"/><path fill="#f4f4f4" d="M400 300h100v100H400z"/><path fill="#f5f5f5" d="M500 300h100v100H500z"/><path fill="#efefef" d="M600 300h100v100H600z"/><path fill="#f3f3f3" d="M700 300h100v100H700z"/></svg>