<svg xmlns="http://www.w3.org/2000/svg" viewBox="0 0 800 500"><defs/><path fill="#e4eef7" d="M0 0h100v100H0z"/><path fill="#e1f2f9" d="M100 0h100v100H100z"/><path fill="#eff8fb" d="M200 0h100v100H200z"/><path fill="#eef3fa" d="M300 0h100v100H300z"/><path fill="#dbe4e5" d="M400 0h100v100H400z"/><path fill="#e9f0f2" d="M500 0h100v100H500z"/><path fill="#e9eef5" d="M600 0h100v100H600z"/><path fill="#e7eff8" d="M700 0h100v100H700z"/><path fill="#f2f1d2" d="M0 100h100v100H0z"/><path fill="#dce0e9" d="M100 100h100v100H100z"/><path fill="#a6adca" d="M200 100h100v100H200z"/><path fill="#ddd9e3" d="M300 100h100v100H300z"/><path fill="#dee6c7" d="M400 100h100v100H400z"/><path fill="#b9bbc1" d="M500 100h100v100H500z"/><path fill="#cbcae0" d="M600 100h100v100H600z"/><path fill="#fefffe" d="M700 100h100v100H700z"/><path fill="#f2f9f5" d="M0 200h100v100H0z"/><path fill="#e3e3e4" d="M100 200h100v100H100z"/><path fill="#dbdeee" d="M200 200h100v100H200z"/><path fill="#e0dee7" d="M300 200h100v100H300z"/><path fill="#e5dbd4" d="M400 200h100v100H400z"/><path fill="#cfccc6" d="M500 200h100v100H500z"/><path fill="#edeedc" d="M600 200h100v100H600z"/><path fill="#fcfefe" d="M700 200h100v100H700z"/><path fill="#e2dbe4" d="M0 300h100v100H0z"/><path fill="#cad1c4" d="M100 300h100v100H100z"/><path fill="#ccd7d0" d="M200 300h100v100H200z"/><path fill="#ebebee" d="M300 300h100v100H300z"/><path fill="#b6cabf" d="M400 300h100v100H400z"/><path fill="#ccd7cf" d="M500 300h100v100H500z"/><path fill="#f6fcf1" d="M600 300h100v100H600z"/><path fill="#e7dbdb" d="M700 300h100v100H700z"/><path fill="#e6e6ee" d="M0 400h100v100H0z"/><path fill="#c8c4c6" d="M100 400h100v100H100z"/><path fill="#cbc6c7" d="M200 400h100v100H200z"/><path fill="#f9f4f1" d="M300 400h100v100H300z"/><path fill="#f2eeef" d="M400 400h100v100H400z"/><path fill="#f3e9d5" d="M500 400h100v100H500z"/><path fill="#d9cb93" d="M600 400h100v100H600z"/><path fill="#e8e0cc" d="M700 400h100v100H700z"/></svg>