<svg xmlns="http://www.w3.org/2000/svg" viewBox="0 0 800 600"><defs/><path fill="#fbdab6" d="M0 0h100v100H0z"/><path fill="#bf997e" d="M100 0h100v100H100z"/><path fill="#a07a64" d="M200 0h100v100H200z"/><path fill="#b68a70" d="M300 0h100v100H300z"/><path fill="#be967b" d="M400 0h100v100H400z"/><path fill="#bb967d" d="M500 0h100v100H500z"/><path fill="#ac8a74" d="M600 0h100v100H600z"/><path fill="#cba78c" d="M700 0h100v100H700z"/><path fill="#dfc09e" d="M0 100h100v100H0z"/><path fill="#a58169" d="M100 100h100v100H100z"/><path fill="#9c755d" d="M200 100h100v100H200z"/><path fill="#d5a380" d="M300 100h100v100H300z"/><path fill="#d0a485" d="M400 100h100v100H400z"/><path fill="#dab091" d="M500 100h100v100H500z"/><path fill="#deb394" d="M600 100h100v100H600z"/><path fill="#e2b99a" d="M700 100h100v100H700z"/><path fill="#ccae8f" d="M0 200h100v100H0z"/><path fill="#937058" d="M100 200h100v100H100z"/><path fill="#ca9c77" d="M200 200h100v100H200z"/><path fill="#e7b188" d="M300 200h100v100H300z"/><path fill="#b98f72" d="M400 200h100v100H400z"/><path fill="#b89378" d="M500 200h100v100H500z"/><path fill="#f1c3a0" d="M600 200h100v100H600z"/><path fill="#f2c8a7" d="M700 200h100v100H700z"/><path fill="#c1a385" d="M0 300h100v100H0z"/><path fill="#a37c61" d="M100 300h100v100H100z"/><path fill="#f4c399" d="M200 300h100v100H200z"/><path fill="#e1af88" d="M300 300h100v100H300z"/><path fill="#a87f64" d="M400 300h100v100H400z"/><path fill="#b38e71" d="M500 300h100v100H500z"/><path fill="#f7c8a3" d="M600 300h100v100H600z"/><path fill="#f9ccab" d="M700 300h100v100H700z"/><path fill="#bc9d7f" d="M0 400h100v100H0z"/><path fill="#ad866a" d="M100 400h100v100H100z"/><path fill="#c99d7d" d="M200 400h100v100H200z"/><path fill="#d1a280" d="M300 400h100v100H300z"/><path fill="#b68b6e" d="M400 400h100v100H400z"/><path fill="#cba182" d="M500 400h100v100H500z"/><path fill="#d3a788" d="M600 400h100v100H600z"/><path fill="#d0a285" d="M700 400h100v100H700z"/><path fill="#bd9c81" d="M0 500h100v100H0z"/><path fill="#d4ab8c" d="M100 500h100v100H100z"/><path fill="#c89c7f" d="M200 500h100v100H200z"/><path fill="#ba8d71" d="M300 500h100v100H300z"/><path fill="#af8369" d="M400 500h100v100H400z"/><path fill="#bd9478" d="M500 500h100v100H500z"/><path fill="#ae8168" d="M600 500h100v100H600z"/><path fill="#aa785c" d="M700 500h100v100H700z"/></svg>