<svg xmlns="http://www.w3.org/2000/svg" viewBox="0 0 800 400"><defs/><path fill="#9e8b7c" d="M0 0h100v100H0z"/><path fill="#9f8c7f" d="M100 0h100v100H100z"/><path fill="#939879" d="M200 0h100v100H200z"/><path fill="#9eaf89" d="M300 0h100v100H300z"/><path fill="#bdccaf" d="M400 0h100v100H400z"/><path fill="#b4a8b5" d="M500 0h100v100H500z"/><path fill="#c0bebf" d="M600 0h100v100H600z"/><path fill="#d9e2e1" d="M700 0h100v100H700z"/><path fill="#917c6a" d="M0 100h100v100H0z"/><path fill="#9f8677" d="M100 100h100v100H100z"/><path fill="#989f95" d="M200 100h100v100H200z"/><path fill="#b58d95" d="M300 100h100v100H300z"/><path fill="#b66c7e" d="M400 100h100v100H400z"/><path fill="#6f8285" d="M500 100h100v100H500z"/><path fill="#7a7b7c" d="M600 100h100v100H600z"/><path fill="#a9b0a2" d="M700 100h100v100H700z"/><path fill="#978876" d="M0 200h100v100H0z"/><path fill="#9a8475" d="M100 200h100v100H100z"/><path fill="#948e7f" d="M200 200h100v100H200z"/><path fill="#775a45" d="M300 200h100v100H300z"/><path fill="#674235" d="M400 200h100v100H400z"/><path fill="#21625f" d="M500 200h100v100H500z"/><path fill="#639351" d="M600 200h100v100H600z"/><path fill="#c3b075" d="M700 200h100v100H700z"/><path fill="#9b8a7f" d="M0 300h100v100H0z"/><path fill="#a18a74" d="M100 300h100v100H100z"/><path fill="#dacbb9" d="M200 300h100v100H200z"/><path fill="#debda3" d="M300 300h100v100H300z"/><path fill="#827a6a" d="M400 300h100v100H400z"/><path fill="#235b51" d="M500 300h100v100H500z"/><path fill="#43735d" d="M600 300h100v100H600z"/><path fill="#72857b" d="M700 300h100v100H700z"/></svg>