<svg xmlns="http://www.w3.org/2000/svg" viewBox="0 0 800 400"><defs/><path fill="#dbcdc5" d="M0 0h100v100H0z"/><path fill="#c7beaf" d="M100 0h100v100H100z"/><path fill="#d8cfc7" d="M200 0h100v100H200z"/><path fill="#958a84" d="M300 0h100v100H300z"/><path fill="#6e6460" d="M400 0h100v100H400z"/><path fill="#c8c8c2" d="M500 0h100v100H500z"/><path fill="#dbdfdd" d="M600 0h100v100H600z"/><path fill="#d2d4d7" d="M700 0h100v100H700z"/><path fill="#dac7c0" d="M0 100h100v100H0z"/><path fill="#c3bbae" d="M100 100h100v100H100z"/><path fill="#d1c1be" d="M200 100h100v100H200z"/><path fill="#ae9f9b" d="M300 100h100v100H300z"/><path fill="#a59fa0" d="M400 100h100v100H400z"/><path fill="#b1adac" d="M500 100h100v100H500z"/><path fill="#ab9c9b" d="M600 100h100v100H600z"/><path fill="#c5c1c1" d="M700 100h100v100H700z"/><path fill="#cabeb4" d="M0 200h100v100H0z"/><path fill="#c2bdb1" d="M100 200h100v100H100z"/><path fill="#d0b9bb" d="M200 200h100v100H200z"/><path fill="#deb8bc" d="M300 200h100v100H300z"/><path fill="#e9e0e1" d="M400 200h100v100H400z"/><path fill="#bebfbe" d="M500 200h100v100H500z"/><path fill="#b1a7ab" d="M600 200h100v100H600z"/><path fill="#cec7d3" d="M700 200h100v100H700z"/><path fill="#bdbab4" d="M0 300h100v100H0z"/><path fill="#beb4af" d="M100 300h100v100H100z"/><path fill="#c8bab7" d="M200 300h100v100H200z"/><path fill="#d2c7c7" d="M300 300h100v100H300z"/><path fill="#cec7c7" d="M400 300h100v100H400z"/><path fill="#c8c3c2" d="M500 300h100v100H500z"/><path fill="#d0c8c7" d="M600 300h100v100H600z"/><path fill="#bfbec5" d="M700 300h100v100H700z"/></svg>