<svg xmlns="http://www.w3.org/2000/svg" viewBox="0 0 800 600"><defs/><path fill="#7c887a" d="M0 0h100v100H0z"/><path fill="#c4a58a" d="M100 0h100v100H100z"/><path fill="#e2c3a6" d="M200 0h100v100H200z"/><path fill="#b5a7b0" d="M300 0h100v100H300z"/><path fill="#b7a3b7" d="M400 0h100v100H400z"/><path fill="#c9aeaa" d="M500 0h100v100H500z"/><path fill="#b69a8e" d="M600 0h100v100H600z"/><path fill="#6c7375" d="M700 0h100v100H700z"/><path fill="#a4a58c" d="M0 100h100v100H0z"/><path fill="#c19e79" d="M100 100h100v100H100z"/><path fill="#d1bcaa" d="M200 100h100v100H200z"/><path fill="#a5a9b3" d="M300 100h100v100H300z"/><path fill="#ceb6a7" d="M400 100h100v100H400z"/><path fill="#d2b19f" d="M500 100h100v100H500z"/><path fill="#aa8a7c" d="M600 100h100v100H600z"/><path fill="#898577" d="M700 100h100v100H700z"/><path fill="#937e5f" d="M0 200h100v100H0z"/><path fill="#ad8362" d="M100 200h100v100H100z"/><path fill="#6e848b" d="M200 200h100v100H200z"/><path fill="#8b9a9a" d="M300 200h100v100H300z"/><path fill="#c19f89" d="M400 200h100v100H400z"/><path fill="#c19989" d="M500 200h100v100H500z"/><path fill="#9e7f73" d="M600 200h100v100H600z"/><path fill="#545b5b" d="M700 200h100v100H700z"/><path fill="#44332c" d="M0 300h100v100H0z"/><path fill="#632c28" d="M100 300h100v100H100z"/><path fill="#604335" d="M200 300h100v100H200z"/><path fill="#606d5d" d="M300 300h100v100H300z"/><path fill="#664754" d="M400 300h100v100H400z"/><path fill="#503941" d="M500 300h100v100H500z"/><path fill="#5e4840" d="M600 300h100v100H600z"/><path fill="#46413c" d="M700 300h100v100H700z"/><path fill="#785a40" d="M0 400h100v100H0z"/><path fill="#703e22" d="M100 400h100v100H100z"/><path fill="#563024" d="M200 400h100v100H200z"/><path fill="#654034" d="M300 400h100v100H300z"/><path fill="#8b5436" d="M400 400h100v100H400z"/><path fill="#784526" d="M500 400h100v100H500z"/><path fill="#6c391b" d="M600 400h100v100H600z"/><path fill="#6f442a" d="M700 400h100v100H700z"/><path fill="#7b633b" d="M0 500h100v100H0z"/><path fill="#8f6c37" d="M100 500h100v100H100z"/><path fill="#845d2f" d="M200 500h100v100H200z"/><path fill="#946536" d="M300 500h100v100H300z"/><path fill="#ad7f45" d="M400 500h100v100H400z"/><path fill="#b47f3f" d="M500 500h100v100H500z"/><path fill="#b37d3a" d="M600 500h100v100H600z"/><path fill="#87673c" d="M700 500h100v100H700z"/></svg>