<svg xmlns="http://www.w3.org/2000/svg" viewBox="0 0 800 600"><defs/><path fill="#a57837" d="M0 0h100v100H0z"/><path fill="#87691f" d="M100 0h100v100H100z"/><path fill="#8d7623" d="M200 0h100v100H200z"/><path fill="#b68d4b" d="M300 0h100v100H300z"/><path fill="#a77d42" d="M400 0h100v100H400z"/><path fill="#897f76" d="M500 0h100v100H500z"/><path fill="#858075" d="M600 0h100v100H600z"/><path fill="#8a7f6c" d="M700 0h100v100H700z"/><path fill="#a17435" d="M0 100h100v100H0z"/><path fill="#705214" d="M100 100h100v100H100z"/><path fill="#c3b64c" d="M200 100h100v100H200z"/><path fill="#bab96f" d="M300 100h100v100H300z"/><path fill="#7b8b9f" d="M400 100h100v100H400z"/><path fill="#566473" d="M500 100h100v100H500z"/><path fill="#47492f" d="M600 100h100v100H600z"/><path fill="#6d774b" d="M700 100h100v100H700z"/><path fill="#966d2c" d="M0 200h100v100H0z"/><path fill="#806130" d="M100 200h100v100H100z"/><path fill="#e1d484" d="M200 200h100v100H200z"/><path fill="#c7c39a" d="M300 200h100v100H300z"/><path fill="#687693" d="M400 200h100v100H400z"/><path fill="#4e5358" d="M500 200h100v100H500z"/><path fill="#654f33" d="M600 200h100v100H600z"/><path fill="#af864a" d="M700 200h100v100H700z"/><path fill="#896621" d="M0 300h100v100H0z"/><path fill="#a47d6c" d="M100 300h100v100H100z"/><path fill="#eea7e2" d="M200 300h100v100H200z"/><path fill="#e9a2d3" d="M300 300h100v100H300z"/><path fill="#825f43" d="M400 300h100v100H400z"/><path fill="#604a41" d="M500 300h100v100H500z"/><path fill="#44435e" d="M600 300h100v100H600z"/><path fill="#916c36" d="M700 300h100v100H700z"/><path fill="#765615" d="M0 400h100v100H0z"/><path fill="#7d5743" d="M100 400h100v100H100z"/><path fill="#f496ff" d="M200 400h100v100H200z"/><path fill="#eb93eb" d="M300 400h100v100H300z"/><path fill="#a37d53" d="M400 400h100v100H400z"/><path fill="#ae772e" d="M500 400h100v100H500z"/><path fill="#b2651c" d="M600 400h100v100H600z"/><path fill="#9f712e" d="M700 400h100v100H700z"/><path fill="#6f4f13" d="M0 500h100v100H0z"/><path fill="#7a562a" d="M100 500h100v100H100z"/><path fill="#bb826f" d="M200 500h100v100H200z"/><path fill="#b57e60" d="M300 500h100v100H300z"/><path fill="#af844b" d="M400 500h100v100H400z"/><path fill="#a0702e" d="M500 500h100v100H500z"/><path fill="#9c6422" d="M600 500h100v100H600z"/><path fill="#9d7132" d="M700 500h100v100H700z"/></svg>