<svg xmlns="http://www.w3.org/2000/svg" viewBox="0 0 800 800"><defs/><path fill="#95704a" d="M0 0h100v100H0z"/><path fill="#9d7b52" d="M100 0h100v100H100z"/><path fill="#a3835a" d="M200 0h100v100H200z"/><path fill="#a98b60" d="M300 0h100v100H300z"/><path fill="#b4966b" d="M400 0h100v100H400z"/><path fill="#bc9e75" d="M500 0h100v100H500z"/><path fill="#c8ab80" d="M600 0h100v100H600z"/><path fill="#d6ba91" d="M700 0h100v100H700z"/><path fill="#a28365" d="M0 100h100v100H0z"/><path fill="#9c856b" d="M100 100h100v100H100z"/><path fill="#9c886b" d="M200 100h100v100H200z"/><path fill="#aa9679" d="M300 100h100v100H300z"/><path fill="#ab997c" d="M400 100h100v100H400z"/><path fill="#baa88b" d="M500 100h100v100H500z"/><path fill="#c9b699" d="M600 100h100v100H600z"/><path fill="#d2bc9c" d="M700 100h100v100H700z"/><path fill="#b6a597" d="M0 200h100v100H0z"/><path fill="#a09e9e" d="M100 200h100v100H100z"/><path fill="#a8a8a5" d="M200 200h100v100H200z"/><path fill="#bec1be" d="M300 200h100v100H300z"/><path fill="#bec0be" d="M400 200h100v100H400z"/><path fill="#c3c5c2" d="M500 200h100v100H500z"/><path fill="#c9cdcc" d="M600 200h100v100H600z"/><path fill="#d5d0c4" d="M700 200h100v100H700z"/><path fill="#9d8c7d" d="M0 300h100v100H0z"/><path fill="#8f8c89" d="M100 300h100v100H100z"/><path fill="#a1a09a" d="M200 300h100v100H200z"/><path fill="#abaca6" d="M300 300h100v100H300z"/><path fill="#b8b8b4" d="M400 300h100v100H400z"/><path fill="#b8b9b4" d="M500 300h100v100H500z"/><path fill="#c5c8c4" d="M600 300h100v100H600z"/><path fill="#c8c4b6" d="M700 300h100v100H700z"/><path fill="#a29083" d="M0 400h100v100H0z"/><path fill="#7f7b77" d="M100 400h100v100H100z"/><path fill="#7c7873" d="M200 400h100v100H200z"/><path fill="#8c8b86" d="M300 400h100v100H300z"/><path fill="#8c8d88" d="M400 400h100v100H400z"/><path fill="#8a8b84" d="M500 400h100v100H500z"/><path fill="#868a85" d="M600 400h100v100H600z"/><path fill="#b3ae9e" d="M700 400h100v100H700z"/><path fill="#948174" d="M0 500h100v100H0z"/><path fill="#7e7872" d="M100 500h100v100H100z"/><path fill="#aca8a2" d="M200 500h100v100H200z"/><path fill="#9c9b97" d="M300 500h100v100H300z"/><path fill="#c1c1be" d="M400 500h100v100H400z"/><path fill="#858680" d="M500 500h100v100H500z"/><path fill="#838782" d="M600 500h100v100H600z"/><path fill="#9e9889" d="M700 500h100v100H700z"/><path fill="#6c5340" d="M0 600h100v100H0z"/><path fill="#80736a" d="M100 600h100v100H100z"/><path fill="#91897d" d="M200 600h100v100H200z"/><path fill="#8d887c" d="M300 600h100v100H300z"/><path fill="#938f83" d="M400 600h100v100H400z"/><path fill="#706c60" d="M500 600h100v100H500z"/><path fill="#949187" d="M600 600h100v100H600z"/><path fill="#ab9f87" d="M700 600h100v100H700z"/><path fill="#795133" d="M0 700h100v100H0z"/><path fill="#755133" d="M100 700h100v100H100z"/><path fill="#795736" d="M200 700h100v100H200z"/><path fill="#82623d" d="M300 700h100v100H300z"/><path fill="#856641" d="M400 700h100v100H400z"/><path fill="#90724b" d="M500 700h100v100H500z"/><path fill="#997a52" d="M600 700h100v100H600z"/><path fill="#a68759" d="M700 700h100v100H700z"/></svg>