<svg xmlns="http://www.w3.org/2000/svg" viewBox="0 0 800 500"><defs/><path fill="#d0d7d8" d="M0 0h100v100H0z"/><path fill="#ced6d8" d="M100 0h100v100H100z"/><path fill="#d5dbdd" d="M200 0h100v100H200z"/><path fill="#d8dce1" d="M300 0h100v100H300z"/><path fill="#d5d9dd" d="M400 0h100v100H400z"/><path fill="#d5dade" d="M500 0h100v100H500z"/><path fill="#d2d7dc" d="M600 0h100v100H600z"/><path fill="#ced6db" d="M700 0h100v100H700z"/><path fill="#cbd4d5" d="M0 100h100v100H0z"/><path fill="#b9cdc5" d="M100 100h100v100H100z"/><path fill="#c0c7ca" d="M200 100h100v100H200z"/><path fill="#cdd0d5" d="M300 100h100v100H300z"/><path fill="#cacdd2" d="M400 100h100v100H400z"/><path fill="#c4c7cd" d="M500 100h100v100H500z"/><path fill="#cdd0d7" d="M600 100h100v100H600z"/><path fill="#b9bfc3" d="M700 100h100v100H700z"/><path fill="#c5d0d0" d="M0 200h100v100H0z"/><path fill="#bdcec9" d="M100 200h100v100H100z"/><path fill="#bfc2c7" d="M200 200h100v100H200z"/><path fill="#a0a1a6" d="M300 200h100v100H300z"/><path fill="#abacb1" d="M400 200h100v100H400z"/><path fill="#b0b2b6" d="M500 200h100v100H500z"/><path fill="#b1b2b7" d="M600 200h100v100H600z"/><path fill="#a2a5ab" d="M700 200h100v100H700z"/><path fill="#bacbc9" d="M0 300h100v100H0z"/><path fill="#b5c9c3" d="M100 300h100v100H100z"/><path fill="#bfc1c7" d="M200 300h100v100H200z"/><path fill="#929398" d="M300 300h100v100H300z"/><path fill="#8c8d91" d="M400 300h100v100H400z"/><path fill="#9b9da1" d="M500 300h100v100H500z"/><path fill="#a6a7ac" d="M600 300h100v100H600z"/><path fill="#a5a9ae" d="M700 300h100v100H700z"/><path fill="#bac9cb" d="M0 400h100v100H0z"/><path fill="#c0cccf" d="M100 400h100v100H100z"/><path fill="#c7ced4" d="M200 400h100v100H200z"/><path fill="#b0b7ba" d="M300 400h100v100H300z"/><path fill="#b3b9be" d="M400 400h100v100H400z"/><path fill="#bec3c9" d="M500 400h100v100H500z"/><path fill="#bbbec4" d="M600 400h100v100H600z"/><path fill="#b2b9bd" d="M700 400h100v100H700z"/></svg>