<svg xmlns="http://www.w3.org/2000/svg" viewBox="0 0 800 400"><defs/><path fill="#9d8b82" d="M0 0h100v100H0z"/><path fill="#a3928b" d="M100 0h100v100H100z"/><path fill="#bcb2ab" d="M200 0h100v100H200z"/><path fill="#c5bab4" d="M300 0h100v100H300z"/><path fill="#cbbeb8" d="M400 0h100v100H400z"/><path fill="#d2c9c4" d="M500 0h100v100H500z"/><path fill="#cdc5c1" d="M600 0h100v100H600z"/><path fill="#b8ada7" d="M700 0h100v100H700z"/><path fill="#a08e85" d="M0 100h100v100H0z"/><path fill="#ac9f99" d="M100 100h100v100H100z"/><path fill="#cfc5c0" d="M200 100h100v100H200z"/><path fill="#e4dbd6" d="M300 100h100v100H300z"/><path fill="#c9afa3" d="M400 100h100v100H400z"/><path fill="#d9c4ba" d="M500 100h100v100H500z"/><path fill="#e0d5d1" d="M600 100h100v100H600z"/><path fill="#d1ccc8" d="M700 100h100v100H700z"/><path fill="#a5948b" d="M0 200h100v100H0z"/><path fill="#aea19b" d="M100 200h100v100H100z"/><path fill="#998a82" d="M200 200h100v100H200z"/><path fill="#978d87" d="M300 200h100v100H300z"/><path fill="#b6a79f" d="M400 200h100v100H400z"/><path fill="#baa9a1" d="M500 200h100v100H500z"/><path fill="#9e938d" d="M600 200h100v100H600z"/><path fill="#c1bbb7" d="M700 200h100v100H700z"/><path fill="#a19188" d="M0 300h100v100H0z"/><path fill="#a5948b" d="M100 300h100v100H100z"/><path fill="#aea19b" d="M200 300h100v100H200z"/><path fill="#a29893" d="M300 300h100v100H300z"/><path fill="#cdc7c3" d="M400 300h100v100H400z"/><path fill="#d2cdc9" d="M500 300h100v100H500z"/><path fill="#9a8e88" d="M600 300h100v100H600z"/><path fill="#a1958e" d="M700 300h100v100H700z"/></svg>