<svg xmlns="http://www.w3.org/2000/svg" viewBox="0 0 800 500"><defs/><path fill="#c49a60" d="M0 0h100v100H0z"/><path fill="#a79770" d="M100 0h100v100H100z"/><path fill="#19212d" d="M200 0h100v100H200z"/><path fill="#202436" d="M300 0h100v100H300z"/><path fill="#232839" d="M400 0h100v100H400z"/><path fill="#0d1321" d="M500 0h100v100H500z"/><path fill="#141925" d="M600 0h100v100H600z"/><path fill="#262326" d="M700 0h100v100H700z"/><path fill="#caaa70" d="M0 100h100v100H0z"/><path fill="#9a9275" d="M100 100h100v100H100z"/><path fill="#4a3034" d="M200 100h100v100H200z"/><path fill="#695153" d="M300 100h100v100H300z"/><path fill="#63595f" d="M400 100h100v100H400z"/><path fill="#2b2835" d="M500 100h100v100H500z"/><path fill="#182231" d="M600 100h100v100H600z"/><path fill="#2e2e34" d="M700 100h100v100H700z"/><path fill="#c6a66f" d="M0 200h100v100H0z"/><path fill="#7d755e" d="M100 200h100v100H100z"/><path fill="#36201d" d="M200 200h100v100H200z"/><path fill="#2b1f1e" d="M300 200h100v100H300z"/><path fill="#2c2123" d="M400 200h100v100H400z"/><path fill="#322225" d="M500 200h100v100H500z"/><path fill="#09101e" d="M600 200h100v100H600z"/><path fill="#1c2027" d="M700 200h100v100H700z"/><path fill="#bea573" d="M0 300h100v100H0z"/><path fill="#807e66" d="M100 300h100v100H100z"/><path fill="#604239" d="M200 300h100v100H200z"/><path fill="#92634e" d="M300 300h100v100H300z"/><path fill="#8d6555" d="M400 300h100v100H400z"/><path fill="#936958" d="M500 300h100v100H500z"/><path fill="#7e5541" d="M600 300h100v100H600z"/><path fill="#4f3b36" d="M700 300h100v100H700z"/><path fill="#b9a87e" d="M0 400h100v100H0z"/><path fill="#947e65" d="M100 400h100v100H100z"/><path fill="#a3725b" d="M200 400h100v100H200z"/><path fill="#da9b7b" d="M300 400h100v100H300z"/><path fill="#d59a80" d="M400 400h100v100H400z"/><path fill="#dd9f81" d="M500 400h100v100H500z"/><path fill="#cc9271" d="M600 400h100v100H600z"/><path fill="#ad8068" d="M700 400h100v100H700z"/></svg>