<svg xmlns="http://www.w3.org/2000/svg" viewBox="0 0 800 600"><defs/><path fill="#1c0608" d="M0 0h100v100H0z"/><path fill="#1c0609" d="M100 0h100v100H100z"/><path fill="#150707" d="M200 0h100v100H200z"/><path fill="#1e0f0f" d="M300 0h100v100H300z"/><path fill="#1b090c" d="M400 0h100v100H400z"/><path fill="#160809" d="M500 0h100v100H500z"/><path fill="#1b1212" d="M600 0h100v100H600z"/><path fill="#170808" d="M700 0h100v100H700z"/><path fill="#681921" d="M0 100h100v100H0z"/><path fill="#6f1926" d="M100 100h100v100H100z"/><path fill="#5f2729" d="M200 100h100v100H200z"/><path fill="#8a4344" d="M300 100h100v100H300z"/><path fill="#962e36" d="M400 100h100v100H400z"/><path fill="#832f42" d="M500 100h100v100H500z"/><path fill="#8c4a4a" d="M600 100h100v100H600z"/><path fill="#853437" d="M700 100h100v100H700z"/><path fill="#64201e" d="M0 200h100v100H0z"/><path fill="#72172a" d="M100 200h100v100H100z"/><path fill="#803b47" d="M200 200h100v100H200z"/><path fill="#8a524a" d="M300 200h100v100H300z"/><path fill="#622525" d="M400 200h100v100H400z"/><path fill="#5d2f1b" d="M500 200h100v100H500z"/><path fill="#744333" d="M600 200h100v100H600z"/><path fill="#89434e" d="M700 200h100v100H700z"/><path fill="#601d1b" d="M0 300h100v100H0z"/><path fill="#6f1c2b" d="M100 300h100v100H100z"/><path fill="#91454f" d="M200 300h100v100H200z"/><path fill="#886255" d="M300 300h100v100H300z"/><path fill="#77302c" d="M400 300h100v100H400z"/><path fill="#744226" d="M500 300h100v100H500z"/><path fill="#634d4b" d="M600 300h100v100H600z"/><path fill="#643b3d" d="M700 300h100v100H700z"/><path fill="#581a22" d="M0 400h100v100H0z"/><path fill="#752131" d="M100 400h100v100H100z"/><path fill="#80354e" d="M200 400h100v100H200z"/><path fill="#6e3a43" d="M300 400h100v100H300z"/><path fill="#9d3e2b" d="M400 400h100v100H400z"/><path fill="#ba3f2c" d="M500 400h100v100H500z"/><path fill="#7a2f3d" d="M600 400h100v100H600z"/><path fill="#3e1e44" d="M700 400h100v100H700z"/><path fill="#241518" d="M0 500h100v100H0z"/><path fill="#2b1114" d="M100 500h100v100H100z"/><path fill="#150108" d="M200 500h100v100H200z"/><path fill="#18020a" d="M300 500h100v100H300z"/><path fill="#200d0c" d="M400 500h100v100H400z"/><path fill="#2c0e0e" d="M500 500h100v100H500z"/><path fill="#251018" d="M600 500h100v100H600z"/><path fill="#11071a" d="M700 500h100v100H700z"/></svg>