<svg xmlns="http://www.w3.org/2000/svg" viewBox="0 0 800 800"><defs/><path fill="#e6e5e3" d="M0 0h100v100H0z"/><path fill="#e8e7e5" d="M100 0h100v100H100z"/><path fill="#e8e6e5" d="M200 0h100v100H200z"/><path fill="#ebe9e8" d="M300 0h100v100H300z"/><path fill="#eae9e7" d="M400 0h100v100H400z"/><path fill="#e0dcda" d="M500 0h100v100H500z"/><path fill="#eae9e7" d="M600 0h100v100H600z"/><path fill="#bba5a3" d="M700 0h100v100H700z"/><path fill="#f3f2f0" d="M0 100h100v100H0z"/><path fill="#e9e6e3" d="M100 100h100v100H100z"/><path fill="#ede7e3" d="M200 100h100v100H200z"/><path fill="#edebe9" d="M300 100h100v100H300z"/><path fill="#ddd9d7" d="M400 100h100v100H400z"/><path fill="#e4dedd" d="M500 100h100v100H500z"/><path fill="#e1dddd" d="M600 100h100v100H600z"/><path fill="#e3dddc" d="M700 100h100v100H700z"/><path fill="#b2adae" d="M0 200h100v100H0z"/><path fill="#b4acac" d="M100 200h100v100H100z"/><path fill="#b8aca9" d="M200 200h100v100H200z"/><path fill="#b5abab" d="M300 200h100v100H300z"/><path fill="#bcb0ae" d="M400 200h100v100H400z"/><path fill="#c8bbb6" d="M500 200h100v100H500z"/><path fill="#b19d9b" d="M600 200h100v100H600z"/><path fill="#d1c3bd" d="M700 200h100v100H700z"/><path fill="#746a71" d="M0 300h100v100H0z"/><path fill="#6e646b" d="M100 300h100v100H100z"/><path fill="#5d5158" d="M200 300h100v100H200z"/><path fill="#5b4c52" d="M300 300h100v100H300z"/><path fill="#5b494d" d="M400 300h100v100H400z"/><path fill="#634c4a" d="M500 300h100v100H500z"/><path fill="#886c62" d="M600 300h100v100H600z"/><path fill="#7a6059" d="M700 300h100v100H700z"/><path fill="#e8e7e6" d="M0 400h100v100H0z"/><path fill="#e8e5e7" d="M100 400h100v100H100z"/><path fill="#d1c1c0" d="M200 400h100v100H200z"/><path fill="#dddbdb" d="M300 400h100v100H300z"/><path fill="#807677" d="M400 400h100v100H400z"/><path fill="#5e4d51" d="M500 400h100v100H500z"/><path fill="#4b3638" d="M600 400h100v100H600z"/><path fill="#6b4f4b" d="M700 400h100v100H700z"/><path fill="#bfb8b8" d="M0 500h100v100H0z"/><path fill="#cec6c5" d="M100 500h100v100H100z"/><path fill="#e5e0df" d="M200 500h100v100H200z"/><path fill="#cfc7c8" d="M300 500h100v100H300z"/><path fill="#b9b0aa" d="M400 500h100v100H400z"/><path fill="#8f7f77" d="M500 500h100v100H500z"/><path fill="#573f41" d="M600 500h100v100H600z"/><path fill="#785f58" d="M700 500h100v100H700z"/><path fill="#b8aead" d="M0 600h100v100H0z"/><path fill="#b7abab" d="M100 600h100v100H100z"/><path fill="#aea0a1" d="M200 600h100v100H200z"/><path fill="#b3a9aa" d="M300 600h100v100H300z"/><path fill="#b4a9a4" d="M400 600h100v100H400z"/><path fill="#81726b" d="M500 600h100v100H500z"/><path fill="#7f655d" d="M600 600h100v100H600z"/><path fill="#a89182" d="M700 600h100v100H700z"/><path fill="#3f353b" d="M0 700h100v100H0z"/><path fill="#3c3137" d="M100 700h100v100H100z"/><path fill="#382a31" d="M200 700h100v100H200z"/><path fill="#2f242c" d="M300 700h100v100H300z"/><path fill="#3f2e33" d="M400 700h100v100H400z"/><path fill="#665353" d="M500 700h100v100H500z"/><path fill="#785c54" d="M600 700h100v100H600z"/><path fill="#85685f" d="M700 700h100v100H700z"/></svg>