<svg xmlns="http://www.w3.org/2000/svg" viewBox="0 0 800 600"><defs/><path fill="#e7e2e0" d="M0 0h100v100H0z"/><path fill="#eadfdb" d="M100 0h100v100H100z"/><path fill="#e9e4e1" d="M200 0h100v100H200z"/><path fill="#e6e2df" d="M300 0h100v100H300z"/><path fill="#e8e3e2" d="M400 0h100v100H400z"/><path fill="#e6e3e1" d="M500 0h100v100H500z"/><path fill="#e8e4e2" d="M600 0h100v100H600z"/><path fill="#e7e6e4" d="M700 0h100v100H700z"/><path fill="#977971" d="M0 100h100v100H0z"/><path fill="#ab5d50" d="M100 100h100v100H100z"/><path fill="#937469" d="M200 100h100v100H200z"/><path fill="#8d685d" d="M300 100h100v100H300z"/><path fill="#8a6c5f" d="M400 100h100v100H400z"/><path fill="#8a6a5c" d="M500 100h100v100H500z"/><path fill="#88695d" d="M600 100h100v100H600z"/><path fill="#906a60" d="M700 100h100v100H700z"/><path fill="#a57e75" d="M0 200h100v100H0z"/><path fill="#ae6659" d="M100 200h100v100H100z"/><path fill="#88756b" d="M200 200h100v100H200z"/><path fill="#896b5f" d="M300 200h100v100H300z"/><path fill="#886e5f" d="M400 200h100v100H400z"/><path fill="#8b6c61" d="M500 200h100v100H500z"/><path fill="#826d64" d="M600 200h100v100H600z"/><path fill="#ac6764" d="M700 200h100v100H700z"/><path fill="#ad766d" d="M0 300h100v100H0z"/><path fill="#b2685a" d="M100 300h100v100H100z"/><path fill="#b27a6f" d="M200 300h100v100H200z"/><path fill="#866d68" d="M300 300h100v100H300z"/><path fill="#96635b" d="M400 300h100v100H400z"/><path fill="#a96c62" d="M500 300h100v100H500z"/><path fill="#ad7267" d="M600 300h100v100H600z"/><path fill="#b66964" d="M700 300h100v100H700z"/><path fill="#b5736a" d="M0 400h100v100H0z"/><path fill="#da6d61" d="M100 400h100v100H100z"/><path fill="#f1776c" d="M200 400h100v100H200z"/><path fill="#a3625d" d="M300 400h100v100H300z"/><path fill="#b05750" d="M400 400h100v100H400z"/><path fill="#a04a42" d="M500 400h100v100H500z"/><path fill="#ff8173" d="M600 400h100v100H600z"/><path fill="#dd766e" d="M700 400h100v100H700z"/><path fill="#efd8d5" d="M0 500h100v100H0z"/><path fill="#f8d3cf" d="M100 500h100v100H100z"/><path fill="#f2d2ce" d="M200 500h100v100H200z"/><path fill="#edc9c6" d="M300 500h100v100H300z"/><path fill="#f0ccc8" d="M400 500h100v100H400z"/><path fill="#edcbc7" d="M500 500h100v100H500z"/><path fill="#f4cfcb" d="M600 500h100v100H600z"/><path fill="#f0d0cd" d="M700 500h100v100H700z"/></svg>