<svg xmlns="http://www.w3.org/2000/svg" viewBox="0 0 800 500"><defs/><path fill="#72847f" d="M0 0h100v100H0z"/><path fill="#c5c5c0" d="M100 0h100v100H100z"/><path fill="#b6bab6" d="M200 0h100v100H200z"/><path fill="#bcbebb" d="M300 0h100v100H300z"/><path fill="#cacac8" d="M400 0h100v100H400z"/><path fill="#cccbc8" d="M500 0h100v100H500z"/><path fill="#e2dfdc" d="M600 0h100v100H600z"/><path fill="#90a09e" d="M700 0h100v100H700z"/><path fill="#6e8482" d="M0 100h100v100H0z"/><path fill="#cec6c5" d="M100 100h100v100H100z"/><path fill="#bbb7b6" d="M200 100h100v100H200z"/><path fill="#a4a2a4" d="M300 100h100v100H300z"/><path fill="#d1cccb" d="M400 100h100v100H400z"/><path fill="#c1bebf" d="M500 100h100v100H500z"/><path fill="#faedec" d="M600 100h100v100H600z"/><path fill="#a2bab6" d="M700 100h100v100H700z"/><path fill="#748986" d="M0 200h100v100H0z"/><path fill="#c5bfbf" d="M100 200h100v100H100z"/><path fill="#c5c3c1" d="M200 200h100v100H200z"/><path fill="#bcbabb" d="M300 200h100v100H300z"/><path fill="#c0bec0" d="M400 200h100v100H400z"/><path fill="#d1cecf" d="M500 200h100v100H500z"/><path fill="#eee4e5" d="M600 200h100v100H600z"/><path fill="#a4bcb9" d="M700 200h100v100H700z"/><path fill="#788c88" d="M0 300h100v100H0z"/><path fill="#b8b1b1" d="M100 300h100v100H100z"/><path fill="#cdc7c6" d="M200 300h100v100H200z"/><path fill="#ede6e4" d="M300 300h100v100H300z"/><path fill="#eee5e5" d="M400 300h100v100H400z"/><path fill="#ece5e5" d="M500 300h100v100H500z"/><path fill="#ece0e1" d="M600 300h100v100H600z"/><path fill="#acc1bd" d="M700 300h100v100H700z"/><path fill="#5a726f" d="M0 400h100v100H0z"/><path fill="#9fa7a5" d="M100 400h100v100H100z"/><path fill="#acb7b5" d="M200 400h100v100H200z"/><path fill="#b3bfbe" d="M300 400h100v100H300z"/><path fill="#b3c1c0" d="M400 400h100v100H400z"/><path fill="#b7c4c4" d="M500 400h100v100H500z"/><path fill="#c0c9c9" d="M600 400h100v100H600z"/><path fill="#9ab6b4" d="M700 400h100v100H700z"/></svg>