<svg xmlns="http://www.w3.org/2000/svg" viewBox="0 0 800 600"><defs/><path fill="#acb7c0" d="M0 0h100v100H0z"/><path fill="#c4c0bf" d="M100 0h100v100H100z"/><path fill="#a7b4bc" d="M200 0h100v100H200z"/><path fill="#b8c2ca" d="M300 0h100v100H300z"/><path fill="#c7cdd5" d="M400 0h100v100H400z"/><path fill="#a8b6c1" d="M500 0h100v100H500z"/><path fill="#a4b5c0" d="M600 0h100v100H600z"/><path fill="#adbac3" d="M700 0h100v100H700z"/><path fill="#3f5d6b" d="M0 100h100v100H0z"/><path fill="#94725a" d="M100 100h100v100H100z"/><path fill="#1c4149" d="M200 100h100v100H200z"/><path fill="#78928d" d="M300 100h100v100H300z"/><path fill="#bccbc3" d="M400 100h100v100H400z"/><path fill="#24505f" d="M500 100h100v100H500z"/><path fill="#2e464f" d="M600 100h100v100H600z"/><path fill="#335465" d="M700 100h100v100H700z"/><path fill="#606b6d" d="M0 200h100v100H0z"/><path fill="#7a6b60" d="M100 200h100v100H100z"/><path fill="#0b3642" d="M200 200h100v100H200z"/><path fill="#65766d" d="M300 200h100v100H300z"/><path fill="#838f85" d="M400 200h100v100H400z"/><path fill="#173e50" d="M500 200h100v100H500z"/><path fill="#353a3f" d="M600 200h100v100H600z"/><path fill="#374e5c" d="M700 200h100v100H700z"/><path fill="#7b7871" d="M0 300h100v100H0z"/><path fill="#876b54" d="M100 300h100v100H100z"/><path fill="#4f463d" d="M200 300h100v100H200z"/><path fill="#764839" d="M300 300h100v100H300z"/><path fill="#6f413d" d="M400 300h100v100H400z"/><path fill="#84594b" d="M500 300h100v100H500z"/><path fill="#6b4138" d="M600 300h100v100H600z"/><path fill="#364d5c" d="M700 300h100v100H700z"/><path fill="#a38068" d="M0 400h100v100H0z"/><path fill="#96663f" d="M100 400h100v100H100z"/><path fill="#775b43" d="M200 400h100v100H200z"/><path fill="#71503c" d="M300 400h100v100H300z"/><path fill="#7b5e4b" d="M400 400h100v100H400z"/><path fill="#7d5d47" d="M500 400h100v100H500z"/><path fill="#694836" d="M600 400h100v100H600z"/><path fill="#494948" d="M700 400h100v100H700z"/><path fill="#d1c0b7" d="M0 500h100v100H0z"/><path fill="#b5a9a3" d="M100 500h100v100H100z"/><path fill="#a8a4a2" d="M200 500h100v100H200z"/><path fill="#aea6a1" d="M300 500h100v100H300z"/><path fill="#aca39f" d="M400 500h100v100H400z"/><path fill="#ada5a1" d="M500 500h100v100H500z"/><path fill="#aaa39f" d="M600 500h100v100H600z"/><path fill="#aca5a4" d="M700 500h100v100H700z"/></svg>