<svg xmlns="http://www.w3.org/2000/svg" viewBox="0 0 800 500"><defs/><path fill="#8f8378" d="M0 0h100v100H0z"/><path fill="#80746c" d="M100 0h100v100H100z"/><path fill="#7b6967" d="M200 0h100v100H200z"/><path fill="#6d6660" d="M300 0h100v100H300z"/><path fill="#605350" d="M400 0h100v100H400z"/><path fill="#685b56" d="M500 0h100v100H500z"/><path fill="#5c6151" d="M600 0h100v100H600z"/><path fill="#445e73" d="M700 0h100v100H700z"/><path fill="#afa18e" d="M0 100h100v100H0z"/><path fill="#9a8b7d" d="M100 100h100v100H100z"/><path fill="#97887e" d="M200 100h100v100H200z"/><path fill="#7d7369" d="M300 100h100v100H300z"/><path fill="#695751" d="M400 100h100v100H400z"/><path fill="#6f5f56" d="M500 100h100v100H500z"/><path fill="#4b5848" d="M600 100h100v100H600z"/><path fill="#38515c" d="M700 100h100v100H700z"/><path fill="#ab9b94" d="M0 200h100v100H0z"/><path fill="#b49081" d="M100 200h100v100H100z"/><path fill="#c7b6a0" d="M200 200h100v100H200z"/><path fill="#baa191" d="M300 200h100v100H300z"/><path fill="#a89286" d="M400 200h100v100H400z"/><path fill="#a68d82" d="M500 200h100v100H500z"/><path fill="#5e6d5c" d="M600 200h100v100H600z"/><path fill="#415252" d="M700 200h100v100H700z"/><path fill="#b7a59a" d="M0 300h100v100H0z"/><path fill="#9aa69f" d="M100 300h100v100H100z"/><path fill="#c1b7a4" d="M200 300h100v100H200z"/><path fill="#e6c2a8" d="M300 300h100v100H300z"/><path fill="#e0bea8" d="M400 300h100v100H400z"/><path fill="#dcb7a5" d="M500 300h100v100H500z"/><path fill="#c7bb93" d="M600 300h100v100H600z"/><path fill="#8a8763" d="M700 300h100v100H700z"/><path fill="#ccbba1" d="M0 400h100v100H0z"/><path fill="#d3c3ab" d="M100 400h100v100H100z"/><path fill="#dbc7ad" d="M200 400h100v100H200z"/><path fill="#e1cdb0" d="M300 400h100v100H300z"/><path fill="#e2cfb5" d="M400 400h100v100H400z"/><path fill="#e3ceb4" d="M500 400h100v100H500z"/><path fill="#edd7b7" d="M600 400h100v100H600z"/><path fill="#ccb79d" d="M700 400h100v100H700z"/></svg>