<svg xmlns="http://www.w3.org/2000/svg" viewBox="0 0 800 500"><defs/><path fill="#dcabef" d="M0 0h100v100H0z"/><path fill="#deaeeb" d="M100 0h100v100H100z"/><path fill="#cb99d7" d="M200 0h100v100H200z"/><path fill="#a174af" d="M300 0h100v100H300z"/><path fill="#b284bf" d="M400 0h100v100H400z"/><path fill="#ae81bc" d="M500 0h100v100H500z"/><path fill="#c488d2" d="M600 0h100v100H600z"/><path fill="#d7a0e6" d="M700 0h100v100H700z"/><path fill="#e4b4f9" d="M0 100h100v100H0z"/><path fill="#e9b9f2" d="M100 100h100v100H100z"/><path fill="#d2a7df" d="M200 100h100v100H200z"/><path fill="#c4a8cf" d="M300 100h100v100H300z"/><path fill="#cbafd3" d="M400 100h100v100H400z"/><path fill="#9a86aa" d="M500 100h100v100H500z"/><path fill="#d099de" d="M600 100h100v100H600z"/><path fill="#dda7ed" d="M700 100h100v100H700z"/><path fill="#e9bafe" d="M0 200h100v100H0z"/><path fill="#ebc4f3" d="M100 200h100v100H100z"/><path fill="#ddb1ea" d="M200 200h100v100H200z"/><path fill="#d0aadd" d="M300 200h100v100H300z"/><path fill="#bf9ad0" d="M400 200h100v100H400z"/><path fill="#b28bc3" d="M500 200h100v100H500z"/><path fill="#cf94df" d="M600 200h100v100H600z"/><path fill="#dda6f2" d="M700 200h100v100H700z"/><path fill="#edbdff" d="M0 300h100v100H0z"/><path fill="#f4cffc" d="M100 300h100v100H100z"/><path fill="#e7b9f8" d="M200 300h100v100H200z"/><path fill="#dfadf5" d="M300 300h100v100H300z"/><path fill="#e4b3f8" d="M400 300h100v100H400z"/><path fill="#e7b5fb" d="M500 300h100v100H500z"/><path fill="#e0adf5" d="M600 300h100v100H600z"/><path fill="#e2aff8" d="M700 300h100v100H700z"/><path fill="#e5c0fc" d="M0 400h100v100H0z"/><path fill="#e5bffe" d="M100 400h100v100H100z"/><path fill="#edceff" d="M200 400h100v100H200z"/><path fill="#f0d7ff" d="M300 400h100v100H300z"/><path fill="#e8c6ff" d="M400 400h100v100H400z"/><path fill="#e6c7fd" d="M500 400h100v100H500z"/><path fill="#e5c3fd" d="M600 400h100v100H600z"/><path fill="#e3bffa" d="M700 400h100v100H700z"/></svg>