<svg xmlns="http://www.w3.org/2000/svg" viewBox="0 0 800 1400"><defs/><path fill="#fff" d="M0 0h100v100H0z"/><path fill="#fcfbfb" d="M100 0h100v100H100z"/><path fill="#fcfbfa" d="M200 0h100v100H200z"/><path fill="#fdfbfa" d="M300 0h100v100H300zm100 0h100v100H400zm100 0h100v100H500z"/><path fill="#fcfbfa" d="M600 0h100v100H600z"/><path fill="#fffeff" d="M700 0h100v100H700z"/><path fill="#fff" d="M0 100h100v100H0zm100 0h100v100H100zm100 0h100v100H200zm100 0h100v100H300zm100 0h100v100H400zm100 0h100v100H500zm100 0h100v100H600zm100 0h100v100H700z"/><path fill="#fcfbfb" d="M0 200h100v100H0z"/><path fill="#ceb8b1" d="M100 200h100v100H100z"/><path fill="#c8ada4" d="M200 200h100v100H200z"/><path fill="#cdb1a9" d="M300 200h100v100H300z"/><path fill="#d6b6ac" d="M400 200h100v100H400z"/><path fill="#d7b6ab" d="M500 200h100v100H500z"/><path fill="#cfb6ae" d="M600 200h100v100H600z"/><path fill="#f8f6f6" d="M700 200h100v100H700z"/><path fill="#f6f6f5" d="M0 300h100v100H0z"/><path fill="#8c5c4b" d="M100 300h100v100H100z"/><path fill="#9b4f36" d="M200 300h100v100H200z"/><path fill="#b25e42" d="M300 300h100v100H300z"/><path fill="#a8583e" d="M400 300h100v100H400z"/><path fill="#7a3c28" d="M500 300h100v100H500z"/><path fill="#6d4234" d="M600 300h100v100H600z"/><path fill="#eeeae9" d="M700 300h100v100H700z"/><path fill="#f8f7f7" d="M0 400h100v100H0z"/><path fill="#ae7561" d="M100 400h100v100H100z"/><path fill="#a15c44" d="M200 400h100v100H200z"/><path fill="#895a47" d="M300 400h100v100H300z"/><path fill="#5d4336" d="M400 400h100v100H400z"/><path fill="#3f3026" d="M500 400h100v100H500z"/><path fill="#50433a" d="M600 400h100v100H600z"/><path fill="#ebeae9" d="M700 400h100v100H700z"/><path fill="#f9f7f7" d="M0 500h100v100H0z"/><path fill="#7c6255" d="M100 500h100v100H100z"/><path fill="#3d362c" d="M200 500h100v100H200z"/><path fill="#313730" d="M300 500h100v100H300z"/><path fill="#3b463e" d="M400 500h100v100H400z"/><path fill="#1e221d" d="M500 500h100v100H500z"/><path fill="#3b3f39" d="M600 500h100v100H600z"/><path fill="#edeeed" d="M700 500h100v100H700z"/><path fill="#f6f7f7" d="M0 600h100v100H0z"/><path fill="#282e2e" d="M100 600h100v100H100z"/><path fill="#07100e" d="M200 600h100v100H200z"/><path fill="#203532" d="M300 600h100v100H300z"/><path fill="#304d48" d="M400 600h100v100H400z"/><path fill="#101e1c" d="M500 600h100v100H500z"/><path fill="#324643" d="M600 600h100v100H600z"/><path fill="#eef2f1" d="M700 600h100v100H700z"/><path fill="#f5f5f5" d="M0 700h100v100H0z"/><path fill="#2a2e2d" d="M100 700h100v100H100z"/><path fill="#040908" d="M200 700h100v100H200z"/><path fill="#162523" d="M300 700h100v100H300z"/><path fill="#2b4d49" d="M400 700h100v100H400z"/><path fill="#284d48" d="M500 700h100v100H500z"/><path fill="#364f4c" d="M600 700h100v100H600z"/><path fill="#ebefee" d="M700 700h100v100H700z"/><path fill="#f6f7f7" d="M0 800h100v100H0z"/><path fill="#394e4b" d="M100 800h100v100H100z"/><path fill="#071311" d="M200 800h100v100H200z"/><path fill="#172926" d="M300 800h100v100H300z"/><path fill="#203a36" d="M400 800h100v100H400z"/><path fill="#172f2b" d="M500 800h100v100H500z"/><path fill="#253331" d="M600 800h100v100H600z"/><path fill="#e9eaea" d="M700 800h100v100H700z"/><path fill="#f8fbfa" d="M0 900h100v100H0z"/><path fill="#2f3837" d="M100 900h100v100H100z"/><path fill="#050c0b" d="M200 900h100v100H200z"/><path fill="#152321" d="M300 900h100v100H300z"/><path fill="#121d1c" d="M400 900h100v100H400z"/><path fill="#0f1e1c" d="M500 900h100v100H500z"/><path fill="#293837" d="M600 900h100v100H600z"/><path fill="#eaecec" d="M700 900h100v100H700z"/><path fill="#f5f6f6" d="M0 1000h100v100H0z"/><path fill="#202524" d="M100 1000h100v100H100z"/><path fill="#000403" d="M200 1000h100v100H200z"/><path fill="#031210" d="M300 1000h100v100H300z"/><path fill="#03110f" d="M400 1000h100v100H400z"/><path fill="#000504" d="M500 1000h100v100H500z"/><path fill="#161c1b" d="M600 1000h100v100H600z"/><path fill="#e8eaea" d="M700 1000h100v100H700z"/><path fill="#fafbfb" d="M0 1100h100v100H0z"/><path fill="#969a99" d="M100 1100h100v100H100z"/><path fill="#848a89" d="M200 1100h100v100H200z"/><path fill="#898f8e" d="M300 1100h100v100H300z"/><path fill="#898f8f" d="M400 1100h100v100H400z"/><path fill="#7e8685" d="M500 1100h100v100H500z"/><path fill="#868c8b" d="M600 1100h100v100H600z"/><path fill="#f4f5f5" d="M700 1100h100v100H700z"/><path fill="#fff" d="M0 1200h100v100H0zm100 0h100v100H100zm100 0h100v100H200zm100 0h100v100H300zm100 0h100v100H400zm100 0h100v100H500zm100 0h100v100H600zm100 0h100v100H700zM0 1300h100v100H0z"/><path fill="#fbfbfb" d="M100 1300h100v100H100zm100 0h100v100H200z"/><path fill="#fbfcfb" d="M300 1300h100v100H300z"/><path fill="#fbfbfb" d="M400 1300h100v100H400z"/><path fill="#fbfcfc" d="M500 1300h100v100H500z"/><path fill="#fcfcfc" d="M600 1300h100v100H600z"/><path fill="#fff" d="M700 1300h100v100H700z"/></svg>