<svg xmlns="http://www.w3.org/2000/svg" viewBox="0 0 800 500"><defs/><path fill="#3b3328" d="M0 0h100v100H0z"/><path fill="#3e2c25" d="M100 0h100v100H100z"/><path fill="#373330" d="M200 0h100v100H200z"/><path fill="#2a2019" d="M300 0h100v100H300z"/><path fill="#2d2d2c" d="M400 0h100v100H400z"/><path fill="#3e3c35" d="M500 0h100v100H500z"/><path fill="#383330" d="M600 0h100v100H600z"/><path fill="#241f1a" d="M700 0h100v100H700z"/><path fill="#937c63" d="M0 100h100v100H0z"/><path fill="#c08c56" d="M100 100h100v100H100z"/><path fill="#8e9a92" d="M200 100h100v100H200z"/><path fill="#657e7f" d="M300 100h100v100H300z"/><path fill="#9ea29e" d="M400 100h100v100H400z"/><path fill="#807362" d="M500 100h100v100H500z"/><path fill="#a3b5a2" d="M600 100h100v100H600z"/><path fill="#867763" d="M700 100h100v100H700z"/><path fill="#614e3d" d="M0 200h100v100H0z"/><path fill="#a66a36" d="M100 200h100v100H100z"/><path fill="#907c68" d="M200 200h100v100H200z"/><path fill="#7e6a68" d="M300 200h100v100H300z"/><path fill="#9d6c54" d="M400 200h100v100H400z"/><path fill="#667f4a" d="M500 200h100v100H500z"/><path fill="#8c9a74" d="M600 200h100v100H600z"/><path fill="#60574f" d="M700 200h100v100H700z"/><path fill="#452f1e" d="M0 300h100v100H0z"/><path fill="#9d6228" d="M100 300h100v100H100z"/><path fill="#744b25" d="M200 300h100v100H200z"/><path fill="#4a5345" d="M300 300h100v100H300z"/><path fill="#73715b" d="M400 300h100v100H400z"/><path fill="#a38841" d="M500 300h100v100H500z"/><path fill="#a99072" d="M600 300h100v100H600z"/><path fill="#4c4238" d="M700 300h100v100H700z"/><path fill="#26170c" d="M0 400h100v100H0z"/><path fill="#65421f" d="M100 400h100v100H100z"/><path fill="#57442d" d="M200 400h100v100H200z"/><path fill="#51665c" d="M300 400h100v100H300z"/><path fill="#6a6b58" d="M400 400h100v100H400z"/><path fill="#834321" d="M500 400h100v100H500z"/><path fill="#7a3f1d" d="M600 400h100v100H600z"/><path fill="#27140a" d="M700 400h100v100H700z"/></svg>