<svg xmlns="http://www.w3.org/2000/svg" viewBox="0 0 800 400"><defs/><path fill="#eceef9" d="M0 0h100v100H0z"/><path fill="#bcbfc9" d="M100 0h100v100H100z"/><path fill="#c5c7ce" d="M200 0h100v100H200z"/><path fill="#c9ccd9" d="M300 0h100v100H300z"/><path fill="#d4d8dc" d="M400 0h100v100H400z"/><path fill="#caccc2" d="M500 0h100v100H500z"/><path fill="#d2d7ed" d="M600 0h100v100H600z"/><path fill="#dadeeb" d="M700 0h100v100H700z"/><path fill="#c0c3cc" d="M0 100h100v100H0z"/><path fill="#c5c7cc" d="M100 100h100v100H100z"/><path fill="#c5c4c4" d="M200 100h100v100H200z"/><path fill="#c9cdd8" d="M300 100h100v100H300z"/><path fill="#c1c5d0" d="M400 100h100v100H400z"/><path fill="#d2d5d4" d="M500 100h100v100H500z"/><path fill="#e1e7f6" d="M600 100h100v100H600z"/><path fill="#b3b8c7" d="M700 100h100v100H700z"/><path fill="#9ea2aa" d="M0 200h100v100H0z"/><path fill="#cacdd1" d="M100 200h100v100H100z"/><path fill="#edeff1" d="M200 200h100v100H200z"/><path fill="#d0c7bb" d="M300 200h100v100H300z"/><path fill="#a3947f" d="M400 200h100v100H400z"/><path fill="#c1b39e" d="M500 200h100v100H500z"/><path fill="#cfc5bb" d="M600 200h100v100H600z"/><path fill="#c9cad2" d="M700 200h100v100H700z"/><path fill="#878584" d="M0 300h100v100H0z"/><path fill="#bcb8b1" d="M100 300h100v100H100z"/><path fill="#dfdddb" d="M200 300h100v100H200z"/><path fill="#c1a581" d="M300 300h100v100H300z"/><path fill="#c5a882" d="M400 300h100v100H400z"/><path fill="#c6a985" d="M500 300h100v100H500z"/><path fill="#c9ab85" d="M600 300h100v100H600z"/><path fill="#bbb2a0" d="M700 300h100v100H700z"/></svg>