<svg xmlns="http://www.w3.org/2000/svg" viewBox="0 0 800 800"><defs/><path fill="#b4b1b4" d="M0 0h100v100H0z"/><path fill="#6d5b5c" d="M100 0h100v100H100z"/><path fill="#b34c31" d="M200 0h100v100H200z"/><path fill="#ab7b6e" d="M300 0h100v100H300z"/><path fill="#a5a2a4" d="M400 0h100v100H400z"/><path fill="#928a8b" d="M500 0h100v100H500z"/><path fill="#bbbbc2" d="M600 0h100v100H600z"/><path fill="#cbced6" d="M700 0h100v100H700z"/><path fill="#bec0c1" d="M0 100h100v100H0z"/><path fill="#a49290" d="M100 100h100v100H100z"/><path fill="#a36a58" d="M200 100h100v100H200z"/><path fill="#bf9d8e" d="M300 100h100v100H300z"/><path fill="#af8375" d="M400 100h100v100H400z"/><path fill="#977c75" d="M500 100h100v100H500z"/><path fill="#767177" d="M600 100h100v100H600z"/><path fill="#98989e" d="M700 100h100v100H700z"/><path fill="#c3c4c7" d="M0 200h100v100H0z"/><path fill="#aa9ea2" d="M100 200h100v100H100z"/><path fill="#ae7b69" d="M200 200h100v100H200z"/><path fill="#cb9680" d="M300 200h100v100H300z"/><path fill="#d6917b" d="M400 200h100v100H400z"/><path fill="#bd8d79" d="M500 200h100v100H500z"/><path fill="#574c4f" d="M600 200h100v100H600z"/><path fill="#625c64" d="M700 200h100v100H700z"/><path fill="#aeaeb2" d="M0 300h100v100H0z"/><path fill="#63646f" d="M100 300h100v100H100z"/><path fill="#ca9789" d="M200 300h100v100H200z"/><path fill="#d08d78" d="M300 300h100v100H300z"/><path fill="#b87b6d" d="M400 300h100v100H400z"/><path fill="#ae7764" d="M500 300h100v100H500z"/><path fill="#413337" d="M600 300h100v100H600z"/><path fill="#504d51" d="M700 300h100v100H700z"/><path fill="#bebec0" d="M0 400h100v100H0z"/><path fill="#70757e" d="M100 400h100v100H100z"/><path fill="#958378" d="M200 400h100v100H200z"/><path fill="#d59379" d="M300 400h100v100H300z"/><path fill="#b36f62" d="M400 400h100v100H400z"/><path fill="#835d4f" d="M500 400h100v100H500z"/><path fill="#1e1f27" d="M600 400h100v100H600z"/><path fill="#676c6e" d="M700 400h100v100H700z"/><path fill="#b7b8bb" d="M0 500h100v100H0z"/><path fill="#abb1b5" d="M100 500h100v100H100z"/><path fill="#c2a9a1" d="M200 500h100v100H200z"/><path fill="#c9896e" d="M300 500h100v100H300z"/><path fill="#ab6d59" d="M400 500h100v100H400z"/><path fill="#a0928d" d="M500 500h100v100H500z"/><path fill="#7b8c9c" d="M600 500h100v100H600z"/><path fill="#9ea3a9" d="M700 500h100v100H700z"/><path fill="#dedbd2" d="M0 600h100v100H0z"/><path fill="#edf0ea" d="M100 600h100v100H100z"/><path fill="#dcb9b1" d="M200 600h100v100H200z"/><path fill="#c1745c" d="M300 600h100v100H300z"/><path fill="#ab6553" d="M400 600h100v100H400z"/><path fill="#dcc9c4" d="M500 600h100v100H500z"/><path fill="#f3f5f2" d="M600 600h100v100H600z"/><path fill="#d4d5d1" d="M700 600h100v100H700z"/><path fill="#d6cbb2" d="M0 700h100v100H0z"/><path fill="#d4cdc6" d="M100 700h100v100H100z"/><path fill="#dad0d5" d="M200 700h100v100H200z"/><path fill="#d28b7b" d="M300 700h100v100H300z"/><path fill="#d99f95" d="M400 700h100v100H400z"/><path fill="#cbc3c4" d="M500 700h100v100H500z"/><path fill="#d4cec2" d="M600 700h100v100H600z"/><path fill="#ddd6c4" d="M700 700h100v100H700z"/></svg>