<svg xmlns="http://www.w3.org/2000/svg" viewBox="0 0 800 800"><defs/><path fill="#5f625c" d="M0 0h100v100H0z"/><path fill="#5d5f5a" d="M100 0h100v100H100z"/><path fill="#5b5d58" d="M200 0h100v100H200z"/><path fill="#5b5c58" d="M300 0h100v100H300z"/><path fill="#50514d" d="M400 0h100v100H400z"/><path fill="#434340" d="M500 0h100v100H500z"/><path fill="#3b3b39" d="M600 0h100v100H600z"/><path fill="#343733" d="M700 0h100v100H700z"/><path fill="#5d605b" d="M0 100h100v100H0z"/><path fill="#666864" d="M100 100h100v100H100z"/><path fill="#727370" d="M200 100h100v100H200z"/><path fill="#696a66" d="M300 100h100v100H300z"/><path fill="#646460" d="M400 100h100v100H400z"/><path fill="#5f605c" d="M500 100h100v100H500z"/><path fill="#575754" d="M600 100h100v100H600z"/><path fill="#5b5d5a" d="M700 100h100v100H700z"/><path fill="#72736f" d="M0 200h100v100H0z"/><path fill="#878986" d="M100 200h100v100H100z"/><path fill="#7c7c79" d="M200 200h100v100H200z"/><path fill="#80807c" d="M300 200h100v100H300z"/><path fill="#666561" d="M400 200h100v100H400z"/><path fill="#50504c" d="M500 200h100v100H500z"/><path fill="#575754" d="M600 200h100v100H600z"/><path fill="#5b5e5a" d="M700 200h100v100H700z"/><path fill="#656764" d="M0 300h100v100H0z"/><path fill="#888884" d="M100 300h100v100H100z"/><path fill="#6a6a66" d="M200 300h100v100H200z"/><path fill="#6d6d6a" d="M300 300h100v100H300z"/><path fill="#7a7974" d="M400 300h100v100H400z"/><path fill="#64635e" d="M500 300h100v100H500z"/><path fill="#5c5c5a" d="M600 300h100v100H600z"/><path fill="#535552" d="M700 300h100v100H700z"/><path fill="#60615c" d="M0 400h100v100H0z"/><path fill="#686a65" d="M100 400h100v100H100z"/><path fill="#686864" d="M200 400h100v100H200z"/><path fill="#5b5a56" d="M300 400h100v100H300z"/><path fill="#5e5d59" d="M400 400h100v100H400z"/><path fill="#555651" d="M500 400h100v100H500z"/><path fill="#5a5b56" d="M600 400h100v100H600z"/><path fill="#5f605d" d="M700 400h100v100H700z"/><path fill="#333530" d="M0 500h100v100H0z"/><path fill="#3a3a36" d="M100 500h100v100H100z"/><path fill="#3b3b37" d="M200 500h100v100H200z"/><path fill="#373733" d="M300 500h100v100H300z"/><path fill="#31302c" d="M400 500h100v100H400z"/><path fill="#2e2f2c" d="M500 500h100v100H500z"/><path fill="#2d2f2c" d="M600 500h100v100H600z"/><path fill="#343632" d="M700 500h100v100H700z"/><path fill="#30322d" d="M0 600h100v100H0z"/><path fill="#353732" d="M100 600h100v100H100z"/><path fill="#363732" d="M200 600h100v100H200z"/><path fill="#32322e" d="M300 600h100v100H300z"/><path fill="#2b2b28" d="M400 600h100v100H400z"/><path fill="#262723" d="M500 600h100v100H500z"/><path fill="#272925" d="M600 600h100v100H600z"/><path fill="#2c2d29" d="M700 600h100v100H700z"/><path fill="#2b2e29" d="M0 700h100v100H0z"/><path fill="#30322d" d="M100 700h100v100H100z"/><path fill="#30312c" d="M200 700h100v100H200z"/><path fill="#2c2d29" d="M300 700h100v100H300z"/><path fill="#262723" d="M400 700h100v100H400z"/><path fill="#212220" d="M500 700h100v100H500z"/><path fill="#232420" d="M600 700h100v100H600z"/><path fill="#252623" d="M700 700h100v100H700z"/></svg>