<svg xmlns="http://www.w3.org/2000/svg" viewBox="0 0 800 400"><defs/><path fill="#4a4537" d="M0 0h100v100H0z"/><path fill="#887e63" d="M100 0h100v100H100z"/><path fill="#8b846c" d="M200 0h100v100H200z"/><path fill="#8c8670" d="M300 0h100v100H300z"/><path fill="#8a836f" d="M400 0h100v100H400z"/><path fill="#85806b" d="M500 0h100v100H500z"/><path fill="#838065" d="M600 0h100v100H600z"/><path fill="#494536" d="M700 0h100v100H700z"/><path fill="#423d31" d="M0 100h100v100H0z"/><path fill="#a59c7a" d="M100 100h100v100H100z"/><path fill="#aca393" d="M200 100h100v100H200z"/><path fill="#b2a89a" d="M300 100h100v100H300z"/><path fill="#b0a999" d="M400 100h100v100H400z"/><path fill="#a3a08e" d="M500 100h100v100H500z"/><path fill="#a69e82" d="M600 100h100v100H600z"/><path fill="#575141" d="M700 100h100v100H700z"/><path fill="#49483b" d="M0 200h100v100H0z"/><path fill="#ac977a" d="M100 200h100v100H100z"/><path fill="#ad866c" d="M200 200h100v100H200z"/><path fill="#aa9a88" d="M300 200h100v100H300z"/><path fill="#a69885" d="M400 200h100v100H400z"/><path fill="#998b6f" d="M500 200h100v100H500z"/><path fill="#96947c" d="M600 200h100v100H600z"/><path fill="#4d4f40" d="M700 200h100v100H700z"/><path fill="#4c4635" d="M0 300h100v100H0z"/><path fill="#b8987f" d="M100 300h100v100H100z"/><path fill="#ab8062" d="M200 300h100v100H200z"/><path fill="#a48b6b" d="M300 300h100v100H300z"/><path fill="#9c8060" d="M400 300h100v100H400z"/><path fill="#b18e6b" d="M500 300h100v100H500z"/><path fill="#ab805f" d="M600 300h100v100H600z"/><path fill="#574d3c" d="M700 300h100v100H700z"/></svg>