<svg xmlns="http://www.w3.org/2000/svg" viewBox="0 0 800 500"><defs/><path fill="#fbfbf9" d="M0 0h100v100H0z"/><path fill="#f5e7cd" d="M100 0h100v100H100z"/><path fill="#f4f3ee" d="M200 0h100v100H200z"/><path fill="#f1f7fc" d="M300 0h100v100H300z"/><path fill="#e8f0f6" d="M400 0h100v100H400z"/><path fill="#eff4f7" d="M500 0h100v100H500z"/><path fill="#fbfafa" d="M600 0h100v100H600z"/><path fill="#fafaf9" d="M700 0h100v100H700z"/><path fill="#e1e5e4" d="M0 100h100v100H0z"/><path fill="#b39c59" d="M100 100h100v100H100z"/><path fill="#fff2db" d="M200 100h100v100H200z"/><path fill="#c4deec" d="M300 100h100v100H300z"/><path fill="#258cd0" d="M400 100h100v100H400z"/><path fill="#99c7ea" d="M500 100h100v100H500z"/><path fill="#f4f8f9" d="M600 100h100v100H600z"/><path fill="#d6e4ec" d="M700 100h100v100H700z"/><path fill="#4792c6" d="M0 200h100v100H0z"/><path fill="#7aadbd" d="M100 200h100v100H100z"/><path fill="#949fa0" d="M200 200h100v100H200z"/><path fill="#75908d" d="M300 200h100v100H300z"/><path fill="#b5c6c5" d="M400 200h100v100H400z"/><path fill="#c0c0b4" d="M500 200h100v100H500z"/><path fill="#5ab2ef" d="M600 200h100v100H600z"/><path fill="#87c9f5" d="M700 200h100v100H700z"/><path fill="#4d99c5" d="M0 300h100v100H0z"/><path fill="#98a68a" d="M100 300h100v100H100z"/><path fill="#a98f4f" d="M200 300h100v100H200z"/><path fill="#72928e" d="M300 300h100v100H300z"/><path fill="#3fa9f0" d="M400 300h100v100H400z"/><path fill="#95a790" d="M500 300h100v100H500z"/><path fill="#877f41" d="M600 300h100v100H600z"/><path fill="#b2b592" d="M700 300h100v100H700z"/><path fill="#c8d8de" d="M0 400h100v100H0z"/><path fill="#e1d7bb" d="M100 400h100v100H100z"/><path fill="#fdd896" d="M200 400h100v100H200z"/><path fill="#c8cfbf" d="M300 400h100v100H300z"/><path fill="#91c5e4" d="M400 400h100v100H400z"/><path fill="#b1d3e3" d="M500 400h100v100H500z"/><path fill="#f8d294" d="M600 400h100v100H600z"/><path fill="#edd09b" d="M700 400h100v100H700z"/></svg>