<svg xmlns="http://www.w3.org/2000/svg" viewBox="0 0 800 500"><defs/><path fill="#ded6d2" d="M0 0h100v100H0z"/><path fill="#b0837c" d="M100 0h100v100H100z"/><path fill="#bfb3aa" d="M200 0h100v100H200z"/><path fill="#be968d" d="M300 0h100v100H300z"/><path fill="#d5afaa" d="M400 0h100v100H400z"/><path fill="#f3eceb" d="M500 0h100v100H500z"/><path fill="#c0958c" d="M600 0h100v100H600z"/><path fill="#d6ccc3" d="M700 0h100v100H700z"/><path fill="#d1c0ba" d="M0 100h100v100H0z"/><path fill="#8f5349" d="M100 100h100v100H100z"/><path fill="#8e7a74" d="M200 100h100v100H200z"/><path fill="#8e5854" d="M300 100h100v100H300z"/><path fill="#b37368" d="M400 100h100v100H400z"/><path fill="#c1a59c" d="M500 100h100v100H500z"/><path fill="#995547" d="M600 100h100v100H600z"/><path fill="#b8a98f" d="M700 100h100v100H700z"/><path fill="#d2bcb7" d="M0 200h100v100H0z"/><path fill="#94544d" d="M100 200h100v100H100z"/><path fill="#97665a" d="M200 200h100v100H200z"/><path fill="#875047" d="M300 200h100v100H300z"/><path fill="#8897ae" d="M400 200h100v100H400z"/><path fill="#798095" d="M500 200h100v100H500z"/><path fill="#834951" d="M600 200h100v100H600z"/><path fill="#c2b198" d="M700 200h100v100H700z"/><path fill="#c6a09b" d="M0 300h100v100H0z"/><path fill="#8b564d" d="M100 300h100v100H100z"/><path fill="#a38864" d="M200 300h100v100H200z"/><path fill="#9d7043" d="M300 300h100v100H300z"/><path fill="#a78f78" d="M400 300h100v100H400z"/><path fill="#a78a6a" d="M500 300h100v100H500z"/><path fill="#875c3a" d="M600 300h100v100H600z"/><path fill="#b6a090" d="M700 300h100v100H700z"/><path fill="#e6d5d3" d="M0 400h100v100H0z"/><path fill="#cdbeb8" d="M100 400h100v100H100z"/><path fill="#cecbc4" d="M200 400h100v100H200z"/><path fill="#d9ccbb" d="M300 400h100v100H300z"/><path fill="#dfcdb6" d="M400 400h100v100H400z"/><path fill="#e0d2b2" d="M500 400h100v100H500z"/><path fill="#daceb3" d="M600 400h100v100H600z"/><path fill="#ddd4d1" d="M700 400h100v100H700z"/></svg>