<svg xmlns="http://www.w3.org/2000/svg" viewBox="0 0 800 600"><defs/><path fill="#e7e7e5" d="M0 0h100v100H0z"/><path fill="#ececea" d="M100 0h100v100H100z"/><path fill="#eff0ee" d="M200 0h100v100H200z"/><path fill="#f6f6f5" d="M300 0h100v100H300z"/><path fill="#f9f9f7" d="M400 0h100v100H400z"/><path fill="#f8f8f6" d="M500 0h100v100H500z"/><path fill="#f9f7f7" d="M600 0h100v100H600z"/><path fill="#f6f6f5" d="M700 0h100v100H700z"/><path fill="#eeeeed" d="M0 100h100v100H0z"/><path fill="#dedddb" d="M100 100h100v100H100z"/><path fill="#cdcccb" d="M200 100h100v100H200z"/><path fill="#c8c8c8" d="M300 100h100v100H300z"/><path fill="#c3c3c2" d="M400 100h100v100H400z"/><path fill="#dfe1de" d="M500 100h100v100H500z"/><path fill="#dce5de" d="M600 100h100v100H600z"/><path fill="#dde0dd" d="M700 100h100v100H700z"/><path fill="#f1f1f0" d="M0 200h100v100H0z"/><path fill="#b1acad" d="M100 200h100v100H100z"/><path fill="#bcbbbb" d="M200 200h100v100H200z"/><path fill="#d1d1d1" d="M300 200h100v100H300z"/><path fill="#cdcccd" d="M400 200h100v100H400z"/><path fill="#b1b7b1" d="M500 200h100v100H500z"/><path fill="#adc5b4" d="M600 200h100v100H600z"/><path fill="#d0d8ce" d="M700 200h100v100H700z"/><path fill="#e5e6e4" d="M0 300h100v100H0z"/><path fill="#9f9c9d" d="M100 300h100v100H100z"/><path fill="#c4c4c4" d="M200 300h100v100H200z"/><path fill="#e5e5e5" d="M300 300h100v100H300z"/><path fill="#dddede" d="M400 300h100v100H400z"/><path fill="#d7d7d7" d="M500 300h100v100H500z"/><path fill="#e2e4e4" d="M600 300h100v100H600z"/><path fill="#d9dcd9" d="M700 300h100v100H700z"/><path fill="#dadad9" d="M0 400h100v100H0z"/><path fill="#afafaf" d="M100 400h100v100H100z"/><path fill="#efefef" d="M200 400h100v100H200z"/><path fill="#fff" d="M300 400h100v100H300z"/><path fill="#fdfdfd" d="M400 400h100v100H400z"/><path fill="#fafaf9" d="M500 400h100v100H500z"/><path fill="#e9e8e9" d="M600 400h100v100H600z"/><path fill="#e4e3e4" d="M700 400h100v100H700z"/><path fill="#e7e8e5" d="M0 500h100v100H0z"/><path fill="#efefed" d="M100 500h100v100H100z"/><path fill="#f0f1ee" d="M200 500h100v100H200zm100 0h100v100H300zm100 0h100v100H400z"/><path fill="#eeeeec" d="M500 500h100v100H500z"/><path fill="#ebebe9" d="M600 500h100v100H600z"/><path fill="#efefec" d="M700 500h100v100H700z"/></svg>