<svg xmlns="http://www.w3.org/2000/svg" viewBox="0 0 800 500"><defs/><path fill="#e0a47a" d="M0 0h100v100H0z"/><path fill="#a26a4e" d="M100 0h100v100H100z"/><path fill="#b27e65" d="M200 0h100v100H200z"/><path fill="#e5a071" d="M300 0h100v100H300z"/><path fill="#cd957a" d="M400 0h100v100H400z"/><path fill="#cf8f6d" d="M500 0h100v100H500z"/><path fill="#e4a375" d="M600 0h100v100H600z"/><path fill="#e6a678" d="M700 0h100v100H700z"/><path fill="#c77e50" d="M0 100h100v100H0z"/><path fill="#8b461f" d="M100 100h100v100H100z"/><path fill="#ad663a" d="M200 100h100v100H200z"/><path fill="#b26b49" d="M300 100h100v100H300z"/><path fill="#ab796b" d="M400 100h100v100H400z"/><path fill="#c47549" d="M500 100h100v100H500z"/><path fill="#bc6531" d="M600 100h100v100H600z"/><path fill="#c87647" d="M700 100h100v100H700z"/><path fill="#c68555" d="M0 200h100v100H0z"/><path fill="#9a4f23" d="M100 200h100v100H100z"/><path fill="#c4703e" d="M200 200h100v100H200z"/><path fill="#9c634a" d="M300 200h100v100H300z"/><path fill="#a2684b" d="M400 200h100v100H400z"/><path fill="#d37b4e" d="M500 200h100v100H500z"/><path fill="#b7704f" d="M600 200h100v100H600z"/><path fill="#c9733e" d="M700 200h100v100H700z"/><path fill="#b06f47" d="M0 300h100v100H0z"/><path fill="#843e1d" d="M100 300h100v100H100z"/><path fill="#975335" d="M200 300h100v100H200z"/><path fill="#80492f" d="M300 300h100v100H300z"/><path fill="#8a4e31" d="M400 300h100v100H400z"/><path fill="#be683c" d="M500 300h100v100H500z"/><path fill="#af6447" d="M600 300h100v100H600z"/><path fill="#9c593e" d="M700 300h100v100H700z"/><path fill="#cb996d" d="M0 400h100v100H0z"/><path fill="#9a5f40" d="M100 400h100v100H100z"/><path fill="#9c5f48" d="M200 400h100v100H200z"/><path fill="#945841" d="M300 400h100v100H300z"/><path fill="#a06248" d="M400 400h100v100H400z"/><path fill="#a76a4e" d="M500 400h100v100H500z"/><path fill="#bf825a" d="M600 400h100v100H600z"/><path fill="#804738" d="M700 400h100v100H700z"/></svg>