<svg xmlns="http://www.w3.org/2000/svg" viewBox="0 0 800 600"><defs/><path fill="#e7e7ea" d="M0 0h100v100H0z"/><path fill="#e2e3e9" d="M100 0h100v100H100z"/><path fill="#e3e4e9" d="M200 0h100v100H200z"/><path fill="#e6e7e9" d="M300 0h100v100H300z"/><path fill="#e8e8ea" d="M400 0h100v100H400z"/><path fill="#e9e9ea" d="M500 0h100v100H500z"/><path fill="#ebebeb" d="M600 0h100v100H600z"/><path fill="#e8e9eb" d="M700 0h100v100H700z"/><path fill="#cacfe2" d="M0 100h100v100H0z"/><path fill="#909dd2" d="M100 100h100v100H100z"/><path fill="#b8bfdc" d="M200 100h100v100H200z"/><path fill="#c9cee2" d="M300 100h100v100H300z"/><path fill="#d5d8e5" d="M400 100h100v100H400z"/><path fill="#d1d4e4" d="M500 100h100v100H500z"/><path fill="#abb4d9" d="M600 100h100v100H600z"/><path fill="#b9c1de" d="M700 100h100v100H700z"/><path fill="#c6cbe1" d="M0 200h100v100H0z"/><path fill="#94a1d3" d="M100 200h100v100H100z"/><path fill="#bec5df" d="M200 200h100v100H200z"/><path fill="#b1b9db" d="M300 200h100v100H300z"/><path fill="#b6bedd" d="M400 200h100v100H400z"/><path fill="#bbc2de" d="M500 200h100v100H500z"/><path fill="#808fce" d="M600 200h100v100H600z"/><path fill="#aab4da" d="M700 200h100v100H700z"/><path fill="#afb7db" d="M0 300h100v100H0z"/><path fill="#8a98d1" d="M100 300h100v100H100z"/><path fill="#9ca8d6" d="M200 300h100v100H200z"/><path fill="#97a3d4" d="M300 300h100v100H300z"/><path fill="#afb8db" d="M400 300h100v100H400z"/><path fill="#adb5da" d="M500 300h100v100H500z"/><path fill="#a3add7" d="M600 300h100v100H600z"/><path fill="#b6bddd" d="M700 300h100v100H700z"/><path fill="#a9b3d9" d="M0 400h100v100H0z"/><path fill="#94a0d2" d="M100 400h100v100H100z"/><path fill="#bec4de" d="M200 400h100v100H200z"/><path fill="#94a0d3" d="M300 400h100v100H300z"/><path fill="#c7cce1" d="M400 400h100v100H400z"/><path fill="#e2e3e8" d="M500 400h100v100H500z"/><path fill="#a4aed7" d="M600 400h100v100H600z"/><path fill="#a7b1d9" d="M700 400h100v100H700z"/><path fill="#dcdee7" d="M0 500h100v100H0z"/><path fill="#dee0e7" d="M100 500h100v100H100z"/><path fill="#e3e4e9" d="M200 500h100v100H200z"/><path fill="#d4d8e5" d="M300 500h100v100H300z"/><path fill="#e1e2e8" d="M400 500h100v100H400z"/><path fill="#ebeaeb" d="M500 500h100v100H500z"/><path fill="#d9dbe6" d="M600 500h100v100H600z"/><path fill="#d8dbe6" d="M700 500h100v100H700z"/></svg>