<svg xmlns="http://www.w3.org/2000/svg" viewBox="0 0 800 600"><defs/><path fill="#99a593" d="M0 0h100v100H0z"/><path fill="#6de97a" d="M100 0h100v100H100z"/><path fill="#dac29f" d="M200 0h100v100H200z"/><path fill="#e3d690" d="M300 0h100v100H300z"/><path fill="#d0b78d" d="M400 0h100v100H400z"/><path fill="#e3dea9" d="M500 0h100v100H500z"/><path fill="#e4cec4" d="M600 0h100v100H600z"/><path fill="#f9f79d" d="M700 0h100v100H700z"/><path fill="#bad68e" d="M0 100h100v100H0z"/><path fill="#84d68e" d="M100 100h100v100H100z"/><path fill="#bb9d8c" d="M200 100h100v100H200z"/><path fill="#c09977" d="M300 100h100v100H300z"/><path fill="#b48465" d="M400 100h100v100H400z"/><path fill="#d5b499" d="M500 100h100v100H500z"/><path fill="#ffd6cb" d="M600 100h100v100H600z"/><path fill="#cff998" d="M700 100h100v100H700z"/><path fill="#a8e595" d="M0 200h100v100H0z"/><path fill="#73d0a2" d="M100 200h100v100H100z"/><path fill="#88adc0" d="M200 200h100v100H200z"/><path fill="#8ac58b" d="M300 200h100v100H300z"/><path fill="#8bc9b1" d="M400 200h100v100H400z"/><path fill="#a2dad0" d="M500 200h100v100H500z"/><path fill="#abe8d9" d="M600 200h100v100H600z"/><path fill="#bdb08c" d="M700 200h100v100H700z"/><path fill="#62e281" d="M0 300h100v100H0z"/><path fill="#0bd4b2" d="M100 300h100v100H100z"/><path fill="#00d6db" d="M200 300h100v100H200z"/><path fill="#01d3d7" d="M300 300h100v100H300z"/><path fill="#01d4d8" d="M400 300h100v100H400z"/><path fill="#00d2d5" d="M500 300h100v100H500z"/><path fill="#09d5d5" d="M600 300h100v100H600z"/><path fill="#878aa7" d="M700 300h100v100H700z"/><path fill="#905ebb" d="M0 400h100v100H0z"/><path fill="#16baca" d="M100 400h100v100H100z"/><path fill="#00ccd7" d="M200 400h100v100H200z"/><path fill="#03d4d3" d="M300 400h100v100H300z"/><path fill="#02d2d3" d="M400 400h100v100H400z"/><path fill="#01d1d3" d="M500 400h100v100H500z"/><path fill="#0adbd9" d="M600 400h100v100H600z"/><path fill="#3fa2b5" d="M700 400h100v100H700z"/><path fill="#d0a469" d="M0 500h100v100H0z"/><path fill="#8fcc81" d="M100 500h100v100H100z"/><path fill="#00ccdf" d="M200 500h100v100H200z"/><path fill="#03d4d2" d="M300 500h100v100H300z"/><path fill="#01d3d4" d="M400 500h100v100H400zm100 0h100v100H500z"/><path fill="#02d3d3" d="M600 500h100v100H600z"/><path fill="#09d8d6" d="M700 500h100v100H700z"/></svg>