<svg xmlns="http://www.w3.org/2000/svg" viewBox="0 0 800 600"><defs/><path fill="#ac8595" d="M0 0h100v100H0z"/><path fill="#a88192" d="M100 0h100v100H100z"/><path fill="#ab8494" d="M200 0h100v100H200z"/><path fill="#ab8495" d="M300 0h100v100H300z"/><path fill="#aa8293" d="M400 0h100v100H400z"/><path fill="#a98293" d="M500 0h100v100H500z"/><path fill="#a98394" d="M600 0h100v100H600z"/><path fill="#ab8394" d="M700 0h100v100H700z"/><path fill="#9e7587" d="M0 100h100v100H0z"/><path fill="#8e6679" d="M100 100h100v100H100z"/><path fill="#956d80" d="M200 100h100v100H200z"/><path fill="#946e81" d="M300 100h100v100H300z"/><path fill="#926d80" d="M400 100h100v100H400z"/><path fill="#906a7d" d="M500 100h100v100H500z"/><path fill="#91697b" d="M600 100h100v100H600z"/><path fill="#936a7d" d="M700 100h100v100H700z"/><path fill="#9b7385" d="M0 200h100v100H0z"/><path fill="#936779" d="M100 200h100v100H100z"/><path fill="#9a7384" d="M200 200h100v100H200z"/><path fill="#907184" d="M300 200h100v100H300z"/><path fill="#8c697e" d="M400 200h100v100H400z"/><path fill="#98798b" d="M500 200h100v100H500z"/><path fill="#9f7585" d="M600 200h100v100H600z"/><path fill="#966676" d="M700 200h100v100H700z"/><path fill="#966e81" d="M0 300h100v100H0z"/><path fill="#8e687c" d="M100 300h100v100H100z"/><path fill="#926e85" d="M200 300h100v100H200z"/><path fill="#866c87" d="M300 300h100v100H300z"/><path fill="#9c7a90" d="M400 300h100v100H400z"/><path fill="#6c5c83" d="M500 300h100v100H500z"/><path fill="#8a6d85" d="M600 300h100v100H600z"/><path fill="#936a7b" d="M700 300h100v100H700z"/><path fill="#8d6a7f" d="M0 400h100v100H0z"/><path fill="#776180" d="M100 400h100v100H100z"/><path fill="#6d5e86" d="M200 400h100v100H200z"/><path fill="#746387" d="M300 400h100v100H300z"/><path fill="#92768f" d="M400 400h100v100H400z"/><path fill="#5c5483" d="M500 400h100v100H500z"/><path fill="#675b85" d="M600 400h100v100H600z"/><path fill="#89657b" d="M700 400h100v100H700z"/><path fill="#a38094" d="M0 500h100v100H0z"/><path fill="#977991" d="M100 500h100v100H100z"/><path fill="#947791" d="M200 500h100v100H200z"/><path fill="#987a91" d="M300 500h100v100H300z"/><path fill="#a17e93" d="M400 500h100v100H400z"/><path fill="#9e7d93" d="M500 500h100v100H500z"/><path fill="#987891" d="M600 500h100v100H600z"/><path fill="#a57c8d" d="M700 500h100v100H700z"/></svg>