<svg xmlns="http://www.w3.org/2000/svg" viewBox="0 0 800 500"><defs/><path fill="#b09781" d="M0 0h100v100H0z"/><path fill="#977b69" d="M100 0h100v100H100z"/><path fill="#b1947b" d="M200 0h100v100H200z"/><path fill="#a98271" d="M300 0h100v100H300z"/><path fill="#a68171" d="M400 0h100v100H400z"/><path fill="#a0978b" d="M500 0h100v100H500z"/><path fill="#9d9183" d="M600 0h100v100H600z"/><path fill="#ba967c" d="M700 0h100v100H700z"/><path fill="#988670" d="M0 100h100v100H0z"/><path fill="#7f5a4b" d="M100 100h100v100H100z"/><path fill="#bda07c" d="M200 100h100v100H200z"/><path fill="#9f8872" d="M300 100h100v100H300z"/><path fill="#9e8c80" d="M400 100h100v100H400z"/><path fill="#a3aaa5" d="M500 100h100v100H500z"/><path fill="#918e85" d="M600 100h100v100H600z"/><path fill="#ac8c73" d="M700 100h100v100H700z"/><path fill="#9a8771" d="M0 200h100v100H0z"/><path fill="#876d5a" d="M100 200h100v100H100z"/><path fill="#8e7767" d="M200 200h100v100H200z"/><path fill="#8e826d" d="M300 200h100v100H300z"/><path fill="#a49b83" d="M400 200h100v100H400z"/><path fill="#948d7f" d="M500 200h100v100H500z"/><path fill="#837c72" d="M600 200h100v100H600z"/><path fill="#907e71" d="M700 200h100v100H700z"/><path fill="#9b8269" d="M0 300h100v100H0z"/><path fill="#866d58" d="M100 300h100v100H100z"/><path fill="#9f8565" d="M200 300h100v100H200z"/><path fill="#99765b" d="M300 300h100v100H300z"/><path fill="#a47d61" d="M400 300h100v100H400z"/><path fill="#a28d6e" d="M500 300h100v100H500z"/><path fill="#987965" d="M600 300h100v100H600z"/><path fill="#7b615a" d="M700 300h100v100H700z"/><path fill="#a88f72" d="M0 400h100v100H0z"/><path fill="#bb9e79" d="M100 400h100v100H100z"/><path fill="#debc88" d="M200 400h100v100H200z"/><path fill="#c5a178" d="M300 400h100v100H300z"/><path fill="#b69170" d="M400 400h100v100H400z"/><path fill="#cbab85" d="M500 400h100v100H500z"/><path fill="#c8a67e" d="M600 400h100v100H600z"/><path fill="#91796e" d="M700 400h100v100H700z"/></svg>