<svg xmlns="http://www.w3.org/2000/svg" viewBox="0 0 800 500"><defs/><path fill="#dfcfb9" d="M0 0h100v100H0z"/><path fill="#c8ae99" d="M100 0h100v100H100z"/><path fill="#c5a999" d="M200 0h100v100H200z"/><path fill="#c7b3a5" d="M300 0h100v100H300z"/><path fill="#cfc8bb" d="M400 0h100v100H400z"/><path fill="#c9bcad" d="M500 0h100v100H500z"/><path fill="#c0ad9f" d="M600 0h100v100H600z"/><path fill="#cfc2af" d="M700 0h100v100H700z"/><path fill="#d5bca4" d="M0 100h100v100H0z"/><path fill="#c0a28b" d="M100 100h100v100H100z"/><path fill="#a87e72" d="M200 100h100v100H200z"/><path fill="#b49a8d" d="M300 100h100v100H300z"/><path fill="#c0b9ab" d="M400 100h100v100H400z"/><path fill="#b3a394" d="M500 100h100v100H500z"/><path fill="#b19f92" d="M600 100h100v100H600z"/><path fill="#cdc0ad" d="M700 100h100v100H700z"/><path fill="#b89c83" d="M0 200h100v100H0z"/><path fill="#c3ab95" d="M100 200h100v100H100z"/><path fill="#b8a599" d="M200 200h100v100H200z"/><path fill="#9f968a" d="M300 200h100v100H300z"/><path fill="#a2998b" d="M400 200h100v100H400z"/><path fill="#ac9d8c" d="M500 200h100v100H500z"/><path fill="#a69989" d="M600 200h100v100H600z"/><path fill="#b1a696" d="M700 200h100v100H700z"/><path fill="#ad896b" d="M0 300h100v100H0z"/><path fill="#ae947e" d="M100 300h100v100H100z"/><path fill="#c3b6a6" d="M200 300h100v100H200z"/><path fill="#a88975" d="M300 300h100v100H300z"/><path fill="#977560" d="M400 300h100v100H400z"/><path fill="#a29482" d="M500 300h100v100H500z"/><path fill="#998c7c" d="M600 300h100v100H600z"/><path fill="#938e76" d="M700 300h100v100H700z"/><path fill="#c1ad92" d="M0 400h100v100H0z"/><path fill="#b7a28e" d="M100 400h100v100H100z"/><path fill="#b8aa95" d="M200 400h100v100H200z"/><path fill="#b19488" d="M300 400h100v100H300z"/><path fill="#a99084" d="M400 400h100v100H400z"/><path fill="#9f8e7f" d="M500 400h100v100H500z"/><path fill="#988878" d="M600 400h100v100H600z"/><path fill="#999379" d="M700 400h100v100H700z"/></svg>