<svg xmlns="http://www.w3.org/2000/svg" viewBox="0 0 800 400"><defs/><path fill="#6e6c6a" d="M0 0h100v100H0z"/><path fill="#50563d" d="M100 0h100v100H100z"/><path fill="#448d90" d="M200 0h100v100H200z"/><path fill="#376c55" d="M300 0h100v100H300z"/><path fill="#87633b" d="M400 0h100v100H400z"/><path fill="#8c5d40" d="M500 0h100v100H500z"/><path fill="#776c5d" d="M600 0h100v100H600z"/><path fill="#647a70" d="M700 0h100v100H700z"/><path fill="#785b47" d="M0 100h100v100H0z"/><path fill="#655c34" d="M100 100h100v100H100z"/><path fill="#717e4a" d="M200 100h100v100H200z"/><path fill="#ad6d4c" d="M300 100h100v100H300z"/><path fill="#8d595d" d="M400 100h100v100H400z"/><path fill="#7c674e" d="M500 100h100v100H500z"/><path fill="#716d63" d="M600 100h100v100H600z"/><path fill="#757b6b" d="M700 100h100v100H700z"/><path fill="#746043" d="M0 200h100v100H0z"/><path fill="#996545" d="M100 200h100v100H100z"/><path fill="#9c8670" d="M200 200h100v100H200z"/><path fill="#d2957c" d="M300 200h100v100H300z"/><path fill="#dea787" d="M400 200h100v100H400z"/><path fill="#cea967" d="M500 200h100v100H500z"/><path fill="#708d6f" d="M600 200h100v100H600z"/><path fill="#726951" d="M700 200h100v100H700z"/><path fill="#846c50" d="M0 300h100v100H0z"/><path fill="#a57e64" d="M100 300h100v100H100z"/><path fill="#af7d83" d="M200 300h100v100H200z"/><path fill="#b18972" d="M300 300h100v100H300z"/><path fill="#a8d76f" d="M400 300h100v100H400z"/><path fill="#b7bd81" d="M500 300h100v100H500z"/><path fill="#91989e" d="M600 300h100v100H600z"/><path fill="#808974" d="M700 300h100v100H700z"/></svg>