<svg xmlns="http://www.w3.org/2000/svg" viewBox="0 0 800 400"><defs/><path fill="#927b84" d="M0 0h100v100H0z"/><path fill="#716f6f" d="M100 0h100v100H100z"/><path fill="#9a8aa7" d="M200 0h100v100H200z"/><path fill="#9fa1c2" d="M300 0h100v100H300z"/><path fill="#a0a6c7" d="M400 0h100v100H400z"/><path fill="#948aab" d="M500 0h100v100H500z"/><path fill="#9284a4" d="M600 0h100v100H600z"/><path fill="#99a0c5" d="M700 0h100v100H700z"/><path fill="#85676d" d="M0 100h100v100H0z"/><path fill="#606269" d="M100 100h100v100H100z"/><path fill="#8886aa" d="M200 100h100v100H200z"/><path fill="#a0bbda" d="M300 100h100v100H300z"/><path fill="#a1cae7" d="M400 100h100v100H400z"/><path fill="#9597be" d="M500 100h100v100H500z"/><path fill="#9b8f9d" d="M600 100h100v100H600z"/><path fill="#91869d" d="M700 100h100v100H700z"/><path fill="#6d6f80" d="M0 200h100v100H0z"/><path fill="#6e675e" d="M100 200h100v100H100z"/><path fill="#a59baf" d="M200 200h100v100H200z"/><path fill="#b9b3c8" d="M300 200h100v100H300z"/><path fill="#c8b0c2" d="M400 200h100v100H400z"/><path fill="#a48b8e" d="M500 200h100v100H500z"/><path fill="#b77a62" d="M600 200h100v100H600z"/><path fill="#7c5966" d="M700 200h100v100H700z"/><path fill="#81797a" d="M0 300h100v100H0z"/><path fill="#95705a" d="M100 300h100v100H100z"/><path fill="#9d6a56" d="M200 300h100v100H200z"/><path fill="#b2888e" d="M300 300h100v100H300z"/><path fill="#c6989a" d="M400 300h100v100H400z"/><path fill="#a88685" d="M500 300h100v100H500z"/><path fill="#cba282" d="M600 300h100v100H600z"/><path fill="#968e8c" d="M700 300h100v100H700z"/></svg>