<svg xmlns="http://www.w3.org/2000/svg" viewBox="0 0 800 500"><defs/><path fill="#58204a" d="M0 0h100v100H0z"/><path fill="#870d86" d="M100 0h100v100H100z"/><path fill="#4e243a" d="M200 0h100v100H200z"/><path fill="#3e2b26" d="M300 0h100v100H300z"/><path fill="#392526" d="M400 0h100v100H400z"/><path fill="#281d29" d="M500 0h100v100H500z"/><path fill="#302128" d="M600 0h100v100H600z"/><path fill="#482823" d="M700 0h100v100H700z"/><path fill="#521a48" d="M0 100h100v100H0z"/><path fill="#501644" d="M100 100h100v100H100z"/><path fill="#522c35" d="M200 100h100v100H200z"/><path fill="#553b25" d="M300 100h100v100H300z"/><path fill="#4c351e" d="M400 100h100v100H400z"/><path fill="#2c2432" d="M500 100h100v100H500z"/><path fill="#342733" d="M600 100h100v100H600z"/><path fill="#572019" d="M700 100h100v100H700z"/><path fill="#331a22" d="M0 200h100v100H0z"/><path fill="#4a202d" d="M100 200h100v100H100z"/><path fill="#714d21" d="M200 200h100v100H200z"/><path fill="#90702c" d="M300 200h100v100H300z"/><path fill="#927436" d="M400 200h100v100H400z"/><path fill="#664919" d="M500 200h100v100H500z"/><path fill="#443027" d="M600 200h100v100H600z"/><path fill="#4e2622" d="M700 200h100v100H700z"/><path fill="#2f1b1c" d="M0 300h100v100H0z"/><path fill="#55352c" d="M100 300h100v100H100z"/><path fill="#8a651b" d="M200 300h100v100H200z"/><path fill="#a68a28" d="M300 300h100v100H300z"/><path fill="#b69b3b" d="M400 300h100v100H400z"/><path fill="#886d1d" d="M500 300h100v100H500z"/><path fill="#614823" d="M600 300h100v100H600z"/><path fill="#432e2a" d="M700 300h100v100H700z"/><path fill="#382522" d="M0 400h100v100H0z"/><path fill="#494030" d="M100 400h100v100H100z"/><path fill="#6c5731" d="M200 400h100v100H200z"/><path fill="#816216" d="M300 400h100v100H300z"/><path fill="#866920" d="M400 400h100v100H400z"/><path fill="#614828" d="M500 400h100v100H500z"/><path fill="#685b41" d="M600 400h100v100H600z"/><path fill="#2d1e1b" d="M700 400h100v100H700z"/></svg>