<svg xmlns="http://www.w3.org/2000/svg" viewBox="0 0 800 600"><defs/><path fill="#775e59" d="M0 0h100v100H0z"/><path fill="#846761" d="M100 0h100v100H100z"/><path fill="#896d67" d="M200 0h100v100H200z"/><path fill="#89706a" d="M300 0h100v100H300z"/><path fill="#826c65" d="M400 0h100v100H400z"/><path fill="#806c66" d="M500 0h100v100H500z"/><path fill="#8c7a74" d="M600 0h100v100H600z"/><path fill="#786462" d="M700 0h100v100H700z"/><path fill="#6c534e" d="M0 100h100v100H0z"/><path fill="#715950" d="M100 100h100v100H100z"/><path fill="#836f68" d="M200 100h100v100H200z"/><path fill="#82736b" d="M300 100h100v100H300z"/><path fill="#72635e" d="M400 100h100v100H400z"/><path fill="#6d615e" d="M500 100h100v100H500z"/><path fill="#645a5b" d="M600 100h100v100H600z"/><path fill="#785a58" d="M700 100h100v100H700z"/><path fill="#6e544e" d="M0 200h100v100H0z"/><path fill="#8e5b4d" d="M100 200h100v100H100z"/><path fill="#7a655c" d="M200 200h100v100H200z"/><path fill="#69625c" d="M300 200h100v100H300z"/><path fill="#635354" d="M400 200h100v100H400z"/><path fill="#565050" d="M500 200h100v100H500z"/><path fill="#53494a" d="M600 200h100v100H600z"/><path fill="#7f5955" d="M700 200h100v100H700z"/><path fill="#836355" d="M0 300h100v100H0z"/><path fill="#c7936e" d="M100 300h100v100H100z"/><path fill="#a28a72" d="M200 300h100v100H200z"/><path fill="#a18e7a" d="M300 300h100v100H300z"/><path fill="#8e766b" d="M400 300h100v100H400z"/><path fill="#94826f" d="M500 300h100v100H500z"/><path fill="#8a7265" d="M600 300h100v100H600z"/><path fill="#865b57" d="M700 300h100v100H700z"/><path fill="#9b7e68" d="M0 400h100v100H0z"/><path fill="#e0c394" d="M100 400h100v100H100z"/><path fill="#b8997a" d="M200 400h100v100H200z"/><path fill="#b7977c" d="M300 400h100v100H300z"/><path fill="#c5a88a" d="M400 400h100v100H400z"/><path fill="#af9a80" d="M500 400h100v100H500z"/><path fill="#9b7862" d="M600 400h100v100H600z"/><path fill="#9b6a5d" d="M700 400h100v100H700z"/><path fill="#927b69" d="M0 500h100v100H0z"/><path fill="#b8a282" d="M100 500h100v100H100z"/><path fill="#a98d75" d="M200 500h100v100H200z"/><path fill="#aa907a" d="M300 500h100v100H300z"/><path fill="#a6917b" d="M400 500h100v100H400z"/><path fill="#8f8274" d="M500 500h100v100H500z"/><path fill="#a68a6c" d="M600 500h100v100H600z"/><path fill="#977561" d="M700 500h100v100H700z"/></svg>