<svg xmlns="http://www.w3.org/2000/svg" viewBox="0 0 800 500"><defs/><path fill="#5d6266" d="M0 0h100v100H0z"/><path fill="#697078" d="M100 0h100v100H100z"/><path fill="#676c72" d="M200 0h100v100H200z"/><path fill="#505356" d="M300 0h100v100H300z"/><path fill="#686c70" d="M400 0h100v100H400z"/><path fill="#6c7072" d="M500 0h100v100H500z"/><path fill="#666a6c" d="M600 0h100v100H600z"/><path fill="#585858" d="M700 0h100v100H700z"/><path fill="#708090" d="M0 100h100v100H0z"/><path fill="#8da3bb" d="M100 100h100v100H100z"/><path fill="#828ea0" d="M200 100h100v100H200z"/><path fill="#616b75" d="M300 100h100v100H300z"/><path fill="#a0afbc" d="M400 100h100v100H400z"/><path fill="#b0bac2" d="M500 100h100v100H500z"/><path fill="#a0aab3" d="M600 100h100v100H600z"/><path fill="#5c5c5e" d="M700 100h100v100H700z"/><path fill="#717d8c" d="M0 200h100v100H0z"/><path fill="#8c9bae" d="M100 200h100v100H100z"/><path fill="#7e8790" d="M200 200h100v100H200z"/><path fill="#808890" d="M300 200h100v100H300z"/><path fill="#8c98a3" d="M400 200h100v100H400z"/><path fill="#9fabb4" d="M500 200h100v100H500z"/><path fill="#8d949c" d="M600 200h100v100H600z"/><path fill="#585a5c" d="M700 200h100v100H700z"/><path fill="#68707d" d="M0 300h100v100H0z"/><path fill="#7d8999" d="M100 300h100v100H100z"/><path fill="#8f98a2" d="M200 300h100v100H200z"/><path fill="#949ea9" d="M300 300h100v100H300z"/><path fill="#919ba5" d="M400 300h100v100H400z"/><path fill="#979ea8" d="M500 300h100v100H500z"/><path fill="#91919a" d="M600 300h100v100H600z"/><path fill="#5a5a5c" d="M700 300h100v100H700z"/><path fill="#777b84" d="M0 400h100v100H0z"/><path fill="#9da4ae" d="M100 400h100v100H100z"/><path fill="#879096" d="M200 400h100v100H200z"/><path fill="#677077" d="M300 400h100v100H300z"/><path fill="#727d85" d="M400 400h100v100H400z"/><path fill="#757e82" d="M500 400h100v100H500z"/><path fill="#72777b" d="M600 400h100v100H600z"/><path fill="#545857" d="M700 400h100v100H700z"/></svg>