<svg xmlns="http://www.w3.org/2000/svg" viewBox="0 0 800 500"><defs/><path fill="#fefdfc" d="M0 0h100v100H0z"/><path fill="#fdfcfb" d="M100 0h100v100H100z"/><path fill="#fdfdfb" d="M200 0h100v100H200zm100 0h100v100H300z"/><path fill="#fefeff" d="M400 0h100v100H400z"/><path fill="#fff" d="M500 0h100v100H500z"/><path fill="#fbfcf9" d="M600 0h100v100H600z"/><path fill="#f1f5e2" d="M700 0h100v100H700z"/><path fill="#fcfaf7" d="M0 100h100v100H0z"/><path fill="#f3f0e3" d="M100 100h100v100H100z"/><path fill="#ecebda" d="M200 100h100v100H200z"/><path fill="#fcfcfa" d="M300 100h100v100H300z"/><path fill="#fdfcfd" d="M400 100h100v100H400z"/><path fill="#f6f8ed" d="M500 100h100v100H500z"/><path fill="#e6eccc" d="M600 100h100v100H600z"/><path fill="#e8ecd0" d="M700 100h100v100H700z"/><path fill="#fbf8f4" d="M0 200h100v100H0z"/><path fill="#f4efe1" d="M100 200h100v100H100z"/><path fill="#f6f4ed" d="M200 200h100v100H200z"/><path fill="#ebeceb" d="M300 200h100v100H300z"/><path fill="#e7e4d9" d="M400 200h100v100H400z"/><path fill="#fbf6e6" d="M500 200h100v100H500z"/><path fill="#dde0b5" d="M600 200h100v100H600z"/><path fill="#e8eec4" d="M700 200h100v100H700z"/><path fill="#faf7ee" d="M0 300h100v100H0z"/><path fill="#ede6d6" d="M100 300h100v100H100z"/><path fill="#f6f3eb" d="M200 300h100v100H200z"/><path fill="#ecebe7" d="M300 300h100v100H300z"/><path fill="#e8e3db" d="M400 300h100v100H400z"/><path fill="#edeae2" d="M500 300h100v100H500z"/><path fill="#cbd397" d="M600 300h100v100H600z"/><path fill="#d2d393" d="M700 300h100v100H700z"/><path fill="#fcfaf6" d="M0 400h100v100H0z"/><path fill="#f8f7f3" d="M100 400h100v100H100z"/><path fill="#f9f8f6" d="M200 400h100v100H200z"/><path fill="#fdfcf9" d="M300 400h100v100H300z"/><path fill="#fdfaf7" d="M400 400h100v100H400z"/><path fill="#f2f5ea" d="M500 400h100v100H500z"/><path fill="#eae6d0" d="M600 400h100v100H600z"/><path fill="#e6dec5" d="M700 400h100v100H700z"/></svg>