<svg xmlns="http://www.w3.org/2000/svg" viewBox="0 0 800 500"><defs/><path fill="#dcdee0" d="M0 0h100v100H0z"/><path fill="#dcdedc" d="M100 0h100v100H100z"/><path fill="#dcddd8" d="M200 0h100v100H200z"/><path fill="#dcddd6" d="M300 0h100v100H300z"/><path fill="#dfe0db" d="M400 0h100v100H400z"/><path fill="#e3e2de" d="M500 0h100v100H500z"/><path fill="#dddbd9" d="M600 0h100v100H600z"/><path fill="#dde0df" d="M700 0h100v100H700z"/><path fill="#c9ced0" d="M0 100h100v100H0z"/><path fill="#d1d3d5" d="M100 100h100v100H100z"/><path fill="#dbdcd7" d="M200 100h100v100H200z"/><path fill="#cdccc2" d="M300 100h100v100H300z"/><path fill="#d7d7d1" d="M400 100h100v100H400z"/><path fill="#eaeae9" d="M500 100h100v100H500z"/><path fill="#dfdad8" d="M600 100h100v100H600z"/><path fill="#dce0de" d="M700 100h100v100H700z"/><path fill="#ced4d6" d="M0 200h100v100H0z"/><path fill="#dcddda" d="M100 200h100v100H100z"/><path fill="#b3b7b6" d="M200 200h100v100H200z"/><path fill="#586463" d="M300 200h100v100H300z"/><path fill="#707a78" d="M400 200h100v100H400z"/><path fill="#f1f3f2" d="M500 200h100v100H500z"/><path fill="#fff" d="M600 200h100v100H600z"/><path fill="#e5e9e8" d="M700 200h100v100H700z"/><path fill="#c2c3c1" d="M0 300h100v100H0z"/><path fill="#aba396" d="M100 300h100v100H100z"/><path fill="#484f4b" d="M200 300h100v100H200z"/><path fill="#727473" d="M300 300h100v100H300z"/><path fill="#454c4a" d="M400 300h100v100H400z"/><path fill="#8b8d81" d="M500 300h100v100H500z"/><path fill="#e2ddd2" d="M600 300h100v100H600z"/><path fill="#c1c3c3" d="M700 300h100v100H700z"/><path fill="#d8d3cc" d="M0 400h100v100H0z"/><path fill="#beb3ab" d="M100 400h100v100H100z"/><path fill="#b0a6a7" d="M200 400h100v100H200z"/><path fill="#a19e9d" d="M300 400h100v100H300z"/><path fill="#959492" d="M400 400h100v100H400z"/><path fill="#b3a9a3" d="M500 400h100v100H500z"/><path fill="#bbafa8" d="M600 400h100v100H600z"/><path fill="#c2b8ba" d="M700 400h100v100H700z"/></svg>