<svg xmlns="http://www.w3.org/2000/svg" viewBox="0 0 800 600"><defs/><path fill="#e7d5d2" d="M0 0h100v100H0z"/><path fill="#cdc2c0" d="M100 0h100v100H100z"/><path fill="#f1edeb" d="M200 0h100v100H200z"/><path fill="#ece8e6" d="M300 0h100v100H300z"/><path fill="#f3eeeb" d="M400 0h100v100H400z"/><path fill="#e6e2df" d="M500 0h100v100H500z"/><path fill="#dad6d3" d="M600 0h100v100H600z"/><path fill="#e3e0df" d="M700 0h100v100H700z"/><path fill="#905d52" d="M0 100h100v100H0z"/><path fill="#675650" d="M100 100h100v100H100z"/><path fill="#c6b9ae" d="M200 100h100v100H200z"/><path fill="#c2c1ba" d="M300 100h100v100H300z"/><path fill="#cecac4" d="M400 100h100v100H400z"/><path fill="#7f7167" d="M500 100h100v100H500z"/><path fill="#5b4d45" d="M600 100h100v100H600z"/><path fill="#9e827b" d="M700 100h100v100H700z"/><path fill="#7e5849" d="M0 200h100v100H0z"/><path fill="#806c65" d="M100 200h100v100H100z"/><path fill="#aaaea7" d="M200 200h100v100H200z"/><path fill="#8da3a2" d="M300 200h100v100H300z"/><path fill="#a4c5c0" d="M400 200h100v100H400z"/><path fill="#6b6b65" d="M500 200h100v100H500z"/><path fill="#61524d" d="M600 200h100v100H600z"/><path fill="#9e7f7b" d="M700 200h100v100H700z"/><path fill="#81554b" d="M0 300h100v100H0z"/><path fill="#6b4c41" d="M100 300h100v100H100z"/><path fill="#60857e" d="M200 300h100v100H200z"/><path fill="#4f4f42" d="M300 300h100v100H300z"/><path fill="#597573" d="M400 300h100v100H400z"/><path fill="#396a69" d="M500 300h100v100H500z"/><path fill="#6d5444" d="M600 300h100v100H600z"/><path fill="#928580" d="M700 300h100v100H700z"/><path fill="#765349" d="M0 400h100v100H0z"/><path fill="#653d24" d="M100 400h100v100H100z"/><path fill="#292e24" d="M200 400h100v100H200z"/><path fill="#583a29" d="M300 400h100v100H300z"/><path fill="#653f28" d="M400 400h100v100H400z"/><path fill="#636f65" d="M500 400h100v100H500z"/><path fill="#8c7b6b" d="M600 400h100v100H600z"/><path fill="#8e7c6d" d="M700 400h100v100H700z"/><path fill="#dcd4ce" d="M0 500h100v100H0z"/><path fill="#dad0c7" d="M100 500h100v100H100z"/><path fill="#c4bcb8" d="M200 500h100v100H200z"/><path fill="#cbc3be" d="M300 500h100v100H300z"/><path fill="#e9ded6" d="M400 500h100v100H400z"/><path fill="#eae6e1" d="M500 500h100v100H500z"/><path fill="#d0cac6" d="M600 500h100v100H600z"/><path fill="#d9d1ca" d="M700 500h100v100H700z"/></svg>