<svg xmlns="http://www.w3.org/2000/svg" viewBox="0 0 800 500"><defs/><path fill="#f0f7f6" d="M0 0h100v100H0z"/><path fill="#f9f6ed" d="M100 0h100v100H100z"/><path fill="#fdf8e6" d="M200 0h100v100H200z"/><path fill="#f4f7f5" d="M300 0h100v100H300z"/><path fill="#fffdfc" d="M400 0h100v100H400z"/><path fill="#fefefd" d="M500 0h100v100H500z"/><path fill="#fcfbfb" d="M600 0h100v100H600z"/><path fill="#fff" d="M700 0h100v100H700z"/><path fill="#bdd1d0" d="M0 100h100v100H0z"/><path fill="#eacf8e" d="M100 100h100v100H100z"/><path fill="#f5d878" d="M200 100h100v100H200z"/><path fill="#f3f6f5" d="M300 100h100v100H300z"/><path fill="#e7e6de" d="M400 100h100v100H400z"/><path fill="#e1e6e1" d="M500 100h100v100H500z"/><path fill="#ece9e1" d="M600 100h100v100H600z"/><path fill="#f9faf8" d="M700 100h100v100H700z"/><path fill="#d1dccc" d="M0 200h100v100H0z"/><path fill="#e3cca4" d="M100 200h100v100H100z"/><path fill="#f1e6c1" d="M200 200h100v100H200z"/><path fill="#f0ecea" d="M300 200h100v100H300z"/><path fill="#d5dbcd" d="M400 200h100v100H400z"/><path fill="#b0c9bd" d="M500 200h100v100H500z"/><path fill="#ebe2d2" d="M600 200h100v100H600z"/><path fill="#edf1f1" d="M700 200h100v100H700z"/><path fill="#e2dfc0" d="M0 300h100v100H0z"/><path fill="#f0d7bd" d="M100 300h100v100H100z"/><path fill="#f5f4f6" d="M200 300h100v100H200z"/><path fill="#eee4d9" d="M300 300h100v100H300z"/><path fill="#ede2d7" d="M400 300h100v100H400z"/><path fill="#eae1cb" d="M500 300h100v100H500z"/><path fill="#bfbcc0" d="M600 300h100v100H600z"/><path fill="#dddfe6" d="M700 300h100v100H700z"/><path fill="#f3f0e7" d="M0 400h100v100H0z"/><path fill="#faf4ef" d="M100 400h100v100H100z"/><path fill="#fdfcfb" d="M200 400h100v100H200z"/><path fill="#fef9f1" d="M300 400h100v100H300z"/><path fill="#fcf8f2" d="M400 400h100v100H400z"/><path fill="#f8f5f5" d="M500 400h100v100H500z"/><path fill="#fcfbfb" d="M600 400h100v100H600z"/><path fill="#fcfcfc" d="M700 400h100v100H700z"/></svg>