<svg xmlns="http://www.w3.org/2000/svg" viewBox="0 0 800 500"><defs/><path fill="#dedae2" d="M0 0h100v100H0z"/><path fill="#887bb8" d="M100 0h100v100H100z"/><path fill="#a99ecd" d="M200 0h100v100H200z"/><path fill="#c6daec" d="M300 0h100v100H300z"/><path fill="#c9dfe8" d="M400 0h100v100H400z"/><path fill="#aec1e9" d="M500 0h100v100H500z"/><path fill="#abb4e0" d="M600 0h100v100H600z"/><path fill="#b7b6d9" d="M700 0h100v100H700z"/><path fill="#e8e6cc" d="M0 100h100v100H0z"/><path fill="#98768e" d="M100 100h100v100H100z"/><path fill="#9f9bde" d="M200 100h100v100H200z"/><path fill="#ceeff9" d="M300 100h100v100H300z"/><path fill="#a5d6e9" d="M400 100h100v100H400z"/><path fill="#7ba5e8" d="M500 100h100v100H500z"/><path fill="#99a1d9" d="M600 100h100v100H600z"/><path fill="#b7c1de" d="M700 100h100v100H700z"/><path fill="#ffbcac" d="M0 200h100v100H0z"/><path fill="#ac7171" d="M100 200h100v100H100z"/><path fill="#7f79a6" d="M200 200h100v100H200z"/><path fill="#babdd4" d="M300 200h100v100H300z"/><path fill="#bab3b5" d="M400 200h100v100H400z"/><path fill="#727db0" d="M500 200h100v100H500z"/><path fill="#6c7bc6" d="M600 200h100v100H600z"/><path fill="#abc2e0" d="M700 200h100v100H700z"/><path fill="#f28c99" d="M0 300h100v100H0z"/><path fill="#b37197" d="M100 300h100v100H100z"/><path fill="#ab9eb2" d="M200 300h100v100H200z"/><path fill="#82a2b5" d="M300 300h100v100H300z"/><path fill="#95bdca" d="M400 300h100v100H400z"/><path fill="#8a84c6" d="M500 300h100v100H500z"/><path fill="#8f4179" d="M600 300h100v100H600z"/><path fill="#bfaab7" d="M700 300h100v100H700z"/><path fill="#fdfcfb" d="M0 400h100v100H0z"/><path fill="#fbf9f8" d="M100 400h100v100H100z"/><path fill="#fbfffc" d="M200 400h100v100H200z"/><path fill="#dceeea" d="M300 400h100v100H300z"/><path fill="#e3f6f4" d="M400 400h100v100H400z"/><path fill="#fdf6f3" d="M500 400h100v100H500z"/><path fill="#ff948c" d="M600 400h100v100H600z"/><path fill="#ffdcda" d="M700 400h100v100H700z"/></svg>