<svg xmlns="http://www.w3.org/2000/svg" viewBox="0 0 800 600"><defs/><path fill="#fbfdf1" d="M0 0h100v100H0z"/><path fill="#efedde" d="M100 0h100v100H100z"/><path fill="#f2f1de" d="M200 0h100v100H200z"/><path fill="#f9fae4" d="M300 0h100v100H300z"/><path fill="#f4f3e6" d="M400 0h100v100H400z"/><path fill="#f9f8dd" d="M500 0h100v100H500z"/><path fill="#f7f4db" d="M600 0h100v100H600z"/><path fill="#f5f7ec" d="M700 0h100v100H700z"/><path fill="#c4cdb4" d="M0 100h100v100H0z"/><path fill="#aca26f" d="M100 100h100v100H100z"/><path fill="#b2ad71" d="M200 100h100v100H200z"/><path fill="#9d8f56" d="M300 100h100v100H300z"/><path fill="#9a8d65" d="M400 100h100v100H400z"/><path fill="#dbe1aa" d="M500 100h100v100H500z"/><path fill="#bfcc9e" d="M600 100h100v100H600z"/><path fill="#cacfa9" d="M700 100h100v100H700z"/><path fill="#acad95" d="M0 200h100v100H0z"/><path fill="#968f66" d="M100 200h100v100H100z"/><path fill="#86897b" d="M200 200h100v100H200z"/><path fill="#7b6051" d="M300 200h100v100H300z"/><path fill="#696a47" d="M400 200h100v100H400z"/><path fill="#95a97d" d="M500 200h100v100H500z"/><path fill="#989b92" d="M600 200h100v100H600z"/><path fill="#b9c7aa" d="M700 200h100v100H700z"/><path fill="#d7d4a7" d="M0 300h100v100H0z"/><path fill="#847357" d="M100 300h100v100H100z"/><path fill="#6e6861" d="M200 300h100v100H200z"/><path fill="#8e8f6c" d="M300 300h100v100H300z"/><path fill="#7b7b53" d="M400 300h100v100H400z"/><path fill="#726155" d="M500 300h100v100H500z"/><path fill="#6d6050" d="M600 300h100v100H600z"/><path fill="#a49e89" d="M700 300h100v100H700z"/><path fill="#c8c2a2" d="M0 400h100v100H0z"/><path fill="#b1a469" d="M100 400h100v100H100z"/><path fill="#8f9779" d="M200 400h100v100H200z"/><path fill="#8fb79f" d="M300 400h100v100H300z"/><path fill="#8d9e7f" d="M400 400h100v100H400z"/><path fill="#584349" d="M500 400h100v100H500z"/><path fill="#403f3b" d="M600 400h100v100H600z"/><path fill="#9a9684" d="M700 400h100v100H700z"/><path fill="#f0f1e9" d="M0 500h100v100H0z"/><path fill="#f8f7e5" d="M100 500h100v100H100z"/><path fill="#f0f3e8" d="M200 500h100v100H200z"/><path fill="#edf2ea" d="M300 500h100v100H300z"/><path fill="#ebebe7" d="M400 500h100v100H400z"/><path fill="#edede6" d="M500 500h100v100H500z"/><path fill="#eaeae2" d="M600 500h100v100H600z"/><path fill="#e9e9e7" d="M700 500h100v100H700z"/></svg>