<svg xmlns="http://www.w3.org/2000/svg" viewBox="0 0 800 600"><defs/><path fill="#f8f8f8" d="M0 0h100v100H0z"/><path fill="#ecedec" d="M100 0h100v100H100z"/><path fill="#f2f1ed" d="M200 0h100v100H200z"/><path fill="#f6f4ee" d="M300 0h100v100H300z"/><path fill="#f5f3ed" d="M400 0h100v100H400z"/><path fill="#f8f8f6" d="M500 0h100v100H500z"/><path fill="#f6f5f1" d="M600 0h100v100H600z"/><path fill="#f4f4f3" d="M700 0h100v100H700z"/><path fill="#eceef0" d="M0 100h100v100H0z"/><path fill="#c1c6be" d="M100 100h100v100H100z"/><path fill="#c5c09d" d="M200 100h100v100H200z"/><path fill="#ccc09d" d="M300 100h100v100H300z"/><path fill="#c2b890" d="M400 100h100v100H400z"/><path fill="#cac5ac" d="M500 100h100v100H500z"/><path fill="#d9d8cd" d="M600 100h100v100H600z"/><path fill="#c9c3bb" d="M700 100h100v100H700z"/><path fill="#ecedf1" d="M0 200h100v100H0z"/><path fill="#c9ccc5" d="M100 200h100v100H100z"/><path fill="#dad9cb" d="M200 200h100v100H200z"/><path fill="#cac0a5" d="M300 200h100v100H300z"/><path fill="#bdae8b" d="M400 200h100v100H400z"/><path fill="#e2e2dc" d="M500 200h100v100H500z"/><path fill="#e2dfd3" d="M600 200h100v100H600z"/><path fill="#c9bcb3" d="M700 200h100v100H700z"/><path fill="#ccd0cf" d="M0 300h100v100H0z"/><path fill="#c5c8bc" d="M100 300h100v100H100z"/><path fill="#d5d3cc" d="M200 300h100v100H200z"/><path fill="#afaba1" d="M300 300h100v100H300z"/><path fill="#b3b091" d="M400 300h100v100H400z"/><path fill="#deded7" d="M500 300h100v100H500z"/><path fill="#b1a899" d="M600 300h100v100H600z"/><path fill="#afaf9a" d="M700 300h100v100H700z"/><path fill="#cad3d4" d="M0 400h100v100H0z"/><path fill="#b3b9b2" d="M100 400h100v100H100z"/><path fill="#b8bab4" d="M200 400h100v100H200z"/><path fill="#93a297" d="M300 400h100v100H300z"/><path fill="#a3b1a8" d="M400 400h100v100H400z"/><path fill="#bbb9a2" d="M500 400h100v100H500z"/><path fill="#a2a28f" d="M600 400h100v100H600z"/><path fill="#a3ad91" d="M700 400h100v100H700z"/><path fill="#e5e8ea" d="M0 500h100v100H0z"/><path fill="#d0d6d7" d="M100 500h100v100H100z"/><path fill="#dde4e6" d="M200 500h100v100H200z"/><path fill="#d6dfdd" d="M300 500h100v100H300z"/><path fill="#e0e5e7" d="M400 500h100v100H400z"/><path fill="#dce1d9" d="M500 500h100v100H500z"/><path fill="#d9dddc" d="M600 500h100v100H600z"/><path fill="#d2d6d5" d="M700 500h100v100H700z"/></svg>