<svg xmlns="http://www.w3.org/2000/svg" viewBox="0 0 800 700"><defs/><path fill="#c9dce4" d="M0 0h100v100H0z"/><path fill="#5cb1b6" d="M100 0h100v100H100z"/><path fill="#878684" d="M200 0h100v100H200z"/><path fill="#747576" d="M300 0h100v100H300z"/><path fill="#8a8a85" d="M400 0h100v100H400z"/><path fill="#4c4e4d" d="M500 0h100v100H500z"/><path fill="#746d65" d="M600 0h100v100H600z"/><path fill="#c29c7a" d="M700 0h100v100H700z"/><path fill="#c0d0d9" d="M0 100h100v100H0z"/><path fill="#a4cfd5" d="M100 100h100v100H100z"/><path fill="#c1c3c9" d="M200 100h100v100H200z"/><path fill="#bfc4ce" d="M300 100h100v100H300z"/><path fill="#cccfdb" d="M400 100h100v100H400z"/><path fill="#383a40" d="M500 100h100v100H500z"/><path fill="#483e2d" d="M600 100h100v100H600z"/><path fill="#bfb85b" d="M700 100h100v100H700z"/><path fill="#bad1dd" d="M0 200h100v100H0z"/><path fill="#629b93" d="M100 200h100v100H100z"/><path fill="#a1755e" d="M200 200h100v100H200z"/><path fill="#726e6c" d="M300 200h100v100H300z"/><path fill="#b0964a" d="M400 200h100v100H400z"/><path fill="#2d2937" d="M500 200h100v100H500z"/><path fill="#212a5e" d="M600 200h100v100H600z"/><path fill="#17680c" d="M700 200h100v100H700z"/><path fill="#b7d1d4" d="M0 300h100v100H0z"/><path fill="#22627f" d="M100 300h100v100H100z"/><path fill="#71585a" d="M200 300h100v100H200z"/><path fill="#281f0c" d="M300 300h100v100H300z"/><path fill="#8e8805" d="M400 300h100v100H400z"/><path fill="#536c19" d="M500 300h100v100H500z"/><path fill="#27513c" d="M600 300h100v100H600z"/><path fill="#c29909" d="M700 300h100v100H700z"/><path fill="#bdcbca" d="M0 400h100v100H0z"/><path fill="#174fb2" d="M100 400h100v100H100z"/><path fill="#0a1656" d="M200 400h100v100H200z"/><path fill="#0a0d00" d="M300 400h100v100H300z"/><path fill="#1b691f" d="M400 400h100v100H400z"/><path fill="#104f0d" d="M500 400h100v100H500z"/><path fill="#326026" d="M600 400h100v100H600z"/><path fill="#788d17" d="M700 400h100v100H700z"/><path fill="#d7c9dc" d="M0 500h100v100H0z"/><path fill="#b26b51" d="M100 500h100v100H100z"/><path fill="#aa6a59" d="M200 500h100v100H200z"/><path fill="#a14f62" d="M300 500h100v100H300z"/><path fill="#b4362e" d="M400 500h100v100H400z"/><path fill="#8f4432" d="M500 500h100v100H500z"/><path fill="#60563a" d="M600 500h100v100H600z"/><path fill="#447a19" d="M700 500h100v100H700z"/><path fill="#e1d7e3" d="M0 600h100v100H0z"/><path fill="#d37e7e" d="M100 600h100v100H100z"/><path fill="#e9909a" d="M200 600h100v100H200z"/><path fill="#f495a8" d="M300 600h100v100H300z"/><path fill="#df7b85" d="M400 600h100v100H400z"/><path fill="#df6c7f" d="M500 600h100v100H500z"/><path fill="#976367" d="M600 600h100v100H600z"/><path fill="#9f5f3f" d="M700 600h100v100H700z"/></svg>