<svg xmlns="http://www.w3.org/2000/svg" viewBox="0 0 800 600"><defs/><path fill="#f6fbf9" d="M0 0h100v100H0z"/><path fill="#f3f9f5" d="M100 0h100v100H100z"/><path fill="#eff3f1" d="M200 0h100v100H200z"/><path fill="#eff2f1" d="M300 0h100v100H300z"/><path fill="#f0f4f3" d="M400 0h100v100H400z"/><path fill="#f0f4f2" d="M500 0h100v100H500z"/><path fill="#eff3f1" d="M600 0h100v100H600z"/><path fill="#edf1f2" d="M700 0h100v100H700z"/><path fill="#eef2f0" d="M0 100h100v100H0z"/><path fill="#ddeadd" d="M100 100h100v100H100z"/><path fill="#edf0f1" d="M200 100h100v100H200z"/><path fill="#e6e6ea" d="M300 100h100v100H300z"/><path fill="#dcdbdb" d="M400 100h100v100H400z"/><path fill="#eeeff1" d="M500 100h100v100H500z"/><path fill="#eef0f2" d="M600 100h100v100H600z"/><path fill="#dcdfdf" d="M700 100h100v100H700z"/><path fill="#e9efec" d="M0 200h100v100H0z"/><path fill="#e3f0e6" d="M100 200h100v100H100z"/><path fill="#e8e6e6" d="M200 200h100v100H200z"/><path fill="#c8c3c6" d="M300 200h100v100H300z"/><path fill="#c8c4c8" d="M400 200h100v100H400z"/><path fill="#e0dfe4" d="M500 200h100v100H500z"/><path fill="#eef0f4" d="M600 200h100v100H600z"/><path fill="#dbdcd4" d="M700 200h100v100H700z"/><path fill="#dde7e3" d="M0 300h100v100H0z"/><path fill="#dfeee5" d="M100 300h100v100H100z"/><path fill="#d2d1d0" d="M200 300h100v100H200z"/><path fill="#bebaba" d="M300 300h100v100H300z"/><path fill="#c2bebe" d="M400 300h100v100H400z"/><path fill="#d3d4d5" d="M500 300h100v100H500z"/><path fill="#cfd1d5" d="M600 300h100v100H600z"/><path fill="#dbdddb" d="M700 300h100v100H700z"/><path fill="#d7e6db" d="M0 400h100v100H0z"/><path fill="#ddece2" d="M100 400h100v100H100z"/><path fill="#cfcfd6" d="M200 400h100v100H200z"/><path fill="#b4aca7" d="M300 400h100v100H300z"/><path fill="#c5bab0" d="M400 400h100v100H400z"/><path fill="#bebbbb" d="M500 400h100v100H500z"/><path fill="#c9cace" d="M600 400h100v100H600z"/><path fill="#eaf0f4" d="M700 400h100v100H700z"/><path fill="#e3eeec" d="M0 500h100v100H0z"/><path fill="#e9f1f3" d="M100 500h100v100H100z"/><path fill="#d7dbdf" d="M200 500h100v100H200z"/><path fill="#cacccc" d="M300 500h100v100H300z"/><path fill="#d3d4d3" d="M400 500h100v100H400z"/><path fill="#ced0d2" d="M500 500h100v100H500z"/><path fill="#e5e9ed" d="M600 500h100v100H600z"/><path fill="#e2e8ea" d="M700 500h100v100H700z"/></svg>