<svg xmlns="http://www.w3.org/2000/svg" viewBox="0 0 800 400"><defs/><path fill="#80686b" d="M0 0h100v100H0z"/><path fill="#70494a" d="M100 0h100v100H100z"/><path fill="#624549" d="M200 0h100v100H200z"/><path fill="#624852" d="M300 0h100v100H300z"/><path fill="#72555e" d="M400 0h100v100H400z"/><path fill="#6c545a" d="M500 0h100v100H500z"/><path fill="#6f5a60" d="M600 0h100v100H600z"/><path fill="#5c4c53" d="M700 0h100v100H700z"/><path fill="#7a5a5d" d="M0 100h100v100H0z"/><path fill="#452327" d="M100 100h100v100H100z"/><path fill="#311c2a" d="M200 100h100v100H200z"/><path fill="#412432" d="M300 100h100v100H300z"/><path fill="#5a3842" d="M400 100h100v100H400z"/><path fill="#94656d" d="M500 100h100v100H500z"/><path fill="#996c73" d="M600 100h100v100H600z"/><path fill="#5a3944" d="M700 100h100v100H700z"/><path fill="#5a4957" d="M0 200h100v100H0z"/><path fill="#522d2d" d="M100 200h100v100H100z"/><path fill="#533430" d="M200 200h100v100H200z"/><path fill="#3e2a39" d="M300 200h100v100H300z"/><path fill="#4f3643" d="M400 200h100v100H400z"/><path fill="#654655" d="M500 200h100v100H500z"/><path fill="#5f4454" d="M600 200h100v100H600z"/><path fill="#593c48" d="M700 200h100v100H700z"/><path fill="#6b535f" d="M0 300h100v100H0z"/><path fill="#502e34" d="M100 300h100v100H100z"/><path fill="#7b4847" d="M200 300h100v100H200z"/><path fill="#7c4f60" d="M300 300h100v100H300z"/><path fill="#874b58" d="M400 300h100v100H400z"/><path fill="#8e4d59" d="M500 300h100v100H500z"/><path fill="#804c50" d="M600 300h100v100H600z"/><path fill="#603c3f" d="M700 300h100v100H700z"/></svg>