<svg xmlns="http://www.w3.org/2000/svg" viewBox="0 0 800 400"><defs/><path fill="#e2e4ee" d="M0 0h100v100H0z"/><path fill="#7d91df" d="M100 0h100v100H100z"/><path fill="#859ce5" d="M200 0h100v100H200z"/><path fill="#82acdd" d="M300 0h100v100H300z"/><path fill="#7cc1cb" d="M400 0h100v100H400z"/><path fill="#8cb4cd" d="M500 0h100v100H500z"/><path fill="#7b97de" d="M600 0h100v100H600z"/><path fill="#7bd0d6" d="M700 0h100v100H700z"/><path fill="#cbd2f0" d="M0 100h100v100H0z"/><path fill="#5c77e8" d="M100 100h100v100H100z"/><path fill="#7493ea" d="M200 100h100v100H200z"/><path fill="#868eb0" d="M300 100h100v100H300z"/><path fill="#91c9bd" d="M400 100h100v100H400z"/><path fill="#8ab2dd" d="M500 100h100v100H500z"/><path fill="#7a96ec" d="M600 100h100v100H600z"/><path fill="#74d2cf" d="M700 100h100v100H700z"/><path fill="#9daae2" d="M0 200h100v100H0z"/><path fill="#8699e5" d="M100 200h100v100H100z"/><path fill="#a3b6de" d="M200 200h100v100H200z"/><path fill="#99b1b3" d="M300 200h100v100H300z"/><path fill="#bcccc5" d="M400 200h100v100H400z"/><path fill="#adbde2" d="M500 200h100v100H500z"/><path fill="#dad69a" d="M600 200h100v100H600z"/><path fill="#aae09b" d="M700 200h100v100H700z"/><path fill="#a3afe6" d="M0 300h100v100H0z"/><path fill="#d3d9e8" d="M100 300h100v100H100z"/><path fill="#e6efe0" d="M200 300h100v100H200z"/><path fill="#c8d9cc" d="M300 300h100v100H300z"/><path fill="#e2e3e1" d="M400 300h100v100H400z"/><path fill="#e4eedd" d="M500 300h100v100H500z"/><path fill="#f1e699" d="M600 300h100v100H600z"/><path fill="#c6dfc3" d="M700 300h100v100H700z"/></svg>