<svg xmlns="http://www.w3.org/2000/svg" viewBox="0 0 800 600"><defs/><path fill="#eeecf0" d="M0 0h100v100H0z"/><path fill="#dfd8e1" d="M100 0h100v100H100z"/><path fill="#e1dfe6" d="M200 0h100v100H200z"/><path fill="#e4e1e7" d="M300 0h100v100H300z"/><path fill="#ece8ec" d="M400 0h100v100H400z"/><path fill="#eae7ec" d="M500 0h100v100H500zm100 0h100v100H600z"/><path fill="#ebe8ec" d="M700 0h100v100H700z"/><path fill="#b3adb9" d="M0 100h100v100H0z"/><path fill="#ba70a7" d="M100 100h100v100H100z"/><path fill="#8a7173" d="M200 100h100v100H200z"/><path fill="#7d8c7f" d="M300 100h100v100H300z"/><path fill="#83918e" d="M400 100h100v100H400z"/><path fill="#979497" d="M500 100h100v100H500z"/><path fill="#95979e" d="M600 100h100v100H600z"/><path fill="#8e8a93" d="M700 100h100v100H700z"/><path fill="#b7a5b6" d="M0 200h100v100H0z"/><path fill="#c078ae" d="M100 200h100v100H100z"/><path fill="#7e6655" d="M200 200h100v100H200z"/><path fill="#727f83" d="M300 200h100v100H300z"/><path fill="#acb5bc" d="M400 200h100v100H400z"/><path fill="#bcbcbc" d="M500 200h100v100H500z"/><path fill="#92969c" d="M600 200h100v100H600z"/><path fill="#8d8792" d="M700 200h100v100H700z"/><path fill="#c3a0bc" d="M0 300h100v100H0z"/><path fill="#b477a3" d="M100 300h100v100H100z"/><path fill="#746457" d="M200 300h100v100H200z"/><path fill="#786060" d="M300 300h100v100H300z"/><path fill="#9c878b" d="M400 300h100v100H400z"/><path fill="#9f8c8b" d="M500 300h100v100H500z"/><path fill="#7a6969" d="M600 300h100v100H600z"/><path fill="#8c8691" d="M700 300h100v100H700z"/><path fill="#bf88b0" d="M0 400h100v100H0z"/><path fill="#844c6a" d="M100 400h100v100H100z"/><path fill="#5e5657" d="M200 400h100v100H200z"/><path fill="#70737e" d="M300 400h100v100H300z"/><path fill="#5a646e" d="M400 400h100v100H400z"/><path fill="#6b6c6e" d="M500 400h100v100H500z"/><path fill="#756467" d="M600 400h100v100H600z"/><path fill="#715c61" d="M700 400h100v100H700z"/><path fill="#ccbcc4" d="M0 500h100v100H0z"/><path fill="#b9aaae" d="M100 500h100v100H100z"/><path fill="#baafb1" d="M200 500h100v100H200z"/><path fill="#cbc9ce" d="M300 500h100v100H300z"/><path fill="#bababf" d="M400 500h100v100H400z"/><path fill="#c2c0c4" d="M500 500h100v100H500z"/><path fill="#cdc6c8" d="M600 500h100v100H600z"/><path fill="#c1b5b6" d="M700 500h100v100H700z"/></svg>