<svg xmlns="http://www.w3.org/2000/svg" viewBox="0 0 800 500"><defs/><path fill="#f5f2ec" d="M0 0h100v100H0z"/><path fill="#e0d7d8" d="M100 0h100v100H100z"/><path fill="#e0dae2" d="M200 0h100v100H200z"/><path fill="#eae7ef" d="M300 0h100v100H300z"/><path fill="#dee1e1" d="M400 0h100v100H400z"/><path fill="#e4e0e1" d="M500 0h100v100H500z"/><path fill="#e0dbde" d="M600 0h100v100H600z"/><path fill="#e1dcdd" d="M700 0h100v100H700z"/><path fill="#dcd2c5" d="M0 100h100v100H0z"/><path fill="#a18486" d="M100 100h100v100H100z"/><path fill="#948a97" d="M200 100h100v100H200z"/><path fill="#7e8cac" d="M300 100h100v100H300z"/><path fill="#8f9fb0" d="M400 100h100v100H400z"/><path fill="#959398" d="M500 100h100v100H500z"/><path fill="#b2a29c" d="M600 100h100v100H600z"/><path fill="#bcaba4" d="M700 100h100v100H700z"/><path fill="#d8c9c1" d="M0 200h100v100H0z"/><path fill="#9b838c" d="M100 200h100v100H100z"/><path fill="#a0929d" d="M200 200h100v100H200z"/><path fill="#797495" d="M300 200h100v100H300z"/><path fill="#908c9d" d="M400 200h100v100H400z"/><path fill="#a6a29e" d="M500 200h100v100H500z"/><path fill="#baa898" d="M600 200h100v100H600z"/><path fill="#d7bd98" d="M700 200h100v100H700z"/><path fill="#c9b7b0" d="M0 300h100v100H0z"/><path fill="#a7858b" d="M100 300h100v100H100z"/><path fill="#a7859c" d="M200 300h100v100H200z"/><path fill="#8b6b8e" d="M300 300h100v100H300z"/><path fill="#b08b97" d="M400 300h100v100H400z"/><path fill="#b18997" d="M500 300h100v100H500z"/><path fill="#d2b29d" d="M600 300h100v100H600z"/><path fill="#cda463" d="M700 300h100v100H700z"/><path fill="#e4d6d0" d="M0 400h100v100H0z"/><path fill="#d1c5c9" d="M100 400h100v100H100z"/><path fill="#c8bdca" d="M200 400h100v100H200z"/><path fill="#c0bbcb" d="M300 400h100v100H300z"/><path fill="#bfb8c0" d="M400 400h100v100H400z"/><path fill="#c8bacc" d="M500 400h100v100H500z"/><path fill="#e7d8d4" d="M600 400h100v100H600z"/><path fill="#e9d7c0" d="M700 400h100v100H700z"/></svg>