<svg xmlns="http://www.w3.org/2000/svg" viewBox="0 0 800 400"><defs/><path fill="#f2f2f2" d="M0 0h100v100H0z"/><path fill="#e5e5e5" d="M100 0h100v100H100z"/><path fill="#eee" d="M200 0h100v100H200z"/><path fill="#ededed" d="M300 0h100v100H300z"/><path fill="#e0e0e0" d="M400 0h100v100H400z"/><path fill="#ececec" d="M500 0h100v100H500z"/><path fill="#f3f3f3" d="M600 0h100v100H600z"/><path fill="#e7e7e7" d="M700 0h100v100H700z"/><path fill="#f4f4f4" d="M0 100h100v100H0z"/><path fill="#e2e2e2" d="M100 100h100v100H100z"/><path fill="#d3d3d3" d="M200 100h100v100H200z"/><path fill="#c5c5c5" d="M300 100h100v100H300z"/><path fill="#d4d4d4" d="M400 100h100v100H400z"/><path fill="#e1e1e1" d="M500 100h100v100H500z"/><path fill="#e8e8e8" d="M600 100h100v100H600z"/><path fill="#e1e1e1" d="M700 100h100v100H700z"/><path fill="#efefef" d="M0 200h100v100H0z"/><path fill="#e2e2e2" d="M100 200h100v100H100z"/><path fill="#ddd" d="M200 200h100v100H200z"/><path fill="#e8e8e8" d="M300 200h100v100H300z"/><path fill="#ddd" d="M400 200h100v100H400z"/><path fill="#cdcdcd" d="M500 200h100v100H500z"/><path fill="#ccc" d="M600 200h100v100H600z"/><path fill="#e1e1e1" d="M700 200h100v100H700z"/><path fill="#eaeaea" d="M0 300h100v100H0z"/><path fill="#ebebeb" d="M100 300h100v100H100zm100 0h100v100H200z"/><path fill="#ececec" d="M300 300h100v100H300z"/><path fill="#e6e6e6" d="M400 300h100v100H400z"/><path fill="#eaeaea" d="M500 300h100v100H500z"/><path fill="#e0e0e0" d="M600 300h100v100H600z"/><path fill="#e5e5e5" d="M700 300h100v100H700z"/></svg>