<svg xmlns="http://www.w3.org/2000/svg" viewBox="0 0 800 400"><defs/><path fill="#677966" d="M0 0h100v100H0z"/><path fill="#0d100b" d="M100 0h100v100H100z"/><path fill="#3b2750" d="M200 0h100v100H200z"/><path fill="#28313d" d="M300 0h100v100H300z"/><path fill="#2d3237" d="M400 0h100v100H400z"/><path fill="#554b4a" d="M500 0h100v100H500z"/><path fill="#374145" d="M600 0h100v100H600z"/><path fill="#617757" d="M700 0h100v100H700z"/><path fill="#505f4c" d="M0 100h100v100H0z"/><path fill="#160e20" d="M100 100h100v100H100z"/><path fill="#775b69" d="M200 100h100v100H200z"/><path fill="#756141" d="M300 100h100v100H300z"/><path fill="#4d413b" d="M400 100h100v100H400z"/><path fill="#3d3044" d="M500 100h100v100H500z"/><path fill="#343e3e" d="M600 100h100v100H600z"/><path fill="#65775b" d="M700 100h100v100H700z"/><path fill="#253520" d="M0 200h100v100H0z"/><path fill="#271a23" d="M100 200h100v100H100z"/><path fill="#937445" d="M200 200h100v100H200z"/><path fill="#987438" d="M300 200h100v100H300z"/><path fill="#8a7b53" d="M400 200h100v100H400z"/><path fill="#596159" d="M500 200h100v100H500z"/><path fill="#4b5142" d="M600 200h100v100H600z"/><path fill="#516747" d="M700 200h100v100H700z"/><path fill="#2f352c" d="M0 300h100v100H0z"/><path fill="#514d43" d="M100 300h100v100H100z"/><path fill="#6a655b" d="M200 300h100v100H200z"/><path fill="#4f4f4f" d="M300 300h100v100H300z"/><path fill="#685b5e" d="M400 300h100v100H400z"/><path fill="#69564c" d="M500 300h100v100H500z"/><path fill="#775a3a" d="M600 300h100v100H600z"/><path fill="#45493e" d="M700 300h100v100H700z"/></svg>