<svg xmlns="http://www.w3.org/2000/svg" viewBox="0 0 800 500"><defs/><path fill="#e6e8cb" d="M0 0h100v100H0z"/><path fill="#f0edce" d="M100 0h100v100H100z"/><path fill="#c8caca" d="M200 0h100v100H200z"/><path fill="#bfc6c6" d="M300 0h100v100H300z"/><path fill="#c5caca" d="M400 0h100v100H400z"/><path fill="#cacdce" d="M500 0h100v100H500z"/><path fill="#cdd1d1" d="M600 0h100v100H600z"/><path fill="#c8c3c0" d="M700 0h100v100H700z"/><path fill="#bdbe7a" d="M0 100h100v100H0z"/><path fill="#c1b35d" d="M100 100h100v100H100z"/><path fill="#50605d" d="M200 100h100v100H200z"/><path fill="#667a6e" d="M300 100h100v100H300z"/><path fill="#445d61" d="M400 100h100v100H400z"/><path fill="#496a7d" d="M500 100h100v100H500z"/><path fill="#4f5e6e" d="M600 100h100v100H600z"/><path fill="#71685d" d="M700 100h100v100H700z"/><path fill="#cdd69e" d="M0 200h100v100H0z"/><path fill="#b2a563" d="M100 200h100v100H100z"/><path fill="#3d4a59" d="M200 200h100v100H200z"/><path fill="#a3947d" d="M300 200h100v100H300z"/><path fill="#a69978" d="M400 200h100v100H400z"/><path fill="#8dabad" d="M500 200h100v100H500z"/><path fill="#9ba16b" d="M600 200h100v100H600z"/><path fill="#7f8d7c" d="M700 200h100v100H700z"/><path fill="#e1db8e" d="M0 300h100v100H0z"/><path fill="#b8ad66" d="M100 300h100v100H100z"/><path fill="#566767" d="M200 300h100v100H200z"/><path fill="#8d8259" d="M300 300h100v100H300z"/><path fill="#be9d58" d="M400 300h100v100H400z"/><path fill="#ab9366" d="M500 300h100v100H500z"/><path fill="#be9261" d="M600 300h100v100H600z"/><path fill="#645447" d="M700 300h100v100H700z"/><path fill="#fbf8d1" d="M0 400h100v100H0z"/><path fill="#dcdcc2" d="M100 400h100v100H100z"/><path fill="#bccdc0" d="M200 400h100v100H200z"/><path fill="#abb8a8" d="M300 400h100v100H300z"/><path fill="#bcc7b9" d="M400 400h100v100H400z"/><path fill="#e5c8b0" d="M500 400h100v100H500z"/><path fill="#cdafb6" d="M600 400h100v100H600z"/><path fill="#b4afb4" d="M700 400h100v100H700z"/></svg>