<svg xmlns="http://www.w3.org/2000/svg" viewBox="0 0 800 500"><defs/><path fill="#d8b2b2" d="M0 0h100v100H0z"/><path fill="#d1c5c0" d="M100 0h100v100H100z"/><path fill="#8b9b9e" d="M200 0h100v100H200z"/><path fill="#7a8990" d="M300 0h100v100H300z"/><path fill="#9fafb8" d="M400 0h100v100H400z"/><path fill="#90a1aa" d="M500 0h100v100H500z"/><path fill="#93a6ae" d="M600 0h100v100H600z"/><path fill="#aeb8bc" d="M700 0h100v100H700z"/><path fill="#c78f8d" d="M0 100h100v100H0z"/><path fill="#aea59f" d="M100 100h100v100H100z"/><path fill="#456470" d="M200 100h100v100H200z"/><path fill="#345463" d="M300 100h100v100H300z"/><path fill="#7e949c" d="M400 100h100v100H400z"/><path fill="#8cabb6" d="M500 100h100v100H500z"/><path fill="#8ba1aa" d="M600 100h100v100H600z"/><path fill="#92989d" d="M700 100h100v100H700z"/><path fill="#d2a6a3" d="M0 200h100v100H0z"/><path fill="#a3a6a2" d="M100 200h100v100H100z"/><path fill="#768f9b" d="M200 200h100v100H200z"/><path fill="#96a8ad" d="M300 200h100v100H300z"/><path fill="#789092" d="M400 200h100v100H400z"/><path fill="#8fb4b7" d="M500 200h100v100H500z"/><path fill="#99a9a8" d="M600 200h100v100H600z"/><path fill="#a1a1a2" d="M700 200h100v100H700z"/><path fill="#cdb6b2" d="M0 300h100v100H0z"/><path fill="#a19f8f" d="M100 300h100v100H100z"/><path fill="#a4a081" d="M200 300h100v100H200z"/><path fill="#aeab91" d="M300 300h100v100H300z"/><path fill="#7c8271" d="M400 300h100v100H400z"/><path fill="#626464" d="M500 300h100v100H500z"/><path fill="#6c6555" d="M600 300h100v100H600z"/><path fill="#8b8677" d="M700 300h100v100H700z"/><path fill="#d9d3cb" d="M0 400h100v100H0z"/><path fill="#c1bfaa" d="M100 400h100v100H100z"/><path fill="#c1bda8" d="M200 400h100v100H200z"/><path fill="#bab8a7" d="M300 400h100v100H300z"/><path fill="#c4c1aa" d="M400 400h100v100H400z"/><path fill="#adaca2" d="M500 400h100v100H500z"/><path fill="#aca89a" d="M600 400h100v100H600z"/><path fill="#b9b3a3" d="M700 400h100v100H700z"/></svg>