<svg xmlns="http://www.w3.org/2000/svg" viewBox="0 0 800 600"><defs/><path fill="#ebdbd8" d="M0 0h100v100H0z"/><path fill="#d3c8c6" d="M100 0h100v100H100z"/><path fill="#f0edeb" d="M200 0h100v100H200z"/><path fill="#efebe9" d="M300 0h100v100H300z"/><path fill="#f3efec" d="M400 0h100v100H400z"/><path fill="#ece9e7" d="M500 0h100v100H500z"/><path fill="#e2dfdc" d="M600 0h100v100H600z"/><path fill="#e1e0de" d="M700 0h100v100H700z"/><path fill="#956359" d="M0 100h100v100H0z"/><path fill="#67514b" d="M100 100h100v100H100z"/><path fill="#beb2a7" d="M200 100h100v100H200z"/><path fill="#bdbab1" d="M300 100h100v100H300z"/><path fill="#cec9c2" d="M400 100h100v100H400z"/><path fill="#8c7f77" d="M500 100h100v100H500z"/><path fill="#5c4f48" d="M600 100h100v100H600z"/><path fill="#8a6f67" d="M700 100h100v100H700z"/><path fill="#835e4e" d="M0 200h100v100H0z"/><path fill="#78645e" d="M100 200h100v100H100z"/><path fill="#adafa7" d="M200 200h100v100H200z"/><path fill="#90a5a3" d="M300 200h100v100H300z"/><path fill="#a4c4bd" d="M400 200h100v100H400z"/><path fill="#72756f" d="M500 200h100v100H500z"/><path fill="#60534d" d="M600 200h100v100H600z"/><path fill="#8c6a64" d="M700 200h100v100H700z"/><path fill="#885a51" d="M0 300h100v100H0z"/><path fill="#6e4d43" d="M100 300h100v100H100z"/><path fill="#7b9a92" d="M200 300h100v100H200z"/><path fill="#505950" d="M300 300h100v100H300z"/><path fill="#6e8685" d="M400 300h100v100H400z"/><path fill="#3f7475" d="M500 300h100v100H500z"/><path fill="#645043" d="M600 300h100v100H600z"/><path fill="#816f69" d="M700 300h100v100H700z"/><path fill="#754e46" d="M0 400h100v100H0z"/><path fill="#5c3620" d="M100 400h100v100H100z"/><path fill="#2d3529" d="M200 400h100v100H200z"/><path fill="#4f382a" d="M300 400h100v100H300z"/><path fill="#5a3621" d="M400 400h100v100H400z"/><path fill="#4c645e" d="M500 400h100v100H500z"/><path fill="#948473" d="M600 400h100v100H600z"/><path fill="#7e6a5a" d="M700 400h100v100H700z"/><path fill="#c4b9b2" d="M0 500h100v100H0z"/><path fill="#c3b3a5" d="M100 500h100v100H100z"/><path fill="#a59b94" d="M200 500h100v100H200z"/><path fill="#ada19a" d="M300 500h100v100H300z"/><path fill="#d7c1b1" d="M400 500h100v100H400z"/><path fill="#d4cbc3" d="M500 500h100v100H500z"/><path fill="#beb8b3" d="M600 500h100v100H600z"/><path fill="#b7a9a0" d="M700 500h100v100H700z"/></svg>