<svg xmlns="http://www.w3.org/2000/svg" viewBox="0 0 800 600"><defs/><path fill="#f6f6f4" d="M0 0h100v100H0z"/><path fill="#f3f0ee" d="M100 0h100v100H100z"/><path fill="#f8f8f6" d="M200 0h100v100H200z"/><path fill="#f2f2f0" d="M300 0h100v100H300z"/><path fill="#f5f4f2" d="M400 0h100v100H400z"/><path fill="#eeedea" d="M500 0h100v100H500z"/><path fill="#f4f4f4" d="M600 0h100v100H600z"/><path fill="#f7f6f4" d="M700 0h100v100H700z"/><path fill="#e4e1d7" d="M0 100h100v100H0z"/><path fill="#cec5b4" d="M100 100h100v100H100z"/><path fill="#d4cbbe" d="M200 100h100v100H200z"/><path fill="#bdbab0" d="M300 100h100v100H300z"/><path fill="#cdc7b8" d="M400 100h100v100H400z"/><path fill="#bcb3a5" d="M500 100h100v100H500z"/><path fill="#d0ceca" d="M600 100h100v100H600z"/><path fill="#ceccc3" d="M700 100h100v100H700z"/><path fill="#dbd6c8" d="M0 200h100v100H0z"/><path fill="#c8beae" d="M100 200h100v100H100z"/><path fill="#b8b1a0" d="M200 200h100v100H200z"/><path fill="#a1a49a" d="M300 200h100v100H300z"/><path fill="#5e635a" d="M400 200h100v100H400z"/><path fill="#7f7d75" d="M500 200h100v100H500z"/><path fill="#ccc3bb" d="M600 200h100v100H600z"/><path fill="#b0afa3" d="M700 200h100v100H700z"/><path fill="#dbd5c6" d="M0 300h100v100H0z"/><path fill="#b1a392" d="M100 300h100v100H100z"/><path fill="#8b826a" d="M200 300h100v100H200z"/><path fill="#847969" d="M300 300h100v100H300z"/><path fill="#5a534a" d="M400 300h100v100H400z"/><path fill="#696052" d="M500 300h100v100H500z"/><path fill="#9b927b" d="M600 300h100v100H600z"/><path fill="#8b7a6e" d="M700 300h100v100H700z"/><path fill="#cac1b2" d="M0 400h100v100H0z"/><path fill="#8b7560" d="M100 400h100v100H100z"/><path fill="#846d55" d="M200 400h100v100H200z"/><path fill="#918062" d="M300 400h100v100H300z"/><path fill="#625645" d="M400 400h100v100H400z"/><path fill="#605f54" d="M500 400h100v100H500z"/><path fill="#7a7b58" d="M600 400h100v100H600z"/><path fill="#736c57" d="M700 400h100v100H700z"/><path fill="#dbd9d1" d="M0 500h100v100H0z"/><path fill="#c5bcb2" d="M100 500h100v100H100z"/><path fill="#c1b8ad" d="M200 500h100v100H200z"/><path fill="#b8b4a5" d="M300 500h100v100H300z"/><path fill="#b7b2ab" d="M400 500h100v100H400z"/><path fill="#b0afae" d="M500 500h100v100H500z"/><path fill="#c0bdb2" d="M600 500h100v100H600z"/><path fill="#c1bcb6" d="M700 500h100v100H700z"/></svg>