<svg xmlns="http://www.w3.org/2000/svg" viewBox="0 0 800 600"><defs/><path fill="#a68e74" d="M0 0h100v100H0z"/><path fill="#b59b80" d="M100 0h100v100H100z"/><path fill="#a3866d" d="M200 0h100v100H200z"/><path fill="#caab8a" d="M300 0h100v100H300z"/><path fill="#cfb191" d="M400 0h100v100H400z"/><path fill="#d1b392" d="M500 0h100v100H500z"/><path fill="#cfb090" d="M600 0h100v100H600z"/><path fill="#ceb18d" d="M700 0h100v100H700z"/><path fill="#a79077" d="M0 100h100v100H0z"/><path fill="#97806c" d="M100 100h100v100H100z"/><path fill="#9e7a5f" d="M200 100h100v100H200z"/><path fill="#cbad8e" d="M300 100h100v100H300z"/><path fill="#c4a88c" d="M400 100h100v100H400z"/><path fill="#c8ac8e" d="M500 100h100v100H500z"/><path fill="#ceb194" d="M600 100h100v100H600z"/><path fill="#c7a984" d="M700 100h100v100H700z"/><path fill="#b79d81" d="M0 200h100v100H0z"/><path fill="#88705f" d="M100 200h100v100H100z"/><path fill="#a98266" d="M200 200h100v100H200z"/><path fill="#c1a88f" d="M300 200h100v100H300z"/><path fill="#bea58c" d="M400 200h100v100H400z"/><path fill="#c0a78e" d="M500 200h100v100H500z"/><path fill="#c1a78d" d="M600 200h100v100H600z"/><path fill="#c0a383" d="M700 200h100v100H700z"/><path fill="#a48d75" d="M0 300h100v100H0z"/><path fill="#7c6555" d="M100 300h100v100H100z"/><path fill="#a3836a" d="M200 300h100v100H200z"/><path fill="#b39b84" d="M300 300h100v100H300z"/><path fill="#a5967d" d="M400 300h100v100H400z"/><path fill="#ac9a82" d="M500 300h100v100H500z"/><path fill="#b39b81" d="M600 300h100v100H600z"/><path fill="#b9a188" d="M700 300h100v100H700z"/><path fill="#96785e" d="M0 400h100v100H0z"/><path fill="#795e4c" d="M100 400h100v100H100z"/><path fill="#9c8470" d="M200 400h100v100H200z"/><path fill="#a38f7f" d="M300 400h100v100H300z"/><path fill="#988a79" d="M400 400h100v100H400z"/><path fill="#9e8e7e" d="M500 400h100v100H500z"/><path fill="#af9b8b" d="M600 400h100v100H600z"/><path fill="#b19f8d" d="M700 400h100v100H700z"/><path fill="#9e846d" d="M0 500h100v100H0z"/><path fill="#927e6d" d="M100 500h100v100H100z"/><path fill="#9c8979" d="M200 500h100v100H200z"/><path fill="#998678" d="M300 500h100v100H300z"/><path fill="#9c8b7d" d="M400 500h100v100H400z"/><path fill="#a09081" d="M500 500h100v100H500z"/><path fill="#a29385" d="M600 500h100v100H600z"/><path fill="#a59787" d="M700 500h100v100H700z"/></svg>