<svg xmlns="http://www.w3.org/2000/svg" viewBox="0 0 800 400"><defs/><path fill="#e5e4e5" d="M0 0h100v100H0z"/><path fill="#a29895" d="M100 0h100v100H100z"/><path fill="#c9d0d0" d="M200 0h100v100H200z"/><path fill="#c7cacb" d="M300 0h100v100H300z"/><path fill="#c6c6c4" d="M400 0h100v100H400z"/><path fill="#d1dad9" d="M500 0h100v100H500z"/><path fill="#c5cac6" d="M600 0h100v100H600z"/><path fill="#ada7a5" d="M700 0h100v100H700z"/><path fill="#cdcacc" d="M0 100h100v100H0z"/><path fill="#a48f88" d="M100 100h100v100H100z"/><path fill="#ceccc7" d="M200 100h100v100H200z"/><path fill="#c5c9c5" d="M300 100h100v100H300z"/><path fill="#b9bab9" d="M400 100h100v100H400z"/><path fill="#b1b6b9" d="M500 100h100v100H500z"/><path fill="#a59e9b" d="M600 100h100v100H600z"/><path fill="#9e9999" d="M700 100h100v100H700z"/><path fill="#b3b2b1" d="M0 200h100v100H0z"/><path fill="#b1968c" d="M100 200h100v100H100z"/><path fill="#cfc3c2" d="M200 200h100v100H200z"/><path fill="#b1a9b1" d="M300 200h100v100H300z"/><path fill="#c0a4a3" d="M400 200h100v100H400z"/><path fill="#ada7a8" d="M500 200h100v100H500z"/><path fill="#999490" d="M600 200h100v100H600z"/><path fill="#a09996" d="M700 200h100v100H700z"/><path fill="#b09fa3" d="M0 300h100v100H0z"/><path fill="#bfa39f" d="M100 300h100v100H100z"/><path fill="#c2bcc4" d="M200 300h100v100H200z"/><path fill="#aba0b4" d="M300 300h100v100H300z"/><path fill="#b79f9a" d="M400 300h100v100H400z"/><path fill="#afa39f" d="M500 300h100v100H500z"/><path fill="#b6bca7" d="M600 300h100v100H600z"/><path fill="#92958d" d="M700 300h100v100H700z"/></svg>