<svg xmlns="http://www.w3.org/2000/svg" viewBox="0 0 800 500"><defs/><path fill="#f2f0ee" d="M0 0h100v100H0z"/><path fill="#f3f2f1" d="M100 0h100v100H100z"/><path fill="#f4f3f2" d="M200 0h100v100H200z"/><path fill="#f3f2f0" d="M300 0h100v100H300z"/><path fill="#f3f2f2" d="M400 0h100v100H400z"/><path fill="#f8f7f7" d="M500 0h100v100H500z"/><path fill="#f4f3f2" d="M600 0h100v100H600z"/><path fill="#f1f0ee" d="M700 0h100v100H700z"/><path fill="#dfdbd7" d="M0 100h100v100H0z"/><path fill="#c3c0bd" d="M100 100h100v100H100z"/><path fill="#f9f9fa" d="M200 100h100v100H200z"/><path fill="#dfdedd" d="M300 100h100v100H300z"/><path fill="#d4d1cf" d="M400 100h100v100H400z"/><path fill="#f0efee" d="M500 100h100v100H500z"/><path fill="#e2e1e0" d="M600 100h100v100H600z"/><path fill="#e9e7e4" d="M700 100h100v100H700z"/><path fill="#dbd9d7" d="M0 200h100v100H0z"/><path fill="#c8c6c4" d="M100 200h100v100H100z"/><path fill="#dbd9d9" d="M200 200h100v100H200z"/><path fill="#cec9c6" d="M300 200h100v100H300z"/><path fill="#e7e5e5" d="M400 200h100v100H400z"/><path fill="#cac6c3" d="M500 200h100v100H500z"/><path fill="#dfdddc" d="M600 200h100v100H600z"/><path fill="#efedeb" d="M700 200h100v100H700z"/><path fill="#c5c2be" d="M0 300h100v100H0z"/><path fill="#c0bbb7" d="M100 300h100v100H100z"/><path fill="#cdc9c5" d="M200 300h100v100H200z"/><path fill="#b2afac" d="M300 300h100v100H300z"/><path fill="#bdbab9" d="M400 300h100v100H400z"/><path fill="#cac5c0" d="M500 300h100v100H500z"/><path fill="#d7d5d4" d="M600 300h100v100H600z"/><path fill="#e5e5e3" d="M700 300h100v100H700z"/><path fill="#d9d7d5" d="M0 400h100v100H0z"/><path fill="#e5e4e2" d="M100 400h100v100H100z"/><path fill="#fcfcfc" d="M200 400h100v100H200z"/><path fill="#eeeded" d="M300 400h100v100H300z"/><path fill="#e2e1de" d="M400 400h100v100H400z"/><path fill="#e7e6e5" d="M500 400h100v100H500z"/><path fill="#d4d2d1" d="M600 400h100v100H600z"/><path fill="#d7d4d2" d="M700 400h100v100H700z"/></svg>