<svg xmlns="http://www.w3.org/2000/svg" viewBox="0 0 800 500"><defs/><path fill="#c8cbb8" d="M0 0h100v100H0z"/><path fill="#a0b4bd" d="M100 0h100v100H100z"/><path fill="#cdd2c8" d="M200 0h100v100H200z"/><path fill="#bec1ca" d="M300 0h100v100H300z"/><path fill="#adadc6" d="M400 0h100v100H400z"/><path fill="#b1afa6" d="M500 0h100v100H500z"/><path fill="#afab9a" d="M600 0h100v100H600z"/><path fill="#c1c7c4" d="M700 0h100v100H700z"/><path fill="#ccc299" d="M0 100h100v100H0z"/><path fill="#c2b49f" d="M100 100h100v100H100z"/><path fill="#cacebf" d="M200 100h100v100H200z"/><path fill="#b8b0b5" d="M300 100h100v100H300z"/><path fill="#aca6b9" d="M400 100h100v100H400z"/><path fill="#c0bdbc" d="M500 100h100v100H500z"/><path fill="#afa9a6" d="M600 100h100v100H600z"/><path fill="#abb5b8" d="M700 100h100v100H700z"/><path fill="#b1c49d" d="M0 200h100v100H0z"/><path fill="#a9c0a7" d="M100 200h100v100H100z"/><path fill="#c9b9bc" d="M200 200h100v100H200z"/><path fill="#c0c4c5" d="M300 200h100v100H300z"/><path fill="#b7bcbd" d="M400 200h100v100H400z"/><path fill="#a2a2b2" d="M500 200h100v100H500z"/><path fill="#9da1ad" d="M600 200h100v100H600z"/><path fill="#9ca2a2" d="M700 200h100v100H700z"/><path fill="#b8b8ae" d="M0 300h100v100H0z"/><path fill="#a3938d" d="M100 300h100v100H100z"/><path fill="#ae998f" d="M200 300h100v100H200z"/><path fill="#beb4b2" d="M300 300h100v100H300z"/><path fill="#949799" d="M400 300h100v100H400z"/><path fill="#987274" d="M500 300h100v100H500z"/><path fill="#948281" d="M600 300h100v100H600z"/><path fill="#919391" d="M700 300h100v100H700z"/><path fill="#ceb7a4" d="M0 400h100v100H0z"/><path fill="#b58f7d" d="M100 400h100v100H100z"/><path fill="#9e9a8d" d="M200 400h100v100H200z"/><path fill="#808289" d="M300 400h100v100H300z"/><path fill="#838f94" d="M400 400h100v100H400z"/><path fill="#706a69" d="M500 400h100v100H500z"/><path fill="#6a7274" d="M600 400h100v100H600z"/><path fill="#5d6d77" d="M700 400h100v100H700z"/></svg>