<svg xmlns="http://www.w3.org/2000/svg" viewBox="0 0 800 500"><defs/><path fill="#712d4c" d="M0 0h100v100H0z"/><path fill="#4d2435" d="M100 0h100v100H100z"/><path fill="#141f2f" d="M200 0h100v100H200z"/><path fill="#111723" d="M300 0h100v100H300z"/><path fill="#081923" d="M400 0h100v100H400z"/><path fill="#301f31" d="M500 0h100v100H500z"/><path fill="#332234" d="M600 0h100v100H600z"/><path fill="#121e2f" d="M700 0h100v100H700z"/><path fill="#803054" d="M0 100h100v100H0z"/><path fill="#4f232f" d="M100 100h100v100H100z"/><path fill="#45273d" d="M200 100h100v100H200z"/><path fill="#332039" d="M300 100h100v100H300z"/><path fill="#202131" d="M400 100h100v100H400z"/><path fill="#342e45" d="M500 100h100v100H500z"/><path fill="#372a41" d="M600 100h100v100H600z"/><path fill="#181f34" d="M700 100h100v100H700z"/><path fill="#872349" d="M0 200h100v100H0z"/><path fill="#632935" d="M100 200h100v100H100z"/><path fill="#512631" d="M200 200h100v100H200z"/><path fill="#112242" d="M300 200h100v100H300z"/><path fill="#0a223f" d="M400 200h100v100H400z"/><path fill="#042342" d="M500 200h100v100H500z"/><path fill="#0e2241" d="M600 200h100v100H600z"/><path fill="#181f34" d="M700 200h100v100H700z"/><path fill="#7d1136" d="M0 300h100v100H0z"/><path fill="#381925" d="M100 300h100v100H100z"/><path fill="#0e1d3b" d="M200 300h100v100H200z"/><path fill="#202050" d="M300 300h100v100H300z"/><path fill="#2b2a49" d="M400 300h100v100H400z"/><path fill="#3b2c54" d="M500 300h100v100H500z"/><path fill="#351f37" d="M600 300h100v100H600z"/><path fill="#102132" d="M700 300h100v100H700z"/><path fill="#431226" d="M0 400h100v100H0z"/><path fill="#18131d" d="M100 400h100v100H100z"/><path fill="#0e1524" d="M200 400h100v100H200z"/><path fill="#211b32" d="M300 400h100v100H300z"/><path fill="#1c2e3d" d="M400 400h100v100H400z"/><path fill="#422d44" d="M500 400h100v100H500z"/><path fill="#341c2e" d="M600 400h100v100H600z"/><path fill="#151f2d" d="M700 400h100v100H700z"/></svg>