<svg xmlns="http://www.w3.org/2000/svg" viewBox="0 0 800 500"><defs/><path fill="#4aaed3" d="M0 0h100v100H0z"/><path fill="#55b5da" d="M100 0h100v100H100z"/><path fill="#6cbedd" d="M200 0h100v100H200z"/><path fill="#75c0e1" d="M300 0h100v100H300z"/><path fill="#73c0e1" d="M400 0h100v100H400z"/><path fill="#72bfdd" d="M500 0h100v100H500z"/><path fill="#6ab4d1" d="M600 0h100v100H600z"/><path fill="#4daacc" d="M700 0h100v100H700z"/><path fill="#54758a" d="M0 100h100v100H0z"/><path fill="#486175" d="M100 100h100v100H100z"/><path fill="#6d818e" d="M200 100h100v100H200z"/><path fill="#6290a6" d="M300 100h100v100H300z"/><path fill="#6e99a7" d="M400 100h100v100H400z"/><path fill="#545d66" d="M500 100h100v100H500z"/><path fill="#587f92" d="M600 100h100v100H600z"/><path fill="#51b3d7" d="M700 100h100v100H700z"/><path fill="#1f2a33" d="M0 200h100v100H0z"/><path fill="#170000" d="M100 200h100v100H100z"/><path fill="#241e23" d="M200 200h100v100H200z"/><path fill="#507580" d="M300 200h100v100H300z"/><path fill="#5c7179" d="M400 200h100v100H400z"/><path fill="#5c4e4a" d="M500 200h100v100H500z"/><path fill="#405d65" d="M600 200h100v100H600z"/><path fill="#2a90b4" d="M700 200h100v100H700z"/><path fill="#8b7b78" d="M0 300h100v100H0z"/><path fill="#37241a" d="M100 300h100v100H100z"/><path fill="#192220" d="M200 300h100v100H200z"/><path fill="#855a58" d="M300 300h100v100H300z"/><path fill="#3e373b" d="M400 300h100v100H400z"/><path fill="#40241d" d="M500 300h100v100H500z"/><path fill="#413a3a" d="M600 300h100v100H600z"/><path fill="#5f98a4" d="M700 300h100v100H700z"/><path fill="#d8bec0" d="M0 400h100v100H0z"/><path fill="#bea4a5" d="M100 400h100v100H100z"/><path fill="#a9a6ac" d="M200 400h100v100H200z"/><path fill="#aaa4aa" d="M300 400h100v100H300z"/><path fill="#8f989c" d="M400 400h100v100H400z"/><path fill="#927266" d="M500 400h100v100H500z"/><path fill="#897265" d="M600 400h100v100H600z"/><path fill="#98a99b" d="M700 400h100v100H700z"/></svg>