<svg xmlns="http://www.w3.org/2000/svg" viewBox="0 0 800 600"><defs/><path fill="#d2d2d2" d="M0 0h100v100H0z"/><path fill="#ccc8c6" d="M100 0h100v100H100z"/><path fill="#dbdbda" d="M200 0h100v100H200z"/><path fill="#eeedee" d="M300 0h100v100H300z"/><path fill="#e2ebe2" d="M400 0h100v100H400z"/><path fill="#d1e3d1" d="M500 0h100v100H500z"/><path fill="#d5e2d7" d="M600 0h100v100H600z"/><path fill="#dbe2db" d="M700 0h100v100H700z"/><path fill="#42403f" d="M0 100h100v100H0z"/><path fill="#29160b" d="M100 100h100v100H100z"/><path fill="#6f6e6d" d="M200 100h100v100H200z"/><path fill="#bdbbbd" d="M300 100h100v100H300z"/><path fill="#becfc0" d="M400 100h100v100H400z"/><path fill="#4c964f" d="M500 100h100v100H500z"/><path fill="#1d4916" d="M600 100h100v100H600z"/><path fill="#273e28" d="M700 100h100v100H700z"/><path fill="#443f3c" d="M0 200h100v100H0z"/><path fill="#39261c" d="M100 200h100v100H100z"/><path fill="#828181" d="M200 200h100v100H200z"/><path fill="#c0c0bd" d="M300 200h100v100H300z"/><path fill="#e7e3e3" d="M400 200h100v100H400z"/><path fill="#c7cebc" d="M500 200h100v100H500z"/><path fill="#725e4a" d="M600 200h100v100H600z"/><path fill="#272723" d="M700 200h100v100H700z"/><path fill="#51453f" d="M0 300h100v100H0z"/><path fill="#402d1f" d="M100 300h100v100H100z"/><path fill="#797671" d="M200 300h100v100H200z"/><path fill="#798285" d="M300 300h100v100H300z"/><path fill="#7d96a2" d="M400 300h100v100H400z"/><path fill="#9da697" d="M500 300h100v100H500z"/><path fill="#8b6634" d="M600 300h100v100H600z"/><path fill="#443730" d="M700 300h100v100H700z"/><path fill="#4c3b35" d="M0 400h100v100H0z"/><path fill="#1d2a07" d="M100 400h100v100H100z"/><path fill="#5a5c47" d="M200 400h100v100H200z"/><path fill="#766647" d="M300 400h100v100H300z"/><path fill="#767e72" d="M400 400h100v100H400z"/><path fill="#70674f" d="M500 400h100v100H500z"/><path fill="#a64600" d="M600 400h100v100H600z"/><path fill="#583c28" d="M700 400h100v100H700z"/><path fill="#c1bfbe" d="M0 500h100v100H0z"/><path fill="#b1b7af" d="M100 500h100v100H100z"/><path fill="#bebeba" d="M200 500h100v100H200z"/><path fill="#cec6b4" d="M300 500h100v100H300z"/><path fill="#d3c9b8" d="M400 500h100v100H400z"/><path fill="#cec9c2" d="M500 500h100v100H500z"/><path fill="#cdbaaa" d="M600 500h100v100H600z"/><path fill="#bdb9b7" d="M700 500h100v100H700z"/></svg>