<svg xmlns="http://www.w3.org/2000/svg" viewBox="0 0 800 500"><defs/><path fill="#f8f8f8" d="M0 0h100v100H0z"/><path fill="#f5f4f4" d="M100 0h100v100H100z"/><path fill="#f4f4f4" d="M200 0h100v100H200z"/><path fill="#eff0f0" d="M300 0h100v100H300z"/><path fill="#eee" d="M400 0h100v100H400z"/><path fill="#f1f1f1" d="M500 0h100v100H500z"/><path fill="#ebebeb" d="M600 0h100v100H600z"/><path fill="#eee" d="M700 0h100v100H700z"/><path fill="#cac9ca" d="M0 100h100v100H0z"/><path fill="#a9a9aa" d="M100 100h100v100H100z"/><path fill="#c0c0c2" d="M200 100h100v100H200z"/><path fill="#aaaaac" d="M300 100h100v100H300z"/><path fill="#a7a7a7" d="M400 100h100v100H400z"/><path fill="#b3b2b3" d="M500 100h100v100H500z"/><path fill="#acacad" d="M600 100h100v100H600z"/><path fill="#b8b8b8" d="M700 100h100v100H700z"/><path fill="#d2d2d2" d="M0 200h100v100H0z"/><path fill="#afafb1" d="M100 200h100v100H100z"/><path fill="#9f9ea1" d="M200 200h100v100H200z"/><path fill="#8a898c" d="M300 200h100v100H300z"/><path fill="#a4a5a6" d="M400 200h100v100H400z"/><path fill="#a7a7a9" d="M500 200h100v100H500z"/><path fill="#acacae" d="M600 200h100v100H600z"/><path fill="#c5c5c5" d="M700 200h100v100H700z"/><path fill="#c7c7c8" d="M0 300h100v100H0z"/><path fill="#8e8d8f" d="M100 300h100v100H100z"/><path fill="#9b9b9d" d="M200 300h100v100H200z"/><path fill="#969698" d="M300 300h100v100H300z"/><path fill="#939395" d="M400 300h100v100H400z"/><path fill="#a0a0a2" d="M500 300h100v100H500z"/><path fill="#adadaf" d="M600 300h100v100H600z"/><path fill="#c4c4c4" d="M700 300h100v100H700z"/><path fill="#d7d7d8" d="M0 400h100v100H0z"/><path fill="#b2b1b3" d="M100 400h100v100H100z"/><path fill="#cfcfd0" d="M200 400h100v100H200zm100 0h100v100H300z"/><path fill="#c8c8c9" d="M400 400h100v100H400z"/><path fill="#cfcfcf" d="M500 400h100v100H500z"/><path fill="#cdcdce" d="M600 400h100v100H600z"/><path fill="#cccccd" d="M700 400h100v100H700z"/></svg>