<svg xmlns="http://www.w3.org/2000/svg" viewBox="0 0 800 600"><defs/><path fill="#84817c" d="M0 0h100v100H0z"/><path fill="#8c8985" d="M100 0h100v100H100z"/><path fill="#9a9791" d="M200 0h100v100H200z"/><path fill="#a5a19b" d="M300 0h100v100H300z"/><path fill="#a7a29b" d="M400 0h100v100H400z"/><path fill="#a39e95" d="M500 0h100v100H500z"/><path fill="#9d968b" d="M600 0h100v100H600z"/><path fill="#938d80" d="M700 0h100v100H700z"/><path fill="#8e8b85" d="M0 100h100v100H0z"/><path fill="#999792" d="M100 100h100v100H100z"/><path fill="#aba7a4" d="M200 100h100v100H200z"/><path fill="#b5b3ae" d="M300 100h100v100H300z"/><path fill="#b5b2ad" d="M400 100h100v100H400z"/><path fill="#b3afa7" d="M500 100h100v100H500z"/><path fill="#9e9b92" d="M600 100h100v100H600z"/><path fill="#8c897f" d="M700 100h100v100H700z"/><path fill="#95928d" d="M0 200h100v100H0z"/><path fill="#a19f9b" d="M100 200h100v100H100z"/><path fill="#b5b5b1" d="M200 200h100v100H200z"/><path fill="#bebebb" d="M300 200h100v100H300z"/><path fill="#bdbcb9" d="M400 200h100v100H400z"/><path fill="#b9b7b1" d="M500 200h100v100H500z"/><path fill="#9b9992" d="M600 200h100v100H600z"/><path fill="#89867d" d="M700 200h100v100H700z"/><path fill="#989792" d="M0 300h100v100H0z"/><path fill="#a7a6a3" d="M100 300h100v100H100z"/><path fill="#b9b8b5" d="M200 300h100v100H200z"/><path fill="#c6c5c3" d="M300 300h100v100H300z"/><path fill="#c3c2bf" d="M400 300h100v100H400z"/><path fill="#b4b3af" d="M500 300h100v100H500z"/><path fill="#a3a19a" d="M600 300h100v100H600z"/><path fill="#88857d" d="M700 300h100v100H700z"/><path fill="#979692" d="M0 400h100v100H0z"/><path fill="#a2a19e" d="M100 400h100v100H100z"/><path fill="#bbbab7" d="M200 400h100v100H200z"/><path fill="#a8a7a4" d="M300 400h100v100H300z"/><path fill="#b2b1ad" d="M400 400h100v100H400z"/><path fill="#bbbbb6" d="M500 400h100v100H500z"/><path fill="#9a9993" d="M600 400h100v100H600z"/><path fill="#8b8a81" d="M700 400h100v100H700z"/><path fill="#908f8a" d="M0 500h100v100H0z"/><path fill="#a09e9a" d="M100 500h100v100H100z"/><path fill="#b9b8b4" d="M200 500h100v100H200z"/><path fill="#5d5d59" d="M300 500h100v100H300z"/><path fill="#7b7b76" d="M400 500h100v100H400z"/><path fill="#bcbbb5" d="M500 500h100v100H500z"/><path fill="#9e9d94" d="M600 500h100v100H600z"/><path fill="#9a9a8e" d="M700 500h100v100H700z"/></svg>