<svg xmlns="http://www.w3.org/2000/svg" viewBox="0 0 800 500"><defs/><path fill="#62615c" d="M0 0h100v100H0z"/><path fill="#a8a59e" d="M100 0h100v100H100z"/><path fill="#d4d1ca" d="M200 0h100v100H200z"/><path fill="#f5f3ed" d="M300 0h100v100H300z"/><path fill="#f9f9f5" d="M400 0h100v100H400z"/><path fill="#eaebe6" d="M500 0h100v100H500z"/><path fill="#d4d5cc" d="M600 0h100v100H600z"/><path fill="#92948a" d="M700 0h100v100H700z"/><path fill="#787872" d="M0 100h100v100H0z"/><path fill="#bab7b0" d="M100 100h100v100H100z"/><path fill="#c8c4bf" d="M200 100h100v100H200z"/><path fill="#e6e4df" d="M300 100h100v100H300z"/><path fill="#f6f6f2" d="M400 100h100v100H400z"/><path fill="#e8e9e5" d="M500 100h100v100H500z"/><path fill="#e6e7e0" d="M600 100h100v100H600z"/><path fill="#b3b6ae" d="M700 100h100v100H700z"/><path fill="#72746e" d="M0 200h100v100H0z"/><path fill="#a5a5a1" d="M100 200h100v100H100z"/><path fill="#c7c4c2" d="M200 200h100v100H200z"/><path fill="#cdcbc7" d="M300 200h100v100H300z"/><path fill="#d4d2cd" d="M400 200h100v100H400z"/><path fill="#dddcd7" d="M500 200h100v100H500z"/><path fill="#c8c8c3" d="M600 200h100v100H600z"/><path fill="#aaaca5" d="M700 200h100v100H700z"/><path fill="#5e605a" d="M0 300h100v100H0z"/><path fill="#7f817c" d="M100 300h100v100H100z"/><path fill="#b3b3b1" d="M200 300h100v100H200z"/><path fill="#c1bebd" d="M300 300h100v100H300z"/><path fill="#cbc8c6" d="M400 300h100v100H400z"/><path fill="#d8d6d2" d="M500 300h100v100H500z"/><path fill="#c2c2bc" d="M600 300h100v100H600z"/><path fill="#93958f" d="M700 300h100v100H700z"/><path fill="#42443e" d="M0 400h100v100H0z"/><path fill="#6f716b" d="M100 400h100v100H100z"/><path fill="#a5a7a3" d="M200 400h100v100H200z"/><path fill="#b8b9b7" d="M300 400h100v100H300z"/><path fill="#cbcbcb" d="M400 400h100v100H400z"/><path fill="#cececb" d="M500 400h100v100H500z"/><path fill="#b0b1ac" d="M600 400h100v100H600z"/><path fill="#71746d" d="M700 400h100v100H700z"/></svg>