<svg xmlns="http://www.w3.org/2000/svg" viewBox="0 0 800 400"><defs/><path fill="#a38cac" d="M0 0h100v100H0z"/><path fill="#a8979b" d="M100 0h100v100H100z"/><path fill="#a0a6b5" d="M200 0h100v100H200z"/><path fill="#a79fb8" d="M300 0h100v100H300z"/><path fill="#ba8da7" d="M400 0h100v100H400z"/><path fill="#beb9cb" d="M500 0h100v100H500z"/><path fill="#afb2c3" d="M600 0h100v100H600z"/><path fill="#9f8dad" d="M700 0h100v100H700z"/><path fill="#a891aa" d="M0 100h100v100H0z"/><path fill="#a88f95" d="M100 100h100v100H100z"/><path fill="#917073" d="M200 100h100v100H200z"/><path fill="#8e7495" d="M300 100h100v100H300z"/><path fill="#967699" d="M400 100h100v100H400z"/><path fill="#a186b6" d="M500 100h100v100H500z"/><path fill="#9577a6" d="M600 100h100v100H600z"/><path fill="#a58cb5" d="M700 100h100v100H700z"/><path fill="#a692a0" d="M0 200h100v100H0z"/><path fill="#a79a9f" d="M100 200h100v100H100z"/><path fill="#988291" d="M200 200h100v100H200z"/><path fill="#a69b9f" d="M300 200h100v100H300z"/><path fill="#a59c9b" d="M400 200h100v100H400z"/><path fill="#a58b81" d="M500 200h100v100H500z"/><path fill="#85757f" d="M600 200h100v100H600z"/><path fill="#7d748f" d="M700 200h100v100H700z"/><path fill="#ab9c9f" d="M0 300h100v100H0z"/><path fill="#d2d0cd" d="M100 300h100v100H100z"/><path fill="#a19c9a" d="M200 300h100v100H200z"/><path fill="#d4d6d5" d="M300 300h100v100H300z"/><path fill="#e6ebe5" d="M400 300h100v100H400z"/><path fill="#d0c4af" d="M500 300h100v100H500z"/><path fill="#a19480" d="M600 300h100v100H600z"/><path fill="#8f8781" d="M700 300h100v100H700z"/></svg>