<svg xmlns="http://www.w3.org/2000/svg" viewBox="0 0 800 400"><defs/><path fill="#ead1d8" d="M0 0h100v100H0z"/><path fill="#eadbe0" d="M100 0h100v100H100z"/><path fill="#d8c1c8" d="M200 0h100v100H200z"/><path fill="#9f8f98" d="M300 0h100v100H300z"/><path fill="#dbc7cc" d="M400 0h100v100H400z"/><path fill="#ebc" d="M500 0h100v100H500z"/><path fill="#d398b5" d="M600 0h100v100H600z"/><path fill="#d6c0c5" d="M700 0h100v100H700z"/><path fill="#d2c0c8" d="M0 100h100v100H0z"/><path fill="#d6c1c7" d="M100 100h100v100H100z"/><path fill="#887589" d="M200 100h100v100H200z"/><path fill="#a997a3" d="M300 100h100v100H300z"/><path fill="#c1b3b5" d="M400 100h100v100H400z"/><path fill="#c384a3" d="M500 100h100v100H500z"/><path fill="#e48eb3" d="M600 100h100v100H600z"/><path fill="#82788b" d="M700 100h100v100H700z"/><path fill="#e4d6d9" d="M0 200h100v100H0z"/><path fill="#af9ea2" d="M100 200h100v100H100z"/><path fill="#997984" d="M200 200h100v100H200z"/><path fill="#ab929a" d="M300 200h100v100H300z"/><path fill="#ad94a7" d="M400 200h100v100H400z"/><path fill="#685986" d="M500 200h100v100H500z"/><path fill="#766690" d="M600 200h100v100H600z"/><path fill="#967ca3" d="M700 200h100v100H700z"/><path fill="#c191a4" d="M0 300h100v100H0z"/><path fill="#877b7f" d="M100 300h100v100H100z"/><path fill="#bd9ca5" d="M200 300h100v100H200z"/><path fill="#ba969f" d="M300 300h100v100H300z"/><path fill="#a38592" d="M400 300h100v100H400z"/><path fill="#6c6678" d="M500 300h100v100H500z"/><path fill="#6e6577" d="M600 300h100v100H600z"/><path fill="#a18197" d="M700 300h100v100H700z"/></svg>