<svg xmlns="http://www.w3.org/2000/svg" viewBox="0 0 800 600"><defs/><path fill="#5d6f64" d="M0 0h100v100H0z"/><path fill="#365550" d="M100 0h100v100H100z"/><path fill="#8c887e" d="M200 0h100v100H200z"/><path fill="#748479" d="M300 0h100v100H300z"/><path fill="#4e6f66" d="M400 0h100v100H400z"/><path fill="#838b81" d="M500 0h100v100H500z"/><path fill="#5c7970" d="M600 0h100v100H600z"/><path fill="#6a867a" d="M700 0h100v100H700z"/><path fill="#46675f" d="M0 100h100v100H0z"/><path fill="#46605f" d="M100 100h100v100H100z"/><path fill="#aea798" d="M200 100h100v100H200z"/><path fill="#808d7d" d="M300 100h100v100H300z"/><path fill="#587169" d="M400 100h100v100H400z"/><path fill="#9a998b" d="M500 100h100v100H500z"/><path fill="#5a776a" d="M600 100h100v100H600z"/><path fill="#81887a" d="M700 100h100v100H700z"/><path fill="#50706b" d="M0 200h100v100H0z"/><path fill="#7a8988" d="M100 200h100v100H100z"/><path fill="#a4a095" d="M200 200h100v100H200z"/><path fill="#7b7168" d="M300 200h100v100H300z"/><path fill="#6c7b71" d="M400 200h100v100H400z"/><path fill="#86847b" d="M500 200h100v100H500z"/><path fill="#5d7165" d="M600 200h100v100H600z"/><path fill="#8d8478" d="M700 200h100v100H700z"/><path fill="#60746f" d="M0 300h100v100H0z"/><path fill="#89908f" d="M100 300h100v100H100z"/><path fill="#977d73" d="M200 300h100v100H200z"/><path fill="#846d70" d="M300 300h100v100H300z"/><path fill="#b0aea3" d="M400 300h100v100H400z"/><path fill="#aaa498" d="M500 300h100v100H500z"/><path fill="#b9afa1" d="M600 300h100v100H600z"/><path fill="#ada79d" d="M700 300h100v100H700z"/><path fill="#838b88" d="M0 400h100v100H0z"/><path fill="#b7b4b4" d="M100 400h100v100H100z"/><path fill="#b5a9a1" d="M200 400h100v100H200z"/><path fill="#8c8a8b" d="M300 400h100v100H300z"/><path fill="#b8b2ab" d="M400 400h100v100H400z"/><path fill="#bbb5ae" d="M500 400h100v100H500z"/><path fill="#a6a19c" d="M600 400h100v100H600z"/><path fill="#8f8b87" d="M700 400h100v100H700z"/><path fill="#cbc3b8" d="M0 500h100v100H0z"/><path fill="#eee5de" d="M100 500h100v100H100z"/><path fill="#ded7d2" d="M200 500h100v100H200z"/><path fill="#d5ceca" d="M300 500h100v100H300z"/><path fill="#cfc8c5" d="M400 500h100v100H400z"/><path fill="#cbc3bf" d="M500 500h100v100H500z"/><path fill="#c3bdb7" d="M600 500h100v100H600z"/><path fill="#a9a49f" d="M700 500h100v100H700z"/></svg>