<svg xmlns="http://www.w3.org/2000/svg" viewBox="0 0 800 400"><defs/><path fill="#d9e5e8" d="M0 0h100v100H0z"/><path fill="#c0d5d9" d="M100 0h100v100H100z"/><path fill="#d6e0e3" d="M200 0h100v100H200z"/><path fill="#e4e4e4" d="M300 0h100v100H300z"/><path fill="#dbddde" d="M400 0h100v100H400z"/><path fill="#d4d8d9" d="M500 0h100v100H500z"/><path fill="#bfd2d6" d="M600 0h100v100H600z"/><path fill="#d6e5e9" d="M700 0h100v100H700z"/><path fill="#bfc9bd" d="M0 100h100v100H0z"/><path fill="#9cb5b1" d="M100 100h100v100H100z"/><path fill="#aebfc4" d="M200 100h100v100H200z"/><path fill="#abbbbe" d="M300 100h100v100H300z"/><path fill="#a9b4b5" d="M400 100h100v100H400z"/><path fill="#afbdc1" d="M500 100h100v100H500z"/><path fill="#6fa6b6" d="M600 100h100v100H600z"/><path fill="#9dc3cb" d="M700 100h100v100H700z"/><path fill="#8fb2b9" d="M0 200h100v100H0z"/><path fill="#558d99" d="M100 200h100v100H100z"/><path fill="#60919d" d="M200 200h100v100H200z"/><path fill="#7b969c" d="M300 200h100v100H300z"/><path fill="#78979f" d="M400 200h100v100H400z"/><path fill="#9aafa9" d="M500 200h100v100H500z"/><path fill="#94ac91" d="M600 200h100v100H600z"/><path fill="#a7c1c7" d="M700 200h100v100H700z"/><path fill="#5993a2" d="M0 300h100v100H0z"/><path fill="#478697" d="M100 300h100v100H100z"/><path fill="#a3c1c8" d="M200 300h100v100H200z"/><path fill="#9fc0c7" d="M300 300h100v100H300z"/><path fill="#a8c6d0" d="M400 300h100v100H400z"/><path fill="#bdcfcc" d="M500 300h100v100H500z"/><path fill="#d4cda4" d="M600 300h100v100H600z"/><path fill="#d8dad8" d="M700 300h100v100H700z"/></svg>