<svg xmlns="http://www.w3.org/2000/svg" viewBox="0 0 800 400"><defs/><path fill="#99888d" d="M0 0h100v100H0z"/><path fill="#a89c9a" d="M100 0h100v100H100z"/><path fill="#a19495" d="M200 0h100v100H200z"/><path fill="#8c8e9d" d="M300 0h100v100H300z"/><path fill="#aeb1be" d="M400 0h100v100H400z"/><path fill="#cabab5" d="M500 0h100v100H500z"/><path fill="#daccc5" d="M600 0h100v100H600z"/><path fill="#7e6d7a" d="M700 0h100v100H700z"/><path fill="#817374" d="M0 100h100v100H0z"/><path fill="#a0918e" d="M100 100h100v100H100z"/><path fill="#b7b2aa" d="M200 100h100v100H200z"/><path fill="#868b9a" d="M300 100h100v100H300z"/><path fill="#a3a7b3" d="M400 100h100v100H400z"/><path fill="#e9e4d3" d="M500 100h100v100H500z"/><path fill="#ece6d6" d="M600 100h100v100H600z"/><path fill="#7e7177" d="M700 100h100v100H700z"/><path fill="#86767a" d="M0 200h100v100H0z"/><path fill="#76696e" d="M100 200h100v100H100z"/><path fill="#a6938e" d="M200 200h100v100H200z"/><path fill="#9f8a82" d="M300 200h100v100H300z"/><path fill="#a28c82" d="M400 200h100v100H400z"/><path fill="#8e858c" d="M500 200h100v100H500z"/><path fill="#61586d" d="M600 200h100v100H600z"/><path fill="#5d5a68" d="M700 200h100v100H700z"/><path fill="#361e2f" d="M0 300h100v100H0z"/><path fill="#54424b" d="M100 300h100v100H100z"/><path fill="#866766" d="M200 300h100v100H200z"/><path fill="#806560" d="M300 300h100v100H300z"/><path fill="#6c5c65" d="M400 300h100v100H400z"/><path fill="#5a4a5c" d="M500 300h100v100H500z"/><path fill="#55485d" d="M600 300h100v100H600z"/><path fill="#4b394f" d="M700 300h100v100H700z"/></svg>