<svg xmlns="http://www.w3.org/2000/svg" viewBox="0 0 800 800"><defs/><path fill="#5e625c" d="M0 0h100v100H0z"/><path fill="#5c5f5a" d="M100 0h100v100H100z"/><path fill="#5b5d58" d="M200 0h100v100H200z"/><path fill="#5a5c57" d="M300 0h100v100H300z"/><path fill="#50514c" d="M400 0h100v100H400z"/><path fill="#43433f" d="M500 0h100v100H500z"/><path fill="#3b3c39" d="M600 0h100v100H600z"/><path fill="#353734" d="M700 0h100v100H700z"/><path fill="#5d615b" d="M0 100h100v100H0z"/><path fill="#666863" d="M100 100h100v100H100z"/><path fill="#72746f" d="M200 100h100v100H200z"/><path fill="#696a66" d="M300 100h100v100H300z"/><path fill="#646460" d="M400 100h100v100H400z"/><path fill="#5f5f5c" d="M500 100h100v100H500z"/><path fill="#565753" d="M600 100h100v100H600z"/><path fill="#5c5e5a" d="M700 100h100v100H700z"/><path fill="#71746f" d="M0 200h100v100H0z"/><path fill="#878885" d="M100 200h100v100H100z"/><path fill="#7c7d79" d="M200 200h100v100H200z"/><path fill="#80807c" d="M300 200h100v100H300z"/><path fill="#666460" d="M400 200h100v100H400z"/><path fill="#51504c" d="M500 200h100v100H500z"/><path fill="#585855" d="M600 200h100v100H600z"/><path fill="#5b5d5a" d="M700 200h100v100H700z"/><path fill="#666863" d="M0 300h100v100H0z"/><path fill="#888883" d="M100 300h100v100H100z"/><path fill="#6a6a65" d="M200 300h100v100H200z"/><path fill="#6e6d6a" d="M300 300h100v100H300z"/><path fill="#797873" d="M400 300h100v100H400z"/><path fill="#63625e" d="M500 300h100v100H500z"/><path fill="#5c5c59" d="M600 300h100v100H600z"/><path fill="#535451" d="M700 300h100v100H700z"/><path fill="#60615c" d="M0 400h100v100H0z"/><path fill="#686964" d="M100 400h100v100H100z"/><path fill="#686863" d="M200 400h100v100H200z"/><path fill="#5b5a56" d="M300 400h100v100H300z"/><path fill="#5d5c58" d="M400 400h100v100H400z"/><path fill="#555551" d="M500 400h100v100H500z"/><path fill="#5a5b56" d="M600 400h100v100H600z"/><path fill="#5f5f5c" d="M700 400h100v100H700z"/><path fill="#333530" d="M0 500h100v100H0z"/><path fill="#393b36" d="M100 500h100v100H100z"/><path fill="#3b3b37" d="M200 500h100v100H200z"/><path fill="#373733" d="M300 500h100v100H300z"/><path fill="#30302c" d="M400 500h100v100H400z"/><path fill="#2e2f2b" d="M500 500h100v100H500z"/><path fill="#2d2f2b" d="M600 500h100v100H600z"/><path fill="#343732" d="M700 500h100v100H700z"/><path fill="#2f322d" d="M0 600h100v100H0z"/><path fill="#353731" d="M100 600h100v100H100z"/><path fill="#363732" d="M200 600h100v100H200z"/><path fill="#33322e" d="M300 600h100v100H300z"/><path fill="#2b2b27" d="M400 600h100v100H400z"/><path fill="#262723" d="M500 600h100v100H500z"/><path fill="#272925" d="M600 600h100v100H600z"/><path fill="#2c2d28" d="M700 600h100v100H700z"/><path fill="#2b2e29" d="M0 700h100v100H0z"/><path fill="#30322c" d="M100 700h100v100H100z"/><path fill="#30312c" d="M200 700h100v100H200z"/><path fill="#2c2d28" d="M300 700h100v100H300z"/><path fill="#252723" d="M400 700h100v100H400z"/><path fill="#212320" d="M500 700h100v100H500z"/><path fill="#222420" d="M600 700h100v100H600z"/><path fill="#252622" d="M700 700h100v100H700z"/></svg>