<svg xmlns="http://www.w3.org/2000/svg" viewBox="0 0 800 500"><defs/><path fill="#cab086" d="M0 0h100v100H0z"/><path fill="#af906a" d="M100 0h100v100H100z"/><path fill="#ba8b96" d="M200 0h100v100H200z"/><path fill="#b79a9b" d="M300 0h100v100H300z"/><path fill="#9ea89b" d="M400 0h100v100H400z"/><path fill="#c7c4be" d="M500 0h100v100H500z"/><path fill="#c8bebe" d="M600 0h100v100H600z"/><path fill="#cbc5c9" d="M700 0h100v100H700z"/><path fill="#ad9675" d="M0 100h100v100H0z"/><path fill="#af9575" d="M100 100h100v100H100z"/><path fill="#ab9297" d="M200 100h100v100H200z"/><path fill="#d2b9b0" d="M300 100h100v100H300z"/><path fill="#d6cdcd" d="M400 100h100v100H400z"/><path fill="#babbaf" d="M500 100h100v100H500z"/><path fill="#b3b1a4" d="M600 100h100v100H600z"/><path fill="#a5a095" d="M700 100h100v100H700z"/><path fill="#cea768" d="M0 200h100v100H0z"/><path fill="#a59385" d="M100 200h100v100H100z"/><path fill="#907d7a" d="M200 200h100v100H200z"/><path fill="#c6b6b2" d="M300 200h100v100H300z"/><path fill="#d0c4bc" d="M400 200h100v100H400z"/><path fill="#c4bcba" d="M500 200h100v100H500z"/><path fill="#bdaeac" d="M600 200h100v100H600z"/><path fill="#866a58" d="M700 200h100v100H700z"/><path fill="#c1946d" d="M0 300h100v100H0z"/><path fill="#a08a72" d="M100 300h100v100H100z"/><path fill="#927971" d="M200 300h100v100H200z"/><path fill="#ada298" d="M300 300h100v100H300z"/><path fill="#b8a190" d="M400 300h100v100H400z"/><path fill="#b8927e" d="M500 300h100v100H500z"/><path fill="#c7ae8b" d="M600 300h100v100H600z"/><path fill="#a08f71" d="M700 300h100v100H700z"/><path fill="#c09a6c" d="M0 400h100v100H0z"/><path fill="#b58c6e" d="M100 400h100v100H100z"/><path fill="#bb8e70" d="M200 400h100v100H200z"/><path fill="#b9967c" d="M300 400h100v100H300z"/><path fill="#c59c7f" d="M400 400h100v100H400z"/><path fill="#b7957b" d="M500 400h100v100H500z"/><path fill="#b49f87" d="M600 400h100v100H600z"/><path fill="#b7a082" d="M700 400h100v100H700z"/></svg>