<svg xmlns="http://www.w3.org/2000/svg" viewBox="0 0 800 400"><defs/><path fill="#a4a4a4" d="M0 0h100v100H0z"/><path fill="#8e8e8e" d="M100 0h100v100H100z"/><path fill="#9b9b9b" d="M200 0h100v100H200z"/><path fill="#cbcbcb" d="M300 0h100v100H300z"/><path fill="#d6d6d6" d="M400 0h100v100H400z"/><path fill="#ddd" d="M500 0h100v100H500z"/><path fill="#9d9d9d" d="M600 0h100v100H600z"/><path fill="#c7c7c7" d="M700 0h100v100H700z"/><path fill="#868686" d="M0 100h100v100H0z"/><path fill="#909090" d="M100 100h100v100H100z"/><path fill="#a6a6a6" d="M200 100h100v100H200z"/><path fill="#a2a2a2" d="M300 100h100v100H300z"/><path fill="#979797" d="M400 100h100v100H400z"/><path fill="#9d9d9d" d="M500 100h100v100H500z"/><path fill="#b9b9b9" d="M600 100h100v100H600z"/><path fill="#cfcfcf" d="M700 100h100v100H700z"/><path fill="#858585" d="M0 200h100v100H0z"/><path fill="#a2a2a2" d="M100 200h100v100H100z"/><path fill="#c7c7c7" d="M200 200h100v100H200z"/><path fill="#bebebe" d="M300 200h100v100H300z"/><path fill="#d3d3d3" d="M400 200h100v100H400z"/><path fill="#aeaeae" d="M500 200h100v100H500z"/><path fill="#c7c7c7" d="M600 200h100v100H600z"/><path fill="#dedede" d="M700 200h100v100H700z"/><path fill="#999" d="M0 300h100v100H0z"/><path fill="silver" d="M100 300h100v100H100z"/><path fill="#d3d3d3" d="M200 300h100v100H200z"/><path fill="#d0d0d0" d="M300 300h100v100H300z"/><path fill="#dfdfdf" d="M400 300h100v100H400z"/><path fill="#c9c9c9" d="M500 300h100v100H500z"/><path fill="#d1d1d1" d="M600 300h100v100H600z"/><path fill="#f0f0f0" d="M700 300h100v100H700z"/></svg>