<svg xmlns="http://www.w3.org/2000/svg" viewBox="0 0 800 500"><defs/><path fill="#f0f1f2" d="M0 0h100v100H0z"/><path fill="#ebedee" d="M100 0h100v100H100z"/><path fill="#edeff0" d="M200 0h100v100H200z"/><path fill="#f1f2f2" d="M300 0h100v100H300z"/><path fill="#f0f2f2" d="M400 0h100v100H400z"/><path fill="#f1f1f2" d="M500 0h100v100H500z"/><path fill="#edeeef" d="M600 0h100v100H600z"/><path fill="#f7f9f9" d="M700 0h100v100H700z"/><path fill="#f3f5f5" d="M0 100h100v100H0z"/><path fill="#e7e9eb" d="M100 100h100v100H100z"/><path fill="#f1f3f3" d="M200 100h100v100H200z"/><path fill="#f7f8f7" d="M300 100h100v100H300zm100 0h100v100H400z"/><path fill="#fff" d="M500 100h100v100H500z"/><path fill="#dfe1e0" d="M600 100h100v100H600z"/><path fill="#c8c9c7" d="M700 100h100v100H700z"/><path fill="#edeeef" d="M0 200h100v100H0z"/><path fill="#dadddf" d="M100 200h100v100H100z"/><path fill="#e6e8ea" d="M200 200h100v100H200z"/><path fill="#f0f1f2" d="M300 200h100v100H300z"/><path fill="#f5f6f6" d="M400 200h100v100H400z"/><path fill="#fafbfb" d="M500 200h100v100H500z"/><path fill="#e1e1e1" d="M600 200h100v100H600z"/><path fill="#6c6660" d="M700 200h100v100H700z"/><path fill="#dfe2e4" d="M0 300h100v100H0z"/><path fill="#c0c5c9" d="M100 300h100v100H100z"/><path fill="#dce1e3" d="M200 300h100v100H200z"/><path fill="#c2bebd" d="M300 300h100v100H300z"/><path fill="#b6b4b6" d="M400 300h100v100H400z"/><path fill="#f2f4f4" d="M500 300h100v100H500z"/><path fill="#d6dadc" d="M600 300h100v100H600z"/><path fill="#b6b8bb" d="M700 300h100v100H700z"/><path fill="#d8dbde" d="M0 400h100v100H0z"/><path fill="#dcdfe2" d="M100 400h100v100H100z"/><path fill="#eff1f2" d="M200 400h100v100H200z"/><path fill="#e4e3e4" d="M300 400h100v100H300z"/><path fill="#e3e2e3" d="M400 400h100v100H400z"/><path fill="#ebedee" d="M500 400h100v100H500z"/><path fill="#d8dbdd" d="M600 400h100v100H600z"/><path fill="#d1d6d8" d="M700 400h100v100H700z"/></svg>