<svg xmlns="http://www.w3.org/2000/svg" viewBox="0 0 800 600"><defs/><path fill="#cbbe9d" d="M0 0h100v100H0z"/><path fill="#baaf86" d="M100 0h100v100H100z"/><path fill="#b7ad8e" d="M200 0h100v100H200z"/><path fill="#c3bcaf" d="M300 0h100v100H300z"/><path fill="#d4c8c3" d="M400 0h100v100H400z"/><path fill="#ddd2c7" d="M500 0h100v100H500z"/><path fill="#dad0bf" d="M600 0h100v100H600z"/><path fill="#ddd4d1" d="M700 0h100v100H700z"/><path fill="#cdb973" d="M0 100h100v100H0z"/><path fill="#9a8f45" d="M100 100h100v100H100z"/><path fill="#7e806b" d="M200 100h100v100H200z"/><path fill="#988f83" d="M300 100h100v100H300z"/><path fill="#ada292" d="M400 100h100v100H400z"/><path fill="#c6bd9e" d="M500 100h100v100H500z"/><path fill="#dacaaa" d="M600 100h100v100H600z"/><path fill="#d6cdc7" d="M700 100h100v100H700z"/><path fill="#bfad5c" d="M0 200h100v100H0z"/><path fill="#a99c6a" d="M100 200h100v100H100z"/><path fill="#a2936d" d="M200 200h100v100H200z"/><path fill="#a79269" d="M300 200h100v100H300z"/><path fill="#9b8165" d="M400 200h100v100H400z"/><path fill="#b1997b" d="M500 200h100v100H500z"/><path fill="#b6b4ab" d="M600 200h100v100H600z"/><path fill="#a79376" d="M700 200h100v100H700z"/><path fill="#b6a244" d="M0 300h100v100H0z"/><path fill="#8e8663" d="M100 300h100v100H100z"/><path fill="#b89149" d="M200 300h100v100H200z"/><path fill="#ab8447" d="M300 300h100v100H300z"/><path fill="#9f846d" d="M400 300h100v100H400z"/><path fill="#a09790" d="M500 300h100v100H500z"/><path fill="#8c9286" d="M600 300h100v100H600z"/><path fill="#a08f77" d="M700 300h100v100H700z"/><path fill="#b1a357" d="M0 400h100v100H0z"/><path fill="#898978" d="M100 400h100v100H100z"/><path fill="#a7968c" d="M200 400h100v100H200z"/><path fill="#9e8d8a" d="M300 400h100v100H300z"/><path fill="#989391" d="M400 400h100v100H400z"/><path fill="#9a9d9f" d="M500 400h100v100H500z"/><path fill="#a9a59f" d="M600 400h100v100H600z"/><path fill="#afa698" d="M700 400h100v100H700z"/><path fill="#c7c1b4" d="M0 500h100v100H0z"/><path fill="#cbc5b8" d="M100 500h100v100H100z"/><path fill="#c9c4bb" d="M200 500h100v100H200z"/><path fill="#c9c2b9" d="M300 500h100v100H300z"/><path fill="#c8c0b7" d="M400 500h100v100H400z"/><path fill="#cbc1bc" d="M500 500h100v100H500z"/><path fill="#cac2bd" d="M600 500h100v100H600z"/><path fill="#c9c3be" d="M700 500h100v100H700z"/></svg>