<svg xmlns="http://www.w3.org/2000/svg" viewBox="0 0 800 500"><defs/><path fill="#d8d6d6" d="M0 0h100v100H0z"/><path fill="#e4e2dd" d="M100 0h100v100H100z"/><path fill="#d0d0ce" d="M200 0h100v100H200z"/><path fill="#c2c4c4" d="M300 0h100v100H300z"/><path fill="#c1bfbf" d="M400 0h100v100H400z"/><path fill="#c5c5c5" d="M500 0h100v100H500z"/><path fill="#c7c8c8" d="M600 0h100v100H600z"/><path fill="#c8c9c8" d="M700 0h100v100H700z"/><path fill="#b7aca8" d="M0 100h100v100H0z"/><path fill="#a28f7b" d="M100 100h100v100H100z"/><path fill="#15130e" d="M200 100h100v100H200z"/><path fill="#000001" d="M300 100h100v100H300z"/><path fill="#1b2c2a" d="M400 100h100v100H400z"/><path fill="#0e1718" d="M500 100h100v100H500z"/><path d="M600 100h100v100H600z"/><path fill="#2b3333" d="M700 100h100v100H700z"/><path fill="#827d75" d="M0 200h100v100H0z"/><path fill="#988773" d="M100 200h100v100H100z"/><path d="M200 200h100v100H200z"/><path fill="#070809" d="M300 200h100v100H300z"/><path fill="#283234" d="M400 200h100v100H400z"/><path fill="#24232a" d="M500 200h100v100H500z"/><path fill="#020905" d="M600 200h100v100H600z"/><path fill="#4f5c4e" d="M700 200h100v100H700z"/><path fill="#8d8175" d="M0 300h100v100H0z"/><path fill="#ae8b6f" d="M100 300h100v100H100z"/><path fill="#895235" d="M200 300h100v100H200z"/><path fill="#986647" d="M300 300h100v100H300z"/><path fill="#a89056" d="M400 300h100v100H400z"/><path fill="#9b6345" d="M500 300h100v100H500z"/><path fill="#8a5242" d="M600 300h100v100H600z"/><path fill="#5d4a3b" d="M700 300h100v100H700z"/><path fill="#c2bab1" d="M0 400h100v100H0z"/><path fill="#c6ab9a" d="M100 400h100v100H100z"/><path fill="#cda894" d="M200 400h100v100H200z"/><path fill="#d0af9a" d="M300 400h100v100H300z"/><path fill="#e1cda7" d="M400 400h100v100H400z"/><path fill="#cfb398" d="M500 400h100v100H500z"/><path fill="#cea793" d="M600 400h100v100H600z"/><path fill="#af958a" d="M700 400h100v100H700z"/></svg>