<svg xmlns="http://www.w3.org/2000/svg" viewBox="0 0 800 500"><defs/><path fill="#fff" d="M0 0h100v100H0z"/><path fill="#eeeeef" d="M100 0h100v100H100z"/><path fill="#ececed" d="M200 0h100v100H200z"/><path fill="#f8f8f8" d="M300 0h100v100H300z"/><path fill="#ececed" d="M400 0h100v100H400z"/><path fill="#e8e8e9" d="M500 0h100v100H500z"/><path fill="#f4f4f6" d="M600 0h100v100H600z"/><path fill="#f1f1f2" d="M700 0h100v100H700z"/><path fill="#fcfcfd" d="M0 100h100v100H0z"/><path fill="#bbbbbd" d="M100 100h100v100H100z"/><path fill="#a6a7ab" d="M200 100h100v100H200z"/><path fill="#dadadb" d="M300 100h100v100H300z"/><path fill="#b3b3b5" d="M400 100h100v100H400z"/><path fill="#98999e" d="M500 100h100v100H500z"/><path fill="#cecfd2" d="M600 100h100v100H600z"/><path fill="#ebeaeb" d="M700 100h100v100H700z"/><path fill="#f3f3f4" d="M0 200h100v100H0z"/><path fill="#bcbcbf" d="M100 200h100v100H100z"/><path fill="#c6c7c9" d="M200 200h100v100H200z"/><path fill="#c0c0c3" d="M300 200h100v100H300z"/><path fill="#bababe" d="M400 200h100v100H400z"/><path fill="#9a9a9f" d="M500 200h100v100H500z"/><path fill="#9e9c9f" d="M600 200h100v100H600z"/><path fill="#cdcbca" d="M700 200h100v100H700z"/><path fill="#e0e0e3" d="M0 300h100v100H0z"/><path fill="#c6c6c9" d="M100 300h100v100H100z"/><path fill="#bdbec1" d="M200 300h100v100H200z"/><path fill="#bdbec0" d="M300 300h100v100H300z"/><path fill="#c5c5c8" d="M400 300h100v100H400z"/><path fill="#b0b1b5" d="M500 300h100v100H500z"/><path fill="#949594" d="M600 300h100v100H600z"/><path fill="#716f6b" d="M700 300h100v100H700z"/><path fill="#efeff0" d="M0 400h100v100H0z"/><path fill="#e1e1e3" d="M100 400h100v100H100z"/><path fill="#e3e3e5" d="M200 400h100v100H200z"/><path fill="#f0f0f0" d="M300 400h100v100H300z"/><path fill="#e3e3e4" d="M400 400h100v100H400z"/><path fill="#e4e5e6" d="M500 400h100v100H500z"/><path fill="#cccdcd" d="M600 400h100v100H600z"/><path fill="#b3b3b2" d="M700 400h100v100H700z"/></svg>