<svg xmlns="http://www.w3.org/2000/svg" viewBox="0 0 800 500"><defs/><path fill="#e8e9e7" d="M0 0h100v100H0z"/><path fill="#b09c92" d="M100 0h100v100H100z"/><path fill="#e9e5e4" d="M200 0h100v100H200z"/><path fill="#fff" d="M300 0h100v100H300zm100 0h100v100H400z"/><path fill="#e9eced" d="M500 0h100v100H500z"/><path fill="#7f8385" d="M600 0h100v100H600z"/><path fill="#c3c4c5" d="M700 0h100v100H700z"/><path fill="#a6afa7" d="M0 100h100v100H0z"/><path fill="#8c7465" d="M100 100h100v100H100z"/><path fill="#e9eae9" d="M200 100h100v100H200z"/><path fill="#eff3f1" d="M300 100h100v100H300z"/><path fill="#f4e9e2" d="M400 100h100v100H400z"/><path fill="#d2d1ce" d="M500 100h100v100H500z"/><path fill="#555d5d" d="M600 100h100v100H600z"/><path fill="#a7a9aa" d="M700 100h100v100H700z"/><path fill="#cbc6c0" d="M0 200h100v100H0z"/><path fill="#8e7c71" d="M100 200h100v100H100z"/><path fill="#b1aeab" d="M200 200h100v100H200z"/><path fill="#827472" d="M300 200h100v100H300z"/><path fill="#8c6a69" d="M400 200h100v100H400z"/><path fill="#a06459" d="M500 200h100v100H500z"/><path fill="#696566" d="M600 200h100v100H600z"/><path fill="#b1aaa7" d="M700 200h100v100H700z"/><path fill="#bdafa5" d="M0 300h100v100H0z"/><path fill="#73523f" d="M100 300h100v100H100z"/><path fill="#93705c" d="M200 300h100v100H200z"/><path fill="#704433" d="M300 300h100v100H300z"/><path fill="#79594c" d="M400 300h100v100H400z"/><path fill="#885e4e" d="M500 300h100v100H500z"/><path fill="#755141" d="M600 300h100v100H600z"/><path fill="#656261" d="M700 300h100v100H700z"/><path fill="#b4a79f" d="M0 400h100v100H0z"/><path fill="#a28777" d="M100 400h100v100H100z"/><path fill="#b69987" d="M200 400h100v100H200z"/><path fill="#b19a87" d="M300 400h100v100H300z"/><path fill="#ae9887" d="M400 400h100v100H400z"/><path fill="#b49f8e" d="M500 400h100v100H500z"/><path fill="#9e8070" d="M600 400h100v100H600z"/><path fill="#7a6d68" d="M700 400h100v100H700z"/></svg>