<svg xmlns="http://www.w3.org/2000/svg" viewBox="0 0 800 500"><defs/><path fill="#dbd7db" d="M0 0h100v100H0z"/><path fill="#e4dbd7" d="M100 0h100v100H100z"/><path fill="#e2dce5" d="M200 0h100v100H200z"/><path fill="#e2dee7" d="M300 0h100v100H300z"/><path fill="#e0dbe5" d="M400 0h100v100H400z"/><path fill="#d8d5e3" d="M500 0h100v100H500z"/><path fill="#dad9e6" d="M600 0h100v100H600z"/><path fill="#cdc1c7" d="M700 0h100v100H700z"/><path fill="#d2d4cf" d="M0 100h100v100H0z"/><path fill="#dcd2bc" d="M100 100h100v100H100z"/><path fill="#d6d0dd" d="M200 100h100v100H200z"/><path fill="#dad7de" d="M300 100h100v100H300z"/><path fill="#dcd7e0" d="M400 100h100v100H400z"/><path fill="#d4ccdc" d="M500 100h100v100H500z"/><path fill="#cfcfd9" d="M600 100h100v100H600z"/><path fill="#c6c4d4" d="M700 100h100v100H700z"/><path fill="#d6d0bd" d="M0 200h100v100H0z"/><path fill="#d6d1c8" d="M100 200h100v100H100z"/><path fill="#d2d0de" d="M200 200h100v100H200z"/><path fill="#d8d4e0" d="M300 200h100v100H300z"/><path fill="#d5ceda" d="M400 200h100v100H400z"/><path fill="#cfcddc" d="M500 200h100v100H500z"/><path fill="#cdc8d5" d="M600 200h100v100H600z"/><path fill="#cdc9d7" d="M700 200h100v100H700z"/><path fill="#d6cca6" d="M0 300h100v100H0z"/><path fill="#d5cbc7" d="M100 300h100v100H100z"/><path fill="#d8d0d7" d="M200 300h100v100H200z"/><path fill="#d8c8d0" d="M300 300h100v100H300z"/><path fill="#d8c8d3" d="M400 300h100v100H400z"/><path fill="#d0cad3" d="M500 300h100v100H500z"/><path fill="#d4cfdb" d="M600 300h100v100H600z"/><path fill="#cfc8d5" d="M700 300h100v100H700z"/><path fill="#cfc1ae" d="M0 400h100v100H0z"/><path fill="#d2c5c7" d="M100 400h100v100H100z"/><path fill="#d6cacd" d="M200 400h100v100H200z"/><path fill="#d2c6cc" d="M300 400h100v100H300z"/><path fill="#d4c7cf" d="M400 400h100v100H400z"/><path fill="#d0c5cb" d="M500 400h100v100H500z"/><path fill="#d5cfda" d="M600 400h100v100H600z"/><path fill="#cdc6d4" d="M700 400h100v100H700z"/></svg>