<svg xmlns="http://www.w3.org/2000/svg" viewBox="0 0 800 600"><defs/><path fill="#fcfcfc" d="M0 0h100v100H0z"/><path fill="#f8f8f8" d="M100 0h100v100H100z"/><path fill="#fafaf9" d="M200 0h100v100H200z"/><path fill="#f9f9f9" d="M300 0h100v100H300z"/><path fill="#fefefe" d="M400 0h100v100H400z"/><path fill="#fdfdfd" d="M500 0h100v100H500zm100 0h100v100H600z"/><path fill="#fefefe" d="M700 0h100v100H700z"/><path fill="#f5f5f5" d="M0 100h100v100H0z"/><path fill="#d4d3d4" d="M100 100h100v100H100z"/><path fill="#d1d1d0" d="M200 100h100v100H200z"/><path fill="#f0f0f0" d="M300 100h100v100H300z"/><path fill="#fcfcfc" d="M400 100h100v100H400z"/><path fill="#f7f7f7" d="M500 100h100v100H500z"/><path fill="#f4f3f4" d="M600 100h100v100H600z"/><path fill="#f5f5f5" d="M700 100h100v100H700z"/><path fill="#eee" d="M0 200h100v100H0z"/><path fill="#c3c2c3" d="M100 200h100v100H100z"/><path fill="#e1e1e1" d="M200 200h100v100H200z"/><path fill="#fbfbfa" d="M300 200h100v100H300z"/><path fill="#f8f8f8" d="M400 200h100v100H400z"/><path fill="#f8f8f7" d="M500 200h100v100H500z"/><path fill="#f4f4f4" d="M600 200h100v100H600z"/><path fill="#fafafa" d="M700 200h100v100H700z"/><path fill="#d2d1d2" d="M0 300h100v100H0z"/><path fill="#bbb9ba" d="M100 300h100v100H100z"/><path fill="#e7e7e7" d="M200 300h100v100H200z"/><path fill="#efefee" d="M300 300h100v100H300z"/><path fill="#dedddd" d="M400 300h100v100H400z"/><path fill="#dfdfde" d="M500 300h100v100H500z"/><path fill="#efefef" d="M600 300h100v100H600z"/><path fill="#f7f7f7" d="M700 300h100v100H700z"/><path fill="#d3d2d2" d="M0 400h100v100H0z"/><path fill="#dbdadb" d="M100 400h100v100H100z"/><path fill="#e4e4e4" d="M200 400h100v100H200z"/><path fill="#e5e5e5" d="M300 400h100v100H300z"/><path fill="#f1f1f1" d="M400 400h100v100H400z"/><path fill="#ededed" d="M500 400h100v100H500z"/><path fill="#e6e5e5" d="M600 400h100v100H600z"/><path fill="#f4f4f4" d="M700 400h100v100H700z"/><path fill="#f6f6f6" d="M0 500h100v100H0z"/><path fill="#f8f7f8" d="M100 500h100v100H100z"/><path fill="#f4f4f4" d="M200 500h100v100H200z"/><path fill="#fafafa" d="M300 500h100v100H300z"/><path fill="#f9f9fa" d="M400 500h100v100H400z"/><path fill="#f6f6f6" d="M500 500h100v100H500z"/><path fill="#f0efef" d="M600 500h100v100H600z"/><path fill="#f5f5f5" d="M700 500h100v100H700z"/></svg>