<svg xmlns="http://www.w3.org/2000/svg" viewBox="0 0 800 500"><defs/><path fill="#b7bbc3" d="M0 0h100v100H0z"/><path fill="#b4bac3" d="M100 0h100v100H100z"/><path fill="#c6ced7" d="M200 0h100v100H200z"/><path fill="#c3c8d2" d="M300 0h100v100H300z"/><path fill="#b2b6c0" d="M400 0h100v100H400z"/><path fill="#b4b7bf" d="M500 0h100v100H500z"/><path fill="#c5c6cc" d="M600 0h100v100H600z"/><path fill="#c2c4c9" d="M700 0h100v100H700z"/><path fill="#adb1b9" d="M0 100h100v100H0z"/><path fill="#a1a6b0" d="M100 100h100v100H100z"/><path fill="#bdc4cf" d="M200 100h100v100H200z"/><path fill="#c6cdd8" d="M300 100h100v100H300z"/><path fill="#aeb4c0" d="M400 100h100v100H400z"/><path fill="#abafba" d="M500 100h100v100H500z"/><path fill="#b9bdc7" d="M600 100h100v100H600z"/><path fill="#bfc1c9" d="M700 100h100v100H700z"/><path fill="#abafb7" d="M0 200h100v100H0z"/><path fill="#a4abb4" d="M100 200h100v100H100z"/><path fill="#a5adb6" d="M200 200h100v100H200z"/><path fill="#b5bdc7" d="M300 200h100v100H300z"/><path fill="#b5bac5" d="M400 200h100v100H400z"/><path fill="#babeca" d="M500 200h100v100H500z"/><path fill="#afb4be" d="M600 200h100v100H600z"/><path fill="#c0c2ca" d="M700 200h100v100H700z"/><path fill="#aaadb4" d="M0 300h100v100H0z"/><path fill="#959ba4" d="M100 300h100v100H100z"/><path fill="#979da6" d="M200 300h100v100H200z"/><path fill="#b5bdc6" d="M300 300h100v100H300z"/><path fill="#b3b9c4" d="M400 300h100v100H400z"/><path fill="#c3c7d2" d="M500 300h100v100H500z"/><path fill="#b9bdc8" d="M600 300h100v100H600z"/><path fill="#bcbfc6" d="M700 300h100v100H700z"/><path fill="#abadb3" d="M0 400h100v100H0z"/><path fill="#adb2bb" d="M100 400h100v100H100z"/><path fill="#b8bdc6" d="M200 400h100v100H200z"/><path fill="#c1c9d0" d="M300 400h100v100H300z"/><path fill="#bfc4ce" d="M400 400h100v100H400z"/><path fill="#c5cad3" d="M500 400h100v100H500z"/><path fill="#c9ced7" d="M600 400h100v100H600z"/><path fill="#cfd2db" d="M700 400h100v100H700z"/></svg>