<svg xmlns="http://www.w3.org/2000/svg" viewBox="0 0 800 1100"><defs/><path fill="#844409" d="M0 0h100v100H0z"/><path fill="#98765a" d="M100 0h100v100H100z"/><path fill="#af7641" d="M200 0h100v100H200z"/><path fill="#ac6215" d="M300 0h100v100H300z"/><path fill="#b88554" d="M400 0h100v100H400z"/><path fill="#614d3b" d="M500 0h100v100H500z"/><path fill="#7b6855" d="M600 0h100v100H600z"/><path fill="#c8a989" d="M700 0h100v100H700z"/><path fill="#743c09" d="M0 100h100v100H0z"/><path fill="#b79476" d="M100 100h100v100H100z"/><path fill="#c38b53" d="M200 100h100v100H200z"/><path fill="#925b26" d="M300 100h100v100H300z"/><path fill="#5d3d30" d="M400 100h100v100H400z"/><path fill="#917864" d="M500 100h100v100H500z"/><path fill="#c2a585" d="M600 100h100v100H600z"/><path fill="#c5b098" d="M700 100h100v100H700z"/><path fill="#7d4a1d" d="M0 200h100v100H0z"/><path fill="#89715c" d="M100 200h100v100H100z"/><path fill="#413930" d="M200 200h100v100H200z"/><path fill="#5e3a2e" d="M300 200h100v100H300z"/><path fill="#5d3c34" d="M400 200h100v100H400z"/><path fill="#4c413a" d="M500 200h100v100H500z"/><path fill="#8c7764" d="M600 200h100v100H600z"/><path fill="#b09982" d="M700 200h100v100H700z"/><path fill="#59391c" d="M0 300h100v100H0z"/><path fill="#43362d" d="M100 300h100v100H100z"/><path fill="#503830" d="M200 300h100v100H200z"/><path fill="#4a3d38" d="M300 300h100v100H300z"/><path fill="#574e42" d="M400 300h100v100H400z"/><path fill="#433323" d="M500 300h100v100H500z"/><path fill="#302118" d="M600 300h100v100H600z"/><path fill="#4a3c33" d="M700 300h100v100H700z"/><path fill="#a08567" d="M0 400h100v100H0z"/><path fill="#604d3e" d="M100 400h100v100H100z"/><path fill="#52392e" d="M200 400h100v100H200z"/><path fill="#484141" d="M300 400h100v100H300z"/><path fill="#5f4230" d="M400 400h100v100H400z"/><path fill="#8e7051" d="M500 400h100v100H500z"/><path fill="#35261b" d="M600 400h100v100H600z"/><path fill="#34231d" d="M700 400h100v100H700z"/><path fill="#c4a687" d="M0 500h100v100H0z"/><path fill="#3a322b" d="M100 500h100v100H100z"/><path fill="#211e21" d="M200 500h100v100H200z"/><path fill="#5f4e5c" d="M300 500h100v100H300z"/><path fill="#8f7876" d="M400 500h100v100H400z"/><path fill="#827269" d="M500 500h100v100H500z"/><path fill="#261d16" d="M600 500h100v100H600z"/><path fill="#47352c" d="M700 500h100v100H700z"/><path fill="#927155" d="M0 600h100v100H0z"/><path fill="#281e16" d="M100 600h100v100H100z"/><path fill="#312524" d="M200 600h100v100H200z"/><path fill="#816055" d="M300 600h100v100H300z"/><path fill="#bbaba8" d="M400 600h100v100H400z"/><path fill="#cac3bb" d="M500 600h100v100H500z"/><path fill="#9b968a" d="M600 600h100v100H600z"/><path fill="#5d554a" d="M700 600h100v100H700z"/><path fill="#5a4636" d="M0 700h100v100H0z"/><path fill="#52371f" d="M100 700h100v100H100z"/><path fill="#6d533c" d="M200 700h100v100H200z"/><path fill="#a78d7b" d="M300 700h100v100H300z"/><path fill="#c6bcb4" d="M400 700h100v100H400z"/><path fill="#dacdc1" d="M500 700h100v100H500z"/><path fill="#ded4c7" d="M600 700h100v100H600z"/><path fill="#b6ad9e" d="M700 700h100v100H700z"/><path fill="#a47e55" d="M0 800h100v100H0z"/><path fill="#946b3b" d="M100 800h100v100H100z"/><path fill="#67402a" d="M200 800h100v100H200z"/><path fill="#c7805c" d="M300 800h100v100H300z"/><path fill="#d6b090" d="M400 800h100v100H400z"/><path fill="#f9eedb" d="M500 800h100v100H500z"/><path fill="#fdfbfa" d="M600 800h100v100H600z"/><path fill="#f1ede8" d="M700 800h100v100H700z"/><path fill="#b38142" d="M0 900h100v100H0z"/><path fill="#a57641" d="M100 900h100v100H100z"/><path fill="#452819" d="M200 900h100v100H200z"/><path fill="#894a2f" d="M300 900h100v100H300z"/><path fill="#c16e4a" d="M400 900h100v100H400z"/><path fill="#c88a5b" d="M500 900h100v100H500z"/><path fill="#dfc5a7" d="M600 900h100v100H600z"/><path fill="#dad1c7" d="M700 900h100v100H700z"/><path fill="#764e31" d="M0 1000h100v100H0z"/><path fill="#7d583b" d="M100 1000h100v100H100z"/><path fill="#775c41" d="M200 1000h100v100H200z"/><path fill="#4c3323" d="M300 1000h100v100H300z"/><path fill="#60341f" d="M400 1000h100v100H400z"/><path fill="#603c29" d="M500 1000h100v100H500z"/><path fill="#a1825c" d="M600 1000h100v100H600z"/><path fill="#e4d39b" d="M700 1000h100v100H700z"/></svg>