<svg xmlns="http://www.w3.org/2000/svg" viewBox="0 0 800 500"><defs/><path fill="#dad4bc" d="M0 0h100v100H0z"/><path fill="#ba9861" d="M100 0h100v100H100z"/><path fill="#b09d76" d="M200 0h100v100H200z"/><path fill="#b2af89" d="M300 0h100v100H300z"/><path fill="#76875a" d="M400 0h100v100H400z"/><path fill="#8f936e" d="M500 0h100v100H500z"/><path fill="#c3c19e" d="M600 0h100v100H600z"/><path fill="#8ea476" d="M700 0h100v100H700z"/><path fill="#c3b798" d="M0 100h100v100H0z"/><path fill="#ad7f3f" d="M100 100h100v100H100z"/><path fill="#a39e6c" d="M200 100h100v100H200z"/><path fill="#6c7856" d="M300 100h100v100H300z"/><path fill="#526d65" d="M400 100h100v100H400z"/><path fill="#637b5b" d="M500 100h100v100H500z"/><path fill="#9a9568" d="M600 100h100v100H600z"/><path fill="#83945d" d="M700 100h100v100H700z"/><path fill="#988a67" d="M0 200h100v100H0z"/><path fill="#b78b4e" d="M100 200h100v100H100z"/><path fill="#959153" d="M200 200h100v100H200z"/><path fill="#8f8757" d="M300 200h100v100H300z"/><path fill="#92855f" d="M400 200h100v100H400z"/><path fill="#867855" d="M500 200h100v100H500z"/><path fill="#ab9868" d="M600 200h100v100H600z"/><path fill="#be9e60" d="M700 200h100v100H700z"/><path fill="#a78d64" d="M0 300h100v100H0z"/><path fill="#9e773f" d="M100 300h100v100H100z"/><path fill="#858045" d="M200 300h100v100H200z"/><path fill="#969266" d="M300 300h100v100H300z"/><path fill="#959d67" d="M400 300h100v100H400z"/><path fill="#89865e" d="M500 300h100v100H500z"/><path fill="#a29760" d="M600 300h100v100H600z"/><path fill="#b09a5c" d="M700 300h100v100H700z"/><path fill="#948c59" d="M0 400h100v100H0z"/><path fill="#947036" d="M100 400h100v100H100z"/><path fill="#a77444" d="M200 400h100v100H200z"/><path fill="#a1724c" d="M300 400h100v100H300z"/><path fill="#818766" d="M400 400h100v100H400z"/><path fill="#8e946a" d="M500 400h100v100H500z"/><path fill="#a09061" d="M600 400h100v100H600z"/><path fill="#a08e52" d="M700 400h100v100H700z"/></svg>