<svg xmlns="http://www.w3.org/2000/svg" viewBox="0 0 800 600"><defs/><path fill="#8f8f8f" d="M0 0h100v100H0z"/><path fill="#a4a4a5" d="M100 0h100v100H100z"/><path fill="#939394" d="M200 0h100v100H200z"/><path fill="#999" d="M300 0h100v100H300z"/><path fill="#9c9c9c" d="M400 0h100v100H400z"/><path fill="#9a9a9a" d="M500 0h100v100H500z"/><path fill="#999899" d="M600 0h100v100H600z"/><path fill="#9d9d9e" d="M700 0h100v100H700z"/><path fill="#b4b3b8" d="M0 100h100v100H0z"/><path fill="#d7d7d8" d="M100 100h100v100H100z"/><path fill="#929294" d="M200 100h100v100H200z"/><path fill="#989899" d="M300 100h100v100H300z"/><path fill="#949495" d="M400 100h100v100H400z"/><path fill="#9d9d9d" d="M500 100h100v100H500z"/><path fill="#838383" d="M600 100h100v100H600z"/><path fill="#808081" d="M700 100h100v100H700z"/><path fill="#d1d1d4" d="M0 200h100v100H0z"/><path fill="#b5b6ba" d="M100 200h100v100H100z"/><path fill="#9c9ca1" d="M200 200h100v100H200z"/><path fill="#a6a6aa" d="M300 200h100v100H300z"/><path fill="#aaaaac" d="M400 200h100v100H400z"/><path fill="#9e9d9f" d="M500 200h100v100H500z"/><path fill="#9c9b9c" d="M600 200h100v100H600z"/><path fill="#6e6e6f" d="M700 200h100v100H700z"/><path fill="#c5c5c8" d="M0 300h100v100H0z"/><path fill="#c0c0c3" d="M100 300h100v100H100z"/><path fill="#acacb2" d="M200 300h100v100H200z"/><path fill="#a1a1a8" d="M300 300h100v100H300z"/><path fill="#e2e2e2" d="M400 300h100v100H400z"/><path fill="#ccc" d="M500 300h100v100H500z"/><path fill="#ababaa" d="M600 300h100v100H600z"/><path fill="#8e8d8f" d="M700 300h100v100H700z"/><path fill="#a09fa5" d="M0 400h100v100H0z"/><path fill="#e0e0e1" d="M100 400h100v100H100z"/><path fill="#94939b" d="M200 400h100v100H200z"/><path fill="#adadb2" d="M300 400h100v100H300z"/><path fill="#d4d3d4" d="M400 400h100v100H400z"/><path fill="#b9b9b9" d="M500 400h100v100H500z"/><path fill="#a1a1a1" d="M600 400h100v100H600z"/><path fill="#8e8e8f" d="M700 400h100v100H700z"/><path fill="#909096" d="M0 500h100v100H0z"/><path fill="#cacacd" d="M100 500h100v100H100z"/><path fill="#c6c5c9" d="M200 500h100v100H200z"/><path fill="#dcdcde" d="M300 500h100v100H300z"/><path fill="#bbbbbd" d="M400 500h100v100H400z"/><path fill="#868687" d="M500 500h100v100H500z"/><path fill="#848488" d="M600 500h100v100H600z"/><path fill="#9c9c9c" d="M700 500h100v100H700z"/></svg>