<svg xmlns="http://www.w3.org/2000/svg" viewBox="0 0 800 500"><defs/><path fill="#e4a62a" d="M0 0h100v100H0z"/><path fill="#f3ad14" d="M100 0h100v100H100z"/><path fill="#f0ab1e" d="M200 0h100v100H200z"/><path fill="#b27b63" d="M300 0h100v100H300z"/><path fill="#845da1" d="M400 0h100v100H400z"/><path fill="#a684ad" d="M500 0h100v100H500z"/><path fill="#cca3a3" d="M600 0h100v100H600z"/><path fill="#d7c8bd" d="M700 0h100v100H700z"/><path fill="#c79736" d="M0 100h100v100H0z"/><path fill="#c39b24" d="M100 100h100v100H100z"/><path fill="#d19e29" d="M200 100h100v100H200z"/><path fill="#c5a971" d="M300 100h100v100H300z"/><path fill="#a6a0a0" d="M400 100h100v100H400z"/><path fill="#b1acbd" d="M500 100h100v100H500z"/><path fill="#b498ae" d="M600 100h100v100H600z"/><path fill="#bd8f6d" d="M700 100h100v100H700z"/><path fill="#c39835" d="M0 200h100v100H0z"/><path fill="#ad9130" d="M100 200h100v100H100z"/><path fill="#b89431" d="M200 200h100v100H200z"/><path fill="#767186" d="M300 200h100v100H300z"/><path fill="#887b85" d="M400 200h100v100H400z"/><path fill="#a58e96" d="M500 200h100v100H500z"/><path fill="#a4b7d2" d="M600 200h100v100H600z"/><path fill="#a69489" d="M700 200h100v100H700z"/><path fill="#b5834e" d="M0 300h100v100H0z"/><path fill="#d7a51d" d="M100 300h100v100H100z"/><path fill="#bc963c" d="M200 300h100v100H200z"/><path fill="#7d575d" d="M300 300h100v100H300z"/><path fill="#73454d" d="M400 300h100v100H400z"/><path fill="#ad8b75" d="M500 300h100v100H500z"/><path fill="#c4d6dc" d="M600 300h100v100H600z"/><path fill="#af9482" d="M700 300h100v100H700z"/><path fill="#8559a1" d="M0 400h100v100H0z"/><path fill="#a17181" d="M100 400h100v100H100z"/><path fill="#905f94" d="M200 400h100v100H200z"/><path fill="#ab607d" d="M300 400h100v100H300z"/><path fill="#c67d4c" d="M400 400h100v100H400z"/><path fill="#b58f54" d="M500 400h100v100H500z"/><path fill="#c6ab51" d="M600 400h100v100H600z"/><path fill="#ae8656" d="M700 400h100v100H700z"/></svg>