<svg xmlns="http://www.w3.org/2000/svg" viewBox="0 0 800 900"><defs/><path fill="#4b6278" d="M0 0h100v100H0z"/><path fill="#677588" d="M100 0h100v100H100z"/><path fill="#908d8c" d="M200 0h100v100H200z"/><path fill="#979695" d="M300 0h100v100H300z"/><path fill="#787d83" d="M400 0h100v100H400z"/><path fill="#5c6d7e" d="M500 0h100v100H500z"/><path fill="#4d677f" d="M600 0h100v100H600z"/><path fill="#3e5f76" d="M700 0h100v100H700z"/><path fill="#5b6876" d="M0 100h100v100H0z"/><path fill="#89898d" d="M100 100h100v100H100z"/><path fill="#7e7d7f" d="M200 100h100v100H200z"/><path fill="#71716d" d="M300 100h100v100H300z"/><path fill="#667382" d="M400 100h100v100H400z"/><path fill="#47617b" d="M500 100h100v100H500z"/><path fill="#49647b" d="M600 100h100v100H600z"/><path fill="#4b5d66" d="M700 100h100v100H700z"/><path fill="#677a8e" d="M0 200h100v100H0z"/><path fill="#808792" d="M100 200h100v100H100z"/><path fill="#6a6a69" d="M200 200h100v100H200z"/><path fill="#75736e" d="M300 200h100v100H300z"/><path fill="#909598" d="M400 200h100v100H400z"/><path fill="#858f94" d="M500 200h100v100H500z"/><path fill="#656d71" d="M600 200h100v100H600z"/><path fill="#4a5c69" d="M700 200h100v100H700z"/><path fill="#576777" d="M0 300h100v100H0z"/><path fill="#6e7780" d="M100 300h100v100H100z"/><path fill="#464846" d="M200 300h100v100H200z"/><path fill="#494846" d="M300 300h100v100H300z"/><path fill="#797979" d="M400 300h100v100H400z"/><path fill="#6b6a65" d="M500 300h100v100H500z"/><path fill="#433e35" d="M600 300h100v100H600z"/><path fill="#282318" d="M700 300h100v100H700z"/><path fill="#909492" d="M0 400h100v100H0z"/><path fill="#a2a49f" d="M100 400h100v100H100z"/><path fill="#909089" d="M200 400h100v100H200z"/><path fill="#918d83" d="M300 400h100v100H300z"/><path fill="#9f998e" d="M400 400h100v100H400z"/><path fill="#8f8a7e" d="M500 400h100v100H500z"/><path fill="#8a8478" d="M600 400h100v100H600z"/><path fill="#787467" d="M700 400h100v100H700z"/><path fill="#d9d6cc" d="M0 500h100v100H0z"/><path fill="#c9c3ba" d="M100 500h100v100H100z"/><path fill="#cec9be" d="M200 500h100v100H200z"/><path fill="#cdc8be" d="M300 500h100v100H300z"/><path fill="#ccc4bc" d="M400 500h100v100H400z"/><path fill="#ccc7be" d="M500 500h100v100H500z"/><path fill="#dad6c9" d="M600 500h100v100H600z"/><path fill="#e7e2d4" d="M700 500h100v100H700z"/><path fill="#d6d1c1" d="M0 600h100v100H0z"/><path fill="#cbc6bc" d="M100 600h100v100H100z"/><path fill="#c7c2b7" d="M200 600h100v100H200z"/><path fill="#cecbbd" d="M300 600h100v100H300z"/><path fill="#ccc7bc" d="M400 600h100v100H400z"/><path fill="#cbc6ba" d="M500 600h100v100H500z"/><path fill="#cdc8ba" d="M600 600h100v100H600z"/><path fill="#d3d0c1" d="M700 600h100v100H700z"/><path fill="#c7c9bd" d="M0 700h100v100H0z"/><path fill="#c5bfb3" d="M100 700h100v100H100z"/><path fill="#c6bfb6" d="M200 700h100v100H200z"/><path fill="#cac3ba" d="M300 700h100v100H300z"/><path fill="#c7c0ba" d="M400 700h100v100H400z"/><path fill="#c7bfb7" d="M500 700h100v100H500z"/><path fill="#c8c2b8" d="M600 700h100v100H600z"/><path fill="#d0d0c4" d="M700 700h100v100H700z"/><path fill="#c0c6be" d="M0 800h100v100H0z"/><path fill="#c3c1b9" d="M100 800h100v100H100z"/><path fill="#cac5bc" d="M200 800h100v100H200z"/><path fill="#cbc4bc" d="M300 800h100v100H300z"/><path fill="#ccc6bf" d="M400 800h100v100H400z"/><path fill="#cdc8bf" d="M500 800h100v100H500z"/><path fill="#cdcac3" d="M600 800h100v100H600z"/><path fill="#cfd2c9" d="M700 800h100v100H700z"/></svg>