<svg xmlns="http://www.w3.org/2000/svg" viewBox="0 0 800 400"><defs/><path fill="#695836" d="M0 0h100v100H0z"/><path fill="#845f44" d="M100 0h100v100H100z"/><path fill="#5d6042" d="M200 0h100v100H200z"/><path fill="#4a5d3f" d="M300 0h100v100H300z"/><path fill="#40584b" d="M400 0h100v100H400z"/><path fill="#51574f" d="M500 0h100v100H500z"/><path fill="#726662" d="M600 0h100v100H600z"/><path fill="#83828a" d="M700 0h100v100H700z"/><path fill="#483e22" d="M0 100h100v100H0z"/><path fill="#917958" d="M100 100h100v100H100z"/><path fill="#5a7b7c" d="M200 100h100v100H200z"/><path fill="#4a6274" d="M300 100h100v100H300z"/><path fill="#5a788c" d="M400 100h100v100H400z"/><path fill="#436e81" d="M500 100h100v100H500z"/><path fill="#4e6e7e" d="M600 100h100v100H600z"/><path fill="#7e919f" d="M700 100h100v100H700z"/><path fill="#5b4126" d="M0 200h100v100H0z"/><path fill="#9a764f" d="M100 200h100v100H100z"/><path fill="#74746e" d="M200 200h100v100H200z"/><path fill="#7e7f85" d="M300 200h100v100H300z"/><path fill="#717180" d="M400 200h100v100H400z"/><path fill="#948a82" d="M500 200h100v100H500z"/><path fill="#6f686a" d="M600 200h100v100H600z"/><path fill="#838d92" d="M700 200h100v100H700z"/><path fill="#664226" d="M0 300h100v100H0z"/><path fill="#856c4a" d="M100 300h100v100H100z"/><path fill="#756142" d="M200 300h100v100H200z"/><path fill="#705b48" d="M300 300h100v100H300z"/><path fill="#786c66" d="M400 300h100v100H400z"/><path fill="#897c79" d="M500 300h100v100H500z"/><path fill="#776356" d="M600 300h100v100H600z"/><path fill="#847264" d="M700 300h100v100H700z"/></svg>