<svg xmlns="http://www.w3.org/2000/svg" viewBox="0 0 800 500"><defs/><path fill="#5f514e" d="M0 0h100v100H0z"/><path fill="#6f675b" d="M100 0h100v100H100z"/><path fill="#56524b" d="M200 0h100v100H200z"/><path fill="#565451" d="M300 0h100v100H300z"/><path fill="#515153" d="M400 0h100v100H400z"/><path fill="#49494f" d="M500 0h100v100H500z"/><path fill="#4c4d54" d="M600 0h100v100H600z"/><path fill="#7e898a" d="M700 0h100v100H700z"/><path fill="#60504b" d="M0 100h100v100H0z"/><path fill="#85795f" d="M100 100h100v100H100z"/><path fill="#635c50" d="M200 100h100v100H200z"/><path fill="#5a5854" d="M300 100h100v100H300z"/><path fill="#555351" d="M400 100h100v100H400z"/><path fill="#56544c" d="M500 100h100v100H500z"/><path fill="#484546" d="M600 100h100v100H600z"/><path fill="#8d9c9e" d="M700 100h100v100H700z"/><path fill="#766965" d="M0 200h100v100H0z"/><path fill="#b8a982" d="M100 200h100v100H100z"/><path fill="#676556" d="M200 200h100v100H200z"/><path fill="#5a5a55" d="M300 200h100v100H300z"/><path fill="#4d5552" d="M400 200h100v100H400z"/><path fill="#83774f" d="M500 200h100v100H500z"/><path fill="#5f5e59" d="M600 200h100v100H600z"/><path fill="#889596" d="M700 200h100v100H700z"/><path fill="#a5a499" d="M0 300h100v100H0z"/><path fill="#8c7a5a" d="M100 300h100v100H100z"/><path fill="#3b322a" d="M200 300h100v100H200z"/><path fill="#615950" d="M300 300h100v100H300z"/><path fill="#68645b" d="M400 300h100v100H400z"/><path fill="#827255" d="M500 300h100v100H500z"/><path fill="#787873" d="M600 300h100v100H600z"/><path fill="#7b8486" d="M700 300h100v100H700z"/><path fill="#6b6357" d="M0 400h100v100H0z"/><path fill="#5e4c3b" d="M100 400h100v100H100z"/><path fill="#44342c" d="M200 400h100v100H200z"/><path fill="#3f312a" d="M300 400h100v100H300z"/><path fill="#625048" d="M400 400h100v100H400z"/><path fill="#655245" d="M500 400h100v100H500z"/><path fill="#423731" d="M600 400h100v100H600z"/><path fill="#504a47" d="M700 400h100v100H700z"/></svg>