<svg xmlns="http://www.w3.org/2000/svg" viewBox="0 0 800 400"><defs/><path fill="#989194" d="M0 0h100v100H0z"/><path fill="#83756c" d="M100 0h100v100H100z"/><path fill="#9b9190" d="M200 0h100v100H200z"/><path fill="#817c7d" d="M300 0h100v100H300z"/><path fill="#92867c" d="M400 0h100v100H400z"/><path fill="#7d746c" d="M500 0h100v100H500z"/><path fill="#4c4a4b" d="M600 0h100v100H600z"/><path fill="#898384" d="M700 0h100v100H700z"/><path fill="#827673" d="M0 100h100v100H0z"/><path fill="#695b5a" d="M100 100h100v100H100z"/><path fill="#352e29" d="M200 100h100v100H200z"/><path fill="#4e453f" d="M300 100h100v100H300z"/><path fill="#635855" d="M400 100h100v100H400z"/><path fill="#756a61" d="M500 100h100v100H500z"/><path fill="#423e3d" d="M600 100h100v100H600z"/><path fill="#7b6e6b" d="M700 100h100v100H700z"/><path fill="#817470" d="M0 200h100v100H0z"/><path fill="#7d6f6e" d="M100 200h100v100H100z"/><path fill="#958882" d="M200 200h100v100H200z"/><path fill="#827670" d="M300 200h100v100H300z"/><path fill="#968985" d="M400 200h100v100H400z"/><path fill="#968c8f" d="M500 200h100v100H500z"/><path fill="#b7a79f" d="M600 200h100v100H600z"/><path fill="#7f7271" d="M700 200h100v100H700z"/><path fill="#76675f" d="M0 300h100v100H0z"/><path fill="#5c4f41" d="M100 300h100v100H100z"/><path fill="#53564e" d="M200 300h100v100H200z"/><path fill="#5e5b58" d="M300 300h100v100H300z"/><path fill="#6a6663" d="M400 300h100v100H400z"/><path fill="#524f53" d="M500 300h100v100H500z"/><path fill="#565354" d="M600 300h100v100H600z"/><path fill="#544d48" d="M700 300h100v100H700z"/></svg>