<svg xmlns="http://www.w3.org/2000/svg" viewBox="0 0 800 600"><defs/><path fill="#c4c2b1" d="M0 0h100v100H0z"/><path fill="#cac6ba" d="M100 0h100v100H100z"/><path fill="#cfcac1" d="M200 0h100v100H200z"/><path fill="#d3cec8" d="M300 0h100v100H300z"/><path fill="#d5cec9" d="M400 0h100v100H400z"/><path fill="#d4cdc8" d="M500 0h100v100H500z"/><path fill="#d4cfcd" d="M600 0h100v100H600z"/><path fill="#cbc8cb" d="M700 0h100v100H700z"/><path fill="#827157" d="M0 100h100v100H0z"/><path fill="#785d54" d="M100 100h100v100H100z"/><path fill="#899697" d="M200 100h100v100H200z"/><path fill="#9eac9d" d="M300 100h100v100H300z"/><path fill="#afbaaa" d="M400 100h100v100H400z"/><path fill="#afb3a8" d="M500 100h100v100H500z"/><path fill="#909e93" d="M600 100h100v100H600z"/><path fill="#96a393" d="M700 100h100v100H700z"/><path fill="#5c3e19" d="M0 200h100v100H0z"/><path fill="#653835" d="M100 200h100v100H100z"/><path fill="#909b84" d="M200 200h100v100H200z"/><path fill="#8d8d69" d="M300 200h100v100H300z"/><path fill="#9c7e62" d="M400 200h100v100H400z"/><path fill="#909c82" d="M500 200h100v100H500z"/><path fill="#828b79" d="M600 200h100v100H600z"/><path fill="#838c82" d="M700 200h100v100H700z"/><path fill="#32261b" d="M0 300h100v100H0z"/><path fill="#655051" d="M100 300h100v100H100z"/><path fill="#8f9b83" d="M200 300h100v100H200z"/><path fill="#8b6845" d="M300 300h100v100H300z"/><path fill="#7d5339" d="M400 300h100v100H400z"/><path fill="#798268" d="M500 300h100v100H500z"/><path fill="#969083" d="M600 300h100v100H600z"/><path fill="#838585" d="M700 300h100v100H700z"/><path fill="#423313" d="M0 400h100v100H0z"/><path fill="#4b3f2f" d="M100 400h100v100H100z"/><path fill="#71725b" d="M200 400h100v100H200z"/><path fill="#787964" d="M300 400h100v100H300z"/><path fill="#687165" d="M400 400h100v100H400z"/><path fill="#817156" d="M500 400h100v100H500z"/><path fill="#88502a" d="M600 400h100v100H600z"/><path fill="#716862" d="M700 400h100v100H700z"/><path fill="#968d6e" d="M0 500h100v100H0z"/><path fill="#989384" d="M100 500h100v100H100z"/><path fill="#8f8b83" d="M200 500h100v100H200z"/><path fill="#646463" d="M300 500h100v100H300z"/><path fill="#61666d" d="M400 500h100v100H400z"/><path fill="#676770" d="M500 500h100v100H500z"/><path fill="#5a5667" d="M600 500h100v100H600z"/><path fill="#454e64" d="M700 500h100v100H700z"/></svg>