<svg xmlns="http://www.w3.org/2000/svg" viewBox="0 0 800 400"><defs/><path fill="#d5c4c2" d="M0 0h100v100H0z"/><path fill="#cfbebe" d="M100 0h100v100H100z"/><path fill="#e3d5d0" d="M200 0h100v100H200z"/><path fill="#dfd0cb" d="M300 0h100v100H300z"/><path fill="#dccdc9" d="M400 0h100v100H400z"/><path fill="#cab8b8" d="M500 0h100v100H500z"/><path fill="#cbbab9" d="M600 0h100v100H600z"/><path fill="#d3c0bd" d="M700 0h100v100H700z"/><path fill="#d7c8c5" d="M0 100h100v100H0z"/><path fill="#d5c5c3" d="M100 100h100v100H100z"/><path fill="#d1c2c1" d="M200 100h100v100H200z"/><path fill="#d4c5c4" d="M300 100h100v100H300z"/><path fill="#d2c3c2" d="M400 100h100v100H400z"/><path fill="#bcaaad" d="M500 100h100v100H500z"/><path fill="#c2b1b2" d="M600 100h100v100H600z"/><path fill="#c1aeb0" d="M700 100h100v100H700z"/><path fill="#d1c0bf" d="M0 200h100v100H0z"/><path fill="#c7b4b5" d="M100 200h100v100H100z"/><path fill="#bda9ad" d="M200 200h100v100H200z"/><path fill="#c0a7ad" d="M300 200h100v100H300z"/><path fill="#c6b7b9" d="M400 200h100v100H400z"/><path fill="#bdacb1" d="M500 200h100v100H500z"/><path fill="#b1a0a6" d="M600 200h100v100H600z"/><path fill="#baa6aa" d="M700 200h100v100H700z"/><path fill="#c0adaf" d="M0 300h100v100H0z"/><path fill="#bfaaac" d="M100 300h100v100H100z"/><path fill="#ba9ca3" d="M200 300h100v100H200z"/><path fill="#a78997" d="M300 300h100v100H300z"/><path fill="#c3b3b5" d="M400 300h100v100H400z"/><path fill="#bba8ac" d="M500 300h100v100H500z"/><path fill="#ae9ba1" d="M600 300h100v100H600z"/><path fill="#af9aa0" d="M700 300h100v100H700z"/></svg>