<svg xmlns="http://www.w3.org/2000/svg" viewBox="0 0 800 600"><defs/><path fill="#fcfcfd" d="M0 0h100v100H0z"/><path fill="#f6f5f6" d="M100 0h100v100H100z"/><path fill="#f6f7f7" d="M200 0h100v100H200zm100 0h100v100H300z"/><path fill="#f4f5f6" d="M400 0h100v100H400z"/><path fill="#eaebec" d="M500 0h100v100H500z"/><path fill="#eeeff1" d="M600 0h100v100H600z"/><path fill="#f5f6f8" d="M700 0h100v100H700z"/><path fill="#ededee" d="M0 100h100v100H0zm100 0h100v100H100z"/><path fill="#ececec" d="M200 100h100v100H200z"/><path fill="#f4f4f4" d="M300 100h100v100H300z"/><path fill="#efeff0" d="M400 100h100v100H400z"/><path fill="#d8d9da" d="M500 100h100v100H500z"/><path fill="#e0e0e2" d="M600 100h100v100H600z"/><path fill="#eeefef" d="M700 100h100v100H700z"/><path fill="#e5e5e6" d="M0 200h100v100H0z"/><path fill="#ededee" d="M100 200h100v100H100z"/><path fill="#e8e8e9" d="M200 200h100v100H200z"/><path fill="#e5e6e7" d="M300 200h100v100H300z"/><path fill="#e5e5e5" d="M400 200h100v100H400z"/><path fill="#e7e7e8" d="M500 200h100v100H500z"/><path fill="#dfdfe0" d="M600 200h100v100H600z"/><path fill="#edeeee" d="M700 200h100v100H700z"/><path fill="#fafafb" d="M0 300h100v100H0z"/><path fill="#f1f1f2" d="M100 300h100v100H100z"/><path fill="#eaeaea" d="M200 300h100v100H200z"/><path fill="#e7e8e8" d="M300 300h100v100H300z"/><path fill="#ebecec" d="M400 300h100v100H400z"/><path fill="#edeeee" d="M500 300h100v100H500z"/><path fill="#e9ebeb" d="M600 300h100v100H600z"/><path fill="#eff0f1" d="M700 300h100v100H700z"/><path fill="#f4f4f5" d="M0 400h100v100H0z"/><path fill="#f8f8f8" d="M100 400h100v100H100z"/><path fill="#eaebeb" d="M200 400h100v100H200z"/><path fill="#f1f1f2" d="M300 400h100v100H300z"/><path fill="#eaeaeb" d="M400 400h100v100H400z"/><path fill="#dfdfe0" d="M500 400h100v100H500z"/><path fill="#e5e6e8" d="M600 400h100v100H600z"/><path fill="#f9fafa" d="M700 400h100v100H700z"/><path fill="#f6f6f7" d="M0 500h100v100H0zm100 0h100v100H100z"/><path fill="#f6f6f6" d="M200 500h100v100H200z"/><path fill="#f9f9f9" d="M300 500h100v100H300z"/><path fill="#f5f5f5" d="M400 500h100v100H400z"/><path fill="#f4f4f4" d="M500 500h100v100H500z"/><path fill="#f5f5f5" d="M600 500h100v100H600z"/><path fill="#f7f8f8" d="M700 500h100v100H700z"/></svg>