<svg xmlns="http://www.w3.org/2000/svg" viewBox="0 0 800 600"><defs/><path fill="#f7e79f" d="M0 0h100v100H0z"/><path fill="#e9ebd5" d="M100 0h100v100H100z"/><path fill="#d0dfd9" d="M200 0h100v100H200z"/><path fill="#f1ecd0" d="M300 0h100v100H300z"/><path fill="#f6efc6" d="M400 0h100v100H400z"/><path fill="#f7f0cd" d="M500 0h100v100H500z"/><path fill="#f7efc2" d="M600 0h100v100H600z"/><path fill="#f7eaaa" d="M700 0h100v100H700z"/><path fill="#f8e8a8" d="M0 100h100v100H0z"/><path fill="#dfe4d1" d="M100 100h100v100H100z"/><path fill="#d2dfdd" d="M200 100h100v100H200z"/><path fill="#eeead9" d="M300 100h100v100H300z"/><path fill="#e5dfce" d="M400 100h100v100H400z"/><path fill="#f7f3db" d="M500 100h100v100H500z"/><path fill="#f8efc4" d="M600 100h100v100H600z"/><path fill="#f7e8a7" d="M700 100h100v100H700z"/><path fill="#f9eaac" d="M0 200h100v100H0z"/><path fill="#dcdecc" d="M100 200h100v100H100z"/><path fill="#c8d7d5" d="M200 200h100v100H200z"/><path fill="#f1edcf" d="M300 200h100v100H300z"/><path fill="#ebe5cc" d="M400 200h100v100H400z"/><path fill="#eae4cf" d="M500 200h100v100H500z"/><path fill="#f1e6bf" d="M600 200h100v100H600z"/><path fill="#f8eaa9" d="M700 200h100v100H700z"/><path fill="#ede6b6" d="M0 300h100v100H0z"/><path fill="#c8d6d1" d="M100 300h100v100H100z"/><path fill="#e1ddd2" d="M200 300h100v100H200z"/><path fill="#f1ecc7" d="M300 300h100v100H300z"/><path fill="#e9e2d1" d="M400 300h100v100H400z"/><path fill="#e8dddd" d="M500 300h100v100H500z"/><path fill="#efe1c8" d="M600 300h100v100H600z"/><path fill="#f8ecac" d="M700 300h100v100H700z"/><path fill="#cac8ae" d="M0 400h100v100H0z"/><path fill="#bbd3d7" d="M100 400h100v100H100z"/><path fill="#e0e1d6" d="M200 400h100v100H200z"/><path fill="#efedbc" d="M300 400h100v100H300z"/><path fill="#f3e7c9" d="M400 400h100v100H400z"/><path fill="#f1e6e4" d="M500 400h100v100H500z"/><path fill="#e9dbd1" d="M600 400h100v100H600z"/><path fill="#f7e7ba" d="M700 400h100v100H700z"/><path fill="#e7e1ab" d="M0 500h100v100H0z"/><path fill="#d8e0c2" d="M100 500h100v100H100z"/><path fill="#dee3bb" d="M200 500h100v100H200z"/><path fill="#f1eebc" d="M300 500h100v100H300z"/><path fill="#efe7c6" d="M400 500h100v100H400z"/><path fill="#f2e2df" d="M500 500h100v100H500z"/><path fill="#f1e1de" d="M600 500h100v100H600z"/><path fill="#f3e0d2" d="M700 500h100v100H700z"/></svg>