<svg xmlns="http://www.w3.org/2000/svg" viewBox="0 0 800 500"><defs/><path fill="#a9927b" d="M0 0h100v100H0z"/><path fill="#ad876e" d="M100 0h100v100H100z"/><path fill="#b29883" d="M200 0h100v100H200z"/><path fill="#bda995" d="M300 0h100v100H300z"/><path fill="#b1aba5" d="M400 0h100v100H400z"/><path fill="#bfb6ae" d="M500 0h100v100H500z"/><path fill="#c0b6ae" d="M600 0h100v100H600z"/><path fill="#d3bcaf" d="M700 0h100v100H700z"/><path fill="#a9937d" d="M0 100h100v100H0z"/><path fill="#a67556" d="M100 100h100v100H100z"/><path fill="#9f7c58" d="M200 100h100v100H200z"/><path fill="#a89a7c" d="M300 100h100v100H300z"/><path fill="#97938d" d="M400 100h100v100H400z"/><path fill="#9e9b99" d="M500 100h100v100H500z"/><path fill="#a59e9d" d="M600 100h100v100H600z"/><path fill="#c2a497" d="M700 100h100v100H700z"/><path fill="#a8907d" d="M0 200h100v100H0z"/><path fill="#a5755b" d="M100 200h100v100H100z"/><path fill="#9b755c" d="M200 200h100v100H200z"/><path fill="#a5886b" d="M300 200h100v100H300z"/><path fill="#8d7669" d="M400 200h100v100H400z"/><path fill="#9a8e88" d="M500 200h100v100H500z"/><path fill="#a5938e" d="M600 200h100v100H600z"/><path fill="#bb997f" d="M700 200h100v100H700z"/><path fill="#b0856d" d="M0 300h100v100H0z"/><path fill="#ac8476" d="M100 300h100v100H100z"/><path fill="#af9a93" d="M200 300h100v100H200z"/><path fill="#a38e85" d="M300 300h100v100H300z"/><path fill="#a38d71" d="M400 300h100v100H400z"/><path fill="#c39c7f" d="M500 300h100v100H500z"/><path fill="#a4907c" d="M600 300h100v100H600z"/><path fill="#ae6f45" d="M700 300h100v100H700z"/><path fill="#ab8d7d" d="M0 400h100v100H0z"/><path fill="#baa69a" d="M100 400h100v100H100z"/><path fill="#9fa2a3" d="M200 400h100v100H200z"/><path fill="#989ea1" d="M300 400h100v100H300z"/><path fill="#b2a99c" d="M400 400h100v100H400z"/><path fill="#c4af9a" d="M500 400h100v100H500z"/><path fill="#afa086" d="M600 400h100v100H600z"/><path fill="#b98f71" d="M700 400h100v100H700z"/></svg>