<svg xmlns="http://www.w3.org/2000/svg" viewBox="0 0 800 500"><defs/><path fill="#bdc2cf" d="M0 0h100v100H0z"/><path fill="#767da0" d="M100 0h100v100H100z"/><path fill="#9ea1ba" d="M200 0h100v100H200z"/><path fill="#9d9bb4" d="M300 0h100v100H300z"/><path fill="#9c9db5" d="M400 0h100v100H400z"/><path fill="#9b9bb5" d="M500 0h100v100H500z"/><path fill="#b4b6ca" d="M600 0h100v100H600z"/><path fill="#ccd3e1" d="M700 0h100v100H700z"/><path fill="#a2a8be" d="M0 100h100v100H0z"/><path fill="#2e3c69" d="M100 100h100v100H100z"/><path fill="#7a84aa" d="M200 100h100v100H200z"/><path fill="#7078ab" d="M300 100h100v100H300z"/><path fill="#6e78ac" d="M400 100h100v100H400z"/><path fill="#5c6595" d="M500 100h100v100H500z"/><path fill="#838cb0" d="M600 100h100v100H600z"/><path fill="#8c91bc" d="M700 100h100v100H700z"/><path fill="#989fb7" d="M0 200h100v100H0z"/><path fill="#374072" d="M100 200h100v100H100z"/><path fill="#8d96ad" d="M200 200h100v100H200z"/><path fill="#918eab" d="M300 200h100v100H300z"/><path fill="#9390af" d="M400 200h100v100H400z"/><path fill="#8d88a7" d="M500 200h100v100H500z"/><path fill="#7c849a" d="M600 200h100v100H600z"/><path fill="#64718f" d="M700 200h100v100H700z"/><path fill="#898ead" d="M0 300h100v100H0z"/><path fill="#283166" d="M100 300h100v100H100z"/><path fill="#45378d" d="M200 300h100v100H200z"/><path fill="#434c90" d="M300 300h100v100H300z"/><path fill="#4a4f83" d="M400 300h100v100H400z"/><path fill="#4c5b8d" d="M500 300h100v100H500z"/><path fill="#3e4280" d="M600 300h100v100H600z"/><path fill="#4d657b" d="M700 300h100v100H700z"/><path fill="#8d92aa" d="M0 400h100v100H0z"/><path fill="#47507a" d="M100 400h100v100H100z"/><path fill="#535598" d="M200 400h100v100H200z"/><path fill="#8391bc" d="M300 400h100v100H300z"/><path fill="#5a638c" d="M400 400h100v100H400z"/><path fill="#4d6b8e" d="M500 400h100v100H500z"/><path fill="#595f97" d="M600 400h100v100H600z"/><path fill="#5a5d8b" d="M700 400h100v100H700z"/></svg>