<svg xmlns="http://www.w3.org/2000/svg" viewBox="0 0 800 1800"><defs/><path fill="#dfe4e9" d="M0 0h100v100H0z"/><path fill="#c7cfd9" d="M100 0h100v100H100z"/><path fill="#cbd3dc" d="M200 0h100v100H200z"/><path fill="#ccd4dc" d="M300 0h100v100H300zm100 0h100v100H400z"/><path fill="#cbd3dc" d="M500 0h100v100H500z"/><path fill="#c8d0d9" d="M600 0h100v100H600z"/><path fill="#d5dbe2" d="M700 0h100v100H700z"/><path fill="#d9dfe5" d="M0 100h100v100H0z"/><path fill="#bdc7d2" d="M100 100h100v100H100z"/><path fill="#bec8d3" d="M200 100h100v100H200z"/><path fill="#afbdcb" d="M300 100h100v100H300z"/><path fill="#b6c4d1" d="M400 100h100v100H400z"/><path fill="#bcc7d3" d="M500 100h100v100H500z"/><path fill="#bdc7d2" d="M600 100h100v100H600z"/><path fill="#ccd4dc" d="M700 100h100v100H700z"/><path fill="#fff" d="M0 200h100v100H0z"/><path fill="#fefeff" d="M100 200h100v100H100z"/><path fill="#fcfdfe" d="M200 200h100v100H200z"/><path fill="#f9fafb" d="M300 200h100v100H300z"/><path fill="#f7fbfd" d="M400 200h100v100H400z"/><path fill="#fbfdfe" d="M500 200h100v100H500z"/><path fill="#fff" d="M600 200h100v100H600zm100 0h100v100H700z"/><path fill="#eceef0" d="M0 300h100v100H0z"/><path fill="#e5e8ea" d="M100 300h100v100H100z"/><path fill="#f5f5f3" d="M200 300h100v100H200z"/><path fill="#f0f2f1" d="M300 300h100v100H300z"/><path fill="#f0f1f0" d="M400 300h100v100H400z"/><path fill="#f1f2f1" d="M500 300h100v100H500z"/><path fill="#f4f6f5" d="M600 300h100v100H600z"/><path fill="#f4f6f8" d="M700 300h100v100H700z"/><path fill="#fbfbf9" d="M0 400h100v100H0z"/><path fill="#dae0ed" d="M100 400h100v100H100z"/><path fill="#b6c4e3" d="M200 400h100v100H200z"/><path fill="#cad2e5" d="M300 400h100v100H300z"/><path fill="#ced7ea" d="M400 400h100v100H400z"/><path fill="#cad2ea" d="M500 400h100v100H500z"/><path fill="#d4d9ec" d="M600 400h100v100H600z"/><path fill="#fff" d="M700 400h100v100H700zM0 500h100v100H0z"/><path fill="#8fa6d6" d="M100 500h100v100H100z"/><path fill="#002da8" d="M200 500h100v100H200z"/><path fill="#827f93" d="M300 500h100v100H300z"/><path fill="#4a6db7" d="M400 500h100v100H400z"/><path fill="#0235af" d="M500 500h100v100H500z"/><path fill="#5570c3" d="M600 500h100v100H600z"/><path fill="#fff" d="M700 500h100v100H700zM0 600h100v100H0z"/><path fill="#8fa8d4" d="M100 600h100v100H100z"/><path fill="#0d3373" d="M200 600h100v100H200z"/><path fill="#606167" d="M300 600h100v100H300z"/><path fill="#5579b3" d="M400 600h100v100H400z"/><path fill="#2d63c1" d="M500 600h100v100H500z"/><path fill="#6287ce" d="M600 600h100v100H600z"/><path fill="#fff" d="M700 600h100v100H700zM0 700h100v100H0z"/><path fill="#94a6d1" d="M100 700h100v100H100z"/><path fill="#071841" d="M200 700h100v100H200z"/><path fill="#363536" d="M300 700h100v100H300z"/><path fill="#9298a6" d="M400 700h100v100H400z"/><path fill="#8fa5ce" d="M500 700h100v100H500z"/><path fill="#859dcf" d="M600 700h100v100H600z"/><path fill="#fff" d="M700 700h100v100H700z"/><path fill="#f9faf9" d="M0 800h100v100H0z"/><path fill="#dce1ea" d="M100 800h100v100H100z"/><path fill="#c0c7d5" d="M200 800h100v100H200z"/><path fill="#dcdcdd" d="M300 800h100v100H300z"/><path fill="#e8e9ea" d="M400 800h100v100H400z"/><path fill="#e1e6ef" d="M500 800h100v100H500z"/><path fill="#dce1e9" d="M600 800h100v100H600z"/><path fill="#f6f7f8" d="M700 800h100v100H700z"/><path fill="#ebedef" d="M0 900h100v100H0z"/><path fill="#e1e5e7" d="M100 900h100v100H100z"/><path fill="#eef0f1" d="M200 900h100v100H200z"/><path fill="#e9edf0" d="M300 900h100v100H300z"/><path fill="#e5e9ec" d="M400 900h100v100H400z"/><path fill="#e7eaec" d="M500 900h100v100H500z"/><path fill="#edefef" d="M600 900h100v100H600z"/><path fill="#f7f8f9" d="M700 900h100v100H700z"/><path fill="#f2f4f5" d="M0 1000h100v100H0z"/><path fill="#e7ebee" d="M100 1000h100v100H100z"/><path fill="#e9edef" d="M200 1000h100v100H200z"/><path fill="#eceeef" d="M300 1000h100v100H300z"/><path fill="#ecedef" d="M400 1000h100v100H400z"/><path fill="#eef0f2" d="M500 1000h100v100H500z"/><path fill="#f5f7f8" d="M600 1000h100v100H600z"/><path fill="#f9f9f9" d="M700 1000h100v100H700z"/><path fill="#eff0f1" d="M0 1100h100v100H0z"/><path fill="#e5e8eb" d="M100 1100h100v100H100z"/><path fill="#eaebee" d="M200 1100h100v100H200z"/><path fill="#edeff1" d="M300 1100h100v100H300z"/><path fill="#eff1f2" d="M400 1100h100v100H400z"/><path fill="#eff0f1" d="M500 1100h100v100H500z"/><path fill="#edeef0" d="M600 1100h100v100H600z"/><path fill="#f3f4f5" d="M700 1100h100v100H700z"/><path fill="#f2f3f4" d="M0 1200h100v100H0z"/><path fill="#e7e9ec" d="M100 1200h100v100H100z"/><path fill="#e8ebed" d="M200 1200h100v100H200z"/><path fill="#e7eaec" d="M300 1200h100v100H300z"/><path fill="#e8ebec" d="M400 1200h100v100H400z"/><path fill="#e9eced" d="M500 1200h100v100H500z"/><path fill="#eef0f1" d="M600 1200h100v100H600z"/><path fill="#f8f9f9" d="M700 1200h100v100H700z"/><path fill="#f0f2f3" d="M0 1300h100v100H0z"/><path fill="#e4e7ea" d="M100 1300h100v100H100z"/><path fill="#e9ecee" d="M200 1300h100v100H200z"/><path fill="#edeef0" d="M300 1300h100v100H300z"/><path fill="#eceef0" d="M400 1300h100v100H400z"/><path fill="#eaedef" d="M500 1300h100v100H500z"/><path fill="#edeef0" d="M600 1300h100v100H600z"/><path fill="#f7f9f9" d="M700 1300h100v100H700z"/><path fill="#edeef1" d="M0 1400h100v100H0z"/><path fill="#e4e7ea" d="M100 1400h100v100H100z"/><path fill="#e7eaed" d="M200 1400h100v100H200z"/><path fill="#e9eaed" d="M300 1400h100v100H300z"/><path fill="#e8ebed" d="M400 1400h100v100H400z"/><path fill="#e9ebed" d="M500 1400h100v100H500z"/><path fill="#eaebee" d="M600 1400h100v100H600z"/><path fill="#f1f3f4" d="M700 1400h100v100H700z"/><path fill="#f4f5f5" d="M0 1500h100v100H0z"/><path fill="#eaedef" d="M100 1500h100v100H100z"/><path fill="#eceef0" d="M200 1500h100v100H200z"/><path fill="#f2f4f4" d="M300 1500h100v100H300z"/><path fill="#f4f5f6" d="M400 1500h100v100H400z"/><path fill="#f6f7f8" d="M500 1500h100v100H500z"/><path fill="#f7f8f9" d="M600 1500h100v100H600z"/><path fill="#fafafb" d="M700 1500h100v100H700z"/><path fill="#f1f2f3" d="M0 1600h100v100H0z"/><path fill="#e5e8ea" d="M100 1600h100v100H100z"/><path fill="#eff0f2" d="M200 1600h100v100H200z"/><path fill="#f7f8f9" d="M300 1600h100v100H300z"/><path fill="#f6f7f8" d="M400 1600h100v100H400zm100 0h100v100H500z"/><path fill="#f5f6f7" d="M600 1600h100v100H600z"/><path fill="#fafbfb" d="M700 1600h100v100H700z"/><path fill="#f6f7f8" d="M0 1700h100v100H0z"/><path fill="#f4f5f6" d="M100 1700h100v100H100z"/><path fill="#f5f7f8" d="M200 1700h100v100H200z"/><path fill="#f7f8f9" d="M300 1700h100v100H300zm100 0h100v100H400z"/><path fill="#f7f7f9" d="M500 1700h100v100H500z"/><path fill="#f6f7f8" d="M600 1700h100v100H600z"/><path fill="#fafbfb" d="M700 1700h100v100H700z"/></svg>