<svg xmlns="http://www.w3.org/2000/svg" viewBox="0 0 800 400"><defs/><path fill="#ab9691" d="M0 0h100v100H0z"/><path fill="#7d6c38" d="M100 0h100v100H100z"/><path fill="#77655d" d="M200 0h100v100H200z"/><path fill="#775d63" d="M300 0h100v100H300z"/><path fill="#827978" d="M400 0h100v100H400z"/><path fill="#6da247" d="M500 0h100v100H500z"/><path fill="#6eaa52" d="M600 0h100v100H600z"/><path fill="#a39b97" d="M700 0h100v100H700z"/><path fill="#ab9383" d="M0 100h100v100H0z"/><path fill="#72692a" d="M100 100h100v100H100z"/><path fill="#817e6c" d="M200 100h100v100H200z"/><path fill="#a7887f" d="M300 100h100v100H300z"/><path fill="#80785b" d="M400 100h100v100H400z"/><path fill="#666c3f" d="M500 100h100v100H500z"/><path fill="#706733" d="M600 100h100v100H600z"/><path fill="#b0a7a2" d="M700 100h100v100H700z"/><path fill="#9c8767" d="M0 200h100v100H0z"/><path fill="#5c5018" d="M100 200h100v100H100z"/><path fill="#815234" d="M200 200h100v100H200z"/><path fill="#85613b" d="M300 200h100v100H300z"/><path fill="#482740" d="M400 200h100v100H400z"/><path fill="#897271" d="M500 200h100v100H500z"/><path fill="#967163" d="M600 200h100v100H600z"/><path fill="#655154" d="M700 200h100v100H700z"/><path fill="#927b50" d="M0 300h100v100H0z"/><path fill="#6d4214" d="M100 300h100v100H100z"/><path fill="#7e5643" d="M200 300h100v100H200z"/><path fill="#523e57" d="M300 300h100v100H300z"/><path fill="#2f0739" d="M400 300h100v100H400z"/><path fill="#875944" d="M500 300h100v100H500z"/><path fill="#8c5e51" d="M600 300h100v100H600z"/><path fill="#3d1519" d="M700 300h100v100H700z"/></svg>