<svg xmlns="http://www.w3.org/2000/svg" viewBox="0 0 800 500"><defs/><path fill="#cab88f" d="M0 0h100v100H0z"/><path fill="#b6ae82" d="M100 0h100v100H100z"/><path fill="#ceba8e" d="M200 0h100v100H200z"/><path fill="#baa97f" d="M300 0h100v100H300z"/><path fill="#cfbd90" d="M400 0h100v100H400z"/><path fill="#ccb58b" d="M500 0h100v100H500z"/><path fill="#c0a982" d="M600 0h100v100H600z"/><path fill="#c6aa7e" d="M700 0h100v100H700z"/><path fill="#c3b389" d="M0 100h100v100H0z"/><path fill="#bbb384" d="M100 100h100v100H100z"/><path fill="#e2cda2" d="M200 100h100v100H200z"/><path fill="#b89a71" d="M300 100h100v100H300z"/><path fill="#d5aa80" d="M400 100h100v100H400z"/><path fill="#b49a74" d="M500 100h100v100H500z"/><path fill="#b29771" d="M600 100h100v100H600z"/><path fill="#ccae80" d="M700 100h100v100H700z"/><path fill="#b7aa81" d="M0 200h100v100H0z"/><path fill="#bab485" d="M100 200h100v100H100z"/><path fill="#d5b68d" d="M200 200h100v100H200z"/><path fill="#b46540" d="M300 200h100v100H300z"/><path fill="#a55235" d="M400 200h100v100H400z"/><path fill="#bd9570" d="M500 200h100v100H500z"/><path fill="#c1aa7f" d="M600 200h100v100H600z"/><path fill="#be9f74" d="M700 200h100v100H700z"/><path fill="#a9a57b" d="M0 300h100v100H0z"/><path fill="#bbb186" d="M100 300h100v100H100z"/><path fill="#dac19a" d="M200 300h100v100H200z"/><path fill="#a96e3b" d="M300 300h100v100H300z"/><path fill="#a05a28" d="M400 300h100v100H400z"/><path fill="#bc9975" d="M500 300h100v100H500z"/><path fill="#bea27b" d="M600 300h100v100H600z"/><path fill="#bb9d73" d="M700 300h100v100H700z"/><path fill="#aea482" d="M0 400h100v100H0z"/><path fill="#baab88" d="M100 400h100v100H100z"/><path fill="#c0b08a" d="M200 400h100v100H200z"/><path fill="#baa36e" d="M300 400h100v100H300z"/><path fill="#b09663" d="M400 400h100v100H400z"/><path fill="#ac9774" d="M500 400h100v100H500z"/><path fill="#ac926f" d="M600 400h100v100H600z"/><path fill="#ac9068" d="M700 400h100v100H700z"/></svg>