<svg xmlns="http://www.w3.org/2000/svg" viewBox="0 0 800 600"><defs/><path fill="#fbfcfc" d="M0 0h100v100H0z"/><path fill="#f7f9f9" d="M100 0h100v100H100z"/><path fill="#edeef0" d="M200 0h100v100H200z"/><path fill="#eaedf0" d="M300 0h100v100H300z"/><path fill="#ebecee" d="M400 0h100v100H400z"/><path fill="#eff0f3" d="M500 0h100v100H500z"/><path fill="#f6f7f8" d="M600 0h100v100H600z"/><path fill="#fafbfb" d="M700 0h100v100H700z"/><path fill="#eaeced" d="M0 100h100v100H0z"/><path fill="#c3cfcf" d="M100 100h100v100H100z"/><path fill="#bec6c9" d="M200 100h100v100H200z"/><path fill="#ccd0d5" d="M300 100h100v100H300z"/><path fill="#ced3d9" d="M400 100h100v100H400z"/><path fill="#c8ccd0" d="M500 100h100v100H500z"/><path fill="#cad1d2" d="M600 100h100v100H600z"/><path fill="#e7eded" d="M700 100h100v100H700z"/><path fill="#e2e5e5" d="M0 200h100v100H0z"/><path fill="#afbebf" d="M100 200h100v100H100z"/><path fill="#c1c6cb" d="M200 200h100v100H200z"/><path fill="#cccdd0" d="M300 200h100v100H300z"/><path fill="#d3d6d8" d="M400 200h100v100H400z"/><path fill="#bcc0c5" d="M500 200h100v100H500z"/><path fill="#b9bdc2" d="M600 200h100v100H600z"/><path fill="#dee3e2" d="M700 200h100v100H700z"/><path fill="#e0e5e6" d="M0 300h100v100H0z"/><path fill="#acbcbd" d="M100 300h100v100H100z"/><path fill="#cfd4d6" d="M200 300h100v100H200z"/><path fill="#c6c7c8" d="M300 300h100v100H300z"/><path fill="#cbcecc" d="M400 300h100v100H400z"/><path fill="#b2b4b7" d="M500 300h100v100H500z"/><path fill="#989a9e" d="M600 300h100v100H600z"/><path fill="#daddde" d="M700 300h100v100H700z"/><path fill="#dfe7e6" d="M0 400h100v100H0z"/><path fill="#a8b9ba" d="M100 400h100v100H100z"/><path fill="#bcc0c2" d="M200 400h100v100H200z"/><path fill="#b2b4b6" d="M300 400h100v100H300z"/><path fill="#a8acb0" d="M400 400h100v100H400z"/><path fill="#c0c2c3" d="M500 400h100v100H500z"/><path fill="#aeb0b2" d="M600 400h100v100H600z"/><path fill="#c5c8c9" d="M700 400h100v100H700z"/><path fill="#ecf0f0" d="M0 500h100v100H0z"/><path fill="#d4dadd" d="M100 500h100v100H100z"/><path fill="#d9dcde" d="M200 500h100v100H200z"/><path fill="#d4d8d9" d="M300 500h100v100H300z"/><path fill="#d1d3d4" d="M400 500h100v100H400z"/><path fill="#d7d9d9" d="M500 500h100v100H500z"/><path fill="#ced0d2" d="M600 500h100v100H600z"/><path fill="#d6d8d9" d="M700 500h100v100H700z"/></svg>