<svg xmlns="http://www.w3.org/2000/svg" viewBox="0 0 800 600"><defs/><path fill="#fcfcfc" d="M0 0h100v100H0z"/><path fill="#f8fbf9" d="M100 0h100v100H100z"/><path fill="#fafbfb" d="M200 0h100v100H200z"/><path fill="#fdfdfd" d="M300 0h100v100H300z"/><path fill="#fefefe" d="M400 0h100v100H400z"/><path fill="#fdfcfc" d="M500 0h100v100H500z"/><path fill="#faf9f8" d="M600 0h100v100H600z"/><path fill="#faf9f9" d="M700 0h100v100H700z"/><path fill="#cad3ca" d="M0 100h100v100H0z"/><path fill="#99ae79" d="M100 100h100v100H100z"/><path fill="#b6bbbc" d="M200 100h100v100H200z"/><path fill="#cfccca" d="M300 100h100v100H300z"/><path fill="#c9c4be" d="M400 100h100v100H400z"/><path fill="#cecec7" d="M500 100h100v100H500z"/><path fill="#aeafaf" d="M600 100h100v100H600z"/><path fill="#aaa8a0" d="M700 100h100v100H700z"/><path fill="#cdd8c8" d="M0 200h100v100H0z"/><path fill="#a8a874" d="M100 200h100v100H100z"/><path fill="#b1b2b7" d="M200 200h100v100H200z"/><path fill="#b4b5b0" d="M300 200h100v100H300z"/><path fill="#c2c1bf" d="M400 200h100v100H400z"/><path fill="#c2c9c9" d="M500 200h100v100H500z"/><path fill="#a7afb1" d="M600 200h100v100H600z"/><path fill="#aeafa5" d="M700 200h100v100H700z"/><path fill="#dedfd0" d="M0 300h100v100H0z"/><path fill="#cbbca9" d="M100 300h100v100H100z"/><path fill="#b1b6b3" d="M200 300h100v100H200z"/><path fill="#b6b8b6" d="M300 300h100v100H300z"/><path fill="#d1d0cf" d="M400 300h100v100H400z"/><path fill="#c1c0bf" d="M500 300h100v100H500z"/><path fill="#a1a5a4" d="M600 300h100v100H600z"/><path fill="#c5c9bc" d="M700 300h100v100H700z"/><path fill="#e2d3ca" d="M0 400h100v100H0z"/><path fill="#cbb3ab" d="M100 400h100v100H100z"/><path fill="#c3c2c2" d="M200 400h100v100H200z"/><path fill="#cbb9ba" d="M300 400h100v100H300z"/><path fill="#b7b0ac" d="M400 400h100v100H400z"/><path fill="#b6b1ab" d="M500 400h100v100H500z"/><path fill="#8a8884" d="M600 400h100v100H600z"/><path fill="#acaa9f" d="M700 400h100v100H700z"/><path fill="#f2eeee" d="M0 500h100v100H0z"/><path fill="#f5f2f1" d="M100 500h100v100H100z"/><path fill="#f2f1f0" d="M200 500h100v100H200z"/><path fill="#eeeae9" d="M300 500h100v100H300z"/><path fill="#dfdddd" d="M400 500h100v100H400z"/><path fill="#e5e5e4" d="M500 500h100v100H500z"/><path fill="#dfdedb" d="M600 500h100v100H600z"/><path fill="#d3d1cf" d="M700 500h100v100H700z"/></svg>