<svg xmlns="http://www.w3.org/2000/svg" viewBox="0 0 800 1100"><defs/><path fill="#dedbde" d="M0 0h100v100H0z"/><path fill="#cbc8cd" d="M100 0h100v100H100z"/><path fill="#d2d2d4" d="M200 0h100v100H200z"/><path fill="#e3e3e2" d="M300 0h100v100H300z"/><path fill="#e9e8e9" d="M400 0h100v100H400z"/><path fill="#efeeec" d="M500 0h100v100H500z"/><path fill="#f8f7f5" d="M600 0h100v100H600z"/><path fill="#f9f8f6" d="M700 0h100v100H700z"/><path fill="#423b4c" d="M0 100h100v100H0z"/><path fill="#443b46" d="M100 100h100v100H100z"/><path fill="#4d4549" d="M200 100h100v100H200z"/><path fill="#514e4b" d="M300 100h100v100H300z"/><path fill="#575851" d="M400 100h100v100H400z"/><path fill="#585b51" d="M500 100h100v100H500z"/><path fill="#646661" d="M600 100h100v100H600z"/><path fill="#646a62" d="M700 100h100v100H700z"/><path fill="#332e32" d="M0 200h100v100H0z"/><path fill="#3d3d2e" d="M100 200h100v100H100z"/><path fill="#494f2a" d="M200 200h100v100H200z"/><path fill="#3d4325" d="M300 200h100v100H300z"/><path fill="#28281d" d="M400 200h100v100H400z"/><path fill="#363125" d="M500 200h100v100H500z"/><path fill="#3c3628" d="M600 200h100v100H600z"/><path fill="#363528" d="M700 200h100v100H700z"/><path fill="#343521" d="M0 300h100v100H0z"/><path fill="#41491c" d="M100 300h100v100H100z"/><path fill="#2e4411" d="M200 300h100v100H200z"/><path fill="#2d3513" d="M300 300h100v100H300z"/><path fill="#34301c" d="M400 300h100v100H400z"/><path fill="#604533" d="M500 300h100v100H500z"/><path fill="#5f4532" d="M600 300h100v100H600z"/><path fill="#524c2d" d="M700 300h100v100H700z"/><path fill="#616530" d="M0 400h100v100H0z"/><path fill="#515723" d="M100 400h100v100H100z"/><path fill="#47521e" d="M200 400h100v100H200z"/><path fill="#5a6024" d="M300 400h100v100H300z"/><path fill="#69752b" d="M400 400h100v100H400z"/><path fill="#647228" d="M500 400h100v100H500z"/><path fill="#5d6d22" d="M600 400h100v100H600z"/><path fill="#566e1e" d="M700 400h100v100H700z"/><path fill="#5f672a" d="M0 500h100v100H0z"/><path fill="#4c5125" d="M100 500h100v100H100z"/><path fill="#42481c" d="M200 500h100v100H200z"/><path fill="#4f5023" d="M300 500h100v100H300z"/><path fill="#4e4f24" d="M400 500h100v100H400z"/><path fill="#494f22" d="M500 500h100v100H500z"/><path fill="#494f20" d="M600 500h100v100H600z"/><path fill="#444a1f" d="M700 500h100v100H700z"/><path fill="#372d24" d="M0 600h100v100H0z"/><path fill="#2d2b16" d="M100 600h100v100H100z"/><path fill="#414229" d="M200 600h100v100H200z"/><path fill="#50483b" d="M300 600h100v100H300z"/><path fill="#6c6157" d="M400 600h100v100H400z"/><path fill="#5d544a" d="M500 600h100v100H500z"/><path fill="#524a43" d="M600 600h100v100H600z"/><path fill="#6a675c" d="M700 600h100v100H700z"/><path fill="#6f5b6e" d="M0 700h100v100H0z"/><path fill="#786870" d="M100 700h100v100H100z"/><path fill="#8f818a" d="M200 700h100v100H200z"/><path fill="#ad9cab" d="M300 700h100v100H300z"/><path fill="#b2a3b9" d="M400 700h100v100H400z"/><path fill="#a99bb1" d="M500 700h100v100H500z"/><path fill="#a199a7" d="M600 700h100v100H600z"/><path fill="#8c8e85" d="M700 700h100v100H700z"/><path fill="#aa97b0" d="M0 800h100v100H0z"/><path fill="#ae9cb0" d="M100 800h100v100H100z"/><path fill="#99909a" d="M200 800h100v100H200z"/><path fill="#8e8c84" d="M300 800h100v100H300z"/><path fill="#7f846c" d="M400 800h100v100H400z"/><path fill="#6d704d" d="M500 800h100v100H500z"/><path fill="#637635" d="M600 800h100v100H600z"/><path fill="#566a22" d="M700 800h100v100H700z"/><path fill="#4d6028" d="M0 900h100v100H0z"/><path fill="#586931" d="M100 900h100v100H100z"/><path fill="#576927" d="M200 900h100v100H200z"/><path fill="#5c6b23" d="M300 900h100v100H300z"/><path fill="#666d28" d="M400 900h100v100H400z"/><path fill="#5c622b" d="M500 900h100v100H500z"/><path fill="#677127" d="M600 900h100v100H600z"/><path fill="#596a24" d="M700 900h100v100H700z"/><path fill="#4a5f21" d="M0 1000h100v100H0z"/><path fill="#576628" d="M100 1000h100v100H100z"/><path fill="#686f32" d="M200 1000h100v100H200z"/><path fill="#6e7237" d="M300 1000h100v100H300z"/><path fill="#616e2c" d="M400 1000h100v100H400z"/><path fill="#606b26" d="M500 1000h100v100H500z"/><path fill="#5c6420" d="M600 1000h100v100H600z"/><path fill="#575b1f" d="M700 1000h100v100H700z"/></svg>