<svg xmlns="http://www.w3.org/2000/svg" viewBox="0 0 800 500"><defs/><path fill="#4e4c50" d="M0 0h100v100H0z"/><path fill="#c7c0c0" d="M100 0h100v100H100z"/><path fill="#d0c3c1" d="M200 0h100v100H200z"/><path fill="#e0dbd8" d="M300 0h100v100H300z"/><path fill="#eae1de" d="M400 0h100v100H400z"/><path fill="#f2e9e4" d="M500 0h100v100H500z"/><path fill="#fffcf5" d="M600 0h100v100H600z"/><path fill="#b4aea8" d="M700 0h100v100H700z"/><path fill="#78797a" d="M0 100h100v100H0z"/><path fill="#cdada6" d="M100 100h100v100H100z"/><path fill="#ad7f74" d="M200 100h100v100H200z"/><path fill="#92a4af" d="M300 100h100v100H300z"/><path fill="#9bb8b7" d="M400 100h100v100H400z"/><path fill="#afbbb4" d="M500 100h100v100H500z"/><path fill="#f1c7bb" d="M600 100h100v100H600z"/><path fill="#e4e0d1" d="M700 100h100v100H700z"/><path fill="#a6a5a3" d="M0 200h100v100H0z"/><path fill="#b8978d" d="M100 200h100v100H100z"/><path fill="#8c7d79" d="M200 200h100v100H200z"/><path fill="#798486" d="M300 200h100v100H300z"/><path fill="#a3aaa3" d="M400 200h100v100H400z"/><path fill="#928371" d="M500 200h100v100H500z"/><path fill="#d9a594" d="M600 200h100v100H600z"/><path fill="#e3e3d1" d="M700 200h100v100H700z"/><path fill="#aba5a2" d="M0 300h100v100H0z"/><path fill="#ada09b" d="M100 300h100v100H100z"/><path fill="#adaea9" d="M200 300h100v100H200z"/><path fill="#b7bdb3" d="M300 300h100v100H300z"/><path fill="#dfd1c9" d="M400 300h100v100H400z"/><path fill="#bba096" d="M500 300h100v100H500z"/><path fill="#c8a396" d="M600 300h100v100H600z"/><path fill="#ece4d2" d="M700 300h100v100H700z"/><path fill="#a39d9a" d="M0 400h100v100H0z"/><path fill="#aba4a2" d="M100 400h100v100H100z"/><path fill="#b5adaa" d="M200 400h100v100H200z"/><path fill="#bcb2ad" d="M300 400h100v100H300z"/><path fill="#beb9b2" d="M400 400h100v100H400z"/><path fill="#c9c4ba" d="M500 400h100v100H500z"/><path fill="#cfc8bf" d="M600 400h100v100H600z"/><path fill="#d7cebb" d="M700 400h100v100H700z"/></svg>