<svg xmlns="http://www.w3.org/2000/svg" viewBox="0 0 800 1100"><defs/><path fill="#fcfcfc" d="M0 0h100v100H0z"/><path fill="#c3c3c3" d="M100 0h100v100H100z"/><path fill="#a0a0a0" d="M200 0h100v100H200z"/><path fill="#ebebeb" d="M300 0h100v100H300z"/><path fill="#f7f7f7" d="M400 0h100v100H400z"/><path fill="#dcdcdc" d="M500 0h100v100H500z"/><path fill="#a1a1a1" d="M600 0h100v100H600z"/><path fill="#c2c2c2" d="M700 0h100v100H700z"/><path fill="#fff" d="M0 100h100v100H0z"/><path fill="#767676" d="M100 100h100v100H100z"/><path fill="#555" d="M200 100h100v100H200z"/><path fill="#b9b9b9" d="M300 100h100v100H300z"/><path fill="#eaeaea" d="M400 100h100v100H400z"/><path fill="#b0b0b0" d="M500 100h100v100H500z"/><path fill="#6e6e6e" d="M600 100h100v100H600z"/><path fill="#9d9d9d" d="M700 100h100v100H700z"/><path fill="#fafafa" d="M0 200h100v100H0z"/><path fill="#bdbdbd" d="M100 200h100v100H100z"/><path fill="#afafaf" d="M200 200h100v100H200z"/><path fill="#d3d3d3" d="M300 200h100v100H300z"/><path fill="#acacac" d="M400 200h100v100H400z"/><path fill="#d0d0d0" d="M500 200h100v100H500z"/><path fill="#a8a8a8" d="M600 200h100v100H600z"/><path fill="#cecece" d="M700 200h100v100H700z"/><path fill="#f0f0f0" d="M0 300h100v100H0z"/><path fill="#ededed" d="M100 300h100v100H100z"/><path fill="#d5d5d5" d="M200 300h100v100H200z"/><path fill="#e8e8e8" d="M300 300h100v100H300z"/><path fill="#9f9f9f" d="M400 300h100v100H400z"/><path fill="#d0d0d0" d="M500 300h100v100H500z"/><path fill="#e6e6e6" d="M600 300h100v100H600z"/><path fill="#e4e4e4" d="M700 300h100v100H700z"/><path fill="#e3e3e3" d="M0 400h100v100H0z"/><path fill="#d1d1d1" d="M100 400h100v100H100z"/><path fill="#d7d7d7" d="M200 400h100v100H200z"/><path fill="#ebebeb" d="M300 400h100v100H300z"/><path fill="#f3f3f3" d="M400 400h100v100H400z"/><path fill="#fafafa" d="M500 400h100v100H500z"/><path fill="#d1d1d1" d="M600 400h100v100H600z"/><path fill="#f2f2f2" d="M700 400h100v100H700z"/><path fill="#d5d5d5" d="M0 500h100v100H0z"/><path fill="#b6b6b6" d="M100 500h100v100H100z"/><path fill="#a1a1a1" d="M200 500h100v100H200z"/><path fill="#a3a3a3" d="M300 500h100v100H300z"/><path fill="#dadada" d="M400 500h100v100H400z"/><path fill="#f3f3f3" d="M500 500h100v100H500z"/><path fill="#a1a1a1" d="M600 500h100v100H600z"/><path fill="#e2e2e2" d="M700 500h100v100H700z"/><path fill="#cdcdcd" d="M0 600h100v100H0z"/><path fill="#bdbdbd" d="M100 600h100v100H100z"/><path fill="#ddd" d="M200 600h100v100H200z"/><path fill="#dfdfdf" d="M300 600h100v100H300z"/><path fill="#fbfbfb" d="M400 600h100v100H400z"/><path fill="#f5f5f5" d="M500 600h100v100H500z"/><path fill="#c4c4c4" d="M600 600h100v100H600z"/><path fill="#eaeaea" d="M700 600h100v100H700z"/><path fill="#ddd" d="M0 700h100v100H0z"/><path fill="#dbdbdb" d="M100 700h100v100H100z"/><path fill="#f3f3f3" d="M200 700h100v100H200z"/><path fill="#e5e5e5" d="M300 700h100v100H300z"/><path fill="#e9e9e9" d="M400 700h100v100H400z"/><path fill="#eee" d="M500 700h100v100H500z"/><path fill="#d9d9d9" d="M600 700h100v100H600z"/><path fill="#f0f0f0" d="M700 700h100v100H700z"/><path fill="#d5d5d5" d="M0 800h100v100H0z"/><path fill="#e5e5e5" d="M100 800h100v100H100z"/><path fill="#cacaca" d="M200 800h100v100H200z"/><path fill="#f3f3f3" d="M300 800h100v100H300z"/><path fill="#eee" d="M400 800h100v100H400z"/><path fill="#c9c9c9" d="M500 800h100v100H500z"/><path fill="#e7e7e7" d="M600 800h100v100H600z"/><path fill="#c8c8c8" d="M700 800h100v100H700z"/><path fill="#d8d8d8" d="M0 900h100v100H0z"/><path fill="#b8b8b8" d="M100 900h100v100H100z"/><path fill="#bababa" d="M200 900h100v100H200z"/><path fill="#f0f0f0" d="M300 900h100v100H300z"/><path fill="#dfdfdf" d="M400 900h100v100H400z"/><path fill="#9d9d9d" d="M500 900h100v100H500z"/><path fill="#b6b6b6" d="M600 900h100v100H600z"/><path fill="#acacac" d="M700 900h100v100H700z"/><path fill="#f6f6f6" d="M0 1000h100v100H0z"/><path fill="#dbdbdb" d="M100 1000h100v100H100z"/><path fill="#dadada" d="M200 1000h100v100H200z"/><path fill="#f7f7f7" d="M300 1000h100v100H300z"/><path fill="#ebebeb" d="M400 1000h100v100H400z"/><path fill="#dfdfdf" d="M500 1000h100v100H500z"/><path fill="#ededed" d="M600 1000h100v100H600z"/><path fill="#e3e3e3" d="M700 1000h100v100H700z"/></svg>