<svg xmlns="http://www.w3.org/2000/svg" viewBox="0 0 800 400"><defs/><path fill="#b9a368" d="M0 0h100v100H0z"/><path fill="#5c4125" d="M100 0h100v100H100z"/><path fill="#d3bb76" d="M200 0h100v100H200z"/><path fill="#dac07b" d="M300 0h100v100H300z"/><path fill="#8dbf44" d="M400 0h100v100H400z"/><path fill="#4acd25" d="M500 0h100v100H500z"/><path fill="#2abc30" d="M600 0h100v100H600z"/><path fill="#35a520" d="M700 0h100v100H700z"/><path fill="#9b8150" d="M0 100h100v100H0z"/><path fill="#755930" d="M100 100h100v100H100z"/><path fill="#c0b27a" d="M200 100h100v100H200z"/><path fill="#959361" d="M300 100h100v100H300z"/><path fill="#94c545" d="M400 100h100v100H400z"/><path fill="#5fdb2a" d="M500 100h100v100H500z"/><path fill="#34cd27" d="M600 100h100v100H600z"/><path fill="#239c10" d="M700 100h100v100H700z"/><path fill="#7a633d" d="M0 200h100v100H0z"/><path fill="#6a431c" d="M100 200h100v100H100z"/><path fill="#937850" d="M200 200h100v100H200z"/><path fill="#706653" d="M300 200h100v100H300z"/><path fill="#b88146" d="M400 200h100v100H400z"/><path fill="#9b7d32" d="M500 200h100v100H500z"/><path fill="#429412" d="M600 200h100v100H600z"/><path fill="#27a425" d="M700 200h100v100H700z"/><path fill="#6a4b2b" d="M0 300h100v100H0z"/><path fill="#6d3007" d="M100 300h100v100H100z"/><path fill="#8e430e" d="M200 300h100v100H200z"/><path fill="#8b4410" d="M300 300h100v100H300z"/><path fill="#853d0c" d="M400 300h100v100H400z"/><path fill="#8c3e12" d="M500 300h100v100H500z"/><path fill="#843a09" d="M600 300h100v100H600z"/><path fill="#736a34" d="M700 300h100v100H700z"/></svg>