<svg xmlns="http://www.w3.org/2000/svg" viewBox="0 0 800 400"><defs/><path fill="#59a3b3" d="M0 0h100v100H0z"/><path fill="#948367" d="M100 0h100v100H100z"/><path fill="#a8cac4" d="M200 0h100v100H200z"/><path fill="#b6e4ec" d="M300 0h100v100H300z"/><path fill="#cde5d9" d="M400 0h100v100H400z"/><path fill="#bcdddc" d="M500 0h100v100H500z"/><path fill="#b6d9d9" d="M600 0h100v100H600z"/><path fill="#42b0ca" d="M700 0h100v100H700z"/><path fill="#3f97aa" d="M0 100h100v100H0z"/><path fill="#a78665" d="M100 100h100v100H100z"/><path fill="#b5e0df" d="M200 100h100v100H200z"/><path fill="#b5d4b2" d="M300 100h100v100H300z"/><path fill="#b6eae4" d="M400 100h100v100H400z"/><path fill="#afe1ca" d="M500 100h100v100H500z"/><path fill="#a5caaa" d="M600 100h100v100H600z"/><path fill="#617269" d="M700 100h100v100H700z"/><path fill="#4d8e97" d="M0 200h100v100H0z"/><path fill="#885c38" d="M100 200h100v100H100z"/><path fill="#c6beb5" d="M200 200h100v100H200z"/><path fill="#dfd4cc" d="M300 200h100v100H300z"/><path fill="#d3d3cd" d="M400 200h100v100H400z"/><path fill="#9cb38d" d="M500 200h100v100H500z"/><path fill="#94bd72" d="M600 200h100v100H600z"/><path fill="#724d40" d="M700 200h100v100H700z"/><path fill="#7e928c" d="M0 300h100v100H0z"/><path fill="#b88e6b" d="M100 300h100v100H100z"/><path fill="#d0c5b3" d="M200 300h100v100H200z"/><path fill="#7ebec3" d="M300 300h100v100H300z"/><path fill="#b1bea9" d="M400 300h100v100H400z"/><path fill="#97a280" d="M500 300h100v100H500z"/><path fill="#c2c1ac" d="M600 300h100v100H600z"/><path fill="#908a7f" d="M700 300h100v100H700z"/></svg>