<svg xmlns="http://www.w3.org/2000/svg" viewBox="0 0 800 1400"><defs/><path fill="#cfd0bd" d="M0 0h100v100H0z"/><path fill="#ddddc8" d="M100 0h100v100H100z"/><path fill="#eaead9" d="M200 0h100v100H200z"/><path fill="#eaebdc" d="M300 0h100v100H300z"/><path fill="#e6e5d7" d="M400 0h100v100H400z"/><path fill="#e6e2cf" d="M500 0h100v100H500z"/><path fill="#dbd9c4" d="M600 0h100v100H600z"/><path fill="#d9d7c7" d="M700 0h100v100H700z"/><path fill="#dddccb" d="M0 100h100v100H0z"/><path fill="#efecdb" d="M100 100h100v100H100z"/><path fill="#f1f0e0" d="M200 100h100v100H200z"/><path fill="#e6e7d8" d="M300 100h100v100H300z"/><path fill="#cacabd" d="M400 100h100v100H400z"/><path fill="#d0d0c2" d="M500 100h100v100H500z"/><path fill="#cfcfc0" d="M600 100h100v100H600z"/><path fill="#e1dfd0" d="M700 100h100v100H700z"/><path fill="#e5e2d0" d="M0 200h100v100H0z"/><path fill="#fcf9ea" d="M100 200h100v100H100z"/><path fill="#f8f9ec" d="M200 200h100v100H200z"/><path fill="#ddded4" d="M300 200h100v100H300z"/><path fill="#c0c0b9" d="M400 200h100v100H400z"/><path fill="#d6d6d0" d="M500 200h100v100H500z"/><path fill="#d5d5c8" d="M600 200h100v100H600z"/><path fill="#f3ede1" d="M700 200h100v100H700z"/><path fill="#edead6" d="M0 300h100v100H0z"/><path fill="#edebde" d="M100 300h100v100H100z"/><path fill="#f6f7f3" d="M200 300h100v100H200z"/><path fill="#f5f5ee" d="M300 300h100v100H300z"/><path fill="#dfded9" d="M400 300h100v100H400z"/><path fill="#bfbeb8" d="M500 300h100v100H500z"/><path fill="#bbbab2" d="M600 300h100v100H600z"/><path fill="#f9f5eb" d="M700 300h100v100H700z"/><path fill="#ece8d5" d="M0 400h100v100H0z"/><path fill="#dddbcd" d="M100 400h100v100H100z"/><path fill="#e3e3e1" d="M200 400h100v100H200z"/><path fill="#f1efed" d="M300 400h100v100H300z"/><path fill="#c4c3bf" d="M400 400h100v100H400z"/><path fill="#cfccc5" d="M500 400h100v100H500z"/><path fill="#d2d1cd" d="M600 400h100v100H600z"/><path fill="#fcfbf5" d="M700 400h100v100H700z"/><path fill="#e7e3cf" d="M0 500h100v100H0z"/><path fill="#dfdbcd" d="M100 500h100v100H100z"/><path fill="#d8d6cd" d="M200 500h100v100H200z"/><path fill="#dddbd6" d="M300 500h100v100H300z"/><path fill="#d2d1ce" d="M400 500h100v100H400z"/><path fill="#bdbbb7" d="M500 500h100v100H500z"/><path fill="#dedddb" d="M600 500h100v100H600z"/><path fill="#fffffe" d="M700 500h100v100H700z"/><path fill="#e7e3d3" d="M0 600h100v100H0z"/><path fill="#eae6d7" d="M100 600h100v100H100z"/><path fill="#edece2" d="M200 600h100v100H200z"/><path fill="#f4f5f3" d="M300 600h100v100H300z"/><path fill="#dfdfdc" d="M400 600h100v100H400z"/><path fill="#efefec" d="M500 600h100v100H500z"/><path fill="#fffffd" d="M600 600h100v100H600z"/><path fill="#fffffb" d="M700 600h100v100H700z"/><path fill="#faf6e7" d="M0 700h100v100H0z"/><path fill="#fffff2" d="M100 700h100v100H100z"/><path fill="#fffffc" d="M200 700h100v100H200z"/><path fill="#f8f8f9" d="M300 700h100v100H300z"/><path fill="#eeeeed" d="M400 700h100v100H400z"/><path fill="#ededed" d="M500 700h100v100H500z"/><path fill="#f9f9f9" d="M600 700h100v100H600z"/><path fill="#fffffd" d="M700 700h100v100H700z"/><path fill="#f4ebdd" d="M0 800h100v100H0z"/><path fill="#fefbf1" d="M100 800h100v100H100z"/><path fill="#fffffe" d="M200 800h100v100H200z"/><path fill="#f7f6f6" d="M300 800h100v100H300z"/><path fill="#dcdad9" d="M400 800h100v100H400z"/><path fill="#eae9e9" d="M500 800h100v100H500z"/><path fill="#f8f8f7" d="M600 800h100v100H600z"/><path fill="#fffffb" d="M700 800h100v100H700z"/><path fill="#f3ebe1" d="M0 900h100v100H0z"/><path fill="#fcf7ec" d="M100 900h100v100H100z"/><path fill="#fff" d="M200 900h100v100H200z"/><path fill="#eceae4" d="M300 900h100v100H300z"/><path fill="#c0bebb" d="M400 900h100v100H400z"/><path fill="#dbdada" d="M500 900h100v100H500z"/><path fill="#e0dfd9" d="M600 900h100v100H600z"/><path fill="#fcf8ed" d="M700 900h100v100H700z"/><path fill="#f1ebe0" d="M0 1000h100v100H0z"/><path fill="#e8e3da" d="M100 1000h100v100H100z"/><path fill="#e8e7de" d="M200 1000h100v100H200z"/><path fill="#d9d6cb" d="M300 1000h100v100H300z"/><path fill="#c8c6be" d="M400 1000h100v100H400z"/><path fill="#b3b3ac" d="M500 1000h100v100H500z"/><path fill="#b0aea6" d="M600 1000h100v100H600z"/><path fill="#eee8df" d="M700 1000h100v100H700z"/><path fill="#dad3c7" d="M0 1100h100v100H0z"/><path fill="#c6c3bc" d="M100 1100h100v100H100z"/><path fill="#c9c6be" d="M200 1100h100v100H200z"/><path fill="#d7d4cb" d="M300 1100h100v100H300z"/><path fill="#bfbdb3" d="M400 1100h100v100H400z"/><path fill="#ada99d" d="M500 1100h100v100H500z"/><path fill="#bab6ab" d="M600 1100h100v100H600z"/><path fill="#dfd9d0" d="M700 1100h100v100H700z"/><path fill="#beb7aa" d="M0 1200h100v100H0z"/><path fill="#c3beb7" d="M100 1200h100v100H100z"/><path fill="#b9b6b0" d="M200 1200h100v100H200z"/><path fill="#c1beb9" d="M300 1200h100v100H300z"/><path fill="#a5a199" d="M400 1200h100v100H400z"/><path fill="#928f87" d="M500 1200h100v100H500z"/><path fill="#a6a094" d="M600 1200h100v100H600z"/><path fill="#cbc4b8" d="M700 1200h100v100H700z"/><path fill="#aca69a" d="M0 1300h100v100H0z"/><path fill="#b8b3aa" d="M100 1300h100v100H100z"/><path fill="#c5c4c0" d="M200 1300h100v100H200z"/><path fill="#d4d2ce" d="M300 1300h100v100H300z"/><path fill="#aba99f" d="M400 1300h100v100H400z"/><path fill="#a09f95" d="M500 1300h100v100H500z"/><path fill="#b5ac9e" d="M600 1300h100v100H600z"/><path fill="#b2a998" d="M700 1300h100v100H700z"/></svg>