<svg xmlns="http://www.w3.org/2000/svg" viewBox="0 0 800 500"><defs/><path fill="#ccbbd7" d="M0 0h100v100H0z"/><path fill="#9aa4bc" d="M100 0h100v100H100z"/><path fill="#84a298" d="M200 0h100v100H200z"/><path fill="#82b39c" d="M300 0h100v100H300z"/><path fill="#8ba09e" d="M400 0h100v100H400z"/><path fill="#9c95a9" d="M500 0h100v100H500z"/><path fill="#929fa2" d="M600 0h100v100H600z"/><path fill="#aab0b8" d="M700 0h100v100H700z"/><path fill="#afa2c3" d="M0 100h100v100H0z"/><path fill="#607d96" d="M100 100h100v100H100z"/><path fill="#477262" d="M200 100h100v100H200z"/><path fill="#496f64" d="M300 100h100v100H300z"/><path fill="#5e6970" d="M400 100h100v100H400z"/><path fill="#785d78" d="M500 100h100v100H500z"/><path fill="#54786f" d="M600 100h100v100H600z"/><path fill="#748f8e" d="M700 100h100v100H700z"/><path fill="#b6aacc" d="M0 200h100v100H0z"/><path fill="#5e868a" d="M100 200h100v100H100z"/><path fill="#6e857d" d="M200 200h100v100H200z"/><path fill="#998ea0" d="M300 200h100v100H300z"/><path fill="#89909d" d="M400 200h100v100H400z"/><path fill="#8f8094" d="M500 200h100v100H500z"/><path fill="#637a70" d="M600 200h100v100H600z"/><path fill="#768b8c" d="M700 200h100v100H700z"/><path fill="#9b9fc2" d="M0 300h100v100H0z"/><path fill="#547c7f" d="M100 300h100v100H100z"/><path fill="#6c7569" d="M200 300h100v100H200z"/><path fill="#b57e5b" d="M300 300h100v100H300z"/><path fill="#a2908d" d="M400 300h100v100H400z"/><path fill="#b49d97" d="M500 300h100v100H500z"/><path fill="#a48061" d="M600 300h100v100H600z"/><path fill="#a699a3" d="M700 300h100v100H700z"/><path fill="#c6b9ba" d="M0 400h100v100H0z"/><path fill="#aba590" d="M100 400h100v100H100z"/><path fill="#b4a789" d="M200 400h100v100H200z"/><path fill="#d9a37f" d="M300 400h100v100H300z"/><path fill="#e5ae8b" d="M400 400h100v100H400z"/><path fill="#e4b392" d="M500 400h100v100H500z"/><path fill="#d5aa8b" d="M600 400h100v100H600z"/><path fill="#c7ad9f" d="M700 400h100v100H700z"/></svg>