<svg xmlns="http://www.w3.org/2000/svg" viewBox="0 0 800 600"><defs/><path fill="#e9e9e9" d="M0 0h100v100H0z"/><path fill="#e1e1e1" d="M100 0h100v100H100z"/><path fill="#e0e0e0" d="M200 0h100v100H200z"/><path fill="#dcdcdc" d="M300 0h100v100H300z"/><path fill="#e1e1e1" d="M400 0h100v100H400zm100 0h100v100H500z"/><path fill="#e4e4e4" d="M600 0h100v100H600z"/><path fill="#e9e9e9" d="M700 0h100v100H700z"/><path fill="#dedede" d="M0 100h100v100H0z"/><path fill="#c9c9c9" d="M100 100h100v100H100z"/><path fill="#c2c2c2" d="M200 100h100v100H200z"/><path fill="#bdbdbd" d="M300 100h100v100H300z"/><path fill="#cecece" d="M400 100h100v100H400z"/><path fill="#cfcfcf" d="M500 100h100v100H500z"/><path fill="#c6c6c6" d="M600 100h100v100H600z"/><path fill="#e2e2e2" d="M700 100h100v100H700z"/><path fill="#e3e3e3" d="M0 200h100v100H0z"/><path fill="#d3d3d3" d="M100 200h100v100H100z"/><path fill="#b6b6b6" d="M200 200h100v100H200z"/><path fill="#b9b9b9" d="M300 200h100v100H300z"/><path fill="#c3c3c3" d="M400 200h100v100H400z"/><path fill="#c9c9c9" d="M500 200h100v100H500z"/><path fill="#c4c4c4" d="M600 200h100v100H600z"/><path fill="#dfdfdf" d="M700 200h100v100H700z"/><path fill="#e4e4e4" d="M0 300h100v100H0z"/><path fill="#d4d4d4" d="M100 300h100v100H100z"/><path fill="#c2c2c2" d="M200 300h100v100H200z"/><path fill="#b4b4b4" d="M300 300h100v100H300z"/><path fill="#b1b0b1" d="M400 300h100v100H400z"/><path fill="#b7b7b7" d="M500 300h100v100H500z"/><path fill="#bebebe" d="M600 300h100v100H600z"/><path fill="#dfdfdf" d="M700 300h100v100H700z"/><path fill="#e1e1e1" d="M0 400h100v100H0z"/><path fill="#cbcbcb" d="M100 400h100v100H100z"/><path fill="#c5c5c5" d="M200 400h100v100H200z"/><path fill="#bababa" d="M300 400h100v100H300z"/><path fill="#c3c3c3" d="M400 400h100v100H400z"/><path fill="#aeaeae" d="M500 400h100v100H500z"/><path fill="#bcbcbc" d="M600 400h100v100H600z"/><path fill="#e0e0e0" d="M700 400h100v100H700z"/><path fill="#e6e6e6" d="M0 500h100v100H0z"/><path fill="#d7d7d7" d="M100 500h100v100H100z"/><path fill="#d4d4d4" d="M200 500h100v100H200z"/><path fill="#d6d6d6" d="M300 500h100v100H300z"/><path fill="#c7c7c7" d="M400 500h100v100H400z"/><path fill="#bfbfbf" d="M500 500h100v100H500z"/><path fill="#d5d5d5" d="M600 500h100v100H600z"/><path fill="#e3e3e3" d="M700 500h100v100H700z"/></svg>