<svg xmlns="http://www.w3.org/2000/svg" viewBox="0 0 800 600"><defs/><path fill="#0a0c07" d="M0 0h100v100H0z"/><path fill="#352523" d="M100 0h100v100H100z"/><path fill="#411001" d="M200 0h100v100H200z"/><path fill="#453c23" d="M300 0h100v100H300z"/><path fill="#7b6381" d="M400 0h100v100H400z"/><path fill="#6a5365" d="M500 0h100v100H500z"/><path fill="#553326" d="M600 0h100v100H600z"/><path fill="#51311a" d="M700 0h100v100H700z"/><path fill="#1e170c" d="M0 100h100v100H0z"/><path fill="#533733" d="M100 100h100v100H100z"/><path fill="#340a04" d="M200 100h100v100H200z"/><path fill="#673e17" d="M300 100h100v100H300z"/><path fill="#b95720" d="M400 100h100v100H400z"/><path fill="#483619" d="M500 100h100v100H500z"/><path fill="#251709" d="M600 100h100v100H600z"/><path fill="#2c1f10" d="M700 100h100v100H700z"/><path fill="#26180a" d="M0 200h100v100H0z"/><path fill="#443228" d="M100 200h100v100H100z"/><path fill="#321716" d="M200 200h100v100H200z"/><path fill="#734433" d="M300 200h100v100H300z"/><path fill="#c35b36" d="M400 200h100v100H400z"/><path fill="#3e2418" d="M500 200h100v100H500z"/><path fill="#0f0e06" d="M600 200h100v100H600z"/><path fill="#0f0e05" d="M700 200h100v100H700z"/><path fill="#5c4b3a" d="M0 300h100v100H0z"/><path fill="#554038" d="M100 300h100v100H100z"/><path fill="#412c27" d="M200 300h100v100H200z"/><path fill="#2d242e" d="M300 300h100v100H300z"/><path fill="#74514e" d="M400 300h100v100H400z"/><path fill="#3a2720" d="M500 300h100v100H500z"/><path fill="#211b13" d="M600 300h100v100H600z"/><path fill="#392915" d="M700 300h100v100H700z"/><path fill="#25291e" d="M0 400h100v100H0z"/><path fill="#3f413e" d="M100 400h100v100H100z"/><path fill="#1a1b1e" d="M200 400h100v100H200z"/><path fill="#171f25" d="M300 400h100v100H300z"/><path fill="#503b2e" d="M400 400h100v100H400z"/><path fill="#593728" d="M500 400h100v100H500z"/><path fill="#493425" d="M600 400h100v100H600z"/><path fill="#6f4a29" d="M700 400h100v100H700z"/><path fill="#080d05" d="M0 500h100v100H0z"/><path fill="#111510" d="M100 500h100v100H100z"/><path fill="#2d2d2e" d="M200 500h100v100H200z"/><path fill="#3f3e3d" d="M300 500h100v100H300z"/><path fill="#303434" d="M400 500h100v100H400z"/><path fill="#2d3234" d="M500 500h100v100H500z"/><path fill="#2c2e2e" d="M600 500h100v100H600z"/><path fill="#100f0e" d="M700 500h100v100H700z"/></svg>