<svg xmlns="http://www.w3.org/2000/svg" viewBox="0 0 800 400"><defs/><path fill="#90807d" d="M0 0h100v100H0z"/><path fill="#776661" d="M100 0h100v100H100z"/><path fill="#6f605f" d="M200 0h100v100H200z"/><path fill="#928283" d="M300 0h100v100H300z"/><path fill="#695f60" d="M400 0h100v100H400z"/><path fill="#4c4b4d" d="M500 0h100v100H500z"/><path fill="#57575d" d="M600 0h100v100H600z"/><path fill="#575b63" d="M700 0h100v100H700z"/><path fill="#8a7a77" d="M0 100h100v100H0z"/><path fill="#65544c" d="M100 100h100v100H100z"/><path fill="#605552" d="M200 100h100v100H200z"/><path fill="#8a7377" d="M300 100h100v100H300z"/><path fill="#584e4e" d="M400 100h100v100H400z"/><path fill="#3d3c42" d="M500 100h100v100H500z"/><path fill="#555760" d="M600 100h100v100H600z"/><path fill="#5f6268" d="M700 100h100v100H700z"/><path fill="#8f7f7a" d="M0 200h100v100H0z"/><path fill="#524232" d="M100 200h100v100H100z"/><path fill="#5f4f47" d="M200 200h100v100H200z"/><path fill="#6f4b4a" d="M300 200h100v100H300z"/><path fill="#535163" d="M400 200h100v100H400z"/><path fill="#414142" d="M500 200h100v100H500z"/><path fill="#515054" d="M600 200h100v100H600z"/><path fill="#4c515e" d="M700 200h100v100H700z"/><path fill="#8a7873" d="M0 300h100v100H0z"/><path fill="#6f5f57" d="M100 300h100v100H100z"/><path fill="#867774" d="M200 300h100v100H200z"/><path fill="#6e6261" d="M300 300h100v100H300z"/><path fill="#404263" d="M400 300h100v100H400z"/><path fill="#6b6a7a" d="M500 300h100v100H500z"/><path fill="#73696a" d="M600 300h100v100H600z"/><path fill="#312c32" d="M700 300h100v100H700z"/></svg>