<svg xmlns="http://www.w3.org/2000/svg" viewBox="0 0 800 500"><defs/><path fill="#95a4ae" d="M0 0h100v100H0z"/><path fill="#a89389" d="M100 0h100v100H100z"/><path fill="#cbbeb9" d="M200 0h100v100H200z"/><path fill="#d1c3c1" d="M300 0h100v100H300z"/><path fill="#ccc0be" d="M400 0h100v100H400z"/><path fill="#d1c3bb" d="M500 0h100v100H500z"/><path fill="#cfbbb2" d="M600 0h100v100H600z"/><path fill="#c7b8ad" d="M700 0h100v100H700z"/><path fill="#7a8d9c" d="M0 100h100v100H0z"/><path fill="#a07a6b" d="M100 100h100v100H100z"/><path fill="#cebeb2" d="M200 100h100v100H200z"/><path fill="#c8bab2" d="M300 100h100v100H300z"/><path fill="#c3b6b0" d="M400 100h100v100H400z"/><path fill="#d5c5b8" d="M500 100h100v100H500z"/><path fill="#bcac9f" d="M600 100h100v100H600z"/><path fill="#b7ae9a" d="M700 100h100v100H700z"/><path fill="#87868b" d="M0 200h100v100H0z"/><path fill="#937860" d="M100 200h100v100H100z"/><path fill="#d8cfc2" d="M200 200h100v100H200z"/><path fill="#c0adbb" d="M300 200h100v100H300z"/><path fill="#beb0c1" d="M400 200h100v100H400z"/><path fill="#d5c3b9" d="M500 200h100v100H500z"/><path fill="#9e928a" d="M600 200h100v100H600z"/><path fill="#92a28e" d="M700 200h100v100H700z"/><path fill="#92807a" d="M0 300h100v100H0z"/><path fill="#8f6449" d="M100 300h100v100H100z"/><path fill="#9a766f" d="M200 300h100v100H200z"/><path fill="#977176" d="M300 300h100v100H300z"/><path fill="#97787f" d="M400 300h100v100H400z"/><path fill="#987774" d="M500 300h100v100H500z"/><path fill="#966b50" d="M600 300h100v100H600z"/><path fill="#657d6e" d="M700 300h100v100H700z"/><path fill="#957c6f" d="M0 400h100v100H0z"/><path fill="#9c6d57" d="M100 400h100v100H100z"/><path fill="#9f7762" d="M200 400h100v100H200z"/><path fill="#ad8b75" d="M300 400h100v100H300z"/><path fill="#ab8e7e" d="M400 400h100v100H400z"/><path fill="#b09385" d="M500 400h100v100H500z"/><path fill="#b4917f" d="M600 400h100v100H600z"/><path fill="#a58471" d="M700 400h100v100H700z"/></svg>