<svg xmlns="http://www.w3.org/2000/svg" viewBox="0 0 800 600"><defs/><path fill="#b9a394" d="M0 0h100v100H0z"/><path fill="#c5ac99" d="M100 0h100v100H100z"/><path fill="#c6b7a2" d="M200 0h100v100H200z"/><path fill="#cfc3ab" d="M300 0h100v100H300z"/><path fill="#d9ceb2" d="M400 0h100v100H400z"/><path fill="#e4ddbd" d="M500 0h100v100H500z"/><path fill="#e8dcc5" d="M600 0h100v100H600z"/><path fill="#efe1d5" d="M700 0h100v100H700z"/><path fill="#a17b48" d="M0 100h100v100H0z"/><path fill="#b0935a" d="M100 100h100v100H100z"/><path fill="#98943b" d="M200 100h100v100H200z"/><path fill="#98914e" d="M300 100h100v100H300z"/><path fill="#a59671" d="M400 100h100v100H400z"/><path fill="#bec349" d="M500 100h100v100H500z"/><path fill="#d4d184" d="M600 100h100v100H600z"/><path fill="#dbc39b" d="M700 100h100v100H700z"/><path fill="#b6935c" d="M0 200h100v100H0z"/><path fill="#b29a75" d="M100 200h100v100H100z"/><path fill="#9e836f" d="M200 200h100v100H200z"/><path fill="#b48479" d="M300 200h100v100H300z"/><path fill="#b09596" d="M400 200h100v100H400z"/><path fill="#b79386" d="M500 200h100v100H500z"/><path fill="#b8a890" d="M600 200h100v100H600z"/><path fill="#d7c2a6" d="M700 200h100v100H700z"/><path fill="#b59262" d="M0 300h100v100H0z"/><path fill="#a48e6b" d="M100 300h100v100H100z"/><path fill="#aea6ac" d="M200 300h100v100H200z"/><path fill="#beafb9" d="M300 300h100v100H300z"/><path fill="#c6afb7" d="M400 300h100v100H400z"/><path fill="#af8991" d="M500 300h100v100H500z"/><path fill="#7e736c" d="M600 300h100v100H600z"/><path fill="#b89d8a" d="M700 300h100v100H700z"/><path fill="#ac8f78" d="M0 400h100v100H0z"/><path fill="#a69383" d="M100 400h100v100H100z"/><path fill="#afa39b" d="M200 400h100v100H200z"/><path fill="#b3abaf" d="M300 400h100v100H300z"/><path fill="#c1b7c1" d="M400 400h100v100H400z"/><path fill="#cabfc3" d="M500 400h100v100H500z"/><path fill="#ab7e77" d="M600 400h100v100H600z"/><path fill="#b19692" d="M700 400h100v100H700z"/><path fill="#b3aeaf" d="M0 500h100v100H0z"/><path fill="#b3adab" d="M100 500h100v100H100z"/><path fill="#b4adb4" d="M200 500h100v100H200z"/><path fill="#b8b2bc" d="M300 500h100v100H300z"/><path fill="#c6c3d0" d="M400 500h100v100H400z"/><path fill="#d0d0dc" d="M500 500h100v100H500z"/><path fill="#e0e2eb" d="M600 500h100v100H600z"/><path fill="#e3e7ee" d="M700 500h100v100H700z"/></svg>