<svg xmlns="http://www.w3.org/2000/svg" viewBox="0 0 800 500"><defs/><path fill="#b7b7b7" d="M0 0h100v100H0z"/><path fill="#b6b6b6" d="M100 0h100v100H100z"/><path fill="#ababab" d="M200 0h100v100H200z"/><path fill="#acacac" d="M300 0h100v100H300z"/><path fill="#bdbdbd" d="M400 0h100v100H400z"/><path fill="#e8e8e8" d="M500 0h100v100H500z"/><path fill="#e3e3e3" d="M600 0h100v100H600z"/><path fill="#dadada" d="M700 0h100v100H700z"/><path fill="#b3b3b3" d="M0 100h100v100H0z"/><path fill="#afafaf" d="M100 100h100v100H100z"/><path fill="#b4b4b4" d="M200 100h100v100H200zm100 0h100v100H300z"/><path fill="#b5b5b5" d="M400 100h100v100H400z"/><path fill="#d7d7d7" d="M500 100h100v100H500z"/><path fill="#e8e8e8" d="M600 100h100v100H600z"/><path fill="#b6b6b6" d="M700 100h100v100H700z"/><path fill="#ababab" d="M0 200h100v100H0z"/><path fill="#acacac" d="M100 200h100v100H100z"/><path fill="#cecece" d="M200 200h100v100H200z"/><path fill="#bababa" d="M300 200h100v100H300z"/><path fill="#c7c7c7" d="M400 200h100v100H400z"/><path fill="#bfbfbf" d="M500 200h100v100H500z"/><path fill="#c7c7c7" d="M600 200h100v100H600z"/><path fill="#b5b5b5" d="M700 200h100v100H700z"/><path fill="#a9a9a9" d="M0 300h100v100H0z"/><path fill="#8d8d8d" d="M100 300h100v100H100z"/><path fill="#cfcfcf" d="M200 300h100v100H200z"/><path fill="#ddd" d="M300 300h100v100H300z"/><path fill="#cecece" d="M400 300h100v100H400z"/><path fill="#c6c6c6" d="M500 300h100v100H500z"/><path fill="#c2c2c2" d="M600 300h100v100H600z"/><path fill="#d2d2d2" d="M700 300h100v100H700z"/><path fill="#ccc" d="M0 400h100v100H0z"/><path fill="#c7c7c7" d="M100 400h100v100H100z"/><path fill="#e6e6e6" d="M200 400h100v100H200z"/><path fill="#e5e5e5" d="M300 400h100v100H300z"/><path fill="#dbdbdb" d="M400 400h100v100H400z"/><path fill="#e8e8e8" d="M500 400h100v100H500z"/><path fill="#dedede" d="M600 400h100v100H600z"/><path fill="#d8d8d8" d="M700 400h100v100H700z"/></svg>