<svg xmlns="http://www.w3.org/2000/svg" viewBox="0 0 800 500"><defs/><path fill="#92afba" d="M0 0h100v100H0z"/><path fill="#aaa58e" d="M100 0h100v100H100z"/><path fill="#78969d" d="M200 0h100v100H200z"/><path fill="#6696a8" d="M300 0h100v100H300z"/><path fill="#6a93a2" d="M400 0h100v100H400z"/><path fill="#6490a1" d="M500 0h100v100H500z"/><path fill="#6691a2" d="M600 0h100v100H600z"/><path fill="#7397a6" d="M700 0h100v100H700z"/><path fill="#7a98a0" d="M0 100h100v100H0z"/><path fill="#928965" d="M100 100h100v100H100z"/><path fill="#3d6672" d="M200 100h100v100H200z"/><path fill="#294f61" d="M300 100h100v100H300z"/><path fill="#2a5d71" d="M400 100h100v100H400z"/><path fill="#497384" d="M500 100h100v100H500z"/><path fill="#2c5d71" d="M600 100h100v100H600z"/><path fill="#407589" d="M700 100h100v100H700z"/><path fill="#92a29e" d="M0 200h100v100H0z"/><path fill="#8f9075" d="M100 200h100v100H100z"/><path fill="#423e43" d="M200 200h100v100H200z"/><path fill="#240c10" d="M300 200h100v100H300z"/><path fill="#32647b" d="M400 200h100v100H400z"/><path fill="#615f63" d="M500 200h100v100H500z"/><path fill="#443631" d="M600 200h100v100H600z"/><path fill="#4c869a" d="M700 200h100v100H700z"/><path fill="#a5a99b" d="M0 300h100v100H0z"/><path fill="#72633a" d="M100 300h100v100H100z"/><path fill="#341608" d="M200 300h100v100H200z"/><path fill="#1f070d" d="M300 300h100v100H300z"/><path fill="#363531" d="M400 300h100v100H400z"/><path fill="#3d2727" d="M500 300h100v100H500z"/><path fill="#3d1600" d="M600 300h100v100H600z"/><path fill="#436467" d="M700 300h100v100H700z"/><path fill="#b5b1a1" d="M0 400h100v100H0z"/><path fill="#7f6b4b" d="M100 400h100v100H100z"/><path fill="#665239" d="M200 400h100v100H200z"/><path fill="#63513f" d="M300 400h100v100H300z"/><path fill="#685843" d="M400 400h100v100H400z"/><path fill="#665240" d="M500 400h100v100H500z"/><path fill="#5e472e" d="M600 400h100v100H600z"/><path fill="#6a6759" d="M700 400h100v100H700z"/></svg>