<svg xmlns="http://www.w3.org/2000/svg" viewBox="0 0 800 600"><defs/><path fill="#eaf0fa" d="M0 0h100v100H0z"/><path fill="#dddbdb" d="M100 0h100v100H100z"/><path fill="#dee0e1" d="M200 0h100v100H200z"/><path fill="#eaedf7" d="M300 0h100v100H300z"/><path fill="#f0f4ff" d="M400 0h100v100H400z"/><path fill="#ecf1fe" d="M500 0h100v100H500z"/><path fill="#ecf2fe" d="M600 0h100v100H600z"/><path fill="#eef3fd" d="M700 0h100v100H700z"/><path fill="#8994b8" d="M0 100h100v100H0z"/><path fill="#6e5c55" d="M100 100h100v100H100z"/><path fill="#484442" d="M200 100h100v100H200z"/><path fill="#525c5f" d="M300 100h100v100H300z"/><path fill="#507582" d="M400 100h100v100H400z"/><path fill="#4c6a86" d="M500 100h100v100H500z"/><path fill="#58686c" d="M600 100h100v100H600z"/><path fill="#8ca1c0" d="M700 100h100v100H700z"/><path fill="#9399b6" d="M0 200h100v100H0z"/><path fill="#73605f" d="M100 200h100v100H100z"/><path fill="#454350" d="M200 200h100v100H200z"/><path fill="#2e4720" d="M300 200h100v100H300z"/><path fill="#18501f" d="M400 200h100v100H400z"/><path fill="#255531" d="M500 200h100v100H500z"/><path fill="#516f72" d="M600 200h100v100H600z"/><path fill="#7b93af" d="M700 200h100v100H700z"/><path fill="#a1a7b5" d="M0 300h100v100H0z"/><path fill="#675855" d="M100 300h100v100H100z"/><path fill="#574690" d="M200 300h100v100H200z"/><path fill="#635068" d="M300 300h100v100H300z"/><path fill="#67583a" d="M400 300h100v100H400z"/><path fill="#8d8772" d="M500 300h100v100H500z"/><path fill="#beac90" d="M600 300h100v100H600z"/><path fill="#a6aebf" d="M700 300h100v100H700z"/><path fill="#928985" d="M0 400h100v100H0z"/><path fill="#95784c" d="M100 400h100v100H100z"/><path fill="#8669ad" d="M200 400h100v100H200z"/><path fill="#81619c" d="M300 400h100v100H300z"/><path fill="#a39271" d="M400 400h100v100H400z"/><path fill="#cdaf76" d="M500 400h100v100H500z"/><path fill="#e59c28" d="M600 400h100v100H600z"/><path fill="#c99f5e" d="M700 400h100v100H700z"/><path fill="#dcd5cc" d="M0 500h100v100H0z"/><path fill="#f2e7cc" d="M100 500h100v100H100z"/><path fill="#f6efd4" d="M200 500h100v100H200z"/><path fill="#eae3d1" d="M300 500h100v100H300z"/><path fill="#eee8d3" d="M400 500h100v100H400z"/><path fill="#eae1c9" d="M500 500h100v100H500z"/><path fill="#e6d5b5" d="M600 500h100v100H600z"/><path fill="#e6d7ba" d="M700 500h100v100H700z"/></svg>