<svg xmlns="http://www.w3.org/2000/svg" viewBox="0 0 800 600"><defs/><path fill="#535452" d="M0 0h100v100H0z"/><path fill="#3f3b37" d="M100 0h100v100H100z"/><path fill="#9d9892" d="M200 0h100v100H200z"/><path fill="#aaa7a2" d="M300 0h100v100H300z"/><path fill="#b8b5af" d="M400 0h100v100H400z"/><path fill="#bab7b2" d="M500 0h100v100H500z"/><path fill="#b7b4af" d="M600 0h100v100H600z"/><path fill="#b1ada9" d="M700 0h100v100H700z"/><path fill="#494a48" d="M0 100h100v100H0z"/><path fill="#6e6a63" d="M100 100h100v100H100z"/><path fill="#a5a097" d="M200 100h100v100H200z"/><path fill="#a9a6a1" d="M300 100h100v100H300z"/><path fill="#bcb8b3" d="M400 100h100v100H400z"/><path fill="#b9b3ae" d="M500 100h100v100H500z"/><path fill="#b6b1ac" d="M600 100h100v100H600z"/><path fill="#b8b6b1" d="M700 100h100v100H700z"/><path fill="#342f2d" d="M0 200h100v100H0z"/><path fill="#72594d" d="M100 200h100v100H100z"/><path fill="#978d82" d="M200 200h100v100H200z"/><path fill="#a19b95" d="M300 200h100v100H300z"/><path fill="#b6b0aa" d="M400 200h100v100H400z"/><path fill="#b9ada7" d="M500 200h100v100H500z"/><path fill="#c5beb6" d="M600 200h100v100H600z"/><path fill="#a9958e" d="M700 200h100v100H700z"/><path fill="#2b2726" d="M0 300h100v100H0z"/><path fill="#50373b" d="M100 300h100v100H100z"/><path fill="#46545e" d="M200 300h100v100H200z"/><path fill="#505e68" d="M300 300h100v100H300z"/><path fill="#74635f" d="M400 300h100v100H400z"/><path fill="#c69882" d="M500 300h100v100H500z"/><path fill="#cba48d" d="M600 300h100v100H600z"/><path fill="#866457" d="M700 300h100v100H700z"/><path fill="#3b3127" d="M0 400h100v100H0z"/><path fill="#857873" d="M100 400h100v100H100z"/><path fill="#5e3636" d="M200 400h100v100H200z"/><path fill="#2a3a47" d="M300 400h100v100H300z"/><path fill="#592d35" d="M400 400h100v100H400z"/><path fill="#9a6831" d="M500 400h100v100H500z"/><path fill="#b47a63" d="M600 400h100v100H600z"/><path fill="#795641" d="M700 400h100v100H700z"/><path fill="#4d3928" d="M0 500h100v100H0z"/><path fill="#81756b" d="M100 500h100v100H100z"/><path fill="#694f45" d="M200 500h100v100H200z"/><path fill="#8a7c79" d="M300 500h100v100H300z"/><path fill="#8d5859" d="M400 500h100v100H400z"/><path fill="#9f816f" d="M500 500h100v100H500z"/><path fill="#bb988a" d="M600 500h100v100H600z"/><path fill="#7c5641" d="M700 500h100v100H700z"/></svg>