<svg xmlns="http://www.w3.org/2000/svg" viewBox="0 0 800 300"><defs/><path fill="#a69983" d="M0 0h100v100H0z"/><path fill="#864349" d="M100 0h100v100H100z"/><path fill="#626b7f" d="M200 0h100v100H200z"/><path fill="#2a502f" d="M300 0h100v100H300z"/><path fill="#224c03" d="M400 0h100v100H400z"/><path fill="#4e652a" d="M500 0h100v100H500z"/><path fill="#9f8a89" d="M600 0h100v100H600z"/><path fill="#7c6fa8" d="M700 0h100v100H700z"/><path fill="#916364" d="M0 100h100v100H0z"/><path fill="#966055" d="M100 100h100v100H100z"/><path fill="#8e7677" d="M200 100h100v100H200z"/><path fill="#84818d" d="M300 100h100v100H300z"/><path fill="#6e4b40" d="M400 100h100v100H400z"/><path fill="#91846a" d="M500 100h100v100H500z"/><path fill="#948c7e" d="M600 100h100v100H600z"/><path fill="#90805c" d="M700 100h100v100H700z"/><path fill="#966568" d="M0 200h100v100H0z"/><path fill="#a28563" d="M100 200h100v100H100z"/><path fill="#e4bf38" d="M200 200h100v100H200z"/><path fill="#ebcc4e" d="M300 200h100v100H300z"/><path fill="#a08864" d="M400 200h100v100H400z"/><path fill="#4c7648" d="M500 200h100v100H500z"/><path fill="#578084" d="M600 200h100v100H600z"/><path fill="#678170" d="M700 200h100v100H700z"/></svg>