<svg xmlns="http://www.w3.org/2000/svg" viewBox="0 0 800 400"><defs/><path fill="#676767" d="M0 0h100v100H0z"/><path fill="#727272" d="M100 0h100v100H100z"/><path fill="#7a7a7a" d="M200 0h100v100H200z"/><path fill="#acacac" d="M300 0h100v100H300z"/><path fill="#838383" d="M400 0h100v100H400z"/><path fill="#474747" d="M500 0h100v100H500z"/><path fill="#666" d="M600 0h100v100H600zm100 0h100v100H700z"/><path fill="#787878" d="M0 100h100v100H0z"/><path fill="#898989" d="M100 100h100v100H100z"/><path fill="#7b7b7b" d="M200 100h100v100H200z"/><path fill="#959595" d="M300 100h100v100H300z"/><path fill="#989898" d="M400 100h100v100H400z"/><path fill="#585858" d="M500 100h100v100H500z"/><path fill="#636363" d="M600 100h100v100H600z"/><path fill="#666" d="M700 100h100v100H700z"/><path fill="#8c8c8c" d="M0 200h100v100H0z"/><path fill="#939393" d="M100 200h100v100H100z"/><path fill="#777" d="M200 200h100v100H200z"/><path fill="#7b7b7b" d="M300 200h100v100H300z"/><path fill="#b2b2b2" d="M400 200h100v100H400z"/><path fill="#9c9c9c" d="M500 200h100v100H500z"/><path fill="#767676" d="M600 200h100v100H600z"/><path fill="#878787" d="M700 200h100v100H700z"/><path fill="#909090" d="M0 300h100v100H0z"/><path fill="gray" d="M100 300h100v100H100z"/><path fill="#b3b3b3" d="M200 300h100v100H200z"/><path fill="#a1a1a1" d="M300 300h100v100H300z"/><path fill="#838383" d="M400 300h100v100H400z"/><path fill="#a1a1a1" d="M500 300h100v100H500z"/><path fill="#898989" d="M600 300h100v100H600z"/><path fill="#8b8b8b" d="M700 300h100v100H700z"/></svg>