<svg xmlns="http://www.w3.org/2000/svg" viewBox="0 0 800 600"><defs/><path fill="#fafbfb" d="M0 0h100v100H0z"/><path fill="#f4f5f5" d="M100 0h100v100H100z"/><path fill="#e8eaeb" d="M200 0h100v100H200z"/><path fill="#e8eaee" d="M300 0h100v100H300z"/><path fill="#e6e8ea" d="M400 0h100v100H400z"/><path fill="#eaecef" d="M500 0h100v100H500z"/><path fill="#f3f6f6" d="M600 0h100v100H600z"/><path fill="#f6f7f7" d="M700 0h100v100H700z"/><path fill="#e4e7e7" d="M0 100h100v100H0z"/><path fill="#c3cfcf" d="M100 100h100v100H100z"/><path fill="#bcc3c6" d="M200 100h100v100H200z"/><path fill="#cbcfd3" d="M300 100h100v100H300z"/><path fill="#d0d5da" d="M400 100h100v100H400z"/><path fill="#c5cacd" d="M500 100h100v100H500z"/><path fill="#ced5d5" d="M600 100h100v100H600z"/><path fill="#e9eeee" d="M700 100h100v100H700z"/><path fill="#dde2e1" d="M0 200h100v100H0z"/><path fill="#adbcbc" d="M100 200h100v100H100z"/><path fill="#c3c7cb" d="M200 200h100v100H200z"/><path fill="#cdced0" d="M300 200h100v100H300z"/><path fill="#d0d2d5" d="M400 200h100v100H400z"/><path fill="#b5b8bd" d="M500 200h100v100H500z"/><path fill="#babec1" d="M600 200h100v100H600z"/><path fill="#e3e7e6" d="M700 200h100v100H700z"/><path fill="#dbe2e3" d="M0 300h100v100H0z"/><path fill="#a9bbbb" d="M100 300h100v100H100z"/><path fill="#cdd1d2" d="M200 300h100v100H200z"/><path fill="#c4c6c6" d="M300 300h100v100H300z"/><path fill="#c9cccd" d="M400 300h100v100H400z"/><path fill="#adafb2" d="M500 300h100v100H500z"/><path fill="#9a9da0" d="M600 300h100v100H600z"/><path fill="#e1e3e4" d="M700 300h100v100H700z"/><path fill="#dae4e3" d="M0 400h100v100H0z"/><path fill="#acbcbb" d="M100 400h100v100H100z"/><path fill="#bbbebf" d="M200 400h100v100H200z"/><path fill="#b1b4b6" d="M300 400h100v100H300z"/><path fill="#aaacaf" d="M400 400h100v100H400z"/><path fill="#c3c5c6" d="M500 400h100v100H500z"/><path fill="#aeb1b3" d="M600 400h100v100H600z"/><path fill="#cfd2d1" d="M700 400h100v100H700z"/><path fill="#ecf0f0" d="M0 500h100v100H0z"/><path fill="#d6dcde" d="M100 500h100v100H100z"/><path fill="#dcdfe0" d="M200 500h100v100H200z"/><path fill="#d7dadb" d="M300 500h100v100H300z"/><path fill="#d6d7d8" d="M400 500h100v100H400z"/><path fill="#dbdcdc" d="M500 500h100v100H500z"/><path fill="#cfd1d2" d="M600 500h100v100H600z"/><path fill="#dfe1e1" d="M700 500h100v100H700z"/></svg>