<svg xmlns="http://www.w3.org/2000/svg" viewBox="0 0 800 500"><defs/><path fill="#919191" d="M0 0h100v100H0z"/><path fill="#b0b0b0" d="M100 0h100v100H100z"/><path fill="#a7a7a7" d="M200 0h100v100H200z"/><path fill="#aaa" d="M300 0h100v100H300z"/><path fill="#b9b9b9" d="M400 0h100v100H400z"/><path fill="#cecece" d="M500 0h100v100H500z"/><path fill="#d0d0d0" d="M600 0h100v100H600z"/><path fill="#c3c3c3" d="M700 0h100v100H700z"/><path fill="#929292" d="M0 100h100v100H0z"/><path fill="#a8a8a8" d="M100 100h100v100H100z"/><path fill="#cdcdcd" d="M200 100h100v100H200z"/><path fill="#a8a8a8" d="M300 100h100v100H300z"/><path fill="#7e7e7e" d="M400 100h100v100H400z"/><path fill="#999" d="M500 100h100v100H500z"/><path fill="#9c9c9c" d="M600 100h100v100H600z"/><path fill="#b7b7b7" d="M700 100h100v100H700z"/><path fill="#a5a5a5" d="M0 200h100v100H0z"/><path fill="#afafaf" d="M100 200h100v100H100z"/><path fill="#dcdcdc" d="M200 200h100v100H200z"/><path fill="#b2b2b2" d="M300 200h100v100H300z"/><path fill="#767676" d="M400 200h100v100H400z"/><path fill="#979797" d="M500 200h100v100H500z"/><path fill="#a0a0a0" d="M600 200h100v100H600z"/><path fill="#afafaf" d="M700 200h100v100H700z"/><path fill="#a1a1a1" d="M0 300h100v100H0z"/><path fill="#aeaeae" d="M100 300h100v100H100z"/><path fill="#c9c9c9" d="M200 300h100v100H200z"/><path fill="#bfbfbf" d="M300 300h100v100H300z"/><path fill="#d6d6d6" d="M400 300h100v100H400z"/><path fill="#bebebe" d="M500 300h100v100H500z"/><path fill="#bdbdbd" d="M600 300h100v100H600z"/><path fill="#aeaeae" d="M700 300h100v100H700z"/><path fill="#a5a5a5" d="M0 400h100v100H0z"/><path fill="#c3c3c3" d="M100 400h100v100H100z"/><path fill="#c7c7c7" d="M200 400h100v100H200zm100 0h100v100H300z"/><path fill="#e8e8e8" d="M400 400h100v100H400z"/><path fill="#cdcdcd" d="M500 400h100v100H500z"/><path fill="#a3a3a3" d="M600 400h100v100H600z"/><path fill="#999" d="M700 400h100v100H700z"/></svg>