<svg xmlns="http://www.w3.org/2000/svg" viewBox="0 0 800 500"><defs/><path fill="#8c7b6f" d="M0 0h100v100H0z"/><path fill="#918273" d="M100 0h100v100H100z"/><path fill="#9e8862" d="M200 0h100v100H200z"/><path fill="#959385" d="M300 0h100v100H300z"/><path fill="#aba39d" d="M400 0h100v100H400z"/><path fill="#b3aaa5" d="M500 0h100v100H500z"/><path fill="#b0a39d" d="M600 0h100v100H600z"/><path fill="#c4b8b0" d="M700 0h100v100H700z"/><path fill="#887160" d="M0 100h100v100H0z"/><path fill="#8e7a62" d="M100 100h100v100H100z"/><path fill="#a59779" d="M200 100h100v100H200z"/><path fill="#c4c2c2" d="M300 100h100v100H300z"/><path fill="#a69e99" d="M400 100h100v100H400z"/><path fill="#a49d93" d="M500 100h100v100H500z"/><path fill="#92897d" d="M600 100h100v100H600z"/><path fill="#b4aaa4" d="M700 100h100v100H700z"/><path fill="#887c68" d="M0 200h100v100H0z"/><path fill="#8d7c5b" d="M100 200h100v100H100z"/><path fill="#998972" d="M200 200h100v100H200z"/><path fill="#aaa095" d="M300 200h100v100H300z"/><path fill="#aa9e94" d="M400 200h100v100H400z"/><path fill="#b0aca9" d="M500 200h100v100H500z"/><path fill="#b6b1a7" d="M600 200h100v100H600z"/><path fill="#c7beb6" d="M700 200h100v100H700z"/><path fill="#9b937b" d="M0 300h100v100H0z"/><path fill="#927d4e" d="M100 300h100v100H100z"/><path fill="#8b7d65" d="M200 300h100v100H200z"/><path fill="#bbbcb6" d="M300 300h100v100H300z"/><path fill="#cfcfd0" d="M400 300h100v100H400z"/><path fill="#d1cdc4" d="M500 300h100v100H500z"/><path fill="#b8ab93" d="M600 300h100v100H600z"/><path fill="#b3a696" d="M700 300h100v100H700z"/><path fill="#a18660" d="M0 400h100v100H0z"/><path fill="#a9926c" d="M100 400h100v100H100z"/><path fill="#97a7b6" d="M200 400h100v100H200z"/><path fill="#acc1dc" d="M300 400h100v100H300z"/><path fill="#becee8" d="M400 400h100v100H400z"/><path fill="#c6cdd4" d="M500 400h100v100H500z"/><path fill="#c0ad87" d="M600 400h100v100H600z"/><path fill="#ad9874" d="M700 400h100v100H700z"/></svg>