<svg xmlns="http://www.w3.org/2000/svg" viewBox="0 0 800 500"><defs/><path fill="#dbe5ea" d="M0 0h100v100H0z"/><path fill="#cccbc2" d="M100 0h100v100H100z"/><path fill="#c1dddb" d="M200 0h100v100H200z"/><path fill="#d9b3b4" d="M300 0h100v100H300z"/><path fill="#cfa4bb" d="M400 0h100v100H400z"/><path fill="#b7dbe0" d="M500 0h100v100H500z"/><path fill="#b1cbc4" d="M600 0h100v100H600z"/><path fill="#c4d6c9" d="M700 0h100v100H700z"/><path fill="#ccc5c2" d="M0 100h100v100H0z"/><path fill="#adaea3" d="M100 100h100v100H100z"/><path fill="#82a497" d="M200 100h100v100H200z"/><path fill="#8fa29f" d="M300 100h100v100H300z"/><path fill="#929ba1" d="M400 100h100v100H400z"/><path fill="#569b82" d="M500 100h100v100H500z"/><path fill="#709d94" d="M600 100h100v100H600z"/><path fill="#a5b49a" d="M700 100h100v100H700z"/><path fill="#d1cecb" d="M0 200h100v100H0z"/><path fill="#bac3c0" d="M100 200h100v100H100z"/><path fill="#9a8d7c" d="M200 200h100v100H200z"/><path fill="#819c94" d="M300 200h100v100H300z"/><path fill="#9c8e74" d="M400 200h100v100H400z"/><path fill="#a24a4e" d="M500 200h100v100H500z"/><path fill="#6d6c72" d="M600 200h100v100H600z"/><path fill="#6a6f65" d="M700 200h100v100H700z"/><path fill="#cacdc9" d="M0 300h100v100H0z"/><path fill="#b5b3af" d="M100 300h100v100H100z"/><path fill="#a8876e" d="M200 300h100v100H200z"/><path fill="#8b6a5d" d="M300 300h100v100H300z"/><path fill="#6e4230" d="M400 300h100v100H400z"/><path fill="#ac5666" d="M500 300h100v100H500z"/><path fill="#ac9ca2" d="M600 300h100v100H600z"/><path fill="#7f7b6e" d="M700 300h100v100H700z"/><path fill="#d9dad7" d="M0 400h100v100H0z"/><path fill="#d6d8d8" d="M100 400h100v100H100z"/><path fill="#ddd2d5" d="M200 400h100v100H200z"/><path fill="#d7c7c6" d="M300 400h100v100H300z"/><path fill="#bcb1a7" d="M400 400h100v100H400z"/><path fill="#d2dbd6" d="M500 400h100v100H500z"/><path fill="#dde7ec" d="M600 400h100v100H600z"/><path fill="#dacbb0" d="M700 400h100v100H700z"/></svg>