<svg xmlns="http://www.w3.org/2000/svg" viewBox="0 0 800 600"><defs/><path fill="#bcbeb9" d="M0 0h100v100H0z"/><path fill="#cac8c8" d="M100 0h100v100H100z"/><path fill="#b8bcba" d="M200 0h100v100H200z"/><path fill="#b3bbb6" d="M300 0h100v100H300z"/><path fill="#b5c2c2" d="M400 0h100v100H400z"/><path fill="#bdc3c3" d="M500 0h100v100H500z"/><path fill="#beb7b2" d="M600 0h100v100H600z"/><path fill="#cccbcc" d="M700 0h100v100H700z"/><path fill="#91a794" d="M0 100h100v100H0z"/><path fill="#c1c4bc" d="M100 100h100v100H100z"/><path fill="#afa399" d="M200 100h100v100H200z"/><path fill="#9e8d76" d="M300 100h100v100H300z"/><path fill="#9c9686" d="M400 100h100v100H400z"/><path fill="#b1a09c" d="M500 100h100v100H500z"/><path fill="#b8afaf" d="M600 100h100v100H600z"/><path fill="#d7d7dc" d="M700 100h100v100H700z"/><path fill="#54754d" d="M0 200h100v100H0z"/><path fill="#b0b8ab" d="M100 200h100v100H100z"/><path fill="#a59293" d="M200 200h100v100H200z"/><path fill="#ae8982" d="M300 200h100v100H300z"/><path fill="#b3948d" d="M400 200h100v100H400z"/><path fill="#a08982" d="M500 200h100v100H500z"/><path fill="#b3ab99" d="M600 200h100v100H600z"/><path fill="#cdcccf" d="M700 200h100v100H700z"/><path fill="#828a4a" d="M0 300h100v100H0z"/><path fill="#afae91" d="M100 300h100v100H100z"/><path fill="#b0a09d" d="M200 300h100v100H200z"/><path fill="#be917c" d="M300 300h100v100H300z"/><path fill="#ba907d" d="M400 300h100v100H400z"/><path fill="#b2a2a0" d="M500 300h100v100H500z"/><path fill="#b7ab9a" d="M600 300h100v100H600z"/><path fill="#bdc0c8" d="M700 300h100v100H700z"/><path fill="#8f9457" d="M0 400h100v100H0z"/><path fill="#c6c0c2" d="M100 400h100v100H100z"/><path fill="#bab0b6" d="M200 400h100v100H200z"/><path fill="#ccb2c1" d="M300 400h100v100H300z"/><path fill="#c5adbe" d="M400 400h100v100H400z"/><path fill="#cccdda" d="M500 400h100v100H500z"/><path fill="#cfd1da" d="M600 400h100v100H600z"/><path fill="#bab2b4" d="M700 400h100v100H700z"/><path fill="#a49d7d" d="M0 500h100v100H0z"/><path fill="#c9c2c7" d="M100 500h100v100H100z"/><path fill="#cbc4cf" d="M200 500h100v100H200z"/><path fill="#d2c5d3" d="M300 500h100v100H300z"/><path fill="#cac0cd" d="M400 500h100v100H400z"/><path fill="#c2bdc6" d="M500 500h100v100H500z"/><path fill="#c3bdc6" d="M600 500h100v100H600z"/><path fill="#bab1c7" d="M700 500h100v100H700z"/></svg>