<svg xmlns="http://www.w3.org/2000/svg" viewBox="0 0 800 400"><defs/><path fill="#94a9b3" d="M0 0h100v100H0z"/><path fill="#698496" d="M100 0h100v100H100z"/><path fill="#6e9eaf" d="M200 0h100v100H200z"/><path fill="#aebdc3" d="M300 0h100v100H300z"/><path fill="#b7c3c7" d="M400 0h100v100H400z"/><path fill="#7d9ba5" d="M500 0h100v100H500z"/><path fill="#446a78" d="M600 0h100v100H600z"/><path fill="#7699a7" d="M700 0h100v100H700z"/><path fill="#7b9ca8" d="M0 100h100v100H0z"/><path fill="#48667c" d="M100 100h100v100H100z"/><path fill="#98b3bd" d="M200 100h100v100H200z"/><path fill="#d5cdca" d="M300 100h100v100H300z"/><path fill="#d3ccca" d="M400 100h100v100H400z"/><path fill="#829ba4" d="M500 100h100v100H500z"/><path fill="#104558" d="M600 100h100v100H600z"/><path fill="#517a88" d="M700 100h100v100H700z"/><path fill="#7ba3b1" d="M0 200h100v100H0z"/><path fill="#36778f" d="M100 200h100v100H100z"/><path fill="#4a8499" d="M200 200h100v100H200z"/><path fill="#99b9c3" d="M300 200h100v100H300z"/><path fill="#8db2bf" d="M400 200h100v100H400z"/><path fill="#397d95" d="M500 200h100v100H500z"/><path fill="#18576e" d="M600 200h100v100H600z"/><path fill="#557e8d" d="M700 200h100v100H700z"/><path fill="#74a1b0" d="M0 300h100v100H0z"/><path fill="#296a82" d="M100 300h100v100H100z"/><path fill="#33748c" d="M200 300h100v100H200z"/><path fill="#30758e" d="M300 300h100v100H300z"/><path fill="#34748d" d="M400 300h100v100H400z"/><path fill="#3d7589" d="M500 300h100v100H500z"/><path fill="#2e697f" d="M600 300h100v100H600z"/><path fill="#58818f" d="M700 300h100v100H700z"/></svg>