<svg xmlns="http://www.w3.org/2000/svg" viewBox="0 0 800 600"><defs/><path fill="#c0c2bc" d="M0 0h100v100H0z"/><path fill="#c1bcb4" d="M100 0h100v100H100z"/><path fill="#c2c0b8" d="M200 0h100v100H200z"/><path fill="#c1bfb8" d="M300 0h100v100H300z"/><path fill="#c1c0b8" d="M400 0h100v100H400z"/><path fill="#bec0b9" d="M500 0h100v100H500z"/><path fill="#c0bfb8" d="M600 0h100v100H600z"/><path fill="#bec3bc" d="M700 0h100v100H700z"/><path fill="#b7b5ae" d="M0 100h100v100H0z"/><path fill="#ac9587" d="M100 100h100v100H100z"/><path fill="#afa59b" d="M200 100h100v100H200z"/><path fill="#b9a69d" d="M300 100h100v100H300z"/><path fill="#bbaea6" d="M400 100h100v100H400z"/><path fill="#b8aea7" d="M500 100h100v100H500z"/><path fill="#baada4" d="M600 100h100v100H600z"/><path fill="#b4b9b2" d="M700 100h100v100H700z"/><path fill="#b4aaa2" d="M0 200h100v100H0z"/><path fill="#a88f80" d="M100 200h100v100H100z"/><path fill="#aaa7a0" d="M200 200h100v100H200z"/><path fill="#b7a79f" d="M300 200h100v100H300z"/><path fill="#b8aba2" d="M400 200h100v100H400z"/><path fill="#bfaea2" d="M500 200h100v100H500z"/><path fill="#b5a9a2" d="M600 200h100v100H600z"/><path fill="#8ca899" d="M700 200h100v100H700z"/><path fill="#a0968d" d="M0 300h100v100H0z"/><path fill="#a18877" d="M100 300h100v100H100z"/><path fill="#a0897d" d="M200 300h100v100H200z"/><path fill="#a9948a" d="M300 300h100v100H300z"/><path fill="#acaead" d="M400 300h100v100H400z"/><path fill="#a2a3a2" d="M500 300h100v100H500z"/><path fill="#9e9690" d="M600 300h100v100H600z"/><path fill="#89a899" d="M700 300h100v100H700z"/><path fill="#8d7a6e" d="M0 400h100v100H0z"/><path fill="#9c8d80" d="M100 400h100v100H100z"/><path fill="#9d8e83" d="M200 400h100v100H200z"/><path fill="#a2958d" d="M300 400h100v100H300z"/><path fill="#a7aaa7" d="M400 400h100v100H400z"/><path fill="#a5a7a4" d="M500 400h100v100H500z"/><path fill="#a3a29c" d="M600 400h100v100H600z"/><path fill="#aaafa7" d="M700 400h100v100H700z"/><path fill="#9a9289" d="M0 500h100v100H0z"/><path fill="#9f9a95" d="M100 500h100v100H100z"/><path fill="#a2a29d" d="M200 500h100v100H200z"/><path fill="#a5a5a0" d="M300 500h100v100H300z"/><path fill="#a9a7a2" d="M400 500h100v100H400z"/><path fill="#aeaca6" d="M500 500h100v100H500z"/><path fill="#aeafaa" d="M600 500h100v100H600z"/><path fill="#abaca7" d="M700 500h100v100H700z"/></svg>