<svg xmlns="http://www.w3.org/2000/svg" viewBox="0 0 800 500"><defs/><path fill="#fcfcfc" d="M0 0h100v100H0z"/><path fill="#f9f9f9" d="M100 0h100v100H100z"/><path fill="#f8f8f8" d="M200 0h100v100H200z"/><path fill="#f7f7f7" d="M300 0h100v100H300zm100 0h100v100H400zm100 0h100v100H500z"/><path fill="#fbfbfb" d="M600 0h100v100H600z"/><path fill="#f7f7f7" d="M700 0h100v100H700z"/><path fill="#f5f5f5" d="M0 100h100v100H0z"/><path fill="#eaeaea" d="M100 100h100v100H100zm100 0h100v100H200z"/><path fill="#e0e0e0" d="M300 100h100v100H300z"/><path fill="#ddd" d="M400 100h100v100H400z"/><path fill="#ededed" d="M500 100h100v100H500z"/><path fill="#e2e2e2" d="M600 100h100v100H600zm100 0h100v100H700z"/><path fill="#f4f4f4" d="M0 200h100v100H0z"/><path fill="#e9e9e9" d="M100 200h100v100H100z"/><path fill="#d9d9d9" d="M200 200h100v100H200z"/><path fill="#d6d6d6" d="M300 200h100v100H300z"/><path fill="#ddd" d="M400 200h100v100H400z"/><path fill="#e6e6e6" d="M500 200h100v100H500z"/><path fill="#dcdcdc" d="M600 200h100v100H600z"/><path fill="#e9e9e9" d="M700 200h100v100H700z"/><path fill="#f2f2f2" d="M0 300h100v100H0z"/><path fill="#d8d8d8" d="M100 300h100v100H100z"/><path fill="#cbcbcb" d="M200 300h100v100H200z"/><path fill="#cfcfcf" d="M300 300h100v100H300z"/><path fill="#c8c8c8" d="M400 300h100v100H400z"/><path fill="#c6c6c6" d="M500 300h100v100H500z"/><path fill="#cecece" d="M600 300h100v100H600z"/><path fill="#d7d7d7" d="M700 300h100v100H700z"/><path fill="#f0f0f0" d="M0 400h100v100H0z"/><path fill="#eee" d="M100 400h100v100H100z"/><path fill="#f0f0f0" d="M200 400h100v100H200z"/><path fill="#e9e9e9" d="M300 400h100v100H300z"/><path fill="#e3e3e3" d="M400 400h100v100H400z"/><path fill="#d9d9d9" d="M500 400h100v100H500z"/><path fill="#e8e8e8" d="M600 400h100v100H600z"/><path fill="#e6e6e6" d="M700 400h100v100H700z"/></svg>