<svg xmlns="http://www.w3.org/2000/svg" viewBox="0 0 800 500"><defs/><path fill="#c7c7c7" d="M0 0h100v100H0z"/><path fill="#dfe1e0" d="M100 0h100v100H100z"/><path fill="#d7d7d7" d="M200 0h100v100H200z"/><path fill="#e3e3e3" d="M300 0h100v100H300z"/><path fill="#e5e5e5" d="M400 0h100v100H400z"/><path fill="#e7e7e7" d="M500 0h100v100H500z"/><path fill="#cfcfcf" d="M600 0h100v100H600z"/><path fill="#dcdcdd" d="M700 0h100v100H700z"/><path fill="#cfd0d0" d="M0 100h100v100H0z"/><path fill="#d5d7d6" d="M100 100h100v100H100z"/><path fill="#d4d4d4" d="M200 100h100v100H200z"/><path fill="#e2e2e2" d="M300 100h100v100H300z"/><path fill="#d3d3d3" d="M400 100h100v100H400z"/><path fill="#dedede" d="M500 100h100v100H500z"/><path fill="#c7c7c8" d="M600 100h100v100H600z"/><path fill="#d1d1d1" d="M700 100h100v100H700z"/><path fill="#ccc" d="M0 200h100v100H0z"/><path fill="#bfc0c0" d="M100 200h100v100H100z"/><path fill="#d5d5d5" d="M200 200h100v100H200z"/><path fill="#d6d6d6" d="M300 200h100v100H300z"/><path fill="#d3d3d3" d="M400 200h100v100H400z"/><path fill="#cdcdcd" d="M500 200h100v100H500z"/><path fill="#d0d0d0" d="M600 200h100v100H600z"/><path fill="#d3d3d3" d="M700 200h100v100H700z"/><path fill="#c0c1c1" d="M0 300h100v100H0z"/><path fill="#bdbfbe" d="M100 300h100v100H100z"/><path fill="#d6d6d6" d="M200 300h100v100H200z"/><path fill="#c7c7c7" d="M300 300h100v100H300z"/><path fill="#dcdcdc" d="M400 300h100v100H400z"/><path fill="#cecece" d="M500 300h100v100H500z"/><path fill="#c1c1c1" d="M600 300h100v100H600z"/><path fill="#cecece" d="M700 300h100v100H700z"/><path fill="#c4c5c4" d="M0 400h100v100H0z"/><path fill="#d6d6d6" d="M100 400h100v100H100z"/><path fill="#d8d8d8" d="M200 400h100v100H200z"/><path fill="#d2d3d2" d="M300 400h100v100H300z"/><path fill="#dedede" d="M400 400h100v100H400z"/><path fill="#d4d4d4" d="M500 400h100v100H500z"/><path fill="#ccc" d="M600 400h100v100H600z"/><path fill="#cfcfcf" d="M700 400h100v100H700z"/></svg>