<svg xmlns="http://www.w3.org/2000/svg" viewBox="0 0 800 400"><defs/><path fill="#92988b" d="M0 0h100v100H0z"/><path fill="#8d918f" d="M100 0h100v100H100z"/><path fill="#848d8a" d="M200 0h100v100H200z"/><path fill="#8b8f93" d="M300 0h100v100H300z"/><path fill="#878d8b" d="M400 0h100v100H400z"/><path fill="#85807b" d="M500 0h100v100H500z"/><path fill="#968f8d" d="M600 0h100v100H600z"/><path fill="#8c9396" d="M700 0h100v100H700z"/><path fill="#98977f" d="M0 100h100v100H0z"/><path fill="#66797c" d="M100 100h100v100H100z"/><path fill="#638c90" d="M200 100h100v100H200z"/><path fill="#6e766f" d="M300 100h100v100H300z"/><path fill="#637e79" d="M400 100h100v100H400z"/><path fill="#586260" d="M500 100h100v100H500z"/><path fill="#6b5657" d="M600 100h100v100H600z"/><path fill="#716564" d="M700 100h100v100H700z"/><path fill="#8d8764" d="M0 200h100v100H0z"/><path fill="#6d5b69" d="M100 200h100v100H100z"/><path fill="#73666f" d="M200 200h100v100H200z"/><path fill="#676a5f" d="M300 200h100v100H300z"/><path fill="#66736b" d="M400 200h100v100H400z"/><path fill="#525057" d="M500 200h100v100H500z"/><path fill="#615050" d="M600 200h100v100H600z"/><path fill="#615f51" d="M700 200h100v100H700z"/><path fill="#83847e" d="M0 300h100v100H0z"/><path fill="#755262" d="M100 300h100v100H100z"/><path fill="#906b68" d="M200 300h100v100H200z"/><path fill="#859ca9" d="M300 300h100v100H300z"/><path fill="#939a9f" d="M400 300h100v100H400z"/><path fill="#8d8a90" d="M500 300h100v100H500z"/><path fill="#827974" d="M600 300h100v100H600z"/><path fill="#68665f" d="M700 300h100v100H700z"/></svg>