<svg xmlns="http://www.w3.org/2000/svg" viewBox="0 0 800 600"><defs/><path fill="#eee" d="M0 0h100v100H0z"/><path fill="#dfdfde" d="M100 0h100v100H100z"/><path fill="#e3e6e7" d="M200 0h100v100H200z"/><path fill="#e7ebec" d="M300 0h100v100H300z"/><path fill="#eceff2" d="M400 0h100v100H400z"/><path fill="#e3e4e6" d="M500 0h100v100H500z"/><path fill="#e4e4e4" d="M600 0h100v100H600z"/><path fill="#f1f1f1" d="M700 0h100v100H700z"/><path fill="#c1c0c0" d="M0 100h100v100H0z"/><path fill="#747678" d="M100 100h100v100H100z"/><path fill="#6e5950" d="M200 100h100v100H200z"/><path fill="#4e4247" d="M300 100h100v100H300z"/><path fill="#69667e" d="M400 100h100v100H400z"/><path fill="#61525a" d="M500 100h100v100H500z"/><path fill="#b8b9b8" d="M600 100h100v100H600z"/><path fill="#d2d1d2" d="M700 100h100v100H700z"/><path fill="#b9b9b8" d="M0 200h100v100H0z"/><path fill="#66747e" d="M100 200h100v100H100z"/><path fill="#a47957" d="M200 200h100v100H200z"/><path fill="#9d451f" d="M300 200h100v100H300z"/><path fill="#705558" d="M400 200h100v100H400z"/><path fill="#7d6767" d="M500 200h100v100H500z"/><path fill="#64756d" d="M600 200h100v100H600z"/><path fill="#b4c7c2" d="M700 200h100v100H700z"/><path fill="#ada9a9" d="M0 300h100v100H0z"/><path fill="#92684c" d="M100 300h100v100H100z"/><path fill="#d18736" d="M200 300h100v100H200z"/><path fill="#de6e12" d="M300 300h100v100H300z"/><path fill="#b3884f" d="M400 300h100v100H400z"/><path fill="#988b66" d="M500 300h100v100H500z"/><path fill="#5e4e2f" d="M600 300h100v100H600z"/><path fill="#c0c2ad" d="M700 300h100v100H700z"/><path fill="#949190" d="M0 400h100v100H0z"/><path fill="#ad6636" d="M100 400h100v100H100z"/><path fill="#e77618" d="M200 400h100v100H200z"/><path fill="#f69915" d="M300 400h100v100H300z"/><path fill="#f29a0b" d="M400 400h100v100H400z"/><path fill="#d6ae40" d="M500 400h100v100H500z"/><path fill="#bd966b" d="M600 400h100v100H600z"/><path fill="#c5b191" d="M700 400h100v100H700z"/><path fill="#e3e1de" d="M0 500h100v100H0z"/><path fill="#e6e4e2" d="M100 500h100v100H100z"/><path fill="#f2dcce" d="M200 500h100v100H200z"/><path fill="#f0dcc2" d="M300 500h100v100H300z"/><path fill="#f2d7c3" d="M400 500h100v100H400z"/><path fill="#e7d7d1" d="M500 500h100v100H500z"/><path fill="#e6e1d8" d="M600 500h100v100H600z"/><path fill="#ece4de" d="M700 500h100v100H700z"/></svg>