<svg xmlns="http://www.w3.org/2000/svg" viewBox="0 0 800 400"><defs/><path fill="#f3eee3" d="M0 0h100v100H0z"/><path fill="#c0b09e" d="M100 0h100v100H100z"/><path fill="#d9d4ca" d="M200 0h100v100H200z"/><path fill="#cdceca" d="M300 0h100v100H300z"/><path fill="#cfd0cb" d="M400 0h100v100H400z"/><path fill="#e3e0dd" d="M500 0h100v100H500z"/><path fill="#eae5db" d="M600 0h100v100H600z"/><path fill="#dec3e5" d="M700 0h100v100H700z"/><path fill="#e9e1d0" d="M0 100h100v100H0z"/><path fill="#a89b86" d="M100 100h100v100H100z"/><path fill="#d9d9cb" d="M200 100h100v100H200z"/><path fill="#d6d1c6" d="M300 100h100v100H300z"/><path fill="#d0ccc5" d="M400 100h100v100H400z"/><path fill="#dee0dc" d="M500 100h100v100H500z"/><path fill="#d7d5c7" d="M600 100h100v100H600z"/><path fill="#c4a3b6" d="M700 100h100v100H700z"/><path fill="#dbd5c7" d="M0 200h100v100H0z"/><path fill="#918170" d="M100 200h100v100H100z"/><path fill="#c2b4a9" d="M200 200h100v100H200z"/><path fill="#b6ada5" d="M300 200h100v100H300z"/><path fill="#b29f8e" d="M400 200h100v100H400z"/><path fill="#b59e96" d="M500 200h100v100H500z"/><path fill="#d2bc71" d="M600 200h100v100H600z"/><path fill="#e1d0d3" d="M700 200h100v100H700z"/><path fill="#bfb2a5" d="M0 300h100v100H0z"/><path fill="#764d41" d="M100 300h100v100H100z"/><path fill="#946f67" d="M200 300h100v100H200z"/><path fill="#9d9b9e" d="M300 300h100v100H300z"/><path fill="#bcb1a9" d="M400 300h100v100H400z"/><path fill="#a67462" d="M500 300h100v100H500z"/><path fill="#8a4e3e" d="M600 300h100v100H600z"/><path fill="#dac9cd" d="M700 300h100v100H700z"/></svg>