<svg xmlns="http://www.w3.org/2000/svg" viewBox="0 0 800 500"><defs/><path fill="#d6a456" d="M0 0h100v100H0z"/><path fill="#a78a58" d="M100 0h100v100H100z"/><path fill="#e6ba74" d="M200 0h100v100H200z"/><path fill="#758aac" d="M300 0h100v100H300z"/><path fill="#9ba3b2" d="M400 0h100v100H400z"/><path fill="#c28d48" d="M500 0h100v100H500z"/><path fill="#d09645" d="M600 0h100v100H600z"/><path fill="#ffbd53" d="M700 0h100v100H700z"/><path fill="#cba05a" d="M0 100h100v100H0z"/><path fill="#90764e" d="M100 100h100v100H100z"/><path fill="#9e6c42" d="M200 100h100v100H200z"/><path fill="#4a3d48" d="M300 100h100v100H300z"/><path fill="#969297" d="M400 100h100v100H400z"/><path fill="#8d6e3e" d="M500 100h100v100H500z"/><path fill="#c5934a" d="M600 100h100v100H600z"/><path fill="#febc5b" d="M700 100h100v100H700z"/><path fill="#cba561" d="M0 200h100v100H0z"/><path fill="#654c3e" d="M100 200h100v100H100z"/><path fill="#3a0005" d="M200 200h100v100H200z"/><path fill="#440a0e" d="M300 200h100v100H300z"/><path fill="#d19648" d="M400 200h100v100H400z"/><path fill="#6d5731" d="M500 200h100v100H500z"/><path fill="#855d45" d="M600 200h100v100H600z"/><path fill="#a87c4f" d="M700 200h100v100H700z"/><path fill="#ba995c" d="M0 300h100v100H0z"/><path fill="#6a5245" d="M100 300h100v100H100z"/><path fill="#44090d" d="M200 300h100v100H200z"/><path fill="#4e1712" d="M300 300h100v100H300z"/><path fill="#93788e" d="M400 300h100v100H400z"/><path fill="#494db0" d="M500 300h100v100H500z"/><path fill="#332a93" d="M600 300h100v100H600z"/><path fill="#6c6881" d="M700 300h100v100H700z"/><path fill="#bea47c" d="M0 400h100v100H0z"/><path fill="#886c64" d="M100 400h100v100H100z"/><path fill="#3f050b" d="M200 400h100v100H200z"/><path fill="#551d13" d="M300 400h100v100H300z"/><path fill="#766fb8" d="M400 400h100v100H400z"/><path fill="#1c33ff" d="M500 400h100v100H500z"/><path fill="#2230fe" d="M600 400h100v100H600z"/><path fill="#2a63fa" d="M700 400h100v100H700z"/></svg>