<svg xmlns="http://www.w3.org/2000/svg" viewBox="0 0 800 500"><defs/><path fill="#b0b898" d="M0 0h100v100H0z"/><path fill="#8e9474" d="M100 0h100v100H100z"/><path fill="#87916e" d="M200 0h100v100H200z"/><path fill="#96a378" d="M300 0h100v100H300z"/><path fill="#a8b195" d="M400 0h100v100H400z"/><path fill="#97a178" d="M500 0h100v100H500z"/><path fill="#91a16a" d="M600 0h100v100H600z"/><path fill="#b0b99b" d="M700 0h100v100H700z"/><path fill="#79865c" d="M0 100h100v100H0z"/><path fill="#564c2b" d="M100 100h100v100H100z"/><path fill="#465b1a" d="M200 100h100v100H200z"/><path fill="#6d8040" d="M300 100h100v100H300z"/><path fill="#b19e90" d="M400 100h100v100H400z"/><path fill="#687d2f" d="M500 100h100v100H500z"/><path fill="#517411" d="M600 100h100v100H600z"/><path fill="#849962" d="M700 100h100v100H700z"/><path fill="#949b79" d="M0 200h100v100H0z"/><path fill="#614e37" d="M100 200h100v100H100z"/><path fill="#506a1f" d="M200 200h100v100H200z"/><path fill="#6d893e" d="M300 200h100v100H300z"/><path fill="#908c68" d="M400 200h100v100H400z"/><path fill="#626d31" d="M500 200h100v100H500z"/><path fill="#617035" d="M600 200h100v100H600z"/><path fill="#909f6c" d="M700 200h100v100H700z"/><path fill="#a1a37f" d="M0 300h100v100H0z"/><path fill="#5c4f2e" d="M100 300h100v100H100z"/><path fill="#495811" d="M200 300h100v100H200z"/><path fill="#4a7212" d="M300 300h100v100H300z"/><path fill="#526213" d="M400 300h100v100H400z"/><path fill="#79722d" d="M500 300h100v100H500z"/><path fill="#696227" d="M600 300h100v100H600z"/><path fill="#9e8c65" d="M700 300h100v100H700z"/><path fill="#b3b59d" d="M0 400h100v100H0z"/><path fill="#8f8464" d="M100 400h100v100H100z"/><path fill="#929f61" d="M200 400h100v100H200z"/><path fill="#8aa657" d="M300 400h100v100H300z"/><path fill="#859659" d="M400 400h100v100H400z"/><path fill="#9f9265" d="M500 400h100v100H500z"/><path fill="#89774f" d="M600 400h100v100H600z"/><path fill="#aba48b" d="M700 400h100v100H700z"/></svg>