<svg xmlns="http://www.w3.org/2000/svg" viewBox="0 0 800 400"><defs/><path fill="#d1c9bc" d="M0 0h100v100H0z"/><path fill="#8a775d" d="M100 0h100v100H100z"/><path fill="#a69e95" d="M200 0h100v100H200z"/><path fill="#6a909a" d="M300 0h100v100H300z"/><path fill="#80939f" d="M400 0h100v100H400z"/><path fill="#bdb0af" d="M500 0h100v100H500z"/><path fill="#cac7c1" d="M600 0h100v100H600z"/><path fill="#d8d9d4" d="M700 0h100v100H700z"/><path fill="#d0c3b0" d="M0 100h100v100H0z"/><path fill="#968e74" d="M100 100h100v100H100z"/><path fill="#b4a695" d="M200 100h100v100H200z"/><path fill="#b89058" d="M300 100h100v100H300z"/><path fill="#c4a376" d="M400 100h100v100H400z"/><path fill="#b5aaa2" d="M500 100h100v100H500z"/><path fill="#ae9a8e" d="M600 100h100v100H600z"/><path fill="#d3cdc4" d="M700 100h100v100H700z"/><path fill="#b49b8e" d="M0 200h100v100H0z"/><path fill="#957f6e" d="M100 200h100v100H100z"/><path fill="#bcab8e" d="M200 200h100v100H200z"/><path fill="#b08e56" d="M300 200h100v100H300z"/><path fill="#c0a471" d="M400 200h100v100H400z"/><path fill="#b7b8ad" d="M500 200h100v100H500z"/><path fill="#b3a79f" d="M600 200h100v100H600z"/><path fill="#dcd6cd" d="M700 200h100v100H700z"/><path fill="#988079" d="M0 300h100v100H0z"/><path fill="#8b766c" d="M100 300h100v100H100z"/><path fill="#b9a79a" d="M200 300h100v100H200z"/><path fill="#8a9b96" d="M300 300h100v100H300z"/><path fill="#96a3a2" d="M400 300h100v100H400z"/><path fill="#b3b3b6" d="M500 300h100v100H500z"/><path fill="#b8b7b5" d="M600 300h100v100H600z"/><path fill="#e1ddd7" d="M700 300h100v100H700z"/></svg>