<svg xmlns="http://www.w3.org/2000/svg" viewBox="0 0 800 400"><defs/><path fill="#867e47" d="M0 0h100v100H0z"/><path fill="#cb9d99" d="M100 0h100v100H100z"/><path fill="#b2cae5" d="M200 0h100v100H200z"/><path fill="#c4c8da" d="M300 0h100v100H300z"/><path fill="#ada9b7" d="M400 0h100v100H400z"/><path fill="#525b5c" d="M500 0h100v100H500z"/><path fill="#46312a" d="M600 0h100v100H600z"/><path fill="#643e44" d="M700 0h100v100H700z"/><path fill="#8b8c41" d="M0 100h100v100H0z"/><path fill="#d0b2a7" d="M100 100h100v100H100z"/><path fill="#a4bcc4" d="M200 100h100v100H200z"/><path fill="#acb3b5" d="M300 100h100v100H300z"/><path fill="#b2afa6" d="M400 100h100v100H400z"/><path fill="#b5d0c9" d="M500 100h100v100H500z"/><path fill="#726f5e" d="M600 100h100v100H600z"/><path fill="#6b4341" d="M700 100h100v100H700z"/><path fill="#7f5e43" d="M0 200h100v100H0z"/><path fill="#c1a183" d="M100 200h100v100H100z"/><path fill="#b38760" d="M200 200h100v100H200z"/><path fill="#794d36" d="M300 200h100v100H300z"/><path fill="#a18e78" d="M400 200h100v100H400z"/><path fill="#bdc99d" d="M500 200h100v100H500z"/><path fill="#7b8a63" d="M600 200h100v100H600z"/><path fill="#6c5050" d="M700 200h100v100H700z"/><path fill="#765442" d="M0 300h100v100H0z"/><path fill="#916249" d="M100 300h100v100H100z"/><path fill="#a2837a" d="M200 300h100v100H200z"/><path fill="#754041" d="M300 300h100v100H300z"/><path fill="#a16a5a" d="M400 300h100v100H400z"/><path fill="#6a4743" d="M500 300h100v100H500z"/><path fill="#402723" d="M600 300h100v100H600z"/><path fill="#634441" d="M700 300h100v100H700z"/></svg>