<svg xmlns="http://www.w3.org/2000/svg" viewBox="0 0 800 800"><defs/><path fill="#ffe6c8" d="M0 0h100v100H0zm100 0h100v100H100zm100 0h100v100H200zm100 0h100v100H300zm100 0h100v100H400zm100 0h100v100H500zm100 0h100v100H600zm100 0h100v100H700z"/><path fill="#fde5c9" d="M0 100h100v100H0z"/><path fill="#fce4c9" d="M100 100h100v100H100z"/><path fill="#fde5c9" d="M200 100h100v100H200zm100 0h100v100H300z"/><path fill="#fce4c9" d="M400 100h100v100H400z"/><path fill="#fee6c8" d="M500 100h100v100H500z"/><path fill="#ffe6c8" d="M600 100h100v100H600z"/><path fill="#fde5c8" d="M700 100h100v100H700z"/><path fill="#c6c0d4" d="M0 200h100v100H0z"/><path fill="#babbd8" d="M100 200h100v100H100z"/><path fill="#cbc3d2" d="M200 200h100v100H200z"/><path fill="#dacfd1" d="M300 200h100v100H300zm100 0h100v100H400z"/><path fill="#b8b6d7" d="M500 200h100v100H500z"/><path fill="#abaeda" d="M600 200h100v100H600z"/><path fill="#c1c0d6" d="M700 200h100v100H700z"/><path fill="#bab8d7" d="M0 300h100v100H0z"/><path fill="#a9afdb" d="M100 300h100v100H100z"/><path fill="#bdbad5" d="M200 300h100v100H200z"/><path fill="#d9cdd2" d="M300 300h100v100H300z"/><path fill="#d5ccd2" d="M400 300h100v100H400z"/><path fill="#b6b5d7" d="M500 300h100v100H500z"/><path fill="#afb0d8" d="M600 300h100v100H600z"/><path fill="#b5b6d8" d="M700 300h100v100H700z"/><path fill="#c9c4d6" d="M0 400h100v100H0z"/><path fill="#b4b7d9" d="M100 400h100v100H100z"/><path fill="#cec6d2" d="M200 400h100v100H200z"/><path fill="#dbcfd0" d="M300 400h100v100H300z"/><path fill="#ded0cf" d="M400 400h100v100H400z"/><path fill="#c4bed3" d="M500 400h100v100H500z"/><path fill="#cac1d2" d="M600 400h100v100H600z"/><path fill="#bfbdd7" d="M700 400h100v100H700z"/><path fill="#c4c1d6" d="M0 500h100v100H0z"/><path fill="#b3b7db" d="M100 500h100v100H100z"/><path fill="#d1c9d3" d="M200 500h100v100H200z"/><path fill="#e7d7cd" d="M300 500h100v100H300z"/><path fill="#bebdd8" d="M400 500h100v100H400z"/><path fill="#e5d5ce" d="M500 500h100v100H500z"/><path fill="#bcbbd8" d="M600 500h100v100H600z"/><path fill="#b4b8da" d="M700 500h100v100H700z"/><path fill="#eddbcc" d="M0 600h100v100H0z"/><path fill="#e7d8ce" d="M100 600h100v100H100z"/><path fill="#e9d8cd" d="M200 600h100v100H200z"/><path fill="#fbe3c9" d="M300 600h100v100H300z"/><path fill="#eddbcc" d="M400 600h100v100H400z"/><path fill="#f4dfca" d="M500 600h100v100H500z"/><path fill="#efdccc" d="M600 600h100v100H600z"/><path fill="#e2d3ce" d="M700 600h100v100H700z"/><path fill="#ffe7c8" d="M0 700h100v100H0z"/><path fill="#ffe8c7" d="M100 700h100v100H100zm100 0h100v100H200z"/><path fill="#ffe6c8" d="M300 700h100v100H300z"/><path fill="#ffe8c7" d="M400 700h100v100H400z"/><path fill="#ffe7c8" d="M500 700h100v100H500z"/><path fill="#ffe8c7" d="M600 700h100v100H600z"/><path fill="#ffe9c7" d="M700 700h100v100H700z"/></svg>