<svg xmlns="http://www.w3.org/2000/svg" viewBox="0 0 800 600"><defs/><path fill="#3d4744" d="M0 0h100v100H0z"/><path fill="#5d544d" d="M100 0h100v100H100z"/><path fill="#776359" d="M200 0h100v100H200z"/><path fill="#857166" d="M300 0h100v100H300z"/><path fill="#917e73" d="M400 0h100v100H400z"/><path fill="#917d72" d="M500 0h100v100H500z"/><path fill="#84736a" d="M600 0h100v100H600z"/><path fill="#595b56" d="M700 0h100v100H700z"/><path fill="#283b3d" d="M0 100h100v100H0z"/><path fill="#3a3c36" d="M100 100h100v100H100z"/><path fill="#696463" d="M200 100h100v100H200z"/><path fill="#7a7372" d="M300 100h100v100H300z"/><path fill="#888382" d="M400 100h100v100H400z"/><path fill="#81807e" d="M500 100h100v100H500z"/><path fill="#6c6f72" d="M600 100h100v100H600z"/><path fill="#374e52" d="M700 100h100v100H700z"/><path fill="#2f3532" d="M0 200h100v100H0z"/><path fill="#4a3827" d="M100 200h100v100H100z"/><path fill="#656162" d="M200 200h100v100H200z"/><path fill="#7e7d80" d="M300 200h100v100H300z"/><path fill="#abad92" d="M400 200h100v100H400z"/><path fill="#8e8f81" d="M500 200h100v100H500z"/><path fill="#727780" d="M600 200h100v100H600z"/><path fill="#395157" d="M700 200h100v100H700z"/><path fill="#413229" d="M0 300h100v100H0z"/><path fill="#564331" d="M100 300h100v100H100z"/><path fill="#443e3d" d="M200 300h100v100H200z"/><path fill="#61433f" d="M300 300h100v100H300z"/><path fill="#825c49" d="M400 300h100v100H400z"/><path fill="#554d47" d="M500 300h100v100H500z"/><path fill="#5e5c5a" d="M600 300h100v100H600z"/><path fill="#1e3237" d="M700 300h100v100H700z"/><path fill="#7f583d" d="M0 400h100v100H0z"/><path fill="#473a29" d="M100 400h100v100H100z"/><path fill="#1c100b" d="M200 400h100v100H200z"/><path fill="#40170f" d="M300 400h100v100H300z"/><path fill="#795246" d="M400 400h100v100H400z"/><path fill="#4a3b2d" d="M500 400h100v100H500z"/><path fill="#2f261a" d="M600 400h100v100H600z"/><path fill="#5a4530" d="M700 400h100v100H700z"/><path fill="#805c3d" d="M0 500h100v100H0z"/><path fill="#242812" d="M100 500h100v100H100z"/><path fill="#081b07" d="M200 500h100v100H200z"/><path fill="#3b3924" d="M300 500h100v100H300z"/><path fill="#7b7557" d="M400 500h100v100H400z"/><path fill="#403e25" d="M500 500h100v100H500z"/><path fill="#15240f" d="M600 500h100v100H600z"/><path fill="#82663b" d="M700 500h100v100H700z"/></svg>