<svg xmlns="http://www.w3.org/2000/svg" viewBox="0 0 800 500"><defs/><path fill="#fbf4f1" d="M0 0h100v100H0z"/><path fill="#faefea" d="M100 0h100v100H100z"/><path fill="#fbf3ec" d="M200 0h100v100H200z"/><path fill="#fffefb" d="M300 0h100v100H300z"/><path fill="#f6fcfb" d="M400 0h100v100H400z"/><path fill="#fbfbf7" d="M500 0h100v100H500z"/><path fill="#fefbf7" d="M600 0h100v100H600z"/><path fill="#fffffe" d="M700 0h100v100H700z"/><path fill="#e4bcb1" d="M0 100h100v100H0z"/><path fill="#e8b79f" d="M100 100h100v100H100z"/><path fill="#d9baa6" d="M200 100h100v100H200z"/><path fill="#daf4f0" d="M300 100h100v100H300z"/><path fill="#cceeed" d="M400 100h100v100H400z"/><path fill="#d8d5c3" d="M500 100h100v100H500z"/><path fill="#87887e" d="M600 100h100v100H600z"/><path fill="#948980" d="M700 100h100v100H700z"/><path fill="#e9c5ba" d="M0 200h100v100H0z"/><path fill="#e1a88f" d="M100 200h100v100H100z"/><path fill="#cda48f" d="M200 200h100v100H200z"/><path fill="#d6d5b5" d="M300 200h100v100H300z"/><path fill="#d8c9a7" d="M400 200h100v100H400z"/><path fill="#d8a594" d="M500 200h100v100H500z"/><path fill="#897771" d="M600 200h100v100H600z"/><path fill="#5b4a43" d="M700 200h100v100H700z"/><path fill="#e7bbaa" d="M0 300h100v100H0z"/><path fill="#da9175" d="M100 300h100v100H100z"/><path fill="#db9b7a" d="M200 300h100v100H200z"/><path fill="#d38757" d="M300 300h100v100H300z"/><path fill="#d58958" d="M400 300h100v100H400z"/><path fill="#d6ad8a" d="M500 300h100v100H500z"/><path fill="#d2b8a5" d="M600 300h100v100H600z"/><path fill="#c7a18d" d="M700 300h100v100H700z"/><path fill="#eac5b4" d="M0 400h100v100H0z"/><path fill="#e8baa2" d="M100 400h100v100H100z"/><path fill="#e9cbb8" d="M200 400h100v100H200z"/><path fill="#e1bab0" d="M300 400h100v100H300z"/><path fill="#e0b5ab" d="M400 400h100v100H400z"/><path fill="#e8ceb9" d="M500 400h100v100H500z"/><path fill="#d4baa3" d="M600 400h100v100H600z"/><path fill="#f7d5bd" d="M700 400h100v100H700z"/></svg>