<svg xmlns="http://www.w3.org/2000/svg" viewBox="0 0 800 500"><defs/><path fill="#e5dac1" d="M0 0h100v100H0z"/><path fill="#cdb38c" d="M100 0h100v100H100z"/><path fill="#bf9d77" d="M200 0h100v100H200z"/><path fill="#d6c7b4" d="M300 0h100v100H300z"/><path fill="#d4c3aa" d="M400 0h100v100H400z"/><path fill="#e6d3be" d="M500 0h100v100H500z"/><path fill="#dcc9b3" d="M600 0h100v100H600z"/><path fill="#d3c5b2" d="M700 0h100v100H700z"/><path fill="#cbb787" d="M0 100h100v100H0z"/><path fill="#b79056" d="M100 100h100v100H100z"/><path fill="#b2936b" d="M200 100h100v100H200z"/><path fill="#ae8e51" d="M300 100h100v100H300z"/><path fill="#a67b31" d="M400 100h100v100H400z"/><path fill="#caa784" d="M500 100h100v100H500z"/><path fill="#968c5d" d="M600 100h100v100H600z"/><path fill="#a8997a" d="M700 100h100v100H700z"/><path fill="#ccbd9c" d="M0 200h100v100H0z"/><path fill="#b78f54" d="M100 200h100v100H100z"/><path fill="#c6ad8d" d="M200 200h100v100H200z"/><path fill="#b78f47" d="M300 200h100v100H300z"/><path fill="#bc882c" d="M400 200h100v100H400z"/><path fill="#a48147" d="M500 200h100v100H500z"/><path fill="#95875b" d="M600 200h100v100H600z"/><path fill="#baa98c" d="M700 200h100v100H700z"/><path fill="#bfa280" d="M0 300h100v100H0z"/><path fill="#a77846" d="M100 300h100v100H100z"/><path fill="#897e5d" d="M200 300h100v100H200z"/><path fill="#837759" d="M300 300h100v100H300z"/><path fill="#9f7633" d="M400 300h100v100H400z"/><path fill="#977c4a" d="M500 300h100v100H500z"/><path fill="#876f49" d="M600 300h100v100H600z"/><path fill="#bca279" d="M700 300h100v100H700z"/><path fill="#cdbca2" d="M0 400h100v100H0z"/><path fill="#baa281" d="M100 400h100v100H100z"/><path fill="#b8aa8d" d="M200 400h100v100H200z"/><path fill="#b8ab92" d="M300 400h100v100H300z"/><path fill="#c9beac" d="M400 400h100v100H400z"/><path fill="#b2ac9a" d="M500 400h100v100H500z"/><path fill="#a29c82" d="M600 400h100v100H600z"/><path fill="#cdbb93" d="M700 400h100v100H700z"/></svg>