<svg xmlns="http://www.w3.org/2000/svg" viewBox="0 0 800 600"><defs/><path fill="#ebe6e9" d="M0 0h100v100H0z"/><path fill="#dcd9dd" d="M100 0h100v100H100z"/><path fill="#e2dce0" d="M200 0h100v100H200z"/><path fill="#e6dde2" d="M300 0h100v100H300z"/><path fill="#e4dce0" d="M400 0h100v100H400z"/><path fill="#e6dde0" d="M500 0h100v100H500z"/><path fill="#e0d9dc" d="M600 0h100v100H600z"/><path fill="#ddd8da" d="M700 0h100v100H700z"/><path fill="#e9c1b3" d="M0 100h100v100H0z"/><path fill="#a07e69" d="M100 100h100v100H100z"/><path fill="#9e8c71" d="M200 100h100v100H200z"/><path fill="#948276" d="M300 100h100v100H300z"/><path fill="#cfa185" d="M400 100h100v100H400z"/><path fill="#ebc5b4" d="M500 100h100v100H500z"/><path fill="#ca9f86" d="M600 100h100v100H600z"/><path fill="#a98369" d="M700 100h100v100H700z"/><path fill="#e3beaf" d="M0 200h100v100H0z"/><path fill="#907462" d="M100 200h100v100H100z"/><path fill="#948362" d="M200 200h100v100H200z"/><path fill="#918662" d="M300 200h100v100H300z"/><path fill="#c48a7b" d="M400 200h100v100H400z"/><path fill="#e1576a" d="M500 200h100v100H500z"/><path fill="#cd978b" d="M600 200h100v100H600z"/><path fill="#a78367" d="M700 200h100v100H700z"/><path fill="#d3af9b" d="M0 300h100v100H0z"/><path fill="#66647a" d="M100 300h100v100H100z"/><path fill="#7e7f90" d="M200 300h100v100H200z"/><path fill="#b19075" d="M300 300h100v100H300z"/><path fill="#da907e" d="M400 300h100v100H400z"/><path fill="#db5f65" d="M500 300h100v100H500z"/><path fill="#d6a393" d="M600 300h100v100H600z"/><path fill="#a78d70" d="M700 300h100v100H700z"/><path fill="#c09e89" d="M0 400h100v100H0z"/><path fill="#747185" d="M100 400h100v100H100z"/><path fill="#768cb0" d="M200 400h100v100H200z"/><path fill="#cf9d83" d="M300 400h100v100H300z"/><path fill="#e4a382" d="M400 400h100v100H400z"/><path fill="#dea485" d="M500 400h100v100H500z"/><path fill="#ce9a8c" d="M600 400h100v100H600z"/><path fill="#bf9e8c" d="M700 400h100v100H700z"/><path fill="#ded2d1" d="M0 500h100v100H0z"/><path fill="#e0d3ce" d="M100 500h100v100H100z"/><path fill="#dfdcdb" d="M200 500h100v100H200z"/><path fill="#ecd6d0" d="M300 500h100v100H300z"/><path fill="#decdc9" d="M400 500h100v100H400z"/><path fill="#e7d1d0" d="M500 500h100v100H500z"/><path fill="#e3cdcc" d="M600 500h100v100H600z"/><path fill="#dbcdc9" d="M700 500h100v100H700z"/></svg>