<svg xmlns="http://www.w3.org/2000/svg" viewBox="0 0 800 400"><defs/><path fill="#8d6d7e" d="M0 0h100v100H0z"/><path fill="#8b7d88" d="M100 0h100v100H100z"/><path fill="#8a7984" d="M200 0h100v100H200z"/><path fill="#988d97" d="M300 0h100v100H300z"/><path fill="#718679" d="M400 0h100v100H400z"/><path fill="#8c8672" d="M500 0h100v100H500z"/><path fill="#938882" d="M600 0h100v100H600z"/><path fill="#6f697e" d="M700 0h100v100H700z"/><path fill="#867281" d="M0 100h100v100H0z"/><path fill="#90848f" d="M100 100h100v100H100z"/><path fill="#776c81" d="M200 100h100v100H200z"/><path fill="#827d8d" d="M300 100h100v100H300z"/><path fill="#8f7d6d" d="M400 100h100v100H400z"/><path fill="#488167" d="M500 100h100v100H500z"/><path fill="#355d78" d="M600 100h100v100H600z"/><path fill="#3e2f71" d="M700 100h100v100H700z"/><path fill="#424a51" d="M0 200h100v100H0z"/><path fill="#537053" d="M100 200h100v100H100z"/><path fill="#405e3f" d="M200 200h100v100H200z"/><path fill="#474e51" d="M300 200h100v100H300z"/><path fill="#877e7e" d="M400 200h100v100H400z"/><path fill="#7a7263" d="M500 200h100v100H500z"/><path fill="#6b6d67" d="M600 200h100v100H600z"/><path fill="#69605b" d="M700 200h100v100H700z"/><path fill="#353b41" d="M0 300h100v100H0z"/><path fill="#3c484d" d="M100 300h100v100H100z"/><path fill="#374448" d="M200 300h100v100H200z"/><path fill="#3e474f" d="M300 300h100v100H300z"/><path fill="#807d7d" d="M400 300h100v100H400z"/><path fill="#a4795f" d="M500 300h100v100H500z"/><path fill="#9d907b" d="M600 300h100v100H600z"/><path fill="#9a8476" d="M700 300h100v100H700z"/></svg>