<svg xmlns="http://www.w3.org/2000/svg" viewBox="0 0 800 400"><defs/><path fill="#c2ab8d" d="M0 0h100v100H0z"/><path fill="#6a3d37" d="M100 0h100v100H100z"/><path fill="#a46c53" d="M200 0h100v100H200z"/><path fill="#cb8f69" d="M300 0h100v100H300z"/><path fill="#b47b62" d="M400 0h100v100H400z"/><path fill="#c68f6a" d="M500 0h100v100H500z"/><path fill="#bc7a5a" d="M600 0h100v100H600z"/><path fill="#7b5d5b" d="M700 0h100v100H700z"/><path fill="#bca87f" d="M0 100h100v100H0z"/><path fill="#6a3f31" d="M100 100h100v100H100z"/><path fill="#a06a4e" d="M200 100h100v100H200z"/><path fill="#cb7d56" d="M300 100h100v100H300z"/><path fill="#c3885d" d="M400 100h100v100H400z"/><path fill="#d2875d" d="M500 100h100v100H500z"/><path fill="#b1784e" d="M600 100h100v100H600z"/><path fill="#764e4e" d="M700 100h100v100H700z"/><path fill="#9e8b6c" d="M0 200h100v100H0z"/><path fill="#642427" d="M100 200h100v100H100z"/><path fill="#96413d" d="M200 200h100v100H200z"/><path fill="#bc6545" d="M300 200h100v100H300z"/><path fill="#b07451" d="M400 200h100v100H400z"/><path fill="#cc6a45" d="M500 200h100v100H500z"/><path fill="#b35843" d="M600 200h100v100H600z"/><path fill="#7d4858" d="M700 200h100v100H700z"/><path fill="#8c5e5c" d="M0 300h100v100H0z"/><path fill="#85093b" d="M100 300h100v100H100z"/><path fill="#ba284c" d="M200 300h100v100H200z"/><path fill="#b3524b" d="M300 300h100v100H300z"/><path fill="#a83b46" d="M400 300h100v100H400z"/><path fill="#be4d43" d="M500 300h100v100H500z"/><path fill="#b42c40" d="M600 300h100v100H600z"/><path fill="#963a68" d="M700 300h100v100H700z"/></svg>