<svg xmlns="http://www.w3.org/2000/svg" viewBox="0 0 800 600"><defs/><path fill="#989594" d="M0 0h100v100H0z"/><path fill="#9a9897" d="M100 0h100v100H100z"/><path fill="#9e9c9b" d="M200 0h100v100H200z"/><path fill="#949092" d="M300 0h100v100H300z"/><path fill="#908f8f" d="M400 0h100v100H400z"/><path fill="#a69c99" d="M500 0h100v100H500z"/><path fill="#aca8a6" d="M600 0h100v100H600z"/><path fill="#b5b4b4" d="M700 0h100v100H700z"/><path fill="#999898" d="M0 100h100v100H0z"/><path fill="#969596" d="M100 100h100v100H100z"/><path fill="#9b9b9b" d="M200 100h100v100H200z"/><path fill="#918d93" d="M300 100h100v100H300z"/><path fill="#8f8d96" d="M400 100h100v100H400z"/><path fill="#a26c5e" d="M500 100h100v100H500z"/><path fill="#ab9894" d="M600 100h100v100H600z"/><path fill="#b8babc" d="M700 100h100v100H700z"/><path fill="#989898" d="M0 200h100v100H0z"/><path fill="#929294" d="M100 200h100v100H100z"/><path fill="#9e9e9e" d="M200 200h100v100H200z"/><path fill="#9b9b9c" d="M300 200h100v100H300z"/><path fill="#8b9299" d="M400 200h100v100H400z"/><path fill="#a49694" d="M500 200h100v100H500z"/><path fill="#bbb3b3" d="M600 200h100v100H600z"/><path fill="#b9b9ba" d="M700 200h100v100H700z"/><path fill="#929293" d="M0 300h100v100H0z"/><path fill="#8f8f91" d="M100 300h100v100H100z"/><path fill="#a0a0a3" d="M200 300h100v100H200z"/><path fill="#9c9d9b" d="M300 300h100v100H300z"/><path fill="#897d6b" d="M400 300h100v100H400z"/><path fill="#9ba4a6" d="M500 300h100v100H500z"/><path fill="#afafb2" d="M600 300h100v100H600z"/><path fill="#b4b3b3" d="M700 300h100v100H700z"/><path fill="#929395" d="M0 400h100v100H0z"/><path fill="#8a8a8d" d="M100 400h100v100H100z"/><path fill="#9a9da1" d="M200 400h100v100H200z"/><path fill="#a09591" d="M300 400h100v100H300z"/><path fill="#a56f50" d="M400 400h100v100H400z"/><path fill="#9e9394" d="M500 400h100v100H500z"/><path fill="#a3868d" d="M600 400h100v100H600z"/><path fill="#9b9098" d="M700 400h100v100H700z"/><path fill="#8c8b8e" d="M0 500h100v100H0z"/><path fill="#919296" d="M100 500h100v100H100z"/><path fill="#989a9d" d="M200 500h100v100H200z"/><path fill="#a09fa2" d="M300 500h100v100H300z"/><path fill="#a0a1a8" d="M400 500h100v100H400z"/><path fill="#957f82" d="M500 500h100v100H500z"/><path fill="#a05a66" d="M600 500h100v100H600z"/><path fill="#9d8f99" d="M700 500h100v100H700z"/></svg>