<svg xmlns="http://www.w3.org/2000/svg" viewBox="0 0 800 600"><defs/><path fill="#707677" d="M0 0h100v100H0z"/><path fill="#959d9a" d="M100 0h100v100H100z"/><path fill="#858ea6" d="M200 0h100v100H200z"/><path fill="#878390" d="M300 0h100v100H300z"/><path fill="#939096" d="M400 0h100v100H400z"/><path fill="#9a98a1" d="M500 0h100v100H500z"/><path fill="#9998a0" d="M600 0h100v100H600z"/><path fill="#949eaa" d="M700 0h100v100H700z"/><path fill="#7a7d65" d="M0 100h100v100H0z"/><path fill="#bbc4ad" d="M100 100h100v100H100z"/><path fill="#969bb9" d="M200 100h100v100H200z"/><path fill="#a79697" d="M300 100h100v100H300z"/><path fill="#b7acb1" d="M400 100h100v100H400z"/><path fill="#b7b5c0" d="M500 100h100v100H500z"/><path fill="#afafb7" d="M600 100h100v100H600z"/><path fill="#b5c3d2" d="M700 100h100v100H700z"/><path fill="#76785f" d="M0 200h100v100H0z"/><path fill="#b3bdb3" d="M100 200h100v100H100z"/><path fill="#8d8496" d="M200 200h100v100H200z"/><path fill="#ad9590" d="M300 200h100v100H300z"/><path fill="#929eae" d="M400 200h100v100H400z"/><path fill="#9aa6b6" d="M500 200h100v100H500z"/><path fill="#9997a1" d="M600 200h100v100H600z"/><path fill="#a2b4c1" d="M700 200h100v100H700z"/><path fill="#70705c" d="M0 300h100v100H0z"/><path fill="#9faab3" d="M100 300h100v100H100z"/><path fill="#8b8f9e" d="M200 300h100v100H200z"/><path fill="#a99a96" d="M300 300h100v100H300z"/><path fill="#9f97a1" d="M400 300h100v100H400z"/><path fill="#aea3ae" d="M500 300h100v100H500z"/><path fill="#b49ea6" d="M600 300h100v100H600z"/><path fill="#aaaba0" d="M700 300h100v100H700z"/><path fill="#666859" d="M0 400h100v100H0z"/><path fill="#9faabd" d="M100 400h100v100H100z"/><path fill="#a2a7b7" d="M200 400h100v100H200z"/><path fill="#9da19e" d="M300 400h100v100H300z"/><path fill="#b0b0af" d="M400 400h100v100H400z"/><path fill="#b1b2bf" d="M500 400h100v100H500z"/><path fill="#818391" d="M600 400h100v100H600z"/><path fill="#aea9b5" d="M700 400h100v100H700z"/><path fill="#61676f" d="M0 500h100v100H0z"/><path fill="#969fb1" d="M100 500h100v100H100z"/><path fill="#959ba9" d="M200 500h100v100H200z"/><path fill="#989da7" d="M300 500h100v100H300z"/><path fill="#a2a7b3" d="M400 500h100v100H400z"/><path fill="#9295a4" d="M500 500h100v100H500z"/><path fill="#757a89" d="M600 500h100v100H600z"/><path fill="#9396a5" d="M700 500h100v100H700z"/></svg>