<svg xmlns="http://www.w3.org/2000/svg" viewBox="0 0 800 500"><defs/><path fill="#f4f4f4" d="M0 0h100v100H0z"/><path fill="#aeaeab" d="M100 0h100v100H100z"/><path fill="#e3e2e2" d="M200 0h100v100H200z"/><path fill="#f7f7f6" d="M300 0h100v100H300z"/><path fill="#e8e8e2" d="M400 0h100v100H400z"/><path fill="#f3f4f3" d="M500 0h100v100H500z"/><path fill="#f4f4f4" d="M600 0h100v100H600z"/><path fill="#efefef" d="M700 0h100v100H700z"/><path fill="#e8e9e9" d="M0 100h100v100H0z"/><path fill="#7c7b76" d="M100 100h100v100H100z"/><path fill="#f3f4f4" d="M200 100h100v100H200z"/><path fill="#c3bdb8" d="M300 100h100v100H300z"/><path fill="#92857b" d="M400 100h100v100H400z"/><path fill="#e8e6e5" d="M500 100h100v100H500z"/><path fill="#fefefe" d="M600 100h100v100H600z"/><path fill="#ededed" d="M700 100h100v100H700z"/><path fill="#d6d7d6" d="M0 200h100v100H0z"/><path fill="#80807c" d="M100 200h100v100H100z"/><path fill="#f9f9fa" d="M200 200h100v100H200z"/><path fill="#9b938f" d="M300 200h100v100H300z"/><path fill="#7b7772" d="M400 200h100v100H400z"/><path fill="#dcd9da" d="M500 200h100v100H500z"/><path fill="#b8c0b8" d="M600 200h100v100H600z"/><path fill="#dcdfdc" d="M700 200h100v100H700z"/><path fill="#b7bcbb" d="M0 300h100v100H0z"/><path fill="#5b4c42" d="M100 300h100v100H100z"/><path fill="#884c37" d="M200 300h100v100H200z"/><path fill="#7b4937" d="M300 300h100v100H300z"/><path fill="#7f5d53" d="M400 300h100v100H400z"/><path fill="#87513c" d="M500 300h100v100H500z"/><path fill="#75412b" d="M600 300h100v100H600z"/><path fill="#a39b97" d="M700 300h100v100H700z"/><path fill="#a8a29e" d="M0 400h100v100H0z"/><path fill="#8c6351" d="M100 400h100v100H100z"/><path fill="#a56f5b" d="M200 400h100v100H200z"/><path fill="#aa8d83" d="M300 400h100v100H300z"/><path fill="#a2857b" d="M400 400h100v100H400z"/><path fill="#a78174" d="M500 400h100v100H500z"/><path fill="#89503b" d="M600 400h100v100H600z"/><path fill="#8a6e63" d="M700 400h100v100H700z"/></svg>