<svg xmlns="http://www.w3.org/2000/svg" viewBox="0 0 800 500"><defs/><path fill="#d2d2d1" d="M0 0h100v100H0z"/><path fill="#bababa" d="M100 0h100v100H100z"/><path fill="#b9bbbd" d="M200 0h100v100H200z"/><path fill="#bfc0c2" d="M300 0h100v100H300z"/><path fill="#c4c4c5" d="M400 0h100v100H400z"/><path fill="#bfbebf" d="M500 0h100v100H500z"/><path fill="#b6bbb5" d="M600 0h100v100H600z"/><path fill="#c9cdc9" d="M700 0h100v100H700z"/><path fill="#828383" d="M0 100h100v100H0z"/><path fill="#73716e" d="M100 100h100v100H100z"/><path fill="#76685f" d="M200 100h100v100H200z"/><path fill="#716d69" d="M300 100h100v100H300z"/><path fill="#6e6f6d" d="M400 100h100v100H400z"/><path fill="#6e6c6e" d="M500 100h100v100H500z"/><path fill="#5f6e69" d="M600 100h100v100H600z"/><path fill="#626a67" d="M700 100h100v100H700z"/><path fill="#888b8d" d="M0 200h100v100H0z"/><path fill="#7f746d" d="M100 200h100v100H100z"/><path fill="#b17450" d="M200 200h100v100H200z"/><path fill="#a6724b" d="M300 200h100v100H300z"/><path fill="#79725f" d="M400 200h100v100H400z"/><path fill="#6a6f6a" d="M500 200h100v100H500z"/><path fill="#875646" d="M600 200h100v100H600z"/><path fill="#786461" d="M700 200h100v100H700z"/><path fill="#888b8c" d="M0 300h100v100H0z"/><path fill="#857262" d="M100 300h100v100H100z"/><path fill="#b28462" d="M200 300h100v100H200z"/><path fill="#ac825c" d="M300 300h100v100H300z"/><path fill="#afa38e" d="M400 300h100v100H400z"/><path fill="#9ea192" d="M500 300h100v100H500z"/><path fill="#c28e6c" d="M600 300h100v100H600z"/><path fill="#8b7d75" d="M700 300h100v100H700z"/><path fill="#bfc0bc" d="M0 400h100v100H0z"/><path fill="#c6c3bb" d="M100 400h100v100H100z"/><path fill="#d0cdc6" d="M200 400h100v100H200z"/><path fill="#d0d3cc" d="M300 400h100v100H300z"/><path fill="#d4d6cf" d="M400 400h100v100H400z"/><path fill="#d8d8d0" d="M500 400h100v100H500z"/><path fill="#bec3bd" d="M600 400h100v100H600z"/><path fill="#b9bab5" d="M700 400h100v100H700z"/></svg>