<svg xmlns="http://www.w3.org/2000/svg" viewBox="0 0 800 600"><defs/><path fill="#e2e2d5" d="M0 0h100v100H0z"/><path fill="#dfdbcf" d="M100 0h100v100H100z"/><path fill="#dfdbd3" d="M200 0h100v100H200z"/><path fill="#ddddd4" d="M300 0h100v100H300z"/><path fill="#dddbd1" d="M400 0h100v100H400z"/><path fill="#d7d7cd" d="M500 0h100v100H500z"/><path fill="#cacbc0" d="M600 0h100v100H600z"/><path fill="#c8cbab" d="M700 0h100v100H700z"/><path fill="#9aa09c" d="M0 100h100v100H0z"/><path fill="#a7a899" d="M100 100h100v100H100z"/><path fill="#b7bfa0" d="M200 100h100v100H200z"/><path fill="#788a95" d="M300 100h100v100H300z"/><path fill="#6b7a8b" d="M400 100h100v100H400z"/><path fill="#6a7881" d="M500 100h100v100H500z"/><path fill="#5f7180" d="M600 100h100v100H600z"/><path fill="#b8c78d" d="M700 100h100v100H700z"/><path fill="#928f97" d="M0 200h100v100H0z"/><path fill="#9a9890" d="M100 200h100v100H100z"/><path fill="#7e7c8e" d="M200 200h100v100H200z"/><path fill="#717388" d="M300 200h100v100H300z"/><path fill="#5b6480" d="M400 200h100v100H400z"/><path fill="#585d70" d="M500 200h100v100H500z"/><path fill="#4c4c6e" d="M600 200h100v100H600z"/><path fill="#bbb5a8" d="M700 200h100v100H700z"/><path fill="#ada293" d="M0 300h100v100H0z"/><path fill="#ada799" d="M100 300h100v100H100z"/><path fill="#9d8d8c" d="M200 300h100v100H200z"/><path fill="#887570" d="M300 300h100v100H300z"/><path fill="#a2928c" d="M400 300h100v100H400z"/><path fill="#a4a0a4" d="M500 300h100v100H500z"/><path fill="#79787e" d="M600 300h100v100H600z"/><path fill="#adc47c" d="M700 300h100v100H700z"/><path fill="#b1a995" d="M0 400h100v100H0z"/><path fill="#a69174" d="M100 400h100v100H100z"/><path fill="#b49375" d="M200 400h100v100H200z"/><path fill="#a7764f" d="M300 400h100v100H300z"/><path fill="#beae96" d="M400 400h100v100H400z"/><path fill="#bdb2a1" d="M500 400h100v100H500z"/><path fill="#898f8f" d="M600 400h100v100H600z"/><path fill="#638d77" d="M700 400h100v100H700z"/><path fill="#d4d5d1" d="M0 500h100v100H0z"/><path fill="#c4bbaf" d="M100 500h100v100H100z"/><path fill="#bda997" d="M200 500h100v100H200z"/><path fill="#bfac9f" d="M300 500h100v100H300z"/><path fill="#b8aea0" d="M400 500h100v100H400z"/><path fill="#ad9f96" d="M500 500h100v100H500z"/><path fill="#aea59e" d="M600 500h100v100H600z"/><path fill="#948f89" d="M700 500h100v100H700z"/></svg>