<svg xmlns="http://www.w3.org/2000/svg" viewBox="0 0 800 600"><defs/><path fill="#fafaf9" d="M0 0h100v100H0z"/><path fill="#f3f5f8" d="M100 0h100v100H100z"/><path fill="#faf1dc" d="M200 0h100v100H200z"/><path fill="#fdeab8" d="M300 0h100v100H300z"/><path fill="#f4f8f8" d="M400 0h100v100H400z"/><path fill="#fcfcfa" d="M500 0h100v100H500z"/><path fill="#fff" d="M600 0h100v100H600z"/><path fill="#fcfcfc" d="M700 0h100v100H700z"/><path fill="#f9f8f6" d="M0 100h100v100H0z"/><path fill="#eaecf1" d="M100 100h100v100H100z"/><path fill="#faecc8" d="M200 100h100v100H200z"/><path fill="#fde6a6" d="M300 100h100v100H300z"/><path fill="#dceae7" d="M400 100h100v100H400z"/><path fill="#fcfcfa" d="M500 100h100v100H500z"/><path fill="#edeeed" d="M600 100h100v100H600z"/><path fill="#f4f4f4" d="M700 100h100v100H700z"/><path fill="#f3f2ef" d="M0 200h100v100H0z"/><path fill="#edf0f9" d="M100 200h100v100H100z"/><path fill="#feecb7" d="M200 200h100v100H200z"/><path fill="#feeaa9" d="M300 200h100v100H300z"/><path fill="#fff" d="M400 200h100v100H400z"/><path fill="#e5dfe2" d="M500 200h100v100H500z"/><path fill="#cbc1c2" d="M600 200h100v100H600z"/><path fill="#f4f0ed" d="M700 200h100v100H700z"/><path fill="#efeeeb" d="M0 300h100v100H0z"/><path fill="#e6ecee" d="M100 300h100v100H100z"/><path fill="#f4c187" d="M200 300h100v100H200z"/><path fill="#f9af53" d="M300 300h100v100H300z"/><path fill="#e2cdc0" d="M400 300h100v100H400z"/><path fill="#dfc7c7" d="M500 300h100v100H500z"/><path fill="#ddd3d3" d="M600 300h100v100H600z"/><path fill="#dad1d7" d="M700 300h100v100H700z"/><path fill="#e8e8e4" d="M0 400h100v100H0z"/><path fill="#ecede8" d="M100 400h100v100H100z"/><path fill="#e3d6ce" d="M200 400h100v100H200z"/><path fill="#f6e0d1" d="M300 400h100v100H300z"/><path fill="#b7a4ca" d="M400 400h100v100H400z"/><path fill="#bfd3e9" d="M500 400h100v100H500z"/><path fill="#bee6df" d="M600 400h100v100H600z"/><path fill="#98c5a6" d="M700 400h100v100H700z"/><path fill="#f8f8f5" d="M0 500h100v100H0z"/><path fill="#f7f7f4" d="M100 500h100v100H100z"/><path fill="#edefef" d="M200 500h100v100H200z"/><path fill="#f9f7f1" d="M300 500h100v100H300z"/><path fill="#a5c2f2" d="M400 500h100v100H400z"/><path fill="#dbeef4" d="M500 500h100v100H500z"/><path fill="#f5f9f2" d="M600 500h100v100H600z"/><path fill="#eef2e7" d="M700 500h100v100H700z"/></svg>