<svg xmlns="http://www.w3.org/2000/svg" viewBox="0 0 800 600"><defs/><path fill="#757067" d="M0 0h100v100H0z"/><path fill="#4f4738" d="M100 0h100v100H100z"/><path fill="#5f5a39" d="M200 0h100v100H200z"/><path fill="#977d56" d="M300 0h100v100H300z"/><path fill="#a97e68" d="M400 0h100v100H400z"/><path fill="#a5766c" d="M500 0h100v100H500z"/><path fill="#826554" d="M600 0h100v100H600z"/><path fill="#6b6758" d="M700 0h100v100H700z"/><path fill="#696258" d="M0 100h100v100H0z"/><path fill="#4b4333" d="M100 100h100v100H100z"/><path fill="#4b513e" d="M200 100h100v100H200z"/><path fill="#696450" d="M300 100h100v100H300z"/><path fill="#75675b" d="M400 100h100v100H400z"/><path fill="#705c52" d="M500 100h100v100H500z"/><path fill="#645848" d="M600 100h100v100H600z"/><path fill="#716854" d="M700 100h100v100H700z"/><path fill="#60574c" d="M0 200h100v100H0z"/><path fill="#574e39" d="M100 200h100v100H100z"/><path fill="#575242" d="M200 200h100v100H200z"/><path fill="#514f45" d="M300 200h100v100H300z"/><path fill="#696251" d="M400 200h100v100H400z"/><path fill="#6c5b43" d="M500 200h100v100H500z"/><path fill="#675b4d" d="M600 200h100v100H600z"/><path fill="#a09072" d="M700 200h100v100H700z"/><path fill="#5b5143" d="M0 300h100v100H0z"/><path fill="#524936" d="M100 300h100v100H100z"/><path fill="#653" d="M200 300h100v100H200z"/><path fill="#816947" d="M300 300h100v100H300z"/><path fill="#8d7456" d="M400 300h100v100H400z"/><path fill="#90703f" d="M500 300h100v100H500z"/><path fill="#5b533d" d="M600 300h100v100H600z"/><path fill="#897457" d="M700 300h100v100H700z"/><path fill="#4a4134" d="M0 400h100v100H0z"/><path fill="#393225" d="M100 400h100v100H100z"/><path fill="#5b4d36" d="M200 400h100v100H200z"/><path fill="#8c6c51" d="M300 400h100v100H300z"/><path fill="#6f594d" d="M400 400h100v100H400z"/><path fill="#a07852" d="M500 400h100v100H500z"/><path fill="#7d6538" d="M600 400h100v100H600z"/><path fill="#715d3b" d="M700 400h100v100H700z"/><path fill="#30291f" d="M0 500h100v100H0z"/><path fill="#30281e" d="M100 500h100v100H100z"/><path fill="#3e352e" d="M200 500h100v100H200z"/><path fill="#6e5644" d="M300 500h100v100H300z"/><path fill="#604e3e" d="M400 500h100v100H400z"/><path fill="#80644b" d="M500 500h100v100H500z"/><path fill="#66533c" d="M600 500h100v100H600z"/><path fill="#413829" d="M700 500h100v100H700z"/></svg>