<svg xmlns="http://www.w3.org/2000/svg" viewBox="0 0 800 600"><defs/><path fill="#c59771" d="M0 0h100v100H0z"/><path fill="#d7c1b1" d="M100 0h100v100H100z"/><path fill="#c9b09d" d="M200 0h100v100H200z"/><path fill="#bfa796" d="M300 0h100v100H300z"/><path fill="#b79f8f" d="M400 0h100v100H400z"/><path fill="#b19b8c" d="M500 0h100v100H500z"/><path fill="#a48f7f" d="M600 0h100v100H600z"/><path fill="#a5968a" d="M700 0h100v100H700z"/><path fill="#c4ae98" d="M0 100h100v100H0z"/><path fill="#ebe8e3" d="M100 100h100v100H100z"/><path fill="#d8d0c8" d="M200 100h100v100H200z"/><path fill="#bdb5ae" d="M300 100h100v100H300z"/><path fill="#afa49e" d="M400 100h100v100H400z"/><path fill="#b7aba3" d="M500 100h100v100H500z"/><path fill="#aea398" d="M600 100h100v100H600z"/><path fill="#aaa198" d="M700 100h100v100H700z"/><path fill="#af9581" d="M0 200h100v100H0z"/><path fill="#cfc8c1" d="M100 200h100v100H100z"/><path fill="#b4a9a1" d="M200 200h100v100H200z"/><path fill="#a89c96" d="M300 200h100v100H300z"/><path fill="#a1958e" d="M400 200h100v100H400z"/><path fill="#9a8f87" d="M500 200h100v100H500z"/><path fill="#92877e" d="M600 200h100v100H600z"/><path fill="#9c9187" d="M700 200h100v100H700z"/><path fill="#b3927a" d="M0 300h100v100H0z"/><path fill="#bdb6af" d="M100 300h100v100H100z"/><path fill="#a1968d" d="M200 300h100v100H200z"/><path fill="#a49890" d="M300 300h100v100H300z"/><path fill="#968b85" d="M400 300h100v100H400z"/><path fill="#8c8179" d="M500 300h100v100H500z"/><path fill="#84796f" d="M600 300h100v100H600z"/><path fill="#93867b" d="M700 300h100v100H700z"/><path fill="#a48874" d="M0 400h100v100H0z"/><path fill="#b7afa4" d="M100 400h100v100H100z"/><path fill="#9e958a" d="M200 400h100v100H200z"/><path fill="#948a81" d="M300 400h100v100H300z"/><path fill="#8b8078" d="M400 400h100v100H400z"/><path fill="#8e8278" d="M500 400h100v100H500z"/><path fill="#8c7f72" d="M600 400h100v100H600z"/><path fill="#8c7e71" d="M700 400h100v100H700z"/><path fill="#6f5643" d="M0 500h100v100H0z"/><path fill="#7a6d5f" d="M100 500h100v100H100z"/><path fill="#6d5e50" d="M200 500h100v100H200z"/><path fill="#594a3f" d="M300 500h100v100H300z"/><path fill="#514035" d="M400 500h100v100H400z"/><path fill="#513f32" d="M500 500h100v100H500z"/><path fill="#4b392c" d="M600 500h100v100H600z"/><path fill="#412e20" d="M700 500h100v100H700z"/></svg>