<svg xmlns="http://www.w3.org/2000/svg" viewBox="0 0 800 500"><defs/><path fill="#cec5ad" d="M0 0h100v100H0z"/><path fill="#caad8a" d="M100 0h100v100H100z"/><path fill="#d3bc9d" d="M200 0h100v100H200z"/><path fill="#ceb59c" d="M300 0h100v100H300z"/><path fill="#d5d0c3" d="M400 0h100v100H400z"/><path fill="#e7efd9" d="M500 0h100v100H500z"/><path fill="#e3e6bb" d="M600 0h100v100H600z"/><path fill="#ebe7d6" d="M700 0h100v100H700z"/><path fill="#cebf9f" d="M0 100h100v100H0z"/><path fill="#ac977e" d="M100 100h100v100H100z"/><path fill="#c0b19b" d="M200 100h100v100H200z"/><path fill="#d0bfb6" d="M300 100h100v100H300z"/><path fill="#c0c791" d="M400 100h100v100H400z"/><path fill="#b7cb84" d="M500 100h100v100H500z"/><path fill="#b4bb6a" d="M600 100h100v100H600z"/><path fill="#dfdfbe" d="M700 100h100v100H700z"/><path fill="#d1b68c" d="M0 200h100v100H0z"/><path fill="#a1968c" d="M100 200h100v100H100z"/><path fill="#bcab9e" d="M200 200h100v100H200z"/><path fill="#c6bebc" d="M300 200h100v100H300z"/><path fill="#bbb9a6" d="M400 200h100v100H400z"/><path fill="#b3ae96" d="M500 200h100v100H500z"/><path fill="#a9977d" d="M600 200h100v100H600z"/><path fill="#ddd6ba" d="M700 200h100v100H700z"/><path fill="#bcaa8a" d="M0 300h100v100H0z"/><path fill="#86706d" d="M100 300h100v100H100z"/><path fill="#9f8182" d="M200 300h100v100H200z"/><path fill="#94a7a7" d="M300 300h100v100H300z"/><path fill="#a28a77" d="M400 300h100v100H400z"/><path fill="#cfa084" d="M500 300h100v100H500z"/><path fill="#dcd3ca" d="M600 300h100v100H600z"/><path fill="#dfd2c4" d="M700 300h100v100H700z"/><path fill="#baad98" d="M0 400h100v100H0z"/><path fill="#b48c80" d="M100 400h100v100H100z"/><path fill="#c48274" d="M200 400h100v100H200z"/><path fill="#c2988a" d="M300 400h100v100H300z"/><path fill="#bd967e" d="M400 400h100v100H400z"/><path fill="#dfb9a9" d="M500 400h100v100H500z"/><path fill="#e5dcd2" d="M600 400h100v100H600z"/><path fill="#dfd3c5" d="M700 400h100v100H700z"/></svg>