<svg xmlns="http://www.w3.org/2000/svg" viewBox="0 0 800 600"><defs/><path fill="#8a7e50" d="M0 0h100v100H0z"/><path fill="#80695d" d="M100 0h100v100H100z"/><path fill="#848384" d="M200 0h100v100H200z"/><path fill="#85868b" d="M300 0h100v100H300z"/><path fill="#7494a3" d="M400 0h100v100H400z"/><path fill="#8695a0" d="M500 0h100v100H500z"/><path fill="#9b9da6" d="M600 0h100v100H600z"/><path fill="#aba76f" d="M700 0h100v100H700z"/><path fill="#818086" d="M0 100h100v100H0z"/><path fill="#816a5f" d="M100 100h100v100H100z"/><path fill="#85868a" d="M200 100h100v100H200z"/><path fill="#93979d" d="M300 100h100v100H300z"/><path fill="#7d8893" d="M400 100h100v100H400z"/><path fill="#838991" d="M500 100h100v100H500z"/><path fill="#8d9098" d="M600 100h100v100H600z"/><path fill="#8c8785" d="M700 100h100v100H700z"/><path fill="#918277" d="M0 200h100v100H0z"/><path fill="#947f79" d="M100 200h100v100H100z"/><path fill="#9799a5" d="M200 200h100v100H200z"/><path fill="#7a7f8e" d="M300 200h100v100H300z"/><path fill="#704124" d="M400 200h100v100H400z"/><path fill="#71605d" d="M500 200h100v100H500z"/><path fill="#8d97ae" d="M600 200h100v100H600z"/><path fill="#908d90" d="M700 200h100v100H700z"/><path fill="#a3886c" d="M0 300h100v100H0z"/><path fill="#8b725e" d="M100 300h100v100H100z"/><path fill="#a6a189" d="M200 300h100v100H200z"/><path fill="#afab8a" d="M300 300h100v100H300z"/><path fill="#b99e79" d="M400 300h100v100H400z"/><path fill="#b4a786" d="M500 300h100v100H500z"/><path fill="#b9b37b" d="M600 300h100v100H600z"/><path fill="#91998a" d="M700 300h100v100H700z"/><path fill="#aa9565" d="M0 400h100v100H0z"/><path fill="#7e5d3d" d="M100 400h100v100H100z"/><path fill="#c8b76e" d="M200 400h100v100H200z"/><path fill="#bea474" d="M300 400h100v100H300z"/><path fill="#b3957a" d="M400 400h100v100H400z"/><path fill="#c79a5b" d="M500 400h100v100H500z"/><path fill="#c6b150" d="M600 400h100v100H600z"/><path fill="#b8a559" d="M700 400h100v100H700z"/><path fill="#947a53" d="M0 500h100v100H0z"/><path fill="#978166" d="M100 500h100v100H100z"/><path fill="#d2c588" d="M200 500h100v100H200z"/><path fill="#ae9044" d="M300 500h100v100H300z"/><path fill="#b3974a" d="M400 500h100v100H400z"/><path fill="#a3875c" d="M500 500h100v100H500z"/><path fill="#b8a56f" d="M600 500h100v100H600z"/><path fill="#c5ba7a" d="M700 500h100v100H700z"/></svg>