<svg xmlns="http://www.w3.org/2000/svg" viewBox="0 0 800 600"><defs/><path fill="#beb6a4" d="M0 0h100v100H0z"/><path fill="#a8a8a1" d="M100 0h100v100H100z"/><path fill="#a89186" d="M200 0h100v100H200z"/><path fill="#cec7c1" d="M300 0h100v100H300z"/><path fill="#bab3a4" d="M400 0h100v100H400z"/><path fill="#ac9775" d="M500 0h100v100H500z"/><path fill="#b9a37a" d="M600 0h100v100H600z"/><path fill="#c8b795" d="M700 0h100v100H700z"/><path fill="#c6b8a8" d="M0 100h100v100H0z"/><path fill="#4d3c2b" d="M100 100h100v100H100z"/><path fill="#785a48" d="M200 100h100v100H200z"/><path fill="#968d84" d="M300 100h100v100H300z"/><path fill="#a2a3a2" d="M400 100h100v100H400z"/><path fill="#c2bba8" d="M500 100h100v100H500z"/><path fill="#d2cab3" d="M600 100h100v100H600z"/><path fill="#d5cab2" d="M700 100h100v100H700z"/><path fill="#b2a58f" d="M0 200h100v100H0z"/><path fill="#6f5237" d="M100 200h100v100H100z"/><path fill="#8c6d55" d="M200 200h100v100H200z"/><path fill="#413c2d" d="M300 200h100v100H300z"/><path fill="#4f452e" d="M400 200h100v100H400z"/><path fill="#4e442a" d="M500 200h100v100H500z"/><path fill="#b4a98e" d="M600 200h100v100H600z"/><path fill="#c7bba1" d="M700 200h100v100H700z"/><path fill="#b8ab92" d="M0 300h100v100H0z"/><path fill="#766a54" d="M100 300h100v100H100z"/><path fill="#847d72" d="M200 300h100v100H200z"/><path fill="#d0c3aa" d="M300 300h100v100H300z"/><path fill="#ccbda0" d="M400 300h100v100H400z"/><path fill="#71664a" d="M500 300h100v100H500z"/><path fill="#998a63" d="M600 300h100v100H600z"/><path fill="#c3b696" d="M700 300h100v100H700z"/><path fill="#c9c4b9" d="M0 400h100v100H0z"/><path fill="#d2ccc5" d="M100 400h100v100H100z"/><path fill="#cec4ab" d="M200 400h100v100H200z"/><path fill="#decfae" d="M300 400h100v100H300z"/><path fill="#bfb395" d="M400 400h100v100H400z"/><path fill="#c9bf9f" d="M500 400h100v100H500z"/><path fill="#9c8c62" d="M600 400h100v100H600z"/><path fill="#958052" d="M700 400h100v100H700z"/><path fill="#d3cec4" d="M0 500h100v100H0z"/><path fill="#c5b89c" d="M100 500h100v100H100z"/><path fill="#cfc2a0" d="M200 500h100v100H200z"/><path fill="#d7caab" d="M300 500h100v100H300z"/><path fill="#c8bca2" d="M400 500h100v100H400z"/><path fill="#b6a989" d="M500 500h100v100H500z"/><path fill="#b09e75" d="M600 500h100v100H600z"/><path fill="#b7a47b" d="M700 500h100v100H700z"/></svg>