<svg xmlns="http://www.w3.org/2000/svg" viewBox="0 0 800 400"><defs/><path fill="#2b2013" d="M0 0h100v100H0z"/><path fill="#655232" d="M100 0h100v100H100z"/><path fill="#302516" d="M200 0h100v100H200z"/><path fill="#2d2113" d="M300 0h100v100H300z"/><path fill="#2f2415" d="M400 0h100v100H400z"/><path fill="#43372a" d="M500 0h100v100H500z"/><path fill="#382d21" d="M600 0h100v100H600z"/><path fill="#1d140c" d="M700 0h100v100H700z"/><path fill="#3e311e" d="M0 100h100v100H0z"/><path fill="#5d4c2d" d="M100 100h100v100H100z"/><path fill="#3a2c1a" d="M200 100h100v100H200z"/><path fill="#49351f" d="M300 100h100v100H300z"/><path fill="#3d2d1b" d="M400 100h100v100H400z"/><path fill="#3c3b2e" d="M500 100h100v100H500z"/><path fill="#413826" d="M600 100h100v100H600z"/><path fill="#1d140b" d="M700 100h100v100H700z"/><path fill="#4e3f26" d="M0 200h100v100H0z"/><path fill="#58462a" d="M100 200h100v100H100z"/><path fill="#423b33" d="M200 200h100v100H200z"/><path fill="#605643" d="M300 200h100v100H300z"/><path fill="#5e543d" d="M400 200h100v100H400z"/><path fill="#333c37" d="M500 200h100v100H500z"/><path fill="#795623" d="M600 200h100v100H600z"/><path fill="#3d2c13" d="M700 200h100v100H700z"/><path fill="#58472b" d="M0 300h100v100H0z"/><path fill="#604a2d" d="M100 300h100v100H100z"/><path fill="#56422a" d="M200 300h100v100H200z"/><path fill="#55432c" d="M300 300h100v100H300z"/><path fill="#56442f" d="M400 300h100v100H400z"/><path fill="#514036" d="M500 300h100v100H500z"/><path fill="#634a29" d="M600 300h100v100H600z"/><path fill="#4a371e" d="M700 300h100v100H700z"/></svg>