<svg xmlns="http://www.w3.org/2000/svg" viewBox="0 0 800 400"><defs/><path fill="#d6d1cc" d="M0 0h100v100H0z"/><path fill="#708193" d="M100 0h100v100H100z"/><path fill="#e3e3d9" d="M200 0h100v100H200z"/><path fill="#d7c3b4" d="M300 0h100v100H300z"/><path fill="#d6c8bc" d="M400 0h100v100H400z"/><path fill="#e0d7cc" d="M500 0h100v100H500z"/><path fill="#d3cdc5" d="M600 0h100v100H600z"/><path fill="#c4bdb4" d="M700 0h100v100H700z"/><path fill="#b9bec2" d="M0 100h100v100H0z"/><path fill="#708d9d" d="M100 100h100v100H100z"/><path fill="#f5ede0" d="M200 100h100v100H200z"/><path fill="#cebab0" d="M300 100h100v100H300z"/><path fill="#d2b197" d="M400 100h100v100H400z"/><path fill="#dcae7b" d="M500 100h100v100H500z"/><path fill="#bebeaf" d="M600 100h100v100H600z"/><path fill="#beb8b1" d="M700 100h100v100H700z"/><path fill="#858f9d" d="M0 200h100v100H0z"/><path fill="#748995" d="M100 200h100v100H100z"/><path fill="#e3d9ce" d="M200 200h100v100H200z"/><path fill="#c5b3b2" d="M300 200h100v100H300z"/><path fill="#babaae" d="M400 200h100v100H400z"/><path fill="#849081" d="M500 200h100v100H500z"/><path fill="#b4a59e" d="M600 200h100v100H600z"/><path fill="#9c8983" d="M700 200h100v100H700z"/><path fill="#677c8a" d="M0 300h100v100H0z"/><path fill="#9da9a9" d="M100 300h100v100H100z"/><path fill="#cec2bb" d="M200 300h100v100H200z"/><path fill="#997676" d="M300 300h100v100H300z"/><path fill="#af9d95" d="M400 300h100v100H400z"/><path fill="#85968b" d="M500 300h100v100H500z"/><path fill="#a3928a" d="M600 300h100v100H600z"/><path fill="#a38f88" d="M700 300h100v100H700z"/></svg>