<svg xmlns="http://www.w3.org/2000/svg" viewBox="0 0 800 600"><defs/><path fill="#e7ddd5" d="M0 0h100v100H0z"/><path fill="#e6ded7" d="M100 0h100v100H100z"/><path fill="#e7dfda" d="M200 0h100v100H200z"/><path fill="#cbc2bb" d="M300 0h100v100H300z"/><path fill="#c8c0b9" d="M400 0h100v100H400z"/><path fill="#d5cdc7" d="M500 0h100v100H500z"/><path fill="#cec5be" d="M600 0h100v100H600z"/><path fill="#ccc2b9" d="M700 0h100v100H700z"/><path fill="#d8d2cf" d="M0 100h100v100H0z"/><path fill="#c9c7c2" d="M100 100h100v100H100z"/><path fill="#ccc7c3" d="M200 100h100v100H200z"/><path fill="#beb8b3" d="M300 100h100v100H300z"/><path fill="#b7b0a9" d="M400 100h100v100H400z"/><path fill="#aea6a0" d="M500 100h100v100H500z"/><path fill="#b2aba5" d="M600 100h100v100H600z"/><path fill="#aca29b" d="M700 100h100v100H700z"/><path fill="#cdc6c0" d="M0 200h100v100H0z"/><path fill="#c6c3be" d="M100 200h100v100H100z"/><path fill="#bbbbb3" d="M200 200h100v100H200z"/><path fill="#afb3ad" d="M300 200h100v100H300z"/><path fill="#c6beb6" d="M400 200h100v100H400z"/><path fill="#b3a89f" d="M500 200h100v100H500z"/><path fill="#817974" d="M600 200h100v100H600z"/><path fill="#706762" d="M700 200h100v100H700z"/><path fill="#b9b4ae" d="M0 300h100v100H0z"/><path fill="#b8b3b1" d="M100 300h100v100H100z"/><path fill="#c9b398" d="M200 300h100v100H200z"/><path fill="#c3b19e" d="M300 300h100v100H300z"/><path fill="#c3bab2" d="M400 300h100v100H400z"/><path fill="#bcb4ad" d="M500 300h100v100H500z"/><path fill="#867e78" d="M600 300h100v100H600z"/><path fill="#4f4744" d="M700 300h100v100H700z"/><path fill="#b1adaa" d="M0 400h100v100H0z"/><path fill="#b5afab" d="M100 400h100v100H100z"/><path fill="#b9a499" d="M200 400h100v100H200z"/><path fill="#beac9e" d="M300 400h100v100H300z"/><path fill="#bfb5ac" d="M400 400h100v100H400z"/><path fill="#b1a59b" d="M500 400h100v100H500z"/><path fill="#998d83" d="M600 400h100v100H600z"/><path fill="#605854" d="M700 400h100v100H700z"/><path fill="#c2b9b3" d="M0 500h100v100H0z"/><path fill="#c4bbb5" d="M100 500h100v100H100z"/><path fill="#c4bcb6" d="M200 500h100v100H200z"/><path fill="#bdb6af" d="M300 500h100v100H300z"/><path fill="#bab2ac" d="M400 500h100v100H400z"/><path fill="#aca099" d="M500 500h100v100H500z"/><path fill="#9e9089" d="M600 500h100v100H600z"/><path fill="#9a8f8a" d="M700 500h100v100H700z"/></svg>