<svg xmlns="http://www.w3.org/2000/svg" viewBox="0 0 800 600"><defs/><path fill="#f6f6f4" d="M0 0h100v100H0z"/><path fill="#f3f1ee" d="M100 0h100v100H100z"/><path fill="#faf8f6" d="M200 0h100v100H200z"/><path fill="#f3f1ef" d="M300 0h100v100H300z"/><path fill="#f5f4f2" d="M400 0h100v100H400z"/><path fill="#eeece9" d="M500 0h100v100H500z"/><path fill="#f4f4f3" d="M600 0h100v100H600z"/><path fill="#f7f6f4" d="M700 0h100v100H700z"/><path fill="#e4e2d7" d="M0 100h100v100H0z"/><path fill="#cec4b4" d="M100 100h100v100H100z"/><path fill="#d4cbbe" d="M200 100h100v100H200z"/><path fill="#bdbaaf" d="M300 100h100v100H300z"/><path fill="#cdc7b8" d="M400 100h100v100H400z"/><path fill="#bcb2a5" d="M500 100h100v100H500z"/><path fill="#cfcdc9" d="M600 100h100v100H600z"/><path fill="#cfccc2" d="M700 100h100v100H700z"/><path fill="#dbd5c8" d="M0 200h100v100H0z"/><path fill="#c8beae" d="M100 200h100v100H100z"/><path fill="#b8b1a0" d="M200 200h100v100H200z"/><path fill="#9fa398" d="M300 200h100v100H300z"/><path fill="#5c625a" d="M400 200h100v100H400z"/><path fill="#7f7d75" d="M500 200h100v100H500z"/><path fill="#ccc3ba" d="M600 200h100v100H600z"/><path fill="#b0aea3" d="M700 200h100v100H700z"/><path fill="#dbd4c6" d="M0 300h100v100H0z"/><path fill="#b0a290" d="M100 300h100v100H100z"/><path fill="#8b826a" d="M200 300h100v100H200z"/><path fill="#847969" d="M300 300h100v100H300z"/><path fill="#5a534a" d="M400 300h100v100H400z"/><path fill="#696151" d="M500 300h100v100H500z"/><path fill="#9b9279" d="M600 300h100v100H600z"/><path fill="#8b7b6f" d="M700 300h100v100H700z"/><path fill="#c9c1b1" d="M0 400h100v100H0z"/><path fill="#8a7460" d="M100 400h100v100H100z"/><path fill="#846d56" d="M200 400h100v100H200z"/><path fill="#918061" d="M300 400h100v100H300z"/><path fill="#625544" d="M400 400h100v100H400z"/><path fill="#606054" d="M500 400h100v100H500z"/><path fill="#7a7b57" d="M600 400h100v100H600z"/><path fill="#736d58" d="M700 400h100v100H700z"/><path fill="#dbd9d1" d="M0 500h100v100H0z"/><path fill="#c5beb3" d="M100 500h100v100H100z"/><path fill="#c0b9ae" d="M200 500h100v100H200z"/><path fill="#b8b5a5" d="M300 500h100v100H300z"/><path fill="#b8b3ac" d="M400 500h100v100H400z"/><path fill="#b1b0ae" d="M500 500h100v100H500z"/><path fill="#c1beb3" d="M600 500h100v100H600z"/><path fill="#c1bdb7" d="M700 500h100v100H700z"/></svg>