<svg xmlns="http://www.w3.org/2000/svg" viewBox="0 0 800 400"><defs/><path fill="#5bc3d3" d="M0 0h100v100H0z"/><path fill="#1fb4d0" d="M100 0h100v100H100z"/><path fill="#abaa87" d="M200 0h100v100H200z"/><path fill="#ff973c" d="M300 0h100v100H300z"/><path fill="#ec8e3e" d="M400 0h100v100H400z"/><path fill="#ed923e" d="M500 0h100v100H500z"/><path fill="#e37434" d="M600 0h100v100H600z"/><path fill="#ed7039" d="M700 0h100v100H700z"/><path fill="#5ea9b0" d="M0 100h100v100H0z"/><path fill="#509da3" d="M100 100h100v100H100z"/><path fill="#74a4a4" d="M200 100h100v100H200z"/><path fill="#a49484" d="M300 100h100v100H300z"/><path fill="#babbaf" d="M400 100h100v100H400z"/><path fill="#c4c3bc" d="M500 100h100v100H500z"/><path fill="#c6beb3" d="M600 100h100v100H600z"/><path fill="#b9a395" d="M700 100h100v100H700z"/><path fill="#89bfc3" d="M0 200h100v100H0z"/><path fill="#85bab9" d="M100 200h100v100H100z"/><path fill="#9cc4c9" d="M200 200h100v100H200z"/><path fill="#d1d1d8" d="M300 200h100v100H300z"/><path fill="#dee7eb" d="M400 200h100v100H400z"/><path fill="#e3eaef" d="M500 200h100v100H500z"/><path fill="#e8eced" d="M600 200h100v100H600z"/><path fill="#dfe4e3" d="M700 200h100v100H700z"/><path fill="#f8f5f3" d="M0 300h100v100H0z"/><path fill="#efece6" d="M100 300h100v100H100z"/><path fill="#d9e0e1" d="M200 300h100v100H200z"/><path fill="#c1c5c4" d="M300 300h100v100H300z"/><path fill="#bdc8cb" d="M400 300h100v100H400z"/><path fill="#979fa2" d="M500 300h100v100H500z"/><path fill="#a9b9ba" d="M600 300h100v100H600z"/><path fill="#66949c" d="M700 300h100v100H700z"/></svg>