<svg xmlns="http://www.w3.org/2000/svg" viewBox="0 0 800 600"><defs/><path fill="#ad9e8f" d="M0 0h100v100H0z"/><path fill="#b0a092" d="M100 0h100v100H100z"/><path fill="#b5a697" d="M200 0h100v100H200z"/><path fill="#a9998b" d="M300 0h100v100H300z"/><path fill="#b9a99b" d="M400 0h100v100H400z"/><path fill="#af9f91" d="M500 0h100v100H500z"/><path fill="#b5a598" d="M600 0h100v100H600z"/><path fill="#b4a497" d="M700 0h100v100H700z"/><path fill="#b8a99a" d="M0 100h100v100H0z"/><path fill="#bcaea0" d="M100 100h100v100H100z"/><path fill="#c9beb1" d="M200 100h100v100H200z"/><path fill="#baac9f" d="M300 100h100v100H300z"/><path fill="#bbada2" d="M400 100h100v100H400z"/><path fill="#c7bcb1" d="M500 100h100v100H500z"/><path fill="#d9d1c9" d="M600 100h100v100H600z"/><path fill="#ddd5cb" d="M700 100h100v100H700z"/><path fill="#c4b8aa" d="M0 200h100v100H0z"/><path fill="#d6cdc4" d="M100 200h100v100H100z"/><path fill="#c3b7ae" d="M200 200h100v100H200z"/><path fill="#dad4c9" d="M300 200h100v100H300z"/><path fill="#d7cfc6" d="M400 200h100v100H400z"/><path fill="#d5cec6" d="M500 200h100v100H500z"/><path fill="#dcd7d0" d="M600 200h100v100H600z"/><path fill="#dbd3cb" d="M700 200h100v100H700z"/><path fill="#bfb0a4" d="M0 300h100v100H0z"/><path fill="#c0b3ab" d="M100 300h100v100H100z"/><path fill="#9b8982" d="M200 300h100v100H200z"/><path fill="#aea096" d="M300 300h100v100H300z"/><path fill="#b6a89d" d="M400 300h100v100H400z"/><path fill="#c5bcb3" d="M500 300h100v100H500z"/><path fill="#d7d0c9" d="M600 300h100v100H600z"/><path fill="#a7978f" d="M700 300h100v100H700z"/><path fill="#c9bdb2" d="M0 400h100v100H0z"/><path fill="#d6ccc4" d="M100 400h100v100H100z"/><path fill="#cac0b7" d="M200 400h100v100H200z"/><path fill="#d6cec4" d="M300 400h100v100H300z"/><path fill="#c1b4ab" d="M400 400h100v100H400z"/><path fill="#876f66" d="M500 400h100v100H500z"/><path fill="#c8bcb4" d="M600 400h100v100H600z"/><path fill="#ddd6cc" d="M700 400h100v100H700z"/><path fill="#bbab9e" d="M0 500h100v100H0z"/><path fill="#cfc2b5" d="M100 500h100v100H100z"/><path fill="#baada0" d="M200 500h100v100H200z"/><path fill="#9e8d82" d="M300 500h100v100H300z"/><path fill="#8f7c71" d="M400 500h100v100H400z"/><path fill="#391e17" d="M500 500h100v100H500z"/><path fill="#9b8b81" d="M600 500h100v100H600z"/><path fill="#cabeb1" d="M700 500h100v100H700z"/></svg>