<svg xmlns="http://www.w3.org/2000/svg" viewBox="0 0 800 400"><defs/><path fill="#636668" d="M0 0h100v100H0z"/><path fill="#5a5e5f" d="M100 0h100v100H100z"/><path fill="#434342" d="M200 0h100v100H200z"/><path fill="#626465" d="M300 0h100v100H300z"/><path fill="#828183" d="M400 0h100v100H400z"/><path fill="#6d696b" d="M500 0h100v100H500z"/><path fill="#504f50" d="M600 0h100v100H600z"/><path fill="#676568" d="M700 0h100v100H700z"/><path fill="#707270" d="M0 100h100v100H0z"/><path fill="#3f403e" d="M100 100h100v100H100z"/><path fill="#2a2a29" d="M200 100h100v100H200z"/><path fill="#2f3030" d="M300 100h100v100H300z"/><path fill="#737173" d="M400 100h100v100H400z"/><path fill="#8d8e92" d="M500 100h100v100H500z"/><path fill="#837b78" d="M600 100h100v100H600z"/><path fill="#6a6462" d="M700 100h100v100H700z"/><path fill="#686966" d="M0 200h100v100H0z"/><path fill="#4c4d4a" d="M100 200h100v100H100z"/><path fill="#4d484b" d="M200 200h100v100H200z"/><path fill="#605f60" d="M300 200h100v100H300z"/><path fill="#9d9d9d" d="M400 200h100v100H400z"/><path fill="#817f80" d="M500 200h100v100H500z"/><path fill="#585853" d="M600 200h100v100H600z"/><path fill="#71716c" d="M700 200h100v100H700z"/><path fill="#767773" d="M0 300h100v100H0z"/><path fill="#666765" d="M100 300h100v100H100z"/><path fill="#817f80" d="M200 300h100v100H200z"/><path fill="#78736f" d="M300 300h100v100H300z"/><path fill="#756f6a" d="M400 300h100v100H400z"/><path fill="#5b514c" d="M500 300h100v100H500z"/><path fill="#46413f" d="M600 300h100v100H600z"/><path fill="#48484a" d="M700 300h100v100H700z"/></svg>