<svg xmlns="http://www.w3.org/2000/svg" viewBox="0 0 800 600"><defs/><path fill="#e5ded3" d="M0 0h100v100H0z"/><path fill="#dec9e3" d="M100 0h100v100H100z"/><path fill="#ece1db" d="M200 0h100v100H200z"/><path fill="#efe1d2" d="M300 0h100v100H300z"/><path fill="#f4e3d3" d="M400 0h100v100H400z"/><path fill="#efe5d9" d="M500 0h100v100H500z"/><path fill="#e8dfcf" d="M600 0h100v100H600z"/><path fill="#ebe1cd" d="M700 0h100v100H700z"/><path fill="#b3b3b1" d="M0 100h100v100H0z"/><path fill="#5b6eae" d="M100 100h100v100H100z"/><path fill="#e8b895" d="M200 100h100v100H200z"/><path fill="#b99e93" d="M300 100h100v100H300z"/><path fill="#6c9d92" d="M400 100h100v100H400z"/><path fill="#c1b299" d="M500 100h100v100H500z"/><path fill="#d1bc9c" d="M600 100h100v100H600z"/><path fill="#e8c47c" d="M700 100h100v100H700z"/><path fill="#9eb3a3" d="M0 200h100v100H0z"/><path fill="#77a684" d="M100 200h100v100H100z"/><path fill="#8baa93" d="M200 200h100v100H200z"/><path fill="#2b7078" d="M300 200h100v100H300z"/><path fill="#305960" d="M400 200h100v100H400z"/><path fill="#388076" d="M500 200h100v100H500z"/><path fill="#cf9d72" d="M600 200h100v100H600z"/><path fill="#ae926c" d="M700 200h100v100H700z"/><path fill="#d6b17e" d="M0 300h100v100H0z"/><path fill="#d79f5b" d="M100 300h100v100H100z"/><path fill="#639798" d="M200 300h100v100H200z"/><path fill="#6d928d" d="M300 300h100v100H300z"/><path fill="#a07660" d="M400 300h100v100H400z"/><path fill="#5a7d63" d="M500 300h100v100H500z"/><path fill="#c96628" d="M600 300h100v100H600z"/><path fill="#aa7557" d="M700 300h100v100H700z"/><path fill="#d99575" d="M0 400h100v100H0z"/><path fill="#cb763f" d="M100 400h100v100H100z"/><path fill="#a67d5c" d="M200 400h100v100H200z"/><path fill="#b28562" d="M300 400h100v100H300z"/><path fill="#c48f54" d="M400 400h100v100H400z"/><path fill="#bead82" d="M500 400h100v100H500z"/><path fill="#647b7a" d="M600 400h100v100H600z"/><path fill="#94896e" d="M700 400h100v100H700z"/><path fill="#e4d1c2" d="M0 500h100v100H0z"/><path fill="#e7cfba" d="M100 500h100v100H100z"/><path fill="#d8ccbc" d="M200 500h100v100H200z"/><path fill="#e1cfb9" d="M300 500h100v100H300z"/><path fill="#efd4b4" d="M400 500h100v100H400z"/><path fill="#f0d3b4" d="M500 500h100v100H500z"/><path fill="#cfcbc3" d="M600 500h100v100H600z"/><path fill="#d3cec6" d="M700 500h100v100H700z"/></svg>