<svg xmlns="http://www.w3.org/2000/svg" viewBox="0 0 800 500"><defs/><path fill="#e8c0b3" d="M0 0h100v100H0z"/><path fill="#d48970" d="M100 0h100v100H100z"/><path fill="#be8472" d="M200 0h100v100H200z"/><path fill="#af7c69" d="M300 0h100v100H300z"/><path fill="#a77e6f" d="M400 0h100v100H400z"/><path fill="#b98a78" d="M500 0h100v100H500z"/><path fill="#bc8e7e" d="M600 0h100v100H600z"/><path fill="#ecd7d3" d="M700 0h100v100H700z"/><path fill="#dba896" d="M0 100h100v100H0z"/><path fill="#be461d" d="M100 100h100v100H100z"/><path fill="#a95f45" d="M200 100h100v100H200z"/><path fill="#9c563e" d="M300 100h100v100H300z"/><path fill="#7a3c23" d="M400 100h100v100H400z"/><path fill="#9c462a" d="M500 100h100v100H500z"/><path fill="#9b4f2a" d="M600 100h100v100H600z"/><path fill="#b7a593" d="M700 100h100v100H700z"/><path fill="#cf9f90" d="M0 200h100v100H0z"/><path fill="#af4c24" d="M100 200h100v100H100z"/><path fill="#97624a" d="M200 200h100v100H200z"/><path fill="#4d3834" d="M300 200h100v100H300z"/><path fill="#94614d" d="M400 200h100v100H400z"/><path fill="#7e3c26" d="M500 200h100v100H500z"/><path fill="#72391c" d="M600 200h100v100H600z"/><path fill="#a18659" d="M700 200h100v100H700z"/><path fill="#d88a72" d="M0 300h100v100H0z"/><path fill="#a65729" d="M100 300h100v100H100z"/><path fill="#a55831" d="M200 300h100v100H200z"/><path fill="#3c150b" d="M300 300h100v100H300z"/><path fill="#876457" d="M400 300h100v100H400z"/><path fill="#ac9992" d="M500 300h100v100H500z"/><path fill="#8d775b" d="M600 300h100v100H600z"/><path fill="#a38057" d="M700 300h100v100H700z"/><path fill="#e3ab9a" d="M0 400h100v100H0z"/><path fill="#d99276" d="M100 400h100v100H100z"/><path fill="#d8937a" d="M200 400h100v100H200z"/><path fill="#9e7264" d="M300 400h100v100H300z"/><path fill="#b89487" d="M400 400h100v100H400z"/><path fill="#f6dcd4" d="M500 400h100v100H500z"/><path fill="#e6c9bb" d="M600 400h100v100H600z"/><path fill="#cfb19d" d="M700 400h100v100H700z"/></svg>