<svg xmlns="http://www.w3.org/2000/svg" viewBox="0 0 800 400"><defs/><path fill="#c7c6c7" d="M0 0h100v100H0z"/><path fill="#949595" d="M100 0h100v100H100z"/><path fill="#9696a3" d="M200 0h100v100H200z"/><path fill="#bcbdd1" d="M300 0h100v100H300z"/><path fill="#c1cdd9" d="M400 0h100v100H400z"/><path fill="#9da7bb" d="M500 0h100v100H500z"/><path fill="#888789" d="M600 0h100v100H600z"/><path fill="#c4c2c3" d="M700 0h100v100H700z"/><path fill="#b9b9b9" d="M0 100h100v100H0z"/><path fill="#abadad" d="M100 100h100v100H100z"/><path fill="#aaa8ac" d="M200 100h100v100H200z"/><path fill="#adabb3" d="M300 100h100v100H300z"/><path fill="#a9b1ca" d="M400 100h100v100H400z"/><path fill="#9fa5ba" d="M500 100h100v100H500z"/><path fill="#9a9b9b" d="M600 100h100v100H600z"/><path fill="#c8c8c8" d="M700 100h100v100H700z"/><path fill="#a5a5a6" d="M0 200h100v100H0z"/><path fill="#b3b3b3" d="M100 200h100v100H100z"/><path fill="#d3d4d2" d="M200 200h100v100H200z"/><path fill="#aaadb7" d="M300 200h100v100H300z"/><path fill="#aeafb7" d="M400 200h100v100H400z"/><path fill="#c8c9cb" d="M500 200h100v100H500z"/><path fill="#c8c8c9" d="M600 200h100v100H600z"/><path fill="#cfcfcf" d="M700 200h100v100H700z"/><path fill="#b9bbbd" d="M0 300h100v100H0z"/><path fill="#c4bcaf" d="M100 300h100v100H100z"/><path fill="#c4b092" d="M200 300h100v100H200z"/><path fill="#cbc8c3" d="M300 300h100v100H300z"/><path fill="#cecfcf" d="M400 300h100v100H400z"/><path fill="#c4c4c3" d="M500 300h100v100H500z"/><path fill="#cacacb" d="M600 300h100v100H600z"/><path fill="#c8c8c8" d="M700 300h100v100H700z"/></svg>