<svg xmlns="http://www.w3.org/2000/svg" viewBox="0 0 800 500"><defs/><path fill="#e1e1e1" d="M0 0h100v100H0z"/><path fill="#c2c2c2" d="M100 0h100v100H100z"/><path fill="silver" d="M200 0h100v100H200z"/><path fill="#dadada" d="M300 0h100v100H300z"/><path fill="#b8b8b8" d="M400 0h100v100H400z"/><path fill="#e9e9e9" d="M500 0h100v100H500z"/><path fill="#dbdbdb" d="M600 0h100v100H600z"/><path fill="#c6c6c6" d="M700 0h100v100H700z"/><path fill="#dcdcdc" d="M0 100h100v100H0z"/><path fill="#9c9c9c" d="M100 100h100v100H100z"/><path fill="#bdbdbd" d="M200 100h100v100H200z"/><path fill="#bcbcbc" d="M300 100h100v100H300z"/><path fill="#c2c2c2" d="M400 100h100v100H400z"/><path fill="#e2e2e2" d="M500 100h100v100H500z"/><path fill="#dadada" d="M600 100h100v100H600z"/><path fill="#d2d2d2" d="M700 100h100v100H700z"/><path fill="#e0e0e0" d="M0 200h100v100H0z"/><path fill="#acacac" d="M100 200h100v100H100z"/><path fill="silver" d="M200 200h100v100H200z"/><path fill="#c2c2c2" d="M300 200h100v100H300z"/><path fill="#d7d7d7" d="M400 200h100v100H400z"/><path fill="#cacaca" d="M500 200h100v100H500z"/><path fill="#d0d0d0" d="M600 200h100v100H600z"/><path fill="#cfcfcf" d="M700 200h100v100H700z"/><path fill="#d1d1d1" d="M0 300h100v100H0z"/><path fill="#ccc" d="M100 300h100v100H100z"/><path fill="#b1b1b1" d="M200 300h100v100H200z"/><path fill="#aaa" d="M300 300h100v100H300z"/><path fill="#a4a4a4" d="M400 300h100v100H400z"/><path fill="gray" d="M500 300h100v100H500z"/><path fill="#8d8d8d" d="M600 300h100v100H600z"/><path fill="#999" d="M700 300h100v100H700z"/><path fill="#bdbdbd" d="M0 400h100v100H0z"/><path fill="#ddd" d="M100 400h100v100H100z"/><path fill="#c1c1c1" d="M200 400h100v100H200z"/><path fill="#cecece" d="M300 400h100v100H300z"/><path fill="#b1b1b1" d="M400 400h100v100H400z"/><path fill="#c6c6c6" d="M500 400h100v100H500z"/><path fill="#a4a4a4" d="M600 400h100v100H600z"/><path fill="#adadad" d="M700 400h100v100H700z"/></svg>