<svg xmlns="http://www.w3.org/2000/svg" viewBox="0 0 800 500"><defs/><path fill="#49313b" d="M0 0h100v100H0z"/><path fill="#3c2328" d="M100 0h100v100H100z"/><path fill="#7a747c" d="M200 0h100v100H200z"/><path fill="#736c75" d="M300 0h100v100H300z"/><path fill="#2f2a3c" d="M400 0h100v100H400z"/><path fill="#3a3647" d="M500 0h100v100H500z"/><path fill="#362d38" d="M600 0h100v100H600z"/><path fill="#383140" d="M700 0h100v100H700z"/><path fill="#4f3a44" d="M0 100h100v100H0z"/><path fill="#3b272e" d="M100 100h100v100H100z"/><path fill="#b6adb5" d="M200 100h100v100H200z"/><path fill="#aa9fa7" d="M300 100h100v100H300z"/><path fill="#251a28" d="M400 100h100v100H400z"/><path fill="#754f58" d="M500 100h100v100H500z"/><path fill="#302128" d="M600 100h100v100H600z"/><path fill="#343146" d="M700 100h100v100H700z"/><path fill="#3b3236" d="M0 200h100v100H0z"/><path fill="#3d2730" d="M100 200h100v100H100z"/><path fill="#604a55" d="M200 200h100v100H200z"/><path fill="#5b4750" d="M300 200h100v100H300z"/><path fill="#251f2f" d="M400 200h100v100H400z"/><path fill="#47282b" d="M500 200h100v100H500z"/><path fill="#241b29" d="M600 200h100v100H600z"/><path fill="#525268" d="M700 200h100v100H700z"/><path fill="#382934" d="M0 300h100v100H0z"/><path fill="#6d4c3f" d="M100 300h100v100H100z"/><path fill="#b78c6b" d="M200 300h100v100H200z"/><path fill="#aa7b61" d="M300 300h100v100H300z"/><path fill="#45293c" d="M400 300h100v100H400z"/><path fill="#583e5c" d="M500 300h100v100H500z"/><path fill="#846790" d="M600 300h100v100H600z"/><path fill="#504e68" d="M700 300h100v100H700z"/><path fill="#362429" d="M0 400h100v100H0z"/><path fill="#785141" d="M100 400h100v100H100z"/><path fill="#c89766" d="M200 400h100v100H200z"/><path fill="#f1c365" d="M300 400h100v100H300z"/><path fill="#c18348" d="M400 400h100v100H400z"/><path fill="#986b55" d="M500 400h100v100H500z"/><path fill="#826166" d="M600 400h100v100H600z"/><path fill="#34252d" d="M700 400h100v100H700z"/></svg>