<svg xmlns="http://www.w3.org/2000/svg" viewBox="0 0 800 500"><defs/><path fill="#cab086" d="M0 0h100v100H0z"/><path fill="#af9069" d="M100 0h100v100H100z"/><path fill="#ba8b96" d="M200 0h100v100H200z"/><path fill="#b79a9a" d="M300 0h100v100H300z"/><path fill="#9ea89c" d="M400 0h100v100H400z"/><path fill="#c7c5be" d="M500 0h100v100H500z"/><path fill="#c8bebe" d="M600 0h100v100H600z"/><path fill="#cbc5c8" d="M700 0h100v100H700z"/><path fill="#ad9775" d="M0 100h100v100H0z"/><path fill="#ae9575" d="M100 100h100v100H100z"/><path fill="#ab9297" d="M200 100h100v100H200z"/><path fill="#d3b9b0" d="M300 100h100v100H300z"/><path fill="#d6cdcc" d="M400 100h100v100H400z"/><path fill="#babbaf" d="M500 100h100v100H500z"/><path fill="#b3b2a4" d="M600 100h100v100H600z"/><path fill="#a5a094" d="M700 100h100v100H700z"/><path fill="#cea767" d="M0 200h100v100H0z"/><path fill="#a59486" d="M100 200h100v100H100z"/><path fill="#907d7a" d="M200 200h100v100H200z"/><path fill="#c6b6b1" d="M300 200h100v100H300z"/><path fill="#d0c4bb" d="M400 200h100v100H400z"/><path fill="#c4bcba" d="M500 200h100v100H500z"/><path fill="#bcaeac" d="M600 200h100v100H600z"/><path fill="#856a57" d="M700 200h100v100H700z"/><path fill="#c0946d" d="M0 300h100v100H0z"/><path fill="#a08a72" d="M100 300h100v100H100z"/><path fill="#937971" d="M200 300h100v100H200z"/><path fill="#ada298" d="M300 300h100v100H300z"/><path fill="#b8a190" d="M400 300h100v100H400z"/><path fill="#b8927e" d="M500 300h100v100H500z"/><path fill="#c7ae8b" d="M600 300h100v100H600z"/><path fill="#a08f71" d="M700 300h100v100H700z"/><path fill="#bf9a6c" d="M0 400h100v100H0z"/><path fill="#b48c6e" d="M100 400h100v100H100z"/><path fill="#ba8e70" d="M200 400h100v100H200z"/><path fill="#b9967d" d="M300 400h100v100H300z"/><path fill="#c59d7f" d="M400 400h100v100H400z"/><path fill="#b6957a" d="M500 400h100v100H500z"/><path fill="#b49f87" d="M600 400h100v100H600z"/><path fill="#b7a082" d="M700 400h100v100H700z"/></svg>