<svg xmlns="http://www.w3.org/2000/svg" viewBox="0 0 800 500"><defs/><path fill="#999b97" d="M0 0h100v100H0z"/><path fill="#6c826a" d="M100 0h100v100H100z"/><path fill="#788876" d="M200 0h100v100H200z"/><path fill="#7f857e" d="M300 0h100v100H300z"/><path fill="#787e77" d="M400 0h100v100H400z"/><path fill="#646963" d="M500 0h100v100H500z"/><path fill="#5e635d" d="M600 0h100v100H600z"/><path fill="#5a765a" d="M700 0h100v100H700z"/><path fill="#565a56" d="M0 100h100v100H0z"/><path fill="#254423" d="M100 100h100v100H100z"/><path fill="#657f62" d="M200 100h100v100H200z"/><path fill="#849082" d="M300 100h100v100H300z"/><path fill="#595e58" d="M400 100h100v100H400z"/><path fill="#3e503d" d="M500 100h100v100H500z"/><path fill="#344e32" d="M600 100h100v100H600z"/><path fill="#132d12" d="M700 100h100v100H700z"/><path fill="#525752" d="M0 200h100v100H0z"/><path fill="#293f29" d="M100 200h100v100H100z"/><path fill="#70806f" d="M200 200h100v100H200z"/><path fill="#777c76" d="M300 200h100v100H300z"/><path fill="#555554" d="M400 200h100v100H400z"/><path fill="#555e55" d="M500 200h100v100H500z"/><path fill="#484e47" d="M600 200h100v100H600z"/><path fill="#40763c" d="M700 200h100v100H700z"/><path fill="#4e584d" d="M0 300h100v100H0z"/><path fill="#081e07" d="M100 300h100v100H100z"/><path fill="#5f8b5d" d="M200 300h100v100H200z"/><path fill="#749472" d="M300 300h100v100H300z"/><path fill="#607f5f" d="M400 300h100v100H400z"/><path fill="#2c412b" d="M500 300h100v100H500z"/><path fill="#3f5e3d" d="M600 300h100v100H600z"/><path fill="#2c5b27" d="M700 300h100v100H700z"/><path fill="#555b55" d="M0 400h100v100H0z"/><path fill="#273926" d="M100 400h100v100H100z"/><path fill="#5b7d58" d="M200 400h100v100H200z"/><path fill="#7fa27b" d="M300 400h100v100H300z"/><path fill="#638361" d="M400 400h100v100H400z"/><path fill="#476546" d="M500 400h100v100H500z"/><path fill="#628f60" d="M600 400h100v100H600z"/><path fill="#3a4f39" d="M700 400h100v100H700z"/></svg>