<svg xmlns="http://www.w3.org/2000/svg" viewBox="0 0 800 600"><defs/><path fill="#f6f3f2" d="M0 0h100v100H0z"/><path fill="#f3efeb" d="M100 0h100v100H100z"/><path fill="#dad3cb" d="M200 0h100v100H200z"/><path fill="#ccc4b6" d="M300 0h100v100H300z"/><path fill="#d0c3b7" d="M400 0h100v100H400z"/><path fill="#dad6d1" d="M500 0h100v100H500z"/><path fill="#f6fafb" d="M600 0h100v100H600z"/><path fill="#f8f6f5" d="M700 0h100v100H700z"/><path fill="#cabba9" d="M0 100h100v100H0z"/><path fill="#a07d57" d="M100 100h100v100H100z"/><path fill="#b3af9f" d="M200 100h100v100H200z"/><path fill="#b6c1ae" d="M300 100h100v100H300z"/><path fill="#938b82" d="M400 100h100v100H400z"/><path fill="#96b4bd" d="M500 100h100v100H500z"/><path fill="#afdeed" d="M600 100h100v100H600z"/><path fill="#c6bbad" d="M700 100h100v100H700z"/><path fill="#c0ae97" d="M0 200h100v100H0z"/><path fill="#a07f5a" d="M100 200h100v100H100z"/><path fill="#a3998a" d="M200 200h100v100H200z"/><path fill="#c8bcac" d="M300 200h100v100H300z"/><path fill="#928f89" d="M400 200h100v100H400z"/><path fill="#878f8f" d="M500 200h100v100H500z"/><path fill="#8d9ea0" d="M600 200h100v100H600z"/><path fill="#bab2a8" d="M700 200h100v100H700z"/><path fill="#baa286" d="M0 300h100v100H0z"/><path fill="#947457" d="M100 300h100v100H100z"/><path fill="#8f7768" d="M200 300h100v100H200z"/><path fill="#a89981" d="M300 300h100v100H300z"/><path fill="#89867e" d="M400 300h100v100H400z"/><path fill="#595d5e" d="M500 300h100v100H500z"/><path fill="#463a36" d="M600 300h100v100H600z"/><path fill="#8d847b" d="M700 300h100v100H700z"/><path fill="#a4896b" d="M0 400h100v100H0z"/><path fill="#838072" d="M100 400h100v100H100z"/><path fill="#92968f" d="M200 400h100v100H200z"/><path fill="#727666" d="M300 400h100v100H300z"/><path fill="#6c7a7a" d="M400 400h100v100H400z"/><path fill="#709cac" d="M500 400h100v100H500z"/><path fill="#585f5e" d="M600 400h100v100H600z"/><path fill="#7f888a" d="M700 400h100v100H700z"/><path fill="#cecfcc" d="M0 500h100v100H0z"/><path fill="#c5d3d7" d="M100 500h100v100H100z"/><path fill="#c6d0d4" d="M200 500h100v100H200z"/><path fill="#c6c8c7" d="M300 500h100v100H300z"/><path fill="#c5c5c5" d="M400 500h100v100H400z"/><path fill="#c2cfd3" d="M500 500h100v100H500z"/><path fill="#b3bbbe" d="M600 500h100v100H600z"/><path fill="#c6ced2" d="M700 500h100v100H700z"/></svg>