<svg xmlns="http://www.w3.org/2000/svg" viewBox="0 0 800 500"><defs/><path fill="#aaaeac" d="M0 0h100v100H0z"/><path fill="#bfb0b1" d="M100 0h100v100H100z"/><path fill="#c7bbbc" d="M200 0h100v100H200z"/><path fill="#cfcccc" d="M300 0h100v100H300z"/><path fill="#d6c5c6" d="M400 0h100v100H400z"/><path fill="#d5c9ca" d="M500 0h100v100H500z"/><path fill="#afb5b8" d="M600 0h100v100H600z"/><path fill="#b5bbb9" d="M700 0h100v100H700z"/><path fill="#999" d="M0 100h100v100H0z"/><path fill="#c09d9f" d="M100 100h100v100H100z"/><path fill="#c7aeb1" d="M200 100h100v100H200z"/><path fill="#ccbfbf" d="M300 100h100v100H300z"/><path fill="#d9bcbd" d="M400 100h100v100H400z"/><path fill="#ddb7b9" d="M500 100h100v100H500z"/><path fill="#b0a0a6" d="M600 100h100v100H600z"/><path fill="#abb5b5" d="M700 100h100v100H700z"/><path fill="#a59d9c" d="M0 200h100v100H0z"/><path fill="#be9e9f" d="M100 200h100v100H100z"/><path fill="#cbbcbd" d="M200 200h100v100H200z"/><path fill="#dab7b9" d="M300 200h100v100H300z"/><path fill="#d2c3c4" d="M400 200h100v100H400z"/><path fill="#cfccce" d="M500 200h100v100H500z"/><path fill="#c2b5b9" d="M600 200h100v100H600z"/><path fill="#b0b8b6" d="M700 200h100v100H700z"/><path fill="#a79494" d="M0 300h100v100H0z"/><path fill="#aa989b" d="M100 300h100v100H100z"/><path fill="#a7b7ba" d="M200 300h100v100H200z"/><path fill="#babebf" d="M300 300h100v100H300z"/><path fill="#bdbfc3" d="M400 300h100v100H400z"/><path fill="#c6c6cb" d="M500 300h100v100H500z"/><path fill="#b7b9bf" d="M600 300h100v100H600z"/><path fill="#b6bdbb" d="M700 300h100v100H700z"/><path fill="#a1a4a3" d="M0 400h100v100H0z"/><path fill="#b9c1c1" d="M100 400h100v100H100z"/><path fill="#aebbbd" d="M200 400h100v100H200z"/><path fill="#c0b9ba" d="M300 400h100v100H300z"/><path fill="#beb6ba" d="M400 400h100v100H400z"/><path fill="#c8c8ca" d="M500 400h100v100H500z"/><path fill="#c3c5c9" d="M600 400h100v100H600z"/><path fill="#bfc6c3" d="M700 400h100v100H700z"/></svg>