<svg xmlns="http://www.w3.org/2000/svg" viewBox="0 0 800 500"><defs/><path fill="#823b89" d="M0 0h100v100H0z"/><path fill="#c56f1c" d="M100 0h100v100H100z"/><path fill="#c3b44b" d="M200 0h100v100H200z"/><path fill="#dbbd21" d="M300 0h100v100H300z"/><path fill="#dfc339" d="M400 0h100v100H400z"/><path fill="#d1c05d" d="M500 0h100v100H500z"/><path fill="#e4be31" d="M600 0h100v100H600z"/><path fill="#f19807" d="M700 0h100v100H700z"/><path fill="#9e5067" d="M0 100h100v100H0z"/><path fill="#d17d18" d="M100 100h100v100H100z"/><path fill="#9eb186" d="M200 100h100v100H200z"/><path fill="#bfb237" d="M300 100h100v100H300z"/><path fill="#aabb83" d="M400 100h100v100H400z"/><path fill="#9bbad3" d="M500 100h100v100H500z"/><path fill="#b5a95f" d="M600 100h100v100H600z"/><path fill="#e47b18" d="M700 100h100v100H700z"/><path fill="#9e4c60" d="M0 200h100v100H0z"/><path fill="#d09d17" d="M100 200h100v100H100z"/><path fill="#eec537" d="M200 200h100v100H200z"/><path fill="#eeb32d" d="M300 200h100v100H300z"/><path fill="#deb333" d="M400 200h100v100H400z"/><path fill="#e3c233" d="M500 200h100v100H500z"/><path fill="#d4a824" d="M600 200h100v100H600z"/><path fill="#ce7021" d="M700 200h100v100H700z"/><path fill="#ae5845" d="M0 300h100v100H0z"/><path fill="#bc8325" d="M100 300h100v100H100z"/><path fill="#93ab53" d="M200 300h100v100H200z"/><path fill="#a0ac49" d="M300 300h100v100H300z"/><path fill="#b9a53b" d="M400 300h100v100H400z"/><path fill="#c07431" d="M500 300h100v100H500z"/><path fill="#c5722d" d="M600 300h100v100H600z"/><path fill="#dc9a25" d="M700 300h100v100H700z"/><path fill="#c6682f" d="M0 400h100v100H0z"/><path fill="#b04134" d="M100 400h100v100H100z"/><path fill="#876768" d="M200 400h100v100H200z"/><path fill="#917a74" d="M300 400h100v100H300z"/><path fill="#b56949" d="M400 400h100v100H400z"/><path fill="#bf4a3d" d="M500 400h100v100H500z"/><path fill="#9a3e58" d="M600 400h100v100H600z"/><path fill="#de922d" d="M700 400h100v100H700z"/></svg>