<svg xmlns="http://www.w3.org/2000/svg" viewBox="0 0 800 600"><defs/><path fill="#d3e1de" d="M0 0h100v100H0z"/><path fill="#dad9d5" d="M100 0h100v100H100z"/><path fill="#f5e9e5" d="M200 0h100v100H200z"/><path fill="#f5ebe9" d="M300 0h100v100H300z"/><path fill="#fbf4ef" d="M400 0h100v100H400z"/><path fill="#f3f0ed" d="M500 0h100v100H500z"/><path fill="#f0ece9" d="M600 0h100v100H600z"/><path fill="#e8e3f0" d="M700 0h100v100H700z"/><path fill="#408e7a" d="M0 100h100v100H0z"/><path fill="#877b67" d="M100 100h100v100H100z"/><path fill="#9f9e8b" d="M200 100h100v100H200z"/><path fill="#899987" d="M300 100h100v100H300z"/><path fill="#baa89e" d="M400 100h100v100H400z"/><path fill="#908076" d="M500 100h100v100H500z"/><path fill="#88836f" d="M600 100h100v100H600z"/><path fill="#6092b4" d="M700 100h100v100H700z"/><path fill="#52957b" d="M0 200h100v100H0z"/><path fill="#837862" d="M100 200h100v100H100z"/><path fill="#53716b" d="M200 200h100v100H200z"/><path fill="#5d5f54" d="M300 200h100v100H300z"/><path fill="#807a6d" d="M400 200h100v100H400z"/><path fill="#4c4673" d="M500 200h100v100H500z"/><path fill="#524c84" d="M600 200h100v100H600z"/><path fill="#4d9caa" d="M700 200h100v100H700z"/><path fill="#6d9082" d="M0 300h100v100H0z"/><path fill="#90775c" d="M100 300h100v100H100z"/><path fill="#717c59" d="M200 300h100v100H200z"/><path fill="#4a5b50" d="M300 300h100v100H300z"/><path fill="#605f85" d="M400 300h100v100H400z"/><path fill="#342f85" d="M500 300h100v100H500z"/><path fill="#302880" d="M600 300h100v100H600z"/><path fill="#5176a8" d="M700 300h100v100H700z"/><path fill="#818e7d" d="M0 400h100v100H0z"/><path fill="#8d502f" d="M100 400h100v100H100z"/><path fill="#219d85" d="M200 400h100v100H200z"/><path fill="#00ccb9" d="M300 400h100v100H300z"/><path fill="#254d70" d="M400 400h100v100H400z"/><path fill="#301d68" d="M500 400h100v100H500z"/><path fill="#3e2f66" d="M600 400h100v100H600z"/><path fill="#555f75" d="M700 400h100v100H700z"/><path fill="#cfc6bc" d="M0 500h100v100H0z"/><path fill="#d3b19e" d="M100 500h100v100H100z"/><path fill="#b4b1a5" d="M200 500h100v100H200z"/><path fill="#a8b8ac" d="M300 500h100v100H300z"/><path fill="#beab9f" d="M400 500h100v100H400z"/><path fill="#b1a1a4" d="M500 500h100v100H500z"/><path fill="#c1aa9e" d="M600 500h100v100H600z"/><path fill="#c6b2a0" d="M700 500h100v100H700z"/></svg>