<svg xmlns="http://www.w3.org/2000/svg" viewBox="0 0 800 500"><defs/><path fill="#ada7a2" d="M0 0h100v100H0z"/><path fill="#b5a088" d="M100 0h100v100H100z"/><path fill="#dfc2b2" d="M200 0h100v100H200z"/><path fill="#e1c8bb" d="M300 0h100v100H300z"/><path fill="#ddc3b5" d="M400 0h100v100H400z"/><path fill="#dec4b8" d="M500 0h100v100H500z"/><path fill="#ddc1b6" d="M600 0h100v100H600z"/><path fill="#cbbfba" d="M700 0h100v100H700z"/><path fill="#a09692" d="M0 100h100v100H0z"/><path fill="#9b7d66" d="M100 100h100v100H100z"/><path fill="#c5a091" d="M200 100h100v100H200z"/><path fill="#c7aca9" d="M300 100h100v100H300z"/><path fill="#d58b6c" d="M400 100h100v100H400z"/><path fill="#d47a4b" d="M500 100h100v100H500z"/><path fill="#b87761" d="M600 100h100v100H600z"/><path fill="#aa9e9f" d="M700 100h100v100H700z"/><path fill="#c6b9b5" d="M0 200h100v100H0z"/><path fill="#ac978c" d="M100 200h100v100H100z"/><path fill="#bd9a93" d="M200 200h100v100H200z"/><path fill="#a88e8d" d="M300 200h100v100H300z"/><path fill="#bd9f8f" d="M400 200h100v100H400z"/><path fill="#e39360" d="M500 200h100v100H500z"/><path fill="#d5915d" d="M600 200h100v100H600z"/><path fill="#b5997d" d="M700 200h100v100H700z"/><path fill="#bfafa8" d="M0 300h100v100H0z"/><path fill="#8f7a63" d="M100 300h100v100H100z"/><path fill="#7f5d4d" d="M200 300h100v100H200z"/><path fill="#88766c" d="M300 300h100v100H300z"/><path fill="#979490" d="M400 300h100v100H400z"/><path fill="#b36b39" d="M500 300h100v100H500z"/><path fill="#c3814d" d="M600 300h100v100H600z"/><path fill="#a4704c" d="M700 300h100v100H700z"/><path fill="#c7b7ad" d="M0 400h100v100H0z"/><path fill="#867868" d="M100 400h100v100H100z"/><path fill="#87776b" d="M200 400h100v100H200z"/><path fill="#957a67" d="M300 400h100v100H300z"/><path fill="#aa9d94" d="M400 400h100v100H400z"/><path fill="#beb6b0" d="M500 400h100v100H500z"/><path fill="#c9b4a2" d="M600 400h100v100H600z"/><path fill="#b6adaa" d="M700 400h100v100H700z"/></svg>