<svg xmlns="http://www.w3.org/2000/svg" viewBox="0 0 800 500"><defs/><path fill="#e2d5dd" d="M0 0h100v100H0z"/><path fill="#dcc9d2" d="M100 0h100v100H100z"/><path fill="#d2c6d1" d="M200 0h100v100H200z"/><path fill="#d8cdd4" d="M300 0h100v100H300z"/><path fill="#decfd5" d="M400 0h100v100H400z"/><path fill="#d1c6d3" d="M500 0h100v100H500z"/><path fill="#d0c6d4" d="M600 0h100v100H600z"/><path fill="#d5d6dc" d="M700 0h100v100H700z"/><path fill="#ab9fa9" d="M0 100h100v100H0z"/><path fill="#b17771" d="M100 100h100v100H100z"/><path fill="#857989" d="M200 100h100v100H200z"/><path fill="#69a1b1" d="M300 100h100v100H300z"/><path fill="#6da6b3" d="M400 100h100v100H400z"/><path fill="#7c8887" d="M500 100h100v100H500z"/><path fill="#986459" d="M600 100h100v100H600z"/><path fill="#6e5870" d="M700 100h100v100H700z"/><path fill="#c6aaa6" d="M0 200h100v100H0z"/><path fill="#d3aa84" d="M100 200h100v100H100z"/><path fill="#a5927e" d="M200 200h100v100H200z"/><path fill="#afa59b" d="M300 200h100v100H300z"/><path fill="#bbb8b1" d="M400 200h100v100H400z"/><path fill="#d3b99b" d="M500 200h100v100H500z"/><path fill="#9d6753" d="M600 200h100v100H600z"/><path fill="#805c6d" d="M700 200h100v100H700z"/><path fill="#b1879a" d="M0 300h100v100H0z"/><path fill="#a06164" d="M100 300h100v100H100z"/><path fill="#b0755b" d="M200 300h100v100H200z"/><path fill="#be7750" d="M300 300h100v100H300z"/><path fill="#cd957b" d="M400 300h100v100H400z"/><path fill="#b1747e" d="M500 300h100v100H500z"/><path fill="#672f48" d="M600 300h100v100H600z"/><path fill="#774f6e" d="M700 300h100v100H700z"/><path fill="#d2c7d3" d="M0 400h100v100H0z"/><path fill="#bca6ba" d="M100 400h100v100H100z"/><path fill="#cab1bc" d="M200 400h100v100H200z"/><path fill="#caaeb4" d="M300 400h100v100H300z"/><path fill="#caaeb2" d="M400 400h100v100H400z"/><path fill="#c7a7b1" d="M500 400h100v100H500z"/><path fill="#bda5b8" d="M600 400h100v100H600z"/><path fill="#c1adc4" d="M700 400h100v100H700z"/></svg>