<svg xmlns="http://www.w3.org/2000/svg" viewBox="0 0 800 500"><defs/><path fill="#72625f" d="M0 0h100v100H0z"/><path fill="#94837b" d="M100 0h100v100H100z"/><path fill="#7c7669" d="M200 0h100v100H200z"/><path fill="#7a786e" d="M300 0h100v100H300z"/><path fill="#7e7b71" d="M400 0h100v100H400z"/><path fill="#75736b" d="M500 0h100v100H500z"/><path fill="#7f7a71" d="M600 0h100v100H600z"/><path fill="#716969" d="M700 0h100v100H700z"/><path fill="#948482" d="M0 100h100v100H0z"/><path fill="#b9aca8" d="M100 100h100v100H100z"/><path fill="#b9b5ad" d="M200 100h100v100H200z"/><path fill="#c6c0be" d="M300 100h100v100H300z"/><path fill="#cdc8c6" d="M400 100h100v100H400z"/><path fill="#c9c3c4" d="M500 100h100v100H500z"/><path fill="#cbcbc7" d="M600 100h100v100H600z"/><path fill="#adaaad" d="M700 100h100v100H700z"/><path fill="#93847b" d="M0 200h100v100H0z"/><path fill="#aca29b" d="M100 200h100v100H100z"/><path fill="#aba9ab" d="M200 200h100v100H200z"/><path fill="#b7b4b8" d="M300 200h100v100H300z"/><path fill="#b9b8bf" d="M400 200h100v100H400z"/><path fill="#b2afba" d="M500 200h100v100H500z"/><path fill="#a8a9b1" d="M600 200h100v100H600z"/><path fill="#9e999d" d="M700 200h100v100H700z"/><path fill="#9b8c85" d="M0 300h100v100H0z"/><path fill="#b7aba5" d="M100 300h100v100H100z"/><path fill="#bab5ac" d="M200 300h100v100H200z"/><path fill="#b4b4ab" d="M300 300h100v100H300z"/><path fill="#b6b7b5" d="M400 300h100v100H400z"/><path fill="#aaa8b2" d="M500 300h100v100H500z"/><path fill="#b8aeaf" d="M600 300h100v100H600z"/><path fill="#a6a3a5" d="M700 300h100v100H700z"/><path fill="#827d7a" d="M0 400h100v100H0z"/><path fill="#a19e9e" d="M100 400h100v100H100z"/><path fill="#9d9998" d="M200 400h100v100H200z"/><path fill="#959390" d="M300 400h100v100H300z"/><path fill="#989ea7" d="M400 400h100v100H400z"/><path fill="#868b96" d="M500 400h100v100H500z"/><path fill="#96969f" d="M600 400h100v100H600z"/><path fill="#827c81" d="M700 400h100v100H700z"/></svg>